<svg xmlns="http://www.w3.org/2000/svg" viewBox="1126.476 451.285 2.495 1.811">
  <path d="M1126.689871,451.696334l-0.091,0.133l0.014,0.098l0.066,0.014l0.014,0.055l-0.132,0.084l-0.066,0.139l0.023,0.019l0.151,-0.051l0.095,0.037l0.075,0.153v0.088l-0.094,0.088l-0.245,0.033l-0.024,0.046l0.061,0.037l0.095,0.005l0.056,0.093l0.01,0.194l0.08,0.07l0.283,0.028l0.104,0.037l0.222,-0.028l0.061,-0.06l0.028,-0.144l0.048,-0.014l0.052,0.06l0.056,-0.014l0.08,-0.097l0.373,-0.018l0.066,-0.052l0.014,-0.143l0.194,-0.037l0.057,0.055l0.07,-0.018l0.098,-0.082l-0.003,-0.124l0.047,-0.102l0.022,-0.176l0.079,-0.087l0.11,-0.003l0.082,-0.019l0.05,-0.071l-0.022,-0.049l-0.118,0.007l-0.123,-0.046l-0.111,-0.005l-0.026,-0.018l0.024,-0.084l0.075,-0.097l-0.033,-0.033l-0.103,0.005l-0.128,-0.056l-0.137,-0.018l-0.066,0.037l-0.08,-0.005l-0.019,-0.042l-0.123,-0.027l-0.193,0.023l-0.156,-0.056l-0.066,-0.116l-0.159,-0.057l-0.126,0.025l-0.078,0.046l-0.129,-0.003l-0.041,-0.057l-0.104,0.026l-0.052,0.122l0.033,0.184l-0.108,0.076l-0.112,-0.008z"/>
</svg>
