<svg xmlns="http://www.w3.org/2000/svg" viewBox="1483.010 579.390 4.510 4.997">
  <path d="M1487.24645,583.482123l-0.082,0.025l-0.465,-0.178l-0.005,0.116l0.361,0.427l0.01,0.185l0.115,0.115l0.025,0.105l0.068,0.105l0.094,0.005l-0.02,-0.091l0.019,-0.136l0.068,-0.087l0.086,-0.235l-0.291,-0.21l0.017,-0.146z M1486.839694,580.429134l0.049,-0.059l0.043,-0.034l0.155,-0.012l0.006,-0.087l-0.08,-0.086l-0.118,-0.031l-0.204,-0.006l-0.086,0.08l0.006,0.105l0.161,0.13h0.068z M1483.010313,579.74863l0.242,0.179l0.309,0.118l0.557,-0.075l0.241,-0.278l-0.025,-0.093l-0.544,-0.185l-0.279,0.012l-0.173,-0.037l-0.111,0.074l-0.124,0.13l-0.093,0.155z"/>
</svg>
