<svg xmlns="http://www.w3.org/2000/svg" viewBox="1486.629 577.874 2.710 4.764">
  <path d="M1488.346083,580.656484l-0.135,0.109l0.061,0.123l0.213,0.047l0.279,-0.074l0.139,-0.13l0.176,-0.065l0.037,-0.177l-0.051,-0.078l0.177,-0.121l0.097,-0.023l-0.068,0.459l-0.006,0.303l-0.075,0.331l0.013,0.269l-0.003,0.238l-0.204,-0.018l-0.056,0.111l0.009,0.464l-0.139,0.149l-0.241,0.065l-0.139,-0.065l-0.038,-0.186l-0.232,-0.325l0.075,-0.621l-0.112,-0.344l-0.037,-0.25l-0.12,-0.028l-0.158,0.195l-0.381,0.213h-0.222l-0.214,-0.093l-0.12,0.01l-0.075,-0.265l0.005,-0.12l0.037,-0.079l0.002,-0.251l0.049,-0.059l0.043,-0.034l0.036,0.088l0.213,-0.018l0.24,-0.125l0.365,-0.359l0.013,-0.149l-0.124,-0.074l-0.093,0.105l-0.198,0.105l-0.142,-0.086l0.031,-0.136l0.321,-0.149l0.068,-0.161l-0.055,-0.117l-0.031,-0.149l-0.149,-0.061l-0.123,0.129l-0.26,0.124l-0.186,-0.049l0.025,-0.143l-0.142,-0.179l-0.112,-0.291l0.044,-0.185l0.389,-0.062l0.099,-0.124l0.05,-0.173l0.241,-0.025l0.192,-0.062l0.148,-0.13l0.068,-0.006l0.106,0.037l0.13,0.093l0.037,0.204l0.062,0.062h0.154l0.093,0.037h0.148l0.013,-0.031l-0.056,-0.037l0.009,-0.056l0.056,-0.03l0.09,0.03l0.043,0.069l0.353,0.055l0.074,0.112l0.025,0.284l0.055,0.093l0.019,0.155l-0.037,0.111l0.012,0.254l-0.018,0.173l0.023,0.128h-0.07l-0.292,0.218l-0.074,0.135l-0.139,0.102l-0.2,0.037l-0.209,0.264l-0.009,0.163l0.088,0.12z"/>
</svg>
