<svg xmlns="http://www.w3.org/2000/svg" viewBox="1482.546 578.907 6.793 5.384">
  <path d="M1485.645719,584.048178v-0.055l-0.047,-0.024v-0.765l0.26,-0.385h0.385l0.325,-0.288l0.237,-0.283l-0.084,-0.232l0.084,-0.204l0.074,-0.418l-0.102,-0.083l-0.009,-0.158l0.102,-0.009l-0.075,-0.265l0.005,-0.12l0.037,-0.079l0.002,-0.251h-0.068l-0.161,-0.13l-0.006,-0.105l0.086,-0.08l0.204,0.006l0.017,-0.262l-0.088,-0.018l-0.171,0.148l-0.158,-0.004l-0.056,-0.121h-0.065l-0.199,0.149l-0.024,0.083l0.038,0.07l-0.038,0.097h-0.148l-0.181,0.079l-0.241,0.009l-0.093,-0.116l0.083,-0.106l-0.097,-0.223l-0.19,-0.121l-0.121,-0.13l-0.083,-0.041l-0.256,0.009l-0.417,-0.135l-0.227,-0.195l-0.279,-0.134l-0.232,-0.251l-0.133,0.149l-0.086,0.179l-0.112,0.155l0.173,0.037l0.279,-0.012l0.544,0.185l0.025,0.093l-0.241,0.278l-0.557,0.075l-0.309,-0.118l-0.242,-0.179l-0.173,0.105l-0.173,0.192l-0.099,0.225l-0.019,0.102l0.096,0.072l0.118,-0.016l1.614,0.65l0.223,1.076l-0.009,0.511l0.352,1.011l0.159,0.614l0.24,-0.094l0.307,-0.149z M1488.963176,582.762954l0.158,0.005l0.19,-0.051l-0.046,-0.246l-0.031,-0.372l-0.034,-0.232l-0.204,-0.018l-0.056,0.111l0.009,0.464l-0.139,0.149l-0.241,0.065l-0.139,-0.065l-0.038,-0.186l-0.232,-0.325l-0.167,-0.046l-0.055,0.13l0.148,0.315l-0.028,0.195l0.028,0.232l0.167,0.232l0.344,0.112l0.074,-0.056l-0.047,-0.167l0.13,-0.241l0.209,-0.005z M1488.346083,580.656484l0.13,-0.055l0.056,-0.098l-0.065,-0.167l0.06,-0.106l0.125,-0.014l0.186,0.074l0.079,0.097l0.148,0.024l0.177,-0.121l0.097,-0.023l-0.006,-0.122l-0.043,-0.062l-0.155,0.031l-0.031,-0.124l0.136,-0.186l0.011,-0.187h-0.07l-0.292,0.218l-0.074,0.135l-0.139,0.102l-0.2,0.037l-0.209,0.264l-0.009,0.163l0.088,0.12z"/>
</svg>
