<svg xmlns="http://www.w3.org/2000/svg" viewBox="1483.669 577.905 2.339 2.445">
  <path d="M1484.037255,578.696942l0.043305,-0.055678l0.049491,0.006186l-0.006186,0.061864l-0.037118,0.043305l-0.049491,0.006186v-0.061864Z M1484.23522,578.28864l-0.018559,0.111355l0.049491,0.055678l0.080423,-0.018559l0.160846,-0.228897l0.105169,-0.055678l-0.018559,-0.043305l-0.228897,0.061864l-0.129914,0.117542Z  M1483.669164,578.90728l0.232,0.251l0.279,0.134l0.227,0.195l0.417,0.135l0.256,-0.009l0.083,0.041l0.121,0.13l0.19,0.121l0.097,0.223l-0.083,0.106l0.093,0.116l0.241,-0.009l0.181,-0.079l0.005,-0.181l-0.037,-0.204l-0.019,-0.227l-0.209,-0.385l-0.056,-0.27l0.005,-0.422l-0.538,-0.668l-0.226,0.223l-0.359,0.216l-0.074,0.143l0.025,0.179l-0.074,0.074l-0.384,0.099l-0.118,-0.006l-0.03,-0.093l0.068,-0.253l0.105,-0.087l0.006,-0.124l-0.062,0.006l-0.043,0.093l-0.093,0.05l-0.13,0.179l-0.019,0.167l-0.077,0.136z"/>
</svg>
