<svg xmlns="http://www.w3.org/2000/svg" viewBox="1457.380 575.014 31.959 24.129">
  <path fill-rule="evenodd" d="M1484.037255,578.696942l0.043305,-0.055678l0.049491,0.006186l-0.006186,0.061864l-0.037118,0.043305l-0.049491,0.006186v-0.061864Z M1484.23522,578.28864l-0.018559,0.111355l0.049491,0.055678l0.080423,-0.018559l0.160846,-0.228897l0.105169,-0.055678l-0.018559,-0.043305l-0.228897,0.061864l-0.129914,0.117542Z  M1485.051825,577.688559l0.043305,-0.037118h0.055678l0.012373,0.055678l-0.06805,0.055678l-0.049491,-0.024746l0.006186,-0.049491Z  M1474.95562,580.958071l0.051038,-0.106715l0.134554,-0.037118l0.064957,0.074237l0.023199,0.139194l-0.055678,0.046398l-0.148474,-0.023199l-0.069597,-0.092796Z M1466.186397,581.589084l0.064957,0.148474l0.074237,-0.00928l0.00928,-0.148474l-0.064957,-0.148474l-0.064957,0.00928l-0.018559,0.148474Z M1467.466982,583.324369v0.120635l0.055678,0.102076l0.102076,0.018559l0.027839,-0.129914l-0.092796,-0.111355h-0.092796Z M1464.126326,583.964662v0.092796l0.046398,0.083516l0.074237,-0.00928l0.018559,-0.083516l-0.064957,-0.102076l-0.074237,0.018559Z M1462.530235,586.433036l0.064957,-0.00928l0.129914,-0.269108l-0.00928,-0.194872l-0.120635,-0.111355l-0.120635,-0.00928l-0.111355,0.148474l-0.00928,0.176312l0.176312,0.269108Z M1464.49751,587.815696l0.185592,-0.250549l0.083516,-0.315506l-0.167033,-0.22271l-0.23199,-0.018559l-0.24127,0.148474l-0.055678,0.296947l0.269108,0.389743l0.157753,-0.027839Z M1467.624735,587.416673l0.092796,-0.037118v-0.102076l-0.064957,-0.055678l-0.074237,0.00928l-0.027839,0.102076l0.074237,0.083516Z M1468.357824,587.611545h0.111355l0.00928,-0.074237l-0.083516,-0.083516l-0.083516,-0.00928l-0.046398,0.074237l0.092796,0.092796Z M1468.645491,587.741459l0.111355,-0.027839l0.102076,-0.083516l0.167033,-0.00928l0.148474,0.111355l0.111355,-0.046398l-0.00928,-0.176312l-0.074237,-0.083516l-0.269108,-0.00928l-0.201058,0.064957l-0.123728,0.083516l-0.018559,0.092796l0.055678,0.083516Z M1469.731205,588.261117l0.129914,-0.00928l0.037118,-0.074237l-0.037118,-0.074237l-0.120635,-0.037118l-0.120635,0.027839l0.00928,0.083516l0.102076,0.083516Z M1471.169543,588.381752l0.00928,0.092796l0.204151,0.074237h0.23199l0.501098,0.157753l0.296947,-0.046398l0.204151,-0.250549l0.129914,0.00928l0.269108,0.278388l0.204151,-0.00928l0.213431,-0.157753l0.00928,-0.176312l-0.22271,-0.22271l-0.343345,-0.111355l-0.092796,-0.092796v-0.157753l-0.102076,-0.027839l-0.148474,0.120635l-0.278388,0.064957l-0.213431,0.00928l-0.334066,0.102076l-0.22271,0.22271l-0.315506,0.120635Z M1472.292374,587.574426l0.083516,-0.037118l0.046398,-0.074237l-0.00928,-0.074237l-0.074237,-0.018559l-0.083516,0.055678l-0.018559,0.083516l0.055678,0.064957Z M1468.775406,588.715817l0.00928,0.102076l0.129914,0.046398l0.064957,-0.064957l-0.00928,-0.102076l-0.102076,-0.037118l-0.092796,0.055678Z M1463.312814,588.768402l0.006186,0.080423l0.055678,0.055678l0.043305,-0.012373l0.006186,-0.074237l-0.049491,-0.06805l-0.061864,0.018559Z M1460.448511,588.056966l0.030932,0.061864h0.074237l0.074237,-0.129914l-0.030932,-0.160846h-0.061864l-0.055678,0.08661l-0.030932,0.142287Z M1460.374274,588.310608l0.024746,0.123728l0.055678,-0.006186l0.030932,-0.06805l-0.030932,-0.179406l-0.049491,-0.012373l-0.030932,0.142287Z M1477.887973,584.038899l-0.027839,-0.083516l0.111355,-0.129914h0.064957l0.00928,0.064957l-0.064957,0.064957l-0.027839,0.074237l-0.064957,0.00928Z M1477.213656,585.687574h0.160846l0.030932,-0.049491l-0.080423,-0.06805l-0.197965,-0.006186l-0.043305,0.049491l0.129914,0.074237Z M1477.108487,585.372068l0.173219,-0.043305l0.037118,-0.117542l-0.030932,-0.055678l-0.123728,0.012373l-0.08661,0.098982l-0.06805,0.012373l-0.037118,0.055678l0.136101,0.037118Z M1477.436366,585.081307l0.129914,-0.098982l0.105169,-0.092796l-0.012373,-0.049491l-0.092796,0.006186l-0.15466,0.136101l-0.030932,0.092796l0.055678,0.006186Z M1477.504416,585.291645h0.06805l0.024746,-0.074237l0.092796,-0.06805l0.018559,-0.098982l-0.074237,-0.049491l-0.06805,0.037118l-0.049491,0.111355l-0.012373,0.142287Z M1477.881787,584.945206l0.055678,-0.006186l0.030932,-0.049491l-0.012373,-0.074237h-0.049491l-0.030932,0.061864l0.006186,0.06805Z M1477.058996,585.854607l0.043305,0.037118l0.074237,-0.030932l0.012373,-0.061864l-0.061864,-0.024746l-0.061864,0.024746l-0.006186,0.055678Z M1476.539338,586.18558l0.061864,0.126821l0.08661,0.012373l0.037118,-0.043305l-0.024746,-0.06805l-0.105169,-0.074237l-0.040212,0.006186l-0.015466,0.040212Z M1476.743489,586.411383l0.083516,-0.012373l0.034025,-0.030932l-0.018559,-0.043305l-0.061864,-0.006186l-0.061864,0.055678l0.024746,0.037118Z M1476.805353,586.256723l0.111355,0.040212l0.030932,-0.021652v-0.037118l-0.123728,-0.037118l-0.034025,0.015466l0.015466,0.040212Z M1475.86502,586.187126l0.106715,-0.111355l0.00928,-0.051038l-0.041758,-0.00928l-0.088156,0.055678l-0.023199,0.097436l0.037118,0.018559Z M1475.781504,586.516552l-0.013919,0.041758l0.055678,0.069597l0.129914,0.088156l0.255189,0.078877l0.306227,0.176312l0.134554,0.051038l0.046398,-0.032479l0.00464,-0.074237l-0.074237,-0.069597l-0.371184,-0.129914l-0.426862,-0.208791l-0.046398,0.00928Z M1476.138769,586.924854l-0.037118,0.027839v0.041758l0.037118,0.018559l0.046398,-0.032479v-0.051038l-0.046398,-0.00464Z M1476.588829,587.091887l-0.037118,0.064957l0.00464,0.102076l-0.027839,0.055678l-0.055678,0.032479l-0.018559,0.064957l0.037118,0.027839l0.064957,-0.037118l0.111355,-0.320146l-0.037118,-0.00928l-0.041758,0.018559Z M1476.208366,587.453792l-0.027839,0.041758l0.055678,0.046398l0.097436,0.00464l0.064957,-0.032479l-0.023199,-0.032479l-0.060317,0.00928l-0.064957,-0.00928l-0.041758,-0.027839Z M1474.825705,587.48627l0.111355,0.069597l0.139194,0.190232l0.157753,0.046398l0.074237,-0.055678l0.115995,-0.023199l0.171673,0.051038l0.032479,-0.046398l-0.060317,-0.037118l-0.162393,-0.245909l-0.129914,-0.22271l-0.148474,-0.060317l-0.22735,0.055678l-0.111355,0.120635l-0.018559,0.083516l0.055678,0.074237Z M1475.433519,587.412033l0.134554,0.199511l0.051038,0.041758l0.078877,-0.023199l0.00928,-0.078877l-0.111355,-0.125275l-0.046398,-0.157753l-0.106715,-0.051038l-0.041758,0.032479l0.032479,0.162393Z M1475.591272,587.161484l0.018559,0.102076l0.102076,0.120635l0.060317,-0.00464l0.134554,-0.180952l0.00464,-0.102076l-0.180952,-0.22735l-0.102076,-0.023199l-0.055678,0.051038l0.037118,0.102076l-0.018559,0.162393Z M1475.076254,587.03621l0.171673,0.018559l0.115995,0.083516l0.041758,-0.018559l-0.00464,-0.051038l-0.092796,-0.074237l-0.013919,-0.153113l0.051038,-0.092796l-0.023199,-0.046398l-0.051038,0.00928l-0.134554,0.143834l-0.129914,0.046398l-0.064957,0.083516l0.027839,0.055678l0.106715,-0.00464Z M1472.464047,587.662583l-0.00928,0.037118l0.041758,0.00928l0.167033,-0.064957l0.00928,-0.041758l-0.037118,-0.013919l-0.171673,0.074237Z M1473.77711,588.288956l0.027839,0.074237l0.125275,0.023199l0.041758,0.051038l0.097436,0.00464l0.060317,-0.055678l-0.023199,-0.102076l-0.134554,-0.083516l-0.115995,0.00928l-0.078877,0.078877Z M1474.092617,588.18688l0.069597,0.060317l0.013919,0.074237l0.060317,0.018559l0.064957,-0.041758l-0.013919,-0.074237l-0.111355,-0.069597l-0.064957,-0.00464l-0.018559,0.037118Z M1474.190053,588.108003l0.139194,0.088156l0.013919,0.069597l0.041758,0.00464l0.129914,-0.032479l-0.00464,-0.055678l-0.22735,-0.176312l-0.115995,-0.018559l-0.027839,0.041758l0.051038,0.078877Z M1465.583223,588.298235l-0.037118,0.064957l0.055678,0.074237l0.064957,-0.027839l0.00928,-0.074237l-0.027839,-0.055678l-0.064957,0.018559Z M1474.219438,588.459082h0.092796l0.049491,-0.037118l-0.024746,-0.043305h-0.074237l-0.055678,0.037118l0.012373,0.043305Z M1457.509971,586.80422l0.064957,-0.037118l-0.021598,-0.12605l-0.111442,-0.041791l-0.061831,0.047206l0.027839,0.092796l0.102076,0.064957Z M1458.595684,585.365881l-0.037118,0.102076l0.018559,0.111355l0.074237,0.00928l0.046398,-0.083516l-0.00928,-0.129914l-0.092796,-0.00928Z M1463.031333,582.795432l-0.00928,0.092796l0.074237,0.046398l0.064957,-0.018559l-0.00928,-0.074237l-0.055678,-0.074237l-0.064957,0.027839Z M1465.991526,582.962465l0.00928,0.074237l0.055678,0.074237l0.055678,-0.018559l-0.018559,-0.111355l-0.055678,-0.046398l-0.046398,0.027839Z M1470.575648,588.247197l0.064957,0.051038l0.032479,-0.00928l-0.018559,-0.088156l-0.051038,-0.041758l-0.032479,0.018559l0.00464,0.069597Z  M1487.367085,584.386884l0.218,0.037l0.232,-0.097l0.167,-0.167l0.176,-0.07l0.014,-0.283l0.01,-0.186l0.343,-0.051l0.153,-0.111l0.005,-0.079l0.06,-0.031l0.107,0.031l0.153,-0.102l0.13,-0.241l-0.172,-0.274l0.158,0.005l0.19,-0.051l-0.046,-0.246l-0.031,-0.372l-0.034,-0.232l0.003,-0.238l-0.013,-0.269l0.075,-0.331l0.006,-0.303l0.068,-0.459l-0.006,-0.122l-0.043,-0.062l-0.155,0.031l-0.031,-0.124l0.136,-0.186l0.011,-0.187l-0.023,-0.128l0.018,-0.173l-0.012,-0.254l0.037,-0.111l-0.019,-0.155l-0.055,-0.093l-0.025,-0.284l-0.074,-0.112l-0.353,-0.055l-0.043,-0.069l-0.09,-0.03l-0.056,0.03l-0.009,0.056l0.056,0.037l-0.013,0.031h-0.148l-0.093,-0.037h-0.154l-0.062,-0.062l-0.037,-0.204l-0.13,-0.093l-0.106,-0.037l0.013,-0.159l0.056,-0.32l-0.075,-0.204l-0.023,-0.265l-0.07,-0.093l-0.004,-0.102l0.065,-0.162l0.079,-0.051l-0.014,-0.13l0.116,-0.121l0.004,-0.181l-0.051,-0.023l-0.032,-0.186l0.097,-0.055l0.065,-0.125l-0.055,-0.167v-0.14l-0.084,-0.079l-0.06,-0.157l0.023,-0.042l-0.065,-0.098l-0.088,0.01l-0.037,0.06l-0.051,0.046l-0.065,0.01l-0.042,-0.028h-0.065l-0.084,0.014l-0.116,0.366l-0.139,0.205l-0.093,0.306l-0.408,0.659l-0.455,0.547l-0.259,0.186l-0.474,0.13l-0.194,0.176l-0.121,0.204l-0.226,0.223l-0.359,0.216l-0.074,0.143l0.025,0.179l-0.074,0.074l-0.384,0.099l-0.118,-0.006l-0.03,-0.093l0.068,-0.253l0.105,-0.087l0.006,-0.124l-0.062,0.006l-0.043,0.093l-0.093,0.05l-0.13,0.179l-0.019,0.167l-0.077,0.136l-0.133,0.149l-0.086,0.179l-0.112,0.155l-0.111,0.074l-0.124,0.13l-0.093,0.155l-0.173,0.105l-0.173,0.192l-0.099,0.225l-0.019,0.102l-0.08,-0.021l-0.198,-0.257l-0.084,0.028l-0.018,0.102l0.046,0.093l-0.083,0.12l-0.037,0.205l-0.613,0.825l-0.083,0.214l-0.051,0.046l-0.056,-0.028l-0.065,-0.134l-0.176,-0.005l-0.126,0.13l0.01,0.149l0.157,0.06l0.01,0.065l-0.158,0.19l-0.074,0.158l-0.13,0.074l-0.167,-0.083l-0.074,0.074l0.018,0.139l-0.093,0.084l-0.046,-0.033l-0.028,-0.158l-0.19,-0.097l-0.195,0.06l-0.056,0.214l0.075,0.111l0.111,0.032l-0.005,0.052l-0.139,0.023l-0.176,0.148l-0.149,-0.074l-0.074,0.056l0.056,0.111l-0.088,0.073l-0.042,0.075l-0.282,0.161l-0.086,0.143l-0.285,0.123l-0.148,-0.012l-0.099,0.049l-0.037,0.223l0.099,0.112l0.037,0.16h-0.05l-0.062,-0.111l-0.105,-0.099l-0.018,-0.111l-0.081,-0.007l-0.136,0.13l-0.056,0.198l-0.204,0.192l-0.025,0.149l0.075,0.142l0.037,0.334l-0.05,0.056h-0.105l-0.025,0.049l0.044,0.068l-0.05,0.087l-0.185,0.037l-0.037,0.08l0.068,0.037l0.099,-0.043l0.068,0.031l-0.013,0.136l-0.136,0.378l-0.21,0.142l-0.396,-0.037l-0.272,-0.245v-0.148l-0.13,-0.009l-0.223,0.185l-0.167,0.037v0.075l0.51,0.259l0.427,0.075l0.223,-0.019l0.102,0.111l-0.019,0.093h-0.139l-0.185,-0.083l-0.242,-0.01l-0.083,0.14l-0.195,0.046l-0.158,-0.065l-0.195,-0.371l-0.176,-0.093l-0.037,-0.13l-0.084,-0.009l-0.046,0.074l0.028,0.139l-0.232,0.251l-0.149,0.046l-0.037,0.065l0.204,0.037l0.464,0.214l0.464,0.13l0.047,0.139l-0.093,0.185l-0.13,0.344l-0.306,0.241l-0.51,0.167l-0.548,0.065l-0.269,-0.102l-0.278,-0.343l-0.028,-0.13l-0.093,-0.019l-0.232,0.149l-0.047,0.157l0.14,0.307l0.232,0.241l0.148,0.037l-0.009,0.084l-0.325,0.204l-0.482,0.028l-0.14,0.102v0.157l-0.148,0.167l-1.327,0.279l-0.427,-0.074l-0.288,0.009l-0.315,0.13l-0.343,-0.019l-0.464,-0.334l-0.353,-0.093l-0.13,-0.102l-0.167,-0.009l-0.167,0.083l-0.418,0.028l-0.25,0.13h-0.232l-0.251,-0.12l-0.25,-0.307l-0.276,-0.12l-0.123,0.074v0.124l-0.372,0.086l-0.272,-0.037l-0.235,-0.136l-0.185,-0.012l-0.174,0.086l-0.519,0.025l-0.124,-0.074l-0.186,0.012l-0.111,0.074l-0.186,0.013l-0.272,-0.087l-0.346,-0.025l-0.235,-0.148l-0.124,-0.186l-0.26,-0.024l-0.161,0.111l-0.024,0.161l0.111,0.086v0.087l-0.668,0.297l-0.26,0.235l-0.495,0.198l-0.322,0.223l-0.68,0.222l-0.371,0.013l-0.211,-0.05h-0.148l-0.124,0.062l-0.161,-0.012l-0.185,-0.112l-0.47,-0.111l-0.174,0.062l-0.086,0.087l-0.483,-0.075l-0.272,-0.173l-0.111,-0.26l0.024,-0.222l-0.037,-0.273l-0.074,-0.173l0.062,-0.693l0.049,-0.123l-0.148,-0.223l-0.161,0.012l-0.136,0.186l0.012,0.223l-0.086,0.136l-0.112,-0.025l-0.024,-0.347l-0.149,-0.371l-0.086,0.05l0.024,0.173l0.099,0.223l-0.086,0.247l-0.112,0.013l-0.099,-0.372l0.025,-0.408l-0.148,-0.322h-0.087l-0.05,0.223l0.087,0.21l-0.071,0.418v0.882l6.567,8.289l16.839,2.147l0.47,-0.544l0.025,0.04l0.043,-0.381l0.075,-0.173l-0.025,-0.718l-0.074,-0.197l0.012,-0.78l0.068,-0.192l0.056,-0.433l0.328,-0.451l0.773,-1.467l0.093,0.068l0.148,-0.216l0.056,-0.297l0.34,-0.557l0.198,-0.161l0.111,-0.247l0.174,-0.235l-0.019,-0.65l-0.223,-0.26l-0.031,-0.643l-0.105,-0.297l-0.191,-0.322l0.055,-0.105l0.538,-0.241l0.161,-0.148l0.835,-0.341l0.304,0.025l0.198,0.192l0.216,0.074l0.415,-0.223l0.43,-0.092l0.334,-0.038l-0.01,-0.185l-0.102,-0.186l-0.158,-0.176l-0.083,-0.186l0.074,-0.111l-0.055,-0.209l-0.079,0.014l0.018,-0.07l-0.561,0.052l-0.237,0.106l-0.162,-0.069l-0.2,-0.163l-0.153,-0.009l-0.009,-0.093l0.042,-0.102l0.078,-0.005l0.126,-0.116l0.069,-0.176l0.205,-0.144v-0.57h-0.047l-0.046,-0.228l-0.228,-0.311l-0.12,-0.283l0.009,-0.329l0.311,-0.297l-0.144,-0.153l0.288,-0.246l-0.055,-0.172l-0.006,-0.167l0.024,-0.329l-0.01,-0.098l-0.069,-0.074v-0.055l-0.047,-0.024v-0.765l0.26,-0.385h0.385l0.325,-0.288l0.32,0.083l0.149,0.149l0.092,0.037l-0.028,0.118l0.121,0.017l-0.12,0.283v0.153l0.069,0.065l0.074,0.046l-0.082,0.025l-0.465,-0.178l-0.005,0.116l0.361,0.427l0.01,0.185l0.115,0.115l0.025,0.105l0.068,0.105l0.094,0.005z M1488.346083,580.656484l0.13,-0.055l0.056,-0.098l-0.065,-0.167l0.06,-0.106l0.125,-0.014l0.186,0.074l0.079,0.097l0.148,0.024l0.051,0.078l-0.037,0.177l-0.176,0.065l-0.139,0.13l-0.279,0.074l-0.213,-0.047l-0.061,-0.123l0.135,-0.109z M1488.601272,580.633285l0.042,-0.083l0.056,-0.005l0.074,0.065v0.033l-0.051,0.009l-0.037,0.06l-0.051,0.005l-0.033,-0.084z"/>
</svg>
