<svg xmlns="http://www.w3.org/2000/svg" viewBox="1516.525 483.664 94.957 67.754">
  <path d="M1518.880607,548.003311l10.52,3.347l5.023,-0.482l0.13,0.018l0.526,-0.018l0.099,0.018l0.062,-0.025v-0.068l1.497,-0.142l3.142,0.563l0.285,0.204h0.192l0.198,-0.093l0.031,-0.086l0.061,-0.056l-0.018,-0.068l-0.111,-0.062l-0.019,-0.068l0.037,-0.074l0.074,-0.019l0.025,-0.049l-0.012,-0.068l0.08,-0.081l0.118,0.013l0.241,-0.05l0.117,-0.111l0.025,-0.099l0.074,-0.05l0.161,0.007l0.118,-0.031l0.278,-0.006l0.223,-0.124l0.117,-0.019l0.087,0.019h0.056l0.037,-0.062l0.08,-0.025l0.068,0.031l0.118,-0.043l0.056,-0.056l0.303,-0.056l0.093,0.007l0.061,-0.025l0.013,-0.081l0.099,-0.018l0.096,0.037l3.21,0.399l7.823,-2.283l0.139,-0.093l0.028,-0.083l0.088,-0.079l0.037,-0.074l0.195,-0.116l0.042,-0.074l0.093,-0.084l0.023,-0.102l0.037,-0.042l0.07,-0.028l0.051,-0.055l0.009,-0.042l-0.937,-0.673v-0.065l0.069,-0.088l0.079,-0.046l0.051,-0.075v-0.092l0.042,-0.088l0.065,-0.042l0.065,-0.149l0.005,-0.093l0.092,-0.287l0.075,-0.07l0.074,-0.218l0.018,-0.292l0.079,-0.172l0.014,-0.301l0.028,-0.246l0.116,-0.214l0.005,-0.051l-0.135,-0.139l-0.004,-0.06l0.097,-0.209l-0.037,-0.028h-0.047l-0.125,-0.088h-0.083l-0.033,-0.033l0.014,-0.046l-0.032,-0.046l-0.102,-0.061l-0.01,-0.069l0.028,-0.107l-0.088,-0.162l0.06,-0.051l0.687,-2.7l0.241,-0.102l0.989,-0.161l0.612,-0.642l0.079,-0.028l0.046,-0.046v-0.097l0.037,-0.041l0.014,-0.056l-0.037,-0.05l0.009,-0.079l0.056,-0.06l0.014,-0.097l0.06,-0.087l0.037,-0.107l-0.009,-0.106l0.019,-0.061l0.052,-0.037v-0.049l0.034,-0.013l0.047,0.025h0.086l0.09,0.046l0.034,0.003l0.028,-0.046l0.139,-0.04l0.105,-0.105l0.003,-0.058l0.059,-0.055l0.071,-0.145l0.041,-0.031l0.092,-0.015l0.065,-0.065l0.226,-0.111h0.053l0.046,0.016l0.05,-0.003l0.216,-0.12l0.065,-0.003l0.034,0.027h0.037l0.043,-0.03h0.137l0.052,0.03h0.05l0.037,-0.037l0.077,-0.018l0.05,0.009l0.009,0.04l-0.025,0.025l0.009,0.024l0.056,0.003l0.037,0.044l0.022,0.067l-0.05,0.08l-0.136,0.086l-0.049,0.059l0.009,0.095l0.037,0.003l0.025,-0.021h0.065l0.062,0.009l0.018,0.037l-0.018,0.052l0.024,0.046l0.072,0.037l0.065,-0.003l0.095,-0.052h0.062l0.037,-0.025l0.01,-0.04l0.058,-0.04l0.072,-0.003l0.055,0.013l0.059,-0.01l0.053,-0.061l0.046,-0.009l0.071,0.027l0.071,0.136l0.112,0.058l0.362,0.015l0.055,0.025l0.013,0.049l0.037,0.037h0.059l0.03,-0.031l0.062,-0.003l0.056,-0.055h0.031l0.037,0.022l0.019,0.036l0.027,-0.003l0.013,-0.021h0.155l0.034,-0.031h0.099l0.04,0.028h0.059l0.009,-0.037l0.037,-0.006l0.04,0.015l0.068,-0.009l0.043,-0.065h0.038l0.027,0.019l0.041,-0.003l0.024,-0.056h0.038l0.03,0.016l0.078,-0.01l0.099,-0.07l0.062,-0.003l0.061,0.021l0.065,-0.012l0.025,-0.031l0.102,-0.022l0.04,-0.049l0.118,-0.027l0.059,-0.04l0.105,-0.025l0.062,-0.031l0.037,-0.003l0.028,0.012l0.034,-0.003l0.04,-0.027l0.053,-0.003l0.043,0.021l0.056,-0.006l0.139,-0.083h0.037l0.04,0.009l0.037,-0.006l0.031,-0.04l0.096,-0.04l0.053,-0.028l0.04,-0.061l0.127,-0.111l0.074,-0.025l0.031,-0.03l0.043,-0.013l0.266,0.037l0.059,-0.006l0.068,-0.055l0.049,-0.127l0.01,-0.258l-0.059,-0.114l-0.241,-0.12l-0.579,0.16l-0.071,0.022l-0.028,-0.019l0.028,-0.024l-0.015,-0.025l-0.078,0.025l-0.015,-0.016l0.003,-0.067l-0.022,-0.047l-0.046,-0.012l-0.084,0.025l-0.083,-0.093l0.059,-0.163l-0.112,-0.166l-0.006,-0.04l0.016,-0.04l-0.01,-0.037l-0.043,-0.021l-0.012,-0.031l0.006,-0.062l-0.016,-0.052l-0.077,-0.046l-0.009,-0.055l0.031,-0.01l0.065,0.025l0.222,-0.028l0.037,0.019h0.025l0.065,-0.062l0.025,-0.003l0.018,0.04l0.059,0.009l0.044,0.074l0.037,0.003l0.083,-0.034h0.05l0.021,0.025l0.167,0.028l0.065,-0.062l0.136,-0.058l0.031,-0.028l0.041,-0.08l0.049,-0.031l0.077,-0.077l0.155,-0.077l0.034,-0.033v-0.044l0.031,-0.036l0.053,-0.01l0.034,-0.03l-0.004,-0.047l0.047,-0.043l0.114,-0.055l0.093,-0.077l0.195,-0.052l0.096,0.021l0.086,-0.012l0.035,-0.052l0.049,-0.016l0.062,0.028l0.145,-0.022l0.146,-0.046l0.062,-0.052l0.108,-0.059l0.046,-0.055l0.059,-0.046l0.09,-0.028l0.058,-0.037l0.034,-0.052l0.05,-0.028l0.065,-0.015l0.025,-0.04l-0.007,-0.099l0.016,-0.03l0.034,-0.016l0.053,-0.046l0.009,-0.049l0.049,-0.046l0.118,-0.068l0.216,-0.394l0.174,-0.234l0.052,0.13l0.572,0.098l-0.074,0.135l0.173,0.2l0.969,0.013l0.071,0.04l0.043,0.009l0.105,0.089l0.099,0.003l0.028,-0.027h0.148l0.146,0.043l0.028,0.037l0.099,0.061l0.018,0.049l0.127,-0.003l0.167,-0.28l-0.498,-0.03l-0.281,0.061l-0.081,-0.006l-0.074,-0.086l-0.096,0.009l-0.006,-0.025l0.257,-0.07l0.674,-0.447l0.445,0.413l0.443,0.055l0.126,0.542l0.195,0.184l0.115,0.025l0.09,0.089v0.123l0.024,0.089l0.062,0.068l0.065,0.025l0.04,-0.016l0.034,0.003l0.025,0.062l0.037,0.003l0.034,-0.018l0.043,0.003l0.075,0.074l0.062,-0.007l0.034,-0.058l0.027,-0.012l0.031,0.03l0.044,0.003l0.034,-0.024h0.049l0.05,0.055l0.049,0.003l0.087,-0.027l0.077,-0.053l0.065,-0.132l0.04,-0.04l0.041,-0.108l0.04,-0.006l0.049,0.028l0.047,0.071l0.034,0.012l0.037,-0.025l0.021,0.006l-0.009,0.044l0.028,0.012l0.022,-0.031h0.034l0.021,0.031l0.056,0.003l0.04,-0.025v-0.08l0.028,-0.034l0.046,-0.012l0.025,-0.031l0.013,-0.049l0.179,-0.089l0.028,-0.043l0.059,-0.025l0.043,-0.037l0.006,-0.043l0.04,-0.031l0.121,-0.027l0.056,-0.049v-0.025l-0.041,-0.022l0.003,-0.021l0.078,-0.009l0.021,-0.04l-0.024,-0.025l0.012,-0.031l0.05,-0.021l0.027,-0.053l-0.015,-0.046l0.068,-0.086l0.068,-0.028l0.019,-0.037l-0.038,-0.067l0.016,-0.068l0.142,-0.123l0.028,-0.071l-0.018,-0.046l0.021,-0.049l0.05,-0.022l0.021,-0.037l0.003,-0.083l0.093,-0.089l0.053,0.015l0.028,-0.015v-0.031l0.031,-0.018h0.034l0.061,-0.074l0.078,-0.025l0.139,-0.126l0.025,-0.095l0.068,-0.052l0.049,-0.004l0.062,-0.015l0.016,-0.037l0.114,-0.021l0.025,-0.025l-0.025,-0.114l-0.034,-0.058l-0.025,-0.197l-0.021,-0.037h-0.031l-0.031,-0.019l-0.019,-0.138l-0.037,-0.049l-0.034,-0.514l0.034,-0.019l0.019,-0.03l-0.09,-0.2l-0.053,-0.053l-0.015,-0.154l-0.003,-0.095l0.037,-0.154v-0.104l-0.047,-0.136v-0.071l0.025,-0.046l0.003,-0.055l-0.028,-0.114l0.004,-0.169l0.052,-0.046l0.013,-0.037l-0.025,-0.093l0.009,-0.043l0.037,-0.018v-0.031l-0.018,-0.046l0.006,-0.145l-0.019,-0.104l-0.195,-0.416l-0.037,-0.249l-0.034,-0.068l0.003,-0.049l0.09,-0.08l0.074,-0.203l0.019,-0.104l0.037,-0.09l0.105,-0.021l0.016,-0.059l0.092,-0.043l0.041,0.025l0.04,0.003l0.192,-0.117l0.142,-0.031h0.077l0.031,-0.018v-0.043l0.062,-0.05l0.118,-0.181l-0.022,-0.037l0.003,-0.04l0.068,-0.049l0.022,-0.056l0.052,-0.086l-0.018,-0.037l0.009,-0.024l0.105,-0.013l0.05,-0.073l0.003,-0.093l-0.105,-0.12l-0.025,-0.101l0.012,-0.04l0.053,-0.016l0.018,-0.027l-0.018,-0.099l-0.037,-0.028l-0.096,-0.012l-0.093,-0.086l-0.015,-0.062l-0.096,-0.055l-0.025,-0.092l0.015,-0.059l0.081,-0.058l0.028,-0.034l0.006,-0.062l0.037,-0.024l0.151,0.009l0.044,-0.037l0.018,-0.064l0.031,-0.053l0.04,-0.021l0.025,-0.053l0.044,-0.015l0.006,-0.028l-0.037,-0.037l0.006,-0.046l0.037,-0.034l0.501,-0.135l0.006,-0.025l-0.176,-0.046l-0.077,0.013l-0.053,-0.013l-0.003,-0.037l0.037,-0.04l0.009,-0.12l-0.062,-0.154l0.004,-0.643l0.037,-0.027l0.012,-0.037l0.127,-0.154l0.083,-0.037l0.143,-0.132l0.083,-0.114l0.022,-0.08l0.034,-0.037h0.056l0.052,0.034l0.065,0.003l0.043,-0.022l0.17,0.01l0.084,0.049l0.043,0.003l0.062,-0.052l0.121,0.012l0.049,0.031l0.208,0.003l0.055,-0.037l0.022,-0.108l0.096,-0.049l0.123,-0.003l0.161,-0.083h0.041l0.151,0.184l0.084,0.043l0.061,-0.003l0.183,0.04h0.053l0.04,-0.049l0.185,-0.025l0.056,0.016h0.034l0.025,-0.052l-0.006,-0.059l0.079,-0.097l0.171,-0.014l0.079,-0.037l0.079,-0.009l0.051,-0.032l0.06,-0.005l0.056,0.028l0.046,-0.009l0.26,-0.457l0.009,-0.065l0.038,-0.041l0.069,-0.005l0.074,0.074l0.075,0.028l0.088,-0.005l0.042,-0.051l0.097,-0.032l0.074,0.009l0.093,-0.037l0.014,-0.083l0.046,-0.037h0.079l0.042,-0.046l0.079,-0.018l0.125,-0.074l0.153,-0.148l0.13,-0.166l0.07,-0.014l0.055,-0.055l0.024,-0.102l0.111,-0.097l0.074,-0.018l0.061,0.027l0.032,-0.023l-0.014,-0.129l-0.088,-0.065l-0.009,-0.101l0.06,-0.079l0.005,-0.064l-0.144,-0.129l-0.033,-0.116l-0.079,-0.037l-0.111,0.023l-0.06,-0.037l-0.065,-0.096v-0.13l-0.047,-0.046l-0.129,-0.023l-0.079,-0.046l-0.028,-0.065l0.028,-0.06l-0.024,-0.041l-0.111,-0.014l-0.093,-0.106l-0.004,-0.143l0.167,-0.559l-0.005,-0.189l-0.06,-0.042l-0.079,0.019l-0.167,-0.083l-0.042,-0.06l0.046,-0.129l-0.004,-0.097l-0.037,-0.042l-0.028,-0.152l-0.037,-0.042l-0.116,-0.009l-0.107,0.065l-0.097,-0.005l-0.047,-0.032l-0.134,-0.011l-0.186,-0.077l-0.074,0.006l-0.028,0.056h-0.043l-0.112,-0.08l-0.009,-0.047l-0.031,-0.03l-0.071,-0.022l-0.056,-0.071l-0.037,-0.129l0.025,-0.077v-0.058l-0.043,-0.046l-0.044,-0.191l-0.049,-0.056l-0.195,-0.095l-0.012,-0.071l0.024,-0.046l-0.006,-0.108l-0.022,-0.086l-0.046,-0.052l-0.077,-0.028l-0.05,-0.034l-0.018,-0.055l-0.05,-0.028l-0.065,-0.006l-0.043,-0.04l0.003,-0.071l-0.025,-0.055v-0.098l0.025,-0.068l0.062,-0.019l0.056,-0.076l0.111,-0.016l0.046,-0.021l0.007,-0.04l-0.044,-0.05l-0.031,-0.104l-0.024,-0.049l0.006,-0.028l0.04,-0.019l0.062,-0.11l0.08,-0.01l0.084,0.025l0.083,0.003l0.109,-0.028h0.068l0.049,0.022l0.037,-0.003l0.059,-0.068h0.08l0.059,0.034h0.111l0.087,0.025l0.133,0.077l0.046,0.049l0.096,0.04l0.05,0.058l0.074,0.003l0.047,-0.021l0.055,-0.003l0.037,0.012l0.034,-0.003l0.019,-0.031h0.087l0.049,0.012l0.062,0.084l0.09,0.021l0.154,0.117l0.044,0.009l0.105,-0.04h0.049l0.105,0.062l0.047,0.003l0.037,-0.037l0.164,-0.009l0.124,0.043l0.03,0.043l0.081,0.04l0.074,0.003l0.056,-0.015l0.065,0.003l0.083,0.04l0.044,-0.003l0.052,-0.047h0.053l0.065,0.037l0.065,0.003l0.065,-0.021l0.077,0.006l0.087,0.098l0.136,0.028l0.077,0.04l0.065,0.006l0.031,-0.012l0.046,0.003l0.037,0.022l0.065,-0.007l0.044,-0.052l0.046,-0.006l0.167,0.046l0.034,-0.009l0.025,-0.046l0.161,-0.074l0.077,-0.012l0.288,0.03l0.055,0.034l0.05,0.003l0.161,-0.034l0.071,-0.033h0.056l0.04,0.009h0.046l0.047,-0.025h0.077l0.086,0.016l0.065,-0.003l0.034,-0.025l0.047,-0.003l0.108,0.034h0.056l0.046,-0.043l0.136,-0.007l0.065,-0.067l0.096,-0.009l0.04,-0.022l0.124,0.003l0.053,0.059h0.092l0.081,-0.071l0.158,-0.074l0.006,-0.034l-0.031,-0.08l0.025,-0.015l0.092,0.024l0.031,-0.006l0.003,-0.034l0.078,-0.034l0.028,0.01l0.021,-0.01v-0.033l0.056,-0.056l0.031,-0.003l0.022,0.022h0.046l0.034,-0.013l0.049,0.003l0.031,0.016h0.044l0.083,-0.089l0.04,-0.013l0.022,-0.03l-0.003,-0.04l0.019,-0.04l0.037,-0.004l0.034,0.022l0.123,0.009l0.062,0.003l0.059,-0.04l0.04,-0.08l0.003,-0.061l-0.037,-0.013l-0.006,-0.024l0.022,-0.043v-0.037l-0.05,-0.046l-0.009,-0.062l0.019,-0.043l0.123,-0.071l0.006,-0.04l-0.018,-0.021v-0.031l0.26,-0.212l0.009,-0.059l-0.053,-0.132l0.013,-0.148l0.062,-0.095l0.003,-0.062l-0.062,-0.074l-0.003,-0.15l0.031,-0.083l0.012,-0.077l0.105,-0.08l0.034,-0.046l0.003,-0.059l0.031,-0.046l0.006,-0.034l-0.012,-0.034l0.006,-0.037l0.084,-0.046l0.003,-0.024l-0.025,-0.025v-0.031l0.062,-0.12l-0.006,-0.034l-0.108,-0.006l-0.084,-0.015l-0.065,-0.04h-0.093l-0.043,-0.034l0.009,-0.055l0.028,-0.025l0.009,-0.031l-0.012,-0.046l0.034,-0.065l0.009,-0.058l-0.021,-0.025l-0.034,-0.003l-0.022,-0.015l0.006,-0.056l-0.108,-0.07h-0.028l-0.018,0.021h-0.041l-0.049,-0.024l-0.04,0.003l-0.062,0.07l-0.04,0.022l-0.035,-0.018l0.004,-0.044l-0.025,-0.021h-0.031l-0.037,-0.028l-0.003,-0.034l-0.022,-0.024l-0.065,-0.016l-0.015,-0.027v-0.068l-0.037,-0.086l-0.013,-0.062l-0.059,-0.107v-0.04l0.056,-0.047l0.006,-0.132l-0.025,-0.046l-0.003,-0.028l0.062,-0.104l0.028,-0.074l0.09,-0.099l0.062,-0.021l0.086,-0.065l0.084,-0.015l0.059,0.003l0.037,-0.025l0.021,-0.089l0.152,-0.188l-0.003,-0.037l-0.031,-0.021v-0.043l-0.019,-0.034l-0.077,-0.037l-0.028,-0.095l0.016,-0.031v-0.034l-0.028,-0.022l-0.003,-0.03l0.049,-0.083l0.059,-0.047l0.018,-0.043l0.041,-0.037l0.198,-0.049l0.046,-0.031v-0.052l0.04,-0.034l0.109,-0.021l0.049,-0.034l0.031,-0.08l0.034,-0.031l0.186,-0.006l0.037,-0.031l0.009,-0.071l0.087,-0.107l0.003,-0.04l0.021,-0.031l0.115,-0.04l0.034,-0.04l0.037,-0.009l0.025,0.012l0.034,-0.009l0.089,-0.252l-0.021,-0.071l0.003,-0.028l0.025,-0.028l0.006,-0.166l0.021,-0.034l0.047,-0.015l0.154,-0.111l0.019,-0.037l0.022,-0.024l0.037,-0.003l0.059,-0.074l0.216,-0.025l0.056,-0.04l0.222,-0.068l0.044,-0.073l0.046,-0.022h0.081l0.102,-0.043l0.043,-0.003l0.037,-0.022l0.028,-0.061l0.182,-0.092l0.013,-0.04l-0.016,-0.031l-0.006,-0.071l-0.028,-0.052l0.003,-0.05l0.257,-0.092l0.09,-0.077l-0.003,-0.052l-0.084,-0.123l-0.012,-0.154l-0.059,-0.068l-0.006,-0.061l0.186,-0.169l0.083,-0.028l0.04,-0.04l0.071,-0.12l0.059,-0.019l0.05,0.016l0.086,-0.003l0.044,-0.037l0.046,-0.139l0.083,-0.083l0.062,-0.015l0.034,-0.028l0.007,-0.071l0.114,-0.132l0.006,-0.071l-0.114,-0.064l-0.062,-0.01l-0.037,0.019l-0.059,-0.006l-0.053,-0.031l-0.037,-0.086l-0.136,-0.139l-0.08,-0.024l-0.068,-0.046l-0.013,-0.05l-0.031,-0.033l-0.065,-0.019l-0.055,-0.083l-0.013,-0.111l-0.052,-0.04v-0.046l0.105,-0.092l0.043,-0.08l0.115,-0.108l0.13,-0.265l0.031,-0.04l0.043,-0.006l0.028,-0.027v-0.04l0.037,-0.034l0.056,-0.003l0.03,-0.037l0.013,-0.083l0.077,-0.102l0.006,-0.046l-0.083,-0.12l-0.149,-0.148l-0.065,-0.006l-0.046,-0.034l-0.049,-0.098l0.034,-0.136l0.003,-0.064l-0.016,-0.068l0.013,-0.024l0.027,-0.004l0.028,-0.021l0.006,-0.04l0.05,-0.052l0.012,-0.13l-0.031,-0.052l-0.065,-0.015l-0.16,-0.003l-0.158,-0.074l-0.04,-0.059l-0.075,-0.037l-0.058,-0.006l-0.081,-0.04l-0.099,-0.126l-0.003,-0.061l0.046,-0.059l0.01,-0.052l-0.006,-0.08l0.024,-0.037h0.068l0.087,-0.049l0.012,-0.037l-0.037,-0.028l0.009,-0.055l0.093,-0.047l0.013,-0.04l-0.016,-0.055l0.028,-0.148l-0.019,-0.024l-0.04,0.003l-0.049,-0.016l-0.025,-0.033l-0.034,-0.013l-0.043,0.006l-0.071,-0.027l-0.041,-0.053l-0.065,-0.027l-0.024,-0.043v-0.056l-0.037,-0.043v-0.034l0.027,-0.033v-0.037l-0.024,-0.022l0.003,-0.041l0.083,-0.06v-0.047l-0.111,-0.05l-0.042,-0.107l-0.069,-0.05l-0.079,-0.208l-0.116,-0.111l-0.028,-0.087l-0.051,-0.047l-0.186,-0.018l-0.074,-0.055l-0.009,-0.056l0.037,-0.032v-0.065l-0.047,-0.083l-0.004,-0.051l0.041,-0.032l0.014,-0.065l-0.102,-0.092l-0.069,-0.023l-0.126,0.051h-0.143l-0.042,-0.032l-0.014,-0.111l-0.028,-0.037l-0.051,-0.009l-0.121,-0.097l-0.125,-0.014l-0.116,-0.065l-0.102,-0.134l-0.056,-0.023l-0.051,0.005l-0.051,-0.023l-0.06,-0.097v-0.092l0.128,-0.221l0.072,-0.071h0.084l0.056,-0.02l0.005,-0.037l-0.044,-0.044l0.012,-0.054l0.045,-0.014l0.014,-0.032l-0.019,-0.037l0.007,-0.042l0.057,-0.041l0.093,-0.008l0.092,-0.068l0.024,-0.052l0.03,-0.029h0.037l0.042,-0.027l0.002,-0.03l0.072,-0.036l0.069,0.017l0.069,0.002l0.051,-0.019l0.057,-0.108l0.023,-0.131l0.043,-0.043l0.087,-0.003l0.238,-0.105l0.062,-0.07l0.065,-0.037l0.022,-0.133l0.04,-0.046l0.018,-0.117l0.102,-0.052l0.09,-0.012l0.034,-0.05l0.009,-0.083l0.041,-0.018l0.021,0.024l0.041,-0.003l0.077,-0.046l0.018,-0.037l0.047,-0.04l0.006,-0.046l0.019,-0.04l-0.019,-0.049l0.028,-0.025l0.102,0.046h0.21l0.047,-0.033l0.015,-0.074l0.037,-0.025l-0.003,-0.031l-0.062,-0.03l-0.099,-0.123l0.006,-0.037l0.081,-0.034l0.04,-0.046l0.062,-0.034l0.034,-0.053l0.099,-0.058l0.025,-0.049l0.062,-0.049l0.012,-0.053l-0.012,-0.049l0.034,-0.068l0.061,-0.015l0.007,-0.031l-0.028,-0.04v-0.04l0.021,-0.052l-0.003,-0.089l0.022,-0.043l0.074,-0.031l0.05,0.012l0.015,0.04l0.074,0.031l0.099,0.098l0.053,0.006l0.022,-0.015l0.055,0.006l0.007,0.046l0.139,0.053l0.12,0.12l0.068,0.018l0.041,0.019l0.034,0.073l0.123,0.099l0.102,0.031l0.034,-0.01l-0.003,-0.043l0.022,-0.033l0.059,-0.031l0.006,-0.037l-0.028,-0.046l0.009,-0.031l0.059,-0.009l0.006,-0.025l-0.071,-0.034l-0.043,-0.135l-0.087,-0.139l0.013,-0.181l0.058,-0.068l0.127,-0.006l0.109,0.043l0.182,0.006l0.198,-0.024l0.108,-0.05l0.028,-0.08l0.013,-0.095l0.08,-0.098l0.09,-0.022l0.092,-0.049l0.115,-0.006l0.102,-0.022l0.201,-0.111l0.009,-0.123l0.034,-0.015l0.044,0.021l0.071,0.003l0.043,-0.021l0.068,-0.003l0.034,0.021h0.059l0.025,-0.058l-0.003,-0.2l0.043,-0.086l0.012,-0.068l0.044,-0.028l0.185,0.003l0.192,-0.095h0.059l0.055,0.031h0.14l0.068,-0.034l0.015,-0.062l-0.068,-0.135l-0.056,-0.058l-0.012,-0.034l0.028,-0.028l0.003,-0.037l-0.031,-0.024l0.003,-0.047l0.065,-0.067l0.09,0.003l0.108,-0.056l0.022,-0.077l0.065,-0.024l0.024,-0.04l0.044,-0.025l0.182,0.043l0.084,0.04l0.071,0.01l0.065,-0.022l0.025,-0.04l0.074,-0.046l0.037,-0.08l0.037,-0.009l0.142,0.049l0.173,-0.009l0.047,-0.034l0.006,-0.056l0.031,-0.037l0.09,-0.021l0.13,-0.003l0.105,0.046l0.207,-0.015l0.037,-0.037h0.05l0.021,0.015l0.041,-0.003l0.009,-0.046l0.151,-0.142l0.149,-0.08l0.034,-0.067l0.043,-0.031h0.053l0.142,-0.074l0.08,0.003l0.081,-0.037l0.148,-0.024l0.081,-0.044h0.037l0.037,0.028l0.164,0.031h0.145l0.05,0.025h0.049l0.177,-0.102l0.117,0.003l0.047,0.052l0.065,0.003l0.077,-0.024h0.096l0.093,0.046h0.111l0.049,-0.022h0.059l0.05,0.025l0.151,0.015l0.09,-0.058l0.062,-0.006l0.093,0.024l0.058,-0.024l0.056,-0.108l0.012,-0.058l0.084,-0.05l0.096,0.01l0.083,0.067l0.124,0.043l0.232,-0.003l0.056,-0.052l0.074,-0.012l0.043,-0.031v-0.052l0.031,-0.034l0.099,-0.019l0.164,0.031l0.096,-0.006l0.124,-0.068h0.071l0.077,0.025l0.09,0.074l0.102,0.006l0.127,-0.062l0.059,-0.003l0.043,0.031l0.176,-0.015l0.062,-0.046h0.059l0.046,0.046l0.078,0.027l0.052,0.096l0.053,0.003l0.145,-0.16l0.077,0.003l0.099,0.074l0.106,-0.006l0.046,-0.059l0.09,-0.015l0.043,-0.056l0.049,-0.006l0.062,0.037l0.124,0.003l0.043,0.031l0.05,-0.003l0.031,-0.025l0.108,-0.003l0.04,-0.027l0.05,0.003l0.043,0.03l0.115,0.013l0.188,0.129l0.05,-0.003l0.021,-0.099l0.041,-0.03l0.099,0.003l0.071,-0.016l0.021,-0.049l0.109,-0.052h0.102l0.058,0.049l0.05,0.006l0.235,-0.111h0.207l0.133,0.059l0.136,0.012l0.059,-0.034h0.087l0.204,0.074l0.037,0.037l0.065,0.027l0.101,-0.015l0.044,-0.068l-0.015,-0.059l0.022,-0.071l0.042,-0.047l0.06,-0.002l0.069,0.051l0.143,0.02l0.135,0.041l0.067,0.094l-0.013,0.076l-0.047,0.046l-0.012,0.032l0.084,0.044l0.052,0.01l0.064,-0.029l0.061,0.002l0.047,0.037l0.04,0.054l0.044,0.032l-0.007,0.066l0.049,0.059l0.182,0.076l0.062,-0.005l0.03,-0.025l0.046,-0.002l0.094,0.056l0.118,0.017l0.055,-0.017l0.086,-0.086l0.049,-0.012l0.079,0.025l0.049,-0.003l0.03,-0.022l0.044,-0.002l0.05,0.034h0.061l0.025,-0.027l0.005,-0.037l0.022,-0.024l0.039,-0.008l0.008,-0.027l-0.017,-0.041l0.002,-0.044l0.042,-0.069l0.069,-0.069l0.054,-0.014l0.015,-0.03l-0.027,-0.044l0.015,-0.047l0.083,-0.022l0.025,-0.032l0.015,-0.061l0.029,-0.007l0.042,0.034l0.045,0.015l0.027,-0.012l0.029,0.009l0.005,0.032l0.032,0.008l0.05,-0.01l0.039,0.017l0.025,0.052l0.123,0.009l0.037,-0.029l0.101,-0.032l0.037,-0.047l0.047,-0.027l0.106,0.003l0.089,-0.03l0.037,-0.041l0.019,-0.091l0.037,-0.042l0.059,-0.039l0.023,-0.046l0.103,-0.089l0.254,-0.014l0.089,-0.074l0.108,-0.02l0.025,-0.071l-0.035,-0.066l0.013,-0.071l0.039,-0.039l0.062,-0.003l0.084,0.044l0.106,0.008l0.061,0.064l0.069,0.039l0.074,0.005l0.067,0.061l0.014,0.069l0.045,0.049l0.108,0.036l0.064,0.003l0.032,-0.034l0.008,-0.079l-0.032,-0.056l-0.003,-0.064l-0.111,-0.128l-0.017,-0.044l0.02,-0.056l0.076,-0.034h0.084l0.039,-0.01l0.033,-0.037l0.054,-0.018l-0.006,-0.03l-0.062,-0.062l-0.105,-0.031l-0.028,-0.04l0.009,-0.084l-0.012,-0.084l-0.047,-0.024l-0.074,0.012l-0.062,0.102l-0.037,0.013l-0.034,-0.031l-0.003,-0.164l-0.049,-0.056l-0.01,-0.053l0.034,-0.058l0.003,-0.062l-0.136,-0.059l-0.058,-0.049l-0.038,-0.099l0.022,-0.031l0.04,0.003l0.041,-0.041l0.003,-0.043l0.024,-0.043l0.075,-0.028l0.015,-0.083l-0.034,-0.065l-0.062,-0.028l-0.021,-0.047l0.006,-0.049l0.127,-0.068l0.055,-0.071l-0.018,-0.075l0.037,-0.086l0.074,-0.031l0.121,0.003l0.058,-0.022l0.05,0.003l0.136,0.072l0.074,0.012l0.05,-0.053l0.015,-0.105l0.062,-0.018l0.065,0.024l0.062,-0.003l0.04,-0.046l0.056,-0.003l0.068,0.08l0.021,0.078l0.053,0.046l0.065,-0.009l0.012,-0.056l0.136,-0.158l0.112,-0.049l0.077,-0.099l0.146,-0.013l0.102,0.034l0.027,0.075l0.158,0.139l0.099,0.071l0.031,0.056l0.016,0.111l0.092,0.046l0.226,-0.018l0.081,-0.04l0.117,0.012l0.043,-0.037l0.01,-0.042v-0.19l-0.062,-0.077l-0.028,-0.094l-0.155,-0.171l-0.136,-0.271l-0.074,-0.039l-0.09,-0.104l-0.062,-0.046l-0.117,-0.027l-0.275,-0.131l-0.081,0.006l-0.099,-0.043l-0.021,-0.064l-0.096,-0.088h-0.041l-0.034,0.067l-0.08,0.043l-0.186,0.039l-0.015,0.034l-0.046,0.003l-0.084,-0.034l-0.074,0.003l-0.124,0.037l-0.09,0.003l-0.027,0.03h-0.038l-0.061,-0.094l-0.013,-0.091l-0.142,-0.083l-0.043,0.003l-0.041,0.043l-0.102,0.006l-0.037,0.027h-0.052l-0.056,-0.039l-0.012,-0.082l-0.075,-0.083l-0.028,0.009l0.016,0.104l-0.019,0.031l-0.077,0.003l-0.077,-0.067h-0.04l-0.035,0.064l-0.021,0.076l-0.068,0.039l-0.059,-0.003l-0.118,-0.052l-0.024,-0.042l0.012,-0.046l-0.009,-0.039l-0.084,-0.071l-0.151,0.007l-0.037,0.039l-0.007,0.055l-0.03,0.03l-0.099,-0.003l-0.025,0.046l-0.053,0.009l-0.192,-0.027l-0.024,0.018l-0.044,-0.012l-0.043,-0.052l-0.108,-0.006l-0.037,-0.027l-0.047,0.006l-0.058,0.085l0.003,0.058l0.123,0.122l-0.009,0.03l-0.053,0.022l-0.071,0.118l-0.052,0.052l-0.037,-0.003l-0.028,0.015l-0.013,0.046l-0.08,0.037l-0.087,0.003l-0.058,-0.028l-0.133,-0.006l-0.093,0.046l-0.025,0.046l-0.04,0.015l-0.102,-0.012l-0.028,0.015l-0.006,0.039l-0.087,0.022l-0.114,-0.006l-0.081,-0.046l-0.043,0.012v0.079l-0.099,0.08h-0.043l-0.047,-0.046l-0.052,0.012l-0.068,0.125l-0.093,0.006l-0.077,-0.049l-0.124,-0.015l-0.053,0.012l-0.043,0.076l-0.003,0.068l-0.044,0.012l-0.111,-0.058h-0.139l-0.152,0.061l-0.071,0.091l-0.158,0.04l-0.055,0.073l-0.028,0.122l-0.056,0.039l-0.052,0.003l-0.053,-0.021h-0.04l-0.016,0.028h-0.052l-0.096,-0.077l-0.056,-0.003l-0.062,0.012l-0.027,0.037l0.003,0.055l-0.047,0.012l-0.046,-0.033l-0.065,-0.003l-0.037,-0.043l-0.068,-0.113l-0.04,-0.003l-0.025,0.015l-0.05,-0.003l-0.096,-0.052h-0.046l-0.034,0.031h-0.087l-0.024,0.018l-0.013,0.055l-0.062,0.015l-0.126,-0.079l-0.034,-0.137l-0.047,-0.003l-0.018,-0.043l0.061,-0.07l0.047,-0.012l0.04,0.018l0.056,-0.009l0.031,-0.052l-0.006,-0.051l-0.031,-0.025v-0.042l0.052,-0.083l0.065,-0.009l0.037,0.046l0.037,0.009l0.05,-0.018l0.083,0.003l0.031,0.021h0.031l0.056,-0.058l0.093,-0.003l0.074,-0.043l0.065,-0.003l0.025,-0.021l-0.007,-0.043l0.034,-0.036l0.096,-0.021l0.01,-0.028l-0.022,-0.049l0.003,-0.268l-0.031,-0.036v-0.04l0.031,-0.015l0.009,-0.082l-0.018,-0.058l0.031,-0.174l-0.053,-0.03l-0.278,-0.003l-0.232,-0.061l-0.081,0.003l-0.154,0.079l-0.096,-0.006l-0.402,-0.079l-0.303,-0.192l-0.084,-0.016h-0.059l-0.065,0.025l-0.263,-0.022l-0.123,0.016l-0.183,0.048l-0.09,0.089l-0.148,0.082h-0.068l-0.025,-0.03l0.028,-0.04l-0.028,-0.064l-0.034,-0.003l-0.021,0.024l-0.038,-0.003l-0.034,-0.042l-0.096,-0.013l-0.126,0.01l-0.121,0.039l-0.059,0.04l-0.024,0.052l-0.056,0.039l-0.09,0.025l-0.049,0.051l-0.118,0.137l-0.114,0.074l-0.068,0.009l-0.047,-0.006l-0.052,-0.028l-0.183,-0.006l-0.086,0.043l-0.109,0.219l-0.065,0.058l-0.086,0.024l-0.041,0.052l-0.027,0.152l-0.037,0.095l-0.362,0.161l-0.047,0.003l-0.074,-0.015l-0.288,0.061l-0.031,0.04l-0.062,0.024l-0.077,-0.006l-0.093,0.061l-0.04,0.07l-0.185,0.162l-0.266,0.167l-0.081,0.003l-0.096,-0.03l-0.139,0.012l-0.272,0.277l-0.031,0.146l-0.217,0.448l-0.077,0.092l-0.074,0.131l-0.059,0.036l-0.025,0.046l0.006,0.061l-0.018,0.033l-0.099,0.089l-0.028,0.061l-0.018,0.17l-0.096,0.058l-0.09,-0.006l-0.084,-0.067l-0.12,-0.009l-0.223,0.134h-0.037l-0.025,-0.012l-0.046,0.006l-0.037,0.04l-0.167,0.015l-0.075,0.042h-0.269l-0.034,0.028h-0.055l-0.217,-0.098l-0.121,-0.003l-0.074,0.025l-0.046,0.064l-0.139,0.039l-0.229,0.009l-0.149,0.058l-0.383,0.253l-0.112,0.025l-0.058,0.027l-0.034,0.061l-0.05,0.027l-0.09,0.016l-0.061,0.039l-0.041,0.098l-0.071,0.051l-0.151,0.077l-0.084,0.085l-0.037,0.021l-0.043,-0.003l-0.028,0.015l-0.019,0.031l-0.071,0.043l-0.031,0.045l-0.025,0.07l-0.123,0.086l-0.078,0.018l-0.114,-0.003l-0.121,0.073l-0.018,0.049l-0.037,0.042l-0.115,0.037l-0.065,0.052l-0.167,0.198l-0.083,0.039l-0.098,0.118l-0.094,0.065l-0.244,0.107l-0.069,0.055l-0.015,0.055l-0.049,0.048l-0.106,0.08l-0.089,0.112l-0.099,0.061l-0.226,0.015l-0.142,0.037h-0.084l-0.074,-0.024l-0.112,0.003l-0.148,0.045l-0.118,-0.006l-0.061,-0.015l-0.09,-0.003l-0.037,0.024l-0.04,-0.003l-0.143,-0.106l-0.089,-0.019l-0.062,-0.054l-0.059,-0.116l-0.102,-0.101l-0.176,-0.146l-0.096,-0.177l-0.084,-0.353l-0.059,-0.061l-0.012,-0.058l0.012,-0.104l-0.037,-0.051l-0.052,-0.019l-0.025,-0.039l0.018,-0.079l-0.068,-0.153l-0.095,-0.14l-0.056,-0.037l-0.028,-0.042l-0.003,-0.064l-0.025,-0.052l-0.065,-0.046l-0.028,-0.094l-0.043,-0.043l-0.003,-0.085l0.04,-0.116l-0.012,-0.14l-0.034,-0.055l0.003,-0.076l-0.031,-0.064l-0.186,-0.225l-0.018,-0.101l0.021,-0.122l0.065,-0.11l0.004,-0.225l0.015,-0.104l0.034,-0.033l0.003,-0.055l-0.04,-0.11l0.009,-0.061l0.037,-0.039l0.059,-0.012l0.012,-0.049l-0.052,-0.095l0.006,-0.07l0.087,-0.115l0.046,-0.016l0.05,-0.076l0.009,-0.158l0.037,-0.022l0.003,-0.027l-0.019,-0.04l0.01,-0.115l0.034,-0.016l0.006,-0.033l-0.025,-0.012l0.003,-0.025l0.081,-0.1l-0.003,-0.046l-0.075,-0.076l-0.024,-0.092l0.009,-0.164l0.034,-0.043l-0.006,-0.067l-0.044,-0.045l-0.077,-0.058v-0.098l0.034,-0.046l0.093,-0.009l0.019,-0.03l-0.019,-0.052l0.003,-0.064l0.037,-0.055l0.009,-0.106l0.038,-0.064l0.089,-0.07l0.022,-0.058l-0.006,-0.064l-0.139,-0.238l0.003,-0.064l-0.016,-0.058l-0.043,-0.033l-0.006,-0.07l0.012,-0.071l0.046,-0.06l0.025,-0.269l-0.018,-0.054l0.012,-0.055l0.093,-0.092l0.046,-0.112l-0.012,-0.262l0.021,-0.049l0.075,-0.086l0.034,-0.164l0.034,-0.03l0.006,-0.031l-0.012,-0.04l0.003,-0.143l-0.099,-0.164l0.006,-0.049l0.071,-0.043l0.043,-0.082l0.065,-0.04l0.078,-0.006l0.092,-0.051l0.034,-0.077l-0.046,-0.268l0.006,-0.097l0.062,-0.15l-0.003,-0.06l-0.05,-0.122l0.013,-0.165l-0.025,-0.07l-0.093,-0.07l-0.12,-0.034l-0.155,-0.024l-0.083,-0.064l-0.106,0.006l-0.083,0.067l-0.084,0.031l-0.127,0.079l-0.176,0.067l-0.043,0.061l-0.071,0.021l-0.189,0.009l-0.108,0.037l-0.22,0.128l-0.046,-0.009l-0.099,-0.183l-0.006,-0.067l-0.081,-0.085h-0.068l-0.052,0.061l-0.053,0.015l-0.074,-0.006l-0.065,-0.046l0.003,-0.04l0.062,-0.036l0.015,-0.049l-0.021,-0.04l0.009,-0.039l0.055,-0.07l0.013,-0.055l-0.04,-0.11l0.021,-0.07l0.041,-0.009l0.009,-0.03l-0.025,-0.034l0.016,-0.04l0.102,-0.091l0.006,-0.082l-0.062,-0.037l-0.003,-0.046l0.046,-0.03l0.062,0.012l0.046,-0.033l0.041,-0.147l0.052,-0.051l0.006,-0.144l-0.034,-0.027l0.007,-0.037l0.052,-0.03l0.074,-0.101l0.007,-0.131l0.049,-0.103l0.05,-0.031l0.077,-0.003l0.062,-0.048l-0.003,-0.043l-0.059,-0.107v-0.134l0.022,-0.07l0.052,-0.027l0.006,-0.04l-0.049,-0.055l-0.016,-0.064l0.038,-0.164l-0.01,-0.083l-0.062,-0.06l-0.08,-0.034l-0.068,0.009l-0.034,-0.03l-0.006,-0.04l-0.037,-0.021l-0.004,-0.037l0.035,-0.052l-0.013,-0.061l-0.043,-0.018l-0.062,0.006l-0.059,-0.024l-0.055,-0.046l-0.075,-0.006l-0.167,0.012l-0.068,-0.021l-0.031,-0.034l-0.062,-0.018l-0.077,-0.006l-0.148,-0.146l-0.093,-0.034l-0.044,-0.036l-0.098,-0.277l-0.035,-0.022l-0.058,-0.009l-0.019,-0.021v-0.046l-0.028,-0.033h-0.043l-0.031,0.03l-0.034,-0.003l-0.046,-0.049l-0.087,-0.012l-0.028,-0.034l0.022,-0.042l-0.006,-0.028l-0.031,-0.027l-0.09,0.003l-0.077,0.061l-0.065,0.024l-0.01,0.083l-0.04,0.024l-0.046,-0.012l-0.047,-0.086l-0.012,-0.097l-0.037,-0.061l-0.012,-0.097l-0.056,-0.058l-0.003,-0.031l0.021,-0.018v-0.037l-0.182,-0.1l-0.025,-0.037l0.006,-0.045l-0.037,-0.031h-0.049l-0.112,0.101l-0.046,0.006l-0.111,0.003l-0.01,0.042l0.109,0.083l0.003,0.042l-0.019,0.034v0.064l-0.049,0.021l-0.065,-0.03h-0.04l-0.016,0.024v0.043l-0.031,0.024l-0.031,-0.003l-0.046,-0.04l-0.059,-0.018l-0.056,-0.085l0.016,-0.04l-0.003,-0.049l-0.084,-0.057h-0.108l-0.056,0.054l-0.043,0.01l-0.006,0.027l0.031,0.037l-0.01,0.027l-0.064,0.076l-0.047,-0.006l-0.018,-0.064l-0.059,-0.036l-0.05,0.003l-0.046,0.048h-0.077l-0.078,-0.027l-0.043,-0.04l-0.084,-0.009l-0.037,0.025l-0.096,0.191l-0.188,0.092l-0.124,-0.003l-0.043,-0.028l-0.05,0.003l-0.102,0.077l-0.018,0.061l0.003,0.067l0.037,0.036l0.055,0.003l0.022,0.04l-0.003,0.088l-0.046,0.052l-0.106,0.03l-0.071,0.074l-0.099,0.009l-0.071,-0.028h-0.059l-0.065,0.04l-0.018,0.055l0.028,0.122l-0.01,0.051l-0.046,0.061l-0.003,0.156l-0.019,0.064l-0.194,0.079l-0.075,0.073l-0.12,0.162l-0.041,0.118l0.01,0.095l-0.025,0.055l-0.118,0.109l-0.015,0.07l-0.074,0.141l-0.028,0.143l0.003,0.055l0.031,0.118l-0.012,0.031l-0.075,0.003l-0.049,0.027l-0.102,0.095l-0.044,0.018l-0.071,0.003l-0.024,0.028h-0.038l-0.021,-0.019l-0.044,0.006l-0.102,0.101l0.003,0.064l-0.024,0.033l-0.068,0.013l-0.127,0.076l-0.028,0.052l-0.034,0.018l-0.056,-0.006l-0.021,0.021l0.034,0.07l-0.003,0.04l-0.044,0.07l-0.142,0.085l-0.034,0.052l-0.015,0.073l-0.038,0.027l-0.086,0.007l-0.099,0.07l-0.05,0.006l-0.031,0.03l0.007,0.092l-0.038,0.018l-0.071,-0.024l-0.046,-0.04l-0.028,0.009v0.052l0.046,0.1l-0.003,0.037l0.05,0.043l-0.003,0.039l-0.034,0.028h-0.047l-0.058,-0.04l-0.09,0.006l-0.164,0.085l-0.016,0.067h-0.03l-0.059,-0.06l-0.034,-0.098l-0.034,-0.024l-0.044,0.003l-0.027,0.085l-0.038,0.034v0.045l0.034,0.061v0.156l0.028,0.048l-0.003,0.037l-0.028,0.036v0.043l0.072,0.171l-0.004,0.045l0.038,0.034l0.071,0.009l0.083,0.055l0.087,0.018h0.142l0.05,0.031l0.058,0.07l0.075,0.015l0.006,0.064l-0.025,0.055l0.012,0.137l0.109,0.103v0.052l-0.034,0.064v0.061l0.062,0.082l-0.004,0.083l-0.046,0.064l0.006,0.061l0.074,0.067l-0.006,0.07l-0.086,0.052l-0.003,0.036l-0.019,0.034l-0.037,0.012l-0.022,0.046l0.003,0.112l-0.034,0.034h-0.049l-0.022,0.036l0.009,0.128l0.041,0.061l-0.007,0.067l-0.037,0.025l-0.055,-0.003l-0.016,-0.046h-0.034l-0.034,0.033l-0.17,0.04l-0.003,0.064l0.049,0.079l-0.024,0.018l-0.081,-0.006l-0.012,0.025l0.052,0.07l-0.009,0.039l-0.074,0.007l-0.019,0.024l-0.04,-0.003l-0.068,-0.052l-0.015,0.018l0.031,0.07l-0.013,0.058l-0.049,0.073l-0.013,0.092l-0.046,0.006l-0.05,-0.027l-0.043,0.006l-0.021,0.051l-0.028,0.016l-0.109,-0.013l-0.04,0.016l-0.049,-0.003l-0.059,-0.055l-0.062,-0.018l-0.059,0.003l-0.04,-0.013l-0.037,-0.042l-0.056,-0.009l-0.037,-0.052h-0.028l-0.034,0.033h-0.028l-0.024,-0.036l-0.053,-0.006l-0.052,0.009l-0.056,-0.009l-0.047,-0.037l-0.055,-0.015l-0.04,-0.07l-0.056,-0.009l-0.142,0.027l-0.071,-0.027l-0.028,-0.043l-0.007,-0.14l-0.061,-0.116l-0.099,-0.033l-0.09,-0.074l-0.065,0.007l-0.102,0.045l-0.164,0.015l-0.056,0.04l-0.093,0.012l-0.055,0.058l-0.059,0.143l-0.071,0.058l-0.056,-0.003l-0.204,-0.116l-0.111,0.003l-0.044,-0.027l-0.052,-0.003l-0.198,0.082l-0.121,0.012l-0.377,-0.003l-0.056,0.025l-0.062,-0.003l-0.065,-0.04l-0.111,-0.024h-0.046l-0.038,0.027l-0.092,-0.006l-0.041,-0.033l-0.089,-0.01l-0.034,-0.036l-0.053,-0.003l-0.028,0.061l-0.046,0.045l-0.016,0.159l-0.043,0.073l-0.09,0.058l-0.018,0.046l-0.003,0.048l-0.031,0.028l-0.093,0.009l-0.111,0.076l-0.034,0.058l0.015,0.058l-0.049,0.055l-0.071,0.006l-0.047,0.036l-0.049,0.147l-0.056,0.048l-0.121,0.043l-0.049,0.073l-0.013,0.055l-0.071,0.033l-0.006,0.031l0.019,0.058l-0.031,0.109l0.003,0.055l0.052,0.034l-0.003,0.036l-0.049,0.037v0.061l0.037,0.033l0.006,0.031l-0.022,0.036l0.019,0.022l0.056,0.003l0.037,0.042l-0.006,0.043l-0.05,0.025l-0.009,0.067l-0.028,0.067l0.003,0.051l0.04,0.031l0.047,0.006l0.021,-0.021l0.041,0.006l0.024,0.045l-0.003,0.046l-0.04,0.012l0.003,0.037l0.059,0.039l0.003,0.064l-0.025,0.055l0.003,0.043l0.065,0.052l0.01,0.082l-0.028,0.085l0.009,0.055l0.071,0.031l0.102,-0.022l0.05,0.016l-0.013,0.064l-0.157,0.201v0.045l-0.016,0.034l-0.046,0.033l-0.078,0.14l-0.049,0.025h-0.046l-0.047,-0.015l-0.052,0.003l-0.273,0.237l-0.031,0.089l-0.065,0.048l-0.095,0.028l-0.109,0.012l-0.126,0.051l-0.031,0.062l-0.087,-0.007l-0.147,-0.121l-0.034,-0.101l-0.244,-0.164l-0.133,-0.035l-0.236,-0.178l-0.08,-0.031l-0.119,-0.153l-0.049,-0.206l-0.142,-0.125l-0.077,-0.01l-0.226,-0.161l-0.035,-0.122l-0.167,-0.202l-0.067,-0.017l-0.149,-0.146l-0.094,-0.004l-0.067,0.028l-0.087,-0.024l-0.076,-0.056l-0.08,0.014l-0.014,0.077l0.062,0.153l0.129,0.09l0.011,0.091l-0.087,0.066l-0.066,0.004l-0.091,-0.056l-0.108,-0.213l-0.181,-0.097l-0.094,-0.004l-0.091,0.046l-0.048,0.111l0.02,0.139l0.133,0.105l0.003,0.094l-0.055,0.066l-0.105,-0.014l-0.087,-0.139l-0.063,-0.167l-0.073,-0.014l-0.125,0.028l-0.129,0.097l-0.129,0.004l-0.24,-0.053l-0.045,0.063l0.062,0.188l-0.062,0.028l-0.112,-0.045l-0.049,0.028l0.014,0.163l-0.073,0.108l-0.097,0.011l-0.094,0.08l-0.206,0.028l-0.132,0.048l-0.133,0.168l-0.111,0.014l-0.056,-0.032l-0.115,0.007l-0.156,0.073l-0.098,0.112l-0.104,0.003l-0.094,-0.038l-0.073,0.007l-0.053,0.087l-0.007,0.073l0.073,0.063l-0.024,0.059l-0.118,0.063h-0.185l-0.306,-0.094l-0.143,0.017l-0.077,0.073l-0.031,0.164l0.01,0.219l-0.035,0.181l-0.09,0.122h-0.132l-0.192,-0.125l-0.205,0.007l-0.272,0.219l-0.077,0.171l-0.129,0.111l-0.334,0.112l-0.104,0.104l-0.119,0.007l-0.066,0.042l-0.083,-0.021l-0.074,-0.077l-0.038,-0.139l-0.15,-0.097l-0.083,-0.007l-0.056,-0.063v-0.084l-0.038,-0.066l-0.164,-0.097l-0.157,-0.174l-0.01,-0.091l0.045,-0.091l0.004,-0.066l-0.042,-0.031l-0.07,0.003l-0.059,0.046l-0.181,0.003l-0.251,-0.066l-0.094,-0.087l-0.003,-0.08l-0.028,-0.087l-0.046,-0.059l-0.003,-0.084l0.035,-0.077l0.017,-0.279l-0.017,-0.039h-0.052l-0.195,-0.261l-0.192,-0.136l-0.192,-0.024l-0.09,-0.045h-0.108l-0.091,0.052l-0.076,-0.007l-0.073,-0.094l-0.133,-0.004l-0.101,0.101h-0.146l-0.205,-0.233l-0.042,-0.104l-0.139,-0.07l-0.115,-0.004l-0.094,0.081l-0.07,0.128l-0.118,0.119l-0.3,0.122l-0.167,0.007l-0.362,0.122l-0.147,0.142l-0.229,0.018l-0.105,-0.063l-0.031,-0.15l-0.087,-0.163l-0.328,-0.209h-0.146l-0.139,-0.042l-0.119,-0.077l-0.094,-0.156l0.011,-0.237l-0.164,-0.192l-0.237,-0.188l-0.125,-0.024l-0.084,0.028l-0.104,-0.011l-0.331,-0.15h-0.111l-0.223,0.171l-0.22,0.021l-0.111,0.118l-0.143,0.021l-0.185,-0.069l-0.233,0.003l-0.101,0.045l-0.087,-0.003l-0.07,-0.063l-0.236,0.042l-0.147,0.219l-0.153,0.049l-0.174,-0.073l-0.098,-0.216l-0.09,-0.056l-0.164,0.014l-0.09,0.084l-0.077,0.084l-0.237,0.111l-0.257,0.007l-0.3,-0.112h-0.111l-0.105,0.091h-0.32l-0.112,0.056l-0.153,-0.021l-0.251,-0.126l-0.09,-0.132l-0.195,-0.063h-0.3l-0.076,-0.041l-0.021,-0.154l-0.133,-0.069l-0.16,-0.007l-0.104,-0.077l-0.014,-0.097l-0.181,-0.147l-0.23,-0.055l-0.181,0.055l-0.154,-0.055l-0.041,-0.098l-0.216,-0.076l-0.376,-0.007l-0.188,-0.084l-0.126,0.021l-0.132,-0.063l-0.146,-0.237l-0.181,-0.069l-0.021,-0.091l-0.056,-0.014l-0.035,0.07l-0.083,-0.021l-0.258,0.028l-0.376,0.724l-0.021,0.787l-0.759,0.801l-1.693,0.014l-0.244,-0.118h-0.104l-0.139,0.083h-0.126l-0.306,-0.062l-0.948,0.216l-1.546,0.801l0.286,1.462l-0.739,1.226l-0.445,0.934l0.007,0.606l0.097,0.877l-0.306,0.46l-0.063,0.237l-0.871,0.794l-0.146,-0.007l-0.418,0.111l-0.306,0.181l-0.147,0.397h-0.104l-0.056,-0.076h-0.111l-0.049,0.076l-0.084,-0.007l-0.146,-0.097l-0.265,0.042l-0.069,0.104l-0.258,0.16l-0.132,-0.021l-0.091,0.035l-0.167,0.174l-0.007,0.46l0.077,0.097l0.007,0.189l-0.056,0.027l-0.467,-0.257l-1.922,0.578l-0.899,0.125l-0.236,0.369l-1.512,0.342l-1.135,-0.035l-0.105,0.083l-0.041,0.265l0.111,0.105l0.077,0.139l-0.007,0.097l0.376,0.397l0.299,0.126l0.007,0.16l-0.849,0.341l-0.112,0.181l0.077,0.432l0.139,0.119l-0.202,0.821l-0.125,0.084l-0.467,0.028l-0.815,0.446l-0.181,0.236l-0.265,0.14h-0.167l-0.216,0.125l-0.069,0.188l-0.161,0.105l-0.522,0.118l-0.07,0.125h-0.104l-0.042,-0.132l-0.104,-0.014l-0.133,0.028l-0.202,-0.09l-0.042,-0.14l-0.111,-0.097l-0.104,0.021l-0.216,-0.063l-1.101,1.073l-0.063,-0.021l0.007,-0.251l-0.055,-0.07l-0.014,-0.571l-0.084,-0.097l-0.076,-0.202l-0.753,-0.342l-0.285,-0.292l-0.3,-0.397l-0.62,-0.14l-1.253,0.321l-1.275,-0.209l-0.926,-0.669l-0.272,-0.153l-0.091,-0.132l0.049,-0.077l-0.021,-0.07l-0.104,-0.014l-0.077,-0.104l0.049,-0.111l-0.063,-0.077l-0.494,0.09l-0.102,0.042l-0.024,0.328l0.07,0.132l-0.202,0.529l-0.104,0.091l-0.077,0.139l0.028,0.091l-0.042,0.097l-0.118,0.021l-0.105,0.153l0.042,0.105l-0.049,0.16l-0.069,0.091l-0.007,0.139l0.076,0.111l-0.014,0.14l-0.118,0.118l-0.098,0.021l-0.118,-0.021l-0.202,0.056l-0.063,0.181l0.014,0.188l0.105,0.07v0.125l-0.133,0.153l0.021,0.091l0.209,0.23l0.028,0.264l0.084,0.105l-0.021,0.083l-0.154,0.077l-0.09,0.272l0.056,0.195l-0.112,0.348l-0.118,0.083l-0.091,0.293l0.049,0.174l-0.035,0.509l-0.174,0.417l-0.188,0.168l-0.07,0.202v0.48l-0.111,0.126l-0.188,0.034l-0.112,-0.048l-0.132,0.048l-0.139,0.356l-0.314,0.195h-0.243l-0.46,0.111v0.105l0.383,0.313l0.244,0.446l0.062,0.257l0.425,0.481l-0.048,0.056l-0.244,-0.007l-0.328,-0.049l-0.557,0.021l-0.285,-0.021l-0.119,0.077l-0.083,0.257l-0.265,0.154l-0.411,0.438l-0.014,0.126l-0.125,0.139l-0.021,0.139l-0.105,0.202l-0.014,0.328l0.439,1.873l-0.23,0.537l0.028,0.661l0.195,0.293l0.467,0.292l0.418,0.126l1.212,0.035l0.285,0.181l-0.069,0.132l-0.321,-0.035l-0.181,0.147l0.042,0.167l0.007,0.285l-0.258,0.153l-1.26,1.247l-0.349,0.725l0.321,0.808l0.529,2.347l0.697,1.56l0.292,1.588l0.167,0.474l-0.264,0.947l-0.14,0.195l-0.014,0.195l0.07,0.209l-0.014,0.376l-0.084,0.265l-0.027,1.546l0.32,1.63l5.628,0.85l0.46,0.571l-0.061,0.371l0.027,0.288l-0.033,0.065l0.014,0.046l0.111,0.075l0.103,0.222l-0.019,0.107l0.051,0.209l0.102,0.144l0.028,0.102l-0.014,0.204l0.051,0.107l-0.005,0.097l-0.06,0.135l0.005,0.171l0.051,0.061l-0.005,0.046l-0.06,0.028l-0.039,0.063l-0.093,0.075l-0.086,0.037l-0.031,0.062l0.018,0.074l-0.031,0.093v0.086l0.062,0.093l0.006,0.074l-0.018,0.062l0.068,0.186l-0.006,0.074l-0.124,0.083l-6.022,6.932z"/>
</svg>
