<svg xmlns="http://www.w3.org/2000/svg" viewBox="708.752 632.763 1.013 1.282">
  <path d="M708.9445,633.666931l0.034405,-0.157281l0.002458,-0.076183l-0.00983,-0.071268l0.017203,-0.017203v0.041778l0.01966,0.063896l-0.017203,0.117961l0.019201,0.016827l0.025025,0.003575l0.04916,-0.030232l0.01966,-0.041778l-0.014745,-0.086013l0.01966,-0.058981l0.033516,-0.051123l0.003347,-0.027518l-0.036863,-0.044235l-0.00983,-0.044235l0.01966,-0.088471l0.002458,-0.046693l0.014745,-0.014745l0.063896,0.004915l0.055201,-0.026807l0.008694,-0.017428l-0.014057,-0.018322l-0.035093,0.01095l-0.019146,-0.010279l-0.005698,-0.024215l-0.024306,-0.007283l-0.046693,0.022118l-0.012288,-0.012288l0.012288,-0.031948v-0.036863l-0.024575,-0.02949l-0.008409,0.00744l0.003494,0.031881l-0.01204,0.009428h-0.022791l-0.014244,0.015669l-0.000075,0.036342l0.034405,0.04915l0.021446,0.01229l0.008691,0.017848l-0.003104,0.026384l-0.018099,-0.00312l-0.021221,-0.023913l-0.018465,-0.038983l-0.012124,-0.007627l-0.011189,0.00729l-0.000206,0.042565l-0.012081,0.00167l-0.027803,-0.044403l-0.016433,-0.01212l-0.03932,-0.007373l-0.007373,-0.014745l0.012288,-0.02949l-0.004915,-0.031948l-0.022118,-0.017203l0.002458,-0.051608l0.051608,-0.01966l0.014745,-0.022118l-0.00983,-0.027033l0.02949,-0.024575l0.046693,0.007373l0.098301,0.113046l0.02949,0.054065l0.031948,0.007373l0.031948,-0.00983l0.024575,0.00983l0.017203,0.022118l0.023258,0.004685l0.040637,-0.009601l0.03932,0.01966l0.120419,0.172027l0.036863,0.031948h0.01966l0.017203,0.014745l0.002458,0.017203l0.095843,0.093386l0.046693,0.105673l0.031948,0.162196l0.01966,0.031948l-0.001286,0.043896l-0.018374,0.086352l-0.022118,0.02949l-0.003665,0.022327l0.011395,0.038459l-0.005273,0.044887l-0.017203,0.01966l0.002458,0.02949l0.01966,0.024575l0.002458,0.036863l0.026389,0.042519l-0.006728,0.011546l-0.054065,-0.056523l-0.066353,-0.022118l-0.041227,0.003585l-0.021493,0.015749l-0.03558,0.064222l-0.01966,-0.012288l0.014745,-0.061438l-0.041778,-0.083556l-0.083556,-0.054065l-0.044235,0.002458l-0.04915,-0.027033l-0.027033,-0.036863l-0.115504,-0.068811h-0.081098l-0.093386,0.054065l-0.036863,0.036863l-0.031948,-0.004915l-0.012288,-0.034405l0.031948,-0.086013Z M708.961703,633.315505l0.009366,-0.012475l0.005379,-0.056335l-0.007167,-0.020528l-0.039526,-0.03108l-0.012312,-0.029695l-0.009806,-0.080893l-0.029519,-0.069258l0.003575,-0.023238l0.025944,-0.027923l-0.004915,-0.02949l-0.01966,-0.00983v-0.061438l-0.022118,-0.00983l-0.061438,0.090928l-0.046514,0.042221l0.004736,0.021675l0.081098,0.054065l0.036863,0.063896l0.017203,0.073726l0.01966,0.027033l0.02949,0.01966l0.01966,0.068811Z "/>
</svg>
