<svg xmlns="http://www.w3.org/2000/svg" viewBox="1244.444 451.129 11.819 23.717">
  <path d="M1244.444164,468.164531l0.030932,-0.049491l0.061864,0.006186l0.080423,0.092796l0.006186,0.105169l-0.037118,0.055678l-0.055678,-0.012373l-0.037118,-0.117542l-0.049491,-0.080423Z  M1249.614638,451.942507l0.211,0.205l0.495,0.223l0.223,0.433l0.136,0.111l0.025,0.124l-0.074,0.086l0.012,0.099l0.161,0.075l0.037,0.173l-0.05,0.111l0.062,0.136l0.272,0.05l0.248,-0.074l0.223,0.099l0.062,0.099l0.383,0.21l0.173,0.012l0.322,0.297l0.384,0.767l0.024,0.371l-0.024,0.124l0.024,0.149l0.186,0.173l0.099,0.383l0.124,0.174l-0.075,0.297l-0.21,0.086l-0.025,0.136l0.099,0.223l-0.18,0.043l-0.03,0.13l0.074,0.483l-0.099,0.086l-0.124,0.013l-0.136,0.272v0.285l0.087,0.086l-0.012,0.149l-0.075,0.16l0.05,0.211l0.136,0.124l0.037,0.198l-0.074,0.173l-0.371,0.123h-0.124l-0.037,0.075l0.093,0.092l-0.047,0.065l-0.083,0.028l0.009,0.102l0.121,0.112l0.129,0.074l0.103,0.25l-0.019,0.103l0.065,0.074l0.139,0.028l0.139,0.13l-0.074,0.315l-0.158,0.269l-0.092,0.009l-0.075,-0.046l-0.046,0.074l0.13,0.279l0.046,0.547l0.158,0.279l0.139,0.12l0.204,0.362l-0.065,0.167l0.102,0.186l0.186,0.028l0.232,0.009l0.102,0.12l0.158,0.529l0.195,0.696l0.139,0.084h0.195l0.176,0.046l0.13,-0.055l0.019,-0.13l0.074,-0.102h0.139l0.26,0.111l0.204,-0.009l0.204,0.065l0.158,0.204l0.009,0.25l0.009,0.501l-0.12,0.112l-0.019,0.074l0.112,0.084l0.037,0.148l0.232,0.195l0.232,0.39l0.018,0.259l-0.046,0.112l-0.065,0.093l-0.019,0.139l0.047,0.139l-0.019,0.102l-0.158,0.019l-0.102,0.055l-0.055,0.121l-0.186,0.176l-0.028,0.223l-0.111,0.121l-0.102,0.009l-0.167,-0.074l-0.223,0.018l-0.102,-0.055l-0.102,0.037l-0.111,0.232l-0.195,0.046l-0.037,0.149l0.037,0.157l-0.028,0.269l-0.186,0.223l-0.009,0.13l-0.093,0.121l-0.13,0.074l-0.093,0.195l0.065,0.306l-0.046,0.186l-0.204,0.12l-0.046,0.167l0.092,0.102l-0.009,0.14l-0.074,0.111v0.167l-0.074,0.111l-0.307,0.037l-0.12,0.121l-0.316,0.028l-0.185,-0.093l-0.121,0.009l-0.093,0.084h-0.12l-0.121,-0.037l-0.223,0.046l-0.093,0.111v0.168l-0.13,0.25l-0.129,0.065l-0.344,-0.009l-0.028,0.083l0.14,0.121l0.055,0.158l-0.055,0.092l0.046,0.112l0.251,0.185l0.25,0.418l-0.037,0.213l-0.102,0.186l-0.111,0.028l-0.205,-0.112l-0.25,-0.102l-0.093,0.038v0.102l0.065,0.083v0.093l-0.074,0.065l0.028,0.121l0.148,0.083l-0.028,0.111l-0.306,0.205l-0.019,0.157l-0.074,0.037l-0.12,-0.092l-0.075,0.037l-0.028,0.13l0.038,0.083l-0.065,0.056l-0.214,-0.009l-0.204,-0.084l-0.158,-0.009l-0.195,-0.102l-0.092,-0.093l-0.316,-0.111l-0.111,-0.01l-0.088,0.07l-0.098,0.023l-0.083,-0.046v-0.112l0.102,-0.185l0.009,-0.093l-0.083,-0.037l-0.01,-0.102l0.149,-0.102l0.009,-0.325l0.074,-0.223l-0.037,-0.148l-0.241,-0.075l-0.269,-0.167l-0.149,-0.027l-0.028,-0.093l0.102,-0.112l0.019,-0.148l-0.223,-0.436l-0.259,-0.306l-0.186,-0.084l-0.167,0.019l-0.316,-0.242l-0.027,-0.139l-0.112,-0.083l-0.39,-0.121l-0.501,-0.297l-0.389,-0.148l-0.566,-0.344l-0.297,-0.427l-0.14,-0.092l-0.092,-0.14l0.009,-0.204l-0.149,-0.232l-0.241,-0.325l-0.139,-0.064v-0.084l0.111,-0.084l0.204,0.028l0.344,0.279l0.12,0.241v0.195l0.093,0.083h0.149l0.185,-0.139v-0.464l0.075,-0.185l-0.019,-0.14l-0.334,-0.334l-0.251,-0.111l0.019,-0.111l0.093,-0.01l0.157,0.112l0.084,-0.037v-0.242l-0.148,-0.139l-0.149,-0.018l-0.074,0.065v0.139l-0.084,0.037l-0.055,-0.167l-0.047,-0.325l-0.287,-0.334l-0.028,-0.167l0.232,-0.241l0.111,-0.362l0.074,-0.511l-0.093,-0.12l0.019,-0.112l0.149,-0.111l0.027,-0.241l-0.055,-0.195l0.102,-0.223l0.334,-0.213l0.055,-0.177l-0.074,-0.12l-0.139,-0.065v-0.334l0.102,-0.214l-0.009,-0.324l-0.121,-0.186l0.01,-0.111l0.148,-0.047l0.093,-0.139l0.009,-0.148l0.065,-0.177l0.148,-0.111l0.047,-0.288l-0.158,-0.306l-0.195,-0.093l-0.13,0.037l-0.148,-0.074l-0.056,-0.251l0.028,-0.241l-0.186,-0.195l0.047,-0.074l0.158,0.074l0.111,-0.037l0.019,-0.12l0.102,-0.112l0.259,-0.213l0.121,-0.251v-0.222l-0.093,-0.121l-0.204,-0.102l-0.121,-0.186l0.056,-0.065l0.204,0.065l0.39,0.01l0.176,-0.149l0.028,-0.195l0.093,-0.009l0.102,-0.084l-0.065,-0.102l-0.102,0.019l-0.083,-0.037l0.009,-0.232l0.065,-0.279l-0.056,-0.306l0.028,-0.139l0.139,-0.074l0.009,-0.167l-0.13,-0.149l-0.473,-0.222l-0.473,-0.13h-0.213l-0.103,0.065l-0.131,-0.032l-0.004,-0.207l0.037,-0.034l-0.003,-0.043l-0.07,-0.022l-0.024,-0.07l-0.112,-0.042l-0.022,-0.027l0.01,-0.045l0.09,-0.025l0.065,-0.049l-0.007,-0.053l-0.112,-0.104l0.005,-0.112l0.216,-0.047l0.012,-0.037l-0.065,-0.04l-0.005,-0.042l0.029,-0.095l0.002,-0.072l-0.046,-0.049l0.003,-0.095l-0.029,-0.074l0.009,-0.092l0.044,-0.087l0.007,-0.159l0.022,-0.064l0.049,-0.258l-0.652,-0.58l0.396,-0.437l0.219,-0.299v-0.1l0.055,-0.087l0.195,-0.181l-0.041,-0.178l0.082,-0.182l0.1,-0.089l0.092,-0.018l0.087,-0.052l0.205,-0.337l0.096,-0.028l0.037,-0.046v-0.061l0.132,-0.215l0.064,-0.056l0.06,-0.094l-0.01,-0.075l0.028,-0.065l0.274,-0.136l0.059,-0.098l-0.041,-0.173l0.014,-0.08l0.311,-0.388l0.064,-0.018l0.064,0.004l0.105,-0.103l0.032,-0.074l0.091,-0.061l0.087,0.005l0.045,0.051v0.065l0.051,0.028l0.064,0.015l0.023,0.051l-0.042,0.042v0.098l0.073,0.042l0.106,0.183l-0.032,0.042l-0.064,-0.005l-0.078,0.061v0.117l-0.032,0.084l0.005,0.079l0.118,0.253l0.183,0.192l0.228,0.103l0.042,-0.014l0.027,-0.066l0.078,-0.033l0.064,0.01l0.073,-0.024l0.013,-0.06l0.051,-0.005l0.082,0.042l0.059,-0.037l0.028,-0.117l0.192,-0.075l0.1,0.037l0.151,-0.009l0.137,0.023l0.064,-0.028l0.041,-0.117l-0.005,-0.07l0.028,-0.061l0.173,-0.032l0.087,-0.066l0.124,0.01z"/>
</svg>
