<svg xmlns="http://www.w3.org/2000/svg" viewBox="1404.035 461.867 20.978 19.144">
  <path d="M1417.394259,467.176253l0.028,-0.209l0.176,-0.139l0.205,0.023l0.125,0.168l-0.06,0.18l-0.158,0.084l-0.107,0.167l-0.102,-0.014l-0.046,-0.209l-0.061,-0.051z M1421.843828,480.965739l0.091,0.045h0.207l0.115,-0.053l0.015,-0.093l0.074,-0.052l0.115,-0.019l0.136,-0.108l0.093,-0.115l0.17,-0.031l0.077,0.016l0.102,-0.037l0.05,-0.074l0.158,0.006l0.092,0.071l0.217,0.065l0.046,0.086l0.056,0.013l0.077,-0.102l0.17,0.009l0.056,0.068l0.285,0.019l0.08,0.117l0.056,0.019l-0.006,-0.161l0.037,-0.093l-0.031,-0.148l-0.167,-0.13l-0.013,-0.149l0.075,-0.062l0.018,-0.092l-0.049,-0.075l0.031,-0.062l0.16,-0.03l0.007,-0.075l-0.044,-0.123v-0.137l0.093,-0.08l-0.018,-0.08h-0.192l-0.006,-0.068l0.105,-0.056l-0.019,-0.105l-0.154,-0.068l-0.056,-0.062l0.006,-0.124l-0.068,-0.056l0.006,-0.061l0.068,-0.05l-0.08,-0.062l-0.149,0.037l-0.148,-0.068l-0.093,-0.229l0.037,-0.086l0.143,-0.044l0.278,0.174l0.056,-0.031l-0.025,-0.112l0.049,-0.068l0.081,0.037l0.049,0.13l0.031,0.198l0.056,0.006l0.031,-0.142l0.117,-0.086l0.075,-0.081l0.006,-0.056l-0.044,-0.037l0.025,-0.061l0.353,-0.038l-0.013,-0.055l-0.191,-0.025l-0.087,-0.031l-0.037,-0.093l-0.08,-0.024l-0.056,0.012l-0.074,-0.037l-0.198,-0.26l0.018,-0.056l0.068,-0.012l0.031,-0.062l-0.185,-0.266l-0.087,-0.006l-0.08,0.062l-0.13,-0.007l-0.372,-0.247l-0.117,-0.241l-0.031,-0.31l0.068,-0.111l0.186,-0.037l0.136,0.068l0.099,-0.019l0.148,-0.154l-0.006,-0.081l0.068,-0.031l0.272,0.106l0.05,-0.038l-0.217,-0.247l0.013,-0.093l0.253,-0.185l0.192,0.074l0.074,-0.081l-0.105,-0.167l-0.39,-0.148l-0.241,0.006l-0.247,0.093l-0.099,-0.025l-0.038,-0.334l-0.08,-0.049l-0.105,0.068l-0.081,-0.037l-0.03,-0.099l-0.106,-0.025l-0.414,0.117l-0.13,0.118l-0.229,0.056l-0.216,-0.019l-0.13,0.142l-0.056,-0.024l-0.062,-0.248v-0.124l-0.111,-0.136l-0.155,-0.043l-0.179,-0.204l-0.161,0.012l-0.056,-0.049l-0.012,-0.13l-0.198,-0.18l-0.087,-0.154l-0.321,-0.31l-0.285,-0.018l-0.464,-0.248l-0.142,-0.006l-0.081,-0.074l-0.142,-0.483l-0.105,-0.024l0.006,-0.087l0.093,-0.099l-0.006,-0.111l-0.186,-0.112l-0.229,0.007l-0.136,-0.038l-0.08,-0.111l-0.334,-0.074l-0.174,0.043l-0.099,-0.049l-0.105,-0.198l0.093,-0.136l0.334,-0.031l0.074,-0.068h0.087l0.074,0.043l0.161,0.006l0.099,-0.037h0.105l0.13,0.062l0.179,0.018l0.174,0.205h0.086l0.068,-0.143l0.211,-0.111l0.185,-0.377l-0.043,-0.143l0.117,-0.167l0.198,-0.037l0.05,-0.056l-0.025,-0.136l0.112,-0.284v-0.291l-0.254,-0.186l0.031,-0.049h0.086l0.056,-0.062l-0.031,-0.093l-0.136,-0.08l-0.031,-0.074l-0.08,-0.025l-0.068,0.043l-0.161,-0.031l-0.074,-0.074l-0.433,-0.13l-0.223,-0.074l-0.266,-0.161l-0.291,-0.105h-0.223l-0.12,-0.084l-0.047,-0.139l-0.26,-0.232l-0.222,-0.028l-0.334,-0.213l-0.019,-0.13l-0.167,-0.13l-0.148,-0.028l-0.149,-0.158l-0.018,-0.204l0.102,-0.102v-0.111l0.055,-0.074l-0.018,-0.084l-0.223,-0.148l-0.102,0.009l-0.093,-0.065l0.009,-0.093l-0.009,-0.102l-0.167,-0.102v-0.13l0.093,-0.278h0.102l0.074,-0.047l-0.037,-0.139l0.223,-0.195l0.278,-0.009l0.204,-0.139l0.279,-0.065l0.25,-0.279l0.084,-0.324l0.009,-0.223l-0.111,-0.037l-0.102,0.028l-0.075,-0.028v-0.065l-0.064,-0.047h-0.121l-0.121,-0.102l0.025,-0.071l-0.074,-0.024l-0.13,0.024l-0.05,-0.043l0.007,-0.087l-0.137,-0.216l-0.191,0.018l-0.081,-0.043l-0.049,-0.161l0.179,-0.167l-0.056,-0.074l-0.197,-0.006l-0.236,0.161l-0.272,-0.007l-0.124,-0.08l-0.061,-0.186l-0.106,-0.012l-0.099,0.105v0.099l-0.049,0.031l-0.241,-0.148l-0.025,-0.112l-0.142,-0.074l-0.124,-0.006l-0.08,-0.062l0.006,-0.155l-0.112,-0.099l-0.092,0.007l-0.013,0.21l-0.099,0.124h-0.055l0.018,-0.124l-0.087,-0.012l-0.08,0.092l-0.099,0.013l-0.043,-0.056l0.093,-0.161l0.006,-0.204l0.142,-0.105l0.142,0.037h0.167l0.037,-0.068l0.062,-0.019l0.099,0.031l0.149,-0.13l0.062,-0.154l-0.081,-0.081l-0.117,0.031l-0.093,-0.043l-0.161,-0.241l-0.148,-0.031l-0.161,0.167h-0.124l-0.179,-0.143l-0.099,0.007l-0.062,-0.037l0.037,-0.093l0.117,-0.025l0.093,-0.173l-0.037,-0.081l-0.148,-0.105l-0.093,-0.216l-0.087,0.012l-0.08,0.093l-0.118,0.025l-0.123,0.123l-0.236,-0.006l-0.111,-0.099l-0.087,-0.012l-0.068,0.024l-0.191,-0.061l-0.007,-0.062l-0.123,-0.099h-0.087l-0.074,0.062l0.025,0.16l-0.075,0.099l0.013,0.081l0.105,0.08l0.297,0.118h0.155l0.105,0.056l-0.013,0.068l-0.136,0.031l-0.235,-0.081l-0.229,-0.037l-0.099,-0.074h-0.216l-0.05,0.099l-0.136,0.068l-0.049,-0.025l0.031,-0.093l-0.044,-0.031l-0.173,0.068l-0.074,-0.062l0.012,-0.098l-0.049,-0.031l-0.192,0.055l-0.21,-0.049l-0.075,0.043v0.136l-0.086,0.173l-0.056,-0.018l0.006,-0.118l-0.049,-0.006l-0.068,0.081l-0.198,0.074l-0.031,-0.05l0.068,-0.074v-0.13h-0.074l-0.149,0.229l-0.21,0.124l-0.093,-0.006l-0.093,-0.081l-0.247,-0.08l-0.161,-0.155l-0.223,-0.056l-0.068,0.037l0.006,0.137l-0.055,0.031l-0.18,-0.087h-0.173l-0.117,-0.025l-0.124,-0.167l-0.105,-0.006l-0.056,0.031l-0.099,-0.006l-0.13,-0.087l-0.049,0.025l0.006,0.173l-0.155,0.254l-0.371,0.012l-0.074,-0.087l-0.062,-0.006l-0.18,0.087h-0.173l-0.223,0.056l-0.136,0.123h-0.105l-0.049,-0.055l-0.112,-0.007l-0.297,0.087l-0.29,0.031l-0.217,0.093l-0.334,0.297l-0.08,0.006l-0.396,-0.198l-0.211,-0.012l-0.123,0.043l-0.242,-0.019l-0.123,-0.086h-0.174l-0.148,0.068l-0.155,0.012l-0.086,0.074l-0.149,0.007l-0.136,0.129l-0.012,0.161l0.136,0.149l0.006,0.105l-0.037,0.056l0.043,0.167l0.161,0.105l0.21,0.018l0.353,0.149l0.606,0.439l0.013,0.099l-0.019,0.13l0.037,0.501l0.211,0.198l0.198,0.612v0.217l0.08,0.217l-0.062,0.117l-0.105,0.037l-0.081,0.118l0.031,0.13l-0.272,0.427l-0.167,0.074l-0.086,0.13l0.043,0.154l-0.062,0.112l-0.167,0.006l-0.427,0.266l-0.012,0.136l0.167,0.049l0.328,0.266l-0.007,0.198l-0.074,0.099l-0.065,0.273l0.102,0.213l0.112,0.088l0.032,0.158l0.084,0.116l0.134,0.009l0.107,0.107l-0.009,0.213l-0.126,0.019l-0.018,0.065l0.223,0.186l0.134,0.162l0.019,0.083l-0.39,0.102l-0.028,0.107l0.037,0.177l0.107,0.069l0.014,0.065l0.046,0.023h0.074l0.223,0.121l0.093,-0.033l0.167,0.01l0.107,0.088l0.25,0.083l0.042,0.084l0.06,0.037l0.116,0.009l0.075,0.065l0.269,0.093l0.19,0.009l0.158,0.028h0.102l0.074,-0.074l0.088,-0.009l0.125,0.037l0.256,-0.019l0.078,-0.051l0.154,-0.004l0.06,0.041l0.056,-0.009l0.037,-0.032h0.051l0.069,0.032l0.209,-0.005l0.079,0.019l0.088,-0.023l0.014,-0.056l0.056,-0.014l0.069,0.037l0.047,-0.009l0.028,-0.065l0.329,-0.023l0.102,0.023l0.042,0.065l0.06,0.009l0.084,-0.014l0.264,0.126l0.121,0.134l0.065,0.014l0.153,-0.014l0.069,0.037l0.042,0.061l0.153,0.088l0.033,0.065l0.046,0.023l0.056,-0.019l0.116,0.07l0.232,0.311l0.111,0.042l0.088,0.148l0.014,0.135l0.13,0.13l0.079,0.013l0.065,0.089l-0.018,0.19l0.055,0.046l0.07,-0.042l0.051,0.024v0.083l0.269,0.172l0.093,0.009l0.069,-0.042l0.07,0.051l-0.06,0.093l0.032,0.047h0.079l0.083,0.041l0.038,0.144l0.06,0.047l0.065,-0.014l0.046,0.037l-0.004,0.148l0.046,0.037l0.084,-0.009l0.454,-0.134l0.265,-0.038l0.046,-0.055l0.065,-0.014l0.093,0.102l0.153,0.06l0.135,-0.014l0.194,-0.106l0.181,-0.061l0.019,-0.093l0.102,-0.106l0.13,-0.061l0.023,-0.051l0.088,-0.023l0.237,0.121l0.213,0.241l0.019,0.098l0.079,0.167l0.167,0.171l0.088,0.023l0.019,0.089l-0.079,0.088l0.009,0.102l0.046,0.014l0.014,0.055l-0.083,0.13v0.112l0.037,0.023v0.046l-0.028,0.042l0.014,0.056l0.125,0.06l0.139,0.005l0.056,-0.042l0.028,-0.135l0.121,-0.06l0.357,-0.005l0.042,0.061l-0.065,0.171l0.102,0.158l0.088,0.023l0.088,0.07l0.009,0.06l0.056,0.033l0.26,-0.005l0.306,0.153l0.056,0.135l0.055,0.018l0.051,-0.041l0.047,0.004l0.023,0.074l0.051,-0.004l0.051,-0.116l0.269,-0.116l0.033,-0.13l0.092,-0.023l0.065,0.014l0.047,-0.033l0.079,-0.134l0.162,-0.024l0.121,0.033l0.255,-0.144l0.111,-0.018l0.167,-0.14l0.172,0.014l0.042,0.065l0.074,0.019l0.056,-0.01l0.167,0.056l0.018,0.074l0.047,0.042l0.065,0.014l0.055,0.056l0.005,0.079l0.097,0.19l0.005,0.172l-0.037,0.102l-0.005,0.069l0.153,0.121l-0.004,0.088l-0.223,0.241l-0.088,0.344l0.023,0.102l0.097,0.041l0.339,0.038l0.195,0.106l0.028,0.07l0.065,0.037h0.06l0.149,0.088l0.051,0.084l0.171,0.102l0.093,-0.005l0.084,0.023l0.051,0.098l-0.019,0.181l-0.088,0.12l0.019,0.302l0.111,0.306l-0.009,0.07l0.023,0.069l0.079,0.014l0.051,0.07v0.093l-0.065,0.041v0.065l0.069,0.121l0.153,0.079l0.084,0.004l0.046,0.056l-0.014,0.107l0.033,0.102l-0.009,0.083l0.032,0.075l0.102,0.032l0.042,0.093l0.005,0.176l0.051,0.079l0.004,0.144l0.014,0.065l0.061,0.023l0.027,0.107l-0.004,0.102l0.051,0.074l0.083,0.079l0.014,0.102l-0.046,0.088l0.014,0.102l0.037,0.112z"/>
</svg>
