<svg xmlns="http://www.w3.org/2000/svg" viewBox="1196.524 780.024 7.152 9.150">
  <path d="M1196.524308,784.314324l0.006,-0.086l0.471,-0.47l0.488,-0.396l0.205,-0.669l0.074,-0.018l0.031,0.062l0.062,0.012l0.055,-0.043l0.062,0.006l0.006,0.068l0.056,0.012l0.142,-0.092l0.266,0.024l0.149,-0.055l0.229,-0.353l0.037,-0.192l0.068,-0.037l0.031,-0.055l-0.019,-0.081l0.074,-0.086l0.038,-0.143l-0.075,-0.111l0.044,-0.149l0.284,-0.055l0.112,-0.037l0.173,-0.18l0.111,-0.012l0.059,0.074l0.124,0.062l0.185,0.003l0.013,-0.077l0.04,-0.065l0.439,-0.01l0.102,-0.046l0.062,-0.121l0.133,-0.108v-0.102l0.155,-0.164l0.136,-0.009l0.247,0.155h0.084l0.058,-0.078l-0.374,-0.557l0.028,-0.027l0.053,0.043l0.151,0.034l0.043,-0.028l-0.003,-0.105l0.065,-0.028l0.266,0.3l0.106,0.025l0.043,-0.043l-0.006,-0.075l0.074,-0.018l0.402,0.365l0.408,0.383l0.056,0.136l0.359,0.421l0.148,0.136l0.025,0.074l0.155,0.099l0.136,0.124l-0.044,0.037l-0.16,-0.006l-0.081,-0.062l-0.086,0.013l-0.098,0.179l-0.094,0.037l-0.093,-0.056l-0.173,0.019l-0.099,0.07l-0.198,0.085l-0.043,0.099l-0.068,0.006l-0.118,-0.081l-0.155,0.075l0.006,0.092l-0.049,0.019l-0.093,-0.037l-0.048,0.052l0.019,0.038l-0.042,0.046h-0.042l-0.06,0.083l-0.042,0.181l-0.069,0.051l-0.005,0.051l0.037,0.028l-0.028,0.056l-0.079,0.028l-0.06,0.069l-0.005,0.07l-0.051,0.023h-0.13l-0.129,0.112l-0.075,0.134l-0.041,0.227l-0.075,0.038l-0.06,-0.014l-0.088,0.009l-0.037,0.037l-0.088,0.005l-0.093,-0.065l-0.102,-0.005l-0.093,0.065l-0.009,0.19l-0.112,0.158v0.084l-0.055,0.023l-0.079,-0.014l-0.112,0.056l-0.014,0.055l-0.037,0.019l-0.051,-0.033l-0.065,0.014l-0.032,0.061l-0.084,0.004l-0.065,-0.028l-0.097,0.028l-0.046,0.084l-0.163,0.097l-0.014,0.074l-0.046,0.042l0.004,0.056l0.079,0.023l0.028,0.084l0.112,0.106l0.083,0.01l0.056,-0.033l0.06,0.005l0.037,0.079l-0.018,0.092v3.879h-1.75l-0.065,0.065l-0.18,-0.004l-0.093,0.046l-0.061,0.093l-0.162,-0.186l-0.148,-0.325l-0.01,-0.176l-0.051,-0.079l-0.004,-0.134l0.092,-0.158l0.061,-0.357l0.083,-0.051l0.112,0.004l0.069,0.042l0.093,-0.009l0.06,-0.13l-0.018,-0.371l-0.181,-0.571l-0.228,-0.376l0.024,-0.07l0.06,-0.046l-0.093,-0.237l-0.209,-0.301l-0.014,-0.088l0.051,-0.084l-0.357,-0.589l-0.461,-0.568z"/>
</svg>
