<svg xmlns="http://www.w3.org/2000/svg" viewBox="1194.266 780.024 81.907 91.373">
  <path d="M1203.316976,789.872804l0.034025,-0.024746l0.07733,0.006186l0.061864,0.058771l-0.00928,0.030932l-0.105169,0.003093l-0.058771,-0.074237Z M1203.573711,789.947041l0.034025,-0.00928l0.003093,-0.024746l-0.043305,-0.012373l-0.027839,0.003093l-0.00928,0.027839l0.043305,0.015466Z M1203.217993,789.950134l0.055678,-0.015466l-0.003093,-0.034025l-0.055678,-0.00928l-0.043305,0.012373v0.037118l0.046398,0.00928Z M1202.676683,790.420301l0.012373,-0.080423l-0.015466,-0.024746l-0.027839,0.006186l-0.015466,0.052584l0.003093,0.055678l0.043305,-0.00928Z M1201.906476,790.488351l0.095889,-0.006186 l0.058771,-0.058771 l-0.00928,-0.030932l-0.080423,-0.00928l-0.083516,0.030932l-0.015466,0.043305l0.034025,0.030932Z M1202.181771,790.608986l0.136101,-0.049491l0.14538,-0.142287l0.043305,-0.111355l-0.030932,-0.006186l-0.204151,0.151567 l-0.142287,0.040212 l-0.043305,0.07733l0.006186,0.037118l0.089703,0.003093Z M1202.330245,790.35225l0.092796,-0.052584l0.027839,-0.046398l-0.021652,-0.021652l-0.105169,0.034025l-0.052584,0.06805l0.015466,0.024746l0.043305,-0.006186Z M1201.331141,790.828603l0.269108,-0.111355l0.006186,-0.043305l-0.049491,-0.030932l-0.312413,0.080423l-0.083516,0.089703l0.003093,0.037118l0.167033,-0.021652Z M1201.080592,790.890467l0.027839,-0.006186l0.024746,-0.021652l-0.012373,-0.024746l-0.046398,0.00928l-0.015466,0.024746l0.021652,0.018559Z M1201.355887,790.977077l0.046398,-0.015466l0.024746,-0.034025l-0.024746,-0.021652l-0.058771,0.006186l-0.024746,0.037118l0.037118,0.027839Z M1201.819867,790.683223l0.08661,-0.003093l0.012373,-0.024746l-0.089703,-0.027839l-0.052584,0.006186l-0.015466,0.024746l0.058771,0.024746Z M1201.928129,790.865722l0.00928,0.021652l0.058771,-0.006186l0.058771,-0.046398l-0.024746,-0.024746l-0.06805,0.00928l-0.034025,0.046398Z M1201.894103,790.791485l0.098982,-0.052584l-0.003093,-0.034025l-0.151567,0.00928l-0.08661,0.037118v0.043305l0.142287,-0.003093Z M1201.624995,790.881188l0.06805,-0.015466l0.006186,-0.021652l-0.027839,-0.012373l-0.064957,0.012373l-0.018559,0.024746l0.037118,0.012373Z M1200.255094,791.132462l0.058384,-0.037843l-0.00928,-0.040212h-0.043305l-0.037118,0.034025l-0.003093,0.030932l0.034412,0.013098Z M1198.336923,791.756563l0.108262,-0.08661l0.06805,-0.160846l0.06805,-0.250549l-0.037118,-0.018559l-0.23199,0.111355l-0.07733,0.129914l0.027839,0.219617l0.074237,0.055678Z M1194.266272,861.109202l0.027839,0.380464l0.287668,0.70525l0.074237,0.055678l0.064957,-0.037118l-0.083516,-0.380464l-0.046398,-0.770207l-0.092796,-0.120635l-0.129914,0.027839l-0.102076,0.139194Z  M1271.844967,868.67719l-0.041,-0.099l0.003,-0.081l-0.062,-0.066l0.006,-0.042l-0.048,-0.035l-0.049,0.017l-0.028,-0.024l0.011,-0.056l-0.021,-0.039l-0.112,-0.035l-0.101,0.007l-0.101,-0.055l-0.056,-0.088l-0.376,-0.028l0.028,-0.049l-0.307,0.032l-0.132,-0.091l-0.003,-0.06l-0.091,-0.059l-0.028,-0.08l-0.08,-0.067l0.004,-0.045l-0.101,-0.084l-0.258,-0.06l0.038,-0.045l-0.017,-0.049l-0.112,-0.06l-0.01,-0.122l-0.227,-0.084l-0.136,-0.227l-0.055,-0.294l-0.101,0.06l-0.035,-0.112l-0.105,-0.126l-0.136,-0.07l-0.027,-0.031l0.066,-0.081l-0.08,0.004l-0.014,-0.088l-0.547,-0.342l-0.108,-0.151l-0.213,-0.052l-0.397,-0.189l-0.028,-0.087l0.046,-0.011l-0.094,-0.22l-0.408,-0.29l0.063,-0.081l-0.108,-0.003l-0.028,-0.032l0.038,-0.042l-0.052,-0.069l-0.199,-0.091l0.049,-0.028l-0.324,-0.329l-0.017,-0.049l-0.143,-0.066v-0.032l0.031,-0.01l0.005,-0.027l-0.167,-0.21l-0.284,-0.27l-0.241,-0.135l-0.191,-0.164l0.024,-0.13l-0.168,-0.093l-0.343,-0.41l-0.311,-0.303l-0.135,0.002l-0.009,-0.014l0.037,-0.061v-0.046l-0.075,-0.063l-0.092,-0.014l-0.012,-0.019l0.028,-0.049l-0.095,-0.147l-0.133,-0.107l-0.06,-0.002l-0.065,0.018l-0.019,-0.016l0.016,-0.021l0.003,-0.028l-0.088,-0.084l-0.019,-0.121l-0.072,-0.068l-0.209,-0.011l-0.019,-0.016v-0.073l-0.099,-0.081l-0.098,-0.01l-0.03,-0.028l-0.012,-0.07l-0.049,-0.072l-0.079,-0.002l-0.009,-0.016l0.049,-0.054v-0.028l-0.042,-0.009l-0.07,-0.098l-0.023,-0.007l-0.007,0.021l-0.021,-0.003l-0.018,-0.016l-0.04,0.002l-0.025,0.017l-0.04,-0.005l-0.016,-0.016l0.007,-0.021l0.067,-0.007l0.04,-0.019l0.049,-0.051l-0.003,-0.019h-0.035l-0.016,-0.018l0.005,-0.052l-0.014,-0.042l-0.072,-0.063v-0.028l0.074,-0.018l0.005,-0.03l-0.049,-0.026v-0.026l0.026,-0.035l0.002,-0.1l-0.037,-0.04l-0.014,-0.104l-0.056,-0.012l-0.005,-0.021l0.054,-0.047l0.002,-0.03l-0.03,-0.061l-0.007,-0.093l-0.037,-0.032l-0.009,-0.056l-0.017,-0.017l-0.039,-0.011l-0.058,-0.049l-0.007,-0.038l0.025,-0.018v-0.042l-0.021,-0.028l-0.055,-0.014l-0.054,-0.068l-0.048,-0.021l-0.005,-0.025l0.046,-0.047l-0.002,-0.021l-0.037,-0.002l-0.007,-0.021l0.053,-0.075l-0.009,-0.035l-0.042,-0.009l-0.067,0.023l-0.026,-0.009l-0.007,-0.042l-0.093,-0.121l-0.065,-0.007l-0.023,-0.024l-0.002,-0.065l-0.095,-0.058l-0.096,-0.019l-0.002,-0.021l0.044,-0.023v-0.028l-0.018,-0.014v-21.429h13.597l-0.002,-0.025l-0.033,-0.014l-0.095,-0.1l-0.074,-0.052l-0.005,-0.032l0.023,-0.11l-0.025,-0.051l-0.158,-0.079l-0.058,-0.07l-0.03,-0.1l-0.056,-0.056l-0.03,-0.007l-0.021,0.016h-0.051l-0.045,-0.04l-0.041,-0.002l-0.019,0.028l-0.056,-0.005l-0.113,-0.095l-0.014,-0.11l-0.033,-0.042l-0.058,-0.007l-0.03,-0.021l0.002,-0.037l-0.016,-0.023l-0.058,-0.005l-0.016,-0.037l0.048,-0.082l0.003,-0.046l-0.024,-0.08v-0.065l0.04,-0.105l0.002,-0.042l-0.03,-0.028l0.007,-0.086l0.03,-0.026l0.058,-0.193l0.042,-0.021l0.081,-0.14l0.003,-0.035l-0.065,-0.051l-0.007,-0.091l0.046,-0.089l0.014,-0.049l0.033,-0.06l0.041,-0.03l0.042,-0.087l0.007,-0.105l0.042,-0.051l0.012,-0.105l-0.072,-0.226l0.014,-0.128l0.039,-0.042l0.005,-0.051l0.023,-0.031l0.135,-0.039l0.025,-0.026l0.005,-0.07l0.086,-0.063l0.039,-0.046l0.035,-0.096l0.105,-0.109l0.048,-0.012l0.019,-0.021l-0.007,-0.042l0.179,-0.086l0.055,-0.07l0.019,-0.063l-0.009,-0.075l0.035,-0.063l-0.003,-0.076l0.019,-0.056v-0.035l-0.1,-0.112l-0.123,-0.063l-0.005,-0.023l0.147,-0.124l0.011,-0.037l-0.058,-0.098l-0.007,-0.047l0.03,-0.039l0.007,-0.056l-0.134,-0.222l-0.075,-0.044l-0.021,-0.044l-0.032,-0.019l-0.073,-0.006l-0.082,-0.091l-0.007,-0.121l-0.048,-0.086l-0.041,-0.013l-0.02,-0.026l-0.014,-0.601l0.115,-1.571l0.042,-0.134l0.07,-0.028l0.045,-0.063l0.007,-0.064l-0.063,-0.088l-0.034,-0.134l0.034,-0.021l0.004,-0.028l-0.066,-0.039l-0.011,-0.141l-0.056,-0.06v-0.141l-0.052,-0.071l-0.003,-0.106l-0.066,-0.059l-0.007,-0.075l-0.081,-0.119l0.028,-0.057l0.056,-0.023l0.079,-0.137l0.005,-0.066l0.079,-0.103l0.009,-0.08l0.06,-0.085l0.019,-0.075l0.107,-0.207l0.06,-0.042l0.009,-0.066l-0.083,-0.188l-0.019,-0.211l0.019,-0.113l0.093,-0.118l0.055,-0.042l0.098,-0.003l0.151,-0.115l0.002,-0.035l-0.199,-0.604l-0.163,-0.231l0.014,-0.926l-0.172,-0.052l-0.032,-0.047l0.023,-0.089l0.093,-0.023l0.004,-0.062l-0.046,-0.089l-0.019,-0.461l0.065,-0.113l0.005,-0.192l-0.033,-0.071l-0.004,-0.108l-0.14,-0.16l-0.088,-0.037v-0.033l0.113,-0.117l-0.148,0.076l-0.062,0.075l-0.038,0.136l-0.104,0.103l-0.009,0.04l-0.044,0.019l-0.056,-0.017l-0.054,0.008l-0.181,0.164l-0.042,0.203l-0.144,0.15h-0.03l-0.069,-0.061l-0.17,-0.03l-0.446,-0.225l-0.116,0.002l-0.132,0.087l-0.293,0.019l-0.06,-0.019l-0.133,-0.119l-0.219,-0.003l-0.077,0.028l-0.073,-0.007l-0.104,-0.098l-0.411,-0.197l-0.23,-0.007l-0.331,0.056l-0.042,0.06l-0.049,0.018l-0.09,0.007l-0.07,0.024l-0.317,0.229l-0.042,0.091l-0.042,0.032l-0.167,0.01l-0.056,0.042l-0.014,0.057l-0.041,0.038l-0.084,0.032l-0.077,0.144l-0.048,0.028l-0.105,0.004l-0.056,0.031l-0.191,0.197l-0.087,0.014l-0.157,-0.06l-0.021,-0.056l-0.049,-0.042h-0.052l-0.174,0.116l-0.157,0.035l-0.073,0.039h-0.07l-0.118,-0.046l-0.08,-0.07l-0.074,-0.021h-0.236l-0.056,0.021l-0.073,-0.004l-0.126,-0.035l-0.324,-0.003l-0.062,-0.039l-0.115,-0.109l-0.122,-0.018l-0.126,0.018l-0.101,0.116l-0.087,0.032l-0.083,0.007l-0.046,0.035l-0.076,0.105l-0.073,0.049l-0.088,0.004l-0.118,-0.042l-0.237,0.003l-0.07,-0.035l-0.013,-0.07l-0.032,-0.021l-0.052,0.003l-0.303,-0.133l-0.066,-0.078l-0.028,-0.102l-0.084,-0.066l-0.132,-0.011l-0.073,-0.035l-0.108,-0.007l-0.202,0.088h-0.07l-0.066,-0.021l-0.08,0.017l-0.073,0.123l0.003,0.208l0.084,0.094l-0.011,0.071l-0.097,0.105l-0.147,0.092l-0.014,0.056l-0.146,0.147l-0.07,0.018l-0.115,-0.014l-0.404,0.031l-0.031,0.039l-0.017,0.106l-0.234,0.242l-0.251,0.165h-0.118l-0.028,-0.038l0.007,-0.074l0.045,-0.064l-0.003,-0.108l-0.021,-0.032l0.003,-0.039l0.101,-0.102v-0.112l-0.038,-0.07l-0.01,-0.064l-0.056,-0.066l-0.014,-0.078l-0.049,-0.042l-0.139,-0.074l-0.038,-0.066l-0.039,-0.197l0.018,-0.049v-0.137l0.035,-0.13l-0.014,-0.06l-0.056,-0.081l-0.011,-0.162l-0.031,-0.01l-0.003,-0.025l0.024,-0.031v-0.285l-0.042,-0.06h-0.038l-0.021,-0.021v-0.091l-0.021,-0.032l-0.042,-0.003l-0.017,-0.029l0.021,-0.066l-0.035,-0.078l-0.038,-0.021l-0.021,-0.063l0.028,-0.084l0.048,-0.014l0.077,-0.064l0.042,-0.07l0.108,-0.091l0.108,-0.046l0.066,-0.056l0.164,-0.056l0.045,-0.046l0.171,-0.018l0.069,-0.031l0.137,-0.117l0.032,-0.14l-0.014,-0.053l-0.07,-0.046l-0.007,-0.049l0.021,-0.063l-0.021,-0.169l-0.059,-0.063l-0.014,-0.053l0.021,-0.147l0.045,-0.029v-0.024l-0.049,-0.039l-0.05,-0.262l0.035,-0.095l-0.003,-0.06l-0.042,-0.088l-0.004,-0.095l-0.038,-0.045l-0.182,-0.112l0.003,-0.035l0.07,-0.063l0.007,-0.092l0.052,-0.081l-0.004,-0.102l0.11,-0.212l0.08,-0.062l0.043,-0.105l-0.114,-0.229l0.006,-0.102l-0.136,-0.247l-0.062,-0.025l-0.021,-0.068l0.037,-0.087l-0.031,-0.117l-0.121,-0.084l-0.068,-0.167l-0.077,-0.046l-0.044,-0.08l0.01,-0.201l-0.047,-0.081l-0.077,-0.037l0.006,-0.124l0.047,-0.065l0.003,-0.139l-0.053,-0.093l0.006,-0.114l0.031,-0.025l0.003,-0.077l-0.096,-0.146l0.019,-0.145l-0.046,-0.068l-0.016,-0.235l-0.052,-0.084l-0.01,-0.074l0.025,-0.056l-0.059,-0.151l-0.17,-0.127l-0.148,0.007l-0.069,-0.04l-0.009,-0.064l-0.071,-0.03l-0.114,0.052l-0.146,-0.051l-0.148,-0.149l-0.062,-0.136l-0.118,-0.019l-0.105,-0.229l-0.037,-0.253l-0.049,-0.013l-0.093,0.031l-0.074,-0.198l-0.211,-0.179l-0.012,-0.105l-0.136,-0.118l-0.081,-0.006l-0.167,-0.13l-0.086,-0.322l0.037,-0.154l-0.056,-0.223l-0.13,-0.105l-0.062,-0.161l-0.074,-0.415l-0.198,-0.154l0.013,-0.099l0.086,-0.124l0.025,-0.371l0.113,-0.151l0.105,-0.396l0.096,-0.123l0.012,-0.424l-0.043,-0.121l-0.083,-0.08l-0.01,-0.508l0.087,-0.074l0.018,-0.102l-0.04,-0.117l-0.006,-0.266l0.09,-0.249l0.009,-0.097l-0.046,-0.093l0.013,-0.107l0.079,-0.097v-0.079l-0.032,-0.111l0.074,-0.205l0.074,-0.06l0.075,-0.302l-0.028,-0.422l0.065,-0.19l0.065,-0.037l0.023,-0.046l-0.065,-0.191l0.042,-0.097l0.143,-0.088l0.014,-0.065l-0.074,-0.079l0.037,-0.125l0.051,-0.042l0.014,-0.112l-0.055,-0.102l0.013,-0.069l0.093,-0.074l0.019,-0.079l-0.056,-0.084l-0.009,-0.093l0.051,-0.162l-0.028,-0.135l-0.153,-0.153l-0.019,-0.088l0.042,-0.074l-0.051,-0.162l0.014,-0.075l0.074,-0.051l-0.004,-0.153l-0.056,-0.032h-0.107l-0.069,-0.079l-0.051,-0.135l0.018,-0.106l-0.111,-0.381l0.014,-0.083l0.051,-0.024l0.014,-0.051l-0.135,-0.111l-0.12,-0.162l-0.177,-0.441l-0.19,-0.228l-0.084,-0.037l-0.078,-0.185l0.018,-0.153l-0.042,-0.13l-0.051,-0.07v-0.13l0.126,-0.125l0.027,-0.195l-0.078,-0.176l0.018,-0.121l0.06,-0.056l0.01,-0.139l-0.051,-0.079l0.028,-0.153l0.102,-0.12l0.051,-0.154l0.009,-0.097l0.107,-0.255l-0.024,-0.065l0.024,-0.065l0.069,-0.019l0.051,-0.088l0.01,-0.144l0.097,-0.157l-0.037,-0.075l0.009,-0.092l0.06,-0.051l0.01,-0.089l-0.088,-0.143l0.014,-0.158l0.083,-0.121l-0.005,-0.12l-0.06,-0.04v-0.05l0.064,-0.081l-0.017,-0.121l-0.138,-0.079l-0.008,-0.113l0.057,-0.089l-0.045,-0.233l-0.176,-0.279l-0.142,-0.031v-0.136h-8.146l-0.033,-0.034l0.004,-0.04l0.04,-0.031l-0.006,-0.062l-0.038,-0.089l-0.009,-0.133l0.05,-0.065l0.027,-0.152l-0.018,-0.056l-0.003,-0.17l-0.056,-0.043l0.003,-0.077l0.059,-0.05l0.09,-0.223l0.08,-0.068l0.062,-0.179l-0.003,-0.204l0.059,-0.118l0.068,-0.034l-0.003,-0.114l0.058,-0.071l0.034,-0.174l-0.018,-0.151l0.034,-0.043l-0.009,-0.05h-1.572l-0.473,0.019l-0.037,0.126l-0.012,0.171l-0.031,0.049l-0.003,0.096l-0.025,0.025l0.003,0.065h-4.986l0.006,0.204l0.093,0.097l-0.01,0.088l-0.181,0.191l-0.004,0.106l-0.116,0.135l-0.028,0.181l-0.056,0.079l-0.009,0.12l0.065,0.135l-0.037,0.26l-0.061,0.065l-0.06,0.338l0.102,0.26v0.065l-0.046,0.093l0.055,0.139l0.107,0.056l0.019,0.107l-0.028,0.06l0.074,0.158l0.093,0.069l-0.009,0.056l-0.088,0.037l-0.056,0.121l-0.084,0.06l-0.111,0.037l-0.033,0.088l0.056,0.061l-0.004,0.088l-0.056,0.037l-0.019,0.079l0.037,0.06l-0.055,0.074h-0.645l-0.079,0.093v0.162l0.051,0.033l0.102,0.195v0.069l0.088,0.116l0.023,0.205l-0.051,0.074l-0.092,0.274l0.009,0.12l-0.06,0.139l-0.112,0.079v0.126l0.028,0.083l-0.009,0.139l-0.084,0.186l-0.065,0.088l0.019,0.046l0.055,-0.004l0.038,0.055l-0.005,0.246l0.125,0.251l0.005,0.079h-3.865l-0.085,-0.155l-0.049,-0.412l-0.05,-0.012l-0.068,0.019h-1.503l-0.003,0.179l0.037,0.158l-0.046,0.219h-0.768l-0.175,0.135l-0.179,0.006l-0.291,-0.043l-0.105,-0.068l-0.037,-0.093l-0.149,-0.037l-0.092,0.025l-0.081,-0.006l-0.13,-0.05l-0.161,0.019l-0.099,0.142l-0.154,0.031l-0.079,0.042l-0.057,0.131l-0.13,0.044l-0.081,-0.056l-0.074,0.049l-0.031,0.149l0.081,0.161l-0.038,0.074h-0.859l-0.286,-0.126l-0.42,-0.008l-0.232,0.074l-0.102,0.13l-0.139,0.009l-0.242,-0.111l-0.501,0.046l-0.324,0.167l-0.279,-0.009l-0.223,-0.046l-0.157,-0.195l-0.139,-0.028l-0.01,-0.093l0.139,-0.12l0.01,-0.158l-0.226,-0.15l-0.062,-0.136v-0.198l-0.21,-0.192l-0.056,-0.179l0.087,-0.106l-0.05,-0.099h-0.123l-0.038,-0.086l0.007,-0.124l-0.155,-0.142l-0.099,0.006l-0.037,-0.08l0.062,-0.124l-0.075,-0.074l-0.228,0.012l-0.124,-0.161l0.043,-0.229l-0.198,-0.192l-0.062,-0.21l0.068,-0.161l-0.037,-0.093l-0.346,-0.148l-0.18,-0.186l-0.142,-0.303l0.056,-0.13l-0.105,-0.111l-0.174,-0.031l-0.049,-0.117l0.031,-0.099l0.124,-0.062l0.037,-0.081l-0.229,-0.167l-0.093,0.006l-0.049,0.106l-0.13,0.006l-0.038,-0.093l0.081,-0.334l-0.105,-0.111l-0.173,-0.044l-0.236,-0.142l-0.018,-0.093l-0.081,-0.043l-0.136,0.025l-0.117,-0.056l-0.025,-0.124l-0.167,-0.192l0.025,-0.185l-0.019,-0.118l-0.13,-0.198l-0.105,-0.408l0.062,-0.031l0.105,0.105l0.062,-0.024l0.056,-0.205l0.074,-0.049v-0.118l-0.235,-0.216l-0.142,0.006l-0.087,-0.049l-0.019,-0.186l0.099,-0.068l0.025,-0.087l-0.08,-0.136l0.018,-0.179l-0.154,-0.266l-0.118,-0.013l-0.068,0.062h-0.111l-0.013,-0.068l0.056,-0.111l-0.012,-0.198l-0.056,-0.081l-0.142,-0.024l-0.093,-0.198l0.031,-0.285l-0.056,-0.093l-0.167,-0.037l-0.068,-0.185l-0.051,-0.323l0.042,-0.148l-0.028,-0.139l-0.134,-0.079l-0.014,-0.163l0.116,-0.171l-0.01,-0.116l-0.25,-0.251l0.009,-0.079l0.065,-0.023l-0.009,-0.12l-0.163,-0.126l0.01,-0.055l0.139,-0.061l0.009,-0.106l-0.204,-0.047l-0.014,-0.297l0.051,-0.055l0.144,0.004l0.051,-0.097l-0.098,-0.441l0.047,-0.167l-0.056,-0.135l0.005,-0.055l0.107,-0.056l0.037,-0.162l-0.126,-0.265l-0.13,-0.125l-0.111,-0.005l-0.102,-0.088l-0.083,0.023l-0.042,-0.032l0.083,-0.126l-0.111,-0.092l-0.223,0.004v-0.065l0.121,-0.069l0.009,-0.061l-0.13,0.005l-0.046,-0.069l0.06,-0.163l-0.018,-0.116l-0.061,-0.06l0.005,-0.056l0.074,-0.042l-0.004,-0.069l-0.107,-0.019l-0.042,-0.079l0.033,-0.315l-0.084,-0.079l-0.102,0.019l-0.13,-0.033l-0.051,-0.083l-0.264,-0.079l-0.177,0.032l-0.134,0.116l-0.251,0.005l-0.125,-0.042h-1.476l-2.292,0.116l-0.872,-0.121l-1.308,0.047h-3.601l-1.559,0.055l-0.696,0.186l-0.566,-0.111l-0.315,0.055l-0.761,-0.018l-0.223,-0.074l-0.111,-0.126l-0.149,-0.004l-0.093,0.088l-0.116,0.004l-0.083,-0.069l-0.186,-0.009l-0.055,-0.121l-0.13,-0.037l-0.089,0.06l-0.092,-0.005l-0.037,-0.041l-0.283,-0.014l-0.237,0.079l-0.139,-0.005l-0.181,-0.13h-0.13l-0.218,0.125l-0.52,0.014l-0.343,0.093l-0.409,0.028l-0.974,0.009l-0.13,-0.037l-0.069,0.014l-0.075,0.088h-0.079l-0.083,-0.051l-0.204,-0.06l-0.112,0.023l-0.236,-0.005l-0.112,-0.027l-0.129,0.009l-0.07,0.042l-0.209,0.004l-0.083,0.042l-0.084,0.176l-0.12,0.005l-0.181,-0.074l-0.246,-0.153l-0.26,-0.051l-0.214,0.009l-0.304,0.085l-0.226,0.169l-0.086,-0.002l-0.091,-0.072l-0.265,0.035l-0.081,0.074l-0.111,0.006l-0.068,-0.049l-0.31,0.062l-0.068,0.099l0.007,0.167l-0.093,0.13l-0.13,0.055l-0.111,0.105l-0.13,0.019l-0.13,0.062l-0.143,0.173l-0.136,0.031l-0.117,-0.012l-0.266,0.018l-0.18,0.093l-0.321,-0.037l-0.13,-0.099l-0.235,0.006l-0.229,0.062l-0.062,0.148l-0.105,0.062l-0.136,-0.031l-0.322,0.093l-0.421,0.136l-0.569,0.105l-0.155,-0.012l-0.086,0.037l-0.068,0.18l-0.124,0.105l-0.012,0.062l0.358,0.488l0.446,0.767l0.433,0.935l0.13,0.346l0.309,0.421l0.068,0.229l0.056,0.099l0.421,0.457l0.581,0.607l0.198,0.272l0.037,0.124l0.427,0.569l0.08,0.204l-0.012,0.204l0.019,0.254l0.074,0.123l0.006,0.192l-0.006,0.186l0.049,0.476l-0.012,0.204l0.043,0.136l0.285,0.273l0.124,0.247l0.031,0.254l0.08,0.259l0.124,0.211l0.179,0.544l0.124,0.142l0.025,0.124l-0.013,0.105l0.031,0.099l0.099,0.099l0.13,0.433l0.074,0.093l0.031,0.093l0.019,0.192l0.086,0.216l0.174,0.204l0.031,0.106l-0.019,0.08l0.118,0.254l0.142,0.167l0.148,0.346l0.075,0.081l0.037,0.092v0.106l0.352,0.674l0.143,0.148l0.055,0.13l-0.012,0.099l0.068,0.167l0.105,0.099l0.068,0.167l0.371,0.569l0.189,0.342l0.07,0.32l-0.024,0.102l0.01,0.167l-0.065,0.098l-0.088,0.018l-0.075,-0.013l-0.06,0.041l0.009,0.149l0.098,0.167l0.12,0.506l0.098,0.208l0.102,0.07l0.037,0.139l-0.019,0.2l-0.157,0.459l-0.144,0.097l-0.144,-0.004l-0.213,-0.088l-0.121,0.014l-0.278,0.255l-0.144,0.06l-0.042,-0.042l0.07,-0.097l0.102,-0.07l-0.01,-0.032l-0.139,0.065l-0.111,0.139l-0.037,0.111l0.028,0.079l-0.061,0.176l-0.357,0.418l-0.014,0.195l-0.06,0.056h-0.172l-0.083,0.083l-0.052,0.13l-0.292,0.408l-0.167,0.195l-0.018,0.112l-0.038,0.004l-0.046,-0.144l0.037,-0.241l0.107,-0.121l0.009,-0.097l0.088,-0.144l0.065,-0.023l0.056,-0.07l0.023,-0.083l0.251,-0.214l0.037,-0.078l0.116,-0.135l0.055,-0.005l0.056,-0.041l0.023,-0.079l0.079,-0.047l0.01,-0.037l-0.079,0.005l-0.158,0.125l-0.218,0.265l-0.26,0.227l-0.088,0.102l-0.019,0.074l-0.088,0.153l-0.009,0.084l-0.028,0.037l-0.074,0.019l-0.056,0.12l-0.018,0.269l0.102,0.242l0.162,0.19l0.394,0.635l0.121,0.256l0.264,0.329l0.033,0.111l-0.005,0.107l0.037,0.125l0.112,0.163l0.014,0.199l-0.065,0.088l0.014,0.13l0.199,0.358l-0.004,0.19l-0.038,0.018v0.07l0.2,0.265l0.065,0.208l-0.037,0.14l-0.209,0.129l0.005,0.121l0.566,0.793l0.181,0.381l-0.005,0.102l0.042,0.111l0.111,0.2l0.028,0.148l-0.033,0.079l-0.051,0.023l-0.06,-0.009l-0.032,0.051l0.046,0.093l0.246,0.264l0.023,0.093l0.497,0.511l0.037,0.143l0.079,0.093l0.027,0.074l-0.004,0.093l0.108,0.228l0.328,0.365l0.074,0.185l0.062,0.34l-0.025,0.13l-0.049,0.056l0.025,0.136l0.538,0.532l0.909,1.101l0.161,0.291l-0.006,0.08l-0.247,0.304l-0.112,0.068l-0.006,0.086l0.254,0.316l0.377,0.458l0.198,0.395l0.068,0.192l0.043,0.223l-0.006,0.105l-0.056,0.043l-0.006,0.056l0.019,0.068l-0.013,0.186l-0.074,0.167l-0.074,0.532l0.019,0.192l-0.013,0.117l-0.068,0.093l-0.012,0.179l0.037,0.205l-0.043,0.105l-0.093,0.043l-0.056,0.155l0.037,0.34l-0.055,0.266v0.117l-0.081,0.471l0.019,0.123l-0.019,0.118l-0.056,0.08l-0.012,0.093l0.068,0.173v0.297l0.093,0.736l-0.043,0.353l-0.062,0.08l-0.037,0.18l0.024,0.13l-0.099,0.439l-0.068,0.142l-0.123,0.093l-0.068,0.142l-0.025,0.242l-0.062,0.154l-0.037,0.297l-0.074,0.149l-0.093,0.062l-0.099,0.148v0.087l-0.074,0.247l-0.031,0.223l-0.285,0.359l-0.192,0.309l-0.111,0.05l-0.043,-0.044l0.099,-0.124l-0.031,-0.024l-0.341,0.352l-0.222,0.458v0.167l0.024,0.142l-0.098,0.155l-0.712,0.588l-0.13,0.056l-0.136,-0.031l-0.105,-0.118l-0.21,-0.006l-0.093,0.155l-0.099,0.061h-0.112l-0.142,-0.105l-0.105,0.013l-0.241,0.204l-0.093,0.222l-0.712,0.588l-0.315,0.347l-0.093,0.08l-0.124,0.05l-0.068,0.086l-0.012,0.192l0.099,0.291l0.161,0.321l-0.006,0.106l-0.539,0.575l-0.049,0.148l-0.093,0.112l-0.111,0.037l-0.105,0.08v0.062l-0.068,0.068l-0.124,0.056l-0.087,0.099l-0.043,0.154l-0.068,0.081l-0.074,0.018l-0.087,0.056l-0.074,0.111l-0.124,0.044l-0.049,-0.074l-0.05,0.018l-0.012,0.062l-0.266,0.167l-0.112,0.142l-0.024,0.105l0.037,0.149l-0.019,0.161l-0.056,0.062l-0.086,0.006l-0.093,0.074l-0.099,0.186l-0.179,0.136l-0.149,0.043l-0.124,0.179l0.038,0.112l0.012,0.223l0.087,0.099v0.111l-0.05,0.062l-0.012,0.099l0.062,0.086l-0.019,0.211l-0.074,0.074l-0.013,0.142l0.038,0.112l-0.007,0.068l-0.031,0.074l-0.068,0.643l-0.018,0.477l0.031,0.136l-0.081,0.179l-0.074,0.031l-0.099,-0.049l-0.334,0.024l-0.105,0.118l0.025,0.235l-0.031,0.093l-0.112,0.092l-0.105,0.198l0.013,0.155l-0.099,0.241l-0.124,0.118l-0.074,0.272l0.111,0.316l-0.05,0.167l-0.154,0.105l-0.025,0.142l0.142,0.26l0.056,0.241v0.204l-0.049,0.143l-0.05,0.538l-0.099,0.396l-0.111,0.21l-0.112,0.532l-0.037,0.483l-0.019,0.107l-0.092,0.083l-0.028,0.13l0.093,0.232l-0.01,0.148l-0.241,0.418l-0.186,0.139l-0.074,0.204l0.01,0.177l-0.112,0.334l-0.12,0.074l-0.065,0.167l0.027,0.176l-0.027,0.112l-0.195,0.204l-0.139,0.454l0.074,0.056h0.102l0.083,0.167l-0.037,0.195l-0.074,0.028l-0.102,-0.009l-0.39,0.195l-0.065,0.179l-0.006,0.594l-0.074,0.229l-0.05,0.822l-0.093,0.57l-0.098,0.148l-0.044,0.105l-0.025,0.161l-0.179,0.204l-0.216,0.075l-0.087,0.136l-0.074,0.334l-0.099,0.099l-0.087,0.204l-0.192,0.068l-0.216,0.006l-0.006,-0.056l0.111,-0.055l0.118,0.012l0.043,-0.025l-0.13,-0.043l-0.217,0.099h-0.055l-0.056,-0.049l-0.093,0.012l-0.222,0.359l-0.075,0.253l0.025,0.18l0.452,0.724v0.204l-0.081,0.321v0.458l0.186,1.108l0.055,1.132l-0.006,0.655l-0.043,0.143l0.068,0.581l-0.043,0.006l-0.013,-0.228l-0.043,-0.05l-0.049,0.019l0.043,0.092l0.018,0.223l0.05,0.13l-0.043,0.396l-0.124,0.278l-0.087,0.056l-0.024,-0.049l0.061,-0.279l-0.031,-0.062l-0.055,0.006l-0.05,0.143l0.025,0.21l0.037,0.093l0.037,0.34l-0.117,0.427l-0.13,0.971l0.004,0.832l0.014,0.283l0.14,0.093l0.103,0.134l0.028,-0.001l0.028,-0.034l0.09,-0.011l0.049,-0.035l0.08,-0.159h0.07l0.034,0.034l0.042,-0.003l0.032,-0.056l0.118,-0.034l0.112,-0.139l0.229,-0.112l0.06,-0.059l0.118,-0.045h0.112l0.275,-0.091l0.088,-0.072l0.056,-0.005l0.086,0.023l0.055,-0.002l0.096,-0.076l0.041,0.004l0.1,0.093l0.102,0.014l0.075,0.035l0.056,0.002l0.088,-0.035l0.088,0.019l0.112,0.12l0.002,0.079l0.035,0.037l0.051,0.002l0.035,0.028l0.039,0.079l0.056,0.035l0.081,0.025l0.037,0.039l0.023,0.058l0.079,0.017l0.091,-0.04l0.051,0.005l0.074,0.046l0.04,-0.002l0.063,-0.044l0.072,-0.003l0.062,-0.034l0.098,0.002l0.093,-0.06l0.051,0.004l0.076,0.077l0.031,-0.002l0.067,-0.068l0.065,-0.004l0.023,-0.033l-0.002,-0.046l0.035,-0.019l0.072,0.003l0.025,0.032h0.033l0.016,-0.021l0.028,0.003l0.063,0.09l0.004,0.037l-0.025,0.058l0.004,0.037l0.035,0.044v0.037l-0.016,0.026l0.009,0.03l0.047,0.011l0.03,-0.021l0.009,-0.039l0.137,-0.011l0.021,-0.019l0.002,-0.049l0.028,-0.011l0.091,0.048l0.19,0.003l0.04,-0.042l0.03,-0.002l0.03,0.034l0.028,-0.004l0.016,-0.042l0.033,-0.009l0.065,0.025l0.039,-0.011l0.056,-0.081l0.046,-0.005l0.084,0.042l0.063,-0.042l0.016,-0.09l0.042,-0.047l0.086,-0.016l0.044,-0.046l0.07,-0.009l0.09,-0.098l0.044,-0.011l0.04,-0.065l0.023,-0.003l0.032,0.028l0.038,-0.004l0.058,-0.042l0.051,-0.002l0.049,0.02l0.023,-0.013l0.016,-0.051l0.095,-0.035l0.075,-0.077l0.116,-0.025l0.151,-0.13l0.132,-0.032l0.035,-0.035l0.018,-0.081l0.072,-0.1l0.098,-0.009l0.063,-0.065l0.153,-0.062l0.021,-0.037l-0.007,-0.077l0.037,-0.025l0.081,-0.014l0.147,-0.144l0.06,-0.016h0.137l0.019,-0.021l-0.012,-0.035l0.021,-0.021l0.081,0.01l0.021,-0.028v-0.079l0.03,-0.035l0.049,-0.002l0.063,-0.049l0.211,-0.004l0.065,-0.033h0.033l0.034,0.024h0.077l0.07,-0.051l0.048,0.002l0.128,0.039l0.072,-0.002l0.198,-0.083l0.23,-0.021l0.044,0.009l0.034,0.053h0.035l0.04,-0.016l0.069,0.028l-0.002,0.06l0.023,0.033l0.058,0.002l0.079,-0.03l0.054,0.004l0.053,0.047l0.014,0.067l0.054,0.014l0.046,-0.044l0.039,-0.003l0.04,0.033l0.065,-0.002l0.06,-0.04l0.319,-0.076l0.076,-0.049l0.063,0.005l0.149,0.055l0.072,0.07l0.058,0.016l0.116,0.007l0.16,0.069l0.09,0.01l0.045,0.023l0.016,0.042l0.077,0.071l0.12,0.258l0.147,0.155l-0.01,0.16l-0.025,0.055l-0.047,0.012l0.003,0.044l0.053,0.051l0.195,0.069l0.462,0.345l0.119,0.056l0.039,0.032l0.061,0.091l0.157,0.118l0.119,0.025l0.058,0.031l0.104,0.099l0.149,0.04l0.323,0.247l0.07,0.021l0.13,0.098l0.074,0.011l0.146,0.091l0.112,0.034l0.09,0.081l0.063,0.01l0.021,0.025l0.002,0.056l0.028,0.021l0.047,0.007l0.023,0.02l0.007,0.063l0.088,0.074l-0.002,0.039l-0.021,0.037l0.009,0.049l0.153,0.097l0.058,0.007l0.063,-0.03l0.051,0.005l0.051,0.03l0.068,-0.002l0.093,-0.116l0.048,0.002l0.095,0.047l0.038,0.002l0.028,-0.019l0.032,0.003l0.035,0.046l0.267,0.072l0.051,-0.003l0.056,-0.088l0.049,0.005l0.048,0.037l0.144,-0.002l0.114,-0.095l0.204,-0.042l0.091,0.002l0.072,-0.051l0.019,-0.101h27.952l0.232,0.234l0.031,0.107l0.031,0.035l0.066,0.024l0.021,0.052v0.171l0.032,0.021l0.08,0.007l0.049,0.024l0.003,0.038l0.035,0.028l0.049,0.007l0.034,0.038l0.004,0.059l0.049,0.035l0.052,0.021l0.021,0.038l-0.018,0.09l0.06,0.105l0.104,0.093l0.007,0.063l0.042,0.028l0.174,0.003l0.052,0.021l0.035,0.07l0.073,0.02l0.007,0.119l-0.031,0.048l0.028,0.052l0.118,0.045l0.296,0.271l0.377,0.282l0.027,0.09l0.07,0.035l0.122,-0.021l0.059,0.031l0.087,0.174l0.084,0.025l0.202,0.01l0.049,0.038l0.01,0.077l0.122,0.093l0.045,0.007l0.046,-0.02l0.045,0.007l0.132,0.114l0.202,0.018l0.088,-0.032l0.048,0.004l0.063,0.048l0.136,0.018l0.059,-0.021l0.084,0.003l0.198,0.066h0.519l0.059,-0.045l0.004,-0.076l0.08,-0.066l0.087,0.003l0.084,0.049l0.042,-0.004l0.031,-0.048h0.042l0.104,0.076l0.202,0.056l0.07,-0.024l0.01,-0.049l0.056,-0.007l0.073,0.049l0.07,0.003l0.028,-0.017l0.052,0.007l0.094,0.104h0.042l0.024,-0.042l0.039,0.004l0.017,0.041l0.052,-0.007l0.056,-0.017l0.077,0.049l-0.014,0.034l-0.056,0.011l-0.007,0.038l0.063,0.017l0.123,-0.002l0.03,-0.039l0.098,-0.01l0.127,0.093l0.212,0.044l0.067,-0.004l0.067,-0.042h0.098l0.058,0.03h0.153l0.049,0.032l0.037,-0.002l0.026,-0.042l0.046,-0.002l0.172,0.076l0.179,-0.004l0.067,-0.053l0.005,-0.044l0.025,-0.01l0.049,0.035l0.123,0.014l0.021,-0.032l0.035,-0.005l0.023,0.023l0.03,-0.005l0.049,-0.083l0.269,-0.009l0.117,0.088l0.072,0.136l0.058,0.007l0.009,-0.02l-0.033,-0.026l0.012,-0.025l0.077,0.009l0.069,0.062l0.075,0.146l0.074,0.035l0.063,-0.016l0.19,-0.218l0.116,-0.053l0.123,0.007l0.172,0.083h0.179l0.151,-0.053l0.07,-0.07l0.097,-0.007l0.16,0.07l0.128,0.107l0.088,0.004l0.054,-0.023l0.051,0.005l0.169,0.125h0.068l0.13,-0.114l0.037,-0.002l0.049,0.03l0.104,0.002l0.068,0.03l0.062,0.079l0.107,0.009l0.186,-0.101l0.095,-0.017l0.065,-0.088l0.037,-0.009l0.249,0.063l0.056,-0.005l0.027,-0.026l0.04,-0.002l0.063,0.053l0.046,-0.004l0.086,-0.135l0.086,-0.02l0.1,0.057l0.051,-0.004l0.074,-0.072l0.107,-0.002l0.149,0.097l0.125,0.123l0.053,0.007l0.031,-0.019l0.055,0.003l0.035,0.025l0.075,0.009l0.102,0.058l0.167,0.003l0.116,0.083l0.026,0.113l0.041,0.07l0.058,0.021l0.031,-0.009l0.041,0.025l0.028,0.002l0.014,-0.014l0.03,0.007l0.07,0.1l0.17,0.076l0.025,0.033l0.109,0.007l0.107,-0.044l0.035,0.009l0.012,0.044l0.023,0.002l0.03,-0.058l0.086,-0.013l0.058,0.041h0.028l0.009,-0.039l0.035,-0.005l0.049,0.026l0.125,0.002l0.172,0.063l0.051,0.053l0.002,0.032l0.091,0.056l0.077,0.005l0.018,-0.019h0.033l0.021,0.037h0.034l0.124,-0.074l0.046,0.007l0.002,0.109l0.03,0.004l0.035,-0.023l0.04,0.005l0.107,0.051l0.055,0.004l0.105,0.079l0.137,0.023l0.095,-0.004l0.081,-0.049l0.11,-0.016v-0.037l-0.054,-0.033v-0.027l0.047,-0.035v-0.044l0.037,-0.028l0.116,-0.007l0.023,-0.051l0.033,-0.002l0.018,0.032l0.051,-0.002l0.151,-0.121l0.26,-0.118l0.07,-0.002l0.079,0.032l0.044,-0.002l0.077,-0.072l0.058,-0.002l0.042,0.023h0.048l0.035,-0.023l0.114,-0.005l0.044,-0.058l0.049,0.003l0.095,0.037l0.123,-0.009l0.088,-0.086l0.226,-0.005l0.032,-0.03h0.051l0.072,0.035l0.147,-0.005l0.069,-0.039l0.082,0.004l0.167,0.179l0.162,0.072l0.277,0.078l0.069,0.061l0.058,0.011l0.175,-0.032l0.058,0.009l0.062,0.07l-0.014,0.076l0.056,0.035l0.061,-0.021l0.074,0.002l0.139,0.06l0.028,0.051l13.094,-2.625z M1196.524308,784.314324l0.006,-0.086l0.471,-0.47l0.488,-0.396l0.205,-0.669l0.074,-0.018l0.031,0.062l0.062,0.012l0.055,-0.043l0.062,0.006l0.006,0.068l0.056,0.012l0.142,-0.092l0.266,0.024l0.149,-0.055l0.229,-0.353l0.037,-0.192l0.068,-0.037l0.031,-0.055l-0.019,-0.081l0.074,-0.086l0.038,-0.143l-0.075,-0.111l0.044,-0.149l0.284,-0.055l0.112,-0.037l0.173,-0.18l0.111,-0.012l0.059,0.074l0.124,0.062l0.185,0.003l0.013,-0.077l0.04,-0.065l0.439,-0.01l0.102,-0.046l0.062,-0.121l0.133,-0.108v-0.102l0.155,-0.164l0.136,-0.009l0.247,0.155h0.084l0.058,-0.078l-0.374,-0.557l0.028,-0.027l0.053,0.043l0.151,0.034l0.043,-0.028l-0.003,-0.105l0.065,-0.028l0.266,0.3l0.106,0.025l0.043,-0.043l-0.006,-0.075l0.074,-0.018l0.402,0.365l0.408,0.383l0.056,0.136l0.359,0.421l0.148,0.136l0.025,0.074l0.155,0.099l0.136,0.124l-0.044,0.037l-0.16,-0.006l-0.081,-0.062l-0.086,0.013l-0.098,0.179l-0.094,0.037l-0.093,-0.056l-0.173,0.019l-0.099,0.07l-0.198,0.085l-0.043,0.099l-0.068,0.006l-0.118,-0.081l-0.155,0.075l0.006,0.092l-0.049,0.019l-0.093,-0.037l-0.048,0.052l0.019,0.038l-0.042,0.046h-0.042l-0.06,0.083l-0.042,0.181l-0.069,0.051l-0.005,0.051l0.037,0.028l-0.028,0.056l-0.079,0.028l-0.06,0.069l-0.005,0.07l-0.051,0.023h-0.13l-0.129,0.112l-0.075,0.134l-0.041,0.227l-0.075,0.038l-0.06,-0.014l-0.088,0.009l-0.037,0.037l-0.088,0.005l-0.093,-0.065l-0.102,-0.005l-0.093,0.065l-0.009,0.19l-0.112,0.158v0.084l-0.055,0.023l-0.079,-0.014l-0.112,0.056l-0.014,0.055l-0.037,0.019l-0.051,-0.033l-0.065,0.014l-0.032,0.061l-0.084,0.004l-0.065,-0.028l-0.097,0.028l-0.046,0.084l-0.163,0.097l-0.014,0.074l-0.046,0.042l0.004,0.056l0.079,0.023l0.028,0.084l0.112,0.106l0.083,0.01l0.056,-0.033l0.06,0.005l0.037,0.079l-0.018,0.092v3.879h-1.75l-0.065,0.065l-0.18,-0.004l-0.093,0.046l-0.061,0.093l-0.162,-0.186l-0.148,-0.325l-0.01,-0.176l-0.051,-0.079l-0.004,-0.134l0.092,-0.158l0.061,-0.357l0.083,-0.051l0.112,0.004l0.069,0.042l0.093,-0.009l0.06,-0.13l-0.018,-0.371l-0.181,-0.571l-0.228,-0.376l0.024,-0.07l0.06,-0.046l-0.093,-0.237l-0.209,-0.301l-0.014,-0.088l0.051,-0.084l-0.357,-0.589l-0.461,-0.568z"/>
</svg>
