<svg xmlns="http://www.w3.org/2000/svg" viewBox="631.669 897.123 131.479 259.495">
  <path d="M681.521962,1070.484822l0.176312,0.157753l-0.055678,0.064957l-0.194872,-0.046398l-0.111355,-0.129914l0.037118,-0.083516l0.148474,0.037118Z M665.188271,1154.826238l-0.00986,0.022184l0.039438,0.027114l0.036973,-0.00493l0.012324,-0.019719l-0.041903,-0.024649h-0.036973Z M671.437211,1155.069248l0.120635,-0.064957l0.482539,0.018559l0.204151,0.102076l-0.023199,0.078877l-0.306227,0.013919l-0.129914,0.055678l-0.22271,-0.018559l-0.120635,-0.111355l-0.00464,-0.074237Z M672.411569,1155.231641l0.046398,-0.013919h0.064957l0.027839,0.032479l-0.074237,0.018559l-0.041758,-0.00464l-0.023199,-0.032479Z M732.677063,985.851678l0.024649,0.029579l0.036973,0.014789l0.044368,-0.014789l0.007395,-0.044368l-0.024649,-0.041903l-0.061622,-0.036973l-0.036973,0.017254l0.00986,0.076412Z M732.089597,985.097034l0.024746,0.080423l-0.006186,0.037118l-0.024746,-0.003093l-0.015466,-0.043305v-0.074237l0.021652,0.003093Z M732.185486,985.625971l0.043305,0.049491l0.061864,0.123728l-0.00928,0.071144l-0.061864,0.064957l-0.034025,0.003093l-0.00928,-0.052584l0.012373,-0.08661l-0.034025,-0.105169l0.003093,-0.064957l0.027839,-0.003093Z M732.655652,986.015714l0.043305,0.012373l0.015466,0.037118l-0.024746,0.040212l-0.037118,0.003093l-0.030932,-0.040212l0.00928,-0.046398l0.024746,-0.006186Z M732.244257,986.294102l-0.024746,-0.157753l0.018559,-0.139194l0.052584,-0.07733l0.071144,-0.00928l0.111355,0.080423l0.052584,0.120635l-0.024746,0.08661l-0.055678,0.034025l-0.037118,-0.006186l-0.018559,-0.037118h-0.034025l-0.00928,0.027839l0.018559,0.037118l-0.024746,0.052584l-0.043305,0.00928l-0.052584,-0.021652Z M732.485526,986.331221l0.012373,-0.083516l0.034025,-0.06805h0.024746l-0.003093,0.098982l-0.034025,0.064957l-0.034025,-0.012373Z M732.603068,986.3405l-0.018559,-0.061864l0.024746,-0.095889l0.037118,-0.012373l0.049491,0.058771l0.024746,0.055678l-0.015466,0.052584l-0.058771,0.015466l-0.043305,-0.012373Z M732.139088,986.089951l0.043305,0.00928l0.012373,0.074237l-0.027839,0.058771h-0.030932l-0.027839,-0.058771v-0.055678l0.030932,-0.027839Z M731.065748,986.767362l0.006186,-0.043305l0.043305,-0.052584h0.043305l0.037118,0.037118l0.046398,0.095889l-0.003093,0.049491l-0.043305,0.006186l-0.129914,-0.092796Z M731.307017,986.906556l0.117542,0.018559l0.030932,0.06805l-0.018559,0.055678l0.018559,0.179406l-0.034025,0.040212l-0.046398,-0.012373l-0.167033,-0.287668l0.012373,-0.046398l0.08661,-0.015466Z M706.40057,1023.629027l0.06805,0.080423l0.006186,0.074237l-0.055678,0.006186l-0.055678,-0.074237l-0.006186,-0.06805l0.043305,-0.018559Z M706.066505,1024.093007l0.049491,-0.06805l0.111355,-0.006186l0.142287,0.092796l-0.024746,0.049491l-0.167033,-0.012373l-0.111355,-0.055678Z M706.86455,1023.672332l0.074237,-0.006186l0.39593,0.24127l0.15466,0.173219l-0.030932,0.06805l-0.22271,-0.024746l-0.30932,-0.235083l-0.074237,-0.15466l0.012373,-0.061864Z M707.705901,1024.816816l-0.030932,-0.080423l0.142287,-0.074237l0.117542,0.024746l0.024746,0.080423l-0.080423,0.061864l-0.173219,-0.012373Z M708.052339,1024.519869l0.006186,-0.061864l0.049491,-0.030932l0.049491,0.018559v0.049491l-0.061864,0.030932l-0.043305,-0.006186Z M707.749205,1024.142498l0.018559,-0.080423l0.089703,-0.021652l0.060317,0.027839l0.027839,0.092796l-0.051038,0.060317l-0.106715,-0.013919l-0.038665,-0.064957Z M708.02914,1024.082181l0.027839,-0.055678l0.055678,-0.018559l0.041758,0.032479l-0.013919,0.055678l-0.064957,0.013919l-0.046398,-0.027839Z M707.082621,1022.94079l0.125275,-0.134554l0.487179,0.00464l0.770207,0.139194l0.287668,0.208791l0.213431,0.46398l-0.046398,0.338705l-0.092796,0.097436l-0.194872,-0.078877l-0.324786,-0.259829l-0.867643,-0.320146l-0.329426,-0.324786l-0.027839,-0.134554Z M707.022303,1022.411853l0.185592,-0.199511l0.273748,-0.125275l0.352625,0.055678l0.45934,0.306227l0.157753,0.213431l-0.148474,0.092796l-0.278388,-0.032479l-0.45934,-0.301587l-0.310867,-0.027839l-0.153113,0.106715l-0.078877,-0.032479v-0.055678Z M705.969069,1021.896835l0.069597,-0.013919l0.185592,0.102076l0.431501,0.013919l0.194872,-0.051038l0.115995,-0.097436l0.190232,-0.00928l0.208791,0.120635l0.013919,0.074237l-0.208791,0.106715l-0.139194,-0.00464l-0.129914,-0.088156l-0.102076,0.055678l-0.176312,0.259829l-0.46398,0.074237l-0.143834,-0.083516l-0.060317,-0.306227l0.013919,-0.153113Z M706.085064,1021.734442l0.088156,-0.032479l0.23663,0.018559l0.129914,0.074237l0.134554,-0.013919l0.074237,-0.111355l0.074237,-0.051038l0.102076,0.037118l-0.078877,0.143834l-0.218071,0.111355l-0.375824,-0.018559l-0.171673,-0.078877l0.00464,-0.078877Z M706.507286,1021.623087l0.060317,-0.120635l0.106715,-0.013919l0.083516,0.018559l0.00464,0.051038l-0.125275,0.102076l-0.078877,0.00464l-0.051038,-0.041758Z M705.839154,1021.743722l0.055678,-0.027839l0.078877,0.032479l-0.00464,0.051038l-0.055678,0.013919l-0.064957,-0.018559l-0.00928,-0.051038Z M705.894832,1021.298301l0.041758,-0.074237l0.171673,-0.023199l0.069597,0.041758l-0.027839,0.046398l-0.153113,0.032479l-0.102076,-0.023199Z M705.922671,1021.456054l0.037118,-0.046398h0.125275l0.069597,0.055678l-0.037118,0.055678l-0.106715,0.013919l-0.088156,-0.078877Z M706.261376,1021.534931l0.041758,-0.069597l0.064957,-0.032479l0.069597,0.027839v0.046398l-0.078877,0.060317l-0.064957,0.00464l-0.032479,-0.037118Z M705.695321,1020.741525l0.037118,-0.064957l0.125275,-0.032479l0.046398,0.046398l-0.023199,0.055678l-0.148474,0.018559l-0.037118,-0.023199Z M706.136102,1020.727605l0.051038,-0.00464l0.064957,0.060317l0.00464,0.046398l-0.060317,0.013919l-0.060317,-0.051038v-0.064957Z M704.804479,1020.37962l0.037118,-0.023199h0.051038l0.037118,0.032479l-0.023199,0.032479l-0.078877,-0.00928l-0.023199,-0.032479Z M704.971512,1020.407459v-0.051038l0.046398,-0.023199l0.032479,0.027839l-0.013919,0.037118l-0.032479,0.023199l-0.032479,-0.013919Z M705.082867,1020.426018l0.013919,-0.041758l0.046398,-0.00928l0.041758,0.023199l-0.00928,0.032479l-0.060317,0.018559l-0.032479,-0.023199Z M705.588605,1020.509535l0.032479,-0.027839l0.055678,0.00464l0.023199,0.032479l-0.032479,0.023199h-0.051038l-0.027839,-0.032479Z M705.203502,1032.410622l0.092796,-0.129914l0.213431,-0.482539l0.23199,-0.22271l0.111355,-0.018559l0.092796,0.139194l-0.102076,0.204151l-0.213431,0.204151l-0.157753,0.259829l-0.204151,0.139194l-0.064957,-0.092796Z M705.667482,1032.410622l0.074237,-0.287668l0.157753,-0.074237l0.278388,0.259829l0.018559,0.111355l-0.278388,0.361904l-0.185592,-0.027839l-0.083516,-0.194872l0.018559,-0.148474Z M706.364429,1033.966341l0.30525,-0.423608l0.157753,-0.046398l0.092796,0.055678l-0.148474,0.343345l-0.287668,0.129914l-0.119658,-0.058931Z M706.63256,1033.106592l0.157753,-0.22271l0.129914,-0.037118l0.111355,0.148474l-0.040952,0.21823l-0.153919,0.143674l-0.222006,-0.017002l0.017855,-0.233547Z M705.899472,1030.879488l0.018559,-0.120635l0.092796,-0.046398l0.064957,0.027839v0.092796l-0.083516,0.074237l-0.092796,-0.027839Z M706.63256,1029.366913l0.24127,-0.259829l0.157753,-0.00928l0.278388,0.148474l0.018559,0.22271l-0.111355,0.176312l-0.213431,-0.00928l-0.306227,-0.129914l-0.064957,-0.139194Z M707.198616,1030.972284v0.176312l0.102076,0.24127l-0.00928,0.24127l-0.074237,0.018559l-0.092796,-0.111355l-0.027839,-0.352625l0.037118,-0.22271l0.064957,0.00928Z M683.971776,1070.206434l0.074237,-0.055678h0.129914l0.037118,0.074237l-0.102076,0.083516l-0.102076,-0.00928l-0.037118,-0.092796Z M670.20085,1105.529232l0.078877,-0.013919l0.018559,-0.037118l-0.032479,-0.046398l-0.083516,0.013919l-0.032479,0.041758l0.051038,0.041758Z M670.330764,1105.631308l0.064957,-0.037118l0.027839,-0.041758l-0.037118,-0.032479l-0.074237,0.027839l-0.018559,0.074237l0.037118,0.00928Z M665.335246,1112.273955l0.061864,0.061864l0.043305,-0.055678l-0.061864,-0.167033l-0.080423,-0.06805l-0.043305,0.037118l0.080423,0.191778Z M693.743195,1152.900045v0.06805l0.092796,0.105169l0.098982,-0.018559l0.074237,-0.08661l-0.030932,-0.074237l-0.136101,-0.018559l-0.098982,0.024746Z M693.007014,1153.147501l0.018559,0.080423l0.06805,0.030932l0.061864,-0.061864l-0.024746,-0.061864l-0.06805,-0.018559l-0.055678,0.030932Z M693.153941,1153.333093l0.00464,0.046398l0.037118,0.023199l0.032479,-0.023199v-0.046398l-0.041758,-0.023199l-0.032479,0.023199Z M689.822564,1154.609038l0.069597,0.120635l0.143834,0.032479l0.190232,-0.106715l0.111355,0.023199l0.018559,0.078877l-0.060317,0.041758l0.037118,0.115995l0.139194,0.060317l0.018559,0.115995l-0.329426,0.162393l0.013919,0.051038l0.347985,0.00464l0.733088,-0.283028l0.097436,-0.255189l0.306227,-0.185592h0.148474l0.00464,0.041758l-0.167033,0.046398l-0.102076,0.204151l0.046398,0.032479l0.273748,-0.013919l0.250549,-0.134554l0.078877,-0.180952l0.088156,-0.023199l0.153113,0.00928l0.250549,-0.129914l0.083516,-0.24127l0.134554,-0.00928l0.153113,0.074237l0.064957,-0.00928l0.046398,-0.111355h0.064957l0.023199,0.22735l-0.032479,0.196418l0.046398,0.160846l0.069597,0.013919l0.153113,-0.176312l0.417582,-0.120635l0.074237,0.00928l0.00928,0.083516l0.055678,0.00928l0.23199,-0.213431l-0.00928,-0.143834l0.055678,-0.027839l0.125275,0.092796h0.125275l0.394383,-0.23663h0.074237l0.013919,0.069597l-0.018559,0.129914l0.041758,0.111355l0.106715,0.00928l0.315506,-0.199511h0.078877l0.051038,0.051038l0.120635,-0.00464l0.310867,-0.315506l0.032479,-0.245909l-0.046398,-0.074237l-0.102076,-0.00464l-0.115995,0.069597l-0.097436,0.190232l-0.143834,0.051038l-0.041758,-0.027839l0.120635,-0.083516l-0.046398,-0.176312l-0.102076,-0.046398l-0.278388,0.046398l-0.250549,0.125275l-0.250549,0.037118l-0.129914,0.180952l-0.060317,0.125275l-0.074237,0.032479l-0.032479,-0.032479l0.092796,-0.171673l-0.069597,-0.204151l-0.139194,-0.037118l-0.078877,0.055678l-0.027839,0.148474l-0.194872,0.064957l-0.037118,-0.027839l0.074237,-0.069597l-0.018559,-0.097436l-0.129914,-0.064957l-0.092796,0.00928l-0.088156,0.069597l0.00464,0.046398l0.102076,0.041758l0.055678,0.157753l-0.051038,0.032479l-0.102076,-0.013919l-0.064957,-0.129914l-0.088156,-0.069597l-0.250549,-0.106715l-0.046398,0.023199l-0.018559,0.051038l-0.092796,0.00928l-0.134554,-0.060317l-0.153113,-0.041758l-0.092796,0.032479l-0.143834,-0.013919l-0.088156,-0.051038l-0.018559,-0.083516l-0.055678,-0.00464l-0.041758,0.22271l-0.115995,0.069597l-0.00928,0.111355l0.088156,0.139194v0.208791l-0.046398,0.055678 l-0.055678,-0.027839l0.037118,-0.120635l-0.023199,-0.069597l-0.092796,-0.055678l-0.037118,-0.24127l-0.106715,-0.013919l-0.088156,0.060317l0.027839,0.041758l0.064957,0.027839l0.037118,0.129914l-0.060317,0.00928l-0.162393,-0.115995l-0.264469,-0.018559l-0.264469,-0.180952l-0.083516,-0.134554l-0.092796,-0.018559l-0.051038,0.037118l0.051038,0.129914l-0.00928,0.134554l0.064957,0.102076l0.088156,0.046398l0.032479,0.143834l-0.078877,0.046398l-0.125275,-0.018559l-0.134554,0.051038l-0.046398,0.125275l-0.120635,0.013919l-0.287668,-0.157753l-0.074237,-0.148474l-0.255189,-0.023199l-0.032479,0.037118l0.046398,0.088156l-0.013919,0.064957l-0.051038,0.023199l-0.097436,-0.037118l-0.153113,0.051038l-0.139194,0.292307Z  M733.665486,976.302679l-0.041,-0.116l-0.065,-0.336l0.025,-0.136l-0.019,-0.105l-0.124,-0.359l-0.043,-0.414l0.019,-0.285l-0.099,-0.668l-0.124,-0.179l-0.037,-0.161l-0.068,-0.105l-0.037,-0.291l0.068,-0.532l0.092,-0.179l0.198,-0.099l0.192,-0.149l0.112,-0.266l0.012,-0.216l-0.037,-0.186l-0.483,-0.6l-0.018,-0.142l0.08,-0.396l0.136,-0.167l0.056,-0.359l-0.099,-0.328l0.006,-0.155l-0.087,-0.173l-0.179,-0.093l-0.043,-0.346l0.049,-0.124l0.223,-0.117l0.476,-0.118l0.118,-0.124l0.142,-0.297l0.037,-0.173l0.161,-0.359l0.235,-0.742l-0.012,-0.155l-0.093,-0.117l-0.062,-0.211l-0.185,-0.167l-0.223,-0.074l-0.074,-0.155l0.012,-0.129l0.167,-0.167l0.254,-0.137l0.21,-0.154l0.031,-0.081l-0.062,-0.099l-0.012,-0.111l0.062,-0.254l0.204,-0.247l0.13,-0.198l0.037,-0.142l0.08,-0.136l0.025,-0.167l-0.043,-0.18l0.006,-0.303l0.043,-0.148l0.167,-0.168l0.112,-0.365l-0.019,-0.296l-0.155,-0.174l-0.099,-0.173l0.013,-0.111l0.148,-0.099l0.149,-0.019l0.154,0.037l0.118,-0.031l0.074,-0.123v-0.415l0.025,-0.458l-0.044,-0.216l0.019,-0.359l-0.056,-0.167l-0.148,-0.124l-0.031,-0.253l-0.05,-0.136l-0.21,-0.186l-0.074,-0.396l0.031,-0.216l0.13,-0.149l0.507,-0.285l0.161,-0.185l0.272,-0.13l0.396,-0.285l0.167,-0.229l0.136,-0.494v-0.155l-0.179,-0.21l-0.01,-0.143l-0.015,-0.046l0.037,-0.062l0.099,-0.019l0.161,0.041l0.105,-0.013l0.235,-0.099l0.322,-0.198l0.254,-0.21l0.099,-0.204l0.185,-0.272l0.223,-0.167l0.185,-0.05l0.13,-0.117l0.099,-0.205l0.062,-0.352l-0.018,-0.198l0.024,-0.198l0.149,-0.217l0.408,-0.396l0.161,-0.049l0.204,0.006l0.21,-0.037l0.297,-0.136l0.316,-0.316l0.167,-0.272l0.322,-0.445l0.235,-0.217l0.154,-0.154l0.062,-0.124l0.155,-0.149l0.445,-0.259l0.13,-0.205l0.105,-0.092l0.056,-0.106l0.012,-0.21l0.069,-0.161l0.16,-0.08l0.155,-0.013l0.118,-0.074l0.241,-0.42l0.093,-0.26l-0.007,-0.254l0.068,-0.204l0.248,-0.322l0.087,-0.198l0.117,-0.099l0.192,0.006l0.08,-0.049l0.081,-0.099l0.179,-0.049l0.26,-0.019l0.229,-0.093l0.068,-0.117l0.043,-0.254l-0.043,-0.105l-0.012,-0.112l0.037,-0.123l0.173,-0.143l0.278,-0.123l0.204,-0.204l0.056,-0.174l-0.012,-0.488l0.086,-0.174l0.13,-0.068l0.365,-0.031l0.173,-0.055l0.13,-0.149l0.068,-0.179l0.174,-0.26l0.136,-0.099l0.346,-0.309l0.229,-0.105l0.111,-0.112l0.013,-0.136l-0.13,-0.185l-0.019,-0.18l0.068,-0.148l0.167,-0.081l0.174,0.006l0.13,-0.018l0.148,-0.081l0.21,-0.037l0.044,-0.111l-0.143,-0.353l0.019,-0.161l0.173,-0.228l0.136,-0.038l0.322,0.093l0.303,0.037l0.173,0.093l0.075,0.198l0.086,0.087l0.081,-0.006l0.055,-0.087v-0.161l0.074,-0.155l0.025,-0.198l-0.068,-0.142l-0.365,-0.266l-0.241,-0.093l-0.019,-0.117l0.068,-0.087l0.365,-0.105l0.124,-0.056l0.149,-0.198l0.241,-0.111l0.086,-0.136l0.007,-0.173l0.08,-0.118h0.087l0.068,0.062l-0.044,0.074l0.031,0.112l0.13,0.086l0.081,-0.006l0.055,-0.087l0.044,-0.191l0.062,-0.056l0.086,-0.006l0.074,-0.068l0.056,-0.167l0.13,-0.006l0.155,0.117l0.08,-0.025l0.105,-0.185l0.112,-0.099l0.241,-0.161l0.018,-0.118l-0.099,-0.16v-0.075l0.069,-0.043l0.204,-0.019l0.068,-0.061l-0.031,-0.124l0.055,-0.112l0.099,-0.043l0.186,0.056l0.13,-0.013l0.074,-0.061l0.112,-0.229l0.198,-0.217l0.142,-0.012l0.117,0.043l0.081,0.13l0.154,0.105l0.068,-0.031l-0.018,-0.111l0.006,-0.124l0.124,-0.086l0.185,-0.013l0.198,0.068h0.13l0.019,-0.105l-0.081,-0.13l-0.284,-0.192l0.006,-0.086l0.068,-0.056l0.142,0.025l0.136,0.117l0.112,0.013l0.074,-0.05l0.062,-0.105l0.093,-0.018l0.136,0.043l0.105,-0.037l0.155,-0.217l0.099,-0.198l-0.019,-0.464l0.043,-0.099l0.124,-0.062h0.161l0.093,-0.105l0.068,-0.303l0.093,-0.247l0.074,-0.013l0.093,0.087l0.018,0.204l0.118,0.068l0.08,-0.006l0.081,-0.124h0.154l0.192,0.074l0.118,-0.024l0.024,-0.105l-0.055,-0.26l0.018,-0.068l0.074,-0.019l0.075,0.037l0.055,0.192l0.093,0.049l0.074,-0.018l0.198,-0.402l0.056,-0.211l0.062,-0.012l0.173,0.149l0.093,0.185l0.08,0.006l0.192,-0.154h0.173l0.105,-0.062l0.025,-0.074l-0.167,-0.211l0.037,-0.068l0.198,-0.012l0.099,-0.074l0.105,-0.007l0.112,0.068l0.086,0.205l0.143,0.111h0.068l0.049,-0.142l-0.031,-0.248l0.05,-0.025l0.179,0.161l0.118,0.118l0.074,-0.013l0.074,-0.086l-0.006,-0.186l0.08,-0.068l0.167,-0.031l0.087,-0.105l0.037,-0.284l0.105,-0.236l0.044,-0.247l0.074,-0.093h0.068l0.068,0.068l0.006,0.204l0.099,0.062l0.254,0.006l0.167,-0.055l0.068,-0.18l0.117,-0.074l0.112,-0.012l0.068,-0.124l0.037,-0.235l0.118,-0.074l0.185,0.006l0.081,-0.068l-0.013,-0.093l0.056,-0.124l0.093,-0.012l0.136,0.13l0.086,0.006l0.068,-0.08l0.106,-0.248l0.117,0.019l0.031,0.13l0.093,0.136h0.056l-0.025,-0.074l0.074,-0.069l0.118,-0.006l0.024,-0.055l-0.105,-0.081l0.043,-0.148l0.137,0.012l0.055,-0.049l-0.093,-0.118l0.031,-0.105l-0.031,-0.118l0.044,-0.031l0.13,0.124l0.024,-0.043l-0.092,-0.155l0.037,-0.049l0.105,0.062l0.056,-0.069l-0.05,-0.098l0.037,-0.05l0.099,0.019l0.019,-0.05l-0.044,-0.056l0.038,-0.043l0.074,0.006l0.012,-0.049l-0.062,-0.074l0.05,-0.068l0.111,-0.013l0.05,-0.056l0.006,-0.123l0.111,-0.167l0.025,-0.13l-0.087,-0.124l0.037,-0.087h0.106l0.037,-0.061l-0.192,-0.118l-0.155,-0.445l-0.08,-0.019l-0.019,-0.062l0.062,-0.062l-0.006,-0.08l-0.13,-0.05l-0.012,-0.111l0.068,-0.062v-0.117l0.062,-0.13l-0.007,-0.136l-0.105,-0.075v-0.086l0.112,-0.52l0.012,-0.328l0.105,-0.08l0.031,-0.087l-0.037,-0.123l0.037,-0.137l0.074,-0.055l0.019,-0.087l-0.074,-0.117l-0.013,-0.192l0.068,-0.297l0.223,-0.316l0.08,-0.266l-0.018,-0.433l-0.365,-0.42l-0.229,-0.174l-0.025,-0.148l0.062,-0.167l-0.018,-0.18l-0.118,-0.08l-0.365,-0.278l-0.21,-0.248l0.006,-0.148l0.099,-0.118l-0.019,-0.136l-0.074,-0.037l-0.025,-0.068l0.044,-0.093l-0.044,-0.278l0.093,-0.13l0.019,-0.118l-0.081,-0.043l-0.08,-0.167l0.055,-0.068v-0.068l-0.167,-0.093l0.013,-0.198l0.074,-0.056l0.031,-0.13l-0.068,-0.105l-0.13,-0.006l-0.063,-0.054l0.014,-0.079l-0.154,-0.139l-0.111,-0.033l-0.116,0.005l-0.005,0.098l-0.051,0.055l-0.065,-0.032l-0.097,-0.288l-0.255,-0.209l-0.093,0.01l-0.014,0.078l-0.079,0.038l-0.093,-0.038l-0.097,-0.116l-0.06,0.014l-0.047,0.153l0.01,0.195l-0.061,0.024l-0.079,-0.061l-0.083,-0.241v-0.153l0.181,-0.218l0.014,-0.135l-0.084,-0.046l-0.199,0.102l-0.144,0.181l-0.098,0.023l-0.12,-0.037l-0.079,0.046l0.018,0.107l0.14,0.111l-0.005,0.07l-0.121,-0.009l-0.195,-0.126l-0.074,0.065l0.023,0.102l-0.041,0.084h-0.084l-0.102,-0.213l-0.107,-0.07l-0.218,0.028l-0.097,0.116l-0.079,0.171l-0.102,0.01l-0.158,-0.028l-0.065,0.079v0.153l-0.195,0.237l0.014,0.134l-0.041,0.074l-0.07,-0.004l-0.06,-0.237l-0.228,-0.288l-0.13,-0.027l-0.074,0.051l-0.093,0.009l-0.065,-0.07v-0.097l-0.074,-0.065l-0.121,-0.019l-0.18,0.01l-0.019,0.232l0.093,0.19v0.074l-0.065,0.046l-0.13,-0.023l-0.125,-0.042l-0.135,0.024l-0.056,0.097l0.028,0.135l0.135,0.273l0.037,0.223l0.148,0.241l0.112,0.112v0.134l-0.195,0.474l0.004,0.208l0.075,0.158l-0.051,0.163l-0.102,0.018l-0.177,-0.032l-0.102,0.041l-0.046,0.121l0.023,0.121l0.19,0.338l0.023,0.172l-0.018,0.148l-0.144,0.172l-0.014,0.111l0.079,0.158l0.246,0.181l0.005,0.084l-0.084,0.093l-0.26,0.18l-0.037,0.075l0.009,0.074l0.177,0.144l0.004,0.106l-0.278,0.404l-0.046,0.135l-0.014,0.324l-0.116,0.2l-0.223,0.223l-0.204,0.102l-0.098,0.139l-0.069,0.162v0.079l0.134,0.2l-0.004,0.236l-0.149,0.283l-0.079,0.038h-0.069l-0.135,-0.103h-0.204l-0.311,0.112l-0.093,0.195l0.01,0.376l-0.07,0.176l-0.093,0.065l-0.343,0.014l-0.232,0.06l-0.13,0.111l-0.074,0.121l-0.088,0.074l-0.186,0.093l-0.107,0.139l-0.018,0.149l0.051,0.157l0.06,0.103v0.074l-0.079,0.074l-0.325,0.102l-0.13,-0.018l-0.204,-0.186l-0.116,-0.014l-0.134,0.065l-0.107,0.074l-0.102,0.042l-0.394,0.028l-0.283,0.171l-0.158,0.149l-0.098,0.26l-0.009,0.12l0.047,0.186l-0.038,0.093l-0.148,0.042l-0.45,-0.098l-0.088,0.019l-0.042,0.06l-0.014,0.121l0.056,0.125l-0.028,0.107l-0.079,0.046l-0.074,-0.005l-0.065,-0.041l-0.084,0.014l-0.069,0.106l0.028,0.214l0.213,0.208l0.051,0.14v0.074l-0.051,0.051l-0.079,0.009l-0.046,0.056v0.065l0.097,0.148v0.107l-0.139,0.125l-0.394,0.191l-0.098,0.023l-0.19,0.213l-0.079,0.186l-0.102,0.083l-0.26,-0.018l-0.288,-0.186l-0.199,-0.139l-0.135,-0.237l-0.116,-0.106l-0.12,-0.024l-0.362,0.075l-0.118,-0.007l-0.185,-0.105l-0.211,-0.191l-0.198,-0.025l-0.327,0.049l-0.347,0.18l-0.285,0.297l-0.148,0.117l-0.247,0.043l-0.099,0.087l-0.019,0.124l0.068,0.21l-0.068,0.198l-0.167,0.161l-0.124,0.08l-0.099,0.235l-0.018,0.174l-0.112,0.099l-0.136,0.049l-0.192,-0.031l-0.402,-0.272l-0.315,-0.464l-0.18,-0.303l-0.253,-0.136l-0.13,0.012l-0.241,0.161l-0.149,0.019l-0.111,-0.038l-0.142,0.056l-0.038,0.136l-0.046,0.124l-0.186,0.009l-0.501,-0.25l-0.315,-0.269l-0.334,-0.028l-0.455,0.278l-0.158,0.121l-0.501,0.009l-0.093,0.065h-0.12l-0.186,-0.093l-0.408,-0.065l-0.631,-0.38l-0.214,-0.019l-0.324,0.037l-0.641,-0.102l-0.436,-0.13l-0.38,-0.046l-0.279,-0.149l-0.12,-0.129l-0.223,-0.121l-0.464,-0.084l-0.371,-0.12l-0.186,-0.13l-0.371,-0.065l-0.204,0.056l-0.214,-0.01l-0.185,-0.074l-0.381,-0.009l-0.25,0.055l-0.167,-0.009l-0.223,-0.074l-0.677,-0.028l-0.409,0.074l-0.204,0.112l-0.352,-0.01l-0.325,-0.065l-0.214,0.019l-0.148,0.121l-0.26,0.083l-0.213,0.13l-0.102,-0.009l-0.028,-0.121l0.148,-0.352v-0.167l-0.334,-0.223l-0.13,-0.158l0.065,-0.315l0.26,-0.149l0.288,0.028l0.102,-0.084l0.009,-0.259l-0.074,-0.121l0.056,-0.084h0.12l0.13,0.084v0.093l0.074,0.018l0.056,-0.102l-0.037,-0.139l-0.093,-0.121l0.028,-0.092l0.121,-0.019l0.102,0.074l0.083,-0.028l0.009,-0.12l-0.129,-0.26l0.055,-0.102l0.548,-0.251l0.102,-0.148l0.13,-0.056l0.167,0.028l0.102,-0.074l-0.019,-0.158l-0.093,-0.111l0.019,-0.084l0.167,-0.028l0.121,-0.102l-0.047,-0.195l0.084,-0.055l0.13,0.028l0.074,-0.093l-0.009,-0.483l-0.065,-0.158l0.055,-0.083l0.177,0.046l0.185,0.01l0.037,-0.084l-0.102,-0.102v-0.111l0.112,-0.075l-0.028,-0.241l-0.13,-0.102l-0.028,-0.139l0.084,-0.167l-0.01,-0.102l-0.12,-0.102l0.028,-0.084l0.157,-0.028l0.084,-0.046v-0.102l-0.149,-0.111l-0.083,-0.13l0.028,-0.158l0.343,-0.167l0.074,-0.204l-0.093,-0.251l0.028,-0.158l0.13,-0.12l0.223,-0.093l0.046,-0.102l-0.074,-0.111l-0.241,-0.14l0.018,-0.065h0.14l0.083,-0.083l0.037,-0.204l0.13,-0.186l0.204,-0.065h0.223l0.52,-0.278l0.139,-0.204l0.185,-0.13l0.214,-0.028l0.074,-0.121l-0.065,-0.13l-0.158,-0.065l-0.018,-0.13l0.12,-0.129l0.195,-0.065l0.028,-0.103l-0.148,-0.176l0.018,-0.13l0.306,-0.13l0.075,-0.167l-0.149,-0.315v-0.139l0.084,-0.028l0.102,0.065l0.139,-0.01l0.241,-0.194l0.065,-0.102l-0.065,-0.065h-0.111l-0.074,-0.075l0.027,-0.204l0.14,-0.148h0.157l0.158,0.074h0.102l0.056,-0.121l-0.056,-0.269l0.065,-0.065l0.121,0.037l0.12,0.121l0.093,-0.009l0.084,-0.102l-0.009,-0.177l0.074,-0.055h0.102l0.056,-0.121l-0.075,-0.213l0.112,-0.232l0.046,-0.14l-0.074,-0.269l-0.232,-0.213l-0.269,-0.13l-0.334,-0.39l-0.075,-0.269l-0.259,-0.297l-0.085,-0.147l0.02,-0.233l-0.177,-0.177l-0.352,-0.185l-0.084,-0.149l-0.167,-0.102l-0.445,-0.046l-0.204,0.055l-0.13,-0.055l-0.056,-0.195l-0.13,-0.084l-0.186,0.075l-0.148,-0.047l-0.037,-0.111l-0.121,-0.074l-0.148,0.028l-0.102,-0.056l-0.028,-0.158l-0.149,-0.111l-0.157,-0.01l-0.158,-0.111l-0.065,-0.121l-0.084,-0.046l-0.204,0.084l-0.399,0.371l-0.111,-0.01l-0.074,-0.157l-0.344,-0.269l-0.13,-0.047l-0.065,-0.083l0.01,-0.177l-0.167,-0.139l-0.353,-0.12l-0.241,-0.158l-0.214,-0.047l-0.222,0.056l-0.353,-0.018l-0.251,-0.149l-0.083,-0.176l-0.139,-0.065l-0.409,-0.009l-0.176,-0.084l-0.176,-0.204l-0.78,-0.464h-0.204l-0.213,-0.084l-0.093,-0.12l-0.278,-0.13h-0.214l-0.288,-0.204l-0.176,-0.177l-0.473,-0.324l-0.418,-0.177l-0.176,-0.148l-0.065,-0.288l-0.13,-0.111l-0.176,-0.047l-0.232,-0.185l-0.186,-0.381l-3.637,-2.19l-0.288,-0.018l-0.603,0.204h-0.808l-0.612,-0.167l-0.093,-0.158l-0.417,-0.25l-0.242,-0.019l-0.259,0.074l-0.344,-0.111l-0.065,-0.204l-0.139,-0.102l-0.418,-0.056l-0.213,-0.121l-0.399,-0.092l-0.408,-0.01l-0.232,-0.083l-0.269,-0.288l-0.205,-0.083l-0.157,0.055l-0.232,-0.055l-0.167,-0.335l-0.307,-0.38l-0.185,-0.334l0.009,-0.297l-0.176,-0.13l-0.269,-0.26l-0.204,-0.093l-0.093,0.028l-0.204,-0.065l-0.381,-0.371l-0.352,-0.204l-0.242,-0.028l-0.408,-0.204l-0.149,0.009l-0.167,-0.092l-0.176,-0.214l0.037,-0.176l-0.074,-0.074l-0.13,0.009l-0.13,-0.093l-0.083,-0.186l-0.316,-0.204l-0.297,-0.018l-0.352,-0.251l-0.102,-0.362l-0.177,-0.157l-0.148,-0.028l-0.186,-0.112l-0.046,-0.167l-0.306,-0.241l-0.557,-0.315l-0.279,-0.325l-0.055,-0.381l-0.084,-0.083l-0.176,-0.464l-0.365,-0.412l-0.124,-0.043l-0.303,-0.365l0.006,-0.13l-0.142,-0.155l-0.093,0.007l-0.049,-0.056l0.024,-0.266l0.056,-0.111l0.019,-0.167l-0.056,-0.007l-0.074,0.075l-0.211,-0.106l-0.105,-0.204l0.112,-0.173l0.006,-0.179l-0.186,-0.186l-0.093,0.012l-0.062,-0.03l0.025,-0.205l-0.068,-0.043l-0.105,0.068l-0.142,-0.049l-0.013,-0.099l-0.068,-0.05l-0.173,0.062l-0.08,-0.006l-0.508,-0.483l-0.018,-0.105l-0.05,-0.062l-0.26,0.037l-0.129,-0.068l-0.013,-0.123l-0.105,-0.112h-0.118l-0.043,-0.043l0.013,-0.087l-0.05,-0.043l-0.13,0.025l-0.26,-0.068l-0.037,-0.081l0.05,-0.049l0.026,-0.287l-0.063,-0.072l-0.065,0.012l-0.007,0.09l-0.083,-0.003l-0.155,-0.257l-0.25,-0.111l-0.087,-0.161l-0.198,-0.145l-0.068,0.009l-0.031,0.074l-0.071,-0.006l-0.108,-0.145l-0.041,-0.279l0.084,-0.182l0.006,-0.109l-0.108,-0.111l0.006,-0.195l0.081,-0.077l0.006,-0.056h-5.704l-0.099,0.371h-0.05v-0.21l-0.091,-0.028l-0.051,-0.133h-1.435l-0.111,0.161l-0.143,0.452l-0.093,0.018l-0.086,0.112l0.012,0.167l-0.086,0.21l-0.099,0.08l-0.075,0.149l0.007,0.161l-0.093,0.198l-0.155,0.012l-0.13,0.303l-0.018,0.149l-0.174,0.396l0.019,0.105l-0.056,0.148l-0.105,0.019l-0.056,0.062l0.019,0.099l-0.08,0.148l-0.068,0.05l-0.236,0.383l-0.117,0.05l-0.043,0.142l0.037,0.13l-0.025,0.056l-0.124,0.006l-0.031,0.111l0.044,0.111l-0.025,0.056l-0.062,0.056l-0.118,0.309l0.038,0.136l-0.025,0.291l-0.056,0.105l-0.025,0.229l0.056,0.074l-0.012,0.05l-0.093,0.018l-0.031,0.112l0.062,0.111l-0.031,0.08l-0.105,0.031l-0.019,0.062l0.056,0.081l-0.05,0.105l-0.061,0.006l-0.056,-0.074l-0.031,-0.279l-0.074,-0.154l0.043,-0.26l-0.124,-0.223l-0.229,-0.062l-0.092,-0.062l0.006,-0.191l-0.217,-0.291l0.037,-0.415l0.099,-0.111l-0.012,-0.198l-0.111,-0.117h-0.099l-0.05,-0.044l0.012,-0.08l-0.191,-0.186l0.006,-0.074l-0.099,-0.186l-0.05,-0.024l-0.13,0.055l-0.037,-0.049l0.068,-0.093v-0.087l-0.297,-0.259l-0.037,-0.229l0.019,-0.124l0.186,-0.179l-0.013,-0.118l-0.223,-0.192l-0.148,-0.068l-0.155,-0.284l-0.266,-0.118h-0.352l-0.056,0.05l-0.124,-0.019l-0.117,-0.087l-0.149,-0.037l-0.086,-0.086l-0.446,-0.248l-0.365,-0.012l-0.148,-0.087l-0.242,-0.086l-0.16,-0.124l-3.298,0.062l-0.532,-0.105l-0.105,0.142l-0.569,0.111l-0.105,-0.074l-0.118,-0.025l-0.105,0.081l-0.136,-0.025l-0.285,-0.21h-0.08l-0.786,-0.984l-0.816,-0.111l0.024,-0.328l-0.235,-0.26l-0.792,-0.278l-0.21,-0.075l-0.086,0.068l0.03,0.396l-0.154,0.557l-0.093,0.093l-0.043,0.235l0.024,0.118l-0.018,0.167l-0.056,0.092l-0.006,0.384l-0.074,0.037l-0.081,-0.037l-0.068,0.018l-0.055,0.174l-0.106,0.037l-0.018,0.068l-1.807,0.47l-0.105,0.198l-0.092,-0.068l-0.229,-0.037l-0.347,0.185l-0.161,0.774l-0.148,0.371l0.012,0.266l-0.965,0.371l-0.291,0.34h-0.358l0.074,0.798l-0.755,0.477l-0.349,0.64l1.28,1.308l-2.193,7.152l-6.186,2.561l-0.031,0.161l-0.192,0.192l-0.05,0.167l-0.099,0.093l-0.346,-0.007l-0.08,-0.043l-0.05,0.019l-0.266,0.637v0.161l-0.043,0.024l-0.068,-0.018l-0.044,0.031l-0.024,0.08l-0.081,0.019l-0.105,-0.136l-0.068,0.031l-0.031,0.099l0.074,0.179l-0.062,0.21l-0.278,0.341l-0.049,0.222l-0.099,0.062l-0.019,0.198l0.056,0.074l0.086,0.031l0.075,0.161v0.173l0.099,0.118l0.111,0.006l0.074,0.05l0.013,0.08l0.086,0.062l0.223,0.025l0.056,0.08l0.037,0.297l0.105,0.056l0.012,0.086l-0.031,0.105l0.05,0.242l0.161,0.074l0.228,0.501l-0.371,0.229l-0.08,-0.006l-0.105,-0.112l-0.173,0.013l-0.093,0.154l-0.099,0.075l-0.087,0.012l-0.062,0.099l0.037,0.303l-0.049,0.068l-0.149,0.043l-0.08,0.186l0.099,0.155l-0.019,0.068l-0.08,0.043l0.006,0.087l0.167,0.148l-0.031,0.279l-0.272,0.284l-0.13,0.013l-0.037,0.049v0.173l0.136,0.378l0.124,0.024l0.025,0.075l-0.025,0.111l0.111,0.266l-0.018,0.074l-0.099,0.074l-0.062,0.273l0.055,0.099l0.112,0.049l0.297,0.402l0.618,3.316l-1.15,0.767l-0.062,0.254l-0.136,1.194l1.46,2.171l0.13,0.13l0.414,0.6l0.093,0.044l0.019,0.068l-0.044,0.055l-0.123,-0.024l-0.031,0.074l0.037,0.117l-0.068,0.118l-0.093,0.049l-0.013,0.174l0.149,0.21l-0.025,0.068l-0.099,0.025l-0.117,-0.056l-0.149,0.006l-0.315,0.217l-0.136,0.012l-0.124,0.074l-0.037,0.106l-0.056,0.024l-0.13,-0.099l-0.049,0.044l0.043,0.185l-0.056,0.118l-0.105,0.018l-0.241,-0.142l-0.118,0.025l-0.043,0.105l-0.062,0.291l-0.068,0.006l-0.093,-0.087l-0.074,-0.006l-0.068,0.05l-0.105,-0.007l-0.217,-0.414l-0.111,-0.043h-0.34l-0.068,0.061l-0.075,0.007l-0.129,-0.081l-0.069,0.006l-0.123,0.291l-0.18,0.074l-0.167,0.279l0.031,0.136l-0.031,0.148l-0.074,0.056v0.149l0.371,0.253l-0.024,0.043l-0.106,-0.006l-0.099,0.062l-0.117,0.043l-0.161,0.304l-0.025,0.198l0.056,0.074l-0.031,0.043l-0.223,0.037l-0.031,0.062l0.013,0.074l-0.025,0.093l-0.074,0.006l-0.118,-0.074l-0.136,0.012l-0.037,0.106l0.266,0.352l0.043,0.186l-0.055,0.031l-0.217,-0.031l-0.037,0.043l0.08,0.099l-0.018,0.124l-0.136,0.142l-0.248,0.099l-0.093,0.186l-0.049,0.328l0.087,0.105l-0.007,0.136l-0.247,0.124l-0.05,0.494l-0.136,0.452l-0.117,0.105l-0.013,0.074l0.056,0.087l-0.012,0.074l-0.18,0.192l-0.086,0.248l-0.081,0.024l-0.179,-0.024l-0.21,0.061l-0.112,0.242l-0.08,0.037l0.012,0.154l0.05,0.025l-0.025,0.081l-0.136,0.024l-0.112,0.161l-0.074,0.39l-0.291,0.34l-0.123,0.006l-0.056,0.062l0.006,0.161l-0.025,0.087l-0.049,0.018l-0.353,-0.272l-0.068,0.006l-0.148,0.136l-0.019,0.112l0.062,0.049l-0.056,0.173l-0.111,0.05l-0.031,0.068l0.013,0.111l-0.161,0.322l-0.322,0.124l-0.062,0.074l-0.068,0.217l-0.087,0.012l-0.092,-0.068l-0.075,0.018l-0.111,0.205l0.093,0.129l-0.031,0.081l-0.124,0.031l-0.093,0.173l0.106,0.421l-0.065,0.26l0.018,0.102l-0.037,0.074l-0.139,0.065l-0.251,0.612l0.037,0.371l0.149,0.13l0.028,0.223l-0.158,0.418l-0.111,0.065l-0.084,0.222l-0.074,0.065l-0.028,0.177l0.111,0.167l-0.037,0.306l-0.092,0.111l-0.149,0.381l-0.019,0.306l0.075,0.111v0.112l-0.093,0.046l-0.269,-0.009l-0.288,0.093l-0.232,0.278l-0.176,0.037l-0.028,0.084l0.074,0.324l-0.074,0.121l-0.278,0.148l-0.149,0.344l-0.009,0.343l0.083,0.139l0.214,0.075l0.028,0.129l-0.075,0.14l0.028,0.092l0.158,0.121l0.012,0.492l0.106,0.173l-0.007,0.235l-0.049,0.118l0.025,0.309l0.191,0.266l0.093,0.019l0.087,0.099l-0.019,0.204l-0.105,0.291l-0.08,0.068l0.006,0.111l0.099,0.111l0.006,0.223l0.099,0.043l-0.006,0.093l-0.068,0.081l-0.013,0.216l-0.074,0.093l-0.006,0.124l0.043,0.061l-0.031,0.168l-0.117,0.123l-0.031,0.136l0.062,0.081l-0.019,0.13l-0.26,0.253l-0.024,0.087l0.043,0.068l0.08,0.025l0.044,0.062l-0.013,0.08l0.081,0.031l0.117,-0.074l0.248,0.018l0.111,0.099l0.229,0.031l0.08,0.112l-0.012,0.086l-0.093,0.006l-0.031,0.075l0.05,0.123l-0.068,0.223l-0.112,0.031l-0.142,-0.062l-0.087,0.05l-0.031,0.198l0.05,0.092l-0.025,0.093l-0.074,0.062l-0.08,0.353l0.086,0.148l-0.037,0.043l-0.13,-0.024l-0.105,0.043l-0.056,0.124l-0.099,0.062l-0.148,-0.031l-0.124,0.012l-0.074,0.093l-0.118,0.012l-0.105,-0.049l-0.148,0.006l-0.198,-0.142l-0.068,-0.118l-0.192,-0.087l-0.087,0.025l-0.024,0.081l0.123,0.34l0.081,0.068l0.031,0.142l-0.112,0.192l-0.346,0.198l-0.031,0.093l0.062,0.13l-0.087,0.284l-0.093,0.087l-0.105,0.291l-0.093,0.055l-0.061,0.322l0.049,0.037l-0.006,0.068l-0.087,0.056l-0.006,0.216l0.062,0.087l-0.019,0.074l-0.099,0.074l-0.049,0.26l-0.074,0.05l-0.025,0.086l0.074,0.112l-0.031,0.198l-0.099,0.092l-0.161,0.563l0.075,0.186l0.105,0.043l0.025,0.093l-0.044,0.136l0.031,0.192l0.13,0.037l0.031,0.13l-0.056,0.037l-0.216,-0.043l-0.118,0.074l-0.253,0.421l0.006,0.241l-0.223,0.186l-0.08,-0.044l-0.013,-0.185l-0.198,-0.359h-0.074l-0.124,0.179l-0.16,0.118l-0.143,0.39l0.05,0.136l-0.025,0.253l-0.074,0.118l-0.019,0.278l-0.086,0.186l0.024,0.235l0.068,0.08l0.013,0.087l-0.05,0.105l0.025,0.142l-0.025,0.05l-0.093,0.006l-0.043,0.099l0.043,0.111l-0.024,0.137l-0.075,0.123l-0.006,0.198l0.062,0.13l-0.062,0.563l0.05,0.074l0.099,0.037l0.093,0.217l0.16,0.087l0.013,0.074l-0.068,0.049v0.13l0.043,0.062l0.136,-0.018l0.124,0.086l0.037,0.229l-0.043,0.179l0.08,0.415l-0.049,0.155l0.061,0.092l0.161,0.031l0.235,0.186l0.285,0.074l0.254,-0.043l0.241,0.049l0.093,0.161l0.179,0.099l0.161,0.248v0.123l-0.223,0.106l-0.055,0.092v0.186l-0.273,0.179l-0.278,-0.049l-0.118,-0.13l-0.136,0.012l-0.08,0.081l0.012,0.092l0.285,0.112l0.012,0.093l-0.055,0.074l0.099,0.26l0.167,0.062l0.006,0.092l-0.075,0.118l0.081,0.532l-0.124,0.223l0.062,0.086l0.192,0.124l0.179,0.037l0.248,0.241l0.006,0.136l-0.056,0.075l-0.018,0.093l0.08,0.098l-0.018,0.069l-0.093,0.055v0.167l0.303,0.217l0.161,0.031l0.142,0.136l0.118,0.433l-0.007,0.266l-0.049,0.086l-0.13,0.031l-0.087,0.161l0.007,0.149l0.08,0.08l0.08,0.328l-0.037,0.285l0.087,0.179l0.142,0.118l0.056,0.111l-0.006,0.124l0.043,0.043l0.087,0.031l0.21,0.179l0.012,0.167l0.099,0.112l0.229,0.086l0.099,0.13l-0.012,0.093l-0.075,0.043l-0.012,0.093l0.025,0.087l-0.043,0.086l-0.087,0.019l-0.031,0.117l0.043,0.099l-0.031,0.18l-0.105,0.093l-0.278,0.049l-0.056,0.105l0.013,0.081l0.111,0.086l0.025,0.254l-0.05,0.105l0.025,0.074l0.111,0.068v0.087l-0.062,0.08l-0.018,0.316l0.093,0.167l0.123,0.049l0.044,0.081l-0.056,0.136l0.043,0.105l0.124,0.074l0.031,0.062l-0.043,0.099l0.037,0.099l0.093,0.019l0.16,-0.118l0.291,-0.26l0.031,-0.13l0.05,-0.006l0.068,0.161l0.222,0.05l0.136,-0.044l0.093,0.013l0.112,0.086l0.117,0.037l0.186,0.353l-0.025,0.241l-0.093,0.143l-0.136,-0.013l-0.018,0.044l0.092,0.092l-0.031,0.112l-0.086,0.062l-0.019,0.272l-0.086,0.099l-0.013,0.185l-0.055,0.093l-0.137,0.043l-0.068,0.155l0.044,0.223l-0.013,0.124l-0.062,0.179l0.019,0.254l-0.068,0.167l0.012,0.099l0.087,0.061l0.006,0.174l-0.185,0.278l-0.038,0.105v0.087l0.062,0.105l-0.043,0.322l0.068,0.105l0.111,0.062l0.093,0.179l-0.012,0.087l-0.186,0.192l-0.105,0.253l0.031,0.099l0.087,0.037l0.142,-0.074l0.093,0.056l0.092,0.235l0.093,0.049l-0.012,0.093l-0.111,0.062l-0.081,0.198l0.031,0.08l0.087,0.037l-0.007,0.087l-0.129,0.118l-0.031,0.123l-0.068,0.068l0.012,0.093l0.13,0.056l0.322,0.346l0.024,0.167l-0.055,0.217l-0.205,0.105l-0.235,0.043l-0.123,-0.018l-0.056,0.043v0.13l-0.074,0.043l-0.13,-0.043l-0.223,-0.241l-0.13,0.006l-0.204,0.117l-0.093,0.099l-0.006,0.112l0.081,0.111v0.291l-0.05,0.093v0.086l0.099,0.124l-0.031,0.155l-0.192,0.117l-0.08,0.155l-0.248,0.235l-0.148,-0.012l-0.08,0.061l-0.013,0.155l-0.284,0.476l-0.13,0.069l-0.13,0.247l-0.056,0.254l0.056,0.191l-0.05,0.075l-0.117,0.043l-0.118,0.148l-0.018,0.149l-0.075,0.074h-0.167l-0.092,0.124l0.018,0.117l0.241,0.161l0.112,0.006l0.031,0.062l-0.075,0.075l-0.037,0.191l-0.08,0.149l-0.019,0.161l-0.235,0.383l-0.074,0.044l-0.037,0.111l0.031,0.241l-0.062,0.093l-0.136,0.049l-0.043,0.093l-0.013,0.198l-0.056,0.087v0.303l0.081,0.037l0.012,0.08l-0.055,0.062l0.018,0.217l-0.093,0.198l-0.352,0.173l-0.087,-0.019l-0.099,0.025l-0.062,0.074h-0.272l-0.068,-0.055l-0.087,0.006l-0.173,0.192l-0.025,0.167l-0.074,0.179l0.087,0.198l0.352,0.099l0.056,0.081l0.081,0.018l0.185,-0.062l0.18,0.05l0.031,0.136l0.092,0.074l-0.018,0.149l-0.198,0.142l0.006,0.117l0.049,0.031v0.056l-0.061,0.043v0.062l0.105,0.031v0.087l-0.05,0.031l0.006,0.117l0.186,0.13l0.124,0.037l0.173,0.204l-0.037,0.044l-0.111,-0.031l-0.112,0.055l-0.025,0.186l0.106,0.136l0.055,0.278l-0.093,0.149l-0.105,0.019l-0.006,0.074l0.093,0.086l0.056,0.242l0.123,0.08l0.112,0.347l-0.019,0.117l-0.087,0.08l0.031,0.143l0.118,0.099l0.124,-0.013l0.148,0.087l-0.037,0.08l-0.359,0.174l-0.031,0.148l-0.055,0.037l-0.112,-0.025l-0.099,0.062l-0.049,0.254l0.117,0.099l0.229,0.006l0.019,0.05l-0.142,0.16l-0.174,0.069l-0.012,0.099l0.272,0.129l0.012,0.229l0.05,0.081v0.086l-0.198,0.05l-0.087,0.124l-0.043,0.235l0.012,0.377l-0.167,0.142l-0.253,0.062l-0.173,-0.074l-0.124,-0.179l-0.272,-0.075l-0.068,0.075l0.024,0.259l-0.358,0.26l-0.038,0.062l0.031,0.08l-0.049,0.081h-0.186l-0.253,0.21l-0.007,0.074l0.106,0.025v0.155l-0.124,0.161l-0.006,0.167l0.179,0.185l-0.018,0.18l-0.186,0.229l-0.136,0.006l-0.062,-0.155l-0.074,0.013l-0.118,0.142l-0.111,-0.013l-0.149,-0.222h-0.08l-0.136,0.167l-0.136,-0.056l-0.025,-0.086l-0.099,-0.013l-0.049,0.081l0.006,0.395l-0.087,0.093l-0.161,0.019l-0.154,0.173l-0.161,-0.006l-0.297,-0.186l-0.093,0.019l-0.043,0.26l-0.056,0.049l-0.012,0.105l0.062,0.112l-0.013,0.092l-0.056,0.106l-0.006,0.34l0.272,0.408v0.136l-0.123,0.099l-0.217,0.062l-0.105,-0.049l-0.025,-0.186l-0.161,-0.043l-0.061,0.055l-0.013,0.137l0.05,0.129l-0.037,0.279l-0.081,0.117l-0.037,0.347l-0.087,0.074l-0.08,-0.037l-0.068,0.006l-0.074,0.105l0.012,0.087l0.074,0.074l0.205,-0.006l0.092,0.049l-0.006,0.075l-0.167,0.247l0.012,0.155l0.081,0.037l0.254,-0.043l0.061,0.043l-0.086,0.241l-0.192,0.112l-0.229,-0.007l-0.093,-0.062l-0.272,0.013l-0.012,0.056l0.142,0.105l0.229,0.068l0.173,0.328l-0.037,0.117l0.037,0.081l0.105,0.049l0.18,0.272l-0.019,0.087l-0.216,0.099l-0.031,0.185l0.13,0.291l-0.031,0.087l-0.291,0.074l-0.012,0.062l0.037,0.093l-0.167,0.222h-0.186l-0.037,0.069l0.018,0.197l0.168,0.316l0.006,0.093l-0.062,0.074l0.006,0.105l0.173,0.105l0.068,-0.006l0.081,0.074l0.018,0.211l0.155,0.198l0.018,0.253l-0.074,0.248l-0.086,0.062l-0.007,0.055l0.081,0.087l0.031,0.161l-0.031,0.142l-0.111,0.155l-0.18,0.018l-0.136,0.149l-0.099,0.377l0.012,0.118l0.137,0.117l0.216,0.334l-0.006,0.118l-0.081,0.049v0.062l0.242,0.254l-0.006,0.086l-0.205,0.137l-0.117,0.018v0.056l0.093,0.018l0.179,-0.018l0.118,0.055l0.136,0.273l-0.037,0.123l0.006,0.248l0.111,0.105l0.173,0.043l0.075,0.198l-0.044,0.155l0.056,0.229l0.39,0.309l0.055,0.142l-0.055,0.069l-0.303,0.018v0.074l0.296,0.384l-0.006,0.216l-0.13,0.087l-0.061,0.26l0.092,0.124l0.006,0.129l0.075,0.081l0.006,0.111l-0.043,0.074l0.049,0.304l0.068,0.099l0.006,0.476l0.081,0.124l0.105,0.012l0.192,0.21l0.024,0.099l0.18,0.161l0.185,0.056l0.198,0.192l0.019,0.365l0.043,0.074l-0.037,0.111l-0.111,0.044l-0.26,0.247l-0.08,0.204l0.049,0.149l0.087,0.043l-0.05,0.142l-0.074,0.037l-0.093,0.211l-0.105,0.099l-0.359,-0.007l-0.068,0.056l-0.087,-0.006l-0.136,-0.074l-0.167,-0.006l-0.055,0.068l-0.081,0.006l-0.093,-0.081l-0.074,0.007l-0.055,0.142l-0.174,0.043l-0.08,0.118l-0.186,0.037l-0.086,0.093l-0.174,0.012l-0.136,-0.068l-0.086,0.012l-0.124,0.149l-0.019,0.192l-0.247,0.204l-0.167,-0.013l-0.198,0.118l-0.099,0.117l-0.21,0.112l-0.118,0.012l-0.062,0.124l0.006,0.334l0.124,0.315l0.081,0.05l0.031,0.111l-0.099,0.118l-0.007,0.13l0.05,0.099v0.117l-0.062,0.167l-0.006,0.211l0.111,0.136l0.093,0.272l-0.031,0.39l0.043,0.105l0.075,0.025l-0.007,0.086l-0.099,0.068l-0.018,0.093l0.043,0.118l-0.068,0.241l-0.235,0.185l-0.142,-0.006l-0.031,0.068l0.093,0.155l-0.019,0.074l-0.099,0.044l-0.006,0.061l0.074,0.056v0.179l-0.062,0.069l-0.024,0.185l-0.099,0.093l-0.254,0.068l-0.099,0.148l0.012,0.112l0.143,0.136l0.105,0.012l0.111,-0.055l0.062,0.043l-0.037,0.111l0.049,0.149l-0.191,0.247l-0.007,0.093l-0.055,0.025l-0.192,-0.093l-0.124,0.006l-0.093,0.074l-0.117,0.007l-0.167,-0.056l-0.043,-0.142l-0.112,-0.161l-0.142,-0.031l-0.105,-0.136l-0.081,0.012l-0.099,0.155l0.019,0.278l-0.056,0.087l-0.086,0.024v0.069l0.142,0.111l0.031,0.105l0.13,0.056l-0.006,0.062l-0.205,0.049l-0.012,0.068l0.037,0.068l-0.031,0.087l-0.043,0.055l0.074,0.161l0.099,0.05l0.056,0.334l-0.087,0.21l0.019,0.167l0.074,0.074l0.186,-0.03l0.068,0.037l0.006,0.123l0.068,0.025l0.093,-0.018l0.105,0.111l-0.025,0.26l-0.136,0.068l-0.025,0.074l0.05,0.111l-0.019,0.112l-0.068,0.006l-0.062,-0.05l-0.099,0.031l-0.099,0.205l-0.037,0.173l-0.086,0.074l-0.007,0.105l0.13,0.229l-0.024,0.204l-0.124,0.093l-0.149,0.006l-0.235,-0.154l-0.402,-0.081l-0.117,0.062l-0.031,0.111l0.049,0.031l0.081,-0.043l0.055,0.043l0.019,0.173l-0.155,0.266v0.081l0.124,0.062v0.068l-0.149,0.13l0.013,0.123l0.136,0.075l0.167,0.26l0.124,0.049l0.043,0.08l-0.019,0.099l0.093,0.056l0.167,-0.161l0.105,-0.006l0.186,0.155l-0.006,0.192l0.037,0.098l0.087,0.05l-0.007,0.105l-0.179,0.05l-0.062,0.099v0.167l-0.136,0.179l-0.161,0.068l-0.08,-0.037l-0.007,-0.08l-0.061,-0.019l-0.062,0.025l-0.068,-0.013l-0.037,-0.068l-0.118,-0.031l-0.111,0.099l-0.136,0.322l-0.068,0.408l0.055,0.056v0.05l-0.08,0.037l-0.031,0.161l-0.068,0.03l-0.112,-0.024l-0.018,0.049l0.179,0.223l0.056,0.006l0.13,-0.068l0.043,0.031l-0.074,0.155l-0.006,0.142l-0.173,0.291l-0.161,0.086l-0.353,0.353l-0.105,0.049l-0.019,0.155l0.093,0.186l0.173,0.154l-0.012,0.18l-0.056,0.105l0.136,0.266l0.217,0.179h0.093l0.037,0.044l-0.043,0.105l0.074,0.352l-0.013,0.118l-0.154,0.056l-0.118,-0.031l-0.055,0.037l0.018,0.13l0.142,0.08l0.124,0.18l0.025,0.086l0.068,0.062l0.093,0.043l0.074,0.124l-0.006,0.105l-0.124,0.087l-0.025,0.167l0.062,0.124l-0.006,0.21l-0.062,0.056l-0.223,0.068l-0.031,0.086l0.106,0.266l0.099,0.075l0.068,0.185l-0.019,0.087l0.099,0.173l-0.043,0.025l-0.124,-0.124h-0.186l-0.061,0.099l0.037,0.148l0.086,0.056v0.13l-0.123,0.179l-0.081,0.05l-0.006,0.111l0.148,0.124l0.124,0.198l-0.018,0.099l0.068,0.105l0.148,0.062l0.013,0.111l-0.044,0.106l0.025,0.117l0.068,0.062l-0.049,0.148l-0.081,0.068v0.18l0.142,0.161l0.056,0.154l-0.056,0.025l-0.099,-0.049l-0.247,0.216l0.006,0.105l0.167,0.272l0.081,0.019l0.055,0.062l-0.031,0.13l0.044,0.037l0.068,-0.019l0.043,0.025l-0.025,0.099l0.044,0.037l0.086,-0.006l0.043,0.05l-0.074,0.148l0.025,0.068l0.099,0.074l0.087,0.291l0.099,0.08l-0.013,0.044l-0.068,0.031l0.006,0.154l0.093,0.068l-0.006,0.056l-0.26,0.05l-0.025,0.086l0.044,0.087l0.018,0.297l0.105,0.148l-0.006,0.204l-0.111,0.099l-0.006,0.136l0.123,0.335l0.081,0.043l0.068,0.192l0.142,0.061l0.025,0.093l-0.056,0.068l-0.025,0.13l0.062,0.18l-0.031,0.148l-0.086,0.043l-0.173,0.019l-0.031,0.118l-0.328,0.117l-0.118,-0.031l-0.192,0.006l-0.259,0.26l-0.093,-0.012l-0.18,-0.198l-0.018,-0.087l-0.18,-0.105l-0.111,0.006l-0.111,-0.049l-0.105,-0.087l-0.161,-0.062l-0.118,0.056l-0.012,0.068l0.093,0.08l-0.044,0.05l-0.303,-0.006l-0.043,0.055h-0.068l-0.217,-0.105l-0.074,0.019l-0.062,0.161l0.013,0.13l0.185,0.129l-0.006,0.093l-0.062,0.05l0.006,0.074l0.075,0.074l-0.007,0.081l-0.068,0.055v0.112l0.174,0.181l0.116,0.241l-0.024,0.065l-0.069,0.042l0.028,0.38l0.12,0.135l0.144,-0.014l0.056,-0.079h0.074l0.056,0.06l0.208,0.079l0.01,0.153l-0.079,0.167l0.004,0.088l0.181,0.228v0.102l-0.083,0.083l-0.037,0.158l-0.121,0.149l-0.014,0.157l-0.055,0.047l-0.112,-0.01l-0.162,0.246l-0.098,0.051v0.163l0.112,0.046l-0.005,0.098l-0.195,0.264l-0.116,0.014l-0.111,-0.051l-0.056,0.023l-0.028,0.144l0.075,0.088l0.19,0.065l0.028,0.139l-0.056,0.084v0.074l0.07,0.065v0.167l-0.089,0.148l-0.092,0.024l-0.01,0.181l0.204,0.371l0.079,0.055v0.056l-0.143,0.07l0.009,0.102l0.139,0.144l0.009,0.092l0.149,0.116l0.148,0.024l0.204,0.329l-0.004,0.116l0.153,0.172l0.26,0.116l0.097,-0.014l0.167,0.111l0.028,0.176l-0.042,0.098l0.056,0.097l0.176,0.024l0.093,0.065l0.019,0.088l0.06,0.041l0.125,0.005l0.042,0.037l-0.023,0.051l0.041,0.037l0.214,0.024l0.278,0.162l0.079,-0.005l0.149,0.093l0.079,0.13l-0.01,0.088l-0.097,0.181l-0.005,0.274l0.084,0.125l0.014,0.232l-0.051,0.098h-0.079l-0.098,-0.135l-0.093,-0.028l-0.102,0.014l-0.13,0.181l-0.139,0.088l-0.148,0.005l-0.232,-0.107l-0.056,0.019l0.009,0.139l0.061,0.144l-0.023,0.167l-0.103,0.055l-0.111,-0.009l-0.032,0.07l0.111,0.209l-0.111,0.236l0.023,0.079l0.158,-0.005l0.116,-0.046l0.106,0.056l0.144,0.213l-0.046,0.116l-0.191,0.06l0.005,0.061l0.093,0.041v0.052l-0.046,0.055l0.004,0.13l0.07,0.037l0.264,-0.014l0.177,-0.088l0.139,0.019l0.097,0.116l0.033,0.19l0.083,0.046l0.241,-0.009l0.028,0.051l-0.018,0.13l0.046,0.135l0.084,0.032l0.204,-0.051l0.26,0.023l0.167,0.098l0.092,0.12l-0.018,0.135l-0.06,0.069l-0.103,-0.004l-0.023,0.051l0.065,0.074l-0.018,0.06l-0.158,0.01l-0.014,0.051l-0.042,0.004l-0.116,-0.041l-0.06,0.051l0.005,0.097l-0.056,0.033l-0.098,-0.005l-0.092,0.042l-0.037,0.116l-0.214,0.283l-0.097,0.065l-0.024,0.102l0.028,0.088l-0.065,0.204l0.037,0.097l0.126,0.084h0.13l0.065,0.083l0.014,0.219l0.083,0.078l0.162,0.028l0.103,0.126l-0.01,0.227l-0.106,0.176l-0.089,0.033l-0.083,0.241l-0.135,0.162l-0.041,0.214l-0.158,0.213l-0.019,0.116l-0.097,0.13l-0.121,0.051l-0.25,0.014l-0.084,-0.046h-0.056l-0.069,0.069l-0.009,0.246l0.102,0.125l0.078,0.014l0.205,0.223l0.023,0.158l0.102,0.028l-0.005,0.046l-0.148,0.093l-0.033,0.204l-0.102,0.033v0.046l0.107,0.028l0.102,0.278l0.033,0.181l-0.024,0.074l-0.283,0.102l-0.014,0.07l0.116,0.274l0.075,0.051l0.014,0.055l-0.038,0.103l0.051,0.032l0.335,-0.148l0.088,0.009l0.144,-0.079l0.032,-0.084l0.088,0.019l0.065,0.121l0.116,0.06l0.121,0.005l0.125,-0.075h0.274l0.097,0.056l0.26,0.019l0.13,-0.098l0.107,-0.004l0.055,0.027h0.084l0.074,-0.069l0.065,-0.005l0.07,0.051l0.143,-0.014l0.228,-0.065l0.171,0.028l0.093,0.116l0.01,0.139l0.051,0.023l0.065,-0.023l0.129,0.065l0.07,-0.032l0.209,-0.005l0.12,-0.051l0.093,0.009l0.093,0.112l0.06,0.028l0.084,-0.019l0.121,0.051l0.111,0.009l0.246,0.223l-0.005,0.051l-0.102,0.07l-0.074,0.088l0.009,0.056l0.102,0.055l0.121,0.023l0.218,0.181l-0.009,0.098l-0.051,0.046l-0.005,0.056l0.023,0.042l-0.037,0.111l0.056,0.093l-0.014,0.032l-0.107,0.042l-0.102,0.005l-0.088,-0.042l-0.135,0.005l-0.079,0.041l-0.148,-0.041l-0.023,0.032l0.028,0.06l-0.107,0.144l-0.014,0.098l-0.102,0.088v0.097l0.116,0.158l0.102,0.042l0.005,0.06l-0.075,0.102l-0.032,0.121l0.079,0.06l-0.005,0.135l-0.046,0.129l-0.102,0.103l-0.084,0.032l-0.093,0.139l-0.004,0.102l-0.093,0.079l-0.186,0.023l-0.074,-0.037l-0.116,0.014l-0.074,-0.032l-0.074,-0.093h-0.14l-0.051,0.028l-0.134,-0.033l-0.223,-0.213l-0.005,-0.056l-0.064,-0.046l-0.084,-0.01l-0.084,-0.06l-0.027,-0.06l-0.186,-0.005l-0.444,0.152l-0.08,-0.022l-0.118,0.034l-0.046,0.146l-0.39,0.089l-0.08,-0.031l-0.031,-0.099l-0.118,-0.043l-0.117,0.031l-0.328,-0.062l-0.118,-0.062l-0.099,0.006l-0.192,0.13l-0.006,0.093l0.087,0.05l-0.037,0.055l-0.235,0.044l-0.217,-0.044l-0.185,-0.148l-0.075,0.037l0.025,0.142l-0.062,0.031l-0.161,-0.124l-0.179,-0.037l-0.08,0.025l-0.081,-0.037l-0.043,-0.179l-0.074,-0.013l-0.062,0.05l-0.161,-0.031l-0.056,0.049l-0.018,0.167l0.222,0.112l-0.006,0.117l-0.148,0.223l0.012,0.08l0.111,0.056l-0.012,0.062l-0.13,0.068l0.012,0.062l0.137,0.154l0.154,-0.031l0.217,0.05l0.031,0.111l0.08,0.044l0.118,0.012l0.105,0.093l0.006,0.08l0.093,0.05l0.192,0.012l0.043,0.056l0.056,0.006l0.099,-0.105l0.03,-0.105l0.236,-0.099l0.16,0.074l0.019,0.074l0.074,0.031l0.087,-0.099h0.08l0.056,0.179l0.074,0.044h0.204l0.143,0.093l0.136,0.043l0.377,-0.013l0.08,0.044l0.198,0.037l0.106,0.142l-0.056,0.167l0.025,0.124l0.272,0.235l0.043,0.136l-0.105,0.161l0.006,0.043l0.142,0.025l0.112,0.161l-0.05,0.111l0.037,0.044h0.081l0.284,0.129l0.161,0.254l0.167,0.13l0.044,0.099l0.062,0.068l0.105,0.025l0.068,0.074l0.012,0.118l-0.105,0.086l0.019,0.068l0.117,0.062l0.043,0.124l-0.092,0.216l-0.248,0.204l-0.458,0.161l-0.018,0.118l0.074,0.099l-0.037,0.043l-0.155,-0.08l-0.408,0.043l-0.056,0.136l0.068,0.13l-0.055,0.074l0.037,0.068l0.086,0.025l0.05,0.087l0.012,0.086l0.068,0.075l0.155,0.068l0.006,0.086l-0.476,0.229l-0.415,0.012l-0.068,-0.08h-0.136l-0.068,0.056h-0.167l-0.08,-0.037l-0.056,0.031v0.111l-0.124,0.056l-0.167,0.012l-0.204,0.179l-0.006,0.099l0.062,0.05l0.161,-0.013l0.024,0.075l-0.185,0.266l-0.112,0.012l-0.043,0.074l0.025,0.13l-0.037,0.118l-0.081,0.043l0.006,0.068l0.137,0.093v0.117l-0.168,0.186l0.019,0.111l0.161,0.118l0.117,0.247l-0.043,0.068l0.019,0.062l0.105,0.044v0.086l-0.155,0.266l0.043,0.081l0.267,0.043l0.395,0.21l0.062,0.118l0.013,0.161l0.198,0.247l0.031,0.254l-0.062,0.031l-0.075,-0.025l-0.061,0.043l-0.025,0.223l-0.105,0.148l-0.031,0.124l-0.18,0.192h-0.068l-0.043,0.056l0.006,0.111l-0.099,0.043l-0.124,-0.018l-0.074,0.049l-0.049,0.118l-0.118,0.074l-0.161,-0.012l-0.043,-0.062h-0.105l-0.118,0.068l-0.259,0.056l-0.143,0.117l-0.018,0.136l0.086,0.074l0.105,-0.006l0.112,0.18l0.086,0.043l0.248,0.037l0.111,-0.049l0.13,0.074l0.037,0.099l0.118,0.099l0.086,0.328l0.112,0.074l-0.019,0.216l-0.179,0.365l0.569,1.522l-0.019,0.155l0.056,0.309l-0.018,0.229l0.105,0.198l0.031,0.371l-0.05,0.075l-0.254,0.08l-0.074,0.105l-0.315,0.235l-0.037,0.112l-0.532,0.346l-0.198,0.043l-0.285,-0.037l-0.272,0.093l-0.019,0.087l0.136,0.154l-0.006,0.254l-0.235,0.278l0.006,0.211l0.087,0.235l-0.025,0.123l0.062,0.05l0.124,-0.006l0.043,0.049l-0.025,0.093l0.056,0.037l0.118,-0.012l0.111,0.099l-0.019,0.161l-0.173,0.235l-0.241,0.111v0.111l0.464,0.205l0.13,0.185l-0.006,0.149l0.068,0.105l-0.025,0.068l-0.173,0.055l-0.037,0.112l-0.007,0.223l0.155,0.111l-0.037,0.049l-0.532,-0.173l-0.18,-0.012l-0.235,-0.112l-0.012,0.031l0.093,0.118l-0.019,0.142l-0.068,0.081v0.099l0.112,0.235l-0.019,0.123l-0.247,0.198l-0.056,0.155l-0.149,0.012l-0.123,-0.061l-0.273,-0.025l-0.08,0.086l-0.006,0.198l-0.118,0.13l-0.031,0.112l-0.198,0.167l-0.136,-0.019l-0.08,-0.062l-0.13,0.025l-0.229,0.148l-0.031,0.149l-0.105,0.062l-0.235,0.018l-0.037,0.093l0.105,0.136l0.136,0.031l0.074,0.155l0.013,0.155l-0.198,0.34l-0.013,0.167l0.105,0.093l-0.012,0.049l-0.105,0.062l-0.111,0.235l-0.093,0.05l-0.155,-0.013l-0.142,0.142l-0.112,0.322l-0.179,0.099l-0.025,0.124l0.112,0.124l-0.037,0.08l-0.155,-0.006l-0.062,0.105h-0.142l-0.136,-0.093l-0.05,0.031l0.019,0.081l0.123,0.08l0.068,0.266l0.143,0.148l-0.05,0.434l-0.154,0.105l-0.136,0.26l-0.031,0.216l0.167,0.186l0.451,0.049l0.062,0.087l0.006,0.26l-0.123,0.501l0.136,0.092l0.34,-0.006l0.062,0.05l0.006,0.161l0.21,0.167l0.161,0.21l0.006,0.136l-0.055,0.093l-0.007,0.272l-0.074,0.08l-0.006,0.099l0.229,0.341l0.383,0.439l-0.012,0.093l-0.068,0.093l-0.012,0.099l-0.198,0.086l-0.303,-0.006l-0.143,-0.099l-0.222,0.012l-0.025,0.062l0.056,0.155l0.173,0.093v0.074l-0.235,0.062l-0.161,0.142v0.105l0.167,0.112l0.006,0.105l-0.118,0.266l-0.303,0.235l-0.365,0.025l-0.173,-0.106l-0.043,-0.123l-0.112,-0.05l-0.235,0.025l-0.043,0.068l0.074,0.087l0.13,0.457l-0.025,0.161l0.013,0.112l0.093,0.179l0.055,0.526l0.007,0.396l-0.031,0.161l0.012,0.148l0.068,0.149l-0.037,0.272l-0.186,0.192l-0.235,0.092l-0.204,0.229l-0.117,0.044h-0.242l-0.062,0.105l-0.006,0.148l-0.136,0.081l-0.167,0.006l-0.111,0.093l-0.068,0.266l-0.143,0.16l-0.08,0.007l-0.043,-0.044l-0.093,-0.006l-0.043,0.043l-0.118,-0.006l-0.087,-0.049v-0.093l-0.08,-0.025l-0.173,0.006l-0.112,-0.068l-0.099,-0.006l-0.117,0.081l-0.093,0.29l-0.148,0.075l-0.056,0.099l0.062,0.179l-0.031,0.068l-0.111,0.012l-0.038,0.093l0.056,0.124l-0.031,0.056l-0.173,0.049l-0.155,0.266l-0.012,0.186l-0.031,0.062l-0.118,0.043l-0.037,0.043l0.006,0.068l-0.03,0.044h-0.081l-0.074,0.055l-0.062,0.118l-0.13,0.093l-0.018,0.142l0.049,0.056v0.092l-0.062,0.075l-0.006,0.179l0.068,0.124l-0.093,0.117l-0.012,0.13l-2.104,-0.687l-0.049,0.149l-0.087,0.148l-0.037,0.236l0.322,0.259l0.198,0.198v0.26l-0.099,0.359l-0.248,0.148l-0.086,0.223l0.086,0.359l-0.098,0.161l-0.335,0.049l-0.074,0.161l0.037,0.322l0.248,0.173l0.21,0.247l0.05,0.186l-0.025,0.21l-0.173,0.137l-0.075,0.272l0.174,0.21l0.173,0.309v0.334l-0.223,0.198l-0.037,0.161l0.05,0.124l-0.137,0.235l-0.222,0.037l-0.149,0.229l0.037,0.118l0.174,0.018l0.111,0.099l-0.006,0.081l-0.204,0.142l-0.124,0.192l0.012,0.111l0.161,0.124l0.248,0.062l0.009,0.108l0.102,0.093l-0.037,0.185l-0.158,0.047l-0.046,0.241l0.065,0.232l0.232,0.176l0.204,0.037l0.083,0.102l-0.028,0.14l-0.13,0.157l0.019,0.167l0.158,0.056l0.399,0.418l-0.251,0.278l-0.176,0.065l-0.009,0.195l0.148,0.111l0.149,-0.046l0.065,0.046l-0.056,0.186l0.139,0.204l0.009,0.223l0.037,0.287l0.084,0.065v0.093l-0.111,0.046l-0.019,0.121l0.186,0.316l0.315,0.259l0.149,0.047l0.195,0.037l0.25,0.13l0.306,0.353l-0.018,0.185l-0.251,0.473l0.028,0.14l0.176,0.12l0.047,0.112l-0.325,0.315l0.042,0.07l0.306,-0.256l0.339,-0.116l0.162,0.075l0.088,-0.01l0.135,-0.19l0.083,-0.023l0.149,0.028l0.362,-0.195l0.079,-0.264l0.083,-0.061l0.093,0.009l0.065,-0.06l0.032,-0.134l0.088,-0.093h0.089l0.167,-0.135l0.181,-0.028l0.269,-0.167l0.241,-0.032l0.074,-0.093l0.056,0.005l0.051,0.125l0.102,0.121l0.06,0.018l0.042,-0.023l0.056,0.014l0.041,0.097l0.116,0.024l0.075,-0.033l0.157,0.051l0.042,0.107l0.112,0.056h0.106l0.024,-0.047l-0.038,-0.116l0.033,-0.116l0.102,-0.032l0.056,-0.158l0.069,-0.065l0.237,-0.046l0.093,-0.098h0.083l0.135,0.107l0.227,0.037l0.065,0.042l0.009,0.065l0.088,0.018l0.237,-0.134l0.098,0.032l0.069,0.107l0.009,0.107l0.098,0.06l0.13,-0.014l0.083,0.037l0.01,0.079l-0.065,0.158l-0.005,0.139l-0.139,0.144l-0.107,0.018l-0.06,0.121l-0.019,0.153l0.047,0.088l0.088,0.047l0.306,0.343l0.083,0.195l0.07,0.065l0.009,0.065l-0.051,0.134l0.037,0.107l0.061,0.028l0.009,0.051l-0.037,0.051v0.046l0.051,0.061l-0.009,0.097l-0.051,0.07l-0.051,0.278l-0.019,0.71l-0.06,0.009l-0.075,-0.042l-0.278,-0.037l-0.083,0.028l-0.089,-0.009l-0.046,-0.042h-0.079l-0.014,0.492l-0.111,0.042l-0.102,0.134l0.037,0.297l0.134,0.195l0.144,0.098l0.084,0.176l0.004,0.13l0.084,0.079l0.135,0.009l0.064,-0.056h0.038l0.102,0.19l0.171,0.14l0.005,0.097l-0.056,0.06v0.093l0.019,0.042l-0.042,0.07l-0.162,0.027l-0.079,0.079l-0.023,0.088l-0.102,0.065l-0.177,0.024l-0.079,0.065l-0.041,0.106l0.041,0.065l0.14,0.051l0.065,-0.028l0.078,0.024l0.075,0.153l0.009,0.283l-0.028,0.055l-0.083,0.024l-0.07,0.12l-0.028,0.288l0.111,0.125l-0.009,0.056l-0.125,0.028l-0.051,0.06l-0.005,0.107l0.051,0.181l-0.074,0.051l-0.204,-0.074l-0.102,-0.005l-0.009,0.037l0.078,0.046l-0.014,0.051l-0.106,0.033l-0.125,0.172l-0.084,0.232l0.037,0.051l0.214,0.009l0.078,0.06l0.061,-0.009l0.004,-0.06l0.037,-0.01l0.056,0.024l0.172,-0.033l0.097,0.033l0.037,0.078l0.042,0.256l0.079,0.046h0.084l0.037,0.051l-0.037,0.093l0.004,0.213l-0.065,0.135l0.019,0.102l0.153,0.06l0.209,-0.028l0.134,0.028l0.204,0.116l0.186,0.047v0.046l-0.111,0.028v0.042l0.157,0.06l0.186,0.018l0.088,0.079l0.005,0.093l0.069,0.042l0.158,0.014l0.023,0.032l-0.018,0.037l0.023,0.033l0.097,0.018l0.237,0.2l0.251,0.297l0.097,0.172l0.139,0.083l0.07,0.167l-0.005,0.135l0.074,0.074l-0.018,0.037l-0.102,0.009l-0.167,0.088l-0.126,0.126l-0.259,0.139l0.004,0.056l0.144,0.106l0.093,0.014l0.13,-0.074l0.107,0.051l0.027,0.093l0.061,0.037h0.074l0.088,0.074h12.727l3.364,1.35h1.958l0.733,0.297l0.585,0.144l0.974,0.654l0.868,0.07l0.793,0.19l0.097,0.163l1.007,0.069v0.483l-0.083,0.083h0.037l0.134,-0.111l0.163,-0.265l0.176,-0.134l0.009,-0.149l-0.677,-0.914l-0.742,-0.816l-1.068,-1.401l-0.222,-0.39l-0.177,-0.492l-0.501,-0.947l-0.343,-0.464l-0.158,-0.334l-0.046,-0.25l-0.158,-0.204l-0.213,-0.112l-0.13,0.019l-0.102,0.121l-0.334,0.139l-0.307,0.315l-0.389,0.093l-0.121,0.084l-0.074,-0.028l0.093,-0.139l0.241,-0.084l0.195,-0.204l-0.01,-0.084l-0.315,-0.092l-0.715,-0.288l-0.454,-0.028l-0.464,0.158h-0.52l-0.204,0.083l-0.093,-0.018l0.297,-0.195l0.687,-0.232l0.38,-0.084l0.409,0.038l0.788,0.361l0.297,0.056l0.214,-0.111l0.185,-0.177l0.214,-0.092l0.25,0.018l0.139,0.121l0.103,-0.019l0.074,-0.26l-0.047,-0.241l-0.324,-0.714l-0.158,-0.706l-0.306,-1.16l-0.149,-0.361l-0.176,-0.557l-0.211,-1.019l-0.194,-0.116l-0.285,0.123l-0.668,0.495l-0.285,0.285h-0.111l0.148,-0.31l0.483,-0.544l0.483,-0.285l0.548,-0.434l0.064,-0.292l0.019,-0.455l-0.075,-0.455l-0.009,-0.417l0.084,-0.316l0.157,-0.288l0.102,-0.297l0.075,-0.51l0.241,-0.501l0.176,-0.232l0.121,-0.195l0.102,-0.26l0.408,-0.454l0.121,-0.038l0.102,-0.092l-0.009,-0.112l0.12,-0.139l0.631,-0.334l1.105,-0.38l1.317,-0.511l0.232,-0.213l0.019,-0.139l-0.139,-0.121l-0.659,-0.325l-0.214,-0.362l0.01,-0.232l-0.112,-0.204l-0.315,-0.25h-0.121l-0.223,0.148l-0.194,0.065l-0.26,-0.074l-0.492,-0.065l-0.297,0.018l-0.195,-0.074h-0.176l-0.18,0.09l-0.071,-0.006l0.121,-0.149l0.287,-0.028l0.14,0.047l0.269,-0.01l0.158,-0.055l0.176,-0.009l0.25,0.055l0.242,-0.028l0.491,-0.204l0.075,-0.093l-0.019,-0.204l-0.176,-0.529l-0.105,-0.191l0.021,-0.059l0.121,0.102l0.334,0.575l0.065,0.214l0.074,0.148l0.223,0.13l0.213,0.297l0.288,0.622l0.362,0.343l0.074,0.148l0.13,0.065l0.418,0.01l0.464,-0.019l0.659,-0.223l0.668,-0.343l0.835,-0.612l0.519,-0.836l0.399,-1.02l0.084,-0.78l0.148,-1.113l0.186,-1.17l0.269,-0.575l0.176,-0.51l-0.046,-0.232l-0.083,-0.037l-0.167,0.046l-0.121,0.139l0.018,0.139l-0.037,0.103l-0.102,0.046l-0.037,0.102l0.074,0.139l-0.111,0.279l-0.158,0.157l-0.269,0.028l-0.167,0.093l-0.25,-0.009l-0.065,-0.093l0.102,-0.084h0.139l0.083,-0.037l-0.092,-0.111l-0.019,-0.204l0.186,-0.158l0.287,-0.046l0.056,-0.065l-0.102,-0.158l0.037,-0.139l0.288,-0.14l0.093,-0.129v-0.13l0.055,-0.149l0.232,-0.093l0.093,-0.139l-0.009,-0.139l-0.13,-0.139l0.037,-0.186l0.167,-0.158l0.13,-0.222l0.028,-0.195l0.148,-0.297l0.548,-0.585l0.473,-0.38l0.668,-0.362l0.445,-0.139l0.223,-0.204l0.065,-0.27l0.102,-0.241l0.167,-0.139l0.056,-0.148l0.028,-0.195l0.13,-0.223l0.761,-0.529l0.315,-0.093l0.362,-0.028l0.204,-0.176l0.074,-0.232l0.353,-0.473l0.52,-0.39l0.584,-0.288l0.91,-0.129l0.195,-0.168l0.037,-0.278l0.167,-0.093l0.343,-0.046l0.232,0.093l0.084,-0.056l-0.121,-0.251l0.074,-0.204l0.269,-0.306l0.149,-0.065l0.148,-0.121l0.028,-0.139l0.186,-0.167l0.389,-0.083l0.186,-0.195l0.084,-0.241l0.259,-0.232l0.78,-0.093l0.325,0.056l0.111,-0.103l-0.028,-0.12l-0.269,-0.139l-0.056,-0.167l0.158,-0.39l-0.083,-0.241l0.139,-0.251l0.222,-0.056l0.279,0.075l0.046,0.12l0.112,0.047l0.287,-0.065l0.037,-0.065l-0.074,-0.065l0.056,-0.13l0.083,-0.028v-0.084l-0.12,-0.037l-0.279,-0.046l-0.157,-0.186l-0.028,-0.278l-0.186,-0.575l-0.185,-0.093l-0.511,0.009l-0.325,0.074l-0.269,0.307l-0.798,0.232l-0.399,0.232l-0.287,0.046l-0.232,-0.028l-0.14,-0.121l0.334,0.056l0.242,-0.037l0.352,-0.232l0.798,-0.269l0.399,-0.427l0.26,-0.037l0.705,0.102l0.214,-0.028l0.139,-0.195l0.334,-0.863l0.306,-0.946l0.14,-1.281l-0.01,-0.417l-0.204,-0.622l0.056,-0.167l-0.009,-0.093l-0.251,-0.176l-0.343,-0.334l-0.084,-0.186l-0.158,-0.13l-0.222,-0.037l-0.186,-0.102l-0.241,-0.074l-0.464,-0.028l-0.455,0.111l-0.622,0.01l-0.974,-0.14l-0.501,-0.167l-0.492,-0.046l-0.26,0.046l-0.362,-0.055l-0.176,0.018l-0.148,-0.037l-0.047,-0.074l-0.093,-0.019l-0.092,0.037l-0.195,-0.018l-0.538,-0.306l-0.539,-0.511l-0.362,-0.445l-0.232,-0.279l-0.315,-0.157l-0.418,-0.436l-0.334,-0.455l-0.195,-0.158l-0.25,-0.046l-0.204,-0.14l-0.084,-0.167l-0.204,-0.102l-0.353,-0.083l-0.38,-0.251l-0.343,-0.362l-0.399,-0.816l-0.353,-0.64l-0.325,-0.789l-0.148,-0.687l-0.047,-0.9l0.075,-0.325l0.129,-0.111l0.075,-0.177v-0.176l0.148,-0.241l0.13,-0.065l0.028,-0.074l-0.046,-0.093l0.009,-0.111l0.223,-0.335l0.352,-0.528l0.371,-0.27h0.177l0.065,-0.074l-0.13,-0.325l0.055,-0.111l0.186,-0.046l0.037,-0.065l-0.102,-0.13l-0.028,-0.269l0.065,-0.279l0.446,-0.547l0.352,-0.26l0.176,-0.195l0.335,-0.566l0.668,-0.872l0.677,-0.585l0.705,-0.26l0.26,0.019l0.687,-0.065l0.204,-0.102l0.659,0.009l0.223,0.084l0.111,-0.037l-0.019,-0.14l-0.157,-0.13l-0.362,-0.111l-0.056,-0.139l0.065,-0.093l0.251,0.046l0.334,0.149l0.176,0.009l0.074,-0.111l-0.056,-0.074l-0.167,0.046l-0.222,-0.065l-0.047,-0.148l0.102,-0.167l0.149,-0.028l0.111,-0.047l0.084,-0.111l0.408,-0.195l0.408,-0.093l0.297,0.037l0.251,-0.102l0.343,-0.315l0.353,-0.084l0.668,0.065l0.455,0.158l0.232,0.204h0.222l0.214,-0.111l0.055,-0.204l0.214,-0.019l0.13,0.111l0.009,0.149l0.084,0.028l0.204,-0.093l0.269,0.019l0.167,0.139l0.334,0.018l0.325,-0.111l0.074,-0.074l-0.102,-0.13l0.065,-0.056l0.139,0.009l0.028,-0.074l-0.084,-0.13l0.065,-0.13l0.372,-0.241v-0.121l-0.632,-0.259l-0.296,-0.01l-0.27,-0.148l-0.083,-0.279l0.056,-0.185l0.083,-0.074l0.093,-0.13l0.018,-0.353l0.168,-0.371l0.361,-0.408l0.52,-0.279l0.278,-0.065l0.112,-0.111l0.028,-0.084l0.083,-0.083h0.26l0.139,0.102l0.149,-0.009l0.065,-0.084l-0.177,-0.148l0.047,-0.102l0.111,-0.019l0.028,-0.065l-0.074,-0.046l0.046,-0.112l0.204,-0.055l0.241,0.083l0.084,-0.093l-0.028,-0.12l-0.102,-0.047l-0.102,-0.213l0.13,-0.269l0.25,-0.288l0.149,-0.046l0.13,-0.177l-0.037,-0.167l-0.149,-0.157l-0.148,-0.409l-0.139,-0.185l-0.075,-0.297l0.028,-0.306l0.177,-0.251l0.287,-0.046l0.056,-0.112l-0.084,-0.167v-0.232l0.204,-0.297l-0.027,-0.065l-0.158,0.028l-0.121,-0.102l-0.009,-0.232l0.102,-0.139l-0.037,-0.074l-0.251,-0.065l-0.176,-0.353l-0.121,-0.696l0.065,-0.269l-0.055,-0.121l-0.112,-0.037l-0.074,-0.12l-0.018,-0.26l0.167,-0.622l0.473,-0.631l0.223,-0.167l0.194,-0.176l0.13,-0.204l0.297,-0.372l0.566,-0.547l0.028,-0.111l-0.111,-0.167v-0.149l0.195,-0.306l0.371,-0.39l0.742,-0.492l1.132,-0.519l1.457,-0.464l0.381,-0.279l0.594,-0.306l0.065,-0.167l-0.13,-0.269l-0.121,-0.019l-0.288,0.139l-0.575,-0.037l-0.148,-0.037l-0.065,-0.102l-0.353,-0.111l-0.353,0.046l-0.519,-0.195l-0.112,-0.157l-0.668,-0.297l-0.167,-0.01l-0.25,-0.083l-0.112,-0.121l-0.389,-0.195l-0.381,-0.083l-0.195,-0.241l0.028,-0.195l0.204,-0.186l0.093,-0.158l-0.028,-0.111l0.158,-0.251l0.39,-0.167l0.343,0.01l0.186,-0.056l0.417,-0.436l0.613,-0.381l0.603,-0.102l0.844,0.102l0.696,0.223l0.214,0.186l-0.019,0.139l0.093,0.074l0.167,-0.018l0.093,0.083l-0.037,0.121l0.065,0.065l0.176,-0.01l0.093,0.047l0.009,0.13l-0.186,0.399l-0.009,0.213l-0.056,0.26l0.019,0.232l0.297,0.297l0.362,0.455l0.232,0.074l0.25,-0.009l0.975,-0.288l0.798,-0.167l0.547,-0.074l0.576,-0.344l0.046,-0.185l-0.037,-0.307l0.176,-0.538l0.167,-0.241v-0.241l-0.102,-0.223l-0.065,-0.594l-0.018,-0.52l0.12,-0.408l-0.009,-0.325l-0.213,-0.399l-0.399,-0.566l-0.232,-0.631l-0.177,-0.287l-0.13,-0.075l-0.454,0.028l-0.733,0.279l-0.492,0.371l-0.724,0.297l-1.021,0.148l-0.427,0.149v0.092l0.325,0.047l0.39,-0.084l0.343,0.056l0.427,-0.056l0.353,0.14l0.185,0.232l0.019,0.259l-0.074,0.065l-0.019,0.084l0.074,0.12l-0.065,0.242l-0.38,0.306l-0.177,0.028l-0.232,-0.037l-0.575,-0.019l-0.223,-0.056l-0.167,0.019l-0.566,0.195l-0.259,-0.019l-0.121,-0.074l-0.13,-0.018l-0.371,0.027l-0.325,-0.027l-0.102,-0.112v-0.13l0.269,-0.362l0.037,-0.222l0.139,-0.204l0.223,-0.14l0.167,-0.157l0.065,-0.121l-0.074,-0.046l-0.399,0.009l-0.678,-0.074l-0.241,-0.075l-0.752,-0.148l-0.371,-0.074l-0.482,-0.26l-0.436,-0.344l-0.325,-0.426l-0.186,-0.464l0.019,-0.501l0.074,-0.39l0.084,-0.084l0.018,-0.093l-0.037,-0.139l0.056,-0.12l0.12,-0.028l0.037,-0.084l-0.037,-0.12l0.037,-0.121l0.065,-0.084l0.028,-0.139l-0.13,-0.213l-0.046,-0.316l0.028,-0.491l0.139,-0.409l-0.019,-0.13l0.028,-0.111l0.074,-0.102l0.01,-0.111l-0.075,-0.242l-0.194,-0.148l-0.13,-0.149l-0.223,-0.575l-0.26,-0.909l-0.158,-0.659l0.019,-0.371l-0.046,-0.734l-0.093,-0.556l0.083,-0.427l0.112,-0.121l0.046,-0.176l-0.009,-0.111l0.148,-0.232l0.362,-0.335l0.343,-0.194l0.307,-0.047l0.222,0.047l0.075,-0.047l-0.102,-0.139l-0.232,-0.102l0.046,-0.074l0.436,-0.019l0.501,0.121l0.139,0.093l-0.074,0.185l-0.241,0.158l-0.399,0.121l-0.056,0.092l0.112,0.112l0.213,0.028l0.575,-0.065l0.436,0.055l0.956,0.297l0.483,0.241l0.965,0.381l0.881,0.473l0.372,0.084l0.204,-0.056l0.065,-0.102l-0.065,-0.074v-0.093l0.222,0.018l0.075,0.205l-0.084,0.102l0.037,0.185l0.696,0.232l0.325,0.186l0.158,0.232l0.185,0.111l0.316,0.084l0.213,0.093l0.242,0.018l0.649,-0.028l1.401,0.047l0.511,-0.084l0.492,0.009l0.371,0.047l0.789,-0.037l0.575,-0.158l0.399,-0.232l0.835,-0.316l0.325,-0.259l0.13,-0.028l0.232,0.074l0.232,-0.019l0.454,-0.306l1.021,-0.473l0.474,-0.102l0.556,-0.316l0.195,-0.204l0.306,-0.993l0.242,-0.445l0.195,-0.158l0.111,-0.195l0.018,-0.204l-0.092,-0.223l-0.353,-0.232l-0.223,-0.046l-0.278,-0.121l-0.046,-0.111l-0.121,-0.121h-0.139l-0.214,-0.102l-0.195,-0.213v-0.111l-0.046,-0.112l-0.093,-0.083l-0.093,-0.269l0.065,-0.418l0.195,-0.26l0.186,-0.362l-0.009,-0.158l0.361,-0.334l0.056,-0.269l-0.111,-0.297l0.009,-0.473l0.102,-0.232l-0.018,-0.408l0.083,-0.594l0.139,-0.121l0.316,0.019l0.362,-0.065l0.278,0.009h0.176l0.084,-0.13l-0.019,-0.686l0.047,-0.335l0.111,-0.278l-0.009,-0.204l-0.084,-0.13l-0.028,-0.148l0.093,-0.381l0.269,-0.603l0.13,-0.464l-0.055,-0.065l-0.149,0.019l-0.111,-0.075l-0.149,-0.204l-0.408,-0.306l-0.297,-0.139l-0.028,-0.074l0.39,0.102l0.38,0.315l0.446,0.223l0.158,-0.009l0.046,-0.121l-0.046,-0.306l-0.075,-0.047l-0.102,0.01l-0.083,-0.065l-0.056,-0.158l-0.25,-0.195l-0.687,-0.204l-0.418,-0.037l-0.287,0.037l-0.093,-0.056v-0.102l0.167,-0.121l0.028,-0.102l-0.13,-0.111l-0.186,-0.334l-0.009,-0.195l-0.074,-0.241l0.027,-0.158l0.177,-0.167l0.093,-0.269l-0.084,-0.446l-0.148,-0.12l-0.028,-0.121l0.102,-0.148l0.009,-0.26l-0.093,-0.111l0.028,-0.079l0.098,0.004l0.176,-0.083l0.023,-0.07l-0.153,-0.107l-0.186,0.056l-0.246,-0.097l-0.25,-0.042l-0.223,0.037l-0.408,-0.111l-0.195,-0.214l-0.028,-0.185l0.037,-0.093l0.121,-0.074l0.056,-0.121h0.083l0.074,0.149l0.121,0.046l0.232,-0.056l0.046,-0.074l0.093,-0.019l0.149,0.075l0.102,-0.01l0.074,-0.111l0.139,-0.009l0.214,0.12l0.065,0.269l0.139,0.121l0.473,0.084l0.39,0.176l0.287,0.343l0.056,0.177l0.269,0.232l0.464,0.204l0.752,0.185l0.464,0.158l0.195,-0.028l0.362,-0.148l0.204,0.028l0.111,0.102l0.288,0.13l0.269,0.046l0.928,-0.102l0.547,-0.028h0.576l0.482,0.074l0.65,-0.009l0.584,-0.111l0.687,-0.028l0.288,0.018l0.297,-0.027l0.445,-0.14l0.575,-0.102l0.752,-0.074l0.937,-0.139l0.539,-0.13l1.466,-0.306l0.371,-0.047l0.473,-0.009l1.504,-0.278l0.334,-0.158l1.364,-0.26l0.389,-0.028l1.207,-0.306l0.956,-0.148l1.169,-0.372l0.807,-0.241l0.362,-0.213l0.39,-0.14l0.881,-0.185l0.316,-0.047l0.705,-0.296l1.411,-0.613l0.278,-0.102l1.29,-0.64l0.584,-0.242l0.223,-0.12l0.121,-0.167l0.686,-0.353l0.641,-0.538l0.13,-0.213l0.148,-0.13l0.186,-0.075l0.046,-0.111l-0.028,-0.139l0.047,-0.214l0.055,-0.102l-0.009,-0.139l-0.093,-0.13l0.047,-0.371l0.148,-0.547l0.186,-0.381l0.352,-0.492l0.372,-0.417l0.946,-0.91l0.752,-0.798l0.315,-0.473l0.232,-0.52l0.214,-0.38l0.343,-0.473l0.891,-1.383l0.965,-1.327l0.009,-0.214l-0.046,-0.231l-0.019,-0.27l0.047,-0.491l-0.084,-0.984l0.019,-0.306l-0.047,-0.873l-0.13,-0.668l-0.213,-0.324l-0.167,-0.084l-0.074,0.056l0.065,0.12l-0.075,0.084l-0.371,0.037l-0.761,-0.019l-0.501,-0.102l-0.631,-0.408l-0.631,-0.622l-0.408,-0.492l-0.241,-0.482l-0.177,-0.232l-0.195,-0.464l-0.055,-0.575l0.028,-0.464l0.13,-0.501l0.139,-0.316l0.779,-1.114l0.418,-0.436l0.195,-0.371l-0.01,-0.26l-0.306,-0.519l-0.102,-0.307l-0.315,-0.417l-0.437,-0.399l-0.473,-0.52l-0.733,-0.64l-0.353,-0.214l-0.371,-0.151l-0.297,-0.254l-0.321,-0.173l-0.254,-0.068l-0.328,-0.179l-0.266,-0.266l-0.322,-0.223l-0.111,-0.037l-0.278,0.031l-0.198,-0.056l-0.143,-0.118l-0.092,-0.129l-0.205,-0.099l-0.228,-0.019l-0.167,-0.062l-0.099,-0.086l-0.161,-0.05l-0.143,0.019l-0.185,-0.025l-0.149,-0.081l-0.086,-0.111l-0.167,-0.124l-0.143,-0.068l-0.383,-0.247l-0.099,-0.136l-0.025,-0.13l-0.105,-0.18l-0.204,-0.13l-0.161,-0.074l-0.285,-0.198l-0.148,-0.161l-0.031,-0.222l-0.056,-0.124l-0.117,-0.111l0.012,-0.161l0.124,-0.173l0.006,-0.087l0.037,-0.05l0.062,-0.03l0.012,-0.093l-0.216,-0.371l-0.149,-0.106l-0.179,-0.031l-0.272,-0.154l-0.452,-0.112l-0.371,-0.123l-0.272,-0.05l-0.142,-0.055l0.092,-0.025l0.334,0.062l0.347,0.117l0.507,0.124l0.297,0.148l0.167,-0.018l0.105,-0.112l0.105,-0.061l0.446,-0.062l0.142,-0.13l-0.006,-0.093l0.074,-0.136l0.161,-0.074l0.012,-0.105l-0.105,-0.155v-0.124l0.05,-0.179v-0.365l0.043,-0.198l-0.012,-0.136l-0.13,-0.143l-0.192,-0.061l-0.05,-0.106l0.044,-0.204l-0.081,-0.111l-0.148,-0.043l0.012,-0.056l0.081,-0.012l0.006,-0.069l-0.093,-0.198l-0.105,-0.105v-0.136l0.074,-0.136l-0.018,-0.099l-0.087,-0.062l-0.099,-0.167l-0.012,-0.117l-0.055,-0.062l-0.097,-0.042l-0.102,-0.111l-0.014,-0.098l-0.083,-0.195l-0.07,-0.065l-0.051,-0.139l0.005,-0.195l0.064,-0.222l0.005,-0.223l-0.014,-0.097l0.005,-0.116l0.074,-0.186l0.009,-0.176l-0.046,-0.33l0.028,-0.185l0.301,-0.622l0.112,-0.098l0.051,-0.097l0.004,-0.102l0.084,-0.116l0.107,-0.079l0.065,-0.107v-0.116l-0.056,-0.083l-0.051,-0.144l0.014,-0.153l0.065,-0.098v-0.134l-0.037,-0.135l0.004,-0.116l0.042,-0.116l0.107,-0.13l0.009,-0.065l-0.046,-0.06l-0.093,-0.032l-0.033,-0.093l0.065,-0.121l0.144,-0.088l0.186,-0.014l0.171,0.028l0.251,0.005l0.121,-0.028l0.125,0.004l0.014,0.047l-0.209,0.111l-0.111,0.005l-0.079,-0.065l-0.051,0.028l0.014,0.093l0.167,0.009l0.301,-0.023l0.446,-0.14l0.171,-0.097l0.149,-0.19l0.111,-0.32l0.023,-0.26l0.028,-0.144l0.008,-0.22l0.086,-0.108z M664.373261,1155.124055l0.096,-0.213l-0.074,-2.71v-17.285l0.284,0.421l0.811,1.014l0.903,1.04l0.204,0.334l0.118,0.39l0.025,0.204l0.068,0.266l0.259,0.519l0.013,0.155l-0.056,0.105l-0.056,-0.012l0.019,-0.223l-0.266,-0.52l-0.087,-0.272l-0.006,-0.161l-0.161,-0.105h-0.216l-0.223,0.105l-0.334,0.365l-0.513,0.427l-0.328,0.415l-0.118,0.396l0.031,0.371l0.198,0.223l0.377,0.278l0.502,0.173h0.154l0.279,0.062l0.216,0.006l0.427,-0.105l0.235,0.025l0.235,0.124l0.285,0.253l0.216,0.483l0.081,0.513l0.216,0.625l0.235,0.489l0.192,0.21l0.247,0.328l0.452,0.371l0.118,0.05l0.445,0.414l0.309,0.192l0.378,0.359l0.501,0.321l0.247,0.062l0.093,0.087l-0.043,0.062l-0.142,0.018l-0.031,0.13l0.074,0.31l0.229,0.235l0.179,0.068l0.198,0.136l0.173,0.241l0.273,0.136l0.228,0.056l0.174,0.136l0.037,0.155l0.389,0.284l0.947,0.545l0.186,0.049l0.216,0.019l0.823,0.445l0.074,0.124l0.359,0.216l0.724,0.211l0.179,0.105l0.05,0.099l0.092,0.086l0.13,0.05l0.062,0.056l-0.006,0.129l0.149,0.229l0.315,0.297l0.322,0.211l0.13,0.13l0.105,0.235l0.291,0.216l0.142,0.192l0.161,0.074l0.241,0.031l0.452,0.186l0.235,0.031l0.272,0.092l0.891,0.378l1.119,0.383l0.297,0.087l0.353,0.21l0.309,0.093l0.409,0.056l0.173,0.055l0.322,0.044l0.439,-0.025l0.266,-0.056l0.204,0.019l0.148,0.136h0.056l0.056,-0.13l0.173,-0.012l0.254,-0.099l0.055,0.031l-0.068,0.055l0.062,0.05l0.087,-0.006l0.062,-0.13l0.513,-0.037l0.52,-0.149l0.111,0.019l-0.031,0.117l-0.093,0.093l-0.006,0.093l0.099,-0.006l0.112,-0.106l0.309,-0.006l0.396,0.068l-0.006,0.068l-0.396,0.205l-0.087,0.167l0.031,0.129l-0.05,0.155l-0.092,0.074l-0.013,0.087l0.05,0.111l-0.081,0.192l-0.259,0.093l0.006,0.087l0.179,0.123v0.081l-0.489,0.371l-0.08,0.136l-0.025,0.291l-0.346,0.222l-0.198,0.031l-0.105,-0.061l-0.075,-0.341l-0.111,-0.08l-0.254,0.018l-0.086,0.112l0.037,0.093l-0.05,0.136l-0.142,0.092h-0.272l-0.384,0.137l-0.13,0.148l-0.365,-0.006l-0.111,-0.093l0.006,-0.26l-0.21,-0.204l-0.204,-0.049l-0.186,0.086l-0.21,-0.012l-0.149,-0.081l-0.235,-0.012l-0.068,0.074l-0.117,0.013l-0.291,-0.075l-0.167,0.05l-0.012,0.099l0.222,0.161l-0.018,0.154l-0.149,0.143l-0.847,0.222l-0.39,-0.012l-0.217,0.049l-0.575,-0.03l-0.402,0.092l-0.087,0.112l0.031,0.13l-0.099,0.111l-0.81,0.136l-0.297,-0.043l-0.464,-0.204l-0.186,-0.007l-0.476,-0.253l-0.13,-0.18l-0.223,-0.198l-0.643,-0.167l-0.476,-0.024l-0.873,-0.235l-0.414,-0.174l-0.217,-0.031l-0.278,0.025l-0.551,-0.074l-0.21,-0.087l-0.179,-0.006l-0.155,0.099l-0.179,0.006l-0.118,-0.062l-0.334,-0.068l-0.179,-0.111h-0.155l-0.526,0.179l-0.52,0.05l-0.525,-0.068l-0.39,-0.149l-0.693,-0.074h-0.415l-0.309,-0.043l-0.185,-0.099l-0.548,-0.169l-0.422,-0.079l-0.2,-0.13l-0.315,0.024l-0.121,0.116l0.079,0.153l0.144,0.065l0.005,0.06l-0.172,0.042l-0.13,-0.033l-0.042,-0.097l-0.088,-0.019l-0.288,0.172l-0.468,0.065l-0.172,-0.079h-0.107l-0.069,0.07h-0.135l-0.274,-0.084l-0.051,0.028l0.065,0.084l0.246,0.065l0.061,0.046l-0.423,0.19l-0.204,0.014z"/>
</svg>
