<svg xmlns="http://www.w3.org/2000/svg" viewBox="1180.120 398.957 50.232 22.225">
  <path d="M1207.77737,419.929169h0.087l0.077,0.034l0.155,0.016l0.08,-0.007l0.059,0.019l0.025,0.043l0.111,0.028l0.105,-0.021l0.068,-0.062l0.075,-0.01l0.062,0.034l0.173,-0.021l0.068,-0.047l0.207,0.007l0.105,0.068l0.081,0.018l0.145,0.093l0.09,0.031l0.145,0.105l0.121,0.012l0.102,-0.065l0.182,-0.009l0.232,0.053l0.167,0.083l0.09,0.121l0.025,0.074l0.08,0.074l0.022,0.05l0.062,0.025l0.093,-0.013l0.105,-0.062l0.164,0.003l0.074,0.059l0.077,0.016l0.099,-0.053l0.139,-0.034l0.102,0.009l0.106,0.081l0.096,0.012l0.114,-0.043l0.306,-0.019l0.161,-0.058l0.145,-0.01l0.038,0.034l-0.022,0.044v0.037l0.043,0.058l0.235,0.059l0.044,0.04l0.071,-0.003l0.055,-0.058l0.109,-0.044l0.052,0.031l0.01,0.047l0.077,0.052l0.102,0.158l0.003,0.111l0.046,0.053l0.065,-0.009l0.102,-0.158l0.004,-0.17l-0.038,-0.059l0.053,-0.111l0.071,-0.041l0.198,-0.006l0.232,-0.068l0.077,-0.074v-0.05l0.047,-0.037l0.077,0.016l0.031,-0.031l-0.012,-0.047l0.031,-0.055l0.046,-0.016l0.031,-0.117l0.04,-0.009l0.04,0.034l0.041,-0.01l0.031,-0.074h0.043l0.028,0.034h0.055l0.025,-0.04l0.115,0.006l0.065,0.031l0.164,-0.059l0.04,-0.059l0.04,-0.235l0.046,-0.043l0.037,-0.093l-0.003,-0.074l0.115,-0.176l0.055,-0.037l0.053,-0.103l0.099,-0.055l0.093,0.003l0.099,0.065l0.043,-0.013l0.003,-0.111l0.031,-0.012l0.031,0.021l0.043,-0.003l0.102,-0.111l0.062,-0.006l0.081,0.062l0.015,0.157l0.037,0.016l0.081,-0.071l0.012,-0.09l0.139,-0.155l0.155,-0.105l0.167,-0.004l0.093,0.027l0.088,-0.009l0.111,-0.07l0.214,-0.013l0.292,0.046l0.121,0.056l0.246,0.027l0.255,-0.018l0.167,-0.065l0.292,-0.009l0.153,0.028l0.251,-0.01l0.199,0.051l0.107,0.084v0.06l0.046,0.102l0.079,0.014l0.047,-0.046l0.069,-0.005l0.061,0.037l0.083,-0.028l0.111,-0.111l0.065,-0.014l0.051,-0.116l-0.055,-0.139l0.046,-0.074l0.204,-0.079l0.065,-0.051l0.07,0.009l0.046,0.051l0.13,0.005l0.107,-0.098l0.014,-0.088l0.065,-0.037l0.111,0.009l0.186,0.07l0.144,0.018l0.306,-0.041l0.209,-0.13l0.208,-0.047l0.256,0.014l0.287,0.107l0.153,0.144l0.112,0.042l0.171,0.018l0.098,0.06l0.065,0.103l0.125,0.055l0.042,-0.018l0.032,-0.186l-0.12,-0.227l-0.181,-0.167l-0.079,-0.172l0.032,-0.13l0.028,-0.404l-0.046,-0.111l0.074,-0.079l0.181,-0.046l0.07,0.032l0.129,-0.023l0.093,-0.116l0.07,-0.023l0.06,-0.065l0.07,-0.005l0.069,-0.046l0.099,-0.049l0.108,-0.114l0.041,-0.082l0.081,-0.066l0.063,-0.009l0.06,-0.054l0.083,-0.234l0.06,-0.034l0.084,0.034l0.086,-0.047l0.027,-0.072l0.114,-0.092l0.075,0.009l0.047,-0.034l0.003,-0.167l0.069,-0.221l0.051,-0.01l0.024,0.089l0.048,0.015l0.056,-0.025l0.063,0.006l0.069,0.041l0.045,-0.006l0.03,-0.069l0.089,0.006l0.045,0.044l0.051,0.01l0.164,-0.038l0.078,0.031l0.03,0.044l0.119,0.023l0.039,-0.064l0.087,-0.003l0.101,0.048h0.072l0.141,-0.054v-0.035l-0.117,-0.066l-0.069,-0.107l-0.071,-0.048l-0.054,0.007l-0.039,0.041h-0.057l-0.039,-0.048l0.012,-0.066l0.23,-0.082l0.207,-0.019l0.05,-0.041l0.003,-0.079l-0.242,-0.091l-0.08,-0.114v-0.095l0.122,-0.097l0.054,-0.004l0.039,-0.028l-0.012,-0.05l0.036,-0.045l0.137,-0.047l0.015,-0.063l-0.078,-0.092l-0.134,-0.018l-0.163,0.058l-0.075,-0.006l-0.027,-0.07l0.063,-0.104l-0.018,-0.161l-0.054,-0.035l-0.101,0.013l-0.072,-0.047l-0.03,-0.13l0.03,-0.034l0.078,-0.01l0.033,-0.06l0.015,-0.252l-0.063,-0.025l0.009,-0.026l0.131,-0.016l0.063,0.013l0.096,-0.069l0.046,-0.12l-0.112,-0.393l-0.161,-0.109l0.004,-0.071l0.081,-0.033l0.036,-0.218l-0.054,-0.085l-0.009,-0.114l0.072,-0.042l0.179,0.057l0.054,0.118h0.049l0.049,-0.099l0.09,-0.053h0.116l0.086,0.043l0.098,-0.009l0.099,-0.128l0.224,-0.095l0.09,-0.099l0.148,-0.076l0.058,-0.147l-0.076,-0.236l0.018,-0.076l0.053,-0.01l0.041,0.019l0.098,-0.028l0.085,-0.095l0.063,-0.128l-0.009,-0.071l-0.076,-0.028l-0.031,-0.071l-0.059,-0.033h-0.076l-0.049,-0.047l0.049,-0.067l0.014,-0.094l-0.117,-0.303l-0.099,-0.062l-0.121,0.005l-0.152,0.076l-0.134,-0.005l-0.337,-0.213l-0.071,-0.005l-0.059,0.048l-0.094,-0.019l-0.036,-0.057l-0.107,-0.048l-0.157,-0.023l-0.112,-0.066l0.013,-0.048l0.086,-0.042l0.035,-0.171l0.045,-0.009l0.067,0.099l0.063,0.005l0.063,-0.085l0.206,-0.138l0.157,-0.023l0.058,-0.09l-0.071,-0.114l0.067,-0.109l0.34,-0.09l0.184,0.01l0.063,0.071l0.126,0.052l0.394,0.076l0.004,0.099l0.18,0.346l0.515,-0.01l0.063,-0.184l0.103,-0.057l0.054,-0.067l0.036,0.005l0.009,0.237l0.049,0.033h0.26l0.887,-0.156l0.229,-0.024l-0.157,-0.166l0.005,-0.236l-0.121,-0.27l0.009,-0.066l0.112,-0.1l-0.014,-0.071l-0.112,-0.094l-0.009,-0.09l-0.224,-0.185l0.009,-0.066l0.161,-0.01l0.198,-0.08h0.098l0.108,-0.189l-0.05,-0.052l0.099,-0.18l-0.125,-0.071l0.152,-0.218l-0.099,-0.066l-0.018,-0.043l0.415,-0.298l-0.071,-0.095l-0.102,-0.061l-0.138,-0.033l-0.083,0.058l-0.053,0.003l-0.077,-0.052l-0.011,-0.042l0.085,-0.088l-0.002,-0.048l-0.067,-0.03l-0.008,-0.046l0.063,-0.027l0.006,-0.036l-0.05,-0.055l0.003,-0.1l0.1,-0.063l0.002,-0.051l-0.08,-0.049l-0.066,-0.112l-0.009,-0.063l-0.044,-0.106l-0.058,-0.018l-0.063,0.015l-0.07,-0.021l-0.077,-0.085l-0.218,-0.16l-0.011,-0.154l-0.083,-0.239l-0.092,-0.139l0.017,-0.127l0.039,-0.07l-0.006,-0.045l-0.063,-0.039h-0.078l-0.061,-0.025l-0.135,-0.26l-0.003,-0.06l0.055,-0.079l-0.011,-0.039l-0.185,-0.073l-0.014,-0.048l0.022,-0.018v-0.03l-0.124,0.003l-0.066,-0.034l-0.003,-0.157l-0.05,-0.072l0.011,-0.037l0.072,-0.006l0.047,-0.106l-0.025,-0.072l0.006,-0.055l0.044,-0.048l0.005,-0.051l-0.052,-0.082l0.008,-0.145l0.15,-0.188l0.063,-0.027l0.031,-0.057l-0.012,-0.07l0.039,-0.033l0.075,0.018l0.027,-0.015l-0.008,-0.103l0.042,-0.072l0.099,-0.037l0.064,-0.108l0.016,-0.079l-0.049,-0.051v-0.076l-0.036,-0.088l0.008,-0.148l-0.03,-0.06l0.002,-0.058l0.036,-0.033l-0.008,-0.077l-0.142,-0.013l-0.009,-0.064l0.046,-0.082l-0.005,-0.059l-0.041,-0.019l-0.005,-0.036l0.028,-0.05v-0.114l-0.065,-0.018l-0.023,-0.064l0.037,-0.064l-0.028,-0.159l-0.12,-0.105l-0.115,-0.009l-0.083,0.073l-0.093,0.005l-0.06,-0.023l-0.055,-0.005l-0.065,0.023l-0.069,0.005l-0.041,0.036h-0.056l-0.037,-0.036l-0.092,-0.009l-0.148,-0.055l-0.046,-0.077l-0.134,-0.055l-0.184,-0.009l-0.093,0.059l-0.06,-0.004l-0.032,-0.073l0.051,-0.087l-0.037,-0.182l-0.097,-0.095l-0.152,-0.023l-0.079,0.036l-0.18,-0.027l-0.102,-0.073l-0.124,-0.023l-0.116,-0.123l-0.073,-0.009l-0.088,0.069h-0.296l-0.055,-0.041h-0.055l-0.06,0.054l-0.019,0.087l-0.074,0.095l0.01,0.064l-0.033,0.05l-0.078,0.027l-0.065,0.069l-0.023,0.091l-0.125,0.045l-0.069,0.05l-0.157,-0.009l0.005,-0.054l-0.065,-0.023l-0.092,0.073h-0.12l-0.097,-0.05l-0.185,-0.019l-0.069,0.032l-0.692,-0.091l-0.097,0.028l-0.268,-0.005l-0.221,-0.064l-0.074,-0.063l-0.42,-0.178l-0.245,-0.164l-0.023,-0.068l0.041,-0.087l-0.06,-0.032l-0.087,0.041l-0.074,-0.041l0.028,-0.072l-0.097,-0.046l-0.107,0.014l-0.083,-0.064l-0.023,-0.1l-0.055,-0.009l-0.037,0.036l-0.143,-0.054l-0.009,-0.032l0.037,-0.023l0.004,-0.05l-0.074,-0.027l-0.078,0.041l-0.24,-0.032l-0.093,0.018l-0.027,0.073l-0.097,0.073l-0.088,0.009l-0.217,-0.05l-0.115,0.018l-0.074,-0.018l-0.171,-0.169l-0.143,-0.05l-0.051,-0.064l-0.083,-0.036l-0.074,0.023l-0.161,-0.005l-0.093,-0.054l-0.3,-0.092l-0.078,-0.054l-0.046,-0.146l-0.203,-0.095h-0.12l-0.194,-0.037l-0.213,-0.155l-0.175,-0.091l-0.217,-0.018l-0.065,0.055l-0.12,-0.018l-0.064,-0.041l-0.009,-0.069l-0.074,-0.027l-0.042,0.059l0.033,0.068l-0.065,0.178l-0.079,0.046l-0.101,-0.041l-0.222,0.022l-0.097,0.114h-0.041l-0.032,-0.036h-0.051l-0.028,0.032l-0.065,-0.01l-0.009,-0.045l0.06,-0.082l0.005,-0.064l-0.051,-0.036l-0.037,-0.087l-0.009,-0.091l-0.111,-0.05l-0.157,-0.004l-0.097,0.036l-0.18,-0.045l-0.037,-0.046l-0.004,-0.064l-0.065,-0.018l-0.074,0.023l-0.06,-0.005l-0.064,-0.05h-0.06l-0.074,0.05l-0.065,-0.004l-0.028,0.036l0.06,0.055l-0.032,0.1l-0.101,0.096l-0.019,0.191l0.046,0.136l-0.014,0.087l0.051,0.105l0.019,0.136l-0.06,0.196l-0.056,0.054v0.151l0.06,0.059l-0.014,0.041l-0.064,0.018l-0.116,0.332l0.028,0.1l0.106,0.055l0.019,0.091l-0.106,0.073l-0.093,-0.005l-0.175,-0.054l-0.069,0.013l-0.144,-0.045l-0.046,-0.05l-0.078,-0.018l-0.069,0.032l-0.06,-0.005l-0.056,-0.046l-0.194,0.014l-0.041,0.068l0.027,0.064l-0.046,0.155l0.028,0.077l-0.018,0.046l-0.07,0.018l-0.106,0.127l-0.286,0.142l-0.055,0.081v0.096l-0.079,0.182l0.028,0.055l0.014,0.123l-0.037,0.095l-0.01,0.069l0.033,0.054l-0.014,0.064l-0.065,0.05l-0.004,0.064l-0.056,0.022l-0.175,0.005l-0.065,-0.032l-0.014,-0.086l-0.05,-0.078l-0.06,-0.009l-0.065,0.032l-0.055,-0.009l-0.028,-0.123l-0.051,-0.055h-0.078l-0.236,0.164l-0.069,0.009l-0.06,-0.072l-0.166,-0.037l-0.088,0.014l-0.055,-0.032l-0.037,-0.109l-0.176,-0.105l-0.106,0.014l-0.027,0.041l0.055,0.077l-0.014,0.087l-0.125,0.241l-0.064,0.013l-0.083,-0.031h-0.111l-0.032,0.041l0.023,0.072l-0.056,0.064l-0.074,0.005l-0.06,-0.037l-0.055,0.009l-0.018,0.105l-0.102,0.059l-0.051,-0.009l-0.018,-0.059l-0.097,-0.009l-0.222,-0.082l-0.046,-0.055l-0.101,-0.018l-0.065,0.032l-0.083,-0.018l-0.074,-0.059l-0.231,-0.051l-0.069,0.032l-0.097,-0.004l-0.055,-0.041h-0.171l-0.106,0.045l-0.093,-0.013l-0.064,-0.055l-0.116,-0.009l-0.032,-0.046l-0.069,-0.004l-0.06,-0.059l0.004,-0.087l-0.041,-0.041h-0.079l-0.092,-0.073l-0.009,-0.05l0.092,-0.082l0.171,-0.018l0.051,-0.068l-0.028,-0.096l-0.125,-0.018l-0.087,-0.068l-0.102,-0.164l-0.06,-0.027l-0.134,-0.005l-0.106,-0.032l-0.046,-0.05l-0.046,-0.032l-0.051,-0.004l-0.171,-0.182l-0.24,-0.173l-0.148,-0.034l-0.12,0.014l-0.009,0.074l-0.087,0.055l-0.037,0.07l0.005,0.101l-0.037,0.083l-0.102,0.083v0.046l0.079,0.027l0.046,0.051l0.115,0.005l0.023,0.046l-0.06,0.032l-0.055,-0.014l-0.037,0.023l0.032,0.189l-0.032,0.115l0.04,0.089l-0.013,0.149l-0.101,0.129l0.014,0.107l-0.042,0.09l-0.06,0.018l-0.102,0.127l-0.055,0.005l-0.028,-0.075h-0.055l-0.037,0.098l0.014,0.136l-0.028,0.075h-0.06l-0.042,0.043v0.051l-0.055,0.024l-0.102,-0.028l-0.166,-0.122l-0.092,-0.014l-0.065,-0.038l-0.023,-0.099l-0.093,-0.056h-0.073l-0.088,-0.037l-0.102,-0.099l-0.078,0.005l-0.037,0.065l-0.116,0.005l-0.305,-0.23h-0.087l-0.033,0.066l0.023,0.07l-0.111,0.08h-0.055l-0.037,0.019v0.056l-0.069,0.005l-0.083,-0.052l-0.079,0.024l-0.009,0.079l0.069,0.076l0.009,0.061l-0.027,0.046l0.004,0.057l0.056,0.061l0.009,0.075l-0.166,0.328l-0.014,0.118l0.051,0.131l-0.01,0.108l-0.083,0.15l-0.023,0.202l-0.074,0.122l-0.194,0.108l-0.323,0.3l-0.314,0.174l-0.227,0.065l-0.36,-0.004l-0.199,0.028l-0.198,0.098l-0.157,0.033l-0.153,-0.004l-0.097,0.028l-0.074,0.056l-0.318,0.122l-0.079,0.131l-0.245,0.188l-0.125,0.042l-0.18,-0.009l-0.314,0.047l-0.074,0.075l-0.009,0.113l-0.148,0.234l-0.06,0.038h-0.06l-0.102,0.051l-0.073,0.16l-0.056,0.019l-0.088,-0.028l-0.064,0.028v0.061l-0.047,0.075v0.141l0.037,0.122l0.088,0.098l0.513,0.399l0.074,0.141l0.06,0.248l0.065,0.09l0.097,0.046l0.134,0.019l0.055,0.038v0.07l0.037,0.024l0.065,-0.01l0.037,0.028l0.032,0.137l0.379,0.595l-0.023,0.099l-0.084,0.07l-0.087,0.174l-0.153,0.188l-0.064,0.028l-0.06,0.089v0.038l0.069,0.014l0.009,0.061l-0.074,0.126l-0.083,0.014l-0.083,0.122v0.066l0.125,0.085l0.233,0.041l0.202,-0.018l0.116,-0.102l0.092,-0.004l0.143,0.087l0.101,0.111l0.092,0.055l0.042,0.083l-0.019,0.088l0.019,0.05l0.059,0.069l0.056,0.166l-0.019,0.083l-0.073,0.037l-0.116,0.161l0.023,0.083l-0.032,0.055l-0.129,0.028l-0.023,0.083l0.069,0.069v0.074l-0.12,0.152l-0.009,0.06l0.097,0.064l0.009,0.157l-0.032,0.101l-0.115,0.065l-0.014,0.069l-0.101,0.083l-0.079,-0.028l-0.037,-0.078l-0.087,-0.028l-0.06,0.046l-0.074,-0.013l-0.276,-0.139l-0.193,-0.143v-0.05l-0.051,-0.046l-0.088,-0.009l-0.092,-0.065l-0.018,-0.088l-0.037,-0.027l-0.171,-0.009l-0.142,-0.083l-0.074,-0.092l-0.032,-0.088l0.073,-0.101l0.019,-0.07l0.124,-0.087l0.065,0.009l0.009,-0.037l-0.217,-0.161l-0.092,-0.023l-0.101,-0.101l0.005,-0.051l0.106,-0.042l0.046,-0.11l-0.037,-0.009l-0.056,0.06h-0.101l-0.051,-0.074l-0.105,-0.028l-0.07,0.023l-0.059,-0.004l-0.074,-0.046l-0.217,0.004l-0.115,0.088l-0.101,-0.009l-0.037,-0.024l-0.138,0.028l-0.157,0.161l-0.055,0.134l-0.088,0.023l-0.147,-0.023l-0.101,0.014l-0.102,0.074l-0.083,-0.019l-0.06,-0.078l-0.11,-0.06l-0.074,-0.055l-0.064,-0.148l-0.06,-0.027l-0.028,-0.06l0.023,-0.097l-0.023,-0.042h-0.078l-0.346,0.088h-0.092l-0.064,-0.051l-0.148,-0.032l-0.299,0.037l-0.134,0.101l-0.064,-0.004l-0.083,-0.134l0.018,-0.12l0.116,-0.133l0.018,-0.07l-0.051,-0.055l-0.064,0.009l-0.143,0.189l-0.166,0.065l-0.11,0.069h-0.079l-0.05,0.051l0.037,0.124l0.078,0.074l0.115,0.216l0.051,0.268l-0.046,0.064l-0.139,0.032l-0.018,-0.032l0.041,-0.037l-0.023,-0.046l-0.106,0.014l-0.119,0.06h-0.083l-0.134,-0.042l-0.216,-0.004l-0.106,-0.051l-0.148,0.005l-0.069,0.032h-0.073l-0.102,-0.088l-0.11,0.023l-0.056,0.051l-0.055,0.009l-0.051,-0.027l-0.308,0.027l-0.102,0.046h-0.064l-0.253,0.056l-0.06,0.152l-0.079,0.004l-0.106,-0.041l-0.294,-0.037l-0.134,0.028l-0.309,-0.01l-0.129,0.047h-0.165l-0.139,-0.079l-0.046,0.014l0.005,0.074l-0.046,0.014l-0.065,-0.033l-0.087,0.028v0.097l-0.111,0.143l-0.027,0.23l-0.125,0.092l-0.285,0.023l-0.079,0.042l-0.064,0.004l-0.161,-0.037h-0.18l-0.041,-0.05l-0.056,-0.005l-0.087,0.065l-0.092,0.142l-0.111,0.088l-0.032,0.078l0.037,0.032l0.078,-0.004l0.055,0.037l0.037,0.106l-0.018,0.041l-0.221,-0.032l-0.088,0.018l-0.184,-0.023l-0.088,0.042l-0.055,0.092l-0.106,0.023l-0.055,0.023l-0.009,0.111l-0.065,0.11l-0.083,0.032l-0.115,-0.009l-0.17,0.023l-0.023,-0.041l0.124,-0.171l0.06,-0.05l-0.023,-0.037l-0.171,0.009l-0.069,-0.023l-0.064,0.005l-0.028,0.05l-0.262,0.037l-0.106,0.065h-0.097l-0.042,0.055l0.01,0.069l-0.069,0.028l-0.572,-0.005l-0.184,0.018l-0.175,-0.05l-0.028,-0.074l0.06,-0.069l0.065,-0.023l0.004,-0.051l-0.142,-0.161l-0.235,-0.18l-0.005,-0.055l0.041,-0.023v-0.046l-0.188,-0.023l-0.185,0.046l-0.055,-0.065l0.028,-0.11l0.276,-0.106l-0.014,-0.037l-0.087,-0.014l-0.065,-0.106l-0.055,-0.023l-0.184,0.009l-0.088,0.051l-0.161,0.014l-0.06,0.051h-0.087l-0.12,0.041l-0.092,-0.055l-0.033,-0.092l-0.142,-0.037l-0.129,-0.005l-0.139,-0.055l-0.013,-0.065l-0.056,-0.041l-0.327,0.004l-0.11,-0.073l-0.166,-0.014l-0.078,0.087v0.074l-0.056,0.12l-0.05,0.009l-0.051,-0.027l-0.221,0.018l-0.212,-0.032l-0.152,-0.097l-0.101,-0.018v-0.042l0.133,-0.124l0.009,-0.088l-0.064,-0.023l-0.111,0.023l-0.101,-0.009l-0.032,0.046l0.018,0.078l0.074,0.033l0.037,0.115l-0.074,0.184l-0.005,0.088l-0.032,0.115l0.036,0.14l0.055,0.024l0.086,0.009l0.052,0.053l0.006,0.058l-0.021,0.052l0.003,0.092l0.052,0.135l-0.009,0.043l-0.068,0.01l-0.031,0.03l-0.009,0.04l-0.034,0.037l-0.07,0.019l-0.046,0.052l-0.022,0.132l0.019,0.061l-0.025,0.016l-0.061,-0.01l-0.059,0.043l-0.101,0.028l-0.071,0.08l-0.009,0.083l-0.19,0.163l-0.065,0.101l-0.006,0.074l-0.117,0.07l-0.086,-0.003l-0.07,0.043l-0.071,0.01l-0.086,0.092l-0.095,0.003l-0.058,0.043l-0.059,0.015l-0.07,0.077h-0.053l-0.061,-0.04l-0.15,-0.003l-0.111,0.049l-0.052,-0.006l-0.012,-0.071l0.036,-0.126l0.034,-0.006l0.034,0.019l0.092,-0.04l0.074,-0.099l-0.006,-0.067l-0.074,-0.049l-0.003,-0.028l0.037,-0.024l0.006,-0.065l0.061,-0.064l0.016,-0.062l0.11,-0.147l0.003,-0.083l-0.034,-0.037l-0.046,-0.003l-0.067,0.049l-0.077,-0.019l-0.052,-0.052l-0.083,-0.006l-0.071,0.052l-0.003,0.096l-0.043,0.033l-0.19,-0.003l-0.077,-0.046l-0.049,0.003l-0.074,0.126h-0.043l-0.086,-0.276l0.009,-0.062l-0.089,-0.083l0.007,-0.033l0.138,-0.034l0.055,-0.062l0.003,-0.049l-0.052,-0.055l-0.022,-0.157l-0.04,-0.015l-0.033,0.028l-0.083,-0.022l-0.092,-0.08l0.003,-0.055l-0.059,-0.095l-0.095,-0.01l-0.141,0.04l-0.095,-0.015l-0.04,-0.098l0.021,-0.037l-0.006,-0.034l-0.15,-0.11l-0.022,-0.056l0.003,-0.089l0.034,-0.061l-0.018,-0.028l-0.056,0.015l0.006,0.053l-0.021,0.03l-0.111,-0.021l-0.086,0.061l-0.086,-0.015l-0.067,-0.08l-0.154,-0.028l-0.043,0.028v0.095l-0.049,0.013l-0.104,-0.08l-0.197,-0.059l-0.03,-0.061l0.043,-0.187l-0.022,-0.093l-0.126,-0.055l-0.138,-0.015l-0.074,0.03l-0.123,0.16l-0.009,0.062l-0.1,0.162l-0.009,0.074l-1.2,-0.005l0.06,0.141l0.041,0.175l0.003,0.092l0.133,0.112l0.068,0.154l0.06,0.013l0.014,-0.059l0.048,-0.003l0.056,0.099l0.24,0.031l-0.003,0.046l-0.063,0.078l0.03,0.266l0.136,0.13l-0.009,0.089l-0.133,0.102l-0.139,0.01l-0.136,0.108l-0.074,0.127l-0.08,0.213l-0.174,0.127l-0.057,0.145l-0.112,0.071l0.059,0.019l0.027,0.084l0.133,0.102l-0.004,0.078l-0.049,0.075l0.013,0.051l0.071,0.018l0.098,0.102l-0.005,0.061l-0.04,0.083l-0.004,0.079l-0.053,0.06l0.004,0.033h0.089l0.111,0.065l0.031,0.088l0.057,0.028l0.045,-0.023l0.04,0.032l-0.005,0.088l0.036,0.051l0.009,0.042l-0.054,0.079l0.005,0.051l0.058,0.065v0.125l-0.049,0.023l-0.04,0.033l-0.036,-0.005l-0.026,0.037l0.017,0.047l-0.035,0.036l-0.009,0.029l0.109,0.057l0.124,0.002l0.045,-0.032l0.144,-0.033l0.131,0.024l0.13,0.102l0.221,0.065l0.113,-0.014l0.13,0.028l0.221,0.149l0.117,0.023l0.108,-0.065h0.099l0.022,0.046l-0.045,0.024l0.005,0.057l0.108,0.062l-0.006,0.117l-0.084,0.118v0.179l0.054,0.13l0.234,0.155l0.156,0.031l0.078,-0.019l0.12,0.012l0.078,0.087l0.072,0.019l0.084,-0.007l0.102,0.038l0.132,0.185l0.042,0.099l0.066,0.019l0.108,-0.013l0.066,0.037l0.03,0.093l0.078,0.05l0.264,-0.037l0.192,-0.056l0.12,-0.099l0.186,-0.006l0.066,-0.05l-0.024,-0.185l0.048,-0.26l0.048,-0.056l0.12,0.013l0.193,0.055h0.114l0.024,-0.062l-0.06,-0.086l0.03,-0.068l0.072,-0.037l0.12,-0.254l0.066,-0.043l0.12,-0.019l0.108,-0.062l0.126,0.019l0.126,0.167l-0.024,0.124l0.072,0.061l0.144,0.025l0.18,0.13l0.018,0.173l-0.066,0.062l-0.066,0.186l0.036,0.111l-0.012,0.145l0.071,-0.009l0.105,0.062l0.21,0.031l0.13,-0.031l0.043,0.025l-0.024,0.049l0.049,0.025l0.198,-0.068l0.13,-0.105l0.353,-0.112l0.161,0.013l0.092,0.074l-0.006,0.087l0.136,0.086l0.229,0.05l0.074,0.08l-0.074,0.155l-0.111,0.049l-0.019,0.087l0.118,0.049l0.154,-0.03l0.062,-0.056l0.075,0.006l0.117,0.148l0.118,0.019l0.055,-0.043l0.136,0.031l0.093,0.086l0.087,0.019l0.136,-0.056l0.155,0.019l0.136,-0.044l0.309,0.038l0.099,-0.031l0.074,0.018l0.068,-0.031l0.105,-0.241l0.205,-0.142l0.024,-0.075l-0.061,-0.117l0.024,-0.142l0.136,-0.248l0.025,-0.223l0.111,-0.123l0.161,-0.006l0.149,-0.093l0.012,-0.18l0.111,-0.062l0.143,0.019l0.315,-0.049l0.217,-0.093l0.291,-0.062l0.241,0.025l0.148,0.13l0.155,0.049l0.21,-0.043l0.124,-0.192l0.099,-0.05l0.056,-0.068l0.117,-0.006l0.223,0.142l0.142,0.025l0.161,-0.031l0.186,-0.154h0.13l0.123,0.086l0.192,0.062h0.173l0.161,0.062l0.068,0.118l0.13,0.018l0.093,-0.025l0.087,-0.111l0.129,-0.037l0.242,-0.013l0.315,-0.191l0.112,-0.025l0.259,-0.155l0.106,0.007l0.105,-0.038l0.086,-0.068l0.161,-0.018l0.124,0.031l0.074,-0.031l0.031,-0.074l0.093,-0.031l0.117,0.031l0.068,-0.031l0.069,-0.106l0.086,-0.024l0.142,0.037l0.192,-0.05l0.204,-0.099h0.124l0.217,0.106l0.006,0.086l-0.087,0.062l-0.043,0.068l-0.012,0.105l-0.069,0.118l-0.123,0.012l-0.081,0.05h-0.068l-0.074,-0.038l-0.068,0.007l-0.118,0.105l-0.012,0.093l0.074,0.074l0.037,0.117l-0.018,0.112l0.025,0.068l0.099,0.049l0.086,0.093l-0.025,0.074l-0.086,0.112l0.006,0.062l0.08,0.024h0.161l0.093,0.081v0.093l0.074,0.086h0.075l0.08,-0.099l0.105,-0.012l0.112,0.043l0.136,0.155v0.093l0.031,0.08l0.086,0.037l-0.018,0.068l-0.112,0.105l-0.012,0.087l0.049,0.062l-0.062,0.105l0.038,0.068l0.148,-0.012l0.204,0.049l0.112,0.074l0.173,0.452l0.352,0.223l0.192,0.006l0.05,0.018l0.043,0.056l0.08,0.025l0.075,-0.025l0.13,0.031l0.173,0.142l0.142,0.037l0.334,-0.043l0.105,0.019l0.05,0.049l0.086,0.013l0.124,-0.062l0.21,0.049l0.137,0.112l0.086,0.006l0.099,-0.081l0.204,0.025l0.118,0.099l0.111,0.043l0.074,-0.031l0.05,0.05l-0.012,0.086l0.055,0.075l0.149,-0.019h0.427l0.198,0.05l0.396,0.024l0.111,0.05h0.179l0.155,-0.05l0.439,0.068l0.248,0.143l0.154,0.037l0.13,0.117l0.118,0.013l0.247,-0.05l0.142,0.019l0.044,0.062l0.068,-0.006l0.111,-0.137l0.167,-0.012l0.037,-0.062h0.124l0.124,0.056l0.043,0.093h0.377l0.167,-0.05l0.069,0.025l0.037,0.105l0.099,0.031l0.092,-0.056l0.106,0.025l0.055,0.081l0.075,0.018l0.105,-0.043l0.222,0.031l0.291,0.148l0.105,0.019l0.167,-0.019z"/>
</svg>
