<svg xmlns="http://www.w3.org/2000/svg" viewBox="2166.991 966.014 0.479 0.768">
  <path d="M2167.454725,966.333223l0.014745,0.007373l-0.012288,0.01966l-0.017203,0.002458l-0.002458,-0.017203l0.017203,-0.012288Z M2167.145077,966.316021l0.014745,-0.004915l0.004915,-0.014745l-0.01966,-0.004915l-0.017203,0.014745l0.017203,0.00983Z M2167.189312,966.013746l-0.002458,0.022118l0.022118,0.022118h0.014745l-0.014745,-0.02949l-0.002458,-0.014745h-0.017203Z M2167.245835,966.75346l0.034405,-0.022118l0.071268,-0.110588l0.036863,-0.076183l0.017203,-0.00983l0.027033,0.002458l0.004915,-0.022118l-0.012288,-0.02949l-0.02949,-0.012288l-0.017203,-0.01966l0.012288,-0.017203l-0.034405,-0.041778l-0.04915,-0.024575l-0.017203,-0.031948l0.007373,-0.022118l-0.014745,-0.024575l0.00983,-0.03932l-0.017203,-0.012288l-0.01966,0.012288l-0.017203,-0.012288l-0.004915,-0.056523l-0.022118,-0.00983l-0.022118,0.00983l-0.01966,-0.017203l0.00983,-0.02949l-0.007373,-0.014745l-0.044235,0.012288l-0.110588,-0.002458l-0.027033,0.02949l0.014745,0.04915h0.024575v-0.022118l0.017203,-0.014745l0.022118,0.004915l0.007373,0.027033l0.022118,0.012288l0.004915,-0.027033l0.024575,-0.002458l0.004915,0.02949l0.02949,0.017203l0.086013,0.115504l0.004915,0.027033l-0.017203,0.012288l-0.002458,0.031948l0.014745,0.036863l-0.004915,0.100758l-0.024575,0.044235l-0.031948,0.086013l0.012288,0.068811l0.034405,0.024575l0.012288,-0.02949Z "/>
</svg>
