<svg xmlns="http://www.w3.org/2000/svg" viewBox="2165.510 1151.277 1.067 2.685">
  <path d="M2166.142595,1151.403103l0.006168,-0.040091l0.067847,-0.021588l0.11719,0.030839l0.052427,0.046259l0.074015,0.003084l0.052427,-0.052427l0.012336,-0.083267l0.027756,-0.009252l0.024672,0.049343l-0.021588,0.058595l-0.033923,0.01542l-0.030839,0.052427l0.021588,0.098686l-0.009252,0.11719l-0.086351,0.317647l-0.027756,0.018504l-0.003084,0.030839l0.049343,0.092518l-0.006168,0.021588l-0.024672,0.018504l-0.024672,0.070931l-0.027756,0.215876l-0.037007,0.104854l-0.030839,0.021588l-0.009252,0.043175l0.009252,0.033923l-0.086351,0.280639l-0.070931,0.086351l-0.055511,0.111022l-0.095602,0.252884l-0.012336,0.077099l0.012336,0.10177l-0.018504,0.141862l-0.024672,0.098686l-0.040091,0.089435l0.009252,0.052427l-0.01542,0.009252l-0.021588,-0.033923l-0.049343,-0.009252l-0.095602,0.018504l-0.064763,-0.01542l-0.024672,-0.043175h-0.033923l-0.030839,0.018504l-0.052427,-0.033923l0.006168,-0.033923l0.027756,-0.024672l0.033923,0.009252l0.030839,-0.012336l0.043175,-0.061679l-0.006168,-0.049343l-0.067847,-0.040091l0.01542,-0.027756l0.043175,-0.012336l0.049343,-0.141862l0.030839,-0.172701l-0.040091,-0.083267l0.006168,-0.027756l0.027756,-0.012336l0.003084,-0.027756l-0.037007,-0.024672l0.01542,-0.024672l0.120274,-0.049343l0.021588,-0.074015l-0.033923,-0.058595l0.009252,-0.064763l-0.043175,-0.061679l-0.003084,-0.037007l0.033923,-0.009252l0.012336,-0.027756l-0.021588,-0.046259l0.01542,-0.067847l-0.006168,-0.052427l0.01542,-0.086351l0.040091,-0.01542l0.009252,-0.037007l-0.040091,-0.018504l0.009252,-0.021588l0.046259,-0.024672l0.01542,-0.095602l0.040091,-0.092518l0.033923,-0.018504l0.052427,-0.104854l-0.01542,-0.043175l0.01542,-0.043175l0.064763,-0.012336l0.018504,-0.040091l-0.080183,-0.089435l0.012336,-0.067847l-0.046259,-0.040091l0.01542,-0.021588l0.074015,-0.021588l0.01542,-0.027756l-0.024672,-0.021588l-0.064763,-0.009252v-0.033923l0.030839,-0.018504l0.058595,-0.003084l0.043175,-0.052427l0.052427,-0.018504l0.003084,-0.027756l-0.052427,-0.033923Z "/>
</svg>
