<svg xmlns="http://www.w3.org/2000/svg" viewBox="2066.567 1023.858 30.741 35.137">
  <path d="M2073.220725,1035.485263l0.037118,-0.064957h0.083516l0.027839,0.064957l-0.083516,0.046398l-0.064957,-0.046398Z M2072.302045,1035.012003l0.074237,-0.037118l-0.037118,-0.083516l-0.083516,-0.00928l-0.018559,0.074237l0.064957,0.055678Z M2072.691788,1034.733615h0.139194l0.074237,-0.102076l-0.018559,-0.250549l0.00928,-0.129914l0.092796,-0.157753l0.074237,-0.269108l-0.027839,-0.668131l-0.074237,-0.00928l-0.120635,0.269108v0.213431l-0.092796,0.157753l-0.111355,0.00928l-0.064957,-0.064957l-0.083516,0.018559l-0.037118,0.092796l0.092796,0.426862v0.194872l0.046398,0.204151l0.102076,0.064957Z M2073.378479,1033.629343l0.23199,0.148474l0.167033,0.00928l0.250549,-0.129914l0.139194,-0.250549l0.00928,-0.148474l-0.102076,-0.194872l-0.380464,-0.037118l-0.111355,0.064957l0.018559,0.148474l-0.092796,0.120635l-0.176312,0.027839l-0.046398,0.083516l0.092796,0.157753Z M2092.024289,1027.59451l0.043305,-0.00928l-0.003093,-0.027839l-0.043305,-0.006186l-0.024746,0.021652l0.027839,0.021652Z M2073.749663,1035.735812h0.22271l0.194872,-0.148474l0.324786,-0.037118l0.24127,0.083516l0.074237,-0.046398l-0.129914,-0.204151l-0.371184,-0.167033l-0.24127,-0.287668l-0.064957,-0.269108l-0.055678,-0.111355l-0.092796,0.037118l-0.037118,0.361904l-0.278388,0.361904l-0.00928,0.334066l0.22271,0.092796Z M2066.966275,1030.882581l0.139194,0.074237l0.037118,0.120635l0.176312,0.157753l0.027839,-0.064957l-0.046398,-0.102076l0.037118,-0.064957l0.296947,-0.176312l0.315506,-0.074237l0.278388,-0.269108l0.148474,-0.055678l0.102076,-0.074237l0.018559,-0.129914l0.157753,-0.296947l0.055678,-0.426862l-0.037118,-0.102076l-0.102076,-0.037118l-0.074237,-0.167033l0.018559,-0.23199l0.139194,-0.24127v-0.120635l-0.167033,-0.250549l-0.037118,-0.361904l0.064957,-0.436141l-0.018559,-0.139194l-0.380464,-0.371184l-0.556776,-0.250549l-0.167033,-0.00928l-0.083516,0.111355l0.046398,0.185592l-0.018559,0.22271l-0.194872,0.306227l-0.315506,0.120635l-0.074237,0.129914l0.129914,0.677411l-0.018559,0.259829l-0.148474,0.399023l0.018559,0.334066l0.176312,0.157753l0.129914,0.269108l-0.018559,0.436141l-0.120635,0.194872l0.064957,0.296947Z M2066.60437,1027.616162l0.074237,0.055678l0.037118,-0.064957l-0.027839,-0.064957h-0.074237l-0.00928,0.074237Z M2083.530361,1024.071355l0.027839,-0.041758l-0.037118,-0.032479l-0.051038,0.018559l0.013919,0.051038l0.046398,0.00464Z M2066.62293,1027.476968l0.074237,-0.027839l0.037118,-0.064957h-0.092796l-0.074237,0.064957l0.055678,0.027839Z M2085.153566,1025.942934l0.029579,0.022184l0.051763,-0.019719l0.061622,-0.091201l-0.032044,-0.019719l-0.083806,0.044368l-0.027114,0.064087Z M2087.464912,1024.048156l0.064957,-0.064957l0.00464,-0.111355l-0.055678,-0.013919l-0.051038,0.037118l-0.032479,0.125275l0.069597,0.027839Z M2088.417617,1026.332484l0.018559,-0.034025l-0.027839,-0.043305l-0.037118,0.012373l-0.006186,0.049491l0.052584,0.015466Z M2088.386685,1026.205663l0.043305,-0.018559l0.003093,-0.052584l-0.049491,-0.003093l-0.030932,0.052584l0.034025,0.021652Z M2089.453839,1025.794267l0.06805,0.003093l0.058771,-0.074237l-0.049491,-0.080423l-0.092796,-0.012373l-0.030932,0.083516l0.046398,0.080423Z M2089.292993,1025.979859l0.102076,-0.003093l0.07733,-0.034025l-0.00928,-0.064957l-0.089703,-0.006186l-0.07733,0.027839l-0.030932,0.052584l0.027839,0.027839Z M2089.633245,1025.992232l0.00928,0.089703l0.046398,0.052584l0.151567,-0.034025l0.080423,-0.157753l-0.012373,-0.108262l-0.133008,-0.064957l-0.139194,0.037118l-0.061864,0.071144l-0.003093,0.074237l0.061864,0.040212Z M2093.45644,1027.678026l0.14538,0.030932l0.139194,-0.012373l0.024746,-0.052584l-0.092796,-0.071144l-0.201058,-0.027839l-0.058771,0.018559l-0.003093,0.058771l0.046398,0.055678Z M2094.016309,1027.390358l0.108262,-0.024746l0.07733,-0.074237l-0.037118,-0.064957l-0.120635,-0.034025l-0.046398,0.030932l-0.006186,0.080423l-0.071144,0.030932l0.003093,0.043305l0.092796,0.012373Z M2095.501045,1032.030158l0.061864,-0.030932v-0.061864l-0.074237,-0.006186l-0.030932,0.055678l0.043305,0.043305Z M2096.345489,1029.666954l0.064957,-0.064957l-0.037118,-0.074237l-0.092796,-0.018559l-0.064957,0.083516l0.027839,0.092796l0.102076,-0.018559Z M2092.438777,1030.808344l0.129914,-0.129914l-0.00928,-0.092796l0.157753,-0.278388l-0.055678,-0.074237l-0.083516,0.037118l-0.092796,0.287668l-0.120635,0.120635l-0.018559,0.120635l0.092796,0.00928Z M2093.30178,1032.54363l0.204151,-0.046398l0.046398,-0.102076l-0.102076,-0.064957l-0.139194,0.027839l-0.148474,-0.027839l-0.111355,0.018559l0.092796,0.157753l0.157753,0.037118Z M2093.645125,1032.218844l0.092796,-0.064957l-0.037118,-0.102076l-0.102076,0.00928l-0.055678,0.111355l0.102076,0.046398Z M2096.020703,1032.265242h0.167033l0.046398,-0.064957l-0.064957,-0.120635h-0.120635l-0.092796,0.139194l0.064957,0.046398Z M2094.93499,1034.464507l0.204151,0.00928l0.176312,0.185592l0.120635,-0.055678l0.018559,-0.148474l0.23199,-0.23199l-0.00928,-0.204151l0.102076,-0.204151l-0.083516,-0.018559l-0.139194,0.102076l-0.194872,-0.046398l-0.417582,0.092796l-0.148474,0.148474l-0.00928,0.074237l0.120635,0.120635l0.027839,0.176312Z M2091.724248,1036.366825l0.064957,-0.111355l0.00928,-0.102076l-0.074237,0.027839l-0.102076,0.148474l0.018559,0.074237l0.083516,-0.037118Z M2094.805075,1035.847167l0.092796,-0.027839l0.102076,-0.064957l-0.074237,-0.055678l-0.139194,0.055678l-0.064957,0.074237l0.083516,0.018559Z M2096.348582,1034.022179l0.055678,0.061864l0.043305,-0.043305l-0.024746,-0.123728l-0.074237,-0.018559l-0.037118,0.049491l0.037118,0.074237Z M2096.218668,1034.059298l0.030932,-0.142287l-0.049491,-0.018559l-0.043305,0.055678l-0.012373,0.129914l0.074237,-0.024746Z M2094.604017,1033.805655l0.080423,-0.012373l-0.105169,-0.117542l-0.098982,-0.006186v0.06805l0.123728,0.06805Z M2094.053428,1032.883882l0.117542,-0.037118l0.123728,-0.080423l-0.06805,-0.024746l-0.173219,0.049491l-0.061864,0.08661l0.061864,0.006186Z M2094.863846,1032.438461l0.049491,-0.030932l-0.018559,-0.092796l-0.061864,0.012373l-0.030932,0.080423l0.061864,0.030932Z M2095.142234,1032.339478l0.08661,-0.024746l-0.043305,-0.043305l-0.142287,0.024746l-0.024746,0.049491l0.123728,-0.006186Z M2095.748501,1031.999226l0.092796,0.006186l0.061864,-0.061864l-0.08661,-0.061864l-0.142287,0.006186l0.006186,0.080423l0.06805,0.030932Z M2093.46572,1031.504314l0.08661,-0.030932l0.055678,-0.043305l-0.049491,-0.043305l-0.142287,0.030932l-0.012373,0.074237l0.061864,0.012373Z M2093.991564,1031.522874l0.049491,-0.037118l0.006186,-0.061864l-0.061864,-0.055678l-0.055678,0.030932v0.092796l0.061864,0.030932Z M2092.84708,1032.401342l-0.024746,-0.098982l-0.061864,-0.006186l-0.024746,0.061864l0.06805,0.092796l0.043305,-0.049491Z M2093.22445,1030.13712l0.006186,0.055678l0.098982,0.006186l0.105169,0.08661l0.191778,-0.049491l0.123728,0.098982l0.080423,0.185592l-0.018559,0.204151l0.049491,0.030932l0.136101,-0.043305l0.173219,0.105169l0.105169,0.210338l-0.030932,0.266015l0.018559,0.08661l0.098982,0.080423l0.024746,0.136101l-0.049491,0.123728l0.049491,0.160846l0.272202,0.173219l0.24127,0.080423l0.22271,-0.037118l0.228897,-0.123728l0.049491,-0.185592l0.160846,-0.136101l0.247456,0.006186l0.111355,0.043305l0.018559,0.06805l0.074237,0.043305l0.284574,-0.098982l0.043305,-0.092796l-0.111355,-0.22271l-0.129914,-0.482539l-0.06805,-0.346438l-0.037118,-0.587708l0.080423,-0.148474l0.030932,-0.129914l-0.049491,-0.006186l-0.08661,0.037118l-0.179406,-0.018559l-0.278388,-0.117542l-0.142287,-0.012373l-0.303134,-0.247456l-0.30932,-0.414489l-0.24127,-0.24127l-0.235083,-0.296947l-0.210338,-0.185592l-0.123728,-0.228897l-0.123728,-0.123728l-0.092796,0.012373l-0.129914,0.160846l-0.24127,0.098982l-0.15466,-0.06805l-0.037118,0.061864l0.105169,0.179406l-0.111355,0.142287l-0.037118,0.204151l-0.06805,0.074237h-0.129914l-0.24127,0.136101l-0.173219,0.179406l0.024746,0.117542l0.266015,0.160846l0.105169,0.024746l0.197965,-0.098982l0.160846,0.030932l0.185592,0.253642l0.06805,0.296947l-0.037118,0.136101l-0.259829,0.185592Z M2095.767061,1031.807448l0.092796,-0.012373l-0.018559,-0.061864l-0.06805,-0.012373l-0.049491,0.043305l0.043305,0.043305Z M2094.140037,1033.304557l0.111355,-0.043305l0.148474,0.06805l0.043305,0.167033l0.24127,0.06805l0.259829,-0.098982l0.080423,0.030932l0.030932,0.074237l0.049491,0.012373l0.321693,-0.129914l0.06805,0.024746l0.105169,0.15466l0.098982,0.006186l0.15466,-0.160846l0.191778,-0.111355l0.136101,0.006186l0.123728,0.160846l0.030932,0.191778l0.055678,0.111355l0.08661,0.012373l0.012373,-0.055678l0.123728,-0.037118l0.098982,0.061864l0.061864,-0.024746l0.030932,-0.098982l0.173219,-0.105169l0.018559,-0.098982l0.117542,-0.043305l0.15466,0.006186l0.037118,-0.061864l-0.129914,-0.074237l-0.055678,-0.111355l-0.012373,-0.197965l-0.043305,-0.055678l-0.191778,-0.037118l-0.247456,-0.22271l-0.080423,-0.160846l-0.15466,-0.15466l-0.148474,0.006186l-0.315506,0.197965l-0.105169,0.030932l-0.191778,-0.08661l-0.080423,0.037118l-0.043305,0.15466l-0.111355,0.049491l-0.334066,-0.105169l-0.389743,0.043305l-0.179406,0.129914l-0.30932,0.123728l-0.123728,0.123728l0.006186,0.179406l0.074237,0.043305Z M2094.230645,1051.560226l0.069859,0.009137l0.153689,-0.118785l0.149032,-0.027412l0.13506,0.009137l0.05123,-0.036549l-0.009315,-0.137059l-0.10246,-0.123353l-0.060544,-0.041118l0.023286,-0.10051l0.121089,-0.054824l0.302722,0.022843l0.074516,-0.009137l0.088488,-0.091373l-0.023286,-0.054824l-0.125746,-0.137059l-0.027944,-0.159903l-0.116431,-0.16904l-0.172318,-0.022843l-0.107117,-0.091373l-0.074516,0.009137l-0.116431,0.26955l-0.116431,0.105079l-0.004657,0.063961l0.055887,0.082236v0.082236l-0.10246,0.086804v0.050255l0.046573,0.022843l0.107117,-0.06853h0.069859l0.046573,0.095942l-0.023286,0.073098l-0.153689,0.054824l-0.05123,0.173609l-0.083831,0.077667l-0.023286,0.155334Z M2074.66525,1036.004921l0.049491,0.105169l0.173219,0.071144l0.14538,0.006186l-0.003093,-0.040212l-0.170126,-0.120635l-0.15466,-0.182499l-0.027839,0.00928l-0.012373,0.151567Z M2096.005237,1048.40556l0.064957,0.021652l0.037118,0.052584l0.126821,0.06805l0.108262,-0.027839l0.015466,-0.034025l-0.034025,-0.095889l-0.052584,-0.058771l-0.043305,-0.126821l-0.07733,-0.052584l-0.071144,-0.00928l-0.083516,0.024746l-0.185592,-0.012373l-0.080423,0.074237l-0.003093,0.105169l0.08661,0.074237l0.126821,0.003093l0.064957,-0.006186Z M2094.16974,1048.831008l0.129597,-0.205831l0.013919,-0.088156l-0.046398,-0.194872l-0.060317,-0.051038l-0.032479,-0.060317l0.069597,-0.125275l0.069597,-0.245909l-0.046398,-0.064957l-0.00928,-0.102076l0.190232,-0.283028l0.134554,-0.060317l0.097436,-0.167033l0.013919,-0.064957l-0.013919,-0.296947l-0.032479,-0.069597l0.00928,-0.088156l0.24127,-0.125275l0.491819,-0.00928l0.343345,0.088156l0.027839,0.074237l0.051038,0.027839l0.088156,-0.027839l0.199511,0.111355l0.026292,0.066504l-0.194872,0.136101l-0.052584,0.083516l0.003093,0.049491l0.071144,0.00928l0.102076,0.139194l0.00928,0.064957l-0.046398,0.071144l-0.027839,0.080423l-0.136101,0.108262l-0.027839,0.089703l0.055678,0.120635l0.123728,0.030932l0.06805,0.080423l0.003093,0.06805l0.049491,0.027839l0.071144,-0.015466l0.08661,-0.14538v-0.111355l0.052584,-0.120635l0.092796,-0.043305l0.021652,-0.040212v-0.108262l0.043305,-0.089703l0.003093,-0.083516l-0.027839,-0.030932l-0.083516,-0.006186l-0.142287,-0.064957l-0.07733,0.006186l-0.027839,-0.030932l0.021652,-0.06805l0.083516,-0.021652l0.040212,-0.071144l-0.003093,-0.105169l0.027839,-0.024746l0.06805,-0.003093l0.061864,-0.089703l-0.00928,-0.06805l-0.117542,-0.126821l-0.021652,-0.102076l-0.083516,-0.191778l-0.102076,-0.058771l-0.064957,-0.133008l0.003093,-0.306227l0.046398,-0.194872l0.111355,-0.108262l0.006186,-0.058771l-0.043305,-0.043305v-0.074237l0.114448,-0.133008l0.006186,-0.06805l-0.102076,-0.151567l-0.003093,-0.058771l0.030932,-0.058771l-0.018559,-0.040212l-0.136101,-0.089703l-0.120635,-0.160846l-0.027839,-0.24127l0.043305,-0.272202l0.117542,-0.210338l0.080423,-0.024746l0.003093,-0.040212l-0.102076,-0.092796l-0.00928,-0.139194l0.058771,-0.142287v-0.040212l-0.024746,-0.049491l0.027839,-0.256736l0.105169,-0.108262l0.043305,-0.071144l0.00928,-0.380464l-0.027839,-0.080423l-0.157753,-0.120635l-0.040212,-0.074237l0.003093,-0.089703l-0.102076,-0.290761l-0.027839,-0.213431l0.092796,-0.445421l0.117542,-0.361904l0.074237,-0.074237l0.102076,-0.380464l0.120635,-0.170126l0.07733,-0.049491l0.018559,-0.052584l-0.034025,-0.030932l-0.129914,0.030932l-0.021652,0.105169l-0.191778,0.216524l-0.176312,0.136101l-0.102076,0.003093l-0.102076,-0.092796l0.027839,-0.040212l0.089703,-0.015466l0.06805,-0.052584l0.049491,-0.235083l0.037118,-0.021652l0.074237,0.043305l0.024746,0.126821l0.046398,0.003093l0.046398,-0.129914l0.136101,-0.114448l0.024746,-0.117542l-0.055678,-0.046398l-0.071144,0.015466l-0.071144,-0.00928l-0.102076,-0.06805l-0.120635,-0.361904l0.006186,-0.074237l0.064957,-0.111355l-0.003093,-0.095889l-0.083516,-0.117542l0.006186,-0.23199l0.182499,-0.371184l0.006186,-0.083516l-0.024746,-0.061864l0.027839,-0.157753l0.179406,-0.250549l0.108262,-0.083516l-0.015466,-0.021652l-0.071144,0.003093l-0.049491,-0.034025l-0.123728,-0.204151l-0.006186,-0.126821l-0.046398,-0.058771l-0.083516,-0.043305l-0.105169,-0.15466l-0.034025,-0.139194l-0.049491,-0.049491l-0.108262,-0.024746l-0.111355,-0.136101l0.015466,-0.123728l-0.021652,-0.049491l-0.092796,-0.030932l-0.08661,-0.046398l-0.074237,-0.080423l-0.046398,0.003093l-0.00928,0.058771l-0.030932,0.021652h-0.061864l-0.148474,-0.061864l-0.15466,-0.160846l-0.080423,-0.191778l-0.16394,-0.111355h-0.098982l-0.089703,-0.030932l-0.105169,-0.098982l-0.095889,-0.021652l-0.126821,-0.061864l-0.173219,-0.027839l-0.064957,0.024746l-0.074237,0.003093l-0.040212,-0.021652l-0.037118,0.00928l0.006186,0.040212l0.098982,0.055678l0.027839,0.040212l-0.012373,0.083516l-0.055678,0.034025l-0.030932,0.046398l0.00928,0.089703l-0.117542,0.244363l-0.238176,0.306227l-0.324786,0.191778l-0.173219,0.012373l-0.219617,-0.061864l-0.182499,-0.148474l-0.108262,-0.003093l-0.126821,0.027839l-0.114448,-0.034025l-0.071144,-0.142287l-0.114448,-0.105169l-0.071144,-0.006186l-0.23199,0.133008l-0.185592,0.052584l-0.07733,0.114448l-0.027839,0.098982l-0.247456,0.414489l-0.281481,0.330972l-0.3186,0.210338l-0.253642,0.06805l-0.142287,-0.037118l-0.030932,-0.102076l-0.034025,-0.046398l-0.117542,-0.037118l-0.071144,-0.052584l-0.052584,-0.219617l-0.043305,-0.012373l-0.108262,0.074237l-0.136101,0.046398l-0.123728,-0.037118l-0.027839,-0.058771l-0.058771,-0.00928l-0.129914,0.08661l-0.089703,0.151567l-0.148474,0.151567l-0.139194,0.049491l-0.157753,0.089703l-0.167033,0.00928l-0.210338,-0.117542l-0.176312,-0.021652l-0.052584,0.024746h-0.055678l-0.111355,-0.061864l-0.126821,-0.003093l-0.071144,-0.043305l-0.129914,0.003093l-0.102076,0.080423l-0.238176,0.228897l-0.176312,0.055678l-0.204151,-0.006186l-0.114448,-0.052584l-0.052584,0.00928l-0.216524,0.126821l-0.098982,0.108262l-0.120635,0.055678l-0.105169,-0.027839v0.030932l0.06805,0.071144v0.061864l0.07733,0.14538l0.061864,0.148474l0.00928,0.105169l0.089703,0.07733l0.133008,0.040212l0.080423,-0.049491l0.08661,-0.006186l0.142287,0.08661l0.148474,0.15466l0.176312,0.105169l0.055678,0.061864l-0.021652,0.021652l-0.061864,-0.024746l-0.105169,0.006186l-0.046398,0.037118v0.092796l-0.037118,0.055678l-0.003093,0.064957l0.043305,0.012373l0.080423,-0.052584l0.030932,0.006186l0.018559,0.120635l0.089703,0.052584l0.071144,0.006186l0.157753,0.129914l0.114448,0.188685l-0.018559,0.06805l-0.074237,0.012373l-0.123728,0.108262l0.00928,0.06805l0.120635,0.052584l0.216524,0.00928l0.083516,0.061864l0.00928,0.061864l0.030932,0.024746l0.108262,-0.034025l0.074237,0.043305l0.021652,0.052584l-0.021652,0.061864l0.012373,0.120635l0.102076,0.170126l0.105169,0.08661l0.00928,0.034025l-0.095889,-0.012373l-0.133008,-0.080423l-0.046398,-0.262922l0.012373,-0.123728l-0.052584,-0.030932l-0.07733,0.034025l-0.120635,0.030932l-0.08661,-0.046398l-0.055678,-0.117542l-0.034025,-0.027839l-0.120635,-0.015466l-0.102076,-0.058771l-0.021652,-0.074237l0.055678,-0.228897l-0.06805,-0.105169l-0.120635,-0.049491l-0.071144,-0.080423l-0.00928,-0.074237l-0.040212,-0.049491l-0.074237,-0.018559l-0.105169,-0.114448l-0.003093,-0.083516l0.092796,-0.15466l0.024746,-0.06805l-0.07733,-0.102076l-0.179406,-0.071144l-0.071144,0.00928l-0.006186,0.064957l-0.080423,0.052584h-0.092796l-0.027839,0.021652l0.052584,0.08661l-0.024746,0.046398l-0.034025,-0.006186l-0.08661,-0.123728l-0.003093,-0.14538l-0.064957,-0.058771l-0.133008,0.006186l-0.114448,0.07733l-0.034025,-0.00928l0.098982,-0.108262l0.117542,-0.040212l0.046398,-0.034025l-0.078877,-0.24127l-0.199511,-0.180952l-0.106715,0.00928l-0.092796,-0.018559l-0.162393,-0.106715l-0.046398,0.013919l0.00928,0.064957l-0.083516,0.115995l-0.139194,0.069597l-0.139194,-0.027839l-0.074237,0.037118l-0.060317,0.194872l-0.22735,0.162393l-0.176312,0.018559l-0.064957,0.046398l0.023199,0.060317l0.069597,-0.027839l0.129914,-0.00928l0.027839,0.037118l-0.092796,0.078877l-0.032479,0.176312l0.00464,0.180952l-0.051038,0.171673l-0.032479,0.051038l-0.032479,-0.023199l0.037118,-0.148474l-0.027839,-0.060317l0.00928,-0.190232l-0.046398,-0.167033l-0.115995,-0.088156l-0.00464,-0.171673l-0.018559,-0.106715l-0.060317,-0.00464l-0.055678,0.088156l-0.315506,0.190232l-0.24127,0.027839l-0.250549,0.083516l-0.22735,-0.00928l-0.22735,-0.115995l-0.102076,-0.00464l-0.064957,0.027839h-0.115995l-0.092796,-0.037118l-0.115995,-0.00928l-0.153113,0.060317l-0.380464,-0.051038l-0.273748,-0.153113l-0.013919,-0.055678l-0.106715,-0.064957l-0.157753,-0.013919l-0.491819,-0.245909l-0.078877,-0.083516l-0.22735,-0.083516l-0.134554,-0.032479l-0.115995,0.013919l-0.106715,-0.041758l-0.064957,-0.083516l-0.171673,-0.064957l-0.208791,-0.018559l-0.162393,-0.055678l-0.24127,-0.148474l-0.078877,-0.102076l-0.22735,-0.106715l-0.092796,-0.111355l0.027839,-0.129914l-0.037118,-0.064957l-0.148474,-0.046398l-0.292307,-0.00464l-0.22735,-0.060317l-0.255189,-0.120635l-0.148474,-0.00464l-0.092796,-0.064957l-0.027839,-0.069597l-0.106715,-0.078877l-0.095889,-0.167033l-0.021652,-0.102076l-0.061864,-0.015466l-0.176312,0.120635l-0.216524,-0.003093l-0.188685,-0.111355l-0.185592,-0.037118l-0.269108,-0.018559l-0.160846,-0.074237l-0.111355,-0.126821l-0.098982,-0.182499l-0.024746,0.015466l0.034025,0.117542l-0.00928,0.06805l-0.049491,-0.012373l-0.07733,-0.120635l0.040212,-0.142287l0.052584,-0.089703l0.034025,-0.043305l0.06805,0.006186l0.040212,-0.046398l-0.046398,-0.08661l0.015466,-0.111355l-0.043305,-0.043305l-0.058771,-0.012373l-0.102076,-0.083516l-0.058771,-0.08661l-0.052584,0.018559l-0.003093,0.083516l0.105169,0.179406l-0.015466,0.30932l-0.061864,0.108262l-0.111355,0.080423l-0.083516,-0.006186l-0.003093,-0.034025l0.120635,-0.046398l0.083516,-0.089703l-0.027839,-0.00928l-0.185592,0.06805l-0.24127,0.040212l-0.244363,-0.015466l-0.191778,-0.058771l-0.006186,0.030932l0.120635,0.052584l0.157753,0.097436l-0.00928,0.041758l-0.153113,-0.00464l-0.069597,0.055678h-0.069597l-0.046398,-0.092796l-0.074237,-0.027839l-0.213431,-0.018559l-0.074237,-0.157753l-0.083516,-0.041758l-0.064957,0.027839l-0.064957,-0.00928l-0.074237,-0.153113l-0.180952,-0.180952l-0.069597,-0.00464l-0.069597,0.064957l-0.23663,0.060317l-0.069597,-0.00928l-0.092796,-0.078877l-0.366544,-0.088156l-0.046398,-0.120635l-0.074237,-0.046398l-0.088156,0.027839l-0.055678,-0.013919l-0.018559,-0.064957l-0.092796,-0.032479l-0.074237,0.027839l0.018559,0.083516l-0.046398,0.134554l-0.032479,-0.027839l-0.00464,-0.204151l-0.013919,-0.064957l-0.125275,-0.041758l-0.027839,-0.064957l-0.00464,-0.088156l-0.097436,-0.22271l-0.046398,-0.00928l-0.055678,0.060317l-0.139194,0.060317l-0.032479,0.092796l0.041758,0.092796l-0.00464,0.069597l-0.074237,0.078877l-0.018559,0.134554l0.055678,0.22271l0.083516,0.018559l0.051038,0.055678l-0.046398,0.482539l0.083516,0.157753l-0.046398,0.250549l-0.176312,0.278388l-0.371184,0.157753l-0.027839,0.111355l0.083516,0.167033l-0.00928,0.287668l-0.102076,0.092796v0.102076l0.380464,0.389743l0.046398,0.24127l-0.055678,0.23199l0.00928,0.278388l0.129914,0.204151l0.00928,0.111355l-0.037118,0.139194l0.027839,0.204151l0.095889,0.092796l0.197965,0.488726l0.24127,0.327879l0.049491,0.266015l-0.074237,0.111355l-0.142287,0.043305l-0.012373,0.080423l0.129914,0.061864l0.129914,0.136101l0.53203,0.828978l0.22271,0.501098v0.185592l0.148474,0.259829l-0.061864,0.136101l0.117542,0.24127l0.210338,0.024746l0.22271,0.30932l0.049491,0.160846l0.383557,0.37737l0.074237,0.204151l0.334066,0.346438l0.15466,0.105169l0.327879,0.30932l0.204151,0.346438l0.094891,0.426862l0.074516,0.462956l-0.043468,0.450773l-0.1925,0.261936l0.024839,0.091373l0.217339,0.073098l0.111774,-0.012183l0.00621,-0.091373l-0.074516,-0.097464l0.018629,-0.07919l0.242177,-0.152288l0.024839,-0.127922h0.062097l0.049677,0.097464l0.117984,0.030458l0.074516,0.164471l0.031048,0.23757l-0.037258,0.07919l0.037258,0.115739l0.105564,0.060915l0.235968,0.255844l0.037258,0.140105l0.055887,0.054824l0.130403,0.036549l0.086935,0.091373l0.086935,0.243661l0.055887,0.018275l0.062097,-0.182746l0.080726,-0.024366l0.086935,0.127922l-0.024839,0.115739l0.043468,0.036549l0.142822,-0.121831l0.055887,0.042641l-0.217339,0.51778l-0.124193,0.030458l-0.099355,-0.042641l-0.105564,0.030458l-0.031048,0.060915l0.080726,0.304576l-0.024839,0.146197l0.031048,0.225387l-0.043468,0.012183l-0.049677,-0.07919l-0.012419,-0.286302l-0.099355,-0.298485l-0.018629,-0.341126l-0.204919,-0.182746l-0.161452,-0.024366l-0.335322,-0.23757l-0.1925,-0.194929l-0.037258,-0.146197l-0.142822,-0.103556l-0.142822,0.030458l-0.055887,-0.036549l0.00621,-0.127922l-0.043468,-0.054824l-0.080726,-0.024366l-0.211129,-0.426407l-0.117984,-0.085281l-0.093145,0.018275l-0.018629,0.067007l0.105564,0.030458l0.031048,0.073098l-0.018629,0.164471l0.031048,0.07919l0.105564,0.073098l0.037258,0.268027l-0.111774,0.152288l0.00621,0.152288l0.086935,0.091373l0.161452,0.347217l-0.012419,0.134014l0.117984,0.341126l-0.043468,0.207112l0.080726,0.231478l-0.00621,0.121831l0.149032,0.304576l0.105564,0.097464l0.037258,0.085281l-0.012419,0.176654l-0.142822,0.067007l-0.080726,0.091373l0.062097,0.060915l0.211129,-0.048732l0.161452,0.091373l0.00621,0.085281l0.049677,0.085281l0.136613,0.006092l0.062097,0.097464l0.00621,0.219295l0.124193,0.335034l-0.063649,0.124876l0.023286,0.118785l0.149032,0.114216l0.125746,0.310668l-0.013972,0.109648l0.074516,0.164471l0.018629,0.146197l0.158347,0.274119l0.130403,0.073098l0.083831,0.187315l0.004657,0.205589l0.041915,0.118785l-0.018629,0.086804l0.013972,0.041118l0.130403,-0.054824l0.10246,0.009137l0.209576,-0.091373l0.158347,0.022843l0.079173,0.077667l0.055887,0.123353l0.163004,0.173609l0.032601,0.095942l0.088488,0.10051l0.209576,0.041118l0.023286,0.06853l-0.083831,0.063961l-0.046573,0.178177l0.055887,0.109648l0.130403,0.105079l0.088488,0.013706l0.088488,-0.06853l0.060544,0.036549l-0.060544,0.118785l0.027944,0.059392l0.074516,0.027412l0.088488,0.16904l0.023286,0.114216l0.055887,0.082236l0.149032,0.022843l0.065202,0.132491l0.004657,0.10051l0.088488,0.233001l-0.004657,0.132491l0.083831,0.150765l0.130403,0.054824l0.05123,0.063961l-0.023286,0.063961l0.125746,0.091373l0.130403,-0.013706l0.228206,-0.137059l0.060544,-0.155334l-0.009315,-0.132491l-0.055887,-0.004569l-0.079173,0.050255l-0.065202,0.114216l-0.116431,0.013706l-0.037258,-0.059392l0.065202,-0.132491l0.284093,-0.109648l0.032601,-0.095942l-0.023286,-0.123353l0.060544,-0.022843l0.093145,0.086804l0.111774,0.004569l0.060544,0.050255l-0.027944,0.306099l-0.088488,0.063961l-0.018629,0.059392l0.153689,0.210158l0.209576,0.164471l0.13506,0.031981l0.158347,-0.018275l0.041915,-0.045686l-0.046573,-0.059392l0.009315,-0.06853l0.041915,-0.041118l0.060544,0.027412l0.018629,0.114216l0.083831,0.086804l0.298064,0.082236l0.069859,-0.041118l0.013972,-0.127922l0.10246,-0.205589l0.05123,-0.041118l0.041915,0.013706v0.196452l0.05123,0.031981l0.065202,-0.054824l0.069859,0.004569l0.125746,0.10051l0.023286,0.141628l-0.037258,0.06853l-0.004657,0.059392l0.041915,0.059392l-0.004657,0.077667l-0.032601,0.009137l-0.055887,-0.141628l-0.069859,-0.050255l-0.209576,0.009137l-0.046573,0.045686l0.023286,0.114216l-0.055887,0.018275l-0.111774,-0.091373l-0.009315,-0.086804l-0.055887,-0.050255l-0.330665,-0.077667l-0.251492,0.018275l-0.246835,-0.022843l-0.116431,-0.091373l-0.060544,0.004569l-0.037258,0.155334l-0.065202,0.077667l-0.204919,0.06853l-0.060544,0.091373l0.060544,0.045686l0.065202,-0.045686l0.125746,-0.018275l0.060544,0.050255v0.095942l0.032601,0.041118l0.111774,0.031981l0.046573,0.219295l0.181633,0.264981l0.013972,0.150765l0.069859,0.178177l-0.004657,0.242138l-0.060544,0.182746l0.046573,0.027412l0.069859,-0.073098h0.130403l0.083831,-0.082236l0.069859,0.004569l0.055887,0.086804l0.074516,-0.009137l-0.009315,-0.155334l0.018629,-0.063961l0.176976,-0.059392l0.05123,-0.109648l0.060544,-0.004569l0.110222,0.088327l0.111774,0.140105h0.117984l0.049677,-0.067007l-0.012419,-0.140105l0.049677,-0.109648l0.229758,-0.018275l0.111774,0.091373l-0.024839,0.085281l0.037258,0.140105l0.204919,0.073098l0.204919,-0.170563l0.173871,0.006092l0.074516,0.073098l0.279435,0.067007l0.478145,0.006092l0.117984,-0.07919l0.267016,-0.006092l0.37258,0.164471l0.003105,0.088327l0.055887,0.051778l0.086935,-0.006092l0.195605,0.15838l0.012419,0.152288l0.040363,0.018275l0.058992,-0.073098l0.058992,-0.006092l0.052782,0.024366l0.080726,0.197975l0.071411,0.048732h0.083831l0.124193,-0.121831l0.117984,-0.015229l0.195605,-0.070053l0.142822,0.024366l0.124193,0.07919l0.040363,0.106602l-0.037258,0.085281l0.021734,0.009137l0.068306,-0.048732l0.124193,-0.009137l0.037258,0.024366l0.031048,-0.006092l0.018629,-0.10051l0.09004,-0.060915l0.055887,-0.006092l0.133508,-0.103556l0.024839,-0.076144v-0.155334l-0.043468,-0.036549l-0.111774,0.07919l-0.037258,-0.006092l0.00621,-0.076144l0.021734,-0.039595l0.00621,-0.045686l-0.043468,-0.063961l0.062097,-0.231478l0.031048,0.003046l0.018629,0.118785l0.055887,0.033503l0.037258,-0.036549l0.176976,-0.039595l0.037258,-0.051778v-0.091373l0.145927,-0.152288l0.124193,-0.094419l0.031048,-0.076144l-0.052782,-0.115739l-0.217339,-0.076144l-0.124193,-0.009137l-0.093145,-0.094419v-0.112693l0.027944,-0.012183l0.083831,0.073098l0.055887,0.088327l0.065202,0.003046l0.046573,-0.060915l0.058992,-0.009137l0.080726,0.030458l0.204919,0.012183l0.021734,-0.042641l-0.049677,-0.097464l0.018629,-0.137059l0.093145,-0.143151l0.086935,-0.048732l0.074516,-0.216249l-0.012419,-0.048732l-0.152137,-0.051778l-0.049677,-0.048732l-0.055887,-0.009137l-0.058992,0.042641l-0.114879,-0.009137l-0.065202,-0.051778l0.00621,-0.054824l0.031048,-0.006092l0.068306,0.048732l0.058992,-0.006092l0.049677,-0.109648l0.19871,-0.018275l0.080726,0.02132l0.068306,0.07919l0.043468,-0.009137l0.003105,-0.094419l0.065202,-0.164471l0.093145,-0.02132l0.034153,-0.036549l0.00621,-0.07919l-0.180081,-0.085281l-0.055887,-0.124876l-0.1925,-0.106602l-0.068306,-0.091373l-0.273226,-0.146197l-0.108669,-0.103556v-0.146197l0.071411,-0.213203l-0.009315,-0.115739l0.124193,-0.185792l0.040363,0.006092l0.031048,0.048732l-0.065202,0.191883l-0.018629,0.167517l-0.068306,0.134014l0.024839,0.05787l0.139718,0.02132l0.117984,0.127922l0.161452,0.082236l0.058992,0.015229l0.121089,-0.091373l-0.018629,-0.07919l0.037258,-0.039595l-0.003105,-0.161426l0.031048,-0.018275l0.037258,0.027412l0.09625,0.28021l-0.086935,0.088327l0.003105,0.127922l0.080726,0.097464l0.142822,-0.018275l0.065202,0.067007l0.034153,0.134014l0.158347,0.088327l0.105564,-0.033503h0.065202l0.093145,0.030458l0.105564,-0.009137l0.127298,-0.088327l0.015524,-0.130968l0.10246,-0.146197l-0.024839,-0.365492l-0.09625,-0.134014l0.018629,-0.185792l0.170766,-0.23757l0.00621,-0.045686l-0.031048,-0.042641l0.027944,-0.033503l0.117984,-0.012183l0.058992,-0.070053l-0.018629,-0.112693l-0.155242,-0.076144l-0.037258,-0.067007l0.021734,-0.146197l0.043468,-0.045686l0.009315,-0.088327l-0.031048,-0.036549l0.003105,-0.048732l0.040363,-0.042641l0.046573,0.02132l0.204919,0.335034l0.083831,0.009137l0.077621,-0.051778l0.009315,-0.073098l-0.093145,-0.328943v-0.167517l0.077621,-0.07919l0.145927,-0.304576l-0.024839,-0.20102l-0.10246,-0.051778l-0.037258,-0.060915l0.00621,-0.243661l-0.071411,-0.07919l-0.015524,-0.073098l-0.108669,-0.161426l-0.124193,-0.070053l-0.09625,0.015229l-0.099355,-0.054824l0.021734,-0.115739l0.077621,-0.030458l-0.00621,-0.030458l-0.099355,-0.02132l-0.031048,-0.024366v-0.115739l-0.034153,-0.05787l-0.083831,-0.051778l-0.055887,-0.076144l-0.152137,-0.070053l-0.09004,0.009137l-0.034153,-0.027412l0.052782,-0.076144h0.049677l0.09625,0.082236l0.273226,0.106602l0.046573,0.051778l-0.012419,0.05787l0.024839,0.106602l0.077621,0.009137l0.065202,0.082236l-0.027944,0.070053l0.040363,0.076144l0.155242,0.060915l0.024839,0.054824l0.058992,0.10051l0.09625,0.060915l0.083831,0.088327l-0.012419,0.054824l0.040363,0.115739l0.068306,0.048732l0.1925,0.015229l0.121089,0.204066l-0.034153,0.130968l0.027944,0.103556l0.062097,-0.003046l0.055887,-0.082236l0.003105,-0.094419l0.037258,-0.033503l0.189395,0.006092l0.080726,0.009137l0.009315,0.063961l-0.058992,0.015229l-0.083831,0.103556l-0.062097,0.274119l0.027944,0.042641l0.105564,0.006092l0.034153,0.088327l-0.027944,0.085281l0.021734,0.10051l-0.027944,0.106602l-0.093145,0.048732l-0.105564,-0.009137l-0.071411,-0.051778l-0.058992,-0.155334l0.00621,-0.10051l-0.027944,-0.048732l-0.052782,-0.033503v-0.097464l-0.034153,0.003046l-0.046573,0.060915l-0.003105,0.039595l0.046573,0.036549l0.012419,0.054824l-0.055887,0.082236v0.045686l0.068306,0.042641l0.049677,0.070053l-0.043468,0.130968l0.049677,0.076144l0.037258,0.009137l0.130403,-0.073098l0.242177,-0.051778l0.105564,-0.051778l0.195605,-0.051778l0.037258,-0.103556l-0.024839,-0.063961l0.024839,-0.039595l0.145927,-0.048732l0.015524,-0.042641l-0.018629,-0.121831l-0.071411,-0.05787l-0.021734,-0.030458l0.00621,-0.127922l-0.083831,-0.137059l-0.161452,-0.070053l-0.018629,-0.039595l0.027944,-0.15838l0.049677,-0.051778l0.027944,-0.067007l-0.043468,-0.063961l0.009315,-0.039595l0.105564,-0.097464l0.223548,-0.088327l0.223548,0.006092l0.105564,0.045686l0.024839,-0.006092l-0.049677,-0.070053l-0.133508,-0.088327l-0.189395,-0.006092l-0.149032,0.027412l-0.071411,-0.018275l-0.083831,-0.103556h-0.034153l-0.018629,0.060915l-0.068306,0.036549l-0.077621,-0.024366l-0.012419,-0.054824l-0.043468,-0.033503l-0.065202,-0.003046l-0.074516,-0.067007l-0.046573,-0.109648v-0.067007l0.09004,-0.067007l0.037258,0.006092l-0.034153,0.106602l0.189395,0.124876l0.055887,-0.003046l0.114879,-0.10051l0.055887,0.003046l0.027944,0.054824l0.086935,0.051778l0.021734,-0.024366l-0.058992,-0.05787l0.015524,-0.05787l0.031048,-0.009137l0.108669,0.063961l0.211129,0.054824l0.068306,-0.042641l0.034153,0.015229l-0.034153,0.106602l0.031048,0.124876l0.127298,0.155334l-0.00621,0.05787l-0.062097,0.048732l0.021734,0.076144l0.167661,0.097464l0.00621,0.063961l0.034153,0.039595h0.093145l0.111774,0.067007l0.062097,0.006092l0.1925,-0.039595l0.195605,0.006092l0.105564,0.076144l0.058992,0.003046l0.052782,-0.051778l0.167661,-0.027412l0.099355,0.073098l0.027944,0.106602l-0.031048,0.05787l-0.003105,0.05787l0.114879,0.085281l0.068306,0.02132l0.074516,-0.027412l0.021734,0.018275l-0.068306,0.097464l-0.167661,0.060915l-0.027944,0.045686l0.052782,0.033503l0.093145,0.012183l0.058992,0.076144l-0.077621,0.082236l0.024839,0.103556l0.080726,0.05787l0.071411,-0.018275l0.068306,0.009137l0.133508,0.048732l-0.021734,0.018275l-0.086935,-0.012183l-0.052782,0.015229l-0.021734,0.065484l-0.074516,0.050255l-0.083831,-0.018275l-0.037258,0.045686l0.046573,0.118785l-0.069859,0.041118l-0.121089,-0.022843l-0.065202,-0.059392l-0.069859,-0.013706l-0.074516,0.018275l-0.181633,-0.063961l-0.065202,-0.041118l-0.009315,-0.10051l-0.055887,-0.045686l-0.065202,0.009137l-0.093145,-0.109648l0.023286,-0.109648l0.111774,-0.150765l0.013972,-0.082236l-0.041915,-0.10051l-0.037258,-0.013706l-0.060544,0.027412l-0.074516,-0.018275l-0.041915,-0.073098l-0.083831,-0.050255l-0.060544,0.004569l-0.05123,0.086804l0.10246,0.210158l0.013972,0.077667l-0.069859,0.114216l-0.088488,0.013706l-0.032601,-0.050255l-0.088488,0.009137l-0.121089,0.077667l-0.027944,0.114216l0.055887,0.210158l-0.027944,0.095942l0.027944,0.123353l0.176976,0.146197l0.130403,0.009137l0.074516,0.06853l0.214234,0.013706l0.10246,0.109648l-0.023286,0.073098l-0.163004,-0.004569l-0.097802,0.082236l-0.018629,0.063961l0.065202,0.105079l0.009315,0.137059l0.10246,0.164471l0.200262,0.114216l0.097802,0.009137l0.125746,0.105079l0.027944,0.109648l0.060544,0.036549l0.041915,-0.013706v-0.077667l0.027944,-0.073098l0.260806,-0.196452l0.046573,0.004569l0.130403,0.105079l0.041915,-0.013706l-0.018629,-0.073098l-0.079173,-0.10051v-0.06853l0.069859,-0.10051l-0.013972,-0.031981l-0.060544,0.036549l-0.046573,-0.013706l-0.009315,-0.06853l0.046573,-0.073098l0.023286,-0.063961l-0.032601,-0.054824l0.013972,-0.063961l0.041915,-0.013706l0.025423,0.015795l0.016742,0.010401l0.01744,0.010835l0.080112,0.049772l0.060544,0.114216l-0.004657,0.328943l0.065202,0.059392l0.251492,0.050255l0.055887,0.045686l-0.004657,0.063961l0.046573,0.045686l0.316693,0.063961l0.018629,-0.036549l-0.10246,-0.045686l-0.149032,-0.146197l-0.004657,-0.109648l0.111774,-0.214726l0.083831,-0.086804l-0.009315,-0.041118l-0.116431,-0.031981h-0.130403l-0.009315,-0.041118l0.139718,-0.114216l0.004657,-0.059392l-0.060544,-0.06853l-0.144375,-0.310668l0.004657,-0.118785l-0.023286,-0.095942l-0.111774,-0.109648v-0.073098l0.158347,-0.105079l0.083831,-0.146197l0.107117,-0.027412l0.079173,-0.077667l0.009315,-0.095942l-0.05123,-0.118785l0.009315,-0.059392l0.060544,-0.036549l0.018629,-0.127922l-0.079173,-0.155334l-0.079173,-0.06853l-0.065202,-0.013706l-0.023286,-0.031981l0.018629,-0.06853l-0.023286,-0.041118l-0.153689,0.045686l-0.13506,-0.127922l-0.013972,-0.091373l-0.041915,-0.036549l-0.107117,0.018275l-0.100907,0.074621l-0.037258,0.076144l-0.083831,0.097464l0.049677,0.02132l0.068306,-0.018275l0.155242,0.059392l0.004657,0.082236l-0.055887,0.022843l-0.176976,-0.036549l-0.200262,0.013706l-0.125746,-0.013706v-0.054824l0.107117,-0.127922l0.027944,-0.114216l0.125746,-0.223864l0.037258,-0.009137l0.065202,0.105079l0.032601,0.028935l0.009315,-0.028935l-0.046573,-0.095942l-0.023286,-0.182746l0.032601,-0.210158l0.116431,-0.210158l0.125746,-0.109648l0.181633,-0.031981l0.046573,-0.091373l-0.032601,-0.159903l0.046573,-0.109648l0.079173,-0.063961l0.027944,-0.10051l-0.046573,-0.159903l-0.116431,-0.118785l-0.027944,-0.073098l0.027944,-0.091373l-0.027944,-0.10051l-0.228206,-0.251276l-0.107117,-0.06853l0.018629,-0.082236l0.153689,-0.045686l0.009315,-0.077667l-0.060544,-0.105079l0.027944,-0.036549l0.116431,0.050255l0.069859,0.178177l0.116431,0.004569l0.116431,-0.214726l0.200262,0.009137l0.05123,-0.073098l-0.083831,-0.095942l-0.004657,-0.137059l0.10246,-0.196452l-0.018629,-0.132491l-0.158347,-0.23757l0.013972,-0.077667l0.111414,-0.047423Z M2094.160786,1055.650688l0.060544,-0.028935l-0.013972,-0.045686l-0.065202,-0.016752l-0.018629,0.053301l0.037258,0.038072Z M2084.355711,1058.397967l0.074516,-0.070053l0.034153,-0.088327l-0.052782,-0.015229l-0.062097,0.051778l-0.034153,0.106602l0.040363,0.015229Z M2090.726836,1054.185675l0.037258,0.006092l0.009315,-0.067007l-0.049677,-0.085281l-0.049677,0.003046l-0.021734,0.033503l0.074516,0.109648Z M2091.763852,1053.338953l0.043468,0.009137l0.009315,-0.048732l-0.018629,-0.073098l-0.055887,-0.003046l-0.021734,0.045686l0.043468,0.070053Z M2092.676674,1053.214076l0.012419,0.036549l0.031048,0.033503l0.024839,-0.018275l-0.012419,-0.048732l-0.031048,-0.024366l-0.024839,0.02132Z M2088.46962,1056.060343l0.032601,-0.022843l0.004657,-0.045686h-0.041915l-0.027944,0.041118l0.032601,0.027412Z M2088.208814,1056.969504l0.013972,-0.054824l-0.009315,-0.054824h-0.041915l-0.018629,0.041118l0.013972,0.06853h0.041915Z M2088.28333,1057.229916l0.13506,0.223864l0.009315,0.137059l0.079173,0.050255l0.13506,-0.036549l0.088488,0.018275l0.018629,-0.050255l-0.018629,-0.077667l0.027944,-0.045686l0.060544,-0.022843l0.05123,-0.164471l0.037258,-0.031981h0.097802l0.149032,0.041118l0.037258,0.095942l-0.065202,0.109648l0.009315,0.16904l0.041915,0.031981l0.121089,0.004569l0.111774,0.059392l0.060544,0.073098l0.05123,0.004569l0.139718,-0.095942l0.032601,-0.077667l-0.023286,-0.146197l0.060544,-0.242138l0.060544,-0.059392l0.018629,-0.063961l-0.013972,-0.086804l0.046573,-0.086804l0.093145,-0.041118l0.111774,-0.118785l-0.013972,-0.233001l-0.055887,-0.027412l-0.125746,0.082236l-0.083831,-0.004569l-0.10246,-0.105079l-0.004657,-0.306099l0.069859,-0.173609l0.144375,-0.173609l0.111774,-0.123353l0.242177,-0.091373l0.074516,0.013706l0.018629,0.054824l0.041915,0.004569l0.032601,-0.105079l-0.018629,-0.210158l-0.083831,-0.063961l-0.041915,-0.095942l0.018629,-0.06853l-0.055887,-0.123353l-0.079173,-0.054824l-0.018629,-0.086804l0.032601,-0.141628l-0.018629,-0.164471l-0.167661,-0.223864l-0.009315,-0.159903l-0.083831,-0.027412l-0.214234,0.233001l-0.05123,0.196452l0.088488,0.077667l0.093145,-0.018275l0.088488,0.018275l0.009315,0.050255l-0.176976,0.10051h-0.055887l-0.069859,-0.050255l-0.139718,0.004569l-0.032601,0.045686l0.060544,0.031981l0.004657,0.059392l-0.05123,0.041118l-0.004657,0.073098l0.139718,0.054824l0.153689,-0.045686l0.041915,0.009137l0.018629,0.077667l0.10246,0.009137l0.069859,-0.045686l0.069859,-0.004569l0.037258,0.050255v0.127922l-0.041915,0.073098l-0.10246,0.009137l-0.079173,0.054824l-0.037258,0.045686l0.065202,0.082236l0.009315,0.205589l-0.176976,0.210158l-0.088488,0.073098l-0.05123,-0.018275l-0.009315,-0.210158l-0.074516,-0.155334l-0.032601,0.004569l-0.009315,0.132491l-0.065202,0.082236l-0.041915,0.159903l-0.111774,0.045686l-0.088488,0.091373l-0.023286,0.146197l-0.074516,0.073098l-0.023286,0.095942l0.018629,0.132491l-0.074516,0.10051l-0.074516,0.013706l-0.037258,-0.123353l-0.074516,-0.082236l-0.041915,0.031981l0.046573,0.16904l-0.013972,0.114216l-0.079173,0.095942l0.004657,0.109648l0.069859,0.077667l0.004657,0.086804l-0.088488,0.164471l-0.088488,0.013706l-0.055887,-0.041118l-0.144375,-0.278687l-0.125746,-0.063961l-0.079173,0.050255l0.009315,0.091373l0.111774,0.077667Z M2083.287647,1058.586804l0.080726,-0.054824l0.00621,-0.07919l-0.068306,-0.036549l-0.136613,0.036549l-0.012419,0.097464l0.130403,0.036549Z M2082.772244,1058.994937l0.00621,-0.054824l-0.018629,-0.091373l-0.043468,0.030458l-0.00621,0.115739h0.062097Z M2080.713737,1057.143112l0.043468,-0.054824l-0.003105,-0.076144l-0.031048,-0.015229l-0.043468,0.039595l-0.009315,0.076144l0.043468,0.030458Z M2089.320832,1036.580256h0.051038v-0.037118l-0.051038,-0.023199l-0.037118,0.023199l0.037118,0.037118Z M2072.525915,1034.767254l0.027114,-0.017254l-0.019719,-0.059157l-0.029579,0.00986l-0.00493,0.049298l0.027114,0.017254Z M2072.281891,1034.441888l0.034509,-0.007395l0.002465,-0.029579l-0.029579,-0.00986l-0.027114,0.024649l0.019719,0.022184Z M2070.033183,1033.722139l0.051038,0.00464l0.00464,-0.032479l-0.041758,-0.023199l-0.046398,0.013919l0.032479,0.037118Z "/>
</svg>
