<svg xmlns="http://www.w3.org/2000/svg" viewBox="1244.715 291.960 12.810 8.681">
  <path d="M1248.74011,299.961289l0.054456,0.014789l0.014852,0.027114l-0.022277,0.022184l-0.039604,-0.012324l-0.027228,-0.034509l0.019802,-0.017254Z M1244.863916,296.483904l0.066783,0.055678l0.037274,-0.00464l0.009319,-0.055678l-0.032615,-0.051038l-0.051252,-0.00464l-0.023296,0.023199l-0.006212,0.037118Z M1245.283253,296.044669l0.040381,-0.012373l0.009319,-0.046398l-0.031062,-0.034025l-0.027956,0.006186l-0.021743,0.055678l0.031062,0.030932Z M1244.814217,296.347803l0.071443,0.024746l0.021743,-0.021652l-0.034168,-0.037118l-0.083867,-0.018559l-0.012425,0.024746l0.037274,0.027839Z M1244.761412,296.715894l0.052805,0.015466l0.031062,-0.00928l-0.012425,-0.027839l-0.055912,-0.024746l-0.02485,0.018559l0.009319,0.027839Z M1244.721031,296.623098l0.027956,0.018559l0.021743,-0.015466l-0.006212,-0.030932l-0.027956,-0.012373l-0.021743,0.018559l0.006212,0.021652Z M1245.500687,296.610725l0.040381,-0.003093l0.021743,-0.015466l-0.009319,-0.024746l-0.046593,-0.006186l-0.027956,0.030932l0.021743,0.018559Z M1255.764823,292.028052l0.015531,0.052584h0.031062l0.015531,-0.055678l-0.012425,-0.058771l-0.02485,-0.006186l-0.02485,0.06805Z M1255.74803,300.087482l0.062124,-0.006186l0.015531,-0.024746l-0.027956,-0.021652l-0.055912,0.00928l-0.018637,0.021652l0.02485,0.021652Z M1256.853837,300.641165l0.046593,-0.015466l0.040381,-0.027839l-0.003106,-0.021652h-0.055912l-0.043487,0.027839l-0.012425,0.030932l0.027956,0.006186Z M1256.903536,300.498877h0.046593l0.018637,-0.021652l-0.018637,-0.024746h-0.046593l-0.021743,0.021652l0.021743,0.024746Z M1257.468864,299.345114l0.040381,0.00928l0.015531,-0.024746l-0.015531,-0.034025l-0.034168,-0.006186l-0.021743,0.027839l0.015531,0.027839Z M1257.152032,300.269981l0.034168,-0.006186l0.009319,-0.024746l-0.021743,-0.015466h-0.027956l-0.015531,0.027839l0.021743,0.018559Z M1256.16892,293.027253l0.060571,0.00464l0.069889,-0.027839l0.018637,-0.051038l-0.037274,-0.027839l-0.139779,-0.00464l-0.060571,0.013919l-0.004659,0.041758l0.093186,0.051038Z M1256.294721,293.305641l0.149097,0.032479l0.097845,-0.041758l0.018637,-0.037118l-0.069889,-0.092796l-0.111823,-0.037118l-0.153757,0.041758l-0.023296,0.064957l0.093186,0.069597Z M1255.032052,293.231404l0.069889,0.027839l0.088527,-0.018559l0.004659,-0.051038l-0.051252,-0.032479l-0.107164,0.00464l-0.027956,0.032479l0.023296,0.037118Z M1255.996526,293.263882l0.055912,-0.013919l0.013978,-0.037118l-0.023296,-0.060317l-0.032615,-0.018559l-0.051252,0.032479v0.064957l0.037274,0.032479Z M1256.401885,293.662905l0.060571,-0.018559l0.013978,-0.064957l-0.191031,-0.129914l-0.116482,-0.00464l-0.027956,0.041758l0.013978,0.055678l0.046593,0.032479l0.069889,0.013919l0.13046,0.074237Z M1256.524774,293.503267l0.056931,0.017254l0.05198,-0.002465l0.017327,-0.017254l-0.053436,-0.055968l-0.087653,-0.000725l-0.019511,0.023924l0.034362,0.035233Z M1256.361407,293.742362l-0.064357,0.007395l-0.056931,0.108455l0.014852,0.059157l0.029703,0.002465l0.019802,-0.039438l0.034654,-0.007395l0.017327,0.019719l-0.027228,0.034509l0.012376,0.036973l0.116337,0.032044l0.071782,-0.017254l0.022966,-0.098441l-0.005639,-0.061777l0.049505,-0.064087l-0.017327,-0.069017l-0.034654,-0.022184l-0.071782,0.00986l-0.054456,0.017254l-0.056931,0.051763Z M1256.408437,293.421926l0.05198,0.00986l0.009901,-0.022184l-0.049505,-0.046833l-0.039604,-0.002465l-0.017327,0.024649l0.044555,0.036973Z M1255.190614,293.325795l0.091584,-0.007395l0.014852,-0.017254l-0.039604,-0.017254l-0.081683,0.00493l-0.017327,0.022184l0.032178,0.014789Z M1255.25002,293.239523l0.017327,-0.012324l0.004951,-0.024649l-0.009901,-0.024649l-0.024753,0.00986l-0.007426,0.039438l0.019802,0.012324Z M1254.434109,293.932014l0.062124,0.006186l0.043487,-0.021652l0.009319,-0.046398l-0.046593,-0.046398l-0.052805,0.003093l-0.040381,0.052584l0.02485,0.052584Z M1254.322286,293.842311l0.034168,-0.018559l-0.006212,-0.034025l-0.043487,-0.006186l-0.021743,0.00928l0.003106,0.037118l0.034168,0.012373Z M1253.294135,294.47023l0.077655,0.027839l0.059018,-0.006186l0.027956,-0.037118l-0.009319,-0.040212l-0.040381,-0.027839l-0.043487,-0.07733h-0.049699l-0.021743,0.034025l0.012425,0.049491l-0.027956,0.049491l0.015531,0.027839Z M1253.259967,294.54756l0.083867,0.021652l0.027956,-0.012373l-0.012425,-0.030932l-0.096292,-0.037118l-0.021743,0.021652l0.018637,0.037118Z M1253.937118,294.853787l0.027956,-0.021652l-0.009319,-0.055678l-0.021743,-0.012373l-0.027956,0.027839v0.043305l0.031062,0.018559Z M1254.16387,295.327047l0.055912,0.006186l0.124248,-0.111355l0.09008,-0.015466l0.06523,-0.095889l-0.006212,-0.083516l0.034168,-0.058771l-0.021743,-0.120635l-0.055912,-0.021652l-0.09008,-0.018559l-0.043487,0.021652l-0.006212,0.055678l-0.086974,0.061864l-0.040381,0.136101l-0.046593,0.024746l-0.006212,0.034025l0.027956,0.07733l0.006212,0.108262Z M1253.862569,294.587772l0.06523,-0.012373l0.015531,-0.021652l-0.027956,-0.030932l-0.049699,-0.003093l-0.040381,0.021652l-0.003106,0.024746l0.040381,0.021652Z M1254.316074,294.327943l0.031062,-0.027839l0.006212,-0.055678l-0.031062,-0.027839l-0.02485,0.015466l0.006212,0.034025l-0.015531,0.055678l0.027956,0.006186Z M1254.744729,293.919641l0.009319,-0.034025l-0.012425,-0.037118h-0.027956l-0.018637,0.024746l0.018637,0.046398h0.031062Z M1254.437215,294.631077l0.034168,-0.003093l0.006212,-0.030932l-0.059018,-0.092796l0.018637,-0.064957l-0.040381,-0.046398h-0.06523l-0.027956,0.040212l0.027956,0.089703l0.105611,0.108262Z M1254.524189,294.671288l0.034168,0.00928l0.027956,-0.00928l-0.006212,-0.030932l-0.040381,-0.00928l-0.02485,0.018559l0.009319,0.021652Z M1254.909357,294.448578l0.043487,-0.006186l0.003106,-0.030932l-0.031062,-0.018559l-0.015531,-0.074237l-0.027956,-0.003093l-0.034168,0.040212v0.046398l0.062124,0.046398Z M1256.272978,294.965142l0.102505,0.120635l0.099398,0.046398l0.049699,-0.024746l0.003106,-0.040212l-0.071443,-0.030932l-0.015531,-0.043305l0.012425,-0.040212l-0.046593,-0.083516l-0.102505,-0.058771l-0.040381,0.012373l-0.015531,0.089703l0.02485,0.052584Z M1256.403438,294.810482l0.071443,0.055678l0.027956,0.003093l0.015531,-0.043305l-0.037274,-0.108262l-0.046593,-0.021652l-0.040381,0.015466l-0.009319,0.061864l0.018637,0.037118Z M1256.254341,294.692941l0.114929,0.006186l0.040381,-0.030932l0.006212,-0.040212l-0.031062,-0.046398l-0.040381,-0.006186l-0.086974,0.043305l-0.027956,0.052584l0.02485,0.021652Z M1256.484199,294.662009l0.021743,-0.012373l0.003106,-0.027839l-0.021743,-0.030932l-0.02485,0.006186v0.046398l0.021743,0.018559Z M1255.943721,294.519722l0.037274,0.098982l0.046593,0.027839l0.027956,0.034025l-0.015531,0.040212l0.027956,0.030932l0.059018,-0.018559l0.02485,-0.098982l-0.034168,-0.129914l-0.083867,-0.08661l-0.055912,0.003093l-0.034168,0.098982Z M1256.186004,294.442392l0.02485,0.015466l-0.021743,0.07733l0.009319,0.055678l0.027956,0.003093l0.040381,-0.06805l0.046593,-0.030932l0.02485,-0.055678l0.086974,-0.024746l0.083867,0.006186l0.009319,-0.037118l-0.114929,-0.098982l-0.052805,-0.006186l-0.031062,0.024746l-0.037274,-0.003093l-0.02485,-0.049491l-0.074549,-0.00928l-0.062124,0.089703l-0.009319,0.092796l0.02485,0.030932l0.049699,-0.012373Z M1256.375482,294.516628l0.027956,-0.015466l0.009319,-0.030932l-0.018637,-0.021652l-0.027956,0.00928l-0.012425,0.043305l0.021743,0.015466Z M1256.381695,294.074301h0.040381l0.015531,-0.027839l-0.031062,-0.021652h-0.043487l-0.015531,0.024746l0.034168,0.024746Z M1256.543217,293.412356l0.034168,-0.006186v-0.021652l-0.021743,-0.015466l-0.02485,0.012373l0.012425,0.030932Z M1255.940615,293.740235l0.049699,-0.006186l0.009319,-0.021652l-0.031062,-0.021652l-0.052805,0.015466l-0.009319,0.021652l0.034168,0.012373Z M1255.859854,294.021716l0.062124,-0.006186l0.009319,-0.037118l-0.031062,-0.027839l-0.059018,0.003093l-0.018637,0.037118l0.037274,0.030932Z M1255.859854,294.108326l0.043487,-0.00928l-0.006212,-0.027839l-0.040381,-0.00928l-0.02485,0.021652l0.027956,0.024746Z M1256.512155,293.050452h0.027956l0.018637,-0.021652l-0.006212,-0.024746l-0.031062,-0.003093l-0.02485,0.024746l0.015531,0.024746Z M1256.300934,293.081384l0.052805,-0.024746l0.012425,-0.058771h-0.02485l-0.015531,0.027839l-0.055912,0.021652l-0.009319,0.034025h0.040381Z M1256.176686,293.081384l0.027956,0.015466l0.027956,-0.018559l-0.009319,-0.024746l-0.034168,0.003093l-0.012425,0.024746Z M1256.170473,293.959852l0.027956,0.037118l0.040381,0.006186l0.003106,-0.027839l-0.049699,-0.030932l-0.021743,0.015466Z M1255.990314,294.164004l0.086974,0.030932l0.096292,-0.015466l0.059018,-0.043305l-0.012425,-0.024746l-0.142885,-0.006186l-0.071443,0.018559l-0.015531,0.040212Z M1255.86296,294.17947l-0.031062,0.018559h-0.037274l-0.062124,0.024746l-0.012425,0.049491l0.021743,0.074237l0.071443,0.049491h0.034168l0.009319,-0.043305l0.037274,-0.052584v-0.114448l-0.031062,-0.006186Z M1255.661057,294.253706l0.015531,-0.037118l-0.018637,-0.061864l-0.040381,-0.027839l-0.049699,0.00928l-0.027956,0.043305l0.012425,0.043305l0.043487,-0.006186l0.027956,0.034025l0.037274,0.003093Z M1255.403243,294.151631l0.049699,0.00928l0.021743,-0.018559l-0.015531,-0.021652l-0.046593,-0.012373l-0.02485,0.018559l0.015531,0.024746Z M1255.539915,294.089767l0.049699,-0.061864l-0.012425,-0.126821l-0.037274,-0.049491l0.006212,-0.052584l0.031062,-0.046398l0.015531,-0.095889l-0.046593,-0.037118l-0.046593,0.003093l-0.012425,0.037118l0.02485,0.074237l-0.018637,0.06805h-0.02485l-0.02485,-0.040212l-0.034168,-0.024746l-0.018637,0.021652l0.046593,0.080423l-0.012425,0.133008l0.012425,0.105169l0.062124,0.027839l0.040381,-0.015466Z M1255.692119,294.018623l0.055912,-0.015466l0.006212,-0.034025l-0.043487,-0.027839l-0.034168,0.00928l-0.009319,0.037118l0.02485,0.030932Z M1255.35665,293.9382l0.015531,-0.040212l-0.031062,-0.030932h-0.062124l-0.018637,0.021652l0.021743,0.040212l0.034168,0.015466l0.040381,-0.006186Z M1255.263464,293.826845l0.055912,-0.003093l0.018637,-0.027839l-0.027956,-0.027839l-0.06523,0.003093l-0.012425,0.034025l0.031062,0.021652Z M1255.210658,293.712396l0.034168,0.006186l0.02485,-0.018559l-0.009319,-0.027839l-0.040381,-0.003093l-0.021743,0.021652l0.012425,0.021652Z M1255.409455,293.678371l0.031062,-0.071144l-0.012425,-0.046398l-0.034168,-0.003093l-0.02485,0.058771l0.012425,0.06805l0.027956,-0.006186Z M1254.847233,293.675278l0.071443,0.015466l0.031062,-0.021652l-0.046593,-0.040212l-0.068336,-0.018559l-0.027956,0.021652l0.040381,0.043305Z M1254.949738,293.594855l0.031062,0.00928l0.02485,-0.006186l-0.009319,-0.030932l-0.027956,-0.015466l-0.027956,0.018559l0.009319,0.024746Z M1255.129897,294.272266l0.015531,-0.021652l-0.009319,-0.055678l-0.034168,-0.030932l-0.02485,0.006186v0.027839l0.02485,0.061864l0.027956,0.012373Z M1255.011862,294.86616l0.003106,0.06805l0.043487,0.058771l0.031062,-0.00928l-0.006212,-0.055678l0.02485,-0.061864l-0.031062,-0.102076l-0.046593,-0.052584l-0.037274,0.006186l-0.031062,0.043305l0.012425,0.06805l0.037274,0.037118Z M1256.036907,293.437102l0.02485,-0.006186l0.021743,-0.018559l-0.003106,-0.021652l-0.02485,-0.003093l-0.031062,0.027839l0.012425,0.021652Z M1255.720075,294.516628l-0.003106,0.034025l0.046593,0.037118l0.049699,-0.006186l0.012425,-0.027839l-0.043487,-0.030932l-0.015531,-0.052584l-0.046593,-0.015466l-0.027956,0.018559l0.027956,0.043305Z M1255.83811,294.513535l0.031062,-0.00928l0.012425,-0.024746l-0.015531,-0.021652l-0.040381,0.003093l-0.015531,0.027839l0.027956,0.024746Z M1255.828792,294.773364l0.052805,0.00928l0.040381,-0.012373l0.006212,-0.027839l-0.074549,-0.034025l-0.040381,0.00928l-0.009319,0.027839l0.02485,0.027839Z M1255.779092,294.841414l0.055912,0.003093l0.018637,-0.021652l-0.071443,-0.052584l-0.049699,-0.015466l-0.021743,0.021652l0.068336,0.064957Z M1256.142517,294.813576l0.031062,-0.003093l0.031062,-0.055678l-0.009319,-0.030932l-0.034168,0.003093l-0.040381,0.058771l0.021743,0.027839Z M1256.064863,295.008447l0.02485,-0.006186l0.015531,-0.024746l-0.015531,-0.040212l-0.046593,-0.012373l-0.021743,0.012373l0.012425,0.049491l0.031062,0.021652Z M1255.254145,294.869253l0.006212,0.040212l0.027956,0.003093l0.02485,-0.027839l0.009319,-0.055678l-0.034168,-0.034025l-0.031062,0.012373l-0.003106,0.061864Z M1255.362862,294.804296l0.027956,-0.003093l0.012425,-0.049491l-0.021743,-0.049491l-0.040381,-0.012373l-0.037274,0.024746v0.046398l0.059018,0.043305Z M1255.409455,294.974422l0.071443,0.037118l0.034168,-0.00928v-0.040212l-0.012425,-0.030932l-0.083867,-0.030932l-0.031062,0.018559l0.021743,0.055678Z M1255.378393,294.986795l-0.02485,-0.021652l-0.043487,0.00928l-0.027956,0.07733l0.02485,0.160846l0.083867,0.080423l0.034168,0.07733l0.099398,0.08661l0.018637,-0.024746l-0.037274,-0.123728l0.012425,-0.034025l-0.009319,-0.043305l-0.040381,-0.037118l-0.049699,-0.142287l-0.037274,-0.034025l-0.003106,-0.030932Z M1255.605145,295.32086l0.006212,0.046398l0.071443,0.021652l0.049699,0.058771l0.083867,0.00928l0.040381,-0.037118l0.006212,-0.170126l0.027956,-0.08661l-0.027956,-0.030932l-0.037274,0.015466l-0.027956,0.043305l-0.086974,0.00928l-0.031062,0.024746v0.055678l-0.074549,0.040212Z M1256.092818,295.280649l0.046593,-0.024746l0.003106,-0.027839l-0.034168,-0.018559l-0.052805,0.015466l-0.009319,0.040212l0.046593,0.015466Z M1256.207748,295.500266l0.086974,0.034025l0.034168,-0.015466l-0.009319,-0.06805l-0.096292,-0.052584l-0.080761,0.006186l-0.018637,0.024746l0.083867,0.071144Z M1255.977889,295.515732l0.037274,0.012373l0.012425,-0.024746l-0.049699,-0.061864l-0.027956,0.003093v0.034025l0.027956,0.037118Z M1256.310252,295.821959l0.031062,-0.006186l0.012425,-0.049491l-0.055912,-0.049491l-0.046593,-0.003093l-0.040381,0.030932l0.003106,0.037118l0.096292,0.040212Z M1256.328889,295.670392l0.086974,-0.00928l0.012425,-0.037118l-0.031062,-0.021652l-0.034168,0.015466l-0.071443,-0.003093l-0.021743,0.024746l0.059018,0.030932Z M1256.18911,295.593062h0.052805l0.015531,-0.021652l-0.02485,-0.024746l-0.06523,-0.003093l-0.018637,0.021652l0.040381,0.027839Z M1256.102137,295.64874l0.040381,0.003093l0.018637,-0.021652l-0.015531,-0.021652h-0.049699l-0.02485,0.018559l0.031062,0.021652Z M1255.595827,295.778654l0.027956,0.003093l0.012425,-0.027839l-0.018637,-0.030932l-0.034168,-0.003093l-0.015531,0.030932l0.027956,0.027839Z M1255.757349,295.911662h0.043487l0.015531,-0.024746l-0.052805,-0.043305l-0.034168,0.003093l-0.006212,0.030932l0.034168,0.034025Z M1255.828792,295.976619l0.055912,0.046398l0.021743,-0.006186l-0.018637,-0.071144l-0.034168,-0.024746l-0.02485,0.015466v0.040212Z M1255.921978,296.276659l0.031062,-0.006186l0.043487,-0.074237v-0.055678h-0.034168l-0.040381,0.071144l-0.037274,0.015466l-0.006212,0.037118l0.043487,0.012373Z M1255.937508,295.769374l0.031062,0.015466l0.027956,-0.006186l-0.009319,-0.043305l-0.040381,-0.012373l-0.021743,0.018559l0.012425,0.027839Z M1255.539624,295.139957l0.024753,-0.022184l-0.002475,-0.029579l-0.024753,-0.00493l-0.019802,0.014789l0.002475,0.029579l0.019802,0.012324Z M1255.579228,295.068475l0.039604,0.014789l0.019802,-0.007395l-0.019802,-0.044368l-0.032178,-0.00986l-0.022277,0.019719l0.014852,0.027114Z M1250.183181,299.098576l0.042079,-0.017254l0.007426,-0.022184l-0.017327,-0.00986l-0.032178,0.012324l-0.019802,0.027114l0.019802,0.00986Z M1250.747539,299.049278l0.061881,-0.012324l0.002475,-0.019719l-0.027228,-0.012324l-0.079208,0.012324l-0.004951,0.019719l0.04703,0.012324Z M1254.873782,292.359556l0.037129,-0.007395l0.007426,-0.027114l-0.014852,-0.017254l-0.037129,0.00986l-0.017327,0.029579l0.024753,0.012324Z M1255.282198,292.204268h0.027228l0.007426,-0.017254l-0.014852,-0.019719l-0.027228,-0.00493l-0.022277,0.017254l0.029703,0.024649Z M1256.655962,292.889509l0.022277,-0.017254l-0.002475,-0.017254h-0.05198l-0.009901,0.024649l0.042079,0.00986Z M1256.425764,292.672598l0.056931,-0.00493l0.004951,-0.019719l-0.014852,-0.017254h-0.042079l-0.024753,0.024649l0.019802,0.017254Z M1254.962891,292.813097l0.022277,-0.00493l0.002475,-0.022184l-0.024753,-0.012324l-0.019802,0.00986l-0.002475,0.019719l0.022277,0.00986Z M1255.440614,293.163112h0.024753l0.022277,-0.014789l-0.012376,-0.022184l-0.029703,-0.00493l-0.022277,0.019719l0.017327,0.022184Z M1255.347331,294.550654v0.046398l0.021743,0.030932l0.021743,-0.006186l0.006212,-0.058771l-0.021743,-0.021652l-0.027956,0.00928Z M1255.229296,294.572306h0.043487l0.037274,-0.015466l-0.003106,-0.027839l-0.068336,-0.003093l-0.02485,0.018559l0.015531,0.027839Z M1255.449836,294.86616l0.055912,-0.003093l0.021743,-0.015466l-0.02485,-0.030932l-0.06523,-0.003093l-0.027956,0.030932l0.040381,0.021652Z M1252.571944,295.523465l0.041934,0.115995l0.055912,0.023199l0.032615,-0.023199l-0.009319,-0.088156l-0.055912,-0.064957l-0.046593,0.00464l-0.018637,0.032479Z M1254.267928,295.546664l0.051252,-0.041758l-0.023296,-0.041758l-0.088527,-0.018559l-0.051252,0.023199l-0.046593,0.097436l0.018637,0.074237l0.032615,-0.00464l0.027956,-0.069597l0.079208,-0.018559Z M1253.690175,296.474624l0.083867,0.064957h0.163075l0.069889,-0.041758l0.004659,-0.055678l-0.037274,-0.069597l-0.009319,-0.111355l-0.139779,-0.111355l-0.088527,0.00928l-0.074549,0.102076l-0.002821,0.120785l0.030777,0.092646Z M1254.095534,296.79013l0.055912,0.00464l0.041934,-0.032479l-0.009319,-0.041758l-0.06523,-0.027839l-0.051252,0.013919l-0.013978,0.041758l0.041934,0.041758Z M1254.142127,296.357082l0.080761,-0.030932l0.02485,-0.034025l-0.021743,-0.018559l-0.093186,0.030932l-0.02485,0.046398l0.034168,0.006186Z M1254.744729,296.220982l0.077655,-0.046398l0.003106,-0.024746l-0.046593,-0.021652l-0.046593,0.027839l-0.018637,0.052584l0.031062,0.012373Z M1254.896932,296.34471l0.034168,-0.006186l0.006212,-0.027839l-0.018637,-0.024746l-0.040381,0.003093l-0.015531,0.027839l0.034168,0.027839Z M1254.732304,296.273566l-0.021743,0.015466l0.009319,0.034025l0.02485,0.018559l0.021743,-0.012373l-0.006212,-0.040212l-0.027956,-0.015466Z M1254.853446,295.908568l0.015531,0.055678l0.077655,0.074237l0.037274,-0.006186l0.031062,-0.071144l-0.037274,-0.123728h-0.021743l-0.006212,0.058771l-0.034168,0.006186l-0.037274,-0.012373l-0.02485,0.018559Z M1254.194932,296.057042l0.018637,0.034025l0.040381,0.00928l0.02485,0.034025l0.02485,-0.006186l-0.015531,-0.074237l0.009319,-0.040212l-0.040381,-0.018559l-0.046593,0.018559l-0.015531,0.043305Z M1254.145233,295.917848l0.046593,0.030932l0.062124,0.003093l0.083867,0.052584l0.040381,0.14538l0.111823,0.06805l0.13046,-0.003093l0.031062,-0.034025l-0.049699,-0.074237l-0.040381,-0.012373l0.02485,-0.034025l0.059018,0.006186l0.133566,-0.055678l0.046593,-0.083516l-0.027956,-0.133008l-0.037274,-0.052584l-0.06523,-0.024746l-0.111823,-0.129914l-0.111823,-0.027839l-0.068336,0.021652l-0.012425,0.064957l-0.052805,0.027839l-0.037274,-0.024746l-0.037274,0.021652l0.031062,0.095889l-0.021743,0.061864l-0.031062,0.003093l-0.009319,-0.034025l-0.034168,-0.003093l-0.049699,0.034025l-0.003106,0.089703Z M1254.086215,296.211702l0.040381,0.043305h0.049699l0.052805,-0.071144v-0.040212l-0.052805,-0.024746l-0.027956,-0.083516l0.015531,-0.07733l-0.031062,-0.006186l-0.037274,0.052584l-0.009319,0.207244Z M1253.989923,295.908568l-0.037274,0.018559v0.058771l0.040381,0.034025l0.040381,-0.018559l-0.012425,-0.058771l-0.031062,-0.034025Z M1254.080003,295.868357l0.006212,-0.037118l-0.02485,-0.034025h-0.021743l-0.018637,0.040212l0.021743,0.043305l0.037274,-0.012373Z M1255.002543,295.258996l0.027956,0.003093l0.012425,-0.024746l-0.031062,-0.034025l-0.027956,0.006186l-0.006212,0.027839l0.02485,0.021652Z M1254.564569,295.212598l0.031062,-0.006186l0.012425,-0.024746l-0.027956,-0.034025h-0.031062l-0.009319,0.043305l0.02485,0.021652Z M1254.424791,295.293022l0.043487,0.003093l0.027956,-0.012373l-0.021743,-0.034025l-0.052805,-0.006186l-0.015531,0.024746l0.018637,0.024746Z M1254.536614,295.327047l0.034168,0.015466l0.02485,-0.012373l-0.018637,-0.037118l-0.027956,-0.012373l-0.021743,0.021652l0.009319,0.024746Z M1254.716773,295.413656l0.027956,-0.018559l-0.018637,-0.046398l-0.037274,-0.012373l-0.015531,0.021652v0.027839l0.043487,0.027839Z M1254.872083,295.86217l0.02485,-0.003093v-0.043305l-0.02485,-0.018559l-0.021743,0.018559l0.021743,0.046398Z M1254.90596,295.793153h0.024753l0.007426,-0.019719l-0.014852,-0.022184h-0.027228l-0.012376,0.022184l0.022277,0.019719Z M1255.069326,296.522762l0.024753,-0.017254l-0.017327,-0.041903l-0.022277,-0.00986l-0.022277,0.012324l0.007426,0.027114l0.029703,0.029579Z M1253.145037,296.864367l0.077655,-0.006186l0.086974,-0.024746l0.018637,-0.037118l-0.037274,-0.043305l-0.105611,0.003093l-0.133566,0.08661l0.015531,0.034025l0.077655,-0.012373Z M1253.604755,297.266483l0.124248,0.074237l0.099398,0.003093l0.021743,-0.030932l-0.02485,-0.037118l0.018637,-0.08661l-0.052805,-0.16394l-0.158416,-0.083516l-0.105611,0.003093l-0.059018,0.108262l0.077655,0.148474l0.059018,0.064957Z M1255.285207,299.564731l0.068336,0.00928l0.027956,-0.018559l-0.027956,-0.034025l-0.055912,-0.00928l-0.034168,0.021652l0.021743,0.030932Z M1255.480898,299.527613l0.040381,-0.015466l0.006212,-0.037118l-0.074549,-0.015466l-0.040381,0.024746l0.006212,0.034025l0.062124,0.00928Z M1255.359756,299.703925h0.059018l0.046593,-0.037118l0.006212,-0.034025l-0.074549,-0.015466l-0.049699,0.015466l-0.018637,0.052584l0.031062,0.018559Z M1255.403243,299.802907l0.049699,-0.012373l0.015531,-0.027839l-0.015531,-0.024746l-0.077655,0.012373l-0.006212,0.040212l0.034168,0.012373Z M1255.260358,299.694645l0.024316,-0.036538l-0.014997,-0.031512l-0.031062,0.00928l-0.009319,0.049491l0.031062,0.00928Z M1255.611406,299.345065l0.04703,0.002465l0.019802,-0.014789l-0.004951,-0.019719l-0.054456,-0.00493l-0.022277,0.019719l0.014852,0.017254Z M1255.757446,299.382039h0.069307l0.054456,-0.014789l0.002475,-0.022184l-0.027228,-0.012324l-0.121287,0.00493l-0.007426,0.024649l0.029703,0.019719Z M1256.24012,299.012305l0.044555,0.017254l0.024753,-0.00986l-0.007426,-0.039438l-0.074258,-0.022184l-0.022277,0.014789l0.034654,0.039438Z M1256.207942,299.135549l0.032178,-0.00986l0.009901,-0.024649l-0.019802,-0.024649l-0.032178,0.007395l-0.012376,0.039438l0.022277,0.012324Z M1256.133684,298.953147l0.037129,0.002465l0.012376,-0.017254l-0.019802,-0.027114l-0.032178,-0.002465l-0.012376,0.024649l0.014852,0.019719Z M1256.111407,299.029559l0.027228,0.002465l0.019802,-0.00986l-0.009901,-0.024649l-0.034654,-0.007395l-0.017327,0.017254l0.014852,0.022184Z M1256.846556,299.372179l0.037129,0.022184l0.019802,-0.00493v-0.024649l-0.044555,-0.022184l-0.019802,0.00986l0.007426,0.019719Z M1257.017349,299.650712l0.032178,0.007395l0.022277,-0.00493l-0.007426,-0.019719l-0.039604,-0.00986l-0.019802,0.007395l0.012376,0.019719Z M1256.448041,299.712335l0.024753,-0.00986l0.014852,-0.019719l-0.014852,-0.017254l-0.029703,0.00493l-0.014852,0.029579l0.019802,0.012324Z M1256.542101,299.665502l0.032178,-0.027114l-0.007426,-0.017254l-0.027228,0.002465l-0.034654,0.024649l0.002475,0.017254h0.034654Z M1255.960417,299.140479l0.032178,0.00493l0.017327,-0.019719l-0.009901,-0.022184l-0.04703,-0.007395l-0.014852,0.022184l0.022277,0.022184Z M1255.972793,298.963007l0.019802,0.017254l0.032178,-0.002465l0.022277,-0.024649l-0.019802,-0.017254l-0.039604,0.002465l-0.014852,0.024649Z M1255.30695,299.056673l-0.061881,-0.096131l-0.059406,0.002465l-0.027228,0.036973l-0.168317,0.054228l-0.029703,0.11092l0.09901,0.093666l0.126238,0.029579l0.084159,0.071482l0.09901,0.017254l0.044555,-0.024649l0.012376,-0.036973l-0.014852,-0.017254l-0.039604,0.002465l-0.034654,-0.029579l-0.004951,-0.10599l-0.024753,-0.108455Z M1255.368832,299.167593l0.014852,0.064087l0.032178,0.027114l0.071782,-0.002465l0.091584,-0.061622l0.09901,-0.00986l0.096535,0.022184l0.066832,-0.00986l0.022277,-0.061622l-0.017327,-0.081341l-0.061881,-0.034509l-0.09901,-0.012324l-0.027228,-0.024649l0.019802,-0.014789l0.064357,0.017254l0.131188,0.002465l0.039604,0.014789l0.027228,-0.017254l-0.014852,-0.066552l-0.029703,-0.034509l-0.056931,-0.00493l-0.039604,0.019719l-0.081683,-0.014789l-0.022277,-0.046833l-0.04703,-0.002465l-0.034654,0.014789l-0.042079,-0.002465l-0.049505,-0.049298l-0.09406,-0.002465l-0.066832,0.029579l-0.029703,0.091201l0.022277,0.049298l0.066832,0.044368l0.024753,0.051763l-0.019802,0.029579l-0.039604,0.024649l-0.017327,0.051763Z M1255.361406,299.064067l0.014852,-0.00986l-0.019802,-0.044368l-0.024753,-0.007395l-0.009901,0.019719l0.017327,0.029579l0.022277,0.012324Z M1255.079227,298.985191l0.061881,-0.022184l0.004951,-0.029579l-0.027228,-0.017254l-0.064357,0.027114l-0.009901,0.032044l0.034654,0.00986Z M1255.628733,298.822508l0.069307,-0.00493l0.027228,-0.019719l-0.007426,-0.032044l-0.019802,-0.007395l-0.04703,0.032044h-0.064357l-0.012376,0.022184l0.054456,0.00986Z M1255.555446,299.564731l0.027956,-0.015466l0.012425,-0.027839l-0.012425,-0.021652l-0.034168,0.006186l-0.012425,0.037118l0.018637,0.021652Z M1256.574279,299.187361h0.034168l0.021743,-0.015466l-0.006212,-0.021652h-0.037274l-0.02485,0.012373l0.012425,0.024746Z M1254.056949,296.463605l-0.004951,0.039438l0.017327,0.019719l0.022277,-0.00493l0.004951,-0.027114l-0.012376,-0.029579l-0.027228,0.002465Z M1254.603979,297.779858l0.076733,-0.014789l0.019802,-0.034509l-0.007426,-0.041903l-0.034654,-0.012324l-0.042079,0.032044l-0.074258,0.00986l-0.017327,0.036973l0.079208,0.024649Z M1254.769821,298.105224l0.019802,-0.027114l-0.007426,-0.044368l-0.04703,-0.022184l-0.029703,0.00493l-0.014852,0.034509l0.039604,0.051763l0.039604,0.002465Z M1255.000019,298.285161l0.022277,-0.029579l-0.007426,-0.044368l-0.029703,-0.007395l-0.022277,0.017254l0.007426,0.056693l0.029703,0.007395Z M1255.25002,298.593273l0.05198,0.014789l0.027228,-0.007395l-0.004951,-0.022184l-0.054456,-0.022184l-0.029703,0.012324l0.009901,0.024649Z M1255.658436,298.31474l0.054456,-0.007395l0.004951,-0.019719l-0.019802,-0.024649l-0.044555,0.00493l-0.022277,0.032044l0.027228,0.014789Z M1254.834809,296.814876l0.031062,0.006186l0.012425,-0.021652l-0.02485,-0.037118l-0.021743,-0.003093l-0.012425,0.027839l0.015531,0.027839Z M1254.878295,296.988095l0.02485,0.006186l0.027956,-0.015466l-0.009319,-0.024746l-0.031062,-0.00928l-0.02485,0.018559l0.012425,0.024746Z M1255.263464,298.166604l0.027956,0.021652l0.052805,-0.003093l0.049699,-0.046398l-0.031062,-0.015466l-0.071443,0.012373l-0.027956,0.030932Z M1253.847038,297.430423l0.021743,-0.027839l-0.015531,-0.021652l-0.034168,0.006186l-0.015531,0.034025l0.043487,0.00928Z M1253.881206,297.532498l0.027956,0.015466l0.021743,-0.015466l-0.006212,-0.037118l-0.037274,-0.006186l-0.021743,0.018559l0.015531,0.024746Z M1253.989923,297.585083l0.018637,-0.030932l-0.012425,-0.034025l-0.031062,0.00928l-0.009319,0.043305l0.034168,0.012373Z M1254.048941,297.64076l0.034168,-0.012373l0.012425,-0.043305l-0.027956,-0.015466l-0.034168,0.018559l-0.018637,0.046398l0.034168,0.006186Z M1254.036516,297.742836l0.02485,-0.003093l0.034168,0.030932l0.02485,-0.006186l0.009319,-0.058771l-0.046593,-0.030932l-0.046593,0.012373l-0.018637,0.034025l0.018637,0.021652Z M1254.219782,297.88203l0.043487,-0.00928l0.021743,-0.030932l-0.018637,-0.024746l-0.040381,0.00928l-0.031062,0.034025l0.02485,0.021652Z M1254.101746,296.913858l0.031062,0.00928l0.027956,-0.00928l-0.006212,-0.030932l-0.043487,-0.012373l-0.02485,0.018559l0.015531,0.024746Z M1254.219782,297.714997l0.052805,0.006186l0.02485,-0.018559l0.003106,-0.027839l-0.071443,-0.003093l-0.02485,0.021652l0.015531,0.021652Z M1254.173189,297.776861l0.049699,0.003093l0.021743,-0.015466l-0.009319,-0.024746l-0.068336,-0.00928l-0.015531,0.024746l0.021743,0.021652Z M1254.11883,297.85627l0.04703,-0.014789l0.013541,-0.024407l-0.037274,-0.015466l-0.049699,0.015466l-0.006212,0.030932l0.032615,0.008265Z M1253.925761,297.656613l0.004951,0.054228l0.019802,0.019719l0.019802,-0.00986l0.004951,-0.041903l-0.022277,-0.029579l-0.027228,0.007395Z M1254.440613,298.134803l0.034654,-0.027114l-0.004951,-0.022184l-0.024753,-0.00493l-0.034654,0.024649l0.002475,0.022184l0.027228,0.007395Z M1254.366355,297.96719l0.022277,-0.00493l0.009901,-0.022184l-0.019802,-0.014789l-0.024753,0.00986l-0.007426,0.024649l0.019802,0.007395Z M1255.368832,297.73056l0.027228,-0.00493l0.014852,-0.017254l-0.004951,-0.017254h-0.024753l-0.019802,0.024649l0.007426,0.014789Z M1251.304616,297.639214h0.06523l0.027956,-0.032479l-0.009319,-0.064957l-0.069889,-0.018559l-0.074549,0.032479l-0.009319,0.037118l0.069889,0.046398Z M1251.500306,297.778408l0.107164,-0.051038l0.013978,-0.102076l-0.041934,-0.046398l-0.06523,0.018559l-0.06523,0.102076v0.064957l0.051252,0.013919Z M1251.60747,297.425783l0.074549,-0.037118l0.023296,-0.037118l-0.032615,-0.027839l-0.060571,0.018559l-0.037274,0.064957l0.032615,0.018559Z M1253.455657,298.144952l0.071443,-0.015466l0.018637,-0.034025l-0.031062,-0.046398h-0.06523l-0.040381,0.034025l0.006212,0.046398l0.040381,0.015466Z M1252.567285,298.472831l0.080761,0.030932l0.077655,0.003093l0.009319,-0.024746l-0.13046,-0.061864h-0.043487l-0.015531,0.021652l0.021743,0.030932Z M1252.312577,298.602746l0.059018,0.018559l0.02485,-0.018559l-0.031062,-0.046398l-0.049699,-0.012373l-0.027956,0.018559l0.02485,0.040212Z M1252.365382,298.516136l0.034168,0.021652h0.046593l0.012425,-0.021652l-0.034168,-0.043305h-0.043487l-0.015531,0.043305Z M1252.011275,298.726474l0.074549,0.00928l0.02485,-0.012373l-0.009319,-0.024746l-0.093186,-0.018559l-0.02485,0.021652l0.027956,0.024746Z M1252.281515,298.751219l0.040381,-0.003093l0.027956,-0.015466l-0.018637,-0.030932h-0.034168l-0.037274,0.034025l0.021743,0.015466Z M1251.225408,298.571814l-0.052805,0.080423l-0.009319,0.061864l0.043487,0.021652l0.074549,-0.018559l0.06523,-0.080423l0.068336,-0.012373l0.062124,-0.043305l-0.015531,-0.049491l0.031062,-0.021652l0.114929,0.003093l0.06523,-0.043305l0.009319,-0.037118l0.027956,-0.003093l0.018637,0.034025l-0.031062,0.043305l0.003106,0.049491l0.068336,0.074237h0.055912l0.037274,-0.034025h0.121142l0.043487,-0.043305l-0.021743,-0.080423l-0.074549,-0.055678l-0.037274,-0.074237l-0.071443,-0.046398l-0.074549,-0.00928l-0.102505,-0.049491l-0.055912,-0.00928l-0.099398,0.024746l-0.037274,0.040212l0.009319,0.074237l-0.108717,0.117542l-0.127354,0.08661Z M1251.946045,298.404781l0.074549,0.046398l0.09008,0.061864l0.096292,0.034025l0.055912,-0.012373l0.034168,-0.095889l-0.012425,-0.105169l-0.086974,-0.049491l-0.118035,0.003093l-0.173947,-0.021652l-0.02485,0.024746l0.027956,0.040212l0.037274,0.074237Z M1252.014382,298.231562l0.062124,-0.018559l0.13046,-0.021652l0.086974,-0.108262l0.015531,-0.126821l0.034168,-0.095889l0.037274,-0.027839l0.012425,-0.043305l-0.031062,-0.021652l-0.180159,0.049491l-0.149097,0.089703l-0.108717,0.173219l-0.124248,0.06805v0.049491l0.031062,0.024746l0.080761,0.006186l0.102505,0.003093Z M1252.411975,298.064529l-0.015531,0.061864l-0.06523,0.024746l-0.021743,0.07733l0.037274,0.06805l0.040381,0.003093l0.059018,-0.055678l0.040381,-0.00928l0.037274,-0.049491l-0.009319,-0.027839l0.02485,-0.034025l0.145991,-0.064957l0.049699,-0.071144l-0.018637,-0.046398l0.012425,-0.037118l0.074549,-0.034025l0.012425,-0.052584l-0.059018,-0.024746l-0.319938,0.052584l-0.062124,0.027839l-0.027956,0.083516l0.06523,0.108262Z M1252.561072,298.265587l0.052805,0.071144l0.189478,0.037118l0.114929,-0.018559l0.018637,-0.055678l0.031062,-0.012373l0.06523,0.015466l0.139779,-0.024746l0.102505,-0.07733l0.034168,-0.108262l0.108717,-0.07733v-0.034025l-0.055912,-0.00928l-0.108717,0.040212l-0.099398,-0.012373l-0.034168,-0.055678l0.046593,-0.058771l-0.015531,-0.037118l-0.055912,-0.00928l-0.049699,0.027839l-0.096292,-0.024746l-0.108717,0.040212l-0.06523,0.049491l-0.012425,0.030932l0.034168,0.046398l-0.027956,0.061864l-0.142885,0.092796l-0.043487,0.037118l-0.021743,0.064957Z M1253.228905,297.962453l0.049699,0.012373l0.012425,-0.027839l-0.052805,-0.058771h-0.037274l-0.018637,0.024746l0.046593,0.049491Z M1253.08602,297.547964l0.127354,0.034025l0.049699,-0.018559l0.009319,-0.08661l-0.027956,-0.058771l-0.059018,-0.006186l-0.06523,0.030932l-0.037274,0.06805l0.003106,0.037118Z M1252.68532,297.526312l0.074549,0.052584l0.006212,0.058771l0.040381,0.012373l0.043487,-0.015466l0.111823,0.021652l0.074549,-0.00928l0.086974,0.027839l0.049699,-0.003093l0.018637,-0.037118l-0.037274,-0.040212l-0.09008,-0.015466l-0.074549,0.00928l-0.105611,-0.015466l-0.018637,-0.030932l-0.139779,-0.058771l-0.080761,-0.00928l-0.006212,0.034025l0.046593,0.018559Z M1252.666683,297.541778l-0.071443,-0.015466l-0.062124,-0.037118l-0.152204,-0.006186l-0.043487,0.040212l-0.031062,0.07733l0.049699,0.024746l0.086974,-0.027839l0.108717,-0.006186l0.080761,0.018559l0.055912,-0.015466l0.006212,-0.027839l-0.027956,-0.024746Z M1252.731913,297.770675l0.09008,-0.012373l0.059018,-0.040212l0.009319,-0.034025l-0.027956,-0.006186l-0.037274,0.024746l-0.145991,0.012373l-0.009319,0.027839l0.062124,0.027839Z M1252.613878,297.439702l0.118035,0.00928l0.139779,0.055678l0.133566,0.003093l0.068336,-0.098982l-0.027956,-0.037118l-0.040381,-0.006186l-0.043487,0.024746l-0.055912,-0.003093l-0.06523,-0.046398l-0.192584,-0.015466l-0.139779,0.030932l-0.009319,0.030932l0.062124,0.012373l0.052805,0.040212Z M1252.517586,297.758302l0.09008,-0.015466l0.003106,-0.024746l-0.040381,-0.015466l-0.06523,0.015466l-0.018637,0.027839l0.031062,0.012373Z M1252.495842,297.662413h0.06523l0.015531,-0.021652l-0.021743,-0.024746h-0.052805l-0.027956,0.021652l0.021743,0.024746Z M1252.200753,297.733556l0.059018,-0.018559l0.006212,-0.027839l-0.043487,-0.00928l-0.06523,0.024746l-0.003106,0.024746l0.046593,0.006186Z M1251.852859,297.733556l0.040381,-0.015466l0.012425,-0.040212l-0.02485,-0.021652l-0.034168,0.018559l-0.02485,0.046398l0.031062,0.012373Z M1251.424204,298.228468l0.040381,-0.003093l0.059018,-0.021652l0.003106,-0.040212l-0.049699,-0.018559l-0.062124,0.024746l-0.018637,0.040212l0.027956,0.018559Z M1251.728612,298.086181l0.037274,-0.003093l0.021743,-0.040212l0.043487,-0.015466l0.071443,0.003093l0.037274,-0.055678l-0.012425,-0.040212l-0.046593,-0.055678l-0.086974,-0.015466l-0.071443,0.037118l0.003106,0.027839l0.059018,-0.00928l0.037274,0.015466l-0.049699,0.055678l-0.071443,0.030932l-0.018637,0.037118l0.046593,0.027839Z M1252.011275,297.767582l0.037274,-0.021652l-0.009319,-0.024746h-0.046593l-0.018637,0.024746l0.037274,0.021652Z M1251.07631,298.791431h0.040381l0.02485,-0.015466l-0.015531,-0.034025l-0.02485,-0.012373l-0.043487,0.034025l0.018637,0.027839Z M1251.411779,298.754313l0.021743,-0.00928l0.009319,-0.027839l-0.027956,-0.034025l-0.02485,0.012373v0.040212l0.021743,0.018559Z M1251.896346,298.806897h0.027956l0.006212,-0.021652l-0.027956,-0.018559l-0.02485,0.00928l0.018637,0.030932Z M1251.293744,298.88732l0.02485,-0.015466l-0.006212,-0.027839l-0.031062,-0.003093l-0.021743,0.021652l0.034168,0.024746Z M1251.974001,296.715894l0.074549,-0.080423l0.015531,-0.058771l-0.046593,-0.003093l-0.099398,0.095889l-0.009319,0.049491l0.06523,-0.003093Z M1251.970895,296.882926l0.152204,-0.043305l0.086974,-0.089703l0.009319,-0.055678l-0.06523,-0.06805l-0.052805,0.006186l-0.021743,0.064957l-0.071443,0.064957l-0.111823,0.058771l0.003106,0.043305l0.071443,0.018559Z M1252.356063,296.753012l0.040381,-0.00928l-0.006212,-0.049491l-0.043487,-0.021652l-0.02485,0.018559v0.037118l0.034168,0.024746Z M1252.446143,297.223178l0.077655,-0.064957l-0.009319,-0.030932h-0.049699l-0.102505,0.074237l0.009319,0.030932l0.074549,-0.00928Z M1252.648046,296.981909l0.06523,-0.015466l0.034168,-0.043305l-0.021743,-0.027839l-0.077655,0.012373l-0.077655,0.083516l0.027956,0.027839l0.049699,-0.037118Z M1252.374701,297.343813l0.018637,-0.024746l-0.012425,-0.034025l-0.037274,-0.006186l-0.018637,0.021652l0.021743,0.037118l0.027956,0.006186Z M1252.908966,296.824156l0.052805,-0.021652l0.009319,-0.021652l-0.027956,-0.018559l-0.034168,0.012373l-0.021743,0.037118l0.021743,0.012373Z M1252.380913,296.87674h0.046593l0.021743,-0.015466l-0.02485,-0.027839l-0.049699,-0.00928l-0.018637,0.034025l0.02485,0.018559Z M1252.520692,296.205516l0.034168,-0.024746l0.006212,-0.034025l-0.031062,-0.015466l-0.031062,0.021652l-0.006212,0.040212l0.027956,0.012373Z M1252.64494,295.787934l0.034168,-0.00928l0.02485,-0.030932l-0.015531,-0.027839l-0.037274,0.006186l-0.027956,0.046398l0.021743,0.015466Z M1252.744338,295.840518l0.027956,-0.003093l0.021743,-0.015466l-0.009319,-0.030932h-0.034168l-0.018637,0.027839l0.012425,0.021652Z M1252.036125,296.360176l0.040381,-0.030932l0.009319,-0.046398l-0.027956,-0.00928l-0.034168,0.018559l-0.018637,0.052584l0.031062,0.015466Z M1252.812674,295.203319l0.027956,-0.037118l-0.009319,-0.037118l-0.021743,-0.006186l-0.021743,0.027839v0.043305l0.02485,0.00928Z M1252.051656,295.469334l0.040381,0.015466l0.06523,-0.052584l0.096292,0.006186l0.031062,-0.021652l-0.009319,-0.095889l-0.034168,-0.00928l-0.099398,0.037118l-0.071443,0.06805l-0.018637,0.052584Z M1252.784719,294.72078l0.021743,-0.012373l0.018637,-0.027839l-0.012425,-0.024746l-0.034168,0.006186l-0.015531,0.040212l0.021743,0.018559Z M1252.890329,294.900185l0.034168,-0.030932l-0.012425,-0.021652l-0.031062,0.006186l-0.018637,0.037118l0.027956,0.00928Z M1252.135523,295.203319l0.034168,-0.006186l0.021743,-0.027839l-0.009319,-0.083516l-0.031062,-0.003093l-0.027956,0.040212l-0.015531,0.058771l0.027956,0.021652Z M1252.104461,295.299208l0.027956,-0.024746l0.006212,-0.030932l-0.046593,-0.012373l-0.027956,0.012373l0.006212,0.046398l0.034168,0.00928Z M1251.977107,295.33942l0.037274,-0.012373l0.018637,-0.027839l-0.021743,-0.018559l-0.031062,0.006186l-0.018637,0.030932l0.015531,0.021652Z M1251.818691,294.182563l0.055912,-0.043305l0.009319,-0.058771l-0.02485,-0.015466l-0.027956,0.006186l-0.049699,0.064957l0.006212,0.046398h0.031062Z M1251.570195,294.544467l0.049699,-0.040212l0.015531,-0.061864l-0.021743,-0.021652l-0.037274,0.012373l-0.052805,0.071144l0.003106,0.034025l0.043487,0.006186Z M1251.234726,295.110523l0.077655,0.034025l0.111823,-0.015466l0.06523,-0.064957l0.06523,-0.012373l0.105611,0.06805l0.118035,0.00928l0.062124,-0.027839l0.046593,0.003093l0.034168,0.046398l0.055912,-0.003093l0.055912,-0.058771l0.052805,-0.024746l0.003106,-0.027839l-0.139779,-0.043305l-0.06523,0.006186l-0.074549,-0.015466l-0.040524,-0.047691l-0.124104,-0.048198l-0.077655,0.006186l-0.043487,-0.021652l-0.034168,-0.052584l-0.055912,0.006186l-0.068336,0.105169l-0.108717,0.040212l-0.037274,0.06805l0.015531,0.071144Z M1251.616788,294.77955l0.052805,-0.00928l0.021743,-0.027839l-0.012425,-0.021652l-0.06523,0.00928l-0.02485,0.037118l0.027956,0.012373Z M1251.063885,294.980608l0.040381,-0.00928l0.021743,-0.046398l-0.009319,-0.037118l-0.043487,0.006186l-0.037274,0.030932l-0.009319,0.037118l0.037274,0.018559Z M1251.119797,294.822855l0.055912,-0.018559l0.009319,-0.037118l-0.031062,-0.021652l-0.068336,0.015466l-0.006212,0.049491l0.040381,0.012373Z M1251.290638,294.454764l0.040381,-0.006186l0.06523,-0.055678l0.015531,-0.06805l-0.027956,-0.030932l-0.034168,0.012373l-0.009319,0.049491l-0.077655,0.074237l0.027956,0.024746Z M1251.175708,294.40218l0.055912,-0.006186l0.034168,-0.037118l-0.015531,-0.055678l-0.040381,-0.012373l-0.059018,0.049491l-0.012425,0.037118l0.037274,0.024746Z M1251.191239,294.544467h0.037274v-0.034025l-0.102505,-0.046398l-0.049699,0.00928l-0.003106,0.027839l0.118035,0.043305Z M1250.983124,294.32485l0.046593,0.006186l0.027956,-0.024746l-0.012425,-0.034025l0.034168,-0.021652v-0.034025l-0.034168,-0.012373l-0.068336,0.043305l-0.018637,0.043305l0.02485,0.034025Z M1251.070098,294.139258l0.049699,-0.027839l-0.012425,-0.024746l-0.077655,0.003093l-0.018637,0.030932l0.059018,0.018559Z M1250.902363,294.095953l0.037274,-0.034025l0.006212,-0.040212l-0.02485,-0.00928l-0.043487,0.027839l-0.012425,0.046398l0.037274,0.00928Z M1250.79054,293.996971l0.046593,-0.021652l0.009319,-0.095889l-0.02485,-0.030932l-0.121142,0.012373l-0.015531,0.061864l0.046593,0.055678l0.059018,0.018559Z M1250.330823,294.055742l0.018637,0.034025l0.046593,0.006186l0.034168,-0.055678l-0.02485,-0.021652h-0.046593l-0.027956,0.037118Z M1250.150663,293.882522l0.034168,-0.024746l-0.006212,-0.030932l-0.043487,-0.015466l-0.02485,0.015466l0.003106,0.046398l0.037274,0.00928Z M1250.588637,293.953666l0.015531,-0.027839l-0.006212,-0.037118l-0.034168,-0.015466l-0.02485,0.027839l0.02485,0.052584h0.02485Z M1250.666292,293.146341l0.034168,0.003093l0.018637,-0.024746l-0.021743,-0.027839l-0.031062,0.003093l-0.015531,0.024746l0.015531,0.021652Z M1250.961381,294.912558l0.034168,-0.015466v-0.030932l-0.021743,-0.018559l-0.034168,0.012373l-0.009319,0.034025l0.031062,0.018559Z M1251.01108,295.874543h0.043487l0.037274,-0.027839l-0.009319,-0.034025l-0.059018,-0.024746l-0.031062,0.015466l-0.009319,0.043305l0.027956,0.027839Z M1251.343443,295.583782l0.02485,-0.046398l-0.009319,-0.034025l-0.040381,-0.012373l-0.021743,0.018559v0.06805l0.046593,0.006186Z M1251.315487,296.128186l0.034168,-0.021652l0.006212,-0.040212l-0.040381,-0.043305l-0.040381,0.003093l-0.018637,0.037118l0.021743,0.055678l0.037274,0.00928Z M1251.20677,296.004458l0.06523,-0.015466l0.034168,-0.083516l-0.018637,-0.064957l-0.027956,0.003093l-0.040381,0.049491l-0.021743,0.07733l0.009319,0.034025Z M1251.855966,295.722976l0.037274,0.015466l0.049699,-0.012373l0.031062,-0.105169l0.02485,-0.043305l-0.006212,-0.037118l-0.034168,-0.021652l-0.006212,-0.030932l0.015531,-0.046398l-0.040381,-0.046398l-0.136673,-0.006186l-0.043487,0.040212l0.012425,0.040212l0.062124,0.027839l0.02485,0.098982l-0.018637,0.049491l0.003106,0.043305l0.02485,0.034025Z M1251.380717,295.883823l0.018637,-0.021652l-0.015531,-0.064957l0.018637,-0.040212l-0.02485,-0.034025l-0.027956,0.006186l-0.02485,0.061864l0.021743,0.080423l0.034168,0.012373Z M1251.557771,295.682765l0.040381,0.055678l-0.009319,0.129914l-0.043487,0.030932h-0.06523l-0.043487,0.024746l-0.006212,0.058771l0.052805,0.040212l0.003106,0.037118l-0.021743,0.058771l0.037274,0.040212l0.068336,-0.003093l0.055912,-0.040212l0.068336,-0.006186l0.02485,0.024746l-0.021743,0.037118l0.015531,0.037118l0.052805,0.012373l0.006212,0.034025l-0.040381,0.105169l0.021743,0.108262l0.040381,0.021652l0.083867,-0.055678l0.034168,-0.095889l-0.037274,-0.040212l0.018637,-0.034025l0.080761,-0.006186l0.046593,-0.030932l0.083867,-0.173219l0.034168,-0.027839l0.003106,-0.040212l-0.071443,-0.083516l-0.059018,-0.00928l-0.02485,-0.018559l0.003106,-0.043305l-0.052805,-0.046398l-0.108717,-0.034025l-0.071443,-0.058771l-0.158416,-0.064957l-0.06523,-0.052584l-0.077655,0.006186l-0.009319,0.052584l0.037274,0.037118l0.074549,0.012373Z M1251.638532,296.604538l0.031062,-0.006186l0.062124,-0.064957l-0.012425,-0.052584l-0.034168,-0.012373l-0.052805,0.052584l-0.021743,0.064957l0.027956,0.018559Z M1251.017292,296.684962l0.080761,-0.018559l0.046593,-0.037118l0.015531,-0.117542l0.06523,-0.052584l0.06523,0.018559l0.062124,-0.006186l0.062124,-0.040212l0.006212,-0.058771l-0.046593,-0.043305l-0.006212,-0.052584l0.034168,-0.052584l-0.015531,-0.027839l-0.055912,0.006186l-0.105611,0.083516l-0.009319,0.083516l-0.118035,0.14538l-0.124248,0.046398l-0.021743,0.074237l0.06523,0.049491Z M1251.194346,296.660216l-0.003106,0.043305l0.043487,0.046398l0.046593,-0.003093l0.018637,-0.027839l-0.015531,-0.064957l-0.040381,-0.037118l-0.031062,0.003093l-0.018637,0.040212Z M1251.185027,296.870554l0.034168,-0.015466l0.046593,0.00928l0.012425,0.043305l0.037274,0.049491l0.037274,0.003093l0.052805,-0.052584l-0.034168,-0.055678l-0.102505,-0.040212l-0.09008,0.003093l-0.018637,0.037118l0.02485,0.018559Z M1251.433523,296.842715l0.009319,0.034025l0.118035,-0.015466l0.046593,-0.052584l0.006212,-0.095889l-0.040381,-0.018559l-0.043487,0.018559l-0.049699,0.055678l-0.046593,0.074237Z M1250.980212,297.875989h0.04703l0.012376,-0.019719l-0.017327,-0.019719l-0.061881,0.00493l-0.012376,0.022184l0.032178,0.012324Z M1251.259916,298.460169l0.034654,-0.00493l0.012376,-0.022184l-0.017327,-0.022184l-0.029703,0.007395l-0.022277,0.022184l0.022277,0.019719Z M1251.217836,297.917892l0.032178,-0.00493l0.017327,-0.022184l-0.012376,-0.017254l-0.042079,0.002465l-0.014852,0.032044l0.019802,0.00986Z M1248.715358,297.715771l0.032178,0.012324l0.022277,-0.017254l-0.002475,-0.029579l-0.044555,-0.00986l-0.019802,0.017254l0.012376,0.027114Z M1248.487635,297.940076l0.027228,-0.007395l0.009901,-0.017254l-0.012376,-0.017254l-0.034654,0.002465l-0.014852,0.027114l0.024753,0.012324Z M1248.665853,298.050996l0.039604,-0.017254l-0.004951,-0.019719l-0.039604,-0.012324l-0.027228,0.017254l-0.009901,0.022184l0.042079,0.00986Z M1249.007437,298.637641l0.054456,-0.022184v-0.024649l-0.064357,-0.014789l-0.032178,0.007395l-0.002475,0.041903l0.044555,0.012324Z M1249.180705,298.504537h0.029703l0.037129,-0.019719l0.004951,-0.027114l-0.029703,-0.00986l-0.061881,0.014789l-0.012376,0.022184l0.032178,0.019719Z M1249.012388,298.388687l0.034654,-0.002465l0.012376,-0.024649l-0.012376,-0.019719l-0.04703,0.00493l-0.012376,0.019719l0.024753,0.022184Z M1249.561894,298.346783l0.029703,-0.00986l0.012376,-0.039438l-0.014852,-0.032044l-0.059406,-0.032044h-0.029703l-0.022277,0.027114l0.029703,0.071482l0.054456,0.014789Z M1250.141102,298.539045l0.024753,0.017254l0.024753,-0.014789l-0.002475,-0.034509l-0.024753,-0.012324l-0.027228,0.00986l0.004951,0.034509Z M1249.029715,298.046066l0.106436,0.032044l0.059406,-0.022184l0.022277,-0.036973l-0.029703,-0.046833l0.014852,-0.034509l-0.029703,-0.017254l-0.044555,0.00986l-0.039604,0.041903l-0.012376,0.039438l-0.039604,0.002465l-0.007426,0.032044Z M1249.047041,298.139732l-0.014852,0.017254l0.007426,0.041903l0.032178,0.00493l0.044555,-0.046833h0.054456l0.069307,0.078877l0.007426,0.059157l0.101485,0.049298l0.059406,-0.014789l0.024753,-0.056693l-0.049505,-0.083806l-0.044555,-0.032044l-0.066832,0.002465l-0.079208,-0.051763l-0.064357,-0.00493l-0.089109,-0.022184l-0.012376,0.029579l0.019802,0.029579Z M1249.113873,298.262977l0.042079,0.019719l0.042079,-0.002465l0.014852,-0.032044l-0.034654,-0.032044l-0.054456,0.002465l-0.017327,0.017254l0.007426,0.027114Z M1249.863874,298.465098l0.039604,-0.019719l-0.002475,-0.019719l-0.044555,-0.007395l-0.034654,0.014789v0.024649l0.042079,0.007395Z M1249.930706,298.524256l0.039604,-0.012324l0.002475,-0.019719l-0.032178,-0.014789l-0.042079,0.00986v0.024649l0.032178,0.012324Z M1250.752489,298.548905l0.019802,-0.029579v-0.032044l-0.022277,-0.002465l-0.019802,0.024649l-0.002475,0.039438h0.024753Z M1249.559418,298.137267h0.034654l0.027228,-0.014789l-0.012376,-0.022184l-0.039604,-0.00493l-0.019802,0.019719l0.009901,0.022184Z M1249.893577,298.090434l0.022277,0.024649h0.019802l0.017327,-0.017254l-0.019802,-0.024649l-0.027228,-0.002465l-0.012376,0.019719Z M1248.767338,298.043601l0.04703,-0.00986l0.002475,-0.019719l-0.024753,-0.012324l-0.04703,0.007395l-0.009901,0.019719l0.032178,0.014789Z M1248.957932,297.947471l0.084159,-0.019719l0.076733,-0.044368l0.002475,-0.027114l-0.037129,-0.00493l-0.029703,0.022184h-0.04703l-0.042079,-0.007395l-0.032178,0.029579l0.004951,0.041903l0.019802,0.00986Z M1247.267336,296.968908l0.002475,0.034509l0.019802,0.029579l0.019802,-0.002465v-0.027114l-0.014852,-0.032044l-0.027228,-0.002465Z M1247.876248,297.572807l0.022277,0.00493l0.024753,-0.007395l-0.002475,-0.027114l-0.029703,-0.007395l-0.019802,0.017254l0.004951,0.019719Z M1249.408282,296.293672l0.009319,-0.171673l-0.088527,-0.074237l-0.004659,-0.092796l-0.139779,-0.134554l-0.083867,-0.143834l0.009319,-0.120635l0.037274,-0.074237l0.032615,-0.00928l0.009319,0.064957l-0.032615,0.046398v0.083516l0.088527,0.134554l0.121142,0.106715l0.055912,-0.00464l0.013978,-0.125275l0.06523,-0.088156l0.018637,-0.083516l0.037274,-0.074237l0.013978,-0.092796l-0.041934,-0.051038l0.032615,-0.060317h0.046593l0.055912,0.083516l-0.004659,0.078877l-0.093186,0.129914l-0.013978,0.083516l-0.079208,0.078877l-0.004659,0.134554l-0.060571,0.115995l0.032615,0.037118l0.06523,-0.00464l0.055912,0.051038l0.013978,0.088156l-0.062124,0.071144l0.059018,0.133008l0.080761,0.046398l0.062124,0.006186l0.055912,0.030932l0.043487,0.080423l0.077655,0.024746l0.139779,-0.024746l0.009319,-0.046398l0.052805,-0.00928l0.161522,0.074237l0.031062,0.055678l0.099398,0.040212l0.09008,-0.006186l0.040381,-0.049491v-0.064957l0.077655,-0.089703l0.068336,-0.018559l0.055912,0.012373l0.133566,-0.06805l0.021743,-0.030932h0.046593l0.052805,0.034025l0.086974,0.00928l0.080761,-0.105169l-0.012425,-0.046398l-0.09008,-0.034025l-0.043487,0.006186l-0.031062,0.052584l-0.034168,0.003093l-0.086974,-0.049491l-0.040381,-0.092796l-0.09008,-0.114448l0.02485,-0.030932l0.071443,0.00928l0.034168,0.046398l0.059018,0.018559l0.06523,-0.049491l0.012425,-0.083516l-0.043487,-0.08661l0.018637,-0.071144l0.046593,-0.043305l0.009319,-0.046398l0.043487,-0.034025l0.062124,-0.006186l0.009319,-0.021652l-0.043487,-0.027839l-0.093186,-0.021652l-0.102505,-0.064957l-0.105611,-0.015466l-0.068336,-0.037118l-0.021743,-0.061864l-0.034168,-0.015466l-0.037274,0.027839l-0.027956,-0.015466l0.031062,-0.089703l0.074549,-0.040212l0.003106,-0.083516l-0.037274,-0.043305h-0.037274l-0.046593,-0.024746v-0.064957l-0.068336,-0.046398l-0.127354,-0.012373l-0.074549,-0.037118l-0.046593,0.012373l0.046593,0.108262l-0.021743,0.027839l-0.077655,-0.024746l-0.018637,-0.049491l-0.074549,-0.043305l-0.027956,-0.080423l0.015531,-0.049491l0.027956,-0.012373l0.006212,-0.034025l-0.149097,-0.071144l-0.124248,-0.030932l-0.043487,0.00928l-0.003106,0.058771l-0.037274,0.06805l-0.021743,-0.003093l-0.018637,-0.064957l-0.055912,-0.021652l-0.043487,0.012373l-0.145991,-0.040212l-0.096292,0.00928l-0.055912,0.037118l-0.062124,-0.006186l-0.055912,-0.034025l-0.09008,0.012373l-0.034168,0.040212h-0.037274l-0.015531,-0.034025l-0.043487,-0.006186l-0.046593,0.071144l-0.059018,0.058771l0.003106,0.049491l-0.021743,0.006186l-0.018637,-0.061864l0.055912,-0.07733l-0.015531,-0.058771l0.055912,-0.098982l0.077655,-0.024746l0.043487,-0.074237l-0.021743,-0.061864l-0.093186,-0.021652l-0.09008,0.049491l-0.040381,-0.00928l0.012425,-0.027839l0.021743,-0.00928l0.009319,-0.049491l-0.040381,-0.095889l-0.127354,-0.074237l-0.226752,-0.021652l-0.161522,0.024746l-0.055912,0.071144l-0.083867,0.018559l-0.077655,-0.024746l-0.031062,0.018559l-0.021743,0.06805l-0.06523,0.058771l-0.012425,0.182499l0.068336,0.055678l-0.012425,0.024746l-0.093186,0.003093l-0.046593,0.052584l-0.006212,0.061864l0.049699,0.083516l-0.018637,0.105169l-0.027956,0.021652l-0.003106,0.058771l0.071443,0.06805l0.083867,0.00928l0.096292,-0.021652l0.021743,-0.052584l-0.046593,-0.06805l-0.077655,-0.037118l-0.012425,-0.108262l0.031062,-0.037118l0.055912,0.018559l0.083867,0.142287l0.012425,0.102076l-0.021743,0.061864l0.071443,0.061864l0.145991,-0.021652l0.15531,-0.108262l0.099398,0.018559l0.062124,0.07733l-0.021743,0.046398l-0.074549,0.012373l-0.02485,0.049491l0.068336,0.037118l-0.009319,0.080423l-0.105611,-0.006186l-0.052805,-0.07733l0.015531,-0.074237l-0.040381,-0.027839l-0.080761,0.003093l-0.074549,0.061864l0.012425,0.040212l0.086974,0.040212l0.046593,0.08661l-0.02485,0.046398l0.012425,0.037118l0.06523,0.006186l0.068336,-0.071144h0.031062l0.009319,0.129914l-0.052805,0.095889l-0.139779,0.074237l-0.052805,0.08661l-0.006212,0.114448l-0.040381,0.015466l-0.111823,-0.030932l-0.034168,-0.07733l0.015531,-0.089703l-0.034168,-0.027839l-0.086974,0.030932l-0.027956,0.064957l0.015531,0.058771l-0.049699,0.185592l0.040381,0.15466l0.071443,0.071144l0.006212,0.064957l-0.052805,0.043305l-0.049699,-0.00928l-0.059018,-0.170126l-0.034168,-0.201058l0.009319,-0.111355l-0.046593,-0.034025l-0.059018,0.003093l-0.034168,-0.00928l-0.034168,-0.089703l0.040381,-0.176312l0.142885,-0.16394l0.021743,-0.120635l0.068336,-0.040212v-0.055678l-0.097845,-0.064957l-0.066783,0.018559l-0.027956,-0.00928l-0.012425,-0.049491l-0.037274,-0.006186l-0.031062,0.043305h-0.034168l-0.015531,-0.071144l-0.077655,-0.034025l-0.049699,0.018559l-0.003106,0.043305l0.068336,0.052584l0.003106,0.055678l-0.034168,0.046398l-0.006212,0.089703l0.059018,0.043305l0.006212,0.098982l-0.040381,0.052584h-0.086974l-0.071443,-0.108262l-0.052805,0.003093l-0.052805,0.052584l-0.06523,0.003093l-0.034168,-0.027839h-0.046593l-0.049699,0.080423l0.015531,0.049491l-0.021743,0.015466l-0.037274,-0.058771l0.031062,-0.080423l-0.02485,-0.049491l-0.118035,-0.043305l-0.062124,0.030932l-0.040381,0.07733l0.02485,0.043305l0.062124,0.037118l0.068336,0.22271l-0.012425,0.102076l0.046593,0.151567l0.145991,0.114448l0.027956,0.129914l-0.034168,0.07733l0.02485,0.120635l0.068336,0.111355l0.015531,0.089703l-0.015531,0.046398l0.040381,0.117542l0.043487,0.037118l0.006212,0.037118l-0.018637,0.030932l0.018637,0.030932l0.046593,0.018559l0.02485,0.08661l-0.012425,0.049491l0.049699,0.114448l0.056645,0.061227l0.061391,0.047035l0.009319,0.061864l0.111823,0.027839l0.10299,-0.126048l0.089109,-0.022184l0.079208,0.049298l0.022277,0.083806l0.121287,0.024649l0.153466,-0.032044l0.054456,0.032044l0.044555,-0.00493l0.027228,-0.054228h0.05198l0.04703,0.036973h0.096535l0.054456,0.041903l-0.039604,0.044368l0.002475,0.032044l0.049505,0.007395l0.054456,-0.041903l-0.012376,-0.049298l-0.027228,-0.056693l0.002475,-0.123245l0.024753,-0.049298h0.022277l-0.004951,0.056693l0.012376,0.118315l0.04703,0.056693l0.009901,0.064087l-0.007426,0.036973l0.069307,0.061622l0.042079,0.00986l0.019802,0.086271l0.027228,0.024649l0.024753,-0.00493l0.019802,-0.083806l-0.009901,-0.064087l0.019802,-0.056693l-0.004951,-0.036973l-0.101485,-0.096131l-0.024753,-0.118315l0.034654,-0.044368l0.101485,-0.017254l0.066832,0.046833l0.019802,0.118315l0.022277,0.032044l0.037129,-0.00493v-0.093666l0.019802,-0.044368h0.024753l0.064357,0.073947l0.002475,0.093666l-0.037129,0.046833l-0.054456,-0.00986l-0.027228,0.012324l-0.012376,0.056693l-0.05198,0.034509l-0.002475,0.059157l0.032178,0.032044h0.04703l0.027228,-0.027114l0.111386,0.007395l0.074258,0.066552l0.054456,0.128174l0.076733,0.073947l0.056931,0.012324l0.03742,-0.020589l0.052805,0.018559l0.06523,0.07733h0.034168l-0.006212,-0.037118l-0.052805,-0.046398l0.009319,-0.046398l0.074549,-0.024746l0.049699,0.021652l0.108717,0.123728l0.071443,0.071144l0.003106,0.06805l-0.049699,0.136101l0.018637,0.055678l0.052805,0.018559l0.031062,-0.027839l0.071443,0.003093l0.027956,0.043305l0.059018,0.00928l0.068336,-0.034025l0.027956,-0.114448l0.040381,-0.040212h0.037274l0.043487,0.083516v0.151567l0.031062,0.046398l-0.021743,0.046398l-0.040381,0.012373l-0.018637,0.037118l0.015531,0.052584h0.037274l0.052805,-0.064957l0.055912,-0.018559l0.062124,-0.108262l0.012425,-0.071144l0.046593,-0.061864l0.09008,-0.021652l0.009319,-0.030932l-0.034168,-0.049491l-0.077655,-0.024746l-0.049699,-0.07733l0.021743,-0.117542l0.003106,-0.139194l0.049699,-0.108262l-0.02485,-0.043305l0.021743,-0.080423l0.118035,-0.046398l0.074549,0.003093l0.018637,0.040212l-0.043487,0.043305v0.034025l0.080761,0.012373l0.121142,-0.089703l0.015531,-0.098982l-0.031062,-0.055678l0.046593,-0.142287l0.071443,-0.061864l0.040381,-0.3186l-0.059018,-0.080423l-0.071443,-0.027839l-0.062124,-0.08661l-0.068336,-0.018559l-0.015531,0.027839l0.02485,0.06805l-0.003106,0.098982l-0.031062,0.046398l0.021743,0.046398l0.015531,0.080423l-0.02485,0.006186l-0.040381,-0.080423l-0.015531,-0.136101l0.021743,-0.055678l-0.012425,-0.058771l-0.071443,-0.055678l-0.055912,0.003093l-0.052805,0.08661l0.012425,0.105169l0.086974,0.06805l-0.003106,0.040212l-0.074549,0.034025l-0.052805,-0.043305l-0.006212,-0.040212l-0.027956,-0.006186l-0.012425,0.037118l0.012425,0.080423l0.021743,0.06805l-0.012425,0.126821l-0.059018,0.08661l-0.003106,0.055678l0.099398,0.046398l0.062124,0.030932l-0.003106,0.034025l-0.031062,0.006186l-0.046593,-0.043305h-0.074549l-0.043487,0.046398l-0.055912,0.003093l-0.021743,-0.037118l-0.034168,0.003093l-0.015531,0.021652h-0.031062l-0.015531,-0.046398l-0.093186,-0.037118l-0.071443,0.024746l-0.102505,-0.003093l-0.13046,-0.114448l-0.09008,-0.00928l-0.043487,-0.055678l-0.049699,0.018559l-0.031062,0.133008l-0.043487,0.030932l-0.055912,-0.040212l-0.015531,0.015466l0.021743,0.064957l-0.043487,0.024746l-0.111823,-0.021652l-0.086974,-0.089703l0.02485,-0.071144l0.06523,-0.037118l0.046593,-0.136101l-0.046593,-0.07733l-0.096292,-0.012373l-0.052805,-0.120635l0.021743,-0.043305l0.046593,-0.015466l0.071443,-0.14538l-0.018637,-0.151567l0.031062,-0.098982l-0.02485,-0.043305h-0.06523l-0.071443,0.058771l-0.062124,0.006186l-0.027956,-0.018559l0.02485,-0.055678l-0.031062,-0.133008l0.077655,-0.106715Z M1248.861398,297.757674l-0.002475,0.069017l0.024753,0.029579l0.056931,-0.012324l0.019802,-0.034509l-0.009901,-0.049298l-0.042079,-0.024649l-0.04703,0.022184Z M1248.797041,298.171776l0.027228,-0.014789l0.002475,-0.022184l-0.019802,-0.007395l-0.024753,0.00986l-0.004951,0.024649l0.019802,0.00986Z M1249.703371,297.430423l0.040381,-0.018559l-0.006212,-0.027839l-0.052805,-0.00928l-0.037274,0.021652l-0.003106,0.030932l0.059018,0.003093Z M1249.690946,296.632377l0.049699,-0.027839l0.003106,-0.037118l-0.027956,-0.024746l-0.052805,0.027839l-0.006212,0.043305l0.034168,0.018559Z M1249.451769,296.440599h0.031062l0.015531,-0.021652l-0.015531,-0.030932h-0.027956l-0.015531,0.030932l0.012425,0.021652Z M1249.454875,296.228715l0.027956,0.037118l0.041934,-0.032479l0.013978,-0.055678l-0.037274,-0.013919l-0.037274,0.027839l-0.009319,0.037118Z M1248.911291,293.848497l0.040381,-0.018559l-0.018637,-0.037118l-0.02485,-0.003093l-0.027956,0.015466l0.003106,0.030932l0.027956,0.012373Z M1250.041947,294.733152h0.06523l0.062124,-0.040212l0.021743,-0.083516l-0.018637,-0.037118l-0.062124,0.003093l-0.093186,0.080423l-0.003106,0.052584l0.027956,0.024746Z M1249.880424,294.649636l0.086974,0.003093l0.124248,-0.111355l0.003106,-0.08661l-0.049699,-0.030932l-0.09008,0.012373l-0.055912,0.07733l-0.077655,0.037118l-0.018637,0.046398l0.077655,0.052584Z M1249.013795,294.668195l0.003106,0.034025l0.055912,0.018559h0.083867l0.018637,-0.040212l-0.031062,-0.046398l-0.071443,0.003093l-0.059018,0.030932Z M1249.225017,294.686754l0.031062,-0.003093l0.012425,-0.034025l-0.012425,-0.071144l-0.037274,-0.006186l-0.012425,-0.040212l0.037274,-0.064957l-0.02485,-0.012373l-0.080761,0.080423l0.003106,0.052584l0.062124,0.043305l0.021743,0.055678Z M1249.470406,294.652729l0.049699,0.003093l0.031062,-0.024746l0.062124,0.018559l0.031062,0.037118h0.027956l0.009319,-0.030932l-0.02485,-0.046398l-0.114929,-0.046398l-0.071443,0.021652l-0.02485,0.046398l0.02485,0.021652Z M1250.228318,294.915651l0.031062,-0.003093l0.018637,-0.024746l-0.021743,-0.024746l-0.049699,0.003093l-0.009319,0.027839l0.031062,0.021652Z M1250.470602,294.903278h0.049699l0.009319,-0.021652l-0.040381,-0.030932h-0.031062l-0.018637,0.024746l0.031062,0.027839Z M1249.389645,294.145444l0.046593,-0.012373l0.037274,0.021652l-0.006212,0.034025l0.02485,0.049491l0.071443,0.006186l0.043487,-0.043305l0.040381,-0.003093l0.059018,0.012373l0.055912,-0.006186l0.015531,-0.071144l-0.018637,-0.055678l-0.124248,-0.012373l-0.059018,0.055678l-0.034168,0.006186l-0.027956,-0.037118l-0.096292,-0.018559l-0.068336,0.018559l-0.003106,0.037118l0.043487,0.018559Z M1249.830725,294.235147l0.037274,0.003093l0.02485,-0.015466l-0.006212,-0.027839l-0.062124,-0.006186l-0.015531,0.021652l0.021743,0.024746Z M1249.830725,294.139258l0.02485,-0.015466v-0.034025l-0.021743,-0.015466l-0.02485,0.012373v0.034025l0.021743,0.018559Z M1248.243459,295.79412l0.037274,-0.006186l0.031062,-0.058771l0.068336,-0.102076l-0.021743,-0.021652l-0.027956,0.00928l-0.062124,0.089703l-0.040381,0.018559l-0.015531,0.030932l0.031062,0.040212Z M1248.172016,295.738442l0.027956,-0.058771l0.043487,-0.018559l0.009319,-0.037118l-0.02485,-0.034025l0.034168,-0.102076l0.040381,-0.034025l0.018637,-0.055678l-0.037274,-0.00928l-0.027956,0.00928l-0.034168,-0.006186l-0.012425,-0.061864l-0.055912,-0.006186l-0.077655,0.083516l-0.043487,0.034025l-0.003106,0.061864l0.052805,0.064957l0.006212,0.102076l0.043487,0.06805h0.040381Z M1252.143289,296.57206l0.037274,-0.023199v-0.032479l-0.037274,-0.00928l-0.046593,0.013919l0.009319,0.037118l0.037274,0.013919Z M1253.079807,296.650936l0.037274,-0.041758l-0.018637,-0.032479l-0.032615,0.00928l-0.023296,0.046398l0.037274,0.018559Z M1252.497541,294.417743l0.044555,-0.002465l0.009901,-0.017254l-0.022277,-0.027114l-0.044555,0.002465l-0.014852,0.019719l0.027228,0.024649Z M1247.252582,295.17548l0.052805,-0.043305l0.012425,-0.064957l-0.068336,-0.061864l-0.046593,0.012373l-0.027956,0.064957l0.015531,0.071144l0.062124,0.021652Z M1247.364405,295.283742l0.040381,0.018559l0.06523,-0.012373l0.02485,-0.037118l-0.034168,-0.058771l-0.046593,-0.012373l-0.118035,0.071144l0.012425,0.037118l0.055912,-0.006186Z M1247.345768,295.509546l0.031062,-0.015466l0.003106,-0.030932l-0.043487,-0.024746l-0.043487,0.012373l-0.006212,0.034025l0.059018,0.024746Z M1247.799272,295.110523l0.031062,-0.024746l0.003106,-0.049491l-0.027956,-0.021652l-0.027956,0.00928l-0.009319,0.074237l0.031062,0.012373Z M1247.35198,294.878533l0.043487,-0.021652v-0.058771l-0.071443,-0.095889l-0.034168,-0.024746l-0.027956,0.018559l-0.006212,0.080423l0.021743,0.06805l0.074549,0.034025Z M1247.361299,294.677475l0.080761,0.071144l0.068336,0.012373l0.046593,-0.024746l0.02485,-0.117542l-0.02485,-0.040212l-0.093186,-0.043305l-0.040381,0.00928l-0.062124,0.061864v0.071144Z M1247.821016,294.631077l0.049699,0.003093l0.049699,-0.07733l0.027956,-0.129914l0.068336,-0.089703l-0.021743,-0.018559l-0.062124,0.021652l-0.049699,0.055678l-0.068336,0.027839l-0.043487,-0.018559l0.009319,-0.089703l0.031062,-0.064957l-0.012425,-0.043305l-0.077655,-0.018559l-0.043487,0.024746l0.009319,0.167033l0.055912,0.120635l0.055912,0.027839l0.021743,0.037118v0.064957Z M1247.563201,294.915651l0.034168,-0.015466l0.043487,0.006186l0.040381,0.055678l0.114929,0.015466l0.034168,-0.027839l-0.003106,-0.046398l-0.09008,-0.037118l-0.02485,-0.052584l0.052805,-0.015466l0.031062,0.00928l0.034168,-0.006186l0.015531,-0.071144l-0.027956,-0.058771l-0.034168,0.003093l-0.006212,0.049491l-0.037274,0.018559l-0.059018,0.006186l-0.142885,0.06805l-0.015531,0.074237l0.040381,0.024746Z M1247.320918,294.544467l-0.003106,-0.037118l-0.021743,-0.027839l-0.02485,0.003093l-0.003106,0.037118l0.031062,0.040212l0.021743,-0.015466Z M1247.218413,295.490986l0.02485,-0.00928l0.003106,-0.024746l-0.021743,-0.018559l-0.043487,0.012373v0.027839l0.037274,0.012373Z M1247.538352,295.104336l0.015531,-0.027839v-0.034025l-0.031062,-0.006186l-0.018637,0.024746l0.009319,0.040212l0.02485,0.003093Z M1247.460697,294.454764h0.027956l-0.006212,-0.046398l-0.034168,-0.08661l0.034168,-0.080423l0.055912,-0.064957l-0.012425,-0.027839l-0.052805,0.021652l-0.06523,0.098982v0.07733l0.052805,0.108262Z M1247.563201,294.309384l0.031062,-0.027839l0.003106,-0.027839l-0.021743,-0.00928l-0.02485,0.021652l-0.012425,0.040212l0.02485,0.003093Z M1247.581839,294.535188l0.049699,0.018559l0.034168,-0.018559v-0.055678l-0.02485,-0.003093l-0.012425,0.024746h-0.021743l-0.021743,-0.018559l-0.021743,0.012373l0.018637,0.040212Z M1247.591157,294.210402l0.027956,-0.027839v-0.027839l-0.021743,-0.003093l-0.02485,0.018559l-0.012425,0.037118l0.031062,0.003093Z M1246.62513,294.40218l0.043487,-0.006186l0.015531,-0.024746l-0.021743,-0.021652l-0.046593,0.00928l-0.009319,0.021652l0.018637,0.021652Z M1246.699679,294.303198l0.012425,-0.021652l-0.018637,-0.021652h-0.034168l-0.015531,0.024746l0.027956,0.021652l0.027956,-0.003093Z M1247.153183,294.757898l0.02485,-0.027839l0.003106,-0.030932l-0.02485,-0.006186l-0.02485,0.027839l-0.003106,0.034025l0.02485,0.003093Z M1246.88605,295.64874l0.034168,0.018559l0.021743,-0.015466l-0.018637,-0.043305l-0.031062,-0.006186l-0.021743,0.015466l0.015531,0.030932Z M1246.84567,295.460054l0.018637,-0.024746l0.006212,-0.083516l-0.027956,-0.027839l-0.037274,0.015466l-0.012425,0.043305l0.021743,0.080423l0.031062,-0.003093Z M1246.926431,295.438402l0.049699,-0.015466l0.003106,-0.027839l-0.043487,-0.012373l-0.02485,0.006186l-0.012425,0.034025l0.027956,0.015466Z M1245.845474,295.70751l0.006212,-0.030932l-0.015531,-0.040212l-0.037274,-0.021652l-0.034168,0.012373l0.003106,0.030932l0.049699,0.058771l0.027956,-0.00928Z M1246.134351,295.596155h0.02485l0.021743,-0.046398l-0.009319,-0.030932l-0.027956,0.003093l-0.012425,0.037118l0.003106,0.037118Z M1246.246174,295.778654l0.006212,-0.052584l-0.021743,-0.052584l-0.02485,-0.034025l-0.02485,0.018559l0.003106,0.074237l0.034168,0.055678l0.027956,-0.00928Z M1246.165413,294.996074h0.052805l0.015531,-0.024746l-0.018637,-0.027839h-0.062124l-0.021743,0.034025l0.034168,0.018559Z M1246.305192,294.999168l0.052805,-0.00928l0.006212,-0.021652l-0.040381,-0.015466l-0.046593,0.006186l-0.009319,0.021652l0.037274,0.018559Z M1246.432546,295.082684l0.062124,-0.003093l0.077655,0.034025l0.037274,0.061864l0.031062,-0.003093l-0.006212,-0.098982l0.043487,-0.123728l0.09008,-0.055678l0.043487,-0.074237l-0.012425,-0.034025l-0.052805,0.006186l-0.186372,0.105169l-0.037274,0.06805l-0.052805,0.043305l-0.071443,0.018559l-0.006212,0.030932l0.040381,0.024746Z M1246.491563,295.302301l0.009319,-0.080423l-0.018637,-0.030932l-0.021743,0.003093l-0.009319,0.074237l0.012425,0.043305l0.027956,-0.00928Z M1245.693271,294.974422l0.031062,-0.012373l0.003106,-0.021652l-0.02485,-0.015466l-0.027956,0.012373l-0.012425,0.027839l0.031062,0.00928Z M1247.112803,294.550654l0.034168,0.006186l0.021743,-0.018559l-0.012425,-0.024746l-0.034168,-0.003093l-0.021743,0.015466l0.012425,0.024746Z M1247.215307,296.607632l0.02485,-0.015466l0.006212,-0.030932l-0.021743,-0.030932l-0.027956,0.003093l-0.015531,0.030932l0.009319,0.037118l0.02485,0.006186Z M1247.168714,296.783944l0.040381,0.034025l0.034168,-0.00928l0.037274,-0.111355l-0.006212,-0.052584l-0.043487,-0.00928l-0.052805,0.015466l-0.021743,0.08661l0.012425,0.046398Z M1247.075528,296.10344l-0.012425,-0.049491l-0.021743,-0.021652l-0.021743,0.00928l0.006212,0.043305l0.02485,0.024746l0.02485,-0.006186Z M1246.786652,296.892206l0.018637,-0.052584l-0.018637,-0.049491l-0.049699,-0.012373l-0.037274,0.027839l0.003106,0.058771l0.031062,0.040212l0.052805,-0.012373Z M1245.892067,295.837425l0.003106,0.030932l-0.027956,0.034025l-0.009319,0.07733l-0.037274,0.052584l0.003106,0.046398l0.040381,0.012373l0.040381,-0.021652h0.074549l0.027956,0.024746l0.043487,-0.00928l0.037274,-0.074237l0.027956,-0.003093l0.034168,0.07733l0.105611,0.034025l0.018637,0.024746l-0.018637,0.027839l0.006212,0.08661l0.037274,0.043305l-0.031062,0.024746l-0.049699,-0.00928l-0.062124,0.00928l-0.034168,0.074237l0.012425,0.204151l-0.02485,0.074237l0.003106,0.058771l0.114929,0.089703l0.059018,0.14538l0.046593,0.015466l0.037274,-0.021652l0.059018,0.006186l0.043487,0.037118l0.083867,0.003093l0.114929,-0.07733l0.009319,-0.06805l-0.055912,-0.080423l0.02485,-0.117542l0.049699,-0.061864l-0.021743,-0.058771l-0.059018,-0.018559l-0.015531,-0.046398l0.012425,-0.046398l-0.006212,-0.043305l-0.043487,-0.052584l-0.006212,-0.058771l0.02485,-0.006186l0.055912,0.07733l0.046593,0.120635l0.049699,0.027839h0.040381l0.02485,0.024746l-0.052805,0.055678l0.031062,0.083516l0.086974,0.024746l0.040381,0.055678l0.02485,-0.015466l-0.012425,-0.06805l0.074549,-0.037118l0.027956,0.012373l-0.031062,0.052584l0.012425,0.07733l0.037274,0.024746l0.080761,-0.064957l0.012425,-0.151567l0.031062,-0.083516l0.015531,-0.129914l0.043487,-0.049491l-0.003106,-0.058771l-0.071443,-0.055678l-0.102505,-0.024746l-0.080761,-0.07733l0.003106,-0.129914l0.040381,-0.074237l-0.052805,-0.095889l-0.037274,-0.015466l-0.040381,0.021652l-0.034168,-0.018559l-0.006212,-0.049491l-0.06523,-0.105169l-0.080761,-0.018559l0.003106,-0.034025l0.040381,-0.037118l0.009319,-0.114448l-0.018637,-0.071144l-0.027956,0.00928l-0.009319,0.074237l-0.083867,0.092796l-0.037274,0.194872l-0.071443,0.064957l-0.027956,0.003093l-0.012425,-0.06805l-0.031062,0.003093l-0.021743,0.129914l-0.043487,0.015466l-0.06523,-0.018559l-0.031062,0.012373l-0.034168,0.105169l-0.055912,-0.003093l-0.02485,-0.049491l0.009319,-0.040212l0.062124,-0.018559l0.009319,-0.027839l-0.049699,-0.015466l-0.127354,0.043305l-0.037274,0.071144l-0.052805,0.024746l-0.021743,-0.021652l0.031062,-0.055678l-0.012425,-0.092796l-0.043487,-0.018559l-0.034168,0.006186l-0.009319,0.024746l0.018637,0.037118Z M1245.575235,295.797213l0.009319,0.049491l0.034168,0.018559l0.018637,-0.021652l-0.034168,-0.055678l-0.027956,0.00928Z M1252.669789,298.559441l-0.006212,0.030932l0.021743,0.018559l0.02485,-0.00928l0.003106,-0.024746l-0.021743,-0.021652l-0.021743,0.006186Z M1255.276454,294.202475l-0.002465,0.034509l0.017254,0.022184l0.022184,-0.007395l0.00493,-0.032044l-0.017254,-0.019719l-0.024649,0.002465Z M1245.907247,295.641297l0.024746,-0.018559l-0.021652,-0.024746l-0.024746,0.003093l-0.006186,0.024746l0.027839,0.015466Z "/>
</svg>
