<svg xmlns="http://www.w3.org/2000/svg" viewBox="1412.741 473.630 9.103 7.373">
  <path d="M1413.023568,474.92008l0.021,0.077l0.065,0.05l0.115,0.009l0.077,0.047l0.062,-0.01l0.055,-0.055l0.053,0.021l-0.022,0.09l0.034,0.025l0.106,-0.04l0.024,0.024l-0.034,0.099l0.115,0.105l0.006,0.059l-0.028,0.056l0.006,0.111l0.05,0.05l0.003,0.034l-0.031,0.031l0.009,0.037l0.238,0.213l-0.009,0.068l-0.049,0.025l0.003,0.037l0.037,0.034v0.037l-0.019,0.047l0.022,0.062l0.182,0.04l-0.003,0.04l-0.071,0.037l-0.003,0.087l0.331,0.221l0.139,0.028l0.139,0.162l-0.009,0.065l0.037,0.042l0.112,0.018l0.046,0.07l-0.014,0.111l0.047,0.042l0.083,0.014l0.028,0.042l-0.009,0.069l0.037,0.056l0.093,0.005l0.027,0.06l-0.046,0.065l0.023,0.032h0.074l0.038,0.051l-0.024,0.056l0.01,0.047l0.055,0.055l0.019,0.172l-0.019,0.204l0.051,0.023l0.116,-0.093l0.07,0.033l0.009,0.069l0.042,0.038l0.125,0.004l0.047,-0.032l0.037,0.009l0.028,0.065l0.348,0.121l0.157,-0.065l0.084,0.032l0.543,0.668v0.153l0.06,0.084l0.204,0.102l0.065,-0.014l0.042,0.065l-0.033,0.167l-0.074,0.107v0.083l0.084,0.07l0.227,0.056l0.176,0.06l0.149,0.107l0.12,0.004l0.098,-0.093l0.083,0.01l0.047,0.074l0.148,0.083l0.01,0.065l0.055,0.028l0.139,-0.032l0.038,-0.056h0.083l0.042,0.051l0.097,0.005l0.047,-0.023l0.06,0.009l0.213,0.144l0.07,0.009l0.135,0.005l0.134,0.051l0.07,-0.019l0.065,0.028l0.106,0.144l0.07,0.009l0.079,-0.056l0.097,0.019l0.056,0.111l0.311,0.112l0.083,-0.01l0.116,-0.125l0.093,0.005l0.149,0.102l0.204,0.051l0.232,-0.005l0.06,-0.102h0.07l0.111,0.13l0.2,0.065l0.125,0.116l0.093,0.028l0.023,-0.037l-0.037,-0.112l-0.014,-0.102l0.046,-0.088l-0.014,-0.102l-0.083,-0.079l-0.051,-0.074l0.004,-0.102l-0.027,-0.107l-0.061,-0.023l-0.014,-0.065l-0.004,-0.144l-0.051,-0.079l-0.005,-0.176l-0.042,-0.093l-0.102,-0.032l-0.032,-0.075l0.009,-0.083l-0.033,-0.102l0.014,-0.107l-0.046,-0.056l-0.084,-0.004l-0.153,-0.079l-0.069,-0.121v-0.065l0.065,-0.041v-0.093l-0.051,-0.07l-0.079,-0.014l-0.023,-0.069l0.009,-0.07l-0.111,-0.306l-0.019,-0.302l0.088,-0.12l0.019,-0.181l-0.051,-0.098l-0.084,-0.023l-0.093,0.005l-0.171,-0.102l-0.051,-0.084l-0.149,-0.088h-0.06l-0.065,-0.037l-0.028,-0.07l-0.195,-0.106l-0.339,-0.038l-0.097,-0.041l-0.023,-0.102l0.088,-0.344l0.223,-0.241l0.004,-0.088l-0.153,-0.121l0.005,-0.069l0.037,-0.102l-0.005,-0.172l-0.097,-0.19l-0.005,-0.079l-0.055,-0.056l-0.065,-0.014l-0.047,-0.042l-0.018,-0.074l-0.167,-0.056l-0.056,0.01l-0.074,-0.019l-0.042,-0.065l-0.172,-0.014l-0.167,0.14l-0.111,0.018l-0.255,0.144l-0.121,-0.033l-0.162,0.024l-0.079,0.134l-0.047,0.033l-0.065,-0.014l-0.092,0.023l-0.033,0.13l-0.269,0.116l-0.051,0.116l-0.051,0.004l-0.023,-0.074l-0.047,-0.004l-0.051,0.041l-0.055,-0.018l-0.056,-0.135l-0.306,-0.153l-0.26,0.005l-0.056,-0.033l-0.009,-0.06l-0.088,-0.07l-0.088,-0.023l-0.102,-0.158l0.065,-0.171l-0.042,-0.061l-0.357,0.005l-0.121,0.06l-0.028,0.135l-0.056,0.042l-0.139,-0.005l-0.125,-0.06l-0.014,-0.056l0.028,-0.042v-0.046l-0.037,-0.023v-0.112l0.083,-0.13l-0.014,-0.055l-0.046,-0.014l-0.009,-0.102l0.079,-0.088l-0.019,-0.089l-0.088,-0.023l-0.167,-0.171l-0.079,-0.167l-0.019,-0.098l-0.213,-0.241l-0.237,-0.121l-0.088,0.023l-0.023,0.051l-0.13,0.061l-0.102,0.106l-0.019,0.093l-0.181,0.061l-0.194,0.106l-0.135,0.014l-0.153,-0.06l-0.093,-0.102l-0.065,0.014l-0.046,0.055l-0.265,0.038l-0.454,0.134l0.009,0.084l0.125,0.125l0.093,0.056l0.032,0.083l-0.032,0.079l0.023,0.046h0.065l0.033,0.089l-0.065,0.134z"/>
</svg>
