<svg xmlns="http://www.w3.org/2000/svg" viewBox="1412.741 457.205 38.558 27.261">
  <path d="M1449.529697,468.817813l-0.006186,-0.123728l-0.129914,-0.259829l-0.142287,-0.043305v-0.074237l0.117542,-0.061864l0.08661,0.006186l0.06805,0.080423l0.105169,0.364998l-0.049491,0.123728l-0.049491,-0.012373Z M1451.051552,469.417894v0.092796l-0.092796,0.08661l-0.037118,0.111355l0.049491,0.012373l0.098982,-0.092796l0.173219,-0.037118l0.055678,-0.049491l-0.024746,-0.092796l-0.24127,-0.136101l-0.037118,0.030932l0.055678,0.074237Z M1446.758008,469.670919l-0.003093,0.027839l-0.049491,0.021652l-0.089703,-0.00928l0.003093,-0.030932l0.058771,-0.024746l0.080423,0.015466Z M1444.784884,472.00759v0.066552l0.098596,0.049298l0.039438,-0.014789l0.00493,-0.064087l-0.054228,-0.066552h-0.049298l-0.039438,0.029579Z M1441.363467,479.986741l0.018559,0.061864l0.098982,0.018559l0.266015,-0.160846l0.080423,-0.111355l-0.012373,-0.191778l-0.074237,-0.030932l-0.08661,0.049491l-0.173219,0.22271l-0.08661,0.06805l-0.030932,0.074237Z  M1413.023568,474.92008l0.021,0.077l0.065,0.05l0.115,0.009l0.077,0.047l0.062,-0.01l0.055,-0.055l0.053,0.021l-0.022,0.09l0.034,0.025l0.106,-0.04l0.024,0.024l-0.034,0.099l0.115,0.105l0.006,0.059l-0.028,0.056l0.006,0.111l0.05,0.05l0.003,0.034l-0.031,0.031l0.009,0.037l0.238,0.213l-0.009,0.068l-0.049,0.025l0.003,0.037l0.037,0.034v0.037l-0.019,0.047l0.022,0.062l0.182,0.04l-0.003,0.04l-0.071,0.037l-0.003,0.087l0.331,0.221l0.139,0.028l0.139,0.162l-0.009,0.065l0.037,0.042l0.112,0.018l0.046,0.07l-0.014,0.111l0.047,0.042l0.083,0.014l0.028,0.042l-0.009,0.069l0.037,0.056l0.093,0.005l0.027,0.06l-0.046,0.065l0.023,0.032h0.074l0.038,0.051l-0.024,0.056l0.01,0.047l0.055,0.055l0.019,0.172l-0.019,0.204l0.051,0.023l0.116,-0.093l0.07,0.033l0.009,0.069l0.042,0.038l0.125,0.004l0.047,-0.032l0.037,0.009l0.028,0.065l0.348,0.121l0.157,-0.065l0.084,0.032l0.543,0.668v0.153l0.06,0.084l0.204,0.102l0.065,-0.014l0.042,0.065l-0.033,0.167l-0.074,0.107v0.083l0.084,0.07l0.227,0.056l0.176,0.06l0.149,0.107l0.12,0.004l0.098,-0.093l0.083,0.01l0.047,0.074l0.148,0.083l0.01,0.065l0.055,0.028l0.139,-0.032l0.038,-0.056h0.083l0.042,0.051l0.097,0.005l0.047,-0.023l0.06,0.009l0.213,0.144l0.07,0.009l0.135,0.005l0.134,0.051l0.07,-0.019l0.065,0.028l0.106,0.144l0.07,0.009l0.079,-0.056l0.097,0.019l0.056,0.111l0.311,0.112l0.083,-0.01l0.116,-0.125l0.093,0.005l0.149,0.102l0.204,0.051l0.232,-0.005l0.06,-0.102h0.07l0.111,0.13l0.2,0.065l0.125,0.116l0.093,0.028l0.023,-0.037l-0.037,-0.112l-0.014,-0.102l0.046,-0.088l-0.014,-0.102l-0.083,-0.079l-0.051,-0.074l0.004,-0.102l-0.027,-0.107l-0.061,-0.023l-0.014,-0.065l-0.004,-0.144l-0.051,-0.079l-0.005,-0.176l-0.042,-0.093l-0.102,-0.032l-0.032,-0.075l0.009,-0.083l-0.033,-0.102l0.014,-0.107l-0.046,-0.056l-0.084,-0.004l-0.153,-0.079l-0.069,-0.121v-0.065l0.065,-0.041v-0.093l-0.051,-0.07l-0.079,-0.014l-0.023,-0.069l0.009,-0.07l-0.111,-0.306l-0.019,-0.302l0.088,-0.12l0.019,-0.181l-0.051,-0.098l-0.084,-0.023l-0.093,0.005l-0.171,-0.102l-0.051,-0.084l-0.149,-0.088h-0.06l-0.065,-0.037l-0.028,-0.07l-0.195,-0.106l-0.339,-0.038l-0.097,-0.041l-0.023,-0.102l0.088,-0.344l0.223,-0.241l0.004,-0.088l-0.153,-0.121l0.005,-0.069l0.037,-0.102l-0.005,-0.172l-0.097,-0.19l-0.005,-0.079l-0.055,-0.056l-0.065,-0.014l-0.047,-0.042l-0.018,-0.074l-0.167,-0.056l-0.056,0.01l-0.074,-0.019l-0.042,-0.065l-0.172,-0.014l-0.167,0.14l-0.111,0.018l-0.255,0.144l-0.121,-0.033l-0.162,0.024l-0.079,0.134l-0.047,0.033l-0.065,-0.014l-0.092,0.023l-0.033,0.13l-0.269,0.116l-0.051,0.116l-0.051,0.004l-0.023,-0.074l-0.047,-0.004l-0.051,0.041l-0.055,-0.018l-0.056,-0.135l-0.306,-0.153l-0.26,0.005l-0.056,-0.033l-0.009,-0.06l-0.088,-0.07l-0.088,-0.023l-0.102,-0.158l0.065,-0.171l-0.042,-0.061l-0.357,0.005l-0.121,0.06l-0.028,0.135l-0.056,0.042l-0.139,-0.005l-0.125,-0.06l-0.014,-0.056l0.028,-0.042v-0.046l-0.037,-0.023v-0.112l0.083,-0.13l-0.014,-0.055l-0.046,-0.014l-0.009,-0.102l0.079,-0.088l-0.019,-0.089l-0.088,-0.023l-0.167,-0.171l-0.079,-0.167l-0.019,-0.098l-0.213,-0.241l-0.237,-0.121l-0.088,0.023l-0.023,0.051l-0.13,0.061l-0.102,0.106l-0.019,0.093l-0.181,0.061l-0.194,0.106l-0.135,0.014l-0.153,-0.06l-0.093,-0.102l-0.065,0.014l-0.046,0.055l-0.265,0.038l-0.454,0.134l0.009,0.084l0.125,0.125l0.093,0.056l0.032,0.083l-0.032,0.079l0.023,0.046h0.065l0.033,0.089l-0.065,0.134z M1424.381798,480.815719l0.093,-0.045l0.153,-0.153l0.208,-0.112l0.548,-0.658v-0.098l0.074,-0.065l0.172,0.005l0.139,-0.074l0.102,-0.103l0.005,-0.157l0.088,-0.126l0.237,-0.157l0.334,-0.446l0.264,-0.074l0.237,0.019l0.106,0.111l0.112,0.005l0.427,-0.297l0.148,-0.191l0.009,-0.232l0.26,-0.306l0.381,-0.241l0.408,-0.139l0.52,-0.348l0.088,-0.01l0.06,-0.037l0.107,-0.241l0.301,-0.329l0.028,-0.098l0.07,-0.055l0.148,0.018l0.121,-0.056l0.102,-0.074l0.306,-0.069l0.413,-0.2l0.084,-0.093l0.821,-0.468l0.088,-0.005l0.241,-0.125l0.093,-0.135l0.126,-0.06l0.046,-0.116l0.204,-0.111l0.39,-0.084l0.181,0.065l0.153,-0.051l0.074,-0.111l0.186,-0.079l0.046,-0.084l0.107,-0.023l0.255,0.102l2.018,2.139l0.195,0.302l-0.042,0.06l-0.143,0.023l-0.506,0.26l-0.176,0.014l-0.274,0.12l-0.297,0.237l-0.093,0.121l-0.032,0.176l0.069,0.306l0.172,0.172l0.176,0.102l0.163,0.13l0.074,0.172l0.171,0.083l0.158,0.023l0.158,0.116l0.032,0.14l0.167,0.334l0.014,0.13l-0.065,0.157l-0.232,0.237l-0.153,0.093l-0.371,0.088l-0.158,-0.014l-0.194,0.014l-0.038,0.051l-0.06,0.018l-0.069,-0.013l-0.191,0.032l-0.06,-0.023l-0.051,0.018l-0.046,0.121l-0.019,0.116l-0.283,0.097l-0.065,-0.065l-0.07,0.01l-0.014,0.093l0.065,0.412l0.14,0.214l0.246,0.144l0.143,0.028l0.033,0.065l-0.019,0.069l0.028,0.033l0.111,-0.005l0.22,0.077l0.124,0.003l0.17,0.099l0.025,0.059l0.065,0.04l0.173,0.025l0.052,0.074l0.044,0.161l-0.044,0.099l0.01,0.189l0.071,0.068l0.136,0.022l0.077,0.08l0.062,0.148l0.025,0.106l0.099,0.055l0.25,0.053l0.14,-0.05l0.154,0.004l0.109,-0.056l0.185,-0.013l0.047,0.078l-0.007,0.142l0.099,0.195l0.146,0.037l0.077,0.065l0.022,0.155l0.315,0.324l0.093,0.044l0.139,0.232l0.009,0.096l0.093,0.151l0.173,0.115l0.121,0.003l0.043,0.031l0.22,-0.031l0.043,-0.059l0.084,-0.034l0.136,0.009l0.08,-0.04l0.106,-0.173l0.052,-0.031l0.065,0.006l0.037,-0.012l0.016,-0.05l0.077,-0.015l0.087,0.012l0.164,-0.031l0.198,0.053l0.049,0.052l0.05,-0.003l-0.016,-0.167l-0.037,-1.652l-0.031,-0.358l0.019,-0.136l-0.025,-0.093l-0.093,-0.105l-0.124,-0.322l-0.024,-0.223l0.055,-0.142l0.118,-0.081l0.167,-0.049l0.154,-0.186l0.161,-0.371l0.068,-0.365l-0.024,-0.359l-0.068,-0.105l-0.007,-0.08l0.062,-0.118l0.037,-0.297l0.143,-0.34l0.142,-0.148l0.186,-0.118l0.043,-0.087l-0.025,-0.049l-0.099,-0.006l-0.056,-0.074l-0.111,0.006l-0.087,0.117l-0.123,0.056l-0.112,0.142h-0.055l-0.161,-0.062h-0.081l-0.037,-0.062l0.093,-0.123l0.21,-0.112l0.266,-0.055l0.106,-0.062l0.031,-0.081l-0.081,-0.099l0.019,-0.08l0.105,-0.049l0.136,0.018l0.173,0.21l0.025,0.143l0.056,0.08l0.068,0.031l0.024,0.074l-0.024,0.118l0.024,0.08l0.087,0.068l0.043,0.068v0.093l0.161,0.149l0.285,0.037l0.111,-0.05l0.012,-0.111l0.137,-0.223h0.086l0.062,0.118l-0.006,0.204l-0.043,0.074l0.018,0.043l0.081,-0.043l0.061,-0.167l0.056,-0.569l0.05,-0.761l0.08,-0.186l0.186,-0.086l0.148,0.031l0.093,0.086l-0.037,0.081l0.043,0.105l0.643,0.247l0.044,-0.031l-0.18,-0.241l-0.074,-0.21v-0.105l0.074,-0.075l-0.031,-0.099l-0.365,-0.334l-0.303,-0.358l-0.086,-0.297l0.062,-0.303l0.228,-0.669l0.211,-0.29l0.253,-0.155l0.143,-0.031l0.018,-0.056l-0.167,-0.315l-0.043,-0.223l0.025,-0.204l0.136,-0.365l0.136,-0.087l0.025,-0.099l-0.149,-0.47l0.012,-0.142l0.056,-0.118l0.34,-0.204l0.007,-0.099l-0.211,-0.229l-0.136,-0.297l0.019,-0.173l0.179,-0.148l0.173,-0.031l0.031,-0.074l-0.068,-0.198l0.025,-0.223l0.272,-0.198l0.26,-0.062l0.105,-0.049l0.056,-0.087l0.117,-0.043l0.198,0.006l0.112,-0.05l0.185,-0.167l0.044,-0.105l0.136,-0.068l0.111,0.019l0.118,-0.044l0.092,-0.086l0.242,-0.074l0.154,0.012l0.143,-0.087l0.086,-0.204l-0.018,-0.117l0.062,-0.118l0.129,-0.049l0.205,0.012l0.228,0.099l0.138,0.184l0.06,0.037l0.246,0.005l0.172,-0.139l0.144,-0.019l0.107,0.042l0.083,-0.019l0.144,-0.102l0.274,0.014l0.273,0.079l0.367,0.074l0.483,0.2l0.194,0.185l0.056,0.228l0.06,0.232l0.075,0.078l0.023,-0.027l-0.056,-0.149l-0.037,-0.315l0.009,-0.297l-0.055,-0.372l-0.242,-0.324l-0.195,-0.084l-0.231,-0.223l-0.13,-0.269l-0.186,-0.111l-0.427,-0.111l-0.297,-0.214l-0.167,-0.213l-0.028,-0.102l-0.092,-0.047l-0.288,0.047l-0.325,-0.019l-0.482,0.167l-0.464,0.009l-0.158,-0.046l-0.344,-0.009l-0.25,-0.074l-0.093,-0.167l-0.148,-0.065l-0.269,-0.01l-0.325,-0.083l-0.204,-0.186l-0.167,-0.352l0.009,-0.39l0.083,-0.241l-0.046,-0.27l-0.158,-0.157l-0.464,-0.102l-0.204,-0.121l-0.083,-0.158l-0.158,-0.148l-0.204,-0.121l-0.464,-0.51l-0.307,-0.334l-0.232,-0.529l-0.204,-0.715l-0.055,-0.427l-0.093,-0.371l-0.241,-0.501l-0.567,-0.798l-0.566,-0.724l-0.807,-0.9l-0.278,-0.418l-0.279,-0.352l-0.417,-0.418l-0.409,-0.29l-0.049,0.117l0.019,0.111l-0.075,0.068h-0.068l-0.043,0.05l-0.019,0.192l-0.358,0.396l-0.106,0.167l-0.247,0.278l-0.124,0.217l-0.031,0.154l-0.241,0.26l-0.414,0.217l-0.174,0.006l-0.161,0.105l-0.123,0.198l-0.291,0.099l-0.241,-0.025l-0.161,0.025l-0.081,0.111l-0.136,0.013l-0.13,-0.031l-0.136,0.074l-0.055,0.13l0.037,0.105l-0.037,0.062l-0.149,0.111l-0.136,0.062l-0.049,0.223l0.018,0.204l-0.074,0.161l-0.068,0.031l-0.149,-0.068l-0.062,0.024l0.013,0.106l0.086,0.16l-0.037,0.075l-0.167,0.006l-0.117,0.087l-0.112,0.018l-0.037,0.099l0.081,0.093l-0.037,0.297l-0.124,0.148l-0.254,0.025l-0.105,-0.043l-0.099,0.018l-0.117,0.105l-0.099,0.13l-0.26,-0.006l-0.087,-0.056v-0.061l-0.062,-0.044l-0.068,0.019l-0.043,-0.037v-0.105l-0.087,-0.038l-0.062,0.038l-0.191,-0.013l-0.106,-0.049l-0.098,0.006l-0.099,0.105l-0.137,-0.012l-0.092,0.062l-0.037,0.086l-0.075,0.006l-0.266,-0.16l-0.055,-0.087l0.018,-0.08l-0.049,-0.137l-0.075,-0.043l-0.08,0.043l-0.08,-0.018l-0.05,-0.087l-0.093,-0.012l-0.049,0.056l-0.155,0.012l-0.241,-0.037l-0.297,-0.217l-0.149,-0.012l-0.074,-0.056l-0.012,-0.074l-0.062,-0.056l-0.124,-0.037l-0.031,-0.086l0.037,-0.081l-0.055,-0.284l-0.074,-0.075l-0.137,0.019l-0.049,-0.056l0.049,-0.068l-0.037,-0.099l0.143,-0.136l-0.019,-0.062l-0.21,-0.043l-0.087,-0.093l0.006,-0.105l-0.105,-0.105l-0.148,-0.062l-0.007,-0.087l0.075,-0.068l-0.019,-0.074l-0.142,-0.068l-0.211,-0.266l-0.03,-0.149l-0.075,-0.006l-0.185,0.149l0.012,0.093l-0.068,0.037l-0.173,-0.037l-0.087,0.03l-0.062,-0.043l0.007,-0.111l-0.143,-0.081v-0.111l0.093,-0.173l-0.099,-0.167l-0.117,-0.019l-0.161,-0.099l-0.037,-0.099l-0.075,-0.049h-0.049l-0.037,-0.05l0.055,-0.123v-0.124l-0.204,-0.118l-0.117,0.019l-0.044,0.062h-0.08l-0.167,-0.186l-0.006,-0.086l-0.112,-0.075l-0.154,-0.043l-0.192,-0.217l0.025,-0.074l0.062,-0.018l0.012,-0.075l-0.124,-0.266l-0.093,-0.031l-0.191,0.087l-0.007,0.13l-0.092,0.012l-0.112,-0.049l-0.21,0.043l-0.186,-0.055l-0.068,0.043l0.013,0.086l-0.198,0.112l-0.118,-0.019l-0.13,-0.136l0.019,-0.26l-0.124,-0.179l-0.173,-0.068l-0.21,0.068l-0.056,0.117l-0.118,0.044l-0.08,-0.037l0.012,-0.087l-0.055,-0.13l-0.106,-0.059l-0.064,0.093l0.018,0.158l-0.102,0.232l-0.297,0.176l-0.325,0.306l-0.287,0.065l-0.093,0.084h-0.084l-0.157,-0.056l-0.084,0.028l-0.074,0.241l0.018,0.344l0.13,0.176v0.148l-0.065,0.093l0.093,0.186l0.195,0.13l0.074,-0.037l-0.037,-0.102l0.102,-0.084l0.093,0.019l0.018,0.139l0.121,0.028l0.139,-0.065l0.177,0.139l0.018,0.148l-0.074,0.019l-0.102,-0.074l-0.102,0.083l-0.009,0.177l0.102,0.055l0.065,0.112l0.009,0.12l0.148,0.102l0.214,0.019l0.297,0.167l0.13,0.185l0.454,0.279l0.594,0.148l0.158,0.13l-0.009,0.102l0.074,0.047h0.102l0.26,0.222v0.112l0.102,0.111l0.176,0.093l-0.046,0.074l-0.074,0.009l-0.093,0.093l0.018,0.121l-0.083,0.139l-0.158,0.037l-0.093,0.186l0.056,0.12v0.14l-0.065,0.065v0.297l-0.148,0.204l-0.186,-0.01l-0.167,-0.102l-0.232,0.019l-0.288,0.39l-0.12,0.009l-0.102,-0.093l-0.075,-0.204l-0.167,-0.065l-0.315,0.019l-0.13,-0.075l-0.037,-0.12l-0.464,-0.372l-0.028,-0.111l-0.102,-0.028l-0.13,0.075l-0.102,-0.01l-0.139,-0.093l-0.39,-0.074l-0.204,0.056l-0.13,0.204l-0.121,-0.009l-0.074,-0.084l-0.195,-0.009l-0.501,0.065l-0.288,-0.084l-0.167,-0.13l-0.25,-0.074l-0.362,-0.083l-0.344,-0.204l-0.306,-0.316v-0.121l0.195,-0.232l0.111,-0.046l0.01,-0.083l-0.223,-0.075l-0.195,0.056l-0.148,-0.028l-0.112,-0.13l-0.185,-0.028l-0.195,0.065l-0.102,-0.037v-0.102l-0.065,-0.111l-0.325,-0.139l-0.334,-0.205l-0.186,-0.009l-0.195,0.167l-0.204,-0.009l-0.157,-0.213l-0.409,-0.13l-0.278,0.055l-0.111,0.167l-0.251,0.149l-0.13,-0.019l-0.065,0.047l-0.056,0.13l-0.417,0.454l-0.186,0.019l-0.12,0.13l-0.084,0.13l-0.109,0.034l-0.067,0.068l0.093,0.216l0.148,0.105l0.037,0.081l-0.093,0.173l-0.117,0.025l-0.037,0.093l0.062,0.037l0.099,-0.007l0.179,0.143h0.124l0.161,-0.167l0.148,0.031l0.161,0.241l0.093,0.043l0.117,-0.031l0.081,0.081l-0.062,0.154l-0.149,0.13l-0.099,-0.031l-0.062,0.019l-0.037,0.068h-0.167l-0.142,-0.037l-0.142,0.105l-0.006,0.204l-0.093,0.161l0.043,0.056l0.099,-0.013l0.08,-0.092l0.087,0.012l-0.018,0.124h0.055l0.099,-0.124l0.013,-0.21l0.092,-0.007l0.112,0.099l-0.006,0.155l0.08,0.062l0.124,0.006l0.142,0.074l0.025,0.112l0.241,0.148l0.049,-0.031v-0.099l0.099,-0.105l0.106,0.012l0.061,0.186l0.124,0.08l0.272,0.007l0.236,-0.161l0.197,0.006l0.056,0.074l-0.179,0.167l0.049,0.161l0.081,0.043l0.191,-0.018l0.137,0.216l-0.007,0.087l0.05,0.043l0.13,-0.024l0.074,0.024l-0.025,0.071l0.121,0.102h0.121l0.064,0.047v0.065l0.075,0.028l0.102,-0.028l0.111,0.037l-0.009,0.223l-0.084,0.324l-0.25,0.279l-0.279,0.065l-0.204,0.139l-0.278,0.009l-0.223,0.195l0.037,0.139l-0.074,0.047h-0.102l-0.093,0.278v0.13l0.167,0.102l0.009,0.102l-0.009,0.093l0.093,0.065l0.102,-0.009l0.223,0.148l0.018,0.084l-0.055,0.074v0.111l-0.102,0.102l0.018,0.204l0.149,0.158l0.148,0.028l0.167,0.13l0.019,0.13l0.334,0.213l0.222,0.028l0.26,0.232l0.047,0.139l0.12,0.084h0.223l0.291,0.105l0.266,0.161l0.223,0.074l0.433,0.13l0.074,0.074l0.161,0.031l0.068,-0.043l0.08,0.025l0.031,0.074l0.136,0.08l0.031,0.093l-0.056,0.062h-0.086l-0.031,0.049l0.254,0.186v0.291l-0.112,0.284l0.025,0.136l-0.05,0.056l-0.198,0.037l-0.117,0.167l0.043,0.143l-0.185,0.377l-0.211,0.111l-0.068,0.143h-0.086l-0.174,-0.205l-0.179,-0.018l-0.13,-0.062h-0.105l-0.099,0.037l-0.161,-0.006l-0.074,-0.043h-0.087l-0.074,0.068l-0.334,0.031l-0.093,0.136l0.105,0.198l0.099,0.049l0.174,-0.043l0.334,0.074l0.08,0.111l0.136,0.038l0.229,-0.007l0.186,0.112l0.006,0.111l-0.093,0.099l-0.006,0.087l0.105,0.024l0.142,0.483l0.081,0.074l0.142,0.006l0.464,0.248l0.285,0.018l0.321,0.31l0.087,0.154l0.198,0.18l0.012,0.13l0.056,0.049l0.161,-0.012l0.179,0.204l0.155,0.043l0.111,0.136v0.124l0.062,0.248l0.056,0.024l0.13,-0.142l0.216,0.019l0.229,-0.056l0.13,-0.118l0.414,-0.117l0.106,0.025l0.03,0.099l0.081,0.037l0.105,-0.068l0.08,0.049l0.038,0.334l0.099,0.025l0.247,-0.093l0.241,-0.006l0.39,0.148l0.105,0.167l-0.074,0.081l-0.192,-0.074l-0.253,0.185l-0.013,0.093l0.217,0.247l-0.05,0.038l-0.272,-0.106l-0.068,0.031l0.006,0.081l-0.148,0.154l-0.099,0.019l-0.136,-0.068l-0.186,0.037l-0.068,0.111l0.031,0.31l0.117,0.241l0.372,0.247l0.13,0.007l0.08,-0.062l0.087,0.006l0.185,0.266l-0.031,0.062l-0.068,0.012l-0.018,0.056l0.198,0.26l0.074,0.037l0.056,-0.012l0.08,0.024l0.037,0.093l0.087,0.031l0.191,0.025l0.013,0.055l-0.353,0.038l-0.025,0.061l0.044,0.037l-0.006,0.056l-0.075,0.081l-0.117,0.086l-0.031,0.142l-0.056,-0.006l-0.031,-0.198l-0.049,-0.13l-0.081,-0.037l-0.049,0.068l0.025,0.112l-0.056,0.031l-0.278,-0.174l-0.143,0.044l-0.037,0.086l0.093,0.229l0.148,0.068l0.149,-0.037l0.08,0.062l-0.068,0.05l-0.006,0.061l0.068,0.056l-0.006,0.124l0.056,0.062l0.154,0.068l0.019,0.105l-0.105,0.056l0.006,0.068h0.192l0.018,0.08l-0.093,0.08v0.137l0.044,0.123l-0.007,0.075l-0.16,0.03l-0.031,0.062l0.049,0.075l-0.018,0.092l-0.075,0.062l0.013,0.149l0.167,0.13l0.031,0.148l-0.037,0.093l0.006,0.161z"/>
</svg>
