<svg xmlns="http://www.w3.org/2000/svg" viewBox="1221.049 430.418 24.378 21.155">
  <path d="M1245.212556,444.025056l-0.003,0.022l0.089,0.038l0.037,0.052h0.042l0.049,-0.09l-0.025,-0.106l-0.054,-0.008l-0.047,0.037l-0.027,0.053l-0.061,0.002z M1224.764021,432.31671l-0.097,-0.066l-0.042,-0.075l-0.051,-0.014l-0.065,0.028l-0.107,0.005l-0.056,-0.033l-0.009,-0.056l-0.121,-0.061l-0.079,0.005l-0.069,-0.037l-0.112,-0.206v-0.079l-0.209,-0.15l-0.176,-0.033l-0.149,-0.089l-0.032,-0.06l-0.01,-0.183l-0.185,-0.243l-0.014,-0.08l-0.061,-0.06l-0.171,-0.01l-0.01,-0.051l0.061,-0.084l-0.061,-0.15l-0.204,-0.107h-0.079l-0.186,0.121l-0.097,0.014l-0.051,-0.023l0.023,-0.094l-0.065,-0.028l-0.153,0.014l-0.033,0.07l-0.186,0.01l-0.092,-0.042l-0.075,0.014l-0.028,0.103l-0.055,0.009l-0.047,-0.019l-0.079,0.019l-0.018,0.061l-0.144,0.121l-0.019,0.084l-0.042,0.043l-0.013,0.079l0.088,0.262l0.051,0.065v0.061l-0.056,0.07l-0.051,0.136l-0.009,0.093l-0.172,0.108v0.051l0.051,0.052l0.107,0.341l0.069,0.028l0.033,0.098l-0.033,0.075l0.028,0.089l-0.041,0.028h-0.075l-0.097,0.042l-0.079,0.225l0.134,0.411v0.14l0.223,0.206l-0.218,0.145l-0.2,0.024l0.089,0.135l-0.014,0.08l0.19,0.224l0.098,0.183l0.134,0.065l0.047,0.051l0.023,0.071l0.097,0.084l0.056,-0.014l0.06,-0.122l0.065,-0.019l0.089,0.047l0.074,-0.019l0.014,-0.098l0.046,-0.037l0.089,0.005l0.023,0.098l0.153,0.191l0.135,0.014l0.041,0.043l-0.004,0.074l0.102,0.192l0.255,0.14l0.075,0.005l0.074,0.042l0.065,0.164l0.065,0.056l0.009,0.112l-0.055,0.033l-0.019,0.061l0.014,0.042l-0.051,0.033l-0.088,-0.01l-0.051,0.047l0.009,0.178l0.232,0.201l0.32,0.07l0.116,0.103l0.01,0.103l0.083,0.116l0.019,0.178l-0.028,0.052l0.005,0.051l0.037,0.023l0.014,0.052l-0.028,0.056l0.028,0.131l0.097,0.033l0.088,0.079l-0.009,0.07l-0.097,0.038l-0.149,0.004l-0.018,0.061l0.041,0.084l0.075,0.014l0.055,-0.032l0.107,0.037l0.023,0.056l0.2,0.07l0.088,0.075l-0.004,0.056l-0.098,0.066l-0.079,0.196l-0.005,0.15l0.038,0.243l0.092,0.098l0.065,0.131l-0.009,0.08l-0.046,0.064l-0.175,0.017l-0.074,0.043l0.017,0.017l0.076,-0.032l0.163,-0.013l0.148,0.085l0.178,0.216l0.195,0.127l0.113,0.139l0.005,0.149l0.077,0.097l0.091,0.005l0.168,0.091l0.029,0.11l0.064,0.059l0.136,0.013l0.217,-0.018l0.089,0.077l0.002,0.053l-0.037,0.072l0.005,0.191l0.079,0.042l0.222,-0.01l0.138,0.042l0.096,0.174l0.139,0.164l0.049,0.174l0.059,0.057l0.21,0.075l0.084,0.082l0.024,0.074l0.143,0.182l0.141,0.116l0.419,0.261l0.067,0.174l-0.007,0.206l0.049,0.058l-0.003,0.054l0.146,0.164l0.086,0.04l0.217,0.022l0.111,0.062l0.094,0.197l0.262,0.161l0.059,0.07l0.049,0.121l0.062,0.058l0.118,0.064l0.126,0.152l0.03,0.092l0.251,0.213l0.154,0.243l0.18,0.162l0.371,0.175l0.081,0.087l0.223,0.131l0.161,0.156l0.179,0.025l0.106,-0.031l0.222,0.006l0.298,0.15l0.105,0.143l-0.006,0.187l-0.087,0.162l-0.142,0.106l0.012,0.05l0.062,0.056l0.037,0.156l0.297,0.611l0.099,0.069l0.025,0.137l0.068,0.112l0.396,0.081l0.161,0.15l0.037,0.168l-0.03,0.119l0.012,0.062l0.074,0.013l0.105,0.031l0.18,0.137l0.477,0.224l0.124,0.088l0.439,0.249l0.396,0.786l0.075,0.112l-0.155,0.081l-0.167,0.012l-0.124,0.044l-0.087,0.075l-0.142,0.05l-0.206,0.018l0.09,0.067l0.106,0.033l0.081,0.054l-0.01,0.038l-0.086,-0.013l-0.187,-0.094l-0.089,-0.02l-0.01,0.025l0.15,0.092l0.287,0.114l0.059,0.04l0.054,0.062l0.191,-0.236l0.105,-0.056l0.276,0.066l0.179,0.068l0.155,0.128l0.05,0.003l0.108,-0.193l0.22,0.103l0.102,0.112l0.003,0.056l-0.025,0.047v0.072l0.065,0.128l0.087,0.102l0.136,0.047v0.025l-0.056,0.059l-0.009,0.063l0.04,0.031l0.13,0.003l0.248,0.084l0.155,0.147l0.102,0.018l0.046,0.032l0.003,0.062l0.103,0.112l0.198,0.034l0.22,0.184l0.145,0.066l0.056,0.09l-0.022,0.109l0.05,0.041l0.182,0.031l0.056,0.05l0.043,0.122l0.047,0.024l0.102,-0.031l0.099,0.05l0.179,0.222l0.09,0.077l0.056,0.016l0.025,0.062l0.043,0.019l0.146,-0.044l0.027,-0.037l0.041,-0.006l0.213,0.006l0.121,-0.037l-0.17,-0.05l-0.144,-0.056l-0.093,-0.103l-0.223,-0.131l-0.385,-0.486l-0.437,-0.328l-0.306,-0.149l-0.483,-0.599l-0.023,-0.351l-0.093,-0.126l-0.07,-0.318l-0.088,-0.112l0.107,-0.243l-0.042,-0.136l0.051,-0.112l0.362,-0.337l0.005,-0.084l-0.126,-0.136l-0.353,-0.103l-0.167,-0.271l0.037,-0.243l0.121,-0.206l0.279,-0.084l0.176,-0.243l-0.088,-0.772l-0.046,-0.093l-0.172,-0.094l-0.084,-0.098v-0.206l0.042,-0.102l0.07,-0.057l0.093,-0.187l0.408,-0.191l0.455,0.017l0.139,0.081l0.186,0.009l0.316,-0.065l0.678,0.009l0.121,-0.037l-0.075,-0.711l0.075,-0.14l0.139,-0.145l0.125,-0.136l0.084,-0.271l0.139,-0.136l0.121,-0.051l0.181,0.005l0.111,0.051l0.056,0.22l0.107,0.089l0.302,0.098l0.339,0.028l0.218,0.051l0.302,0.145l0.65,0.098l0.12,-0.028l0.692,-0.074l0.372,-0.164l0.223,-0.271l0.027,-0.22l-0.041,-0.145l-0.191,-0.192l-0.162,-0.051l-0.121,-0.084l-0.06,-0.192l-0.112,-0.103l-0.218,-0.042l-0.158,0.023h-0.204l-0.204,-0.028l-0.135,0.061l-0.283,0.365l-0.065,0.187l-0.098,0.098l-0.148,0.014l-0.567,-0.14l-0.195,-0.122l-0.195,-0.037l-0.743,-0.038l-0.088,-0.084v-0.182l-0.06,-0.07l-0.182,-0.042l-0.125,-0.099l-0.018,-0.135l0.027,-0.117l0.158,-0.154l0.302,-0.075l0.125,0.014l0.084,0.075l0.098,0.042l0.046,-0.028l0.046,-0.3l0.005,-0.177l0.033,-0.131l0.246,-0.384l0.009,-0.121l0.696,-0.688l0.214,-0.332l0.074,-0.06l0.604,-0.178l0.32,-0.173l0.167,-0.15l0.014,-0.079l-0.139,-0.267l0.019,-0.084l-0.028,-0.051l-0.139,-0.019l-0.154,-0.136l-0.162,-0.687l0.023,-0.066l0.404,-0.145l0.149,-0.102l0.19,-0.262l0.125,-0.052l0.135,0.005l0.149,-0.042l0.208,-0.126l0.052,-0.075v-0.098l0.032,-0.127l0.135,-0.234l0.199,-0.116l0.075,-0.094l0.079,-0.374l0.014,-0.323l-0.056,-0.084l-0.153,-0.028l-0.242,0.07l-0.144,0.155l-0.13,0.285l-0.102,0.135l-0.102,0.033l-0.126,-0.037l-0.928,-0.641l-0.065,-0.089v-0.131l0.186,-0.355l0.153,-0.131l0.237,-0.07l0.079,-0.07l0.037,-0.197l-0.051,-0.159l0.027,-0.107l0.089,-0.033l0.19,0.051l0.297,0.029l0.084,-0.029l0.139,-0.144l0.005,-0.117l0.134,-0.164l0.098,-0.005l0.097,0.042h0.107l0.005,-0.06l-0.102,-0.061v-0.042l0.017,-0.109l-0.175,0.039l-0.751,-0.033l-0.136,-0.05l-0.26,-0.2l-0.241,-0.149l-0.013,-0.075l0.037,-0.044l-0.018,-0.062l-0.075,-0.044l-0.049,-0.093l0.043,-0.044l0.167,0.075h0.124l0.025,-0.056l-0.093,-0.106l-0.025,-0.112l0.056,-0.144l-0.031,-0.062l-0.136,-0.044h-0.105l-0.056,0.05l-0.062,-0.006l-0.037,-0.062l0.056,-0.082l-0.025,-0.068l-0.13,-0.131l-0.161,-0.044l-0.13,-0.149l0.018,-0.081l0.075,-0.05l-0.006,-0.081l-0.056,-0.063l-0.068,0.007l-0.062,0.081l-0.006,0.087l0.043,0.075l-0.037,0.056l-0.285,-0.05l0.006,-0.062l0.143,-0.1l0.006,-0.1l-0.062,-0.006l-0.081,0.106l-0.105,-0.013l-0.111,-0.093l-0.05,0.019l0.006,0.062l0.068,0.062l-0.024,0.081l-0.068,-0.025l-0.038,-0.106l-0.167,-0.081l-0.062,0.032l0.007,0.056l0.117,0.05v0.049l-0.077,0.078l-0.014,0.131l-0.042,0.005l0.056,0.093l0.394,0.234l0.697,0.318l0.149,0.122l-0.028,0.033l-0.084,-0.005l-0.046,0.028l-0.024,0.103l-0.069,0.061l-0.13,0.046l-0.126,0.108l-0.283,0.444l-0.13,0.08l-0.204,0.018l-0.107,-0.079l-0.144,-0.304l-0.125,-0.084l-0.474,-0.122l-0.125,-0.005l-0.107,0.061l-0.302,0.286l-0.06,0.121l0.014,0.346l-0.051,0.075l-0.274,0.056l-0.437,0.042l-0.543,0.211l-0.116,0.154l-0.005,0.15l0.093,0.074l0.288,0.038l0.153,0.107l0.158,0.052l0.256,0.042l0.352,0.154l0.168,0.192l0.459,0.337v0.074l-0.093,0.099l-0.339,0.112l-0.385,0.009l-0.306,-0.093l-0.325,-0.005l-0.182,0.065l-0.301,0.057l-0.065,-0.029l-0.033,-0.229l0.023,-0.074v-0.113l-0.097,-0.294l-0.307,-0.318l-0.45,-0.159l-0.19,0.037l-0.4,0.271l-0.088,0.122l0.047,0.29l0.292,0.337l0.111,0.093l-0.013,0.056l0.029,0.038l0.068,0.006l0.05,0.056l-0.05,0.424l-0.062,0.249l-0.117,0.113l-0.366,0.049l-0.21,0.088l-0.91,0.542l-0.638,0.237h-0.142l-0.099,-0.062l-0.229,-0.044h-0.217l-0.118,-0.087l-0.093,-0.2l-0.123,-0.106l-0.137,-0.05l-0.136,-0.093l-0.099,-0.1l-0.192,-0.1l-0.229,-0.037l-0.068,0.031l0.006,0.081l-0.068,0.056l-0.13,0.007l-0.241,-0.1l-0.168,-0.013l-0.148,0.05l-0.062,0.112l0.049,0.823l0.087,0.106l0.136,0.518l0.093,0.162l0.192,0.193l0.099,0.318l-0.043,0.268l-0.099,0.106l-0.093,0.187l-0.037,0.231l-0.068,0.056l-0.527,-0.012l-0.204,-0.056l-0.644,-0.418l-0.489,-0.231l-0.396,-0.361l-0.093,-0.281l-0.161,-0.106l-0.217,-0.075l-0.965,-0.573l-0.378,-0.275l-0.532,-0.511l-0.093,-0.193l-0.149,-0.113l-0.334,-0.143l-0.062,-0.106l0.031,-0.087l0.217,-0.112l0.526,-0.113l0.724,0.013l0.285,0.056l0.371,0.012l0.632,-0.068l0.13,-0.106l0.043,-0.106l-0.031,-0.387l-0.13,-0.274l-0.13,-0.106l-0.111,-0.125l-0.037,-0.143l-0.13,-0.137l-0.198,-0.113l-0.056,-0.137l-0.006,-0.218l-0.068,-0.224l-0.192,-0.269l-0.242,-0.087h-0.161l-0.167,-0.05l-0.291,-0.143l-0.223,-0.044l-0.879,-0.087l-0.316,0.05l-0.105,0.093l-0.062,0.187l-0.068,0.013l-0.142,-0.069l-0.31,-0.424l-0.359,-0.218l-0.254,-0.33l0.031,-0.225l0.081,-0.062l0.328,-0.013l0.235,-0.124z"/>
</svg>
