<svg xmlns="http://www.w3.org/2000/svg" viewBox="1224.089 430.058 22.610 21.894">
  <path d="M1224.764021,432.31671l0.144,-0.01l0.218,-0.023l0.056,-0.07l-0.005,-0.159l0.07,-0.131l0.065,-0.033l0.046,-0.079l0.014,-0.131l0.075,-0.173l-0.019,-0.056l0.005,-0.066l0.111,-0.079l0.158,-0.047l0.167,-0.103l0.098,-0.168l0.018,-0.066l-0.037,-0.07l0.014,-0.065l0.056,-0.052l0.055,-0.173l0.172,-0.117h0.116l0.102,0.033l0.182,-0.009l0.083,-0.047l0.074,-0.005l0.116,0.056l0.312,0.192l0.209,0.019l0.102,-0.066h0.158l0.39,0.145l0.209,-0.004l0.078,-0.103l-0.046,-0.122l0.042,-0.028l0.102,0.037l0.102,-0.037l0.051,-0.079l0.005,-0.117l0.06,-0.071l0.093,-0.004l0.07,-0.052l0.051,-0.126h0.097l0.084,0.108l0.005,0.07l-0.079,0.047l-0.014,0.088l0.069,0.057l0.154,0.009l0.023,-0.056l-0.065,-0.094l0.037,-0.032l0.074,0.028l0.023,0.14l0.051,0.061l0.075,-0.005l0.004,-0.089l0.033,-0.047l0.065,0.019l0.014,0.056l-0.065,0.056l-0.005,0.061l0.079,0.005l0.065,-0.061h0.051l0.023,0.104l0.161,0.15l0.626,0.312l0.167,0.05l0.328,0.012l0.118,-0.05l0.037,-0.205l0.049,-0.075h0.056l0.074,0.068l0.143,0.025l0.111,0.094l0.043,0.118l0.118,0.075l0.359,0.044l0.124,-0.044l0.118,-0.162l0.068,0.006l-0.006,0.187l0.03,0.069h0.112l0.062,-0.075l0.062,0.006l0.006,0.087l-0.081,0.075l0.007,0.05l0.148,-0.012l0.155,0.025l0.062,-0.044v-0.087l0.049,-0.038l0.062,0.038l0.013,0.112l0.062,0.012l0.049,-0.031h0.068l0.062,0.05h0.093l0.118,-0.068l0.086,-0.106l0.137,-0.038l0.117,0.019l0.105,0.1l0.137,0.043l0.278,0.212l0.18,0.05l0.136,0.144l0.285,0.137l0.117,0.012l0.205,-0.1l0.068,-0.087l0.155,-0.081l0.037,-0.075l-0.025,-0.118l0.037,-0.063l0.167,-0.037l0.087,-0.062l0.043,-0.169l0.087,-0.081l0.08,-0.012l0.081,0.05l0.074,0.162h0.062l0.019,-0.081l0.08,-0.044l0.099,0.019l0.081,0.131v0.081l-0.062,0.037v0.056l0.148,0.056l0.112,0.119l0.074,0.006l0.062,-0.031l0.111,0.012l0.106,0.044l0.142,-0.006l0.18,-0.075l0.031,-0.1l-0.056,-0.037l-0.025,-0.081l0.031,-0.1l0.173,-0.075l0.149,-0.019l0.111,0.057l0.007,0.106l0.043,0.037l0.074,-0.012l0.093,0.037l0.05,0.069l0.13,0.012l0.315,-0.069h0.223l0.105,0.075l0.062,0.162l0.26,0.162l0.236,0.032l0.046,0.101l0.056,0.093l0.394,0.234l0.697,0.318l0.149,0.122l-0.028,0.033l-0.084,-0.005l-0.046,0.028l-0.024,0.103l-0.069,0.061l-0.13,0.046l-0.126,0.108l-0.283,0.444l-0.13,0.08l-0.204,0.018l-0.107,-0.079l-0.144,-0.304l-0.125,-0.084l-0.474,-0.122l-0.125,-0.005l-0.107,0.061l-0.302,0.286l-0.06,0.121l0.014,0.346l-0.051,0.075l-0.274,0.056l-0.437,0.042l-0.543,0.211l-0.116,0.154l-0.005,0.15l0.093,0.074l0.288,0.038l0.153,0.107l0.158,0.052l0.256,0.042l0.352,0.154l0.168,0.192l0.459,0.337v0.074l-0.093,0.099l-0.339,0.112l-0.385,0.009l-0.306,-0.093l-0.325,-0.005l-0.182,0.065l-0.301,0.057l-0.065,-0.029l-0.033,-0.229l0.023,-0.074v-0.113l-0.097,-0.294l-0.307,-0.318l-0.45,-0.159l-0.19,0.037l-0.4,0.271l-0.088,0.122l0.047,0.29l0.292,0.337l0.111,0.093l-0.013,0.056l0.029,0.038l0.068,0.006l0.05,0.056l-0.05,0.424l-0.062,0.249l-0.117,0.113l-0.366,0.049l-0.21,0.088l-0.91,0.542l-0.638,0.237h-0.142l-0.099,-0.062l-0.229,-0.044h-0.217l-0.118,-0.087l-0.093,-0.2l-0.123,-0.106l-0.137,-0.05l-0.136,-0.093l-0.099,-0.1l-0.192,-0.1l-0.229,-0.037l-0.068,0.031l0.006,0.081l-0.068,0.056l-0.13,0.007l-0.241,-0.1l-0.168,-0.013l-0.148,0.05l-0.062,0.112l0.049,0.823l0.087,0.106l0.136,0.518l0.093,0.162l0.192,0.193l0.099,0.318l-0.043,0.268l-0.099,0.106l-0.093,0.187l-0.037,0.231l-0.068,0.056l-0.527,-0.012l-0.204,-0.056l-0.644,-0.418l-0.489,-0.231l-0.396,-0.361l-0.093,-0.281l-0.161,-0.106l-0.217,-0.075l-0.965,-0.573l-0.378,-0.275l-0.532,-0.511l-0.093,-0.193l-0.149,-0.113l-0.334,-0.143l-0.062,-0.106l0.031,-0.087l0.217,-0.112l0.526,-0.113l0.724,0.013l0.285,0.056l0.371,0.012l0.632,-0.068l0.13,-0.106l0.043,-0.106l-0.031,-0.387l-0.13,-0.274l-0.13,-0.106l-0.111,-0.125l-0.037,-0.143l-0.13,-0.137l-0.198,-0.113l-0.056,-0.137l-0.006,-0.218l-0.068,-0.224l-0.192,-0.269l-0.242,-0.087h-0.161l-0.167,-0.05l-0.291,-0.143l-0.223,-0.044l-0.879,-0.087l-0.316,0.05l-0.105,0.093l-0.062,0.187l-0.068,0.013l-0.142,-0.069l-0.31,-0.424l-0.359,-0.218l-0.254,-0.33l0.031,-0.225l0.081,-0.062l0.328,-0.013l0.235,-0.124z M1238.213937,451.454629h0.111l0.096,0.021l0.109,0.163l0.089,0.077l0.27,0.178l0.004,0.058l0.037,-0.002l0.024,-0.053l0.092,-0.019l0.071,0.017l0.02,-0.015l-0.005,-0.035l0.017,-0.027l0.101,-0.05l0.04,-0.067l0.049,-0.005l0.106,0.02l0.062,0.027l0.032,0.055l0.052,0.008l0.069,-0.048v-0.054l-0.037,-0.055l-0.057,-0.035l-0.037,-0.034l-0.015,-0.058l-0.066,-0.059l0.037,-0.1l0.074,-0.069l0.155,-0.035l0.082,0.005l-0.077,-0.156l-0.069,-0.045l-0.022,-0.04l0.01,-0.06l-0.035,-0.062l0.015,-0.02l0.027,-0.002l0.057,-0.077l0.01,-0.062l0.052,-0.077l-0.089,-0.025l-0.131,-0.002l-0.089,-0.035l-0.061,-0.065l-0.074,-0.005l-0.03,-0.02l0.005,-0.034l-0.045,-0.04l-0.103,-0.042l-0.04,-0.058l-0.007,-0.139l-0.049,-0.042l-0.008,-0.042l0.013,-0.023v-0.037l-0.04,-0.035v-0.032l0.015,-0.025l-0.01,-0.032l-0.054,-0.03l0.172,-0.104l-0.061,-0.08l0.012,-0.104l0.037,-0.062l0.042,-0.012l0.049,0.017l0.042,-0.022l0.008,-0.068l-0.035,-0.064l0.131,-0.07l-0.091,-0.206l-0.079,-0.117l0.017,-0.265l0.079,-0.261l0.079,-0.055l0.054,-0.134l0.128,-0.107l0.373,-0.007l0.136,0.029h0.098l0.148,-0.059l0.059,-0.008l-0.076,-0.869l0.106,-0.417l0.116,-0.085l0.03,-0.087l0.19,-0.084l-0.065,-0.023l-0.118,-0.156l0.294,-0.206l0.362,-0.179l0.119,-0.03l0.059,-0.047l0.049,-0.013l0.049,0.005l0.028,-0.015l0.019,-0.034l0.089,-0.028l0.017,-0.032l-0.017,-0.065l-0.071,-0.074v-0.027l0.066,-0.005l0.153,-0.06l0.072,-0.005l0.044,0.017h0.064l0.037,-0.032h0.069l0.188,0.211l0.088,0.03l0.008,0.097l-0.057,0.072l0.012,0.119l0.042,0.042l0.074,0.015l0.092,0.072l0.022,0.107l0.108,0.085l0.055,0.002l0.054,-0.067l0.089,-0.226l0.034,-0.017l0.045,0.005l0.195,-0.062l0.024,-0.033l-0.007,-0.042l0.029,-0.067l-0.012,-0.05l-0.034,-0.022l-0.015,-0.037v-0.053l-0.082,-0.114l-0.123,-0.112l-0.017,-0.064l-0.032,-0.03l0.002,-0.022l0.035,-0.02l0.007,-0.119l-0.052,-0.013l-0.081,-0.074l-0.007,-0.127l-0.023,-0.087l-0.061,-0.062l-0.077,-0.023l-0.118,-0.072l-0.104,0.025l-0.022,-0.027l0.017,-0.104l-0.034,-0.174l-0.064,-0.102l-0.055,0.005l-0.022,0.059l-0.064,0.018l-0.052,-0.023l-0.012,-0.062l0.057,-0.087l0.088,-0.014l0.21,-0.095l0.076,-0.057l0.033,-0.144l0.044,-0.04l0.096,0.013l0.027,0.072l0.097,0.052l0.096,0.129l0.01,0.127l0.037,0.037l0.091,-0.013l0.049,-0.044l0.178,-0.042l0.044,-0.035l0.057,-0.01l0.064,0.01l0.064,-0.013l0.124,-0.104l0.051,-0.002l0.077,0.014l0.057,-0.01l0.239,0.019l0.062,0.034l0.148,-0.009l0.04,-0.041l-0.04,-0.112l0.04,-0.225l-0.024,-0.087l0.024,-0.031l0.069,0.009l0.046,-0.021v-0.038l-0.059,-0.012l-0.009,-0.032l0.049,-0.012l0.081,0.056l0.071,0.003l0.136,0.063l0.186,-0.019l0.139,-0.128l0.099,0.013l0.171,0.149l-0.019,0.069l0.043,0.04h0.081l0.056,-0.046l0.185,-0.004l0.167,0.047h0.062l0.093,-0.059l0.019,-0.059l-0.044,-0.063l0.004,-0.134l-0.038,-0.053l-0.006,-0.099l0.034,-0.032l0.062,0.047l0.04,-0.009l0.019,-0.091l0.077,-0.074l0.028,-0.135l-0.099,-0.165l-0.003,-0.096l0.022,-0.038l0.003,-0.068l-0.248,-0.153l-0.021,-0.081l-0.087,-0.091l-0.003,-0.062l-0.109,-0.087l-0.068,-0.01l-0.049,-0.04l-0.034,-0.097l-0.044,-0.028l-0.068,0.016l-0.108,-0.056l-0.019,-0.075l-0.105,-0.119l0.006,-0.056l-0.021,-0.034l-0.062,-0.016l-0.075,-0.078l-0.074,-0.168l-0.077,-0.084l-0.087,-0.059l-0.114,-0.178l-0.022,-0.097l-0.161,-0.187l-0.096,-0.056l-0.012,-0.04l0.012,-0.038l-0.006,-0.046l-0.109,-0.156l-0.015,-0.181l0.028,-0.044h0.052l0.121,0.097l0.062,0.025l0.136,-0.003l0.096,0.028l0.152,0.087l0.102,0.012l0.056,0.029l0.037,0.062l0.145,0.084h0.053l0.043,-0.034l0.072,-0.003l0.145,0.059l0.167,-0.003l0.415,0.025l0.062,-0.031l0.022,-0.063l0.052,-0.059l0.149,-0.069l0.028,-0.037l-0.025,-0.056l0.022,-0.047l0.142,-0.019l0.05,-0.053l0.16,-0.056l0.007,-0.053l-0.044,-0.068l-0.003,-0.06l0.047,-0.093l-0.034,-0.019l-0.038,0.025l-0.043,-0.012l-0.028,-0.147l-0.062,-0.019l-0.049,0.041l-0.019,0.143l-0.046,0.013l-0.099,-0.165l-0.056,-0.041l-0.201,-0.047l-0.071,-0.04l-0.09,-0.14l-0.006,-0.088l-0.031,-0.031l-0.071,0.009l-0.044,-0.043l0.01,-0.081l0.052,-0.053l0.006,-0.063l-0.037,-0.028l-0.09,0.013l-0.068,0.112h-0.074l-0.155,-0.106l-0.055,-0.162l-0.1,-0.075l-0.207,-0.075l-0.043,-0.096l0.018,-0.066l-0.015,-0.053l-0.065,-0.047l-0.019,-0.059l0.003,-0.078l-0.13,-0.283l-0.074,-0.038l-0.068,0.019l-0.074,-0.013l-0.042,-0.037l-0.084,-0.005l-0.162,0.103l-0.098,0.005l-0.088,-0.061l-0.056,-0.154l-0.093,-0.014l-0.116,0.079l-0.097,-0.018l-0.232,-0.309l0.014,-0.117l-0.024,-0.051l-0.102,-0.019l-0.028,-0.108l0.033,-0.051l-0.009,-0.038l-0.056,-0.009l-0.014,-0.075l0.051,-0.159l0.2,-0.107l0.037,-0.061l0.014,-0.29l-0.144,-0.276l-0.037,-0.149l0.065,-0.164l0.074,-0.009l0.07,0.032l0.12,-0.028l0.019,-0.075l0.125,-0.121l-0.009,-0.094l-0.06,-0.037l-0.005,-0.066l0.144,-0.131l0.107,-0.018l0.032,-0.042l-0.018,-0.094l0.032,-0.037l0.07,-0.014l0.037,-0.047l0.005,-0.08l0.116,-0.252l0.074,-0.005l0.032,-0.051l-0.055,-0.103l0.018,-0.047l0.149,-0.023l0.051,-0.094l0.065,-0.042l0.107,-0.229l0.074,-0.028l0.009,-0.037l-0.032,-0.042l0.009,-0.052l-0.079,-0.089l0.01,-0.042l0.078,-0.014l0.061,-0.145l0.023,-0.262l-0.046,-0.046l0.009,-0.043l0.097,-0.051l0.047,-0.243l-0.047,-0.164l-0.102,-0.019l-0.25,-0.126l-0.112,-0.014l-0.06,0.028l-0.075,-0.004l-0.074,-0.043l-0.116,0.005l-0.135,0.103l-0.065,-0.005l-0.092,-0.149l-0.112,-0.028l-0.074,0.018l-0.098,0.089l-0.13,0.061l-0.116,0.117l-0.134,0.028l-0.084,0.061l-0.051,0.075l-0.096,0.065l-0.29,0.033l-0.049,-0.002l-0.04,0.01l-0.017,0.109v0.042l0.102,0.061l-0.005,0.06h-0.107l-0.097,-0.042l-0.098,0.005l-0.134,0.164l-0.005,0.117l-0.139,0.144l-0.084,0.029l-0.297,-0.029l-0.19,-0.051l-0.089,0.033l-0.027,0.107l0.051,0.159l-0.037,0.197l-0.079,0.07l-0.237,0.07l-0.153,0.131l-0.186,0.355v0.131l0.065,0.089l0.928,0.641l0.126,0.037l0.102,-0.033l0.102,-0.135l0.13,-0.285l0.144,-0.155l0.242,-0.07l0.153,0.028l0.056,0.084l-0.014,0.323l-0.079,0.374l-0.075,0.094l-0.199,0.116l-0.135,0.234l-0.032,0.127v0.098l-0.052,0.075l-0.208,0.126l-0.149,0.042l-0.135,-0.005l-0.125,0.052l-0.19,0.262l-0.149,0.102l-0.404,0.145l-0.023,0.066l0.162,0.687l0.154,0.136l0.139,0.019l0.028,0.051l-0.019,0.084l0.139,0.267l-0.014,0.079l-0.167,0.15l-0.32,0.173l-0.604,0.178l-0.074,0.06l-0.214,0.332l-0.696,0.688l-0.009,0.121l-0.246,0.384l-0.033,0.131l-0.005,0.177l-0.046,0.3l-0.046,0.028l-0.098,-0.042l-0.084,-0.075l-0.125,-0.014l-0.302,0.075l-0.158,0.154l-0.027,0.117l0.018,0.135l0.125,0.099l0.182,0.042l0.06,0.07v0.182l0.088,0.084l0.743,0.038l0.195,0.037l0.195,0.122l0.567,0.14l0.148,-0.014l0.098,-0.098l0.065,-0.187l0.283,-0.365l0.135,-0.061l0.204,0.028h0.204l0.158,-0.023l0.218,0.042l0.112,0.103l0.06,0.192l0.121,0.084l0.162,0.051l0.191,0.192l0.041,0.145l-0.027,0.22l-0.223,0.271l-0.372,0.164l-0.692,0.074l-0.12,0.028l-0.65,-0.098l-0.302,-0.145l-0.218,-0.051l-0.339,-0.028l-0.302,-0.098l-0.107,-0.089l-0.056,-0.22l-0.111,-0.051l-0.181,-0.005l-0.121,0.051l-0.139,0.136l-0.084,0.271l-0.125,0.136l-0.139,0.145l-0.075,0.14l0.075,0.711l-0.121,0.037l-0.678,-0.009l-0.316,0.065l-0.186,-0.009l-0.139,-0.081l-0.455,-0.017l-0.408,0.191l-0.093,0.187l-0.07,0.057l-0.042,0.102v0.206l0.084,0.098l0.172,0.094l0.046,0.093l0.088,0.772l-0.176,0.243l-0.279,0.084l-0.121,0.206l-0.037,0.243l0.167,0.271l0.353,0.103l0.126,0.136l-0.005,0.084l-0.362,0.337l-0.051,0.112l0.042,0.136l-0.107,0.243l0.088,0.112l0.07,0.318l0.093,0.126l0.023,0.351l0.483,0.599l0.306,0.149l0.437,0.328l0.385,0.486l0.223,0.131l0.093,0.103l0.144,0.056l0.17,0.05z"/>
</svg>
