<svg xmlns="http://www.w3.org/2000/svg" viewBox="723.479 662.454 1.518 1.945">
  <path d="M723.479093,662.654223l0.103601,-0.158004l0.122876,-0.041778l0.068811,0.014745l0.186772,0.174484l0.098301,0.270327l0.147451,0.235922l0.115504,0.117961l0.090928,0.027033l0.26787,0.186772l0.066353,0.004915l0.054065,0.041778l0.011276,0.05103l0.060137,0.032381l0.058595,-0.00771l0.064763,0.061679l-0.030839,0.154197l-0.208167,0.291433l-0.171159,0.121816l-0.070931,0.021588l-0.053969,0.074015l-0.131068,0.070931l-0.092518,-0.018504l-0.016962,-0.070931l-0.055511,-0.037007l-0.120274,0.004626l-0.291433,-0.087893l-0.018504,-0.037007l0.01542,-0.037007l-0.018504,-0.037007l-0.114106,-0.046259l-0.012336,-0.080183l0.024672,-0.021588l-0.003084,-0.030839l-0.040091,-0.043175l-0.027756,-0.135694l0.018504,-0.11719l-0.043175,-0.225128l0.01542,-0.089435l-0.040091,-0.262136l0.018504,-0.074015l-0.009637,-0.081146l-0.036863,-0.076183l-0.002843,-0.141813Z "/>
</svg>
