<svg xmlns="http://www.w3.org/2000/svg" viewBox="1697.997 570.913 30.917 42.515">
  <path d="M1726.515274,613.10934h0.050268l0.026613,0.023656l0.002957,0.044354l-0.020699,0.041397l0.014785,0.085752l0.026613,0.050268l-0.014785,0.073924h-0.038441l-0.023656,-0.041397l0.005914,-0.088709l-0.011828,-0.062096l-0.041397,-0.041397v-0.044354l0.023656,-0.041397Z M1726.237894,611.151633l0.037538,0.050944l0.0429,0.018769l0.010725,-0.02145l-0.048263,-0.048263l-0.026813,-0.013406l-0.016088,0.013406Z M1723.508361,604.212506l-0.083119,0.123338l-0.018769,0.193051l0.053625,0.163557l0.002681,0.131382l-0.037538,0.053625l-0.008044,0.088482l0.002681,0.219864l-0.029494,0.080438l0.002681,0.067032l0.029494,0.005363l0.085801,-0.093844l0.182326,-0.48531l0.069713,-0.241314l-0.029494,-0.219864l-0.085801,-0.152832l-0.045582,-0.008044l-0.091163,0.075076Z M1709.764172,587.631533l-0.06435,0.198414l0.010725,0.230589l0.032175,0.026813l0.06435,-0.144789l0.032175,-0.235952l-0.026813,-0.069713l-0.048263,-0.005363Z M1710.974318,591.5873l0.073288,0.062563l0.06435,0.044688l0.026813,-0.017875l-0.039325,-0.092951l-0.075076,-0.06435l-0.048263,0.019663l-0.001788,0.048263Z M1709.437057,591.133272l0.112613,-0.005363l0.037538,-0.06435l-0.037538,-0.037538l-0.112613,0.016088l-0.0429,0.06435l0.0429,0.026813Z M1707.467217,590.548755l0.214502,0.132276l0.078651,0.003575l-0.005363,-0.048263l-0.194839,-0.112613l-0.082226,-0.0143l-0.010725,0.039325Z M1706.053294,590.050038l0.246677,0.010725l0.182326,-0.0429l0.005363,-0.032175l-0.080438,-0.032175l-0.327115,0.032175l-0.058988,0.026813l0.032175,0.037538Z M1706.584186,590.119752h0.123338l0.032175,-0.053625l-0.037538,-0.037538h-0.080438l-0.06435,0.053625l0.026813,0.037538Z M1712.241665,593.310463l0.0429,-0.010725l-0.058988,-0.31639l-0.101888,-0.257402l-0.080438,-0.096526l-0.107251,-0.053625l-0.058988,0.010725l-0.032175,0.134063l0.032175,0.203777l0.219864,0.278852l0.144789,0.107251Z M1711.801937,592.806384l-0.010725,-0.123338l-0.032175,-0.075076l-0.0429,0.005363l-0.02145,0.053625l0.005363,0.091163l0.069713,0.069713l0.032175,-0.02145Z M1714.204355,594.264995l0.144789,0.058988l0.032175,-0.026813l-0.155514,-0.123338l-0.117976,-0.048263l-0.048263,0.026813l0.144789,0.112613Z M1714.456394,594.243545l0.219864,0.128701l0.053625,-0.005363l-0.037538,-0.06435l-0.112613,-0.058988l-0.128701,-0.048263l0.005363,0.048263Z M1715.518177,591.808952h0.085801l0.048263,-0.048263l-0.010725,-0.037538l-0.075076,-0.005363l-0.075076,0.048263l0.026813,0.0429Z M1714.965835,592.511444l0.048263,0.010725l0.048263,-0.058988l-0.02145,-0.06435h-0.06435l-0.037538,0.032175l0.026813,0.080438Z M1711.126257,592.500719l0.166239,0.005363l0.144789,0.048263l0.037538,-0.032175l-0.016088,-0.150151l-0.332477,-0.40219l-0.429003,-0.284215l-0.29494,-0.101888l-0.075076,0.02145l-0.02145,0.080438l0.0429,0.160876l0.112613,0.107251l0.091163,0.150151l0.31639,0.29494l0.257402,0.101888Z M1709.619383,590.420054l0.003575,-0.085801l-0.02145,-0.078651l-0.032175,0.010725l-0.00715,0.06435l0.025025,0.096526l0.032175,-0.00715Z M1709.21183,588.932843l0.085801,-0.039325l0.075076,-0.103676l0.0572,-0.110826l0.082226,-0.0572l0.103676,-0.178751l0.0286,-0.110826l-0.0429,-0.117976l0.017875,-0.235952l-0.025025,-0.06435l-0.032175,0.00715l-0.067926,0.110826l-0.139426,0.0286l-0.060775,0.075076l0.03575,0.239527l-0.0286,0.103676l-0.135851,0.085801l-0.089376,0.125126l-0.00715,0.125126l0.067926,0.092951l0.075076,0.025025Z M1709.519282,589.404746h0.053625l0.146576,-0.153726l0.010725,-0.121551l-0.071501,-0.089376l0.003575,-0.067926l-0.0429,-0.017875l-0.178751,0.103676l-0.060775,0.082226l0.00715,0.06435l0.103676,0.078651l0.032175,0.0572l-0.003575,0.06435Z M1709.540733,590.634555l-0.03575,-0.321752l-0.060775,-0.128701l0.003575,-0.232377l-0.046475,-0.160876l-0.096526,-0.117976l-0.0143,-0.132276l-0.0286,-0.228802l-0.0429,-0.03575l-0.0286,0.0286l0.02145,0.257402l-0.0429,0.157301l-0.089376,0.110826l-0.00715,0.160876l0.05005,0.125126l-0.0143,0.103676l-0.032175,0.046475l0.00715,0.092951l0.096526,0.114401l0.157301,0.071501l0.125126,0.092951l0.0429,0.0286l0.03575,-0.032175Z M1709.018779,590.234152l0.03575,-0.0429l0.0143,-0.085801l-0.039325,-0.085801l-0.03575,0.00715l-0.0286,0.071501l0.017875,0.128701l0.03575,0.00715Z M1709.433482,589.576347l0.05005,0.082226l0.03575,-0.003575l-0.003575,-0.132276l-0.0429,-0.060775l-0.03575,0.010725l-0.003575,0.103676Z M1709.612233,589.522722h0.039325l0.092951,-0.110826l0.0429,-0.132276l-0.0286,-0.010725l-0.089376,0.082226l-0.075076,0.139426l0.017875,0.032175Z M1709.676584,588.854192l0.03575,-0.039325l0.053625,-0.125126l0.010725,-0.139426l-0.03575,-0.067926l-0.032175,0.02145v0.114401l-0.067926,0.210927l0.03575,0.025025Z M1709.85176,588.58249l0.0286,-0.039325l-0.00715,-0.096526l-0.0429,-0.00715l-0.017875,0.03575l0.00715,0.092951l0.032175,0.0143Z M1709.444207,588.804142l0.039325,-0.003575l0.078651,-0.0429v-0.078651l-0.046475,-0.00715l-0.05005,0.032175l-0.05005,0.082226l0.0286,0.017875Z M1709.24043,589.204545l0.025025,-0.05005l-0.025025,-0.117976l-0.053625,-0.032175l-0.032175,0.0286v0.096526l0.046475,0.082226l0.039325,-0.00715Z M1709.108154,589.708623l0.0286,-0.05005l0.0143,-0.135851l-0.025025,-0.200201l-0.0429,-0.0572l-0.060775,0.003575l-0.0429,0.032175l-0.003575,0.085801l0.0572,0.171601l0.032175,0.135851l0.0429,0.0143Z M1709.311931,588.975743l0.0429,-0.02145l0.017875,-0.0429l-0.017875,-0.017875l-0.03575,0.017875l-0.0286,0.0429l0.02145,0.02145Z M1709.640833,588.636115l0.017875,-0.032175l-0.00715,-0.0286l-0.02145,-0.00715l-0.02145,0.017875v0.05005h0.032175Z M1709.444207,588.932843l0.053625,-0.025025v-0.032175l-0.03575,-0.00715l-0.053625,0.017875l-0.003575,0.032175l0.039325,0.0143Z M1709.22613,588.471664l0.03575,-0.0286v-0.0286l-0.025025,-0.010725l-0.03575,0.017875l-0.010725,0.0429l0.03575,0.00715Z M1709.412032,588.017636l0.053625,-0.0143l0.0286,-0.0286l-0.0143,-0.02145l-0.046475,0.00715l-0.0572,0.046475l0.03575,0.010725Z M1719.505225,600.691105h0.056307l0.026813,-0.0429l-0.002681,-0.058988l-0.040219,-0.024131l-0.072394,0.0429l-0.010725,0.050944l0.0429,0.032175Z M1720.2962,601.128152l0.067032,-0.013406l0.12602,-0.107251l0.016088,-0.067032l-0.029494,-0.037538l-0.093844,0.005363l-0.117976,0.112613l-0.018769,0.083119l0.050944,0.024131Z M1719.698277,600.02615l0.107251,0.032175l0.174283,-0.115295l0.117976,-0.227908l-0.002681,-0.152832l-0.072394,-0.053625l-0.120657,0.029494l-0.284215,0.335159l-0.016088,0.088482l0.096526,0.06435Z M1720.194312,599.420183l0.06435,0.016088l0.018769,-0.013406l-0.050944,-0.058988l-0.045582,0.002681l-0.016088,0.02145l0.029494,0.032175Z M1720.749335,600.283552l0.203777,0.367334l0.225227,0.160876h0.179645l0.166239,-0.152832l0.016088,-0.246677l-0.203777,-0.54966l-0.512123,-0.479947l-0.080438,-0.010725l-0.048263,0.123338l-0.013406,0.557704l0.067032,0.230589Z M1720.330163,599.028718l0.153726,-0.132276v-0.246677l-0.171601,-0.203777l-0.189476,-0.046475l-0.275277,0.100101l-0.150151,0.214502l0.02145,0.168026l0.168026,0.160876l0.135851,0.046475l0.307452,-0.060775Z M1704.853873,604.409133l0.078651,0.150151v0.235952l-0.075076,0.239527l0.010725,0.075076l0.100101,0.046475l0.121551,0.110826l0.053625,0.125126l0.143001,0.128701l0.146576,0.0143l0.071501,-0.075076l0.010725,-0.103676l-0.085801,-0.121551l-0.196626,-0.121551l-0.150151,-0.125126l-0.0286,-0.143001l0.046475,-0.168026l-0.010725,-0.100101l-0.085801,-0.096526l-0.075076,-0.164451l0.003575,-0.143001l-0.039325,-0.032175l-0.082226,0.0143l-0.05005,0.0572v0.117976l0.092951,0.078651Z M1706.752212,605.581741l-0.0143,0.096526l0.032175,0.0429l0.06435,-0.003575l0.0286,-0.0429l-0.02145,-0.06435l-0.046475,-0.0429l-0.0429,0.0143Z M1707.485092,605.610342l0.0572,0.02145l0.082226,-0.010725l0.017875,-0.0572l-0.017875,-0.096526l-0.067926,-0.010725l-0.075076,0.103676l0.003575,0.05005Z M1710.309363,604.820261l0.010725,-0.0429l-0.0429,-0.05005l0.0143,-0.082226l-0.03575,-0.05005h-0.05005l-0.025025,0.171601l0.039325,0.060775l0.089376,-0.00715Z M1708.840027,604.573584h0.0429l0.0286,-0.067926l-0.0286,-0.153726l-0.05005,-0.02145l-0.060775,0.046475l-0.00715,0.110826l0.02145,0.053625l0.053625,0.032175Z M1708.167922,604.10168v0.232377l0.053625,0.228802l0.107251,0.168026l0.332477,0.282427l0.0143,0.082226l-0.067926,0.085801v0.046475l0.078651,0.039325l0.221652,0.0286l0.143001,-0.0143l0.117976,-0.125126l0.00715,-0.092951l-0.032175,-0.0572l-0.189476,-0.143001l-0.250252,-0.336052l0.017875,-0.153726l0.075076,-0.114401l0.003575,-0.067926l-0.096526,-0.132276l-0.078651,-0.075076l-0.175176,0.00715l-0.107251,0.053625l-0.067926,-0.0143l-0.110826,-0.128701l-0.032175,0.02145l0.03575,0.178751Z M1708.092847,604.77736l0.003575,0.110826l0.071501,0.092951l0.0143,0.078651l-0.046475,0.071501l-0.010725,0.103676l0.089376,0.228802l0.110826,0.110826l0.125126,0.003575l0.082226,-0.046475l0.00715,-0.0572l-0.075076,-0.128701l0.00715,-0.110826l0.078651,-0.150151l-0.010725,-0.103676l-0.257402,-0.200201l-0.117976,-0.117976h-0.039325l-0.032175,0.114401Z M1706.612786,604.687985l0.089376,0.189476l0.025025,0.117976l0.039325,0.02145l0.025025,-0.0429l0.010725,-0.128701l0.139426,-0.332477l0.010725,-0.092951l-0.0572,-0.02145l-0.164451,0.078651l-0.085801,0.092951l-0.032175,0.117976Z M1707.735344,603.322325l0.067926,0.046475l0.0572,0.003575l0.121551,-0.185901l0.00715,-0.085801l-0.0286,-0.0143l-0.185901,0.146576l-0.0429,0.046475l0.003575,0.0429Z M1706.065807,605.520966l0.02145,0.121551l0.06435,0.075076l0.053625,0.003575l0.039325,-0.039325l0.114401,-0.017875l0.092951,-0.168026l0.010725,-0.085801l-0.03575,-0.06435l-0.143001,-0.046475l-0.164451,0.017875l-0.092951,0.078651l-0.003575,0.082226l0.0429,0.0429Z M1705.951406,605.910644l0.017875,0.071501l0.096526,0.0286l0.286002,-0.078651l0.103676,-0.107251l-0.003575,-0.067926l-0.092951,-0.0429h-0.075076l-0.053625,0.0429l-0.082226,-0.003575l-0.06435,-0.0429l-0.0429,0.017875l-0.089376,0.182326Z M1706.594911,602.442868l-0.107251,0.075076l-0.085801,0.168026l-0.003575,0.092951l-0.075076,0.143001l0.02145,0.032175l0.096526,-0.046475l0.085801,0.0143l0.0429,0.046475l-0.010725,0.117976l-0.060775,0.060775l-0.0143,0.078651l0.160876,0.307452l0.185901,0.218077h0.03575l-0.010725,-0.128701l-0.053625,-0.185901l0.032175,-0.103676l0.103676,-0.100101l0.117976,-0.200201l0.00715,-0.067926l-0.032175,-0.032175h-0.053625l-0.121551,-0.135851l0.00715,-0.089376l-0.017875,-0.00715l-0.078651,0.0286l-0.060775,-0.02145l-0.017875,-0.0572l0.06435,-0.143001l-0.03575,-0.168026l-0.046475,-0.003575l-0.075076,0.107251Z M1706.144457,603.029172l0.075076,0.096526v0.103676l-0.171601,0.271702v0.053625l0.132276,0.092951l0.025025,0.085801l-0.053625,0.096526l-0.164451,0.085801l0.003575,0.053625l0.200201,0.075076l0.060775,0.096526l0.067926,0.032175l0.143001,0.0143l0.039325,0.053625l-0.00715,0.082226l-0.075076,0.096526l-0.025025,0.092951l0.0429,0.232377l0.067926,0.071501h0.03575v-0.128701l0.046475,-0.110826l0.078651,-0.125126l0.107251,-0.085801l0.143001,-0.06435l0.0143,-0.085801l-0.0429,-0.139426l-0.125126,-0.232377l-0.214502,-0.250252l-0.150151,-0.336052v-0.110826l0.075076,-0.114401l-0.02145,-0.025025l-0.121551,0.02145l-0.078651,-0.0286l-0.092951,-0.075076h-0.085801l-0.010725,0.039325l0.082226,0.06435Z M1706.441185,605.106263l-0.0286,-0.125126l-0.096526,-0.196626v-0.075076l0.0429,-0.071501v-0.06435l-0.032175,-0.06435v-0.089376l0.092951,-0.128701l-0.00715,-0.03575l-0.135851,-0.003575l-0.089376,-0.05005l-0.02145,-0.071501l-0.0572,-0.039325l-0.107251,-0.010725l-0.060775,-0.039325l-0.0286,-0.143001l0.032175,-0.075076l0.146576,-0.075076l0.00715,-0.0429l-0.121551,-0.075076l-0.125126,-0.039325l-0.067926,-0.107251l-0.06435,-0.032175l-0.046475,0.00715l-0.017875,0.0429l0.03575,0.096526l-0.032175,0.110826l-0.125126,0.121551l-0.0429,0.107251l0.003575,0.100101l0.067926,0.078651l0.071501,0.003575l0.0572,-0.017875l0.157301,0.010725l0.089376,0.0429l0.0286,0.06435l-0.017875,0.082226l-0.06435,0.139426l-0.0143,0.293152l-0.071501,0.110826l-0.003575,0.046475l0.0286,0.0572l0.003575,0.114401l0.157301,0.239527l0.060775,0.003575l0.075076,-0.039325l0.157301,-0.010725l0.125126,0.0429l0.03575,-0.046475l0.003575,-0.146576Z M1707.688869,602.789646l0.085801,0.125126l0.010725,0.060775l-0.032175,0.06435l-0.246677,0.110826l-0.089376,0.100101l-0.00715,0.125126l0.05005,0.189476l-0.010725,0.139426l-0.078651,0.067926l-0.00715,0.0572l0.089376,0.103676l0.089376,0.039325l0.067926,0.053625l0.00715,0.067926l-0.0429,0.053625v0.05005l0.0429,0.025025l0.046475,-0.010725l0.171601,0.00715l0.075076,-0.032175l0.025025,-0.121551l-0.02145,-0.189476l-0.096526,-0.182326l-0.032175,-0.164451l-0.078651,-0.100101l-0.032175,-0.100101l0.02145,-0.085801l0.234164,-0.189476v-0.077757l-0.033963,-0.061669l-0.03575,-0.178751l-0.107251,-0.117976h-0.053625l-0.02145,0.05005l0.010725,0.121551Z M1707.645969,602.786071l0.013406,-0.018769l-0.010725,-0.091163l-0.024131,-0.005363l-0.013406,0.034857l0.010725,0.061669l0.024131,0.018769Z M1707.56553,604.075762l-0.008044,-0.037538l-0.120657,-0.053625l-0.117976,-0.120657v-0.099207l0.075076,-0.083119l0.018769,-0.10457l-0.050944,-0.219864l0.018769,-0.120657l0.150151,-0.176964l0.107251,-0.013406l0.083119,-0.0429l0.018769,-0.048263l-0.139426,-0.150151l-0.018769,-0.096526l0.013406,-0.056307l-0.002681,-0.045582l-0.12602,-0.112613l-0.085801,-0.010725l-0.069713,0.034857l-0.040219,0.067032l0.02145,0.085801l-0.045582,0.067032l-0.099207,0.032175l-0.040219,0.056307l0.002681,0.083119l0.034857,0.072394l-0.013406,0.067032l-0.12602,0.187689l-0.02145,0.053625l-0.083119,0.099207l-0.008044,0.120657l0.075076,0.227908l0.024131,0.187689l0.115295,0.198414l-0.008044,0.230589l-0.067032,0.206458l-0.142107,0.29494l-0.010725,0.158195l0.06435,0.268127l0.107251,0.179645l0.093844,0.06435l0.099207,-0.002681l0.109932,-0.077757l0.174283,-0.21182l0.061669,-0.034857l0.101888,-0.128701l-0.002681,-0.139426l-0.099207,-0.16892l-0.075076,-0.088482l-0.112613,-0.010725l0.002681,-0.02145l0.072394,-0.018769h0.10457l0.069713,-0.101888l0.024131,-0.219864l-0.016088,-0.026813l-0.088482,0.005363l-0.056307,-0.045582l0.002681,-0.085801l0.048263,-0.072394Z M1717.92417,601.449011l0.0286,0.160876l-0.05005,0.128701l-0.010725,0.103676l0.03575,0.017875l0.05005,-0.082226l0.082226,-0.278852l0.010725,-0.096526l-0.132276,-0.103676l-0.078651,0.00715l-0.010725,0.0572l0.075076,0.085801Z M1716.998238,600.941357l-0.05005,0.114401l0.010725,0.157301l0.05005,0.017875l0.0572,-0.05005l0.053625,-0.139426l-0.02145,-0.157301l-0.0429,-0.010725l-0.0572,0.067926Z M1716.823062,599.732998l0.046475,0.132276l0.025025,0.250252l0.164451,0.250252l0.071501,0.00715l0.053625,-0.082226v-0.114401l0.100101,-0.039325l0.221652,0.00715l0.157301,-0.0286l0.053625,-0.03575l-0.003575,-0.0429l-0.278852,-0.0572l-0.160876,-0.0572l-0.414703,-0.350353h-0.071501l-0.02145,0.085801l0.0572,0.075076Z M1717.820494,600.187026l-0.110826,-0.025025l-0.114401,0.03575l-0.257402,-0.0143l-0.100101,0.03575v0.096526l-0.0429,0.092951l0.032175,0.114401l0.207352,0.193051l0.05005,0.200201l0.125126,0.117976l0.103676,0.025025l0.164451,-0.025025l0.110826,-0.150151l0.092951,-0.264552l-0.067926,-0.178751l-0.193051,-0.253827Z M1716.415509,604.614697l0.160876,-0.069713l0.06435,-0.139426l0.000218,-0.094016l-0.059206,-0.115123l-0.069713,-0.016088l-0.107251,0.107251l-0.080438,0.27349l0.091163,0.053625Z M1717.513042,603.343775l0.0286,-0.0429l0.003575,-0.085801l-0.03575,-0.103676l-0.033963,0.023238l-0.012513,0.073288l0.00715,0.128701l0.0429,0.00715Z M1717.29139,601.570562l0.0429,-0.071501l0.053625,-0.243102l-0.032175,-0.0429l-0.03575,0.0143l-0.082226,0.235952l0.010725,0.092951l0.0429,0.0143Z M1717.323566,601.903039l0.032175,-0.0286l0.03575,-0.096526l0.0286,-0.146576l-0.03575,-0.032175l-0.039325,0.039325l-0.003575,0.110826l-0.0429,0.135851l0.025025,0.017875Z M1717.166264,602.056765l0.060775,-0.243102l0.003575,-0.185901l-0.0286,-0.00715l-0.075076,0.153726l-0.03575,0.150151l0.03575,0.125126l0.039325,0.00715Z M1716.887412,602.460743l0.085801,-0.125126l0.082226,-0.175176l-0.0143,-0.046475l-0.046475,0.00715l-0.103676,0.189476l-0.0286,0.135851l0.025025,0.0143Z M1716.837362,603.068498h0.039325l0.0143,-0.03575l-0.0143,-0.0286h-0.03575l-0.02145,0.032175l0.017875,0.032175Z M1717.055439,603.211499l0.053625,-0.05005l0.00715,-0.071501l-0.03575,-0.075076l-0.001788,-0.148364l-0.016088,-0.066138l-0.032175,0.0286l-0.02145,0.207352l-0.017875,0.160876l0.06435,0.0143Z M1715.836354,598.592564l0.143001,0.243102l0.175176,0.214502l0.060775,0.00715l0.053625,-0.110826l0.00715,-0.085801l-0.082226,-0.171601l-0.132276,-0.171601l-0.289577,-0.228802l-0.078651,0.00715l-0.046475,0.110826l0.025025,0.060775l0.164451,0.125126Z M1716.461984,599.729423l0.039325,0.003575l0.0286,-0.053625l0.003575,-0.121551l-0.02145,-0.06435l-0.0286,-0.00715l-0.0429,0.053625l-0.025025,0.132276l0.046475,0.0572Z M1716.983938,599.303995l0.114401,0.082226l0.060775,-0.010725l0.010725,-0.03575l-0.125126,-0.171601l-0.06435,-0.010725l-0.053625,0.039325v0.0429l0.0572,0.06435Z M1717.19129,599.275395l0.046475,0.017875l0.02145,-0.017875l-0.0143,-0.0429l-0.110826,-0.096526l-0.03575,0.00715l0.003575,0.03575l0.089376,0.096526Z M1716.547785,599.872424l0.071501,0.067926l0.03575,0.010725l0.00715,-0.085801l-0.03575,-0.067926l-0.06435,-0.0143l-0.025025,0.0429l0.010725,0.046475Z M1716.665761,599.747298l0.0286,-0.010725l-0.003575,-0.039325l-0.046475,-0.0572l-0.032175,0.003575l-0.0143,0.053625l0.067926,0.05005Z M1718.049296,601.220209l0.075076,-0.0429l0.02145,-0.144789l-0.032175,-0.080438h-0.058988l-0.091163,0.150151l0.010725,0.107251l0.075076,0.010725Z M1718.231622,603.268699l0.06435,-0.016088l0.053625,-0.06435l-0.016088,-0.0429l-0.037538,-0.005363l-0.069713,0.032175l-0.0429,0.06435l0.048263,0.032175Z M1717.713661,603.423662l0.123338,0.010725l0.182326,-0.117976l0.112613,-0.235952l-0.053625,-0.058988l-0.160876,-0.037538l-0.139426,-0.107251l-0.107251,0.026813l-0.053625,0.117976l0.010725,0.311027l0.085801,0.091163Z M1717.185927,603.03811l0.06435,0.010725l0.0429,-0.0429l0.058988,-0.144789l0.31639,-0.509441l0.112613,-0.278852l0.0429,-0.429003l-0.06435,-0.268127l-0.058988,-0.032175l-0.0429,0.032175v0.107251l-0.117976,0.498716l-0.219864,0.364653l-0.144789,0.386103l-0.02145,0.246677l0.032175,0.058988Z M1717.901642,602.872335l0.236557,0.115322l0.088709,0.005914l0.183332,-0.124192l0.153762,-0.168547l0.127149,-0.026613l0.047311,-0.044354v-0.065053l0.174461,-0.127149l0.032527,-0.073924v-0.082795l0.014785,-0.073924l0.106451,-0.206987l0.026613,-0.153762l-0.023656,-0.06801l0.002957,-0.056182l0.023656,-0.047311v-0.06801l-0.219801,-0.266127l-0.031541,-0.118279l-0.07491,-0.114336l-0.283868,-0.197131l-0.161647,-0.067024l-0.027598,0.027598l0.019713,0.051254l-0.003943,0.145877l-0.047311,0.169533v0.106451l0.027598,0.110393v0.374549l-0.070967,0.354836l-0.137992,0.327237l-0.197131,0.208959l-0.023656,0.082795l0.038441,0.068996Z M1710.228324,601.881753l0.038441,0.032527l0.038441,-0.02957l-0.005914,-0.047311l-0.044354,-0.020699l-0.035484,0.026613l0.008871,0.038441Z M1710.388,603.05271l0.079838,-0.082795l-0.005914,-0.047311l-0.032527,0.008871l-0.050268,0.044354l-0.020699,0.062096l0.02957,0.014785Z M1711.384497,602.337125l0.041397,0.011828l0.014785,-0.023656l-0.065053,-0.02957l-0.023656,0.002957l0.002957,0.02957l0.02957,0.008871Z M1715.104356,596.760293l0.059139,0.014785l0.020699,-0.047311l-0.017742,-0.062096h-0.02957l-0.038441,0.047311l0.005914,0.047311Z M1714.882583,596.653843l0.091666,0.082795l0.056182,-0.008871l0.079838,-0.079838l0.085752,-0.053225l0.032527,-0.19516l-0.014785,-0.36962l-0.035484,-0.079838l-0.062096,-0.076881l-0.059139,-0.002957l-0.112365,0.106451l-0.177418,0.343008v0.141934l0.115322,0.192203Z M1714.523805,596.1758l0.106451,0.055197l0.051254,0.106451l0.039426,0.003943l0.031541,-0.114336l0.153762,-0.291754l0.216844,-0.185303l-0.003943,-0.051254l-0.094623,-0.059139l-0.082795,-0.003943l-0.134049,0.078852l-0.275983,0.323295l-0.027598,0.086738l0.019713,0.051254Z M1715.139839,595.855463l0.047311,0.050268l0.020699,-0.014785l0.017742,-0.044354v-0.079838l-0.032527,0 l-0.044354,0.035484l-0.008871,0.053225Z M1715.370482,596.488253l0.023656,0.047311l0.047311,-0.002957l0.038441,-0.059139v-0.100537l-0.023656,-0.026613l-0.044354,0.002957l-0.041397,0.138977Z M1715.071829,596.846045l0.059139,-0.005914l0.005914,-0.020699l-0.059139,-0.02957l-0.038441,0.002957l-0.017742,0.02957l0.050268,0.023656Z M1714.409469,596.757336l-0.035484,-0.085752l-0.005914,-0.056182h-0.032527l-0.038441,0.050268l0.005914,0.035484l0.047311,0.053225l0.059139,0.002957Z M1714.456781,596.775078l0.144891,0.168547l0.218815,0.162633l0.035484,0.106451l0.059139,0.026613l0.065053,-0.032527l0.106451,-0.014785l0.062096,-0.026613l0.011828,-0.070967l-0.079838,-0.153762l-0.106451,-0.06801l-0.180375,-0.150805l-0.103494,-0.230643l-0.082795,-0.103494l-0.094623,0.011828l-0.106451,0.183332l0.008871,0.100537l0.041397,0.091666Z M1714.98312,597.369428l0.118279,0.014785l0.026613,-0.056182l-0.020699,-0.065053l-0.088709,-0.011828l-0.088709,0.023656l-0.023656,0.044354l0.076881,0.050268Z M1714.397641,598.008132l0.088709,0.011828l0.076881,-0.059139l0.150805,0.002957l0.050268,0.047311l0.050268,0.005914l0.19516,-0.127149l0.183332,-0.008871l0.168547,0.035484l0.02957,-0.026613l-0.06801,-0.180375l-0.121235,-0.192203l-0.106451,-0.056182l-0.141934,-0.023656l-0.130106,-0.053225l-0.115322,0.005914l-0.215858,0.198116l-0.103494,0.19516l-0.035484,0.162633l0.044354,0.062096Z M1714.258664,598.221033l0.079838,0.076881h0.035484l0.050268,-0.103494v-0.082795l-0.103494,-0.073924l-0.06801,-0.002957l-0.02957,0.044354v0.062096l0.035484,0.079838Z M1715.654351,601.482563l0.023656,-0.02957l0.018296,-0.104695l-0.009425,-0.11412l-0.014138,-0.020976l-0.012475,0.009148l0.002957,0.121235l-0.003049,0.047127l-0.020428,0.053407l-0.004706,0.034563l0.019313,0.003881Z M1714.140386,598.067271l0.023656,-0.026613v-0.02957l-0.035484,-0.011828l-0.020699,0.011828l0.002957,0.050268l0.02957,0.005914Z M1714.104902,598.218076l0.02957,-0.017742l0.002957,-0.070967l-0.035484,-0.017742l-0.023656,0.023656v0.044354l0.026613,0.038441Z M1714.566188,598.575868l0.062096,0.044354l0.059139,-0.023656l0.017742,-0.02957l-0.062096,-0.159676v-0.156719l0.059139,-0.127149l0.014785,-0.06801l-0.032527,-0.056182h-0.038441l-0.059139,0.038441l-0.053225,0.073924v0.109408l-0.020699,0.088709l-0.047311,0.047311v0.053225l0.100537,0.16559Z M1714.773176,599.400861l0.094623,0.127149v0.047311l0.038441,0.062096l0.224729,0.124192l0.047311,0.011828l0.026613,-0.044354l-0.002957,-0.038441l-0.076881,-0.065053l-0.044354,-0.070967l-0.070967,-0.082795l-0.109408,-0.076881l-0.065053,-0.065053l-0.047311,-0.008871l-0.02957,0.017742l0.014785,0.062096Z M1714.793874,599.593063l0.002957,-0.032527l-0.070967,-0.138977l-0.026613,-0.118279l-0.032527,-0.014785l-0.023656,0.050268l0.008871,0.198116l0.059139,0.053225l0.082795,0.002957Z M1714.693338,599.202744l0.065053,-0.112365l0.047311,-0.02957l0.100537,0.008871l0.044354,-0.032527l0.020699,-0.050268l-0.008871,-0.230643l-0.023656,-0.032527l-0.133063,-0.023656l-0.059139,-0.032527l-0.094623,0.011828l-0.02957,0.073924l0.017742,0.416932l0.014785,0.035484l0.038441,-0.002957Z M1715.435535,600.89117l0.008871,-0.065053l-0.020699,-0.091666l0.005914,-0.076881l0.023656,-0.09758l0.002957,-0.088709l-0.103494,-0.177418l-0.044354,-0.017742l-0.044354,0.014785l-0.130106,0.236557l0.014785,0.091666l0.06801,0.085752l0.082795,0.047311l0.109408,0.13602l0.026613,0.002957Z M1715.343869,600.110532l0.144891,0.206987l0.020699,-0.005914l-0.011828,-0.218815l0.023656,-0.091666l0.011828,-0.088709l0.044354,-0.053225l-0.005914,-0.065053l-0.070967,-0.053225l-0.212901,-0.005914l-0.070967,0.06801l0.002957,0.056182l0.124192,0.251342Z M1715.385267,600.976922l0.002957,0.070967l0.014785,0.02957l0.023656,-0.002957l0.014785,-0.047311l-0.02957,-0.062096l-0.026613,0.011828Z M1715.601125,601.45595l0.023656,-0.121235l0.011828,-0.251342l-0.017742,-0.106451l-0.023656,0.011828l-0.038441,0.138977l-0.008871,0.159676l-0.041397,0.144891l0.017742,0.062096l0.047311,0.005914l0.02957,-0.044354Z M1715.639566,600.89117v-0.150805l-0.014785,-0.150805l-0.023656,-0.005914l-0.032527,0.13602l0.017742,0.171504l0.032527,0.020699l0.020699,-0.020699Z M1715.630695,600.489023l-0.002957,-0.09758l-0.023656,-0.056182l-0.023656,0.008871l-0.011828,0.062096l0.017742,0.085752l0.026613,0.014785l0.017742,-0.017742Z M1713.466198,603.599748l0.062096,0.014785l0.150805,-0.218815l0.118279,-0.150805l0.192203,-0.147848l-0.005914,-0.02957l-0.047311,-0.011828l-0.109408,-0.041397l-0.056182,0.011828l-0.198116,0.174461l-0.106451,0.230643l-0.026613,0.121235l0.026613,0.047311Z M1713.989581,604.415869l0.118279,-0.020699l0.085752,-0.059139l0.02957,-0.06801l-0.023656,-0.02957l-0.041397,0.002957l-0.150805,0.073924l-0.032527,0.073924l0.014785,0.026613Z M1713.670229,604.714523l0.082795,-0.035484l0.008871,-0.032527l-0.035484,-0.047311l-0.032527,0.002957l-0.050268,0.06801v0.035484l0.026613,0.008871Z M1714.637155,604.554847l0.130106,-0.002957l0.035484,-0.032527l-0.023656,-0.085752l-0.070967,-0.02957l-0.06801,0.002957l-0.079838,0.079838v0.047311l0.076881,0.020699Z M1714.450867,604.442482l0.035484,-0.005914l0.076881,-0.065053l0.008871,-0.038441l-0.056182,-0.079838h-0.038441l-0.041397,0.091666l-0.005914,0.06801l0.020699,0.02957Z M1714.081246,604.758877l0.130106,-0.044354l0.032527,-0.053225l-0.014785,-0.059139l-0.050268,-0.014785l-0.073924,0.038441l-0.062096,0.070967v0.047311l0.038441,0.014785Z M1714.317803,604.622857l0.047311,-0.026613l0.041397,-0.065053l0.002957,-0.06801l-0.011828,-0.044354l-0.026613,0.002957l-0.085752,0.150805v0.041397l0.032527,0.008871Z M1714.373986,604.818016l0.047311,0.056182l0.070967,0.014785l0.082795,-0.020699l0.162633,-0.198116l0.008871,-0.044354l-0.091666,-0.035484l-0.106451,-0.008871l-0.073924,0.026613l-0.100537,0.130106v0.079838Z M1714.764305,604.383343l0.147848,0.02957l0.085752,-0.026613l0.014785,-0.050268l-0.008871,-0.038441l0.020699,-0.059139l0.059139,-0.100537l0.088709,-0.313438l-0.047311,-0.082795l-0.124192,-0.047311l-0.106451,0.017742l-0.19516,0.174461l-0.118279,0.206987l0.002957,0.16559l0.062096,0.082795l0.118279,0.041397Z M1715.967789,604.55189l0.073924,0.014785l0.047311,-0.032527l0.002957,-0.050268l0.073924,-0.150805l0.023656,-0.138977l-0.014785,-0.035484l-0.070967,-0.020699l-0.050268,0.035484l-0.133063,0.277954l-0.005914,0.065053l0.053225,0.035484Z M1715.030431,603.664801l0.127149,0.047311l0.085752,0.005914l0.032527,-0.035484l0.002957,-0.044354l-0.138977,-0.209944l-0.050268,-0.017742l-0.073924,0.053225l-0.047311,0.13602l0.011828,0.053225l0.050268,0.011828Z M1715.320214,604.188183l-0.032527,0.044354l-0.005914,0.070967l0.038441,0.032527h0.038441l0.050268,-0.035484l0.09758,-0.017742l0.091666,-0.130106l0.106451,-0.093637l0.04534,-0.059139l0.059139,-0.189246l-0.021684,-0.035484l-0.274012,-0.035484l-0.076881,0.005914l-0.061111,0.057168l-0.043369,0.14292l-0.020699,0.147848l0.008871,0.094623Z M1715.647451,603.729854l0.096594,0.01577l0.078852,-0.033512l0.037455,-0.051254l-0.037455,-0.01577l-0.169533,0.005914l-0.04534,0.037455v0.025627l0.039426,0.01577Z M1715.270931,604.072862l0.017742,-0.130106l0.037455,-0.134049l-0.025627,-0.017742l-0.039426,0.023656l-0.02957,0.098565l-0.007885,0.084766l0.019713,0.057168l0.027598,0.017742Z M1714.880612,603.647059l0.021684,-0.007885l0.027598,-0.035484l0.003943,-0.031541l-0.019713,-0.003943l-0.033512,0.023656l-0.011828,0.039426l0.011828,0.01577Z M1714.831329,603.714084l0.021684,-0.027598v-0.025627l-0.027598,-0.011828l-0.017742,0.017742v0.04534l0.023656,0.001971Z M1715.984545,603.455842l0.019713,0.011828l0.027598,-0.017742l0.114336,-0.12025l0.049283,-0.061111l-0.013799,-0.031541l-0.043369,-0.003943l-0.041397,0.02957l-0.003943,0.039426l-0.106451,0.128135l-0.001971,0.025627Z M1716.372892,604.165513l0.033512,-0.013799l0.037455,-0.07491l0.124192,-0.151791l0.031541,-0.01577l0.017742,-0.021684l0.067024,-0.175446l-0.007885,-0.019713l-0.033512,0.011828l-0.019713,0.051254l-0.118279,0.189246l-0.041397,0.031541l-0.09068,0.110393l-0.01577,0.057168l0.01577,0.021684Z M1716.733642,603.923042l0.02957,0.013799l0.061111,-0.035484l0.027598,-0.051254v-0.130106l-0.017742,-0.025627l-0.053225,0.021684l-0.053225,0.084766l-0.009857,0.080824l0.01577,0.041397Z M1714.755434,602.416963l0.032527,-0.062096l-0.008871,-0.079838l-0.02957,0.002957l-0.026613,0.053225v0.079838l0.032527,0.005914Z M1715.317257,601.662937l0.109408,-0.118279l0.017742,-0.062096l-0.032527,-0.005914l-0.118279,0.100537l-0.050268,0.094623l0.008871,0.023656l0.065053,-0.032527Z M1715.219677,601.760517l0.011828,0.065053l0.082795,0.021684l0.076881,-0.003943l0.103494,-0.073924l0.044354,-0.100537l-0.017742,-0.124192l-0.041397,-0.008871l-0.139963,0.16559l-0.086738,0.021684l-0.033512,0.037455Z M1714.991005,602.196176l0.031541,-0.003943l0.065053,-0.080824l0.033512,-0.137992l-0.023656,-0.037455l-0.039426,0.009857l-0.047311,0.088709l-0.023656,0.09068l0.003943,0.070967Z M1714.616457,603.774209l0.109408,-0.183332l0.378491,-0.440587l0.091666,-0.215858l0.014785,-0.144891l-0.062096,-0.13602l-0.005914,-0.094623l0.017742,-0.115322l0.002957,-0.118279l-0.038441,-0.02957l-0.09758,0.023656l-0.150805,0.127149l-0.088709,0.159676l-0.056182,0.059139l-0.144891,0.227686l-0.209944,0.218815l-0.115322,0.047311l0.002957,0.041397l0.079838,0.044354l0.06801,0.112365l0.002957,0.144891l0.044354,0.09758l0.059139,0.230643l0.038441,0.002957l0.059139,-0.059139Z M1715.095485,602.227717h0.078852l0.114336,-0.037455l0.088709,-0.106451l0.019713,-0.151791l-0.037455,-0.04534l-0.118279,0.003943l-0.072938,0.082795l-0.041397,0.143906l-0.04534,0.086738l0.013799,0.023656Z M1713.909743,604.324204l0.292739,-0.144891l0.109408,-0.082795l0.153762,-0.174461l0.005914,-0.073924l-0.091666,-0.215858l-0.026613,-0.272041l-0.035484,-0.076881l-0.06801,-0.041397l-0.091666,0.002957l-0.245428,0.156719l-0.307524,0.295696l-0.082795,0.121235l-0.254299,0.523382l-0.014785,0.147848l0.026613,0.118279l0.062096,0.050268l0.103494,0.002957l0.153762,-0.076881l0.044354,-0.038441l0.026613,-0.09758l0.032527,-0.014785l0.076881,0.014785l0.053225,-0.02957l0.076881,-0.094623Z M1716.760255,601.834441l0.017742,-0.266127l-0.065053,-0.198116l0.005914,-0.16559l0.065053,-0.30161l0.100537,-0.144891l0.011828,-0.076881l-0.014785,-0.070967l-0.322309,-0.384405l-0.100537,-0.085752l-0.130106,-0.059139l-0.109408,-0.13602l-0.056182,-0.156719v-0.183332l0.026613,-0.091666v-0.103494l-0.038441,-0.070967l-0.141934,-0.112365l-0.038441,-0.073924l-0.008871,-0.059139l-0.038441,-0.070967l-0.180375,-0.215858l-0.038441,-0.076881l0.002957,-0.062096l-0.035484,-0.079838l-0.073924,-0.026613l-0.044354,-0.076881l-0.011828,-0.316395l-0.050268,-0.094623l-0.177418,-0.106451l-0.147848,-0.02957l-0.115322,0.005914l-0.277954,0.177418l-0.073924,0.130106l0.002957,0.177418l0.065053,0.138977l0.06801,0.06801l0.070967,0.008871l0.070967,0.041397l0.041397,0.106451l0.011828,0.206987l-0.035484,0.082795l-0.062096,0.035484l-0.062096,-0.011828l-0.103494,0.059139l-0.041397,0.065053l0.017742,0.047311l0.115322,0.017742l0.201073,0.141934l0.103494,0.144891l0.091666,0.085752l0.050268,0.002957l0.005914,-0.020699h0.053225l0.212901,0.070967l0.041397,0.079838l0.005914,0.16559l-0.017742,0.065053l0.008871,0.168547l0.044354,0.138977l0.02957,0.425803l0.032527,0.144891l0.020699,0.337094l-0.017742,0.109408l-0.035484,0.307524l-0.153762,0.372577l-0.189246,0.277954l-0.032527,0.094623l0.002957,0.416932l-0.050268,0.206987l-0.100537,0.201073l-0.008871,0.112365l0.147848,0.242471l0.041397,0.023656l0.118279,0.020699l0.295696,-0.056182l0.088709,-0.044354l0.121235,-0.189246l0.150805,-0.147848l0.094623,-0.044354l0.156719,-0.144891l0.106451,-0.201073l0.026613,-0.159676l0.171504,-0.461286l0.082795,-0.348922Z  M1704.438164,573.357374l-0.021,0.023l-0.035,0.007l-0.018,0.028l-0.087,0.018l-0.047,-0.003l-0.071,-0.075l-0.108,-0.049l-0.003,-0.039l0.032,-0.018v-0.034l-0.025,-0.036l-0.002,-0.037l-0.041,-0.038l-0.004,-0.023l0.022,-0.021l0.009,-0.043l0.023,-0.002l0.03,0.016l0.034,-0.012l0.022,0.014l0.012,0.043l-0.03,0.041l0.002,0.037l0.023,0.009l0.029,-0.021l0.03,0.002l0.029,0.052l0.019,0.035l0.043,0.007l0.009,0.022l-0.02,0.02l0.011,0.017l0.077,-0.001l0.032,-0.027l0.023,0.006l0.011,0.035l-0.01,0.047z M1726.114556,610.282901l0.003,-0.064l0.047,-0.054l0.003,-0.054l-0.043,-0.096l-0.136,-0.118l-0.046,-0.104l-0.072,-0.057l-0.071,0.007l-0.054,-0.046l-0.003,-0.086l0.028,-0.09l-0.028,-0.068l-0.065,-0.01l-0.057,0.025l-0.053,-0.018l0.003,-0.086l0.039,-0.118l0.065,-0.061l0.064,-0.01l0.032,-0.036l0.004,-0.054l0.093,-0.107l0.007,-0.054l-0.046,-0.05v-0.039l0.035,-0.025l-0.003,-0.161l-0.115,-0.179l0.011,-0.182l0.114,-0.139l0.083,-0.011l0.128,-0.068l0.043,-0.068l-0.007,-0.114l0.072,-0.118l0.014,-0.136l0.032,-0.05l0.104,0.003l0.082,0.058l0.132,0.003l0.025,-0.061l0.072,-0.075l0.007,-0.107l0.043,-0.082l0.086,-0.018l0.082,-0.054h0.086l0.107,0.115l0.068,0.111l0.121,0.096l0.022,0.15l-0.029,0.075v0.1l0.05,0.093l0.065,0.029l0.103,-0.007l0.061,0.028l0.022,0.058l0.042,0.003l0.051,-0.039h0.06l0.032,0.032h0.043l0.025,-0.046l0.004,-0.079l0.05,-0.093l0.075,0.003l0.036,0.061l0.057,0.011l0.082,-0.029l0.04,0.025v0.101l0.057,0.175l0.007,0.103l0.071,0.193l0.011,0.133l0.086,0.203l0.057,0.015l0.093,-0.032l0.025,-0.063l0.051,-0.083l0.115,-0.056l0.134,-0.016l0.065,-0.057v-0.072l-0.091,-0.118l-0.078,-0.247l-0.022,-0.257l-0.051,-0.142l-0.008,-0.092l-0.067,-0.155l-0.04,-0.206l0.016,-0.051v-0.065l-0.051,-0.161l-0.024,-0.372l-0.037,-0.124v-0.246l-0.049,-0.183v-0.08l0.027,-0.132l0.003,-0.072l-0.04,-0.078v-0.069l0.043,-0.116l0.002,-0.075l-0.024,-0.096l0.003,-0.07l0.045,-0.107l0.003,-0.07l-0.027,-0.054l-0.002,-0.139l0.021,-0.051l0.062,-0.008l0.002,-0.032l-0.043,-0.046l0.003,-0.11l0.027,-0.08l0.056,-0.011l0.035,-0.045l0.003,-0.081l-0.07,-0.247l-0.043,-0.048l-0.029,-0.091l0.005,-0.15l-0.029,-0.067v-0.057l-0.027,-0.016l-0.003,-0.032l0.043,-0.029v-0.051l-0.072,-0.134l-0.008,-0.116l-0.03,-0.045l0.005,-0.04l0.041,-0.032l0.008,-0.081l-0.054,-0.078l-0.021,-0.099l-0.094,-0.145l-0.014,-0.085l-0.069,-0.068l-0.003,-0.053l0.088,-0.064l0.081,0.005l0.024,0.032l-0.003,0.051l0.043,0.04l0.046,-0.005l0.029,-0.089l-0.008,-0.238l-0.045,-0.016l-0.006,-0.252l-0.045,-0.081v-0.083l0.027,-0.043l0.008,-0.126l-0.07,-0.147l0.005,-0.185l-0.027,-0.145l-0.04,-0.089l0.006,-0.128l-0.132,-0.394l-0.005,-0.169l-0.048,-0.223l-0.006,-0.177l0.024,-0.064l0.003,-0.099l-0.062,-0.1l-0.016,-0.107l-0.077,-0.118l-0.006,-0.045l0.081,-0.073l0.002,-0.102l-0.048,-0.246l-0.035,-0.054v-0.075l0.019,-0.081v-0.104l-0.038,-0.035l-0.045,-0.236l0.024,-0.062v-0.043l-0.091,-0.128l-0.099,-0.059l-0.076,0.002l-0.016,-0.021l0.025,-0.038l-0.07,-0.343l-0.07,-0.08l-0.005,-0.059l0.018,-0.059l0.003,-0.177l-0.04,-0.027l-0.008,-0.029l0.035,-0.033l0.002,-0.026l-0.053,-0.035l-0.008,-0.102l-0.027,-0.008l-0.046,0.04l-0.037,-0.003l-0.07,-0.102l-0.003,-0.072l-0.018,-0.021l-0.083,0.005l-0.041,0.019l-0.018,-0.016l0.024,-0.051l-0.035,-0.035l-0.118,-0.032l-0.022,-0.035l0.03,-0.062l0.003,-0.029l-0.033,-0.032l0.006,-0.1l0.043,-0.08l0.008,-0.15l-0.027,-0.067l0.029,-0.156l0.049,-0.078l0.008,-0.077l-0.049,-0.073v-0.067l-0.088,-0.107l-0.072,-0.035l-0.011,-0.048l0.056,-0.115l-0.003,-0.049l-0.04,-0.032l-0.005,-0.083l0.027,-0.054l0.008,-0.053l-0.054,-0.107l0.016,-0.038v-0.027l-0.043,-0.027l-0.008,-0.279l-0.032,-0.029v-0.024h0.362l0.011,-0.043l-0.032,-0.078l-0.049,-0.021l-0.01,-0.038l0.024,-0.043l-0.019,-0.075l-0.048,-0.035l-0.006,-0.04l0.019,-0.11l-0.051,-0.075l-0.051,-0.013l-0.032,-0.04l0.094,-0.175l-0.013,-0.091l-0.049,-0.043l-0.045,0.006l-0.027,-0.022l0.016,-0.054l-0.038,-0.064l-0.002,-0.137l-0.046,-0.059v-0.085l-0.032,-0.041h-0.04l-0.038,-0.029l-0.019,-0.056l0.008,-0.07l-0.005,-0.073l-0.075,-0.024l-0.003,-0.024l0.046,-0.027l0.005,-0.032l-0.04,-0.032l-0.013,-0.284l-0.054,-0.054l-0.003,-0.029l0.022,-0.108l-0.024,-0.048l-0.022,-0.185l-0.067,-0.032l-0.037,-0.051l0.002,-0.11l0.041,-0.027l0.008,-0.032l-0.062,-0.037l-0.04,0.005l-0.022,-0.019l0.014,-0.04l-0.038,-0.043v-0.032l0.099,-0.209l0.008,-0.156l-0.051,-0.072l-0.013,-0.054l-0.021,-0.019l-0.033,0.003l-0.056,-0.037l-0.131,0.01l-0.051,0.049l-0.006,0.051l0.027,0.061v0.054l-0.04,0.059l-0.011,0.123l-0.077,0.089l-0.054,0.002l-0.038,-0.056l0.006,-0.097l0.027,-0.053l0.005,-0.043l-0.056,-0.086l-0.116,-0.056l-0.048,0.008l-0.024,-0.011l-0.003,-0.048l-0.029,-0.067l0.024,-0.056l-0.016,-0.035l-0.067,-0.006l-0.073,0.022l-0.056,0.037l-0.021,0.067l-0.084,0.092l-0.016,0.075l-0.024,0.032l-0.056,0.019l-0.067,0.08l-0.043,0.016l-0.048,-0.013l-0.038,0.013l-0.027,0.062l0.003,0.102l-0.029,0.04l-0.086,0.011l-0.121,-0.025l-0.118,-0.072l-0.059,-0.005l-0.061,-0.032l-0.057,-0.068l-0.07,-0.297l-0.048,-0.083l-0.035,-0.016l-0.04,0.018l-0.024,-0.005l-0.008,-0.029l-0.038,-0.003l-0.061,0.102v0.099l0.043,0.064l-0.003,0.024h-0.102l-0.032,0.057l0.027,0.08l0.002,0.091l0.043,0.086l0.003,0.054l-0.029,0.04l0.005,0.043l0.059,0.107l0.008,0.126l0.032,0.118l0.005,0.164l0.025,0.104l0.002,0.046l-0.029,0.04l0.002,0.043l0.076,0.091l0.005,0.193l-0.027,0.024l-0.046,-0.013l-0.042,0.029l-0.033,0.065l-0.053,0.005l-0.027,0.032l0.032,0.142l-0.021,0.038l-0.083,-0.005l-0.065,-0.038h-0.131l-0.115,0.083l-0.046,0.078l-0.091,0.064l-0.078,0.011l-0.048,0.046l-0.038,0.19l-0.043,0.048l-0.018,0.065l-0.027,0.016h-0.038l-0.088,0.077l-0.024,0.059l-0.07,0.062l-0.121,0.078l-0.067,0.088l-0.013,0.126l0.021,0.062l0.073,0.035l0.035,0.056l0.013,0.161l0.048,0.097l0.003,0.171l0.037,0.035l0.011,0.091l0.048,0.043l0.019,0.164l0.043,0.048l0.005,0.037l-0.024,0.049l0.014,0.104l0.035,0.046l-0.003,0.086l0.019,0.029l0.045,-0.003l0.046,0.03l-0.006,0.035l-0.069,0.027l-0.089,0.142l-0.069,0.005l-0.062,-0.043l-0.078,0.003l-0.013,0.043l0.045,0.107l0.006,0.078l-0.022,0.053l-0.027,0.003l-0.013,-0.062l-0.03,0.003l-0.093,0.097l-0.051,0.099l-0.03,0.029l-0.064,0.014l-0.048,0.043l-0.019,0.056l-0.081,0.035l-0.053,-0.016l-0.057,0.005l-0.08,0.054l-0.18,0.008l-0.048,-0.024l-0.032,0.016l-0.022,0.11l-0.026,0.026l-0.043,-0.01l-0.027,0.016l-0.016,0.12l-0.051,-0.002l-0.062,-0.113l0.008,-0.064l-0.04,-0.046h-0.083l-0.054,0.04l-0.048,0.006l-0.102,-0.094v-0.067l-0.019,-0.032l-0.053,-0.008l-0.024,-0.027l0.021,-0.118l-0.043,-0.016l-0.002,-0.024l0.061,-0.086l-0.008,-0.027l-0.088,0.005l-0.022,-0.024l0.022,-0.069l-0.016,-0.024l-0.051,-0.006l-0.006,-0.024l0.019,-0.024l0.051,-0.003l0.008,-0.035l-0.056,-0.069v-0.041l0.029,-0.032l-0.008,-0.032l-0.067,-0.011l-0.011,-0.018l0.025,-0.035l-0.011,-0.03l-0.046,-0.008l-0.01,-0.024l0.048,-0.035l-0.016,-0.061l-0.062,-0.027l-0.008,-0.032l0.067,-0.057l-0.019,-0.019l-0.067,0.014l-0.032,-0.024v-0.027l0.051,-0.027l-0.005,-0.019l-0.075,-0.005l-0.011,-0.038l0.035,-0.059l-0.003,-0.026l-0.03,-0.008v-0.027l0.092,-0.024l-0.003,-0.035l-0.054,-0.03h-0.091l-0.067,-0.027l0.003,-0.024l0.064,-0.029l-0.005,-0.043l-0.046,-0.078l-0.037,-0.002l-0.043,0.032l-0.054,0.005l-0.027,-0.024l0.003,-0.027l0.03,-0.027l0.08,-0.016v-0.048l-0.062,-0.043l-0.077,-0.011l-0.022,-0.032l0.056,-0.088l-0.008,-0.03l-0.107,-0.008l-0.07,0.032l-0.048,-0.005l-0.011,-0.046l0.019,-0.04v-0.032l-0.037,-0.046l-0.024,0.019l-0.009,0.166h-0.018l-0.024,-0.04l-0.038,-0.008l-0.005,0.032l0.053,0.062l-0.005,0.029h-0.054l-0.01,0.022l0.026,0.056l-0.005,0.035l-0.056,0.043l-0.032,0.113l0.018,0.042l-0.037,0.097l-0.003,0.072l0.027,0.051l-0.003,0.113l0.073,0.153l0.01,0.083l0.041,0.051l0.008,0.035l-0.019,0.051l0.037,0.102l0.054,0.034l0.005,0.035l-0.045,0.067l0.005,0.022h0.038l0.008,0.021l-0.065,0.027h-0.099l-0.118,-0.067l-0.126,-0.172l-0.003,-0.08l-0.018,-0.051l-0.062,-0.078l-0.021,-0.161l-0.03,-0.051l-0.048,-0.053v-0.528l-0.024,-0.043l0.008,-0.03l0.032,-0.021v-0.035l-0.051,-0.027l-0.035,-0.118l0.024,-0.043l-0.005,-0.024l-0.081,-0.021l-0.008,-0.054l0.03,-0.032l0.048,0.008l0.014,-0.027l-0.049,-0.072l-0.059,-0.008l-0.051,-0.03l-0.005,-0.054l0.054,-0.107l0.056,-0.008l0.043,-0.032l0.035,-0.088l-0.024,-0.011l-0.151,0.07l-0.013,-0.017l0.027,-0.037l-0.003,-0.024l-0.048,-0.016l-0.005,-0.038l0.05,-0.021l-0.005,-0.027l-0.07,-0.005l-0.024,-0.022l-0.01,-0.196l-0.025,-0.056l-0.056,-0.038l-0.003,-0.026l0.03,-0.022l-0.003,-0.029l-0.075,-0.054l-0.032,-0.094l-0.019,-0.222l-0.024,-0.019h-0.045l-0.022,-0.019l0.005,-0.056l-0.024,-0.022l-0.069,0.017l-0.027,-0.019l0.019,-0.067l-0.019,-0.024l-0.075,-0.008l-0.027,-0.046l0.051,-0.164l-0.024,-0.024l-0.073,0.008l-0.024,-0.016l0.008,-0.104l-0.11,-0.126l-0.002,-0.046l-0.03,-0.027h-0.054l-0.026,-0.027l-0.006,-0.088l0.006,-0.282l-0.035,-0.123l0.016,-0.011l0.094,0.086l0.035,-0.011l0.088,0.041l0.016,0.045l0.043,0.006l0.04,-0.03v-0.029l-0.024,-0.016l0.008,-0.148l0.035,-0.046v-0.024l-0.067,-0.026l-0.064,-0.003l-0.196,0.021l-0.038,-0.013l-0.018,-0.099v-0.078l0.037,-0.156l0.065,-0.069l0.3,0.005l0.045,0.064l0.025,0.003l0.056,-0.182l-0.008,-0.215l0.048,-0.171l0.115,-0.1l0.003,-0.045l-0.155,-0.325l0.005,-0.08l0.088,-0.059l0.016,-0.051l-0.026,-0.051l-0.049,-0.024l0.003,-0.024l0.236,0.027l0.03,-0.019l-0.011,-0.07l-0.059,-0.045l-0.003,-0.043l0.113,-0.215h0.027l0.018,0.067l0.057,-0.013l0.032,-0.083l-0.003,-0.081l0.022,-0.013l0.061,0.027h0.094l0.083,0.075l0.07,0.002l0.04,-0.024h0.04l0.065,0.065l0.035,-0.011l-0.033,-0.142l0.006,-0.07l0.11,-0.139l0.024,-0.14l-0.115,-0.22l-0.019,-0.174l0.027,-0.032l0.126,-0.005l0.064,-0.046l0.056,0.003l0.091,0.075l0.129,0.037l0.145,-0.002l0.134,0.032l0.088,0.064l0.22,0.056l0.252,0.011l0.049,0.016l0.048,-0.002l0.021,-0.049l-0.016,-0.048l0.014,-0.056l0.034,-0.003l0.059,0.021h0.065l0.096,-0.04l0.051,-0.061l0.008,-0.075l-0.035,-0.102l0.003,-0.065l0.056,-0.086l0.003,-0.171h0.03l0.024,0.024h0.021l0.022,-0.075l-0.008,-0.059l-0.059,-0.091l0.002,-0.075l0.043,-0.062l0.059,-0.048l0.027,0.019l-0.019,0.131l0.086,0.134l0.003,0.107l0.053,0.108l0.041,0.016l0.026,-0.022l0.038,0.011l0.008,0.051l0.035,0.019l0.08,0.005l0.118,0.07l0.142,-0.006l-0.115,-0.734l0.365,0.179l0.15,0.059l0.091,-0.024l0.032,-0.056l0.057,0.005l0.024,0.089l-0.046,0.064l-0.008,0.062l0.153,0.115l0.053,0.067l0.041,0.158l0.053,0.043l0.083,-0.011l0.07,-0.099l0.008,-0.091l-0.013,-0.035l0.182,-0.625l0.005,-0.08l-0.139,-0.416l0.008,-0.048l0.126,-0.04l0.078,-0.078l0.053,-0.003l0.051,0.033l0.035,0.126l0.046,0.059l0.088,0.021l0.041,-0.027l-0.008,-0.086l-0.105,-0.12l0.008,-0.051l-0.016,-0.048l-0.054,-0.027l-0.032,-0.059l0.022,-0.022l0.067,0.033h0.048l0.032,-0.1h0.046l0.04,0.062l0.032,0.016l0.046,-0.021l0.04,0.005l0.048,0.038l0.091,0.021l0.236,-0.005l0.062,0.026l0.043,-0.002l0.035,-0.046l0.077,-0.008l0.059,-0.037l0.011,-0.057l0.064,-0.072l0.006,-0.051l-0.03,-0.046l-0.002,-0.053l0.024,-0.035h0.027l0.032,0.029h0.029l0.019,-0.024l0.035,0.003l0.037,0.032l0.03,-0.016l0.005,-0.099l-0.099,-0.341v-0.11l0.024,-0.155l0.043,-0.062l0.046,0.003l0.037,0.043l0.078,0.019l0.067,0.075l0.054,0.043l0.056,-0.009l0.096,-0.152l0.046,-0.475l0.062,-0.131l0.029,-0.212l-0.011,-0.067l0.046,-0.097l0.005,-0.059l0.038,-0.094l0.048,-0.032l0.174,-0.268l-0.005,-0.048l-0.083,-0.046l0.003,-0.035l0.064,-0.045l0.005,-0.027l-0.029,-0.059v-0.102l-0.027,-0.067l-0.048,-0.037l-0.016,-0.049l0.016,-0.061l-0.019,-0.089l-0.048,-0.029l-0.089,0.008l-0.024,-0.03l0.03,-0.021v-0.032l-0.078,-0.043l-0.046,-0.11l0.019,-0.043l0.059,-0.03l-0.003,-0.08l-0.072,-0.08l0.005,-0.051l0.094,-0.043l0.14,0.013l0.083,-0.013l0.061,-0.049h0.049l0.035,0.035l0.008,0.057l0.04,0.037l0.072,0.011l0.097,0.118h0.021l0.024,-0.03l0.003,-0.061l0.03,-0.006l0.085,0.126l0.067,0.006l0.022,0.035l-0.011,0.04l0.089,0.088l0.083,0.006l0.024,-0.051l0.048,-0.003l0.043,0.019l0.115,-0.014l0.065,-0.104l0.093,-0.006l0.076,0.025h0.037l0.022,-0.027l0.056,-0.006l0.027,-0.037l0.005,-0.113l0.021,-0.031l0.001,-0.043l-0.026,-0.039l0.008,-0.043l-0.01,-0.029l-0.043,-0.018l-0.006,-0.05l0.031,-0.098l-0.016,-0.03l-0.041,0.01l-0.047,0.04l-0.15,0.01l-0.016,-0.019l0.025,-0.074l0.059,-0.009l0.046,-0.034l0.004,-0.041l-0.048,-0.032l-0.052,-0.003l-0.063,0.028l-0.139,-0.002l-0.027,-0.032l0.02,-0.107l-0.034,-0.045l-0.002,-0.034l0.05,-0.118l0.007,-0.087l-0.03,-0.025l-0.093,-0.007l-0.086,-0.054l-0.07,-0.025l-0.096,-0.007l-0.022,-0.034l-0.028,-0.016l-0.124,-0.007l-0.008,-0.013l0.044,-0.061l0.004,-0.05l-0.013,-0.036l-0.093,-0.04l-0.055,0.006l-0.049,0.052l-0.066,0.002l-0.314,-0.091l-0.165,-0.087h-0.027l-0.026,0.014l-0.027,-0.021l-0.003,-0.039l-0.094,-0.052l-0.007,-0.035l0.014,-0.01l0.032,0.013l0.035,0.009l0.025,-0.007l0.008,-0.019l-0.055,-0.006l-0.13,-0.058l-0.006,-0.033l-0.032,-0.032l-0.018,0.006l0.013,0.062l-0.052,0.036l-0.023,-0.011l0.002,-0.023l-0.022,-0.016h-0.071l-0.024,-0.02l0.015,-0.037l-0.009,-0.011l-0.052,0.02l-0.038,-0.004l-0.084,-0.054l-0.001,-0.057l0.024,-0.019v-0.021l-0.362,-0.173l-0.043,0.004l-0.03,-0.007l-0.017,-0.035l-0.118,-0.03l-0.08,0.011l-0.059,0.046h-0.038l-0.04,-0.016h-0.104l-0.175,0.104l-0.045,-0.002l-0.019,-0.033l-0.04,-0.018l-0.177,-0.011l-0.091,-0.03h-0.089l-0.15,0.027l-0.024,0.027l-0.027,0.003l-0.021,-0.024l-0.043,0.002l-0.07,0.027l-0.067,0.003l-0.096,-0.024l-0.073,0.002l-0.137,0.062l-0.203,0.019l-0.089,-0.022l-0.029,-0.045h-0.043l-0.019,0.045l0.029,0.049v0.061l-0.04,0.062h-0.032l-0.027,-0.035l-0.123,-0.04l-0.04,-0.038l-0.03,0.006l-0.021,0.059l-0.075,0.094l-0.062,0.016l-0.048,-0.014l-0.043,0.003l-0.024,0.04l-0.065,0.008l-0.072,0.043h-0.064l-0.057,-0.032l-0.035,-0.105l-0.067,-0.013l-0.037,0.032l-0.022,-0.003l-0.005,-0.115l0.03,-0.067l0.059,-0.035l0.005,-0.021l-0.032,-0.011l-0.204,0.021l-0.035,0.041l0.008,0.032l-0.021,0.019l-0.035,-0.003l-0.04,0.019l-0.025,0.056l-0.099,0.027l-0.091,0.011l-0.11,-0.017l-0.059,0.014l-0.021,0.045l-0.161,0.033l-0.04,-0.003l-0.011,-0.021l0.008,-0.073l-0.032,-0.019l-0.166,-0.01l-0.094,-0.051l-0.038,-0.065l-0.024,-0.005l-0.035,0.024h-0.064l-0.097,-0.027l-0.094,-0.01l-0.034,-0.035l-0.03,-0.006l-0.054,0.019l-0.16,-0.011l-0.067,-0.045l-0.065,-0.019h-0.142l-0.011,-0.021l0.025,-0.027l-0.011,-0.032l-0.126,-0.067h-0.04l-0.073,0.053l-0.078,0.003l-0.155,-0.022l-0.14,0.003l-0.289,0.035h-0.217l-0.29,-0.013l-0.037,0.01l-0.033,0.027l-0.088,0.005l-0.097,0.038l-0.115,0.003l-0.314,0.091l-0.144,0.011l-0.108,0.045l-0.182,0.016l-0.072,-0.024l-0.116,0.003l-0.099,0.045l-0.129,0.006l-0.171,-0.032l-0.094,-0.035l-0.048,-0.07l-0.107,-0.056l-0.041,-0.003l-0.072,0.051l-0.046,0.059l-0.061,0.021l-0.051,-0.013l-0.024,0.011l0.002,0.051l-0.024,0.024l-0.04,-0.008l-0.019,-0.04l-0.056,-0.025l-0.056,0.008l-0.065,0.049l-0.035,-0.003l-0.056,-0.035l-0.016,-0.051l-0.039,-0.012l-0.05,0.032l-0.025,-0.007v-0.086l-0.035,-0.05l-0.054,-0.004l-0.089,0.098l-0.116,0.005l-0.068,-0.028l-0.13,0.009l-0.09,0.034l-0.118,0.004l-0.086,-0.039l-0.29,0.025l-0.114,0.082l-0.222,0.068l-0.046,0.05l-0.057,0.01l-0.126,-0.032l-0.064,-0.057l-0.082,-0.036l-0.122,-0.014l-0.096,-0.025l-0.183,-0.164l-0.064,-0.015l-0.075,0.025l-0.079,-0.003l-0.382,-0.1l-0.182,-0.015l-0.165,-0.039l-0.096,-0.057l-0.075,-0.022h-0.254l-0.118,-0.032l-0.254,-0.129l-0.061,-0.064l-0.075,-0.046l-0.136,-0.022l-0.125,-0.086l-0.075,-0.028h-0.1l-0.047,-0.032l-0.017,-0.09l-0.068,-0.036h-0.058l-0.046,0.054l-0.025,-0.003l-0.014,-0.061h-0.022l-0.028,0.021h-0.051l-0.121,-0.053l-0.072,0.01l-0.089,0.122l-0.068,0.028l-0.146,-0.01l-0.143,-0.054l-0.008,-0.036l0.054,-0.057l-0.004,-0.075l-0.103,-0.214l-0.025,-0.19l0.003,-0.096l0.086,-0.358l0.093,-0.154l0.014,-0.075l-0.016,-0.175l0.043,-0.1l0.016,-0.127l-0.03,-0.062l0.009,-0.054l0.068,-0.077l0.01,-0.088l0.034,-0.06l0.011,-0.14l0.052,-0.145l-0.007,-0.116l-0.073,-0.231l-0.056,-0.057l-0.037,-0.101l-0.054,-0.057l-0.011,-0.056l0.024,-0.064l-0.032,-0.038l-0.053,-0.003l-0.043,-0.053l-0.024,-0.094l0.005,-0.054l0.078,-0.083l0.002,-0.061l-0.091,-0.317l-0.048,-0.019l-0.011,-0.037l0.097,-0.134l0.019,-0.075l-0.009,-0.175l0.306,-0.378l0.043,-0.126l-0.016,-0.026l-0.062,0.002l-0.169,0.046l-0.059,-0.014l-0.083,-0.037v-0.048l0.054,-0.006l0.062,0.038l0.021,-0.016l-0.054,-0.105l0.025,-0.021l0.104,0.005l0.089,-0.04l-0.008,-0.046l-0.11,-0.053l-0.041,-0.033l-0.013,-0.061l-0.048,-0.046l-0.035,0.003l-0.014,0.056l0.027,0.107l-0.037,0.008l-0.083,-0.037v-0.048l0.029,-0.059l-0.011,-0.065l-0.035,-0.024v-0.037l0.017,-0.046l-0.049,-0.105h-0.032l-0.045,0.126l-0.049,0.051l-0.015,-0.014l0.052,-0.102l0.007,-0.039l-0.021,-0.013l-0.036,0.032l-0.081,0.011l-0.007,-0.023l0.069,-0.069l-0.005,-0.043l0.024,-0.024h0.045l0.005,-0.03l-0.025,-0.1l0.01,-0.063l-0.027,-0.016l-0.03,0.019l-0.024,-0.016l0.024,-0.091l-0.037,-0.043l-0.079,0.004l-0.068,-0.016l-0.019,-0.039l0.068,-0.079l0.001,-0.032l-0.026,-0.055l-0.054,-0.04l-0.027,-0.071l-0.043,-0.018l-0.116,-0.002l-0.03,-0.02l-0.022,-0.059l-0.021,-0.005l-0.029,0.045l-0.003,0.046l-0.031,0.022l-0.03,-0.002l-0.047,-0.041l-0.062,-0.027l-0.007,-0.023l0.023,-0.034l0.07,-0.013v-0.023l-0.067,-0.054l-0.019,-0.055l0.009,-0.041l-0.011,-0.014l-0.055,0.003l-0.011,-0.032l0.009,-0.032l0.052,0.002l0.009,-0.017l-0.033,-0.05l0.004,-0.037l0.036,-0.009l0.001,-0.043l-0.032,-0.054h-0.026l-0.02,0.04l-0.007,0.06l-0.04,0.026l-0.073,-0.006l-0.121,-0.066l-0.017,0.016l0.008,0.066l-0.02,0.031l0.002,0.017l0.027,0.013l0.014,0.023l0.003,0.043l0.056,0.054l-0.009,0.027l-0.043,0.005l-0.064,-0.05l-0.018,0.016l0.002,0.05l0.069,0.041l0.04,-0.025l0.064,0.018l0.021,0.039l-0.059,0.065h-0.046l-0.047,-0.036l-0.003,-0.036l-0.034,-0.016l-0.023,0.03l-0.018,-0.003l-0.006,-0.025l-0.06,-0.005l-0.018,0.026l0.014,0.041l-0.012,0.056l0.005,0.036l-0.02,0.014l-0.05,-0.038l-0.052,0.006l-0.005,0.021l0.029,0.031l0.009,0.119l0.05,0.056l-0.013,0.037l0.009,0.022l0.018,-0.015l0.016,-0.039l0.021,-0.002l0.031,0.025l0.034,-0.005l0.014,-0.03l0.02,0.016l0.003,0.048l-0.078,0.079l-0.065,0.003l-0.026,-0.036l-0.031,0.016l-0.011,0.068l0.043,0.059l0.04,-0.003l0.048,-0.066l0.039,-0.013l0.018,-0.025h0.034l0.039,0.052l0.004,0.072l-0.014,0.039l0.005,0.034l0.095,0.093l-0.013,0.023l-0.053,0.002l-0.033,-0.011l-0.041,0.005l-0.032,0.042l-0.028,-0.004l-0.074,-0.045l-0.016,0.016l0.018,0.027l0.027,0.013l-0.004,0.026l-0.06,0.047l-0.052,0.004l-0.011,0.014l0.009,0.027l-0.014,0.012h-0.042l-0.019,0.036l-0.006,0.048l-0.019,0.014v0.045l0.014,0.018l-0.002,0.03l-0.019,0.02l0.001,0.023l0.045,0.043l0.002,0.031l-0.02,0.023v0.023l0.022,0.036l-0.006,0.025l-0.052,-0.009l-0.014,0.014l0.014,0.032l-0.008,0.027l-0.033,0.002l-0.021,-0.054l-0.022,-0.001l-0.035,0.06l-0.04,0.009l-0.071,-0.021l-0.016,-0.032l0.012,-0.04l-0.01,-0.025l-0.029,-0.018l0.004,-0.034l0.055,-0.033l0.005,-0.036l-0.028,-0.027l-0.047,0.009l-0.098,-0.03l-0.038,0.003l-0.037,0.034h-0.045l-0.046,-0.023l-0.036,0.003l-0.07,0.056l-0.103,-0.006l-0.077,-0.05l-0.07,-0.032l-0.064,-0.007l-0.029,-0.029l0.004,-0.05l0.03,-0.051l-0.002,-0.045l-0.039,-0.075l-0.023,-0.004l-0.024,0.029l-0.05,0.002l-0.023,0.021l-0.011,0.054l-0.019,0.03l-0.063,0.029l-0.014,0.026l0.023,0.045l-0.005,0.043l-0.031,0.011l-0.068,-0.031l-0.059,-0.001l-0.066,0.025l-0.046,-0.011l-0.1,-0.075l-0.013,-0.043l-0.066,-0.048l-0.007,-0.029l-0.027,-0.012l-0.036,-0.008l-0.073,-0.053l-0.054,-0.007l-0.121,-0.004l-0.011,-0.018l0.036,-0.048v-0.054l-0.025,-0.009l-0.027,0.036l-0.046,0.005l-0.077,-0.033v-0.07l0.066,-0.081l0.005,-0.035l-0.027,-0.013l-0.044,0.014l-0.023,-0.012l-0.009,-0.056l-0.065,-0.051v-0.025l-0.021,-0.011l-0.027,0.002l-0.016,-0.013v-0.032l-0.034,-0.029l-0.104,-0.007l-0.03,-0.023l-0.041,-0.002l-0.029,0.022l-0.043,-0.002l-0.073,-0.038l-0.041,-0.003l-0.02,0.01l-0.032,-0.007l-0.032,-0.055l-0.034,-0.011l-0.034,-0.098l0.007,-0.034l0.034,-0.014l0.007,-0.025l-0.046,-0.04h-0.04l-0.044,-0.059l-0.007,-0.071l0.021,-0.075l0.054,-0.054l0.001,-0.032l-0.034,-0.045l-0.006,-0.128l-0.064,-0.052l-0.008,-0.037l-0.055,-0.031v-0.026l0.018,-0.032l-0.006,-0.029l-0.107,-0.067l-0.034,-0.038l-0.002,-0.029l0.035,-0.045l-0.006,-0.057l-0.039,-0.04v-0.027l0.018,-0.041l0.018,0.001l0.014,0.057l0.05,0.037l0.032,0.09l0.018,0.005l0.019,-0.047l0.027,-0.034l0.004,-0.051l0.026,-0.027l0.014,-0.05l-0.017,-0.026l-0.049,-0.015h-0.033l-0.028,0.022h-0.028l-0.032,-0.039h-0.048l-0.017,-0.016l-0.02,0.001l-0.025,0.04l-0.032,0.009l-0.012,-0.023l0.069,-0.074l0.032,-0.014l0.002,-0.026l-0.047,-0.077l0.001,-0.024l0.023,-0.021l-0.003,-0.023l-0.062,-0.027l-0.037,-0.002l-0.01,-0.014l0.045,-0.009l0.013,-0.022l0.011,-0.116l0.03,-0.02l-0.004,-0.015l-0.066,0.008l-0.012,-0.013l0.02,-0.028l-0.012,-0.014l-0.021,0.001l-0.03,0.024h-0.02l-0.04,-0.034l-0.035,0.002l-0.022,0.025l-0.035,-0.003l-0.043,-0.028l-0.04,0.001l-0.034,0.026l-0.02,-0.006l-0.012,-0.06l-0.02,-0.01l-0.038,0.023l-0.021,-0.008l0.02,-0.047l-0.018,-0.015l-0.065,0.008l-0.02,-0.015l-0.002,-0.034l-0.015,-0.011l-0.044,-0.007l-0.007,0.011l0.018,0.028l-0.018,0.026l-0.02,-0.008l0.003,-0.025l-0.055,-0.031l-0.02,-0.064l-0.022,-0.016v-0.021l0.024,-0.03v-0.031l-0.031,-0.03l-0.065,-0.02l-0.017,-0.032l-0.035,-0.015l-0.019,0.007l0.003,0.023l0.039,0.02l-0.009,0.018h-0.031l-0.026,-0.013l-0.041,0.016l-0.01,0.036l0.005,0.031l0.026,0.02l-0.001,0.016l-0.032,0.028l-0.005,0.023l-0.019,0.011l-0.026,-0.004l-0.024,-0.034l-0.054,-0.003l-0.004,0.02l0.028,0.01l-0.003,0.015l-0.035,0.015l0.003,0.037l0.028,0.018l-0.005,0.023l-0.03,0.024l-0.114,0.003l-0.01,0.02l0.021,0.013l0.051,-0.003l0.015,0.026l-0.006,0.087l-0.047,0.042v0.012l0.055,0.014l-0.001,0.014l-0.04,0.026l-0.003,0.025l0.014,0.016l0.032,0.003l0.01,0.012l-0.013,0.025l0.009,0.009l0.034,-0.027l0.025,0.002l0.029,0.029l0.066,0.018l0.032,-0.011l0.009,-0.048l0.029,-0.004l0.028,0.032l-0.003,0.025l-0.036,0.024l-0.032,0.059l0.009,0.016l0.036,-0.002l0.003,0.019l-0.014,0.038l0.009,0.03l0.034,0.006l0.028,-0.048l-0.001,-0.065l0.035,-0.036h0.041l0.022,0.02l0.055,0.002l0.029,0.039l-0.009,0.022h-0.025l-0.013,0.019l0.015,0.027l0.041,-0.005l0.048,0.021l0.007,0.031l-0.009,0.03l-0.023,0.004l-0.004,0.016l0.017,0.041l-0.025,-0.002l-0.038,-0.027l-0.025,0.006l0.004,0.083l0.033,0.039l0.043,0.001l0.011,0.014l-0.009,0.041l0.018,0.011l0.025,-0.03l0.011,-0.063l0.023,-0.005l0.033,0.042v0.04l0.019,0.011l0.013,-0.017l0.005,-0.034l-0.014,-0.027l0.021,-0.044l0.022,-0.004l0.027,0.019l-0.004,0.042l-0.033,0.055v0.032l0.033,0.028l0.04,0.003l0.032,-0.017l0.02,0.011l-0.003,0.042l0.022,0.014l0.028,-0.017l0.01,-0.049l-0.028,-0.047l0.013,-0.028l0.069,0.003l0.023,0.024l-0.007,0.043l0.02,0.031l-0.001,0.017l-0.032,0.013l0.002,0.013l0.03,0.011l0.009,0.036v0.094l-0.018,0.008l-0.03,-0.023h-0.017l-0.014,0.025l-0.002,0.078l-0.015,0.009l-0.046,-0.025l-0.031,0.002l-0.013,0.013l-0.016,0.001l-0.023,-0.027h-0.014l-0.021,0.027h-0.113l-0.084,-0.013h-0.091l-0.114,0.034l-0.035,-0.001l-0.04,-0.026l-0.157,-0.263l-0.071,-0.047l-0.268,0.007l-0.097,0.087l-0.007,0.152l0.06,0.053l0.003,0.033l0.015,0.004l0.017,-0.01l0.017,0.004l0.002,0.037l-0.043,0.027l-0.095,0.002l-0.036,-0.016l-0.028,-0.001l-0.029,0.02l-0.027,-0.01l-0.007,-0.03l-0.034,-0.016l-0.037,-0.004l-0.01,-0.019l0.008,-0.041l-0.032,-0.031l-0.05,-0.012l-0.013,-0.031l0.011,-0.043l-0.001,-0.04l-0.027,-0.032l0.005,-0.033l0.045,-0.077l-0.002,-0.031l-0.144,-0.096l-0.032,-0.001l-0.074,0.048l-0.079,0.021l-0.037,-0.004l-0.044,-0.072l-0.043,-0.003l-0.05,0.071l-0.002,0.04l0.018,0.024l-0.011,0.011l-0.062,-0.02l-0.075,0.002l-0.01,0.017l0.011,0.026l-0.012,0.024l-0.1,0.004l-0.051,0.03l-0.036,0.001l-0.024,-0.008l-0.012,0.007l0.009,0.034l0.024,0.019l-0.003,0.018l-0.035,0.012l-0.016,0.034l-0.026,0.001l-0.03,-0.018l-0.044,0.01l-0.015,-0.01l0.034,-0.033l-0.003,-0.027l-0.027,-0.03l0.01,-0.137l0.024,-0.011l0.051,0.007l0.034,0.044v0.017l-0.017,0.014l0.003,0.018l0.024,0.002l0.133,-0.028l0.004,-0.016l-0.025,-0.018l-0.026,-0.003l-0.01,0.013l-0.027,-0.002l-0.056,-0.04l-0.011,-0.041l-0.026,-0.013l0.002,-0.024l0.013,-0.026l-0.003,-0.015l-0.039,-0.013l0.003,-0.027l0.088,-0.034l0.015,-0.032l0.02,-0.001l0.011,0.01l-0.004,0.017l-0.022,0.013l-0.003,0.04l0.026,0.028h0.037l0.049,-0.031h0.041l0.02,0.027l0.031,-0.001l0.054,-0.039l0.005,-0.021l0.03,-0.012l0.065,-0.005l0.019,-0.042l-0.02,-0.01l-0.057,0.023l-0.016,-0.011l0.061,-0.107v-0.02l-0.052,-0.037l-0.013,0.008l-0.007,0.026l-0.056,0.043l-0.071,0.003l-0.019,0.02l-0.014,0.037l-0.02,-0.002l-0.011,-0.04l-0.05,-0.021l-0.013,-0.037l0.019,-0.031l0.002,-0.037l-0.057,-0.055l-0.01,-0.069l-0.018,-0.017l-0.02,-0.002l-0.011,-0.021l0.018,-0.016l0.077,-0.003l0.051,-0.014v-0.017l-0.038,-0.003l-0.03,0.011l-0.024,-0.008l-0.003,-0.039l-0.024,-0.01l-0.046,0.008l-0.04,-0.019v-0.016l0.036,-0.02l0.047,0.002l0.015,-0.016l-0.014,-0.051l-0.025,-0.003l-0.036,0.029l-0.053,-0.002l-0.038,-0.024l0.001,-0.024l-0.025,-0.022l-0.07,0.002l-0.009,-0.013l0.027,-0.029l0.002,-0.031l-0.027,-0.018l-0.086,-0.003l-0.05,-0.027l-0.001,-0.025l0.014,-0.039l-0.014,-0.161l-0.036,-0.026l-0.179,-0.011l-0.009,0.014l0.013,0.048l-0.001,0.064l-0.022,0.023l-0.031,-0.001l-0.033,-0.036l-0.099,-0.007l-0.032,-0.038l-0.013,-0.07l-0.025,-0.016l-0.005,-0.033l0.019,-0.027l-0.007,-0.018h-0.047l-0.101,0.03l-0.037,-0.01l-0.029,-0.05v-0.04l-0.031,-0.03l0.001,-0.033l0.017,-0.025l-0.007,-0.019l-0.045,0.003l-0.03,-0.016l-0.02,-0.027l-0.033,-0.001l-0.065,0.031l-0.013,-0.023l0.004,-0.052l-0.019,-0.032l0.012,-0.022l-0.01,-0.015l-0.034,0.006l-0.005,-0.017l0.022,-0.037l-0.013,-0.02l-0.071,-0.006l-0.071,-0.028l-0.019,0.013l-0.021,0.051l-0.035,0.017l-0.022,-0.013l-0.015,-0.038l-0.021,-0.022l-0.056,-0.023l-0.076,-0.16l-0.029,-0.257l-0.003,-0.159l-0.025,-0.019l-0.057,0.017l-0.035,0.033l-0.018,0.05l-0.04,0.037l-0.003,0.033l0.037,0.032l-0.005,0.026l-0.103,0.038l-0.019,0.036l-0.004,0.057l-0.035,0.05l-0.002,0.048l0.014,0.034l-0.004,0.032l-0.09,0.1l-0.001,0.041l0.013,0.027l-0.007,0.044l-0.049,0.06l-0.015,0.081l-0.102,0.088l-0.008,0.035v0.069l0.02,0.027l0.024,0.002l0.014,0.017l-0.005,0.03l0.015,0.016h0.023l0.019,0.025l0.021,0.113l0.024,0.003l0.036,-0.04l0.007,-0.086l0.021,-0.027l-0.001,-0.031l-0.026,-0.046l0.006,-0.027l0.05,-0.027l0.028,0.003l0.02,0.03l0.05,0.007l0.02,0.021l0.03,0.003l0.065,-0.04l0.023,0.006l0.009,0.04l0.064,0.081h0.023l0.024,-0.038l0.053,0.001l0.029,0.041l0.161,0.006l0.154,0.034l0.002,0.024l-0.03,0.026l0.003,0.017l0.047,0.016l0.007,0.035l0.05,0.043v0.029l-0.023,0.02l0.001,0.014l0.039,0.018v0.019l-0.013,0.021l0.004,0.019l0.03,0.007v0.017l-0.021,0.031l0.022,0.036l0.023,0.006l0.023,-0.017l0.016,0.01l-0.005,0.035l-0.02,0.022l0.003,0.027l0.033,0.037l0.037,-0.002l0.004,0.014l-0.025,0.03l-0.003,0.054l0.024,0.02l0.026,-0.017l0.018,0.015l-0.013,0.037l-0.035,0.012l-0.003,0.02l0.033,0.01l-0.003,0.023l-0.067,0.067l-0.026,0.002l-0.011,-0.015l0.021,-0.05l-0.001,-0.027l-0.016,-0.018h-0.02l-0.021,0.034l-0.027,0.001l-0.016,-0.01l-0.033,0.006l-0.007,0.022l0.013,0.029l-0.017,0.015l-0.038,-0.006l-0.032,-0.046l-0.09,-0.014l-0.034,-0.035l0.007,-0.084l-0.02,0.001l-0.066,0.078l-0.038,0.084l-0.02,0.107l-0.023,0.017l-0.086,-0.014l-0.052,0.007l-0.043,0.041l0.002,0.029l0.063,0.038l-0.002,0.021l-0.027,0.021l-0.064,-0.005l-0.081,0.002l-0.075,0.066l-0.064,0.025l-0.061,0.106l-0.052,0.041l-0.014,0.186l0.007,0.046l0.057,0.041v0.022l-0.025,0.032l-0.025,0.084l-0.041,0.043l-0.066,-0.006l-0.045,0.022l-0.021,0.053l-0.036,0.027l-0.086,0.014l-0.034,0.031l-0.035,0.002l-0.034,-0.015l-0.045,0.006l-0.089,0.08l-0.12,0.006l-0.027,-0.013l-0.037,0.002l-0.056,0.052l-0.014,0.055l-0.066,0.039l-0.04,-0.009l-0.017,0.011l-0.009,0.043l-0.038,0.013l-0.05,-0.02l-0.02,0.012l-0.001,0.04l-0.02,0.01l-0.034,-0.005l-0.039,0.004l-0.025,0.044l-0.006,0.093l-0.023,0.032v0.018l0.023,0.013v0.016l-0.023,0.034l-0.004,0.034l-0.066,0.054l-0.028,0.069l0.001,0.027l0.029,0.032l-0.002,0.027l-0.032,0.025v0.016l0.02,0.006l0.028,-0.022l0.027,0.004l0.023,0.026l0.061,0.025l0.007,0.047l-0.01,0.036l-0.038,0.005l-0.007,0.023l0.02,0.047l-0.009,0.012l-0.036,-0.003l-0.011,0.032l0.029,0.021l-0.004,0.02l-0.019,0.016v0.02l0.082,0.034l-0.004,0.035l-0.114,0.04l-0.045,0.002l-0.027,-0.015h-0.027l-0.039,0.041l-0.027,0.004l-0.01,0.02l0.034,0.059l-0.015,0.028h-0.021l-0.016,-0.018l-0.023,0.002l-0.026,0.041l-0.007,0.099l-0.037,0.032l-0.004,0.028l0.02,0.025l-0.004,0.02l-0.044,0.018l-0.002,0.03l0.032,0.049l-0.004,0.034l-0.037,0.017l-0.018,0.024v0.032l-0.034,0.023l-0.073,0.005l-0.068,0.086l0.002,0.032l0.039,0.016v0.033l-0.014,0.032l0.003,0.062l0.057,0.036l0.008,0.034l-0.05,0.064l0.007,0.025l0.035,0.008l0.015,0.021l-0.004,0.036l0.018,0.011l0.02,-0.034h0.021l0.009,0.023l-0.002,0.05l0.015,0.023l-0.004,0.03l-0.068,0.034v0.022l0.032,0.016v0.021l-0.032,0.038v0.023l0.056,0.034l0.001,0.018l-0.023,0.023v0.016l0.073,0.013l0.002,0.021l-0.025,0.049l0.013,0.019l0.155,0.031l0.022,0.025l-0.011,0.048l0.03,0.029l0.004,0.03l0.032,0.004l0.064,-0.092h0.027l0.02,0.015h0.028l0.025,-0.031l0.013,-0.052l0.037,-0.023l0.031,0.002l0.048,0.043l0.034,0.048l0.041,0.009l0.022,-0.027l0.001,-0.039l0.038,-0.018l0.068,0.007l0.027,-0.016l0.003,-0.036l0.027,-0.026l0.027,0.001l0.02,0.02l0.026,-0.004l0.018,-0.042h0.066l0.047,0.026l0.023,0.04v0.08l-0.009,0.079l0.045,0.041l0.077,0.009l0.019,0.014l0.002,0.036l0.137,0.062l0.04,0.051l0.003,0.057l0.032,0.032l0.101,0.023l0.06,0.044l0.059,0.013l0.035,0.046l0.067,0.016l0.02,0.021l0.004,0.026l-0.03,0.029l0.003,0.054l0.034,0.021h0.038l0.051,0.029l0.013,0.042l0.025,0.013l0.032,-0.009l0.022,0.013v0.051l-0.009,0.022l0.021,0.02l0.281,0.03l0.043,0.03l0.01,0.229l-0.057,0.061l-0.012,0.034l0.005,0.037l0.02,0.031v0.023l-0.034,0.038l0.012,0.016l0.045,-0.018l0.041,0.005l0.05,0.081l0.048,0.016l0.15,-0.002l0.024,0.021l-0.041,0.142l0.037,0.039l0.02,0.046l0.032,0.024l0.023,0.003l0.02,-0.016l0.028,0.005l0.009,0.059l0.024,0.018l0.021,-0.01l0.007,-0.034l0.029,-0.011l0.018,0.018l-0.013,0.043l0.02,0.016l0.025,-0.016l0.014,0.009l-0.003,0.16l0.01,0.018h0.024l0.014,-0.064l0.034,-0.027l0.018,0.011l-0.007,0.034l0.023,0.012l0.218,0.038l0.043,-0.005l0.039,-0.061l0.036,-0.006l0.005,0.016l-0.023,0.033l0.007,0.012l0.034,0.006l0.047,0.053l0.048,0.02l0.064,-0.002l0.047,-0.009l0.032,0.016l0.005,0.023l-0.032,0.029v0.068l0.023,0.014l0.056,-0.021l0.035,0.009l0.008,0.025l0.035,0.016l0.131,-0.009l0.055,0.02l0.029,-0.004l0.012,-0.025l0.036,-0.02l0.016,-0.035l-0.009,-0.072l0.032,-0.039l0.168,-0.036l0.02,0.011l-0.003,0.084l0.014,0.007l0.032,-0.034l0.034,0.002l0.027,0.016h0.032l0.048,-0.041v-0.027l-0.046,-0.011l-0.038,-0.025v-0.021l0.025,-0.027l0.004,-0.034l-0.018,-0.03l0.011,-0.017l0.039,-0.001l0.073,0.068h0.031l0.071,-0.052l0.111,0.002l0.013,0.019l-0.002,0.025l-0.022,0.029l0.002,0.041l0.018,0.036l0.002,0.055l0.028,0.038l0.043,0.005l0.034,-0.014l0.027,0.003l0.045,0.116l0.001,0.118l-0.016,0.036l-0.059,0.045v0.03l0.045,0.075v0.045l-0.041,0.07l-0.052,0.005l-0.032,0.029l0.007,0.035l0.061,0.038l0.073,0.014l0.032,0.018v0.023l-0.019,0.043v0.138l0.03,0.045l0.063,0.009l0.026,0.025l-0.001,0.03l0.021,0.016l0.045,0.002l0.023,0.021l-0.005,0.056l0.103,0.112l0.025,-0.007l0.006,-0.05l0.024,-0.02l0.072,-0.003l0.024,0.032l0.007,0.075l0.048,0.064l0.055,0.011l0.027,-0.027l0.016,0.007v0.051l0.054,0.032l0.088,0.016l0.121,-0.008l0.072,-0.024l0.057,0.002l0.059,0.043l0.094,-0.002l0.01,0.034l-0.021,0.057l-0.011,0.131l-0.029,0.005l-0.07,-0.029l-0.056,0.003l-0.102,0.085l-0.073,0.027l-0.037,0.046l-0.014,0.059l0.008,0.075l0.057,0.118l-0.019,0.035l-0.07,0.01l-0.048,-0.016l-0.024,0.014l-0.014,0.059l0.017,0.035l0.056,0.01l0.019,0.024l-0.003,0.086l-0.022,0.027l-0.034,-0.003l-0.025,-0.032h-0.032l-0.037,0.049l-0.003,0.032l-0.032,0.01l-0.038,-0.016l-0.043,-0.072l-0.085,-0.03l-0.046,0.022l-0.054,0.005l-0.029,-0.035l0.003,-0.075l-0.022,-0.008l-0.029,0.03l-0.022,-0.014l-0.005,-0.032l-0.024,-0.021l-0.062,-0.024l-0.035,-0.054l-0.051,-0.003l-0.04,0.049l-0.013,0.056l-0.035,0.056l-0.038,0.008l-0.021,0.024l-0.006,0.065l-0.042,0.027l-0.078,-0.006l-0.14,-0.053l-0.021,-0.054l-0.024,-0.003l-0.038,0.027h-0.043l-0.035,0.03l-0.077,-0.027l-0.04,-0.038l0.002,-0.043l-0.037,-0.027l-0.065,-0.016l-0.059,-0.045l-0.171,-0.006l-0.054,0.065l-0.045,-0.003l-0.054,-0.024l-0.137,-0.011l-0.032,0.019l-0.051,-0.003l-0.048,-0.013l-0.04,0.005l-0.089,0.081l-0.048,-0.006l-0.024,0.014l-0.006,0.04l-0.059,0.054l-0.091,0.01l-0.051,-0.002l-0.011,-0.024l0.022,-0.03l-0.011,-0.043l-0.048,-0.029h-0.038l-0.045,0.034l-0.024,-0.005l0.005,-0.043l-0.037,-0.019l-0.159,-0.013l-0.045,-0.029l-0.024,-0.035l-0.105,-0.019l-0.035,0.021l-0.008,0.057l-0.048,0.043l-0.07,0.002l-0.083,-0.037l-0.016,0.01l0.027,0.049l0.002,0.126l0.092,0.118l0.002,0.126l-0.051,0.075l-0.048,0.021l-0.019,0.027v0.051l0.022,0.043l0.008,0.163l0.035,0.043v0.041l-0.089,0.134v0.069l0.094,0.059v0.03l-0.043,0.043l-0.059,0.134l-0.044,0.013l-0.021,-0.034l-0.018,0.007l-0.012,0.07l-0.027,0.022l-0.031,0.005l-0.018,0.027l0.013,0.082l0.03,0.038l-0.018,0.021l-0.048,-0.016l-0.034,0.005l-0.053,0.056l0.001,0.05l0.034,0.027l0.009,0.062l-0.041,0.039l-0.068,0.02l-0.055,-0.004l-0.066,-0.041l-0.015,-0.043l-0.019,-0.001l-0.032,0.071l-0.022,0.002l-0.027,-0.011l-0.052,0.023l-0.03,0.093l0.002,0.047l-0.018,0.023l-0.036,0.002l-0.019,0.029l0.016,0.048l0.034,0.014l0.012,0.018v0.016l0.023,0.016l0.025,-0.011l0.029,0.008l0.005,0.048l-0.087,0.148l-0.04,-0.002l-0.042,-0.034l-0.002,-0.046l-0.025,-0.002l-0.093,0.066l-0.029,-0.016l-0.012,-0.021l0.001,-0.025l0.025,-0.015l-0.005,-0.019l-0.032,-0.018h-0.036l-0.032,0.011l-0.046,-0.018l-0.002,-0.045h-0.025l-0.027,0.038l-0.016,0.075l-0.048,0.027l-0.017,-0.02l0.033,-0.14l-0.002,-0.119l-0.241,-0.31l-0.047,-0.016l-0.086,0.002l-0.098,0.057l-0.047,-0.005l-0.025,0.012l-0.012,0.036l-0.029,0.002l-0.016,-0.012l-0.028,0.001l-0.027,0.05h-0.029l-0.014,0.02v0.018l-0.021,0.014h-0.074l-0.028,0.023l0.009,0.101l0.059,0.042l0.035,0.034l0.009,0.041l0.041,0.02l0.038,0.034v0.029l-0.022,0.005l-0.026,-0.021h-0.025l-0.022,0.023l0.002,0.025l0.064,0.045v0.025l-0.025,0.017v0.018l0.049,0.047l0.046,0.003l0.002,0.018l-0.061,0.006l-0.014,0.023l0.005,0.034l-0.023,0.02l-0.052,-0.004l-0.011,-0.018l-0.028,0.004l-0.036,0.098l-0.036,0.011l-0.018,0.028l0.018,0.177l-0.012,0.016l-0.031,-0.009l-0.032,-0.101l-0.029,-0.002l-0.08,0.096l-0.02,0.068l0.006,0.091l-0.023,0.022l-0.052,-0.011l-0.045,0.009l-0.054,0.073l-0.046,0.002l-0.027,0.039l0.029,0.029l-0.004,0.034l-0.034,0.03l0.002,0.031l0.029,0.048l-0.002,0.039l-0.072,0.12l-0.112,0.086l-0.222,0.279l0.197,0.175l0.196,0.282l0.172,0.329l0.307,0.333l0.183,0.1l0.093,0.086l0.06,0.11l0.1,0.058l0.336,0.085l0.126,0.083l0.057,0.118l0.332,0.282l0.158,0.05h0.221l0.175,-0.068l0.133,0.011l0.457,0.257l0.125,0.018l0.369,0.122l0.053,0.075l0.054,0.018l0.082,-0.022l0.075,0.011l0.065,0.036l0.121,-0.004l0.1,-0.039l0.222,0.007l0.164,0.097l0.097,0.243v0.203l-0.05,0.408l0.021,0.079l0.054,0.057v0.082l-0.211,0.186l-0.064,0.003l-0.008,0.051l0.05,0.146l0.09,0.1l0.003,0.061l0.04,0.039l0.053,0.007l0.047,0.061l-0.011,0.043l-0.096,0.004l-0.015,0.035l0.075,0.04l0.011,0.05l-0.057,0.139l0.003,0.104h0.043l0.061,-0.079h0.072l0.046,0.029l0.036,0.118l-0.036,0.025l-0.132,-0.025l-0.039,0.039l-0.015,0.132l0.04,0.09l-0.004,0.082l-0.046,0.061l0.003,0.086l-0.036,0.021l-0.096,-0.028l-0.082,0.025l0.007,0.067l-0.032,0.033l-0.036,-0.015l-0.054,0.022l-0.057,0.093l-0.039,0.01l-0.025,0.033l-0.011,0.057l-0.104,0.025l-0.089,-0.014l-0.039,0.025l-0.033,-0.018v-0.05l-0.043,-0.018l-0.05,0.018l-0.014,0.06l-0.032,0.008l-0.068,-0.043l-0.061,0.01l-0.057,0.083l0.021,0.039l0.04,-0.011l0.036,0.032l-0.022,0.086l0.018,0.072l0.075,0.053l-0.011,0.043l-0.057,0.004l-0.018,0.025l0.025,0.039l-0.021,0.054l-0.05,0.021l-0.075,0.082l0.01,0.036l0.054,0.018l0.007,0.097l-0.082,0.075l-0.004,0.039l0.058,0.054l-0.011,0.046l-0.047,0.047l-0.017,0.093l0.014,0.153l0.05,0.065l-0.018,0.096l-0.072,0.079l0.008,0.078l0.043,0.025l0.118,-0.021l0.042,0.036l0.004,0.089l-0.079,0.107l0.025,0.04l0.097,-0.025l0.043,0.003l0.046,0.032l0.057,-0.003l0.072,-0.061h0.064l0.015,0.036l-0.015,0.064l0.075,0.261l0.075,0.068l0.072,0.018l0.071,0.071l0.058,0.101l0.096,0.071l0.072,0.004l0.06,0.053l0.015,0.072l0.086,0.075l0.121,0.018l0.039,-0.032l0.015,-0.079l0.086,-0.047l0.071,0.018l0.032,0.047l-0.021,0.093l-0.057,0.05l-0.004,0.036l0.032,0.071l-0.018,0.107l-0.046,0.018l-0.05,-0.046l-0.057,0.003l-0.068,0.168v0.057l0.032,0.036v0.029l-0.054,0.05l-0.003,0.046l0.075,0.108l-0.004,0.068l-0.036,0.032l-0.06,-0.011l-0.029,0.029l0.011,0.05l-0.018,0.021l-0.05,-0.025l-0.025,0.022l0.039,0.057l-0.028,0.064l0.01,0.029l0.061,0.01l0.036,0.054l-0.029,0.075l-0.064,0.007l-0.032,-0.075h-0.033l-0.01,0.115l-0.036,0.003l-0.054,-0.061l-0.053,0.004l-0.057,0.064l-0.004,0.054l0.021,0.025l0.061,-0.011l0.036,0.029l-0.004,0.061l0.025,0.028l0.047,-0.003l0.021,0.032l-0.025,0.068l0.036,0.053l0.143,0.065l0.054,0.003l0.025,-0.032l0.071,0.007l0.047,0.057l-0.025,0.065l0.025,0.046l0.1,0.025l0.103,-0.003l0.025,-0.043l-0.035,-0.065l0.003,-0.146l0.036,-0.011l0.079,0.05l-0.007,0.082l0.028,0.015l0.039,-0.043l0.047,0.007l0.036,0.05l0.153,0.018l0.197,-0.014l0.025,-0.029l0.039,0.007l0.058,0.079l-0.015,0.064l0.018,0.018l0.065,-0.011l0.057,0.04l0.093,-0.004l0.132,-0.096h0.089l0.1,0.057l-0.01,0.028l-0.079,-0.025l-0.021,0.022l0.021,0.071l-0.025,0.118l-0.039,-0.003l-0.015,-0.05l-0.057,-0.004l-0.05,0.021l-0.036,0.058l-0.1,0.06l-0.039,0.097l0.018,0.068l-0.047,0.071l-0.121,0.086l-0.05,0.097l-0.065,0.032h-0.053l-0.09,0.057l0.008,0.079l-0.04,0.096l0.018,0.04l0.054,0.014v0.129l0.046,0.039l-0.014,0.125l-0.036,0.032l-0.003,0.047l0.035,0.035l-0.014,0.033l-0.193,-0.05l-0.011,0.028l0.047,0.04l0.053,-0.004l0.029,0.036l-0.004,0.068l0.033,0.035l-0.008,0.043l-0.071,0.057l-0.018,0.147l0.047,0.011l0.107,-0.057h0.078l0.029,0.039l-0.014,0.064l-0.032,0.036l0.017,0.039l0.108,0.047v0.039l-0.058,0.018v0.097l0.079,0.118l0.107,0.046h0.079l0.029,-0.039l0.039,0.007l0.018,0.096l0.114,0.125l-0.003,0.104l-0.079,0.136v0.036l0.032,0.025v0.039l-0.089,0.061l-0.075,0.018l-0.143,0.153l-0.004,0.065l0.039,0.021l0.004,0.05l-0.025,0.061l0.011,0.047l0.125,0.146l0.15,0.115v0.057l-0.089,0.096l-0.004,0.075l-0.071,0.072l-0.05,0.011l-0.004,0.05l0.032,0.075l-0.003,0.075l0.039,0.036l0.114,-0.011l0.025,0.018l-0.003,0.039l-0.115,0.136l-0.014,0.189l0.032,0.058l0.068,0.021l0.057,0.064l0.072,0.258l0.014,0.121l0.111,0.133l0.011,0.071l-0.029,0.097l0.007,0.053l0.04,0.047l-0.008,0.046l-0.128,0.09l-0.004,0.057l0.075,0.078v0.058l-0.025,0.053l0.004,0.05l0.018,0.065l-0.022,0.261l0.043,0.025l0.064,0.003l0.147,0.154l-0.032,0.029l-0.097,-0.015l-0.06,0.018l0.007,0.064l0.146,0.097l0.007,0.046l-0.039,0.054l0.022,0.032l0.078,-0.028l0.036,0.021l0.057,0.2l0.19,0.2l-0.004,0.111l-0.032,0.1l0.028,0.104l0.058,0.011l0.046,-0.061l0.079,0.004l-0.004,0.078l-0.089,0.079l-0.004,0.043l-0.168,0.157l-0.043,0.089l0.015,0.161l0.146,0.172l0.118,0.229l0.029,0.214l-0.025,0.222l-0.075,0.236l0.007,0.121l0.114,0.161l0.032,0.197l0.008,0.157l0.121,0.158l0.125,0.06l0.091,0.004l0.097,-0.075l0.091,-0.209l0.032,-0.285l0.054,-0.182l-0.011,-0.064l-0.086,-0.027l-0.182,0.027l-0.113,-0.065l-0.042,-0.198l0.048,-0.155l0.118,-0.108l0.021,-0.086l-0.027,-0.112l-0.069,-0.113l0.01,-0.107l0.113,-0.075l0.011,-0.043l-0.15,-0.113l-0.102,-0.134l0.005,-0.085l0.15,0.176l0.188,0.124l-0.005,0.086l-0.135,0.085l-0.01,0.065l0.048,0.048l0.091,0.005l0.102,0.049l0.059,0.096h0.07l0.043,-0.102l0.15,-0.22l-0.032,-0.123l-0.118,-0.08l-0.049,-0.086l0.022,-0.059l0.107,-0.016l0.086,0.021l0.08,-0.005l0.059,-0.091l-0.026,-0.097l0.059,-0.123l0.246,-0.241l0.022,-0.076l-0.043,-0.091l-0.065,-0.027h-0.273l-0.102,-0.037l-0.021,-0.139l0.064,-0.226l0.043,-0.064l0.011,-0.032l-0.102,-0.032l-0.059,-0.033l-0.016,-0.075l0.101,0.065l0.151,0.032l0.01,0.086l-0.059,0.053l-0.053,0.231l0.027,0.08l0.15,0.022l0.177,-0.022l0.021,-0.059l-0.091,-0.075l-0.038,-0.096l0.033,-0.075l0.128,-0.086l-0.032,-0.032l-0.107,0.021l-0.07,-0.032l-0.043,-0.166l-0.107,-0.124l0.011,-0.059l0.134,0.124l0.064,0.154l0.054,0.033l0.08,-0.026l0.102,0.059v0.091l-0.129,0.075l-0.021,0.059l0.102,0.096l0.016,0.086l-0.038,0.059l0.011,0.064l0.086,0.059l0.07,0.161l0.021,0.177l-0.064,0.134l0.032,0.027l0.08,-0.053l0.054,0.032v0.118l0.113,0.112l0.037,-0.01l-0.005,-0.075l0.043,-0.081l0.107,-0.027l0.032,-0.043l-0.011,-0.075l0.038,-0.091l0.102,-0.053l0.118,0.01l0.112,0.097l0.054,0.005l0.032,-0.054v-0.085l-0.08,-0.188l-0.016,-0.231l0.026,-0.16l0.081,-0.092l0.005,-0.091l-0.139,-0.268l-0.183,-0.161l-0.01,-0.187l0.064,-0.086l0.011,-0.075l-0.065,-0.102l-0.042,-0.177l-0.022,-0.429l-0.08,-0.15v-0.129l0.064,-0.102v-0.054l-0.102,-0.128l-0.123,-0.086v-0.048l0.15,0.069l0.161,0.172l0.005,0.091l-0.086,0.107v0.075l0.07,0.054l0.07,0.274l0.005,0.262l0.075,0.108l0.032,0.085l-0.021,0.14l-0.064,0.15l-0.006,0.118l0.172,0.161l0.166,0.295l0.011,0.145l-0.07,0.155l-0.016,0.139l0.209,0.585l0.022,0.182l0.053,0.086l0.086,0.086l-0.005,0.214l-0.134,0.199l0.005,0.112l0.08,0.07l0.065,0.011l0.075,-0.15l0.011,-0.107l0.042,-0.167l0.156,-0.327l0.027,-0.155l-0.081,-0.167l-0.187,-0.225l-0.027,-0.118l0.037,-0.107l0.177,-0.15l0.043,-0.075l0.011,-0.177l0.059,-0.145l0.102,-0.097l0.102,-0.16l0.027,-0.14l-0.059,-0.322l-0.156,-0.246l-0.054,-0.113l-0.016,-0.3l-0.091,-0.327l-0.134,-0.268l-0.166,-0.215l-0.016,-0.225l0.059,-0.343v-0.097l-0.07,-0.172l0.043,-0.134l0.139,-0.069l0.108,-0.006l-0.193,0.129l-0.016,0.075l0.075,0.161l0.005,0.113l-0.075,0.364l0.011,0.161l0.15,0.188l0.166,0.289l0.123,0.628l0.177,0.332l0.075,0.386l-0.026,0.183l-0.21,0.295l-0.032,0.112l0.022,0.172l-0.113,0.171l-0.139,0.049l-0.033,0.059l0.033,0.102l0.112,0.118l0.172,0.327l-0.022,0.193l-0.171,0.327l-0.161,0.504l0.021,0.145l0.075,0.08l0.076,0.011l0.064,-0.048l0.225,0.005l0.102,0.075l0.139,0.209l0.065,0.011l0.048,-0.054l0.07,-0.257l-0.032,-0.156v-0.155l0.101,-0.177l-0.005,-0.064l-0.112,-0.07l-0.027,-0.118l0.048,-0.07l0.134,-0.021l0.038,-0.049l0.005,-0.048l0.032,-0.07l0.022,0.129l-0.049,0.086l-0.134,0.059l-0.011,0.048l0.124,0.054l0.037,0.08l-0.102,0.215l-0.016,0.102l0.027,0.241l-0.086,0.279l-0.091,0.112l-0.021,0.14l0.027,0.22l0.064,0.016l0.054,-0.032h0.107l0.08,0.069l0.113,-0.01l0.054,-0.049v-0.091l-0.081,-0.182l-0.107,-0.102l-0.006,-0.102l0.07,-0.075l0.011,-0.064l-0.075,-0.129l-0.006,-0.075l0.049,-0.064l0.139,-0.027l0.07,-0.032l-0.032,0.064l-0.15,0.054l-0.011,0.037l0.075,0.15l0.005,0.097l-0.059,0.08v0.059l0.081,0.075l0.112,0.247l0.145,0.032l0.054,0.07l0.246,-0.032l0.102,-0.049l0.011,-0.075l0.043,-0.069l0.091,-0.027l0.102,-0.102l0.032,-0.113l-0.102,-0.397l-0.048,-0.445l-0.075,-0.123l-0.161,-0.043l-0.102,-0.091l-0.021,-0.08l0.08,-0.124l0.118,-0.112l0.07,-0.086l-0.022,0.129l-0.134,0.128l-0.037,0.075l0.043,0.059l0.15,0.011l0.134,-0.123l0.139,-0.161l0.032,-0.252l-0.08,-0.322l-0.075,-0.123l-0.129,-0.065l-0.043,-0.08l0.016,-0.225l0.135,-0.381l0.144,-0.268l0.032,-0.193l0.033,-0.086l0.139,-0.118l0.263,-0.182l0.134,-0.177l0.027,-0.236l0.048,-0.075l0.172,-0.011l0.053,-0.059l0.022,-0.402l-0.027,-0.124l0.037,-0.096l0.124,-0.086l0.08,-0.021l-0.129,0.123l-0.026,0.064l0.021,0.091l-0.016,0.478l-0.097,0.118l-0.128,0.005l-0.038,0.038l-0.043,0.246l-0.166,0.236l-0.23,0.145l-0.076,0.123l-0.075,0.258l-0.16,0.338l-0.038,0.171l0.043,0.295l0.225,0.59l-0.005,0.215l-0.054,0.176l0.005,0.172l0.065,0.236l0.08,0.086l0.038,0.091l0.043,0.236l0.112,0.113l0.118,-0.006l0.081,-0.07l0.01,-0.091l-0.085,-0.214l-0.016,-0.156l0.075,-0.139l0.144,-0.075l0.102,-0.097l0.006,-0.086l-0.049,-0.053l-0.005,-0.145l0.086,-0.193l0.193,-0.091v-0.048l-0.118,-0.022l-0.129,-0.075v-0.139l0.086,-0.108l0.177,-0.032l0.086,-0.08l0.048,-0.263l0.123,-0.161l0.016,-0.161l-0.069,-0.15l0.027,-0.15l0.096,-0.064l0.086,0.01l-0.102,0.086l-0.016,0.081l0.075,0.128v0.183l-0.043,0.177l-0.08,0.032l-0.033,0.069l-0.037,0.194l-0.113,0.128l-0.193,0.07l-0.032,0.048l0.188,0.091l0.086,0.092l-0.043,0.107l-0.204,0.128l-0.043,0.145l0.038,0.172l-0.011,0.161l-0.107,0.139l-0.145,0.027l-0.054,0.07l0.022,0.123l0.08,0.15l0.102,0.059l0.214,-0.005l0.049,-0.043l0.021,-0.231l0.145,-0.273l0.284,-0.22l0.097,-0.161l0.171,-0.075l0.199,0.005l0.064,-0.075l0.054,-0.241l0.059,-0.107v-0.086l-0.102,-0.123l-0.032,-0.129v-0.231l-0.075,-0.284l0.032,-0.188l0.102,-0.075l0.187,-0.016l0.081,-0.027l0.027,-0.059l0.026,-0.3l0.086,-0.129l0.156,-0.15l0.021,-0.123l0.048,-0.038l0.006,0.161l-0.027,0.102l-0.123,0.086l-0.075,0.102l-0.027,0.295l-0.065,0.128l-0.134,0.065l-0.155,-0.016l-0.054,0.048l-0.016,0.161l0.086,0.268v0.204l0.021,0.102l0.118,0.155l-0.016,0.145l-0.059,0.07l-0.032,0.112l-0.011,0.183l-0.134,0.123l-0.123,0.032l-0.113,-0.048l-0.069,0.027l-0.097,0.15l-0.332,0.316l-0.102,0.22l-0.016,0.231l-0.054,0.091l-0.156,0.08l-0.101,0.108l-0.027,0.214l0.043,0.188l0.182,0.118l0.113,-0.006l0.059,-0.069l0.101,-0.07l0.102,-0.129l0.054,-0.005l-0.086,0.182l-0.118,0.081l-0.043,0.085l0.016,0.118l0.167,0.124l0.262,0.096l0.285,0.022l0.203,-0.059l0.14,-0.124l0.112,-0.316l0.269,-0.697l0.155,-0.483l0.102,-0.15l0.155,-0.091l0.059,-0.091l-0.016,-0.166l0.049,-0.145l0.08,-0.102l0.038,-0.145l0.069,-0.091l0.108,-0.027l0.048,0.032l-0.097,0.032l-0.059,0.07l-0.016,0.145l-0.086,0.118l-0.042,0.123l0.053,0.145l0.14,0.048h0.123l0.129,-0.075l0.171,-0.23l0.177,-0.279l0.075,-0.172l0.097,-0.134l0.295,-0.268l0.118,-0.15l0.139,-0.3l0.075,-0.333l-0.011,-0.161l-0.23,-0.241l-0.027,-0.145l0.134,-0.311l-0.011,-0.134l-0.177,-0.263l-0.166,-0.102l-0.171,-0.053l-0.092,-0.086l-0.037,-0.113l0.007,-0.175l-0.029,-0.558l-0.021,-0.125l-0.114,-0.139l-0.186,-0.147l-0.097,-0.021l-0.057,-0.054l-0.029,-0.114l0.043,-0.168l0.054,-0.029l0.057,0.014l0.072,-0.017l0.057,-0.097l-0.004,-0.172l0.025,-0.121l0.082,-0.1l0.29,-0.132l0.032,-0.124l-0.059,-0.086l-0.177,-0.085l-0.279,-0.306l0.011,-0.139l0.048,-0.102l0.151,-0.118l0.026,-0.086l-0.048,-0.166l0.032,-0.118l0.36,-0.338l0.171,-0.081l0.161,-0.01l0.113,-0.059l0.037,-0.113l0.022,-0.295l-0.118,-0.248l-0.193,-0.158l-0.408,-0.193l-0.307,-0.071l-0.243,-0.015l-0.358,-0.235l-0.622,-0.615l-0.265,-0.108l-0.371,0.036l-0.301,-0.093l-0.2,-0.157l-0.407,-0.522l-0.158,-0.093l-0.221,-0.021l-0.315,-0.122l-0.543,-0.515l-0.1,-0.329l-0.315,-0.386l-0.114,-0.064l-0.065,0.036l-0.129,0.014l-0.364,-0.072l-0.272,-0.014l-0.415,-0.114l-0.429,-0.072l-0.493,-0.179l-0.694,-0.471l-0.2,-0.086l-0.3,-0.057l-0.415,-0.036l-0.464,-0.065l-0.408,-0.207l-0.2,-0.129l-0.172,-0.329l-0.036,-0.357l-0.078,-0.179l0.143,0.115l0.136,0.429l0.243,0.271l0.515,0.265l0.235,0.021l0.551,-0.057l0.293,0.064l0.136,0.151l0.3,0.2l0.315,0.086l0.429,0.257l0.179,0.136l0.629,0.164l0.393,0.05l0.429,-0.043l0.072,-0.042l-0.065,-0.151l-0.186,-0.071l-0.264,-0.172l-0.143,-0.221l-0.05,-0.222l0.007,-0.197l0.054,-0.128l0.003,-0.154l-0.064,-0.186v-0.204l0.028,-0.125l0.093,-0.071l0.029,-0.108l-0.05,-0.064v-0.15l0.143,-0.293l0.007,-0.136l0.086,-0.215l0.164,-0.121l0.129,-0.265l0.086,-0.071l0.107,-0.329l0.05,-0.279l-0.05,-0.157l-0.243,-0.222l-0.243,-0.493l-0.007,-0.179l-0.093,-0.107l0.014,-0.072l0.186,0.086l0.041,0.086l-0.012,0.13l0.05,0.108l0.101,0.203h0.059l0.049,-0.128l0.096,-0.129l0.011,-0.139l-0.043,-0.113l0.022,-0.14l0.118,-0.107l0.032,-0.075l0.027,0.086l-0.118,0.139l-0.006,0.081l0.043,0.075l-0.011,0.198l-0.134,0.22l-0.021,0.166l0.118,0.197h0.071l0.036,-0.107l0.086,-0.093l0.05,-0.093l-0.007,0.179l-0.097,0.121l-0.043,0.107l0.075,0.36l-0.021,0.118l-0.059,0.059l-0.005,0.144l0.053,0.194l-0.016,0.252l-0.07,0.101l-0.016,0.108l0.118,0.198v0.247l-0.123,0.171l-0.005,0.108l0.048,0.123l0.011,0.252l-0.049,0.188l-0.177,0.316l0.016,0.15l0.113,0.188l0.011,0.123l-0.07,0.145v0.166l0.107,0.397l0.156,0.177l0.397,0.252l0.3,0.081h0.263l0.145,0.032l0.091,0.086l0.069,0.16l0.118,0.118l0.161,0.269l0.322,0.289l0.306,0.161l0.08,0.107l0.097,0.252l0.144,0.156l0.188,0.118l0.182,0.048l0.145,0.097l0.193,0.048l0.242,0.134l0.171,0.182l0.252,0.183l0.553,0.241l0.214,0.064l0.15,0.075l0.107,0.124l0.263,0.198l0.268,0.161l-0.026,-0.081l-0.161,-0.284l-0.065,-0.161l-0.021,-0.252l-0.102,-0.396v-0.521l0.027,-0.182l-0.011,-0.134l-0.032,-0.07l-0.102,-0.01l-0.161,0.021l-0.225,-0.075l-0.182,-0.177l-0.022,-0.075l0.252,0.204l0.156,0.053l0.144,-0.027l0.054,-0.042v-0.113l0.048,-0.059l0.118,-0.016h0.145l0.091,-0.048l0.059,-0.097l0.006,-0.214l0.069,-0.231l0.118,-0.075l0.167,-0.005l0.198,-0.226l0.134,-0.305l0.005,-0.279l-0.037,-0.097l0.021,-0.134l0.086,-0.123l0.129,-0.022l0.075,-0.053l-0.005,-0.075l0.085,-0.097l0.038,-0.005l0.005,0.096l-0.053,0.108l0.043,0.059h0.101l0.134,-0.07l0.113,-0.016l0.129,-0.048l0.011,-0.081l-0.108,-0.139l-0.005,-0.081l0.129,0.097l0.053,0.102l-0.016,0.161l0.102,0.075l0.113,0.005l0.059,-0.07h0.064l-0.102,0.118l-0.198,0.011l-0.108,-0.091l-0.091,-0.006l-0.171,0.118l-0.134,0.022l-0.134,-0.038h-0.204l-0.048,0.049l0.032,0.311l-0.054,0.289l-0.123,0.279l-0.236,0.257l-0.027,0.097l-0.08,0.075l-0.108,0.048l-0.053,0.086l-0.022,0.156l-0.059,0.075l-0.171,0.107l-0.102,0.166l-0.032,0.123l0.059,0.156l-0.006,0.193l0.054,0.027l0.134,-0.054l0.177,0.011l0.145,0.08l0.026,0.054l-0.214,-0.064h-0.145l-0.145,0.064l-0.059,0.118l0.038,0.456l0.027,0.177l0.048,0.07l0.032,0.085l0.011,0.113l0.107,0.263l0.193,0.166l0.016,0.145l-0.043,0.128l-0.085,0.07l-0.033,0.102l0.043,0.204l-0.01,0.372l0.042,0.529l0.086,0.543l-0.007,0.172l-0.107,0.186l-0.007,0.207l0.071,0.136l0.236,0.107l0.193,0.036l0.15,0.093l0.208,0.329l0.014,0.114l0.129,0.172l0.121,0.085l0.129,0.158l0.036,0.25l0.086,0.1l0.414,0.193l0.179,0.122l0.057,0.114l0.193,0.172l0.479,0.286l0.508,0.5h0.079l0.464,-0.493l0.243,-0.157l0.236,-0.229l0.022,-0.165l-0.079,-0.157l-0.15,-0.172l-0.021,-0.164l0.071,-0.229l0.186,-0.171l0.265,-0.058l0.221,0.015l0.036,-0.043l-0.215,-0.129l-0.042,-0.121l0.035,-0.136l0.065,-0.05l-0.036,0.171l0.043,0.086l0.314,0.15l0.115,0.093l0.078,0.007l0.058,-0.05l0.021,-0.086l-0.064,-0.057l-0.015,-0.1l0.05,-0.1l0.065,-0.029l-0.022,0.115l0.129,0.143l0.036,0.243l0.243,0.286l0.436,0.315l0.515,0.557l0.465,0.651l0.228,0.529l0.172,0.622l-0.007,0.368l0.086,0.154l0.121,0.111h0.061l0.129,-0.107l0.01,-0.072l-0.032,-0.05l-0.118,-0.029l-0.089,-0.068l0.007,-0.139l0.132,-0.147l0.086,-0.035l0.136,-0.011l0.086,-0.046l0.046,-0.076l0.036,-0.135l0.054,-0.179l0.114,-0.161l0.172,-0.089l0.2,-0.008l0.107,0.054l0.097,0.018l0.003,0.029h-0.132l-0.086,-0.05l-0.182,0.007l-0.147,0.085l-0.086,0.14l-0.042,0.171l-0.058,0.122l-0.025,0.104l-0.071,0.06l-0.143,0.008l-0.129,0.046l-0.118,0.122l-0.003,0.089l0.075,0.054l0.118,0.018l0.057,0.078l-0.018,0.107l-0.082,0.083l-0.075,0.118l-0.004,0.175l0.057,0.239l0.111,0.229l0.068,0.039l0.014,-0.025l-0.018,-0.057l0.029,-0.003l0.089,0.136l0.004,0.064l-0.036,0.05l0.015,0.093l0.093,0.211l0.008,0.241l-0.026,0.099l0.002,0.067l0.086,0.22l0.105,0.129l0.032,0.064v0.14l0.064,0.397l-0.048,0.294l-0.113,0.199l-0.091,0.236l-0.037,0.241l-0.102,0.258v0.155l0.091,0.07l0.059,-0.006l0.005,-0.08l0.038,-0.027l0.037,0.134l-0.026,0.086l-0.129,0.048l-0.075,0.075l-0.006,0.161l0.07,0.065l-0.005,0.08l-0.032,0.091l0.032,0.048l-0.016,0.049l-0.108,0.027l-0.043,0.08l0.011,0.113l0.263,0.252l0.123,0.037l0.14,-0.016l0.069,-0.08l-0.026,-0.038l-0.14,-0.011l-0.027,-0.037l0.086,-0.043l0.242,0.021l0.139,-0.075l0.032,-0.198l0.016,-0.322l0.054,-0.145v-0.096l-0.038,-0.097l0.006,-0.064l0.091,0.107l0.037,0.177l-0.064,0.145l-0.021,0.327l0.026,0.139l-0.016,0.102l-0.128,0.177l-0.092,0.022l-0.096,0.086l-0.005,0.085l0.316,0.435l0.182,0.327l0.118,0.37l0.022,0.311l-0.027,0.316l0.059,0.204l0.547,0.66l0.279,0.375l0.085,0.161l0.07,0.293l0.14,0.293l0.128,0.133l0.147,0.232l0.2,0.397l0.172,0.268l0.107,0.089l0.068,0.007l0.018,-0.025l-0.054,-0.032l-0.028,-0.05l0.003,-0.161l-0.154,-0.343l-0.007,-0.122l-0.043,-0.107l0.011,-0.071l-0.032,-0.079l-0.104,-0.025l-0.111,-0.114l-0.082,-0.179l-0.021,-0.182l0.021,-0.158v-0.125l-0.046,-0.104l0.007,-0.117l0.036,-0.029z"/>
</svg>
