<svg xmlns="http://www.w3.org/2000/svg" viewBox="1264.785 438.507 41.300 23.867">
  <path d="M1291.182417,458.49828l-0.147,-0.154l-0.01,-0.121l0.062,-0.21l0.219,-0.334l0.124,-0.025l0.94,-0.019l0.062,-0.049l0.142,-0.26l0.081,-0.056l0.006,-0.062l-0.062,-0.043l0.006,-0.056l0.075,-0.055l0.006,-0.062l-0.105,-0.099l0.012,-0.087l0.117,-0.154l0.192,-0.112l0.025,-0.086l0.074,-0.031l0.211,0.074l0.352,0.012l0.118,0.056h0.117l0.242,-0.21h0.068l0.129,0.086l0.155,0.037l0.056,-0.012l0.062,-0.08l0.105,-0.056l0.167,0.006l0.136,-0.025l0.049,-0.055l0.075,-0.025l0.13,0.019l0.16,-0.118l0.007,-0.13l0.062,-0.043h0.092l0.13,-0.155l-0.018,-0.136l0.049,-0.049h0.074l0.149,-0.093h0.087l0.315,0.093l0.05,0.086l0.068,0.012l0.074,-0.024l0.179,0.018l0.118,0.075l0.049,-0.031l-0.037,-0.087l0.05,-0.074l0.185,-0.161l0.254,0.031l0.352,0.173l0.038,0.093l0.061,0.043l0.099,0.006l0.112,0.099l0.161,0.322l0.179,0.124l0.099,0.136l0.303,0.161l0.118,-0.025l0.08,0.037l0.111,0.149l0.081,0.123l0.099,0.075l0.068,0.018l0.025,-0.043l-0.037,-0.062l0.024,-0.099l0.099,-0.031l0.087,-0.08l0.086,0.031l0.081,-0.062l-0.031,-0.056l0.056,-0.031l0.111,0.031l0.217,-0.062l0.099,-0.093h0.284l0.322,0.143l0.062,0.068l0.216,0.018l0.056,-0.043l-0.093,-0.142l0.006,-0.174l0.056,-0.037l0.099,0.037l0.068,-0.018l0.037,-0.068l0.142,0.025l0.155,0.167l0.08,0.012l0.099,-0.056l0.186,0.037l0.099,-0.055h0.074l0.068,0.062h0.093l0.13,-0.038l-0.062,-0.253l-0.223,-0.353l-0.259,-0.266l-0.149,-0.068l-0.086,-0.087l-0.062,-0.148l-0.099,-0.099l-0.118,-0.037l-0.111,-0.105l-0.037,-0.167l-0.285,-0.242l-0.105,-0.012l-0.068,-0.056l-0.096,-0.25l-0.065,-0.102l0.037,-0.121l0.13,-0.185l0.037,-0.14l-0.102,-0.083l-0.167,0.009l-0.148,-0.093l-0.121,-0.287l0.074,-0.167l-0.12,-0.102l-0.167,0.055l-0.121,-0.065l-0.028,-0.204l-0.139,-0.065l-0.065,0.047h-0.102l-0.13,-0.065l-0.232,0.009l-0.121,0.121l-0.083,0.009l-0.195,-0.102l-0.149,-0.019l-0.12,-0.102l0.028,-0.139l0.167,-0.037l0.055,-0.074l0.01,-0.168l0.139,-0.222l0.195,-0.093l0.315,0.028l0.149,-0.047l0.185,0.056l0.065,-0.037l-0.111,-0.148v-0.242l0.12,-0.213l0.335,-0.139l0.12,0.009l0.065,-0.065l-0.083,-0.158l0.046,-0.148l0.223,-0.093l0.64,0.037l0.213,0.056l0.093,-0.047l0.019,-0.13l-0.065,-0.148l0.009,-0.139l0.065,-0.074l0.009,-0.13l-0.111,-0.353l0.009,-0.167l0.102,-0.186l-0.027,-0.343l0.027,-0.139l-0.111,-0.668l0.056,-0.297l0.12,-0.149l0.186,-0.557l0.028,-0.222l-0.037,-0.065l-0.112,-0.019l-0.102,-0.074l-0.38,-0.028l-0.177,0.037l-0.352,-0.028l-0.112,-0.037l0.056,-0.065l0.195,-0.027l0.204,0.037l0.186,-0.019l0.158,-0.056l0.129,0.01l0.075,0.074l0.111,0.018l0.176,-0.129l0.214,-0.056l0.13,0.018l0.157,-0.102l0.177,-0.436l0.083,-0.38l0.186,-0.362l0.408,-0.251l0.121,-0.009l0.083,0.056l0.251,0.009l0.315,-0.121l0.455,-0.009l0.278,0.084l0.232,0.148l0.232,0.065l0.065,0.074l0.075,0.01l0.065,-0.158l0.185,-0.204l0.186,-0.084l0.158,-0.167l0.287,-0.585l0.009,-0.194l-0.167,-0.362l-0.074,-0.279l0.047,-0.13l-0.01,-0.139l-0.074,-0.195v-0.204l0.074,-0.176v-0.176l-0.872,0.046l-0.64,-0.149l-0.743,-0.046l-1.457,-0.622l-0.139,-0.037l-0.13,-0.436l-0.157,-0.371l-0.056,-0.316l-0.186,-0.194l-0.491,0.315l-0.539,0.065l-0.176,0.046l-0.167,-0.065l-0.232,-0.547l-0.186,-0.139l-0.213,0.278l-0.965,-0.083l-0.462,0.065l-0.206,-0.26l-0.223,-0.13l-0.232,-0.093l-0.083,-0.121v-0.12l-0.075,-0.093l-0.102,-0.037l-0.158,0.046h-0.297l-0.343,-0.167l-0.278,-0.009l-0.139,-0.056l-0.325,0.019l-0.214,0.074l-0.538,0.028l-0.473,0.158l-0.51,0.259l-0.177,0.028l-0.102,-0.009h-0.176l-0.26,0.121l-0.418,0.083l-0.287,-0.046l-0.223,0.028l-0.297,0.12l-0.288,0.01l-0.287,-0.038l-0.492,0.112l-0.214,0.13l-0.538,0.195l-0.352,0.018l-0.242,0.111l-0.148,0.158l-0.139,0.26l-0.177,0.158l-0.362,0.185l-0.38,0.279l-0.334,0.501l-0.167,0.139l-0.186,0.046l-0.148,0.121l-0.102,0.214l-0.371,0.157l-0.27,-0.018l-0.306,0.074l-0.454,0.297l-0.167,0.028l-0.177,-0.047l-0.241,0.01l-0.213,0.139l-0.232,0.074l-0.316,-0.074l-0.39,-0.232l-0.232,-0.195l-0.38,-0.111h-0.279l-0.278,0.074l-0.26,-0.047l-0.278,-0.139l-0.167,-0.139l-0.241,-0.028l-0.279,0.037l-0.223,0.14l-0.241,0.009l-0.167,-0.056l-0.241,0.009l-0.269,0.177l-0.204,0.018l-0.167,-0.046l-0.557,-0.408l-0.501,-0.14l-0.334,-0.009l-0.195,0.093l-0.381,0.102l-0.157,0.084l-0.112,0.157l-0.195,0.065l-0.241,-0.009l-0.659,0.139l-0.306,-0.028l-0.455,-0.12l-0.26,-0.167l-0.491,-0.158l-0.464,-0.019l-0.307,-0.083l-0.315,-0.149l-0.278,-0.074l-0.149,-0.13l-0.399,-0.028l-0.408,0.093l-0.167,-0.009l-0.427,-0.223l-0.232,-0.102l-0.269,-0.037l-0.112,-0.065l-0.167,-0.028l-0.324,0.028l-0.177,-0.028l-0.529,0.028l-0.334,0.093l-0.557,0.25l-0.501,0.056l-0.491,-0.083l-0.232,-0.112l-0.446,-0.083l-0.232,-0.251l0.009,-0.213l0.102,-0.177l0.121,-0.473l0.102,-0.139l0.214,-0.074l0.38,-0.028l0.223,-0.084l0.204,-0.306l0.009,-0.139l-0.093,-0.13l-0.287,-0.093l-0.186,0.009l-0.232,-0.046l-0.501,-0.325l-0.241,-0.065l-0.418,-0.324l-0.148,-0.075l-0.121,0.01l-0.121,-0.047l-0.114,-0.074l-0.099,0.056l-0.124,0.111l-0.055,0.142l-0.087,0.037l-0.019,0.056l0.081,0.068l-0.012,0.056l-0.062,0.049l-0.031,0.285l0.043,0.117l-0.012,0.143l-0.062,0.092l-0.149,0.013l-0.068,0.062l-0.068,0.006l-0.105,-0.031l-0.099,0.043l-0.012,0.068l0.062,0.087l-0.044,0.093l-0.148,0.031l-0.464,0.006l-0.18,0.08l-0.043,0.155l0.043,0.117l-0.055,0.266l-0.112,0.056l-0.031,0.062l0.044,0.08l-0.081,0.514l-0.062,0.136l-0.068,0.068l-0.012,0.105l0.136,0.279l0.13,0.13l0.046,0.445l0.158,0.176l0.334,0.177l0.065,0.157v0.492l0.139,0.473l0.177,0.307l0.12,0.092h0.093l0.102,0.056l0.037,0.111l0.214,0.093l0.158,-0.009l0.129,0.093l-0.009,0.13l0.112,0.065h0.269l0.278,0.13l0.074,0.129l0.158,0.149l0.139,0.065l0.102,0.121l0.102,0.371l0.186,0.195l0.148,0.259l0.242,0.186l0.12,0.028l0.186,-0.009l0.158,0.074l0.009,0.093l-0.065,0.092v0.279l-0.111,0.204l-0.167,0.148l-0.13,0.019l-0.112,0.093l-0.12,0.352l-0.307,0.223l-0.371,0.158l-0.148,0.288l0.028,0.232l-0.14,0.222l-0.194,0.093l-0.177,0.037l-0.065,0.112h-0.074l-0.148,-0.103l-0.13,-0.027l-0.13,-0.093l-0.158,0.018l-0.111,0.13l0.009,0.075l-0.074,0.027l-0.158,-0.111l-0.121,0.028l-0.083,0.158l-0.251,0.176l-0.167,0.028l-0.065,0.12l0.195,0.362l0.195,0.223l-0.019,0.139l-0.111,0.093l-0.093,0.186v0.083l0.075,0.037v0.093l-0.084,0.158l-0.148,0.529l0.055,0.102l0.139,0.037l0.418,0.334l0.167,0.241l-0.019,0.139l-0.064,0.121l-0.14,0.399l-0.083,0.084l-0.186,0.027l-0.139,0.205v0.176l-0.083,0.148l-0.121,0.019l-0.158,-0.037l-0.25,0.046l-0.075,0.112l0.158,0.055l0.121,0.186l0.222,0.195l0.251,0.417l0.111,0.019l0.112,0.111l0.065,0.26l0.195,0.158l0.148,0.158l0.362,0.167l0.213,0.157l0.223,0.112l0.149,-0.037l0.111,0.037l0.074,0.111l0.26,0.093l0.13,-0.037l0.074,0.009l0.084,0.121l0.111,0.027l0.13,-0.009l0.074,0.047l0.047,0.167l-0.01,0.464l0.093,0.111l0.074,0.13l-0.018,0.102l0.037,0.111l0.102,0.037l0.158,0.316l0.018,0.148l0.084,0.167l0.037,0.149l0.074,0.037l0.232,0.065l0.149,0.325l-0.019,0.157l-0.204,0.195l-0.121,0.242l-0.139,0.027l-0.065,0.084l0.028,0.158l0.009,0.185l0.121,0.204v0.112l-0.084,0.056l-0.009,0.092l0.065,0.056l-0.009,0.121l-0.047,0.111l0.01,0.176l0.074,0.177l-0.009,0.139l-0.084,0.074l-0.028,0.121l0.074,0.13l-0.003,0.198l-0.046,0.108l-0.077,0.028l-0.059,0.083l0.09,0.047h0.117l0.043,-0.025l0.075,0.012l0.08,0.044l0.13,0.006l0.056,-0.031h0.092l0.254,0.117l0.186,0.006l0.068,-0.03l0.297,-0.007l0.13,0.031l0.068,-0.006l0.204,-0.124l0.062,-0.117l-0.013,-0.112l0.056,-0.111l0.117,-0.031l0.18,-0.136l0.204,-0.006l0.087,0.056l0.018,0.105l0.068,0.105h0.068l0.056,-0.068l0.272,-0.192h0.149l0.092,-0.049h0.106l0.142,0.049h0.13l0.148,-0.037l0.105,0.019l0.056,0.099l0.087,0.018l0.111,-0.012l0.105,0.018l0.087,0.05l0.21,0.025l0.087,-0.038l0.043,-0.086l0.13,-0.118l0.074,-0.006l0.05,0.031l0.099,0.006l0.105,-0.037l0.142,0.006l0.161,0.05l0.068,-0.025l0.111,-0.192l0.093,-0.068l0.279,-0.043l0.068,-0.056l0.148,-0.031h0.093l0.087,-0.068v-0.13l0.074,-0.006l0.167,0.192l0.148,0.099l0.112,-0.006l0.173,-0.155l0.068,-0.006l0.105,0.086h0.099l0.087,-0.086l0.031,-0.081l-0.05,-0.266l0.031,-0.167l0.105,-0.13l0.105,-0.006l0.099,0.05l0.174,-0.013l0.136,0.037l0.037,0.069l0.117,0.105l0.068,-0.05l0.013,-0.13l0.086,-0.086h0.099l0.081,-0.025l0.043,-0.105l0.087,-0.062l0.099,0.043l0.049,0.099l0.087,0.025l0.062,0.111l-0.013,0.099l0.05,0.075l0.074,-0.013l0.099,-0.08h0.111l0.093,0.062l0.068,-0.007l0.037,-0.092l0.081,-0.056l0.136,0.025l0.074,0.062l0.186,0.018l0.062,-0.049l0.018,-0.118l0.161,-0.087l0.136,-0.012l0.08,-0.056l0.112,0.007l0.099,0.099l-0.019,0.117l0.068,0.142l-0.006,0.143l0.099,0.21l0.124,0.062l0.037,0.074v0.105l0.074,0.149l0.068,0.006l0.037,-0.043l0.143,-0.025l0.08,0.031l-0.025,0.086l0.068,0.019l0.106,-0.031l0.266,0.037l0.105,0.081l0.074,0.198l0.34,0.253h0.081l0.055,-0.13v-0.253l0.056,-0.037h0.179l0.087,0.049h0.105l0.136,-0.105l0.118,0.012l0.161,0.161l0.389,0.13l0.223,0.031l0.142,0.062l0.112,0.117l0.136,0.037l0.093,-0.037l0.08,0.025l0.043,0.111l0.118,0.062h0.08l0.118,0.075l0.006,0.068l0.074,0.055h0.068l0.106,0.087l0.037,0.161l0.105,0.117l0.142,0.019l0.099,0.074h0.068l0.037,-0.056l0.081,-0.018l0.173,0.012l0.043,-0.043l0.105,-0.031l0.05,-0.08l0.068,-0.016l0.074,0.028l0.186,-0.043l0.12,-0.044l0.031,-0.062l0.211,-0.065l0.062,-0.034l0.228,0.019l0.093,0.059l0.047,-0.025l0.08,-0.238l0.08,-0.062l0.137,0.003l0.086,0.068l0.152,0.053l0.102,-0.019l0.055,-0.062h0.13l0.062,0.05l0.152,0.031l0.068,0.086l0.049,0.003l0.034,-0.04l-0.015,-0.049l0.034,-0.096l0.056,-0.031l0.12,0.015l0.078,-0.009l0.034,-0.034l0.049,-0.003l0.034,0.025l0.056,-0.006l0.031,-0.072l0.049,-0.021l0.062,-0.003l0.077,-0.041l0.034,-0.058l0.041,-0.013l0.096,0.044l0.068,0.077l0.058,0.028l0.05,-0.01l0.04,0.041l-0.015,0.089l0.083,0.065l0.164,-0.015l0.164,-0.105l0.065,-0.003l0.17,0.018l0.077,-0.015l0.047,-0.047l0.059,-0.009l0.031,-0.034l0.027,-0.068l0.167,-0.084l0.056,-0.006l0.071,0.037h0.047l0.049,-0.027l0.062,0.006l0.043,0.024h0.05l0.052,-0.083l0.059,-0.003l0.047,0.009l0.139,-0.022l0.028,-0.058v-0.05l0.015,-0.04l0.071,-0.025l0.074,-0.229l0.007,-0.099l0.074,-0.099l0.136,-0.034l0.018,-0.027l-0.179,-0.202l-0.093,-0.077l-0.006,-0.074l0.09,-0.065l0.043,-0.04l0.059,-0.245l-0.028,-0.154l-0.046,-0.044l-0.127,-0.012l-0.047,-0.043l-0.012,-0.402l-0.065,-0.05l-0.028,-0.133l-0.068,-0.009l-0.068,0.043h-0.096l-0.065,-0.049l-0.021,-0.075l-0.084,-0.024l-0.09,-0.105v-0.056l0.025,-0.047v-0.055l-0.046,-0.065l0.003,-0.074l0.043,-0.022l0.019,-0.031l0.009,-0.059l0.077,-0.043l0.164,0.012l0.056,-0.034l0.04,-0.089l0.282,-0.133l0.068,0.006l0.04,0.043l0.167,0.05h0.077l0.047,-0.041l0.055,0.013l0.093,0.117l0.266,0.084l0.183,0.015l0.062,-0.031h0.058l0.087,0.028l0.049,-0.028z"/>
</svg>
