<svg xmlns="http://www.w3.org/2000/svg" viewBox="1308.659 766.281 12.144 14.240">
  <path d="M1312.998757,780.362761l0.269,0.028l0.306,0.13l0.102,-0.065l0.033,-0.219l0.269,-0.371l0.19,-0.018l0.116,0.093h0.111l0.126,-0.154l0.389,-0.185l0.112,-0.167l0.324,-0.2l0.154,-0.009l0.111,-0.255l0.032,-0.26l0.163,-0.246l0.492,-0.302l0.195,-0.361l0.125,-0.084l0.079,-0.176l-0.019,-0.214l0.255,-0.659l0.251,-0.176l0.172,-0.311l0.018,-0.153l0.111,-0.097l0.181,0.009l0.181,0.084l0.077,-0.027l-0.002,-0.127l-0.107,-0.292l0.056,-0.19l0.269,-0.506l0.102,-0.074l0.018,-0.125l-0.037,-0.14l0.228,-0.25l0.236,-0.06l0.877,-0.529l0.107,-0.158l-0.009,-0.121l-0.214,-0.209l0.019,-0.139l0.25,-0.19l0.269,-0.111l0.081,-0.161h0.074l0.087,0.099l0.29,-0.068l0.149,-0.149l-0.044,-0.179l0.038,-0.099l0.099,-0.087l0.024,-0.278l-0.092,-0.124v-0.291l-0.167,-0.148v-0.155l0.278,-0.42l-0.062,-0.05l-0.204,0.019l-0.087,0.074l-0.29,-0.006l-0.26,-0.093l-0.118,0.012l-0.074,0.075l-0.118,-0.019l-0.142,-0.229l-0.396,-0.34l-0.111,-0.006l-0.13,0.191l-0.223,0.137l-0.154,-0.05l-0.297,-0.266l-0.019,-0.148l-0.074,-0.044l-0.062,0.006l-0.068,-0.061l0.105,-0.341l0.118,-0.241l-0.013,-0.124l0.068,-0.142l0.167,-0.13l0.124,-0.006l0.192,-0.204l0.049,-0.155l-0.062,-0.043l-0.365,0.185l-0.191,-0.031l-0.062,-0.092l0.123,-0.347l0.198,-0.328l0.031,-0.167l0.099,-0.179l0.112,-0.08l0.074,-0.26l0.13,-0.303l-0.18,-0.087l-0.346,-0.347l0.006,-0.154l-0.086,-0.031l-0.099,0.056l-0.093,-0.025l-0.087,-0.062l-0.142,0.019l-0.186,0.266l-0.563,0.105l-0.266,-0.118l-0.105,0.013l-0.21,0.426l-0.297,0.081l-0.297,-0.081l-0.235,-0.21l-0.13,-0.223l-0.452,-0.173l-0.092,0.037l-0.062,0.248l0.151,0.594l-0.046,0.167l-0.158,0.12l-0.102,0.279l-0.009,0.148l0.074,0.306l-0.074,0.474l-0.232,0.399l-0.316,0.148l-0.148,0.009l-0.149,-0.083l-0.148,0.046l-0.176,0.269l-0.232,0.028l-0.297,-0.148l-0.167,-0.01l-0.13,0.112l-0.427,0.046l-0.112,0.074h-0.157l-0.223,-0.12l-0.316,-0.019l-0.306,0.13l-0.055,0.102l-0.084,-0.009l-0.111,-0.436l-0.084,-0.047l0.009,-0.129l0.065,-0.121v-0.158l-0.092,-0.111l-0.047,-0.204l-0.287,-0.158l-0.195,-0.056l-0.167,0.037l-0.325,-0.083l-0.121,-0.093l-0.12,-0.028l-0.056,0.074l-0.084,-0.009l-0.13,-0.065l-0.139,-0.004l-0.111,0.069l-0.056,0.093l-0.042,0.264l0.042,0.13l-0.004,0.195l-0.07,0.102l-0.031,0.088v0.112l-0.198,0.142l-0.037,0.192l0.093,0.105l0.179,0.031l0.105,0.074l0.019,0.13l0.136,0.062l0.062,0.08v0.155l0.08,0.136l0.155,0.037l0.192,0.18l0.08,0.191l0.232,0.226l0.164,0.034l0.17,0.248l-0.012,0.393l-0.161,0.188l-0.043,0.282l0.055,0.077l-0.009,0.105l-0.041,0.126l0.077,0.175l-0.015,0.099l-0.126,0.106l-0.029,0.084l0.054,0.089v0.059l-0.031,0.029l-0.019,0.109l0.198,-0.005l0.125,0.037l0.154,-0.014l0.12,-0.056l0.232,0.065l0.059,0.229l-0.05,0.56l0.028,0.696l-0.065,0.464l-0.167,0.418l0.028,0.148l0.102,0.084l0.139,0.538l0.372,0.544l0.167,0.427l0.006,0.186l0.062,0.148l0.266,0.359l0.154,0.39l0.013,0.142l0.074,0.136l0.161,0.112l0.031,0.247l0.08,0.105l0.037,0.112l0.013,0.148l0.21,0.359l0.309,0.204l0.105,0.192l0.01,0.249z"/>
</svg>
