<svg xmlns="http://www.w3.org/2000/svg" viewBox="1122.259 668.734 20.246 41.102">
  <path d="M1123.203094,678.096926l-0.185,0.572l0.067,0.165l-0.037,0.139l-0.093,0.121l-0.092,0.334l-0.418,0.52l-0.028,0.343l0.037,0.26l0.01,0.445l-0.13,0.26l-0.075,0.993l2.19,1.606l1.624,1.011l0.019,0.872l0.028,0.418l-0.009,0.761l0.046,0.185l-0.019,0.427l-0.13,0.288l0.121,0.38l0.139,0.01l0.074,0.148l0.056,0.715l0.074,0.241l0.214,0.26l0.083,0.222l0.409,0.409l0.278,0.167l0.39,0.807l0.028,0.371l-0.047,0.297l0.074,0.418v1.512l-0.027,0.789l0.148,0.325l-0.018,0.148l-0.103,0.103l-0.064,0.556l0.074,0.214v4.621l0.074,0.074l0.037,0.297l-0.037,0.093l0.009,0.139l-0.093,0.733l0.019,2.905h-0.492v0.167l0.13,0.232l-0.009,0.102l0.028,0.083l0.157,0.037l0.01,0.158l-0.056,0.084l0.019,0.399l0.092,0.139l0.038,0.241l-0.056,0.112l-0.149,0.083l-0.027,0.232l0.129,0.093l0.047,0.158l-0.037,0.111l0.083,0.167l0.164,0.085l0.341,0.304l0.012,0.198l0.049,0.099l0.211,0.111l0.117,0.161l0.183,0.536l0.077,0.41l-0.037,0.062l0.025,0.068l0.111,0.044l-0.031,0.055l-0.21,0.019l-0.173,0.043l-0.062,0.05l-0.52,0.092l-0.192,0.062v0.068l0.443,-0.102l0.386,-0.071l0.18,-0.059l0.355,-0.077l1.43,-0.22l0.502,-0.114l1.327,-0.139l0.455,0.009l0.102,0.037l0.046,-0.032l0.098,-0.028l0.014,-0.107l-0.056,-0.116l-0.251,-0.06l-0.148,0.014l-0.111,-0.075l0.074,-0.394l0.097,-0.056l0.135,0.051l0.088,-0.018l0.079,-0.214l0.093,-0.018l0.236,0.12h0.079l0.07,-0.027l0.116,0.041l0.213,0.344l-0.004,0.157l-0.07,0.052l-0.125,-0.028l-0.056,0.037l0.005,0.093l-0.102,0.014l-0.163,-0.079l-0.125,-0.005l-0.056,0.046l0.042,0.112l0.009,0.06l0.075,0.037l0.153,-0.042l0.375,0.028l0.696,-0.055l0.446,-0.047l0.009,-0.445l-0.037,-0.112l0.019,-0.083l0.092,-0.046v-0.103l-0.111,-0.092l0.014,-0.112l0.136,-0.099l0.124,-0.235l-0.075,-0.21l-0.012,-0.248l0.087,-0.173l0.198,-0.173l0.024,-0.235l0.05,-0.112l-0.062,-0.123l-0.124,0.012l-0.185,-0.149l0.037,-0.272v-0.631l-0.173,-0.173l0.099,-0.408l0.185,-0.174l0.037,-0.185l-0.136,-0.248l0.186,-0.173l-0.099,-0.755l-0.062,-0.123l-0.025,-0.978l0.087,-0.099h0.198l0.062,-0.111l-0.037,-0.384l-0.372,-0.358v-0.273l-0.099,-0.111l0.087,-0.953l-0.025,-0.284l-0.272,-0.433l-0.025,-0.235l0.124,-0.297l0.074,-0.582l0.124,-0.21l0.012,-0.47l0.112,-0.186l0.012,-0.346l-0.161,-0.174l-0.198,-0.482l0.013,-0.248l0.111,-0.111l0.025,-0.161l-0.087,-0.148l0.012,-0.112l0.161,-0.049l0.161,-0.248l0.037,-0.358l-0.062,-0.396l-0.012,-0.322l-0.087,-0.148l0.013,-0.186l0.086,-0.099l0.013,-0.223l-0.161,-0.185l0.062,-0.223l0.148,-0.037l0.037,-0.099l-0.037,-0.112l0.05,-0.383l-0.087,-0.074l0.013,-0.099l0.099,-0.037l0.086,-0.372l-0.037,-0.495l0.074,-0.099l0.124,0.05l0.26,0.025l0.359,-0.013l0.544,-0.16h0.26l0.383,-0.137l0.05,-0.21l0.173,-0.396v-0.26l0.087,-0.161l0.148,-0.16v-0.52l-0.124,-0.371l-0.012,-0.223l0.149,-0.297l0.222,-0.148l0.371,-0.582l0.099,-0.322l0.161,-0.086h0.198l0.211,-0.112l0.086,-0.185l-0.161,-0.099l-0.086,-0.347l0.037,-0.185l0.198,-0.198l0.557,-0.235l0.21,-0.037l0.223,0.037l0.173,-0.013l0.148,-0.185l0.013,-0.149l0.062,-0.099l0.173,-0.111l0.074,-0.198v-0.408l0.111,-0.334l0.26,-0.198l0.099,-0.285l-0.025,-0.136l-0.173,-0.025l-0.334,-0.26l-0.13,-0.334l0.334,-0.798v-0.204l0.352,-0.25l0.677,0.343l0.083,-0.046l0.047,-0.167l0.018,-0.325l0.093,-0.362l0.149,-0.315l-0.065,-0.743l-0.149,-0.13h-0.111l-0.074,-0.092v-0.13l-0.102,-0.251l-0.13,-0.176l-0.01,-0.149l0.149,-0.556l-0.084,-0.566l-0.25,-0.195l0.018,-0.112l-0.037,-0.213l0.056,-0.279l-0.084,-0.102l-0.089,0.002l-1.052,-0.73l-0.272,-0.297l0.235,-1.064l0.125,-1.005l0.292,-0.673l-0.092,-0.074l-0.181,-0.079l0.004,-0.121l0.075,-0.13l-0.047,-0.083h-0.107l-0.116,-0.084l-0.009,-0.19l-0.325,-0.325l-0.612,-0.12h-0.306l-0.158,-0.093l-0.111,-0.242l-0.084,-0.037l-0.158,-0.38l0.075,-0.121l-0.102,-0.13l-0.103,-0.037l-0.343,-0.306l-0.13,-0.213l-0.223,-0.167l-0.064,-0.13l-0.158,-0.112l-0.112,-0.009l-0.12,-0.111l-0.056,-0.13l-0.176,-0.139l-0.065,-0.177l-0.139,-0.102l-0.14,-0.028l-0.111,-0.074l-0.148,-0.223l-0.26,-0.213l-0.074,-0.139l-0.232,-0.13h-0.279l-0.185,0.111l-0.13,0.204h-0.084l-0.056,-0.074l-0.092,0.028l-0.186,0.492l-0.093,0.009l-0.074,-0.13l-0.418,0.019l-0.157,0.111l-0.279,0.028l-0.102,-0.056l-0.111,0.009l-0.009,0.093l-0.093,0.028l-0.079,-0.028l-0.06,0.019l-0.028,0.074l-0.056,0.019l-0.111,-0.051l-0.065,0.009l-0.061,0.06l-0.273,0.009l-0.037,0.103l0.06,0.12l0.009,0.209l-0.046,0.065l0.004,0.079l0.089,0.125v0.227l0.102,0.223l0.055,0.065l0.107,0.186l0.005,0.083l0.032,0.056l0.098,0.042l0.055,0.213l-0.069,0.033l-0.065,-0.024l-0.065,0.042l-0.009,0.139l-0.103,0.042l-0.051,-0.023l-0.083,0.111l0.088,0.2l-0.042,0.037l-0.037,0.046l0.042,0.102l-0.06,0.107l-0.102,0.032l-0.014,0.154l0.037,0.046l-0.01,0.051l-0.051,0.019l-0.023,0.06l0.037,0.07l-0.018,0.055l-0.181,0.079l-0.26,0.286l-0.012,0.273l0.062,0.111l-0.05,0.124l-0.185,0.099l-0.112,-0.037l-0.086,0.037l-0.087,0.136l-0.618,0.482l-0.31,0.384l-0.185,0.124l-0.273,0.358l-0.123,0.05l-0.483,-0.012l-0.297,-0.161l-0.297,-0.025l-0.519,0.136h-0.161l-0.112,-0.037l-0.173,0.012l-0.111,0.136l-0.223,0.062l-0.284,0.013l-0.099,-0.136l-0.174,-0.384h-0.099l-0.061,0.099l-0.185,-0.005l-0.037,-0.102h-0.084l-0.009,0.102l-0.083,0.019l-0.084,-0.112h-0.158l-0.055,0.102l-0.26,0.047l-0.065,0.12l0.065,0.158l-0.074,0.102l-0.13,0.047l-0.075,0.102l-0.129,0.037l-0.056,0.083l0.167,0.251l-0.046,0.13l-0.084,0.009l-0.037,-0.083l-0.074,-0.01l-0.037,0.075h-0.093l-0.056,-0.167l-0.093,-0.028l-0.065,0.055l0.019,0.149l0.083,0.055l0.019,0.186l-0.121,0.065l-0.222,-0.093h-0.27l-0.139,-0.102l-0.139,0.028l-0.074,0.139l0.046,0.074l0.093,0.038l0.046,0.092l-0.064,0.186l0.083,0.176l-0.065,0.056l-0.148,-0.102l-0.14,0.037l-0.092,0.111l-0.214,0.047l-0.046,0.13l0.065,0.055l0.074,-0.046l0.111,0.158l0.019,0.241l0.13,0.167l-0.056,0.074l-0.223,-0.176l-0.194,0.046l-0.13,-0.037l-0.102,-0.185l-0.211,-0.015l-0.059,0.237l-0.129,0.084l-0.01,0.12l-0.204,0.149z"/>
</svg>
