<svg xmlns="http://www.w3.org/2000/svg" viewBox="657.367 815.096 80.473 89.813">
  <path d="M662.809648,859.415675l0.097436,0.046398l-0.00464,0.069597l-0.064957,0.037118l-0.046398,-0.041758l-0.018559,-0.092796l0.037118,-0.018559Z M663.080303,859.621373l0.049491,0.035572l0.102076,0.013919l0.037118,-0.046398l-0.041758,-0.078877l-0.115995,-0.013919l-0.040212,0.034025l0.00928,0.055678Z M663.321573,859.955438l0.055678,0.034025l0.021652,-0.012373l-0.027839,-0.055678l-0.040212,-0.015466l-0.024746,0.018559l0.015466,0.030932Z M664.264999,859.172859l0.027839,0.021652h0.027839l0.003093,-0.040212l-0.034025,-0.030932l-0.021652,0.00928l-0.003093,0.040212Z M660.267038,857.485518l0.046398,0.180952l0.129914,0.120635l0.176312,0.041758l0.046398,-0.064957l-0.051038,-0.139194l-0.283028,-0.162393l-0.064957,0.023199Z  M660.990846,859.035211l0.069,0.002l0.146,-0.078l0.056,-0.074l0.163,0.059l0.096,0.09l0.037,-0.007l0.013,-0.092l0.145,-0.102l0.105,0.003l0.056,0.031l0.213,0.01l0.2,0.2l0.005,0.153l0.12,0.093l0.195,0.042l0.084,-0.024l0.037,-0.143l-0.065,-0.093l-0.125,-0.033l-0.191,-0.204l-0.436,-0.139l-0.134,-0.232l-0.348,-0.264l-0.288,-0.093l-0.2,-0.163l-0.134,-0.037l-0.047,0.023l0.126,0.228l0.153,0.125l0.065,0.232l-0.056,0.121l-0.209,0.116v0.079l0.177,0.064l0.018,0.07l-0.046,0.037z M657.880634,823.647456l3.792,6.168l2.324,4.342l-0.092,0.148l-0.093,0.005l-0.042,0.055l-0.023,0.158l-0.209,0.297l-0.102,0.028l-0.065,0.153l0.056,0.176l0.097,0.107l-0.102,0.227l-0.195,0.191l-0.13,0.023l-0.162,0.181l-0.014,0.167l-0.051,0.069l-0.093,0.042l-0.065,0.144v0.139l-0.055,0.07l-0.121,0.074l-0.042,0.538l0.033,0.325l0.078,0.097l0.005,0.168l-0.065,0.236l-0.014,0.436l0.098,0.576l-0.019,0.181l-0.12,0.431l0.013,0.116l-0.013,0.116l-0.084,0.116l-0.093,0.575l-0.069,0.116l-0.024,0.163l-0.055,0.06l-0.088,0.042l-0.075,0.223l-0.046,0.283l-0.07,0.046l-0.083,0.005l-0.139,0.069l-0.014,0.079l0.051,0.116l-0.065,0.047l-0.153,-0.005l-0.079,-0.074l-0.13,0.041l-0.056,0.223l0.26,0.367l0.162,0.027l0.158,0.116l-0.004,0.14l-0.038,0.041l0.038,0.061l0.162,-0.005l0.209,0.13l-0.019,0.079l-0.088,0.056l-0.056,0.088l0.005,0.12l-0.102,0.102l-0.093,0.038l-0.046,0.181l0.032,0.18l0.056,0.028l0.009,0.065l-0.046,0.107l0.023,0.097l0.264,0.279l0.107,0.004l0.232,0.209l0.037,0.279l0.181,0.269l-0.004,0.083l-0.052,0.088l0.061,0.186l0.134,0.065v0.074l-0.914,0.028l-0.116,0.088l-0.014,0.112l0.033,0.065l-0.047,0.111l-0.12,0.06l-0.042,0.195l0.139,0.334l-0.004,0.079l-0.237,0.269l-0.139,0.056l-0.237,0.139l-0.111,0.223l-0.274,0.167l-0.018,0.069l0.037,0.311l-0.112,0.102l-0.389,0.023l-0.084,0.098l-0.032,0.38l-0.121,0.144l0.018,0.228l0.098,0.092l-0.005,0.153l-0.195,0.13h-0.278l-0.325,0.26l-0.014,0.334l0.075,0.172l-0.051,0.292l-0.07,0.061l0.032,0.204l0.214,0.26l0.236,0.533l0.181,0.19l0.177,0.042l0.649,0.645l0.107,0.246l-0.056,0.046l-0.287,0.014l-0.061,0.079l-0.051,0.241l-0.079,0.065l-0.129,0.024l-0.232,0.371l0.013,0.329l0.093,0.176l-0.032,0.126l-0.093,0.037l-0.186,-0.158l-0.078,0.005l-0.121,0.167l0.018,0.278l-0.143,0.176l0.102,0.089l0.195,0.055l0.027,0.07l-0.088,0.255l0.051,0.167l0.135,0.023l0.065,0.112l-0.014,0.144l0.116,0.055l0.39,-0.107l0.213,0.158l-0.019,0.07l-0.148,0.023l0.005,0.084l0.297,0.125l0.213,-0.047l0.232,0.26l0.316,0.617l0.278,0.274l0.278,0.074l0.246,0.223l0.163,0.037l0.157,-0.088l0.214,0.065l0.088,0.074l0.153,0.009l0.176,-0.083l0.232,0.051l0.024,0.084l-0.163,0.199l-0.032,0.195l-0.14,0.079l-0.334,-0.093l-0.143,0.088l-0.01,0.214l-0.162,0.069l-0.088,-0.028l-0.13,0.07l-0.023,0.125l0.246,0.418l0.083,0.074l-0.019,0.264l0.061,0.079l0.107,-0.004l0.051,-0.2l0.222,-0.028l0.594,0.228h0.33l0.143,-0.116l0.116,0.023l0.223,0.348l-0.009,0.125l-0.172,0.102l-0.009,0.098l0.093,0.102l-0.042,0.088l-0.274,-0.005l-0.357,-0.125l-0.2,0.084l-0.055,0.111l0.065,0.037l0.125,-0.042l0.153,0.079l0.037,0.158l-0.032,0.134l-0.088,0.084l0.013,0.139l-0.074,0.042l-0.932,-0.051l-0.701,0.134l-0.07,0.126l0.061,0.074l0.464,0.005l0.273,0.134l0.01,0.088l-0.084,0.112v0.116l0.084,0.102l-0.079,0.195l-0.218,0.078l-0.441,-0.037l-0.339,-0.171l-0.157,-0.024l-0.07,0.061v0.222l0.288,0.288l0.181,0.084l0.097,0.273l-0.091,0.214l-0.099,0.006l-0.18,-0.173l-0.099,-0.254l-0.074,0.025l-0.247,0.173l-0.353,0.136l-0.13,-0.024l-0.185,0.068l-0.13,0.185l-0.019,0.272l-0.13,0.106l-0.229,0.346l-0.42,0.408l-0.254,0.489l-0.198,0.043l-0.124,0.167l0.006,0.081l0.106,0.13v0.161l-0.291,0.241l-0.081,0.006l-0.074,-0.056h-0.105l-0.526,0.421l-0.154,0.037l-0.081,0.111l-0.012,0.099l-0.062,0.081l-0.093,0.018l-0.068,0.068l-0.087,0.273l-0.142,0.099l0.006,0.068l0.433,0.043l0.378,0.235l0.328,0.328v0.854v0.717l0.866,0.879l0.018,0.192l0.161,0.191l0.056,0.433l-0.025,0.161l0.025,0.384l0.105,0.229l0.087,0.018l0.074,-0.055l0.049,0.018l0.025,0.111l0.136,0.069l0.149,-0.025l0.563,0.136l0.389,0.328l-0.006,0.148l-0.272,0.328l-0.111,0.05l-0.099,0.117v0.099l0.284,0.309l0.211,0.099l0.012,0.112l-0.043,0.086l-0.007,0.223l0.211,0.161v0.105l-0.068,0.136l-0.006,0.198l0.08,0.093v0.26l0.229,0.328l-0.056,0.618l0.062,0.149l-0.019,0.068l-0.148,0.025l-0.037,0.111l0.167,0.117l0.167,0.285l0.049,0.415l0.353,0.723l0.037,0.26l-0.018,0.161l-0.124,0.093l-0.019,0.142l0.18,0.266l0.154,0.408l0.155,0.149l0.192,0.037l0.235,0.118l1.138,1.125l0.05,0.137l0.13,0.092l0.408,0.099l0.588,0.471l0.278,0.334l-0.031,0.092l-0.204,0.081l-0.749,1.089l-0.117,0.061l-0.155,0.205l0.006,0.099l-0.043,0.123l-0.08,0.013l-0.031,0.086l0.031,0.044l-0.031,0.062l-0.39,0.129l-0.062,0.13l0.006,0.068l0.18,0.056l0.043,0.087l0.217,0.105l0.16,0.291l0.402,0.105l0.038,0.074l-0.056,0.204l0.074,0.229l0.006,0.161l-0.148,0.544l-0.142,0.198h-0.452l-0.377,0.143l-0.357,0.033l-0.076,0.072l-0.056,0.278l0.08,0.05l0.087,-0.056l0.254,0.062l0.068,0.08v0.155l-0.062,0.117l-0.019,0.384l0.118,0.161l0.018,0.185l0.167,0.214v0.158l-0.092,0.092l-0.39,0.093l-0.009,0.585l0.463,0.39l0.511,0.25l0.074,0.139l0.102,0.037l0.186,-0.027l0.111,0.074l0.111,0.139l0.39,0.213l-0.018,0.103l-0.39,0.176l-0.251,0.362l-0.018,0.204l0.046,0.232l-0.083,0.566l0.092,0.25l0.214,0.205l0.232,0.065h0.269l0.121,-0.065l0.798,1.122l0.761,1.402v2.088l0.408,0.519v0.084l0.204,0.399l0.186,0.176l-0.075,1.476l0.39,0.287l0.065,0.093l0.232,0.139l0.167,0.316v0.195l-0.093,0.139l0.019,0.185l0.213,0.446l-0.018,0.167l-0.084,0.12l-0.009,0.65l0.232,0.195l0.084,0.278l-0.01,0.381l0.167,0.232l0.112,-0.01l0.055,0.075l0.01,0.287l-0.14,0.177l-0.102,0.232l0.01,0.352l-0.065,0.093l-0.028,0.111l0.102,0.177l-0.065,0.575l0.065,0.056l0.148,0.028l0.399,0.297l1.504,0.111l2.552,-0.594l0.349,-0.64l0.755,-0.477l-0.074,-0.798h0.358l0.291,-0.34l0.965,-0.371l-0.012,-0.266l0.148,-0.371l0.161,-0.774l0.347,-0.185l0.229,0.037l0.092,0.068l0.105,-0.198l1.807,-0.47l0.018,-0.068l0.106,-0.037l0.055,-0.174l0.068,-0.018l0.081,0.037l0.074,-0.037l0.006,-0.384l0.056,-0.092l0.018,-0.167l-0.024,-0.118l0.043,-0.235l0.093,-0.093l0.154,-0.557l-0.03,-0.396l0.086,-0.068l0.21,0.075l0.792,0.278l0.235,0.26l-0.024,0.328l0.816,0.111l0.786,0.984h0.08l0.285,0.21l0.136,0.025l0.105,-0.081l0.118,0.025l0.105,0.074l0.569,-0.111l0.105,-0.142l0.532,0.105l3.298,-0.062l0.16,0.124l0.242,0.086l0.148,0.087l0.365,0.012l0.446,0.248l0.086,0.086l0.149,0.037l0.117,0.087l0.124,0.019l0.056,-0.05h0.352l0.266,0.118l0.155,0.284l0.148,0.068l0.223,0.192l0.013,0.118l-0.186,0.179l-0.019,0.124l0.037,0.229l0.297,0.259v0.087l-0.068,0.093l0.037,0.049l0.13,-0.055l0.05,0.024l0.099,0.186l-0.006,0.074l0.191,0.186l-0.012,0.08l0.05,0.044h0.099l0.111,0.117l0.012,0.198l-0.099,0.111l-0.037,0.415l0.217,0.291l-0.006,0.191l0.092,0.062l0.229,0.062l0.124,0.223l-0.043,0.26l0.074,0.154l0.031,0.279l0.056,0.074l0.061,-0.006l0.05,-0.105l-0.056,-0.081l0.019,-0.062l0.105,-0.031l0.031,-0.08l-0.062,-0.111l0.031,-0.112l0.093,-0.018l0.012,-0.05l-0.056,-0.074l0.025,-0.229l0.056,-0.105l0.025,-0.291l-0.038,-0.136l0.118,-0.309l0.062,-0.056l0.025,-0.056l-0.044,-0.111l0.031,-0.111l0.124,-0.006l0.025,-0.056l-0.037,-0.13l0.043,-0.142l0.117,-0.05l0.236,-0.383l0.068,-0.05l0.08,-0.148l-0.019,-0.099l0.056,-0.062l0.105,-0.019l0.056,-0.148l-0.019,-0.105l0.174,-0.396l0.018,-0.149l0.13,-0.303l0.155,-0.012l0.093,-0.198l-0.007,-0.161l0.075,-0.149l0.099,-0.08l0.086,-0.21l-0.012,-0.167l0.086,-0.112l0.093,-0.018l0.143,-0.452l0.111,-0.161h1.435l0.051,0.133l0.091,0.028v0.21h0.05l0.099,-0.371h5.704l-0.006,0.056l-0.081,0.077l-0.006,0.195l0.108,0.111l-0.006,0.109l-0.084,0.182l0.041,0.279l0.108,0.145l0.071,0.006l0.031,-0.074l0.068,-0.009l0.198,0.145l0.087,0.161l0.25,0.111l0.155,0.257l0.083,0.003l0.007,-0.09l0.065,-0.012l2.499,-8.166l-0.037,-3.39l2.289,-3.254l1.212,-3.056l7.436,-1.2l4.182,-1.089l5.939,-0.062l5.545,3.294l0.482,0.357l-0.255,0.246l-0.018,0.209l0.041,0.056l0.01,0.171l-0.056,0.112l0.037,0.116l0.107,0.079l0.069,0.348l0.098,0.083l0.014,0.074l-0.037,0.065l0.014,0.14l0.157,0.287l-0.065,0.125l-0.083,0.028l-0.07,0.093l0.005,0.081h0.049l0.081,-0.099l0.21,-0.044l0.142,-0.229l0.149,-0.043h0.111l0.074,-0.031l0.062,-0.247l0.099,-0.056h0.235l0.106,-0.062l0.117,-0.173l0.111,-0.012l0.167,0.117l0.069,-0.012l0.235,-0.31l0.037,-0.136l-1.801,-1.435l2.153,-4.918h0.483l0.093,-0.167l-0.013,-0.142l-0.142,-0.093v-0.538h-0.309l1.342,-4.498l0.687,-0.062v-0.062l-0.155,-0.136l-0.173,-0.049l-0.439,-0.433l-0.155,-0.551l-0.817,-1.528h0.242l0.006,-0.148l-0.223,-0.248l0.044,-0.284l-0.118,-0.087l-0.179,-0.347l-0.112,-0.061l-0.043,-0.155l0.025,-0.179l-0.081,-0.31l0.05,-0.037l0.192,0.043l-0.854,-0.767l-0.687,0.427l-0.34,-0.167l-0.099,-0.204l-0.105,-0.037l-0.18,0.049l-0.13,-0.086l0.007,-0.173l-0.05,-0.062l-0.093,0.018l-0.068,-0.074l0.006,-0.099l-0.049,-0.037l-0.192,0.043l-0.08,-0.062v-0.092l-0.062,-0.075l-0.279,-0.043l-0.154,-0.142l-0.081,-0.223l-0.464,-0.612l-0.247,-0.236l-0.006,-0.247l0.049,-0.155l-0.068,-0.049l-0.117,0.018l-0.081,-0.049l-0.031,-0.223l0.056,-0.124l0.006,-0.123l-0.049,-0.087l-0.007,-0.223l-0.247,-0.352l-0.012,-0.112l0.049,-0.092l-0.012,-0.415l-0.087,-0.167l0.025,-0.167l0.062,-0.043l0.037,-0.05l-0.087,-0.297l0.062,-0.569l0.142,-0.39l0.106,-0.148l0.167,-0.087l0.092,-0.117l0.31,-0.26l0.031,-0.179l-0.093,-0.155l-0.056,-0.229l0.074,-0.192l0.242,-0.204l0.031,-0.377l-0.124,-0.272l-0.043,-0.019l-0.087,0.031h-0.136l-0.13,-0.056l-0.049,0.006l-0.019,0.143l-0.074,0.142l-0.186,0.099l-11.377,-0.377l-0.433,-5.352l-2.19,-2.524h2.159l-0.191,-3.198l-0.112,0.025l-0.185,-0.105l-0.062,-0.137l-0.013,-0.263l-0.051,-0.278l-0.222,-0.297l-0.028,-0.125l-0.112,-0.098l-0.041,-0.25l0.046,-0.084l-0.009,-0.083l-0.07,-0.037l-0.278,-0.325l-0.074,-0.325l0.069,-0.111v-0.07l-0.06,-0.046l-0.047,-0.232l-0.046,-0.037l-0.06,0.014l-0.056,-0.047l0.033,-0.106l0.074,-0.103l-0.023,-0.292l0.041,-0.144l0.089,-0.018l0.153,-0.126l0.06,-0.157l0.102,-0.102l0.07,-0.237l0.083,-0.037l0.023,-0.051l-0.051,-0.047l-0.097,0.005l-0.065,-0.014l-0.023,-0.097l0.028,-0.107l-0.061,-0.065l-0.12,-0.014l-0.051,-0.046l-0.01,-0.26l-0.032,-0.033l-0.07,0.01l-0.018,-0.042l0.083,-0.149l-0.037,-0.037l-0.144,0.033l-0.014,-0.037l0.088,-0.093l-0.004,-0.046l-0.065,-0.033v-0.046l0.102,-0.014l0.014,-0.061l-0.07,-0.092l-0.274,-0.014l-0.037,-0.042l0.037,-0.074l-0.032,-0.047l-0.107,0.005l-0.051,0.056l-0.046,-0.014l-0.102,-0.163l-0.102,-0.065l-0.102,0.01l-0.061,-0.028l-0.004,-0.098l-0.079,-0.032l-0.125,0.097l-0.103,-0.018l-0.125,-0.093l-0.028,-0.121l-0.046,-0.004l-0.028,0.065h-0.042l-0.074,-0.112l-0.185,-0.055h-0.116l-0.093,-0.042l-0.037,-0.093l-0.102,-0.051l-0.084,-0.005l-0.051,-0.032l-0.023,-0.098l-0.084,-0.064l-0.185,0.004l-0.14,-0.074l-0.051,-0.102l-0.167,-0.135l-0.078,-0.162l0.023,-0.102l-0.061,-0.028l-0.12,0.065l-0.079,-0.009l-0.042,-0.056l-0.111,-0.005l-0.121,0.075l-0.074,-0.056l0.005,-0.084h0.055l0.023,-0.037l-0.051,-0.055l0.01,-0.056l0.092,-0.046v-0.042l-0.19,-0.023l-0.125,0.106l-0.111,0.01l-0.186,-0.103l-0.07,0.01l-0.06,0.148l0.005,0.079l-0.051,0.019l-0.172,-0.056l-0.005,-0.06h-0.037l-0.028,0.069h-0.046l-0.144,-0.093l-0.069,0.019l0.009,0.097l-0.051,0.047l-0.255,-0.065l-0.07,-0.074l0.014,-0.07l-0.037,-0.046l-0.088,-0.01l-0.107,0.07l-0.065,-0.037l-0.009,-0.093l-0.061,-0.056l-0.046,0.028l0.019,0.102l-0.056,0.047l-0.162,0.018l-0.103,0.079l-0.297,0.014l-0.106,0.111l-0.344,0.112l-0.255,-0.033l-0.278,-0.185l-0.167,-0.028l-0.056,-0.056l0.019,-0.093l-0.051,-0.032l-0.172,0.125h-0.051l-0.028,-0.051l-0.042,0.009l-0.023,0.065l-0.13,0.014l-0.13,-0.046l-0.153,-0.005l-0.38,0.126l-0.033,0.065h-0.055l-0.038,-0.103h-0.041l-0.042,0.065l-0.181,0.005l-0.06,0.06l-0.112,0.01l-0.032,-0.079h-0.051l-0.037,0.046l-0.061,-0.009l-0.13,-0.269l0.01,-0.255l-0.061,-0.14l-0.055,-0.037l-0.07,0.023l-0.079,-0.037l-0.065,-0.079l-0.083,-0.051l-0.07,0.01l-0.074,-0.065l-0.005,-0.093l-0.088,-0.125h-0.12l-0.084,-0.061l-0.023,-0.162l-0.042,-0.046l-0.088,0.004l-0.121,-0.111l-0.014,-0.107l-0.046,-0.037h-0.097l-0.228,-0.218l0.028,-0.079v-0.19l-0.042,-0.093l0.005,-0.269l-0.033,-0.088l-0.088,-0.014l-0.074,0.06l-0.065,-0.018l-0.079,-0.126l-0.009,-0.102l-0.037,-0.055l-0.056,0.023l0.005,0.144l-0.079,0.074l-0.06,-0.023l-0.019,-0.163l-0.116,-0.069l-0.144,0.037l-0.06,0.185l-0.163,0.033l-0.083,-0.065l-0.158,-0.033l-0.055,0.047l-0.256,-0.014l-0.195,-0.065l-0.037,-0.07l-0.055,-0.023l-0.089,0.019l-0.106,-0.126v-0.102l-0.037,-0.032l-0.102,0.023l-0.028,-0.037l0.037,-0.074l-0.037,-0.019l-0.056,0.065l-0.037,-0.005l-0.014,-0.102l-0.046,0.005l-0.024,0.097l-0.074,0.047l-0.065,-0.009l-0.074,-0.084l-0.079,-0.005l-0.056,0.042l-0.074,-0.004l-0.394,-0.219l-0.023,-0.088l0.06,-0.065l-0.033,-0.041l-0.092,0.027l-0.056,-0.037l0.019,-0.083l-0.038,-0.037l-0.069,0.009l-0.033,-0.042l0.019,-0.102l-0.056,-0.023l-0.111,0.135l-0.32,0.092l-0.056,0.107l-0.046,-0.009l-0.047,-0.074h-0.051l-0.046,0.069l-0.074,-0.005l-0.158,-0.129l-0.084,-0.214l0.014,-0.116l-0.046,-0.065l-0.107,-0.004l-0.097,0.078l-0.037,-0.032l0.009,-0.125l-0.283,-0.307l-0.019,-0.134l-0.246,-0.102l-0.278,0.088l-0.218,-0.13l-0.051,-0.056l0.018,-0.102l-0.051,-0.157l-0.102,-0.089l-0.069,-0.213l-0.093,-0.102l-0.139,-0.047l0.009,-0.129l0.088,-0.098l-0.014,-0.042l-0.158,0.005l-0.046,-0.056l0.028,-0.092l-0.074,-0.061l-0.112,-0.004l-0.181,-0.2l-0.111,-0.042l-0.186,0.088l-0.018,0.14l-0.195,0.083l-0.093,-0.018l-0.032,0.027l0.074,0.116l-0.051,0.042l-0.251,-0.028l-0.496,-0.185l-0.144,-0.005l-0.148,-0.116l-0.038,-0.125l-0.078,-0.07l-0.14,-0.028l-0.004,-0.046l0.051,-0.051l-0.028,-0.13l-0.088,-0.06l-0.265,-0.005l-0.264,-0.139l-0.153,-0.218l-0.385,-0.158l-0.065,-0.083l-0.177,-0.075l-0.13,0.005l-0.097,-0.033l-0.079,-0.078l-0.459,-0.037l-0.112,-0.061l-0.092,0.009l-0.242,0.191l-0.148,-0.005l-0.116,-0.074l-0.116,0.009l-0.074,0.181l-0.019,0.19l-0.246,0.149h-0.125l-0.181,-0.153l-0.107,-0.005l-0.079,0.046l-0.167,-0.004l-0.092,-0.116l-0.079,-0.019l-0.07,0.047h-0.065l-0.028,-0.079l-0.055,-0.005l-0.075,0.107h-0.06l-0.028,-0.116l-0.069,-0.028l-0.065,0.032l-0.019,0.13l-0.069,0.047l-0.084,-0.056l-0.019,-0.218l-0.051,-0.019l-0.06,0.033l-0.069,-0.009l-0.042,-0.056l-0.158,-0.028l-0.311,0.283l-0.097,-0.004l-0.042,-0.089l0.056,-0.125l-0.037,-0.056l-0.409,-0.009l-0.366,-0.13l-0.311,-0.352l-0.288,-0.186l-0.037,-0.121l0.116,-0.25l-0.009,-0.265l-0.079,-0.264l-0.084,-0.033l-0.13,0.112l-0.092,-0.005l-0.107,-0.13l-0.065,-0.023l-0.204,0.005l-0.409,-0.167l-0.167,-0.019l-0.116,-0.116l-0.013,-0.283l0.102,-0.186l-0.019,-0.088l-0.111,-0.023l-0.107,0.111v0.251l-0.088,0.116l-0.074,-0.009l-0.056,-0.098l0.056,-0.148l0.009,-0.102l-0.172,-0.107l-0.116,0.005l-0.13,0.195l-0.074,0.004l-0.056,-0.069l0.005,-0.084l0.07,-0.102l0.12,-0.07l0.01,-0.092l-0.089,-0.214l-0.102,-0.079l-0.26,0.005l-0.213,0.102l-0.116,-0.037l-0.056,-0.125l-0.083,-0.056l-0.107,0.037l-0.042,0.097h-0.074l-0.093,-0.134l-0.097,-0.019l-0.093,0.033l-0.065,-0.065l0.047,-0.093l-0.051,-0.111l0.055,-0.093l0.051,-0.302l-0.069,-0.065l-0.209,-0.06l-0.065,-0.088l0.074,-0.265l-0.005,-0.232l-0.125,-0.357l0.005,-0.107l-0.047,-0.083l-0.102,-0.023l-0.148,0.083l-0.381,0.014l-0.009,0.074l0.06,0.089l-0.018,0.055l-0.079,0.014l-0.357,-0.195l-0.116,-0.102l0.004,-0.088l0.13,-0.111l0.135,-0.177l0.005,-0.106l-0.079,-0.116v-0.07l0.032,-0.06l-0.005,-0.056l-0.051,-0.079l-0.004,-0.097l0.125,-0.144l-0.005,-0.149l-0.092,-0.069l-0.2,-0.009l-0.227,-0.042l-0.107,-0.084l-0.107,-0.719l-0.06,-0.209l0.037,-0.088l0.149,-0.023l0.097,-0.042l0.009,-0.065l-0.065,-0.055l-0.194,-0.005l-0.112,-0.074l-0.093,-0.306l0.01,-0.219l0.097,-0.125l0.13,-0.055l-0.014,-0.061l-0.144,-0.032l-0.088,-0.265l0.051,-0.12l0.163,-0.135l0.264,-0.07l0.051,-0.116l-0.005,-0.097l-0.097,-0.125l-0.009,-0.102l0.185,-0.195l0.093,-0.014l0.033,-0.098l-0.084,-0.092l-0.046,-0.135l0.014,-0.172l-0.056,-0.371l-0.279,-0.32l-0.167,-0.088l-0.046,-0.139l0.042,-0.121l0.004,-0.306l-0.032,-0.362l-0.153,-0.139l-0.111,0.004l-0.13,-0.088l-0.019,-0.134l0.088,-0.214l-0.046,-0.195l-0.102,-0.116l-0.005,-0.078l0.06,-0.07l0.005,-0.093l-0.102,-0.079l-0.009,-0.065l0.046,-0.074l0.102,-0.028l0.13,-0.144l0.056,-0.232l-0.07,-0.106v-0.088l0.098,-0.191l0.32,-0.311l0.116,-0.334l0.088,-0.083l0.028,-0.163l-0.107,-0.338l0.051,-0.158l-0.014,-0.288l-0.107,-0.111l-0.074,-0.204l0.042,-0.19l0.014,-0.27l-0.079,-0.102l0.009,-0.236l0.079,-0.2l0.158,-0.157l0.079,-0.144l-0.033,-0.135l-0.199,-0.167l-0.232,-0.617l-0.232,-0.218l-0.334,-0.121l-0.056,0.033l0.033,0.111l-0.163,0.163l-0.125,0.013l-0.116,0.144l0.004,0.279l-0.083,0.079l-0.135,-0.014l-0.157,0.176l0.046,0.139l-0.037,0.042l-0.209,-0.009l-0.028,-0.061l-0.083,-0.028l-0.102,0.047l-0.084,-0.023l-0.107,-0.242l-0.153,-0.06l-0.153,0.176l-0.069,-0.023l0.032,-0.139l-0.046,-0.093l0.018,-0.046h0.149l0.023,-0.056l-0.065,-0.069l-0.251,0.055l-0.069,0.139l-0.065,0.014l-0.102,-0.125l-0.033,-0.167l-0.06,0.009l-0.009,0.218l-0.126,0.135l-0.088,-0.051l0.019,-0.135l-0.065,-0.023l-0.26,0.223l-0.088,-0.037l-0.019,-0.167l-0.148,-0.047l-0.483,0.121l-0.051,0.148l-0.102,0.07l-0.232,-0.005l-0.102,-0.106h-0.241l-0.07,0.111l-0.074,0.014l-0.065,-0.144h-0.246l-0.246,0.111l-0.088,0.158l-0.12,0.033l-0.126,-0.088l-0.116,0.023l-0.046,0.097l-0.311,0.042l-0.176,-0.088l-0.255,0.051l-0.103,0.134l-0.278,0.047l-0.121,0.195l-0.074,-0.01l-0.032,-0.167l-0.288,-0.009l-0.111,0.084l-0.316,0.013l-0.274,0.093l-0.134,-0.014l-0.111,0.07l-0.061,0.246l-0.069,0.028l-0.084,-0.047l-0.056,0.033l-0.06,0.13l-0.186,0.102l-0.12,0.004l-0.524,0.367l-0.033,0.088l-0.172,0.121l-0.037,0.097l-0.06,0.042l-0.093,-0.019l-0.079,0.042l-0.037,0.093l-0.232,0.278l-0.13,0.033l-0.079,0.065l-0.023,0.148l-0.069,0.056h-0.093l-0.135,0.121l-0.014,0.12l-0.125,0.232l-0.431,0.19l-0.135,-0.018l-0.223,0.088l-0.004,0.125l-0.242,0.139h-0.111l-0.074,-0.097l-0.228,-0.028l-0.134,0.074h-0.07l-0.12,-0.069l-0.228,0.009l-0.041,0.088l0.064,0.107l-0.004,0.176l-0.074,0.042l-0.093,-0.028l-0.065,0.014l-0.019,0.06h-0.06l-0.065,-0.074l-0.172,-0.023l-0.102,0.014l-0.018,0.111l0.041,0.061l-0.018,0.143l-0.07,0.019l-0.074,0.06l-0.07,0.126l-0.417,0.153l-0.042,0.079l-0.083,0.023l-0.075,-0.014l-0.19,0.093l-0.241,0.222l-0.028,0.153l-0.167,0.154l-0.005,0.078l-0.125,0.107l-0.134,0.014l-0.228,0.654l-0.195,0.014l-0.065,-0.107l-0.468,-0.264l-0.325,-0.093l-0.227,0.014l-0.107,0.093l-0.098,0.005l-0.055,-0.038h-0.139l-0.056,0.042l-0.088,-0.004l-0.065,-0.07h-0.144l-0.209,0.088l-0.301,0.283l-0.079,0.153l0.051,0.139l-0.056,0.223l-0.464,0.492l-0.102,0.046l-0.037,0.093l0.014,0.093l-0.06,0.107l-0.089,0.028l-0.065,0.088l0.005,0.181l-0.302,0.259l-0.348,0.158l-0.148,-0.032l-0.204,0.074l-0.079,0.218l-0.097,0.009l-0.042,-0.083l-0.126,-0.023l-0.046,0.065l-0.329,0.055l-0.102,0.126l-0.228,0.167l-0.069,0.102l-0.613,0.181l-0.394,0.065l-0.07,-0.033l0.014,-0.088l-0.097,-0.186l-0.116,-0.046l-0.116,-0.19l0.055,-0.283l-0.041,-0.112l-0.237,-0.079l-0.357,0.014l-0.116,0.075l-0.265,0.046l-0.209,-0.046l-0.078,-0.107l-0.121,-0.028l-0.125,0.102l-0.158,-0.037l-0.07,-0.093l-0.315,-0.093l-0.186,0.042l-0.389,-0.083l-0.172,-0.098l-0.413,-0.046l-0.195,0.042l-0.622,-0.042l-0.19,-0.07l-0.278,0.005l-0.116,0.107l-0.195,0.004l-0.056,-0.069l-0.288,-0.024l-0.1,0.058l-0.142,-0.007z"/>
</svg>
