<svg xmlns="http://www.w3.org/2000/svg" viewBox="665.614 633.357 36.132 38.016">
  <path d="M665.624267,669.831732l-0.009829,-0.039315l0.011795,-0.031452l0.032466,-0.016678l0.004699,-0.029763l-0.012532,-0.036029l0.007832,-0.07989l0.045428,-0.075191l0.032896,-0.018798l0.059526,-0.050127l0.020364,-0.025064l0.03133,-0.003133l0.073624,0.03133l0.062659,0.012532l0.045428,0.040728l0.062659,0.125318l0.05326,0.02663l0.023497,0.036029l0.07989,0.043861l0.046994,0.045428l0.123752,0.064226l0.089289,0.03133l0.025064,0.029763l0.009399,0.028197l0.032896,0.012532l0.040728,-0.009399l0.051694,0.004699l0.064226,0.03133l0.148815,0.032896h0.059526l0.062659,-0.009399l0.090856,0.032896l0.010965,0.042295l-0.02663,0.068925l-0.028197,0.018798l-0.017231,0.03133l0.009399,0.021931l-0.007832,0.020364l-0.018798,0.018798l-0.004699,0.034462l-0.015665,0.004699l-0.025064,-0.001566l-0.025064,0.012532l0.010965,0.010965l0.014098,-0.003133l0.010965,-0.007832h0.025064l0.025064,0.065792l0.020364,0.086156l0.046994,0.114353l0.004699,0.100254l-0.072058,0.114353l-0.089289,0.054827l-0.018798,-0.001566l0.004699,-0.015665l0.017231,-0.006266l0.018798,-0.001566l0.003133,-0.025064l-0.039162,-0.043861l-0.03133,-0.014098l-0.020364,0.004699l-0.040728,0.061093l-0.023497,0.015665l-0.003133,0.025064l-0.012532,0.014098v0.042295l0.012532,0.010965l0.012532,-0.007832l0.003133,-0.015665l0.012532,-0.001566l0.023497,0.056393l0.010965,0.076757l0.028197,0.078324l0.014098,0.03133v0.089289l-0.064226,0.120619l-0.093989,0.036029l-0.020364,-0.014098l-0.012532,-0.021931l-0.034462,-0.025064l-0.029763,-0.012532l-0.018798,-0.037595l-0.034462,-0.072058l-0.032896,-0.023497l-0.032896,-0.014098l-0.012532,-0.040728l0.015665,-0.07989l-0.003133,-0.039162l-0.018798,-0.065792l-0.007832,-0.056393l-0.015665,-0.039162l-0.045428,-0.046994l-0.003133,-0.037595l0.046994,-0.067358l0.020364,-0.039162l0.045428,-0.03133l0.012532,-0.043861l-0.02663,-0.097122l-0.043861,-0.036029l-0.007832,-0.017231v-0.029763l-0.054827,-0.097122l-0.010965,-0.046994l-0.048561,-0.050127l-0.114353,-0.081457h-0.034462l-0.119052,-0.048561l-0.068925,-0.014098l-0.22244,-0.003133l-0.029763,0.004699l-0.03133,-0.004699l-0.020364,-0.015665l-0.050127,-0.012532l-0.023497,-0.048561l0.006266,-0.054827l-0.015665,-0.050127l-0.034432,-0.031606Z M666.261792,670.518125l0.064226,0.006266l0.034462,0.025064l0.05326,-0.001566l0.045428,-0.040728l0.003133,-0.051694l-0.043861,-0.05326l-0.070491,-0.009399l-0.037595,0.014098l-0.046994,0.014098l-0.004699,0.021931l-0.037595,0.056393l0.009399,0.025064l0.03133,-0.006266Z  M701.386493,634.433314l-0.01966,-0.081098l0.017203,-0.04915l0.002458,-0.071268l0.014745,-0.024575l0.036863,0.00983l0.022118,0.056523l0.022118,0.004915l0.02949,-0.007373l0.017203,0.02949l-0.007373,0.041778l0.04915,0.044235h0.031948l0.117961,0.071268l0.027033,0.056523l-0.01966,0.071268l-0.044235,0.036863l-0.076183,0.014745l-0.093386,-0.022118l-0.041778,-0.066353l-0.004915,-0.034405l-0.04915,-0.036863l-0.031948,-0.044235Z  M699.769444,633.610044l0.078641,0.002458l0.041778,-0.01966l0.044235,-0.007373l0.014745,-0.014745l-0.002458,-0.01966l0.044235,-0.071268l-0.007373,-0.02949l-0.02949,-0.007373v-0.01966l0.017203,-0.022118l-0.014745,-0.017203l-0.02949,0.007373l-0.066353,-0.00983l-0.027033,-0.022118l-0.022118,-0.002458l-0.012288,0.022118l-0.027033,0.012288l-0.027033,-0.002458l-0.00983,0.014745l0.007373,0.02949l-0.027033,0.056523l-0.017203,0.066353l0.014745,0.031948l0.056523,0.022118Z "/>
</svg>
