<svg xmlns="http://www.w3.org/2000/svg" viewBox="1139.230 1150.567 0.988 0.622">
  <path d="M1139.229661,1151.002447l0.008126,-0.009751l0.014627,0.00325l-0.00325,0.011376l-0.009751,0.004876l-0.009751,-0.009751Z M1139.673343,1150.638399l-0.094262,0.022753l-0.081261,0.009751h-0.113765l-0.039005,0.008126l-0.008126,-0.022753l-0.034129,-0.006501l-0.004876,0.017877l0.019503,0.016252v0.019503l-0.024378,0.006501l-0.026003,0.030879l0.00325,0.039005l0.021128,0.029254l0.001625,0.035755l-0.016252,0.021128l-0.00325,0.014627l0.017877,0.006501l0.001625,0.013002l-0.013002,0.009751l-0.001625,0.011376l0.027629,0.024378v0.032504l-0.014627,0.017877l0.009751,0.009751l0.026003,-0.009751l0.026003,0.030879l0.034129,0.017877l0.029254,0.04063l0.03738,0.026003l0.022753,0.030879l0.009751,0.027629l0.030879,0.009751l0.079635,-0.00325l0.030879,-0.017877l0.095887,-0.030879l0.063383,-0.011376l0.050382,0.014627h0.022753l0.019503,-0.006501l0.043881,-0.004876l0.035755,0.006501l0.120266,-0.016252l0.030879,-0.013002l0.014627,-0.029254l0.021128,-0.014627l0.061758,-0.139768l0.006501,-0.042255l-0.027629,-0.081261l-0.035755,-0.021128l-0.061758,-0.076385l-0.04063,-0.021128h-0.034129l-0.04063,-0.017877l-0.045506,-0.032504l-0.063383,-0.014627l-0.087761,0.008126l-0.047131,-0.016252l-0.024378,-0.034129l-0.019503,0.008126v0.043881l-0.013002,0.022753Z M1139.450689,1151.189346l0.019503,-0.006501l-0.006501,-0.014627h-0.014627l-0.014627,0.013002l0.016252,0.008126Z "/>
</svg>
