<svg xmlns="http://www.w3.org/2000/svg" viewBox="1249.220 869.625 61.916 63.173">
  <path d="M1249.220151,918.044715l0.066,0.065l0.108,0.07l0.046,0.058l0.017,0.076l0.042,0.035l0.132,0.021l0.039,0.041v0.059l0.041,0.028h0.077l0.035,0.038l-0.018,0.09l0.046,0.038l0.073,0.027l0.042,0.052l0.017,0.087l0.049,0.031l0.146,-0.031l0.066,0.017l0.178,0.187l0.052,0.007l0.056,-0.09l0.042,0.003l0.101,0.132l0.042,0.01l0.073,-0.028l0.174,0.073l0.059,0.145l0.091,0.056l0.014,0.103l0.076,0.073l0.105,0.038l0.059,0.059l0.021,0.066l0.049,0.024l0.076,0.01l0.046,0.042l0.031,0.065l0.16,0.059l0.018,0.066l-0.028,0.131l0.045,0.076l0.181,0.08l0.004,0.045l-0.039,0.072l0.014,0.021l0.059,0.011l0.053,0.055v0.048l-0.035,0.028l0.003,0.035l0.046,0.031v0.038l-0.018,0.027l-0.003,0.049l0.076,0.045l0.053,-0.004l0.055,-0.058l0.049,0.006l0.038,0.052v0.076l-0.062,0.101l-0.059,0.024l-0.032,0.045l0.105,0.124l0.007,0.063l0.059,0.038l0.108,-0.025l0.063,0.035l-0.056,0.159l0.003,0.049l0.091,0.103l0.094,0.018l0.063,0.065l0.108,0.011l-0.004,0.038l-0.16,0.086l-0.024,0.073l0.027,0.045l0.06,0.003l0.094,-0.034l0.038,0.038l-0.049,0.145l0.004,0.055l0.156,0.287l0.095,0.014l0.08,-0.034l0.048,0.013l0.042,0.059l-0.035,0.107l0.007,0.063l0.049,0.017l0.115,-0.038l0.045,0.024l-0.014,0.045l-0.083,0.062l-0.007,0.059l0.063,0.076h0.094l0.122,-0.11l0.062,0.006l0.032,0.049l-0.011,0.069l-0.042,0.035l-0.142,0.01l-0.039,0.038l0.028,0.125l-0.01,0.058l-0.077,0.066l0.007,0.097l0.045,0.034l0.087,0.007l0.174,0.173l0.129,0.256l-0.038,0.049l-0.167,0.027l-0.091,0.177l0.035,0.048l0.129,-0.052l0.073,0.035l-0.007,0.128l-0.066,0.11l0.007,0.121l0.066,0.063l0.143,0.079l0.094,0.111l0.052,0.162l-0.007,0.132l0.032,0.028l0.111,0.013l0.073,0.056v0.069l-0.087,0.062l-0.066,0.107l0.014,0.059l0.045,0.017l0.07,-0.031l0.038,-0.079l0.098,-0.066l0.059,0.021l0.003,0.052l-0.017,0.031l-0.007,0.055l0.024,0.049l-0.006,0.048l-0.035,0.073l0.024,0.062l0.129,0.031l0.042,0.052v0.131l-0.077,0.056l-0.01,0.058l0.035,0.121l0.236,0.215v0.062l-0.055,0.059l-0.018,0.114l-0.066,0.093v0.049l0.098,0.114l0.007,0.1l-0.032,0.069l-0.066,0.056l0.003,0.052l0.063,0.055l0.07,0.045l-0.004,0.052l-0.097,0.086l-0.007,0.052l0.118,0.111l0.087,0.01l0.046,0.042l-0.007,0.055l-0.126,0.173l-0.115,0.069l-0.055,0.121l-0.014,0.177l-0.039,0.089l-0.021,0.115l-0.083,0.103l-0.014,0.069l-0.188,0.09l-0.042,0.056l-0.077,0.173l-0.142,0.096l-0.042,0.066l-0.035,0.094l-0.087,0.086l-0.014,0.169l-0.031,0.045l-0.115,0.021l-0.136,0.208l-0.053,0.031l-0.125,0.007l-0.063,0.072l-0.027,0.374l-0.039,0.076l-0.003,0.066l0.021,0.086l0.01,0.173l0.136,0.19l0.01,0.19l-0.021,0.177v0.107l0.049,0.035l-0.007,0.052l-0.118,0.079l-0.025,0.097l0.032,0.138l0.097,0.09l-0.003,0.055l-0.045,0.08l0.007,0.062l0.066,0.08l-0.007,0.062l-0.08,0.076v0.035l0.087,0.038l0.073,0.09l-0.004,0.048l-0.034,0.052l0.01,0.059l0.118,0.027l0.136,0.056l0.007,0.059l-0.045,0.069v0.059l0.066,0.238l0.042,-0.003l0.07,-0.087l0.024,-0.11l0.094,-0.056h0.251l0.07,-0.038l0.073,-0.11l0.062,-0.032h0.133l0.042,-0.034l0.014,-0.097l0.045,-0.031l0.139,-0.007l0.234,-0.125l0.167,-0.003l0.191,0.093h0.067l0.114,-0.031l0.063,0.011l0.23,0.245l0.066,0.021h0.178l0.066,0.028l0.07,0.003l0.069,-0.014l0.126,0.042l0.129,0.024l0.076,0.093l0.074,0.004l0.094,-0.038l0.156,-0.004l0.129,-0.104l0.129,-0.055l0.077,0.004l0.111,0.013l0.115,-0.048h0.08l0.094,0.055h0.115l0.101,-0.062l0.084,-0.083l0.101,-0.007l0.132,0.028h0.074l0.108,-0.049l0.132,0.004l0.164,0.041l0.108,0.094l0.195,0.027l0.17,0.108h0.074l0.066,-0.097l0.066,-0.024l0.094,0.024l0.056,-0.004l0.052,-0.045l0.108,-0.003l0.094,0.045l0.136,0.121l0.073,0.01l0.164,-0.003l0.073,-0.062h0.056l0.073,0.024l0.066,-0.007l0.244,-0.221l0.139,-0.087l0.073,-0.079l0.06,-0.018l0.017,-0.034l0.003,-0.083l0.056,-0.08l-0.003,-0.052l-0.049,-0.117l0.01,-0.163l-0.094,-0.128l-0.003,-0.093l0.069,-0.104l0.154,-0.059l0.097,-0.059h0.115l0.275,0.07l0.133,-0.007l0.063,-0.038l0.111,-0.004l0.091,0.045l0.073,-0.003l0.226,-0.139l0.108,-0.017l0.112,-0.069l0.219,-0.031l0.119,-0.177l0.052,-0.193l0.038,-0.038l0.077,-0.025l0.069,-0.121l0.035,-0.034l0.122,-0.021l0.028,-0.045l0.017,-0.104l0.035,-0.041l0.126,-0.062l0.024,-0.073l-0.045,-0.076l0.01,-0.045l0.14,-0.076l0.027,-0.08l-0.014,-0.103l0.014,-0.052l0.094,-0.059l0.007,-0.069l-0.062,-0.09l0.024,-0.066l0.282,-0.169l0.007,-0.097l0.053,-0.059l0.261,-0.062l0.125,0.024l0.049,-0.01l0.097,-0.132l0.108,-0.007l0.067,0.038l0.062,-0.007l0.032,-0.055l-0.035,-0.197l0.038,-0.035l0.126,-0.003l0.108,-0.08l0.021,-0.065l-0.042,-0.076l0.014,-0.042l0.076,-0.052l0.035,-0.09l0.042,-0.014l0.115,0.035l0.083,-0.007l0.053,-0.066l0.024,-0.089l0.063,-0.028l0.223,0.086l0.122,0.09l0.139,-0.01l0.063,-0.049l0.031,-0.093l0.094,-0.118l0.007,-0.304l0.042,-0.017l0.084,0.062l0.045,-0.017l0.021,-0.128l0.066,-0.035l0.111,-0.027l0.004,-0.059l-0.035,-0.049l0.007,-0.065l0.244,-0.135l0.024,-0.073l-0.007,-0.162l-0.042,-0.111l0.018,-0.073l0.066,-0.01l0.213,0.045l0.104,-0.045l0.021,-0.297l-0.038,-0.108l0.014,-0.079l0.146,-0.132l0.003,-0.038l-0.195,-0.093l-0.035,-0.076l0.014,-0.052l0.119,-0.031l0.038,-0.045l-0.014,-0.104l0.032,-0.052l0.188,-0.076l0.062,-0.093l-0.017,-0.087l-0.258,-0.135l0.007,-0.041l0.126,-0.021l0.034,-0.062l0.035,-0.294l0.042,-0.045l0.153,-0.048l0.154,-0.211l0.007,-0.121l0.048,-0.08l-0.007,-0.035l-0.111,-0.034l-0.07,-0.083l0.004,-0.059l0.146,-0.073l0.146,-0.006l0.032,-0.032l-0.007,-0.041l-0.216,-0.173l0.01,-0.045l0.066,-0.076l0.073,-0.156l0.07,-0.072l0.028,-0.111l0.031,-0.055l-0.01,-0.038l-0.077,-0.066l0.011,-0.048l0.09,-0.063l0.108,0.028l0.087,0.048l0.049,-0.017l-0.007,-0.038l-0.083,-0.052l0.003,-0.055l0.087,-0.097l0.07,-0.187l0.087,-0.103l0.303,-0.18l0.045,-0.076l-0.01,-0.163l0.045,-0.059l0.15,-0.007l0.063,-0.058l-0.025,-0.194l0.028,-0.024l0.108,0.069l0.049,-0.011l0.083,-0.114h0.06l0.021,0.052l0.003,0.049l-0.045,0.069l-0.004,0.045l0.101,0.055l0.056,0.007l0.052,-0.045l0.025,-0.086l0.059,-0.021l0.045,-0.038l0.052,0.003l0.101,0.073h0.046l0.048,-0.066l0.053,-0.021l0.073,0.014l0.045,-0.031l0.035,-0.093l0.091,-0.059l0.163,-0.031l0.115,0.034l0.063,0.004l0.038,-0.021h0.042l0.042,0.021h0.049l0.048,-0.031l0.049,0.007l0.07,0.107l0.059,0.003l0.07,-0.058l0.035,0.003l0.045,0.055l0.066,0.004l0.115,-0.045l0.063,0.014l0.062,0.107l0.067,0.017h0.122l0.087,0.062l0.062,-0.01l0.129,-0.228l0.066,-0.028l0.098,0.014l0.007,0.052l-0.052,0.069l0.01,0.038h0.101l0.139,0.121l0.021,0.104l-0.017,0.117l0.024,0.011l0.122,-0.073l0.053,0.007l0.066,0.069l0.115,0.014l0.028,0.031l-0.011,0.066l0.031,0.017l0.067,-0.003l0.08,0.045v0.093l0.052,0.031l0.052,-0.003l0.035,-0.076l0.049,-0.004l0.045,0.028l-0.007,0.048l-0.052,0.052l0.01,0.028l0.105,0.017l0.045,0.042l0.031,0.103l0.07,0.004l0.049,-0.076l0.063,-0.014l0.055,0.052l-0.007,0.052l-0.041,0.048l0.007,0.035l0.076,0.024l0.077,-0.021l0.063,0.028l0.007,0.093h0.041l0.073,-0.1h0.049l0.039,0.062l0.045,0.038l0.111,0.024l0.004,0.045l-0.035,0.042l0.003,0.038l0.056,0.031l0.018,0.033l-0.005,0.053l0.021,0.024l0.074,0.002l0.07,0.046l0.046,0.007l0.109,-0.028l0.061,0.028v0.037l-0.1,0.092l0.005,0.076l0.062,0.051l0.051,-0.012l0.042,-0.046l0.037,0.007l0.044,0.069l-0.03,0.074l0.024,0.046l0.174,0.012l0.067,0.039l0.009,0.101l0.035,0.033l0.116,0.034l0.026,0.037l-0.028,0.106l0.035,0.042l0.076,0.013l0.065,0.042l0.11,0.014l0.041,-0.049l-0.014,-0.048l0.024,-0.019l0.06,-0.004l0.035,-0.037h0.053l0.049,0.032l0.151,0.003l0.042,0.025l-0.007,0.032l-0.047,0.028l-0.011,0.099l0.03,0.023l0.114,-0.037l0.018,-0.067l0.038,-0.002l0.113,0.101l0.1,0.01l0.016,-0.023l-0.023,-0.06l0.019,-0.049l0.06,-0.002l0.033,0.071l0.042,-0.002l0.041,-0.058l0.07,-0.027l0.202,-0.002l0.019,-0.033l0.009,-0.062l0.086,-0.055l0.06,0.018l0.007,0.046l-0.037,0.056l0.016,0.041l0.079,0.002l0.07,-0.071l0.077,0.002l0.102,0.088l0.028,0.057l0.025,0.017l0.051,-0.003l0.019,0.026l-0.005,0.071l0.063,0.067l0.083,0.032l0.014,0.033l-0.027,0.034l0.011,0.023l0.077,0.035l0.014,0.034l-0.01,0.067l0.026,0.016l0.051,-0.016l0.035,-0.067l0.058,-0.002l0.023,0.035l-0.014,0.048l-0.055,0.03l-0.003,0.058l0.049,0.03l0.121,-0.076l0.123,-0.019l0.021,0.03l-0.014,0.113l0.093,0.101l0.081,0.033l0.042,0.046l0.121,0.037l0.044,0.002l0.037,-0.051h0.028l0.037,0.035l0.035,-0.007l0.009,-0.076l0.042,-0.012l0.074,0.035l0.051,-0.021l0.016,-0.094h0.024l0.021,0.027h0.02l0.033,-0.032l0.025,0.005l0.026,0.039l0.033,0.002l0.03,-0.021l0.03,0.005l0.016,0.032l0.316,0.104l0.172,0.062l0.125,0.003l0.116,0.046l0.149,0.117l0.072,0.033l0.167,0.034l0.165,0.079l0.079,0.009l0.021,0.021h0.028l0.088,-0.079l0.146,-0.046l0.079,0.007l0.1,0.055l0.056,0.007l0.039,-0.016l0.047,0.002l0.072,0.044l0.065,0.005l0.032,0.03l0.033,0.002l0.044,-0.032l0.04,-0.005l0.002,-0.044l0.035,-0.004l0.035,0.021l0.092,-0.005l0.068,-0.039l0.151,-0.014l0.058,0.016l0.067,-0.009l0.042,0.016l0.023,-0.009l0.021,-0.044l0.07,-0.039l0.002,-0.083l0.026,-0.007l0.032,0.034l0.047,-0.02l0.053,-0.067l0.084,-0.021l0.027,-0.071l0.031,-0.005l0.041,0.03l0.038,-0.005l0.044,-0.08l0.06,-0.014l0.058,-0.062l0.049,-0.017l0.012,-0.066l0.058,-0.035l0.06,0.035h0.03l0.068,-0.053l0.095,0.009l0.079,0.076l0.065,0.004l0.046,-0.025l0.03,0.007l0.012,0.048l0.03,0.012l0.088,0.009l0.07,0.099l0.047,0.005l0.067,-0.025l0.125,0.016l0.095,0.055l0.075,0.007l0.134,-0.042l0.068,0.003l0.065,0.039l0.039,0.002l0.051,-0.011l0.172,0.025l0.163,-0.018l0.118,0.004l0.142,0.037l0.121,-0.011l0.09,-0.058l0.123,-0.035l0.098,-0.08l0.283,-0.116l0.249,-0.212l0.088,-0.016l0.056,-0.044l0.032,-0.004l0.054,0.011l0.051,-0.018l0.195,-0.178l0.223,-0.115l0.072,-0.076l0.541,-1.164l0.176,-0.653l0.072,-0.576l0.23,-0.388l0.575,-1.395l0.056,-0.426l0.189,-0.441l0.115,-0.058l0.002,-0.028l-0.043,-0.032l0.002,-0.028l0.048,-0.003v-0.017l-0.027,-0.034l0.005,-0.051l0.065,-0.02l0.005,-0.03l-0.031,-0.139l-0.048,-0.055l-0.009,-0.163l-0.03,-0.039l-0.024,-0.006l-0.03,0.023l-0.02,-0.017l0.026,-0.064l-0.004,-0.056l-0.126,-0.116l0.01,-0.074l0.048,-0.035l-0.004,-0.1l-0.028,-0.032l0.013,-0.02l0.404,-0.013l0.066,-0.049l0.309,0.019l0.361,-0.186l1.074,-0.234l1.382,-0.362l0.098,0.061l0.041,-0.009l0.065,-0.097l-0.002,-0.059l0.027,-0.024l0.052,-0.002l0.052,-0.039l0.067,-0.028l0.129,-0.156l0.045,-0.124l0.016,-0.092l0.054,-0.137l0.048,-0.065l0.02,-0.124l0.054,-0.058l0.015,-0.081l0.109,-0.066l0.05,-0.043l0.002,-0.041l0.024,-0.021l0.052,-0.013l0.042,-0.064l0.056,-0.024l0.052,-0.099l0.079,-0.064l0.024,-0.047l0.002,-0.054l0.03,-0.025l0.129,-0.011l0.028,-0.023l0.013,-0.039l0.063,-0.026l0.046,0.004l0.022,-0.021l0.01,-0.034l0.052,-0.028l0.059,0.013l0.044,-0.019l0.048,-0.065v-0.043l-0.016,-0.042l0.022,-0.052l0.029,-0.015l0.013,-0.056l0.078,-0.038l0.057,0.008l0.03,-0.025l0.026,-0.094l0.028,-0.016l0.076,-0.002l0.048,-0.032l0.018,-0.055l0.034,-0.016l0.061,0.02l0.014,0.034h0.043l0.155,-0.079l0.025,0.002l0.018,0.038h0.017l0.027,-0.032l0.05,-0.012l0.019,-0.022l-0.006,-0.045l0.028,-0.023l0.063,-0.009l0.098,-0.09l0.096,-0.002l0.048,-0.039l0.043,-0.077l0.048,-0.034l0.015,-0.049l-0.048,-0.107l0.017,-0.078l0.066,-0.034l0.065,-0.148l-0.022,-0.012l-0.054,0.01l-0.024,-0.027l-0.007,-0.09l0.025,-0.035l0.054,-0.021l-0.004,-0.112l-0.088,-0.073l-0.008,-0.04l0.028,-0.06v-0.051l-0.043,-0.073l0.012,-0.052l0.125,-0.038l0.05,-0.122l0.011,-0.156l0.026,-0.058l0.085,-0.095l0.012,-0.047l0.018,-0.319l0.024,-0.075l0.102,-0.081l0.01,-0.047l-0.028,-0.165l0.014,-0.066l0.076,-0.11l0.021,-0.111l0.056,-0.073v-0.066l-0.044,-0.049l-0.075,-0.022l-0.006,-0.044l0.051,-0.057l0.079,-0.021l0.023,-0.033l-0.005,-0.035l-0.051,-0.052l-0.002,-0.059l0.023,-0.056l0.007,-0.09l0.06,-0.113l0.01,-0.233l0.032,-0.106l0.005,-0.063l0.03,-0.033l-0.002,-0.035l-0.024,-0.026l0.021,-0.04l0.168,-0.062l0.016,-0.033l-0.023,-0.051l0.002,-0.043l0.021,-0.04l-0.007,-0.037l-0.016,-0.052l0.023,-0.059l0.058,-0.04l0.056,0.007l0.051,0.04l-0.005,0.045l-0.021,0.028l0.014,0.028l0.067,-0.014l0.019,0.024l-0.033,0.096l0.026,0.045h0.06l0.151,-0.066l0.054,-0.068l-0.014,-0.033l0.014,-0.024l0.028,0.005l0.009,-0.071l-0.077,-0.117l-0.053,-0.022l-0.023,-0.065l0.025,-0.031h0.063l0.03,0.021l0.028,-0.014l0.005,-0.085l0.037,-0.002l0.055,0.023l0.035,-0.009l0.049,-0.073l-0.002,-0.148l0.042,-0.038l0.076,0.014l0.04,0.047l0.081,0.005l0.06,-0.042l-0.004,-0.05l-0.035,-0.052l-0.065,-0.028l-0.03,-0.073l0.004,-0.092l0.04,-0.016l0.056,0.009l0.065,0.076l0.044,-0.005l0.007,-0.075l0.051,-0.005l0.1,0.066h0.074l0.049,-0.035l0.004,-0.05l-0.104,-0.075v-0.066l0.074,-0.097l0.157,-0.042l0.021,0.028l-0.007,0.046l0.031,0.011l0.049,-0.046l0.021,-0.06l0.111,-0.06l0.084,0.007l0.08,-0.035l0.045,-0.057l0.046,-0.025l0.062,-0.007l0.06,-0.063l-0.011,-0.074l0.035,-0.078l0.052,-0.053l0.021,-0.092l0.098,-0.053l0.076,0.014l0.014,0.089l-0.042,0.056l0.011,0.043l0.139,0.003l0.038,-0.028l0.004,-0.046l-0.031,-0.049l0.003,-0.064l0.073,-0.078l0.143,0.007l0.014,0.053l-0.01,0.064l-0.032,0.025v0.053l0.066,0.052l0.087,-0.007l0.095,-0.247l0.087,-0.028l0.351,0.018l0.14,-0.021l0.056,-0.05l0.027,-0.088l0.136,-0.11l0.059,-0.109l-0.006,-0.064l-0.056,-0.049l0.003,-0.049l0.08,-0.117l0.018,-0.092l-0.021,-0.085l0.042,-0.06l0.09,-0.017l0.035,-0.071l-0.01,-0.138l0.038,-0.052h0.111l0.108,0.056l0.119,-0.011l0.118,-0.155l0.087,-0.039l0.122,0.036l0.07,0.162l0.08,0.046l0.108,-0.011l0.059,-0.081l0.004,-0.092l0.069,-0.13l0.063,-0.057l0.066,-0.018l0.035,-0.063l-0.028,-0.078l-0.108,-0.077l-0.01,-0.05l0.059,-0.035l0.042,0.018l0.003,0.045l0.035,0.007l0.157,-0.045l0.049,-0.043l0.01,-0.074l-0.038,-0.056l0.017,-0.05l0.046,-0.003l0.041,0.038l0.094,-0.014l0.262,-0.106l0.257,-0.169l0.119,-0.141l0.017,-0.103l-0.028,-0.141l0.025,-0.141l-0.045,-0.18l0.02,-0.053h0.042l0.035,0.028l0.087,-0.007l0.192,-0.155l0.174,-0.057l0.143,-0.141l0.073,-0.124l-0.004,-0.049l-0.041,-0.074l-0.004,-0.046l0.028,-0.046l-0.003,-0.039l-0.049,-0.081l0.007,-0.056l0.052,-0.036l0.125,-0.007l0.094,-0.081l0.102,-0.028l0.198,-0.216l0.119,-0.042l0.114,-0.124l0.011,-0.077l-0.028,-0.166l0.021,-0.064l0.192,-0.222l0.142,-0.117l0.22,-0.056l0.136,-0.12l0.062,-0.138l0.046,-0.042l0.163,-0.029l0.15,-0.102l0.08,-0.113l0.042,-0.032l0.15,0.007l0.083,-0.017l0.272,0.014l0.073,-0.011l0.262,0.014l0.073,0.018l0.136,0.085l0.069,-0.004l0.209,-0.084l0.087,-0.092l0.056,-0.014l0.272,0.024l0.188,-0.031l0.118,-0.068l0.06,-0.067l0.048,-0.031l0.094,-0.007l0.07,-0.05l0.031,-0.06l0.234,-0.095l0.178,-0.011l0.337,-0.077l0.067,-0.008l0.034,-0.045l-0.01,-0.096l0.017,-0.07l0.171,-0.078h0.143l0.181,0.078l0.063,-0.004l0.153,-0.155l0.087,-0.244l0.105,-0.155l0.003,-0.057l-0.035,-0.166l0.011,-0.243l0.073,-0.092l0.024,-0.074l0.039,-0.032l0.055,-0.007l0.046,-0.049l0.024,-0.068l0.045,-0.081l0.018,-0.137l0.031,-0.036h0.045l0.049,-0.046l0.328,0.004l0.118,-0.053h0.115l0.15,0.025l0.094,-0.018l0.244,-0.201l0.156,-0.032l0.147,0.014l0.09,0.064h0.147l0.08,-0.036l0.209,0.004l0.052,0.035l0.028,0.071h0.042l0.048,-0.05h0.046l0.045,0.036l0.038,-0.004l0.056,-0.025l-0.079,-0.06l-0.226,-0.261l-0.22,-0.16l-0.056,-0.072l-0.081,-0.239l-0.147,-0.135l-0.042,-0.007l-0.224,0.086l-0.353,0.014l-0.263,-0.072l-0.301,-0.173l-0.2,-0.236l-0.094,-0.197l-0.042,-0.201v-0.214l0.056,-0.222l0.137,-0.242l0.164,-0.177l0.007,-0.034l-0.084,-0.08l-0.098,-0.027l-0.228,-0.035l-0.044,-0.024l-0.03,-0.079l-0.059,-0.048l-0.074,-0.003l-0.126,0.042l-0.066,0.002l-0.364,-0.099l-0.123,-0.002l-0.131,-0.044l-0.124,-0.097l-0.093,-0.044l-0.159,-0.007l-0.056,-0.014l-0.121,-0.106l-0.199,-0.101l-0.394,-0.125l-0.117,-0.044l-0.091,-0.127l-0.061,-0.034l-0.249,-0.046l-0.087,-0.028l-0.102,-0.088h-0.061l-0.042,0.058l-0.054,0.028h-0.084l-0.049,0.011l-0.098,0.113l-0.046,0.016l-0.052,0.042h-0.058l-0.268,-0.104l-0.059,-0.071l-0.063,-0.037l-0.117,-0.023l-0.081,-0.028l-0.257,-0.191l-0.054,-0.01l-0.053,0.028l-0.056,0.002l-0.077,-0.057l-0.138,-0.007l-0.107,-0.046l-0.049,-0.003l-0.038,0.023l-0.221,0.007l-0.292,0.053l-0.084,-0.002l-0.145,-0.048l-0.189,-0.01l-0.25,-0.097l-0.063,-0.007l-0.067,0.03h-0.061l-0.054,-0.03l-0.058,-0.006l-0.112,0.016l-0.14,-0.033l-0.091,-0.117l-0.021,-0.099l-0.061,-0.079l-0.005,-0.044l0.052,-0.051l-0.012,-0.023l-0.103,0.007l-0.035,0.044h-0.023l-0.037,-0.037l0.016,-0.136l0.063,-0.055l-0.009,-0.042l-0.133,-0.034l-0.024,-0.051l0.038,-0.058l0.072,-0.009l0.019,-0.03l-0.066,-0.06l-0.004,-0.046l-0.028,-0.037l-0.07,-0.037l-0.005,-0.065l0.03,-0.043l0.003,-0.047l-0.091,-0.163l-0.131,-0.123l-0.016,-0.046v-0.194l-0.014,-0.069l-0.117,-0.157l-0.058,-0.032l-0.047,-0.042l-0.023,-0.062l-0.091,-0.094l-0.033,-0.109l-0.037,-0.055l-0.141,-0.146l-0.058,-0.115l-0.119,-0.178l-0.044,-0.02l-0.061,0.002l-0.056,-0.023l-0.028,-0.074l-0.054,-0.039l-0.128,-0.019l-0.03,-0.027l-0.012,-0.06l-0.121,-0.1l-0.005,-0.046l-0.026,-0.032l-0.037,-0.012l-0.019,-0.018l0.005,-0.028l-0.023,-0.027l-0.061,-0.023l-0.056,-0.09l0.007,-0.065l-0.005,-0.044l-0.051,-0.051l-0.021,-0.087l0.016,-0.03l0.056,0.003l0.056,-0.038l0.007,-0.069l-0.063,-0.166l0.004,-0.035l0.059,-0.017l0.007,-0.028l-0.024,-0.041v-0.083l0.049,-0.07v-0.083l-0.039,-0.031l-0.087,-0.111l0.007,-0.041l0.028,-0.038l0.01,-0.09l0.032,-0.052l-0.004,-0.069l-0.049,-0.076l-0.007,-0.118l0.161,-0.18v-0.035l-0.017,-0.027l-0.004,-0.038l0.039,-0.115l-0.018,-0.045l0.011,-0.041l0.049,-0.011l0.017,-0.034l-0.007,-0.111l0.021,-0.073l0.011,-0.142l-0.035,-0.107l0.007,-0.048l0.021,-0.035l-0.004,-0.083l-0.168,-0.235l-0.014,-0.09l0.021,-0.059l0.018,-0.142l-0.032,-0.052l-0.003,-0.09l0.091,-0.131l0.024,-0.104l0.039,-0.104l0.014,-0.215l-0.018,-0.058l-0.227,-0.201l-0.07,-0.007l-0.063,0.055l-0.13,0.021l-0.077,-0.021l-0.126,-0.1l-0.119,-0.004l-0.15,0.087h-0.074l-0.175,-0.083l-0.438,-0.083h-0.087l-0.214,0.09l-0.353,-0.028l-0.098,-0.052l-0.056,0.004l-0.413,0.194l-0.039,-0.014l-0.01,-0.104l0.07,-0.357l0.007,-0.491l0.035,-0.17l-0.014,-0.242l-0.074,-0.093l-0.007,-0.038l0.018,-0.045v-0.07l-0.046,-0.197l-0.112,-0.104l-0.017,-0.038l0.01,-0.093l-0.017,-0.069l-0.095,-0.132l-0.014,-0.156l-0.049,-0.142l-0.102,-0.096l-0.038,-0.122l-0.14,-0.11l-0.116,-0.014l-0.122,0.028l-0.102,-0.018l-0.21,-0.076l-0.133,-0.097l-0.052,-0.117l-0.042,-0.049l-0.277,-0.135l-0.231,-0.01l-0.122,0.041h-0.074l-0.256,-0.104l-0.213,-0.117l-0.154,-0.049l-0.112,-0.062l-0.109,-0.028l-0.098,0.004l-0.101,-0.024l-0.13,-0.073l-0.175,-0.059l-0.161,-0.021l-0.115,0.024l-0.056,-0.024l-0.102,-0.218l-0.01,-0.072l-0.025,-0.045l-0.315,-0.087l-0.088,0.007l-0.084,0.045l-0.059,-0.01l-0.119,-0.191l-0.07,-0.245l-0.084,-0.17l-0.126,-0.062h-0.091l-0.046,-0.021l-0.007,-0.056l-0.056,-0.027l-0.066,-0.004l-0.151,-0.065l-0.357,-0.077l-0.136,-0.114l-0.091,-0.245l-0.07,-0.08l-0.011,-0.062l-0.045,-0.028l-0.151,0.041l-0.074,-0.01l-0.049,-0.031l-0.091,-0.031l-0.017,-0.021l0.003,-0.1l0.102,-0.16l0.073,-0.058l-0.01,-0.038l-0.2,-0.125l-0.056,-0.083l-0.056,-0.021l-0.364,0.059l-0.091,-0.017l-0.143,-0.121l-0.098,-0.025l-0.168,-0.083l-0.056,-0.062l-0.126,-0.329l-0.018,-0.194l-0.042,-0.169l-0.091,-0.097l-0.115,-0.419l-0.088,-0.135l-0.136,-0.329v-0.11l-0.028,-0.066l-0.144,-0.173l-0.025,-0.059l-0.014,-0.159l-0.031,-0.052l-0.413,-0.478l-0.088,-0.183l-0.01,-0.173l0.042,-0.135l0.175,-0.194l0.01,-0.048l-0.042,-0.156l-0.028,-0.204l-0.213,-0.416l-0.091,-0.079l-0.119,-0.038l-0.319,-0.232l-0.283,-0.146l-0.046,-0.051l-0.014,-0.118l-0.024,-0.059l-0.084,-0.121l-0.091,-0.429v-0.204l0.063,-0.052l0.007,-0.042l-0.063,-0.083l-0.028,-0.173l-0.06,-0.156l-0.13,-0.1l-0.297,-0.118l-0.158,-0.131l-0.213,-0.322l-0.067,-0.166l-0.07,-0.056l-0.199,-0.072l-0.067,-0.049l-0.182,-0.283l-0.315,-0.322l-0.206,-0.575l-0.165,-0.252l-0.053,-0.208l-0.066,-0.073l-0.221,-0.491l-0.15,-0.187l-0.126,-0.014l-0.056,-0.052l0.003,-0.073l-0.08,-0.065l-0.196,-0.063l-0.049,-0.045l-0.007,-0.079l-0.032,-0.059l-0.112,-0.107l-0.077,-0.191l0.004,-0.155l-0.098,-0.253l-0.084,-0.045l-0.116,-0.194l0.004,-0.052l0.035,-0.01l0.007,-0.045l-0.035,-0.052l0.003,-0.118l0.165,-0.439l0.105,-0.099l0.009,-0.104l-0.049,0.023l-0.074,-0.02l-0.061,-0.007l-0.037,0.018l-0.083,-0.007l-0.265,-0.088l-0.126,0.005l-0.069,0.086l-0.007,0.078l-0.026,0.023l-0.074,-0.034l-0.035,0.009l-0.063,0.136l-0.139,0.038l-0.098,0.059l-0.128,0.003l-0.081,-0.031v-0.045l0.084,-0.021l0.007,-0.087l-0.049,-0.038l-0.083,0.017l-0.122,0.143l-0.084,0.052l-0.063,-0.018v-0.052l0.06,-0.031l-0.032,-0.045l-0.069,0.007l-0.046,0.062l-0.09,0.004l-0.014,-0.042l0.038,-0.038l-0.007,-0.038l-0.087,-0.011l-0.01,-0.045l0.083,-0.014l0.039,-0.045l-0.028,-0.035l-0.094,-0.014l-0.067,0.046l-0.024,0.048l-0.101,0.111l-0.042,0.004l-0.021,-0.052l-0.108,0.017l-0.014,0.077l-0.048,0.041l-0.101,0.007l-0.185,0.136l-0.178,-0.028l-0.052,0.017l-0.021,0.059l-0.115,0.101l-0.066,-0.01l-0.108,0.038l-0.024,0.052l-0.08,0.077l-0.06,0.007l-0.041,-0.066l-0.042,0.003l-0.077,0.094l-0.014,0.087l-0.101,0.087l-0.007,0.059l-0.049,0.038l-0.059,0.003l-0.118,0.039l-0.049,0.041l-0.031,0.063l-0.105,0.097l-0.066,0.011l-0.031,0.041l-0.007,0.056l-0.025,0.021l-0.042,0.003l-0.034,0.059v0.111l-0.112,0.195l-0.083,0.042l-0.049,0.087l-0.049,0.013l-0.045,-0.031h-0.042l-0.035,0.025l-0.087,-0.021l-0.059,-0.094l-0.039,0.007l-0.003,0.048l-0.021,0.007l-0.038,-0.034l-0.025,0.007l0.011,0.045l-0.028,0.007l-0.045,-0.07l0.007,-0.048l-0.021,-0.025l-0.042,-0.007l-0.049,-0.059l0.021,-0.114l-0.042,-0.06h-0.056l-0.024,-0.034v-0.052l-0.066,-0.063l0.003,-0.069l-0.01,-0.084l-0.031,-0.003l-0.025,0.045l-0.031,-0.004l-0.094,-0.104l-0.045,-0.007l-0.032,0.028l-0.031,-0.003l-0.025,-0.039l-0.038,-0.003l-0.031,0.052l-0.035,-0.004l-0.038,-0.062h-0.108l-0.07,0.076l-0.045,0.011l-0.025,0.028l-0.01,0.041l-0.122,0.16l-0.08,0.011l-0.091,0.062l-0.007,0.077l-0.045,0.062l-0.007,0.063l-0.024,0.003l-0.049,-0.045l-0.025,-0.087l-0.087,-0.031l-0.122,0.035l-0.027,0.038l-0.056,0.014l-0.174,-0.066l-0.108,0.027l-0.035,0.077l-0.042,0.042l-0.073,-0.021l-0.011,0.024l0.032,0.038l-0.011,0.032l-0.055,0.01l-0.067,0.097l-0.02,0.056l-0.06,0.066l-0.069,0.021l-0.213,0.222l-0.066,0.011l-0.042,-0.028h-0.104l-0.067,-0.035l-0.027,0.021l0.045,0.069l-0.052,0.08l-0.119,0.028l-0.115,0.063l-0.069,0.1l-0.088,0.042l-0.09,0.115l-0.139,0.024l-0.094,0.073l-0.074,0.021l-0.073,0.104v0.045l0.08,0.063l-0.003,0.09l-0.108,0.087l-0.195,0.045l-0.112,0.101l-0.042,0.108l-0.083,0.052l-0.021,0.076l-0.105,0.091h-0.097l-0.07,0.055l-0.014,0.098l-0.045,0.066l-0.003,0.08l-0.067,0.066l-0.073,0.02l-0.083,0.101l-0.077,0.014l-0.084,0.132l-0.062,0.018l-0.056,0.052l-0.066,0.003l-0.042,-0.024l-0.098,0.003l-0.038,0.018l-0.014,0.09l-0.045,0.035l-0.105,0.156l-0.094,0.028l-0.16,0.135l-0.066,0.004l-0.056,-0.028l-0.059,-0.007l-0.146,-0.097l-0.018,-0.045l0.025,-0.052l0.003,-0.091l-0.059,-0.021l-0.049,-0.08v-0.055l0.056,-0.115l-0.014,-0.132l-0.073,-0.049l0.017,-0.072l0.059,-0.028v-0.045l-0.052,-0.056l-0.003,-0.073l0.028,-0.059l-0.021,-0.021l-0.039,0.004l-0.062,-0.046l-0.011,-0.052l-0.038,-0.021l-0.021,-0.055l0.031,-0.056v-0.045l-0.052,-0.052l0.003,-0.059l-0.038,-0.063l-0.087,-0.028l-0.035,-0.069l-0.007,-0.059l-0.024,-0.028h-0.171l-0.066,-0.049h-0.049l-0.042,-0.052l0.021,-0.052l-0.041,-0.048l-0.06,-0.004l-0.055,-0.042l-0.039,0.007l0.004,0.039l-0.025,0.01l-0.041,-0.059h-0.035l-0.053,0.024l-0.013,-0.031l0.059,-0.129l-0.011,-0.08l-0.111,-0.066l-0.028,-0.052l0.007,-0.1l-0.024,-0.042l-0.067,-0.014l-0.111,-0.122l-0.004,-0.073l-0.073,-0.111h-0.052l-0.073,-0.073l0.003,-0.146l0.039,-0.055l-0.035,-0.049l-0.066,0.007l-0.045,-0.034l0.046,-0.056l0.002,-0.042l-0.066,-0.048v-0.031l0.02,-0.024l-0.002,-0.028l-0.037,-0.002l-0.02,0.022h-0.024l-0.009,-0.02h-1.186l-10.933,2.157h-3.03v25.353h-6.687v19.404z"/>
</svg>
