<svg xmlns="http://www.w3.org/2000/svg" viewBox="1270.218 335.085 63.276 44.247">
  <path fill-rule="evenodd" d="M1303.011204,335.093935l-0.009,0.053l0.053,0.052l-0.004,0.132l0.049,0.038l0.142,0.002l0.076,0.03l0.033,0.056l0.175,0.105l0.123,0.037l0.005,0.028l-0.035,0.037l0.004,0.205l0.044,0.032l0.075,-0.004l0.084,-0.072l0.035,0.004l0.009,0.11l0.098,0.142l0.144,0.058l0.063,0.005l0.049,-0.033l0.095,0.002l0.049,0.033l0.105,-0.005l0.053,-0.044l0.014,-0.072l0.026,-0.037l0.049,-0.014l-0.003,-0.031l-0.051,-0.079l-0.081,-0.058v-0.035l0.042,-0.021v-0.03l-0.033,-0.019l0.002,-0.03l0.049,-0.016l0.098,0.011l0.037,0.068l0.056,0.033l0.058,-0.01l0.03,0.047l-0.027,0.07l0.032,0.009l0.065,-0.054l0.084,-0.011l0.042,-0.07l0.079,-0.03l0.093,-0.003l0.04,-0.018h0.07l0.03,0.016h0.051l0.021,-0.023l0.098,-0.012l0.03,-0.033l0.074,-0.009l0.033,-0.021h0.049l0.393,0.145l0.091,-0.003l0.056,-0.049l0.056,-0.002l0.076,0.047l0.084,0.004l0.068,-0.018l0.028,0.025l-0.024,0.044l-0.079,0.024l-0.035,0.039l-0.007,0.056l-0.042,0.005l-0.027,-0.035l-0.047,0.002l-0.049,0.065l-0.002,0.052l0.039,0.053l0.079,0.054l0.012,0.055l-0.002,0.063l0.151,0.126l0.063,0.002l0.086,0.086l0.009,0.159l0.042,0.16l0.133,0.163l0.046,0.079l0.07,0.014l0.017,-0.018l-0.047,-0.026l0.009,-0.023l0.063,0.004l0.047,0.035h0.044l0.035,-0.049h0.046l0.026,0.024l0.177,-0.019l0.035,0.023l-0.019,0.028l0.014,0.024l0.082,0.009l0.102,0.072l0.03,-0.019l0.009,-0.102l0.059,-0.091v-0.079l0.037,-0.035l0.328,-0.025l0.063,-0.052l0.046,-0.002l0.049,0.037l0.054,0.007l0.032,-0.028l-0.021,-0.023h-0.048l-0.063,-0.046l-0.003,-0.045l0.063,-0.044l0.31,-0.016l0.137,0.028l0.012,-0.026l-0.028,-0.03l0.004,-0.033l0.063,-0.042l0.342,-0.025l0.105,-0.04l0.061,0.003l0.025,0.097l0.068,0.061l0.074,0.007l0.044,-0.023l0.042,-0.075l0.189,-0.009l0.251,0.188l0.119,0.17l0.049,0.005l0.195,-0.075l0.124,0.005l0.1,0.06l0.06,0.003l0.021,-0.016l0.135,0.006l0.114,0.056l0.051,0.077l0.093,0.047l0.072,0.002l0.077,-0.035h0.11l0.151,0.035l0.191,0.128l-0.005,0.04l-0.116,0.007l-0.061,0.081l0.01,0.028l0.139,-0.002l0.172,0.093l0.068,0.102l-0.016,0.04l-0.1,0.03l-0.038,-0.021l-0.032,0.012l-0.01,0.041l-0.039,0.003l-0.033,-0.021l-0.051,0.021l-0.014,0.039l-0.095,0.04l-0.098,-0.009l-0.019,0.023l0.059,0.074l0.072,0.033l0.06,0.121l-0.021,0.019l-0.058,-0.021l-0.058,0.007l-0.047,0.111l-0.009,0.128l-0.079,0.114v0.047l0.051,0.049l-0.005,0.053l-0.116,0.149l-0.084,0.047l-0.009,0.046l0.067,0.119l0.003,0.061l-0.065,0.074l-0.003,0.065l0.1,0.051l0.142,0.007l0.068,0.021l0.207,0.156l0.063,0.007l0.049,0.037l0.025,0.103l0.135,0.088l0.161,0.024l0.063,0.037l0.035,-0.003l0.095,-0.09l0.042,-0.01l0.03,-0.025v-0.035l0.021,-0.023l0.037,-0.003l0.072,-0.065l0.054,-0.007l0.065,-0.063l0.007,-0.083l0.044,-0.052v-0.032l-0.023,-0.014l0.002,-0.03l0.231,-0.182l0.053,-0.002l0.031,0.028l0.037,-0.003l0.023,-0.035l0.077,-0.014l0.021,-0.034l0.125,-0.059h0.063l0.031,0.017l0.044,-0.003l0.03,-0.025h0.095l0.084,-0.075l0.117,-0.004l0.058,0.016l0.063,0.081l0.014,0.091l0.086,0.037l0.044,-0.032l0.1,-0.003l0.037,-0.032l0.017,-0.063l0.044,-0.044l0.109,-0.042l0.056,-0.065l-0.016,-0.056l0.018,-0.021l0.042,0.005l0.051,-0.045l0.014,-0.042l0.072,-0.051l0.017,-0.049l0.032,-0.042l0.005,-0.034l-0.077,-0.045l0.012,-0.028l0.079,-0.016l0.086,-0.07l0.072,-0.007l0.228,0.089h0.068l0.063,-0.037l0.079,-0.005l0.009,-0.026l-0.028,-0.039l0.009,-0.033l0.045,-0.032l0.158,0.004l0.102,0.079l0.061,0.01l0.072,0.035l0.053,-0.005l0.066,0.021l0.046,0.065l0.021,0.061l0.047,0.004l0.035,-0.046h0.025l0.028,0.028l0.009,0.041l0.133,0.066h0.035l0.021,-0.026l0.037,-0.002l0.028,0.016h0.063l0.021,-0.019l-0.002,-0.035l0.032,-0.032l0.005,-0.063l0.049,-0.026l0.079,0.014l0.035,-0.018l-0.003,-0.079l0.024,-0.019l0.002,-0.03l-0.068,-0.054v-0.051l0.038,-0.014l0.049,0.03l0.009,0.077l0.046,0.037l0.052,0.005l0.151,-0.056l0.053,0.003l0.038,0.027l0.035,-0.002l0.034,-0.046l0.075,-0.003l0.147,0.056l0.046,-0.005l0.012,-0.041h0.025l0.024,0.027l-0.003,0.033l-0.025,0.03l-0.003,0.028l0.047,0.054v0.039l-0.028,0.035l-0.002,0.047l0.023,0.053l0.042,0.019l0.288,-0.04l0.04,0.021l0.012,0.047l0.09,0.067l0.003,0.066l0.051,0.044l0.053,0.004l0.168,-0.067l0.042,0.012l0.007,0.034l0.056,0.024l0.428,-0.045l0.046,0.026l-0.002,0.042l0.04,0.033l0.088,0.004l0.086,0.063v0.049l-0.146,0.056l-0.01,0.037l0.177,0.168l0.044,0.09l0.345,0.012l0.328,0.195l0.033,0.094l0.109,0.118l0.002,0.107l-0.06,0.07l0.002,0.109l0.051,0.021l0.098,-0.014l0.023,0.031l-0.06,0.086l0.016,0.037l0.077,0.014l0.009,0.033l-0.046,0.046l0.002,0.07l0.065,0.056l0.089,-0.003l0.055,-0.095l-0.041,-0.044l0.025,-0.04l0.175,-0.06l0.072,0.018l0.002,0.089l0.137,0.309l0.003,0.105l-0.028,0.049l0.009,0.03l0.033,0.003l0.035,0.051l0.035,0.007l0.016,-0.021l0.035,0.004l0.023,0.019h0.158l0.038,-0.021l-0.012,-0.049l0.035,-0.044l0.051,-0.007l0.058,0.03l0.021,-0.009l-0.014,-0.068l0.035,-0.067l0.088,-0.033l0.005,-0.03l-0.072,-0.046l0.014,-0.031l0.193,0.01l0.244,0.142l0.049,-0.01l0.007,-0.042l0.098,-0.027l0.042,0.041l0.012,0.208l-0.01,0.053l0.121,0.412l-0.016,0.026l-0.088,0.002l-0.066,0.044l-0.014,0.04l-0.102,0.037l-0.002,0.053l0.037,0.026l0.044,-0.014l0.04,0.033l-0.01,0.056l0.038,0.02l0.053,-0.02l0.033,0.023l-0.01,0.042l0.08,0.051l-0.003,0.056l-0.074,0.009l-0.135,0.075l-0.065,0.069h-0.161l-0.016,0.021l0.046,0.024l0.014,0.072l0.079,0.044v0.039l-0.025,0.045l0.007,0.142l0.067,0.076l0.058,0.198l0.049,0.044l0.005,0.04l-0.056,0.133l-0.051,0.065l-0.112,0.016l-0.072,0.082l-0.044,0.011l-0.042,0.047l-0.007,0.053l-0.079,0.075l-0.096,0.007l-0.121,0.079l-0.093,0.17l0.005,0.049l0.033,0.042l0.007,0.053l-0.033,0.184l0.026,0.023h0.139l0.061,0.035l0.091,0.005l0.086,0.039l0.007,0.121l0.041,0.031l0.08,-0.01l0.053,0.014l-0.002,0.037l-0.026,0.024l-0.002,0.067l0.105,0.112l0.002,0.088l-0.028,0.035l0.007,0.049l0.061,0.061l0.086,0.004l0.03,0.028v0.033l0.046,0.011l0.061,0.003l0.053,0.112l-0.011,0.076l0.037,0.021l0.061,-0.014l0.051,0.035l-0.005,0.063l-0.046,0.079l-0.049,0.047l0.014,0.032l0.151,0.003l0.081,0.044l0.086,0.023l0.005,0.037h-0.046l-0.091,-0.046l-0.06,0.004l-0.059,0.105l0.014,0.053l0.07,0.027l0.007,0.049l-0.094,0.067l-0.007,0.076l0.038,0.067l0.014,0.098l0.091,0.111l0.119,0.022l0.014,0.045l-0.08,0.102l-0.035,0.171l-0.126,0.014l-0.101,-0.084l-0.059,-0.004l-0.032,0.028l-0.052,-0.003l-0.042,-0.046h-0.066l-0.081,0.049l-0.02,0.101l-0.063,0.025l0.003,0.045l0.133,0.039l0.101,0.097l0.007,0.067l0.129,0.098l-0.017,0.045l-0.14,-0.004l-0.045,0.049l0.021,0.095l-0.032,0.031l-0.167,-0.031l-0.046,0.041l0.014,0.063l-0.045,0.028l-0.419,-0.003l-0.112,0.076v0.07l0.067,0.039l0.059,0.153l-0.024,0.07l-0.116,0.077l-0.014,0.059l0.028,0.056l-0.017,0.042l-0.115,0.024l-0.326,0.625l0.014,0.027l0.57,0.151l0.091,0.067l0.066,0.101l0.203,0.129h0.118l0.046,0.031l0.01,0.049l0.066,0.039l0.109,0.024l0.094,0.077l0.105,0.164l0.045,0.007l0.028,-0.049l0.101,-0.01l0.094,0.049l0.011,0.104l-0.115,0.122l-0.095,0.004l-0.01,0.049l0.028,0.101l0.059,0.021l0.122,-0.024l0.147,0.024l0.126,0.059l0.049,-0.01v-0.046l0.041,-0.013l0.109,0.097h0.059l0.063,-0.059l0.059,-0.007l0.07,0.035h0.056l0.038,-0.028h0.067l0.045,0.028h0.066l0.025,-0.039l0.066,0.004l0.126,0.105l0.01,0.063l-0.035,0.041l0.014,0.046l0.067,0.045l-0.007,0.063l-0.053,0.017l-0.021,0.046l0.014,0.052l-0.059,0.112l-0.101,0.035l-0.077,0.115l-0.066,0.024l-0.06,0.056l-0.01,0.081l-0.063,0.052l-0.007,0.049l0.028,0.07l-0.042,0.076l-0.084,0.004l-0.042,0.038l-0.007,0.039l-0.09,0.007l-0.014,0.049l0.038,0.052l-0.017,0.087l-0.063,0.025l0.003,0.062l0.154,0.119l0.125,0.004l0.095,0.042l0.09,0.101l0.13,0.021l0.097,-0.046l0.063,0.014l0.011,0.067l0.056,0.024l0.087,-0.024l0.077,0.073l-0.021,0.202l0.021,0.046l0.073,0.031l0.024,0.049l-0.01,0.087l0.101,0.126l0.004,0.059l-0.077,0.102l0.014,0.059l0.188,0.059l0.088,0.021l0.104,0.091l0.004,0.045l-0.035,0.028l0.007,0.056l0.056,0.032l-0.011,0.062l-0.195,0.151l0.014,0.041l0.164,-0.017l0.035,0.038l-0.035,0.049l0.003,0.115l-0.028,0.105l0.011,0.3l0.07,0.067l0.041,-0.004l0.028,-0.031l0.056,0.007l0.074,0.063l0.066,-0.004l0.045,-0.08l0.053,0.003l0.031,0.171l0.049,0.032l0.105,0.007l0.017,0.035l-0.042,0.031l-0.136,-0.024l-0.024,0.031l0.003,0.042l0.182,0.007l0.164,0.038l0.265,0.206l0.14,0.035l0.031,0.074l-0.038,0.09l0.056,0.046l0.212,0.021l0.119,0.035l0.021,0.108l0.073,0.021l0.063,-0.021l0.091,0.021l0.049,0.035l0.16,-0.004l0.133,-0.045l0.073,0.007l0.112,0.157l0.004,0.098l0.049,0.045l0.233,-0.073l0.074,0.01l0.01,0.056l0.056,0.007l0.066,-0.07l0.147,-0.003l0.042,0.048l-0.035,0.116l-0.087,0.104l0.031,0.042l0.178,-0.014l0.182,-0.122l0.063,0.004l0.048,0.087h0.046l0.042,-0.049l0.059,0.007l0.052,0.063h0.049l0.039,-0.052l0.052,0.006l0.031,0.06l-0.028,0.101l0.06,0.133l0.007,0.087l-0.105,0.133l-0.017,0.056l-0.126,0.118l0.003,0.063l0.196,0.105l0.021,0.195l-0.028,0.042l-0.094,0.004l-0.143,0.09l-0.021,0.077l0.045,0.077v0.192l-0.108,0.021l-0.07,0.122l0.024,0.108l-0.034,0.067l-0.133,0.038l0.01,0.056l0.182,0.028l0.021,0.063l-0.053,0.031l-0.055,-0.028l-0.067,0.007l-0.045,0.042l-0.122,0.017l-0.018,0.07l0.067,0.07l-0.035,0.039l-0.109,-0.028l-0.062,0.014l-0.014,0.045l0.083,0.077l0.007,0.087l-0.052,0.087l0.021,0.067l0.038,0.003l0.046,-0.08l0.049,-0.028l0.139,-0.004l-0.014,0.035l0.028,0.025l0.088,-0.007l0.233,0.132l0.081,0.011l0.136,0.073l0.045,-0.014l0.014,-0.052l0.06,-0.039h0.118l0.098,0.053l0.042,-0.018l0.003,-0.035l0.035,-0.02l0.063,0.013l0.049,-0.027l0.059,-0.112l0.109,-0.007l0.157,0.038h0.132l0.039,-0.038l0.216,0.01l0.063,-0.024l0.049,-0.07l0.098,-0.01l0.041,-0.035l0.06,0.003l0.136,0.161l0.108,0.01l0.066,0.042l0.133,0.014l0.052,-0.038l0.053,0.003l0.073,0.136l-0.035,0.035l0.014,0.06l0.084,0.055h0.136l0.084,-0.066h0.122l0.031,0.035l-0.111,0.07l0.021,0.042l0.321,0.007l0.073,0.028l0.063,0.059v0.045l0.049,0.053v0.118l0.052,0.035h0.06l0.125,-0.104l0.102,-0.004l0.055,0.021h0.081l0.115,-0.052l0.087,0.01l0.035,0.084l0.136,0.052l0.087,0.105l0.025,0.171l-0.028,0.07l-0.052,0.007l-0.049,-0.025l-0.098,0.028l-0.045,0.077l-0.074,0.011l-0.104,-0.032l-0.116,0.081l-0.014,0.083l0.039,0.063l0.014,0.105l0.049,0.003l0.014,-0.104l0.035,-0.011l0.073,0.063l0.007,0.056l-0.053,0.045l-0.014,0.119l-0.055,0.087l0.028,0.07l0.062,0.028l0.056,0.077v0.059l0.067,0.049l0.08,0.028l0.031,0.063l-0.014,0.066l0.06,0.066l0.213,0.046l0.188,0.146l-0.021,0.067l0.042,0.028l0.206,0.003l0.129,0.052l0.004,0.112l0.031,0.066l-0.007,0.084l0.021,0.035h0.105l0.066,-0.08l0.045,-0.147h0.056l0.021,0.06l0.171,0.097l-0.007,0.049l-0.139,0.046l-0.004,0.059l0.147,0.07l0.359,0.003l0.084,-0.049l0.101,-0.003l0.018,0.035l-0.07,0.063l-0.017,0.143l0.073,0.125l-0.038,0.014l-0.056,-0.017l-0.056,0.042l-0.007,0.091l0.063,0.097l0.069,0.007l0.028,-0.028l0.056,0.004l0.035,0.08l-0.042,0.021l-0.038,-0.038l-0.133,0.007l-0.031,0.066l-0.105,0.105v0.118l0.168,0.199l-0.014,0.046l-0.182,0.035l-0.185,-0.018l-0.014,-0.052l-0.056,-0.011l-0.108,0.063l-0.073,0.129h-0.06l-0.094,-0.125l-0.07,-0.049l-0.045,0.024l0.038,0.136l-0.035,0.042h-0.108l-0.028,0.039l0.014,0.07l-0.045,0.097h-0.049l-0.063,-0.073l-0.185,-0.014l-0.066,0.049l-0.049,-0.021l0.007,-0.073l-0.063,-0.021l-0.16,0.035l-0.007,0.052l0.146,0.073l-0.014,0.081l-0.115,0.052l-0.122,0.276l-0.185,0.181l-0.011,0.074l-0.042,0.048l-0.087,0.011l-0.038,0.038l0.003,0.056l-0.073,0.073l-0.087,0.011l-0.136,-0.038l-0.21,0.073l-0.084,0.126l0.007,0.115l-0.059,0.108l-0.175,0.15l-0.223,0.017l-0.094,-0.031l-0.081,0.014l-0.048,0.091l-0.014,0.153l-0.039,0.018l-0.171,-0.066h-0.118l-0.056,0.045l-0.014,0.087l-0.046,0.049l-0.384,0.084l-0.275,-0.011l-0.098,-0.049l-0.214,-0.06l-0.014,-0.055l-0.049,-0.018l-0.098,0.049l-0.034,0.084h-0.245l-0.139,0.014l-0.105,-0.039l-0.007,-0.045l0.038,-0.08l-0.024,-0.056l-0.161,-0.06h-0.08l-0.077,0.053l-0.244,-0.032l-0.14,-0.118l-0.003,-0.053l-0.063,-0.059l-0.056,-0.189l-0.003,-0.15l-0.035,-0.045l-0.098,-0.014l-0.066,-0.042l-0.081,-0.105l-0.052,-0.003l-0.035,0.028l-0.063,-0.004l-0.108,-0.09l-0.094,-0.039h-0.105l-0.098,-0.028l-0.059,-0.066l-0.094,-0.021l-0.042,-0.056h-0.056l-0.091,0.129l-0.119,0.07l-0.076,0.119l-0.231,0.017l-0.049,-0.049l-0.192,-0.021l-0.08,-0.045l-0.119,-0.007l-0.111,-0.042h-0.308l-0.069,0.025l-0.004,0.087l0.08,0.126l-0.017,0.069l-0.101,0.06l-0.025,0.118l-0.097,0.021l-0.137,0.14l0.021,0.101l0.091,0.014l0.105,0.091l-0.007,0.077l-0.073,0.097l-0.262,0.035l-0.046,0.042l0.004,0.109l-0.049,0.062l-0.003,0.22l-0.13,0.074l-0.073,-0.004l-0.181,-0.049l-0.105,0.011l-0.053,0.076l0.014,0.063l0.081,0.011l0.056,0.07l0.261,0.118l0.025,0.053l0.118,0.066l0.151,0.024l0.034,0.067v0.097l0.039,0.063l0.084,0.042l0.014,0.087l-0.028,0.091l0.007,0.095l0.129,0.139l0.101,0.025l0.136,0.125l0.028,0.098l0.053,0.031l0.055,0.004l0.185,0.157l0.098,0.042l0.154,0.003l0.066,-0.049h0.049l0.021,0.035l-0.011,0.151l-0.094,0.073l-0.003,0.056l0.136,0.129l0.105,0.028l0.034,0.038l0.004,0.053l0.049,0.02l0.084,-0.007l0.041,0.049l0.032,0.168l-0.042,0.07l0.01,0.063l0.067,0.083l-0.025,0.074l-0.153,0.125l-0.014,0.074l-0.077,0.083l-0.387,0.088l-0.007,0.056l0.073,0.062l0.014,0.063l0.258,0.231l0.025,0.087l0.076,0.056v0.07l-0.035,0.059l0.014,0.195l0.021,0.049l0.063,-0.003l0.049,0.038l0.024,0.06l0.06,0.038l0.077,0.007l0.073,0.052l0.052,0.077l0.077,0.007l0.028,-0.028l0.063,0.004l0.059,0.031l0.011,0.056l-0.102,0.108l-0.094,0.014l-0.07,-0.059l-0.069,0.014l-0.021,0.073l-0.067,0.017l-0.059,0.112l0.024,0.077l-0.045,0.014l-0.063,-0.042l-0.136,0.014l-0.007,0.059l0.077,0.049l0.049,0.08l0.052,0.004l0.059,-0.063l0.081,0.007l0.045,0.08l0.063,0.011l0.024,0.031l-0.111,0.189l-0.074,0.059l-0.083,0.007v0.039l0.15,0.045v0.077l-0.056,0.01l-0.018,0.056l0.035,0.073l-0.056,0.067l0.021,0.038l0.119,-0.024l0.049,0.024l0.017,0.108l0.049,0.032v0.059l-0.087,0.349l0.007,0.101l0.035,0.039l-0.004,0.049l-0.073,0.038l-0.174,0.007l-0.021,0.059l0.261,0.227l0.063,-0.01l0.088,0.042l0.02,0.09l0.06,0.032l0.115,0.007l0.227,0.08l-0.004,0.059l-0.08,0.039l-0.003,0.07l0.066,0.23l-0.007,0.07l-0.129,0.108v0.063l0.091,0.059h0.076l0.067,-0.045l0.097,0.003l0.056,0.032l0.168,0.017l0.063,0.063l0.024,0.381l0.063,0.094l-0.007,0.059l-0.08,0.028l-0.007,0.042l-0.088,0.007l-0.097,0.073l-0.136,0.042l-0.067,-0.003l-0.052,-0.077l-0.112,-0.018l-0.181,-0.069l-0.091,-0.004l-0.046,0.025l-0.216,-0.004l-0.031,0.025h-0.056l-0.129,-0.063l-0.22,-0.011l-0.067,-0.038l-0.146,0.003l-0.129,0.056h-0.091l-0.119,-0.042l-0.059,-0.132l-0.098,-0.035h-0.174l-0.049,-0.021l-0.056,0.003l-0.053,0.063l-0.062,0.007l-0.014,0.039l0.059,0.055l-0.017,0.042l-0.112,0.053l-0.262,0.048l-0.042,0.046l0.007,0.084l-0.038,0.028l-0.004,0.038l0.025,0.042l-0.007,0.045l-0.109,0.175l-0.069,0.056l-0.213,0.066l-0.088,-0.007l-0.192,-0.101l-0.051,-0.107l-0.088,-0.07l-0.172,-0.023l-0.131,-0.07l-0.051,-0.135l-0.088,-0.005l-0.215,0.093l-0.223,0.014l-0.372,0.079l-0.219,-0.004l-0.061,-0.084l-0.079,0.019l-0.004,0.065l-0.047,0.037h-0.06l-0.033,0.051l0.107,0.103l-0.005,0.074l-0.065,0.065l-0.014,0.07l0.052,0.056l-0.056,0.121l-0.098,0.014l-0.121,0.074l-0.023,0.061l0.079,0.037l-0.024,0.056l-0.102,0.005l-0.023,0.041l0.037,0.07l-0.033,0.051l-0.074,0.005l-0.056,-0.046l-0.07,0.009l-0.042,0.07l-0.083,0.032v0.065l-0.052,0.019l-0.074,-0.023l-0.042,0.051l0.089,0.214l-0.117,0.121l-0.018,0.07l-0.061,0.032l-0.265,-0.051l-0.098,0.047l-0.084,0.102l-0.004,0.075l-0.047,0.065l-0.074,0.023l-0.075,0.149l0.014,0.144l-0.047,0.056l-0.102,0.014l-0.079,0.084l0.046,0.181l-0.046,0.075l-0.172,0.033l-0.079,0.083l-0.084,0.028l0.004,0.07l0.075,0.014l0.084,-0.047l0.097,0.014l-0.023,0.112l-0.149,0.186l-0.023,0.121l-0.084,0.052l-0.237,-0.01l-0.07,0.033l-0.009,0.07l0.107,0.135l0.009,0.093l-0.051,0.051v0.079l0.065,0.093l-0.042,0.037h-0.149l-0.028,0.056l0.061,0.065l-0.028,0.056h-0.103l-0.032,0.047l0.023,0.088l-0.051,0.047l-0.088,-0.014l-0.028,0.046l0.051,0.084l0.107,0.056l0.079,-0.005l0.06,0.042l-0.037,0.033h-0.116l-0.042,0.051l0.112,0.144l0.004,0.07l0.075,0.023l0.098,-0.093l0.069,0.005l0.042,0.065l-0.018,0.07l-0.103,0.093v0.112l0.112,0.125l0.033,0.14l0.097,0.084l-0.009,0.065l-0.163,0.112l0.005,0.111l0.079,0.112l0.107,0.005l0.019,-0.051l0.069,0.004l0.065,0.191l0.154,0.237l-0.014,0.089l-0.102,0.028l-0.01,0.07l0.107,0.107l0.005,0.069l-0.051,0.052l-0.177,0.028l-0.181,0.158l-0.084,0.032l-0.024,0.084l0.01,0.093l-0.056,0.145l-0.149,0.055l-0.074,-0.009l-0.149,-0.102l-0.107,-0.014l-0.177,0.042l-0.103,-0.005l0.01,-0.084l0.065,-0.06v-0.112l-0.056,-0.047l-0.112,-0.004l-0.088,0.042l-0.079,-0.01l-0.117,-0.055l-0.042,-0.098l-0.27,-0.233l-0.093,-0.019l-0.018,-0.069l0.177,-0.168l-0.07,-0.354l-0.07,-0.028l-0.102,-0.079l-0.014,-0.06l-0.191,-0.191l-0.117,-0.056l-0.088,-0.093l-0.126,-0.084l-0.186,-0.042l-0.181,-0.149l-0.089,0.028l-0.023,0.135l-0.056,0.019l-0.079,-0.047l-0.079,-0.079l-0.051,0.019v0.084l-0.061,0.046l-0.233,-0.084l-0.186,-0.009l-0.214,-0.07l-0.042,0.028l0.023,0.061l-0.051,0.079l-0.084,0.032l-0.079,-0.023l-0.051,0.033l-0.032,0.079l-0.103,0.018l-0.079,-0.139l-0.112,-0.023l-0.223,0.032l-0.037,0.084l-0.01,0.102l-0.051,0.075v0.07l-0.046,0.028l-0.107,-0.028l-0.038,-0.056l-0.074,-0.01l-0.103,0.061l-0.051,-0.009l-0.032,-0.066l-0.093,0.005l-0.014,0.084l-0.066,0.019l-0.288,-0.121l-0.084,-0.27l0.098,-0.024l0.028,-0.051l-0.056,-0.098l0.032,-0.125l-0.069,-0.056l-0.14,0.023l-0.047,0.065l-0.195,0.084l-0.005,0.07l-0.037,0.004l-0.037,-0.032l-0.065,0.005l-0.024,0.055h-0.046l-0.033,-0.051h-0.06l-0.037,0.075l-0.107,0.074l-0.019,0.158l-0.084,0.066l-0.084,0.004l-0.204,-0.158l-0.061,0.005l-0.019,0.139l-0.079,0.075l-0.028,0.088l0.024,0.079l-0.107,0.303l-0.098,0.023l-0.405,-0.116l-0.121,-0.005l-0.214,0.093l-0.051,0.084l-0.103,0.06h-0.13l-0.047,0.052l-0.042,-0.005l-0.004,-0.088l0.042,-0.056v-0.065l-0.075,-0.145l-0.018,-0.116l-0.052,-0.098l0.01,-0.051l-0.042,-0.061l-0.098,-0.018l-0.074,0.028l-0.042,-0.056l0.023,-0.079l-0.037,-0.056l-0.079,-0.042l-0.014,-0.321l0.065,-0.126l-0.042,-0.265l-0.079,-0.037l-0.126,0.009l-0.112,-0.107l0.01,-0.098l-0.028,-0.07l-0.121,-0.042l-0.024,-0.065l0.042,-0.051l-0.014,-0.056l-0.144,-0.028l0.005,-0.093l0.07,-0.06l-0.005,-0.056l-0.144,-0.009l-0.14,-0.038l-0.088,0.019l-0.131,0.135l-0.004,0.079l-0.047,0.047l-0.126,0.004l-0.186,0.172l-0.028,0.112l-0.153,0.117l-0.135,-0.005l-0.028,0.046l-0.093,-0.014l-0.038,-0.116l-0.055,-0.009l-0.084,0.032h-0.103l-0.121,-0.014l-0.144,0.01l-0.074,0.097l-0.266,0.14l-0.116,-0.005l-0.075,0.08l-0.027,0.111l-0.163,0.224l-0.112,0.214v0.06l0.051,0.028l0.047,0.065v0.07l0.032,0.042l-0.018,0.07l-0.061,0.051l-0.023,0.144l-0.065,0.08l-0.051,-0.005l-0.075,-0.126l-0.019,-0.088l0.014,-0.177l-0.046,-0.014l-0.056,0.047l-0.033,0.093l-0.107,0.037h-0.111l-0.224,-0.656l0.024,-0.07l-0.042,-0.2l0.074,-0.066v-0.074l-0.079,-0.051l-0.596,-0.01l-0.023,-0.069l-0.205,-0.014l-0.065,-0.056l-0.289,-0.009l-0.474,0.344l-0.247,0.084l-0.051,-0.047l0.023,-0.107l-0.074,-0.177l-0.098,-0.07l-0.298,-0.307l-0.158,0.01l-0.028,-0.066l0.042,-0.074l0.028,-0.224l0.037,-0.074l-0.042,-0.065h-0.07l-0.121,0.065l-0.046,0.051l-0.317,0.168l-0.042,0.056l-0.023,0.144l-0.084,0.14l-0.051,0.018l-0.089,-0.018l-0.055,0.032l-0.08,0.168l-0.167,0.088l-0.084,-0.028l-0.056,0.014l-0.074,0.075l-0.535,0.065l-0.052,-0.033l-0.028,-0.125l0.07,-0.135l-0.056,-0.014l-0.125,0.135l-0.117,0.014l-0.042,-0.052l0.024,-0.172l-0.093,-0.121l-0.261,-0.079l-0.088,0.009l-0.159,0.084l-0.004,0.047l0.051,0.014l-0.005,0.046l-0.046,0.061v0.246l0.093,0.187l-0.005,0.055l-0.084,0.056l-0.177,0.014l-0.069,0.056l-0.08,0.168l-0.074,0.083l-0.047,0.098l0.005,0.075l-0.042,0.037l-0.125,-0.009l-0.084,-0.117l-0.135,-0.084l-0.103,-0.009l-0.167,-0.126l0.004,-0.051l0.075,-0.028l0.014,-0.135l0.275,-0.209l0.051,-0.228l-0.033,-0.117l-0.2,-0.023l-0.07,-0.065h-0.107l-0.07,-0.033l-0.093,0.005l-0.06,0.061l-0.103,0.004l-0.391,-0.246l-0.083,0.009l-0.014,0.093l-0.052,0.005l-0.097,-0.098l-0.066,0.018l0.01,0.201l0.074,0.028l-0.065,0.144l-0.088,0.004l-0.098,-0.041l-0.005,-0.089l0.042,-0.079l-0.051,-0.014l-0.065,0.065l-0.056,0.005l-0.07,-0.075l-0.135,0.005l-0.056,0.079h-0.214l-0.149,-0.07h-0.088l-0.084,0.052l-0.479,0.014l-0.038,0.037l-0.13,0.004l-0.005,-0.051l0.042,-0.051l0.005,-0.112l0.14,-0.172l-0.005,-0.098l-0.112,-0.083l-0.219,0.018l-0.093,-0.051l-0.032,-0.898l-1.29,0.06l-0.307,0.289h-0.07l-0.186,-0.065l-0.284,-0.019l-0.121,-0.084l-0.195,-0.009l-0.089,0.046l-0.111,-0.009l-0.191,-0.116l-0.047,-0.056l-0.018,-0.21l-0.149,-0.093l-0.065,0.014l-0.098,-0.004l-0.098,-0.075l-0.521,-0.018l-0.089,-0.056l-0.046,0.014l-0.023,0.074l-0.219,0.065l-0.051,0.126l-0.47,-0.009l-0.052,-0.028l-0.023,-0.093l-0.177,-0.042l-0.056,-0.107l-0.074,-0.024l-0.126,0.014l-0.042,-0.032l0.01,-0.368h-0.047l-0.116,0.112l-0.303,-0.005l-0.102,0.037l-0.196,-0.046l-0.032,-0.047l-0.345,-0.004l-0.037,0.056l-0.172,0.023l-0.21,-0.037l-0.023,-0.075l-0.046,-0.023l-0.066,0.018l-0.088,-0.065v-0.065l-0.037,-0.046l-0.065,-0.01l-0.07,-0.042l-0.024,-0.074l-0.06,-0.037l-0.228,0.004l-0.051,-0.018l-0.028,-0.056l-0.056,-0.042l-0.196,-0.019l-0.032,-0.042h-0.07l-0.316,0.14l-0.145,0.009l-0.098,-0.037h-0.2l-0.069,-0.037l-0.252,0.014l-0.042,-0.037l-0.004,-0.066l0.046,-0.023l-0.004,-0.056l-0.103,-0.028l-0.158,0.014l-0.051,-0.037l-0.061,0.023l0.028,0.121l-0.005,0.084l-0.065,0.024l-0.111,-0.019l-0.219,0.056h-0.224l-0.572,-0.056l-0.4,-0.14l-0.07,0.033l-0.126,0.102l-0.2,0.019l-0.41,0.005l-0.083,-0.038l-0.168,-0.014l-0.023,-0.042l-0.056,-0.018l-0.089,0.018l-0.148,-0.065l-0.033,-0.051l-0.34,-0.181l-0.158,-0.01l-0.065,0.047h-0.065l-0.084,-0.047l-0.21,-0.009l-0.107,0.042l-0.056,0.07l-0.232,0.042l-0.093,-0.019l-0.117,0.019l-0.228,0.116l-0.256,0.167l-0.186,0.047l-0.154,0.154l-0.149,0.028l-0.074,-0.014l-0.107,-0.177h-0.065l-0.065,0.051l-0.275,0.102l-0.07,-0.004l-0.051,-0.117h-0.168l-0.158,0.154l-0.158,0.079l-0.13,0.005l-0.163,-0.098l-0.098,-0.019l-0.144,0.038l-0.065,-0.005l-0.084,-0.056l-0.349,-0.014l-0.2,0.047l-0.07,0.06h-0.415l-0.172,0.051l-0.61,0.005l-0.125,0.046l-0.135,0.112l-0.07,0.014l-0.014,0.061l0.033,0.056l-0.033,0.079l-0.172,0.121l-0.079,0.135l-0.01,0.121l0.084,0.265l0.075,0.088v0.066l-0.368,0.302l-0.908,0.372l-0.079,0.07l-0.079,0.172l-0.172,0.201l-0.135,0.079l-0.214,0.084l-0.051,0.055l-0.014,0.07l-0.084,0.056l-0.061,0.005l-0.218,-0.07l-0.089,-0.061l-0.279,-0.023l-0.107,0.047l-0.056,-0.005l-0.014,-0.084l0.186,-0.2l-0.009,-0.065l-0.21,-0.065l-0.181,0.004l-0.079,-0.037h-0.084l-0.07,0.042l-0.126,0.005l-0.032,-0.051l0.009,-0.135l-0.06,-0.047l-0.498,0.158l-0.123,-0.033l-0.069,0.019l-0.041,0.067l-0.055,0.028l-0.087,-0.004l-0.054,0.026l-0.054,0.067l-0.158,0.065v0.035l0.123,0.091l0.017,0.102l0.037,0.026l0.076,0.003l0.111,0.093l-0.007,0.095l-0.08,0.039l-0.069,0.124l0.004,0.065l0.094,0.057l0.136,0.225l-0.004,0.078l-0.048,0.025l-0.228,-0.027l-0.043,-0.032l-0.057,-0.007l0.002,-0.035l0.027,-0.025l-0.003,-0.037l-0.06,-0.079l-0.115,-0.049l-0.092,0.019l-0.091,-0.028l-0.01,-0.111l0.063,-0.041l0.008,-0.045l-0.059,-0.052l-0.018,-0.06l0.014,-0.048l-0.021,-0.056l-0.076,-0.06l-0.025,-0.08l-0.066,-0.035l-0.004,-0.105l0.039,-0.059l-0.007,-0.101l0.028,-0.035l-0.004,-0.063l-0.045,-0.038v-0.077l0.052,-0.059l0.049,-0.007l0.011,-0.042l-0.018,-0.196l0.021,-0.084l-0.049,-0.178l-0.031,-0.024l-0.06,0.003l-0.045,-0.048l-0.003,-0.074l0.038,-0.056l0.108,-0.052l0.046,-0.108l0.069,-0.025l0.07,0.028l0.108,-0.014l0.046,-0.09l0.066,-0.039l0.077,0.004l0.08,-0.063l0.014,-0.091l0.06,-0.052l-0.007,-0.091l-0.088,-0.108l-0.003,-0.056l-0.046,-0.035l-0.08,-0.007l-0.028,-0.066l0.08,-0.063l-0.003,-0.08l-0.063,-0.081v-0.052l0.098,0.007l0.031,-0.028l-0.021,-0.049l0.007,-0.059l0.049,-0.049l-0.01,-0.063l-0.091,-0.045l-0.035,-0.109l0.049,-0.041l0.084,0.003l0.063,-0.063l-0.007,-0.122l-0.091,-0.01l0.007,-0.046l0.084,-0.017l0.031,-0.053l0.049,-0.038l0.056,0.003l0.042,-0.024l-0.011,-0.063l0.028,-0.063l0.098,-0.042l0.003,-0.069l-0.115,-0.171l-0.07,-0.007l-0.007,-0.049l0.032,-0.049l0.007,-0.115l-0.133,-0.147l0.007,-0.038h0.056l0.01,-0.039l-0.052,-0.031l-0.021,-0.112l-0.052,-0.059l-0.088,-0.021l-0.069,-0.059l-0.018,-0.088l-0.098,-0.098l-0.237,-0.003l-0.059,0.066l-0.039,-0.007v-0.115l-0.084,-0.077h-0.066l-0.059,-0.042l0.01,-0.073l-0.042,-0.028l-0.059,0.011l-0.091,-0.025l0.011,-0.111l0.056,-0.074l0.066,-0.007l0.003,-0.045l-0.083,-0.032l-0.077,0.004l-0.07,0.049l-0.045,-0.004l-0.028,-0.062l-0.084,-0.004l-0.094,0.087h-0.056l-0.032,-0.059l-0.041,-0.011l-0.067,0.032l-0.045,-0.011l-0.011,-0.08l0.035,-0.049l-0.045,-0.052l-0.101,0.038l-0.06,-0.028l0.004,-0.066l-0.053,-0.017l-0.027,0.031l-0.039,-0.003l-0.007,-0.046l-0.049,-0.007l-0.059,0.021l-0.091,-0.014l-0.066,0.018l-0.08,-0.021l0.003,-0.039l0.056,-0.024v-0.035l-0.08,-0.007l-0.133,0.063h-0.105l-0.37,-0.091l-0.056,-0.08l-0.007,-0.063l0.042,-0.073l0.007,-0.22l-0.132,-0.067l-0.004,-0.066l0.628,-0.918l0.154,-0.073l0.066,-0.098l0.011,-0.101l0.482,-0.601l0.244,-0.258l0.237,-0.164l0.056,-0.081l0.44,-0.261l0.705,-0.262l0.517,-0.07l0.098,0.07l0.038,-0.007l0.021,-0.035l0.112,-0.007l0.806,-0.593l0.098,-0.021l0.097,-0.126l0.196,-0.15l0.017,-0.901l-0.094,-0.139v-0.625l-0.063,-0.056l0.011,-0.293l0.164,-0.147l0.007,-0.07l-0.084,-0.133l0.011,-0.23l-0.042,-0.181l-0.098,-0.049l-0.007,-0.042l0.042,-0.035l-0.011,-0.052l-0.104,-0.035l-0.007,-0.042l0.038,-0.042l-0.031,-0.053l-0.091,-0.017l-0.084,-0.129v-0.091l0.073,-0.052l0.039,-0.108l-0.021,-0.063l0.098,-0.182l0.069,-0.028l0.025,-0.059l-0.039,-0.035l0.007,-0.045l0.035,-0.018l-0.007,-0.094l-0.09,-0.108l-0.077,-0.018l-0.112,-0.139l-0.066,-0.039l-0.021,-0.22l-0.053,-0.087l-0.23,-0.126l-0.558,-1.42l-0.217,-0.419l-0.318,-0.824l-0.453,-1.515l-0.007,-0.283l-0.028,-0.087l-0.21,-0.217l-0.01,-0.513l0.038,-0.042l-0.007,-0.087l-0.038,-0.021l-0.004,-0.038l0.039,-0.025v-0.038l-0.109,-0.018l-0.076,-0.052l0.003,-0.119l-0.08,-0.356l0.01,-0.328l0.021,-0.031l0.075,0.019l0.07,0.076l0.089,0.015l0.026,0.022l0.039,0.004l0.058,-0.028l0.185,0.078l0.035,0.076l0.062,0.007l0.035,-0.028l0.109,-0.001l0.086,-0.054h0.076l0.049,0.024l0.2,-0.018l0.061,-0.033h0.083l0.196,0.089l0.079,0.004l0.126,0.135l0.009,0.051l-0.033,0.033l0.01,0.042l0.13,-0.005l0.135,-0.088l-0.005,-0.07l-0.088,-0.075l-0.005,-0.093l0.228,-0.172l0.149,0.005l0.103,0.098l0.088,0.004l0.121,-0.116l0.023,-0.126h0.075l0.037,0.056l0.079,0.037h0.084l0.093,0.056l0.056,0.103v0.065l-0.033,0.028l0.01,0.051l0.116,0.018l0.754,-0.13l0.009,-0.154l0.07,-0.032l0.051,0.032h0.149l0.07,-0.06l0.14,-0.014l0.098,-0.06l0.083,0.004l0.075,0.098l-0.005,0.056l0.117,0.056l0.121,-0.066l0.065,0.033l0.009,0.056l0.168,0.158l0.135,-0.014l0.023,0.037l-0.028,0.056l0.028,0.051l0.065,0.038l0.079,0.004l0.107,0.075l0.075,0.009l0.172,-0.06l0.288,-0.01l0.047,0.033l0.084,-0.009l0.065,-0.159l0.056,-0.018l0.042,-0.075l0.102,-0.037l0.112,-0.116l0.009,-0.103l0.075,-0.079l0.116,-0.009l0.214,-0.168l0.098,-0.004l0.251,-0.201l0.047,-0.004l0.056,0.028l0.167,0.004l0.075,-0.088l0.162,-0.005l0.056,0.079l-0.023,0.112l-0.051,0.047l-0.005,0.149l-0.037,0.055l0.023,0.042l0.298,-0.014l0.023,-0.037l-0.023,-0.074l0.117,-0.117l-0.014,-0.056l0.069,-0.009l0.075,0.037l0.158,-0.046l0.084,0.028l0.051,-0.028v-0.084l0.121,-0.121v-0.065l0.2,-0.037l0.014,-0.052l-0.074,-0.013l-0.051,0.037h-0.084l-0.089,-0.093l-0.014,-0.191l-0.158,-0.238l-0.14,-0.055l-0.041,-0.135l0.055,-0.038l0.08,0.01l0.218,-0.112l0.033,-0.042l-0.07,-0.074l0.023,-0.038l0.247,-0.042l0.061,0.024l0.549,-0.2l0.125,0.009l0.103,0.121v0.07l0.065,0.046l0.205,0.056l0.191,-0.004l0.069,0.037l0.066,-0.005l0.037,-0.079l0.084,-0.023l0.288,-0.335l0.144,-0.056l0.047,-0.107l0.165,-0.075l0.091,-0.129l0.011,-0.147l0.055,-0.062l0.018,-0.105l0.084,-0.042l0.069,0.007l0.028,0.056l0.056,-0.004l0.091,-0.157l0.056,-0.003l0.157,0.097l0.339,-0.01l0.108,-0.094l0.104,-0.039l0.07,0.028l0.07,-0.035l0.045,-0.08l0.161,-0.084h0.119l0.024,0.035l0.077,0.007l0.077,-0.031l0.003,-0.049l0.042,-0.021l0.046,0.024l0.038,-0.014l0.01,-0.052h0.063l0.063,0.098l-0.014,0.07l0.021,0.059l0.293,0.087v0.046l-0.038,0.028l-0.007,0.055l0.202,0.231v0.056l-0.062,0.017l-0.081,-0.045l-0.115,0.017l-0.014,0.056l0.105,0.084l0.007,0.077l-0.07,0.087l-0.241,0.07l-0.028,0.063l0.053,0.118l0.059,0.025l0.042,0.083l0.111,0.07l0.049,0.007l0.046,-0.031l0.216,0.045l0.014,0.032l0.15,0.024l0.046,0.15l0.038,0.007l0.031,-0.07l0.053,0.004l0.07,-0.077l0.132,-0.003l0.053,-0.07l0.003,-0.06l0.073,-0.052l0.011,-0.07l0.059,-0.017l0.147,0.118h0.045l0.039,-0.024h0.185l0.042,0.059l0.041,-0.007l0.004,-0.062l-0.063,-0.081v-0.08l-0.038,-0.028l-0.007,-0.042l0.045,-0.031l-0.007,-0.084l-0.185,-0.136l0.007,-0.06l0.224,-0.101l-0.004,-0.045l-0.066,-0.018l-0.129,-0.115l-0.032,-0.146l-0.08,-0.063l-0.098,-0.007l-0.045,0.031h-0.046l-0.045,-0.077v-0.094l0.035,-0.031l-0.004,-0.06l-0.178,-0.192l-0.101,-0.014l-0.073,0.07l-0.06,0.007l-0.052,-0.038h-0.049l-0.042,0.042l-0.063,0.003l-0.139,-0.052l-0.007,-0.032l-0.053,-0.01l-0.16,0.045h-0.045l-0.028,-0.049l0.028,-0.031l-0.014,-0.049l-0.102,-0.038l0.014,-0.046l0.112,-0.035l0.038,-0.139l0.067,-0.081l0.132,-0.038l0.039,-0.056l-0.06,-0.115l0.007,-0.084l0.039,-0.007l0.031,0.035l0.07,-0.003l0.157,-0.185v-0.088l-0.07,-0.195l0.028,-0.059l-0.042,-0.028l-0.052,0.024l-0.056,-0.014l0.007,-0.049l0.084,-0.073l0.126,-0.021l0.083,-0.129l0.049,-0.175l0.122,-0.209l0.102,-0.087l0.37,-0.189l0.087,-0.115l-0.004,-0.07l-0.048,-0.077l-0.032,-0.248l0.011,-0.041l-0.004,-0.063l-0.059,-0.046l-0.004,-0.056l0.018,-0.055l-0.004,-0.063l-0.115,-0.262l0.007,-0.056l0.042,-0.073l-0.007,-0.157l0.063,-0.105l-0.011,-0.307l0.035,-0.039v-0.069l-0.073,-0.137l-0.025,-0.153l0.007,-0.101l0.091,-0.13l0.157,-0.024l0.06,-0.112l-0.028,-0.129l0.038,-0.063l0.07,-0.014l0.122,-0.101l0.004,-0.056l0.073,-0.07l0.073,-0.017l0.119,-0.101l0.014,-0.231l0.052,-0.052l0.056,-0.004l0.07,-0.048l0.129,0.021l0.115,-0.025l0.136,-0.087l0.046,-0.053l0.234,-0.062l0.045,0.01l0.031,0.056l0.165,0.049l0.251,0.024l0.021,-0.024l-0.035,-0.032l0.021,-0.035l0.115,-0.02l0.018,-0.035l-0.028,-0.056l0.031,-0.053l0.189,-0.027l0.048,-0.042l0.014,-0.091l0.042,-0.021l0.081,0.031l0.073,-0.01l0.08,-0.046h0.203l0.09,-0.034l0.032,-0.049l-0.004,-0.077l0.018,-0.042l0.049,-0.014l0.143,-0.199v-0.119l0.038,-0.014l0.004,-0.038l-0.06,-0.038l0.004,-0.053l0.038,-0.028l0.053,-0.003l0.059,0.031l0.031,-0.017v-0.056l0.035,-0.014l0.004,-0.038l-0.112,-0.112l-0.059,-0.007l-0.053,-0.07l0.007,-0.091l0.126,-0.101l0.311,-0.042l0.038,-0.028l-0.035,-0.031l0.018,-0.032h0.122l0.024,-0.028l-0.035,-0.055l0.039,-0.018l0.052,0.014l0.073,-0.007l0.032,-0.042h0.105l0.153,0.077l0.004,0.059l0.038,0.004l0.073,-0.045l0.095,0.003l0.16,0.056l0.042,-0.011l0.035,0.014l-0.004,0.035l0.028,0.007l0.084,-0.07l0.028,-0.101l0.063,-0.059l0.059,-0.004l0.06,-0.045l0.083,-0.004l0.102,0.123l0.111,0.007l0.074,-0.056l0.087,0.007l0.059,-0.032l0.077,0.004l0.084,0.056l0.08,-0.007l0.161,-0.105h0.059l0.035,0.031l0.087,-0.017l0.007,-0.063l0.039,-0.031l0.083,0.017l0.053,-0.045l-0.018,-0.056l-0.111,-0.045l-0.039,-0.06l-0.007,-0.084l0.06,-0.055l0.055,-0.004l0.018,0.035l0.056,-0.004l0.15,-0.104l0.014,-0.067l-0.035,-0.104l0.007,-0.095l0.101,-0.108l0.087,-0.003l0.056,-0.042l0.119,-0.011l0.014,-0.052l0.038,-0.021l0.042,0.011l0.028,-0.007l0.021,-0.053l0.066,-0.031l0.119,0.007l0.035,-0.084l-0.004,-0.171l-0.118,-0.063l-0.021,-0.052l-0.14,-0.046l-0.07,0.021l-0.052,-0.003l-0.059,-0.042l-0.175,-0.007l-0.042,0.024l-0.077,-0.007l-0.132,-0.073l-0.129,-0.01l-0.084,-0.063h-0.035l-0.024,0.031h-0.07l-0.074,0.122h-0.048l-0.007,-0.09l-0.049,-0.004l-0.056,0.066l-0.098,0.028l-0.143,-0.017l-0.073,0.017l-0.07,-0.021l-0.056,-0.052l-0.297,-0.049l-0.049,-0.035l-0.132,-0.024l-0.053,0.014l-0.129,-0.025l-0.017,-0.042l0.024,-0.034l0.07,-0.004l0.073,-0.052l0.046,-0.105l0.08,-0.031l0.059,0.028l0.053,-0.018l0.038,-0.087l0.251,-0.074l0.025,-0.041l-0.032,-0.091l0.007,-0.046l0.053,-0.017l0.014,-0.045l-0.126,-0.217l0.014,-0.031l0.073,0.017l0.018,-0.024l-0.087,-0.074l0.003,-0.052l0.038,-0.052l0.046,-0.011l0.01,-0.052l-0.045,-0.108l-0.059,-0.011l-0.039,-0.045l0.007,-0.119l-0.07,-0.08l-0.003,-0.08l0.077,-0.095l0.09,-0.01l0.077,-0.056l0.091,-0.014l0.056,-0.038l0.01,-0.081l0.157,-0.153l0.067,0.003l0.028,-0.035l-0.004,-0.045l0.084,-0.171l0.003,-0.08l-0.028,-0.053l-0.007,-0.08l0.035,-0.37l-0.035,-0.073v-0.154l-0.009,-0.034l0.04,-0.025l0.035,-0.105l0.06,-0.037l0.002,-0.024l-0.034,-0.021l0.002,-0.025l0.049,-0.009l0.381,0.053l0.082,0.037l0.088,0.112l0.068,0.042l0.207,0.028l0.039,-0.021l0.08,-0.144l0.046,-0.024h0.072l0.042,-0.021l0.033,-0.044l0.074,-0.028l0.207,-0.042l0.068,-0.102v-0.042l-0.019,-0.028v-0.037l0.149,-0.14l0.003,-0.065l0.118,-0.247l0.049,-0.053h0.07l0.067,0.014l0.028,-0.019l0.017,-0.053l0.104,-0.093l0.014,-0.049l0.049,-0.037l0.091,-0.007l0.079,-0.042l0.049,-0.068l0.086,-0.002l0.04,0.037h0.037l0.039,-0.058h0.082l0.24,0.023l0.048,-0.009l0.028,-0.047l-0.002,-0.086l0.014,-0.035l0.147,-0.042h0.062l0.033,0.026l0.044,-0.002l0.021,-0.028l0.04,-0.003l0.079,0.063l0.014,0.063l0.051,0.023l0.123,0.005l0.068,0.044l0.03,0.075l0.212,0.163l0.028,0.083l0.042,0.033l0.2,0.061l0.044,-0.007l0.035,-0.035l0.314,-0.089l0.051,-0.042l0.014,-0.056l0.052,-0.037l0.048,-0.002l0.061,0.077l0.368,0.107l0.244,0.011l0.054,0.038l0.493,0.058l0.247,0.002l0.132,-0.019l0.044,-0.041l0.149,-0.491l0.005,-0.084l-0.091,-0.342l0.003,-0.066l0.167,-0.174l0.002,-0.144l0.631,-0.426l0.03,-0.035h0.08l0.025,0.025l0.1,0.007l0.035,-0.014l0.002,-0.044l0.089,-0.065l0.035,-0.002l0.016,-0.026l-0.012,-0.046l0.012,-0.028l-0.03,-0.07l0.018,-0.023l0.042,0.007l0.021,-0.021l0.005,-0.028l0.081,-0.063l0.007,-0.04l-0.067,-0.051l-0.091,-0.025l0.005,-0.04l0.072,-0.03h0.051l0.047,0.021l0.049,-0.005l0.032,-0.033l0.042,-0.014l0.04,0.007l0.037,-0.025l0.007,-0.04l0.039,-0.023l0.126,-0.009l0.07,0.044l0.028,-0.012l0.016,-0.07l0.035,-0.02l0.04,0.002l0.02,-0.021v-0.033l0.077,-0.067l0.026,-0.158l0.067,-0.073l0.005,-0.058l0.019,-0.023l0.055,-0.002l0.068,-0.049l0.002,-0.072l0.035,-0.031l0.061,-0.009l0.046,-0.03l0.117,-0.007l0.076,0.021l0.047,0.044h0.077l0.03,-0.026l0.005,-0.065l0.13,-0.1h0.063l0.093,0.021l0.028,-0.023l0.007,-0.082l0.046,-0.03l0.091,-0.105l0.068,-0.023l0.053,-0.046l0.042,-0.014l0.072,0.009z M1325.282882,368.766758l0.056,0.004l0.046,-0.034l0.056,0.006l0.019,0.075l0.067,0.005l0.056,-0.066l-0.009,-0.06l-0.105,-0.044l-0.186,-0.007l-0.033,0.046l0.033,0.075z"/>
</svg>
