<svg xmlns="http://www.w3.org/2000/svg" viewBox="528.169 627.639 11.481 17.754">
  <path d="M536.051856,630.745193l0.00464,-0.051146l0.043305,-0.078912l0.019236,-0.000776l0.00551,0.02708l-0.051038,0.100832l-0.021652,0.002923Z M536.613755,630.548188l0.019719,-0.020961l-0.035668,-0.037766l-0.003093,-0.029227l-0.024746,-0.008768l-0.015369,0.036168l0.018463,0.045667l0.040695,0.014887Z M536.415307,630.395936l0.046398,-0.020459l0.055678,-0.084757l-0.015466,-0.026304l-0.040212,0.014613l-0.030932,-0.014613l-0.037118,0.011691l-0.018559,0.058453l-0.037118,0.035072l-0.003093,0.023381l0.080423,0.002923Z M536.597806,630.650207l0.006186,-0.029227l-0.021652,-0.014613l-0.021652,0.020459l0.015466,0.032149l0.021652,-0.008768Z M536.639178,630.157133l0.027371,-0.039396l0.002511,-0.034001l-0.020848,-0.012931l-0.027518,0.019791l0.000393,0.052281l0.018091,0.014256Z M536.532413,630.147601h0.022184l0.019719,-0.034935l-0.00435,-0.029455l-0.017834,0.008494l-0.012324,0.02329l-0.007395,0.032606Z M536.631831,630.249803l0.018559,-0.035072l-0.018559,-0.026304l-0.055678,-0.002923l-0.024746,0.026304l-0.003093,0.073066l0.021652,0.014613l0.061864,-0.049685Z M535.564677,633.43885l0.015466,-0.043305h0.061864l0.058771,0.046398l0.046398,0.188685v0.105169l0.046398,0.043305l-0.012373,0.024746l-0.071144,-0.030932l-0.037118,-0.046398l-0.003093,-0.092796l-0.006186,-0.092796l-0.027839,-0.052584l-0.071144,-0.049491Z M536.087428,632.513984l0.024746,-0.021652l0.003093,-0.114448l0.043305,-0.117542l-0.021652,-0.012373l-0.055678,0.043305l-0.015466,0.16394l0.021652,0.058771Z M535.725523,635.930423l0.023199,-0.051038l0.013919,-0.129914l-0.013919,-0.060317h-0.060317l-0.018559,0.055678l0.023199,0.074237v0.097436l0.032479,0.013919Z M535.663659,634.351344l0.00928,0.136101l0.120635,0.179406l0.046398,-0.006186l-0.040212,-0.216524l0.046398,-0.083516l-0.018559,-0.07733l-0.120635,-0.120635l-0.139194,-0.049491l-0.043305,0.034025l0.00928,0.074237l0.129914,0.129914Z M535.117709,633.870352l0.037118,-0.027839v-0.037118l-0.060317,0.00928l-0.013919,0.037118l0.037118,0.018559Z M531.707456,643.20099l0.051038,0.023199l0.037118,-0.032479l-0.018559,-0.032479h-0.055678l-0.013919,0.041758Z M535.600249,638.927734l0.027839,-0.032479l-0.013919,-0.046398h-0.046398l-0.00464,0.064957l0.037118,0.013919Z M532.08792,643.047876l0.037118,-0.032479l-0.018559,-0.032479l-0.051038,0.00464l-0.013919,0.046398l0.046398,0.013919Z M534.417099,641.052762l0.060317,-0.027839l-0.041758,-0.037118h-0.060317l-0.032479,0.046398l0.074237,0.018559Z M535.688405,638.445195h0.046398l0.027839,-0.046398v-0.046398h-0.041758l-0.046398,0.060317l0.013919,0.032479Z M539.564184,634.713249l0.080423,-0.024746l0.006186,-0.08661l-0.06805,-0.037118l-0.098982,0.037118l-0.012373,0.080423l0.092796,0.030932Z M538.920799,636.383577l0.080423,-0.06805l0.030932,-0.061864l-0.061864,-0.055678l-0.049491,0.006186l-0.030932,0.142287l0.030932,0.037118Z M535.94514,637.886872l0.061864,-0.024746l-0.006186,-0.043305l-0.080423,-0.006186l-0.037118,0.049491l0.061864,0.024746Z M536.11836,637.707467l0.018559,-0.049491l-0.035572,-0.034025l-0.041758,0.027839l0.00464,0.060317l0.054131,-0.00464Z M535.966793,637.197089l0.069597,-0.027839l0.055678,-0.027839l-0.013919,-0.078877l-0.051038,-0.023199l-0.060317,0.046398l-0.032479,0.083516l0.032479,0.027839Z M535.855438,635.155576l0.032479,-0.037118l-0.023199,-0.064957l-0.051038,-0.00464l-0.041758,0.027839l0.00464,0.074237l0.078877,0.00464Z M534.927477,633.800755l0.032479,-0.023199l-0.027839,-0.037118l-0.046398,0.013919l0.00928,0.046398h0.032479Z M535.205866,634.14874l0.041758,0.078877l0.041758,0.013919l0.051038,-0.023199l-0.00928,-0.051038l-0.074237,-0.041758l-0.051038,0.023199Z M535.071311,634.065223l0.046398,0.00464l0.018559,-0.037118l-0.037118,-0.027839l-0.037118,0.013919l0.00928,0.046398Z M535.818319,634.909667l0.027839,-0.037118l-0.018559,-0.046398h-0.041758l-0.00928,0.046398l0.041758,0.037118Z M535.79976,631.849957l0.013919,0.035072l0.051038,0.008768l0.115995,-0.017536l0.00464,-0.035072l-0.134554,-0.013152l-0.051038,0.02192Z M535.038833,633.29347l0.120635,-0.003093l0.049491,-0.052584l-0.00928,-0.080423l0.055678,-0.061864l0.114448,-0.012373l0.071144,-0.080423l0.143834,-0.092796l0.047945,-0.00928l0.024746,-0.037118l-0.001547,-0.071144l-0.043305,-0.043305l-0.034025,0.012373l-0.049491,0.095889l-0.074237,0.080423l-0.134554,0.074237l-0.095889,0.024746l-0.102076,0.080423l-0.058771,0.089703l-0.095889,0.027839l-0.003093,0.037118l0.074237,0.021652Z M535.972979,632.996523l0.024746,-0.061864l-0.003093,-0.108262l-0.021652,0.012373l-0.024746,0.092796l0.003093,0.08661l0.021652,-0.021652Z M536.025564,632.705762l0.058771,-0.037118l0.024746,-0.095889l-0.021652,-0.003093l-0.027839,0.037118l-0.043305,0.00928l-0.021652,0.030932l0.003093,0.058771h0.027839Z M535.812133,633.411012l0.021652,-0.06805l-0.006186,-0.027839l-0.034025,0.003093l-0.018559,0.021652l0.012373,0.089703l0.024746,-0.018559Z M537.484007,633.782196l0.051038,-0.032479l-0.00464,-0.037118l-0.074237,-0.00928l-0.037118,0.027839l0.013919,0.051038h0.051038Z M537.702078,633.694039l0.051038,-0.018559l-0.00464,-0.037118l-0.046398,-0.00928l-0.032479,0.046398l0.032479,0.018559Z M537.163861,636.371204l0.00464,-0.125275l-0.046398,-0.027839l-0.041758,0.023199l-0.00464,0.064957l0.055678,0.088156l0.032479,-0.023199Z M537.465448,635.819068l0.032479,-0.027839l0.018559,-0.046398l-0.051038,-0.00928l-0.037118,0.027839l0.00464,0.055678h0.032479Z M537.242738,636.013939l0.069597,-0.060317l0.013919,-0.115995l-0.027839,-0.032479l-0.074237,0.032479l-0.051038,0.088156l0.00928,0.088156h0.060317Z M537.692798,633.986347l0.013919,0.051038l0.041758,0.023199l0.032479,-0.018559l-0.023199,-0.064957l-0.037118,-0.023199l-0.027839,0.032479Z M536.778758,636.417602l0.018559,-0.032479l-0.055678,-0.106715l-0.00928,-0.162393l0.032479,-0.037118v-0.055678l-0.041758,-0.106715l-0.032479,-0.00928l-0.027839,0.060317v0.283028l0.060317,0.157753l0.055678,0.00928Z M537.419775,634.928661l0.017254,0.108455l0.044368,0.081341l-0.00986,0.066552l-0.051763,0.014789l-0.019719,0.041903l0.039438,0.051763l-0.024649,0.086271l0.012324,0.066552l-0.041903,0.071482l-0.017254,0.092506l0.032479,-0.00928l0.032479,-0.069597l0.051038,-0.032479l0.056548,0.031174l-0.022184,0.024649l0.002465,0.039438l0.032769,0.016094l0.053503,-0.094971l0.002465,-0.133104l-0.079167,-0.208066l-0.083516,-0.279983l0.002465,-0.032044l0.039438,-0.056693l-0.023344,-0.021024l-0.045673,0.00377l-0.076412,0.098596l0.024649,0.036973l0.051763,0.00493Z M536.848355,635.418498l0.071144,-0.157753l0.00928,-0.16394l-0.021652,-0.080423l0.003093,-0.071144l0.040212,-0.108262l0.037118,-0.061864l0.064957,-0.003093l0.037118,0.015466l0.034025,-0.003093l0.018559,-0.064957l0.08661,-0.061864l0.030932,0.006186l-0.003093,0.061864l0.030932,0.06805l0.064957,0.003093l0.061864,-0.055678l0.074237,-0.018559l0.030932,-0.030932l-0.00928,-0.111355l0.040212,-0.111355l0.111355,-0.139194l0.142287,-0.089703l-0.00928,-0.030932l-0.105169,-0.006186l-0.052584,-0.049491l0.049491,-0.098982l-0.030932,-0.00928l-0.040212,0.021652l-0.049491,-0.012373l-0.006186,-0.043305l-0.052584,-0.027839l-0.037118,0.021652l-0.06805,0.114448l-0.015466,0.102076h0.027839l0.046398,-0.111355l0.058771,-0.027839l0.049491,0.027839v0.08661l0.046398,0.018559v0.046398l-0.105169,0.024746l-0.06805,0.071144l-0.012373,0.095889l-0.061864,0.06805l-0.160846,0.07733l-0.080423,-0.015466l-0.003093,-0.037118l0.092796,-0.108262l0.027839,-0.08661h-0.027839l-0.139194,0.14538l-0.167033,0.30004l-0.08661,0.117542l-0.058771,0.133008l-0.018559,0.092796l0.015466,0.027839l0.052584,-0.037118l0.052584,0.018559l0.006186,0.089703l-0.123728,0.176312l-0.058771,0.173219l0.015466,0.018559l0.142287,-0.188685Z M535.521372,633.389359l0.015466,-0.034025l-0.034025,-0.071144l-0.148474,-0.058771l-0.030932,-0.058771l-0.040212,-0.006186l-0.006186,0.030932l0.027839,0.058771l0.117542,0.089703l0.058771,0.015466l0.040212,0.034025Z  M528.645188,632.288843v5.178l-0.476,7.926h0.105l0.124,-0.135l0.136,-0.006l0.093,0.074l0.247,-0.013l0.087,-0.073l0.136,0.006l0.062,0.049l0.08,0.006l0.068,-0.086l0.155,0.025l0.093,0.086l0.086,0.006l0.031,-0.049h0.087l0.185,0.104l0.204,-0.006l0.106,-0.08l-0.138,-0.304l-0.023,-0.207l0.125,-0.188l0.297,-0.12l0.121,-0.129l0.018,-0.138l0.112,-0.096l0.129,-0.037l0.052,-0.046v-0.074l0.129,-0.165l0.209,-0.111l0.088,-0.221l-0.051,-0.188l0.01,-0.12l0.055,-0.11l0.098,-0.06l0.097,0.014l0.167,-0.051l0.144,-0.018l0.06,-0.033l-0.004,-0.092l0.065,-0.06l0.102,0.01l0.241,0.23l0.074,-0.009l0.042,-0.134l0.042,-0.041l0.12,0.013l0.051,-0.032l0.038,-0.184l0.088,-0.06l0.269,-0.317l0.032,-0.203l0.051,-0.069h0.093l0.102,-0.055l-0.023,-0.11l0.023,-0.129l0.098,-0.046l0.037,-0.046v-0.11l0.153,-0.3l-0.014,-0.092l0.019,-0.082l0.139,-0.18l0.032,-0.096l-0.009,-0.212l0.06,-0.12l0.102,-0.069l0.112,-0.175l0.111,-0.064l0.023,-0.051l-0.014,-0.11l0.079,-0.124l0.005,-0.06l-0.121,-0.249l0.056,-0.138l0.227,-0.138l0.112,-0.018l0.032,-0.037l-0.07,-0.074l-0.125,-0.335l0.005,-0.184l0.093,-0.18l0.287,-0.092l0.065,-0.175l-0.139,-0.308l-0.042,-0.377l-0.06,-0.046l-0.088,0.023l-0.102,-0.042l-0.056,-0.198l-0.116,-0.231l-0.006,-0.522l0.043,-0.484l0.124,-0.43l0.124,-0.478l0.043,-0.319l0.111,-0.16l0.081,-0.006l0.086,0.055l0.087,0.006l0.124,-0.086l-0.019,-0.161l-0.111,-0.023l-0.124,0.019l-0.099,-0.062l-0.019,-0.079l-0.055,-0.043l-0.223,-0.105l-0.08,-0.11l-0.019,-0.313l0.056,-0.116l0.111,-0.074l0.043,-0.153l0.118,-0.129l0.118,-0.264l0.018,-0.252l0.105,-0.797l0.099,-0.276l0.136,-0.166l0.118,-0.067l0.049,-0.105l-0.037,-0.061l0.019,-0.135l0.124,-0.141l0.111,-0.454l0.08,-0.104l0.068,-0.313l0.025,-0.724l-0.049,-0.258l0.031,-0.558l-0.05,-0.037l-0.08,0.068l-0.124,0.03l-0.278,0.166l-0.112,-0.006l-0.068,-0.074l-0.049,-0.018l-0.106,0.03l-0.136,-0.055l-0.303,0.062l-0.179,0.104l-0.163,0.044l-0.024,-0.066l0.054,-0.09l0.106,-0.071l-0.03,-0.037l-0.283,0.122l-0.111,0.023l-0.099,-0.123l0.027,-0.124l0.463,-0.282l0.06,-0.12l0.093,-0.086l-0.013,-0.104l-0.08,-0.062l-0.006,-0.073l-0.099,-0.025l-0.26,0.062h-0.112l-0.099,-0.086l-0.092,0.006l-0.143,0.073h-0.099l-0.037,-0.067l-0.123,-0.018l-0.26,0.196l-0.037,0.294l-0.149,0.258v0.159l-0.334,0.442l-0.062,0.356l-0.074,0.147l-0.433,0.172l-0.074,0.098l0.074,0.135l-0.173,0.295l-0.062,0.392l-0.297,0.233l-0.26,0.479l-0.309,0.172l-0.025,0.184l-0.087,0.073l-0.148,-0.024l-0.346,-0.331l-0.301,-0.046l-0.278,-0.304l-0.176,-0.006l-0.381,0.181l-0.269,0.254v0.841z M537.156031,629.649197l0.025,0.046h0.034l0.027,-0.027l0.055,0.102l0.002,0.073l0.076,0.204l-0.012,0.059l-0.17,0.081l-0.121,0.138l-0.111,0.228l-0.007,0.084l-0.052,0.102l-0.054,0.058l-0.153,0.352l-0.062,0.051l-0.13,0.229l-0.069,0.055l-0.022,0.04l-0.018,0.068l-0.096,0.086l-0.116,0.028l-0.071,-0.005l-0.081,-0.019l0.005,-0.021l0.066,-0.016l0.052,-0.021l0.103,0.005l0.015,-0.028l-0.027,-0.035l0.005,-0.065l0.037,-0.07l0.01,-0.098l0.064,-0.14l0.069,-0.102l0.113,-0.273l0.131,-0.174l0.044,-0.026l-0.005,-0.088l-0.039,-0.019l-0.003,-0.047l0.072,-0.084h0.094l0.027,-0.03l-0.027,-0.037l-0.067,-0.014l0.003,-0.037l0.073,-0.04l0.094,-0.182l0.003,-0.074l0.066,-0.142l0.106,-0.112l0.042,-0.063z"/>
</svg>
