<svg xmlns="http://www.w3.org/2000/svg" viewBox="471.655 36.426 84.484 48.936">
  <path d="M474.834664,63.284337l0.123635,-0.123635l0.296723,-0.024727l0.123635,0.123635l-0.074181,0.123635l-0.346177,0.024727l-0.123635,-0.123635Z M472.675568,63.460916l0.04189,0.139634l0.209452,0.04189l0.125671,-0.083781v-0.111707l-0.167561,-0.055854l-0.209452,0.069817Z M472.019287,63.502806l0.013963,0.153598l0.153598,0.027927l0.125671,-0.04189v-0.125671l-0.139634,-0.055854l-0.153598,0.04189Z M471.656238,63.9636l0.111707,0.069817l0.237378,0.027927l0.083781,-0.125671l-0.153598,-0.125671h-0.181525l-0.097744,0.153598Z M471.851726,66.672506l0.083781,0.139634l0.363049,0.097744l0.167561,-0.055854l0.027927,-0.111707l-0.209452,-0.097744l-0.265305,-0.04189l-0.167561,0.069817Z M476.367733,55.792081l0.296723,-0.346177h0.593446l-0.098908,0.593446l-0.494538,0.148361l-0.296723,-0.395631Z M482.809095,48.139101l1.112711,0.111271l0.519265,-0.148361h1.00144l2.262513,0.519265l0.853079,0.074181l0.96435,-0.185452l0.445084,-0.222542v-0.259633l-0.593446,-0.556356l-1.409434,-0.222542l-4.599206,0.074181l-1.149802,0.296723l-0.074181,0.222542l0.667627,0.296723Z M481.39966,50.123436l0.222542,-0.055636l0.03709,-0.222542l-0.259633,-0.111271l-0.241087,0.129816l0.018545,0.185452l0.222542,0.074181Z M481.344025,50.605611l0.389449,0.03709l0.296723,-0.055636v-0.111271l-0.222542,-0.092726l-0.370904,-0.018545l-0.222542,0.129816l0.129816,0.111271Z M498.164509,39.812312l0.278178,0.018545l0.092726,-0.111271l-0.055636,-0.074181l-0.296723,-0.03709l-0.185452,0.092726l0.166907,0.111271Z M498.999042,40.146126l0.203997,0.018545l0.092726,-0.092726l-0.111271,-0.166907h-0.148361l-0.129816,0.092726l0.092726,0.148361Z M493.923843,41.895555l0.271996,0.123635l0.247269,0.024727l0.148361,-0.074181l-0.123635,-0.148361l-0.370904,-0.074181l-0.173088,0.148361Z M499.067041,71.567853l-1.137438,0.593446l-2.225422,0.247269l-1.335253,0.692354l0.049454,0.445084l1.434161,0.791261l0.791261,0.791261l0.445084,0.247269l0.840715,-0.098908l1.879246,0.148361l1.978153,0.741807l0.247269,0.346177l-0.346177,0.148361l-1.730884,-0.247269l-1.582523,-0.395631l-0.791261,0.098908l-0.098908,0.543992l3.016684,2.175969h1.483615l1.434161,-0.346177l1.186892,-0.049454l1.384707,0.445084l2.670507,0.148361l0.890169,0.148361l0.098908,0.296723l-1.186892,0.445084l-2.126515,0.098908l-1.087984,0.247269l-1.186892,-0.098908l-0.939623,0.148361l-0.296723,0.395631l0.445084,0.692354l2.32433,1.2858l0.989077,0.148361l0.989077,0.445084l0.840715,0.890169l0.890169,0.098908l0.543992,-0.247269l0.791261,0.098908l1.137438,0.593446l2.818868,0.247269l2.175969,0.395631h3.165045l0.593446,-0.445084l0.098908,-0.494538l-0.395631,-0.939623l-0.494538,-0.247269l-0.741807,0.148361l-0.989077,-0.296723l-0.098908,-0.296723l0.890169,-0.148361h2.225422l1.483615,0.593446l0.247269,0.543992l0.741807,0.543992l1.137438,0.197815l0.840715,0.741807l0.692354,-0.098908l0.049454,-0.395631l-0.395631,-0.197815l-0.6429,-1.186892l-1.236346,-1.631976l-1.087984,-0.840715l-0.741807,-1.137438l-0.197815,-0.890169l0.346177,-0.346177l0.494538,0.197815l1.2858,1.879246l2.571599,2.027607l0.791261,1.186892l1.829792,1.236346h1.03853l0.6429,-0.593446l0.494538,-1.582523l0.692354,-1.335253l-0.197815,-0.791261l-0.890169,-0.543992l-0.247269,-0.543992l0.049454,-0.791261l0.494538,-0.197815l0.840715,0.296723l1.68143,1.533069l0.939623,0.098908l1.087984,-0.346177l0.593446,-0.840715l-0.049454,-0.692354l-0.815988,-0.667627l-1.261073,-1.557796l-0.148361,-1.075621l0.185452,-1.928699l0.482175,-0.593446l1.446525,-0.445084h0.407994l0.03709,0.222542l-0.556356,0.407994l-0.445084,0.853079l-0.111271,1.631976l0.482175,1.261073l1.483615,0.853079l0.927259,-0.074181l1.446525,-1.669067l1.186892,-0.853079l1.186892,-0.519265l0.222542,-0.482175l-0.185452,-1.372344l0.111271,-0.630536h0.296723l0.407994,0.778898l0.556356,0.482175l0.778898,-0.03709l0.630536,-0.556356l0.259633,-0.667627l1.149802,-0.556356l4.079941,-0.741807l1.891609,-0.630536l0.667627,-0.074181l0.815988,-0.296723l0.296723,-0.370904l1.446525,-0.445084l0.370904,-0.296723v-0.370904l-1.223982,-1.223982l-1.149802,-0.482175l-1.446525,-1.372344l-0.333813,-0.890169l-0.778898,-0.667627l-0.815988,-0.148361l-0.482175,0.407994l-0.296723,1.372344l-0.593446,0.667627l-0.556356,0.222542l-0.704717,-0.111271l0.074181,-0.222542l0.482175,-0.111271l0.222542,-0.370904l0.074181,-0.96435l-0.927259,-0.927259l-1.854519,-0.519265l-1.631976,-0.03709l-0.630536,0.370904l0.03709,0.296723l0.519265,0.482175l-0.148361,0.222542l-0.519265,-0.074181l-0.519265,-0.370904l-0.927259,-0.03709l-1.00144,0.445084l-0.445084,0.667627l-0.556356,0.185452l-0.667627,-0.148361l-0.03709,-0.407994l0.593446,-0.630536l1.186892,-0.630536l0.778898,-1.335253l0.222542,-1.261073l0.655263,-1.35998l-0.098908,-0.346177l-0.482175,-0.03709l-1.446525,0.815988l-1.211619,0.259633l-0.049454,-0.222542l0.815988,-0.346177l0.568719,-0.469811l1.137438,-0.395631l0.074181,-0.309086l-0.6429,-0.333813l-0.420358,-0.939623l-0.667627,-0.271996h-1.2858l-0.766534,-0.098908h-1.013804l-0.667627,0.222542l-0.420358,-0.024727l-0.445084,-0.469811l-0.074181,-0.370904l0.32145,-0.222542l1.730884,-0.173088l0.766534,-0.32145l0.32145,-0.717081l-0.074181,-1.409434l-0.32145,-0.939623l-0.840715,-0.469811l-2.250149,-0.395631l-2.00288,0.024727l-1.458888,0.543992l-0.296723,0.296723l-0.049454,0.568719l0.222542,0.32145l-0.024727,0.247269l-0.346177,0.247269v0.271996l0.96435,0.741807l0.717081,0.271996l0.494538,0.593446l-0.074181,0.296723l-0.618173,0.445084l-1.063257,-0.024727l-2.101788,-0.840715l-1.384707,-0.865442l-0.445084,-0.741807l0.123635,-0.346177l0.618173,-0.346177l0.346177,-0.692354l-0.296723,-0.296723h-0.667627l-0.271996,-0.074181l0.074181,-0.271996l0.890169,-0.123635l0.469811,-0.346177l-0.074181,-0.32145l-1.137438,-0.717081l-1.03853,-0.346177l-1.2858,-0.173088l-1.656703,0.148361l-0.123635,0.173088l0.494538,0.568719l0.049454,0.222542l-0.247269,0.049454l-1.063257,-0.494538l-0.741807,-0.494538l-1.087984,-0.173088l-1.706157,-0.148361l-0.420358,-0.173088h-0.395631l-0.395631,0.098908l-0.618173,-0.024727l0.024727,-0.222542l0.865442,-0.6429l0.098908,-0.420358l-0.543992,-0.815988l-0.939623,-0.370904l-0.914896,-0.123635l-0.890169,-0.420358l-0.222542,-0.445084l-0.247269,-0.568719l-0.96435,-0.914896l-1.013804,-0.667627l-0.247269,-0.519265l-1.063257,-1.186892l-0.890169,-0.420358l-0.717081,-0.148361l-0.024727,-0.123635l0.370904,-0.074181l0.370904,0.074181l0.271996,-0.173088l-0.098908,-0.667627l-0.568719,-0.741807l-1.706157,-1.013804l-2.893049,-0.815988l-0.939623,-0.123635l-2.027607,-0.667627l-1.2858,-0.519265l-1.805065,-0.296723l-0.494538,0.049454l-0.024727,0.173088l0.469811,0.494538l0.049454,0.222542l-0.197815,0.173088l-0.717081,-0.074181l-1.483615,-0.543992l-1.434161,-0.271996l-0.568719,0.074181l-0.519265,0.420358l-0.247269,0.445084l-0.840715,0.445084l-0.098908,0.271996l0.098908,0.271996l1.186892,0.543992l1.706157,0.296723l2.175969,-0.098908l0.717081,-0.197815l1.310527,0.049454l0.766534,0.222542l0.791261,0.420358l0.074181,0.247269l-0.098908,0.197815l-0.370904,0.123635v0.197815l0.543992,0.296723l-0.024727,0.148361l-0.593446,0.197815l-1.211619,0.197815l-1.384707,0.024727l-1.186892,-0.197815l-0.692354,-0.247269h-0.420358l-0.717081,0.148361l-0.791261,-0.049454l-0.667627,-0.247269l-0.766534,-0.024727l-0.271996,0.148361l0.049454,0.197815l1.261073,0.494538l0.989077,0.123635l0.766534,0.197815l0.074181,0.222542l-0.296723,0.098908h-0.96435l-0.717081,0.173088l-0.519265,0.024727l-0.296723,0.271996l-0.148361,0.271996l-0.543992,0.049454l-0.420358,-0.148361l0.024727,-0.247269l0.346177,-0.148361l-0.024727,-0.197815l-0.766534,-0.420358l-1.434161,-0.197815l-0.741807,-0.024727l-0.865442,0.346177l-0.865442,0.123635l-0.494538,0.247269l-0.247269,0.519265l-0.074181,0.420358l-0.370904,0.395631l-0.815988,0.296723l-0.173088,0.148361l0.024727,0.148361l1.03853,0.173088h0.939623l0.247269,0.074181l-0.049454,0.148361l-0.939623,0.247269l-0.914896,0.024727l-0.519265,0.420358v0.247269l0.890169,0.32145l0.741807,0.024727l0.815988,-0.173088l1.35998,-0.148361l0.420358,0.024727l0.049454,0.123635l-0.519265,0.074181l-0.519265,0.197815l-0.024727,0.123635l0.840715,0.445084l1.2858,0.271996l1.582523,0.024727l0.791261,-0.271996h0.247269l0.024727,0.098908l-0.123635,0.098908l0.024727,0.123635l0.469811,0.074181l0.6429,-0.074181l0.395631,0.074181v0.123635l-0.420358,0.222542h-1.162165l-1.03853,-0.049454l-0.791261,0.222542l-0.148361,0.370904l0.173088,0.568719l0.469811,0.247269l1.211619,-0.024727l2.744688,0.519265l0.667627,0.346177l0.222542,0.420358l-0.098908,0.098908l-0.445084,0.024727l-0.568719,-0.346177l-0.791261,-0.173088l-2.274876,-0.074181l-1.458888,0.024727l-1.112711,-0.197815l-1.013804,-0.469811l-0.815988,-0.049454l-0.815988,0.123635l-1.903972,-0.024727l-1.211619,0.197815h-1.112711l-0.692354,-0.098908l-0.247269,0.074181l-0.049454,0.222542l0.519265,0.395631l0.049454,0.247269l-0.222542,0.247269l-0.618173,0.148361v0.197815l1.409434,0.469811l0.593446,0.469811l1.137438,0.469811l0.692354,0.148361l0.049454,0.173088l-0.247269,0.247269h-0.494538l-0.840715,-0.247269l-2.052334,-0.247269l-1.483615,0.173088l-0.890169,0.32145l-0.469811,0.024727l-1.063257,-0.173088l-0.296723,0.098908l-0.049454,0.197815l0.519265,0.296723l0.445084,0.024727l0.123635,0.098908l-0.074181,0.222542l-0.247269,0.173088l-0.024727,0.197815l0.222542,0.074181l1.137438,0.197815l2.027607,0.741807l0.96435,0.123635l1.162165,-0.32145l0.543992,-0.271996h0.197815l0.271996,0.197815l1.063257,0.024727l0.568719,-0.222542h0.32145l0.123635,0.148361l-0.197815,0.296723l-0.840715,0.197815l-1.211619,0.024727l-0.815988,0.222542l-0.024727,0.173088l1.112711,0.420358l1.335253,0.222542l1.533069,-0.024727l2.250149,-0.494538l0.6429,-0.346177l0.346177,-0.519265l0.32145,-0.098908l0.6429,0.247269l0.840715,0.197815l0.939623,0.024727l0.469811,0.123635l-0.049454,0.148361l-1.211619,0.173088l-0.791261,-0.049454l-1.261073,0.346177l-1.063257,0.593446l0.024727,0.247269l0.840715,0.519265l1.013804,0.32145l0.692354,0.469811l-0.074181,0.123635l-0.593446,-0.049454l-1.335253,-0.519265l-0.692354,-0.346177h-1.310527l-0.346177,0.197815l-0.469811,0.049454l-0.815988,-0.098908l-1.928699,-0.049454l-2.052334,-0.296723l-1.582523,-0.494538l-0.96435,-0.445084l-1.458888,-0.32145h-1.137438l-0.717081,0.123635l-0.173088,0.445084l0.445084,0.482175l0.519265,0.160725l0.741807,-0.197815l0.519265,0.098908l-0.098908,0.173088l-0.519265,0.024727l-0.6429,0.222542l-0.148361,0.259633l0.074181,0.556356l0.556356,0.445084l1.186892,0.074181l0.815988,0.222542v0.259633l-0.482175,0.185452l-0.519265,-0.03709l-0.185452,-0.185452l-0.667627,-0.03709l-0.778898,0.296723l0.024727,0.309086l0.865442,0.692354l1.112711,0.445084l0.815988,0.890169l1.96579,1.520705l1.928699,0.296723l2.781778,-0.222542l2.299603,-0.296723l1.03853,-0.333813l1.891609,-1.223982l0.519265,-0.111271l0.222542,0.222542l-0.259633,0.445084l-0.03709,0.593446l-0.333813,0.407994l-2.596326,0.815988l-1.817428,0.259633l-1.706157,0.445084l-1.706157,0.074181l-0.815988,0.296723l-0.445084,0.667627v0.853079l0.296723,0.519265l1.372344,0.259633l0.815988,-0.074181l0.519265,0.222542l0.482175,0.482175l0.074181,0.630536l0.778898,0.482175l0.704717,-0.03709l0.370904,-0.296723l0.927259,-0.148361l0.927259,-0.482175l0.927259,-0.111271l0.296723,-0.556356l0.03709,-0.407994l0.259633,-0.185452l0.630536,-0.03709l1.743248,0.556356l0.03709,0.259633l-0.667627,0.482175l-0.111271,0.667627l0.370904,0.407994l1.075621,0.148361l1.298163,-0.407994l0.741807,-0.556356l0.03709,-0.370904l0.296723,-0.148361l0.482175,0.03709l0.370904,-0.111271l0.445084,-0.927259l0.519265,-0.519265l0.445084,0.03709l0.03709,0.482175l-0.667627,0.815988l0.148361,0.259633l1.149802,-0.111271l1.00144,-0.333813l0.074181,-0.333813l-0.704717,-0.519265l-0.259633,-0.519265l0.148361,-0.222542l0.482175,0.111271l0.927259,0.927259h0.667627l0.482175,-0.370904l1.03853,-0.185452l0.519265,0.148361l0.03709,0.370904l-0.556356,0.482175v0.259633l2.039971,0.259633l1.557796,0.111271l1.409434,-0.074181l2.373784,-0.370904l1.669067,-0.259633l0.296723,0.111271l-0.03709,0.296723l-0.853079,0.333813l-2.707597,0.222542l-1.780338,0.333813l-2.596326,-0.185452l-1.223982,0.222542l-0.741807,0.482175v0.296723l1.409434,0.482175l2.522145,0.222542l2.633416,-0.148361l3.338134,-0.519265l3.894489,-0.111271l1.186892,0.111271l0.03709,0.185452l-2.670507,0.407994l-5.044291,0.296723l-2.893049,0.445084l-2.077061,0.074181l-1.96579,-0.259633l-0.96435,0.111271l-0.593446,0.259633h-0.482175l-1.557796,-0.407994l-1.594886,0.111271l-0.667627,0.346177l-0.395631,0.791261Z M479.409144,61.034187l0.197815,-0.098908l-0.049454,-0.173088l-0.222542,-0.074181l-0.173088,0.098908l0.049454,0.222542l0.197815,0.024727Z M486.505768,67.58682l0.222542,0.049454l0.123635,-0.123635l-0.049454,-0.148361l-0.197815,-0.049454l-0.148361,0.098908l0.049454,0.173088Z M487.198122,67.982451l0.32145,0.074181h0.296723l0.024727,-0.123635l-0.271996,-0.148361l-0.32145,-0.024727l-0.173088,0.098908l0.123635,0.123635Z M492.514409,69.441339l0.445084,0.024727l0.271996,-0.173088l0.024727,-0.222542l-0.445084,-0.123635l-0.445084,0.123635l-0.098908,0.148361l0.247269,0.222542Z M493.750755,69.787515l0.32145,-0.024727l0.049454,-0.098908l-0.222542,-0.148361h-0.296723l-0.148361,0.098908l0.296723,0.173088Z M501.490279,68.55117l0.148361,0.222542h0.173088v-0.148361l-0.123635,-0.173088l-0.148361,-0.024727l-0.049454,0.123635Z M491.30279,68.724258l0.271996,-0.074181l0.049454,-0.148361l-0.148361,-0.074181l-0.395631,0.074181l-0.074181,0.148361l0.296723,0.074181Z M492.33812,68.619532h0.296723l0.049454,-0.148361l-0.271996,-0.148361l-0.32145,0.074181l-0.020072,0.10938l0.267342,0.113162Z M477.974983,60.93528l0.222542,-0.024727l0.074181,-0.098908l-0.074181,-0.123635h-0.247269l-0.148361,0.123635l0.173088,0.123635Z M534.42653,81.953158l0.593446,-0.098908l0.247269,-0.346177l-0.049454,-0.494538l-0.395631,-0.049454l-0.692354,0.296723l-0.148361,0.494538l0.445084,0.197815Z M533.041823,83.684042l0.543992,0.098908l0.445084,-0.148361l0.494538,-0.840715l-0.098908,-0.445084l-0.445084,-0.049454l-0.543992,0.148361l-0.543992,0.791261l0.148361,0.445084Z "/>
</svg>
