<svg xmlns="http://www.w3.org/2000/svg" viewBox="437.869 104.085 39.018 28.206">
  <path d="M445.817629,107.3477v-0.259633l1.075621,-0.519265l1.780338,-0.222542l1.223982,-0.593446l0.667627,-0.556356l1.928699,-0.370904l2.151242,0.222542l0.074181,0.259633l-0.96435,0.556356l-3.301043,1.186892l-2.262513,0.630536l-1.186892,0.03709l-1.186892,-0.370904Z M448.154323,104.454651l0.296723,-0.03709l0.185452,-0.148361l-0.074181,-0.185452h-0.370904l-0.296723,0.222542l0.259633,0.148361Z M469.407106,107.829875l0.482175,0.111271l0.778898,-0.03709l0.074181,-0.148361l-0.482175,-0.259633l-0.778898,-0.074181l-0.333813,0.148361l0.259633,0.259633Z M463.398466,106.531712l0.185452,-0.074181l-0.333813,-0.407994l-0.815988,-0.111271l-0.03709,0.185452l0.370904,0.185452l0.630536,0.222542Z M461.061772,106.828435l0.445084,-0.111271l0.185452,-0.148361l-0.259633,-0.148361l-0.593446,0.111271l-0.185452,0.222542l0.407994,0.074181Z M455.79494,105.493181l0.519265,0.111271l0.519265,-0.074181v-0.259633l-0.296723,-0.074181l-0.667627,0.074181l-0.074181,0.222542Z M457.872,105.715723l1.075621,0.259633l0.704717,0.148361l0.593446,-0.185452l0.111271,-0.296723l-0.593446,-0.370904l-0.96435,-0.148361l-1.112711,0.148361l-0.074181,0.259633l0.259633,0.185452Z M444.816189,107.248792h0.222542l0.148361,-0.123635l-0.098908,-0.098908h-0.222542l-0.222542,0.148361l0.173088,0.074181Z M449.984114,111.205099l0.247269,-0.024727l0.098908,-0.123635l-0.148361,-0.098908l-0.32145,0.024727l-0.074181,0.148361l0.197815,0.074181Z M451.54191,110.784741h0.173088l0.197815,-0.123635l-0.098908,-0.123635h-0.222542l-0.197815,0.123635l0.148361,0.123635Z M476.590275,113.109071l0.222542,-0.024727l0.074181,-0.148361l-0.074181,-0.098908l-0.271996,-0.024727l-0.148361,0.148361l0.197815,0.148361Z M456.406931,120.459147l0.296723,-0.018545l0.129816,-0.203997l-0.055636,-0.166907l-0.203997,-0.055636l-0.241087,0.111271l-0.074181,0.222542l0.148361,0.111271Z M457.111648,119.902791l0.333813,-0.055636l0.129816,-0.074181l-0.074181,-0.092726l-0.370904,0.018545l-0.222542,0.111271l0.203997,0.092726Z M450.379745,121.182409l0.778898,-0.018545l1.520705,-0.333813l1.613431,-0.129816l0.815988,0.129816l0.426539,-0.129816l0.074181,-0.222542l-0.241087,-0.278178l-0.407994,-0.055636l-1.873064,0.185452l-2.5036,0.482175l-0.426539,0.222542l0.222542,0.148361Z M447.523786,121.590403l0.686172,-0.129816l0.185452,-0.222542l-0.111271,-0.129816l-0.982895,-0.055636l-0.50072,0.241087v0.185452l0.723262,0.111271Z M454.311325,122.220939l0.148361,-0.092726v-0.092726l-0.46363,-0.055636l-0.556356,0.148361v0.092726l0.407994,0.055636l0.46363,-0.055636Z M472.46088,126.881963l-0.098908,-0.370904l-1.186892,-1.335253l-1.458888,-0.370904l-0.346177,-0.445084l0.123635,-0.469811l0.890169,-0.074181l0.049454,-0.197815l-0.568719,-0.296723l0.123635,-0.197815l0.964342,-0.074135l0.024748,-0.272093l-0.544006,-0.222491l-0.296723,-0.32145l0.222542,-0.420358l0.395631,-0.049454l0.247269,0.519265l0.370904,0.024727l0.098908,-0.370904l-0.32145,-0.543992l0.049454,-0.222542l0.445084,-0.222542l0.445084,0.049454l1.03853,0.717081l0.346177,0.865442l0.815988,0.543992l0.247269,-0.074181l-0.074181,-0.247269l-0.445084,-0.296723l-0.222542,-1.087984l0.049454,-1.063257l0.222542,-0.519265l0.024727,-0.346177l-0.494538,-0.296723l-1.310527,-0.123635l-1.557796,-0.32145l-0.049454,-0.148361l0.420358,-0.370904l1.063257,-0.222542l0.395631,-0.717081v-0.939623l-0.271996,-0.692354l0.098908,-0.815988l0.815988,-1.063257l0.098908,-0.766534l-0.197815,-0.445084l-1.397071,-1.174528l-0.185452,-0.519265l0.185452,-0.853079l0.259633,-0.445084l-0.03709,-0.890169l-0.704717,-0.407994l-2.781778,-0.370904l-0.96435,-0.482175l0.03709,-0.185452l0.704717,0.148361l0.445084,-0.111271l-0.185452,-0.222542l-0.853079,-0.148361l-0.296723,-0.333813l-0.333813,-0.556356l-1.00144,-0.222542l-1.298163,0.111271l-0.185452,0.185452l0.074181,0.259633l1.298163,0.148361l0.370904,0.185452l-0.148361,0.259633l-0.815988,0.111271l-0.927259,-0.148361l-1.112711,0.296723l-0.259633,0.556356l0.407994,0.482175l0.593446,0.407994l-0.148361,0.296723l-0.519265,-0.111271l-0.556356,0.259633l-0.111271,0.370904l0.185452,0.259633l-0.185452,0.185452l-0.741807,-0.259633l-0.333813,-0.593446l0.407994,-0.407994l-0.185452,-0.259633l-0.778898,-0.222542l-1.372344,-1.223982l-0.556356,-0.259633l-0.778898,0.03709l-0.370904,0.185452l-0.778898,0.03709l-1.075621,-0.259633l-1.335253,-0.074181l-2.225422,0.741807l-0.667627,0.556356l-1.335253,0.370904l-0.222542,0.333813l0.370904,0.556356l1.298163,0.778898l1.446525,0.222542l1.446525,-0.222542l0.927259,0.222542l1.261073,0.853079l-0.111271,0.259633l-0.667627,0.148361l-1.261073,-0.111271l-1.112711,0.03709l-0.593446,0.333813l0.03709,0.259633l0.96435,0.370904l1.186892,0.148361l0.927259,-0.074181l0.890169,0.185452l1.112711,0.482175h0.445084l0.630536,-0.111271l0.074181,0.222542l-0.593446,0.296723h-0.778898l-1.075621,-0.333813l-0.890169,-0.074181l-0.593446,0.111271v0.333813l1.00144,1.261073l0.853079,0.667627l0.778898,0.185452l0.96435,-0.111271l0.111271,0.185452l-0.778898,0.445084l-1.186892,0.074181l-1.446525,-0.482175l-1.557796,-1.446525l-1.335253,-0.407994l-2.077061,-1.594886l-1.298163,-0.407994l-0.333813,-0.445084l0.074181,-0.667627l-0.593446,-0.667627l-1.557796,-0.815988l-2.299603,-0.259633l-1.03853,0.148361l-0.667627,0.630536l-0.519265,1.112711v0.630536l-0.185452,0.222542l0.03709,0.333813l0.815988,0.185452l1.520705,-0.111271l1.743248,-0.074181l0.333813,0.148361l-0.556356,0.259633l-1.186892,0.185452l-1.00144,0.778898l-0.074181,0.630536l0.667627,0.927259l0.778898,0.222542l1.298163,-0.148361l0.630536,-0.148361l0.296723,0.03709l-0.222542,0.333813l-1.075621,0.407994l-0.309086,0.494538l0.123635,0.543992l0.370904,0.346177l0.593446,0.024727l0.543992,0.346177v0.469811l0.296723,0.197815l0.865442,-0.024727l0.543992,-0.296723l0.519265,-0.098908l0.247269,0.074181l-0.074181,0.173088l-1.805065,0.519265h-0.692354l-0.445084,-0.197815l-0.074181,-0.296723l-0.494538,-0.420358l-1.928699,-0.939623l-0.618173,-0.074181l-1.409434,0.173088l-1.335253,0.469811l-0.445084,0.568719l0.123635,0.346177l0.568719,0.074181l0.469811,-0.148361l0.32145,0.074181l-0.024727,0.173088l-0.593446,0.222542l0.024727,0.173088h0.370904l0.346177,0.148361l-0.098908,0.197815h-0.494538l-0.6429,-0.271996h-0.989077l-0.840715,0.296723l-0.469811,0.6429l-0.370904,0.222542l-0.6429,0.049454l-0.222542,0.197815l0.024727,0.271996l0.568719,0.395631l0.197815,0.395631l0.593446,0.469811h0.568719l1.35998,-0.543992l1.310527,-0.098908l0.445084,0.098908h0.741807l2.175969,-0.469811l0.914896,-0.247269l0.914896,0.024727l0.346177,0.148361l1.211619,-0.074181l2.349057,-0.296723l2.96723,-0.618173l3.461768,-0.296723l0.618173,0.074181l-0.024727,0.247269l-0.519265,0.222542l-0.203997,0.203997l0.092726,0.148361l0.482175,0.055636l0.111271,0.203997l-1.019985,0.296723l-0.927259,0.203997l-0.389449,0.296723l-0.982895,0.185452l0.018545,0.166907l2.800323,-0.03709l0.278178,0.166907l-0.111271,0.111271l-0.46363,0.111271l-0.445084,-0.03709l-1.854519,-0.055636l-0.407994,0.092726l-0.055636,0.092726l0.148361,0.055636h1.094166l0.241087,0.092726l-0.055636,0.092726l-0.723262,0.129816l-1.112711,-0.03709l-2.355239,0.111271l-0.129816,0.111271l0.166907,0.166907l0.945805,0.222542l0.50072,0.315268l-0.03709,0.222542l-0.797443,0.259633l-0.589082,0.05389l-0.139634,-0.097744l0.125671,-0.125671l-0.083781,-0.083781l-0.432866,0.097744l-0.097744,0.153598l0.237378,0.223415l0.502684,0.209452l0.293232,0.265305l0.555047,0.101235l1.112711,-0.055636l0.593446,-0.203997l0.426539,0.055636l-0.03709,0.148361l-0.927259,0.333813v0.129816l0.333813,0.166907l1.427979,0.018545l0.686172,0.166907l-0.074181,0.129816l-1.409434,0.092726l-1.223982,-0.092726l-0.649082,0.074181l-0.352359,0.278178l0.018545,0.203997l0.766534,0.407994l0.271996,0.692354l-0.024727,0.815988l0.271996,0.494538l1.582523,0.469811l3.486495,0.123635l0.717081,-0.247269l0.049454,-0.395631l-0.098908,-0.247269l0.222542,-0.395631l0.865442,-0.6429l0.173088,0.049454l0.024727,0.296723l-0.593446,0.593446l-0.098908,0.395631l0.247269,0.296723l1.631976,0.049454l0.815988,-0.222542l0.098908,-0.370904l0.420358,-0.247269l0.197815,0.049454l-0.049454,0.296723l0.222542,0.32145l0.791261,0.148361l1.261073,-0.049454l1.755611,-0.32145l1.434161,-0.049454l0.469811,-0.148361l0.148361,-0.6429l-0.395631,-0.494538l-0.791261,-0.395631v-0.395631l0.296723,-0.271996l0.197815,0.098908l0.074181,0.370904l0.865442,0.519265l0.791261,0.222542l0.914896,-0.123635l0.247269,-0.247269Z M474.71103,121.763491l0.346177,-0.049454l0.074181,-0.173088l-0.148361,-0.197815l-0.32145,0.049454l-0.197815,0.222542l0.247269,0.148361Z M472.337246,122.208576l-0.049454,0.271996l0.173088,0.346177h0.173088l0.024727,-0.271996l-0.098908,-0.296723l-0.222542,-0.049454Z M472.3867,124.186729h0.32145l0.074181,-0.222542l-0.197815,-0.173088h-0.32145l-0.098908,0.197815l0.222542,0.197815Z M475.10666,124.236183l0.024727,0.445084l0.32145,0.370904h0.296723l0.074181,-0.568719l-0.197815,-0.445084l-0.618173,-0.173088l-0.123635,0.148361l0.222542,0.222542Z M471.929252,128.711755l0.445084,0.018545l0.296723,-0.111271l0.018545,-0.185452l-0.185452,-0.129816h-0.445084l-0.222542,0.166907l0.092726,0.241087Z M467.608223,132.216795l0.426539,0.074181l0.704717,-0.074181l0.185452,-0.203997l-0.092726,-0.148361l-1.03853,-0.018545l-0.296723,0.203997l0.111271,0.166907Z "/>
</svg>
