<svg xmlns="http://www.w3.org/2000/svg" viewBox="363.959 76.291 31.526 7.493">
  <path d="M369.102374,82.076792l0.123635,-0.445084l0.494538,-0.420358l0.96435,-0.346177l1.805065,-0.469811l2.299603,-0.791261l1.68143,-0.271996l1.978153,0.049454l0.766534,-0.123635l0.791261,-0.370904l0.618173,-0.074181l0.593446,-0.395631l0.543992,-0.618173l1.335253,-0.6429l1.236346,-0.148361l0.791261,-0.197815l1.013804,-0.519265l1.434161,0.024727l1.582523,0.420358l2.027607,1.087984l1.780338,0.840715l0.667627,0.049454l0.865442,0.346177l0.96435,1.261073l0.024727,0.519265l-0.395631,0.494538l-0.32145,1.03853l-0.370904,0.395631l-1.582523,0.271996l-1.261073,-0.049454l-0.445084,-0.247269l-0.543992,-0.049454l-0.840715,0.173088l-0.890169,0.395631l-0.840715,0.049454l-1.35998,-0.123635l-1.211619,-0.271996l-0.890169,-0.6429l-1.211619,-0.469811h-1.013804l-0.222542,0.197815l0.024727,0.370904l-0.148361,0.222542l-0.445084,0.098908l-0.370904,0.494538l-0.543992,0.247269l-1.631976,-0.049454l-0.543992,-0.222542l-0.271996,-0.519265l-1.186892,-0.568719l-1.112711,-0.074181l-2.027607,0.222542l-1.35998,0.395631l-1.03853,0.593446l-1.458888,0.148361l-0.568719,-0.024727l-0.370904,-0.173088l-0.370904,-0.519265l0.024727,-0.346177l0.420358,-0.222542Z M376.124818,78.788113l0.395631,-0.049454l0.173088,-0.123635l-0.098908,-0.123635h-0.420358l-0.222542,0.148361l0.173088,0.148361Z M366.827498,83.4615l0.129816,0.154543l0.53781,0.166907l0.346177,-0.074181l0.024727,-0.148361l-0.395631,-0.197815l-0.370904,-0.024727l-0.271996,0.123635Z M365.269702,82.769146l0.494538,0.098908l0.395631,-0.024727l0.123635,-0.173088l-0.469811,-0.148361h-0.636718l-0.129816,0.123635l0.222542,0.123635Z M364.107537,83.21423l0.420358,0.271996l0.32145,-0.024727v-0.148361l-0.346177,-0.32145l-0.247269,-0.074181l-0.296723,0.049454l0.148361,0.247269Z "/>
</svg>
