<svg xmlns="http://www.w3.org/2000/svg" viewBox="522.570 143.488 190.047 141.666">
  <path d="M603.651967,258.496024l1.035255,-0.246489l0.320436,-0.566926l-0.369734,-0.295787l-1.774724,0.098596l-0.345085,0.369734l0.073947,0.419032l1.059904,0.22184Z M605.155552,258.397428l0.320436,-0.147894l0.147894,-0.172543l-0.098596,-0.345085l-0.246489,0.024649l-0.295787,0.46833l0.172543,0.172543Z M602.099084,258.200236l0.197192,-0.049298l-0.049298,-0.492979l-0.271138,-0.147894l-0.197192,0.098596l0.123245,0.419032l0.197192,0.172543Z M538.550934,178.261295l-0.296723,-0.346177l0.395631,-0.197815l0.395631,0.049454l0.395631,0.346177l-0.346177,0.197815l-0.543992,-0.049454Z M540.60136,188.539579l0.469811,-0.024727l0.148361,-0.148361l-0.197815,-0.148361l-0.395631,-0.024727l-0.247269,0.148361l0.222542,0.197815Z M541.021718,189.726471l0.989077,0.568719l1.929011,0.386868l1.380341,-0.032865l1.042585,-0.37873l0.074181,-0.296723l-0.717081,-1.013804l-0.717081,-0.074181l-0.618173,0.148361l-0.791261,0.024727l-0.692354,-0.148361l-0.123635,-0.247269l-0.445084,-0.074181l-0.543992,0.346177l-1.087984,0.024727l-0.148361,0.222542l0.469811,0.543992Z M548.792868,163.675613l0.927259,0.407994l0.445084,-0.148361v-0.445084l-0.296723,-0.370904l-1.112711,-0.03709l-0.296723,0.222542l0.333813,0.370904Z M551.092471,164.565782l0.445084,-0.148361l0.185452,-0.445084l-0.148361,-0.222542l-0.482175,0.111271l-0.333813,0.445084l0.333813,0.259633Z M555.877129,162.748354h0.333813l0.259633,-0.185452l-0.074181,-0.259633l-0.370904,-0.03709l-0.333813,0.259633l0.185452,0.222542Z M586.2356,159.725488l0.166907,-0.055636v-0.148361l-0.111271,-0.111271h-0.148361l-0.092726,0.148361l0.185452,0.166907Z M595.6751,163.131621l0.247269,0.32145h0.222542l0.049454,-0.148361l-0.173088,-0.395631l-0.445084,-0.247269l-0.074181,0.123635l0.173088,0.346177Z M595.205288,162.216725l0.692354,0.148361l1.013804,-0.173088l0.024727,-0.296723l-0.840715,-0.494538l-0.618173,-0.098908l-0.420358,0.123635l-0.074181,0.346177l0.222542,0.445084Z M591.150074,161.77164l0.420358,0.420358l0.420358,0.123635l0.469811,-0.173088v-0.543992l-0.519265,-0.395631h-0.445084l-0.296723,0.197815l-0.049454,0.370904Z M584.869438,164.714143l0.049454,0.346177l0.247269,0.173088l0.173088,-0.049454l-0.074181,-0.296723l-0.173088,-0.222542l-0.222542,0.049454Z M588.875198,161.104014l-0.074181,0.271996l0.098908,0.173088l0.445084,-0.173088l0.148361,-0.370904l-0.123635,-0.271996l-0.6429,-0.494538l-0.6429,-0.148361l-0.197815,0.074181l0.173088,0.370904l0.346177,0.197815l0.296723,0.049454l0.173088,0.32145Z M640.603905,180.514642l0.222542,0.395631l0.543992,0.296723h0.445084l0.445084,-0.395631l1.854519,-0.618173l0.914896,-0.098908l0.667627,-0.543992l0.049454,-0.494538l-0.222542,-0.148361h-0.939623l-1.508342,-0.519265l-0.890169,-0.024727l-0.568719,0.346177l-0.296723,0.791261l-0.593446,0.370904l-0.494538,0.049454l-0.049454,0.247269l0.420358,0.346177Z M646.686726,178.264493l0.667627,-0.197815l0.445084,-0.469811l-0.049454,-0.247269h-0.247269l-0.840715,0.445084l-0.247269,0.395631l0.271996,0.074181Z M625.199037,170.549695l0.593446,-0.049454l0.098908,-0.173088l-0.173088,-0.197815l-0.6429,0.049454l-0.098908,0.247269l0.222542,0.123635Z M622.503803,164.788324l0.692354,-0.049454l0.568719,-0.346177l0.123635,-0.296723l-0.123635,-0.123635h-0.519265l-0.741807,0.32145l-0.197815,0.346177l0.197815,0.148361Z M624.036871,165.035593l0.271996,-0.024727l0.197815,-0.148361l-0.074181,-0.123635l-0.346177,0.024727l-0.222542,0.123635l0.173088,0.148361Z M632.691292,172.330033l0.32145,-0.271996l0.420358,-0.791261l0.667627,-0.346177l0.024727,-0.222542l-0.296723,-0.123635l-0.568719,0.123635l-0.890169,1.063257v0.469811l0.32145,0.098908Z M636.647598,172.527849l0.445084,-0.395631l0.123635,-0.618173l-0.271996,-0.370904l-0.914896,-0.074181l-0.791261,0.395631l-0.197815,0.519265l0.222542,0.32145l0.766534,0.197815l0.618173,0.024727Z M632.963288,173.566379l0.420358,0.271996l0.370904,-0.074181l0.741807,-0.717081l0.098908,-0.445084l-0.247269,-0.32145h-0.494538l-1.013804,0.445084l-0.123635,0.420358l0.247269,0.420358Z M633.878184,175.049994l0.914896,0.32145l0.32145,-0.024727l0.049454,-0.247269l-0.32145,-0.370904l0.074181,-0.6429l0.519265,-0.296723h0.593446l0.098908,-0.173088l-0.6429,-0.717081l-0.271996,-0.024727l-0.494538,0.420358l-0.6429,0.692354l-0.568719,0.346177l-0.074181,0.296723l0.445084,0.420358Z M664.700284,187.524723l0.185452,-0.111271l-0.074181,-0.185452h-0.222542l-0.074181,0.210179l0.185452,0.086544Z M667.01225,196.315141l1.063257,0.197815l0.766534,-0.148361l0.939623,-0.766534l0.197815,-0.494538l-0.469811,-0.469811l-0.618173,-0.148361l-1.434161,0.370904l-1.063257,0.815988l-0.049454,0.271996l0.667627,0.370904Z M670.350384,196.710772l1.162165,-0.049454l1.013804,-0.271996l0.049454,-0.247269l-0.420358,-0.32145l-0.939623,-0.074181l-1.261073,0.667627l-0.024727,0.222542l0.420358,0.074181Z M664.440651,188.600344v-0.173088l-0.173088,-0.123635l-0.247269,-0.024727l-0.098908,0.173088l0.32145,0.271996l0.197815,-0.123635Z M664.861009,189.317424l0.370904,-0.074181l0.173088,-0.370904l-0.197815,-0.271996l-0.32145,-0.024727l-0.173088,0.197815l-0.074181,0.370904l0.222542,0.173088Z M663.995567,189.688328l0.173088,-0.074181l0.024727,-0.173088l-0.074181,-0.173088l-0.173088,0.074181l-0.074181,0.197815l0.123635,0.148361Z M597.434091,196.69945l0.788766,-0.171367l0.460114,0.171367l0.394383,-0.034273l0.295787,-0.342734l2.399163,-0.754016l0.69017,-0.788289l-0.131461,-0.651195l-0.953092,-0.479828l-0.657305,0.137094l-0.032865,0.616922l-0.230057,0.171367l-0.295787,-0.342734l-0.427248,0.10282v0.377008l-0.295787,0.137094l-0.427248,-0.068547l-0.492979,0.10282l-1.873319,1.576578l-0.098596,0.445555l0.328653,0.171367l0.558709,-0.377008Z M606.636361,198.566239l-0.065731,0.558709l-0.197192,0.328653l0.295787,1.051688l0.887362,0.657305h1.018823l0.887362,-0.525844l0.098596,-0.525844l1.446071,-1.183149l0.098596,-0.723036l-0.460114,-0.328653l-1.511802,0.098596l-0.985958,-0.427248l-1.051688,0.164326l-0.558709,0.394383l0.098596,0.460114Z M584.517141,194.407407l0.890842,-0.074237l0.779486,0.167033l0.779486,0.538217l0.167033,0.575335h0.24127l0.092796,-0.389743l0.296947,-0.482539l0.148474,0.129914l-0.167033,0.519658l0.139194,0.482539l0.677411,0.352625l0.723809,0.092796l0.315506,-0.129914l0.148474,-0.315506l-0.760927,-0.779486l-0.074237,-0.426862l0.204151,-0.037118l0.593894,0.296947l1.521854,0.055678l0.946519,-0.111355l1.354822,-0.890842l0.018559,-0.46398l-0.612454,-0.668131l-1.020756,-0.204151l-0.742368,0.074237l-1.002197,0.723809l-0.853723,0.074237l-0.798046,-0.22271l-0.46398,-0.408302l-0.798046,-0.129914l-1.15067,0.148474l-0.202701,0.538217l-0.246489,0.172543l-0.831394,-0.191102l-0.408302,0.092796l-0.411782,0.394093l0.040598,0.403953l0.46398,0.092796Z M596.094832,203.871166l1.035255,-0.719742l0.345085,-0.719742l0.838064,-0.719742l0.517628,-1.208139l0.542277,-0.488396l0.566926,-0.025705l0.788766,-0.771152l-0.024649,-0.719742l-0.616223,-0.411281l-1.059904,-0.10282l-1.084553,0.231346l-0.419032,0.539807l0.345085,0.488396l-0.073947,0.231346h-0.542277l-0.542277,0.591217l-0.295787,0.616922l-0.542277,0.539807l-1.1585,0.179936l-0.764117,0.436986l-0.788766,1.61942v0.694037l0.616223,0.385576l2.317,-0.668332Z M594.739141,211.736988l0.838064,0.049298l0.369734,-0.369734l0.788766,-0.369734l0.123245,-0.566926l-0.93666,-0.616223l-1.108912,0.00319l-0.394673,0.415842l-0.049298,0.961309l0.369734,0.492979Z M595.92229,208.43403l0.566926,0.46833l0.566926,0.024649l0.813415,-0.394383l0.123245,-0.369734l-0.172543,-0.295787l0.369734,-0.246489l0.69017,0.049298l0.271138,-0.345085l-0.345085,-0.46833l-1.331043,-0.394383h-0.838064l-0.098596,0.197192l0.887362,0.566926l-0.123245,0.320436l-1.109202,0.320436l-0.271138,0.566926Z M621.310696,206.190977l-0.443681,-0.073947l-0.369734,-0.271138l-0.46833,0.098596l-0.542277,0.862713l-0.073947,1.183149l0.764117,0.838064l1.528234,0.542277l0.492979,0.616223l0.739468,0.147894l0.492979,-0.271138l0.320436,-0.46833l-0.098596,-0.369734l-0.46833,-0.024649l0.049298,-0.22184l0.345085,-0.197192l-0.024649,-0.369734l-0.887362,-0.517628l-0.394383,-0.542277l-0.049298,-0.69017l-0.419032,-0.345085l-0.492979,0.073947Z M622.83893,207.201583l0.492979,0.345085l1.1585,0.123245l0.616223,-0.098596l-0.049298,-0.197192l-0.665521,-0.345085l-0.098596,-0.46833l-0.46833,-0.197192l-0.591575,0.073947l-0.369734,0.320436l-0.024649,0.443681Z M626.78276,210.553839l0.542277,0.369734l0.320436,-0.073947l0.345085,-0.542277v-0.394383l-0.985958,-1.059904l-0.665521,-0.197192l-0.345085,0.197192l-0.073947,0.320436l0.862713,1.380341Z M623.676994,214.47302l1.508032,1.627023l1.306394,0.419032h0.764117l0.566926,-0.22184l1.454287,-0.073947l0.887362,0.172543l2.341649,0.098596l0.443681,-0.46833l0.049298,-0.616223l-0.497425,-1.380534l-0.566926,-0.419032l-1.232447,-0.024649l-0.517628,0.271138l-0.419032,-0.024649l-0.46833,-0.345085l-1.306394,-0.419032l-0.93666,-0.049298l-0.098596,-0.271138l0.295787,-0.320436l-0.049298,-0.295787l-0.714819,-0.295787l-0.320436,0.197192l-0.443681,0.912011l-0.345085,0.147894l-0.862713,-0.147894l-0.739468,0.049298l-0.320436,0.419032l0.22184,1.059904Z M627.694771,211.712339l0.46833,0.246489l0.197192,-0.147894l-0.22184,-0.616223l-0.295787,-0.073947l-0.295787,0.172543l-0.024649,0.246489l0.172543,0.172543Z M621.359994,205.969137l0.369734,-0.098596l0.098596,-0.197192l-0.320436,-0.246489l-0.46833,-0.049298l-0.123245,0.172543l0.123245,0.271138l0.320436,0.147894Z M597.884925,211.305197l0.139194,0.111355l0.361904,0.018559l0.306227,-0.176312l0.018559,-0.324786l-0.176312,-0.139194l-0.334066,0.00928l-0.315506,0.334066v0.167033Z M588.56777,190.802163l0.58587,0.172677l0.450195,-0.135675l0.018501,-0.20968l-0.641373,-0.098673l-0.567368,0.049336l0.154176,0.222014Z M589.677839,191.301694l0.222014,0.037002l0.092506,-0.148009l-0.240515,-0.129508l-0.203513,0.074005l0.129508,0.16651Z M593.730025,193.235608l0.125372,0.083582h0.195024l-0.01393,-0.167163l-0.195894,-0.092723l-0.152362,-0.004789l0.041791,0.181094Z M588.102194,197.776877l0.348257,0.181094l0.222884,-0.041791l0.097512,-0.195024l-0.181094,-0.208954l-0.50149,-0.139303l-0.181094,0.167163l0.195024,0.236815Z M571.58372,192.245253l0.48103,0.351522l0.832551,0.277517l0.259016,-0.129508l-0.16651,-0.351522l-0.721545,-0.388524l-0.499531,-0.092506l-0.222014,0.092506l0.037002,0.240515Z M629.772974,208.093718l0.250745,-0.125372l0.027861,-0.208954l-0.097512,-0.111442l-0.250745,0.083582l-0.125372,0.236815l0.195024,0.125372Z M625.426729,208.177299l0.292536,0.125372l0.320396,-0.01393l0.153233,-0.111442l-0.125372,-0.222884l-0.48756,-0.055721l-0.181094,0.083582l0.027861,0.195024Z M574.08834,192.650536l0.362187,0.139303l0.585071,0.069651l0.139303,-0.125372l-0.069651,-0.236815l-0.48756,-0.111442l-0.50149,0.041791l-0.027861,0.222884Z M665.236264,205.162101l0.68669,-0.037118l2.932354,0.872282l1.113552,0.074237l0.315506,-0.167033l-0.167033,-0.167033l-0.983638,-0.111355l-2.913794,-0.760927l-0.965078,-0.092796l-0.204151,0.22271l0.185592,0.167033Z M668.447005,207.110817l0.92796,0.204151l0.519658,-0.185592l0.018559,-0.22271l-0.259829,-0.111355l-0.371184,0.148474l-0.835164,-0.185592l-0.259829,0.129914l0.259829,0.22271Z M675.425265,210.024612l0.538217,0.111355l0.46398,-0.167033l-0.018559,-0.167033l-0.668131,-0.334066l-0.278388,0.074237l-0.167033,0.315506l0.129914,0.167033Z M675.443824,210.655625l0.723809,0.22271l0.129914,-0.092796l-0.148474,-0.24127l-0.779486,-0.24127l-0.129914,0.092796l0.204151,0.259829Z M676.575935,209.579191l0.575335,0.018559l0.092796,-0.129914l-0.167033,-0.167033l-0.593894,-0.055678l-0.129914,0.185592l0.22271,0.148474Z M676.334665,212.084683l0.593894,-0.185592l0.018559,-0.24127l-0.204151,-0.111355l-0.371184,0.111355l-0.22271,0.259829l0.185592,0.167033Z M678.988631,212.047565l0.556776,-0.074237l0.24127,-0.723809l0.334066,-0.129914l0.018559,-0.22271l-0.389743,-0.092796l-0.389743,0.371184l-0.890842,0.018559l-0.575335,0.296947l-0.631013,0.074237l0.018559,0.204151l1.707446,0.278388Z M683.572754,212.715696h0.46398l0.723809,-0.334066l-0.037118,-0.24127l-1.002197,-0.278388l-0.334066,0.111355v0.556776l0.185592,0.185592Z M684.333681,213.161117l0.519658,0.22271l0.612454,-0.055678l0.092796,-0.22271l-0.204151,-0.22271l-0.835164,-0.018559l-0.204151,0.111355l0.018559,0.185592Z M685.74418,214.218991l0.24127,0.018559l0.352625,-0.148474l0.018559,-0.296947l-0.148474,-0.129914l-0.278388,0.055678l-0.167033,0.185592l-0.018559,0.315506Z M681.772511,213.291031l0.167033,0.111355l0.426862,-0.575335l-0.092796,-0.501098l-0.278388,-0.092796l-0.204151,0.148474l0.037118,0.519658l-0.055678,0.389743Z M682.997418,213.810689l0.334066,-0.018559l0.074237,-0.129914l-0.111355,-0.167033l-0.22271,-0.018559l-0.167033,0.167033l0.092796,0.167033Z M678.023553,210.265881l0.389743,0.055678l0.092796,-0.129914l-0.092796,-0.167033l-0.426862,-0.018559l-0.129914,0.111355l0.167033,0.148474Z M668.669716,203.733043l0.408302,0.111355l0.185592,-0.111355l-0.129914,-0.315506l-0.445421,-0.111355l-0.204151,0.148474l0.185592,0.278388Z M669.9503,204.011431l0.779486,-0.204151l0.129914,-0.111355l-0.22271,-0.129914l-0.872282,0.111355l-0.092796,0.22271l0.278388,0.111355Z M670.581313,204.995068l0.68669,-0.074237l0.129914,-0.148474l-0.22271,-0.148474l-0.723809,0.018559l-0.185592,0.148474l0.315506,0.204151Z M672.567148,207.908863l0.278388,0.074237l0.315506,-0.037118l0.018559,-0.185592l-0.482539,-0.129914l-0.167033,0.148474l0.037118,0.129914Z M674.738574,207.630475l0.352625,0.111355l0.371184,-0.055678l0.018559,-0.296947l-0.296947,-0.092796l-0.482539,0.185592l0.037118,0.148474Z M676.835764,207.797508l0.185592,-0.018559l0.167033,-0.111355l-0.055678,-0.167033l-0.204151,-0.018559l-0.204151,0.185592l0.111355,0.129914Z M679.898032,212.734255l0.185592,-0.074237l0.055678,-0.315506l-0.111355,-0.129914l-0.24127,0.129914l-0.074237,0.278388l0.185592,0.111355Z M676.483139,210.544269l0.334066,0.037118l0.037118,-0.148474l-0.296947,-0.148474l-0.24127,0.055678l0.167033,0.204151Z M668.910985,204.382615h0.204151l0.129914,-0.185592l-0.055678,-0.167033h-0.148474l-0.204151,0.204151l0.074237,0.148474Z M672.251641,206.943785l0.352625,0.074237l0.167033,-0.092796l-0.055678,-0.129914l-0.278388,-0.037118l-0.22271,0.055678l0.037118,0.129914Z M670.377162,204.419733h0.798046l0.148474,-0.092796l-0.148474,-0.129914l-0.631013,-0.037118l-0.278388,0.111355l0.111355,0.148474Z M669.579116,204.456852l0.167033,0.111355l0.148474,-0.167033l-0.055678,-0.22271l-0.204151,-0.037118l-0.148474,0.129914l0.092796,0.185592Z M674.738574,208.44708l0.055678,0.111355l0.352625,-0.074237l0.111355,-0.129914l-0.092796,-0.092796l-0.315506,0.074237l-0.111355,0.111355Z M688.361027,216.09347l0.185592,-0.074237l-0.037118,-0.129914l-0.167033,-0.037118l-0.129914,0.111355l0.148474,0.129914Z M688.732211,215.759405l0.371184,-0.018559l0.148474,-0.111355l-0.111355,-0.148474l-0.259829,0.018559l-0.185592,0.129914l0.037118,0.129914Z M689.418902,215.369662l0.482539,-0.018559l0.24127,-0.185592v-0.167033l-0.22271,-0.018559l-0.538217,0.167033l-0.092796,0.129914l0.129914,0.092796Z M694.572173,219.65065l0.692877,0.049491l1.051688,-0.173219l0.111355,-0.148474l-0.160846,-0.321693l-0.729995,-0.445421l-0.111355,-0.358811l-0.210338,-0.185592l-0.259829,0.074237l-0.08661,0.445421l-0.358811,0.408302l-0.074237,0.507285l0.136101,0.148474Z M695.302168,220.405391h0.148474l0.049491,-0.123728l-0.061864,-0.259829l-0.247456,-0.08661l-0.08661,0.111355l0.197965,0.358811Z M696.131146,220.368273h0.173219l0.037118,-0.08661l-0.123728,-0.111355l-0.160846,0.012373l-0.061864,0.098982l0.136101,0.08661Z M711.021811,230.792357l0.148474,0.083516l0.204151,-0.027839l0.00928,-0.120635l-0.157753,-0.139194h-0.194872l-0.055678,0.092796l0.046398,0.111355Z M694.819629,222.032414l0.352625,0.018559l0.167033,-0.111355l-0.111355,-0.129914l-0.389743,-0.018559l-0.148474,0.129914l0.129914,0.111355Z M695.26505,221.457079l0.204151,0.259829l0.24127,-0.037118l0.037118,-0.259829l-0.074237,-0.185592l-0.278388,-0.111355l-0.148474,0.111355l0.018559,0.22271Z M696.322924,222.347921l1.744565,0.037118l0.519658,-0.167033l0.055678,-0.204151l-0.575335,-0.426862l-0.853723,-0.167033l-0.556776,0.111355l-0.575335,0.501098l0.018559,0.185592l0.22271,0.129914Z M707.971916,225.577222l0.148474,0.024746l0.334066,-0.210338l0.024746,-0.111355l-0.22271,-0.049491l-0.272202,0.123728l-0.012373,0.22271Z M700.028578,224.302823h0.53203l0.358811,-0.074237l0.024746,-0.08661l-0.185592,-0.111355l-0.791859,0.012373l-0.098982,0.08661l0.160846,0.173219Z M700.758573,224.847227l0.173219,0.259829l0.61864,0.148474l0.272202,-0.111355v-0.185592l-0.160846,-0.272202l-0.606267,-0.235083l-0.39593,-0.012373l-0.197965,0.111355l-0.024746,0.185592l0.321693,0.111355Z M700.43688,225.206038l0.061864,0.358811l0.247456,0.136101h0.420675l0.111355,-0.136101l-0.061864,-0.136101l-0.383557,-0.173219l-0.173219,-0.247456l-0.136101,0.012373l-0.08661,0.185592Z M703.492962,225.601967l0.296947,-0.012373l0.197965,-0.148474l0.012373,-0.123728h-0.123728l-0.123728,0.111355l-0.247456,0.024746l-0.111355,0.08661l0.098982,0.061864Z M704.656005,224.834854l0.210338,-0.049491l0.111355,-0.197965v-0.136101l-0.123728,-0.037118l-0.259829,0.210338l-0.061864,0.173219l0.123728,0.037118Z M705.398373,225.020446l0.111355,0.074237l0.185592,-0.098982l0.111355,-0.358811l-0.098982,-0.160846l-0.160846,-0.012373l-0.08661,0.210338l-0.061864,0.346438Z M706.190233,224.550279l0.903214,-0.148474l0.334066,-0.160846l-0.111355,-0.22271l-0.296947,-0.098982l-0.767114,0.173219l-0.296947,0.247456l0.012373,0.197965l0.22271,0.012373Z M704.618887,225.441121l0.123728,0.061864l0.074237,-0.111355l0.012373,-0.123728l-0.123728,-0.037118l-0.098982,0.074237l0.012373,0.136101Z M705.014817,225.886542h0.420675l0.148474,-0.160846l-0.024746,-0.296947l-0.272202,-0.136101l-0.148474,0.037118l-0.012373,0.185592l-0.185592,0.08661l-0.024746,0.148474l0.098982,0.136101Z M702.404156,224.847227l0.012373,0.197965l0.284574,0.148474l0.210338,-0.012373l0.074237,-0.197965l0.098982,-0.08661l0.321693,-0.037118l0.247456,-0.148474l0.061864,-0.210338l0.494912,-0.39593l0.742368,-0.235083l0.420675,-0.321693l-0.012373,-0.185592l-0.334066,-0.123728l-0.631013,-0.012373l-0.445421,0.123728l-0.111355,0.148474l0.061864,0.272202l-0.148474,0.098982l-0.210338,-0.08661l-0.136101,0.049491l-0.111355,0.185592l-0.482539,0.235083l-0.061864,0.235083l-0.185592,0.173219l-0.30932,-0.012373l-0.049491,0.111355l0.197965,0.08661Z M703.938383,223.115035l0.358811,-0.049491l0.457794,-0.210338l0.061864,-0.111355l-0.111355,-0.024746l-0.779486,0.210338l-0.08661,0.123728l0.098982,0.061864Z M702.280428,224.46367l0.136101,-0.024746l0.024746,-0.173219l-0.123728,-0.111355l-0.08661,0.012373l-0.012373,0.123728l0.061864,0.173219Z M698.593333,221.605553l0.259829,0.037118l0.061864,-0.111355l-0.08661,-0.08661h-0.210338l-0.111355,0.061864l0.08661,0.098982Z M673.625022,230.421173l0.204151,0.167033l0.482539,-0.018559l0.037118,-0.129914l-0.129914,-0.148474l-0.556776,-0.018559l-0.037118,0.148474Z M674.645778,230.922271l0.445421,0.074237l0.538217,-0.055678l0.055678,-0.129914l-0.482539,-0.204151h-0.445421l-0.204151,0.167033l0.092796,0.148474Z M675.320096,230.452105l0.457794,0.074237l0.185592,-0.049491v-0.129914l-0.259829,-0.148474l-0.352625,-0.018559l-0.117542,0.136101l0.08661,0.136101Z M675.790262,231.1821l0.148474,0.037118l0.08661,-0.061864l-0.08661,-0.123728l-0.173219,-0.049491l-0.061864,0.098982l0.08661,0.098982Z M655.956663,231.905909l0.204151,-0.22271l0.408302,-0.037118l0.742368,0.24127l0.018559,0.204151l-0.68669,0.167033l-0.519658,-0.074237l-0.167033,-0.278388Z M657.330044,232.759632l0.296947,-0.24127l0.278388,-0.037118l0.167033,0.092796l-0.129914,0.278388l-0.46398,0.061864l-0.148474,-0.15466Z M651.242626,229.053979l0.024746,0.259829l-0.123728,0.061864l-0.22271,-0.123728l0.024746,-0.160846l0.123728,-0.098982l0.173219,0.061864Z M652.244823,229.131309l-0.519658,0.139194l-0.22271,-0.179406l0.012373,-0.197965l0.414489,-0.253642l0.23199,-0.204151l0.510378,0.037118l0.408302,0.426862l0.129914,0.426862l-0.167033,0.092796l-0.213431,-0.00928l-0.157753,-0.204151l-0.426862,-0.074237Z M655.177177,232.11006l-0.334066,-0.055678l-0.018559,-0.148474l0.371184,-0.111355l0.46398,0.037118v0.204151l-0.482539,0.074237Z M655.771071,231.274896l0.167033,-0.167033h0.352625l0.352625,0.111355v0.167033l-0.24127,0.111355l-0.482539,-0.055678l-0.148474,-0.167033Z M656.680472,229.678805l0.278388,0.018559l0.167033,0.167033l-0.129914,0.22271l-0.259829,0.037118l-0.185592,-0.167033l0.129914,-0.278388Z M657.348603,231.441929l0.259829,-0.092796l0.649572,0.111355l0.22271,0.167033l-0.148474,0.129914l-0.538217,-0.037118l-0.371184,-0.129914l-0.074237,-0.148474Z M658.035294,232.314212l0.055678,-0.148474l0.167033,-0.074237l0.204151,0.037118l-0.037118,0.167033l-0.22271,0.092796l-0.167033,-0.074237Z M658.684866,231.794554l0.092796,-0.129914l0.24127,-0.055678l0.167033,0.092796l-0.037118,0.148474l-0.315506,0.074237l-0.148474,-0.129914Z M655.857681,230.303631l0.111355,-0.037118l0.185592,0.049491l0.098982,0.160846l-0.08661,0.061864l-0.235083,-0.098982l-0.074237,-0.136101Z M655.610225,230.687188l0.197965,-0.074237l0.272202,0.08661l0.061864,0.136101l-0.136101,0.024746l-0.296947,-0.049491l-0.098982,-0.123728Z M654.719383,229.375671l0.098982,-0.123728h0.160846l0.074237,0.098982l-0.049491,0.08661l-0.173219,0.024746l-0.111355,-0.08661Z M657.738347,230.346936l0.092796,-0.055678l0.194872,0.00928l0.139194,0.102076l-0.111355,0.046398l-0.269108,-0.018559l-0.046398,-0.083516Z M657.023817,230.346936l0.074237,-0.102076l0.120635,-0.037118l0.074237,0.046398v0.102076l-0.139194,0.064957l-0.129914,-0.074237Z M656.596956,230.578926l0.092796,-0.092796l0.148474,-0.018559l0.083516,0.083516l-0.018559,0.102076l-0.083516,0.027839l-0.176312,-0.00928l-0.046398,-0.092796Z M657.227969,230.95011l0.064957,-0.064957h0.129914l0.092796,0.083516l-0.055678,0.064957l-0.157753,-0.00928l-0.074237,-0.074237Z M654.091464,229.817999l0.102076,-0.102076l0.148474,-0.00928l0.083516,0.046398l-0.027839,0.064957l-0.129914,0.046398l-0.111355,0.018559l-0.064957,-0.064957Z M655.492683,229.465374l0.204151,-0.102076l0.167033,0.018559l0.092796,0.092796l-0.037118,0.092796l-0.352625,0.00928l-0.074237,-0.111355Z M654.620401,230.430453l0.22271,-0.213431h0.102076v0.092796l-0.092796,0.120635l-0.157753,0.046398l-0.074237,-0.046398Z M653.924431,230.337657l0.129914,-0.055678l0.324786,-0.00928l0.083516,0.055678l-0.083516,0.046398l-0.361904,0.027839l-0.092796,-0.064957Z M655.665903,232.388448l0.074237,-0.037118l0.123728,0.06805l0.06805,0.15466l-0.049491,0.024746l-0.179406,-0.074237l-0.037118,-0.136101Z M674.534423,231.256337h0.24127l0.148474,0.185592l-0.167033,0.129914l-0.315506,-0.055678l-0.074237,-0.167033l0.167033,-0.092796Z M674.460186,231.775995h0.315506l0.853723,0.593894v0.167033l-0.46398,-0.018559l-0.46398,-0.278388l-0.296947,-0.278388l0.055678,-0.185592Z M670.878261,232.518363l0.167033,-0.074237l0.352625,0.037118l0.185592,0.148474l-0.092796,0.148474l-0.24127,0.037118l-0.334066,-0.111355l-0.037118,-0.185592Z M671.490714,232.963784l0.167033,-0.092796l0.278388,0.074237l0.129914,0.129914l-0.148474,0.074237l-0.315506,-0.055678l-0.111355,-0.129914Z M673.625022,236.675624l-0.037118,-0.278388l0.111355,-0.148474l0.167033,0.018559l0.129914,0.371184l-0.055678,0.129914l-0.204151,0.055678l-0.111355,-0.148474Z M674.107561,236.06317l0.055678,-0.148474l0.779486,0.074237l0.389743,0.22271l0.037118,0.22271l-0.46398,0.018559l-0.70525,-0.204151l-0.092796,-0.185592Z M668.106753,237.133417l0.136101,-0.111355h0.235083l0.173219,0.061864l-0.012373,0.136101l-0.247456,0.123728l-0.272202,-0.061864l-0.012373,-0.148474Z M668.2676,237.85104l-0.136101,-0.22271l0.148474,-0.148474l0.470166,-0.012373l0.358811,0.197965v0.185592l-0.457794,0.08661l-0.383557,-0.08661Z M670.086401,238.185105l0.160846,-0.247456l0.272202,-0.049491l0.371184,0.136101l0.037118,0.173219l-0.334066,0.074237l-0.408302,0.012373l-0.098982,-0.098982Z M670.160638,239.22442l0.061864,-0.210338l0.321693,-0.173219l0.952706,-0.111355l0.680504,-0.371184l0.30932,0.061864l0.111355,0.30932l-0.185592,0.284574l-0.53203,0.136101l-1.064061,0.012373l-0.53203,0.136101l-0.123728,-0.074237Z M670.618432,238.642899l0.049491,-0.160846l0.197965,-0.098982l0.358811,-0.012373l0.037118,0.123728l-0.197965,0.123728l-0.284574,0.049491l-0.160846,-0.024746Z M672.239269,238.011886l0.247456,-0.08661l0.160846,0.024746l0.037118,0.123728l-0.284574,0.173219l-0.197965,-0.037118l0.037118,-0.197965Z M672.956891,238.16036l0.074237,-0.111355l0.272202,-0.037118l0.111355,0.074237l-0.074237,0.098982l-0.247456,0.049491l-0.136101,-0.074237Z M675.282977,231.763622l0.39593,0.024746l0.260995,0.111972l0.283408,0.246839l0.433048,0.148474l0.482539,0.037118l0.433048,0.247456l0.173219,0.272202l-0.22271,0.123728l-0.952706,-0.148474l-0.556776,-0.259829l-0.259829,-0.39593l-0.482539,-0.272202l0.012373,-0.136101Z M679.168037,234.151572l0.037118,-0.136101h0.210338l0.494912,0.408302v0.123728h-0.247456l-0.445421,-0.235083l-0.049491,-0.160846Z M683.804744,237.640702l0.092796,-0.24127l0.315506,-0.334066l0.510378,-0.027839l0.185592,0.102076l-0.22271,0.491819l-0.603174,0.269108l-0.213431,-0.00928l-0.064957,-0.250549Z M682.514879,239.264632l0.055678,-0.22271l0.296947,-0.250549l0.167033,0.00928l0.00928,0.315506l-0.296947,0.278388h-0.213431l-0.018559,-0.129914Z M682.514879,238.503705l0.148474,-0.111355l0.417582,0.018559l0.027839,0.102076l-0.148474,0.092796l-0.334066,0.018559l-0.111355,-0.120635Z M682.650248,237.741618l0.14302,-0.082356l0.167033,0.018559l0.046398,0.129914l-0.139194,0.092796l-0.167033,-0.018559l-0.050224,-0.140354Z M705.348882,233.854625l-0.037118,-0.123728l0.643386,-0.371184h0.346438l0.717622,0.494912l0.012373,0.123728l-0.284574,0.024746l-0.507285,-0.160846l-0.890842,0.012373Z M707.241921,233.137003l0.123728,-0.049491l0.30932,0.123728l0.049491,0.160846l-0.049491,0.098982l-0.284574,-0.037118l-0.148474,-0.296947Z M709.246314,233.186494l0.111355,-0.074237h0.210338l0.098982,0.136101l-0.08661,0.061864h-0.247456l-0.08661,-0.123728Z M706.09125,236.92308l0.08661,-0.098982l0.53203,-0.024746l0.383557,0.160846l0.22271,0.346438l-0.148474,0.30932l-0.210338,-0.024746l-0.334066,-0.457794l-0.433048,-0.098982l-0.098982,-0.111355Z M707.204802,236.403422l0.197965,-0.098982l0.185592,0.012373l0.061864,0.08661l-0.049491,0.098982h-0.358811l-0.037118,-0.098982Z M684.426477,241.148391l0.148474,-0.092796l0.204151,0.018559l0.22271,0.129914l-0.129914,0.111355l-0.315506,-0.037118l-0.129914,-0.129914Z M687.730015,244.247777l0.111355,-0.148474l0.22271,-0.055678l0.083516,0.064957l-0.120635,0.139194l-0.194872,0.046398l-0.102076,-0.046398Z M694.782511,245.853148l0.22271,0.018559l0.185592,0.120635l0.00928,0.185592l-0.22271,0.102076l-0.185592,-0.046398l-0.074237,-0.213431l0.064957,-0.167033Z M698.587147,247.022378l0.064957,-0.157753l0.213431,-0.00928l0.547496,0.343345l0.129914,0.324786l-0.092796,0.037118l-0.658852,-0.24127l-0.204151,-0.296947Z M702.094836,240.659665l0.197965,-0.074237l0.272202,0.148474l0.296947,0.494912l-0.024746,0.123728l-0.284574,0.037118l-0.482539,-0.494912l0.024746,-0.235083Z M698.519096,243.245581l0.074237,-0.08661l0.272202,-0.024746l0.30932,0.08661l0.061864,0.098982l-0.148474,0.098982l-0.346438,-0.037118l-0.22271,-0.136101Z M699.348074,244.000321l-0.049491,-0.210338l0.210338,-0.185592l0.259829,-0.012373l0.358811,0.30932l-0.061864,0.160846l-0.197965,0.136101l-0.284574,-0.012373l-0.235083,-0.185592Z M700.981284,244.000321l0.173219,-0.235083l0.210338,-0.037118l0.185592,0.148474l-0.024746,0.123728l-0.197965,0.111355h-0.247456l-0.098982,-0.111355Z M699.632648,241.154577l0.049491,-0.123728h0.272202l0.556776,0.272202l-0.012373,0.098982l-0.358811,0.012373l-0.408302,-0.111355l-0.098982,-0.148474Z M704.829225,239.595604l0.123728,-0.22271l0.742368,-0.123728l0.754741,0.148474l0.655758,0.494912v0.30932l-0.408302,0.346438l-0.631013,-0.012373l-0.878469,-0.457794l-0.358811,-0.482539Z M704.767361,240.251363l0.185592,-0.012373l0.22271,0.22271l-0.024746,0.259829l-0.197965,0.037118l-0.210338,-0.173219l0.024746,-0.334066Z M704.742615,240.993731l0.160846,-0.098982l0.173219,0.037118v0.235083l-0.235083,0.284574l-0.136101,-0.037118l0.037118,-0.420675Z M616.388448,243.041429l0.148474,-0.111355l0.24127,-0.018559l0.055678,0.129914l-0.204151,0.167033l-0.22271,-0.018559l-0.018559,-0.148474Z M673.383753,241.111273l0.092796,-0.315506l0.204151,-0.167033l0.148474,0.018559v0.334066l-0.259829,0.204151l-0.185592,-0.074237Z M674.849929,242.466094l0.055678,-0.204151l0.278388,-0.204151l0.22271,0.037118l-0.018559,0.185592l-0.259829,0.24127l-0.278388,-0.055678Z M675.870685,245.417007l0.556776,-0.371184l0.22271,-0.018559l0.037118,0.24127l-0.556776,0.723809l-0.315506,0.092796l-0.185592,-0.22271l0.24127,-0.445421Z M680.658959,247.755466l-0.445421,-0.148474l0.037118,-0.185592l0.352625,-0.111355l0.334066,0.037118l0.074237,0.185592l-0.055678,0.167033l-0.296947,0.055678Z M677.095593,245.621158l0.129914,-0.092796l0.389743,0.055678l0.111355,0.148474l-0.111355,0.129914l-0.46398,-0.111355l-0.055678,-0.129914Z M677.002797,244.87879l-0.037118,-0.129914l0.167033,-0.074237l0.22271,0.092796l0.037118,0.167033l-0.167033,0.074237l-0.22271,-0.129914Z M675.07264,243.876593l-0.129914,-0.315506l0.148474,-0.278388l0.259829,-0.129914l0.185592,0.055678l0.037118,0.445421l-0.092796,0.204151l-0.204151,0.074237l-0.204151,-0.055678Z M675.944922,242.688805l0.129914,-0.129914l0.259829,0.018559l0.129914,0.167033l-0.055678,0.148474l-0.315506,-0.037118l-0.148474,-0.167033Z M675.60467,244.420997l0.024746,-0.408302l0.173219,-0.136101l0.160846,0.024746l0.037118,0.22271l-0.111355,0.296947l-0.173219,0.098982l-0.111355,-0.098982Z M675.579925,242.503213l0.061864,-0.383557l0.098982,-0.098982l0.148474,-0.024746l0.061864,0.160846l-0.098982,0.22271l-0.123728,0.136101l-0.148474,-0.012373Z M673.662141,241.723726l0.22271,-0.148474l0.334066,-0.012373l-0.049491,0.160846l-0.148474,0.111355l-0.334066,-0.024746l-0.024746,-0.08661Z M610.523741,255.977192l0.173219,-0.173219l0.494912,0.024746l0.173219,0.148474l-0.136101,0.136101h-0.494912l-0.210338,-0.136101Z M611.253736,256.311258l0.098982,-0.123728l0.22271,-0.037118l0.123728,0.074237l-0.012373,0.123728l-0.259829,0.049491l-0.173219,-0.08661Z M610.932043,255.544144l-0.185592,-0.39593l0.061864,-0.173219l0.235083,-0.037118l0.22271,0.173219v0.197965l-0.148474,0.235083h-0.185592Z M611.327973,255.56889l0.08661,-0.22271l0.160846,-0.074237l0.247456,0.049491l0.136101,0.30932l-0.024746,0.185592h-0.272202l-0.334066,-0.247456Z M617.167934,254.17695l0.185592,-0.129914l0.890842,0.129914l0.129914,0.167033l-0.129914,0.167033l-0.760927,0.055678l-0.296947,-0.129914l-0.018559,-0.259829Z M626.187706,251.986964l0.074237,-0.167033l0.612454,0.055678l0.408302,0.334066l-0.037118,0.204151l-0.278388,0.167033l-0.352625,-0.167033l-0.426862,-0.426862Z M627.208462,252.655095l0.185592,-0.092796l0.371184,0.259829v0.204151l-0.204151,0.055678l-0.334066,-0.22271l-0.018559,-0.204151Z M625.482456,253.026279l0.22271,-0.185592l0.334066,-0.018559l0.092796,-0.204151l0.185592,-0.055678l0.167033,0.129914l0.111355,0.259829l0.408302,0.074237l0.055678,0.129914l-0.22271,0.185592l-0.946519,-0.037118l-0.352625,-0.092796l-0.055678,-0.185592Z M626.31762,253.768647l0.204151,-0.22271l0.278388,-0.018559l0.092796,0.167033l-0.092796,0.22271l-0.259829,0.074237l-0.22271,-0.22271Z M628.730316,254.343982l0.037118,-0.389743l0.167033,-0.185592l0.296947,0.092796l0.018559,0.445421l-0.129914,0.22271l-0.278388,-0.018559l-0.111355,-0.167033Z M628.489047,254.659489l0.167033,-0.074237l0.296947,0.092796l-0.018559,0.148474l-0.167033,0.092796l-0.204151,-0.055678l-0.074237,-0.204151Z M629.80675,253.601614l0.24127,-0.074237l0.22271,0.167033l0.148474,1.002197l-0.185592,0.148474l-0.278388,-0.092796l-0.315506,-0.426862l0.037118,-0.46398l0.129914,-0.259829Z M631.829703,254.065594l0.148474,-0.111355l0.259829,0.185592v0.278388l-0.167033,0.037118l-0.185592,-0.185592l-0.055678,-0.204151Z M631.291486,254.882199l0.24127,-0.259829l0.334066,0.055678l0.259829,0.278388l-0.055678,0.129914h-0.46398l-0.315506,-0.204151Z M630.010901,256.71956l0.204151,-0.204151l0.631013,-0.018559l0.296947,0.185592l-0.018559,0.204151l-0.482539,0.148474l-0.501098,-0.167033l-0.129914,-0.148474Z M632.8319,257.016507l0.148474,-0.24127l0.371184,-0.018559l0.167033,0.148474v0.185592l-0.296947,0.148474l-0.24127,-0.018559l-0.148474,-0.204151Z M633.425794,255.08635l0.185592,-0.092796l0.334066,0.055678l0.074237,0.148474l-0.148474,0.129914l-0.389743,-0.037118l-0.055678,-0.204151Z M632.81334,255.346179l0.167033,-0.092796l0.296947,0.185592l0.148474,0.389743l-0.278388,0.426862h-0.371184l-0.519658,-0.296947l0.055678,-0.24127l0.315506,-0.018559l0.129914,0.129914l0.129914,-0.055678l0.037118,-0.24127l-0.111355,-0.185592Z M629.305652,255.253383l0.037118,-0.315506l0.167033,-0.074237l0.148474,0.129914l-0.018559,0.334066l-0.185592,0.074237l-0.148474,-0.148474Z M628.897349,256.237021l0.167033,-0.148474l0.296947,0.055678l0.074237,0.148474l-0.129914,0.074237h-0.278388l-0.129914,-0.129914Z M630.419204,255.977192l0.334066,-0.315506l0.334066,-0.111355l0.111355,0.092796l-0.352625,0.408302l-0.315506,0.055678l-0.111355,-0.129914Z M633.685623,255.828718l0.148474,-0.111355h0.204151l0.167033,0.185592l-0.055678,0.185592l-0.296947,-0.018559l-0.167033,-0.111355v-0.129914Z M634.520787,256.626764l0.296947,-0.445421l0.296947,-0.037118l0.167033,0.129914l-0.018559,0.22271l-0.24127,0.278388l-0.352625,-0.018559l-0.148474,-0.129914Z M633.592827,256.441172l0.204151,-0.111355l0.408302,0.018559l0.092796,0.185592l-0.074237,0.129914l-0.556776,-0.055678l-0.074237,-0.167033Z M630.49344,255.197706l0.148474,-0.055678l0.167033,0.018559l0.074237,0.148474l-0.129914,0.092796l-0.204151,-0.055678l-0.055678,-0.148474Z M634.483668,257.202099l0.185592,-0.092796l0.185592,0.018559l0.018559,0.204151l-0.148474,0.129914l-0.204151,-0.092796l-0.037118,-0.167033Z M635.114681,257.591843l0.24127,-0.148474h0.167033v0.129914l-0.167033,0.111355l-0.185592,0.037118l-0.055678,-0.129914Z M635.300273,258.222855l0.204151,-0.055678l0.334066,0.092796l0.055678,0.148474l-0.117542,0.043305l-0.402116,-0.098982l-0.074237,-0.129914Z M645.11809,262.732741l0.247456,-0.148474l0.235083,0.049491l0.123728,0.160846l-0.136101,0.111355l-0.420675,-0.037118l-0.049491,-0.136101Z M644.239621,262.769859l0.061864,-0.235083l0.272202,-0.08661l0.136101,0.123728l0.037118,0.148474l-0.061864,0.098982l-0.321693,0.012373l-0.123728,-0.061864Z M643.472508,262.039864l0.061864,-0.210338l0.507285,-0.111355l0.148474,0.08661l-0.061864,0.136101l-0.210338,0.173219l-0.210338,0.037118l-0.235083,-0.111355Z M642.64353,261.75529l0.012373,-0.358811l0.185592,-0.247456l0.235083,-0.012373l0.111355,0.136101l0.073208,0.230443l-0.196936,0.363451l-0.272202,0.012373l-0.148474,-0.123728Z M642.049636,260.567501l0.061864,-0.173219l0.259829,-0.148474l0.296947,0.098982l0.024746,0.321693l-0.247456,0.606267l-0.33509,0.230443l-0.172194,-0.094343l0.111355,-0.197965l0.185592,-0.098982l0.037118,-0.123728l-0.160846,-0.185592l-0.061864,-0.235083Z M636.0612,258.340397l0.197965,-0.148474l0.197965,-0.012373l0.061864,0.123728l-0.08661,0.111355l-0.284574,0.049491l-0.08661,-0.123728Z M636.580858,258.872427l0.173219,-0.160846l0.136101,-0.012373l0.08661,0.136101l-0.111355,0.098982l-0.173219,0.024746l-0.111355,-0.08661Z M637.063397,258.57548l0.08661,-0.061864l0.210338,0.173219l-0.012373,0.30932l-0.123728,0.037118l-0.098982,-0.185592l-0.061864,-0.272202Z M636.14781,260.406655l0.098982,-0.148474h0.371184l0.185592,0.173219l-0.037118,0.433048l-0.160846,0.049491l-0.148474,-0.22271l-0.272202,-0.136101l-0.037118,-0.148474Z M635.578661,260.443773l0.136101,-0.111355h0.197965l0.049491,0.123728l-0.037118,0.08661h-0.197965l-0.148474,-0.098982Z M636.976788,260.839703v-0.284574l0.160846,-0.136101l0.284574,0.012373l0.148474,0.197965l0.012373,0.185592l-0.22271,0.173219l-0.296947,-0.024746l-0.08661,-0.123728Z M636.630349,261.334615l0.420675,-0.197965h0.569149l0.779486,-0.296947l0.185592,0.074237l0.024746,0.321693l-0.123728,-0.012373l-0.074237,-0.123728l-0.123728,-0.049491l-0.445421,0.197965l-0.038159,0.255189l-0.283534,0.054131l-0.39593,-0.22271l-0.420675,0.08661l-0.074237,-0.08661Z M635.603407,261.285123l0.185592,-0.037118l0.247456,0.012373l0.037118,0.08661l-0.148474,0.061864l-0.259829,-0.024746l-0.061864,-0.098982Z M638.152204,261.681053l0.097942,-0.177859h0.321703l0.297978,-0.143834l0.39593,0.049491l-0.025786,0.094343h-0.309326l-0.172174,0.239723l-0.296947,0.037118l-0.30932,-0.098982Z M639.043045,261.854272l0.30932,-0.136101l0.61864,0.061864l0.136101,0.148474l-0.197965,0.111355l-0.482539,-0.08661l-0.259829,0.024746l-0.123728,-0.123728Z M639.896769,262.250202l0.210338,-0.037118l0.371184,0.037118l0.296947,0.22271l-0.024746,0.22271l-0.197965,0.136101l-0.259829,-0.160846v-0.22271l-0.383557,-0.098982l-0.012373,-0.098982Z M642.989969,262.571895l0.197965,-0.049491l0.173219,0.049491v0.111355l-0.148474,0.037118l-0.185592,-0.037118l-0.037118,-0.111355Z M641.047439,263.066807l0.148474,-0.061864l0.334066,0.037118l0.049491,0.111355l-0.123728,0.037118l-0.284574,-0.024746l-0.123728,-0.098982Z M641.777434,261.693426l0.197965,-0.049491l0.123728,0.024746v0.111355l-0.123728,0.098982l-0.148474,-0.049491l-0.049491,-0.136101Z M637.001533,259.911743l0.197965,-0.098982l0.173219,0.012373l0.074237,0.111355l-0.074237,0.08661h-0.284574l-0.08661,-0.111355Z M637.719156,259.738523l0.098982,-0.136101l0.197965,-0.012373l0.136101,0.061864l-0.024746,0.08661l-0.334066,0.074237l-0.074237,-0.074237Z M682.10039,268.820159l0.024746,-0.284574l-0.136101,-0.22271l-0.754741,-0.358811l-0.123728,0.111355l0.0724,0.216234l-0.197192,0.443681l-0.369734,-0.049298l-0.591575,-0.345085l-0.69017,-0.073947l-0.788766,-0.616223l-0.172543,-0.640872l-0.188975,-0.271138l-0.15611,0.123245l-0.172543,0.764117l0.31048,0.399796l-0.074237,0.098982l-0.84135,-0.296947l-0.420675,-0.259829l-0.206664,-0.287088l-0.024649,-0.714819l-0.197192,-0.123245l-0.271138,0.098596l-0.46833,-0.271138l-0.566926,-0.517628l0.065731,-0.328653l-0.115028,-0.139677l-0.591575,0.049298l-0.673738,-0.238273l-0.637586,-0.366931l-0.069017,-0.380754l-0.419032,-0.394383l-0.492979,-0.147894l-1.004807,-0.988567l-0.148474,-0.556776l-0.334066,-0.389743l-0.575335,-0.24127l-0.092796,-0.371184l-0.371184,-0.668131l-0.556776,-0.22271l-0.092796,0.129914l0.46398,0.352625l0.315506,0.890842l-0.055678,0.538217l0.798046,1.447618l0.204151,0.68669l-0.352625,0.204151l-0.426862,-0.167033l-0.612454,-0.890842l-0.742368,-0.816605l-1.85592,-0.872282l-0.742368,-0.22271l-0.408302,-0.575335l-0.723809,-0.389743l-1.020756,-0.148474l-0.296947,0.167033l-0.668131,-0.018559l-0.519658,-0.259829l-0.408302,-0.018559l-0.092796,0.167033l0.426862,0.334066l1.039315,1.63321l1.484736,1.224907l0.593894,0.055678l0.185592,0.148474l0.092796,0.538217l0.798046,0.723809l0.154273,0.424542l0.813415,0.887362l0.542277,0.123245l0.295787,-0.123245l0.714819,0.172543l0.616223,0.419032l0.616223,0.147894l0.419032,-0.073947l0.46775,0.175442l-0.048718,0.194292l-0.739468,0.098596l-0.362484,0.505158l0.111355,0.111355l0.497619,-0.320726l0.665521,-0.147894l0.419032,0.123245v0.246489l-0.517628,0.22184l-0.197192,0.271138l0.079167,0.088446l0.660302,-0.334936h0.566926l0.912011,0.517628l0.93666,0.838064l1.1585,1.109202l0.271138,0.46833l0.566926,0.246489l0.427248,-0.049298l0.821631,0.394383l1.018823,1.31461l-0.065731,0.492979l0.262922,0.230057l0.46166,0.006186l0.46398,0.389743l-0.074237,0.185592l-0.389743,0.018559l-0.165873,0.254416l0.165873,0.432275l0.16278,0.027839l0.131461,-0.295787l0.427248,-0.098596l0.558709,0.197192l0.460114,0.558709l0.394383,0.262922l0.460114,-0.131461l0.492979,0.164326l0.131461,0.427248l-0.62444,0.262922l-0.131461,0.328653l0.361518,0.460114l-0.131461,0.394383l-0.394383,0.098596l-0.065731,0.328653l0.657305,0.985958l-0.197192,0.328653l-1.906185,0.098596l-1.774724,-0.558709l-0.920227,-0.657305l-0.887362,-0.328653h-0.62444l-1.807589,-0.591575h-0.920227l-2.793546,-0.788766l-0.723036,-0.328653l-3.023603,-0.492979h-1.216014l-0.920227,-0.328653l-1.084553,-0.69017l-0.69017,-0.262922l-0.657305,0.032865l-1.610397,-0.854497l-0.230057,-0.427248l-0.723036,-0.62444l-0.821631,-0.492979l-0.262922,-0.394383l0.230057,-0.591575l-0.065731,-0.558709l-0.460114,-0.230057l-1.150284,-0.065731l-0.525844,0.197192l-0.788766,-0.131461l-0.920227,0.197192l-1.018823,-0.131461l-1.610397,-1.018823l-0.755901,-0.197192l-0.821631,0.065731l-2.169107,-0.920227l-0.328653,-0.262922l0.164326,-0.262922l0.460114,-0.032865l0.098596,-0.328653l-0.361518,-0.197192l-0.788766,0.131461l-0.164326,0.361518l-0.295787,0.065731l-0.887362,-0.262922l-0.098596,-0.394383l-0.755901,-0.361518l-0.657305,-0.098596l-0.953092,-1.051688l-0.098596,-0.854497l0.179406,-0.377757l-0.123728,-0.173219l-1.398126,-0.296947l-0.457794,-0.012373l-0.173219,-0.160846l0.259829,-0.259829l0.606267,-0.049491l1.641426,0.270558l0.46833,-0.123245l0.123245,-0.271138l0.542277,-0.197192h0.419032l0.838064,-0.542277l0.172543,-0.394383l0.246489,-0.172543l-0.049298,-0.172543l-0.295787,0.073947l-0.246489,0.345085l-0.246489,-0.024649l-0.320436,-0.246489l-0.640872,0.147894l-0.246489,-0.197192l0.073947,-0.345085l-0.198124,-0.271138l-0.689238,-0.246489l-0.739468,-0.69017v-0.22184l-0.605204,-0.303037l-0.553296,0.105845l-0.246489,0.838064l-0.394383,0.073947l-0.271138,-0.22184h-0.419032l-0.295787,0.492979l-0.394383,-0.098596l-0.098596,-0.369734l-0.739468,-0.69017l-0.509605,0.011793l-0.235083,-0.160846l-0.061864,-0.408302l-0.631013,-0.53203l-0.160846,-0.593894l0.173219,-0.173219l0.123728,-0.321693l-0.061864,-0.371184l-0.140257,-0.137357l-0.172543,0.147894l-0.008893,0.422512l-0.237596,0.267658l-0.419032,-0.049298l-0.049298,-0.295787l-0.543727,-0.367994l-0.723809,-0.389743l-0.055678,-0.296947l0.337255,-0.621443l-0.172543,-0.369734l-0.566926,-0.172543l-0.813415,-0.813415l-0.714819,-0.123245l-0.426572,0.170223l-0.445421,-0.148474l-0.212561,-0.835164l-0.419032,-0.394383l0.147894,-0.764117l0.246489,-0.419032l-0.147894,-0.098596l-0.369734,0.271138l-0.254706,1.109202l-0.394383,0.591575h-0.492979l-0.032865,-0.558709l-0.460114,-0.558709l-0.953092,-0.262922l-0.492979,0.230057l-0.427248,0.985958l-0.525844,0.098596l-0.164326,-0.394383l0.394383,-0.985958l-0.558709,-0.887362l0.131461,-0.558709l0.295787,-0.262922l-0.131461,-0.361518l-0.328653,0.032865l-0.755901,0.723036l-0.985958,-0.098596l-1.577532,-1.150284l-0.131461,-0.591575l0.394383,-0.788766l-0.131461,-0.295787l-0.295787,0.098596l-0.295787,0.887362l-0.328653,0.230057l-0.764117,-0.410816l-0.090379,0.147894l0.394383,0.525844l0.788766,0.361518l1.347475,0.985958l0.230057,0.525844l-0.295787,0.525844l0.131461,1.051688l-0.262922,0.164326l-0.525844,-0.065731l-0.53406,0.213624l-1.380341,-0.22184l-1.109202,-0.714819l-0.443681,-0.073947l-0.295787,0.320436l-0.271138,-0.049298l-0.295787,-0.419032l-1.651479,-0.764117l-0.69017,-0.024649l-0.887362,-0.566926l-0.246489,0.049298l0.123245,0.69017l0.640872,0.542277l-0.024649,0.22184h-0.591575l-0.172543,0.147894l0.197192,0.394383l0.419032,0.369734l-0.147894,0.172543l-1.133851,-0.197192l-1.257096,0.024649l-0.764117,0.369734l-0.098596,0.46833l-0.714819,0.394383l-1.1585,-0.049298l-0.640872,-0.320436l-0.542277,0.123245l-0.295787,0.271138l0.369734,0.369734l0.024649,0.246489l-0.212658,0.092989l-1.167683,-0.561319l-2.119809,-0.345085l-0.93666,0.320436l-0.320436,-0.049298l-0.049298,-0.345085l-0.714819,-0.492979l-0.197192,-0.345085l-0.566926,-0.22184l-0.246489,0.098596l0.098596,0.295787l-0.22184,0.197192l-0.887362,-0.197192l-0.419032,-0.369734l0.024649,-0.345085l-0.22184,-0.172543l-0.566926,0.123245l-0.098596,-0.172543l0.098596,-0.246489l-0.073947,-0.22184l-0.764117,-0.369734l-0.345085,-0.69017v-0.345085l-0.320436,-1.109202l0.320436,-0.542277l0.419032,-0.394383l0.049298,-0.566926l-0.246489,-0.246489l-0.123245,-0.69017l0.295787,-0.419032l1.133851,-0.714819l0.246489,-0.295787l2.021213,-0.985958l0.517628,-0.073947l0.369734,0.098596l0.369734,-0.024649l0.961309,-0.394383l-0.024649,-0.271138l-1.109202,-0.961309l-0.073947,-0.345085l0.123245,-0.295787l0.46833,-0.123245l0.394383,0.197192l0.369734,-0.049298l0.049298,-0.197192l-0.838064,-0.542277l0.049298,-0.246489l0.295787,-0.123245l1.478936,0.197192l0.46833,0.394383l0.492979,0.049298l0.443681,-0.172543l0.739468,0.024649l0.246489,0.197192l1.059904,0.123245l2.116329,0.624053l1.334523,0.682341l1.059904,0.073947l0.111065,-0.218071l-0.111355,-0.259829l0.167033,-0.22271l0.668131,-0.055678l0.594764,0.214011l0.517628,-0.246489l0.271138,0.024649l0.024649,0.345085l0.22184,0.197192l2.538841,0.246489l0.517628,-0.246489l0.073947,-0.271138l-0.123245,-0.369734l0.049298,-0.369734l0.197192,-0.073947l0.479929,0.104685l0.649572,-0.129914l0.70525,0.037118l0.204151,-0.204151l0.167033,-0.334066l0.296947,0.055678l0.167033,0.296947l-0.057128,0.444841l0.271138,0.246489l0.591575,0.024649l0.813415,-0.46833l0.69017,-0.813415l0.591575,-0.369734l0.22184,-0.320436l0.460114,-0.123245l0.657305,0.197192h0.328653l0.525844,-0.164326l0.854497,0.262922l0.394383,0.361518l0.492979,0.164326l0.821631,-0.098596l0.073947,-0.328653l-0.573227,-0.834174l-0.19089,-0.595465l-0.443681,-0.172543l-0.271138,-0.320436l0.172543,-0.640872l-0.271138,-0.640872l-0.887362,-0.46833l-0.69017,-0.049298l-0.665521,-0.443681l-0.591575,-0.838064l-1.996564,-1.774724l0.098596,-0.542277l0.295787,-0.394383l1.429638,-0.640872l2.169107,-1.257096l0.764117,-0.714819l1.133851,-0.566926l0.858943,-0.92622l0.111355,-0.389743l0.445421,-0.519658l1.503295,-0.723809l0.649572,-0.055678l1.484736,0.408302l2.282782,0.204151l1.484736,-0.129914l1.763124,0.259829l1.911598,0.723809l1.057874,0.111355l0.983638,0.259829l0.556776,0.70525l0.188492,0.885912l0.345085,0.542277l0.443681,0.197192l0.172543,0.369734l-0.271138,0.345085l-0.073947,0.985958l-0.271138,0.764117l-0.542277,0.320436l0.049298,0.22184l0.419032,0.049298l0.566926,-0.172543l0.271138,0.073947l0.024649,0.22184l-0.394383,0.295787l-0.912011,0.147894l-0.246489,0.419032l0.098596,0.246489h0.517628l0.813415,-0.345085l0.616223,-0.665521l0.542277,-0.271138l0.370604,-0.481476l0.350484,-0.267023l0.388115,-0.089565l0.591575,-0.665521l-0.024649,-0.714819l0.123535,-0.595344l0.371184,-0.055678l0.816605,0.371184l0.278388,0.612454l0.612454,0.296947l0.593894,-0.037118l0.501098,-0.482539l0.426862,-0.111355l0.890842,0.055678l0.352625,-0.185592l0.389743,0.074237l0.185592,0.315506l0.389743,0.018559l0.278388,-0.167033l0.315506,-0.037118l0.371184,0.129914l0.46398,-0.092796l0.111355,-0.501098l0.408302,-0.278388h0.445421l0.389743,-0.408302l-0.037118,-0.334066l0.148474,-0.167033l0.408302,-0.129914l0.204151,-0.22271l-0.147604,-0.188202l-0.665521,0.024649l-0.887362,0.22184l-0.640872,-0.172543l-0.024649,-0.271138l0.658562,-0.338415v-0.315506l-0.70525,-0.204151l-0.420694,-0.366569l-0.655739,-0.283003l-1.002197,-0.167033l-0.315506,-0.296947l-0.500606,-0.160574l-0.408795,0.086337l-0.46398,-0.074237l-0.24127,-0.296947l-0.723809,-0.259829l-0.68669,-0.055678l-0.872282,-0.501098l-0.259829,-0.946519l-0.459727,-0.330586l-0.657305,-0.164326l-0.460114,-0.460114l-0.197192,-0.361518l-1.084553,-0.460114l-1.051688,0.164326l-0.131461,0.361518l0.460114,0.69017l-0.492979,1.018823l-0.460114,0.394383l-0.230057,0.920227l-0.657305,0.69017l-1.413206,0.139677l-2.103376,-0.632656l-1.807589,-0.262922l-1.511802,0.164326l-2.169107,-0.197192l-1.446071,-0.558709l-0.065731,-0.361518l0.262922,-0.62444l0.643386,-0.519271l0.309707,-0.598148l-0.032865,-0.394383l0.230057,-0.328653l1.347475,-0.723036l1.339259,-0.361518l0.616223,-0.46833l0.345085,-1.035255l0.419032,-0.271138l0.024649,-0.172543l-0.591575,-0.172543l-0.345085,0.049298l-0.295787,-0.22184l0.049298,-0.542277l-0.345085,-0.93666l-0.419032,-0.320436l-0.049298,-0.271138l0.197192,-0.46833l-0.320436,-0.665521l-0.640872,-0.197192l-0.394383,-0.443681l0.049298,-0.369734l0.320436,-0.295787l0.049298,-0.295787l-0.517628,-0.764117l-0.542277,-0.419032l-0.419032,0.073947l-0.325347,-0.071008l-0.512715,-1.038211l-0.123224,-0.788788l0.172503,-0.197115v-0.61623l-0.345061,-1.059903l-0.493006,-0.320448l-0.8134,-0.320448l-0.246503,-0.295782l-0.468285,-0.098558l-0.542285,0.172449l-1.010624,-0.197115l-0.872948,0.015539l-1.000355,-0.483878l-0.757764,-0.738477l-0.049442,-0.741845l0.462091,-0.51626l0.61623,-0.172558l0.147891,-1.01057l-0.2866,-0.52604l-0.890171,-0.642961l-1.335256,-0.098884l-0.247264,0.247318l0.760916,0.455843l0.889193,1.033063l-0.295782,0.591564l-2.145614,-0.250687l-1.483582,-0.741845l-0.346202,-0.692295l-2.175985,-1.384698v-0.445085l0.939667,-0.494527l0.247264,-0.494636l-0.395644,-0.346093l-1.829783,0.049442l-0.402,0.462146l-0.468339,0.074l-1.08457,-0.542339l-0.913425,-0.834535l-0.543969,-0.049442l-0.14838,0.296651l0.324034,0.464101l-0.221836,0.591564l-1.207794,0.567006l-1.232461,0.295782l-2.637424,1.478909l-1.651358,0.163321l-0.542393,-0.48377l0.024667,-0.517673l0.838067,-0.887345l-0.049333,-0.419006l-0.716092,-0.362718v-0.939613l0.593465,-0.642853l1.780341,-0.049442l1.58252,0.346202l0.791287,-0.098992l1.533024,-0.593411l0.642907,-0.445085l0.049496,-0.890171l-0.593465,-0.791287l-3.214481,-1.7309h-0.989109l-0.543969,-0.197767l-0.939613,-0.890171l-2.126543,-0.989054l-2.077047,-0.395644l-0.14838,-0.395644l0.593465,-0.395644l1.483582,-0.247209l0.14838,-0.346202l-1.335256,-0.890171l-1.978163,-0.445085l-0.692349,0.247209l-0.445085,0.741845l-0.494527,0.197767l-0.296705,-0.247209l0.069171,-5.22055l-0.741791,-0.840729l-0.939613,-0.247318l-2.126543,0.346202l-1.186876,-0.247318l-1.87928,-2.175876l-1.483582,-0.29676l-0.939613,-0.593411l-0.395644,0.049442l-0.197822,0.642853l-0.395644,0.148434l-1.236345,-0.29676l-0.840702,0.346202l0.098911,0.346093l1.780341,0.445085l1.631989,0.247318l0.840675,0.543969l1.137434,2.175985l0.14838,1.632016l-0.642907,0.840729l-1.7309,0.197767h-2.522132l-1.137434,0.29676l-0.840702,-0.197876l-0.197822,-0.494527l-0.692349,-0.840729l-1.199421,-0.290793l-1.307414,0.222014l-0.81405,0.074005l-1.823268,-0.743594l-2.372829,-0.250687l-3.709036,-0.593411l-0.741818,0.049442l0.098911,0.346202l1.186903,0.494527l0.989082,0.197767l1.038523,0.593411l0.148353,0.395644l1.928694,1.48369l0.537748,0.746844l-0.236805,0.404011l-0.626852,0.069653l-1.072644,-0.487573l-0.821876,-0.738259l-1.727368,-0.682624l-0.886887,-0.767012l-0.789382,-0.246682l-3.379542,-2.022792l-2.222411,-0.72642l-2.340905,-0.971688l-0.280138,0.032075l0.840702,0.642853l2.324338,0.890171l2.806993,1.310916l1.887103,1.295051l-0.037,0.518107l-1.046972,0.387168l-1.138548,0.299042l-3.166832,-0.538645l-2.526017,-1.300158l-1.625197,-0.24145l-2.015245,0.557226l-2.336698,0.037054l-5.044292,-0.642853l-1.087993,-0.543969l-2.868307,-0.642961l-2.647724,-0.086841l-1.243466,0.46398l0.111355,0.185592l1.336262,-0.22271l1.447618,0.389743l0.890842,0.593894l-0.055678,0.167033l-2.004394,-0.334066l-0.983638,0.22271l-1.317703,-0.278388l-2.766094,-1.375507l-1.372355,-1.604666l-0.148353,-0.939613l0.173074,-0.494527l0.766539,-0.543969l0.049469,-0.29676l-0.197822,-0.098884l-0.642907,0.098884l-0.79126,0.642853l-0.247264,0.642961l-0.79126,0.197767l-0.494554,-0.296651l-0.247264,-0.791287l-0.840702,-0.346202l-0.346174,0.247318l0.049442,0.346093l0.642907,0.59352l-0.049469,0.445085l-0.989054,0.098884l-2.917776,-0.494527l-1.137462,0.049442l-0.098884,0.197767l0.445085,0.197876l0.148353,0.395644l-0.494554,0.296651l-1.285787,-0.148326l-1.730872,-0.791287l0.098884,-0.247209l0.989082,0.098884l0.543996,0.247209l0.346174,-0.049442l-0.098911,-0.395644l-2.027605,-0.741737l-2.077047,-0.395644l-2.027605,-1.038496l-0.890171,-0.989163l-0.445085,-0.989054l-1.7309,-1.087938l-0.445085,-0.890171l0.098911,-0.543969l0.93964,-0.247318l0.049442,-0.395644l-1.483609,-0.989054l0.098911,-0.29676h0.939613l1.186903,0.494527l2.175958,0.148434l1.285814,-0.197876l1.285787,0.247318l0.642907,0.593411l1.928694,0.543969l4.253032,-0.296651l0.692349,-0.395644l0.692349,-0.098884l0.049469,-0.247318l-1.483636,-0.543969l-2.571601,-1.038605l-0.445085,-0.939613l-0.445085,-0.395644l-0.692349,0.049551l-0.741791,0.445085l-2.077074,-0.098992l-4.599206,-0.642853l-3.709036,-0.197876l-1.087993,-0.642853l-0.989054,-1.384698l0.049442,-1.780341l0.989082,-1.335256v-0.741845l-1.483609,-1.582465l0.049442,-0.494527l0.642907,-1.335256l1.335256,-0.692403l0.989082,-0.296651l0.098884,-0.445085l-0.692349,-0.247318l-0.64288,0.148326l-0.692376,-0.346093l-0.062648,-1.433645l0.445085,-1.533024l0.494554,-0.791287l0.210155,-0.964388l0.408004,-0.48214l0.630547,-0.148326l0.556357,-0.222543l0.111271,-0.333814l-0.333814,-0.408031l-0.037109,-0.370868l0.370923,-0.370868l0.815981,0.037054l0.445085,-0.185488l-0.037081,-0.259597l-0.408004,-0.259597l0.037081,-0.370977l0.259651,-0.259597l0.185434,-0.593411l-0.185434,-0.779008l0.667601,-1.372202l2.749713,-3.207515l3.821133,-2.600789l4.673369,-2.114156l4.747586,-0.964279l3.486493,-0.185597l3.560656,0.111271l4.11704,0.556357l1.335256,0.741954l-0.07419,0.618078l-0.989054,0.717179l-3.832695,1.978109l-2.942497,2.423194l-1.186876,1.829892l-0.667628,1.409365l-1.063272,1.261148l-0.989082,0.84062l-0.420337,0.914946l-0.049469,1.162155l0.346174,0.791178l1.58252,1.038605l1.137434,1.384698l-0.024721,0.494527l-0.618159,0.939613l-0.445085,1.43414l0.148353,2.373861l1.434167,2.274869l2.274869,2.027551l3.232874,2.023734l2.875008,0.763346l0.503684,0.380144l0.084443,0.810585l-0.395644,0.247318l-1.58252,0.049442l-1.038523,0.395644l-0.494527,0.494527l-0.93964,0.247318l-1.137434,-0.148434l-1.631962,0.395644l-1.780341,1.038496l-2.077074,0.544078l-1.434167,0.148326l-0.197795,0.197767l0.395616,0.29676h1.58252l2.225427,-0.692295l1.928694,-0.890171l1.087993,-0.29676l1.236345,-0.197876l1.384698,-0.197767l0.692376,0.247318l0.395616,-0.049551l0.543996,-0.445085l0.79126,0.049551l0.346174,0.494527l-0.197822,1.087938v0.989054l0.296733,0.29676l0.543996,-0.197767l0.049442,-0.840729l-0.296705,-0.741845l0.247264,-1.236372l0.445085,-0.247209l0.049442,-0.346202l-0.296705,-0.593411v-1.285814l0.445058,-0.494527l0.692376,-0.247318l0.148353,-0.494527l-0.133928,-0.612318l-0.45951,-0.52517l-0.049469,-0.692295l-0.494527,-0.346202l-0.494554,0.049442l-0.736553,0.525152l-2.366298,-0.197192l-1.713906,-0.992404l-0.692349,-1.285706l-1.533051,-0.840729l-1.680652,-0.512772l-0.000779,-0.377399l0.543969,-0.148434l1.533078,0.049442l1.335256,-0.445085l0.692349,-0.939613v-0.890171l0.494554,-0.593411l1.780314,-0.098884l1.236345,0.445085l1.384725,0.989054l1.483609,0.593411l1.434167,1.088047l0.148353,0.543969l0.296733,0.098884l0.148353,-0.494527l-0.296733,-0.741845l-1.631962,-1.087938l-1.434167,-0.642853l-0.989082,-0.989163v-0.642853l0.395644,-0.445085l0.098911,-0.890171l-0.543996,-0.049442l-0.890171,0.593411l-1.58252,0.148434l-1.879252,-1.038605l-0.568717,-0.642853l-0.000924,-0.370977l0.495451,-0.197767l0.024748,-0.197767l-0.79126,-0.346202l-0.321454,-0.519302l0.148353,-1.978109l0.321454,-1.582465l0.71707,-0.445085h1.557799l1.755621,0.593411l1.285787,0.568636l1.087993,0.098992l1.458888,0.42031l0.989082,0.543969l1.359977,0.247318l-0.148353,-0.197876l-1.087993,-0.321426l-0.840729,-0.519302l-1.236345,-0.519194l-1.557772,-0.370977l-1.236345,-0.618186l-0.543996,-0.494419l-0.420364,-0.049551l-0.445085,0.098884l-1.706152,-0.049333l-0.416425,-0.350114l0.169162,-0.515282l0.494527,-0.519411h0.395616l0.593465,0.618295l0.618159,0.247101l0.123632,-0.148217l-0.123632,-0.346202l0.049469,-0.445085l0.321454,-0.173209l0.815981,0.197985l1.162155,0.543969l2.151237,0.37076l2.44797,0.321644l1.335256,0.024558l0.840729,0.222543l0.71707,0.098884l-0.148353,-0.197767l-0.667628,-0.148217l-0.642907,-0.272093l-1.359977,-0.123659l-2.299617,-0.543969l-1.755593,-0.272093l-1.533078,-0.692186l-1.087993,-0.247318l-0.271985,-0.272093l0.098911,-0.741737l0.890171,-0.692403l1.458888,-0.469861l0.469806,0.049551l0.346174,0.395535l0.098911,0.445085l0.618159,0.346202l0.86545,0.321426l0.469806,0.321644l0.247291,0.024558v-0.222543l-0.86545,-0.667628l-0.642907,-0.197767l-0.271985,-0.247318l-0.197822,-0.618078l0.222543,-0.346202l2.250148,-0.816062l1.359977,0.024775l1.879252,0.494636l0.296705,0.296651l0.07419,0.469861l0.370895,0.716961l0.272012,0.173209l0.148353,-0.148434l-0.222543,-0.346202l-0.049442,-0.716961l-0.272012,-0.59352l-0.865423,-0.395535l-1.112713,-0.173209l-0.098911,-0.222543l0.568717,-0.370977l4.228311,-1.483473l1.310508,-0.074326l0.741818,-0.271876l0.642907,-0.543969l0.593438,-0.148434l2.077047,0.098884h5.538846l0.593438,0.148434l0.543996,0.519194l0.296733,0.59352l0.815981,0.618078l0.494527,1.137489l0.222543,1.310481l-0.049442,0.667628l-0.173101,0.420527l0.222543,0.568527l1.285814,0.544186l1.903973,0.445085l0.79126,0.469643l0.123632,0.445085l-0.049469,0.543969l-0.494527,0.865613l0.049442,0.741737l0.519275,0.964388l1.681431,0.741737l0.222543,0.271985l-0.049442,0.445085l-1.65671,1.186931l-0.14838,0.519302l-0.667628,0.519194l-2.324311,1.285814l-1.65671,1.755675l-0.642907,0.42031l-0.024721,0.197767h0.692349l0.93964,-0.741737l1.285787,-1.285814l1.384698,-0.593411l0.618186,-0.544078h0.469806l0.222543,0.271985l-0.049442,0.741845l-0.642907,0.692403l-1.66907,1.829783l-0.037081,0.537775l0.259624,0.445085l1.59488,0.723264l0.14838,0.29676l-0.185461,0.148326l-0.556357,-0.074217l-0.333814,-0.241015l-1.094159,-0.092799l-0.741818,0.20407l-0.333814,0.315233l0.092717,0.148326l0.667628,0.037163l0.482194,-0.092799l0.370895,0.185488l-0.018554,0.352395l-0.352341,0.908644l-0.500721,0.29676l-0.055636,0.203961l0.203988,0.092799l0.853089,-0.38945l0.370895,-0.649155l0.797454,-0.48214l1.131241,-0.370868l0.519275,-0.38945l0.018527,-0.408031l-0.760345,-0.760318v-0.38945l0.352368,-0.074217l0.296705,0.222543l0.38945,-0.09269l0.370923,-0.500721l-0.092744,-0.463667l0.204016,-0.370868h0.352341l0.593465,0.519194l0.407977,0.778899l1.502163,0.667628l0.593438,0.018581l-0.018527,-0.129853l-0.537802,-0.241015l-1.205458,-0.574938l-0.333814,-0.778899l-0.649074,-0.519302v-0.38945l0.859256,-0.679907l0.692349,-0.247318l0.247291,-0.346202l0.074163,-0.494527l0.296733,-0.247209l0.568717,0.247209l-0.024721,0.370977l-0.222543,0.271985l0.024721,0.370868l0.445085,0.445085l0.271985,0.395644l0.049469,0.494527l0.123632,0.197767l0.642907,-0.074108l0.71707,-0.741845l0.296733,-0.568744l0.420337,-0.074108l0.964361,0.494527l1.038523,1.038496l0.197822,1.038496l-0.395644,1.285814l-0.989054,1.261148l-0.049469,0.296651l0.321454,0.173101l0.395644,-0.173101l0.766512,0.098884l1.631962,0.544078l0.840729,0.593411l0.173101,-0.074217l-0.049442,-0.370868l-0.840729,-0.593411l-1.162155,-0.519302l-0.296705,-0.469861v-0.519194l0.222543,-1.01383l0.271985,-0.197767l0.914892,0.222543l1.211597,0.568636l0.692349,0.989163l0.173101,0.964279l0.395644,0.71707l1.310535,0.939613l0.86545,0.370977l0.074163,-0.148434l-1.335256,-0.989054l-0.618186,-0.692295l0.074163,-0.29676l0.420364,-0.049442l0.667628,0.346202l1.137434,1.162155l0.914892,0.346202l0.098938,-0.123659l-0.86545,-0.568744l-0.914892,-1.087938l-0.791287,-0.445085l-0.71707,-0.074217l-0.445085,-0.420419l-0.271985,-0.766512l-0.692349,-0.568744l-1.285814,-0.42031l-1.236318,-0.642853l0.049442,-0.272093l0.543969,-0.395535v-0.370977l-0.247264,-0.148326l0.098938,-0.247318l1.186876,-0.346093l0.420364,0.024667l0.197822,0.321426l-0.049442,0.791287l0.395589,0.642961l0.247264,0.074108l0.049496,-0.321426l-0.247264,-0.469752l0.123605,-0.59352l0.519248,-0.024667l1.780341,0.568636l1.211651,0.247318l1.211597,0.494527l0.519248,0.42031l0.86545,0.173101h1.458915l1.557799,0.445085l0.123605,-0.098884l-0.667628,-0.370868l-1.236318,-0.321426l-0.964334,-0.024775l-0.964388,-0.247318l-0.618186,-0.42031l-1.236318,-0.543969l-1.211597,-0.247318l-1.706179,-0.593411l-1.162155,-0.815954l-0.271985,-0.469861l0.160713,-0.741845l1.446527,-1.298093l1.965776,-0.778899l1.446527,-0.259706l1.038551,-0.445085l1.37231,-0.111163l3.301032,0.18538l1.261093,0.29676l0.593465,0.593411l0.556357,0.408031l2.262481,0.445085l0.667628,0.445085l0.074217,0.853008l-0.29676,0.333814l0.074217,0.185488l0.741791,-0.148326l0.14838,-0.259706l-0.222543,-0.296651l-0.002825,-0.370977l0.633345,-0.519194l1.557799,0.037054l2.967218,0.704682l0.704737,0.667628l0.111271,0.59352l1.186876,1.594853l0.037109,0.630574l-0.333814,0.704682l-1.298202,0.853117l-0.63052,0.037054l-1.372365,-0.259597l-1.631962,0.18538l-1.817396,0.816062l-0.667628,0.964279l-1.186931,0.927334l-0.222543,0.48214l0.185488,0.148326l0.48214,-0.593411l1.112713,-0.667628l0.482194,-0.741845l1.483582,-0.815954l1.335256,-0.185488l1.780341,0.185488l0.445085,0.222543l-0.111271,0.222543l-0.556357,0.222543l-1.038496,0.185488l-0.630574,0.556357l-0.148326,0.815954l-0.482194,1.075659l-0.890171,1.001442l-0.816008,0.222543l-0.185434,0.222543l0.296705,0.111271l0.853117,-0.111271l0.556357,-0.408031l0.815954,-1.038496l0.445085,-0.964388l0.111271,-0.667628l0.556357,-0.333814l1.075659,-0.185488l0.778899,-0.48214l0.48214,-0.778899l0.482194,-0.29676l0.853062,0.037163l2.039993,0.445085l1.446527,0.074108l0.815954,0.222543l0.667628,0.890171l-0.074163,0.667628l-0.556357,1.112713l-0.927279,0.445085l-0.927225,0.074217l-0.816008,0.29676l-0.63052,0.48214l-0.964334,0.445085l-0.630574,-0.037054l-0.778899,-0.074217l-1.186876,0.111271l-0.519248,0.185488l-0.074217,0.18538l0.370923,0.074217l0.741791,-0.111271l0.519302,-0.148326l0.667628,0.037054l0.296705,0.259597l-0.074163,0.259706l-1.298202,0.519194l-0.815954,0.667628l-0.482194,0.185488l-0.14838,0.259597l0.259651,0.037163l0.927279,-0.29676l0.741791,-0.556357l1.261093,-0.445085l0.704682,-0.593411l0.482194,-0.148434l0.445085,0.074217l0.037109,0.370868l-0.482194,0.667628l-0.890171,0.445085l-1.186876,0.259706l-0.408031,0.296651l0.037109,0.222543l0.259651,-0.074108l0.519248,-0.29676l0.741791,0.037054l0.29676,0.074217v0.259597l-0.222543,0.222543v0.259706l0.593411,0.222543l0.222543,0.333814l-0.148326,0.445085l-1.594907,1.520636l-0.370923,0.185488l-0.074163,0.222543l0.482194,0.074108l1.112713,-0.667628l1.075605,-1.261039l0.111271,-0.593411l-0.185434,-0.556357l-0.370923,-0.370868l0.074163,-0.482248l0.964334,-0.741737l0.333814,-0.630574l0.445085,-0.370868l0.890171,-0.29676l0.408031,-0.48214l0.556357,-0.148434l0.370868,0.148434l-0.148326,0.519194l-0.333814,0.482248l0.148326,0.18538l0.593465,-0.333814l0.445085,-1.001442l0.593465,-0.370868l1.261039,-0.074217l0.741845,0.185488l-0.037109,0.333814l-1.223985,0.927225l-1.038551,1.409473l-0.445085,1.261039l-0.222543,1.557799l-0.593411,0.853117h0.222543l0.593411,-0.482248l0.370923,-1.001333l0.445085,-1.446527l0.667628,-0.890171l0.593465,-0.370977l0.556357,0.148434l0.185434,0.48214l-0.222543,1.001442l0.259651,0.741845l0.333814,0.037054l0.074163,-0.333814l-0.222543,-0.333814l0.111271,-0.259597l0.445085,0.037054l0.519248,0.519302l-0.074163,0.445085l-0.704737,0.445085l-0.815954,1.001333l-0.482194,1.298202l0.037109,0.48214l-0.482194,0.370977l-0.074163,0.296651l0.445085,0.037163l0.593411,-0.482248l0.185488,-0.741737l0.556357,-1.298202l0.890171,-0.741737l0.556357,-0.037163l0.890116,0.48214l0.741845,0.074217l0.037054,0.259597l-1.075605,0.333814l-0.222543,0.408031l0.14838,0.556357l-0.445085,0.704682l-0.593465,0.370977l-0.222543,0.333814h0.370923l0.778899,-0.445085l0.556357,-1.038605l0.037054,-0.48214l0.482194,-0.29676l0.667628,-0.148326l0.259651,-0.704682v-0.704682l-0.185488,-0.408031l0.222543,-0.222543h0.964388l0.222543,-0.333814l-0.074217,-0.370868l-0.407977,-0.29676l0.074163,-0.259597l0.741845,-0.185488l0.556357,-0.519302l0.074163,-0.741737l0.259651,-0.259706l0.667628,0.037163l3.226869,0.853008l2.633404,1.001442l1.335256,0.890171l1.335256,1.594853l-0.037109,0.482248l-0.853062,0.927225l-0.778899,0.519302l-0.259651,0.667628l-0.482194,0.210155l-1.112713,-0.247318l-0.741791,-0.370868l-1.038496,0.111271l-0.853117,0.370868l-0.296705,0.890171l-0.445085,0.333814l-0.519248,0.074217l-0.259651,0.408031v0.296651l-0.407977,0.29676l-1.335256,0.333814l0.333814,0.148326l0.927225,-0.111271l0.778899,-0.296651l0.408031,0.18538v0.445085l-0.630574,0.741845l-0.185434,0.48214l-1.075605,0.556357h-0.556357l0.148326,0.259706l0.593465,0.074108l1.149822,-0.445085l0.556357,-0.890171l0.778899,-0.333814l1.37231,-0.148326l1.594907,-0.778899l1.483582,-0.222543l0.927279,-0.222543l0.482194,-0.630574l0.333814,-0.741737l0.556357,-0.333814l0.704682,-0.148434l0.853117,-0.630465l0.815954,-0.074217l0.853117,0.519302l0.370868,1.446527l-0.074163,0.48214l-1.038551,0.778899l-0.333814,0.815954l-1.038496,0.741845l-1.112713,0.370868l-0.408031,0.59352l-0.519248,0.222543l-0.816008,-0.074217l-0.815954,-0.148326l-0.630574,0.148326l-0.333814,0.630574l-0.63052,0.519194l-0.296705,0.59352v0.890171l-0.29676,0.667628h0.29676l0.48214,-0.667628l0.185488,-0.816062l0.370868,-0.556357l0.593465,-0.370868l0.259651,-0.445085l0.556357,-0.074217l1.186876,0.370977l0.074163,0.445085l-0.296705,1.001442l-0.333814,1.780341l-0.816008,1.298093l-0.185434,0.667628l0.370923,-0.111271l0.48214,-0.630465l0.667628,-1.298202l0.333814,-1.409473l0.853117,-1.85445l0.370868,-0.704791l0.704737,-0.370868l0.482194,-0.148326l1.409419,-0.816062l1.780341,-0.815954l1.409419,-0.259597l1.186876,-0.630574l0.519302,-0.074217l0.407977,0.185488l-0.074163,0.408031l-1.223985,1.149768l-0.890171,0.667628l-1.072128,0.371303l-0.856594,-0.000435l-0.445085,0.259706v0.630465l0.445085,0.408031l-0.037109,0.259597l-0.407977,0.185488l0.479423,0.111271l0.484911,-0.185488l0.037109,-0.519194l-0.482194,-0.408031l0.259651,-0.29676h1.446527l1.001442,-0.370868l1.335256,-0.853117l1.780341,-0.741737l1.483636,-0.111271l1.112659,0.407922l3.560683,1.48369l1.335256,0.333814l0.519302,0.407922v0.482248l-0.816008,1.223985l-0.333814,0.18538l-0.370923,-0.111271l-0.259597,-0.407922l-0.408031,-0.074217l-0.296705,0.370868l0.14838,0.519302l-0.370923,0.556357l-1.372365,0.333814l-3.412303,0.519302l-2.373752,1.335256l-0.556357,0.741737l-0.037109,0.445085l0.259651,0.370977l-0.111271,0.296651l-1.483636,0.148434l-1.335256,0.927225l0.407977,0.074217l1.149822,-0.556357l1.335256,-0.185488l0.556357,-0.29676l0.111271,-0.48214l-0.14838,-0.519302l0.370923,-0.704682l1.928721,-0.815954l3.375195,-0.370977l1.223985,0.148434l0.333814,0.259597l-0.074163,0.48214l-0.704737,1.075659l-0.778899,0.519302l-1.557799,0.333814l-1.112713,0.964279l-0.48214,0.778899l-0.408031,0.148434l-1.335256,-0.148434l-0.890171,0.185488l-0.704682,0.815954l-0.408031,0.853117l0.333814,-0.111271l0.556357,-0.741845l0.704737,-0.48214l0.927279,0.037054l1.038496,0.222543l0.778899,-0.445085l0.667628,-0.815954l1.372365,-0.630574l1.557799,-0.222543l1.483582,-0.964279l1.557799,-0.630574l0.482194,-0.445085l-0.14838,-0.259597l-0.48214,-0.111271l-0.185488,-0.59352l0.741845,-1.001442l1.001442,-0.333814l1.594853,0.445085l2.893055,2.002884l1.223985,1.66907l0.483226,1.984303l-0.067806,0.758579l-0.616719,0.259054l-1.059794,-0.034664l-1.557799,-0.445085l-1.706124,-0.222543l-1.446527,0.333814l-0.927279,0.667628l-0.259597,0.48214l-0.556357,0.29676l-1.780341,-0.259706l-1.186931,0.185488l-2.039938,0.927225l-1.112713,0.222543l-1.149822,-0.148326l-1.223985,-0.222543l-0.853062,0.037054l-0.667628,0.333814h-0.778899l0.296705,0.222543l0.816008,0.074217l0.556357,-0.222543h0.778899l1.223985,0.333814l1.149822,0.074217l1.631962,-0.222543l1.780341,-0.778899l1.261039,-0.037163l2.967272,1.112713l1.66907,0.333814l3.449357,-0.111271l2.002884,0.519302l1.724431,1.04708l0.83481,0.881587l0.077201,0.720594l-0.373906,0.577607l-0.556357,0.074217l-1.446527,-0.482248l-2.262535,0.037163l-0.890171,0.18538l-1.223985,-0.111271l-2.855946,-1.446527l-0.964334,-0.148326l-1.038551,0.111271l-1.891613,-0.222543l-1.446527,-0.445085l-0.964334,0.037054l-1.409419,0.778899l0.26714,0.043802l1.216442,-0.377616l1.075659,0.037163l1.298148,0.333814l1.891613,0.259597l1.075605,-0.111271l0.816008,0.29676l0.182935,0.224933l-0.195377,0.240472l-0.557932,0.00815l-1.58089,-0.139741l-1.038496,-0.222543l-2.002884,0.296651l0.593411,0.111271l1.149822,-0.111271l0.296705,0.185488l-0.667628,0.519302l-0.927225,0.18538l-0.530766,0.58048l-0.271115,0.813346l0.17253,0.049348l0.51808,-0.8126l1.409419,-0.445085l0.816008,-0.519302l0.964334,-0.074108l1.81745,0.48214l2.313064,1.14716l-0.086118,0.168439l-0.702615,-0.020548l-0.665563,0.147891l-0.049279,0.345006l-0.369727,0.024667l-0.961291,-0.295782l-1.08457,-0.172558l-0.739455,0.197224l-0.147891,0.197224l0.838012,-0.074l0.61623,0.197224l1.08457,0.221782l0.295782,0.172558v0.221891l0.41906,0.197224l0.098558,0.32034l-0.172503,0.123333l-1.355739,-0.419115l-1.404964,-0.147891l-0.394394,0.123333l1.478963,0.246449l0.985958,0.369673l1.183127,0.271224l0.887345,0.295782l-0.024612,0.172558h-0.61623l-2.489533,-0.542339l-0.813454,-0.246449l-1.232406,-0.074l-0.147891,0.172558l0.517618,0.246557l-0.024667,0.197115l-0.788788,0.074l-2.070473,-0.320448l-1.676133,-0.591564l-0.640897,-0.024667l-0.345061,0.172558l0.739455,0.024667l0.542285,0.246449l-0.19717,0.073891l-1.08457,-0.098558l-0.246503,0.049333l0.345115,0.197224l1.42963,0.073891l1.232461,0.246449l-0.024667,0.197224l-0.468339,0.147891l-0.073945,0.172558l0.640897,-0.024667l0.517618,-0.295782l2.489533,0.246449l2.292364,0.567006l0.39434,0.443673l-0.049279,0.221782l-0.369727,-0.049225l-0.320448,-0.221891l-0.419006,-0.024667l-0.320448,0.271224l-0.739455,0.049225l-1.183182,-0.295782l-0.912012,0.049333l-0.468339,0.369673l-0.320394,0.049333l-0.073945,0.172558l0.764121,-0.049333l0.345061,-0.221782l0.862733,-0.049333l0.468339,0.221891l-0.098612,0.221782l-0.936679,0.123224l-0.221836,0.147891l1.232461,0.024667l0.714788,-0.246449l2.415642,0.123224l0.566897,0.246449l0.101211,0.721525l-0.076544,0.535602l-0.220403,0.35524l0.072512,0.063767l0.345061,-0.295782l0.197224,-0.961237l0.246449,-0.246557h0.394394l0.640897,-0.246449l0.912012,0.123224l0.123224,0.246449l-0.665509,0.345115l-0.073945,0.295782l0.221836,0.320448l-0.073945,0.493006l0.109606,0.02308l0.159065,-0.29463l0.051778,-0.615796l0.172503,-0.172558l1.200372,-0.08006l0.791859,0.30932l-0.020316,0.263746l-0.499341,0.218793l0.055668,0.101547l1.133848,-0.049225l0.197224,-0.345115l-0.098612,-0.246449l0.172558,-0.123333l0.54223,0.394448l0.41906,0.024667l0.492952,-0.246557h0.640897l0.514825,0.279679l-0.037118,0.136101l-1.192549,0.126559l-0.39434,0.147891l-0.246503,0.468339l-0.41906,0.049225l-0.912012,-0.295782l-0.961291,-0.098558l-1.035236,0.295782l-0.542285,0.024667l-0.408887,0.172719l-0.940333,0.08661l-0.581522,0.420675l-0.061864,0.197965l0.148474,0.197965l0.118719,-0.01603l0.0545,-0.181934l0.364506,-0.261738l0.690176,-0.147891l0.591564,0.073891l-0.098558,0.419115l-0.246503,0.147891l-0.221836,0.246449l0.665509,-0.197224l0.147891,-0.39434l0.443673,-0.197224l0.246503,-0.39434l1.08457,-0.123224l1.207794,0.295782l-0.024667,0.197115l-0.936679,0.271115l-0.591564,0.542339l-0.037401,0.604904l0.160679,0.109884l0.123224,-0.468339l0.8134,-0.591564l0.961291,-0.098558l1.454297,0.517564l0.049333,0.246557l-0.443673,0.61623l-0.074,0.468339l-0.591564,0.54223l-0.09597,0.457898l-0.139194,0.22271l-0.343345,0.102076l0.046398,0.083516l0.581444,-0.102079l0.246449,-0.517673l0.665563,-0.665455l0.640843,-0.320448l0.295782,0.123224l-0.098558,0.862679l-0.295836,0.443781l-0.123224,0.345006l0.172558,0.320448l0.049279,-0.345115l0.41906,-0.54223l0.320394,-1.158461l0.369782,-0.123333l1.109182,0.172558l0.345061,0.172558l-0.221836,0.246557l-0.591564,0.049225l-0.19717,0.172558l0.443673,0.098558l0.764121,-0.172449l0.295782,0.024558l0.271115,0.567006l-0.073945,0.246449l-0.394394,0.024667l-0.517618,0.345115l-0.068132,0.45606l-0.278396,0.668171l-0.53821,0.11138l-0.723807,-0.278396l-0.5939,-0.018581l-0.259814,0.11138l0.705226,0.092799l0.334086,0.204179l0.091929,0.156584l-0.277526,0.270246l0.203581,0.000869l0.862679,-0.295782l0.369782,0.123224l0.011573,0.487138l0.160931,0.005868l0.172558,-0.566897l0.130505,-0.812259l0.389721,-0.64959l0.835459,-0.238951l0.468339,-0.320448l0.492952,-0.098666l0.096276,0.15691l-0.392058,0.410096l-0.049279,0.221782l0.246503,0.074l0.324795,0.500504l0.018527,0.259814l-0.241233,0.315559l-0.129961,0.445411l0.05569,0.42683l-0.259821,1.237277l-0.197965,0.556776l0.08661,0.049491l0.321693,-0.39593l0.366726,-1.399151l-0.024612,-0.493006l0.123224,-0.320448l0.961291,-0.443673l0.246503,-0.443673l-0.147891,-0.320448l0.073945,-0.246449l0.714842,-0.345115l0.936624,0.049333l0.320448,0.221782l-0.123224,0.69023l-0.813454,1.257018l0.049333,0.394448l1.059903,0.714788l0.45072,0.98131l0.098982,-0.012373l-0.197965,-0.866096l-0.228514,-0.373957l-0.798429,-0.529258l-0.024746,-0.22271l0.729995,-1.32389l0.457794,-0.259829l0.99107,-0.104568l0.78056,-0.673759l1.018823,-0.032865l1.31461,0.525844l-0.032865,0.295787l-1.511802,0.558709l-0.394383,0.657305v0.62444l-0.297721,0.400956l-0.523911,0.223484l-0.478286,0.945746l0.204151,0.278388l0.092796,-0.037118v-0.315506l0.296947,-0.575335l0.798046,-0.315506l0.556776,-0.538217l0.426862,0.037118l0.278388,0.371184l-0.148474,0.593894l-0.204151,0.148474l0.22271,0.037118l0.296947,-0.185592l0.204151,-1.039315l0.46398,-0.315506h0.965078l1.15067,0.668131l0.018559,0.315506l-0.296947,0.24127l-1.113552,0.185592l-0.24127,0.22271l0.204151,0.018559l0.296947,-0.148474l1.132111,-0.092796l0.389743,-0.296947l0.389743,0.018559l0.352625,0.334066l0.018559,0.371184l-0.296947,0.296947v0.148474l0.371184,0.018559l0.371184,-0.111355l0.296947,0.111355l0.092796,0.278388l-0.129914,0.649572l-0.334066,0.408302l-0.501098,0.092796l-0.22271,0.148474h-0.70525l0.278388,0.148474l0.612454,0.018559l0.426862,-0.148474l0.631013,-0.037118l0.46398,0.22271l0.315506,0.482539l0.037118,0.742368l-0.46398,0.334066l-0.983638,0.092796l-1.948716,-0.092796l-2.672525,-0.593894l-0.760927,0.167033l0.018559,0.092796l0.723809,-0.074237l2.635406,0.637199l1.398126,0.049491l0.037118,0.098982l-0.544403,0.371184l-0.717622,0.049491l-0.903214,-0.074237l-0.816605,0.173219l-0.655758,0.334066l-0.012373,0.136101l0.371184,-0.012373l0.952706,-0.30932h1.039315l0.878469,-0.037118l0.70525,-0.334066l1.051688,-0.197965l0.457794,0.061864l0.08661,0.148474l-0.136101,0.383557l-0.494912,0.160846l-0.680504,0.012373l-0.729995,0.148474l-0.544403,0.22271l-1.410499,0.247456l-0.581522,0.30932l-0.272202,0.420675l-0.136101,0.70525l-0.173219,0.39593l0.098982,0.111355l0.247456,-0.08661l0.334066,-0.556776l0.148474,-0.70525l0.507285,-0.30932l1.32389,-0.197965l1.138298,-0.358811l1.311517,-0.049491l0.742368,-0.53203h0.507285l0.30932,0.123728l1.472363,-0.136101l0.30932,0.08661l0.08661,0.136101l-0.136101,0.655758l-0.680504,0.717622l-0.866096,0.247456l-0.606267,0.507285l-0.012373,0.631013l0.123728,0.371184l0.061864,-0.024746l-0.037118,-0.420675l0.136101,-0.507285l0.53203,-0.371184l1.002197,-0.22271l0.767114,-0.915587l0.136101,-0.655758l0.692877,-1.01457l0.334066,-0.024746l0.247456,0.111355l-0.037118,0.148474l-0.482539,0.334066l0.012373,0.098982l0.420675,-0.123728l0.30932,-0.259829l-0.012373,-0.371184l0.259829,-0.235083l0.494912,0.074237l0.470166,0.482539l0.185592,0.433048l-0.148474,0.470166l-0.482539,0.433048l-1.212534,0.247456l-0.22271,0.210338l-0.049491,0.321693l0.371184,0.965078l-0.123728,0.346438l-0.866096,0.22271l-0.853723,0.136101l-0.358811,0.321693l-0.111355,0.445421l-0.30932,0.30932l-0.655758,0.08661l-0.39593,-0.024746l-0.136101,0.074237l0.284574,0.123728l0.779486,0.024746l0.593894,-0.160846l0.334066,-0.346438l0.074237,-0.39593l0.173219,-0.185592l0.185592,0.024746l0.160846,0.235083l0.049491,0.791859l-0.123728,0.569149l-0.148474,0.259829l0.037118,0.111355h0.247456l0.197965,-0.284574l0.148474,-0.569149l0.123728,-0.111355l0.049491,-0.247456l-0.210338,-0.383557l0.08661,-0.235083l0.717622,-0.074237l0.321693,-0.160846l0.235083,-0.334066l0.210338,-0.024746l0.61864,0.111355l0.358811,-0.123728l0.061864,-0.197965l0.581522,-0.08661l0.123728,0.074237l0.012373,0.136101l-0.074237,0.22271l0.024746,0.556776l0.173219,0.197965v0.569149l-0.284574,0.742368v0.507285l-0.098982,0.247456l-0.197965,0.123728v0.061864l0.259829,0.012373l0.22271,-0.148474l0.111355,-0.358811l0.024746,-0.408302l0.235083,-0.346438l0.272202,-0.074237l0.037118,-0.173219l-0.185592,-0.296947l0.012373,-0.247456l0.136101,-0.197965v-0.197965l-0.185592,-0.346438l0.049491,-0.247456l0.358811,-0.173219l0.828978,-0.012373l0.235083,0.123728l0.371184,0.92796l0.296947,0.30932l0.148474,0.024746l0.123728,0.123728l0.024746,0.210338l0.30932,0.39593l0.197965,0.098982l0.098982,-0.08661l-0.074237,-0.247456l-0.371184,-0.53203l-0.259829,-0.210338l-0.173219,-0.53203l0.148474,-0.272202l0.643386,-0.074237l0.334066,-0.259829l0.074237,-0.346438l-0.136101,-0.334066l0.098982,-0.173219l0.606267,-0.173219l1.026942,-0.08661l0.296947,0.160846l0.012373,0.160846l-0.358811,0.160846l-0.123728,0.371184l-0.012373,0.284574l-0.136101,0.259829l-0.197965,0.074237l-0.024746,0.098982l0.284574,0.049491l0.346438,-0.136101l0.22271,-0.321693l0.668131,-0.210338l0.197965,0.012373l0.53203,0.334066l0.074237,0.22271l-0.148474,0.210338l-0.92796,-0.024746l-0.519658,0.160846l-0.074237,0.173219l0.123728,0.024746l0.259829,-0.185592l0.816605,0.024746l1.274398,0.160846l0.098982,0.08661l-0.111355,0.197965l-0.39593,0.160846l-0.334066,-0.049491l-0.148474,0.08661l0.247456,0.037118l0.235083,0.08661l0.494912,-0.024746l0.482539,-0.074237l0.371184,0.173219l0.643386,0.606267l0.655758,0.828978l0.024746,0.445421l-0.420675,0.593894l-0.457794,0.037118l-0.346438,0.235083l-0.53203,0.024746l-0.433048,-0.210338l-0.210338,-0.470166l-0.61864,-0.420675l-0.544403,-0.024746l-0.544403,-0.136101l-0.296947,-0.148474l-0.30932,0.012373l-0.470166,0.408302l-0.321693,0.061864l-0.383557,-0.074237l-0.207244,0.023199l0.074237,0.051038l0.180952,0.013919l0.366544,0.176312h0.46862l0.320146,-0.320146l0.334066,-0.00464l0.392836,0.115995l0.451607,0.043305l0.364998,0.204151l0.544403,0.61864l0.105169,0.259829l0.278388,0.185592l0.334066,0.074237l0.08661,0.142287l-0.111355,0.247456l-0.915587,0.358811h-0.68669l-0.835164,0.278388v0.148474h0.426862l0.334066,-0.129914l1.057874,-0.018559l0.760927,0.148474l0.482539,0.296947l-0.055678,0.352625l-0.593894,0.278388l-1.057874,0.055678l-0.68669,0.352625l-0.612454,0.018559l-0.445421,-0.315506l-0.371184,-0.018559l-0.334066,0.111355l-0.46398,-0.185592l-0.185592,-0.575335l-0.68669,-0.278388l-1.63321,-0.22271l-0.092796,0.129914l0.24127,0.185592l0.482539,0.055678l0.890842,0.68669l0.018559,0.315506l-0.581522,0.433048l-1.422872,0.439234l-0.426862,-0.111355l-0.426862,-0.371184l-0.074237,-0.519658l-0.148474,-0.055678l-0.129914,0.296947l0.148474,0.482539l0.556776,0.501098l0.631013,0.148474l0.519658,-0.296947l0.371184,0.037118l0.501098,0.315506l1.243466,0.296947l0.600081,0.037118l0.61864,0.371184l0.507285,0.779486l-0.092796,0.22271l-0.649572,0.129914l-0.872282,-0.018559l-0.501098,0.278388l-0.389743,-0.018559l-0.371184,-0.22271l-0.853723,-0.315506l-1.039315,-0.074237l-0.278388,0.037118l-0.445421,-0.129914l-0.426862,-0.389743l-0.185592,-0.46398l-0.408302,-0.129914l-0.006186,0.092796l0.303134,0.204151l0.129914,0.593894l0.46398,0.371184l0.538217,0.092796l0.334066,-0.037118l0.977451,0.123728l0.767114,0.340252l0.352625,0.575335l0.111355,0.835164l0.278388,0.22271l-0.074237,0.129914l-0.853723,0.129914l-1.317703,-0.278388l-0.965078,-0.556776l-0.296947,-0.482539l-0.148474,-0.037118l0.074237,0.426862l0.631013,0.668131l0.890842,0.334066l0.334066,0.371184l0.06805,0.290761l-0.08661,0.358811l-0.247456,0.061864l-0.668131,-0.30932l-0.742368,-0.111355l-0.111355,0.061864l0.371184,0.358811l0.544403,0.074237l0.457794,0.247456l0.185592,0.334066l-0.210338,0.519658l-0.123728,0.024746l-0.08661,-0.272202h-0.160846l-0.30932,0.30932l-0.284574,-0.024746l-0.519658,-0.420675l-0.08661,-0.791859l-0.123728,-0.30932l-0.272202,-0.074237l-0.098982,0.08661l0.197965,0.160846l0.061864,0.92796l-0.210338,0.433048l-0.210338,0.08661l-0.247456,-0.136101l-0.111355,-0.272202l-0.866096,-0.247456l-0.321693,0.136101l-0.148474,-0.08661l0.012373,-0.296947l-0.197965,-0.235083l-0.383557,-0.235083l-0.482539,-1.175416l-0.544403,-0.890842l-0.247456,-0.123728l-0.08661,0.074237l0.049491,0.556776l0.284574,0.284574l0.631013,1.32389l0.160846,0.457794l-0.098982,0.08661l-0.668131,-0.173219l-0.791859,0.074237l-0.061864,0.148474l0.358811,0.197965l0.729995,0.049491l0.544403,0.210338l0.061864,0.39593l-0.30932,0.482539l-0.556776,0.024746l-0.358811,-0.247456l-0.061864,-0.30932l-0.247456,-0.148474l-0.111355,0.061864l0.012373,0.457794l0.383557,0.482539l0.235083,0.098982l0.346438,-0.049491l0.606267,0.30932l0.061864,0.160846l-0.358811,0.111355l-0.408302,-0.012373l-0.22271,-0.185592l-0.445421,-0.111355l-0.334066,0.012373l-0.037118,0.136101l0.989824,0.53203l0.024746,0.123728l-0.296947,0.111355l-0.012373,0.22271l0.915587,0.470166l0.321693,0.84135l-0.061864,0.22271l-0.53203,0.049491l-0.259829,0.197965l-0.049491,0.173219l0.726902,0.204151l-0.046398,0.129914l-0.426862,0.250549l-0.037118,0.120635l0.306227,0.22271l-0.018559,0.204151l-0.213431,0.194872l-0.259829,0.00928l-0.111355,0.111355l0.027839,0.194872l-0.102076,0.018559l-0.185592,-0.204151l-0.129914,-0.380464l-0.204151,-0.111355l-0.037118,0.074237l0.092796,0.120635l-0.037118,0.278388l0.194872,0.603174l-0.120635,0.556776l-0.083516,0.083516l-0.352625,-0.083516l-0.371184,-0.22271l0.00928,-0.306227l0.250549,-0.324786l-0.027839,-0.092796l-0.111355,-0.00928l-0.3991,0.289988h-0.315516l-0.519571,-0.141514l-0.055678,-0.111355l0.129914,-0.148474l0.4547,-0.250549l-0.030932,-0.092796l-0.111355,-0.024746l-0.470166,0.123728l-0.22271,-0.136101l-0.074237,-0.457794l0.098982,-0.358811l0.334066,-0.358811l0.061864,-0.210338l-0.123728,-0.012373l-0.519658,0.433048l-0.136101,0.334066l-0.148474,0.049491l-0.655758,-0.235083l-0.136101,0.037118l-0.111355,0.581522l-0.160846,0.074237l-0.235083,-0.061864l-0.569149,-0.581522l0.08661,-0.53203l-0.148474,-0.049491l-0.371184,0.210338l-0.160846,-0.024746l-0.272202,-0.284574l-0.160846,-0.692877l0.049491,-0.507285l0.445421,-0.519658l0.346438,-0.235083l0.037118,-0.173219l-0.123728,-0.037118l-0.346438,0.098982l-0.729995,0.828978l-0.136101,0.470166l0.098982,0.593894l-0.074237,0.408302l-0.494912,0.631013h-0.185592l-0.383557,-0.445421l-0.510378,-0.290761l-0.129914,-0.4547l0.102076,-0.23199l-0.064957,-0.148474l-0.23199,-0.018559l-0.24127,0.129914h-0.278388l-0.528937,-0.436141l0.064957,-0.306227l0.501098,-0.139194l0.436141,-0.00928l0.018559,-0.102076l-0.399023,-0.092796l-0.556776,0.092796l-0.018559,-0.083516l0.748554,-0.30932l0.70525,-0.136101l0.457794,-0.321693h1.064061l0.173219,-0.136101l0.074237,-0.30932l-0.049491,-0.136101l-0.160846,0.024746l-0.037118,0.284574l-0.123728,0.098982l-0.408302,-0.111355l-0.53203,0.024746l-0.519658,0.272202l-0.853723,0.074237l-0.383557,-0.024746l-0.569149,0.123728l-0.284574,0.284574l-0.334066,0.012373l-0.420675,-0.296947l-0.197965,-0.606267l0.173219,-0.30932l0.903214,-0.247456l0.92796,-0.717622l0.247456,-0.581522l0.272202,-0.098982l-0.123728,-0.074237l-0.420675,0.049491l-0.272202,0.544403l-0.903214,0.680504h-0.754741l-0.507285,-0.197965l-0.53203,-0.037118l-0.136101,-0.173219l0.30932,-0.754741l0.816605,-0.358811l0.878469,-0.371184l1.051688,-0.074237l0.173219,-0.123728l-0.111355,-0.061864h-1.361008l-1.002197,0.383557l-0.997557,0.044368l-0.665521,-0.172543l-0.049298,-0.246489l0.46833,-0.566926l0.024649,-0.22184h-0.246489l-0.246489,0.295787l-0.271138,0.098596v-0.197192l0.788766,-1.478936l0.492979,-0.271138l1.232447,-0.345085l0.517628,-0.320436l0.591575,-0.073947l0.714819,-0.295787l0.369734,-0.517628l0.197192,-1.010606l0.714819,-0.764117l1.1585,-0.566926l0.739468,-0.197192v-0.172543l-0.665521,-0.024649l-1.306394,0.542277l-1.059904,0.985958l-0.345085,1.010606l-0.566926,0.345085l-0.591575,0.049298l-2.464894,0.912011l-1.552883,-0.024649l-1.257096,0.295787l-0.665521,-0.098596l-0.123245,-0.22184l0.098596,-0.616223l0.739468,-0.640872l1.454287,-0.714819l0.665521,-0.739468l0.369734,-1.183149l-0.098596,-0.714819l-0.172543,-0.123245v0.714819l-0.492979,1.232447l-1.774724,1.1585l-1.257096,0.197192l-0.665521,-0.246489l-0.838064,-0.985958l-0.325269,-0.178922l-0.493099,-0.071692l-0.093643,0.078072l0.116575,0.216331l-0.098982,0.185592l-0.288731,0.140354l-0.566926,-0.246489v-0.492979l0.246489,-0.22184l-0.172543,-0.419032l-1.257096,-0.714819l-0.443681,-0.591575l0.024649,-0.295787l-0.208501,-0.368574l-0.074237,-0.593894l0.296947,-0.426862l-0.185592,-0.129914l-0.389743,0.018559l-1.224907,-0.631013l-0.816605,-0.204151l0.037118,0.129914l0.835164,0.296947l0.909401,0.538217l-0.092796,0.185592l-0.890842,0.334066l-0.92796,-0.074237l-0.983638,-0.575335l-1.206348,-0.037118l-0.408302,0.204151l-1.039315,-0.055678l-1.16923,-0.389743l0.109279,0.127595l1.022832,0.447741l1.410499,0.167033l0.556776,-0.074237l0.593894,0.092796l0.46398,0.278388l0.204151,0.371184l0.668131,0.408302l0.111355,0.575335l-0.074623,1.348635l-0.525844,0.394383l-0.953092,-0.262922l-1.150284,-1.117419l-1.610397,-0.591575l-0.525844,-0.558709l-0.394383,-0.032865v0.230057l1.150284,1.281745l0.230057,0.788766l-0.032865,0.427248l0.460114,0.460114l2.169107,0.920227l0.985958,0.854497l-0.032865,0.262922l-0.328653,0.295787l0.032865,0.427248l-0.394383,0.197192l-1.478936,0.197192l-0.558709,-0.098596l-0.591575,0.032865l-0.427248,0.230057l-0.558709,-0.065731l-0.879145,-0.566926l-0.304004,-0.616223l-0.328653,-0.032865l-0.525844,0.361518l-0.098596,0.657305l0.22184,0.838064l0.739468,0.394383l0.985958,-0.295787l0.271138,0.098596l0.073947,0.295787l-0.22184,0.22184l-0.492979,0.073947l-0.295787,0.271138v0.197192l0.517628,0.22184l0.123245,0.369734l-0.46833,0.566926l-0.172543,0.591575l0.172543,-0.049298l0.492979,-0.591575l0.492979,-0.345085l1.183149,-0.419032l1.355692,-0.049298l0.912011,0.320436l0.22184,0.517628l-0.517628,1.010606l0.049298,0.443681l0.492979,0.246489h1.035255l0.172543,0.295787l-0.271138,0.93666l0.049298,0.764117l0.714819,0.517628l0.197192,0.46833l0.073947,0.887362l0.369734,0.443681l0.492979,0.049298l0.542277,0.369734l0.098596,0.838064l-0.172543,0.640872l0.443681,0.788766l0.128464,0.017399l0.044078,-0.337835l-0.172543,-0.419032l0.295787,-0.93666l-0.246489,-0.788766l0.271138,-0.197192l1.010606,0.443681l0.369734,0.616223l1.675548,0.543147l0.123825,0.344215l-0.345085,0.69017l0.123245,0.640872l0.197192,0.049298l0.216331,-0.815155l0.501098,-0.556776l0.268528,0.114835l0.024649,0.517628l0.46833,0.419032l0.295787,-0.098596l0.049298,-0.295787l-0.419032,-0.591575l0.098596,-0.369734l0.714819,-0.073947l0.862713,0.369734l0.847054,0.91781l0.064957,0.709019l-0.197192,0.788766l-0.777167,0.655082l-0.23344,0.799206l0.22184,0.271138l0.69017,-0.147894l0.640872,0.147894l0.665521,-0.123245l0.147894,-0.345085h0.271138l0.073947,0.295787h0.197192l0.123245,-0.419032l0.394383,-0.024649l0.788766,0.591575l0.147894,0.591575l-0.147894,0.369734l-0.46833,0.147894l-0.123245,0.345085l0.123245,0.345085l-0.22184,0.369734l-0.739468,0.098596l-0.838064,-0.394383l-0.887362,-0.049298l-0.443681,0.246489l0.062637,0.094536l0.482539,-0.092796l0.612454,0.074237l0.204151,0.352625l0.259829,0.204151l0.334066,-0.018559l0.482539,0.352625l0.148474,0.426862l1.262026,1.224907v0.22271l-0.389743,0.204151h-0.445421l-0.037118,0.111355l0.296947,0.148474l1.948716,-0.055678l0.816605,-0.167033l0.46398,0.148474l0.129914,0.278388l-0.129914,0.22271l-1.206348,0.593894l-0.612454,0.575335l-0.148474,0.408302l0.24127,0.501098l0.631013,0.148474l0.296947,0.185592l0.259829,0.018559l0.22271,-0.148474l0.204151,0.037118l0.853723,0.649572l0.278227,0.347985l-0.055517,0.375824l-0.278388,0.148474l-0.018559,0.185592l0.334066,0.556776l0.185592,1.020756l-0.111355,0.334066l-0.315506,0.22271l0.037118,0.129914l0.204151,0.204151l0.111355,0.445421l-0.22271,0.167033v0.167033l0.22271,0.148474l-0.074237,0.185592l-0.24127,0.092796l-0.167033,-0.111355l-0.185592,0.018559l-0.074237,0.259829l-0.24127,-0.037118l-0.692877,-0.810418l-0.205964,-0.370949l-0.23327,-1.064295l-0.426862,-1.076434l-0.315506,-0.167033l-0.167033,-0.296947l-0.185592,-0.575335l-0.612454,-0.371184l-0.24127,-0.538217l-0.816605,-0.742368l-0.426862,-0.055678l-0.129914,0.074237l0.46398,0.185592l0.70525,0.668131l0.204151,0.519658l0.612454,0.408302l0.148474,0.352625l-0.129914,0.22271l-0.371184,0.148474l-0.167033,0.259829l0.167033,0.501098l0.24127,0.185592l0.018559,0.22271l-0.129914,0.167033l0.037118,0.296947l0.334066,0.259829l0.501098,0.760927l0.074237,0.742368l-0.148474,0.018559l-0.371184,-0.46398l-0.204151,-0.018559l-0.037118,0.167033l0.111355,0.408302l0.259829,0.22271l0.018559,0.167033l-0.22271,0.092796l0.055678,0.148474l0.46398,0.037118l0.890842,0.408302l0.129914,0.46398l-0.111355,0.779486l0.018559,0.519658l0.204151,0.167033l0.371184,0.018559l0.352625,0.296947l-0.037118,0.167033l-0.426862,0.074237l-0.22271,0.148474l-0.092796,0.408302l-0.24127,0.074237l-0.408302,-0.111355l-0.593894,-0.556776l-0.965078,-0.445421l-0.426862,0.018559l-0.296947,0.371184l0.394383,0.574175l0.920227,0.821631l0.723036,1.150284l0.098596,0.591575l-0.62444,0.394383l-1.380341,-0.361518l-0.723036,-0.62444l-0.394383,-0.887362l0.098596,-1.741858h-0.230057l-0.262922,0.427248l-0.788766,0.164326l-0.755901,-0.361518l-0.811578,-0.895481l-0.141514,0.040985l0.07965,0.404436l-0.148474,0.074237l-0.494912,-0.148474l-0.482539,-0.30932Z M669.987419,262.008932l0.204151,-0.092796l0.334066,0.167033l0.129914,0.334066l-0.111355,0.129914l-0.371184,-0.037118l-0.148474,-0.259829l-0.037118,-0.24127Z M663.046278,261.730544l0.092612,-0.22735l0.612638,-0.143834l0.25967,0.143834l0.055837,0.450061l-0.389743,0.352625l-0.259829,-0.129914l-0.371184,-0.445421Z M668.038703,262.974011l0.24127,-0.037118l0.22271,0.167033l-0.037118,0.259829l-0.259829,0.092796l-0.24127,-0.185592l0.074237,-0.296947Z M668.484124,264.254595l0.24127,-0.018559l0.315506,0.24127v0.22271l-0.296947,-0.018559l-0.24127,-0.167033l-0.018559,-0.259829Z M667.191166,265.68984l0.136101,0.074237l0.408302,0.30932l0.185592,0.346438l-0.08661,0.061864l-0.346438,-0.160846l-0.383557,-0.53203l0.08661,-0.098982Z M667.747942,265.962042l-0.210338,-0.321693l0.098982,-0.037118l0.346438,0.272202l0.22271,0.296947l-0.08661,0.098982l-0.371184,-0.30932Z M667.735569,265.281538l0.08661,-0.08661l0.358811,0.173219l0.556776,0.754741l0.383557,0.284574l-0.037118,0.098982l-0.346438,-0.074237l-0.53203,-0.61864l-0.39593,-0.334066l-0.074237,-0.197965Z M669.170814,266.08577l0.123728,-0.08661l0.321693,0.098982l0.420675,0.420675l-0.012373,0.160846l-0.210338,0.024746l-0.470166,-0.321693l-0.173219,-0.296947Z M669.071832,265.739332l0.136101,-0.111355l0.346438,-0.061864l0.098982,0.08661l-0.037118,0.136101l-0.272202,0.037118h-0.197965l-0.074237,-0.08661Z M671.719611,264.873235l0.123728,-0.061864l0.346438,0.284574l0.173219,0.383557l-0.136101,0.061864l-0.284574,-0.197965l-0.22271,-0.470166Z M668.329464,263.871039l0.024746,-0.111355l0.111355,-0.012373l0.210338,0.197965l-0.012373,0.111355l-0.123728,-0.012373l-0.210338,-0.173219Z M668.935731,265.207301l0.074237,-0.08661l0.160846,0.037118l0.160846,0.160846l-0.061864,0.08661l-0.259829,-0.074237l-0.074237,-0.123728Z M683.981056,251.448747l0.593894,-0.352625l0.296947,-0.556776l0.816605,-0.742368l0.575335,-0.055678l0.445421,0.259829l0.22271,0.519658l-0.148474,0.334066l-0.835164,0.445421l-0.259829,0.352625l-0.668131,0.46398l-0.668131,-0.055678l-0.445421,0.092796l-0.129914,-0.111355l0.204151,-0.593894Z M686.89485,251.61578l0.055678,-0.185592l0.538217,-0.037118l0.426862,0.259829l-0.204151,0.167033l-0.556776,-0.055678l-0.259829,-0.148474Z M688.101199,252.265352l0.24127,0.111355l0.074237,0.259829l-0.129914,0.092796l-0.22271,-0.092796l-0.055678,-0.185592l0.092796,-0.185592Z M689.864323,266.01772l0.092796,-0.167033l0.259829,0.037118l0.24127,0.296947l-0.018559,0.185592l-0.148474,0.055678l-0.315506,-0.148474l-0.111355,-0.259829Z M687.952725,262.980197l-0.037118,-0.235083l0.111355,-0.08661l0.148474,0.123728l0.049491,0.321693l-0.111355,0.037118l-0.160846,-0.160846Z M688.274418,262.633759l0.148474,-0.098982l0.30932,0.160846l0.358811,0.519658l0.259829,0.84135l-0.012373,0.334066h-0.160846l-0.53203,-0.39593l-0.259829,-0.556776l0.012373,-0.457794l-0.123728,-0.346438Z M688.231113,256.663883h0.426862l0.426862,0.185592l-0.018559,0.148474l-0.519658,0.092796l-0.426862,-0.055678l-0.092796,-0.185592l0.204151,-0.185592Z M687.043324,255.309061l0.853723,0.371184l0.129914,0.259829l-0.22271,0.204151l-0.371184,-0.018559l-0.519658,-0.371184l-0.092796,-0.315506l0.22271,-0.129914Z M690.959315,256.329817l0.167033,-0.129914l0.352625,0.018559l0.68669,0.22271l-0.037118,0.148474l-0.46398,0.167033l-0.371184,-0.018559l-0.334066,-0.408302Z M687.989843,253.972798l0.334066,0.037118l0.092796,0.315506l0.352625,0.538217v0.46398l-0.408302,0.278388l-0.296947,-0.074237l-0.334066,-0.519658l-0.037118,-0.835164l0.296947,-0.204151Z M688.657975,253.453141l0.24127,-0.092796l0.575335,0.334066l0.129914,0.519658l-0.204151,0.278388l-0.204151,0.037118l-0.315506,-0.259829l-0.278388,-0.556776l0.055678,-0.259829Z M688.30535,256.069988l0.129914,-0.22271l0.204151,-0.111355l0.129914,0.074237v0.24127l-0.185592,0.111355l-0.278388,-0.092796Z M689.140514,255.309061l0.148474,-0.148474l0.278388,0.074237l0.408302,0.371184l-0.148474,0.092796l-0.538217,-0.185592l-0.148474,-0.204151Z M689.827204,255.216265l0.092796,-0.167033l0.185592,-0.018559l0.22271,0.167033l0.074237,0.22271l-0.204151,0.018559l-0.371184,-0.22271Z M690.606691,255.309061l0.111355,-0.129914h0.334066l0.556776,0.204151l-0.074237,0.148474l-0.501098,0.111355l-0.371184,-0.148474l-0.055678,-0.185592Z M690.959315,254.548134l0.129914,-0.111355l0.185592,0.074237l0.129914,0.24127l-0.129914,0.018559l-0.24127,-0.092796l-0.074237,-0.129914Z M693.594722,261.916136l0.167033,-0.092796l0.278388,0.167033l0.389743,0.723809l-0.074237,0.22271l-0.22271,0.018559l-0.389743,-0.296947l-0.148474,-0.742368Z M694.745392,261.749103h0.278388l0.315506,0.204151l-0.129914,0.538217l-0.296947,0.018559l-0.352625,-0.408302v-0.22271l0.185592,-0.129914Z M691.701683,261.971814l0.111355,-0.24127l0.445252,-0.22735h0.278395l0.25999,0.264469l0.018559,0.24127l-0.092796,0.24127l0.037118,0.259829l0.389743,0.519658l0.24127,1.057874l0.519658,0.649572l0.445421,0.296947l0.24127,0.501098l-0.148474,0.037118l-0.760927,-0.22271l-1.094993,-0.835164l-0.352625,-1.113552l-0.018559,-0.445421l-0.204151,-0.482539l-0.24127,-0.167033l-0.074237,-0.334066Z M688.973481,260.078775l-0.129914,-0.278388l0.148474,-0.334066l0.371184,-0.185592l0.389743,0.129914l0.24127,-0.111355l0.167033,-0.352625l0.389743,-0.167033l0.519658,0.167033l0.278388,0.519658l-0.092796,0.556776l0.148474,0.259829l0.204151,0.018559l0.167033,-0.185592l0.278388,0.055678l0.334066,0.556776l-0.018559,0.445421l-0.296947,0.185592l-0.315506,-0.074237l-0.315506,-0.408302l-0.668131,-0.352625l-0.204151,-0.259829l-0.296947,-0.037118l-0.259829,0.167033l-0.259829,-0.037118l-0.371184,-0.148474l-0.408302,-0.129914Z M694.114379,263.116298l0.136101,-0.037118l0.148474,0.08661l0.012373,0.210338l-0.111355,0.049491l-0.185592,-0.173219v-0.136101Z M692.914218,262.460539l-0.012373,-0.235083l0.148474,-0.061864l0.148474,0.037118l0.284574,0.433048l-0.012373,0.235083l-0.111355,-0.012373l-0.321693,-0.259829l-0.123728,-0.136101Z M693.532858,261.111904l0.098982,-0.272202l0.284574,-0.259829l0.334066,-0.074237l0.457794,0.173219l0.123728,0.482539l-0.197965,0.037118l-0.284574,-0.111355l-0.358811,0.098982l-0.173219,0.148474l-0.185592,-0.037118l-0.098982,-0.185592Z M692.580152,260.82733l-0.136101,-0.408302l0.037118,-0.433048l0.160846,-0.037118l0.358811,0.185592l0.235083,0.358811l-0.061864,0.358811l-0.210338,0.123728l-0.259829,-0.061864l-0.123728,-0.08661Z M693.347266,260.641738l0.074237,-0.123728l0.160846,-0.08661l0.098982,0.012373l-0.012373,0.123728l-0.185592,0.148474l-0.136101,-0.074237Z M693.891669,259.924115l0.049491,-0.185592l0.185592,-0.024746l0.197965,0.123728v0.111355l-0.247456,0.037118l-0.185592,-0.061864Z M693.136928,260.060216l-0.668131,-0.371184l-0.08661,-0.160846l0.098982,-0.123728l0.791859,0.037118l0.408302,0.259829l0.037118,0.197965l-0.136101,0.346438l-0.235083,0.074237l-0.210338,-0.259829Z M693.582349,259.342594l0.123728,-0.074237l0.111355,0.049491v0.160846l-0.148474,0.074237l-0.111355,-0.074237l0.024746,-0.136101Z M693.334893,258.624971l0.160846,-0.074237l0.136101,0.061864l-0.061864,0.296947l-0.160846,0.136101l-0.160846,-0.061864l0.08661,-0.358811Z M693.186419,261.841899l-0.148474,-0.247456l-0.024746,-0.235083l0.08661,-0.049491l0.110316,0.193325l0.075276,0.252096l-0.098982,0.08661Z M695.388778,264.118495l-0.111355,-0.210338l0.012373,-0.136101l0.08661,-0.049491l0.074237,0.111355l0.012373,0.197965l-0.074237,0.08661Z M687.468446,273.186791l0.174959,-0.122761l0.631013,0.123728l0.049491,0.148474l-0.160846,0.160846l-0.606267,-0.185592l-0.08835,-0.124695Z M692.629643,273.212503l-0.160846,-0.321693l0.08661,-0.148474l0.160846,-0.012373l0.197965,0.160846l-0.037118,0.22271l-0.111355,0.123728l-0.136101,-0.024746Z M693.136928,272.878437l0.123728,-0.08661l0.39593,0.024746l0.346438,0.173219l-0.08661,0.098982l-0.383557,-0.012373l-0.321693,-0.098982l-0.074237,-0.098982Z M688.756957,273.50945l0.606267,-0.643386l0.371184,-0.185592l0.321693,0.049491l0.148474,0.197965l0.30932,0.024746l0.791859,-0.210338l0.92796,0.272202l0.160846,0.272202l-0.061864,0.123728l-0.358811,0.024746l-0.037118,0.136101l0.296947,0.08661l-0.074237,0.259829l-0.816605,0.680504l-0.791859,0.148474l-0.692877,-0.123728l-0.259829,-0.272202l-0.717622,-0.235083l-0.173219,-0.235083l0.049491,-0.371184Z M692.406933,273.942498l0.037118,-0.160846l0.148474,-0.08661h0.173219l0.037118,0.136101l-0.08661,0.148474l-0.160846,0.024746l-0.148474,-0.061864Z M681.432259,268.47372l0.08661,-0.049491l0.185592,0.037118l0.049491,0.111355l-0.08661,0.074237l-0.148474,-0.037118l-0.08661,-0.136101Z M681.098194,268.95626l0.08661,-0.098982l0.136101,0.024746l0.235083,0.197965l-0.098982,0.037118l-0.284574,-0.074237l-0.074237,-0.08661Z M684.909016,270.354386l0.098982,-0.061864l0.098982,0.049491l-0.012373,0.123728l-0.08661,0.049491l-0.111355,-0.074237l0.012373,-0.08661Z M687.272221,269.414053l0.123728,-0.074237l0.123728,0.061864l-0.012373,0.123728l-0.136101,0.012373l-0.098982,-0.123728Z M687.717642,269.376935l0.111355,-0.074237l0.284574,0.111355v0.111355l-0.111355,0.049491l-0.210338,-0.08661l-0.074237,-0.111355Z M674.491118,265.838314l0.08661,-0.049491l0.185592,0.049491l0.098982,0.22271l-0.08661,0.061864l-0.22271,-0.148474l-0.061864,-0.136101Z M677.782283,269.067615l0.111355,-0.074237l0.284574,0.061864l0.84135,0.494912l0.061864,0.173219l-0.160846,0.024746l-0.742368,-0.284574l-0.39593,-0.39593Z M674.689083,267.162204l0.024746,-0.08661l0.420675,0.136101l0.779486,0.643386l0.160846,0.371184l-0.148474,0.024746l-0.593894,-0.457794l-0.334066,-0.433048l-0.30932,-0.197965Z M645.025294,267.261186l0.204151,-0.024746l0.22271,0.098982l0.024746,0.136101l-0.08661,0.061864l-0.321693,-0.160846l-0.043305,-0.111355Z M645.080972,267.991181l0.098982,-0.111355l0.470166,0.024746l0.197965,0.111355l-0.049491,0.08661l-0.457794,-0.012373l-0.259829,-0.098982Z M654.595655,272.630981l0.049491,-0.08661h0.30932l0.334066,0.235083v0.098982l-0.185592,-0.024746l-0.247456,-0.148474l-0.259829,-0.074237Z M647.184348,268.684058l0.074237,-0.055678l0.754741,0.15466l0.383557,0.197965l-0.037118,0.08661l-0.903214,-0.216524l-0.272202,-0.167033Z M647.98858,269.17897l0.037118,-0.055678l0.643386,0.105169l0.668131,0.259829l0.148474,0.160846l-0.148474,0.037118l-0.680504,-0.185592l-0.272202,-0.111355l-0.123728,-0.123728l-0.272202,-0.08661Z M647.431804,270.10693l0.111355,-0.061864l0.408302,-0.037118l0.235083,0.098982l-0.024746,0.111355l-0.346438,0.037118l-0.371184,-0.037118l-0.012373,-0.111355Z M646.986383,269.475917l-0.012373,-0.136101l0.259829,-0.049491l1.026942,0.197965l1.187789,0.371184l0.593894,0.037118l1.707446,0.593894l0.952706,0.569149l0.061864,0.259829l0.878469,0.84135l0.173219,0.08661l0.08661,0.22271l-0.30932,0.321693l-0.754741,0.136101l-0.235083,0.136101l-0.284574,-0.012373l-0.569149,-0.197965l-1.187789,-0.074237l-0.284574,-0.123728l-0.024746,-0.22271l-0.136101,-0.136101l-0.272202,-0.074237l-0.136101,-0.173219l0.049491,-0.445421l-0.235083,-0.61864l-0.296947,-0.136101l0.024746,-0.136101l0.445421,-0.037118l0.371184,0.074237l0.061864,-0.098982l-0.197965,-0.136101l-0.519658,-0.061864l-1.200162,-0.494912l-0.878469,-0.259829l-0.346438,-0.22271Z M681.902426,276.763497l0.668131,0.092796l0.24127,0.371184l-0.204151,0.185592l-0.315506,-0.018559l-0.445421,-0.296947l-0.111355,-0.185592l0.167033,-0.148474Z M682.050899,277.83993l0.129914,-0.167033h0.22271l0.296947,0.334066l-0.018559,0.204151h-0.24127l-0.315506,-0.185592l-0.074237,-0.185592Z M682.106577,280.698047l-0.092796,-0.22271l0.296947,-0.445421l0.519658,-0.315506l0.352625,0.018559l0.538217,0.445421l0.129914,0.519658l-0.129914,0.111355h-0.890842l-0.723809,-0.111355Z M686.700992,279.41709l0.193859,-0.426489l0.445421,-0.055678l0.426862,0.167033l0.426862,0.445421l0.538217,0.259829l0.835164,0.649572l0.037118,0.371184l-0.408302,0.24127h-0.68669l-0.538217,-0.408302l-0.649572,-0.259829l-0.593894,-0.612454l-0.026826,-0.371557Z M685.2802,281.774481l0.315506,-0.148474l2.524051,-0.315506l1.781683,0.296947l0.111355,0.167033l-0.074237,0.185592l0.111355,0.167033l0.501098,0.055678l0.074237,0.185592l-0.278388,0.519658l0.018559,0.760927l-0.482539,1.317703l-0.556776,0.185592l-0.46398,-0.148474l-1.113552,-1.16923l-0.890842,-0.575335l-0.946519,-0.296947l-0.760927,-0.649572l-0.055678,-0.259829l0.185592,-0.278388Z M685.651384,281.347619l0.129914,-0.204151l0.296947,-0.055678l0.167033,0.074237l-0.074237,0.185592l-0.352625,0.092796l-0.167033,-0.092796Z M638.891479,260.960337l0.046398,-0.083516l0.148474,-0.018559l0.129914,0.055678l-0.027839,0.064957l-0.167033,0.027839l-0.129914,-0.046398Z M640.506129,262.073889l0.111355,-0.055678l0.278388,0.027839l0.027839,0.083516l-0.148474,0.046398l-0.204151,-0.027839l-0.064957,-0.074237Z "/>
</svg>
