<svg xmlns="http://www.w3.org/2000/svg" viewBox="356.665 86.213 10.218 5.396">
  <path d="M356.664736,88.159613l0.129816,-0.222542l0.519265,-0.092726l0.426539,0.018545l1.019985,-0.315268l1.00144,-0.686172l1.984335,-0.649082l0.241087,0.203997l0.03709,0.53781l0.593446,0.46363l0.908714,0.03709l0.389449,0.278178l0.166907,0.482175l0.593446,0.352359l1.03853,0.166907l0.407994,0.315268l0.055636,0.352359l0.222542,0.278178l0.482175,0.129816l-0.018545,0.166907l-0.723262,0.611991l-1.706157,0.704717l-1.316708,0.315268l-1.223982,-0.111271l-1.205437,-0.556356l-0.445084,-0.519265l-0.352359,-0.241087l-1.019985,-0.482175l-1.780338,-1.149802l-0.426539,-0.389449Z "/>
</svg>
