<svg xmlns="http://www.w3.org/2000/svg" viewBox="563.070 268.257 13.619 8.660">
  <path d="M574.508706,272.202548l0.62444,-0.102482l1.15592,-0.873047l0.119067,-0.372758l-0.221802,-0.616121l0.502598,-1.1288l-0.066757,-0.367576l-0.427248,-0.262922l-1.489026,-0.22184l-1.084553,0.051241l-0.492979,0.444087l-0.755901,0.068321l-0.755901,-0.170803l-0.854497,0.136642l-1.084553,0.751532l-0.69017,0.102482l-0.62444,-0.239124l-0.262922,-0.375766l-0.821631,-0.136642l-1.31461,0.751532l-0.492979,0.990656l-0.065731,0.649051l-0.821631,1.161459l-1.051688,0.717372l-0.460114,0.546569l0.032865,0.546569l1.150284,0.785693l0.262922,0.546569l-0.032865,1.093138l0.197192,0.239124l0.69017,-0.273285l0.788766,-0.717372l0.953092,-0.068321l0.887362,0.136642l0.230057,0.375766l0.492979,0.136642l1.708993,-0.819854l0.788766,-0.61489l0.328653,-0.546569l0.558709,-0.512408l0.62444,-0.170803l0.591575,-0.58073l0.230057,-0.58073l0.953092,-0.478248Z "/>
</svg>
