<svg xmlns="http://www.w3.org/2000/svg" viewBox="479.089 120.035 21.190 15.149">
  <path d="M499.907756,132.396065l-0.692354,0.766534l-1.582523,0.247269l-2.423238,-0.173088l-1.03853,0.074181l-0.865442,0.296723l-1.310527,-0.049454l-0.568719,-0.420358l-0.692354,-0.222542l-1.137438,0.098908l-0.469811,-0.173088l-0.049454,-0.296723l0.173088,-0.32145l-0.123635,-0.271996l-1.087984,-0.593446l-0.692354,-0.024727l-0.494538,0.173088v0.395631l-0.296723,0.197815l-0.271996,-0.074181l-0.074181,-0.296723l0.148361,-0.271996l-0.074181,-0.222542l-1.730884,-0.247269l-1.2858,-0.519265l-0.890169,-0.593446l-0.098908,-0.346177l0.197815,-0.370904l0.123635,-0.618173l-0.123635,-0.123635l-0.173088,0.049454l-0.692354,0.989077l-0.543992,0.197815l-0.32145,-0.074181l-0.173088,-0.519265l0.123635,-0.395631l-0.049454,-0.222542l-0.469811,-0.098908l-0.667627,0.148361l-0.420358,-0.247269v-0.370904l0.890169,-1.508342l1.310527,-0.939623l1.112711,-0.123635l0.346177,-0.247269l0.024727,-0.247269l-0.494538,-0.469811v-0.271996l0.914896,-0.469811l0.914896,-0.173088l0.370904,-0.420358l0.568719,-0.197815l-0.024727,-0.148361l-0.543992,-0.148361l-0.222542,-0.370904l0.098908,-0.32145l1.236346,-0.692354l2.917776,-0.840715l1.805065,-0.247269l2.32433,0.173088l1.829792,0.519265l1.483615,1.261073l2.423238,1.508342l0.445084,0.593446l0.791261,0.6429l0.024727,0.395631l-0.32145,0.445084v0.346177l0.420358,0.618173l0.049454,0.494538l-0.296723,0.568719l-0.024727,0.346177l0.6429,1.261073l0.173088,1.35998l-0.370904,1.829792Z M483.711627,123.024564l0.173088,-0.148361l-0.197815,-0.197815l-0.791261,-0.098908l-0.741807,0.346177l-0.123635,0.222542l0.049454,0.173088l0.346177,0.024727l0.346177,-0.271996l0.593446,-0.074181l0.346177,0.024727Z M480.441492,131.2339l0.333813,-0.055636l0.148361,-0.259633l-0.074181,-0.148361l-0.166907,-0.018545l-0.259633,0.129816l-0.148361,0.259633l0.166907,0.092726Z M481.554204,132.457882l0.222542,0.03709l0.278178,-0.03709l0.092726,-0.241087l-0.148361,-0.129816l-0.333813,0.03709l-0.203997,0.148361l0.092726,0.185452Z M484.484343,134.516398l1.873064,0.611991l1.186892,0.055636l0.611991,-0.278178l0.018545,-0.203997l-0.407994,-0.704717l-1.335253,-0.797443l-1.353799,0.092726l-0.927259,0.686172l-0.018545,0.259633l0.352359,0.278178Z "/>
</svg>
