<svg xmlns="http://www.w3.org/2000/svg" viewBox="425.935 106.012 10.903 4.970">
  <path d="M425.937189,107.607332l0.03709,-0.407994l1.409434,-0.96435l1.817428,-0.222542l1.372344,0.370904l0.074181,0.333813l-0.222542,0.407994l0.148361,0.148361l0.370904,-0.111271l0.148361,-0.333813h0.593446l1.520705,0.890169l0.185452,0.482175l0.927259,0.296723l1.149802,0.111271l1.372344,0.482175l-0.03709,0.407994l-1.520705,1.075621l-2.114151,0.333813l-2.114151,0.074181l-0.96435,-0.148361l-1.817428,-0.074181l-0.03709,-0.148361l0.815988,-0.074181l0.630536,0.03709l0.259633,-0.148361l-0.407994,-0.111271l-1.03853,0.03709l-0.593446,-0.222542l-0.370904,-0.556356l0.148361,-0.445084l-0.185452,-0.445084l-0.741807,-0.111271l-0.333813,-0.185452l-0.111271,-0.445084l-0.370904,-0.333813Z "/>
</svg>
