<svg xmlns="http://www.w3.org/2000/svg" viewBox="473.326 98.124 119.282 37.512">
  <path d="M488.063564,110.265476l-0.049454,0.247269l-0.296723,0.197815l-0.123635,-0.123635l0.098908,-0.271996l0.173088,-0.148361l0.197815,0.098908Z M493.478758,102.179774l0.098908,0.197815l0.445084,0.123635l0.420358,-0.123635l-0.024727,-0.197815l-0.247269,-0.148361l-0.445084,-0.049454l-0.247269,0.197815Z M483.192362,98.76746h0.346177l0.494538,-0.049454l0.074181,-0.173088l-0.271996,-0.173088h-0.543992l-0.296723,0.222542l0.197815,0.173088Z M483.761081,99.707083l0.741807,-0.049454l0.148361,-0.173088l-0.247269,-0.197815h-0.6429l-0.370904,0.173088l0.370904,0.247269Z M485.838142,98.668552l0.939623,0.593446l0.939623,0.049454l0.346177,-0.346177l-0.074181,-0.346177l-1.186892,-0.494538l-1.384707,0.024727l-0.123635,0.271996l0.543992,0.247269Z M476.244099,102.37759l0.395631,-0.049454l0.222542,-0.222542v-0.247269l-0.247269,-0.049454l-0.766534,0.197815l-0.148361,0.173088l0.148361,0.123635l0.395631,0.074181Z M473.672499,101.932505l1.03853,-0.074181l0.6429,-0.32145l0.049454,-0.222542l-0.395631,-0.271996l-0.6429,-0.049454l-0.96435,0.445084l-0.074181,0.346177l0.346177,0.148361Z M475.279749,104.157928l0.717081,0.123635l0.123635,-0.197815l-0.296723,-0.346177l-0.568719,-0.271996l-0.346177,0.049454l-0.123635,0.346177l0.494538,0.296723Z M475.180841,106.605892l-0.098908,0.271996v0.32145l0.098908,0.123635l0.173088,-0.024727l0.098908,-0.346177l-0.049454,-0.271996l-0.222542,-0.074181Z M474.760484,108.163688l0.247269,-0.098908l0.049454,-0.123635l-0.123635,-0.148361l-0.222542,0.098908l-0.123635,0.173088l0.173088,0.098908Z M475.081933,108.658226l0.296723,0.024727l0.32145,-0.074181l0.024727,-0.197815l-0.173088,-0.197815l-0.346177,0.024727l-0.271996,0.222542l0.148361,0.197815Z M478.222252,106.309169l0.173088,-0.049454l0.024727,-0.123635l-0.148361,-0.098908l-0.222542,0.049454l0.002327,0.144289l0.170761,0.078253Z M477.897893,104.080547l0.167561,-0.069817l0.055854,-0.153598l-0.055854,-0.111707l-0.167561,0.013963l-0.139634,0.181525l0.139634,0.139634Z M479.266309,106.831344h0.474757l0.097744,-0.125671l-0.167561,-0.139634l-0.40494,0.013963l-0.125671,0.153598l0.125671,0.097744Z M480.132042,107.487625l0.223415,-0.027927l0.139634,-0.153598l-0.04189,-0.279269l-0.181525,-0.111707l-0.195488,0.097744l-0.097744,0.349086l0.153598,0.125671Z M586.303599,131.456442l-0.049454,-0.445084l0.370904,-0.197815v-0.247269l-0.865442,-0.543992l0.024727,-0.445084l0.6429,-0.469811l0.049454,-0.222542l-0.667627,-0.32145l-0.024727,-0.469811l0.741807,-0.420358l1.434161,-0.148361l0.815988,-0.469811l0.519265,-0.717081l0.494538,-0.173088h0.766534l0.717081,-0.271996l0.6429,-0.890169v-0.370904l-0.6429,-0.197815v-0.247269l0.469811,-0.519265l-0.024727,-0.469811l-0.921078,-0.28436l-0.074181,-0.333813l0.259633,-0.166907l-0.092726,-0.203997l-0.704717,-0.203997h-1.928699l-1.613431,0.278178l-0.982895,-0.03709l-0.055636,-0.129816l0.426539,-0.148361l1.446525,-0.166907l0.704717,-0.352359l0.593446,-0.092726l0.03709,-0.129816l-0.315268,-0.092726l-0.574901,0.03709l-0.148361,-0.148361l0.092726,-0.166907l-0.352359,-0.389449l-1.353799,-0.482175l-1.427979,-0.185452l-2.522145,0.296723l-0.426539,-0.03709l-0.723262,-0.166907l-1.00144,-0.074181l-0.241087,-0.203997l0.03709,-0.370904l1.149802,-0.53781l0.185452,-0.278178l-0.222542,-0.203997l-1.223982,-0.074181l-0.890169,-0.296723l-1.03853,-0.129816l-2.114151,-0.018545l-1.854519,-0.278178h-1.53925l-2.485055,0.667627l-1.205437,0.407994l-1.057076,0.129816l-1.261073,-0.055636l-1.261073,-0.482175l-1.372344,-0.407994h-1.149802l-0.778898,0.445084l-0.853079,0.148361l-0.630536,0.296723l-0.370904,0.370904l-0.593446,0.185452l-1.372344,0.074181l-0.296723,0.259633l0.074181,0.333813l-0.222542,0.148361l-0.704717,-0.074181l-0.815988,-0.259633l-0.96435,0.074181l-1.298163,0.741807l-0.222542,0.333813l-0.630536,0.148361l-0.853079,-0.074181l-0.259633,-0.296723h-0.556356l-0.593446,0.333813l-0.96435,0.333813l-1.261073,0.148361l-0.370904,0.222542v0.259633l1.557796,0.519265l0.333813,0.296723l-0.185452,0.185452l-1.96579,-0.03709l-1.112711,0.333813l-0.778898,0.333813l-0.778898,0.03709l0.148361,-0.259633l1.03853,-0.296723l0.111271,-0.222542l-1.186892,-0.667627l-1.780338,-0.148361l-1.594886,-0.667627l-0.407994,-0.556356l-0.890169,-0.407994l-0.927259,0.074181l-0.667627,0.556356v0.445084l0.445084,0.370904l-0.111271,0.407994l-0.482175,0.185452l-0.03709,-0.370904l-0.593446,-0.370904l-0.148361,-0.519265l-0.778898,-0.222542l-1.03853,0.074181l-1.780338,1.075621l-0.519265,0.03709v-0.259633l0.445084,-0.222542l-0.03709,-0.370904l-1.817428,-0.815988l-0.927259,-0.815988l-0.741807,-0.148361l-0.333813,0.148361l-0.074181,0.370904l-0.445084,0.296723l-0.074181,0.407994l0.815988,1.261073v0.445084l-0.741807,0.333813l-0.593446,-0.111271l-0.222542,-0.370904l-0.704717,-0.259633l-0.259633,-0.853079l-1.112711,-0.482175l-0.927259,0.03709l-0.222542,-0.185452l0.556356,-0.259633l1.03853,-0.296723l0.370904,-1.186892l-0.074181,-0.593446l-1.483615,-1.00144l-0.877805,-0.148361l-0.815988,0.32145l-0.222542,0.32145l-0.32145,-0.024727l-0.148361,-0.296723l0.222542,-0.370904l0.741807,-0.296723l-0.024727,-0.271996l-1.978153,-1.310527l-0.593446,-0.098908l-0.420358,0.074181l-0.32145,0.692354h-0.247269l-0.32145,-0.222542l-0.6429,-0.024727l-0.6429,0.370904l-0.271996,0.024727l-0.123635,-0.173088l0.271996,-0.296723l-0.370904,-0.148361l-0.692354,0.074181l-0.445084,0.271996h-0.271996l-0.074181,-0.247269l-0.469811,-0.024727l-0.420358,0.222542l-0.568719,0.593446l-0.568719,0.222542l-0.494538,0.593446h-0.222542l-0.123635,-0.370904l0.271996,-0.494538l0.840715,-0.222542l0.148361,-0.222542l-0.123635,-0.271996l-0.271996,-0.074181v-0.148361l0.618173,-0.296723l1.162165,-0.074181h0.890169l0.519265,-0.173088l0.865442,0.024727l0.32145,0.049454l0.865442,-0.173088l0.049454,-0.197815l-0.618173,-0.32145l-1.409434,-0.098908l-0.692354,0.222542l-0.865442,0.173088l-0.519265,-0.024727l-0.024727,-0.148361l0.717081,-0.222542l0.197815,-0.197815l-0.074181,-0.222542l-1.384707,-0.32145l-1.829792,-0.173088l-0.989077,0.173088l-0.395631,-0.024727v-0.197815l0.568719,-0.222542l0.296723,-0.024727l0.123635,-0.197815l-0.593446,-0.247269l-1.2858,-0.296723l-0.271996,-0.271996l0.123635,-0.098908l0.445084,0.024727l1.68143,0.494538l0.469811,0.370904l0.791261,0.197815l1.335253,0.123635l1.879246,0.024727l1.829792,0.494538h0.593446l-0.024727,-0.148361l-1.310527,-0.247269l-0.098908,-0.123635l0.271996,-0.074181l3.387587,0.197815h1.829792l1.829792,-0.395631l0.6429,-0.469811l0.074181,-0.395631l-0.148361,-0.271996l-1.087984,-0.593446l-2.670507,-0.346177l-1.508342,-0.420358l-2.126515,-0.370904l-2.101788,-0.148361l-2.027607,-0.370904l-1.879246,-0.173088l-1.458888,-0.420358l-0.074181,-0.197815l0.197815,-0.222542l0.914896,0.049454l1.211619,0.395631l0.618173,-0.024727l0.32145,-0.098908l0.296723,0.024727l0.667627,0.296723l1.978153,0.197815l0.420358,-0.173088l0.098908,-0.32145l-0.494538,-0.692354l-1.706157,-0.890169l-1.953426,-0.741807l-1.928699,-0.32145l-2.571599,0.074181l-1.903972,0.395631l-1.310527,0.593446l-0.865442,0.049454l-0.543992,-0.148361l-0.543992,0.024727l-0.519265,0.247269h-0.519265l-0.593446,-0.271996l-1.631976,-0.024727l-0.469811,0.271996l-0.6429,0.939623l-1.063257,0.815988l-1.236346,0.445084h-0.370904l-0.074181,-0.173088l0.766534,-0.519265l1.162165,-0.519265l0.717081,-0.840715l0.420358,-1.236346l-0.098908,-0.741807l-0.791261,-0.766534l-1.755611,-0.914896l-0.32145,-0.519265l-0.667627,-0.370904l-1.508342,-0.074181l-0.741807,0.445084l-0.766534,0.074181l-0.766534,-0.098908l-1.137438,-0.420358l-0.370904,-0.543992l-0.692354,-0.123635l-1.434161,0.049454l-0.939623,-0.222542l-0.543992,-0.098908l-0.692354,-0.049454l-0.741807,-0.197815l-0.593446,-0.420358l-1.35998,-0.222542l-2.794141,0.049454l-2.373784,0.32145l-0.074181,0.148361l0.741807,0.197815l0.024727,0.173088l-0.543992,0.123635l-0.543992,0.247269h-0.494538l-1.631976,-0.222542l-0.32145,0.098908l-0.024727,0.173088l0.717081,0.222542l-0.074181,0.123635l-0.717081,0.098908l-0.296723,0.271996l-0.024727,0.370904l0.395631,0.247269l0.692354,0.024727l0.469811,0.271996l1.03853,0.370904l0.741807,0.074181l0.247269,0.173088l-0.32145,0.074181l-0.741807,-0.074181l-0.148361,0.098908l0.271996,0.271996l-0.123635,0.148361l-0.593446,0.148361l-0.543992,-0.098908l-0.271996,-0.247269l-0.865442,-0.519265l-0.395631,0.049454l-0.123635,0.32145l0.271996,0.271996l-0.024727,0.197815l-0.568719,0.197815l-0.049454,0.222542l0.543992,0.271996l1.013804,0.123635l0.519265,-0.098908l0.96435,0.123635l0.271996,0.370904l0.469811,0.296723l0.865442,0.222542l0.6429,0.543992l0.939623,0.296723l1.211619,0.074181l0.741807,-0.32145l0.247269,-0.32145l0.395631,-0.074181l0.074181,0.197815l-0.370904,0.445084l-0.815988,0.420358l-0.840715,0.148361l-0.766534,-0.074181l-0.420358,0.173088v0.32145l0.741807,0.6429l1.310527,0.593446l2.546872,0.395631l0.519265,-0.024727l0.519265,-0.098908l0.890169,0.098908l0.469811,0.247269l-0.074181,0.197815l-0.445084,0.296723l-0.865442,0.197815l-0.6429,-0.123635l-0.271996,0.098908l-0.074181,0.445084l0.296723,0.296723l1.261073,0.123635l1.112711,-0.024727l1.162165,-0.593446l0.420358,-0.420358h0.420358l0.445084,0.271996l2.843595,0.197815l0.717081,0.197815l1.03853,0.197815l1.68143,0.074181l0.074181,-0.197815l-0.618173,-0.346177l0.024727,-0.197815l0.296723,-0.197815l0.370904,0.049454l0.148361,0.197815l0.296723,0.024727l0.420358,-0.074181l0.939623,-0.692354l0.914896,-0.148361l1.013804,0.173088l0.222542,0.346177l0.049454,0.445084l0.519265,0.741807l1.063257,0.469811l0.96435,1.112711l0.197815,1.162165l0.667627,0.815988l1.656703,0.890169l0.692354,0.247269l0.420358,0.395631l0.074181,0.6429l-0.247269,0.593446l-0.024727,0.519265l0.717081,0.717081l0.074181,0.519265l-0.173088,0.692354l-0.791261,0.296723l-1.087984,0.865442l-0.667627,1.112711l-0.074181,1.063257l-0.271996,0.543992l-0.066617,0.792425l0.281014,0.521011l0.865733,0.809879l0.628355,0.083781l0.265305,-0.125671l0.349086,0.013963l0.44683,0.474757l0.013963,0.251342l-0.614391,0.04189l-0.307196,0.418903l0.055854,0.502684l0.670245,0.48872l0.432866,0.684208l0.04189,0.698172l-0.307196,0.544574v0.460793l0.57621,0.571192l1.780338,0.426539l0.46363,0.241087l-0.018545,0.166907l-0.278178,0.259633l0.03709,0.166907l0.778898,0.278178l1.03853,0.03709l0.389449,-0.129816l0.111271,-0.259633l-0.111271,-0.241087l0.055636,-0.148361l0.241087,-0.074181l0.185452,0.203997l-0.018545,0.241087l-0.185452,0.241087l0.055636,0.278178l0.649082,0.148361l0.389449,-0.055636l0.092726,-0.259633l-0.333813,-0.445084l-0.074181,-0.630536l0.296723,-0.296723l0.760353,-0.278178l1.03853,-1.019985l0.203997,-0.333813l0.241087,-0.018545l0.185452,0.315268l-0.166907,0.46363l-1.075621,0.945805l-0.166907,0.426539l0.055636,0.222542l0.482175,0.185452l0.241087,-0.185452l0.259633,-0.370904l0.333813,-0.03709l0.278178,0.352359l0.185452,0.649082l0.982895,0.53781h1.03853l0.482175,0.111271l0.741807,0.46363l0.593446,0.129816l0.556356,-0.315268h0.241087l0.241087,0.407994l0.853079,0.222542l1.298163,-0.074181l1.261073,-0.241087l0.241087,-0.222542l0.407994,-0.148361l0.46363,0.074181l0.519265,-0.129816l0.574901,-0.593446l0.018545,-0.593446l-0.611991,-0.46363l0.074181,-0.129816h0.333813l0.407994,0.129816l0.389449,-0.241087l0.074181,-0.389449l-0.482175,-0.574901l0.03709,-0.129816l0.278178,0.018545l0.630536,0.445084l0.203997,0.426539l0.055636,0.890169l0.148361,0.259633l0.296723,-0.018545l0.370904,-0.593446l0.203997,-0.945805l0.482175,-0.593446l0.241087,-0.074181l0.333813,0.092726l0.185452,-0.111271l-0.018545,-0.333813l-0.148361,-0.203997l0.018545,-0.278178l0.148361,-0.092726l0.352359,0.241087l0.185452,0.667627l0.03709,0.574901l0.296723,0.445084l-0.055636,0.741807l-0.871624,1.094166l-0.129816,0.834533l0.296723,0.53781l1.743248,0.333813l2.015244,0.14218l0.815988,-0.123635l0.346177,-0.370904h0.148361l0.247269,0.346177l0.692354,0.173088l0.96435,-0.049454l0.296723,-0.370904l0.148361,-0.346177l0.543992,-0.222542l0.247269,0.024727l-0.049454,0.173088l-0.346177,0.32145l0.123635,0.346177l0.741807,0.197815l0.766534,-0.049454l0.420358,-0.296723h0.296723l0.519265,0.296723l1.706157,-0.049454l0.098908,-0.222542l-0.729444,-0.6429l0.092726,-0.185452l0.407994,0.074181l1.094166,0.704717l1.112711,0.074181l0.871624,-0.50072l0.03709,-0.593446l0.241087,-0.166907l0.296723,0.074181l0.222542,0.426539l-0.092726,0.389449l0.111271,0.333813l1.223982,0.092726l2.243968,-0.222542l0.574901,-0.445084l-0.092726,-0.630536l-0.315268,-0.630536l0.166907,-0.333813l0.185452,0.018545l0.53781,0.704717l0.296723,1.019985l0.686172,0.389449l0.853079,-0.03709l0.482175,-0.50072l0.129816,-0.871624l-0.111271,-0.53781l0.407994,-0.574901l0.203997,0.018545l-0.018545,0.370904l-0.148361,0.482175l0.278178,1.03853l0.389449,0.333813l0.649082,0.018545l0.519265,-0.166907l0.50072,0.018545l0.723262,0.185452l1.941063,-0.024727l1.805065,-0.370904l0.921078,-0.17927l1.304345,0.055636l0.834533,-0.315268l0.401812,-0.599628l0.271996,-1.03853l0.469811,-0.593446l-0.049454,-0.32145l-1.211619,-0.815988l-0.173088,-0.618173l0.197815,-0.148361l0.717081,0.123635l1.013804,0.890169l0.445084,0.024727l0.494538,-0.098908l0.247269,0.247269l0.024727,0.32145l-0.346177,0.568719l0.098908,1.186892l1.186892,1.087984l1.706157,0.420358l2.373784,-0.024727l1.03853,0.173088l1.582523,0.420358l1.607249,-0.024727l2.522145,-1.186892l1.483615,-0.098908l2.497418,0.222542l2.373784,-0.148361l0.667627,-0.445084v-0.543992l-0.271996,-0.296723v-0.271996l0.346177,-0.173088l0.024727,-0.32145l-0.791261,-0.667627Z M488.755918,113.603609l-0.148361,0.222542l0.395631,0.6429l0.840715,0.123635l0.717081,-0.519265l0.123635,-0.469811l-0.32145,-0.173088l-0.395631,0.049454l-0.395631,0.296723l-0.395631,0.024727l-0.420358,-0.197815Z M490.832979,114.765774l0.271996,-0.074181l0.098908,-0.271996l-0.123635,-0.296723l-0.197815,0.024727l-0.173088,0.395631l0.123635,0.222542Z M588.355933,130.788816l0.815988,0.098908l0.370904,-0.247269l0.692354,-0.024727l2.32433,-0.568719l0.049454,-0.296723l-0.717081,-0.395631l-0.197815,-0.543992l-0.469811,-0.469811l-0.939623,-0.148361l-1.533069,0.247269l-1.607249,0.568719l-0.741807,0.543992l0.024727,0.469811l1.928699,0.766534Z M510.144699,132.575335l0.352359,-0.03709v-0.129816l-0.259633,-0.092726l-0.315268,0.03709l-0.055636,0.148361l0.278178,0.074181Z M531.712751,131.536805l-0.111271,0.166907l0.018545,0.185452l0.148361,0.092726l0.111271,-0.111271l-0.055636,-0.278178l-0.111271,-0.055636Z "/>
</svg>
