<svg xmlns="http://www.w3.org/2000/svg" viewBox="419.100 66.869 44.357 23.249">
  <path d="M420.287089,72.705291l-0.939623,-0.593446l-0.247269,-1.087984l0.197815,-1.2858l0.791261,-0.840715l0.098908,-0.395631l-0.247269,-0.395631l0.148361,-0.346177l1.087984,-0.098908l3.115591,0.098908l2.522145,-0.445084l0.840715,-0.346177l3.016684,-0.098908l1.434161,0.346177l1.236346,0.741807l1.137438,0.296723l1.236346,0.098908l1.236346,0.6429l2.027607,2.32433l0.098908,0.741807l-0.148361,0.890169l-0.741807,0.494538l0.098908,0.296723l0.692354,-0.148361l0.247269,0.197815l0.148361,0.741807l0.395631,0.098908l0.791261,-0.543992l0.148361,-0.989077l0.6429,-0.791261l2.274876,-0.741807l1.68143,0.098908l1.631976,0.939623l1.631976,0.6429l0.593446,0.049454l0.6429,0.395631l-0.049454,0.494538l-0.989077,1.087984l0.049454,0.395631l1.087984,0.296723l2.274876,-0.148361l1.2858,-0.494538l0.741807,0.197815l0.6429,0.543992l2.077061,0.840715l0.049454,0.395631l-0.445084,0.494538l0.049454,0.346177l0.543992,0.098908l1.137438,-0.049454l1.384707,0.543992v0.395631l-0.692354,1.186892l-1.2858,0.494538l-0.098908,0.296723l0.346177,0.6429l-0.049454,0.543992l-0.247269,0.543992l0.148361,0.197815h1.236346l0.791261,0.346177l0.445084,0.741807l2.472692,1.879246l0.692354,0.247269l0.049454,0.395631l-0.741807,0.692354l-0.049454,0.692354l0.296723,0.543992l-0.049454,0.346177l-1.730884,0.6429l-3.016684,0.148361l-0.593446,0.395631h-0.741807l-1.03853,-0.346177l-1.582523,-0.148361l-1.631976,-1.03853l-1.335253,-1.483615l-0.049454,-0.840715l-0.445084,-0.6429l-1.434161,-0.840715l-1.236346,-0.148361l-0.939623,-0.296723l-0.890169,-0.445084l-1.582523,-0.395631l-2.126515,-0.148361l-1.533069,0.098908l-1.186892,0.346177l-0.989077,-0.148361l-0.791261,-0.346177l-0.049454,-0.346177l0.445084,-0.543992l0.494538,-0.148361l-0.049454,-0.247269l-0.989077,-0.098908l-3.313407,0.543992l-1.483615,0.098908l-2.077061,0.6429l-0.543992,0.593446l-0.890169,0.049454l-2.274876,-0.296723l-2.621053,-1.533069l-0.989077,-1.2858l-0.098908,-0.791261l0.6429,-0.692354l1.928699,-0.346177l1.928699,0.346177l1.631976,0.741807l2.670507,0.148361l0.989077,-0.346177l0.543992,-0.939623l-0.346177,-0.247269l-1.730884,-0.197815l-1.434161,0.049454l-0.296723,-0.247269l0.989077,-0.494538l1.978153,-0.098908l0.890169,-0.692354l0.049454,-0.395631l-0.6429,-0.296723l-0.840715,0.148361l-2.373784,0.148361l-1.335253,-0.395631l-0.049454,-0.346177l1.03853,-0.890169l0.890169,-0.296723v-0.395631l-1.03853,-0.741807l-1.087984,-0.247269l-1.087984,0.197815l-0.890169,0.741807l-0.989077,1.186892l-1.335253,0.494538l-1.03853,-0.098908l0.049454,-0.593446l1.236346,-0.741807l0.890169,-1.434161l-0.098908,-0.494538l-1.137438,-0.296723l-1.434161,0.049454l-1.2858,0.494538h-1.186892Z M444.383468,84.413486l0.148361,0.482175l1.112711,0.222542l0.407994,-0.185452l-0.03709,-0.519265l-0.704717,-0.407994l-0.593446,0.03709l-0.333813,0.370904Z M434.554519,84.82148v0.296723l0.556356,0.333813l1.00144,-0.03709l1.780338,-1.00144l0.074181,-0.482175l-0.407994,-0.445084l-1.00144,-0.074181l-1.372344,0.778898l-0.630536,0.630536Z "/>
</svg>
