<svg xmlns="http://www.w3.org/2000/svg" viewBox="514.077 92.289 10.533 6.998">
  <path d="M514.348275,95.503507v-1.557796l0.568719,-1.03853l1.434161,-0.618173h1.335253l1.483615,0.370904l1.162165,0.074181l0.914896,0.271996l2.398511,1.384707l0.508173,0.460413l0.258362,0.602844v0.593446l0.197815,0.420358l-0.049454,0.494538l-0.766534,0.741807l-1.2858,0.618173l-1.335253,0.123635l-0.692354,-0.197815l-0.197815,-0.370904l-0.420358,-0.173088l-0.494538,0.098908l-1.112711,-0.148361l-2.225422,-0.766534l-1.186892,-0.692354l-0.494538,-0.692354Z M514.632635,97.72893h1.50216l1.03853,0.259633l0.50072,0.482175v0.315268l-0.611991,0.445084l-0.982895,0.055636l-1.298163,-0.407994l-0.704717,-0.445084l0.055636,-0.389449l0.50072,-0.315268Z "/>
</svg>
