<svg xmlns="http://www.w3.org/2000/svg" viewBox="451.023 179.959 5.378 6.416">
  <path d="M455.955664,186.374921l0.185452,-0.222542v-0.407994l-0.148361,-0.407994l-0.185452,0.03709l-0.222542,0.445084v0.407994l0.370904,0.148361Z M455.399309,183.852776l-0.815988,-0.630536l-1.520705,-0.482175l-0.556356,0.148361l-0.222542,0.593446l0.259633,0.778898l1.298163,0.519265l1.242527,0.166907l0.203997,-0.241087l-0.111271,-0.315268l-0.611991,-0.296723l0.018545,-0.203997l0.315268,-0.055636l0.407994,0.129816l0.092726,-0.111271Z M454.583321,182.332071l0.333813,-0.074181l0.03709,-0.185452l-0.296723,-0.148361l-0.222542,0.074181l-0.148361,0.185452l0.296723,0.148361Z M453.099706,181.627353h0.222542l0.148361,-0.148361l-0.074181,-0.185452h-0.222542l-0.185452,0.185452l0.111271,0.148361Z M455.918574,184.26077l0.296723,0.03709l0.185452,-0.111271l-0.111271,-0.185452h-0.333813l-0.222542,0.148361l0.185452,0.111271Z M454.064055,182.715338l0.296723,-0.049454l-0.049454,-0.148361l-0.222542,-0.024727l-0.173088,0.098908l0.148361,0.123635Z M451.096826,180.199374l0.185452,0.055636l0.148361,-0.111271l-0.074181,-0.185452h-0.185452l-0.148361,0.111271l0.074181,0.129816Z M455.918574,184.668764l0.238251,-0.047127l0.033745,-0.125962l-0.247269,-0.024727l-0.121598,0.080872l0.096871,0.116944Z "/>
</svg>
