<svg xmlns="http://www.w3.org/2000/svg" viewBox="459.674 191.351 29.105 17.411">
  <path d="M477.91168,196.125265l0.371184,0.024931l0.136101,-0.074793l-0.08661,-0.22438l-0.334066,-0.186983l-0.235083,0.024931l-0.049491,0.286707l0.197965,0.149586Z M473.785352,192.0428l0.538217,0.056095l0.334066,-0.186983l0.055678,-0.243078l-0.742368,-0.317871l-0.278388,0.130888l-0.018559,0.299173l0.111355,0.261776Z M474.917463,192.60375h0.389743l0.129914,-0.186983l-0.185592,-0.280475h-0.204151l-0.278388,0.261776l0.148474,0.205681Z M474.119417,192.631797l0.23199,0.037397l0.074237,-0.056095l-0.037118,-0.121539l-0.185592,-0.037397l-0.157753,0.093492l0.074237,0.084142Z M474.546279,192.809431l0.129914,0.065444l0.111355,-0.028047l-0.027839,-0.140237l-0.148474,-0.065444l-0.092796,0.093492l0.027839,0.074793Z M475.622959,193.183363l0.052346,-0.03048l-0.080273,-0.086754l-0.108233,-0.029307l-0.05351,0.007033l0.045381,0.083236l0.144289,0.056272Z M478.388939,195.653593l0.074015,-0.003107l0.037007,-0.043499l-0.03084,-0.05282l-0.070931,-0.003107l-0.043175,0.031071l-0.012336,0.046606l0.046259,0.024856Z M477.738461,195.071927l0.029258,0.101553l0.042958,0.036646l0.045322,-0.039076l0.016667,-0.118394l-0.057888,-0.09854l-0.054873,0.012636l-0.021443,0.105174Z M477.738461,195.071927l0.029258,0.101553l0.042958,0.036646l0.045322,-0.039076l0.016667,-0.118394l-0.057888,-0.09854l-0.054873,0.012636l-0.021443,0.105174Z M462.563608,204.475229l-0.411106,-0.010128l-0.492979,-0.422173l-0.640872,-0.074501l-0.246489,-0.273171l-0.22184,-0.596009l-0.566926,-0.571175l-0.024649,-0.571175l0.46833,-0.745011l0.492979,-0.223503l1.232447,-0.099335l0.345085,0.099335l0.788766,-0.024834l0.591575,-0.322838l0.517628,-0.099335l0.320436,0.049667l0.665521,-0.124168l0.271138,-0.372505l-0.024649,-0.67051l0.147894,-0.273171l0.443681,-0.049667l0.172543,0.173836l0.246489,-0.049667l0.320436,-0.19867l0.640872,0.049667v-0.19867l-0.492979,-0.099335v-0.273171l0.295787,-0.099335l-0.123245,-0.223503l-0.591575,-0.149002l-0.419032,-0.422173l0.073947,-0.422173l0.295787,-0.099335l0.419032,0.149002l0.123245,-0.173836l-0.665521,-0.447006l-0.197192,-0.372505l0.22184,-0.447006h0.640872l0.912011,0.372505l0.566926,0.745011l1.281745,0.645676l0.295787,-0.049667l-0.197192,-0.298004l-0.985958,-0.620842l-0.295787,-0.645676l-0.69017,-0.19867l-0.123245,-0.372505l0.345085,-1.365853l0.69017,-0.794678l0.517628,-0.074501l0.172543,-0.273171l0.123245,-0.447006l0.345085,-0.322838l0.714819,0.024834l1.1585,0.496674h0.320436l0.172543,0.173836l0.049298,0.298004l0.912011,0.447006l0.46833,0.074501l0.443681,0.322838l0.147894,0.546341l-0.271138,0.19867l-0.320436,0.024834l-0.073947,0.322838l0.271138,0.347672v0.496674l0.172543,-0.049667l0.345085,-0.695343l0.049298,-0.397339l0.295787,-0.223503l0.591575,0.223503l0.542277,0.521508l0.271138,0.745011l0.838064,0.546341l0.714819,0.273171l0.566926,0.124168l0.443681,0.273171l0.172543,0.273171l0.246489,0.074501l0.271138,-0.074501l0.443681,0.19867l0.46833,0.496674l0.492979,0.248337l0.345085,0.049667l0.912011,0.844346l0.024649,0.347672l-0.147894,0.397339l-0.049298,1.763192l0.172543,0.19867l0.22184,-0.149002l-0.049298,-1.018181l0.22184,-0.521508l0.271138,-0.19867l0.172543,-0.273171l0.22184,0.074501l0.024649,0.47184l0.394383,0.347672l0.073947,0.695343l-0.147894,0.322838l0.024649,0.298004l0.542277,0.596009l0.172543,0.397339v0.67051l0.246489,0.19867l0.492979,-0.074501l0.492979,0.173836l0.123245,0.273171l0.665521,0.074501l0.714819,-0.496674l0.714819,-0.223503l0.517628,0.124168l0.345085,0.322838l-0.024649,0.173836l-0.271138,0.149002l-0.172543,0.372505l-1.010606,0.620842l-0.640872,0.844346l-0.22184,-0.049667l0.073947,-0.67051l-0.197192,-0.223503l-0.443681,-0.049667l-0.93666,0.521508l-0.320436,0.596009l-0.024649,0.496674l-0.246489,0.049667l-0.345085,-0.124168l-0.443681,0.024834l-0.591575,0.695343l-0.566926,0.223503l-0.714819,0.67051l-0.517628,0.099335l-0.443681,0.19867l-0.985958,0.024834l-2.169107,-0.819512l-0.345085,0.024834l-0.369734,-0.124168l-0.46833,-0.620842l-0.172543,0.049667l-0.024649,0.223503l0.172543,0.248337l-0.073947,0.223503l-0.46833,0.074501l-1.404989,-0.347672h-0.517628l-1.035255,-0.372505l-0.838064,-0.67051l-2.09516,-0.521508l-0.320436,0.074501l-0.345085,-0.074501l-0.862713,-0.745011l0.049298,-0.347672l0.22184,-0.149002v-0.273171l-0.591575,-0.298004h-0.443681l-0.123245,0.223503l0.172543,0.496674l-0.147894,0.322838l-0.419032,0.124168l-0.443681,-0.149002l-0.22184,-0.298004l-0.517628,-0.099335l-0.285541,0.018211l-0.420675,-0.124655l-0.624826,-0.489565l0.024649,-0.322838l0.246489,-0.19867l0.024649,-0.322838l-0.739468,-0.322838l-0.640872,-0.049667l-0.073947,0.19867l0.255286,0.149002l0.006186,0.11219l-0.266015,0.024931l-0.315893,-0.087454l-0.098596,0.124168l0.394383,0.447006l-0.147894,0.19867l-0.289794,-0.108976l-0.296947,0.099724l-0.111355,0.193216Z M465.526894,205.316653l0.136101,0.037397l0.123728,-0.062328v-0.162052l-0.197965,-0.062328l-0.123728,0.062328l0.061864,0.186983Z M462.959538,200.788545l0.120635,0.046746l0.120635,-0.065444l0.00928,-0.102841l-0.250549,-0.046746l-0.083516,0.084142l0.083516,0.084142Z M464.654612,204.699609l0.216524,0.230612l0.191778,0.056095l0.024746,-0.056095l-0.173219,-0.105957l-0.22271,-0.249311l-0.06805,0.006233l0.030932,0.118423Z M461.760619,200.676574l0.052008,-0.016492l0.012795,-0.037256l-0.054649,-0.027838l-0.153931,0.025325l-0.01378,0.035536l0.022599,0.023548l0.134959,-0.002823Z M459.67395,203.070971l0.070617,0.013783l0.051098,-0.058415l-0.007927,-0.076449l-0.051119,-0.014319l-0.051631,0.038772l-0.011038,0.096629Z M460.008344,203.002221l0.013878,-0.07923l-0.046259,-0.041945l-0.046259,0.009321l-0.013878,0.055927l0.037007,0.069909l0.055511,-0.013982Z M459.998898,203.199507l-0.011842,0.063744l0.028862,0.064434l0.093752,0.051055l0.048371,-0.028136l-0.002806,-0.047101l-0.072373,-0.112225l-0.083964,0.008229Z M463.434051,200.770518h0.034909l0.018618,-0.018757l-0.004654,-0.030481l-0.020945,-0.014068l-0.037236,0.009379l-0.011636,0.025792l0.020945,0.028136Z M478.938623,196.100334l0.408302,0.274242l0.457794,0.685605l0.556776,0.249311l0.433048,0.024931l0.22271,0.137121l0.148474,0.349035l1.361008,0.772863l0.22271,-0.049862l0.012373,-0.536018l-0.074237,-0.311639l0.049491,-0.162052l0.197965,-0.087259l0.074237,-0.199449l-0.111355,-0.822726l-0.346438,-0.511087l-0.185592,-0.049862l-0.136101,0.174518l-0.272202,0.099724l-0.358811,0.33657l-0.259829,-0.062328l-0.259829,-0.33657l-0.408302,-0.137121l-0.70525,0.149586l-0.482539,-0.049862l-0.334066,-0.174518l-0.259829,-0.037397l-0.049491,0.137121l0.098982,0.137121Z "/>
</svg>
