<svg xmlns="http://www.w3.org/2000/svg" viewBox="415.459 89.412 16.394 10.238">
  <path d="M426.734547,98.685283l0.556356,-0.630536l0.96435,-0.259633l1.00144,0.111271l0.259633,0.296723l-0.148361,0.370904l-1.112711,0.556356l-1.186892,-0.074181l-0.333813,-0.370904Z M429.850138,99.315819l0.445084,0.03709l0.333813,-0.111271l0.03709,-0.222542l-0.259633,-0.185452h-0.445084l-0.222542,0.259633l0.111271,0.222542Z M431.259573,99.649632h0.482175l0.111271,-0.148361l-0.222542,-0.148361l-0.296723,-0.03709l-0.259633,0.185452l0.185452,0.148361Z M416.757237,90.933395l0.333813,0.630536l-0.111271,0.519265l0.333813,0.630536l0.630536,0.148361l0.185452,0.296723l-0.222542,0.667627l0.741807,1.149802l0.519265,1.112711l1.669067,1.669067l0.741807,0.185452l0.667627,-0.074181l0.890169,0.148361l0.593446,0.593446l0.741807,0.074181l0.593446,-0.296723l1.186892,-0.148361l0.630536,-0.593446l0.066326,-1.216128l-0.390976,-0.460793l-0.502684,-0.167561l-0.209452,-0.153598l-0.111707,-0.349086l-1.075184,-0.516647l-0.111707,-0.321159l-0.335122,-0.125671l-1.075621,0.157961l-0.445084,-0.148361v-0.296723l0.296723,-0.667627l-0.111271,-0.556356l-1.223982,-1.372344l-1.669067,-1.149802l-1.928699,-0.778898l-2.00288,-0.111271l-0.593446,0.333813v0.445084l1.298163,0.741807Z "/>
</svg>
