<svg xmlns="http://www.w3.org/2000/svg" viewBox="368.335 85.617 24.978 11.421">
  <path d="M368.607836,92.190101l0.222542,0.123635l0.049454,0.173088l-0.222542,0.098908l-0.296723,-0.049454l-0.024727,-0.173088l0.074181,-0.148361l0.197815,-0.024727Z M368.830378,90.75594l0.469811,0.197815v0.197815l-0.197815,0.197815l0.024727,0.469811l0.222542,0.420358l0.543992,0.370904l0.049454,0.222542l-0.593446,0.346177l-0.098908,0.445084l0.123635,0.543992l0.247269,0.098908l0.197815,-0.098908l0.543992,0.049454l0.395631,0.222542l0.148361,0.420358l0.939623,0.395631h0.494538l0.222542,-0.173088l0.346177,-0.074181l0.370904,0.123635l0.098908,0.296723l0.865442,0.989077l1.805065,0.519265l1.310527,0.098908l0.791261,-0.32145l0.741807,-0.123635l2.299603,-0.618173l0.692354,-0.296723l0.593446,-0.074181l0.445084,0.173088l1.186892,0.098908l0.741807,-0.098908l0.6429,-0.420358l1.953426,-0.296723l1.829792,-0.766534l0.568719,-0.469811l0.024727,-0.32145l-0.197815,-0.32145l0.098908,-0.222542l0.296723,-0.222542v-0.519265l-0.197815,-0.247269v-0.271996l0.296723,-0.370904l0.049454,-0.568719l-0.271996,-0.247269l-0.692354,-0.049454l-0.890169,0.098908l-1.063257,0.024727l-0.840715,-0.148361l-0.6429,-0.32145l-0.6429,-0.098908l-0.6429,-0.346177l-0.049454,-0.271996l0.741807,-0.247269l2.175969,-0.148361l1.780338,-0.123635l0.494538,-0.247269l1.211619,-0.148361l1.434161,-0.395631l0.543992,-0.445084l0.445084,-0.890169l-0.074181,-0.519265l-0.420358,-0.346177l-1.706157,-0.271996l-4.846475,0.024727l-0.766534,0.197815l-0.173088,0.247269l-0.420358,0.123635l-0.6429,-0.074181l-0.519265,-0.222542h-1.35998l-1.829792,0.247269l-1.236346,0.519265l-0.395631,0.024727l-0.197815,-0.173088l-0.395631,-0.024727l-0.494538,0.247269l-0.939623,0.098908l-1.384707,0.420358l-1.409434,0.074181l-1.68143,0.494538l-1.211619,0.741807l-0.939623,0.074181l-0.494538,-0.098908l-0.543992,0.098908l-0.6429,0.914896l-0.074181,0.667627l0.32145,0.519265Z "/>
</svg>
