<svg xmlns="http://www.w3.org/2000/svg" viewBox="455.399 54.852 10.274 8.197">
  <path d="M455.399309,59.303303l0.111271,-1.186892l0.927259,-1.520705l1.372344,-0.853079l0.853079,-0.185452l0.890169,0.111271l0.482175,0.407994l0.630536,0.148361l1.446525,-0.185452l1.00144,0.03709l1.075621,0.593446l0.704717,1.186892l0.148361,0.853079l-0.111271,0.778898l0.333813,0.853079l0.407994,0.519265l-0.074181,0.741807l-0.890169,1.446525h-0.519265l-0.519265,-0.482175l-1.631976,-0.445084l-0.927259,-0.074181l-0.259633,-0.407994v-0.482175l0.259633,-0.296723v-0.333813l-1.186892,-0.630536l-0.927259,-0.148361l-0.778898,0.185452l-1.520705,0.111271l-0.778898,-0.111271l-0.519265,-0.630536Z M461.037046,55.482995l0.519265,-0.222542h0.482175l0.259633,-0.111271l-0.111271,-0.222542l-0.815988,-0.074181l-0.556356,0.222542l-0.074181,0.259633l0.296723,0.148361Z "/>
</svg>
