<svg xmlns="http://www.w3.org/2000/svg" viewBox="483.739 195.270 4.197 4.339">
  <path d="M484.18469,198.586689l0.371184,-0.334225l0.39593,-0.822709l0.247456,-0.115693l0.074237,-0.179968l-0.22271,-0.205677l-0.024746,-0.34708l-0.296947,-0.488483l0.074237,-0.154258h0.284574l0.556776,0.257096l0.185592,0.424209l-0.08661,0.822709l0.136101,0.257096l-0.074237,0.244242l-0.321693,0.179968l-0.061864,0.424209l0.247456,0.308516l0.717622,0.154258l0.098982,-0.128548l0.420675,-0.064274l0.544403,-0.539903l0.148474,-0.308516l-0.012373,-0.269951l0.210338,-0.565612l-0.012373,-0.488483l-0.804232,-0.729511l-0.643386,-0.337439l-0.866096,-0.257096l-0.655758,-0.051419l-0.643386,0.34708l-0.259829,0.591322l0.037118,0.192822l-0.049491,0.205677l-0.136101,0.102839l-0.024746,0.501338l0.296947,0.3985l-0.024746,0.205677l-0.197965,0.128548l-0.049491,0.282806l0.08661,0.295661l0.334066,0.064274Z M487.556278,196.214974l0.306227,0.077129l0.074237,-0.125335l-0.250549,-0.241028l-0.259829,-0.057847l-0.102076,0.08677l0.23199,0.26031Z M485.876671,199.300131l0.129914,0.057847l0.185592,-0.067488l0.027839,-0.115693l-0.194872,-0.106052l-0.167033,-0.019282l-0.092796,0.08677l0.111355,0.163899Z M485.616842,199.454389l0.129914,-0.009641l-0.102076,-0.231387l-0.157753,-0.067488l-0.092796,0.019282v0.154258l0.22271,0.134976Z M484.790957,199.570083l0.23199,0.038564l0.102076,-0.077129l-0.102076,-0.134976l-0.167033,-0.019282l-0.129914,0.106052l0.064957,0.08677Z M485.087905,199.300131l0.102076,0.048206l0.064957,-0.048206l-0.074237,-0.134976l-0.092796,-0.038564l-0.064957,0.077129l0.064957,0.096411Z "/>
</svg>
