<svg xmlns="http://www.w3.org/2000/svg" viewBox="559.618 234.655 8.943 6.122">
  <path d="M565.090818,237.557186l0.185592,-0.027839l0.148474,-0.185592l-0.037118,-0.102076l-0.185592,-0.00928l-0.148474,0.074237l-0.064957,0.176312l0.102076,0.074237Z M567.429277,240.285388v-0.092796l-0.324786,-0.037118l-0.204151,-0.083516l-0.00928,-0.092796l0.148474,-0.046398l0.408302,0.102076l0.306227,-0.027839l0.037118,-0.129914l-0.139194,-0.167033l0.064957,-0.139194l0.300768,-0.11593l-0.068778,-0.171738l-0.420675,-0.089703h-1.187789l-0.836711,-0.31077l-0.250398,-0.05821l-0.672922,-0.469278l-0.310867,-0.047848l-0.102076,-0.083516l0.143834,-0.242913l0.315828,-0.034969l0.18991,-0.186099l0.092796,-0.361904l-0.00928,-0.22271l-0.282966,-0.365944l-0.822756,-0.396239l-0.668131,-0.371184l-0.259829,-0.284574l-0.004833,-0.205214l-0.079873,-0.150087l-0.226354,-0.0125l-0.15466,0.197965l-0.177666,-0.065247l-0.057418,-0.151277l-0.216524,-0.117542l-0.346438,0.024746l-0.24127,-0.117542l-0.216524,-0.117542l-0.389743,-0.043305l-0.488726,-0.334066l-0.483989,-0.00841l-0.120538,0.097822l-0.042,0.279668l0.029627,0.277108l0.08944,0.314813l0.417845,0.551283l0.457794,0.148474l0.490663,-0.012913l0.359871,0.133161l0.060276,0.164882l0.001588,0.218675l0.098982,0.259829l0.321693,0.160846l0.049491,0.197965l-0.078603,0.154065l-0.026566,0.19856l0.117542,0.080423l0.049491,0.266015l0.006186,0.281481l-0.191778,0.238176l0.055678,0.142287l0.37737,0.176312l0.185592,-0.111355l0.120635,0.037118l0.111355,0.194872l0.330972,0.061864l0.080423,-0.061864l-0.066536,-0.137182l0.109841,-0.097901l0.253642,-0.018559l0.228623,-0.193045l0.340525,-0.07297l0.111355,0.074237l-0.08661,0.160846l0.098982,0.074237l0.383557,-0.012373l0.235083,0.08661l-0.024746,0.111355l-0.519658,0.148474l-0.129041,0.176356l-0.047272,0.228853l-0.22271,0.157753l0.00928,0.22271l0.167033,0.037118l0.14621,-0.222544l0.234254,-0.009446l0.254953,0.195335l0.403899,0.083053l0.470166,-0.114448l0.742368,0.061864l0.655644,0.287263l0.233859,0.006025l0.310659,-0.055111Z M563.228712,239.873993l0.197965,0.018559l0.136101,-0.105169l0.043305,-0.204151l-0.049491,-0.074237h-0.080423l-0.30932,0.204151l-0.012373,0.117542l0.074237,0.043305Z M565.635221,238.061377l0.334066,0.259829l0.581522,-0.012373l0.30932,-0.179406l0.61864,-0.018559l0.049491,-0.148474l-0.253642,-0.228897l-0.426862,-0.06805l-1.175416,0.142287l-0.092796,0.08661l0.055678,0.167033Z M568.273721,240.740089l0.139194,0.037118l0.148474,-0.046398l-0.00928,-0.111355l-0.074237,-0.055678l-0.120635,0.00928l-0.102076,0.092796l0.018559,0.074237Z "/>
</svg>
