<svg xmlns="http://www.w3.org/2000/svg" viewBox="606.867 210.009 15.061 12.631">
  <path d="M611.155333,222.640228l0.69017,-0.253588l0.788766,-0.025359l0.591575,-0.177511l0.640872,-0.025359l1.380341,0.126794l1.651479,-0.20287l0.320436,-0.278946l0.517628,-0.228229h0.517628l0.295787,-0.152153l0.024649,-0.253588l0.295787,-0.177511l0.542277,-0.025359l1.503585,-1.039709l0.640872,-1.267938l0.22184,-1.039709l-0.123245,-1.318656l-0.517628,-1.673679l0.123245,-0.633969l0.591575,-0.760763l0.073947,-0.963633l-0.295787,-0.583252l-0.838064,-0.532534l-1.971915,-0.355023l-0.69017,-0.380382l-1.478936,-0.40574l-0.93666,0.025359l-0.271138,0.355023l-0.591575,0.177511l-1.010606,-0.20287l-0.147894,-0.253588l-0.369734,-0.025359l-0.419032,0.304305l-0.69017,0.152153l-1.404989,0.583252l-1.651479,1.775114l-1.331043,2.028701l-0.838064,1.775114l-0.123245,0.938274l0.46833,2.637312l0.887362,1.724396l0.764117,0.456458l2.169107,0.177511Z "/>
</svg>
