<svg xmlns="http://www.w3.org/2000/svg" viewBox="692.148 415.108 16.086 9.230">
  <path d="M704.79056,424.118908l-0.334066,0.125275l-0.482539,0.018559l-0.23663,0.041758l-0.347985,0.00464l-0.106715,-0.023199l-0.102076,0.00928l-0.041758,0.041758h-0.051038l-0.037118,-0.032479l-0.436141,-0.018559l-0.199511,-0.115995l-0.046398,-0.064957l-0.171673,-0.129914l-0.00928,-0.032479l0.064957,-0.032479l-0.013919,-0.041758l-0.148474,-0.083516l-0.180952,-0.167033l-0.00464,-0.055678l0.069597,-0.046398h0.083516l0.013919,-0.037118l-0.074237,-0.023199l-0.343345,0.051038l-0.213431,0.041758h-0.208791l-0.00928,-0.037118l0.083516,-0.037118l0.041758,-0.069597l0.088156,-0.013919l0.074237,0.018559l0.292307,-0.115995l0.046398,-0.064957l0.055678,-0.013919h0.060317l0.051038,-0.027839l0.037118,-0.051038l0.153113,-0.106715l0.00928,-0.106715l0.069597,-0.064957l-0.013919,-0.051038l-0.060317,-0.046398l-0.018559,-0.139194l-0.069597,-0.074237l-0.027839,0.023199l0.037118,0.111355l-0.027839,0.129914l-0.120635,0.097436l-0.143834,0.027839l-0.134554,-0.060317l-0.00928,-0.134554l0.097436,-0.153113l0.097436,-0.055678l-0.00928,-0.092796l-0.180952,-0.097436h-0.134554l-0.037118,0.055678l0.018559,0.064957l-0.041758,0.060317l-0.139194,-0.00464l-0.027839,-0.037118l0.023199,-0.046398l-0.032479,-0.055678l-0.426862,-0.055678l-0.074237,0.013919l-0.139194,-0.032479l-0.027839,-0.106715l0.120635,-0.134554l0.055678,-0.106715l0.148474,-0.027839l0.069597,0.041758l0.046398,-0.00464v-0.051038l-0.069597,-0.069597l0.023199,-0.051038h0.069597l0.046398,-0.051038l0.037118,-0.111355l0.269108,-0.180952l0.180952,-0.046398l0.111355,-0.069597l0.102076,-0.167033l0.046398,-0.032479l0.083516,0.00464l0.013919,-0.032479l-0.055678,-0.023199l-0.088156,0.018559l-0.162393,0.199511l-0.283028,0.078877l-0.320146,0.143834l-0.176312,0.180952l-0.041758,0.083516l-0.134554,0.115995l-0.060317,0.115995l-0.134554,0.018559l-0.129914,-0.143834l-0.097436,-0.032479l-0.041758,-0.102076l-0.129914,-0.083516l-0.018559,0.023199l0.083516,0.078877l0.023199,0.111355l0.055678,0.046398l0.074237,0.018559l0.041758,0.097436l0.00464,0.092796l-0.055678,0.037118l-0.102076,-0.032479l-0.134554,0.046398l-0.078877,0.120635l-0.148474,0.027839l-0.115995,-0.00928l-0.018559,-0.074237l0.046398,-0.102076l-0.032479,-0.013919l-0.064957,0.106715l-0.00464,0.069597l-0.051038,0.00928l-0.088156,-0.051038l-0.129914,-0.027839l-0.018559,0.032479l0.153113,0.051038l0.088156,0.055678l0.162393,0.00928l0.069597,0.037118l0.143834,0.00464l0.078877,-0.051038l0.134554,-0.023199l0.046398,-0.064957l0.115995,-0.041758l0.115995,0.00928l0.064957,0.111355l-0.037118,0.078877l-0.190232,0.139194l-0.306227,0.092796l-0.074237,0.064957l-0.00928,0.074237l-0.023199,0.032479l-0.171673,0.018559l-0.111355,-0.041758l-0.060317,-0.055678l-0.171673,-0.074237l-0.083516,-0.00464l-0.380464,-0.153113l-0.111355,0.00928l-0.115995,-0.046398l-0.088156,-0.097436l0.013919,-0.037118l-0.032479,-0.023199l-0.111355,0.037118l-0.088156,-0.027839l-0.115995,-0.106715l-0.013919,-0.064957l-0.046398,-0.027839l-0.125275,0.078877l-0.167033,-0.00928l-0.041758,-0.055678h-0.055678l-0.018559,0.055678l-0.051038,0.00464l-0.069597,-0.064957l-0.092796,-0.00928l-0.023199,0.032479l-0.055678,0.00928l-0.296947,-0.111355l-0.060317,0.013919l-0.051038,-0.032479v-0.060317l-0.148474,-0.097436h-0.083516l-0.078877,-0.064957l-0.00464,-0.167033l-0.041758,-0.046398l-0.060317,0.00928l-0.046398,-0.023199l-0.032479,-0.097436l-0.125275,-0.088156l-0.167033,-0.060317l-0.051038,-0.055678l-0.115995,-0.046398l-0.060317,0.032479l-0.064957,-0.027839l0.023199,-0.143834l0.074237,-0.013919l0.046398,0.023199l0.064957,0.00928l0.032479,-0.037118l-0.027839,-0.051038l-0.194872,-0.180952l0.023199,-0.032479l0.060317,0.013919l0.171673,0.129914l0.171673,0.060317l0.069597,-0.027839h0.088156l0.00928,-0.041758l-0.111355,-0.037118l-0.153113,-0.125275v-0.069597l0.069597,-0.032479v-0.051038l-0.375824,-0.013919l-0.218071,0.00464l-0.329426,-0.060317l-0.213431,-0.134554l-0.120635,0.018559l-0.037118,0.064957l0.041758,0.041758l-0.00464,0.046398l-0.296947,0.092796l-0.22735,-0.013919l-0.180952,-0.064957l-0.301587,-0.041758l-0.190232,0.00464l-0.069597,-0.037118l-0.018559,-0.106715l0.00464,-0.143834l0.069597,-0.102076l0.051038,-0.013919l0.046398,0.041758l0.037118,-0.023199l-0.00928,-0.120635l0.037118,-0.051038v-0.088156l-0.046398,-0.310867l0.013919,-0.139194l0.115995,-0.129914l0.060317,-0.046398l0.060317,0.00464l0.023199,-0.032479l-0.037118,-0.046398l0.013919,-0.051038l0.092796,-0.051038l0.00464,-0.060317l-0.046398,-0.023199l-0.097436,0.00928l-0.023199,-0.051038l0.037118,-0.041758l-0.023199,-0.185592l0.027839,-0.088156l0.055678,-0.046398l-0.027839,-0.032479l-0.083516,0.027839l-0.092796,0.106715l-0.032479,0.111355l-0.088156,0.111355l-0.088156,0.00928l-0.148474,-0.051038l-0.204151,-0.129914l-0.027839,-0.064957l-0.143834,-0.074237l-0.106715,-0.00464l-0.125275,0.032479h-0.190232l-0.083516,-0.027839l-0.115995,0.00928l-0.083516,0.037118l-0.199511,0.023199l-0.055678,-0.018559l-0.064957,0.00464l-0.051038,0.037118l-0.092796,-0.023199l-0.148474,-0.278388l-0.023199,-0.23663l0.023199,-0.22271l0.083516,-0.139194l0.078877,-0.060317l0.037118,-0.051038l0.013919,-0.046398l0.055678,-0.060317l0.064957,-0.046398l0.440781,-0.394383l0.185592,-0.23199l0.134554,-0.264469l0.088156,-0.218071l0.092796,-0.157753l0.213431,-0.269108l0.176312,-0.153113l0.269108,-0.148474l0.171673,-0.111355l0.180952,-0.097436l0.23663,-0.22271l0.032479,-0.078877l0.134554,-0.185592l0.064957,0.00464l0.032479,0.153113l-0.037118,0.528937l0.00464,0.250549l0.088156,0.24127l0.032479,0.190232l-0.046398,0.148474l-0.139194,0.125275l-0.148474,0.208791l-0.055678,0.051038l-0.074237,-0.046398l-0.023199,-0.120635l-0.092796,-0.051038l-0.00928,0.037118l0.051038,0.046398l0.027839,0.120635l0.078877,0.069597l-0.00928,0.106715l-0.106715,0.111355l-0.023199,0.055678l0.037118,0.069597l-0.055678,0.018559l-0.051038,-0.037118l-0.111355,0.00464l-0.027839,0.064957l-0.041758,0.013919l-0.078877,-0.069597l-0.069597,0.032479l-0.083516,0.111355l-0.102076,0.051038l-0.037118,0.074237l-0.088156,0.032479l0.00928,0.037118l0.106715,-0.032479l0.083516,-0.083516l0.106715,-0.055678l0.032479,-0.051038l0.070824,-0.005421l0.124047,0.02862l0.055678,0.046398l0.041758,0.115995l-0.027839,0.176312l0.051038,0.055678l-0.00464,0.051038l-0.097436,0.027839l-0.064957,0.078877l0.032479,0.046398l0.088156,-0.00464l0.037118,-0.064957l0.115995,0.00464l0.060317,0.032479l0.041758,-0.018559l-0.018559,-0.069597l-0.106715,-0.046398l-0.018559,-0.064957l-0.055678,-0.046398l0.013919,-0.125275l0.051038,-0.00928l0.125275,0.120635l0.069597,-0.00464l0.037118,-0.055678h0.060317l0.148474,0.083516l0.176312,0.23663l0.245909,0.162393l0.092796,0.092796l0.023199,0.097436l0.074237,0.055678l0.069597,0.00928l0.055678,0.092796l-0.00928,0.120635l0.037118,0.125275l-0.027839,0.029385l-0.148474,-0.047945l-0.055678,-0.074237l-0.023199,0.013919l0.041758,0.088156l0.037118,0.134554h0.037118l0.023199,-0.051038 l0.054131,-0.010826l0.064957,0.061864l0.083516,0.006186l0.15002,0.091249v0.060317l-0.055678,0.083516l-0.083516,0.185592l-0.018559,0.115995l-0.100529,0.109809l-0.111355,0.064957l-0.122181,0.006186l-0.083516,0.055678l-0.069597,0.129914l-0.120635,0.074237l0.023199,0.032479l0.143834,-0.055678l0.088156,-0.111355l0.162393,-0.051038l0.055678,-0.064957l0.055678,-0.00464l0.055678,0.037118l0.106715,-0.00464l0.092796,-0.088156l0.051038,0.013919l0.023199,0.074237l0.083516,0.041758l0.032479,0.083516l-0.013919,0.134554l-0.060317,0.023199h-0.074237l-0.097436,0.051038l0.00928,0.041758l0.143834,0.00928l0.143834,0.055678l0.032479,0.051038l0.069597,0.00928l0.069597,-0.032479l0.24127,0.051038l0.088156,0.041758l0.092796,-0.013919v-0.046398l-0.032479,-0.041758l0.018559,-0.064957h0.092796l0.00928,-0.051038l-0.058771,-0.095889l-0.102076,-0.015466l-0.027839,-0.024746l0.006186,-0.052584l-0.037118,-0.027839h-0.111355l-0.003093,-0.066504l0.049491,-0.066504l0.100508,-0.051299l0.026313,-0.04459l0.05575,-0.019396l0.060245,0.005477l0.032479,-0.017013l-0.024746,-0.058771l-0.091249,-0.035572l-0.088156,-0.00464l-0.00928,-0.051038l0.074237,-0.088156v-0.083516l0.060317,-0.032479l0.074237,0.018559l0.037118,0.060317l0.055678,0.013919l0.032479,0.041758l0.013919,0.069597l0.074237,0.023199l0.069597,-0.018559l0.00464,-0.078877l-0.069597,-0.097436l-0.049491,-0.037118l0.003093,-0.041758l0.092796,-0.001547l0.245909,0.066504l0.394383,0.15002l0.340252,0.055678l0.126821,0.089703l0.015466,0.089703l-0.040212,0.07733l-0.018559,0.129914l-0.095889,0.123728l-0.157753,0.015466l0.003093,0.027839l0.102076,0.00928l0.105169,-0.024746l0.046398,-0.061864l0.055678,-0.102076l0.040212,0.00928l0.092796,0.089703l0.021652,0.08661h0.046398l0.080423,-0.071144l0.037118,-0.092796l0.092796,-0.046398l0.00928,-0.061864l-0.306227,-0.058771l0.00928,-0.024746l0.188685,0.018559l0.228897,0.049491l0.136101,0.012373l0.080423,-0.012373l0.306227,0.052584l0.083516,0.049491l0.102076,0.191778l-0.006186,0.136101l-0.055678,0.055678l-0.027839,0.074237l0.037118,0.012373l0.046398,-0.071144l0.071144,-0.058771l0.055678,0.018559l0.012373,0.102076l0.061864,0.083516l0.173219,0.015466l0.015466,0.043305l-0.061864,0.092796l0.021652,0.024746l0.129914,-0.024746l0.06805,-0.055678l-0.00928,-0.102076l-0.142287,-0.064957l-0.074237,0.006186l-0.089703,-0.046398l0.012373,-0.030932l0.08661,0.00928l0.170126,0.06805l0.22271,0.021652l0.24127,-0.003093v0.040212l-0.105169,0.027839h-0.117542l-0.021652,0.034025l0.021652,0.049491l0.105169,0.012373l0.018559,-0.061864l0.037118,-0.006186l0.049491,0.030932l0.108262,0.015466l0.043305,0.06805l0.003093,0.052584l0.037118,0.012373l0.037118,-0.052584l-0.012373,-0.098982l-0.092796,-0.034025l-0.074237,-0.046398l0.006186,-0.040212l0.14538,0.030932l0.244363,0.074237l0.266015,0.021652l0.055678,0.043305l0.034025,0.07733l0.06805,0.024746l0.102076,0.012373l0.021652,0.043305l-0.027839,0.043305l-0.123728,-0.00928l-0.148474,0.040212l0.012373,0.034025l0.08661,0.024746l0.080423,-0.003093l0.080423,-0.030932l0.052584,0.00928l0.043305,0.092796l0.061864,0.052584l0.046398,-0.015466l-0.018559,-0.098982l0.00928,-0.151567l0.040212,-0.058771l0.00928,-0.089703l-0.083516,-0.030932l-0.281481,0.015466l-0.034025,-0.015466l0.034025,-0.024746l0.3186,-0.018559l0.303134,-0.043305l0.126821,-0.046398l0.284574,-0.046398l0.197965,0.00928l0.006186,0.043305l-0.021652,0.07733l-0.071144,0.071144l0.003093,0.024746l0.133008,0.003093l0.092796,-0.034025l-0.003093,-0.055678l-0.07733,-0.080423l0.003093,-0.040212l0.188685,-0.021652l0.253642,-0.055678l0.151567,0.006186l0.083516,0.071144l0.157753,0.018559l0.098982,0.06805l0.052584,0.003093l0.021652,-0.034025l0.080423,0.006186l0.064957,0.055678l0.043305,0.003093l0.037118,-0.046398l0.08661,0.00928l0.080423,0.040212l0.188685,0.012373l-0.003093,-0.040212l-0.125275,-0.057224l-0.283028,-0.035572l-0.151567,-0.080423h-0.102076l-0.129914,0.015466l-0.074237,-0.015466v-0.040212l0.157753,-0.07733l0.436141,-0.102076l0.340252,0.003093l0.327879,-0.006186l0.216524,-0.046398l0.213431,-0.003093l0.07733,0.018559l0.228897,0.012373l0.07733,0.021652l0.405209,-0.012373l0.535124,-0.049491l0.275295,-0.055678l0.157753,-0.00928l0.120635,0.00928l0.06805,-0.012373l0.15466,0.00928l0.092796,0.037118l0.374277,0.071144l0.210338,0.00928l0.15466,0.018559l0.07733,0.030932l0.07733,0.006186l0.027839,-0.018559l0.034025,0.003093l0.024746,0.040212l0.06805,0.043305l0.006186,0.037118l-0.07733,0.074237l-0.250549,0.16394l-0.250549,0.126821l-0.151567,0.111355l-0.176312,0.142287l-0.191778,0.08661l-0.095889,0.003093l-0.095889,0.030932l-0.027839,0.058771l-0.095889,0.049491l-0.083516,-0.003093l-0.275295,0.040212l-0.142287,-0.064957l-0.064957,0.003093l-0.046398,0.126821l-0.071144,0.006186l-0.083516,-0.040212l-0.111355,-0.08661l-0.162393,-0.029385l-0.112902,0.010826l-0.006186,0.024746l0.095889,0.058771l0.061864,0.003093l0.00928,0.030932l-0.058771,0.046398l-0.030932,0.080423l-0.074237,0.034025v0.034025l0.170126,0.074237l-0.00928,0.024746l-0.210338,0.012373l-0.111355,-0.046398l-0.108262,-0.00928l0.00928,0.037118l0.089703,0.021652l0.095889,0.08661l0.021652,0.049491l0.071144,0.052584l-0.00928,0.030932l-0.111355,0.018559l-0.07733,-0.021652l-0.018559,0.021652l0.055678,0.034025l0.046398,0.092796l-0.024746,0.00928l-0.052584,-0.034025l-0.207244,-0.083516l-0.018559,0.021652l0.027839,0.046398l-0.006186,0.037118l-0.034025,-0.003093l-0.043305,-0.055678l-0.148474,-0.058771l-0.207244,-0.00928l-0.080423,-0.046398l-0.024746,0.018559l0.064957,0.08661l0.098982,0.006186l0.089703,0.024746l0.102076,0.111355l0.061864,0.018559l0.06805,-0.006186l0.046398,0.040212l0.027839,0.129914l0.037118,0.055678l-0.015466,0.061864l-0.139194,0.027839l-0.197965,0.015466l-0.095889,-0.030932l-0.098982,-0.012373l-0.07733,0.027839l-0.06805,-0.012373l-0.024746,-0.034025l-0.105169,-0.040212l-0.037118,-0.030932l-0.064957,-0.018559l-0.06805,0.012373l-0.08661,-0.015466l-0.046398,0.006186l-0.083516,-0.034025l-0.058771,-0.034025l-0.021652,0.018559l0.043305,0.046398l0.108262,0.049491l0.111355,0.006186l0.151567,0.049491l0.08661,0.064957l0.034025,0.049491l0.129914,0.092796l0.052584,0.095889l-0.027839,0.040212l-0.07733,-0.00928l-0.052584,-0.043305l-0.071144,0.003093l-0.06805,-0.024746l-0.207244,-0.126821l-0.080423,-0.012373l-0.064957,-0.040212l-0.08661,-0.003093l-0.006186,0.024746l0.07733,0.021652l0.046398,0.030932l0.098982,0.021652l0.105169,0.064957l-0.00928,0.030932l-0.136101,-0.003093l-0.266015,0.08661l0.003093,0.024746l0.148474,-0.037118l0.129914,-0.012373l0.102076,0.021652h0.092796l0.157753,0.064957l0.003093,0.052584l-0.06805,0.061864l-0.052584,0.012373l-0.003093,0.037118l0.08661,0.037118l-0.003093,0.037118l-0.058771,0.021652l-0.034025,0.043305l0.021652,0.043305l0.040212,0.006186l0.043305,-0.015466l0.089703,0.015466l0.027839,0.043305l0.074237,0.012373l0.046398,-0.049491l0.142287,-0.012373l0.018559,-0.040212l-0.012373,-0.046398l-0.07733,-0.018559l-0.092796,0.012373l-0.040212,-0.018559l-0.006186,-0.043305l0.034025,-0.052584l0.123728,-0.015466l0.064957,0.024746l0.034025,0.055678l0.012373,0.120635l0.052584,0.117542l0.049491,0.055678l-0.006186,0.14538l-0.083516,0.092796l-0.037118,0.07733l-0.049491,0.151567l-0.037118,0.006186l-0.064957,-0.018559l-0.176312,0.030932l-0.083516,-0.018559l-0.034025,-0.037118l-0.030932,0.00928l0.00928,0.083516l-0.046398,0.043305l-0.058771,0.018559l-0.052584,-0.015466l-0.043305,0.021652l-0.015466,0.049491l-0.207244,0.061864l-0.024746,0.024746l0.021652,0.021652l0.235083,-0.071144l0.030932,-0.030932l0.120635,-0.018559l0.151567,0.08661h0.046398l0.024746,0.024746v0.030932l0.043305,0.00928l0.071144,-0.043305l0.111355,-0.030932l0.114448,0.006186l0.021652,0.040212l-0.049491,0.108262l-0.211884,0.153113Z M694.355649,417.491727h0.040212l0.006186,-0.021652l-0.027839,-0.021652l-0.052584,-0.006186l-0.021652,0.021652l0.055678,0.027839Z M694.565987,417.402024l0.043305,-0.015466l0.003093,-0.052584l-0.021652,-0.018559l-0.058771,0.015466l-0.00928,0.030932l0.043305,0.040212Z M694.640223,417.111264l-0.003093,0.06805h0.021652l0.027839,-0.07733v-0.058771h-0.024746l-0.021652,0.06805Z M694.668062,417.398931l0.089703,0.160846l0.00928,0.052584l0.018559,0.030932l0.024746,-0.00928l-0.043305,-0.157753l-0.114448,-0.194872l-0.018559,0.00928l0.034025,0.108262Z M695.475387,418.283586l0.021652,-0.015466l-0.213431,-0.194872l-0.105169,-0.083516l-0.290761,-0.275295l-0.024746,0.003093l0.006186,0.034025l0.185592,0.16394l0.00928,0.043305l0.027839,0.021652l0.040212,0.00928l0.052584,0.043305l0.006186,0.037118l0.034025,0.024746l0.043305,0.012373l0.098982,0.098982l0.108262,0.07733Z M695.561997,418.379476l0.052584,0.024746l0.024746,-0.012373l-0.055678,-0.071144l-0.034025,-0.012373l-0.024746,0.021652l0.037118,0.049491Z M695.800174,418.800151l-0.00928,0.043305l-0.037118,0.015466l-0.018559,0.034025l0.07733,0.055678l0.080423,-0.018559l0.055678,-0.049491l0.015466,-0.049491l-0.111355,-0.120635l-0.129914,-0.018559l-0.015466,0.037118l0.092796,0.071144Z M696.010511,418.716634l0.201058,0.136101l0.037118,0.058771l-0.015466,0.071144l0.037118,0.027839l0.117542,-0.06805l0.074237,0.030932l0.061864,0.061864l0.120635,0.074237l0.07733,0.012373l0.003093,-0.040212l-0.615547,-0.37737l-0.259829,-0.14538l-0.024746,0.015466l0.185592,0.142287Z M696.02907,419.007395l0.046398,-0.024746l-0.006186,-0.027839l-0.049491,-0.015466l-0.040212,0.018559l-0.003093,0.037118l0.052584,0.012373Z M696.295086,419.613662l0.058771,0.015466l0.021652,-0.018559l-0.058771,-0.07733l-0.043305,0.006186l-0.018559,0.040212l0.040212,0.034025Z M696.523982,419.502307l0.018559,-0.021652l-0.003093,-0.024746l-0.027839,-0.012373l-0.027839,0.018559l0.006186,0.030932l0.034025,0.00928Z M696.460378,419.737052l0.002465,-0.032044l-0.017254,-0.022184l-0.022184,-0.002465l-0.012324,0.024649l0.022184,0.029579l0.027114,0.002465Z M696.288899,420.857129v-0.027839l-0.015466,-0.024746l-0.027839,0.00928l0.003093,0.030932l0.018559,0.021652l0.021652,-0.00928Z M700.248195,423.023915l0.064957,-0.041758l-0.00464,-0.055678l-0.046398,-0.00928l-0.078877,0.055678l-0.00464,0.046398l0.069597,0.00464Z M701.040054,422.855336l0.040212,0.003093l0.040212,-0.018559l-0.00464,-0.024746h-0.060317l-0.037118,0.023199l0.021652,0.017013Z M704.774465,423.784408l0.022184,-0.00493l0.017254,-0.014789l-0.017254,-0.022184l-0.034509,0.00493l-0.00986,0.024649l0.022184,0.012324Z M705.272374,422.404067l0.078877,0.00493l0.066552,0.054228l0.017254,-0.012324l-0.061622,-0.086271l-0.096131,-0.041903l-0.051763,0.00986l-0.012324,0.041903l0.059157,0.029579Z "/>
</svg>
