<svg xmlns="http://www.w3.org/2000/svg" viewBox="304.640 91.052 50.024 27.707">
  <path d="M336.33303,96.004227l0.148361,-0.092726l0.203997,-0.018545l0.092726,0.111271l-0.092726,0.074181l-0.248724,0.001091l-0.103635,-0.075272Z M342.329234,95.339437l0.097744,0.083781l0.209452,0.027927l0.097744,-0.097744l-0.083781,-0.097744l-0.209452,-0.027927l-0.111707,0.111707Z M343.432345,94.501631h0.40494l0.04189,-0.083781l-0.097744,-0.125671h-0.377013l-0.125671,0.083781l0.153598,0.125671Z M353.304494,91.192297h0.097744l0.04189,-0.069817l-0.055854,-0.055854l-0.083781,-0.013963l-0.04189,0.069817l0.04189,0.069817Z M352.005894,91.331931l0.670245,0.307196l0.265305,-0.013963l-0.055854,-0.153598l-0.474757,-0.321159l-0.460793,-0.097744l-0.181525,0.055854l0.237378,0.223415Z M350.581624,92.770165l0.48872,0.125671l0.390976,-0.027927l-0.013963,-0.097744l-0.44683,-0.195488l-0.544574,-0.013963l-0.153598,0.055854l0.279269,0.153598Z M330.454206,114.085784l0.370904,-0.148361l0.333813,-0.445084l0.556356,-0.185452l0.222542,-0.407994l-0.03709,-0.482175l-0.296723,-0.370904l0.03709,-0.407994l0.482175,-0.296723l1.261073,-0.111271l0.704717,-0.556356v-0.890169l-0.815988,-0.815988l-1.409434,-0.445084l-0.074181,-0.296723l0.519265,-0.407994l0.556356,0.03709l0.667627,0.407994h1.03853l1.149802,-0.853079v-0.667627l-0.704717,-0.667627l-0.074181,-0.556356l0.222542,-0.111271l0.407994,0.148361l0.407994,-0.185452l-0.074181,-0.482175l0.296723,-0.259633l0.96435,0.111271l0.445084,0.148361l0.630536,-0.222542l0.333813,-0.519265l0.370904,-0.148361l0.445084,0.222542l0.111271,0.593446l-0.445084,0.778898l-0.593446,0.407994l-0.407994,0.927259v0.890169l-0.333813,0.630536l0.03709,1.075621l1.186892,1.03853l1.706157,0.741807l1.854519,0.185452l1.706157,-0.519265l0.593446,-0.815988l-0.148361,-1.03853l-0.370904,-0.778898l0.03709,-0.445084l0.296723,-0.222542l1.261073,-0.259633l1.483615,0.111271l1.706157,-0.259633l1.520705,-0.593446l0.407994,-0.593446l0.407994,-0.222542l0.222542,-0.482175l0.03709,-0.482175l-0.370904,-0.778898l-1.261073,-0.630536l-0.853079,-0.296723l-0.445084,-0.630536l0.074181,-0.259633h0.815988l1.372344,0.519265l0.853079,0.03709l0.778898,-0.333813l0.111271,-0.259633l-0.482175,-0.482175l-1.743248,-0.556356l-0.890169,-0.370904l-0.407994,-0.593446l-0.630536,-0.482175l0.074181,-0.222542l0.741807,0.148361l0.148361,-0.259633l-0.148361,-0.445084l0.148361,-0.185452l1.223982,-0.074181l3.041411,-0.927259l0.840715,-0.618173v-0.445084l-1.767974,-1.087984l-1.743248,-0.630536l-0.593446,-0.519265l-1.223982,-0.519265l-1.669067,-0.222542l-2.336693,0.259633l-0.148361,0.185452l0.556356,0.111271v0.222542l-1.149802,0.370904h-0.778898l-0.111271,0.222542l0.741807,0.630536l0.890169,0.296723l1.372344,0.03709l0.074181,0.259633l-0.890169,0.445084l-0.593446,0.111271l-1.483615,-0.482175l-0.370904,0.111271l0.111271,0.259633l0.556356,0.333813l-0.148361,0.222542h-1.261073l-2.485055,-0.556356l-0.890169,-0.407994l-1.743248,-0.111271l-1.00144,0.259633l-3.486495,-0.111271l-2.522145,0.445084l-0.927259,0.445084l-0.593446,1.03853l-0.593446,0.630536l-2.151242,0.96435l-1.96579,1.409434l-0.556356,0.445084l-0.593446,0.853079l-1.186892,0.482175l-0.111271,0.333813l0.222542,0.333813l0.03709,0.259633l-1.298163,0.778898l-1.335253,0.296723l-0.667627,0.482175l-0.704717,0.185452l-1.00144,-0.03709l-0.445084,0.259633l-0.259633,0.593446l-0.96435,0.630536l-0.259633,0.445084l0.111271,0.556356l-0.370904,0.556356l-1.075621,0.482175l-1.149802,0.074181l-0.556356,-0.259633l-0.853079,-0.03709l-2.114151,0.407994l-1.483615,0.482175l-0.519265,0.519265l-0.111271,0.667627l-0.296723,0.519265l-1.631976,1.261073l-0.407994,0.704717l0.185452,0.185452l0.519265,-0.03709l1.186892,-0.704717l0.853079,-0.185452l0.185452,0.259633l-0.296723,0.259633l-0.519265,0.111271l0.03709,0.185452l0.519265,0.03709l0.556356,-0.111271l0.259633,0.185452l-0.259633,0.593446l-0.853079,0.667627l-0.222542,0.519265l0.519265,0.370904l1.261073,0.111271l0.815988,-0.148361l1.03853,-0.667627l0.259633,-0.370904l1.149802,-0.333813l2.336693,0.482175l1.03853,0.853079l0.593446,0.148361l0.482175,-0.148361l0.519265,-0.407994l0.630536,-0.259633l0.407994,0.03709l0.185452,0.259633l0.296723,0.03709l0.111271,-0.593446l-0.519265,-0.519265v-0.927259l0.482175,-0.667627l0.482175,-0.03709l0.890169,0.259633l0.185452,0.407994l-0.222542,0.853079l0.111271,0.593446l0.667627,0.445084l0.593446,-0.074181l0.370904,0.296723l-0.03709,0.890169l-0.259633,0.556356l0.407994,0.519265l1.112711,0.074181l0.556356,-0.890169l0.333813,-0.074181l0.445084,0.370904l1.075621,0.074181l1.149802,-0.370904l0.370904,-0.815988l0.445084,-0.482175h0.333813l0.222542,0.185452l0.333813,-0.111271v-0.667627l-0.778898,-0.667627l-1.261073,-0.370904v-0.185452l0.630536,-0.074181l0.630536,0.111271l0.259633,-0.185452l-0.556356,-0.370904l0.111271,-0.259633l0.407994,-0.074181v-0.296723l-0.519265,-0.593446v-0.741807l0.667627,-0.593446l0.407994,0.111271l0.222542,1.075621l0.704717,0.741807l0.148361,0.741807l0.370904,0.407994l0.927259,0.445084Z M317.398394,105.480818l1.112711,-0.148361l0.259633,-0.222542l-0.074181,-0.185452h-0.704717l-0.704717,0.111271l-0.222542,0.296723l0.333813,0.148361Z M317.806388,117.312647l-0.407994,0.407994l-0.482175,0.074181l-0.667627,0.519265v0.259633l1.261073,0.185452l0.778898,-0.519265l0.667627,-1.483615l-0.259633,-0.704717h-0.482175l-0.296723,0.370904l-0.111271,0.890169Z M307.161451,116.64502l0.519265,-0.03709l0.296723,0.185452l0.667627,0.185452l0.593446,-0.111271l0.074181,-0.259633l-0.519265,-0.296723l-1.372344,-0.074181l-0.556356,0.222542l0.296723,0.185452Z M304.936029,115.087224l1.298163,-0.148361l0.630536,-0.296723l0.03709,-0.222542l-0.96435,-0.111271l-1.00144,0.259633l-0.296723,0.259633l0.296723,0.259633Z "/>
</svg>
