<svg xmlns="http://www.w3.org/2000/svg" viewBox="555.056 235.216 3.915 6.174">
  <path d="M555.228053,238.39438l0.295787,0.665521l0.476159,0.378337l0.70699,0.237886l0.369734,0.492979l0.197192,0.542277l0.616223,0.443681l0.593604,-0.201541l0.30468,-0.327879l0.182213,-0.417837l-0.033739,-0.571987l-0.343273,-0.307687l-0.176385,-0.533663l-0.452885,-0.84848l-0.696239,-0.834221l-0.117445,-0.566056l-0.69017,-0.542277l-0.887362,-0.123245l-0.394383,0.295787l-0.125275,0.55262l0.259829,0.296947l0.018559,0.445421l-0.144075,0.279268l0.040259,0.644149Z M555.539016,235.59919l0.482539,-0.049491l0.037118,-0.148474l-0.30932,-0.185592l-0.334066,0.024746l-0.098982,0.235083l0.22271,0.123728Z M558.279591,241.389661l0.287668,-0.102076l0.00928,-0.129914l-0.129914,-0.055678l-0.23199,0.111355l-0.055678,0.129914l0.120635,0.046398Z M558.530141,238.401629l0.111355,-0.046398l0.027839,-0.204151l-0.111355,-0.213431l-0.139194,-0.00928l-0.046398,0.204151l0.027839,0.167033l0.129914,0.102076Z M557.509385,236.99113l0.139194,0.027839l0.111355,-0.037118l-0.055678,-0.148474l-0.204151,-0.111355l-0.111355,0.037118l0.00928,0.148474l0.111355,0.083516Z "/>
</svg>
