<svg xmlns="http://www.w3.org/2000/svg" viewBox="451.737 201.213 6.338 5.051">
  <path d="M457.302001,202.692075l-0.419032,-1.133851l-0.517628,-0.345085l-0.320436,0.024649l-0.419032,0.517628l-0.123245,0.912011l0.566926,0.517628l0.862713,0.123245l0.345085,-0.172543l0.024649,-0.443681Z M452.878007,205.228105l0.381568,0.175354l0.591575,-0.345085l0.271138,0.123245l0.295787,0.813415h0.369734l0.295787,-0.616223l0.665521,-0.295787l0.443681,-0.714819l-0.147894,-0.714819l-0.838064,-0.591575l-0.147894,-0.46833l-0.542277,-0.369734l-0.961309,0.049298l-0.419032,0.492979l0.123245,0.542277l-0.381568,1.919806Z M457.629083,201.694547l0.208954,0.01393l0.236815,-0.125372v-0.222884l-0.167163,-0.125372l-0.292536,0.083582l-0.125372,0.264675l0.139303,0.111442Z M454.230097,202.001013l0.585071,0.125372l0.153233,-0.111442l-0.083582,-0.236815l-0.51542,-0.125372l-0.153233,0.125372l0.01393,0.222884Z M451.945532,204.689555l0.208954,-0.125372l-0.01393,-0.181094l-0.139303,-0.055721l-0.236815,0.097512l-0.027861,0.195024l0.208954,0.069651Z M453.658956,206.263676l0.195024,-0.069651v-0.222884l-0.153233,-0.027861l-0.153233,0.125372l-0.01393,0.139303l0.125372,0.055721Z "/>
</svg>
