<svg xmlns="http://www.w3.org/2000/svg" viewBox="541.500 236.999 46.459 29.927">
  <path d="M559.867563,242.09288l-0.521002,-0.25368l-0.375926,0.126672l-1.106306,1.494299l-0.02358,0.640846l-0.344221,0.537857l-0.411785,0.092436l-0.376948,-0.126672l-0.064861,-0.364861l-0.255802,-0.315819l-0.220613,-0.4619l0.038678,-0.743313l-0.615821,-0.659408l-1.175416,-0.593894l-0.148474,-0.284574l0.053819,-0.221215l0.503684,0.127695l0.877742,-0.240545l0.185592,-0.371184l-0.012373,-0.284574l-0.482539,-0.482539l-0.296947,-0.247456l-0.049491,-0.210338l0.111355,-0.173219l-0.299842,-0.696083l-0.318798,-0.24425l-0.7531,-0.148789l-0.310961,0.148789l-0.111355,0.30932l-0.334066,-0.061864l-0.210338,-0.470166l0.185592,-0.433048l-0.062145,-0.288291l-0.284293,-0.194249l-1.300014,0.545563l-1.429638,1.281745l-0.450157,0.634879l-0.420675,1.200162l-0.30932,1.249653l-0.148474,1.002197l0.194927,0.185828v0.123476l-0.343401,0.395945l-0.025027,0.427309l0.185873,0.995563l-0.111355,0.816605l-0.420675,1.026942l0.012373,0.408302l0.452852,0.435028l-0.056922,0.22073l-0.365868,0.295401l0.006186,0.098982l0.136101,0.049491l0.043305,0.136101l-0.284574,0.315506l-0.484403,1.290217l-0.630356,1.1288l-0.090719,1.040727l0.411976,2.551987l1.06095,1.185287l-0.088042,0.630711l-1.167493,0.248834l-3.083724,1.312072l-1.368741,1.002583l-1.084553,1.676128l0.00723,0.655305l0.502598,0.63042l0.591159,0.193211l1.543923,-0.320011l0.658049,-0.43589l0.723036,-0.361518l0.788766,-0.032865l0.821631,0.262922h0.920227l0.62444,-0.361518l1.676128,-0.295787l1.347475,0.164326l0.262922,0.328653l-0.065731,0.920227l0.164326,0.558709l-0.098596,0.492979l-0.361518,0.723036l0.131461,1.774724l0.427248,0.755901l0.887362,0.361518l1.413206,-0.032865l2.070511,-0.755901l1.610397,-1.051688l0.591575,-0.131461l0.723036,-0.755901l0.197192,-0.985958l0.427248,-0.788766l0.525844,-0.558709l0.591575,-0.164326l0.69017,0.262922l0.394383,-0.164326l0.262922,-0.394383l1.446071,-1.084553h0.821631l0.31599,-0.053068l0.204151,-0.445421l-0.07646,-0.536767l-0.345085,-0.969525l0.098596,-0.854497l0.62444,-0.755901l0.394383,-0.098596l0.394383,0.065731l0.295787,-0.032865l0.262922,-0.197192l0.394383,-0.065731l0.427248,0.131461l0.328653,-0.065731l0.262922,-0.394383l0.591575,-0.131461l0.262922,0.230057l-0.098596,0.591575l-0.854497,0.887362v0.460114l0.394383,0.230057l0.834249,-0.392301h1.255535l1.885828,0.253344l0.713872,0.528796l0.010246,0.596118l-0.164326,0.262922l-0.788766,0.295787l-0.098596,0.69017l0.361518,0.591575l0.836232,0.262922l0.49481,-0.345085l1.521942,-0.118662l1.006282,0.50362l0.78933,-0.012227l0.466783,0.128271l0.294144,0.465623l0.445421,0.111355l0.760927,0.037118l2.181738,1.05373l0.80726,0.254984l0.501195,-0.15611l0.197192,-0.542277l2.453267,-1.490529l0.221867,-0.498012l0.566926,-0.271138l1.497195,-0.087134l0.21501,-0.278709l-0.088338,-0.351583l-0.982995,-0.613616l-1.159757,-0.171286l-0.129914,-0.22271l0.131171,-0.39477l-0.152098,-0.521982l-0.468819,-0.326832l-0.512451,-0.185475l-1.121972,-0.953946h-0.503684l-0.253408,0.50362l0.282973,0.598799l-0.179116,0.146347l-0.46833,-0.271138l-0.714819,-0.22184l-0.705095,-0.050608l-0.502703,-0.343775l-0.600865,0.015544l-0.508337,0.329541l-2.921624,0.731445l-0.340672,-0.055663l-0.250903,-0.289422l0.246489,-0.345085l2.24518,-0.686304l0.251503,-0.307803l0.087589,-0.457764l-0.191433,-0.302112l-0.537402,-0.305702l-0.426862,-0.853723l0.115278,-0.370967l-0.119067,-0.765797l0.088507,-0.468354l-0.104437,-0.434848l-0.433048,-0.519658l-1.361008,-0.952706l-0.21467,-0.311231l-0.275326,-0.166852l-0.502598,-0.126672l-1.110782,-0.731508h-0.321693l-0.482539,0.247456l-0.347826,-0.018546l-1.553622,-0.661958l-0.419032,-0.394383l-1.429638,-0.813415l-0.764117,-0.197192l-0.912011,-0.764117l-0.369734,-0.93666l-0.492979,-0.443681l-0.788766,-0.22184l-0.961309,0.049298l-1.109202,-0.098596l-0.813415,-0.295787l-0.542277,-0.073947l-0.788766,-0.517628l-0.073947,-0.320436l0.197192,-0.369734l-0.172543,-0.394383l-0.616223,-0.295787l-0.443681,-0.024649l-0.369734,-0.295787l-0.123245,-0.46833Z M579.654087,255.663619l0.337159,-0.16162v-0.262922l-0.492979,-0.164326l-0.427248,0.131461l-0.065731,0.295787l0.265242,0.124501l0.383557,0.037118Z "/>
</svg>
