<svg xmlns="http://www.w3.org/2000/svg" viewBox="484.256 139.219 39.216 28.015">
  <path d="M486.802491,144.134672l0.123635,-0.09929h0.222542l0.173088,0.09929l-0.173088,0.09929h-0.247269l-0.098908,-0.09929Z M490.462075,166.921747l1.409434,-0.347515l1.47872,-0.057895l1.057874,-0.111355l0.653178,-0.252732l0.568719,-0.049645l0.519265,-0.29787l0.247269,-0.794321l0.815988,-1.663109l0.741807,-0.620563l0.6429,-0.148935l0.543992,-0.322693l0.271996,-0.595741l0.445084,-0.248225l0.296723,-0.421983v-0.546095l-0.791261,-1.166659l-0.96435,-0.49645l-0.420358,-0.347515l-0.098908,-0.546095l-0.222542,-0.09929l-0.346177,0.049645l-0.939623,-0.024823l-0.568719,-0.19858l-0.667627,0.024823l-0.494538,0.124113l-0.247269,-0.09929l0.098908,-0.446805l0.247269,-0.09929l0.469811,0.049645h0.96435l2.596326,-0.148935l1.780338,-0.29787l0.914896,0.024823l1.063257,0.347515l3.189772,0.546095l2.175969,0.273048l1.063257,-0.347515l1.706157,-1.365239l1.805065,-2.109914l1.508342,-2.234027l-0.123635,-0.248225l-0.296723,0.024823l-0.445084,-0.074468l0.024727,-0.148935l0.370904,-0.148935l0.692354,-0.074468l0.469811,-0.223403l0.370904,-0.744676l1.533069,-1.762399l0.098908,-0.471628l-0.222542,-0.347515v-0.248225l0.271996,-0.074468l0.271996,0.124113l0.568719,-0.049645l1.409434,-1.265949l1.508342,-1.960979l0.123635,-0.893611l0.247269,-0.024823l0.271996,0.148935h0.370904l0.346177,-0.223403l0.074181,-0.372338l-0.222542,-0.29787l-0.667627,-0.09929l-0.420358,0.09929l-0.519265,-0.024823l-1.854519,-0.744676l-3.659583,-0.546095l-3.486495,-0.049645l-1.310527,0.39716l-1.211619,0.719853l-0.766534,-0.049645l-0.049454,-0.19858l0.271996,-0.446805l-0.024727,-0.372338l-1.706157,-0.968078l-0.791261,-0.173758l-0.370904,0.223403h-0.222542l-0.123635,-0.124113l0.024727,-0.223403l-0.692354,-0.248225l-3.486495,-0.446805l-1.780338,0.049645l-0.6429,0.446805l-0.098908,0.670208l-0.197815,0.09929l-0.370904,-0.124113l-0.049454,-0.248225l-0.519265,-0.421983l-0.791261,-0.049645l-2.991957,0.322693l-3.807945,1.067368l-1.68143,0.943256l-0.098908,0.719853l0.6429,0.719853l0.519265,0.148935l0.445084,-0.148935l0.469811,0.024823l0.074181,0.223403l-0.445084,0.248225l-0.074181,0.322693l1.35998,0.893611l0.074181,0.273048l-0.445084,0.322693l-0.692354,-0.09929l-0.766534,-0.546095l-0.840715,-0.49645l-1.162165,-0.024823l-0.717081,0.279253l-0.649082,0.763293l-0.018545,0.83776l0.352359,0.502656l0.092726,0.595741l-0.203997,0.446805v0.744676l0.222542,1.117013l0.259633,0.893611l-0.018545,0.930845l0.203997,0.614357l-0.074181,0.316487l-0.593446,0.093084l-0.129816,0.390955l0.111271,0.409572l-0.018545,0.353721l-0.185452,0.279253v0.335104l0.370904,0.335104l-0.018545,0.372338l-0.222542,0.390955l-0.092726,0.744676l0.166907,0.53989l0.445084,0.204786l0.148361,0.353721l-0.241087,0.24202v0.29787l0.222542,0.204786l0.908714,0.285459l0.469811,0.421983l0.024727,0.595741l0.395631,0.49645l0.574901,0.155141l0.265814,0.415777l0.024727,0.446805l-0.370904,0.248225l-0.074181,0.322693l0.346177,0.39716l0.024727,0.446805l-0.148361,0.39716l-0.049454,1.563819l0.271996,0.546095v0.471628l-0.247269,0.446805v0.521273l0.123635,0.521273l0.568719,0.19858l1.186892,-0.124113Z M485.164333,156.750718l0.018545,-0.409572l-0.407994,-0.614357l-0.259633,-0.018617l-0.092726,0.260636l0.222542,0.577124l0.259633,0.186169l0.259633,0.018617Z M485.201424,155.391685l0.055636,-0.260636l-0.03709,-0.502656l-0.222542,-0.409572l-0.166907,0.018617l-0.241087,0.502656l0.166907,0.577124l0.278178,0.167552l0.166907,-0.093084Z M484.811975,153.585847h0.259633l0.129816,-0.484039l-0.03709,-0.502656l-0.333813,-0.093084l-0.445084,0.148935l-0.129816,0.279253l0.092726,0.260636l0.315268,0.130318l0.148361,0.260636Z M485.182878,148.447585l-0.092726,0.279253l0.018545,0.24202l0.203997,0.037234l0.03709,-0.223403l-0.03709,-0.316487l-0.129816,-0.018617Z M497.731788,139.418392l-0.123635,0.19858v0.173758l0.173088,0.074468l0.148361,-0.148935v-0.223403l-0.197815,-0.074468Z M488.113018,141.255259l0.173088,-0.049645v-0.29787l-0.222542,-0.024823l-0.098908,0.173758l0.024727,0.148935l0.123635,0.049645Z M521.642715,141.478662l1.335253,0.09929l0.445084,-0.347515l0.049454,-0.347515l-0.370904,-0.248225l-1.335253,0.049645l-0.469811,0.248225l0.024727,0.29787l0.32145,0.248225Z M485.912322,158.730315l0.024727,0.223403l0.123635,0.148935l0.148361,-0.049645l0.049454,-0.19858l-0.148361,-0.173758l-0.197815,0.049645Z M486.258499,159.47499v0.19858l0.148361,0.049645l0.098908,-0.124113l-0.074181,-0.173758l-0.173088,0.049645Z M487.049761,164.935945l0.098908,-0.124113l-0.049454,-0.148935l-0.123635,-0.074468l-0.123635,0.09929l0.024727,0.173758l0.173088,0.074468Z M494.94249,166.65379l0.278826,-0.012633l0.074181,-0.124113l-0.148361,-0.19858l-0.296723,0.049645l-0.197815,0.124113l0.067183,0.133729l0.22271,0.027839Z M495.839489,166.86456l0.395631,-0.074468l0.049454,-0.19858l-0.123635,-0.248225l-0.32145,-0.024823l-0.296723,0.223403l0.049454,0.248225l0.247269,0.074468Z M494.85986,167.234112l0.197815,-0.049645l0.074181,-0.19858l-0.074181,-0.173758l-0.148361,0.024823l-0.098908,0.223403l0.049454,0.173758Z "/>
</svg>
