<svg xmlns="http://www.w3.org/2000/svg" viewBox="1756.287 831.007 0.779 0.956">
  <path d="M1756.471837,831.090934l0.034405,-0.01966l-0.017203,-0.046693l-0.036863,-0.017203l-0.04915,0.002458l-0.007373,0.031948l0.076183,0.04915Z M1756.73725,831.127797l0.014745,0.017203l0.007373,0.024575l0.024575,-0.00983l-0.004915,-0.034405l-0.031948,-0.022118l-0.03932,0.004915l0.002458,0.014745l0.027033,0.004915Z M1756.882243,831.366177l0.022118,-0.012288l-0.04915,-0.056523l-0.034405,-0.007373l-0.041778,-0.041778l-0.007373,0.022118l0.027033,0.031948l0.007373,0.044235l0.024575,0.00983l0.022118,-0.00983l0.02949,0.01966Z M1756.319471,831.651249l-0.027033,0.056523l0.014745,0.076183l0.063896,0.031948l0.076183,0.113046l0.058981,0.022118l0.024575,-0.014745l0.073726,-0.024575l0.01966,-0.036863l-0.024575,-0.041778h-0.027033l-0.022118,0.058981l-0.036863,0.022118l-0.036863,-0.00983l-0.051608,-0.103216l-0.041778,-0.054065l-0.041778,0.004915l-0.007373,-0.027033l0.022118,-0.086013l0.022118,0.002458l0.007373,0.066353l0.01966,0.002458l0.007373,-0.046693l-0.034405,-0.066353l-0.012288,-0.078641l-0.031948,-0.081098l-0.024575,0.002458l-0.022118,0.051608l0.031948,0.159739Z M1756.7864,831.926492l0.024575,0.036863l0.071268,-0.004915l0.115504,-0.058981l0.061438,-0.098301l0.007373,-0.056523l-0.041778,-0.105673l-0.036863,-0.036863l-0.027033,0.012288l0.031948,0.073726l0.041778,0.04915v0.034405l-0.02949,0.00983l-0.022118,0.081098l-0.027033,0.017203l-0.04915,-0.01966l-0.027033,0.007373l-0.007373,0.034405l-0.044235,0.00983l-0.03932,-0.022118l-0.004915,-0.034405l-0.022118,0.007373l-0.00983,0.046693l0.034405,0.017203Z M1756.894531,831.388294l0.012288,0.034405l0.022118,-0.002458v-0.034405l-0.01966,-0.014745l-0.014745,0.017203Z M1756.943681,831.48168l0.02949,0.022118l0.014745,-0.017203l-0.041778,-0.044235l-0.012288,0.012288l0.00983,0.027033Z M1756.963342,831.579981h0.027033l0.004915,-0.017203l-0.036863,-0.007373l-0.017203,0.014745l0.022118,0.00983Z M1756.960884,831.516085v0.024575l0.036863,0.00983l0.00983,-0.027033l-0.014745,-0.01966l-0.031948,0.012288Z M1756.506243,831.869969l0.031948,-0.004915l-0.002458,-0.01966h-0.046693l-0.00983,0.01966l0.027033,0.004915Z "/>
</svg>
