<svg xmlns="http://www.w3.org/2000/svg" viewBox="1197.755 715.364 125.900 125.003">
  <path d="M1305.459994,813.105762l-0.012954,0.018668h-0.083278l-0.024058,-0.031736l0.033311,-0.080274l0.003701,-0.104542l0.025909,-0.020535l0.022207,0.022402l-0.014805,0.091474l0.005552,0.052271l0.044415,0.052271Z M1311.263472,788.403534l0.051038,0.088156h0.051038l0.027839,-0.125275l-0.037118,-0.111355l-0.051038,-0.032479l-0.041758,0.037118v0.143834Z M1308.080569,765.117924l0.052584,0.064957l0.027839,-0.018559l-0.018559,-0.08661l-0.037118,-0.080423l-0.024746,0.003093l-0.012373,0.034025l0.012373,0.083516Z M1307.925909,765.795335l0.037118,-0.003093l0.030932,-0.030932l-0.003093,-0.037118l-0.034025,-0.012373l-0.058771,0.027839l-0.00928,0.040212l0.037118,0.015466Z M1308.145526,766.630499l0.074237,-0.003093l0.098982,-0.064957l-0.006186,-0.046398l-0.058771,-0.00928l-0.089703,0.027839l-0.024746,0.055678l0.006186,0.040212Z M1308.940478,763.914669l-0.027839,0.22271l0.030932,0.105169l0.080423,0.018559l0.040212,0.055678l-0.037118,0.213431l-0.139194,0.235083l-0.07733,0.349532l-0.133008,0.225804l-0.098982,0.117542l-0.030932,0.129914l0.034025,0.037118l0.07733,-0.021652l0.095889,0.157753l-0.006186,0.160846l0.034025,0.123728l0.080423,0.00928l0.083516,-0.055678l0.136101,-0.021652l0.160846,-0.216524l0.034025,-0.157753l-0.030932,-0.148474l0.034025,-0.151567l0.083516,-0.07733l0.00928,-0.14538l-0.210338,-0.293854l0.018559,-0.15466l0.173219,-0.151567l0.037118,-0.157753l-0.108262,-0.194872l-0.00928,-0.108262l0.071144,-0.089703l0.006186,-0.071144l-0.083516,-0.064957l-0.188685,-0.00928l-0.092796,0.061864 l-0.046398,0.06805Z M1309.271451,763.617722l0.030932,0.006186l0.030932,-0.015466v-0.049491l-0.024746,-0.018559l-0.030932,0.012373l-0.012373,0.034025l0.006186,0.030932Z M1312.618293,759.697091l-0.106715,0.440781M1202.471034,789.784165l0.261279,0.034509l0.096131,-0.044368l0.002465,-0.029579l-0.340155,-0.091201l-0.150359,0.029579l-0.007395,0.027114l0.138034,0.073947Z M1201.586137,790.042979l0.069017,-0.061622l-0.00986,-0.019719l-0.12078,0.041903l-0.041903,0.044368l0.00986,0.022184l0.093666,-0.027114Z M1201.317463,790.397923l0.044368,-0.059157l-0.00493,-0.029579h-0.017254l-0.024649,0.024649l-0.019719,0.069017l0.022184,-0.00493Z M1202.037212,790.252495l0.054228,-0.012324l0.00493,-0.022184l-0.022184,-0.014789l-0.078877,0.007395l-0.014789,0.027114l0.056693,0.014789Z M1202.167852,790.205662l0.044368,-0.014789l0.066552,-0.10599l-0.027114,-0.014789l-0.093666,0.014789l-0.051763,0.049298l0.017254,0.044368l0.044368,0.027114Z M1202.899925,789.796489l-0.172543,0.086271l-0.11092,0.00986l-0.073947,-0.049298l-0.266209,-0.064087l-0.108455,0.014789l-0.064087,0.081341l-0.066552,0.024649l-0.160218,-0.00986l-0.123245,0.061622l-0.049298,0.12571l-0.093666,0.059157l-0.086271,0.00493l-0.076412,0.056693l-0.022184,0.157753l-0.066552,0.073947l0.017254,0.019719l0.064087,-0.014789l0.184867,0.034509l0.059157,-0.007395l0.032044,-0.036973l0.155288,-0.081341l0.123245,-0.234165l0.244024,-0.108455l0.532417,0.007395l0.182402,-0.093666l0.059157,-0.093666l-0.034509,-0.029579l-0.078877,0.00493Z M1202.017493,789.877831l0.029579,-0.00986l0.017254,-0.022184l-0.002465,-0.032044l-0.029579,0.00493l-0.032044,0.049298l0.017254,0.00986Z M1200.24277,790.831745l0.044368,-0.024649l0.017254,-0.046833l-0.00493,-0.027114l-0.034509,0.00493l-0.051763,0.078877l0.029579,0.014789Z M1199.298715,790.809561l0.135569,-0.034509l0.118315,-0.017254l0.093666,-0.083806l0.029579,-0.071482l-0.00986,-0.034509l-0.078877,-0.027114l-0.396848,0.123245 l-0.059157,0.086271 l0.027114,0.049298l0.140499,0.00986Z  M1275.593801,823.141268l0.094,0.025h0.059l0.066,-0.039l0.213,0.004l0.184,0.112l0.074,0.011h0.09l0.091,0.102v0.049l-0.049,0.081l-0.004,0.073l0.091,0.085l0.007,0.06l0.031,0.045v0.035l-0.041,0.05v0.038l0.045,0.049l0.028,0.204l0.066,0.028l0.052,-0.017l0.049,-0.088l0.063,-0.032l0.062,0.004l0.087,0.056l0.147,0.028l0.101,0.091l0.045,0.004l0.035,-0.028l0.226,-0.021l0.126,0.01l0.174,0.081l0.115,0.116l0.108,0.028l0.069,0.039l0.028,0.035l0.073,0.046l0.004,0.052l-0.045,0.05v0.052l0.034,0.028l-0.024,0.239l-0.063,0.085l0.007,0.059l0.129,0.127l0.007,0.06l-0.035,0.095l0.014,0.066l0.073,0.028l0.011,0.032l-0.021,0.046l-0.056,0.007l-0.014,0.031l0.021,0.053l-0.042,0.116l-0.045,0.081l-0.01,0.105l-0.094,0.088l-0.046,0.07l-0.021,0.127l-0.034,0.028h-0.06l-0.034,0.039l-0.004,0.045l-0.038,0.025l-0.234,0.018l-0.122,0.07l-0.006,0.039l0.034,0.042l0.122,0.052l0.08,0.057l0.171,0.021l0.07,-0.028l0.017,-0.043l0.045,-0.01l0.168,0.056l0.111,0.091l0.066,0.008l0.039,0.031l-0.004,0.053l0.038,0.024l0.049,-0.007l0.035,0.029v0.115l0.042,0.032l0.045,-0.028l0.115,0.007l0.056,-0.025h0.049l0.066,0.039h0.181l0.052,-0.028l0.042,-0.074l0.045,-0.035h0.07l0.122,0.06h0.087l0.042,-0.06v-0.141l0.024,-0.038l0.126,-0.07l0.135,-0.025l0.07,-0.046l0.087,-0.182l0.045,-0.039l0.056,-0.091l0.122,-0.064l0.025,-0.052l0.073,-0.029l0.111,0.015h0.101l0.011,-0.032l-0.063,-0.06v-0.031l0.115,-0.064l0.24,0.004l0.056,0.035h0.052l0.108,-0.067l0.063,-0.01l0.108,0.014l0.143,-0.043l0.035,-0.059l-0.021,-0.056l0.021,-0.05l0.045,-0.01l0.115,0.049l0.122,-0.007l0.087,-0.081l0.167,-0.01l0.087,0.014l0.042,-0.011l0.063,-0.046l0.146,-0.003l0.125,-0.046l0.053,0.004l0.031,0.049l0.042,0.007l0.073,-0.021l0.052,0.01l0.018,0.043l0.048,0.003l0.133,-0.053l0.076,-0.003l0.087,0.017l0.049,-0.01l0.014,-0.035l0.052,-0.021l0.077,-0.004v-0.035l0.031,-0.014l0.06,0.018l0.31,-0.025l0.069,-0.046l0.14,-0.014l0.045,-0.042l0.049,-0.007l0.048,-0.053l0.088,-0.014l0.055,-0.038l0.098,-0.021l0.08,-0.064l0.108,-0.007l0.073,0.067l0.052,0.004l0.077,-0.022l0.014,0.032l-0.122,0.158l-0.007,0.134l-0.017,0.045l-0.087,0.043v0.049l0.125,0.074l-0.004,0.038l-0.146,0.078l-0.139,0.045l-0.011,0.042l0.039,0.028l0.014,0.046l0.083,0.049l0.014,0.039l-0.014,0.102l-0.059,0.063l-0.153,-0.021l-0.011,0.028l0.052,0.113v0.059l-0.02,0.071l0.017,0.063l0.084,0.028l0.021,0.049l-0.042,0.067l0.003,0.042l0.073,0.049l0.011,0.148l-0.035,0.067l-0.004,0.063l0.06,0.077l0.066,0.028l0.056,-0.01l0.007,0.016l-0.108,0.135h-0.039l-0.038,-0.039l-0.056,0.032l-0.003,0.046l0.101,0.077l0.007,0.105l-0.025,0.071v0.045l0.119,0.039l0.042,0.056v0.169l0.038,0.056v0.032l-0.038,0.031v0.035l0.055,0.043l0.192,0.095l0.122,0.01l0.073,0.021l0.226,0.179l0.056,0.007l0.087,-0.042h0.056l0.139,0.116l0.082,0.138l0.017,0.243l-0.071,0.121l0.002,0.045l0.1,0.103l0.03,0.002l0.035,-0.053l0.042,-0.003l0.072,0.028l0.036,-0.004l0.092,-0.125l0.03,-0.026l0.161,-0.019l0.044,-0.037l0.008,-0.081l0.064,-0.05l0.293,-0.004l0.057,-0.02l0.037,0.003l0.069,0.124l0.001,0.093l0.017,0.05l0.209,0.181l0.026,0.075l0.065,0.045l0.072,0.004l0.102,-0.015l0.061,0.003l0.152,0.083h0.076l0.053,-0.034h0.047l0.162,0.047l0.061,-0.006l0.137,-0.134l0.095,-0.023l0.103,0.01l0.03,0.02l-0.002,0.067l0.022,0.049l0.002,0.037l-0.026,0.075l0.011,0.041l0.061,0.009l0.034,0.026l0.007,0.071l0.169,0.142h0.027l0.039,-0.024h0.065l0.041,-0.034l0.031,-0.003l0.043,0.016l0.059,0.092l0.05,0.013l0.061,0.069l0.009,0.056l-0.018,0.056l-0.054,0.021l-0.024,0.031l0.011,0.109l0.039,0.003l0.15,-0.033l0.215,-0.004l0.044,-0.039h0.083l0.071,0.022l0.399,-0.002l0.191,-0.02l0.039,-0.03l0.042,-0.002l0.071,0.034h0.037l0.113,-0.107h0.064l0.087,0.092l0.032,-0.004l0.018,-0.037l0.024,-0.002l0.054,0.093l0.037,0.002l0.056,-0.019h0.083l0.113,0.015l0.066,0.047l0.008,0.071l0.035,0.024h0.05l0.089,-0.022l0.357,-0.189l0.105,-0.005l0.032,-0.023l0.015,-0.043l0.037,-0.009l0.038,0.011l0.019,-0.011l-0.002,-0.034l0.024,-0.022h0.052l0.035,0.03l0.241,0.02l0.042,0.019l0.108,0.183l0.037,0.032l0.185,0.039l0.066,0.037l0.047,0.081l0.066,0.007l0.058,0.041l0.07,-0.002l0.08,-0.104h0.022l0.039,0.035l0.025,0.002l0.015,-0.021l0.032,0.002l0.092,0.09l0.082,0.039l0.079,0.004l0.063,-0.015l0.083,0.004l0.13,0.022l0.109,0.09l0.035,0.002l0.05,-0.03l0.043,-0.082l0.044,-0.015l0.045,-0.071l0.065,-0.017l0.046,-0.069l0.085,-0.049h0.046l0.163,0.131l0.096,0.032l0.054,0.041l0.157,0.003l0.052,-0.048l0.039,-0.004l0.087,0.028h0.054l0.064,-0.041l0.034,-0.116l0.031,-0.03l0.054,-0.003l0.039,-0.028v-0.081l0.014,-0.013l0.132,0.017l0.02,-0.015l0.002,-0.046l0.02,-0.027l0.045,-0.003l0.063,-0.051l0.035,-0.095l0.007,-0.121l0.021,-0.052l0.096,-0.079l0.002,-0.041l0.013,-0.024l0.076,-0.023l0.051,-0.046l0.004,-0.04l-0.067,-0.089l0.002,-0.039l0.078,-0.034l0.004,-0.022l-0.039,-0.047v-0.056l0.028,-0.226l-0.023,-0.106l0.037,-0.021l0.054,0.017l0.017,-0.011l0.002,-0.028l0.075,-0.038l0.01,-0.078l0.089,-0.097l0.003,-0.037l-0.042,-0.109l0.013,-0.058l-0.015,-0.042l-0.054,-0.023l-0.024,-0.091l-0.037,-0.04v-0.028l0.048,-0.054l0.002,-0.026l-0.076,-0.054l-0.007,-0.045l0.011,-0.037l0.183,-0.133h0.046l0.16,0.079l0.046,-0.004l0.211,-0.106l0.044,0.005l0.05,0.041l0.163,0.03l0.046,-0.011l0.069,-0.084l0.048,-0.022l0.065,-0.004l0.042,-0.024l0.041,-0.094l0.022,0.002l0.089,0.302l0.006,0.107l0.037,0.071l0.001,0.153l0.06,0.138l-0.008,0.034l-0.026,0.005l-0.029,0.043v0.047l0.037,0.099l-0.002,0.039l-0.054,0.054l-0.026,0.094l0.01,0.067l0.053,0.065l0.006,0.151l0.018,0.03l0.139,0.08h0.035l0.019,-0.029l0.029,-0.004l0.135,0.048l0.239,0.163l0.072,0.013l0.037,0.028l0.004,0.046l0.217,0.114l0.027,0.062l0.041,0.021l0.052,0.005l0.041,0.032l0.02,0.082l0.041,0.026l0.079,0.011l0.054,0.032l0.055,0.078l0.18,0.112l0.089,0.124l0.003,0.093l-0.063,0.106l-0.003,0.042l0.016,0.029l0.002,0.041l-0.035,0.06l0.019,0.282l0.029,0.065l0.037,0.01l0.05,-0.021l0.054,0.011l0.035,0.06l-0.005,0.051l0.009,0.046l0.083,0.062l0.017,0.039l-0.024,0.064l0.003,0.145l0.08,0.239l0.072,0.123l0.078,0.034l0.055,0.047l0.106,0.121l0.094,0.024l0.039,-0.018l0.046,0.007l0.017,0.045l0.096,0.035l0.032,0.043l-0.013,0.086l0.011,0.037l0.068,0.058l0.008,0.041l-0.037,0.053l0.013,0.031l0.081,0.012l0.076,0.076l0.043,0.002l0.053,-0.024l0.058,-0.002l0.059,0.032l0.05,0.001l0.05,-0.039h0.059l0.089,0.036l0.042,-0.002l0.017,-0.03h0.041l0.175,0.069l0.036,-0.024l0.031,-0.099l0.08,-0.043l0.085,-0.009l0.092,-0.066l0.024,-0.05v-0.067l0.024,-0.032l-0.001,-0.023l-0.028,-0.046l0.011,-0.013l0.174,0.093l0.259,0.002l0.339,0.039l0.002,0.023l-0.026,0.024l0.003,0.026l0.028,0.028l0.002,0.03l-0.009,0.051l0.02,0.058l0.045,0.017l0.032,0.026l-0.005,0.058l0.089,0.106l0.016,0.056l-0.088,0.147l0.014,0.108l0.076,0.049l0.044,-0.004l0.135,-0.134l0.079,-0.002l0.049,0.058h0.035l0.025,-0.023l0.051,0.002l0.096,0.057h0.048l0.051,-0.054l0.054,-0.003l0.121,0.038l0.088,0.152l0.032,0.124l0.072,0.075l0.086,0.223l0.035,0.007l0.063,-0.059l0.074,-0.002l0.019,-0.024l-0.068,-0.084l0.044,-0.112l0.086,-0.038l0.068,-0.075h0.127l0.007,0.026l-0.034,0.04v0.049l0.055,0.047l0.13,0.002l0.063,0.035l0.014,0.059l0.093,0.028l0.107,-0.08l0.09,0.019l0.065,0.084l0.042,0.005l0.044,-0.037l0.105,-0.005l0.216,0.096l0.011,0.07l0.058,0.052l0.072,-0.005l0.089,0.063l0.004,0.043l0.118,0.121l0.015,0.084l0.056,0.024l0.076,-0.002l0.2,0.089l0.004,0.021l-0.018,0.033l0.016,0.077l-0.058,0.087l0.006,0.052l0.059,0.058l0.077,0.018l0.074,0.058l0.045,0.071l0.039,0.028l0.055,0.011l0.2,0.154l0.008,0.058l0.07,0.074v0.056l-0.087,0.07l-0.014,0.18l-0.028,0.056h-0.049l-0.066,-0.032h-0.052l-0.032,0.032l-0.09,0.003l-0.049,0.053l0.007,0.06l-0.021,0.031l-0.042,0.018l-0.003,0.067l0.07,0.098l0.128,0.095l0.101,0.193l0.056,0.021l0.021,-0.031l0.028,0.007l0.031,0.095l0.157,0.193l0.007,0.133l-0.038,0.057l0.028,0.095l0.104,0.098l0.028,0.098l0.115,0.028l0.031,-0.024l0.154,-0.373l0.045,-0.052l0.08,-0.028l0.077,-0.078l0.108,0.004l0.139,0.186l0.111,0.06l0.028,0.063l0.035,0.021l0.052,0.004l0.035,0.021l0.007,0.052l0.028,0.025l0.038,-0.004l0.028,0.025l-0.01,0.067l0.094,0.179l0.052,0.042l0.021,0.074l0.035,0.025l0.143,-0.018l0.031,0.018l0.007,0.077l0.045,0.07l0.042,0.109l0.042,0.035l0.069,0.018l0.035,0.031l0.035,0.19l0.007,0.271l0.087,0.049l-0.007,0.042l-0.097,0.049l0.017,0.074l0.073,0.018l0.049,0.063l0.004,0.063l-0.049,0.099l0.007,0.112l0.059,0.063l0.101,-0.024l0.031,0.021l0.018,0.056l0.073,-0.003l0.045,-0.05l0.045,0.004l0.063,0.077l0.073,0.134l0.035,0.203l-0.038,0.046l0.003,0.046l0.042,0.039l0.129,0.323l0.024,0.263l0.074,0.092l0.017,0.066l-0.021,0.159l0.052,0.049l0.084,0.003l0.091,-0.052l0.038,0.01l-0.018,0.07l-0.073,0.071l0.014,0.091l0.115,0.113l0.038,0.003l0.537,-0.295l0.125,-0.025l0.046,-0.038h0.048l-0.007,0.045l0.063,0.032l0.045,-0.011l0.042,0.014l0.056,0.109l0.08,0.053l0.049,0.12l-0.014,0.073l0.035,0.092h0.031l0.143,-0.197l0.097,-0.06l0.105,-0.01l0.073,-0.067l0.073,-0.021l0.14,-0.116l0.122,-0.018l0.024,-0.045l0.077,-0.081l0.013,-0.071l0.035,-0.07l0.202,0.109l0.042,-0.031l0.032,-0.12l0.038,-0.025l0.115,0.014l0.073,-0.01l0.125,-0.067l0.164,-0.01l0.049,-0.028l0.014,-0.043l0.052,-0.035l0.052,-0.007l0.053,-0.07l0.146,-0.116l0.066,-0.13l0.066,-0.028l0.091,-0.106l0.076,-0.028l0.098,0.004l0.056,-0.035l0.104,-0.12l0.073,0.004l0.087,0.112l0.23,0.134h0.067l0.045,-0.053l0.132,-0.06l0.018,0.011l-0.046,0.158l0.028,0.021l0.042,-0.032l0.031,0.004l-0.003,0.046l-0.237,0.249v0.049l0.059,0.078l-0.042,0.246l-0.132,0.07l-0.132,-0.011l-0.032,0.035l0.018,0.05l0.076,0.035l0.004,0.035l-0.049,0.067l0.004,0.098l0.097,0.067l0.038,0.042l0.018,0.067l0.108,0.049l0.049,-0.014l0.055,-0.067l0.042,0.004l0.143,0.165l0.16,0.053l0.063,0.003l0.09,-0.039l0.15,-0.123l0.101,-0.007l0.087,0.078h0.14v-8.719h-0.028l-0.052,0.035h-0.077l-0.073,-0.035l-0.07,0.007l-0.171,0.137l-0.062,0.123l0.01,0.088l-0.021,0.018l-0.052,-0.018l-0.059,0.053l0.024,0.042l-0.014,0.021l-0.094,0.007l-0.056,0.004l-0.097,0.07l-0.213,0.011l-0.062,-0.036l-0.004,-0.045l-0.052,-0.042h-0.038l-0.025,0.056l-0.028,-0.004l-0.038,-0.088l-0.073,-0.077l-0.066,-0.017l-0.052,0.038l-0.021,-0.01l0.031,-0.064l-0.01,-0.052l-0.039,-0.007l-0.097,0.038l-0.011,0.036l0.039,0.035l-0.025,0.028l-0.083,0.028l-0.067,0.126l-0.066,0.043l-0.174,0.007l-0.136,0.119l-0.16,0.45l0.007,0.116l0.188,0.376l0.059,0.074l0.059,0.003l0.094,-0.056l0.046,0.003l0.035,0.071v0.095l-0.101,0.14l-0.105,0.028l-0.118,0.099h-0.067l-0.121,-0.071l-0.175,-0.035l-0.122,-0.049l-0.17,-0.148l-0.122,-0.01l-0.108,0.056l-0.195,0.004l-0.122,-0.081v-0.042l0.031,-0.032v-0.046l-0.23,-0.196l-0.059,0.003l-0.084,0.105l-0.087,0.011l-0.059,-0.032l-0.341,-0.017l-0.262,0.084l-0.059,0.067h-0.031l-0.073,-0.105l-0.056,-0.022l-0.08,0.014l-0.059,0.06l-0.046,0.011l-0.212,-0.028l-0.073,-0.064l-0.004,-0.049l0.028,-0.074l-0.014,-0.052l-0.087,-0.057l-0.059,-0.137l-0.011,-0.186l-0.027,-0.049l-0.094,-0.077l-0.095,-0.116l-0.188,-0.348l-0.226,-0.232l-0.091,-0.06l-0.177,-0.063l-0.077,-0.056l-0.192,-0.317l-0.097,-0.07l-0.038,-0.084l-0.063,-0.067l-0.171,-0.112l-0.014,-0.067l0.014,-0.039v-0.042l-0.083,-0.06l-0.011,-0.038l0.021,-0.053l-0.007,-0.056l-0.084,-0.092l-0.09,-0.007l-0.105,0.074h-0.059l-0.097,-0.035l-0.06,-0.074l-0.052,-0.035l-0.045,0.004l-0.063,-0.036l-0.021,-0.042l-0.042,-0.038l-0.114,-0.046l-0.057,-0.047l-0.065,-0.145l-0.054,-0.056l-0.141,-0.007l-0.079,0.023l-0.052,-0.002l-0.032,-0.052l-0.051,-0.019l-0.1,-0.014l-0.105,-0.035l-0.067,-0.073l-0.058,-0.014l-0.095,0.031l-0.026,-0.026l0.024,-0.169l-0.014,-0.063l-0.098,-0.098h-0.066l-0.063,0.074h-0.035l-0.108,-0.141l-0.003,-0.056l0.035,-0.13l0.087,-0.088l0.007,-0.06l-0.14,-0.235l-0.08,-0.053l-0.003,-0.032l0.097,-0.123l-0.003,-0.059l-0.084,-0.057l-0.014,-0.049l0.025,-0.07l0.052,-0.067l0.01,-0.06l-0.059,-0.126l-0.129,-0.077l-0.125,-0.201v-0.319l0.035,-0.071v-0.045l-0.018,-0.025l0.004,-0.046l0.045,-0.052l-0.007,-0.151l0.018,-0.074l0.156,-0.158l0.014,-0.113l0.052,-0.081l0.007,-0.056l-0.045,-0.102l0.018,-0.077l0.139,-0.063l0.038,-0.032l0.007,-0.081l0.035,-0.067l-0.003,-0.052l-0.067,-0.049v-0.071l0.035,-0.031l0.004,-0.043l-0.021,-0.042l0.007,-0.066l0.101,-0.081l0.024,-0.12l0.087,-0.109l0.011,-0.074l-0.046,-0.105l0.004,-0.155l0.101,-0.126l0.017,-0.204l-0.028,-0.095l-0.121,-0.193l0.017,-0.077l0.091,-0.109l0.017,-0.169l0.104,-0.232l-0.01,-0.313l0.028,-0.073l0.101,-0.032l0.07,-0.081l0.052,-0.365l-0.025,-0.127l0.007,-0.144l0.108,-0.242l0.087,-0.043l0.049,-0.063l-0.007,-0.081l0.032,-0.056l0.073,-0.038l0.056,-0.095l0.027,-0.274l0.067,-0.053l0.062,-0.004l0.223,0.035l0.025,-0.042l-0.014,-0.165l0.028,-0.042l0.146,-0.025l0.042,-0.066l-0.018,-0.134l-0.055,-0.091l-0.161,-0.106v-0.133l0.084,-0.176v-0.067l-0.073,-0.081l-0.007,-0.087l-0.046,-0.039h-0.048l-0.108,-0.074v-0.042l0.066,-0.077l0.007,-0.064l-0.052,-0.123l0.003,-0.07l0.091,-0.151l-0.025,-0.133l-0.132,-0.159l-0.014,-0.063l0.014,-0.056v-0.046l-0.035,-0.049l0.007,-0.056l0.098,-0.169l-0.007,-0.246l-0.067,-0.053l-0.059,-0.007l-0.038,-0.042l-0.014,-0.102l-0.08,-0.077l-0.004,-0.056l-0.122,-0.106v-0.056l0.122,-0.19l0.105,-0.084l0.007,-0.084l0.021,-0.025l0.062,0.014l0.018,-0.024v-0.278l0.035,-0.267l-0.014,-0.105l0.003,-0.05l0.073,-0.059l0.018,-0.166l-0.027,-0.054l-0.12,-0.118v-0.035l0.053,-0.056l0.007,-0.049l-0.039,-0.109l0.004,-0.081l0.094,-0.246l0.122,-0.165l0.01,-0.127l0.084,-0.204l0.003,-0.151l0.025,-0.028h0.031l0.031,0.032l0.039,-0.004l0.028,-0.031l0.007,-0.053l-0.168,-0.123l-0.003,-0.035l0.031,-0.049v-0.05l-0.055,-0.077l-0.171,-0.021l-0.139,-0.162l-0.004,-0.059l0.052,-0.071l0.011,-0.052l-0.032,-0.225l-0.048,-0.141l-0.077,-0.112v-0.06l0.028,-0.06v-0.08l-0.115,-0.085l-0.07,-0.024l0.004,-0.039l0.073,-0.042l0.122,-0.014l0.038,-0.057l-0.024,-0.066l-0.063,-0.004l-0.111,0.106l-0.046,0.003l-0.038,-0.024l-0.028,-0.057v-0.404l-0.056,-0.084l-0.055,-0.007l-0.094,0.024l-0.032,-0.017l0.004,-0.137l-0.056,-0.039l-0.077,-0.003l-0.021,-0.028l0.004,-0.057l0.042,-0.077l0.028,-0.19l-0.028,0.004l-0.019,0.033l-0.042,0.028l-0.033,0.044l-0.063,0.018l-0.017,0.052l0.038,0.05l0.003,0.116l-0.021,0.059l-0.066,0.043l-0.01,0.031l0.069,0.021l0.046,-0.035l0.069,-0.007l0.067,0.053v0.067l0.052,0.094v0.057l-0.028,0.042l0.035,0.049l0.069,0.025l0.077,0.091l-0.01,0.155l-0.035,0.045l-0.129,-0.01l-0.052,-0.042l0.028,-0.053l0.073,-0.004l0.059,-0.031v-0.067l-0.084,-0.053l-0.132,-0.003l-0.077,-0.042l-0.062,-0.004l-0.182,0.042h-0.344l-0.136,-0.038l-0.279,-0.137l-0.045,-0.064l0.024,-0.056l0.07,-0.028l0.042,-0.067l-0.004,-0.081l0.021,-0.066l0.059,-0.039l0.004,-0.06l-0.063,-0.081l-0.017,-0.091l-0.178,-0.176l-0.059,-0.021l-0.014,-0.042l0.035,-0.088l0.073,-0.081l0.007,-0.056l-0.059,-0.077l0.003,-0.067l0.066,-0.123v-0.081l-0.104,-0.105l0.014,-0.032l0.08,0.011l0.021,-0.025l-0.011,-0.046l0.018,-0.077l0.097,-0.211l0.004,-0.07l-0.08,-0.098l-0.053,-0.12l-0.01,-0.144l0.035,-0.271l0.024,-0.098l0.077,-0.081l0.205,-0.066l0.056,-0.036l0.143,-0.186l0.115,-0.13l0.062,-0.024l0.164,-0.12l0.087,-0.133l0.471,-0.559l0.083,-0.053l0.098,-0.109l0.048,-0.091l0.129,-0.151l0.115,-0.088l0.147,-0.172l0.048,-0.13l0.08,-0.109l0.084,-0.039l0.181,-0.169l0.08,-0.024l0.056,-0.042l0.213,-0.345l0.083,-0.038l0.025,-0.032l0.02,-0.084l0.265,-0.348l0.087,-0.187l0.349,-0.474l0.09,-0.01l0.105,0.066l0.298,0.151l0.237,-0.215l0.009,-0.108l0.037,-0.07h0.056l0.042,0.019h0.074l3.542,-0.511l0.132,0.105l0.135,0.021l0.144,0.122l0.074,0.005l0.156,-0.103l0.018,-0.04l-0.046,-0.033l0.002,-0.051l0.047,-0.047l0.09,-0.014l0.07,-0.038l0.091,0.003l4.775,-0.628l0.074,0.056l0.054,0.003l0.05,-0.043l0.133,0.002l0.142,0.122l0.052,0.005l0.054,-0.056l0.092,-0.009l0.056,-0.045l0.057,0.002l0.102,0.116h0.072l-0.007,-0.027l-0.038,-0.033l0.01,-0.058l0.093,-0.096l0.037,-0.178l-0.019,-0.047l-0.053,-0.028l-0.003,-0.085l0.063,-0.086l0.021,-0.15l0.046,-0.094v-0.061l-0.046,-0.086l-0.042,-0.014l-0.035,-0.038l-0.004,-0.063l-0.105,-0.089l-0.134,-0.026l-0.01,-0.03l0.04,-0.038l-0.005,-0.049l-0.097,-0.166l-0.058,-0.033l-0.077,-0.115l-0.072,-0.031l-0.037,-0.002l-0.03,-0.019l-0.012,-0.035l-0.035,-0.018h-0.065l-0.016,-0.024l0.018,-0.033l-0.004,-0.054l-0.098,-0.082l-0.049,-0.004l-0.046,-0.045l-0.012,-0.075l-0.032,-0.03l-0.079,-0.007l-0.005,-0.021l0.023,-0.031l-0.016,-0.051l-0.139,-0.075l-0.114,-0.007l-0.037,-0.033l-0.07,-0.197l-0.095,-0.082l-0.165,-0.047l-0.067,0.003l-0.081,0.079l-0.024,-0.004l0.01,-0.05l0.041,-0.068l0.003,-0.096l-0.08,-0.11l-0.065,-0.015l-0.044,-0.043l-0.041,-0.141l0.002,-0.112l-0.029,-0.03l-0.006,-0.039l0.026,-0.053l-0.011,-0.222l-0.067,-0.123l-0.113,-0.054l-0.135,-0.204l-0.031,-0.244l-0.061,-0.131l-0.052,-0.032l-0.018,-0.06l0.018,-0.189l0.115,-0.215l-0.007,-0.059l-0.025,-0.032l0.004,-0.046l0.034,-0.038l-0.006,-0.06l-0.049,-0.053l0.007,-0.179l0.035,-0.046l-0.004,-0.095l-0.087,-0.214l-0.052,-0.042l-0.028,-0.088l-0.004,-0.218l-0.045,-0.144l-0.059,-0.063l-0.129,-0.099l-0.052,-0.094l0.01,-0.183l-0.038,-0.053l-0.038,-0.028l-0.088,-0.165l-0.013,-0.106l-0.049,-0.091l-0.126,-0.116l-0.021,-0.049l-0.202,-0.151l-0.041,-0.004l-0.049,-0.031l-0.042,-0.074l-0.209,-0.127l-0.063,-0.077l-0.055,-0.126l-0.07,-0.039l-0.063,-0.014l-0.195,-0.102l-0.467,-0.105l-0.243,-0.025l-0.196,-0.088l-0.205,-0.133l-0.185,-0.225l-0.048,-0.173l-0.21,-0.277l-0.236,-0.154l-0.121,-0.139l-0.116,-0.376l-0.116,-0.111l-0.227,-0.125l-0.385,-0.343l-0.246,-0.386l-0.098,-0.477l0.07,-0.432l-0.051,-0.167l0.018,-0.116l-0.046,-0.033l-0.074,0.061l-0.172,-0.037l-0.162,-0.172l-0.093,-0.209l0.009,-0.181l-0.074,-0.246l-0.142,-0.235l-0.044,-0.105l0.025,-0.08l-0.037,-0.068l-0.099,-0.075l-0.111,-0.315l0.043,-0.198l-0.025,-0.118l-0.253,-0.198l-0.075,-0.154v-0.118l-0.08,-0.111l-0.223,-0.062l-0.223,-0.179l-0.055,-0.136l0.037,-0.137l-0.012,-0.136l-0.093,-0.154l0.012,-0.205l0.056,-0.105v-0.08l-0.05,-0.093l0.037,-0.093l0.304,-0.21l0.167,-0.037l0.377,-0.309l0.099,-0.205l0.091,-0.413l-0.065,-0.584l0.042,-0.098l0.065,-0.014l0.111,0.056l0.056,-0.046l-0.037,-0.19l-0.158,-0.209l-0.329,-0.631l-0.279,-0.316l-0.505,-0.942l-0.168,-0.171l-0.092,-0.228l0.014,-0.213l-0.172,-0.529l-0.093,-0.098l-0.009,-0.204l0.093,-0.269l-0.019,-0.236l-0.065,-0.144l-0.042,-1.058l-0.041,-0.084l-0.014,-0.148l0.088,-0.162l0.032,-0.358l-0.023,-0.408l0.088,-0.278l0.144,-0.126l0.07,-0.19l0.051,-0.223l0.046,-0.051l0.093,-0.004l0.121,0.143l0.055,-0.018l0.019,-0.158l-0.07,-0.348l0.023,-0.274l0.242,-1.141l0.125,-0.455l0.005,-0.348l-0.093,-0.218l-0.033,-0.111h-0.051l-0.06,0.074l-0.093,0.288l-0.014,0.227l-0.153,0.422l-0.241,0.757v0.074l-0.056,0.019l-0.264,-0.052l-0.265,-0.139l-0.023,-0.144l0.102,-0.148l0.204,-0.186l0.033,-0.227l-0.153,-0.255l0.004,-0.121l0.07,-0.083l0.023,-0.218l-0.074,-0.135l0.028,-0.376l0.097,-0.162l0.005,-0.33l-0.065,-0.222l0.018,-0.311l0.144,-0.153v-0.211l-0.13,-0.142l0.019,-0.223l0.272,-0.507l0.025,-0.383l-0.037,-0.217l0.031,-0.501l-0.136,-0.365l0.012,-0.167l0.074,-0.074l0.019,-0.13l-0.031,-0.149l0.062,-0.154l0.16,-0.062l0.223,0.028l0.019,-0.109l0.031,-0.029v-0.059l-0.054,-0.089l0.029,-0.084l0.126,-0.106l0.015,-0.099l-0.077,-0.175l0.041,-0.126l0.009,-0.105l-0.055,-0.077l0.043,-0.282l0.161,-0.188l0.012,-0.393l-0.17,-0.248l-0.164,-0.034l-0.232,-0.226l-0.08,-0.191l-0.192,-0.18l-0.155,-0.037l-0.08,-0.136v-0.155l-0.062,-0.08l-0.136,-0.062l-0.019,-0.13l-0.105,-0.074l-0.179,-0.031l-0.093,-0.105l0.037,-0.192l0.198,-0.142v-0.112l-0.066,-0.046l-0.181,-0.181l-0.126,-0.051l-0.208,-0.028l-0.321,-0.199l-0.065,-0.668l-0.194,-0.205l0.016,-0.097l0.123,-0.055l0.052,-0.064l-0.002,-0.054l-0.116,0.062l-0.092,-0.01l-0.093,-0.106l-0.032,-0.395l0.032,-0.222l0.056,-0.075l0.116,-0.023l0.083,-0.042l0.033,-0.069l0.153,-0.098l0.288,-0.032l0.074,-0.098l-0.009,-0.116l0.079,-0.283l-0.028,-0.037l-0.084,0.037l-0.051,0.195l-0.13,0.181l-0.097,0.005l-0.033,-0.061l0.088,-0.19l0.033,-0.232l-0.046,-0.041l-0.112,0.037l-0.134,0.125l-0.079,-0.009l-0.102,-0.251l0.018,-0.107l0.084,-0.037l0.148,-0.171l0.051,-0.112l-0.079,-0.079h-0.065l-0.069,0.056l-0.056,0.014l-0.023,-0.046l0.097,-0.163l0.149,-0.037l0.06,-0.093l0.204,-0.102l0.204,-0.19l0.028,-0.088l-0.153,-0.316l-0.079,-0.009l-0.051,0.051v0.125l-0.106,0.172l-0.061,-0.005l-0.028,-0.116l0.084,-0.283l0.139,-0.069l0.158,-0.209v-0.079l0.042,-0.097l0.092,-0.089l0.167,-0.436l0.158,-0.13l0.042,-0.148l-0.037,-0.028l-0.06,0.033l-0.042,-0.024l0.018,-0.111l0.167,-0.158l0.205,-0.454l0.12,-0.042l0.074,-0.144l-0.069,-0.19l-0.056,-0.023l-0.144,0.106l-0.102,0.204l-0.139,0.13l-0.046,-0.023l0.074,-0.436l0.069,-0.195l0.112,-0.074l0.162,0.074l0.07,0.144l0.153,0.088l0.158,0.023l0.134,0.07l0.037,0.093l0.098,0.055l0.199,0.056l0.13,0.13l0.078,0.012l0.015,-0.142l0.074,-0.116l0.074,-0.162l0.293,-0.232l0.097,-0.13l0.079,-0.209l0.098,-0.111l0.046,-0.149l0.566,-0.032l0.348,-0.46l0.362,-0.32h0.139l0.023,0.037h0.047l0.014,-0.046l0.091,-0.371l-0.013,-0.133l-0.058,-0.186l0.018,-0.198l0.059,-0.08l-0.006,-0.124l-0.204,-0.173v-0.118l0.058,-0.083l0.013,-0.109l-0.037,-0.142l0.062,-0.396l-0.028,-0.318l0.034,-0.201l0.052,-0.016l0.019,-0.046l-0.056,-0.059l-0.025,-0.186l0.028,-0.04v-0.046l-0.065,-0.075l-0.006,-0.074l0.047,-0.04l0.263,0.003l0.037,-0.025l-0.03,-0.078l-0.01,-0.19l0.059,-0.158v-0.108l-0.049,-0.121l0.01,-0.434l-0.047,-0.069l0.008,-0.108l0.115,-0.217l0.094,-0.345l-0.032,-0.121l0.04,-0.062l0.073,-0.029l0.079,-0.139l-0.023,-0.074l-0.06,-0.051l0.014,-0.292l0.014,-0.079l-0.014,-0.112l-0.102,-0.046l-0.093,0.062l-0.049,0.148l-0.093,0.106l-0.044,0.105l-0.006,0.123l-0.235,0.396l-0.167,0.099l-0.13,-0.006l-0.086,0.025l-0.075,0.111h-0.123l-0.099,-0.148l-0.124,-0.087h-0.074l-0.155,0.161l-0.012,0.111l-0.056,0.106l-0.247,0.185l-0.056,-0.031l0.031,-0.093l0.055,-0.055l0.007,-0.285l-0.205,-0.21l-0.105,-0.006l-0.062,0.049l-0.086,-0.025l-0.006,-0.13l0.086,-0.123l0.074,0.012l0.075,-0.043l-0.013,-0.198l-0.154,-0.13l0.006,-0.105l0.13,-0.081l0.105,0.019l0.068,-0.043l0.043,-0.137l0.068,-0.105l0.019,-0.111l-0.012,-0.142l0.049,-0.143l0.309,-0.334l0.087,-0.204l0.056,-0.365l0.198,-0.352l0.21,-0.124l0.439,-0.099l0.433,-0.13l0.167,-0.136l0.099,-0.18l0.074,-0.031l0.087,0.025l0.074,-0.003l-0.023,-0.116l0.023,-0.153l0.079,-0.042l0.005,-0.055l-0.07,-0.079l-0.097,-0.334l0.028,-0.246l0.074,-0.084l0.046,-0.088l-0.004,-0.162l0.069,-0.102l0.079,-0.033l0.051,-0.056l0.005,-0.078l0.12,-0.056l0.163,0.028l0.069,-0.037l0.33,-1.416l0.696,-0.798l-0.005,-0.208l0.023,-0.061l-0.004,-0.079l-0.065,-0.06l-0.014,-0.088l0.028,-0.056l-0.005,-0.083l-0.116,-0.218l0.014,-0.135l0.088,-0.181l-0.004,-0.232l0.037,-0.083l-0.01,-0.107l-0.065,-0.097v-0.121l0.075,-0.204l0.106,-0.177l0.163,-0.111l0.297,-0.088l0.074,-0.07l0.153,-0.037l0.065,-0.055h0.116l0.097,0.06l0.102,-0.005l0.149,-0.209l0.056,-0.199l0.148,-0.19l0.135,-0.061l0.041,-0.116l-0.041,-0.181l0.055,-0.338l0.047,-0.061l0.009,-0.097l-0.037,-0.111l0.051,-0.116l0.125,-0.042l0.07,-0.112l0.167,-0.023l0.148,0.107l0.084,-0.009l0.051,-0.144l0.102,-0.149l0.083,-0.014l0.126,0.07h0.083l0.056,-0.046l0.06,-0.005l0.023,0.037h0.075l0.074,-0.069h0.097l0.153,-0.098l-0.046,-0.037l-0.065,0.014l-0.065,0.051l-0.046,-0.014l0.009,-0.111l0.079,-0.13l-0.084,-0.093l-0.208,-0.005l-0.075,0.047l-0.199,0.004l-0.088,-0.055l0.018,-0.153l0.172,-0.246l0.209,-0.121l0.102,-0.13l0.018,-0.167l0.056,-0.065l0.111,-0.009l0.112,-0.158l0.102,-0.492l0.283,-0.352l0.427,-0.237l0.139,-0.148l0.139,-0.246l0.362,-0.293l0.107,-0.032l0.111,-0.107l0.042,-0.195l0.13,-0.134l0.176,-0.047l0.149,-0.097l0.371,-0.478l0.232,-0.223l0.13,-0.051l0.255,-0.185l0.172,-0.01l0.078,-0.065l0.047,-0.092l0.232,-0.186l0.213,-0.097l0.107,-0.112l0.097,-0.079l0.211,-0.057l0.229,-0.179l0.086,-0.161l0.167,-0.111h0.118l0.068,-0.056l-0.019,-0.136l0.056,-0.062l0.124,-0.025l0.105,-0.148l-0.223,-0.167l-0.278,-0.136l-0.013,-0.471l-0.167,0.031l-0.049,0.062l-0.062,0.006l-0.08,-0.031l-0.05,0.013l-0.043,0.074h-0.074l-0.279,-0.223l-0.08,-0.185l0.012,-0.099l-0.427,-0.347l-0.185,-0.031l-0.167,0.05l-0.05,0.155l0.025,0.111l-0.062,0.105l-0.179,0.031l-0.192,-0.062l-0.074,-0.167l-0.155,-0.136l-0.087,-0.179l-0.297,-0.093l-0.167,0.031l-0.086,-0.025l-0.044,-0.179l0.031,-0.217l0.068,-0.043l0.019,-0.112l-0.031,-0.117l0.019,-0.192l-0.056,-0.136l0.025,-0.105l0.142,-0.062l0.161,-0.347l0.068,-0.321l0.086,-0.099l0.025,-0.155l0.093,-0.117l0.13,-0.062l0.148,-0.248l0.044,-0.34l-0.223,-0.433l-0.037,-0.204l-0.167,-0.173l-0.019,-0.087l-0.055,-0.056l-0.112,-0.012l-0.136,-0.111l-0.056,-0.13l0.056,-0.099l0.099,-0.025l0.05,-0.297l0.204,-0.606l-0.019,-0.087l0.074,-0.167l-0.031,-0.08l0.062,-0.112l0.143,-0.055l0.08,-0.174l0.087,-0.043l0.031,-0.093l-0.019,-0.099l0.142,-0.278l0.105,-0.074l0.05,-0.105l0.025,-0.576l-0.105,-0.043l-0.192,0.031l-0.13,0.136l-0.099,0.012l-0.094,-0.048l0.004,-0.125l0.014,-0.134l0.074,-0.079l0.005,-0.191l-0.127,-0.091l-0.167,-0.037l-0.145,-0.127l0.015,-0.334l-0.154,-0.145l-0.075,0.031l-0.055,0.195l-0.115,0.043l-0.015,0.068l-0.078,0.019l-0.247,-0.109l-0.108,0.034l-0.084,0.096l-0.216,0.093l-0.239,-0.025l-0.16,-0.046l-0.038,-0.078l0.084,-0.086l0.049,-0.622l-0.167,-0.526v-0.139l-0.12,-0.074l-0.176,0.028l-0.13,0.111l-0.167,-0.065l-0.084,-0.241l-0.065,-0.009l-0.093,0.083l-0.12,-0.065l-0.149,-0.148l-0.39,-0.186l-0.111,0.028l-0.083,-0.028l-0.047,-0.13l-0.139,-0.046l-0.195,0.093l-0.148,-0.028l-0.13,-0.232l0.009,-0.167l-0.046,-0.186l-0.149,-0.139l-0.056,-0.127l0.047,-0.244l-0.074,-0.047l-0.112,0.019l-0.25,-0.084l-0.195,-0.009l-0.167,-0.13l-0.121,-0.223l-0.031,-0.173l-0.093,-0.055l-0.204,-0.013l-0.142,-0.055l-0.087,-0.149l0.013,-0.173l0.099,-0.081l-0.044,-0.154l-0.303,-0.229l-0.198,-0.031l-0.204,0.062l-0.105,-0.031l-0.229,-0.248l-0.012,-0.414l0.043,-0.136l0.019,-0.241l-0.075,-0.087l0.007,-0.105l0.148,-0.13l-0.012,-0.087l-0.149,-0.049l-0.154,-0.105h-0.075l-0.062,0.068l-0.111,-0.019l-0.229,-0.26l-0.278,-0.154l-0.074,-0.087l-0.161,-0.043l-0.118,0.018l-0.148,-0.012l-0.105,-0.087l-0.118,-0.006l-0.05,0.056l-0.086,-0.006l-0.13,-0.198l-0.111,-0.013l-0.081,0.099l-0.08,0.062l-0.013,0.149l0.062,0.173l-0.012,0.167l-0.149,0.173l-0.043,0.111l0.006,0.174l-0.21,0.296l-0.099,0.044l-0.186,0.025l-0.117,0.185l-0.031,0.217l-0.062,0.111l-0.192,0.05l-0.185,-0.056l-0.143,0.018l-0.055,0.093l0.006,0.105l-0.13,0.118l-0.155,-0.019l-0.074,-0.13l-0.21,-0.179l-0.105,-0.019l-0.118,-0.117v-0.087l-0.08,-0.055l-0.242,0.006l-0.043,-0.043l0.019,-0.093l-0.056,-0.044l-0.093,-0.006l-0.099,-0.062l-0.056,-0.105l-0.21,-0.018l-0.105,0.043l-0.52,0.049l-0.161,-0.068l-0.123,-0.006l-0.105,0.05l-0.143,-0.013l-0.08,-0.092l-0.056,-0.297l-0.093,-0.118h-0.105l-0.099,0.074l-0.21,0.037l-0.124,0.155l-0.086,0.031l-0.044,0.08l0.031,0.068l-0.086,0.217l-0.161,0.198l-0.316,0.056l-0.105,0.074l-0.056,0.155l-0.086,0.018l-0.149,-0.018l-0.235,0.061l-0.161,0.223l-0.136,0.266l-0.167,0.105l-0.235,0.031l-0.185,-0.049l-0.13,-0.297l-0.186,-0.143l-0.476,-0.006l-0.093,0.068l-0.229,-0.018l-0.254,-0.192l-0.253,-0.093l-0.006,-0.111l0.055,-0.074l-0.025,-0.124l-0.191,-0.043l-0.149,0.061l0.006,0.099l-0.055,0.025l-0.081,-0.13l-0.167,-0.179l-0.068,-0.161l0.031,-0.266l0.056,-0.093l-0.062,-0.062l-0.204,-0.012l-0.297,-0.074l-0.081,-0.087l-0.08,0.019l-0.031,0.185l-0.087,0.05l-0.191,-0.019l-0.291,-0.192l-0.074,-0.117l-0.18,-0.099l-0.123,-0.006l-0.038,-0.056l0.025,-0.167l-0.136,-0.297l-0.012,-0.117l0.08,-0.211l-0.043,-0.346l-0.173,-0.099l-0.112,0.012l-0.08,0.05l-0.112,-0.019l-0.037,-0.124l0.031,-0.154l-0.099,-0.211l-0.278,-0.179l-0.396,-0.006l-0.08,0.037l-0.106,-0.019l-0.13,-0.142l-0.154,-0.062l-0.05,-0.086l0.031,-0.112l-0.08,-0.13l-0.161,-0.08l-0.167,-0.13l-0.019,-0.087l-0.054,-0.14l0.042,-0.154l-0.032,-0.113l-0.219,-0.132l-0.394,-0.137l-0.125,-0.099l-0.102,-0.042l-0.144,-0.005l-0.26,-0.118l-0.139,-0.018l-0.176,-0.09l-0.102,-0.122l-0.288,-0.123l-0.269,-0.037l-0.177,0.009l-0.329,0.122l-0.065,0.071l-0.385,0.174l-0.125,0.033l-0.089,0.09l-0.125,0.264l-0.004,0.089l-0.038,0.057l-0.088,0.023l-0.06,0.104l-0.005,0.075l-0.102,0.042l-0.097,-0.037l-0.056,-0.085l-0.088,-0.019l-0.051,0.052l-0.074,0.005l-0.167,-0.16l-0.075,-0.175l-0.171,-0.061l-0.217,0.046l-0.123,0.056l-0.075,-0.025l-0.068,0.013l-0.031,0.069l-0.062,0.025l-0.099,-0.038l-0.08,0.019l-0.019,0.082l-0.061,0.006l-0.062,-0.082h-0.186l-0.173,0.069l-0.068,0.151l-0.056,-0.006v-0.088l-0.055,0.006l-0.062,0.069h-0.149l-0.278,-0.063l-0.031,-0.094l0.012,-0.113l-0.105,-0.119h-0.08l-0.062,-0.044l0.012,-0.082l-0.068,-0.031l-0.068,0.031l-0.049,-0.025l-0.019,-0.088l-0.068,-0.025l-0.087,0.031l-0.061,-0.006l-0.062,-0.056h-0.112l-0.062,0.056l-0.105,-0.019l-0.068,-0.088l-0.124,-0.081l-0.099,0.006l-0.055,-0.044l0.012,-0.082l-0.105,-0.081l-0.124,-0.013l-0.055,-0.044l-0.007,-0.157l-0.055,-0.012l-0.05,0.069l-0.055,-0.019l0.006,-0.069l-0.056,-0.013l-0.049,0.032l-0.068,-0.006l-0.031,-0.126h-0.118l-0.136,0.1l-0.099,-0.006l-0.056,0.038l0.056,0.138l-0.043,0.031l-0.068,-0.025l-0.099,0.038l-0.025,0.082h-0.068l-0.025,-0.114l-0.056,-0.006l-0.074,0.057l-0.13,-0.032l-0.018,-0.125l-0.112,-0.019l-0.061,-0.082l-0.075,0.007l-0.08,0.169l0.012,0.107l-0.043,0.038l-0.13,-0.044l-0.161,0.012l-0.018,0.05l0.043,0.095l-0.031,0.081l-0.074,-0.031l-0.093,-0.22v-0.082l-0.124,-0.044l-0.124,0.044l-0.068,0.157l-0.061,0.007l-0.118,-0.151l0.019,-0.176l-0.056,-0.025l-0.087,0.057l-0.055,-0.019l0.049,-0.113l-0.031,-0.132h-0.099l-0.012,0.069l0.062,0.025l-0.025,0.082l-0.149,0.075l-0.08,-0.038l-0.031,-0.132l-0.117,-0.081l-0.05,-0.113l-0.285,-0.12l-0.037,-0.081l-0.117,-0.032l-0.062,0.063l0.025,0.057l-0.037,0.05l-0.093,-0.05l-0.037,-0.082h-0.081l-0.024,-0.075l0.148,-0.051v-0.062l-0.074,-0.025l-0.099,0.025l-0.068,-0.051l-0.031,-0.113l-0.044,-0.037l-0.123,0.025l-0.112,-0.069l-0.043,0.025l0.037,0.094l0.068,0.044l-0.024,0.057l-0.118,0.007l-0.079,0.07l-0.056,-0.01l-0.092,-0.083l-0.07,0.005l-0.056,0.106l-0.051,0.014l-0.092,-0.018l-0.121,0.065l-0.033,0.125l-0.078,0.032l-0.07,-0.046l-0.014,-0.144l-0.042,0.005l-0.032,0.107l-0.042,0.037l-0.111,0.018l-0.01,0.06l0.121,0.07l-0.042,0.084l-0.153,0.009l-0.097,0.125l-0.042,0.32l-0.088,0.116l-0.005,0.204l0.079,0.089l0.125,-0.005l0.028,0.051l-0.042,0.223l-0.102,0.162l-0.023,0.149l0.037,0.102l-0.051,0.088l-0.339,0.079l-0.083,-0.014l-0.06,0.018l-0.079,0.07l-0.093,0.018l-0.097,-0.027l-0.056,0.023l-0.065,0.065h-0.121l-0.074,-0.158l-0.06,0.005l-0.037,0.06l-0.116,0.056l-0.033,0.097l-0.246,0.116l-0.12,0.292h-0.098l-0.065,-0.116l-0.148,-0.069l-0.139,-0.014l-0.121,-0.111l-0.13,-0.061l-0.148,0.019l-0.103,0.097l-0.023,0.084l-0.079,0.051l-0.19,-0.009l-0.074,-0.019l-0.042,0.037l0.005,0.074l-0.042,0.065l-0.074,0.005l-0.163,-0.023l-0.102,0.051l-0.102,0.153l-0.102,0.023l-0.028,-0.093l-0.051,0.005l-0.074,0.069l-0.121,0.019l-0.055,-0.019v-0.074l-0.079,-0.023l-0.2,0.014l-0.083,-0.046l-0.028,-0.079l0.079,-0.079l0.004,-0.144l-0.102,-0.07l-0.139,-0.009l-0.083,-0.074l-0.014,-0.195l-0.098,-0.065l-0.195,-0.037l-0.171,-0.139l-0.051,-0.135l-0.098,-0.069l-0.083,-0.005l-0.195,-0.102l-0.218,-0.033l-0.047,0.075l0.075,0.12l-0.051,0.116h-0.075l-0.12,-0.144l-0.028,-0.12l-0.218,-0.102l-0.079,0.018l-0.074,0.251l-0.093,0.051l0.005,0.079l0.065,0.032l0.078,0.005l0.047,-0.06l0.083,0.009l0.051,0.102l-0.032,0.083l-0.121,0.056l-0.037,0.06l-0.074,0.01l-0.065,-0.024l-0.074,0.01l-0.051,0.042l-0.149,0.013l-0.069,-0.009l-0.075,0.065l-0.078,0.079l-0.028,0.084l0.051,0.088l0.004,0.079l-0.051,0.055l-0.079,0.014l-0.074,-0.06l-0.014,-0.056l-0.097,-0.042l-0.274,0.135l-0.121,0.227l-0.102,0.033l-0.102,-0.01l-0.088,-0.106l-0.153,0.004l-0.292,0.158l-0.051,0.144l-0.093,0.028l-0.111,-0.005l-0.098,-0.069l-0.195,-0.01l-0.069,0.047l-0.042,0.097l0.06,0.149l-0.009,0.12l-0.079,0.028l-0.116,-0.056l-0.102,-0.013l-0.097,-0.07l-0.098,0.009l-0.107,0.088h-0.102l-0.06,-0.088l-0.139,-0.014l-0.2,0.158l-0.074,0.116l-0.125,0.033l-0.283,0.004l-0.135,0.023l-0.158,0.116l-0.25,-0.004l-0.125,0.046l-0.07,0.005l-0.06,-0.019l-0.065,0.009l-0.107,0.149l-0.065,0.009l-0.046,0.112l-0.084,0.023l-0.069,0.134l-0.181,0.098l-0.251,0.014l-0.13,0.111l-0.116,0.042l-0.023,0.125l0.014,0.241l-0.088,0.037l-0.144,-0.004l-0.084,0.032l-0.065,-0.046l-0.023,-0.088l-0.088,-0.019l-0.097,-0.004l-0.051,0.037l-0.075,-0.005l-0.148,-0.176l-0.065,-0.01l-0.037,0.024l-0.051,-0.01l-0.019,-0.227l-0.088,-0.065h-0.13l-0.102,-0.074l-0.19,-0.279l-0.139,-0.078l-0.144,0.009l-0.218,0.176l-0.209,-0.014l-0.144,-0.153l-0.158,-0.065l-0.12,-0.018l-0.079,-0.075l-0.158,-0.445l-0.083,-0.051l-0.089,0.005l-0.088,0.125l-0.12,0.023l-0.126,-0.019l-0.102,0.028l-0.065,0.116l-0.004,0.153l0.083,0.051l-0.004,0.065l-0.121,0.098l-0.056,0.093l-0.046,0.134l-0.084,0.047l-0.069,-0.01l-0.126,-0.167l-0.116,-0.014l-0.12,0.065l-0.06,0.246l-0.214,0.288l-0.065,0.26l0.023,0.222l-0.046,0.102l-0.125,0.13l-0.051,0.135l0.027,0.167l-0.041,0.079l-0.084,0.032h-0.065l-0.079,-0.157l-0.083,-0.005l-0.033,0.056h-0.065l-0.12,-0.056l-0.144,0.107l0.013,0.274l-0.037,0.079l-0.079,0.079l0.005,0.093l0.209,0.111l-0.009,0.088l-0.084,0.06l-0.018,0.079l-0.154,0.037l-0.083,0.112l-0.023,0.116l-0.065,0.111l-0.051,0.228l0.065,0.097l-0.042,0.186l-0.218,0.148l-0.098,0.148l-0.306,0.232l-0.25,0.024l-0.167,0.055l-0.102,0.005l-0.154,-0.019h-0.213l-0.125,0.051h-0.26l-0.427,-0.162l-0.209,-0.097l-0.218,-0.265l-0.213,-0.139l-0.395,-0.07l-0.236,-0.13l-0.274,0.024l-0.042,0.051h-0.069l-0.089,-0.047l-0.343,-0.06l-0.088,0.032l-0.088,-0.009l-0.153,-0.125l-0.112,-0.13l-0.222,-0.074l-0.153,-0.01l-0.07,-0.069l-0.102,-0.019l-0.112,0.093h-0.194l-0.14,-0.074l-0.162,0.014l-0.107,0.116l-0.287,0.13l-0.065,0.102l-0.265,-0.005l-0.107,-0.051l-0.162,-0.014l-0.13,-0.055l-0.088,-0.116l-0.135,-0.019l-0.269,0.083l-0.204,-0.023l-0.306,-0.199l-0.135,-0.177l-0.153,-0.032l-0.139,0.051l-0.065,0.079l-0.004,0.125l-0.061,0.102h-0.093l-0.13,-0.093l-0.088,-0.023l-0.065,0.023l-0.111,-0.046l-0.074,-0.107l-0.269,-0.157l-0.028,-0.163l-0.176,-0.153l-0.362,-0.121l-0.2,-0.116l-0.274,-0.074l-0.236,0.042l-0.084,-0.009l-0.116,-0.065l-0.269,-0.005l-0.088,0.079l-0.204,0.093h-0.121l-0.111,-0.033h-0.381l-0.232,0.075l-0.227,0.004l-0.088,0.042l-0.19,-0.005l-0.047,0.023h-0.074l-0.376,-0.324l-0.046,-0.121l-0.204,-0.232l-0.084,-0.065l-0.028,-0.144l-0.093,-0.079l0.005,-0.102l0.088,-0.185l-0.028,-0.181l-0.218,-0.204l-0.106,-0.033l-0.079,-0.107l-0.07,-0.361l-0.213,-0.223l-0.293,-0.088h-0.199l-0.223,-0.088l-0.039,-0.083l-0.194,-0.17l-0.072,-0.114l-0.029,-0.133l-0.136,-0.155l-0.288,-0.091l-0.19,-0.01l-0.394,-0.215l-0.093,-0.117l-0.383,-0.174l-0.285,0.013l-0.253,-0.13l-0.205,-0.248l-0.086,-0.222l-0.173,-0.217l-0.334,-0.086l-0.304,-0.044l-0.309,-0.148l-0.229,0.006l-0.117,0.056l-0.149,0.006l-0.198,-0.081l-0.309,0.007l-0.173,0.136l-0.229,0.012l-0.186,-0.031l-0.278,0.043l-0.186,0.192l-0.099,0.167l-0.489,0.285l-0.228,0.037l-0.18,0.173l-0.037,0.266l-0.08,0.074l-0.136,0.013l-0.167,-0.068l-0.168,0.006l-0.228,0.111l-0.18,0.285l-0.025,0.167l-0.297,0.451l-0.024,0.174l-0.105,0.148l-0.26,0.13l-0.136,0.173l-0.013,0.149l-0.117,0.185l-0.143,0.007l-0.099,0.068l-0.03,0.148l-0.075,0.093l-0.26,0.161l-0.068,0.161l-0.012,0.228l-0.068,0.365l-0.148,0.285l-0.44,0.365l-0.216,0.049l-0.557,0.019l-0.204,0.062l-0.161,0.173l-0.006,0.142l0.223,0.495l0.098,0.124l0.254,0.625l0.155,0.798l-0.025,0.291l-0.111,0.08l-0.13,0.031l-0.112,0.26l-0.024,0.538l-0.093,0.155v0.154l0.043,0.223l0.05,0.526l0.074,0.272l0.025,0.241l-0.025,0.285l0.043,0.179l0.093,0.112l-0.006,0.117l0.037,0.204l0.037,0.099l0.019,0.31l-0.038,0.105l0.019,0.254l0.043,0.099l0.007,0.587l-0.081,0.13l-0.309,0.65l-0.18,0.068l-0.253,0.383l0.049,0.13l-0.179,0.477l-0.006,0.297l-0.112,0.099l-0.154,0.08l-0.279,0.718v0.117l-0.253,0.39l-0.112,0.043l-0.105,0.167l-0.018,0.235l-0.322,0.477l-0.112,0.049l-0.129,0.149l-0.056,0.303l-0.111,0.136l-0.118,0.117l-0.217,0.409l-0.012,0.235l-0.328,0.266l-0.117,0.025l-0.136,0.148l-0.038,0.52l0.099,0.408l-0.043,0.179l-0.117,0.136l0.006,0.557l0.124,0.223l-0.056,0.235l-0.198,0.322l-0.043,0.365l0.024,0.136l0.093,0.093l0.05,0.259l-0.031,0.106l0.086,0.334l-0.018,0.284l-0.081,0.13l-0.018,0.31l0.031,0.266l-0.235,0.593l-0.273,0.229l-0.297,0.767l-0.031,0.273l0.038,0.334l-0.161,0.451l-0.322,0.266l-0.186,0.446l0.019,0.167l-0.087,0.39l0.019,0.228l0.148,0.236l0.05,0.21l-0.037,0.575l0.031,0.408l0.025,0.403l-0.038,0.284l0.112,0.198l0.321,0.167l0.143,0.328l-0.044,0.371l0.007,0.136l0.043,0.099l-0.019,0.143l-0.352,0.42l-0.186,0.118l-0.13,0.148l-0.105,0.037l-0.223,0.551l-0.173,0.142l-0.056,0.217l-0.129,0.903l0.018,0.167l-0.179,0.371l-0.316,0.31l-0.055,0.309l0.074,0.161l-0.025,0.266l-0.056,0.08l0.037,0.204l0.198,0.223l0.093,0.204l-0.086,0.804l-0.217,0.669l-0.377,0.606l-0.273,0.075l-0.173,0.136l-0.173,0.334l-0.854,0.977l-0.668,0.656l-1.089,0.346l-0.408,0.062l-0.26,0.124l-0.866,0.804l-0.532,0.569l-0.606,1.003l-0.309,0.742l-0.322,0.854l-0.285,0.581l-0.359,0.52l-1.596,1.571l-0.334,0.161l-0.321,0.384l-0.037,0.532l0.074,1.15l0.272,0.941v0.259l-0.05,0.434l-0.136,0.21l-0.062,0.284l0.062,0.26l-0.074,0.409l-0.099,0.185l0.025,0.52l0.086,0.284l-0.049,0.384l-0.087,0.124v0.396l0.124,0.247v0.161l-0.074,0.136l0.012,0.223l0.223,0.21l0.012,0.161l-0.161,0.495l-0.383,0.445l-0.099,0.223l-0.062,0.272l-0.161,0.26l-0.26,0.309l-0.396,0.916l-0.185,0.186l-0.198,0.433l-0.099,0.383l-0.124,0.235l-0.185,0.124l-0.372,0.111l-0.297,0.013l-0.779,0.148l-0.458,0.149l-0.247,0.16l-0.211,0.248l-0.037,0.396l-0.148,0.272l-0.037,0.532l-0.174,0.161l-0.296,0.074l-0.359,-0.198l-0.223,0.013l-0.557,0.272l-0.198,0.049l-0.185,0.297l-0.062,0.211l-0.173,0.173l-0.198,0.359l-0.384,0.334l-0.136,0.049l-0.247,0.272l-0.038,0.124l-0.482,0.433l-0.235,0.47l-0.068,0.26l-0.093,0.074l-0.046,0.157l-0.186,0.158h-0.158l-0.195,0.102l-0.473,0.381l-0.241,0.046l-0.362,-0.111l-0.232,-0.238l-0.235,-0.037l-0.112,-0.031l-0.092,-0.075l-0.136,0.025l-0.106,0.105l-0.198,0.118l-0.049,0.074l-0.068,-0.012l-0.087,-0.223l0.006,-0.39l0.093,-0.093l0.006,-0.061l-0.043,-0.038l0.006,-0.055l0.05,-0.031l0.012,-0.093l-0.08,-0.099l0.018,-0.186l0.062,-0.105v-0.272l-0.117,-0.025l-0.081,-0.117l-0.025,-0.18l-0.204,-0.259l0.037,-0.112l0.471,-0.185l0.074,-0.161l0.204,-0.266l-0.037,-0.105l-0.223,-0.112l-0.322,-0.414l0.019,-0.112l0.105,-0.049l0.081,-0.204l-0.075,-0.074l-0.191,0.018l-0.13,0.081l0.012,0.08l-0.062,0.043l-0.161,-0.012l-0.111,0.074h-0.13l-0.179,0.093l-0.056,0.111l-0.365,0.173l-0.056,0.081l-0.123,0.031l-0.056,-0.05l-0.08,0.007l-0.099,0.08l-0.186,0.037l-0.167,-0.037l-0.328,0.124l-0.093,-0.037l-0.043,0.037l0.043,0.086l-0.13,0.211l-0.074,-0.013l-0.043,0.037l-0.013,0.093l-0.074,0.118l-0.155,0.049l-0.228,-0.055l-0.112,0.024l-0.167,-0.074l-0.012,-0.155l-0.037,-0.043h-0.081l-0.024,-0.074l0.018,-0.087l-0.086,-0.099l-0.168,-0.037l-0.191,0.031l-0.062,0.093l-0.112,0.031l-0.092,-0.006l-0.044,0.049l-0.024,0.235l0.061,0.093l-0.024,0.476l-0.05,0.204l-0.062,0.038l-0.018,0.061l0.043,0.099l-0.043,0.038l-0.087,0.006l-0.018,0.086l0.191,0.186l-0.006,0.142l-0.08,0.019l-0.167,-0.019l-0.037,0.056l0.105,0.21l-0.056,0.105l-0.074,0.007l-0.223,-0.167h-0.086l-0.031,0.055l0.062,0.031l-0.025,0.068l-0.112,0.204v0.087l-0.068,0.049l-0.136,-0.03l-0.198,-0.279l-0.092,-0.031l-0.229,0.124l-0.037,0.117l0.074,0.056l0.055,-0.037l0.031,0.05l-0.037,0.123l-0.167,0.062l-0.124,0.105l-0.21,0.075l-0.142,0.006l-0.025,0.055l0.142,0.13v0.161h-0.037l-0.086,-0.13l-0.082,-0.029l-0.178,-0.169l0.031,-0.34l-0.081,-0.105l-0.16,-0.099l-0.106,0.025l-0.297,-0.099l-0.117,-0.186l-0.13,-0.056l-0.235,-0.315l-0.124,-0.025l-0.056,-0.099l-0.061,-0.241l-0.155,-0.124l-0.087,-0.161l-0.092,-0.037l-0.069,0.013l-0.074,0.191v0.279l0.074,0.068v0.074l-0.055,0.037l-0.044,0.037l-0.16,-0.006l-0.081,-0.062l-0.086,0.013l-0.098,0.179l-0.094,0.037l-0.093,-0.056l-0.173,0.019l-0.099,0.07l-0.198,0.085l-0.043,0.099l-0.068,0.006l-0.118,-0.081l-0.155,0.075l0.006,0.092l-0.049,0.019l-0.093,-0.037l-0.048,0.052l0.019,0.038l-0.042,0.046h-0.042l-0.06,0.083l-0.042,0.181l-0.069,0.051l-0.005,0.051l0.037,0.028l-0.028,0.056l-0.079,0.028l-0.06,0.069l-0.005,0.07l-0.051,0.023h-0.13l-0.129,0.112l-0.075,0.134l-0.041,0.227l-0.075,0.038l-0.06,-0.014l-0.088,0.009l-0.037,0.037l-0.088,0.005l-0.093,-0.065l-0.102,-0.005l-0.093,0.065l-0.009,0.19l-0.112,0.158v0.084l-0.055,0.023l-0.079,-0.014l-0.112,0.056l-0.014,0.055l-0.037,0.019l-0.051,-0.033l-0.065,0.014l-0.032,0.061l-0.084,0.004l-0.065,-0.028l-0.097,0.028l-0.046,0.084l-0.163,0.097l-0.014,0.074l-0.046,0.042l0.004,0.056l0.079,0.023l0.028,0.084l0.112,0.106l0.083,0.01l0.056,-0.033l0.06,0.005l0.037,0.079l-0.018,0.092v3.879h-1.75l-0.065,0.065l-0.18,-0.004l-0.093,0.046l-0.061,0.093l0.242,0.413l0.621,0.631l0.33,0.427l0.088,0.004l0.084,-0.065l0.143,-0.014l0.32,-0.074l0.126,0.046l0.032,0.093l-0.111,0.153l-0.251,0.079l-0.079,0.107l0.028,0.065l0.121,0.023l0.469,-0.167l0.129,0.009l0.07,-0.041l0.097,-0.153l0.186,-0.052l0.548,0.038l0.222,-0.107l0.051,-0.088l0.037,-0.283l0.237,-0.242l0.807,-0.329l0.195,-0.042l0.487,0.135h0.333l0.092,-0.005l0.244,0.121l0.016,0.115l0.091,0.072l0.086,0.002l0.226,-0.169l0.304,-0.085l0.214,-0.009l0.26,0.051l0.246,0.153l0.181,0.074l0.12,-0.005l0.084,-0.176l0.083,-0.042l0.209,-0.004l0.07,-0.042l0.129,-0.009l0.112,0.027l0.236,0.005l0.112,-0.023l0.204,0.06l0.083,0.051h0.079l0.075,-0.088l0.069,-0.014l0.13,0.037l0.974,-0.009l0.409,-0.028l0.343,-0.093l0.52,-0.014l0.218,-0.125h0.13l0.181,0.13l0.139,0.005l0.237,-0.079l0.283,0.014l0.037,0.041l0.092,0.005l0.089,-0.06l0.13,0.037l0.055,0.121l0.186,0.009l0.083,0.069l0.116,-0.004l0.093,-0.088l0.149,0.004l0.111,0.126l0.223,0.074l0.761,0.018l0.315,-0.055l0.566,0.111l0.696,-0.186l1.559,-0.055h3.601l1.308,-0.047l0.872,0.121l2.292,-0.116h1.476l0.125,0.042l0.251,-0.005l0.134,-0.116l0.177,-0.032l0.264,0.079l0.051,0.083l0.13,0.033l0.102,-0.019l0.084,0.079l-0.033,0.315l0.042,0.079l0.107,0.019l0.004,0.069l-0.074,0.042l-0.005,0.056l0.061,0.06l0.018,0.116l-0.06,0.163l0.046,0.069l0.13,-0.005l-0.009,0.061l-0.121,0.069v0.065l0.223,-0.004l0.111,0.092l-0.083,0.126l0.042,0.032l0.083,-0.023l0.102,0.088l0.111,0.005l0.13,0.125l0.126,0.265l-0.037,0.162l-0.107,0.056l-0.005,0.055l0.056,0.135l-0.047,0.167l0.098,0.441l-0.051,0.097l-0.144,-0.004l-0.051,0.055l0.014,0.297l0.204,0.047l-0.009,0.106l-0.139,0.061l-0.01,0.055l0.163,0.126l0.009,0.12l-0.065,0.023l-0.009,0.079l0.25,0.251l0.01,0.116l-0.116,0.171l0.014,0.163l0.134,0.079l0.028,0.139l-0.042,0.148l0.051,0.323l0.068,0.185l0.167,0.037l0.056,0.093l-0.031,0.285l0.093,0.198l0.142,0.024l0.056,0.081l0.012,0.198l-0.056,0.111l0.013,0.068h0.111l0.068,-0.062l0.118,0.013l0.154,0.266l-0.018,0.179l0.08,0.136l-0.025,0.087l-0.099,0.068l0.019,0.186l0.087,0.049l0.142,-0.006l0.235,0.216v0.118l-0.074,0.049l-0.056,0.205l-0.062,0.024l-0.105,-0.105l-0.062,0.031l0.105,0.408l0.13,0.198l0.019,0.118l-0.025,0.185l0.167,0.192l0.025,0.124l0.117,0.056l0.136,-0.025l0.081,0.043l0.018,0.093l0.236,0.142l0.173,0.044l0.105,0.111l-0.081,0.334l0.038,0.093l0.13,-0.006l0.049,-0.106l0.093,-0.006l0.229,0.167l-0.037,0.081l-0.124,0.062l-0.031,0.099l0.049,0.117l0.174,0.031l0.105,0.111l-0.056,0.13l0.142,0.303l0.18,0.186l0.346,0.148l0.037,0.093l-0.068,0.161l0.062,0.21l0.198,0.192l-0.043,0.229l0.124,0.161l0.228,-0.012l0.075,0.074l-0.062,0.124l0.037,0.08l0.099,-0.006l0.155,0.142l-0.007,0.124l0.038,0.086h0.123l0.05,0.099l-0.087,0.106l0.056,0.179l0.21,0.192v0.198l0.062,0.136l0.226,0.15l-0.01,0.158l-0.139,0.12l0.01,0.093l0.139,0.028l0.157,0.195l0.223,0.046l0.279,0.009l0.324,-0.167l0.501,-0.046l0.242,0.111l0.139,-0.009l0.102,-0.13l0.232,-0.074l0.42,0.008l0.286,0.126h0.859l0.038,-0.074l-0.081,-0.161l0.031,-0.149l0.074,-0.049l0.081,0.056l0.13,-0.044l0.057,-0.131l0.079,-0.042l0.154,-0.031l0.099,-0.142l0.161,-0.019l0.13,0.05l0.081,0.006l0.092,-0.025l0.149,0.037l0.037,0.093l0.105,0.068l0.291,0.043l0.179,-0.006l0.175,-0.135h0.768l0.046,-0.219l-0.037,-0.158l0.003,-0.179h1.503l0.068,-0.019l0.05,0.012l0.049,0.412l0.085,0.155h3.865l-0.005,-0.079l-0.125,-0.251l0.005,-0.246l-0.038,-0.055l-0.055,0.004l-0.019,-0.046l0.065,-0.088l0.084,-0.186l0.009,-0.139l-0.028,-0.083v-0.126l0.112,-0.079l0.06,-0.139l-0.009,-0.12l0.092,-0.274l0.051,-0.074l-0.023,-0.205l-0.088,-0.116v-0.069l-0.102,-0.195l-0.051,-0.033v-0.162l0.079,-0.093h0.645l0.055,-0.074l-0.037,-0.06l0.019,-0.079l0.056,-0.037l0.004,-0.088l-0.056,-0.061l0.033,-0.088l0.111,-0.037l0.084,-0.06l0.056,-0.121l0.088,-0.037l0.009,-0.056l-0.093,-0.069l-0.074,-0.158l0.028,-0.06l-0.019,-0.107l-0.107,-0.056l-0.055,-0.139l0.046,-0.093v-0.065l-0.102,-0.26l0.06,-0.338l0.061,-0.065l0.037,-0.26l-0.065,-0.135l0.009,-0.12l0.056,-0.079l0.028,-0.181l0.116,-0.135l0.004,-0.106l0.181,-0.191l0.01,-0.088l-0.093,-0.097l-0.006,-0.204h4.986l-0.003,-0.065l0.025,-0.025l0.003,-0.096l0.031,-0.049l0.012,-0.171l0.037,-0.126l0.473,-0.019h1.572l0.009,0.05l-0.034,0.043l0.018,0.151l-0.034,0.174l-0.058,0.071l0.003,0.114l-0.068,0.034l-0.059,0.118l0.003,0.204l-0.062,0.179l-0.08,0.068l-0.09,0.223l-0.059,0.05l-0.003,0.077l0.056,0.043l0.003,0.17l0.018,0.056l-0.027,0.152l-0.05,0.065l0.009,0.133l0.038,0.089l0.006,0.062l-0.04,0.031l-0.004,0.04l0.033,0.034h8.146v0.136l0.142,0.031l0.176,0.279l0.045,0.233l-0.057,0.089l0.008,0.113l0.138,0.079l0.017,0.121l-0.064,0.081v0.05l0.06,0.04l0.005,0.12l-0.083,0.121l-0.014,0.158l0.088,0.143l-0.01,0.089l-0.06,0.051l-0.009,0.092l0.037,0.075l-0.097,0.157l-0.01,0.144l-0.051,0.088l-0.069,0.019l-0.024,0.065l0.024,0.065l-0.107,0.255l-0.009,0.097l-0.051,0.154l-0.102,0.12l-0.028,0.153l0.051,0.079l-0.01,0.139l-0.06,0.056l-0.018,0.121l0.078,0.176l-0.027,0.195l-0.126,0.125v0.13l0.051,0.07l0.042,0.13l-0.018,0.153l0.078,0.185l0.084,0.037l0.19,0.228l0.177,0.441l0.12,0.162l0.135,0.111l-0.014,0.051l-0.051,0.024l-0.014,0.083l0.111,0.381l-0.018,0.106l0.051,0.135l0.069,0.079h0.107l0.056,0.032l0.004,0.153l-0.074,0.051l-0.014,0.075l0.051,0.162l-0.042,0.074l0.019,0.088l0.153,0.153l0.028,0.135l-0.051,0.162l0.009,0.093l0.056,0.084l-0.019,0.079l-0.093,0.074l-0.013,0.069l0.055,0.102l-0.014,0.112l-0.051,0.042l-0.037,0.125l0.074,0.079l-0.014,0.065l-0.143,0.088l-0.042,0.097l0.065,0.191l-0.023,0.046l-0.065,0.037l-0.065,0.19l0.028,0.422l-0.075,0.302l-0.074,0.06l-0.074,0.205l0.032,0.111v0.079l-0.079,0.097l-0.013,0.107l0.046,0.093l-0.009,0.097l-0.09,0.249l0.006,0.266l0.04,0.117l-0.018,0.102l-0.087,0.074l0.01,0.508l0.083,0.08l0.043,0.121l-0.012,0.424l-0.096,0.123l-0.105,0.396l-0.113,0.151l-0.025,0.371l-0.086,0.124l-0.013,0.099l0.198,0.154l0.074,0.415l0.062,0.161l0.13,0.105l0.056,0.223l-0.037,0.154l0.086,0.322l0.167,0.13l0.081,0.006l0.136,0.118l0.012,0.105l0.211,0.179l0.074,0.198l0.093,-0.031l0.049,0.013l0.037,0.253l0.105,0.229l0.118,0.019l0.062,0.136l0.148,0.149l0.146,0.051l0.114,-0.052l0.071,0.03l0.009,0.064l0.069,0.04l0.148,-0.007l0.17,0.127l0.059,0.151l-0.025,0.056l0.01,0.074l0.052,0.084l0.016,0.235l0.046,0.068l-0.019,0.145l0.096,0.146l-0.003,0.077l-0.031,0.025l-0.006,0.114l0.053,0.093l-0.003,0.139l-0.047,0.065l-0.006,0.124l0.077,0.037l0.047,0.081l-0.01,0.201l0.044,0.08l0.077,0.046l0.068,0.167l0.121,0.084l0.031,0.117l-0.037,0.087l0.021,0.068l0.062,0.025l0.136,0.247l-0.006,0.102l0.114,0.229l-0.043,0.105l-0.08,0.062l-0.11,0.212l0.004,0.102l-0.052,0.081l-0.007,0.092l-0.07,0.063l-0.003,0.035l0.182,0.112l0.038,0.045l0.004,0.095l0.042,0.088l0.003,0.06l-0.035,0.095l0.05,0.262l0.049,0.039v0.024l-0.045,0.029l-0.021,0.147l0.014,0.053l0.059,0.063l0.021,0.169l-0.021,0.063l0.007,0.049l0.07,0.046l0.014,0.053l-0.032,0.14l-0.137,0.117l-0.069,0.031l-0.171,0.018l-0.045,0.046l-0.164,0.056l-0.066,0.056l-0.108,0.046l-0.108,0.091l-0.042,0.07l-0.077,0.064l-0.048,0.014l-0.028,0.084l0.021,0.063l0.038,0.021l0.035,0.078l-0.021,0.066l0.017,0.029l0.042,0.003l0.021,0.032v0.091l0.021,0.021h0.038l0.042,0.06v0.285l-0.024,0.031l0.003,0.025l0.031,0.01l0.011,0.162l0.056,0.081l0.014,0.06l-0.035,0.13v0.137l-0.018,0.049l0.039,0.197l0.038,0.066l0.139,0.074l0.049,0.042l0.014,0.078l0.056,0.066l0.01,0.064l0.038,0.07v0.112l-0.101,0.102l-0.003,0.039l0.021,0.032l0.003,0.108l-0.045,0.064l-0.007,0.074l0.028,0.038h0.118l0.251,-0.165l0.234,-0.242l0.017,-0.106l0.031,-0.039l0.404,-0.031l0.115,0.014l0.07,-0.018l0.146,-0.147l0.014,-0.056l0.147,-0.092l0.097,-0.105l0.011,-0.071l-0.084,-0.094l-0.003,-0.208l0.073,-0.123l0.08,-0.017l0.066,0.021h0.07l0.202,-0.088l0.108,0.007l0.073,0.035l0.132,0.011l0.084,0.066l0.028,0.102l0.066,0.078l0.303,0.133l0.052,-0.003l0.032,0.021l0.013,0.07l0.07,0.035l0.237,-0.003l0.118,0.042l0.088,-0.004l0.073,-0.049l0.076,-0.105l0.046,-0.035l0.083,-0.007l0.087,-0.032l0.101,-0.116l0.126,-0.018l0.122,0.018l0.115,0.109l0.062,0.039l0.324,0.003l0.126,0.035l0.073,0.004l0.056,-0.021h0.236l0.074,0.021l0.08,0.07l0.118,0.046h0.07l0.073,-0.039l0.157,-0.035l0.174,-0.116h0.052l0.049,0.042l0.021,0.056l0.157,0.06l0.087,-0.014l0.191,-0.197l0.056,-0.031l0.105,-0.004l0.048,-0.028l0.077,-0.144l0.084,-0.032l0.041,-0.038l0.014,-0.057l0.056,-0.042l0.167,-0.01l0.042,-0.032l0.042,-0.091l0.317,-0.229l0.07,-0.024l0.09,-0.007l0.049,-0.018l0.042,-0.06l0.331,-0.056l0.23,0.007l0.411,0.197l0.104,0.098l0.073,0.007l0.077,-0.028l0.219,0.003l0.133,0.119l0.06,0.019l0.293,-0.019l0.132,-0.087l0.116,-0.002l0.446,0.225l0.17,0.03l0.069,0.061h0.03l0.144,-0.15l0.042,-0.203l0.181,-0.164l0.054,-0.008l0.056,0.017l0.044,-0.019l0.009,-0.04l0.104,-0.103l0.038,-0.136l0.062,-0.075l0.148,-0.076z"/>
</svg>
