<svg xmlns="http://www.w3.org/2000/svg" viewBox="1212.318 678.192 86.041 58.159">
  <path d="M1219.413989,701.243343l0.309,0.112l1.163,-0.025v0.068l0.18,0.223l0.253,0.043l0.068,0.105h0.18l0.544,-0.154l0.161,-0.087l0.303,-0.05l0.409,-0.321l-0.025,-0.136l0.093,-0.124l0.34,-0.099l0.185,0.012l0.236,-0.055l0.092,-0.099l0.099,-0.013l0.211,0.068l0.29,-0.117l0.18,-0.18l0.6,-0.154l0.204,-0.242v-0.08l-0.062,-0.031l-0.012,-0.303l0.111,-0.217l0.105,-0.006l0.118,0.124l0.142,-0.031l0.161,-0.291l0.285,-0.21l0.241,-0.093l0.062,0.025l-0.099,0.179l0.049,0.483l0.13,0.093l0.124,0.012l0.21,0.148l0.013,0.427l0.247,0.235l0.247,0.019l0.304,0.229l0.086,0.278l0.161,0.161h0.161l0.099,-0.117l0.142,-0.019l0.105,0.031l0.037,-0.062l-0.049,-0.099v-0.198l0.049,-0.068l0.149,-0.049l0.043,-0.093l0.105,-0.006l0.112,0.037l0.476,-0.05l0.291,-0.161l0.025,-0.148l0.092,-0.031l0.211,0.173l0.161,-0.055l-0.013,-0.174l0.334,-0.161l0.006,-0.117l0.124,-0.074l0.13,0.024l0.093,-0.031v-0.191l0.235,-0.235l0.167,-0.031l0.074,-0.062l-0.006,-0.068l0.099,-0.056l0.229,0.006l0.204,-0.142l0.124,0.006l0.093,-0.031l0.018,-0.105l0.118,-0.037l0.222,0.161h0.087l0.093,-0.105l0.037,-0.235l0.118,-0.019l0.086,0.087l0.074,-0.019l0.025,-0.08l0.13,-0.007l0.254,-0.092l0.08,-0.05l0.043,-0.179l0.13,-0.019l0.075,0.062l0.049,-0.006l0.037,-0.043h0.087l0.049,0.03l1.361,0.161l0.687,-0.408l3.662,-0.204l0.217,-0.093l0.012,-0.068l0.081,-0.049l0.031,-0.05l-0.013,-0.39l0.204,-0.383l0.143,-0.118l0.309,-0.136l0.377,-0.099l0.291,-0.229l0.118,-0.229l-0.007,-0.086l0.081,-0.105l0.142,-0.044l0.142,-0.148l0.062,-0.019l0.037,-0.049l-0.006,-0.155l0.192,-0.291l0.118,-0.024l0.049,-0.05l-0.019,-0.062l0.05,-0.049l0.093,-0.013l0.018,-0.062l-0.043,-0.049l0.031,-0.068l0.192,-0.006l0.086,-0.087l0.081,-0.346l0.105,-0.167l0.012,-0.136l0.037,-0.05l0.093,-0.006l0.124,-0.155l0.111,-0.018v-0.056l-0.105,-0.148l-0.124,-0.069l-0.13,-0.012l-0.272,-0.204l-0.006,-0.074l-0.062,-0.056l-0.161,-0.037l-0.16,-0.105l-0.081,-0.143l-0.124,-0.055l-0.117,0.025l-0.087,-0.081l-0.018,-0.192l-0.062,-0.049l-0.142,0.062l-0.081,-0.037l0.019,-0.137l0.154,-0.173l0.087,0.006l0.049,-0.03l-0.006,-0.112l0.149,-0.068h0.173l0.148,-0.062l0.068,-0.216l0.205,-0.124l0.21,-0.043l0.117,-0.099l0.143,-0.031l0.099,0.062l0.408,-0.007l0.124,-0.105h0.507l0.124,0.075l0.21,0.012l0.149,-0.05l0.315,0.013l0.18,-0.044l0.266,0.019l0.024,0.08l0.081,0.007l0.142,-0.037l0.074,-0.112h0.062l0.05,0.056l0.167,-0.006l0.08,-0.05l0.235,-0.037l0.285,0.012l0.08,0.062h0.087l0.049,-0.043l0.328,-0.025l0.186,-0.111l0.445,-0.037l0.068,-0.056h0.087l0.086,0.074l0.093,-0.006l0.112,-0.08l0.278,-0.056l0.093,0.068l0.055,-0.018l-0.037,-0.087l0.062,-0.074l0.39,-0.081l0.093,0.019l0.055,-0.043l-0.024,-0.093l0.111,-0.044l0.043,-0.092l0.075,-0.013l0.136,0.074l0.086,-0.024l0.031,-0.112l0.074,-0.018l0.18,0.105l0.396,0.025l0.099,-0.081l0.204,0.019l0.142,0.136l0.365,0.049l0.316,-0.03l0.074,-0.099l0.284,-0.093l0.106,0.031l0.111,-0.019l0.124,-0.377l0.161,-0.099l0.142,-0.013l0.056,-0.061l-0.167,-0.365l0.037,-0.069l0.123,-0.012l0.068,-0.043l0.05,-0.186l0.105,-0.006l0.043,0.05h0.081l0.049,-0.075h0.056l0.142,0.192l0.359,-0.012l0.031,-0.062l-0.087,-0.081l-0.006,-0.278l0.099,-0.087l0.173,-0.074l0.31,0.019l0.148,-0.025l0.056,-0.155l0.185,-0.092l0.137,0.08l0.068,-0.031l-0.025,-0.217l0.099,-0.105l0.155,0.037l0.055,-0.043l-0.031,-0.08l0.05,-0.143l0.161,-0.055l0.099,0.043l0.055,-0.019l-0.006,-0.278l0.08,-0.037l0.106,0.019l0.049,-0.025l-0.025,-0.254l0.056,-0.056l0.142,0.013l0.031,-0.062l-0.123,-0.08l0.018,-0.05l0.118,0.006l0.006,-0.062l-0.081,-0.055l0.025,-0.05l0.099,-0.025l0.013,-0.117l-0.161,-0.062l-0.028,-0.074l0.037,-0.037l0.179,0.071l0.022,-0.025l-0.068,-0.195l0.049,-0.028l0.087,0.084l0.127,-0.025l0.003,-0.111l-0.084,-0.05l0.004,-0.089l0.145,-0.062l0.028,0.018l0.015,0.068l0.071,0.019l0.062,-0.009l0.034,-0.071l0.263,-0.133l0.013,-0.069l-0.034,-0.049l0.027,-0.155l0.288,-0.312l0.285,-0.108l0.024,-0.075l-0.049,-0.089l0.083,-0.164l0.146,-0.05l0.108,-0.219l0.127,-0.013l0.13,0.13l0.055,0.003l0.056,-0.065h0.077l0.115,0.124l0.08,-0.012l0.047,-0.087l0.269,-0.108l0.04,-0.248l0.059,-0.102l0.145,-0.021l0.053,-0.059l-0.047,-0.099l0.028,-0.062l0.059,-0.016l0.025,-0.061l-0.05,-0.13l0.019,-0.075l0.08,-0.018l0.05,-0.056l-0.031,-0.093l0.055,-0.043l0.075,0.013l0.055,-0.05l0.007,-0.099l0.142,-0.093l0.025,-0.105l0.111,-0.087h0.111l0.093,0.081h0.204l0.124,-0.099l0.093,-0.025l0.093,0.019l0.204,-0.037l0.031,-0.056l-0.081,-0.074l0.019,-0.068l0.086,-0.099l0.217,-0.075l0.124,-0.179l0.006,-0.105l-0.062,-0.081l0.025,-0.055h0.093l0.018,-0.056l-0.043,-0.08l0.012,-0.093l0.198,-0.18l-0.006,-0.068l-0.093,-0.012l-0.018,-0.049l0.018,-0.075l-0.031,-0.117l-0.111,-0.056l-0.124,-0.142v-0.186l0.062,-0.074l0.019,-0.087l-0.025,-0.377l0.08,-0.353l0.081,-0.006l0.049,0.062h0.068l0.124,-0.167l0.098,-0.098l0.186,-0.047l0.167,0.084h0.129l0.168,-0.111l0.092,-0.177l0.371,-0.139l0.195,0.019l0.13,-0.056l-0.028,-0.251l0.065,-0.204l0.205,-0.185l0.371,-0.019l0.417,0.13l0.121,-0.056l0.093,-0.287l0.157,-0.158l0.084,-0.167l0.134,-0.041l0.099,0.031l0.167,-0.031l0.105,-0.111l0.173,-0.038l0.143,0.013l0.352,-0.087l0.117,-0.186l0.205,-0.093l0.322,0.019l0.136,0.05h0.111l0.247,-0.023l0.195,0.056l0.167,0.093l0.139,0.028l0.204,-0.028l0.438,0.107l0.091,0.116l0.326,0.078l0.13,-0.019l0.133,0.031l0.018,0.195l0.213,0.186l0.455,0.64l0.158,0.464l0.121,0.093l0.25,0.065l0.585,0.445l0.093,0.176l0.102,0.093l0.157,0.084l0.446,0.426l0.188,0.134l2.5,3.959l0.161,1.475l-0.446,0.684v0.124l0.068,0.099v0.167l-0.049,0.16l0.043,0.217l0.062,0.019l0.08,-0.062l0.093,0.024l0.025,0.087l-0.074,0.204l-0.106,0.056l-0.055,0.192l-0.006,0.321l0.099,0.279l-0.05,0.068h-0.124l-0.099,0.13l-0.043,0.167l-0.377,0.29l-0.136,0.025l-0.143,-0.043l-0.148,0.093l-0.093,0.21l-0.006,0.173l-0.093,0.371l-0.068,0.124l0.006,0.124l0.062,0.093l0.006,0.086l0.05,0.05l0.08,0.006l0.112,0.099l0.204,0.019l0.092,-0.025l0.069,-0.192l0.086,-0.111l0.093,0.006l0.068,0.111l-0.006,0.136l-0.074,0.149v0.099l0.061,0.08v0.136l-0.099,0.248l-0.167,0.179l-0.136,0.056l-0.092,0.173l-0.025,0.173l0.074,0.124l0.025,0.111l-0.019,0.124l0.062,0.031l0.068,-0.019l0.074,0.019l0.05,0.056l0.074,-0.007l0.062,-0.16l0.105,-0.068h0.248l0.179,0.099l0.315,0.037l0.13,0.074l0.136,0.018l0.062,-0.049l0.093,0.006l0.068,0.081h0.093l0.148,-0.081l0.335,-0.006l0.111,0.043l0.167,-0.018l0.074,-0.044l0.297,0.007l0.223,0.136l0.093,0.006l0.068,-0.043h0.117l0.248,0.13l0.402,0.03l0.154,-0.117l0.099,-0.006l0.149,0.099l0.074,-0.006l0.13,-0.099l0.149,-0.007l0.061,0.05l-0.08,0.13l-0.031,0.136l-0.08,0.155l0.006,0.111l0.167,0.148v0.087l-0.074,0.099l-0.205,0.142l-0.284,0.39l-0.111,0.353l-0.019,0.414l0.198,0.316l0.254,0.222l0.29,0.081l0.285,0.031l0.297,0.086l0.136,-0.018l0.124,-0.099l0.148,-0.044l0.217,0.044l0.204,0.142l0.148,0.192l0.266,0.124l0.248,-0.007l0.284,-0.111l0.167,0.006l0.26,0.099l0.26,0.037l0.179,0.13l0.186,0.006l0.105,-0.043h0.124l0.26,0.124l0.216,0.39l0.068,0.321l0.099,0.124l0.254,0.204l0.117,0.198l0.557,0.415l0.143,0.142l0.123,0.08l0.235,-0.006l0.235,-0.068l0.099,0.019l0.093,0.099l0.173,0.086l0.242,0.347l0.037,0.117l0.056,0.019l0.049,-0.025l0.068,0.025l0.019,0.29l-0.062,0.198l0.012,0.174l0.118,0.099l-0.013,0.074h-0.068l-0.037,0.062l0.006,0.105l-0.136,0.08h-0.136l-0.148,0.087l-0.087,0.099l-0.216,0.142l-0.007,0.093l0.118,0.093l0.018,0.117l-0.037,0.211l0.075,0.08l0.074,-0.006l0.093,0.037l0.105,0.08l0.179,0.019l0.099,0.062l0.105,0.155l0.105,0.068l0.124,0.031l0.081,0.142l0.006,0.216l0.111,0.174l0.155,0.086l0.08,-0.006l0.198,0.13l0.087,0.012l0.062,0.037l0.012,0.118l0.223,0.093l0.198,-0.056l0.08,0.031l0.037,0.105l0.068,0.025l0.056,-0.037l0.056,0.025l0.012,0.179l0.05,0.018l0.061,-0.08l0.062,0.012l0.006,0.118l0.062,0.037l0.143,0.006l0.241,0.099l0.173,0.025l0.186,0.111l0.092,-0.006l0.075,0.037l0.006,0.062l0.08,0.031h0.235l0.149,0.068l0.018,0.093l-0.037,0.062l0.025,0.074l0.316,0.031l0.216,0.105l0.006,0.068l-0.049,0.068l0.031,0.062l0.105,0.006l0.198,0.149l0.21,0.012l0.068,0.05l-0.006,0.08l0.074,0.05h0.266l0.099,0.049l0.044,0.118l-0.019,0.099l0.012,0.123l-0.068,0.112l0.031,0.068l0.062,0.024l0.05,0.075l0.055,0.024l0.081,-0.006l0.055,0.056l-0.024,0.297l0.074,0.136l0.142,0.074l0.279,0.037l0.074,0.05l0.018,0.105l0.13,0.118l0.044,0.105l0.092,0.068l0.155,0.031l0.093,0.074l0.037,0.105l0.056,0.037l0.476,0.087l0.142,0.068l0.093,0.111l0.254,0.161v0.105l-0.068,0.099l-0.087,0.013l-0.074,0.08l0.012,0.093l-0.055,0.031l-0.081,-0.019l-0.062,0.056l-0.062,0.167l-0.123,0.117l-0.025,0.093l0.037,0.081l-0.037,0.049l-0.081,-0.012l-0.148,0.055l-0.056,0.124l0.037,0.056l0.099,-0.019l0.05,0.044l-0.012,0.08l0.055,0.074v0.093l-0.099,0.093l0.013,0.099l0.34,0.266l0.235,0.266l0.124,0.068h0.161l0.247,0.13l0.043,0.105l-0.012,0.204l0.087,0.099l0.099,-0.006l0.08,-0.062l0.093,0.012l0.068,0.087v0.136l-0.068,0.13l-0.136,0.136l-0.254,0.136l-0.118,0.105l-0.018,0.124l0.056,0.112l0.068,0.006l0.105,-0.124l0.154,-0.068l0.112,0.018l0.086,0.093l0.031,0.155l0.124,0.186l0.161,0.099l0.155,0.012l0.247,0.111l0.161,0.006l0.111,-0.049l0.105,0.006l0.081,0.043l0.111,0.007l0.087,-0.031l0.105,0.024l0.105,0.112l0.155,0.062l0.099,-0.031l0.086,0.043l0.031,0.148l0.031,0.322l0.105,0.105l0.137,0.025l0.142,-0.056l0.124,0.038l0.08,0.129l0.142,0.112l0.149,0.037l0.161,-0.031l0.154,0.062l0.05,0.161l0.173,0.154l0.148,0.05l0.124,-0.068h0.105l0.087,0.093l0.093,0.074l0.173,0.018l0.025,0.068l-0.099,0.075l-0.006,0.068l0.284,0.099l0.118,0.173l0.049,0.179l0.118,0.198l-0.031,0.198l0.031,0.118l0.055,0.006l0.05,-0.037l0.13,0.012l0.062,0.087l-0.019,0.124v0.191l-0.124,0.192l-0.167,0.495l0.006,0.272l0.106,0.118l0.018,0.099l-0.037,0.068v0.13l0.167,0.284l0.124,0.192l0.031,0.161l0.099,0.161l0.272,0.13l0.297,0.272l0.074,0.241l0.099,0.105l0.105,0.056l0.112,0.155v0.222l-0.075,0.13l-0.054,-0.14l0.042,-0.154l-0.032,-0.113l-0.219,-0.132l-0.394,-0.137l-0.125,-0.099l-0.102,-0.042l-0.144,-0.005l-0.26,-0.118l-0.139,-0.018l-0.176,-0.09l-0.102,-0.122l-0.288,-0.123l-0.269,-0.037l-0.177,0.009l-0.329,0.122l-0.065,0.071l-0.385,0.174l-0.125,0.033l-0.089,0.09l-0.125,0.264l-0.004,0.089l-0.038,0.057l-0.088,0.023l-0.06,0.104l-0.005,0.075l-0.102,0.042l-0.097,-0.037l-0.056,-0.085l-0.088,-0.019l-0.051,0.052l-0.074,0.005l-0.167,-0.16l-0.075,-0.175l-0.171,-0.061l-0.217,0.046l-0.123,0.056l-0.075,-0.025l-0.068,0.013l-0.031,0.069l-0.062,0.025l-0.099,-0.038l-0.08,0.019l-0.019,0.082l-0.061,0.006l-0.062,-0.082h-0.186l-0.173,0.069l-0.068,0.151l-0.056,-0.006v-0.088l-0.055,0.006l-0.062,0.069h-0.149l-0.278,-0.063l-0.031,-0.094l0.012,-0.113l-0.105,-0.119h-0.08l-0.062,-0.044l0.012,-0.082l-0.068,-0.031l-0.068,0.031l-0.049,-0.025l-0.019,-0.088l-0.068,-0.025l-0.087,0.031l-0.061,-0.006l-0.062,-0.056h-0.112l-0.062,0.056l-0.105,-0.019l-0.068,-0.088l-0.124,-0.081l-0.099,0.006l-0.055,-0.044l0.012,-0.082l-0.105,-0.081l-0.124,-0.013l-0.055,-0.044l-0.007,-0.157l-0.055,-0.012l-0.05,0.069l-0.055,-0.019l0.006,-0.069l-0.056,-0.013l-0.049,0.032l-0.068,-0.006l-0.031,-0.126h-0.118l-0.136,0.1l-0.099,-0.006l-0.056,0.038l0.056,0.138l-0.043,0.031l-0.068,-0.025l-0.099,0.038l-0.025,0.082h-0.068l-0.025,-0.114l-0.056,-0.006l-0.074,0.057l-0.13,-0.032l-0.018,-0.125l-0.112,-0.019l-0.061,-0.082l-0.075,0.007l-0.08,0.169l0.012,0.107l-0.043,0.038l-0.13,-0.044l-0.161,0.012l-0.018,0.05l0.043,0.095l-0.031,0.081l-0.074,-0.031l-0.093,-0.22v-0.082l-0.124,-0.044l-0.124,0.044l-0.068,0.157l-0.061,0.007l-0.118,-0.151l0.019,-0.176l-0.056,-0.025l-0.087,0.057l-0.055,-0.019l0.049,-0.113l-0.031,-0.132h-0.099l-0.012,0.069l0.062,0.025l-0.025,0.082l-0.149,0.075l-0.08,-0.038l-0.031,-0.132l-0.117,-0.081l-0.05,-0.113l-0.285,-0.12l-0.037,-0.081l-0.117,-0.032l-0.062,0.063l0.025,0.057l-0.037,0.05l-0.093,-0.05l-0.037,-0.082h-0.081l-0.024,-0.075l0.148,-0.051v-0.062l-0.074,-0.025l-0.099,0.025l-0.068,-0.051l-0.031,-0.113l-0.044,-0.037l-0.123,0.025l-0.112,-0.069l-0.043,0.025l0.037,0.094l0.068,0.044l-0.024,0.057l-0.118,0.007l-0.079,0.07l-0.056,-0.01l-0.092,-0.083l-0.07,0.005l-0.056,0.106l-0.051,0.014l-0.092,-0.018l-0.121,0.065l-0.033,0.125l-0.078,0.032l-0.07,-0.046l-0.014,-0.144l-0.042,0.005l-0.032,0.107l-0.042,0.037l-0.111,0.018l-0.01,0.06l0.121,0.07l-0.042,0.084l-0.153,0.009l-0.097,0.125l-0.042,0.32l-0.088,0.116l-0.005,0.204l0.079,0.089l0.125,-0.005l0.028,0.051l-0.042,0.223l-0.102,0.162l-0.023,0.149l0.037,0.102l-0.051,0.088l-0.339,0.079l-0.083,-0.014l-0.06,0.018l-0.079,0.07l-0.093,0.018l-0.097,-0.027l-0.056,0.023l-0.065,0.065h-0.121l-0.074,-0.158l-0.06,0.005l-0.037,0.06l-0.116,0.056l-0.033,0.097l-0.246,0.116l-0.12,0.292h-0.098l-0.065,-0.116l-0.148,-0.069l-0.139,-0.014l-0.121,-0.111l-0.13,-0.061l-0.148,0.019l-0.103,0.097l-0.023,0.084l-0.079,0.051l-0.19,-0.009l-0.074,-0.019l-0.042,0.037l0.005,0.074l-0.042,0.065l-0.074,0.005l-0.163,-0.023l-0.102,0.051l-0.102,0.153l-0.102,0.023l-0.028,-0.093l-0.051,0.005l-0.074,0.069l-0.121,0.019l-0.055,-0.019v-0.074l-0.079,-0.023l-0.2,0.014l-0.083,-0.046l-0.028,-0.079l0.079,-0.079l0.004,-0.144l-0.102,-0.07l-0.139,-0.009l-0.083,-0.074l-0.014,-0.195l-0.098,-0.065l-0.195,-0.037l-0.171,-0.139l-0.051,-0.135l-0.098,-0.069l-0.083,-0.005l-0.195,-0.102l-0.218,-0.033l-0.047,0.075l0.075,0.12l-0.051,0.116h-0.075l-0.12,-0.144l-0.028,-0.12l-0.218,-0.102l-0.079,0.018l-0.074,0.251l-0.093,0.051l0.005,0.079l0.065,0.032l0.078,0.005l0.047,-0.06l0.083,0.009l0.051,0.102l-0.032,0.083l-0.121,0.056l-0.037,0.06l-0.074,0.01l-0.065,-0.024l-0.074,0.01l-0.051,0.042l-0.149,0.013l-0.069,-0.009l-0.075,0.065l-0.078,0.079l-0.028,0.084l0.051,0.088l0.004,0.079l-0.051,0.055l-0.079,0.014l-0.074,-0.06l-0.014,-0.056l-0.097,-0.042l-0.274,0.135l-0.121,0.227l-0.102,0.033l-0.102,-0.01l-0.088,-0.106l-0.153,0.004l-0.292,0.158l-0.051,0.144l-0.093,0.028l-0.111,-0.005l-0.098,-0.069l-0.195,-0.01l-0.069,0.047l-0.042,0.097l0.06,0.149l-0.009,0.12l-0.079,0.028l-0.116,-0.056l-0.102,-0.013l-0.097,-0.07l-0.098,0.009l-0.107,0.088h-0.102l-0.06,-0.088l-0.139,-0.014l-0.2,0.158l-0.074,0.116l-0.125,0.033l-0.283,0.004l-0.135,0.023l-0.158,0.116l-0.25,-0.004l-0.125,0.046l-0.07,0.005l-0.06,-0.019l-0.065,0.009l-0.107,0.149l-0.065,0.009l-0.046,0.112l-0.084,0.023l-0.069,0.134l-0.181,0.098l-0.251,0.014l-0.13,0.111l-0.116,0.042l-0.023,0.125l0.014,0.241l-0.088,0.037l-0.144,-0.004l-0.084,0.032l-0.065,-0.046l-0.023,-0.088l-0.088,-0.019l-0.097,-0.004l-0.051,0.037l-0.075,-0.005l-0.148,-0.176l-0.065,-0.01l-0.037,0.024l-0.051,-0.01l-0.019,-0.227l-0.088,-0.065h-0.13l-0.102,-0.074l-0.19,-0.279l-0.139,-0.078l-0.144,0.009l-0.218,0.176l-0.209,-0.014l-0.144,-0.153l-0.158,-0.065l-0.12,-0.018l-0.079,-0.075l-0.158,-0.445l-0.083,-0.051l-0.089,0.005l-0.088,0.125l-0.12,0.023l-0.126,-0.019l-0.102,0.028l-0.065,0.116l-0.004,0.153l0.083,0.051l-0.004,0.065l-0.121,0.098l-0.056,0.093l-0.046,0.134l-0.084,0.047l-0.069,-0.01l-0.126,-0.167l-0.116,-0.014l-0.12,0.065l-0.06,0.246l-0.214,0.288l-0.065,0.26l0.023,0.222l-0.046,0.102l-0.125,0.13l-0.051,0.135l0.027,0.167l-0.041,0.079l-0.084,0.032h-0.065l-0.079,-0.157l-0.083,-0.005l-0.033,0.056h-0.065l-0.12,-0.056l-0.144,0.107l0.013,0.274l-0.037,0.079l-0.079,0.079l0.005,0.093l0.209,0.111l-0.009,0.088l-0.084,0.06l-0.018,0.079l-0.154,0.037l-0.083,0.112l-0.023,0.116l-0.065,0.111l-0.051,0.228l0.065,0.097l-0.042,0.186l-0.218,0.148l-0.098,0.148l-0.306,0.232l-0.25,0.024l-0.167,0.055l-0.102,0.005l-0.154,-0.019h-0.213l-0.125,0.051h-0.26l-0.427,-0.162l-0.209,-0.097l-0.218,-0.265l-0.213,-0.139l-0.395,-0.07l-0.236,-0.13l-0.274,0.024l-0.042,0.051h-0.069l-0.089,-0.047l-0.343,-0.06l-0.088,0.032l-0.088,-0.009l-0.153,-0.125l-0.112,-0.13l-0.222,-0.074l-0.153,-0.01l-0.07,-0.069l-0.102,-0.019l-0.112,0.093h-0.194l-0.14,-0.074l-0.162,0.014l-0.107,0.116l-0.287,0.13l-0.065,0.102l-0.265,-0.005l-0.107,-0.051l-0.162,-0.014l-0.13,-0.055l-0.088,-0.116l-0.135,-0.019l-0.269,0.083l-0.204,-0.023l-0.306,-0.199l-0.135,-0.177l-0.153,-0.032l-0.139,0.051l-0.065,0.079l-0.004,0.125l-0.061,0.102h-0.093l-0.13,-0.093l-0.088,-0.023l-0.065,0.023l-0.111,-0.046l-0.074,-0.107l-0.269,-0.157l-0.028,-0.163l-0.176,-0.153l-0.362,-0.121l-0.2,-0.116l-0.274,-0.074l-0.236,0.042l-0.084,-0.009l-0.116,-0.065l-0.269,-0.005l-0.088,0.079l-0.204,0.093h-0.121l-0.111,-0.033h-0.381l-0.232,0.075l-0.227,0.004l-0.088,0.042l-0.19,-0.005l-0.047,0.023h-0.074l-0.376,-0.324l-0.046,-0.121l-0.204,-0.232l-0.084,-0.065l-0.028,-0.144l-0.093,-0.079l0.005,-0.102l0.088,-0.185l-0.028,-0.181l-0.218,-0.204l-0.106,-0.033l-0.079,-0.107l-0.07,-0.361l-0.213,-0.223l-0.293,-0.088h-0.199l-0.223,-0.088l-0.039,-0.083l-0.194,-0.17l-0.072,-0.114l-0.029,-0.133l-0.136,-0.155l-0.288,-0.091l-0.19,-0.01l-0.394,-0.215l-0.093,-0.117l-0.383,-0.174l-0.285,0.013l-0.253,-0.13l-0.205,-0.248l-0.086,-0.222l-0.173,-0.217l-0.334,-0.086l-0.304,-0.044l-0.309,-0.148l-0.229,0.006l-0.117,0.056l-0.149,0.006l-0.198,-0.081l-0.309,0.007l-0.173,0.136l-0.229,0.012l-0.186,-0.031l-0.278,0.043l-0.186,0.192l-0.099,0.167l-0.489,0.285l-0.228,0.037l-0.18,0.173l-0.037,0.266l-0.08,0.074l-0.136,0.013l-0.167,-0.068l-0.168,0.006l-0.228,0.111l-0.18,0.285l-0.025,0.167l-0.297,0.451l-0.024,0.174l-0.105,0.148l-0.26,0.13l-0.136,0.173l-0.013,0.149l-0.117,0.185l-0.143,0.007l-0.099,0.068l-0.03,0.148l-0.075,0.093l-0.26,0.161l-0.068,0.161l-0.012,0.228l-0.068,0.365l-0.148,0.285l-0.44,0.365l-0.216,0.049l-0.557,0.019l-0.204,0.062l-0.161,0.173l-0.006,0.142l0.223,0.495l0.098,0.124l0.254,0.625l0.155,0.798l-0.025,0.291l-0.111,0.08l-0.13,0.031l-0.112,0.26l-0.024,0.538l-0.093,0.155v0.154l0.043,0.223l0.05,0.526l0.074,0.272l0.025,0.241l-0.025,0.285l0.043,0.179l0.093,0.112l-0.006,0.117l-0.087,-0.012l-0.142,-0.105l-0.062,-0.192l-0.216,-0.334l-0.13,-0.309l-0.266,-0.223l-0.093,0.006l-0.136,0.118l0.018,0.185l-0.105,0.037l-0.049,-0.049l-0.106,0.043l-0.03,0.081l-0.112,0.043l-0.204,-0.204l-0.111,0.012l-0.149,0.13l-0.253,0.025l-0.093,-0.037l-0.075,0.062l0.007,0.167l-0.161,0.377l-0.124,0.08l-0.291,0.037l-0.068,-0.08l0.019,-0.13l-0.124,-0.235l-0.34,-0.155h-0.316l-0.142,0.143h-0.241l-0.081,0.055l-0.086,-0.012l-0.112,-0.105l-0.074,-0.266l-0.074,0.006l-0.217,0.297l-0.154,0.012l-0.112,0.149l-0.068,-0.006l-0.031,-0.266l-0.068,-0.013l-0.024,-0.086l0.043,-0.143l-0.031,-0.111l-0.136,-0.031l-0.081,0.031l-0.111,-0.012l-0.254,-0.167h-0.074l-0.148,0.111l-0.05,0.006l-0.055,-0.062l-0.106,-0.012l-0.061,0.031h-0.415l-0.068,-0.037v-0.068l-0.111,-0.075l-0.093,0.019l-0.074,-0.043l-0.013,-0.093l-0.111,-0.043l-0.093,0.024l-0.093,-0.018l-0.037,-0.062l-0.21,-0.031l-0.118,0.043l-0.031,0.093l-0.105,0.062l-0.192,0.006l-0.074,0.074l0.006,0.099l-0.031,0.05l-0.092,0.062l-0.05,0.136l0.006,0.179l-0.055,0.031l-0.143,-0.031l-0.074,-0.142l-0.229,-0.087l-0.204,0.019l-0.086,0.08l-0.019,0.124l-0.192,0.074l-0.229,0.025l-0.192,-0.037l-0.365,0.037l-0.29,0.136l-0.118,0.198l-0.068,0.006l-0.13,-0.148l-0.241,-0.056l-0.161,-0.074l-0.093,0.006l-0.086,0.08l-0.149,0.056l-0.13,-0.012l-0.055,0.031l-0.037,0.086l-0.075,0.013l-0.241,-0.093l-0.155,-0.105l-0.142,-0.013l-0.062,-0.074h-0.111l-0.124,0.08l-0.161,-0.012l-0.099,0.05h-0.167l-0.13,0.061l-0.086,0.13l-0.272,0.192v0.26l0.055,0.186l-0.012,0.123l-0.062,0.081l-0.019,0.086l0.05,0.05l-0.019,0.111l-0.092,0.161l-0.266,0.316l-0.007,0.092l0.044,0.155l-0.031,0.217l-0.143,0.142l-0.012,0.21l0.031,0.124l-0.019,0.272l0.18,0.179l-0.013,0.106l-0.185,0.13l-0.019,0.235l-0.049,0.049v0.068l0.049,0.081l-0.018,0.16l-0.081,0.062l-0.006,0.075l0.173,0.16l0.056,0.13l-0.062,0.322l-2.097,4.021l-0.186,-0.154l-0.006,-0.081l0.05,-0.093l-0.161,-0.569l-0.13,-0.08l-0.165,-0.375l-0.093,-0.075l-0.068,-0.154l0.074,-0.118l-0.012,-0.105l-0.112,-0.099l-0.012,-0.13l0.124,-0.253l-0.007,-0.174l-0.092,-0.365l0.031,-0.198l0.049,-0.074l0.006,-0.074l-0.142,-0.068l-0.074,-0.427l0.018,-0.149l0.18,-0.068l0.049,-0.142l-0.086,-0.408l-0.26,-0.446l-0.013,-0.16l-0.272,-0.186l-0.117,0.056l-0.112,-0.013l-0.408,-0.612l-0.266,-0.124l-0.167,0.006l-0.05,0.068l-0.123,0.05l-2.116,-2.487l-1.541,-1.596l-0.941,-1.623l-0.18,-0.415l0.124,-0.062h0.124l0.117,-0.024l0.074,-0.081l0.211,-0.037l0.031,-0.062l-0.038,-0.093l-0.086,-0.012l-0.068,0.031l-0.062,-0.025l-0.093,-0.278l-0.117,-0.044l-0.025,-0.185l0.025,-0.062l-0.099,-0.656l-0.031,-0.266l-0.26,-0.334v-0.136l-0.05,-0.031l-0.049,0.031l-0.068,-0.006l-0.081,-0.316l-0.179,-0.117l-0.167,-0.013l-0.309,-0.191h-0.13l-0.074,-0.05l0.006,-0.055l-0.186,-0.192l-0.167,-0.056l-0.173,-0.087l-0.025,-0.099l-0.192,-0.216l-0.086,-0.025l-0.118,-0.13l-0.031,-0.123l-0.068,-0.143l-0.025,-0.272l0.031,-0.062l-0.018,-0.284l-0.056,-0.056l-0.012,-0.105l0.068,-0.124l-0.006,-0.241l-0.075,-0.143l0.025,-0.197l-0.074,-0.291l-0.087,-0.068v-0.075l0.062,-0.055l-0.006,-0.173l-0.074,-0.081l-0.019,-0.167l0.062,-0.08l-0.043,-0.303l-0.044,-0.056v-0.074l0.087,-0.031l0.037,-0.099l-0.192,-0.644l-0.253,-0.136l-0.13,0.019l-0.21,-0.068l-0.038,-0.081l-0.247,-0.161l-0.019,-0.111l0.044,-0.08l0.08,-0.013l0.025,-0.049l-0.019,-0.068l0.099,-0.235l-0.012,-0.087l0.08,-0.204l0.13,-0.08l0.068,-0.217l-0.024,-0.08l0.018,-0.062l0.093,-0.031l0.012,-0.068l-0.024,-0.05l0.006,-0.062l0.086,-0.074l0.007,-0.086l-0.112,-0.075l-0.049,-0.111l0.018,-0.08l-0.105,-0.161v-0.136l0.093,-0.341l0.13,-0.278l0.012,-0.149l-0.037,-0.389l0.019,-0.186l-0.068,-0.235l-0.007,-0.148l0.062,-0.093l-0.025,-0.105l-0.136,-0.167h-0.105l-0.08,0.105l-0.291,0.074h-0.118l-0.111,-0.105l-0.043,-0.18l-0.118,-0.216l-0.167,-0.155l-0.074,-0.179l-0.068,-0.062l-0.025,-0.13l0.081,-0.21l0.216,-0.099l0.13,-0.105l0.192,-0.118l0.043,-0.142l0.241,-0.272l0.087,-0.013l0.084,0.028l1.057,-0.39l0.502,-0.761l-0.084,-0.25l0.343,-0.668l0.706,-1.647l0.334,-0.089l0.204,0.033l0.088,-0.047l0.037,-0.092l0.023,-0.158l0.061,-0.167l0.032,-0.074l0.167,-0.297l0.051,-0.181l0.06,-0.116l0.075,-0.079l0.014,-0.074l-0.014,-0.079l0.051,-0.381l0.125,-0.224l0.099,-0.105h0.077l0.05,-0.016l0.139,-0.182l0.02,-0.229l-0.079,-0.042l-0.009,-0.209l0.13,-0.167l0.028,-0.106l-0.084,-0.079l0.009,-0.088l0.079,-0.037l0.042,-0.047l-0.005,-0.097l0.051,-0.047l0.093,-0.028l0.195,-0.219l0.105,-0.031l0.44,-0.371l0.055,-0.105l0.068,-0.056l0.099,-0.037l0.186,-0.192l0.025,-0.099l0.142,-0.217l0.095,-0.054l0.14,-0.249z"/>
</svg>
