<svg xmlns="http://www.w3.org/2000/svg" viewBox="1190.833 726.552 49.343 57.762">
  <path d="M1223.960993,736.351163l2.097,-4.021l0.062,-0.322l-0.056,-0.13l-0.173,-0.16l0.006,-0.075l0.081,-0.062l0.018,-0.16l-0.049,-0.081v-0.068l0.049,-0.049l0.019,-0.235l0.185,-0.13l0.013,-0.106l-0.18,-0.179l0.019,-0.272l-0.031,-0.124l0.012,-0.21l0.143,-0.142l0.031,-0.217l-0.044,-0.155l0.007,-0.092l0.266,-0.316l0.092,-0.161l0.019,-0.111l-0.05,-0.05l0.019,-0.086l0.062,-0.081l0.012,-0.123l-0.055,-0.186v-0.26l0.272,-0.192l0.086,-0.13l0.13,-0.061h0.167l0.099,-0.05l0.161,0.012l0.124,-0.08h0.111l0.062,0.074l0.142,0.013l0.155,0.105l0.241,0.093l0.075,-0.013l0.037,-0.086l0.055,-0.031l0.13,0.012l0.149,-0.056l0.086,-0.08l0.093,-0.006l0.161,0.074l0.241,0.056l0.13,0.148l0.068,-0.006l0.118,-0.198l0.29,-0.136l0.365,-0.037l0.192,0.037l0.229,-0.025l0.192,-0.074l0.019,-0.124l0.086,-0.08l0.204,-0.019l0.229,0.087l0.074,0.142l0.143,0.031l0.055,-0.031l-0.006,-0.179l0.05,-0.136l0.092,-0.062l0.031,-0.05l-0.006,-0.099l0.074,-0.074l0.192,-0.006l0.105,-0.062l0.031,-0.093l0.118,-0.043l0.21,0.031l0.037,0.062l0.093,0.018l0.093,-0.024l0.111,0.043l0.013,0.093l0.074,0.043l0.093,-0.019l0.111,0.075v0.068l0.068,0.037h0.415l0.061,-0.031l0.106,0.012l0.055,0.062l0.05,-0.006l0.148,-0.111h0.074l0.254,0.167l0.111,0.012l0.081,-0.031l0.136,0.031l0.031,0.111l-0.043,0.143l0.024,0.086l0.068,0.013l0.031,0.266l0.068,0.006l0.112,-0.149l0.154,-0.012l0.217,-0.297l0.074,-0.006l0.074,0.266l0.112,0.105l0.086,0.012l0.081,-0.055h0.241l0.142,-0.143h0.316l0.34,0.155l0.124,0.235l-0.019,0.13l0.068,0.08l0.291,-0.037l0.124,-0.08l0.161,-0.377l-0.007,-0.167l0.075,-0.062l0.093,0.037l0.253,-0.025l0.149,-0.13l0.111,-0.012l0.204,0.204l0.112,-0.043l0.03,-0.081l0.106,-0.043l0.049,0.049l0.105,-0.037l-0.018,-0.185l0.136,-0.118l0.093,-0.006l0.266,0.223l0.13,0.309l0.216,0.334l0.062,0.192l0.142,0.105l0.087,0.012l0.037,0.204l0.037,0.099l0.019,0.31l-0.038,0.105l0.019,0.254l0.043,0.099l0.007,0.587l-0.081,0.13l-0.309,0.65l-0.18,0.068l-0.253,0.383l0.049,0.13l-0.179,0.477l-0.006,0.297l-0.112,0.099l-0.154,0.08l-0.279,0.718v0.117l-0.253,0.39l-0.112,0.043l-0.105,0.167l-0.018,0.235l-0.322,0.477l-0.112,0.049l-0.129,0.149l-0.056,0.303l-0.111,0.136l-0.118,0.117l-0.217,0.409l-0.012,0.235l-0.328,0.266l-0.117,0.025l-0.136,0.148l-0.038,0.52l0.099,0.408l-0.043,0.179l-0.117,0.136l0.006,0.557l0.124,0.223l-0.056,0.235l-0.198,0.322l-0.043,0.365l0.024,0.136l0.093,0.093l0.05,0.259l-0.031,0.106l0.086,0.334l-0.018,0.284l-0.081,0.13l-0.018,0.31l0.031,0.266l-0.235,0.593l-0.273,0.229l-0.297,0.767l-0.031,0.273l0.038,0.334l-0.161,0.451l-0.322,0.266l-0.186,0.446l0.019,0.167l-0.087,0.39l0.019,0.228l0.148,0.236l0.05,0.21l-0.037,0.575l0.031,0.408l0.025,0.403l-0.038,0.284l0.112,0.198l0.321,0.167l0.143,0.328l-0.044,0.371l0.007,0.136l0.043,0.099l-0.019,0.143l-0.352,0.42l-0.186,0.118l-0.13,0.148l-0.105,0.037l-0.223,0.551l-0.173,0.142l-0.056,0.217l-0.129,0.903l0.018,0.167l-0.179,0.371l-0.316,0.31l-0.055,0.309l0.074,0.161l-0.025,0.266l-0.056,0.08l0.037,0.204l0.198,0.223l0.093,0.204l-0.086,0.804l-0.217,0.669l-0.377,0.606l-0.273,0.075l-0.173,0.136l-0.173,0.334l-0.854,0.977l-0.668,0.656l-1.089,0.346l-0.408,0.062l-0.26,0.124l-0.866,0.804l-0.532,0.569l-0.606,1.003l-0.309,0.742l-0.322,0.854l-0.285,0.581l-0.359,0.52l-1.596,1.571l-0.334,0.161l-0.321,0.384l-0.037,0.532l0.074,1.15l0.272,0.941v0.259l-0.05,0.434l-0.136,0.21l-0.062,0.284l0.062,0.26l-0.074,0.409l-0.099,0.185l0.025,0.52l0.086,0.284l-0.049,0.384l-0.087,0.124v0.396l0.124,0.247v0.161l-0.074,0.136l0.012,0.223l0.223,0.21l0.012,0.161l-0.161,0.495l-0.383,0.445l-0.099,0.223l-0.062,0.272l-0.161,0.26l-0.26,0.309l-0.396,0.916l-0.185,0.186l-0.198,0.433l-0.099,0.383l-0.124,0.235l-0.185,0.124l-0.372,0.111l-0.297,0.013l-0.779,0.148l-0.458,0.149l-0.247,0.16l-0.211,0.248l-0.037,0.396l-0.148,0.272l-0.037,0.532l-0.174,0.161l-0.296,0.074l-0.359,-0.198l-0.223,0.013l-0.557,0.272l-0.198,0.049l-0.185,0.297l-0.062,0.211l-0.173,0.173l-0.198,0.359l-0.384,0.334l-0.136,0.049l-0.247,0.272l-0.038,0.124l-0.482,0.433l-0.235,0.47l-0.068,0.26l-0.093,0.074l-0.046,0.157l-0.186,0.158h-0.158l-0.195,0.102l-0.473,0.381l-0.241,0.046l-0.362,-0.111l-0.232,-0.238l-0.235,-0.037l-0.112,-0.031l-0.092,-0.075l-0.136,0.025l-0.106,0.105l-0.198,0.118l-0.049,0.074l-0.068,-0.012l-0.087,-0.223l0.006,-0.39l0.093,-0.093l0.006,-0.061l-0.043,-0.038l0.006,-0.055l0.05,-0.031l0.012,-0.093l-0.08,-0.099l0.018,-0.186l0.062,-0.105v-0.272l-0.117,-0.025l-0.081,-0.117l-0.025,-0.18l-0.204,-0.259l0.037,-0.112l0.471,-0.185l0.074,-0.161l0.204,-0.266l-0.037,-0.105l-0.223,-0.112l-0.322,-0.414l0.019,-0.112l0.105,-0.049l0.081,-0.204l-0.075,-0.074l-0.191,0.018l-0.13,0.081l0.012,0.08l-0.062,0.043l-0.161,-0.012l-0.111,0.074h-0.13l-0.179,0.093l-0.056,0.111l-0.365,0.173l-0.056,0.081l-0.123,0.031l-0.056,-0.05l-0.08,0.007l-0.099,0.08l-0.186,0.037l-0.167,-0.037l-0.328,0.124l-0.093,-0.037l-0.043,0.037l0.043,0.086l-0.13,0.211l-0.074,-0.013l-0.043,0.037l-0.013,0.093l-0.074,0.118l-0.155,0.049l-0.228,-0.055l-0.112,0.024l-0.167,-0.074l-0.012,-0.155l-0.037,-0.043h-0.081l-0.024,-0.074l0.018,-0.087l-0.086,-0.099l-0.168,-0.037l-0.191,0.031l-0.062,0.093l-0.112,0.031l-0.092,-0.006l-0.044,0.049l-0.024,0.235l0.061,0.093l-0.024,0.476l-0.05,0.204l-0.062,0.038l-0.018,0.061l0.043,0.099l-0.043,0.038l-0.087,0.006l-0.018,0.086l0.191,0.186l-0.006,0.142l-0.08,0.019l-0.167,-0.019l-0.037,0.056l0.105,0.21l-0.056,0.105l-0.074,0.007l-0.223,-0.167h-0.086l-0.031,0.055l0.062,0.031l-0.025,0.068l-0.112,0.204v0.087l-0.068,0.049l-0.136,-0.03l-0.198,-0.279l-0.092,-0.031l-0.229,0.124l-0.037,0.117l0.074,0.056l0.055,-0.037l0.031,0.05l-0.037,0.123l-0.167,0.062l-0.124,0.105l-0.21,0.075l-0.142,0.006l-0.025,0.055l0.142,0.13v0.161h-0.037l-0.086,-0.13l-0.082,-0.029l-0.178,-0.169l0.031,-0.34l-0.081,-0.105l-0.16,-0.099l-0.106,0.025l-0.297,-0.099l-0.117,-0.186l-0.13,-0.056l-0.235,-0.315l-0.124,-0.025l-0.056,-0.099l-0.061,-0.241l-0.155,-0.124l-0.087,-0.161l-0.092,-0.037l-0.069,0.013l-0.074,0.191v0.279l0.074,0.068v0.074l-0.055,0.037l-0.136,-0.124l-0.155,-0.099l-0.025,-0.074l-0.148,-0.136l-0.359,-0.421l-0.056,-0.136l-0.408,-0.383l-0.402,-0.365l-0.074,0.018l0.006,0.075l-0.043,0.043l-0.106,-0.025l-0.266,-0.3l-0.065,0.028l0.003,0.105l-0.043,0.028l-0.151,-0.034l-0.053,-0.043l-0.028,0.027l0.374,0.557l-0.058,0.078h-0.084l-0.247,-0.155l-0.136,0.009l-0.155,0.164v0.102l-0.133,0.108l-0.062,0.121l-0.102,0.046l-0.439,0.01l-0.04,0.065l-0.013,0.077l-0.185,-0.003l-0.124,-0.062l-0.059,-0.074l-0.111,0.012l-0.173,0.18l-0.112,0.037l-0.284,0.055l-0.044,0.149l0.075,0.111l-0.038,0.143l-0.074,0.086l0.019,0.081l-0.031,0.055l-0.068,0.037l-0.037,0.192l-0.229,0.353l-0.149,0.055l-0.266,-0.024l-0.142,0.092l-0.056,-0.012l-0.006,-0.068l-0.062,-0.006l-0.055,0.043l-0.062,-0.012l-0.031,-0.062l-0.074,0.018l-0.205,0.669l-0.488,0.396l-0.471,0.47l-0.006,0.086l-0.306,-0.473l-0.486,-0.581l-0.068,-0.18l-0.389,-0.414l0.024,-0.05l0.072,-0.009l0.027,0.031l0.034,-0.006l0.016,-0.186l-0.05,-0.124l-0.362,-0.324l-0.049,-0.146l0.028,-0.04l0.111,-0.009l0.078,-0.065l0.061,-0.161l-0.024,-0.195l-0.307,-0.377l-0.389,-0.362l-0.037,-0.078l-0.724,-0.581l-0.545,-0.483l-0.309,-0.21l-0.563,-0.532l-0.074,-0.204l0.006,-0.136l-0.167,-0.223l-0.241,-0.198l-0.075,-0.124l-0.791,-0.569l-0.192,-0.107l0.037,-0.041l0.023,-0.07l0.074,-0.125l0.056,-0.028l0.033,-0.051v-0.111l0.097,-0.186l0.088,-0.042l0.111,-0.227l-0.129,-0.297l0.037,-0.033l0.097,0.028l0.098,-0.144l0.004,-0.171l0.033,-0.051l0.06,-0.005l0.042,-0.037l-0.084,-0.213l0.061,-0.116l0.078,-0.019l0.042,0.032l0.102,-0.046l0.051,-0.06l0.116,-0.061l0.172,0.056l0.046,-0.028l0.033,-0.204l0.148,-0.153h0.153l0.075,-0.111l-0.01,-0.089l0.13,-0.064l0.07,0.004l0.111,-0.037l0.023,-0.093l-0.143,-0.139l0.023,-0.06l0.116,0.004l0.079,-0.06h0.074l0.134,0.111l0.256,0.13l0.041,0.107l0.2,0.13l0.023,0.074l0.395,0.288l0.018,0.093l-0.042,0.092l0.014,0.079l0.056,0.028l0.009,0.074l-0.079,0.116l0.033,0.107l0.051,0.074v0.102l0.046,0.019l0.074,-0.088l0.061,-0.014l0.055,0.028l0.052,-0.028l0.023,-0.088l0.111,-0.014l0.139,0.06l0.088,-0.014l0.093,-0.134l0.065,-0.01l0.028,-0.069h0.037l0.028,0.051l0.083,0.018l0.047,0.07l0.074,0.005l0.051,-0.056l-0.014,-0.213l0.056,-0.019l0.056,0.023l0.213,-0.023l0.102,-0.074l0.009,-0.084l-0.111,-0.088l-0.176,-0.028l-0.107,-0.134l0.009,-0.121l0.098,-0.121l0.111,0.01l0.037,-0.024l-0.018,-0.064l0.102,-0.228l-0.014,-0.088l0.014,-0.06l0.06,-0.028l0.014,-0.06l-0.009,-0.075l0.051,-0.13l0.088,-0.069h0.074l0.033,0.042h0.051l0.004,-0.107l0.061,-0.102l-0.005,-0.121l-0.121,-0.195l0.005,-0.157l0.088,-0.075l0.019,-0.153l-0.191,-0.172l-0.116,-0.004l-0.069,0.037h-0.112l-0.139,-0.074l-0.153,-0.061l-0.093,-0.078l-0.269,-0.154l-0.051,-0.116l-0.153,-0.111l-0.19,-0.037l-0.2,-0.13l-0.009,-0.06l-0.037,-0.028l-0.065,0.009l-0.07,-0.046l0.014,-0.056l0.102,-0.028l0.084,-0.097l0.009,-0.088l0.07,-0.07l0.065,0.009l0.018,0.116l0.065,0.014l0.079,-0.106l0.139,-0.093l0.07,0.009l0.014,0.06l0.042,0.01l0.032,-0.042l-0.005,-0.056l-0.06,-0.018v-0.042l0.111,-0.065l0.019,-0.153l-0.096,-0.098l-0.031,-0.08l-0.068,-0.074l-0.241,-0.062l-0.21,-0.006l-0.093,-0.056l-0.044,-0.155l-0.099,-0.167l0.013,-0.229l-0.093,-0.136l-0.167,-0.062l-0.198,-0.309l-0.012,0.124l-0.031,0.099l-0.136,0.049l-0.112,-0.037l-0.018,-0.093l-0.075,-0.117l0.013,-0.136l0.056,-0.112l0.018,-0.167l0.186,-0.198l0.018,-0.204l0.149,-0.334l0.018,-0.21l-0.111,-0.161l0.006,-0.093l-0.043,-0.086l-0.112,-0.031l-0.074,-0.099l-0.055,-0.458l0.049,-0.081l0.006,-0.092l-0.055,-0.186l-0.075,-0.049l-0.006,-0.05l0.037,-0.043l-0.012,-0.112l-0.093,-0.117l0.056,-0.099l0.111,0.049l0.118,0.013l0.08,-0.05l0.068,0.025l-0.031,0.087l0.099,0.055l0.068,-0.018l0.155,0.093l0.068,0.21l-0.05,0.049l0.025,0.087l0.18,0.019l0.037,0.086l0.074,0.05h0.068l0.148,0.179l0.025,0.223l0.068,0.018l0.198,-0.148l-0.018,-0.118l0.123,-0.354l0.13,-0.005l0.061,0.038l0.065,-0.005l0.092,-0.125l0.112,-0.014l0.074,0.028l0.153,-0.07l0.116,-0.172l0.005,-0.139l0.097,-0.079l0.186,0.01l0.069,-0.047l0.042,-0.102l0.084,-0.07l0.106,0.028l0.288,0.413l0.116,0.065l0.418,0.061l2.635,-0.024l-0.037,-0.111l0.037,-0.056l-0.005,-0.088l-0.046,-0.028l-0.019,-0.083l0.047,-0.07v-0.069l-0.079,-0.093h-0.056l-0.037,0.046l-0.051,-0.004l-0.037,-0.061l-0.037,-0.213l0.06,-0.098l0.102,-0.032l0.037,-0.074l-0.037,-0.088l0.005,-0.075l0.088,-0.069l-0.009,-0.107l-0.084,-0.005l-0.018,-0.051l0.069,-0.051l-0.046,-0.13l-0.074,-0.018l-0.019,-0.065l0.037,-0.074l0.088,-0.051l0.051,-0.065l-0.009,-0.102l-0.111,-0.084l-0.093,-0.246l-0.135,-0.158l-0.004,-0.069l0.037,-0.047l0.009,-0.097l-0.056,-0.116v-0.098l0.052,-0.064l0.009,-0.107l0.042,-0.051v-0.074l-0.103,-0.112l0.014,-0.204l-0.041,-0.097l0.041,-0.042l0.056,0.023l0.037,0.121l0.112,0.046l0.032,0.084l0.079,0.083h0.07l0.069,-0.083l0.07,-0.028l0.018,-0.056l-0.111,-0.19l0.037,-0.056l0.162,-0.005l0.061,-0.023l0.014,-0.065l0.065,-0.037l0.092,-0.009l0.033,-0.06l-0.047,-0.042l0.019,-0.037l0.181,-0.01l0.097,0.079l0.056,0.005l0.121,-0.102h0.063l0.019,0.136l0.099,0.044l0.068,-0.031l0.185,0.068l0.031,0.074l0.161,0.105l0.013,0.093l0.049,0.019l0.087,-0.056l0.105,0.037l0.012,0.074l0.099,0.05l0.074,-0.025l0.062,0.031l-0.031,0.136l0.192,0.118l0.043,0.136l-0.08,0.068l0.012,0.105l0.112,0.087l0.037,0.204l0.117,0.185l0.087,0.019l0.043,0.068l-0.043,0.099l0.037,0.093l0.093,0.037l-0.006,0.093l-0.087,0.037l-0.018,0.123l0.173,0.167l0.024,0.118l0.093,0.019l0.075,-0.093l0.092,0.006l0.025,0.142l0.217,0.223l-0.007,0.13l0.087,0.068l0.192,0.043l0.006,0.074l-0.111,0.05h-0.062l-0.044,0.056l0.062,0.092l-0.043,0.087l-0.08,0.074l-0.019,0.143l0.05,0.018l0.16,-0.272l0.112,0.012l0.167,0.136l0.123,-0.006l0.161,0.062l0.118,0.08l0.192,0.013l0.179,-0.118l0.142,0.006l0.161,0.13l0.223,0.044l0.056,0.062l0.142,0.043l0.093,-0.025l0.13,0.019l0.117,0.086l0.124,0.13h0.124l0.092,-0.062l0.229,0.007l0.235,0.043l0.056,0.062l0.074,-0.019l0.112,-0.254l0.179,-0.105h0.062l0.105,-0.074l-0.012,-0.105l0.229,-0.099l0.111,0.006l0.068,-0.062l0.006,-0.093l0.6,-0.668l0.025,-0.235l0.056,-0.161l0.068,-0.049l0.024,-0.13l0.062,-0.111l0.037,-0.118h0.068l0.013,0.142l0.056,0.13l0.074,0.006l0.111,0.106l0.05,0.21l0.179,0.439l0.105,0.136l0.112,0.025l0.068,0.21l-0.044,0.075l0.075,0.123l0.16,0.075h0.093l0.056,0.068l-0.05,0.074l-0.061,0.018l-0.031,-0.049l-0.05,0.006l-0.08,0.21l-0.211,0.149l-0.006,0.334l0.056,0.08h0.093l0.167,0.112l0.154,-0.019l0.044,-0.093l0.123,-0.074l0.192,0.019l0.031,0.105l0.062,0.049l0.155,-0.012l0.099,-0.087h0.123l0.05,0.112h0.105l0.105,0.099l0.074,-0.031l-0.018,-0.111l0.08,-0.168l0.136,-0.049l0.044,-0.136l-0.062,-0.068v-0.062l0.062,-0.037l0.024,-0.099l0.099,-0.05l0.093,-0.13l0.105,-0.037l0.093,0.031l0.087,-0.006l0.037,-0.08l0.179,-0.013l0.019,-0.08l-0.112,-0.074l-0.111,-0.186l-0.167,-0.062l-0.043,-0.093l0.031,-0.092l-0.031,-0.106l-0.248,-0.061l-0.006,-0.081l0.223,-0.124l0.185,-0.043l0.056,-0.074l-0.068,-0.309l0.087,-0.062l0.229,0.024l0.037,-0.117l-0.13,-0.081l0.006,-0.061l0.068,-0.038l0.056,-0.216l-0.025,-0.142l-0.155,-0.087v-0.08l0.062,-0.044l0.031,-0.185l0.142,-0.062l0.13,0.025l0.056,-0.038l-0.012,-0.117l0.068,-0.074h0.16l0.161,-0.075l0.099,0.013l0.167,-0.05l0.155,-0.08l0.031,-0.179l-0.081,-0.093l0.05,-0.254l0.074,-0.062l0.019,-0.161l-0.105,-0.055l-0.019,-0.081l0.043,-0.173l0.155,-0.235l0.142,-0.012l0.037,-0.087l-0.167,-0.111l-0.092,0.018l-0.081,-0.018l-0.037,-0.112l0.025,-0.062l-0.031,-0.068l-0.136,-0.037l-0.062,-0.123l0.031,-0.081h0.136l0.074,-0.043l0.031,-0.124l0.179,-0.124l0.186,0.025l0.025,-0.099l-0.18,-0.148v-0.124l0.137,-0.031l0.006,-0.068l-0.068,-0.031v-0.08l0.074,-0.038l0.037,-0.117l0.136,-0.099l0.019,-0.136l-0.056,-0.223l-0.285,-0.124l-0.099,-0.123l0.007,-0.087l0.111,-0.025l0.148,-0.173v-0.13l0.069,-0.086l0.012,-0.075l-0.118,-0.148v-0.112l0.081,-0.086l-0.062,-0.13l-0.118,-0.031l-0.055,-0.111l0.074,-0.124l-0.043,-0.316l-0.112,-0.086l-0.037,-0.266l-0.117,-0.068l-0.013,-0.099l0.068,-0.044l0.013,-0.488l-0.037,-0.093l0.012,-0.087l0.062,-0.024l0.099,-0.223l0.13,-0.087l0.012,-0.229l-0.167,-0.13l-0.006,-0.08l0.105,-0.074l0.025,-0.112l-0.037,-0.092l0.031,-0.112l0.117,-0.13l0.037,-0.154l0.192,-0.192l0.006,-0.105l-0.043,-0.056l0.006,-0.167l-0.117,-0.192v-0.08l-0.031,-0.05l-0.075,-0.012l-0.099,-0.124l-0.012,-0.111l-0.087,-0.062l-0.136,0.031l-0.055,-0.043l0.031,-0.223l-0.069,-0.08l-0.086,0.024l-0.204,-0.062l-0.075,0.031l-0.055,-0.018l-0.099,-0.167l-0.204,-0.099l-0.136,0.012l-0.137,0.149l-0.086,-0.013l-0.074,-0.105l-0.205,-0.031l-0.043,0.05l-0.074,-0.007l-0.037,-0.055l-0.099,-0.013l-0.043,-0.092l0.055,-0.167v-0.124l-0.074,-0.037l-0.025,-0.112l0.037,-0.074l-0.092,-0.291l-0.075,-0.049l-0.043,-0.142l-0.124,-0.05l-0.055,0.081l-0.081,-0.007l-0.093,-0.136l-0.142,-0.024l-0.025,0.098l-0.086,0.019l-0.05,-0.056l-0.123,-0.012l-0.137,0.068l-0.074,-0.031v-0.124l-0.124,-0.086l-0.173,-0.013l-0.055,-0.08l-0.093,-0.025l-0.037,0.044l0.031,0.068l-0.031,0.049l-0.056,-0.025l-0.056,0.019l-0.006,0.068h-0.062l-0.012,-0.08l-0.26,-0.304l-0.118,-0.049l-0.061,-0.124l0.012,-0.068l0.068,-0.006l0.056,0.049l0.055,-0.018v-0.068l0.093,-0.105l0.074,-0.044l0.044,-0.062l-0.025,-0.117l0.198,-0.099l0.056,0.043l0.055,-0.024l-0.018,-0.087l0.111,-0.093l0.006,-0.068l-0.086,-0.043l-0.006,-0.149l0.043,-0.074l0.068,-0.019l0.031,-0.123l-0.087,-0.037l-0.142,-0.198l-0.037,-0.235l0.068,-0.075l0.018,-0.154l-0.123,-0.291l-0.112,-0.13l0.006,-0.074l0.069,-0.044v-0.049l-0.056,-0.037l0.056,-0.118l0.216,-0.216l0.08,-0.241l-0.03,-0.075l0.03,-0.055l0.087,-0.007l0.019,-0.061l-0.056,-0.056l0.049,-0.099l0.081,-0.019l0.043,-0.074l0.161,-0.086l0.13,0.006l0.068,-0.037l0.019,-0.081l0.21,-0.062l0.049,-0.049l-0.018,-0.087l0.086,-0.142l0.062,-0.031l-0.006,-0.068l-0.13,-0.074l-0.018,-0.087l0.086,-0.161l0.087,-0.043l0.111,-0.155l0.192,-0.037l0.254,0.081l0.092,-0.025l0.112,0.006l0.074,0.087l0.074,0.006l0.093,-0.118h0.062l0.074,0.081l0.105,-0.031v-0.124l0.106,-0.186l0.266,-0.154l0.092,0.006l0.093,-0.124l0.081,-0.025l0.006,-0.055l-0.124,-0.081l-0.031,-0.13l0.062,-0.154l0.056,0.006l0.037,-0.043l-0.019,-0.05l0.105,-0.117l0.062,-0.019l0.068,-0.074l0.006,-0.142l0.211,-0.155l0.08,0.012l0.05,-0.049l0.037,-0.155l0.062,-0.025l0.012,-0.204l-0.13,-0.117l-0.006,-0.075l0.136,-0.037l0.105,-0.142l0.013,-0.13l-0.186,-0.08l-0.056,-0.093l-0.161,-0.105l-0.024,-0.118l-0.05,-0.049l-0.037,-0.211l-0.068,-0.068l-0.056,-0.148v-0.136l-0.031,-0.087l-0.346,-0.365l-0.087,-0.309l-0.154,-0.18l-0.013,-0.111l-0.049,-0.062v-0.086l0.037,-0.062l-0.031,-0.112l0.037,-0.061l-0.018,-0.05l-0.068,-0.031l-0.068,-0.155l-0.124,-0.123l-0.093,-0.019l-0.13,-0.062l-0.08,-0.012l-0.099,-0.05l-0.044,-0.099l-0.117,-0.055l-0.13,0.043l-0.254,-0.006l-0.111,0.093l-0.173,-0.013l-0.075,0.025l-0.08,-0.111l-0.093,-0.025l-0.086,-0.099v-0.093l-0.05,-0.043l-0.105,0.006l-0.043,0.093h-0.464l-0.143,-0.087h-0.111l-0.08,0.044l-0.155,-0.019l-0.074,0.012l-0.112,-0.018l-0.049,-0.037l-0.062,0.012l-0.037,0.068l0.056,0.037l0.006,0.062l-0.062,0.074h-0.068l-0.043,0.044l0.043,0.099l-0.037,0.092l-0.075,0.013l-0.043,0.055h-0.062l-0.062,-0.105l-0.099,-0.018l-0.185,0.123l-0.198,-0.012l-0.074,0.037l-0.124,-0.006l-0.062,0.031l0.006,0.068l-0.055,0.031l-0.161,0.006l-0.161,0.142l-0.068,0.161l-0.087,0.013l-0.043,-0.038l-0.074,0.013l-0.056,0.062l-0.111,0.006l-0.081,0.037h-0.099l-0.26,-0.179l-0.105,-0.007l-0.216,0.087l-0.087,-0.025l-0.086,0.025l-0.019,0.105l-0.155,0.062l-0.074,-0.037l-0.068,0.031l-0.006,0.117l-0.056,0.118l-0.08,0.012l-0.056,-0.055l-0.155,0.006l-0.074,0.031l-0.26,-0.006l-0.08,0.037l-0.111,-0.006l-0.229,-0.087v-0.043l0.043,-0.031l0.056,0.012l0.049,-0.037l0.043,-0.278l0.05,-0.007l0.043,0.044h0.074l0.081,0.024l0.056,-0.061v-0.062l0.043,-0.037h0.062l0.111,-0.13l-0.006,-0.068l-0.087,0.006l-0.024,-0.062l0.043,-0.043l-0.025,-0.112l0.05,-0.111l-0.025,-0.149l-0.087,-0.03l-0.031,-0.062l0.006,-0.118l-0.098,-0.26l-0.087,-0.006l-0.081,-0.062l0.013,-0.105l-0.074,-0.204h-0.05l-0.031,0.062h-0.068l-0.074,-0.087l-0.062,-0.241l-0.068,-0.043l0.025,-0.068l0.123,-0.013l0.013,-0.21l-0.074,-0.229v-0.272l0.068,-0.044l0.08,-0.204l0.081,-0.024l0.049,-0.075l-0.031,-0.13l0.05,-0.092l0.086,-0.031l0.013,-0.093l-0.044,-0.05l0.006,-0.092l0.075,-0.056v-0.093l-0.087,-0.111l-0.155,-0.019l-0.074,-0.074l0.056,-0.124h0.062l0.062,-0.043l0.03,-0.118l0.069,-0.092l0.117,-0.031l0.012,-0.068l-0.086,-0.062l0.018,-0.118l0.081,-0.043l0.173,-0.21l0.13,-0.019l0.117,-0.105l0.087,-0.167l0.019,-0.31l-0.075,-0.061v-0.118l0.044,-0.065l0.014,-0.16h6.529l0.087,0.031h0.068l0.217,-0.148h0.129l0.279,0.049l0.179,0.124l0.037,0.235l0.081,0.006l0.062,-0.117l0.198,-0.13l0.544,-0.105l0.08,-0.143l0.081,-0.006l0.08,0.161l0.204,0.167l-0.012,0.093l0.099,0.056l0.111,-0.019l0.099,0.037l0.038,0.087l0.092,0.018l0.118,-0.049l0.235,0.117l0.056,0.192l0.216,0.056l0.093,-0.013l0.124,-0.105l0.136,-0.031l-0.037,-0.092l0.062,-0.081l0.086,0.006l0.037,0.242l0.161,0.086l0.019,0.112l-0.112,0.105l-0.012,0.099l0.13,0.08l0.179,0.013l0.155,-0.038l0.087,-0.16l0.092,-0.013l0.31,0.322l0.08,-0.006l0.068,-0.075l0.081,0.007l0.055,0.055l0.13,0.007l0.105,-0.13l0.099,-0.025l0.068,-0.025l0.044,-0.142l0.08,-0.019l0.08,0.105h0.075l0.117,-0.129l0.167,0.018l0.155,0.08l0.031,0.096l0.182,0.102l0.146,0.174l0.025,0.185l0.194,0.127l0.149,0.019l0.64,-0.399l0.214,0.009l0.204,0.121l0.853,0.185l0.195,-0.028l0.492,0.149l0.26,0.306l0.408,0.26l0.093,0.185l0.13,0.075l0.148,-0.019l0.288,0.186l0.408,-0.019l0.075,0.111l-0.093,0.195l0.037,0.381l0.158,0.037l0.241,-0.288l0.204,-0.009l0.112,0.102l0.083,-0.009l0.019,-0.093l-0.075,-0.26l0.028,-0.213l-0.223,-0.687l-0.148,-0.148l-0.093,-0.362l-0.13,-0.158v-0.204l0.167,-0.149v-0.139l-0.111,-0.056l0.009,-0.092l0.13,-0.056l0.011,-0.681l0.064,-0.087l0.224,0.013l0.086,0.116h0.074l0.077,-0.094l0.192,-0.094l-0.004,-0.095z"/>
</svg>
