<svg xmlns="http://www.w3.org/2000/svg" viewBox="1060.411 679.820 40.280 42.346">
  <path d="M1096.671653,717.351955l0.002,-0.067l0.002,-0.068l-0.328,-0.093l-0.108,0.055l-0.226,-0.238l-0.343,0.044l-0.133,0.13l1.134,0.237z M1064.574579,683.618289l0.149,0.099l0.154,0.013l0.167,-0.106l0.031,-0.148l0.124,-0.087l0.173,0.025l0.149,-0.093l0.055,-0.105l0.198,-0.13l0.019,-0.123l0.087,-0.081l0.105,-0.031l0.099,-0.136l-0.044,-0.037l-0.061,0.019l-0.009,-0.072l0.107,-0.041l0.023,-0.102l0.088,-0.056l0.07,0.009l0.051,-0.083l-0.042,-0.075l-0.06,-0.009l-0.023,-0.046l0.13,-0.102l0.194,-0.051l0.075,-0.116l0.278,-0.256l0.093,0.005l0.167,0.176l0.236,0.07l0.047,0.046l0.06,-0.009l0.042,-0.186l0.107,-0.097l0.185,0.005l0.279,0.065l0.037,0.143l-0.056,0.205l0.139,0.25l-0.004,0.102l0.069,0.023l0.102,-0.064l0.218,0.009l0.079,0.12l-0.004,0.279l-0.033,0.093l-0.056,0.037l-0.065,0.014l-0.004,0.055l0.079,0.075l0.209,0.046h0.092l0.093,-0.097l0.163,-0.014l0.041,-0.051l0.07,0.037l0.826,0.041l0.097,0.075l0.084,0.139l0.232,0.102l0.037,0.097l-0.042,0.121l0.014,0.046l0.079,0.028l0.032,0.07l0.237,0.009l0.13,-0.065l0.074,-0.079l0.121,-0.25l-0.014,-0.07l-0.19,-0.153l-0.01,-0.144l0.191,-0.181l0.032,-0.116l0.139,-0.097l0.051,-0.093l0.019,-0.097l0.083,-0.047l0.186,0.019l0.028,0.06l0.055,0.014l0.042,-0.046l0.047,0.004l0.069,0.051l0.107,-0.023l0.199,-0.13l0.047,-0.102l0.097,-0.018l0.112,0.092l0.38,0.102l0.051,0.047l0.227,0.046l0.144,-0.116l0.098,-0.042l0.014,-0.129l-0.042,-0.075l0.018,-0.055l0.103,-0.065l0.037,-0.149l-0.084,-0.111l-0.116,-0.023l-0.097,-0.126l-0.047,-0.343l0.033,-0.056l0.074,-0.074l-0.028,-0.209l0.033,-0.037v-0.069l-0.075,-0.075l0.019,-0.106l0.181,-0.098l0.005,-0.042l-0.061,-0.051l0.07,-0.143l0.12,-0.005l0.098,0.097l0.009,0.098l0.107,0.106l0.153,0.005l0.13,0.116l0.06,0.116l0.26,0.084l0.144,-0.019l0.213,0.033l0.098,0.069l0.069,-0.102l0.13,-0.111l-0.068,-0.384l-0.012,-0.309l0.117,-0.05l0.471,0.155l0.086,-0.025l0.396,-0.346l0.235,0.08l-0.012,0.074l-0.068,0.081l-0.006,0.136l-0.044,0.111l0.037,0.056l0.081,0.019l0.111,0.099l0.081,0.006v0.074l-0.18,0.05l-0.068,0.098l0.037,0.044l0.062,-0.006l0.031,0.061l-0.111,0.254l-0.136,0.05l-0.044,0.123l0.075,0.068l0.111,-0.043l0.161,0.136l0.192,0.062l-0.013,0.062l-0.105,0.093l0.019,0.191l0.154,0.143l-0.018,0.055l-0.118,0.007l-0.049,0.179l0.099,0.124l-0.112,0.124l0.006,0.098l0.038,0.069l-0.031,0.129h-0.056l-0.056,-0.086l-0.161,0.037l-0.006,0.08l0.056,0.075v0.123l0.068,0.056l0.056,-0.019l0.061,0.044l-0.012,0.093l0.173,0.148l0.167,0.043l0.044,0.05l0.148,0.025l0.105,-0.038l0.316,0.025l0.086,0.062l0.328,0.006l0.18,-0.321l0.031,-0.198l0.142,-0.031l0.21,0.105l0.068,-0.006l0.025,-0.093l-0.056,-0.105l0.025,-0.087l0.093,-0.068l0.037,-0.08l-0.012,-0.186l0.043,-0.111l0.167,-0.037l0.161,-0.149l0.031,-0.093l0.247,-0.173l0.087,0.006l0.056,0.068h0.278l0.21,-0.105l0.037,-0.142l0.13,-0.013l0.186,0.093l0.278,-0.006l0.081,-0.043l0.086,0.012l0.05,0.074l0.235,0.106l0.099,0.129l0.093,0.205l0.062,0.061l0.074,0.019l0.031,0.093l-0.013,0.056l0.044,0.061h0.068l0.049,0.025l-0.018,0.099l0.055,0.037h0.075l0.148,0.136l0.173,0.062l0.081,0.006l0.024,-0.111l0.075,-0.006l0.086,0.08l0.217,-0.093l0.012,-0.086l0.074,-0.006l0.075,0.055l0.13,0.019l0.08,-0.05l0.192,0.019l0.068,-0.068l0.049,0.025l0.013,0.111l0.123,0.074l0.13,0.013l0.149,-0.106l0.093,0.025v0.081l0.03,0.055l0.069,0.025l0.018,0.062l-0.117,0.08v0.068l0.043,0.062l-0.062,0.18l0.068,0.031l0.13,-0.093l0.056,0.012l0.006,0.105l-0.05,0.093l-0.068,0.025l-0.006,0.056l0.124,0.006l0.068,-0.05l0.068,0.037l-0.043,0.198l0.055,0.075l0.105,0.018l0.007,0.074h-0.081l-0.08,-0.012l-0.05,0.031l0.025,0.074h0.142l0.031,0.043l-0.037,0.081l0.062,0.031l0.093,-0.087l0.124,-0.037l0.043,0.037l-0.031,0.068l-0.05,0.044l0.007,0.055l0.074,0.044l0.161,0.117l0.08,0.161l0.019,0.056l-0.05,0.037l-0.068,-0.006l-0.062,0.111l0.037,0.08l0.081,0.019l0.105,0.099l0.074,0.056l-0.037,0.055h-0.074l-0.031,0.068l0.049,0.062l-0.012,0.056l-0.049,0.037l0.006,0.124l0.099,0.092l0.105,0.062l0.049,-0.006l0.007,-0.08l0.092,-0.044l0.062,0.019l0.056,0.068l0.241,0.056l0.087,-0.007l0.142,0.044l-0.012,0.086l0.037,0.044l0.093,-0.006l0.13,0.086l-0.031,0.105v0.136l0.031,0.056l-0.025,0.043l-0.149,-0.037l-0.018,0.056l0.043,0.062l0.08,0.006l0.069,0.087l0.012,0.08l0.08,0.025l0.044,-0.068l0.105,-0.019l0.179,0.167l0.062,0.211l0.142,0.105l0.198,-0.05l0.031,-0.154l0.068,-0.013l0.062,0.056l0.081,-0.006l0.031,-0.099l0.086,-0.013l0.081,0.075l0.068,0.105l0.136,0.006l0.105,-0.142l-0.031,-0.161l0.062,-0.093l0.179,0.012l0.074,0.081l-0.006,0.099l-0.099,0.123v0.236l0.068,0.136l0.093,0.012l0.074,-0.031h0.161l0.142,-0.049h0.081l0.08,0.074l0.05,0.204l0.062,0.13l0.117,0.056l0.074,-0.038l-0.006,-0.117l0.068,-0.062l0.099,0.006l0.143,0.149l0.086,-0.019l0.149,-0.229l-0.013,-0.173l0.105,-0.328l0.069,-0.093l-0.013,-0.055l-0.074,-0.013l-0.006,-0.068l0.068,-0.068l0.482,-0.123l0.211,-0.273l0.105,-0.037l0.08,-0.136l0.056,-0.006l0.155,0.155l0.247,0.092h0.093l0.068,-0.092l0.049,-0.093l0.192,-0.006l0.068,0.043l0.099,-0.019l0.037,-0.068l-0.018,-0.198l0.074,-0.049h0.192l0.161,-0.124l0.154,-0.049l0.39,0.012l0.068,0.049h0.068l0.142,-0.198l0.427,-0.061l0.235,0.049l0.112,-0.006l0.086,-0.093l0.037,-0.08l0.149,-0.013l0.117,0.136l0.279,-0.012l0.291,0.031l0.259,-0.025l0.205,0.037l0.055,0.068l0.062,0.013l0.099,-0.068l0.235,0.037l0.118,0.117l0.08,0.025l0.18,-0.037l0.043,0.031l0.006,0.167l0.019,0.049l0.204,0.124l0.074,0.006l0.192,-0.216l0.006,-0.074l0.111,-0.062l0.118,-0.167l0.068,0.018l0.006,0.273l0.031,0.303l0.056,0.037l0.117,-0.093l0.155,0.006l0.291,0.248l0.018,0.29l0.167,0.242l0.136,0.024l0.26,-0.099l0.235,0.594l0.173,0.26l0.038,0.26l0.779,0.841l0.087,0.025l0.173,0.198l0.148,0.025l0.062,-0.112l0.173,-0.123l0.223,-0.297l0.037,0.062l-0.043,0.13l-0.006,0.197l0.093,0.211l0.012,0.136l-0.068,0.167l-0.13,0.099l-0.093,0.062l0.006,0.192l0.13,0.117l0.106,0.012l0.154,0.168l-0.012,0.111l-0.272,0.148l-0.099,0.106l-0.05,0.173l-0.062,0.117l-0.241,0.087l-0.006,0.099l0.049,0.086l-0.012,0.242l-0.081,0.105l0.038,0.148l0.105,0.075l0.154,0.024l0.087,-0.024l0.278,0.049l0.137,0.105l-0.007,0.155l0.037,0.26l0.038,0.093l0.16,0.08l0.019,0.087l-0.031,0.142l0.006,0.117l0.149,0.26l-0.013,0.087l-0.148,0.056l-0.025,0.099l0.068,0.068l0.124,-0.038l0.105,0.025l0.584,3.201l0.004,0.66l-0.384,0.408l-0.089,-0.023l-0.056,0.014l-0.074,-0.028l-0.098,-0.028l-0.069,0.032l-0.116,0.228l0.023,0.116l0.176,0.264l-0.042,0.204l-0.102,0.028l-0.074,-0.042l-0.334,0.061l-0.144,0.246l-0.19,0.181l-0.088,0.213l-0.079,-0.019l-0.056,-0.153l-0.093,-0.009l-0.078,0.585l-0.242,0.292v0.093l-0.116,0.167l-0.014,0.134l-0.06,0.102l-0.394,0.891l-0.051,0.803l-0.093,0.251l-0.167,0.83l-0.028,0.404l0.139,0.208l-0.464,0.627l-0.06,0.478l-0.158,0.018l-0.213,0.102l-0.933,1.513l-0.014,0.311l0.13,0.116l0.005,0.051l-0.033,0.046l0.037,0.098l-0.051,0.157l-0.055,0.038l-0.051,0.162v0.06l-0.033,0.061l-0.06,0.032l-0.061,0.088v0.126l0.07,0.092l0.093,0.037l-0.014,0.427l0.449,1.673l-0.051,0.204l0.144,0.014l0.352,0.701l0.172,1.053l0.348,0.83l-0.032,0.998l0.487,-0.042l-0.088,0.492l0.116,0.032l0.097,0.107l0.07,-0.004l0.046,-0.042l0.204,-0.051l0.163,-0.102l0.315,0.134l0.037,0.07l0.051,0.014l0.06,-0.037l0.116,0.055l0.014,0.065l0.047,0.042l-0.014,0.283l0.111,0.784l0.172,0.325v0.297l-0.046,0.009l-0.07,-0.032l-0.125,-0.014l-0.047,-0.042l-0.042,0.019l0.005,0.12l0.047,0.13l-0.014,0.102l-0.102,0.042v0.07l0.064,0.083l0.005,0.046l0.102,0.061v0.051l-0.046,0.018l0.004,0.056l0.042,0.028v0.046l-0.023,0.047l0.019,0.074l0.065,0.032l0.046,0.149l-0.028,0.06l0.037,0.107l0.061,0.014l0.027,0.079l-0.111,0.134l-0.065,0.014l-0.046,0.07h-0.051l-0.042,-0.047h-0.093l-0.056,0.042l-0.13,-0.018l-0.097,-0.084l-0.046,0.005l-0.033,0.065h-0.046l-0.112,-0.098l-0.143,-0.018l-0.084,0.037h-0.167l-0.079,-0.028l0.034,-0.015l0.089,0.006l0.22,-0.08l0.145,-0.028l0.078,-0.037l0.015,-0.083l-0.068,-0.109l-0.176,-0.012l-0.204,0.065l-0.124,-0.043l-0.127,-0.137l-0.028,0.019l0.161,0.266l-0.018,0.08l-0.096,0.056l-0.059,0.112l-0.056,0.009l-0.105,-0.065l-0.315,-0.056l-0.121,-0.074l-0.347,-0.012l-0.157,0.027l-0.075,-0.031l0.004,-0.055l-0.124,-0.118l-0.09,-0.015l-0.247,-0.177l-0.025,-0.08l0.093,-0.158l0.093,-0.068l0.037,-0.071l0.04,-0.22l0.093,-0.133l0.139,-0.064l0.046,-0.099l-0.04,-0.115l-0.145,-0.083l-0.118,0.015l-0.102,0.114l-0.074,-0.003l-0.044,-0.046l-0.213,-0.003l-0.148,0.08l-0.028,0.081l0.065,0.179l-0.028,0.093l-0.164,0.111l-0.006,0.161l0.052,0.056h0.14l0.018,0.031l-0.096,0.049l-0.08,0.124l-0.108,0.074l-0.118,0.003l-0.111,0.05l-0.016,0.049l0.152,0.158l0.114,0.05l0.059,-0.013l0.049,0.025l-0.046,0.155l-1.138,-0.198l-1.825,-0.232l-0.501,-0.112l-0.433,-0.142l-0.656,-0.142l-0.136,0.006l-0.124,0.062l-0.285,0.006l-1.46,0.192l-2.041,0.216l-1.213,0.192l-2.103,0.155l-0.792,0.037l-2.604,0.315l-1.281,0.186l-0.829,0.235l-0.612,0.266l-0.232,0.056l-0.121,-0.01l-0.093,0.037l-0.204,0.195l-0.993,0.436l-1.141,0.362l-0.093,0.102l-0.863,0.177l-0.26,0.222l-0.445,0.14l-0.139,0.12l-1.133,0.149l-0.204,0.102l-0.482,0.371l-0.288,0.278l-0.269,0.13l-0.677,0.102l-0.381,0.167l-0.083,0.149l-0.112,0.074l-0.195,0.037l-0.139,0.075l-0.612,0.399l-0.381,0.12l-0.427,0.019l-0.065,-0.102l-0.185,-0.084l-0.009,-0.12l0.092,-0.158l-0.009,-0.093l-0.083,-0.093l0.092,-0.213l-0.037,-0.436l-0.093,-0.121l0.019,-0.093l0.111,-0.037l0.028,-0.102l-0.074,-0.213l-0.084,-0.028l0.01,-0.084l0.074,-0.037l-0.003,-0.071l-0.071,-0.05l0.037,-0.083h0.074l-0.065,-0.473l0.05,-0.05l-0.025,-0.062l-0.192,-0.074l-0.012,-0.161l0.062,-0.043l-0.05,-0.322l-0.062,-0.13l0.025,-0.08l0.192,-0.031l0.018,-0.074l0.093,-0.006l0.093,0.055l0.049,-0.049l-0.055,-0.13l-0.037,-0.155l-0.106,-0.031l0.007,-0.055l0.099,-0.044l0.006,-0.117l-0.068,-0.068l-0.006,-0.093l0.024,-0.118l-0.055,-0.191l0.037,-0.099l0.216,-0.13l0.074,0.074l0.062,-0.037l0.013,-0.099l0.086,-0.068l0.093,-0.266l-0.049,-0.248l-0.056,-0.043l0.025,-0.105l0.117,-0.05v-0.111l-0.099,-0.087l0.025,-0.074l0.13,-0.012l0.216,-0.143l0.044,0.044l-0.068,0.117l0.006,0.112l0.086,0.006l0.106,-0.18l0.012,-0.142l0.05,-0.074l0.086,-0.031l0.006,-0.062l-0.08,-0.08l0.037,-0.248l-0.068,-0.006l-0.031,0.093l-0.068,0.006l-0.13,-0.105l-0.074,-0.167l-0.093,-0.13l0.043,-0.05l0.112,0.031l0.055,-0.055l-0.049,-0.186l0.031,-0.087l0.08,-0.037l0.068,-0.111l-0.043,-0.062l0.031,-0.049h0.093l0.006,-0.075l-0.081,-0.111l0.025,-0.186l0.105,-0.074l-0.006,-0.198l-0.198,-0.204l-0.043,-0.21l-0.124,-0.192l-0.068,-0.254l0.019,-0.074l0.086,-0.056l-0.012,-0.092l-0.074,-0.05l-0.006,-0.099l0.074,-0.062l0.006,-0.179l-0.118,-0.111h-0.117l-0.062,0.284l-0.08,0.006l-0.186,-0.148l-0.019,-0.099h-0.111l-0.049,0.105h-0.081l-0.068,-0.167l0.006,-0.124l-0.179,-0.099l-0.074,0.044l-0.081,-0.031l-0.031,-0.068l-0.247,-0.081l-0.056,-0.192l-0.086,0.007l-0.044,0.136l0.031,0.123l-0.068,0.031l-0.272,-0.21l-0.118,-0.043l-0.123,-0.13l0.006,-0.068l-0.05,-0.062l-0.111,-0.037l0.012,-0.192l0.118,-0.099v-0.08l-0.149,-0.081l-0.012,-0.068l0.05,-0.08l-0.087,-0.13h-0.167l-0.068,0.093l-0.062,-0.013l-0.031,-0.136l0.006,-0.315l0.099,-0.087l-0.018,-0.149l0.092,-0.024l-0.012,-0.093l-0.408,-0.34l-0.099,-0.186l-0.099,-0.018l-0.05,0.037l-0.074,-0.013l-0.012,-0.08l-0.062,-0.006l-0.043,0.055l-0.068,-0.006l-0.056,-0.068l-0.118,-0.025l-0.055,-0.111l-0.112,-0.006l-0.216,0.055l-0.037,0.062l-0.217,0.007l-0.099,0.068l-0.353,0.086l-0.167,-0.062l-0.074,-0.092l-0.21,-0.062l-0.118,-0.062l-0.266,0.006l0.013,-0.074l0.08,-0.019l-0.018,-0.062l-0.297,-0.099l-0.112,-0.068h-0.142l-0.21,0.105l-0.124,-0.049l0.012,-0.08l0.093,-0.062l-0.111,-0.334l0.055,-0.044l-0.012,-0.068l-0.229,-0.167l-0.062,-0.173l-0.099,-0.006l-0.018,0.223l-0.056,0.074l-0.025,0.105l-0.086,0.018l-0.143,-0.092l-0.13,-0.192l-0.167,-0.142l-0.228,-0.007l-0.081,-0.08l0.05,-0.08h0.111l0.093,-0.118l-0.013,-0.13l0.068,-0.037l0.099,0.012l0.075,-0.055l-0.075,-0.204l0.056,-0.038l0.111,0.062l0.161,-0.154l0.192,-0.081l0.012,-0.13l0.062,-0.043l0.099,0.019l0.192,-0.143l-0.018,-0.13l0.16,-0.13l0.149,-0.222l0.086,-0.025l0.05,-0.074l-0.031,-0.099l0.031,-0.099l0.074,-0.013l0.056,-0.074l-0.019,-0.124l0.136,-0.179l-0.055,-0.031h-0.081l-0.055,-0.148l0.061,-0.093l0.093,0.012l0.025,-0.074l-0.105,-0.148l-0.006,-0.174l0.068,-0.099l0.179,-0.092l0.056,-0.093l-0.105,-0.204l-0.068,-0.341l0.049,-0.235l-0.006,-0.123l0.099,-0.118l-0.006,-0.136l-0.248,-0.149l-0.192,-0.216l-0.092,-0.031l-0.013,-0.111l0.081,-0.087l-0.075,-0.148l-0.179,-0.223l-0.056,-0.285l0.007,-0.284l-0.081,-0.081l-0.012,-0.093l0.049,-0.117l-0.062,-0.291l-0.043,-0.093l-0.025,-0.142l-0.092,-0.031l-0.068,0.025l-0.093,-0.05l-0.037,-0.117l0.303,-0.303l0.11,-0.143l0.088,-0.014l0.083,0.056l0.005,0.112l0.037,0.051l0.093,0.023l0.13,-0.005l0.083,-0.083l0.088,-0.051l0.061,0.009l0.065,0.148l0.055,0.033l0.167,0.046l0.214,0.139l0.088,0.107h0.06l0.047,-0.079l0.13,-0.065l0.06,-0.12l0.009,-0.061l-0.069,-0.111l0.009,-0.074l0.056,-0.075l0.023,-0.106l0.083,-0.074l0.07,-0.019l0.014,-0.074l-0.033,-0.051l0.01,-0.061l0.088,-0.06l0.028,-0.102l0.06,-0.06l0.028,-0.112l0.065,-0.102l0.037,-0.111l-0.023,-0.056l0.009,-0.074l0.06,-0.056l-0.004,-0.055l-0.056,-0.042l-0.047,-0.158l-0.102,-0.037l-0.051,-0.181v-0.116l0.116,-0.121l0.019,-0.083v-0.088l0.111,-0.172l0.023,-0.13l0.098,-0.181l0.06,-0.018l0.014,-0.042l-0.014,-0.102l0.037,-0.084l0.065,-0.055h0.088l0.061,0.051l0.116,0.009l0.028,-0.051l0.083,-0.009l0.065,0.065l-0.005,0.069l0.056,0.042l0.065,-0.019l0.079,0.005l0.065,0.056l0.037,-0.037l-0.06,-0.107l0.032,-0.065l-0.014,-0.051l-0.093,-0.042l-0.092,-0.199l-0.13,-0.07l-0.061,0.005l-0.051,-0.051l0.028,-0.102l0.07,-0.005l0.032,-0.047l-0.041,-0.06v-0.097l0.027,-0.149l0.07,-0.093l-0.005,-0.051h-0.092l-0.107,0.098l-0.047,-0.009l-0.013,-0.061l-0.047,-0.004l-0.056,0.074l-0.023,0.079l-0.037,0.088l-0.065,0.005l-0.116,-0.047l-0.032,-0.065l-0.149,-0.06h-0.116l-0.083,-0.051h-0.093l-0.042,0.028l-0.116,-0.01l-0.093,-0.134l-0.065,-0.009l-0.06,-0.052l-0.018,-0.06l-0.209,-0.06l-0.014,-0.112l0.023,-0.092l0.088,-0.084l0.033,-0.125l-0.047,-0.139l-0.009,-0.098l0.065,-0.167l-0.014,-0.125l-0.051,-0.07l-0.005,-0.106l-0.055,-0.088l-0.019,-0.135l0.023,-0.088l-0.009,-0.088l0.042,-0.042l0.055,0.032l0.047,-0.009l0.009,-0.056l0.06,-0.014l0.112,-0.134l-0.005,-0.046l0.023,-0.038l0.089,0.024l0.06,0.055h0.065l0.023,0.051h0.056l0.055,-0.028l0.07,0.005l0.121,0.047l0.051,-0.024l0.032,-0.111l0.042,-0.019l0.051,0.056l0.051,-0.014l0.028,-0.042l0.097,0.019l0.047,0.042l0.046,0.009l0.093,-0.023l0.153,0.037l0.093,0.037l0.065,-0.014l0.018,-0.065l0.061,-0.018l0.051,0.041h0.065l0.069,-0.055l0.06,0.009l0.07,0.07l0.005,0.06l0.055,0.083l-0.014,0.047l-0.055,0.004l-0.014,0.051l0.074,0.014l0.023,0.084l0.144,0.042l0.074,0.065l0.135,-0.014l0.065,0.009l0.051,-0.009l0.06,-0.088l-0.051,-0.228l0.042,-0.107l0.042,-0.004l0.028,0.051l0.097,0.009l0.088,0.06l0.042,0.14l0.153,0.297l0.014,0.088l0.088,0.116h0.06l0.075,-0.019l0.069,0.014l0.065,0.019l0.13,-0.014l0.065,-0.028l0.051,0.005l0.037,0.037l0.13,0.009l0.014,-0.037l-0.06,-0.047l-0.023,-0.092l-0.079,-0.033l-0.084,-0.13l-0.009,-0.106l0.042,-0.028l0.004,-0.037l-0.037,-0.047l0.005,-0.051l0.065,-0.065l0.023,-0.162l-0.227,-0.385v-0.102l0.083,-0.093l0.051,-0.186l-0.121,-0.222l-0.296,-0.107l-0.112,-0.223l0.009,-0.121l-0.055,-0.106l-0.116,-0.019l-0.065,-0.051l0.004,-0.111l-0.027,-0.042l-0.13,-0.005l-0.075,0.056l-0.055,-0.018l0.014,-0.056l-0.223,-0.065l-0.074,-0.06l-0.112,-0.019l-0.037,0.065l-0.097,0.032l-0.125,-0.009l-0.112,-0.093l-0.032,-0.106l-0.13,-0.14l0.014,-0.069l0.171,-0.065l0.042,-0.037l0.023,-0.139l0.038,-0.033v-0.046l-0.093,-0.028l-0.005,-0.056l0.167,-0.218v-0.046l-0.046,-0.023l-0.037,-0.061l0.014,-0.093l-0.019,-0.143l0.19,-0.158l0.047,-0.084l0.069,-0.055l0.167,-0.005l0.074,-0.056v-0.097l0.038,-0.06l0.139,0.018l0.074,-0.018l0.046,-0.065l0.14,-0.01l0.315,0.093l0.065,-0.056l-0.056,-0.083l-0.324,-0.186l-0.223,-0.259l-0.047,-0.158l-0.167,-0.037l-0.046,0.083l-0.139,0.037l-0.149,-0.093l-0.13,-0.129v-0.205l0.13,-0.269l0.13,-0.13l0.037,-0.148l-0.046,-0.111l0.019,-0.186l0.102,-0.176l0.037,-0.167l-0.047,-0.112h-0.399l-0.334,0.121l-0.287,0.037l-0.121,-0.028l-0.046,-0.083l-0.177,-0.102l-0.176,-0.265l-0.125,-0.246l-0.033,-0.134l-0.079,-0.075l-0.004,-0.171l0.041,-0.042v-0.06l-0.051,-0.033l0.028,-0.204l-0.028,-0.042l0.01,-0.051l0.088,-0.032l0.056,-0.13l-0.005,-0.135l-0.046,-0.051l0.013,-0.116l0.065,-0.055l0.01,-0.158l-0.042,-0.088l0.014,-0.126l0.083,-0.014l0.014,-0.051l-0.051,-0.069l0.005,-0.065l0.051,-0.009l0.005,-0.042l-0.07,-0.042l0.014,-0.046l0.08,-0.003l0.013,-0.167l-0.025,-0.174l-0.087,-0.043l-0.161,0.025l-0.055,-0.087l0.037,-0.055l0.062,0.024l0.043,-0.024l0.006,-0.106l-0.074,-0.086l-0.142,-0.013l-0.037,-0.086l0.074,-0.037l-0.006,-0.044l-0.081,-0.031l0.006,-0.055l0.137,0.018l0.185,-0.068l0.006,-0.099l-0.068,-0.012l-0.093,0.031l-0.055,-0.074l0.105,-0.137l0.068,-0.334l0.087,-0.055l0.105,0.024l0.08,-0.012l0.031,-0.049l0.347,-0.161l0.049,-0.074l0.019,-0.192l0.105,-0.099l0.006,-0.099l0.019,-0.062l0.068,0.012z"/>
</svg>
