<svg xmlns="http://www.w3.org/2000/svg" viewBox="394.690 934.098 1.512 1.111">
  <path d="M394.758668,935.111893l-0.02313,-0.115648l0.047127,-0.091796l0.00983,-0.073726l0.01966,-0.034405l0.03932,-0.014745l0.031948,-0.046693l-0.002458,-0.066353l0.027033,-0.066353l0.007373,-0.081098l0.024575,-0.051608l0.041778,-0.036863l0.071268,-0.199059l0.095843,-0.113046l0.066353,-0.022118l0.056523,0.007373l0.037441,0.025443l0.115648,0.009252l0.083267,0.041633l0.013878,0.032381l0.041633,0.013878l0.032381,-0.018504l0.041633,0.013878l0.009252,0.037007l0.087893,0.078641h0.064763l0.030069,0.014601l0.014745,0.02949l0.02949,0.007373l0.054065,-0.01966l0.095843,-0.002458l0.027033,0.017203l0.022118,0.004915l0.036863,-0.012288l0.044235,0.012288l0.046693,0.071268l-0.002458,0.031948l-0.022118,0.024575l-0.007373,0.056523l-0.027033,0.022118l-0.086013,-0.002458l-0.098301,0.017203l-0.051608,-0.002458l-0.01966,0.01966l0.00983,0.034405l-0.04915,0.063896l-0.061438,0.024575l-0.095843,-0.014745l-0.024575,-0.017203l-0.058981,0.007373l-0.142536,0.093386l-0.078641,0.088471l-0.108131,0.03932l-0.103216,-0.00983l-0.071268,0.00983l-0.056523,0.031948l-0.04915,0.117961l-0.071268,0.051608l-0.068811,0.004915l-0.097723,-0.043223Z M394.701567,935.206725l0.024575,0.002458l0.00983,-0.017203l-0.00983,-0.027033h-0.017203l-0.01966,0.024575l0.012288,0.017203Z M394.731057,935.157574h0.01966l0.002458,-0.00983l-0.014745,-0.012288l-0.014745,0.007373l0.007373,0.014745Z "/>
</svg>
