<svg xmlns="http://www.w3.org/2000/svg" viewBox="1173.234 664.098 50.731 75.996">
  <path d="M1180.824771,727.441201l0.078877,-0.041758l0.340252,-0.037118l0.089703,-0.012373l0.006186,0.021652l-0.111355,0.032479l-0.176312,0.097436l-0.199511,0.018559l-0.046398,-0.027839l0.018559,-0.051038Z M1180.492252,725.948732l0.126821,0.244363l0.105169,0.064957l0.23199,0.021652l0.111355,-0.027839l0.040212,-0.064957l-0.006186,-0.281481l-0.179406,-0.235083l-0.225804,-0.15466l-0.123728,0.030932l-0.083516,0.207244l0.003093,0.194872Z M1179.663275,724.015482l0.021652,0.027839l0.027839,-0.015466v-0.043305l-0.018559,-0.024746l-0.030932,0.00928v0.046398Z M1179.589038,724.445436l0.058771,-0.006186l0.034025,-0.06805l0.083516,-0.034025l0.003093,-0.043305l-0.052584,-0.058771l-0.102076,-0.006186l-0.046398,0.034025l-0.018559,0.14538l0.040212,0.037118Z M1179.623063,724.201074l0.024746,-0.003093l0.015466,-0.021652l-0.00928,-0.021652l-0.030932,0.003093l-0.018559,0.021652l0.018559,0.021652Z M1179.935476,724.44853h0.037118l0.00928,-0.021652l-0.024746,-0.024746l-0.021652,-0.003093l-0.024746,0.021652l0.024746,0.027839Z M1179.545733,724.627935l0.058771,0.049491h0.061864l0.120635,-0.123728l0.034025,-0.083516l-0.058771,-0.052584l-0.040212,0.00928l-0.034025,0.055678l-0.151567,0.015466l-0.037118,0.040212l0.046398,0.089703Z M1179.712766,724.702172l0.003093,0.064957l0.185592,0.089703l0.105169,-0.012373l0.034025,-0.037118l-0.021652,-0.225804l-0.08661,-0.06805l-0.071144,0.003093l-0.037118,0.049491l-0.111355,0.136101Z M1173.538738,719.437545l0.058771,-0.040212l0.024746,-0.058771l-0.027839,-0.006186l-0.052584,0.046398l-0.030932,0.046398l0.027839,0.012373Z M1173.585136,719.576739l0.024746,-0.021652l-0.003093,-0.055678l-0.030932,-0.00928l-0.021652,0.015466l0.00928,0.055678l0.021652,0.015466Z M1173.458315,719.592205l0.003093,0.111355l0.030932,0.046398h0.040212l0.018559,-0.030932l-0.021652,-0.052584l0.00928,-0.098982l-0.021652,-0.071144l-0.027839,0.003093l-0.030932,0.092796Z M1173.464502,720.17682l0.046398,-0.015466l0.018559,-0.049491l-0.00928,-0.037118l-0.034025,-0.003093l-0.055678,0.030932l-0.015466,0.061864l0.049491,0.012373Z M1175.025021,720.467581l0.157753,0.24127l0.106715,0.069597l0.213431,0.264469l0.106715,0.069597l0.046398,-0.00928l0.00928,-0.060317l-0.171673,-0.412942l-0.139194,-0.143834l-0.041758,-0.153113l0.013919,-0.074237l-0.041758,-0.032479l-0.23663,0.088156l-0.041758,0.051038l0.018559,0.102076Z M1176.165687,720.853409h0.029579l0.022184,-0.056693l-0.002465,-0.027114l-0.019719,-0.00493l-0.041903,0.059157l0.012324,0.029579Z  M1210.029993,664.119915l2.538,-0.022l0.53,1.029l-0.105,0.068l-0.038,0.112l0.05,0.154l0.161,0.068l0.055,0.161l-0.006,0.124l-0.068,0.099l-0.018,0.148l0.099,0.056l0.061,-0.012l0.05,0.061v0.106l0.111,0.031l0.105,-0.081l0.05,0.013l0.006,0.123l0.241,0.112l0.205,-0.019l0.185,0.056l0.019,0.136l-0.099,0.148l0.043,0.124l0.087,-0.019l0.099,-0.136h0.061l0.087,0.068l0.019,0.211l0.185,0.093l0.13,-0.038l0.124,0.056l0.025,0.136l0.123,0.322l-0.024,0.179l0.055,0.118l-0.012,0.148l-0.068,0.105l-0.019,0.124h0.081l0.099,-0.049l0.055,0.037v0.167l0.192,0.284l0.006,0.13l-0.068,0.081v0.093l0.037,0.068l-0.006,0.08l-0.086,0.056l-0.007,0.08l0.081,0.105l0.006,0.087l-0.093,0.105v0.056l0.062,0.08l0.013,0.105l-0.075,0.081l0.013,0.08l0.111,0.081l-0.012,0.068l-0.118,0.024l-0.012,0.093l0.123,0.074l0.118,0.155l0.217,0.186l0.148,-0.006l0.093,-0.112h0.13l0.154,0.056l-0.006,0.111l0.081,0.142l0.068,0.087l-0.019,0.118l-0.074,0.049l-0.013,0.136l0.291,0.087l-0.043,0.111l-0.111,0.006l-0.093,0.075l0.08,0.204l-0.037,0.099l-0.099,0.031l-0.012,0.117l0.117,0.359h0.093l0.043,-0.074l0.087,0.012l0.049,0.211l0.143,0.216l-0.056,0.08l-0.142,0.013l-0.044,0.08l0.13,0.173l-0.037,0.069l-0.142,0.006l-0.068,0.142l0.235,0.749l0.192,0.142l0.093,0.111l-0.044,0.248l-0.247,0.173l-0.235,0.544l0.031,0.217l-0.007,0.093l-0.098,0.074l-0.007,0.068l0.13,0.099v0.074l-0.099,0.087l-0.031,0.161l0.068,0.105v0.154l-0.031,0.068l0.127,0.307l0.121,0.102l0.046,0.111l-0.028,0.241l0.047,0.232l-0.074,0.325l-0.269,0.139v0.121l0.232,0.334l0.027,0.548l-0.111,0.111l-0.037,0.158l0.185,0.519l0.232,0.288l0.158,0.594l-0.079,0.181l0.005,0.352l0.232,0.26l0.209,0.051l0.236,0.209l0.047,0.181l0.213,0.278l-0.004,0.135l0.083,0.186l0.014,0.074l0.088,0.134l-0.009,0.065l0.032,0.037l0.158,0.028l0.13,0.102l0.028,0.102l0.297,0.214l0.037,0.13l0.237,0.199l0.088,0.2l0.153,0.223l0.06,0.023l0.135,0.157l0.092,0.005l0.042,0.028l0.01,0.042l0.199,0.12l0.111,0.028l0.079,0.037l0.042,0.075l0.19,0.111l0.088,0.009l0.325,0.251l-1.819,0.403l-0.31,-0.162l-0.766,-0.186l-0.195,-0.004l-0.074,-0.033l-0.116,-0.004l-0.065,0.037l-0.093,-0.005l-0.079,-0.042l-0.134,0.005l-0.13,0.046l-0.088,0.158l-0.269,0.093l-0.246,-0.13l-0.181,-0.005l-0.297,-0.092l-1.03,0.338l-2.042,-0.436l-0.12,-0.051l-0.065,0.033l-1.652,-0.038l-0.241,0.65l-0.339,0.585l-0.705,0.589l-0.158,0.241l-0.093,0.357l0.111,0.14l0.205,0.055l0.292,0.353l0.083,0.032l0.061,0.051l0.041,0.181l0.135,0.102l0.181,0.052l0.181,0.167l0.037,0.148l0.074,0.033l0.071,-0.004l0.161,0.174l0.223,0.382l0.107,0.027l0.116,-0.041l0.079,0.023l0.199,0.329l0.232,0.144l0.005,0.195l-0.153,0.353l0.032,0.153l0.144,0.069l0.292,0.283l0.269,0.135l0.172,0.283l0.009,0.102l0.6,0.359l1.702,1.262l0.099,0.006l0.136,-0.049l0.179,0.061l0.111,0.205l-0.031,0.111l0.087,0.074l0.173,0.006l0.223,0.149l-0.006,0.241l0.056,0.056h0.142l0.13,0.056l0.179,-0.013l0.309,0.13l0.013,0.105l0.068,0.093l0.198,0.161l0.043,0.198l0.074,0.111l0.075,0.229l0.148,0.074l1.287,2.747v0.371l0.371,1.033l0.39,0.604l0.492,0.106l0.046,0.079l0.019,0.464l-0.014,0.121l-0.084,0.088l-0.009,0.07l0.023,0.055l-0.019,0.125l-0.064,0.061l-0.024,0.167l-0.171,0.223l-0.288,0.185v0.04l-0.14,0.249l-0.095,0.054l-0.142,0.217l-0.025,0.099l-0.186,0.192l-0.099,0.037l-0.068,0.056l-0.055,0.105l-0.44,0.371l-0.105,0.031l-0.195,0.219l-0.093,0.028l-0.051,0.047l0.005,0.097l-0.042,0.047l-0.079,0.037l-0.009,0.088l0.084,0.079l-0.028,0.106l-0.13,0.167l0.009,0.209l0.079,0.042l-0.02,0.229l-0.139,0.182l-0.05,0.016h-0.077l-0.099,0.105l-0.125,0.224l-0.051,0.381l0.014,0.079l-0.014,0.074l-0.075,0.079l-0.06,0.116l-0.051,0.181l-0.167,0.297l-0.032,0.074l-0.061,0.167l-0.023,0.158l-0.037,0.092l-0.088,0.047l-0.204,-0.033l-0.334,0.089l-0.706,1.647l-0.343,0.668l0.084,0.25l-0.502,0.761l-1.057,0.39l-0.084,-0.028l-0.087,0.013l-0.241,0.272l-0.043,0.142l-0.192,0.118l-0.13,0.105l-0.216,0.099l-0.081,0.21l0.025,0.13l0.068,0.062l0.074,0.179l0.167,0.155l0.118,0.216l0.043,0.18l0.111,0.105h0.118l0.291,-0.074l0.08,-0.105h0.105l0.136,0.167l0.025,0.105l-0.062,0.093l0.007,0.148l0.068,0.235l-0.019,0.186l0.037,0.389l-0.012,0.149l-0.13,0.278l-0.093,0.341v0.136l0.105,0.161l-0.018,0.08l0.049,0.111l0.112,0.075l-0.007,0.086l-0.086,0.074l-0.006,0.062l0.024,0.05l-0.012,0.068l-0.093,0.031l-0.018,0.062l0.024,0.08l-0.068,0.217l-0.13,0.08l-0.08,0.204l0.012,0.087l-0.099,0.235l0.019,0.068l-0.025,0.049l-0.08,0.013l-0.044,0.08l0.019,0.111l0.247,0.161l0.038,0.081l0.21,0.068l0.13,-0.019l0.253,0.136l0.192,0.644l-0.037,0.099l-0.087,0.031v0.074l0.044,0.056l0.043,0.303l-0.062,0.08l0.019,0.167l0.074,0.081l0.006,0.173l-0.062,0.055v0.075l0.087,0.068l0.074,0.291l-0.025,0.197l0.075,0.143l0.006,0.241l-0.068,0.124l0.012,0.105l0.056,0.056l0.018,0.284l-0.031,0.062l0.025,0.272l0.068,0.143l0.031,0.123l0.118,0.13l0.086,0.025l0.192,0.216l0.025,0.099l0.173,0.087l0.167,0.056l0.186,0.192l-0.006,0.055l0.074,0.05h0.13l0.309,0.191l0.167,0.013l0.179,0.117l0.081,0.316l0.068,0.006l0.049,-0.031l0.05,0.031v0.136l0.26,0.334l0.031,0.266l0.099,0.656l-0.025,0.062l0.025,0.185l0.117,0.044l0.093,0.278l0.062,0.025l0.068,-0.031l0.086,0.012l0.038,0.093l-0.031,0.062l-0.211,0.037l-0.074,0.081l-0.117,0.024h-0.124l-0.124,0.062l0.18,0.415l0.941,1.623l1.541,1.596l2.116,2.487l0.123,-0.05l0.05,-0.068l0.167,-0.006l0.266,0.124l0.408,0.612l0.112,0.013l0.117,-0.056l0.272,0.186l0.013,0.16l0.26,0.446l0.086,0.408l-0.049,0.142l-0.18,0.068l-0.018,0.149l0.074,0.427l0.142,0.068l-0.006,0.074l-0.049,0.074l-0.031,0.198l0.092,0.365l0.007,0.174l-0.124,0.253l0.012,0.13l0.112,0.099l0.012,0.105l-0.074,0.118l0.068,0.154l0.093,0.075l0.165,0.375l0.13,0.08l0.161,0.569l-0.05,0.093l0.006,0.081l0.186,0.154l0.004,0.095l-0.192,0.094l-0.077,0.094h-0.074l-0.086,-0.116l-0.224,-0.013l-0.064,0.087l-0.011,0.681l-0.13,0.056l-0.009,0.092l0.111,0.056v0.139l-0.167,0.149v0.204l0.13,0.158l0.093,0.362l0.148,0.148l0.223,0.687l-0.028,0.213l0.075,0.26l-0.019,0.093l-0.083,0.009l-0.112,-0.102l-0.204,0.009l-0.241,0.288l-0.158,-0.037l-0.037,-0.381l0.093,-0.195l-0.075,-0.111l-0.408,0.019l-0.288,-0.186l-0.148,0.019l-0.13,-0.075l-0.093,-0.185l-0.408,-0.26l-0.26,-0.306l-0.492,-0.149l-0.195,0.028l-0.853,-0.185l-0.204,-0.121l-0.214,-0.009l-0.64,0.399l-0.149,-0.019l-0.194,-0.127l-0.025,-0.185l-0.146,-0.174l-0.182,-0.102l-0.031,-0.096l-0.155,-0.08l-0.167,-0.018l-0.117,0.129h-0.075l-0.08,-0.105l-0.08,0.019l-0.044,0.142l-0.068,0.025l-0.099,0.025l-0.105,0.13l-0.13,-0.007l-0.055,-0.055l-0.081,-0.007l-0.068,0.075l-0.08,0.006l-0.31,-0.322l-0.092,0.013l-0.087,0.16l-0.155,0.038l-0.179,-0.013l-0.13,-0.08l0.012,-0.099l0.112,-0.105l-0.019,-0.112l-0.161,-0.086l-0.037,-0.242l-0.086,-0.006l-0.062,0.081l0.037,0.092l-0.136,0.031l-0.124,0.105l-0.093,0.013l-0.216,-0.056l-0.056,-0.192l-0.235,-0.117l-0.118,0.049l-0.092,-0.018l-0.038,-0.087l-0.099,-0.037l-0.111,0.019l-0.099,-0.056l0.012,-0.093l-0.204,-0.167l-0.08,-0.161l-0.081,0.006l-0.08,0.143l-0.544,0.105l-0.198,0.13l-0.062,0.117l-0.081,-0.006l-0.037,-0.235l-0.179,-0.124l-0.279,-0.049h-0.129l-0.217,0.148h-0.068l-0.087,-0.031h-6.529v-0.061l-0.041,-0.041l-0.003,-0.065l0.065,-0.058l-0.015,-0.152l-0.096,-0.127l-0.062,0.003l-0.083,-0.052l-0.031,-0.071l-0.109,-0.038l-0.139,0.069l-0.148,-0.041l-0.059,-0.092l-0.158,-0.01l-0.182,0.019l-0.152,0.08l-0.037,0.081l-0.065,0.021l-0.056,0.065l-0.071,0.003l-0.065,-0.049l-0.077,0.006l-0.071,0.062l-0.093,-0.009l-0.093,-0.068l-0.241,0.006l-0.087,0.049l-0.167,-0.018l-0.086,-0.068l-0.081,0.012l-0.093,0.111h-0.068l-0.043,-0.061l-0.074,0.012l-0.025,0.08l-0.074,0.006l-0.124,-0.086h-0.093l-0.055,-0.056l-0.13,0.006l-0.099,0.112l-0.204,0.024l-0.05,0.056l-0.068,-0.006l-0.031,-0.068l-0.093,-0.012l-0.049,0.043l-0.056,-0.006l-0.086,-0.081l-0.192,-0.012l-0.05,0.031l-0.204,-0.05l-0.062,-0.068l-0.13,-0.006l-0.031,-0.049l-0.111,-0.025l-0.161,0.068l-0.352,-0.019l-0.087,0.062h-0.167l-0.458,-0.086l-0.482,-0.13l-0.118,0.049l-0.049,0.081l-0.149,0.031l-0.037,0.043l-0.087,0.006l-0.136,-0.08l-0.086,-0.118l-0.155,0.012l-0.056,-0.037l-0.049,0.006l-0.05,0.062l-0.086,0.007l-0.105,-0.106h-0.062l-0.081,0.068l-0.092,0.007l-0.093,-0.044l-0.18,-0.006l-0.043,0.037l-0.099,-0.006l-0.062,-0.068h-0.062l-0.031,0.056h-0.111l-0.068,-0.037l-0.191,0.017l-0.042,0.042l-0.051,0.005l-0.042,-0.047h-0.06l-0.088,0.042l-0.209,0.005l-0.061,0.041l-0.065,0.005l-0.157,-0.056l-0.056,0.014l-0.046,0.037l-0.172,-0.004l-0.06,0.037l-0.135,-0.009l-0.074,-0.061v-0.083l-0.033,-0.028l-0.078,0.014l-0.144,-0.06l-0.079,-0.084l-0.177,0.009l-0.064,-0.023l-0.07,0.019l-0.028,0.069l-0.153,0.024l-0.051,0.032h-0.065l-0.051,-0.06l-0.255,-0.005l-0.084,0.065h-0.093l-0.083,-0.032h-0.093l-0.051,0.037h-0.069l-0.075,-0.037h-0.074l-0.06,0.065l-0.061,0.004l-0.046,-0.051l-0.074,0.005l-0.037,0.032h-0.07l-0.116,-0.046l-0.139,0.046l-0.019,0.065l0.075,0.121l-0.019,0.144l-0.046,0.023l-0.051,-0.028l-0.047,0.051l0.009,0.227l-0.032,0.084v0.079l0.046,0.087h-0.095h-0.611l-0.101,-0.055h-0.135l-0.217,-0.088l-0.287,0.171h-6.379l-0.143,0.097l-0.158,-0.042l-0.106,0.093l-0.056,-0.028l0.019,-0.06l-0.074,-0.055l-0.093,0.027l-0.266,-0.032l-0.062,0.049l-0.031,0.102l-0.029,0.006l-0.002,-0.139l-0.135,-0.055l-0.111,0.006l-0.242,-0.126l-0.261,-0.081l-0.063,0.058l-0.051,-0.024l0.009,-0.074l-0.12,-0.134l-0.236,-0.094l-0.054,-0.052l-0.071,-0.256l0.082,-0.177l0.006,-0.102l-0.081,-0.131l-0.059,-0.01l-0.039,-0.144l-0.025,-0.365l0.018,-0.246l-0.046,-0.153l0.005,-0.088l0.046,-0.079l0.023,-0.381l0.19,-0.923l0.084,-0.102l0.046,-0.302l0.084,-0.153l0.009,-0.074l-0.074,-0.19l0.037,-0.209l0.084,-0.139l0.004,-0.107v-0.134l0.121,-0.358l0.227,-0.236l0.06,-0.093l0.047,-0.278l0.037,-0.098l-0.264,-0.64l-0.232,-0.594l-0.014,-0.121l-0.079,-0.162l-0.65,-0.733l-0.51,-0.473l-0.339,-0.246l0.014,-0.047l0.306,-0.134l0.255,-0.191l0.079,-0.139l0.191,-0.097l0.18,-0.014l0.27,0.148l0.194,0.024l0.307,-0.107l0.232,-0.047l0.144,-0.074l0.12,-0.139l0.005,-0.134l0.028,-0.065l-0.037,-0.01l-0.042,0.047l-0.019,0.148l-0.097,0.098l-0.135,0.069l-0.227,0.037l-0.279,0.107l-0.185,-0.014l-0.214,-0.162l-0.236,-0.005l-0.232,0.107l-0.135,0.148l-0.106,0.047l-0.409,0.051l-0.051,-0.042l0.042,-0.153l-0.014,-0.19l-0.482,-0.868l-0.214,-0.246l0.014,-0.037l0.065,0.018l0.204,0.191l0.144,0.255l0.116,0.051l0.195,0.005l0.125,0.055l0.056,-0.004l0.12,-0.186l-0.004,-0.302l-0.088,-0.19l0.032,-0.097l0.144,-0.019l0.13,0.047l0.023,0.106l0.046,-0.014v-0.102l-0.055,-0.102l-0.2,-0.079l-0.181,-0.181l0.01,-0.074l0.106,-0.018l0.26,-0.121l0.162,-0.005l0.084,-0.12l0.07,-0.019l0.078,0.042l0.042,-0.028l-0.093,-0.07l-0.116,0.005l-0.102,0.093l-0.204,0.005l-0.097,0.065l-0.45,-0.01l-0.084,-0.069l0.023,-0.205l0.256,-0.287l0.125,-0.232l-0.042,-0.028l-0.139,0.032l-0.241,0.232l-0.223,0.107l-0.139,-0.014l-0.293,-0.158l-0.055,-0.083l-0.158,-0.158l-0.037,-0.213l-0.074,-0.028l-0.065,0.042l-0.005,0.116l-0.088,0.111l-0.051,0.241l-0.042,0.065l0.037,0.191l0.074,0.125l0.005,0.125l-0.088,0.144l0.009,0.046l0.167,0.051v0.065l-0.232,0.135l-0.204,0.009l-0.362,-0.134l-0.315,-0.302l-0.028,-0.144l0.079,-0.12l0.093,0.004l0.037,-0.032l-0.07,-0.042l-0.134,0.009l-0.237,0.237l-0.07,0.107l-0.102,0.004l-0.162,-0.139l-0.014,-0.176l-0.111,-0.116l-0.418,0.023l-0.209,-0.102l-0.074,-0.102l-0.636,-0.293l-0.055,-0.213l0.027,-0.26l0.07,-0.176l-0.023,-0.204l-0.153,-0.181l-0.246,-0.13l-0.112,-0.209l0.042,-0.199l-0.051,-0.214l-0.185,-0.195l-0.047,-0.329l0.074,-0.125l0.047,-0.181l0.213,-0.348l0.098,-0.089l0.044,-0.075l0.044,-0.249l-0.032,-0.01l-0.117,0.172l-0.004,0.097l-0.042,0.065l-0.07,0.033l-0.111,0.199l-0.051,0.005l-0.06,-0.102l-0.038,-0.4l-0.213,-0.259l-0.125,-0.069l-0.033,-0.103l0.135,-0.496l-0.014,-0.079l-0.125,-0.172l-0.033,0.019l0.084,0.181l0.009,0.107l-0.121,0.264l-0.097,0.07l-0.223,0.093l-0.093,-0.005l-0.069,-0.098l0.009,-0.106l0.102,-0.167l-0.028,-0.042l-0.041,0.009l-0.089,0.139l-0.009,0.158l0.079,0.139l0.084,0.051l0.037,0.07l0.018,0.13l0.19,0.283l0.014,0.135l-0.055,0.046l-0.116,-0.005l-0.144,-0.139l-0.204,-0.06l-0.084,-0.084l-0.004,-0.139l-0.144,-0.297l0.032,-0.074l0.172,-0.098l0.018,-0.134l-0.055,-0.107l-0.037,0.014l0.028,0.079l-0.024,0.111l-0.106,0.065l-0.093,-0.014l-0.125,-0.12l-0.042,-0.195l0.032,-0.07l-0.032,-0.014l-0.051,0.042l-0.028,0.204l0.028,0.102l0.12,0.153l0.065,0.492l0.065,0.209l0.209,0.111l0.13,0.14l-0.005,0.074l-0.157,0.079l-0.274,0.028l-0.19,-0.038l-0.427,0.019l-0.005,-0.074l0.084,-0.084l-0.01,-0.046l-0.134,0.037l-0.116,0.153l-0.084,0.009l-0.093,-0.023l-0.074,-0.144l-0.014,-0.227l0.047,-0.056l0.093,-0.041l0.046,-0.121l0.353,-0.241l0.041,-0.079l-0.046,-0.005l-0.051,0.06l-0.288,0.163l-0.102,0.023l-0.102,-0.111l0.019,-0.149l0.069,-0.162l0.07,-0.033l0.107,0.01l0.055,-0.047l0.093,-0.185l-0.051,-0.126l0.014,-0.264l0.046,-0.079v-0.167l0.042,-0.056l0.251,-0.023l0.1,-0.173l-0.006,-0.155l-0.149,-0.148l-0.006,-0.118l0.093,-0.136l0.21,-0.031l0.025,-0.074l-0.037,-0.099l0.025,-0.056l0.08,-0.024l0.112,-0.18l0.074,-0.037l0.012,-0.062l-0.049,-0.068l0.037,-0.068l0.099,-0.019l0.105,-0.167l-0.012,-0.111l0.031,-0.111l0.092,-0.056l0.062,-0.105l0.21,-0.093l0.254,-0.476l-0.062,-0.248l0.019,-0.42l0.124,-0.26l0.105,-0.396l-0.093,-0.149l0.043,-0.29l0.155,-0.13l0.068,-0.174l0.266,-0.377l0.012,-0.192l-0.148,-0.309l-0.365,-0.328l-0.025,-0.124l0.087,-0.037l0.13,-0.222l-0.007,-0.099l0.031,-0.075l0.085,-0.094l-0.012,-0.124l-0.099,-0.031l-0.136,0.019l-0.031,-0.111l0.105,-0.093l0.019,-0.074l0.253,-0.124l0.124,-0.266l0.192,-0.068l0.68,-0.545l0.031,-0.086l0.662,-0.607l0.081,-0.204l0.29,-0.253l0.328,-0.099l0.31,-0.52l0.136,-0.173l0.08,-0.384l0.056,-0.037l0.161,0.068l0.266,0.155h0.129l0.056,-0.39l0.068,-0.049l0.031,-0.304l0.068,-0.154l0.279,0.055l0.142,-0.012l0.322,-0.167l0.043,-0.309l0.08,-0.068l0.217,0.086l0.068,-0.037l0.093,0.019l0.043,0.055l0.186,0.013l0.099,-0.05l0.16,-0.637l0.143,-0.383l0.055,-0.044l0.025,-0.074l-0.056,-0.056l0.056,-0.321l-0.006,-0.093l0.08,-0.198l0.136,-0.013l0.13,0.075l0.279,0.006l0.216,-0.149l0.359,-0.365l0.309,-0.259l0.106,-0.068l0.043,-0.093l0.086,-0.025l0.749,-0.73l0.118,0.025l0.055,0.099l-0.024,0.093l0.068,0.136l-0.013,0.278l0.266,0.328l1.633,-0.186l0.093,0.105l0.081,-0.006l0.061,-0.086l0.155,-0.05l0.112,-0.124l0.129,-0.55l-0.006,-0.452l0.081,-0.42l0.062,-0.019l0.105,0.08l0.049,0.26l-0.043,0.204l0.124,0.161l0.173,0.05l0.099,-0.037l0.111,0.031l0.043,0.148l0.353,0.223l0.105,0.154l0.118,0.056l0.086,-0.037l0.39,0.173l0.013,0.13l-0.155,0.279l-0.031,0.185l0.117,0.204l0.242,0.124l0.055,0.161l0.099,0.056l0.062,-0.025l0.081,0.037l0.031,0.346l0.198,0.136l0.278,0.013l0.272,-0.155h0.211l0.216,0.279l-0.043,0.395l0.037,0.576l0.136,0.031l0.08,-0.081l0.075,0.025l-0.007,0.087l0.112,0.068l0.229,-0.05l0.055,-0.142l0.143,-0.025l0.111,0.081l0.111,-0.007l0.044,-0.061l0.142,-0.007l0.229,0.186l0.198,0.012l0.068,-0.123l0.421,-0.062l0.061,-0.149l-0.074,-0.173v-0.105l0.223,-0.05l0.198,0.05l0.124,-0.025l0.173,-0.322l0.117,-0.099l0.019,-0.092l-0.043,-0.068l0.055,-0.174l0.161,-0.08l0.043,-0.105l-0.086,-0.167l0.025,-0.118l0.099,-0.099l-0.019,-0.179l-0.148,-0.093l-0.05,-0.124l0.148,-0.29l0.149,-0.019l0.118,-0.285l0.012,-0.148l0.074,-0.087l0.149,-0.024l0.334,-0.254l0.074,-0.093l0.142,-0.049l0.167,0.074l0.105,-0.05l0.025,-0.148l0.124,-0.068l0.105,0.074l0.074,-0.018l0.006,-0.081l0.087,-0.025l0.161,0.019l0.087,-0.111l-0.143,-0.285l-0.012,-0.458l0.105,-0.136l-0.012,-0.117l-0.136,-0.019l-0.044,-0.099l0.235,-0.346l-0.018,-0.161l0.105,-0.192l0.13,-0.043l0.099,-0.075l0.018,-0.222l-0.074,-0.118l-0.012,-0.13l0.093,-0.123l0.167,-0.038l0.111,-0.105l0.292,-0.066l0.062,-0.112l-0.099,-0.111l-0.049,-0.792l0.086,-0.124l0.273,-0.445l0.08,-0.263l0.599,-0.7l0.009,-0.075l0.065,-0.106h0.065l0.093,-0.084l-0.019,-0.111l0.135,-0.167l-0.079,-0.167l0.004,-0.358l-0.074,-0.246l0.062,-0.136l0.111,-0.074l0.112,-0.185l0.099,-0.099l-0.037,-1.368l0.031,-0.161l0.061,-0.142l0.007,-0.105l0.086,-0.049l0.186,0.024l0.055,0.081l0.081,0.037l0.117,-0.056l0.007,-0.111l0.235,-0.192l0.216,-0.074l0.006,-0.062l0.044,-0.056l0.123,0.013l0.093,-0.044l0.093,-0.21l-0.105,-0.192v-0.192l-0.062,-0.061l0.037,-0.062l0.186,-0.031l0.099,-0.105l0.123,-0.013l0.254,0.099l0.05,0.093l0.284,0.148h0.081l0.055,-0.055l-0.055,-0.099l0.03,-0.13l0.062,-0.019l0.062,0.013l0.056,-0.019l0.049,-0.062l0.211,-0.012l0.161,-0.13l0.068,-0.217l-0.025,-0.136l0.062,-0.247l0.074,-0.019l0.068,0.019l0.136,0.006l0.093,0.062l0.086,0.006l0.044,-0.049l-0.013,-0.106l0.038,-0.098l0.086,-0.044l0.037,-0.142l0.05,-0.074v-0.068l-0.074,-0.025l-0.031,-0.093l0.043,-0.068l0.012,-0.062l-0.049,-0.037l0.006,-0.062l0.074,-0.012l0.019,-0.074l-0.074,-0.025l-0.007,-0.093l0.05,-0.056l0.049,-0.29l0.285,-0.31l0.204,-0.612v-0.149l-0.068,-0.111l0.025,-0.217l0.086,-0.142v-0.105l0.093,-0.192l0.013,-0.204l-0.056,-0.099l0.018,-0.161l0.075,-0.099l0.006,-0.068l-0.081,-0.068l-0.099,-0.012l-0.092,0.049l-0.106,-0.018l-0.092,-0.074l0.006,-0.062l0.08,-0.031l0.075,-0.118l0.352,-0.148l0.241,-0.254l0.025,-0.087l0.05,-0.037l0.074,-0.006l0.26,-0.216l0.328,-0.05l0.043,-0.062l0.087,-0.018l0.098,0.006l0.279,-0.087l0.173,-0.105l0.186,-0.056l0.105,-0.154l0.086,-0.545l-0.049,-0.061l0.012,-0.069l0.081,-0.061l0.086,-0.273l-0.024,-0.092l0.049,-0.192l0.241,-0.316v-0.099l-0.222,-0.086l-0.143,-0.099l-0.031,-0.316l0.279,-0.222l0.018,-0.266l-0.228,-0.13l0.024,-0.248l0.322,-0.155l-0.037,-0.136l0.099,-0.229l0.204,-0.086l0.105,0.037l0.26,-0.05l0.019,-0.086l0.055,-0.025l0.155,0.105l0.062,-0.055l-0.075,-0.136l0.031,-0.062h0.118l0.099,-0.087l0.043,-0.124l0.093,-0.031l0.105,-0.092l0.019,-0.081l-0.031,-0.049l0.006,-0.081l0.118,-0.198l0.006,-0.123l0.142,-0.279l0.025,-0.272l-0.124,-0.179l-0.031,-0.341l0.05,-0.068l0.018,-0.111l0.105,-0.031l0.013,-0.062l-0.075,-0.08l0.031,-0.068l0.174,0.012l0.13,-0.049l0.037,-0.075l-0.062,-0.111l-0.093,-0.08l0.031,-0.081l0.006,-0.117l-0.08,-0.075l0.006,-0.142l0.086,-0.012l0.019,-0.211l0.056,-0.062v-0.055l-0.05,-0.037l0.006,-0.099l0.186,-0.025l0.099,-0.093l-0.012,-0.068l0.049,-0.142l0.093,-0.05l0.043,-0.179l-0.055,-0.118l0.049,-0.117l0.136,-0.025l0.062,-0.21l0.13,-0.019l0.099,-0.111l0.068,-0.378l-0.093,-0.105l-0.012,-0.13l0.08,-0.049l0.062,-0.074v-0.099l0.05,-0.081l0.148,0.013l0.204,-0.025l0.043,-0.087l-0.006,-0.099l0.13,-0.216l0.087,-0.025l0.167,-0.167l0.031,-0.111l0.099,-0.136v-0.081l0.086,-0.105l0.087,-0.025l0.062,-0.086v-0.068l0.037,-0.062l0.068,-0.013l0.111,-0.173v-0.099l0.118,-0.216l0.012,-0.198l0.087,-0.075l0.148,0.037l0.075,0.05l0.371,0.124l0.068,0.062l0.08,0.012l0.05,-0.037l0.074,0.012l0.148,0.136l0.205,0.037l0.099,0.044l0.105,-0.019l0.055,-0.068l0.106,-0.037l0.092,-0.21l0.124,-0.081l0.161,-0.031l0.408,-0.222l0.539,-0.415l0.037,-0.105l0.092,-0.043l0.112,0.006l0.117,-0.044l0.223,-0.259l0.13,-0.075l0.167,-0.024l0.309,-0.143l0.13,-0.105l0.031,-0.167l0.118,-0.185l0.055,-0.254l-0.043,-0.303l-0.105,-0.056l-0.186,-0.247l-0.315,-0.099l-0.006,-0.081l0.117,-0.037l0.291,-0.272l0.018,-0.124l-0.055,-0.086l-0.006,-0.211l0.055,-0.074l0.006,-0.08l-0.055,-0.044l0.012,-0.074l0.112,-0.093l0.055,-0.266l0.124,-0.161l-0.006,-0.074l-0.118,-0.173v-0.167l-0.08,-0.142l0.049,-0.124l0.167,-0.05l0.006,-0.061l-0.074,-0.019l-0.024,-0.124l0.086,-0.105l0.012,-0.148l0.137,-0.13l0.006,-0.093l-0.105,-0.192l-0.124,-0.006l-0.149,0.068l-0.086,-0.043l0.025,-0.062l-0.106,-0.155l-0.229,-0.031l-0.061,-0.099l0.061,-0.068l-0.08,-0.142l-0.179,-0.111l-0.025,-0.087l0.037,-0.043l-0.012,-0.087l-0.13,-0.025l-0.279,-0.204l-0.229,-0.056l-0.266,0.05l-0.167,-0.012l-0.105,-0.062l-0.136,0.006l-0.074,0.062l-0.093,-0.006l-0.062,-0.062h-0.167l-0.136,0.049l-0.148,-0.012l-0.254,-0.303v-0.081l0.062,-0.068l0.012,-0.111l-0.055,-0.062l-0.007,-0.105l0.118,-0.18l0.021,-0.25l-0.806,-3.621z"/>
</svg>
