<svg xmlns="http://www.w3.org/2000/svg" viewBox="1834.207 616.161 15.922 13.710">
  <path d="M1848.585322,620.542075l0.021071,0.246498l-0.031606,0.065964l-0.1791,0.121513l-0.045653,0.069436l-0.045653,0.180534l-0.168565,0.090267h-0.207194l-0.098329,0.031246 l-0.115888,0.197893v0.093739l0.063212,0.190949 l-0.038629,0.124985l-0.070235,0.041662h-0.151006l-0.056188,0.111098l0.049165,0.124985l-0.175588,0.458278l-0.1194,0.111098l-0.154518,0.430504l0.007024,0.388842l-0.063212,0.17359l-0.168565,0.062492l-0.147494,0.368011l-0.042141,0.708248l0.154518,0.611037l-0.063212,0.124985l-0.081941,0.032403l-0.234118,0.009258l-0.126424,0.078694l-0.140471,0.240712l-0.063212,0.354124l-0.053847,0.071751l-0.065553,0.018516l-0.091306,-0.069436h-0.323083l-0.2388,0.062492l-0.170906,-0.011573l-0.17793,0.037033l-0.311377,0.210623l-0.1194,0.201365l-0.1194,0.09721l-0.287965,0.124985l-0.161541,0.243026l-0.168565,0.680473l-0.175588,0.305519l-0.220071,0.081009l-0.135788,-0.032403l-0.241141,-0.180534l-0.306694,-0.037033l-0.131106,0.023145l-0.369906,0.201365l-0.084282,0.02546l-0.060871,-0.037033l0.025753,-0.099525l-0.030435,-0.034718l-0.112377,-0.013887l-0.135788,0.018516l-0.163882,0.168961l-0.203682,0.409673v0.131929l0.112377,0.263857v0.17359l-0.203682,0.24997l-0.098329,-0.013887l-0.007024,-0.17359l-0.056188,-0.07638l-0.266894,0.013887l-0.189635,0.145816l-0.035118,0.236083l-0.063212,0.057863l-0.175588,0.011573l-0.053847,-0.039347l0.037459,-0.129614l-0.004682,-0.081009l-0.133447,-0.118041h-0.203682l-0.175588,0.187477l-0.1194,-0.006944v-0.111098l0.135789,-0.134244l0.014189,-0.076222l-0.072719,-0.171433l-0.320879,-0.131679l-0.145016,-0.018766l-0.309035,0.027774l-0.095988,-0.023145l-0.098329,-0.090267l-0.245824,-0.041662l-0.4776,0.048605l-0.220071,0.111098l-0.145153,-0.013887l-0.112377,-0.060178l-0.070235,-0.071751l0.014047,-0.166647l-0.070235,-0.108783l-0.189635,-0.106469l-0.236459,-0.05092l-0.179275,0.008369l-0.20936,0.049495l-0.161541,-0.034718l-0.168565,-0.256913l-0.105353,-0.062492l-0.498671,-0.062492l-0.091306,-0.048605l-0.046824,-0.166647l-0.131106,-0.120356l-0.229435,-0.094896l-0.414388,-0.062492l-0.302012,-0.104154l-0.074918,-0.113412l-0.002341,-0.185163l0.170906,-0.421245l0.028094,-0.342551l-0.051506,-0.458278l-0.196659,-0.479109l-0.259871,-0.17359l-0.042141,-0.145816l0.175588,-0.236083l0.063212,-0.32635l-0.063212,-0.24997v-0.284688l-0.175588,-0.513827l0.042141,-0.166647l0.255188,-0.293946l0.032776,-0.108783l-0.042141,-0.24997l-0.156859,-0.127299l-0.063212,-0.143501l0.016388,-0.270801l0.206024,-0.205994l0.032776,-0.085638v-0.187477l0.074918,-0.131929l0.100671,-0.057863l0.3582,-0.032403l0.126424,-0.083323l0.189635,-0.215252l0.210706,-0.17359l0.351177,-0.145816l0.568906,-0.486052l0.161541,-0.243026l0.182612,-0.118041l0.266894,-0.069436l0.632118,-0.284688l0.224753,-0.145816l0.103012,-0.127299l0.008435,-0.1362l0.036048,-0.104512l0.175588,-0.064807l0.175588,-0.011573l0.086624,0.02546l0.103012,0.157388l0.060871,0.023145l0.026924,-0.046291l-0.017559,-0.092581l-0.024582,-0.035875l-0.172077,-0.102997l-0.009365,-0.078694l0.168565,-0.037033l0.028094,-0.166647l-0.071406,-0.072908l-0.084282,-0.010415l-0.214218,0.104154l-0.088965,0.099525l-0.135788,0.202522l-0.056188,0.033561h-0.173247l-0.055018,-0.05092l-0.080771,-0.282373l0.028094,-0.116884l0.063212,-0.07638l0.1194,-0.07638l0.074918,-0.059021l0.047994,-0.121513l0.077259,-0.069436l0.182612,-0.059021l0.038629,-0.064807l0.014047,-0.152759l0.060871,-0.055549l0.135788,0.009258l0.042141,-0.041662l0.014047,-0.087952l0.052676,-0.026617l0.073747,0.031246l0.063212,0.052077l0.007024,0.059021l-0.035674,0.038208l-0.002955,0.031229l0.071406,0.05092l0.065553,-0.005786l0.126424,-0.07638l0.112377,0.013887l0.094818,0.059021l0.055018,0.115727l0.103012,0.05092l0.08608,-0.025688l0.068438,-0.057636l0.105353,0.006944l0.0398,0.016202l0.051506,0.134243l0.126424,0.060178l0.105353,-0.023145l0.098329,-0.062492h0.063212l0.018729,0.02546l-0.065553,0.074065l0.015218,0.028932l0.049165,-0.013887l0.147494,-0.083323l0.035118,-0.065964l-0.041203,-0.037206l-0.148433,-0.028758l-0.062041,-0.049763l-0.023412,-0.208308l0.088965,-0.266172l0.203682,-0.194421l0.325424,-0.157388l0.387465,-0.085638l0.223582,-0.011573l0.128765,0.053234l0.160371,0.187477l0.08497,0.030512l0.146806,0.000734l0.070235,0.03819l0.007024,0.083323l0.055018,0.039347l0.070235,-0.032403l0.018729,-0.194421l0.060871,-0.027774l0.060871,0.055549l0.032776,0.17359l0.161541,0.020831l0.070235,-0.083323l0.049165,-0.131929l0.098329,-0.07638l0.168565,-0.034718l0.140471,0.013887l0.042141,0.145816l0.084282,0.124985l0.147494,0.062492h0.161541l0.052419,-0.044274l0.066981,-0.094598l0.147494,-0.083323l0.302012,-0.048605l0.140471,-0.09721l0.189635,-0.368011l0.112377,-0.104154l0.259871,0.020831l0.210706,0.17359l0.2388,0.048605l0.21773,-0.124985l0.007024,-0.180534l0.063212,-0.069436l0.154518,-0.048605l0.161541,-0.013887l0.084282,0.090267l0.744495,0.402729l0.224753,0.020831l0.077259,0.048605l0.045653,0.190949l0.085453,0.033561l0.046824,-0.087952l0.067894,-0.049763l0.063212,0.017359l-0.028094,0.152759l0.037459,0.273115l0.107694,0.143501l0.093647,0.074065l0.070235,-0.027774l0.028094,-0.19905l-0.091306,-0.451334l-0.084282,-0.09721l-0.182612,-0.062492l-0.084282,-0.145816l0.073747,-0.177062l-0.020587,-0.080457l0.017075,-0.082717l0.1194,-0.107626l0.108865,-0.027774l0.168565,0.041662l0.091306,-0.013887l0.151006,-0.142344l-0.007024,-0.159703l0.049165,-0.031246l0.070235,0.031246l0.108865,0.166647l0.031606,0.312462l0.121741,0.217566l0.292647,0.226824l0.252847,0.083323l0.309035,0.118041l0.323083,-0.048605l0.098329,-0.104154l0.077259,0.027774l0.140471,0.298575l0.028094,0.263857l0.184594,0.56407l0.026112,0.22403l0.004682,0.60988l0.060871,0.185163l0.124082,0.118041l0.049165,0.194421l0.070235,0.083323l-0.004682,0.039347l-0.056188,0.004629l-0.156859,-0.071751l-0.147494,0.034718l-0.189635,0.243026l-0.27743,0.177062l-0.105867,0.1024l-0.18561,0.262139l-0.045653,0.003472l-0.094818,-0.052077l-0.049165,-0.194421l-0.091306,-0.111098l-0.014047,-0.166647l0.1194,-0.062492l0.140471,0.03819l0.070235,-0.010415l0.058973,-0.063161l0.028821,-0.072239l-0.014047,-0.1354h-0.035118l-0.049165,0.09721l-0.028094,0.027774l-0.235288,0.03819l-0.091306,-0.003472l-0.151006,-0.03819l-0.073747,0.010415l-0.021071,0.062492l0.105353,0.170118l0.073747,0.031246l0.1791,0.298575l0.003512,0.090267h-0.042141l-0.066724,-0.052077l-0.052676,0.013887l-0.045653,0.09721Z M1846.305194,616.467358l-0.042229,-0.025132l-0.205917,0.024986l-0.017569,0.041802l0.095712,0.013077l0.170003,-0.054732Z M1844.862548,616.828204l-0.018615,-0.064409l-0.074458,-0.023003l-0.004654,0.050607l0.055844,0.059809l0.041883,-0.023003Z M1846.960069,616.736409l0.005672,0.020847l0.02894,-0.003738v-0.021997l-0.019778,-0.012221l-0.014833,0.017109Z M1846.949114,616.865068l0.024722,0.009776l0.014833,-0.009776l-0.004944,-0.024441h-0.024722l-0.009889,0.024441Z M1846.909353,617.087881l-0.007417,0.031773l0.027195,0.012221l0.042028,-0.009776v-0.026885l-0.029667,-0.017109l-0.032139,0.009776Z M1846.94458,617.254274l-0.006276,-0.065961l-0.042141,-0.006944l-0.014047,0.041662l0.028094,0.048605l0.03437,-0.017363Z M1846.464259,626.507653l0.060653,0.004474l-0.017912,-0.115733l-0.073468,-0.084549l-0.04843,-0.024248l-0.009109,0.093312l0.088265,0.126743Z M1839.202964,629.467328l-0.030624,-0.063716l-0.032095,-0.05963l-0.026273,-0.004637l-0.007274,0.084915l0.034897,0.058313l0.042807,0.010453l0.018562,-0.025698Z M1846.991487,625.458287l0.024722,0.009776l0.014833,-0.009776l-0.004944,-0.024441h-0.024722l-0.009889,0.024441Z M1845.616709,626.623517l-0.009307,0.02147l0.018615,0.015336l0.027922,-0.018403l-0.006205,-0.02147l-0.031024,0.003067Z M1844.56483,627.051154l-0.012943,0.017253l0.02225,0.012221l0.024722,-0.007332l0.007417,-0.019553l-0.041446,-0.002588Z M1841.025457,629.52251l0.01241,0.04294l0.049639,0.006134l0.006205,-0.04294l-0.024819,-0.024537l-0.043434,0.018403Z M1839.412846,629.527115l-0.007417,0.031773l0.027195,0.012221l0.042028,-0.009776v-0.026885l-0.029667,-0.017109l-0.032139,0.009776Z M1841.725463,628.924272h0.037084l0.014833,-0.029329l-0.029667,-0.029329l-0.051917,0.002444l-0.009889,0.031773l0.039556,0.024441Z "/>
</svg>
