<svg xmlns="http://www.w3.org/2000/svg" viewBox="1634.634 499.214 136.921 66.903">
  <path d="M1652.093908,545.686311l0.037,0.098l0.084,0.06l0.078,0.107l0.093,0.046l0.014,0.06l-0.023,0.107l0.014,0.135l0.028,0.06l0.083,0.014l0.051,0.07l-0.004,0.078l-0.065,0.126l0.009,0.055l0.134,0.116l0.047,0.075l0.19,0.079l0.204,-0.01l0.065,-0.06l0.07,0.005l0.102,0.078l0.148,-0.009l0.07,-0.037v-0.051l-0.074,-0.037l-0.005,-0.037l0.204,-0.079l0.028,-0.098l0.065,-0.078l0.023,-0.163l-0.023,-0.153l-0.19,-0.199l0.018,-0.047l0.228,-0.032l0.111,0.004l0.079,0.037l0.074,-0.009l0.023,-0.079l0.084,-0.092l0.102,-0.038l0.074,-0.097l0.107,-0.074l0.023,-0.075l-0.028,-0.064l0.023,-0.168l0.084,-0.055l0.051,-0.112l-0.023,-0.041l-0.047,-0.014l-0.004,-0.056l0.097,-0.069v-0.061l-0.125,-0.051l-0.014,-0.046l0.023,-0.065l-0.023,-0.195l0.023,-0.046l0.088,0.004l0.056,-0.042v-0.055l-0.116,-0.061l-0.032,-0.055l0.014,-0.079l0.041,-0.051l0.102,-0.005l0.047,0.028l0.074,0.005l0.172,0.097l0.041,0.074l0.102,0.065l0.177,0.033l0.083,0.037l0.121,0.018l0.032,-0.032l-0.037,-0.051l0.01,-0.139l0.041,-0.051l0.014,-0.116l0.051,-0.005l0.218,0.088h0.065l0.065,-0.051l0.014,-0.06l-0.023,-0.07l0.023,-0.032h0.093l0.232,0.116l0.13,0.023l0.111,0.07l0.112,0.018l0.032,0.023l0.023,0.07l0.112,0.056l0.139,0.032l0.102,-0.009l0.148,0.014l0.102,0.069l0.13,0.01l0.065,-0.028h0.065l0.088,0.055l0.056,0.07l0.176,0.06l0.181,0.014l0.079,-0.041l0.061,0.037l0.009,0.06l0.144,0.107l0.097,0.014l0.065,-0.038l0.028,-0.097l0.051,-0.009l0.051,0.028l0.139,0.023l0.051,-0.019l0.033,-0.088l0.065,-0.046l0.083,0.014l0.019,0.032l0.037,0.023l0.065,-0.004l0.046,0.037v0.065l0.098,0.19v0.06l-0.061,0.033l-0.027,0.102l0.032,0.06l-0.005,0.07l-0.06,0.018l-0.046,0.098l0.009,0.074l0.065,0.042l0.093,0.009l0.051,0.037v0.079l0.069,0.088l0.084,0.042l0.088,-0.028l0.07,0.005l0.046,0.046l-0.032,0.102l-0.042,0.051l0.004,0.037h0.084l0.069,0.047v0.046l-0.125,0.084l-0.065,0.055l0.005,0.037l0.065,0.038l-0.005,0.097l-0.028,0.074l-0.055,0.005l-0.028,0.037l0.037,0.093l0.06,0.014l0.047,-0.023l0.092,0.004l0.13,0.028h0.084l0.06,-0.065l0.061,0.009l0.027,0.047l0.075,0.028l0.065,0.004l0.041,0.023l0.024,0.084l0.092,0.042l0.07,-0.005l0.056,-0.046l0.074,0.004l0.065,0.047l0.023,0.055l0.088,0.065l0.033,0.065l0.046,0.014l0.046,-0.023l0.01,-0.065l0.041,-0.019l0.084,0.019l0.13,0.111l0.028,0.07l0.06,0.056l0.056,0.004l0.093,0.065l0.083,-0.004l0.051,0.037l0.014,0.069l0.102,0.088l0.074,0.028l0.079,-0.032l0.061,-0.107l0.069,-0.009l0.121,0.051l0.065,0.06l0.023,0.116l0.037,0.061l0.111,0.064l0.089,0.135l0.046,0.037l0.237,0.113l0.006,0.05l-0.047,0.058l-0.088,0.033l-0.004,0.046l0.083,0.028h0.093l0.074,-0.032l0.116,-0.014l0.074,-0.07l0.093,-0.005l0.07,0.089l0.069,0.018l0.051,0.037l0.037,0.121l-0.037,0.088l-0.116,0.074l-0.074,-0.004l-0.037,0.032l-0.005,0.056l-0.041,0.079l0.009,0.06l0.06,0.009l0.084,-0.042l0.102,-0.023l0.134,0.01l0.075,0.055l0.009,0.07l0.037,0.06l0.014,0.098l0.204,0.052h0.13l0.028,0.033l-0.028,0.074l0.014,0.056l0.065,0.046l0.079,-0.005l0.097,0.042h0.074l0.107,-0.046l0.019,-0.056l0.037,-0.023l0.102,0.014l0.069,-0.033l0.103,0.01l0.088,0.074v0.046l-0.028,0.042l0.005,0.056l0.085,0.06l0.088,-0.017l0.051,-0.023l0.06,-0.005l0.037,0.023h0.047l0.051,-0.046l0.041,0.009l0.024,0.06l0.102,0.07l0.065,0.111l0.041,0.042l0.089,0.023l0.041,0.033l0.01,0.069l0.078,0.056l0.056,0.009l0.019,-0.051l0.12,-0.041l0.051,-0.056l0.042,-0.009l0.037,0.051h0.037l0.042,-0.033l0.074,0.009l0.047,0.065l0.004,0.121l0.075,0.028l0.074,-0.014l0.014,-0.065l0.042,-0.042l0.111,0.023l0.056,0.033l0.001,0.11l0.079,0.045l0.176,-0.013l0.056,0.019l0.031,0.034l0.053,0.012l0.046,0.028l-0.003,0.04l-0.025,0.028l-0.077,0.006l-0.062,-0.018l-0.019,0.021l0.016,0.034l-0.006,0.059l0.074,0.096l0.003,0.056l-0.012,0.046l0.021,0.053l0.05,0.04l0.046,0.009l0.028,-0.031h0.04l0.034,0.022l0.047,-0.003l0.043,-0.037h0.052l0.149,0.086l0.022,0.031l-0.007,0.081l-0.027,0.024l-0.007,0.075l0.09,0.083l0.068,0.013l0.019,0.017l-0.037,0.046l0.055,0.107l0.07,0.037h0.172l0.051,0.028v0.046l0.032,0.06l0.005,0.126l-0.047,0.046l-0.009,0.093l0.042,0.069l0.102,0.061l0.056,0.041l0.013,0.116l-0.027,0.103l0.009,0.078l0.144,0.186l0.051,0.009l0.041,-0.032h0.052l0.032,0.051l0.014,0.06l0.06,0.051l0.079,0.023l0.037,0.093l-0.014,0.093l0.01,0.07l0.12,0.102l0.074,0.023l0.098,-0.019l0.046,0.028l-0.004,0.047l0.051,0.088l0.088,0.037l0.102,-0.028l0.042,0.014l0.028,0.06l0.097,0.07h0.065l0.009,-0.056l0.088,-0.069l0.028,-0.061l-0.032,-0.097l0.018,-0.047l0.084,-0.018l0.116,-0.065l0.13,-0.172l0.032,-0.014l0.07,0.005l0.13,-0.014l0.074,0.014h0.065l0.023,-0.033l0.051,-0.004l0.051,0.014l0.098,-0.042l0.009,-0.065l-0.033,-0.088l0.01,-0.06l0.065,-0.051l0.051,-0.103l0.055,-0.004l0.135,0.037l0.06,-0.014l0.005,-0.056l0.037,-0.028l0.074,-0.004l0.093,-0.047l0.097,-0.009l0.033,-0.032l0.25,0.051l0.052,-0.014l0.055,-0.065l0.125,0.004l0.098,0.065l0.005,0.047l-0.019,0.037l0.009,0.06l0.186,0.075l0.051,-0.005l0.009,-0.042l0.079,-0.037l0.079,0.014l0.018,0.046l0.056,0.033l0.084,-0.005l0.023,-0.042l0.056,-0.009l0.078,0.033l0.126,0.125l-0.01,0.042l-0.041,0.023l-0.01,0.102l0.038,0.051h0.069l0.07,0.042l0.051,0.004l0.028,-0.037h0.065l0.055,0.019h0.056l0.056,-0.019l0.074,-0.004l0.028,0.037l-0.028,0.046l0.014,0.093l-0.07,0.074h-0.056l-0.065,0.051l-0.046,0.121l0.028,0.046l0.005,0.056l-0.014,0.056l0.046,0.157l0.046,0.07l0.089,0.028l0.051,0.055l-0.014,0.13l-0.079,0.158l0.018,0.204l0.061,0.023l0.055,-0.037l0.112,-0.004l0.106,0.06l0.052,0.102l-0.005,0.098l-0.065,0.162l0.018,0.083l-0.018,0.084l-0.065,0.111l-0.046,0.274l0.027,0.139l0.051,0.037l0.112,0.01l0.065,-0.033h0.055l0.121,0.13l0.167,0.046l0.056,0.047l0.069,0.005l0.042,-0.047h0.056l0.055,0.06l0.061,0.014l0.046,-0.027l0.181,0.037l0.042,0.046l0.005,0.06l-0.042,0.061l0.042,0.027h0.102l0.083,0.052l0.005,0.037l-0.033,0.037l0.019,0.069l0.074,0.07l0.005,0.065l-0.051,0.088l0.014,0.033l0.065,0.009l0.037,0.032l0.028,0.061l0.051,0.032l0.046,-0.005l0.065,0.033l0.023,0.051l0.051,0.005l0.088,-0.07h0.065l0.051,0.028l0.093,-0.005l0.065,-0.051h0.051l0.009,0.047l0.089,0.055l0.129,0.005l0.093,0.018l0.126,0.01l0.078,0.051l0.051,0.083l0.028,0.087l0.078,0.056l0.049,0.08l0.161,0.059l0.025,0.04l-0.031,0.068l0.012,0.074l-0.022,0.065l0.041,0.034h0.049l0.05,0.025l0.028,0.053l0.061,0.031l0.22,0.04l0.148,0.046l0.421,0.235l0.065,-0.003l0.053,-0.052l0.089,-0.01l0.062,-0.046l0.121,-0.006l0.046,-0.037l0.105,-0.004l0.072,0.022l0.021,0.062l0.034,0.019l0.198,-0.075l0.065,-0.043v-0.028l-0.037,-0.018l-0.006,-0.028l0.022,-0.062l0.065,-0.034l0.058,-0.09l0.056,-0.037l0.133,-0.139l0.009,-0.043l0.019,-0.022l0.055,0.003l0.027,-0.02l-0.005,-0.037l0.023,-0.033l0.093,0.014l0.056,0.047l0.065,-0.005l0.028,-0.037l0.088,-0.047h0.083l0.084,0.061l0.032,0.069l0.107,0.13l0.065,0.023l0.13,-0.004l0.037,0.032l-0.023,0.033l0.009,0.032l0.051,0.019l0.009,0.056l-0.046,0.097l-0.079,0.046l-0.018,0.065l0.032,0.075l0.065,0.055l0.005,0.051l-0.024,0.042l0.014,0.158l-0.023,0.032l-0.074,-0.009l-0.047,0.032l0.005,0.056l-0.069,0.084l-0.019,0.12l-0.074,0.061h-0.107l-0.07,0.032l-0.088,0.158l0.01,0.083l0.074,0.075l0.004,0.181l0.051,0.139l-0.018,0.153l-0.074,0.111l0.004,0.084l0.07,0.051l0.134,0.037l0.13,0.005l0.107,0.032l0.06,0.005l0.079,-0.084l0.065,-0.005l0.204,0.14l0.07,0.143l0.046,0.019l0.047,-0.009l0.051,0.009l0.028,0.046l0.125,0.01l0.292,-0.102l0.051,0.018v0.07l0.042,0.028l0.074,0.004l0.056,0.033h0.046l0.181,-0.163l0.047,-0.069v-0.07l0.041,-0.06l0.121,-0.037l0.153,0.004l0.093,0.042l0.084,0.005l0.06,-0.023l0.097,0.009l0.088,0.032l0.144,0.102l0.084,0.028l0.102,-0.009l0.116,0.023l0.023,0.042l-0.019,0.079l0.047,0.199l0.042,0.028l0.181,-0.116l0.041,-0.088l0.098,-0.084l0.014,-0.051l-0.037,-0.041l0.009,-0.065l0.051,-0.061v-0.097l0.037,-0.051l0.056,-0.005l0.028,-0.069l-0.005,-0.121l0.046,-0.046l0.056,-0.019l0.079,0.009l0.051,0.089l0.028,0.129l0.051,0.056l0.014,0.056l-0.028,0.046l0.004,0.042l0.052,0.019l-0.005,0.143l-0.023,0.037l0.004,0.061l0.075,0.12l0.027,0.191l0.033,0.079l0.125,0.111l0.033,0.074l0.139,0.074l0.083,-0.027l0.051,0.018l0.005,0.047l0.065,0.06l0.079,0.009l0.051,0.037l0.014,0.084l0.065,0.065l0.069,0.111l-0.004,0.121l0.051,0.055l0.088,0.024l0.056,0.083l0.009,0.116l-0.037,0.13l0.037,0.097l0.065,0.024l0.051,0.046l0.042,0.093l0.065,0.06l0.102,0.06l0.055,0.079l0.037,0.024h0.052l0.032,0.027v0.075l-0.079,0.083l-0.102,0.167l-0.009,0.084l0.301,0.181l0.065,0.009l0.037,-0.009l0.047,0.009l0.055,0.042l0.149,0.023l0.074,0.028l0.056,-0.014l-0.019,-0.037l0.019,-0.033l0.065,-0.004l0.125,-0.079l0.111,-0.019l0.065,-0.028v-0.069l-0.051,-0.033l-0.055,-0.088v-0.07l-0.047,-0.153l-0.116,-0.204l-0.004,-0.056l0.051,-0.046v-0.037l-0.019,-0.06l0.005,-0.042l0.028,-0.056l0.004,-0.069l-0.06,-0.153l0.023,-0.052h0.06l0.112,0.024l0.06,-0.01l0.06,-0.069l0.01,-0.061l0.046,-0.078l0.111,-0.093l0.107,-0.037l0.028,-0.047l-0.023,-0.069l0.014,-0.07l0.037,-0.032l0.051,0.009l0.042,0.116l0.009,0.097l0.065,0.07l0.083,0.13l0.014,0.097l-0.037,0.042l-0.055,0.009l-0.033,0.088l0.079,0.242l0.056,0.083l0.004,0.065l-0.028,0.079l0.005,0.121l0.056,0.144l0.074,0.018l0.139,-0.028l0.149,0.005l0.083,0.056l0.042,0.078l0.06,0.065l0.065,-0.013l0.042,-0.07h0.051l0.005,0.093l0.041,0.065l0.047,0.009l0.046,-0.019l0.144,0.028l0.13,0.112l0.046,0.078l0.056,0.014l0.084,-0.004l0.051,0.028l0.041,-0.005l0.024,-0.037l0.055,-0.019l0.079,-0.102l0.005,-0.107l0.041,-0.051l0.126,-0.046h0.116l0.046,-0.023l-0.023,-0.037l0.005,-0.037l0.037,-0.024v-0.041l-0.037,-0.042l0.037,-0.223l0.051,-0.069l0.042,-0.126l0.037,-0.041l0.055,-0.019l0.107,-0.102v-0.033l-0.032,-0.027l-0.005,-0.042l0.042,-0.047l0.004,-0.046l-0.028,-0.056v-0.055l0.107,-0.024l0.149,0.079l0.041,0.061l-0.027,0.046l0.032,0.06l0.121,0.033l0.097,-0.005l0.074,-0.037l0.056,-0.102l0.121,-0.079l0.097,-0.018l0.241,0.027l0.093,0.065l0.056,0.089l0.06,0.037l0.005,0.046l-0.074,0.056l-0.042,0.111l0.088,0.079h0.056l0.065,0.019l0.009,0.055l0.069,0.051l0.098,-0.023l0.213,0.028l0.102,-0.06l0.121,0.027l0.042,0.107l0.093,0.074l0.171,0.051l0.107,0.089l0.014,0.088l0.042,0.041l0.273,0.038l0.061,-0.024l0.115,-0.01l0.032,-0.025l0.027,0.001l0.036,0.043l0.087,0.006l0.033,0.016l0.062,0.141l0.045,0.025l0.059,0.011l0.068,0.055l0.007,0.093l0.057,0.077l0.027,0.068l0.08,0.032l0.033,0.038v0.134l0.044,0.087l0.075,0.05l0.036,0.004l0.034,-0.016l0.041,-0.002l0.084,0.082l0.17,0.032l0.077,-0.001l0.045,-0.011l0.119,-0.005l0.036,0.021l0.025,-0.002l0.045,-0.098l0.053,-0.059l0.102,-0.064h0.074l0.178,0.039l0.056,0.034l0.014,0.048l0.079,0.056l0.062,0.001l0.093,-0.03l0.107,-0.004l0.065,-0.046l0.073,-0.064l0.131,-0.015l0.06,-0.041l0.063,-0.003l0.077,0.023l0.034,0.037l-0.015,0.052l-0.098,0.007l-0.057,0.031l-0.005,0.021l0.166,0.02l0.073,0.032l0.045,0.011l0.057,-0.009l0.193,-0.149h0.082l0.032,-0.017h0.07l0.093,0.025l0.05,-0.002l0.068,-0.066l0.02,-0.052l0.034,-0.045l0.061,0.002l0.03,0.023l0.061,0.009l0.052,0.047l0.032,0.13l-0.006,0.088l0.018,0.03l0.068,0.002l0.047,0.055l0.028,-0.002l0.032,-0.055l0.092,-0.048l0.003,-0.032l0.034,-0.025l0.123,-0.015h0.058l0.016,0.032l-0.04,0.063v0.072l0.022,0.041l0.048,0.005l0.129,-0.034h0.08l0.104,0.045h0.046l0.052,-0.045l0.006,-0.021l-0.018,-0.022l0.001,-0.023l0.065,-0.088l0.048,-0.012l0.025,-0.023l0.057,-0.129l0.033,-0.038l0.062,-0.026l0.009,-0.033l-0.02,-0.034l0.002,-0.046l0.036,-0.095l0.041,-0.057l0.093,-0.045l0.07,-0.08l0.06,-0.011l0.02,-0.025l-0.002,-0.088l0.049,-0.105l0.026,-0.004l0.05,0.034l0.038,0.002l0.039,-0.007l0.027,0.011l0.004,0.077l-0.034,0.037l0.003,0.029l0.034,0.021l0.032,0.079l0.034,0.009l0.034,-0.025h0.038l0.05,0.025h0.045l0.073,-0.038h0.179l0.044,0.049l0.081,-0.002l0.039,0.019l0.052,0.097l0.088,0.043l0.064,-0.002l0.079,-0.064h0.094l0.054,-0.016l0.027,-0.043h0.041l0.139,0.066l0.041,0.062l0.033,0.006l0.062,-0.056h0.061l0.032,0.041l0.009,0.102l0.038,0.043h0.101l0.092,-0.089l0.072,-0.009l0.008,-0.059l-0.07,-0.078l-0.043,-0.08l0.014,-0.065l0.075,-0.077l0.016,-0.049l-0.035,-0.051l0.006,-0.059l0.061,-0.061l0.043,-0.006l0.043,0.038l0.078,0.013l0.139,0.097l0.097,0.016l0.043,-0.013l0.008,-0.108l0.045,-0.035l0.067,-0.002l0.051,-0.03l0.048,-0.002l0.054,0.163l0.035,0.016l0.037,-0.024l0.022,-0.053l0.107,-0.019l0.022,-0.054l0.037,-0.013l0.081,0.008l0.048,-0.03l0.037,-0.056l0.038,-0.021l0.059,0.013l0.04,-0.016l0.035,-0.046l0.249,-0.024l0.054,0.054l0.062,0.024l0.112,-0.03l0.035,-0.102l0.105,-0.085l0.182,-0.041l0.07,-0.04l0.013,-0.078l0.043,-0.061l0.062,-0.043l0.035,-0.056l0.042,-0.003l0.059,0.067l0.153,0.07l0.086,0.008l0.056,-0.046l0.046,-0.281l0.038,-0.062l0.058,-0.003l0.043,0.035h0.059l0.089,-0.045l0.045,-0.135l0.035,-0.026l0.073,-0.003l0.051,-0.03h0.034l0.041,0.102l0.118,0.102l0.018,0.059l0.033,0.04l0.056,-0.002l0.027,-0.038h0.045l0.051,0.019l0.121,-0.003l0.07,0.03h0.061l0.078,-0.04l0.062,0.013l0.131,0.161l0.102,0.048l0.048,0.097l0.081,0.083l0.123,0.045l0.062,0.07l0.021,0.164l-0.019,0.08v0.193l-0.026,0.107l0.016,0.03l0.147,0.013l0.043,0.057l0.008,0.064l0.016,0.062l0.056,0.053l0.006,0.043l-0.019,0.046l0.003,0.061l0.051,0.075l-0.003,0.043l-0.029,0.035v0.083l-0.022,0.062l-0.134,0.086l-0.008,0.043l0.021,0.043v0.059l-0.04,0.214l0.008,0.081l0.062,0.04l0.008,0.067l-0.046,0.035l-0.008,0.093l-0.029,0.051l-0.089,0.049l-0.002,0.043l0.045,0.053l0.003,0.035l-0.03,0.035l0.003,0.035l0.027,0.035l0.005,0.099l-0.12,0.123l-0.046,0.008l-0.027,-0.027l-0.037,0.003l-0.046,0.134l0.03,0.062l-0.022,0.121l-0.029,0.064l-0.075,0.035l-0.014,0.04l0.014,0.043l-0.038,0.053l-0.054,0.003l-0.037,-0.019l-0.046,0.022l0.003,0.043l0.048,0.056l0.019,0.131l0.04,0.046l0.07,0.008l0.013,0.027l-0.029,0.032l-0.005,0.059l-0.033,0.08l-0.016,0.183l-0.021,0.064l0.032,0.105l0.07,0.069l0.003,0.083l0.045,0.055l0.046,0.011l0.002,0.019l-0.028,0.042l0.021,0.051l0.068,0.015l0.027,0.023l0.009,0.055l0.082,0.079l0.039,0.005l0.034,-0.026l0.061,-0.002l0.043,0.019l0.005,0.079l0.122,0.093l0.011,0.079l0.062,0.057l0.014,0.036l0.047,0.03l0.081,0.003l0.051,0.022l0.061,-0.068l0.064,0.007l0.083,0.118l0.1,0.086l0.057,-0.004l0.036,-0.05l0.114,-0.057l0.014,-0.064l-0.032,-0.104l-0.05,-0.011l-0.054,-0.053l-0.032,-0.211l-0.053,-0.097l-0.004,-0.053l0.082,-0.1l-0.028,-0.058l0.018,-0.075l0.05,-0.035l0.043,-0.1l0.003,-0.129l-0.032,-0.125l0.046,-0.043h0.065l0.075,-0.068h0.118l0.093,-0.05h0.114l0.082,-0.043l0.111,-0.014l0.072,-0.043l0.01,-0.09l0.065,-0.032h0.075l0.143,-0.086l0.082,-0.103l0.011,-0.058l-0.086,-0.117l-0.071,-0.029l-0.07,-0.097l0.016,-0.139l0.056,-0.054l0.008,-0.051l0.132,-0.112l0.067,-0.016l0.064,-0.067l-0.005,-0.051l0.026,-0.078l0.051,-0.04l0.025,-0.126l0.045,-0.038h0.078l0.083,-0.04l0.005,-0.035l-0.035,-0.019l0.003,-0.032l0.024,-0.027l0.003,-0.035l-0.048,-0.048l0.002,-0.061l0.025,-0.124l0.042,-0.027l0.035,-0.045l-0.002,-0.056l0.024,-0.027l0.056,0.01l0.113,-0.067l0.024,-0.056l-0.022,-0.048l0.022,-0.03l0.053,-0.005l0.167,-0.166l0.069,-0.019l0.092,0.016l0.048,-0.008l0.032,-0.059l0.123,-0.051l0.07,-0.005l0.03,-0.03l0.01,-0.037l0.038,-0.032l0.061,-0.033l0.059,-0.169l0.033,-0.048l0.051,-0.013l0.026,-0.032l-0.002,-0.049l0.056,-0.072l0.067,-0.019l0.035,-0.037l0.013,-0.073l0.067,-0.094l0.038,-0.15l-0.014,-0.061l0.017,-0.043l0.077,-0.022l0.024,-0.061l-0.061,-0.084l0.008,-0.037l0.072,-0.038l0.086,-0.139l0.064,-0.038l0.051,-0.077l0.03,-0.078l0.048,-0.027l0.099,0.024l0.054,-0.013l0.072,-0.083l0.014,-0.075l0.035,-0.046l0.061,0.005l0.048,-0.016l0.057,-0.107l0.094,-0.11l-0.003,-0.062l0.024,-0.04l0.078,-0.013l0.064,0.016l0.054,-0.005l0.043,-0.041l0.043,-0.002l0.051,0.018l0.123,-0.016l0.059,-0.075l0.094,0.003l0.198,0.072l0.051,-0.005l0.097,-0.099l0.059,-0.003l0.061,0.021l0.054,-0.005l0.072,-0.115v-0.054l-0.064,-0.059l0.019,-0.069l0.08,-0.03l0.038,-0.099l0.043,-0.003l0.026,0.048l0.051,0.003l0.041,-0.016l0.064,0.013l0.078,0.078l0.061,0.011l0.062,-0.027l0.051,0.016l0.013,0.062l0.132,0.115l0.018,0.07l0.065,0.067l0.072,0.003l0.057,-0.038h0.139l0.046,0.038h0.056l0.024,-0.038l0.07,-0.029l0.083,0.017l0.132,0.133l0.089,0.028l0.079,0.118l0.029,0.1l0.082,0.007l0.111,-0.139l0.107,-0.007l0.189,0.129l0.136,-0.004l0.043,-0.082l-0.032,-0.061l-0.029,-0.2l0.072,-0.036l0.218,0.029l0.114,0.096l0.004,0.082l0.132,0.111l0.072,0.007l0.129,-0.032l0.071,0.018l0.029,0.039l0.039,0.004l0.039,-0.064l0.072,-0.015l0.075,-0.064l0.039,0.004l0.025,0.042l0.079,0.022l0.068,0.057l0.128,0.218l0.126,0.1l0.064,0.093l0.039,0.129l0.05,0.046l0.086,0.004l0.064,-0.036l0.101,0.004l0.164,0.043l0.029,0.061l0.068,0.042l0.125,-0.007l0.089,-0.025l0.093,-0.082l0.068,-0.007l0.061,0.028l0.06,0.058l0.215,0.071l0.111,0.115l0.061,0.003l0.139,-0.129l0.179,-0.025l0.179,-0.071l0.05,-0.057l0.085,-0.032l0.058,-0.065l0.05,0.007l0.035,0.068l0.115,0.022l0.114,0.082l0.125,0.046l0.054,-0.025l0.046,0.008l0.022,0.05l0.071,0.003l0.083,-0.032l0.089,0.004l0.075,0.021l0.129,-0.025l0.05,-0.029l0.071,-0.007l0.072,0.061l0.1,0.021l0.05,0.047l0.003,0.05l0.061,0.018l0.061,-0.025l0.025,-0.065l0.032,-0.042l0.061,0.003l0.072,0.068l0.028,0.075l0.111,0.111l0.089,0.025l0.061,-0.021l0.039,-0.097l0.108,-0.021l0.103,0.017l0.086,0.079l0.072,0.029l0.089,0.093l0.057,0.003l0.022,-0.043l0.039,-0.014l0.125,0.021l0.064,0.033l0.061,0.007l0.047,-0.022l0.211,0.033l0.1,-0.018l0.078,0.014l0.061,0.039l0.079,0.004l0.05,-0.032l0.075,0.003l0.039,0.065l0.115,0.06l0.078,-0.025l0.04,-0.082l0.071,-0.064l0.011,-0.118l0.082,-0.104l0.075,-0.011l0.061,-0.035l0.014,-0.086l-0.028,-0.047v-0.043l0.035,-0.028h0.101l0.046,-0.032l0.032,0.003l0.014,0.093l0.029,0.025h0.068l0.075,0.032l0.089,0.083l0.09,0.014l0.05,0.025l0.032,0.043l0.15,0.05l0.032,0.075l0.033,0.004l0.028,-0.033l0.05,-0.007l0.082,0.025l0.004,0.083l0.046,0.075l0.076,0.035l0.05,0.061l0.01,0.064l-0.039,0.09l0.007,0.053l0.068,0.033h0.068l0.054,0.021l0.043,0.064l0.064,0.029h0.071l0.05,0.036l0.018,0.078l0.047,0.054h0.075l0.068,-0.057h0.089l0.111,0.076l0.059,-0.003l0.054,0.03v0.048l-0.051,0.011v0.045l0.018,0.051l-0.026,0.081l-0.041,0.002l-0.024,-0.024h-0.043l-0.026,0.04l-0.046,-0.002l-0.043,-0.049h-0.075l-0.04,0.033l-0.065,0.01l-0.099,0.161l-0.002,0.062l0.05,0.051l0.076,0.008l0.059,-0.023l0.019,-0.067l0.059,-0.035h0.11l0.067,-0.04l0.099,-0.003l0.07,0.029l0.149,0.04l0.22,0.134l0.048,0.077l0.167,0.137h0.053l0.094,-0.104l0.067,-0.003l0.107,0.072l0.017,0.105l0.048,0.013l0.029,-0.026l0.148,-0.006l0.016,-0.045l0.083,-0.046h0.051l0.062,0.038l0.008,0.083l0.034,0.075l0.081,0.088l0.032,0.094l0.048,0.032l0.059,0.073l0.062,0.002l0.059,-0.037h0.067l0.091,0.059l0.043,0.002l0.051,-0.026l0.102,-0.094l0.075,-0.022l0.027,-0.021l0.008,-0.051l0.053,-0.067l0.027,-0.113l0.049,-0.048l0.104,-0.024l0.056,0.024l0.11,0.013l0.164,-0.024l0.062,-0.059l0.037,-0.021l0.188,-0.032l0.126,-0.075l0.139,-0.153l0.067,-0.024l0.091,0.005l0.049,-0.038l0.021,-0.056l0.046,-0.024l0.072,0.003l0.156,-0.129l0.005,-0.04l0.03,-0.022l0.056,-0.01l0.102,-0.07h0.059l0.04,0.029h0.04l0.024,-0.04h0.046l0.182,0.137l0.03,0.107l-0.027,0.105l0.011,0.053l0.085,0.073l0.03,0.048l0.005,0.089l0.035,0.029l0.099,0.005l0.094,-0.064l0.102,-0.013l0.15,-0.089l0.083,-0.016l0.083,-0.072l0.057,0.005l0.013,0.172l0.032,0.029l0.067,0.008l0.062,0.03l0.051,-0.006l0.096,-0.161l0.027,-0.088l0.105,-0.091l0.072,-0.03h0.102l0.059,-0.04l0.006,-0.051l0.032,-0.024h0.043l0.083,-0.035l0.11,-0.078l0.056,-0.002l0.04,-0.032l0.043,-0.118l0.072,-0.089l0.062,-0.003l0.064,0.024l0.129,-0.002l0.065,-0.027l0.168,-0.225l0.084,-0.032l0.059,-0.054l0.104,-0.032l0.107,-0.099l0.008,-0.051l-0.042,-0.043v-0.075l0.016,-0.118l0.059,-0.124l-0.006,-0.107l-0.075,-0.067l-0.126,-0.056l-0.198,-0.003l-0.07,-0.032l-0.027,-0.054v-0.059l0.113,-0.399l0.053,-0.043l0.062,-0.005l0.131,-0.092h0.065l0.083,0.054h0.048l0.054,-0.035l0.145,-0.021l0.016,-0.051l-0.016,-0.038l0.01,-0.037l0.067,-0.041h0.078l0.174,0.073h0.094l0.105,-0.038l0.166,-0.107l0.081,-0.032l0.209,-0.005l0.091,-0.081l0.008,-0.035l-0.04,-0.056l0.013,-0.129l0.054,-0.094l0.134,-0.075l0.163,-0.032l0.07,-0.045l0.04,-0.105l0.057,-0.04l0.115,-0.016l0.139,-0.054l0.067,0.013l0.051,-0.021l0.062,-0.086l0.083,-0.072l0.365,-0.217l0.04,-0.051l0.003,-0.054l0.016,-0.07l0.083,-0.126l0.043,-0.187l0.008,-0.212l0.053,-0.102l0.094,-0.102l0.006,-0.051l0.024,-0.021l0.061,-0.027l0.311,-0.33l0.341,-0.198l0.378,-0.156l0.115,-0.078l0.276,-0.34l0.113,-0.089l0.182,-0.053l0.177,-0.011l0.105,0.027l0.091,-0.003l0.056,-0.035l0.352,-0.013l0.252,-0.059l0.064,0.016l0.027,0.083l0.056,0.083h0.04l0.07,-0.056l0.091,-0.019l0.099,-0.051l0.057,-0.003l0.104,0.076l0.081,-0.003l0.107,-0.15l0.094,-0.067l0.177,-0.094l0.056,-0.059l0.019,-0.097l0.051,-0.037h0.08l0.239,-0.078l0.129,0.021l0.158,-0.064l0.078,0.008l0.069,0.07l0.043,-0.003l0.016,-0.045l-0.027,-0.137l0.022,-0.056l0.115,-0.073l0.059,-0.094l0.172,-0.131l0.051,-0.003l0.053,0.067l0.022,0.091l0.056,0.041l0.102,-0.008l0.038,-0.027l-0.006,-0.241l0.065,-0.151l0.058,-0.043l0.113,-0.008l0.03,-0.026l0.002,-0.07l0.035,-0.04l0.094,-0.041l0.263,-0.034l0.102,-0.025l0.048,-0.04l0.067,-0.037l0.094,-0.038l0.027,-0.051v-0.053l0.04,-0.075l0.067,-0.019l0.367,0.048l0.124,-0.024l0.107,-0.153l-0.006,-0.07l0.033,-0.059l0.219,-0.155l0.086,-0.019l0.105,-0.056l0.145,-0.132l0.008,-0.048l-0.062,-0.043l-0.139,-0.024l-0.065,-0.062l-0.067,-0.182l-0.056,-0.054l-0.172,-0.069l-0.029,-0.091l0.01,-0.073l0.07,-0.069l0.04,-0.081v-0.091l0.022,-0.048l0.129,-0.022l0.217,0.024l0.169,-0.018l0.072,-0.054l0.022,-0.121l0.064,-0.024l0.07,0.024l0.051,-0.002l0.04,-0.035l0.069,-0.014l0.062,0.006l0.046,-0.041l0.037,-0.12l0.057,-0.027l0.147,0.016l0.064,-0.021l0.065,-0.1l0.061,-0.018l0.148,0.053l0.075,-0.01l0.078,-0.07l0.077,-0.158l0.132,-0.137l0.123,-0.062l0.097,-0.086l0.072,-0.016l0.094,-0.056l0.099,-0.011l0.158,-0.072l0.062,0.013l0.062,0.113l0.061,0.051l0.067,0.013l0.057,0.059l0.005,0.07l0.054,0.094v0.12l0.072,0.108l0.094,0.056l0.113,0.008l0.08,0.048l0.013,0.057l-0.026,0.104l0.037,0.134l0.064,0.014l0.172,-0.094l0.172,-0.006l0.206,0.051l0.102,0.102l0.094,0.019l0.11,-0.024l0.147,0.013l0.143,0.075l0.09,0.115l0.11,0.043l0.04,-0.007l-0.065,-0.136l-0.1,-0.136l-0.078,-0.029l-0.011,-0.028l0.061,-0.007l0.243,0.135l0.343,0.072l0.107,0.046l0.011,0.072l0.1,0.096l-0.003,0.05l-0.086,0.04l0.003,0.039l0.147,0.007l0.057,0.047l0.093,0.007l0.1,-0.093h0.143l0.204,-0.036l0.096,0.04l0.029,0.096l0.054,0.043l0.073,-0.001l0.046,0.04l-0.009,0.047l0.033,0.018l0.043,-0.061l0.032,-0.218l0.1,-0.161l0.093,-0.054l0.536,0.011l0.061,0.057l0.064,0.022l0.047,-0.033l-0.004,-0.071l0.05,-0.268l0.079,-0.107l0.082,0.017l0.064,0.108l-0.021,0.161l0.061,0.103l0.068,0.015l0.05,-0.036l0.068,0.007l0.071,0.075l0.057,0.011l0.057,-0.097l-0.003,-0.15l-0.086,-0.132v-0.068l0.054,-0.025l0.114,0.018l0.061,-0.036l0.096,0.004l0.072,0.06l0.118,0.015l0.121,-0.04l0.04,-0.043l-0.047,-0.053l-0.007,-0.093l0.036,-0.122l0.064,-0.014l0.14,0.061l0.064,0.107l0.072,-0.007l0.096,-0.079l0.172,-0.003l0.064,0.068l-0.011,0.057l0.036,0.021l0.139,-0.086l0.086,-0.028l0.015,-0.04l-0.079,-0.046l-0.011,-0.068l0.136,-0.218l0.011,-0.104l-0.068,-0.071v-0.05l0.121,-0.136h0.083l0.068,-0.032l0.121,-0.111l0.125,-0.064l0.118,0.014l0.029,0.039l-0.025,0.107l0.039,0.068l0.14,0.029l0.107,-0.014l0.039,-0.065l0.075,-0.05l0.236,-0.103l0.047,-0.111l0.085,-0.065h0.086l0.057,0.054h0.05l0.043,-0.025h0.075l0.065,0.029l0.068,-0.004l0.175,-0.114l0.079,0.007l0.05,0.053l0.432,0.186l0.072,0.111v0.115l0.075,0.121l0.06,0.014l0.054,0.043l0.09,0.118l0.089,0.05l0.096,0.018l0.101,0.072l0.107,0.018l0.1,0.067l0.014,0.093l-0.018,0.068l0.032,0.054l0.079,0.007l0.161,0.125l0.014,0.118l-0.057,0.208l-0.121,0.164l-0.158,0.075l-0.218,-0.011l-0.082,0.047l-0.032,0.086l0.061,0.146l-0.018,0.082l-0.129,0.115l-0.011,0.089l0.082,0.029l0.058,-0.018l0.021,-0.064l0.115,-0.118l0.046,-0.115l0.057,-0.053h0.061l0.061,-0.029l0.025,-0.043l0.089,-0.032l0.122,-0.011l0.028,-0.057l0.065,-0.054l0.075,0.011l0.032,0.047l0.068,0.043l0.086,0.114l0.064,0.025l0.032,0.032l-0.018,0.247l0.057,0.057l0.183,0.036l0.243,0.182l0.036,0.089l-0.04,0.054l-0.007,0.1l0.061,0.182l0.096,0.065l0.115,-0.007l0.136,-0.065l0.111,0.011l0.067,0.079l0.018,0.1l-0.068,0.086l0.004,0.1l0.046,0.057l-0.003,0.061l-0.025,0.025l0.011,0.064l0.082,0.079l0.057,0.003l0.057,0.036l0.007,0.054l0.1,0.103l0.126,0.05l0.003,0.058l-0.078,0.068l-0.008,0.107l0.047,0.039l0.082,0.007l0.047,0.043l0.003,0.1l0.054,0.097l0.086,0.057l0.05,0.071l-0.004,0.143l0.039,0.068l0.061,0.058l-0.014,0.053l-0.097,0.054l-0.161,0.011l-0.16,-0.079l-0.058,-0.061l-0.078,-0.003l-0.1,0.06l-0.033,0.075l0.047,0.079l-0.018,0.082l-0.054,0.029l-0.046,0.05l0.007,0.118l-0.021,0.046l-0.05,0.008l-0.04,0.06l0.029,0.079l-0.007,0.057l-0.054,0.047l-0.118,0.003l-0.071,0.086l0.021,0.075l-0.018,0.05l-0.071,0.025l-0.029,0.057l0.011,0.083l-0.05,0.053l-0.147,0.025l-0.168,-0.028l-0.046,0.057l0.01,0.061l0.054,0.014l0.036,-0.032l0.061,0.003l0.067,0.047l0.068,0.096h0.05l0.076,-0.05l0.057,0.007l0.093,0.208l-0.004,0.154l0.022,0.082l0.032,0.003l0.064,-0.078l0.022,-0.097l-0.043,-0.189l-0.036,-0.05l-0.004,-0.04l0.047,-0.075l0.003,-0.093l-0.078,-0.111l0.014,-0.067l0.118,-0.083l0.168,-0.025l0.082,-0.035l0.018,-0.058l0.05,-0.064l0.218,-0.147l0.018,-0.053l0.079,-0.072l0.128,-0.021l0.115,0.039l0.186,0.168l0.091,0.017l0.07,-0.035l0.043,-0.045l0.024,-0.07l0.035,0.003l0.008,0.037l0.008,0.124l0.026,0.08l0.105,0.016l0.11,0.094l0.011,0.096l-0.038,0.07l0.003,0.075l0.086,0.078l0.118,0.027l0.455,0.185l0.054,0.067l0.029,0.209l0.033,0.072l0.126,0.102l0.008,0.073l-0.059,0.075l-0.003,0.059l0.04,0.061l0.204,0.167l0.027,0.072l0.064,0.035l0.124,0.024l0.152,0.113l0.086,0.018l0.094,0.027h0.102l0.113,-0.08l0.131,-0.166l0.15,-0.07l0.097,0.002l0.056,0.027l0.07,0.011h0.093l0.065,0.03l0.134,0.101l0.054,0.097l0.061,0.021l0.048,-0.024l0.057,0.019l0.061,0.139l0.078,0.049l0.078,-0.003l0.099,0.067l0.038,0.056l-0.011,0.081l0.072,0.083l0.078,-0.005l0.048,0.026l0.006,0.075l0.035,0.03l0.042,0.011l0.035,0.024l-0.002,0.04l0.045,0.032l0.081,0.003l0.182,0.126h0.107l0.022,-0.177l0.035,-0.038h0.088l0.072,0.025h0.092l0.134,-0.089l0.002,-0.07l-0.064,-0.083l-0.003,-0.064l0.086,-0.089l0.064,-0.002l0.129,0.12l0.097,0.054l0.037,-0.003l0.019,-0.048l0.029,-0.024h0.054l0.005,-0.032l-0.075,-0.089l0.003,-0.069l0.078,-0.07l0.078,-0.003l0.032,0.016h0.04l0.062,-0.091v-0.037l-0.086,-0.035v-0.03l-0.086,-0.048v-0.027l0.043,-0.032l0.003,-0.03l-0.089,-0.088l-0.005,-0.062l0.024,-0.053l0.121,-0.089l0.002,-0.04l0.027,-0.035l-0.003,-0.032l-0.045,-0.032v-0.03l0.037,-0.061l0.113,-0.078l0.005,-0.027l-0.064,-0.024l-0.056,-0.07l-0.003,-0.102l-0.03,-0.102l0.019,-0.037h0.065l0.04,0.019l0.021,-0.011l-0.013,-0.056l0.021,-0.033l0.065,-0.013l0.029,-0.04l-0.019,-0.043l0.014,-0.024l0.056,-0.006l0.14,-0.166h0.096l0.091,0.099l0.003,0.03l-0.03,0.021l0.003,0.032l0.04,0.019h0.067l0.11,-0.048l0.027,-0.051l0.04,-0.027l0.051,-0.002l0.043,-0.03l0.043,-0.003l0.051,0.025l0.016,0.067l0.038,0.029h0.064l0.054,0.035l0.01,0.07l0.027,0.032l0.113,0.021l0.072,0.065l0.011,0.053l0.059,0.091v0.137l0.035,0.051l0.002,0.051l-0.029,0.027v0.096l0.051,0.059l-0.003,0.027l-0.04,0.024l0.003,0.067l0.061,0.032l0.065,0.105h0.026l0.022,-0.032l0.032,-0.003l0.078,0.115l0.126,0.274l0.04,0.003l0.048,-0.033h0.051l0.059,0.043h0.065l0.053,-0.026l0.014,-0.046l-0.022,-0.07l0.022,-0.043l0.051,-0.005l0.118,-0.086l0.171,-0.011l0.075,0.027l0.156,0.177l0.024,0.049l0.045,0.042l0.081,0.022l0.016,0.04l-0.032,0.051l-0.003,0.064l0.054,0.049l0.118,0.016l0.069,0.029l0.049,0.067l0.069,0.038l0.067,0.11l0.011,0.096l-0.035,0.027l-0.04,0.142l-0.003,0.086l0.132,0.145l0.104,0.008l0.046,-0.016l0.005,-0.059l0.027,-0.032l0.137,-0.006l0.062,0.046l0.064,0.204l0.043,0.032l0.091,0.005l0.08,0.048l0.073,0.076l0.088,-0.111l0.084,-0.014l0.055,-0.014l0.01,-0.079l-0.056,-0.051l-0.005,-0.181l0.084,-0.093l0.153,-0.009l0.065,0.051l0.056,-0.018l0.032,-0.061l0.125,-0.092l0.126,-0.019l0.018,-0.079l-0.167,-0.26v-0.106l-0.056,-0.093l-0.157,-0.098l-0.047,-0.148l0.028,-0.06h0.06l0.065,0.069l0.037,-0.014l0.01,-0.111l0.088,-0.074l0.144,-0.024l0.088,-0.092l0.083,-0.005l0.051,0.051l0.01,0.153l0.125,0.116l0.009,0.079l-0.028,0.065l0.014,0.088l0.102,0.116l0.079,0.023l0.042,0.042v0.07l0.13,0.208l-0.037,0.061l0.009,0.051l0.06,0.042l0.005,0.139l-0.046,0.13l0.018,0.088l0.088,0.079l0.033,0.292l-0.033,0.07l0.038,0.069l0.088,0.014l0.125,-0.009l0.065,-0.06l0.121,-0.093l0.009,-0.093l0.06,-0.051l0.093,-0.005l0.121,0.061l0.09,-0.04l0.017,-0.059l0.071,-0.097l0.067,-0.056l0.143,-0.04h0.034l0.035,0.025l0.052,0.002l0.029,-0.022l0.057,0.005l0.207,0.109h0.054l0.03,-0.035l0.005,-0.071l0.061,-0.109l0.114,-0.098l0.064,-0.008l0.047,0.02l0.051,-0.003l0.072,-0.051l0.024,-0.067l0.079,-0.022l0.025,-0.052l-0.005,-0.172l0.027,-0.079l0.008,-0.069l-0.04,-0.037l0.005,-0.104l0.072,-0.096l0.091,-0.032l0.103,-0.094l0.005,-0.076l-0.101,-0.084l-0.017,-0.098l-0.086,-0.094l-0.003,-0.062l-0.027,-0.032l-0.039,0.005l-0.03,-0.032l0.027,-0.066l-0.049,-0.109l-0.121,-0.081l-0.01,-0.047l0.037,-0.03l0.003,-0.066l-0.114,-0.202l-0.175,-0.045l-0.098,-0.007l-0.077,-0.064l-0.007,-0.099l0.081,-0.135l0.012,-0.158l-0.017,-0.133l-0.064,-0.114l-0.029,-0.179l0.012,-0.109l-0.143,-0.256l-0.007,-0.138l0.086,-0.022l0.081,0.017l0.084,-0.035l0.01,-0.052l0.044,-0.054l0.059,-0.002l0.109,-0.064l0.079,-0.079l0.027,-0.192l-0.025,-0.193l-0.086,-0.069l-0.074,-0.18l-0.005,-0.083l0.079,-0.138l-0.005,-0.052l-0.064,-0.032l-0.074,-0.227l0.012,-0.094l0.062,-0.081l-0.01,-0.155l-0.118,-0.072l-0.025,-0.037l0.027,-0.029l-0.022,-0.057l-0.073,-0.011l-0.004,-0.06l0.083,-0.056l0.172,-0.014l0.097,0.051l0.176,0.037l0.084,-0.023l0.051,-0.088l0.167,-0.074l0.06,-0.102l0.098,-0.005l0.083,0.033l0.033,0.065l-0.005,0.051l0.047,0.074l0.064,0.032l0.061,0.153v0.07l-0.023,0.037l0.004,0.06l0.037,0.042l0.01,0.163l0.041,0.083l-0.009,0.195l0.047,0.107l-0.005,0.148l0.088,0.13l0.088,0.019l0.065,-0.051h0.107l0.097,0.051h0.102l0.075,-0.042l-0.005,-0.093l0.037,-0.06l0.162,-0.005l0.089,0.019l0.037,-0.042l-0.033,-0.111l0.045,-0.062l0.006,-0.081l-0.08,-0.055l-0.087,0.012l-0.136,-0.056l-0.08,-0.086l-0.025,-0.112l0.05,-0.062l0.018,-0.117l-0.012,-0.118l0.018,-0.154l0.062,-0.074l0.081,-0.007l0.074,-0.043l0.018,-0.08l0.056,-0.075l0.309,-0.179v-0.13l-0.13,-0.328l-0.204,-0.272l-0.006,-0.247l0.062,-0.106l0.006,-0.092l0.043,-0.044l0.155,0.044l0.087,0.074l0.055,0.006l0.019,-0.08l0.074,-0.056l0.198,-0.019l0.155,-0.074l0.161,-0.043l0.006,-0.087l-0.118,-0.148l-0.031,-0.124l-0.08,-0.099l-0.093,-0.037l-0.018,-0.062l0.061,-0.068v-0.074l-0.049,-0.056l-0.037,-0.52l0.025,-0.117v-0.13l-0.062,-0.05l-0.013,-0.086l0.056,-0.081l-0.006,-0.074l-0.068,-0.062l-0.031,-0.507l-0.093,-0.235l-0.13,-0.13l-0.006,-0.099l-0.074,-0.155l-0.044,-0.16l0.038,-0.495l0.092,-0.322l-0.012,-0.285l0.068,-0.216l0.062,-0.068l0.043,-0.143l0.074,-0.123l0.033,-0.192l0.074,-0.056v-0.055l-0.088,-0.024l-0.028,-0.074l0.019,-0.088l-0.056,-0.339l-0.065,-0.083l-0.014,-0.061l0.037,-0.064v-0.121l0.033,-0.116l0.004,-0.111l-0.065,-0.033l-0.018,-0.093l-0.144,-0.153v-0.06l0.033,-0.07l-0.075,-0.083l-0.097,-0.019l-0.014,-0.065l0.023,-0.037l-0.005,-0.06l-0.051,-0.047l0.005,-0.092l0.06,-0.098v-0.074l-0.12,-0.107l-0.01,-0.111l-0.027,-0.051l0.004,-0.061l0.056,-0.018l0.056,-0.107l-0.033,-0.055l-0.009,-0.265l-0.07,-0.07l0.005,-0.078l0.046,-0.042v-0.051l-0.055,-0.047v-0.088l0.06,-0.079l-0.009,-0.088l-0.065,-0.083l-0.028,-0.121l0.028,-0.051v-0.148l-0.144,-0.219v-0.102l-0.079,-0.153l-0.005,-0.088l0.042,-0.097l-0.005,-0.07l-0.051,-0.028l-0.009,-0.106l0.088,-0.126v-0.074l-0.125,-0.074l-0.014,-0.07l0.037,-0.051l-0.009,-0.116l-0.074,-0.093l0.004,-0.097l-0.055,-0.102l-0.005,-0.088l0.042,-0.065l0.134,-0.023l0.042,-0.033l-0.005,-0.056l0.056,-0.041l0.07,-0.01l0.051,-0.065l-0.033,-0.097l0.005,-0.121l-0.056,-0.065l-0.204,-0.083l-0.102,-0.014l-0.158,-0.149l-0.009,-0.116l-0.051,-0.051h-0.065l-0.037,-0.037l0.014,-0.083l-0.042,-0.047l-0.07,-0.009l-0.078,-0.051l-0.042,-0.07l-0.051,-0.046l-0.144,-0.046l-0.093,-0.102l-0.009,-0.191l0.116,-0.176l0.028,-0.158l0.037,-0.06l0.009,-0.139l-0.065,-0.125l-0.13,-0.079l-0.009,-0.065l-0.051,-0.042l-0.07,0.005l-0.148,-0.116l0.023,-0.079l-0.028,-0.051l-0.065,-0.014l-0.079,-0.065l-0.032,-0.293l-0.149,-0.129l-0.065,-0.126l-0.287,-0.185l-0.112,0.018l-0.069,-0.042v-0.051l0.097,-0.078l0.019,-0.154l-0.037,-0.055l-0.047,0.004l-0.037,-0.046v-0.167l0.061,-0.2l0.013,-0.143l0.089,-0.195l0.13,-0.061l0.18,0.019l0.14,0.056l0.106,0.176l0.121,0.088l0.093,0.195l0.13,0.065l0.046,0.056h0.056l0.032,-0.084l0.13,-0.116l0.023,-0.083l0.01,-0.107l0.032,-0.074l0.163,-0.153l0.088,-0.024l0.06,-0.037v-0.06l0.084,-0.098l0.065,-0.032l0.004,-0.07l-0.153,-0.218l-0.07,-0.018l-0.041,-0.042l0.018,-0.102l-0.083,-0.079l-0.102,-0.023l-0.126,-0.093l-0.023,-0.07l-0.069,-0.078l-0.321,-0.14l-0.171,-0.153l-0.121,-0.213l-0.385,-0.32l-0.074,-0.014l-0.065,-0.047l-0.005,-0.074l-0.139,-0.116l-0.065,-0.102l-0.167,-0.102l-0.037,-0.093l0.031,-0.074l-0.037,-0.21l-0.05,-0.112l-0.142,-0.006l-0.056,-0.056l-0.025,-0.191l-0.185,-0.198l-0.142,-0.081l-0.136,-0.216l0.012,-0.068l-0.05,-0.056l-0.099,0.012l-0.037,-0.061l0.062,-0.075l-0.012,-0.074l-0.05,-0.037l-0.086,-0.241l0.043,-0.106l0.198,-0.08v-0.062l-0.08,-0.049l-0.013,-0.075l0.068,-0.148l-0.018,-0.303l-0.174,-0.099l-0.031,-0.081l0.05,-0.037v-0.055l-0.278,-0.254l-0.13,-0.074l-0.303,-0.291l-0.025,-0.161l-0.322,-0.519l-0.105,-0.056l-0.08,-0.074l0.006,-0.124l0.068,-0.037l0.006,-0.074l-0.087,-0.093l-0.055,-0.266l0.049,-0.093l0.006,-0.074l-0.092,-0.044l-0.019,-0.074l-0.198,-0.136h-0.136l-0.093,-0.043l-0.025,-0.068l-0.105,-0.056l-0.099,0.025l-0.154,-0.062l-0.05,-0.087l-0.204,-0.117l-0.068,-0.09l-0.149,-0.111l-0.389,-0.112l-0.102,-0.092l-0.251,-0.065h-0.195l-0.362,-0.084l-0.111,-0.093l-0.278,-0.083l-0.168,0.018l-0.343,-0.018l-0.111,0.055l-0.761,-0.092l-0.121,0.037l-0.148,-0.01l-0.232,-0.167l-0.093,-0.204l-0.121,-0.028l-0.13,0.038l-0.194,0.222l-0.14,-0.009l-0.046,-0.084h-0.111l-0.112,0.232l0.047,0.103h0.13l0.185,0.102l0.009,0.102l-0.176,0.12l-0.074,0.186l0.037,0.102l0.167,0.009l0.121,0.093l0.102,0.306l0.009,0.279l0.056,0.148l-0.028,0.167l-0.251,0.167l-0.139,-0.009l-0.074,-0.121l-0.13,-0.074l-0.158,0.037l-0.074,0.121l-0.139,0.584l-0.028,0.251l0.102,0.223l0.176,0.037l0.037,0.093l-0.092,0.083l-0.019,0.121l0.074,0.093l-0.018,0.083l-0.177,0.019l-0.204,-0.093l-0.055,-0.139l-0.102,-0.065l-0.121,0.074l-0.019,0.102l0.214,0.158v0.111l-0.102,0.028l-0.149,-0.084l-0.102,0.019l-0.065,0.176l-0.083,0.01l-0.102,-0.084h-0.251l-0.195,-0.074l-0.287,-0.009l-0.214,-0.121l-0.278,0.018l-0.139,0.13l0.037,0.121l0.148,0.074l0.009,0.093l-0.074,0.102l-0.139,0.019l-0.26,-0.13l-0.13,0.065l-0.055,0.111l0.037,0.093l-0.056,0.065l-0.093,-0.093l-0.065,-0.148l-0.232,-0.158l-0.13,-0.009l-0.074,0.046l-0.148,-0.019l-0.112,-0.074h-0.074l-0.019,0.074l0.13,0.13l0.01,0.214l0.12,0.213l0.307,0.279l0.018,0.102l-0.102,0.13l-0.148,0.018l-0.084,0.065l0.009,0.195l0.084,0.167l0.12,0.056l0.056,0.111v0.084l0.13,0.213l0.13,0.139v0.13l-0.149,0.093l-0.092,-0.009l-0.093,0.037l-0.111,0.148l-0.13,0.009l-0.14,-0.046l-0.213,-0.297l-0.139,-0.074l-0.074,0.028l0.027,0.092l-0.083,0.056l-0.102,-0.028l-0.13,-0.148l-0.102,-0.028l-0.158,0.084l-0.037,0.083l-0.074,0.009l-0.297,-0.26l-0.353,-0.157l-0.195,-0.195l-0.074,-0.204l-0.111,-0.121l-0.056,-0.334l-0.121,-0.278l-0.13,-0.028l-0.102,0.055l-0.427,-0.027l-0.157,-0.093l-0.121,0.018l-0.028,0.084l-0.111,0.083h-0.176l-0.028,0.093l0.139,0.167l-0.065,0.204l-0.13,0.047l-0.037,0.102l0.037,0.148l-0.046,0.13l0.037,0.093l0.12,0.019l0.205,0.12v0.074l-0.075,0.028l0.01,0.084l0.185,0.241l0.028,0.195l-0.018,0.111l-0.112,-0.009l-0.074,0.056l0.028,0.13l-0.084,0.185l-0.083,0.056l-0.102,-0.028l-0.149,0.019l-0.083,-0.075l-0.01,-0.575l-0.092,-0.083l-0.084,0.037l-0.102,-0.019l-0.056,-0.083l-0.287,-0.14l-0.362,-0.306l-0.084,-0.139l-0.009,-0.148l-0.102,-0.075l-0.371,-0.018l-0.14,0.074l-0.296,0.529l-0.01,0.241l-0.093,0.158h-0.12l-0.084,-0.093l-0.176,-0.38l-0.269,-0.121l-0.214,0.009l-0.584,-0.12l-0.167,0.102l-0.074,0.13l-0.232,0.074l-0.214,-0.056l-0.046,-0.102l-0.158,-0.195l-0.111,-0.018l-0.065,-0.084l-0.01,-0.148l-0.222,-0.334l-0.084,-0.307l-0.111,-0.129l-0.158,-0.028l-0.028,-0.121l0.074,-0.306l0.158,-0.13l0.177,0.028l0.139,-0.01l0.018,-0.083l-0.195,-0.176l0.028,-0.121l0.139,-0.046l0.056,-0.084l-0.028,-0.288l-0.093,-0.065l-0.018,-0.092l0.046,-0.112l-0.009,-0.083l-0.167,-0.139l-0.176,-0.047l-0.139,0.037l-0.038,0.158l-0.092,0.037l-0.177,-0.018l-0.222,-0.214l-0.167,-0.325l-0.103,-0.603l-0.092,-0.12l-0.102,0.018l-0.056,0.13l-0.158,0.121l-0.232,0.046l-0.102,0.102l-0.195,0.047l-0.13,-0.065l-0.018,-0.13l0.046,-0.149l0.176,-0.148l0.186,0.009l0.149,-0.046l0.241,-0.01l0.334,-0.102l0.037,-0.083l-0.167,-0.084l-0.056,-0.176l-0.083,-0.028l-0.056,0.074h-0.241l-0.093,-0.083l-0.102,0.009l-0.056,0.084l-0.157,-0.01l-0.14,0.047l-0.139,-0.028l-0.26,-0.214l-0.241,-0.046l-0.111,0.065l-0.279,-0.009l-0.102,-0.074l-0.083,-0.325l-0.121,-0.065l-0.186,0.028l-0.296,-0.149l-0.121,-0.195l-0.139,-0.046l-0.084,-0.121l0.065,-0.074v-0.065l-0.148,-0.065l-0.065,-0.158l-0.13,-0.083l-0.112,0.009l-0.074,-0.037l-0.018,-0.121l-0.316,-0.204l-0.111,-0.213h-0.084l-0.028,0.167l-0.074,0.158l-0.167,0.027l-0.068,0.124l-0.229,0.099l-0.173,-0.006l-0.08,-0.068l-0.093,-0.006l-0.062,0.062v0.167l-0.081,0.086h-0.099l-0.154,-0.136l-0.037,-0.099l-0.062,-0.006l-0.099,0.21l0.012,0.143l-0.055,0.179l-0.093,0.043l-0.143,-0.08l-0.228,0.043l-0.056,0.105l-0.062,0.044l-0.124,-0.025l-0.074,-0.062h-0.105l-0.062,0.037l-0.198,-0.006l-0.099,0.074l-0.031,0.142l0.037,0.118l-0.062,0.093h-0.117l-0.068,0.049l-0.05,0.099h-0.086l-0.143,-0.062l-0.061,-0.105l-0.18,-0.074h-0.154l-0.106,0.142l-0.086,0.031l-0.093,-0.031l-0.019,-0.074l-0.08,-0.025l-0.068,0.019l-0.05,-0.013l-0.049,-0.136l-0.111,-0.018l-0.124,0.043l-0.074,0.105l-0.075,0.006l-0.055,-0.068l-0.13,-0.006l-0.099,0.037l-0.05,-0.043l0.013,-0.13l-0.068,-0.161l-0.093,-0.068l-0.056,-0.154l-0.105,-0.087l-0.316,-0.093l-0.111,-0.086l-0.229,-0.013l-0.093,0.056l-0.105,0.006l-0.068,-0.049l-0.099,0.006l-0.142,0.253l-0.118,0.136l-0.216,0.087l-0.167,0.142l-0.081,-0.018l-0.068,0.025l-0.031,0.068l-0.068,0.006l-0.068,-0.155l-0.055,-0.037l-0.087,0.019l-0.068,-0.038l-0.031,-0.235l-0.13,-0.142l-0.192,-0.012l-0.13,0.062l-0.105,0.154l-0.093,-0.012l-0.024,-0.087l-0.229,-0.204l-0.118,-0.018l-0.062,-0.068l-0.006,-0.155l-0.13,-0.124l-0.161,-0.018l-0.08,-0.093l-0.018,-0.112l-0.081,-0.043l-0.08,0.031l-0.112,-0.006l-0.161,-0.081l-0.105,0.019l-0.086,0.136l-0.118,0.019l-0.068,-0.031h-0.068l-0.043,0.068l-0.143,0.018l-0.086,0.062l-0.081,-0.012l-0.136,-0.328l0.025,-0.093l-0.019,-0.08l-0.123,-0.05l-0.062,-0.204l-0.087,-0.025l-0.216,0.149l-0.211,-0.006l-0.074,0.061h-0.272l-0.087,0.069l-0.08,-0.007l-0.278,-0.204l-0.124,-0.006l-0.081,0.05h-0.105l-0.117,-0.13l-0.371,-0.149l-0.118,0.019l-0.118,0.222l-0.16,0.05l-0.186,-0.05l-0.093,-0.074l-0.124,-0.012l-0.061,0.074l-0.099,0.006l-0.044,-0.037l-0.148,-0.006l-0.272,-0.081l-0.204,-0.092l-0.143,-0.007l-0.117,0.075l-0.105,0.012l-0.236,-0.093l-0.068,0.019l-0.031,0.105l-0.086,0.025l-0.118,-0.05l-0.179,0.019l-0.056,0.099l-0.192,0.056l-0.123,-0.081l-0.124,-0.012l-0.099,-0.099l-0.012,-0.068l0.043,-0.211l-0.062,-0.068l0.025,-0.093l0.167,-0.123l-0.019,-0.105l-0.198,-0.155l-0.253,-0.056l-0.056,-0.062l-0.068,-0.012l-0.118,0.019l-0.099,0.142l-0.092,0.018l-0.304,-0.018l-0.117,0.068v0.117l-0.062,0.044l-0.093,-0.013l-0.29,0.075l-0.106,-0.05l-0.185,-0.297l-0.105,-0.031l-0.044,-0.08l0.013,-0.081l-0.056,-0.074l-0.127,0.016l-0.099,-0.056l-0.136,-0.247l-0.182,-0.05l-0.102,0.059l-0.072,-0.013l-0.092,-0.08l-0.266,-0.102l-0.013,-0.059l-0.043,-0.028l-0.05,0.01l-0.187,-0.034l-0.111,-0.072l-0.023,-0.083l-0.042,-0.033h-0.074l-0.139,-0.092l-0.237,-0.056l-0.176,-0.097l-0.075,-0.098l0.033,-0.056l-0.014,-0.088l-0.13,-0.116l-0.255,-0.055l-0.084,0.009l-0.083,0.079l-0.065,0.014l-0.047,0.111l-0.078,0.06l-0.07,0.005l-0.056,-0.07l-0.083,-0.037l-0.07,0.019l-0.088,-0.042l-0.014,-0.056l-0.13,-0.06l-0.283,-0.032l-0.134,-0.038l-0.107,-0.102l-0.116,-0.041l-0.088,-0.075h-0.204l-0.033,0.07l-0.079,0.042l-0.037,-0.019l-0.07,0.033l-0.004,0.092l-0.07,0.024l-0.083,-0.042l-0.07,0.037l-0.009,0.07l-0.074,0.078l-0.028,0.098l-0.07,0.014l-0.283,-0.172l-0.102,-0.107h-0.111l-0.112,0.075h-0.069l-0.079,-0.098l-0.088,-0.032l-0.293,0.004l-0.051,0.028h-0.069l-0.061,-0.037h-0.088l-0.079,0.088v0.065l-0.037,0.088h-0.041l-0.061,-0.092l-0.023,-0.112l-0.065,-0.028h-0.107l-0.074,0.056h-0.056l-0.051,-0.037l-0.111,-0.009l-0.056,0.018l-0.083,-0.009l-0.288,-0.181l-0.088,-0.009l-0.051,0.028l-0.125,0.013l-0.102,-0.013l-0.441,-0.26l-0.065,-0.084l-0.19,-0.153l-0.172,-0.088l-0.056,-0.079l-0.162,-0.07l-0.102,-0.004l-0.107,-0.07l-0.069,-0.074l-0.084,-0.028l-0.418,0.033l-0.102,-0.014l-0.06,-0.079l-0.083,-0.033l-0.07,0.005l-0.06,-0.023l-0.01,-0.056l-0.269,-0.25l-0.51,-0.747l-0.144,-0.065l-0.06,0.023l-0.116,-0.023l-0.065,-0.037l-0.492,-0.121l-0.139,-0.079l-0.005,-0.051l0.023,-0.037v-0.06l-0.041,-0.056l-0.019,-0.204l-0.07,-0.056l-0.069,0.005l-0.26,-0.102l-0.107,-0.065l-0.069,-0.135l-0.065,-0.037l-0.005,-0.037l0.028,-0.037l-0.005,-0.065l-0.028,-0.065l-0.004,-0.088l0.042,-0.14l0.064,-0.074v-0.055l-0.046,-0.042l0.005,-0.065l0.06,-0.088v-0.061l-0.144,-0.06l-0.004,-0.065l0.023,-0.046l-0.01,-0.061l-0.301,-0.111l-0.102,-0.009l-0.051,0.032l-0.061,-0.018l-0.018,-0.093l0.018,-0.056l0.075,-0.042l0.083,-0.167l0.07,-0.051v-0.041l-0.116,-0.042l-0.107,0.014l-0.056,-0.019l-0.009,-0.06l-0.19,-0.121l-0.046,-0.116l-0.079,-0.093l-0.14,-0.018l-0.157,0.014l-0.102,-0.042l-0.144,-0.204l-0.167,-0.125l-0.112,-0.089l-0.041,-0.134l-0.089,-0.07l-0.064,-0.004l-0.061,-0.037l-0.042,-0.205l-0.092,-0.162l-0.065,-0.032l-0.037,-0.033l0.004,-0.065l-0.042,-0.065l-0.078,-0.037l0.023,-0.046l0.074,-0.014l0.037,-0.047l-0.014,-0.148l0.042,-0.112l0.116,-0.06l0.097,-0.12l0.154,-0.061l0.162,0.014l0.097,0.028l0.047,-0.033l-0.01,-0.097l0.047,-0.037l0.134,0.009l0.191,-0.116l0.009,-0.06l-0.046,-0.056l0.004,-0.06l0.084,-0.093l0.009,-0.172l0.065,-0.148l0.005,-0.111l-0.075,-0.149l0.033,-0.088l0.158,-0.07l0.092,-0.083l0.019,-0.102l-0.056,-0.065v-0.07l-0.055,-0.028l-0.084,0.019l-0.111,-0.056l-0.005,-0.097l-0.037,-0.051l-0.093,-0.033l-0.014,-0.06l0.107,-0.158l0.028,-0.283l-0.074,-0.093v-0.046l0.046,-0.051v-0.232l-0.028,-0.084v-0.176l-0.218,-0.181l-0.009,-0.13l0.097,-0.055l0.019,-0.056l-0.005,-0.153l-0.06,-0.098l-0.051,-0.014l-0.037,0.038l-0.153,-0.028l-0.126,-0.107l-0.028,-0.046l0.075,-0.089l0.004,-0.116l-0.065,-0.064l-0.004,-0.061l0.055,-0.023l0.01,-0.042l-0.051,-0.055l0.027,-0.065l0.07,-0.005l0.209,-0.102l0.144,0.037l0.074,-0.037l-0.005,-0.098l0.037,-0.083l0.084,-0.028l0.023,-0.065l-0.028,-0.042l0.014,-0.051l0.065,-0.041l0.163,-0.028l0.027,-0.061l-0.092,-0.023l-0.038,-0.046l0.019,-0.07l-0.046,-0.171l-0.047,-0.065l-0.144,-0.014l-0.023,-0.042l0.07,-0.033v-0.051l-0.042,-0.013l-0.009,-0.052l0.032,-0.027l0.005,-0.042l-0.144,-0.111l-0.125,-0.01l-0.242,0.102l-0.208,-0.106l-0.024,0.046l-0.296,0.209l-0.154,0.037l-0.092,-0.023l-0.033,-0.084l-0.195,-0.009l-0.176,-0.265l0.116,-0.459l-0.06,-0.139l0.134,-0.13l0.005,-0.097l-0.102,-0.051l0.097,-0.061l-0.004,-0.39l-0.45,-0.162l-0.437,-0.714l0.033,-0.07l0.455,-0.255l0.009,-0.061l-0.195,-0.041l-0.046,-0.07l0.129,-0.227l0.005,-0.167l-0.102,-0.037v-0.075l0.056,-0.065l0.167,0.033l0.329,-0.093l0.334,-0.26l0.163,-0.074l0.204,0.051l0.301,-0.376l0.186,-0.079l-0.135,-0.181l-0.143,0.01l-0.089,-0.042l-0.037,-0.269l0.07,-0.255l0.209,0.014l0.12,-0.093l-0.246,-0.464l0.116,-0.019l0.028,-0.236l-0.014,-0.098l0.042,-0.06l-0.065,-0.056l0.06,-0.199l-0.041,-0.056l0.023,-0.07l0.079,-0.037l0.055,0.023l0.061,-0.004l0.028,-0.037l0.004,-0.065l-0.051,-0.051l-0.046,-0.102l0.014,-0.051l0.055,-0.01l0.033,-0.06v-0.07l0.037,-0.092l0.07,-0.056l0.004,-0.06l-0.093,-0.079l-0.116,-0.005l-0.102,0.056l-0.051,0.004l-0.032,-0.041l-0.074,0.004l-0.038,0.037l-0.106,0.019l-0.232,-0.005l-0.079,0.024l-0.074,-0.005l-0.163,-0.079l-0.102,-0.005l-0.055,0.037l-0.084,-0.009l-0.056,-0.042h-0.088l-0.06,0.038l-0.051,-0.01l-0.037,-0.06l-0.079,-0.019l0.004,-0.041l0.075,-0.005l0.065,0.023l0.032,-0.032l-0.032,-0.047l-0.107,-0.018l-0.274,-0.144l-0.065,-0.009l-0.06,0.027l-0.06,-0.004l-0.209,-0.098l-0.065,-0.06l-0.009,-0.088l0.078,-0.074v-0.088l-0.046,-0.056v-0.172l0.033,-0.032l0.004,-0.047l-0.074,-0.069l-0.111,-0.051l-0.005,-0.065l0.079,-0.181l0.046,-0.005l0.051,0.042l0.051,0.065l0.088,0.028l0.042,-0.014l0.047,0.009l0.027,0.051h0.07l0.056,-0.037h0.106l0.047,0.023h0.056l0.032,-0.032l0.158,-0.005l0.097,-0.051h0.209l0.111,-0.037l0.061,-0.056l0.074,-0.004l0.056,-0.061l-0.005,-0.042l0.028,-0.037h0.093l0.037,-0.055l0.134,-0.098l0.065,-0.014l0.07,0.019l0.028,-0.042l-0.028,-0.037l-0.112,-0.005l-0.051,0.038l-0.051,-0.005l-0.023,-0.042l-0.051,-0.014l-0.037,0.028l-0.056,-0.009l-0.06,-0.056l-0.074,-0.014l-0.093,-0.004l-0.111,-0.075l-0.028,-0.055l-0.506,-0.116l-0.199,-0.089l-0.618,-0.459l-0.088,-0.088l-0.069,-0.023l-0.126,-0.005l-0.078,-0.051h-0.103l-0.032,0.046l-0.07,0.028l-0.069,-0.014l-0.139,-0.19l0.046,-0.056l-0.07,-0.018l-0.227,-0.251l-0.232,0.279l-0.079,0.037l-0.06,-0.056h-0.093l-0.074,0.056l-0.153,0.014l-0.13,-0.074l-0.028,-0.103l-0.056,-0.051l-0.125,-0.009l-0.121,-0.046l-0.037,-0.074l-0.139,-0.075l-0.148,-0.037l-0.135,0.014l-0.195,-0.069l-0.074,-0.065l-0.079,-0.195l-0.097,-0.056l-0.149,0.023l-0.139,0.093l-0.098,0.005l-0.051,-0.033l-0.102,0.005l-0.088,0.069l-0.116,0.028l-0.102,0.074l-0.009,0.089l0.032,0.055l-0.009,0.07l-0.065,0.074l-0.097,-0.005l-0.079,-0.037l-0.019,-0.06l-0.065,-0.046l-0.111,-0.051l-0.014,-0.047l0.032,-0.023l-0.004,-0.051l-0.074,-0.042l-0.042,-0.116l-0.251,-0.153l-0.097,-0.005l-0.186,-0.078l-0.055,-0.075l-0.024,-0.19l-0.041,-0.13l-0.191,-0.153h-0.102l-0.116,0.06l-0.19,0.038l-0.144,-0.01l-0.125,-0.111l-0.014,-0.084l-0.06,-0.06l-0.209,0.005l-0.13,0.046h-0.079l-0.079,-0.051h-0.097l-0.056,0.023l-0.046,-0.018l-0.037,0.046l0.079,0.088l-0.024,0.037h-0.111l-0.084,-0.023l-0.083,0.023l-0.213,-0.088h-0.288l-0.107,0.065l-0.037,0.107h-0.111l-0.121,-0.051l-0.06,0.018l-0.116,0.121l-0.191,0.07l-0.255,-0.075l-0.589,0.038l-0.13,-0.061l-0.102,0.065l-0.065,0.167l-0.069,0.065l-0.084,-0.023l-0.079,0.023l-0.032,0.047l-0.214,0.041l-0.093,-0.028l-0.097,0.01l-0.056,0.032l-0.079,0.005l-0.027,-0.042l-0.042,0.005l-0.009,0.046l-0.041,0.009l-0.043,-0.037l-0.074,0.013l-0.031,0.074l-0.149,0.006l-0.216,-0.062l-0.173,0.019l-0.112,0.074l-0.519,0.093l-0.285,0.117h-0.192l-0.179,-0.074l-0.111,-0.006l-0.087,0.025l-0.105,-0.037l-0.087,-0.229l0.031,-0.198h-0.161l-0.062,-0.099l-0.198,0.086l-0.099,0.007l-0.061,-0.062h-0.069l0.007,0.062l-0.05,0.08l-0.068,0.012l0.006,0.081l-0.142,0.08l-0.13,0.124l-0.297,0.068l-0.371,0.012l-0.118,0.068l-0.049,0.087l-0.099,0.056l-0.031,0.074l0.025,0.087l-0.056,0.043l-0.229,-0.019l-0.099,-0.062l-0.117,-0.018l-0.211,0.111l-0.371,-0.093l-0.142,0.13l-0.105,0.007l-0.124,0.068l-0.05,0.092l-0.197,0.044l-0.099,-0.019l-0.124,-0.155l-0.013,-0.086l-0.086,-0.019l-0.112,0.087h-0.086l-0.081,-0.037l-0.309,-0.013l-0.185,0.081l-0.007,0.099l-0.062,0.055h-0.068l-0.049,0.025l-0.006,0.081l-0.062,0.037l-0.155,-0.031l-0.074,0.031l-0.08,0.105l-0.254,0.056l-0.26,0.006l-0.124,-0.044h-0.099l-0.074,0.038l-0.08,0.136l-0.155,-0.013l-0.148,-0.086h-0.106l-0.136,0.074l-0.161,0.006l-0.105,0.05l-0.123,0.185l-0.149,0.081l-0.322,-0.013l-0.154,0.044l-0.223,0.148l-0.247,0.05l-0.081,0.08l-0.037,0.353l0.012,0.136l0.106,0.074l0.006,0.087l-0.037,0.043l-0.087,0.006l-0.062,0.062l-0.006,0.08l-0.043,0.056l-0.136,0.049l-0.093,0.174l-0.013,0.229l-0.049,0.111l-0.118,0.056l-0.068,0.167l0.013,0.092l-0.093,0.18l-0.074,0.025l-0.081,0.111l-0.42,0.155l-0.211,0.278l-0.81,0.136l-0.186,-0.08l-0.253,0.086l-0.112,-0.006l-0.093,0.043l-0.055,0.068l-0.118,0.025l-0.086,-0.006l-0.112,0.043l-0.062,0.081l-0.105,0.018l-0.074,0.099l-0.025,0.093l-0.086,0.099v0.111l-0.087,0.155l-0.099,0.087l-0.105,0.006l-0.056,0.025l-0.074,-0.007l-0.093,-0.08l-0.136,-0.074l-0.043,-0.099l-0.099,-0.05l-0.087,0.013l-0.117,-0.013l-0.112,-0.043l-0.105,-0.006l-0.291,-0.099l-0.179,0.012l-0.012,-0.198l-0.167,-0.173l-0.137,-0.093l-0.117,-0.025l-0.149,-0.074l0.038,-0.074l-0.118,-0.012l-0.111,0.062h-0.192l0.025,0.068l-0.075,0.061l-0.272,0.068l-0.142,0.081l-0.279,-0.012l-0.371,-0.056l-0.365,0.111l-0.191,0.26l-0.304,0.062l-0.457,0.216l-0.075,0.192l-0.649,0.198l-0.272,-0.043l-1.609,0.52l0.019,0.204l0.13,0.055l-0.155,0.273l-0.742,0.482l-0.409,0.05l-0.47,0.21l-0.148,0.167l-0.328,-0.13l-0.235,0.087l-0.248,-0.359l-0.192,0.006l-0.228,-0.087l-0.539,0.099l-0.105,0.075l-0.099,0.253l-0.513,0.068l-0.143,-0.092l-0.674,0.018l-0.383,0.217l-0.155,-0.118l-0.359,0.056l-0.037,-0.167l-0.322,-0.242l-0.247,0.13h-0.359l-0.309,-0.13l-0.316,0.007l-0.297,-0.167l-0.396,0.21l-0.433,-0.05l-0.247,-0.191l-0.143,-0.285l-0.439,-0.136l-0.167,-0.483l0.068,-0.068l0.006,-0.309l-0.179,-0.284l0.068,-0.248l-0.482,-0.056l-0.093,-0.099l-0.576,0.007l-0.105,0.167l-0.315,0.204l-0.526,-0.272l-0.149,-0.149l-0.556,-0.124l-0.204,0.081l-0.285,-0.136l-0.309,0.031l-0.106,0.105l-0.099,0.334l-0.365,0.025l0.069,0.321l-0.112,0.18l0.019,0.161l-0.093,0.099l-0.155,0.068l-0.229,-0.031l-0.179,0.216l-0.272,0.013l-0.056,0.185l-0.173,-0.056l-0.18,0.155l-0.334,0.124l-0.074,0.111l-0.167,0.013l0.012,0.662l-0.204,0.253l-0.161,0.043l-0.365,-0.018l-0.068,0.074l0.093,0.118l-0.321,0.117l-0.192,0.192l-0.409,-0.124l-0.445,0.118l-0.402,0.204l-0.699,-0.043l-0.47,-0.402l0.012,-0.099l-0.21,-0.068l-0.019,-0.18l-0.105,-0.124l-0.136,-0.043l-0.266,0.161l-0.241,-0.006l-0.112,-0.062l-0.105,0.086l-0.13,-0.055h-0.216l-0.075,0.142l-0.111,-0.037l-0.142,0.074l-0.068,-0.043l-0.075,-0.297l-0.098,-0.056l-0.254,0.044l-0.161,-0.167l-0.093,-0.007l-0.037,-0.154l-0.408,0.123l-0.05,0.099l0.136,0.334l-0.142,0.174l-0.476,0.006l-0.136,-0.118l-0.273,0.025l-0.334,-0.161l-0.544,0.081l-0.408,-0.025l-0.093,-0.081l0.018,-0.136l-0.167,-0.043l-0.049,-0.186l-0.13,0.019l-0.254,-0.117l-0.13,0.105l-0.191,-0.007l-0.068,-0.074l-0.13,0.099l-0.105,-0.018l-0.019,-0.081l-0.087,0.006l-0.105,-0.061l-0.148,-0.019l-0.062,-0.08l0.025,-0.137l-0.042,-0.037l-0.065,0.024l-0.093,0.129l-0.111,0.079l-0.153,0.223l-0.084,0.028l-0.079,-0.023l-0.074,0.004l-0.315,0.209l-0.065,0.176l-0.047,0.265l-0.046,0.046v0.051l0.348,0.334l0.055,0.126l0.214,0.157l-0.042,0.056l-0.237,0.005l-0.134,-0.061l-0.074,0.005l-0.01,0.051l-0.055,0.014l-0.056,-0.032l-0.074,0.018l-0.042,0.088l-0.167,0.112l-0.009,0.083l0.065,0.065l-0.005,0.079l-0.079,0.037l-0.074,0.121l-0.107,0.046l-0.468,0.39l-0.13,0.014l-0.195,-0.079l-0.248,0.254l-0.006,0.092l0.064,0.062l-0.038,0.116l-0.046,0.023l-0.018,0.065l0.074,0.061v0.06l-0.102,0.065l0.009,0.135l0.083,0.106l-0.013,0.181l-0.038,0.093l-0.111,0.019l-0.083,0.065l-0.038,0.134l0.024,0.098l-0.047,0.041l-0.255,-0.06l-0.144,0.042l-0.042,0.079l0.047,0.139l0.069,0.051l0.005,0.144l-0.116,0.134l-0.028,0.116l-0.153,0.246l-0.009,0.116l0.028,0.093l-0.005,0.148l-0.083,0.121l-0.135,0.028l-0.032,0.065l0.018,0.069l0.116,0.098l0.005,0.12l-0.065,0.047l-0.098,0.19l-0.014,0.116l-0.092,0.13l0.004,0.097l0.098,0.079l0.014,0.079l-0.075,0.098l-0.065,0.014l-0.139,0.157l-0.116,0.07l-0.158,0.032l-0.083,0.065l-0.06,-0.004l-0.033,-0.042h-0.088l-0.023,0.037l-0.079,0.005l-0.102,-0.088l-0.065,-0.005l-0.074,0.06l-0.084,0.167l-0.097,0.019l-0.112,-0.019h-0.167l-0.106,-0.074l-0.07,-0.005l-0.042,0.047l-0.125,0.014l-0.065,-0.028l-0.097,-0.125l-0.047,0.013l-0.018,0.079l-0.116,0.107l-0.07,0.009l-0.037,-0.037l-0.492,0.04l-0.26,0.132l-0.153,0.014l-0.224,-0.102l-0.337,0.042l-0.116,0.097l-0.149,0.056l-0.195,0.009l-0.171,-0.046l-0.098,-0.107l-0.157,-0.042l-0.265,0.084l-0.167,0.116l-0.074,-0.01l-0.065,-0.083l-0.195,0.032l-0.014,0.074l-0.167,0.084l-0.005,0.046l0.079,0.084l0.088,0.186l0.065,0.032l0.01,0.046l-0.022,0.042l-0.022,0.084l0.047,0.04l-0.003,0.046l-0.081,0.056l-0.117,0.018l-0.056,-0.021h-0.105l-0.062,0.028v0.052l0.037,0.037v0.044l-0.08,0.089l-0.037,0.124l-0.016,0.105l-0.046,0.05v0.028l0.024,0.034l-0.058,0.086l-0.068,0.025l-0.041,0.133l-0.024,0.139l-0.05,0.087l0.013,0.055l-0.01,0.081l-0.04,0.043l-0.037,-0.015l-0.037,0.021l0.009,0.056l-0.034,0.012l-0.046,-0.049h-0.044l-0.049,-0.028l-0.077,-0.09h-0.072l-0.031,0.081l0.013,0.056l-0.043,0.037l-0.072,-0.013l-0.049,0.05l0.003,0.052l-0.053,0.028l-0.04,-0.043l-0.13,-0.04l-0.074,0.031l-0.019,0.068l-0.136,0.108l-0.037,0.068l-0.123,0.059l-0.135,0.014l-0.06,-0.037l-0.07,-0.01l-0.042,0.028l0.005,0.056l-0.042,0.028l-0.056,-0.01l-0.027,-0.065h-0.07l-0.051,0.07l0.005,0.056l0.055,0.027l0.037,0.052l-0.032,0.041l-0.046,-0.009l-0.051,0.042v0.125l0.051,0.037l0.06,0.005l0.046,0.032l0.07,0.023l0.042,-0.023l0.055,0.014l0.019,0.037l0.046,0.019h0.061l0.037,0.014l0.004,0.037l0.056,0.028l0.037,0.046l-0.004,0.19l-0.033,0.135l-0.019,0.167l-0.041,0.07l0.028,0.037l0.069,-0.005l0.042,0.037l0.083,0.019l0.028,0.065l-0.014,0.097l-0.065,0.042l-0.018,0.051l0.088,0.237l0.009,0.139l-0.065,0.283v0.074l0.056,0.019l0.019,0.055l-0.038,0.051l0.047,0.098l0.056,0.032l0.009,0.079l-0.07,0.07l-0.158,0.362l-0.097,0.097l-0.097,0.005l-0.093,0.125l-0.01,0.074l0.112,0.098l0.107,0.009l0.134,-0.014l0.042,0.028l-0.047,0.069l-0.088,0.042l-0.037,0.074l0.005,0.107l-0.037,0.07v0.074l0.283,0.404l0.171,0.13l0.042,0.097l0.023,0.139l0.093,0.125l0.06,0.13l0.121,0.065l0.2,0.023l0.106,0.042l0.051,0.07l0.163,0.102l0.093,0.102l0.027,0.144l0.126,0.125l0.092,0.051l0.163,0.009l0.083,0.042l0.01,0.06l0.046,0.052l0.019,0.102l-0.011,0.14l0.049,0.075l0.081,0.006l0.136,0.086l0.012,0.056l-0.049,0.05l0.024,0.086l0.167,0.099l0.075,0.062l0.111,0.006l0.167,0.155l0.056,0.006l-0.006,-0.062l0.049,-0.049l0.037,-0.099l0.062,-0.075l0.056,-0.012l0.043,0.05l0.062,0.006l0.049,-0.167l0.062,-0.019l0.105,0.037l0.068,0.105l0.056,0.013l0.043,-0.043l0.056,0.012l0.019,0.08l0.099,0.044l0.092,0.086l0.112,0.006l0.099,-0.086h0.099l0.049,0.037l0.093,0.006l0.05,-0.037l0.074,0.006l0.074,0.068l0.056,0.112l-0.037,0.061l-0.081,0.007l-0.025,0.068l0.044,0.074l-0.006,0.074l-0.087,0.043l-0.124,0.192l0.006,0.186l-0.074,0.148l-0.111,0.05l-0.05,0.148l0.056,0.068l0.019,0.099l-0.044,0.118l0.025,0.093l0.08,0.031l0.068,0.129l-0.03,0.087l0.074,0.062l0.13,-0.031l0.08,0.056l-0.043,0.099l0.018,0.074l0.174,0.136l0.123,0.025l0.112,0.062l0.08,0.074v0.173l-0.049,0.074v0.075l0.111,0.111l0.031,0.117l0.13,0.112l0.241,0.08l0.081,0.062l0.006,0.074l-0.068,0.062v0.136l0.08,0.075l0.006,0.068l-0.086,0.037l-0.025,0.111l0.025,0.099l-0.106,0.149l-0.129,0.043l-0.081,0.074l-0.043,0.087l-0.149,0.086l-0.086,0.099l-0.025,0.087l-0.133,0.221l0.023,0.079l-0.046,0.056l-0.037,-0.01l-0.037,0.037l0.004,0.093l-0.051,0.028l-0.227,-0.074l-0.102,0.009l-0.102,-0.032l-0.047,-0.07l0.019,-0.083l-0.042,-0.052l-0.065,0.005l-0.069,0.07l-0.121,0.065l-0.047,-0.019v-0.046l-0.064,-0.014l-0.056,0.097l-0.074,0.051l-0.038,0.088l-0.051,0.028l-0.051,-0.018l-0.051,-0.037l-0.051,0.014l0.019,0.055l-0.033,0.042h-0.069l-0.098,-0.028l-0.06,0.028v0.065l-0.074,0.046l-0.088,-0.009l-0.051,0.033l0.004,0.074l-0.037,0.037l-0.083,-0.023l-0.028,0.032l0.023,0.042l-0.032,0.056l-0.056,0.037l-0.019,0.106l0.056,0.116l-0.023,0.047l-0.079,0.018l-0.06,0.121l0.014,0.162l-0.042,0.038l-0.07,-0.014l-0.116,-0.098l-0.088,-0.009l-0.06,0.032l-0.163,0.005l-0.181,0.074l-0.069,0.079l-0.079,0.181l-0.065,-0.005l-0.07,-0.078l-0.13,-0.098l-0.092,-0.028l-0.079,-0.051l-0.019,-0.069v-0.075l-0.065,-0.06l-0.065,0.014l-0.046,-0.023l-0.047,-0.07l-0.111,-0.018l-0.079,0.014l-0.051,-0.033l0.005,-0.051l-0.037,-0.042l-0.079,-0.018l-0.056,-0.047v-0.06l-0.083,-0.223l-0.051,-0.004l-0.042,-0.028l-0.019,-0.116l0.01,-0.121l0.027,-0.055v-0.107l-0.046,-0.079l-0.032,-0.121l0.023,-0.083l0.079,-0.061l0.027,-0.065l0.028,-0.157l-0.051,-0.037l-0.023,-0.065l-0.107,-0.075l-0.023,-0.055l-0.06,-0.056v-0.074l0.046,-0.121l0.005,-0.069l-0.07,-0.047l-0.037,0.023v0.042l-0.06,0.084l-0.102,0.055l-0.251,0.075h-0.079l-0.06,0.032l-0.042,0.074h-0.069l-0.024,0.061l0.065,0.13l-0.004,0.074l-0.065,0.028h-0.065l-0.051,0.037l-0.07,0.004l-0.13,-0.041l-0.032,-0.061l-0.102,-0.055l-0.075,0.004l-0.037,0.051l-0.079,0.01l-0.046,-0.028l-0.056,0.018v0.079l-0.088,0.116l-0.074,0.028l-0.046,0.051l-0.056,0.005l-0.056,-0.037l-0.093,0.004l-0.06,0.051l-0.13,0.019l-0.088,0.055l-0.093,0.14l-0.065,0.037l0.003,0.06l0.087,0.05l0.087,0.105l0.024,0.093l0.136,0.167l0.019,0.08l0.118,0.149l-0.013,0.278l-0.074,0.068l-0.019,0.068l0.093,0.124l0.081,0.024l0.037,0.062l-0.044,0.18l0.031,0.055l0.13,0.044l0.025,0.111l-0.062,0.062l-0.055,0.117l0.012,0.044h0.074l0.105,0.08l0.056,0.124l0.068,0.049l0.08,0.137l0.05,0.086l0.074,0.043l0.099,-0.012l0.087,0.062l0.018,0.13l-0.024,0.08l0.024,0.081l0.174,0.117l0.055,0.099l0.136,0.062l0.087,0.006l0.111,0.037l0.044,0.075v0.074l-0.056,0.068l0.049,0.068l0.087,0.037l0.08,0.142l0.019,0.099l0.087,0.186l0.074,0.037l0.117,-0.006l0.075,0.056l0.031,0.167l-0.013,0.061h-0.074l-0.025,0.093l0.05,0.044v0.105l-0.068,0.031l-0.099,0.136l0.024,0.074l-0.018,0.049h-0.068l-0.006,0.062l0.105,0.025l0.012,0.062l-0.043,0.068v0.099l-0.043,0.105l-0.112,0.062l-0.099,0.136l-0.006,0.136l0.037,0.124l0.074,0.062l0.044,0.08l0.031,0.186l0.074,0.056l0.056,0.191l-0.013,0.081l0.056,0.043h0.086l0.13,-0.043l0.068,0.018l0.007,0.223l0.037,0.062l0.068,0.012l0.062,0.074l0.074,0.038l0.031,0.068l-0.025,0.068l-0.074,0.037l-0.013,0.074l-0.055,0.05h-0.062l-0.056,0.037l-0.031,0.074l-0.099,0.043l-0.074,0.087l-0.161,0.018l-0.111,0.068l-0.062,0.186l0.025,0.142l0.068,0.037l0.117,0.007l0.087,0.068l0.037,0.092l0.062,0.075l0.087,0.043l0.006,0.056l-0.093,0.055l-0.074,0.149l-0.068,0.037l-0.062,0.179l0.006,0.118l0.105,0.105l0.093,0.229l0.087,0.056l0.08,-0.019l0.062,0.025l0.006,0.043l0.118,0.043h0.123l0.025,-0.043l-0.043,-0.049l0.012,-0.056h0.068l0.087,0.08l0.024,0.081l0.056,0.037l0.068,-0.006l0.025,-0.056l-0.037,-0.049l0.043,-0.05l0.05,0.012l0.043,-0.031l0.006,-0.074l0.136,-0.179l0.019,-0.118l0.068,-0.012l0.074,0.062h0.056l0.025,-0.044h0.061l0.019,0.056l0.025,0.068l0.086,0.025l0.068,-0.025l0.025,-0.055l-0.049,-0.186l0.031,-0.093l-0.013,-0.179l0.056,-0.081l0.105,-0.049l0.074,0.043l0.062,-0.006l0.05,-0.08l0.006,-0.075l0.018,-0.055h0.062l0.044,0.055l0.074,-0.012l0.062,0.006l0.024,0.056l0.211,0.093l0.012,0.068l0.093,0.13l0.086,0.037l0.05,0.086l-0.05,0.093l0.038,0.105l0.099,0.044h0.08l0.093,0.024l0.086,0.087l-0.006,0.056l-0.049,0.08l0.031,0.111l0.136,0.099v0.099l-0.118,0.075l0.013,0.068l0.179,0.123l0.111,0.007l0.087,0.037l0.087,0.136l0.037,0.229l-0.025,0.099l0.049,0.13l0.075,0.105l0.167,0.08l0.068,-0.006l0.055,0.018l0.019,0.044l0.056,0.025l0.111,-0.025l0.118,0.055l0.018,0.106l-0.031,0.092l0.013,0.062l0.037,0.037l0.012,0.217l0.068,0.105l0.068,0.006l0.173,-0.08l0.211,0.006l0.068,0.043l0.031,0.13l-0.025,0.075l0.031,0.055l0.124,0.044l0.086,0.148l0.143,0.093l0.105,0.025l0.074,0.049h0.093l0.055,-0.068l0.068,-0.006l0.205,-0.087l0.055,-0.117l0.087,-0.007l0.117,0.056h0.075l0.111,-0.031l0.08,-0.049l0.075,-0.13h0.062l0.055,0.074l0.074,0.037l0.068,-0.018l0.118,0.055l0.08,0.062l0.124,0.012l0.081,-0.018l0.092,0.006l0.087,0.068l0.05,0.13l0.012,0.142l0.049,0.068l0.081,0.019l0.074,0.056l0.068,0.136l0.099,0.043l0.087,-0.031l0.204,0.068l0.154,0.099l0.081,0.099l0.111,0.068l0.136,0.037l0.124,0.112l0.05,0.13l0.167,0.136l0.092,0.018l0.031,-0.068l0.062,-0.025l0.068,0.013l0.044,-0.025v-0.056l0.049,-0.043l0.08,0.006l0.031,0.068l0.106,0.124l0.037,0.118l0.092,0.061l0.099,-0.03l0.069,0.018l0.061,0.136l-0.006,0.124l-0.055,0.018l-0.05,0.044l-0.006,0.099l-0.05,0.055h-0.105l-0.074,0.038l-0.028,0.117l0.033,0.084l0.116,0.088l0.004,0.079l-0.032,0.041l0.009,0.135l-0.023,0.102l0.004,0.06l0.065,0.042h0.061l0.065,0.019l0.065,0.051l0.074,0.023l0.121,-0.019l0.19,0.024l0.055,0.041l0.019,0.075l0.084,0.083l0.06,0.093l0.065,0.018l0.069,-0.027l0.079,0.013l0.051,0.038l0.061,0.014l0.116,-0.042l0.055,0.014l0.023,0.037l0.056,0.028l0.107,0.097l0.144,0.051l0.125,0.005l0.111,0.037l0.107,0.088l0.102,0.144l0.082,0.048l0.087,-0.013l0.086,-0.086l0.18,-0.05l0.068,0.019l0.012,0.049l0.043,0.019l0.044,-0.019l0.062,0.025l0.068,0.056l0.105,0.043l0.124,0.081l0.024,0.068l0.081,0.049h0.08l0.155,0.068l0.148,0.124l0.031,0.074l0.13,0.124l0.062,0.025l0.019,0.08l0.086,0.068v0.062l0.056,0.037l0.107,0.023l0.046,0.047l0.056,0.023l0.069,-0.028l0.102,0.014l0.075,0.07l0.065,0.023l0.125,-0.005l0.065,0.033l0.042,0.069l0.06,0.009l0.032,0.038l-0.014,0.064l0.024,0.038h0.051l0.074,-0.038h0.241l0.111,0.047l0.061,0.056l0.097,0.041l0.019,0.056l-0.023,0.07l0.032,0.069l0.079,0.056l-0.005,0.051l-0.041,0.009l-0.005,0.037z"/>
</svg>
