<svg xmlns="http://www.w3.org/2000/svg" viewBox="549.929 676.765 22.328 21.031">
  <path d="M555.624079,684.884954l0.064957,-0.015466l0.117542,0.043305l0.003093,0.043305l-0.080423,0.00928l-0.105169,-0.030932v-0.049491Z M563.488492,693.427986l0.071482,-0.027114l0.002465,-0.046833l-0.056693,-0.032044l-0.113385,0.029579l-0.002465,0.036973l0.098596,0.039438Z M555.070396,684.331271l0.148474,0.012373l0.259829,-0.092796l0.018559,-0.040212l-0.148474,-0.00928l-0.074237,-0.021652l0.003093,-0.024746l0.102076,-0.00928l0.003093,-0.037118l-0.315506,-0.108262l-0.194872,0.00928l-0.049491,0.071144l0.102076,0.185592l0.14538,0.064957Z M556.140644,684.878768l0.006186,0.030932l0.105169,0.040212l0.071144,-0.006186l0.00928,-0.030932l-0.095889,-0.030932l-0.095889,-0.003093Z M556.762377,685.299443l0.052584,-0.030932l0.003093,-0.089703l-0.043305,-0.015466l-0.040212,0.034025l-0.064957,-0.006186l-0.021652,0.030932l0.046398,0.064957l0.06805,0.012373Z M556.892291,685.908803l0.037118,0.003093l0.06805,-0.058771l-0.018559,-0.027839l-0.058771,0.006186l-0.018559,0.034025l-0.00928,0.043305Z M550.096724,679.205549l0.032044,-0.027114l-0.027114,-0.046833h-0.056693l-0.002465,0.051763l0.054228,0.022184Z M550.229828,679.097093l0.039438,-0.022184l-0.012324,-0.032044l-0.041903,-0.00493l-0.024649,0.032044l0.039438,0.027114Z  M569.954676,697.795885l0.083,-0.098l-0.017,-0.126l0.066,-0.223l-0.178,-0.332l-0.003,-0.268l-0.147,-0.119l0.025,-0.199l-0.13,-0.202l-0.188,-0.067l-0.084,0.091l-0.122,-0.189l-0.234,-0.118l-0.003,-0.154l0.412,-0.199l0.345,-0.401l0.409,-0.049l0.24,-0.402l-0.045,-0.324l0.101,-0.116l-0.052,-0.436l-0.219,-0.28l0.023,-0.107l-0.069,-0.061l-0.103,-0.009l-0.194,-0.307l0.024,-0.157l0.282,-0.192l0.032,-0.112l-0.093,-0.075l0.135,-0.183l0.301,-0.046l0.087,-0.091l0.195,-0.014l0.15,-0.122l0.032,-0.094l0.209,-0.066l-0.017,-0.196l-0.165,-0.095l-0.033,-0.131l-0.233,-0.139l-0.163,-0.019l-0.139,-0.163l-0.335,-0.177l-0.056,-0.169l-0.07,-0.014l-0.154,0.086l-0.116,-0.01v-2.639l0.6,-0.167l-0.013,-0.107l-0.173,-0.056l0.024,-0.177l-0.08,-0.158l0.168,-0.27l0.154,-0.019l0.139,0.135l0.075,-0.065l0.088,0.009l0.07,0.156l0.105,0.011l0.136,-0.028l0.101,0.063l-0.017,0.139l0.103,0.083l0.089,-0.014l0.046,0.056l-0.004,0.107l0.066,0.093l0.132,-0.011l0.105,0.063l0.15,-0.007l0.128,-0.082l0.005,-0.308l0.14,-0.014l0.088,0.126l0.088,-0.023l-0.065,-0.103l-0.004,-0.093l-0.277,-0.213l-0.06,-0.108l-0.015,-0.115l-0.171,-0.043l-0.148,0.04l-0.241,-0.04l-0.186,-0.062l-0.108,-0.09l-0.241,-0.049l-0.177,-0.331l0.037,-0.149l-0.055,-0.027l-0.152,0.052l-0.195,-0.127l-0.492,-0.689l-0.538,-0.65l-0.037,-0.139v-0.173l-0.213,-0.062l-0.161,0.077l-0.211,-0.108l-0.547,-0.715l-0.65,-0.798l-0.635,-0.751l-0.534,-0.891l-0.278,-0.487l-0.325,-0.975l-0.093,-0.487l-0.315,-0.668l-0.331,-0.217l-0.102,-0.012l0.142,0.192l-0.012,0.105l0.074,0.13l-0.04,0.164l0.086,0.235l-0.093,0.158l-0.151,0.024l-0.112,-0.018l-0.071,0.052l-0.269,0.081l-0.117,-0.006l-0.084,0.04l-0.025,0.072l-0.081,0.054l-0.096,-0.012l-0.099,0.032l-0.108,0.158l-0.099,0.014l-0.121,-0.024l-0.157,0.079l-0.109,-0.008l-0.052,-0.069l-0.167,-0.066l-0.062,-0.106l-0.19,-0.114l-0.123,-0.177l-0.052,0.005l-0.022,0.113l-0.061,0.01l-0.045,-0.044l-0.081,0.022l-0.022,0.081l-0.094,0.02l-0.131,-0.086h-0.066l-0.062,0.054l-0.084,-0.022l-0.019,-0.106l-0.062,-0.035l-0.219,0.015l-0.074,-0.025l-0.082,0.037l-0.064,-0.039l0.02,-0.049l-0.052,-0.037l-0.084,-0.005l-0.066,-0.057l0.007,-0.057l0.101,-0.027l0.05,-0.108l-0.087,-0.225l-0.202,-0.103l-0.148,0.002l-0.061,-0.042l-0.032,-0.098l-0.109,-0.052l-0.074,0.015l-0.088,-0.101l-0.003,-0.077l-0.042,-0.034l-0.066,0.01l-0.015,-0.035l0.069,-0.118l-0.109,-0.153l-0.108,0.113l-0.15,0.008l-0.148,0.148l-0.195,-0.032l-0.242,-0.271l-0.512,-0.203l-0.072,-0.123l-0.059,-0.012l-0.145,0.096l-0.4,-0.219l-0.093,-0.087l-1.524,0.917l-2.131,-0.809l-0.804,-0.399l-0.455,-0.016l-0.659,-0.241l-0.247,-0.309l-0.322,-0.05l-0.569,0.947l0.164,0.111l0.007,0.138l-0.096,0.091l-0.158,-0.002l-0.12,-0.129l-0.05,0.015l-0.005,0.062l-0.022,0.022l-0.059,0.015l-0.017,0.066l0.052,0.062l0.113,0.047l0.229,0.192l-0.01,0.076l-0.096,0.03l-0.017,0.039l0.032,0.05l-0.037,0.093l-0.052,0.013l-0.128,-0.069h-0.249l-0.133,0.042l-0.015,0.037l0.045,0.101l-0.045,0.029l-0.13,-0.096l0.019,-0.101l-0.036,-0.056l-0.201,0.01l-0.127,-0.028l-0.03,0.021l0.065,0.062l-0.041,0.068l-0.167,0.084l-0.12,0.012l-0.171,0.099l0.007,0.043l0.139,-0.037l0.34,0.152l0.037,0.096l0.056,0.037h0.213l0.174,0.034l0.009,0.053l-0.059,0.03l-0.022,0.056l0.087,0.077l0.198,0.019l0.179,-0.031l0.325,0.096l0.167,0.22l-0.018,0.126v0.223l0.058,0.257l-0.03,0.071l-0.124,0.071l-0.099,0.18l0.021,0.117l0.059,-0.006l0.037,-0.108l0.093,-0.081l0.087,-0.009l0.099,0.053l0.003,0.061l-0.158,0.208l-0.08,-0.028l-0.071,0.031l0.006,0.08l-0.044,0.04l-0.077,-0.015l-0.031,0.031l0.025,0.08l-0.111,0.028l-0.087,0.084l-0.198,0.074l-0.08,-0.065l-0.065,-0.003l-0.155,0.12l-0.034,0.078l0.062,0.173l0.12,0.071l0.041,0.133l-0.056,0.074l-0.09,0.007l-0.034,0.04l0.053,0.127l-0.127,0.08l-0.09,-0.019l-0.049,0.025l-0.124,0.195l-0.184,0.064l-0.005,0.064l0.13,0.038l0.088,0.125v0.097l-0.069,0.07v0.237l0.088,0.222l0.037,0.195l0.176,0.316l0.075,0.315l0.301,0.446l0.381,0.38l0.185,0.371l-0.028,0.135l0.075,0.046l0.106,-0.028l0.084,0.037l0.051,0.061l0.445,0.106l0.163,-0.023l0.088,0.014l0.046,0.065l0.255,0.079l0.144,-0.037l0.265,0.079l0.153,-0.01l0.26,0.121l0.088,0.084l0.237,0.074l0.208,0.213l0.014,0.126l0.26,0.19l0.181,0.385l0.339,0.371l0.037,0.218l0.125,0.121l0.079,0.014l0.13,-0.065l0.153,-0.52l0.227,-0.199l0.135,-0.028l0.088,-0.079v-0.084l-0.088,-0.051l-0.009,-0.088l0.065,-0.093l0.097,-0.014l0.079,0.079l0.107,0.028l0.06,-0.028l-0.014,-0.097l0.051,-0.047l0.074,-0.009l0.042,-0.032l0.009,-0.075l0.2,-0.236l0.162,-0.056l0.01,-0.074l-0.144,-0.028l-0.088,0.047l-0.089,-0.014l-0.041,-0.089l0.088,-0.065l0.018,-0.083l-0.13,-0.065l-0.009,-0.116l0.079,-0.093l-0.028,-0.134l-0.158,-0.084l-0.245,0.005l-0.228,-0.079l-0.134,-0.13l-0.209,-0.056l-0.158,0.01l-0.311,-0.126l-0.12,-0.199l0.092,-0.102l-0.014,-0.07l-0.157,-0.039l-0.155,-0.191l-0.161,-0.044l-0.105,-0.136l-0.034,-0.351l0.019,-0.371l-0.014,-0.121l-0.089,-0.083l-0.153,-0.079l-0.046,-0.042l0.009,-0.13l-0.028,-0.055l0.005,-0.037l0.07,0.055l0.009,0.13l0.184,0.101l0.142,0.154v0.174l0.105,0.185l0.458,0.099l0.167,-0.062l0.143,0.037l0.049,0.112l0.124,0.099h0.179l0.13,0.068l0.08,0.123l0.093,0.069l0.149,0.03l0.099,0.093l0.018,0.105l0.217,0.205l0.501,0.272l0.588,0.105l0.123,0.068l0.118,0.266l-0.043,0.173l0.099,0.198l0.179,0.118l0.353,0.55l-0.019,0.186l-0.241,0.284l-0.013,0.149l-0.068,0.068l0.019,0.074l0.111,0.013l0.056,0.074l-0.031,0.068l0.192,0.148l0.037,0.118l0.495,0.39l0.124,0.043l0.321,-0.068l0.842,0.235l0.365,0.062l0.699,0.266l0.167,0.142l0.024,0.192l0.18,0.111l0.117,-0.018l0.737,0.278l0.433,0.217l0.519,0.408l0.124,0.167l0.266,0.08l0.241,0.211l0.025,0.192l0.043,0.03l0.081,-0.03l0.123,0.052l0.406,0.433l0.173,0.334l0.006,0.294l0.071,0.118l0.016,0.287l0.182,0.096l0.003,0.084l-0.114,0.031l-0.013,0.065l0.118,0.061l0.037,0.112l-0.049,0.108l-0.229,0.077l-0.096,0.177l-0.016,0.222l0.028,0.14l-0.052,0.074l-0.007,0.179l-0.083,0.059l-0.136,-0.028l-0.133,0.043l-0.084,0.115l0.003,0.142l-0.021,0.04l-0.078,0.022l-0.034,0.05l0.022,0.293l0.05,0.053l0.08,0.003l0.062,0.031l0.284,0.309l0.257,0.186l0.152,0.152l0.071,0.142l0.176,0.12l0.149,0.019l0.179,-0.062l0.118,0.003l0.374,0.081l0.371,0.17l0.217,0.077l0.34,0.155l0.111,-0.028l0.047,-0.056l-0.013,-0.062l0.025,-0.238l-0.04,-0.065v-0.055l0.052,-0.081l-0.006,-0.099l-0.071,-0.056l-0.049,-0.102l0.043,-0.219l-0.022,-0.031l-0.077,0.012l-0.142,-0.179l-0.146,-0.062l-0.164,0.006l-0.086,-0.028l-0.322,-0.3l-0.034,-0.099l0.037,-0.086l-0.031,-0.062l-0.213,-0.17l-0.065,-0.127l0.028,-0.087l0.204,-0.015l0.08,0.04h0.111l0.072,-0.111l0.136,-0.047l0.256,0.028l0.09,0.099l-0.028,0.102l0.01,0.124l0.046,0.052l0.071,0.004l0.05,0.034l0.021,0.058l0.068,0.044l0.201,-0.013l0.072,0.034l0.046,0.136l0.071,0.025l0.068,-0.04l0.235,0.065l0.059,-0.071h0.059l0.229,0.179l0.024,0.118l-0.126,0.055l-0.059,-0.046l0.018,-0.049l-0.003,-0.078l-0.08,-0.025l-0.047,0.068l0.059,0.164l0.161,0.158l0.006,0.149l0.341,0.442l0.003,0.111l-0.171,0.248l-0.086,0.018l-0.102,0.127l-0.016,0.155l0.238,0.249l0.372,0.182l0.525,0.373l0.289,0.441l0.029,0.165l0.17,0.288l-0.005,0.141l-0.064,0.074l-0.015,0.14l0.073,0.109z"/>
</svg>
