<svg xmlns="http://www.w3.org/2000/svg" viewBox="556.496 594.541 71.421 23.969">
  <path d="M619.284092,612.180833l0.188807,0.024746l0.08357,0.040212l0.207379,0.012373l0.222855,0.089703l-0.003095,0.049491l-0.188807,0.071144l-0.001548,0.091249l0.097499,0.091249l0.324996,0.105169l0.106784,-0.057224l-0.020119,-0.103622l-0.099046,-0.015466l-0.15476,-0.129914l0.021666,-0.071144l0.103689,-0.027839l0.34821,-0.00464l0.306425,0.032479l0.273925,0.115995l0.0325,0.060317l0.111427,0.00928l0.088213,-0.041758l0.482852,0.037118l0.176427,-0.046398l0.329639,0.00928l0.176427,0.060317l0.129999,0.134554l0.366781,0.083516l0.259997,0.185592l0.278568,0.037118l0.38071,-0.00464l0.069642,0.046398l0.027857,0.097436l-0.078928,0.129914l0.092856,0.153113l0.222855,0.111355l0.640707,0.431501l0.403924,0.445421l0.051071,0.204151l0.153213,0.23663l0.125356,0.051038l0.111427,-0.032479l0.111427,0.018559l0.408567,0.343345l0.194998,0.041758l0.34821,-0.023199l0.199641,-0.106715l0.372972,-0.001547l0.420948,0.296947l0.123808,0.383557l-0.07738,0.225804l-0.479756,0.293854l-0.105237,0.167033l0.009286,0.170126l-0.185712,0.139194l-0.241426,-0.00928l-0.167141,-0.074237l-0.399281,0.027839l-0.569517,0.111355h-0.389996l-0.229045,0.092796l-0.352853,-0.012373l-0.14857,0.06805l-0.198093,-0.012373l-0.173331,-0.055678l-0.482852,0.024746l-0.507613,0.136101l-0.247616,0.290761l-0.352853,0.092796l-0.266187,0.303134l-0.371424,0.136101l-0.396186,0.024746l-0.365234,0.080423l-0.099046,-0.06805l0.012381,-0.117542l0.210474,-0.129914l-0.030952,-0.167033l0.030952,-0.117542l0.198093,-0.123728l0.123808,-0.204151l-0.086666,-0.173219l-0.160951,0.012373l-0.037142,0.123728l-0.111427,0.043305h-0.15476l-0.086666,0.08661l0.049523,0.117542l0.086666,0.043305l0.018571,0.111355l-0.043333,0.185592l-0.15476,0.098982l-0.061904,0.117542l-0.427138,0.129914l-0.290949,0.117542l-0.705706,-0.024746l-0.204283,-0.117542l-0.086666,0.024746l-0.099046,0.08661l-0.879038,-0.074237l-0.328091,-0.235083l-0.284759,-0.092796l-0.068094,-0.098982l-0.136189,-0.024746l-0.173331,0.061864l-0.532375,-0.105169l-0.210474,-0.006186l-0.055714,-0.185592l0.185712,-0.142287l-0.024762,-0.06805l-0.173331,0.030932l-0.092856,0.179406l0.043333,0.117542l-0.061904,0.049491l-0.321901,0.037118l-0.160951,0.06805l-0.903799,-0.08661l-0.321901,-0.123728l-0.718087,-0.055678l-0.569517,0.216524l-0.854276,0.012373l-0.4519,0.098982l-0.526184,-0.018559l-0.321901,-0.080423l-0.099046,0.012373l-0.099046,0.080423l-0.414757,0.018559l-0.204283,0.08661l-0.396186,-0.012373l-0.086666,-0.012373l-0.142379,0.061864l-0.235235,0.173219l-0.253807,0.043305l-0.160951,0.06805l-0.383805,-0.037118l-0.625231,-0.018559l-0.321901,-0.142287h-0.099046l-0.142379,0.049491l-0.507613,-0.037118l-0.176427,0.071144l-0.013928,0.088156l0.074285,0.037118v0.051038l-0.120713,0.051038l-0.102142,0.092796l-0.436424,0.041758l-0.194998,-0.078877l-0.14857,0.00928l-0.218212,0.092796l-0.543208,-0.023199l-0.250711,0.037118l-0.283211,0.111355l-0.176427,-0.00464l-0.241426,-0.069597l-0.111427,-0.111355l0.004643,-0.190232l0.236783,-0.320146l0.139284,-0.018559l0.125356,-0.148474l0.023214,-0.102076l0.269283,-0.412942l0.315711,-0.250549l0.004643,-0.083516l-0.078928,-0.032479l0.009286,-0.060317l0.250711,0.037118l0.222855,-0.097436l0.297139,-0.352625l0.26464,-0.129914l0.218212,-0.22735l0.362139,-0.157753l0.41321,-0.134554l0.157855,-0.180952l-0.004643,-0.120635l0.046428,-0.041758l0.092856,0.013919l0.018571,0.088156l0.111427,0.018559l0.213569,-0.097436l0.125356,-0.194872l0.027857,-0.115995l0.060356,-0.064957l0.176427,-0.046398l0.11607,-0.213431l-0.023214,-0.125275l0.018571,-0.102076l0.08357,-0.064957l0.069642,-0.287668l-0.176427,-0.301587l-0.143927,-0.092796l-0.26464,-0.060317l-0.106784,-0.115995l-0.055714,0.013919l0.018571,0.074237l-0.069642,0.00928l-0.227497,-0.064957l-0.074285,-0.088156l0.013928,-0.190232l0.074285,-0.125275l0.139284,-0.037118l0.088213,-0.115995l-0.037142,-0.078877l-0.273925,-0.162393h-0.060356l-0.0325,0.102076h-0.046428l-0.259997,-0.361904l-0.176427,-0.120635l-0.273925,0.013919l-0.222855,0.125275l-0.338925,0.092796l-0.060356,0.060317l-0.120713,0.013919l-0.283211,-0.111355l-0.297139,-0.051038l-0.482852,0.037118l-0.450352,-0.023199l-0.139284,0.023199l-0.213569,-0.041758l-0.143927,-0.078877l-0.204283,-0.032479l-0.092856,-0.088156h-0.34821l-0.08357,0.060317l-0.004643,0.078877l-0.055714,0.051038l-0.088213,0.00464l-0.222855,-0.051038l-0.376067,0.018559l-0.246069,-0.083516l-0.23214,-0.190232l-0.26464,-0.111355l-0.125356,-0.194872l-0.139284,-0.23199l-0.204283,-0.111355l-0.171784,0.00464l-0.102142,-0.018559l-0.111427,0.023199l-0.060356,-0.037118l-0.023214,-0.185592l-0.074285,-0.083516l-0.018571,-0.111355l-0.078928,-0.064957l-0.204283,-0.064957l-0.14857,-0.088156l-0.0325,-0.111355l-0.064999,-0.046398l-0.269283,-0.027839l-0.120713,-0.060317l-0.023214,-0.139194l-0.167141,-0.134554l-0.362139,-0.194872l-0.092856,-0.153113l0.041785,-0.208791l-0.0325,-0.171673l-0.060356,-0.106715l-0.004643,-0.106715l0.041785,-0.115995l-0.027857,-0.162393l-0.134641,-0.194872l-0.004643,-0.213431l-0.055714,-0.134554l0.0325,-0.074237h0.097499l0.041785,-0.078877l-0.046428,-0.060317l-0.120713,-0.032479l-0.129999,-0.22735l-0.064999,-0.218071l0.009286,-0.194872l-0.167141,-0.306227l-0.041785,-0.185592l-0.194998,-0.347985l-0.371424,-0.343345l-0.427138,-0.092796l-0.106784,0.051038l-0.092856,0.157753l-0.046428,-0.00464l-0.009286,-0.125275l0.171784,-0.245909l0.074285,-0.027839l0.269283,0.055678l0.055714,-0.041758l-0.185712,-0.157753l-0.046428,-0.088156l-0.162498,-0.027839l-0.622136,0.069597l-0.287854,0.162393l-0.111427,0.00928l-0.255354,-0.046398l-0.259997,0.055678l-0.162498,0.046398l-0.222855,0.00464l-0.41321,0.213431l-0.445709,0.083516l-0.376067,-0.032479l-0.46428,-0.173219l-0.26464,-0.176312l-0.167141,-0.018559l-0.246069,0.046398l-0.306425,-0.051038l-0.297139,-0.269108l-0.102142,0.00928l-0.07119,0.117542l-0.049523,0.00464l-0.069642,-0.102076l-0.125356,-0.032479l-0.157855,0.00464l-0.060356,-0.027839l-0.013928,-0.120635l-0.181069,-0.120635l-0.241426,-0.069597l-0.218212,0.074237l-0.125356,-0.00464l-0.306425,-0.199511l-0.259997,-0.037118l-0.111427,0.064957l-0.004643,0.204151l-0.064999,0.018559l-0.111427,-0.143834l-0.14857,-0.037118l-0.092856,0.013919l-0.023214,-0.069597l0.08357,-0.125275l-0.060356,-0.162393l-0.097499,-0.00928l-0.102142,0.069597l-0.468923,-0.115995l-0.139284,0.018559l0.013928,0.046398l0.185712,0.069597l0.013928,0.051038h-0.111427l-0.246069,-0.162393l-0.055714,-0.301587l-0.129999,-0.088156l-0.557136,-0.111355l-0.478209,-0.283028l-0.157855,-0.051038l-0.403924,-0.296947l-0.08357,-0.167033l-0.236783,-0.23663l-0.343567,-0.287668l0.009286,-0.088156l-0.08357,-0.060317l-0.14857,-0.023199l-0.078928,-0.120635l0.013928,-0.083516l0.241426,-0.013919l0.064999,-0.055678l-0.037142,-0.176312l-0.338925,-0.296947l-0.009286,-0.102076l-0.14857,-0.106715l-0.301782,-0.032479l-0.060356,0.078877l0.074285,0.157753l0.385353,0.389743l0.046428,0.143834l0.004643,0.134554l0.037142,0.055678l-0.069642,0.032479l-0.278568,-0.143834l-0.315711,-0.013919l-0.199641,0.102076h-0.139284l-0.139284,-0.037118 l-0.584993,-0.023199l-0.208926,-0.027839l-0.301782,0.018559l-0.445709,0.115995l-0.631421,-0.00464l-0.603564,-0.180952l-0.422495,-0.283028l-0.194998,-0.436141l-0.013928,-0.24127l0.037142,-0.088156l-0.037142,-0.074237l-0.060356,-0.027839l-0.111427,-0.23663l-0.125356,-0.106715l-0.106784,0.00464l-0.055714,0.060317l0.064999,0.120635l0.08357,0.324786l-0.027857,0.255189l-0.051071,0.092796l0.009286,0.153113l0.074285,0.283028l-0.055714,0.22735l-0.069642,0.064957l-0.069642,-0.023199l0.018571,-0.064957l0.069642,-0.018559l0.0325,-0.157753l-0.102142,-0.22271l-0.199641,-0.102076l-0.139284,0.069597l-0.004643,0.115995l0.041785,0.078877l-0.08357,0.153113h-0.120713l-0.097499,-0.055678l-0.106784,0.013919l-0.064999,0.060317l-0.125356,-0.023199l-0.064999,-0.167033l-0.111427,-0.078877l-0.018571,-0.269108l-0.181069,-0.194872l-0.371424,-0.00464l-0.125356,-0.097436l-0.199641,-0.018559l-0.278568,0.162393l-0.064999,-0.00928l-0.069642,-0.078877l-0.250711,-0.032479l-0.120713,0.055678l-0.102142,-0.023199l-0.08357,-0.083516l-0.060356,0.018559l0.041785,0.088156l0.171784,0.083516l0.009286,0.069597l-0.051071,0.00464l-0.051071,-0.055678l-0.139284,-0.074237l-0.111427,-0.120635l-0.208926,0.027839l-0.11607,0.097436l-0.027857,0.083516l-0.097499,-0.00928l-0.0325,-0.083516l-0.14857,-0.027839l-0.106784,0.018559l-0.153213,-0.115995l-0.08357,-0.037118l-0.055714,-0.278388l-0.14857,-0.120635l-0.445709,-0.097436l-0.134641,-0.051038l-0.468923,-0.343345l-0.11607,-0.049491l-0.250711,-0.030932l-0.043333,-0.037118l0.015476,-0.136101l-0.046428,-0.064957l-0.068094,-0.003093l-0.114522,0.071144l-0.052618,-0.021652l-0.015476,-0.08661l-0.092856,-0.083516l0.012381,-0.092796l0.105237,-0.133008l0.102142,-0.052584l0.08357,0.003093l0.058809,0.018559h0.129999l0.086666,-0.030932l0.362139,0.006186l0.08357,0.027839h0.105237l0.095951,-0.052584l0.099046,-0.006186l0.111427,0.034025l0.128451,0.006186l0.102142,-0.041758h0.176427l0.218212,0.060317l0.236783,-0.023199l0.334282,-0.134554l0.181069,-0.046398l0.106784,0.013919l0.241426,-0.097436l0.14857,-0.106715l0.018571,-0.106715l-0.013928,-0.218071l0.074285,-0.255189l-0.046428,-0.046398l-0.125356,-0.023199l-0.269283,-0.180952l-0.11607,-0.139194l-0.431781,-0.208791l-0.501423,-0.139194l-0.687135,0.00928l-0.589636,0.083516l-0.129999,0.064957l-0.102142,-0.013919l-0.524637,-0.190232l-0.64535,-0.027839l-0.343567,0.064957l-0.519994,-0.046398l-0.287854,0.023199h-0.120713l-0.111427,-0.041758h-0.222855l-0.143927,0.092796l-0.060356,0.00464l-0.074285,-0.097436l-0.102142,-0.018559l-0.273925,0.060317l-0.129999,-0.00928l-0.482852,-0.167033l-0.259997,0.023199l-0.139284,0.088156l0.013928,0.120635l0.046428,0.046398l-0.00798,0.033204l-0.056729,0.024649l-0.034531,0.101061l0.009866,0.088736l-0.103593,0.142964l-0.18252,0.11585l-0.256515,0.061622l-0.172654,0.145429l-0.04193,0.078877l-0.108526,0.049298l-0.239249,0.002465l-0.036997,0.022184l-0.029598,0.108455l-0.145523,0.066552l-0.29743,0.067567l-0.227497,0.129914l-0.078928,-0.00928l-0.046428,0.037118l-0.027857,0.125275l-0.227497,0.399023l-0.023214,0.139194l-0.181069,0.329426l-0.14857,0.097436l-0.176427,0.013919l-0.185712,-0.111355l-0.176427,-0.013919l-0.069642,0.060317l0.009286,0.074237l-0.041785,0.023199l-0.064999,-0.023199l-0.041785,0.023199l0.013928,0.153113l-0.0325,0.092796l-0.167141,0.074237l-0.037142,0.060317l0.037142,0.148474l-0.0325,0.055678l-0.102142,0.023199l-0.037142,0.046398l-0.037142,0.120635l-0.125356,0.092796l-0.190355,-0.00464l-0.060356,0.032479l-0.060356,0.083516l-0.08357,0.00464l-0.106784,-0.018559l-0.106784,0.027839l-0.102142,0.083516l-0.060356,-0.00928l-0.102142,-0.074237l-0.246069,-0.064957l-0.097499,-0.097436l-0.004643,-0.111355l-0.08357,-0.115995l-0.037142,-0.013919l-0.120713,0.097436l-0.23214,0.315506l-0.097499,0.027839l-0.069642,0.060317l-0.060356,-0.018559l-0.037142,-0.106715l-0.069642,-0.027839l-0.051071,0.027839l-0.013928,0.069597l-0.046428,0.00464l-0.092856,-0.023199l-0.14857,0.00928l-0.129999,0.083516h-0.213569l-0.074285,-0.041758l-0.181069,-0.00464l-0.097499,0.032479l-0.190355,-0.013919l-0.088213,-0.041758l-0.250711,0.046398l-0.283211,0.208791l-0.078928,0.153113l-0.023214,0.162393l0.041785,0.064957l-0.013928,0.088156l-0.157855,0.069597l-0.023214,0.115995l0.051071,0.120635l0.097499,0.055678l0.037142,-0.013919l0.023214,-0.097436l0.046428,-0.013919l-0.009286,0.074237l-0.069642,0.139194l-0.196545,0.191778l-0.018571,0.098982l0.043333,0.074237l-0.030952,0.142287l-0.111427,0.129914l-0.123808,0.049491l-0.092856,-0.030932l-0.216664,-0.123728l-0.427138,0.037118l-0.526184,0.204151l-0.222855,0.024746l-0.30952,0.15466l-0.736658,0.655758l-0.179522,0.08661l-0.198093,0.012373l-0.210474,0.055678l-0.068094,-0.037118l0.049523,-0.30932l0.15476,-0.253642l0.173331,-0.160846l0.030952,-0.142287l-0.105237,-0.204151l-0.216664,-0.117542l-0.352853,-0.006186l-0.773801,0.235083l-0.30952,0.15466l-0.359043,0.389743l-0.117618,0.061864l-0.191903,-0.012373l-0.649993,-0.117542l-0.167141,-0.136101l-0.024762,-0.179406l0.160951,-0.278388h0.092856l0.129999,0.160846l0.30952,0.018559l0.123808,-0.037118l0.061904,-0.06805l-0.068094,-0.136101h-0.105237l0.012381,-0.049491l0.111427,-0.024746l0.099046,0.061864l0.024762,0.117542l0.086666,0.006186l0.235235,-0.098982l0.204283,-0.148474l0.247616,-0.142287l0.46428,-0.123728l0.284759,-0.117542l0.272378,-0.228897l0.315711,-0.105169l0.061904,0.030932v0.129914l0.123808,0.06805h0.210474l0.185712,-0.173219l0.142379,-0.012373l0.198093,0.098982l0.018571,0.129914l0.117618,0.105169l0.099046,-0.030932l0.030952,-0.092796l0.068094,-0.037118l0.111427,0.006186l0.055714,-0.061864l-0.012381,-0.210338l0.049523,-0.129914l-0.043333,-0.043305l-0.061904,0.08661l-0.018571,0.197965l-0.080475,0.061864l-0.086666,-0.006186l-0.055714,-0.105169l0.024762,-0.148474l-0.055714,-0.129914l-0.123808,-0.037118l-0.00619,-0.06805l0.043333,-0.15466l-0.068094,-0.074237l-0.210474,-0.030932l-0.030952,-0.061864l-0.061904,-0.012373l-0.061904,0.018559l-0.043333,-0.06805l0.037142,-0.142287l-0.068094,-0.167033l-0.061904,-0.024746l-0.08357,0.041758l-0.021666,-0.041758l0.15476,-0.167033l0.117618,-0.433048v-0.284574l0.160951,-0.22271l0.024762,-0.123728l0.049523,-0.043305l0.111427,-0.012373l0.117618,-0.111355l0.074285,-0.173219l0.236783,-0.238176v-0.055678l-0.055714,-0.018559l-0.069642,0.023199v-0.046398l0.069642,-0.041758l0.213569,0.018559l0.292497,-0.218071l0.08357,-0.115995l-0.009286,-0.171673l-0.092856,-0.074237l0.023214,-0.060317l0.283211,-0.064957l0.181069,0.069597l0.078928,-0.027839l0.08357,-0.301587l0.051071,-0.032479l0.041785,0.032479l0.0325,0.055678l0.069642,0.00464l0.060356,-0.097436l-0.023214,-0.125275l0.041785,-0.055678l0.153213,-0.046398l0.097499,0.055678l0.055714,-0.023199l0.064999,-0.24127l-0.08357,-0.134554h-0.097499l-0.004643,-0.037118l0.129999,-0.051038l0.069642,0.027839l0.08357,0.204151l0.14857,0.032479l0.26464,-0.143834l0.106784,-0.153113l0.129999,-0.032479l0.102142,0.055678l0.055714,-0.027839l0.0325,-0.143834l0.125356,-0.064957l0.255354,0.027839l0.306425,-0.115995l0.153213,-0.097436l0.227497,-0.069597l0.037142,-0.134554l0.074285,-0.023199l0.176427,0.051038l0.069642,0.092796l0.125356,-0.00464l0.092856,-0.083516l-0.013928,-0.074237l-0.041785,-0.041758l0.0325,-0.064957l0.143927,-0.041758l0.236783,0.032479l0.078928,0.046398l0.046428,-0.018559l0.08357,-0.148474l-0.009286,-0.102076l0.027857,-0.041758l0.139284,0.00464l0.08357,0.074237l0.185712,-0.037118l0.102142,-0.162393l-0.051071,-0.111355l0.060356,-0.083516l0.111427,-0.00928l0.273925,0.180952l0.0325,0.102076l0.046428,0.00928l0.088213,-0.143834l0.185712,-0.153113l0.009286,-0.078877l0.52928,-0.403663l0.352853,-0.120635l0.204283,0.041758l0.102142,0.092796l-0.023214,0.083516l-0.129999,0.074237l-0.023214,0.134554l0.08357,0.060317l0.190355,-0.00928l0.051071,-0.088156l-0.013928,-0.074237l-0.069642,-0.064957l0.023214,-0.120635l0.074285,-0.088156l0.315711,-0.023199l0.176427,-0.060317l0.283211,-0.00928l0.129999,-0.041758l0.129999,0.037118l0.004643,0.055678l-0.134641,0.032479l-0.051071,0.102076l0.069642,0.111355h0.157855l0.078928,-0.088156l0.227497,-0.046398l0.027857,-0.060317l-0.088213,-0.060317l-0.102142,0.00928l-0.055714,0.055678l-0.041785,-0.027839l0.027857,-0.097436l0.106784,-0.064957l0.389996,-0.00464l0.190355,-0.046398h0.371424l0.129999,-0.037118l0.134641,0.027839l0.018571,0.051038l-0.046428,0.102076l0.0325,0.051038l0.074285,-0.018559l0.023214,-0.092796l-0.037142,-0.051038l0.0325,-0.032479l0.343567,-0.013919l0.441066,-0.106715l0.250711,-0.023199l0.371424,-0.120635l0.14857,-0.162393l0.167141,-0.064957h0.11607l0.102142,-0.041758l0.306425,-0.315506l0.120713,-0.046398l0.092856,0.018559l0.088213,-0.00464l0.08357,-0.069597l0.255354,-0.078877l0.171784,-0.00464l0.143927,-0.046398l0.394638,-0.013919l0.329639,0.051038l0.329639,-0.00928l0.08357,-0.064957l0.366781,-0.051038l0.250711,0.037118l0.097499,0.106715l0.366781,0.083516l0.315711,-0.00464l0.157855,0.046398l0.742849,0.041758l0.134641,-0.051038l0.102142,-0.00464l0.176427,0.064957h0.111427l0.08357,-0.055678l0.278568,-0.00928l0.311068,0.083516l0.153213,0.139194l0.074285,0.194872l-0.009286,0.143834l-0.11607,0.111355l-0.143927,0.060317l-0.018571,0.046398l0.060356,0.032479l0.292497,-0.037118l0.111427,-0.055678l0.097499,-0.157753l0.009286,-0.102076l0.064999,-0.041758l0.143927,0.032479l0.106784,-0.00928l0.297139,-0.162393l0.143927,-0.018559l0.078928,-0.069597l0.176427,-0.060317l0.190355,-0.013919l0.111427,-0.032479l0.250711,-0.129914l0.26464,-0.167033l0.14857,-0.023199l0.153213,-0.115995l0.134641,-0.013919l0.14857,0.097436l-0.009286,0.037118l-0.055714,0.00928l-0.097499,-0.041758l-0.134641,0.046398l-0.074285,0.102076l-0.069642,0.00464l-0.120713,-0.013919l-0.278568,0.162393l-0.139284,0.051038l-0.097499,0.129914l0.027857,0.051038l0.143927,0.046398l0.08357,0.060317l0.074285,0.139194l0.315711,0.338705l0.311068,0.083516l0.11607,-0.023199l0.181069,-0.24127l0.064999,-0.190232l0.204283,-0.115995l0.157855,0.013919l0.069642,0.051038l0.069642,-0.00464v-0.078877l0.041785,-0.00928l0.069642,0.102076l-0.027857,0.125275l0.046428,0.115995l0.181069,0.046398l0.468923,-0.139194l0.38071,-0.018559l0.376067,-0.148474l0.26464,0.00928l0.329639,0.074237l0.111427,-0.018559l0.241426,-0.245909l-0.004643,-0.078877l-0.111427,-0.074237l0.055714,-0.074237l0.171784,0.027839l0.176427,0.102076l-0.009286,0.041758l-0.162498,-0.041758l-0.0325,0.055678l0.018571,0.120635l-0.037142,0.037118l-0.08357,0.00928l-0.046428,0.088156l0.064999,0.106715l0.194998,0.185592l0.185712,0.069597l0.129999,0.125275l0.027857,0.139194l0.143927,0.106715l0.23214,0.00464l0.157855,0.083516l0.092856,0.125275l0.213569,0.092796l0.222855,-0.00464l0.037142,-0.092796l-0.046428,-0.162393l0.055714,-0.060317l0.102142,0.023199l0.153213,-0.055678h0.134641l0.08357,-0.111355l0.213569,-0.092796l0.218212,-0.023199l0.037142,-0.083516l0.08357,-0.023199l0.078928,0.083516l-0.018571,0.139194l-0.139284,0.153113l-0.027857,0.125275l0.018571,0.074237l-0.046428,0.037118l-0.222855,-0.074237l-0.408567,-0.027839l-0.125356,0.051038l-0.023214,0.064957l0.069642,0.097436l0.338925,0.176312l0.218212,0.023199l0.459638,-0.204151l0.129999,-0.00464l0.018571,-0.046398l-0.060356,-0.051038h-0.055714l-0.013928,-0.051038l0.185712,-0.051038l0.129999,0.037118l0.185712,0.125275l0.273925,0.060317l0.08357,-0.046398l0.106784,-0.00928l0.143927,0.092796l0.023214,0.106715l0.14857,0.23199l0.129999,0.064957h0.14857l0.139284,0.083516l0.074285,0.115995l0.086762,0.000435l0.04933,-0.044368l-0.009866,-0.162683l0.069062,-0.051763l0.33051,-0.00986l0.09866,-0.049298l0.103593,-0.098596l0.054263,0.012324l0.034531,0.086271l-0.108526,0.130639l-0.202252,0.029579l-0.147989,-0.00493l-0.039464,0.044368l-0.012332,0.172543l0.036997,0.083806l0.009866,0.118315l0.054263,0.024649l0.256515,-0.007395l0.212118,0.081341l0.36504,0.194727l0.04933,0.096131l0.069062,0.007395l0.157855,-0.11585l0.162788,0.022184l0.103593,0.172543l0.009866,0.214446l0.152922,0.340155l0.076461,0.049298l0.061662,-0.007395l0.032064,0.027114l0.007399,0.073947l0.103593,0.150359l0.083861,0.029579l0.034531,0.061622l0.04193,0.177472l0.160322,0.23663l0.093727,0.049298l0.051796,-0.00986l0.022198,-0.071482l0.061662,-0.029579l0.09126,0.029579v0.032044l-0.106059,0.039438l0.019732,0.046833l0.165255,0.069017l0.192386,0.152823l0.09126,0.211981l0.071528,0.056693l0.123324,0.041903l0.069062,0.069017l0.044397,0.135569l0.093727,0.051763l0.076461,0.002465l0.170188,0.103526l0.101126,0.027114l0.073995,-0.00493l0.083861,0.036973l0.044397,0.083806l0.125791,0.049298l0.059196,-0.007395l0.061662,-0.071482l0.113459,-0.019719l0.13319,0.059157l0.167721,0.036973l0.093727,-0.014789l0.064129,-0.044368l0.012332,-0.093666l0.044397,-0.019719l0.199786,0.059157l0.04933,0.071482l0.184987,0.002465l0.192386,-0.081341l0.305845,-0.029579l0.402038,0.029579l0.145523,-0.064087l0.18992,0.014789l0.165255,0.083806l0.212118,0.044368l0.078928,-0.00493l0.106059,-0.059157l0.101126,0.00493l0.086327,0.088736l0.004933,0.138034l-0.029598,0.098596l0.044397,0.145429l0.229384,0.108455l0.083861,-0.014789l0.059196,-0.261279l-0.18252,-0.199656l0.027131,-0.054228l0.123324,-0.007395l0.157855,0.081341l0.073995,0.096131l0.267687,0.165293l0.194998,0.046398l0.422495,0.199511l0.213569,0.23199l0.204283,0.083516l0.287854,0.037118l0.315711,0.153113l0.250711,0.190232l0.051071,0.23199l0.11607,0.078877h0.250711l0.199641,0.064957l0.125356,0.106715l0.227497,0.023199l-0.009286,-0.097436l-0.037142,-0.064957l0.023214,-0.051038l0.111427,0.00928l0.129999,0.115995l0.074285,0.190232l0.181069,0.097436l0.334282,0.00464l0.292497,0.088156l0.171784,0.134554l0.08357,0.208791l0.190355,0.194872l0.046428,0.190232l0.287854,0.143834l0.171784,0.296947l0.125356,0.097436l0.106784,0.259829l0.078928,0.018559l0.120713,-0.129914l0.023214,-0.180952l-0.078928,-0.162393l0.004643,-0.088156l0.106784,-0.139194l0.139284,-0.00928l0.269283,0.167033l0.129999,0.023199l0.037142,-0.055678l0.051071,0.013919l-0.013928,0.102076l-0.120713,0.051038l-0.23214,-0.051038l-0.134641,-0.078877l-0.069642,0.018559l-0.060356,0.083516l0.208926,0.329426l0.14857,0.064957l0.102142,-0.013919l0.051071,-0.051038l0.074285,0.023199l0.046428,0.320146l0.143927,0.199511l0.227497,0.106715l0.329639,0.060317l0.385353,-0.00464l0.185712,0.055678l0.171784,0.125275l0.111427,0.032479l0.11607,0.111355l0.023214,0.143834l0.097499,0.055678l0.120713,0.013919l0.139284,0.102076l0.037142,0.194872l0.08357,0.046398l0.278568,0.013919l0.167141,0.074237l0.013928,0.102076l-0.046428,0.111355l0.120713,0.125275l0.389996,0.176312l0.301782,-0.032479l0.125356,0.041758l-0.004643,0.120635l-0.273925,0.102076l-0.051071,0.134554l0.064999,0.22735l0.106784,0.051038h0.171784l0.134641,0.078877l0.088213,-0.013919l0.111427,-0.125275l0.129999,-0.055678l0.051071,-0.264469l0.064999,-0.097436l0.037142,-0.162393l0.106784,-0.115995l0.060356,-0.143834l0.11607,-0.046398l0.218212,0.102076l0.246069,0.408302l0.194998,0.106715l0.278568,0.394383l0.241426,0.162393l0.26464,0.102076l0.106784,-0.018559l0.051071,0.041758l0.023214,0.176312l0.069642,0.037118l0.013928,0.092796l-0.051071,0.129914l-0.167141,0.032479l-0.213569,0.00464l-0.046428,0.078877v0.255189l0.102142,0.037118l0.14857,-0.125275l0.060356,-0.115995l0.120713,-0.060317l0.078928,-0.134554l0.037142,-0.139194l0.120713,-0.00464l0.213569,0.083516l0.236783,0.013919l0.250711,0.092796l0.222855,0.027839l0.111427,0.092796l0.009286,0.139194l-0.046428,0.069597l-0.278568,0.092796l-0.222855,-0.078877l-0.078928,0.032479l-0.041785,0.102076l0.088213,0.051038l0.11607,-0.00464l0.204283,0.120635l0.069642,0.083516l0.208926,0.046398l0.111427,-0.032479l-0.004643,-0.046398l-0.153213,-0.023199l-0.051071,-0.051038l-0.027857,-0.078877l-0.051071,-0.069597l0.023214,-0.064957l0.134641,-0.041758l0.403924,0.139194l0.162498,0.00928l0.055714,0.037118l0.018571,0.199511l-0.08357,0.125275l-0.241426,0.018559l-0.139284,0.078877l0.013928,0.083516l0.162498,0.018559l0.139284,-0.078877l0.078928,0.018559l0.023214,0.139194l0.092856,0.032479l0.125356,-0.060317l0.162498,-0.167033l0.004643,-0.074237l-0.236783,-0.088156l-0.055714,-0.074237l0.009286,-0.129914l0.111427,-0.097436l0.343567,-0.00928l0.134641,0.037118l0.273925,-0.00928l0.301782,0.078877l0.710349,0.394383l0.208926,0.064957l0.431781,0.23663l0.120713,0.171673l0.037142,0.162393l0.11607,0.060317l0.269283,0.064957l0.241426,0.102076l0.106784,0.00464l0.487494,-0.102076l0.11607,-0.083516l0.408567,-0.032479l0.157855,-0.078877l0.724277,0.023199l0.23214,0.074237l0.134641,0.143834l-0.013928,0.129914l0.055714,0.051038l0.246069,-0.032479l0.134641,0.060317l0.185712,0.218071l0.037142,0.22735l-0.129999,0.329426l-0.106784,0.134554l-0.097499,0.180952l-0.185712,0.162393l0.009286,0.041758l0.125356,0.046398l0.185712,0.018559l0.204283,0.129914l0.023214,0.102076l0.106784,0.083516l0.023214,0.176312l-0.055714,0.060317l-0.153213,-0.041758l-0.14857,-0.167033l-0.074285,-0.143834l-0.08357,-0.027839l-0.208926,0.069597l-0.38071,0.051038l-0.11607,-0.037118l-0.060356,-0.083516l-0.129999,0.013919l-0.051071,0.102076l0.051071,0.074237l-0.004643,0.078877l-0.078928,0.22735v0.283028l0.139284,0.190232l0.26464,0.074237l0.134641,-0.027839l0.08357,-0.204151l0.125356,-0.120635l0.037142,-0.120635l0.125356,-0.046398l0.246069,0.018559l0.074285,0.111355l-0.027857,0.185592l0.041785,0.027839l0.078928,-0.106715l0.097499,-0.032479l0.027857,-0.064957l-0.074285,-0.092796l0.009286,-0.083516l0.078928,-0.023199l0.097499,0.023199l0.060356,-0.018559l0.0325,-0.069597l0.074285,-0.013919l0.134641,0.097436l0.131546,0.233537l-0.046428,0.07733l-0.111427,0.015466l-0.164046,-0.089703l-0.173331,0.024746l-0.157855,0.108262l-0.046428,0.157753l0.061904,0.037118l0.105237,-0.043305l0.024762,-0.074237l0.027857,-0.003093l0.07738,0.114448l0.15476,0.061864l0.117618,-0.015466l0.08357,-0.083516l0.003095,-0.136101l0.040238,-0.018559l0.043333,0.052584l0.015476,0.092796l0.086666,0.058771l0.064999,-0.006186l0.012381,-0.07733l-0.052618,-0.06805l-0.086666,-0.037118l-0.024762,-0.098982l0.040238,-0.049491l0.126903,-0.027839Z M569.955849,607.358534h0.408567l0.91618,-0.303134l0.253807,-0.179406l0.476661,-0.117542l0.340472,-0.24127l0.043333,-0.117542l-0.179522,-0.296947l0.024762,-0.098982l-0.055714,-0.074237l-0.15476,-0.080423l-0.043333,-0.15466l0.167141,-0.321693l-0.049523,-0.15466l-0.198093,-0.197965l-0.185712,-0.055678l-0.259997,-0.204151l-0.055714,-0.179406l0.080475,-0.129914l-0.092856,-0.142287l-0.272378,-0.136101l-0.160951,0.006186l-0.241426,-0.080423l-0.105237,-0.098982l-0.229045,-0.061864l-0.408567,0.018559l-0.259997,-0.092796h-0.259997l-0.086666,0.08661l0.024762,0.043305l0.129999,-0.06805l0.142379,0.030932l-0.00619,0.061864l-0.340472,0.167033l-0.198093,0.24127l-0.167141,0.117542l-0.179522,0.371184l0.030952,0.111355l0.092856,0.061864l0.266187,0.501098l0.14857,0.105169l0.191903,0.494912l-0.099046,0.327879l-0.185712,0.092796l-0.179522,-0.043305l-0.290949,-0.012373l-0.15476,-0.136101l-0.099046,-0.160846l-0.340472,-0.22271l-0.030952,0.049491l0.136189,0.179406l0.018571,0.197965l0.216664,0.30932l0.14857,0.055678l0.204283,0.296947l0.272378,0.074237l0.30333,0.006186l0.532375,0.15466Z M560.072867,600.737539l0.250711,-0.027839l0.037142,-0.060317l-0.292497,-0.092796l-0.125356,0.027839l-0.037142,0.078877l0.167141,0.074237Z M573.708782,606.319219h0.046428l0.041785,-0.106715l-0.052618,-0.051038l-0.055562,-0.005721l-0.114674,0.0382l-0.040238,0.100529l0.049523,0.001547l0.069642,-0.074237l0.057261,0.013919l-0.001548,0.083516Z M560.65786,600.069408l0.106784,-0.102076l-0.0325,-0.041758l-0.167141,0.088156l-0.013928,0.060317l0.106784,-0.00464Z M578.648725,603.057439l0.055714,0.046398l0.129999,0.00928l0.0325,0.060317l0.08357,0.00464l0.013928,-0.060317l-0.176427,-0.167033l-0.092856,-0.032479l-0.055714,0.046398l0.009286,0.092796Z M564.068774,598.023256l0.009286,-0.092796l0.160951,-0.105169l0.145475,-0.015466l0.00619,-0.040212l-0.151665,-0.015466l-0.170236,0.07733l-0.07119,0.15466l0.027857,0.058771l0.043333,-0.021652Z M572.506296,599.155367l-0.043333,0.30932l0.00619,0.148474l0.080475,-0.012373l0.092856,-0.228897l-0.055714,-0.327879l-0.099046,-0.08661l-0.037142,0.037118l0.055714,0.160846Z M572.670341,599.913201l0.111427,0.046398l0.030952,-0.021652l-0.064999,-0.07733l-0.114522,-0.027839l-0.018571,0.034025l0.055714,0.046398Z M578.398014,602.644497l0.046428,-0.023199l0.08357,-0.204151l-0.046428,-0.148474l-0.097499,-0.023199l-0.0325,0.078877l0.088213,0.078877l-0.060356,0.171673l0.018571,0.069597Z M573.502951,600.213242l0.046428,-0.015466l-0.037142,-0.046398l0.018571,-0.148474l-0.034047,-0.024746l-0.058809,0.049491l0.003095,0.139194l0.061904,0.046398Z M577.803735,602.287232l0.153213,0.074237l0.0325,-0.027839l-0.092856,-0.092796l-0.134641,-0.032479l-0.092856,0.00928l-0.027857,0.046398l0.162498,0.023199Z M580.659059,603.229112l0.311068,-0.041758l0.018571,-0.041758l-0.069642,-0.023199l-0.343567,0.051038l-0.0325,0.037118l0.11607,0.018559Z M580.455356,603.244191l-0.019732,-0.041903l-0.101126,0.029579l-0.078928,-0.049298l-0.017265,-0.093666l-0.046863,-0.027114l-0.076461,0.012324l-0.004933,0.123245l-0.093727,0.027114l-0.073995,-0.002465l-0.032064,-0.064087l-0.076461,-0.012324l-0.288579,-0.211981l-0.039464,0.00986l0.004933,0.044368l0.236783,0.155288l0.073995,0.096131l0.13319,0.064087l0.18992,-0.022184l0.088794,0.054228l0.088794,-0.002465l0.13319,-0.088736Z M578.444442,602.80689l-0.0325,0.078877l0.060356,0.051038l0.078928,-0.041758l0.023214,-0.074237l-0.11607,-0.102076l-0.037142,0.00928l0.023214,0.078877Z M597.10387,607.604443l0.055714,-0.041758l0.027857,-0.134554l-0.023214,-0.046398l-0.041785,0.013919l-0.0325,0.157753l0.013928,0.051038Z M592.615827,609.687714l0.235235,0.018559l0.037142,-0.061864l-0.123808,-0.111355l-0.241426,-0.037118l-0.074285,0.049491l0.167141,0.142287Z M572.928791,606.495531l0.218212,0.083516l0.069642,-0.055678l-0.037142,-0.078877l-0.222855,-0.046398l-0.069642,0.041758l0.041785,0.055678Z M573.98735,606.476972l0.167141,-0.055678l-0.055714,-0.111355l-0.111427,-0.00928l-0.259997,0.125275l0.041785,0.060317l0.218212,-0.00928Z M575.408048,606.486252l0.069642,-0.097436l0.371424,-0.115995l0.292497,-0.148474l0.0325,-0.167033l-0.14857,-0.083516l-0.171784,0.00464l-0.004643,0.051038l0.134641,0.023199l0.037142,0.074237l-0.097499,0.088156l-0.468923,0.153113l-0.190355,0.139194v0.102076l0.143927,-0.023199Z M576.318038,605.906277l-0.004643,0.125275l0.129999,0.162393l0.106784,0.013919l0.213569,-0.22735l0.185712,-0.069597l0.018571,-0.069597l-0.097499,-0.027839l-0.181069,0.064957l-0.139284,0.194872l-0.106784,0.00464l-0.069642,-0.097436l-0.023214,-0.097436l-0.0325,0.023199Z M578.834437,606.29602l0.162498,-0.046398l0.171784,-0.00464l0.501423,-0.306227l0.208926,-0.22735l0.222855,-0.157753l-0.046428,-0.027839l-0.250711,0.088156l-0.171784,0.199511l-0.445709,0.22735h-0.255354l-0.111427,0.055678l-0.055714,0.129914l0.069642,0.069597Z M575.157337,606.231063l0.074285,0.041758l0.125356,-0.013919l0.185712,-0.092796l-0.055714,-0.037118l-0.306425,0.032479l-0.023214,0.069597Z M574.465559,606.449133l0.106784,-0.069597l-0.004643,-0.041758l-0.125356,0.023199l-0.213569,-0.00464l-0.023214,0.041758l0.259997,0.051038Z M572.292727,605.459309l0.188807,-0.006186l0.040238,-0.111355l-0.058809,-0.095889l-0.204283,-0.052584l-0.049523,0.064957l0.037142,0.160846l0.046428,0.040212Z M571.741781,603.996226l-0.037142,0.052584l-0.003095,0.074237l0.120713,0.092796l0.102142,0.003093l0.080475,0.043305l-0.030952,0.083516l0.052618,0.027839l0.08357,-0.092796l-0.003095,-0.058771l-0.102142,-0.055678l-0.136189,0.006186l-0.089761,-0.049491l-0.021666,-0.046398l0.040238,-0.064957l-0.015476,-0.064957l-0.034047,-0.006186l-0.00619,0.055678Z M606.213051,605.21804l0.055714,-0.08661l-0.092856,-0.259829l-0.14857,-0.049491l-0.092856,0.111355l0.012381,0.092796l0.117618,0.123728l0.14857,0.06805Z M604.157837,604.073556l0.247616,0.012373l0.235235,-0.197965l-0.024762,-0.235083l0.204283,-0.228897l-0.049523,-0.247456l-0.167141,-0.148474l-0.625231,0.006186l-0.507613,-0.272202l-0.049523,-0.167033l0.012381,-0.167033l-0.092856,-0.098982l-0.278568,-0.049491l-0.00619,-0.105169l0.14857,-0.037118l0.012381,-0.136101l-0.222855,-0.160846l-0.216664,-0.030932l-0.272378,-0.278388l-0.111427,-0.191778l-0.15476,-0.030932l-0.061904,0.055678l-0.049523,0.123728l-0.198093,-0.055678l-0.105237,-0.228897l0.012381,-0.352625l-0.259997,-0.290761l-0.699516,-0.148474l-0.216664,0.055678l-0.179522,-0.043305l-0.427138,-0.501098l-0.049523,-0.204151l-0.266187,-0.15466h-0.278568l-0.216664,0.185592l-0.557136,0.006186l-0.46428,-0.148474l-0.198093,-0.185592l-0.167141,-0.24127l-0.167141,-0.049491l-0.136189,0.092796l0.049523,0.148474l0.253807,0.049491l0.117618,0.123728l-0.061904,0.055678l-0.272378,-0.043305l-0.061904,0.105169l0.099046,0.24127l0.266187,0.179406l0.594279,0.129914l0.15476,0.15466l0.45809,0.049491l0.247616,-0.098982l0.216664,0.043305l0.290949,0.117542l0.142379,-0.006186l0.129999,-0.092796l0.074285,0.018559l-0.012381,0.173219l-0.14857,0.092796l0.012381,0.06805l0.284759,0.080423l0.210474,0.22271l0.129999,0.266015l0.191903,0.092796l0.179522,-0.030932l0.222855,0.092796l0.111427,0.247456l0.055714,0.018559l0.049523,-0.142287l0.00619,-0.210338l0.080475,-0.012373l0.346663,0.296947l0.043333,0.167033l0.142379,0.142287l-0.030952,0.08661l-0.179522,-0.018559l-0.099046,-0.092796l-0.136189,0.043305l-0.055714,0.136101l0.055714,0.129914l0.123808,0.049491l0.123808,-0.006186l0.14857,0.105169l0.043333,0.15466l0.204283,0.06805l0.15476,-0.006186l0.123808,0.111355v0.383557l0.129999,0.148474l0.352853,0.191778l0.14857,-0.037118l0.111427,-0.148474l0.117618,0.049491l0.024762,0.123728l-0.086666,0.08661l0.037142,0.08661l0.241426,0.142287l0.210474,-0.006186l0.173331,0.111355l-0.012381,0.15466l0.074285,0.061864Z M605.792104,605.242785l0.080475,0.204151l0.043333,0.024746l-0.012381,-0.129914l0.030952,-0.061864l0.160951,0.098982l0.086666,-0.055678l-0.160951,-0.136101l-0.14857,-0.018559l-0.15476,-0.129914l-0.099046,0.006186l-0.043333,0.080423l0.216664,0.117542Z M566.03887,603.911163l0.097499,-0.060317l-0.041785,-0.032479l-0.162498,0.023199l-0.027857,0.051038l0.134641,0.018559Z M600.999183,600.380275l0.167141,-0.023199l0.074285,-0.120635l0.078928,0.00928l0.074285,0.143834l0.041785,-0.00464l0.009286,-0.069597l-0.106784,-0.148474l-0.120713,-0.018559l-0.171784,0.134554l-0.162498,-0.026292l-0.105237,0.006186l-0.047976,0.038665l0.023214,0.046398l0.117618,0.007733l0.128451,0.024746Z M569.851918,602.637827l0.078928,0.00986l0.059196,-0.036973l-0.022198,-0.044368l-0.101126,-0.012324l-0.036997,0.034509l0.022198,0.049298Z M568.197774,604.982956l-0.106784,-0.194872l-0.037142,-0.111355l-0.046428,-0.018559v0.125275l0.153213,0.213431l0.037142,-0.013919Z M565.221737,603.591016l0.14857,0.157753l0.46428,0.037118l0.023214,-0.041758l-0.246069,-0.064957l-0.139284,-0.023199l-0.153213,-0.120635l-0.088213,-0.00464l-0.009286,0.060317Z M570.357548,603.101227l-0.04933,-0.007395l-0.024665,-0.039438v-0.049298l-0.024665,-0.00493l-0.046863,0.056693l-0.073995,0.00493l-0.012332,0.027114l0.128257,0.036973l0.032064,0.073947h0.056729l0.108526,-0.093666l0.089567,-0.010053l0.160951,-0.046398l0.102142,0.012373l0.072737,0.046398l0.064999,-0.018559v-0.055678l-0.14857,-0.051038l-0.327027,0.061332l-0.108526,0.056693Z M566.80029,603.846205l0.23214,0.023199l0.125356,-0.013919l-0.027857,-0.041758l-0.176427,-0.013919l-0.153213,-0.032479l-0.259997,0.092796l-0.018571,0.046398l0.278568,-0.060317Z M572.608437,605.572211l0.074285,-0.055678h0.125356l0.204283,0.088156l0.013928,0.060317l-0.129999,0.060317l-0.009286,0.102076l0.08357,0.00928l0.129999,-0.139194l0.004643,-0.115995l-0.194998,-0.120635l-0.23214,-0.055678l-0.134641,0.083516v0.069597l0.064999,0.013919Z M573.044861,605.906277l0.08357,0.083516l0.018571,0.120635l0.078928,0.055678h0.162498l0.013928,-0.051038l-0.060356,-0.018559l-0.088213,0.013919l-0.060356,-0.051038l0.004643,-0.092796l-0.11607,-0.074237l-0.037142,0.013919Z M571.973921,604.441646l0.009286,0.095889l0.064999,0.102076l0.049523,-0.003093l-0.003095,-0.064957l-0.068094,-0.06805l-0.015476,-0.064957l-0.037142,0.003093Z M571.738685,603.720931l0.049523,0.06805l-0.003095,0.061864l0.030952,0.006186l0.068094,-0.055678l-0.015476,-0.034025l-0.07738,-0.034025l-0.013058,-0.055291l-0.034531,0.002465l-0.00503,0.040453Z M571.709184,603.665688l0.014799,-0.024649l-0.064129,-0.056693l-0.076461,-0.002465l-0.051796,-0.039438l-0.012332,-0.071482l-0.167721,-0.096131h-0.246649l-0.076461,-0.032044l-0.113459,-0.10599l-0.034531,0.00986l0.044397,0.093666l0.101126,0.069017l0.128257,0.019719l0.125791,-0.014789l0.18252,0.066552l0.034531,0.096131l0.066595,0.041903l0.09126,0.007395l0.054263,0.039438Z M571.398213,599.310027l-0.043333,0.111355l0.003095,0.098982l0.040238,0.034025l0.043333,-0.012373l0.012381,-0.098982l0.052618,-0.102076l-0.037142,-0.046398l-0.07119,0.015466Z M571.450832,599.053292l0.061904,0.111355h0.043333l0.015476,-0.052584l-0.068094,-0.108262l-0.080475,-0.027839l-0.027857,0.030932l0.055714,0.046398Z M599.926695,601.790774l0.055714,0.092796l0.167141,-0.092796l0.102142,-0.185592l-0.092856,-0.027839l-0.167141,0.064957l-0.064999,0.148474Z M608.008269,606.560488l0.043333,-0.117542l0.123808,-0.055678l0.068094,-0.148474l-0.111427,-0.129914l-0.167141,-0.037118v-0.148474l-0.352853,-0.204151l-0.538565,-0.15466l-0.185712,-0.173219l-0.061904,-0.173219l-0.173331,-0.111355l-0.15476,-0.006186l-0.105237,0.092796l-0.00619,0.129914l-0.099046,0.173219l0.167141,0.142287l0.117618,0.024746l0.080475,0.092796l0.00619,0.129914l0.198093,0.185592l0.099046,0.15466l0.111427,0.018559l0.105237,-0.08661l0.117618,0.030932l0.396186,0.185592l0.222855,0.197965l0.099046,-0.012373Z M603.260228,601.394844l0.086666,0.303134l0.253807,0.408302l0.315711,0.173219l0.074285,-0.043305l-0.099046,-0.098982l-0.204283,-0.136101l-0.235235,-0.358811l-0.142379,-0.358811l-0.173331,-0.049491l-0.049523,0.06805l0.080475,0.06805l0.092856,0.024746Z M602.950708,601.295862l0.043333,-0.043305l-0.14857,-0.253642l-0.142379,-0.08661l-0.037142,0.049491l0.080475,0.160846l0.136189,0.105169l0.068094,0.06805Z M605.878769,604.883974l0.092856,-0.105169l-0.315711,-0.266015l-0.241426,-0.364998l-0.389996,-0.253642h-0.241426l-0.086666,0.129914l-0.055714,0.136101l-0.290949,0.055678l-0.024762,0.08661l0.129999,0.030932l0.371424,0.030932l0.142379,-0.123728l0.074285,0.030932l0.037142,0.228897l-0.129999,0.148474l0.037142,0.061864l0.365234,0.030932l0.198093,0.160846l0.204283,0.018559l0.123808,-0.037118Z M583.042365,595.598187l0.266187,-0.061864l0.142379,0.074237l0.105237,0.012373l0.216664,-0.06805v-0.098982l-0.173331,-0.185592 l-0.210474,-0.018559l-0.086666,0.043305l-0.055714,0.142287l-0.160951,0.055678l-0.414757,0.235083l0.043333,0.037118l0.328091,-0.167033Z M595.788409,600.615358l0.086666,-0.049491l0.111427,-0.173219l-0.068094,-0.043305l-0.14857,0.117542l-0.043333,0.129914l0.061904,0.018559Z M590.025142,597.095296l0.068094,-0.018559l-0.00619,-0.092796l0.080475,-0.061864l0.068094,-0.129914l-0.086666,-0.092796l-0.185712,0.006186l-0.049523,0.129914l0.043333,0.204151l0.068094,0.055678Z M587.945166,596.686994l0.117618,-0.006186l0.00619,-0.08661l-0.173331,-0.185592l-0.055714,0.043305l0.00619,0.148474l0.099046,0.08661Z M604.017005,604.254508l0.14857,0.023199l0.023214,-0.060317l-0.139284,-0.106715l-0.074285,-0.018559l-0.041785,0.069597l0.08357,0.092796Z M583.679977,595.103275l0.495232,0.080423l0.389996,-0.012373l0.371424,0.098982l0.253807,0.012373l0.538565,0.105169l0.198093,-0.049491l0.055714,-0.111355l-0.074285,-0.22271l-0.061904,0.030932l0.00619,0.123728l-0.160951,0.043305l-0.222855,-0.092796l-0.247616,-0.049491l-0.142379,-0.111355l-0.278568,-0.018559l-0.328091,0.129914l-0.402376,-0.018559l-0.334282,-0.049491l-0.191903,-0.080423l-0.037142,0.055678l0.173331,0.136101Z M583.376647,594.960988l0.080475,-0.06805l-0.086666,-0.173219l-0.185712,-0.049491l-0.043333,-0.117542l-0.092856,-0.012373l-0.396186,0.117542l-0.061904,0.111355l0.018571,0.123728l0.253807,0.024746l0.278568,-0.08661l0.142379,0.049491l0.092856,0.080423Z M582.392373,594.874379l0.043333,0.049491l0.061904,-0.061864l0.037142,-0.136101l-0.061904,-0.018559l-0.055714,0.037118l-0.024762,0.129914Z M582.249993,595.066157l0.105237,-0.055678l0.018571,-0.055678l-0.061904,-0.012373l-0.086666,0.092796l0.024762,0.030932Z M597.317439,599.848244l0.142379,-0.092796l-0.00619,-0.055678l-0.160951,-0.006186l-0.117618,0.080423v0.092796l0.142379,-0.018559Z M597.0203,600.077141l0.030952,-0.06805l-0.117618,-0.024746l-0.136189,0.037118l-0.383805,-0.074237l-0.129999,-0.080423l-0.389996,-0.105169l-0.15476,0.012373l-0.129999,-0.136101l0.024762,-0.204151l0.129999,-0.210338l-0.030952,-0.08661l-0.080475,0.074237l-0.111427,0.321693l0.043333,0.216524l0.179522,0.167033l0.099046,0.012373l0.117618,-0.055678l0.284759,0.08661l0.15476,0.08661l0.340472,0.074237l0.259997,-0.043305Z M592.086547,598.412999l0.167141,0.111355l0.253807,0.15466l0.259997,0.006186l0.476661,0.303134l0.167141,0.191778l0.105237,0.043305l0.018571,-0.055678l-0.321901,-0.364998l-0.439519,-0.284574l-0.229045,-0.061864l-0.266187,-0.185592l-0.136189,-0.080423l-0.30952,-0.371184l-0.259997,-0.006186l-0.105237,0.111355l0.061904,0.098982l0.086666,-0.018559l0.117618,-0.06805l0.117618,0.043305l0.216664,0.284574l0.018571,0.148474Z M595.082703,598.895539l0.198093,0.080423l0.129999,-0.049491l0.198093,-0.006186l0.043333,0.111355l0.080475,0.030932l0.173331,-0.061864l0.037142,-0.080423l-0.136189,-0.105169l-0.383805,0.037118l-0.315711,-0.061864l-0.061904,0.049491l0.037142,0.055678Z M594.593661,599.235791l0.14857,-0.061864l0.018571,-0.092796l-0.061904,-0.043305l-0.297139,0.080423l-0.049523,0.055678l0.030952,0.08661l0.210474,-0.024746Z M594.284141,599.3224l0.030952,-0.06805l-0.037142,-0.074237l-0.105237,0.012373l-0.043333,0.08661l0.043333,0.061864l0.111427,-0.018559Z M594.246998,599.068758l0.167141,-0.043305v-0.043305l-0.198093,0.006186l-0.049523,0.043305l0.080475,0.037118Z M593.943668,599.421383l0.179522,-0.018559l-0.049523,-0.055678h-0.129999l-0.061904,0.055678l0.061904,0.018559Z M592.222736,598.938843l0.191903,0.030932l0.142379,0.098982l0.284759,0.06805l0.129999,0.185592l0.117618,0.018559l0.00619,-0.080423l-0.117618,-0.266015l-0.111427,-0.080423l-0.321901,-0.105169l-0.185712,-0.111355l-0.167141,-0.006186l-0.074285,0.123728l0.105237,0.123728Z M586.088044,595.616747l0.080475,-0.098982l0.204283,-0.037118l0.136189,0.074237l0.099046,0.006186l0.043333,-0.105169l-0.123808,-0.074237l-0.334282,0.006186l-0.117618,0.043305l-0.037142,0.123728l0.049523,0.061864Z M586.979463,595.703356h0.160951l0.092856,0.080423l0.080475,0.142287l0.123808,0.074237l0.15476,-0.024746l0.253807,0.136101l0.185712,0.037118l0.191903,-0.204151l-0.037142,-0.08661l-0.15476,0.018559l-0.204283,-0.117542l-0.198093,-0.006186l-0.117618,-0.030932l0.00619,-0.123728l-0.055714,-0.06805l-0.198093,-0.049491l-0.290949,0.030932l-0.092856,0.117542l0.099046,0.074237Z M588.304209,596.464283l0.229045,0.043305l0.049523,-0.043305l-0.210474,-0.15466l-0.229045,-0.043305l-0.086666,0.111355l0.049523,0.098982l0.198093,-0.012373Z M591.05894,597.614954l0.142379,0.030932l0.049523,-0.08661l-0.191903,-0.228897l-0.229045,-0.092796l-0.043333,0.136101l0.272378,0.24127Z M588.496112,596.198268l0.185712,0.08661l0.055714,-0.012373l-0.061904,-0.197965l-0.15476,-0.06805l-0.086666,0.080423l0.061904,0.111355Z M588.910869,596.451911l0.136189,-0.037118l0.018571,-0.08661l-0.074285,-0.136101l-0.129999,0.018559l-0.024762,0.185592l0.074285,0.055678Z M589.449434,596.977755l0.204283,-0.030932l0.105237,0.06805l0.074285,-0.024746l-0.012381,-0.142287l-0.123808,-0.123728l-0.290949,0.030932l-0.043333,0.105169l0.086666,0.117542Z M602.113455,613.186123l0.097499,-0.023199l0.009286,-0.143834l-0.046428,-0.074237v-0.167033l-0.041785,0.00464l-0.074285,0.185592v0.176312l0.055714,0.041758Z M597.558865,612.833498l0.470471,-0.012373l0.278568,0.061864l0.074285,-0.037118l-0.049523,-0.08661l-0.210474,-0.030932h-0.625231l-0.024762,0.055678l0.086666,0.049491Z M593.287485,609.76195l0.120713,0.194872l0.222855,0.092796l0.064999,-0.074237l-0.139284,-0.213431l-0.408567,-0.213431l-0.129999,0.018559l0.018571,0.111355l0.250711,0.083516Z M594.086048,610.448641l0.194998,0.027839l0.38071,0.306227l0.46428,0.445421l0.492137,0.269108l0.167141,-0.027839v-0.111355l-0.724277,-0.352625l-0.687135,-0.640292l-0.269283,-0.074237l-0.102142,0.083516l0.08357,0.074237Z M598.691709,612.480873l0.179522,0.012373l0.253807,-0.105169l0.352853,-0.030932l0.297139,-0.148474l-0.030952,-0.043305l-0.489042,0.117542l-0.173331,-0.024746l-0.117618,-0.142287l-0.105237,-0.105169l-0.024762,0.06805l0.099046,0.197965l-0.00619,0.092796l-0.30952,0.074237l0.074285,0.037118Z M598.642186,613.050022l0.420948,0.092796l0.315711,0.148474l0.086666,0.129914l0.216664,0.204151l0.328091,0.08661l0.043333,-0.06805l-0.068094,-0.191778l-0.142379,-0.080423l-0.086666,-0.074237l0.012381,-0.228897l-0.061904,-0.117542l0.055714,-0.092796l-0.043333,-0.278388l-0.055714,-0.043305l-0.123808,0.105169l0.055714,0.253642l-0.018571,0.247456l0.061904,0.179406l0.247616,0.167033l0.055714,0.098982l-0.055714,0.006186l-0.216664,-0.098982l-0.15476,-0.210338l-0.253807,-0.210338l-0.594279,-0.105169l-0.061904,0.024746l0.037142,0.055678Z M597.831243,612.183926l0.074285,0.06805l0.074285,-0.092796l-0.00619,-0.167033l-0.068094,-0.024746l-0.074285,0.129914v0.08661Z M596.320784,611.973589l0.136189,-0.043305l0.037142,-0.123728l-0.117618,-0.037118l-0.117618,0.105169l-0.204283,-0.030932l-0.030952,0.043305l0.297139,0.08661Z M596.797445,612.282909l0.191903,0.136101l0.14857,-0.006186l0.055714,-0.098982l-0.092856,-0.080423l-0.142379,0.018559l-0.198093,-0.129914l-0.049523,0.043305l0.086666,0.117542Z M597.298868,612.647906l-0.012381,-0.080423l0.055714,-0.080423l-0.018571,-0.049491l-0.117618,0.049491l-0.024762,0.080423l0.049523,0.080423h0.068094Z M597.967432,611.577659l0.037142,0.08661l0.068094,0.006186l0.030952,-0.049491l-0.049523,-0.123728l-0.086666,-0.030932l-0.030952,0.055678l0.030952,0.055678Z M607.214793,615.165454l-0.011846,0.038428l0.069028,0.006649l0.099255,-0.046414l0.005369,-0.027057l-0.062259,-0.005308l-0.099546,0.033702Z M604.971409,616.659996h0.036887l0.014755,-0.02949l-0.029509,-0.02949l-0.051641,0.002458l-0.009836,0.031948l0.039346,0.024575Z M604.638006,613.799375l0.023715,-0.034604l-0.008936,-0.020383l-0.050156,0.018423l-0.017904,0.040711l0.014425,0.020054l0.038857,-0.0242Z M601.580121,612.739038l0.033724,-0.00903l0.015127,-0.044688l-0.087366,-0.064652l-0.035983,0.000605l-0.010498,0.036675l0.084996,0.08109Z M601.576438,613.070443l0.029509,0.002458l0.024591,-0.058981l0.002459,-0.078641l-0.024591,-0.017203l-0.031968,0.063896v0.088471Z M603.285837,613.701787l0.01921,-0.04429l-0.028069,-0.004643l-0.055512,0.058628l0.018233,0.016917l0.046138,-0.026612Z M602.99577,613.448129l0.06122,-0.051322l-0.008681,-0.061628l-0.04141,-0.022648l-0.046343,0.033604l-0.016263,0.076943l0.051478,0.025051Z M600.779464,612.049597l0.019343,0.028567l0.070126,-0.006409l0.064701,-0.060033l-0.017302,-0.049609l-0.043581,0.008119l-0.093287,0.079364Z M600.592163,612.010707l-0.009258,0.055511l0.037031,0.02313l0.060176,-0.02313v-0.041633l-0.04166,-0.02313l-0.046289,0.009252Z M600.639591,611.911812l0.037939,-0.010159l-0.004821,-0.034831l-0.050778,-0.029298l-0.044414,0.002863l-0.0143,0.030921l0.076373,0.040505Z M598.320414,612.381835l0.012344,0.043175l0.049375,0.006168l0.006172,-0.043175l-0.024688,-0.024672l-0.043203,0.018504Z M596.650778,612.096157l0.060605,-0.029469l0.009932,-0.076907l-0.050948,0.00428l-0.049616,0.06511l0.030027,0.036984Z M595.590316,610.074364l-0.004918,0.034405l0.019673,0.00983l0.024591,-0.022118l-0.012296,-0.022118h-0.02705Z M597.455041,609.726469l0.015084,-0.031025l-0.040616,-0.057487l-0.084374,-0.02598l-0.034339,0.039779l0.028827,0.033659l0.115419,0.041055Z M596.50354,611.945722l-0.009258,0.055511l0.037031,0.02313l0.060176,-0.02313v-0.041633l-0.04166,-0.02313l-0.046289,0.009252Z M596.004162,611.63884l0.036928,-0.053576l-0.021656,-0.022186l-0.060187,0.038097l-0.022282,0.045728l0.019292,0.020203l0.047905,-0.028268Z M596.079358,611.661037h0.024688l0.024688,-0.055511l-0.021602,-0.012336l-0.027774,0.021588v0.046259Z M596.218006,611.795113l0.036887,-0.002458l0.009836,-0.01966l-0.049182,-0.022118l-0.046723,0.004915l0.002459,0.02949l0.046723,0.00983Z M573.513881,606.592814l0.074063,-0.003084l0.037031,-0.043175l-0.030859,-0.052427l-0.070977,-0.003084l-0.043203,0.030839l-0.012344,0.046259l0.046289,0.024672Z M578.162073,606.06365l0.00871,0.032932l0.045086,0.006574l0.034532,-0.022406l0.0021,-0.030301l-0.036387,-0.009738l-0.054042,0.022939Z M575.100062,606.249172l-0.01269,-0.027186l-0.017784,0.020954l-0.003865,0.046011l0.016378,0.020801l0.017961,-0.060579Z M577.031482,605.638715l0.027774,-0.027756l-0.021602,-0.027756h-0.058633l-0.037031,0.024672l0.003086,0.033923l0.086406,-0.003084Z M577.303878,606.000443l0.037031,-0.012336l-0.030859,-0.046259l-0.049375,-0.01542l-0.012344,0.033923l0.055547,0.040091Z M576.310327,605.682661l0.046289,-0.009252l0.013887,-0.050885l-0.060176,-0.027756l-0.04166,0.027756v0.050885l0.04166,0.009252Z M577.129649,604.39707l0.014347,-0.036279l-0.055296,-0.00611l-0.043558,0.027887l0.018069,0.031255l0.066437,-0.016754Z M578.507257,606.085066l0.036887,-0.002458l0.009836,-0.01966l-0.049182,-0.022118l-0.046723,0.004915l0.002459,0.02949l0.046723,0.00983Z M578.00329,606.129642l0.014755,-0.034405l-0.02705,-0.004915l-0.039346,0.024575l0.002459,0.024575l0.049182,-0.00983Z M578.600888,606.0624l0.009258,0.032381l0.046289,0.009252l0.046289,-0.027756v-0.032381l-0.055547,-0.009252l-0.046289,0.027756Z M574.882781,606.622263l-0.045043,-0.042167l-0.057023,-0.021267l0.001516,0.026351l0.056839,0.055746l0.045046,0.015549l-0.001336,-0.034211Z M574.759696,606.37798l-0.009258,0.021588l0.018516,0.01542l0.027774,-0.018504l-0.006172,-0.021588l-0.030859,0.003084Z M577.243282,602.552071l0.01752,-0.014381l-0.007131,-0.058651l-0.022509,-0.013948l-0.005978,0.033883l0.018099,0.053098Z M578.096231,602.805343l-0.010164,0.043123l0.03325,0.008702l0.029347,-0.020997l-0.020651,-0.034271l-0.031782,0.003442Z M578.744939,603.325178l0.024184,-0.024005l-0.016846,-0.042307l-0.036682,-0.018683l-0.027308,0.013333l0.009754,0.03636l0.046899,0.035302Z M576.527029,602.000982l0.037031,0.006168l0.012344,-0.01542l-0.027774,-0.033923l-0.033945,-0.003084l-0.003086,0.021588l0.01543,0.024672Z M576.632323,602.57821l-0.027399,-0.06904l-0.049041,0.008417l0.00209,0.066397l0.045864,0.036374l0.028487,-0.042148Z M569.993195,603.034259l0.012344,0.043175l0.049375,0.006168l0.006172,-0.043175l-0.024688,-0.024672l-0.043203,0.018504Z M569.885466,602.978563l-0.004918,0.034405l0.019673,0.00983l0.024591,-0.022118l-0.012296,-0.022118h-0.02705Z M569.850612,602.842462l-0.007377,0.031948l0.02705,0.012288l0.041805,-0.00983v-0.027033l-0.029509,-0.017203l-0.031968,0.00983Z M569.838231,602.780598l0.046289,-0.009252l-0.013887,-0.032381l-0.046289,-0.004626l-0.013887,0.027756l0.027774,0.018504Z M561.122141,599.644093l0.012344,0.043175l0.049375,0.006168l0.006172,-0.043175l-0.024688,-0.024672l-0.043203,0.018504Z M565.891382,597.32922l0.061627,0.003368l0.057361,-0.020338l-0.01811,-0.019212l-0.079398,-0.006192l-0.044508,0.017026l0.023028,0.025349Z M582.636156,595.267368l0.030941,-0.014291l-0.001351,-0.045514l-0.028076,-0.030094l-0.030224,0.003195l-0.003278,0.037502l0.031989,0.049203Z M583.465601,595.12768l0.014755,-0.017203l-0.017214,-0.056523l-0.024591,-0.00983v0.034405l0.02705,0.04915Z M585.512207,595.749541l0.027774,-0.024672l-0.006172,-0.033923l-0.064805,-0.012336l-0.043203,0.01542l0.006172,0.043175l0.080235,0.012336Z M586.385479,596.421605l0.018465,-0.032666l-0.010277,-0.016866l-0.041397,0.014479l-0.01451,0.030823l0.019243,0.010281l0.028476,-0.006052Z M589.425351,597.129592l-0.038367,0.012111l0.033775,0.060528l0.094641,0.055207l0.025325,-0.01097l-0.03103,-0.054201l-0.084342,-0.062674Z M589.164919,596.579541l0.035598,0.016589l0.01871,-0.029779l-0.020054,-0.055061l-0.035864,-0.026337l-0.030843,0.0145l0.032453,0.080088Z M589.397404,596.703889l0.033724,-0.00903l0.015127,-0.044688l-0.087366,-0.064652l-0.035983,0.000605l-0.010498,0.036675l0.084996,0.08109Z M593.863193,599.71833l0.099046,-0.061864l-0.024762,-0.06805l-0.074285,-0.024746l-0.136189,0.043305l-0.00619,0.08661l0.142379,0.024746Z M594.816516,599.687398l0.191903,0.037118l0.111427,-0.006186l-0.018571,-0.043305l-0.284759,-0.061864l-0.049523,0.024746l0.049523,0.049491Z M594.506995,599.71833l0.117618,-0.006186l0.030952,-0.043305l-0.173331,-0.024746l-0.061904,0.030932l0.086666,0.043305Z M594.197475,599.792567l0.129999,-0.024746v-0.055678l-0.15476,0.012373l-0.043333,0.037118l0.068094,0.030932Z M593.405103,600.275106l0.191903,-0.092796v-0.049491l-0.229045,0.074237l-0.030952,0.061864l0.068094,0.006186Z M593.677481,600.33697l0.160951,0.018559l0.086666,-0.061864l-0.068094,-0.061864l-0.14857,0.006186l-0.086666,0.055678l0.055714,0.043305Z "/>
</svg>
