<svg xmlns="http://www.w3.org/2000/svg" viewBox="660.648 668.837 2.810 2.404">
  <path d="M661.012751,669.820151v-0.015665l0.018798,-0.023497l0.004699,-0.017231l-0.014098,-0.001566l-0.014098,0.029763l-0.015665,0.003133l-0.059526,-0.061093l-0.025064,-0.003133l-0.015665,-0.017231l-0.014098,-0.028197l-0.001566,-0.015665l0.018798,-0.012532l0.012532,-0.02663l0.021931,-0.006266l0.004699,-0.015665l-0.023497,-0.012532l-0.007832,0.017231l-0.010965,-0.003133l0.004699,-0.025064l-0.018798,-0.001566l-0.014098,0.010965l0.017231,0.050127l-0.018798,0.025064h-0.046994l-0.018798,-0.015665l-0.032896,-0.054827l-0.032896,-0.021931l-0.037595,-0.056393l-0.003133,-0.040728l0.050127,-0.061093l-0.004699,-0.034462l-0.015665,-0.021931l-0.003133,-0.062659l0.004699,-0.020364l-0.004699,-0.025064l-0.018798,-0.03133l0.001566,-0.081457l0.009399,-0.023497l-0.003133,-0.036029l-0.023497,-0.029763l0.004699,-0.02663l0.014098,-0.014098l-0.010965,-0.039162l-0.042295,-0.040728l0.003133,-0.028197l0.042756,-0.062935l0.035384,-0.002949l0.185766,0.13269l0.173971,0.08846l0.091408,0.008846l0.061922,0.035384l0.040298,0.055042l0.034247,0.066591l-0.004699,0.009399l-0.019719,0.000676l-0.008477,0.01029l0.008477,0.005437l0.031452,-0.005897l0.029487,0.043247l0.01376,0.05111l-0.004853,0.01889l-0.021931,-0.001566l-0.014098,0.015665l0.004699,0.010965l0.010965,-0.007832l0.025217,-0.000737l-0.001966,0.043247l0.00688,0.089443l0.032435,0.138587l0.13269,0.22115l0.268328,0.215252l0.056025,0.064871l0.076665,0.035384l0.159228,0.038333l0.070768,-0.011795l0.076665,0.026538l0.035384,0.026538l0.097306,0.020641l0.227047,0.017692l0.053076,-0.005897l0.047179,0.020641l0.212304,0.144484l0.058973,0.073717l0.023589,0.070768l-0.04423,0.036367l-0.021624,-0.01376l-0.045213,-0.001966l-0.011795,0.011795l0.019658,0.020641l-0.009829,0.014743l-0.035384,0.003932l0.001966,0.019658l0.017692,0.009829l0.045213,-0.005897l0.03735,0.009829l0.055042,0.027521l0.009829,-0.011795l-0.041281,-0.041281l0.001966,-0.031452l0.023589,-0.021624l0.017692,0.009829l0.009829,0.03735l0.10222,0.173971l0.112049,0.1091l0.067819,0.094357l0.141536,0.114998l0.004914,0.016709l-0.021624,0.003932l-0.041281,-0.007863l-0.029487,0.025555h-0.047179l-0.047179,-0.021624h-0.080597l-0.121878,0.055042l-0.055042,-0.005897l-0.114015,-0.05111l-0.03735,-0.027521l-0.05111,-0.025555l-0.003932,-0.035384l-0.023589,-0.011795l-0.039315,-0.003932l-0.045213,-0.025555l-0.005897,-0.03735l0.015726,-0.033418l0.029487,0.005897l0.011795,0.023589l0.01376,-0.01376l0.01376,-0.055042l-0.019658,-0.041281l-0.039315,0.005897l-0.005897,0.03735l-0.068802,-0.003932l-0.007863,-0.029487l-0.025555,0.009829l0.003932,0.031452l0.031452,0.027521l0.021624,-0.005897l0.015726,0.01376l-0.005897,0.043247l0.003932,0.023589l-0.041281,-0.003932l-0.019658,-0.03735l0.003932,-0.035384l-0.027521,-0.015726l-0.033418,0.035384l-0.025555,0.001966l-0.115981,-0.080597l-0.031452,-0.007863l-0.082563,-0.062905l-0.10222,-0.049144l-0.059434,-0.013453l0.003133,-0.018798l0.021931,-0.03133l0.009399,-0.036029l0.025064,-0.001566l0.004699,0.034462l0.018798,0.012532l0.012532,-0.009399l-0.006634,-0.020948l0.011334,-0.008815l0.039162,0.001566l0.014375,-0.034032l-0.001843,-0.05369l0.015665,-0.017231l-0.009399,-0.020364l-0.023497,-0.009399l-0.050127,0.017231l-0.004699,0.028197l0.012532,0.017231l0.03133,0.004699l0.018798,0.017231l-0.015665,0.017231l-0.028197,-0.006266l-0.010965,-0.017231h-0.021931l-0.004699,0.017231l-0.036029,0.001566l-0.028197,-0.025064l-0.073624,-0.018798l-0.012532,0.015665l0.010965,0.010965l0.045428,0.015665l0.007832,0.023497l0.040728,0.010965l-0.003133,0.036029l-0.02663,0.03133l-0.034462,0.001566l-0.098688,-0.032896l-0.076757,-0.065792l0.004699,-0.059526l0.028197,-0.037595l-0.018798,-0.02663l-0.028197,-0.001566l-0.004699,0.023497l0.009399,0.021931l-0.003133,0.032896l0.003072,0.01204l-0.007771,0.008324l-0.083023,-0.045428l-0.012532,-0.025064l-0.021931,-0.009399l-0.039162,-0.007832l-0.028197,-0.043861l0.001566,-0.02663l0.025064,-0.007832l0.023497,0.003133l0.034462,-0.042295l-0.010965,-0.017231l-0.025064,-0.004699l-0.006266,0.015665l0.012532,0.012532l-0.014098,0.014098l-0.03133,0.012532l-0.023497,-0.012532l-0.017231,-0.059526l-0.017231,-0.020364l-0.040728,-0.034462l-0.02663,-0.067358l-0.017231,-0.009399l-0.004699,-0.014098l0.009399,-0.02663l-0.048561,-0.064226l-0.100254,-0.040728l-0.042295,0.012532l-0.017231,-0.009399l-0.02663,-0.048561l-0.001566,-0.017231l-0.018798,-0.003133l0.003133,0.017231l-0.012532,0.003133l-0.018798,-0.007832l-0.007832,0.010965l0.029763,0.020364l-0.015665,0.007832l-0.034462,-0.001566l-0.012532,0.015665l0.012532,0.021931h0.025064l0.014098,-0.017231l0.032896,-0.020364l0.015665,0.006266l0.015665,0.028197l-0.034462,0.068925l-0.034462,0.006266l-0.05326,-0.020364l-0.059526,-0.036029l-0.010965,-0.036029l-0.018798,-0.012532l-0.020364,-0.001566l-0.004699,-0.023497l0.003133,-0.073624l-0.014098,-0.017231l-0.021931,-0.006266l-0.009399,-0.017231l0.004699,-0.023497l-0.025064,-0.043861l-0.025064,-0.010965l-0.029763,-0.003133l-0.007832,-0.023497l0.003133,-0.034462l-0.012532,-0.017231Z "/>
</svg>
