<svg xmlns="http://www.w3.org/2000/svg" viewBox="1814.035 820.039 1.208 1.086">
  <path d="M1814.149658,820.575579l0.046693,-0.110588l-0.012288,-0.058981l-0.044235,-0.031948l-0.014745,-0.044235l0.01966,-0.086013l0.041778,-0.012288l0.041778,0.02949l0.02949,0.051608l0.127791,0.063896l0.152366,0.024575l0.186772,-0.056523l0.152366,-0.103216l0.024575,-0.04915l-0.004915,-0.041778l0.017203,-0.00983l0.024575,0.00983l0.022118,-0.00983l-0.002458,-0.051608l0.017203,-0.034405l0.027033,-0.007373l0.041778,0.01966l0.103216,-0.02949l0.031948,0.017203l-0.007373,0.068811l0.044235,0.108131l-0.007373,0.066353l-0.017203,0.022118l0.004915,0.054065l0.044235,0.031948l-0.002458,0.024575l-0.058981,0.03932l-0.056523,0.007373l-0.132706,0.162196v0.061438l0.022118,0.056523l-0.002585,0.056649l-0.053938,0.05394l-0.022118,0.137621l0.017203,0.054065l-0.017203,0.046693l-0.110588,0.017203l-0.056523,-0.022118l-0.03932,-0.103216l-0.012288,-0.159739l-0.034405,-0.061438l-0.051608,-0.034405l-0.135164,-0.02949l-0.058981,0.017203l-0.034405,-0.014745l-0.024575,-0.036863l-0.157281,-0.014745l-0.041778,0.01966l-0.036863,0.04915l-0.051608,0.017203l-0.054065,-0.017203v-0.051608l0.061438,-0.076183l0.054065,-0.02949Z "/>
</svg>
