<svg xmlns="http://www.w3.org/2000/svg" viewBox="1333.475 512.470 1.829 1.080">
  <path d="M1333.475329,512.865789l0.01,-0.186l0.048,-0.03l0.188,0.024l0.076,-0.112l0.109,-0.023l0.045,-0.069l0.2,0.004l0.031,0.129l0.163,0.133l0.114,0.032l0.072,-0.069l0.127,0.028l0.123,-0.101l0.217,0.027l0.009,0.171l-0.099,0.013l-0.078,-0.027l-0.068,0.064l0.023,0.101l0.059,0.019l0.045,-0.051l0.109,-0.023l0.145,-0.005l-0.032,0.261l0.024,0.109l0.169,0.228l-0.042,0.037l-0.345,-0.079l-0.072,0.036l-0.169,-0.018l0.006,-0.104l-0.164,-0.391l-0.283,-0.228l-0.379,0.007l-0.381,0.093z"/>
</svg>
