<svg xmlns="http://www.w3.org/2000/svg" viewBox="1330.250 508.804 12.040 4.190">
  <path d="M1339.715725,510.401129l0.005,-0.052l-0.005,-0.064l-0.069,-0.05l-0.136,-0.031l-0.07,0.017l-0.073,-0.013l-0.062,-0.07l-0.199,-0.049l-0.118,0.032l-0.063,-0.018l-0.059,-0.101l-0.059,0.004l-0.014,0.087l-0.101,0.076l-0.175,-0.003l-0.104,-0.087l0.003,-0.105l-0.031,-0.059l-0.045,0.021l-0.021,0.261l-0.063,0.084l-0.167,0.014l-0.08,0.073l-0.084,-0.025l0.007,-0.108l0.06,-0.034l0.007,-0.056l-0.021,-0.038l0.003,-0.07l0.129,-0.122l0.007,-0.087l-0.07,-0.098l-0.014,-0.118l0.035,-0.111l-0.049,-0.087l-0.149,-0.101l-0.035,-0.084l0.007,-0.059l-0.035,-0.046l-0.059,-0.017l-0.018,-0.104l0.028,-0.077l-0.073,-0.08l-0.052,-0.004l-0.066,0.175l-0.15,0.01l-0.08,-0.063l-0.08,0.004l-0.042,0.062l-0.3,0.234l-0.128,-0.025l-0.126,-0.16l-0.296,-0.136l-0.153,-0.027l-0.104,0.052l-0.077,0.136l-0.202,0.16l-0.247,0.007l-0.08,-0.059l-0.178,-0.028l-0.098,0.021l-0.146,0.16l-0.146,0.073l-0.087,0.111l-0.146,0.087l-0.202,0.014l-0.154,-0.108l-0.083,0.007l0.003,0.084l-0.108,0.104h-0.17l-0.171,-0.069l-0.195,-0.241l-0.188,-0.02l-0.122,-0.081l-0.258,0.007l-0.055,-0.069l0.027,-0.164l-0.002,-0.229l-0.149,-0.054l-0.145,-0.013l-0.064,0.036l-0.081,-0.018l-0.055,0.023l-0.045,0.064l-0.131,0.028l-0.078,0.041l-0.09,0.014l-0.045,-0.018l-0.01,-0.037l-0.036,0.005l-0.068,0.179l-0.104,0.078l-0.104,0.216l-0.15,0.252l-0.226,0.184l-0.263,0.106l-0.232,-0.014l-0.149,-0.06l-0.322,-0.248l-0.086,-0.147l-0.077,-0.004l-0.064,0.147l0.01,0.294l0.231,0.298l0.031,0.143l0.005,0.158l-0.015,0.052l-0.052,0.009l-0.006,0.047l0.077,0.042l0.087,0.161l-0.014,0.096l-0.05,0.041l0.009,0.069l0.136,0.184l0.041,0.106l0.068,0.018l0.054,-0.014l0.136,0.083l0.046,0.143l0.013,0.211l0.086,0.248l-0.036,0.069l0.018,0.032l0.086,-0.014l0.127,0.134l0.123,0.032l0.176,0.165l0.114,0.037l0.081,-0.023l0.141,0.064l0.095,0.005l0.299,0.119l0.181,0.129l0.277,0.097l0.149,0.018l0.127,0.064h0.096l0.068,-0.046l0.136,0.01l0.074,-0.046l0.01,-0.186l0.048,-0.03l0.188,0.024l0.076,-0.112l0.109,-0.023l0.045,-0.069l0.2,0.004l0.031,0.129l0.163,0.133l0.114,0.032l0.072,-0.069l0.127,0.028l0.123,-0.101l0.217,0.027l0.009,0.171l-0.099,0.013l-0.078,-0.027l-0.068,0.064l0.023,0.101l0.059,0.019l0.045,-0.051l0.109,-0.023l0.145,-0.005l0.161,-0.16l0.227,-0.151l0.353,-0.143l0.241,-0.037l0.271,0.042l0.427,0.009l0.054,-0.032l0.041,-0.074l0.109,-0.036l0.145,0.041l0.09,-0.014l0.109,-0.078l0.157,-0.018l0.278,-0.135l0.103,-0.098l0.272,-0.092l0.169,-0.006l0.078,-0.08l0.176,-0.122l0.09,-0.092l0.121,-0.031l0.157,0.006l0.073,0.049l0.048,-0.037l0.006,-0.091l0.073,-0.111l0.127,-0.116l0.012,-0.068l-0.03,-0.079l0.024,-0.27l0.054,-0.226l0.2,-0.197l0.157,-0.067z M1341.006882,509.724846l0.04,0.075l0.254,0.024l0.084,-0.052l0.069,0.004l0.098,0.052l0.069,0.003l0.101,-0.048l0.163,0.097l0.154,0.19l0.019,0.086l0.166,0.193l-0.003,0.034h-0.046l-0.003,0.046l0.028,0.012l0.006,0.021l-0.003,0.037l0.033,0.028l0.021,-0.01l0.024,0.007l0.009,0.036l-0.018,0.037l-0.039,-0.009l-0.003,-0.037l-0.037,-0.012l-0.039,0.028l-0.045,-0.007l-0.021,-0.03l-0.091,-0.046l-0.139,-0.037l-0.045,-0.049l-0.055,-0.015l-0.042,0.015l-0.054,-0.003l-0.055,-0.031l-0.16,0.003l-0.109,0.062l-0.26,0.039l-0.045,0.056l-0.345,-0.059l-0.054,-0.033l0.043,-0.062l0.072,-0.006l-0.02,-0.142l-0.104,-0.003l-0.057,-0.046l-0.01,-0.164l-0.21,-0.107l0.029,-0.073l0.133,-0.091l0.127,0.069l0.118,-0.039l0.118,-0.108l0.097,0.098l0.037,-0.033z"/>
</svg>
