<svg xmlns="http://www.w3.org/2000/svg" viewBox="1333.475 509.323 7.661 4.227">
  <path d="M1339.606946,509.96614l-0.067,-0.061l0.031,-0.123l0.121,-0.03l0.066,-0.049l0.079,0.03l-0.072,0.22l0.05,0.014l0.176,-0.129l0.168,0.111l0.054,-0.06l0.082,0.004l0.05,-0.087l0.168,-0.106l0.131,0.074l0.095,-0.028l0.114,-0.105l-0.041,-0.147l0.034,-0.153l0.048,-0.018l0.153,0.116v0.096l0.089,0.051v0.062l-0.085,0.036l-0.013,0.026l-0.031,0.015l-0.037,0.033l-0.097,-0.098l-0.118,0.108l-0.118,0.039l-0.127,-0.069l-0.133,0.091l-0.029,0.073l0.21,0.107l0.01,0.164l0.057,0.046l0.104,0.003l0.02,0.142l-0.072,0.006l-0.043,0.062l0.054,0.033l0.345,0.059l-0.067,0.105l-0.102,0.06l-0.151,-0.018l-0.169,-0.148l-0.44,-0.111l-0.087,-0.003l-0.032,0.014l-0.051,-0.017l-0.218,-0.005l0.005,-0.052l-0.005,-0.064l0.09,-0.024v-0.05l-0.096,-0.043l-0.006,-0.061l0.042,-0.031l-0.006,-0.042l-0.133,-0.068z M1333.475329,512.865789l0.01,-0.186l0.048,-0.03l0.188,0.024l0.076,-0.112l0.109,-0.023l0.045,-0.069l0.2,0.004l0.031,0.129l0.163,0.133l0.114,0.032l0.072,-0.069l0.127,0.028l0.123,-0.101l0.217,0.027l0.009,0.171l-0.099,0.013l-0.078,-0.027l-0.068,0.064l0.023,0.101l0.059,0.019l0.045,-0.051l0.109,-0.023l0.145,-0.005l-0.032,0.261l0.024,0.109l0.169,0.228l-0.042,0.037l-0.345,-0.079l-0.072,0.036l-0.169,-0.018l0.006,-0.104l-0.164,-0.391l-0.283,-0.228l-0.379,0.007l-0.381,0.093z"/>
</svg>
