<svg xmlns="http://www.w3.org/2000/svg" viewBox="1333.129 505.004 12.509 5.238">
  <path d="M1339.606946,509.96614l-0.067,-0.061l0.031,-0.123l0.121,-0.03l0.066,-0.049l0.079,0.03l-0.072,0.22l0.05,0.014l0.176,-0.129l0.168,0.111l0.054,-0.06l0.082,0.004l0.05,-0.087l0.168,-0.106l0.131,0.074l0.095,-0.028l0.114,-0.105l-0.041,-0.147l0.034,-0.153l0.048,-0.018l0.153,0.116v0.096l0.089,0.051v0.062l-0.085,0.036l0.032,0.045l0.103,0.02l0.102,-0.003l0.101,-0.046h0.082l0.113,0.054l0.098,-0.017l-0.084,-0.077l-0.169,-0.224l-0.021,-0.073l-0.036,-0.04l-0.097,-0.074l-0.094,-0.171l-0.063,-0.037l-0.021,-0.055l0.006,-0.04l-0.064,-0.168l0.006,-0.184l0.037,-0.258l0.132,-0.177l0.091,-0.172l0.181,-0.147l0.182,-0.03l0.108,0.042l0.321,-0.049l0.078,-0.049l0.061,-0.239l0.115,-0.134l0.278,-0.282l0.332,-0.196l0.375,-0.184l0.326,-0.129l0.405,-0.355l0.169,-0.067l0.181,-0.135l0.055,-0.159l0.121,-0.141l0.247,-0.135l0.17,-0.049l0.229,-0.104l0.176,-0.019l0.09,-0.116l0.006,-0.11l0.042,-0.141l0.085,-0.055h-0.091l-0.217,0.055l-0.085,0.092l-0.121,0.049l-0.048,-0.043l-0.048,0.012l-0.018,0.092l-0.236,0.067l-0.097,-0.018l-0.121,0.024l-0.151,0.123l-0.084,0.012h-0.115l-0.169,0.092l-0.067,0.117l-0.169,0.134l-0.193,0.104l-0.085,-0.006l-0.181,0.062l-0.103,0.067l-0.2,0.025l-0.132,-0.037l-0.067,0.018l-0.03,0.11l-0.091,0.049l-0.084,0.098l-0.085,0.141l-0.109,0.055l-0.235,0.068l-0.43,0.233l-0.326,0.116l-0.477,0.135l-0.266,0.104l-0.206,0.006l-0.278,-0.012l-0.253,0.08l-0.278,0.183l-0.303,0.153l-0.405,0.031l-0.211,0.061l-0.205,0.013l-0.297,0.085l-0.296,-0.018l-0.163,0.025l-0.489,-0.043l-0.067,-0.031l-0.272,-0.049l-0.103,0.012l-0.09,-0.018l-0.115,0.018l-0.218,-0.079h-0.096l-0.097,0.049l-0.181,-0.025l-0.151,-0.067l-0.103,-0.006l-0.145,0.073l-0.26,-0.024l-0.133,-0.068l-0.254,-0.018l-0.181,-0.135l-0.121,-0.031l-0.175,-0.104l-0.024,0.049l0.024,0.086l0.006,0.208l0.024,0.068l0.048,0.049l0.043,0.361l-0.073,0.435l-0.145,0.356l-0.109,0.171l-0.151,0.08l-0.205,0.11l-0.121,-0.012l-0.206,-0.117l-0.29,-0.098l-0.018,-0.055l-0.054,-0.012l-0.042,0.025l-0.109,-0.037l0.002,0.07l-0.032,0.126l0.078,0.11l0.206,0.025l0.066,0.067l0.23,0.067l0.042,0.08l0.242,0.208l0.115,0.019l0.066,-0.037l-0.024,-0.074l0.03,-0.055l0.157,-0.043l0.188,0.074l0.06,0.012l0.187,-0.049l0.2,-0.165l0.042,-0.111l0.187,-0.122l0.315,-0.123l0.169,0.007l0.06,0.085l0.055,0.025l0.084,-0.043l0.031,-0.092l0.145,-0.153l0.133,-0.019l0.253,0.049l0.29,0.148l0.26,0.049l0.169,-0.049l0.037,-0.074l0.169,-0.006l0.06,0.061l0.091,-0.012l0.042,-0.147l0.055,-0.049h0.096l0.055,0.03l-0.006,0.074l0.078,0.086l0.006,0.055l-0.054,0.031l0.012,0.042h0.054l0.091,0.16l0.198,0.264l0.104,0.256l-0.024,0.172l-0.054,0.11l-0.097,0.062l-0.03,0.116l0.06,0.043l0.109,-0.012l0.018,-0.049l0.061,-0.227l-0.006,-0.117l0.036,-0.098l0.139,-0.012l0.066,-0.061l0.097,-0.012l0.193,0.128l0.012,0.08l0.109,0.098h0.073l0.084,-0.08l0.097,0.013l0.06,0.061l0.109,0.031l0.242,-0.019z"/>
</svg>
