<svg xmlns="http://www.w3.org/2000/svg" viewBox="1332.999 508.741 8.723 1.627">
  <path d="M1341.051293,509.684331l0.032,0.045l0.103,0.02l0.102,-0.003l0.101,-0.046h0.082l0.113,0.054l0.098,-0.017l0.019,0.027l0.021,0.019l-0.101,0.048l-0.069,-0.003l-0.098,-0.052l-0.069,-0.004l-0.084,0.052l-0.254,-0.024l-0.04,-0.075l0.031,-0.015l0.013,-0.026z M1333.15876,508.881718l0.002,0.07l-0.032,0.126l0.078,0.11l0.206,0.025l0.066,0.067l0.23,0.067l0.042,0.08l0.242,0.208l0.115,0.019l0.066,-0.037l-0.024,-0.074l0.03,-0.055l0.157,-0.043l0.188,0.074l0.06,0.012l0.187,-0.049l0.2,-0.165l0.042,-0.111l0.187,-0.122l0.315,-0.123l0.169,0.007l0.06,0.085l0.055,0.025l0.084,-0.043l0.031,-0.092l0.145,-0.153l0.133,-0.019l0.253,0.049l0.29,0.148l0.26,0.049l0.169,-0.049l0.037,-0.074l0.169,-0.006l0.06,0.061l0.091,-0.012l0.042,-0.147l0.055,-0.049h0.096l0.055,0.03l-0.006,0.074l0.078,0.086l0.006,0.055l-0.054,0.031l0.012,0.042h0.054l0.091,0.16l0.198,0.264l0.104,0.256l-0.024,0.172l-0.054,0.11l-0.097,0.062l-0.03,0.116l0.06,0.043l0.109,-0.012l0.018,-0.049l0.061,-0.227l-0.006,-0.117l0.036,-0.098l0.139,-0.012l0.066,-0.061l0.097,-0.012l0.193,0.128l0.012,0.08l0.109,0.098h0.073l0.084,-0.08l0.097,0.013l0.06,0.061l0.109,0.031l0.242,-0.019l0.133,0.068l0.006,0.042l-0.042,0.031l0.006,0.061l0.096,0.043v0.05l-0.09,0.024l-0.069,-0.05l-0.136,-0.031l-0.07,0.017l-0.073,-0.013l-0.062,-0.07l-0.199,-0.049l-0.118,0.032l-0.063,-0.018l-0.059,-0.101l-0.059,0.004l-0.014,0.087l-0.101,0.076l-0.175,-0.003l-0.104,-0.087l0.003,-0.105l-0.031,-0.059l-0.045,0.021l-0.021,0.261l-0.063,0.084l-0.167,0.014l-0.08,0.073l-0.084,-0.025l0.007,-0.108l0.06,-0.034l0.007,-0.056l-0.021,-0.038l0.003,-0.07l0.129,-0.122l0.007,-0.087l-0.07,-0.098l-0.014,-0.118l0.035,-0.111l-0.049,-0.087l-0.149,-0.101l-0.035,-0.084l0.007,-0.059l-0.035,-0.046l-0.059,-0.017l-0.018,-0.104l0.028,-0.077l-0.073,-0.08l-0.052,-0.004l-0.066,0.175l-0.15,0.01l-0.08,-0.063l-0.08,0.004l-0.042,0.062l-0.3,0.234l-0.128,-0.025l-0.126,-0.16l-0.296,-0.136l-0.153,-0.027l-0.104,0.052l-0.077,0.136l-0.202,0.16l-0.247,0.007l-0.08,-0.059l-0.178,-0.028l-0.098,0.021l-0.146,0.16l-0.146,0.073l-0.087,0.111l-0.146,0.087l-0.202,0.014l-0.154,-0.108l-0.083,0.007l0.003,0.084l-0.108,0.104h-0.17l-0.171,-0.069l-0.195,-0.241l-0.188,-0.02l-0.122,-0.081l-0.258,0.007l-0.055,-0.069l0.027,-0.164l-0.002,-0.229l0.075,0.01l0.06,0.001z"/>
</svg>
