<svg xmlns="http://www.w3.org/2000/svg" viewBox="1330.250 505.004 15.388 8.546">
  <path d="M1333.023603,508.871015l0.075,0.01l0.06,0.001l0.109,0.037l0.042,-0.025l0.054,0.012l0.018,0.055l0.29,0.098l0.206,0.117l0.121,0.012l0.205,-0.11l0.151,-0.08l0.109,-0.171l0.145,-0.356l0.073,-0.435l-0.043,-0.361l-0.048,-0.049l-0.024,-0.068l-0.006,-0.208l-0.024,-0.086l0.024,-0.049l0.175,0.104l0.121,0.031l0.181,0.135l0.254,0.018l0.133,0.068l0.26,0.024l0.145,-0.073l0.103,0.006l0.151,0.067l0.181,0.025l0.097,-0.049h0.096l0.218,0.079l0.115,-0.018l0.09,0.018l0.103,-0.012l0.272,0.049l0.067,0.031l0.489,0.043l0.163,-0.025l0.296,0.018l0.297,-0.085l0.205,-0.013l0.211,-0.061l0.405,-0.031l0.303,-0.153l0.278,-0.183l0.253,-0.08l0.278,0.012l0.206,-0.006l0.266,-0.104l0.477,-0.135l0.326,-0.116l0.43,-0.233l0.235,-0.068l0.109,-0.055l0.085,-0.141l0.084,-0.098l0.091,-0.049l0.03,-0.11l0.067,-0.018l0.132,0.037l0.2,-0.025l0.103,-0.067l0.181,-0.062l0.085,0.006l0.193,-0.104l0.169,-0.134l0.067,-0.117l0.169,-0.092h0.115l0.084,-0.012l0.151,-0.123l0.121,-0.024l0.097,0.018l0.236,-0.067l0.018,-0.092l0.048,-0.012l0.048,0.043l0.121,-0.049l0.085,-0.092l0.217,-0.055h0.091l-0.085,0.055l-0.042,0.141l-0.006,0.11l-0.09,0.116l-0.176,0.019l-0.229,0.104l-0.17,0.049l-0.247,0.135l-0.121,0.141l-0.055,0.159l-0.181,0.135l-0.169,0.067l-0.405,0.355l-0.326,0.129l-0.375,0.184l-0.332,0.196l-0.278,0.282l-0.115,0.134l-0.061,0.239l-0.078,0.049l-0.321,0.049l-0.108,-0.042l-0.182,0.03l-0.181,0.147l-0.091,0.172l-0.132,0.177l-0.037,0.258l-0.006,0.184l0.064,0.168l-0.006,0.04l0.021,0.055l0.063,0.037l0.094,0.171l0.097,0.074l0.036,0.04l0.021,0.073l0.169,0.224l0.084,0.077l0.019,0.027l0.021,0.019l0.163,0.097l0.154,0.19l0.019,0.086l0.166,0.193l-0.003,0.034h-0.046l-0.003,0.046l0.028,0.012l0.006,0.021l-0.003,0.037l0.033,0.028l0.021,-0.01l0.024,0.007l0.009,0.036l-0.018,0.037l-0.039,-0.009l-0.003,-0.037l-0.037,-0.012l-0.039,0.028l-0.045,-0.007l-0.021,-0.03l-0.091,-0.046l-0.139,-0.037l-0.045,-0.049l-0.055,-0.015l-0.042,0.015l-0.054,-0.003l-0.055,-0.031l-0.16,0.003l-0.109,0.062l-0.26,0.039l-0.045,0.056l-0.067,0.105l-0.102,0.06l-0.151,-0.018l-0.169,-0.148l-0.44,-0.111l-0.087,-0.003l-0.032,0.014l-0.051,-0.017l-0.218,-0.005l-0.157,0.067l-0.2,0.197l-0.054,0.226l-0.024,0.27l0.03,0.079l-0.012,0.068l-0.127,0.116l-0.073,0.111l-0.006,0.091l-0.048,0.037l-0.073,-0.049l-0.157,-0.006l-0.121,0.031l-0.09,0.092l-0.176,0.122l-0.078,0.08l-0.169,0.006l-0.272,0.092l-0.103,0.098l-0.278,0.135l-0.157,0.018l-0.109,0.078l-0.09,0.014l-0.145,-0.041l-0.109,0.036l-0.041,0.074l-0.054,0.032l-0.427,-0.009l-0.271,-0.042l-0.241,0.037l-0.353,0.143l-0.227,0.151l-0.161,0.16l-0.032,0.261l0.024,0.109l0.169,0.228l-0.042,0.037l-0.345,-0.079l-0.072,0.036l-0.169,-0.018l0.006,-0.104l-0.164,-0.391l-0.283,-0.228l-0.379,0.007l-0.381,0.093l-0.074,0.046l-0.136,-0.01l-0.068,0.046h-0.096l-0.127,-0.064l-0.149,-0.018l-0.277,-0.097l-0.181,-0.129l-0.299,-0.119l-0.095,-0.005l-0.141,-0.064l-0.081,0.023l-0.114,-0.037l-0.176,-0.165l-0.123,-0.032l-0.127,-0.134l-0.086,0.014l-0.018,-0.032l0.036,-0.069l-0.086,-0.248l-0.013,-0.211l-0.046,-0.143l-0.136,-0.083l-0.054,0.014l-0.068,-0.018l-0.041,-0.106l-0.136,-0.184l-0.009,-0.069l0.05,-0.041l0.014,-0.096l-0.087,-0.161l-0.077,-0.042l0.006,-0.047l0.052,-0.009l0.015,-0.052l-0.005,-0.158l-0.031,-0.143l-0.231,-0.298l-0.01,-0.294l0.064,-0.147l0.077,0.004l0.086,0.147l0.322,0.248l0.149,0.06l0.232,0.014l0.263,-0.106l0.226,-0.184l0.15,-0.252l0.104,-0.216l0.104,-0.078l0.068,-0.179l0.036,-0.005l0.01,0.037l0.045,0.018l0.09,-0.014l0.078,-0.041l0.131,-0.028l0.045,-0.064l0.055,-0.023l0.081,0.018l0.064,-0.036l0.145,0.013l0.149,0.054z"/>
</svg>
