<svg xmlns="http://www.w3.org/2000/svg" viewBox="1197.032 381.280 44.626 21.560">
  <path d="M1215.057216,382.917483l0.045,-0.032l0.158,0.009l0.071,-0.021l0.022,-0.053h0.052l0.115,0.071l0.037,-0.006l0.025,-0.043l0.052,-0.006l0.325,0.107l0.062,-0.003l0.071,-0.04l0.124,-0.012l0.024,-0.043l-0.024,-0.169l0.021,-0.095v-0.074l-0.055,-0.061l0.009,-0.05l0.133,-0.138l0.012,-0.107l-0.024,-0.062l0.012,-0.04l0.034,-0.015l0.015,-0.04l-0.08,-0.126l-0.056,-0.003l-0.074,0.058l-0.136,-0.11l0.102,-0.172l0.087,-0.003l0.114,-0.059l0.037,-0.058l0.078,0.018l0.021,0.062l0.056,0.018l0.08,-0.009l0.013,-0.077l0.049,-0.003l0.099,0.062l0.139,0.021l0.013,0.04l-0.031,0.04l0.049,0.098h0.09l0.074,0.025l0.062,-0.003l0.006,-0.025l-0.052,-0.009l0.062,-0.147l0.17,-0.08l0.037,0.009l0.021,0.209l-0.024,0.058l0.009,0.031l0.111,0.043l0.053,-0.034l-0.016,-0.037l0.041,-0.037l0.055,0.003l0.155,-0.064l0.04,0.012l-0.015,0.043l0.021,0.08l0.037,0.04l0.146,-0.006l0.04,0.055l-0.012,0.077l0.024,0.04l0.053,0.009l0.043,0.055l-0.021,0.062l-0.127,0.092l-0.022,0.151l0.053,0.089l0.015,0.076l-0.003,0.08l0.226,0.274l0.155,0.024l0.108,0.04l0.127,0.154l0.02,0.143l-0.002,0.34l0.076,0.052l0.086,-0.015l0.17,-0.24l0.087,-0.036l0.106,0.022l0.184,0.132l0.082,0.022l0.071,-0.02l0.072,0.022l0.042,0.076l0.049,0.02l0.059,-0.032l0.094,0.005l0.044,0.034l0.081,0.005l0.119,-0.02l0.17,0.042l0.071,0.076l0.333,0.081l0.047,0.036l0.022,0.064l0.079,0.042l0.251,0.024l0.126,-0.046l0.15,-0.005l0.06,-0.044l0.034,-0.049l0.109,-0.015l0.061,0.02l0.077,0.093l0.014,0.161l0.109,0.135l0.089,0.22l-0.003,0.064l0.104,0.049l0.051,-0.012l0.037,-0.047l0.173,-0.059l0.042,0.02l0.039,-0.003l0.059,-0.049l0.143,-0.034l0.097,0.015l0.101,0.051l0.022,0.088l0.044,0.064l0.037,0.152l-0.017,0.046l0.029,0.088l0.074,0.018l-0.007,0.031l-0.126,0.049l-0.056,0.062l0.012,0.041l0.096,0.057l0.035,-0.018l0.037,0.015l0.004,0.034l0.023,0.015h0.032l0.076,-0.105l0.049,-0.01l0.047,0.017l0.037,-0.015l0.037,-0.188l0.045,-0.061l0.145,-0.091l0.047,-0.086l0.056,-0.012l0.104,0.02l0.071,0.066l0.055,0.017l0.047,-0.015l0.15,0.076l0.044,0.069v0.054l0.037,0.019l0.193,-0.032l0.036,-0.073l0.005,-0.105l0.074,-0.15l0.062,-0.022l0.091,0.03h0.153l0.052,0.058l0.118,0.01l0.094,-0.051l0.108,0.01l0.059,0.049l0.02,0.08l0.04,0.025l0.078,0.01l0.055,0.073l0.032,0.005l0.024,0.027l0.008,0.054l0.074,0.081l0.066,0.014l0.146,0.113l0.103,0.142l-0.005,0.088l-0.123,0.081h-0.086l-0.027,0.027l0.032,0.129l-0.025,0.035l-0.106,0.032l-0.005,0.031l0.067,0.064l-0.003,0.044l-0.096,0.074l-0.071,0.029l-0.104,0.132l-0.108,0.027l-0.126,-0.078l-0.059,0.005l-0.027,0.049l0.012,0.041l-0.02,0.027l-0.037,0.003l-0.032,0.029l-0.007,0.054l-0.032,0.032l-0.057,-0.003l-0.042,-0.032l-0.032,0.013v0.041l-0.029,0.003l-0.052,-0.03l-0.057,0.042l0.005,0.073l-0.086,0.044l-0.094,0.01l-0.017,0.039l0.084,0.062l-0.027,0.051l-0.04,-0.007l-0.027,-0.059l-0.052,0.012l-0.007,0.047l-0.059,0.009l-0.035,0.03l0.012,0.078l0.077,0.061l0.022,0.079l-0.017,0.034l0.037,0.034l0.125,-0.049l0.102,0.061l-0.02,0.089l0.027,0.024l0.057,-0.002l0.032,0.027l-0.008,0.061l0.027,0.036l0.04,0.01l0.022,0.025l-0.007,0.046l0.027,0.017l0.056,-0.012l0.094,-0.105l0.131,-0.007l0.071,0.031l0.064,0.005l0.03,-0.024l0.074,0.005l0.054,0.09l-0.002,0.047l-0.03,0.085l0.015,0.059l0.071,0.061l0.084,0.152l0.052,0.039h0.049l0.059,-0.041l0.106,0.002l0.126,0.164l0.106,0.076v0.059l0.02,0.044l0.044,0.024l0.096,0.147l0.052,0.039l0.069,0.032l0.052,0.108l0.086,0.061l0.074,0.012l0.106,0.138l0.025,0.11l-0.035,0.071l0.02,0.125l0.029,0.036l0.005,0.042l-0.024,0.054l0.022,0.061l0.113,0.066l0.02,0.051l-0.005,0.04l0.027,0.034l0.074,0.017l0.111,0.083l0.106,0.14l0.069,0.034h0.091l0.18,0.054l0.067,0.049l0.088,0.012l0.116,-0.066l0.077,-0.174l0.049,-0.078l0.101,-0.02l0.148,-0.078l0.123,-0.196l0.027,-0.134l0.089,-0.086l0.052,0.005l0.066,-0.044l0.025,-0.059l0.067,-0.027l0.101,0.059l0.093,0.01l0.052,-0.045l0.027,-0.1l0.089,-0.073l0.148,-0.015l0.066,0.024l0.131,-0.002l0.057,-0.064l-0.015,-0.046l0.022,-0.049l0.049,-0.02l0.047,0.015l0.104,0.196l0.052,0.019l0.078,-0.019l0.067,-0.066l-0.01,-0.059l-0.084,-0.078l-0.01,-0.071l-0.034,-0.025v-0.044l0.094,-0.081l0.009,-0.117l-0.074,-0.13l-0.059,-0.061l-0.066,-0.008l-0.094,-0.036l-0.027,-0.049l-0.039,-0.015l-0.035,0.015l-0.047,-0.005l-0.074,-0.049l-0.042,-0.098l0.025,-0.042l-0.015,-0.073l-0.061,-0.025l-0.074,-0.142l0.019,-0.078l-0.032,-0.142l-0.051,-0.024l-0.03,0.014l-0.044,-0.019l-0.023,-0.044l-0.103,-0.044l-0.081,-0.057l0.002,-0.054l0.076,-0.137l0.047,-0.112l0.158,-0.032l0.069,0.012l0.049,0.049l0.269,0.125l0.044,0.054l0.05,0.005l0.093,-0.064l0.079,0.007l0.064,0.042l0.156,0.049l0.091,0.064l0.177,0.044l0.079,-0.032l0.099,-0.003l0.032,0.03l-0.005,0.059l0.029,0.022l0.072,0.009l0.116,0.106l0.098,0.005l0.166,-0.079l0.113,0.012l0.015,0.042l-0.025,0.054l0.017,0.098l0.077,0.066l0.088,0.13l0.168,0.12l0.104,0.032l0.088,0.053l0.114,0.015l0.113,-0.024l0.076,-0.054l0.111,-0.013l0.032,0.023l-0.027,0.078l0.01,0.041l0.035,0.018l0.005,0.036l-0.045,0.052l-0.005,0.11l-0.037,0.022l0.003,0.037l0.042,0.029l0.017,0.091l0.042,0.039l0.037,-0.005l0.015,-0.115l0.044,-0.054l0.121,-0.002l0.071,0.022l0.027,0.044l0.045,0.005l0.042,-0.02l0.059,0.017l0.029,0.083l-0.005,0.074l0.052,0.041l0.047,0.003l0.069,-0.047l0.012,-0.1l0.028,-0.01l0.032,0.015l0.16,-0.052l0.103,-0.009l0.348,0.039l0.066,-0.008l0.077,-0.056l0.076,-0.007l0.037,0.024l0.005,0.042l0.052,0.029l0.094,0.003l0.199,-0.084l0.106,-0.107l0.079,-0.039l0.064,-0.074l-0.005,-0.193l0.027,-0.02l0.153,0.042l0.049,0.041l0.023,0.084l0.047,0.036l0.115,0.018l0.01,0.036l-0.056,0.066l-0.047,0.098l-0.059,0.061v0.12l0.231,0.174l-0.002,0.052l-0.022,0.076l-0.008,0.137l-0.066,0.036h-0.062l-0.067,-0.022l-0.073,0.005l-0.057,0.15l-0.067,0.031l-0.429,0.088l-0.034,0.035h-0.114l-0.096,0.061l0.003,0.051l0.064,0.076l0.01,0.066l0.222,0.118l0.093,0.142l0.101,0.051l0.05,-0.01l0.034,-0.08l0.052,-0.013l0.111,0.025l0.16,0.139l0.007,0.076l0.111,0.096l0.143,0.269l0.013,0.179l0.051,0.064l0.082,0.012l0.069,0.046l0.138,0.013l0.071,0.048v0.042l-0.051,0.047l0.024,0.044l0.099,0.027l0.098,0.056l0.023,0.054l0.049,0.012l0.079,-0.042l0.187,0.003l0.094,-0.027l0.175,-0.211l0.108,-0.029l0.057,0.02l0.052,-0.01l0.079,-0.096l0.041,0.01l0.013,0.034l0.034,0.02l0.111,0.005l0.074,0.032l0.037,-0.01l-0.007,-0.13l0.022,-0.049l-0.02,-0.056l-0.079,-0.03l-0.064,0.003l-0.052,0.056l-0.039,-0.002l-0.037,-0.071l0.01,-0.125l0.158,-0.091h0.071l0.136,0.054l0.027,0.066l0.056,0.035l0.062,0.002l0.044,0.039l-0.019,0.066l0.022,0.044l0.074,0.047l0.002,0.042l-0.044,0.036l0.01,0.061l0.069,0.081l0.086,0.034l0.091,-0.009l0.094,0.046l0.027,0.066l0.062,0.01l0.069,-0.056l-0.017,-0.059l0.029,-0.037l0.064,-0.007l0.042,0.037l0.111,0.005l0.054,0.115l0.003,0.088l0.051,0.037l0.097,-0.02l0.184,0.024l0.067,0.042l0.039,0.091l-0.002,0.115l0.054,0.078l0.045,0.01l0.034,0.024l0.03,0.037l0.088,0.042l0.047,-0.015l0.013,-0.078l0.037,-0.018l0.054,0.025l0.061,-0.059l-0.034,-0.044l-0.096,-0.042l0.022,-0.026l0.126,0.012l0.081,0.061l0.094,0.024l0.175,-0.004l0.096,-0.044l0.069,0.031l0.017,0.071l0.067,0.047l0.115,0.007l0.025,0.02l0.007,0.039l0.129,0.086l0.249,0.056h0.066l0.052,-0.078l-0.017,-0.113l0.037,-0.017l0.056,0.044l0.042,0.002l0.062,-0.024l0.029,0.017l0.013,0.147l-0.052,0.179l0.02,0.085l0.064,0.037l0.123,0.01l0.044,0.027l0.003,0.036l-0.118,0.052l-0.025,0.088l-0.057,0.054l-0.01,0.117l0.057,0.054l0.185,0.451l-0.005,0.107l0.039,0.032l0.052,-0.002l0.032,0.029v0.169l-0.019,0.034l0.073,0.071l0.18,0.04l0.013,0.036l0.052,0.015l0.113,-0.025l0.108,0.027l0.047,0.14l0.151,0.078h0.093l0.074,-0.051l0.116,-0.005l0.145,0.046l0.042,0.064l-0.017,0.203l0.111,0.319l0.01,0.102l0.069,0.042l0.007,0.044l-0.029,0.049l0.002,0.11l0.062,0.088l0.096,0.093l-0.005,0.081l-0.081,0.078l-0.005,0.047l-0.035,0.029l0.017,0.044l-0.075,0.015l-0.114,0.006l-0.211,0.076l-0.118,0.131h-0.143l-0.118,-0.082l-0.087,-0.022l-0.074,0.019l-0.056,-0.01l-0.025,-0.027l-0.068,-0.009l-0.177,0.064l-0.183,0.036l-0.081,-0.027l-0.025,-0.082l-0.074,-0.016l-0.286,0.064l-0.087,0.098l-0.006,0.067l0.09,0.088l-0.025,0.058l-0.347,0.259l-0.019,0.08l-0.133,0.155l-0.084,0.043l-0.047,0.051l-0.087,0.01l-0.139,-0.046l-0.041,0.04l0.044,0.228l-0.084,0.092l-0.009,0.067l-0.13,0.146l-0.09,0.058l-0.401,0.125l-0.043,0.033l-0.32,0.089h-0.174l-0.223,0.064l-0.031,0.125l-0.158,0.1l-0.09,0.156l-0.003,0.091l0.062,0.052l-0.028,0.125l-0.131,0.161l-0.018,0.159l0.04,0.052l-0.006,0.057l-0.109,0.068l-0.056,0.155l0.031,0.107l-0.012,0.109l0.006,0.144l-0.124,0.176l-0.012,0.092l-0.081,0.122l-0.149,0.1l-0.18,0.055l-0.04,0.034l-0.093,-0.003l-0.09,-0.046l-0.066,0.003l-0.046,0.04h-0.078l-0.062,-0.022l-0.232,0.028l-0.066,0.125l-0.012,0.115l-0.062,0.083l-0.019,0.112l0.01,0.089l-0.075,0.134l-0.009,0.11l-0.072,0.054l-0.077,0.007l-0.078,-0.028l-0.434,0.015l-0.041,0.07l-0.145,0.092l-0.066,0.058l-0.071,0.125l-0.192,0.158l-0.14,0.025l-0.186,0.051l-0.158,0.007l-0.075,0.054l-0.019,0.043l-0.037,0.021l-0.059,-0.003l-0.049,0.028l-0.022,0.07l-0.062,0.024l-0.127,0.003l-0.072,-0.045l-0.037,0.027l0.031,0.046l-0.053,0.045l-0.052,-0.018l-0.098,0.047l-0.036,-0.01l-0.019,-0.034l0.028,-0.062l-0.017,-0.013l-0.037,0.051l-0.031,0.004l-0.203,-0.172l-0.142,-0.038l-0.094,0.039l-0.067,0.095l-0.032,0.021l-0.049,-0.002l-0.122,0.1l-0.056,0.004l-0.052,-0.029h-0.062l-0.055,0.032l-0.039,-0.005l-0.04,-0.053l-0.185,-0.127l-0.008,-0.051l-0.037,-0.019l-0.071,0.007l-0.144,-0.068l-0.022,-0.046l-0.059,-0.022l-0.099,-0.007l-0.127,-0.063l-0.138,-0.027l-0.057,-0.034l-0.077,-0.007l-0.089,0.048l-0.108,0.148l-0.079,0.071l-0.285,0.107l-0.042,0.08l-0.022,0.155l-0.067,0.073l-0.022,0.061l-0.119,0.07l-0.057,0.066l-0.079,0.036l-0.044,0.051l-0.003,0.051l-0.027,0.034l-0.064,0.049l-0.037,0.075l-0.067,0.073l-0.02,0.073l-0.057,0.048l-0.027,0.066l0.01,0.085l-0.04,0.053l-0.074,0.03l-0.073,0.153l-0.02,0.089l0.003,0.146l-0.047,0.099l0.003,0.039l-0.023,0.041l-0.137,0.076l-0.142,-0.013l-0.009,-0.064l0.046,-0.082l-0.005,-0.059l-0.041,-0.019l-0.005,-0.036l0.028,-0.05v-0.114l-0.065,-0.018l-0.023,-0.064l0.037,-0.064l-0.028,-0.159l-0.12,-0.105l-0.115,-0.009l-0.083,0.073l-0.093,0.005l-0.06,-0.023l-0.055,-0.005l-0.065,0.023l-0.069,0.005l-0.041,0.036h-0.056l-0.037,-0.036l-0.092,-0.009l-0.148,-0.055l-0.046,-0.077l-0.134,-0.055l-0.184,-0.009l-0.093,0.059l-0.06,-0.004l-0.032,-0.073l0.051,-0.087l-0.037,-0.182l-0.097,-0.095l-0.152,-0.023l-0.079,0.036l-0.18,-0.027l-0.102,-0.073l-0.124,-0.023l-0.116,-0.123l-0.073,-0.009l-0.088,0.069h-0.296l-0.055,-0.041h-0.055l-0.06,0.054l-0.019,0.087l-0.074,0.095l0.01,0.064l-0.033,0.05l-0.078,0.027l-0.065,0.069l-0.023,0.091l-0.125,0.045l-0.069,0.05l-0.157,-0.009l0.005,-0.054l-0.065,-0.023l-0.092,0.073h-0.12l-0.097,-0.05l-0.185,-0.019l-0.069,0.032l-0.692,-0.091l-0.097,0.028l-0.268,-0.005l-0.221,-0.064l-0.074,-0.063l-0.42,-0.178l-0.245,-0.164l-0.023,-0.068l0.041,-0.087l-0.06,-0.032l-0.087,0.041l-0.074,-0.041l0.028,-0.072l-0.097,-0.046l-0.107,0.014l-0.083,-0.064l-0.023,-0.1l-0.055,-0.009l-0.037,0.036l-0.143,-0.054l-0.009,-0.032l0.037,-0.023l0.004,-0.05l-0.074,-0.027l-0.078,0.041l-0.24,-0.032l-0.093,0.018l-0.027,0.073l-0.097,0.073l-0.088,0.009l-0.217,-0.05l-0.115,0.018l-0.074,-0.018l-0.171,-0.169l-0.143,-0.05l-0.051,-0.064l-0.083,-0.036l-0.074,0.023l-0.161,-0.005l-0.093,-0.054l-0.3,-0.092l-0.078,-0.054l-0.046,-0.146l-0.203,-0.095h-0.12l-0.194,-0.037l-0.213,-0.155l-0.175,-0.091l-0.217,-0.018l-0.065,0.055l-0.12,-0.018l-0.064,-0.041l-0.009,-0.069l-0.074,-0.027l-0.042,0.059l0.033,0.068l-0.065,0.178l-0.079,0.046l-0.101,-0.041l-0.222,0.022l-0.097,0.114h-0.041l-0.032,-0.036h-0.051l-0.028,0.032l-0.065,-0.01l-0.009,-0.045l0.06,-0.082l0.005,-0.064l-0.051,-0.036l-0.037,-0.087l-0.009,-0.091l-0.111,-0.05l-0.157,-0.004l-0.097,0.036l-0.18,-0.045l-0.037,-0.046l-0.004,-0.064l-0.065,-0.018l-0.074,0.023l-0.06,-0.005l-0.064,-0.05h-0.06l-0.074,0.05l-0.065,-0.004l-0.028,0.036l0.06,0.055l-0.032,0.1l-0.101,0.096l-0.019,0.191l0.046,0.136l-0.014,0.087l0.051,0.105l0.019,0.136l-0.06,0.196l-0.056,0.054v0.151l0.06,0.059l-0.014,0.041l-0.064,0.018l-0.116,0.332l0.028,0.1l0.106,0.055l0.019,0.091l-0.106,0.073l-0.093,-0.005l-0.175,-0.054l-0.069,0.013l-0.144,-0.045l-0.046,-0.05l-0.078,-0.018l-0.069,0.032l-0.06,-0.005l-0.056,-0.046l-0.194,0.014l-0.041,0.068l0.027,0.064l-0.046,0.155l0.028,0.077l-0.018,0.046l-0.07,0.018l-0.106,0.127l-0.286,0.142l-0.055,0.081v0.096l-0.079,0.182l0.028,0.055l0.014,0.123l-0.037,0.095l-0.01,0.069l0.033,0.054l-0.014,0.064l-0.065,0.05l-0.004,0.064l-0.056,0.022l-0.175,0.005l-0.065,-0.032l-0.014,-0.086l-0.05,-0.078l-0.06,-0.009l-0.065,0.032l-0.055,-0.009l-0.028,-0.123l-0.051,-0.055h-0.078l-0.236,0.164l-0.069,0.009l-0.06,-0.072l-0.166,-0.037l-0.088,0.014l-0.055,-0.032l-0.037,-0.109l-0.176,-0.105l-0.106,0.014l-0.027,0.041l0.055,0.077l-0.014,0.087l-0.125,0.241l-0.064,0.013l-0.083,-0.031h-0.111l-0.032,0.041l0.023,0.072l-0.056,0.064l-0.074,0.005l-0.06,-0.037l-0.055,0.009l-0.018,0.105l-0.102,0.059l-0.051,-0.009l-0.018,-0.059l-0.097,-0.009l-0.222,-0.082l-0.046,-0.055l-0.101,-0.018l-0.065,0.032l-0.083,-0.018l-0.074,-0.059l-0.231,-0.051l-0.069,0.032l-0.097,-0.004l-0.055,-0.041h-0.171l-0.106,0.045l-0.093,-0.013l-0.064,-0.055l-0.116,-0.009l-0.032,-0.046l-0.069,-0.004l-0.06,-0.059l0.004,-0.087l-0.041,-0.041h-0.079l-0.092,-0.073l-0.009,-0.05l0.092,-0.082l0.171,-0.018l0.051,-0.068l-0.028,-0.096l-0.125,-0.018l-0.087,-0.068l-0.102,-0.164l-0.06,-0.027l-0.134,-0.005l-0.106,-0.032l-0.046,-0.05l-0.046,-0.032l-0.051,-0.004l-0.171,-0.182l-0.24,-0.173l-0.148,-0.034l-0.12,0.014l-0.148,-0.009l-0.065,-0.046v-0.061l0.037,-0.065l-0.009,-0.074l-0.139,-0.19l0.009,-0.046l-0.07,-0.024l-0.041,0.024l-0.075,-0.042l-0.097,-0.265l-0.074,-0.111v-0.056l-0.051,-0.009l-0.061,0.056l-0.125,-0.01l-0.079,0.024l-0.093,-0.01l-0.037,-0.032l-0.004,-0.056l-0.098,-0.079l-0.097,-0.167l-0.014,-0.065l-0.084,-0.097l0.024,-0.047l-0.019,-0.046l-0.079,0.005l-0.028,0.046h-0.046l-0.079,-0.088v-0.084l-0.093,-0.06l-0.218,0.005l-0.074,-0.028l-0.125,0.014l-0.024,0.046l-0.009,0.149l-0.042,0.037l-0.074,-0.005l-0.111,-0.111l-0.149,-0.074l-0.092,-0.024l-0.214,-0.143l-0.009,-0.093l0.037,-0.037v-0.047l-0.056,-0.046l-0.009,-0.065l0.028,-0.056l-0.051,-0.139l0.004,-0.074l-0.065,-0.056l-0.064,-0.018l-0.07,-0.084l-0.144,-0.111l-0.014,-0.07l-0.348,-0.246l-0.116,-0.014l-0.181,0.042h-0.106l-0.186,-0.079l-0.186,-0.111l-0.009,-0.098l0.033,-0.088l-0.028,-0.097l-0.2,-0.116l-0.097,-0.116l-0.093,-0.033l-0.023,-0.037l0.024,-0.083l-0.021,-0.031l-0.096,-0.025l-0.046,-0.053l0.015,-0.074l-0.043,-0.056l-0.062,-0.006l-0.084,-0.043l-0.021,-0.074l-0.044,-0.034l-0.111,-0.028l-0.046,-0.099l0.024,-0.096l-0.021,-0.121l-0.13,-0.034l-0.214,-0.219l-0.207,-0.081l-0.151,-0.012l-0.118,-0.056l-0.102,-0.003l-0.043,0.025l0.024,0.096l-0.012,0.04l-0.062,-0.003l-0.145,-0.062l-0.04,-0.04h-0.034l-0.034,0.031h-0.158l-0.195,-0.053l-0.028,-0.04l0.028,-0.056l-0.028,-0.049l-0.065,-0.016l-0.056,-0.077l-0.015,-0.176l-0.17,-0.127l-0.071,-0.012l-0.05,-0.035l-0.012,-0.055l-0.047,-0.031h-0.173l-0.145,-0.105v-0.143l-0.047,-0.117l-0.058,-0.065l0.009,-0.155l-0.04,-0.058v-0.069l0.04,-0.049l0.006,-0.111l-0.052,-0.034l-0.075,0.037l-0.204,-0.093l-0.006,-0.05l-0.115,-0.13l-0.018,-0.111l0.028,-0.074l-0.006,-0.062l-0.062,-0.062l-0.04,-0.189l-0.047,-0.049l-0.108,0.019l-0.053,-0.041l-0.012,-0.12l-0.043,-0.044l-0.004,-0.046l0.035,-0.049l0.015,-0.205l-0.056,-0.071h-0.164l-0.061,-0.025l-0.022,-0.049l-0.245,-0.074l-0.095,-0.143l-0.01,-0.068l-0.037,-0.052l-0.077,-0.009l-0.059,-0.152l0.012,-0.087l0.43,-0.204l0.028,-0.065l-0.043,-0.136l0.04,-0.056l0.025,-0.095l-0.009,-0.062l0.055,-0.059l0.068,0.009l0.034,-0.031l-0.015,-0.086l0.031,-0.047l0.056,-0.003l0.046,-0.046l0.012,-0.112l0.047,-0.071l0.093,-0.058l0.064,-0.096l-0.015,-0.149l-0.062,-0.046l-0.189,-0.034l-0.225,-0.071l-0.022,-0.093l0.065,-0.087l0.062,-0.018l0.031,-0.031l0.015,-0.102l-0.052,-0.037l-0.078,-0.007l-0.028,-0.024l-0.024,-0.065l-0.078,-0.022l-0.151,0.062l-0.034,-0.028l0.031,-0.065l-0.037,-0.046l-0.152,-0.01l-0.043,-0.034l0.021,-0.04l-0.034,-0.034l-0.117,0.003l-0.257,-0.182l-0.068,0.021l-0.053,-0.024l-0.046,-0.115l-0.124,-0.068l-0.204,-0.006l-0.028,-0.053l0.05,-0.074l-0.006,-0.062l-0.269,-0.179l-0.093,-0.016l-0.065,-0.04l-0.053,-0.136l-0.006,-0.139l0.065,-0.136l0.049,-0.056l-0.006,-0.087l-0.065,-0.157l-0.185,-0.195l-0.075,-0.003l-0.027,-0.034l0.024,-0.034l-0.024,-0.062l-0.087,-0.053l-0.164,-0.012l-0.065,-0.053l-0.003,-0.037l-0.034,-0.031l-0.071,-0.003l-0.009,-0.046l0.037,-0.028l0.009,-0.05l0.071,-0.049h0.065l0.111,-0.071l-0.009,-0.071l-0.083,-0.056l-0.019,-0.08l0.028,-0.044l-0.009,-0.034l-0.118,-0.043l-0.028,-0.043l0.028,-0.031l0.053,0.006l0.024,0.04l0.059,0.003l0.031,-0.028l0.241,-0.028l0.096,0.028l0.031,0.059l0.059,0.028l0.022,0.043l-0.007,0.207l0.041,0.065l0.182,0.031l0.102,-0.006l0.078,0.013l0.049,0.068l0.016,0.068l-0.034,0.028l-0.106,-0.025l-0.027,0.052l0.136,0.121l0.102,0.012l0.077,0.112l-0.04,0.123l-0.059,0.059l0.003,0.062l0.068,0.04l0.056,0.093l0.124,0.028l0.133,0.006l0.018,-0.028l-0.071,-0.028l0.003,-0.043l0.056,-0.052l0.015,-0.062l-0.077,-0.075l0.006,-0.08l0.037,-0.028l0.013,-0.04l-0.025,-0.105l0.028,-0.062l0.105,0.028l0.04,-0.034l-0.037,-0.099l0.012,-0.087l0.087,-0.164l0.102,-0.062l0.102,-0.018l0.037,-0.084l-0.031,-0.055l0.01,-0.099l0.043,-0.05l0.164,0.012l0.043,-0.034l-0.012,-0.058l0.028,-0.056l0.16,-0.111l0.056,-0.003l0.046,0.034h0.056l0.028,-0.053l-0.031,-0.071l0.009,-0.084l0.087,-0.133l0.121,-0.092l0.519,-0.078l0.096,-0.068l0.105,-0.006l0.09,0.037h0.087l0.055,-0.034l0.078,0.006l0.176,0.124l0.031,-0.015l0.012,-0.069l0.124,-0.089l0.043,-0.108l0.341,-0.134l0.083,0.01l0.062,0.105l0.031,-0.003l-0.016,-0.077l0.053,-0.112l0.04,-0.025l0.43,0.236l0.043,0.064l0.056,0.025l0.059,-0.006l0.117,0.068l0.056,0.068h0.031l0.009,-0.04l0.226,-0.09l0.118,-0.111l0.151,-0.102l0.034,-0.078l-0.031,-0.08l0.025,-0.204l0.059,-0.115l0.006,-0.065l0.062,-0.024l0.09,0.074l0.151,0.022l0.149,-0.025l0.17,-0.121h0.059l0.009,0.071l0.046,0.019l0.081,-0.012l0.198,0.046l0.058,-0.031l0.013,-0.09l0.185,-0.303l-0.012,-0.08l0.015,-0.056l0.047,-0.028l0.021,-0.049l-0.006,-0.053l0.118,-0.093l0.151,0.003l0.102,0.118l0.143,-0.006l0.065,-0.037l-0.022,-0.152l0.065,-0.071l0.229,-0.09l0.077,-0.108l-0.04,-0.148l0.031,-0.022l0.083,0.034l0.13,0.124l0.044,0.126l0.105,0.072l0.093,0.006l0.114,0.059l0.053,-0.01l0.046,-0.083l0.115,-0.09l0.018,-0.056l0.183,-0.099l0.003,-0.055l-0.056,-0.013l-0.015,-0.049l0.086,-0.111l0.068,-0.016l0.037,-0.034l-0.018,-0.152l-0.112,-0.083l0.022,-0.046l0.074,-0.01l0.075,-0.065l0.083,-0.012l0.251,0.034l0.154,-0.043l0.019,-0.056l0.102,-0.056l0.161,-0.015l0.182,0.105h0.096l0.016,-0.062l0.074,-0.059l0.052,-0.003l0.065,0.034l0.056,-0.003l0.065,-0.049l0.319,0.015l0.123,0.059l0.189,-0.016l0.043,-0.111l0.044,-0.015l0.089,0.034l0.112,-0.053l0.015,-0.086l-0.074,-0.069l-0.009,-0.071l0.068,-0.114l-0.003,-0.056l0.043,-0.037l0.093,0.034l0.142,-0.009l0.09,-0.071l0.018,-0.081l0.189,-0.086l0.065,-0.007l0.056,0.05l0.071,0.006l0.093,0.068h0.049l0.034,-0.049l0.099,-0.013l0.049,0.01l0.084,-0.01l0.012,-0.071l0.084,-0.068l0.22,-0.043l0.095,-0.034l0.106,-0.081l0.111,-0.034l0.173,-0.018l0.235,-0.17l0.01,-0.106l0.043,-0.052l0.192,-0.046l0.077,0.009l0.062,0.059l0.13,0.009l0.226,-0.071l0.018,-0.053l0.031,-0.018l0.099,0.043h0.071l0.056,-0.043l-0.003,-0.103l0.018,-0.061l0.071,-0.05v-0.065l-0.049,-0.068l-0.074,-0.012l-0.053,0.018l-0.294,-0.074l-0.08,-0.053l-0.016,-0.074l-0.037,-0.009l-0.009,-0.043l0.043,-0.031l0.075,-0.006l0.03,-0.034l-0.015,-0.075l-0.133,-0.006l-0.074,0.059l-0.102,0.003l-0.143,-0.071l-0.006,-0.053l0.047,-0.037l0.012,-0.043l-0.031,-0.037l0.025,-0.093l0.077,-0.019l0.053,-0.083l-0.059,-0.068l0.012,-0.04l0.078,-0.016l0.077,-0.111l0.09,-0.003l0.13,0.12l0.052,0.013l0.115,-0.041l0.114,0.05l0.037,0.099l0.127,0.062l0.133,0.003l0.161,-0.121h0.13l0.055,0.071l0.075,0.019l0.04,-0.028l-0.013,-0.09l0.016,-0.061l0.049,-0.019l0.044,0.037l-0.05,0.118l0.003,0.065l0.186,0.037l0.04,0.046l-0.015,0.05l0.04,0.021l0.105,-0.031h0.096l0.182,0.186l0.016,0.083l-0.028,0.096l-0.102,0.201l-0.124,0.115l-0.012,0.074l0.056,0.046l0.111,0.01l0.396,-0.133l0.037,0.028l0.006,0.154l-0.031,0.062l-0.043,0.043l-0.099,0.248l-0.05,0.04l0.004,0.065l0.185,0.077l0.071,-0.009l0.09,0.022l0.08,0.074l0.072,0.009l0.08,-0.006l0.084,0.046v0.081l0.046,0.018l0.074,-0.052l0.062,-0.006l0.145,0.074l0.149,-0.006l0.071,-0.025l0.012,-0.121l0.047,-0.114l0.083,-0.077l0.014,-0.086z"/>
</svg>
