<svg xmlns="http://www.w3.org/2000/svg" viewBox="1392.936 666.632 10.981 11.999">
  <path d="M1402.198914,673.192658l0.051038,-0.041758l0.139194,-0.013919l0.037118,0.046398l-0.013919,0.055678l-0.060317,0.018559l-0.120635,-0.013919l-0.032479,-0.051038Z M1403.849136,668.245084l0.049491,0.018559l0.018559,-0.021652l-0.015466,-0.034025l-0.043305,-0.012373l-0.024746,0.00928l0.015466,0.040212Z M1401.994328,673.25138l0.00493,0.022184l0.044368,0.007395l0.061622,-0.007395l0.00986,-0.029579l-0.071482,-0.00986l-0.049298,0.017254Z  M1397.090494,668.232711l0.381,-0.381l0.51,0.186l0.344,0.26l0.232,0.269l0.482,0.427l0.047,-0.126l0.116,-0.06l0.143,-0.014l0.056,-0.107l0.149,-0.092l0.204,-0.028l0.102,-0.112l-0.005,-0.171l-0.134,-0.139l0.004,-0.167l0.144,-0.191l0.162,-0.055l0.093,-0.102l0.047,-0.205l0.144,-0.153l0.31,-0.093l0.191,-0.129l1.062,-0.418l0.06,0.102l0.089,0.288l0.747,0.914l0.194,0.338l0.061,0.038l0.093,-0.056l0.046,0.018l0.037,0.237l0.186,0.334l0.097,0.395l-0.009,0.162l0.046,0.125l0.158,0.181l0.079,0.223l0.023,0.468l-0.023,0.451l-0.232,0.575l-0.149,0.088l-0.334,0.033l-0.065,0.064l-0.157,0.019l-0.232,-0.014l-0.311,0.056l-0.144,0.102l-0.682,0.793l-0.153,0.079l-0.362,0.009l-0.135,0.07l-0.079,0.116l-0.102,0.009l-0.222,-0.069l-0.209,0.004l-0.214,0.098l-0.078,0.083l-0.098,0.047l-0.134,0.014l-0.135,0.097l-0.116,0.195l-0.019,0.107l-0.06,0.088l-0.144,0.088l-0.148,0.195l-0.037,0.176v0.13l-0.098,0.13l-0.19,0.056l-0.195,-0.07l-0.093,-0.014l-0.065,0.028l-0.176,-0.033l-0.107,-0.111l-0.13,-0.018l-0.083,0.06l-0.014,0.06l0.097,0.116l-0.004,0.051l-0.06,0.061v0.06l0.157,0.097l0.339,0.297l0.13,0.014l0.102,-0.037l0.019,-0.06l0.069,-0.019l0.237,0.051l0.055,-0.037l-0.009,-0.102l-0.158,-0.158l0.019,-0.083l0.121,-0.084l0.143,-0.004l0.441,-0.126l0.13,-0.102l0.223,-0.051l1.452,-0.014l0.115,-0.055l0.129,0.006l0.075,0.08l0.148,0.006l0.105,-0.074l0.068,-0.161l0.062,-0.012l0.044,0.074l-0.019,0.204l0.186,0.347l0.074,0.062l0.08,0.006l0.155,0.111v0.173l0.133,0.133l-1.011,1.615l-0.885,1.414l-0.204,0.018l-0.174,0.13h-0.235l-0.167,-0.074l-0.309,-0.025l-0.099,-0.086l-0.019,-0.211l-0.167,-0.278l-0.092,-0.006l-0.334,0.111l-0.087,-0.006l-0.204,-0.223l-0.13,-0.012l-0.118,0.068l-0.048,0.103l-0.747,0.228l-0.321,0.233l-0.157,0.115l-0.38,-0.116l-0.199,0.009l-0.223,0.097l-0.181,0.149l-0.241,0.079l-0.172,-0.019l-0.06,-0.074l-0.149,-0.056l-0.209,-0.004l-0.329,0.144l-0.107,0.106l-0.018,0.112l-0.056,0.041l-0.223,-0.004l-0.106,0.041h-0.093l-0.121,-0.032l-0.074,0.009l-0.06,0.075h-0.103l-0.041,-0.089l0.018,-0.051l-0.014,-0.041l-0.273,-0.01l-0.502,-0.13l-0.218,-0.083l0.005,-0.042l0.135,-0.014l0.004,-0.037l-0.19,-0.06v-0.084l0.059,-0.063l0.093,-1.813l-0.05,-0.544l-0.192,-0.885l0.068,-0.352l0.087,-0.118l0.043,-0.377l0.037,-0.124l0.013,-0.155l0.167,-0.445l0.346,-0.155l0.062,-0.229l0.328,-0.167l0.266,-0.297l0.445,-0.686l0.248,-0.297l0.258,-0.396l0.102,-0.07l0.085,-0.24l0.569,-0.878l0.446,-0.384l0.148,-0.501l0.436,-0.581z"/>
</svg>
