<svg xmlns="http://www.w3.org/2000/svg" viewBox="711.382 647.013 1.581 2.942">
  <path d="M711.381677,647.715179l0.033923,-0.058595l0.074015,-0.030839l0.046259,-0.098686l0.012336,-0.070931l-0.037007,-0.055511l-0.043175,-0.003084l-0.046259,0.018504l-0.027756,-0.027756l0.021588,-0.033923l0.070931,-0.009252l0.024672,-0.055511l-0.037007,-0.095602l0.030839,-0.13261l0.046259,-0.040091l0.175785,-0.006168l0.086351,0.033923l0.157281,0.246716l0.046259,0.024672h0.074015l0.049343,-0.033923l0.021588,0.003084l0.049343,0.043175l0.055511,-0.006168l0.024672,-0.018504l0.061679,0.012336l0.018504,0.043175l0.058595,0.012336l0.046259,-0.006168l0.070931,0.012336l0.006168,0.030839l-0.018504,0.046259l0.046259,0.064763l0.040091,0.120274l0.049343,0.040091h0.067847l0.024672,0.037007l-0.027756,0.098686l0.027756,0.024672l0.043175,-0.01542l0.055511,0.018504v0.10177l0.077099,0.188121l-0.012336,0.107938l-0.074015,0.151113l0.018504,0.027756l0.033923,0.006168l0.006168,0.027756l-0.009252,0.037007l0.01542,0.074015l-0.046259,0.040091l0.021588,0.021588l0.046259,-0.009252l0.021588,0.021588l-0.012336,0.049343l-0.052427,0.021588l-0.006168,0.033923l0.046259,0.024672v0.027756l-0.043175,0.021588l0.003084,0.13261l0.018504,0.080183l0.040091,0.058595v0.049343l-0.037007,0.135694l-0.003084,0.055511l0.01542,0.030839v0.046259l-0.049343,0.027756l-0.030839,0.114106v0.067847l-0.024672,0.049343l-0.074015,0.040091h-0.074015l-0.030839,0.024672l-0.018504,-0.003084l-0.01542,-0.027756l-0.080183,-0.006168l-0.030839,0.024672l-0.01542,0.074015l-0.027756,0.030839l-0.061679,0.021588l-0.021588,0.027756l0.006168,0.030839l-0.01542,0.021588l-0.123358,0.021588l-0.10177,-0.006168l-0.021588,-0.030839l0.043175,-0.052427l0.012336,-0.049343l-0.018504,-0.040091l-0.061679,-0.046259l-0.030839,-0.141862l0.021588,-0.098686l-0.006168,-0.077099l-0.040091,-0.040091l-0.052427,-0.012336l-0.012336,-0.033923l0.018504,-0.083267l-0.012336,-0.027756l-0.033923,-0.033923l-0.003084,-0.052427l0.021588,-0.046259l-0.009252,-0.135694l-0.070931,-0.080183l-0.049343,-0.111022l-0.086351,-0.055511l-0.01542,-0.061679l0.012336,-0.083267l-0.061679,-0.086351l-0.003084,-0.037007l-0.021588,-0.030839l-0.064763,-0.043175l-0.008384,-0.029779l0.02072,-0.0319l-0.01542,-0.037007l-0.040091,-0.046259l-0.027756,-0.104854l-0.043175,-0.052427l-0.024672,-0.077099l0.021588,-0.055511l-0.052427,-0.154197l-0.043175,-0.049343Z "/>
</svg>
