<svg xmlns="http://www.w3.org/2000/svg" viewBox="625.598 616.694 40.623 17.895">
  <path d="M663.180044,629.826381l0.018543,-0.120312l0.074171,-0.046274l0.26887,0.074038l0.111257,0.078666l0.092714,0.004627l0.074171,-0.023137l0.0649,0.013882l0.083443,0.087921l0.162249,0.037019l0.166885,-0.032392l0.106621,0.009255l0.115892,0.101803l0.069535,0.152704l-0.060264,0.069411l-0.0649,-0.004627l-0.264235,-0.101803h-0.134435l-0.254963,0.083293l-0.120528,-0.01851l-0.217878,-0.092548l-0.046357,-0.064784l-0.106621,-0.046274l-0.060264,-0.092548l-0.078807,-0.069411Z M661.68735,628.660275l0.09735,-0.009255l0.013907,-0.097175l-0.088078,-0.101803l-0.09735,0.032392l-0.023178,0.115685l0.09735,0.060156Z M644.315849,634.546332l0.030905,0.043189l0.0649,-0.01851l0.006181,-0.027764h-0.052538l-0.030905,-0.01851l-0.018543,0.021595Z M644.92158,633.960194l-0.00309,0.138822l0.074171,0.015425l0.259599,-0.055529l0.194699,-0.209776l-0.012362,-0.046274l-0.071081,0.01234l-0.0649,-0.077123l-0.021633,-0.089463l-0.1298,-0.040104l-0.06799,0.033934l-0.083443,0.132652l-0.074171,0.185096Z  M643.537052,630.754946l0.009,-0.049l0.09,-0.065l0.056,-0.185l-0.084,-0.227l0.028,-0.167l-0.25,-0.231l-0.014,-0.13l0.181,-0.268v-0.111l0.389,-0.666l-0.631,-0.241l-0.074,-0.111l-0.162,-0.037l-0.102,-0.204l-0.399,-0.189l-0.051,-0.195l0.218,-0.027l-0.009,-0.112l-0.45,-0.495l-0.116,-0.185l-0.227,-0.088l-0.018,-0.064l0.153,-0.075l0.083,-0.12l0.283,0.134l0.125,-0.074l0.306,0.135l0.338,-0.038l0.061,-0.379l0.408,-0.227l0.106,-0.569l-0.032,-0.268l0.014,-0.227l-0.288,-0.236l-0.116,-0.301l-0.333,-0.074l-0.265,0.162l-0.074,-0.06l0.135,-0.218l0.25,-0.143l0.241,-0.005l0.547,-0.435l0.051,-0.212l0.121,-0.093l0.194,-0.032l0.088,-0.185l0.065,-0.472l-0.065,-0.107l-0.292,-0.051l-0.403,-0.264l-0.213,-0.351l0.004,-0.07l0.334,-0.189l0.181,0.023l0.065,-0.079l-0.037,-0.185l0.116,-0.305l-0.102,-0.255l0.009,-0.227l-0.185,-0.333l-0.158,-0.153l-0.014,-0.333l0.088,-0.101l-0.028,-0.121l-0.125,-0.12l-0.018,-0.125l0.172,-0.028l0.049,-0.106l-0.157,-0.234l-0.008,-0.172l-0.041,-0.012l-0.126,0.123l-0.044,-0.02l0.066,-0.137l0.172,-0.172l0.074,-0.037l0.313,-0.086l0.16,-0.145l0.032,-0.285l0.079,-0.032l0.081,0.081l0.089,-0.008l0.14,-0.118l0.288,-0.047l0.464,0.044l0.68,0.327l0.593,0.074l0.235,0.08l0.253,-0.025l0.05,-0.185h0.08l0.155,0.08l0.303,-0.024l0.333,-0.173l0.037,-0.173l0.248,-0.136l0.309,-0.006l0.309,0.136l0.618,0.043l0.154,0.08l0.303,0.352l0.291,0.08l0.451,0.253l0.136,0.142l0.42,0.099l0.384,-0.031l0.086,-0.117l0.21,-0.05l0.291,0.05l0.346,0.277l0.253,0.371l0.396,0.259l0.513,0.055l0.321,0.111l0.439,-0.061l0.297,-0.327l0.593,-0.013l0.402,0.253l0.093,0.253l-0.118,0.333l0.037,0.204l0.161,0.111l0.019,0.105l-0.05,0.284l0.21,0.53l0.414,0.494l0.322,0.191l0.34,-0.018l0.265,-0.111l0.347,-0.044l0.315,-0.16l0.853,0.049l0.476,0.204l0.092,-0.006l0.167,-0.228l0.303,-0.124l0.142,-0.136l0.081,0.019l-0.025,0.179l-0.185,0.24l0.043,0.062l0.303,-0.012l0.247,-0.093l0.086,0.099l-0.111,0.204l-0.241,0.142l-0.074,0.123l-0.025,0.173l-0.173,0.105l-0.377,-0.074l-0.241,-0.075l-0.408,0.037l-0.099,0.062l-0.123,-0.018l-0.18,-0.081l-0.679,-0.08l-0.316,-0.111l-0.08,0.043l-0.019,0.272l-0.086,0.389l0.093,0.283l0.185,0.037l0.173,-0.06l0.116,0.005l0.079,0.069l0.088,0.005l0.111,-0.06l0.13,0.014l0.236,0.092l0.088,-0.028l0.01,-0.129l0.088,-0.056l0.19,0.042l0.116,0.12l0.065,0.167l0.222,0.065l0.121,-0.023l0.139,0.046l0.222,0.176l0.07,-0.005l0.139,-0.069l0.125,0.023l0.121,0.097l0.31,0.051l0.06,-0.042l0.005,-0.134l-0.032,-0.093l0.037,-0.018l0.134,0.204l0.153,0.05l0.181,0.139l0.31,-0.004l0.098,-0.093l-0.042,-0.079l0.033,-0.046l0.166,-0.004l0.079,-0.079l0.297,0.004l0.352,0.223l0.232,0.037l0.528,0.194l0.538,0.389l0.422,0.495l0.464,0.393l0.139,0.046l0.269,0.227l0.125,0.06l0.44,0.445l0.125,0.023l0.246,0.162l0.088,0.18l-0.028,0.231l-0.329,0.5l-0.083,0.06l-0.088,0.213l-0.172,0.139l-0.134,0.213l-0.024,0.375l-0.115,0.106l-0.246,-0.009l-0.339,-0.111l-0.231,-0.134l-0.093,0.014l-0.051,0.083l0.07,0.153l-0.01,0.138l-0.185,0.31l-0.042,0.167l-0.009,0.231l-0.056,0.023l-0.074,-0.032l-0.107,0.014l-0.074,0.051l-0.241,-0.009l-0.055,-0.056h-0.056l-0.014,0.074l-0.042,-0.009l-0.037,-0.157l-0.38,-0.727l-0.153,-0.106l-0.12,-0.162l-0.325,-0.148l-0.315,-0.084h-0.102l-0.144,0.079l-0.389,0.06l-0.325,-0.023l-0.51,-0.148l-0.134,-0.097l-0.033,-0.116l-0.106,-0.018l-0.218,0.074l-0.301,0.023l-0.121,-0.056l-0.051,0.014l-0.06,0.106l-0.264,0.028l-0.149,-0.028l-0.385,0.028l-0.343,0.13l-0.241,-0.005l-0.329,-0.277l-0.194,-0.01l-0.065,0.07l0.014,0.194l-0.084,0.042l-0.181,-0.028l-0.106,-0.167l-0.014,-0.115l-0.139,-0.065l-0.937,-0.07l-0.403,0.079l-0.158,0.13l-0.347,0.097l-0.19,-0.019l-0.047,0.033l-0.009,0.083l-0.283,0.403l-0.083,0.236l-0.111,0.083l-0.07,0.028l-0.185,0.25l-0.088,0.194l-0.075,0.018l-0.097,-0.032l-0.223,0.009l-0.101,0.06h-0.093l-0.195,-0.074l-0.102,-0.004l-0.199,0.074l-0.325,-0.009l-0.213,-0.061l-0.158,0.033l-0.333,0.208l-0.181,0.042l-0.093,-0.005l-0.097,-0.051l-0.223,-0.014l-0.028,-0.065l0.051,-0.083h0.047l0.004,0.056l0.167,0.009l0.033,-0.037l-0.121,-0.106l-0.306,-0.195l-0.046,-0.194l0.102,-0.232l0.009,-0.319l-0.097,-0.231l-0.158,-0.084l-0.445,-0.074l-0.106,0.051l-0.088,0.144l0.009,0.171l-0.149,0.18l-0.389,0.047l-0.079,-0.047h-0.06l-0.07,0.065h-0.064l-0.056,-0.032l-0.07,0.009l-0.139,0.157l-0.06,0.162l-0.269,0.25l-0.255,0.079l-0.12,-0.079l-0.065,-0.18l-0.311,-0.176l-0.162,-0.014l-0.162,0.083l-0.144,0.172l-0.032,0.194l0.129,0.171l0.019,0.181l0.19,0.287l-0.005,0.175l-0.231,0.421l-0.121,0.093l-0.236,0.375l-0.126,0.102l-0.19,0.356l-0.389,0.375l-0.213,0.264v0.087l-0.07,0.047l-0.106,0.023l-0.204,0.347l-0.181,0.602l-0.302,0.471l-0.06,0.005l-0.171,-0.254l-0.125,-0.079l-0.038,-0.074l-0.125,-0.366l-0.157,-0.18l-0.255,-0.125l-0.422,0.005l-0.144,0.055l-0.167,-0.005l-0.116,-0.06l0.01,-0.037l0.106,-0.046l0.088,-0.111l-0.009,-0.079l0.023,-0.032l0.116,-0.009l0.046,-0.102l-0.041,-0.167l-0.213,-0.305v-0.074l0.078,-0.079v-0.171l-0.12,-0.199l-0.181,-0.162l-0.102,-0.032l-0.083,-0.07l-0.061,-0.097l-0.088,-0.018l-0.057,-0.039z"/>
  <path  fill="#bbb" d="M635.566744,616.891248l0.012362,-0.049359l0.581007,-0.126482h0.281232l0.134435,-0.021595l0.115892,0.021595l0.454298,0.194351l0.377037,0.104888l0.222513,0.141907l0.111257,0.157332l-0.024724,0.040104l-0.105076,0.015425l-0.166885,-0.033934l-0.194699,-0.009255l-0.166885,-0.049359l-0.251873,-0.046274l-0.338406,-0.10643l-0.380127,-0.023137l-0.454298,-0.135737l-0.139071,-0.015425l-0.06799,-0.058614Z M633.618206,624.953726l0.143707,0.203606l0.166885,0.138822l0.129757,-0.009097l0.190106,0.083136l0.259599,0.032392l0.370856,0.194351l0.171521,0.198978l0.356949,0.120312l0.43112,0.009255l0.26887,0.111058l0.203971,0.004627l0.106621,0.060156l0.041721,0.134195l0.09735,0.013882l0.050993,-0.083293l-0.050993,-0.083293l0.050993,-0.078666l0.09735,-0.009255l0.018543,-0.041647l-0.0649,-0.10643l-0.037086,-0.235998l-0.287413,-0.310036l-0.278142,-0.12494l-0.254963,-0.027764l-0.370856,-0.175841l-0.115892,-0.12494l-0.491384,-0.212861l-0.245692,-0.013882l-0.259599,-0.097175l-0.069535,-0.083293l-0.264235,-0.078666l-0.319863,0.037019l-0.287413,0.23137l-0.009271,0.138822l0.250328,0.185096Z M630.122891,626.739903l0.148342,-0.12494l0.194699,0.004627l0.26887,0.120312l0.009271,0.101803l-0.185428,0.148077l-0.176156,0.013882l-0.254963,-0.101803l-0.004636,-0.161959Z M629.969913,626.809314l0.046357,-0.027764l0.041721,0.032392l-0.023178,0.046274h-0.060264l-0.004636,-0.050901Z M630.720896,630.261357l0.1298,0.004627l0.194699,0.12494l0.148342,0.009255l0.120528,-0.083293h0.111257l0.120528,0.087921l0.046357,0.101803l-0.0649,0.092548l-0.477477,0.004627l-0.199335,-0.083293l-0.157614,-0.198978l0.027814,-0.060156Z M632.562813,629.459274l0.040176,-0.046274l0.083443,0.00617l0.043267,-0.021595l0.040176,0.01234l0.030905,0.089463l-0.080352,0.021595l-0.13598,-0.027764l-0.021633,-0.033934Z  M643.537052,630.754946l0.009,-0.049l0.09,-0.065l0.056,-0.185l-0.084,-0.227l0.028,-0.167l-0.25,-0.231l-0.014,-0.13l0.181,-0.268v-0.111l0.389,-0.666l-0.631,-0.241l-0.074,-0.111l-0.162,-0.037l-0.102,-0.204l-0.399,-0.189l-0.051,-0.195l0.218,-0.027l-0.009,-0.112l-0.45,-0.495l-0.116,-0.185l-0.227,-0.088l-0.018,-0.064l0.153,-0.075l0.083,-0.12l0.283,0.134l0.125,-0.074l0.306,0.135l0.338,-0.038l0.061,-0.379l0.408,-0.227l0.106,-0.569l-0.032,-0.268l0.014,-0.227l-0.288,-0.236l-0.116,-0.301l-0.333,-0.074l-0.265,0.162l-0.074,-0.06l0.135,-0.218l0.25,-0.143l0.241,-0.005l0.547,-0.435l0.051,-0.212l0.121,-0.093l0.194,-0.032l0.088,-0.185l0.065,-0.472l-0.065,-0.107l-0.292,-0.051l-0.403,-0.264l-0.213,-0.351l0.004,-0.07l0.334,-0.189l0.181,0.023l0.065,-0.079l-0.037,-0.185l0.116,-0.305l-0.102,-0.255l0.009,-0.227l-0.185,-0.333l-0.158,-0.153l-0.014,-0.333l0.088,-0.101l-0.028,-0.121l-0.125,-0.12l-0.018,-0.125l-0.515,-0.077l-0.025,0.043l0.04,0.126l0.13,0.068l0.022,0.093l-0.062,0.055l-0.127,-0.074l-0.12,-0.012l-0.124,0.056l-0.111,-0.059l-0.022,-0.08l0.047,-0.028l0.139,0.015l0.139,-0.08l0.012,-0.092l-0.068,-0.05l-0.238,-0.024l-0.136,-0.059l-0.114,0.006v0.031l0.049,0.028l-0.021,0.04l-0.356,0.102l-0.034,0.071l-0.037,-0.007l-0.083,-0.08l-0.048,0.002l-0.029,0.027h-0.054l-0.042,-0.023l-0.047,0.005l-0.071,0.089l-0.079,0.02l-0.113,-0.025l-0.087,-0.076l-0.01,-0.089l-0.231,-0.28l-0.145,-0.037l-0.022,0.03l0.027,0.022l-0.03,0.034l-0.14,0.037l-0.084,-0.015l-0.062,-0.086l0.057,-0.174l-0.049,-0.037l-0.2,0.012l-0.076,-0.029l-0.032,0.009l-0.005,0.067l-0.027,0.022l-0.074,-0.007l-0.034,0.034l0.014,0.047l-0.051,0.007l-0.104,-0.044l-0.052,0.012l-0.044,0.035l-0.086,-0.028l-0.02,0.03l0.037,0.098l0.008,0.177l0.076,0.091l-0.022,0.025l-0.091,-0.01l-0.124,-0.079l-0.066,-0.15l0.015,-0.051l0.047,-0.022l0.004,-0.057l-0.041,-0.111l-0.228,-0.159l-0.038,-0.108l-0.043,-0.012l-0.105,0.062l-0.071,-0.01l-0.108,-0.12l-0.056,-0.003l-0.077,0.037l-0.056,-0.012l-0.027,-0.05h-0.034l-0.041,0.028l-0.142,-0.022l-0.049,-0.083l-0.068,-0.04l-0.09,-0.012l-0.191,-0.213l-0.099,-0.034l-0.041,-0.059l-0.105,-0.031l-0.219,-0.018l-0.114,-0.102l-0.18,-0.055l-0.16,-0.016l-0.198,-0.105l-0.352,-0.08l-0.316,-0.012l-0.086,0.065l-0.217,0.033l-0.105,0.016l-0.173,0.006l-0.265,0.077l-0.016,0.05l-0.04,0.003l-0.05,-0.037l-0.058,-0.01l-0.108,0.025l-0.198,-0.009l-0.031,0.031l0.031,0.055l-0.043,0.016l-0.124,-0.081l-0.25,-0.015l-0.192,-0.046l-0.337,-0.003l-0.139,0.064l-0.068,0.071l-0.426,0.275l-0.272,0.065l-0.214,0.123l-0.111,-0.003l-0.108,-0.034l-0.226,0.019l-0.083,0.083l0.025,0.058l0.108,-0.003l0.154,0.034l-0.009,0.08l-0.099,0.044l-0.182,0.006l-0.099,0.077l-0.152,0.259v0.38l0.149,0.228l0.309,0.191l0.259,0.059l0.276,-0.016l0.139,-0.043l0.145,-0.003l0.077,0.034l0.13,-0.009l0.059,-0.065l0.021,-0.096l0.068,-0.037l0.078,0.043l0.074,0.081l0.306,0.12l0.092,-0.009l0.062,-0.077l0.142,-0.022l0.241,0.059l0.288,0.182l0.114,0.027l0.247,0.176l0.343,0.114l0.152,0.115l0.13,0.024l0.148,0.145l0.09,0.059l0.102,0.034l0.21,0.256l0.04,0.074l0.133,0.068l0.142,-0.016l0.077,-0.055l0.124,0.015l0.043,0.074l-0.028,0.087l0.025,0.049l0.08,0.046l0.019,0.065l-0.074,0.062l-0.065,0.018l-0.043,-0.043l0.021,-0.034l-0.021,-0.034l-0.047,-0.015v-0.084l-0.046,-0.006l-0.031,0.065l-0.006,0.102l0.028,0.046l0.065,0.028l0.003,0.071l-0.102,0.111l-0.059,-0.009l-0.062,-0.062l-0.086,0.003l-0.062,0.096l-0.013,0.061l0.065,0.065l0.025,0.09l0.083,0.037l0.09,-0.019l0.043,0.049l-0.04,0.09l0.016,0.037l0.08,0.025l0.003,0.049l-0.056,0.034l-0.061,-0.04l-0.044,0.012l-0.027,0.056l-0.053,0.006l-0.077,-0.022l-0.034,0.025l-0.003,0.173l-0.075,0.114l0.016,0.049l-0.027,0.053l-0.089,0.013l-0.004,0.039l0.162,0.175l0.076,0.181l0.163,0.131l0.217,0.078l0.019,0.082l-0.039,0.125l-0.148,0.076l-0.182,0.007l-0.096,-0.017l-0.236,0.072l-0.097,0.135l-0.002,0.108l0.086,0.108l0.106,0.02l0.237,0.115l0.108,0.128l0.091,0.182l0.012,0.079l0.116,0.081l0.106,0.012l0.266,0.15l0.197,0.226l0.025,0.091l0.296,0.282l0.069,0.227l0.167,0.157l0.227,0.069l0.135,-0.004l0.139,0.083l0.018,0.157l0.07,0.079l0.19,0.051l0.167,-0.019l0.459,0.232l0.023,0.092l-0.185,0.232l-0.019,0.12l0.093,0.171l-0.028,0.097l-0.06,0.056l-0.037,0.171l-0.158,0.009l-0.121,-0.097l-0.129,-0.014l-0.088,0.056l-0.547,-0.028l-0.079,0.042l-0.102,-0.023l-0.149,-0.107l-0.268,0.033l-0.241,0.157l-0.237,0.551l-0.278,0.157l-0.19,0.018l-0.45,-0.078h-0.259l-0.079,0.097l-0.153,0.018l-0.065,-0.078l-0.005,-0.079l-0.537,-0.143l-0.478,0.064l-0.097,0.116l-0.176,-0.032l-0.186,-0.176l-0.32,-0.116h-0.171l-0.264,0.07l-0.348,-0.033l-0.283,-0.148l-0.756,-0.148l-0.574,0.019l-0.269,0.152l-0.524,0.014l-0.083,-0.046l0.037,-0.171l-0.033,-0.056l-0.283,0.009l-0.004,-0.041l0.148,-0.037l0.074,-0.07l0.07,-0.009l0.097,0.037l0.135,-0.009l0.194,0.051l0.163,-0.023l0.101,-0.158l-0.06,-0.06l-0.361,0.005l-0.149,0.078h-0.148l-0.158,-0.023l-0.162,0.065l-0.069,0.12l-0.33,0.084l-0.069,-0.019l-0.107,-0.102l-0.264,-0.101l-0.269,0.013l-0.111,-0.009l-0.056,-0.046l0.014,-0.074l-0.093,-0.037l-0.08,0.028l-0.1,-0.061l-0.195,-0.023l-0.292,-0.023l-0.459,-0.176l-0.19,-0.166l-0.334,-0.125l-0.292,-0.009l-0.269,0.064l-0.088,0.088h-0.055l-0.061,-0.051l-0.088,0.005l-0.19,0.042l-0.246,0.115l-0.092,-0.032l-0.033,0.023l0.005,0.046l-0.051,0.033h-0.07l-0.116,0.102l0.005,0.069l0.06,0.074l-0.018,0.143l-0.102,0.102l-0.051,0.124l-0.014,0.149l-0.102,0.088l-0.009,0.07l0.041,0.051l-0.009,0.069l-0.079,0.097l-0.065,0.213l0.028,0.093l0.042,0.041h0.079l0.037,0.093l-0.014,0.129l0.019,0.171l0.115,0.088l0.181,0.024l0.042,0.069l-0.019,0.065l0.047,0.037l0.074,0.009l0.125,0.102l0.32,0.069l0.153,-0.032l0.213,-0.134h0.195l0.148,0.074l0.158,0.046l0.088,0.088l0.125,0.074l0.218,0.055l0.175,0.076l0.29,0.268l0.263,0.175l0.023,0.078l0.069,0.047l0.078,0.037l0.108,0.142l0.106,0.047l0.038,0.074v0.093l0.176,0.222l0.074,0.25l0.088,0.074l0.144,0.023l0.296,-0.023l0.107,0.028l0.148,-0.056l0.042,-0.102l-0.014,-0.083l-0.12,-0.06l-0.084,-0.125l-0.144,-0.102l-0.027,-0.171l0.129,-0.176l0.325,-0.199l0.134,-0.028l0.32,-0.203l0.056,-0.148l0.069,-0.033l0.047,0.024v0.081l0.025,0.006l0.034,-0.058l0.089,-0.053l0.028,-0.078l0.031,0.001l-0.006,0.102l-0.112,0.114l0.022,0.056l0.111,-0.025l0.065,-0.074l0.022,-0.086l-0.016,-0.074l0.044,-0.028l0.123,-0.003l0.028,0.046l-0.083,0.108l-0.007,0.089l0.041,0.031l0.111,-0.009l0.046,-0.046l0.044,-0.006l0.052,0.04l0.056,-0.013l0.034,-0.064l-0.041,-0.093l-0.077,-0.043l0.022,-0.046l0.21,-0.065l0.049,0.031l-0.015,0.058l0.046,0.108l0.096,0.019l0.105,-0.031l0.013,-0.046l-0.037,-0.037l0.018,-0.044l0.232,-0.015l0.127,-0.046l0.083,0.003l0.043,0.068l0.108,0.006l0.084,-0.148l0.114,-0.003l0.17,0.117l0.009,0.065l-0.105,0.151l0.019,0.049l0.077,0.003l0.238,-0.043l0.102,-0.055l0.152,0.006l0.077,0.092l0.225,0.043l0.442,0.019l0.229,0.108l0.411,0.062l0.43,0.006l0.108,0.062l0.327,0.049l0.433,0.145l0.263,-0.006l0.154,0.037l0.124,-0.025l0.062,-0.077l0.071,-0.022l0.108,0.028l0.022,-0.021l-0.044,-0.09l0.065,-0.037l0.272,-0.006l0.43,-0.08l0.108,0.006l0.411,0.123l0.124,-0.04l0.031,-0.077l-0.084,-0.111l-0.009,-0.136l0.055,-0.065h0.041l0.123,0.121l0.111,0.006l0.081,-0.046l0.238,-0.003l0.111,-0.041l0.287,-0.006l0.177,-0.034l0.336,0.028l0.081,0.037l0.077,0.003l0.118,-0.028l0.188,0.007l0.121,0.034h0.265l0.152,-0.05l0.355,-0.015l0.093,-0.034l0.294,0.012l0.111,0.065l0.024,0.065l0.143,0.052l0.058,-0.015l0.053,0.015l0.071,0.056l0.337,0.074l0.105,0.061l0.306,0.238l0.08,0.077l0.09,0.127l0.148,0.104l0.053,0.099l0.006,0.065l0.291,0.226l0.055,0.064z"/>
</svg>
