<svg xmlns="http://www.w3.org/2000/svg" viewBox="641.921 617.798 24.300 16.791">
  <path d="M663.180044,629.826381l0.018543,-0.120312l0.074171,-0.046274l0.26887,0.074038l0.111257,0.078666l0.092714,0.004627l0.074171,-0.023137l0.0649,0.013882l0.083443,0.087921l0.162249,0.037019l0.166885,-0.032392l0.106621,0.009255l0.115892,0.101803l0.069535,0.152704l-0.060264,0.069411l-0.0649,-0.004627l-0.264235,-0.101803h-0.134435l-0.254963,0.083293l-0.120528,-0.01851l-0.217878,-0.092548l-0.046357,-0.064784l-0.106621,-0.046274l-0.060264,-0.092548l-0.078807,-0.069411Z M661.68735,628.660275l0.09735,-0.009255l0.013907,-0.097175l-0.088078,-0.101803l-0.09735,0.032392l-0.023178,0.115685l0.09735,0.060156Z M644.315849,634.546332l0.030905,0.043189l0.0649,-0.01851l0.006181,-0.027764h-0.052538l-0.030905,-0.01851l-0.018543,0.021595Z M644.92158,633.960194l-0.00309,0.138822l0.074171,0.015425l0.259599,-0.055529l0.194699,-0.209776l-0.012362,-0.046274l-0.071081,0.01234l-0.0649,-0.077123l-0.021633,-0.089463l-0.1298,-0.040104l-0.06799,0.033934l-0.083443,0.132652l-0.074171,0.185096Z  M643.537052,630.754946l0.009,-0.049l0.09,-0.065l0.056,-0.185l-0.084,-0.227l0.028,-0.167l-0.25,-0.231l-0.014,-0.13l0.181,-0.268v-0.111l0.389,-0.666l-0.631,-0.241l-0.074,-0.111l-0.162,-0.037l-0.102,-0.204l-0.399,-0.189l-0.051,-0.195l0.218,-0.027l-0.009,-0.112l-0.45,-0.495l-0.116,-0.185l-0.227,-0.088l-0.018,-0.064l0.153,-0.075l0.083,-0.12l0.283,0.134l0.125,-0.074l0.306,0.135l0.338,-0.038l0.061,-0.379l0.408,-0.227l0.106,-0.569l-0.032,-0.268l0.014,-0.227l-0.288,-0.236l-0.116,-0.301l-0.333,-0.074l-0.265,0.162l-0.074,-0.06l0.135,-0.218l0.25,-0.143l0.241,-0.005l0.547,-0.435l0.051,-0.212l0.121,-0.093l0.194,-0.032l0.088,-0.185l0.065,-0.472l-0.065,-0.107l-0.292,-0.051l-0.403,-0.264l-0.213,-0.351l0.004,-0.07l0.334,-0.189l0.181,0.023l0.065,-0.079l-0.037,-0.185l0.116,-0.305l-0.102,-0.255l0.009,-0.227l-0.185,-0.333l-0.158,-0.153l-0.014,-0.333l0.088,-0.101l-0.028,-0.121l-0.125,-0.12l-0.018,-0.125l0.172,-0.028l0.049,-0.106l-0.157,-0.234l-0.008,-0.172l-0.041,-0.012l-0.126,0.123l-0.044,-0.02l0.066,-0.137l0.172,-0.172l0.074,-0.037l0.313,-0.086l0.16,-0.145l0.032,-0.285l0.079,-0.032l0.081,0.081l0.089,-0.008l0.14,-0.118l0.288,-0.047l0.464,0.044l0.68,0.327l0.593,0.074l0.235,0.08l0.253,-0.025l0.05,-0.185h0.08l0.155,0.08l0.303,-0.024l0.333,-0.173l0.037,-0.173l0.248,-0.136l0.309,-0.006l0.309,0.136l0.618,0.043l0.154,0.08l0.303,0.352l0.291,0.08l0.451,0.253l0.136,0.142l0.42,0.099l0.384,-0.031l0.086,-0.117l0.21,-0.05l0.291,0.05l0.346,0.277l0.253,0.371l0.396,0.259l0.513,0.055l0.321,0.111l0.439,-0.061l0.297,-0.327l0.593,-0.013l0.402,0.253l0.093,0.253l-0.118,0.333l0.037,0.204l0.161,0.111l0.019,0.105l-0.05,0.284l0.21,0.53l0.414,0.494l0.322,0.191l0.34,-0.018l0.265,-0.111l0.347,-0.044l0.315,-0.16l0.853,0.049l0.476,0.204l0.092,-0.006l0.167,-0.228l0.303,-0.124l0.142,-0.136l0.081,0.019l-0.025,0.179l-0.185,0.24l0.043,0.062l0.303,-0.012l0.247,-0.093l0.086,0.099l-0.111,0.204l-0.241,0.142l-0.074,0.123l-0.025,0.173l-0.173,0.105l-0.377,-0.074l-0.241,-0.075l-0.408,0.037l-0.099,0.062l-0.123,-0.018l-0.18,-0.081l-0.679,-0.08l-0.316,-0.111l-0.08,0.043l-0.019,0.272l-0.086,0.389l0.093,0.283l0.185,0.037l0.173,-0.06l0.116,0.005l0.079,0.069l0.088,0.005l0.111,-0.06l0.13,0.014l0.236,0.092l0.088,-0.028l0.01,-0.129l0.088,-0.056l0.19,0.042l0.116,0.12l0.065,0.167l0.222,0.065l0.121,-0.023l0.139,0.046l0.222,0.176l0.07,-0.005l0.139,-0.069l0.125,0.023l0.121,0.097l0.31,0.051l0.06,-0.042l0.005,-0.134l-0.032,-0.093l0.037,-0.018l0.134,0.204l0.153,0.05l0.181,0.139l0.31,-0.004l0.098,-0.093l-0.042,-0.079l0.033,-0.046l0.166,-0.004l0.079,-0.079l0.297,0.004l0.352,0.223l0.232,0.037l0.528,0.194l0.538,0.389l0.422,0.495l0.464,0.393l0.139,0.046l0.269,0.227l0.125,0.06l0.44,0.445l0.125,0.023l0.246,0.162l0.088,0.18l-0.028,0.231l-0.329,0.5l-0.083,0.06l-0.088,0.213l-0.172,0.139l-0.134,0.213l-0.024,0.375l-0.115,0.106l-0.246,-0.009l-0.339,-0.111l-0.231,-0.134l-0.093,0.014l-0.051,0.083l0.07,0.153l-0.01,0.138l-0.185,0.31l-0.042,0.167l-0.009,0.231l-0.056,0.023l-0.074,-0.032l-0.107,0.014l-0.074,0.051l-0.241,-0.009l-0.055,-0.056h-0.056l-0.014,0.074l-0.042,-0.009l-0.037,-0.157l-0.38,-0.727l-0.153,-0.106l-0.12,-0.162l-0.325,-0.148l-0.315,-0.084h-0.102l-0.144,0.079l-0.389,0.06l-0.325,-0.023l-0.51,-0.148l-0.134,-0.097l-0.033,-0.116l-0.106,-0.018l-0.218,0.074l-0.301,0.023l-0.121,-0.056l-0.051,0.014l-0.06,0.106l-0.264,0.028l-0.149,-0.028l-0.385,0.028l-0.343,0.13l-0.241,-0.005l-0.329,-0.277l-0.194,-0.01l-0.065,0.07l0.014,0.194l-0.084,0.042l-0.181,-0.028l-0.106,-0.167l-0.014,-0.115l-0.139,-0.065l-0.937,-0.07l-0.403,0.079l-0.158,0.13l-0.347,0.097l-0.19,-0.019l-0.047,0.033l-0.009,0.083l-0.283,0.403l-0.083,0.236l-0.111,0.083l-0.07,0.028l-0.185,0.25l-0.088,0.194l-0.075,0.018l-0.097,-0.032l-0.223,0.009l-0.101,0.06h-0.093l-0.195,-0.074l-0.102,-0.004l-0.199,0.074l-0.325,-0.009l-0.213,-0.061l-0.158,0.033l-0.333,0.208l-0.181,0.042l-0.093,-0.005l-0.097,-0.051l-0.223,-0.014l-0.028,-0.065l0.051,-0.083h0.047l0.004,0.056l0.167,0.009l0.033,-0.037l-0.121,-0.106l-0.306,-0.195l-0.046,-0.194l0.102,-0.232l0.009,-0.319l-0.097,-0.231l-0.158,-0.084l-0.445,-0.074l-0.106,0.051l-0.088,0.144l0.009,0.171l-0.149,0.18l-0.389,0.047l-0.079,-0.047h-0.06l-0.07,0.065h-0.064l-0.056,-0.032l-0.07,0.009l-0.139,0.157l-0.06,0.162l-0.269,0.25l-0.255,0.079l-0.12,-0.079l-0.065,-0.18l-0.311,-0.176l-0.162,-0.014l-0.162,0.083l-0.144,0.172l-0.032,0.194l0.129,0.171l0.019,0.181l0.19,0.287l-0.005,0.175l-0.231,0.421l-0.121,0.093l-0.236,0.375l-0.126,0.102l-0.19,0.356l-0.389,0.375l-0.213,0.264v0.087l-0.07,0.047l-0.106,0.023l-0.204,0.347l-0.181,0.602l-0.302,0.471l-0.06,0.005l-0.171,-0.254l-0.125,-0.079l-0.038,-0.074l-0.125,-0.366l-0.157,-0.18l-0.255,-0.125l-0.422,0.005l-0.144,0.055l-0.167,-0.005l-0.116,-0.06l0.01,-0.037l0.106,-0.046l0.088,-0.111l-0.009,-0.079l0.023,-0.032l0.116,-0.009l0.046,-0.102l-0.041,-0.167l-0.213,-0.305v-0.074l0.078,-0.079v-0.171l-0.12,-0.199l-0.181,-0.162l-0.102,-0.032l-0.083,-0.07l-0.061,-0.097l-0.088,-0.018l-0.057,-0.039z"/>
</svg>
