<svg xmlns="http://www.w3.org/2000/svg" viewBox="1261.014 301.502 42.363 20.931">
  <path d="M1298.365262,314.343123h0.022184l0.012324,-0.019719l-0.007395,-0.032044l-0.019719,-0.002465l-0.019719,0.027114l0.012324,0.027114Z M1298.555059,314.128677l0.041903,0.064087l0.101061,0.093666l0.086271,0.017254l0.059157,-0.044368h0.081341l0.054228,-0.049298l-0.002465,-0.056693l-0.147894,-0.12078l-0.192262,-0.002465l-0.12078,0.044368l-0.002465,0.036973l0.041903,0.017254Z M1270.514717,319.743995l0.060317,0.041758l0.111355,-0.00464l0.102076,0.032479l0.092796,-0.060317l0.00464,-0.148474l-0.218071,-0.139194l-0.111355,0.018559l-0.041758,0.120635v0.139194Z M1275.367948,316.621409l0.097436,0.171673l0.106715,0.018559l0.139194,-0.129914l0.102076,-0.306227l-0.069597,-0.092796l-0.190232,-0.00928l-0.139194,0.106715l-0.046398,0.24127Z M1276.356226,315.781606l0.032479,0.027839l0.111355,-0.046398l0.111355,-0.171673l-0.041758,-0.013919l-0.176312,0.125275l-0.037118,0.078877Z M1287.502475,301.550324l0.088736,0.046833l0.076412,-0.002465l0.00493,-0.022184l-0.019719,-0.022184l-0.054228,-0.002465l-0.073947,-0.046833l-0.022184,0.012324v0.036973Z M1284.736864,303.221522l0.036973,-0.007395l0.007395,-0.049298l-0.00986,-0.049298l-0.039438,-0.007395l-0.036973,0.027114l-0.002465,0.049298l0.044368,0.036973Z M1284.040218,302.867012l0.018559,0.034025l0.021652,0.012373l0.021652,-0.012373l-0.006186,-0.037118l-0.034025,-0.018559l-0.021652,0.021652Z M1283.690686,302.635022l0.105169,0.018559l0.055678,-0.003093l0.003093,-0.030932l-0.064957,-0.043305l-0.080423,0.003093l-0.024746,0.027839l0.006186,0.027839Z M1282.830777,302.338075l0.083516,0.046398l0.021652,-0.00928l-0.064957,-0.080423l-0.049491,-0.030932l-0.021652,0.018559l0.030932,0.055678Z M1282.159552,301.957611l0.08661,0.089703l-0.012373,0.037118l-0.046398,0.00928l-0.040212,0.07733l0.024746,0.049491l0.034025,0.003093l0.030932,-0.037118l0.095889,-0.012373l0.182499,0.064957l0.024746,-0.027839l-0.024746,-0.089703l-0.148474,-0.129914l-0.201058,-0.098982l-0.108262,0.00928v0.034025l0.102076,0.021652Z M1280.594393,302.588624l0.120635,0.00928l0.095889,-0.080423l0.027839,-0.049491l-0.027839,-0.012373l-0.043305,0.015466l-0.083516,-0.018559l-0.108262,0.049491l-0.015466,0.046398l0.034025,0.040212Z M1278.849828,302.621103l0.046398,0.148474l0.190232,0.148474l0.22735,0.023199l0.032479,-0.041758l-0.051038,-0.199511l-0.167033,-0.273748l-0.041758,-0.125275h-0.046398l-0.106715,0.129914l-0.083516,0.190232Z M1275.356059,304.843567l0.083516,0.092796l0.018559,0.097436l0.125275,0.055678l0.143834,-0.00928l0.023199,-0.037118l-0.051038,-0.185592l-0.115995,-0.162393l-0.148474,-0.051038l-0.102076,0.013919l-0.069597,0.092796l0.00464,0.055678l0.088156,0.037118Z M1274.85032,304.857486l0.134554,0.143834l0.027839,0.078877l0.162393,0.134554l0.111355,0.013919l0.069597,-0.074237l-0.00928,-0.115995l-0.078877,-0.102076l-0.064957,-0.013919l-0.037118,-0.037118l0.018559,-0.041758l-0.046398,-0.064957l-0.088156,-0.032479l-0.115995,0.027839l-0.134554,-0.00464l-0.023199,0.046398l0.074237,0.041758Z M1271.481826,305.298267l0.24127,0.139194l0.143834,0.018559l0.027839,-0.032479l-0.027839,-0.055678l-0.199511,-0.139194l-0.180952,-0.023199l-0.037118,0.037118l0.032479,0.055678Z M1272.932488,308.489l0.019719,0.00986l0.019719,-0.012324v-0.024649l-0.014789,-0.017254l-0.019719,0.007395l-0.00493,0.036973Z M1271.594051,308.631964l0.014789,0.076412l0.027114,0.007395l0.019719,-0.014789l-0.002465,-0.10599l-0.019719,-0.032044l-0.027114,0.00493l-0.012324,0.064087Z M1272.19795,309.911244l0.024649,-0.044368l-0.014789,-0.036973l-0.192262,-0.081341l-0.039438,0.017254l-0.00986,0.054228l0.076412,0.093666l0.101061,0.029579l0.054228,-0.032044Z M1271.59898,309.6475l0.029579,0.002465l0.007395,-0.022184l-0.007395,-0.041903l-0.022184,-0.00493l-0.027114,0.029579l0.019719,0.036973Z M1271.695111,309.728841l0.054228,0.027114l0.024649,-0.00493l0.002465,-0.056693l-0.019719,-0.017254l-0.073947,-0.00986l-0.017254,0.017254l0.029579,0.044368Z M1271.352491,310.46831l0.036973,-0.007395l0.00493,-0.022184l-0.036973,-0.034509l-0.027114,0.002465l-0.00986,0.041903l0.032044,0.019719Z M1273.484624,310.401757h0.054228l0.012324,-0.017254l-0.029579,-0.064087l-0.036973,-0.00493l-0.036973,0.019719l-0.00986,0.032044l0.046833,0.034509Z M1271.83561,311.666248l0.00493,0.039438l0.078877,0.039438l0.064087,-0.00493l0.014789,-0.066552l-0.071482,-0.046833l-0.056693,0.00493l-0.034509,0.034509Z M1271.958855,312.593048l0.034509,-0.056693l-0.014789,-0.027114h-0.046833l-0.051763,0.056693l0.012324,0.032044l0.066552,-0.00493Z M1273.272643,313.337446l-0.007395,0.019719l0.039438,0.014789l0.046833,-0.00493l0.007395,-0.017254l-0.034509,-0.019719l-0.051763,0.007395Z M1269.124807,310.095821h0.046398l0.00464,-0.046398l-0.139194,-0.129914l-0.046398,-0.00464l-0.018559,0.032479l0.153113,0.148474Z M1269.393915,310.360289l0.046398,-0.023199v-0.055678l-0.041758,-0.037118l-0.051038,0.013919l-0.00928,0.069597l0.055678,0.032479Z M1269.881094,309.798873l0.078877,0.00928l0.032479,-0.032479l0.00464,-0.041758l-0.083516,-0.041758l-0.046398,0.013919l-0.013919,0.037118l0.027839,0.055678Z M1269.305759,309.075065l0.046398,-0.032479l0.023199,-0.083516l-0.083516,-0.102076l-0.143834,-0.051038l-0.041758,0.018559l0.00464,0.092796l0.106715,0.134554l0.088156,0.023199Z M1269.324318,311.752229l0.041758,-0.032479l-0.041758,-0.092796l-0.083516,-0.055678l-0.064957,0.00928l-0.018559,0.055678l0.041758,0.088156l0.125275,0.027839Z M1269.52847,309.88239l-0.027839,0.064957l0.020106,0.034025l0.054131,-0.010826l0.032479,-0.078877l-0.049491,-0.108262l-0.038665,0.001547l-0.010826,0.035572l0.020106,0.061864Z M1269.60116,310.436073l0.030932,-0.006186l0.012373,-0.021652l-0.012373,-0.021652l-0.034025,0.003093l-0.015466,0.024746l0.018559,0.021652Z M1270.188868,310.544335h0.037118l0.00928,-0.024746l-0.012373,-0.021652l-0.034025,-0.003093l-0.021652,0.024746l0.021652,0.024746Z M1270.734818,312.735867l0.041758,0.027839l0.074237,-0.023199l0.041758,-0.069597l-0.032479,-0.055678l-0.064957,-0.00464l-0.060317,0.041758v0.083516Z M1269.598067,312.012058l0.106715,0.143834l0.23663,0.078877l0.111355,-0.00464l0.125275,0.037118l0.078877,0.088156l0.00464,0.083516l0.074237,0.083516l0.083516,0.013919l0.083516,0.069597l0.027839,0.111355l0.092796,0.032479l0.069597,-0.018559l0.00928,-0.097436l0.078877,-0.129914l0.153113,0.018559l0.046398,0.074237h0.037118l0.023199,-0.041758h0.041758l0.037118,0.064957l0.037118,-0.00464l0.055678,-0.153113l0.041758,-0.00464l0.041758,0.134554l0.060317,0.051038l0.078877,0.013919l0.027839,0.074237l-0.041758,0.060317l-0.00464,0.078877l0.078877,0.023199l0.111355,-0.027839l0.018559,-0.041758l-0.060317,-0.092796l0.00928,-0.055678l0.111355,-0.051038l0.088156,-0.092796v-0.074237l-0.078877,-0.037118l-0.018559,-0.055678l0.023199,-0.055678l-0.041758,-0.092796l-0.199511,-0.185592l-0.074237,-0.162393l0.013919,-0.078877l0.078877,-0.064957v-0.088156l-0.125275,-0.106715l-0.22735,-0.046398l-0.589255,-0.245909l-0.269108,-0.032479l-0.218071,0.074237l-0.060317,0.134554l0.064957,0.273748l-0.013919,0.064957l-0.097436,0.032479l-0.134554,-0.037118l-0.199511,0.041758l-0.041758,0.074237l0.023199,0.060317l0.00928,0.088156Z M1269.118621,308.298671l0.021652,-0.024746v-0.034025l-0.021652,-0.00928l-0.024746,0.021652l0.003093,0.043305l0.021652,0.003093Z M1270.92505,308.697694l0.040212,0.024746l0.024746,-0.012373l-0.018559,-0.037118l-0.043305,-0.030932l-0.024746,0.015466l0.021652,0.040212Z M1271.051871,307.741895l0.040212,-0.00928l0.015466,-0.024746l-0.015466,-0.021652h-0.046398l-0.018559,0.034025l0.024746,0.021652Z M1269.888827,308.035749l0.114448,0.052584l0.037118,0.046398v0.049491l0.055678,0.064957l0.074237,0.040212v0.037118l-0.055678,0.030932l-0.003093,0.058771l0.061864,0.083516h0.049491l0.027839,-0.043305l0.037118,-0.003093l0.043305,0.034025l0.021652,-0.015466l-0.015466,-0.037118l0.012373,-0.034025l0.037118,-0.003093l0.030932,0.034025l0.092796,0.027839l0.021652,-0.015466l-0.040212,-0.151567l0.027839,-0.024746l0.092796,0.015466l0.15466,0.064957l0.16394,0.160846l0.08661,0.040212l0.058771,-0.00928l-0.006186,-0.024746l-0.064957,-0.012373l-0.030932,-0.046398l0.034025,-0.061864l0.108262,-0.030932l0.089703,0.018559l0.040212,-0.018559l0.015466,-0.043305l0.08661,-0.024746l0.07733,0.00928l0.111355,0.049491l0.040212,-0.006186l0.06805,-0.151567l-0.015466,-0.071144l-0.092796,-0.049491l-0.043305,-0.049491l-0.003093,-0.046398l-0.024746,-0.037118l-0.049491,-0.00928l-0.030932,-0.037118l-0.00928,-0.049491l-0.108262,-0.06805l-0.055678,0.003093l-0.027839,0.043305l-0.046398,-0.003093l-0.024746,-0.027839h-0.040212l-0.06805,0.061864l-0.061864,0.006186l-0.052584,0.040212l-0.058771,-0.003093l-0.117542,-0.139194l-0.136101,-0.034025l-0.06805,0.00928l-0.129914,-0.027839l-0.133008,-0.071144l-0.074237,0.015466l-0.071144,0.07733l-0.114448,0.027839l-0.102076,0.092796l-0.021652,0.071144l0.024746,0.114448Z M1263.071415,308.920405l0.266015,0.098982l0.043305,0.08661l0.179406,0.105169l0.290761,0.080423l0.389743,-0.030932l0.105169,-0.055678l0.105169,-0.006186l0.080423,0.037118l0.105169,-0.012373l0.030932,-0.055678l0.197965,-0.037118l0.160846,0.024746l0.216524,0.185592l0.043305,0.142287l0.197965,0.216524l0.018559,0.216524l-0.08661,0.049491v0.049491l0.061864,0.024746l0.012373,0.061864l-0.037118,0.049491l0.018559,0.074237l0.142287,0.055678l0.037118,0.148474l-0.074237,0.080423l0.012373,0.055678l0.117542,0.024746l0.074237,0.136101l-0.012373,0.074237l-0.142287,0.049491l-0.012373,0.06805l0.105169,0.111355l0.253642,0.049491l0.136101,0.074237l0.24127,-0.006186l0.160846,-0.043305l0.253642,-0.006186l0.123728,-0.074237l0.037118,-0.136101l0.111355,-0.173219l0.129914,-0.117542l0.074237,-0.22271l-0.012373,-0.06805l0.006186,-0.049491l0.08661,-0.111355l0.030932,-0.111355l0.043305,-0.006186l0.049491,0.098982l0.173219,0.08661l0.074237,0.092796l0.136101,0.08661h0.055678l0.074237,-0.142287l0.210338,-0.061864l0.123728,0.055678l0.043305,-0.024746l-0.105169,-0.204151l0.018559,-0.080423l0.167033,-0.098982l0.08661,0.018559l0.061864,-0.030932l0.012373,-0.055678l0.055678,-0.024746l0.160846,0.049491l0.018559,-0.043305l-0.061864,-0.080423l0.024746,-0.049491l0.123728,-0.006186l0.105169,0.055678l0.105169,0.018559l0.06805,-0.030932l0.06805,0.030932l0.024746,0.111355l0.061864,0.018559l0.173219,-0.092796v-0.080423l-0.210338,-0.296947l-0.043305,-0.167033l-0.173219,-0.210338l-0.160846,-0.037118l-0.216524,-0.284574l0.006186,-0.049491l0.080423,-0.030932v-0.055678l-0.06805,-0.030932l-0.049491,-0.06805l0.030932,-0.092796l-0.049491,-0.030932l-0.111355,0.055678l-0.179406,-0.012373l-0.105169,-0.049491l-0.055678,-0.123728l-0.15466,-0.049491l-0.142287,0.024746l-0.451607,-0.098982l-0.142287,0.024746l-0.129914,-0.049491l-0.123728,-0.15466l-0.043305,-0.278388l0.043305,-0.098982l-0.018559,-0.092796l-0.24127,-0.098982l-0.352625,-0.030932l-0.092796,0.061864l-0.030932,0.408302l-0.092796,0.06805l-0.160846,-0.006186l-0.055678,0.037118l-0.006186,0.055678l-0.049491,0.012373l-0.235083,-0.049491l-0.06805,0.043305l0.06805,0.210338l-0.061864,0.08661l-0.22271,0.024746l-0.018559,0.08661l0.092796,0.136101l-0.018559,0.049491l-0.098982,0.018559l-0.098982,-0.061864l-0.06805,0.018559l0.006186,0.15466l-0.117542,0.111355l-0.185592,0.018559l-0.296947,-0.105169l-0.284574,-0.006186l-0.24127,0.098982l-0.470166,0.006186l-0.519658,-0.08661l-0.247456,0.043305l-0.061864,0.08661l0.024746,0.123728l0.24127,0.018559Z M1261.014726,314.572358l0.081341,0.039438h0.096131l0.00986,-0.019719l-0.024649,-0.036973l-0.12571,-0.032044l-0.034509,0.022184l-0.002465,0.027114Z M1261.32685,314.185031l0.216524,0.018559l0.235083,-0.043305l0.117542,-0.074237l-0.006186,-0.055678l-0.290761,-0.012373l-0.284574,0.049491l-0.030932,0.049491l0.043305,0.06805Z M1266.331647,315.858452l0.083516,0.00928l0.027839,-0.032479l-0.055678,-0.083516l-0.097436,-0.023199l-0.032479,0.041758l0.074237,0.088156Z M1265.57072,316.475546l0.060317,-0.060317l0.00928,-0.069597l-0.032479,-0.00464l-0.037118,0.037118l-0.032479,0.088156l0.032479,0.00928Z M1265.793431,316.498745l0.088156,-0.00928l0.115995,-0.111355v-0.092796l-0.106715,-0.115995l-0.088156,0.018559l-0.111355,0.15002v0.08197l0.102076,0.078877 Z M1266.062539,316.430694l0.037118,-0.024746l0.015466,-0.034025l-0.021652,-0.015466l-0.034025,0.015466l-0.018559,0.043305l0.021652,0.015466Z M1266.176987,311.630048l-0.105169,0.006186l-0.111355,0.105169l-0.024746,0.210338l-0.228897,0.216524l-0.266015,0.043305l-0.08661,-0.012373l-0.136101,0.006186l-0.08661,0.061864h-0.111355l-0.098982,-0.043305l-0.129914,0.018559l-0.049491,0.049491l-0.210338,0.037118l-0.080423,-0.043305l-0.08661,0.018559l-0.037118,0.173219l0.037118,0.179406h0.049491l0.018559,-0.074237h0.061864l0.08661,0.173219l-0.092796,0.284574l-0.142287,0.061864l-0.22271,-0.030932l-0.043305,-0.098982l0.024746,-0.092796l-0.061864,-0.284574l-0.117542,-0.06805h-0.055678l-0.043305,0.098982l0.024746,0.173219l-0.074237,0.06805h-0.105169l-0.080423,0.061864l-0.024746,0.080423l-0.049491,0.012373l-0.049491,-0.043305l-0.074237,0.024746l-0.117542,0.15466l-0.018559,0.185592l0.024746,0.117542v0.235083l-0.06805,0.06805l-0.08661,0.012373l-0.123728,-0.061864l-0.15466,-0.259829l-0.117542,-0.358811l-0.142287,-0.160846l-0.173219,-0.037118l-0.08661,0.030932l-0.136101,-0.018559l-0.162393,-0.07994l-0.097436,0.00928l-0.023199,0.106715l0.074237,0.097436l-0.018559,0.069597l-0.120635,0.051038l-0.162393,-0.018559l-0.060317,-0.064957l-0.134554,-0.051038l-0.055678,0.013919l0.037118,0.134554l0.125275,0.092796l0.088156,0.00464l0.046398,-0.041758l0.083516,0.00928l0.074237,0.083516l0.013919,0.111355l0.051038,0.069597l0.092796,0.037118l0.074237,0.120635l0.00928,0.088156l0.120635,0.157753l0.153113,0.046398l0.162393,0.245909v0.055678l-0.148474,0.00464l-0.023199,0.046398l0.074237,0.102076l-0.013919,0.060317l-0.074237,0.018559l-0.24127,-0.115995l-0.088156,-0.00464l-0.023199,0.092796l0.143834,0.069597l0.051038,0.143834l-0.037118,0.088156l-0.111355,0.027839l-0.060317,-0.032479v-0.064957l-0.064957,-0.120635l-0.171673,-0.064957l-0.069597,0.032479l0.037118,0.115995l0.153113,0.100046l-0.00464,0.074237l-0.069597,0.055678h-0.111355l-0.162393,-0.083516l-0.129914,0.013919l-0.00928,0.060317l0.051038,0.051038v0.046398l-0.046398,0.046398l0.00928,0.037118l0.064957,0.023199l0.069597,0.111355l0.115995,0.051038l0.324786,0.162393h0.106715l0.296947,0.111355l0.037118,0.083516h0.037118l0.018559,-0.069597l-0.027839,-0.083516l0.037118,-0.032479l0.139194,0.060317l0.162393,0.23199l-0.00464,0.106715l0.106715,0.218071l0.069597,0.041758l0.125275,-0.027839l0.329426,0.102076l0.032479,0.083516l0.097436,0.037118l0.283028,-0.018559l0.069597,0.041758l0.055678,0.106715l-0.018559,0.083516l-0.180952,0.092796l-0.129914,0.264469l-0.018559,0.204151l-0.064957,0.055678h-0.120635l-0.064957,-0.046398l-0.018559,-0.064957l-0.148474,-0.027839l-0.167033,0.083516l-0.074237,0.115995l-0.00464,0.102076l-0.074237,0.218071l-0.097436,0.041758l-0.023199,0.041758l0.013919,0.051038l-0.064957,0.088156l-0.060317,0.046398l-0.032479,0.064957l0.018559,0.064957l-0.032479,0.041758l-0.083516,0.027839l-0.092796,-0.00928l-0.046398,0.064957l0.018559,0.218071l0.106715,0.055678l0.046398,0.088156l-0.013919,0.092796l0.134554,0.111355h0.194872l0.278388,-0.157753l0.064957,-0.092796l0.306227,-0.23199l0.153113,-0.023199l0.092796,-0.102076l0.064957,-0.018559l0.023199,-0.060317l-0.111355,-0.153113l0.018559,-0.125275l0.134554,-0.24127l0.097436,-0.055678l0.018559,-0.060317l-0.051038,-0.106715l0.046398,-0.115995l0.092796,-0.032479l0.055678,-0.125275l-0.027839,-0.092796l0.046398,-0.162393l0.060317,-0.037118l0.013919,-0.064957l-0.069597,-0.162393l0.018559,-0.24127l0.111355,-0.185592l0.343345,-0.204151l0.320146,-0.060317l0.283028,0.041758l0.167033,-0.060317l0.115995,-0.199511l0.055678,-0.023199l0.051038,0.018559l0.00464,0.041758l0.097436,0.060317l0.00464,0.092796l0.064957,0.027839l0.102076,-0.064957l0.051038,-0.185592l0.102076,-0.055678l0.032479,0.032479l-0.013919,0.102076l0.027839,0.115995l0.078877,0.023199l0.111355,-0.106715l0.074237,0.013919l0.018559,0.041758l-0.023199,0.046398l0.032479,0.032479l0.115995,-0.060317l0.055678,-0.088156l-0.00928,-0.102076l0.055678,-0.055678h0.148474l0.027839,0.055678l-0.032479,0.055678l-0.069597,0.013919l-0.013919,0.051038l0.046398,0.102076l0.046398,0.00464l0.032479,-0.051038l0.088156,0.00928l0.102076,0.074237l0.102076,0.051038l0.143834,0.023199l0.115995,-0.064957l0.037118,-0.092796l-0.060317,-0.111355l-0.22271,-0.199511l0.013919,-0.102076l0.088156,-0.064957l0.134554,-0.00464l0.092796,0.060317l0.143834,0.023199l0.111355,-0.037118l0.106715,0.027839l0.060317,0.051038l0.088156,-0.00464l0.023199,-0.069597l-0.055678,-0.088156l0.064957,-0.092796l0.125275,-0.055678l0.046398,-0.120635h0.083516l0.069597,0.078877l0.213431,0.013919l0.051038,-0.046398l-0.018559,-0.069597l0.018559,-0.041758l0.060317,-0.00464l0.102076,-0.171673v-0.051038l0.018559,-0.032479l0.092796,-0.018559l0.032479,-0.046398l-0.013919,-0.074237l-0.060317,-0.060317h-0.055678l-0.041758,-0.046398l0.074237,-0.120635l0.078877,-0.00464l0.139194,0.167033l0.157753,0.060317l0.134554,-0.027839l0.074237,-0.083516l-0.027839,-0.148474l0.097436,-0.078877h0.046398l0.00928,0.037118l-0.051038,0.032479l0.00928,0.051038l0.180952,0.041758l0.074237,-0.060317l-0.00928,-0.078877l-0.097436,-0.060317l-0.00928,-0.139194l0.102076,-0.115995l0.060317,0.00464l0.013919,0.078877l0.055678,0.013919l0.115995,-0.083516l0.018559,-0.106715l0.046398,-0.032479l0.083516,0.027839l0.046398,-0.041758l-0.023199,-0.074237l-0.051038,-0.055678v-0.092796l0.064957,-0.083516l0.055678,0.00928l0.037118,0.088156l-0.00928,0.064957l0.032479,0.00928l0.102076,-0.143834l0.092796,-0.018559l0.013919,0.041758l-0.074237,0.051038l-0.00928,0.064957l0.102076,0.078877l0.018559,0.097436l0.041758,0.027839l0.074237,-0.00464l0.120635,0.046398l0.055678,-0.018559l-0.00464,-0.064957l-0.190232,-0.115995l0.027839,-0.064957l0.120635,-0.00928l0.097436,0.013919l0.032479,-0.041758l-0.013919,-0.088156l0.055678,-0.037118l0.060317,0.041758l-0.00464,0.092796l-0.041758,0.027839l0.00464,0.051038l0.055678,0.018559l0.055678,-0.013919l0.041758,0.037118l-0.00928,0.143834l0.051038,0.00464l0.046398,-0.106715l0.060317,-0.027839l0.013919,-0.064957l-0.060317,-0.088156l-0.055678,-0.00464l-0.041758,-0.041758l-0.013919,-0.092796l-0.190232,-0.153113l-0.153113,-0.051038l-0.078877,0.00928l-0.078877,-0.032479l-0.083516,-0.078877l-0.199511,-0.078877l-0.125275,0.013919l-0.139194,-0.051038l-0.097436,-0.157753l0.092796,-0.180952l-0.074237,-0.060317l-0.315506,-0.00464l-0.097436,-0.041758l-0.046398,-0.069597l-0.375824,-0.250549l-0.157753,-0.041758l-0.111355,-0.051038l-0.046398,-0.051038l-0.088156,-0.032479l-0.204151,0.00928l-0.088156,-0.018559l-0.051038,-0.046398l-0.092796,-0.00928l-0.143834,0.046398l-0.125275,0.00464l-0.157753,-0.046398l-0.134554,0.00928l-0.097436,0.078877l-0.018559,0.120635l-0.088156,0.190232l-0.092796,0.046398l-0.092796,-0.013919l-0.125275,-0.153113l-0.120635,-0.051038l-0.037118,0.023199l0.00464,0.064957l-0.088156,0.083516l-0.125275,0.032479l-0.157753,-0.041758l-0.120635,-0.097436l-0.255189,-0.412942l-0.117542,-0.034025Z M1270.921956,313.711771l0.049491,-0.003093l0.027839,-0.034025l-0.018559,-0.021652l-0.043305,0.003093l-0.037118,-0.018559l-0.024746,0.021652l0.046398,0.052584Z  M1300.356897,308.178423l-0.04,-0.093l-0.003,-0.182l0.061,-0.093l0.118,-0.031l0.059,-0.108l-0.019,-0.071l0.053,-0.14l0.068,-0.024l0.018,-0.044l-0.034,-0.136l0.028,-0.077l0.102,-0.077l0.01,-0.056l-0.059,-0.105l0.034,-0.115l0.161,-0.173l0.164,-0.074l0.119,-0.207l0.083,-0.07l0.07,-0.223l-0.033,-0.074l0.042,-0.232l0.311,-0.283l0.223,-0.032l0.157,-0.047l0.107,-0.083l0.33,-0.061l0.292,0.037l0.158,-0.097l0.171,-0.343l0.139,-0.093l0.126,-0.246l0.004,-0.125l-0.092,-0.144l-0.219,-0.149l-0.134,-0.037l-0.088,-0.069l-0.051,-0.14l-0.204,-0.18h-0.163l-0.139,-0.107l-0.08,0.088l-0.106,0.145l-0.204,0.192l-0.266,0.155l-0.207,0.083l-0.195,0.003l-0.093,-0.018h-0.083l-0.099,0.04l-0.306,0.019l-0.245,-0.081l-0.111,-0.117l-0.087,-0.003l-0.058,0.03l-0.777,-0.012l-0.365,-0.068l-0.093,-0.049l-0.062,-0.016h-0.068l-0.253,-0.049l-0.331,-0.093l-0.322,-0.028l-0.733,0.034l-0.399,0.009l-0.449,0.059l-0.581,0.019l-0.501,-0.013l-0.325,-0.065l-0.247,-0.117l-0.127,-0.105l-0.158,-0.093l-0.223,-0.087l-0.263,-0.176l-0.071,-0.019l-0.037,-0.024l-0.006,-0.075l-0.065,-0.055l-0.068,0.003l-0.059,-0.019l-0.074,-0.08l-0.124,-0.053h-0.083l-0.065,-0.031l-0.04,-0.046l-0.093,-0.034l-0.068,0.006l-0.047,-0.009l-0.055,-0.044l-0.109,-0.003l-0.065,0.044l-0.018,0.114l-0.088,0.108l-0.153,0.047l-0.07,-0.01l-0.176,0.014l-0.065,0.028l-0.153,-0.042l-0.07,-0.074l-0.167,-0.069l-0.125,-0.093l-0.098,-0.037l-0.111,0.004l-0.102,-0.023l-0.042,-0.032l-0.097,-0.019l-0.126,0.023l-0.111,-0.041l-0.204,-0.14l-0.056,-0.079l-0.107,-0.041l-0.64,-0.01l-0.153,0.019l-0.255,-0.019l-0.07,-0.046l-0.088,-0.116l-0.125,-0.06l-0.112,-0.121l-0.088,-0.032h-0.065l-0.111,0.074h-0.056l-0.088,-0.079l-0.037,-0.07l-0.056,-0.004l-0.027,0.065l0.055,0.148l-0.009,0.047l0.009,0.065l0.033,0.046l-0.019,0.079l-0.125,0.074h-0.139l-0.13,-0.037l-0.037,-0.074l0.06,-0.084v-0.088l-0.07,-0.056l-0.157,-0.018l-0.093,-0.061l-0.033,0.019l-0.014,0.125l0.061,0.195l-0.005,0.088l-0.116,0.088l-0.167,0.042l-0.116,-0.018l-0.148,-0.088l-0.079,-0.103l-0.023,-0.218l0.027,-0.088l-0.023,-0.042l-0.069,-0.032l-0.033,-0.065v-0.079l-0.111,-0.13l-0.191,-0.046l-0.074,-0.065h-0.069l-0.089,0.06l-0.004,0.056l0.046,0.032l0.019,0.093l-0.037,0.065l0.018,0.139l0.172,0.135l-0.005,0.079l-0.046,0.088l-0.023,0.13l-0.102,0.088h-0.135l-0.283,-0.13l-0.07,-0.153l-0.078,-0.037l-0.065,0.004l-0.065,-0.041l-0.028,-0.061l-0.084,-0.032l-0.093,0.028l-0.074,-0.014l-0.106,-0.102l-0.01,-0.079l0.019,-0.135l-0.084,-0.079l-0.051,0.014l-0.009,0.079l-0.037,0.056l0.014,0.334l0.106,0.195l0.07,0.037l0.107,0.199l0.088,0.107v0.116l-0.097,0.121l-0.158,0.032l-0.293,-0.009l-0.041,0.032l-0.019,0.121l-0.079,0.065l-0.139,0.074l-0.186,0.014l-0.134,-0.055l-0.116,-0.019l-0.079,0.028l-0.134,-0.009l-0.274,-0.103l-0.074,-0.069l0.018,-0.065l-0.046,-0.023l-0.191,0.125l-0.185,0.056l-0.079,-0.028l-0.019,-0.093l-0.102,-0.093l-0.102,-0.028l-0.093,-0.083l-0.037,0.023l-0.004,0.149l0.074,0.069l0.06,0.014l0.07,0.088l-0.047,0.112l-0.129,0.102h-0.121l-0.227,-0.121l-0.042,-0.093l-0.07,-0.009l-0.106,0.037l-0.107,-0.014l-0.107,-0.06l-0.176,0.004l-0.037,0.028l-0.014,0.065l-0.121,0.047l-0.116,-0.01l-0.093,-0.037l-0.167,-0.023l-0.088,-0.083l0.009,-0.093l-0.027,-0.074l-0.084,-0.061l-0.06,-0.134l-0.061,-0.042h-0.134l-0.158,-0.047l-0.181,-0.106l-0.065,-0.005l-0.028,0.037l0.01,0.279l0.065,0.125l0.069,0.028l0.019,0.065l-0.005,0.065l0.06,0.088l0.084,0.037l-0.014,0.125l-0.158,0.241l-0.116,0.07l-0.181,0.005l-0.301,-0.093l-0.028,-0.065l0.032,-0.074l-0.009,-0.061l-0.07,-0.06l-0.102,-0.014l-0.027,0.033l0.009,0.083l-0.033,0.06l-0.102,0.01l-0.097,-0.047l-0.023,0.033l0.069,0.088l0.121,0.093l0.009,0.088l-0.069,0.06l-0.112,-0.004l-0.264,-0.186l-0.098,-0.019l-0.13,-0.069l-0.037,0.023l-0.009,0.107l-0.097,0.074l-0.14,-0.009l-0.255,-0.088l-0.134,-0.126l-0.172,-0.065l-0.534,-0.032l-0.134,0.102l-0.019,0.125l0.023,0.116l-0.051,0.102l-0.361,0.186l-0.13,0.005l-0.121,0.041l-0.06,0.065l-0.093,0.014l-0.111,-0.037l-0.075,-0.056l-0.051,0.014l-0.014,0.079l0.084,0.051l0.111,0.028l0.135,0.107l0.06,0.176l-0.042,0.084l-0.13,0.06l-0.227,-0.046l-0.19,-0.093l-0.051,-0.075l-0.441,-0.185l-0.135,-0.014l-0.102,-0.051l-0.06,0.032l-0.023,0.089l0.069,0.241l0.209,0.176l0.149,0.06l0.079,0.158l-0.005,0.19l-0.144,0.167h-0.051l-0.005,-0.069l-0.222,-0.051l-0.07,-0.042l-0.102,0.005l-0.264,0.083l-0.098,0.079l-0.121,0.019l-0.218,-0.047l-0.097,0.005l-0.051,0.037l-0.084,-0.005l-0.31,-0.134h-0.228l-0.106,0.06l-0.028,0.065l-0.065,0.023l-0.209,-0.014l-0.033,0.042l0.01,0.079l0.06,0.037l-0.005,0.074l-0.139,0.14l-0.107,0.023l-0.167,-0.033l-0.097,-0.102l-0.079,0.005l-0.056,0.063l-0.142,0.059l-0.09,0.077l-0.111,0.056l-0.201,0.037l-0.114,-0.012l-0.062,-0.025l-0.059,-0.077l-0.074,-0.025l-0.031,0.022l0.003,0.102l-0.05,0.052l-0.061,0.006l-0.038,0.041l-0.018,0.133l0.052,0.157l0.109,0.084l0.055,0.133l-0.009,0.118l0.022,0.043l0.04,0.009l0.025,0.062l-0.025,0.09l0.037,0.13l0.059,0.065v0.052l-0.037,0.019l-0.096,-0.044l-0.077,0.01l-0.146,0.117l-0.015,0.062l-0.037,0.019l-0.164,-0.01l-0.087,-0.031l-0.034,0.031l-0.022,0.099l0.013,0.106l-0.025,0.064l0.015,0.065l0.084,0.047l0.006,0.043l-0.025,0.062l-0.049,0.019l-0.081,-0.025l-0.04,-0.056l-0.046,0.006l-0.006,0.062l0.058,0.118l0.075,0.052l0.123,0.155l0.152,0.105l0.105,0.022l0.093,-0.009l0.028,-0.028h0.04l0.192,0.136l0.08,0.021l0.096,-0.031l0.043,-0.071v-0.244l0.025,-0.05l0.04,-0.003l0.022,0.05l0.037,0.009l0.022,-0.015l0.052,0.028l0.016,0.068l0.09,0.099l0.034,0.003v-0.056l-0.056,-0.093l-0.012,-0.062l0.024,-0.018l0.112,0.043l0.17,0.161l0.021,0.077l-0.031,0.102l-0.043,0.019l-0.052,-0.012l-0.121,-0.096l-0.149,-0.013l-0.052,0.022l-0.006,0.031l0.031,0.04v0.059l-0.062,0.065l-0.112,0.006l-0.055,0.031l-0.149,-0.006l-0.102,-0.065h-0.049l-0.01,0.028l0.072,0.071l0.006,0.037l-0.028,0.015l-0.068,-0.018l-0.074,0.006l-0.124,0.068l-0.068,0.006l-0.09,-0.031l-0.037,-0.034l-0.062,-0.003l-0.105,0.059l-0.006,0.049l0.037,0.041l-0.003,0.043l-0.05,0.065l0.003,0.083l0.068,0.053h0.075l0.034,0.031l-0.006,0.059l-0.038,0.021v0.037l0.186,0.115l0.077,0.121l0.028,0.102l0.047,0.058l0.089,0.016l0.112,0.133v0.114l0.015,0.037l0.046,0.019v0.04l-0.089,0.053h-0.068l-0.136,-0.05l-0.016,-0.083l-0.034,-0.006l-0.022,0.043v0.059l0.044,0.034l-0.013,0.028l-0.071,0.03l-0.062,0.068h-0.061l-0.028,0.035l0.04,0.071l-0.009,0.065l-0.056,0.049l0.015,0.025l0.09,-0.031l0.3,-0.062l0.183,0.019l0.068,0.037l0.086,-0.01l0.164,-0.105l0.204,-0.037l0.276,0.056l0.213,0.022l0.099,-0.05l0.068,0.003l0.043,0.034l0.05,0.003l0.04,-0.021l0.031,0.012l0.019,0.049l-0.003,0.056l-0.031,0.031l-0.013,0.04l0.016,0.022l-0.01,0.034l-0.117,0.025l-0.059,0.052l-0.114,0.016l-0.078,-0.013l-0.096,0.019l-0.046,-0.003l-0.034,0.018l-0.009,0.075l-0.031,0.018l-0.056,-0.009l-0.145,0.009l-0.059,0.047l-0.102,0.021l-0.118,-0.009l-0.235,-0.118l-0.08,0.007l-0.006,0.034l0.046,0.031l0.003,0.046l-0.018,0.028l0.015,0.037l0.084,0.009l0.139,0.084l0.018,0.052l-0.058,0.031l-0.211,0.013l-0.096,-0.044l-0.04,0.019l0.003,0.049l0.031,0.022l-0.003,0.028l-0.096,0.046l-0.009,0.037l0.028,0.044l0.018,0.117l-0.031,0.081v0.061l0.041,0.056l0.003,0.13l0.12,0.189l0.007,0.068l-0.016,0.08l0.022,0.025l0.043,0.009l0.006,0.062l-0.093,0.077l-0.015,0.065l-0.074,0.034l-0.013,0.05l0.065,0.028l0.109,0.003l0.089,0.046l0.05,-0.015l-0.003,-0.096l0.046,-0.05l0.037,0.007l0.031,0.034l-0.006,0.08l0.025,0.019l0.034,-0.003l0.031,0.024l-0.003,0.068l0.034,0.037l0.049,0.004l0.025,0.024l-0.003,0.05l0.04,0.043l0.065,-0.003l0.065,0.056l0.015,0.046l0.133,0.077l0.01,0.031l0.031,0.006l0.052,-0.043l0.04,-0.08h0.031l0.068,0.062l0.003,0.027l-0.021,0.031l0.009,0.038l0.071,0.034l-0.003,0.055l-0.049,0.04l-0.004,0.044l0.041,0.024l-0.006,0.075l-0.044,0.058l-0.018,0.362l0.031,0.072l0.068,0.052l0.13,0.238l-0.004,0.105l0.05,0.069l0.062,0.049l0.096,0.164l-0.006,0.056l-0.035,0.031l0.007,0.037l0.071,0.096l0.055,0.03l0.038,-0.018l-0.003,-0.056l0.034,-0.015l0.092,0.105l0.028,-0.009l-0.021,-0.071l-0.059,-0.062l-0.059,-0.025v-0.034l0.049,0.006l0.084,0.065l0.093,0.019l0.111,0.046l0.031,-0.019l0.037,-0.129l0.034,-0.031l0.084,0.021l0.114,0.143l0.062,0.145l0.028,0.022l0.049,0.006l0.118,0.068l0.037,-0.013l0.015,-0.089l0.044,-0.019l0.102,0.056l0.046,-0.003l0.037,-0.031l0.075,0.009l0.139,0.133l0.077,0.025l0.068,0.09h0.031l0.009,-0.059l-0.027,-0.084l0.027,-0.04h0.041l0.049,0.111l0.065,0.047l0.043,0.006l0.044,0.059l-0.007,0.071l0.041,0.071l0.065,0.031l0.024,0.04l0.007,0.084l0.133,0.145l0.08,0.019l0.087,0.052l0.037,0.059l0.037,0.019l0.028,-0.016l-0.006,-0.056l0.024,-0.021l0.056,-0.006l0.139,-0.099l0.043,-0.072l0.149,-0.058l0.133,0.015l0.241,-0.09l0.062,0.004l0.093,-0.053l0.086,-0.164l0.031,-0.207l0.059,-0.074l0.006,-0.075l-0.027,-0.028v-0.027l0.018,-0.047l0.022,-0.185l0.043,-0.096l0.08,-0.059l0.347,-0.056l0.513,0.013l0.102,0.028l0.034,0.049l0.065,0.012l0.072,-0.009l0.191,0.056l0.189,0.117l0.198,0.214l0.096,0.173v0.133l-0.043,0.096l-0.137,0.077l-0.049,0.068l-0.201,0.138l-0.16,0.056l-0.089,0.099l-0.081,0.015l-0.007,0.029l0.069,0.091l-0.008,0.052l-0.059,0.084l-0.047,0.14l0.005,0.077l-0.047,0.2l0.023,0.044l0.039,0.012l0.062,0.138l0.007,0.059l-0.017,0.045l0.024,0.165l-0.027,0.17l-0.071,0.049v0.059l0.091,0.116l0.02,0.069l-0.037,0.18l-0.138,0.271l-0.015,0.111l-0.054,0.114l-0.099,0.061l-0.15,0.227l-0.119,0.338l-0.002,0.128l-0.084,0.212l-0.093,0.143l-0.05,0.15l0.35,0.03l0.02,0.057l0.034,0.002l0.272,-0.116l0.012,-0.071l-0.027,-0.128l0.022,-0.033l-0.007,-0.039l-0.057,-0.012l-0.003,-0.052l0.106,-0.104l0.262,-0.049l0.093,-0.057l0.02,-0.069l0.074,-0.041h0.094l0.177,-0.065l0.057,-0.054l0.064,-0.007l0.158,0.096l0.027,0.069l0.064,0.012l0.101,-0.093l0.017,-0.064l0.173,0.002l0.103,0.081l0.057,0.003l0.113,-0.121l0.124,0.006l0.062,-0.031v-0.154l0.433,-0.081l0.167,0.155l0.241,-0.074l0.482,-0.248l0.353,-0.031l0.161,-0.068l0.315,-0.42l0.093,-0.044h0.093l0.056,-0.031l0.031,-0.086l0.185,-0.006l0.13,0.043l0.167,-0.019l0.074,-0.068h0.075l0.062,0.081l-0.069,0.08l0.019,0.056l0.056,0.006l0.049,0.111l-0.025,0.081l0.019,0.13l0.111,0.031l0.013,0.055l-0.068,0.031l0.191,0.174l0.13,0.049l0.124,-0.019l0.025,-0.111l0.025,-0.278l-0.062,-0.105l-0.099,-0.044l-0.081,-0.099l0.013,-0.068l0.068,-0.049l0.012,-0.075l0.093,-0.006l0.105,0.087l0.303,0.365l0.118,0.056h0.266l0.266,0.148l0.006,0.074l-0.08,0.044l0.024,0.061l0.068,0.007l0.124,0.136l0.062,0.024l0.111,-0.037l0.068,0.031l-0.006,0.062l0.05,0.025l0.055,-0.056l0.118,0.019l0.049,0.08h0.056l0.025,-0.08h0.068l0.074,0.124l-0.049,0.086l0.018,0.068l0.328,0.099l0.08,0.112l0.167,0.061l0.056,0.075h0.155l0.111,-0.068l0.043,-0.093l0.099,-0.019l0.266,0.161l0.013,0.093l0.241,0.315l0.223,0.056l0.086,-0.049l0.056,0.018l0.037,0.118l0.056,0.012l0.049,-0.043l0.211,-0.006l0.173,0.061l0.087,-0.012l0.167,-0.099l0.111,0.025l0.043,0.074l0.081,0.012l0.049,-0.037l0.13,0.044l-0.006,0.099l-0.13,0.235l-0.025,0.173l-0.074,0.093l0.019,0.099l0.136,0.092l0.08,0.007l0.062,-0.05l0.124,0.006l0.303,0.124l0.037,0.056v0.068l0.062,0.074l0.198,0.019l0.161,0.129l0.012,0.087l-0.136,0.179l0.031,0.062l0.124,0.019l0.061,0.062l-0.006,0.093l0.068,0.055l0.081,0.006l0.043,0.056l0.049,0.303l0.143,0.217l0.099,0.062l0.111,-0.013l0.068,0.037l0.025,0.062l0.105,0.044l0.079,-0.042l0.376,0.116l0.427,-0.023l0.074,0.041l0.139,0.413l0.065,0.051l0.167,0.065l0.162,0.014l0.051,-0.051l-0.013,-0.079l0.102,-0.102l0.069,0.005l0.014,0.19l0.098,0.065l0.065,-0.028l0.013,-0.176l0.154,-0.121l0.018,-0.088l0.056,-0.023l0.083,0.032l0.056,-0.032l-0.005,-0.065l0.149,-0.06l0.107,0.023l0.139,-0.065l-0.014,-0.084l0.065,-0.032l0.158,0.065l0.046,0.056l-0.06,0.06l0.009,0.056l0.097,-0.005l0.088,-0.172l0.116,-0.037l0.116,0.019l0.205,-0.093l0.032,-0.07l-0.018,-0.106l0.065,-0.089l0.134,-0.032l0.116,-0.111l0.139,0.013l0.037,0.093l0.107,0.019l0.014,0.055l-0.065,0.065l0.037,0.051l0.144,-0.018l0.051,-0.065l0.088,-0.005l0.047,0.056l0.185,0.009l0.121,0.051l0.014,0.065l-0.047,0.065l0.01,0.047l0.218,0.009l0.185,0.139l0.144,0.051h0.2l0.111,0.019l0.121,0.079l0.111,0.009l0.107,-0.014l0.116,0.028l0.06,-0.023l0.07,0.037l0.018,0.055l0.098,0.056l0.078,-0.018l0.084,0.027l0.125,0.13l0.098,0.005l0.074,0.032l-0.005,-0.07l-0.039,-0.02l-0.008,-0.034l0.018,-0.054l-0.059,-0.091l-0.009,-0.102l-0.037,-0.116l-0.073,-0.059l0.01,-0.051l0.067,-0.01l0.061,-0.057l0.013,-0.059l0.061,-0.047l0.138,0.015l0.185,-0.131l-0.005,-0.054l-0.076,-0.012l-0.003,-0.042l0.069,-0.022l-0.006,-0.125l-0.13,-0.046l-0.01,-0.075l0.047,-0.027l-0.005,-0.056l-0.065,-0.047l0.014,-0.106l0.097,-0.061l0.135,-0.167l0.084,-0.012l0.037,-0.033l0.019,-0.093l0.065,-0.046l0.06,0.009l0.046,0.07l0.084,-0.009l0.042,-0.093l0.074,-0.042l0.042,0.023l-0.01,0.06l0.042,0.065l0.121,-0.013l0.042,-0.033l-0.014,-0.116l0.046,-0.06h0.065l0.037,-0.042l-0.111,-0.084l-0.005,-0.111l-0.074,-0.079l-0.065,-0.004l-0.005,-0.07l0.033,-0.056l-0.028,-0.069l-0.07,-0.014l0.005,-0.051l0.116,-0.028l0.07,0.032l0.069,-0.037l0.01,-0.097l0.078,-0.186l0.135,-0.093l0.19,-0.018l0.121,-0.056l0.287,-0.009l0.093,0.046l0.098,-0.004l0.106,-0.079l0.047,0.004l0.051,0.089l0.107,0.06l0.065,0.005l0.06,-0.065l0.065,-0.01l0.042,0.028l0.055,-0.004l0.047,-0.061l0.041,-0.004l0.038,-0.028l-0.019,-0.056l0.097,-0.111l0.005,-0.126l0.07,-0.139l-0.042,-0.074l-0.139,-0.019l-0.153,0.047l-0.112,-0.033l-0.116,-0.065h-0.088l-0.079,0.042l-0.083,-0.023v-0.051l0.079,-0.014l0.064,-0.065l-0.055,-0.06l-0.163,-0.01l-0.041,-0.092l-0.144,-0.167l0.028,-0.065l0.102,0.004l0.051,-0.111l-0.037,-0.06l0.092,-0.149l-0.009,-0.116l-0.144,-0.056l-0.095,-0.072l-0.027,0.017l-0.01,0.044l0.027,0.035l-0.027,0.027l0.022,0.057l-0.03,0.012l-0.076,-0.042l-0.03,0.027l-0.002,0.052l-0.077,0.069l-0.012,0.064l0.003,0.131l-0.023,0.005l-0.049,-0.126l0.007,-0.143l0.057,-0.052l-0.005,-0.079l-0.103,-0.073l-0.01,-0.055l-0.035,-0.037l-0.046,-0.014l-0.003,-0.07l0.032,-0.041l0.057,-0.008l0.019,-0.032v-0.054l-0.066,-0.074l-0.01,-0.118l0.069,-0.077l-0.007,-0.034l-0.121,-0.096l-0.069,0.002l-0.037,-0.015l-0.003,-0.056l-0.081,-0.04l-0.081,0.008l-0.084,-0.037l-0.01,-0.057l0.022,-0.037l0.047,-0.017l-0.005,-0.018l-0.042,-0.017l-0.069,-0.197l-0.061,-0.054l-0.042,-0.124l-0.05,-0.041l-0.019,-0.062l0.015,-0.074l-0.01,-0.044l-0.084,-0.057l-0.03,-0.067v-0.071l-0.027,-0.123l-0.034,-0.05l-0.008,-0.113l0.04,-0.049l-0.013,-0.087l-0.096,-0.14l-0.079,-0.042l-0.039,-0.042v-0.039l-0.032,-0.047l-0.089,-0.054l-0.042,-0.092l0.008,-0.061l0.091,-0.045l0.012,-0.076l-0.059,-0.089l-0.017,-0.071v-0.119l-0.03,-0.073l-0.054,-0.025v-0.044l0.025,-0.037l0.078,-0.003l0.092,-0.037l0.002,-0.029l-0.086,-0.035l-0.054,-0.01l-0.18,-0.108l-0.094,-0.091l-0.084,-0.045l-0.121,-0.017l-0.246,-0.079l-0.047,0.005l-0.012,0.032l0.047,0.027v0.03l-0.057,0.059l-0.101,0.007l-0.099,-0.044l-0.157,-0.212l0.003,-0.068l0.05,-0.077l-0.013,-0.04l-0.037,-0.022l-0.003,-0.065l0.053,-0.133l-0.068,-0.612l-0.106,-0.211l-0.077,-0.362l0.016,-0.133l-0.047,-0.151l-0.229,-0.279l-0.052,-0.145l0.006,-0.213l-0.043,-0.161l-0.362,-0.458l-0.381,-0.275l-0.123,-0.04h-0.069l-0.191,-0.047l-0.121,-0.077l-0.09,-0.167l-0.046,-0.201l0.015,-0.254l0.065,-0.25l0.102,-0.158l0.106,-0.062l0.096,-0.105l0.133,-0.198l0.188,-0.108l0.139,-0.041l0.112,-0.058l0.083,-0.087l0.217,-0.111l0.538,-0.164l0.421,-0.093l0.541,-0.062l0.674,-0.05l0.743,-0.003l0.433,0.047l0.309,0.052l0.173,0.078l0.087,0.003l0.028,-0.025h0.037z"/>
</svg>
