<svg xmlns="http://www.w3.org/2000/svg" viewBox="1280.245 534.866 80.497 68.567">
  <path d="M1330.512456,538.27191l0.020106,-0.273748l0.055678,-0.088156l0.069597,0.00928l0.064957,0.111355l-0.00464,0.129914l-0.023199,0.111355l-0.046398,0.055678h-0.117542l-0.018559,-0.055678Z M1330.7197,538.275004l0.024746,0.006186l0.046495,-0.165148l0.027742,-0.051376l-0.015466,-0.015466l-0.041855,0.044658l-0.023102,0.085256l-0.018559,0.095889Z M1330.549574,538.803941l0.080423,-0.402116l-0.018559,-0.027839l-0.083516,0.006186l-0.021652,0.040212l0.024746,0.383557h0.018559Z M1338.969265,562.921622l0.058771,-0.015466l0.006186,-0.083516l-0.018559,-0.049491h-0.058771l-0.040212,0.055678v0.064957l0.052584,0.027839Z M1341.153064,564.718771l0.296947,0.069597l0.245909,0.23663l0.176312,0.064957l0.027839,-0.032479l-0.134554,-0.329426l-0.394383,-0.185592l-0.22735,0.00464l-0.046398,0.069597l0.055678,0.102076Z M1340.067351,564.222312l0.032479,0.083516l0.102076,0.097436l0.078877,-0.00464l0.027839,-0.167033l-0.032479,-0.097436l-0.115995,-0.074237l-0.027839,-0.162393l-0.069597,-0.00464l-0.106715,0.171673l0.00928,0.106715l0.102076,0.051038Z M1340.211185,563.707295l0.088156,0.167033l0.055678,0.018559l0.069597,-0.078877l-0.032479,-0.134554l-0.074237,-0.051038l-0.078877,0.00928l-0.027839,0.069597Z M1339.16259,563.530982l-0.00928,0.064957l0.060317,0.092796l0.041758,0.00464l-0.00464,-0.088156l-0.051038,-0.069597l-0.037118,-0.00464Z M1339.478096,563.35003l0.120635,0.088156l0.037118,-0.013919l-0.037118,-0.129914l-0.074237,-0.064957h-0.060317l-0.027839,0.037118l0.041758,0.083516Z M1339.705446,563.493864l-0.032479,0.046398l0.027839,0.106715h0.046398l0.148474,-0.120635l0.046398,-0.176312l-0.046398,-0.023199l-0.064957,0.032479l-0.032479,0.092796l-0.092796,0.041758Z M1341.050988,566.732444l0.191778,0.179406l0.098982,0.049491l0.018559,-0.043305l-0.204151,-0.414489l-0.098982,-0.092796l-0.049491,0.024746l-0.006186,0.185592l0.049491,0.111355Z M1341.440732,566.812867v0.074237l0.037118,0.061864l0.043305,-0.006186l0.012373,-0.08661l-0.043305,-0.06805l-0.049491,0.024746Z M1340.815905,566.82524l0.06805,-0.049491v-0.043305l-0.043305,-0.012373l-0.055678,0.030932l-0.018559,0.055678l0.049491,0.018559Z M1340.78855,567.159886l0.034509,-0.029579l-0.002465,-0.032044l-0.022184,-0.007395l-0.034509,0.027114v0.036973l0.024649,0.00493Z M1341.495974,570.171986l0.022184,0.091201l0.073947,0.123245l0.034509,-0.002465l0.017254,-0.093666l-0.032044,-0.2317l-0.098596,-0.073947l-0.054228,0.00493l-0.046833,0.046833l0.007395,0.073947l0.076412,0.061622Z M1349.286634,584.94366l0.102076,0.088156l0.037118,-0.018559l-0.069597,-0.120635l-0.074237,-0.046398l-0.023199,0.018559l0.027839,0.078877Z M1356.032903,592.242065l0.018559,0.074237l0.046398,0.018559l0.111355,-0.041758l-0.00464,-0.051038l-0.078877,-0.064957h-0.051038l-0.041758,0.064957Z M1353.55061,590.724851l0.046398,-0.013919l0.00928,-0.037118l-0.032479,-0.032479l-0.037118,0.00928l-0.018559,0.041758l0.032479,0.032479Z M1352.211254,590.828473l0.024746,-0.061864l-0.012373,-0.037118h-0.027839l-0.018559,0.046398v0.049491l0.034025,0.003093Z M1352.582438,591.543002l0.043305,-0.018559v-0.030932l-0.030932,-0.015466l-0.046398,0.018559l-0.00928,0.034025l0.043305,0.012373Z M1353.030952,597.113855l-0.00464,0.027839l0.097436,0.037118l0.055678,0.060317l0.018559,0.078877l0.037118,0.00464l0.013919,-0.051038l-0.017251,-0.081421l-0.052346,-0.067052l-0.083516,-0.027839l-0.064957,0.018559Z M1358.994642,601.626834l0.046398,0.034025l0.151567,0.00928l0.027839,-0.030932l-0.083516,-0.108262l-0.055678,-0.003093l-0.071144,0.046398l-0.015466,0.052584Z  M1282.181205,603.433263v-51.204l-0.736,-1.662l-0.049,-0.247l0.105,-0.643l-0.037,-0.372l-0.471,-0.748l0.019,-0.204l0.124,-0.334l-0.019,-0.31l-0.185,-0.389l-0.242,-0.662l-0.043,-0.205l-0.08,-0.216l-0.316,-0.396l-0.006,-0.111l0.155,-0.403l0.247,-0.383l0.111,-0.316l0.112,-0.173l0.167,-0.099l0.21,-0.216l0.167,-0.341l0.217,-0.21l0.21,-0.346l0.049,-0.248l-0.018,-0.179l0.031,-0.235l0.148,-0.26l0.143,-0.687l0.111,-0.216l0.012,-0.223l-0.161,-0.421l-0.043,-0.34l-0.216,-0.513l-0.013,-0.174l-0.192,-0.519l-0.216,-0.322l-0.105,-0.334l0.031,-0.118l0.012,-0.433l0.068,-0.173l-0.025,-0.39l-0.142,-0.321l-0.018,-0.341l0.043,-0.129l0.68,-0.588l0.641,-0.401l0.067,-0.093l-0.005,-0.168l0.062,-0.219l0.098,-0.143l0.215,-0.158l0.123,-0.031l0.043,0.297l0.093,0.18l0.012,0.167l-0.043,0.08l0.006,0.124l0.173,0.117l0.631,0.149l0.767,0.031l1.095,-0.279l1.602,-0.559l0.474,-0.093l0.529,0.037l2.004,0.557l0.585,0.213l0.974,0.167l0.232,-0.046l0.186,0.018l0.195,0.093l0.668,0.056l0.232,-0.028l0.297,0.083l0.12,0.112l0.325,0.102l0.547,0.018l0.223,-0.037l0.214,0.084l0.046,0.102l0.121,0.074h0.185l0.112,0.065l0.074,0.121l0.241,0.074l1.012,0.037l0.371,-0.056l0.148,0.037l0.056,0.112v0.148l0.269,0.566l0.241,0.232l0.353,0.13l0.445,0.037l0.205,0.065h0.315l0.186,0.084l0.445,-0.019l0.631,-0.222l0.241,-0.195l0.075,0.009l0.027,0.26l0.121,0.176l0.037,0.269l-0.028,0.093l0.075,0.186l0.287,0.083l0.65,0.065l0.612,-0.065l0.241,0.065l0.13,0.084l0.798,0.046l0.567,-0.111l0.306,0.037l0.26,0.139l0.259,0.074h0.186l0.26,0.102l0.13,0.121l0.343,0.13l0.306,0.046l0.483,0.232l0.278,0.047l0.084,0.074l0.018,0.158l0.501,0.389l0.316,0.112l0.334,0.185l0.566,0.075l0.798,-0.112l1.114,-0.417l1.122,-0.613l0.78,-0.566l0.223,-0.223l0.324,-0.222l0.14,-0.186l0.102,-0.028l0.102,0.028l0.148,-0.018l0.242,-0.214l0.049,-0.142l-0.049,-0.019l-0.069,0.037l-0.055,-0.012l0.074,-0.111l0.124,-0.031l0.093,0.037l0.34,-0.192l0.42,-0.39l0.161,-0.055l0.136,-0.174l-0.018,-0.055h-0.118l-0.018,-0.05l0.08,-0.086l0.099,0.012l0.099,0.087l0.062,0.278l0.142,0.105l0.359,0.056l0.452,-0.118l0.476,-0.34l0.288,-0.513l0.114,-0.44l0.056,-0.074l0.167,-0.043l0.223,0.111l0.396,0.093l0.519,-0.025l1.435,-0.458l0.978,-0.396l0.656,-0.154l0.618,0.006l0.897,0.266l0.811,0.346l0.433,0.291l0.47,0.192l0.402,0.062l0.538,-0.111l0.73,-0.198l0.31,-0.192l0.198,-0.099l0.352,0.018l0.328,0.13l0.173,0.192l-0.018,0.173l0.099,0.223l0.309,0.315l0.569,0.372l0.464,0.29l0.359,0.081l0.353,0.049l0.049,0.068l-0.062,0.099l-0.025,0.452l0.03,0.52l-0.014,0.199l0.019,1.295l0.032,0.246l0.005,0.575l0.143,0.533l0.079,0.195l-0.018,0.167l-0.098,0.464l-0.134,0.144l-0.19,0.047l-0.005,0.06l0.056,0.121l0.301,0.338l0.065,0.204l0.079,0.474l-0.028,0.079l-0.148,0.041l-0.088,0.098l-0.019,0.181l-0.051,0.157l0.056,0.126l0.213,0.297l0.13,0.046l0.19,0.009l0.158,0.098l0.088,0.116l0.014,0.079l0.125,0.065l0.107,-0.014l0.06,-0.075l-0.014,-0.074l0.07,-0.028l0.227,0.061l0.075,0.083l-0.019,0.135l0.074,0.12l0.084,0.028l0.06,0.056l0.014,0.278l0.028,0.803l0.083,0.441l-0.009,0.204l-0.042,0.056l-0.041,-0.005l-0.024,-0.06l-0.12,-0.014l-0.246,0.041l-0.163,0.121l-0.106,0.232l0.004,0.107l0.116,0.167l0.13,0.004l0.033,0.033l-0.065,0.172l-0.2,0.232l-0.19,0.139l-0.264,0.329l-0.047,0.177l-0.074,0.111l-0.084,0.097l-0.041,0.107l0.051,0.204l-0.023,0.112l-0.093,0.134l-0.028,0.125l0.107,0.195l0.055,0.163l0.181,0.195l0.218,0.125l0.307,0.274l0.041,0.106l0.367,0.325l0.13,0.079l0.218,0.329l0.06,0.381l0.088,0.134l0.042,0.163l0.009,0.232l0.084,0.116l0.065,0.199v0.209l0.042,0.116l0.065,0.06l-0.005,0.13l-0.07,0.139l-0.185,0.116l-0.01,0.065l0.042,0.065v0.07l-0.046,0.111l0.009,0.251l0.056,0.116l0.171,0.13l0.121,0.25l0.014,0.181l0.079,0.135l0.167,0.107l0.088,0.097l0.037,0.116l0.116,0.107l0.163,0.046l0.199,0.181l0.135,0.316l0.004,0.125l0.107,0.329l0.102,0.172l0.051,0.209l-0.014,0.209l0.074,0.097l0.26,0.079l0.163,0.125l0.199,0.26l0.172,0.116l0.278,0.385l0.019,0.149l0.227,0.273l0.158,0.061l0.069,0.097l0.024,0.232l0.083,0.181l0.135,0.074l0.06,0.084l0.019,0.134l0.487,0.52l0.055,0.148l0.098,0.089l0.116,0.041l0.353,0.344l0.064,0.171l0.251,0.186l0.283,0.051l0.371,0.241l0.52,0.692l0.06,0.19l0.116,0.223v0.273l-0.051,0.019l-0.051,-0.102l-0.069,-0.033l-0.079,0.01l-0.075,-0.028l-0.083,-0.084l-0.218,-0.037l-0.074,0.056l-0.014,0.12l0.204,0.302l0.158,0.093l0.153,-0.037l0.037,0.041l-0.102,0.297l0.006,0.116l0.062,0.05l0.161,0.025l0.123,0.148v0.093l-0.08,0.006l-0.21,-0.167l-0.161,-0.049l-0.143,0.129v0.087l0.285,0.316l0.08,0.272l-0.018,0.21l0.056,0.062l0.173,0.043l0.216,0.229l0.013,0.13l0.099,0.149l0.185,0.129l0.112,0.242l-0.031,0.198l0.216,0.334l0.483,0.297l0.272,0.08l0.118,0.186l-0.025,0.284l-0.081,0.161l-0.043,0.384l0.08,0.185l0.372,0.211l0.037,0.154l-0.068,0.143l0.043,0.111l0.105,0.087l0.136,0.29l0.013,0.167l0.086,0.118l0.192,0.161l0.062,-0.025l0.068,0.049l-0.012,0.18l0.08,0.148l-0.043,0.05l-0.167,-0.087l-0.118,0.025l-0.056,0.254l0.019,0.105l-0.062,0.148v0.081l0.062,0.068l0.006,0.093l-0.068,0.204l-0.012,0.303l0.123,0.198l0.335,0.173l0.123,0.186l0.044,0.247l0.043,0.087l0.13,0.117l0.124,0.204l0.099,0.409l0.173,0.346l0.297,0.309l0.148,0.365l0.031,0.223l0.359,0.835l0.13,0.124l0.179,0.365l0.093,0.074l0.074,0.149v0.136l0.211,0.408l0.21,0.142l0.21,0.409l0.068,0.346l0.093,0.136l0.13,0.05l0.223,0.247l0.018,0.112l0.099,0.086l0.136,0.068l0.223,0.396l0.031,0.18l0.149,0.365l0.259,0.259l0.093,0.217l-0.012,0.204l0.068,0.136l0.161,0.149l0.092,0.297l0.013,0.222l0.111,0.217l0.136,0.086l0.087,0.205l0.037,0.228l0.087,0.143l0.13,0.111l0.105,0.198l0.043,0.204l0.124,0.186l0.192,0.161l0.173,0.371l0.031,0.185l0.266,0.495l0.117,0.093l0.044,0.173l-0.038,0.136l0.056,0.161l0.204,0.229l0.068,0.279l0.006,0.179l0.106,0.217l0.445,0.463l0.087,0.291l-0.013,0.13l0.037,0.093l0.081,0.043l0.025,0.062l-0.038,0.105l0.087,0.167l0.285,0.316l0.012,0.093l-0.142,0.253l0.055,0.136l0.291,0.248l0.303,0.445l0.353,0.26l0.117,0.025l0.093,0.068l0.044,0.13l0.47,0.507l0.185,0.507l0.347,0.402l0.043,0.143l0.062,0.018l0.031,-0.086l-0.062,-0.081l0.037,-0.043l0.18,0.074l0.402,0.31l0.111,0.253l-0.012,0.192l0.117,0.105l0.359,0.013l0.377,0.142l0.186,0.142l0.093,0.254l0.136,0.161l-0.025,0.049l-0.142,-0.117l-0.112,-0.137l-0.123,-0.031l-0.235,0.186l-0.112,0.012l-0.229,-0.117l-0.123,-0.012l-0.081,0.024l-0.192,-0.037l-0.173,-0.148l-0.13,0.012l-0.105,0.105l-0.062,-0.012l0.087,-0.149l0.142,-0.037l-0.031,-0.074l-0.185,-0.037l-0.112,0.031l-0.142,0.297l0.043,0.377l-0.012,0.316l-0.068,0.185l0.037,0.217l0.066,0.023l0.076,-0.097l0.075,0.012l0.018,0.074l-0.099,0.124l0.081,0.662l-0.019,0.532l-0.136,0.637l0.043,0.204l0.26,0.297l0.099,0.415l0.031,0.501l0.117,0.513l0.223,0.359l0.186,0.223l0.13,0.383l0.037,0.495l0.049,0.173l-0.012,0.137l0.056,0.043l0.049,-0.05l0.068,0.019l0.13,0.371l0.217,0.241l0.16,-0.024l0.087,0.049l0.031,0.149l0.105,0.129l0.05,0.18l0.297,0.291l0.451,0.278l0.13,0.019l0.05,0.043l-0.013,0.087l0.068,0.03l0.18,-0.012l0.835,0.186h0.21l0.291,0.086l0.087,0.093l0.296,0.149l0.236,0.266l0.111,0.47l0.142,0.21l0.378,0.285l0.228,0.068l0.069,0.08l-0.007,0.204l0.149,0.248l0.618,0.297l0.372,0.247l0.513,0.489l0.198,0.117l0.186,0.174l0.105,0.018l0.105,-0.037l0.161,0.093l0.062,0.161l0.365,0.309l0.204,0.08l0.08,0.093l-0.006,0.235l-0.077,0.164h-36.144l0.179,-0.522l0.322,-0.508l0.142,-0.145l0.018,-0.15l-0.104,-0.187l-0.149,-0.019l-0.278,0.18l-0.384,0.464l-0.241,0.612l-0.031,0.275h-41.808z"/>
</svg>
