<svg xmlns="http://www.w3.org/2000/svg" viewBox="1004.282 563.627 55.681 48.320">
  <path d="M1030.264804,563.626882h27.944h1.754v1.311v1.247v9.37h-22.011v17.912l-0.233,0.037l-0.538,0.195l-0.232,0.019l-1.475,0.723l-1.448,0.297l-2.803,1.794l-0.641,0.566l-0.025,0.493l-0.271,0.715l0.468,1.652l0.345,3.993l0.173,4.19h-25.906l-0.366,1.092l-0.025,0.278l-0.285,0.644l0.013,0.334l-0.118,0.464l-0.087,0.167l0.033,0.229l-0.005,0.125l-0.014,0.102l0.098,0.371l-0.038,-0.022l-0.058,-0.159l-0.105,-0.164l-0.09,-0.027l-0.037,-0.072l0.009,-0.074l0.136,-0.173v-0.139l-0.086,-0.149l-0.005,-0.06l0.042,-0.07l0.028,-0.12l0.13,-0.297l0.004,-0.608l0.116,-0.459l0.005,-0.093l-0.028,-0.07l0.019,-0.292l0.116,-0.473l0.013,-0.418l0.075,-0.232l0.032,-0.371l0.116,-0.367l0.019,-0.259l0.065,-0.2l0.004,-0.162l-0.032,-0.07l0.005,-0.181l0.06,-0.121v-0.222l-0.042,-0.116v-0.181l0.037,-0.102l0.153,-0.177l0.005,-0.074l-0.088,-0.088l-0.01,-0.135l0.047,-0.185l0.097,-0.167l0.163,-0.125l0.153,-0.242l0.014,-0.139l-0.019,-0.074l0.009,-0.093l0.079,-0.111l0.075,-0.186l0.004,-0.111l0.07,-0.167l0.102,-0.167l0.223,-0.682l0.078,-0.107l0.158,-0.046l0.047,-0.098l-0.005,-0.158l0.097,-0.125l0.242,-0.148l0.181,-0.265l0.116,-0.046l0.148,0.032l0.074,0.121l0.084,0.032l0.172,-0.023l0.389,-0.148l0.265,-0.163l0.051,-0.102v-0.171l0.028,-0.07l0.097,-0.093l0.111,-0.223l0.056,-0.38l0.065,-0.265l0.019,-0.097l0.069,-0.125l0.246,-0.139l0.139,-0.158l0.07,-0.181l-0.005,-0.098l0.037,-0.157l0.076,-0.158l0.016,-0.303l-0.019,-0.071l0.003,-0.127l0.025,-0.149l0.065,-0.191l0.071,-0.121l0.102,-0.124l0.09,-0.167l0.003,-0.08l-0.077,-0.078l-0.007,-0.083l0.078,-0.155l0.028,-0.093h0.024l0.028,0.038l0.068,0.003l0.384,-0.158l0.151,-0.127l0.226,-0.294l0.059,-0.207l0.003,-0.229l-0.077,-0.176l-0.124,-0.127l-0.105,-0.009l-0.084,0.04l-0.021,-0.022l0.031,-0.117l0.105,-0.167l0.111,-0.071l0.34,-0.458l0.01,-0.071l-0.031,-0.034l0.003,-0.05l0.105,-0.124l0.275,-0.454l-0.018,-0.121l0.021,-0.053l0.081,-0.043l0.321,-0.318l0.3,-0.567l0.004,-0.074l-0.065,-0.151l-0.056,-0.037l-0.003,-0.038l0.046,-0.043l0.158,-0.059l0.074,-0.089l0.044,-0.109l0.049,-0.046l0.065,-0.012l0.022,-0.034l0.009,-0.075l0.114,-0.201l0.031,-0.092l0.059,-0.069l0.102,-0.043l0.081,-0.124l0.03,-0.083l0.251,-0.337l0.121,-0.238l0.077,-0.075l0.065,-0.015l0.105,-0.111l0.053,-0.168l0.037,-0.046l0.071,-0.028l0.049,-0.062v-0.027h-0.065l-0.105,0.068l-0.034,-0.004l0.003,-0.077l0.053,-0.213l-0.04,-0.245l-0.053,-0.117l-0.031,0.003l-0.068,0.136l-0.031,0.003l-0.012,-0.052l0.043,-0.072l0.003,-0.061l-0.031,-0.01l-0.157,0.173l-0.041,0.112l-0.058,0.025l-0.072,-0.028l-0.105,0.046l-0.151,0.21l-0.139,0.149l-0.13,0.238l-0.047,0.136l-0.003,0.127l-0.08,0.226l-0.118,0.173l-0.009,0.05l-0.034,0.024l-0.053,0.013l-0.133,0.114l-0.034,0.077l-0.04,0.034h-0.065l-0.015,0.05l0.052,0.056l-0.02,0.02l-0.076,-0.045l-0.021,-0.099l0.051,-0.102l0.213,-0.223l0.028,-0.074l-0.005,-0.088l0.047,-0.088l0.111,-0.079l0.074,-0.139l0.019,-0.154l0.144,-0.278l0.195,-0.186l0.241,-0.301l0.575,-0.473l0.571,-0.288l0.478,-0.33l0.065,-0.129l0.018,-0.144l0.07,-0.093l0.144,-0.079l0.125,-0.139l0.023,-0.06l0.056,-0.07l0.083,-0.06l0.27,-0.339l0.296,-0.269l0.59,-0.432l0.25,-0.301l0.084,-0.153l0.287,-0.372l0.26,-0.236l0.139,-0.158l0.26,-0.162l0.501,-0.172l0.251,-0.13l0.111,-0.134l0.079,-0.237l0.014,-0.139l0.056,-0.093l0.209,-0.088l0.088,-0.051l0.06,-0.088l0.102,-0.079l0.102,-0.051l0.079,-0.107l0.009,-0.139l-0.021,-0.062l0.006,-0.195l0.074,-0.322l0.115,-0.219l0.043,-0.164l0.124,-0.282l0.009,-0.158l-0.025,-0.077v-0.139l0.05,-0.121l0.006,-0.244l0.031,-0.164l-0.006,-0.161l-0.044,-0.127l-0.083,-0.102l-0.003,-0.04l0.018,-0.059v-0.065l-0.04,-0.065v-0.061l0.028,-0.078l0.006,-0.25l-0.028,-0.099l-0.006,-0.17l0.124,-0.285v-0.13l-0.022,-0.062l0.003,-0.114l0.077,-0.13l0.013,-0.05v-0.074l0.022,-0.071l0.117,-0.226l0.003,-0.068l-0.015,-0.052l0.006,-0.075l0.151,-0.287l0.248,-0.288l0.232,-0.495l0.093,-0.337l-0.025,-0.05l0.003,-0.058l0.053,-0.075l0.106,-0.298l0.075,-0.33l0.111,-0.324l0.06,-0.112l0.195,-0.195l0.223,-0.338l0.023,-0.116l0.176,-0.283l0.209,-0.529l0.079,-0.348v-0.552l-0.056,-0.07l0.005,-0.088l0.19,-0.381l0.376,-0.487l0.116,-0.065l0.348,-0.051l0.172,-0.079l0.422,-0.334l0.339,-0.413l0.097,-0.213l0.074,-0.046l0.483,-0.033l0.352,-0.088l0.386,-0.176l0.194,-0.112l0.242,-0.227l0.144,-0.093l0.12,-0.028l0.13,-0.079l0.074,-0.078l0.139,-0.07l0.116,-0.033l0.418,-0.241l0.144,-0.12l0.158,-0.084l0.143,-0.06l0.395,-0.302l0.301,-0.325l0.14,-0.218l0.306,-0.654l0.125,-0.348l0.023,-0.199l0.14,-0.372l0.139,-0.25l0.148,-0.39l0.019,-0.107l-0.037,-0.065v-0.069l0.041,-0.102l0.07,-0.344l0.135,-0.236l0.129,-0.283l0.274,-0.422l0.283,-0.543l0.195,-0.613l0.181,-0.399l0.149,-0.519l0.004,-0.126l0.07,-0.209l0.074,-0.097l0.076,-0.187z"/>
</svg>
