<svg xmlns="http://www.w3.org/2000/svg" viewBox="1081.662 503.331 0.685 0.346">
  <path d="M1081.661658,503.368434l0.027,0.047l0.005,0.072l0.019,0.024l-0.005,0.042l0.035,0.052l0.039,0.005l0.028,0.015l0.009,0.022l0.035,0.015l0.015,-0.02l0.017,0.003l0.007,0.022l0.032,0.01l0.013,-0.04l0.019,-0.022l0.028,-0.003l0.022,0.013l0.027,-0.003l0.037,-0.061h0.047l0.034,0.017l0.047,-0.005l0.02,-0.02l0.024,-0.014h0.037l0.057,-0.04l0.01,-0.032l-0.037,-0.039l-0.03,-0.008l-0.054,0.027l-0.025,0.057l-0.059,0.027l-0.039,-0.002l-0.044,-0.04l0.004,-0.024l-0.022,-0.01l-0.052,0.042l-0.034,-0.003l-0.067,-0.089l-0.115,-0.074l-0.082,0.008l-0.029,0.029z"/>
</svg>
