<svg xmlns="http://www.w3.org/2000/svg" viewBox="1055.849 442.203 89.926 60.481">
  <path d="M1058.422204,454.968939l-0.012373,-0.089703l0.049491,-0.012373l0.123728,0.098982l-0.027839,0.037118l-0.095889,-0.00928l-0.037118,-0.024746Z M1058.375806,454.805l0.030932,0.024746l0.071144,-0.024746l0.052584,-0.108262l-0.037118,-0.126821l-0.092796,-0.064957l-0.024746,0.043305l0.046398,0.092796l0.00928,0.098982l-0.055678,0.064957Z M1058.289197,453.812082l0.021652,-0.049491l-0.037118,-0.027839l-0.046398,0.021652v0.058771l0.061864,-0.003093Z M1058.202587,453.7131l0.061864,-0.034025l0.06805,-0.225804l0.064957,-0.098982l-0.043305,-0.006186l-0.092796,0.040212l-0.083516,0.170126l-0.003093,0.105169l0.027839,0.049491Z M1057.757166,452.86247l0.07733,-0.024746l0.003093,-0.071144l-0.08661,-0.092796l-0.052584,0.018559l0.003093,0.133008l0.055678,0.037118Z M1058.725338,452.342812v-0.080423l0.07733,-0.133008l-0.006186,-0.092796l-0.102076,-0.055678l-0.083516,-0.015466l-0.055678,0.049491l0.015466,0.06805l0.08661,0.024746l0.024746,0.043305l-0.049491,0.074237l-0.003093,0.095889l0.040212,0.043305l0.055678,-0.021652Z M1058.845973,445.676966l0.095889,0.00928l0.037118,-0.037118l-0.034025,-0.052584h-0.114448l-0.012373,0.040212l0.027839,0.040212Z M1058.612436,452.727916l0.013919,-0.064957l-0.037118,-0.041758l-0.041758,0.037118l0.00928,0.078877l0.055678,-0.00928Z M1059.484719,453.307891l0.051038,-0.018559l0.013919,-0.041758l-0.055678,-0.018559l-0.041758,0.041758l0.032479,0.037118Z M1112.131159,489.960975l0.019931,-0.017222l-0.01744,-0.056587l-0.027405,-0.012302l-0.019931,0.012302l0.007474,0.046746l0.037371,0.027063Z M1121.09333,467.683449l0.037518,0.128714l0.272003,0.027582l0.365797,-0.183877l0.065656,-0.110326l-0.075035,-0.036775h-0.262624l-0.131312,0.091939l-0.196968,-0.018388l-0.075035,0.101133Z M1066.809447,442.369926l0.023199,0.032479l0.032479,-0.018559v-0.041758l-0.037118,-0.00464l-0.018559,0.032479Z M1068.071473,442.694712l0.00928,0.046398h0.037118l0.018559,-0.032479l-0.032479,-0.032479l-0.032479,0.018559Z M1116.247438,483.732769l0.014948,0.021979l0.027405,-0.009768l0.007474,-0.021979l-0.029897,-0.017095l-0.019931,0.026863Z M1111.886414,489.884367l0.003126,0.027787l0.037518,0.018525l0.025012,-0.0247l-0.012506,-0.033962l-0.037518,-0.01235l-0.015632,0.0247Z M1113.906633,486.321615l0.112553,0.004597l0.002198,-0.030167l-0.091303,-0.047981h-0.065656l-0.014069,0.036775l0.056277,0.036775Z M1112.5461,489.714557l0.018759,-0.040137l-0.034391,-0.021612l-0.028138,0.018525l0.006253,0.040137l0.037518,0.003087Z M1121.736883,472.707655l0.031265,-0.012258l0.009379,-0.027582l-0.025012,-0.006129l-0.025012,0.003065l-0.009379,0.036775l0.018759,0.006129Z  M1128.062163,479.548808l0.032381,0.004773l0.041633,0.047729l-0.009252,0.038183l-0.055511,-0.019092l-0.032381,-0.052502l0.02313,-0.019092Z M1125.086152,480.931351l0.006168,0.019092l0.080183,-0.01591l0.012336,-0.035001l-0.030839,-0.022273l-0.037007,0.019092l-0.030839,0.035001Z M1125.10774,480.221784h0.046259l0.01542,-0.025455l-0.033923,-0.01591l-0.052427,0.012728l0.003084,0.025455l0.021588,0.003182Z M1125.246517,480.059506l0.030839,-0.009546l0.003084,-0.028637l-0.024672,-0.003182l-0.01542,-0.022273l0.024672,-0.01591l0.006168,-0.050911l-0.030839,-0.01591l-0.037007,0.044547l0.006168,0.06682l0.037007,0.035001Z M1126.625043,481.602736l0.018504,-0.031819l0.021588,0.012728l0.012336,0.028637l0.027756,0.009546l-0.018504,-0.08273l-0.043175,-0.085912l-0.033923,0.012728l-0.012336,0.073184l0.006168,0.054093l0.021588,0.009546Z M1127.01362,481.52637l-0.003084,-0.054093l0.009252,-0.022273l-0.018504,-0.050911l-0.024672,0.006364l-0.012336,0.057275l0.030839,0.057275l0.018504,0.006364Z M1125.277357,480.1486l0.021588,-0.025455l-0.021588,-0.025455l-0.027756,0.006364l-0.003084,0.031819l0.030839,0.012728Z M1126.575699,481.319545l-0.003084,-0.038183l-0.021588,-0.009546l-0.01542,0.022273l0.024672,0.038183l0.01542,-0.012728Z M1125.261937,480.921806l0.009252,-0.022273l-0.021588,-0.022273l-0.030839,0.01591l-0.006168,0.022273l0.049343,0.006364Z M1126.392204,482.507991l-0.02313,0.090685l0.018504,0.062047l0.041633,0.004773l0.083267,-0.052502l0.106396,-0.119322l0.055511,-0.023864l0.041633,-0.090685l0.055511,-0.052502l0.180411,0.009546l0.231296,0.114549l0.097144,0.109776l0.111022,0.028637l0.235922,-0.004773l0.074015,-0.085912l-0.004626,-0.076366l-0.092518,-0.147959l-0.060137,-0.009546l-0.050885,0.062047l-0.1249,0.062047l-0.092518,-0.004773l-0.134152,-0.071593l-0.129526,-0.119322l-0.004626,-0.06682l-0.032381,-0.062047v-0.06682l-0.032381,-0.014319l-0.041633,0.042956l-0.097144,-0.071593l-0.055511,-0.109776l-0.041633,-0.181369h-0.018504l0.004626,0.114549l-0.013878,0.085912l-0.069389,0.081139l-0.120274,0.03341l-0.027756,-0.042956h-0.02313v0.042956l-0.078641,0.062047l-0.013878,0.03341l0.037007,0.038183l0.027756,0.085912l-0.013878,0.057275l-0.041633,0.019092l0.02313,0.119322l0.013878,0.114549Z M1125.309738,480.732482l-0.004626,0.076366l0.027756,0.052502l0.106396,0.03341l0.037007,0.10023l0.050885,-0.009546v-0.047729l0.058595,-0.095458l0.052427,-0.019092l0.138778,0.023864l0.041633,0.023864l0.004626,0.06682l0.037007,0.009546l0.041633,-0.042956l0.050885,0.014319l-0.009252,0.071593l0.037007,0.004773l0.037007,-0.071593l0.092518,-0.028637l0.106396,0.052502l0.060137,0.128868v0.071593l0.050885,0.028637l0.050885,-0.062047l0.060137,0.004773l0.063221,0.054093l0.027756,0.003182l-0.021588,-0.079548l0.004626,-0.235462l0.013878,-0.076366l0.064763,-0.111367l0.070931,-0.041365l0.072473,0.009546l0.013878,-0.03341l-0.032381,-0.023864l0.013878,-0.038183l0.055511,0.004773l0.046259,0.058865l0.030839,0.009546l-0.027756,-0.08273l0.043175,-0.014319l0.037007,0.030228l0.064763,-0.001591l0.074015,-0.095458l0.10177,-0.038183l0.046259,-0.090685l0.037007,-0.03341l0.067847,0.014319l0.033923,-0.042956l0.018504,-0.211597l0.046259,-0.057275l0.120274,-0.050911l0.115648,0.014319l0.041633,-0.004773l-0.009252,-0.085912l0.041633,-0.085912l0.115648,-0.10023l0.097144,0.009546l0.032381,-0.057275l-0.018504,-0.047729l-0.050885,0.009546l-0.041633,-0.009546l-0.013878,-0.06682l-0.066305,-0.058865l-0.040091,-0.089094l0.02313,-0.062047l0.060137,-0.004773l0.024672,-0.031819l-0.029298,-0.044547l0.004626,-0.063638l-0.032381,-0.027046l-0.1249,-0.028637l-0.087893,0.023864h-0.060137l-0.092518,-0.090685l0.009252,-0.062047l-0.060137,-0.03341l-0.060137,0.028637l-0.092518,0.011137l-0.021588,0.028637l-0.003084,0.060456l-0.055511,0.019092l-0.030839,-0.071593l-0.055511,-0.009546l-0.018504,0.046138l-0.074015,0.030228l-0.120274,0.038183l-0.032381,0.057275l-0.060137,0.028637l-0.069389,-0.052502l-0.055511,0.019092l-0.02313,0.085912l-0.087893,0.023864l-0.046259,-0.03341l-0.069389,0.004773l-0.032381,0.081139l-0.041633,0.038183l-0.046259,-0.009546l-0.02313,-0.076366l-0.050885,0.004773l-0.009252,0.047729l-0.060137,0.023864l-0.038549,0.070002l-0.095602,0.01591l-0.027756,0.042956l-0.175785,0.114549l-0.032381,0.062047l0.032381,0.052502v0.085912l-0.055511,0.062047l-0.004626,0.071593l0.129526,0.085912l0.009252,0.062047l-0.050885,0.028637l-0.050885,-0.023864l-0.069389,-0.023864l-0.092518,0.038183l-0.138778,0.009546l-0.10177,-0.009546l-0.086351,0.085912l0.01542,0.035001l0.084809,0.103412l0.009252,0.062047l-0.121816,0.190915l-0.012336,0.095458l0.060137,0.042956Z M1136.433046,478.78607l0.092518,0.093221l0.166533,0.018644l0.14803,-0.195765l-0.046259,-0.083899l-0.120274,-0.018644l-0.203541,0.083899l-0.037007,0.102543Z M1136.70135,478.487762l0.074015,0.037288l0.074015,-0.083899l-0.027756,-0.037288l-0.092518,0.027966l-0.027756,0.055933Z M1132.389989,475.458072l0.063208,0.002849l0.149584,-0.105392l0.054413,-0.085205l-0.007418,-0.024292l-0.084002,0.025598l-0.129526,0.083899l-0.055377,0.075495l0.009118,0.027049Z M1132.769315,475.57926l0.085808,0.039905l0.034466,0.030098l0.046259,0.102543l0.027756,0.060507l0.056967,0.022586l0.035551,-0.013264l0.015648,-0.075843l0.046545,-0.042208l0.076585,0.02483v0.074577l0.074015,0.018644l0.110051,-0.071153h0.055854l0.046887,0.089797l-0.037578,0.140004l0.027927,0.056278l0.083666,0.064737l0.037007,0.121188l0.175785,0.111865l0.085208,0.025808l0.016562,-0.016486v-0.111865l0.074015,-0.093221v-0.223731l0.055511,-0.102543l0.2498,-0.037288l0.083267,-0.037288l0.009252,-0.102543l0.083267,-0.027966l0.064763,0.046611l0.083267,-0.009322l-0.009252,-0.074577l0.064763,-0.055933l0.175785,0.009322l0.259052,0.186442l0.111022,0.046611l0.157281,0.149154l0.009252,0.102543l-0.138778,0.139832l-0.027756,0.102543l0.157281,0.242375l-0.046259,0.158476l0.074015,0.195765l0.14803,0.083899l0.092518,0.13051l0.259052,0.046611l0.120274,-0.037288h0.268304l0.185037,0.074577 l0.092518,-0.065255l0.16739,-0.002417l0.148943,0.056278l0.081496,0.132581l-0.027756,0.121188l0.064763,0.065255l0.074015,-0.009322l0.083267,0.083899l0.027756,0.102543l0.183186,0.176188l0.057847,0.021763l0.110537,-0.020831l0.2498,-0.298308l0.185037,-0.13051l0.138835,-0.005265l0.073958,-0.041345l0.102913,-0.122799l0.082124,-0.044999l0.138778,-0.027966l0.138778,-0.121188l0.129526,-0.251697l0.10177,-0.139832l0.018504,-0.335596l0.138778,-0.288986l0.231296,-0.242375l0.166533,-0.111865l0.083267,-0.074577l0.027756,-0.121188l0.203541,-0.027966v-0.037288l-0.092518,-0.027966l-0.055511,-0.065255l0.10177,-0.279664l0.074015,-0.046611l0.094486,0.025388l0.064794,-0.003348l0.04426,-0.031361l-0.018504,-0.074577l0.037007,-0.065255l0.083267,-0.027966l0.016876,-0.040022l-0.044632,-0.146421l0.046259,-0.195765l0.120274,-0.027966l0.022387,-0.028484l-0.003883,-0.036771l-0.120274,-0.009322l-0.048058,-0.014875l-0.016705,-0.031735l0.046259,-0.083899l0.007681,-0.062579l-0.037236,-0.023449l-0.118475,0.011451l-0.222044,-0.121188l-0.194289,-0.074577l-0.175785,-0.139832l-0.092518,0.018644v0.121188l-0.064763,0.093221l-0.397829,0.214409l-0.231296,-0.009322l-0.388578,-0.195765l-0.2498,-0.205087l-0.111022,-0.205087l0.002941,-0.136494l0.034066,-0.05927l0.092518,-0.018644l0.074015,0.046611l0.064706,0.003165l0.074072,-0.049776l0.126071,-0.07216l0.031211,-0.067672l-0.018504,-0.139832l0.074015,-0.13051l-0.037007,-0.009322l-0.10177,0.093221l-0.407081,0.149154l-0.166533,-0.018644l-0.063192,-0.054609l-0.038578,-0.187766l0.029269,-0.060795l0.065163,-0.042208l0.109109,-0.008862l0.111022,-0.055933l0.037007,-0.065255l0.064763,-0.018644l0.092518,0.027966l0.231296,-0.102543l0.166533,-0.121188l0.011593,-0.054178l-0.030097,-0.029721l-0.14803,0.037288l-0.083267,-0.037288l-0.222044,0.074577l-0.120274,0.102543l-0.18755,0.096472l-0.116362,0.028139l-0.084666,-0.012746l-0.04566,-0.052912l-0.060515,-0.021665h-0.125121l-0.175785,0.074577l-0.120274,0.111865l-0.120274,0.009322l-0.074015,-0.055933h-0.083267l-0.092518,0.111865l-0.222044,0.046611l-0.323815,0.233053l-0.185037,0.074577l-0.10177,-0.027966l-0.126156,0.006474l-0.088435,0.075037l-0.016705,0.095609l-0.092518,0.065255h-0.10177l-0.462592,0.288986l-0.055511,0.149154l-0.194289,0.111865l-0.175785,0.205087l-0.314563,0.223731l-0.203541,0.027966l-0.231296,0.139832l-0.166533,0.214409l-0.286807,0.139832l-0.111022,0.074577l-0.2498,0.121188l-0.120274,0.13051l-0.027756,0.17712l0.074015,0.13051Z M1142.554684,472.69963l0.11719,0.024672l0.345402,-0.018504l0.086351,-0.061679l0.259052,-0.018504l0.296059,0.104854l0.092518,-0.006168l0.077013,0.013985l0.293061,0.195724l0.092518,0.111022l0.064742,0.038849l0.243653,0.084509l0.447537,0.289013l0.295877,0.129281l0.101588,0.013459l0.141862,-0.037007l0.098686,-0.123358l0.049343,-0.26522l-0.11719,-0.135694l-0.129526,-0.043175l-0.074015,-0.049343l0.031332,-0.012571l0.11053,0.018739l0.14803,0.061679l0.043175,-0.012336l-0.024672,-0.080183l-0.14441,-0.19037l-0.028291,-0.068682l0.017818,-0.053498l-0.017818,-0.045188l-0.065962,-0.056046l-0.069732,-0.116655l0.006168,-0.222044l-0.03418,-0.055768l-0.08029,-0.013963l-0.126078,0.020388l-0.114791,-0.076242l-0.025985,-0.045207l-0.005433,-0.1049l-0.031418,-0.04189l-0.044417,0.009188l-0.043175,0.074015h-0.061679l-0.061679,-0.080183l0.029426,-0.146145l-0.04189,-0.069817l-0.104726,-0.055425l-0.048872,0.010044l-0.013963,0.048872l0.031996,0.052106l-0.012336,0.154197l-0.023151,0.031075l-0.069367,0.024436l-0.031867,-0.034909l0.002499,-0.045813l0.05404,-0.122819l-0.012336,-0.049343l-0.03024,-0.00544l-0.062279,0.042447l-0.030839,0.080183l-0.049343,0.012336l-0.021609,-0.023258l-0.017454,-0.101235l0.02056,-0.165398l-0.030839,-0.074015l-0.038592,-0.011929l-0.023087,0.030433l0.012336,0.098686l-0.092518,0.129526l-0.092219,0.048551l-0.043475,-0.005375l-0.098686,-0.067847l-0.080183,-0.006168l-0.252884,0.074015l-0.11719,-0.006168l-0.080183,-0.049343l-0.197373,0.012336l-0.055511,0.074015h-0.061679l-0.086351,-0.074015l-0.419417,0.030839l-0.111022,0.061679l-0.067847,0.129526l-0.098686,0.111022l-0.009852,0.099479l0.046859,0.030047l0.123358,0.012336l0.080183,0.037007l0.024672,0.222044l-0.080183,0.246716l0.025036,0.06275l0.038231,0.00993l0.060091,-0.017169Z M1145.521443,473.692662h0.061679l0.006168,-0.043175l-0.061679,-0.018504l-0.049343,0.037007l0.043175,0.024672Z M1145.502939,472.452914l-0.006168,-0.055511l-0.030839,-0.018504l-0.037007,0.049343l0.043175,0.049343l0.030839,-0.024672Z M1145.749655,473.112879l0.024672,-0.043175l-0.049343,-0.018504l-0.055511,0.024672l0.037007,0.043175l0.043175,-0.006168Z  M1059.275971,457.127993l0.188,-0.152l0.037,-0.198l0.087,-0.12l0.351,-0.158l0.13,-0.111l0.037,-0.226l0.12,-0.136l0.243,-0.066l0.157,0.052l0.267,-0.067l0.114,-0.139l0.393,-0.055l0.205,0.077l0.265,-0.025l0.081,-0.093l0.08,-0.018l0.12,0.049l0.111,-0.031l0.148,-0.154l0.337,-0.201l0.16,-0.01l0.111,-0.12l0.056,-0.016l0.04,0.099l-0.025,0.232l0.037,0.34l0.08,0.034l0.182,-0.12l0.099,0.025l0.12,-0.047l0.148,0.081l0.071,0.136l-0.003,0.287l-0.092,0.084l-0.201,0.025l-0.061,0.043l-0.022,0.105l-0.059,0.043h-0.105l-0.043,0.041l-0.009,0.123l-0.284,0.393l-0.003,0.105l0.071,0.037l0.049,0.059l0.007,0.096l0.055,0.028l0.139,-0.034l0.046,0.068l-0.015,0.396l0.228,0.09l0.296,-0.022l0.216,-0.074l0.087,-0.078l0.163,-0.037l0.037,-0.117l0.167,-0.198l0.142,-0.019l0.092,0.028l0.124,-0.034l0.138,-0.393l0.111,0.019l0.019,0.371l-0.025,0.133l0.08,0.099l0.053,-0.003l0.142,-0.108l0.062,-0.149l0.33,-0.018l0.104,-0.118h0.09l0.065,0.065l0.08,-0.006l0.13,-0.127l0.104,0.006l0.278,0.207l0.191,0.022l0.229,-0.046l0.055,0.052l-0.123,0.124l-0.102,0.238l0.04,0.043l0.105,-0.031l0.167,0.019l0.373,-0.139l0.021,-0.053l-0.037,-0.089l0.09,-0.053l0.108,0.062l0.166,-0.022l0.074,0.056l-0.018,0.13l0.126,0.086l-0.012,0.167l0.065,0.034l0.151,-0.129l0.059,-0.167l0.139,-0.053l0.107,0.059l0.246,0.004l0.388,-0.204l0.181,-0.009l0.204,-0.107l0.12,-0.287l-0.042,-0.219l-0.004,-0.258l0.08,-0.04l0.055,0.022l0.074,-0.007l0.031,-0.086l0.108,-0.009l0.265,0.123l0.127,0.18l0.398,0.01l0.125,-0.148l0.19,-0.009l0.152,0.19l0.334,0.051l0.081,-0.045l0.087,-0.006l0.132,0.031l0.121,-0.022l0.098,-0.198l-0.021,-0.154l0.274,0.052l0.114,0.303l0.179,0.068l0.247,0.019l0.491,-0.065l0.157,-0.182l0.25,0.157l0.025,0.112l-0.148,0.38l0.327,0.071l0.018,0.053l-0.065,0.111l-0.043,0.306l-0.16,0.492l-0.068,0.04l-0.009,0.065l0.092,0.062l0.08,0.276l-0.024,0.027l-0.059,-0.015l-0.012,0.052l0.086,0.109l0.259,0.179l0.124,0.003l0.169,-0.077l0.031,-0.108l0.065,-0.022l0.089,0.033l0.347,0.035l0.179,-0.01l0.344,0.118l0.266,0.195l0.142,0.239l0.214,0.076l0.069,0.163l-0.14,0.153l-0.063,0.177l-0.307,0.408l0.039,0.156l-0.103,0.112l-0.103,0.016l-0.019,0.059l0.09,0.078l-0.004,0.103l-0.205,0.047l-0.17,-0.081l-0.119,0.05l0.006,0.102l0.078,0.066l-0.013,0.084l-0.228,0.028l-0.071,0.1l0.035,0.106l-0.218,0.197l-0.119,-0.003l-0.119,0.059l0.023,0.153l-0.161,0.075l-0.054,-0.085h-0.068l-0.186,0.222l-0.481,-0.006l-0.225,0.087l-0.214,0.223l-0.149,0.285l-0.395,0.305l-0.019,0.098l0.096,0.187l-0.182,0.35l-0.307,0.196l-0.423,0.025l-0.189,-0.07l-0.139,0.07l0.009,0.145l0.481,0.519l0.047,0.356l0.25,0.183l0.05,0.243l-0.139,0.056l-0.019,0.074l0.066,0.179l-0.006,0.142l-0.068,0.09l0.003,0.321l0.111,0.241l0.086,0.433l-0.138,0.372l-0.142,0.137l0.006,0.187l0.228,0.106l0.031,0.349l-0.333,0.4l0.086,0.399l0.338,0.314l0.005,0.077l-0.055,0.062v0.179l-0.073,0.057l-0.145,0.035l-0.224,0.164l0.006,0.204l-0.092,0.115l-0.207,0.041l-0.13,-0.044l-0.145,0.019l-0.08,0.15l-0.08,0.012l-0.093,-0.025l-0.16,0.106l-0.034,0.212l-0.074,0.088l0.005,0.054l0.069,0.058l0.037,0.318l0.154,0.119l0.247,0.028l0.154,0.115l0.09,0.234l0.142,0.122l0.135,0.299l0.007,0.153l-0.09,0.209v0.216l-0.028,0.077l-0.083,0.029l-0.028,0.09l0.053,0.131l-0.019,0.212l-0.062,0.103l-0.114,0.059l-0.111,0.188l-0.169,0.053l-0.111,0.152l0.067,0.263l-0.061,0.065l-0.043,0.218l0.024,0.057l-0.055,0.118l-0.096,0.309l-0.312,0.106l-0.163,-0.041l-0.241,-0.003l-0.16,0.078l-0.355,-0.065l-0.133,0.009l-0.188,-0.043l-0.139,0.009l-0.382,0.187h-0.077l-0.201,-0.069l-0.061,-0.003l-0.118,0.035l-0.114,-0.013l-0.203,-0.097l-0.528,-0.062l-0.078,0.009v0.033l0.091,0.057v0.189l0.111,0.116l0.111,0.227l0.137,0.054l0.131,0.122l0.041,0.139l0.111,0.072l0.175,0.005l0.091,0.068l0.014,0.261l0.14,0.084l0.113,-0.012l0.325,0.176v0.06l-0.061,0.057l-0.008,0.109l0.042,0.08l-0.01,0.099l-0.135,0.179l0.002,0.06l0.081,0.067l0.037,0.167l-0.029,0.057v0.045l0.251,0.194l0.019,0.084l0.241,0.172l-0.098,0.191l0.032,0.112l-0.003,0.234l0.133,0.141l0.561,0.157l0.024,0.099l-0.098,0.284l0.027,0.114l0.228,0.068l0.114,-0.07l0.253,-0.077l0.162,0.009l0.331,0.231l0.13,0.25l-0.052,0.131l0.086,0.112l-0.086,0.113l-0.127,0.243l-0.24,0.299l-0.053,0.15l-0.139,0.097l0.108,0.221l-0.031,0.106l-0.188,0.088l-0.129,0.246l-0.071,0.047l-0.182,-0.003l-0.192,0.162l-0.071,0.122l-0.185,0.103l-0.024,0.075l-0.204,0.149l-0.108,0.013l-0.093,0.1l-0.049,0.184l-0.031,0.452l0.04,0.084l0.115,0.013l0.024,0.059l-0.099,0.094l-0.043,0.149l-0.236,0.347l-0.14,0.471l0.052,0.034l0.088,-0.033l0.042,0.052l-0.236,0.234l0.014,0.056l0.106,0.014l0.232,0.136l0.051,0.206l0.444,0.477l0.222,0.351l0.116,0.051l0.046,0.122v0.131l0.264,0.459l0.138,0.07l0.371,-0.089l0.125,-0.141l0.398,-0.112l0.087,0.084l-0.06,0.113l-0.106,0.07l-0.065,0.15l0.056,0.126l-0.084,0.313l-0.111,0.085l-0.004,0.318l-0.07,0.061l-0.041,0.182l-0.139,-0.009l-0.134,0.061l-0.093,-0.024l-0.074,-0.117l-0.171,-0.065l-0.195,0.098l0.017,0.151l-0.046,0.063l-0.222,0.065l-0.151,-0.065l-0.114,0.009l-0.105,0.084l-0.127,-0.006l-0.132,0.075l-0.003,0.069l0.076,0.076l-0.054,0.286l-0.131,0.216l-0.015,0.171l-0.253,0.408l-0.311,0.206l-0.198,0.2l-0.086,0.006l-0.074,0.078l-0.209,0.786l-0.092,0.084l-0.13,0.262l-0.106,0.005l-0.019,0.051l0.061,0.056l-0.065,0.216l-0.088,0.042l0.037,0.229l0.129,0.052l0.176,0.22l0.074,0.29v0.196l0.084,0.052v0.056l-0.107,0.028v0.056l0.134,0.084l0.037,0.295l-0.05,0.056l0.004,0.253l0.136,0.271v0.088l-0.066,0.057l0.001,0.092l0.124,0.128l0.03,0.206l0.068,0.128l0.142,-0.006l0.228,-0.056l0.244,-0.136l0.522,-0.059l0.845,-0.024l0.558,0.086l0.611,0.3l0.747,0.242l0.863,0.439l1.051,0.731l0.534,0.575l0.354,0.786l0.167,0.057l0.124,-0.032l0.025,-0.07l-0.065,-0.165l0.042,-0.191l0.018,0.191l0.086,0.171l-0.068,0.135l-0.394,0.188l-0.084,0.091l-0.126,0.086l-0.023,0.159l0.302,0.527l0.019,0.124l0.205,0.13l0.2,-0.058l0.284,0.091l0.097,0.11l0.047,0.116l0.093,0.028l0.074,-0.057l0.075,0.024l0.032,0.167l-0.055,0.226l-0.103,0.072l0.047,0.076h0.172l0.177,-0.105l0.084,0.053l-0.056,0.158l-0.228,0.191l-0.191,-0.004l-0.098,-0.144l0.028,-0.12l-0.112,-0.168l-0.162,-0.038l-0.028,0.053l0.088,0.048l0.27,0.546l0.112,0.11l0.083,0.283l0.07,0.086l0.144,0.062l0.135,0.168l0.089,0.336l0.135,0.115l0.144,0.024l0.144,0.124l0.228,0.513l0.191,0.153l0.307,0.044l0.247,-0.068l0.223,0.034l0.41,0.316l0.265,0.413l0.088,0.033l0.089,-0.053l0.102,0.024l0.065,0.087l0.28,0.091l0.167,-0.029l0.289,0.129l0.135,0.144l0.046,0.12l0.186,0.043l0.363,-0.206l0.144,-0.019l0.173,-0.11l0.2,-0.02l0.228,-0.172l-0.028,-0.053l-0.084,-0.048l0.023,-0.201l0.1,-0.053l-0.002,-0.051l-0.126,-0.067l-0.003,-0.157l0.078,-0.108l0.152,-0.061l0.126,0.024l0.021,0.052l0.069,0.048l0.055,-0.005l0.091,0.074h0.042l0.04,0.02l0.046,-0.219l0.154,-0.403l0.116,-0.091l0.107,-0.273l0.172,-0.163l0.098,-0.158l0.079,-0.297l0.298,-0.307l0.172,-0.058l0.088,-0.081l0.238,-0.067l0.177,-0.101l0.265,-0.072l0.288,-0.038l0.424,-0.264l0.26,-0.048l0.331,0.024l0.614,0.139l0.33,-0.028l0.135,-0.087l0.256,-0.052l0.089,-0.072l0.051,-0.211l0.084,-0.115l0.158,-0.096l0.26,-0.043l0.247,-0.168l0.191,-0.326l0.163,-0.158l0.144,-0.278l0.116,-0.101l0.256,-0.028l0.238,0.057l0.749,0.024l0.754,-0.11l0.135,-0.086l0.083,-0.072l0.214,-0.019l0.368,0.091l0.168,0.076h0.093l0.265,-0.105l0.219,-0.019l0.2,-0.072l0.321,0.024l0.149,0.124h0.097l0.07,-0.033l0.056,0.005l0.051,0.091h0.065l0.075,-0.053l0.223,0.014l0.163,-0.095l0.377,0.019l0.121,0.11l0.195,0.057l0.149,-0.038l0.172,0.053l0.094,0.11l0.237,0.062l0.245,-0.018l0.151,-0.094l0.233,-0.074l0.2,-0.153l0.289,-0.025l0.115,-0.11h0.177l0.126,0.053l0.265,-0.024l0.084,0.038h0.134l0.121,-0.072l0.61,0.01l0.168,0.057l0.251,-0.009l0.149,-0.067l0.167,0.004l0.21,0.12l0.172,0.254l0.112,0.024l0.111,-0.057l0.163,0.009l0.214,0.168l0.461,-0.019l0.363,-0.139l0.256,-0.307l0.065,-0.254l0.242,-0.292l0.447,-0.139l0.232,0.014l0.121,0.106l0.145,0.004l0.125,-0.119l0.205,-0.082l0.312,0.048l0.353,0.259l0.424,0.561l0.139,0.038l0.312,-0.058l0.233,-0.244l0.112,-0.024l0.116,-0.12l0.042,-0.196l0.205,-0.202l0.162,-0.028l0.047,-0.096l-0.056,-0.23l0.13,-0.163l0.131,-0.029l0.046,-0.058l0.014,-0.095l0.103,-0.091l0.209,-0.024l0.065,-0.106l-0.023,-0.215l0.179,-0.376l0.068,-0.296l-0.019,-0.182l0.061,-0.154l0.079,-0.066l0.052,-0.177l-0.01,-0.192l0.192,-0.416l0.145,-0.079l0.159,-0.248l0.281,-0.247l0.177,-0.337l0.159,-0.023l0.071,-0.051l0.089,-0.108l0.261,-0.201l0.178,-0.014l0.314,-0.196l0.084,-0.005l0.084,0.061l0.07,-0.033l0.023,-0.219l0.103,-0.206l0.183,-0.126l0.187,-0.033l0.084,-0.046l0.075,-0.141l0.201,-0.172l0.201,-0.061l0.332,0.042l0.103,-0.038l0.019,-0.07l0.107,-0.042l0.3,0.024l0.121,0.06l0.033,0.127l0.075,0.042l0.304,0.046l0.028,-0.032l-0.093,-0.084l0.018,-0.075l0.211,-0.112l0.168,-0.028l0.159,0.009l0.094,0.061l0.06,-0.024l0.043,-0.074l0.145,0.004l0.173,0.089l-0.01,0.047h-0.093l-0.005,0.042l0.103,0.033l0.285,-0.01l0.258,-0.135l0.196,-0.028l0.154,0.004l0.281,-0.107l0.388,-0.075l0.14,-0.173l0.005,-0.14l-0.126,-0.196l-0.089,-0.257v-0.192l0.033,-0.168l-0.061,-0.061l-0.014,-0.065l0.021,-0.052l-0.004,-0.038l-0.075,-0.032l-0.025,0.016l0.041,0.185l0.047,0.061l-0.028,0.168l0.009,0.206l0.075,0.243l0.075,0.117l-0.029,0.084l-0.116,0.004l-0.375,-0.163l-0.336,-0.402v-0.14l0.079,-0.159l0.122,-0.033l0.145,-0.182l0.009,-0.182l0.103,-0.094h0.061l0.109,0.187l0.047,-0.021l-0.063,-0.334v-0.177l0.046,-0.217l0.048,-0.077l0.106,-0.022l0.035,-0.045l0.03,-0.146l0.167,-0.176l0.201,-0.045l0.094,-0.163l-0.031,-0.411l0.081,-0.866l0.124,-0.278l0.163,-0.118l0.243,-0.024l0.243,0.024l0.119,-0.086l-0.094,-0.637l0.044,-0.248l0.124,-0.166l0.237,-0.137l0.275,-0.012l0.056,-0.043v-0.254l0.156,-0.284l0.642,-0.421l0.767,-0.247l0.1,-0.093l0.131,-0.037l0.212,0.068l0.15,-0.037l0.168,-0.216l-0.044,-0.155l0.306,-0.346l0.143,-0.037l0.181,0.024l0.275,-0.105l0.093,-0.179l0.331,-0.155l0.056,0.037l0.056,-0.037l0.037,-0.111l0.281,-0.216l0.15,-0.013l0.037,-0.111l-0.324,-0.309l0.019,-0.05l0.081,-0.018v-0.081l-0.505,-0.303l-0.412,-0.136l-0.218,-0.006l-0.331,-0.117l-0.362,-0.297l-0.442,-0.507l-0.381,-0.637l-0.237,-0.625l0.019,-0.21l0.075,-0.031l0.031,-0.074l-0.193,-0.303l-0.318,-0.68l-0.237,-0.748l0.031,-0.062l0.1,-0.019l0.018,-0.222l-0.062,-0.174l0.019,-0.303l0.131,-0.222l0.106,-0.105l0.099,-0.198l0.032,-0.21l0.143,-0.149h0.143l0.075,-0.105l-0.037,-0.161l0.093,-0.383l0.724,-1.045l0.187,-0.124l0.306,-0.321l0.392,-0.9l0.244,-0.195l0.252,-0.056l0.187,-0.222l0.187,-0.464l0.262,-0.325l0.253,-0.083l0.121,-0.139l0.038,-0.195l0.093,-0.13l0.225,-0.074l0.514,-0.705l0.075,-0.288l0.632,-0.899l0.163,-0.422l0.314,-0.343l0.21,-0.116l0.351,-0.038l0.187,-0.078l0.426,-0.037l0.669,-0.334l0.117,-0.249l-0.056,-0.149l-0.122,-0.037l-0.047,0.059l-0.115,-0.003l-0.203,-0.238l-0.14,-0.21l-0.228,-0.062l-0.05,0.043l0.038,0.053l0.159,0.037l0.081,0.083l-0.038,0.04l-0.202,-0.027l-0.209,-0.118l-0.038,-0.158l0.091,-0.102l0.195,-0.131l0.043,-0.111l0.137,-0.118l0.169,-0.086l0.436,-0.576l0.325,-0.309l0.115,-0.043l0.117,-0.204l0.281,-0.223l0.355,-0.162l0.295,-0.028l0.178,-0.06l0.173,0.014l0.14,0.106l0.07,-0.018l0.084,-0.176l0.192,-0.156l0.137,0.006l0.131,-0.068l0.063,-0.087l0.324,-0.074l0.455,-0.019l0.15,-0.043l0.199,-0.136l0.512,-0.185l0.916,-0.124l0.25,-0.068l0.162,-0.093l0.237,-0.062l0.218,-0.018l0.474,-0.112l0.169,-0.092l0.393,-0.112l0.748,-0.068l0.549,-0.198l0.217,-0.16l0.119,-0.284l0.244,-0.374l0.131,-0.28l0.162,-0.162l0.698,-0.243l0.518,-0.361l0.63,-0.324l0.73,-0.299l0.374,-0.1l0.411,-0.224l0.113,-0.187l0.367,-0.218l0.343,-0.038l0.331,-0.205l0.125,-0.218l0.231,-0.162l0.174,-0.038l0.193,-0.168l0.082,-0.218l0.218,-0.193l0.231,-0.037l0.243,-0.15l0.218,-0.28l0.05,-0.224l0.081,-0.106l-0.019,-0.144l-0.118,-0.081l-0.088,-0.305l0.019,-0.212l0.066,-0.132l-0.166,-0.335l-0.286,-0.087l-0.15,-0.212l-0.031,-0.386l0.106,-0.312l0.237,-0.187l0.087,0.025l0.062,0.106l0.211,0.117l0.093,-0.014l0.038,-0.089l0.28,-0.014l0.089,-0.121l0.042,-0.29l0.173,-0.112l-0.014,-0.075l-0.322,-0.117l-0.103,0.033l-0.07,-0.009l-0.061,-0.094h-0.164l-0.084,0.08l-0.084,-0.01l-0.01,-0.098l-0.154,-0.182l-0.001,-0.221l0.062,-0.167l0.005,-0.06l-0.192,0.052l-0.134,-0.014l-0.095,0.006l-0.056,0.081l-0.113,-0.006l-0.233,-0.217v-0.136l-0.095,-0.043l-0.094,0.068l-0.101,-0.044l-0.094,-0.012l-0.113,0.031l-0.12,-0.08l-0.126,0.031l-0.069,0.142l-0.138,-0.013l-0.177,-0.055l-0.107,0.074l-0.119,-0.006l-0.264,0.278l-0.183,0.037l-0.164,-0.062l-0.188,0.025l-0.158,0.112l-0.144,0.018l-0.076,0.118l-0.012,0.161l0.113,0.111l-0.019,0.093l-0.139,0.018l-0.276,-0.043l-0.214,-0.093l-0.126,0.025l-0.076,0.117l-0.126,0.062l-0.346,-0.086l-0.302,-0.248l0.019,-0.111l-0.069,-0.056h-0.182l-0.34,-0.093l-0.082,-0.092l-0.189,-0.068l-0.101,0.024l-0.22,-0.105l-0.088,0.006l-0.044,0.068l-0.277,0.087l-0.242,-0.077l-0.264,0.086l-0.107,0.235l-0.203,0.161l-0.471,0.068l-0.295,-0.198l-0.081,-0.422l-0.151,-0.139l-0.288,-0.033l-0.453,-0.264l-0.509,-0.037l-0.082,-0.054l-0.098,0.082l-0.07,0.018l-0.057,-0.055l-0.194,0.037l-0.014,0.143l-0.066,0.052l-0.373,0.018l-0.08,0.097l-0.056,0.014l-0.052,-0.06l-0.048,0.014l-0.028,0.144l-0.061,0.06l-0.222,0.028l-0.104,-0.037l-0.283,-0.028l-0.08,-0.07l-0.01,-0.194l-0.056,-0.093l-0.095,-0.005l-0.061,-0.037l0.024,-0.046l0.245,-0.033l0.094,-0.088v-0.088l-0.075,-0.153l-0.095,-0.037l-0.151,0.051l-0.023,-0.019l0.066,-0.139l0.132,-0.084l-0.014,-0.055l-0.066,-0.014l-0.014,-0.098l0.091,-0.133l-0.109,-0.15l-0.051,-0.208l-0.145,-0.144l-0.014,-0.13l-0.098,-0.079h-0.08l-0.074,-0.056l-0.014,-0.125l-0.178,-0.056l-0.295,0.079l-0.172,-0.009l-0.038,-0.06l-0.121,-0.033l-0.098,0.06l-0.155,0.019l-0.176,0.066l-0.18,-0.142l-0.019,-0.185l-0.156,-0.174l-0.218,-0.092l-0.187,0.012l-0.262,-0.074l-0.112,0.031l-0.087,-0.019l-0.081,-0.117h-0.094l-0.099,0.117l-0.075,0.006l-0.1,-0.049l-0.099,-0.112l-0.169,-0.049l-0.043,-0.068l-0.374,-0.111l-0.156,0.018l-0.249,-0.074l-0.063,-0.093l-0.193,-0.056l-0.237,0.075l-0.081,0.154l0.063,0.081l0.012,0.154l-0.099,0.044l-0.044,0.117l0.087,0.05l-0.012,0.055l-0.069,0.019l-0.019,0.08l0.094,0.062l0.112,0.173l0.013,0.161l-0.081,0.099l-0.443,-0.086l-0.125,0.024l-0.336,-0.031l-0.162,0.062l-0.199,-0.049l-0.256,0.068l-0.231,-0.056l-0.18,-0.179h-0.144l-0.162,0.117l-0.049,0.13l-0.113,0.099h-0.093l-0.131,-0.117l-0.093,-0.211l-0.225,-0.031l-0.237,-0.111l-0.105,0.006l-0.081,0.087l-0.331,0.093l-0.099,-0.062l-0.099,0.023l-0.051,0.097l-0.15,0.042l-0.163,-0.037l-0.07,0.019l-0.052,0.083l-0.135,0.028l-0.285,-0.088l-0.033,-0.102l-0.056,-0.07l-0.243,-0.042l-0.023,-0.116l-0.211,-0.264l-0.05,-0.161l-0.062,-0.037l-0.093,0.068l-0.106,-0.006l-0.203,-0.091l-0.117,-0.149l-0.292,-0.136l-0.166,-0.077l-0.098,0.069l-0.146,0.006l-0.112,0.161l-0.156,0.093l-0.168,-0.006l-0.2,0.043l-0.209,-0.083l-0.163,-0.13h-0.056l-0.095,0.096v0.111l-0.05,0.05l-0.062,-0.007l-0.097,0.098l-0.09,-0.036l0.018,-0.142l-0.068,-0.031l-0.1,0.031l-0.062,-0.031l-0.038,-0.198l-0.274,-0.179l-0.112,-0.161l-0.106,-0.056l-0.125,0.025l-0.205,-0.136l-0.011,-0.112l0.037,-0.097l-0.032,-0.156l-0.131,-0.173l-0.239,0.013l-0.14,0.098l-0.364,0.014l-0.155,-0.033l-0.042,-0.055l-0.107,-0.019l-0.075,0.079l-0.15,-0.005l-0.341,-0.176l-0.032,-0.107l-0.08,-0.046l-0.093,0.018l-0.351,-0.078l-0.019,-0.065l-0.186,-0.098l-0.131,0.112l-0.07,-0.014l-0.019,-0.135l-0.145,-0.074l-0.094,0.014l-0.191,-0.135l-0.126,-0.023l-0.108,0.097l-0.093,-0.004l-0.084,-0.107l-0.229,-0.111l0.056,-0.195l0.149,-0.085l0.003,-0.065l-0.264,-0.026l-0.136,0.069l-0.07,0.186l0.042,0.241l-0.098,0.209l-0.575,-0.139l-0.182,-0.232l0.028,-0.126l0.126,-0.06l0.215,-0.195l0.028,-0.176l0.047,-0.056l0.023,-0.162l0.098,-0.102l0.066,-0.353l-0.01,-0.144l-0.168,-0.176l-0.079,-0.014l-0.113,0.042l-0.257,-0.056l-0.252,-0.158l-0.322,0.01l-0.038,0.055l0.042,0.075l-0.103,0.18l-0.215,0.005l-0.098,-0.051l-0.042,-0.227l0.028,-0.088l-0.061,-0.089l-0.218,-0.082l-0.202,0.022l-0.184,0.115l-0.1,-0.01l-0.053,-0.108l-0.003,-0.124l-0.099,-0.114l-0.131,-0.016l-0.1,-0.089l0.025,-0.198l-0.031,-0.091l-0.034,-0.031l-0.188,0.018l-0.27,0.135l-0.076,0.119l-0.171,0.15l-0.219,0.056l-0.111,-0.052l-0.116,0.019l-0.102,0.118l-0.075,0.009l-0.046,-0.047h-0.153l-0.126,0.084l-0.353,0.075l-0.172,0.104l-0.306,0.004l-0.348,-0.187l-0.102,0.028l-0.061,0.084l-0.144,0.038h-0.278l-0.367,-0.085l-0.367,-0.197l-0.209,-0.051l-0.125,-0.071l-0.168,-0.206l-0.153,-0.047l-0.097,0.033l-0.084,-0.033l-0.032,-0.07l-0.089,-0.033l-0.093,0.028l-0.274,-0.075l-0.097,-0.094l-0.223,-0.033l-0.074,0.043l-0.075,-0.005l-0.027,-0.066l-0.233,-0.122l-0.083,-0.159l-0.061,-0.033l-0.157,0.038l-0.172,0.126l-0.386,0.014l-0.288,-0.056l-0.232,0.005l-0.06,0.061l0.037,0.122l-0.037,0.037l-0.079,-0.042l-0.056,0.042l-0.032,0.07l-0.167,0.141l-0.191,0.061l-0.042,0.066l0.14,0.122l0.014,0.211l-0.061,0.019l-0.274,-0.24l-0.25,-0.061l-0.14,0.08h-0.251l-0.301,-0.183l-0.075,-0.136l-0.204,-0.084l-0.371,-0.024l-0.149,-0.061h-0.646l-0.209,-0.126l0.019,-0.071l0.153,-0.051l0.019,-0.117l-0.037,-0.047l-0.228,-0.019l-0.241,-0.108l-0.27,-0.225l-0.343,-0.042l-0.126,0.089l-0.218,0.023l-0.213,0.136l-0.219,0.033l-0.162,0.131l-0.154,0.038l-0.157,0.169l-0.038,0.169l-0.167,0.103l-0.023,-0.052l0.065,-0.07l0.009,-0.066l-0.088,-0.047l0.014,-0.084l0.107,-0.122l0.107,-0.042l0.046,-0.089l-0.015,-0.146l-0.198,-0.025l-0.31,0.138l-0.365,0.012l-0.267,0.069l-0.185,0.169l-0.61,0.078l-0.53,0.244l-1.046,0.134l-0.142,-0.106l-0.099,-0.025l-0.149,0.063l-0.532,0.037l-1.016,-0.075l-0.721,-0.206l-0.285,-0.019l-0.884,-0.253l-0.74,-0.047l-0.637,-0.132l-0.247,0.057l-0.294,-0.038l-0.266,-0.178l-0.047,-0.113l-0.19,-0.103l-0.523,-0.009l-0.19,-0.113l-0.237,-0.018l-0.627,0.075l-0.547,0.015l-0.336,0.075l-0.146,-0.025l-0.057,-0.119l0.102,-0.187l-0.038,-0.013l-0.159,0.107l-0.158,-0.013l-0.272,-0.281l-0.057,-0.15l-0.367,-0.251l-0.14,0.007l-0.05,0.175l-0.146,0.056l-0.101,-0.012l-0.095,0.05v0.118l-0.241,0.194l-0.259,0.038l-0.159,-0.05l-0.133,0.006l-0.189,0.15l-0.273,0.063l-0.519,-0.069l-0.367,-0.194l-0.07,0.013l-0.044,0.081l-0.602,0.187l-0.468,0.013l-0.234,-0.1l-0.102,0.012l-0.069,0.094l-0.266,0.05l-0.45,-0.056l-0.209,-0.094l-0.304,-0.006l-0.227,0.062l-0.545,-0.043l-0.133,0.05l-0.171,-0.007l-0.152,-0.068l-0.715,-0.019l-0.222,0.106l-1.201,0.013l-0.508,-0.094l-0.402,-0.257l-0.341,-0.381l-0.08,-0.188l-0.162,-0.102l-0.389,-0.11l-0.143,-0.082l-0.068,-0.137l-0.278,-0.1l-0.161,0.025l-0.087,0.131l-0.142,0.019l-0.056,0.056l0.012,0.132l-0.111,0.137l-0.068,-0.019l0.006,-0.287l-0.13,-0.294l-0.081,-0.044l-0.161,0.05l-0.08,0.1l-0.124,0.088v-0.082l0.186,-0.362l-0.056,-0.044l-0.179,0.1l-0.124,0.187l-0.415,0.119l-0.204,0.119l-0.031,0.131l-0.062,0.038l-0.093,-0.038l-0.087,0.063l0.044,0.156l-0.05,0.075l-0.099,0.025l-0.05,-0.012l0.081,-0.075l-0.062,-0.113l0.049,-0.162l0.112,-0.05l0.025,-0.05l-0.068,-0.069l0.031,-0.269l-0.081,-0.063l-0.186,0.032l-0.223,0.219l-0.439,0.256l-0.266,-0.05l-0.161,0.081l-0.068,0.213l0.08,0.194l-0.074,0.043l-0.13,-0.05l-0.186,0.088l-0.149,0.163l-0.136,0.056l-0.099,-0.019l-0.105,0.05l-0.174,0.275l-0.255,0.175l-0.158,-0.004l-0.186,-0.071l-0.037,0.061l0.116,0.169l-0.037,0.099l-0.125,0.033l-0.009,0.103l0.041,0.084l-0.028,0.103l-0.106,0.108l0.023,0.071h0.274l0.181,-0.052l0.07,-0.108l0.065,-0.014l0.12,0.066l0.191,-0.024l0.134,-0.089l0.093,-0.164l0.056,-0.019l-0.06,0.183l-0.13,0.183l-0.214,0.089l-0.237,-0.037l-0.343,0.093l0.013,0.09l0.363,0.154l0.371,-0.014l0.172,0.075l0.153,-0.018l-0.134,0.07l-0.223,-0.038l-0.135,0.104l-0.009,0.276l0.074,0.202l-0.056,0.061l-0.189,-0.152l-0.015,-0.107l-0.116,-0.14l-0.16,-0.05l-0.057,-0.092l-0.079,-0.047l-0.187,0.052l-0.035,0.092l0.037,0.065l0.008,0.097l-0.094,0.155l-0.104,0.02l-0.061,0.039l0.007,0.075l0.091,0.09l-0.096,-0.04l-0.064,-0.115l0.015,-0.259l-0.072,-0.127l-0.081,0.005v0.082l-0.035,0.023l-0.093,-0.063l-0.18,0.031l-0.051,0.113l-0.116,0.056l-0.088,-0.038l-0.084,0.01l-0.019,0.202l-0.134,0.131l-0.177,0.033l-0.199,-0.057l-0.209,0.024l-0.191,0.098l-0.385,0.099l-0.26,-0.014l-0.376,-0.16l-0.186,-0.215h-0.074l-0.065,0.126l-0.056,0.042l-0.246,-0.023l-0.084,0.056l-0.014,0.15l-0.134,0.047h-0.163l-0.172,0.099v0.089l0.237,0.141l0.107,0.215l-0.065,0.028l-0.107,-0.061l-0.292,0.01l-0.158,0.089l-0.144,0.202l-0.191,0.061l-0.315,-0.113l-0.325,0.099l-0.061,0.145l-0.07,0.047l-0.074,-0.014l-0.042,0.056l0.033,0.131l0.083,0.108l0.117,-0.004l0.079,-0.052l0.041,0.056l-0.144,0.235l-0.088,0.004l-0.083,-0.103l-0.079,0.005l-0.033,0.117l-0.088,0.028l-0.093,-0.018l-0.033,0.047l0.038,0.14l-0.056,0.136l-0.107,0.038l-0.125,-0.042l-0.023,0.037l0.069,0.061l0.023,0.192l0.07,0.071h0.079l0.056,0.07l-0.061,0.216l-0.144,0.169l-0.051,0.234l0.084,0.08l0.028,0.206l0.046,0.005l0.088,-0.272l0.172,-0.141h0.093l0.153,0.16l0.047,-0.028l-0.023,-0.179l0.032,-0.028l0.074,0.066l0.047,0.136l0.093,0.103l0.102,-0.014l0.042,0.052l-0.107,0.14l-0.023,0.136l0.069,0.141l0.144,0.066l0.051,0.075l-0.014,0.103l-0.195,0.127l-0.041,0.079l0.209,0.286l0.157,0.136l0.075,0.015l0.018,-0.108l0.154,-0.061l0.037,-0.089l-0.061,-0.076l0.005,-0.065l0.232,-0.042l0.065,0.079l0.186,0.038l0.181,-0.028l0.028,-0.094l0.088,-0.038l0.102,0.014l0.088,-0.037l0.07,-0.127l0.125,-0.037l-0.018,0.056l-0.088,0.07l-0.033,0.122l-0.116,0.038l-0.116,0.08l-0.125,0.201l-0.251,0.118l-0.242,0.333l-0.088,0.487l-0.213,0.277l-0.098,0.221l0.06,0.051l0.103,-0.056l0.116,0.014l0.106,0.127l-0.037,0.112v0.164l0.065,0.038l0.163,-0.08l0.097,-0.141l0.019,-0.15l0.181,-0.126l0.158,-0.057l0.051,-0.056l-0.009,-0.145l0.144,-0.188l0.102,-0.037l0.069,0.051v0.164l0.112,0.024l0.046,-0.108l0.084,-0.056v-0.071l-0.098,-0.075l0.014,-0.089l0.107,-0.075l0.116,0.033l0.01,0.103l0.051,0.084l0.134,0.005l0.228,-0.084l0.065,-0.094l0.065,-0.056l0.079,-0.019l-0.075,0.066l-0.037,0.14l-0.195,0.188l-0.041,0.178l-0.098,0.131l-0.195,0.071l-0.079,0.192l0.088,0.333l-0.023,0.357l-0.051,0.075l-0.204,0.018l-0.051,-0.065l0.06,-0.075l0.009,-0.141l-0.079,-0.103l-0.097,0.019l-0.065,0.103l-0.093,0.061l-0.112,-0.005l-0.074,0.07l0.033,0.094h0.181l0.102,0.052l0.097,0.126l-0.014,0.211l0.228,0.197h0.125l0.024,-0.061l0.139,-0.018l0.139,0.047l0.149,-0.024l0.088,-0.131l0.19,-0.122l0.172,-0.038l0.079,0.061l-0.107,0.122l-0.167,0.094l-0.269,0.408l-0.2,0.071l-0.237,-0.066l-0.041,0.028l0.06,0.192l0.005,0.207l-0.07,0.018l-0.163,-0.154l-0.051,0.042l0.014,0.192l-0.055,0.16l0.051,0.037l0.088,-0.075l0.385,0.066l0.284,-0.122l0.106,-0.146l0.098,-0.009l0.046,0.052l0.144,-0.01l0.047,-0.075l0.185,-0.084l-0.013,-0.108l0.097,-0.188l0.057,-0.065l0.093,0.012l0.019,0.091l-0.044,0.075l0.01,0.241l-0.068,0.04l-0.13,-0.022l-0.124,0.063l-0.087,0.153l-0.368,0.257l-0.106,0.009l-0.127,0.066l-0.055,0.137l-0.174,0.081l-0.055,0.066l0.003,0.122l-0.071,0.088l-0.124,0.006l-0.006,0.044l0.17,0.147l-0.025,0.131l-0.056,0.022l-0.124,-0.066l-0.086,0.003l-0.056,0.05l-0.062,0.01l-0.052,-0.019l-0.053,0.047l0.003,0.222l0.068,0.256l0.05,0.347l-0.025,0.169l0.006,0.61l0.037,0.253l0.062,0.022l0.068,-0.053l0.075,-0.144l0.145,-0.122l0.307,-0.018z"/>
</svg>
