<svg xmlns="http://www.w3.org/2000/svg" viewBox="1335.019 651.950 98.877 76.656">
  <path d="M1342.288673,688.118574l0.275,3.09v2.864l-0.107,0.082l-0.051,0.121l-0.112,0.107l-0.129,0.027l-0.316,0.237l-0.051,0.153l-0.102,0.037l-0.186,-0.051l-0.32,0.01l-0.292,0.157l-0.079,0.172l0.019,0.139l-0.084,0.112l-0.464,0.083l-0.204,0.149l-0.325,0.009l-0.195,-0.121l-0.046,-0.25l-0.093,-0.112l-0.26,-0.13l-0.12,0.01l-0.093,0.111l-0.149,-0.009l-0.12,-0.139l-0.223,-0.019l-0.148,-0.046l-0.103,0.027l-0.074,0.112l-0.213,0.074l-0.186,0.019l-0.102,0.092l-0.139,-0.018l-0.334,-0.167h-0.112l-0.083,0.093h-0.093l-0.102,-0.065l-0.148,0.065v0.074l-0.065,0.055l-0.093,-0.046l-0.065,0.065l0.052,0.062l-0.055,0.056l-0.087,0.024l-0.043,0.161l0.012,0.124l0.081,0.018l0.055,-0.037l0.062,0.031l-0.031,0.105l-0.117,0.038l-0.031,0.068l0.068,0.08l-0.025,0.068l-0.155,0.068l-0.018,0.136l0.062,0.118l0.13,0.08l-0.031,0.124l-0.13,0.093l-0.019,0.148l0.093,0.279l-0.087,0.142l-0.29,0.074l-0.087,0.087l0.006,0.185l-0.043,0.037l-0.105,-0.068l-0.099,0.044l-0.019,0.229l-0.093,0.08l-0.129,0.043l-0.068,0.13v0.136l-0.087,0.099l-0.136,0.075l-0.019,0.173l0.118,0.148l-0.025,0.056l-0.062,0.056v0.16l0.235,0.266l0.056,0.155l0.13,0.006l0.111,-0.049l0.112,0.025l0.043,0.074l0.235,-0.013l0.117,-0.055l0.205,0.043l0.142,0.124l0.08,0.006l0.081,-0.05l0.093,0.019l0.037,0.08l0.34,0.223l0.037,0.081l0.13,0.012l0.124,-0.087l0.26,-0.08l0.148,0.006l0.08,-0.099h0.081l0.049,0.074l0.068,0.007l0.081,-0.05l0.291,0.111l0.074,0.124l0.142,0.111l0.377,0.038l0.149,-0.038l0.241,0.062l0.204,0.149l0.13,0.025l0.13,0.117l0.031,0.111l0.402,0.341l0.167,0.08l0.211,0.019l0.266,0.161l0.031,0.167l0.204,0.222l0.105,0.019l0.068,0.074l0.025,0.087l0.247,0.253l0.087,0.217l0.111,0.08l0.019,0.099l-0.037,0.136l0.043,0.316l-0.031,0.074l-0.081,0.025l-0.024,0.086l0.192,0.198l0.185,0.068l0.464,0.415l0.26,0.124l0.062,0.123l-0.006,0.403l0.074,0.117l0.105,0.006l0.037,0.087l-0.012,0.062l0.08,0.068l0.136,-0.019l0.254,0.192l0.062,0.198l0.161,0.136l0.272,0.081l0.154,-0.025l0.403,0.018l0.21,0.118l0.247,0.278l0.007,0.118l0.092,0.173l-0.031,0.365l0.075,0.118l0.334,0.105l0.148,-0.019l0.062,-0.08l0.111,0.018l0.118,0.18l0.105,0.092l0.161,0.025l0.043,0.087v0.105l0.138,0.161l0.091,0.049l0.149,0.229l0.142,0.037l0.118,-0.049l0.222,0.006l0.167,-0.049l0.124,0.043l0.006,0.111l0.068,0.05l0.099,0.031l0.204,0.167l0.099,0.247l0.044,0.043l0.068,0.019l0.117,0.13l0.124,0.068l0.068,0.173l-0.049,0.223l-0.05,0.08l-0.08,0.031l-0.019,0.112l0.031,0.198l-0.074,0.216l-0.099,0.099l-0.062,0.155l0.012,0.142l-0.043,0.08l0.019,0.143l0.105,0.13v0.179l-0.031,0.105l-0.037,0.285l0.08,0.204l0.124,0.056l0.037,0.111l-0.043,0.142l0.012,0.105l0.074,0.093l-0.012,0.155l-0.087,0.155l0.013,0.154l0.099,0.198l-0.038,0.093l0.013,0.093l0.786,1.311l0.006,0.452l1.212,0.804l-0.049,0.074l-0.006,0.155l-0.075,0.192l-0.037,0.334l0.105,0.241l0.13,0.05l0.706,-0.242l0.296,-0.266l0.347,-0.043l0.111,0.056l0.124,0.012l0.093,-0.031l0.204,0.099l0.08,0.105l0.087,0.025l0.118,-0.043l0.358,-0.013l0.223,0.099l0.074,0.106l0.124,0.055l0.111,-0.018l0.477,0.229l0.012,0.117l-0.21,0.229l-0.013,0.13l0.18,0.26l0.031,0.303l-0.124,0.235l-0.08,0.031l-0.075,0.111l-0.049,2.215l0.922,1.052l-0.078,0.276l0.135,0.057l0.01,0.088l-0.096,0.109l0.624,0.55l0.063,0.001l0.089,-0.07l0.004,-0.088l0.144,-0.056l0.074,0.019l0.269,-0.009l0.051,-0.038h0.065l0.07,0.042l0.06,-0.018l0.042,-0.075l0.056,0.005l0.032,0.079l-0.046,0.088l0.032,0.186l0.269,0.004l0.07,-0.032l0.065,0.009l0.065,0.047l1.981,0.004l0.376,-0.051l0.167,0.014l0.102,0.074l1.174,-0.046l0.255,0.121l0.172,0.027l0.339,0.13l0.018,0.056l0.065,0.032l0.06,-0.004l0.102,0.037l0.047,0.06l0.093,0.028l0.088,-0.037l0.111,0.046l0.084,0.14l0.069,0.041h0.07l0.139,0.084l0.06,0.162l0.102,0.084l0.089,0.009l1.856,1.202l2.449,1.689l1.16,0.714l0.232,0.105l0.087,0.099l0.093,0.155l0.513,0.39l0.118,0.161l0.074,-0.05l0.291,-0.049l1.738,0.111l0.452,-0.161l0.043,-0.087l-0.05,-0.049l0.031,-0.05l0.137,0.019l0.099,0.111l0.037,0.124l0.117,0.074l0.359,0.031l0.186,0.044l0.08,-0.056l0.012,-0.111l0.056,-0.025l0.235,0.321l1.182,0.403l0.359,-0.013l0.055,-0.074l0.099,-0.012l0.297,0.061l0.303,-0.049l0.099,-0.08l0.105,0.006l0.242,0.173l0.383,0.179l0.687,0.056l0.142,-0.142l0.081,-0.006l0.037,0.105l-0.013,0.093l0.099,0.037l0.761,0.037l0.18,-0.044l0.086,0.038l0.068,0.321l0.093,0.05l0.161,-0.013l0.26,-0.538l0.198,-0.142l1.014,-1.039l0.631,-1.337l1.819,-0.95h0.069l0.046,-0.053l0.127,-0.068l0.052,-0.089l0.05,-0.019l0.077,0.025l1.151,-0.467l0.074,0.003l0.053,-0.053l2.01,-0.822l0.189,-0.037l0.136,-0.161l0.136,0.006l0.26,0.167l0.167,0.038l0.253,0.235l0.044,0.136l0.13,0.198l0.111,0.08l0.173,0.006l0.334,0.273l0.112,0.154l0.309,0.279l0.093,0.16l0.358,0.316l0.396,0.204h0.099l0.118,-0.099l0.247,-0.012l0.149,0.08l0.371,-0.012l0.08,-0.056l0.254,-0.031l0.192,0.062l0.507,-0.08l0.074,0.037l0.087,-0.006l0.068,-0.143h0.124l0.124,0.068l0.266,-0.024l0.055,-0.068l0.105,0.012l0.13,0.099l0.161,-0.031l0.13,-0.118l0.248,0.007l0.086,0.074l0.105,0.006l0.062,-0.043l0.099,0.018l0.062,0.118l0.148,0.055l0.149,0.007l0.204,-0.18l0.087,-0.031l0.074,0.031l0.068,-0.093l0.167,-0.061l0.093,-0.155l-0.006,-0.204l0.204,-0.285l0.235,-0.08l0.284,-0.285l0.106,-0.136l0.618,-0.105h1.522l0.687,-0.124l0.396,-0.012l0.847,-0.334l0.334,-0.062l0.588,-0.006l0.266,-0.13l0.408,-0.384l0.316,-0.389l0.235,-0.427l0.099,-0.402l0.117,-0.26l0.279,-0.248l0.563,-0.359l0.55,-0.303l1.188,-0.587l0.792,-0.285l1.355,-0.34l1.788,-0.371l0.866,-0.038l1.497,0.05l1.373,0.087l2.549,0.012l0.186,-0.173l2.672,-3.885l2.957,-2.97l4.343,-3.662l2.66,-2.834l2.797,-2.833l1.447,-1.2l2.796,-2.908l-0.402,0.002l-6.114,0.026l-19.744,-6.556l-2.314,-2.371h-0.307l-0.315,-0.13l-0.251,-0.046l-0.26,-0.186l-0.232,-0.241l-0.157,-0.39l-0.065,-0.25l-0.307,-0.306l-0.38,-0.13l-0.297,-1.624l-0.501,-0.288l-0.149,-0.046l-0.12,0.009l-0.093,0.056l-0.251,-0.112l-0.519,-1.234l-0.269,-0.288l-0.149,-0.055l-0.185,-0.279l-0.399,-0.278l-0.019,-0.186l-0.278,-0.649l-0.084,-0.056v-0.677l-0.12,-0.177l-0.242,-0.157v-0.093l-0.074,-0.074l-0.111,-0.028l-0.102,-0.167l-0.01,-0.14l-0.185,-0.232l0.018,-0.111l0.269,-0.083l0.232,-0.446l0.158,-0.223l0.186,-0.111l0.195,-0.25l0.148,-0.381l0.111,-0.093l0.242,-0.083l0.176,-0.325l-0.037,-0.213l0.229,-0.396l-0.204,0.018l-0.174,0.13h-0.235l-0.167,-0.074l-0.309,-0.025l-0.099,-0.086l-0.019,-0.211l-0.167,-0.278l-0.092,-0.006l-0.334,0.111l-0.087,-0.006l-0.204,-0.223l-0.13,-0.012l-0.118,0.068l-0.048,0.103l-0.747,0.228l-0.321,0.233l-0.157,0.115l-0.38,-0.116l-0.199,0.009l-0.223,0.097l-0.181,0.149l-0.241,0.079l-0.172,-0.019l-0.06,-0.074l-0.149,-0.056l-0.209,-0.004l-0.329,0.144l-0.107,0.106l-0.018,0.112l-0.056,0.041l-0.223,-0.004l-0.106,0.041h-0.093l-0.121,-0.032l-0.074,0.009l-0.06,0.075h-0.103l-0.041,-0.089l0.018,-0.051l-0.014,-0.041l-0.273,-0.01l-0.502,-0.13l-0.218,-0.083l0.005,-0.042l0.135,-0.014l0.004,-0.037l-0.19,-0.06v-0.084l0.059,-0.063l0.093,-1.813l-0.05,-0.544l-0.192,-0.885l0.068,-0.352l0.087,-0.118l0.043,-0.377l0.037,-0.124l0.013,-0.155l0.167,-0.445l0.346,-0.155l0.062,-0.229l0.328,-0.167l0.266,-0.297l0.445,-0.686l0.248,-0.297l0.258,-0.396l0.102,-0.07l0.085,-0.24l0.569,-0.878l0.446,-0.384l0.148,-0.501l0.436,-0.581l-0.807,-1.086l-0.408,-0.868l-0.58,-0.097l-0.501,-0.172l-0.228,-0.468l-0.348,-0.334l-0.259,-0.557l-0.256,-0.436l-0.464,-0.557l-0.575,-0.548l-0.083,-0.232l-0.353,-0.343l-0.148,-0.39l-0.724,-0.306l-0.548,-0.38l-0.334,-0.121l-0.584,-0.455l-0.427,-0.297l-0.297,-0.529l-0.186,-0.204l-0.325,-0.631l-0.464,-0.649l-0.389,-0.668l-0.325,-0.455l-0.483,-0.371l-0.621,-0.334l-1.365,-0.557l-0.788,-0.235l-0.396,-0.266l-0.767,-0.402l-0.186,-0.031l-0.136,0.08l-0.13,-0.012l-0.408,-0.978l-0.272,-0.062l-0.198,0.062l-0.205,0.192l-0.024,0.13l-0.211,0.26l-0.123,0.025l-0.075,0.055l-0.031,0.093l-0.117,0.087l-0.192,-0.007l-0.179,-0.117l-0.062,-0.13l-0.235,-0.173l-0.223,-0.062l-0.136,-0.087l-0.056,-0.13l-0.204,-0.161l-0.185,-0.024l-0.174,-0.093l-0.123,-0.179l-0.322,-0.118h-0.365l-0.297,0.142l-0.198,0.235l-0.031,0.198l0.142,0.099l0.062,0.081l-0.043,0.043l-0.489,-0.136l-0.421,-0.192l-0.111,0.025l-0.086,0.111l0.012,0.136l-0.056,0.05l-0.111,-0.013l-0.05,0.038l0.05,0.099l-0.043,0.037l-0.18,-0.019l-0.142,0.149l-0.087,0.235l-0.074,0.006l-0.093,-0.043l-0.062,-0.18l0.019,-0.124l0.148,-0.167l0.025,-0.235l-0.173,-0.278l-0.278,-0.068l-0.229,-0.235l-0.019,-0.142l0.043,-0.087l-0.006,-0.068l-0.111,-0.012l-0.309,0.086l-0.378,0.006l-0.155,0.099l-0.012,0.18l-0.155,0.29l-0.148,0.075h-0.13l-0.13,0.062l-0.086,0.142l-0.174,0.074h-0.191l-0.217,0.062l-0.229,0.173l-0.39,0.037l-0.136,-0.024l-0.161,0.024l-0.16,0.099l-0.737,0.118l-0.185,0.13h-0.087l-0.111,-0.044h-0.241l-0.155,-0.099l-0.056,-0.21l-0.235,-0.179l-0.167,-0.037l-0.291,-0.328l-0.031,-0.242l-0.142,-0.21l-0.105,-0.018l-0.062,-0.062l0.006,-0.242l-0.105,-0.16l-0.328,-0.087l-0.161,0.093l-0.235,-0.013l-0.414,-0.222l-0.223,-0.019l-0.198,-0.136l-0.074,-0.217l-0.421,-0.513l-0.018,-0.136l-0.149,-0.192l-0.062,0.006l-2.521,4.798l-0.134,0.042l-0.056,-0.033l-0.018,-0.06l-0.154,-0.153l-0.013,-0.223l-0.056,-0.065l-0.088,-0.014l-0.163,-0.158l-0.125,-0.046l-0.046,-0.07l0.055,-0.232l-0.046,-0.055l-0.084,-0.01l-0.051,-0.046l0.019,-0.125l-0.227,-0.228l-0.014,-0.069l-0.195,-0.2l-0.093,-0.041l-0.283,0.083h-0.135l-0.069,-0.056l-0.107,0.005l-0.144,0.144l-0.264,0.032l-0.135,0.088l-0.185,0.437l0.051,0.111l-0.037,0.237l-0.093,0.12l-0.255,0.014l-0.191,0.102h-0.083l-0.13,-0.074l-0.019,-0.088l-0.167,-0.112l-0.157,-0.013l-0.218,-0.065l-0.075,-0.079l-0.255,-0.028l-0.088,0.069h-0.088l-0.074,-0.037l-0.475,-0.023l-0.279,0.108l-0.157,0.004l-0.14,-0.059h-0.151l-0.13,0.105l-0.22,0.025l-0.148,0.062l-0.016,0.052l0.038,0.056l-0.019,0.074l-0.631,1.875l0.186,0.971l-0.161,0.315l-0.13,0.118l-0.282,0.758l-0.139,0.798l-0.714,1.178l-0.724,2.339l-0.065,0.055l-0.019,0.307l-0.074,0.12v0.149l0.093,0.12l0.111,0.047l-0.12,1.373l-0.205,0.065l-0.167,-0.037l-0.083,-0.111l-0.446,-0.084h-0.176l-1.392,0.371l-0.074,-0.028l-0.084,0.019l-0.027,0.065h-0.084l-0.111,-0.084l-0.186,0.01l-0.241,0.204l-2.32,3.981l-0.269,0.677l-1.253,0.928l-0.241,0.39l0.012,0.198l0.21,0.52l-0.037,0.705l-0.198,0.383l-0.012,0.409l-0.384,0.544l-0.123,0.359l-0.143,0.086l-0.024,0.093l-0.081,0.05v0.055l0.214,0.068l0.232,0.307l-0.297,1.577l0.216,0.282l-0.006,0.105l-0.303,0.155l-0.464,0.402l-0.019,0.284l0.081,0.031l0.006,0.056l-0.148,0.185l-0.106,0.075h-0.061l-0.093,-0.087h-0.081l-0.099,0.099l-0.086,0.012l-0.025,-0.049l0.099,-0.087l0.019,-0.136l-0.069,-0.049l-0.129,0.006l-0.384,-0.446l-0.662,-0.562l-0.903,0.612l-0.495,0.903l-0.613,0.64l-0.102,0.344l0.158,0.529l-0.065,0.352l0.279,0.771l0.037,0.371l-0.075,0.473l-0.037,0.074l-0.009,0.084l0.037,0.074l-0.649,0.483l-0.121,0.807l0.046,0.26l-0.408,0.835l-0.39,1.373l0.032,0.353z"/>
</svg>
