<svg xmlns="http://www.w3.org/2000/svg" viewBox="2284.993 833.670 1.391 0.435">
  <path d="M2285.033745,833.913011l-0.012288,0.01966l-0.022118,0.002458l-0.007373,-0.017203l0.024575,-0.014745l0.017203,0.00983Z M2285.183653,833.802423l0.022118,-0.014745l0.004915,-0.01966l-0.01966,0.002458l-0.014745,0.014745l0.007373,0.017203Z M2285.392543,833.731155l0.024575,-0.022118l-0.007373,-0.02949l-0.041778,-0.00983l-0.022118,0.017203v0.02949l0.046693,0.014745Z M2285.503131,834.021142l0.110588,0.02949l0.02949,0.02949l0.022118,-0.002458l0.01966,-0.063896l0.090928,-0.004915l0.027033,0.046693l0.06351,0.02843l0.046259,-0.006168l0.154197,0.027756l0.237464,-0.012336l0.061342,-0.035224l0.018841,-0.125141l-0.046259,-0.049343l-0.058595,-0.027756l-0.067847,0.012336l-0.228212,-0.074015l-0.098686,0.003084l-0.092518,0.061679l-0.055511,0.10177l-0.061775,0.01383l-0.036863,-0.024575l0.021539,-0.050933l-0.040091,-0.027756l-0.111697,0.012336l-0.044235,0.056523l0.03932,0.081098Z "/>
</svg>
