<svg xmlns="http://www.w3.org/2000/svg" viewBox="2284.988 855.641 31.048 23.928">
  <path d="M2301.273587,866.715433l-0.166533,-0.650713l0.024672,-0.086351l0.428669,-0.123358l0.092518,0.052427l0.061679,0.441005l-0.166533,0.400913l-0.178869,0.166533l-0.169617,0.027756l0.074015,-0.228212Z M2301.492547,870.03993l0.107938,0.006168l0.052427,-0.092518l-0.046259,-0.098686l0.009252,-0.138778l0.089435,-0.046259l0.009252,-0.046259l-0.286807,-0.058595l-0.104854,0.061679l0.043175,0.231296l0.126442,0.181953Z M2299.864222,869.759291l0.095602,-0.11719l-0.129526,-0.13261l-0.123358,0.012336l-0.030839,0.086351l0.052427,0.160365l0.135694,-0.009252Z M2300.938448,871.93945l0.153186,0.015612l0.123358,-0.14803l-0.024672,-0.262136l-0.163449,-0.490348l-0.228212,-0.360822l-0.181953,-0.018504l-0.126442,0.129526l-0.114106,0.003084l-0.021588,0.058595l0.052427,0.070931l-0.080183,0.181953l0.003084,0.222044l0.097385,0.082014l0.051608,-0.031948l-0.034405,-0.113046l0.027033,-0.022118l0.135164,0.167111l0.100758,0.051608l0.088471,0.113046l0.002458,0.142536l0.140079,0.208889Z M2298.476445,867.162606l-0.055511,0.115648l0.055511,0.157281l0.10177,-0.004626l0.074015,-0.161907l-0.032381,-0.129526l-0.143404,0.02313Z M2298.633727,868.402353l0.203541,0.268304l0.115648,0.050885l-0.120274,-0.393203l-0.111022,-0.064763l-0.078641,0.055511l-0.009252,0.083267Z M2296.564397,868.20498l0.040091,0.074015h0.049343v-0.047801l0.060137,-0.050885l-0.037007,-0.069389l-0.112564,0.09406Z M2297.255202,869.33679l0.286807,-0.032381l0.152655,-0.14803l0.018504,-0.235922l-0.152655,-0.416333l-0.180411,-0.055511l-0.300685,0.180411l-0.055511,0.185037l0.046259,0.305311l0.185037,0.217418Z M2296.857372,869.193386l0.111022,0.171159l0.018504,0.152655l0.185037,0.157281l0.120274,-0.064763l0.009252,-0.092518l-0.111022,-0.046259l-0.208167,-0.222044l-0.046259,-0.157281l-0.074015,0.018504l-0.004626,0.083267Z M2292.101923,873.833187l0.092518,-0.069389l-0.004626,-0.060137h-0.092518l-0.055511,0.078641l0.060137,0.050885Z M2292.846697,874.087613l0.245174,-0.013878l0.208167,-0.171159l-0.032381,-0.208167l-0.129526,-0.087893l-0.212792,-0.013878l-0.157281,0.2498l-0.027756,0.185037l0.106396,0.060137Z M2289.793588,875.276475l0.092518,0.041633l0.032381,-0.083267l-0.078641,-0.120274l-0.055511,-0.208167l0.064763,-0.208167l-0.092518,-0.171159l-0.087893,-0.013878l-0.138778,0.134152l-0.02313,0.078641l0.286807,0.550485Z M2286.399702,866.385451l0.092518,-0.074015l0.067847,-0.296059l-0.080183,-0.049343l-0.074015,0.080183l-0.14803,0.024672l-0.067847,0.240548l0.067847,0.092518l0.141862,-0.018504Z M2286.362695,866.588991l0.098686,0.055511l0.111022,-0.043175l-0.012336,-0.135694l-0.092518,-0.043175l-0.104854,0.080183v0.086351Z M2286.584739,869.463232l0.154197,0.030839l0.074015,-0.141862l-0.086351,-0.098686h-0.129526l-0.080183,0.11719l0.067847,0.092518Z M2285.042765,865.250558l0.092518,-0.074015l0.024672,-0.129526l-0.104854,-0.012336l-0.024672,0.098686l-0.043175,0.086351l0.055511,0.030839Z M2286.843791,869.623597l0.061679,-0.080183v-0.080183l-0.074015,0.024672l-0.037007,0.111022l0.049343,0.024672Z M2286.125231,868.406979l-0.027756,0.069389l0.041633,0.050885l0.050885,-0.013878l0.018504,-0.064763l-0.041633,-0.060137l-0.041633,0.018504Z M2293.064115,866.477969l0.111022,-0.009252l0.074015,-0.111022l-0.064763,-0.046259l-0.166533,0.009252l-0.037007,0.083267l0.083267,0.074015Z M2293.600722,866.292932l0.037007,-0.037007l-0.013878,-0.069389l0.050885,-0.060137l-0.041633,-0.032381l-0.050885,0.032381l-0.078641,-0.009252l-0.013878,0.041633l0.069389,0.02313l0.032381,0.046259l0.009252,0.064763Z M2293.6146,866.445588l0.046259,0.032381l0.078641,-0.032381l0.037007,-0.097144l-0.055511,-0.027756l-0.064763,0.046259l-0.041633,0.078641Z M2288.638649,868.026111l0.061679,-0.037007l-0.006168,-0.061679l-0.043175,-0.012336l-0.055511,0.067847l0.043175,0.043175Z M2287.312551,867.662205l0.067847,-0.006168l-0.006168,-0.067847l-0.030839,-0.043175l-0.074015,0.006168v0.061679l0.043175,0.049343Z M2290.36566,866.88505l-0.006168,0.055511l0.061679,0.018504l0.074015,-0.043175l-0.043175,-0.049343l-0.086351,0.018504Z M2287.516092,871.412287l-0.018504,0.289891l0.296059,0.296059l0.388578,0.074015l0.394745,0.215876l0.875841,0.123358l1.430952,0.394745l0.228212,0.14803l0.450257,0.086351l0.690805,-0.049343l0.518103,-0.11719l0.197373,0.135694l0.228212,-0.074015l0.326899,-0.38241l0.542775,-0.296059l0.197373,-0.222044l0.135694,-0.049343l0.11719,0.098686l0.160365,-0.061679l0.067847,-0.104854l0.222044,0.030839l-0.018504,0.289891l0.123358,0.030839l0.228212,-0.302227l0.129526,-0.086351l0.104854,0.098686l-0.012336,0.246716l0.080183,0.024672l0.055511,-0.11719l0.104854,-0.012336l0.123358,0.086351l0.444089,-0.308395l0.339234,-0.388578l-0.037007,-0.111022l0.178869,-0.320731h-0.074015l-0.197373,0.246716l-0.075557,-0.027756l-0.097144,-0.217418l-0.185037,-0.161907l-0.166533,-0.400913l0.143404,-0.228212l0.106396,-0.069389l-0.02313,-0.157281l-0.127984,-0.161907l-0.006168,-0.215876l-0.043175,-0.098686l-0.183495,-0.050885l-0.055511,-0.078641l0.22667,-0.610622l-0.060137,-0.222044l-0.555111,-0.300685l-0.013878,-0.134152l-0.194289,-0.115648l-0.134152,0.027756l-0.370074,-0.161907l-0.254426,-0.277555l-0.092518,-0.337692l-0.305311,-0.134152l-0.138778,0.018504l-0.037007,0.1249l-0.106396,0.087893l-0.092518,-0.050885l0.004626,-0.272929l0.138778,-0.046259l0.064763,-0.083267l-0.10177,-0.305311l-0.143404,-0.064763l-0.268304,-0.259052l-0.064763,0.009252l0.02313,0.166533l-0.161907,0.097144l-0.14803,0.009252l-0.106396,0.097144l-0.185037,0.037007l-0.069389,-0.060137l-0.360822,0.018504l-0.055511,0.037007l-0.087893,0.235922l-0.115648,-0.018504l-0.1249,0.055511l-0.064763,0.10177l-0.180411,0.018504l-0.430211,-0.157281l-0.092518,0.027756l-0.060137,0.111022l-0.138778,0.074015l-0.046259,-0.083267l0.129526,-0.337692l-0.087893,-0.027756l-0.282181,0.120274l-0.157281,0.171159v0.171159l-0.087893,0.060137l-0.305311,-0.078641l-0.171159,0.087893l-0.217418,-0.004626l-0.1249,0.055511l-0.060137,0.129526l-0.208167,0.194289l-0.171159,0.074015l-0.10177,0.106396l-0.055511,-0.027756l-0.013878,-0.111022l-0.050885,-0.004626l-0.087893,0.14803l0.018504,0.291433l-0.157281,0.157281l-0.268304,0.078641l-0.083267,0.198915l-0.092518,0.078641l-0.129526,0.004626l-0.055511,0.092518l0.004626,0.166533l0.134152,0.046259l0.087893,0.087893l-0.009252,0.175785l0.083267,0.189663l-0.120274,0.111022l-0.194289,-0.050885l-0.138778,0.060137l0.004626,0.231296l-0.069389,0.235922l-0.2498,0.138778l-0.120274,-0.046259l-0.175785,0.055511l-0.111022,0.175785l0.027756,0.152655l0.078641,0.037007v0.064763l-0.166533,0.235922l0.029298,0.149572l0.320731,0.450257Z M2286.837623,865.321488l0.083267,-0.013878l0.069389,-0.14803l0.041633,-0.018504l0.032381,0.050885l0.069389,-0.02313l0.143404,-0.152655l0.157281,-0.083267l0.083267,-0.180411l-0.02313,-0.097144l-0.083267,0.018504l-0.078641,0.189663l-0.074015,0.027756l-0.064763,-0.032381l-0.027756,-0.050885l0.050885,-0.069389l-0.032381,-0.055511l-0.138778,0.120274l-0.032381,0.14803l-0.115648,0.120274l-0.092518,0.189663l0.032381,0.060137Z M2293.943041,862.884461l0.097144,0.183091l0.180411,0.080381l0.115648,-0.058053l-0.027756,-0.151832l-0.092518,-0.062519l-0.143404,0.017863l-0.092518,-0.058053l-0.037007,0.049122Z M2288.424314,862.94839l0.009252,0.143404l0.074015,0.060137l0.166533,-0.018504l0.092518,-0.171159l0.074015,-0.074015l0.10177,-0.009252l0.092518,-0.097144l0.064763,-0.143404l0.319189,-0.305311l0.037007,-0.1249l-0.083267,-0.083267h-0.10177l-0.009252,0.055511l0.074015,0.013878l0.009252,0.083267l-0.383952,0.388578l-0.277555,0.22667l-0.106396,0.14803l-0.046259,-0.018504l-0.032381,-0.129526l-0.074015,0.055511Z M2288.114378,863.702415l0.097144,0.032381l0.055511,-0.041633l-0.046259,-0.060137l0.027756,-0.046259l0.134152,-0.009252l0.092518,-0.120274l-0.013878,-0.194289l-0.050885,-0.032381l-0.097144,0.050885l-0.055511,0.161907l-0.083267,0.009252l-0.064763,0.037007l-0.041633,0.166533l0.046259,0.046259Z M2287.559267,864.336167v0.097144l0.050885,0.027756l0.092518,-0.078641l0.027756,-0.092518l0.115648,-0.087893l-0.004626,-0.060137l-0.078641,-0.02313l-0.097144,0.143404l-0.106396,0.074015Z M2287.818319,864.086367l0.037007,-0.037007l-0.027756,-0.087893l0.032381,-0.02313h0.060137v-0.115648l-0.129526,-0.027756l-0.069389,0.060137l-0.041633,0.138778l0.032381,0.060137l0.106396,0.032381Z M2288.007981,863.905956l-0.004626,0.111022l0.050885,-0.013878l0.013878,-0.134152l-0.041633,-0.064763l-0.032381,0.037007l0.013878,0.064763Z M2287.864578,863.720919l0.032381,0.050885l0.060137,-0.055511l0.004626,-0.069389l-0.050885,0.004626l-0.046259,0.069389Z M2305.535604,855.676923l0.055511,0.075916l0.120274,0.031259l0.078641,-0.004466l0.152655,0.089313l0.10177,0.107175l0.152655,-0.017863l-0.10177,-0.116107l-0.22667,-0.111641l-0.235922,-0.040191l-0.083267,-0.049122l-0.013878,0.035725Z M2307.450736,862.676064l-0.055511,0.095267l0.074015,0.029771l0.092518,-0.053588l0.086351,-0.226259l-0.061679,-0.065496l-0.129526,0.023817l-0.049343,0.089313l0.043175,0.107175Z M2307.271867,862.765377l0.074015,-0.059542l0.006168,-0.178625l-0.049343,-0.017863l-0.129526,0.077404l-0.092518,-0.017863l-0.074015,-0.101221l-0.191205,0.041679l-0.061679,0.095267l0.006168,0.214351l0.111022,0.095267l0.23438,-0.047633l-0.006168,-0.113129l0.074015,-0.07145l0.098686,0.083359Z M2304.625839,861.973471l0.030839,0.065496l0.215876,-0.005954l0.178869,-0.226259v-0.18458l-0.061679,0.011908l-0.006168,0.101221l-0.049343,0.011908l-0.080183,-0.023817l-0.098686,0.059542l-0.024672,0.130992l-0.104854,0.059542Z M2305.217957,861.116069l0.098686,0.047633l0.296059,-0.005954l0.246716,-0.089313l0.043175,-0.107175l-0.104854,-0.178625l0.080183,-0.107175l0.135694,-0.07145l-0.006168,-0.125038l-0.14803,-0.005954l-0.326899,0.160763l-0.277555,0.32748l-0.037007,0.154809Z M2295.881303,861.495648l0.032381,0.053588l0.185037,0.026794l0.14803,-0.07145l0.14803,-0.098244l-0.050885,-0.017863l-0.185037,0.022328l-0.277555,0.084847Z M2296.931387,861.388472h0.097144l0.078641,-0.080381l-0.013878,-0.080381l-0.078641,-0.013397l-0.027756,0.062519l-0.064763,0.026794l-0.092518,-0.022328l-0.027756,0.049122l0.129526,0.058053Z M2297.713168,860.812405h0.078641l0.027756,-0.062519l-0.004626,-0.093778l-0.074015,-0.013397l-0.078641,0.116107l0.050885,0.053588Z M2299.230471,860.477482l0.111022,-0.075916l-0.004626,-0.075916l-0.083267,-0.004466l-0.078641,0.098244l0.055511,0.058053Z M2299.447889,859.164585l0.055511,-0.031259l-0.004626,-0.089313l-0.078641,0.004466l-0.02313,0.10271l0.050885,0.013397Z M2301.043833,859.928209l0.208167,-0.026794l0.078641,-0.062519l-0.046259,-0.053588l-0.240548,0.017863l-0.064763,0.062519l0.064763,0.062519Z M2302.889576,858.963631l0.060137,-0.017863l0.018504,-0.125038l-0.097144,-0.044656l-0.050885,0.017863l-0.004626,0.098244l0.074015,0.07145Z M2304.730693,863.777588l-0.055511,0.232213l0.120274,0.241144l0.129526,0.062519l0.45334,-0.196488l0.388578,-0.446564l0.212792,-0.098244l0.462592,-0.669846l0.14803,-0.062519l-0.018504,-0.125038l-0.14803,-0.080381l-0.083267,-0.151832l0.064763,-0.125038l-0.064763,-0.205419l-0.175785,-0.053588l-0.370074,0.294732l-0.231296,0.303663l-0.212792,0.125038l-0.14803,0.259007l-0.111022,0.392976l-0.360822,0.303663Z M2297.489582,864.182473l0.080183,-0.309617l0.006168,-0.160763l0.345402,-0.351297h0.185037l0.647629,0.291755l0.049343,0.148855l0.129526,0.005954l0.055511,-0.101221l0.104854,-0.083359l0.141862,-0.005954l0.111022,-0.07145l-0.055511,-0.119084l-0.135694,0.017863l-0.092518,-0.065496l0.030839,-0.273892l0.166533,-0.178625l0.23438,-0.011908l0.123358,-0.089313l0.012336,-0.148855l0.555111,-0.44061l0.505768,0.005954l0.493432,0.220305l-0.030839,0.190534l-0.222044,0.089313l-0.203541,0.25603l0.123358,0.035725l0.191205,-0.077404l0.456424,-0.053588l0.197373,0.059542h0.209709l0.511935,-0.125038l0.14803,0.083359h0.14803l0.302227,-0.303663l0.38241,-0.119084l0.104854,-0.089313l0.098686,-0.035725l0.123358,0.053588l0.339234,-0.011908l0.524271,0.309617l0.11719,-0.041679l-0.037007,-0.136946l0.092518,-0.011908l0.11719,0.095267l0.074015,-0.011908l-0.012336,-0.154809l-0.308395,-0.244121l-0.018504,-0.107175l-0.104854,-0.07145l-0.203541,0.017863l-0.024672,-0.065496l0.129526,-0.089313l0.357738,-0.619235l0.215876,-0.458472l-0.037007,-0.113129l-0.185037,0.005954l-0.123358,0.1429l-0.46876,0.172671l-0.246716,0.25603l-0.431753,0.345343l-0.080183,0.267938l-0.376242,0.226259l-0.166533,0.250076l-0.215876,0.07145l-0.135694,0.130992l-0.474928,0.101221l-0.086351,-0.023817l0.074015,-0.321526l0.191205,-0.428701l0.191205,-0.130992l0.185037,-0.458472l0.413249,-0.345343l0.456424,-0.178625l0.259052,-0.226259l0.246716,-0.44061l0.135694,-0.113129l0.246716,-0.577556l0.746316,-0.577556l0.641461,-0.339388l-0.012336,-0.089313l-0.222044,0.011908l-0.622958,0.315572l-0.197373,0.035725l-0.252884,0.148855l-0.240548,-0.023817l-0.333066,0.07145l-0.407081,-0.130992l-0.326899,0.041679l-0.055511,0.202442l-0.296059,0.083359l-0.172701,-0.07145l-0.437921,0.166717l-0.049343,0.148855l-0.246716,0.053588l-0.23438,0.160763l-0.209709,0.250076l-0.259052,0.101221l-0.129526,0.18458l-0.302227,0.178625l-0.222044,-0.089313l-0.178869,0.029771l-0.111022,-0.041679l-0.228212,0.047633l-0.209709,0.166717l-0.653797,0.119084l-0.055511,0.089313l-0.080183,0.011908l-0.104854,-0.047633l-0.203541,0.029771l-0.098686,0.083359l-0.074015,-0.023817v-0.095267l-0.074015,-0.023817l-0.2498,0.250076l0.009252,0.156297l-0.420959,0.223282l-0.198915,0.214351l-0.169617,0.120572l-0.092518,-0.035725l-0.067847,0.011908l-0.026214,0.108664l-0.254426,0.196488l-0.050885,-0.058053l-0.046259,0.013397l-0.016962,0.114618l-0.080183,0.113129l-0.283723,-0.035725l-0.092518,-0.107175l-0.098686,-0.023817l-0.092518,0.059542l-0.074015,-0.023817l0.012336,-0.083359l-0.14803,-0.101221l-0.222044,0.053588l-0.098686,0.1429l0.098686,0.130992l0.14803,-0.053588l0.074015,0.017863l-0.111022,0.244121l-0.283723,0.023817l-0.209709,0.208396l0.030839,0.381068l0.123358,0.190534l0.289891,-0.130992l0.252884,-0.029771l0.191205,0.130992l-0.024672,0.208396l0.215876,0.279847l0.14803,0.381068l0.246716,0.387022l0.166533,0.029771l0.277555,-0.035725l0.178869,-0.107175Z M2310.038839,864.345889l0.030579,0.103921l0.097852,0.06113l0.091737,-0.024452l0.04281,-0.097808l-0.177358,-0.103921l-0.085621,0.06113Z M2308.363116,865.965833l-0.055042,0.091695l0.110084,0.085582l0.177358,-0.024452l0.048926,-0.079469l-0.036695,-0.085582l-0.244631,0.012226Z M2308.467084,867.127302l-0.085621,0.042791v0.097808l0.097852,0.024452l0.061158,-0.097808l-0.073389,-0.067243Z M2310.888932,866.228692l0.15901,-0.055017l0.006116,-0.128373l-0.110084,-0.073356l-0.146779,0.036678l-0.018347,0.103921l0.110084,0.116147Z M2310.699343,867.451291l0.165126,0.073356l0.15901,-0.055017l0.030579,-0.171164l-0.122316,-0.134486l-0.152894,0.012226l-0.110084,0.165051l0.030579,0.110034Z M2309.610734,869.450241l0.134547,0.134486l0.214052,0.006113l0.146779,-0.110034v-0.18339l-0.140663,-0.116147l-0.250747,0.006113l-0.103968,0.262859Z M2313.133422,869.059009l0.103968,-0.055017l-0.04281,-0.189503l-0.097852,-0.085582l-0.146779,0.042791l-0.012232,0.116147l0.195705,0.171164Z M2311.518857,871.131315h0.183473l0.036695,-0.12226l-0.067274,-0.158938l-0.146779,-0.073356l-0.122316,0.055017l-0.024463,0.110034l0.140663,0.189503Z M2313.164001,872.711525l0.018347,0.128373l0.067274,0.036678l0.1162,-0.116147l0.189589,-0.06113l0.097852,-0.165051l-0.091737,-0.18339l-0.311905,-0.073356l-0.2324,0.110034l-0.036695,0.226181l0.183473,0.097808Z M2310.947934,858.216382l0.074015,-0.023817l-0.012336,-0.053588l-0.080183,-0.017863l-0.024672,0.053588l0.043175,0.041679Z M2310.142807,873.732395l0.103968,-0.018339l0.04281,-0.12226l-0.1162,-0.067243l-0.067274,0.042791l-0.006116,0.116147l0.04281,0.048904Z M2315.235792,874.128481l0.037653,0.044433l0.110582,0.011843l0.146779,-0.091695l-0.04281,-0.067243l-0.085621,0.012226l-0.166583,0.090436Z M2311.998945,865.657126l0.103374,0.120499l-0.006923,0.103794l-0.188188,0.215844l-0.064216,0.293424l0.118042,0.235978l0.078979,0.057425l0.234141,0.01836l0.049691,-0.059877l-0.041536,-0.062276l-0.17328,-0.006219l-0.08286,-0.083735l-0.034614,-0.145311l0.1083,-0.21109l0.165126,-0.073356l0.155782,-0.158407l0.020768,-0.103794l-0.158203,-0.232952l-0.605462,-0.192559l-0.067061,0.024176l-0.006328,0.085858l0.394468,0.17422Z M2312.448455,865.58377l0.055042,0.064186l0.10091,-0.045847l0.027521,-0.128373l-0.091737,0.009169l-0.091737,0.100864Z M2313.264911,866.280652l0.10091,-0.045847l-0.036695,-0.082525l-0.110084,-0.009169l-0.018347,0.119203l0.064216,0.018339Z M2312.668623,866.913347l0.10091,-0.091695l0.009174,-0.128373l-0.119258,0.036678l-0.073389,0.165051l0.082563,0.018339Z M2304.490145,875.427588l0.14803,0.252884l0.104854,-0.037007l0.024672,-0.154197l0.092518,-0.104854l-0.024672,-0.074015l-0.129526,0.043175l-0.018504,-0.080183l0.413249,-0.203541l-0.024672,-0.123358l-0.296059,-0.024672l-0.450257,0.185037l-0.067847,0.129526l0.228212,0.191205Z M2315.222287,875.720564l0.157281,-0.027756l0.037007,-0.14803l-0.14803,-0.092518l-0.14803,0.083267l0.010107,0.08697l0.091664,0.098067Z M2314.783053,878.730005l-0.09309,0.027927l-0.106054,0.126763l0.018504,0.194289l0.277555,0.185037l0.145117,-0.012714l0.046545,-0.065163l-0.015877,-0.060901l-0.111022,0.018504l-0.212792,-0.129526l-0.037007,-0.120274l0.10177,-0.092518l-0.013649,-0.071423Z M2315.916175,879.227013l0.111022,-0.064763l0.009252,-0.286807l-0.092518,-0.027756l-0.083267,0.074015l-0.037007,0.259052l0.092518,0.046259Z M2315.795901,879.569332l0.129526,-0.018504l0.064763,-0.074015l-0.064763,-0.074015l-0.129526,0.009252l-0.064763,0.092518l0.064763,0.064763Z M2312.233941,877.968762l0.157281,0.018504l0.129526,-0.212792l-0.092518,-0.286807l-0.111022,-0.055511l-0.194289,0.129526l-0.027756,0.203541l0.138778,0.203541Z M2312.705785,877.182355l0.10177,-0.120274l-0.009252,-0.111022l-0.111022,0.009252l-0.175785,0.185037l0.064763,0.083267l0.129526,-0.046259Z M2314.472887,877.071333l0.194289,-0.046259l0.018504,-0.083267l-0.45334,-0.037007l-0.071434,0.063239l0.032479,0.064957l0.279504,0.038337Z M2303.682151,878.900115l-0.074015,0.370074l0.098686,0.135694l0.185037,-0.012336l0.123358,-0.172701l-0.074015,-0.308395l-0.259052,-0.012336Z M2306.396026,877.617192l0.160365,0.024672l0.016162,0.101392l-0.055854,0.130325l0.074472,0.027927l0.158252,-0.130325l0.0006,-0.112128l-0.070275,-0.140549l-0.357738,-0.037007l-0.160365,0.172701l-0.05454,0.331089l0.074472,0.083781l0.078755,-0.057132l0.037007,-0.308395l0.098686,-0.086351Z M2295.321566,877.126844l-0.115648,0.138778l0.02313,0.175785l0.120274,0.046259l0.027756,0.092518l0.074015,-0.009252l0.041633,-0.115648l0.14803,-0.046259l0.037007,-0.1249l-0.10177,-0.171159l-0.254426,0.013878Z M2295.700892,876.941807l0.083267,-0.013878l0.004626,-0.078641l-0.046259,-0.032381l-0.050885,0.02313l-0.032381,0.055511l0.041633,0.046259Z M2292.009405,879.000343l0.735522,0.083267l0.203541,-0.060137l0.222044,-0.161907l0.069389,0.041633l-0.060137,0.166533l0.083267,0.050885l0.180411,-0.106396l0.027756,-0.185037l-0.111022,-0.055511l-0.078641,-0.115648l0.018504,-0.194289l0.1249,-0.111022l0.175785,0.032381l0.138778,-0.078641l0.004626,-0.134152l0.055511,-0.064763l0.071882,0.039997l0.103903,-0.035371l0.013878,-0.097144l0.11719,-0.052427l0.111022,0.052427l0.00453,0.11001l0.044235,0.078641h0.117961l0.046693,0.051608l-0.080809,0.088182l0.064763,0.037007l0.245174,0.027756l0.2498,-0.10177l-0.009252,-0.120274l0.055511,-0.027756l0.1249,0.106396l0.14803,0.004626l0.166533,-0.240548l-0.050885,-0.222044l-0.134152,-0.092518l-0.129526,0.013878l-0.078641,0.138778l-0.046259,-0.032381l0.009252,-0.134152l-0.046259,-0.060137l-0.300685,-0.092518l-0.240548,-0.004626l-0.268304,0.083267l-0.083267,0.120274l-0.083267,0.032381l-0.143404,-0.032381l-0.306853,0.080183l-0.23438,0.141862l0.004626,0.337692l-0.055511,0.046259l-0.087893,-0.046259l-0.115648,0.046259l-0.027756,0.157281l-0.1249,0.018504l-0.180411,-0.069389l-0.259052,0.069389l-0.064763,0.143404l-0.152655,0.069389l-0.268304,0.027756l-0.028214,0.160459l0.111481,0.070837Z M2292.83965,879.19287l0.035913,0.063846l0.075817,-0.015961l0.00399,-0.079807l-0.043894,-0.055865l-0.063846,0.023942l-0.007981,0.063846Z M2293.378348,878.53047l-0.027933,0.047884l0.039904,0.059855l0.075817,-0.00399l0.039904,-0.071827l-0.103749,-0.10774l-0.035913,0.023942l0.011971,0.051875Z M2295.724021,876.687381l0.027756,-0.050885l-0.018504,-0.064763l-0.037007,0.004626l-0.013878,0.092518l0.041633,0.018504Z M2295.700892,876.363567l0.013878,-0.069389l-0.041633,-0.004626l-0.041633,0.074015l0.027756,0.046259l0.041633,-0.046259Z M2315.384194,877.848488h0.087893v-0.064763l-0.083267,-0.027756l-0.064763,0.046259l0.060137,0.046259Z M2315.66175,877.70971l0.050885,-0.097144l-0.018504,-0.055511l-0.074015,0.037007l-0.032381,0.134152l0.074015,-0.018504Z M2313.154499,878.00577l0.046259,-0.041633l-0.013878,-0.050885l-0.060137,-0.004626l-0.037007,0.064763l0.064763,0.032381Z M2314.454384,875.868593l0.092518,-0.046259l-0.02313,-0.055511l-0.143404,0.032381l-0.041633,0.046259l0.115648,0.02313Z M2307.436858,860.932977l0.083267,-0.017863l0.046259,-0.058053h-0.138778l-0.041633,0.031259l0.050885,0.044656Z M2286.435168,866.820287l0.069389,-0.050885l-0.046259,-0.060137l-0.041633,0.009252l-0.032381,0.069389l0.050885,0.032381Z M2286.143734,868.208064l0.041633,-0.083267l-0.032381,-0.037007l-0.046259,0.041633l-0.009252,0.060137l0.046259,0.018504Z M2285.94482,868.342216l0.050885,-0.009252l-0.02313,-0.074015l-0.097144,-0.050885l-0.004626,0.050885l0.074015,0.083267Z M2286.684823,865.584299l0.023274,-0.022262l-0.032381,-0.050885l-0.037007,0.018504l0.009252,0.050885l0.036863,0.003759Z M2286.791364,865.441762l0.050885,-0.032381l-0.02313,-0.050885l-0.046259,0.009252l-0.018504,0.060137l0.037007,0.013878Z M2286.726601,865.474144l-0.009252,0.041633l0.046259,0.097144l0.02313,-0.037007l-0.032381,-0.074015l-0.027756,-0.027756Z M2285.769035,868.291331l0.02313,0.050885l0.037007,-0.004626l0.018504,-0.046259l-0.032381,-0.02313l-0.046259,0.02313Z M2285.875431,867.666831l0.037007,-0.060137l-0.009252,-0.050885l-0.041633,0.004626l-0.013878,0.074015l0.027756,0.032381Z M2285.861553,867.393902l0.046259,-0.027756l0.013878,-0.064763l-0.046259,-0.013878l-0.037007,0.046259l0.02313,0.060137Z M2286.655333,865.660482l0.031948,0.012288l0.027033,-0.024575l-0.012288,-0.02949l-0.041778,0.007373l-0.004915,0.034405Z M2288.537794,862.819587v0.024575l0.02949,0.022118l0.024575,-0.01966l-0.014745,-0.031948l-0.03932,0.004915Z M2288.606605,863.220163l0.02949,0.022118l0.066353,-0.022118v-0.03932l-0.046693,-0.004915l-0.041778,0.012288l-0.007373,0.031948Z "/>
</svg>
