<svg xmlns="http://www.w3.org/2000/svg" viewBox="1066.512 274.315 9.623 10.135">
  <path d="M1066.982482,277.172625l0.289891,-0.012512l0.333066,0.2127l-0.067847,0.056303l-0.283723,-0.043791l-0.277555,0.012512l-0.222044,-0.050047l-0.141862,0.043791l-0.098686,-0.031279l0.46876,-0.187677Z M1071.124081,282.142491l0.135164,0.119644l-0.012288,0.042374l-0.063896,0.029911l0.012288,0.064807l0.120081,0.053371l0.015082,0.028885l-0.033586,0.093105l0.058595,0.071943l0.107697,0.031866l0.078641,0.069792l0.014745,0.102196l0.130249,0.112166l0.149764,0.084357l0.049343,0.081327l-0.092518,0.187677l0.235007,0.347055l0.640835,0.431803l0.055511,0.136066l0.416333,0.211136l0.166533,0.009384l0.060137,-0.09853l-0.064763,-0.159525l-0.097144,-0.042227l-0.027756,-0.046919l0.027756,-0.089146l-0.037007,-0.067251l-0.154197,0.006256l-0.018504,-0.075071l0.055511,-0.043791l-0.067847,-0.075071l-0.259052,0.068815l-0.037007,0.100094l-0.074015,-0.043791v-0.087582l-0.125767,-0.089782l-0.135164,-0.027418l-0.011998,-0.040761l0.365448,0.051611l0.166533,-0.10635l0.240548,-0.075071l-0.037007,-0.062559l-0.185037,0.006256l-0.185037,-0.087582l0.033923,-0.046919l0.169617,0.01564l0.058595,-0.028152l-0.055511,-0.087582l-0.021588,-0.096966l-0.111022,-0.021896l-0.172701,-0.009384l-0.083267,-0.050047l-0.077099,0.012512l-0.033923,-0.037535l0.067847,-0.028152l-0.009252,-0.050047l-0.23438,-0.12199l0.014552,-0.042325l0.054065,0.00997l0.30719,0.171988l0.173135,-0.002004l0.104854,-0.093838l-0.043175,-0.062559l-0.092518,-0.006256l-0.037007,-0.056303l0.086351,-0.062559l-0.049343,-0.068815l-0.222044,-0.050047l-0.14803,0.043791l-0.14803,-0.050047l-0.098686,-0.143886l-0.333066,-0.012512l-0.281121,0.054055l-0.071268,-0.069792l0.027033,-0.027418l0.120419,-0.022433l0.134007,-0.115832l0.181953,-0.093838l-0.030839,-0.031279l-0.157281,0.037535l-0.11719,-0.006256l-0.003084,-0.056303l0.215876,-0.075071l-0.024672,-0.075071l-0.166533,-0.037535l-0.339234,0.031279l-0.049343,0.037535l0.037007,0.075071l-0.037007,0.037535l-0.076183,0.020478l-0.044235,0.069792Z M1072.040158,280.669669l0.098686,0.118862l0.191205,0.10635h0.172701l0.043175,-0.093838 l-0.129526,-0.218956l-0.178869,-0.068815l-0.135694,0.043791l-0.061679,0.112606Z M1072.68162,281.345305l0.02019,0.171548l0.046693,0.042374l0.110588,0.004985l0.041778,-0.044866l-0.04915,-0.129614l-0.127791,-0.084748l-0.042308,0.040321Z M1075.606745,275.062825l0.138778,0.056303l0.309937,-0.112606l0.078641,-0.12199l-0.083267,-0.070379l-0.138778,0.056303l-0.092518,-0.032843l0.02313,-0.046919l-0.041633,-0.070379l-0.10177,-0.004692l-0.106396,0.060995l-0.02313,0.211136l0.037007,0.075071Z M1075.042382,275.616472l0.14803,0.103222l0.009252,0.09853l0.037007,0.136066l0.097144,0.004692l0.319189,-0.089146l0.055511,-0.178293v-0.065687l-0.157281,-0.079763l0.02313,-0.046919l0.152655,-0.014076l0.115648,0.037535l0.074015,-0.02346v-0.103222l-0.074015,-0.079763l-0.1249,-0.014076l-0.060137,-0.079763l-0.175785,0.014076l-0.097144,0.197061l-0.069389,0.042227l-0.087893,-0.032843l-0.115648,0.028152l-0.064763,0.084455l-0.004626,0.060995Z M1071.07334,278.342477l-0.027756,0.046919l0.087893,0.060995l0.129526,0.028152l0.097144,0.065687l0.041633,0.065687l0.046259,-0.032843l-0.087893,-0.136066l-0.166533,-0.084455l-0.120274,-0.014076Z M1071.67471,278.769441l0.161907,0.126682l0.106396,0.126682l0.097144,0.018768l0.02313,-0.056303l-0.1249,-0.197061l-0.138778,-0.12199l-0.175785,-0.037535l-0.064763,0.032843l0.009252,0.065687l0.106396,0.042227Z M1073.26704,278.199227l0.046693,0.112166l-0.022118,0.181958l0.022118,0.07727l0.108131,0.032404l0.103216,0.134599v0.084748l0.054065,0.057329l0.152366,-0.089733l-0.007373,-0.102196l-0.093386,-0.08724l-0.014745,-0.114659l-0.073726,-0.08724l-0.088471,-0.027418l-0.056523,-0.062315l-0.01966,-0.117151l-0.140079,-0.079763l-0.02949,0.037389l0.058981,0.049852Z M1068.261068,277.511274l-0.105673,-0.004985l-0.056523,0.024486l-0.004626,0.056303l0.184025,-0.001026l0.051897,-0.036509l-0.0691,-0.038268Z M1071.526681,279.318396l0.111022,0.164217v0.107914l0.161907,0.286207l-0.027756,0.079763l0.161907,0.22052l0.074015,-0.004692l0.004626,-0.089146l0.208167,-0.060995l0.074015,0.028152l0.087893,0.075071l0.055511,-0.018768l-0.032381,-0.070379l0.050885,-0.032843l0.175785,0.070379l0.10177,0.136066l0.018504,0.178293l0.222044,0.258056l0.115648,0.056303l0.115648,0.136066l0.115648,-0.004692l0.087893,-0.089146l-0.013878,-0.131374l-0.048508,-0.07279l0.02313,-0.046919l0.076264,-0.030433l-0.02313,-0.136066l-0.074015,-0.018768l-0.018504,-0.042227l0.166533,-0.070379l0.092518,-0.103222l-0.060137,-0.065687l-0.1249,-0.004692l-0.129526,-0.206444l-0.152655,-0.112606l-0.134152,0.004692l-0.407081,-0.154833l-0.055511,-0.093838l-0.208167,-0.093838l-0.2498,0.009384l-0.175785,-0.107914l-0.185037,-0.009384l-0.240548,-0.056303l-0.037007,0.051611l0.097144,0.065687Z M1072.410232,274.801642l0.006168,0.112606l0.178869,0.300283l0.141862,0.100094l0.283723,0.331562l-0.030839,0.156397l0.024672,0.143886l0.172701,0.112606l0.172701,0.031279l0.074015,-0.075071l-0.018504,-0.181421l-0.123358,-0.075071l-0.11719,-0.125118l-0.012336,-0.112606l-0.394745,-0.494215l-0.123358,-0.337818l-0.166533,-0.150141h-0.111022l-0.024672,0.125118l0.067847,0.13763Z M1073.144212,275.208275l0.172701,0.150141l0.067847,0.256492l0.252884,0.175165l0.166533,0.006256l0.030839,-0.100094l-0.098686,-0.362842l-0.077099,-0.140758l-0.126442,-0.096966l-0.123358,-0.200189l0.012336,-0.081327l-0.037007,-0.150141l-0.178869,-0.100094l-0.111022,0.068815l-0.030839,0.300283l0.080183,0.275259Z M1074.124908,274.613965l0.030839,0.087582l-0.067847,0.087582l0.030839,0.143886l0.086351,0.056303l0.098686,0.262747l0.086351,0.13763l0.474928,0.13763l0.092518,-0.025024l-0.006168,-0.068815l0.154197,-0.125118l-0.012336,-0.100094l-0.178869,-0.125118l-0.154197,0.018768l-0.030839,0.143886l-0.067847,0.006256v-0.193933l-0.043175,-0.112606l-0.123358,-0.062559l-0.104854,-0.143886l-0.049343,-0.250236l-0.160365,-0.150141l-0.178869,-0.025024l-0.141862,0.075071l-0.012336,0.100094l0.277555,0.125118Z M1068.029483,277.136653l0.254426,0.248672l0.4996,0.12199l0.232019,0.103662l-0.02949,0.027418l-0.196602,-0.049852l-0.269605,-0.048385l-0.143404,0.018768l-0.013878,0.060995l0.120274,0.089146l0.046259,0.075071l0.370074,0.060995l0.069389,0.060995l0.360822,0.070379l0.198915,0.150141l0.22667,0.02346l0.35157,-0.117298l0.027756,-0.042227l-0.074015,-0.056303l-0.180411,-0.037535v-0.037535l0.143404,0.014076l0.041633,-0.070379h0.046259l0.009252,0.051611l0.143404,0.060995l0.296059,-0.02346l0.060137,-0.079763l-0.02313,-0.09853l0.037007,-0.056303l0.087893,-0.042227l0.013878,-0.084455l-0.064763,-0.140758l-0.166533,-0.075071h-0.291433l-0.22667,-0.126682l-0.060137,-0.131374l-0.111022,-0.079763l-0.14803,-0.028152l-0.166533,-0.117298l0.02313,-0.093838l-0.069389,-0.032843l-0.471844,0.168909l-0.092518,-0.018768l-0.074015,0.032843l0.027756,0.075071l-0.092518,0.09853l-0.217418,-0.014076l-0.087893,-0.089146l-0.309937,-0.112606l-0.115648,0.065687l0.009252,0.225212Z M1073.810345,275.120692l0.055511,0.181421l-0.030839,0.215828l0.018504,0.084455l0.058595,0.040663l0.027756,0.115734l-0.089435,0.12199l0.009252,0.087582l-0.033923,-0.006256l-0.027756,-0.071943l-0.098686,-0.021896l-0.080183,0.018768l-0.024672,0.050047l0.052427,0.181421l0.104854,0.09071l0.11719,0.175165l0.129526,0.100094l0.092518,0.12199l0.086351,0.043791l0.074015,-0.028152l0.003084,-0.065687l-0.061679,-0.065687l-0.055511,-0.09071l-0.018504,-0.12199l-0.070931,-0.081327l-0.052427,-0.10635l0.052427,-0.01564l0.067847,0.028152l0.123358,0.2127l0.188121,0.165781l0.107938,0.059431l0.252884,0.009384l0.080183,-0.053175l-0.003084,-0.056303l-0.074015,-0.056303v-0.040663l0.049343,-0.056303l-0.012336,-0.087582l-0.080183,-0.040663l-0.144946,-0.003128l-0.169617,-0.093838l-0.166533,-0.175165l-0.037007,-0.100094l0.021588,-0.028152l0.083267,0.034407l0.083267,0.103222l0.228212,0.118862l0.215876,-0.031279l0.083267,-0.071943l0.043175,-0.143886l-0.052427,-0.065687l-0.10177,-0.009384l-0.178869,-0.084455l-0.243632,-0.062559l-0.104854,-0.096966l0.009252,-0.10635l-0.052427,-0.096966l-0.046259,-0.018768l-0.255968,-0.331562l-0.012336,-0.153269l-0.030839,-0.056303l-0.104854,-0.031279l-0.080183,0.037535l-0.052427,0.150141l0.003084,0.131374l0.126442,0.147013Z M1070.399497,275.308369h0.098686l0.092518,0.062559l0.185037,0.381609l0.024672,0.118862l0.252884,0.250236l0.098686,0.2127l0.092518,0.093838l0.129526,0.043791l0.215876,0.2127l0.086351,0.031279l0.191205,-0.012512l0.160365,0.093838l0.104854,0.181421l0.123358,0.100094l0.228212,0.125118l0.172701,0.218956l0.086351,0.006256l-0.030839,-0.112606l0.074015,-0.162653l-0.018504,-0.231468l-0.191205,-0.24398l-0.26522,-0.143886l-0.215876,-0.156397l0.043175,-0.037535l0.11719,0.018768l0.413249,0.218956l0.26522,0.344074l0.037007,0.275259l-0.080183,0.006256l-0.049343,0.056303l0.043175,0.218956l0.14803,0.200189l0.141862,0.10635l0.067847,-0.056303l-0.030839,-0.093838l0.024672,-0.2127l-0.043175,-0.100094l0.037007,-0.043791l0.135694,0.037535l0.215876,-0.031279l0.043175,-0.075071l-0.074015,-0.100094l-0.160365,-0.087582l-0.172701,-0.031279l-0.104854,-0.050047l0.037007,-0.056303l0.246716,0.006256l0.437921,0.143886l0.061679,-0.018768l-0.104854,-0.087582l-0.141862,-0.037535l-0.209709,-0.13763l-0.23438,-0.062559l-0.067847,-0.081327l-0.320731,-0.100094l-0.018504,-0.075071l0.055511,-0.081327l0.376242,0.056303l0.320731,0.10635l0.074015,-0.050047l-0.024672,-0.112606l-0.111022,-0.075071l-0.431753,-0.10635l-0.055511,-0.068815l-0.185037,-0.037535l-0.104854,0.062559l-0.191205,-0.006256l-0.141862,-0.093838l-0.043175,-0.10635l0.055511,-0.031279l0.074015,0.056303h0.129526l0.098686,-0.087582l-0.006168,-0.150141l-0.104854,-0.081327l-0.252884,-0.037535l-0.215876,0.081327l-0.061679,-0.025024l0.067847,-0.118862l0.123358,-0.062559l-0.006168,-0.075071l-0.141862,-0.037535l-0.511935,0.10635l-0.092518,0.187677l-0.012336,0.112606l0.074015,0.125118l0.006168,0.068815l-0.111022,-0.087582l-0.061679,-0.193933l0.037007,-0.068815l0.012336,-0.100094l-0.043175,-0.087582l0.172701,-0.143886l0.203541,-0.093838l-0.024672,-0.075071l-0.172701,-0.050047l-0.104854,-0.100094l-0.228212,-0.093838l-0.228212,0.093838l-0.074015,0.093838l-0.23438,0.131374l-0.135694,0.006256l-0.074015,-0.100094h-0.080183l-0.074015,0.175165l0.061679,0.050047Z M1069.381794,276.503244l0.006168,0.081327l0.129526,0.006256l0.111022,0.081327l0.018504,0.100094l0.086351,0.075071l0.209709,0.025024l0.049343,-0.087582l0.098686,-0.018768l0.061679,0.043791l-0.104854,0.037535l-0.055511,0.131374l0.141862,0.168909l0.283723,0.056303l0.197373,-0.031279l0.209709,0.012512l0.197373,0.156397l0.123358,0.225212v0.262747l0.154197,0.143886l0.23438,-0.031279l0.080183,0.081327l0.098686,0.306539l0.333066,0.2127l0.160365,0.050047l0.098686,0.118862l0.314563,0.2127l0.240548,0.043791l0.061679,-0.081327l-0.055511,-0.087582l0.006168,-0.118862l0.043175,-0.100094l-0.018504,-0.056303l-0.191205,-0.062559l-0.080183,-0.093838l0.030839,-0.050047l0.074015,-0.006256l0.061679,-0.075071l0.006168,-0.175165l-0.111022,-0.181421l-0.252884,-0.056303l-0.203541,0.050047l-0.246716,-0.093838l-0.123358,0.006256l-0.14803,-0.056303l0.012336,-0.056303l0.123358,0.037535h0.104854l0.141862,0.050047l0.154197,-0.006256l0.166533,-0.056303l0.049343,-0.068815l-0.203541,-0.250236l-0.259052,-0.125118h-0.172701l-0.14803,0.100094l-0.154197,-0.006256l-0.030839,-0.043791l0.11719,-0.012512l0.172701,-0.143886l0.172701,-0.012512l0.024672,-0.075071l-0.074015,-0.112606l-0.203541,-0.131374l-0.129526,0.012512l-0.061679,-0.031279l-0.012336,-0.100094l-0.222044,-0.162653l-0.326899,-0.081327l0.012336,-0.056303l0.086351,-0.018768l0.037007,-0.075071l-0.092518,-0.162653l-0.111022,-0.037535l-0.246716,-0.300283l-0.086351,-0.250236l-0.111022,-0.150141l-0.154197,-0.056303l-0.104854,0.037535l-0.055511,-0.025024l0.030839,-0.087582l-0.160365,-0.081327l-0.185037,0.075071l-0.135694,-0.018768l-0.089435,0.117298l-0.074015,0.34251l0.055511,0.089146l0.078641,0.018768l0.010794,0.026588l-0.075557,0.039099l-0.060137,0.336254l-0.141862,0.287771Z M1073.047177,282.108947l0.074015,-0.003128l0.037007,-0.043791l-0.030839,-0.053175l-0.070931,-0.003128l-0.043175,0.031279l-0.012336,0.046919l0.046259,0.025024Z "/>
</svg>
