<svg xmlns="http://www.w3.org/2000/svg" viewBox="1173.577 448.309 6.776 13.412">
  <path d="M1178.293968,461.433696l0.064763,-0.060251l0.097144,0.004635l0.018504,0.083424l-0.064763,0.046347l-0.083267,-0.027808l-0.032381,-0.046347Z M1178.349479,461.721045l0.050885,-0.050981l-0.037007,-0.101962l-0.078641,0.004635l-0.02313,0.101962l0.087893,0.046347Z M1179.047994,460.038663l0.041633,-0.032443v-0.046347l-0.050885,-0.004635l-0.02313,0.060251l0.032381,0.023173Z M1179.085001,459.908893l0.041633,0.023173l0.032381,-0.027808l-0.009252,-0.050981l-0.041633,0.004635l-0.02313,0.050981Z M1174.350451,453.090701l-0.118689,0.006995l-0.110722,-0.045445l-0.084766,0.045445l-0.020945,0.076944l0.031696,0.087715l-0.086351,0.098873l-0.135694,0.024718l-0.086351,0.055616l-0.086351,-0.030898l-0.055511,0.055616l0.049343,0.105052l0.012336,0.148309l0.055511,0.055616l0.098901,-0.020041l0.097744,-0.083939l0.083781,-0.02798l0.101984,0.026907l0.044632,0.071022l-0.034909,0.069949l-0.108409,0.087672l0.013878,0.064885l0.103312,0.015449l0.086034,0.057558l0.179186,0.028956l0.096031,0.039266l0.067419,0.118313l-0.004583,0.077545l-0.06987,0.041569l-0.295621,0.038465l-0.319189,0.101962l-0.121816,0.058706l-0.049803,0.002321l-0.067387,-0.033219l-0.037007,0.037077l0.049343,0.067975l0.049343,0.018539l0.084809,-0.035532l0.050885,0.041712l-0.046259,0.101962v0.064885l0.064763,0.032443l0.018504,0.115866l-0.032381,0.060251l-0.078641,0.032443v0.041712l0.086351,0.013904l0.066305,-0.013904l0.00771,0.050981l-0.178869,0.092693l-0.012336,0.049436l0.160365,-0.037077l0.055511,0.067975l-0.064763,0.091148l0.021588,0.026263l0.131068,-0.040167l0.074015,0.009269l0.235922,0.125136l0.02313,0.078789l0.046259,0.018539l0.09406,-0.012359l0.092518,-0.049436l0.086351,0.043257l0.091299,0.228933l0.111022,0.061795l0.061679,0.086514l-0.061679,0.123591l-0.271387,0.074155l-0.209709,0.098873l-0.061679,0.148309l0.098686,0.049436l-0.049343,0.098873l-0.123358,0.074155h-0.23438l-0.049343,0.13595l0.163335,0.12545l-0.004654,0.069949l-0.074472,0.093265l-0.013963,0.097929l0.053112,0.033616l0.135694,-0.061795l0.23438,0.024718l0.23775,-0.010528l0.107053,-0.041969l0.136293,-0.12053l0.138321,-0.010042l0.158252,0.079276l0.076585,0.171768l-0.027756,0.055616l-0.092518,0.037077l-0.018504,0.086514l0.061679,0.080334l-0.030839,0.117411l-0.074015,0.018539l-0.111022,-0.018539l-0.034951,0.024861l0.032581,0.060622l0.107224,0.031928l0.024672,0.067975l-0.067847,0.098873l-0.141862,0.037077l-0.074015,0.067975l-0.111022,-0.018539l-0.039692,0.017823v0.046633l0.101371,0.090033l-0.018504,0.092693l-0.141862,0.12977l-0.123358,0.055616l-0.05968,-0.032357h-0.074472l-0.044717,0.032357l0.037007,0.049436l0.165939,0.016391l0.065186,0.032387l0.034095,0.074813l0.092518,0.027808l0.298627,-0.102355l0.082098,-0.004929l0.063364,0.051668l-0.049343,0.126681l0.058595,0.049436l0.203541,-0.027808l0.105511,0.028523l0.107281,0.082709l0.125442,0.047863l0.232724,-0.009327l0.055854,0.041969l-0.016191,0.058534l-0.100171,0.016078l-0.074472,0.065286l-0.028898,0.104022l-0.064763,0.064885l-0.460222,0.124878l-0.055854,0.079276l-0.06679,0.222235l0.099372,0.090204l0.002399,0.048836l-0.055511,0.064885l0.037007,0.092693l0.279121,0.077391l0.060072,0.064068l0.022852,0.061068l-0.030497,0.06334l0.074015,0.049436l0.091999,-0.031978l0.078589,0.00314l0.063792,0.041197l-0.055511,0.061795l0.030839,0.030898l0.172701,-0.009269l0.129526,0.083424l0.333066,0.12977h0.166533l0.103912,0.03991l0.116362,0.079276l0.106625,0.010585l0.089418,-0.084871l0.050645,-0.028306l0.023387,0.020484l-0.05535,0.131704l0.004036,0.062323l0.051313,0.046976l0.088321,-0.021328l0.067678,0.015221l0.075297,0.061723l-0.017304,0.083939l-0.130725,0.147794l0.019018,0.097027l0.062835,0.020985l0.167947,-0.01605l0.211393,0.067346l0.079126,0.097929l0.098058,0.04792l0.153284,0.012702l0.107053,-0.041969l0.220759,-0.322967l0.037007,-0.101962l-0.034352,-0.022744l-0.067419,0.013475l-0.138778,0.157578l-0.058595,-0.00618l0.040091,-0.114322l0.009252,-0.13286l0.047887,-0.05759l0.121016,-0.02798l0.210422,-0.217228l0.027756,-0.12977l-0.083267,-0.074155l0.055511,-0.203925l0.240548,-0.213194l0.129526,-0.018539l0.175785,-0.203925l0.009252,-0.111232l-0.203541,-0.046347h-0.14803l-0.10177,0.12977h-0.083267l-0.038092,-0.039967l0.038092,-0.117612l0.129526,-0.148309l0.074015,-0.009269l0.064763,0.074155l0.112507,0.009841l0.054139,-0.035403l0.006369,-0.03921l-0.034238,-0.046461l0.064763,-0.064885l0.071936,0.001802l0.079063,-0.030354l0.040206,-0.122847l-0.061679,-0.111232l0.037007,-0.111232l0.123358,-0.067975l0.056596,-0.16496l-0.010683,-0.33911l-0.074015,-0.123591l-0.012336,-0.185386l0.074015,-0.173027l0.005625,-0.129284l-0.079126,-0.181867l0.004654,-0.097929l0.088435,-0.200521l0.018618,-0.149225l0.011136,-0.217543l0.14803,-0.308977l0.727812,-0.914573l0.061679,-0.308977l-0.012336,-0.716827l0.037007,-0.321336l-0.012336,-0.210105l-0.111022,-0.383132l-0.049343,-0.296618l0.074015,-0.346055l-0.012336,-0.2719l-0.086351,-0.296618l0.037007,-0.358414l-0.049343,-0.2719l-0.493432,-0.642673l-0.024672,-0.296618l0.111022,-0.580877l0.160365,-0.234823v-0.259541l-0.135694,-0.914573l-0.086351,-0.197745l0.012336,-0.247182l-0.185037,-0.160668l-0.308395,-0.037077l-0.20474,0.032471l-0.088435,0.069949l-0.027556,0.157121l0.123358,0.234823l0.015905,0.167649l-0.060508,0.093265l-0.15277,0.072781l-0.037007,0.123591l0.082724,0.153373l0.003626,0.130886l-0.111022,0.111232v0.148309l0.135323,0.155175l0.051199,0.116582l0.027927,0.345082l-0.029412,0.112348l-0.111022,0.148309l-0.024672,0.160668l-0.111022,0.13595l-0.100885,0.02097l-0.069817,-0.051296l-0.069817,-0.158551l-0.104883,-0.095382l-0.23438,-0.123591l-0.14803,0.024718l-0.222044,-0.074155l-0.300685,0.063226l-0.172216,0.116582l-0.23024,0.252761l-0.008546,0.119864l-0.077719,0.093702l-0.197458,0.132488l-0.333066,0.061795l-0.209709,-0.037077l-0.260479,0.047977l-0.125671,0.116582l-0.097744,0.055959l-0.243918,0.039023l-0.081896,0.040253l-0.051171,0.116582l-0.014963,0.127424l-0.106082,0.091749l-0.186179,0.01399l-0.127156,-0.062482l-0.08695,-0.142702l-0.060508,0.01399l-0.025243,0.048378l0.048515,0.13349l-0.009309,0.111918l-0.111707,0.135235l-0.192718,0.089003l-0.061679,0.067975l-0.024672,0.148309l-0.061679,0.074155l0.018504,0.074155l0.123358,-0.012359l0.012336,0.074155l-0.135694,0.148309l-0.018504,0.067975l0.067847,0.074155l-0.02964,0.075528Z "/>
</svg>
