<svg xmlns="http://www.w3.org/2000/svg" viewBox="1079.441 338.496 49.391 52.185">
  <path d="M1086.418758,380.101125l0.079895,0.157596l-0.005658,0.148631l-0.064957,0.046398l-0.083516,-0.055678l0.00928,-0.250549l0.064957,-0.046398Z M1105.072513,339.738326l0.056541,-0.034163l0.113082,0.009317l0.043976,0.068326l0.075388,0.04348l0.128788,0.009317l0.037694,-0.037269l-0.018847,-0.105595l-0.103659,-0.062115l-0.185329,0.031057l-0.122506,-0.024846l-0.084812,0.02174l0.003141,0.055903l0.056541,0.024846Z M1112.768382,357.752451l0.059682,-0.065721l0.062823,-0.021907l0.015706,0.025037l-0.043976,0.040684l-0.072247,0.037555l-0.021988,-0.015648Z M1096.012566,352.94419l0.006091,-0.05222l0.022677,-0.025876l0.027959,0.005224l0.002864,0.033642l-0.025752,0.041327l-0.033839,-0.002097Z M1095.714965,353.683302l0.0534,0.137933l-0.003141,0.106585l0.0534,0.134799l0.08167,0.068967l0.078529,0.119124l0.113082,0.034483l0.109941,0.062697l0.034553,0.090911l0.069106,0.059562l0.012565,0.047023l-0.084812,0.062697l-0.141353,0.00627l-0.094235,-0.040753l-0.276423,-0.366777l-0.147635,-0.31035l-0.015706,-0.163012l0.0534,-0.100315l0.113082,-0.040753l0.025129,0.012539l-0.031412,0.037618l-0.003141,0.040753Z M1096.279541,354.423568l-0.018013,-0.016115l0.010503,-0.018858l0.020025,0.002498l0.007509,0.019985l-0.020025,0.01249Z M1122.250007,375.392316l0.127217,0.004791l0.042406,0.038327l-0.042406,0.023955h-0.0801l-0.070676,-0.033536l0.023559,-0.033536Z M1121.030398,378.278242l0.042553,-0.017816l-0.010012,-0.022907l-0.100125,0.00509l-0.007509,0.017816l0.075094,0.017816Z M1121.173076,378.296058l0.050062,-0.020361l0.032541,0.007636l-0.007509,0.030542l-0.060075,0.025452l-0.027534,-0.015271l0.012516,-0.027997Z M1121.648669,378.1688l-0.037547,-0.045813l0.022528,-0.035632l0.105131,-0.010181l0.022528,0.017816l-0.012516,0.043268l-0.100125,0.030542Z M1121.64116,378.377504l0.007509,-0.022907l0.04005,-0.017816l0.025031,0.007636l-0.017522,0.030542l-0.025031,0.012726l-0.030037,-0.010181Z M1121.726266,378.318965l-0.070087,-0.055994l-0.005006,-0.038178l0.075094,-0.017816l0.055069,0.007636l0.030037,0.038178l-0.002503,0.050903l-0.032541,0.017816l-0.050062,-0.002545Z M1106.850416,384.613825l0.021988,-0.052375l0.111512,-0.075289l0.117794,-0.171855l0.122506,-0.068742l0.263858,-0.029461l0.296841,-0.147304h0.169623l0.343958,-0.127664l0.26857,-0.220956l0.273282,0.00982l0.230876,0.201316l0.263858,0.088382l0.26857,-0.00982l0.334535,0.152214l0.0801,0.166945l0.127217,0.073652l0.014135,0.073652l-0.212029,0.162034l-0.263858,0.063832l-0.122506,0.117843l-0.098947,0.382991l-0.103659,0.083472h-0.141353l-0.216741,0.103113l-0.376941,0.054011l-0.075388,-0.029461l-0.098947,-0.157124l-0.532428,-0.338799l-0.265429,-0.088382l-0.226164,-0.189859l-0.282705,-0.029461l-0.347099,0.076925l-0.010994,-0.037644l0.065965,-0.036008Z M1104.057915,384.414146l0.006282,-0.042555l0.084812,-0.032734l0.100517,0.013094l0.018847,0.055648l-0.043976,0.029461l-0.119364,0.003273l-0.047118,-0.026187Z M1100.960721,385.458369l0.031412,-0.019641l0.047118,0.045828l0.141353,0.003273l0.091094,0.137484l-0.018847,0.101476l-0.065965,0.045828l-0.163341,0.196405l-0.050259,-0.026187l0.012565,-0.232413l0.047118,-0.098203l-0.009424,-0.058922l-0.062823,-0.094929Z M1089.258288,381.191321l-0.007509,-0.030495l0.022528,-0.007624l0.057572,0.025413v0.02033l-0.04005,0.012706l-0.032541,-0.02033Z M1096.679304,378.739656l0.040835,-0.003218l0.009424,0.0354l-0.043976,0.012873l-0.031412,-0.016091l0.025129,-0.028963Z M1122.301837,378.472873l-0.097376,-0.134146l-0.166482,-0.092624l0.006282,-0.038327l0.0534,0.003194l0.025129,-0.067073l-0.018847,-0.067073l0.021988,-0.111788l0.069106,-0.063879l0.245011,0.031939l0.185329,0.124564l0.370658,0.057491l0.169623,0.044715l0.207317,0.159697l0.122506,0.172473v0.057491l-0.226164,0.118176l-0.166482,0.009582l-0.210458,-0.057491l-0.147635,-0.006388l-0.307835,-0.067073l-0.087953,0.025552l-0.050259,-0.028745l0.003141,-0.070267Z  M1096.760141,361.717626l0.167,0.118l0.22,0.003l0.151,0.063l0.468,0.318l0.185,0.23l-0.015,0.106l-0.142,0.098l-0.311,0.072l-0.006,0.038l0.098,0.047l0.223,0.192l0.175,0.066l0.104,0.013l0.11,-0.066l0.031,0.022l-0.053,0.132l-0.078,0.075l0.003,0.051l0.15,0.081l0.095,0.199l0.012,0.33l0.047,0.034h0.066l0.047,0.057l-0.018,0.107l0.094,0.06l0.191,0.019l0.07,-0.044l0.15,0.015l0.044,0.057l0.205,0.022l0.006,0.044l-0.035,0.06l0.035,0.163l-0.022,0.06l0.012,0.208l-0.037,0.044l-0.161,0.003l-0.169,0.049l-0.098,0.068l-0.04,-0.003l-0.057,-0.149l-0.176,-0.199l-0.025,-0.07l-0.078,-0.047h-0.189l-0.044,-0.038l-0.066,0.006l-0.056,0.051l-0.107,-0.007l-0.057,0.029l-0.16,-0.086l-0.085,-0.085v-0.079l-0.034,-0.003l-0.063,0.072l-0.129,0.007l-0.129,0.12l-0.041,0.092l-0.213,0.073l-0.101,0.022l-0.097,-0.029l-0.072,0.016l-0.069,0.12l-0.01,0.168l-0.198,0.019l-0.019,0.044l0.06,0.029l-0.082,0.051v0.038l0.136,0.069l-0.004,0.045l-0.179,0.12l-0.006,0.035l0.038,0.047l-0.019,0.095l-0.063,0.054l-0.022,0.161l0.025,0.026l0.05,-0.013l0.016,0.022l-0.028,0.048l0.012,0.05l0.088,0.042l0.176,0.019l0.17,-0.083l0.044,0.032l-0.031,0.098l0.091,0.101l0.373,0.06l0.054,0.051l-0.066,0.082l0.034,0.032l0.054,-0.013l0.107,0.054l-0.019,0.073l0.05,0.022l0.097,-0.016l0.051,0.042l0.025,0.104l-0.019,0.041l-0.069,-0.003l-0.028,-0.029l0.018,-0.044l-0.037,-0.031l-0.12,0.047l-0.119,-0.019l-0.047,0.016l-0.013,0.063l0.025,0.07l-0.075,0.126l-0.069,0.007l-0.013,0.047l0.029,0.117l-0.069,0.238l-0.195,0.038l0.003,0.031l0.075,0.01l0.069,0.047l-0.022,0.048l-0.075,0.013l-0.097,0.132l-0.01,0.08l-0.034,0.06l-0.129,0.079l-0.132,0.019l-0.019,0.127l0.116,0.133l0.047,0.158l-0.138,0.054l0.01,0.041l0.135,-0.003l0.176,-0.051l0.022,-0.035l-0.054,-0.06l0.044,-0.067l0.167,-0.044l0.132,-0.114l0.116,-0.041l0.107,0.016l0.053,0.168l-0.05,0.269l-0.041,0.028l-0.116,-0.009l-0.051,0.085l0.038,0.095l-0.05,0.035l-0.471,-0.006l-0.211,0.079l-0.276,0.152l-0.12,0.006l-0.21,0.19l-0.013,0.101l0.032,0.029v0.066l0.082,0.092l0.235,0.095l0.135,0.098v0.07l0.076,0.05l0.125,0.023l0.148,0.069l0.094,0.114l0.176,0.083l0.085,0.082l0.144,0.022l0.208,-0.076l0.188,-0.016l0.11,0.035l0.006,0.048l-0.053,0.117l-0.239,0.107l-0.025,0.098l0.022,0.073l-0.022,0.086l-0.05,0.05l0.006,0.076l0.116,0.051l0.161,0.009l0.012,0.057l-0.072,0.045l-0.192,-0.029l-0.235,0.095l-0.016,0.095l-0.047,0.041l-0.088,0.004l-0.047,0.038l-0.044,0.174l-0.135,0.104l-0.013,0.048l0.032,0.05l-0.01,0.111l-0.154,0.114l-0.006,0.051l0.148,0.057l0.103,-0.054l0.079,0.019l-0.007,0.044l-0.094,0.079l-0.188,0.06l-0.116,0.019l-0.048,0.07l0.032,0.054l0.059,-0.006l0.132,0.047l-0.003,0.082l-0.075,0.038l-0.019,0.054l-0.022,0.193l0.063,0.114l0.154,0.111l0.028,0.114l-0.075,0.149l0.012,0.044l0.082,0.07l0.11,0.158l0.012,0.067l0.195,0.074l0.076,0.039l0.113,0.156l-0.016,0.083l0.069,0.06l0.132,-0.025l0.047,0.041l0.003,0.144l0.104,0.016l0.27,-0.15l0.11,-0.006l0.069,-0.061l0.016,-0.041l0.081,0.009l0.183,0.089l-0.003,0.029l-0.088,0.019l-0.01,0.045l0.069,0.006l0.047,-0.032l0.186,0.157l0.295,0.143l0.009,0.045l-0.05,0.051l0.006,0.064l0.236,0.11l0.091,-0.003l0.025,-0.058l0.041,-0.003l0.035,0.058l0.034,0.003l0.035,-0.045l0.044,0.006l0.009,0.084l0.053,0.006l0.054,-0.032l0.122,0.042l0.016,0.074l-0.031,0.161l-0.104,0.022l-0.006,0.055l0.031,0.084l-0.053,0.164l0.009,0.067l0.107,0.068l-0.009,0.113l-0.126,0.122l0.012,0.119l0.104,0.109v0.116l-0.022,0.106l0.082,0.065l-0.01,0.061l-0.056,0.042v0.08l-0.06,0.065l0.016,0.099l0.116,0.123l-0.016,0.122l0.051,-0.022l0.033,-0.192l0.082,-0.095l0.066,-0.164l0.415,-0.27l0.343,-0.146l0.088,-0.169l0.21,-0.149l0.143,-0.115l0.18,-0.082l0.042,-0.062l-0.025,-0.028l-0.21,-0.031l-0.073,-0.066l-0.005,-0.075l0.112,-0.164h0.108l0.188,0.14l0.132,0.063l-0.141,-0.029l-0.198,-0.106h-0.075l-0.066,0.13l0.066,0.063l0.169,0.019l0.17,0.136l-0.009,0.101l-0.311,0.169l-0.142,0.019l-0.179,0.15l-0.056,0.183l-0.113,0.111l-0.278,0.126l-0.142,0.13l-0.085,0.251l-0.094,0.092l-0.188,0.106l-0.259,0.314l-0.052,0.198l-0.193,0.299l-0.203,0.188l-0.434,0.102l-0.31,0.231l-0.321,0.387l-0.203,0.149l-0.174,-0.009l-0.16,0.087l0.033,0.077l-0.038,0.135l-0.113,0.039l-0.033,0.082l0.061,0.077l-0.028,0.154l-0.071,0.02l-0.084,-0.039l-0.146,-0.014l0.004,0.043l0.123,0.039l0.023,0.091l-0.051,0.232l0.009,0.198l0.079,0.105l0.022,0.131l-0.016,0.123l-0.151,0.257l-0.129,0.052l-0.063,0.045l0.038,-0.081l0.11,-0.042l0.066,-0.115l-0.003,-0.091l-0.047,-0.003l-0.173,0.123l-0.135,0.016l-0.138,-0.061l-0.362,-0.02l-0.336,0.074l-0.176,0.087l-0.326,0.081l-0.732,-0.01l-0.151,-0.026l-0.16,-0.167l-0.176,-0.039l-0.135,-0.083l-0.311,-0.107h-0.248l-0.142,0.11l-0.166,0.025l-0.101,-0.041l-0.461,-0.065l-0.151,-0.051l-0.255,-0.02l-0.081,-0.057l-0.091,-0.004l-0.132,0.103l-0.286,0.004l-0.179,0.041l-0.372,-0.004l-0.155,0.072l-0.385,0.01l-0.136,0.082h-0.085l-0.125,-0.062l-0.148,0.003l-0.092,0.059l-0.356,0.028l-0.117,0.046l-0.148,0.011l-0.09,0.061l-0.025,0.067l0.025,0.077l-0.03,0.182l-0.08,0.095l-0.108,-0.011l-0.062,0.013l-0.005,0.036l0.097,0.064l0.028,0.087l0.062,0.085l-0.002,0.195l0.027,0.097l0.063,0.059l0.145,0.07l0.04,-0.008l0.018,-0.062l0.117,-0.053l0.103,-0.013l0.145,-0.039l0.043,-0.051h0.085l0.142,0.074l0.025,0.039l-0.172,-0.072l-0.035,0.003l-0.03,0.046l-0.213,0.033l-0.18,0.095l-0.038,0.067l0.018,0.064l-0.015,0.09l-0.058,0.018l0.03,-0.031l-0.002,-0.077l-0.04,-0.051l-0.071,-0.006l-0.042,-0.051l-0.103,0.008l-0.067,0.169l-0.115,0.064l-0.263,0.344l-0.165,0.066l-0.306,0.013l-0.122,-0.036l-0.058,-0.079l-0.163,-0.09l-0.137,-0.02l-0.156,-0.065l-0.383,0.006l-0.045,0.038l-0.035,0.218l0.02,0.08l-0.032,0.197l-0.048,0.087l-0.037,0.213l-0.105,0.123l-0.01,0.134l0.057,0.223l-0.012,0.792l-0.035,0.059l-0.121,0.069l-0.182,0.069l-0.04,0.064l-0.045,0.034l-0.063,0.015l-0.135,0.116l-0.028,0.159l-0.325,0.284l-0.195,0.103l-0.07,0.002l-0.116,0.09l-0.002,0.131l-0.038,0.213l-0.082,0.138l-0.125,0.095l-0.446,0.033l-0.145,0.082l-0.065,0.003l-0.093,-0.059h-0.055l-0.035,0.049l0.048,0.064l0.005,0.036l-0.063,0.061l-0.002,0.072l0.057,0.121l0.093,0.097l0.08,0.018l0.075,-0.028l0.155,0.013l0.093,0.061l-0.003,0.023l-0.112,-0.046l-0.143,-0.008l-0.058,0.024l-0.145,-0.018l-0.077,0.01l-0.03,-0.018l0.002,-0.077l-0.008,-0.064l-0.07,-0.069l-0.01,-0.093l-0.03,-0.02l-0.127,0.077l-0.095,0.125l-0.111,0.018l-0.117,-0.056l-0.075,-0.008l-0.04,0.031l0.052,0.08l-0.005,0.182l-0.095,0.11l-0.002,0.061l0.042,0.049l0.003,0.175l-0.07,0.237l-0.086,0.139l-0.115,0.074l-0.065,-0.022l-0.055,0.005l-0.027,0.057l-0.203,0.014l-0.105,0.077l-0.003,0.062l-0.06,0.045l-0.002,0.056l0.045,0.055l-0.01,0.109l-0.08,0.126l-0.171,0.141l-0.117,0.052l-0.128,0.01l-0.055,0.037v0.074l-0.073,0.169l-0.087,0.079l-0.11,0.044l-0.206,0.136l-0.137,0.119l-0.253,0.05l-0.125,-0.025l-0.058,0.02l-0.04,0.146l-0.148,0.166l-0.15,0.037l-0.125,-0.01l-0.032,-0.04l0.01,-0.037l-0.015,-0.054l-0.156,-0.04l-0.28,0.027l-0.245,0.104l-0.313,0.201l-0.038,0.059l-0.037,0.022l-0.268,0.02l-0.053,0.037l-0.07,0.104l-0.01,0.072l-0.032,0.032l-0.05,0.023l-0.018,0.061l0.113,0.295l-0.02,0.062l-0.118,0.047l-0.04,0.081l0.025,0.075l0.085,0.032l0.058,0.035l0.06,0.111l0.072,0.025l0.381,-0.109l0.288,-0.047l0.223,-0.213l0.012,-0.097l-0.073,-0.104l0.008,-0.054l0.175,-0.134l0.16,-0.012l0.203,0.054l0.168,0.104l0.052,0.062l0.043,0.01l0.098,-0.025l0.175,0.025l0.08,0.067l0.083,0.022l0.165,0.008l0.125,0.064l0.208,0.205l0.122,0.186l0.035,0.144l-0.05,0.081v0.062l0.065,0.032l0.08,0.154l0.176,0.104l0.107,0.032l0.088,-0.015l0.027,-0.139l0.093,-0.17l0.088,-0.055l0.207,-0.002l0.073,0.037l0.108,-0.003l0.047,-0.089l-0.017,-0.084l0.04,-0.052l0.12,-0.01l0.04,-0.029l-0.003,-0.067l0.035,-0.062l-0.027,-0.116l-0.055,-0.023l-0.02,-0.039l0.027,-0.102l-0.022,-0.025l-0.053,0.018l-0.195,-0.084l-0.208,-0.008l-0.147,0.02l-0.073,0.022l0.045,-0.042l0.163,-0.042l0.198,-0.012l0.11,0.012l0.052,-0.025l0.03,-0.062l-0.037,-0.064l0.007,-0.057l0.08,-0.109l0.135,-0.064l0.046,-0.057l-0.013,-0.047l-0.11,-0.005l-0.063,-0.035l-0.045,-0.012l-0.02,-0.022h0.045l0.078,0.032l0.07,0.007l0.075,-0.034l0.013,-0.057l-0.058,-0.05l-0.03,-0.089l-0.043,-0.049l-0.067,-0.047l-0.028,-0.04l0.045,-0.007l0.068,0.067l0.055,0.012l0.088,-0.069l0.075,-0.035l0.015,-0.067l0.05,-0.044l0.062,-0.008l-0.07,0.052l-0.002,0.099l-0.07,0.047l-0.003,0.045l0.053,0.126v0.119l0.047,0.153l0.073,0.05l0.11,-0.05l0.09,-0.104l0.028,-0.215l0.078,-0.123l0.163,-0.031l0.104,0.037l0.069,-0.016l0.251,-0.248l0.157,-0.016l0.195,0.044l0.088,0.062l0.044,-0.006l-0.007,-0.05l0.026,-0.034l0.047,-0.019l0.025,-0.05v-0.043l0.085,-0.056v-0.05l-0.057,-0.018l-0.022,-0.137l0.038,-0.099l0.169,-0.072l0.004,-0.065l-0.066,-0.043l-0.007,-0.106l0.139,-0.102l0.204,-0.025l0.069,-0.059l0.059,-0.003l0.057,0.077l0.006,0.174l0.082,0.025l0.1,-0.084l0.359,0.006l0.084,-0.059l0.088,-0.009l0.135,0.037h0.117l0.22,-0.056h0.144l0.066,-0.018l0.122,-0.156l0.107,-0.065l0.314,-0.028l0.161,0.041l0.399,-0.007l0.207,0.066l0.261,0.139l0.059,0.075l-0.003,0.09l0.028,0.022l0.167,-0.056l0.003,-0.047l-0.031,-0.046l0.018,-0.047l0.167,-0.093l-0.009,-0.072l-0.136,-0.015l-0.125,0.015l-0.072,-0.024l-0.004,-0.056l0.12,-0.047l0.037,-0.05l-0.031,-0.065l-0.122,-0.059l-0.07,0.022l-0.022,0.047l-0.088,0.059l-0.188,0.018l-0.044,-0.056l0.06,0.028l0.072,-0.04l0.079,-0.013l0.131,-0.093l0.142,-0.04l0.015,-0.068l-0.028,-0.035l0.007,-0.124l0.062,-0.031l0.019,-0.05l-0.05,-0.046l-0.053,-0.155l-0.044,-0.007l-0.054,0.01l0.041,-0.047l0.066,-0.003l0.044,0.043l0.126,0.202l0.047,0.007l0.125,-0.171l0.044,-0.013l-0.069,0.137l-0.097,0.112l-0.11,0.105l-0.032,0.131l0.066,0.084l0.038,0.13l0.157,0.103l0.126,0.009l0.097,0.046l0.022,0.277l0.076,0.065l0.179,-0.003l0.078,0.043l0.006,0.053l0.139,0.081l0.182,0.003l0.229,-0.099l0.242,0.015l0.239,0.1l0.345,0.22l0.054,0.093l-0.032,0.103l0.007,0.062l0.185,0.078l0.1,0.071l0.183,0.05l0.053,-0.013l-0.006,-0.068l0.044,-0.103l0.084,-0.059l0.016,0.016l-0.053,0.084l0.015,0.062l0.117,0.022l0.154,0.115l0.125,0.003l0.051,-0.066l0.138,-0.055l0.125,0.006l0.057,-0.013l0.028,-0.034l-0.059,-0.059l0.024,-0.28l0.145,-0.344l0.224,-0.143l0.148,-0.031l0.06,-0.052l-0.003,-0.066l-0.042,-0.054l-0.075,-0.175l-0.045,-0.159l-0.086,-0.047l-0.102,-0.024l-0.12,-0.075l-0.078,-0.089l-0.057,-0.037l0.1,0.011l0.062,0.083l0.13,0.063l0.138,0.01l0.08,0.063l0.018,0.19l0.07,0.167l0.135,0.086l0.1,-0.007l0.08,-0.107l0.028,-0.17l0.092,-0.141l0.098,-0.094v-0.044l-0.063,-0.013l-0.085,0.026l-0.082,-0.008l-0.173,-0.052l-0.055,-0.084l0.015,-0.248l0.107,-0.115l0.148,0.004l0.144,-0.046l0.025,-0.053l-0.138,-0.17l0.013,-0.206l0.075,-0.232l-0.05,-0.036l-0.277,-0.013l-0.069,0.013l-0.069,-0.01l0.079,-0.036l0.32,0.003l0.123,-0.016l0.15,-0.171l0.022,-0.114l0.245,-0.262l-0.015,-0.036l-0.104,-0.052l-0.01,-0.144l-0.037,-0.151l-0.085,-0.069l-0.044,-0.075l-0.016,-0.134l-0.078,-0.082l0.097,0.043l0.05,0.078l0.11,0.026l0.183,0.416l-0.026,0.075l0.004,0.036l0.179,0.076l0.232,-0.007l0.066,-0.088l0.148,-0.066l0.141,-0.019l0.116,-0.095l0.072,-0.197l0.183,-0.124l0.304,-0.075l0.503,-0.03l0.17,0.026l0.059,-0.032l0.038,-0.089l0.107,-0.042l0.229,0.029h0.232l0.296,-0.115l0.267,-0.176l0.198,-0.007l0.389,0.115l0.229,0.023l0.484,0.193l0.726,0.37l0.452,0.275l0.176,0.055l0.088,0.049l0.038,0.138l0.141,0.101l0.053,-0.003l0.022,-0.075l0.07,-0.056l0.037,-0.078v-0.092l0.116,-0.121l0.296,-0.023l0.279,0.039l0.126,0.059l0.572,0.069l0.201,-0.039l0.474,0.098l0.088,0.078l0.261,0.049l0.103,0.05l0.051,0.088l0.091,0.016l0.141,-0.095l0.377,-0.026l0.091,-0.033l0.013,-0.085l-0.019,-0.118l0.037,-0.072l0.114,-0.052l0.003,-0.059l-0.11,-0.072l-0.025,-0.095l0.04,-0.163l-0.056,-0.023l-0.075,0.062l-0.114,0.016l-0.131,-0.072l-0.129,-0.026l-0.063,-0.039l0.025,-0.082l-0.041,-0.089l-0.053,-0.013l-0.116,0.112l-0.092,0.026l-0.031,-0.043l0.075,-0.14l0.132,-0.056l0.195,0.056l0.189,0.016l0.163,-0.039l0.166,0.144l-0.053,0.098l0.038,0.006l0.138,-0.14l0.182,-0.108l0.321,-0.049l0.342,0.009l0.157,0.049l0.129,-0.013l-0.007,-0.042l-0.106,-0.01l-0.079,-0.072l0.01,-0.033l0.078,0.036h0.167l0.119,-0.066l0.231,-0.013l0.39,0.068l0.416,0.139l0.115,-0.079l0.01,-0.057l0.09,-0.076l0.038,-0.091l0.082,-0.055l0.556,-0.089l0.36,-0.156l0.136,-0.005l0.08,-0.032l0.037,-0.101l0.083,-0.073l0.1,-0.042l0.012,-0.068l-0.182,-0.182l-0.263,-0.154l-0.133,-0.128l-0.125,-0.162l-0.163,-0.11l-0.135,-0.02l-0.077,-0.066l-0.03,-0.073l0.122,0.092l0.103,0.01l0.205,0.084l0.325,0.177l0.406,0.378l0.456,0.191l0.347,0.214l0.163,0.114l0.093,0.013l0.087,-0.07l-0.005,-0.251l-0.152,-0.164l0.02,-0.055l0.142,-0.013l0.058,-0.065l0.063,-0.005l0.052,0.146l-0.075,0.211l0.033,0.172l0.162,0.066l0.216,-0.063l0.062,-0.081l-0.017,-0.248l0.147,-0.169h0.155l0.076,0.099l-0.073,0.256l-0.165,0.099l0.012,0.06l0.16,-0.003l0.253,0.05l0.105,-0.019l0.01,-0.047l-0.12,-0.036l-0.037,-0.172l0.062,-0.17l0.045,-0.008l0.266,0.253l0.005,0.079l-0.078,0.065l-0.01,0.076l0.288,0.093l0.23,0.134l0.33,0.265l0.099,-0.059l0.104,-0.211l0.174,-0.152l0.236,-0.083l0.994,-0.207l0.527,0.005l0.472,-0.034l0.706,-0.192l0.641,0.01l0.603,0.108l0.599,0.182l0.551,0.133l0.184,0.132l0.146,0.054l0.174,0.015l0.33,0.142l0.25,0.04l0.141,-0.025l0.047,-0.098l0.189,-0.197l0.188,-0.108l0.057,-0.108l0.193,-0.181l0.349,-0.138l0.301,-0.024l0.556,-0.162l0.702,-0.138l0.137,-0.069l0.306,-0.304l0.372,-0.206l0.179,-0.01l0.556,0.128l0.53,0.067l0.1,-0.03l0.022,-0.069l-0.104,-0.239l-0.018,-0.189l0.053,-0.262l0.17,-0.252l0.373,-0.275l0.327,-0.105l0.424,-0.023l0.173,-0.059l0.104,-0.137l0.1,-0.049l0.264,-0.007l0.308,-0.124l0.044,-0.092l0.333,-0.134l0.147,-0.131l0.073,-0.187l0.018,-0.389l-0.022,-0.256l-0.239,-0.324l0.001,-0.143l0.072,-0.042l0.066,0.016h0.132l0.088,-0.038l0.129,-0.144l0.069,-0.201l-0.063,-0.163l-0.163,-0.073l-0.293,0.028l-0.175,0.064l-0.327,0.016l-0.186,0.042l-0.593,-0.007l-0.933,0.118l-0.289,0.167l-0.581,0.022l-0.258,-0.102l-0.317,0.016l-0.097,-0.045l-0.217,-0.006l-0.076,-0.042v-0.121l-0.069,-0.09l-0.166,-0.086l-0.038,-0.118l0.072,-0.051l-0.015,-0.042l-0.132,0.016l-0.054,0.035l0.004,0.118l0.087,0.119l-0.015,0.035l-0.057,0.003l-0.041,-0.058h-0.031l-0.085,0.093h-0.091l-0.069,-0.128h-0.069l-0.028,0.042l-0.12,0.025l-0.053,0.067h-0.054l-0.066,-0.051l-0.27,-0.095l-0.022,-0.055l-0.053,-0.016l-0.116,0.067l-0.013,-0.032l0.098,-0.095l0.477,-0.045l0.085,-0.048l0.044,-0.112l0.213,-0.022l0.095,0.032l0.191,-0.013l0.091,-0.083l0.013,-0.096l-0.113,-0.134l-0.368,-0.067h-0.223l-0.462,-0.077l-0.354,0.003l-0.154,0.068l-0.123,0.233l-0.113,0.064l-0.273,0.035l-0.299,-0.003l-0.116,-0.055l-0.094,-0.134l-0.044,-0.003l-0.126,0.096l-0.125,-0.01l-0.33,-0.207l-0.088,-0.023l-0.091,0.016l-0.098,-0.061l-0.053,-0.124l-0.229,-0.109l-0.255,0.029l-0.169,0.125h-0.321l-0.113,-0.083l-0.075,-0.01l0.085,-0.032l0.119,0.08l0.286,-0.003l0.151,-0.128l0.295,-0.042l0.283,0.125l0.04,0.134l0.041,0.022l0.069,-0.019l0.117,0.016l0.345,0.211l0.097,0.01l0.104,-0.074l0.126,-0.006l0.091,0.121l0.1,0.058h0.123l0.308,-0.042l0.138,-0.073l0.05,-0.227l0.107,-0.096l0.468,-0.073l0.367,0.006l0.267,-0.048l0.035,-0.045l-0.025,-0.048l-0.135,-0.035l-0.047,-0.044l0.141,0.016l0.107,-0.061l0.141,-0.003l0.61,0.089l0.191,0.074h0.072l0.073,-0.077l0.32,-0.214l0.302,-0.16l0.292,-0.233l0.122,-0.169l-0.012,-0.038l-0.079,-0.004l-0.129,0.039l-0.226,0.028l-0.433,-0.025l-0.274,-0.045l-0.062,-0.067l-0.013,-0.048l0.094,0.07l0.245,0.036l0.45,0.019l0.213,-0.055l0.079,-0.083l0.012,-0.147l0.06,-0.191l-0.003,-0.134l-0.044,-0.106l0.028,-0.143l0.003,-0.119l-0.041,-0.086l-0.147,-0.057l-0.123,0.009l-0.182,0.154l-0.223,0.089l-0.129,-0.016l-0.163,0.032l-0.063,0.07l-0.078,0.01l-0.038,-0.042l-0.261,-0.038l-0.113,-0.115l0.019,-0.029l0.138,0.039l0.138,-0.077l0.211,-0.026l0.239,0.026l0.179,-0.019l0.175,-0.134l0.082,-0.103l-0.063,-0.076l0.003,-0.029l0.073,0.01l0.063,0.044h0.204l0.229,-0.054l0.263,-0.154l-0.002,-0.05l-0.103,-0.112l-0.06,-0.105l0.01,-0.135l-0.02,-0.094l0.06,0.094l0.022,0.156l0.233,0.208l0.03,0.145l0.087,0.125l0.537,-0.038l0.16,-0.106l0.377,-0.177l0.231,-0.167l0.283,-0.317l0.009,-0.158l-0.094,-0.057l-0.137,-0.005l-0.047,-0.053l0.08,-0.22l0.236,-0.259l-0.071,-0.048l-0.108,0.029l-0.09,-0.034h-0.094l-0.071,0.053l-0.231,0.01l-0.131,-0.053l-0.118,-0.01l-0.151,0.063l-0.165,-0.01l-0.363,-0.062l0.005,-0.038l0.151,-0.044l0.325,0.01l0.169,-0.086l0.156,0.005l0.075,0.067l0.203,0.028l0.08,-0.048h0.123l0.127,0.034l0.037,-0.038l-0.061,-0.197l-0.094,-0.072l-0.457,-0.162l-0.127,-0.135l-0.01,-0.072l0.057,0.015l0.127,0.115l0.443,0.148l0.146,0.082l0.019,0.129l0.071,0.134l0.122,0.077l0.061,0.148l0.038,0.02l0.118,-0.168l0.169,-0.096l0.42,-0.359l0.207,-0.34l0.189,-0.173l0.49,-0.148l0.132,-0.125l0.15,-0.647l0.08,-0.167l0.033,-0.168l-0.009,-0.22l0.052,-0.456l0.108,-0.244l0.123,-0.077l0.117,-0.153l0.057,-0.211l0.179,-0.325l0.09,-0.288l0.004,-0.249l0.076,-0.187l0.094,-0.12l0.009,-0.172l-0.179,-0.513l-0.009,-0.22l0.071,-0.398l-0.005,-0.206l-0.321,-0.528l-0.584,-0.558l-0.777,-0.52l-0.467,-0.387l-0.612,-0.35l-0.424,-0.113l-0.811,-0.085l-0.485,-0.114l-0.452,-0.189h-0.099l-0.165,0.066l-0.415,0.019l-0.151,-0.071l-0.692,0.005l-0.316,-0.09l-0.344,0.01l-0.245,0.104l-0.49,0.005l-0.273,0.103l-0.208,0.308l-0.061,0.345l-0.231,0.387l-0.405,0.336l-0.108,0.023l-0.137,-0.066l-0.207,-0.005l-0.335,0.048l-0.226,-0.109l-0.184,-0.369l-0.094,-0.118l-0.287,-0.109l-0.222,-0.028l-0.188,-0.099l-0.014,-0.137l0.202,-0.435l0.495,-0.51l0.155,-0.024l0.377,-0.146l0.165,-0.18l0.264,-0.08l0.151,-0.307l0.066,-0.818l-0.094,-0.227l-0.104,-0.444l-0.245,-0.335l-0.245,-0.447l-0.033,-0.202l-0.311,-0.601l-0.273,-0.319l-0.509,-0.244l-0.184,-0.009l-0.268,-0.113l-0.439,-0.437l-0.084,-0.009l-0.052,0.042l-0.076,-0.014l-0.287,-0.249l-0.377,-0.244l-0.302,-0.305l-0.202,-0.328l-0.109,-0.085l-0.212,-0.028l-0.565,0.141l-0.335,0.009l-0.164,0.038l-0.194,0.126l-0.259,-0.009l-0.414,-0.3h-0.175l-0.33,0.155l-0.023,0.075l0.052,0.079l-0.024,0.085l-0.042,0.033l0.019,-0.089l-0.076,-0.099l0.024,-0.113l0.16,-0.197l0.174,-0.066l0.316,-0.009l0.254,0.169l0.198,0.028l0.292,-0.056l0.316,-0.005l0.401,-0.094l0.282,-0.126l0.34,-0.024l0.221,0.08l0.099,0.07l0.08,0.16l0.584,0.526l0.25,0.159l0.269,0.038l0.523,-0.16l0.235,0.014l0.368,0.155l0.165,0.146l0.02,0.128l-0.069,0.094l0.069,-0.038l0.041,-0.062l-0.01,-0.146l-0.183,-0.446l-0.919,-1.032l-0.66,-0.813l-0.174,-0.291l-0.443,-0.929l-0.005,-0.374l0.095,-0.257l0.193,-0.187l0.174,-0.06l0.217,-0.005l0.198,-0.052l0.019,-0.093l-0.057,-0.051l-0.207,-0.066l-0.316,-0.149l-0.49,-0.164l-0.231,-0.182l-0.052,-0.15l0.057,-0.126l-0.01,-0.037l-0.556,-0.238l-0.207,-0.253l-0.141,-0.317l-0.043,-0.229l-0.24,-0.486l-0.174,-0.21l-0.151,-0.047l-0.108,-0.08l-0.029,-0.135l0.047,-0.061l0.005,-0.084l-0.254,-0.168l-0.062,-0.112l-0.212,-0.117l-0.273,-0.047l-0.165,-0.065l-0.066,-0.117l-0.235,-0.131l-0.165,0.014l-0.095,-0.033l-0.028,-0.084l-0.165,-0.154l-0.205,-0.033l-0.283,-0.121l-0.189,0.003l-0.1,-0.025l-0.085,-0.078l-0.179,-0.05l-0.122,0.025l-0.139,-0.015l-0.323,-0.131l-0.132,-0.121l-0.148,-0.057l-0.135,-0.015l-0.191,-0.084l-0.095,-0.087l-0.041,0.006l-0.018,0.081l-0.066,0.087l-0.01,0.143l-0.176,0.15l-0.044,0.012l0.176,-0.174l-0.022,-0.094l-0.169,-0.043l-0.007,-0.041l0.135,-0.068l0.026,-0.109l-0.183,-0.218l-0.003,-0.112l0.123,-0.119l-0.01,-0.034l-0.176,-0.062l-0.257,-0.162l-0.16,-0.184l-0.183,-0.143l-0.097,-0.165l-0.006,-0.287l-0.079,-0.237l-0.135,-0.149l-0.116,-0.405l0.012,-0.091l-0.031,-0.323l0.053,-0.103l-0.018,-0.187l-0.286,-0.215l-0.118,-0.248l-0.218,-0.205v-0.105l-0.025,-0.05l-0.176,-0.149l-0.091,-0.183l0.009,-0.084l-0.041,-0.106l-0.113,-0.13l-0.044,-0.183l0.138,-0.215l-0.006,-0.08l-0.132,-0.153l-0.038,-0.139l-0.125,-0.146l-0.123,-0.283l0.01,-0.183l0.097,-0.205l-0.009,-0.112l-0.176,-0.127l-0.129,-0.156l-0.022,-0.257l0.113,-0.177l0.079,-0.063l-0.004,-0.18l-0.1,-0.046l-0.032,-0.056l0.013,-0.392l-0.038,-0.108l-0.088,-0.016l-0.034,-0.068l0.006,-0.099l-0.104,-0.202l0.007,-0.208l-0.079,-0.162l-0.27,-0.242l-0.239,-0.124l-0.188,-0.019l-0.145,0.068l-0.056,-0.031l0.063,-0.149l-0.132,-0.267l-0.057,0.006l-0.012,0.137l-0.076,0.05l-0.132,-0.013l-0.245,-0.23l-0.025,-0.174l-0.1,-0.136l-0.327,-0.224l-0.295,-0.304l-0.132,-0.255l-0.27,-0.298l-0.302,0.148l-0.047,0.093l0.042,0.153l-0.046,0.062l-0.067,-0.001l-0.047,0.042l0.014,0.065l-0.108,0.093l-0.094,-0.014l-0.071,0.038v0.102l-0.042,0.033l-0.099,-0.01l-0.038,0.047l0.038,0.102l-0.019,0.066l-0.094,0.028l-0.194,0.2l-0.004,0.102l-0.123,0.07l0.028,0.098l-0.075,0.061l-0.132,-0.047l-0.316,-0.005l-0.103,0.038l-0.043,0.084l0.052,0.06l0.09,0.01l0.032,0.042l-0.051,0.041l0.042,0.052l0.083,0.006l0.045,0.059v0.088l-0.033,0.07l0.028,0.075l0.136,0.056l0.179,0.158l0.114,0.317v0.13l0.117,0.159l-0.004,0.093l0.056,0.06l0.184,0.024l0.005,0.051l-0.109,0.037l-0.037,0.149l-0.085,0.107l-0.175,0.075h-0.212l-0.207,0.093l-0.033,0.056l-0.104,0.051l-0.108,0.005l-0.056,0.074l0.047,0.173l-0.066,0.06l-0.014,0.08l-0.231,0.172l-0.113,-0.005l-0.062,-0.084l-0.273,-0.004l-0.268,0.046l-0.227,0.271l-0.231,0.102l-0.131,0.163l-0.212,0.112l-0.147,0.196l-0.108,0.028l0.025,0.045l0.223,0.033l0.002,0.043l-0.132,0.023l-0.024,0.2l-0.231,0.024l-0.23,0.424l-0.245,0.093l-0.311,0.205l-0.151,0.046l-0.085,-0.014l-0.052,0.052l-0.009,0.097l-0.151,0.135l-0.118,0.042l-0.179,0.238l-0.122,0.019l-0.146,0.074l-0.01,0.084l-0.132,0.084l-0.499,-0.065l-0.085,0.028l-0.009,0.06l0.084,0.014l0.071,0.084l-0.075,0.214l-0.216,0.172l-0.012,0.081l-0.195,0.044l-0.151,0.15v0.099l0.164,0.038l0.245,-0.125l0.144,0.037l-0.132,0.032l-0.226,0.143l-0.295,-0.025l-0.308,-0.199l-0.283,-0.013l-0.389,0.206l-0.088,0.18l0.088,0.081l0.176,-0.025l0.037,0.05l-0.081,0.081l-0.233,0.038l-0.22,-0.112l-0.245,0.087l-0.182,0.243l-0.213,0.492l-0.013,0.162l0.044,0.149l-0.05,0.169l-0.189,0.168l-0.182,0.112l-0.132,0.125l-0.044,0.162l-0.283,0.355l-0.081,0.043l-0.032,0.156l0.044,0.231l-0.106,0.517l-0.139,0.218l-0.163,0.112l-0.006,0.1l0.119,0.168l0.132,0.05l0.226,0.311l0.277,0.243l0.365,0.416l0.244,0.14l0.044,0.126l0.044,0.47l0.176,0.301l0.446,0.526l0.126,0.044l0.201,-0.081l0.113,0.037l0.106,-0.081l-0.044,-0.126l0.051,-0.112l0.113,-0.094l0.012,-0.145l-0.062,-0.075l0.094,0.025l0.119,0.157v0.169l-0.088,0.326l-0.081,0.138l-0.158,0.032l-0.031,0.062l0.094,0.094l-0.025,0.207l0.006,0.138l0.044,0.119l0.076,0.063l0.05,0.094l0.251,0.088l0.126,0.1l0.031,-0.012l-0.05,-0.107l0.069,-0.132l0.321,-0.257l0.257,-0.376l0.038,-0.226l0.094,-0.113l0.013,-0.175l-0.076,-0.094l0.026,-0.126l0.106,-0.056l-0.05,0.082l-0.013,0.075l0.076,0.037l0.088,0.12v0.1l-0.063,0.037l0.006,0.051l0.176,0.119l0.019,0.113l-0.019,0.081l0.069,0.069l0.17,-0.006l0.201,-0.113l0.207,-0.295l0.208,-0.094l0.207,-0.05l0.226,-0.175l0.013,-0.138l0.044,0.05l0.006,0.144l-0.163,0.169l-0.264,0.132l0.025,0.075l0.125,0.1l0.245,0.446v0.125l-0.15,0.201l-0.358,0.169l-0.12,0.1l-0.037,0.132l-0.12,0.132l0.019,0.075l0.079,0.041l0.212,0.347l0.014,0.174l-0.08,0.16l-0.118,0.029l-0.175,-0.019l-0.212,0.047l-0.164,0.103l-0.382,0.052l-0.066,0.06l0.019,0.401l-0.061,0.277l-0.024,0.612l0.193,0.315l0.382,0.117l0.645,-0.014l0.151,-0.028l-0.071,0.052l-0.254,0.047l-0.226,0.014l-0.165,0.084l-0.24,0.254l-0.123,0.043l-0.089,0.126l0.023,0.156l-0.038,0.136l-0.164,0.235l-0.104,0.08l-0.203,0.367v0.169l0.231,0.202l0.043,0.076l0.009,0.145l0.155,0.255l0.222,0.245l0.005,0.179l0.122,0.269l0.184,0.184l0.25,0.137l0.4,0.241l0.141,0.004l0.128,-0.028l0.179,0.066l0.075,-0.033l0.043,-0.118l0.103,-0.085l0.165,-0.019l0.184,-0.084l0.085,-0.01l0.08,0.024l0.061,-0.019l0.033,-0.066l0.009,0.094l-0.084,0.038l-0.109,-0.019l-0.085,0.024l-0.075,0.07l-0.16,0.015l-0.094,0.089l-0.005,0.156l-0.057,0.099l-0.084,0.033l-0.147,-0.005l-0.169,0.033l-0.123,0.057h-0.212l-0.344,-0.137l-0.179,-0.179l-0.141,-0.274l-0.137,-0.127l-0.061,-0.217l-0.141,-0.269l-0.024,-0.118l-0.061,-0.047l-0.132,-0.005l-0.17,0.137l-0.16,0.075l-0.306,0.095l-0.255,0.174l-0.004,0.066l0.188,0.307l0.212,0.156l0.094,0.32l0.118,0.128l0.075,0.022l0.028,0.035l-0.088,0.103z"/>
</svg>
