<svg xmlns="http://www.w3.org/2000/svg" viewBox="709.277 667.983 2.811 3.686">
  <path d="M711.616424,668.145705l-0.007373,-0.083556l0.012288,-0.027033l0.058981,-0.046693l0.027033,-0.004915l0.043513,0.023804l-0.009252,0.064763l0.017299,0.042163l0.048572,0.044235l-0.027033,0.100758l-0.0412,0.024575l-0.010408,0.110588l0.024575,0.034405l-0.01966,0.03932h-0.144994l-0.054065,0.014745l-0.046693,0.056523l-0.03932,0.002458l-0.065775,-0.027033l-0.058981,0.031948l-0.017781,0.051608l-0.017203,0.017203l0.007951,-0.095843l0.051608,-0.03932l0.036863,-0.004915l0.004915,-0.044235l-0.02949,-0.022118l-0.047271,0.007373l-0.027033,-0.01966l-0.004915,-0.051608l0.01966,-0.00983l0.01966,0.017203l0.068811,0.014745l0.02949,-0.014745l0.012288,-0.034405l0.024575,-0.007373l0.051608,0.007373l0.071268,-0.056523l0.010457,-0.076665l0.027033,-0.03932Z M711.999749,668.082291l0.04915,0.014745l0.034405,-0.012288l0.004915,-0.04915l-0.017203,-0.03932l-0.036863,-0.007373l-0.051608,0.036863l-0.004915,0.027033l0.022118,0.02949Z M710.757399,669.641854l0.031948,-0.031948l-0.017058,-0.030791l-0.059125,0.011131l-0.01966,0.024575l0.022118,0.031948l0.041778,-0.004915Z M711.345952,668.847882l0.033923,-0.018504l-0.018504,-0.037007l-0.030839,-0.006168l-0.018504,0.030839l0.033923,0.030839Z M711.423388,668.737679l-0.021588,0.027756l0.021588,0.027756l0.027756,-0.01542l0.003084,-0.033923l-0.030839,-0.006168Z M711.452252,668.622175l-0.018504,0.024672l0.018504,0.024672l0.030839,-0.009252l-0.003084,-0.033923l-0.027756,-0.006168Z M710.946629,669.454793l0.037007,-0.032381l-0.02313,-0.050885l-0.050885,0.009252l-0.009252,0.055511l0.046259,0.018504Z M710.580602,670.166993l-0.032381,-0.043994l0.027466,-0.073967l0.01966,-0.014745l-0.007373,-0.01966l-0.076183,-0.041778l-0.046693,0.002458l-0.067991,0.030502l-0.092518,-0.012336l-0.046259,-0.046259l-0.066016,-0.003855l-0.088182,0.074786l-0.086302,0.04809l-0.083315,0.121527l-0.069052,0.038212l-0.083556,0.083556l-0.04014,0.106444l-0.016962,0.086351l-0.06086,0.055415l-0.068811,0.152366l0.004915,0.02949l0.01966,0.027033l-0.036863,0.147451l-0.046693,0.02949l-0.002458,0.051608l0.051608,0.031948l0.00983,0.044235l-0.031948,0.02949l0.010505,0.079942l0.014071,0.042934h0.027033l0.031948,0.031948l-0.022118,0.012288l-0.02949,-0.00983l-0.01966,0.046693l0.004915,0.04915l-0.034405,0.036863l-0.054065,0.027033l-0.03932,-0.031948l-0.014745,0.007373l0.01966,0.02949l-0.063896,0.054065l-0.120419,0.046693l0.014745,0.024575l0.086013,0.007373l0.056523,-0.004915l0.02949,0.027033l0.041778,-0.004915l0.002458,-0.041778l0.01966,-0.004915l0.027033,0.054065l-0.01966,0.068811l0.031948,-0.007373l0.024575,-0.036863l0.007373,-0.063896l0.022118,-0.00983l0.004915,0.03932l0.022118,-0.004915l0.034405,-0.04915l0.004915,-0.024575l-0.012288,-0.031948l0.017203,-0.007373l0.076183,0.076183l0.046693,0.022118l0.014745,-0.024575l-0.03932,-0.046693l0.004915,-0.017203l0.051608,0.02949l0.034405,0.071268l-0.004915,0.022118l0.00983,0.022118l0.027033,-0.041778l-0.004915,-0.036863l-0.041778,-0.071268l0.00983,-0.012288l0.036863,0.054065l0.054065,0.007373v-0.017203l-0.04915,-0.014745 l-0.017203,-0.027033l0.022118,-0.007373l0.083556,0.017203l0.083556,-0.034405l0.088471,-0.004915l0.117961,-0.068811l0.012288,-0.034405l-0.012288,-0.01966l0.014745,-0.017203l0.046693,-0.004915l0.022118,-0.027033l0.004915,-0.051608l0.02949,-0.041778l0.02949,-0.007373l0.014745,-0.024575l-0.01966,-0.027033l0.004915,-0.051608l0.027033,-0.004915l0.024575,0.007373l0.014745,-0.017203l-0.02949,-0.03932l-0.024575,-0.088471l0.012288,-0.03932l-0.01966,-0.04915l0.02949,-0.081098l0.04915,-0.027033l0.046693,0.004915l0.027033,0.012288l0.014745,-0.017203l-0.01966,-0.017203l-0.02949,-0.002458l-0.00983,-0.056523l0.014745,-0.137621l0.024575,-0.081098l0.022118,-0.017203l-0.022118,-0.117961l0.01966,-0.024575l-0.007373,-0.017203l-0.024575,-0.024575v-0.03932Z M710.713887,669.311245v0.031948l0.024575,0.007373l0.017203,-0.01966l-0.017203,-0.024575l-0.024575,0.004915Z M710.703478,669.56437l0.027033,-0.017203l0.02949,-0.04915l0.004915,-0.078641l-0.03932,-0.024575l-0.031948,0.014745l0.004915,0.036863l-0.041778,0.058981l0.007373,0.031948l0.03932,0.027033Z M710.5634,669.970391l-0.002458,0.01966l0.022118,0.00983l0.012288,-0.024575l-0.017203,-0.00983l-0.014745,0.004915Z M710.666616,670.002339l0.004915,-0.022118l-0.022118,-0.022118l-0.01966,0.012288l0.007373,0.031948h0.02949Z M710.713309,670.051489l0.017203,-0.007373l-0.007373,-0.022118l-0.022118,-0.00983l-0.00983,0.01966l0.022118,0.01966Z M710.949231,670.14979l0.022118,-0.00983v-0.017203l-0.01966,-0.00983l-0.012288,0.01966l0.00983,0.017203Z M711.323352,668.286266l0.017203,-0.014745l-0.004915,-0.022118l-0.01966,0.002458l-0.00983,0.022118l0.017203,0.012288Z M709.69098,671.584983l0.027033,-0.017203l-0.002458,-0.02949l-0.022118,-0.004915l-0.024575,0.036863l0.022118,0.014745Z M709.757333,671.602185l0.022118,0.024575l0.01966,-0.007373l-0.014745,-0.022118v-0.031948l-0.022118,0.002458l-0.004915,0.034405Z M709.359214,671.668538l0.01966,-0.017203l-0.002458,-0.017203l-0.01966,0.002458l-0.00983,0.024575l0.012288,0.007373Z M710.664158,669.824867l0.027033,-0.007373l-0.00983,-0.017203l-0.024575,0.002458l-0.007373,0.017203l0.014745,0.004915Z M710.501962,670.887046l0.031948,0.007373l-0.002458,-0.017203l-0.031948,-0.017203l-0.017203,0.00983l0.01966,0.017203Z "/>
</svg>
