<svg xmlns="http://www.w3.org/2000/svg" viewBox="1381.145 443.846 14.179 9.248">
  <path d="M1391.364981,453.09446l0.173,-0.049l0.118,-0.105l0.179,-0.037l0.167,0.012l0.081,-0.062l-0.044,-0.216l0.149,-0.223l0.204,-0.118h0.204l0.619,-0.352l0.272,-0.334l0.328,-0.248l0.161,-0.037l0.049,-0.093l-0.074,-0.086l-0.012,-0.074l0.049,-0.062v-0.099l-0.161,-0.167l-0.105,-0.347l0.019,-0.266l-0.099,-0.315l-0.087,-0.075l0.006,-0.148l0.167,-0.142l0.204,-0.062l0.007,-0.093l-0.174,-0.13l-0.08,-0.21l0.037,-0.155l-0.025,-0.111l-0.154,-0.062l-0.044,-0.118l0.081,-0.154l0.154,-0.093l0.248,-0.025l0.303,-0.161l0.118,-0.012l0.086,0.031l0.124,-0.037l0.111,-0.235l0.155,-0.13l0.272,-0.458l0.13,-0.062l0.043,-0.124l-0.13,-0.216l-0.156,-0.01l-0.079,-0.033l-0.093,0.037l-0.148,0.142h-0.074l-0.13,-0.161l-0.118,-0.043l-0.198,0.025l-0.092,0.055l-0.068,-0.006l-0.081,-0.111l-0.235,-0.075l-0.074,-0.129l-0.099,-0.007l-0.087,0.075l-0.049,0.179l-0.099,0.031l-0.087,-0.012l-0.13,0.068l-0.074,-0.007l-0.08,-0.105l-0.137,-0.025l-0.179,-0.148l-0.105,0.006l-0.112,0.149l-0.123,0.006l-0.149,-0.118h-0.093l-0.092,0.105h-0.105l-0.149,-0.105l-0.08,-0.006l-0.019,-0.086l-0.074,-0.044h-0.093l-0.118,-0.117l-0.235,-0.081l-0.284,-0.216l-0.142,-0.019l-0.161,-0.068l-0.056,-0.148l0.031,-0.13l-0.105,-0.099l-0.161,-0.031l-0.093,0.031l-0.148,0.123l-0.13,0.056l-0.155,0.006l-0.105,-0.049l-0.006,-0.087l-0.118,-0.055l-0.055,0.043l-0.087,-0.013l-0.087,-0.123l-0.21,-0.074l-0.13,0.012l-0.105,-0.037l-0.031,-0.093l-0.056,-0.037l-0.099,0.037l-0.148,-0.006l-0.056,0.043l0.013,0.062l-0.062,0.012l-0.155,-0.037l-0.161,-0.049l-0.074,-0.099l-0.173,-0.143l-0.136,-0.012l-0.167,0.05l-0.155,-0.019l-0.068,-0.074v-0.062l-0.074,-0.074l-0.13,-0.007l-0.031,-0.068l0.031,-0.179l-0.075,-0.031l-0.08,0.037l-0.303,-0.055l-0.421,-0.174l-0.222,-0.148l-0.223,-0.025l-0.05,-0.043l0.006,-0.068l-0.136,-0.093l-0.074,-0.006l-0.136,0.068l-0.155,0.006l-0.08,0.043l-0.062,0.105l-0.08,0.031l-0.081,0.062h-0.303l-0.142,-0.043l-0.149,-0.161l-0.123,-0.006l-0.167,-0.062l-0.124,0.012l-0.248,-0.037l-0.179,-0.049h-0.105l-0.142,-0.093l-0.075,-0.006l-0.055,0.037l-0.186,-0.05l-0.074,-0.055h-0.13l-0.136,0.08l-0.409,0.013l-0.074,0.055h-0.117l-0.124,-0.012l-0.08,0.056l-0.025,0.086l0.031,0.093l-0.019,0.087l-0.204,0.179l-0.099,0.155l-0.049,0.284l-0.093,0.112l-0.081,0.037l-0.024,0.055l0.024,0.075l-0.043,0.142l0.012,0.093l0.161,0.043l0.229,0.015l0.306,0.103l0.223,0.176l0.195,0.083l0.251,0.037l0.241,0.14l0.102,0.306l0.083,0.714l0.093,0.084l0.176,0.037l0.065,0.111l0.093,0.01l0.158,-0.112l0.232,-0.009l0.315,0.149l0.186,0.037l0.176,-0.01l0.177,0.065l0.26,0.279l0.185,0.065l0.176,-0.056l0.325,0.046l0.232,0.056l0.334,-0.009l0.52,0.074l0.325,0.158l0.464,0.538l0.167,0.037l0.176,-0.056l0.223,0.038l0.241,0.232l0.149,0.482l0.009,0.371l0.26,0.353l0.185,0.065l0.269,-0.019l0.446,0.084l0.204,0.102l0.325,0.102h0.185l0.204,0.093l0.186,0.148l0.316,0.659l0.222,0.687l0.108,0.922l0.05,0.228z"/>
</svg>
