<svg xmlns="http://www.w3.org/2000/svg" viewBox="1404.848 450.478 6.904 5.646">
  <path d="M1406.243273,450.477613l0.006,0.097l-0.12,0.223l-0.2,0.148l-0.153,0.019l-0.069,0.042l-0.005,0.111l-0.107,0.125l-0.13,0.033l-0.111,-0.024l-0.13,0.079l-0.074,0.153l-0.13,0.07l-0.172,0.186v0.069l0.135,0.028l-0.005,0.051l-0.06,0.051v0.084l0.102,0.055l0.009,0.088l-0.046,0.195v0.191l-0.13,0.106l-0.005,0.116l0.047,0.093l0.032,0.26l0.153,0.153l0.005,0.084l-0.13,0.162l0.005,0.065l0.162,0.07l0.232,0.023l0.088,0.083l-0.028,0.112l-0.111,0.074l-0.042,0.083l-0.204,0.107l-0.042,0.149l0.019,0.125l-0.051,0.107l0.032,0.111l0.093,0.042l0.074,0.083l0.005,0.121l0.116,0.097l0.093,0.028l0.055,-0.019l0.089,0.028l0.023,0.075l0.088,0.083l0.06,-0.009v-0.07l0.056,-0.083l0.167,-0.01l0.121,0.028l0.273,0.019l0.024,0.065l-0.07,0.042v0.116l0.06,0.069l0.204,0.074l0.079,-0.027l0.037,-0.107l0.065,-0.033l0.028,-0.055l-0.023,-0.07l0.005,-0.097l0.051,-0.028l0.088,0.037l0.144,-0.009l0.083,-0.061l0.037,-0.148l-0.023,-0.074l0.023,-0.042l0.102,-0.005l0.153,0.07l0.098,-0.005l0.074,-0.088l0.116,-0.019l0.149,-0.023l0.116,-0.158l0.125,-0.027l0.134,0.065l0.01,0.069l0.06,0.074v0.112l0.046,0.069v0.112l0.061,0.037l0.079,-0.019l0.046,0.023l-0.019,0.056l0.056,0.037l-0.004,0.102l-0.075,0.051v0.112l0.056,0.074l0.051,-0.005l0.023,-0.134l0.079,-0.088l0.149,-0.056l0.013,-0.084l0.07,-0.06l0.042,0.023l-0.033,0.056l0.01,0.046l0.102,0.014l0.055,0.065l-0.023,0.088l0.056,0.056h0.088l0.107,0.084h0.102l0.06,0.037l-0.042,0.176l-0.102,0.162l0.01,0.107l0.102,0.07l0.051,-0.01v-0.088l0.06,-0.116l0.056,-0.009l0.055,0.056l0.014,0.097l-0.055,0.065l-0.005,0.121l0.07,0.032l0.065,-0.042l0.032,-0.129l0.079,-0.028l0.069,0.018l0.07,-0.009l0.102,-0.07l0.348,0.019l0.13,0.046l0.213,0.024l0.042,-0.042l-0.028,-0.102l0.047,-0.019l0.222,0.149l0.089,0.004l0.134,-0.111l0.014,-0.051l-0.116,-0.056l-0.065,0.028l-0.069,-0.028l-0.019,-0.097l0.019,-0.093l0.097,-0.032l0.07,-0.098l0.106,-0.023l0.024,-0.051l-0.042,-0.051l0.014,-0.056l0.055,-0.046l0.042,-0.102l-0.028,-0.056l0.014,-0.074l0.153,-0.126l0.163,-0.06l0.018,-0.074l-0.046,-0.214l0.005,-0.259l-0.056,-0.186l-0.07,-0.088l-0.023,-0.102l-0.097,-0.084l0.014,-0.116l0.148,-0.148l-0.005,-0.098l-0.157,-0.078l-0.121,0.009l-0.07,-0.037l-0.027,-0.088l-0.13,-0.079l-0.186,-0.014l-0.209,-0.116l-0.167,-0.26l-0.209,-0.051l-0.111,0.042l-0.083,-0.019l-0.047,-0.06l-0.241,-0.084l-0.005,-0.088l0.07,-0.083l0.167,-0.061l-0.005,-0.051l-0.153,-0.069l-0.06,-0.135l-0.218,-0.139l-0.051,-0.163l-0.149,-0.139l-0.12,-0.023l-0.089,0.074l-0.065,-0.009l-0.055,-0.153l0.023,-0.065l-0.009,-0.059l-0.149,-0.012l-0.08,-0.031l-0.087,0.037l-0.012,0.068l-0.13,0.111l-0.111,0.013l-0.143,-0.087h-0.142l-0.099,0.087l-0.111,0.037l-0.124,-0.031l-0.223,0.031l-0.13,0.124l-0.099,0.179l-0.148,0.105l-0.112,-0.043l-0.049,-0.068l-0.186,-0.087l-0.136,-0.006l-0.093,-0.043l-0.037,-0.074l-0.167,-0.069l-0.092,0.031h-0.093l-0.044,-0.043l-0.123,0.006l-0.081,0.068h-0.105l-0.08,-0.105l0.031,-0.074l-0.037,-0.05l-0.223,-0.092v-0.062l0.105,-0.074l0.179,-0.056l0.087,-0.13l0.049,-0.161l0.075,-0.093l0.093,-0.105l0.024,-0.124l-0.024,-0.068l-0.075,-0.024z"/>
</svg>
