<svg xmlns="http://www.w3.org/2000/svg" viewBox="1381.145 443.846 44.610 19.948">
  <path d="M1391.334049,460.202634l0.087,0.055l0.074,-0.037l0.062,0.006l0.074,0.093l0.198,0.056l0.13,0.136l0.21,0.012l0.204,-0.08l0.093,0.062l-0.031,0.08l0.093,0.043l0.322,0.031l0.111,0.05l0.05,0.087l0.117,0.092l0.093,0.013l0.117,-0.05l0.266,-0.21l0.075,-0.13l0.216,-0.254l0.204,-0.049l0.186,0.037l0.087,0.13l0.29,0.043l0.186,-0.099l0.198,-0.012l0.124,0.037h0.185l0.124,-0.056l0.111,0.019l0.105,0.13h0.081l0.086,-0.044l0.316,0.038l0.21,0.08l0.081,0.087l0.161,0.037h0.21l0.223,0.043l0.08,0.087l0.229,0.117l0.148,-0.006l0.112,-0.037l0.154,0.012l0.031,-0.055l-0.074,-0.161l0.019,-0.081l0.216,-0.167l0.13,-0.055l0.025,-0.062l-0.056,-0.044l0.013,-0.068l0.061,-0.062l0.025,-0.086l-0.025,-0.062l0.038,-0.093l0.173,-0.13l0.334,-0.043l0.117,-0.068l0.161,-0.006l0.242,0.043l0.092,0.08l0.155,0.038l0.124,-0.068l0.179,-0.007l0.105,0.037l-0.012,0.137l-0.087,0.074l-0.13,0.309l0.068,0.204l0.248,0.149l0.093,-0.031l0.037,-0.173l0.13,-0.038l0.086,0.044l-0.012,0.099l0.074,0.068l0.124,0.025l0.254,0.191l0.024,0.118l0.211,0.198l0.111,0.235l0.087,0.037l0.148,-0.037l0.316,0.13l0.222,0.303l0.192,0.056l0.136,-0.007l0.192,0.056l0.019,0.099l-0.223,0.13l-0.217,0.037l-0.08,0.112l0.043,0.037l0.167,-0.007l0.124,-0.055l0.111,0.037l0.037,0.124l0.205,0.377l-0.031,0.087l0.049,0.018l0.18,-0.056l0.191,-0.092l0.143,-0.007l0.16,-0.08h0.304l0.442,0.198l0.176,0.415l0.149,-0.007l0.086,-0.074l0.155,-0.012l0.148,-0.068h0.174l0.123,0.086l0.242,0.019l0.123,-0.043l0.211,0.012l0.396,0.198l0.08,-0.006l0.334,-0.297l0.217,-0.093l0.29,-0.031l0.297,-0.087l0.112,0.007l0.049,0.055h0.105l0.136,-0.123l0.223,-0.056h0.173l0.18,-0.087l0.062,0.006l0.074,0.087l0.371,-0.012l0.155,-0.254l-0.006,-0.173l0.049,-0.025l0.13,0.087l0.099,0.006l0.056,-0.031l0.105,0.006l0.124,0.167l0.117,0.025h0.173l0.18,0.087l0.055,-0.031l-0.006,-0.137l0.068,-0.037l0.223,0.056l0.161,0.155l0.247,0.08l0.093,0.081l0.093,0.006l0.21,-0.124l0.149,-0.229h0.074v0.13l-0.068,0.074l0.031,0.05l0.198,-0.074l0.068,-0.081l0.049,0.006l-0.006,0.118l0.056,0.018l0.086,-0.173v-0.136l0.075,-0.043l0.21,0.049l0.192,-0.055l0.049,0.031l-0.012,0.098l0.074,0.062l0.173,-0.068l0.044,0.031l-0.031,0.093l0.049,0.025l0.136,-0.068l0.05,-0.099h0.216l0.099,0.074l0.229,0.037l0.235,0.081l0.136,-0.031l0.013,-0.068l-0.105,-0.056h-0.155l-0.297,-0.118l-0.105,-0.08l-0.013,-0.081l0.075,-0.099l-0.025,-0.16l0.074,-0.062h0.087l0.123,0.099l0.007,0.062l0.191,0.061l0.068,-0.024l0.087,0.012l0.111,0.099l0.236,0.006l0.123,-0.123l0.118,-0.025l0.08,-0.093l0.087,-0.012l0.067,-0.068l0.109,-0.034l0.084,-0.13l0.12,-0.13l0.186,-0.019l0.417,-0.454l0.056,-0.13l0.065,-0.047l0.13,0.019l0.251,-0.149l0.111,-0.167l0.278,-0.055l0.409,0.13l0.157,0.213l0.204,0.009l0.195,-0.167l0.186,0.009l0.334,0.205l0.325,0.139l0.065,0.111v0.102l0.102,0.037l0.195,-0.065l0.185,0.028l0.112,0.13l0.148,0.028l0.195,-0.056l0.223,0.075l-0.01,0.083l-0.111,0.046l-0.195,0.232v0.121l0.306,0.316l0.344,0.204l0.362,0.083l0.25,0.074l0.167,0.13l0.288,0.084l0.501,-0.065l0.195,0.009l0.074,0.084l0.121,0.009l0.13,-0.204l0.204,-0.056l0.39,0.074l0.139,0.093l0.102,0.01l0.13,-0.075l0.102,0.028l0.028,0.111l0.464,0.372l0.037,0.12l0.13,0.075l0.315,-0.019l0.167,0.065l0.075,0.204l0.102,0.093l0.12,-0.009l0.288,-0.39l0.232,-0.019l0.167,0.102l0.186,0.01l0.148,-0.204v-0.297l0.065,-0.065v-0.14l-0.056,-0.12l0.093,-0.186l0.158,-0.037l0.083,-0.139l-0.018,-0.121l0.093,-0.093l0.074,-0.009l0.046,-0.074l-0.176,-0.093l-0.102,-0.111v-0.112l-0.26,-0.222h-0.102l-0.074,-0.047l0.009,-0.102l-0.158,-0.13l-0.594,-0.148l-0.454,-0.279l-0.13,-0.185l-0.297,-0.167l-0.214,-0.019l-0.148,-0.102l-0.009,-0.12l-0.065,-0.112l-0.102,-0.055l0.009,-0.177l0.102,-0.083l0.102,0.074l0.074,-0.019l-0.018,-0.148l-0.177,-0.139l-0.139,0.065l-0.121,-0.028l-0.018,-0.139l-0.093,-0.019l-0.102,0.084l0.037,0.102l-0.074,0.037l-0.195,-0.13l-0.093,-0.186l0.065,-0.093v-0.148l-0.13,-0.176l-0.018,-0.344l0.074,-0.241l0.084,-0.028l0.157,0.056h0.084l0.093,-0.084l0.287,-0.065l0.325,-0.306l0.297,-0.176l0.102,-0.232l-0.018,-0.158l0.064,-0.093l0.047,-0.111l-0.056,-0.056l-0.077,0.006l-0.034,-0.037l0.025,-0.052l-0.041,-0.05l-0.089,-0.003l-0.14,0.047l-0.043,-0.016l-0.003,-0.037l-0.102,-0.043l-0.068,0.018l-0.04,0.087l-0.071,-0.009l-0.186,-0.099l-0.037,-0.121l-0.093,-0.102l0.034,-0.059l-0.028,-0.022l-0.123,0.031l-0.028,-0.027l0.028,-0.072l0.061,-0.034l-0.006,-0.055l-0.145,-0.084l-0.084,-0.003l-0.031,0.043l-0.096,0.013l-0.049,0.071l-0.136,0.009l-0.09,0.056l-0.074,-0.043l-0.006,-0.102l-0.065,-0.016l-0.136,0.093l-0.037,0.09l-0.053,0.003l-0.127,-0.155l-0.006,-0.152l-0.056,-0.099l-0.062,0.007l-0.08,0.108l-0.102,0.015l-0.105,-0.055l-0.016,-0.09l-0.049,-0.016l-0.037,0.05h-0.05l-0.083,-0.062l-0.093,0.025l-0.053,0.111l-0.071,0.031l-0.071,-0.028l-0.003,-0.043l-0.034,-0.015l-0.074,0.03l-0.016,-0.024l0.062,-0.09l-0.031,-0.083l-0.124,-0.059l-0.003,-0.062l0.047,-0.056l-0.025,-0.13l-0.108,-0.108h-0.059l-0.028,0.028l-0.052,-0.003l-0.118,-0.068l-0.111,0.006l-0.087,0.059l-0.068,-0.003l-0.084,-0.072l-0.071,0.016l-0.021,0.077l-0.05,-0.006l-0.111,-0.105l0.031,-0.043l-0.028,-0.028l-0.09,0.006l-0.096,-0.04l-0.012,-0.056l0.059,-0.062l-0.003,-0.046l-0.096,-0.006l-0.062,-0.028l-0.043,-0.071l-0.279,-0.152l-0.207,-0.049l-0.108,-0.127l-0.093,-0.031l-0.04,-0.068l0.037,-0.133l0.049,-0.037l0.019,-0.047l-0.028,-0.043l0.019,-0.05l0.068,-0.061l0.117,-0.232l0.071,-0.007l0.078,0.056l0.108,-0.006l0.062,-0.071l0.089,-0.006l0.075,0.037l0.099,-0.016l0.065,-0.09l0.031,-0.123l-0.078,-0.09l-0.009,-0.232l-0.059,-0.087l0.009,-0.061l0.081,-0.075l0.04,-0.126l0.09,-0.087l0.093,-0.176l0.006,-0.115l-0.022,-0.102l-0.015,-0.161l-0.044,-0.021l-0.3,0.074l-0.102,-0.025l-0.065,-0.065l-0.071,-0.155l-0.155,-0.006l-0.058,0.034l-0.044,-0.003l-0.08,-0.055l-0.062,-0.004l-0.053,0.019l-0.058,-0.012l-0.071,-0.062l-0.013,-0.146l-0.096,-0.086l-0.08,-0.006l-0.077,0.055l-0.115,0.01l-0.099,-0.047l-0.068,0.006l-0.037,0.044l-0.152,0.006l-0.164,-0.022l-0.052,-0.046l-0.056,0.003l-0.049,0.031l-0.059,-0.003l-0.084,-0.075l-0.089,0.007l-0.071,0.105l-0.096,0.062l-0.102,0.012l-0.056,0.046h-0.074l-0.081,-0.074l-0.04,-0.266l-0.034,-0.049l-0.04,-0.003l-0.037,0.018l-0.056,-0.025l-0.049,-0.086l-0.084,-0.043l-0.006,-0.038l0.037,-0.021l-0.003,-0.034l-0.028,-0.028l-0.102,0.003l-0.065,-0.028l-0.022,-0.102l-0.08,-0.148l-0.118,-0.093l-0.009,-0.047l-0.049,-0.046l-0.133,-0.037l-0.152,-0.17l-0.053,-0.099l-0.071,-0.053l-0.164,-0.009l-0.083,0.046l-0.09,-0.009l-0.071,-0.043l-0.062,-0.003l-0.049,0.037l-0.068,0.114l-0.149,0.009l-0.065,-0.037l0.006,-0.052l-0.188,-0.124l-0.031,-0.068l-0.084,-0.049l-0.025,-0.069l-0.12,-0.058l-0.374,-0.016l-0.171,0.056l-0.077,0.173l-0.009,0.207l-0.084,0.149l-0.102,0.006l-0.028,0.053l0.007,0.058l-0.028,0.09l-0.047,0.046l-0.012,0.056l0.031,0.121l-0.034,0.043l-0.149,0.006l-0.136,-0.167l-0.092,-0.046l-0.004,-0.077l-0.077,-0.115l0.006,-0.09l-0.068,-0.108l-0.003,-0.114l0.034,-0.028l0.009,-0.053l-0.083,-0.08l-0.087,-0.022l-0.08,-0.08l-0.096,-0.016l-0.087,-0.074l-0.096,-0.009l-0.123,0.055l-0.362,-0.018l-0.09,0.025l-0.077,-0.003l-0.105,-0.059l-0.297,0.034l-0.053,0.133l0.111,0.182l-0.009,0.078l-0.052,0.012l-0.551,-0.155l-0.077,0.01l-0.047,0.071l-0.13,0.012l-0.055,-0.08l-0.118,-0.006l-0.074,0.037l-0.087,-0.013l-0.123,-0.055l-0.093,0.024l-0.074,0.093l-0.322,0.18l-0.068,0.129l-0.013,0.174l-0.024,0.117l-0.149,-0.012l-0.08,-0.031l-0.087,0.037l-0.012,0.068l-0.13,0.111l-0.111,0.013l-0.143,-0.087h-0.142l-0.099,0.087l-0.111,0.037l-0.124,-0.031l-0.223,0.031l-0.13,0.124l-0.099,0.179l-0.148,0.105l-0.112,-0.043l-0.049,-0.068l-0.186,-0.087l-0.136,-0.006l-0.093,-0.043l-0.037,-0.074l-0.167,-0.069l-0.092,0.031h-0.093l-0.044,-0.043l-0.123,0.006l-0.081,0.068h-0.105l-0.08,-0.105l0.031,-0.074l-0.037,-0.05l-0.223,-0.092v-0.062l0.105,-0.074l0.179,-0.056l0.087,-0.13l0.049,-0.161l0.075,-0.093l0.093,-0.105l0.024,-0.124l-0.024,-0.068l-0.075,-0.024l-0.241,-0.155l-0.179,-0.025l-0.235,-0.13l-0.025,-0.086l-0.056,-0.037l-0.198,0.037l-0.08,-0.037l-0.006,-0.056l-0.062,-0.037l-0.087,0.012l-0.062,-0.043l-0.006,-0.142l-0.111,-0.069l-0.05,-0.092l-0.179,-0.105l-0.105,0.024l-0.223,-0.037l-0.13,-0.068l-0.031,-0.068l-0.056,-0.031l-0.123,0.019l-0.081,-0.05l-0.383,-0.025l-0.174,0.069l-0.167,-0.05l-0.049,-0.124l-0.093,-0.018l-0.056,0.037l-0.055,-0.006l-0.087,-0.056l-0.241,-0.025l-0.056,-0.062l-0.117,-0.031l-0.093,0.025l-0.112,-0.08l-0.037,-0.124l-0.123,-0.099h-0.106l-0.08,-0.056l-0.012,-0.074l-0.136,-0.105l-0.143,-0.012l-0.222,-0.143l-0.143,-0.13l-0.117,-0.235v-0.092l0.123,-0.044l0.013,-0.086l-0.223,-0.149l-0.266,-0.111l-0.235,-0.013l-0.043,-0.061l0.031,-0.069l-0.031,-0.068l-0.279,-0.043l-0.062,-0.049l-0.024,-0.093l-0.099,-0.043l-0.297,0.074l-0.093,-0.044l-0.08,-0.086l-0.18,-0.025l-0.124,0.081l-0.346,0.049l-0.062,0.068l0.025,0.08l-0.062,0.13l-0.056,0.007l-0.222,-0.18l-0.254,-0.093h-0.192l-0.099,-0.037l-0.229,-0.167l-0.358,-0.102l-0.084,-0.127l0.015,-0.123l-0.105,-0.102l-0.133,0.003l-0.058,0.083l-0.103,0.013l-0.105,-0.047l-0.114,0.031l-0.028,0.121l-0.087,0.077l-0.216,0.003l-0.096,0.062l-0.244,-0.006l-0.016,-0.074l-0.093,-0.072l-0.225,-0.003l-0.096,0.096l-0.099,0.003l-0.047,-0.037l-0.055,-0.003l-0.056,0.043l-0.08,0.022l-0.072,0.059l-0.156,-0.01l-0.079,-0.033l-0.093,0.037l-0.148,0.142h-0.074l-0.13,-0.161l-0.118,-0.043l-0.198,0.025l-0.092,0.055l-0.068,-0.006l-0.081,-0.111l-0.235,-0.075l-0.074,-0.129l-0.099,-0.007l-0.087,0.075l-0.049,0.179l-0.099,0.031l-0.087,-0.012l-0.13,0.068l-0.074,-0.007l-0.08,-0.105l-0.137,-0.025l-0.179,-0.148l-0.105,0.006l-0.112,0.149l-0.123,0.006l-0.149,-0.118h-0.093l-0.092,0.105h-0.105l-0.149,-0.105l-0.08,-0.006l-0.019,-0.086l-0.074,-0.044h-0.093l-0.118,-0.117l-0.235,-0.081l-0.284,-0.216l-0.142,-0.019l-0.161,-0.068l-0.056,-0.148l0.031,-0.13l-0.105,-0.099l-0.161,-0.031l-0.093,0.031l-0.148,0.123l-0.13,0.056l-0.155,0.006l-0.105,-0.049l-0.006,-0.087l-0.118,-0.055l-0.055,0.043l-0.087,-0.013l-0.087,-0.123l-0.21,-0.074l-0.13,0.012l-0.105,-0.037l-0.031,-0.093l-0.056,-0.037l-0.099,0.037l-0.148,-0.006l-0.056,0.043l0.013,0.062l-0.062,0.012l-0.155,-0.037l-0.161,-0.049l-0.074,-0.099l-0.173,-0.143l-0.136,-0.012l-0.167,0.05l-0.155,-0.019l-0.068,-0.074v-0.062l-0.074,-0.074l-0.13,-0.007l-0.031,-0.068l0.031,-0.179l-0.075,-0.031l-0.08,0.037l-0.303,-0.055l-0.421,-0.174l-0.222,-0.148l-0.223,-0.025l-0.05,-0.043l0.006,-0.068l-0.136,-0.093l-0.074,-0.006l-0.136,0.068l-0.155,0.006l-0.08,0.043l-0.062,0.105l-0.08,0.031l-0.081,0.062h-0.303l-0.142,-0.043l-0.149,-0.161l-0.123,-0.006l-0.167,-0.062l-0.124,0.012l-0.248,-0.037l-0.179,-0.049h-0.105l-0.142,-0.093l-0.075,-0.006l-0.055,0.037l-0.186,-0.05l-0.074,-0.055h-0.13l-0.136,0.08l-0.409,0.013l-0.074,0.055h-0.117l-0.124,-0.012l-0.08,0.056l-0.025,0.086l0.031,0.093l-0.019,0.087l-0.204,0.179l-0.099,0.155l-0.049,0.284l-0.093,0.112l-0.081,0.037l-0.024,0.055l0.024,0.075l-0.043,0.142l0.012,0.093l0.161,0.043l0.229,0.015l0.306,0.103l0.223,0.176l0.195,0.083l0.251,0.037l0.241,0.14l0.102,0.306l0.083,0.714l0.093,0.084l0.176,0.037l0.065,0.111l0.093,0.01l0.158,-0.112l0.232,-0.009l0.315,0.149l0.186,0.037l0.176,-0.01l0.177,0.065l0.26,0.279l0.185,0.065l0.176,-0.056l0.325,0.046l0.232,0.056l0.334,-0.009l0.52,0.074l0.325,0.158l0.464,0.538l0.167,0.037l0.176,-0.056l0.223,0.038l0.241,0.232l0.149,0.482l0.009,0.371l0.26,0.353l0.185,0.065l0.269,-0.019l0.446,0.084l0.204,0.102l0.325,0.102h0.185l0.204,0.093l0.186,0.148l0.316,0.659l0.222,0.687l0.108,0.922l0.05,0.228l0.049,0.143l0.174,0.093l0.161,0.222l0.198,0.65l0.012,0.303l-0.056,0.148l0.019,0.192l0.099,0.142l0.086,0.31l0.297,0.34l0.167,0.316l0.155,0.222l0.019,0.415l0.074,0.303l0.055,0.532l-0.086,0.501l-0.353,0.699l-0.303,0.303l-0.254,0.031l-0.179,0.13l-0.155,0.241l0.025,0.174l-0.111,0.383l-0.124,0.316z"/>
</svg>
