<svg xmlns="http://www.w3.org/2000/svg" viewBox="756.647 713.124 19.624 23.914">
  <path d="M774.226243,719.262994l0.021687,-0.02156l0.046472,0.00924v0.03696l-0.051119,0.00462l-0.01704,-0.02926Z M772.165982,718.403666l0.024785,-0.02156l-0.018589,-0.03388h-0.03408l-0.015491,0.03696l0.043374,0.01848Z M772.45101,718.606948l0.052668,0.01232l0.027883,-0.02464l-0.021687,-0.04928l-0.065061,-0.01232l-0.015491,0.03388l0.021687,0.04004Z M772.593525,718.86567l0.058865,0.00616l0.006196,-0.04312l-0.027883,-0.02772h-0.058865l-0.015491,0.02464l0.037178,0.04004Z M772.757726,718.87183l0.024785,-0.04004l-0.037178,-0.02156l-0.037178,0.02156v0.03696l0.04957,0.00308Z M770.023619,716.252265l-0.023236,-0.097021l-0.037178,-0.01386l-0.051119,0.03234l-0.009294,0.064681l0.065061,0.0462l0.055766,-0.03234Z M759.996495,715.369837l0.151809,-0.083161l0.130122,-0.231002h0.058865l0.012393,0.095481l-0.03408,0.092401l-0.114631,0.092401l-0.207575,0.120121l-0.030981,-0.01232l0.03408,-0.073921Z M760.647104,713.943783l-0.021687,0.04312l0.021687,0.073921l0.040276,0.00616l0.003098,-0.058521l-0.015491,-0.058521l-0.027883,-0.00616Z  M756.647408,735.639512l0.05,-0.074l0.192,-0.056l0.304,0.142l0.08,-0.043l-0.012,-0.16l0.074,-0.29l0.174,-0.172h0.204l0.186,-0.056l0.452,-0.628l0.211,-0.598l0.143,-0.123l0.192,-0.48l0.254,-0.198l0.148,-0.295l-0.043,-0.167l0.037,-0.08l0.099,-0.024l0.031,-0.154l-0.055,-0.111l0.037,-0.253l0.08,-0.16l-0.012,-0.45l-0.105,-0.271l0.006,-0.098l0.105,-0.074l0.019,-0.253l-0.099,-0.098l-0.112,0.031l-0.074,-0.05l0.13,-0.437l0.142,-0.08l0.292,-0.468l0.297,-0.08l0.13,-0.13l0.068,-0.449l0.236,-0.271l0.099,-0.943l0.105,-0.08l0.056,-0.185l-0.087,-0.203l-0.118,-0.062l-0.123,0.068l-0.137,-0.043l-0.204,-0.21l-0.006,-0.314l-0.242,-0.449l-0.186,-0.093l-0.211,0.037l-0.124,-0.092l0.013,-0.16l-0.093,-0.142l-0.18,-0.025l-0.111,-0.215l0.024,-0.087l-0.278,-0.147l-0.093,-0.382l-0.174,-0.358l-0.124,-0.08l0.056,-0.388l0.105,-0.129l-0.024,-0.136l-0.347,-0.184l-0.081,-0.185l0.087,-0.351l-0.031,-0.555l-0.199,-0.172l-0.105,-0.179l-0.074,-0.862l0.167,-0.148l0.043,-0.302l-0.099,-0.24l0.056,-0.475l-0.062,-0.11l-0.149,-0.007l-0.093,-0.092l0.025,-0.253l-0.08,-0.689l0.018,-0.198l0.18,-0.203l0.025,-0.505l0.204,-0.468l0.285,-0.185l0.168,-0.166l0.13,-0.099l0.285,-0.431l0.223,-0.283l0.434,-0.198l0.439,-0.431l0.106,-0.154l0.396,-0.246l0.056,-0.142l-0.049,-0.166l0.161,-0.234l0.148,-0.105l0.069,-0.419l-0.025,-0.394l0.161,-0.419l0.192,-0.216l0.232,-0.074l0.363,0.056l0.669,0.323l0.307,0.268l0.613,0.305l0.837,0.25l0.585,0.055l0.422,0.105l0.204,-0.129l0.118,-0.025l0.409,0.179l0.604,0.258l0.48,0.259l0.486,0.074l0.484,0.24l0.697,0.591l0.279,0.426l0.529,0.397l0.642,0.656l0.384,0.222l0.626,0.554l0.334,0.4v0.099l-0.161,0.025v0.037l0.199,0.006l0.136,-0.08l0.018,-0.148l0.106,-0.086l0.217,0.018l0.272,0.302l0.031,0.166l-0.087,0.099l-0.185,0.037l-0.093,0.129l-0.038,0.253l-0.055,0.203l0.124,-0.216l0.024,-0.178l0.075,-0.111l0.192,0.006l0.155,-0.117l0.161,0.038l0.167,0.222l0.4,0.31l0.548,0.275l0.192,0.233l0.068,0.4l0.193,0.364l0.111,0.69v0.419l-0.142,0.184l-0.193,0.105l-0.216,0.16l0.006,0.05l0.303,-0.117l0.31,-0.278l0.112,-0.375l-0.05,-0.302l0.006,-0.893l0.155,-0.278h0.143l0.489,0.315l0.292,0.554l-0.013,0.462l0.118,0.314l0.192,0.191l0.161,0.006l0.031,0.068l-0.142,0.111l-0.019,0.222l0.142,0.369l0.385,0.45l0.012,0.117l-0.167,0.32l-0.037,0.234l0.037,0.302l-0.124,0.167l-0.143,0.012l-0.359,0.209l-0.205,0.259l0.025,0.29l-0.105,0.234l-0.18,0.11l-0.322,0.419l-0.198,0.05l-0.13,0.135l0.031,0.277l-0.093,0.087l-0.155,-0.025l-0.137,0.154l-0.086,0.493l-0.217,0.24l-1.097,1.774l0.012,0.16l-0.272,0.376h-0.099l-0.025,-0.08l-0.13,-0.006l-0.192,0.209l-0.007,0.24l-0.068,0.068l-0.142,0.043l-0.137,0.321l0.143,0.295l-0.452,0.887l0.08,0.173l-0.068,0.092l-0.204,0.043l-0.341,0.672v0.172l-0.347,0.635l-0.149,0.105l0.006,0.178l0.106,0.111l-0.007,0.179l-0.155,0.178l0.019,0.154l-0.254,0.302l-0.155,0.013l-0.062,0.086l0.093,0.086l-0.031,0.074l-0.155,0.012l-0.056,0.08l-0.086,0.339l-0.329,0.111l-0.31,0.253l-0.52,0.172l-0.223,0.197l-0.229,0.444l-0.149,0.018l-0.093,0.105l-0.291,0.062l-0.422,-0.13l-0.154,-0.178l-0.199,-0.068l-0.904,0.117l-0.186,0.117l-0.068,-0.062l0.117,-0.246l0.211,-0.093l-0.006,-0.141l-0.651,-0.475l-0.167,0.019l-0.136,0.191l-0.316,0.142l-0.174,0.215l-0.18,0.037l-0.96,-0.129l-0.49,-0.191l-0.235,0.006l-0.074,-0.074l0.117,-0.203l-0.068,-0.148l-0.18,-0.062l-0.247,0.117l-0.087,0.142l-0.434,0.216l-0.056,0.141l-0.111,0.093l-0.136,-0.05l-0.106,0.05l0.006,0.258l-0.533,0.241l-0.235,-0.031l-0.124,0.055l-0.087,0.281l-0.161,0.157l-0.179,0.006l-0.199,-0.093l-0.043,-0.227l-0.074,-0.037l-0.385,0.154l-0.415,-0.019l-0.285,-0.148l0.006,-0.246l-0.111,-0.074l-0.143,0.098l-0.272,0.031l-0.273,-0.061l-0.4,-0.327l0.069,-0.154l-0.115,-0.166l-0.167,-0.08l-0.112,0.031l-0.149,-0.08z"/>
</svg>
