<svg xmlns="http://www.w3.org/2000/svg" viewBox="1099.639 392.608 4.308 4.946">
  <path d="M1102.394818,397.411232v-0.017254l0.017254,-0.007395l0.017254,0.012324l-0.012324,0.017254l-0.022184,-0.00493Z M1102.56736,397.253479l-0.029579,0.069017l-0.086271,0.054228l-0.002465,0.019719l0.051763,0.017254l0.027114,0.029579l0.069017,0.012324l0.078877,-0.027114l0.032044,-0.041903l0.039438,-0.019719l0.041903,0.014789l0.029579,0.036973l0.002465,0.066552l0.024649,0.017254l0.024649,-0.019719l0.032044,0.00493l0.022184,0.036973l0.029579,0.002465l0.022184,-0.039438v-0.036973l-0.029579,-0.034509l-0.00493,-0.091201l0.039438,-0.046833l0.073947,-0.017254l0.103526,0.00493l0.076412,0.032044l0.046833,0.039438l-0.007395,0.061622l0.017254,0.014789l0.029579,-0.022184l0.017254,0.00986l-0.029579,0.061622v0.039438l0.024649,0.017254l0.014789,-0.014789l0.007395,-0.054228l0.019719,-0.017254h0.039438l0.044368,0.019719l0.088736,0.098596l0.036973,0.002465l0.019719,-0.029579l0.066552,-0.019719h0.071482l0.071482,0.034509h0.034509l0.032044,-0.024649l-0.022184,-0.046833l-0.019719,-0.11092l0.007395,-0.061622l0.036973,-0.049298l0.054228,-0.012324l0.00986,-0.019719l-0.027114,-0.032044l-0.00493,-0.032044l-0.044368,-0.046833l-0.002465,-0.039438l0.019719,-0.029579l0.029579,-0.00986l0.00493,-0.019719l-0.017254,-0.041903l-0.017254,-0.024649l-0.11092,-0.039438l-0.019719,-0.029579l-0.049298,-0.017254l-0.041903,0.024649l-0.093666,0.022184l-0.049298,-0.019719l-0.014789,-0.059157l-0.066552,-0.071482l-0.056693,-0.00493l-0.036973,0.032044l-0.066552,0.002465l-0.039438,-0.027114l-0.101061,-0.007395l-0.086271,-0.051763l-0.044368,0.002465l-0.076412,0.034509l-0.034509,0.046833l-0.10599,0.022184h-0.064087l-0.051763,-0.041903l-0.11092,-0.056693h-0.024649l-0.014789,0.027114l-0.029579,0.002465l-0.061622,-0.022184l-0.041903,0.024649l-0.014789,0.051763l0.017254,0.066552l0.059157,0.041903l0.064087,0.086271l0.036973,0.086271l0.022184,0.101061l-0.012324,0.088736Z M1102.998717,397.374258l0.014789,-0.012324l-0.007395,-0.014789l-0.017254,0.002465l-0.00493,0.017254l0.014789,0.007395Z M1103.237811,397.458065l0.00986,-0.029579l-0.00986,-0.014789l-0.019719,0.014789l-0.002465,0.022184l0.017254,0.036973l0.012324,-0.002465l-0.007395,-0.027114Z  M1099.651391,394.951268l0.007395,-0.024649l0.034509,-0.007395l0.019719,0.017254l-0.002465,0.029579l-0.029579,0.002465l-0.029579,-0.017254Z M1099.648926,395.212547l0.029579,0.044368l0.064087,0.017254l0.064087,-0.017254l0.081341,0.012324l0.12078,0.044368l0.128174,0.00986l0.078877,-0.022184l0.022184,-0.022184l0.027114,-0.012324l0.076412,0.017254l0.022184,0.044368l0.027114,0.002465l0.022184,-0.032044l0.046833,-0.036973l0.027114,-0.012324l0.036973,0.014789l-0.00493,0.029579l0.012324,0.019719l0.041903,-0.019719l0.019719,-0.029579l-0.029579,-0.086271l0.00493,-0.069017l0.019719,-0.024649l0.002465,-0.024649l-0.024649,-0.019719v-0.019719l0.036973,-0.022184l-0.002465,-0.054228l-0.039438,-0.039438l0.00986,-0.046833l0.039438,-0.036973l0.081341,-0.029579l0.036973,-0.046833l0.002465,-0.044368l0.032044,-0.044368l0.002465,-0.061622l-0.027114,-0.049298l-0.051763,-0.00493l-0.014789,-0.024649h-0.022184l-0.007395,0.034509l-0.022184,0.024649h-0.032044l-0.014789,-0.027114l0.014789,-0.024649l-0.012324,-0.012324l-0.022184,0.00986l-0.039438,-0.00493l-0.039438,0.012324l-0.012324,0.022184l0.032044,0.012324l0.014789,0.022184l-0.012151,0.03235l0.002292,0.036667l-0.022184,0.012324l-0.034509,-0.027114l-0.002465,-0.027114l-0.022184,-0.007395l-0.029579,0.019719l-0.059157,-0.007395l-0.039438,0.024649v0.032044l-0.022184,0.014789l-0.044368,-0.002465l-0.024649,0.014789l0.007395,0.032044l-0.019719,0.056693l-0.029579,0.014789l-0.036973,0.00493l-0.027114,0.014789l-0.049298,-0.007395l-0.00493,0.012324l0.024649,0.017254l0.00493,0.019719l-0.024649,0.032044l-0.046833,0.00493l-0.029579,-0.029579l-0.044368,-0.012324l-0.024649,0.017254l0.014789,0.056693l-0.024649,0.022184l-0.034509,-0.012324h-0.054228l-0.054228,0.019719l-0.00493,0.024649l0.044368,0.036973l0.007395,0.064087l-0.032044,0.056693l-0.029579,0.019719l-0.064087,-0.012324l-0.024649,0.017254l0.007395,0.041903Z  M1100.999688,395.044682l0.012324,-0.024649l0.027114,-0.007395l0.012324,0.019719l-0.012324,0.022184l-0.027114,0.007395l-0.012324,-0.017254Z M1101.147581,394.97813l0.012324,-0.046833l-0.024649,-0.051763l-0.00493,-0.049298l-0.019719,-0.014789l-0.054228,0.022184l-0.007395,0.029579l0.034509,0.044368l-0.002465,0.036973l0.017254,0.044368l0.024649,0.002465l0.024649,-0.017254Z M1101.490202,395.278847l0.00986,0.017254h0.022184l0.027114,-0.012324l0.002465,-0.019719l-0.029579,-0.014789l-0.051763,0.012324l-0.002465,0.017254h0.022184Z M1101.655349,395.554915l0.007395,-0.019719l-0.014789,-0.00986l-0.014789,0.012324l0.002465,0.014789l0.019719,0.002465Z M1101.561683,395.468644l0.039438,0.014789l0.029579,-0.022184l0.022184,-0.061622l0.044368,-0.044368l0.064087,-0.017254l0.041903,-0.036973l0.00493,-0.056693l-0.017254,-0.024649l-0.036973,-0.00986l-0.022184,-0.039438l-0.083806,-0.059157l-0.00986,0.012324l0.012324,0.022184l-0.00986,0.046833l-0.014789,0.051763l-0.032044,0.014789l-0.002465,0.049298l0.041903,0.029579v0.027114l-0.069017,0.036973l-0.012324,0.036973l0.00986,0.029579Z M1102.35045,392.653735l0.059157,-0.022184l0.002465,-0.022184l-0.019719,-0.002465l-0.054228,0.019719l-0.00493,0.019719l0.017254,0.007395Z M1102.505738,392.880505l0.029579,0.029579l0.076412,0.014789l0.071482,-0.014789l0.041903,-0.034509l0.086271,-0.019719l0.061622,-0.054228l0.034509,-0.00493l0.024649,-0.036973l-0.012324,-0.032044l0.017254,-0.012324h0.044368l0.046833,-0.041903l-0.012324,-0.034509l-0.083806,-0.00986l-0.024649,-0.012324l-0.051763,0.00493l-0.024649,0.036973v0.039438l-0.029579,0.019719l-0.046833,-0.007395l-0.017254,-0.034509l-0.019719,-0.00493l-0.029579,0.036973l-0.073947,0.00986l-0.024649,0.022184l-0.012324,0.029579l-0.071482,0.017254v0.017254l0.022184,0.014789v0.022184l-0.019719,0.014789l-0.002465,0.024649Z "/>
</svg>
