<svg xmlns="http://www.w3.org/2000/svg" viewBox="1095.684 676.912 29.375 42.737">
  <path d="M1116.289018,677.165873l-0.083,0.13l0.013,0.074l0.279,0.125h0.292l0.088,-0.12l0.144,-0.028l0.13,0.023l0.014,0.121l0.148,0.185l0.014,0.39l0.033,0.125l-0.144,0.116l-0.093,0.01l-0.055,0.176l0.027,0.158l-0.046,0.162l-0.074,0.06l-0.033,0.191l0.051,0.148l-0.023,0.13l-0.302,0.315l-0.004,0.307l-0.093,0.023l-0.009,0.06l0.055,0.107l0.107,0.38l0.084,0.051l0.199,0.033l0.047,0.06l0.361,0.098l0.135,0.153l-0.008,0.094l0.058,0.053l0.276,0.083l0.216,0.13l0.087,0.313l0.003,0.086l0.08,0.068l0.01,0.059l-0.022,0.053l0.012,0.074l0.13,0.071l0.034,0.071l0.071,-0.006l0.037,-0.105l0.112,-0.003l0.17,0.086l0.096,0.003l0.046,-0.08h0.068l0.09,0.142l-0.046,0.099l0.015,0.074l0.084,0.031l0.052,0.078l-0.012,0.083l0.031,0.04l0.08,0.016l0.016,0.062l-0.072,0.089l0.034,0.047h0.143l0.269,-0.056l0.065,0.019l-0.003,0.049l-0.096,0.031l-0.071,0.081v0.049l0.046,0.012v0.056l-0.09,0.04l-0.046,0.084l-0.003,0.232l-0.031,0.049l-0.022,0.282l0.081,0.145l-0.006,0.093l-0.072,0.189l0.016,0.086l0.074,0.047l0.18,0.027l0.145,0.118l0.018,0.173l-0.055,0.099l-0.09,0.01l-0.176,-0.072l-0.044,0.034l0.016,0.062l-0.003,0.062l-0.031,0.05l0.003,0.114l0.063,0.124l0.126,0.107l-0.014,0.069l-0.153,0.056l-0.07,0.102l-0.009,0.218l0.032,0.088l0.005,0.209l-0.111,0.162l-0.019,0.102l-0.046,0.033l-0.005,0.046l0.051,0.047l-0.005,0.046h-0.06l-0.014,0.046l0.023,0.051l-0.055,0.167l0.037,0.093l0.088,0.01l0.079,0.116l-0.01,0.148l0.042,0.042l0.056,0.014l0.111,0.195l-0.046,0.157v0.093l0.065,0.047l-0.009,0.074l-0.089,0.079l-0.078,0.018h-0.075l-0.083,-0.037l-0.288,-0.005l-0.074,0.075l-0.079,0.004l-0.074,-0.046h-0.074l-0.033,0.046l-0.023,0.167l0.051,0.126l0.083,0.018l0.116,-0.032l0.14,0.023l0.102,0.074l-0.005,0.065l-0.135,0.098l-0.06,0.004l-0.074,0.047l-0.098,0.004l-0.111,-0.051l-0.051,0.019v0.144l0.162,0.19l0.168,0.028l0.329,-0.135l0.111,-0.148l0.005,-0.126l0.07,-0.051h0.074l0.13,0.042h0.167l0.055,-0.06l0.228,0.009l0.06,0.07l0.167,0.023l0.088,0.088l0.005,0.079l-0.037,0.065l0.028,0.074l0.106,0.014l0.223,0.097l0.079,0.13l-0.125,0.395l0.009,0.079l0.065,0.134l-0.028,0.051l-0.097,0.009l-0.089,0.158l-0.106,0.112l-0.01,0.088l0.158,0.255l-0.004,0.074l-0.061,0.065l-0.042,0.176l-0.102,0.065l-0.12,0.037l-0.019,0.07l0.037,0.074l0.005,0.126l-0.033,0.083l-0.06,0.033l-0.055,0.111l0.004,0.121l-0.051,0.06v0.074l0.084,0.047l0.018,0.078l-0.014,0.098l0.149,0.32l0.079,0.028l0.06,0.116l-0.033,0.116l0.028,0.102l0.084,0.158l-0.042,0.157l-0.116,0.07l-0.042,0.167l0.033,0.065l-0.033,0.06l-0.144,0.042l-0.06,-0.019l-0.046,-0.074l-0.074,0.005l-0.065,0.153l-0.065,0.014l-0.098,-0.084l-0.172,0.024l-0.032,0.116l0.097,0.065l0.005,0.046l-0.093,0.019l0.01,0.092l0.593,0.961l0.121,0.018l0.107,0.116l0.023,0.093l0.07,0.009l0.046,-0.027l0.051,0.018l0.009,0.047l0.181,0.102l0.028,0.078l0.153,0.098l0.079,-0.023l0.153,0.051v0.06l0.037,0.033h0.051l0.047,0.041l0.004,0.126l0.042,0.083l-0.018,0.176l0.046,0.079l0.176,0.074l0.14,0.154l0.032,0.204l0.056,0.083l0.065,0.019l0.004,0.292l-0.037,0.06l-0.13,0.019l-0.13,0.056l-0.032,0.088l-0.051,0.032h-0.177l-0.051,0.042l-0.004,0.056l-0.056,0.023l-0.032,0.065l0.009,0.06l-0.051,0.056l-0.121,-0.005l-0.093,0.084l0.019,0.06l0.172,0.07l0.004,0.06l-0.051,0.019l0.014,0.162l-0.028,0.06l-0.088,0.033l-0.004,0.144l-0.038,0.055l0.005,0.126l0.065,0.181l0.023,0.213l-0.018,0.065v0.065l0.041,0.023l-0.004,0.051l-0.047,0.06l0.121,0.283l0.06,0.335l-0.018,0.051v0.051l0.046,0.055l-0.014,0.112l-0.037,0.069l-0.018,0.237l0.069,0.093l0.028,0.106l-0.019,0.037l-0.074,0.028l-0.037,0.075l0.107,0.315l-0.047,0.014l-0.06,-0.046l-0.116,0.023l-0.056,0.218l0.014,0.292l-0.046,0.047l-0.362,0.143l-0.023,0.093l-0.033,0.441l0.075,0.209v0.051l-0.042,0.042l-0.009,0.088l0.074,0.028l0.037,0.185l0.167,0.2l0.079,0.014l0.172,-0.051l0.134,-0.061l0.111,0.056l0.051,0.144l-0.027,0.079l0.106,0.334l-0.079,0.19l-0.018,0.301l-0.051,0.246l-0.074,0.144l-0.051,0.033l-0.01,0.116l-0.055,0.046l-0.014,0.107l-0.056,0.051l-0.023,0.079l0.032,0.051l0.093,0.042l0.014,0.102l-0.088,0.116l-0.014,0.106l0.046,0.14l-0.074,0.208l-0.079,0.047l-0.209,0.028l-0.171,0.153l0.009,0.143l0.223,0.126l0.032,0.088l-0.051,0.213l-0.106,0.01l-0.024,0.051l0.037,0.051l-0.009,0.037l-0.051,0.032l0.005,0.181l0.074,0.019l0.032,-0.042l0.093,0.042l0.023,0.093l0.065,0.014l-0.004,0.046l-0.061,0.051l0.005,0.093l0.084,0.106l0.134,0.079l0.07,0.014l0.051,-0.018l0.097,0.028l0.056,0.097l0.009,0.297l0.033,0.065l0.004,0.06l-0.083,0.153l0.014,0.088l0.102,0.154l0.055,0.023l0.061,-0.037l0.079,0.032l0.004,0.07l0.093,0.037l0.135,-0.019l0.148,0.056l0.019,0.097l-0.014,0.07l-0.116,0.07l-0.07,0.139l0.028,0.185l0.042,0.061l0.13,0.046l0.032,0.246l0.218,0.074l0.047,0.172l0.273,0.065l0.218,0.13l0.154,0.195l0.041,0.102l0.72,-0.005l0.032,0.121l-0.005,0.144l0.065,0.065l0.042,0.18l0.093,0.135l0.12,0.023l0.079,0.088l0.005,0.07l0.093,0.144v0.125h0.77v0.385l-0.306,0.13l-0.362,0.223l-0.297,0.287l-0.347,0.545l-0.055,0.433l-0.118,0.272l-0.272,0.248l-0.761,0.08l-0.155,0.05l-0.624,-0.025l-0.211,-0.223l-0.111,-0.198l-0.043,-0.13l0.043,-0.148l-0.062,-0.316l-0.179,-0.309l-0.316,-0.266l-0.124,-0.013l-0.018,0.044l0.105,0.025l0.297,0.241l0.179,0.352l0.038,0.223l-0.056,0.198l-0.087,0.093l0.006,0.173l0.038,0.136l-0.025,0.068l-0.477,-0.018l-0.631,-0.056h-0.668l-0.575,0.118l-0.21,0.136l-0.099,0.043h-0.155l-0.371,0.155l-0.074,0.074l-0.198,0.08l-0.149,0.031l-0.167,0.099l-0.056,0.13l-0.235,0.241l-0.148,0.062l-0.155,0.019l-0.996,0.396l-0.192,0.117l-0.859,0.217l-0.263,0.174l-0.107,0.134l-0.241,0.112l-0.153,0.185l-0.084,0.153l-0.162,0.075l-0.482,0.088l-0.149,0.069l-0.06,0.084l-0.074,0.046l-0.288,0.065l-0.265,0.13l-0.222,0.181l-0.051,0.098l-0.037,0.041l-0.089,0.037l-0.079,0.098l-0.148,0.107l-0.274,0.046l-1.164,0.042l-0.395,0.046l-0.12,0.079l-0.265,0.121l-0.111,0.111l-0.497,0.274l-0.603,0.069l-0.153,0.084l-0.413,0.083l-0.691,0.177l-0.622,0.102l-0.088,0.069l-0.065,0.149v0.079l-0.074,0.079l-0.279,0.088l-0.083,0.079l-0.019,0.055l-0.046,0.042l-0.167,0.07l-0.051,0.088l0.004,0.125l-0.092,0.07l-0.293,0.018l-0.171,0.079l-0.024,0.06l-0.069,0.038l-0.107,0.004l-0.209,0.121l-0.139,0.028l-0.148,0.116l-0.056,0.111l-0.167,0.107l-0.014,0.06l-0.056,0.047l-0.362,0.018l-0.176,0.07l-0.218,-0.024l-0.102,-0.088v-0.144l-0.093,-0.06h-0.144l-0.153,-0.046l-0.06,-0.098l-0.237,-0.185l-0.162,-0.07l-0.046,-0.069l0.004,-0.089l-0.241,-0.162l-0.343,-0.162l-0.622,-0.172l-3.058,-0.636l-0.677,-0.12l-0.784,-0.172l0.002,-0.067l0.002,-0.068l0.172,0.01l0.121,-0.061l0.403,0.051l0.223,0.167h0.125l0.093,-0.055l0.033,-0.061l-0.07,-0.078l0.023,-0.07l0.079,0.028h0.167l0.084,-0.037l0.143,0.018l0.112,0.098h0.046l0.033,-0.065l0.046,-0.005l0.097,0.084l0.13,0.018l0.056,-0.042h0.093l0.042,0.047h0.051l0.046,-0.07l0.065,-0.014l0.111,-0.134l-0.027,-0.079l-0.061,-0.014l-0.037,-0.107l0.028,-0.06l-0.046,-0.149l-0.065,-0.032l-0.019,-0.074l0.023,-0.047v-0.046l-0.042,-0.028l-0.004,-0.056l0.046,-0.018v-0.051l-0.102,-0.061l-0.005,-0.046l-0.064,-0.083v-0.07l0.102,-0.042l0.014,-0.102l-0.047,-0.13l-0.005,-0.12l0.042,-0.019l0.047,0.042l0.125,0.014l0.07,0.032l0.046,-0.009v-0.297l-0.172,-0.325l-0.111,-0.784l0.014,-0.283l-0.047,-0.042l-0.014,-0.065l-0.116,-0.055l-0.06,0.037l-0.051,-0.014l-0.037,-0.07l-0.315,-0.134l-0.163,0.102l-0.204,0.051l-0.046,0.042l-0.07,0.004l-0.097,-0.107l-0.116,-0.032l0.088,-0.492l-0.487,0.042l0.032,-0.998l-0.348,-0.83l-0.172,-1.053l-0.352,-0.701l-0.144,-0.014l0.051,-0.204l-0.449,-1.673l0.014,-0.427l-0.093,-0.037l-0.07,-0.092v-0.126l0.061,-0.088l0.06,-0.032l0.033,-0.061v-0.06l0.051,-0.162l0.055,-0.038l0.051,-0.157l-0.037,-0.098l0.033,-0.046l-0.005,-0.051l-0.13,-0.116l0.014,-0.311l0.933,-1.513l0.213,-0.102l0.158,-0.018l0.06,-0.478l0.464,-0.627l-0.139,-0.208l0.028,-0.404l0.167,-0.83l0.093,-0.251l0.051,-0.803l0.394,-0.891l0.06,-0.102l0.014,-0.134l0.116,-0.167v-0.093l0.242,-0.292l0.078,-0.585l0.093,0.009l0.056,0.153l0.079,0.019l0.088,-0.213l0.19,-0.181l0.144,-0.246l0.334,-0.061l0.074,0.042l0.102,-0.028l0.042,-0.204l-0.176,-0.264l-0.023,-0.116l0.116,-0.228l0.069,-0.032l0.098,0.028l0.074,0.028l0.056,-0.014l0.089,0.023l0.384,-0.408l-0.004,-0.66l-0.584,-3.201l-0.105,-0.025l-0.124,0.038l-0.068,-0.068l0.025,-0.099l0.148,-0.056l0.013,-0.087l-0.149,-0.26l-0.006,-0.117l0.031,-0.142l-0.019,-0.087l-0.16,-0.08l-0.038,-0.093l-0.037,-0.26l0.007,-0.155l-0.137,-0.105l-0.278,-0.049l-0.087,0.024l-0.154,-0.024l-0.105,-0.075l-0.038,-0.148l0.081,-0.105l0.012,-0.242l-0.049,-0.086l0.006,-0.099l0.241,-0.087l0.062,-0.117l0.05,-0.173l0.099,-0.106l0.272,-0.148l0.012,-0.111l-0.154,-0.168l-0.106,-0.012l-0.13,-0.117l-0.006,-0.192l0.093,-0.062l0.13,-0.099l0.068,-0.167l-0.012,-0.136l-0.093,-0.211l0.006,-0.197l0.043,-0.13l-0.037,-0.062l-0.148,-0.217l-0.112,-0.031l-0.185,-0.136l-0.081,-0.136l-0.031,-0.161l0.068,-0.154l0.106,-0.149l-0.093,-0.278l-0.068,-0.006l-0.099,-0.087l0.012,-0.217l-0.025,-0.117l0.056,-0.068l0.186,-0.353l0.123,-0.062l0.044,-0.092l-0.13,-0.13l-0.112,-0.192l-0.006,-0.149l0.025,-0.173l0.099,-0.124l0.012,-0.099l-0.043,-0.154l-0.173,-0.173l-0.031,-0.217l-0.043,-0.167l-0.013,-0.328l0.006,-0.173l-0.068,-0.26l0.025,-0.142l0.21,-0.167l0.019,-0.112l-0.025,-0.117l-0.334,-0.149l-0.216,-0.16l-0.025,-0.118l0.049,-0.118v-0.173l0.124,-0.167l0.136,-0.018l0.167,-0.068l0.019,-0.099l-0.378,-0.093l-0.204,-0.124l-0.062,-0.105l0.013,-0.111l-0.056,-0.112l-0.093,-0.049l-0.037,-0.087l-0.012,-0.136l-0.136,-0.34l-0.112,-0.13l0.019,-0.186l0.111,-0.105l0.068,-0.142v-0.124l-0.13,-0.025l-0.068,-0.068v-0.068l0.137,-0.099l0.129,-0.161l0.087,-0.241l0.043,-0.229l0.068,-0.148l0.019,-0.198l0.056,-0.062l0.117,-0.019l0.155,-0.191l-0.006,-0.106l-0.143,-0.142l-0.012,-0.099l0.043,-0.204l0.334,-0.012l0.365,0.037l0.205,-0.025l0.389,0.062l0.042,-0.034l0.845,0.074l1.893,-0.028l0.588,0.04h2.494v0.099h0.376v-0.099h0.514v-0.198h1.229l0.241,0.232l0.501,-0.037l1.299,0.037l0.028,-0.12l0.746,-0.022v0.056l0.556,-0.013v0.143h0.186v0.099l0.124,-0.019l0.105,-0.198h1.082l0.038,0.074l0.055,0.019l0.062,-0.043l0.093,0.024l-0.012,0.062h-0.075l-0.043,0.093l0.062,0.043l0.062,-0.024l0.055,0.018v0.062l0.112,0.081l0.062,0.148l0.074,0.012l0.074,-0.062l0.062,-0.228l0.093,-0.217l0.086,-0.018l0.05,0.068l0.055,-0.007l0.05,-0.105l0.068,-0.012l0.056,0.062l0.08,-0.025l0.031,-0.136l0.198,-0.112l0.192,-0.006l0.049,-0.049l-0.024,-0.155l0.074,-0.346l0.167,-0.099l0.161,0.018l0.074,0.303l0.087,-0.012l0.086,-0.08l0.043,-0.118l0.378,-0.099l0.018,-0.074l-0.08,-0.056l-0.006,-0.08l0.068,-0.118l0.961,0.254z"/>
</svg>
