<svg xmlns="http://www.w3.org/2000/svg" viewBox="1006.101 659.157 19.991 5.092">
  <path d="M1006.490468,664.24867l0.038,-0.056l0.068,0.003l0.037,-0.065l-0.056,-0.065l0.028,-0.12l0.111,-0.038l0.056,-0.129l0.019,-0.149l0.157,-0.083h5.819v-1.207h0.501l0.259,-0.12l0.724,0.111l0.149,-0.074l0.093,-0.093l0.148,-0.112l0.186,-0.018l0.167,0.074l0.324,0.13l0.353,0.046l0.446,-0.074l0.194,-0.102l0.223,-0.176l0.13,-0.223l0.121,-0.557l0.185,-0.111l0.139,-0.121l0.075,-0.139l0.315,-0.093l0.056,0.177l0.139,0.185l0.26,0.242l0.241,0.167l0.538,0.241h0.325l0.214,0.148l0.185,0.037l0.204,-0.009l0.065,0.149l0.121,0.13l0.343,0.204l0.204,0.028l0.27,-0.019l0.204,-0.084l0.222,0.242l0.269,0.13l0.297,0.009l0.13,0.213l0.399,0.205l0.269,0.046l0.316,-0.046l0.204,0.009l0.149,0.111h0.157l0.195,-0.065l0.204,0.056l0.149,-0.028l0.13,-0.158l0.009,-0.195l0.334,-0.092l0.316,0.018l0.139,-0.055l0.213,-0.121l0.158,-0.028l0.316,0.019l0.139,-0.028l0.195,-0.074l0.232,-0.27l0.083,-0.361l-0.037,-0.158l-0.111,-0.065l-0.13,-0.26l-0.158,-0.065l-0.13,-0.139l-0.037,-0.139l-0.149,-0.093l-0.129,-0.009l-0.26,-0.093l-0.195,0.028l-0.176,0.13l-0.474,0.018l-0.26,0.111h-0.13l-0.352,0.149l-0.13,0.139l-0.102,0.121l-0.269,0.037l-0.241,0.093l-0.158,-0.065l-0.204,-0.037l-0.102,-0.103l-0.26,-0.102l-0.112,-0.139l-0.176,-0.13l-0.056,-0.278l-0.102,-0.214l-0.204,-0.176l-0.325,-0.102l-0.315,-0.009l-0.232,0.083l-0.269,0.204h-0.121l-0.464,-0.269l-0.028,-0.232l-0.046,-0.232l-0.149,-0.222l-0.241,-0.177l-0.325,-0.111l-0.287,-0.028l-0.167,0.074l-0.65,-0.204l-0.371,0.13l-0.037,0.074l-0.566,0.288h-0.139l-0.186,-0.148l-0.176,-0.065h-0.26l-0.251,0.074l-0.343,0.241l-0.167,0.269l-0.121,0.371l-0.046,0.319h-7.137l0.066,0.121l0.074,0.209l-0.032,0.217l-0.087,0.128l0.015,0.084l0.11,0.064l0.124,0.031l0.142,0.154l0.05,0.217l-0.136,0.26l0.031,0.068l0.21,0.037l0.254,0.161l0.259,0.018l0.167,-0.086l0.167,-0.013l0.13,0.031l0.155,-0.031l0.439,-0.34l0.229,-0.247l0.297,-0.167l0.13,-0.007l0.229,0.093l0.291,0.019l0.723,-0.074l0.341,-0.007l0.136,-0.074l0.216,-0.012l0.223,0.062l0.421,-0.044l0.266,-0.216l0.173,-0.05l0.198,0.037l0.148,0.137h0.068l0.192,-0.254l0.167,-0.043l0.204,0.024l0.075,0.081l-0.044,0.031l-0.062,-0.062h-0.185l-0.105,0.056l-0.112,0.272l-0.099,0.093l-0.167,-0.025l-0.222,-0.211l-0.081,0.013l-0.173,0.161l-0.241,0.086l-0.489,0.044l-0.173,-0.05l-0.161,0.006l-0.118,0.074l-0.519,0.062l-0.322,-0.006l-0.198,0.019l-0.087,0.068l-0.198,0.006l-0.377,-0.099l-0.049,-0.05l-0.056,0.013l-0.074,0.142l-0.31,0.266l-0.08,0.235l-0.093,0.087l-0.699,0.26l-0.105,0.092l-0.08,0.007l-0.143,-0.044l-0.922,-0.099l-0.148,-0.061l-0.13,-0.168l-0.037,-0.259l-0.136,-0.31l-0.087,-0.043l-0.018,-0.087l0.099,-0.154l0.111,0.037l0.056,-0.025l-0.112,-0.124l-0.377,-0.068l-0.062,-0.031l-0.136,-0.012l-0.223,0.118l-0.117,0.16l-0.062,0.186l-0.111,0.142l-0.285,0.174l-0.074,0.204l0.024,0.402l0.087,0.136l0.056,0.229l-0.044,0.359l0.019,0.099l0.087,0.092l0.043,0.242l-0.031,0.086l0.012,0.081l0.136,0.099z"/>
</svg>
