<svg xmlns="http://www.w3.org/2000/svg" viewBox="1017.594 666.836 49.203 36.573">
  <path d="M1026.625509,685.662121l0.017254,0.00986l-0.044368,0.071482l-0.194727,0.11585l-0.029579,0.064087l-0.044368,0.088736l-0.039438,0.002465l-0.046833,-0.029579l0.012324,-0.101061l0.103526,-0.076412l0.204586,-0.091201l0.061622,-0.054228Z M1026.475151,686.026925l-0.066552,0.128174l0.017254,0.165148l0.24156,0.133104l0.184867,0.012324l0.123245,-0.041903l0.219376,-0.23663l-0.002465,-0.113385l-0.128174,-0.123245l-0.073947,-0.00986l-0.160218,0.054228l-0.078877,0.007395l-0.083806,-0.029579l-0.101061,0.00493l-0.091201,0.049298Z M1025.850808,688.313766l0.043305,0.006186l0.049491,-0.089703l0.114448,-0.071144l0.080423,-0.133008l-0.034025,-0.018559l-0.061864,0.015466l-0.058771,0.071144l-0.006186,0.052584l-0.074237,0.034025l-0.037118,0.046398l-0.015466,0.08661Z M1026.416863,688.381817l0.006186,0.071144l0.030932,0.003093l0.024746,-0.052584l-0.006186,-0.16394l-0.092796,-0.185592h-0.030932l-0.034025,0.037118l0.006186,0.040212l0.049491,0.024746l0.061864,0.133008l-0.015466,0.092796Z M1026.184873,688.347792l0.040212,-0.021652l-0.003093,-0.027839l-0.046398,-0.00928l-0.052584,0.021652l-0.006186,0.030932l0.06805,0.006186Z M1018.717888,678.437178l0.046398,0.003093l0.021652,-0.027839l-0.012373,-0.061864l-0.021652,-0.00928l-0.071144,0.034025v0.027839l0.037118,0.034025Z M1017.644548,679.10531l0.3186,0.408302l0.235083,0.07733l0.194872,-0.006186l0.08661,-0.098982v-0.049491l-0.117542,-0.108262l-0.095889,-0.018559l-0.151567,-0.114448l0.003093,-0.034025l0.055678,-0.006186l0.253642,0.083516l0.024746,-0.021652l-0.037118,-0.105169l-0.098982,-0.064957l-0.046398,-0.058771l-0.003093,-0.083516l-0.018559,-0.043305l0.024746,-0.018559l0.055678,0.043305l0.049491,0.08661h0.049491l0.052584,-0.098982l0.120635,-0.089703l0.105169,-0.188685l-0.006186,-0.074237l-0.139194,-0.148474l-0.142287,-0.098982l-0.08661,0.003093l-0.259829,0.142287l-0.046398,0.095889l-0.089703,0.083516l-0.095889,0.027839l-0.176312,0.148474l-0.058771,0.089703l-0.012373,0.111355l0.052584,0.129914Z M1019.45407,678.130952l0.037118,-0.012373l0.015466,-0.040212l-0.018559,-0.046398l-0.034025,-0.00928l-0.043305,0.034025v0.052584l0.043305,0.021652Z M1019.426231,678.183536l-0.006186,0.037118l0.037118,0.027839l0.201058,-0.006186l0.06805,0.027839l0.030932,-0.003093l0.117542,-0.126821l0.024746,-0.105169l-0.018559,-0.06805l-0.058771,-0.015466l-0.083516,0.00928l-0.173219,0.098982l-0.043305,0.071144l-0.095889,0.052584Z M1019.964448,678.00413l0.003093,0.027839l0.043305,0.018559l0.024746,-0.00928v-0.043305l-0.030932,-0.018559l-0.040212,0.024746Z M1018.918946,678.644423l0.003093,0.058771l0.055678,0.043305l0.064957,-0.003093l0.030932,-0.040212l-0.015466,-0.114448l-0.092796,-0.120635h-0.058771l-0.049491,0.043305l-0.003093,0.058771l0.064957,0.074237Z M1018.860176,678.904252l0.055678,0.080423l0.021652,-0.006186l0.030932,-0.061864v-0.095889l-0.07733,-0.055678l-0.052584,0.006186l-0.040212,0.049491l0.006186,0.046398l0.055678,0.037118Z M1018.83543,678.93209l-0.06805,-0.052584l-0.00928,-0.064957l0.07733,-0.08661l0.00928,-0.07733l-0.043305,-0.015466l-0.055678,0.021652l-0.092796,0.167033l-0.111355,0.105169l-0.015466,0.14538l0.030932,0.120635l0.055678,0.037118l0.030932,0.083516l0.07733,0.021652l0.098982,-0.040212l0.012373,-0.083516l0.046398,-0.089703l-0.043305,-0.191778Z M1024.366072,684.04979l0.083516,-0.037118l0.00928,-0.037118l-0.074237,-0.069597l-0.041758,-0.00464l-0.051038,0.041758l0.00464,0.092796l0.069597,0.013919Z  M1026.653493,666.836132h1.476l0.909,0.107l0.116,0.088l0.195,0.019l0.107,-0.075l0.385,0.058l0.087,-0.053l0.077,0.015v0.05l0.127,0.08l0.043,-0.003l0.139,-0.065l0.208,0.013l0.129,0.062l0.087,-0.004l0.13,-0.083h0.046l0.013,0.056l0.089,0.061l0.016,0.133l0.015,0.192l-0.055,0.062l-0.019,0.127l-0.074,0.059l-0.009,0.266l0.031,0.083l0.12,0.047l0.078,-0.003l0.058,-0.025l0.18,0.025l0.089,0.074l0.14,-0.003l0.136,-0.059l0.024,-0.189l-0.037,-0.127l0.003,-0.061l0.334,-0.124l0.081,0.021l0.006,0.084l0.207,0.124l0.084,0.006l0.031,0.068l-0.059,0.074l0.025,0.034l0.086,0.003l0.09,0.093l0.099,-0.025l0.158,0.031l0.145,0.071l-0.012,0.09l-0.074,0.081l0.006,0.04l0.714,-0.044l0.195,0.038l0.087,0.068l0.025,0.083l0.089,0.05l0.053,-0.016l0.052,0.025l-0.015,0.096l0.093,0.136l0.077,0.015l0.096,-0.043l0.065,-0.083l0.229,-0.152h0.059l0.052,0.04l0.204,0.025l0.075,0.068l0.095,0.031l0.115,-0.009l0.145,0.12l0.071,0.17l0.072,0.062l0.043,0.149l0.049,0.009l0.412,-0.167l0.034,-0.031l0.176,-0.08l0.124,0.012l0.043,-0.012l0.025,-0.034l0.062,-0.007l0.077,0.01l0.213,-0.056l0.146,-0.111l0.127,-0.053l0.148,-0.22l0.279,-0.046l0.222,0.05l0.152,0.117l0.099,0.009l0.065,-0.027l0.12,0.009l0.467,-0.291l0.106,0.167l0.071,0.003l0.043,0.04l0.006,0.059l0.087,0.071l0.099,0.01l0.043,-0.038l0.186,0.007l0.052,0.043l0.099,0.006l0.071,0.065l0.096,0.003l0.127,-0.04l0.142,-0.071l0.161,-0.025l0.075,-0.111l0.191,-0.084l0.143,-0.012l0.061,0.04l0.106,0.003l0.037,-0.04l0.519,-0.056l0.167,-0.003l0.087,-0.052l0.056,0.003l0.052,0.04l0.17,0.049l0.028,-0.018l0.093,0.012l0.096,0.071l0.015,0.075l0.081,0.068l0.059,0.003l0.043,-0.053l0.093,0.077l-0.01,0.081l-0.068,0.034l-0.16,-0.009l-0.053,-0.05l-0.065,-0.003l-0.127,0.118l-0.006,0.123l-0.031,0.025l-0.006,0.068l0.071,0.056l0.037,0.13l0.003,0.167l-0.028,0.096l-0.083,0.04l-0.022,0.059l0.019,0.096l-0.074,0.08l-0.084,-0.003l-0.121,0.102l-0.009,0.181l-0.037,0.069l0.032,0.126l0.107,0.069l0.098,0.163l0.25,0.102l0.186,0.088l0.176,0.028l0.06,0.13l0.005,0.162l0.065,0.07l0.102,0.037l0.176,0.153l0.102,0.037l0.116,0.07l0.158,0.018l0.116,0.056l0.061,-0.019l0.046,-0.097l0.097,-0.033l0.079,0.028l0.107,-0.065l0.097,-0.106l0.061,-0.024l0.069,-0.12l-0.06,-0.2l0.079,-0.065l0.13,0.028l0.074,-0.051l-0.019,-0.093l0.056,-0.083l0.139,-0.023l0.056,-0.075l0.028,-0.134l0.153,-0.367l0.102,-0.009l0.07,0.056l0.157,0.004l0.116,-0.093l0.07,-0.004l0.13,0.032l0.093,-0.032l0.12,0.028l0.237,0.338l0.032,0.126l0.297,0.208l0.191,0.038l0.06,0.06l0.005,0.274l-0.065,0.167l0.037,0.106l0.111,0.098l0.023,0.158l0.065,0.129v0.079l-0.046,0.056l0.032,0.056l0.102,0.018l0.358,0.223l0.26,0.032l0.092,-0.032l0.061,-0.07v-0.116l0.083,-0.092l0.028,-0.13l0.074,-0.075l0.223,-0.074l0.042,-0.074l-0.079,-0.13l0.06,-0.079l0.227,-0.018l0.079,-0.093l0.019,-0.2l0.056,-0.037l0.004,-0.093l-0.042,-0.055l0.005,-0.088l0.07,-0.042l0.176,0.028l0.232,-0.037l0.204,-0.126l0.014,-0.195l0.084,-0.032l0.171,0.06l0.084,-0.051l-0.028,-0.102l0.07,-0.032l0.078,0.027l0.047,-0.046l0.014,-0.116l0.097,-0.032l0.13,0.157l0.065,-0.009l0.051,-0.079l0.227,-0.018l0.075,0.065l0.315,0.041l0.079,0.093l0.251,0.051l0.264,-0.037l0.074,0.056l0.01,0.13l0.111,0.046l0.134,-0.014l0.418,0.176l0.07,0.116l0.079,0.033l0.12,-0.046l0.223,0.064l0.074,0.121l0.218,0.121l0.279,0.028l0.051,-0.042l0.102,0.009l0.125,0.153l0.418,0.102l0.181,-0.028l0.041,-0.069l-0.041,-0.107l0.046,-0.079l0.051,-0.028l0.042,-0.106l-0.051,-0.144l0.037,-0.153l0.195,-0.255l0.213,-0.061l0.153,-0.093l0.241,0.024l0.158,-0.056l0.028,-0.102l0.093,-0.06h0.065l0.079,-0.065l0.004,-0.098l0.102,-0.088h0.283l0.103,-0.037l0.19,0.023l0.13,0.074l0.153,-0.014l0.009,-0.069l0.046,-0.047h0.084l0.051,-0.069l-0.042,-0.214l0.042,-0.069l0.07,-0.005l0.032,-0.107l-0.032,-0.041l0.004,-0.051l0.065,-0.042l-0.042,-0.065l-0.097,-0.014l-0.116,-0.088l-0.046,-0.139l-0.107,-0.112l-0.079,-0.004l-0.056,-0.047l-0.014,-0.144l-0.074,-0.018l-0.046,0.018l-0.065,-0.046l0.018,-0.074l0.163,-0.079h0.097l0.023,-0.102l0.093,-0.023l0.079,0.023l0.009,0.074h0.093l0.023,-0.102l0.084,-0.023l0.121,0.097l0.092,-0.009l0.042,-0.079l0.135,-0.023l0.338,0.088l0.283,0.019l0.246,0.143l0.065,0.084l0.195,0.121l0.149,0.014l0.283,0.106l0.083,0.093l-0.028,0.07l0.265,0.246l0.074,0.009l0.135,0.223l-0.121,0.125l-0.186,0.322l-0.055,0.235l0.092,0.055l0.05,0.136l0.124,0.025l0.117,-0.018l0.043,-0.05h0.093l0.112,0.155l-0.007,0.099l0.062,0.074l-0.043,0.136l0.019,0.099l-0.031,0.074l-0.087,0.056l-0.012,0.229l0.055,0.117l0.161,0.038l0.019,0.043l0.062,0.012l0.099,-0.08l0.105,0.006l0.13,0.192l0.161,0.185l-0.013,0.223l-0.111,0.322l0.006,0.117l0.037,0.112l-0.272,0.433l0.049,0.173l-0.179,0.829l0.21,0.012l0.198,0.124l0.186,0.025l0.068,0.105h0.062l0.222,-0.186l0.118,0.062l0.025,0.186l0.235,0.278l0.012,0.099l-0.031,0.186l0.242,0.26l0.297,0.092l0.21,-0.074l0.018,-0.068h0.075l0.111,0.322l0.019,0.105l0.111,0.056h0.117l0.118,0.031l0.093,0.061l0.173,0.031l0.297,0.087v0.068l-0.173,0.056l-0.093,0.123l0.043,0.13l0.18,0.025l0.105,0.099l-0.05,0.186l-0.198,0.024l-0.383,-0.092l-0.13,0.043l-0.068,0.148l0.031,0.143l-0.056,0.086l-0.198,0.087l-0.161,-0.006l-0.068,0.068l-0.037,0.148l0.037,0.155l-0.068,0.161l-0.093,0.012l-0.111,-0.037l-0.08,0.062l0.006,0.124l0.043,0.08l-0.062,0.08l-0.136,0.099l-0.043,0.26l-0.167,0.081l-0.093,0.148v0.241l0.08,0.106l0.099,-0.013l0.112,-0.074l0.08,-0.006l0.087,0.037l0.179,-0.025l0.204,-0.173l0.229,-0.074l0.062,-0.068l0.031,-0.149l0.105,-0.161l-0.025,-0.055l0.044,-0.056l0.26,0.006l0.123,0.056l0.186,0.012l0.111,-0.068l0.167,0.031l0.235,0.26l0.137,0.056l0.092,0.204l0.019,0.321l0.099,0.242l-0.019,0.099l-0.284,0.247l-0.006,0.081l0.037,0.074l-0.031,0.105l-0.155,0.155l0.012,0.111l0.161,0.025l0.099,0.099l-0.012,0.105l-0.074,0.086v0.087l0.068,0.08l-0.068,0.18l-0.124,0.031l-0.006,0.148l-0.031,0.105l0.012,0.254l0.173,0.043l0.044,-0.043l0.08,0.012l0.062,0.13l-0.012,0.118l0.179,0.297v0.136l0.062,0.173l0.049,0.272l0.304,0.05l0.123,-0.081h0.13l0.223,-0.136l0.062,0.044v0.142l-0.037,0.056l0.006,0.13l0.192,0.321l0.136,0.081l0.099,-0.013l0.08,-0.074l0.155,-0.018l0.105,0.049l0.124,0.365l0.148,0.21v0.105l-0.124,0.291l-0.055,0.044l-0.037,0.123l-0.068,-0.012l-0.019,0.062l-0.006,0.099l-0.105,0.099l-0.019,0.192l-0.049,0.074l-0.347,0.161l-0.031,0.049l-0.08,0.012l-0.105,-0.024l-0.087,0.055l-0.068,0.334l-0.105,0.137l0.055,0.074l0.093,-0.031l0.068,0.012l-0.006,0.099l-0.185,0.068l-0.137,-0.018l-0.006,0.055l0.081,0.031l0.006,0.044l-0.074,0.037l0.037,0.086l0.142,0.013l0.074,0.086l-0.006,0.106l-0.043,0.024l-0.062,-0.024l-0.037,0.055l0.055,0.087l0.161,-0.025l0.087,0.043l0.025,0.174l-0.013,0.167l-0.08,0.003l-0.014,0.046l0.07,0.042l-0.005,0.042l-0.051,0.009l-0.005,0.065l0.051,0.069l-0.014,0.051l-0.083,0.014l-0.014,0.126l0.042,0.088l-0.01,0.158l-0.065,0.055l-0.013,0.116l0.046,0.051l0.005,0.135l-0.056,0.13l-0.088,0.032l-0.01,0.051l0.028,0.042l-0.028,0.204l0.051,0.033v0.06l-0.041,0.042l0.004,0.171l0.079,0.075l0.033,0.134l0.125,0.246l0.176,0.265l0.177,0.102l0.046,0.083l0.121,0.028l0.287,-0.037l0.334,-0.121h0.399l0.047,0.112l-0.037,0.167l-0.102,0.176l-0.019,0.186l0.046,0.111l-0.037,0.148l-0.13,0.13l-0.13,0.269v0.205l0.13,0.129l0.149,0.093l0.139,-0.037l0.046,-0.083l0.167,0.037l0.047,0.158l0.223,0.259l0.324,0.186l0.056,0.083l-0.065,0.056l-0.315,-0.093l-0.14,0.01l-0.046,0.065l-0.074,0.018l-0.139,-0.018l-0.038,0.06v0.097l-0.074,0.056l-0.167,0.005l-0.069,0.055l-0.047,0.084l-0.19,0.158l0.019,0.143l-0.014,0.093l0.037,0.061l0.046,0.023v0.046l-0.167,0.218l0.005,0.056l0.093,0.028v0.046l-0.038,0.033l-0.023,0.139l-0.042,0.037l-0.171,0.065l-0.014,0.069l0.13,0.14l0.032,0.106l0.112,0.093l0.125,0.009l0.097,-0.032l0.037,-0.065l0.112,0.019l0.074,0.06l0.223,0.065l-0.014,0.056l0.055,0.018l0.075,-0.056l0.13,0.005l0.027,0.042l-0.004,0.111l0.065,0.051l0.116,0.019l0.055,0.106l-0.009,0.121l0.112,0.223l0.296,0.107l0.121,0.222l-0.051,0.186l-0.083,0.093v0.102l0.227,0.385l-0.023,0.162l-0.065,0.065l-0.005,0.051l0.037,0.047l-0.004,0.037l-0.042,0.028l0.009,0.106l0.084,0.13l0.079,0.033l0.023,0.092l0.06,0.047l-0.014,0.037l-0.13,-0.009l-0.037,-0.037l-0.051,-0.005l-0.065,0.028l-0.13,0.014l-0.065,-0.019l-0.069,-0.014l-0.075,0.019h-0.06l-0.088,-0.116l-0.014,-0.088l-0.153,-0.297l-0.042,-0.14l-0.088,-0.06l-0.097,-0.009l-0.028,-0.051l-0.042,0.004l-0.042,0.107l0.051,0.228l-0.06,0.088l-0.051,0.009l-0.065,-0.009l-0.135,0.014l-0.074,-0.065l-0.144,-0.042l-0.023,-0.084l-0.074,-0.014l0.014,-0.051l0.055,-0.004l0.014,-0.047l-0.055,-0.083l-0.005,-0.06l-0.07,-0.07l-0.06,-0.009l-0.069,0.055h-0.065l-0.051,-0.041l-0.061,0.018l-0.018,0.065l-0.065,0.014l-0.093,-0.037l-0.153,-0.037l-0.093,0.023l-0.046,-0.009l-0.047,-0.042l-0.097,-0.019l-0.028,0.042l-0.051,0.014l-0.051,-0.056l-0.042,0.019l-0.032,0.111l-0.051,0.024l-0.121,-0.047l-0.07,-0.005l-0.055,0.028h-0.056l-0.023,-0.051h-0.065l-0.06,-0.055l-0.089,-0.024l-0.023,0.038l0.005,0.046l-0.112,0.134l-0.06,0.014l-0.009,0.056l-0.047,0.009l-0.055,-0.032l-0.042,0.042l0.009,0.088l-0.023,0.088l0.019,0.135l0.055,0.088l0.005,0.106l0.051,0.07l0.014,0.125l-0.065,0.167l0.009,0.098l0.047,0.139l-0.033,0.125l-0.088,0.084l-0.023,0.092l0.014,0.112l0.209,0.06l0.018,0.06l0.06,0.052l0.065,0.009l0.093,0.134l0.116,0.01l0.042,-0.028h0.093l0.083,0.051h0.116l0.149,0.06l0.032,0.065l0.116,0.047l0.065,-0.005l0.037,-0.088l0.023,-0.079l0.056,-0.074l0.047,0.004l0.013,0.061l0.047,0.009l0.107,-0.098h0.092l0.005,0.051l-0.07,0.093l-0.027,0.149v0.097l0.041,0.06l-0.032,0.047l-0.07,0.005l-0.028,0.102l0.051,0.051l0.061,-0.005l0.13,0.07l0.092,0.199l0.093,0.042l0.014,0.051l-0.032,0.065l0.06,0.107l-0.037,0.037l-0.065,-0.056l-0.079,-0.005l-0.065,0.019l-0.056,-0.042l0.005,-0.069l-0.065,-0.065l-0.083,0.009l-0.028,0.051l-0.116,-0.009l-0.061,-0.051h-0.088l-0.065,0.055l-0.037,0.084l0.014,0.102l-0.014,0.042l-0.06,0.018l-0.098,0.181l-0.023,0.13l-0.111,0.172v0.088l-0.019,0.083l-0.116,0.121v0.116l0.051,0.181l0.102,0.037l0.047,0.158l0.056,0.042l0.004,0.055l-0.06,0.056l-0.009,0.074l0.023,0.056l-0.037,0.111l-0.065,0.102l-0.028,0.112l-0.06,0.06l-0.028,0.102l-0.088,0.06l-0.01,0.061l0.033,0.051l-0.014,0.074l-0.07,0.019l-0.083,0.074l-0.023,0.106l-0.056,0.075l-0.009,0.074l0.069,0.111l-0.009,0.061l-0.06,0.12l-0.13,0.065l-0.047,0.079h-0.06l-0.088,-0.107l-0.214,-0.139l-0.167,-0.046l-0.055,-0.033l-0.065,-0.148l-0.061,-0.009l-0.088,0.051l-0.083,0.083l-0.13,0.005l-0.093,-0.023l-0.037,-0.051l-0.005,-0.112l-0.083,-0.056l-0.088,0.014l-0.11,0.143l-0.303,0.303l-0.65,-0.473l0.093,-0.195l-0.028,-0.194l0.056,-0.093l-0.826,0.027l-0.044,0.074l0.038,0.05l-0.025,0.049l-0.068,0.019l-0.124,0.179l0.006,0.173l-0.074,0.223v0.173l0.043,0.043l0.031,0.205l-0.34,0.396h-0.062l-0.049,0.055l0.024,0.074l-0.031,0.155l-0.055,0.043l-0.081,-0.006l-0.123,0.062l-0.149,0.279l-0.08,0.061l0.031,0.198l0.068,0.106l-0.019,0.185l-0.111,0.087l-0.118,0.031l-0.105,-0.031h-0.099l-0.124,-0.173l-0.092,0.018l-0.019,0.118l-0.049,0.018l-0.062,-0.043l-0.056,0.025l-0.012,0.092l-0.347,0.056l-0.124,0.087l-0.111,0.161l-0.142,0.049l-0.099,-0.031l-0.074,0.05l-0.05,-0.013l0.019,-0.093l0.043,-0.074l-0.062,-0.142l-0.099,-0.05l0.025,-0.086l-0.062,-0.037l-0.118,0.012l-0.117,-0.049l-0.118,-0.155l-0.117,-0.13l-0.006,-0.384l-0.087,-0.055l-0.167,-0.013l-0.148,0.075h-0.137l-0.043,-0.087l0.013,-0.136l-0.081,-0.105l-0.136,-0.05l-0.068,0.05l-0.136,-0.019l-0.068,0.05v0.068l-0.124,0.043l-0.074,0.099l-0.062,-0.006v-0.118l-0.043,-0.105l-0.075,0.006l-0.055,0.075l-0.242,0.129l-0.049,0.167l-0.05,-0.006l-0.006,-0.086l0.093,-0.242v-0.086l0.062,-0.112l0.229,-0.179l0.049,-0.118l-0.037,-0.068l0.019,-0.049l0.062,-0.019l0.037,-0.148l0.062,-0.081l0.099,-0.272l0.105,-0.111l0.018,-0.142l-0.062,-0.025l-0.08,-0.13l0.012,-0.291l0.186,-0.377l-0.099,-0.248l-0.08,-0.123l-0.106,0.006l-0.142,-0.173l-0.018,-0.081l-0.081,-0.117l-0.037,-0.18l0.025,-0.117l-0.044,-0.186l0.007,-0.155l-0.019,-0.086l0.037,-0.149l0.198,-0.173l0.013,-0.266l-0.081,-0.031l-0.21,0.074l-0.059,0.059l-0.037,-0.032l0.116,-0.204v-0.093l-0.06,-0.125l0.009,-0.112l-0.051,-0.116l0.023,-0.158l-0.07,-0.065h-0.139l-0.134,-0.046l-0.01,-0.06l0.061,-0.093l-0.028,-0.209l0.107,-0.158l-0.01,-0.074l-0.051,-0.055l0.023,-0.093l-0.037,-0.051l-0.055,-0.005l-0.042,-0.06l0.018,-0.056l0.154,-0.116l0.069,0.009l0.014,-0.074l-0.181,-0.167l-0.311,-0.056l-0.074,-0.139l-0.148,-0.12l-0.051,0.023l0.004,0.06l-0.055,0.028l-0.168,0.009l-0.102,0.042l-0.083,-0.046l0.018,-0.098l0.126,-0.079l0.079,-0.116l-0.065,-0.144h-0.089l-0.051,-0.037v-0.102l-0.083,-0.037l-0.074,0.005l-0.135,0.088l-0.032,0.125l0.018,0.079l-0.074,0.088l-0.046,-0.004l-0.024,-0.126l-0.069,-0.055l-0.07,-0.195l0.014,-0.084l0.088,-0.018l-0.014,-0.084l-0.185,-0.158l-0.107,0.005l-0.07,0.084l-0.083,0.023l-0.014,0.065l0.051,0.06l-0.009,0.065l-0.098,0.023l-0.13,0.009l-0.046,0.056l-0.088,0.009l-0.07,-0.06l-0.371,0.009l-0.227,0.093l-0.288,0.255l-0.25,0.065l-0.126,0.065l-0.069,-0.014l-0.024,-0.148l0.112,-0.227l-0.014,-0.093l-0.19,-0.13l-0.093,-0.005l-0.051,0.047l-0.056,-0.005l-0.065,-0.125h-0.046l-0.047,0.051l-0.204,-0.005l-0.042,0.065l-0.185,0.111l-0.102,0.107l-0.107,0.005l-0.046,-0.056l-0.135,-0.019l-0.111,0.005l-0.042,0.037l-0.118,-0.042l-0.117,-0.024l-0.043,-0.059l-0.065,-0.003l-0.118,0.071l-0.046,0.065l-0.112,0.015l-0.043,-0.04l-0.037,0.003l-0.096,0.263l-0.108,0.065l-0.118,0.201l-0.111,0.112l-0.121,0.027l-0.083,0.075v0.102l-0.269,0.26l-0.214,0.102l-0.102,-0.028l-0.065,-0.13l-0.111,-0.037h-0.241l-0.075,-0.074h-0.12l-0.098,0.116l-0.065,0.287l-0.06,0.028l-0.042,-0.032l0.019,-0.2l0.051,-0.046l0.083,-0.177l0.028,-0.148l0.056,-0.065l0.13,-0.009l0.046,-0.056l-0.051,-0.223l0.033,-0.111l0.014,-0.218l0.083,-0.06l0.033,-0.07l-0.038,-0.079l0.098,-0.232l0.088,-0.028l0.06,-0.046l0.014,-0.098l0.093,-0.083l0.009,-0.125l0.191,-0.093l0.194,-0.037l0.14,-0.051l0.014,-0.065l0.106,-0.102l0.019,-0.089l0.055,-0.06l-0.032,-0.088l-0.181,-0.227l-0.028,-0.102l-0.06,-0.112l-0.06,-0.195l-0.163,-0.144l-0.083,-0.004l-0.024,-0.088l0.01,-0.209l-0.121,-0.316l0.014,-0.083l-0.093,-0.371l-0.018,-0.214l0.023,-0.111l0.042,-0.028l0.037,-0.204l-0.079,-0.098l-0.186,-0.078l-0.093,0.004l-0.18,-0.079l-0.116,-0.004l-0.288,0.051l-0.074,-0.033l0.074,-0.343l0.032,-0.046l0.024,-0.112l-0.079,-0.153l0.004,-0.111l0.042,-0.005l0.074,0.056l0.149,-0.01l0.162,-0.125l0.005,-0.097l-0.098,-0.098l0.028,-0.246l0.061,-0.06l-0.038,-0.162l-0.25,-0.121l-0.033,-0.037l0.014,-0.056l-0.028,-0.037l-0.046,-0.004l-0.042,-0.038l0.01,-0.078l-0.112,-0.103l-0.13,-0.032l-0.032,0.028l-0.065,0.004l-0.051,-0.037l-0.125,-0.023l-0.038,0.037l0.019,0.037l-0.042,0.024l-0.051,-0.056l0.01,-0.079l0.06,-0.056l0.009,-0.069l-0.116,-0.116l-0.162,-0.074l-0.047,-0.093l0.028,-0.047l0.047,-0.009l0.032,-0.074l-0.088,-0.125l0.032,-0.042l0.051,-0.005l0.075,-0.046l-0.005,-0.07l-0.093,-0.004l-0.181,-0.093l-0.009,-0.07l0.037,-0.037l-0.046,-0.172l-0.088,-0.065l-0.005,-0.065l-0.047,-0.023l-0.046,0.014l-0.056,-0.009l-0.078,-0.181l-0.01,-0.153l-0.046,-0.061l-0.116,-0.009l-0.037,0.023l-0.061,-0.004l-0.046,-0.084l-0.028,-0.241l-0.037,-0.06v-0.056l-0.032,-0.046l-0.056,-0.014l-0.042,-0.167l-0.102,-0.075l-0.032,-0.092l-0.07,-0.061l-0.056,-0.004l-0.06,-0.07l0.009,-0.107l-0.041,-0.018l-0.047,0.018l-0.046,-0.014l-0.014,-0.074l-0.088,-0.093l-0.075,-0.014l-0.027,-0.078l-0.075,-0.024l-0.051,0.033l-0.125,-0.014l-0.042,-0.046l-0.097,-0.024l-0.06,-0.283l-0.061,-0.051l-0.009,-0.106l0.042,-0.033l-0.033,-0.158l-0.12,-0.088l-0.154,-0.014l0.033,-0.153h-4.529l-0.102,0.288l0.01,0.111l-1.411,0.464l-0.185,-0.027l-0.269,-0.126l-0.033,-0.051l-0.125,-0.041l-0.046,-0.075l-0.01,-0.097l-0.76,0.195l-0.042,0.069l-0.622,0.098l-0.079,0.037l-0.079,0.125l-0.213,0.065l-0.014,0.079l0.065,0.046l-0.014,0.084l-0.051,0.056l-0.116,0.297l0.005,0.055l0.041,0.005l0.005,0.051l-0.088,0.019l-0.023,0.037l0.051,0.148l-0.005,0.042l-0.056,0.005l-0.014,-0.079l-0.037,-0.005l-0.032,0.06l-0.098,0.037l-0.074,0.005l-0.009,0.167l-0.056,0.093l-0.079,0.032l-0.009,0.061l0.019,0.116l-0.014,0.195l-0.037,0.023l-0.079,-0.028l-0.084,0.005l-0.069,0.218l-0.042,0.065l0.028,0.046l-0.019,0.037l-0.07,0.009l-0.069,0.065l-0.009,0.056l0.051,0.06l0.004,0.084l-0.153,0.209v0.06l-0.055,0.065l-0.033,0.107l0.023,0.051l-0.014,0.153l-0.046,0.009l-0.023,-0.032l-0.088,0.018l-0.038,0.07l0.024,0.055l-0.033,0.024l-0.069,-0.042l-0.126,-0.009l-0.069,0.037l-0.014,0.199l0.055,0.056l-0.027,0.046l-0.13,0.014l-0.024,0.042l-0.009,0.06l-0.065,0.088v0.075l-0.037,0.041l-0.074,0.01l-0.009,0.041l-0.051,0.01l-0.107,-0.033l-0.093,0.037l-0.018,0.047h-0.042l-0.061,-0.07h-0.134l-0.042,0.051l-0.005,0.065l-0.111,0.06l-0.065,-0.009l-0.018,-0.069l-0.102,-0.07l-0.07,0.005l-0.065,0.037l-0.005,0.051l0.028,0.055l-0.051,0.168l-0.079,0.069l-0.009,0.07l0.065,0.125l0.046,0.065l-0.027,0.107l-0.107,0.032l-0.065,0.06l-0.116,0.302l-0.125,0.116l-0.061,-0.005l-0.088,0.033l-0.014,0.065l-0.042,0.028h-0.116l-0.051,0.041l-0.046,0.172l-0.102,0.023l-0.056,-0.037l-0.051,-0.004l-0.042,0.018l-0.097,-0.014l-0.186,-0.153l-0.065,-0.107l-0.116,-0.032l-0.065,0.028l-0.018,0.065l-0.227,0.083h-0.089l-0.157,0.042l-0.088,0.088l-0.089,0.014l-0.004,0.06l-0.035,-0.021l-0.059,-0.106l0.014,-0.089l0.087,-0.03l0.106,-0.199l0.175,-0.212l0.135,-0.091l0.059,-0.077l0.116,-0.034l0.254,0.027l0.128,-0.035l-0.012,-0.032l-0.131,-0.032l-0.33,0.012l-0.126,0.065l-0.059,-0.013l0.005,-0.167l0.074,-0.06l0.022,-0.088l-0.039,-0.052l0.015,-0.072l0.071,-0.029l0.034,-0.146h-0.039l-0.059,0.104l-0.059,0.039l-0.025,0.106l0.035,0.062l-0.015,0.047l-0.077,0.042l-0.076,0.157l-0.007,0.141l-0.052,0.032l-0.151,-0.007l-0.069,-0.055l-0.034,-0.074l0.01,-0.049l0.047,-0.049l0.017,-0.163l0.027,-0.064l-0.007,-0.18l-0.094,-0.212l-0.012,-0.214l0.017,-0.062l0.054,-0.007l0.077,0.096l0.027,0.061l0.118,0.04l0.15,-0.076l-0.029,-0.023l-0.067,0.005l-0.059,0.035l-0.064,-0.013l-0.096,-0.152l0.01,-0.106l0.054,-0.05l0.076,-0.019l0.005,-0.023l-0.064,-0.012l-0.064,0.01l-0.084,0.096l-0.079,0.037l-0.056,0.015l-0.092,0.123l-0.009,0.205l-0.037,0.044l-0.111,0.012l-0.138,-0.014h-0.072l-0.044,0.012l-0.017,0.044l-0.035,0.022h-0.057l-0.009,-0.027l0.032,-0.039l0.037,-0.022l0.032,0.005l0.039,-0.015l-0.02,-0.072l0.005,-0.101l-0.056,-0.138l-0.025,-0.133l-0.003,-0.138l-0.032,-0.094l-0.276,-0.16l-0.229,-0.271l-0.057,-0.145l0.018,-0.156l0.185,-0.364l0.014,-0.109l-0.024,-0.002l-0.042,0.118l-0.205,0.313l-0.047,0.015l-0.135,-0.035l-0.16,-0.14l-0.089,-0.195l0.034,-0.106l0.059,-0.052l-0.019,-0.027l-0.114,0.01l-0.433,0.237l-0.309,0.251l-0.088,0.008l-0.01,-0.042l0.039,-0.062l0.138,-0.069l0.165,-0.214l0.04,-0.163l0.057,-0.146l0.16,-0.147l0.034,-0.094l0.01,-0.402l0.054,-0.185l0.262,-0.177l0.049,0.01l0.027,0.032l0.035,-0.01l0.064,-0.138l0.002,-0.096h-0.027l-0.039,0.079l-0.06,0.049l-0.184,0.034l-0.116,-0.037l-0.035,-0.088l-0.034,-0.161l-0.19,-0.14l-0.113,-0.008l-0.166,0.06l-0.066,0.005l-0.079,-0.028l-0.091,0.008l-0.025,-0.035l0.106,-0.103l0.173,-0.316l0.039,-0.194l0.035,-0.042v-0.092l-0.062,-0.11l-0.027,0.002v0.081l0.017,0.032l-0.005,0.055l-0.042,0.069l-0.017,0.14l-0.081,0.168l-0.479,0.241l-0.101,0.005l-0.12,-0.049l-0.18,-0.239l-0.328,-0.306l-0.483,-0.322l-0.186,-0.062l-0.396,-0.297l-0.083,-0.159l0.093,-0.125l0.06,-0.176l0.074,-0.047l0.107,0.028l0.028,-0.032l-0.227,-0.13v-0.079l0.083,-0.139l0.046,-0.112l0.089,-0.125l-0.038,-0.014l-0.116,0.097l-0.088,0.158l-0.157,0.051l-0.084,0.074l-0.009,0.186l0.051,0.186l-0.014,0.065l-0.195,0.116l-0.172,0.013l-0.264,-0.153l-0.088,-0.134l0.028,-0.098l0.25,-0.241l0.158,-0.037l-0.009,-0.037h-0.209l-0.088,0.028l-0.075,0.06l-0.018,0.065l-0.093,0.097l-0.019,0.065l-0.051,0.024l-0.153,-0.056l-0.125,-0.13l0.009,-0.097l0.075,-0.167l0.065,-0.028l0.106,0.028l0.107,-0.005l-0.023,-0.033h-0.088l-0.107,-0.046l-0.102,0.028l-0.07,0.074l-0.06,0.042l-0.13,-0.014l-0.441,-0.362l-0.162,-0.07l-0.177,-0.013l-0.222,0.069l-0.107,0.107l-0.065,-0.023l-0.06,-0.214l0.004,-0.167l0.065,-0.176l-0.041,-0.274l-0.622,-0.649l-0.325,-0.209l-0.082,-0.01l-0.086,0.041l-0.034,-0.016l0.003,-0.028l0.065,-0.018l0.077,-0.074l-0.028,-0.016l-0.068,0.034h-0.099l-0.043,0.028v0.068l-0.031,0.034l-0.037,0.003l-0.025,-0.052l0.003,-0.18l-0.04,-0.071v-0.084l0.111,-0.114l-0.003,-0.046l-0.046,-0.053l-0.01,-0.068l0.031,-0.022l0.081,0.01l0.102,-0.034l0.037,-0.072l0.291,-0.126l-0.01,-0.034l-0.071,-0.01l-0.062,0.01l-0.043,0.031l-0.059,-0.004l-0.068,-0.092v-0.177l0.059,-0.083l0.04,-0.322l0.034,-0.046l0.056,0.003l0.034,-0.016l0.009,-0.062l0.161,-0.213l0.084,-0.192l0.043,-0.176l0.056,-0.087l0.123,-0.058l0.096,-0.127l-0.068,-0.152l0.022,-0.049l0.09,-0.003l0.105,-0.078l-0.019,-0.021l-0.108,0.043l-0.099,0.003l-0.05,0.077l0.05,0.121l-0.006,0.071l-0.047,0.047l-0.127,0.046l-0.191,0.17l-0.26,0.495l-0.09,0.108l-0.043,0.164l-0.065,0.062l-0.093,0.019l-0.158,0.198l-0.111,0.077l-0.065,-0.019l-0.04,-0.213l0.018,-0.037l0.127,-0.053l0.053,-0.043l0.065,-0.003l0.08,0.037l0.062,-0.003l0.031,-0.056l-0.025,-0.09l-0.034,-0.034v-0.055l0.074,-0.078l-0.027,-0.009l-0.084,0.062l-0.003,0.09l0.037,0.052l0.009,0.053l-0.027,0.015l-0.099,-0.04l-0.093,0.006l-0.068,0.047h-0.065l-0.044,-0.05v-0.12l0.069,-0.232l0.052,-0.065l0.161,-0.059l0.083,-0.096l0.038,-0.114l0.037,-0.031l0.111,-0.003l0.056,0.024l0.083,-0.055v-0.167l-0.105,-0.072l-0.025,0.016l0.084,0.077l-0.009,0.115l-0.084,0.018l-0.077,-0.018l-0.084,0.006l-0.086,0.065l-0.025,0.086l-0.05,0.062l-0.195,0.065l-0.12,0.152l-0.068,0.043l-0.031,0.155l0.025,0.12l-0.034,0.025l-0.183,-0.114l-0.117,-0.204l-0.034,-0.087l0.024,-0.028l0.059,-0.003l0.077,-0.077l0.081,-0.269l0.055,-0.127l-0.037,-0.047h-0.043l-0.059,0.093l-0.04,0.025l-0.111,-0.016l-0.075,0.031l-0.046,-0.024l0.009,-0.115l0.025,-0.022v-0.092l-0.08,-0.198l0.006,-0.272l0.031,-0.056l0.13,-0.053l0.058,-0.065l0.146,-0.049l0.127,0.006l0.052,-0.034l0.062,-0.121l0.059,-0.046l0.105,-0.028l0.05,-0.049l-0.004,-0.093l0.062,-0.053l0.084,-0.04l0.049,-0.102l-0.027,-0.059l-0.143,-0.065l-0.028,-0.12l0.106,-0.137l-0.016,-0.089l-0.105,-0.068l-0.025,-0.158l-0.028,0.003l-0.003,0.183l0.096,0.068l0.003,0.049l-0.12,0.111l0.009,0.103l0.068,0.099l0.093,0.049l-0.016,0.05l-0.089,0.021l-0.177,0.118l-0.099,-0.013l-0.093,0.01l-0.17,0.086l-0.074,-0.025l-0.077,0.013l-0.05,0.049l0.003,0.053l-0.04,0.034l-0.043,-0.009l-0.056,0.028l-0.114,0.133l-0.112,0.049l-0.096,-0.034l-0.071,-0.145l-0.015,-0.171l-0.077,-0.154l-0.129,-0.136l0.541,-0.959l0.473,-1.17l0.423,-0.64l0.273,-0.227l0.293,-0.019l0.71,0.079l0.385,-0.26l0.886,-0.445l0.352,-0.501l0.13,0.074l0.093,-0.042h0.186l0.195,0.102l0.236,-0.046l0.079,0.018l0.093,0.116l0.176,0.102l0.061,-0.004l0.032,-0.047l0.07,-0.06l0.106,-0.014l0.061,-0.056l0.111,0.01l0.181,0.065h0.107l0.273,-0.093l0.065,-0.167l0.075,-0.005l0.079,0.084l0.176,0.06l0.06,-0.023l0.037,-0.158l0.061,-0.032l0.074,-0.181l-0.028,-0.047l-0.065,0.014l-0.023,-0.046l0.046,-0.065l0.116,-0.005l0.074,0.033l0.01,0.06l-0.042,0.032l0.028,0.07l0.055,0.046l0.116,-0.046l0.047,0.014l-0.014,0.093l0.135,0.069l0.116,0.01l0.041,-0.033l0.088,-0.014l0.075,-0.069l0.06,-0.005l0.056,0.019v-0.362l0.051,-0.088l0.004,-0.079l-0.032,-0.126l0.004,-0.208l-0.046,-0.358l0.046,-0.454l0.056,-0.399l-0.065,-0.056h-0.171l-0.084,-0.051l-0.139,-0.037l-0.195,-0.163l-0.056,-0.194l-0.097,-0.079l-0.325,-0.093l-0.056,-0.163l-0.241,-0.092h-0.083l-0.047,0.032l-0.074,-0.009l-0.042,-0.153l-0.079,-0.098l0.047,-0.111l0.12,-0.023l0.075,-0.065l0.023,-0.121l0.403,-0.051l0.051,-0.037l0.01,-0.121l-0.056,-0.065l0.009,-0.06l0.158,-0.009l0.051,0.148h0.047l0.129,-0.222h0.047l0.005,0.143l-0.075,0.075l0.047,0.074l0.162,-0.028l0.037,-0.111l0.056,-0.047l0.083,0.061l0.116,0.148l0.075,-0.005l0.069,-0.116l0.056,-0.185l0.102,-0.098l0.079,-0.009l0.065,-0.023l0.042,-0.07l-0.051,-0.097v-0.074l0.064,-0.033l0.014,-0.093l-0.083,-0.111l-0.014,-0.139l0.093,-0.125l0.106,-0.056l0.052,-0.186l-0.209,-0.399l-0.075,-0.014l-0.264,-0.594l0.003,-0.468z M1018.232256,678.25468l0.201,-0.247l0.126,-0.224l0.075,0.075l0.106,0.185l0.015,0.208l-0.046,0.071l-0.093,0.028l-0.164,-0.127l-0.093,-0.01l-0.105,0.056l-0.022,-0.015z"/>
</svg>
