<svg xmlns="http://www.w3.org/2000/svg" viewBox="709.252 641.005 5.340 4.697">
  <path d="M709.42704,642.032505v-0.046259l0.032381,-0.004626l0.018504,0.032381l-0.013878,0.032381l-0.037007,-0.013878Z M710.663703,642.19287l0.037007,-0.027756l0.040091,0.006168l0.037007,-0.006168l0.006168,-0.030839l-0.055511,-0.030839l-0.040091,0.01542l-0.033923,0.058595l0.009252,0.01542Z M713.955963,642.528635l0.024575,0.007373l0.140079,-0.076183l0.142536,-0.024575l0.078641,-0.04915l0.078641,-0.066353l0.068811,-0.034405l0.051608,-0.002458l0.04915,-0.02949v-0.034405l-0.02949,-0.073726l-0.046693,-0.012288l-0.034405,0.031948l-0.093386,0.041778l-0.179399,0.108131l-0.063896,0.02949l-0.02949,-0.00983l-0.014745,0.01966v0.024575l-0.02949,0.01966l-0.056523,-0.002458l-0.051608,0.051608l0.004915,0.036863l-0.00983,0.044235Z M713.884695,643.33716l0.036863,-0.007373l0.00983,-0.022118l-0.017203,-0.014745l-0.034405,0.00983l-0.027033,0.017203l0.031948,0.017203Z M713.766734,643.38631l0.063896,0.007373l0.046693,-0.007373l0.022118,-0.024575l-0.031948,-0.014745l-0.024575,0.00983l-0.090928,-0.014745l-0.017203,0.01966l0.031948,0.024575Z M711.024139,643.081577l0.031948,0.002458l0.017203,-0.01966l-0.046693,-0.02949l-0.01966,0.002458v0.02949l0.017203,0.014745Z M710.398483,645.640725l0.058595,-0.01542l0.037007,-0.052427l0.043175,-0.01542l0.009252,-0.033923l-0.055511,-0.027756l-0.01542,-0.033923l-0.074015,-0.021588l-0.070931,0.058595l-0.018504,0.098686l0.086351,0.043175Z M710.672955,645.686984l0.067847,0.01542l0.01542,-0.027756l-0.033923,-0.037007l-0.033923,-0.009252l-0.040091,0.037007l0.024672,0.021588Z M710.669871,645.41868l0.033923,-0.012336l-0.006168,-0.024672l-0.052427,-0.01542l-0.021588,0.024672l0.046259,0.027756Z M710.645199,645.55129l0.046259,0.003084l0.043175,-0.030839h0.033923l0.021588,-0.046259l0.043175,-0.021588l0.027756,-0.037007l-0.009252,-0.049343l-0.049343,-0.021588l-0.055511,0.030839l0.006168,0.049343l-0.030839,0.043175l-0.074015,0.006168l-0.033923,0.046259l0.030839,0.027756Z M710.093172,642.180534l0.078641,0.018504v-0.032381l-0.087893,-0.032381l-0.032381,0.013878l0.041633,0.032381Z M712.498652,645.349292l0.166533,0.060137l0.074015,0.046259l0.078641,0.004626l0.037007,-0.02313l0.152655,-0.027756l0.14803,-0.1249l0.087893,-0.050885l0.037007,-0.037007l0.037007,-0.14803l-0.046259,-0.157281l-0.097144,-0.060137l-0.083267,-0.083267l-0.018504,-0.087893l-0.194289,-0.129526l-0.138778,-0.032381l-0.078641,0.037007l-0.069389,0.1249l-0.064763,0.041633l-0.032381,0.037007l0.004626,0.10177l-0.027756,0.046259l-0.069389,0.027756l-0.032381,0.050885l0.050885,0.259052l0.078641,0.1249Z M711.181806,642.168198l-0.052427,0.009252l-0.061679,0.070931l0.006168,0.104854l-0.033923,0.086351h-0.033923l-0.021588,0.021588l0.006168,0.055511l-0.080183,0.049343l-0.055511,-0.003084l-0.089435,0.049343l-0.049343,0.083267l-0.058595,0.003084l0.003084,-0.070931h-0.024672l-0.018504,0.037007l-0.049343,0.040091l-0.024672,-0.018504l0.021588,-0.037007l-0.01542,-0.024672l-0.077099,0.021588l-0.012336,-0.030839l0.024672,-0.021588l0.043175,0.003084l0.030839,-0.024672l0.01542,-0.052427l0.055511,-0.043175l-0.012336,-0.024672l-0.141862,0.009252l-0.10177,-0.055511l-0.01542,-0.046259l-0.055511,-0.030839l-0.095602,0.003084l-0.160365,-0.092518l-0.129526,-0.01542l-0.043175,-0.018504l-0.003084,-0.043175l-0.083267,-0.080183l-0.089435,-0.043175l-0.037007,0.01542l0.009252,0.037007l-0.046259,0.012336l-0.044717,-0.010794l-0.097144,0.032381l-0.092518,0.106396l0.013878,0.060137l-0.02313,0.037007l-0.050885,0.013878l-0.032381,0.060137v0.212792l-0.046259,0.050885l0.055511,0.198915l0.092518,0.087893l0.032381,0.134152l-0.027756,0.041633l0.018504,0.194289l0.050885,0.041633v0.138778l-0.032381,0.02313l0.004626,0.050885l0.050885,0.013878l0.018504,0.046259l-0.027756,0.037007l0.02313,0.2498l0.004626,0.152655l0.013878,0.106396l0.111022,0.1249l0.032381,0.166533l0.245174,0.263678l0.009252,0.115648l0.055511,0.064763l0.152655,-0.041633l0.032381,-0.050885l0.138778,-0.060137l0.120274,0.004626l0.111022,-0.074015l0.018504,-0.083267l0.254426,-0.212792l0.120274,-0.189663l0.009252,-0.060137l-0.032381,-0.050885l-0.009252,-0.272929l-0.050885,-0.046259l-0.009252,-0.064763l0.060137,-0.060137l-0.02313,-0.046259l-0.055511,-0.018504l-0.074015,-0.198915l0.037007,-0.037007l-0.004626,-0.041633l-0.041633,-0.013878l-0.027756,-0.069389l0.041633,-0.060137l0.004626,-0.037007l-0.027756,-0.041633l0.013878,-0.143404l0.050885,-0.032381l0.087893,0.018504l0.10177,0.069389l0.027756,-0.032381l-0.055511,-0.129526l0.02313,-0.037007l0.092518,0.10177l0.018504,0.120274l0.064763,0.046259l0.055511,-0.018504l0.037007,0.013878l-0.004626,0.041633l0.064763,0.032381l0.060137,-0.018504l0.14803,0.050885l0.10177,-0.009252l0.060137,-0.037007l0.074015,-0.027756l0.060137,0.013878l0.291433,-0.111022l0.055511,-0.050885l0.208167,-0.074015l0.134152,0.009252l0.194289,-0.02313l0.097144,-0.050885l0.152655,-0.027756l0.300685,0.041633l0.106396,-0.004626l0.083267,0.046259l0.037007,-0.009252l-0.092518,-0.069389l-0.161907,-0.018504l-0.208167,-0.120274l-0.083267,-0.166533l-0.157281,-0.138778l-0.231296,-0.078641l-0.263678,-0.02313l-0.161907,-0.069389l-0.152655,-0.203541l-0.02313,-0.138778l0.046259,-0.240548l-0.069389,-0.217418l-0.046259,-0.083267l-0.152655,-0.111022l-0.018504,-0.060137l-0.032381,-0.027756l-0.050885,0.009252l-0.055511,-0.018504l-0.018504,-0.074015l-0.061679,0.010794l-0.074641,0.126538l-0.122876,0.068811l-0.19877,0.168557l-0.037007,0.143404l0.069389,0.240548l0.050885,0.078641l0.097144,0.027756l0.060137,0.064763v0.129526l-0.066305,0.114106l-0.070931,-0.01542Z M711.126295,642.143527l0.024672,-0.006168l-0.024672,-0.018504l-0.024672,-0.003084l-0.003084,0.018504l0.027756,0.009252Z "/>
</svg>
