<svg xmlns="http://www.w3.org/2000/svg" viewBox="1172.758 726.068 3.490 3.849">
  <path d="M1172.874712,729.281416l-0.074015,-0.123358l-0.043175,-0.191205l0.030839,-0.23438l0.135694,-0.370074l0.098686,-0.154197l0.160365,-0.049343l0.277555,0.061679l0.092518,-0.030839l0.067847,0.012336l0.067847,0.043175l0.111022,-0.037007l0.080183,-0.135694l0.006168,-0.104854l-0.080183,-0.067847v-0.080183l0.092518,-0.11719l0.135694,-0.123358l0.012336,-0.067847l-0.024672,-0.055511l0.006168,-0.074015l0.030839,-0.049343v-0.450257l0.030839,-0.061679l0.055511,-0.024672l0.252884,-0.302227l0.135694,-0.209709l0.024672,-0.104854l0.043175,-0.049343l0.135694,-0.061679l0.086351,0.037007l0.018504,0.043175l-0.024672,0.049343l0.055511,0.067847l0.092518,-0.024672l0.129526,0.030839l0.129526,-0.037007l0.086351,0.006168l0.030839,0.043175l0.043175,0.012336l0.074015,-0.024672l0.129526,0.018504l0.067847,-0.037007l0.111022,-0.012336l0.11719,-0.037007l0.11719,0.037007l0.092518,0.111022l0.049343,0.14803l0.067847,0.055511l0.030839,0.345402l-0.055511,0.191205l-0.172701,0.185037l-0.067847,0.14803l-0.209709,0.252884l-0.154197,0.363906l-0.141862,0.222044l-0.049343,0.030839l-0.018504,0.129526l0.006168,0.074015l-0.160365,0.154197l-0.092518,0.018504l-0.055511,0.061679l0.067847,0.14803l-0.024672,0.23438l-0.129526,0.215876l-0.246716,0.23438l-0.018504,0.074015l-0.055511,0.061679l-0.018504,0.080183l-0.123358,0.135694l-0.086351,-0.006168l-0.049343,-0.061679l-0.23438,-0.092518l-0.061679,0.018504l-0.160365,-0.080183l-0.135694,-0.012336l-0.086351,0.049343l-0.314563,-0.123358l-0.111022,0.006168l-0.209709,-0.086351l-0.080183,-0.006168l-0.080183,-0.043175l-0.037007,-0.197373Z M1173.749011,727.72248l0.032381,0.009252l0.013878,-0.032381l-0.018504,-0.02313l-0.027756,0.02313v0.02313Z "/>
</svg>
