<svg xmlns="http://www.w3.org/2000/svg" viewBox="1178.585 735.558 13.933 10.194">
  <path d="M1181.408496,743.958869l0.033923,-0.003084l0.01542,-0.030839l-0.037007,-0.012336l-0.027756,0.027756l0.01542,0.018504Z M1181.769318,744.16241l-0.043175,-0.111022l-0.064763,-0.052427l-0.049343,0.012336l-0.009252,0.040091l0.055511,0.074015l0.092518,0.064763l0.018504,-0.027756Z M1179.885025,744.646589l0.064763,0.009252l0.037007,-0.024672l-0.024672,-0.120274l-0.043175,-0.003084l-0.040091,0.083267l0.006168,0.055511Z M1180.005299,744.489308h0.037007l0.012336,-0.030839l-0.046259,-0.046259l-0.024672,0.033923l0.021588,0.043175Z M1178.673033,745.152357l0.033923,0.049343l0.067847,0.003084l0.043175,-0.021588l0.086351,0.018504l0.019573,-0.007464l-0.024649,-0.034509l-0.065855,-0.03821l-0.024672,-0.070931l0.006168,-0.083267l-0.027756,-0.058595l-0.058595,-0.030839l-0.070931,0.009252l-0.040091,0.040091l-0.030839,0.178869l0.033923,0.043175l0.052427,0.003084Z M1179.11863,745.711864l-0.00986,0.019719l0.014789,0.019719l0.032044,-0.007395l0.027114,-0.024649l-0.00986,-0.017254l-0.054228,0.00986Z  M1182.359894,744.509354l0.088,0.088l0.009,0.093l0.051,0.106l0.194,0.056l0.033,0.064l0.143,0.061l0.046,-0.042l0.088,-0.019l0.051,0.019l0.083,-0.019l0.019,-0.041l-0.042,-0.028l0.019,-0.092l-0.033,-0.144l0.053,-0.05l0.012,-0.093h4.515l0.685,-0.181h1.101v0.185h2.516v-4.353l0.134,-0.157l0.139,0.009l0.032,-0.027l-0.023,-0.259l0.047,-0.065l-0.042,-0.25l0.037,-0.102l0.046,-0.037l0.033,-0.046l-0.014,-0.065l0.037,-0.115l0.055,-0.038l-0.004,-0.189l0.05,-0.065l-0.027,-0.046l-0.07,-0.005l-0.101,-0.157l-0.139,-0.019l-0.116,-0.078l-0.106,-0.324l0.046,-0.097l0.014,-0.088l-0.102,-0.199l0.069,-0.453l0.195,-0.31l-0.037,-0.037l0.009,-0.167h-0.611l-0.101,-0.055h-0.135l-0.217,-0.088l-0.287,0.171h-6.379l-0.143,0.097l-0.158,-0.042l-0.106,0.093l-0.056,-0.028l0.019,-0.06l-0.074,-0.055l-0.093,0.027l-0.266,-0.032l-0.062,0.049l-0.031,0.102l-0.029,0.006l-0.002,-0.139l-0.135,-0.055l-0.111,0.006l-0.242,-0.126l-0.261,-0.081l-0.063,0.058l-0.051,-0.024l0.009,-0.074l-0.12,-0.134l-0.236,-0.094l-0.054,-0.052l-0.071,-0.256l0.048,-0.184l-0.003,-0.086l-0.062,-0.115l-0.039,-0.004l-0.055,0.074l-0.105,0.016l-0.136,0.067l-0.03,0.074l0.098,0.278l-0.006,0.13l0.043,0.191l0.019,0.37l-0.068,0.29l-0.111,0.086l-0.037,0.136l0.216,0.567l0.117,0.463l-0.043,0.136l-0.068,0.024l-0.043,0.068l-0.037,0.136l-0.228,0.142l-0.093,0.197l0.043,0.099l-0.068,0.172l-0.216,0.21l-0.111,0.037l-0.185,0.265l-0.259,0.185l-0.074,0.118l0.007,0.252l0.098,0.111l0.006,0.087l-0.08,0.024l-0.08,0.081l-0.025,0.111l-0.197,0.462l-0.099,0.031l-0.043,0.043v0.074l-0.043,0.087l-0.387,0.249l-0.111,0.19l0.037,0.194l-0.06,0.25l-0.088,0.037l-0.06,0.093l-0.014,0.097l-0.056,0.037l-0.101,-0.009l-0.084,0.097l-0.134,0.476l-0.074,0.083l-0.134,0.033l-0.014,0.051l0.097,0.06l0.023,0.069l-0.037,0.047l0.01,0.05l0.129,0.028l0.083,0.167l0.125,0.037l0.051,-0.005l0.028,-0.055l0.116,-0.005l0.297,-0.156l0.304,0.036l0.129,0.083l0.13,0.203l0.065,0.181l0.014,0.111l0.046,0.079h0.055l0.042,-0.051l0.264,-0.111l0.194,-0.139l0.065,-0.093l-0.005,-0.18l0.107,-0.106l0.097,-0.028l0.046,-0.033l0.028,-0.05l0.106,-0.065l0.06,-0.005l-0.143,0.153l-0.157,0.083l-0.042,0.083l-0.009,0.158l0.037,0.055l0.111,-0.014l0.111,-0.083l0.203,0.028l0.333,0.115l0.134,0.005l0.13,-0.079l0.106,-0.032l0.042,0.023l-0.065,0.083l-0.111,0.005l-0.231,0.102l-0.157,-0.009l-0.028,0.046l0.074,0.18l0.004,0.157l0.065,0.01l0.06,-0.033l0.153,-0.004l0.074,0.055l0.139,0.023z"/>
</svg>
