<svg xmlns="http://www.w3.org/2000/svg" viewBox="1267.789 465.557 45.038 42.057">
  <path d="M1312.749754,501.841747l-0.00928,0.046398h0.027839l0.049491,-0.034025l0.00928,-0.034025l-0.030932,-0.015466l-0.046398,0.037118Z M1311.874379,501.591197l0.083516,-0.034025l0.006186,-0.027839l-0.034025,-0.018559l-0.111355,0.00928l-0.021652,0.037118l0.024746,0.024746l0.052584,0.00928Z M1312.415689,501.495308l-0.098982,0.108262l-0.024746,0.160846l0.040212,0.021652l0.074237,-0.015466l0.105169,-0.07733l0.058771,-0.07733l-0.012373,-0.034025l-0.055678,-0.00928l-0.018559,-0.024746l0.040212,-0.071144l-0.018559,-0.015466l-0.089703,0.034025Z M1299.985664,500.630759l0.098982,-0.058771l0.074237,0.006186l0.046398,0.055678l-0.034025,0.117542l-0.08661,0.06805l-0.012373,0.030932h-0.027839l-0.00928,-0.061864l0.052584,-0.06805l-0.021652,-0.012373l-0.071144,0.021652l-0.027839,-0.021652l0.018559,-0.07733Z M1299.713463,500.791605l0.030932,-0.034025h0.034025l0.012373,0.021652l-0.018559,0.030932l-0.043305,0.00928l-0.015466,-0.027839Z M1298.831901,500.964824l0.06805,-0.052584l0.071144,-0.00928l0.061864,0.018559l0.269108,-0.027839l0.06805,-0.046398l0.111355,0.00928l0.037118,0.046398l0.018559,0.117542l-0.061864,0.046398l-0.173219,0.024746l-0.114448,-0.030932l-0.22271,0.021652l-0.043305,0.024746l-0.058771,-0.012373l-0.034025,-0.064957l0.003093,-0.064957Z M1297.37191,499.214073l0.046398,-0.023199l0.129914,0.055678l0.055678,-0.013919l0.083516,-0.134554l0.078877,0.00464l0.148474,0.129914l0.092796,0.185592l-0.018559,0.148474l0.037118,0.037118l0.055678,-0.013919l0.069597,0.013919l0.074237,0.083516l0.037118,-0.013919l0.027839,-0.064957l0.051038,-0.00928l0.060317,0.041758l-0.018559,0.064957l-0.139194,0.111355l-0.162393,0.027839l-0.037118,0.032479l-0.106715,-0.027839l-0.037118,-0.092796l-0.083516,-0.111355l-0.032479,-0.153113l-0.069597,-0.023199l-0.157753,0.115995l-0.060317,-0.00464l-0.102076,-0.055678l-0.032479,-0.074237l0.032479,-0.102076l-0.023199,-0.134554Z M1297.283174,499.089378l0.024649,-0.022184l0.046833,0.00493l0.017254,0.019719l-0.017254,0.019719h-0.054228l-0.017254,-0.022184Z M1295.648949,498.312937l0.00986,-0.036973l0.034509,-0.017254l0.024649,0.00986l-0.002465,0.041903l-0.027114,0.017254l-0.039438,-0.014789Z M1295.885579,498.458366l0.002465,-0.044368l0.034509,-0.024649l0.029579,0.007395v0.034509l-0.039438,0.034509l-0.027114,-0.007395Z M1295.205268,498.988318l0.007395,-0.039438l0.046833,-0.051763l0.029579,-0.002465l0.019719,0.019719l-0.032044,0.051763l-0.049298,0.027114l-0.022184,-0.00493Z M1296.114814,497.817493l-0.00493,-0.076412l0.036973,-0.041903l0.054228,-0.00986l0.046833,-0.041903l0.022184,-0.039438l0.036973,-0.012324l0.066552,0.041903l-0.00493,0.032044l-0.076412,0.019719l-0.059157,0.041903l-0.027114,0.081341l-0.029579,0.019719l-0.061622,-0.014789Z M1296.270103,498.12807l0.029579,-0.027114l0.12078,0.00986l0.054228,-0.019719l0.036973,-0.049298l0.11092,-0.002465l0.061622,0.019719l0.086271,0.123245l0.022184,0.086271l0.044368,0.032044l0.002465,0.039438l-0.064087,0.113385l-0.076412,0.044368l-0.128174,0.007395l-0.162683,-0.049298l-0.059157,0.00986l-0.081341,-0.049298l-0.019719,-0.11585l0.032044,-0.123245l-0.00986,-0.049298Z M1296.131537,495.545538l0.046398,-0.040212l0.148474,-0.015466l0.07733,0.021652l0.139194,0.006186l0.018559,0.034025l-0.034025,0.058771l-0.080423,0.040212v0.027839l0.111355,0.046398l0.006186,0.034025l-0.030932,0.00928l-0.173219,0.003093l-0.058771,-0.037118l-0.040212,-0.064957l-0.117542,-0.08661l-0.012373,-0.037118Z M1294.683919,495.090837l0.00928,-0.034025l0.129914,-0.00928l0.111355,0.049491l-0.003093,0.037118l-0.046398,0.040212l-0.098982,-0.012373l-0.102076,-0.071144Z M1295.952131,494.72584l0.00928,-0.034025l0.046398,-0.00928l0.092796,0.034025l-0.006186,0.027839l-0.071144,0.012373l-0.071144,-0.030932Z M1295.342771,495.703291l-0.071144,0.027839l-0.194872,-0.018559l-0.204151,-0.157753v-0.058771l0.111355,-0.055678l0.003093,-0.049491l-0.043305,-0.055678l0.012373,-0.074237l0.043305,-0.046398l0.037118,-0.058771l-0.006186,-0.083516l0.049491,-0.030932l0.117542,0.024746l0.015466,-0.030932l-0.080423,-0.123728l-0.139194,-0.064957l-0.089703,0.037118l-0.034025,-0.018559l0.018559,-0.049491l-0.040212,-0.058771l-0.170126,-0.108262l0.003093,-0.06805l0.043305,0.003093l0.06805,0.064957l0.111355,0.003093l0.213431,0.092796l0.080423,0.012373l0.176312,0.108262l-0.012373,0.024746l-0.083516,-0.012373l-0.00928,0.024746l0.071144,0.083516l0.16394,0.098982l0.098982,-0.00928l0.098982,0.021652l0.080423,0.102076l-0.015466,0.037118l-0.030932,0.006186l-0.043305,0.105169l-0.058771,0.012373l-0.00928,0.021652l0.064957,0.021652l0.00928,0.024746l-0.037118,0.030932l0.003093,0.024746l0.07733,0.024746l0.030932,0.049491l-0.024746,0.027839l-0.228897,-0.027839l-0.129914,-0.006186l-0.040212,0.027839l-0.006186,0.123728Z M1294.968494,495.857951l0.006186,-0.024746l0.058771,-0.024746l0.024746,0.006186l-0.003093,0.027839l-0.049491,0.021652l-0.037118,-0.006186Z M1296.044927,492.885386v0.088156l0.027839,0.060317l-0.018559,0.051038l-0.041758,-0.00928l-0.046398,-0.060317l0.00464,-0.083516l0.037118,-0.060317l0.037118,0.013919Z M1294.003415,493.72519l0.092796,0.018559l0.046398,-0.018559l-0.00928,-0.055678l0.032479,-0.013919l0.060317,0.064957h0.078877l0.148474,0.046398l0.027839,0.051038l-0.106715,0.111355l0.018559,0.037118l0.143834,0.023199l0.037118,0.037118l-0.069597,0.074237l0.064957,0.083516l0.060317,0.018559l0.069597,0.064957l-0.00464,0.129914l-0.037118,0.023199l-0.051038,-0.023199l-0.055678,0.051038l-0.115995,-0.013919l-0.064957,-0.060317v-0.055678l0.092796,-0.051038l0.037118,-0.055678l-0.032479,-0.027839l-0.134554,0.032479l-0.060317,0.088156h-0.046398l-0.00928,-0.139194l0.032479,-0.115995l-0.051038,-0.037118h-0.083516l-0.041758,-0.027839l0.00928,-0.032479l-0.041758,-0.023199l-0.055678,-0.00464l-0.083516,-0.064957v-0.060317l0.102076,-0.074237Z M1293.915259,493.576716l0.032479,-0.018559l0.064957,0.023199v0.032479l-0.064957,-0.00464l-0.032479,-0.032479Z M1293.553355,492.760111l0.046398,-0.055678l0.092796,0.018559l0.046398,0.088156l0.120635,0.046398l0.115995,-0.00928l0.074237,0.032479l0.00928,0.106715l-0.078877,0.060317l-0.088156,-0.013919l-0.023199,-0.088156l-0.046398,-0.013919l-0.083516,0.00928l-0.143834,-0.060317l-0.041758,-0.120635Z M1293.465198,492.347169l0.037118,-0.023199l0.060317,0.027839l0.00928,0.060317l-0.037118,0.00928l-0.055678,-0.032479l-0.013919,-0.041758Z M1293.609032,492.105899l0.055678,-0.00928l0.167033,0.134554l0.018559,0.060317l-0.041758,0.064957h-0.046398l-0.023199,-0.092796l-0.051038,-0.051038l-0.051038,-0.00464l-0.032479,-0.032479l0.00464,-0.069597Z M1295.033451,491.558403l0.00464,-0.032479l0.269108,0.013919l0.106715,0.037118l0.088156,0.074237l-0.013919,0.032479l-0.064957,-0.013919l-0.083516,0.074237h-0.051038l-0.027839,-0.055678l-0.032479,0.00464l-0.032479,0.055678l-0.069597,-0.00928l-0.041758,-0.064957l0.00464,-0.083516l-0.055678,-0.032479Z M1291.80415,495.093931l0.037118,-0.046398h0.051038l0.041758,0.037118l0.106715,0.018559l0.069597,0.069597l-0.023199,0.032479h-0.255189l-0.111355,0.041758l-0.032479,-0.027839l0.00464,-0.041758l-0.027839,-0.041758l0.027839,-0.032479l0.111355,-0.00928Z M1290.685958,495.288802l0.129914,-0.027839l0.046398,0.023199l-0.037118,0.064957l-0.083516,0.051038l-0.088156,-0.00464l-0.032479,-0.041758l0.064957,-0.064957Z M1286.774607,494.532515l0.023199,-0.037118l0.032479,-0.00464l0.032479,0.037118l-0.00928,0.032479l-0.046398,0.00464l-0.032479,-0.032479Z M1287.419539,494.328364l0.032479,-0.027839l0.060317,0.00928l0.064957,-0.032479l0.027839,-0.069597l0.092796,-0.046398l0.037118,0.013919l-0.051038,0.060317l0.00464,0.041758l0.060317,0.064957l0.00928,0.092796l-0.023199,0.037118l-0.143834,0.00464l-0.120635,-0.055678l-0.051038,-0.092796Z M1288.124789,496.049729l0.00464,-0.027839l0.129914,-0.00928l0.069597,0.018559l-0.013919,0.037118l-0.088156,0.00928l-0.102076,-0.027839Z M1287.15507,496.603412l0.030932,0.012373l0.015466,0.034025l-0.018559,0.021652l-0.037118,-0.013919l-0.00928,-0.041758l0.018559,-0.012373Z M1294.924271,496.994219l0.12078,-0.069017l0.152823,-0.034509l0.128174,0.029579l0.069017,-0.019719l0.214446,-0.280998l0.096131,-0.064087l0.187332,-0.204586l0.552136,-0.290857l0.409172,-0.041903l0.170078,-0.046833l0.189797,-0.123245l0.064087,-0.00493l0.036973,0.032044l0.017254,0.076412l0.128174,0.088736l0.11092,0.00986l0.039438,-0.032044l0.073947,0.00986l0.096131,0.160218l-0.019719,0.066552l-0.234165,0.118315l-0.58418,0.12571l-0.401778,0.157753l-0.142964,0.130639l-0.061622,0.118315l-0.175007,0.098596l-0.098596,-0.002465l-0.234165,-0.066552l-0.23663,0.007395l-0.152823,0.088736l-0.135569,0.041903l-0.036973,0.061622l0.012324,0.069017l0.041903,0.064087l-0.014789,0.069017l-0.061622,0.036973l-0.029579,0.071482l0.00493,0.11585l0.044368,0.076412l-0.022184,0.017254l-0.157753,-0.066552l-0.172543,-0.177472l-0.034509,-0.170078l0.007395,-0.147894l0.039438,-0.098596Z M1303.202592,499.523393l0.111355,-0.037118l0.117542,-0.15466l0.080423,-0.037118l0.098982,0.074237v0.105169l-0.043305,0.185592l0.061864,0.117542l-0.030932,0.092796l-0.105169,0.08661l-0.098982,0.173219l0.037118,0.117542l-0.037118,0.08661l-0.117542,0.061864l-0.117542,0.24127l-0.024746,0.24127l-0.055678,0.129914l-0.06805,0.030932l-0.043305,0.06805l0.012373,0.080423l-0.061864,0.08661l-0.117542,0.043305l-0.111355,0.092796l-0.15466,0.216524l-0.049491,0.185592l0.030932,0.098982l0.111355,0.030932l0.018559,0.080423l-0.030932,0.074237l-0.055678,0.024746l-0.012373,0.049491l0.049491,0.06805l-0.030932,0.043305l-0.160846,-0.049491l-0.105169,-0.080423l-0.191778,0.006186l-0.30932,0.179406l-0.235083,0.235083l-0.247456,0.439234l-0.272202,0.259829l-0.296947,0.216524l-0.160846,0.030932l-0.111355,0.08661h-0.06805l-0.018559,-0.049491l0.061864,-0.043305l-0.018559,-0.098982l-0.160846,-0.129914l-0.06805,-0.080423l-0.006186,-0.105169l0.191778,-0.39593l0.064957,-0.324786l-0.00928,-0.324786l-0.061864,-0.111355l-0.160846,-0.06805l-0.08661,-0.092796l0.012373,-0.080423l-0.08661,-0.074237l-0.08661,-0.012373v-0.061864l0.272202,-0.136101l0.296947,-0.173219l0.06805,-0.142287l0.006186,-0.204151l0.142287,-0.204151l0.179406,-0.061864l0.173219,-0.148474l0.142287,-0.22271l0.284574,-0.167033l0.204151,-0.018559l0.494912,-0.278388l0.575335,-0.228897l0.389743,-0.043305Z M1296.694499,503.792009l0.012373,-0.049491l0.092796,-0.06805l0.074237,-0.191778l0.092796,-0.049491l0.049491,0.043305l-0.030932,0.111355l-0.006186,0.08661l0.024746,0.098982l-0.037118,0.117542l-0.061864,0.012373l-0.092796,-0.012373l-0.117542,-0.098982Z M1296.836787,504.064211v-0.080423l0.061864,-0.024746l0.055678,0.024746l0.012373,0.136101l-0.030932,0.105169l-0.080423,0.049491l-0.024746,0.142287l0.037118,0.15466l-0.012373,0.167033l-0.098982,0.08661l-0.055678,0.111355l-0.006186,0.092796l-0.061864,0.111355l-0.111355,0.092796l-0.018559,0.098982l0.018559,0.098982l-0.024746,0.08661l-0.049491,0.030932v0.055678l0.303134,0.284574l0.024746,0.105169l0.098982,0.080423l-0.006186,0.055678l-0.117542,0.08661l-0.006186,0.08661l0.061864,0.055678l0.191778,0.024746l0.037118,0.074237l-0.049491,0.123728l-0.061864,0.006186l-0.055678,-0.024746l-0.08661,0.012373l-0.055678,0.06805l-0.055678,0.049491l-0.080423,0.024746l-0.105169,0.105169l-0.006186,0.111355l0.061864,0.055678l-0.006186,0.043305l-0.049491,0.018559l-0.061864,0.092796l-0.055678,0.006186l-0.012373,-0.117542l-0.055678,-0.049491l-0.092796,-0.006186l-0.129914,-0.105169l-0.098982,-0.018559v-0.049491l0.173219,-0.111355l0.061864,-0.123728l-0.030932,-0.15466l-0.061864,-0.049491l0.006186,-0.136101l0.055678,-0.055678l-0.018559,-0.123728l-0.043305,-0.055678l-0.111355,-0.018559l-0.148474,-0.191778l0.006186,-0.117542l0.197965,-0.22271l0.117542,-0.043305l0.061864,-0.136101l-0.012373,-0.117542l0.092796,-0.235083l0.167033,-0.15466l0.024746,-0.098982l-0.030932,-0.08661v-0.117542l0.049491,-0.080423l-0.012373,-0.148474l0.08661,-0.098982l0.123728,-0.006186l0.105169,-0.055678Z M1294.189007,503.569299l0.024746,-0.055678l0.049491,-0.018559l0.043305,0.018559l-0.012373,0.049491l-0.055678,0.030932l-0.049491,-0.024746Z M1294.436463,507.48529l0.006186,-0.092796l0.272202,-0.253642l0.018559,-0.08661l0.061864,-0.030932l0.117542,0.006186l0.476353,-0.111355l0.080423,-0.006186l0.012373,0.049491l-0.043305,0.037118l-0.018559,0.092796l-0.092796,0.092796l-0.129914,0.012373l-0.142287,0.098982l-0.037118,0.105169l-0.055678,0.037118l-0.098982,0.018559l-0.08661,0.061864l-0.080423,0.092796l-0.167033,0.006186l-0.092796,-0.129914Z M1294.368413,506.891396l0.037118,-0.049491l0.08661,-0.006186l0.098982,0.049491l-0.012373,0.043305h-0.129914l-0.080423,-0.037118Z M1293.174438,500.043051l0.043305,-0.043305l0.098982,0.006186l0.08661,0.123728l-0.006186,0.061864l-0.092796,0.024746l-0.080423,-0.024746l-0.049491,-0.148474Z M1290.551404,498.279927l0.055678,-0.055678l0.22271,0.012373l0.284574,0.179406l0.080423,-0.024746l0.024746,-0.08661l0.098982,-0.049491l0.117542,0.037118l0.043305,-0.055678l-0.055678,-0.148474l-0.098982,-0.080423l-0.018559,-0.08661l0.092796,-0.043305l0.204151,0.08661l0.352625,0.327879l-0.037118,0.043305l-0.092796,-0.024746l-0.142287,0.006186l-0.049491,0.055678l-0.080423,0.037118l-0.259829,-0.012373l-0.061864,0.049491l-0.043305,0.136101l-0.055678,0.055678l0.006186,0.08661l0.117542,0.129914l-0.043305,0.037118l-0.092796,-0.018559l-0.129914,0.012373l-0.228897,-0.08661l-0.105169,-0.228897l-0.018559,-0.136101l-0.08661,-0.15466Z M1291.920145,498.634098l0.032479,0.041758l-0.013919,0.041758h-0.037118l-0.027839,-0.041758l0.00928,-0.046398l0.037118,0.00464Z M1289.71624,498.569141l-0.00464,-0.041758l0.041758,-0.023199l0.051038,0.00928l0.027839,0.083516v0.148474l-0.032479,0.00464l-0.023199,-0.115995l-0.060317,-0.064957Z M1290.310134,498.559861l-0.018559,-0.055678l0.023199,-0.032479l0.037118,-0.00464l0.018559,0.032479l-0.00464,0.037118l-0.018559,0.032479l-0.037118,-0.00928Z M1287.076194,500.007479l0.018559,-0.111355l0.157753,-0.157753h0.129914l0.22735,0.129914l0.115995,0.120635l0.125275,0.037118l0.013919,0.051038l-0.046398,0.037118l-0.078877,-0.013919l-0.064957,-0.037118l-0.074237,0.00464l-0.139194,0.055678l-0.199511,-0.013919l-0.185592,-0.102076Z M1287.730406,500.638492l0.041758,0.018559l-0.013919,0.032479l-0.046398,0.00928l-0.037118,-0.018559v-0.032479l0.055678,-0.00928Z M1286.681811,497.993806l0.032479,-0.032479l0.037118,0.00928l0.037118,0.037118l-0.018559,0.032479l-0.055678,-0.00928l-0.032479,-0.037118Z M1283.548399,500.847283l0.012373,-0.043305l0.043305,-0.012373l0.043305,0.024746l-0.00928,0.030932l-0.051038,0.023199l-0.038665,-0.023199Z M1284.904767,499.617736l0.013919,0.064957l-0.037118,0.046398l-0.046398,-0.00464l-0.013919,-0.055678l0.023199,-0.064957l0.060317,0.013919Z M1284.726908,499.736824l-0.003093,-0.030932l0.024746,-0.00928l0.030932,0.034025v0.030932h-0.030932l-0.021652,-0.024746Z M1284.405215,499.545045l0.003093,-0.08661l0.058771,-0.15466l0.052584,-0.006186l0.074237,0.034025l0.00928,0.058771l-0.043305,0.030932l-0.003093,0.071144l0.034025,0.108262l-0.027839,0.018559l-0.098982,-0.024746l-0.058771,-0.049491Z M1284.686697,499.2017l0.021652,-0.064957l0.074237,-0.037118l0.173219,0.024746l0.08661,0.049491l0.037118,0.083516l0.228897,0.247456l0.114448,0.071144l0.052584,0.108262l-0.034025,0.207244l0.006186,0.058771l-0.00928,0.040212l-0.052584,0.043305l-0.16394,0.148474l-0.052584,0.006186l-0.105169,-0.061864l-0.167033,-0.040212l-0.061864,0.018559l-0.06805,-0.006186l-0.074237,-0.061864l-0.064957,-0.012373v-0.046398l0.061864,-0.030932l0.139194,0.015466l0.049491,0.027839h0.102076l0.095889,-0.142287l0.034025,-0.052584l0.015466,-0.064957l-0.049491,-0.037118l-0.00928,-0.049491l0.021652,-0.046398l-0.015466,-0.043305l-0.040212,-0.037118l-0.012373,-0.111355l0.018559,-0.043305l-0.040212,-0.06805l-0.191778,-0.037118l-0.058771,0.006186l-0.046398,-0.015466l-0.015466,-0.046398Z M1283.987633,496.912732l0.030932,-0.074237l0.129914,-0.061864l0.129914,0.012373l0.136101,0.117542v0.098982l0.08661,0.08661l0.136101,0.043305l0.210338,0.136101l0.030932,0.06805l-0.061864,0.074237l-0.030932,0.111355l0.037118,0.204151l-0.049491,0.043305l-0.08661,-0.006186l-0.049491,0.055678l-0.061864,0.006186l-0.148474,-0.185592l-0.296947,-0.272202l-0.098982,-0.006186l-0.080423,-0.098982v-0.167033l0.049491,-0.080423l-0.012373,-0.105169Z M1282.713235,497.778828l0.111355,-0.123728l0.030932,-0.105169l0.06805,-0.080423l0.08661,-0.024746l0.160846,-0.092796l0.179406,-0.030932l0.092796,0.049491l-0.043305,0.142287l-0.352625,0.30932l-0.321693,0.111355l-0.061864,-0.043305l0.049491,-0.111355Z M1281.191381,497.772642l0.049491,-0.043305l0.117542,0.012373l0.253642,0.185592l0.167033,0.024746l0.148474,0.117542l0.030932,0.117542l-0.055678,0.049491l-0.129914,-0.006186l-0.185592,-0.105169l-0.098982,-0.15466l-0.160846,-0.049491l-0.08661,-0.049491l-0.049491,-0.098982Z M1279.66334,496.850868l0.074237,-0.049491l0.204151,0.037118l0.098982,0.092796l-0.006186,0.098982l-0.037118,0.055678l-0.179406,-0.006186l-0.117542,-0.080423l-0.037118,-0.148474Z M1279.261224,496.869427l-0.06805,-0.055678l-0.092796,-0.148474l0.049491,-0.179406l0.167033,-0.105169l0.123728,0.024746l0.043305,0.043305l0.08661,-0.012373l0.049491,0.049491l-0.061864,0.259829l-0.117542,0.098982l-0.179406,0.024746Z M1277.120729,496.801377l0.006186,-0.105169l0.080423,-0.049491l0.092796,0.006186l0.030932,0.08661l-0.037118,0.15466l-0.06805,0.006186l-0.105169,-0.098982Z M1277.770301,497.679846l0.061864,-0.092796l0.061864,-0.37737l0.055678,-0.105169l0.055678,-0.006186l0.074237,0.105169l0.074237,0.006186l0.074237,-0.012373l0.055678,0.043305l-0.024746,0.148474l0.06805,0.061864l0.061864,-0.012373l0.092796,0.018559l0.06805,0.06805h0.080423l0.111355,-0.06805l0.006186,-0.08661l-0.080423,-0.092796l-0.216524,-0.080423l-0.06805,-0.191778l0.024746,-0.074237l0.092796,0.006186l0.030932,0.080423l0.24127,0.098982l0.136101,-0.030932l0.123728,-0.092796l0.08661,-0.012373l0.08661,0.08661l-0.018559,0.123728l0.061864,0.142287l0.018559,0.173219l-0.117542,0.148474l-0.383557,0.06805l-0.092796,-0.037118l-0.105169,0.012373l-0.052584,0.049491l-0.579975,0.055678l-0.115995,0.032479l-0.043305,-0.038665l-0.006186,-0.117542Z M1287.179816,496.826123l0.018559,-0.06805l0.148474,-0.105169l0.272202,-0.043305l0.098982,0.024746l0.129914,-0.074237l0.037118,-0.105169l-0.049491,-0.043305v-0.06805l0.247456,-0.129914l0.167033,-0.030932l0.364998,-0.197965l0.074237,-0.080423l-0.055678,-0.043305l-0.055678,-0.006186l-0.012373,-0.055678l0.22271,-0.105169h0.160846l0.383557,0.210338v0.061864l-0.123728,0.043305l-0.24127,-0.012373l-0.284574,0.111355l-0.321693,0.22271l-0.117542,0.210338l-0.235083,0.216524l-0.247456,0.037118l-0.117542,0.043305l-0.055678,0.092796l-0.210338,0.006186l-0.197965,-0.111355Z M1284.482545,494.5619l0.018559,-0.055678l0.123728,-0.012373l0.111355,-0.055678l0.142287,-0.197965l0.117542,-0.08661h0.185592l0.148474,-0.105169l0.08661,-0.185592l0.129914,-0.136101l0.204151,-0.061864l0.160846,0.080423l0.136101,0.173219l0.129914,0.334066l0.006186,0.148474l-0.117542,0.562962l-0.160846,0.439234l-0.092796,0.080423l-0.204151,0.061864l-0.123728,0.061864l-0.006186,0.055678l-0.043305,0.024746l-0.061864,-0.012373l-0.055678,0.018559l-0.043305,0.06805l-0.080423,0.024746l-0.105169,-0.061864l-0.018559,-0.204151l-0.043305,-0.08661l-0.173219,-0.055678l-0.037118,-0.074237l0.012373,-0.06805l-0.037118,-0.123728l-0.117542,-0.074237l-0.006186,-0.061864l0.06805,-0.030932l-0.006186,-0.092796l-0.129914,-0.136101l-0.049491,-0.105169l-0.06805,-0.049491Z M1285.07644,496.425553l0.041758,-0.037118l0.037118,-0.083516l0.180952,-0.106715l0.060317,0.023199l-0.027839,0.23199l-0.139194,0.083516l-0.111355,-0.00928l-0.111355,-0.051038l0.00464,-0.046398l0.064957,-0.00464Z M1285.558979,496.147165l0.037118,-0.106715l0.069597,-0.041758l0.074237,0.027839l0.051038,0.162393l0.032479,0.037118l-0.013919,0.046398h-0.088156l-0.064957,-0.083516l-0.074237,-0.00464l-0.023199,-0.037118Z M1286.148234,495.641427l0.027839,-0.074237l0.078877,-0.037118l0.088156,0.018559l0.023199,0.051038l-0.064957,0.097436l-0.083516,0.00928l-0.069597,-0.064957Z M1286.254949,496.077568l0.00928,-0.064957l0.046398,-0.037118h0.074237l0.046398,-0.013919l0.00928,-0.046398l0.074237,-0.023199l0.167033,0.074237l0.064957,0.111355l-0.055678,0.037118h-0.167033l-0.088156,-0.037118l-0.120635,0.018559l-0.060317,-0.018559Z M1285.916244,495.947654l-0.013919,-0.041758l0.064957,-0.064957l0.078877,-0.013919l0.088156,-0.055678l0.041758,-0.00464l0.013919,0.037118l-0.120635,0.078877l-0.055678,0.055678l-0.097436,0.00928Z M1286.604481,496.343583l0.030932,-0.006186l0.040212,0.027839l0.00928,0.043305l-0.024746,0.00928l-0.040212,-0.021652l-0.015466,-0.052584Z M1286.703463,496.355956l0.006186,-0.027839l0.034025,-0.012373l0.024746,0.003093l0.003093,0.030932l-0.043305,0.015466l-0.024746,-0.00928Z M1283.990727,494.234021l0.027839,-0.034025l-0.006186,-0.06805l-0.043305,-0.024746l0.012373,-0.034025l0.071144,-0.034025l0.061864,0.027839l0.027839,0.064957l-0.040212,0.142287l-0.071144,0.102076l-0.074237,0.191778l0.00928,0.055678l0.074237,0.071144v0.108262l-0.105169,0.123728l-0.074237,0.182499l-0.173219,0.123728l-0.15466,0.052584l-0.064957,0.064957l-0.058771,0.006186l-0.089703,-0.061864l-0.188685,-0.08661l-0.105169,-0.00928l-0.092796,-0.111355l-0.012373,-0.160846l0.040212,-0.06805l0.021652,-0.133008l0.049491,-0.071144l0.225804,-0.111355l0.00928,-0.043305l-0.040212,-0.027839l-0.058771,0.003093l-0.034025,-0.030932l0.095889,-0.142287l0.095889,-0.061864l0.111355,-0.018559l0.102076,-0.061864l0.080423,-0.080423l0.08661,-0.021652l0.055678,0.006186l-0.00928,0.034025l-0.040212,0.018559l-0.030932,0.083516l0.018559,0.061864l0.095889,0.006186l0.052584,-0.040212l0.06805,-0.00928l0.074237,0.015466Z M1282.382263,495.288802l0.024746,-0.018559l0.003093,-0.046398l-0.015466,-0.049491l0.012373,-0.055678l0.061864,-0.07733l0.064957,-0.00928l0.040212,-0.024746l0.06805,-0.114448l0.105169,-0.06805l0.058771,0.00928l0.006186,0.034025l-0.043305,0.095889l-0.015466,0.095889l0.00928,0.182499l-0.024746,0.074237l-0.064957,0.052584l-0.006186,0.064957l0.052584,0.102076l-0.003093,0.07733l-0.027839,-0.003093l-0.015466,-0.043305l-0.160846,-0.170126l-0.080423,-0.034025l-0.046398,-0.030932l-0.003093,-0.043305Z M1282.147179,495.523885l-0.00928,-0.058771l0.027839,-0.061864l0.126821,-0.024746l0.157753,0.049491l0.006186,0.034025l-0.043305,0.040212l-0.16394,0.040212l-0.102076,-0.018559Z M1281.97396,495.616681l-0.00928,-0.043305l0.021652,-0.037118l0.037118,-0.003093l0.00928,0.024746l-0.021652,0.049491l-0.037118,0.00928Z M1279.867491,494.914525l0.055678,-0.024746l0.185592,0.080423l0.098982,0.006186l0.129914,0.074237l0.037118,0.105169l0.210338,0.167033l0.092796,0.167033l-0.012373,0.117542l-0.284574,0.272202l-0.08661,0.006186l-0.148474,-0.173219l-0.006186,-0.235083l-0.123728,-0.117542l-0.006186,-0.061864l0.055678,-0.024746l0.006186,-0.055678l-0.080423,-0.055678l-0.049491,-0.136101l-0.061864,-0.030932l-0.012373,-0.080423Z M1280.433547,495.916722l0.00928,-0.037118l0.034025,-0.003093l0.021652,0.021652l-0.00928,0.024746l-0.027839,0.006186l-0.027839,-0.012373Z M1274.844134,496.368329l0.049491,-0.024746l0.092796,0.024746l0.012373,0.043305l-0.055678,0.018559l-0.074237,-0.012373l-0.024746,-0.049491Z M1272.097372,495.88579l-0.024746,-0.055678l0.024746,-0.043305h0.043305l0.037118,0.055678l-0.024746,0.055678l-0.055678,-0.012373Z M1282.385356,497.933488l0.052584,0.003093l-0.003093,0.034025l-0.111355,0.052584l-0.034025,-0.003093l-0.00928,-0.027839l0.105169,-0.058771Z M1288.104683,500.667877l0.037118,0.003093l-0.006186,0.024746l-0.061864,0.034025l-0.024746,-0.006186l0.003093,-0.021652l0.052584,-0.034025Z M1291.465445,502.132507l0.041758,0.055678l-0.00928,0.037118l-0.032479,0.013919l-0.046398,-0.060317l-0.00464,-0.041758l0.051038,-0.00464Z M1290.319414,503.751798l0.046398,-0.00928l0.013919,0.037118l-0.041758,0.046398l-0.037118,0.013919l-0.013919,-0.032479l0.032479,-0.055678Z M1291.776311,504.07349l0.021652,-0.021652l0.027839,-0.006186l0.015466,0.027839l-0.021652,0.021652h-0.030932l-0.012373,-0.021652Z M1291.869107,504.039465l0.021652,-0.018559l0.034025,0.00928l0.006186,0.024746l-0.015466,0.021652l-0.027839,-0.00928l-0.018559,-0.027839Z M1292.874397,499.557418l0.024746,-0.015466l0.030932,0.006186l0.00928,0.027839l-0.021652,0.012373l-0.030932,-0.006186l-0.012373,-0.024746Z M1293.678629,500.457539l0.027839,-0.006186l0.027839,0.024746v0.034025l-0.030932,0.00928l-0.027839,-0.027839l0.003093,-0.034025Z M1293.700282,500.581267l0.030932,-0.015466l0.037118,0.012373l0.018559,0.027839l-0.030932,0.012373l-0.043305,-0.00928l-0.012373,-0.027839Z M1298.694253,494.045336l0.023199,-0.037118l0.129914,-0.037118l0.078877,0.00464l0.018559,0.064957l-0.013919,0.046398l-0.046398,0.00464l-0.074237,-0.027839l-0.074237,0.013919l-0.041758,-0.032479Z M1297.817331,493.910782l0.037118,-0.027839l0.046398,0.018559l0.018559,0.037118l-0.037118,0.013919l-0.046398,-0.00928l-0.018559,-0.032479Z M1292.871304,490.00871l-0.092796,-0.00928l-0.055678,-0.078877l-0.018559,-0.143834l-0.069597,-0.102076v-0.092796l0.148474,-0.139194l0.041758,-0.102076l0.092796,-0.037118l0.064957,0.00928l0.139194,-0.037118l0.060317,-0.088156l0.23663,-0.106715h0.111355l0.162393,-0.069597l0.524297,-0.00928l0.296947,0.088156l0.194872,0.157753l0.357265,0.074237l0.134554,0.092796l0.032479,0.055678l0.037118,-0.00464l-0.018559,-0.092796l-0.097436,-0.120635l0.00928,-0.046398l0.088156,-0.00928l0.046398,0.046398l0.037118,-0.013919l-0.00464,-0.083516l0.037118,-0.023199l0.032479,0.032479l0.018559,0.069597l0.250549,0.046398l0.176312,-0.027839l0.023199,0.041758l-0.102076,0.064957l-0.092796,0.018559l-0.023199,0.046398l0.060317,0.111355l0.00464,0.064957l0.037118,0.041758l0.097436,-0.00464l0.051038,0.027839v0.088156l-0.218071,0.060317l-0.301587,-0.013919l-0.102076,0.046398l-0.106715,0.083516l-0.273748,0.051038l-0.106715,0.032479l-0.083516,0.102076l-0.00928,0.143834l-0.055678,0.055678h-0.389743l-0.153113,-0.069597l-0.185592,-0.259829l-0.22735,-0.190232l-0.24127,-0.013919l-0.283028,0.027839l-0.115995,0.074237l-0.074237,0.097436l-0.102076,0.037118Z M1294.040534,490.347415l0.037118,-0.013919l0.055678,0.027839l0.027839,0.041758l-0.032479,0.023199l-0.055678,-0.023199l-0.032479,-0.055678Z M1288.751162,491.054211l0.185592,-0.266015l0.37737,-0.408302l0.142287,-0.030932l0.105169,0.012373l0.216524,-0.037118l0.247456,0.030932l0.185592,0.055678l0.142287,-0.037118l0.123728,-0.148474l0.272202,-0.185592l0.204151,-0.074237l0.266015,-0.024746l0.055678,0.018559l-0.030932,0.061864l-0.080423,0.049491l-0.043305,0.055678l-0.006186,0.08661l-0.247456,0.266015l-0.179406,0.08661l-0.408302,0.278388l-0.30932,0.061864l-0.290761,0.024746l-0.105169,0.061864l-0.123728,0.173219l-0.216524,0.080423l-0.191778,-0.012373l-0.247456,0.043305l-0.080423,-0.043305l0.037118,-0.179406Z M1291.550943,490.759826l0.030932,-0.049491l0.194872,-0.105169l0.074237,0.021652l0.027839,0.083516l-0.003093,0.136101l-0.074237,0.00928l-0.074237,-0.08661l-0.15466,0.018559l-0.021652,-0.027839Z M1291.591154,491.115544l0.024746,-0.018559l0.030932,0.012373l0.006525,0.018559l-0.022184,0.014789l-0.032044,-0.007395l-0.007975,-0.019767Z M1292.180844,491.243766l-0.002465,0.034509l-0.027114,0.044368l-0.022184,-0.002465v-0.039438l0.027114,-0.044368l0.024649,0.007395Z M1292.419938,491.27581l-0.002465,-0.034509l0.036973,-0.029579l0.027114,0.002465l0.002465,0.024649l-0.032044,0.034509l-0.032044,0.002465Z M1292.437193,490.669446l0.071482,-0.073947l0.034509,-0.059157l0.046833,-0.014789l0.022184,0.022184l-0.014789,0.071482l-0.093666,0.056693l-0.054228,0.017254l-0.012324,-0.019719Z M1291.941749,490.780366l0.019719,0.041903l0.00986,0.054228l-0.019719,0.00493l-0.022184,-0.029579l-0.007395,-0.066552l0.019719,-0.00493Z M1291.670611,490.583175l0.012324,-0.017254l0.027114,-0.002465l0.00986,0.017254l-0.00986,0.029579l-0.024649,0.002465l-0.014789,-0.029579Z M1292.013231,490.649727l-0.007395,-0.061622l0.024649,-0.024649l0.049298,0.012324l0.034509,0.101061l0.034509,0.029579l0.046833,-0.017254l0.027114,-0.041903l0.046833,-0.019719l0.019719,-0.044368l-0.019719,-0.022184l-0.017254,-0.066552l0.017254,-0.064087l-0.044368,-0.036973l-0.056693,0.017254l-0.024649,-0.024649l0.034509,-0.138034l0.069017,-0.061622l0.066552,0.022184l0.066552,0.108455l-0.024649,0.069017l0.027114,0.044368l0.039438,0.007395l0.029579,0.041903l-0.027114,0.098596l-0.044368,0.069017l-0.071482,0.056693l-0.083806,0.012324l-0.059157,0.039438l-0.012324,0.054228l0.041903,0.056693l0.051763,0.187332l-0.00493,0.076412l-0.039438,0.00493l-0.118315,-0.12571l-0.081341,-0.22677l0.00986,-0.133104Z M1293.5781,493.200892l0.024746,0.030932l-0.027839,0.024746l-0.024746,-0.012373v-0.027839l0.027839,-0.015466Z M1293.652337,493.086444l0.037118,-0.021652l0.030932,0.012373l0.003093,0.021652l-0.027839,0.00928l-0.030932,0.003093l-0.012373,-0.024746Z M1292.050059,492.054861l0.037118,-0.013919l0.041758,0.00464l0.018559,0.032479l-0.032479,0.018559l-0.051038,-0.00928l-0.013919,-0.032479Z M1292.3501,492.331703l0.043305,-0.018559l0.058771,0.052584h0.052584l0.061864,-0.071144l0.058771,0.006186l0.160846,0.139194l0.049491,0.089703l0.034025,0.043305l-0.018559,0.030932l-0.185592,-0.074237l-0.083516,0.015466l-0.043305,0.095889l0.015466,0.089703l0.064957,0.092796l-0.012373,0.040212l-0.043305,0.018559l-0.024746,0.049491l0.027839,0.061864l0.064957,0.040212l0.003093,0.064957l-0.055678,0.018559l-0.111355,-0.030932l-0.027839,-0.064957l0.061864,-0.040212l-0.012373,-0.030932l-0.040212,-0.006186l-0.040212,0.012373l-0.043305,0.021652l-0.043305,-0.012373l-0.003093,-0.061864l0.037118,-0.040212v-0.179406l0.030932,-0.043305l-0.003093,-0.170126l-0.043305,-0.074237l0.00928,-0.064957Z M1293.913664,493.637033l0.024649,0.00493l-0.007395,0.039438l-0.032044,0.014789l-0.022184,-0.017254l0.012324,-0.029579l0.024649,-0.012324Z M1300.403246,500.819444l-0.006186,-0.030932l0.046398,-0.071144h0.032479l0.00928,0.037118l-0.046398,0.060317l-0.035572,0.00464Z M1296.058847,495.56719l0.018559,0.069597l-0.018559,0.037118l-0.041758,-0.00464l-0.00928,-0.055678l0.00928,-0.051038l0.041758,0.00464Z M1297.594621,492.648756l0.032479,-0.027839h0.032479l0.023199,0.032479l-0.027839,0.032479l-0.046398,-0.00464l-0.013919,-0.032479Z M1279.091098,492.899305l0.018559,-0.037118h0.037118l0.018559,0.032479l-0.023779,0.019429h-0.029579l-0.020879,-0.014789Z M1279.526079,493.266574l0.014789,-0.034509l0.059157,-0.014789l0.078877,0.036973l-0.007395,0.024649l-0.073947,0.00493l-0.071482,-0.017254Z M1278.394693,494.18598l0.076412,-0.034509l0.017254,-0.059157l-0.039438,-0.081341l0.061622,-0.12571l0.140499,-0.162683l0.11092,-0.039438l0.064087,-0.061622l0.165148,-0.007395l0.172543,0.088736l0.019719,0.10599l-0.059157,0.096131l0.00493,0.041903l0.061622,0.046833l0.00986,0.150359l-0.044368,0.017254l-0.064087,-0.059157l-0.041903,0.019719v0.150359l-0.059157,0.059157l-0.098596,-0.019719l-0.014789,-0.066552l-0.22677,-0.069017l-0.140499,0.056693l-0.101061,0.00493l-0.014789,-0.051763Z M1278.218815,491.810499l0.269108,-0.210338l0.092796,-0.018559l0.027839,0.027839l-0.055678,0.092796v0.167033l0.089703,0.083516l0.07733,0.003093l0.08661,0.058771l0.07733,0.167033l-0.030932,0.049491l-0.089703,-0.003093l-0.052584,0.046398l-0.024746,0.16394l-0.327879,0.39593l-0.185592,0.08661l-0.064957,-0.015466l-0.006186,-0.080423l0.098982,-0.262922l0.089703,-0.07733l0.024746,-0.064957l-0.043305,-0.102076l0.030932,-0.08661l0.00928,-0.117542l-0.043305,-0.037118l-0.129914,0.018559l-0.034025,-0.055678l0.037118,-0.095889l0.07733,-0.133008Z M1276.585606,489.419455h0.046398l0.032479,0.088156l-0.00464,0.134554l-0.106715,0.106715l-0.111355,0.352625l-0.069597,0.125275l-0.032479,-0.018559l0.013919,-0.199511l0.167033,-0.505738l0.064957,-0.083516Z M1275.233877,490.23606l0.046398,-0.055678h0.125275l0.041758,0.041758l-0.013919,0.037118l-0.083516,0.018559l-0.074237,-0.00928l-0.041758,-0.032479Z M1274.969409,489.795279l0.018559,-0.046398l0.046398,-0.013919l0.037118,0.013919l-0.00464,0.037118l-0.060317,0.023199l-0.037118,-0.013919Z M1274.046088,489.331299l0.013919,-0.051038l0.051038,-0.018559l0.041758,0.023199l-0.00464,0.046398l-0.051038,0.032479l-0.051038,-0.032479Z M1270.77039,488.910624l0.030932,-0.021652l0.061864,0.006186l0.00928,0.027839l-0.030932,0.021652l-0.043305,0.003093l-0.027839,-0.037118Z M1270.652848,488.99414l0.027839,-0.015466l0.064957,0.003093l0.021652,0.021652l-0.006186,0.030932h-0.046398l-0.046398,-0.015466l-0.015466,-0.024746Z M1271.22509,489.08075l0.018559,-0.024746h0.040212l0.034025,0.021652l-0.021652,0.021652l-0.043305,0.003093l-0.027839,-0.021652Z M1270.832254,489.779813l0.030932,0.012373l-0.018559,0.043305l-0.052584,0.027839l-0.027839,-0.015466l0.006186,-0.040212l0.061864,-0.027839Z M1271.240556,490.021082l0.006186,-0.111355l0.08661,-0.14538l0.142287,-0.021652l0.055678,0.034025l0.012373,0.095889l-0.021652,0.034025l-0.080423,0.037118l-0.058771,0.058771l-0.021652,0.049491l-0.071144,0.003093l-0.049491,-0.034025Z M1271.890128,489.946846l0.037118,-0.055678l0.058771,-0.015466l0.015466,0.027839l-0.037118,0.049491l-0.046398,0.015466l-0.027839,-0.021652Z M1271.129201,490.002523l0.015466,-0.027839l0.024746,-0.006186l0.024746,0.012373v0.021652l-0.012373,0.021652h-0.034025l-0.018559,-0.021652Z M1271.586994,489.677737l0.015466,-0.030932l0.034025,-0.012373l0.024746,0.012373l-0.018559,0.030932l-0.030932,0.012373l-0.024746,-0.012373Z M1275.040754,491.458664l0.012171,-0.020896l0.134554,0.046398l0.078877,0.069597l0.023199,0.074237l-0.032479,0.027839l-0.083516,-0.041758l-0.060317,-0.097436l-0.072488,-0.057981Z M1271.84373,489.408629l0.061864,-0.061864l0.445421,-0.043305l0.414489,0.018559l0.012373,0.06805l-0.043305,0.08661l-0.080423,0.043305l-0.098982,0.185592l-0.006186,0.148474l-0.080423,0.092796l-0.123728,0.074237l-0.15466,-0.006186l-0.080423,-0.074237l-0.006186,-0.074237l0.043305,-0.037118l-0.006186,-0.080423l-0.179406,-0.111355l-0.117542,-0.228897Z M1271.845277,487.712009l0.023199,-0.032479l0.199511,0.041758l0.097436,-0.00928l0.018559,-0.046398l0.00464,-0.083516l0.097436,-0.032479l0.296947,0.051038l0.046398,0.064957l-0.018559,0.129914l0.064957,0.106715l0.088156,0.064957l-0.013919,0.037118l-0.064957,0.00464l-0.041758,0.064957l0.00464,0.051038l-0.069597,0.097436l-0.051038,0.023199l-0.046398,0.041758l-0.00464,0.051038l-0.046398,0.023199l-0.088156,-0.023199l-0.064957,0.037118l-0.055678,0.074237l-0.120635,0.064957l-0.078877,-0.00464l-0.255189,-0.111355l-0.032479,-0.167033l0.041758,-0.106715l0.074237,-0.027839l0.139194,0.023199l0.167033,-0.013919l0.134554,-0.134554l-0.032479,-0.037118l-0.190232,0.00928l-0.194872,-0.023199l-0.00928,-0.037118l0.055678,-0.046398l-0.013919,-0.074237l-0.060317,-0.051038Z M1272.870672,488.046074l0.041758,-0.032479l0.046398,-0.00928l0.032479,0.018559l-0.027839,0.037118l-0.060317,0.00928l-0.032479,-0.023199Z M1268.489154,491.358891l0.046398,-0.023199l0.069597,0.018559l0.046398,0.055678l-0.032479,0.032479l-0.092796,-0.023199l-0.037118,-0.060317Z M1268.846419,491.85999l0.027839,-0.051038l0.097436,-0.00928l0.055678,0.027839l-0.00464,0.037118l-0.115995,0.023199l-0.060317,-0.027839Z M1270.952888,492.597718l0.023199,-0.046398l0.259829,-0.013919l0.064957,0.037118l0.037118,-0.018559l0.018559,-0.046398l0.051038,-0.00464l0.055678,0.055678l-0.032479,0.069597l-0.139194,0.064957l-0.190232,0.013919l-0.115995,-0.055678l-0.032479,-0.055678Z M1271.509664,492.880746l0.00928,-0.037118l0.115995,-0.102076l0.315506,-0.134554l0.120635,-0.092796l0.352625,-0.157753l0.194872,0.00928l0.125275,-0.032479l0.115995,0.041758l-0.013919,0.041758h-0.097436l-0.134554,0.064957l-0.032479,0.046398l-0.060317,0.00464l-0.083516,-0.018559l-0.046398,0.032479l0.032479,0.069597l-0.069597,0.097436l-0.24127,0.023199l-0.125275,0.046398l-0.064957,0.051038l-0.167033,0.055678l-0.194872,0.00464l-0.051038,-0.013919Z M1270.123911,493.439069l0.006186,-0.043305l0.034025,-0.024746l0.074237,0.034025l0.030932,0.06805l-0.027839,0.021652l-0.055678,-0.00928l-0.061864,-0.046398Z M1270.928143,493.148308l-0.021652,-0.055678l0.021652,-0.030932h0.037118l0.018559,0.049491l-0.018559,0.030932l-0.037118,0.006186Z M1271.488012,492.990554l0.003093,-0.027839l0.034025,-0.012373l0.024746,0.012373l-0.00928,0.027839l-0.027839,0.00928l-0.024746,-0.00928Z M1271.992204,493.216358l0.00928,-0.024746l0.052584,0.003093l0.00928,0.021652l-0.015466,0.021652h-0.034025l-0.021652,-0.021652Z M1269.681583,493.058605l0.024746,-0.043305l0.151567,-0.012373l0.275295,0.074237l0.064957,0.136101l-0.018559,0.08661l-0.098982,0.037118l-0.176312,-0.00928l-0.133008,-0.120635l-0.021652,-0.102076l-0.06805,-0.046398Z M1284.451613,491.873909l-0.006186,-0.204151l-0.105169,-0.105169l0.018559,-0.092796l0.179406,-0.074237l0.105169,0.018559l0.024746,0.055678l0.006186,0.08661l0.074237,0.092796l0.055678,-0.024746l-0.018559,-0.160846l0.055678,-0.055678l0.111355,0.006186l0.074237,0.098982l0.148474,0.06805l0.08661,-0.012373l0.061864,0.037118l-0.012373,0.136101l-0.055678,0.055678h-0.123728l-0.160846,0.092796l-0.018559,0.080423l-0.043305,0.012373l-0.111355,-0.006186l-0.160846,0.074237l-0.15466,0.012373l-0.160846,-0.049491l-0.061864,-0.111355l0.030932,-0.074237l0.049491,-0.006186l0.055678,0.06805l0.055678,-0.018559Z M1283.585517,491.9234l0.049491,-0.037118h0.117542l0.117542,0.08661l-0.012373,0.080423l-0.055678,0.043305l-0.117542,-0.024746l-0.098982,-0.148474Z M1283.771109,492.226534l0.129914,-0.055678l0.061864,0.018559l-0.043305,0.111355l-0.15466,0.061864l-0.049491,-0.043305l0.055678,-0.092796Z M1284.086616,492.059501l0.037118,0.043305l-0.012373,0.148474l-0.061864,0.074237l-0.030932,-0.043305l0.012373,-0.185592l0.055678,-0.037118Z M1285.497115,491.669758l0.018559,0.061864l-0.006186,0.080423h-0.043305l-0.018559,-0.061864l0.006186,-0.06805l0.043305,-0.012373Z M1285.954909,492.053315l0.043305,-0.043305h0.06805l0.030932,0.043305l-0.043305,0.030932l-0.055678,0.006186l-0.043305,-0.037118Z M1282.079129,491.929587l0.023199,-0.037118h0.037118l0.037118,0.041758l-0.013919,0.032479l-0.046398,-0.00928l-0.037118,-0.027839Z M1281.35996,491.999184l0.069597,-0.106715l0.143834,-0.074237l0.037118,-0.347985l-0.013919,-0.064957l-0.064957,-0.023199l-0.023199,-0.069597l0.046398,-0.023199l0.273748,0.078877l0.120635,0.125275l0.00464,0.278388l-0.069597,0.083516l0.00928,0.046398l0.083516,0.027839l0.115995,0.180952l-0.032479,0.069597l-0.129914,0.088156l-0.385103,0.120635l-0.064957,-0.013919l0.023199,-0.157753l-0.037118,-0.041758l-0.083516,0.013919l-0.055678,-0.041758l0.032479,-0.148474Z M1280.260327,490.528367l0.120635,-0.125275l0.120635,-0.023199l0.074237,0.032479v0.194872l-0.027839,0.051038h-0.204151l-0.320146,-0.051038v-0.051038l0.23663,-0.027839Z M1282.111608,490.069027l0.102076,-0.027839l0.357265,0.00928l0.074237,0.051038l0.00464,0.097436l0.167033,0.074237l0.171673,-0.046398l0.167033,0.032479l0.064957,0.083516l0.041758,0.013919l0.074237,-0.037118l0.278388,0.027839l0.199511,0.129914l0.125275,0.032479l0.037118,0.055678l-0.027839,0.180952l-0.115995,0.176312l-0.023199,0.088156l0.013919,0.055678l-0.037118,0.060317l-0.22271,0.041758l-0.208791,-0.051038l-0.097436,-0.069597l-0.018559,-0.051038l-0.051038,-0.023199l-0.069597,0.018559l-0.074237,-0.032479l-0.032479,-0.102076l-0.134554,-0.106715l-0.148474,-0.069597l-0.46862,-0.357265l-0.171673,-0.194872l0.023199,-0.060317Z M1277.657399,490.180382l0.092796,-0.037118l0.153113,-0.153113l0.167033,-0.023199l0.250549,0.106715l0.078877,0.153113l-0.111355,0.292307l-0.204151,0.264469l-0.208791,0.171673l-0.134554,0.157753l-0.129914,0.088156l-0.083516,-0.018559l-0.018559,-0.088156l0.00928,-0.287668l-0.051038,-0.074237l0.00464,-0.199511l0.185592,-0.352625Z M1279.0447,488.004316l0.032479,-0.023199l0.041758,0.018559l0.027839,0.051038l-0.032479,0.027839l-0.051038,-0.032479l-0.018559,-0.041758Z M1280.66399,488.691006l0.00928,0.041758l-0.00928,0.046398l-0.032479,-0.00464l-0.013919,-0.037118l0.00928,-0.041758l0.037118,-0.00464Z M1280.469118,488.551812l-0.074237,-0.041758l-0.046398,-0.176312l-0.074237,-0.074237l-0.060317,-0.264469l0.060317,-0.162393l0.357265,-0.204151l0.23199,-0.051038l0.046398,0.037118l-0.00928,0.092796l0.046398,0.078877l0.185592,0.032479l0.046398,0.069597l-0.041758,0.115995l0.027839,0.092796l0.115995,0.120635l0.269108,0.102076l0.310867,-0.027839l0.129914,0.055678l0.041758,0.088156l-0.060317,0.171673l-0.060317,0.097436l0.00928,0.083516l0.102076,0.074237l0.106715,0.055678l0.00928,0.083516l-0.143834,0.259829l0.00928,0.041758l0.115995,-0.00464l0.125275,0.013919l0.037118,0.041758l-0.088156,0.23663l-0.115995,0.176312l-0.069597,0.037118l-0.00928,0.055678l0.046398,0.102076l-0.041758,0.023199l-0.199511,-0.129914l-0.106715,-0.125275l-0.115995,-0.310867l-0.055678,-0.055678l-0.083516,-0.018559l-0.143834,-0.111355l-0.00928,-0.074237l-0.046398,-0.037118h-0.037118l-0.046398,-0.032479l-0.00928,-0.083516l-0.088156,-0.064957l-0.078877,0.013919l-0.037118,-0.027839l0.00928,-0.115995l-0.134554,-0.208791l-0.157753,-0.106715l-0.102076,-0.00928l-0.092796,0.064957Z M1290.229711,483.540828l0.043305,0.07733l0.287668,0.089703l0.049491,-0.012373l0.006186,-0.034025l0.034025,-0.030932l0.003093,-0.037118l-0.281481,-0.14538l-0.216524,-0.037118l-0.030932,0.030932l0.105169,0.098982Z M1290.727716,483.729513l0.064957,0.037118l0.024746,-0.012373l-0.012373,-0.07733l-0.06805,-0.064957l-0.034025,0.018559l0.024746,0.098982Z M1290.758648,483.800657l-0.018559,0.021652l0.024746,0.021652l0.034025,-0.006186l0.003093,-0.027839l-0.043305,-0.00928Z M1287.79227,483.327397l0.08661,-0.098982l0.111355,-0.123728l0.185592,-0.037118l0.22271,0.006186l0.383557,-0.105169l0.259829,0.006186l0.278388,0.117542l0.136101,0.185592l0.179406,0.049491l0.074237,-0.006186l0.024746,-0.061864l0.074237,-0.006186l0.117542,0.129914v0.080423l-0.037118,0.092796l0.012373,0.148474l-0.129914,0.117542l-0.012373,0.098982l0.092796,0.098982l0.024746,0.111355l-0.074237,0.123728l-0.006186,0.197965l0.037118,0.501098l0.08661,0.117542l-0.012373,0.129914l-0.296947,0.22271l-0.043305,0.123728l0.018559,0.117542l0.037118,0.098982l-0.049491,0.123728l-0.111355,0.08661l-0.272202,0.037118l-0.105169,0.111355l-0.055678,0.136101v0.111355l-0.06805,0.018559l-0.334066,-0.160846l-0.055678,-0.129914l-0.055678,-0.030932h-0.08661l-0.111355,-0.074237v-0.098982l-0.061864,-0.024746l-0.061864,0.018559l-0.049491,-0.030932l0.006186,-0.098982l-0.055678,-0.043305l-0.074237,0.006186l-0.024746,-0.06805l0.06805,-0.179406l0.15466,-0.06805l0.080423,-0.08661l0.185592,-0.024746l0.06805,0.030932l0.055678,-0.012373l0.074237,-0.098982l0.024746,-0.129914l0.06805,-0.080423l0.061864,-0.030932l0.018559,-0.142287l-0.043305,-0.204151l-0.191778,-0.160846l-0.030932,-0.105169l0.006186,-0.136101l-0.129914,-0.197965l-0.160846,-0.08661l-0.15466,-0.006186l-0.191778,-0.148474l-0.111355,-0.253642l-0.06805,-0.074237l0.012373,-0.129914Z M1285.818808,483.049009l0.061864,-0.061864l0.105169,-0.012373l0.105169,-0.049491l0.148474,0.018559l0.136101,0.123728l0.006186,0.129914l-0.06805,0.092796l0.006186,0.167033l-0.123728,0.030932l-0.179406,-0.08661l-0.024746,-0.105169l0.018559,-0.061864l-0.092796,-0.111355l-0.074237,-0.018559l-0.024746,-0.055678Z M1285.577538,483.463498l0.055678,-0.117542l0.080423,-0.012373l0.049491,0.043305l-0.012373,0.111355l-0.105169,0.024746l-0.06805,-0.049491Z M1291.79951,477.433305l0.00928,0.046398l-0.023199,0.032479l-0.037118,-0.00464l-0.00464,-0.041758l0.018559,-0.037118l0.037118,0.00464Z M1287.795363,478.180313l0.037118,0.00464v0.051038l-0.018559,0.037118l-0.037118,-0.00464l-0.00464,-0.051038l0.023199,-0.037118Z M1288.004154,478.607174l-0.190232,-0.125275l0.00928,-0.051038l0.060317,-0.013919l0.041758,-0.24127l-0.046398,-0.064957l0.055678,-0.199511l0.296947,-0.273748l0.097436,-0.00464l0.051038,0.051038l0.213431,0.037118l0.361904,-0.023199l0.505738,-0.213431l0.111355,-0.023199l0.102076,0.032479l0.287668,-0.111355l0.074237,-0.069597l-0.041758,-0.134554l-0.00928,-0.153113l0.106715,-0.069597h0.185592l0.083516,-0.051038h0.148474l0.134554,0.046398l0.334066,0.018559l0.097436,-0.018559l0.027839,-0.055678h0.055678l0.092796,0.064957l-0.032479,0.153113l0.074237,0.092796l0.074237,0.018559l0.190232,-0.00928l0.111355,0.051038l-0.00928,0.055678l-0.051038,0.037118l0.00464,0.069597l-0.171673,0.199511l-0.046398,0.088156l0.00928,0.064957l0.296947,0.139194l0.283028,0.194872l0.120635,0.143834l0.092796,0.213431l0.083516,0.055678l0.143834,0.032479l0.00928,0.046398l-0.041758,0.041758l0.00928,0.088156l0.041758,0.051038l0.051038,0.018559l0.023199,0.032479l0.00464,0.051038l0.097436,0.157753l0.018559,0.092796l0.269108,0.292307l0.055678,0.171673l-0.032479,0.167033l-0.120635,0.037118l-0.269108,-0.051038l-0.111355,-0.064957l-0.162393,-0.213431l0.013919,-0.064957l0.083516,-0.060317l-0.013919,-0.139194l-0.218071,-0.218071l-0.143834,-0.018559l-0.115995,0.037118l-0.055678,0.125275l0.051038,0.106715l0.208791,0.139194l0.310867,0.343345l0.060317,0.157753l-0.00928,0.111355l-0.092796,0.064957l-0.292307,0.00464l-0.357265,0.083516l-0.603174,-0.097436l-0.171673,-0.074237l-0.083516,-0.088156l-0.426862,-0.148474l-0.264469,-0.013919l-0.120635,0.051038l-0.083516,-0.027839l-0.190232,-0.190232l-0.032479,-0.092796l-0.120635,-0.134554l-0.134554,-0.018559l-0.00464,-0.051038l0.111355,-0.092796l0.106715,-0.023199l0.106715,0.018559l0.190232,-0.060317l0.064957,-0.143834l0.134554,-0.083516l0.334066,-0.092796l0.060317,-0.078877l0.190232,-0.060317l0.055678,-0.120635l-0.041758,-0.106715l-0.176312,-0.120635l-0.134554,-0.00928l-0.069597,0.018559l-0.069597,0.00464l-0.088156,-0.018559l-0.102076,0.00464l-0.115995,0.069597l-0.088156,0.139194v0.078877l-0.032479,0.060317l-0.083516,0.055678l-0.129914,0.171673l-0.027839,0.111355l-0.027839,0.037118l-0.088156,-0.00928l-0.074237,0.074237l-0.00464,0.060317l-0.060317,0.041758l-0.524297,-0.143834l-0.157753,0.018559l-0.129914,-0.032479l-0.074237,-0.088156l-0.023199,-0.060317l-0.157753,-0.088156l-0.143834,-0.027839l-0.125275,-0.064957l-0.060317,-0.097436Z M1280.274247,465.584802l0.032479,-0.027839l0.074237,0.00928l0.037118,0.032479l-0.013919,0.032479h-0.083516l-0.046398,-0.046398Z M1279.230292,467.236571l-0.111355,-0.078877l-0.064957,-0.157753l0.00928,-0.162393l0.157753,-0.422222l0.115995,-0.106715l0.046398,-0.139194l0.046398,-0.032479l0.078877,-0.00928l0.139194,-0.129914l0.255189,-0.157753h0.078877l0.162393,0.139194l0.167033,0.032479l0.097436,-0.032479l0.074237,0.041758l0.055678,0.120635l0.153113,0.106715h0.074237l0.078877,0.055678l-0.013919,0.032479l-0.078877,0.00928l-0.060317,0.074237v0.078877l0.120635,0.069597l0.023199,0.134554l-0.074237,0.092796l-0.013919,0.185592l0.074237,0.194872l-0.013919,0.115995l-0.041758,0.00928l-0.055678,-0.032479l-0.074237,0.013919l-0.069597,0.078877l-0.394383,0.115995l-0.074237,0.083516l-0.125275,0.018559l-0.204151,-0.078877l-0.102076,-0.106715l-0.00928,-0.083516l-0.106715,-0.060317l-0.167033,-0.037118l-0.153113,0.023199Z M1277.945067,481.165251l-0.00464,-0.060317l0.023199,-0.051038l0.060317,-0.00464l0.078877,0.032479l0.00464,0.055678l-0.097436,0.041758l-0.064957,-0.013919Z M1278.501843,481.211649l-0.018559,-0.041758l0.027839,-0.037118h0.032479l0.013919,0.037118l-0.018559,0.041758h-0.037118Z M1278.859108,481.364762v-0.064957l0.088156,-0.171673l0.051038,-0.013919l0.00928,0.032479l-0.083516,0.129914v0.074237l-0.032479,0.032479l-0.032479,-0.018559Z M1279.174614,481.490037l-0.00464,-0.041758l0.194872,-0.092796l0.060317,-0.218071l-0.055678,-0.041758l-0.069597,0.00464l-0.064957,-0.013919l-0.00928,-0.055678l-0.055678,-0.013919l-0.092796,0.013919l-0.046398,-0.013919v-0.041758l-0.055678,-0.027839l-0.069597,0.00464l-0.22735,-0.143834l-0.088156,0.00928l-0.064957,-0.051038l0.074237,-0.180952l0.143834,-0.074237l0.00464,-0.097436l-0.092796,-0.157753l0.055678,-0.185592l0.106715,-0.032479l0.250549,0.115995l0.338705,0.199511l0.060317,0.102076l-0.041758,0.129914l0.032479,0.199511l0.088156,0.078877l0.23199,0.129914l0.278388,0.22271l0.115995,0.167033l-0.027839,0.185592l-0.111355,0.078877l-0.083516,-0.00464l-0.060317,-0.051038l-0.064957,0.023199l-0.027839,0.102076l0.018559,0.060317l-0.037118,0.027839l-0.139194,-0.027839l-0.055678,-0.060317l0.00928,-0.060317l0.064957,-0.055678l-0.018559,-0.083516l-0.092796,-0.051038l-0.083516,0.023199l-0.046398,0.069597l0.023199,0.074237l-0.037118,0.041758l-0.088156,-0.046398l-0.023199,-0.097436l-0.055678,-0.027839l-0.060317,-0.013919Z M1276.823782,476.011979l0.00928,-0.064957l0.032479,-0.023199l0.037118,0.00464v0.055678l-0.032479,0.041758l-0.046398,-0.013919Z M1277.825979,477.009536l0.041758,0.032479v0.129914l-0.074237,0.106715l-0.046398,-0.00464l-0.013919,-0.051038l0.051038,-0.078877l-0.00464,-0.111355l0.046398,-0.023199Z M1276.670669,476.884262l0.037118,-0.074237l0.00928,-0.111355l0.092796,-0.153113l0.041758,0.00464l0.018559,0.23199l-0.051038,0.143834l-0.125275,0.088156l-0.088156,-0.023199l0.00928,-0.060317l0.055678,-0.046398Z M1276.508276,477.176569l0.032479,-0.027839l0.060317,0.023199l0.027839,0.060317l-0.037118,0.027839l-0.064957,-0.032479l-0.018559,-0.051038Z M1274.596678,478.619547l0.115995,-0.074237l0.088156,-0.032479l0.032479,-0.051038v-0.208791l0.088156,-0.115995l0.139194,-0.097436l0.060317,-0.083516l0.013919,-0.111355l0.120635,-0.185592l0.088156,-0.055678l0.046398,0.018559l-0.023199,0.060317l0.018559,0.051038l0.143834,0.027839l0.023199,0.074237l-0.092796,0.111355l-0.24127,0.315506l-0.041758,0.120635l-0.139194,0.180952l-0.139194,0.069597l-0.153113,0.190232l-0.083516,0.00464l-0.115995,-0.092796l0.00464,-0.060317l0.046398,-0.055678Z M1275.283368,478.489633l0.027839,-0.051038l0.115995,-0.078877l0.046398,0.00928l0.032479,-0.041758l-0.074237,-0.139194l0.027839,-0.148474l0.041758,-0.018559l0.032479,0.060317l-0.013919,0.106715l0.037118,0.027839l0.041758,-0.023199l0.037118,0.013919l-0.027839,0.102076l-0.041758,0.060317l-0.018559,0.134554l0.018559,0.032479l-0.027839,0.032479l-0.148474,0.00928l-0.074237,-0.037118l-0.032479,-0.051038Z M1275.617434,478.062771l0.027839,-0.032479l0.041758,0.00464l0.018559,0.064957l-0.032479,0.018559l-0.051038,-0.018559l-0.00464,-0.037118Z M1275.48752,479.00929l0.023199,-0.069597l0.037118,-0.00464l0.013919,0.037118l-0.013919,0.051038l-0.037118,0.023199l-0.023199,-0.037118Z M1275.580316,478.902575l-0.032479,-0.023199l0.017013,-0.037118l0.027839,-0.012373l0.024746,0.00928l-0.003093,0.040212l-0.034025,0.023199Z M1276.4062,479.049502l0.043305,0.00928l0.012373,0.07733l-0.027839,0.080423l0.003093,0.046398l0.040212,0.037118l-0.006186,0.064957l-0.098982,0.061864l-0.037118,0.003093l0.003093,-0.034025l0.055678,-0.046398v-0.037118l-0.049491,-0.055678l-0.003093,-0.142287l0.064957,-0.064957Z M1274.346129,478.754101l0.032479,0.00464l0.00464,0.041758l-0.037118,0.041758l-0.032479,-0.018559v-0.037118l0.032479,-0.032479Z M1272.46237,478.712343v-0.051038l0.032479,-0.027839l0.032479,0.027839v0.041758l-0.032479,0.032479l-0.032479,-0.023199Z M1272.332456,478.948973l-0.00928,-0.060317l0.023199,-0.041758l0.032479,-0.00464l0.023199,0.051038v0.046398l-0.032479,0.027839l-0.037118,-0.018559Z M1271.256022,479.515028l0.00464,-0.041758l0.032479,-0.021652l0.024746,0.006186l-0.003093,0.027839l-0.027839,0.034025l-0.030932,-0.00464Z M1273.23567,478.959799v-0.034025l0.024746,-0.00928l0.024746,0.015466l0.003093,0.021652l-0.024746,0.021652l-0.027839,-0.015466Z M1271.673604,478.764927l-0.034025,-0.012373l-0.015466,-0.102076l0.071144,-0.098982l0.253642,-0.071144l0.040212,-0.061864l-0.003093,-0.06805l0.111355,-0.108262l0.098982,0.006186l0.23199,0.142287l0.024746,0.098982l-0.034025,0.102076l-0.06805,0.030932l-0.129914,0.027839l-0.089703,0.052584l-0.015466,0.080423l0.021652,0.040212l-0.00928,0.024746h-0.052584l-0.061864,-0.030932l-0.00928,-0.046398l-0.055678,-0.003093l-0.034025,0.021652l-0.095889,-0.015466l-0.040212,-0.046398l-0.040212,-0.006186l-0.064957,0.043305Z M1272.948002,478.316413v-0.040212l0.083516,-0.058771l0.071144,0.021652l0.021652,0.071144l0.046398,0.027839l0.037118,0.003093l0.043305,0.037118l0.024746,0.080423l0.216524,0.136101l0.3186,0.129914l0.055678,0.061864l-0.00928,0.08661l0.061864,0.043305l0.046398,-0.015466l0.012373,-0.037118l0.098982,-0.027839l0.14538,0.006186l0.049491,0.024746l0.00928,0.055678l-0.111355,0.194872l-0.08661,0.064957l-0.074237,0.012373l-0.040212,0.027839l-0.037118,0.046398l-0.06805,0.034025l-0.07733,-0.012373l-0.030932,-0.043305l-0.006186,-0.040212l-0.080423,-0.030932l-0.201058,0.021652l-0.052584,-0.030932l-0.018559,-0.102076l0.006186,-0.061864l-0.043305,-0.133008l-0.058771,-0.092796l-0.07733,-0.034025l-0.043305,-0.046398l-0.003093,-0.089703l-0.043305,-0.043305l-0.043305,-0.00928l-0.046398,-0.055678l-0.003093,-0.080423l-0.040212,-0.055678l-0.052584,-0.046398Z M1275.9515,477.159557l0.129914,-0.15466h0.06805l0.136101,0.129914l0.012373,0.15466l-0.012373,0.210338l-0.098982,0.092796l-0.117542,-0.018559l-0.06805,-0.092796l0.043305,-0.061864l-0.012373,-0.043305h-0.06805l-0.037118,-0.049491l0.024746,-0.167033Z M1273.742955,471.641288l0.037118,-0.043305l0.08661,-0.006186l0.024746,0.049491l-0.043305,0.024746h-0.061864l-0.043305,-0.024746Z M1274.15435,470.419474l-0.00464,-0.069597l0.055678,-0.018559l0.051038,0.032479l0.024746,0.126821l-0.055678,0.024746l-0.071144,-0.095889Z M1274.899812,469.531725l0.006186,-0.06805l0.136101,-0.037118l0.080423,0.030932l0.012373,0.098982l0.142287,0.074237v0.049491l-0.142287,-0.018559l-0.080423,-0.080423l-0.15466,-0.049491Z M1267.788545,481.202369l0.032479,-0.027839l0.041758,0.023199l0.00928,0.032479l-0.037118,0.00928l-0.037118,-0.00464l-0.00928,-0.032479Z M1277.18878,487.67489l0.055678,-0.180952l0.074237,-0.069597h0.064957l0.102076,0.041758l0.041758,0.074237l-0.023199,0.125275l-0.055678,0.046398l-0.194872,0.018559l-0.064957,-0.055678Z M1277.555324,487.466099l-0.041758,-0.092796l0.013919,-0.064957l0.046398,-0.013919l0.041758,0.037118l0.00928,0.088156l-0.027839,0.051038l-0.041758,-0.00464Z M1276.330417,485.907126l-0.027839,-0.041758l-0.00464,-0.078877l0.032479,-0.027839l0.037118,0.00464l0.023199,0.060317l-0.018559,0.078877l-0.041758,0.00464Z M1276.673762,486.213353l0.037118,-0.041758l0.069597,0.00464l0.013919,0.037118l-0.027839,0.046398l0.00464,0.055678l-0.037118,0.018559l-0.046398,-0.055678l-0.013919,-0.064957Z M1274.725046,484.491987l-0.204151,-0.018559l-0.162393,0.083516l-0.176312,-0.00464l-0.180952,-0.097436l-0.23199,-0.064957l-0.23199,0.027839l-0.069597,0.051038l-0.083516,0.00928l-0.069597,-0.032479v-0.064957l-0.129914,-0.213431l-0.055678,-0.037118h-0.074237l-0.037118,-0.037118l-0.00464,-0.134554l0.046398,-0.060317l0.083516,-0.013919l0.060317,-0.143834l0.037118,-0.139194l-0.00464,-0.153113l-0.129914,-0.194872l-0.148474,-0.115995l-0.125275,-0.00928l-0.115995,-0.051038l-0.167033,0.00464l-0.125275,-0.064957l-0.088156,-0.310867l-0.060317,-0.074237l-0.148474,-0.060317l-0.102076,-0.083516l-0.051038,-0.148474l-0.185592,-0.125275l-0.153113,-0.046398l-0.292307,-0.204151l-0.143834,-0.269108l-0.162393,-0.083516l-0.167033,-0.037118l-0.23199,-0.171673l-0.190232,-0.24127l-0.347985,-0.134554l-0.167033,-0.013919l-0.208791,0.046398l-0.171673,-0.013919l-0.194872,-0.129914l-0.162393,-0.120635l-0.301587,-0.083516l-0.083516,-0.00464l-0.064957,0.060317l0.051038,0.041758l0.190232,0.046398l0.032479,0.088156l-0.060317,0.092796l-0.157753,0.088156l-0.218071,-0.027839l-0.361904,0.013919l-0.208791,0.060317l-0.051038,-0.023199l0.018559,-0.125275l0.078877,-0.111355l0.23199,-0.111355l0.125275,0.00464l0.069597,-0.041758l0.092796,-0.078877l0.491819,-0.148474l0.092796,-0.055678l0.426862,-0.162393l0.078877,-0.092796l0.00928,-0.143834l0.037118,-0.097436l0.148474,-0.139194l0.218071,-0.055678l0.24127,0.023199l0.102076,-0.00928l0.051038,-0.055678l0.120635,-0.051038l0.190232,-0.027839l0.083516,-0.097436l0.139194,-0.032479l0.185592,0.032479l0.032479,0.078877l0.106715,0.102076l0.171673,0.041758l0.051038,0.069597l-0.032479,0.088156l0.032479,0.111355l0.106715,0.097436l0.218071,0.051038l0.069597,0.060317l-0.051038,0.180952l-0.00464,0.153113l0.102076,0.139194l0.060317,0.259829l0.097436,0.097436l0.083516,0.027839l0.24127,0.111355l0.032479,0.064957l0.111355,0.083516h0.064957l0.157753,0.111355h0.064957l0.051038,0.037118l-0.018559,0.092796l0.060317,0.027839l0.134554,0.013919l0.115995,0.069597h0.283028l0.088156,-0.013919l0.037118,-0.055678l0.055678,-0.013919l0.106715,0.069597l0.24127,0.371184l0.167033,0.078877l0.102076,-0.00928l0.157753,0.051038l0.157753,0.129914l0.176312,0.013919l0.125275,-0.032479l0.171673,0.023199l0.180952,0.074237h0.148474l0.046398,-0.041758l0.125275,-0.055678h0.194872l0.092796,-0.046398l0.115995,0.00464l0.338705,0.088156l0.278388,0.134554l0.00464,0.041758l-0.106715,0.041758l-0.069597,0.139194l0.00928,0.199511l0.125275,0.157753l0.287668,0.185592l0.287668,0.204151l0.00464,0.074237l-0.139194,0.088156l-0.129914,0.218071l-0.027839,0.324786l0.111355,0.129914l0.00464,0.064957l-0.115995,0.083516l0.00928,0.074237l0.153113,0.115995l0.046398,0.129914l-0.032479,0.148474l0.046398,0.102076l0.092796,0.064957l0.032479,0.143834l0.092796,0.069597l0.037118,0.092796l-0.069597,0.278388l0.00464,0.134554l0.111355,0.157753l0.320146,0.180952h0.074237l0.046398,0.027839l0.00928,0.106715l0.097436,0.064957l0.069597,0.00464l0.069597,-0.060317l0.102076,-0.013919l0.078877,0.013919l0.00928,0.046398l0.134554,0.078877l0.208791,0.051038l0.180952,-0.00928l0.097436,-0.027839l0.385103,0.037118l0.060317,-0.013919l0.046398,-0.055678l0.102076,-0.046398l0.064957,0.018559l-0.00464,0.115995l-0.088156,0.139194l-0.023199,0.088156l0.00928,0.264469l0.083516,0.171673l-0.060317,0.24127l-0.083516,0.051038l-0.027839,0.069597l-0.00464,0.125275l-0.051038,0.092796l-0.120635,0.023199l-0.078877,0.064957l-0.037118,0.078877l-0.092796,0.037118l-0.153113,-0.037118l-0.046398,-0.074237l-0.027839,-0.125275l-0.111355,-0.167033l-0.167033,-0.064957l-0.129914,-0.00464l-0.115995,0.088156l-0.037118,0.115995l0.018559,0.051038l-0.00928,0.069597l-0.041758,0.064957l-0.055678,-0.00464l-0.037118,-0.074237l-0.060317,-0.069597l-0.074237,-0.00928l-0.051038,-0.074237l-0.018559,-0.125275l-0.041758,-0.046398l-0.111355,-0.055678l-0.013919,-0.092796l0.046398,-0.083516l-0.032479,-0.162393l-0.064957,-0.041758h-0.083516l-0.032479,-0.023199l-0.018559,-0.064957l-0.139194,-0.078877l-0.125275,-0.00464l-0.097436,0.046398l-0.157753,-0.018559l-0.00464,-0.041758l0.037118,-0.041758l0.027839,-0.167033l-0.037118,-0.032479l-0.134554,0.00928l-0.023199,-0.037118l0.018559,-0.060317l0.134554,-0.106715l0.046398,-0.134554l-0.032479,-0.083516l-0.092796,-0.060317l-0.046398,-0.078877v-0.060317l-0.046398,-0.074237l-0.125275,-0.088156l-0.171673,0.032479l-0.051038,0.064957h-0.046398l-0.00464,-0.046398l0.092796,-0.097436l0.060317,-0.139194l0.064957,-0.078877l0.032479,-0.064957l-0.032479,-0.074237l-0.069597,-0.00464l-0.074237,0.074237l-0.018559,0.125275l-0.074237,0.00928l-0.060317,-0.060317l-0.00928,-0.139194l0.046398,-0.129914v-0.102076l-0.102076,-0.106715l-0.139194,-0.018559l-0.088156,0.018559l-0.22735,-0.018559l-0.018559,-0.046398l0.037118,-0.051038l0.153113,-0.027839l0.041758,-0.064957l-0.051038,-0.069597l-0.00464,-0.102076l0.00928,-0.051038l-0.00928,-0.083516l-0.083516,-0.041758l-0.078877,0.032479l-0.097436,-0.00464l-0.041758,-0.055678h-0.139194l-0.176312,0.097436h-0.394383l-0.273748,-0.102076Z M1300.896612,497.806667l0.015466,0.037118l0.117542,0.018559l0.064957,-0.037118l-0.003093,-0.092796l-0.046398,-0.00928l-0.098982,0.027839l-0.049491,0.055678Z M1301.063644,498.821237l0.043305,0.015466l0.027839,-0.00928l0.027839,-0.024746l-0.015466,-0.040212l-0.058771,-0.00928l-0.034025,0.018559l0.00928,0.049491Z M1300.78835,497.911836l-0.123728,0.117542l0.015466,0.08661l-0.07733,0.040212l-0.083516,0.00928l-0.040212,0.049491l0.012373,0.064957l0.111355,0.049491l0.08661,-0.027839l0.089703,0.018559l0.00928,0.040212l-0.080423,0.034025l-0.018559,0.064957l0.027839,0.015466l0.108262,-0.037118l0.08661,0.015466l0.108262,0.061864l-0.012373,0.074237l-0.074237,0.021652l-0.015466,0.049491l0.046398,0.027839l0.117542,-0.015466l0.095889,-0.071144l-0.003093,-0.064957l-0.040212,-0.046398l0.003093,-0.030932l0.061864,-0.021652l-0.006186,-0.052584l-0.071144,-0.034025l0.00928,-0.030932l0.064957,-0.037118l0.027839,-0.126821l-0.06805,-0.151567l-0.034025,-0.021652l-0.120635,0.061864l-0.136101,0.003093l-0.027839,-0.024746l0.027839,-0.061864l0.058771,-0.049491l-0.018559,-0.021652l-0.117542,0.021652Z M1285.260872,468.49299l0.018559,-0.129914l0.482539,-0.23199l0.631013,0.018559l0.426862,0.22271l0.055678,0.250549l-0.037118,0.204151l-0.519658,0.176312l-0.371184,-0.027839l-0.575335,-0.324786l-0.111355,-0.157753Z M1283.047687,471.926442l0.032479,-0.027839h0.078877l0.013919,0.032479l-0.037118,0.023199l-0.051038,0.00464l-0.037118,-0.032479Z M1282.546589,472.255868l0.078877,-0.060317l0.320146,-0.023199l0.143834,-0.097436h0.088156l0.046398,0.083516l0.064957,0.00464l0.208791,-0.064957h0.255189l0.208791,0.115995l0.051038,0.190232l0.078877,0.134554l0.074237,0.013919l0.078877,-0.041758l0.051038,-0.102076l0.055678,-0.032479l0.088156,0.018559l0.046398,-0.037118l0.023199,-0.120635l0.143834,-0.115995l0.032479,-0.078877l-0.060317,-0.051038l0.032479,-0.032479l0.088156,0.00928l0.064957,0.060317l0.069597,0.00464l0.148474,-0.134554l0.097436,-0.041758l0.037118,0.027839l-0.041758,0.069597l0.032479,0.24127l-0.051038,0.102076l-0.074237,0.018559l-0.120635,0.074237l-0.037118,0.111355l-0.064957,0.00928l-0.046398,-0.027839l-0.078877,-0.00464l-0.083516,0.055678l0.00464,0.097436l0.046398,0.013919l0.055678,-0.027839l0.037118,0.00928l0.032479,0.097436l-0.032479,0.041758l-0.088156,0.00464l-0.078877,0.083516l0.023199,0.097436l-0.027839,0.055678l-0.064957,0.018559l-0.023199,0.069597l0.037118,0.092796v0.051038l-0.027839,0.051038l0.027839,0.106715l0.148474,0.129914v0.074237l-0.083516,0.027839l-0.041758,0.069597l0.013919,0.064957l-0.041758,0.023199l-0.23199,-0.041758l-0.139194,-0.134554l0.013919,-0.111355l-0.074237,-0.060317l-0.074237,-0.00464l-0.041758,-0.032479l-0.013919,-0.069597l-0.167033,-0.106715l0.018559,-0.051038l0.143834,-0.027839l0.092796,-0.162393l-0.027839,-0.139194l-0.134554,-0.069597l-0.120635,0.023199l-0.213431,0.157753l-0.00464,0.037118h0.060317l0.023199,0.041758l-0.111355,0.120635l-0.078877,0.120635l0.027839,0.046398l0.083516,0.037118l0.032479,0.046398l0.00928,0.092796l0.139194,0.125275l-0.00928,0.041758l-0.139194,-0.00928l-0.208791,0.027839l-0.120635,-0.046398l-0.046398,-0.106715l0.088156,-0.199511l0.051038,-0.023199v-0.046398l-0.064957,-0.013919l-0.055678,0.032479l-0.037118,0.069597l-0.055678,0.041758l-0.037118,-0.013919l0.018559,-0.055678l-0.069597,-0.060317h-0.074237l-0.083516,0.078877l-0.148474,0.027839l-0.037118,-0.027839l-0.032479,0.00928l-0.041758,0.037118l-0.074237,0.013919l-0.018559,-0.046398l0.120635,-0.106715l-0.018559,-0.041758l-0.041758,-0.041758l0.00464,-0.069597l0.051038,-0.180952l0.00464,-0.125275l0.041758,-0.064957l-0.041758,-0.064957l-0.064957,-0.032479l-0.051038,-0.153113l0.013919,-0.218071Z M1282.212523,475.564045l0.106715,-0.00464l0.245909,0.157753l0.013919,0.088156l-0.083516,0.097436l-0.23199,0.180952l-0.097436,0.157753l-0.041758,0.00464l-0.088156,-0.190232l0.00928,-0.22735l0.069597,-0.162393l0.097436,-0.102076Z M1272.020042,491.196498l0.106715,-0.046398l0.041758,-0.055678l-0.00928,-0.083516l0.055678,-0.060317l0.051038,0.00464v0.083516l0.088156,0.092796l0.148474,0.088156l-0.00928,0.051038l-0.143834,0.078877l-0.171673,-0.023199l-0.060317,0.060317l-0.037118,-0.013919l-0.023199,-0.060317l-0.162393,-0.083516l0.013919,-0.051038l0.111355,0.018559Z "/>
</svg>
