<svg xmlns="http://www.w3.org/2000/svg" viewBox="1245.169 472.900 26.042 31.091">
  <path d="M1270.804415,503.451757l0.049491,-0.012373l0.111355,0.06805l0.080423,0.018559l0.123728,0.136101l0.043305,0.315506l-0.043305,0.012373l-0.204151,-0.142287l-0.092796,-0.15466l-0.030932,-0.15466l-0.037118,-0.08661Z M1268.602056,499.2017l0.074237,0.018559l0.06805,-0.061864l0.136101,-0.006186l0.105169,0.055678l0.030932,-0.049491l-0.06805,-0.22271l-0.092796,-0.037118l-0.129914,0.043305l-0.136101,0.167033l0.012373,0.092796Z M1268.385532,500.339998l0.111355,0.080423l0.055678,0.080423v0.080423l-0.055678,0.080423l-0.006186,0.080423l0.074237,0.06805l-0.030932,0.080423l-0.105169,0.030932l-0.012373,0.074237l0.061864,0.08661l0.037118,0.15466l0.129914,0.136101l0.111355,0.160846l0.371184,0.129914l0.105169,-0.006186l0.123728,0.06805l0.061864,-0.030932l0.018559,-0.105169l-0.043305,-0.098982l0.006186,-0.216524l0.055678,-0.185592l0.142287,-0.055678l0.098982,0.006186l0.055678,-0.037118l-0.006186,-0.15466l-0.352625,-0.303134l-0.235083,-0.098982l-0.210338,-0.197965l-0.006186,-0.105169l-0.055678,-0.111355l-0.185592,-0.15466l-0.142287,0.018559l-0.080423,0.210338l-0.105169,0.129914l0.012373,0.105169Z M1261.728966,497.43239l-0.018559,0.049491l0.013919,0.043305h0.032479l0.018559,-0.041758l-0.00928,-0.051038h-0.037118Z M1260.4623,496.866334l-0.023199,0.185592l0.051038,0.083516l0.041758,-0.00928l0.032479,-0.111355l0.060317,-0.055678v-0.148474l-0.055678,-0.060317l-0.046398,0.00464l-0.060317,0.111355Z M1260.852043,497.158642v0.171673l0.120635,0.115995l0.055678,-0.023199l-0.00464,-0.185592l0.046398,-0.078877v-0.046398l-0.064957,-0.00928l-0.060317,-0.064957l-0.064957,0.00928l-0.027839,0.111355Z M1260.24423,495.720304l0.064957,0.111355h0.037118l0.00928,-0.055678l-0.064957,-0.153113l-0.032479,-0.046398l-0.041758,0.013919l0.027839,0.129914Z M1259.483302,494.755225v0.051038l0.046398,0.078877l0.032479,0.00464l0.023199,-0.078877v-0.092796l-0.037118,-0.027839l-0.064957,0.064957Z M1255.947775,493.358645l0.046398,0.00464l0.046398,-0.013919l0.013919,-0.037118l-0.027839,-0.037118l-0.074237,0.00928l-0.032479,0.032479l0.027839,0.041758Z M1253.414444,488.691006l0.055678,0.123728l-0.00488,0.190029l0.091489,0.094545l0.167033,0.061864l0.049491,0.061864l-0.006186,0.06805l0.037118,0.06805l0.074237,0.024746l0.018559,0.06805l-0.018559,0.074237l0.129914,0.148474l0.204151,0.055678l0.408302,0.445421l0.185592,0.092796l0.120635,-0.027839l0.037118,-0.111355l-0.102076,-0.139194l0.027839,-0.139194l0.204151,-0.250549h0.24127l0.482539,0.204151l0.046398,-0.074237l-0.055678,-0.120635l-0.157753,-0.064957l-0.361904,-0.278388l-0.129914,-0.278388l-0.640292,-0.250549l-0.213431,-0.018559l-0.278388,-0.352625l-0.055678,-0.213431l-0.111355,-0.027839l-0.213431,0.120635l-0.188685,0.24127l-0.043305,0.204151Z M1253.934102,483.358329l0.06805,0.012373l0.043305,-0.037118v-0.111355l-0.055678,-0.037118l-0.049491,0.012373l-0.024746,0.105169l0.018559,0.055678Z M1254.626978,483.871801l0.06805,-0.024746l0.043305,-0.098982l-0.030932,-0.061864h-0.055678l-0.092796,0.098982v0.06805l0.06805,0.018559Z M1253.42063,484.007901l0.012373,0.136101l0.08661,0.08661l0.167033,0.37737l0.024746,0.191778l0.092796,0.061864l0.074237,0.08661l0.006186,0.129914l0.136101,0.136101l0.098982,0.012373l0.197965,-0.08661v-0.074237l-0.074237,-0.055678l-0.037118,-0.080423l0.024746,-0.191778l-0.074237,-0.123728l-0.080423,-0.012373l-0.06805,0.080423h-0.06805l-0.105169,0.06805l-0.055678,-0.018559v-0.129914l0.142287,-0.259829l0.012373,-0.179406l-0.074237,-0.098982l-0.105169,-0.018559l-0.06805,-0.08661l0.049491,-0.123728v-0.074237l-0.08661,-0.049491l-0.08661,0.024746l-0.012373,0.148474l-0.061864,0.030932l-0.105169,-0.030932l-0.030932,0.049491l0.06805,0.074237Z M1252.8886,484.026461v0.105169l-0.049491,0.030932v0.092796l0.06805,0.049491v0.228897l-0.030932,0.074237h-0.074237v0.049491l0.092796,0.037118l0.006186,0.08661l-0.08661,0.179406l-0.284574,0.197965l-0.06805,-0.012373l-0.024746,-0.049491l-0.043305,-0.030932l-0.06805,0.018559l-0.06805,-0.055678l-0.043305,-0.160846l-0.080423,-0.018559l-0.055678,0.061864l-0.049491,-0.006186l-0.055678,-0.055678l-0.043305,0.030932l0.024746,0.191778l-0.092796,0.228897l0.006186,0.15466l-0.080423,0.123728l-0.105169,0.018559l-0.030932,0.074237l0.030932,0.179406l-0.061864,0.129914l-0.061864,0.080423l0.006186,0.098982l0.037118,0.074237l0.111355,0.012373l0.055678,0.037118l0.061864,0.105169l0.06805,0.012373l0.136101,-0.080423h0.136101l0.037118,-0.061864l0.018559,-0.439234l-0.098982,-0.228897l-0.006186,-0.111355l0.030932,-0.055678l0.092796,-0.018559l0.061864,0.037118v0.06805l0.173219,0.46398l0.074237,0.061864l0.061864,0.123728l-0.006186,0.074237h-0.043305l-0.061864,-0.117542l-0.061864,-0.037118l-0.024746,0.049491l0.055678,0.06805l0.012373,0.06805l-0.037118,0.043305l0.018559,0.074237l0.061864,0.037118l0.049491,0.105169l-0.006186,0.117542l0.111355,0.098982l0.185592,0.037118l0.105169,0.08661h0.08661l0.049491,-0.098982l0.173219,-0.098982l0.204151,0.030932l0.371184,0.228897l0.061864,0.098982l0.173219,0.055678l0.266015,-0.024746l0.142287,0.061864l0.117542,-0.080423l-0.012373,-0.074237l0.08661,-0.247456l-0.037118,-0.105169l-0.117542,-0.06805l-0.129914,-0.173219l-0.055678,-0.148474l-0.37737,-0.46398l-0.049491,-0.191778l-0.136101,-0.129914l-0.06805,-0.006186l-0.136101,0.15466l-0.105169,-0.012373l-0.160846,-0.284574l0.006186,-0.080423l0.105169,-0.074237l0.018559,-0.111355l-0.111355,-0.513471l-0.08661,-0.136101l-0.160846,-0.426862l-0.15466,-0.074237l-0.098982,0.030932v0.074237l0.049491,0.049491Z M1255.986536,483.890988l0.071482,0.019719l0.032044,-0.017254l-0.002465,-0.061622l-0.054228,-0.036973l-0.044368,0.00493l-0.029579,0.029579l0.027114,0.061622Z M1255.90766,483.95754l0.034509,-0.007395l0.014789,-0.024649l-0.017254,-0.027114l-0.032044,-0.002465l-0.024649,0.036973l0.024649,0.024649Z M1256.070343,483.782533l0.032044,0.017254l0.017254,-0.014789l0.00493,-0.032044l-0.024649,-0.017254l-0.019719,0.014789l-0.00986,0.032044Z M1256.173868,483.925497l0.036973,-0.002465l0.014789,-0.029579l-0.024649,-0.027114l-0.051763,0.00493l-0.014789,0.024649l0.039438,0.029579Z M1256.176333,484.036417l0.022184,0.007395l0.036973,-0.027114l0.007395,-0.039438l-0.027114,-0.024649l-0.032044,0.00986l-0.017254,0.036973l0.00986,0.036973Z M1256.334086,484.075855l0.036973,-0.007395l0.002465,-0.024649l-0.019719,-0.022184h-0.054228l-0.007395,0.027114l0.041903,0.027114Z M1256.05536,484.31234l0.036973,0.00986l0.00493,-0.017254l-0.032044,-0.032044h-0.027114l-0.007395,0.022184l0.024649,0.017254Z M1256.447278,484.30741l0.00493,0.054228l0.096131,0.11585l0.054228,0.019719l0.029579,-0.029579l-0.019719,-0.11585l-0.12571,-0.12571h-0.051763l-0.019719,0.027114l0.032044,0.054228Z M1256.526155,484.760951l0.024649,-0.027114l0.044368,-0.098596l-0.00493,-0.032044l-0.029579,0.002465l-0.039438,0.071482l-0.019719,0.076412l0.024649,0.007395Z M1256.087404,484.758486l0.098596,0.091201l0.046833,0.019719l0.002465,-0.019719l-0.088736,-0.108455l-0.051763,-0.036973l-0.019719,0.014789l0.012324,0.039438Z M1255.870493,484.760951l0.027114,0.002465l0.024649,-0.019719l0.00493,-0.034509l-0.041903,-0.041903l-0.024649,-0.002465l-0.017254,0.024649l0.002465,0.051763l0.024649,0.019719Z M1256.609961,485.214491l-0.019719,0.022184l-0.039438,-0.00986l-0.032044,0.032044l0.014789,0.091201l0.054228,0.024649l0.022184,-0.014789l-0.022184,-0.051763l0.014789,-0.027114l0.054228,-0.002465l0.056693,-0.103526l-0.014789,-0.056693l-0.049298,-0.012324l-0.046833,0.024649l-0.007395,0.044368l0.014789,0.039438Z M1255.075492,483.081488l0.064957,-0.055678l0.023199,-0.106715l0.083516,-0.069597l0.106715,-0.023199l0.218071,-0.148474l0.027839,-0.115995l-0.041758,-0.041758l-0.23199,0.013919l-0.115995,0.055678l-0.171673,0.306227l-0.013919,0.162393l0.051038,0.023199Z M1255.247165,483.359876l0.027839,-0.013919l-0.013919,-0.060317l0.055678,-0.115995l0.111355,-0.143834l-0.00464,-0.060317l-0.037118,-0.00464l-0.176312,0.250549l-0.018559,0.111355l0.055678,0.037118Z M1254.170731,482.682465l0.143834,0.139194l0.283028,0.176312l0.032479,-0.00928l-0.023199,-0.046398l-0.269108,-0.162393l-0.046398,-0.083516l0.032479,-0.111355l0.046398,-0.00928l0.051038,0.018559l0.064957,-0.00928l0.097436,-0.088156l-0.00928,-0.060317l-0.111355,-0.027839l-0.143834,0.032479l-0.064957,-0.023199l-0.078877,0.018559l-0.032479,0.157753l0.027839,0.088156Z M1254.543462,483.052103l0.040212,0.012373l0.027839,-0.00928l-0.012373,-0.027839l-0.049491,-0.018559l-0.024746,0.012373l0.018559,0.030932Z M1254.162998,482.105583l0.030932,-0.006186l0.027839,-0.024746l-0.006186,-0.024746l-0.034025,-0.003093l-0.040212,0.043305l0.021652,0.015466Z M1254.200117,482.244777l0.052584,-0.015466l-0.006186,-0.027839l-0.030932,-0.018559l-0.049491,0.021652v0.024746l0.034025,0.015466Z M1254.076389,481.066268l0.06805,-0.046398l-0.003093,-0.021652l-0.034025,0.003093l-0.061864,0.046398l-0.006186,0.024746l0.037118,-0.006186Z M1254.06742,481.625326l-0.006498,-0.221899l-0.040212,-0.210338l-0.08661,-0.07733l-0.083516,-0.012373l-0.018559,-0.027839l0.040212,-0.027839l0.102076,0.006186l0.027839,-0.015466l-0.021652,-0.021652l-0.129914,-0.00928l-0.064957,0.043305l-0.030932,0.06805l-0.030932,0.012373l-0.034025,-0.015466l-0.080423,0.003093l-0.102076,0.074237l-0.034025,0.123728l-0.052584,0.07733l-0.120635,0.108262l-0.111355,0.201058l-0.058771,0.157753l-0.00928,0.129914l-0.037118,0.114448l-0.092796,0.136101l-0.027839,0.157753l0.030932,0.111355l-0.030932,0.30932l-0.06805,0.160846l-0.003093,0.064957l0.027839,0.027839l0.003093,0.061864l0.024746,0.00928l0.046398,-0.055678l0.037118,-0.080423l0.123728,-0.235083l0.071144,-0.074237h0.046398l0.027839,0.046398l-0.006186,0.055678l0.064957,0.129914l0.034025,0.00928l0.037118,-0.012373l0.027839,0.021652l0.006186,0.049491l0.040212,0.061864l0.021652,-0.003093l0.015466,-0.098982l0.049491,-0.092796l0.043305,-0.00928l0.040212,0.034025h0.074237l0.071144,-0.046398l0.030932,-0.064957l0.034025,-0.003093l0.00928,-0.027839l-0.024746,-0.046398l0.015466,-0.052584h0.027839l0.061864,0.074237l0.034025,0.015466l0.055678,-0.049491l-0.012373,-0.191778l-0.034025,-0.080423l0.00928,-0.037118l0.027839,-0.024746l0.015466,-0.071144l-0.030932,-0.105169l-0.034025,-0.00928l-0.021652,0.015466l-0.006186,0.037118l0.015466,0.034025l-0.018559,0.06805h-0.024746l-0.046398,-0.046398l0.012373,-0.049491l0.024746,-0.027839l0.049491,-0.108262l0.080423,-0.06805l0.061864,-0.117542l-0.012373,-0.095889l-0.064957,-0.040212l-0.012373,-0.037118l0.025057,-0.109073Z M1250.152664,478.135461l0.199511,0.22271l0.176312,0.064957l0.041758,-0.013919l-0.013919,-0.055678l-0.176312,-0.245909l-0.139194,-0.083516l-0.078877,0.018559l-0.00928,0.092796Z M1250.806876,478.743275l0.092796,0.037118l0.037118,-0.018559l-0.037118,-0.055678l-0.129914,-0.083516l-0.046398,0.00928v0.046398l0.083516,0.064957Z M1246.618683,473.953455l0.024746,-0.026292l-0.00928,-0.037118l-0.024746,-0.003093l-0.021652,0.021652l0.003093,0.027839l0.027839,0.017013Z M1246.587751,473.06416l0.040212,-0.037118l0.012373,-0.052584l-0.080423,-0.074237l-0.074237,0.006186l-0.021652,0.061864l0.058771,0.07733l0.064957,0.018559Z M1245.22365,473.376573l0.092796,0.012373l0.108262,-0.037118l0.043305,-0.111355l0.061864,-0.049491l0.003093,-0.037118l-0.055678,-0.012373l-0.098982,0.049491h-0.049491l-0.049491,-0.034025l-0.07733,0.003093l-0.034025,0.071144l0.012373,0.105169l0.043305,0.040212Z M1246.049535,473.849832l0.043305,0.021652l0.024746,0.083516l0.049491,0.040212h0.046398l0.015466,-0.037118l-0.089703,-0.139194l-0.049491,-0.021652l-0.046398,0.021652l0.006186,0.030932Z M1248.988075,473.784875l-0.032479,-0.010826l-0.046398,0.032479l-0.055678,-0.00928l-0.032479,-0.051038l-0.078877,-0.027839l-0.051038,0.013919l-0.171673,-0.074237l-0.069597,-0.097436l-0.097436,-0.051038l-0.078877,0.00464l-0.078877,0.102076l-0.180952,0.106715l-0.092796,0.00464l-0.037118,-0.027839l-0.092796,-0.013919l-0.037118,0.027839l-0.055678,-0.00464l-0.037118,-0.032479l-0.074237,-0.00928l-0.115995,0.060317h-0.088156l-0.055678,-0.037118l-0.153113,0.00464l-0.115995,0.102076l-0.106715,0.180952l-0.060317,0.041758v0.032479l0.051038,0.00928l0.064957,0.106715v0.167033l0.032479,0.00464l0.027839,-0.055678l0.046398,-0.00928l0.069597,0.051038l0.013919,0.060317l-0.055678,0.162393l0.064957,0.060317l0.139194,0.032479l0.115995,0.00464l0.046398,0.037118l-0.023199,0.129914l0.120635,0.208791l0.22735,0.167033l0.134554,0.060317l0.162393,0.106715l0.157753,0.259829l0.00464,0.078877l-0.027839,0.074237l0.051038,0.278388l0.167033,0.315506l0.306227,0.167033l0.250549,0.069597l0.204151,0.120635l0.078877,0.074237l0.078877,0.027839h0.064957l0.250549,0.134554l0.250549,0.078877l0.092796,-0.037118l0.023199,-0.064957l-0.106715,-0.148474l-0.037118,-0.176312l-0.167033,-0.278388l-0.055678,-0.00928l-0.120635,0.125275l-0.134554,0.037118l-0.106715,-0.037118l-0.051038,-0.102076l-0.102076,-0.051038l-0.092796,0.00928l-0.199511,-0.111355l-0.097436,-0.143834l-0.00928,-0.283028l-0.064957,-0.083516l-0.018559,-0.162393l0.023199,-0.129914l-0.018559,-0.074237l-0.041758,-0.032479l-0.023199,-0.051038l0.023199,-0.046398l0.037118,0.00464l0.023199,0.055678l0.037118,0.00928l0.037118,-0.078877v-0.162393l-0.037118,-0.023199l-0.060317,0.013919l-0.22271,-0.060317l-0.185592,-0.129914l-0.018559,-0.060317l0.051038,-0.032479l0.00464,-0.055678l-0.060317,-0.041758l-0.046398,-0.134554l0.046398,-0.102076l0.204151,-0.115995l0.185592,-0.018559l0.194872,-0.125275l0.055678,-0.139194l0.078877,-0.064957v-0.069597l-0.018559,-0.06805Z "/>
</svg>
