<svg xmlns="http://www.w3.org/2000/svg" viewBox="1272.177 505.045 18.974 6.515">
  <path d="M1275.156547,506.178413l0.018559,-0.046398l0.032479,-0.013919l0.018559,0.032479l-0.037118,0.041758l-0.032479,-0.013919Z M1272.850567,505.343249l0.051038,0.046398l0.032479,0.00464l0.00464,-0.041758l-0.032479,-0.023199l-0.027839,-0.00464l-0.027839,0.018559Z M1272.934083,505.626277l-0.032479,-0.027839l-0.041758,0.00928l0.00464,0.037118l0.037118,0.00464l0.032479,-0.023199Z M1272.87826,505.78896l0.029579,0.007395l0.024649,-0.012324l-0.003045,-0.018559l-0.027839,-0.00464l-0.030932,0.010826l0.007588,0.017303Z M1272.210274,505.876826l0.032479,-0.023199l-0.00928,-0.032479h-0.041758l-0.013919,0.032479l0.032479,0.023199Z M1287.167443,508.240031l0.061864,-0.049491l-0.018559,-0.15466l-0.049491,-0.049491l-0.055678,0.012373l-0.018559,0.074237l0.012373,0.142287l0.06805,0.024746Z M1283.560772,506.922328l0.216524,0.037118l0.06805,-0.018559l-0.018559,-0.142287l-0.117542,-0.08661l-0.111355,0.012373l-0.098982,0.098982l-0.012373,0.061864l0.074237,0.037118Z M1286.752954,511.122893l0.123728,0.006186l0.111355,-0.018559l0.006186,-0.043305l-0.160846,-0.043305l-0.117542,0.006186l-0.012373,0.049491l0.049491,0.043305Z M1289.679122,510.652727l0.098982,0.006186l0.061864,-0.055678l-0.012373,-0.043305l-0.105169,-0.030932l-0.074237,0.012373l-0.018559,0.080423l0.049491,0.030932Z M1291.04013,508.159608l0.080423,0.012373l0.030932,-0.043305l-0.024746,-0.043305l-0.092796,-0.018559l-0.043305,0.037118l0.049491,0.055678Z M1287.888159,508.79062l0.055678,-0.023199l0.013919,-0.055678l-0.035572,-0.013919l-0.043305,0.018559l-0.024746,0.055678l0.034025,0.018559Z M1289.976069,507.63067l0.069597,-0.00464l0.032479,-0.041758v-0.046398l-0.078877,-0.027839l-0.069597,0.041758v0.060317l0.046398,0.018559Z M1289.901832,507.746665l0.139194,-0.00464l0.023199,-0.032479l-0.037118,-0.027839l-0.143834,0.00464l-0.018559,0.032479l0.037118,0.027839Z M1275.592688,510.590863l0.037118,0.074237l0.049491,0.030932l0.043305,-0.030932l-0.046398,-0.069597l-0.060317,-0.027839l-0.023199,0.023199Z M1276.000991,511.36107l0.380464,0.190232l0.111355,0.00928l0.00928,-0.041758l-0.078877,-0.078877l-0.041758,-0.120635l0.018559,-0.129914l-0.097436,-0.078877h-0.204151l-0.092796,0.051038h-0.064957l-0.051038,0.046398l0.111355,0.153113Z M1279.471561,510.11451h0.064957l0.00928,-0.021652l-0.021652,-0.018559h-0.06805l-0.012373,0.021652l0.027839,0.018559Z M1272.883045,505.886106l0.012373,0.058771l-0.015466,0.058771l-0.052584,0.037118l-0.052584,0.191778l0.003093,0.105169l0.049491,0.040212l0.024746,0.058771l-0.027839,0.126821l-0.114448,0.114448l0.003093,0.114448l0.061864,0.046398l0.021652,0.064957l-0.046398,0.151567l-0.074237,0.015466l-0.034025,0.049491l0.00928,0.080423l-0.034025,0.061864l-0.064957,0.018559l-0.015466,0.043305l0.040212,0.040212v0.034025l-0.021652,0.021652l-0.003093,0.074237l0.030932,0.024746l0.003093,0.046398l-0.030932,0.024746v0.052584l0.071144,0.08661l-0.006186,0.046398l-0.123728,0.058771l-0.040212,0.046398l0.018559,0.061864l-0.021652,0.030932l0.012373,0.034025l0.098982,0.027839l0.111355,0.083516l0.098982,0.021652l0.07733,0.08661l0.00928,0.139194l0.061864,0.030932l0.064957,-0.012373l0.133008,0.027839l0.157753,-0.018559l0.228897,0.003093l0.003093,0.043305l0.018559,0.030932l0.021652,-0.006186l0.034025,-0.064957l0.197965,-0.027839l0.238176,0.00928l0.049491,0.052584l0.064957,0.006186l0.06805,-0.018559l0.064957,-0.074237l0.123728,-0.049491l0.182499,0.00928l0.080423,0.049491l0.095889,0.012373l0.071144,-0.00928l0.102076,0.015466l0.207244,0.111355l0.129914,0.003093l0.120635,-0.061864l0.16394,0.003093l0.089703,0.049491l0.055678,0.102076l0.136101,0.095889l0.151567,0.012373l0.064957,-0.034025h0.052584l0.018559,0.027839h0.040212l0.061864,-0.043305l0.315506,0.00928l0.074237,0.046398l0.102076,0.003093l0.170126,-0.052584l0.092796,0.012373l0.173219,0.123728l0.06805,0.006186l0.046398,-0.015466l0.23199,0.052584l0.080423,-0.00928l0.129914,-0.080423l0.120635,-0.006186l0.08661,0.037118l0.08661,-0.00928l0.043305,-0.049491l0.092796,-0.015466l0.095889,0.021652l0.083516,0.114448l0.238176,0.142287l0.157753,0.046398l0.129914,-0.00928l0.194872,0.06805l0.157753,0.089703l0.136101,0.182499l0.207244,0.061864l0.572242,0.012373l0.102076,-0.012373l0.194872,0.043305l0.129914,0.108262l0.114448,0.287668l0.003093,0.191778l-0.055678,0.089703l-0.006186,0.22271l-0.027839,0.030932l-0.003093,0.034025l0.027839,0.046398l-0.037118,0.105169l-0.07733,0.055678l0.00928,0.061864l0.034025,0.00928l0.098982,-0.015466l0.201058,0.015466l0.089703,-0.018559l0.052584,-0.052584l0.092796,-0.049491l0.228897,-0.003093l0.197965,0.064957l0.173219,0.00928l0.129914,0.003093l0.092796,-0.027839l0.071144,0.00928l0.040212,0.040212h0.030932l0.037118,-0.046398l0.238176,0.006186l0.061864,-0.030932l0.040212,-0.003093l0.027839,0.018559l0.027839,-0.003093l0.046398,-0.043305h0.194872l0.142287,0.049491l0.080423,-0.006186l0.148474,-0.102076l0.123728,-0.040212l0.24127,-0.012373l0.049491,0.037118l0.111355,-0.003093l0.278388,-0.06805l0.173219,-0.080423l0.07733,-0.095889l0.111355,-0.018559l0.117542,0.027839l0.15466,-0.027839l0.207244,-0.08661l0.157753,0.00928l0.105169,0.061864l0.089703,0.00928l0.14538,-0.024746l0.179406,0.018559l0.123728,0.040212l0.071144,-0.006186l0.080423,-0.049491l0.07733,-0.006186l0.061864,0.00928l0.071144,-0.015466l0.176312,-0.064957l0.281481,-0.043305l0.259829,-0.00928l0.108262,-0.043305h0.191778l0.337159,0.052584l0.228897,0.083516h0.105169l0.235083,-0.148474l0.482539,-0.129914l0.133008,-0.00928l0.061864,0.021652h0.092796l0.095889,-0.034025l0.105169,0.018559l0.015466,0.043305l0.071144,0.061864l0.219617,0.024746l0.07733,-0.027839l0.114448,-0.012373l0.117542,0.027839l0.08661,0.061864l0.003093,0.043305l0.027839,0.037118l0.083516,0.021652l0.14538,-0.043305l0.136101,-0.092796l0.080423,-0.018559h0.117542l0.117542,-0.043305l0.092796,-0.083516l0.083516,-0.024746l0.034025,-0.030932l0.083516,-0.197965l0.120635,-0.117542l0.003093,-0.049491l-0.018559,-0.024746l0.006186,-0.049491l0.098982,-0.089703l0.027839,-0.064957v-0.111355l-0.030932,-0.06805v-0.136101l0.046398,-0.074237l0.040212,-0.00928l0.071144,0.006186l0.058771,-0.024746l0.021652,-0.074237l-0.015466,-0.037118l-0.037118,-0.003093l-0.049491,0.024746l-0.129914,-0.049491l-0.064957,-0.095889l0.003093,-0.049491l0.027839,-0.037118v-0.07733l-0.071144,-0.179406l0.00928,-0.083516l0.052584,-0.040212l0.071144,-0.006186l0.043305,-0.037118l0.00928,-0.061864l0.034025,-0.037118l0.049491,-0.015466l0.015466,-0.027839l-0.012373,-0.046398l0.027839,-0.083516l-0.021652,-0.015466l-0.074237,0.027839l-0.043305,0.058771l0.021652,0.034025l-0.012373,0.021652h-0.061864l-0.012373,0.037118l0.018559,0.046398l-0.030932,0.027839l-0.095889,0.018559l-0.052584,0.049491l-0.034025,-0.006186l-0.021652,-0.040212l-0.040212,-0.006186l-0.046398,0.027839l-0.080423,0.111355l-0.012373,0.108262l-0.018559,0.037118l-0.06805,0.021652l-0.108262,0.114448l-0.034025,0.071144l-0.123728,0.114448l-0.114448,0.018559l-0.170126,-0.021652l-0.07733,-0.052584l0.018559,-0.071144l-0.015466,-0.074237l-0.037118,-0.006186l-0.089703,0.061864l-0.120635,-0.00928l-0.071144,-0.046398l-0.111355,-0.003093l-0.095889,-0.030932l-0.07733,0.018559l-0.16394,0.219617l-0.102076,0.012373l-0.06805,-0.018559l-0.058771,0.015466l-0.07733,0.098982l-0.23199,0.027839l-0.07733,-0.024746l-0.055678,0.021652l-0.012373,0.071144l-0.170126,0.123728l-0.08661,-0.00928l-0.037118,0.021652l0.003093,0.08661l-0.167033,0.179406l-0.123728,0.024746l-0.167033,-0.034025l-0.151567,-0.08661l-0.16394,-0.006186l-0.027839,-0.034025l0.015466,-0.058771l-0.018559,-0.071144l-0.074237,-0.07733l-0.00928,-0.133008l0.027839,-0.027839l0.00928,-0.071144l-0.015466,-0.058771l0.030932,-0.07733l0.089703,-0.126821l0.00928,-0.06805l-0.037118,-0.151567l-0.037118,-0.055678l-0.006186,-0.055678l0.030932,-0.052584l0.006186,-0.071144l-0.015466,-0.071144l0.024746,-0.037118l0.083516,-0.024746l0.139194,-0.092796l0.040212,-0.105169l-0.027839,-0.018559l-0.250549,-0.006186l-0.173219,0.021652l-0.126821,-0.021652l-0.117542,-0.055678h-0.064957l-0.06805,0.046398l-0.315506,0.052584l-0.15466,0.083516l-0.061864,0.012373l-0.083516,-0.00928l-0.08661,0.021652l-0.235083,0.136101l-0.235083,0.061864l-0.201058,-0.024746l-0.284574,-0.179406l-0.055678,-0.126821l-0.083516,-0.030932l-0.167033,0.027839l-0.847537,-0.00928l-0.089703,0.027839l-0.080423,-0.003093l-0.080423,-0.07733l-0.080423,-0.015466l-0.343345,0.012373l-0.089703,0.052584l-0.139194,0.006186l-0.092796,-0.003093l-0.114448,-0.058771l-0.074237,-0.235083l0.021652,-0.089703l-0.003093,-0.06805l-0.027839,-0.027839h-0.074237l-0.037118,-0.034025l-0.018559,-0.074237l-0.043305,-0.030932l-0.083516,0.00928l-0.043305,0.049491l-0.037118,-0.003093l-0.027839,-0.043305l-0.055678,-0.043305l-0.037118,0.006186l-0.034025,0.114448l-0.061864,0.027839l-0.129914,-0.012373l-0.089703,0.018559l-0.049491,-0.015466l-0.00928,-0.034025l-0.167033,-0.06805l-0.064957,0.012373l-0.040212,0.058771l-0.07733,0.024746l-0.197965,-0.024746l-0.160846,0.003093l-0.089703,0.021652l-0.027839,-0.012373v-0.030932l-0.030932,-0.027839l-0.262922,-0.012373l-0.083516,-0.046398h-0.173219l-0.07733,0.037118l-0.219617,-0.003093l-0.083516,0.027839l-0.064957,0.061864l-0.095889,0.037118l-0.083516,0.074237l-0.275295,0.098982l-0.337159,0.058771l-0.095889,0.040212h-0.071144l-0.046398,-0.027839h-0.080423l-0.055678,0.037118h-0.08661l-0.064957,-0.024746l-0.136101,0.003093l-0.08661,0.030932l-0.188685,-0.003093l-0.08661,0.030932l-0.064957,0.058771l-0.253642,0.015466l-0.287668,-0.061864l-0.058771,-0.034025l-0.021652,-0.080423l0.018559,-0.061864l-0.006186,-0.296947l-0.037118,-0.052584v-0.034025l0.024746,-0.043305l-0.00928,-0.098982l-0.102076,-0.123728l-0.058771,-0.003093l-0.046398,0.058771l-0.043305,0.00928l-0.052584,-0.006186l-0.058771,0.024746l-0.024746,0.055678l-0.061864,0.015466l-0.108262,-0.027839l-0.105169,-0.105169l-0.105169,-0.040212l-0.08661,0.012373l-0.08661,-0.015466l-0.129914,-0.083516l-0.129914,-0.030932l-0.064957,-0.058771l0.003093,-0.046398l0.055678,-0.030932l0.139194,0.00928l0.055678,-0.018559l0.043305,0.003093l0.046398,0.037118l0.22271,0.037118l0.102076,-0.006186l0.083516,-0.061864l0.034025,-0.108262l0.074237,-0.102076l0.00928,-0.083516l-0.024746,-0.129914l-0.098982,-0.126821l-0.08661,-0.06805l-0.269108,-0.06805l-0.095889,-0.006186l-0.148474,0.037118l-0.07733,0.049491l-0.015466,0.117542l0.061864,0.092796l-0.018559,0.046398l-0.092796,0.043305h-0.06805l-0.043305,0.034025l-0.006186,0.129914l-0.043305,0.046398l-0.06805,0.015466l-0.058771,-0.012373l-0.074237,0.00928l-0.034025,0.040212l-0.089703,0.012373l-0.340252,-0.030932l-0.061864,-0.037118l-0.06805,-0.006186l-0.06805,0.015466l-0.30004,-0.015466l-0.14538,-0.034025l-0.083516,-0.049491l-0.058771,-0.018559l-0.117542,-0.006186l-0.16394,-0.074237l-0.021652,-0.043305l0.021652,-0.142287l-0.006186,-0.191778l-0.098982,-0.343345l0.003093,-0.095889l0.043305,-0.089703l-0.012373,-0.049491l-0.170126,-0.092796l-0.080423,0.021652l-0.142287,0.210338l-0.021652,0.167033l0.046398,0.098982l-0.003093,0.055678l-0.021652,0.046398l0.012373,0.148474l0.06805,0.071144l0.012373,0.06805l-0.012373,0.043305l0.006186,0.064957l0.040212,0.037118l0.006186,0.07733l-0.080423,0.216524l-0.064957,0.037118l-0.092796,-0.00928l-0.136101,0.021652l-0.049491,0.034025h-0.074237l-0.074237,-0.037118l-0.00928,-0.058771l-0.098982,-0.052584l-0.083516,-0.012373l-0.024746,-0.030932l-0.003093,-0.30004l-0.049491,-0.170126l0.006186,-0.049491l0.018559,-0.034025l0.003093,-0.095889l-0.015466,-0.06805l-0.021652,-0.006186l-0.021652,0.021652l-0.003093,0.133008l-0.021652,0.102076l-0.057466,0.030787l-0.019864,0.065102Z "/>
</svg>
