<svg xmlns="http://www.w3.org/2000/svg" viewBox="931.038 1167.954 12.976 30.546">
  <path d="M931.038298,1172.112058l0.061679,-0.086351h0.098686l0.037007,0.086351l-0.111022,0.049343l-0.086351,-0.049343Z M935.104191,1168.206341l0.055511,0.098686h0.086351l0.043175,-0.074015l0.111022,-0.043175l0.012336,-0.104854l-0.11719,-0.11719l-0.135694,-0.012336l-0.055511,0.061679l-0.067847,0.030839l-0.006168,0.104854l0.074015,0.055511Z M937.787423,1172.131441l0.320731,0.024672l0.23438,-0.123358l0.024672,-0.14803l-0.246716,-0.135694l-0.308395,-0.012336l-0.209709,0.135694l0.024672,0.197373l0.160365,0.061679Z M940.350986,1175.742911l0.129526,0.018504l0.037007,-0.083267l-0.074015,-0.092518l-0.138778,-0.009252l-0.037007,0.092518l0.083267,0.074015Z M940.9246,1175.419096l0.009252,0.111022l0.092518,0.074015h0.129526l0.10177,-0.027756l-0.009252,-0.129526l-0.10177,-0.129526l-0.185037,-0.064763l-0.138778,0.009252l-0.009252,0.083267l0.111022,0.074015Z M942.382608,1182.433836l0.268304,0.027756l0.333066,-0.055511l0.2498,-0.129526l-0.037007,-0.055511l-0.194289,-0.037007l-0.203541,-0.160365l-0.012336,-0.111022l-0.043175,-0.049343l-0.194289,-0.067847l-0.120274,0.037007l-0.064763,0.157281l-0.138778,0.120274v0.185037l0.157281,0.138778Z M942.632418,1188.549842l0.197373,0.160365l0.222044,0.024672l0.185037,0.123358l0.135694,0.037007l0.111022,-0.049343l0.209709,0.024672l0.246716,0.157281l0.074015,-0.055511l-0.012336,-0.175785l-0.098686,-0.129526l-0.009252,-0.194289l0.058595,-0.13261l-0.012336,-0.222044l-0.160365,-0.14803l-0.394745,-0.037007l-0.197373,0.061679l-0.333066,0.012336l-0.185037,0.098686l-0.061679,0.222044l0.024672,0.222044Z M943.283132,1187.811236l0.060137,-0.027756l-0.018504,-0.055511h-0.097144l-0.032381,0.055511l0.087893,0.027756Z M943.551435,1187.80661l0.074015,-0.013878l-0.02313,-0.046259l-0.060137,-0.009252l-0.032381,0.041633l0.041633,0.027756Z M941.435654,1194.405343l0.209709,0.23438l0.246716,0.012336l0.419417,-0.246716l0.049343,-0.160365l-0.086351,-0.098686l-0.394745,-0.23438l-0.098686,-0.135694h-0.135694l-0.172701,0.160365l-0.160365,0.012336l-0.172701,0.14803l0.012336,0.160365l0.283723,0.14803Z M940.965352,1194.295863l0.032381,-0.037007l-0.041633,-0.046259l-0.064763,0.009252v0.069389l0.074015,0.004626Z M940.757185,1194.309741l0.032381,-0.074015l-0.02313,-0.050885l-0.060137,0.027756l-0.009252,0.106396l0.060137,-0.009252Z M940.447248,1194.393007l0.078641,-0.004626l0.027756,-0.037007l-0.055511,-0.041633h-0.064763l-0.02313,0.060137l0.037007,0.02313Z M940.609155,1194.527159l0.027756,-0.037007l0.004626,-0.041633l-0.041633,-0.018504l-0.041633,0.018504l0.004626,0.055511l0.046259,0.02313Z M940.747933,1194.517907l0.046259,-0.041633l-0.032381,-0.041633l-0.041633,0.02313l-0.013878,0.050885l0.041633,0.009252Z M938.340098,1198.092919l0.092518,-0.009252l0.064763,-0.064763l-0.027756,-0.083267l-0.092518,-0.009252l-0.083267,0.10177l0.046259,0.064763Z M937.618454,1198.435237l0.240548,0.064763l0.175785,-0.074015l0.055511,-0.175785l-0.10177,-0.111022l-0.425585,-0.064763l-0.138778,0.083267l-0.064763,0.185037l0.037007,0.074015l0.222044,0.018504Z M936.415714,1198.425985l0.305311,0.064763l0.111022,-0.018504l0.14803,0.027756l0.018504,-0.046259l-0.166533,-0.064763l-0.129526,-0.083267l0.018504,-0.14803l0.10177,-0.064763v-0.074015l-0.222044,-0.018504l-0.323815,0.194289l-0.018504,0.14803l0.157281,0.083267Z "/>
</svg>
