<svg xmlns="http://www.w3.org/2000/svg" viewBox="508.337 632.289 26.396 27.425">
  <path d="M527.276447,655.255191l0.014,-0.297l0.307,-0.185l0.014,-0.098l0.125,-0.06l0.028,-0.135l0.116,-0.074l0.148,-0.26l0.232,0.01l0.269,0.069l0.084,-0.079l0.028,-0.153l-0.033,-0.069l0.037,-0.075l-0.06,-0.278l0.184,-0.292l-0.229,-0.14l-0.009,-0.29l-0.18,-0.152l-0.185,-0.238l-0.016,-0.343l0.13,-0.118l0.115,-0.006l0.201,-0.486l-0.006,-0.074l-0.137,-0.053l-0.031,-0.086l0.056,-0.13l-0.021,-0.062l0.024,-0.043l0.053,-0.006l0.077,-0.121l-0.015,-0.065l1.197,-0.464l0.841,-0.724l1.117,-0.677l0.473,-0.483l0.09,-0.059l0.142,-0.024l0.05,-0.115l0.08,-0.028l1.349,-1.132l0.185,-0.269l0.009,-0.142l0.22,-0.022l0.053,-0.089l0.229,-0.044l-0.013,-0.151l0.115,-0.068l-0.143,-0.038l-0.297,-0.241l-0.365,-0.253l-0.371,-0.174l-0.445,-0.297l-0.47,-0.457l-0.266,-0.13l-0.192,-0.019l-0.043,0.037l0.08,0.167l0.223,0.105l0.154,0.13l0.037,0.118l0.075,0.049l0.13,0.025l0.142,0.136l0.018,0.112l-0.074,0.024l-0.34,-0.123l-0.05,0.055l0.05,0.242l-0.142,0.266v0.099l-0.044,0.074l-0.092,0.012l-0.044,0.081l0.044,0.13l-0.087,0.08l-0.179,0.025l-0.025,-0.093l0.111,-0.192l-0.018,-0.086l-0.613,-0.396l-0.124,-0.025l-0.08,-0.043l-0.019,-0.087l-0.34,-0.229l-0.161,-0.019l-0.222,0.062l-0.149,-0.062l-0.148,-0.139l-0.106,0.08l-0.204,0.006l-0.185,-0.104h-0.087l-0.031,0.049l-0.086,-0.006l-0.093,-0.086l-0.155,-0.025l-0.068,0.086l-0.08,-0.006l-0.062,-0.049l-0.136,-0.006l-0.087,0.073l-0.247,0.013l-0.093,-0.074l-0.136,0.006l-0.124,0.135h-0.105l0.476,-7.926v-5.178h-12.1v3.846h-2.985l0.04,0.212l0.145,0.104l0.226,-0.006l0.173,0.172l0.019,0.138l0.077,0.003l0.019,-0.11l0.089,-0.043l0.251,0.006l0.099,0.104l-0.046,0.12l-0.013,0.202l0.118,0.111l0.154,0.006l0.118,0.086l0.031,0.251l0.346,0.295l0.18,-0.012l0.092,0.073v0.111l0.31,0.38l-0.013,0.117l0.087,0.079l0.217,0.037l0.247,0.153l0.062,-0.036l-0.056,-0.105l0.037,-0.092l0.161,0.019l0.056,0.098l-0.087,0.067l-0.006,0.08l0.186,0.031l0.006,0.116l0.117,0.129l0.229,-0.012l0.118,0.061l0.049,0.105l0.099,0.043l0.192,-0.031l0.087,0.037l0.031,0.128l0.519,0.332l0.05,0.135l0.185,0.129l0.167,0.503l-0.08,0.147l0.037,0.074l0.173,-0.05l0.062,0.08l-0.167,0.264l0.074,0.135l0.155,-0.006l0.056,0.073l-0.143,0.129l0.038,0.043l0.204,-0.037l0.031,0.099l0.253,-0.007l0.149,0.086l0.185,-0.043l0.161,0.086l-0.068,0.166l0.05,0.061h0.352l0.087,0.08l0.074,-0.049l0.081,0.049l-0.056,0.11l0.154,0.154l-0.024,0.061l-0.161,-0.055l-0.043,0.092l0.099,0.11l-0.112,0.172l-0.173,0.074l-0.025,0.123l0.087,0.079l-0.013,0.092l-0.16,-0.012l-0.007,0.104l0.13,0.025l-0.012,0.073l-0.124,0.105l-0.006,0.19l0.167,0.086l0.019,0.08l-0.149,0.043l-0.018,0.079l0.154,0.08l-0.024,0.092l-0.155,0.006l-0.019,0.111l0.124,0.073l-0.018,0.123h-8.507l-3.19,5.506l0.983,1.279l-0.093,0.213l-0.143,0.159l-0.218,0.027l-0.093,0.086l-0.042,0.281l0.083,0.422l-0.069,0.149l-0.181,0.086l-0.06,0.173l0.051,0.235l0.092,0.104l0.014,0.105l-0.074,0.059l0.005,0.077l0.093,0.05l0.074,0.249l-0.014,0.245l-0.209,0.285l0.005,0.227l-0.084,0.117l-0.111,0.041l-0.102,0.182l0.394,0.31l0.705,0.524l0.737,0.616l0.55,0.42l0.421,0.36l0.495,0.262l1.089,0.707l0.952,0.377l0.631,0.281l0.662,0.164l0.879,0.098l1.101,0.024l0.699,-0.024l0.353,-0.079l0.618,-0.007l0.761,0.128l0.786,0.22l0.73,0.329l1.194,0.536l0.023,-0.063l0.213,0.018l0.047,-0.05l-0.125,-0.171l0.037,-0.211l-0.033,-0.126l0.241,-0.324l0.26,-0.113l0.079,-0.247l0.487,-0.261l0.302,-0.261l0.032,-0.113l0.102,-0.067l0.126,0.036l0.069,-0.032l0.056,-0.094l0.209,-0.027l0.199,0.09l0.084,0.09l0.232,0.027l0.028,-0.041l-0.065,-0.081l-0.005,-0.144l0.065,-0.094l0.06,-0.216l0.102,-0.149l0.256,-0.202l0.037,-0.081l0.222,-0.126l0.344,0.009l0.134,-0.05l0.033,-0.058l0.051,-0.009l0.111,0.022l0.065,-0.049l0.005,-0.113l-0.186,-0.202l0.014,-0.153l-0.13,-0.131l-0.144,0.027l-0.037,-0.058l0.042,-0.176l0.139,-0.027l0.023,-0.054l-0.111,-0.108l0.033,-0.243l0.181,-0.036l0.078,0.122l-0.004,0.099l0.051,0.031l0.069,-0.04l0.024,-0.09l0.273,-0.18l0.242,0.09l0.134,-0.059l0.093,-0.153l0.079,-0.018l0.055,0.113l0.181,0.068z"/>
</svg>
