<svg xmlns="http://www.w3.org/2000/svg" viewBox="1006.707 666.762 20.491 11.814">
  <path d="M1009.469848,671.666454l0.022184,0.162683l0.041903,0.056693l0.002465,0.071482l-0.073947,0.046833l0.002465,0.046833l0.091201,0.059157l-0.002465,0.064087l-0.160218,0.12571l-0.10599,0.032044l-0.007395,0.036973l0.098596,0.044368l0.056693,-0.002465l0.029579,-0.039438l0.118315,0.002465l0.162683,0.081341l0.155288,0.007395l0.152823,-0.081341l0.051763,-0.073947l0.066552,-0.049298l0.083806,-0.00986l0.041903,-0.051763l-0.019719,-0.046833h-0.150359l-0.172543,-0.081341l-0.202121,-0.211981l-0.170078,-0.278533l-0.064087,-0.014789l-0.046833,0.029579l-0.002465,0.073947Z M1010.35228,672.418246l0.046833,0.204586l0.078877,0.101061l0.162683,0.083806l0.088736,0.012324l0.10599,0.103526v0.054228l0.027114,0.032044l0.093666,-0.007395l0.046833,-0.032044l0.081341,-0.002465l0.032044,0.017254l0.066552,-0.007395l0.064087,-0.12571l0.041903,-0.211981l0.049298,-0.118315l0.108455,-0.091201l0.091201,-0.211981l-0.017254,-0.056693l-0.083806,-0.039438l-0.108455,-0.007395l-0.207051,0.036973l-0.118315,0.091201l-0.165148,0.041903l-0.12078,-0.007395l-0.086271,-0.036973l-0.229235,0.002465l-0.041903,0.046833l-0.007395,0.128174Z M1011.486132,672.10274l0.101061,-0.014789l0.022184,-0.014789l-0.002465,-0.024649l-0.083806,-0.00493l-0.061622,0.029579l-0.00493,0.024649l0.029579,0.00493Z M1011.449158,672.67213l0.101061,-0.10599l0.017254,-0.049298l-0.019719,-0.044368l-0.046833,0.002465l-0.071482,0.078877l-0.027114,0.11585l0.046833,0.002465Z M1016.642351,677.679344l-0.139194,0.024746l-0.188685,0.129914l-0.012373,0.074237l0.080423,0.098982l0.250549,0.083516l0.105169,-0.003093l0.055678,-0.055678l0.015466,-0.071144l0.043305,-0.064957l0.06805,-0.024746l0.204151,-0.204151l0.003093,-0.055678l-0.058771,-0.034025l-0.123728,0.006186l-0.170126,0.027839l-0.133008,0.06805Z M1015.132869,672.292537l-0.013919,0.069597l0.037118,0.055678l0.074237,0.013919l0.074237,-0.00928l0.143834,-0.134554l0.041758,-0.074237l-0.041758,-0.023199l-0.162393,0.027839l-0.153113,0.074237Z M1014.014678,673.36897v0.046398l0.018559,0.032479h0.032479l0.013919,-0.055678l-0.018559,-0.037118l-0.046398,0.013919Z M1013.218179,675.019192l0.003093,0.055678l0.136101,0.080423l0.216524,0.003093l0.111355,-0.102076l0.083516,-0.021652l0.012373,-0.049491l-0.06805,-0.074237l-0.040212,-0.102076l0.030932,-0.089703l-0.027839,-0.012373l-0.052584,0.052584l-0.080423,0.012373l-0.046398,0.043305v0.064957l-0.043305,0.064957l-0.117542,0.003093l-0.117542,0.071144Z M1013.904869,674.530467l0.006186,0.034025l0.16394,0.037118l0.201058,0.098982l0.148474,0.015466l0.07733,-0.074237l-0.027839,-0.080423l-0.095889,-0.111355l0.024746,-0.024746l0.098982,0.030932l0.095889,-0.012373l0.08661,-0.061864l-0.006186,-0.049491l0.052584,-0.015466l0.049491,0.052584l0.034025,0.003093l0.052584,-0.027839l0.129914,0.012373l0.021652,-0.034025l-0.058771,-0.052584l-0.061864,-0.129914l0.015466,-0.108262l0.052584,-0.052584l0.058771,-0.133008l-0.040212,-0.012373l-0.074237,0.083516l-0.14538,0.058771h-0.102076l-0.074237,0.024746l-0.136101,0.148474l-0.006186,0.07733l-0.043305,0.024746l-0.114448,-0.012373l-0.105169,0.030932l-0.043305,0.111355l-0.064957,0.071144l-0.170126,0.07733Z M1013.870844,677.895868l0.071144,-0.027839l0.064957,-0.080423v-0.064957l-0.040212,-0.037118h-0.117542l-0.037118,0.052584l0.00928,0.133008l0.049491,0.024746Z M1013.604829,678.260866l0.046398,0.06805h0.034025l0.015466,-0.046398l-0.012373,-0.064957l-0.055678,-0.058771l-0.030932,0.012373l0.003093,0.089703Z M1013.379025,678.028876l0.027839,0.003093l0.021652,-0.027839l-0.003093,-0.052584l-0.024746,-0.040212h-0.027839l-0.012373,0.046398l0.018559,0.071144Z M1015.437356,676.472996l0.096131,0.054228l0.071482,0.012324l0.00986,-0.017254l-0.014789,-0.024649l0.002465,-0.051763l0.073947,-0.044368l0.081341,0.002465l0.091201,-0.012324l0.046833,-0.036973l-0.007395,-0.034509l-0.177472,-0.044368l-0.046833,0.022184l-0.034509,0.093666l-0.041903,0.036973h-0.093666l-0.069017,-0.036973l-0.024649,0.012324l0.036973,0.069017Z M1015.380664,676.586382l0.007395,0.147894l0.091201,0.113385l0.258814,0.167613l0.024649,0.054228l0.157753,0.098596h0.11585l0.049298,-0.024649l0.024649,0.002465l0.024649,0.064087l0.081341,0.073947l0.147894,0.017254l0.086271,-0.024649l0.150359,0.00986l0.059157,-0.044368l0.034509,-0.179937l-0.118315,-0.327831l-0.051763,-0.036973l-0.165148,-0.034509l-0.049298,-0.056693l-0.019719,-0.076412l-0.032044,-0.019719l-0.101061,0.00493l-0.081341,-0.029579l-0.027114,-0.034509l-0.11092,-0.041903l-0.073947,0.034509l-0.113385,-0.00493l-0.083806,0.00986l-0.029579,0.019719l0.022184,0.073947l-0.032044,0.027114h-0.098596l-0.078877,-0.044368l-0.039438,0.00493l-0.029579,0.056693Z M1011.732621,674.333469l0.140499,0.11092l0.036973,0.108455l0.039438,0.046833l0.083806,0.002465l0.007395,-0.034509l-0.032044,-0.019719v-0.036973l0.019719,-0.012324l0.002465,-0.034509l-0.024649,-0.071482l0.022184,-0.091201l0.027114,-0.039438l-0.002465,-0.064087l-0.029579,-0.041903l-0.044368,-0.002465l-0.029579,0.034509l-0.071482,-0.00493l-0.093666,-0.138034l-0.046833,-0.00493l-0.046833,0.027114l-0.084096,0.132234l0.043305,0.095889l0.082695,0.038085Z M1011.498456,674.264452l-0.081341,0.066552l-0.054228,0.11092l-0.002465,0.147894l0.017254,0.044368l0.113385,-0.002465l0.081341,-0.059157l0.073947,-0.014789l0.12571,-0.11585l-0.007395,-0.034509l-0.076412,-0.014789l-0.078877,-0.091201l-0.036973,-0.083806l-0.041903,-0.002465l-0.032044,0.049298Z M1012.117144,674.503546l0.012324,-0.029579l-0.022184,-0.029579l-0.017254,-0.007395l-0.017254,0.00986l0.012324,0.051763l0.032044,0.00493Z M1011.74741,674.661299l-0.014789,0.022184h-0.061622l-0.051763,0.027114l-0.10599,0.007395l-0.138034,-0.024649l-0.076412,0.002465l-0.036973,0.051763l-0.069017,0.145429l-0.046833,0.036973l-0.167613,0.056693l-0.00986,0.041903l0.034509,0.064087l0.135569,0.056693l0.032044,0.061622l0.059157,0.027114l0.157753,-0.054228l0.059157,-0.054228l0.219376,0.024649l0.024649,0.019719l-0.012324,0.044368l0.019719,0.027114l0.142964,-0.032044l0.216911,-0.142964l0.024649,-0.044368l-0.027114,-0.320436l-0.044368,-0.061622l-0.10599,0.007395l-0.041903,-0.024649l-0.002465,-0.039438l-0.071482,-0.073947l-0.039438,0.00986l-0.034509,0.044368v0.051763l0.032044,0.041903Z M1011.419579,675.558521l0.044368,-0.027114l-0.00493,-0.034509l-0.046833,-0.002465l-0.064087,0.024649l-0.00493,0.032044l0.076412,0.007395Z M1013.371775,675.913466l0.034509,-0.014789l0.00986,-0.027114l-0.022184,-0.034509l-0.022184,-0.002465l-0.024649,0.027114v0.041903l0.024649,0.00986Z M1013.761229,675.903606l0.022184,-0.024649l-0.00493,-0.041903h-0.022184l-0.017254,0.029579l0.002465,0.034509l0.019719,0.002465Z M1013.231276,676.122982l0.029579,-0.019719l-0.00493,-0.027114l-0.027114,-0.002465l-0.024649,0.017254l0.002465,0.024649l0.024649,0.007395Z M1012.151653,675.893746l0.022184,0.017254l0.10599,-0.064087l0.044368,-0.069017l0.11585,-0.093666l0.049298,-0.088736l-0.019719,-0.034509l-0.069017,0.007395l-0.170078,0.162683l-0.078877,0.162683Z M1012.56822,675.999737l0.034509,0.027114l0.118315,0.00986l0.049298,-0.061622l0.049298,-0.207051l0.113385,-0.162683l-0.032044,-0.007395l-0.133104,0.041903l-0.076412,0.056693l-0.024649,0.069017l-0.096131,0.152823l-0.002465,0.081341Z M1012.348844,676.14763l-0.022184,0.024649l-0.071482,0.034509l-0.103526,0.197192l0.007395,0.083806l-0.019719,0.051763l-0.083806,0.059157l-0.002465,0.071482l0.194727,0.12078l0.091201,0.007395l0.142964,-0.049298l0.073947,-0.054228l-0.00493,-0.083806l-0.029579,-0.039438l-0.10599,0.00986l-0.066552,-0.027114l0.022184,-0.039438l0.145429,-0.00493l0.022184,-0.054228l-0.046833,-0.101061l0.012324,-0.056693l0.064087,-0.046833l0.027114,-0.059157l-0.002465,-0.10599l-0.071482,-0.039438l-0.12078,0.024649l-0.046833,0.039438l-0.00493,0.036973Z M1012.984787,676.855055v0.061622l0.036973,0.022184l0.036973,-0.024649h0.083806l0.022184,0.017254l0.11092,0.00493l0.022184,-0.017254l-0.032044,-0.046833v-0.046833l0.027114,-0.024649l0.014789,-0.138034l-0.029579,-0.081341l-0.034509,-0.00986l-0.036973,0.024649l-0.022184,-0.002465l0.002465,-0.027114l0.066552,-0.029579l0.088736,0.00986l0.078877,0.093666h0.032044l0.093666,-0.147894l0.039438,0.002465l0.036973,0.051763l0.034509,0.007395l0.024649,-0.019719l0.019719,-0.128174l-0.027114,-0.061622v-0.029579l0.024649,-0.024649l0.032044,-0.10599l-0.00986,-0.118315l-0.039438,-0.012324l-0.051763,0.036973l-0.209516,-0.00493l-0.059157,0.029579l-0.10599,0.147894l-0.162683,0.039438l-0.088736,0.170078l0.00493,0.059157l-0.017254,0.135569l-0.066552,0.056693l-0.002465,0.061622l0.061622,0.069017Z M1010.539467,675.591434l0.148474,-0.023199l0.106715,-0.074237l0.018559,-0.092796l0.055678,-0.013919l0.037118,0.041758l0.078877,0.013919l0.041758,-0.041758l-0.013919,-0.074237l-0.069597,-0.074237l-0.199511,0.018559l-0.324786,0.162393l-0.00928,0.064957l0.129914,0.092796Z M1010.293558,675.860543h0.074237l0.023199,-0.037118l-0.055678,-0.051038l-0.074237,0.00464l-0.027839,0.037118l0.060317,0.046398Z M1010.595145,676.036855l0.074237,0.074237l0.102076,0.013919l0.088156,-0.051038l0.069597,-0.111355l0.097436,-0.032479l0.069597,0.032479l0.111355,-0.00464l0.078877,-0.064957l0.018559,-0.111355l-0.078877,-0.069597l-0.167033,0.032479l-0.125275,0.102076l-0.092796,0.013919l-0.157753,-0.037118l-0.074237,0.032479l-0.032479,0.078877l0.018559,0.102076Z M1008.279885,676.180689l0.078877,0.023199l0.064957,-0.051038l0.106715,-0.00464l0.129914,0.032479l0.041758,-0.023199l-0.00928,-0.037118l-0.162393,-0.055678l-0.106715,-0.069597l-0.092796,0.00928l-0.051038,0.078877v0.097436Z M1008.883059,676.194608l0.078877,-0.018559l0.00464,-0.041758l-0.088156,-0.027839l-0.064957,0.00928l-0.00928,0.060317l0.078877,0.018559Z M1009.574389,676.445158l0.013919,0.046398l0.069597,-0.00464l0.083516,0.064957l0.00464,0.060317l0.055678,0.018559l0.176312,-0.027839l0.167033,0.00928l0.213431,-0.162393l0.074237,-0.115995l-0.046398,-0.134554l-0.078877,-0.088156l-0.078877,-0.00928l-0.046398,0.032479l-0.051038,-0.00928l-0.074237,-0.097436l-0.115995,0.00464l-0.051038,0.083516l-0.129914,0.013919l-0.069597,0.064957l-0.023199,0.125275l-0.092796,0.125275Z M1009.370238,675.299127l0.023199,0.046398l0.037118,-0.018559l0.00464,-0.074237l-0.032479,-0.037118l-0.032479,0.013919v0.069597Z M1009.444475,675.159933l0.074237,0.00928l0.078877,-0.037118l0.375824,-0.00928l0.176312,-0.143834l-0.00928,-0.185592l-0.069597,-0.046398l0.013919,-0.037118l0.088156,0.00464l0.060317,0.055678l-0.00464,0.060317l0.041758,0.018559l0.069597,-0.064957l0.013919,-0.218071l-0.064957,-0.018559l-0.106715,0.055678l-0.194872,0.00928l-0.190232,0.097436l-0.125275,0.208791l-0.111355,0.078877l-0.102076,0.027839l-0.041758,0.051038l0.027839,0.083516Z M1009.379517,674.807308l0.218071,-0.027839l0.171673,-0.24127l0.051038,-0.273748l-0.051038,-0.088156l-0.139194,-0.027839l-0.092796,0.013919l-0.162393,0.218071l-0.129914,0.069597l-0.134554,0.00464l-0.167033,-0.078877l-0.111355,0.018559l-0.097436,0.111355l-0.00928,0.120635l0.060317,0.097436l0.097436,0.013919l0.218071,-0.041758l0.194872,0.032479l0.083516,0.078877Z M1011.717977,677.206085l-0.003093,0.170126l-0.043305,0.157753l-0.083516,0.098982l0.015466,0.061864l0.170126,0.012373l0.102076,0.049491h0.30004l0.055678,-0.049491l-0.024746,-0.123728l-0.071144,-0.043305l-0.043305,-0.123728l0.015466,-0.074237l-0.012373,-0.083516l-0.061864,-0.074237l-0.015466,-0.185592l-0.034025,-0.08661l-0.216524,-0.15466l-0.061864,0.00928l-0.052584,0.102076l-0.006186,0.117542l0.071144,0.219617Z M1011.309674,677.583455h0.061864l0.225804,-0.225804l0.018559,-0.148474l-0.098982,-0.259829l0.003093,-0.08661l0.046398,-0.098982l-0.034025,-0.037118h-0.176312l-0.188685,0.061864l-0.043305,0.061864l-0.012373,0.064957l-0.049491,0.058771v0.08661l0.108262,0.167033l0.06805,0.00928l0.061864,-0.034025l0.021652,0.018559l-0.018559,0.046398l-0.064957,0.061864l-0.015466,0.142287l0.08661,0.111355Z M1011.436495,677.864936l0.204151,-0.018559l0.049491,-0.027839l-0.006186,-0.034025l-0.170126,-0.006186l-0.074237,0.046398l-0.139194,-0.012373l-0.006186,0.034025l0.142287,0.018559Z M1010.16519,677.252483l0.027839,-0.055678l-0.018559,-0.024746l-0.160846,0.07733l-0.136101,0.102076l-0.074237,0.095889v0.098982l0.120635,0.098982l0.15466,0.064957l0.188685,0.179406l0.142287,0.018559l0.074237,-0.021652l0.003093,-0.07733l0.030932,-0.006186l0.058771,0.046398l0.108262,0.018559l0.06805,0.037118l0.071144,0.012373l0.179406,-0.058771l0.071144,-0.061864l0.006186,-0.055678l-0.034025,-0.049491l0.024746,-0.080423l0.061864,-0.006186l0.037118,-0.024746l-0.015466,-0.120635l-0.052584,-0.049491v-0.046398l0.061864,-0.018559l0.003093,-0.049491l-0.06805,-0.052584l-0.098982,-0.15466l0.006186,-0.126821l0.06805,-0.061864v-0.083516l-0.142287,-0.07733l-0.219617,-0.034025l-0.07733,0.024746l-0.003093,0.049491l-0.058771,0.083516l-0.210338,0.092796l-0.074237,0.074237l-0.00928,0.179406l-0.139194,0.133008l-0.108262,-0.006186v-0.021652l0.133008,-0.061864 Z  M1006.706992,669.074062l0.192,-0.136l0.352,-0.006l0.205,0.068l0.397,-0.088l0.204,0.074l0.39,-0.084l0.445,0.01l0.056,-0.084l1.16,-0.575l0.278,0.093l0.585,-0.168l0.213,-0.009l0.557,0.232l0.427,-0.074l1.411,0.167l1.874,-0.854l0.176,-0.13l0.26,-0.25l0.353,-0.149l0.519,-0.349l9.892,0.074l-0.003,0.468l0.264,0.594l0.075,0.014l0.209,0.399l-0.052,0.186l-0.106,0.056l-0.093,0.125l0.014,0.139l0.083,0.111l-0.014,0.093l-0.064,0.033v0.074l0.051,0.097l-0.042,0.07l-0.065,0.023l-0.079,0.009l-0.102,0.098l-0.056,0.185l-0.069,0.116l-0.075,0.005l-0.116,-0.148l-0.083,-0.061l-0.056,0.047l-0.037,0.111l-0.162,0.028l-0.047,-0.074l0.075,-0.075l-0.005,-0.143h-0.047l-0.129,0.222h-0.047l-0.051,-0.148l-0.158,0.009l-0.009,0.06l0.056,0.065l-0.01,0.121l-0.051,0.037l-0.403,0.051l-0.023,0.121l-0.075,0.065l-0.12,0.023l-0.047,0.111l0.079,0.098l0.042,0.153l0.074,0.009l0.047,-0.032h0.083l0.241,0.092l0.056,0.163l0.325,0.093l0.097,0.079l0.056,0.194l0.195,0.163l0.139,0.037l0.084,0.051h0.171l0.065,0.056l-0.056,0.399l-0.046,0.454l0.046,0.358l-0.004,0.208l0.032,0.126l-0.004,0.079l-0.051,0.088v0.362l-0.056,-0.019l-0.06,0.005l-0.075,0.069l-0.088,0.014l-0.041,0.033l-0.116,-0.01l-0.135,-0.069l0.014,-0.093l-0.047,-0.014l-0.116,0.046l-0.055,-0.046l-0.028,-0.07l0.042,-0.032l-0.01,-0.06l-0.074,-0.033l-0.116,0.005l-0.046,0.065l0.023,0.046l0.065,-0.014l0.028,0.047l-0.074,0.181l-0.061,0.032l-0.037,0.158l-0.06,0.023l-0.176,-0.06l-0.079,-0.084l-0.075,0.005l-0.065,0.167l-0.273,0.093h-0.107l-0.181,-0.065l-0.111,-0.01l-0.061,0.056l-0.106,0.014l-0.07,0.06l-0.032,0.047l-0.061,0.004l-0.176,-0.102l-0.093,-0.116l-0.079,-0.018l-0.236,0.046l-0.195,-0.102h-0.186l-0.093,0.042l-0.13,-0.074l-0.352,0.501l-0.886,0.445l-0.385,0.26l-0.71,-0.079l-0.293,0.019l-0.273,0.227l-0.423,0.64l-0.473,1.17l-0.541,0.959l-0.305,-0.17l-0.024,0.021l0.071,0.074l0.176,0.099l0.03,0.068l-0.126,0.224l-0.201,0.247l-0.195,0.096l-0.133,0.126l-0.17,0.099l-0.13,-0.006l-0.08,-0.052l-0.006,-0.068l-0.031,-0.013l-0.044,0.003l-0.046,-0.08l0.046,-0.118l0.041,-0.269l-0.028,-0.173l0.012,-0.068l0.121,-0.071l0.031,-0.053l0.034,-0.173l0.04,-0.012l0.04,0.024l0.044,-0.015l0.08,-0.115l0.056,-0.006l0.034,-0.031l-0.003,-0.086l0.049,-0.065l0.084,0.003l0.139,0.155l0.037,0.074l0.068,0.015l0.152,-0.037l0.046,-0.08l-0.053,-0.022l-0.065,0.056l-0.136,-0.01l-0.065,-0.065l0.003,-0.037l0.056,-0.003l0.031,0.047l0.053,-0.003l0.034,-0.068l-0.025,-0.084l-0.081,-0.012l-0.037,0.049l-0.058,-0.009l-0.056,-0.065l0.028,-0.149l0.077,-0.009l0.093,0.062l0.111,0.006l0.056,-0.052l0.077,0.009l0.013,0.056l-0.016,0.071l0.025,0.015l0.037,-0.046l0.009,-0.09l0.037,-0.046l0.102,-0.01l0.01,-0.031l-0.096,-0.012l-0.05,0.022l-0.086,-0.003l-0.059,-0.016l-0.074,-0.006l-0.05,0.019l-0.114,-0.022l-0.013,-0.074l0.084,-0.112l0.062,0.01l0.031,0.037l0.065,0.006l0.028,-0.081l0.061,-0.021l0.041,0.018l0.037,0.081l0.071,0.037l0.025,-0.009l-0.022,-0.062l-0.068,-0.053l-0.003,-0.034l0.025,-0.022l0.049,0.007l0.111,0.071l0.025,-0.016l-0.111,-0.123l-0.056,-0.007l-0.009,-0.037l0.096,-0.139l0.018,-0.198l-0.031,-0.003l-0.058,0.087l-0.013,0.043l0.019,0.028l-0.016,0.046l-0.062,0.062l-0.03,0.09l-0.05,0.025l-0.025,-0.022l0.041,-0.034l0.058,-0.241l-0.028,-0.007l-0.055,0.133l-0.062,0.093h-0.028l-0.025,-0.117l0.019,-0.133l0.056,-0.031v-0.022l-0.056,-0.012l-0.031,-0.161l0.025,-0.062l-0.031,-0.006l-0.059,0.083l0.009,0.109l0.028,0.024l-0.012,0.028l-0.084,0.006l-0.043,0.025l0.009,0.025l0.074,0.006l0.028,-0.019l0.025,0.004l0.009,0.102l-0.028,0.021l-0.058,-0.012l-0.019,0.037l0.084,0.08l0.049,0.143l-0.04,0.037l-0.056,-0.013l-0.059,-0.108l-0.179,-0.124l-0.025,0.019l0.059,0.087l0.124,0.086l0.003,0.071l-0.053,0.044l-0.052,0.049l-0.022,0.105l-0.077,0.118l-0.047,0.099l-0.092,0.08l-0.059,-0.018l-0.019,-0.118h-0.025l-0.034,0.087l-0.009,0.142l-0.046,0.05l-0.149,0.052l-0.065,-0.031l-0.043,0.01l-0.053,0.071l-0.006,0.077l-0.062,0.105l-0.157,0.096h-0.044l-0.065,-0.031l-0.148,0.006l-0.176,0.031l-0.038,-0.024l0.007,-0.118l0.105,-0.17l0.006,-0.183l-0.099,-0.204l-0.049,-0.195l0.024,-0.071l0.087,-0.021l0.17,0.034h0.13l0.053,-0.047l0.027,-0.151l-0.123,-0.291l0.012,-0.04l0.065,-0.031l0.012,-0.133h-0.031l-0.034,0.096l-0.052,0.043l-0.022,0.071l0.108,0.3l-0.006,0.084l-0.037,0.046l-0.093,-0.006l-0.179,-0.05l-0.124,0.013l-0.083,0.052l-0.016,0.056l-0.04,0.018l-0.145,-0.024l-0.044,-0.034l-0.024,-0.099l-0.062,-0.031l-0.087,0.006l-0.059,-0.015l-0.034,-0.041l-0.114,-0.055l-0.043,-0.084l-0.202,-0.052l-0.092,0.021l-0.019,0.065l-0.037,0.071h-0.049l-0.093,-0.139l-0.09,-0.049l-0.031,-0.102l0.198,-0.396l0.111,-0.093l0.109,-0.043h0.065l0.136,0.068l0.102,0.003l0.111,-0.096l0.074,-0.146l0.177,-0.201l0.151,-0.089l0.075,-0.096l-0.022,-0.016l-0.093,0.084l-0.152,0.086l-0.185,0.211l-0.068,0.139l-0.084,0.053l-0.08,-0.004l-0.127,-0.061l-0.015,-0.053l0.04,-0.118l0.015,-0.157l0.059,-0.093l0.13,-0.071l-0.006,-0.025l-0.152,0.046l-0.093,0.112l-0.024,0.176l-0.078,0.087l-0.198,0.117l-0.074,0.006l-0.059,0.031l-0.071,0.096l-0.151,0.112h-0.068l-0.037,0.034l-0.019,0.083l-0.059,0.025l-0.145,-0.006l-0.047,-0.041l-0.003,-0.105l0.034,-0.058l0.115,-0.341v-0.065l0.037,-0.043l0.049,-0.015l0.047,-0.044l-0.006,-0.086l-0.078,-0.102l0.003,-0.115l0.047,-0.009l0.055,0.052l0.059,-0.003l0.087,-0.065l0.105,-0.034l0.028,-0.062l-0.013,-0.046l0.038,-0.025l0.052,0.025l0.074,0.093l0.072,0.028l0.018,-0.034l-0.077,-0.056l-0.006,-0.084l0.009,-0.111l0.028,-0.006l0.024,0.022h0.038l0.031,-0.053l0.089,-0.003l0.034,0.034l-0.006,0.034l0.074,0.053l0.034,-0.004l0.006,-0.12l0.035,-0.022l0.015,-0.034l-0.05,-0.074l0.022,-0.031l0.043,0.003l0.028,0.053l0.04,0.003l0.019,-0.05l0.09,-0.003l0.062,0.056l0.012,0.083l0.04,-0.004l-0.005,-0.094l0.025,-0.042l-0.002,-0.052l-0.148,-0.056l-0.101,-0.003l-0.018,-0.032l0.163,-0.113l0.025,-0.062l0.052,-0.012l0.069,0.084l0.066,0.155l0.141,0.067l0.135,-0.008l-0.002,-0.034l-0.128,-0.04l-0.092,-0.079l-0.113,-0.199l0.034,-0.023l0.109,0.047l0.096,0.003l0.037,-0.045l0.153,-0.009l0.106,0.076l-0.008,0.113l0.035,0.163l0.054,-0.002l0.003,-0.099l0.017,-0.081l-0.012,-0.106l-0.082,-0.072l0.022,-0.079l0.136,-0.042l0.271,0.057l0.16,0.074l0.141,0.131l0.042,0.116l0.204,0.098l0.237,-0.037v-0.039l-0.094,-0.005l-0.145,0.002l-0.138,-0.079l-0.057,-0.12l-0.16,-0.124l-0.21,-0.118l-0.217,-0.059l-0.11,-0.094l-0.032,0.008l-0.013,0.069l-0.086,0.074l-0.185,0.066l-0.148,0.01l-0.037,-0.039l0.01,-0.045l0.197,-0.034l0.116,-0.109l0.084,-0.246l-0.035,-0.005l-0.091,0.076l-0.089,0.18l-0.037,0.03l-0.13,0.012l-0.067,-0.044l-0.019,-0.067l0.071,-0.071l-0.02,-0.018l-0.125,0.035l-0.05,0.061l0.01,0.057l0.074,0.069l-0.005,0.089l-0.042,0.01l-0.071,-0.035l-0.047,-0.066l-0.03,-0.003l-0.017,0.064l0.02,0.094l-0.049,0.059l-0.042,-0.015l0.01,-0.128l-0.033,-0.162l-0.081,-0.094l-0.024,0.015l0.039,0.093l0.012,0.198l-0.027,0.009l-0.042,-0.017l-0.032,0.015l0.072,0.222l-0.025,0.015l-0.173,-0.188l-0.069,-0.187l-0.059,-0.003l-0.014,0.064l0.056,0.188l0.131,0.192l-0.022,0.02l-0.106,-0.04l-0.035,0.023l0.037,0.138l-0.064,0.022l-0.084,-0.037l-0.133,-0.126l-0.024,0.017l0.002,0.109l0.017,0.093l-0.022,0.013l-0.049,-0.032l-0.035,0.005v0.098h-0.029l-0.057,-0.123l-0.096,-0.123l0.002,-0.146l0.084,-0.069l0.015,-0.066l-0.02,-0.062l0.035,-0.047l0.044,-0.002l0.057,0.061l0.027,-0.007l-0.022,-0.103l-0.052,-0.04l-0.064,0.003l-0.079,0.061l-0.057,0.008l-0.143,-0.028l-0.014,-0.066l0.044,-0.047l0.006,-0.077l-0.058,-0.087l0.009,-0.025l0.04,-0.015l0.016,-0.031l-0.038,-0.019l-0.095,0.01l-0.041,0.031l-0.018,0.123l-0.04,0.053h-0.038l-0.099,-0.062l-0.04,-0.096l0.01,-0.065l0.08,-0.142l-0.028,-0.009l-0.034,0.021l-0.012,0.047l-0.053,0.024l-0.012,-0.024l0.031,-0.078l0.13,-0.154l0.037,-0.075l0.031,-0.111l0.34,-0.349l0.071,-0.041l0.114,0.019l0.096,-0.022l0.18,-0.17l0.065,-0.124l0.08,-0.046h0.142l0.239,0.114l0.16,0.035l0.149,-0.007l0.056,-0.028h0.074l0.046,0.028l0.074,-0.003l0.059,-0.04l0.115,-0.019l0.062,0.016l0.179,-0.006l0.114,-0.047l0.038,-0.062l0.095,-0.055l0.081,-0.009l0.223,-0.152l0.086,-0.149l0.09,-0.064l0.102,0.015l0.059,0.049l0.021,0.112l-0.031,0.108l-0.136,0.124l-0.058,0.145l0.003,0.192l0.058,0.056l0.016,0.058l-0.016,0.047l0.019,0.145l0.065,0.059l0.22,0.04l0.065,-0.009l0.049,0.031l0.015,0.046l0.115,0.127l0.093,0.056l0.136,0.009l0.114,-0.046l-0.018,-0.034l-0.107,0.03l-0.118,-0.014l-0.069,-0.052l-0.072,-0.143l-0.12,-0.109l-0.171,-0.034l-0.088,-0.069l-0.057,-0.175l0.054,-0.195l0.116,-0.128l0.072,-0.234l-0.003,-0.141l0.052,-0.079l0.064,-0.022l0.002,-0.024l-0.037,-0.092l-0.13,-0.108l-0.079,-0.007l-0.039,0.019l-0.249,0.01l-0.23,0.084l-0.152,0.121l-0.084,0.162l-0.128,0.131l-0.087,0.057l-0.088,0.005l-0.178,-0.055l-0.224,-0.032l-0.286,0.015l-0.054,-0.029l-0.089,-0.153l-0.146,-0.099l-0.266,-0.034l-0.217,0.034l-0.189,0.136l-0.097,0.027l-0.123,-0.022l-0.153,0.054l-0.116,0.18l-0.142,0.089l-0.094,0.022l-0.141,0.084l-0.15,0.18l-0.042,0.093l-0.069,0.042l-0.091,0.007l-0.079,0.035l-0.141,0.153l-0.118,0.047l-0.301,0.005l-0.426,0.189l-0.131,0.111l-0.093,0.027l-0.096,-0.034l-0.037,-0.094l0.081,-0.261l0.106,-0.116l0.049,-0.106l-0.012,-0.133l0.022,-0.079l0.044,-0.037l0.089,0.008l0.185,0.12l0.136,0.01l0.172,-0.066l-0.002,-0.027l-0.18,0.039l-0.091,-0.007l-0.168,-0.114l-0.133,-0.017l-0.077,0.017l-0.034,0.062l-0.015,0.096l-0.002,0.133l-0.03,0.062l-0.158,0.148l-0.042,0.076l-0.004,0.108l-0.042,0.042l-0.138,0.099h-0.047l-0.027,-0.04l-0.037,0.003l-0.052,0.032l-0.205,-0.005l-0.083,0.027l-0.111,0.084l-0.04,-0.005l0.005,-0.111l-0.034,-0.111l0.005,-0.125l0.036,-0.074l0.092,-0.079l0.029,-0.059l-0.012,-0.171l0.079,-0.15l0.162,-0.197l0.084,-0.052l0.045,-0.066l0.047,-0.121l0.096,-0.131l0.064,-0.044l0.079,-0.116l0.088,-0.052l0.106,-0.027l0.062,-0.039l0.059,-0.074l0.084,-0.02l0.091,0.025l0.03,0.152l0.024,0.06l0.096,0.039l0.06,-0.027l0.115,0.005l0.079,-0.02l0.037,-0.064l-0.017,-0.103l0.012,-0.037l0.079,-0.02l0.116,-0.104l0.094,0.008l0.069,0.054l0.054,0.138l0.052,0.047h0.145l0.052,-0.05l-0.025,-0.009l-0.056,0.032l-0.087,-0.008l-0.039,-0.039l-0.044,-0.126l-0.094,-0.076l-0.146,-0.02l-0.12,0.108l-0.094,0.025l-0.032,0.064l0.027,0.099l-0.027,0.042h-0.16l-0.059,0.017l-0.04,-0.017l-0.002,-0.133l-0.074,-0.101l-0.128,-0.023h-0.079l-0.101,0.045l-0.291,0.007l-0.057,0.054l-0.054,0.02l-0.064,0.003l-0.052,0.014l-0.131,0.146l-0.054,0.034h-0.052l-0.083,-0.054l-0.042,-0.094l-0.089,-0.049l-0.091,-0.005l-0.032,-0.034l0.014,-0.148l-0.029,-0.045l0.007,-0.059l0.178,-0.138v-0.044l-0.057,-0.035l-0.029,0.008l-0.033,0.074l-0.034,0.009l-0.032,-0.029l-0.02,0.005l0.005,0.081l-0.025,0.005l-0.086,-0.067l-0.02,0.02l0.087,0.115l0.018,0.086l-0.003,0.152l0.065,0.08l0.093,0.01l0.062,0.058l0.025,0.081l0.108,0.111l-0.009,0.074l-0.201,0.174l-0.106,0.031l-0.451,-0.022l-0.118,0.043l-0.154,0.195l-0.072,0.034l-0.068,-0.003l-0.068,-0.087l-0.126,-0.074l-0.387,-0.052l-0.212,-0.114l-0.087,-0.088l-0.078,-0.207l-0.155,-0.133l-0.161,-0.068l-0.093,-0.003l-0.139,-0.099l-0.025,-0.055l0.053,-0.112l-0.012,-0.185l-0.093,-0.149l0.003,-0.071l0.055,-0.068l0.056,-0.263l0.087,-0.105l0.34,-0.13l0.059,-0.065l0.031,-0.145l0.117,-0.158l0.31,-0.173l0.411,-0.102l0.084,-0.078l0.117,-0.192l0.139,-0.086l0.189,-0.031l0.142,0.003l0.189,0.074l0.201,0.065l0.176,0.025l0.09,0.046l0.152,0.214l0.111,0.062l0.133,0.018l0.124,0.096l0.074,0.111l0.155,0.112l0.108,0.012l0.145,-0.117l0.164,-0.05l0.003,-0.022l-0.198,0.034l-0.123,0.103l-0.078,-0.007l-0.139,-0.099l-0.071,-0.114l-0.139,-0.108l-0.143,-0.025l-0.074,-0.053l-0.17,-0.21l-0.102,-0.062l-0.189,-0.028l-0.204,-0.071l-0.201,-0.093h-0.189l-0.182,0.025l-0.158,0.084l-0.117,0.142l-0.031,0.111l-0.047,0.037l-0.284,0.016l-0.161,0.015l-0.121,-0.092l-0.083,-0.01l-0.007,0.031l0.087,0.028l0.046,0.046l-0.006,0.038l-0.204,0.095l-0.21,0.226l-0.09,0.084l-0.164,0.049l-0.068,-0.028l-0.046,-0.046l0.006,-0.071l0.173,-0.158v-0.059l-0.056,-0.058l-0.024,0.012l0.021,0.053l-0.006,0.043l-0.158,0.108l-0.024,0.127l0.062,0.127l-0.01,0.052l-0.052,0.041h-0.056l-0.192,-0.065l-0.114,0.015l-0.04,0.059l-0.137,0.012l-0.083,0.04l-0.133,0.003l-0.161,-0.074l-0.266,-0.321l-0.17,-0.167l-0.173,-0.093h-0.087l-0.074,-0.022l-0.149,-0.158l-0.216,-0.13l-0.081,-0.136l-0.027,0.003l0.003,0.053l0.04,0.071l-0.022,0.013l-0.083,-0.065l-0.102,-0.031l-0.09,0.012l-0.038,0.015l-0.027,-0.046z"/>
</svg>
