<svg xmlns="http://www.w3.org/2000/svg" viewBox="711.749 694.486 32.562 48.789">
  <path d="M731.056788,704.702154l0.03253,-0.383464l0.037178,-0.04158l0.037178,0.073921l-0.023236,0.272583l-0.041825,0.078541h-0.041825Z M730.50377,705.815585l0.185888,-0.323403l0.171947,-0.217142l-0.027883,-0.04158l-0.08365,0.01848l-0.144063,0.194042l-0.144063,0.388084l0.041825,-0.01848Z M730.675717,706.467011l0.102239,-0.092401l0.055766,-0.110881l-0.004647,-0.05082l-0.041825,0.01848l-0.074355,0.138601l-0.079003,0.106261l0.041825,-0.00924Z M730.406179,706.406951l0.023236,-0.120121l-0.009294,-0.097021l-0.041825,0.00924l-0.013942,0.087781l0.004647,0.147841l0.037178,-0.02772Z M730.494476,706.092788l0.060414,-0.120121v-0.087781l-0.041825,0.01386l-0.051119,0.083161l-0.004647,0.129361l0.037178,-0.01848Z M730.50377,706.582512l0.041825,-0.189422l0.097591,-0.180182l0.329952,-0.448144l0.051119,-0.133981l-0.065061,-0.05082l-0.213772,0.02772l-0.097591,0.133981l-0.013942,0.180182l-0.139416,0.277203l-0.037178,0.138601l0.013942,0.258722l0.03253,-0.01386Z M731.145085,705.616923l0.269538,-0.170942l0.158005,-0.02772l0.297421,-0.189422l-0.009294,-0.055441l-0.227713,-0.092401l-0.153358,0.04158l-0.292774,0.281823l-0.079003,0.194042l0.037178,0.01848Z M730.824427,705.501422l0.060414,0.00462l0.241655,-0.198662l0.292774,-0.318783l0.102239,-0.02772l0.03253,-0.060061l-0.134769,-0.170942l-0.125475,-0.01848l-0.074355,0.064681l-0.074355,0.249482l-0.204477,0.272583l-0.11618,0.203282Z  M716.154288,716.81031l-0.074,-0.115l-4.262,-4.829l-0.069,-0.117l0.029,-0.033l0.115,0.051l0.033,0.065l0.2,-0.128l0.118,-0.285l0.348,-0.467l0.047,-0.142l0.284,-0.113l0.088,0.071l0.083,-0.03l0.123,-0.261l-0.035,-0.089l0.071,-0.107l0.271,0.035l0.083,-0.154l-0.101,-0.089l0.095,-0.274l0.106,-0.053l-0.047,-0.065l-0.177,-0.012l-0.218,-0.339l0.188,-0.553l-0.047,-0.327l-0.153,-0.059v-0.143l0.059,-0.107l-0.071,-0.154l-0.224,-0.036l-0.059,-0.333l0.248,-0.368l0.094,-0.285l0.177,-0.226l0.153,-0.036l0.154,0.107l0.106,-0.012l0.059,-0.095l0.306,0.024l0.107,-0.095l0.117,0.012l0.059,0.083h0.248l0.094,-0.167l0.189,-0.047v-0.107l-0.13,-0.071v-0.214l0.166,-0.036l0.212,0.19l0.2,0.024l0.095,-0.095l0.129,0.024l0.413,0.237l0.201,-0.023l0.224,-0.428l0.224,-0.119l0.625,-0.107l0.047,-0.131l0.106,-0.036h0.177l0.342,-0.368l0.295,-0.059l0.106,0.106l0.107,-0.059l0.011,-0.345l0.083,-0.154l0.259,-0.083l0.142,-0.309l-0.012,-0.416l-0.436,-0.286l-0.283,0.048l-0.154,-0.048l-0.07,-0.142l-0.189,-0.024l-0.26,0.143l-0.177,0.344l-0.117,-0.012l-0.166,-0.273l-0.342,-0.273l-0.082,-0.286l0.283,-0.297l0.035,-0.178l-0.153,-0.44l-0.177,-0.178l-0.024,-0.19l-0.141,-0.072l-0.118,0.012l-0.236,-0.487l0.106,-0.226l0.295,-0.024l0.142,-0.119l0.059,-0.309l0.141,-0.095l0.083,0.095l0.082,-0.095l0.047,-0.38l-0.047,-0.19l0.295,-0.393l0.047,-0.225l0.283,-0.107l0.472,0.107l0.401,-0.024l0.696,-0.547l0.094,-0.25l0.177,-0.13l0.236,-0.036l0.248,-0.178l0.047,-0.19l0.224,-0.096l0.201,0.107l0.224,-0.107l0.2,-0.19l-0.023,-0.214l0.118,-0.225l-0.012,-0.214l0.236,-0.309l0.365,-0.06l0.425,-0.095l0.165,-0.226l-0.035,-0.249l-1.156,-1.494l0.055,-0.121l0.318,0.269l0.237,0.335l0.111,0.224l0.228,0.28l0.251,0.084l0.093,-0.051l-0.153,-0.22l0.06,-0.102l0.395,0.07l0.497,0.326l1.311,0.709l1.837,1.162l0.762,0.746l0.368,0.299l0.462,0.543l0.53,0.522l0.195,0.112l0.14,0.168l0.046,0.177l0.18,0.28l0.211,0.121l0.204,0.009l0.285,0.218l0.356,0.5l0.856,1.026l0.092,0.345l-0.018,0.503l-0.056,0.271l0.009,0.158l0.062,0.224l-0.062,0.852l-0.123,0.267l-0.261,0.205l-0.359,0.87l-0.025,0.274l0.016,0.395l-0.121,0.736l0.037,0.625l-0.121,0.475l-0.232,0.261l-0.205,0.15l-0.195,0.494l-0.177,0.177l-0.585,0.261l-0.288,0.326l-0.102,0.383l0.065,0.074l0.204,-0.354l0.288,-0.299l0.502,-0.177l0.242,-0.307l0.037,-0.224l0.177,-0.326l0.297,-0.196l0.093,0.018l0.074,0.476l0.149,0.28l0.019,0.755l-0.103,0.401l0.056,0.046l0.121,-0.186l0.065,-0.364l-0.019,-0.652l-0.176,-0.411l-0.047,-0.568l0.112,-0.606l0.037,-0.802l0.186,-0.485l0.251,-0.261l0.102,-0.289l0.428,-0.457l0.585,-0.149l0.558,0.158l0.409,0.317v0.215l-0.102,0.298l0.018,0.382l-0.13,0.383l-0.074,0.391l-0.353,0.401l0.12,-0.019l0.326,-0.326l0.139,-0.401l0.13,-0.419l-0.018,-0.392l0.167,-0.485l0.102,-0.093l0.53,0.065l0.297,0.131l0.66,0.606l0.762,0.652l1.404,1.371l0.176,0.457l0.177,0.308l0.012,0.354l-0.012,0.273l-0.074,0.038l-0.453,0.006l-0.155,0.205l0.081,-0.019l0.112,-0.093h0.446l0.124,-0.074l0.031,-0.199l0.018,-0.529l0.112,-0.236l0.223,-0.056l0.626,0.274l0.57,0.466l0.619,0.603l0.174,0.422l0.148,0.566l0.01,0.479l0.046,0.14l-0.083,0.368l-0.135,0.266l-0.014,0.205l-0.088,0.168l0.032,0.195l0.093,0.075l0.005,0.144l-0.028,0.164l0.028,0.125l-0.061,0.285l-0.223,0.391l-0.376,0.373l-0.047,0.14l0.01,0.383l-0.051,0.111l-0.349,0.266v0.159l0.209,0.027l0.074,0.074l-0.032,0.338l0.116,0.235l0.098,0.009l0.042,-0.078l-0.047,-0.171l0.079,-0.06l0.172,0.046l0.274,0.481l0.005,0.161l-0.228,0.185l-0.079,-0.023l-0.139,-0.287l-0.172,-0.009l-0.144,0.102l-0.047,0.268l-0.111,0.245l0.014,0.18l0.204,0.157l0.028,0.125l-0.088,0.051l-0.137,-0.133l-0.111,0.006l-0.056,0.105l-0.223,0.018l-0.229,0.13l-0.453,0.018l-0.21,-0.055l-0.062,-0.062l-0.118,-0.024l-0.13,0.049l-0.304,0.074l-0.167,-0.019l-0.273,-0.08l-0.21,0.056l-0.347,0.302v0.16l-0.124,0.061l-0.18,0.006l-0.093,-0.067l-0.13,0.012l-0.359,0.351l-0.143,0.259l-0.099,0.043l-0.031,0.172l0.118,0.191l0.254,0.087l0.192,0.468l-0.013,0.234l0.044,0.129l-0.026,0.142l-0.265,0.4l-0.087,0.296l-0.155,0.388l-0.266,0.29l-0.013,0.295l0.105,0.154l-0.061,0.13l-0.217,0.067l-0.038,0.068l0.007,0.204l-0.093,0.135l-0.093,0.037l-0.18,0.283l-0.13,0.432l0.13,0.314l0.118,0.154v0.308l-0.056,0.129l0.068,0.203l0.391,0.315l0.192,0.03l0.545,0.752l0.074,0.357l0.062,0.487l0.192,0.148l0.372,0.129l0.192,0.179l0.075,0.203l0.161,0.148l0.111,0.055l0.186,0.382l-0.043,0.185l-0.335,0.222l-0.006,0.117l0.273,0.221l0.625,0.068l0.261,-0.074l0.124,0.013l0.136,0.147l0.254,-0.049l0.08,-0.228l0.075,-0.006l0.111,0.123h0.459l0.093,-0.135l0.099,0.012l0.087,0.364l-0.037,0.314l0.055,0.228l-0.093,0.329l0.047,0.425l0.121,0.083l0.13,-0.073l0.083,0.092l-0.055,0.185l0.269,0.249l0.009,0.277l-0.12,0.324l0.093,0.12l0.167,-0.028l0.084,0.111l-0.093,0.12l-0.214,0.13l0.028,0.184l0.269,0.296l0.298,0.019l0.065,0.073l-0.075,0.13l0.233,0.222l0.065,0.258l0.232,0.416l0.205,0.056l0.046,0.12l-0.046,0.24l0.223,0.305l-0.019,0.212l0.112,0.093h0.232l0.019,0.12l-0.075,0.12l0.168,0.268l-0.056,0.148l0.093,0.138l0.223,0.093l0.074,0.175l-0.046,0.139l0.083,0.176l0.353,0.101l0.047,0.12l-0.009,0.277l0.269,0.527l0.195,0.13l0.307,0.425l0.028,0.129l0.158,0.028l0.558,-0.028l0.241,0.092l0.168,0.204l0.232,0.101l0.084,0.111l-0.385,0.259h-0.272l-0.143,-0.166l-0.223,-0.007l-0.241,0.148l-0.36,-0.006l-0.353,0.277l-0.037,0.111l-0.093,0.025l-0.074,-0.136l-0.589,-0.178l-0.087,-0.124l-0.155,-0.037l-0.279,0.13l-0.179,-0.019l-0.217,-0.265l-0.18,-0.098l-0.031,-0.185l-0.105,-0.197l-0.18,-0.031l-0.211,0.154l-0.36,0.082l-0.205,0.295l-0.107,0.01l-0.218,-0.287l-0.191,0.005l-0.316,0.088l-0.111,0.268l-0.298,0.12l-0.139,0.152l-0.098,0.555l-0.288,0.097l-0.088,0.129l-0.098,0.31l-0.265,0.24l-0.344,-0.033l-0.148,0.079l-0.126,-0.009l-0.088,-0.102l-0.669,-0.162l-0.177,0.051l-0.102,0.157l-0.572,0.18l-0.111,0.144l-0.158,0.009l-0.344,-0.097l-0.065,0.065l0.107,0.157l0.014,0.337l-0.154,0.416l-0.107,0.023l-0.148,-0.088l-0.214,-0.009l-0.293,0.134l-0.214,-0.088l-0.074,-0.282l-0.214,-0.069l-0.223,0.102l-0.097,0.004l-0.158,-0.106l-0.284,0.005l-0.06,-0.148l-0.07,-0.019l-0.376,0.388l-0.028,0.171l0.093,0.157l-0.061,0.097l-0.66,0.01l-0.172,0.087l0.042,0.278l0.26,0.277l-0.055,0.425l-0.247,0.24l-0.158,-0.014l-0.046,-0.111l-0.181,-0.023l-0.126,0.106l-0.623,-0.124l-0.195,0.041l-0.121,0.467l-0.399,0.268l-0.302,-0.019l-0.256,-0.254l-0.158,-0.037l-0.06,-0.101l0.083,-0.171l-0.227,-0.328l-0.549,-0.005l-1.329,-0.388l-0.413,-0.217l-0.084,-0.287l-0.344,-0.429l-0.232,0.004l-0.344,-0.328l0.018,-0.124l-0.097,-0.148l-0.177,-0.06l-0.158,-0.139l-0.023,-0.185l-0.065,-0.069l-0.112,-0.042l-0.055,-0.181l-0.254,-0.16l-0.332,0.06l-0.428,-0.25l0.004,-0.229l0.161,-0.123l0.043,-0.241l-0.099,-0.043l-0.099,0.068l-0.422,-0.025l-0.093,-0.086l-0.024,-0.265l0.204,-0.77l-0.068,-0.148l-0.006,-0.215l0.105,-0.136v-0.178l-0.099,-0.148v-0.228l0.124,-0.499l-0.081,-0.216l-0.173,-0.037l-0.155,0.068l-0.167,-0.049l-0.403,-0.388l-0.188,-0.039l-0.092,-0.148l0.069,-0.143l0.005,-0.485l-0.153,-0.162l-0.093,-0.513l-0.149,-0.027l-0.088,-0.116l0.055,-0.134l-0.195,-0.466l0.009,-0.971l0.061,-0.563l0.116,-0.139l0.088,-0.3l-0.06,-0.139l0.046,-0.388l0.117,-0.101l0.176,-0.402l-0.032,-0.222l0.051,-0.171l0.153,-0.037l0.042,-0.092l-0.047,-0.116l0.344,-0.633l0.168,-0.06l0.034,-0.117l-0.229,-0.465l0.199,-0.374l-0.018,-0.125l-0.191,-0.097l-0.167,-0.273l0.088,-0.231l0.251,-0.064l0.26,-0.102l0.117,-0.148l0.515,-0.328l0.075,-0.097l-0.061,-0.254l0.056,-0.166l0.274,-0.07l0.256,-0.152l0.028,-0.134l-0.061,-0.3l0.158,-0.213l0.307,-0.166l-0.028,-0.18l-0.167,-0.079l-0.153,0.069l-0.07,-0.05l0.023,-0.125l-0.469,-0.513l0.181,-0.416l-0.163,-0.078l-0.162,0.004l-0.344,-0.18l-0.084,-0.397l0.093,-0.171l-0.037,-0.111l0.018,-0.116l0.298,-0.318l0.06,-0.213l-0.051,-0.083l-0.246,-0.069l-0.4,-0.291l-0.083,-0.13l-0.084,-0.027l-0.121,0.097l-0.214,-0.051l-0.097,-0.093l-0.13,-0.041l-0.135,0.078l-0.075,-0.027l-0.027,-0.13l-0.256,-0.078l-0.153,0.055l-0.53,-0.041l-0.056,-0.181h-0.149l-0.097,0.13l-0.256,-0.01l-0.111,-0.106l0.055,-0.277l0.186,-0.083l0.01,-0.116l0.074,-0.069l0.218,-0.009l0.089,-0.102l-0.014,-0.18l0.144,-0.213l0.153,-0.087l0.014,-0.074l-0.074,-0.051v-0.083l0.069,-0.097l0.005,-0.208l-0.056,-0.143l0.038,-0.222l0.088,-0.097l0.079,-0.448l0.091,-0.239l0.006,-0.376l0.106,-0.172l-0.027,-0.285l-0.11,-0.079l-0.198,-0.024l-0.248,-0.271l-0.155,-0.05l-0.12,-0.366l-0.103,-0.12l-0.049,-0.191l-0.068,-0.025l-0.23,0.129l-0.136,-0.055l-0.012,-0.16l-0.112,-0.049l-0.186,0.037l-0.582,0.369l-0.242,0.006l-0.09,-0.058l-0.238,0.037l-0.127,0.175l-0.099,0.003l-0.1,-0.114l-0.703,-0.003l-0.276,-0.138l-0.421,-0.006l-0.357,0.18z"/>
</svg>
