<svg xmlns="http://www.w3.org/2000/svg" viewBox="527.276 640.960 41.211 24.039">
  <path d="M538.11966,662.651032l-0.030932,-0.027839l0.003093,-0.037118l0.069597,-0.00464l0.032479,0.037118l-0.00464,0.037118l-0.069597,-0.00464Z M538.608386,663.195435l0.160846,-0.030932l0.049491,-0.095889l-0.037118,-0.136101l-0.207244,-0.052584l-0.08661,0.071144l-0.015466,0.179406l0.136101,0.064957Z M538.373302,662.821158l0.058771,-0.055678l-0.006186,-0.055678l-0.058771,-0.021652l-0.034025,0.037118l-0.003093,0.080423l0.043305,0.015466Z M546.165073,644.803267l0.003093,-0.049491l0.030932,-0.012373l0.037118,0.037118l-0.024746,0.037118l-0.046398,-0.012373Z M542.954332,643.850562l0.003093,0.083516l0.058771,0.040212l0.157753,0.030932l0.148474,-0.034025l0.16394,-0.111355l0.148474,-0.027839l0.080423,-0.092796l-0.003093,-0.058771l-0.061864,-0.030932l-0.095889,-0.003093l-0.046398,0.046398h-0.061864l-0.089703,-0.030932l-0.049491,0.012373l-0.046398,0.074237l-0.071144,0.024746l-0.148474,0.021652l-0.08661,0.055678Z M546.318042,644.679781l0.03881,0.061622l0.030932,-0.006186l0.014064,-0.050506l-0.014064,-0.023731l-0.061864,-0.003093l-0.007878,0.021894Z M549.8831,641.697695l0.24127,-0.160846l0.040212,-0.102076l0.080423,-0.064957l0.133008,0.003093l0.08661,-0.040212l0.049491,-0.15466l0.167033,-0.049491l0.027839,-0.049491l-0.034025,-0.040212l-0.139194,-0.030932l-0.021652,-0.049491l-0.06805,0.003093l-0.049491,0.055678l-0.151567,0.043305l-0.167033,0.238176l-0.136101,0.117542l-0.024746,0.139194l-0.061864,0.120635l0.027839,0.021652Z M548.429296,641.505916l0.092796,0.018559l0.071144,0.006186l0.061864,-0.058771l-0.043305,-0.034025l-0.105169,-0.003093l-0.089703,0.049491l0.012373,0.021652Z M545.704187,642.542138l0.157753,-0.191778l0.275295,-0.040212l0.142287,-0.07733l0.024746,-0.046398l0.327879,-0.176312l0.225804,-0.040212l0.071144,-0.040212l0.037118,-0.07733l0.253642,-0.08661l0.074237,0.006186l0.06805,-0.003093l0.052584,-0.046398l0.111355,-0.064957l0.105169,0.00928l0.055678,-0.003093l0.064957,-0.043305l0.219617,0.003093l0.043305,0.043305l0.034025,0.003093l0.052584,-0.058771l0.105169,-0.046398l-0.00928,-0.024746l-0.185592,0.030932l-0.167033,-0.027839l-0.408302,0.006186l-0.556776,0.15466l-0.30932,0.201058l-0.185592,0.027839l-0.315506,0.102076l-0.361904,0.197965l-0.142287,0.194872l-0.018559,0.170126l0.021652,0.034025l0.136101,-0.089703Z  M527.276447,655.255191l0.014,-0.297l0.307,-0.185l0.014,-0.098l0.125,-0.06l0.028,-0.135l0.116,-0.074l0.148,-0.26l0.232,0.01l0.269,0.069l0.084,-0.079l0.028,-0.153l-0.033,-0.069l0.037,-0.075l-0.06,-0.278l0.184,-0.292l-0.229,-0.14l-0.009,-0.29l-0.18,-0.152l-0.185,-0.238l-0.016,-0.343l0.13,-0.118l0.115,-0.006l0.201,-0.486l-0.006,-0.074l-0.137,-0.053l-0.031,-0.086l0.056,-0.13l-0.021,-0.062l0.024,-0.043l0.053,-0.006l0.077,-0.121l-0.015,-0.065l1.197,-0.464l0.841,-0.724l1.117,-0.677l0.473,-0.483l0.09,-0.059l0.142,-0.024l0.05,-0.115l0.08,-0.028l1.349,-1.132l0.185,-0.269l0.009,-0.142l0.22,-0.022l0.053,-0.089l0.229,-0.044l-0.013,-0.151l0.115,-0.068l0.394,0.255l0.195,0.009l0.195,-0.144l0.055,-0.171l0.251,-0.214l0.06,-0.116l0.098,-0.051l0.278,-0.014l0.292,-0.102l0.279,-0.167l0.116,-0.153l-0.065,-0.028l-0.167,0.102l-0.172,0.009l-0.028,-0.078l0.079,-0.102h0.334l0.422,-0.237l0.205,-0.023l0.259,0.065h0.14l0.083,-0.149l0.181,0.005l0.413,0.264l0.056,-0.037l-0.023,-0.079l0.004,-0.102l0.163,-0.093l0.051,0.005l-0.135,0.13l0.084,0.213l0.296,0.311l0.339,0.237l0.293,0.065l0.194,-0.047l0.07,-0.148l0.056,-0.028l0.13,0.005l0.12,-0.037l0.07,-0.153l0.107,-0.024l0.858,0.288l0.543,0.102l0.232,-0.005l0.71,0.14l0.719,0.083l0.482,-0.083l0.172,-0.149l0.213,-0.042l0.288,0.056l0.334,0.005l0.729,-0.088l0.292,-0.079l0.227,-0.014l0.251,0.185l0.436,0.056l0.162,-0.018l0.061,-0.103l0.422,-0.157l0.306,-0.339l0.283,-0.181l0.464,-0.065l0.784,0.009l0.371,-0.139l0.191,-0.199l0.032,-0.218l-0.079,-0.13l-0.134,-0.056l-0.139,0.028l-0.135,-0.009l-0.139,-0.098l0.023,-0.056l0.626,0.07l0.757,0.2l0.691,0.227l0.58,0.39l0.645,0.246l0.362,0.023l0.25,-0.098l0.882,-0.014l0.645,-0.162l0.301,-0.264l0.409,-0.27l0.315,-0.046l0.288,0.056l0.835,0.362l0.266,0.1v0.049l-0.173,-0.015l-0.077,0.152l0.043,0.195l0.192,0.117l0.272,-0.034l0.136,-0.099l0.009,-0.155l-0.106,-0.063l0.013,-0.032l0.135,0.04l0.631,0.13l0.028,0.055l-0.102,0.158l-0.014,0.172l0.065,0.199l0.162,0.084l0.102,-0.06l0.009,-0.126l0.024,-0.055h0.079l0.12,0.162l0.283,0.014l0.214,-0.144l0.018,-0.125l-0.227,-0.112l-0.009,-0.041l0.779,0.134l0.589,0.037l0.311,0.084l1.1,0.909l0.598,0.603l0.905,0.789l0.712,0.396l0.334,0.124l0.017,0.046l-0.104,0.102l-0.105,-0.012l-0.26,-0.241l-0.421,-0.186h-0.247l-0.142,-0.087l-0.007,-0.142l-0.253,-0.198l-0.421,-0.148l-0.13,0.024l-0.117,0.205l0.068,0.08l0.117,0.303l-0.012,0.124l-0.081,0.006l-0.117,-0.359l-0.149,-0.08l-0.123,0.068l0.024,0.192l-0.148,0.235l0.019,0.192l0.272,0.266l0.328,0.046l0.071,0.037l0.009,0.13l0.074,0.068l0.232,0.019l0.096,0.074l-0.018,0.158l0.213,0.173l0.161,0.025l0.427,-0.13l0.024,-0.093l-0.352,-0.319l-0.631,-0.17l-0.291,-0.145l-0.102,-0.195l0.161,-0.118l0.204,-0.006l0.278,0.093l0.211,0.21l0.352,0.235l0.211,0.031l0.377,0.254l0.136,0.198l-0.093,0.136l0.037,0.136l0.229,0.087l0.124,-0.056l0.019,-0.148l0.117,-0.093l0.272,-0.099l0.031,-0.173l0.087,-0.075l0.241,0.05l0.402,0.049l0.068,-0.043l-0.495,-0.161l-0.154,-0.009l-0.608,-0.241l-0.091,-0.084l0.086,-0.173l0.093,-0.025l0.322,0.241l0.433,0.211l1.2,0.396l0.198,0.13l0.167,0.278l0.118,0.421l0.238,0.419l0.365,0.283l0.427,0.178l0.268,0.047l0.064,0.039l-0.283,0.075l-0.148,-0.065l-0.218,0.12l-0.149,-0.046l-0.144,0.018l-0.041,-0.055l0.051,-0.051l-0.047,-0.047l-0.139,0.056l-0.269,-0.07l-0.037,0.084l-0.079,-0.014l-0.023,-0.088l-0.218,-0.112l-0.065,0.038l-0.028,0.176l-0.251,0.102l-0.134,-0.005l-0.065,-0.134l-0.088,-0.056l-0.149,0.028l-0.153,0.204l0.014,0.139l-0.162,0.149l-0.014,0.12l-0.112,0.033l-0.088,-0.047l-0.028,0.033l0.014,0.083l-0.111,0.065l0.004,0.13l-0.06,0.019l-0.083,-0.079l-0.223,0.023l-0.07,0.098l-0.06,-0.01l-0.019,-0.083l-0.065,0.004l-0.102,0.158l0.093,0.056l0.023,0.162h-0.069l-0.037,-0.088h-0.107v0.107l-0.07,0.014l-0.041,-0.079l-0.056,0.009l-0.005,0.139l-0.181,-0.027l-0.311,0.12l-0.097,0.144l-0.264,0.06l-0.13,-0.065l-0.214,-0.014v0.056l0.098,0.084l-0.028,0.046l-0.149,-0.056l-0.139,0.061l-0.134,-0.01l-0.042,-0.065l-0.079,0.005l-0.102,0.102l-0.135,-0.051l0.051,-0.148l-0.097,-0.014l-0.116,0.125h-0.079l-0.051,-0.102l0.042,-0.056l-0.033,-0.083l-0.171,0.009l-0.051,0.088l0.157,0.311l-0.051,0.046l-0.102,-0.055l-0.116,0.023l-0.088,0.088l-0.269,0.023l-0.158,-0.125l-0.088,0.028l-0.028,-0.074l0.065,-0.079l-0.079,-0.065l-0.255,0.12l-0.023,0.13l0.102,0.325l-0.107,0.111l-0.144,-0.023l-0.037,-0.12l-0.083,-0.019l-0.098,0.056l-0.125,-0.028l-0.018,-0.088l0.046,-0.074l-0.097,-0.107l-0.079,0.046l-0.07,0.251l-0.297,0.283l-0.199,0.028l-0.093,0.092l-0.181,-0.023l-0.074,-0.102l-0.13,-0.018l-0.01,-0.112l-0.64,-0.069l-0.051,-0.089l-0.297,-0.055l-0.107,0.162l-0.083,-0.055l0.005,-0.154l-0.26,-0.204l-0.047,-0.315l-0.218,-0.191l-0.014,-0.111l-0.176,-0.12l-0.167,0.018l-0.116,0.088h-0.251l-0.199,0.274l-0.023,0.111l-0.107,0.037l-0.088,-0.027l-0.436,0.375l0.023,0.098l-0.033,0.088l-0.116,0.028l-0.051,0.12l0.153,0.061l0.019,0.116l-0.088,0.357l-0.334,0.153l-0.116,-0.069l-0.093,-0.149l-0.158,0.037l-0.028,0.116l0.061,0.302l-0.074,0.255l-0.205,0.084l-0.06,0.422l-0.195,0.19l0.023,0.074l0.144,0.074l0.112,0.293l0.157,0.06l-0.004,0.102l-0.167,0.251l-0.362,0.014l-0.311,-0.065l-0.385,0.083l-0.214,0.214l-0.032,0.259l-0.111,0.112l-0.079,0.274l-0.181,0.116l-0.144,0.004l-0.32,0.2l-0.107,0.171l-0.213,-0.009l-0.056,-0.074l-0.098,-0.005l-0.069,0.144l-0.255,0.209l-0.246,0.046l-0.033,0.126l-0.079,0.032l-0.111,-0.079l-0.144,0.023l-0.111,0.139l-0.13,0.033l-0.06,0.492l0.051,0.097l0.139,0.079l-0.019,0.162l-0.088,0.038l-0.051,-0.061l-0.116,-0.018l-0.107,0.051l-0.194,-0.088l-0.13,-0.209l0.027,-0.144l-0.092,-0.107l-0.177,-0.028l-0.13,0.144l-0.12,-0.051l-0.028,-0.13l-0.497,-0.236l-0.255,-0.158l-0.023,-0.111l0.186,-0.316l0.028,-0.134l-0.089,-0.052l-0.482,0.089l-0.422,0.222l-0.014,0.102l0.097,0.065l-0.028,0.089l-0.144,0.116l-0.106,-0.042l-0.051,0.051v0.185l-0.32,0.367l-0.344,0.292l-0.06,0.293l-0.172,0.25l-0.255,0.074l-0.478,-0.018l-0.079,-0.153h-0.046l-0.116,0.13l-0.255,-0.047l-0.107,-0.148l-0.213,-0.028l-0.154,0.111l-0.533,0.033l-0.39,-0.037l-0.264,0.125l-0.037,0.121l0.037,0.19l-0.135,0.399l0.084,0.088h0.102l0.051,0.083l-0.144,0.399l0.153,0.158l0.037,0.46l0.102,0.176l0.005,0.172l-0.121,0.19l0.051,0.195l0.125,0.023l0.07,0.097l0.009,0.423l-0.334,0.231l-0.273,-0.231l-0.228,-0.047l-0.223,0.047l-0.078,0.148l-0.214,0.088l-0.032,0.32l-0.112,0.214l-0.004,0.102l0.083,0.12l-0.065,0.195l0.005,0.121l0.074,0.005l0.014,0.051l-0.26,0.218l-0.037,0.157l-0.431,0.223l-0.014,0.116l-0.153,0.005l-0.143,-0.133l-1.608,0.086l0.068,-0.173l-0.099,-0.105l-0.179,-0.08l-0.168,-0.242l0.155,-0.093l-0.049,-0.068l-0.285,-0.08l-0.198,0.006l-0.049,-0.049l0.012,-0.211l-0.155,-0.488l-0.142,-0.204l-0.26,-0.124l-0.018,-0.118l0.105,-0.117l0.142,-0.031l0.13,-0.223l0.019,-0.099l0.136,-0.037l0.018,-0.074l-0.13,-0.025l-0.371,0.105l-0.402,0.223l-0.105,0.136l-0.285,-0.012l-0.216,-0.155l0.018,-0.204l0.13,-0.081l0.13,0.025l0.068,-0.062l-0.012,-0.142l-0.093,-0.155l0.062,-0.192l-0.074,-0.08l-0.155,0.025l-0.062,0.136l0.062,0.148l-0.068,0.205l-0.235,0.154l-0.26,0.087l-0.155,-0.05l-0.068,-0.117l-0.216,-0.068l-0.136,-0.124l0.173,-0.019l0.074,-0.111l0.408,-0.148l-0.006,-0.341l-0.08,-0.086l-0.248,0.006l-0.105,-0.111l0.118,-0.446l0.111,-0.074l-0.006,-0.582l0.117,-0.123l0.05,-0.155l-0.043,-0.118l0.179,-0.222l-0.006,-0.217l-0.229,-0.123l-0.025,-0.161l-0.321,-0.223l0.012,-0.105l-0.05,-0.093l-0.16,-0.012l-0.149,0.16l-0.309,-0.03l-0.192,0.074l-0.291,-0.031l-0.247,0.154l-0.068,-0.006l-0.18,-0.396l-0.142,-0.086l-0.068,-0.328l-0.223,-0.056l-0.247,0.112l-0.186,-0.013l-0.321,-0.099l-0.099,0.031v0.13l0.111,0.155l-0.068,0.099l-0.173,-0.013l-0.062,0.044l-0.025,0.142l-0.47,0.142l-0.074,0.142l-0.087,0.013l-0.093,-0.099l-0.309,0.031l-0.099,0.124l-0.192,0.061l-0.155,-0.074l-0.086,-0.322l0.056,-0.253l-0.025,-0.13l-0.186,-0.105l-0.204,0.043l-0.087,-0.037l-0.037,-0.118l-0.229,-0.111l-0.247,-0.037l-0.136,0.08l-0.074,-0.018l-0.007,-0.118l-0.055,-0.093l-0.254,-0.043l-0.068,-0.136l0.068,-0.105l0.031,-0.161l-0.093,-0.068l-0.229,0.099l-0.148,-0.056l-0.136,0.056l-0.081,-0.031l-0.198,-0.421l-0.272,-0.204l-0.114,-0.055l-0.088,0.037l-0.232,-0.075v-0.078l-0.13,-0.2l-0.24,-0.136l-0.006,-0.254l-0.065,-0.134l-0.181,-0.01l-0.121,-0.06l0.002,-0.148l-0.039,-0.204l-0.165,-0.038l-0.254,0.322l-0.161,-0.08l-0.195,-0.042l-0.037,-0.088l-0.158,-0.07l-0.088,0.028l-0.218,-0.065l-0.13,-0.083l-0.162,0.018l-0.214,-0.079z"/>
</svg>
