<svg xmlns="http://www.w3.org/2000/svg" viewBox="1206.293 419.329 39.229 33.896">
  <path d="M1207.839268,432.875948l0.017267,-0.019874l0.044401,-0.002484l0.017267,0.019874l-0.004933,0.022358l-0.059201,-0.002484l-0.0148,-0.017389Z M1207.923137,432.972832l0.039468,0.002484l0.034534,0.027326l0.023361,0.074721l-0.028295,0.034584l-0.002467,0.032295l0.037001,0.044716l0.034534,-0.002484l0.019734,-0.0472l0.086335,-0.064589l-0.007545,-0.0472l-0.118258,-0.07701l-0.093735,-0.009937l-0.032067,0.017389l0.0074,0.014905Z M1213.337589,430.232755l-0.0074,0.024842l0.039468,0.039747l0.024667,-0.007453l0.002467,-0.034779l-0.034534,-0.024842l-0.024667,0.002484Z M1214.112139,431.218984l0.002467,-0.081979l-0.019734,-0.064589l-0.029601,-0.002484l-0.034534,0.027326l-0.101136,-0.042231l-0.019734,-0.037263l-0.054268,-0.012421l-0.076468,0.012421l-0.098669,0.049684l-0.056735,-0.022358l0.002467,-0.042231l0.037001,-0.07701l0.056735,-0.004968l0.088802,0.024842l0.019734,-0.017389l-0.069068,-0.149052l-0.115936,-0.126694l-0.049334,-0.109305l-0.076468,-0.096884l0.004933,-0.017389l0.049334,0.022358l0.044401,0.004968l0.004933,-0.022358l-0.027134,-0.039747l-0.093735,-0.044716l-0.086335,-0.002484l-0.064135,-0.027326l-0.039468,0.002484l-0.0222,0.037263l-0.076468,0.012421l-0.009867,0.02981l0.054268,0.024842l0.027134,0.034779l0.017267,0.121726l-0.019734,0.009937l-0.071535,-0.064589l-0.034534,-0.067074l-0.024667,0.004968l0.004933,0.067074l0.071535,0.0944l-0.002467,0.02981l-0.029601,0.042231l-0.0074,0.129179l0.039468,0.086947v0.059621l-0.076855,0.084853l-0.012382,0.049879l0.006191,0.10911l-0.071196,0.10911l-0.043337,0.021822l-0.058814,-0.003117l-0.037146,-0.065466l-0.114533,-0.006235l-0.071196,0.059231l-0.006191,0.049879l0.015477,0.046761l-0.015477,0.059231l-0.167157,0.049879l-0.058814,0.062349v0.090406l0.108342,0.177694l0.244544,0.224455l0.099056,0.043644l0.06191,-0.006235l0.176443,0.059231l0.164061,0.006235l0.089769,-0.074818l0.068101,0.003117l0.130011,0.062349l0.071196,0.003117l0.012382,-0.031174l-0.040241,-0.056114l0.003095,-0.046761l0.046432,-0.059231l0.03405,0.003117l0.027859,0.071701l-0.027859,0.09664l-0.006191,0.115345l0.015477,0.043644l-0.009286,0.077936l-0.046432,0.024939v0.040527l0.191921,0.127815l0.058814,0.006235l0.06191,-0.015587l0.117629,0.056114l0.148584,0.13405l0.176443,0.056114l0.142393,-0.006235l0.03405,-0.037409l-0.030955,-0.10911l-0.049528,-0.046761l0.003095,-0.056114l0.083578,-0.018705l0.244544,0.062349l0.065005,-0.003117l0.021668,-0.052996l-0.065005,-0.102875l0.021668,-0.009352l0.065005,0.056114l0.024764,-0.006235l-0.012382,-0.068584l-0.167157,-0.174576l-0.111438,-0.037409l-0.117629,-0.090406l-0.099056,-0.12158l0.015477,-0.090406l-0.012382,-0.056114l-0.046432,-0.043644l0.024764,-0.056114l-0.030955,-0.018705l-0.055719,0.009352l-0.06191,-0.01247l-0.058814,0.021822l-0.077387,-0.006235l-0.151679,-0.115345l-0.055719,-0.102875l0.015477,-0.143402l-0.03405,-0.056114l0.012382,-0.031174l0.040241,-0.015587l0.043047,-0.078325Z M1214.720694,433.018132l0.069649,0.070142l0.366816,0.168341l0.032503,-0.032733l-0.106795,-0.177694l-0.218232,-0.149637l-0.111438,-0.023381l-0.041789,0.032733l0.009286,0.112228Z M1214.55818,433.434309l0.139297,0.065466l0.083578,-0.009352v-0.074818l-0.120724,-0.088847l-0.088222,-0.009352l-0.046432,0.046761l0.032503,0.070142Z M1214.976072,433.649412l0.069649,0.056114l0.069649,0.004676l0.055719,-0.074818l0.01393,-0.051438l-0.055719,-0.042085l-0.167157,-0.004676l-0.027859,0.037409l0.041789,0.074818Z M1212.933047,432.471023l-0.004643,0.051438l0.232162,0.154313l0.097508,0.009352l0.027859,-0.042085l-0.116081,-0.173018l-0.130011,-0.023381l-0.106795,0.023381Z M1211.684015,434.112351l-0.032503,0.107551l0.009286,0.06079l0.032503,0.004676l0.060362,-0.098199l0.01393,-0.102875l-0.037146,-0.009352l-0.046432,0.037409Z M1211.270767,435.272036l-0.009286,0.042085l-0.055719,0.009352l-0.01393,0.06079l0.046432,0.056114l0.116081,0.009352l0.116081,0.088847l0.046432,-0.009352l-0.01393,-0.065466l-0.097508,-0.116904l-0.018573,-0.088847l0.055719,-0.135608l0.078935,-0.032733l0.023216,-0.093523l-0.055719,-0.112228l-0.051076,-0.009352l-0.106795,0.107551l-0.088222,0.196398l0.027859,0.093523Z M1215.375656,437.461327l0.016886,-0.024501l-0.03882,-0.051171l-0.066926,-0.041773l-0.027206,0.012781l0.03939,0.060082l0.076675,0.044582Z M1213.488055,435.088788l0.012345,-0.021534l-0.007817,-0.028254l-0.027948,-0.021252l-0.011826,0.021074l0.009359,0.02839l0.025887,0.021576Z M1214.177788,434.862927l0.017259,0.017818l0.018041,0.007398l0.001232,-0.026676l-0.010245,-0.016612l-0.017984,-0.005469l-0.008303,0.023542Z M1216.205315,437.261236l0.012297,0.014861l0.019675,-0.004954l-0.002459,-0.024768l-0.024593,-0.004954l-0.004919,0.019814Z M1214.508258,436.995834l0.02212,0.002463l0.002066,-0.026656l-0.032338,-0.019212l-0.013506,0.021045l0.021658,0.022359Z M1214.508258,436.995834l0.02212,0.002463l0.002066,-0.026656l-0.032338,-0.019212l-0.013506,0.021045l0.021658,0.022359Z M1211.841693,435.931813l0.033177,0.016431l0.018357,-0.012206l-0.03153,-0.044072l-0.042927,-0.019239l-0.012626,0.026978l0.035549,0.032109Z M1211.841693,435.931813l0.033177,0.016431l0.018357,-0.012206l-0.03153,-0.044072l-0.042927,-0.019239l-0.012626,0.026978l0.035549,0.032109Z M1213.442261,437.540153l0.017267,0.002484l0.012334,-0.019874l-0.024667,-0.012421l-0.017267,0.009937l0.012334,0.019874Z M1213.264358,436.611664l-0.007016,-0.020015l-0.01957,0.003566l-0.003714,0.022596l0.016464,0.01203l0.013835,-0.018177Z M1214.801803,438.686117l0.000739,-0.031805l-0.022371,-0.015662l-0.028171,0.018352l0.002736,0.031498l0.020482,0.014065l0.026585,-0.016449Z M1214.781243,438.699503l0.024667,-0.019874l-0.002467,-0.027326l-0.032067,-0.009937l-0.0222,0.022358l0.002467,0.024842l0.029601,0.009937Z M1217.596671,438.086513l-0.025702,-0.03057l-0.024867,-0.003828l0.000205,0.021224l0.020436,0.023352l0.02929,0.01338l0.000639,-0.023558Z M1213.476786,435.990078l0.005022,0.028634l0.023676,0.026393l0.01339,-0.016391l-0.009955,-0.037239l-0.022112,-0.018697l-0.01002,0.0173Z M1215.30077,436.633278l0.075891,0.029728l0.019402,-0.046314l-0.038138,-0.058172l-0.067434,-0.03201l-0.040849,0.033844l0.051127,0.072924Z M1211.781523,435.808234l-0.037146,-0.087288l-0.099056,-0.056114l-0.006191,0.028057l0.077387,0.065466l0.049528,0.074818l0.015477,-0.024939Z M1211.657704,436.400547l0.065005,0.003117l0.03405,-0.062349l-0.024764,-0.052996l-0.117629,-0.043644l-0.046432,0.015587l0.006191,0.071701l0.083578,0.068584Z M1212.478009,435.967223l-0.006191,0.037409l0.024764,0.018705l0.030955,-0.01247l0.003095,-0.028057l-0.024764,-0.018705l-0.027859,0.003117Z M1213.30141,436.391194l0.040241,0.037409l0.027859,-0.01247l-0.015477,-0.040527l-0.037146,-0.021822l-0.027859,0.006235l0.012382,0.031174Z M1213.279742,436.68735l0.049528,0.018705l0.021668,-0.01247l-0.009286,-0.024939l-0.052623,-0.018705l-0.024764,0.01247l0.015477,0.024939Z M1212.555397,435.960989l0.139297,0.084171l0.009286,0.034292l-0.024764,0.006235l-0.068101,-0.056114l-0.024764,0.015587l0.003095,0.074818l0.074292,0.10911l0.207398,0.099758l0.024764,0.040527l0.003095,0.052996l0.136202,0.143402l0.06191,0.028057l0.080483,-0.021822l0.049528,-0.046761l-0.009286,-0.046761l-0.06191,-0.056114l-0.102151,-0.171459l-0.09596,-0.065466l-0.133106,-0.043644l-0.068101,-0.099758l-0.145488,-0.090406l-0.003095,-0.040527l-0.030955,-0.040527l-0.065005,-0.037409l-0.102151,-0.208868l-0.074292,-0.09664v-0.046761l-0.021668,-0.031174l-0.040241,-0.021822l-0.012382,-0.090406l0.03405,-0.056114l0.006191,-0.289921l-0.024764,-0.074818l0.018573,-0.024939l0.030955,0.021822l0.027859,0.049879l0.086674,0.049879l0.09596,0.10911l0.030955,0.099758l0.074292,0.084171l0.269308,0.224455l0.058814,0.009352l0.03405,-0.028057l-0.037146,-0.059231l0.018573,-0.009352l0.055719,0.046761h0.040241l0.021668,-0.021822l-0.015477,-0.040527l0.021668,-0.018705l0.027859,0.024939l0.021668,-0.015587l-0.015477,-0.049879l0.015477,-0.015587l0.077387,0.003117l0.015477,-0.024939l-0.058814,-0.037409l-0.12382,-0.028057l-0.086674,-0.046761l0.003095,-0.043644l0.06191,-0.037409l0.003095,-0.062349l-0.080483,-0.12158l-0.092865,-0.046761l-0.089769,-0.143402v-0.049879l-0.024764,-0.065466l-0.040241,-0.024939l-0.006191,-0.056114l0.102151,-0.140284v-0.040527l-0.030955,-0.034292l-0.006191,-0.065466l-0.037146,-0.081053l-0.120724,-0.127815l-0.012382,-0.056114l0.03405,-0.021822l0.055719,0.015587l0.049528,-0.006235l0.018573,-0.065466l-0.092865,-0.405266l-0.068101,-0.149637v-0.102875l0.074292,-0.158989l0.003095,-0.10911l-0.018573,-0.046761v-0.052996l0.052623,-0.115345l-0.009286,-0.068584l0.024764,-0.015587l0.03405,0.01247l0.049528,-0.043644l0.018573,-0.081053l-0.049528,-0.105993l-0.040241,-0.040527l-0.058814,-0.003117l-0.074292,0.034292l-0.077387,-0.003117l-0.086674,-0.062349l-0.201207,-0.311743l-0.126915,-0.32733l-0.009286,-0.077936l-0.080483,-0.187046l-0.018573,-0.233807l0.030955,-0.10911l0.052623,-0.040527l0.003095,-0.056114l-0.049528,-0.093523l-0.105247,-0.059231l-0.105247,-0.006235l-0.043337,-0.037409l-0.068101,0.009352l-0.052623,0.062349l-0.083578,0.221338l-0.130011,0.12158l0.003095,0.043644l0.037146,0.01247l0.006191,0.040527l-0.018573,0.040527l0.018573,0.046761l0.092865,0.052996l0.049528,0.087288l0.018573,0.105993l0.068101,0.056114l0.164061,0.052996l0.080483,0.065466l0.046432,0.146519v0.056114l-0.043337,0.081053l0.015477,0.12158l0.068101,0.059231l0.086674,0.043644l0.077387,0.137167l0.136202,0.10911l0.027859,0.068584l-0.021668,0.015587l-0.065005,-0.034292l-0.055719,0.003117l-0.049528,0.046761l0.003095,0.056114l0.089769,0.149637l0.003095,0.112228l-0.046432,0.021822l-0.071196,-0.015587l-0.074292,-0.009352h-0.077387l-0.06191,-0.021822l-0.114533,-0.196398l-0.099056,-0.102875l-0.049528,0.003117l-0.037146,0.102875v0.165224l0.089769,0.146519l0.024764,0.127815l-0.012382,0.043644l0.006191,0.037409l0.058814,0.052996l0.021668,0.084171l-0.021668,0.071701v0.140284l0.080483,0.12158h0.027859l0.012382,-0.034292h0.049528l0.06191,0.065466l0.006191,0.102875l-0.012382,0.056114l0.071196,0.324213l0.037146,0.043644h0.030955l0.018573,-0.024939l0.043337,0.009352l0.006191,0.071701l-0.03405,0.059231l0.003095,0.052996l0.046432,0.056114l0.003095,0.077936l-0.030955,0.081053l-0.030955,0.003117l-0.043337,-0.021822h-0.142393l-0.117629,-0.090406l-0.030955,0.009352l-0.006191,0.233807l0.058814,0.177694l0.117629,0.174576l0.108342,0.130932l0.074292,0.168341l-0.018573,0.031174l-0.092865,0.059231l-0.018573,0.052996l0.015477,0.062349l-0.009286,0.087288l0.089769,0.071701l0.06191,-0.003117l0.06191,-0.049879l0.003095,-0.062349l0.03405,-0.006235l0.049528,0.046761l0.068101,0.01247l0.065005,0.081053Z M1213.285933,436.740347l-0.065005,-0.046761l-0.046432,0.018705v0.093523l0.116081,0.06079l0.139297,-0.014028l0.018573,-0.056114l-0.162513,-0.056114Z M1213.620246,437.750395l0.125367,0.046761l0.078935,0.084171l0.148584,0.070142l0.037146,-0.018705l-0.116081,-0.126256l-0.190373,-0.102875l-0.111438,-0.107551l-0.060362,-0.009352l-0.032503,0.032733l0.120724,0.130932Z M1214.25637,438.143191l0.027859,0.065466l0.060362,0.023381l0.060362,-0.014028l0.004643,-0.070142l-0.083578,-0.06079h-0.111438l-0.004643,0.042085l0.046432,0.014028Z M1214.641759,438.348942h0.069649l-0.009286,-0.070142l0.037146,-0.018705l0.088222,0.037409l0.055719,-0.018705l0.004643,-0.046761l-0.208946,-0.144961l-0.041789,0.014028l0.01393,0.056114l-0.032503,0.028057l-0.088222,0.009352l-0.027859,0.056114l0.139297,0.098199Z M1214.121716,437.296808l0.060362,0.06079l0.060362,0.154313l0.15787,0.112228l0.051076,-0.018705l-0.032503,-0.093523l-0.111438,-0.098199l-0.023216,-0.088847l0.009286,-0.074818l-0.032503,-0.084171l-0.139297,-0.06079l-0.097508,0.056114l0.01393,0.093523l0.083578,0.042085Z M1215.556477,436.885307l0.301811,0.257188l0.134654,0.037409l0.041789,-0.018705l-0.195016,-0.135608l-0.213589,-0.229131l-0.088222,-0.032733l-0.041789,0.023381l0.060362,0.098199Z M1214.59997,437.451121l0.004643,0.046761l0.106795,0.037409l0.134654,0.12158l0.167157,0.037409l0.055719,-0.051438l-0.027859,-0.112228l-0.120724,-0.107551l-0.01393,-0.088847l0.083578,-0.107551l-0.032503,-0.126256l-0.097508,-0.056114h-0.078935l-0.060362,0.079495l-0.004643,0.158989l0.046432,0.079495l-0.027859,0.051438l-0.134654,0.037409Z M1214.88785,434.556585l0.176443,0.222263l0.125367,0.095715l0.020169,-0.01622l-0.103602,-0.136631l-0.204448,-0.202536l-0.120724,-0.070142l-0.009286,0.023381l0.116081,0.084171Z M1215.138295,434.701838l0.083869,0.060498l0.092865,-0.009352l0.060362,-0.06079l-0.037146,-0.140284l-0.399319,-0.402149l-0.399319,-0.341359l0.009286,-0.042085l0.083578,-0.023381l0.032503,-0.107551l-0.074292,-0.06079l-0.139297,-0.009352l-0.060362,0.051438l-0.065005,0.004676l-0.148584,-0.037409l-0.027859,0.032733l0.065005,0.102875l0.148584,0.098199l0.078935,0.116904l-0.032503,0.018705l-0.111438,-0.065466l-0.032503,0.018705l0.032503,0.116904l-0.037146,0.009352l-0.162513,-0.079495l-0.088222,0.014028l-0.01393,0.065466l0.102151,0.177694l0.218232,0.084171l0.199659,0.014028l0.060362,-0.032733l0.208946,0.06079l0.352596,0.365032Z M1217.915242,437.712986l-0.027859,-0.074818l-0.292524,-0.24316h-0.102151l-0.046432,-0.042085l-0.01393,-0.070142l-0.102151,-0.098199l-0.069649,-0.018705l-0.069649,-0.042085l-0.027859,-0.06079l-0.088222,-0.088847l-0.051076,-0.074818l-0.074292,-0.046761l-0.088222,-0.028057l-0.125367,-0.130932l-0.148584,-0.098199l-0.037146,0.004676l0.027859,0.173018l0.078935,0.144961l-0.037146,0.004676l-0.338956,-0.30395l-0.046432,-0.093523l-0.125367,-0.112228l-0.060362,-0.102875l-0.227519,-0.177694l-0.102151,-0.046761l-0.01393,-0.074818l0.046432,-0.014028l0.148584,0.074818l0.051076,0.070142l0.111438,0.070142l0.097508,0.014028l0.106795,0.06079l0.051076,0.079495l0.078935,0.037409l0.14394,0.042085l0.065005,0.079495l0.153227,0.084171l0.023216,-0.032733l-0.088222,-0.098199l-0.069649,-0.140284l-0.195016,-0.135608l-0.199659,-0.065466l-0.208946,-0.201074l-0.027859,-0.130932l-0.297167,-0.252512l-0.195016,-0.051438l-0.065005,0.032733l-0.009286,0.084171l0.060362,0.102875l0.009286,0.079495l-0.037146,-0.004676l-0.134654,-0.196398l-0.162513,-0.140284l-0.450394,-0.547109l-0.195016,-0.144961l-0.037146,0.018705l0.023216,0.074818l0.162513,0.233807l0.092865,0.06079l0.088222,0.168341l0.092865,0.065466l0.241448,0.299274l0.139297,0.088847l0.088222,0.163665l0.037146,0.154313l0.037146,0.037409l0.078935,0.023381l0.153227,0.191722l-0.01393,0.065466l-0.083578,0.018705l-0.023216,0.042085l0.116081,0.126256l0.120724,0.065466l0.148584,0.014028l0.116081,0.051438l0.371459,0.360063l0.041789,0.088847l-0.027859,0.056114l0.009286,0.051438l0.069649,0.009352l0.102151,-0.009352l0.037146,-0.046761l0.037146,-0.018705l0.1718,0.065466l0.102151,0.12158l-0.037146,0.046761h-0.060362l-0.060362,0.042085v0.098199l0.088222,0.046761v0.056114l-0.041789,0.037409l0.009286,0.065466l0.134654,0.102875l0.325027,0.187046h0.051076l-0.01393,-0.037409l-0.241448,-0.177694l-0.027859,-0.070142l0.037146,-0.032733l0.348243,0.130932l0.139297,0.009352l0.074292,-0.056114l0.004643,-0.070142l-0.255378,-0.196398l0.01393,-0.023381l0.269308,0.173018l0.15787,0.056114l0.023216,-0.028057l-0.032503,-0.056114Z M1216.381426,437.946793l0.092865,0.124697l0.139297,0.077936l0.108342,-0.024939l0.065005,-0.062349l0.099056,-0.015587l0.108342,0.043644l0.037146,0.056114l0.037146,0.01247l0.030955,-0.018705l0.006191,-0.040527l-0.145488,-0.130932l-0.393128,-0.143402l-0.176443,-0.021822l-0.03405,0.034292l0.024764,0.10911Z M1215.013218,438.723034l0.120724,0.144961l0.041789,-0.004676l-0.009286,-0.056114l-0.102151,-0.149637l0.009286,-0.032733l0.060362,0.004676l0.31574,0.201074l0.097508,0.023381l0.060362,-0.028057l0.023216,-0.065466l-0.106795,-0.074818l-0.134654,-0.028057l-0.273951,-0.187046l-0.18573,-0.079495l-0.051076,0.023381l0.134654,0.308626Z M1215.937223,439.017631l0.320384,0.355387l0.14394,0.065466l0.027859,-0.032733l-0.01393,-0.084171l-0.069649,-0.079495l-0.15787,-0.088847l-0.273951,-0.261864l-0.032503,0.014028l0.055719,0.112228Z M1216.670854,439.270143l0.055719,0.149637l0.640767,0.607899l0.055719,0.088847l0.130011,0.084171l0.069649,-0.009352l0.027859,-0.046761l0.051076,0.004676l0.072744,0.126256l0.102151,0.059231l0.043337,-0.031174l-0.030955,-0.12158l-0.188825,-0.180811l-0.074292,-0.018705l-0.071196,-0.068584l-0.06191,-0.130932l-0.12382,-0.09664l-0.114533,-0.056114l-0.349791,-0.268099l-0.105247,-0.059231l-0.074292,-0.081053l-0.040241,0.003117l-0.01393,0.045203Z M1216.743598,439.994946l0.065005,0.09664l0.102151,0.052996l0.325027,0.289921l0.037146,-0.01247l-0.043337,-0.115345l-0.176443,-0.174576l-0.06191,-0.124697l-0.182634,-0.130932l-0.058814,0.003117l-0.006191,0.115345Z M1218.071565,440.556084l0.108342,0.180811l0.126915,0.127815l0.139297,0.040527l0.179539,0.177694l0.006191,0.071701l0.052623,0.043644l0.117629,-0.003117l0.105247,0.074818l0.266212,0.093523l0.046432,-0.037409l-0.037146,-0.10911l-0.151679,-0.124697l-0.099056,-0.031174l-0.092865,-0.077936l-0.040241,-0.118462l-0.108342,-0.12158l-0.164061,-0.062349l-0.130011,-0.140284l-0.294072,-0.162106l-0.145488,-0.024939l-0.046432,0.031174l0.160966,0.171459Z M1217.718679,441.550545l0.108342,0.105993l0.027859,0.087288l0.126915,0.130932l0.108342,0.034292l0.349791,0.283686l0.15787,0.046761l0.167157,0.09664l0.386937,0.227573l0.105247,0.021822l0.006191,-0.021822l-0.102151,-0.043644l-0.368364,-0.215103l-0.139297,-0.102875l-0.015477,-0.043644l-0.086674,-0.074818l-0.024764,-0.049879l-0.068101,-0.059231l-0.105247,-0.040527l-0.402414,-0.32733l-0.003095,-0.056114l-0.040241,-0.037409l-0.167157,-0.037409l-0.037146,0.028057l0.015477,0.046761Z M1218.387305,441.547428l-0.009286,-0.074818l-0.052623,-0.046761l-0.027859,0.01247l0.012382,0.040527l-0.027859,0.021822l-0.114533,-0.056114l-0.021668,-0.056114l-0.080483,-0.040527l-0.071196,-0.003117l-0.030955,0.031174l0.027859,0.046761l0.117629,0.059231l0.049528,0.040527l0.03405,0.065466l0.126915,0.090406l0.092865,0.034292l0.232162,0.211985l0.027859,-0.015587l-0.133106,-0.180811l-0.083578,-0.084171l-0.068101,-0.09664Z M1216.390712,439.212471l0.102151,0.090406l0.080483,0.018705l0.006191,-0.031174l-0.089769,-0.099758l-0.099056,-0.059231l-0.03405,0.009352l0.03405,0.071701Z M1215.666367,439.028542l0.12382,0.062349l0.027859,-0.006235l-0.030955,-0.062349l-0.099056,-0.071701l-0.077387,-0.009352l-0.006191,0.024939l0.06191,0.062349Z M1215.536356,439.143887l0.191921,0.105993l0.102151,0.028057l0.009286,-0.028057l-0.12382,-0.10911l-0.204303,-0.077936l-0.021668,0.024939l0.046432,0.056114Z M1216.579537,440.238106l0.06191,0.090406l0.09596,0.062349l0.03405,-0.009352l-0.009286,-0.065466l-0.114533,-0.140284l-0.058814,-0.037409l-0.027859,0.018705l0.018573,0.081053Z M1217.523663,440.989407l0.080483,0.081053l0.06191,0.015587l0.018573,-0.028057l-0.068101,-0.099758l-0.083578,-0.043644l-0.027859,0.009352l0.018573,0.065466Z M1218.124188,441.045521l0.089769,0.040527l0.071196,0.068584l0.024764,-0.009352l-0.012382,-0.049879l-0.086674,-0.077936l-0.089769,-0.028057l-0.027859,0.018705l0.030955,0.037409Z M1219.467632,441.669008l0.068101,0.040527h0.058814l0.018573,-0.024939l-0.021668,-0.040527l-0.105247,-0.034292l-0.043337,0.018705l0.024764,0.040527Z M1219.752418,441.640951l0.052623,0.028057l0.046432,0.003117l0.003095,-0.043644l-0.040241,-0.046761l-0.065005,-0.018705l-0.030955,0.024939l0.03405,0.052996Z M1218.347064,442.320551l0.151679,0.059231l0.021668,-0.018705l-0.086674,-0.059231l-0.120724,-0.043644l-0.012382,0.021822l0.046432,0.040527Z M1218.591608,442.485775l0.071196,0.021822l0.052623,-0.021822l0.006191,-0.049879l-0.06191,-0.028057l-0.055719,0.003117l-0.030955,0.031174l0.018573,0.043644Z M1217.845594,441.927755l0.083578,0.01247l0.021668,-0.024939l-0.052623,-0.040527l-0.126915,-0.046761l-0.027859,0.015587l0.102151,0.084171Z M1219.371672,442.884807l0.105247,0.052996l0.151679,0.056114l0.024764,-0.018705l-0.024764,-0.028057l-0.136202,-0.040527l-0.117629,-0.074818l-0.024764,0.01247l0.021668,0.040527Z M1221.386838,442.632295l0.055719,0.087288l0.046432,0.01247l0.03405,-0.043644l-0.015477,-0.065466l-0.09596,-0.077936l-0.040241,0.009352l0.015477,0.077936Z M1221.649955,442.944038l0.225971,0.152754l0.046432,0.074818l0.040241,0.003117v-0.040527l-0.03405,-0.149637l-0.114533,-0.124697l-0.074292,-0.018705l-0.040241,0.024939h-0.052623l-0.027859,0.028057l0.030955,0.049879Z M1221.300164,442.803753l0.040241,0.003117l0.021668,-0.046761l-0.027859,-0.062349l-0.102151,-0.065466l-0.040241,0.003117l-0.003095,0.068584l0.111438,0.099758Z M1221.08967,442.881689l0.037146,0.068584l0.080483,0.043644l0.120724,0.015587l0.006191,-0.031174l-0.074292,-0.062349l-0.077387,-0.018705l-0.03405,-0.052996l-0.03405,-0.006235l-0.024764,0.043644Z M1220.467476,442.875454l0.139297,0.102875l0.080483,0.068584l0.083578,0.015587l0.024764,-0.018705l-0.018573,-0.043644l-0.102151,-0.065466l-0.046432,0.003117l-0.099056,-0.059231l-0.074292,-0.065466l-0.021668,0.015587l0.03405,0.046761Z M1220.71202,442.794401l0.021668,0.065466l0.099056,0.115345l0.006191,0.052996l0.105247,0.046761l0.043337,-0.006235l0.03405,-0.09664l-0.024764,-0.028057l-0.058814,-0.009352l-0.151679,-0.158989l-0.083578,-0.037409l-0.018573,0.018705l0.027859,0.037409Z M1220.216741,443.149788l0.077387,0.046761h0.055719l0.037146,0.01247l0.046432,0.068584l0.089769,0.071701l0.173348,0.049879l0.105247,0.003117l0.15787,0.043644h0.052623l-0.003095,-0.028057l-0.176443,-0.090406h-0.06191l-0.046432,-0.024939l-0.058814,-0.074818l-0.09596,-0.062349l-0.160966,-0.052996l-0.111438,-0.01247l-0.071196,-0.024939l-0.027859,0.01247l0.018573,0.062349Z M1215.028695,439.196884l0.012382,0.065466l0.077387,0.077936l0.225971,0.118462l0.037146,-0.003117l0.009286,-0.043644l0.03405,-0.003117l0.077387,0.046761l0.216685,0.190163l0.06191,0.10911l0.108342,0.090406l0.176443,0.102875l0.195016,0.199516l0.120724,0.168341l0.018573,0.074818l0.191921,0.240042l0.055719,0.124697l0.167157,0.165224l0.099056,0.152754l0.362173,0.321096l0.210494,0.130932l0.043337,-0.003117l0.009286,-0.065466l-0.037146,-0.024939h-0.046432l-0.068101,-0.040527l-0.03405,-0.065466l-0.046432,-0.021822l-0.052623,0.015587l-0.030955,-0.034292l-0.003095,-0.068584l-0.043337,-0.049879l-0.046432,-0.009352l-0.018573,-0.052996l0.024764,-0.031174l0.043337,0.003117l0.080483,0.093523l0.006191,0.049879l0.049528,0.034292l0.092865,0.003117l0.164061,0.09664l0.065005,-0.003117l0.065005,-0.071701l-0.006191,-0.049879l-0.092865,-0.065466l-0.089769,-0.015587l-0.139297,-0.087288l-0.040241,-0.087288l-0.15787,-0.127815l-0.089769,-0.034292l-0.068101,-0.093523v-0.077936l-0.077387,-0.049879l-0.065005,-0.006235l-0.021668,0.028057l-0.065005,-0.015587l-0.213589,-0.183929l-0.182634,-0.283686l-0.006191,-0.099758l-0.089769,-0.193281l-0.055719,-0.046761l-0.077387,0.006235l-0.160966,-0.059231l-0.154775,-0.12158l-0.015477,-0.084171l-0.037146,-0.031174l-0.077387,-0.006235l-0.09596,-0.099758l-0.024764,-0.093523l-0.160966,-0.140284l-0.148584,-0.090406l-0.037146,0.006235l-0.003095,0.040527l0.080483,0.071701l0.052623,0.118462l-0.027859,0.009352l-0.06191,-0.046761l-0.06191,-0.003117l-0.027859,0.034292h-0.03405l-0.071196,-0.077936v-0.031174l0.024764,-0.024939l-0.009286,-0.018705l-0.049528,0.009352l-0.03405,0.040527Z M1224.182068,444.505872l0.003095,0.037409l0.114533,0.046761l0.176443,0.021822l0.126915,-0.040527l0.188825,0.021822l0.160966,0.034292h0.318836l0.105247,-0.031174l-0.006191,-0.024939l-0.213589,-0.046761l-0.207398,-0.118462l-0.133106,-0.043644l-0.167157,0.01247l-0.108342,0.034292l-0.040241,0.087288l-0.055719,0.021822h-0.099056l-0.080483,-0.021822l-0.083578,0.009352Z M1224.138731,445.275877l0.027859,0.09664l0.06191,0.049879l0.108342,0.003117l0.321931,0.102875l0.15787,0.077936l0.058814,0.065466l0.108342,0.056114l0.105247,0.009352l0.266212,0.127815l0.071196,-0.046761l-0.018573,-0.071701l-0.145488,-0.099758l-0.06191,-0.124697l-0.136202,-0.099758l-0.049528,-0.074818h-0.055719l-0.03405,0.043644l-0.040241,-0.01247l-0.006191,-0.077936l-0.328122,-0.127815l-0.334313,0.003117l-0.055719,0.024939l-0.021668,0.074818Z M1223.231752,444.929842l0.089769,0.009352l0.068101,0.028057l0.040241,-0.006235l0.012382,-0.049879l-0.043337,-0.059231l-0.102151,-0.009352l-0.108342,0.028057l-0.009286,0.034292l0.052623,0.024939Z M1223.550587,445.010896l0.030955,0.037409l0.117629,0.003117l0.21978,-0.049879l0.030955,-0.074818l-0.030955,-0.077936l-0.164061,-0.037409l-0.126915,0.059231l-0.077387,0.140284Z M1225.658618,445.450454l0.092865,0.081053l0.009286,0.065466l0.040241,0.040527l-0.003095,0.028057l-0.102151,0.037409l-0.03405,0.049879l0.009286,0.046761l0.027859,0.043644l-0.018573,0.031174h-0.052623l-0.03405,-0.040527l-0.052623,-0.015587l-0.030955,0.021822l0.015477,0.062349l0.071196,0.084171l0.105247,0.031174l0.080483,-0.015587l0.099056,0.043644l0.030955,0.052996l0.18573,0.084171l0.052623,0.065466l0.269308,0.077936l0.371459,0.040527l0.114533,0.028057l0.210494,0.01247l0.049528,-0.021822h0.046432l0.105247,0.018705l0.133106,0.003117l0.089769,-0.028057l0.355982,0.006235l0.365268,-0.040527l0.167157,-0.040527l0.114533,-0.077936l0.052623,0.003117l0.03405,-0.024939l-0.009286,-0.046761l0.021668,-0.040527l0.055719,-0.034292l0.03405,-0.09664v-0.040527l-0.195016,-0.102875l-0.080483,-0.074818l-0.09596,-0.021822l-0.071196,0.024939l-0.089769,-0.018705l-0.006191,-0.049879l-0.027859,-0.031174l-0.225971,-0.062349l-0.628385,-0.102875l-0.467419,-0.052996l-0.092865,-0.034292l-0.241448,-0.021822l-0.099056,0.031174l-0.640767,-0.081053l-0.105247,0.003117l-0.03405,0.043644l0.027859,0.056114Z M1227.206364,447.743325l0.009286,0.037409l0.213589,0.042085l0.222875,-0.032733l0.018573,-0.042085l-0.092865,-0.046761l-0.232162,-0.023381l-0.139297,0.065466Z M1225.019399,447.088665l0.004643,0.046761l0.153227,0.051438l0.190373,0.037409l0.092865,-0.009352l0.004643,-0.037409l-0.246092,-0.06079l-0.074292,-0.051438l-0.074292,-0.004676l-0.051076,0.028057Z M1225.627663,447.13075l0.241448,0.070142l0.065005,0.004676l0.046432,-0.009352l0.120724,0.009352l0.176443,0.084171l0.092865,0.056114l0.092865,0.009352l0.065005,-0.004676l0.14394,0.014028l0.459681,0.130932l0.232162,0.009352l0.18573,-0.032733l0.320384,-0.023381l0.32967,0.023381l0.320384,0.06079l0.640767,0.032733l0.14394,-0.023381l0.213589,0.018705l0.798637,-0.014028l0.097508,-0.037409l0.250735,-0.032733l0.01393,-0.042085l-0.125367,-0.06079l-0.176443,-0.018705l-0.116081,0.018705l-0.311097,-0.014028l-0.422535,-0.032733l-0.403962,-0.084171l-0.464324,-0.009352l-0.083578,-0.046761l-0.793994,-0.014028l-0.148584,0.028057l-0.120724,-0.018705l-0.088222,-0.065466l-0.055719,-0.112228l-0.083578,-0.074818l-0.055719,-0.130932l-0.088222,-0.051438l-0.320384,-0.004676l-0.130011,0.037409l-0.083578,-0.004676l-0.032503,-0.065466l0.023216,-0.06079l-0.041789,-0.046761l-0.116081,-0.004676l-0.195016,0.046761v0.056114l0.074292,0.042085l0.14394,0.028057l0.111438,0.107551l0.023216,0.112228l-0.051076,0.028057l-0.111438,-0.042085l-0.181086,-0.135608l-0.232162,-0.037409l-0.213589,0.032733l-0.241448,0.084171h-0.069649l-0.130011,-0.037409l-0.111438,0.014028l-0.01393,0.042085l0.385389,0.191722Z M1234.835207,450.567719l0.102151,0.014028l0.009286,-0.032733l-0.055719,-0.06079l-0.241448,-0.084171l-0.023216,0.032733l0.208946,0.130932Z M1235.095228,450.65189l0.255378,0.158989l0.088222,-0.014028l0.027859,-0.088847l-0.060362,-0.102875l-0.31574,-0.177694l-0.139297,-0.032733l-0.037146,0.028057l0.181086,0.229131Z M1235.568839,451.007277l0.106795,0.014028l0.116081,-0.037409l0.01393,-0.037409l-0.102151,-0.074818l-0.102151,0.004676l-0.078935,0.079495l0.046432,0.051438Z M1231.52922,450.132838l0.004643,0.065466l0.1718,0.088847l0.218232,0.065466l0.055719,-0.028057l0.106795,0.018705l0.065005,0.051438l0.18573,0.051438l0.116081,-0.014028l0.478254,0.126256l0.162513,0.079495l0.130011,0.023381l0.139297,-0.009352l0.283238,0.046761l0.338956,0.102875l0.027859,0.042085l0.069649,0.018705l0.065005,-0.018705l0.106795,0.023381l0.065005,0.051438h0.046432l0.01393,-0.051438l-0.074292,-0.107551l-0.459681,-0.205751l-0.078935,-0.009352l-0.060362,0.014028l-0.278594,-0.056114l-0.102151,-0.056114l-0.891502,-0.233807l-0.1718,-0.079495l-0.176443,-0.032733l-0.074292,-0.065466l-0.15787,-0.014028l-0.325027,0.112228Z M1226.023886,450.419641l0.03405,0.021822l0.102151,-0.090406l0.12382,0.003117l0.040241,-0.031174l-0.018573,-0.049879l-0.111438,-0.021822l-0.108342,0.056114l-0.06191,0.112228Z M1228.147394,450.391584l0.049528,-0.006235l0.003095,-0.059231l0.065005,-0.068584l-0.015477,-0.028057l-0.086674,0.006235l-0.058814,0.056114l-0.006191,0.065466l0.049528,0.034292Z M1228.258832,450.351058l-0.015477,0.084171l0.024764,0.127815l0.068101,0.037409l0.092865,-0.003117l0.086674,-0.056114l0.086674,0.009352l0.065005,0.071701l0.145488,-0.015587l0.15787,-0.115345l0.040241,-0.162106l-0.049528,-0.052996l-0.427178,-0.052996l-0.176443,0.015587l-0.099056,0.112228Z M1226.988132,448.542947v0.042085l0.069649,0.046761l0.148584,0.004676l0.208946,0.084171l-0.004643,0.056114l-0.204303,0.06079l-0.055719,0.065466l-0.092865,0.056114l-0.004643,0.084171l0.097508,0.070142l0.055719,-0.009352l0.032503,-0.046761l0.287881,0.014028l0.255378,0.107551l0.506113,0.056114l0.139297,-0.028057l0.037146,0.018705l-0.009286,0.032733l0.055719,0.028057l0.222875,-0.023381l0.241448,-0.12158l0.130011,-0.023381l0.065005,-0.06079l0.162513,-0.014028l0.348243,0.032733l0.357529,0.098199l0.278594,0.014028l0.116081,-0.037409h0.255378l0.046432,-0.028057l-0.01393,-0.042085l-0.153227,-0.037409l-0.092865,-0.06079l-0.055719,-0.135608l-0.222875,-0.098199l-0.482897,-0.107551l-0.246092,-0.014028l-0.111438,0.028057h-0.320384l-0.441108,0.12158h-0.208946l-0.241448,-0.070142l-0.445751,-0.084171l-0.134654,-0.074818l-0.181086,-0.042085l-0.213589,0.004676l-0.181086,0.032733Z M1221.02157,448.253026l0.004643,0.037409l0.083578,0.042085l0.111438,-0.023381l0.051076,-0.056114l-0.01393,-0.042085l-0.102151,-0.009352l-0.134654,0.051438Z M1222.823146,448.669203l-0.023216,0.116904l0.046432,0.023381l0.116081,-0.088847l-0.018573,-0.135608l-0.102151,-0.065466l-0.041789,0.028057l0.023216,0.12158Z M1223.162103,448.009866l0.009286,0.056114l0.1718,0.032733l0.083578,0.070142l-0.004643,0.074818l-0.148584,0.116904l0.018573,0.046761l0.208946,0.009352l0.362173,-0.084171l0.297167,-0.014028l0.139297,-0.079495l0.046432,-0.084171l0.130011,-0.107551l0.037146,-0.102875l-0.083578,-0.070142l-0.176443,-0.009352l-0.106795,0.074818l-0.041789,-0.014028l-0.01393,-0.065466l-0.134654,-0.042085l-0.362173,0.018705l-0.264665,0.06079l-0.167157,0.112228Z M1218.916929,442.741188l0.027423,-0.003178l-0.02029,-0.043821l-0.034801,-0.012756l-0.004755,0.031333l0.032424,0.028423Z M1217.771262,441.389385l0.02469,-0.012432l-0.033949,-0.034189h-0.037035l0.006172,0.031081l0.040121,0.015541Z M1237.297285,451.84691l0.008444,-0.023365l-0.01257,-0.026458l-0.031188,-0.016042l-0.008013,0.022822l0.014112,0.026322l0.029214,0.016721Z M1221.203264,442.568482l-0.000991,-0.016635l-0.035348,-0.036817l-0.019661,0.005154l0.003232,0.015872l0.030415,0.028212l0.022354,0.004214Z M1218.340313,441.206417l0.040827,0.017637l0.012726,-0.024114l-0.022239,-0.034959l-0.032461,0.008134l0.001147,0.033302Z M1217.613016,441.507843l-0.021221,0.015863l0.003649,0.043874l0.029018,0.01155l0.023093,-0.024115l-0.003043,-0.03503l-0.031495,-0.012142Z M1217.613016,441.507843l-0.021221,0.015863l0.003649,0.043874l0.029018,0.01155l0.023093,-0.024115l-0.003043,-0.03503l-0.031495,-0.012142Z M1225.55942,447.210651l-0.010722,0.022427l-0.000732,0.019604l0.025313,-0.007958l0.011996,-0.015377l-0.001048,-0.01889l-0.024806,0.000194Z M1225.55942,447.210651l-0.010722,0.022427l-0.000732,0.019604l0.025313,-0.007958l0.011996,-0.015377l-0.001048,-0.01889l-0.024806,0.000194Z M1221.209974,443.122678v0.024768l0.024593,0.014861l0.022134,-0.014861l-0.012297,-0.024768h-0.034431Z M1222.102663,443.247375l-0.004919,0.034675l0.019675,0.009907l0.024593,-0.022291l-0.012297,-0.022291h-0.027053Z M1224.073941,445.338532l0.011654,0.031615l0.020317,-0.001894l0.004919,-0.032198l-0.022134,-0.014861l-0.014756,0.017337Z M1220.569673,442.877127l0.012297,0.014861l0.019675,-0.004954l-0.002459,-0.024768l-0.024593,-0.004954l-0.004919,0.019814Z M1217.603089,440.244733l0.012297,0.014861l0.019675,-0.004954l-0.002459,-0.024768l-0.024593,-0.004954l-0.004919,0.019814Z M1215.246783,439.003823l0.012297,0.014861l0.019675,-0.004954l-0.002459,-0.024768l-0.024593,-0.004954l-0.004919,0.019814Z M1235.527009,450.779092l0.024593,0.009907l0.014756,-0.009907l-0.004919,-0.024768h-0.024593l-0.009837,0.024768Z M1224.863036,447.103639l0.024593,0.009907l0.014756,-0.009907l-0.004919,-0.024768h-0.024593l-0.009837,0.024768Z M1225.494545,447.17857l-0.009259,0.021757l0.018517,0.015541l0.027776,-0.018649l-0.006172,-0.021757l-0.030862,0.003108Z M1219.079545,442.637899l-0.019659,0.012973l0.006898,0.02326l0.033383,-0.000073l0.006801,-0.021566l-0.027422,-0.014595Z M1217.958762,441.118377l0.040653,0.010517l0.016111,-0.015484l-0.034481,-0.04112l-0.044408,-0.002913l-0.013924,0.020565l0.036048,0.028434Z M1217.958762,441.118377l0.040653,0.010517l0.016111,-0.015484l-0.034481,-0.04112l-0.044408,-0.002913l-0.013924,0.020565l0.036048,0.028434Z M1219.182806,442.701963l0.039419,0.053522l0.021427,0.002247l0.009428,-0.020062l-0.053641,-0.078l-0.026228,0.004657l0.009594,0.037636Z M1219.601407,441.850259l0.044511,0.039437l0.019668,-0.012961l-0.022876,-0.059059l-0.03772,-0.01855l-0.026282,0.010979l0.0227,0.040154Z M1219.601407,441.850259l0.044511,0.039437l0.019668,-0.012961l-0.022876,-0.059059l-0.03772,-0.01855l-0.026282,0.010979l0.0227,0.040154Z M1219.088981,441.573207l0.050635,0.031054l0.017134,-0.016203l-0.032712,-0.054161l-0.040346,-0.011672l-0.02399,0.015409l0.029278,0.035574Z M1219.088981,441.573207l0.050635,0.031054l0.017134,-0.016203l-0.032712,-0.054161l-0.040346,-0.011672l-0.02399,0.015409l0.029278,0.035574Z M1224.372056,444.675756l0.018596,-0.019082l-0.02753,-0.014048l-0.042015,0.010617l0.010366,0.023408l0.040583,-0.000895Z M1216.806002,440.548095l0.026468,0.00208l-0.007011,-0.030269l-0.035082,-0.025589l-0.011142,0.023043l0.026767,0.030734Z M1216.806002,440.548095l0.026468,0.00208l-0.007011,-0.030269l-0.035082,-0.025589l-0.011142,0.023043l0.026767,0.030734Z M1218.989602,441.389553l-0.009259,0.055946l0.037035,0.023311l0.060182,-0.023311v-0.041959l-0.041664,-0.023311l-0.046294,0.009324Z M1219.328103,442.700191l0.032551,0.014901l0.029592,-0.029801l0.005918,-0.038742l-0.032551,-0.026821l-0.03725,0.020607l0.00174,0.059857Z M1227.375244,449.236724l0.03488,0.004009l0.025642,-0.027501l-0.023739,-0.013973l-0.031082,-0.0001l-0.020026,0.019096l0.014325,0.018469Z M1227.375244,449.236724l0.03488,0.004009l0.025642,-0.027501l-0.023739,-0.013973l-0.031082,-0.0001l-0.020026,0.019096l0.014325,0.018469Z M1217.857746,441.28919l0.019371,0.029486l0.037401,0.002105l-0.004631,-0.027296l-0.019903,-0.024043l-0.027398,-0.003175l-0.00484,0.022923Z M1217.857746,441.28919l0.019371,0.029486l0.037401,0.002105l-0.004631,-0.027296l-0.019903,-0.024043l-0.027398,-0.003175l-0.00484,0.022923Z M1227.617097,450.365843l-0.111429,0.050049l-0.009432,0.031936l0.036167,0.017786l0.081942,-0.029682l0.027262,-0.050233l-0.02451,-0.019856Z M1217.849657,441.981661l-0.008272,0.025341l0.018537,0.012431l0.038416,0.000131l0.002924,-0.026628l-0.027653,-0.016902l-0.02395,0.005626Z M1217.849657,441.981661l-0.008272,0.025341l0.018537,0.012431l0.038416,0.000131l0.002924,-0.026628l-0.027653,-0.016902l-0.02395,0.005626Z M1224.279269,448.320568l0.012576,0.023748l0.029869,-0.001583l0.011992,-0.023294l-0.014756,-0.022291l-0.023961,0.002839l-0.015721,0.020582Z M1222.999924,444.672253l-0.035159,0.013265l-0.002975,0.019675l0.041029,0.015622l0.030943,-0.014403l-0.008129,-0.020396l-0.025709,-0.013763Z M1222.999924,444.672253l-0.035159,0.013265l-0.002975,0.019675l0.041029,0.015622l0.030943,-0.014403l-0.008129,-0.020396l-0.025709,-0.013763Z M1219.319008,442.948102l0.037035,0.006216l0.012345,-0.015541l-0.027776,-0.034189l-0.033949,-0.003108l-0.003086,0.021757l0.015431,0.024865Z M1224.440025,448.269298l0.004153,-0.043847l-0.01734,-0.009545l-0.026422,0.018628l-0.001462,0.037235l0.017666,0.009724l0.023406,-0.012194Z M1229.240017,450.298933l0.0384,-0.000125l0.00786,-0.020582l-0.017293,-0.023748l-0.034585,-0.003166l-0.009814,0.022755l0.015431,0.024865Z M1227.246519,449.164188l0.0384,-0.000125l0.00786,-0.020582l-0.017293,-0.023748l-0.034585,-0.003166l-0.009814,0.022755l0.015431,0.024865Z M1222.234963,443.122678l0.025153,-0.003166l0.006288,-0.028497l-0.022009,-0.018998l-0.028297,0.007916l-0.001572,0.023748l0.020437,0.018998Z M1218.801531,442.599372l0.020279,-0.041191l-0.002621,-0.030117l-0.023885,0.013718l-0.019381,0.042243l0.008272,0.025341l0.017335,-0.009994Z M1228.024914,450.367214l0.027043,-0.099414l-0.005966,-0.038866l-0.035285,-0.012777l-0.038724,0.059599l-0.005712,0.068419l0.02861,0.033485l0.030034,-0.010447Z M1226.893507,448.612299l0.02826,-0.023881l-0.007666,-0.03232l-0.041578,-0.003663l-0.037982,0.03533l0.013015,0.031033l0.045952,-0.006499Z M1217.641901,441.426619l0.012617,0.034911l0.032779,0.003799l0.017639,-0.038094l-0.019975,-0.048028l-0.033408,0.001703l-0.009652,0.04571Z M1228.042919,450.473781l0.036576,0.017937l0.022437,-0.00374l-0.012858,-0.02708l-0.040051,-0.017631l-0.018353,0.010434l0.01225,0.02008Z M1228.042919,450.473781l0.036576,0.017937l0.022437,-0.00374l-0.012858,-0.02708l-0.040051,-0.017631l-0.018353,0.010434l0.01225,0.02008Z M1217.595544,439.910407l0.027134,-0.017389l0.0074,-0.034779l-0.019734,-0.019874l-0.024667,0.019874l-0.004933,0.027326l0.0148,0.024842Z M1218.751953,442.538939l0.009867,-0.039747l-0.017267,-0.014905l-0.017267,0.022358l0.002467,0.02981l0.0222,0.002484Z M1216.598308,439.870229l0.009867,-0.039747l-0.017267,-0.014905l-0.017267,0.022358l0.002467,0.02981l0.0222,0.002484Z M1219.89865,441.643713l-0.004224,0.024771l0.024597,0.004254l0.017186,-0.016252l-0.00847,-0.023435l-0.029088,0.010662Z M1221.588005,443.169439l0.012382,-0.021822l-0.021668,-0.01247l-0.021668,0.009352v0.024939h0.030955Z M1221.092191,443.477827l0.024558,-0.004475l-0.004443,-0.024732l-0.021042,-0.010705l-0.01897,0.016031l0.019897,0.023881Z M1221.092191,443.477827l0.024558,-0.004475l-0.004443,-0.024732l-0.021042,-0.010705l-0.01897,0.016031l0.019897,0.023881Z M1218.798959,440.756275l0.011642,0.013081l0.022133,-0.00724l-0.010968,-0.025483l-0.01957,-0.003566l-0.003237,0.023208Z M1218.018901,440.977884l0.017267,0.002484l0.012334,-0.019874l-0.024667,-0.012421l-0.017267,0.009937l0.012334,0.019874Z M1225.186902,447.269643h0.0222l0.012334,-0.024842l-0.0148,-0.014905l-0.024667,-0.004968l-0.0074,0.022358l0.012334,0.022358Z M1221.571366,442.769629h0.0222l0.012334,-0.024842l-0.0148,-0.014905l-0.024667,-0.004968l-0.0074,0.022358l0.012334,0.022358Z M1221.498726,443.078434l0.002467,-0.022358l-0.0222,-0.004968l-0.019734,0.014905l0.0148,0.017389l0.024667,-0.004968Z M1218.085793,441.076473l-0.0222,0.007453v0.027326l0.0222,0.004968l0.0074,-0.019874l-0.0074,-0.019874Z M1218.578021,442.033272l0.025238,0.008356l0.015856,-0.01903l-0.004322,-0.029595l-0.02652,-0.002953l-0.013966,0.020627l0.003714,0.022596Z M1218.578021,442.033272l0.025238,0.008356l0.015856,-0.01903l-0.004322,-0.029595l-0.02652,-0.002953l-0.013966,0.020627l0.003714,0.022596Z M1219.078963,442.728712v0.024842l0.0222,0.012421l0.019734,-0.017389l0.002467,-0.024842l-0.012334,-0.012421l-0.032067,0.017389Z M1222.151297,443.412536l-0.021362,0.012421l0.000419,0.025573l0.024821,0.008516l0.022596,-0.01027l0.004514,-0.016967l-0.030987,-0.019273Z M1222.151297,443.412536l-0.021362,0.012421l0.000419,0.025573l0.024821,0.008516l0.022596,-0.01027l0.004514,-0.016967l-0.030987,-0.019273Z M1218.411497,441.507994v0.024842l0.0222,0.012421l0.019734,-0.017389l0.002467,-0.024842l-0.012334,-0.012421l-0.032067,0.017389Z M1229.183619,450.267736l0.019734,-0.019874l-0.0074,-0.027326h-0.0222l-0.017267,0.022358l0.004933,0.02981l0.0222,-0.004968Z M1223.628338,445.152994l0.026957,0.007274l0.019799,-0.020117l-0.0111,-0.019362l-0.02786,-0.003881l-0.023168,0.019208l0.015373,0.016878Z M1223.628338,445.152994l0.026957,0.007274l0.019799,-0.020117l-0.0111,-0.019362l-0.02786,-0.003881l-0.023168,0.019208l0.015373,0.016878Z M1221.065298,443.125356l0.025293,0.011878l0.022967,-0.016349l-0.007593,-0.021009l-0.026767,-0.008694l-0.026128,0.014865l0.012229,0.01931Z M1221.065298,443.125356l0.025293,0.011878l0.022967,-0.016349l-0.007593,-0.021009l-0.026767,-0.008694l-0.026128,0.014865l0.012229,0.01931Z M1222.121441,443.93321l0.025293,0.011878l0.022967,-0.016349l-0.007593,-0.021009l-0.026767,-0.008694l-0.026128,0.014865l0.012229,0.01931Z M1222.121441,443.93321l0.025293,0.011878l0.022967,-0.016349l-0.007593,-0.021009l-0.026767,-0.008694l-0.026128,0.014865l0.012229,0.01931Z M1218.009331,441.592088l0.019734,0.019874l0.027134,-0.007453v-0.022358l-0.0222,-0.017389l-0.029601,0.004968l0.004933,0.022358Z M1218.009331,441.592088l0.019734,0.019874l0.027134,-0.007453v-0.022358l-0.0222,-0.017389l-0.029601,0.004968l0.004933,0.022358Z M1219.227296,441.669215l0.022861,0.016121l0.025437,-0.012085l-0.003855,-0.022018l-0.024862,-0.013243l-0.028294,0.010069l0.008714,0.021155Z M1219.227296,441.669215l0.022861,0.016121l0.025437,-0.012085l-0.003855,-0.022018l-0.024862,-0.013243l-0.028294,0.010069l0.008714,0.021155Z M1217.980284,442.075636l0.037436,0.013532l0.023436,-0.009207l-0.010714,-0.018278l-0.029292,-0.009934l-0.032009,0.003161l0.011143,0.020724Z M1218.500619,441.255478l-0.034534,-0.019874l-0.024667,0.004968l0.0074,0.019874l0.027134,0.014905l0.032067,0.002484l-0.0074,-0.022358Z M1222.013619,443.143415l0.000009,0.029077l0.018765,0.030132l0.016013,-0.0138l-0.003383,-0.038414l-0.018552,-0.02228l-0.012851,0.015285Z M1223.9935,445.259717l-0.020437,-0.026332l-0.030436,0.002163l-0.006284,0.021587l0.029726,0.030504l0.029151,0.005177l-0.001719,-0.033098Z M1236.767115,451.39552l0.029592,0.038742l0.03551,0.00596l0.011837,-0.026821l-0.03551,-0.035762l-0.029592,-0.00894l-0.011837,0.026821Z M1221.39066,443.014497l-0.010448,0.047732l0.018292,0.031226l0.02801,-0.008109l0.004377,-0.050382l-0.012221,-0.028576l-0.02801,0.008109Z M1221.39066,443.014497l-0.010448,0.047732l0.018292,0.031226l0.02801,-0.008109l0.004377,-0.050382l-0.012221,-0.028576l-0.02801,0.008109Z M1217.091617,440.739627l0.029592,0.038742l0.03551,0.00596l0.011837,-0.026821l-0.03551,-0.035762l-0.029592,-0.00894l-0.011837,0.026821Z M1218.909342,441.403173l-0.021181,-0.033972l-0.044764,-0.020152l-0.010452,0.018633l0.025357,0.042991l0.044764,0.020152l0.006276,-0.027652Z M1219.963741,441.751769l0.021097,-0.015388l0.004673,-0.023468l-0.020966,-0.016441l-0.020182,0.004855l-0.015361,0.02518l0.007436,0.020555l0.023303,0.004707Z M1220.11132,442.714072l0.020002,0.012376l0.020182,-0.004855l0.009445,-0.017741l-0.011243,-0.022217l-0.02046,-0.007109l-0.024904,0.013726l0.006978,0.025821Z M1220.11132,442.714072l0.020002,0.012376l0.020182,-0.004855l0.009445,-0.017741l-0.011243,-0.022217l-0.02046,-0.007109l-0.024904,0.013726l0.006978,0.025821Z M1218.938379,442.658908l0.017289,0.01705l0.029676,0.007999l0.023123,-0.021937l-0.01724,-0.031648l-0.034677,-0.004905l-0.017159,0.014778l-0.001013,0.018663Z M1218.938379,442.658908l0.017289,0.01705l0.029676,0.007999l0.023123,-0.021937l-0.01724,-0.031648l-0.034677,-0.004905l-0.017159,0.014778l-0.001013,0.018663Z M1234.543906,450.362431l0.017467,-0.030469l-0.00682,-0.025632l-0.028549,-0.011183l-0.022582,0.011245l-0.010564,0.037191l0.016364,0.023056l0.034684,-0.004208Z M1217.685023,441.634603l0.01127,0.020106l0.026036,0.022002l0.028604,0.00771l0.010349,-0.01242l-0.016838,-0.033042l-0.028556,-0.02178l-0.028163,-0.002634l-0.002702,0.020058Z M1217.685023,441.634603l0.01127,0.020106l0.026036,0.022002l0.028604,0.00771l0.010349,-0.01242l-0.016838,-0.033042l-0.028556,-0.02178l-0.028163,-0.002634l-0.002702,0.020058Z M1229.239712,450.349949l-0.01032,-0.01944l-0.036232,0.000011l-0.018244,0.013322l0.020372,0.029025l0.026447,0.000258l0.017977,-0.023177Z M1229.345412,450.24911l0.033949,-0.006216l0.006172,-0.024865l-0.027776,-0.018649h-0.052466l-0.012345,0.024865l0.052466,0.024865Z M1235.988238,450.980167l-0.037146,0.042085l0.037146,0.056114l0.134654,0.004676l0.01393,-0.051438l-0.051076,-0.046761l-0.097508,-0.004676Z  M1206.916714,428.379538l0.118,0.096l0.109,0.038l0.096,0.007l0.143,0.067l0.067,0.07l0.069,0.002l0.106,-0.094l0.066,-0.003l0.055,0.018l0.064,-0.013l0.061,-0.049l0.146,-0.005l0.086,-0.048l0.151,0.013l0.093,0.057l0.023,0.057l-0.008,0.05l0.082,0.082l0.229,0.045l0.133,0.052l0.077,-0.018l0.116,-0.164l0.076,-0.044l0.188,-0.03l0.101,0.005l0.066,0.05l0.05,-0.005l0.054,-0.055l0.022,-0.092l0.049,-0.057l0.003,-0.067l-0.096,-0.09l-0.082,-0.029l-0.027,-0.07l0.054,-0.072l0.045,-0.003l0.103,0.043l0.04,-0.015l-0.012,-0.047l0.039,-0.033l0.054,0.003l0.185,0.154l0.089,0.032l0.111,0.085l0.126,0.032l0.153,0.007l0.14,0.052l0.062,-0.002l0.074,-0.04l0.151,0.013l0.17,0.074l0.039,-0.005l0.01,-0.064l-0.015,-0.043l0.109,-0.129l0.081,-0.04l0.067,0.008l0.106,0.144l0.052,0.012l0.069,-0.049l0.064,0.015l0.047,0.044l0.076,0.023l0.042,-0.018l0.035,0.018l0.024,0.067l0.037,0.007l0.116,-0.087l0.104,-0.012l0.219,-0.077l0.042,-0.085l0.082,-0.052l0.103,0.008l0.176,-0.092l0.106,-0.102l0.111,-0.032l0.064,-0.07l0.02,-0.084l-0.033,-0.1l0.018,-0.099l0.047,-0.065l0.005,-0.079l-0.04,-0.05l0.007,-0.05l0.055,-0.01l0.044,0.02l0.111,-0.047l0.225,-0.328l0.009,-0.164l0.025,-0.017l0.049,0.025l0.01,0.047l0.04,0.01l0.064,-0.04l0.069,0.02l0.02,0.057l-0.042,0.107l-0.013,0.094l-0.024,0.04l0.015,0.047l0.088,0.062l0.079,0.02l0.03,0.025v0.045l0.039,0.03l0.035,0.002l0.111,0.092l0.113,0.02l0.111,0.087l0.057,0.129l-0.027,0.052l-0.047,0.037l-0.012,0.157l0.027,0.045l0.042,0.017l0.029,-0.012v-0.04l0.094,-0.022l0.131,0.047l0.182,0.159l0.208,0.067l0.061,0.074l0.023,0.125l0.049,0.047l0.002,0.067l0.047,0.03l0.289,-0.048l0.064,-0.052l0.111,-0.035l0.069,0.008l0.059,-0.052l0.04,-0.194l-0.018,-0.094l0.042,-0.1h0.084l0.343,0.256l0.195,0.025l0.074,0.06l0.113,0.007l0.04,-0.042l0.076,0.002l0.153,0.08l0.023,0.099l0.064,0.05l0.064,0.01l0.128,0.121l0.072,0.02l0.046,0.048l0.045,0.086l0.108,0.06l0.116,0.008l0.042,-0.05l0.003,-0.052l0.029,-0.008l0.062,0.062l0.138,-0.002l0.04,-0.085l0.148,-0.161l0.148,-0.057l0.113,0.007l0.242,0.085l0.118,-0.033l0.109,-0.171l0.138,-0.06v-0.039l-0.062,-0.057l-0.027,-0.005l-0.027,0.019l-0.032,-0.005l-0.165,-0.109l-0.124,-0.132l-0.007,-0.047l-0.025,-0.027l-0.044,-0.012l-0.025,-0.03l-0.01,-0.341l-0.024,-0.062l-0.106,-0.124l0.007,-0.042l0.062,-0.045l0.081,-0.007l0.017,-0.025l-0.022,-0.052l0.015,-0.065l0.081,-0.03l0.193,-0.007l0.034,-0.035l-0.029,-0.042l0.029,-0.023l0.089,-0.005l0.047,0.019l0.034,0.047l0.096,0.009l0.08,-0.075l-0.012,-0.037l-0.053,-0.016l-0.021,-0.028l-0.01,-0.09l-0.142,-0.14l-0.037,0.009l-0.016,0.053l-0.052,0.05l-0.037,-0.006l-0.003,-0.069l0.027,-0.04l0.053,-0.019l0.019,-0.059l-0.05,-0.147l-0.049,-0.022l-0.09,0.041l-0.087,0.149l0.022,0.131h-0.034l-0.065,-0.096l0.009,-0.063l-0.028,-0.021l-0.043,0.021l-0.013,0.044l-0.049,-0.012l-0.006,-0.085l-0.041,-0.059l-0.055,-0.009l-0.037,-0.041l-0.044,-0.015l-0.021,-0.035l0.031,-0.065l0.052,-0.05l0.047,-0.065l0.099,-0.053l0.037,-0.042l0.195,-0.077l0.208,-0.115h0.051l0.092,-0.039l0.054,-0.058l0.101,-0.052l0.111,-0.017l0.074,0.017l0.192,-0.002l0.055,-0.018l0.01,-0.029l-0.06,-0.13l0.01,-0.029l0.05,-0.003l0.029,-0.037l0.008,-0.037l0.051,-0.033l0.05,0.003l0.042,0.012l0.005,0.023l-0.02,0.024l0.01,0.028h0.059l0.111,-0.028l0.044,-0.052l0.015,-0.136l0.03,-0.01l0.052,0.025l0.014,0.037l0.037,0.032l0.03,-0.002l0.005,-0.058l0.042,-0.064l0.037,-0.003l0.047,0.033l0.074,0.012l0.249,0.142l0.054,0.059l0.042,-0.002l0.096,-0.124l0.057,-0.03l0.116,-0.008l0.032,-0.037l0.034,-0.01l0.042,0.018l0.02,-0.023l-0.032,-0.054l-0.121,-0.082l-0.029,-0.053l0.024,-0.082l0.042,-0.007l0.008,-0.027l-0.052,-0.03l-0.022,-0.107l0.014,-0.045l0.106,-0.067l0.052,-0.069l0.022,-0.1l-0.009,-0.333l-0.028,-0.104l0.01,-0.094l0.037,-0.04l0.018,-0.055l-0.025,-0.042l0.002,-0.03l0.03,-0.02l0.027,-0.069l-0.005,-0.057l0.04,-0.04l0.044,0.002l0.022,-0.022l-0.022,-0.062l-0.108,-0.08l-0.055,0.003l-0.089,-0.035l-0.017,-0.032l-0.108,-0.052l-0.062,0.012l-0.037,-0.02l-0.005,-0.069l-0.081,-0.035l-0.074,0.02l-0.057,-0.023l-0.017,-0.049l0.019,-0.04l-0.022,-0.027l-0.057,-0.02l-0.041,-0.08l0.027,-0.109l-0.008,-0.102l-0.059,-0.045l-0.005,-0.039l0.049,-0.038l0.015,-0.092l0.03,-0.044l0.128,-0.077l0.032,-0.067l0.069,-0.06l0.005,-0.084l-0.042,-0.033l-0.002,-0.042l0.034,-0.037l0.126,-0.075l0.082,-0.007l0.152,0.017l0.109,-0.002l0.042,0.012l0.012,0.037l0.035,0.005l0.039,-0.027h0.057l0.035,0.025l0.004,0.067l0.025,0.017l0.059,-0.012l0.136,-0.085l0.035,-0.057l-0.01,-0.052l0.01,-0.035l0.042,-0.019l0.004,-0.058l-0.049,-0.094l0.008,-0.032l0.229,-0.018l0.067,-0.027l0.155,-0.027l0.059,-0.085l0.126,-0.032l0.057,-0.045l0.071,-0.01l0.057,0.018l0.212,-0.055l0.099,-0.05l0.054,-0.089l0.111,-0.013l0.081,0.028l0.077,-0.028l0.066,-0.171l0.057,-0.042l0.089,0.002l0.15,-0.049l0.03,-0.04l-0.037,-0.142l-0.121,-0.151l0.013,-0.072l0.049,-0.023l0.14,0.028l0.087,-0.003l0.18,-0.072l0.071,-0.047h0.094l0.163,0.144l0.128,0.057l0.168,-0.01l0.042,-0.035l0.057,0.008l0.014,0.04l0.037,0.012l0.042,-0.01l0.102,0.025l0.202,-0.008l0.052,-0.047l0.005,-0.139l-0.124,-0.117l-0.059,-0.014l-0.025,-0.038l0.005,-0.049l-0.103,-0.385l-0.051,-0.079l-0.049,-0.025l-0.013,-0.06l0.031,-0.084l0.124,-0.047l0.025,-0.074l0.068,-0.019l0.108,0.034l0.065,-0.015l0.037,-0.041l0.019,-0.047l0.059,-0.037l0.071,-0.013l0.04,-0.028l0.022,-0.053l0.121,-0.065l0.009,-0.041l0.037,-0.025l0.068,0.019l0.009,0.034l-0.04,0.022l0.003,0.031l0.143,0.063l0.04,0.05l0.049,0.012l0.096,-0.019l0.084,0.047l0.006,0.059l0.059,0.019l0.114,-0.009l0.121,0.072l0.025,0.068l0.046,0.034h0.053l0.068,0.05l0.022,0.084l0.049,0.016l0.053,-0.016l0.173,0.025l0.05,0.041l0.08,0.009l0.118,-0.012l0.003,-0.025l0.049,0.002l0.079,0.067l0.118,0.033l0.094,0.005l0.074,0.069l-0.012,0.05l0.01,0.015l0.049,-0.015l0.047,0.022l0.123,0.241l0.146,0.216l0.032,0.003l0.029,-0.055l0.052,-0.017l0.035,0.027l0.002,0.07l0.039,0.026l0.06,0.005l0.065,0.032l0.088,0.01l0.079,-0.042l0.07,0.023l0.065,0.075l0.093,0.028l0.046,-0.024l0.042,0.019l0.014,0.052l0.084,0.098l0.083,0.033l0.061,0.112l-0.014,0.089l0.023,0.159l0.069,0.088v0.108l0.163,0.173l0.13,0.061l0.135,0.121l0.097,-0.009l0.042,0.033l-0.005,0.093l0.093,0.042l0.112,0.01l0.278,0.154l0.084,0.009l0.042,0.028l0.023,0.061l0.065,0.038l0.083,-0.01l0.234,0.116l0.025,0.068l0.062,0.019l0.068,-0.037l0.08,0.037l0.025,0.069l0.124,0.093l0.019,0.119l-0.031,0.074v0.131l0.055,0.025l0.184,-0.031l0.07,0.089l-0.023,0.107l-0.125,0.047l0.009,0.042l0.116,-0.028l0.079,0.033l0.037,0.089l0.042,0.033l0.144,0.014l0.014,0.065l-0.065,0.061l0.037,0.075l0.172,0.018l0.018,0.056l-0.209,0.089l0.014,0.038l0.139,0.07l0.112,-0.005l0.023,0.033l-0.065,0.089l0.051,0.047l0.084,-0.038l0.032,0.033l-0.055,0.117l0.032,0.023l0.102,-0.07l0.019,-0.07l-0.033,-0.084l0.028,-0.024l0.056,0.061l0.023,0.094l0.07,0.004l0.055,-0.117l0.051,0.01v0.131l-0.055,0.07l0.032,0.037l0.093,-0.023l0.037,0.033l-0.088,0.037l-0.19,-0.023l-0.037,0.046l0.037,0.08l0.079,0.019l0.134,-0.047l0.051,0.028l-0.009,0.093l0.056,0.019l0.06,-0.065l0.056,0.014l0.023,0.056l0.102,0.018l0.023,-0.056l-0.051,-0.065l0.019,-0.056l0.093,-0.005l0.26,0.066l0.199,0.014l0.089,0.042l0.102,0.009l0.088,-0.037l0.121,0.028l0.148,0.131l0.121,0.065l0.135,0.182l0.083,0.197l0.014,0.145l0.079,0.093l0.093,0.024l0.079,-0.033l0.084,0.009l0.074,0.047l0.186,0.038l0.092,0.107l0.075,0.005l0.051,-0.033l0.088,0.009l0.098,0.08l0.065,0.014l0.065,-0.033l0.069,0.033l0.005,0.089l0.13,0.117l0.032,0.084l0.07,0.009l0.056,-0.079l0.158,-0.099l0.074,-0.004l0.07,0.037h0.051l0.13,-0.047l0.195,0.01l0.079,-0.028l0.065,0.009l0.157,0.122l0.214,0.051l0.144,0.061l0.13,-0.009l0.158,-0.173l0.144,-0.005l0.111,0.079h0.075l0.078,-0.06h0.098l0.19,0.06l0.098,0.127l0.195,0.046l0.13,-0.023l0.241,0.042l0.033,0.056l0.046,-0.005l0.112,-0.149l0.093,-0.014l0.13,0.056l0.023,0.107l0.069,0.061l0.223,0.033l0.065,-0.051l-0.023,-0.131l0.079,-0.056l0.125,-0.005l0.038,-0.042l0.037,-0.169l0.074,-0.009l0.084,0.061l0.116,-0.052l0.144,-0.009l0.116,-0.089l0.023,-0.07l0.2,-0.187l0.083,-0.019l0.033,-0.051l-0.019,-0.094l0.051,-0.149l0.047,-0.01l0.046,0.042l0.065,-0.009l0.005,-0.051l-0.056,-0.084l0.023,-0.061l0.079,-0.014l0.023,-0.052l-0.046,-0.103l0.037,-0.028l0.088,0.019l0.135,-0.019l0.097,0.024l0.047,0.06l0.093,0.038h0.088l0.204,0.117l0.084,0.075l0.097,0.004l0.056,-0.037l0.014,-0.112l-0.037,-0.066l0.049,-0.044l0.084,0.13l0.006,0.143l0.062,0.088l0.118,0.068l0.018,0.112l-0.055,0.25v0.137l0.068,0.087l0.136,0.056l0.093,0.156l0.086,0.449l0.149,0.169l0.204,0.099v0.137l-0.179,0.237l-0.161,0.094l-0.025,0.093l0.019,0.138l-0.093,0.155l0.055,0.125l0.236,0.168l0.154,0.025l0.211,-0.056l0.087,-0.118h0.105l0.068,0.156l0.087,0.043l0.148,0.007l0.186,0.099l0.018,0.131l-0.111,0.113l-0.241,0.018l-0.217,-0.075l-0.105,0.013l-0.056,0.112l-0.006,0.274l0.086,0.106l0.143,0.088l0.037,0.099l-0.05,0.094l-0.247,0.019l-0.087,0.075v0.099l0.297,0.256l0.217,0.044h0.18l0.123,0.062l0.044,0.1l-0.007,0.124l0.069,0.106l0.297,0.15l0.309,0.106l0.415,0.187l0.452,0.069l0.489,-0.013l0.099,0.038l0.025,0.118l0.111,0.125l-0.012,0.05l-0.087,0.031l-0.006,0.043l0.037,0.063l-0.006,0.05l-0.136,0.031l-0.198,-0.044l-0.217,0.006l-0.124,-0.093l-0.068,-0.175l-0.117,-0.031l-0.106,0.038l-0.006,0.099l0.056,0.125l-0.043,0.037l-0.329,-0.049l-0.297,-0.2l-0.105,-0.006l-0.05,0.062l0.025,0.069l0.118,0.043l0.012,0.056l-0.049,0.094l-0.242,0.237l-0.093,0.019l-0.235,-0.081l-0.074,0.024l-0.056,0.094l-0.006,0.112l0.111,0.112l0.056,0.169l-0.031,0.106l-0.006,0.255l0.025,0.163l-0.037,0.13l-0.124,0.106l-0.143,0.044l0.007,0.044l0.123,0.037h0.242l0.167,-0.075l0.074,0.05l0.006,0.194l-0.092,0.087l-0.31,0.118l-0.05,0.144l-0.055,0.05l-0.075,-0.007l-0.173,-0.124l-0.13,-0.013l-0.118,0.044l-0.049,0.093l0.019,0.106l0.086,0.098l0.074,0.194l-0.049,-0.002l-0.04,0.01l-0.175,0.039l-0.751,-0.033l-0.136,-0.05l-0.26,-0.2l-0.241,-0.149l-0.013,-0.075l0.037,-0.044l-0.018,-0.062l-0.075,-0.044l-0.049,-0.093l0.043,-0.044l0.167,0.075h0.124l0.025,-0.056l-0.093,-0.106l-0.025,-0.112l0.056,-0.144l-0.031,-0.062l-0.136,-0.044h-0.105l-0.056,0.05l-0.062,-0.006l-0.037,-0.062l0.056,-0.082l-0.025,-0.068l-0.13,-0.131l-0.161,-0.044l-0.13,-0.149l0.018,-0.081l0.075,-0.05l-0.006,-0.081l-0.056,-0.063l-0.068,0.007l-0.062,0.081l-0.006,0.087l0.043,0.075l-0.037,0.056l-0.285,-0.05l0.006,-0.062l0.143,-0.1l0.006,-0.1l-0.062,-0.006l-0.081,0.106l-0.105,-0.013l-0.111,-0.093l-0.05,0.019l0.006,0.062l0.068,0.062l-0.024,0.081l-0.068,-0.025l-0.038,-0.106l-0.167,-0.081l-0.062,0.032l0.007,0.056l0.117,0.05v0.049l-0.077,0.078l-0.014,0.131l-0.042,0.005l-0.046,-0.101l-0.236,-0.032l-0.26,-0.162l-0.062,-0.162l-0.105,-0.075h-0.223l-0.315,0.069l-0.13,-0.012l-0.05,-0.069l-0.093,-0.037l-0.074,0.012l-0.043,-0.037l-0.007,-0.106l-0.111,-0.057l-0.149,0.019l-0.173,0.075l-0.031,0.1l0.025,0.081l0.056,0.037l-0.031,0.1l-0.18,0.075l-0.142,0.006l-0.106,-0.044l-0.111,-0.012l-0.062,0.031l-0.074,-0.006l-0.112,-0.119l-0.148,-0.056v-0.056l0.062,-0.037v-0.081l-0.081,-0.131l-0.099,-0.019l-0.08,0.044l-0.019,0.081h-0.062l-0.074,-0.162l-0.081,-0.05l-0.08,0.012l-0.087,0.081l-0.043,0.169l-0.087,0.062l-0.167,0.037l-0.037,0.063l0.025,0.118l-0.037,0.075l-0.155,0.081l-0.068,0.087l-0.205,0.1l-0.117,-0.012l-0.285,-0.137l-0.136,-0.144l-0.18,-0.05l-0.278,-0.212l-0.137,-0.043l-0.105,-0.1l-0.117,-0.019l-0.137,0.038l-0.086,0.106l-0.118,0.068h-0.093l-0.062,-0.05h-0.068l-0.049,0.031l-0.062,-0.012l-0.013,-0.112l-0.062,-0.038l-0.049,0.038v0.087l-0.062,0.044l-0.155,-0.025l-0.148,0.012l-0.007,-0.05l0.081,-0.075l-0.006,-0.087l-0.062,-0.006l-0.062,0.075h-0.112l-0.03,-0.069l0.006,-0.187l-0.068,-0.006l-0.118,0.162l-0.124,0.044l-0.359,-0.044l-0.118,-0.075l-0.043,-0.118l-0.111,-0.094l-0.143,-0.025l-0.074,-0.068h-0.056l-0.049,0.075l-0.037,0.205l-0.118,0.05l-0.328,-0.012l-0.167,-0.05l-0.626,-0.312l-0.161,-0.15l-0.023,-0.104h-0.051l-0.065,0.061l-0.079,-0.005l0.005,-0.061l0.065,-0.056l-0.014,-0.056l-0.065,-0.019l-0.033,0.047l-0.004,0.089l-0.075,0.005l-0.051,-0.061l-0.023,-0.14l-0.074,-0.028l-0.037,0.032l0.065,0.094l-0.023,0.056l-0.154,-0.009l-0.069,-0.057l0.014,-0.088l0.079,-0.047l-0.005,-0.07l-0.084,-0.108h-0.097l-0.051,0.126l-0.07,0.052l-0.093,0.004l-0.06,0.071l-0.005,0.117l-0.051,0.079l-0.102,0.037l-0.102,-0.037l-0.042,0.028l0.046,0.122l-0.078,0.103l-0.209,0.004l-0.39,-0.145h-0.158l-0.102,0.066l-0.209,-0.019l-0.312,-0.192l-0.116,-0.056l-0.074,0.005l-0.083,0.047l-0.182,0.009l-0.102,-0.033h-0.116l-0.172,0.117l-0.055,0.173l-0.056,0.052l-0.014,0.065l0.037,0.07l-0.018,0.066l-0.098,0.168l-0.167,0.103l-0.158,0.047l-0.111,0.079l-0.005,0.066l0.019,0.056l-0.075,0.173l-0.014,0.131l-0.046,0.079l-0.065,0.033l-0.07,0.131l0.005,0.159l-0.056,0.07l-0.218,0.023l-0.144,0.01l-0.097,-0.066l-0.042,-0.075l-0.051,-0.014l-0.065,0.028l-0.107,0.005l-0.056,-0.033l-0.009,-0.056l-0.121,-0.061l-0.079,0.005l-0.069,-0.037l-0.112,-0.206v-0.079l-0.209,-0.15l-0.176,-0.033l-0.149,-0.089l-0.032,-0.06l-0.01,-0.183l-0.185,-0.243l-0.014,-0.08l-0.061,-0.06l-0.171,-0.01l-0.01,-0.051l0.061,-0.084l-0.061,-0.15l-0.204,-0.107h-0.079l-0.186,0.121l-0.097,0.014l-0.051,-0.023l0.023,-0.094l-0.065,-0.028l-0.153,0.014l-0.033,0.07l-0.186,0.01l-0.092,-0.042l-0.075,0.014l-0.028,0.103l-0.055,0.009l-0.047,-0.019l-0.079,0.019l-0.018,0.061l-0.144,0.121l-0.019,0.084l-0.042,0.043l-0.013,0.079l0.088,0.262l0.051,0.065v0.061l-0.056,0.07l-0.051,0.136l-0.009,0.093l-0.172,0.108v0.051l0.051,0.052l0.107,0.341l0.069,0.028l0.033,0.098l-0.033,0.075l0.028,0.089l-0.041,0.028h-0.075l-0.097,0.042l-0.079,0.225l0.134,0.411v0.14l0.223,0.206l-0.218,0.145l-0.2,0.024l0.089,0.135l-0.014,0.08l0.19,0.224l0.098,0.183l0.134,0.065l0.047,0.051l0.023,0.071l0.097,0.084l0.056,-0.014l0.06,-0.122l0.065,-0.019l0.089,0.047l0.074,-0.019l0.014,-0.098l0.046,-0.037l0.089,0.005l0.023,0.098l0.153,0.191l0.135,0.014l0.041,0.043l-0.004,0.074l0.102,0.192l0.255,0.14l0.075,0.005l0.074,0.042l0.065,0.164l0.065,0.056l0.009,0.112l-0.055,0.033l-0.019,0.061l0.014,0.042l-0.051,0.033l-0.088,-0.01l-0.051,0.047l0.009,0.178l0.232,0.201l0.32,0.07l0.116,0.103l0.01,0.103l0.083,0.116l0.019,0.178l-0.028,0.052l0.005,0.051l0.037,0.023l0.014,0.052l-0.028,0.056l0.028,0.131l0.097,0.033l0.088,0.079l-0.009,0.07l-0.097,0.038l-0.149,0.004l-0.018,0.061l0.041,0.084l0.075,0.014l0.055,-0.032l0.107,0.037l0.023,0.056l0.2,0.07l0.088,0.075l-0.004,0.056l-0.098,0.066l-0.079,0.196l-0.005,0.15l0.038,0.243l0.092,0.098l0.065,0.131l-0.009,0.08l-0.046,0.064l-0.175,0.017l-0.074,0.043l0.017,0.017l0.076,-0.032l0.163,-0.013l0.148,0.085l0.178,0.216l0.195,0.127l0.113,0.139l0.005,0.149l0.077,0.097l0.091,0.005l0.168,0.091l0.029,0.11l0.064,0.059l0.136,0.013l0.217,-0.018l0.089,0.077l0.002,0.053l-0.037,0.072l0.005,0.191l0.079,0.042l0.222,-0.01l0.138,0.042l0.096,0.174l0.139,0.164l0.049,0.174l0.059,0.057l0.21,0.075l0.084,0.082l0.024,0.074l0.143,0.182l0.141,0.116l0.419,0.261l0.067,0.174l-0.007,0.206l0.049,0.058l-0.003,0.054l0.146,0.164l0.086,0.04l0.217,0.022l0.111,0.062l0.094,0.197l0.262,0.161l0.059,0.07l0.049,0.121l0.062,0.058l0.118,0.064l0.126,0.152l0.03,0.092l0.251,0.213l0.154,0.243l0.18,0.162l0.371,0.175l0.081,0.087l0.223,0.131l0.161,0.156l0.179,0.025l0.106,-0.031l0.222,0.006l0.298,0.15l0.105,0.143l-0.006,0.187l-0.087,0.162l-0.142,0.106l0.012,0.05l0.062,0.056l0.037,0.156l0.297,0.611l0.099,0.069l0.025,0.137l0.068,0.112l0.396,0.081l0.161,0.15l0.037,0.168l-0.03,0.119l0.012,0.062l0.074,0.013l0.105,0.031l0.18,0.137l0.477,0.224l0.124,0.088l0.439,0.249l0.396,0.786l0.075,0.112l-0.155,0.081l-0.167,0.012l-0.124,0.044l-0.087,0.075l-0.142,0.05l-0.206,0.018l-0.079,-0.014l-0.149,-0.004l-0.204,-0.084l-0.223,-0.234l-0.125,-0.337l-0.065,-0.033l-0.135,0.014l-0.051,-0.037l0.047,-0.108l-0.01,-0.051h-0.037l-0.056,0.089h-0.046l-0.06,-0.08l-0.163,-0.131l-0.042,-0.084l-0.125,-0.093l-0.028,-0.108l-0.195,-0.121l-0.158,-0.038l-0.065,-0.042l-0.042,-0.079l-0.343,-0.178l-0.33,-0.089l-0.083,-0.061l-0.01,-0.056l-0.069,-0.051l-0.098,-0.019l-0.144,-0.108l-0.018,-0.079l-0.07,-0.061l-0.084,-0.028l-0.162,-0.15l-0.023,-0.088l-0.061,-0.075l-0.107,-0.056l-0.162,-0.159l-0.056,-0.108l-0.204,-0.196l-0.116,-0.15l-0.358,-0.281l-0.037,-0.07l-0.06,-0.014l-0.074,0.019l-0.627,-0.047l-0.293,-0.065l-0.139,-0.084l-0.079,-0.113l-0.102,-0.032l-0.07,0.032l-0.176,-0.004l-0.098,-0.08l-0.172,-0.084l-0.12,-0.019l-0.242,-0.173l-0.069,-0.121l-0.098,-0.033l-0.158,0.019l-0.557,-0.038l-0.139,-0.023l-0.005,-0.037l0.102,-0.043l0.265,-0.06l0.139,-0.052v-0.037l-0.186,-0.052l-0.557,-0.079l-0.218,0.061l-0.149,0.131l-0.176,0.046l-0.163,-0.004l-0.125,0.028l-0.065,0.061l-0.167,0.018l-0.32,-0.061h-0.135l-0.023,0.038l0.339,0.093l0.028,0.052l-0.075,0.065l-0.204,0.033l-0.125,0.07l-0.144,0.005l-0.093,-0.066l-0.088,-0.018l-0.079,0.037l-0.103,-0.019l-0.046,-0.07l-0.139,-0.033l-0.07,0.038l-0.056,-0.023l0.005,-0.043l-0.046,-0.018l-0.075,0.028l-0.065,-0.014l-0.083,-0.07l0.014,-0.066l0.148,-0.005l0.037,-0.06l-0.032,-0.094l-0.037,-0.019l-0.065,0.061l-0.051,-0.009l-0.01,-0.075l-0.167,-0.07l-0.074,-0.196l0.023,-0.108l-0.042,-0.309l0.033,-0.065l0.288,0.014l0.003,-0.036l-0.136,-0.037l-0.149,-0.013l-0.068,-0.031l0.018,-0.044l0.118,0.007l0.099,0.037l0.05,-0.012l-0.068,-0.125l-0.248,-0.231l-0.173,-0.05l-0.124,-0.137l0.012,-0.056l0.124,-0.031l0.08,0.037l0.044,-0.012l-0.044,-0.106l-0.13,-0.106l-0.043,0.006l0.031,0.1l-0.111,0.062l-0.118,-0.006l-0.217,-0.137l-0.173,-0.069l-0.353,-0.037l-0.229,-0.119l-0.111,-0.156l-0.112,-0.037l-0.037,0.044l0.13,0.193l-0.019,0.044l-0.092,-0.007l-0.229,-0.118l-0.087,-0.15l-0.248,-0.23l0.013,-0.05h0.061l0.149,0.05l0.043,0.118l0.124,0.094l0.013,-0.044l-0.068,-0.075l0.012,-0.044l0.192,0.019l0.148,0.069l0.056,-0.013l-0.062,-0.081l-0.309,-0.168l-0.211,-0.044l-0.322,-0.243l-0.049,-0.087l-0.18,-0.15l-0.241,-0.075l-0.124,-0.099l-0.062,-0.138l-0.111,-0.118l-0.081,-0.025l-0.124,-0.106l-0.068,-0.137l-0.328,-0.324l-0.173,-0.05l-0.137,-0.15l-0.043,-0.143l-0.155,-0.156l-0.148,-0.075l-0.167,-0.212l-0.007,-0.125l-0.198,-0.218l-0.154,-0.087l-0.031,-0.088l0.086,-0.099v-0.156l-0.155,-0.1l-0.136,-0.125v-0.093l0.118,-0.087l0.087,0.006l0.179,0.231l0.105,0.018l0.099,-0.037l0.025,-0.094l-0.062,-0.112v-0.081l0.062,-0.031l0.068,0.012l0.18,0.162l0.229,0.163h0.074l0.025,-0.088l-0.087,-0.137l0.025,-0.05l0.081,-0.019l0.006,-0.056l-0.205,-0.162l-0.043,-0.106l0.043,-0.037l0.378,0.193l0.037,0.112l0.458,0.256l0.137,0.012l0.08,-0.031l0.124,0.007l0.167,0.062l0.322,0.056l0.031,-0.05l-0.074,-0.118l-0.124,-0.038h-0.149l-0.21,-0.093l-0.198,-0.212l-0.155,-0.081l-0.403,-0.162l-0.452,-0.262l-0.377,-0.43l-0.508,-0.424l-0.173,-0.306l-0.452,-0.38l-0.198,-0.088l-0.136,-0.118l-0.093,-0.187l-0.068,-0.2l-0.192,-0.212l-0.003,-0.074l-0.219,-0.29v-0.136l0.019,-0.126v-0.089l-0.051,-0.117l-0.051,-0.337l0.028,-0.402l0.06,-0.107l0.037,-0.192l0.098,-0.285l0.037,-0.281l-0.047,-0.14l-0.088,-0.094l-0.111,-0.229l-0.024,-0.163l-0.153,-0.361l-0.069,-0.102l-0.042,-0.145l-0.074,-0.056l-0.112,-0.015l-0.241,-0.116l-0.149,-0.019l-0.195,-0.14l-0.06,-0.103l-0.451,-0.365l-0.088,-0.023l-0.093,-0.075l-0.037,-0.108l-0.088,-0.079l-0.115,-0.053l-0.102,-0.1l-0.052,-0.123l0.032,-0.052l0.051,-0.009l0.019,-0.037l-0.079,-0.089l-0.121,-0.061l-0.023,0.033l0.097,0.131l-0.028,0.051h-0.092l-0.144,-0.07l-0.256,-0.201l-0.32,-0.154l-0.622,-0.173l-0.075,0.004l-0.111,0.108l-0.065,0.146l-0.071,0.06l-0.05,0.112l-0.012,0.078l-0.084,0.258l-0.021,0.128l-0.13,0.328l0.012,0.096l-0.04,0.184l-0.099,0.262l-0.102,0.156h-0.038l-0.031,-0.053l-0.083,-0.047l-0.013,0.025l0.072,0.066l0.031,0.087l-0.062,0.14l-0.14,0.134l-0.046,0.01l-0.019,-0.025l-0.034,0.015l0.05,0.159l0.012,0.103l-0.021,0.009l-0.031,-0.018l-0.025,0.012l0.117,0.25l0.028,0.171l-0.028,0.122l-0.126,0.149l-0.053,-0.009l-0.025,-0.041l-0.037,-0.009l-0.028,0.025l-0.043,-0.009l-0.04,-0.044l-0.05,-0.006l-0.158,0.103l-0.065,0.078l-0.031,-0.007l0.006,-0.109l0.053,-0.065l0.102,-0.019l0.006,-0.031l-0.105,-0.125l-0.015,-0.072l-0.031,-0.021h-0.062l-0.037,-0.05l0.003,-0.063l-0.047,-0.096l-0.043,-0.022l-0.019,0.022l0.025,0.099l-0.037,0.075l0.028,0.053l0.096,0.031l0.077,0.047l0.006,0.081l-0.065,0.153l-0.074,0.106l-0.037,0.003l-0.012,0.025l0.031,0.103l-0.069,0.106l-0.061,0.012l-0.016,0.032l0.04,0.028l-0.021,0.05l-0.137,0.102l-0.077,0.004l-0.046,-0.044l-0.044,-0.009l-0.003,0.028l0.081,0.071l0.052,0.022l-0.006,0.028l-0.046,0.022l-0.01,0.05l0.038,0.075l-0.013,0.04l-0.059,0.028l-0.052,0.084l0.009,0.057l0.059,0.084l0.043,0.149l-0.028,0.041h-0.213l-0.143,-0.031l-0.086,-0.078l-0.075,-0.006l-0.024,0.028l0.052,0.106l-0.015,0.14l0.046,0.125l-0.028,0.025l-0.083,-0.019l-0.025,-0.041l0.022,-0.131l-0.013,-0.103l-0.037,-0.034l-0.217,-0.028l-0.12,-0.112l-0.003,-0.053l-0.044,-0.034l-0.04,0.003l-0.022,-0.038l0.025,-0.084l-0.037,-0.05l-0.111,-0.04h-0.072l-0.055,-0.069l0.012,-0.037l0.053,-0.003l0.074,0.062l0.096,0.003l0.108,-0.078l0.006,-0.059l-0.043,-0.006l-0.111,0.056l-0.072,-0.025l-0.034,-0.062l0.013,-0.122l-0.025,-0.187l-0.13,-0.23l-0.123,-0.174l-0.012,-0.081l-0.025,-0.028l-0.143,0.013l-0.042,-0.023l-0.02,-0.052l-0.113,-0.142l-0.007,-0.069l-0.042,-0.032l-0.087,-0.005l-0.024,-0.025l0.005,-0.067l-0.042,-0.072l-0.013,-0.057l-0.14,-0.102l-0.106,-0.02l-0.057,0.02l-0.045,-0.013l0.003,-0.052l0.044,-0.047l0.032,-0.114l-0.022,-0.067l-0.116,-0.033l-0.086,-0.064l0.002,-0.057l0.04,-0.02l0.039,0.005l0.02,-0.015l0.005,-0.052l0.035,-0.018l0.064,0.008l0.308,0.002l0.094,-0.032l0.101,-0.008l0.074,0.013l0.012,-0.018l-0.096,-0.027l-0.109,0.003l-0.083,0.027l-0.309,-0.008l-0.061,-0.017l-0.052,-0.005l-0.04,0.05l-0.049,0.005l-0.042,-0.04l-0.002,-0.089l0.029,-0.04l0.005,-0.047l-0.047,-0.092l-0.042,-0.055l0.003,-0.03l0.052,-0.01l0.002,-0.027l-0.108,-0.084v-0.053l0.066,-0.017l0.003,-0.03l-0.037,-0.035l-0.005,-0.034l0.032,-0.05l0.029,-0.162l-0.049,-0.124l-0.079,-0.037l-0.012,-0.055l0.064,-0.094l0.074,0.007l0.029,-0.02l-0.027,-0.034l-0.091,-0.02l-0.067,-0.072l0.008,-0.042l0.133,-0.05l0.047,-0.067l0.005,-0.062l-0.03,-0.013l-0.103,0.07l-0.124,-0.01l-0.022,-0.06l-0.079,-0.032l-0.044,-0.052l-0.032,-0.514l-0.129,-0.192l-0.049,-0.432l-0.113,-0.127l0.017,-0.099l0.121,-0.052l0.185,0.064l0.224,0.142l0.052,0.04l0.027,-0.008l-0.002,-0.039z M1238.892817,451.952152l-0.004,0.276l0.055,0.056v0.061l-0.065,0.135l0.019,0.061l0.181,0.084l0.102,0.108l0.051,0.103l0.236,0.177l-0.02,0.015l-0.036,-0.008l-0.022,0.021l-0.003,0.066l0.025,0.047l0.053,0.021l0.03,0.035l-0.024,0.015l-0.062,-0.028l-0.362,-0.361l-0.154,-0.061l-0.079,0.033l-0.055,-0.038l-0.01,-0.037l0.047,0.004l0.009,-0.032l-0.292,-0.192l-0.432,-0.238l-0.121,-0.033l-0.135,-0.08l-0.037,-0.075l-0.079,-0.065l-0.13,-0.051l-0.125,-0.15l0.005,-0.112l0.046,-0.047l-0.005,-0.122l-0.097,-0.084l-0.079,-0.014l-0.098,0.056l-0.069,-0.004l-0.088,-0.085l-0.307,-0.121l-0.144,-0.005l-0.195,-0.061l-0.014,-0.046l0.042,-0.047l0.06,-0.005l0.024,-0.033l-0.251,-0.163l-0.088,-0.01l-0.237,-0.102l-0.451,-0.307l-0.15,-0.047l-0.18,-0.164l0.007,-0.05l0.045,-0.025l0.034,-0.062l-0.005,-0.022l-0.037,0.01l-0.044,0.054l-0.057,0.003l-0.096,-0.072l-0.03,-0.087l-0.049,-0.023l-0.042,0.018l-0.113,-0.018l-0.064,-0.037l-0.055,0.005v0.05l-0.074,0.069l-0.049,-0.012l-0.044,-0.065l-0.178,-0.111l-0.244,-0.125l-0.035,-0.039l-0.02,0.012l0.023,0.05l0.261,0.166l0.121,0.134l0.044,0.077l0.003,0.055l-0.032,0.07h-0.035l-0.049,-0.04v-0.033l0.032,-0.042l-0.002,-0.072l-0.047,-0.052l-0.027,-0.005l-0.04,0.017l-0.118,-0.019l-0.222,-0.085l-0.037,-0.035l-0.05,-0.02l-0.153,-0.022l-0.429,-0.156l-0.461,-0.107l-0.114,-0.06l-0.286,-0.084l-0.089,-0.05l-0.009,-0.042l0.027,-0.035l0.044,-0.01l0.035,-0.047l-0.02,-0.03l-0.141,-0.065l-0.155,-0.101l-0.035,-0.003l-0.051,0.03l-0.19,-0.005l-0.121,-0.067l-0.052,-0.06l-0.081,-0.047l-0.432,-0.154l-0.116,-0.062l-0.106,-0.104l-0.114,-0.043h-0.074l-0.039,0.033l-0.086,0.02l-0.259,-0.018l-0.269,-0.059l-0.121,-0.005l-0.138,-0.045l-0.173,-0.109l-0.096,-0.015l-0.008,-0.028l0.04,-0.089l0.047,-0.055l-0.008,-0.017l-0.044,0.005l-0.044,-0.03l-0.02,-0.072l-0.054,-0.025l0.009,-0.022h0.067l0.106,0.03l0.232,0.151l0.081,0.032h0.114l0.14,-0.027l0.373,0.005l0.136,0.04l0.116,0.017l0.155,0.01l0.306,0.082l0.17,0.027l0.696,0.321l0.056,0.005l0.089,0.035l0.084,0.079l0.007,0.092l0.05,0.06l0.18,0.084l0.047,0.035l0.187,0.022l0.042,-0.02l0.008,-0.067l0.032,-0.007l0.054,0.037l0.382,0.154l0.064,0.003l0.089,0.042l0.091,0.094l0.092,0.035l0.052,-0.017l0.167,0.082l0.138,0.149l0.121,0.074l0.094,0.018l0.007,-0.02l-0.118,-0.07l-0.207,-0.181l-0.207,-0.1l-0.077,-0.064l0.191,-0.236l0.105,-0.056l0.276,0.066l0.179,0.068l0.155,0.128l0.05,0.003l0.108,-0.193l0.22,0.103l0.102,0.112l0.003,0.056l-0.025,0.047v0.072l0.065,0.128l0.087,0.102l0.136,0.047v0.025l-0.056,0.059l-0.009,0.063l0.04,0.031l0.13,0.003l0.248,0.084l0.155,0.147l0.102,0.018l0.046,0.032l0.003,0.062l0.103,0.112l0.198,0.034l0.22,0.184l0.145,0.066l0.056,0.09l-0.022,0.109l0.05,0.041l0.182,0.031l0.056,0.05l0.043,0.122l0.047,0.024l0.102,-0.031l0.099,0.05l0.179,0.222l0.09,0.077l0.056,0.016l0.025,0.062l0.043,0.019l0.146,-0.044l0.027,-0.037l0.041,-0.006l0.213,0.006l0.121,-0.037h0.111l0.096,0.021l0.109,0.163l0.089,0.077l0.27,0.178l0.004,0.058z"/>
</svg>
