<svg xmlns="http://www.w3.org/2000/svg" viewBox="1223.608 402.629 44.542 23.590">
  <path d="M1223.608368,416.982896l0.065,0.057l0.122,0.05l0.129,-0.014l0.181,-0.081l0.184,-0.028l0.071,-0.039l0.085,-0.009l0.166,0.034h0.126l0.049,0.02l0.067,0.072l0.252,0.124l0.026,0.102l-0.046,0.147l-0.046,0.058l-0.102,0.042l-0.041,0.059l0.018,0.076l0.065,0.016l0.009,0.055l-0.028,0.084l0.019,0.059l0.161,0.151l0.032,0.113l0.041,0.013l0.056,-0.03l0.059,0.034l-0.036,0.071l0.032,0.059l0.096,0.029l0.194,-0.004l0.023,0.042l-0.033,0.21l-0.041,0.029l-0.12,-0.025l-0.055,0.034l-0.004,0.126l0.211,0.185l0.138,0.041l0.258,0.257l0.032,0.088l0.055,0.025l0.06,-0.009l0.06,0.038l0.036,0.156l0.056,0.029l0.023,0.063l-0.014,0.143l0.041,0.063l0.23,0.092l0.045,0.064l0.127,0.049l0.049,0.002l0.079,0.067l0.118,0.033l0.094,0.005l0.074,0.069l-0.012,0.05l0.01,0.015l0.049,-0.015l0.047,0.022l0.123,0.241l0.146,0.216l0.032,0.003l0.029,-0.055l0.052,-0.017l0.035,0.027l0.002,0.07l0.039,0.026l0.06,0.005l0.065,0.032l0.088,0.01l0.079,-0.042l0.07,0.023l0.065,0.075l0.093,0.028l0.046,-0.024l0.042,0.019l0.014,0.052l0.084,0.098l0.083,0.033l0.061,0.112l-0.014,0.089l0.023,0.159l0.069,0.088v0.108l0.163,0.173l0.13,0.061l0.135,0.121l0.097,-0.009l0.042,0.033l-0.005,0.093l0.093,0.042l0.112,0.01l0.278,0.154l0.084,0.009l0.042,0.028l0.023,0.061l0.065,0.038l0.083,-0.01l0.234,0.116l0.025,0.068l0.062,0.019l0.068,-0.037l0.08,0.037l0.025,0.069l0.124,0.093l0.019,0.119l-0.031,0.074v0.131l0.055,0.025l0.184,-0.031l0.07,0.089l-0.023,0.107l-0.125,0.047l0.009,0.042l0.116,-0.028l0.079,0.033l0.037,0.089l0.042,0.033l0.144,0.014l0.014,0.065l-0.065,0.061l0.037,0.075l0.172,0.018l0.018,0.056l-0.209,0.089l0.014,0.038l0.139,0.07l0.112,-0.005l0.023,0.033l-0.065,0.089l0.051,0.047l0.084,-0.038l0.032,0.033l-0.055,0.117l0.032,0.023l0.102,-0.07l0.019,-0.07l-0.033,-0.084l0.028,-0.024l0.056,0.061l0.023,0.094l0.07,0.004l0.055,-0.117l0.051,0.01v0.131l-0.055,0.07l0.032,0.037l0.093,-0.023l0.037,0.033l-0.088,0.037l-0.19,-0.023l-0.037,0.046l0.037,0.08l0.079,0.019l0.134,-0.047l0.051,0.028l-0.009,0.093l0.056,0.019l0.06,-0.065l0.056,0.014l0.023,0.056l0.102,0.018l0.023,-0.056l-0.051,-0.065l0.019,-0.056l0.093,-0.005l0.26,0.066l0.199,0.014l0.089,0.042l0.102,0.009l0.088,-0.037l0.121,0.028l0.148,0.131l0.121,0.065l0.135,0.182l0.083,0.197l0.014,0.145l0.079,0.093l0.093,0.024l0.079,-0.033l0.084,0.009l0.074,0.047l0.186,0.038l0.092,0.107l0.075,0.005l0.051,-0.033l0.088,0.009l0.098,0.08l0.065,0.014l0.065,-0.033l0.069,0.033l0.005,0.089l0.13,0.117l0.032,0.084l0.07,0.009l0.056,-0.079l0.158,-0.099l0.074,-0.004l0.07,0.037h0.051l0.13,-0.047l0.195,0.01l0.079,-0.028l0.065,0.009l0.157,0.122l0.214,0.051l0.144,0.061l0.13,-0.009l0.158,-0.173l0.144,-0.005l0.111,0.079h0.075l0.078,-0.06h0.098l0.19,0.06l0.098,0.127l0.195,0.046l0.13,-0.023l0.241,0.042l0.033,0.056l0.046,-0.005l0.112,-0.149l0.093,-0.014l0.13,0.056l0.023,0.107l0.069,0.061l0.223,0.033l0.065,-0.051l-0.023,-0.131l0.079,-0.056l0.125,-0.005l0.038,-0.042l0.037,-0.169l0.074,-0.009l0.084,0.061l0.116,-0.052l0.144,-0.009l0.116,-0.089l0.023,-0.07l0.2,-0.187l0.083,-0.019l0.033,-0.051l-0.019,-0.094l0.051,-0.149l0.047,-0.01l0.046,0.042l0.065,-0.009l0.005,-0.051l-0.056,-0.084l0.023,-0.061l0.079,-0.014l0.023,-0.052l-0.046,-0.103l0.037,-0.028l0.088,0.019l0.135,-0.019l0.097,0.024l0.047,0.06l0.093,0.038h0.088l0.204,0.117l0.084,0.075l0.097,0.004l0.056,-0.037l0.014,-0.112l-0.037,-0.066l0.049,-0.044l0.044,-0.029l0.055,0.05l0.217,-0.029l0.012,-0.056l0.038,-0.012l0.04,0.021l0.102,-0.041l0.068,-0.082l0.093,-0.009l0.26,0.047l0.192,-0.012l0.102,0.044l0.043,-0.024l-0.052,-0.143l0.052,-0.111l0.115,-0.041l0.22,-0.018l0.111,0.023l0.034,-0.026l-0.09,-0.223l0.016,-0.058l0.21,-0.267l0.069,-0.023l0.12,0.017l0.053,0.047l0.071,0.179v0.07l0.028,0.033l0.34,0.017l-0.031,-0.05h0.22l0.04,0.035l0.31,-0.005l0.071,0.055l0.04,-0.023l-0.136,-0.176l0.542,-0.293l0.105,0.126l0.239,-0.079l0.083,-0.108l0.242,-0.173l-0.003,-0.109l0.102,-0.076l0.185,-0.041l0.115,-0.085l-0.124,-0.099l-0.025,-0.071l0.078,-0.064l0.077,0.026l0.217,-0.149l0.012,-0.068l0.037,-0.029l0.313,0.097l0.105,-0.012l0.136,-0.135l0.07,-0.01l0.084,0.075l0.046,-0.005l0.056,-0.048l0.091,-0.006l0.105,0.112l0.124,0.035l0.124,0.146l0.235,0.065l0.143,0.07l0.241,-0.141l0.149,-0.029l0.26,-0.082l0.111,-0.1l0.502,-0.011l0.099,0.035l0.031,0.176l0.074,0.046l0.136,-0.029l0.223,-0.228l0.074,0.029v0.07l0.155,0.123l0.105,0.03l0.229,-0.118l0.161,0.123l0.037,0.071l0.137,0.076l0.068,-0.029l0.043,0.005l-0.025,0.059l0.056,0.029l0.062,-0.064l0.185,-0.221l0.099,-0.055l0.025,0.061l0.291,-0.158l0.068,0.103l0.223,0.013l0.26,0.097l0.142,-0.006l0.192,-0.195l0.013,-0.122l0.068,-0.043l0.278,0.079l0.248,0.202l0.167,0.061l0.149,0.14l0.08,-0.012l0.05,-0.122l0.111,-0.037h0.136l0.23,-0.323l0.031,-0.128h0.204l-0.068,-0.36l0.167,-0.208l0.117,0.019l0.527,-0.104l0.117,0.116l0.155,0.049l0.056,-0.025l0.043,-0.067h0.105l0.056,0.104l0.248,0.03l0.155,-0.036l0.08,0.024l0.043,0.086l0.143,0.061l0.08,-0.025l0.18,-0.122l0.142,-0.323l0.149,-0.025l0.049,0.049h0.143l0.055,-0.067l-0.037,-0.104l0.037,-0.134l0.075,-0.043l0.049,-0.079v-0.183l0.056,-0.226l0.142,-0.085l0.347,0.067l0.087,-0.031v-0.085l0.142,-0.262l-0.111,-0.202l-0.18,-0.049l-0.062,-0.17l0.087,-0.306l0.099,-0.061l0.179,-0.244l-0.006,-0.073l-0.074,-0.012l-0.025,-0.061l0.062,-0.147l0.118,-0.158l0.26,-0.031l0.223,0.092l0.062,-0.025l0.018,-0.103l0.081,-0.073l0.167,-0.08v-0.073l-0.087,-0.018l-0.08,-0.153l0.055,-0.067l0.118,0.043l0.105,-0.037l0.105,0.061l0.112,-0.037l0.142,-0.219l-0.006,-0.171l-0.241,-0.183l0.031,-0.116l0.111,-0.055l0.081,-0.244l-0.013,-0.183l0.105,-0.104l0.378,-0.11l0.068,-0.048l-0.006,-0.086l0.056,-0.067l-0.006,-0.146l-0.056,-0.019l-0.037,-0.128l0.08,-0.085l0.198,-0.031l0.13,-0.158h0.099l0.05,-0.098l-0.074,-0.043l0.03,-0.177l0.062,-0.061l-0.012,-0.128l-0.124,-0.061l-0.074,-0.085l0.012,-0.074l0.242,-0.079l0.148,-0.159l0.007,-0.109l0.061,-0.122l0.372,-0.074l0.08,-0.085l0.143,-0.415l0.278,-0.165l0.007,-0.219l-0.062,-0.055l-0.013,-0.08l0.136,-0.219l0.124,-0.074l0.025,-0.067l-0.049,-0.073l0.099,-0.287l0.266,-0.427l0.155,-0.104l0.154,-0.006l0.081,0.049h0.111l0.136,-0.305l-0.037,-0.274l-0.074,-0.068l-0.08,-0.189l0.074,-0.293l0.173,-0.219l0.105,0.079l0.062,-0.073l-0.068,-0.086l0.124,-0.103l0.118,-0.006l0.173,-0.184l0.012,-0.085l0.062,-0.049l0.167,0.061l0.106,-0.006l0.086,-0.134l0.075,-0.342l0.074,-0.036l0.068,-0.068l0.019,-0.164l0.055,-0.08l0.099,-0.006l0.081,-0.049l0.018,-0.213l0.069,-0.061l0.111,-0.006l0.167,-0.134v-0.116l0.062,-0.043l0.204,0.152l0.378,0.043l0.093,-0.043l0.155,-0.445l0.204,-0.055l0.378,0.195l0.105,0.098h0.384l0.34,-0.085l0.174,-0.116l0.086,-0.208l0.136,-0.116l0.137,0.012l0.154,-0.054l0.044,-0.08l-0.087,-0.274l0.019,-0.061l0.241,-0.006l0.13,-0.08l0.204,-0.061l0.168,-0.25l0.111,-0.147l-0.055,-0.096l-0.26,-0.141l-0.019,-0.116l0.235,-0.327l0.031,-0.141l-0.043,-0.044l-0.049,0.012l-0.044,-0.044l-0.006,-0.109l-0.179,-0.174l0.006,-0.102l-0.043,-0.09l-0.075,-0.006l-0.055,0.07l-0.05,-0.025l0.019,-0.052l-0.031,-0.051l-0.142,-0.019l-0.056,0.045l0.043,0.064l-0.056,0.013l-0.099,-0.077l-0.179,0.006l-0.278,0.18l-0.13,0.025l-0.26,-0.07l-0.136,-0.007l-0.062,-0.07l0.006,-0.282l-0.037,-0.116l-0.093,-0.038l-0.08,-0.18l0.043,-0.064l-0.012,-0.064l-0.223,-0.109l-0.111,-0.122l-0.013,-0.109l-0.092,-0.089l-0.106,-0.039l-0.068,0.051l-0.179,0.013l-0.111,-0.057l-0.192,0.019l-0.068,0.102l-0.075,-0.006l-0.055,-0.071l-0.025,-0.121l-0.062,-0.09l-0.086,-0.051l-0.044,-0.065l0.025,-0.141l-0.031,-0.077l-0.074,-0.032l-0.062,-0.141l0.031,-0.121l-0.068,-0.103l-0.303,-0.077l-0.093,-0.224l0.08,-0.122l-0.031,-0.071l-0.167,-0.025l-0.086,-0.09l-0.124,-0.006l-0.099,0.077l-0.155,0.044l-0.049,0.111l-0.025,0.061l-0.13,0.044l-0.024,0.099l-0.186,0.037l-0.124,-0.05l-0.173,0.007l-0.124,-0.081l-0.111,0.006l-0.142,0.081h-0.279l-0.154,0.099l-0.403,0.068l-0.08,-0.031l-0.111,0.025l-0.044,0.204l-0.061,0.018l-0.056,-0.043l-0.136,-0.019l-0.186,0.007l-0.254,-0.068l-0.098,-0.075l-0.013,-0.099l-0.161,-0.167l-0.086,-0.006l-0.062,-0.056l0.037,-0.123l-0.13,-0.248l-0.118,-0.068l-0.061,-0.173l0.024,-0.08l-0.086,-0.26l-0.105,-0.025l-0.112,0.049l-0.229,-0.037l-0.123,-0.105l-0.044,-0.192l-0.328,-0.228l-0.167,-0.087h-0.099l-0.037,0.155l-0.074,0.055l-0.501,-0.012l-0.105,0.068l-0.044,0.173l-0.098,0.068l-0.186,-0.025l-0.136,-0.08l-0.099,-0.012l-0.248,0.111l-0.185,0.019l-0.136,0.08l-0.031,0.111l-0.081,0.044h-0.123l-0.099,-0.068l-0.019,-0.099l-0.216,-0.099l-0.279,-0.05l-0.254,0.093l-0.129,-0.019l-0.031,-0.074l-0.106,-0.068l-0.043,-0.111l-0.105,-0.056l-0.198,0.068l-0.136,-0.031l-0.105,-0.105l-0.006,-0.08l-0.093,-0.044l-0.285,0.075l-0.408,0.03l-0.303,0.081l-0.074,-0.025l-0.124,0.031l-0.124,0.087l-0.303,0.086l-0.21,-0.037l-0.068,0.025l-0.019,0.08l-0.087,0.013l-0.055,-0.068h-0.056l-0.049,0.062l0.043,0.228l-0.13,0.223l-0.124,0.111l0.019,0.056l-0.037,0.056l-0.118,0.025l-0.185,0.198l-0.056,0.099l0.049,0.08l-0.037,0.093l-0.062,0.037l-0.024,0.062l0.055,0.074l-0.037,0.093l-0.142,0.068l-0.081,0.136l0.007,0.105l-0.235,0.235l-0.05,0.13l-0.13,0.111l-0.136,0.019l-0.136,-0.087l-0.13,-0.043l-0.105,0.037l-0.043,0.105l-0.26,0.118l-0.272,-0.056l-0.069,0.037l0.025,0.093l-0.049,0.142l-0.39,0.26l0.012,0.081l-0.142,0.086l-0.155,-0.037l-0.414,0.142l-0.167,0.211l-0.204,0.08l-0.044,-0.049l0.068,-0.093v-0.08l-0.216,-0.174l-0.149,-0.006l-0.049,0.087h-0.074l-0.044,-0.05l-0.117,0.025l-0.025,0.087l-0.08,-0.013l-0.044,-0.099l0.075,-0.105l-0.007,-0.087l-0.241,-0.173l-0.148,-0.025l-0.136,0.099l-0.161,-0.018l-0.112,-0.105l-0.03,-0.155l-0.05,-0.043l-0.074,0.037l-0.056,-0.012l-0.068,-0.075h-0.099l-0.13,0.149l-0.284,0.173h-0.118l-0.056,0.043v0.099l-0.037,0.056l-0.062,0.018l-0.043,0.081l0.025,0.08l-0.031,0.112l-0.056,0.08l-0.08,0.291l-0.112,0.13h-0.08l-0.037,-0.068l-0.093,-0.019l-0.102,0.102l-0.167,0.028l-0.111,-0.037l-0.52,0.019l-0.241,0.12l-0.093,0.13l-0.111,0.009l-0.112,-0.055l-0.352,-0.01l-0.177,-0.065h-0.287l-0.14,0.084l-0.13,0.009l-0.167,-0.111l-0.12,0.009l-0.121,0.121l-0.417,0.028l-0.288,0.065l-0.223,-0.028l-0.13,0.093l-0.092,0.389l-0.112,0.065l-0.195,0.01l-0.055,0.092l0.111,0.13l0.009,0.195l-0.083,0.102l-0.01,0.269l0.075,0.149l0.278,0.176l0.074,0.121l0.112,0.028l0.083,0.046l-0.065,0.093l-0.38,-0.065l-0.242,0.046l-0.12,0.074l-0.019,0.13l-0.148,0.14l-0.353,0.139l-0.325,0.018l-0.12,-0.046l-0.232,-0.009l-0.121,0.074l-0.176,-0.009l-0.065,-0.065l-0.142,-0.007l-0.155,0.081l-0.223,0.025l-0.544,0.16l-0.223,0.007l-0.216,-0.081l-0.508,0.006l-0.507,-0.111l-0.408,-0.006l-0.173,0.049l-0.099,-0.006l-0.093,-0.043l-0.105,0.006l-0.198,0.087l-0.477,-0.007l-0.161,0.044l-0.297,-0.013l-0.253,-0.074l-0.254,-0.049l-0.093,-0.037l-0.092,-0.124l-0.347,-0.217l-0.148,-0.148l-0.155,-0.019l-0.068,0.05l-0.087,-0.006l-0.105,-0.137l-0.043,-0.16l-0.149,-0.124l-0.173,-0.025l-0.309,-0.185l-0.099,-0.248l-0.39,-0.328l-0.204,-0.229l-0.161,-0.068l-0.315,-0.012l-0.149,-0.081l-0.012,-0.086l-0.062,-0.037l-0.111,0.031h-0.205l-0.426,-0.022l-0.415,0.298l0.018,0.043l0.099,0.066l-0.152,0.218l0.125,0.071l-0.099,0.18l0.05,0.052l-0.108,0.189h-0.098l-0.198,0.08l-0.161,0.01l-0.009,0.066l0.224,0.185l0.009,0.09l0.112,0.094l0.014,0.071l-0.112,0.1l-0.009,0.066l0.121,0.27l-0.005,0.236l0.157,0.166l-0.229,0.024l-0.887,0.156h-0.26l-0.049,-0.033l-0.009,-0.237l-0.036,-0.005l-0.054,0.067l-0.103,0.057l-0.063,0.184l-0.515,0.01l-0.18,-0.346l-0.004,-0.099l-0.394,-0.076l-0.126,-0.052l-0.063,-0.071l-0.184,-0.01l-0.34,0.09l-0.067,0.109l0.071,0.114l-0.058,0.09l-0.157,0.023l-0.206,0.138l-0.063,0.085l-0.063,-0.005l-0.067,-0.099l-0.045,0.009l-0.035,0.171l-0.086,0.042l-0.013,0.048l0.112,0.066l0.157,0.023l0.107,0.048l0.036,0.057l0.094,0.019l0.059,-0.048l0.071,0.005l0.337,0.213l0.134,0.005l0.152,-0.076l0.121,-0.005l0.099,0.062l0.117,0.303l-0.014,0.094l-0.049,0.067l0.049,0.047h0.076l0.059,0.033l0.031,0.071l0.076,0.028l0.009,0.071l-0.063,0.128l-0.085,0.095l-0.098,0.028l-0.041,-0.019l-0.053,0.01l-0.018,0.076l0.076,0.236l-0.058,0.147l-0.148,0.076l-0.09,0.099l-0.224,0.095l-0.099,0.128l-0.098,0.009l-0.086,-0.043h-0.116l-0.09,0.053l-0.049,0.099h-0.049l-0.054,-0.118l-0.179,-0.057l-0.072,0.042l0.009,0.114l0.054,0.085l-0.036,0.218l-0.081,0.033l-0.004,0.071l0.161,0.109l0.112,0.393l-0.046,0.12l-0.096,0.069l-0.063,-0.013l-0.131,0.016l-0.009,0.026l0.063,0.025l-0.015,0.252l-0.033,0.06l-0.078,0.01l-0.03,0.034l0.03,0.13l0.072,0.047l0.101,-0.013l0.054,0.035l0.018,0.161l-0.063,0.104l0.027,0.07l0.075,0.006l0.163,-0.058l0.134,0.018l0.078,0.092l-0.015,0.063l-0.137,0.047l-0.036,0.045l0.012,0.05l-0.039,0.028l-0.054,0.004l-0.122,0.097v0.095l0.08,0.114l0.242,0.091l-0.003,0.079l-0.05,0.041l-0.207,0.019l-0.23,0.082l-0.012,0.066l0.039,0.048h0.057l0.039,-0.041l0.054,-0.007l0.071,0.048l0.069,0.107l0.117,0.066v0.035l-0.141,0.054h-0.072l-0.101,-0.048l-0.087,0.003l-0.039,0.064l-0.119,-0.023l-0.03,-0.044l-0.078,-0.031l-0.164,0.038l-0.051,-0.01l-0.045,-0.044l-0.089,-0.006l-0.03,0.069l-0.045,0.006l-0.069,-0.041l-0.063,-0.006l-0.056,0.025l-0.048,-0.015l-0.024,-0.089l-0.051,0.01l-0.069,0.221l-0.003,0.167l-0.047,0.034l-0.075,-0.009l-0.114,0.092l-0.027,0.072l-0.086,0.047l-0.084,-0.034l-0.06,0.034l-0.083,0.234l-0.06,0.054l-0.063,0.009l-0.081,0.066l-0.041,0.082l-0.108,0.114l-0.099,0.049z"/>
</svg>
