<svg xmlns="http://www.w3.org/2000/svg" viewBox="997.352 551.199 31.331 12.717">
  <path d="M1027.917258,551.350514l0.064763,-0.133106l0.14803,-0.019015l0.083267,0.085568l-0.083267,0.133106l-0.185037,0.028523l-0.027756,-0.095075Z M1027.917258,552.130133l0.049343,-0.114091l-0.061679,-0.03803l-0.049343,0.03803v0.107752l0.061679,0.006338Z M1027.812404,552.516773v0.095075l0.178869,0.006338l0.197373,-0.133106l0.098686,-0.228181l-0.067847,-0.088737l-0.14803,-0.057045l-0.061679,0.082399l-0.074015,0.247196l-0.123358,0.07606Z M1025.980538,556.090169l0.086351,-0.018504l0.006168,-0.172701l-0.049343,-0.012336l-0.086351,0.055511l-0.030839,0.086351l0.074015,0.061679Z M1025.820173,555.210577l0.326899,0.03803l0.061679,0.088737l0.067847,0.012677l0.197373,-0.221843l0.061679,-0.209166l0.197373,-0.088737l0.23438,-0.044369l0.215876,0.006338l0.191205,-0.088737l0.074015,-0.095075l0.092518,-0.03803l0.240548,-0.044369l0.462592,-0.291565l0.135694,-0.215504l-0.018504,-0.196489l0.11719,-0.240858l-0.006168,-0.107752l-0.092518,-0.107752l0.018504,-0.120429l0.191205,-0.145782l0.092518,-0.323256l-0.037007,-0.082399l-0.092518,-0.019015l-0.154197,-0.095075l-0.037007,-0.139444l-0.043175,-0.012677l-0.030839,0.126767l-0.129526,0.095075l-0.178869,0.323256l0.006168,0.171136l-0.111022,0.177474l-0.129526,0.044369l-0.135694,-0.126767l-0.129526,-0.019015l-0.203541,0.107752l-0.080183,-0.03803l-0.104854,0.031692l-0.049343,0.095075l-0.277555,0.164797l-0.141862,0.006338l-0.474928,0.266211l-0.23438,0.373963l0.018504,0.507069l-0.313021,0.323256l0.041633,0.161628l0.160365,-0.009508Z M1021.431714,560.765435l0.064763,0.037007l0.231296,-0.10177l0.814162,0.231296l0.175785,-0.046259l0.425585,-0.407081l0.191205,-0.317647l0.104854,-0.092518l0.296059,-0.033923l0.259052,-0.10177l0.767903,-0.138778l0.138778,-0.120274l0.098686,-0.037007l0.154197,0.030839l0.144946,-0.067847l0.231296,-0.360822l-0.046259,-0.10177l0.203541,-0.4996l0.129526,-0.129526l0.009252,-0.185037l-0.092518,-0.333066l0.009252,-0.194289l0.120274,-0.064763l0.14803,-0.647629l-0.120274,-0.888177l-0.166533,-0.157281l-0.222044,-0.092518l-0.721644,0.231296l-0.083267,0.157281l0.064763,0.203541l-0.175785,0.370074l0.018504,0.129526l-0.027756,0.120274l-0.138778,0.14803l-0.268304,0.60137l-0.268304,0.194289l-0.10177,0.222044l-0.092518,0.444089l-0.231296,0.175785l-0.064763,0.268304l0.046259,0.138778l-0.055511,0.323815l-0.268304,0.286807l-0.647629,0.407081l-0.471844,0.14803l-0.231296,0.027756l-0.185037,-0.055511l-0.055511,0.055511l0.018504,0.120274l-0.129526,0.10177Z M997.475064,563.453023l0.548943,0.055511l0.185037,0.104854l0.111022,0.197373l0.228212,0.104854l0.098686,-0.067847l-0.030839,-0.172701l0.067847,-0.129526l0.006168,-0.191205l0.061679,-0.067847h0.098686l0.080183,-0.043175v-0.104854l0.209709,-0.302227l0.061679,-0.166533l-0.074015,-0.154197l-0.191205,-0.080183l-0.209709,0.037007l-0.141862,0.123358l-0.11719,-0.012336l-0.043175,0.043175l0.080183,0.092518l-0.061679,0.141862l-0.370074,0.222044h-0.289891l-0.215876,-0.098686l-0.166533,0.092518l-0.049343,0.26522l0.123358,0.111022Z M1002.738584,560.205439l-0.043175,0.333066l0.191205,0.345402l0.511935,0.277555l0.425585,-0.074015l0.462592,-0.363906l0.074015,-0.11719l-0.104854,-0.35157l-0.271387,-0.172701l-0.160365,-0.055511l-0.123358,-0.104854l-0.277555,-0.030839l-0.111022,-0.092518l-0.123358,-0.006168l-0.289891,0.098686l-0.160365,0.314563Z M998.551497,556.150974l0.123358,0.444089l0.154197,0.178869l0.092518,0.302227l0.098686,0.086351l0.197373,0.345402l0.092518,0.462592l0.154197,0.104854l0.092518,-0.061679l0.277555,-0.542775l0.172701,-0.166533l0.061679,-0.444089l-0.098686,-0.26522l0.037007,-0.197373l0.154197,-0.135694l0.092518,-0.166533l-0.049343,-0.135694l-0.086351,-0.055511l-0.222044,-0.530439l-0.172701,-0.030839l-0.314563,0.080183l-0.289891,-0.074015l-0.067847,-0.092518l-0.086351,-0.012336l-0.049343,0.080183l-0.252884,0.129526l-0.26522,0.296059l0.006168,0.240548l0.14803,0.160365Z M1012.806215,561.422182l-0.018504,0.536607l0.296059,0.564363l0.758651,0.555111l0.370074,0.055511l0.111022,0.083267l0.203541,-0.009252l0.092518,-0.194289l0.416333,-0.194289l0.434837,-0.046259l0.074015,-0.120274l-0.027756,-0.14803l0.074015,-0.120274l0.138778,-0.027756l0.037007,-0.14803l-0.046259,-0.138778l0.107938,-0.280639l-0.043175,-0.209709l0.074015,-0.14803l-0.064763,-0.203541l-0.225128,-0.246716l0.006168,-0.296059l-0.067847,-0.160365l0.027756,-0.10177l0.129526,-0.064763l0.027756,-0.120274l-0.083267,-0.120274l-0.138778,-0.009252l-0.083267,0.092518l0.037007,0.157281l-0.074015,0.120274l-0.163449,-0.003084l-0.11719,-0.104854l-0.246716,-0.055511l-0.471844,0.052427l-0.259052,-0.166533l-0.360822,0.018504l-0.083267,0.111022v0.314563l-0.175785,0.286807l-0.444089,0.277555l-0.222044,0.212792Z M1005.668335,558.978027l0.231296,0.35157l0.129526,0.10177l0.046259,0.083267l-0.046259,0.10177l0.14803,0.397829l0.508852,0.647629l0.074015,0.194289l0.194289,0.138778l0.027756,0.277555l0.166533,0.037007l0.120274,-0.046259l0.129526,0.009252l0.2498,-0.157281l0.277555,-0.009252l0.175785,-0.064763l0.665493,-0.730228l0.056151,-0.46326l0.286807,-0.518103l0.129526,-0.120274l0.037007,-0.129526l-0.064763,-0.14803l0.012419,-0.247945l0.162714,-0.170462l0.139429,-0.01643l0.407081,-0.333066l0.120274,-0.194289l0.634926,-0.33177l0.154966,-0.209203l-0.061986,-0.17821l-0.185959,-0.04649l-0.40291,0.123972l-0.6741,-0.030993l-0.441652,0.170462l-0.207521,0.169166l-0.111022,0.268304l-0.471844,0.407081l-0.30212,0.05425l-0.336257,0.177047l-0.368836,-0.037578l-0.147217,0.023245l-0.224095,0.116103l-0.45334,0.055511l-0.222044,-0.10177l-0.203541,-0.018504l-0.222044,0.14803l-0.259052,0.037007l-0.00428,0.120044l0.124554,0.092749Z "/>
</svg>
