<svg xmlns="http://www.w3.org/2000/svg" viewBox="1811.004 785.431 73.725 23.726">
  <path d="M1818.787415,789.518724l-0.094623,0.002957l-0.092935,-0.024405l0.001269,-0.028821l0.059139,-0.011828l0.091666,0.002957l0.047311,0.026613l-0.011828,0.032527Z M1817.856816,790.369343l0.114336,-0.007885l0.023656,-0.047311l-0.047311,-0.070967h-0.126164l-0.019713,0.055197l0.055197,0.070967Z M1815.857909,790.487622l0.019713,0.106451l0.055197,0.01577l0.055197,-0.059139l-0.031541,-0.16559l-0.043369,-0.031541l-0.110393,0.031541l-0.01577,0.051254l0.070967,0.051254Z M1873.049957,798.388278l0.055511,-0.018504v-0.064763l-0.049343,-0.052427l-0.086351,-0.009252l-0.052427,0.055511l0.021588,0.061679l0.111022,0.027756Z M1884.707559,796.954492l0.020569,-0.047453l-0.085986,-0.030507l-0.07511,0.032831l-0.005132,0.058654l0.065864,0.035314l0.079794,-0.048839Z M1880.908049,797.780978l0.087893,0.041633l0.078641,-0.004626l0.004626,-0.041633l-0.074015,-0.055511l-0.083267,0.004626l-0.013878,0.055511Z M1823.004707,791.2652l-0.100488,-0.010465l-0.113891,0.020082l0.020093,0.034035l0.067795,0.011532l0.136669,-0.024098l-0.010179,-0.031086Z M1874.141796,798.390623l-0.021588,0.033923l0.064763,0.024672l0.107938,-0.018504l0.012336,-0.024672l-0.058595,-0.021588l-0.104854,0.006168Z M1847.354833,789.710996l0.01732,0.062708l0.030906,-0.002318l0.009478,-0.070565l-0.020717,-0.046451l-0.027869,0.001783l-0.009119,0.054844Z M1820.155227,789.379748l0.048185,0.002892l-0.005231,-0.027947l-0.074066,-0.032079l-0.009665,0.022908l0.040777,0.034226Z M1882.105699,797.18339l0.04915,-0.007373l0.02949,-0.044235l-0.027033,-0.044235l-0.036863,0.007373l-0.02949,0.066353l0.014745,0.022118Z M1844.640426,789.49561l0.045096,-0.012341l0.008046,-0.027989l-0.040044,-0.025881l-0.050555,0.021914l-0.001129,0.03508l0.038586,0.009217Z M1820.570643,787.412393l0.006409,-0.026829l-0.047792,0.004181l-0.023788,0.028349l0.027589,0.015098l0.037582,-0.0208Z M1873.820164,798.468701l0.034405,-0.012288l-0.017203,-0.024575h-0.051608l-0.012288,0.027033l0.046693,0.00983Z M1820.549054,787.20107h0.024672l0.020373,-0.020782l0.004298,-0.034729l-0.024017,0.000221l-0.019719,0.022184l-0.005607,0.033106Z M1820.414262,789.404395l-0.011368,-0.012007l-0.05054,-0.00528l-0.011763,0.016546l0.012597,0.009988l0.041275,0.001907l0.019799,-0.011155Z M1844.642473,788.99822l0.007395,-0.014789l-0.012324,-0.049298l-0.019572,-0.005394l-0.005077,0.015254l0.012324,0.039438l0.017254,0.014789Z M1820.570029,787.961107l0.00329,-0.042153l-0.021379,-0.005107l-0.013308,0.02733l0.01123,0.028672l0.020168,-0.008742Z M1881.41897,798.056985v0.024575l0.024575,0.014745l0.022118,-0.014745l-0.012288,-0.024575h-0.034405Z M1820.567936,788.227148l-0.012946,-0.032253l-0.021941,0.001317l-0.010224,0.031442l0.0217,0.013011l0.023411,-0.013516Z M1820.747584,787.371006l0.009653,-0.01659l-0.011343,-0.016793l-0.022253,0.010715l0.003787,0.024774l0.020156,-0.002106Z M1820.680407,787.105287l-0.012387,0.014661l0.008254,0.018508l0.023775,-0.006688l0.000573,-0.025055l-0.020215,-0.001426Z M1820.755273,788.535427l0.006626,-0.018014l-0.014087,-0.014569l-0.020054,0.014416l0.008031,0.02374l0.019484,-0.005574Z M1821.082136,790.343693l0.017792,0.012433l0.019621,-0.021371l-0.014217,-0.016943l-0.022959,0.003224l-0.000238,0.022656Z M1820.775946,790.263598l0.025144,-0.008266l0.004977,-0.017008l-0.019562,-0.015666l-0.018826,0.015797l0.008266,0.025144Z M1819.993274,786.841267l0.024575,0.00983l0.014745,-0.00983l-0.004915,-0.024575h-0.024575l-0.00983,0.024575Z M1820.147302,786.88279l0.024575,0.00983l0.014745,-0.00983l-0.004915,-0.024575h-0.024575l-0.00983,0.024575Z M1820.431706,787.481875l-0.009252,0.021588l0.018504,0.01542l0.027756,-0.018504l-0.006168,-0.021588l-0.030839,0.003084Z M1879.13945,797.228735l-0.014729,-0.115693l-0.019727,-0.005508l-0.007522,0.020666l0.01366,0.100259l0.018517,0.013426l0.009801,-0.01315Z M1820.996121,789.802647l0.044606,-0.045617l-0.018672,-0.017596l-0.065077,0.034735l-0.022094,0.035458l0.013187,0.017926l0.048051,-0.024904Z M1881.419741,797.974073l0.030812,-0.050597l-0.016077,-0.017121l-0.05374,0.032687l-0.011581,0.040316l0.015289,0.023972l0.035298,-0.029257Z M1882.31873,797.166335l0.117217,0.033531l0.027589,-0.018216l-0.016341,-0.03675l-0.081656,-0.030072l-0.052907,0.02067l0.006098,0.030836Z M1881.55974,797.089312l0.033308,0.013266l0.033273,-0.051706l0.001054,-0.092797l-0.030118,-0.005487l-0.03686,0.037327l-0.000658,0.099398Z M1872.990296,797.278171l0.006861,0.036885l0.018709,0.006318l0.022385,-0.037684l-0.008705,-0.032932l-0.021341,0.004485l-0.01791,0.022928Z M1821.769468,791.306543l0.038372,-0.000124l0.007854,-0.020422l-0.01728,-0.023563l-0.03456,-0.003142l-0.009807,0.022579l0.01542,0.024672Z M1874.307882,797.991186l-0.000124,-0.038372l-0.020422,-0.007854l-0.023563,0.01728l-0.003142,0.03456l0.022579,0.009807l0.024672,-0.01542Z M1874.916114,798.183967l0.027453,-0.066054l-0.011288,-0.042128l-0.041412,0.022384l-0.037118,0.088962l0.010572,0.031031l0.051793,-0.034196Z M1872.655256,797.156539l0.008449,-0.049039l-0.020954,-0.017773l-0.033988,0.034293l0.003181,0.038726l0.026439,0.018102l0.016873,-0.024311Z M1846.062492,788.970451l0.018431,0.031924l0.032912,-0.001975l0.010794,-0.040284l-0.027932,-0.043465l-0.032583,0.007461l-0.001623,0.04634Z M1821.592671,790.595761l0.022184,-0.00986l0.007395,-0.022184l-0.014789,-0.017254l-0.027114,0.012324l-0.00493,0.019719l0.017254,0.017254Z M1821.510125,790.562093l-0.011181,-0.039084l-0.022337,-0.004181l-0.003851,0.027839l0.016924,0.024383l0.020444,-0.008957Z M1881.42808,798.178275v0.032479l0.032479,0.00464l0.013919,-0.032479l-0.018559,-0.018559l-0.027839,0.013919Z M1820.830729,787.973694l0.024746,-0.018559l-0.00928,-0.021652l-0.034025,0.00928l-0.006186,0.024746l0.024746,0.006186Z M1820.417786,787.792742l0.024746,-0.018559l-0.00928,-0.021652l-0.034025,0.00928l-0.006186,0.024746l0.024746,0.006186Z M1819.497366,787.276419l0.017254,0.002465l0.012324,-0.019719l-0.024649,-0.012324l-0.017254,0.00986l0.012324,0.019719Z M1820.517631,787.743677l-0.020775,0.003456l0.000088,0.019872l0.021435,0.007548l0.014612,-0.014129l-0.015361,-0.016747Z M1822.514251,790.452217l0.007395,-0.019719l-0.017254,-0.00986l-0.017254,0.014789l0.00493,0.019719l0.022184,-0.00493Z M1881.91492,798.276146h0.022184l0.012324,-0.024649l-0.014789,-0.014789l-0.024649,-0.00493l-0.007395,0.022184l0.012324,0.022184Z M1821.626159,788.692992l-0.022184,-0.002465l-0.00493,0.022184l0.014789,0.019719l0.017254,-0.014789l-0.00493,-0.024649Z M1820.396762,787.272069l0.002465,-0.022184l-0.022184,-0.00493l-0.019719,0.014789l0.014789,0.017254l0.024649,-0.00493Z M1820.498838,788.752165l0.002465,-0.022184l-0.022184,-0.00493l-0.019719,0.014789l0.014789,0.017254l0.024649,-0.00493Z M1820.981377,789.049112l0.002465,-0.022184l-0.022184,-0.00493l-0.019719,0.014789l0.014789,0.017254l0.024649,-0.00493Z M1820.44751,787.624549l-0.022184,0.007395v0.027114l0.022184,0.00493l0.007395,-0.019719l-0.007395,-0.019719Z M1880.364599,797.639526l0.024649,-0.019719l-0.002465,-0.027114l-0.032044,-0.00986l-0.022184,0.022184l0.002465,0.024649l0.029579,0.00986Z M1881.035243,797.353937v0.024649l0.022184,0.014789l0.029579,-0.014789l-0.007395,-0.032044l-0.034509,-0.00986l-0.00986,0.017254Z M1819.955076,785.467863l0.018882,0.015844l0.023701,-0.009072l-0.000542,-0.026197l-0.017298,-0.017732l-0.017363,0.001519l-0.00738,0.035638Z M1882.057466,798.344587l0.023162,0.00843l0.019169,-0.016631l-0.009469,-0.024431l-0.022319,-0.010747l-0.015796,0.007366l0.005254,0.036012Z M1820.388092,790.438973l-0.002431,-0.027781l-0.025524,-0.011764l-0.01426,0.016994l0.005903,0.027477l0.025827,0.015236l0.010483,-0.020163Z M1820.90888,789.005179l0.019719,-0.019719l-0.007395,-0.027114h-0.022184l-0.017254,0.022184l0.00493,0.029579l0.022184,-0.00493Z M1874.040146,797.82059l-0.018506,0.044828l0.01262,0.033687l0.028961,-0.003063l0.012988,-0.048471l-0.007102,-0.030043l-0.028961,0.003063Z M1870.89415,797.343823l0.060714,-0.021379l0.040955,-0.056973l-0.00299,-0.106529l-0.048371,-0.027927l-0.039084,0.025805l-0.06028,0.118371l0.049055,0.068631Z M1821.880018,791.339066l0.035365,-0.033327l0.016458,-0.065742l-0.033951,-0.024976l-0.048705,0.047124l-0.015834,0.055352l0.046667,0.021569Z M1880.543017,797.618712l-0.084095,0.034323l-0.01042,0.063231l0.062049,0.047999l0.044731,-0.019996l0.019658,-0.088883l-0.031923,-0.036675Z M1845.008227,789.101868l0.030932,-0.074237l-0.018559,-0.123728h-0.049491l-0.055678,0.037118l-0.012373,0.061864l0.049491,0.111355l0.055678,-0.012373Z M1860.412363,789.652458l0.210338,0.098982l0.593894,-0.037118l0.22271,-0.210338l0.012373,-0.457794l-0.272202,-0.197965h-0.235083l-0.272202,0.160846l-0.247456,0.371184l-0.012373,0.272202Z M1864.959367,807.07336l-0.024746,0.123728l0.111355,0.105169l0.167033,0.037118l0.55059,-0.055678l0.105169,-0.074237l0.006186,-0.136101l-0.061864,-0.061864l-0.197965,-0.043305h-0.303134l-0.105169,-0.030932l-0.092796,0.018559l-0.080423,0.080423l-0.074237,0.037118Z M1881.29765,798.338163v0.098982l0.228897,0.142287l0.334066,0.117542l0.303134,-0.024746l0.123728,-0.098982l0.037118,-0.296947l-0.037118,-0.167033l-0.049491,0.006186l-0.098982,0.160846l0.043305,0.080423l-0.024746,0.080423h-0.123728l-0.185592,-0.098982h-0.129914l-0.098982,-0.061864l-0.024746,-0.117542l-0.061864,-0.018559l-0.049491,0.123728l-0.129914,0.006186l-0.055678,0.06805Z M1880.790365,797.756642l0.012373,-0.049491l-0.06805,-0.074237l-0.061864,-0.006186l-0.024746,0.049491l0.055678,0.08661l0.08661,-0.006186Z M1879.911896,797.564863l0.08661,-0.037118l0.012373,-0.092796l-0.061864,-0.074237l0.012373,-0.098982l-0.043305,-0.018559l-0.167033,0.123728l-0.012373,0.080423l0.061864,0.074237l0.111355,0.043305Z M1879.293256,797.354526l0.129914,0.030932l0.049491,-0.024746l-0.018559,-0.142287l-0.049491,-0.024746l-0.167033,0.024746l-0.043305,0.037118l0.024746,0.061864l0.074237,0.037118Z M1880.146979,797.168934l0.117542,0.105169l0.173219,0.074237l0.148474,-0.024746l0.15466,0.055678l0.111355,0.024746l0.012373,-0.055678l-0.179406,-0.173219l-0.408302,-0.185592l-0.098982,0.006186l-0.043305,0.098982l0.012373,0.074237Z M1879.559271,796.896732l0.074237,0.092796l0.074237,0.024746l0.117542,-0.006186l0.123728,0.098982l0.074237,-0.006186l0.012373,-0.08661l0.080423,-0.049491l0.018559,-0.080423l-0.098982,-0.173219l-0.402116,-0.235083l-0.507285,-0.179406l-0.46398,-0.06805l-0.600081,-0.043305l-0.167033,0.049491l-0.006186,0.049491l0.111355,0.049491l0.018559,0.074237l-0.074237,0.117542l-0.173219,0.080423l-0.06805,0.148474l-0.006186,0.105169l0.06805,0.080423l0.210338,0.043305l0.148474,-0.030932l0.049491,0.018559l-0.074237,0.074237l-0.049491,0.142287l0.098982,0.123728l0.111355,0.055678l0.061864,-0.018559l0.055678,-0.117542l-0.030932,-0.148474l0.043305,-0.030932l0.06805,0.024746l0.030932,0.117542l0.111355,0.123728l0.284574,0.006186l0.105169,-0.037118v-0.06805l-0.037118,-0.123728l-0.098982,-0.08661l-0.148474,-0.030932l-0.098982,-0.098982l0.024746,-0.061864h0.111355l0.055678,-0.06805l0.08661,-0.030932l0.080423,0.018559l0.055678,0.055678l-0.012373,0.080423l0.049491,0.043305l0.098982,-0.012373l0.061864,-0.111355l0.111355,-0.012373l0.228897,0.117542Z M1873.261516,798.313418l0.204151,0.006186l0.092796,0.080423l0.15466,0.006186l0.105169,-0.061864v-0.055678l-0.278388,-0.074237l-0.278388,0.018559l-0.043305,0.037118l0.043305,0.043305Z M1872.413979,798.393841l-0.055678,-0.15466l-0.080423,-0.111355l-0.030932,-0.148474l-0.167033,-0.197965l-0.197965,-0.06805l-0.15466,0.030932l-0.142287,0.185592l0.018559,0.179406l0.191778,0.253642l0.266015,0.129914l0.24127,0.049491l0.117542,-0.043305l-0.006186,-0.105169Z M1869.376457,797.892743l0.228897,0.123728l0.371184,0.06805l0.22271,-0.030932l0.018559,-0.049491l-0.098982,-0.15466l-0.191778,-0.043305l-0.136101,0.024746l-0.136101,-0.018559l-0.136101,-0.055678l-0.092796,-0.006186l-0.061864,0.043305l0.012373,0.098982Z M1869.37027,798.789771l0.024746,0.061864l0.043305,0.012373l0.019912,-0.031609l-0.014789,-0.036973l-0.054228,-0.024649l-0.018946,0.018994Z M1869.349778,798.721479l0.032044,-0.019719l-0.027114,-0.081341l-0.088736,-0.096131l-0.083806,-0.002465l-0.172543,0.086271l-0.022184,0.061622l0.041903,0.064087l0.138034,0.002465l0.061622,-0.046833l0.071482,0.002465l0.049298,0.029579Z M1868.178953,798.755987l0.017254,0.034509l0.192262,0.101061l0.083806,-0.012324l0.064087,-0.069017l-0.017254,-0.041903l-0.192262,-0.056693l-0.108455,0.002465l-0.039438,0.041903Z M1864.532505,799.383665l0.037118,0.040212h0.040212l0.030932,-0.018559l-0.015466,-0.021652l-0.043305,-0.021652l-0.030932,0.003093l-0.018559,0.018559Z M1846.140338,789.602966l-0.018559,0.061864l0.080423,0.092796l0.012373,0.117542l0.055678,0.018559l0.098982,-0.08661l0.105169,-0.043305l0.030932,-0.055678l-0.006186,-0.074237l0.098982,-0.142287l-0.030932,-0.080423l-0.055678,-0.08661l0.055678,-0.129914l-0.043305,-0.018559l-0.105169,0.123728l-0.08661,0.129914l0.018559,0.043305l0.08661,-0.012373l0.012373,0.043305l-0.08661,0.055678l-0.074237,0.037118l-0.148474,0.006186Z M1811.397515,795.059371l0.006186,0.061864l0.055678,0.08661l0.055678,-0.006186l0.105169,-0.167033l0.092796,-0.074237l0.117542,0.012373l0.074237,-0.074237l0.092796,-0.179406l0.012373,-0.08661l-0.074237,-0.123728l0.012373,-0.160846l0.092796,-0.092796l-0.006186,-0.055678l-0.061864,-0.018559l-0.142287,0.043305h-0.080423l-0.061864,0.030932l-0.012373,0.055678l-0.061864,0.018559l-0.092796,-0.018559l-0.179406,0.074237l-0.080423,0.111355l-0.173219,0.105169l-0.08661,0.117542l0.012373,0.049491l0.074237,0.055678l0.043305,-0.024746l0.055678,-0.117542l0.191778,-0.142287l0.055678,0.006186l0.018559,0.06805l0.006186,0.08661l0.092796,0.123728l-0.006186,0.105169l-0.037118,0.06805l-0.111355,0.061864Z M1811.997595,795.671825l0.037118,-0.06805v-0.049491l-0.074237,-0.043305l-0.049491,0.018559l-0.012373,0.08661l0.037118,0.080423l0.061864,-0.024746Z M1813.859702,797.459695l0.148474,-0.012373l0.018559,-0.049491l-0.061864,-0.080423l-0.08661,-0.012373l-0.123728,0.037118l-0.024746,0.061864l0.129914,0.055678Z M1815.517657,797.150375l0.15466,-0.08661v-0.049491l-0.074237,-0.006186l-0.197965,0.080423l-0.049491,0.049491l0.024746,0.043305l0.142287,-0.030932Z M1861.242887,798.455705l0.064957,0.00928l0.245909,-0.00464l0.171673,-0.060317h0.185592l0.097436,0.023199l0.190232,0.027839l0.097436,-0.00928l0.092796,0.027839l0.102076,0.074237l0.153113,0.027839l0.269108,0.088156l0.361904,0.060317l0.371184,0.064957l0.115995,0.055678l0.097436,0.018559l0.22735,-0.027839l0.060317,-0.027839v-0.060317l0.041758,-0.018559l0.064957,0.00928l0.055678,0.097436l0.064957,0.013919l0.125275,-0.046398l0.176312,0.00464l0.102076,0.023199l0.143834,0.00464l0.097436,-0.051038l0.400569,-0.006186l0.423768,0.037118l0.491819,0.012373l0.157753,0.043305l0.030932,0.058771l-0.024746,0.071144l0.024746,0.021652l0.22271,-0.098982l0.111355,-0.117542l0.074237,-0.278388l0.123728,-0.235083l0.148474,-0.098982l0.22271,-0.018559l0.098982,-0.018559l0.111355,-0.080423l0.179406,-0.012373l0.482539,0.080423l0.296947,0.080423l0.185592,0.018559l0.259829,-0.030932l0.037118,-0.055678l-0.043305,-0.117542l-0.08661,-0.098982l0.018559,-0.06805l0.167033,-0.185592l0.074237,-0.037118l0.173219,0.037118l0.037118,-0.049491l-0.092796,-0.080423l-0.006186,-0.055678l0.061864,-0.006186l0.111355,0.111355l0.06805,-0.012373l0.111355,-0.142287l0.148474,-0.06805l0.22271,0.006186l0.15466,-0.018559l0.123728,-0.098982l0.129914,-0.061864h0.098982l0.043305,-0.037118l-0.012373,-0.092796l-0.160846,-0.216524l-0.37737,-0.15466l-0.173219,-0.111355l-0.439234,-0.148474l-0.383557,-0.012373l-0.334066,0.074237l-0.402116,0.049491l-0.488726,-0.018559l-0.24127,0.037118l-0.476353,0.012373l-0.204151,0.049491l-0.439234,0.006186l-0.364998,-0.049491l-0.736182,-0.012373l-0.24127,0.043305l-1.156857,0.012373l-0.364998,-0.06805l-0.451607,-0.006186l-0.389743,0.055678h-0.482539l-0.074237,0.030932v0.061864l-0.049491,0.043305l-0.111355,-0.018559l-0.037118,0.043305l0.018559,0.080423l-0.055678,0.160846l-0.142287,0.15466l-0.061864,0.111355l-0.371184,0.334066l-0.111355,-0.006186l-0.055678,-0.043305l-0.123728,-0.018559l-0.043305,0.037118l-0.018559,0.179406l0.080423,0.179406l0.105169,0.061864l0.018559,0.06805l-0.074237,0.216524v0.105169l0.075783,0.055678Z M1861.075854,798.604179l-0.00928,0.037118l0.027839,0.046398l0.041758,0.023199l0.023199,-0.032479l-0.046398,-0.069597l-0.037118,-0.00464Z M1861.092867,806.93726l0.037118,0.06805l0.083516,0.018559l0.064957,-0.037118l0.003093,-0.098982l-0.034025,-0.040212l-0.06805,0.003093l-0.061864,0.030932l-0.024746,0.055678Z M1827.456443,801.146934l0.086271,0.049298l0.064087,0.073947l0.23663,0.172543l0.138034,0.138034l0.061622,0.167613l0.073947,0.039438l0.215751,-0.000725l0.547496,0.148474l0.148474,0.083516l0.027839,0.176312l0.111355,0.064957l0.24127,0.00928l0.194872,-0.046398l0.825884,0.148474l0.380464,0.148474l0.566056,0.120635l1.076434,0.167033l0.538217,0.00928l0.139194,-0.037118l0.213431,-0.074237l0.139194,-0.139194l0.037118,-0.176312l-0.046398,-0.083516v-0.167033l0.074237,-0.120635l0.269108,-0.092796l0.417582,-0.018559l0.194872,0.083516l0.037118,0.139194l0.06805,0.061864l0.049491,-0.006186l0.021652,-0.074237l-0.055678,-0.102076l0.027839,-0.092796l0.139194,-0.055678l0.306227,0.027839l0.324786,0.120635l0.064957,0.111355l-0.037118,0.120635l0.083516,0.046398h0.399023l0.881562,0.23199l0.324786,0.027839l0.037118,-0.074237l-0.064957,-0.064957h-0.074237l-0.092796,-0.074237l0.018559,-0.157753l0.129914,-0.157753l0.259829,-0.092796l0.760927,0.018559l0.992917,0.111355l0.278388,0.083516l0.00928,0.074237l-0.055678,0.064957l0.027839,0.083516l0.204151,0.092796l0.120635,0.018559l0.269108,-0.074237l0.751648,0.120635l0.250549,0.027839l0.70525,0.176312l1.011476,0.250549l0.983638,0.361904l0.844444,0.361904l0.296947,0.194872l0.426862,0.148474l0.371184,0.092796l0.129914,0.064957l0.027839,0.129914l0.157753,0.120635l0.380464,0.157753l0.770207,0.287668l0.417582,0.083516l0.510378,0.23199l0.083516,0.083516l0.092796,0.027839l0.176312,-0.064957l0.296947,0.018559l0.501098,0.064957l0.315506,0.074237l0.426862,0.148474l0.153113,0.097436l0.264469,0.00928l0.23199,-0.037118l0.032479,-0.069597l-0.00928,-0.064957l0.037118,-0.041758l0.102076,0.018559l0.032479,0.060317l-0.00928,0.083516l0.041758,0.060317h0.083516l0.106715,0.069597l-0.00464,0.041758l0.023199,0.046398l0.162393,0.013919l0.199511,-0.027839l0.106715,-0.060317l0.078877,0.00928l0.051038,-0.013919l0.023199,-0.060317l0.120635,-0.027839l0.102076,-0.00928l0.078877,0.046398l0.018559,0.078877h0.064957l0.032479,-0.051038l0.069597,-0.041758l0.064957,0.023199v0.064957l0.064957,0.00928l0.088156,-0.060317l0.199511,-0.018559l0.051038,0.037118l0.00464,0.051038l0.153113,0.037118l0.106715,-0.027839l0.023199,-0.069597l0.055678,-0.018559l0.102076,0.037118l0.060317,0.078877l-0.060317,0.143834l0.060317,0.088156l0.088156,0.046398l0.060317,-0.046398l0.097436,0.00464l0.148474,0.115995l0.115995,0.00928l0.037118,-0.041758l-0.023199,-0.037118l0.027839,-0.069597l0.078877,-0.041758l0.088156,0.013919l0.064957,0.069597l-0.023199,0.046398l0.027839,0.051038l0.092796,-0.00928l0.111355,-0.046398h0.120635l0.046398,0.023199l0.00464,0.074237l-0.032479,0.064957l0.023199,0.027839l0.064957,-0.018559l0.060317,0.023199l0.013919,0.051038l0.041758,0.018559l0.055678,-0.037118l0.046398,0.00464l0.023199,0.069597l0.069597,0.037118l0.111355,0.00928l0.041758,-0.041758l0.074237,0.00928l0.032479,-0.037118l-0.046398,-0.083516l-0.125275,-0.064957l-0.046398,-0.083516l0.027839,-0.051038l0.120635,-0.027839l0.013919,-0.051038l-0.046398,-0.051038v-0.055678l0.055678,-0.088156l0.046398,-0.00928l0.134554,0.129914l0.013919,0.060317l-0.037118,0.074237l0.018559,0.092796l0.055678,0.032479l0.097436,-0.051038l0.051038,-0.069597l-0.041758,-0.213431l0.023199,-0.153113l0.060317,-0.074237h0.088156l0.102076,0.097436l0.162393,0.074237l0.041758,-0.027839l-0.023199,-0.078877l0.032479,-0.027839l0.112902,0.037118l0.092796,0.15466l0.216524,0.074237l0.197965,0.018559l0.030932,-0.049491l-0.024746,-0.080423l0.043305,-0.043305l0.148474,0.006186l0.228897,0.136101l0.123728,0.018559l0.117542,0.105169l0.185592,0.012373l0.092796,-0.024746l0.30932,0.012373l0.136101,0.049491h0.092796l0.049491,-0.030932l0.303134,0.055678l0.037118,0.061864l0.061864,0.037118l0.266015,-0.006186l0.06805,-0.074237h0.061864l0.074237,0.030932h0.098982l0.049491,-0.037118l0.061864,0.006186l0.037118,0.061864l0.173219,0.103622l0.00464,0.078877l0.046398,0.037118l0.111355,0.00464l0.204151,0.051038l0.097436,0.078877l0.074237,0.00464l0.069597,-0.00928l0.171673,0.00464l0.064957,0.037118h0.069597l0.074237,-0.023199l0.264469,0.041758l0.102076,0.023199l0.041758,0.037118l0.069597,0.027839h0.074237l0.088156,0.041758l0.00464,0.041758l0.046398,0.00928l0.051038,-0.00928l0.064957,0.013919l0.091249,0.091249l0.105169,0.006186l0.102076,-0.08661l0.136101,-0.052584l0.129914,-0.046398l0.194872,-0.024746l0.089703,-0.054131l0.018559,-0.102076l0.041758,-0.032479l0.055678,0.018559l0.032479,0.069597l0.074237,0.013919l0.088156,-0.041758l0.032479,-0.115995l0.060317,-0.041758l0.074237,0.00464l0.064957,0.102076l-0.023199,0.074237l0.032479,0.023199l0.074237,-0.027839l0.041758,0.00464l0.037118,0.055678l0.097436,-0.013919l0.051038,-0.037118l-0.018559,-0.074237l0.037118,-0.041758h0.041758l0.046398,0.078877l0.046398,0.00928l0.092796,-0.069597l0.148474,-0.213431l0.148474,-0.162393l0.153113,-0.092796l0.347985,-0.111355l0.22271,-0.060317l0.218071,0.023199l0.134554,-0.023199l0.111355,-0.032479l0.482539,-0.00464l0.315506,0.078877l0.310867,0.167033l0.22271,0.213431l0.125275,0.245909l0.060317,0.037118h0.064957l0.055678,-0.055678l0.120635,-0.055678l0.185592,-0.00464l0.097436,0.027839l0.060317,0.046398l-0.00464,0.102076l0.046398,0.051038l0.088156,0.00928l0.139194,0.102076l0.134554,0.018559l0.115995,-0.041758h0.088156l0.064957,0.037118l0.00928,0.060317l0.041758,0.013919l0.088156,-0.032479l0.120635,0.041758l0.125275,0.083516l0.027839,0.069597l-0.018559,0.060317l0.051038,0.111355l0.125275,0.027839l0.074237,-0.037118l0.064957,0.018559l0.00928,0.041758l0.041758,0.00464l0.051038,-0.069597l0.046398,-0.041758l0.060317,0.018559l0.013919,0.074237l-0.046398,0.083516l-0.023199,0.074237l0.032479,0.013919l0.055678,-0.037118l0.115995,0.013919l0.097436,-0.023199l0.190232,-0.167033h0.078877l0.069597,0.064957l-0.00928,0.069597l0.046398,0.162393l-0.023199,0.060317v0.064957l0.037118,0.00464l0.055678,-0.134554l0.055678,-0.041758l0.046398,0.018559l0.00464,0.115995l0.134554,0.055678l0.106715,-0.00464l0.083516,0.037118l0.120635,0.097436l0.078877,0.00464l0.111355,-0.102076l0.078877,-0.00928l0.088156,0.041758l0.037118,0.088156l-0.037118,0.078877l-0.064957,0.018559l-0.018559,0.055678l0.055678,0.051038l0.078877,0.013919l0.143834,-0.046398l0.041758,-0.083516l0.046398,-0.018559l0.115995,0.00928l0.041758,0.055678l0.018559,0.157753l0.060317,0.060317h0.069597l0.051038,-0.046398l0.083516,-0.00928l0.060317,0.00928l0.041758,-0.00928l0.013919,-0.046398l0.055678,-0.013919l0.334066,0.060317l0.259829,0.115995l0.153113,0.013919l0.083516,-0.032479l0.027839,-0.097436l0.013919,-0.125275l0.041758,-0.037118h0.111355l0.083516,0.041758l0.329426,0.088156l0.24127,0.180952l0.111355,0.143834l0.041758,0.250549l-0.078877,0.106715l-0.125275,0.069597l0.00464,0.060317l0.153113,0.051038l0.417582,0.00464l0.273748,0.069597l0.278388,0.111355l0.204151,0.00928l0.180952,-0.051038l0.111355,-0.088156l0.092796,-0.23663v-0.083516l-0.051038,-0.115995l-0.194872,-0.24127l-0.064957,-0.013919l-0.032479,0.023199h-0.083516l-0.139194,-0.060317l-0.111355,-0.106715l-0.088156,-0.037118l-0.055678,-0.051038h-0.069597l-0.055678,0.111355l-0.055678,0.013919l-0.051038,-0.027839l-0.051038,-0.106715l-0.102076,-0.111355l-0.018559,-0.102076l-0.055678,-0.102076l-0.00928,-0.139194l-0.037118,-0.083516v-0.041758l0.027839,-0.037118l-0.00464,-0.102076l-0.051038,-0.074237l-0.00928,-0.069597l0.023199,-0.055678l-0.013919,-0.115995l-0.037118,-0.088156l-0.060317,-0.018559l-0.023199,0.032479l0.027839,0.088156l0.00464,0.255189l-0.023199,0.111355l-0.069597,0.102076h-0.060317l-0.046398,-0.055678l-0.00464,-0.060317l0.083516,-0.185592l0.00464,-0.064957l-0.055678,-0.064957l-0.069597,-0.143834l-0.037118,-0.115995v-0.148474l0.083516,-0.445421l0.055678,-0.171673l0.00928,-0.167033l0.060317,-0.213431l0.088156,-0.143834l0.00464,-0.125275l-0.023199,-0.097436l-0.00464,-0.064957l0.083516,-0.194872l0.032479,-0.115995v-0.143834l0.018559,-0.074237l0.106715,-0.204151l0.088156,-0.273748l-0.00464,-0.083516l-0.037118,-0.064957l0.00464,-0.074237l0.013919,-0.051038l-0.00464,-0.106715l-0.041758,-0.102076l-0.00928,-0.24127l0.037118,-0.106715l0.102076,-0.115995l0.097436,-0.037118l0.041758,-0.055678l-0.023199,-0.097436l-0.00928,-0.153113l0.032479,-0.064957l-0.00928,-0.111355l-0.153113,-0.204151l-0.190232,-0.115995l-0.139194,-0.041758l-0.102076,-0.078877l-0.106715,-0.018559l-0.218071,0.027839l-0.204876,-0.069887l-0.128174,-0.12078l-0.108455,-0.049298l-0.123245,-0.123245l-0.054228,-0.00493l-0.096131,0.083806l-0.059157,0.00493l-0.051763,-0.024649l-0.076412,-0.002465l-0.071482,0.027114l-0.271138,-0.002465l-0.211981,-0.096131l-0.091201,-0.103526l-0.167613,-0.379594l-0.149344,-0.136439h-0.083516l-0.264469,0.23663l-0.115995,0.060317l-0.134554,0.153113l-0.083516,0.00928l-0.037118,0.032479v0.055678l-0.055678,0.055678l-0.125275,-0.00928l-0.120635,-0.078877l-0.120635,-0.027839l-0.250549,0.00928l-0.125275,0.097436l-0.134554,0.157753l-0.115995,0.069597l-0.190232,-0.00464l-0.204151,-0.102076l-0.069597,-0.00464l-0.180952,0.102076l-0.106715,-0.00464l-0.106715,-0.060317l-0.23199,0.00464l-0.157753,-0.078877l-0.111355,-0.00464l-0.092796,0.032479h-0.115995l-0.180952,-0.069597l-0.148474,-0.018559l-0.069597,0.027839l-0.046398,0.069597l-0.180952,0.120635l-0.190232,0.023199l-0.097436,0.046398h-0.060317l-0.032479,-0.018559h-0.046398l-0.199511,0.213431l-0.167033,0.023199l-0.074237,-0.037118l-0.102076,-0.00464l-0.115995,0.051038l-0.088156,-0.055678l-0.032479,-0.139194l-0.055678,-0.037118l-0.064957,0.00928l-0.092796,-0.041758l-0.018559,-0.046398l-0.032479,-0.013919l-0.074237,0.083516l-0.102076,0.037118l-0.074237,-0.013919l-0.027839,-0.088156h-0.037118l-0.018559,0.055678l-0.060317,0.023199l-0.069597,-0.013919l-0.018559,-0.055678l-0.060317,-0.032479l-0.111355,-0.00464l-0.060317,-0.027839l-0.037118,-0.092796l-0.051038,-0.037118l-0.074237,-0.018559l-0.120635,-0.176312l-0.204151,-0.162393l-0.115995,-0.00928l-0.106715,0.051038h-0.102076l-0.120635,-0.064957l-0.134554,-0.171673h-0.037118l-0.023199,0.055678l-0.064957,0.023199l-0.139194,-0.023199l-0.125275,-0.097436l-0.129914,-0.190232l-0.037118,-0.125275l0.037118,-0.125275l-0.00928,-0.120635l-0.060317,-0.055678l-0.167033,-0.064957l-0.120635,-0.180952l0.00464,-0.046398h0.088156l0.051038,0.032479l0.032479,-0.018559l-0.037118,-0.23199l-0.013919,-0.292307l0.037118,-0.357265l-0.013919,-0.143834l0.027839,-0.115995l0.00928,-0.190232l-0.083516,-0.106715l-0.106715,-0.027839l-0.083516,-0.074237l-0.125275,-0.22271l-0.134554,-0.088156l-0.199511,-0.00464l-0.102076,0.041758l-0.041758,0.083516l-0.046398,0.046398l-0.102076,0.018559l-0.102076,-0.018559l-0.060317,-0.088156l-0.00464,-0.078877l0.060317,-0.125275v-0.088156l-0.125275,-0.148474l-0.120635,-0.027839l-0.074237,-0.083516l-0.00464,-0.088156l0.023199,-0.060317l0.055678,-0.055678l0.00928,-0.078877l-0.018559,-0.078877l0.027839,-0.074237l0.083516,-0.037118l0.00928,-0.083516l-0.041758,-0.055678l-0.00464,-0.037118l0.032479,-0.032479v-0.046398l-0.204151,-0.157753l-0.139194,-0.24127l-0.018559,-0.23199l0.032479,-0.027839l0.041758,0.037118h0.051038l0.032479,-0.069597l-0.046398,-0.088156l-0.027839,-0.139194h-0.037118l-0.037118,0.060317l-0.060317,0.00464l-0.046398,-0.055678l-0.032479,-0.143834l-0.046398,-0.046398l-0.148474,-0.013919l-0.139194,0.115995l-0.00464,0.046398l0.097436,0.023199l0.00928,0.041758l-0.074237,0.106715l-0.106715,0.046398l-0.194872,-0.027839l-0.157753,-0.092796l-0.069597,-0.102076l-0.22735,-0.041758l-0.083516,0.041758l-0.167033,-0.00464l-0.088156,-0.049491h-0.513471l-0.136101,0.061864h-0.129914l-0.080423,-0.030932l-0.092796,0.006186l-0.06805,0.080423l-0.259829,0.074237l-0.284574,0.012373l-0.117542,-0.030932h-0.142287l-0.24127,-0.08661l-0.24127,-0.303134l-0.024746,-0.092796l-0.136101,-0.160846l-0.037118,-0.148474l-0.111355,-0.080423l-0.105169,0.006186l-0.142287,0.092796l-0.476353,0.148474l-0.216524,-0.006186l-0.296947,-0.148474l-0.105169,-0.030932l-0.284574,-0.037118l-0.111355,-0.055678l-0.680504,-0.55059l-0.197965,-0.216524l-0.296947,-0.098982l-0.272202,0.006186l-0.142287,0.105169l-0.037118,0.136101l-0.06805,0.061864l-0.457794,0.179406l-0.247456,0.006186l-0.346438,-0.06805l-0.482539,-0.06805l-0.185592,-0.098982l-0.235083,-0.055678l-0.15466,-0.105169l-0.216524,-0.340252l-0.24127,-0.494912l-0.074237,-0.290761l-0.006186,-0.167033l0.024746,-0.08661l-0.024746,-0.043305l-0.445421,-0.098982l-0.278388,-0.024746l-0.105169,-0.037118l-0.111355,0.006186l-0.105169,0.037118l-0.216524,-0.006186l-0.142287,0.018559l-0.111355,0.092796l-0.080423,0.018559l-0.074237,-0.018559l-0.136101,0.030932l-0.136101,0.080423h-0.092796l-0.117542,0.055678l-0.061864,0.08661l-0.018559,0.092796l-0.136101,0.111355l-0.074237,0.006186l-0.037118,0.055678l0.012373,0.06805l0.055678,0.055678l-0.018559,0.061864l-0.098982,0.030932l-0.074237,0.08661l-0.006186,0.098982l0.049491,0.074237l0.006186,0.06805l-0.080423,0.197965l-0.049491,0.037118l-0.024746,0.08661l0.049491,0.049491l0.012373,0.105169l-0.136101,0.247456l-0.204151,0.204151l-0.136101,0.037118l-0.080423,-0.037118h-0.055678l-0.030932,0.049491l0.049491,0.055678l-0.018559,0.043305h-0.080423l-0.012373,0.049491l0.055678,0.105169l0.092796,0.012373l0.018559,0.049491l-0.074237,0.15466l-0.148474,0.160846l-0.092796,0.167033l-0.030932,0.173219l-0.129914,0.228897l-0.098982,0.129914l-0.061864,0.030932l-0.06091,-0.01233l-0.081377,0.01233l-0.043305,0.043305l-0.179406,0.024746l-0.210338,0.006186l-0.129914,0.037118l-0.098982,-0.006186l-0.160846,-0.049491l-0.272202,-0.179406l-0.136101,-0.030932l-0.092796,-0.06805l-0.055678,-0.117542l-0.15466,-0.167033l-0.191778,-0.080423l-0.098982,0.006186l-0.06805,0.08661l-0.216524,0.136101l-0.389743,0.129914l-0.142287,0.006186l-0.327879,0.123728h-0.167033l-0.24127,-0.061864h-0.098982l-0.148474,0.043305l-0.148474,-0.018559l-0.321693,-0.06805l-0.148474,-0.074237l-0.15466,-0.049491l-0.117542,-0.012373l-0.129914,-0.030932l-0.327879,-0.142287l-0.402116,-0.105169l-0.30932,-0.024746l-0.173219,-0.06805l-0.142287,-0.148474l-0.092796,-0.142287l-0.06805,-0.018559l-0.266015,0.22271l-0.346438,0.204151l-0.290761,0.098982l-0.266015,0.006186l-0.136101,0.037118l-0.352625,-0.006186l-0.507285,-0.055678l-0.136101,-0.074237l-0.074237,-0.018559l-0.191778,0.024746l-0.142287,-0.030932l-0.216524,-0.191778l-0.043305,-0.15466l0.006186,-0.129914l-0.024746,-0.105169l-0.043305,0.006186l-0.024746,0.111355l-0.06805,0.061864l-0.197965,0.037118l-0.259829,0.098982l-0.117542,0.105169l-0.185592,0.037118l-0.364998,-0.105169l-0.06805,-0.030932l-0.018559,-0.06805l-0.049491,-0.080423l-0.142287,-0.129914l0.012373,-0.06805l0.055678,-0.049491v-0.06805l-0.043305,-0.030932l-0.055678,0.018559l-0.043305,0.080423l-0.08661,0.030932l-0.037118,0.055678l0.012373,0.129914l-0.024746,0.06805l-0.266015,0.160846l-0.105169,0.012373l-0.06805,-0.049491l-0.074237,-0.006186l-0.06805,0.018559l-0.123728,-0.024746l-0.111355,-0.105169l-0.030932,-0.129914l-0.06805,-0.061864l-0.092796,-0.012373l-0.148474,0.06805l-0.142287,-0.024746l-0.06805,-0.043305l-0.012373,-0.08661l-0.22271,-0.371184l-0.024746,-0.259829l-0.092796,-0.352625l0.006186,-0.470166l-0.055678,-0.129914v-0.117542l-0.030932,-0.061864l-0.247456,-0.105169l-0.439234,-0.371184l-0.296947,-0.37737l-0.08661,-0.173219l0.018559,-0.197965l-0.035572,-0.191778l-0.115995,-0.078877h-0.046398l-0.037118,0.078877l-0.041758,0.00928l-0.083516,-0.083516l-0.204151,-0.046398h-0.366544l-0.060317,-0.023199l-0.060317,-0.078877l-0.102076,-0.041758l-0.064957,0.018559l-0.00464,0.055678l0.097436,0.078877l0.051038,0.102076l-0.018559,0.083516l-0.088156,0.041758l-0.115995,0.088156l-0.046398,0.074237l-0.194872,0.092796l-0.041758,0.051038l-0.060317,0.013919l-0.273748,-0.069597l-0.426862,-0.143834l-0.366544,-0.245909l-0.143834,-0.060317l-0.23199,-0.051038l-0.106715,-0.120635l0.00928,-0.125275l0.037118,-0.027839l0.023199,-0.046398l-0.018559,-0.083516l-0.046398,-0.023199l-0.074237,0.046398l-0.055678,0.111355l-0.078877,0.027839l-0.046398,-0.018559l-0.032479,-0.102076l-0.055678,-0.032479l-0.139194,-0.00464l-0.088156,0.064957l-0.245909,0.097436l-0.097436,0.078877l-0.185592,0.064957l-0.097436,0.00464l-0.078877,-0.055678l-0.032479,0.00928v0.055678l-0.078877,0.060317l-0.129914,-0.023199l-0.23663,-0.310867l-0.097436,-0.051038l-0.157753,0.00928l-0.301587,-0.055678l-0.343345,-0.134554l-0.296947,-0.347985l-0.148474,-0.259829l-0.278388,-0.4547l-0.296947,-0.204151l-0.24127,-0.055678l-0.22271,0.018559l-0.343345,0.148474l-0.23199,0.037118l-0.213431,-0.055678l-0.238176,-0.210338l-0.129914,-0.092796l-0.408302,-0.117542l-0.117542,0.030932l-0.098982,0.098982l0.006186,0.043305l0.08661,0.024746l0.061864,0.111355v0.136101l-0.049491,0.105169l-0.074237,0.074237l-0.006186,0.080423l0.092796,0.055678v0.06805l-0.061864,0.049491l-0.098982,-0.006186l-0.006186,0.043305l0.098982,0.061864v0.098982l-0.123728,0.06805l-0.204151,0.049491l-0.247456,0.024746h-0.191778l-0.123728,0.043305l-0.092796,0.074237l-0.148474,0.012373l-0.123728,-0.030932l-0.018559,-0.08661l-0.061864,-0.030932l-0.098982,0.06805l-0.136101,-0.018559l-0.173219,-0.024746l-0.08661,-0.06805l-0.06805,-0.160846l-0.012373,-0.204151l-0.129914,-0.117542l-0.098982,-0.012373l-0.055678,0.030932l-0.049491,-0.006186l-0.043305,-0.061864l-0.080423,-0.006186l-0.179406,0.08661l-0.173219,0.049491h-0.117542l-0.216524,-0.08661l-0.055678,0.012373l-0.074237,0.08661l-0.15466,0.080423h-0.142287l-0.303134,-0.080423l-0.173219,-0.136101l-0.06805,-0.191778l-0.167033,-0.111355l-0.080423,0.006186l-0.08661,0.074237l-0.092796,0.012373l-0.117542,-0.055678l-0.216524,-0.055678h-0.129914l-0.06805,0.049491l-0.024746,0.15466l-0.160846,0.117542l-0.197965,0.074237l-0.216524,0.006186l-0.247456,-0.105169l-0.080423,-0.117542v-0.173219l0.030932,-0.191778l-0.037118,-0.123728l-0.167033,-0.191778l-0.210338,-0.049491l-0.148474,0.043305l-0.117542,0.08661l-0.037118,0.098982l-0.055678,0.024746l-0.018559,0.06805l0.024746,0.06805l0.006186,0.167033l-0.043305,0.136101l-0.216524,0.191778l-0.22271,0.129914l-0.043305,0.055678v0.061864l-0.037118,0.049491l-0.123728,0.049491l-0.08661,0.098982l-0.030932,0.173219l-0.111355,0.191778l-0.185592,0.457794l-0.061864,0.290761v0.272202l0.030932,0.061864l0.061864,0.018559v0.061864l-0.080423,0.197965l-0.012373,0.235083l0.024746,0.142287l-0.018559,0.24127l-0.08661,0.247456l-0.247456,0.266015l-0.296947,0.08661l-0.15466,0.012373l-0.160846,-0.105169l-0.024746,-0.08661l0.043305,-0.117542l-0.06805,-0.043305l-0.111355,0.024746l-0.111355,0.142287l-0.117542,0.22271l-0.049491,0.185592l0.006186,0.117542l0.049491,0.055678v0.092796l-0.043305,0.136101l-0.098982,0.167033l-0.160846,0.080423l-0.037118,0.043305l-0.018559,0.092796l-0.080423,0.129914l-0.210338,0.179406l-0.098982,0.024746l-0.018559,0.043305l0.030932,0.111355l-0.055678,0.210338l-0.111355,0.129914l-0.049491,0.080423l-0.012373,0.061864l-0.092796,0.024746l-0.123728,-0.037118l-0.06805,-0.142287l0.049491,-0.142287l-0.037118,-0.061864l-0.105169,-0.037118l-0.080423,-0.098982l-0.074237,-0.030932l-0.018559,-0.08661l0.018559,-0.092796l-0.024746,-0.204151l-0.080423,-0.074237l-0.030932,-0.167033l-0.049491,-0.006186l-0.061864,0.043305l-0.210338,0.06805l-0.012373,0.049491l0.030932,0.049491l-0.012373,0.129914l-0.074237,0.080423l-0.123728,0.049491l-0.142287,0.142287l-0.06805,0.105169l-0.080423,0.024746l-0.129914,-0.030932l-0.123728,-0.080423l-0.043305,0.018559l0.037118,0.129914l0.117542,0.08661l0.049491,0.098982l0.030932,0.24127l0.055678,0.074237l0.105169,0.006186l0.123728,-0.102076l0.058771,-0.108262l0.071144,-0.030932l0.346438,0.018559l0.262922,0.095889l0.089703,0.098982l0.015466,0.089703l0.027839,0.00928l0.027839,-0.043305l0.003093,-0.034025l0.052584,-0.024746l0.098982,0.003093l0.098982,0.058771l0.092796,0.095889l0.095889,0.024746l0.105169,-0.018559l0.148474,0.027839l0.058771,0.034025l0.071144,-0.00928l0.07733,-0.061864l0.111355,-0.034025l0.250549,-0.064957l0.296947,-0.015466l0.095889,-0.034025h0.324786l0.275295,0.061864l0.160846,-0.006186l0.14538,-0.043305l0.467073,0.006186l0.06805,0.027839l0.037118,-0.00928l0.040212,-0.08661l0.064957,-0.06805l0.204151,-0.046398l0.290761,0.006186l0.284574,0.040212l0.176312,0.083516l0.275295,0.303134l0.361904,0.182499l0.142287,0.040212l0.148474,0.00928l0.296947,0.139194l0.006186,0.034025l-0.030932,0.055678v0.049491l0.043305,0.046398l0.083516,-0.003093l0.041758,0.027839l0.00928,0.041758l0.041758,0.018559l0.088156,-0.00928l0.097436,0.037118l0.046398,0.078877l0.055678,0.013919l0.083516,-0.032479l0.074237,-0.00464l0.162393,0.037118l0.129914,-0.00928l0.129914,-0.078877l0.064957,-0.013919l0.037118,-0.032479l0.032479,-0.064957l0.134554,-0.041758h0.111355l0.273748,0.051038l0.143834,0.060317l0.111355,0.069597l0.032479,0.046398l-0.023199,0.139194l0.00464,0.092796l0.027839,0.074237l-0.00928,0.088156l-0.111355,0.167033l-0.102076,0.097436l-0.180952,0.060317l-0.069597,0.060317l-0.074237,0.129914l-0.055678,0.055678l-0.027839,0.083516l0.023199,0.064957l0.055678,0.069597l0.00464,0.051038l-0.069597,0.051038l-0.057224,0.010826l-0.049491,-0.024746l-0.040212,0.00928l-0.058771,0.037118l-0.148474,-0.024746l-0.034025,0.040212l0.018559,0.074237l-0.015466,0.037118l-0.064957,0.017013l-0.013919,0.037118l0.035572,0.057224l-0.018559,0.064957l-0.06805,0.015466l-0.006186,0.058771l0.061864,0.089703v0.06805l-0.061864,0.040212l-0.015466,0.06805l0.007733,0.15466l0.023199,0.051038l0.148474,0.111355l0.051038,0.092796l-0.037118,0.120635l0.00928,0.037118l0.055678,-0.00928l0.078877,-0.055678l0.134554,-0.00928l0.24127,0.083516h0.046398l0.064957,0.037118l0.020106,0.060317l0.142287,0.126821l0.201058,0.071144l0.151567,0.015466l0.111355,-0.030932l0.321693,0.024746l0.99601,0.111355l0.126821,0.006186l0.129914,-0.018559l0.482539,0.015466l0.748554,0.080423l0.423768,0.015466l0.556776,0.114448l0.798046,0.176312l0.272202,0.027839l0.38665,-0.021652l0.3186,0.055678l0.247456,0.074237l0.046398,0.089703l0.058771,0.030932l0.098982,0.006186l0.184577,0.089219l0.064087,0.017254l0.091201,0.022184l0.305647,0.11585Z "/>
</svg>
