<svg xmlns="http://www.w3.org/2000/svg" viewBox="1834.035 722.030 68.701 56.617">
  <path d="M1837.309916,737.431209l0.076717,0.048872l0.003487,0.048872l-0.066256,0.04189l-0.055794,-0.031418l-0.003487,-0.090762l0.045333,-0.017454Z M1835.194542,746.24516l0.008817,-0.05356l-0.028542,-0.087149l-0.031308,-0.051527l-0.027487,0.008665l0.008843,0.095677l0.035104,0.087905l0.034573,-0.00001Z M1835.334155,746.160992l0.012994,-0.0361l-0.016486,-0.014365l-0.028022,0.008179l-0.014757,0.031401l0.017844,0.016938l0.028427,-0.006052Z M1835.250183,745.613782l0.041846,-0.030254l0.016273,-0.065163l-0.018598,-0.0256l-0.055794,0.009309l-0.030222,0.046545l0.016273,0.051199l0.030222,0.013963Z M1834.910769,746.221191l0.018598,-0.04189l-0.011624,-0.058181l-0.074392,-0.048872l-0.04882,-0.132653l0.00465,-0.100071l-0.011624,-0.065163l-0.04417,-0.006982l-0.046495,0.048872l0.013949,0.158252l0.062768,0.048872l0.018598,0.058181l-0.016273,0.053526l0.053469,0.09309l0.081366,-0.006982Z M1835.768604,747.85724l0.013949,-0.051199l-0.041846,-0.107053l-0.055794,-0.018618l-0.060444,0.04189l-0.00465,0.065163l0.102289,0.074472l0.046495,-0.004654Z M1834.127762,750.240561l-0.024653,-0.061067l-0.045656,-0.022238l-0.022214,0.045705l0.017785,0.059855l0.038788,0.021025l0.035951,-0.04328Z M1837.744646,752.255722l0.00465,-0.030254l-0.120887,-0.137307l-0.125537,-0.111707l-0.013949,-0.083781l-0.069743,-0.013963l-0.079042,0.125671l0.037196,0.102399l0.302218,0.148943h0.065093Z M1837.89808,752.31623l0.018598,-0.465448l-0.037196,-0.046545l-0.070905,-0.290905l-0.040683,-0.030254l-0.153434,0.148943l-0.051145,0.153598l0.055794,0.21876l0.172032,0.210615l0.060444,0.105889l0.046495,-0.004654Z M1837.822525,752.344157l-0.045333,-0.051199l-0.088341,-0.004654l-0.241775,-0.097744l-0.111588,0.004654l-0.037196,0.065163l0.055794,0.060508l0.204578,0.004654l0.1174,0.043054l0.125537,0.013963l0.020923,-0.038399Z M1839.31618,759.353801l0.009299,-0.046545l0.111588,-0.032581l0.111588,-0.125671l0.088341,-0.279269l0.018598,-0.255996l0.060444,-0.214106l0.046495,-0.40494l-0.032547,-0.088435l0.009299,-0.065163l0.051145,-0.060508l-0.013949,-0.069817l0.037196,-0.037236l0.074392,-0.013963l0.051145,-0.051199l0.032547,-0.097744l0.060444,-0.009309l0.265022,0.162907l0.218527,-0.009309l0.18598,-0.107053l0.130186,0.027927l0.074392,-0.009309l0.051145,0.027927l0.032547,0.116362l0.181331,0.074472l0.139485,-0.023272l0.102289,-0.139634l0.09299,-0.009309l0.125537,0.069817l0.074392,-0.004654l0.051145,0.060508l-0.00465,0.186179l0.111588,0.232724l-0.00465,0.079126l-0.037196,0.055854v0.125671l0.09299,0.130325l-0.009299,0.069817l-0.613735,0.325813l-0.018598,0.065163l0.032547,0.055854l-0.032547,0.027927l-0.176681,0.018618l-0.548642,0.232724l-0.260373,0.158252l-0.162733,0.167561l-0.134836,0.023272l-0.260373,-0.046545l-0.297569,-0.148943l-0.116238,-0.144289Z M1844.101806,768.447052l0.009242,0.032381l0.04621,0.009252l0.04621,-0.027756v-0.032381l-0.055452,-0.009252l-0.04621,0.027756Z M1839.258976,760.973775l0.033887,0.003084l0.021565,-0.040091l-0.009242,-0.040091l-0.027726,-0.012336l-0.021565,0.030839l0.003081,0.058595Z M1835.434775,761.376643l0.034369,-0.012288l-0.017184,-0.024575h-0.051553l-0.012274,0.027033l0.046643,0.00983Z M1838.067916,759.277971l0.032492,0.014785l0.029538,-0.02957l0.005908,-0.038441l-0.032492,-0.026613l-0.037183,0.020446l0.001737,0.059392Z M1843.749422,766.802526l0.063169,-0.038954l-0.016782,-0.046804l-0.064957,0.013586l-0.027832,0.051455l0.046402,0.020717Z M1834.971215,761.464201l0.04208,0.011642l0.012323,-0.01542l-0.013603,-0.029211l-0.036092,-0.007854l-0.012554,0.015709l0.007846,0.025134Z M1835.254531,761.367884l0.02216,-0.00986l0.007387,-0.022184l-0.014774,-0.017254l-0.027085,0.012324l-0.004925,0.019719l0.017236,0.017254Z M1835.24806,761.546318l0.035467,-0.046516l-0.003566,-0.031018l-0.06167,-0.003895l-0.038744,0.045322l-0.005674,0.046226l0.038129,0.017608l0.036057,-0.027726Z M1837.054313,760.967099l0.076775,-0.048404l-0.000718,-0.06408l-0.069367,-0.036495l-0.040536,0.027459l-0.003921,0.090946l0.037766,0.030574Z M1838.246793,759.274675l0.158083,-0.079126l0.116238,-0.214106l-0.069743,-0.102399h-0.079042l-0.153434,0.111707l-0.051145,0.158252l0.013949,0.09309l0.065093,0.032581Z M1837.526119,759.740123l0.069743,-0.060508l0.037196,-0.107053l-0.027897,-0.009309l-0.079042,0.060508l-0.046495,0.102399l0.046495,0.013963Z M1837.670254,759.828558l0.051145,-0.037236l0.083691,-0.148943l-0.023248,-0.069817l-0.060444,-0.023272l-0.041846,0.027927l-0.037196,0.237378l0.027897,0.013963Z M1837.819038,759.530672l0.09764,0.060508l0.051145,-0.037236l-0.018598,-0.083781l-0.139485,-0.079126l-0.037196,0.032581l0.046495,0.107053Z M1834.810804,762.458338h0.18598l0.362662,-0.051199l0.023248,-0.032581l-0.065093,-0.060508l-0.530044,-0.009309l-0.111588,0.046545l-0.013949,0.051199l0.148784,0.055854Z M1835.405942,761.560024l0.09299,0.009309l0.083691,-0.023272l0.055794,0.027927l0.032547,0.209452l-0.060444,0.144289l0.032547,0.121016l0.139485,0.051199l0.153434,0.009309l0.130186,-0.079126l0.265022,-0.069817l0.162733,-0.116362l0.134836,-0.186179l-0.009299,-0.111707l-0.167382,-0.116362l-0.032547,-0.107053l-0.102289,-0.065163h-0.125537l-0.125537,-0.074472l-0.027897,0.023272l0.018598,0.051199l-0.144135,0.111707l-0.158083,0.013963l-0.079042,-0.069817h-0.041846l-0.065093,0.079126l-0.139485,0.046545l-0.051145,0.069817l0.027897,0.051199Z M1843.844804,769.26784l0.139485,0.009309l0.204578,-0.083781l0.009299,-0.097744l-0.027897,-0.046545l-0.009299,-0.083781l0.037196,-0.116362l-0.051145,-0.139634l-0.106939,-0.004654l-0.148784,0.153598l-0.069743,0.172216l-0.09299,0.09309v0.079126l0.116238,0.065163Z M1844.374848,770.208045l0.051145,0.055854l0.111588,0.037236l0.134836,-0.065163l0.027897,-0.153598l-0.172032,-0.181525l-0.09299,0.018618l-0.051145,0.121016l-0.120887,0.074472l0.009299,0.074472l0.102289,0.018618Z M1884.37782,777.656558l0.036538,0.042769l-0.020792,0.024806l-0.053221,-0.008473l-0.029458,-0.036822l0.013712,-0.030753l0.053221,0.008473Z M1883.303464,778.104275l0.013996,-0.060066l-0.010064,-0.059985l-0.02204,0.014487l-0.019855,0.077065l0.009033,0.04676l0.028929,-0.018262Z M1884.319913,778.066542l-0.014769,0.032527l0.029538,0.02957l0.038399,0.005914l0.026584,-0.032527l-0.020425,-0.037222l-0.059328,0.001739Z M1884.143462,777.863559l0.055452,-0.049343l-0.024645,-0.043175l-0.061613,0.024672l-0.018484,0.055511l0.049291,0.012336Z M1884.812515,771.449113l0.012554,0.023563l0.029815,-0.001571l0.011971,-0.023113l-0.014729,-0.022118l-0.023918,0.002817l-0.015692,0.020422Z M1853.794758,771.385628l0.046495,0.060508l0.032547,-0.004654l0.018598,-0.051199l-0.055794,-0.051199l-0.032547,0.004654l-0.009299,0.04189Z M1865.621951,772.832007l0.034871,0.034909l0.118563,-0.062835l0.094153,-0.143125l-0.013949,-0.090762l-0.041846,-0.027927l-0.09764,0.048872l-0.087178,0.12218l-0.006974,0.118689Z M1873.161134,773.662831l0.006974,-0.052363l-0.031384,-0.097744l-0.017436,0.006982l-0.006974,0.101235l0.02441,0.069817l0.02441,-0.027927Z M1885.087129,776.452027l0.059281,-0.115198l-0.020923,-0.062835l-0.038358,0.003491l-0.066256,0.12218l0.006974,0.055854l0.059281,-0.003491Z M1885.271947,774.933504l0.038358,-0.055854l-0.010461,-0.055854l-0.069743,-0.027927l-0.020923,0.031418l0.02441,0.108217h0.038358Z M1883.218026,773.86181l0.045333,-0.132653l-0.013949,-0.076799l-0.045333,-0.006982l-0.07323,0.073308l-0.003487,0.073308l0.041846,0.08029l0.04882,-0.010473Z M1883.434228,773.380071l0.031384,-0.024436l0.020923,-0.12218l-0.017436,-0.083781l-0.034871,0.003491l-0.027897,0.048872l-0.006974,0.150107l0.034871,0.027927Z M1885.418407,775.132483h0.090665l0.14646,-0.167561l0.083691,-0.628355l0.160408,-0.809879l-0.006974,-0.209452l-0.160408,-0.083781l-0.027897,0.048872v0.111707l-0.132511,0.195488l-0.230151,0.167561l-0.062768,0.132653l-0.076717,0.307196l-0.125537,0.300214l0.027897,0.055854l0.14646,0.048872l0.118563,0.230397v0.181525l0.04882,0.118689Z M1883.326127,777.827425l0.027897,0.027927l0.111588,-0.083781l0.118563,0.055854l0.006974,0.125671l0.04882,-0.006982l0.09764,-0.216433l0.083691,-0.055854l0.14646,0.020945l0.104614,-0.076799l0.076717,-0.132653l0.223177,-0.125671l0.027897,-0.160579l0.083691,-0.097744h0.125537l0.090665,-0.048872l0.083691,-0.146616l0.09764,-0.027927l0.125537,0.04189l0.062768,-0.04189l-0.020923,-0.258324l-0.223177,-0.356068l0.027897,-0.118689l0.160408,-0.090762l0.111588,-0.111707l0.083691,-0.223415l-0.020923,-0.055854l-0.118563,-0.013963l-0.069743,-0.132653l-0.006974,-0.425885l-0.04882,-0.118689v-0.111707l0.055794,-0.111707l-0.04882,-0.146616l-0.09764,-0.048872l-0.013949,-0.188506l0.09764,-0.153598h0.104614l0.04882,-0.04189v-0.188506l-0.062768,-0.20247l-0.334765,-0.342104l-0.020923,-0.20247l0.14646,-0.467775l0.034871,-0.390976l-0.062768,-0.097744l-0.083691,-0.006982l-0.439379,0.356068l-0.418456,0.20247l-0.125537,0.188506l0.013949,0.111707l-0.278971,0.6493l-0.14646,0.174543l-0.041846,0.146616l0.034871,0.314177l-0.034871,0.24436l-0.14646,0.153598l-0.083691,0.265305l0.076717,0.495702l0.209228,0.258324l0.195279,0.418903v0.167561l-0.090665,0.097744l-0.006974,0.307196l0.076717,0.069817l0.020923,0.083781l-0.195279,0.481738l-0.055794,0.188506l0.04882,0.097744l0.006974,0.083781Z M1887.800119,758.613739v-0.027927l-0.013949,-0.055854l-0.034871,-0.020945l-0.038358,0.013963l-0.003487,0.045381l0.055794,0.059345l0.034871,-0.013963Z M1896.318854,745.282661l0.029547,0.002465l0.02216,0.027114l-0.016656,0.026244h-0.032444l-0.024767,-0.036103l0.02216,-0.019719Z M1892.358665,754.873273l-0.273456,0.180952l-0.236377,0.018559l-0.16222,-0.078877l-0.101967,0.00928l-0.074158,0.027839l0.041714,0.102076l0.213203,0.180952l0.203933,0.111355l0.185394,0.292307l-0.046348,0.125275l0.013905,0.069597l0.287361,0.287668l0.370788,0.23663l0.254917,0.088156l0.171489,-0.013919l0.060253,-0.120635l0.078792,-0.041758l0.203933,-0.00928l0.101967,-0.120635l-0.023174,-0.167033l-0.115871,-0.051038l-0.31517,-0.023199l-0.134411,0.027839l-0.115871,-0.018559l-0.319805,-0.23663l-0.111236,-0.162393l-0.078792,-0.013919v-0.023199l0.106602,-0.00928l0.250282,0.180952l0.203933,0.00464l0.078792,-0.027839l0.00927,-0.097436l-0.074158,-0.088156l0.023174,-0.041758l0.241012,0.00464l0.060253,-0.064957v-0.097436l-0.088062,-0.074237l-0.236377,-0.032479l-0.092697,-0.032479l-0.032444,-0.092796l0.037079,-0.023199l0.083427,0.069597l0.264186,-0.027839l0.176124,-0.208791l0.018539,-0.283028l-0.129776,-0.125275l0.00927,-0.055678l0.129776,-0.060317l0.236377,-0.194872l0.013905,-0.194872l-0.078792,-0.102076l-0.14368,-0.00464l-0.407867,0.310867l-0.157585,0.069597l-0.171489,0.180952l-0.319805,0.171673l-0.078792,0.115995l-0.00927,0.153113Z M1896.247303,745.199289l0.013905,-0.078877l-0.013905,-0.074237l-0.055618,-0.041758l-0.037079,0.00928l-0.00927,0.055678l0.060253,0.129914h0.041714Z M1896.242524,746.448556l0.041858,0.014789l0.05417,-0.049298l-0.004925,-0.088736l-0.049245,-0.049298h-0.046783l-0.032009,0.041903l-0.012311,0.069017l0.049245,0.061622Z M1892.553329,754.46033l0.129776,-0.060317l0.171489,-0.162393l0.250282,-0.287668l0.046348,-0.273748l-0.092697,-0.180952l-0.134411,-0.00464l-0.088062,0.097436l-0.050983,0.190232l-0.125141,0.22735l-0.050983,0.245909l-0.083427,0.194872l0.027809,0.013919Z M1892.900943,755.824432h0.101967l0.018539,-0.027839l-0.027809,-0.027839l-0.064888,0.00464l-0.041714,0.027839l0.013905,0.023199Z M1892.177906,756.678155l0.097332,0.264469l0.14368,0.083516l0.083427,0.00464l0.027809,-0.046398l-0.115871,-0.23663l-0.018539,-0.069597l0.078792,-0.111355l-0.032444,-0.143834l-0.055618,-0.051038h-0.078792l-0.041714,-0.023199l-0.060253,-0.250549l-0.125141,-0.125275l-0.027809,-0.157753l0.041714,-0.088156l-0.190029,-0.273748l-0.166855,-0.083516l-0.115871,-0.088156l-0.037079,0.018559l0.037079,0.218071l0.092697,0.148474l0.041714,0.352625l0.111236,0.250549l0.176124,0.273748l0.134411,0.134554Z M1892.289143,756.279132l0.037079,0.046398l0.083427,0.00464l0.115871,0.134554l0.16222,0.176312l0.115871,0.055678l0.023174,-0.032479l-0.236377,-0.287668l-0.203933,-0.134554l-0.083427,-0.083516l-0.032444,0.013919l0.018539,0.106715Z M1892.0574,757.063258l0.106602,-0.074237l0.00927,-0.078877l-0.069523,-0.115995l-0.050983,-0.00928l-0.046348,0.046398l0.00927,0.069597l-0.018539,0.111355l0.060253,0.051038Z M1891.950799,757.044699l-0.018539,-0.069597l0.032444,-0.153113l0.064888,-0.078877v-0.115995l-0.180759,-0.273748l-0.050983,0.00464l-0.018539,0.111355l0.069523,0.106715l-0.00927,0.139194l-0.148315,0.088156l-0.023174,0.092796l0.139045,0.255189l0.074158,0.018559l0.069523,-0.125275Z M1891.309645,756.982835l0.071068,0.034025l0.080337,-0.037118l0.098877,-0.167033l-0.00309,-0.123728l-0.030899,-0.123728v-0.07733l-0.061798,-0.034025l-0.052528,0.037118l-0.080337,0.123728l-0.040169,0.176312l0.018539,0.191778Z M1891.606275,756.63949l0.049438,0.046398l0.139045,-0.00928l0.00927,-0.058771l-0.095787,-0.148474l0.00309,-0.089703l0.071068,-0.083516l-0.00309,-0.055678l-0.074158,-0.170126l-0.040169,-0.361904l-0.033989,-0.037118l-0.021629,0.012373l-0.071068,0.275295l-0.033989,0.306227l-0.00618,0.129914l0.064888,0.083516l0.043259,0.160846Z M1899.473158,742.002467l0.092697,0.015466l0.055618,-0.043305l-0.00927,-0.049491l-0.132866,-0.108262l-0.071068,-0.216524l-0.098877,-0.098982l-0.071068,-0.003093l-0.018539,0.142287l0.086517,0.247456l0.166855,0.114448Z M1897.637758,735.6645l0.049438,-0.024746l-0.018539,-0.08661l-0.117416,-0.129914l-0.061798,0.012373l-0.00618,0.049491l0.086517,0.15466l0.067978,0.024746Z M1898.366974,737.124491l0.043259,-0.012373l0.030899,-0.049491l-0.049438,-0.043305l-0.055618,0.012373l-0.00618,0.043305l0.037079,0.049491Z M1899.918103,737.14305l-0.092697,-0.123728l-0.043259,-0.111355l-0.061798,-0.037118l-0.092697,-0.006186l-0.074158,0.049491l0.00618,0.098982l0.055618,0.061864l0.154495,0.024746l0.135956,0.074237l0.01236,-0.030932Z M1900.424847,736.74712l-0.197754,-0.15466l-0.148315,-0.136101l-0.123596,-0.364998l0.032444,-0.102076l0.029354,-0.003093l0.092697,0.160846l0.202388,0.139194l0.137501,0.034025l0.015449,-0.020106l-0.180759,-0.097436l-0.131321,-0.111355l-0.098877,-0.167033l-0.047893,-0.027839l-0.069523,0.00928l-0.055618,0.167033l0.01236,0.247456l0.074158,0.15466l0.142135,0.179406l0.346069,0.197965l0.037079,-0.018559l-0.067978,-0.08661Z M1894.096734,732.685748l0.14368,-0.060317l0.194664,-0.00928l-0.027809,-0.060317l-0.139045,-0.064957l-0.092697,-0.106715h-0.115871l-0.180759,0.153113l-0.004635,0.078877l0.041714,0.064957l0.180759,0.00464Z M1892.82244,731.654263l0.123113,0.059157l0.172358,-0.017254l0.163089,-0.11469v-0.111355l-0.088062,-0.129914l-0.125141,-0.00464l-0.190029,0.092796l-0.106602,0.157753l-0.096463,0.028709l0.002462,0.019719l0.145274,0.019719Z M1893.795468,732.008338h0.347614l0.120506,-0.046398l-0.004635,-0.074237l-0.083427,-0.046398l-0.29663,0.018559l-0.338344,0.078877l-0.00309,0.032479l0.258007,0.037118Z M1892.706279,730.959743l0.126686,-0.064957l-0.00618,-0.061864l-0.058708,-0.012373l-0.157585,0.058771l-0.049438,0.083516l0.037079,0.027839l0.108146,-0.030932Z M1892.836055,730.774151l0.037079,0.021652l0.043259,-0.046398l-0.00309,-0.043305l-0.037079,-0.003093l-0.037079,0.034025l-0.00309,0.037118Z M1893.033808,730.668982l0.052528,-0.015466v-0.030932l-0.037079,-0.021652l-0.043259,0.012373l-0.00618,0.034025l0.033989,0.021652Z M1892.922572,730.87004l0.071068,0.006186l0.191574,-0.003093l0.139045,-0.061864l-0.015449,-0.052584l-0.216293,-0.027839l-0.123596,0.018559l-0.061798,0.058771l0.015449,0.061864Z M1893.311899,730.987582l0.095787,0.003093l0.216293,-0.058771l0.015449,-0.07733l-0.092697,-0.021652l-0.151405,0.003093l-0.120506,0.040212l-0.015449,0.061864l0.052528,0.049491Z M1893.525102,730.805083l0.055618,-0.034025l-0.015449,-0.037118l-0.105057,-0.00928l-0.083427,0.040212v0.034025l0.148315,0.006186Z M1893.308809,730.721566l0.080337,-0.006186l0.067978,-0.049491l-0.00927,-0.046398l-0.055618,-0.00928l-0.089607,0.037118l-0.015449,0.040212l0.021629,0.034025Z M1893.5869,730.662796l0.080337,-0.015466l0.00618,-0.083516l-0.064888,-0.043305l-0.139045,0.018559l-0.015449,0.034025l0.049438,0.058771l0.083427,0.030932Z M1893.704316,730.87932l0.040169,0.034025h0.049438l0.015449,-0.027839l-0.027809,-0.058771l-0.052528,-0.024746l-0.033989,0.015466l0.00927,0.061864Z M1893.11878,724.046441l0.064888,0.00928l0.139045,-0.060317l0.092697,-0.171673l-0.037079,-0.037118l-0.166855,0.032479l-0.115871,0.167033l0.023174,0.060317Z M1894.238869,725.661091l0.148315,0.129914l0.01236,0.173219l0.105057,0.092796l0.210113,0.080423l0.154495,0.006186l0.098877,0.055678l0.074158,-0.030932l-0.043259,-0.148474l-0.401687,-0.278388l-0.123596,-0.142287l-0.173034,-0.018559l-0.061798,0.080423Z M1893.461759,724.487222l0.101967,0.245909l0.324439,0.218071l0.157585,0.027839l0.259552,-0.115995l0.069523,-0.245909l0.097332,-0.23199l-0.004635,-0.111355l-0.412502,-0.426862l-0.190029,-0.111355l-0.166855,0.060317l-0.241012,0.334066l0.004635,0.357265Z M1894.83213,726.341595l0.092697,-0.018559l-0.00618,-0.080423l-0.092697,-0.043305l-0.111236,0.012373l-0.00618,0.06805l0.123596,0.061864Z M1894.541679,726.403459l0.197754,0.043305l0.105057,0.06805h0.067978v-0.08661l-0.129776,-0.043305l-0.290451,-0.024746l0.049438,0.043305Z M1894.683814,728.067601l0.451125,0.278388l0.117416,-0.006186l0.024719,-0.129914l-0.234832,-0.556776l-0.148315,-0.15466l-0.135956,-0.012373l-0.185394,0.074237l-0.086517,0.15466l0.061798,0.228897l0.135956,0.123728Z M1891.254026,728.117092l0.469665,0.024746l0.778655,0.179406l0.135956,0.117542l0.092697,-0.006186l0.030899,-0.111355l0.080337,-0.080423l0.074158,-0.08661l-0.061798,-0.080423h-0.129776l-0.271911,-0.074237l-0.086517,-0.148474l-0.117416,-0.030932l-0.191574,-0.15466l-0.247192,-0.06805l-0.160675,0.030932l-0.203933,-0.037118l-0.067978,-0.111355l-0.154495,-0.043305l-0.148315,0.043305l-0.185394,0.235083l-0.00618,0.117542l0.142135,0.210338l0.228653,0.074237Z M1892.595043,729.063611h0.185394l0.074158,-0.061864l-0.00618,-0.204151l-0.061798,-0.129914l-0.203933,-0.024746l-0.080337,0.061864l0.018539,0.160846l-0.01236,0.123728l0.086517,0.074237Z M1892.180996,729.63276l0.160675,0.037118l0.086517,-0.111355l0.111236,-0.024746l0.197754,0.030932l0.216293,-0.037118l0.061798,-0.105169l-0.148315,-0.179406l-0.29663,-0.117542l-0.111236,-0.018559l-0.154495,0.117542l-0.166855,0.030932l-0.037079,0.061864l-0.018539,0.204151l0.098877,0.111355Z M1893.775384,729.793606l0.067978,-0.030932l0.030899,-0.55059l0.067978,-0.191778l0.018539,-0.290761l-0.092697,-0.167033l-0.370788,-0.179406l-0.364608,0.037118l-0.185394,0.24127v0.216524l0.105057,0.278388l0.29663,0.22271l0.259552,0.30932l0.166855,0.105169Z M1892.910212,727.436588l0.129776,0.055678l0.111236,-0.012373v-0.06805l-0.092697,-0.105169h-0.105057l-0.067978,0.080423l0.024719,0.049491Z M1893.039988,727.653112l0.29663,0.018559l0.166855,0.098982l0.216293,0.030932l0.154495,-0.055678l0.01236,-0.06805l-0.241012,-0.136101l-0.401687,-0.055678l-0.086517,0.049491l-0.105057,0.006186l-0.117416,-0.037118l-0.043259,0.018559l0.148315,0.129914Z M1892.683105,728.01347l0.208568,0.013919l0.180759,0.083516l0.018539,0.074237l0.111236,0.032479l0.245647,0.023199l0.129776,-0.060317l-0.00927,-0.111355l-0.111236,-0.083516l-0.440311,-0.143834l-0.217838,-0.106715l-0.407867,-0.041758l-0.097332,0.00928l0.00927,0.055678l0.106602,0.046398l0.088062,0.134554l0.185394,0.074237Z M1892.557964,727.461334l0.115871,0.134554l0.092697,0.00464l0.037079,-0.023199l-0.083427,-0.097436l-0.115871,-0.041758l-0.046348,0.023199Z M1892.0574,727.586608l0.088062,0.032479l0.125141,0.00928l0.018539,-0.051038l-0.046348,-0.051038l-0.180759,-0.00464l-0.023174,0.027839l0.018539,0.037118Z M1891.621724,727.507732l0.268821,-0.060317l0.352248,0.013919l0.092697,0.120635l0.134411,0.051038l0.097332,-0.046398l-0.004635,-0.078877l-0.342979,-0.190232l-0.157585,-0.013919l-0.120506,0.046398l-0.407867,0.032479l-0.060253,0.032479l0.032444,0.069597l0.115871,0.023199Z M1891.7515,727.30822l0.185394,-0.023199l0.046348,-0.041758l-0.069523,-0.027839l-0.139045,0.013919l-0.055618,0.046398l0.032444,0.032479Z  M1880.777625,723.9355v-0.033l0.037,-0.033l0.003,-0.021l-0.024,-0.044l0.012,-0.123l0.047,-0.044l0.007,-0.066l0.081,-0.123l0.102,-0.004l0.049,0.027l0.037,-0.004l-0.007,-0.084l0.021,-0.044l0.133,-0.035l0.076,-0.175l0.098,-0.03l0.107,0.019l0.028,0.142l0.028,0.004l0.023,-0.025l0.081,-0.007l0.052,-0.061l-0.019,-0.156l0.016,-0.037l0.112,-0.03l0.046,-0.075l0.061,-0.004l0.063,-0.059l0.018,-0.048l-0.063,-0.149l-0.002,-0.156l0.063,-0.058l0.002,-0.054l-0.025,-0.03l0.004,-0.063l0.061,-0.109l0.09,-0.003l0.042,-0.025l0.065,0.011l0.026,0.11l0.081,0.125l0.061,0.024l0.148,-0.038l0.017,0.04l0.042,0.007l0.034,-0.035l0.049,0.002l0.042,0.033l0.116,0.032l0.033,0.073l0.142,0.032l0.048,0.075l-0.023,0.128l0.033,0.051l0.093,0.019l0.097,0.081l0.096,-0.002l0.046,-0.173l0.175,-0.186l0.039,-0.009l0.063,0.023l0.046,0.003l0.049,-0.052h0.098l0.023,0.031h0.033l0.004,-0.166l-0.049,-0.076l0.026,-0.119l0.035,-0.012l0.046,0.058l0.117,0.007l0.041,0.042l0.033,0.003l0.035,-0.047l0.084,-0.009l0.058,0.028l0.121,0.011l0.065,0.089l0.121,0.009l0.072,-0.058l0.039,-0.009l0.079,0.018l0.056,-0.021l0.067,-0.084l0.068,-0.007l0.044,-0.032l0.077,0.002l0.118,0.089l0.017,0.069l0.06,0.038l0.079,-0.012l0.047,0.014l0.013,0.081l0.075,0.101l0.063,0.004l0.06,0.049l0.028,0.228l0.049,0.002l0.025,-0.032l0.04,-0.007l0.044,0.007l0.112,-0.056l0.051,-0.191l0.051,-0.009l0.07,0.053l0.055,-0.009l0.012,-0.058l0.098,-0.102l0.039,-0.163l0.042,-0.014l0.04,-0.054l0.081,-0.028l0.019,-0.116l0.027,-0.002l0.119,0.214l0.07,0.011l0.051,-0.037l0.067,0.028l0.028,0.116l-0.025,0.075l0.023,0.039l0.074,0.024l0.093,-0.012l0.035,0.016h0.033l0.032,-0.083l0.061,-0.021l0.06,0.072l0.107,0.007l0.058,0.046l0.026,-0.002v-0.049l0.169,-0.077l0.056,-0.086l0.005,-0.105l0.065,-0.062l0.2,0.207l0.012,0.083l0.037,0.049l0.051,0.003l0.06,-0.07l0.068,0.005l0.028,0.081l0.162,0.065l0.019,-0.06l0.028,-0.017l0.063,0.017h0.039l0.056,-0.073l0.067,-0.004l0.096,-0.13l0.081,-0.005l0.158,0.072l0.056,-0.016l0.065,0.032l0.007,0.042l0.084,0.061l0.032,-0.021l0.089,0.009l0.097,-0.04l0.042,0.019l-0.014,0.123l0.03,0.031l0.063,0.002l0.047,-0.049l0.009,-0.081l0.088,-0.042l0.219,0.072l0.221,0.007l0.125,-0.058l0.07,0.002l0.03,-0.014l0.016,-0.046l0.054,-0.003l0.058,0.026l0.053,0.067h0.117l0.042,0.019l0.039,-0.002l0.158,-0.224l0.128,-0.025l0.035,0.011l0.005,0.04l0.1,0.06l0.032,0.058l0.098,0.084l0.025,0.128l0.061,0.014l0.079,0.04l0.009,0.042l0.019,0.014l0.055,-0.028l0.128,0.088l0.168,0.016l0.032,0.021l0.003,0.068l0.116,0.116l0.095,0.012l0.044,0.042l0.014,0.065l0.065,0.028l0.051,0.009l0.003,0.037l-0.047,0.04l0.019,0.037l0.07,0.049l0.007,0.065l0.028,0.037l0.051,0.01l0.067,0.088l0.072,0.019l0.033,0.032l0.037,0.007l0.056,-0.032l0.046,0.035l0.086,-0.005l0.082,0.047l0.041,0.004l0.045,-0.07l0.034,-0.004l0.026,0.025l0.037,0.003l0.103,-0.072l0.127,0.007l0.065,0.062l-0.022,0.088l-0.062,0.032l-0.15,0.027l-0.128,0.126l-0.086,0.16l-0.121,0.01l-0.273,-0.091l-0.363,-0.182l-0.19,-0.023l-0.167,-0.107l-0.004,0.047l0.125,0.111l0.213,0.065l0.07,0.125l-0.038,0.047l-0.19,0.042l-0.171,-0.042l-0.065,0.018l-0.083,0.079l0.106,-0.028l0.088,0.005l0.088,0.028l0.139,-0.009l0.153,-0.033l0.292,0.065l0.037,0.065l-0.032,0.144l-0.176,0.223l-0.07,0.018l-0.208,-0.12l-0.158,-0.01l-0.088,0.093l0.037,0.147l-0.079,0.349l-0.083,0.038l-0.213,-0.028l-0.195,-0.158l-0.162,0.019l-0.223,0.218h0.047l0.222,-0.158l0.088,0.009l0.19,0.149l0.232,0.041l0.121,-0.027l0.074,-0.112l0.009,-0.162l0.051,-0.172l-0.028,-0.139l0.088,-0.028l0.116,0.033l0.162,0.102l0.112,-0.019l0.259,-0.269l0.13,-0.005l0.255,0.177l0.069,0.208l0.214,0.246l0.092,0.167l0.306,0.14l0.223,-0.01l0.051,0.042l-0.002,0.104l-0.049,0.024l-0.056,-0.031l-0.179,-0.006l-0.198,0.044l-0.13,-0.019l-0.179,-0.198l-0.012,0.068l0.08,0.142l0.192,0.093l0.179,-0.006l0.123,-0.043l0.142,0.012l0.204,0.13l0.143,0.118l0.024,0.08v0.105l0.081,0.081l0.179,0.08l0.043,0.124l-0.043,0.031l-0.389,-0.05l-0.309,-0.111l-0.087,0.093h-0.074l-0.093,-0.025l-0.012,0.049l0.142,0.062l0.093,-0.043l0.037,-0.043h0.074l0.167,0.099l0.815,0.278l0.031,0.068l-0.037,0.05l-0.173,0.068l-0.185,-0.007l-0.161,-0.117l-0.012,0.056l0.031,0.129l0.049,0.025l0.043,-0.025h0.044l-0.037,0.198l-0.124,0.081l-0.21,0.031l-0.346,0.123l-0.204,-0.006l-0.309,-0.086l-0.42,-0.291l-0.142,-0.235l-0.099,-0.081l-0.075,-0.006l-0.259,0.143l-0.142,-0.031l-0.098,-0.127l0.005,0.077l0.062,0.111l0.191,0.044l0.118,-0.081l0.116,-0.041h0.068l0.043,0.061l-0.005,0.092l-0.153,0.043h-0.231l0.023,0.032l0.236,0.028l0.181,-0.017l0.086,0.025l0.068,0.087l-0.03,0.191l-0.099,0.124h-0.099l-0.315,-0.08l-0.241,-0.149l-0.186,-0.012l-0.488,0.13l-0.204,0.012l-0.185,-0.018l-0.39,-0.155h-0.148l-0.21,0.049l-0.161,0.013l-0.154,-0.013l-0.124,0.044l-0.266,0.204l-0.105,0.012l-0.179,-0.031l-0.062,-0.111l0.062,-0.167l-0.012,-0.241l-0.056,-0.118l-0.16,-0.018l-0.217,0.185l-0.062,0.347l-0.117,0.074l-0.148,0.006l-0.149,-0.142l-0.123,0.006l-0.081,0.179l-0.049,0.174h-0.08l-0.087,-0.068l0.025,0.086l0.08,0.056l0.111,-0.013l0.05,-0.092l0.043,-0.161l0.056,-0.062h0.055l0.099,0.117l0.136,0.031l0.247,-0.099l0.05,-0.167l0.055,-0.204l0.099,-0.13l0.044,-0.006l0.068,0.099l-0.05,0.353l0.087,0.148l0.105,0.05h0.303l0.253,-0.143l0.284,-0.018l0.173,-0.081l0.297,-0.006l0.309,0.118v0.062l-0.142,0.185l-0.056,0.161v0.099l0.13,0.204l0.278,0.167l0.346,0.05l0.155,0.062l0.228,0.049l0.26,0.155l0.167,0.025l0.08,0.086l0.003,0.241l-0.074,0.186l-0.176,0.105l-0.118,0.031l-0.037,0.074l-0.012,0.285l0.074,0.068v0.087l-0.093,0.148l-0.197,0.012l-0.105,0.075l-0.106,-0.044l-0.049,-0.142l-0.093,-0.031l-0.105,0.006l-0.185,-0.068l-0.173,0.006l-0.006,0.05l0.185,0.049l0.136,0.05l0.154,-0.006l0.019,0.049l-0.012,0.074l0.148,0.205l0.087,0.018l0.074,-0.031l0.235,0.019l0.105,0.093l0.092,0.012l0.081,-0.062l0.136,0.012l0.145,0.16l0.032,0.079l-0.028,0.102l0.024,0.06l0.125,0.065l0.004,0.084l-0.19,0.064l-0.083,0.149l0.028,0.06l0.111,-0.004l0.283,-0.079l0.296,0.009l0.07,0.084l0.139,0.018l0.162,-0.06l0.121,0.014l0.037,0.13l-0.051,0.102l-0.098,0.046l-0.143,0.153l-0.084,-0.009l-0.12,-0.162h-0.209l-0.162,0.088l-0.107,0.162l-0.185,0.065l0.005,0.056l0.19,0.041l0.18,0.079l0.153,-0.009l0.283,-0.07l0.056,-0.088l0.171,-0.097l0.232,-0.005l0.157,-0.046l0.056,0.042l-0.046,0.065l0.023,0.051l0.134,0.046l0.01,0.07l-0.529,0.088l-0.445,0.125l-0.028,0.037l0.677,0.098l0.445,0.013l0.056,0.056l-0.074,0.102l-0.204,0.014l-0.232,0.255l-0.185,0.019l-0.158,-0.111l-0.042,0.004l0.104,0.173l0.154,0.112l0.278,0.037l0.451,0.148l0.087,0.081l0.247,0.108l0.065,0.213l-0.056,0.26l0.075,0.334l0.63,0.52l0.417,0.585l0.223,0.065l0.074,0.055l0.083,0.26l0.009,0.186l0.093,0.046l0.065,-0.074l0.12,0.009l0.223,0.436l0.009,0.232l-0.5,0.483h-0.204l-0.343,0.093l-0.056,0.13l0.195,0.185l-0.009,0.149l-0.418,0.139l-0.055,0.093l0.083,0.083l0.037,0.093l-0.018,0.028l-0.213,0.065l-0.177,-0.037l-0.38,0.074l-0.046,0.074l0.389,0.009l0.241,0.307l0.047,0.334l-0.112,0.13l-0.009,0.074l0.167,0.093l0.13,0.327l0.327,0.186l0.229,0.012l0.303,0.019l0.111,0.062l0.056,0.179l-0.056,0.087l-0.012,0.056l0.167,0.16l0.321,0.427l0.21,0.081l0.253,0.136l0.322,0.309l0.642,0.266l0.334,0.118l0.173,0.142l0.006,0.176l0.127,0.192l0.046,0.167l0.198,0.108l0.3,0.09l0.034,0.043l0.055,-0.003l0.13,-0.043l0.149,0.037l0.698,0.588l0.167,0.049l0.414,0.39l0.024,0.158l-0.055,0.111l-0.093,0.019v0.052l0.155,0.019l0.086,0.068l0.025,0.117l0.241,0.124l0.08,0.13l0.016,0.232l0.102,0.028l0.139,-0.121l0.352,0.009l0.297,0.112l0.12,0.148l-0.037,0.288l-0.26,0.362l-0.222,0.158l-0.074,0.13l-0.13,0.065l-0.111,0.009l-0.195,0.195l-0.055,0.139l-0.232,0.125l-0.303,-0.054l-0.377,-0.235l-0.192,-0.037l-0.234,0.099l-0.204,0.185l-0.346,-0.006l-0.581,-0.179l-0.186,0.012l-0.222,0.167l-0.142,0.031l-0.142,-0.037l-0.05,-0.148l-0.173,-0.099l-0.711,-0.106l-0.964,-0.259l-0.055,-0.087l0.024,-0.111l-0.03,-0.062l-0.241,-0.087l-0.112,-0.142l-0.006,-0.26l-0.117,-0.291l-0.235,-0.192l-0.272,-0.16l-0.049,0.012l0.018,0.155l0.155,0.16l0.191,0.093l0.155,0.18l0.034,0.238l-0.053,0.151l0.037,0.217l0.136,0.278l0.074,0.044l0.136,0.34l-0.024,0.13l0.006,0.099l0.031,0.074l-0.019,0.08l-0.136,0.038l-0.204,-0.025l-0.105,-0.081l-0.093,-0.055l-0.129,-0.05l-0.05,-0.055l-0.012,-0.093l-0.099,-0.05l-0.136,0.019l-0.049,0.062v0.08l-0.044,0.013l-0.074,-0.031l-0.142,0.018l-0.426,0.235l-0.149,0.136l-0.092,0.192l-0.13,0.142l-0.037,0.149l0.043,0.309l-0.049,0.068l-0.143,0.025l-0.117,0.124l-0.222,0.563l-0.192,0.191l-0.025,0.149l0.037,0.179l-0.031,0.118l-0.111,0.056l-0.086,0.012l-0.025,-0.05h-0.043l-0.019,0.056l0.037,0.074l-0.018,0.099l-0.099,0.334l-0.093,0.056l-0.049,0.124l0.024,0.068l-0.074,0.297l0.062,0.105l-0.025,0.087l-0.099,0.024l-0.018,0.044l0.049,0.037l-0.037,0.055l-0.074,0.019l-0.08,0.13v0.068l0.185,0.148v0.05l-0.185,0.074l-0.04,0.062l-0.025,0.328l0.04,0.025l0.136,-0.05l0.062,0.031l-0.006,0.043l-0.062,0.013l-0.087,0.055v0.062l0.05,0.013l0.049,-0.031h0.056l0.037,0.068l-0.068,0.093l0.006,0.08l0.062,0.118l-0.031,0.142l-0.222,0.198l-0.038,0.093l-0.018,0.173l-0.192,0.513l-0.129,0.161l-0.025,0.266l0.173,0.309l0.043,0.118v0.179l0.05,0.007l0.111,-0.112l0.086,0.031l0.007,0.149l-0.229,0.47l-0.037,0.253l-0.247,0.452l-0.019,0.124l-0.253,0.167l-0.186,0.006l-0.148,-0.068l-0.229,0.037l-0.352,-0.018l-0.346,-0.168l-0.156,-0.143l0.015,0.066l0.16,0.195l0.296,0.124l0.216,0.012l0.204,0.167l0.075,0.415l-0.093,0.346l-0.043,0.433l-0.093,0.068l-0.13,-0.006l-0.018,0.049l0.037,0.087l-0.031,0.489l0.031,0.086l-0.081,0.068h-0.197l-0.254,0.192l-0.105,0.204l-0.223,0.237l-0.144,0.312l-0.304,0.363l-0.139,0.077l-0.098,0.157l-0.014,0.157l-0.07,0.14l-0.122,0.073l-0.3,0.248l-0.292,0.153l-0.335,0.056l-0.22,0.007l-0.024,-0.038l0.042,-0.095l0.01,-0.261l-0.031,-0.074l-0.042,-0.014l-0.056,0.046l-0.073,-0.011l-0.028,-0.059l0.024,-0.08l-0.021,-0.234l-0.087,-0.154l-0.213,-0.167l-0.041,-0.074l0.055,-0.192l0.007,-0.139l0.102,-0.119l0.006,-0.101l-0.027,-0.014l-0.063,0.049l-0.073,0.115l-0.021,0.199l-0.084,0.185l-0.077,0.038l-0.024,0.088l0.052,0.122l0.251,0.199l0.098,0.132l0.003,0.081l-0.115,0.087l-0.15,0.028v0.042l0.143,0.014l0.196,0.122l0.024,0.098l-0.101,0.251l-0.007,0.223l0.024,0.119l-0.031,0.136l-0.066,0.063l-0.199,0.024l-0.645,0.192l-0.38,0.231l-0.137,0.173l-0.024,0.2l0.126,0.242l0.046,0.275l-0.023,0.07l-0.098,0.065l-0.055,0.079l-0.298,0.144l-0.246,0.014l-0.196,0.089l-0.121,0.107l-0.153,0.079l-0.186,0.009l-0.181,0.075l-0.051,0.084l-0.093,0.079l-0.089,0.014l-0.046,0.051l-0.051,0.13l-0.131,0.14l-0.167,0.014l-0.116,-0.024l-0.163,0.019l-0.07,0.07l0.005,0.046l0.07,-0.055l0.111,-0.024l0.098,0.061l0.242,0.098l0.158,-0.005l0.39,-0.2l0.247,-0.079l0.386,0.004l0.107,0.061l0.004,0.293l-0.139,0.214l-0.005,0.084l0.079,0.065l0.075,0.158l0.041,0.238l-0.023,0.158l0.033,0.568l-0.037,0.112l-0.149,0.097l-0.172,0.014l-0.219,0.103l-0.218,0.204l-0.135,0.047l-0.009,0.037h0.12l0.2,-0.121l0.121,0.005l0.214,0.093h0.195l0.224,-0.056l0.106,-0.07l0.07,-0.004l0.098,0.209l-0.037,0.107l0.018,0.037l0.2,0.028l0.023,0.056l-0.088,0.154l0.009,0.046l0.093,-0.018l0.14,-0.135l0.023,-0.117h0.047l0.065,0.196l-0.117,0.628l-0.004,0.228l-0.168,0.633l-0.037,0.242l-0.139,0.242l-0.019,0.14l0.037,0.172l-0.111,0.098l-0.149,0.051l-0.07,-0.046l-0.014,-0.266l-0.181,-0.121l-0.167,0.014l-0.121,0.14l-0.079,0.014l-0.051,-0.033l-0.214,0.005l-0.084,0.06l-0.074,0.005l-0.047,-0.033l-0.153,-0.023l-0.024,0.037l0.107,0.038l0.079,0.144l-0.021,0.184l0.042,0.003l0.1,-0.159l0.121,-0.023l0.195,0.13l0.117,0.009l0.028,0.047l-0.228,0.321l-0.112,0.465l0.005,0.48l0.083,0.158v0.093l-0.083,0.275l0.032,0.121l-0.018,0.07l-0.182,0.102l-0.134,0.293l-0.214,0.275l-0.135,0.102l-0.237,0.005l-0.089,-0.042l-0.06,-0.326l-0.047,-0.028l-0.074,0.042l-0.218,-0.098l-0.042,-0.093l0.051,-0.19l-0.023,-0.27l-0.107,-0.21l-0.144,-0.046l-0.028,0.032l0.079,0.075l0.074,0.158l-0.037,0.256l-0.144,0.163l-0.014,0.167l0.088,0.084l0.005,0.084l-0.177,0.14l-0.005,0.055l0.154,-0.009l0.144,-0.084l0.186,0.065l0.102,0.084v0.224l0.093,0.186l0.316,0.181l0.224,0.159l-0.01,0.051l-0.279,-0.019l-0.186,0.033l-0.121,0.172l-0.074,0.014l-0.214,-0.107l-0.242,-0.009l-0.134,0.107l-0.005,0.074l0.102,-0.088l0.223,-0.019l0.224,0.116l0.116,0.401l-0.051,0.139l-0.256,0.14l-0.209,0.037l-0.13,0.065l-0.191,0.298l-0.13,0.433l-0.098,0.047l-0.084,0.149l-0.009,0.167l0.056,0.186l-0.019,0.075l-0.074,0.046l-0.056,0.121l-0.005,0.28l-0.093,0.242l-0.111,0.093l-0.395,0.032l-0.451,0.103l-0.233,0.163l-0.056,0.111l-0.069,0.084l-0.279,0.14l-0.163,0.158l-0.098,0.037l-0.241,0.037l-0.34,0.163l-0.111,0.019l-0.619,0.256l-0.167,0.042l-0.526,0.27l-0.795,0.288l-0.688,0.312l-0.869,0.331l-0.656,0.367l-0.418,0.182l-0.586,0.298l-0.182,0.13l-0.339,0.172l-0.302,0.052l-0.247,-0.042l-0.027,-0.047l0.032,-0.084l0.005,-0.558l0.042,-0.117l0.014,-0.232l-0.182,-0.754v-0.214l-0.046,-0.177l0.009,-0.489l0.074,-0.195l0.028,-0.326l-0.028,-0.252l-0.253,-0.467l-0.209,-0.164l-0.136,-0.039l-0.084,-0.07v-0.073l0.045,-0.087l0.004,-0.168l-0.018,-0.063l0.004,-0.076l0.038,-0.091l0.004,-0.175l-0.046,-0.129l0.014,-0.153l0.157,-0.234l0.133,-0.116l0.042,-0.192l-0.042,-0.307l-0.066,-0.101l0.017,-0.098l0.119,-0.15l-0.032,-0.094l-0.014,0.077l-0.122,0.139l-0.035,0.119l0.049,0.08l0.049,0.307l-0.038,0.186l-0.095,0.073l-0.233,0.255l-0.049,0.227l0.042,0.146l0.007,0.143l-0.08,0.245l-0.056,0.083l-0.122,0.028l-0.15,-0.035l-0.565,-0.289l-0.112,-0.018l-0.352,-0.22l-0.202,-0.174l-0.007,-0.067l0.056,-0.062l0.017,-0.119l0.052,-0.059l0.112,-0.053l0.108,-0.192l0.021,-0.16l0.147,-0.192l0.153,-0.136l0.024,-0.084l0.053,-0.112l-0.108,-0.499l-0.004,-0.171l0.087,-0.238l0.185,-0.254l0.004,-0.063l-0.224,0.276l-0.125,0.258l-0.014,0.15l0.111,0.552l-0.013,0.087l-0.136,0.108l-0.192,0.283l-0.014,0.122l-0.091,0.188l-0.087,0.035l-0.112,0.091l-0.08,0.136l-0.366,0.14h-0.153l-0.394,-0.157l-0.21,-0.224l0.004,-0.069l0.202,-0.185l0.056,-0.14v-0.286l0.066,-0.133l0.007,-0.15l0.031,-0.119l0.279,-0.349l-0.021,-0.01l-0.153,0.118l-0.195,0.276l-0.021,0.244l-0.063,0.109v0.317l-0.028,0.081l-0.108,0.031l-0.122,0.087l-0.07,0.199l-0.129,0.123l-0.286,0.01l-0.258,0.087l-0.697,0.461l-0.44,0.154l-0.725,0.032l-0.244,-0.025l-0.309,-0.103l-0.021,-0.051l0.166,-0.269l0.018,-0.094l0.122,-0.367l0.017,-0.37l-0.073,-0.394l-0.091,-0.223l-0.014,-0.091l-0.035,-0.039l-0.041,0.004l-0.199,-0.032l-0.37,0.039l-0.307,0.112l-0.118,0.153l-0.014,0.133l-0.067,0.091l-0.212,0.055l-0.112,0.06l-0.049,0.063l-0.097,0.038l-0.164,-0.031l-0.133,-0.133l-0.108,-0.185l-0.331,-0.36l-0.188,-0.139l-0.122,-0.154l-0.014,-0.098l-0.056,-0.09l-0.101,-0.07l-0.624,-0.293l-0.112,-0.133l-0.014,-0.115l-0.167,-0.419l-0.205,-0.345l-0.167,-0.363l-0.224,-0.265l-0.19,-0.182l-0.019,0.038l0.061,0.13l0.13,0.107l0.149,0.186l0.041,0.135l0.354,0.568l0.046,0.307l-0.046,0.126l-0.028,0.135l-0.074,0.112l-0.154,0.093l-0.279,0.353l0.009,0.126l0.14,0.14l0.139,0.065l0.121,0.009l0.019,0.033l-0.381,0.391l-0.563,0.358l-0.707,0.349l-0.544,0.284l-0.241,0.219l-0.145,0.037l-0.325,0.149l-0.042,0.047h-0.116l-0.316,-0.149l-0.089,-0.019l-0.069,-0.046l-0.205,-0.256l-0.228,-0.159l-0.497,-0.19l-0.233,-0.028l-0.307,0.023l-0.432,0.177l-0.498,0.312l-0.488,0.358l-0.404,0.335l-0.358,0.345l-0.196,0.093l-0.204,0.009l-0.26,-0.051l-0.261,-0.14l-0.028,-0.07l0.075,-0.186l0.097,-0.112l0.07,-0.176l0.079,-0.382l-0.014,-0.67l-0.111,-0.48v-0.186l0.046,-0.186l0.014,-0.196l0.116,-0.391l0.01,-0.242l-0.186,-0.377l-0.126,-0.107l-0.126,-0.191l-0.12,-0.321l-0.117,-0.088l-0.009,-0.079l0.084,-0.121l-0.019,-0.098l-0.177,-0.128l-0.052,-0.106l0.015,-0.074l0.18,-0.256l0.394,-0.234l0.141,-0.217l0.004,-0.085l-0.043,-0.161l0.017,-0.097l0.123,-0.213l0.005,-0.13l-0.016,-0.075l0.055,-0.058l-0.016,-0.021l-0.095,0.012l-0.049,0.039v0.049l0.035,0.049l-0.021,0.156l-0.119,0.175l0.005,0.237l0.026,0.081l-0.01,0.084l-0.09,0.138l-0.382,0.214l-0.225,0.337l-0.012,0.123l0.061,0.114l0.079,0.096l-0.01,0.091l-0.199,0.16l-0.066,0.086l-0.004,0.121l0.083,0.084l0.07,0.009l0.028,0.038l-0.07,0.139l-0.116,0.005l-0.242,0.093l-0.214,0.186l-0.106,0.028l-0.14,0.079l-0.088,0.098l-0.042,-0.005l-0.075,-0.167l-0.292,-0.312l-0.224,-0.158h-0.148l-0.019,-0.042l0.056,-0.075l0.023,-0.144l-0.032,-0.005l-0.266,0.252l-0.102,0.009l-0.102,-0.042l-0.233,0.019l-0.581,0.284l-0.604,0.363l-1.046,0.349l-0.256,-0.028l-0.293,-0.126l-0.274,-0.237l-0.326,-0.177l-0.26,-0.037l-0.284,0.06l-0.079,0.089l-0.367,0.204l-0.181,0.047l-0.089,-0.047l-0.042,-0.125l-0.055,-0.144l0.027,-0.033l0.093,0.028l0.033,-0.019l-0.042,-0.07v-0.083l0.023,-0.131l-0.102,-0.344l-0.149,-0.214l-0.211,-0.117h-0.182l-0.24,0.088l-0.509,0.265l-0.366,0.248l-0.394,0.373l-0.074,0.007l-0.143,-0.104l-0.094,-0.018l-0.066,-0.066l-0.035,-0.206l-0.16,-0.251v-0.056l0.164,-0.213l0.062,-0.241l0.004,-0.241l-0.049,-0.094l-0.209,-0.129l-0.011,-0.056l0.049,-0.067v-0.199l-0.052,-0.083l-0.046,-0.213l-0.24,-0.115l-0.091,0.02l-0.056,-0.014l-0.028,-0.066l0.018,-0.07l0.185,-0.122l0.069,-0.171l0.05,-0.258l0.044,-0.004l0.13,0.095l0.09,0.098l0.154,0.011l0.097,-0.071l0.042,-0.157l0.039,-0.025l0.069,0.018l-0.078,-0.106l-0.047,0.02l-0.129,0.246l-0.113,0.003l-0.072,-0.076l-0.192,-0.119l-0.094,-0.111l-0.014,-0.234l-0.038,-0.108l-0.129,-0.095l-0.046,-0.097l0.004,-0.175l-0.063,-0.475l-0.146,-0.345l-0.199,-0.185l-0.049,-0.004l-0.028,0.039l-0.125,0.021l-0.021,-0.028l0.048,-0.067l0.074,-0.017l0.045,-0.042l0.028,-0.154l-0.035,-0.073l0.011,-0.084l0.122,-0.153l0.031,-0.217l0.049,-0.178l-0.025,-0.488l-0.129,-0.384l-0.219,-0.262l-0.353,-0.136l-0.24,-0.185l-0.286,-0.126l-0.094,-0.07l-0.042,-0.119l0.028,-0.021l0.108,0.046l0.038,-0.011l-0.028,-0.076l-0.076,-0.06l-0.046,-0.084l0.018,-0.139l0.035,-0.042l0.132,0.01l0.066,-0.059l0.098,-0.024l0.153,-0.133l0.074,-0.14l0.15,-0.143l0.118,-0.272l0.035,-0.576l-0.024,-0.203l0.021,-0.223l0.125,-0.192l0.025,-0.129l-0.025,-0.108l0.007,-0.07l0.084,-0.077l0.014,-0.157l-0.105,-0.342l-0.178,-0.269l-0.258,-0.161l-0.174,0.025l-0.035,-0.028l0.007,-0.049l-0.028,-0.042l-0.087,-0.021l-0.018,-0.045l0.028,-0.066l-0.021,-0.074l-0.104,-0.087l-0.063,0.01l-0.052,-0.031l-0.021,-0.094l0.077,-0.084l0.125,-0.342l-0.035,-0.077l-0.495,-0.202l-0.195,0.007l-0.084,-0.049l-0.125,-0.252l-0.119,-0.014l-0.077,-0.076v-0.182l-0.097,-0.105l-0.084,0.007l-0.063,-0.056l-0.014,-0.363l0.014,-0.069l0.07,-0.021l0.084,-0.07l-0.14,-0.007l-0.086,0.053l-0.021,0.089l0.016,0.228l-0.041,0.119l-0.112,0.048l-0.063,0.126l-0.09,0.014l-0.168,-0.063l-0.028,-0.09l-0.076,-0.042l-0.077,0.007l-0.077,-0.049l-0.077,-0.321l-0.074,-0.107l-0.121,-0.014l-0.118,-0.096l-0.614,-0.133l-0.105,-0.062h-0.111l-0.049,0.09l0.063,0.168l-0.105,0.209l-0.098,0.042l-0.202,-0.069l-0.23,-0.021l-0.37,-0.252l-0.237,-0.391l-0.035,-0.3l0.07,-0.747l0.084,-0.021l0.251,0.258l0.432,0.105l0.126,-0.042l0.146,0.007l0.328,0.259l0.146,0.034l0.279,-0.076l0.224,0.035l0.111,0.069l-0.07,-0.153l-0.265,-0.056l-0.355,0.042l-0.105,-0.091l0.028,-0.098l-0.258,-0.174l-0.286,-0.035l-0.119,-0.112v-0.209l0.098,-0.063l0.154,0.063l0.062,-0.014l-0.139,-0.196l-0.147,-0.042l-0.376,0.126l-0.307,-0.007l-0.154,-0.077l-0.02,-0.139l-0.105,-0.084l-0.098,-0.007l-0.132,0.091l-0.182,-0.021l-0.153,-0.21l-0.084,-0.251l0.014,-0.363l-0.06,-0.333l-0.051,-0.098v-0.214l0.046,-0.018l0.163,0.102l0.204,0.033l-0.051,-0.061l-0.251,-0.126l-0.032,-0.172l-0.13,-0.228l0.013,-0.065l0.075,-0.019l0.065,-0.056l-0.195,0.033l-0.047,0.084l0.07,0.181l-0.037,0.014l-0.205,-0.242l-0.023,-0.163l0.07,-0.121l0.283,-0.153l0.168,-0.01l0.153,0.047l0.214,0.009l0.191,0.126l0.074,0.102l0.079,0.033l-0.112,-0.163l-0.097,-0.056l-0.112,-0.112l0.01,-0.228l0.009,-0.293l-0.075,-0.358l-0.13,-0.14l-0.014,-0.102l0.054,-0.138l0.035,-0.272l0.079,-0.107l0.109,0.007l0.286,0.207l0.379,0.114l0.128,-0.004l-0.419,-0.166l-0.123,-0.042l-0.391,-0.281l-0.137,-0.252l-0.132,-0.15l-0.025,-0.234l-0.076,-0.254l-0.129,-0.171l-0.248,-0.241l-0.404,-0.192l-0.231,-0.07l-0.139,0.01l-0.22,-0.083l-0.01,-0.081l0.087,-0.111l0.091,-0.164l0.003,-0.364l-0.077,-0.181l-0.15,-0.185l-0.007,-0.248l0.112,-0.241l0.007,-0.352l-0.07,-0.311l-0.129,-0.216l-0.136,-0.112l-0.024,-0.098l0.059,-0.133l-0.042,-0.199l-0.111,-0.062l-0.063,-0.116l0.009,-0.083l0.242,-0.201l0.033,-0.093l0.06,-0.032l0.144,0.004l0.233,-0.251l0.148,-0.335l0.019,-0.326l-0.07,-0.246l-0.204,-0.35v-0.083l-0.028,-0.061l-0.103,-0.051l-0.102,-0.284l0.042,-0.06l0.181,0.055l0.131,0.005l0.218,-0.177h0.391l0.213,-0.023l0.173,-0.144l0.209,-0.094l0.088,-0.074l0.088,-0.186l0.089,-0.154l0.26,-0.321l0.116,-0.233l0.098,-0.051l-0.028,-0.023l-0.116,0.056l-0.4,0.544l-0.158,0.321l-0.06,0.061l-0.228,0.07l-0.235,0.17l-0.065,0.004l-0.202,-0.046l-0.277,0.016l-0.095,0.098h-0.033l-0.016,-0.072l0.007,-0.065l0.135,-0.208l0.03,-0.132l0.035,-0.051l0.081,-0.054l0.195,-0.244l0.117,-0.275l0.011,-0.242l-0.074,-0.263l0.016,-0.289l0.063,-0.188l0.232,-0.254l0.303,-0.232l0.457,-0.224l0.242,-0.198l0.216,-0.239l0.093,-0.21l0.019,-0.163l0.137,-0.337l0.165,-0.156l0.075,-0.126l0.011,-0.277l-0.088,-0.228l0.007,-0.1l0.093,-0.086l0.47,-0.019l0.156,-0.037l0.12,-0.143l0.23,-0.081l0.244,-0.015l0.176,0.018l0.151,-0.007l0.05,-0.032l0.127,-0.278l0.186,-0.272l0.024,-0.002l-0.074,0.172v0.112l0.046,0.028l-0.009,0.051l-0.065,0.079l-0.028,0.172l-0.112,0.042l-0.125,-0.014l-0.168,0.042l-0.027,0.084l0.046,0.121l-0.051,0.084l-0.098,0.018l-0.009,0.075l0.051,0.079l0.033,0.293l0.065,0.084l0.093,0.023l0.051,0.14l-0.019,0.107l0.033,0.07l0.335,-0.061l0.069,0.033l0.107,0.004l0.13,0.08l0.005,0.102l-0.098,0.228l-0.014,0.228l-0.041,0.051l-0.01,0.121l0.047,0.112l0.009,0.061l-0.056,0.083l0.033,0.121l0.125,0.033l0.042,0.048l0.021,0.097l0.039,0.025l0.055,-0.007l0.046,0.049l0.052,0.115l0.174,0.15l0.091,0.007l0.052,0.056l0.042,0.157l0.035,0.007l0.031,-0.031l0.053,0.01l0.059,0.126l-0.028,0.052l0.028,0.091l0.063,0.007l0.087,-0.053l0.049,-0.073l0.038,0.011l-0.014,0.097l-0.038,0.07v0.056l0.031,0.045l-0.014,0.098l0.035,0.039l0.073,-0.014l0.251,0.031l0.081,0.017l0.164,-0.055l0.059,0.014l0.104,0.101l0.074,0.024l0.069,0.108l-0.073,0.144l0.004,0.055l0.062,0.084l0.049,0.269l0.067,0.049l0.136,0.007l0.275,0.167l0.052,-0.003l0.046,0.031l0.01,0.234l-0.045,0.06l0.024,0.048l0.115,-0.014l0.063,0.025l0.073,0.087l0.185,0.014l0.185,-0.021l0.157,0.094l0.087,0.014l0.143,0.21l-0.004,0.063l-0.045,0.049l0.021,0.115l0.084,0.017l0.052,-0.045l0.056,0.007l0.056,0.08l0.01,0.157l0.084,0.053l0.01,0.066l-0.024,0.042l0.031,0.042l0.101,0.01l0.032,0.049l-0.046,0.073l0.014,0.116l-0.031,0.111l0.035,0.025l0.132,-0.018l0.042,-0.045l0.049,0.003l0.038,0.06h0.032l0.073,-0.109l0.035,0.007l0.024,0.123l0.101,0.031l0.095,-0.049l0.125,-0.003l0.063,0.066l0.028,0.136l-0.018,0.066l0.025,0.028l0.185,0.025l0.017,0.045l-0.035,0.07l0.077,0.119l0.066,0.007l0.059,0.042l0.028,0.059l0.067,0.014l0.024,0.063l0.08,0.038l0.331,0.042l0.07,0.056h0.077l0.042,0.035l0.045,-0.004l0.045,-0.028l0.081,-0.017l0.007,-0.049l0.048,-0.01l0.077,0.034l0.087,-0.059l0.032,-0.122l0.052,-0.021l0.052,0.028l0.025,0.087l0.136,0.011l0.035,0.045l0.09,-0.007l0.035,-0.105l0.101,-0.118h0.136l0.119,0.059l0.066,-0.07l-0.021,-0.105l0.045,-0.045h0.067l0.031,0.115l0.052,-0.003l0.084,0.08l0.059,-0.035l0.011,-0.094l-0.059,-0.119l0.027,-0.063l0.109,-0.031l0.139,-0.01l0.063,0.034l0.031,-0.003l0.018,-0.087l0.167,-0.14l0.031,-0.15l0.084,-0.143l0.094,-0.007l0.077,0.035l0.408,-0.021l0.091,-0.042l0.195,-0.011l0.185,-0.09l0.118,-0.011l0.049,0.039l0.073,-0.007l0.084,-0.035h0.248l0.104,-0.063l0.189,-0.014l0.205,-0.14l0.07,0.011l0.077,0.059l0.017,0.091l0.032,0.007l0.055,-0.056l0.077,0.01l0.112,0.081l0.237,0.083l0.15,0.018l0.24,0.171l0.154,0.035l0.216,-0.028l0.129,-0.143l0.153,-0.018l0.129,0.102l0.056,0.143l0.021,0.241l0.059,0.066l0.092,-0.006l0.056,-0.136l0.086,-0.037l0.112,-0.006l0.123,-0.155l0.254,-0.099l0.068,-0.099l0.123,-0.019l0.223,0.112l0.074,0.093l0.222,0.012l0.105,-0.074l0.068,0.025l0.025,0.111l0.074,0.031l0.068,-0.044l0.081,0.013l0.043,0.086l0.08,-0.012l0.216,-0.13l0.093,-0.173l0.013,-0.186l0.08,-0.092l0.123,-0.038l0.167,-0.154l0.019,-0.112l0.123,-0.043h0.211l0.049,-0.056h0.068l0.099,0.05l0.204,-0.037l0.469,0.018l0.112,-0.043l0.037,-0.142l-0.062,-0.081l0.006,-0.061l0.105,-0.056l0.062,-0.142l-0.043,-0.137l0.031,-0.061l0.068,-0.025l0.024,-0.081l-0.018,-0.154l0.068,-0.143l0.148,-0.068l0.105,-0.179l0.037,-0.186l0.05,-0.092l-0.019,-0.081l-0.179,-0.055l-0.019,-0.062l0.037,-0.056v-0.13l0.124,-0.099l0.253,-0.012l0.186,-0.124l0.167,-0.167l0.08,-0.031l0.179,0.006l0.42,-0.136l0.112,0.006l0.043,-0.062l-0.012,-0.068l0.055,-0.074l0.118,-0.025l0.136,-0.111l0.21,-0.006l0.191,0.043h0.353l0.191,0.056l0.111,-0.043l0.081,0.018l0.086,0.087h0.13l0.185,-0.081l0.105,0.006l0.05,0.056l0.08,0.006l0.062,-0.031l0.185,0.038l0.044,0.074l0.105,0.037l0.16,-0.019l0.173,-0.148l0.075,-0.13l0.142,-0.025l0.111,0.037l0.074,0.075l0.315,0.037l0.087,-0.075l0.068,-0.006l0.074,0.056l0.198,0.037l0.136,0.062l0.055,0.111l-0.037,0.068l-0.086,0.025l-0.056,0.099l0.031,0.056l-0.025,0.043l-0.074,-0.012l-0.031,0.043l0.043,0.062l-0.074,0.093l-0.265,0.092l-0.05,0.112l-0.012,0.136l0.043,0.049h0.241l0.173,-0.105l0.155,-0.018l0.148,-0.056l0.037,-0.068l0.08,-0.012l0.124,0.148l0.123,0.223l0.143,0.018l0.123,0.05l0.204,-0.025l0.05,-0.062l0.111,-0.006l0.068,0.062l0.21,0.018l0.136,0.05l0.179,0.018l0.204,0.106l0.062,0.074l-0.006,0.105l0.061,0.049h0.118l0.117,0.099l0.062,0.112h0.185l0.093,-0.112l0.124,-0.006l0.148,-0.074l0.216,-0.031l0.124,0.031l0.161,0.093l0.098,0.179v0.087l0.056,0.049l0.124,0.007l0.031,0.074l-0.056,0.074l0.037,0.074h0.223l0.08,-0.093l0.111,-0.055l0.111,-0.149l0.291,-0.068l0.352,-0.179l0.173,-0.198v-0.155l-0.099,-0.055l0.037,-0.062l0.192,-0.081l0.142,-0.018l0.253,-0.143l0.118,-0.006l0.074,-0.055l0.08,-0.143l0.149,-0.049l0.16,0.025l0.297,-0.05l0.074,-0.049l0.26,-0.025l0.08,0.049l0.093,-0.012l0.031,-0.056l0.111,0.013l0.099,0.08l0.012,0.074l0.056,0.037l0.074,-0.006l0.185,0.112v0.068l0.068,0.006l0.068,-0.068l0.062,-0.167l0.105,-0.062l0.142,0.018l0.155,-0.043l0.074,-0.099l0.167,-0.08l0.272,-0.05l0.061,-0.062l0.007,-0.074l0.092,-0.062l0.118,0.044l0.383,0.266l0.16,0.018l0.105,0.081l0.062,0.117l0.161,0.05l0.222,-0.062l0.075,-0.242l0.08,-0.049l0.056,-0.161l-0.087,-0.13l0.043,-0.068l-0.018,-0.105l0.018,-0.062l0.074,-0.018l0.106,-0.081l0.117,-0.006l0.167,-0.124l0.068,-0.13l0.105,-0.043l0.043,-0.223l-0.006,-0.204l0.056,-0.086v-0.087l-0.056,-0.087l0.006,-0.278l-0.093,-0.124l-0.006,-0.08l0.081,-0.037l0.105,-0.106l-0.013,-0.142l0.068,-0.056l0.111,-0.012l0.161,0.118l0.142,0.012l0.006,-0.068l0.105,-0.087l0.025,-0.099l0.068,-0.055l0.149,0.012l0.142,-0.074l0.068,-0.136l-0.161,-0.099l-0.019,-0.18l0.112,-0.117l0.037,-0.149l0.086,-0.092l-0.012,-0.124l-0.167,-0.031l-0.185,0.111h-0.155l-0.08,-0.111v-0.093l0.086,-0.006l0.025,-0.074l-0.093,-0.068l0.007,-0.062l0.074,-0.025l0.038,-0.113v-0.111l-0.139,-0.088l-0.227,-0.005l-0.125,0.046l-0.074,-0.027l0.023,-0.265l0.042,-0.097l0.185,-0.01l0.088,-0.037l0.028,-0.122l0.068,-0.099v-0.117l0.093,-0.044l0.074,0.068l0.142,-0.006l0.161,-0.08l0.25,0.057l0.079,-0.028l0.106,-0.144l0.115,0.009l0.068,-0.043l0.018,-0.062l-0.111,-0.086l-0.019,-0.211l0.075,-0.142l0.086,-0.025l0.117,0.087l0.093,-0.056l0.105,-0.018l0.056,-0.044l0.062,-0.117l0.123,-0.105l0.223,0.012l0.049,-0.043l0.006,-0.105l0.074,-0.106l0.013,-0.074l0.031,-0.043h0.086l0.081,-0.124l0.259,-0.031l0.118,0.068l0.055,-0.006l0.025,-0.056l0.235,-0.154l-0.006,-0.099l0.049,-0.124l-0.049,-0.025l-0.081,0.037l-0.092,-0.055l-0.013,-0.13l-0.191,-0.248l-0.124,-0.074l-0.185,0.068l-0.068,0.093l-0.124,0.019l-0.154,-0.18l0.018,-0.074l0.087,-0.031l0.068,-0.161l-0.044,-0.241l-0.08,-0.056l0.006,-0.124l0.26,-0.179l0.037,-0.08l-0.025,-0.044l0.006,-0.092l0.062,-0.05l0.006,-0.074l-0.074,-0.074l-0.136,0.006l-0.167,-0.099l0.037,-0.062l0.136,-0.043l0.198,-0.242l0.006,-0.204l0.081,-0.148l0.154,-0.05l0.142,-0.13l0.247,-0.093l0.05,-0.191l0.154,-0.174l0.019,-0.129l0.068,-0.031l0.055,0.024l0.056,0.143l0.093,0.062l0.037,0.228l0.111,0.019l0.111,-0.05l0.26,0.025l0.142,-0.21l0.093,-0.043l0.049,-0.095l0.146,-0.004l0.051,0.037l0.098,0.007l0.058,-0.089l0.056,-0.025l0.076,-0.142l-0.03,-0.205l0.028,-0.137l0.077,-0.058l0.046,-0.152l0.103,-0.002l0.079,-0.049l0.018,-0.072l-0.03,-0.081l-0.186,-0.068l-0.079,-0.054l-0.021,-0.176l0.019,-0.049l0.088,-0.017v-0.053l-0.056,-0.051l0.033,-0.231l0.053,-0.044l0.003,-0.035l-0.052,-0.044l0.007,-0.133l0.112,-0.058l0.005,-0.028l-0.021,-0.065l0.004,-0.188l0.07,-0.073l0.007,-0.095l0.128,-0.172l0.012,-0.103l0.039,-0.081h0.056l0.016,0.037l0.028,0.003l0.028,-0.033h0.037l0.075,0.228l0.039,0.023l0.091,-0.053l0.014,-0.061l0.074,-0.067l0.005,-0.035l-0.107,-0.091l-0.077,-0.207l-0.102,-0.154v-0.277l-0.061,-0.165l-0.062,0.014l-0.031,-0.018v-0.045l-0.055,-0.067l-0.017,-0.2l0.021,-0.04v-0.042l-0.053,-0.074l0.007,-0.214l0.058,-0.077l0.009,-0.07l-0.051,-0.105l0.012,-0.044l0.004,-0.144l0.056,-0.056l0.019,-0.072l-0.017,-0.075l0.161,-0.272l0.035,-0.291l-0.01,-0.067l-0.081,-0.01l-0.04,-0.025l-0.011,-0.063l-0.028,-0.012l-0.044,0.031h-0.033l-0.028,-0.096l-0.107,-0.109l0.007,-0.019l0.047,-0.002l0.056,-0.114l0.069,-0.038l0.135,0.031l0.082,-0.003l0.048,-0.039l0.024,-0.058l0.058,-0.049l0.007,-0.068l0.053,-0.083l0.023,-0.305l0.054,-0.07l0.021,-0.121l0.091,-0.168l0.004,-0.232z M1893.989781,723.621372l0.269,0.286l0.44,0.302l0.144,0.065l0.306,0.232l0.12,0.014l0.181,-0.075l0.139,-0.009l0.056,-0.111l-0.009,-0.181l0.018,-0.246l-0.12,-0.227l-0.103,-0.05z"/>
</svg>
