<svg xmlns="http://www.w3.org/2000/svg" viewBox="1872.617 802.379 70.900 21.588">
  <path d="M1937.659095,807.075168l-0.078423,0.014023l-0.023235,0.058404l0.024446,0.040791l0.056749,-0.006017l0.052399,-0.059213l-0.031937,-0.047988Z M1925.781276,806.808326l0.023064,0.046816l0.078419,-0.046816l0.023064,-0.079588l-0.041516,-0.042135l-0.069193,0.02809l-0.013839,0.093633Z M1927.447022,822.818123l0.005327,-0.035723l-0.026154,-0.021412l-0.056724,0.031288l-0.022834,0.038469l0.032016,0.028304l0.068368,-0.040925Z M1935.013064,806.811962l-0.001056,-0.037568l-0.029867,-0.017286l-0.050935,0.042184l-0.015895,0.043503l0.036934,0.023305l0.060818,-0.054138Z M1928.94343,823.349323l0.008318,-0.022542l-0.012382,-0.025526l-0.030722,-0.015476l-0.007893,0.022017l0.013902,0.025394l0.028778,0.016132Z M1924.730285,806.245729l-0.013243,-0.009969l-0.050546,0.00362l-0.008686,0.018558l0.014101,0.007741l0.040864,-0.005353l0.017511,-0.014598Z M1925.524321,807.125451l0.023708,0.006768l0.019228,-0.002689l-0.012134,-0.023822l-0.017059,-0.009266l-0.018225,0.004338l0.004482,0.024671Z M1925.407817,806.942391l-0.007412,0.020523l0.024621,0.005595l0.021425,-0.014193l0.001505,-0.021195l-0.040139,0.00927Z M1928.339704,823.60923l-0.020976,0.0036l0.00745,0.023478l0.022563,0.011274l0.018623,-0.008911l-0.027661,-0.029441Z M1930.938005,819.42444l0.045603,-0.037167l-0.009121,-0.021681l-0.060803,0.012389l-0.024321,0.03407l0.00608,0.027876l0.042562,-0.015486Z M1931.933136,818.946236l0.052308,0.018832l0.02879,-0.032569l-0.01216,-0.063513l-0.040419,-0.007261l-0.029582,0.037144l0.001063,0.047367Z M1938.196862,805.04588l-0.009226,0.05618l0.036903,0.023408l0.059968,-0.023408v-0.042135l-0.041516,-0.023408l-0.046129,0.009363Z M1936.295153,805.499599l0.046129,-0.009363l0.013839,-0.051498l-0.059968,-0.02809l-0.041516,0.02809v0.051498l0.041516,0.009363Z M1929.494828,823.097909l0.0238,0.024746l0.036641,-0.00431l-0.009128,-0.025152l-0.023392,-0.019485l-0.027118,0.001605l-0.000802,0.022596Z M1927.781006,806.972674l0.018727,-0.039939l-0.013007,-0.015005l-0.031044,0.008439l-0.01397,0.03463l0.013251,0.015286l0.026043,-0.003411Z M1939.805329,804.722154l0.038264,-0.000125l0.007832,-0.020667l-0.017231,-0.023847l-0.034462,-0.00318l-0.009779,0.02285l0.015376,0.024969Z M1928.803596,822.172145l0.035367,-0.008577l0.006178,-0.020485l-0.051503,-0.01288l-0.044489,0.01259l0.007434,0.027823l0.047013,0.001529Z M1927.662565,822.441127l-0.104173,-0.004779l-0.055721,0.023473l-0.003977,0.041132l0.042753,0.028751l0.139919,-0.021084l0.01749,-0.034501l-0.036291,-0.032992Z M1929.251225,823.366335l0.021869,-0.009587l0.00729,-0.02157l-0.014579,-0.016776l-0.026729,0.011983l-0.00486,0.019173l0.017009,0.016776Z M1931.295065,805.571725v0.024946l0.022122,0.014967l0.029495,-0.014967l-0.007374,-0.03243l-0.034411,-0.009978l-0.009832,0.017462Z M1928.448617,823.368439l-0.01215,0.020756l0.012864,0.021163l0.025339,-0.004942l0.014254,-0.019557l-0.004447,-0.016369l-0.035861,-0.001049Z M1932.749045,817.891385l0.011618,0.025384l0.02761,0.002335l0.00748,-0.020936l-0.014733,-0.023904l-0.029062,-0.005508l-0.002913,0.02263Z M1933.007536,802.542214l0.083545,-0.063592l-0.013924,-0.070658l-0.076583,-0.028263l-0.062658,0.049461l-0.013924,0.08479l0.083545,0.028263Z M1936.012652,805.43036l-0.013662,-0.065201l-0.041033,-0.030196l-0.029752,0.041644l0.007119,0.062784l0.034491,0.027779l0.042837,-0.036811Z M1938.197184,805.270599l-0.067095,0.06175l0.011801,0.06374l0.074513,0.02417l0.035095,-0.034499l-0.011894,-0.091333l-0.042421,-0.023828Z M1909.768797,809.340723l0.211721,-0.115827l0.231047,-0.039913l0.117982,0.002495l0.093402,0.017462l0.068823,0.052386l0.031953,0.057375l0.149935,0.112256l0.024579,0.044902l0.078654,0.064859l0.164683,0.05987l0.127813,0.009978l0.034411,0.022451l0.061449,0.002495l0.08357,-0.037419h0.066365l0.054075,0.037419h0.049159l0.08357,-0.099783l0.058991,-0.044902l0.10815,-0.024946l0.09586,-0.067354l0.056533,-0.004989l0.081112,0.042408l0.086028,0.002495l0.164683,-0.052386l0.169598,-0.002495l0.149935,0.029935l0.201552,0.007484l0.162225,-0.052386l0.051617,-0.002495l0.098318,0.029935l0.132729,0.004989l0.054075,-0.017462l0.044243,0.002495l0.063907,0.024946l0.09586,0.084816l0.051617,0.127224l0.159767,0.109761l0.09586,0.022451l0.149935,-0.002495l0.054075,0.017462l0.046701,0.069848l0.044243,0.009978h0.061449l0.086028,0.014967l0.090944,0.02744l0.081112,0.002495l0.110608,-0.042408l0.063907,-0.089805l0.01229,-0.144686l0.049159,-0.069848l0.110608,0.002495l0.054075,-0.012473l0.041785,-0.042408l0.081112,-0.007484l0.051617,0.009978l0.061449,0.062364l0.061449,0.202061l0.08357,0.104772l0.056533,0.02744l0.157309,0.144686l0.024579,0.047397l0.20401,0.132213l0.088486,0.024946l0.098318,0.002495l0.056533,0.014967l0.120439,0.062364l0.235963,-0.002495l0.162225,-0.074837l0.09586,-0.077332l0.115524,-0.062364l0.081112,-0.024946l0.09586,-0.039913l0.120439,-0.08731l0.132729,-0.039913l0.088486,-0.039913l0.081112,0.002495l0.031953,0.017462h0.08357l0.046701,-0.017462l0.103234,-0.002495l0.068823,0.019957l0.127813,0.002495l0.08357,-0.022451h0.066365l0.103234,0.08731l0.132729,0.052386l0.132729,-0.002495l0.100776,-0.03243l0.135187,-0.154664l0.029495,-0.062364l-0.002458,-0.197072l-0.024579,-0.079827v-0.067354l0.039327,-0.114751l0.044243,-0.079827l0.046701,-0.007484l0.051617,0.017462l0.130271,0.004989l0.260543,0.049892l0.223673,0.004989l0.28758,0.042408l0.115524,-0.017462l0.081112,-0.054881l0.056533,-0.002495l0.110608,0.039913l0.046701,0.084816l0.086028,0.077332l0.159767,0.044902l0.046701,0.062364l0.007374,0.05987l-0.081112,0.144686l-0.014748,0.122234l0.014748,0.044902l0.081112,0.02744l0.049159,-0.009978l0.093402,-0.122234l0.01229,-0.077332l-0.014748,-0.039913l0.002458,-0.054881l0.046701,-0.054881l0.078654,-0.019957l0.240879,0.099783l0.09586,0.08731l0.186804,0.047397l0.127813,-0.004989l0.056533,-0.02744l0.125355,-0.034924l0.071281,-0.037419l0.044243,-0.05987l0.08357,-0.037419l0.049159,-0.002495l0.049159,-0.02744l0.036869,-0.05987l0.046701,-0.024946l0.132729,-0.034924h0.130271l0.08357,0.022451l0.076196,-0.009978l0.110608,-0.067354l0.46701,-0.177115l0.068823,-0.004989l0.034411,-0.019957l0.031953,-0.069848l0.100776,-0.089805l0.135187,-0.062364l0.019664,-0.057375l0.049159,-0.062364l0.221215,-0.074837l0.314617,-0.004989l0.105692,0.03243l0.029495,0.054881l0.071281,0.039913l0.098318,0.002495l0.051617,-0.03243l0.049159,-0.004989l0.10815,0.009978l0.049159,0.029935l0.132729,0.029935l0.08357,-0.004989l0.100776,-0.054881l0.164683,-0.022451h0.132729l0.142561,0.062364l0.066365,0.007484l0.115524,-0.029935l0.115524,-0.004989l0.073738,-0.014967l0.049159,-0.049892l0.049159,-0.007484l0.066365,0.009978l0.135187,-0.034924l0.098318,-0.072343l0.066365,-0.019957l0.130271,-0.012473l0.17943,-0.114751l0.103234,-0.159653l0.063907,-0.064859l0.113066,-0.014967l0.115524,-0.072343l0.113066,-0.007484l0.034411,-0.012473l0.029495,-0.047397l0.031953,-0.022451l0.081112,-0.009978l0.115524,-0.067354l0.127042,-0.002495l0.191238,0.018783l0.06169,0.050087l0.055521,-0.018783l0.043183,-0.125218l0.135717,-0.037565l0.154224,0.031305l0.351631,-0.118957l0.092535,-0.169044l-0.006169,-0.212871l-0.086366,-0.181566l-0.234421,-0.131479l-0.067859,-0.187827l0.030845,-0.20661l0.067859,-0.050087l0.154224,0.025044l0.215914,0.144001l0.197407,0.006261l0.06169,-0.06887v-0.20661l-0.06169,-0.13774l0.006169,-0.112696l0.209745,-0.288002l0.074028,-0.006261l0.191238,0.125218l0.1789,-0.012522l0.160393,-0.125218l0.104872,-0.112696l-0.006169,-0.187827l-0.043183,-0.062609l-0.104872,-0.031305l-0.104872,-0.150262l0.012338,-0.112696l-0.024676,-0.100174l-0.098704,-0.087653l-0.024676,-0.075131l0.049352,-0.100174v-0.231653l-0.049352,-0.112696l-0.197407,-0.13774l-0.215914,-0.081392l-0.141886,-0.156523l-0.111041,-0.037565l-0.092535,0.025044l-0.123379,0.156523l-0.185069,0.087653l-0.141886,0.018783l-0.043183,0.131479l0.055521,0.112696l-0.018507,0.087653l-0.092535,0.087653l-0.055521,0.150262l-0.148055,0.131479l-0.012338,0.093914l0.277604,0.050087l0.123379,-0.031305l0.104872,-0.169044l0.326955,-0.162783h0.283773l0.080197,0.062609l0.141886,0.043826l0.006169,0.043826l-0.086366,0.031305l-0.1789,0.300523l-0.018507,0.181566l-0.104872,0.081392l-0.388645,0.025044l-0.234421,0.156523l-0.123379,0.269219l-0.067859,0.031305l-0.064774,-0.006261l-0.055521,-0.028174l-0.08945,0.00313l-0.154224,0.097044l-0.08945,0.015652l-0.132633,0.075131h-0.098704l-0.141886,-0.053218l-0.092535,0.025044l-0.021591,0.059479l-0.046267,0.031305l-0.067859,0.00313l-0.064774,0.075131l0.009253,0.075131l-0.024676,0.025044l-0.083281,0.034435l-0.163478,0.20974l-0.095619,0.053218l-0.256012,0.040696l-0.092535,0.103305l-0.003084,0.06887l0.095619,0.100174l0.092535,0.059479l0.024676,0.084522l-0.018507,0.109566l-0.135717,0.194088l-0.06169,0.103305l-0.064774,0.056348l-0.185069,0.040696l-0.459588,0.018783l-0.259097,0.078261l-0.107957,0.103305l-0.111041,0.006261l-0.234421,-0.043826l-0.265266,-0.109566l-0.1789,-0.14087l-0.212829,-0.250436l-0.311533,-0.150262l-0.058605,-0.053218l-0.080197,0.00313l-0.043183,0.028174l-0.015422,0.056348h-0.030845l-0.024676,-0.087653l-0.055521,-0.056348l-0.055521,-0.00313l-0.030845,0.040696h-0.033929l-0.049352,-0.034435l-0.046267,-0.00313l-0.033929,0.025044l-0.086366,-0.006261l-0.049352,-0.053218l-0.018507,-0.13774l0.024676,-0.103305l0.083281,-0.169044l0.003084,-0.075131l-0.040098,-0.021913l-0.080197,0.015652l-0.06169,0.053218l-0.123379,0.012522l-0.074028,0.031305l-0.046267,0.062609h-0.024676l-0.021591,-0.078261l-0.024676,-0.00313l-0.052436,0.090783l-0.049352,0.037565l-0.046267,0.084522l-0.067859,0.046957l-0.286857,0.028174l-0.055521,-0.009391l-0.154224,-0.097044l-0.043183,0.012522l-0.055521,0.087653l-0.154224,0.06887l-0.06169,-0.006261l-0.049352,-0.056348l-0.080197,-0.006261l-0.061931,0.017804l-0.063907,-0.004989l-0.081112,-0.024946l-0.149935,-0.002495l-0.090944,0.037419l-0.06728,0.067989l-0.080197,0.009391l-0.074028,-0.034435l-0.02776,-0.050087l-0.043183,-0.012522l-0.055521,0.018783l-0.06169,-0.021913l-0.015422,-0.037565l0.012338,-0.06887l-0.033929,-0.046957l-0.083281,-0.025044l-0.052436,0.009391l-0.080197,0.106435l-0.024676,0.134609v0.241045l0.033929,0.056348l-0.021591,0.025044l-0.067859,-0.050087l-0.086366,-0.043826l-0.040098,-0.056348h-0.033929l-0.018507,0.059479l0.018507,0.075131l0.064774,0.06887l-0.009253,0.065739l-0.040098,0.028174h-0.126464l-0.074028,0.065739l0.009253,0.050087l-0.021591,0.021913l-0.052436,-0.009391l-0.030845,0.025044l-0.009253,0.065739l-0.055521,0.037565l-0.024676,-0.012522l-0.015422,-0.046957l-0.067859,-0.050087l0.009253,-0.081392l-0.02776,-0.034435l-0.080197,-0.018783l-0.040098,-0.059479l-0.015422,-0.040696l-0.074028,-0.021913l-0.049352,0.009391l-0.11721,0.122088l-0.083281,0.034435l-0.067859,-0.006261l-0.067859,-0.065739l-0.191238,-0.109566l-0.148055,-0.006261l-0.11721,-0.087653l-0.154224,-0.250436l-0.055521,-0.162783l-0.234421,-0.118957l-0.191238,0.012522l-0.141886,-0.031305l-0.129548,-0.13774l-0.092535,-0.025044h-0.154224l-0.148055,-0.075131l-0.234421,-0.031305l-0.234421,-0.081392l-0.191238,0.012522l-0.104872,-0.025044l-0.06169,-0.087653l0.024676,-0.100174l-0.055521,-0.037565l-0.11721,0.018783l-0.111041,-0.006261l-0.006169,-0.050087l0.067859,-0.031305l0.024676,-0.081392l-0.067859,-0.062609l-0.197407,-0.006261l-0.148055,0.075131l-0.166562,0.006261h-0.271435l-0.215914,-0.087653l-0.148055,-0.012522l-0.246759,-0.018783l-0.098704,0.062609l-0.092535,0.006261l-0.11721,-0.112696l-0.074028,-0.025044h-0.123379l-0.092535,-0.062609l-0.135717,-0.212871l-0.215914,-0.156523l-0.160393,-0.050087l-0.024676,0.056348l0.06169,0.081392l-0.012338,0.06887l-0.080197,0.056348l-0.135717,0.031305l-0.104872,-0.025044l-0.111041,-0.118957h-0.111041l-0.135717,0.087653l-0.191238,0.012522l-0.080197,-0.050087l-0.055521,-0.200349l-0.098704,-0.087653l-0.080197,0.012522l-0.049352,0.075131l-0.012338,0.131479l-0.080197,0.062609l-0.191238,0.037565h-0.098704l-0.098704,-0.043826l-0.437997,-0.025044l-0.141886,0.043826l-0.074028,0.093914l-0.141886,0.043826l-0.086366,-0.012522l-0.086366,0.043826l-0.074028,0.219132l-0.080197,0.050087l-0.030845,0.087653l0.006169,0.087653l-0.043183,0.031305l-0.080197,-0.037565l-0.049352,-0.081392l-0.092535,-0.025044l-0.043183,0.037565l-0.018507,0.288002l0.049352,0.093914l-0.043183,0.081392l-0.11721,0.037565l-0.067859,-0.037565l-0.006169,-0.062609l0.037014,-0.043826l-0.006169,-0.081392l-0.06169,-0.125218l-0.111041,-0.056348l-0.123379,0.043826l-0.092535,-0.031305l-0.092535,0.025044l-0.049352,0.144001l-0.055521,0.031305l-0.006169,0.093914l0.055521,0.075131v0.06887l-0.067859,0.087653l-0.055521,0.006261l-0.104872,-0.075131l-0.006169,-0.056348l0.024676,-0.087653l-0.06169,-0.025044l-0.06169,0.075131l-0.024676,0.100174l-0.055521,0.050087l-0.104872,0.012522l-0.129548,0.06887l-0.11721,-0.025044l-0.098704,-0.075131l-0.030845,-0.075131l0.049352,-0.087653l-0.055521,-0.031305l-0.092535,0.043826l-0.012338,0.106435l0.086366,0.106435l0.06169,0.156523l-0.012338,0.131479l-0.104872,0.156523l-0.06169,0.050087l-0.111041,-0.018783l-0.043183,0.043826l0.012338,0.062609l-0.043183,0.043826l-0.092535,0.056348l-0.055521,0.150262l0.043183,0.112696l0.012338,0.181566l-0.018507,0.212871l-0.055521,0.106435l-0.018507,0.237914l0.049352,0.187827l0.018507,0.162783l0.074028,0.144001l0.141886,0.081392l0.104872,0.018783l0.160393,0.100174l0.067859,0.13774v0.112696l0.098704,0.087653h0.06169l0.037014,-0.075131v-0.112696l0.098704,-0.081392l0.339293,-0.012522l0.092535,-0.043826l0.222083,-0.012522l0.222083,-0.043826Z M1929.077672,806.623491l0.067859,0.043826l0.098704,-0.056348l0.191238,-0.012522l0.098704,0.062609l0.104872,0.006261l0.067859,-0.062609l0.185069,-0.018783l0.092535,-0.050087l0.363969,-0.037565l0.191238,0.018783l0.141886,0.056348l0.252928,-0.012522l0.148055,-0.100174l0.049352,-0.118957l-0.012338,-0.400698l0.030845,-0.062609l0.098704,-0.06887l0.067859,-0.106435l-0.043183,-0.050087l-0.154224,-0.075131l-0.1789,-0.012522l-0.1789,-0.100174l-0.11721,-0.006261l-0.055521,0.050087h-0.06169l-0.055521,-0.081392l-0.086366,0.006261l-0.06169,0.06887h-0.154224l-0.074028,-0.031305l-0.074028,0.006261l-0.148055,0.156523l-0.394814,0.20661l-0.203576,0.212871l-0.197407,0.306784l0.012338,0.162783l-0.012338,0.100174Z M1928.355903,808.00089l0.11721,0.025044l0.148055,-0.056348l0.148055,-0.181566l0.037014,-0.156523l0.104872,-0.13774l0.030845,-0.125218l0.283773,-0.231653h0.074028l0.135717,0.075131l0.185069,-0.025044l0.234421,-0.125218l0.215914,-0.037565l0.11721,-0.106435v-0.100174l-0.11721,-0.056348l-0.197407,0.056348h-0.246759l-0.283773,0.043826l-0.104872,0.043826l-0.246759,-0.062609l-0.111041,0.037565l-0.092535,0.106435l-0.037014,0.187827l-0.055521,0.06887l-0.166562,0.043826l-0.1789,0.13774l-0.055521,0.093914l-0.012338,0.162783l-0.074028,0.093914l0.012338,0.087653l0.092535,0.043826l0.043183,0.093914Z M1934.629745,806.698622l0.037014,-0.081392l-0.012338,-0.150262l-0.06169,-0.081392h-0.074028l-0.049352,0.050087l0.006169,0.194088l0.086366,0.075131l0.067859,-0.006261Z M1935.123262,806.441925l0.11721,0.031305l0.086366,-0.037565l0.080197,-0.093914l0.024676,-0.087653l-0.06169,-0.018783l-0.215914,0.06887l-0.067859,0.050087l0.037014,0.087653Z M1931.508246,805.966097l0.074028,-0.050087l0.185069,-0.025044l0.203576,0.050087l0.234421,0.194088l0.012338,0.075131l-0.154224,0.118957l-0.11721,0.050087l-0.154224,-0.031305l-0.111041,0.043826l-0.086366,0.112696l-0.067859,0.025044l-0.135717,0.025044l-0.191238,0.181566l-0.148055,0.256697l-0.376307,0.338089l-0.135717,0.006261l-0.067859,0.056348l-0.012338,0.06887l0.086366,0.050087l0.012338,0.106435l0.06169,0.012522l0.086366,-0.075131l0.166562,0.018783l0.104872,0.031305l0.080197,-0.006261l0.086366,-0.087653l0.074028,-0.012522l0.172731,0.081392l0.067859,0.13774l0.185069,0.093914l0.1789,-0.012522l0.222083,-0.169044l0.067859,-0.131479l0.209745,-0.100174h0.074028l0.074028,0.093914l0.006169,0.112696l0.098704,0.118957l0.172731,0.043826l0.11721,-0.156523l0.080197,-0.031305l0.043183,-0.075131l-0.012338,-0.150262l-0.160393,-0.225393l-0.012338,-0.075131l0.055521,-0.081392l0.092535,-0.043826l0.246759,-0.256697l0.135717,-0.037565l0.104872,0.056348l0.049352,0.093914l0.080197,0.006261l0.154224,-0.162783l0.080197,-0.181566l0.154224,-0.20661l0.043183,-0.13774l0.111041,-0.187827l0.24059,-0.156523l0.104872,-0.012522l0.11721,0.031305l0.135717,0.006261l0.191238,-0.050087l0.320786,-0.118957l0.018507,-0.081392l-0.135717,-0.175305l-0.172731,-0.056348l-0.135717,0.025044l-0.111041,-0.025044l-0.166562,-0.162783l-0.191238,-0.100174l-0.172731,0.018783l-0.092535,0.150262l-0.129548,0.118957l-0.1789,0.012522l-0.030845,0.062609l0.049352,0.062609l-0.012338,0.112696l-0.098704,0.043826l-0.185069,-0.018783l-0.043183,-0.043826l0.043183,-0.112696l-0.055521,-0.075131l-0.154224,-0.012522l-0.11721,0.062609l0.012338,0.087653l0.111041,0.06887l0.037014,0.219132l-0.037014,0.106435l-0.148055,0.118957l-0.043183,-0.031305l0.030845,-0.087653l-0.030845,-0.062609l-0.123379,-0.006261l-0.06169,0.037565l0.018507,0.125218l0.074028,0.075131l0.043183,0.125218l-0.141886,0.144001l-0.172731,0.018783l-0.277604,-0.100174v-0.081392l0.086366,-0.156523l0.135717,-0.118957l0.111041,-0.319306l-0.012338,-0.075131l-0.185069,-0.050087l-0.246759,0.050087l-0.135717,0.175305l-0.129548,0.025044l-0.24059,-0.093914l-0.24059,0.06887l-0.074028,0.156523l-0.067859,0.056348v0.062609l0.067859,0.006261Z M1938.059692,806.097576l0.11721,-0.043826l0.06169,-0.144001l-0.055521,-0.118957l-0.172731,-0.025044l-0.11721,0.06887l-0.024676,0.13774l0.074028,0.118957l0.11721,0.006261Z M1938.534703,805.721921l0.475011,-0.250436l0.104872,-0.093914l0.098704,-0.031305l0.129548,0.087653l-0.006169,0.081392l-0.197407,0.087653l-0.154224,-0.006261l-0.111041,0.031305l-0.283773,0.231653l-0.092535,0.012522l-0.055521,0.043826l-0.030845,0.150262l-0.166562,0.200349l-0.055521,0.112696l-0.185069,0.200349l0.012338,0.175305l0.129548,0.125218l0.11721,-0.012522h0.222083l0.049352,0.037565l-0.043183,0.043826l0.024676,0.050087l0.289942,-0.106435l0.197407,-0.150262l0.135717,-0.018783l0.141886,0.06887l0.037014,0.06887l0.104872,0.025044l0.277604,-0.081392l0.388645,-0.244175l0.123379,-0.018783l0.3578,0.062609l0.475011,-0.018783l0.160393,-0.075131l0.129548,-0.006261l0.314617,-0.144001l0.450335,-0.050087l0.555207,-0.006261l0.098704,0.018783l0.092535,-0.006261l0.092535,-0.087653l0.296111,-0.056348l0.074028,-0.118957l-0.043183,-0.100174v-0.181566l0.067859,-0.169044v-0.175305l-0.203576,-0.306784v-0.06887l-0.080197,-0.131479l-0.092535,-0.037565h-0.339293l-0.154224,0.056348l-0.129548,0.006261l-0.191238,-0.075131l-0.148055,0.006261l-0.098704,0.093914l-0.098704,0.031305l-0.635404,-0.025044l-0.209745,-0.06887l-0.209745,-0.012522l-0.512024,0.056348l-0.265266,0.156523l-0.234421,0.081392l-0.055521,-0.081392l0.018507,-0.225393l0.043183,-0.087653l-0.018507,-0.056348l-0.3578,-0.012522l-0.11721,-0.031305l-0.080197,0.006261l-0.06169,0.050087h-0.111041l-0.148055,0.062609l-0.370138,0.444524l-0.074028,0.187827l0.043183,0.256697l0.092535,0.018783Z M1935.271318,806.967841h0.098704l0.166562,-0.162783l0.141886,-0.075131l0.228252,-0.025044l0.080197,0.050087l0.012338,0.081392l0.037014,0.087653l0.074028,0.050087l0.055521,0.181566l0.006169,0.181566l-0.06169,0.100174l0.006169,0.144001l0.055521,0.037565l0.148055,-0.043826l0.209745,-0.006261l0.148055,-0.043826l0.06169,-0.106435l0.092535,-0.037565l0.074028,-0.100174l-0.018507,-0.075131l0.018507,-0.031305l0.06169,0.012522l0.080197,-0.037565l0.104872,-0.169044l-0.018507,-0.112696l0.012338,-0.150262l0.141886,-0.181566l0.11721,-0.219132l0.191238,-0.144001l0.148055,-0.050087l0.06169,-0.162783l-0.06169,-0.231653l0.043183,-0.150262l0.080197,-0.06887l0.06169,-0.112696l-0.006169,-0.187827l-0.129548,-0.131479l-0.191238,-0.006261l-0.197407,0.125218l-0.129548,0.169044l-0.086366,0.225393l-0.11721,0.131479l-0.104872,0.018783l-0.11721,0.125218l-0.055521,0.181566l-0.154224,0.156523l-0.1789,0.100174l-0.006169,0.075131l0.049352,0.037565v0.075131l-0.043183,0.012522l-0.11721,-0.20661l-0.024676,-0.250436l-0.160393,-0.150262h-0.098704l-0.215914,0.181566l-0.296111,0.144001l-0.086366,0.156523l-0.043183,0.194088l-0.086366,0.150262l-0.11721,0.093914l-0.030845,0.075131l0.086366,0.075131Z M1931.246331,819.573588l-0.048789,-0.006213l-0.067084,-0.121157l-0.018296,-0.124263l0.027444,-0.049705l-0.006099,-0.052812l-0.04269,-0.046599v-0.077665l0.115873,-0.195715l0.067084,-0.040386l0.125021,-0.040386l0.088429,-0.096304l0.17076,-0.338617l0.018296,-0.121157l0.039641,-0.065238l0.143316,-0.040386l0.106725,-0.040386l0.054887,-0.046599h0.045739l0.060986,0.059025l0.057936,0.173969v0.080771l0.024394,0.021746l0.051838,-0.021746l0.036591,-0.043492l0.045739,-0.006213l0.079281,0.065238l0.003049,0.080771l-0.024394,0.037279l-0.100626,0.003107l-0.106725,0.077665l-0.057936,0.031066l-0.048789,0.096304l-0.073183,0.037279l-0.088429,0.074558l-0.067084,0.00932l-0.015246,-0.024853l0.027444,-0.105624l-0.024394,-0.012426l-0.027444,0.012426l-0.036591,-0.003107l-0.045739,-0.034172l-0.027444,0.006213l-0.021345,0.046599v0.083878l0.030493,0.065238l0.103676,0.071451l0.021345,0.093197l-0.027444,0.068345l-0.006099,0.046599l0.045739,0.093197l-0.018296,0.024853l-0.079281,0.00932l-0.039641,-0.027959l-0.021345,0.012426l0.030493,0.077665l0.070134,0.040386l0.009148,0.034172l-0.009148,0.071451l-0.039641,0.049705l-0.08538,0.012426l-0.054887,-0.040386l-0.064035,-0.139796l-0.036591,-0.015533l-0.125021,-0.006213l-0.04269,0.015533l-0.04269,0.086984l-0.024394,0.077665l-0.036591,0.037279Z M1927.022544,822.805317l-0.075327,-0.117435l-0.092336,-0.057519l-0.097196,0.011983l-0.014579,0.02157l0.043738,0.057519l0.072897,0.033553l0.089906,0.079089h0.053458l0.019439,-0.02876Z M1928.691028,823.51618l0.082331,0.009023l0.064035,-0.018045l0.030493,-0.063159l-0.009148,-0.039098l-0.067084,-0.015038l-0.125021,0.039098l-0.018296,0.042106l0.04269,0.045113Z M1929.002056,823.422946l0.048789,0.003008l0.030493,-0.018045l0.003049,-0.051128l-0.033542,-0.015038l-0.057936,0.01203l-0.018296,0.030075l0.027444,0.039098Z M1928.090319,823.850018l0.109774,0.090226l0.067084,0.027068l0.064035,-0.015038l0.009148,-0.033083l-0.04269,-0.132332l-0.054887,-0.063159l-0.106725,-0.009023l-0.060986,0.039098l-0.009148,0.042106l0.024394,0.054136Z M1930.680688,822.362785l0.009148,-0.045113l0.041165,-0.009023l0.02287,-0.036091l-0.013722,-0.040602l0.027444,-0.031579l0.246992,-0.058647l0.068609,-0.045113l0.027444,-0.06767l0.118922,-0.10376l0.032018,-0.06767l0.041165,-0.013534l0.036591,0.036091l0.15094,-0.018045l0.123496,0.036091l0.118922,-0.031579l0.041165,-0.036091l-0.004574,-0.058647l0.041165,-0.058647l0.050313,-0.018045l0.036591,-0.040602l0.004574,-0.216544l-0.064035,-0.076693l-0.096053,-0.009023l-0.068609,-0.058647l-0.077757,-0.009023l-0.054887,0.036091l-0.100626,-0.004511l-0.02287,-0.045113l0.013722,-0.045113l0.123496,-0.06767l0.041165,-0.063159l-0.027444,-0.081204l-0.054887,-0.018045l-0.009148,-0.054136l0.059461,-0.090226l0.064035,-0.018045l0.054887,-0.06767l0.018296,-0.081204l-0.045739,-0.090226l0.02287,-0.063159l0.068609,-0.045113h0.077757l0.041165,-0.022557l-0.077757,-0.036091l-0.02287,-0.054136l-0.164661,-0.139851l-0.045739,-0.009023l-0.018296,0.045113l0.027444,0.108272l-0.054887,0.144362l-0.059461,0.045113h-0.1052l-0.068609,0.027068l-0.068609,0.072181l-0.214975,0.090226l-0.169235,0.045113l-0.109774,0.126317l-0.068609,0.153385l-0.077757,0.058647l-0.009148,0.06767l0.02287,0.049625l0.137218,0.049625l0.054887,0.004511l0.041165,-0.058647l0.160088,-0.081204l0.205827,-0.009023l0.068609,0.018045l-0.009148,0.040602l-0.096053,0.049625l-0.137218,0.018045l-0.091479,0.054136l-0.082331,0.013534l-0.137218,-0.018045h-0.086905l-0.1052,-0.06767l-0.100626,-0.009023l-0.054887,0.049625l0.004574,0.126317l-0.054887,0.090226l-0.164661,0.108272l-0.082331,0.013534l-0.082331,-0.040602h-0.036591l-0.1052,0.148874l-0.091479,0.027068l-0.137218,0.108272l-0.146366,0.20301l-0.086905,0.040602l-0.265288,0.040602l-0.082331,0.045113l-0.214975,0.031579l-0.091479,-0.009023l-0.15094,0.027068l-0.114348,0.054136l-0.210401,0.018045l-0.196679,0.099249l-0.032018,0.063159l-0.054887,0.018045l-0.086905,-0.004511l-0.050313,0.058647l-0.009148,0.085715l0.082331,0.063159l0.064035,0.153385l0.02287,0.248123l-0.054887,0.175942l0.018296,0.108272l0.123496,0.108272l0.068609,0.009023l0.045739,-0.040602l0.018296,-0.06767l0.173809,-0.090226l0.096053,-0.004511l0.059461,0.036091l0.004574,0.040602h0.064035l0.12807,-0.081204l0.118922,0.013534l0.018296,-0.031579l-0.027444,-0.045113l-0.054887,-0.031579l0.018296,-0.081204l0.173809,-0.117294l0.132644,-0.018045l0.096053,0.022557l0.219549,-0.049625l0.109774,0.009023l0.054887,-0.045113l0.050313,0.004511l0.032018,0.036091l0.050313,-0.009023l0.059461,-0.130828l0.173809,-0.126317l0.155514,-0.022557l0.132644,0.045113l0.100626,0.085715l0.064035,-0.009023l0.036591,-0.063159l0.082331,-0.009023l0.073183,0.018045l0.036591,-0.040602l-0.013722,-0.085715l0.027444,-0.072181l0.050313,-0.045113l0.013722,-0.094738l-0.02287,-0.06767Z M1931.578703,820.971793l0.036591,0.051128h0.027444l0.039641,-0.069174l0.073183,-0.048121l0.106725,-0.105264l0.054887,-0.030075l0.057936,-0.054136l0.021345,-0.060151l-0.045739,-0.042106l-0.076232,-0.01203l-0.082331,0.033083l-0.033542,0.045113l-0.036591,0.138347l-0.070134,0.090226l-0.045739,0.021053l-0.027444,0.042106Z M1910.514065,819.371457l0.011279,-0.03809l0.135629,-0.04608l0.04771,0.021626l0.003363,0.042433l-0.051327,0.033647l-0.104626,0.013533l-0.042028,-0.027069Z M1910.390025,819.340114l0.004916,-0.019753l0.027037,-0.012345l0.014748,0.017284l-0.007374,0.022222l-0.022122,0.009876l-0.017206,-0.017284Z M1910.126596,819.481971l-0.043598,-0.00143l-0.021982,-0.035356l0.029122,-0.023158l0.071472,0.003221l0.003757,0.032128l-0.03877,0.024595Z M1919.367714,821.514673l-0.006169,-0.049575l0.185069,-0.17971l0.111041,-0.030985l0.209745,0.043378l0.1789,-0.024788l0.049352,0.037181l-0.06169,0.099151l-0.314617,0.117741h-0.172731l-0.086366,-0.012394h-0.092535Z M1920.632352,820.956951l0.277604,-0.123938l0.172731,-0.123938l0.080197,-0.049575l0.185069,-0.049575l0.049352,-0.055772l0.06169,-0.185907v-0.099151l0.030845,-0.074363l0.215914,-0.142529l0.141886,-0.024788l0.160393,0.018591l0.271435,0.142529l0.06169,0.006197l0.043183,-0.030985l0.06169,0.012394l0.067859,0.099151l0.006169,0.123938l-0.074028,0.117741l-0.024676,0.167317l0.043183,0.061969l-0.012338,0.074363l-0.067859,0.092954l-0.172731,0.037181l-0.24059,0.148726l-0.259097,0.235483l-0.141886,0.074363l-0.166562,0.012394l-0.209745,-0.105347l-0.209745,-0.006197l-0.092535,0.037181l-0.080197,-0.006197l-0.098704,-0.092954l-0.277604,-0.099151v-0.055772l0.197407,-0.136332Z M1914.875161,817.358095l0.032387,0.14098l-0.037014,0.334633l-0.086366,0.148726l-0.1789,0.142529l-0.166562,0.055772l-0.141886,0.136332l-0.055521,0.148726l-0.123379,0.105347l-0.148055,0.055772l-0.092535,0.117741l-0.1789,0.043378l-0.148055,-0.006197l-0.067859,0.037181l-0.06169,0.086757l-0.148055,0.018591l-0.222083,-0.08056l-0.185069,-0.006197l-0.166562,0.099151l-0.111041,0.037181l-0.080197,0.043378l-0.055521,0.16112v0.08056l-0.111041,0.074363l-0.092535,-0.012394l-0.345462,-0.254073l-0.228252,-0.123938l-0.104872,-0.018591l-0.209745,0.006197l-0.055521,0.024788h-0.06169l-0.123379,-0.055772l-0.215914,-0.006197l-0.080197,0.024788h-0.11721l-0.154224,-0.136332l-0.055521,0.006197l-0.053978,0.043378h-0.041641l-0.069401,-0.065068l-0.180442,-0.257172l-0.138802,-0.086757h-0.111041l-0.02776,-0.027886l-0.032387,-0.097601l-0.22671,-0.22154l-0.11721,-0.024788l-0.077112,0.004648l-0.037014,-0.032534l0.015422,-0.089855l0.055521,-0.049575l0.006169,-0.074363l-0.160393,-0.254073l-0.024676,-0.099151l-0.123379,-0.116192l-0.124922,-0.069715l-0.032387,-0.055772l0.023134,-0.116192l-0.046267,-0.032534l-0.111041,0.027886l-0.120295,-0.037181l-0.026218,-0.114643l-0.055521,-0.030985l-0.098704,0.018591l-0.06169,-0.061969l-0.012338,-0.105347l-0.080197,-0.043378l-0.129548,0.018591l-0.092535,-0.018591l-0.081739,-0.043378h-0.078654l-0.050894,0.023238l-0.055521,-0.013943l-0.060147,-0.055772l-0.032387,-0.069715l-0.124922,-0.12084l-0.138802,-0.074363l-0.129548,-0.027886l-0.050894,-0.051125l-0.02776,-0.079011l-0.032387,-0.018591l-0.055521,-0.004648l-0.055521,-0.065068l0.01388,-0.046477l0.055521,-0.041829l-0.009253,-0.083658l-0.074028,-0.032534l-0.01388,-0.046477l0.009253,-0.051125l-0.041641,-0.051125l-0.078654,-0.018591l-0.050894,0.027886l-0.009253,0.051125l-0.115668,0.065068l-0.064774,-0.013943l-0.032387,-0.032534l0.01388,-0.051125l0.069401,-0.06042v-0.041829l-0.050894,-0.023238l-0.064774,0.023238l-0.018507,0.046477l-0.092535,-0.009295l-0.087908,-0.069715l-0.148055,-0.018591l-0.046267,-0.046477l-0.055521,0.004648l-0.055521,0.046477h-0.083281l-0.189696,-0.065068l-0.129548,-0.079011h-0.097161l-0.037014,0.051125l-0.055521,0.041829l-0.101788,0.009295l-0.083281,0.074363l-0.01388,0.097601l-0.060147,0.074363l-0.074028,0.018591l-0.069401,-0.027886l-0.050894,-0.097601l-0.097161,-0.083658l-0.111041,-0.037181l-0.078654,0.041829l-0.083281,-0.023238l-0.069401,-0.065068l-0.009253,-0.032534l-0.087908,-0.018591h-0.305364l-0.175816,-0.032534l-0.138802,0.027886l-0.053978,0.048026l-0.024676,0.044928l-0.021591,-0.004648l-0.003084,-0.04028l-0.02776,-0.043378l-0.107957,-0.055772l-0.154224,-0.055772l-0.106415,-0.009295l-0.050894,-0.015492l-0.037014,-0.055772l-0.030845,-0.021689l-0.092535,-0.009295l-0.168104,-0.088306l-0.111041,-0.037181l-0.134175,-0.116192l-0.143429,-0.274213l-0.138802,-0.190555l-0.078654,-0.079011l-0.277604,-0.223089l-0.01388,-0.088306l0.083281,-0.237032l0.13726,-0.202949l0.175816,-0.173514l0.314617,-0.185907l0.132633,-0.04028l0.126464,-0.012394l0.037014,-0.021689h0.052436l0.037014,0.018591l0.037592,-0.002179l0.081112,-0.076542l0.257603,-0.169156l0.169647,-0.055772l0.101788,0.003098l0.11721,0.065068l0.077112,0.012394l0.175816,-0.099151l0.087918,-0.029439l0.078644,-0.001546l0.120295,-0.065068l0.077112,0.006197l0.148055,0.08056l0.163478,0.04028l0.123379,0.009295l0.138802,0.021689h0.037014l0.030845,-0.024788l0.040098,-0.024788l0.107957,0.003098l0.049352,-0.015492l0.067859,-0.058871l0.154224,-0.043378l0.080197,0.009295l0.243674,0.114643l0.144971,0.006197l0.114126,-0.049575l0.15114,-0.108446l0.11721,-0.049575l0.141886,-0.006197l0.083281,0.003098l0.120295,0.061969l0.052436,0.068166l0.194323,0.111544l0.246759,0.049575h0.191238l0.030845,-0.015492l0.040098,0.006197l0.092535,0.065068l0.120295,0.018591l0.08945,-0.043378l0.271435,-0.285058l0.191238,-0.105347l0.154224,-0.142529l0.144971,-0.204498l0.077112,-0.030985l0.033929,0.030985l0.012338,0.111544l0.08945,0.145627l0.175816,0.154923l0.06169,0.086757l0.052436,0.114643l0.107957,0.089855l0.067859,0.034083l0.080197,0.083658l0.021591,0.096052l0.098704,0.136332l0.067859,0.043378l0.043183,0.052674l0.018507,0.055772l0.111041,0.086757l0.143429,0.037181h0.148055l0.198949,-0.097601l0.097161,0.004648l0.055521,0.032534l0.046267,0.083658l0.074028,0.051125l0.106415,0.246327l0.01388,0.390405l0.074028,0.250975l0.037014,0.051125v0.046477l0.032387,0.013943l0.106415,-0.018591l0.161935,0.013943l0.050894,0.037181l0.060147,0.106897l0.074028,0.032534l0.124922,-0.018591l0.074028,-0.102249l0.120295,-0.041829l0.097161,0.032534l0.032387,-0.023238v-0.046477l0.032387,-0.023238l0.097161,-0.004648l0.194323,-0.037181l0.143429,-0.083658l0.069401,0.009295l0.069401,0.065068l0.134175,0.343929l0.069401,0.06042l0.092535,0.027886l0.092535,-0.004648l0.194323,0.092954l0.055521,0.069715v0.051125l0.041641,0.041829l0.078654,0.018591l0.02776,0.032534l0.041641,0.213793l0.041641,0.069715l0.078654,0.055772l0.037014,0.074363l0.02776,0.204498l0.157309,0.223089l0.106415,0.24168l0.046267,0.032534l0.092535,0.027886l0.222083,0.111544l0.138802,0.018591l0.217456,0.144078l0.198949,0.190555l0.069401,0.106897l0.041641,0.102249l0.078654,0.079011Z M1923.369134,804.67385l-0.021383,0.038688l-0.06556,0.018071l-0.068611,-0.01633l-0.000146,-0.037919l0.034103,-0.019018l0.101647,-0.008445l0.019949,0.024953Z M1924.318312,806.354273l-0.015422,-0.021913l0.030845,-0.053218l0.095619,-0.015652l0.077112,-0.053218l0.049352,0.00313l0.021591,0.043826l-0.052436,0.087653l-0.058605,0.00313l-0.080197,-0.015652l-0.067859,0.021913Z M1925.271418,807.068016v-0.031305l0.098704,-0.037565l0.067859,-0.00313l0.043183,0.043826l-0.015422,0.034435l-0.107957,0.015652l-0.086366,-0.021913Z M1924.861181,807.199495l-0.144971,-0.125218l-0.046267,-0.097044l0.012338,-0.178436l0.06169,-0.034435l0.20666,0.015652l0.111041,0.028174l0.064774,0.050087l0.046267,0.012522l0.046267,-0.021913l0.02776,0.018783l0.003084,0.028174l-0.033929,0.025044l-0.021591,0.050087l0.006169,0.072l-0.021591,0.053218l-0.06169,0.025044l-0.083281,0.103305l-0.095619,0.006261l-0.077112,-0.031305Z M1920.487382,806.238446l-0.120295,-0.098609l-0.01388,-0.117392l0.101788,-0.136175l0.138802,-0.023478l0.115668,0.03287l0.083281,0.150262l-0.009253,0.117392l-0.138802,0.084522l-0.157309,-0.009391Z M1903.043885,807.819967l-0.037007,-0.069389l0.013878,-0.055511l0.046259,-0.009252l0.046259,0.041633l-0.013878,0.078641l-0.055511,0.013878Z M1904.267754,808.533351l-0.056993,0.03197l-0.063772,-0.041991l-0.005883,-0.086645l0.043062,-0.057697l0.063779,-0.011246l0.027862,0.051455l-0.008055,0.114155Z M1903.995945,807.775096l0.03508,0.001129l0.021914,0.050555l-0.025881,0.040044l-0.027989,-0.008046l-0.012341,-0.045096l0.009217,-0.038586Z M1906.89313,807.338784l0.019664,-0.022451l0.02395,-0.000223l-0.004286,0.035148l-0.020316,0.021032h-0.024602l0.005591,-0.033505Z M1907.906091,807.389953l0.033607,-0.009139l0.027493,0.018794l-0.006233,0.030914l-0.042119,0.011285l-0.019129,-0.018369l0.006381,-0.033484Z M1909.457689,806.379601l-0.032616,-0.03945l0.014012,-0.048602l0.063728,-0.017603l0.022015,0.048478l-0.029407,0.037266l-0.037733,0.019911Z M1907.22661,807.638087l-0.015665,-0.012718l0.007832,-0.036566l0.029128,-0.013782l0.015376,0.012484l-0.011609,0.042632l-0.025063,0.007949Z M1907.996604,806.552992l0.009779,-0.02285l0.034462,0.00318l0.017231,0.023847l-0.007832,0.020667l-0.038264,0.000125l-0.015376,-0.024969Z M1907.432943,807.354726l-0.022322,-0.038138l0.01736,-0.066658l0.04824,-0.052139l0.03243,0.018831l-0.000824,0.039483l-0.043618,0.093564l-0.031267,0.005057Z M1907.404102,807.756048l0.00868,-0.033329l0.043092,-0.010653l0.054906,0.020282l0.010762,0.033868l-0.035474,0.016789l-0.081966,-0.026956Z M1910.081716,806.214903l0.018507,-0.050087l0.074028,-0.006261l0.06169,0.031305l0.006169,0.050087l-0.080197,0.012522l-0.080197,-0.037565Z M1902.987169,805.712352l-0.185592,-0.111355l-0.064957,-0.278388l0.064957,-0.287668l0.259829,-0.176312h0.296947l0.185592,0.204151l0.00928,0.22271l-0.102076,0.24127l-0.259829,0.157753l-0.204151,0.027839Z M1904.654721,807.008537h-0.064774l-0.083281,-0.159653l-0.02776,-0.262958l0.064774,-0.037565l0.064774,0.112696l0.101788,0.009391l0.101788,-0.037565l0.120295,0.037565l0.037014,0.131479l-0.055521,0.075131l-0.157309,0.018783l-0.101788,0.112696Z M1908.319089,806.560882l-0.06169,-0.075131l0.030845,-0.043826l0.129548,0.012522l0.067859,0.056348l-0.006169,0.050087l-0.049352,0.037565l-0.111041,-0.037565Z M1907.874923,809.434637l-0.049352,-0.075131l0.06169,-0.075131l0.067859,-0.018783l0.06169,0.050087l-0.006169,0.093914l-0.049352,0.043826l-0.086366,-0.018783Z M1905.610911,808.965069l0.024676,0.056348l-0.037014,0.050087l-0.043183,-0.012522l-0.018507,-0.075131l0.024676,-0.043826l0.049352,0.025044Z M1906.383575,807.077407l0.06169,-0.087653l0.06169,-0.006261l0.012338,0.043826l-0.037014,0.056348l-0.055521,0.025044l-0.043183,-0.031305Z M1906.513123,806.902102l0.06169,-0.043826l0.074028,0.018783l0.006169,0.062609l-0.06169,0.018783l-0.067859,-0.012522l-0.012338,-0.043826Z M1906.511581,808.326457l-0.012338,-0.050087l0.030845,-0.062609l0.092535,-0.043826l0.092535,0.006261l0.012338,0.081392l-0.067859,0.106435l-0.055521,0.012522l-0.037014,-0.050087h-0.055521Z M1907.079126,807.493757l0.049352,0.031305l-0.049352,0.06887l0.018507,0.112696l-0.043183,-0.006261l-0.030845,-0.087653v-0.093914l0.055521,-0.025044Z M1906.314174,808.476719l-0.024676,-0.056348l0.018507,-0.043826l0.141886,-0.018783l0.024676,0.037565l-0.043183,0.031305l-0.030845,0.050087h-0.086366Z M1906.912564,809.284375l0.086366,-0.056348l0.055521,0.006261l0.080197,0.06887l-0.006169,0.056348l-0.086366,0.012522l-0.098704,-0.043826l-0.030845,-0.043826Z M1905.277787,808.846112l-0.043183,-0.031305l0.024676,-0.200349l0.111041,-0.075131l0.043183,-0.093914l0.018507,-0.212871l-0.092535,-0.125218l-0.086366,-0.050087l-0.018507,-0.081392l0.018507,-0.250436l0.055521,-0.050087l0.129548,-0.031305l0.086366,-0.081392l0.06169,-0.156523l-0.012338,-0.056348l-0.06169,-0.037565l0.012338,-0.056348l0.104872,-0.062609v-0.056348l-0.11721,-0.175305l0.024676,-0.062609l0.067859,-0.006261l0.067859,0.031305l0.043183,-0.018783l0.024676,-0.100174l0.049352,-0.006261l0.037014,0.06887v0.13774l0.074028,0.131479l0.148055,0.062609l0.135717,-0.012522l0.197407,0.018783l0.06169,-0.037565l0.055521,0.018783l0.024676,0.181566l-0.018507,0.056348l-0.043183,0.018783l-0.043183,-0.075131l-0.030845,0.018783l0.049352,0.281741l0.012338,0.156523l0.055521,0.06887l-0.037014,0.043826l-0.215914,0.018783l-0.080197,-0.031305l-0.012338,-0.062609l0.037014,-0.056348l-0.06169,-0.056348l-0.086366,-0.018783l-0.049352,0.037565v0.087653l-0.086366,0.112696l-0.11721,0.018783l-0.024676,0.062609l0.030845,0.075131l0.080197,-0.006261l0.055521,-0.075131h0.049352l-0.024676,0.081392l-0.086366,0.118957l-0.129548,0.043826l-0.123379,0.131479l0.006169,0.087653l0.067859,0.13774l0.012338,0.131479l0.049352,0.100174l-0.043183,0.043826l-0.111041,-0.025044l-0.11721,-0.093914l-0.11721,-0.012522l-0.092535,0.056348Z M1911.021098,809.971509l0.004627,-0.065739l0.111041,-0.150262l0.092535,-0.004696l0.101788,0.075131l0.01388,0.098609l-0.055521,0.084522l-0.101788,0.042261l-0.097161,-0.014087l-0.069401,-0.065739Z M1919.26901,809.772726l0.030845,-0.106435l0.030845,-0.050087l0.049352,0.018783v0.118957l0.030845,0.056348l-0.012338,0.100174l-0.067859,0.075131l-0.067859,-0.006261l-0.055521,-0.087653l0.012338,-0.06887l0.049352,-0.050087Z M1906.783015,809.121592v-0.122088l-0.037014,-0.065739l0.032387,-0.070435l0.083281,-0.009391l0.01388,-0.03287l-0.050894,-0.065739v-0.122088l0.050894,-0.028174h0.055521l0.046267,0.023478l0.064774,-0.014087l0.037014,-0.03287l-0.018507,-0.079827l-0.046267,-0.03287l-0.078654,0.03287l-0.050894,-0.004696v-0.046957l0.046267,-0.051652l0.02776,-0.079827l-0.018507,-0.093914l-0.069401,-0.061044l-0.064774,-0.079827l-0.018507,-0.089218l0.046267,-0.037565h0.078654l0.060147,0.037565l0.106415,0.018783l0.041641,0.079827l-0.046267,0.192523l0.032387,0.103305l0.097161,0.051652l0.175816,-0.046957l0.023134,-0.056348l-0.046267,-0.070435l-0.087908,-0.065739l0.01388,-0.028174l0.129548,0.056348l0.041641,-0.014087l0.02776,-0.136175l0.037014,-0.028174l0.083281,0.028174l0.055521,-0.004696l0.069401,-0.046957l0.111041,-0.004696l0.152682,0.028174l0.032387,0.070435l-0.069401,0.126783l-0.064774,0.065739l-0.083281,-0.004696l-0.097161,0.089218l-0.074028,0.150262l-0.074028,0.028174l-0.083281,-0.065739l-0.041641,-0.009391l-0.124922,0.225393l0.018507,0.061044l0.194323,0.117392l0.018507,0.122088l-0.078654,0.159653l-0.198949,0.14087l-0.055521,-0.004696l-0.032387,-0.14087l-0.106415,-0.065739l-0.087908,0.004696l-0.134175,0.084522l-0.046267,-0.004696l-0.018507,-0.079827Z M1887.804561,806.132812l0.030345,0.089242l-0.053909,-0.002417l-0.101537,-0.047442l-0.064101,-0.09874l0.056805,-0.020703l0.132398,0.080061Z M1894.525788,804.752977l-0.076943,-0.016253l-0.033603,-0.046313l0.022648,-0.041384l0.061628,-0.008675l0.051322,0.06118l-0.025051,0.051444Z M1894.713047,807.665077l0.008971,-0.042681l0.045845,0.000277l0.056638,0.033742l-0.005807,0.033987l-0.03452,0.013691l-0.071128,-0.039016Z M1883.337522,806.267297l0.024672,0.024672l-0.002297,0.033162l-0.029579,0.00986l-0.030776,-0.031004l0.006127,-0.025688l0.031853,-0.011001Z M1888.546576,807.316382l0.036785,0.00407l0.008546,0.044876l-0.045302,0.039813l-0.037832,-0.012302l-0.008467,-0.040459l0.046271,-0.035998Z M1897.553813,808.252061l-0.008263,0.041657l-0.041294,0.007811l-0.025646,-0.029239l-0.003645,-0.041659l0.032234,-0.015413l0.046614,0.036844Z M1883.229599,806.354036l-0.050112,-0.008836l-0.020104,-0.045821l0.037777,-0.054404l0.047702,0.022503l0.001078,0.047163l-0.016341,0.039394Z M1883.493246,806.332876l0.023938,0.005737l0.002907,0.03458l-0.020205,0.021109l-0.021475,-0.004189l-0.006785,-0.037768l0.021619,-0.01947Z M1894.939553,807.68677l0.026053,-0.018653l0.037479,0.010256l0.020601,0.043667l-0.023868,0.013611l-0.043192,-0.024711l-0.017073,-0.024171Z M1887.882817,806.83903l-0.026439,-0.018102l-0.003181,-0.038726l0.033988,-0.034294l0.020954,0.017773l-0.008448,0.049039l-0.016873,0.024311Z M1888.770401,807.298952l-0.018102,0.026439l-0.038726,0.003181l-0.034293,-0.033988l0.017773,-0.020953l0.049039,0.008449l0.024311,0.016873Z M1889.999718,806.49061l0.002465,-0.022184l0.034509,-0.012324l0.029579,0.002465l0.032044,0.017254l-0.014789,0.022184l-0.049298,0.007395l-0.034509,-0.014789Z M1882.21415,808.85064l0.018538,0.022106l0.003381,0.038116l-0.016001,0.013693l-0.018751,-0.029898l-0.000009,-0.028851l0.012842,-0.015166Z M1888.111568,807.492524l0.033196,0.045125l-0.049432,0.099974l-0.058933,0.034025l-0.025574,-0.056669l0.044903,-0.083072l0.05584,-0.039383Z M1895.051949,807.948147l-0.023114,-0.037623l0.014509,-0.060737l0.042111,-0.028463l0.028463,0.042111l-0.009161,0.065225l-0.052808,0.019487Z M1893.828554,806.886039l-0.001206,-0.04414l0.042934,-0.045346l0.0507,-0.003594l0.003594,0.0507l-0.040546,0.051906l-0.055476,-0.009527Z M1887.599881,806.014641l-0.063581,-0.017037l-0.045298,-0.05984l-0.006069,-0.066365l0.028216,-0.016291l0.075218,0.037191l0.043137,0.093334l-0.031624,0.029007Z M1891.874847,804.937506l0.125275,-0.00928l0.106715,-0.078877l0.125275,-0.023199l0.102076,0.032479l-0.00464,0.037118l-0.162393,0.037118l-0.120635,0.102076h-0.088156l-0.092796,-0.046398l0.00928,-0.051038Z M1889.834882,806.485652l0.049491,0.049491l-0.055678,0.129914l-0.129914,0.080423l-0.160846,0.037118l-0.024746,0.049491h-0.074237l-0.024746,-0.092796l0.043305,-0.061864h0.06805l0.049491,0.018559l0.098982,-0.030932l0.098982,-0.15466l0.061864,-0.024746Z M1888.572856,806.974378l-0.055678,-0.043305l0.080423,-0.06805l0.321693,-0.012373l0.191778,-0.092796h0.15466l0.043305,0.055678l-0.061864,0.074237l-0.167033,0.037118l-0.136101,0.061864l-0.092796,0.006186l-0.074237,-0.043305l-0.105169,0.006186l-0.098982,0.018559Z M1879.194274,808.598308l0.00928,-0.083516l0.064957,-0.092796l0.102076,-0.037118l0.092796,0.064957l-0.074237,0.148474l-0.129914,0.074237l-0.064957,-0.074237Z M1879.491221,808.589028l0.185592,-0.148474l0.380464,0.018559l0.148474,0.055678l0.055678,0.148474l0.250549,0.352625l-0.00928,0.111355l-0.102076,0.064957l-0.055678,0.129914l-0.102076,0.064957l-0.352625,-0.102076l-0.482539,-0.361904l-0.046398,-0.139194l0.129914,-0.194872Z M1882.491625,809.028263l-0.098982,-0.074237v-0.111355l0.043305,-0.018559l0.043305,0.024746l0.012373,0.08661l0.037118,0.080423l-0.037118,0.012373Z M1892.696092,806.361924l-0.00928,-0.148474l0.185592,-0.194872l0.027839,-0.204151l-0.111355,-0.120635l-0.064957,-0.315506l0.064957,-0.204151l0.371184,-0.22271h0.22271l0.204151,0.055678l0.352625,-0.018559l0.129914,0.083516v0.148474l-0.204151,0.148474l-0.213431,0.129914l-0.102076,0.24127l-0.111355,0.111355l-0.139194,0.426862l-0.194872,0.24127l-0.120635,0.00928l-0.120635,-0.102076l-0.167033,-0.064957Z M1893.856042,806.983658l0.051038,-0.00464l0.078877,0.092796l0.041758,0.190232l-0.046398,0.125275l-0.139194,0.069597l-0.060317,-0.041758l-0.00464,-0.111355l0.060317,-0.190232l0.018559,-0.129914Z M1894.204027,807.289884l0.00464,-0.060317l0.051038,-0.064957l0.064957,-0.018559l0.060317,0.041758l0.051038,0.134554v0.102076l0.092796,0.153113l0.102076,0.064957v0.055678l-0.064957,0.046398l-0.088156,-0.013919l-0.102076,-0.115995l-0.120635,-0.092796l-0.00928,-0.102076l0.018559,-0.060317l-0.060317,-0.069597Z M1896.089333,808.446741l0.017013,-0.080423l-0.027839,-0.041758l-0.143834,0.083516l-0.051038,-0.027839l0.026292,-0.063411l0.06805,-0.074237l-0.012373,-0.06805l-0.08661,-0.055678l-0.012373,-0.061864l0.043305,-0.030932l0.123728,0.030932l0.07733,0.091249l0.069597,0.013919l0.013919,0.046398l-0.027839,0.078877l0.013919,0.167033l-0.066504,0.085063l-0.049491,0.012373l-0.037118,-0.037118l0.061864,-0.06805Z M1895.948592,806.955819l-0.120635,-0.069597l-0.171673,-0.041758l-0.102076,-0.069597l-0.148474,-0.134554l-0.264469,-0.176312l-0.111355,-0.018559l-0.074237,-0.051038l-0.032479,-0.097436l-0.22271,-0.22271l-0.083516,-0.171673l-0.115995,-0.074237l-0.064957,-0.00928l-0.037118,-0.027839l-0.00928,-0.069597l-0.083516,-0.092796l-0.120635,-0.032479l-0.051038,-0.041758l0.00464,-0.046398l0.102076,-0.064957l0.00464,-0.190232l0.060317,-0.255189l0.041758,-0.051038h0.051038l0.037118,0.037118h0.083516l0.097436,-0.074237l0.097436,-0.106715l0.097436,-0.00464l0.083516,0.023199l0.111355,0.00464l0.088156,-0.027839l0.129914,-0.111355l0.134554,-0.055678l0.143834,-0.027839l0.097436,-0.074237l0.078877,-0.018559l0.088156,0.013919l0.064957,0.115995l0.069597,0.041758l0.148474,-0.00928l0.120635,-0.060317h0.083516l0.157753,0.064957l0.171673,0.00464l0.078877,-0.023199l0.060317,0.00928l0.078877,0.074237l0.245909,0.097436l0.083516,0.074237l0.013919,0.352625l0.051038,0.120635l0.013919,0.129914l0.111355,0.148474l0.037118,0.092796l0.041758,0.023199h0.102076l0.088156,0.092796l0.037118,0.204151l0.143834,0.180952l0.064957,0.023199l0.032479,-0.064957l0.060317,-0.00928l0.037118,0.023199l-0.00928,0.102076l0.088156,0.074237l0.194872,0.032479l0.097436,-0.032479l0.041758,-0.092796l0.083516,-0.074237l0.23663,-0.064957l0.046398,-0.051038l0.00464,-0.078877l0.097436,-0.143834l0.143834,-0.046398l0.221164,-0.267562h0.204151l0.148474,0.111355l0.476353,0.049491l0.37737,0.167033l0.259829,0.334066l0.049491,0.272202l-0.049491,0.507285l-0.142287,0.185592l-0.024746,0.117542l0.018559,0.148474l-0.055678,0.098982l0.049491,-0.006186l0.08661,-0.080423l-0.006186,-0.08661l0.049491,-0.037118l0.098982,0.006186l0.074237,-0.105169l0.012373,-0.167033l0.055678,-0.136101l0.006186,-0.117542l-0.08661,-0.142287v-0.185592l0.123728,-0.148474l-0.006186,-0.074237l0.055678,-0.074237h0.080423l0.06805,-0.055678l0.012373,-0.08661l0.092796,-0.098982l0.117542,-0.037118l0.142287,-0.092796l0.160846,-0.012373l0.22271,0.030932l0.197965,-0.006186l0.321693,0.06805l0.129914,0.049491h0.105169l0.080423,0.055678v0.074237l-0.043305,0.160846l0.018559,0.228897l0.173219,0.197965l0.061864,0.08661l0.006186,0.080423l0.148474,0.111355v0.055678l-0.074237,0.024746l-0.006186,0.061864l0.043305,0.055678l-0.012373,0.098982l0.024746,0.08661l-0.006186,0.055678l-0.148474,0.055678l-0.049491,0.08661l0.012373,0.235083l0.111355,0.098982l0.012373,0.092796l-0.018559,0.123728l0.024746,0.129914l0.105169,0.074237l0.179406,-0.006186l0.160846,-0.123728l0.129914,-0.037118l0.012373,-0.043305l-0.111355,-0.111355l0.012373,-0.043305h0.105169l0.098982,-0.06805l0.055678,-0.15466l0.074237,-0.024746l0.043305,0.024746v0.08661l0.080423,0.074237l0.012373,0.105169l-0.037118,0.061864l0.024746,0.098982l-0.018559,0.043305l-0.08661,0.024746l-0.043305,0.08661l0.012373,0.191778l0.080423,0.092796l-0.018559,0.043305l-0.098982,0.018559l0.006186,0.049491l0.06805,0.055678l-0.018559,0.043305l-0.15466,0.06805l-0.024746,0.074237l-0.061864,0.006186l-0.08661,-0.105169l-0.06805,-0.037118l-0.049491,0.030932l0.055678,0.080423l-0.049491,0.043305l-0.105169,-0.049491l-0.30932,-0.049491l-0.142287,0.043305l-0.185592,0.055678l-0.111355,-0.049491l-0.103375,-0.177805l-0.156454,-0.150074l-0.136101,-0.080423l-0.117542,0.006186l-0.080423,0.055678l-0.006186,0.049491l0.030932,0.055678l-0.012373,0.055678l-0.148474,0.061864l-0.074237,-0.012373l-0.074237,-0.08661l-0.216524,-0.049491l-0.129914,0.037118l-0.061864,-0.018559l-0.043305,-0.08661l-0.06805,0.006186l-0.247456,0.259829l-0.179406,0.055678l-0.024746,0.055678l0.074237,0.080423l0.148474,0.024746l0.024746,0.080423l0.030932,0.012373l0.049491,-0.080423l0.562962,-0.018559l0.129914,0.043305l0.117542,-0.012373l0.105169,-0.037118l0.197965,0.018559l0.136101,0.117542l0.092796,0.024746l0.06805,0.092796l0.006186,0.080423l-0.061864,0.111355l-0.167033,0.074237l-0.278388,0.012373l-0.105169,-0.043305h-0.061864l-0.061864,0.024746l-0.117542,-0.012373l-0.055678,-0.06805l-0.092796,-0.043305l-0.142287,-0.049491l-0.111355,-0.092796l-0.216524,-0.030932l-0.142287,0.006186l-0.061864,0.061864l-0.117542,0.012373h-0.105169l-0.216524,0.061864l-0.197965,0.129914l-0.266015,0.061864l-0.160846,0.08661l-0.098982,0.098982l-0.173219,0.043305l-0.080423,0.030932l-0.253642,-0.006186l-0.266015,-0.136101l-0.142287,-0.210338l-0.018559,-0.160846l0.012373,-0.204151l0.049491,-0.092796l0.111355,-0.049491l0.069597,-0.139194l0.069597,-0.097436l0.00464,-0.060317l-0.051038,-0.106715l0.00928,-0.060317l0.051038,-0.055678l0.00928,-0.074237l-0.069597,-0.255189l-0.129914,-0.102076l-0.051038,-0.013919l-0.083516,0.027839l-0.00464,0.060317l0.051038,0.115995l0.037118,0.106715l0.069597,0.046398v0.055678l-0.111355,0.111355l-0.069597,0.018559l-0.125275,-0.027839l-0.102076,0.055678l-0.046398,0.051038l-0.00928,0.120635l-0.064957,0.041758l-0.088156,0.00928l-0.134554,0.069597l-0.027839,0.162393l-0.055678,0.041758l-0.088156,0.013919l-0.060317,0.041758l-0.013919,0.069597l-0.194872,0.125275l-0.088156,0.167033l-0.194872,0.139194l-0.185592,0.051038l-0.097436,0.088156l-0.097436,0.00928l-0.153113,-0.088156l-0.051038,-0.088156l-0.092796,-0.055678h-0.097436l-0.106715,0.074237l-0.148474,0.013919l-0.055678,-0.00928l-0.074237,0.013919l-0.078877,0.115995l-0.055678,0.125275l-0.171673,0.074237l-0.143834,-0.00928l-0.213431,0.125275l-0.074237,0.125275l-0.083516,0.00928l-0.283028,-0.092796l-0.083516,-0.148474l-0.143834,-0.00928l-0.162393,0.171673l-0.125275,0.00464l-0.120635,-0.069597h-0.329426l-0.352625,0.23663l-0.436141,0.256736l-0.46398,0.179406l-0.210338,0.012373l-0.457794,0.185592l-0.216524,0.012373l-0.105169,-0.055678l-0.061864,0.006186l-0.030932,0.049491l-0.055678,0.012373l-0.259829,-0.06805l-0.327879,-0.117542l-0.185592,-0.061864l-0.15466,0.024746l-0.111355,0.08661l-0.173219,0.210338l-0.030932,0.111355l-0.111355,0.061864l-0.216524,0.006186l-0.228897,0.08661l-0.216524,0.006186l-0.06805,-0.024746l-0.055678,-0.080423l-0.24127,-0.117542l-0.08661,-0.111355l-0.15466,-0.024746l-0.167033,0.049491l-0.204151,-0.018559l-0.24127,-0.098982l-0.364998,-0.08661l-0.30932,-0.228897l-0.030932,-0.197965l0.123728,-0.235083l-0.012373,-0.074237l-0.105169,-0.098982l0.043305,-0.22271l0.173219,-0.197965l0.266015,-0.129914l0.037118,-0.185592l-0.105169,-0.160846l-0.167033,-0.148474l-0.012373,-0.092796l0.117542,-0.080423l-0.018559,-0.148474l-0.080423,-0.129914l-0.117542,-0.061864l-0.018559,-0.061864l0.129914,-0.105169l0.027839,-0.111355l0.095889,-0.129914l0.006186,-0.105169l0.06805,-0.074237l0.160846,-0.055678l0.074237,-0.092796v-0.098982l-0.06805,-0.129914l0.001547,-0.060317h0.041758l0.051038,0.102076l0.055678,0.037118l0.111355,-0.00928l0.134554,-0.051038l0.210338,0.006186l0.24127,-0.111355l0.06805,-0.092796l0.111355,-0.061864l0.06805,0.006186l0.055678,0.080423l0.055678,-0.018559l0.074237,-0.173219l0.148474,-0.15466l0.352625,-0.167033l0.024746,-0.043305l-0.024746,-0.098982l0.08661,-0.15466l0.235083,-0.06805l0.148474,0.006186l0.22271,0.204151l0.123728,0.024746l0.074237,-0.037118l0.080423,0.018559l0.06805,0.080423l0.22271,0.061864l0.637199,0.290761l0.105169,-0.012373l0.080423,-0.117542l0.129914,-0.204151l-0.006186,-0.129914l0.055678,-0.018559l0.074237,0.024746l0.055678,0.080423l0.235083,0.030932l0.346438,-0.074237l0.123728,0.018559l0.055678,0.080423l-0.012373,0.120635l-0.051038,0.088156l0.00928,0.148474l0.069597,0.194872l0.060317,0.027839l0.046398,-0.023199l0.013919,-0.083516l-0.092796,-0.139194l-0.00464,-0.185592l0.046398,-0.041758l0.153113,0.00928l0.134554,0.074237l0.041758,0.157753v0.088156l-0.041758,0.097436l-0.00464,0.097436l0.037118,0.060317l-0.00464,0.055678l-0.046398,0.032479v0.051038l0.060317,0.00928l0.199511,0.129914l0.139194,0.032479l0.088156,-0.00928l0.139194,0.00464l0.069597,-0.027839l0.037118,0.018559v0.060317l-0.037118,0.064957l0.037118,0.037118l0.092796,-0.00928l0.060317,0.046398l-0.00464,0.088156l-0.046398,0.074237l0.00464,0.046398l0.125275,0.027839l0.018559,0.032479l-0.111355,0.013919l-0.023199,0.055678l0.018559,0.060317l0.078877,0.037118l0.032479,0.143834v0.167033l0.064957,0.069597l0.143834,0.023199l0.106715,-0.083516l0.064957,0.00464l0.018559,0.032479l0.069597,-0.00464l0.167033,-0.097436l0.176312,-0.00928l0.046398,0.046398v0.041758l-0.083516,0.051038v0.046398l0.074237,0.051038l0.051038,-0.013919l0.153113,-0.083516l0.069597,0.013919l0.027839,0.055678l-0.00464,0.074237l0.041758,0.027839l0.115995,-0.037118l0.111355,-0.092796v-0.092796l0.032479,-0.032479l0.055678,0.027839l0.060317,-0.037118l0.102076,-0.176312l0.157753,-0.115995l0.23199,-0.074237l0.310867,-0.018559l0.250549,0.023199l0.092796,0.051038l0.023199,0.041758l0.148474,0.032479l0.083516,-0.018559l0.055678,-0.092796l0.064957,-0.00464l0.078877,0.032479l0.092796,-0.00464l0.074237,-0.078877l0.041758,-0.115995l-0.032479,-0.185592l-0.055678,-0.051038l-0.125275,-0.018559l-0.046398,-0.027839v-0.102076l-0.074237,-0.083516l-0.106715,-0.032479l-0.060317,0.027839l-0.027839,0.064957l-0.060317,0.013919l-0.064957,-0.041758l0.00928,-0.097436l-0.078877,-0.115995l-0.162393,-0.074237l-0.088156,-0.083516l-0.041758,-0.129914l-0.041758,-0.018559l-0.041758,0.00928l-0.023199,0.041758h-0.060317l-0.055678,-0.069597l-0.032479,-0.134554l-0.064957,-0.060317l-0.115995,-0.013919l-0.218071,0.092796l-0.245909,0.018559l-0.134554,-0.041758l-0.037118,-0.078877Z M1882.095695,808.824112l0.024746,0.111355l0.08661,0.08661l0.061864,-0.061864l0.037118,0.012373l-0.006186,0.092796l0.092796,0.049491l0.136101,-0.037118l0.049491,-0.037118l0.024746,-0.08661l0.15466,-0.105169l0.15466,0.012373l0.123728,0.080423l0.08661,-0.024746l0.061864,-0.08661l0.049491,-0.006186l0.018559,0.105169l-0.018559,0.080423l0.043305,0.049491h0.061864l0.049491,-0.129914l0.064957,-0.080423l-0.00464,-0.023199l-0.092796,0.037118l-0.023199,-0.026292l0.08661,-0.284574l0.030932,-0.389743l-0.018559,-0.402116l-0.030932,-0.284574l-0.092796,-0.148474l-0.061864,-0.043305l-0.043305,-0.105169l-0.012373,-0.15466l-0.024746,-0.055678l0.006186,-0.074237l0.123728,-0.185592l0.098982,-0.080423l0.179406,-0.024746l0.080423,-0.06805l-0.030932,-0.117542l0.043305,-0.043305l0.105169,0.012373l0.08661,-0.024746l0.08661,-0.092796l0.228897,-0.08661l0.061864,-0.160846l0.15466,-0.197965l0.352625,-0.259829l0.482539,-0.197965h0.272202l0.167033,0.055678l0.352625,0.061864l0.321693,0.173219l0.39593,0.080423l0.303134,0.111355l0.142287,0.012373l0.173219,0.080423l0.092796,0.148474l0.105169,0.105169l0.129914,0.08661l0.061864,0.136101l-0.012373,0.210338l-0.049491,0.098982l0.012373,0.117542l-0.061864,0.105169l-0.142287,0.08661l-0.117542,0.123728l-0.018559,0.06805l0.030932,0.08661v0.111355l-0.06805,0.080423l-0.018559,0.06805l0.049491,0.092796l-0.037118,0.117542l-0.148474,0.123728l-0.08661,0.117542l-0.037118,0.160846l-0.235083,0.278388l-0.235083,0.488726l-0.266015,0.290761l-0.055678,0.15466l-0.006186,0.24127l0.043305,0.030932l0.049491,-0.030932l-0.018559,-0.055678l0.043305,-0.049491l0.105169,-0.037118l0.06805,0.024746l0.037118,0.123728l0.074237,0.030932l0.136101,-0.018559l0.074237,0.018559l0.012373,0.049491l-0.167033,0.173219l-0.185592,0.049491l-0.092796,0.08661l-0.043305,-0.018559l0.043305,-0.129914l-0.043305,-0.037118l-0.049491,-0.012373l-0.098982,0.185592l-0.148474,0.074237l-0.204151,-0.018559l-0.012373,-0.055678l0.08661,-0.098982l0.043305,-0.266015l0.080423,-0.092796l-0.037118,-0.074237l-0.061864,-0.018559l-0.08661,0.080423l-0.06805,-0.006186l-0.030932,-0.061864h-0.049491l-0.08661,0.136101l-0.105169,0.049491v0.074237l0.08661,0.216524l-0.055678,0.247456l-0.055678,0.092796l-0.074237,0.024746l-0.043305,-0.049491l-0.006186,-0.160846l0.098982,-0.117542l-0.049491,-0.037118l-0.055678,0.037118l-0.074237,-0.012373l-0.061864,-0.037118l-0.043305,0.024746l0.037118,0.098982l-0.043305,0.024746l-0.092796,-0.092796l-0.123728,0.012373l-0.061864,-0.030932l-0.061864,-0.061864h-0.06805l-0.018559,0.061864l-0.105169,0.018559l-0.346438,-0.018559l-0.129914,0.049491h-0.08661l-0.092796,-0.105169l0.018559,-0.098982l-0.049491,-0.074237l-0.160846,-0.030932l-0.272202,0.055678l-0.111355,0.061864l-0.111355,0.024746l-0.049491,-0.049491l-0.006186,-0.08661l-0.061864,-0.018559h-0.148474l-0.043305,0.043305l0.043305,0.06805l0.06805,-0.012373l0.018559,0.049491l-0.06805,0.092796l-0.08661,0.006186l-0.148474,-0.08661l-0.111355,-0.179406l-0.142287,-0.136101l-0.092796,-0.024746l-0.074237,0.024746l-0.321693,-0.111355h-0.123728l-0.117542,-0.111355l-0.055678,-0.136101l-0.006186,-0.24127l0.111355,-0.160846l0.092796,-0.018559l0.08661,0.043305Z M1877.811613,808.941653v-0.071144l0.046398,-0.064957l0.071144,-0.034025l0.037118,0.006186l0.021652,0.034025l-0.046398,0.092796l-0.07733,0.052584l-0.052584,-0.015466Z M1873.153254,804.564775l0.08661,-0.006186l0.021652,0.027839l-0.058771,0.037118h-0.058771l-0.027839,-0.027839l0.037118,-0.030932Z M1880.985237,806.709909l-0.027839,0.083516l-0.103961,0.094246l-0.167613,0.088736l-0.10599,0.066552l-0.091201,0.098596l-0.056693,0.017254l-0.014789,0.034509l-0.007395,0.078877l-0.032044,0.046833l-0.12078,0.056693h-0.081341l-0.122955,-0.048718l-0.194872,-0.027839l-0.088156,0.023199l-0.037118,0.069597l0.023199,0.051038l-0.027839,0.074237l-0.078877,0.064957l-0.157753,0.037118l-0.083516,0.041758l-0.060317,0.078877l-0.129914,0.037118l-0.278388,0.00464l-0.171673,0.046398l-0.357265,0.23663l-0.277953,0.262439l-0.044368,0.11585l0.034509,0.076412l-0.00493,0.088736l-0.059157,0.081341l-0.076412,0.00493l-0.12571,0.036973l-0.032044,0.051763l-0.091201,0.061622l-0.108455,0.024649l-0.044368,0.076412l0.002465,0.096131l0.041903,0.039438l0.10599,0.002465l0.046833,-0.014789l0.029579,-0.083806l0.022184,0.007395l0.029579,0.155288l0.073947,0.11092l-0.002465,0.078877l-0.091201,0.12571l-0.088736,0.071482l-0.224305,0.064087l-0.219376,-0.002465l-0.179937,-0.00986l-0.123245,-0.024649l-0.069017,-0.071482v-0.064087l0.059157,-0.061622l0.142964,-0.059157l0.059157,-0.088736l0.123245,-0.044368l0.10599,-0.00493l0.046833,-0.064087l-0.00493,-0.10599l-0.069017,-0.056693v-0.029579l0.071482,-0.091201l0.00986,-0.096131l-0.034509,-0.098596l-0.076412,-0.123245l-0.142964,-0.142964l-0.182402,-0.145429l-0.101061,-0.118315l-0.024649,-0.088736l-0.10599,-0.135569l-0.197192,-0.162683l-0.071482,-0.032044l-0.345085,-0.303182l-0.071482,-0.027114l-0.056693,-0.056693l-0.039438,-0.064087l-0.096131,-0.081341l-0.285928,-0.152823l-0.073947,-0.012324l-0.12078,-0.073947l-0.118315,-0.044368l-0.103526,0.002465l-0.061622,-0.019719l-0.128174,-0.11092l-0.103526,-0.064087l-0.069017,-0.00493l-0.113385,-0.039438l-0.059157,-0.032044l-0.076412,-0.00493l-0.47326,0.046833l-0.101061,0.032044h-0.246489l-0.152823,-0.029579l-0.061622,-0.041903l-0.034509,-0.091201l-0.167613,-0.160218l-0.00986,-0.044368l-0.049298,-0.054228l-0.059157,-0.019719l-0.071482,-0.098596v-0.069017l-0.017254,-0.046833l-0.202121,-0.207051l-0.085933,-0.16191l-0.157753,-0.179406l-0.098982,-0.281481l-0.017206,-0.106812l0.00986,-0.054228l0.034509,-0.007395l0.046833,0.128174l0.041903,0.012324l0.029579,-0.049298l0.044368,-0.019719l0.044368,-0.002465v-0.029579l-0.130639,-0.032044l-0.034509,-0.044368l-0.013388,-0.128658l-0.049491,-0.06805v-0.117542l0.043305,-0.06805l0.117542,-0.018559l0.185592,0.018559l0.08661,0.049491l0.117542,0.15466l0.030932,0.06805l-0.024746,0.049491l0.006186,0.049491h0.061864l0.105169,-0.111355l0.092796,-0.043305l0.142287,-0.043305l0.080423,0.024746l0.037118,0.08661h0.049491l0.061864,-0.055678l0.160846,0.018559l0.111355,0.06805l0.074237,0.018559l0.061864,-0.012373l0.098982,0.018559l0.334066,0.136101l0.371184,0.080423l0.185592,0.080423l0.247456,0.043305l0.22271,-0.030932l0.117542,-0.061864l0.371184,-0.012373l0.185592,-0.061864l0.191778,-0.117542l0.173219,-0.136101l0.061864,-0.105169l0.111355,-0.08661l0.216524,-0.142287l0.136101,-0.030932l0.173219,-0.098982l0.185592,0.006186l0.123728,0.055678l0.352625,0.092796l0.179406,0.092796l0.136101,0.037118l0.136101,0.024746l0.098982,0.037118l0.092796,0.074237l0.259829,0.098982l0.216524,0.037118l0.15466,0.08661l0.111355,0.111355l0.08661,0.037118l0.445421,0.327879l0.389743,0.408302l0.08661,0.191778l0.111355,0.074237l0.123728,0.024746l0.191778,0.092796l0.129914,0.160846l-0.00928,0.184045l-0.055678,0.064957Z  M1941.915785,810.266272l0.026,0.036l-0.005,0.047l-0.077,0.077l-0.03,0.094l0.022,0.064l-0.012,0.08l-0.024,0.029l-0.003,0.057l0.054,0.045v0.074l0.031,0.032l0.047,-0.017l0.024,0.015l-0.003,0.042l0.03,0.017l0.06,-0.007l0.073,0.027l0.042,-0.015l0.038,-0.007l0.047,0.027l0.034,-0.008l0.019,-0.071l0.029,-0.018l0.046,0.023l0.017,-0.013l-0.002,-0.037l0.017,-0.017l0.051,-0.008l0.029,-0.047l0.041,-0.022l0.064,-0.002l0.041,-0.025l0.063,-0.005l0.083,-0.045l0.107,-0.116l0.036,-0.087l0.01,-0.106l0.041,-0.045l0.029,0.003l0.153,0.168l0.088,0.04l0.231,0.2l0.002,0.027l-0.014,0.028l0.002,0.039l0.032,0.035l-0.003,0.035l-0.031,0.059v0.04l0.019,0.022l-0.005,0.035l-0.039,0.061l-0.017,0.109l-0.026,0.025v0.022l0.038,0.042l-0.004,0.025l-0.039,0.01l-0.008,0.03l0.008,0.079l0.034,0.057l0.048,0.017l0.037,0.052l-0.01,0.035l-0.051,0.032l-0.039,0.062l-0.039,0.007l-0.126,-0.022l-0.105,0.01l-0.228,0.178l-0.041,0.003l-0.098,-0.077l-0.024,-0.074l-0.027,-0.018l-0.043,-0.004l-0.066,-0.038l-0.036,0.005l-0.032,0.025l-0.036,0.008l-0.153,-0.03l-0.035,0.012l-0.058,0.082l-0.107,0.04l-0.019,0.039l-0.005,0.312l0.027,0.082l0.068,0.039l0.005,0.047l-0.02,0.154l0.017,0.032l0.051,-0.017l0.037,0.017l0.114,0.171l0.039,0.025l0.07,-0.003l0.037,0.047v0.203l0.068,0.082l0.056,0.02l0.068,0.104l-0.003,0.024l-0.017,0.028v0.037l0.029,0.047l-0.005,0.153l-0.009,0.055l0.009,0.029l0.044,0.025l0.003,0.022l-0.01,0.035l0.023,0.035l-0.055,0.084l-0.076,0.062l-0.168,0.078l-0.186,0.205l-0.098,0.149l-0.03,0.118l-0.009,0.103l-0.037,0.099l-0.012,0.155l0.003,0.094l-0.064,0.114l-0.122,0.119l-0.024,0.065l-0.065,0.037l-0.152,0.016l-0.131,0.052l-0.104,0.075l-0.335,0.329l-0.064,0.146l-0.07,0.087l-0.052,0.028l-0.131,0.159l-0.106,0.192l-0.091,0.107l-0.032,0.103l-0.091,0.098l-0.097,0.032l-0.201,0.154l-0.096,0.009l-0.087,0.061l-0.091,0.135l-0.238,0.149l-0.092,0.08l-0.054,0.093l-0.11,0.07l-0.128,0.009l-0.087,0.051l-0.055,0.093l-0.133,0.364l-0.233,0.27l-0.137,0.065l-0.325,0.224l-0.238,0.061h-0.283l-0.225,-0.038l-0.379,-0.014l-0.494,-0.042l-0.238,0.052l-0.155,0.102l-0.138,0.131l-0.009,0.065l-0.059,0.079l-0.211,0.126l-0.073,0.075l-0.064,0.111l-0.105,0.033l-0.179,-0.014l-0.15,0.061l-0.028,0.069l-0.046,0.024l-0.077,-0.014l-0.106,0.023l-0.21,0.117l-0.073,0.102l-0.078,0.042l-0.224,0.037l-0.133,0.066l-0.105,0.014l-0.091,-0.042h-0.074l-0.045,0.042l-0.243,0.065l-0.146,-0.005l-0.133,-0.074l-0.146,-0.01l-0.188,0.056l-0.077,0.065l-0.055,-0.009l-0.087,-0.126l-0.151,-0.084l-0.165,-0.046l-0.123,0.032l-0.256,0.154l-0.128,0.033l-0.065,-0.037l-0.004,-0.061l0.032,-0.028l0.018,-0.042l-0.023,-0.047l0.032,-0.065l0.06,-0.032l0.132,-0.215l0.014,-0.088l-0.073,-0.135v-0.122l0.027,-0.051l0.197,-0.046l0.046,-0.061l-0.009,-0.14l0.036,-0.07l0.106,-0.051l0.064,0.005l0.064,-0.005l0.237,-0.149l0.119,-0.037l0.138,0.032l0.059,-0.023l0.165,-0.14l0.26,-0.126l0.133,-0.018l0.046,-0.028l0.05,-0.168l0.096,-0.196l-0.014,-0.046l-0.109,-0.061l-0.11,0.009l-0.082,-0.014l-0.151,-0.088h-0.046l-0.055,0.033h-0.073l-0.087,-0.038l-0.151,0.019l-0.105,0.06l-0.064,0.122l-0.046,0.014l-0.105,-0.084l-0.023,-0.126l0.032,-0.103l0.009,-0.102l-0.05,-0.284l0.041,-0.201l0.133,-0.088l0.219,-0.038l0.114,-0.107l0.093,-0.206l0.005,-0.193l-0.029,-0.141l-0.137,-0.153l-0.004,-0.037l0.104,-0.067l0.08,-0.015l0.039,-0.05l0.024,-0.094l-0.021,-0.072l0.002,-0.071l0.029,-0.06l0.005,-0.126l-0.041,-0.062l-0.049,-0.158l0.005,-0.109l0.036,-0.055l0.076,-0.042l0.063,-0.059l0.022,-0.05l0.048,-0.057l0.061,-0.022l0.044,-0.042l0.031,-0.089l0.056,-0.072l0.117,-0.074l0.092,-0.015l0.095,-0.047l0.034,-0.06l0.02,-0.113l-0.005,-0.146l0.012,-0.067l0.036,-0.005l0.049,0.044l0.063,0.01l0.063,-0.01l0.08,-0.064l0.059,-0.077l0.046,-0.007l0.027,0.017l0.068,-0.007l0.073,-0.052l0.094,-0.099l0.034,-0.102l0.047,-0.052l0.053,-0.03l0.102,-0.014l0.068,-0.094l0.051,-0.102l0.085,-0.052l0.119,-0.198l0.093,-0.079l0.085,-0.02l0.058,0.022l0.061,0.003l0.068,-0.015l0.017,-0.035l0.044,-0.022l0.019,0.054l0.042,0.036l0.094,0.18l0.052,0.016l0.134,0.214l0.037,0.022l0.094,-0.016l0.043,0.016l0.079,0.093l0.061,0.019l0.107,-0.056l0.015,-0.047l0.055,-0.068l0.006,-0.047l0.107,-0.059l0.009,-0.043l0.034,-0.022l0.045,0.009l0.028,-0.015l0.012,-0.037l0.058,-0.016l0.104,0.05l0.051,0.059l0.138,0.081l0.024,0.065l0.061,0.059l0.021,0.096l-0.012,0.056l0.007,0.036l0.068,0.045l0.003,0.039l-0.015,0.04l0.003,0.032l0.022,0.042l-0.003,0.04l-0.053,0.084l-0.015,0.074l0.02,0.02l0.104,-0.002l0.041,-0.055l0.037,-0.01l0.07,0.01l0.129,-0.074l0.061,-0.008l0.034,0.018l0.017,-0.013l0.005,-0.118l0.058,-0.045l-0.005,-0.069l-0.078,-0.055l-0.002,-0.086l0.109,-0.094l0.017,-0.052l0.037,-0.025l0.017,-0.05l-0.008,-0.091l-0.029,-0.052l0.02,-0.099l0.034,-0.013l0.056,0.01l0.077,-0.064l0.01,-0.06l0.041,-0.029l0.078,-0.008l0.042,-0.024l0.048,0.005l0.027,-0.023l0.005,-0.091l0.039,-0.052l0.06,-0.005l0.042,-0.042l-0.051,-0.208l0.009,-0.05l0.049,-0.062l0.02,-0.049l0.009,-0.216l0.012,-0.034l0.071,-0.052l0.017,-0.052l-0.016,-0.054l-0.021,-0.049l0.039,-0.008l0.046,0.009l0.071,-0.012l0.08,0.011l0.07,0.046l0.051,-0.003l0.052,-0.052l0.077,-0.015l0.056,0.018l0.026,-0.019l0.04,-0.052l0.057,-0.028l0.089,-0.003l0.131,-0.035l0.07,-0.046l0.128,-0.124l0.086,-0.041l0.088,-0.025l0.085,-0.102l0.064,-0.137l0.037,-0.161l0.043,-0.053l0.088,-0.006l0.015,0.031l-0.012,0.052l-0.033,0.066l0.006,0.046h0.027l0.049,-0.115l0.055,-0.049l0.14,-0.081l0.076,-0.075l0.067,-0.025l0.211,-0.152l0.107,-0.037h0.155l0.082,-0.034l0.128,-0.143l0.156,-0.047l0.082,0.003l0.107,-0.028l0.107,-0.062z"/>
</svg>
