<svg xmlns="http://www.w3.org/2000/svg" viewBox="1970.642 743.882 77.341 67.634">
  <path d="M2032.980975,798.415864l-0.206564,-0.029611l-0.141644,-0.142131l0.005902,-0.130287l0.082626,-0.029611l0.159349,0.094754l0.159349,0.201352l-0.059018,0.035533Z M2033.163932,798.392175l0.06492,-0.005922l0.023607,-0.041455l-0.082626,-0.047377h-0.047215v0.059221l0.041313,0.035533Z M2034.539059,798.783036l0.171153,0.011844l0.005902,-0.053299l-0.19476,-0.118443l-0.206564,-0.023689l-0.017705,0.047377l0.241975,0.136209Z M2034.127898,806.167933l0.059018,0.071066l0.114102,0.043429l0.066887,-0.027637l-0.007869,-0.035533l-0.153448,-0.027637l-0.066887,-0.075014l-0.027542,0.007896l0.015738,0.043429Z M2034.037404,806.290323l0.055084,0.094754l0.145579,0.071066l0.090495,-0.007896l0.015738,-0.051325l-0.066887,-0.08291l-0.118037,-0.055273l-0.078691,-0.094754l-0.035411,0.007896l-0.007869,0.118443Z M2032.21177,805.532291l0.027542,0.015792l0.062953,-0.043429l0.003935,-0.063169h-0.039346l-0.055084,0.090806Z M2032.56588,805.05852l0.08656,0.015792l0.027542,-0.027637l-0.023607,-0.039481l-0.074757,-0.007896l-0.035411,0.027637l0.019673,0.031585Z M2031.656998,806.349545l0.247877,0.090806l0.499689,0.047377l0.373783,0.098702l0.236073,0.015792l0.169186,-0.043429l0.125906,0.011844l0.08656,0.039481l0.413128,0.003948l0.133775,-0.071066l0.047215,-0.134235l0.003935,-0.402705l-0.070822,-0.075014l-0.102298,-0.304003l-0.145579,-0.197404l-0.106233,-0.094754l-0.051149,-0.157923l-0.153448,-0.244781l-0.055084,-0.007896l-0.04328,0.035533l-0.208531,0.039481l-0.094429,0.071066l-0.102298,0.031585l-0.385586,0.027637l-0.055084,0.051325l-0.039346,0.248729l-0.062953,0.16582l-0.251812,0.197404l-0.322634,0.153975l-0.125906,0.126339l-0.023607,0.161872l0.062953,0.114495Z M2031.653063,805.880709l0.351159,-0.204314l0.233122,-0.263535l0.094429,-0.302029l0.144595,-0.133248l0.203613,-0.002961l0.067871,0.038494l0.085577,0.002961l0.109184,-0.065143l0.236073,-0.017766l0.059018,-0.029611l0.06492,-0.130287l0.026558,-0.151014l0.132791,-0.124365l0.171153,-0.041455l0.303944,0.032572l0.050166,-0.029611l-0.002951,-0.059221l-0.070822,-0.041455l-0.059018,-0.103637l-0.008853,-0.16582l0.059018,-0.142131l0.014755,-0.189508l-0.067871,-0.204314l0.005902,-0.168781l0.091478,-0.133248l0.159349,-0.097715l0.333454,-0.091793l0.106233,-0.121404l0.005902,-0.183586l-0.041313,-0.210236l0.005902,-0.213197l0.067871,-0.174703l0.168202,-0.210236l0.038362,-0.106598v-0.198391l0.082626,-0.207275l0.236073,-0.210236l0.038362,-0.065143l-0.026558,-0.065143l-0.318699,-0.076001l-0.339355,-0.006909l-0.250828,-0.05626l-0.145579,-0.071066l-0.196728,-0.26847l-0.192793,-0.394809l-0.291157,-0.276366l-0.334437,-0.153975l-0.546903,-0.047377l-0.476081,0.035533l-0.322634,0.090806l-0.452474,0.031585l-0.904948,0.173716l-0.601987,0.197404l-0.558707,0.276366l-0.420997,0.280314l-0.507558,0.477719l-0.318699,0.394809l-0.18099,0.367172l0.027542,0.078962l-0.027542,0.047377l-0.141644,0.051325l-0.157382,0.138183l-0.401325,0.647486l-0.432801,0.904112l-0.023607,0.181612l0.078691,0.110546l-0.029509,0.043429l-0.147546,0.065143l-0.395423,0.604057l-0.206564,0.438238l-0.206564,0.740266l-0.011804,0.236885l-0.12984,0.461926l0.076724,0.148053l0.082626,0.017766l0.135742,-0.130287l0.424932,-0.142131l0.649202,-0.118443l0.106233,-0.059221l0.082626,-0.005922l0.112135,0.053299l1.180367,0.017766l0.93249,-0.029611l0.102298,-0.027637l0.212466,0.110546l0.068855,0.148053l0.127873,0.041455l0.308863,-0.005922l0.690514,-0.248729l0.322634,-0.246755l0.059018,-0.193456l0.066887,-0.063169l0.204597,-0.059221l0.149513,-0.145092Z M2032.603258,796.479327h0.206564l0.177055,-0.183586l0.182957,-0.065143l-0.011804,-0.11252l-0.241975,-0.36125l-0.236073,-0.106598l-0.348208,-0.047377l-0.218368,-0.124365l-0.112135,0.059221l-0.005902,0.213197l0.324601,0.373094l0.088527,0.254652l0.19476,0.100676Z M2033.215081,796.112155l0.070822,0.039481l0.019673,-0.031585l-0.110168,-0.118443l-0.027542,0.015792l0.047215,0.094754Z M2024.777428,785.2865l-0.06492,0.065143l0.017705,0.053299h0.059018l0.029509,-0.076988l-0.041313,-0.041455Z M2019.884808,783.148611l0.035411,0.118443l0.076724,-0.005922l0.041313,-0.130287l-0.059018,-0.076988l-0.053116,0.005922l-0.041313,0.088832Z M2004.191834,777.771317l0.135742,-0.041455l0.177055,0.035533l0.029509,-0.053299l-0.147546,-0.142131l-0.247877,-0.08291l-0.082626,0.035533l-0.022395,0.142322l0.0401,0.076796l0.118037,0.029611Z M2003.896742,777.783161l0.053116,-0.029611l-0.041313,-0.059221l-0.059018,0.005922l-0.017705,0.047377l0.06492,0.035533Z M2003.111799,777.587731l-0.011804,0.142131l0.088527,0.08291l0.106233,-0.005922l0.017705,-0.11252l-0.118037,-0.124365l-0.082626,0.017766Z M2002.952449,777.658796l-0.171153,-0.11252l-0.135742,-0.207275l-0.35411,-0.337561l-0.247877,-0.017766l-0.023607,0.071066l0.088527,0.272418l0.19476,0.142131l0.259681,0.047377l0.182957,0.130287l0.177055,0.053299l0.029509,-0.041455Z M2001.589126,776.462526l0.112135,0.029611l0.159349,-0.011844l0.047215,-0.094754l-0.070822,-0.08291l-0.177055,0.017766l-0.076724,0.071066l0.005902,0.071066Z M2001.707162,776.622424l0.088527,0.005922l0.035411,-0.065143l-0.047215,-0.023689l-0.100331,0.029611l0.023607,0.053299Z M1999.104454,773.880477l0.053116,-0.017766l0.029509,-0.08291l-0.053116,-0.065143l-0.100331,0.005922l-0.017705,0.076988l0.088527,0.08291Z M2000.160882,771.588613l0.088527,-0.005922l-0.017705,-0.148053l-0.06492,-0.124365l-0.088527,-0.035533l-0.06492,0.08291l0.053116,0.153975l0.094429,0.076988Z M1997.12734,778.231269l0.047215,0.307951l0.377717,0.323743l0.306895,0.118443l0.275419,0.173716l0.196728,0.015792l0.212466,-0.078962l0.149513,0.039481l0.196728,0.213197l0.308863,0.232937l0.023607,-0.047377l-0.206564,-0.240833l-0.17312,-0.110546l-0.133775,-0.16582l-0.236073,-0.126339l-0.424932,-0.126339l-0.582314,-0.363224l-0.08656,-0.150027l-0.17312,-0.086858l-0.078691,0.071066Z M2001.057961,776.586891l0.053116,-0.041455l-0.035411,-0.183586l-0.112135,-0.242807l-0.082626,-0.384938l-0.088527,-0.071066l-0.06492,0.041455l0.023607,0.171742l0.082626,0.189508l0.082626,0.331639l0.141644,0.189508Z M1998.071633,777.693784l0.064631,-0.006176l0.003078,-0.030882l-0.067708,-0.021618l-0.049242,0.012353l-0.003078,0.027794l0.05232,0.018529Z M1997.349156,777.96374l0.022139,-0.009873l0.00738,-0.022215l-0.014759,-0.017278l-0.027058,0.012342l-0.00492,0.019747l0.017219,0.017278Z M1998.409183,777.482207l0.028441,0.014875l0.033514,-0.010865l0.007203,-0.026974l-0.029342,-0.011503l-0.025893,0.0093l-0.013923,0.025167Z M1994.807911,778.367427l0.029518,-0.002468l0.012299,-0.024683l-0.009839,-0.019747h-0.027058l-0.014759,0.022215l0.009839,0.024683Z M1992.571125,773.714658l0.100331,0.124365l0.177055,0.059221l0.053116,0.065143l0.023607,0.230963l0.141644,0.124365l0.100331,-0.017766l0.053116,-0.130287l-0.06492,-0.183586l-0.153448,-0.065143l-0.035411,-0.053299l-0.011804,-0.142131l-0.177055,-0.130287l-0.159349,0.011844l-0.047215,0.106598Z M1993.338363,773.714658l0.047215,-0.023689v-0.11252l-0.059018,-0.059221l-0.041313,0.035533l-0.005902,0.08291l0.059018,0.076988Z M1993.285247,773.8331l0.017705,0.148053l0.035411,0.047377l0.053116,-0.029611l0.005902,-0.159898l-0.047215,-0.047377l-0.06492,0.041455Z M1991.949465,771.866953l0.025575,-0.041455l-0.265582,-0.171742l-0.253779,-0.071066l-0.047215,0.041455l0.100331,0.124365l0.12984,0.065143l0.188859,0.011844l0.121971,0.041455Z M1989.814969,770.765437l0.112135,0.035533l0.466245,0.029611l0.017705,-0.035533l-0.241975,-0.071066l-0.324601,-0.035533l-0.277386,0.041455l0.023607,0.035533h0.22427Z M1985.819428,768.629522l0.157382,-0.063169l0.188859,-0.086858v-0.055273h-0.08656l-0.275419,0.118443l-0.047215,0.063169l0.062953,0.023689Z M1991.55601,768.708483l0.196728,-0.063169l0.023607,-0.078962l-0.149513,-0.078962l-0.157382,-0.007896l-0.055084,0.078962l0.023607,0.134235l0.118037,0.015792Z M1992.067502,768.65321l0.133775,-0.023689v-0.055273l-0.133775,-0.023689l-0.070822,0.039481l0.070822,0.063169Z M1989.386872,770.797584l-0.008377,-0.033502l-0.067907,-0.017972l-0.081126,0.034345l-0.000718,0.052604l0.043614,0.007277l0.114514,-0.042751Z M1988.480233,770.571629l-0.103003,-0.023223l-0.059734,0.013979l-0.014166,0.053939l0.181034,0.031002l0.057242,-0.026473l-0.061372,-0.049224Z M2012.017665,771.570846l0.017705,-0.065143l0.082626,-0.065143l0.053116,0.011844l-0.011804,0.071066l-0.082626,0.065143l-0.059018,-0.017766Z M2012.359971,771.600457l0.041313,-0.065143l-0.017705,-0.08291l-0.070822,-0.035533l-0.035411,0.047377l0.029509,0.118443l0.053116,0.017766Z M2012.112094,771.689289l0.053116,-0.005922l0.017705,-0.053299l-0.047215,-0.029611l-0.047215,0.035533l0.023607,0.053299Z M2012.779001,770.593695l0.147546,-0.053299l0.171153,-0.124365l-0.035411,-0.053299l-0.106233,0.011844l-0.236073,0.136209l-0.011804,0.071066l0.070822,0.011844Z M2012.944252,770.795047l0.100331,0.059221l0.076724,-0.011844l0.112135,-0.153975l0.118037,-0.005922l0.212466,-0.08291l0.011804,-0.047377l-0.218368,-0.035533l-0.300993,0.059221l-0.118037,0.118443l0.005902,0.100676Z M2004.130849,768.132063l0.062953,-0.031585l0.031476,-0.157923l-0.055084,-0.134235l-0.08656,-0.031585l-0.055084,0.047377l0.015738,0.150027l0.08656,0.157923Z M2007.010943,769.079603l0.125906,0.039481l0.125906,-0.063169l0.031476,-0.086858l-0.08656,-0.118443l-0.204597,-0.031585l-0.078691,0.063169l-0.015738,0.10265l0.102298,0.094754Z M2006.389283,764.48403l0.031476,0.134235l0.062953,0.023689l0.055084,-0.055273l-0.039346,-0.142131l-0.062953,-0.015792l-0.047215,0.055273Z M2002.613094,764.369536l-0.03246,0.169768l0.011804,0.055273l0.06492,0.035533l0.025575,-0.035533l-0.04328,-0.130287v-0.08291l-0.026558,-0.011844Z M2005.100716,766.38306l0.011804,-0.053299l-0.041313,-0.035533l-0.041313,0.035533l0.011804,0.053299h0.059018Z M2005.136127,767.147015l0.171153,0.076988l0.112135,-0.041455v-0.094754l-0.06492,-0.065143l0.011804,-0.059221l0.12984,-0.017766l0.005902,-0.094754l-0.088527,-0.130287l-0.023607,-0.461926l-0.047215,-0.053299l-0.041313,0.041455l-0.023607,0.236885l0.053116,0.11252l-0.011804,0.094754l-0.118037,0.005922l-0.171153,-0.106598l-0.100331,0.029611l0.017705,0.207275l0.106233,0.159898l0.19476,0.059221v0.035533l-0.100331,0.017766l-0.011804,0.047377Z M2006.480207,765.359898l0.038139,0.007831l-0.003571,-0.055558l-0.034951,-0.038078l-0.027588,0.023243l0.027971,0.062562Z M2003.981335,765.376298l0.133775,-0.300055l0.149513,-0.189508l0.047215,-0.16582l0.015738,-0.292158l-0.141644,-0.142131l-0.188859,0.039481l-0.243942,0.410601v0.292158l0.08656,0.307951l0.141644,0.039481Z M1997.463745,767.526031l-0.082626,-0.254652l-0.141644,-0.148053l-0.094429,0.005922l-0.035411,0.076988l0.188859,0.236885l0.135742,0.106598l0.029509,-0.023689Z M1997.77064,767.54972l0.053116,0.041455l0.082626,-0.011844l0.011804,-0.047377l-0.076724,-0.047377l-0.059018,0.011844l-0.011804,0.053299Z M1998.827068,767.976113l0.041313,0.011844l0.106233,-0.100676l-0.017705,-0.035533l-0.094429,0.035533l-0.035411,0.088832Z M1997.461777,767.338497l-0.006114,0.025724l0.030713,0.031047l0.029518,-0.009873l0.002292,-0.033208l-0.024621,-0.024706l-0.031788,0.011016Z M1999.472335,767.812267l0.011804,-0.075014l-0.062953,-0.157923l-0.098364,-0.027637l-0.066887,0.071066l0.011804,0.08291l0.137709,0.110546l0.066887,-0.003948Z M1998.834937,767.749098h0.098364l0.118037,-0.126339l-0.015738,-0.209249l-0.177055,-0.138183l-0.192793,-0.035533l-0.369848,-0.18556l-0.062953,0.023689l-0.015738,0.059221l0.17312,0.189508l0.015738,0.114495l0.145579,0.110546l0.110168,0.031585l0.17312,0.16582Z M2000.48745,766.635738l0.062953,-0.031585l-0.003935,-0.035533l-0.157382,-0.031585l-0.074757,0.039481l0.023607,0.047377l0.149513,0.011844Z M2000.461876,766.454126l-0.017705,-0.020727h-0.038362l-0.020656,0.023689l0.026558,0.02665l0.035411,-0.008883l0.014755,-0.020727Z M1999.762508,766.069187l0.06492,0.005922l0.112135,-0.062182l-0.005902,-0.032572l-0.100331,-0.011844l-0.070822,0.032572l-0.020656,0.038494l0.020656,0.029611Z M1999.538239,766.042538l0.150497,-0.065143l0.144595,-0.041455l0.106233,0.005922l0.035411,-0.020727l0.029509,-0.156936l-0.044264,-0.035533l-0.185908,0.068105l-0.177055,0.153975l-0.109184,0.05626v0.035533h0.050166Z M1999.582503,765.873757l0.19181,-0.133248l0.165251,-0.071066l0.082626,-0.074027l0.035411,-0.088832l-0.026558,-0.014805l-0.120988,0.014805l-0.112135,-0.020727l-0.047215,0.029611l-0.029509,0.11252l-0.123938,0.118443l-0.112135,0.014805l-0.020656,0.053299l0.038362,0.065143l0.079675,-0.005922Z M2000.246459,765.622066l0.265582,-0.041455l0.047215,-0.032572l-0.035411,-0.109559l0.023607,-0.065143l0.082626,-0.029611l0.005902,-0.032572l-0.106233,-0.020727l-0.147546,0.035533l-0.239024,0.219119l0.002951,0.050338l0.100331,0.02665Z M2000.600569,765.471052l0.056067,-0.014805l0.023607,-0.035533l-0.035411,-0.032572l-0.061969,0.008883l-0.017705,0.035533l0.035411,0.038494Z M2000.674342,765.627988l0.115086,-0.02665l0.079675,-0.05626l-0.005902,-0.041455l-0.094429,-0.041455l-0.056067,0.020727l-0.082626,0.127326l0.044264,0.017766Z M2000.824838,766.288306l0.221319,0.005922l0.067871,-0.038494l0.002951,-0.079949l-0.017705,-0.029611l-0.056067,-0.002961l-0.082626,-0.035533h-0.06492l-0.126889,0.071066l-0.014755,0.068105l0.070822,0.041455Z M2000.125471,765.992199l0.014755,0.094754l0.141644,0.05626l0.115086,0.085871l0.126889,0.008883l0.070822,-0.068105l0.112135,-0.017766l0.168202,-0.097715l0.091478,-0.005922l0.091478,0.047377l0.070822,-0.002961l0.029509,-0.079949l-0.005902,-0.379016l0.029509,-0.142131l-0.029509,-0.047377h-0.082626l-0.106233,0.047377l-0.082626,0.11252l-0.182957,0.071066l-0.103282,-0.005922l-0.123938,0.017766l-0.389521,0.177664l-0.011804,0.076988l0.056067,0.050338Z M2007.986713,772.530231l0.017705,-0.059221l-0.023607,-0.065143l-0.047215,-0.023689l-0.017705,0.047377l0.023607,0.094754l0.047215,0.005922Z M2007.207671,771.298428l0.035411,-0.041455l-0.023607,-0.142131l-0.053116,-0.017766l-0.017705,0.047377l0.017705,0.130287l0.041313,0.023689Z M2022.719655,764.416913l0.035411,-0.015792l-0.003935,-0.043429l-0.102298,-0.067117l-0.047215,0.007896l0.007869,0.047377l0.110168,0.071066Z M2002.671128,763.939194l0.039346,-0.011844l0.04328,-0.142131l0.149513,-0.213197l0.110168,-0.422445l-0.039346,-0.075014l-0.066887,0.003948l-0.035411,-0.08291l0.04328,-0.118443l0.039346,0.003948l0.023607,0.055273h0.059018l0.118037,-0.18556l0.023607,-0.106598l-0.106233,-0.094754l-0.098364,0.015792l-0.161317,0.256626l-0.035411,0.134235l-0.188859,0.201352l-0.039346,0.122391l0.019673,0.18556l-0.035411,0.177664l0.031476,0.08291l0.070822,0.055273l0.035411,0.157923Z M2002.202916,757.085315l0.094429,0.063169l0.047215,-0.007896l-0.055084,-0.126339l-0.070822,-0.031585l-0.039346,0.031585l0.023607,0.071066Z M2033.269082,762.186567l0.046237,0.038896l0.053352,-0.105029l-0.009663,-0.11181l-0.02481,-0.047962l-0.061986,0.070999l-0.003129,0.154905Z M2034.823691,763.800524l0.011992,-0.050374l-0.089793,-0.015134l-0.068128,0.045438l0.005121,0.058736l0.070851,0.023373l0.069957,-0.062039Z M2036.268282,764.183749l-0.01882,0.02794l0.022601,0.041441l0.050893,0.01762l0.024755,-0.020843l-0.028536,-0.048538l-0.050893,-0.01762Z M2035.530207,764.186158l-0.006114,0.025724l0.030713,0.031047l0.029518,-0.009873l0.002292,-0.033208l-0.024621,-0.024706l-0.031788,0.011016Z M2033.15368,761.796389v0.032524l0.032412,0.004646l0.013891,-0.032524l-0.018521,-0.018585l-0.027782,0.013939Z M2032.904252,761.704577l0.06492,-0.041455l-0.011804,-0.124365l-0.118037,-0.11252l-0.070822,0.017766l-0.041313,0.08291l0.041313,0.124365l0.135742,0.053299Z M2021.788149,763.424956l0.029509,-0.035533l-0.070822,-0.106598l-0.076724,-0.076988l-0.100331,-0.029611l-0.132791,0.02665l-0.271484,0.011844l-0.011804,0.041455l0.188859,0.062182l0.277386,0.044416l0.168202,0.062182Z M2013.326245,762.823485l0.073863,-0.003088l0.036932,-0.043235l-0.030776,-0.0525l-0.070786,-0.003088l-0.043087,0.030882l-0.012311,0.046323l0.046165,0.024706Z M2017.483851,763.800364l0.046165,-0.023162l-0.046165,-0.07875l-0.07848,-0.023162l-0.041548,0.041691l0.027699,0.069485l0.092329,0.013897Z M2017.238289,759.391305l0.030951,0.020453l0.031107,-0.014758l-0.004837,-0.06584l-0.026016,-0.037766l-0.040026,0.017156l0.008819,0.080755Z M2019.198381,759.486039l0.04905,-0.007383l0.02943,-0.044297l-0.026977,-0.044297l-0.036787,0.007383l-0.02943,0.066445l0.014715,0.022148Z M2017.220765,763.593765l-0.006114,0.025724l0.030713,0.031047l0.029518,-0.009873l0.002292,-0.033208l-0.024621,-0.024706l-0.031788,0.011016Z M2010.010956,753.803241l0.029429,-0.036873l-0.022032,-0.047967l-0.063778,0.017417l-0.014023,0.04809l0.032641,0.039034l0.037763,-0.019701Z M2019.430283,759.162264l0.046165,-0.009265l0.013849,-0.050956l-0.060014,-0.027794l-0.041548,0.027794v0.050956l0.041548,0.009265Z M2018.781573,759.83825l0.040555,-0.014041l0.012153,-0.085779l-0.015758,-0.055394l-0.043643,-0.001409l-0.020483,0.070412l0.027175,0.086211Z M2016.912596,759.573774l0.02597,-0.042577l-0.007472,-0.025624l-0.033746,0.013475l-0.020858,0.021103l-0.012715,0.034405l0.015378,0.01617l0.033442,-0.016952Z M2018.831331,759.62887l0.041313,-0.068105l-0.002951,-0.050338l-0.103282,-0.014805l-0.023607,0.047377l0.044264,0.085871h0.044264Z M2018.82838,759.37718l0.041313,-0.002961l0.03246,-0.08291l-0.017705,-0.050338l-0.06492,-0.005922l-0.041313,0.05626v0.038494l0.050166,0.047377Z M2018.769362,759.196555l0.079675,-0.014805l0.047215,-0.053299l-0.011804,-0.11252l-0.076724,-0.05626l-0.112135,0.020727l-0.020656,0.044416l0.03246,0.121404l0.061969,0.050338Z M2018.890349,758.811616l0.026558,-0.151014l-0.061969,-0.038494l-0.044264,0.014805l-0.041313,0.115482l0.020656,0.085871l0.053116,0.014805l0.047215,-0.041455Z M2018.329675,759.297231l0.03246,-0.047377l-0.020656,-0.029611l-0.120988,-0.008883l-0.056067,0.041455l0.020656,0.038494l0.144595,0.005922Z M2016.148948,759.394946l0.073773,-0.008883l0.12984,-0.13917v-0.032572l-0.103282,0.005922l-0.132791,0.065143l-0.011804,0.074027l0.044264,0.035533Z M2017.769001,759.246893l0.026558,-0.002961l0.008853,-0.136209l-0.035411,-0.074027l-0.047215,0.008883l-0.035411,0.053299l0.014755,0.062182l0.067871,0.088832Z M2016.807002,759.300192l0.150497,-0.068105l0.103282,-0.008883l0.03246,-0.038494l-0.023607,-0.041455l-0.147546,-0.005922l-0.135742,0.085871l-0.020656,0.05626l0.041313,0.020727Z M2011.476663,757.420903l0.039346,0.059221l0.066887,0.011844l0.015738,-0.031585l-0.08656,-0.130287l-0.027542,0.003948l-0.007869,0.086858Z M2016.467647,765.832302l0.047215,0.011844l0.06492,-0.038494l0.008853,-0.05626l-0.041313,-0.02665l-0.059018,0.041455l-0.020656,0.068105Z M2013.373119,762.620533l0.137709,-0.047377l0.007869,-0.031585l-0.08656,-0.023689l-0.157382,0.043429l0.003935,0.055273l0.094429,0.003948Z M2013.479352,763.098252l0.090495,0.003948l0.098364,-0.08291l-0.011804,-0.075014l-0.098364,-0.047377l-0.08656,0.027637l-0.027542,0.114495l0.035411,0.059221Z M2013.853135,762.735028l0.059018,0.023689l0.051149,-0.039481l-0.003935,-0.047377l-0.094429,-0.027637l-0.039346,0.01974l0.027542,0.071066Z M2016.674211,763.729946l0.047215,0.122391l0.070822,0.023689l0.015738,-0.059221l-0.039346,-0.173716l-0.039346,-0.015792l-0.047215,0.023689l-0.007869,0.078962Z M2016.94963,763.749686l0.059018,0.157923l0.157382,0.122391l0.051149,-0.011844l0.031476,-0.134235l-0.090495,-0.138183l-0.094429,-0.027637l-0.059018,-0.090806l-0.04328,0.007896l-0.011804,0.114495Z M2008.875922,761.049195l0.090495,-0.011844l0.157382,0.035533l0.04328,0.059221l0.169186,0.01974l0.098364,-0.047377l0.275419,0.039481l0.110168,0.051325l0.102298,0.007896l0.125906,-0.071066l0.157382,0.007896l0.12984,-0.035533l0.082626,-0.122391l-0.019673,-0.047377l-0.090495,0.007896l-0.04328,-0.067117l-0.121971,-0.015792l-0.153448,0.043429l-0.070822,0.16582l-0.04328,-0.007896l-0.066887,-0.142131l-0.094429,-0.015792l-0.039346,-0.059221l-0.090495,-0.015792l-0.165251,0.047377h-0.18099l-0.220335,-0.071066l-0.12984,0.039481l-0.059018,0.118443l0.047215,0.086858Z M2006.806346,757.914413l0.409194,0.63959l0.299026,0.086858l0.369848,-0.118443l0.212466,-0.339535l0.047215,-0.323743l-0.062953,-0.086858l-0.125906,0.023689l-0.094429,0.307951h-0.078691v-0.228989l0.102298,-0.292158l-0.17312,-0.252678l-0.542969,-0.110546l-0.275419,0.221093l-0.08656,0.47377Z M2011.539616,756.504946l0.019673,0.110546l0.066887,0.106598l0.149513,0.063169l0.055084,-0.031585l-0.015738,-0.118443l-0.106233,-0.067117l-0.04328,-0.10265l0.007869,-0.08291l-0.070822,-0.110546l-0.070822,0.011844l0.003935,0.08291l-0.035411,0.035533h-0.070822l-0.003935,0.043429l0.114102,0.059221Z M2011.386169,756.378608l0.059018,-0.011844l-0.015738,-0.086858l-0.114102,-0.181612l0.023607,-0.035533l0.074757,0.023689l0.062953,0.106598l0.255746,0.075014l0.326568,0.367172l0.188859,0.094754l0.137709,0.177664l0.102298,0.011844l0.302961,-0.339535l0.121971,-0.260574h0.04328l0.007869,0.071066l0.133775,0.051325l0.196728,0.422445l0.003935,0.130287l0.062953,0.236885l0.082626,0.118443l0.023607,0.248729l0.059018,0.118443l0.137709,0.122391l0.007869,0.122391l-0.039346,0.304003l-0.082626,0.075014l0.007869,0.10265l0.346241,0.37112l0.251812,0.063169l0.059018,-0.011844l0.08656,-0.130287l0.18099,-0.063169l0.519361,0.007896l0.137709,0.075014l0.078691,0.106598l0.232139,0.110546l0.322634,0.039481l0.18099,-0.106598l0.302961,-0.075014l0.204597,0.015792l0.295092,-0.169768l0.177055,-0.035533l0.279353,-0.228989l0.062953,-0.098702l0.102298,-0.047377l0.019673,-0.063169l-0.153448,-0.078962l-0.110168,-0.003948l-0.102298,0.055273l-0.110168,-0.027637l-0.137709,-0.118443l-0.051149,-0.161872l-0.18099,-0.063169l-0.365914,0.110546l-0.08656,0.067117l-0.114102,-0.007896l-0.082626,-0.075014l-0.027542,-0.201352l-0.078691,-0.075014l-0.251812,-0.130287l-0.08656,-0.126339l0.003935,-0.181612l-0.192793,-0.18556l-0.090495,-0.011844l-0.066887,-0.047377l0.035411,-0.153975l-0.121971,-0.157923l-0.562641,-0.307951l-0.133775,-0.031585l-0.369848,-0.501407l-0.350175,-0.161872l-0.074757,0.003948l-0.188859,0.244781l-0.157382,0.039481l-0.118037,-0.01974l-0.066887,-0.094754l-0.08656,-0.003948l-0.08656,0.059221l-0.098364,-0.023689l-0.023607,-0.118443l-0.141644,-0.177664l-0.153448,-0.031585l-0.125906,0.059221l-0.106233,0.134235l-0.035411,-0.011844v-0.189508l-0.051149,-0.055273l-0.196728,-0.023689l-0.066887,0.075014l-0.098364,0.003948l-0.247877,-0.08291l-0.106233,0.011844l-0.275419,-0.059221l-0.098364,0.031585l-0.090495,-0.015792l-0.094429,-0.153975l-0.082626,-0.027637l-0.118037,0.051325l-0.011804,0.090806l0.04328,0.138183l0.098364,0.090806l0.031476,0.205301l0.066887,0.130287l0.22427,0.280314l0.232139,0.090806l0.082626,0.10265Z M2020.258591,763.129836l0.196728,0.007896l0.287223,-0.16582l0.015738,-0.055273l-0.133775,-0.10265l-0.271484,-0.08291l-0.177055,-0.114495l-0.177055,-0.039481l-0.114102,0.031585l-0.12984,-0.01974l-0.177055,-0.067117l-0.605922,-0.039481l-0.188859,0.027637l-0.39739,-0.035533l-0.255746,-0.110546l-0.330503,-0.007896l-0.26755,0.094754l-0.401325,-0.055273l-0.472147,-0.240833l-0.291157,-0.039481l-0.12984,-0.106598l-0.12984,-0.027637l-0.153448,0.01974l-0.605922,-0.031585l-0.161317,0.063169l-0.562641,-0.055273l-0.153448,-0.059221l-0.405259,-0.023689l-0.098364,0.067117l-0.015738,0.08291l-0.066887,0.003948l-0.177055,-0.118443l-0.208531,-0.075014l-0.342306,-0.035533l-0.133775,0.031585l-0.200662,-0.011844l-0.074757,-0.043429l-0.26755,-0.027637l-0.17312,0.027637l-0.253779,-0.055273l-0.179323,0.00579l-0.361678,-0.041323l-0.165251,-0.051325l-0.373783,0.007896l-0.003935,0.031585l0.192793,0.086858l0.125906,0.16582l0.0541,0.191482l0.206564,0.038494l0.091478,-0.074027l0.037378,0.00987l0.011804,0.075014l0.059018,0.007896l0.153448,-0.043429l0.346241,0.059221l0.051149,0.039481l0.409194,0.08291l0.169186,-0.055273l0.141644,0.023689l0.137709,0.114495l0.059018,0.007896l0.070822,-0.015792l0.141644,0.027637l0.04328,0.059221l0.17312,0.071066l0.04328,0.089819l0.062953,0.012831l0.137709,-0.08291l0.171153,0.067117l0.09738,0.198391l0.056067,-0.002961l0.014755,-0.047377l-0.029509,-0.068105l0.029509,-0.029611l0.247877,0.233924l0.156399,0.075014l0.019673,0.067117l0.192793,0.071066l0.137709,-0.015792l0.082626,0.015792l0.161317,0.134235l0.110168,0.01974l0.177055,-0.023689l0.259681,0.047377l0.157382,0.118443l0.070822,0.007896l0.106233,-0.031585l0.090495,0.011844l0.118037,0.122391l-0.001967,0.114495l0.023607,0.005922l0.082626,-0.094754l0.061969,-0.005922l0.030493,0.078962l0.035411,0.007896l0.059018,-0.086858l0.134759,-0.059221l0.117053,-0.098702l0.275419,-0.011844l0.145579,0.086858l0.192793,0.031585l0.090495,-0.027637l0.208531,0.031585l0.102298,0.059221l0.062953,-0.003948l0.102298,-0.063169l0.118037,0.007896l0.177055,0.094754l0.051149,-0.023689l-0.039346,-0.086858l-0.125906,-0.094754l0.039346,-0.023689l0.153448,0.031585l0.460343,-0.023689l0.102298,0.039481l0.149513,-0.027637l0.082626,-0.094754l0.165251,-0.075014l0.094429,0.023689l0.059018,-0.047377l-0.003935,-0.08291l0.08656,-0.039481l0.196728,0.043429l0.106233,-0.003948l0.08656,-0.059221l0.149513,0.007896l0.110168,0.043429Z M1983.49804,744.088213l0.035411,0.007896l0.102298,-0.106598l-0.007869,-0.098702l-0.059018,-0.007896l-0.047215,0.078962l-0.023607,0.126339Z M1983.387873,744.186915l-0.035411,0.078962l0.015738,0.031585l0.066887,-0.051325l0.035411,-0.075014l-0.035411,-0.01974l-0.047215,0.035533Z M1982.090598,748.598268l0.08656,0.035533l0.039346,-0.023689l-0.028527,-0.092635l-0.079026,-0.079419l-0.049729,-0.020738l-0.027642,0.062505l0.059018,0.118443Z M1976.862587,751.781663l0.058561,0.045276l0.055987,-0.009299l0.010054,-0.060068l-0.052247,-0.048022l-0.052789,-0.004134l-0.039105,0.027545l0.019538,0.048702Z M1974.680666,761.953534l0.013849,-0.07875l-0.046165,-0.041691l-0.046165,0.009265l-0.013849,0.055588l0.036932,0.069485l0.055398,-0.013897Z M1983.477821,757.311287l0.061055,-0.051393l-0.008658,-0.061713l-0.041299,-0.022679l-0.046218,0.03365l-0.01622,0.07705l0.051339,0.025086Z M1981.276648,760.241568l0.069021,-0.039974l0.002154,-0.062284l-0.036747,-0.029531l-0.051339,0.025086l-0.029307,0.073053l0.046218,0.03365Z M1981.105156,750.919286l0.055398,-0.018529v-0.064853l-0.049242,-0.0525l-0.086174,-0.009265l-0.05232,0.055588l0.021544,0.061765l0.110795,0.027794Z M1976.832873,755.643192l0.020527,-0.047519l-0.08581,-0.03055l-0.074956,0.032877l-0.005121,0.058736l0.06573,0.035363l0.079631,-0.048906Z M1983.078279,757.016737l0.079838,-0.055377l0.035242,-0.070515l-0.033674,-0.024857l-0.084907,0.036394l-0.03755,0.074527l0.041051,0.039829Z M1976.6858,755.957076l0.069042,-0.068447l0.022504,-0.075585l-0.037464,-0.018612l-0.077319,0.050635l-0.024083,0.079938l0.04732,0.032071Z M1982.394486,758.971164l0.030961,0.015095l0.05737,-0.040646l0.025927,-0.084437l-0.039697,-0.034365l-0.03359,0.028848l-0.040971,0.115504Z M1978.220895,765.161205l0.090663,0.044264l0.113658,0.02011l-0.007226,-0.038909l-0.05964,-0.034071l-0.13639,-0.024132l-0.001065,0.032738Z M1982.599965,759.121373l0.097807,-0.024569l0.099949,-0.057904l-0.03046,-0.025145l-0.067513,0.012368l-0.119939,0.069485l0.020156,0.025766Z M1976.881639,750.320766l-0.028111,0.028734l0.058099,0.03765l0.109203,0.004348l0.017161,-0.021598l-0.052718,-0.033345l-0.103633,-0.015789Z M1982.16105,758.86874l0.029518,0.000912l0.021411,-0.060269l-0.001658,-0.078771l-0.02539,-0.015915l-0.028502,0.065571l0.004621,0.088472Z M1979.603727,754.774864l0.012591,0.026805l0.063237,-0.008219l0.069192,-0.037244l0.002605,-0.029926l-0.071163,0.004286l-0.076461,0.044297Z M1976.706495,750.416569l0.016839,-0.024344l-0.038712,-0.050843l-0.066739,-0.041506l-0.02713,0.012699l0.039281,0.059698l0.076461,0.044297Z M1978.191306,764.111323l-0.013699,0.030795l0.029429,0.036873l0.053169,0.008485l0.020772,-0.02484l-0.036502,-0.042828l-0.053169,-0.008485Z M1977.871571,764.952495l0.024154,0.02345l0.044596,-0.015138l0.02613,-0.047232l-0.016158,-0.028082l-0.052592,0.019771l-0.02613,0.047232Z M1972.86973,759.111232l0.033524,0.002385l0.024465,-0.040361l-0.010239,-0.053036l-0.030366,-0.01109l-0.027623,0.049067l0.010239,0.053036Z M1977.514398,753.108611l0.009233,0.032426l0.046165,0.009265l0.046165,-0.027794v-0.032426l-0.055398,-0.009265l-0.046165,0.027794Z M1976.289097,764.807139l0.027699,-0.024706l-0.006155,-0.033971l-0.064631,-0.012353l-0.043087,0.015441l0.006155,0.043235l0.080019,0.012353Z M1979.136598,758.650402l0.027699,-0.024706l-0.006155,-0.033971l-0.064631,-0.012353l-0.043087,0.015441l0.006155,0.043235l0.080019,0.012353Z M1974.546719,756.613167l0.037045,-0.00106l0.017046,-0.029993l-0.041597,-0.051149l-0.042898,-0.015962l-0.022981,0.03709l0.053385,0.061075Z M1983.049074,747.19341l0.029057,0.023082l0.032271,-0.011982l0.000901,-0.066013l-0.022636,-0.039897l-0.041364,0.01359l0.001772,0.081219Z M1977.303127,760.564928l0.064631,-0.006176l0.003078,-0.030882l-0.067708,-0.021618l-0.049242,0.012353l-0.003078,0.027794l0.05232,0.018529Z M1982.322654,758.573962l-0.006155,-0.064853l-0.030776,-0.003088l-0.021544,0.067941l0.012311,0.049412l0.027699,0.003088l0.018466,-0.0525Z M1979.004061,758.613922l0.003078,-0.033971l-0.043087,0.003088l-0.043087,0.037059l0.024621,0.018529l0.058475,-0.024706Z M1981.208637,756.469731l0.020362,-0.027314l-0.03831,-0.020027l-0.056051,0.008906l0.011293,0.028728l0.062705,0.009707Z M1973.714184,762.460774l0.034687,-0.003045l0.022601,-0.041441l-0.074603,-0.07894l-0.035446,-0.005656l-0.016666,0.034344l0.069427,0.094739Z M1978.327052,764.162216l0.030897,0.038933l0.052946,0.003426l0.024742,-0.045592l-0.024765,-0.028277l-0.072061,0.007648l-0.011758,0.023862Z M1973.727688,759.206899l0.04905,-0.007383l0.02943,-0.044297l-0.026977,-0.044297l-0.036787,0.007383l-0.02943,0.066445l0.014715,0.022148Z M1982.884158,758.202273l0.048608,0.009896l0.042754,-0.031525l-0.010252,-0.050884l-0.037085,-0.005688l-0.050303,0.052338l0.006278,0.025863Z M1982.172911,759.175471l0.04905,-0.007383l0.02943,-0.044297l-0.026977,-0.044297l-0.036787,0.007383l-0.02943,0.066445l0.014715,0.022148Z M1981.379821,751.167879l0.030897,0.038933l0.052946,0.003426l0.024742,-0.045592l-0.024765,-0.028277l-0.072061,0.007648l-0.011758,0.023862Z M1976.497061,751.690563l0.001272,-0.049753l-0.038364,-0.036775l-0.048159,0.018967l0.000858,0.037635l0.060101,0.040621l0.024292,-0.010695Z M1979.782728,758.712722l0.036932,-0.012353l-0.030776,-0.046323l-0.049242,-0.015441l-0.012311,0.033971l0.055398,0.040147Z M1978.239965,765.440621l0.058904,-0.017924l0.046815,-0.038771l-0.02353,-0.01188l-0.076522,0.021349l-0.035901,0.031255l0.030233,0.015972Z M1976.922396,765.810585l0.056605,0.024262l0.060699,0.000495l-0.010415,-0.024277l-0.072295,-0.033002l-0.047523,0.000787l0.012929,0.031735Z M1978.327705,765.738835l-0.00891,0.032918l0.035661,0.028261l0.041005,-0.002152l0.016933,-0.025227l-0.026568,-0.026652l-0.058121,-0.007148Z M1982.783877,758.967532l0.023955,0.024202l0.042221,-0.016859l0.018645,-0.03671l-0.013305,-0.027329l-0.036286,0.009762l-0.03523,0.046934Z M1978.099166,753.986066l0.014262,0.030963l0.045421,-0.001352l0.030033,-0.028097l-0.003188,-0.030247l-0.037425,-0.00328l-0.049102,0.032013Z M1976.461386,752.972409l0.024621,-0.012353l-0.033854,-0.033971h-0.036932l0.006155,0.030882l0.040009,0.015441Z M1972.849587,759.205972l0.024196,0.037132l0.029146,-0.018105l0.004989,-0.035771l-0.038976,-0.008678l-0.019356,0.025422Z M1976.177545,760.550529l-0.010137,0.043183l0.033161,0.008714l0.029268,-0.021026l-0.020595,-0.034319l-0.031697,0.003447Z M1977.016417,753.476014l-0.010137,0.043183l0.033161,0.008714l0.029268,-0.021026l-0.020595,-0.034319l-0.031697,0.003447Z M1973.78341,762.277964l0.012791,0.04256l0.026448,-0.005646l0.012262,-0.039375l-0.026977,-0.019687l-0.024525,0.022148Z M1976.337386,751.041662l0.044231,0.002495l0.003759,-0.02687l-0.032679,-0.02503l-0.027664,0.018704l0.012353,0.0307Z M1978.043414,764.683638l0.011794,0.023649l0.043416,0.003974l0.016288,-0.026603l-0.019517,-0.026917l-0.034687,-0.003045l-0.017294,0.028942Z M1978.049763,765.097904l0.007523,0.025345l0.042069,0.011479l0.020644,-0.02336l-0.014562,-0.029909l-0.033633,-0.009043l-0.02204,0.025489Z M1979.662771,764.459867l-0.006114,0.025724l0.030713,0.031047l0.029518,-0.009873l0.002292,-0.033208l-0.024621,-0.024706l-0.031788,0.011016Z M1973.278161,762.734873l-0.006114,0.025724l0.030713,0.031047l0.029518,-0.009873l0.002292,-0.033208l-0.024621,-0.024706l-0.031788,0.011016Z M1974.790916,762.398098l-0.006114,0.025724l0.030713,0.031047l0.029518,-0.009873l0.002292,-0.033208l-0.024621,-0.024706l-0.031788,0.011016Z M1975.957151,760.552979l-0.006114,0.025724l0.030713,0.031047l0.029518,-0.009873l0.002292,-0.033208l-0.024621,-0.024706l-0.031788,0.011016Z M1983.449171,757.47951l-0.006114,0.025724l0.030713,0.031047l0.029518,-0.009873l0.002292,-0.033208l-0.024621,-0.024706l-0.031788,0.011016Z M1977.77264,753.287722l-0.023568,0.011835l-0.00396,0.043565l0.026511,0.016344l0.026825,-0.019584l0.003035,-0.034806l-0.028842,-0.017354Z M1976.936722,753.57806l-0.006114,0.025724l0.030713,0.031047l0.029518,-0.009873l0.002292,-0.033208l-0.024621,-0.024706l-0.031788,0.011016Z M1976.799301,753.16344l0.011794,0.023649l0.043416,0.003974l0.016288,-0.026603l-0.019517,-0.026917l-0.034687,-0.003045l-0.017294,0.028942Z M1976.408418,765.261373l0.116182,0.004792l0.03383,-0.014501l-0.051303,-0.024038l-0.118635,-0.00053l-0.010139,0.022543l0.030064,0.011734Z M1979.128247,765.573321l0.061682,0.015843l0.005891,-0.025004l-0.062491,-0.039045l-0.041669,-0.001407l-0.008912,0.020412l0.0455,0.029201Z M1976.712619,760.090507l0.035933,-0.052743l-0.021401,-0.014106l-0.057938,0.045571l-0.015569,0.038809l0.016067,0.015385l0.042908,-0.032916Z M1978.248505,765.772447l0.033854,-0.006176l0.006155,-0.024706l-0.027699,-0.018529h-0.05232l-0.012311,0.024706l0.05232,0.024706Z M1977.530523,754.278963l0.033854,-0.006176l0.006155,-0.024706l-0.027699,-0.018529h-0.05232l-0.012311,0.024706l0.05232,0.024706Z M1973.689146,758.731162l0.046165,-0.009265l0.013849,-0.050956l-0.060014,-0.027794l-0.041548,0.027794v0.050956l0.041548,0.009265Z M1975.710508,750.155427l0.029429,-0.036873l-0.022032,-0.047967l-0.063778,0.017417l-0.014023,0.04809l0.032641,0.039034l0.037763,-0.019701Z M1974.274566,762.113923l0.058114,0.046163l0.038157,-0.031838l-0.034936,-0.056536l-0.057763,-0.008595l-0.003573,0.050806Z M1973.409405,759.168578l0.028138,0.020901l0.035761,-0.010835l-0.013583,-0.023901l-0.026794,-0.015637l-0.026749,0.006412l0.003228,0.02306Z M1983.365238,757.063631l-0.002131,-0.035064l-0.031258,-0.020524l-0.009515,0.025804l0.005285,0.030647l0.022089,0.01644l0.01553,-0.017303Z M1979.7189,753.832092l0.034043,-0.008194l0.014715,-0.034453l-0.026977,-0.004922l-0.02916,0.010545l-0.012299,0.024683l0.019679,0.012342Z M1976.947609,755.681256l0.025399,-0.024176l-0.004424,-0.03722l-0.025816,0.009273l-0.019999,0.023762l0.001648,0.027547l0.023192,0.000815Z M1976.623871,765.262308l0.00981,0.024609l0.022072,-0.002461l0.02943,-0.024609l-0.014715,-0.022148l-0.031882,0.004922l-0.014715,0.019687Z M1977.723242,765.150623l0.036932,0.006176l0.012311,-0.015441l-0.027699,-0.033971l-0.033854,-0.003088l-0.003078,0.021618l0.015388,0.024706Z M1983.282235,744.362434l-0.012475,0.035423l0.013017,0.014847l0.03815,-0.021473l0.00891,-0.032918l-0.020682,-0.006795l-0.026919,0.010916Z M1976.99371,765.118232l0.009233,0.037059l0.060014,0.013897l0.036932,-0.037059l-0.018466,-0.032426l-0.050781,-0.013897l-0.036932,0.032426Z M1982.255568,751.28597l0.009233,0.037059l0.060014,0.013897l0.036932,-0.037059l-0.018466,-0.032426l-0.050781,-0.013897l-0.036932,0.032426Z M1977.687423,753.175657l0.030812,0.022433l0.054876,-0.028063l0.004552,-0.05221l-0.034918,-0.01293l-0.047803,0.022108l-0.007519,0.048661Z M1983.245494,758.492619l0.015534,-0.069914l-0.018394,-0.039582l-0.03682,0.029276l-0.021063,0.094186l0.015768,0.028764l0.044975,-0.04273Z M1973.77134,756.156957l0.065919,0.027491l0.042041,-0.011304l-0.022339,-0.041469l-0.08878,-0.03717l-0.030968,0.010587l0.034126,0.051864Z M1974.28705,748.777872l0.070786,-0.009265l0.030776,-0.030882l-0.040009,-0.024706l-0.095407,0.012353l-0.021544,0.024706l0.055398,0.027794Z M1973.640013,759.485872l0.027699,-0.027794l-0.021544,-0.027794h-0.058475l-0.036932,0.024706l0.003078,0.033971l0.086174,-0.003088Z M1981.877247,759.67985l0.021905,0.032587l0.031301,-0.015917l0.011158,-0.057598l-0.017122,-0.041092l-0.033819,-0.00345l-0.013422,0.085471Z M1976.748932,762.369317l0.046597,-0.017227l0.004905,-0.02707l-0.046597,-0.012305l-0.031882,0.022148l-0.002452,0.031992l0.02943,0.002461Z M1977.620777,764.656174l0.048938,0.00846l0.017737,-0.020983l-0.034223,-0.034035l-0.038647,0.003185l-0.018065,0.026476l0.024261,0.016897Z M1971.159954,758.95253l0.043103,0.024745l0.023819,-0.01363l-0.020559,-0.043728l-0.037402,-0.010271l-0.026,0.018679l0.017038,0.024204Z M1982.029458,756.960824l0.024661,-0.043252l-0.013583,-0.023901l-0.043578,0.020629l-0.010235,0.037531l0.018615,0.026089l0.024121,-0.017097Z M1979.480074,764.555568l-0.007357,0.031992l0.026977,0.012305l0.041692,-0.009844v-0.02707l-0.02943,-0.017227l-0.031882,0.009844Z M1983.21931,756.61267l0.036787,-0.002461l0.00981,-0.019687l-0.04905,-0.022148l-0.046597,0.004922l0.002452,0.029531l0.046597,0.009844Z M1978.242603,763.681935h0.036787l0.014715,-0.029531l-0.02943,-0.029531l-0.051502,0.002461l-0.00981,0.031992l0.03924,0.024609Z M1972.9313,762.842421l0.028181,0.023728l0.03019,-0.013131l-0.003627,-0.041604l-0.04103,-0.031334l-0.028009,0.01818l0.014295,0.044162Z M1976.867476,755.533083h0.036787l0.014715,-0.029531l-0.02943,-0.029531l-0.051502,0.002461l-0.00981,0.031992l0.03924,0.024609Z M1973.668769,756.64923h0.036787l0.014715,-0.029531l-0.02943,-0.029531l-0.051502,0.002461l-0.00981,0.031992l0.03924,0.024609Z M1973.176669,762.815705l0.045292,0.01777l0.018664,-0.025175l-0.049197,-0.083923l-0.034438,-0.01481l-0.017219,0.02962l0.036898,0.076518Z M1983.215954,757.837895l0.045292,0.01777l0.018664,-0.025175l-0.049197,-0.083923l-0.034438,-0.01481l-0.017219,0.02962l0.036898,0.076518Z M1982.676671,757.13051l0.009576,-0.047843l-0.027949,-0.014072l-0.073821,0.063189l-0.008555,0.036603l0.03206,0.011872l0.06869,-0.049749Z M1976.12892,750.096973l-0.088876,-0.057173l-0.060896,-0.007365l-0.031697,0.045825l0.159549,0.091263l0.062813,-0.005232l-0.040893,-0.067318Z M1973.813326,759.274232v0.032524l0.032412,0.004646l0.013891,-0.032524l-0.018521,-0.018585l-0.027782,0.013939Z M1977.451758,761.55589v0.032524l0.032412,0.004646l0.013891,-0.032524l-0.018521,-0.018585l-0.027782,0.013939Z M1977.069866,760.554777l0.027782,0.006195l0.018521,-0.021682l-0.018521,-0.021682l-0.027782,0.009292v0.027877Z M1976.234511,764.873268l0.00738,-0.019747l-0.017219,-0.009873l-0.017219,0.01481l0.00492,0.019747l0.022139,-0.004937Z M1983.515577,753.699022l0.038916,-0.031096l0.001712,-0.026644l-0.036303,0.001081l-0.026793,0.012672l-0.023675,0.027966l0.008939,0.020473l0.037204,-0.004452Z M1977.124926,753.506985l0.049197,-0.007405l0.014759,-0.022215l-0.031978,-0.017278l-0.029518,-0.002468l-0.034438,0.012342l-0.00246,0.022215l0.034438,0.01481Z M1982.606782,747.717675l0.037276,0.033057l0.026446,-0.002934l-0.007365,-0.035687l-0.01709,-0.024277l-0.031558,-0.018539l-0.01854,0.012389l0.01083,0.035991Z M1977.87669,764.617631l0.024599,-0.019747l-0.00246,-0.027151l-0.031978,-0.009873l-0.022139,0.022215l0.00246,0.024683l0.029518,0.009873Z M1977.235625,761.801435l0.024599,-0.019747l-0.00246,-0.027151l-0.031978,-0.009873l-0.022139,0.022215l0.00246,0.024683l0.029518,0.009873Z M1977.052535,755.596393l0.024599,-0.019747l-0.00246,-0.027151l-0.031978,-0.009873l-0.022139,0.022215l0.00246,0.024683l0.029518,0.009873Z M1977.130773,755.498665v0.024683l0.022139,0.01481l0.029518,-0.01481l-0.00738,-0.032088l-0.034438,-0.009873l-0.009839,0.017278Z M1982.669264,747.097921l0.023115,0.008442l0.021441,-0.01581l-0.003773,-0.032899l-0.032574,-0.004016l-0.021024,0.029096l0.012815,0.015187Z M1978.838688,765.944188l0.024599,-0.009873v-0.024683l-0.022139,-0.019747l-0.022139,0.01481l0.00246,0.024683l0.017219,0.01481Z M1973.119812,759.441689l0.024599,-0.009873v-0.024683l-0.022139,-0.019747l-0.022139,0.01481l0.00246,0.024683l0.017219,0.01481Z M1977.357328,761.75132l0.024599,-0.009873v-0.024683l-0.022139,-0.019747l-0.022139,0.01481l0.00246,0.024683l0.017219,0.01481Z M1973.103575,759.315832v0.024683l0.022139,0.012342l0.019679,-0.017278l0.00246,-0.024683l-0.012299,-0.012342l-0.031978,0.017278Z M1973.681955,759.286222v0.024683l0.022139,0.012342l0.019679,-0.017278l0.00246,-0.024683l-0.012299,-0.012342l-0.031978,0.017278Z M1976.559276,761.968484l0.027724,-0.002434l0.01174,-0.025559l-0.016959,-0.014279l-0.027421,0.005911l-0.015205,0.025863l0.020122,0.010498Z M1975.944817,756.079899l0.019679,-0.019747l-0.00738,-0.027151h-0.022139l-0.017219,0.022215l0.00492,0.02962l0.022139,-0.004937Z M1977.935708,765.055869l0.022139,-0.024683l-0.00738,-0.02962l-0.022139,-0.002468l-0.024599,0.034556v0.02962l0.031978,-0.007405Z M1975.88187,760.691259l0.022139,-0.024683l-0.00738,-0.02962l-0.022139,-0.002468l-0.024599,0.034556v0.02962l0.031978,-0.007405Z M1977.712709,753.007133l-0.02038,-0.026164l-0.030351,0.002149l-0.006267,0.021449l0.029643,0.030309l0.02907,0.005143l-0.001715,-0.032886Z M1972.774373,762.893181l-0.012865,-0.07321l-0.038352,-0.030958l-0.03648,0.006454l0.00348,0.046563l0.053904,0.065949l0.030312,-0.014799Z M1979.722247,751.902563l-0.080259,0.04956l-0.006174,0.06195h0.067911l0.092606,-0.06195 l-0.006174,-0.055755l-0.067911,0.006195Z M1976.144859,755.974577l0.080259,-0.04956l0.006174,-0.06195h-0.067911l-0.092606,0.06195l0.006174,0.055755l0.067911,-0.006195Z M1973.891033,759.15708l-0.021544,0.033971l0.064631,0.024706l0.107718,-0.018529l0.012311,-0.024706l-0.058475,-0.021618l-0.10464,0.006176Z M1979.21622,764.292438l0.002182,0.029553l0.061972,0.015067l0.077897,-0.009889l0.01312,-0.027001l-0.067967,-0.021589l-0.087203,0.013859Z M1977.77189,752.547018l-0.041629,0.004411l-0.042645,-0.024706l-0.018466,0.032094l0.036077,0.042297l0.056494,0.000636l0.029127,-0.025917l-0.018959,-0.028814Z M1977.638122,752.301547l0.043087,-0.021618l-0.018466,-0.021618l-0.080019,0.009265l0.003078,0.024706l0.05232,0.009265Z M1976.196206,753.207608l0.009862,-0.048775l-0.031417,-0.042901l-0.05071,0.010287l-0.005668,0.037213l0.052158,0.050476l0.025774,-0.0063Z M1972.849482,763.057912l0.018153,-0.046316l-0.023516,-0.047723l-0.051719,0.001295l-0.012022,0.03566l0.042631,0.058797l0.026473,-0.001713Z M1979.600345,755.685963l0.042304,0.025982l0.05092,-0.014951l0.00771,-0.051334l-0.03291,-0.018072l-0.065108,0.031918l-0.002916,0.026458Z M1981.213903,765.332097l0.045524,0.044667l0.01756,-0.018698l-0.034664,-0.065167l-0.035385,-0.022125l-0.017889,0.013205l0.024854,0.048118Z M1978.65086,751.336494l0.033854,-0.006176l0.006155,-0.024706l-0.027699,-0.018529h-0.05232l-0.012311,0.024706l0.05232,0.024706Z M1972.937361,759.45649l0.028536,0.048538l0.043128,-0.006078l0.031136,-0.056452l-0.026707,-0.031937l-0.046665,0.009056l-0.029429,0.036873Z M1977.037723,755.012024l0.036502,0.042828l0.041421,-0.013501l0.020894,-0.06102l-0.031828,-0.026799l-0.044389,0.017049l-0.022601,0.041441Z M1979.463756,755.815345l0.039358,-0.009873l0.014759,-0.017278l-0.027058,-0.012342l-0.041818,0.012342l-0.00738,0.019747l0.022139,0.007405Z M1979.683226,755.777949l0.031796,0.004217l0.027789,-0.021712l-0.002426,-0.02782l-0.031493,-0.000739l-0.021162,0.017626l-0.004505,0.028428Z M1971.558994,758.833384l0.027782,0.006195l0.018521,-0.021682l-0.018521,-0.021682l-0.027782,0.009292v0.027877Z M1975.351905,751.545216l0.027782,0.006195l0.018521,-0.021682l-0.018521,-0.021682l-0.027782,0.009292v0.027877Z M1979.850864,756.264194v0.024683l0.022139,0.01481l0.029518,-0.01481l-0.00738,-0.032088l-0.034438,-0.009873l-0.009839,0.017278Z M1973.341305,759.443405l0.012865,0.07321l0.038352,0.030958l0.03648,-0.006454l-0.00348,-0.046563l-0.053904,-0.065949l-0.030312,0.014799Z M1974.369872,749.054906l0.047215,0.118443l0.094429,0.078962l0.17312,-0.031585l0.039346,-0.10265l-0.125906,-0.173716l-0.259681,-0.015792l-0.047215,0.039481l0.078691,0.086858Z M1975.373184,749.937304l0.106233,-0.023689l0.035411,-0.041455l-0.059018,-0.035533l-0.171153,0.017766l-0.011804,0.053299l0.100331,0.029611Z M1975.550239,750.067591l0.06492,-0.017766l0.029509,-0.047377l-0.041313,-0.076988h-0.035411l-0.047215,0.100676l0.029509,0.041455Z M1975.473515,751.577734l0.141644,0.005922l0.029509,-0.047377l-0.029509,-0.029611l-0.12984,0.005922l-0.035411,0.029611l0.023607,0.035533Z M1972.894414,762.965991l0.041313,-0.017766l-0.011804,-0.053299l-0.059018,-0.047377l-0.029509,0.017766l0.005902,0.059221l0.053116,0.041455Z M1972.959334,763.226564l0.029509,-0.035533l-0.023607,-0.153975l-0.035411,-0.017766l-0.041313,0.029611v0.100676l0.070822,0.076988Z M1976.683391,760.911011l0.182957,-0.059221l0.082626,-0.088832l-0.005902,-0.041455h-0.100331l-0.22427,0.11252l-0.011804,0.053299l0.076724,0.023689Z M1978.666406,765.842172l0.114102,-0.047377v-0.023689h-0.12984l-0.08656,0.031585l0.007869,0.027637l0.094429,0.011844Z M1977.076846,755.470548l0.133775,-0.035533l0.066887,-0.071066l-0.039346,-0.047377l-0.074757,-0.003948l-0.137709,0.086858l-0.003935,0.055273l0.055084,0.015792Z M1976.99422,754.921764l0.031476,-0.011844l0.031476,-0.055273l-0.047215,-0.098702l-0.102298,-0.063169l-0.015738,0.01974l0.066887,0.098702l0.007869,0.075014l0.027542,0.035533Z M1976.561419,753.13328l0.110168,0.031585l0.102298,-0.023689l0.023607,-0.090806l-0.090495,-0.146079l-0.062953,-0.007896l-0.102298,0.071066l-0.011804,0.110546l0.031476,0.055273Z M1976.486663,753.275411l0.059018,0.007896l0.04328,0.063169l0.082626,0.023689l0.055084,-0.015792l-0.007869,-0.075014l-0.055084,-0.051325l-0.196728,-0.027637l-0.015738,0.027637l0.035411,0.047377Z M1978.473613,753.231982l0.08656,0.015792l0.08656,-0.043429l-0.019673,-0.094754l-0.059018,-0.035533l-0.12984,0.031585l-0.031476,0.071066l0.066887,0.055273Z M1979.598896,753.21619l0.070822,-0.031585l0.003935,-0.063169l-0.035411,-0.011844l-0.078691,0.031585l-0.011804,0.051325l0.051149,0.023689Z M1976.687325,752.276545l0.125906,-0.023689l0.007869,-0.059221l-0.04328,-0.047377h-0.062953l-0.094429,0.055273v0.039481l0.066887,0.035533Z M1979.028386,755.087583l0.074757,-0.063169l0.161317,-0.075014l0.177055,-0.027637l0.082626,-0.075014l-0.04328,-0.027637l-0.275419,0.055273l-0.299026,0.169768l0.019673,0.047377l0.102298,-0.003948Z M1983.761656,761.297924l0.078691,-0.027637l-0.019673,-0.043429l-0.102298,-0.023689l-0.094429,0.031585l0.003935,0.047377l0.133775,0.015792Z M1982.105208,759.063307l0.055084,0.003948l0.027542,-0.067117l-0.031476,-0.031585l-0.074757,0.011844l-0.015738,0.043429l0.039346,0.039481Z M1982.778017,759.122528l0.015738,0.023689l0.098364,-0.015792l0.070822,-0.063169l0.047215,-0.090806l-0.031476,-0.015792l-0.12984,0.086858l-0.070822,0.075014Z M1982.833101,758.131558l0.04328,-0.011844l0.04328,-0.110546l-0.023607,-0.075014l-0.04328,0.011844l-0.031476,0.086858l0.011804,0.098702Z M1979.449383,757.337993h0.078691l0.031476,-0.01974l-0.055084,-0.039481h-0.08656l-0.019673,0.035533l0.051149,0.023689Z M1978.63493,756.528635l0.110168,0.003948l0.070822,-0.134235l-0.015738,-0.047377l-0.118037,-0.015792l-0.098364,0.055273l-0.011804,0.078962l0.062953,0.059221Z M1980.291378,756.339127l0.04328,-0.007896l0.04328,-0.142131l-0.027542,-0.130287l-0.051149,0.003948l-0.023607,0.098702l0.015738,0.177664Z M1980.53532,756.196996l0.047215,-0.031585l-0.003935,-0.078962l-0.051149,-0.023689l-0.051149,0.01974l-0.003935,0.078962l0.062953,0.035533Z M1980.00809,756.31149l0.055084,0.011844l0.078691,-0.059221l-0.015738,-0.047377l-0.082626,-0.003948l-0.059018,-0.035533l-0.035411,0.01974l0.059018,0.114495Z M1976.934218,752.309117l0.100331,0.032572l0.106233,-0.008883l0.008853,-0.035533l-0.082626,-0.068105l-0.020656,-0.071066l-0.094429,-0.097715l-0.06492,0.005922l-0.020656,0.050338l0.023607,0.133248l0.044264,0.059221Z M1970.72549,758.820499l0.073773,0.002961l0.103282,-0.038494l0.023607,-0.053299l-0.050166,-0.032572l-0.144595,0.017766l-0.088527,0.088832l0.026558,0.032572l0.056067,-0.017766Z M1970.994024,758.918215h0.076724l0.029509,-0.065143l-0.017705,-0.062182l-0.076724,-0.02665l-0.047215,0.017766l-0.023607,0.088832l0.059018,0.047377Z M1971.619618,758.980397l0.09738,-0.011844l0.059018,-0.076988l-0.035411,-0.100676l-0.082626,-0.023689l-0.023607,0.029611l0.03246,0.044416l-0.008853,0.038494l-0.076724,0.023689l-0.005902,0.053299l0.044264,0.023689Z M1973.098027,758.98928l0.079675,0.08291l0.112135,-0.068105l0.085577,-0.023689l0.153448,-0.198391l-0.011804,-0.038494l-0.177055,-0.002961l-0.174104,0.08291l-0.008853,0.041455l0.053116,0.079949l-0.017705,0.032572l-0.073773,-0.017766l-0.020656,0.029611Z M1974.354134,754.341395h0.08656l0.12984,-0.146079l0.035411,-0.177664l0.125906,-0.181612v-0.08291l-0.106233,-0.055273h-0.157382l-0.200662,0.134235l-0.055084,0.197404l0.039346,0.146079l0.090495,0.078962l0.011804,0.086858Z M1979.002811,764.336964l0.138693,-0.002961v-0.035533l-0.061969,-0.035533l-0.22427,-0.008883l-0.014755,0.02665l0.1623,0.05626Z M1979.058878,765.977394h0.206564l0.026558,-0.020727l-0.073773,-0.038494l-0.209515,0.008883v0.032572l0.050166,0.017766Z M1978.06442,765.740509h0.109184l0.002951,-0.038494l-0.115086,-0.035533l-0.09738,0.011844l-0.005902,0.035533l0.106233,0.02665Z M1977.910972,764.852189l0.020656,0.014805l0.132791,-0.062182l0.22427,-0.023689l0.041313,-0.035533l-0.044264,-0.029611l-0.306895,0.05626l-0.050166,0.035533l-0.017705,0.044416Z M1976.81028,765.545079l0.014755,0.041455l-0.056067,0.008883l-0.017705,0.017766l0.044264,0.059221l0.188859,0.038494l0.070822,-0.017766l-0.026558,-0.065143l0.011804,-0.023689l0.12984,-0.002961l0.023607,-0.032572l-0.221319,-0.050338l-0.200662,-0.017766l-0.011804,0.023689l0.050166,0.020727Z M1977.765393,764.515615l0.066887,0.011844l0.074757,-0.011844l0.051149,-0.059221l0.240008,-0.047377l0.035411,-0.063169l-0.019673,-0.039481l-0.240008,-0.027637l-0.066887,0.01974l-0.055084,0.110546l-0.17312,0.098702l0.007869,0.031585l0.078691,-0.023689Z M1977.828346,764.369536l0.035411,-0.10265l-0.055084,-0.090806l0.035411,-0.027637l0.153448,0.055273l0.098364,-0.01974l0.015738,-0.08291l-0.055084,-0.110546l-0.110168,-0.027637l-0.102298,0.039481l-0.098364,-0.039481l-0.137709,0.015792l-0.141644,0.146079l-0.078691,0.039481l-0.003935,0.039481l0.31083,0.094754l0.070822,0.067117l0.062953,0.003948Z M1982.44653,758.231247l0.067871,-0.02665l0.014755,-0.08291l0.029509,-0.020727l0.053116,0.062182l0.06492,-0.020727l0.023607,-0.065143l-0.023607,-0.076988l0.014755,-0.079949l0.070822,-0.053299l0.038362,-0.106598l-0.035411,-0.091793l-0.079675,-0.023689l-0.070822,0.032572l-0.120988,0.002961l-0.044264,0.032572l-0.03246,0.142131l-0.082626,0.13917l-0.002951,0.074027l0.014755,0.11252l0.100331,0.050338Z M1976.030254,751.692228l0.106233,-0.007896l0.106233,-0.114495l0.007869,-0.138183l-0.070822,-0.098702l-0.161317,-0.027637l-0.003935,-0.043429l0.110168,-0.047377v-0.039481l-0.118037,-0.031585l-0.031476,-0.067117l0.027542,-0.039481l0.118037,-0.023689l0.015738,-0.027637l-0.039346,-0.015792l-0.228204,0.023689l-0.059018,0.063169l0.015738,0.059221l0.082626,0.043429l0.015738,0.090806l-0.062953,0.130287l0.019673,0.114495l0.082626,0.067117l0.066887,0.130287Z M1973.693129,759.09884l0.106233,-0.055273l0.106233,0.003948l0.102298,0.055273l0.094429,0.003948l0.330503,-0.118443l0.051149,0.011844l-0.035411,0.063169l-0.141644,0.035533l-0.228204,0.146079l-0.015738,0.075014l0.062953,0.011844l0.070822,-0.051325l0.188859,-0.031585l0.302961,-0.256626l0.047215,-0.011844l0.011804,0.098702l0.051149,0.01974l0.055084,-0.106598l0.165251,-0.126339l-0.015738,-0.063169l-0.436736,-0.078962l-0.08656,-0.059221l-0.149513,-0.011844l-0.062953,0.055273l-0.590183,0.098702l-0.177055,0.122391l-0.015738,0.126339l0.062953,0.059221l0.145579,-0.015792Z M1980.944514,759.951626l0.121971,-0.118443l0.106233,-0.01974l0.204597,0.098702l0.039346,0.098702l0.08656,0.051325l0.125906,-0.027637l0.133775,-0.181612l0.019673,-0.244781l0.074757,-0.122391l0.145579,-0.071066l0.078691,-0.130287l0.007869,-0.146079l-0.062953,-0.110546l0.007869,-0.055273l0.070822,-0.098702l-0.007869,-0.110546l0.059018,-0.126339l0.003935,-0.134235l0.098364,-0.142131v-0.122391l0.035411,-0.114495l-0.011804,-0.153975l0.039346,-0.094754l0.007869,-0.110546l-0.08656,-0.063169l0.003935,-0.118443l0.066887,-0.063169l-0.007869,-0.055273l-0.110168,-0.059221l-0.039346,-0.138183l-0.08656,-0.138183l-0.106233,-0.015792l-0.098364,0.051325l-0.078691,0.003948l-0.055084,-0.031585l-0.082626,0.003948l-0.074757,0.098702l-0.169186,0.01974l-0.102298,-0.051325v-0.177664l-0.019673,-0.035533l-0.157382,-0.01974l-0.318699,0.031585l-0.291157,0.090806l-0.082626,0.078962l-0.12984,0.031585l-0.098364,-0.011844l-0.149513,0.023689l-0.066887,0.059221l-0.184924,0.023689l-0.074757,0.059221l-0.259681,0.023689l-0.059018,0.063169l0.003935,0.10265l0.074757,0.130287l0.196728,0.110546l0.078691,0.173716l0.070822,0.063169l0.027542,0.118443l0.066887,0.055273l-0.007869,0.086858l-0.161317,0.047377l-0.027542,0.059221l0.047215,0.063169l0.059018,0.146079l0.196728,0.122391l0.015738,0.075014l-0.027542,0.067117l0.011804,0.047377l0.066887,0.01974l0.019673,0.063169l-0.047215,0.130287l0.023607,0.08291l0.18099,0.18556l0.165251,0.007896l0.094429,0.047377l0.121971,0.221093l0.090495,0.059221l0.118037,0.213197l0.074757,0.003948Z M1973.472793,763.641114l0.348208,0.213197l0.12984,0.005922l0.094429,0.053299l0.082626,0.124365l0.206564,0.118443l0.265582,0.071066l0.106233,0.076988l0.342306,0.08291l0.118037,-0.029611l0.389521,0.130287l0.236073,-0.011844l0.1082,0.055273l0.007869,0.08291l0.208531,0.075014l0.070822,-0.029611l0.265582,0.041455l0.501656,-0.011844l0.06492,-0.047377l0.005902,-0.08291l0.059018,-0.088832l0.118037,-0.071066l0.070822,-0.076988l0.06492,-0.189508l0.082626,-0.041455l0.092462,-0.128313l0.121971,-0.043429l0.007869,-0.051325l-0.116069,-0.055273v-0.059221l0.212466,-0.124365l0.135742,-0.011844l0.076724,-0.094754l-0.017705,-0.076988l0.035411,-0.071066l0.123938,-0.041455l0.059018,-0.171742l-0.112135,-0.171742l-0.011804,-0.136209l-0.159349,-0.142131l-0.165251,-0.029611l-0.112135,-0.100676v-0.124365l0.118037,-0.183586l-0.053116,-0.11252l-0.206564,-0.005922l-0.218368,0.124365l-0.330503,0.017766l-0.023607,0.053299l0.100331,0.059221l-0.041313,0.071066l-0.171153,0.005922l-0.230171,-0.059221l-0.554772,0.005922l-0.135742,0.065143h-0.241975l-0.401325,0.136209l-0.112135,0.118443l-0.147546,0.035533l-0.165251,0.005922l-0.236073,0.094754l-0.053116,0.118443l-0.147546,0.094754l-0.424932,0.071066l-0.460343,0.201352l-0.053116,0.136209l0.070822,0.130287Z M1978.46181,756.536531l-0.019673,-0.10265l0.055084,-0.051325l-0.007869,-0.059221l-0.094429,-0.023689l-0.165251,0.114495l-0.110168,0.355328l0.027542,0.090806l0.08656,0.031585l-0.003935,0.035533l-0.102298,0.047377l-0.137709,0.011844l-0.18099,0.138183l0.027542,0.043429l0.192793,-0.059221l0.110168,-0.063169l0.472147,-0.01974l0.074757,0.086858l0.102298,0.023689l0.070822,-0.067117l0.318699,0.047377l0.491819,-0.106598l0.413128,-0.134235l0.806584,-0.130287l0.184924,-0.118443l0.007869,-0.063169l-0.188859,-0.071066l0.031476,-0.10265l0.17312,-0.071066h0.157382l0.031476,-0.071066l-0.141644,-0.086858l-0.35411,-0.007896l-0.204597,0.126339l-0.070822,0.118443l-0.361979,0.031585l-0.149513,0.086858l-0.110168,-0.007896l-0.039346,-0.10265l-0.165251,-0.023689l-0.078691,0.078962l-0.110168,-0.015792l-0.062953,-0.071066h-0.110168l-0.212466,0.150027l-0.070822,-0.031585l0.007869,-0.10265l-0.094429,-0.055273l-0.062953,0.047377l-0.023607,0.181612l-0.157382,0.055273l-0.251812,-0.08291Z M1976.830936,752.537119l0.218368,0.041455l0.218368,0.094754l0.06492,0.118443l0.118037,0.041455l0.135742,-0.065143l0.188859,0.023689l0.076724,0.053299l0.06492,0.011844l0.035411,-0.059221l0.123938,0.011844l0.06492,0.153975l0.059018,-0.005922l0.076724,-0.153975l0.22427,-0.029611l0.094429,-0.071066l0.082626,-0.005922l0.035411,0.088832l-0.076724,0.207275l0.053116,0.094754l0.070822,-0.005922l0.059018,0.035533l-0.011804,0.319795l0.059018,0.094754l0.011804,0.11252l-0.059018,0.124365l0.005902,0.106598l0.06492,0.118443l-0.059018,0.076988l-0.159349,0.029611l-0.165251,-0.153975h-0.076724l-0.135742,0.153975l-0.017705,0.094754l0.100331,0.076988l0.188859,0.017766l-0.005902,0.041455l-0.177055,0.059221l-0.06492,0.076988l0.035411,0.035533l0.212466,-0.065143l0.088527,0.023689l0.182957,-0.035533l0.118037,-0.230963l0.106233,-0.053299l0.094429,0.059221l0.005902,0.153975l-0.159349,0.19543l0.047215,0.065143l0.336404,-0.065143l0.230171,-0.159898l0.005902,-0.11252l0.06492,-0.11252l0.076724,-0.035533l0.017705,-0.11252l-0.28919,-0.266496l-0.218368,-0.041455l-0.076724,0.100676l-0.212466,0.059221l-0.047215,-0.041455l0.153448,-0.230963v-0.100676l-0.106233,-0.017766l-0.029509,-0.053299l0.082626,-0.189508l0.336404,-0.153975l0.283288,-0.047377l0.147546,0.041455l0.029509,0.130287l-0.106233,0.047377l-0.023607,0.053299l0.082626,0.08291l0.029509,0.248729l0.153448,0.266496l0.318699,0.094754l0.448539,-0.071066l0.300993,-0.177664l0.153448,-0.035533l0.100331,-0.08291l-0.005902,-0.124365l0.023607,-0.059221l0.082626,0.005922l0.017705,-0.053299l-0.123938,-0.189508l-0.165251,-0.100676l-0.271484,-0.023689l-0.06492,-0.088832l-0.12984,-0.017766l-0.06492,0.11252l-0.053116,0.011844l-0.106233,-0.076988l-0.182957,-0.053299l-0.12984,0.017766l-0.053116,-0.029611l0.017705,-0.130287l-0.171153,-0.325717l-0.324601,-0.390861l-0.177055,-0.11252l-0.005902,-0.11252l0.153448,-0.071066l-0.011804,-0.041455l-0.206564,-0.011844l-0.047215,-0.071066l0.047215,-0.059221l0.247877,-0.023689l0.206564,0.035533l0.118037,0.08291l0.023607,0.124365l0.159349,0.207275l0.236073,0.071066l0.123938,0.142131l-0.029509,0.236885l0.029509,0.11252l0.188859,0.059221l0.177055,-0.047377l0.165251,0.041455l0.12984,0.171742l-0.005902,0.130287l0.053116,0.071066l0.19476,0.08291l0.123938,0.207275l0.247877,0.059221l0.06492,-0.088832l0.082626,-0.011844l0.088527,0.047377l0.200662,-0.017766l0.230171,-0.201352l0.094429,0.005922l0.041313,0.076988l0.519361,0.100676l0.135742,0.189508l0.265582,0.088832l0.041313,-0.065143l-0.06492,-0.130287l0.041313,-0.047377l0.094429,0.029611l0.118037,-0.065143l0.017705,-0.124365l0.12984,-0.11252l0.182957,-0.041455l0.041313,-0.088832l-0.182957,-0.11252l-0.106233,-0.171742l0.011804,-0.11252l0.118037,-0.124365l-0.005902,-0.130287l-0.330503,-0.27834l-0.177055,-0.029611l-0.236073,-0.124365l-0.182957,-0.242807l-0.306895,-0.153975l-0.35411,0.011844l-0.135742,-0.047377l0.011804,-0.171742l-0.088527,-0.047377l-0.348208,0.118443l-0.082626,0.088832l-0.070822,0.011844l-0.082626,-0.094754l-0.501656,-0.177664l-0.607889,-0.059221l-0.241975,0.100676l-0.005902,0.076988l0.171153,0.071066l-0.011804,0.059221l-0.283288,0.023689l-0.070822,-0.047377l0.029509,-0.118443l-0.047215,-0.035533l-0.336404,0.16582l-0.218368,0.023689l-0.147546,-0.053299l-0.165251,0.017766l-0.088527,0.106598l-0.171153,0.011844l-0.141644,-0.094754l-0.070822,0.017766l-0.029509,0.118443l-0.41903,0.106598l-0.135742,0.094754l-0.106233,-0.023689l-0.070822,-0.130287l-0.182957,-0.005922l-0.041313,0.059221l0.088527,0.130287l-0.029509,0.100676h-0.070822l-0.171153,-0.142131l-0.19476,-0.017766l-0.12984,0.094754l-0.011804,0.189508l0.135742,0.201352l0.212466,0.08291l0.080376,0.012514l0.011787,-0.032945l-0.033145,-0.103933l-0.059018,-0.065143v-0.065143l0.118037,-0.017766l0.123938,0.023689l0.005902,0.124365l0.082626,0.130287l0.212466,-0.035533l0.147546,0.053299l0.011804,0.065143l-0.200662,0.08291l-0.094429,0.153975l-0.112135,0.041455l-0.106233,-0.065143l-0.017705,-0.148053l-0.118037,-0.035533l-0.106233,0.071066l-0.283288,0.017766l-0.348208,-0.094754l-0.029509,0.053299l0.106233,0.088832Z M1977.509647,751.737631l0.047215,-0.005922l0.005902,-0.136209l-0.041313,-0.047377l-0.035411,0.041455l-0.005902,0.094754l0.029509,0.053299Z M1977.763426,752.886525l0.041313,-0.023689l-0.035411,-0.029611h-0.070822l-0.011804,0.035533l0.076724,0.017766Z  M2047.816615,768.089091v24.631l-0.198,0.038l-0.049,0.074l0.037,0.118l0.095,0.031v0.065l-0.206,0.034l-0.007,0.055l0.062,0.025l0.148,-0.018l0.013,0.062l-0.253,0.13l0.024,0.055l0.08,0.007l0.007,0.068l-0.062,0.037l-0.136,-0.112l-0.055,0.025l-0.007,0.093l0.13,0.05l0.006,0.055l-0.092,0.075l0.055,0.049l0.08,-0.049l0.05,0.049l-0.019,0.056l0.081,0.056l-0.062,0.037l-0.192,0.025l-0.024,0.08l0.074,0.149l-0.025,0.068l0.062,0.093l-0.031,0.043l-0.161,-0.049l-0.092,0.049l0.018,0.05l0.074,-0.012l0.019,0.062l-0.031,0.117l-0.086,0.081l-0.025,-0.099l-0.049,-0.013l-0.093,0.081l-0.161,0.056l0.019,0.049l0.179,-0.006l0.025,0.056l-0.093,0.08l-0.012,0.05l0.074,0.025v0.049l-0.068,0.031l-0.012,0.05l0.061,0.043l-0.018,0.05h-0.111l-0.019,0.049l0.05,0.062l-0.019,0.081l-0.049,0.043l0.043,0.056l0.216,0.043l0.099,0.136l-0.025,0.081l-0.093,0.049l-0.03,0.149l0.092,0.099l0.117,-0.024l0.068,0.037l0.013,0.086l-0.087,0.106l-0.08,0.006l-0.006,0.049l0.148,0.149h0.154l0.056,-0.099l0.049,0.006v0.118l-0.074,0.068l-0.006,0.074l0.068,0.1l0.043,-0.025l0.025,-0.106l0.068,-0.012l0.055,0.068l0.081,0.006l0.049,-0.068l0.117,0.019v14.967l-0.281,-0.089l-0.488,-0.087l-0.598,-0.529l-0.244,-0.348l-0.488,-0.481l-0.369,-0.269l-0.394,-0.418l-0.181,-0.356l-0.267,-0.363l-0.119,-0.363l-0.141,-0.166l-0.268,-0.173l-0.543,-0.506l-0.045,-0.164l-0.088,-0.071l-0.172,-0.065l-0.525,-0.474l-0.077,-0.177l-0.1,-0.065l-0.165,-0.024l-0.856,-0.598l-0.502,-0.474l-0.177,-0.326l0.036,-0.124l0.307,-0.207l0.342,-0.054l0.106,-0.106l-0.006,-0.142l-0.118,-0.178l0.006,-0.113l-0.059,0.06l-0.006,0.118l0.083,0.195l-0.059,0.048l-0.301,0.035l-0.26,0.202l-0.36,0.065l-0.354,-0.006l-0.148,-0.042l-0.784,-0.017l-0.661,0.166h-0.154l-0.088,0.053l-0.071,0.106l-0.402,0.19l-0.124,0.006l-0.36,0.136l-0.507,0.053l-0.272,-0.035l-0.082,-0.101l-0.089,-0.047l-0.135,-0.036l-0.219,-0.26l-0.065,-0.279l-0.071,-0.006l-0.82,0.291h-0.159l-0.047,0.041l-0.012,0.095l-0.49,0.302l-0.083,0.012v0.065l0.106,0.095l0.018,0.088l-0.023,0.125l0.053,0.254l-0.083,0.143l-0.112,0.059l-0.124,-0.018l-0.165,-0.201l-0.171,-0.356l-0.213,-0.254l-0.147,-0.302l-0.065,-0.184l0.059,-0.201l0.212,-0.089l0.207,0.006l0.1,-0.089l0.012,-0.136l-0.106,-0.136l-0.006,-0.119l0.082,-0.231v-0.189l-0.053,-0.134l0.018,-0.139l0.407,-0.207l0.242,-0.178l0.065,-0.142l-0.059,-0.326l0.024,-0.213l0.23,-0.343l0.035,-0.166l-0.006,-0.16l0.083,-0.178l0.212,-0.171l0.059,-0.214l-0.094,-0.231l-0.195,-0.094l-0.277,-0.036l-0.242,0.053l-0.154,-0.035l-0.183,-0.373l-0.129,-0.498l-0.201,-0.325l-0.242,-0.196l-0.248,-0.083l-0.136,-0.077l-0.094,-0.124l-0.413,-0.195l-0.23,-0.072l-0.095,-0.094l0.03,-0.107l0.13,-0.018l0.507,0.083l0.933,-0.053l0.218,0.03l0.342,0.201l0.402,0.059l0.371,-0.059l0.402,-0.006l0.171,-0.089l0.206,-0.408l0.083,-0.024l0.059,0.101l0.047,0.308l0.101,0.082l0.124,-0.011l0.088,-0.06l0.124,0.024l0.159,0.077l0.437,0.012l0.165,-0.083l-0.006,-0.136l-0.141,-0.101l-0.171,0.042l-0.142,-0.048l-0.065,-0.142l0.083,-0.166l0.248,-0.053l0.342,0.142l0.053,0.154l-0.071,0.219l0.024,0.243l0.218,0.166l0.307,0.077l0.165,-0.018l0.107,-0.16l0.035,-0.337l0.165,-0.196h0.16l0.047,0.119l-0.047,0.307l0.088,0.314l0.213,0.042l0.135,-0.107l0.065,-0.195l0.165,-0.089l-0.1,-0.006l-0.153,0.083l-0.053,0.178l-0.065,0.059l-0.142,-0.03l-0.065,-0.272l0.053,-0.308l-0.1,-0.213l-0.165,-0.012l-0.231,0.124l-0.123,0.267l-0.012,0.242l-0.101,0.119l-0.33,-0.083l-0.142,-0.118l-0.006,-0.184l0.089,-0.249l-0.065,-0.195l-0.384,-0.19l-0.248,-0.012l-0.153,0.107l-0.112,0.225l0.029,0.172l0.248,0.142l0.254,-0.006l0.018,0.047l-0.148,0.042l-0.301,-0.018l-0.195,-0.095l-0.212,-0.006l-0.1,0.054l-0.053,-0.024l-0.077,-0.397l-0.136,-0.1l-0.236,0.065l-0.083,0.201l-0.047,0.184l-0.094,0.041l-0.319,-0.006l-0.378,0.012l-0.224,-0.053l-0.449,-0.231l-0.448,-0.089l-0.319,-0.012l-0.501,-0.183l-0.414,-0.344l-0.419,-0.296l-0.365,-0.231l-0.207,-0.385l0.053,-0.184l0.354,-0.219l0.118,0.018l0.101,0.077l0.247,0.065l0.307,-0.041l0.313,-0.249l0.224,-0.053h0.272l0.23,-0.083l0.307,0.035l0.661,0.409l0.555,0.409l0.295,0.059h0.13l0.112,0.112l-0.006,-0.088l-0.106,-0.107l-0.201,-0.018l-0.211,-0.067l-0.562,-0.426l-0.313,-0.283l-0.342,-0.136l-0.354,-0.035l-0.225,0.071l-0.141,-0.018l-0.167,-0.117l-0.209,-0.26l-0.323,-0.221l-0.33,-0.063l-0.063,-0.127l-0.012,-0.414l0.13,-0.115l0.118,0.012l0.295,0.205l0.22,0.079l0.217,0.186l0.063,0.17l0.019,-0.06l-0.047,-0.169l-0.212,-0.202l-0.705,-0.371l-0.114,-0.122l0.004,-0.071l-0.055,-0.04l-0.134,-0.039l-0.228,-0.312l-0.995,-0.853l-0.11,-0.213l-0.252,-0.908l-0.032,-0.387l-0.228,-0.434l-0.055,-0.19l-0.362,-0.695l-0.212,-0.197l0.015,-0.245l0.134,-0.126l0.519,-0.056l0.386,-0.173l0.039,-0.182l-0.102,-0.158l0.025,0.205l-0.041,0.072l-0.362,0.134l-0.44,0.016l-0.331,-0.111h-0.244l-0.189,-0.166l-0.023,-0.197l0.134,-0.174l0.425,-0.253l0.661,-0.205l0.346,-0.024l0.236,-0.086l-0.11,-0.008l-0.181,0.039l-0.504,-0.008l-0.543,0.182l-0.26,0.229l-0.102,0.031l-0.181,-0.047l-0.275,0.071l-0.103,0.095l-0.118,-0.032l-0.126,-0.387l-0.031,-0.544l0.157,-0.316l0.189,-0.056v-0.063l-0.267,-0.142l-0.008,-0.158l0.078,-0.323l-0.062,-0.269l0.047,-0.071l0.614,-0.032l0.118,-0.118l0.023,-0.134l0.134,-0.063l0.22,-0.056l0.236,-0.268l0.032,-0.127l-0.26,0.308l-0.134,0.064l-0.22,0.007l-0.11,0.111l-0.016,0.118l-0.134,0.072l-0.535,0.007l-0.102,0.119l0.016,0.268l-0.087,0.071l-0.118,-0.086l-0.165,-0.237l0.008,-0.166l-0.055,0.079l0.008,0.166l0.157,0.268l0.173,0.15l0.016,0.134l-0.063,0.111h-0.126l-0.205,-0.142l-0.527,-0.545l-0.126,-0.213l0.047,-0.127l0.331,-0.244l0.055,-0.111l0.102,-0.032l0.15,0.024l0.149,-0.071l0.142,-0.197l0.22,-0.079l-0.141,-0.024l-0.166,0.063l-0.118,0.182l-0.11,0.031l-0.181,-0.015l-0.189,0.102l-0.055,0.111l-0.346,0.221l-0.142,0.182l-0.181,0.055l-0.314,-0.111l-0.134,0.071l-0.142,-0.031l-0.055,-0.19l0.118,-0.189l0.126,-0.032l0.065,-0.118l0.094,-0.095l-0.049,-0.016l-0.181,0.103l-0.33,-0.206l-0.063,-0.268l0.102,-0.158l0.102,-0.047l-0.011,-0.059h-0.107l-0.147,0.153l-0.065,0.095l-0.171,0.012l-0.573,-0.249l-0.041,-0.213l0.13,-0.172l0.003,-0.128l-0.045,-0.162l0.03,-0.118l0.153,-0.202l0.148,-0.035l-0.059,-0.053l-0.154,0.011l-0.2,0.249l-0.024,0.207l0.053,0.107l-0.011,0.101l-0.248,0.177l-0.142,-0.023l-0.254,-0.279l0.051,-0.248l0.299,-0.261l-0.11,-0.008l-0.236,0.174l-0.128,0.284l-0.012,0.178l-0.076,0.047l-0.449,-0.278l-0.2,-0.35l-0.189,-0.067l-0.154,0.032l-0.193,-0.111l0.012,-0.268l0.103,-0.154l-0.02,-0.055l-0.079,0.047l-0.059,0.103l-0.11,0.047l-0.134,0.241l-0.13,0.059l-0.098,-0.031l-0.102,-0.151l-0.138,-0.051l-0.008,-0.083l0.059,-0.138l-0.012,-0.257l0.075,-0.098l0.15,0.012l-0.016,-0.052l-0.173,-0.035l-0.122,0.106l-0.008,0.103l0.031,0.217l-0.11,0.225l-0.134,0.008l-0.196,-0.158l0.004,-0.087l0.074,-0.091l0.095,-0.331h-0.039l-0.107,0.197l-0.008,0.083l-0.07,0.067l-0.201,0.016l-0.102,0.075l-0.201,-0.012l-0.087,-0.091l-0.251,-0.118l-0.004,-0.087l0.141,-0.099l0.319,-0.094l-0.02,-0.032l-0.122,0.004l-0.291,0.043l-0.134,0.072l-0.362,0.228l-0.157,0.02l-0.228,-0.136l0.018,-0.178l0.076,-0.177l0.278,-0.03l0.029,-0.041l-0.212,-0.018l-0.183,0.041l-0.148,-0.035l-0.124,0.106l-0.012,0.19l-0.112,0.006l-0.283,-0.166l-0.136,-0.012l-0.667,-0.272l-0.1,-0.101l-0.295,-0.118l-0.118,-0.137l-0.183,-0.082l-0.1,0.005l-0.136,-0.065l-0.112,-0.13l-0.407,-0.225l-0.26,-0.053l-0.337,0.023l-0.989,-0.294l-0.275,-0.229l-0.213,-0.071l-0.346,-0.284l-0.205,-0.095l-0.173,-0.158l-0.338,-0.079l-0.842,0.008l-0.268,0.048l-0.787,-0.143l-0.448,-0.165l-0.787,-0.079l-0.779,0.071l-0.346,0.126l-0.229,-0.016l-1.038,-0.576l-0.189,-0.174l-0.52,-0.339l-0.173,-0.206l-0.196,-0.087l-0.402,-0.008l-0.275,-0.142l-0.118,-0.126l-0.189,-0.055l-0.079,-0.071l0.016,-0.214l-0.094,-0.165l-0.158,-0.103l-0.11,0.008l-0.11,0.071l-0.103,-0.095l0.111,-0.245l0.354,-0.102v-0.063l-0.197,-0.064l-0.063,-0.402l0.11,-0.253l0.166,-0.039l0.204,0.071l0.157,0.008l0.111,-0.079l0.472,0.102l0.149,0.15l0.441,0.04l0.197,-0.134l-0.063,-0.056l-0.228,0.048l-0.095,-0.032l-0.031,-0.103l-0.142,-0.031l-0.087,0.047l-0.472,-0.087l-0.173,-0.087l-0.157,0.008l-0.063,0.095l-0.102,-0.031l-0.134,-0.064l-0.252,0.024l-0.26,0.229l-0.094,0.237l-0.087,0.063l-0.189,0.016l-0.204,0.205l-0.228,0.024l-0.205,-0.213l-0.055,-0.3l-0.22,-0.261l-0.386,-0.107l-0.26,-0.15l-0.033,0.044l0.136,0.166l0.039,0.284l-0.091,0.047l-0.204,-0.047l-0.24,-0.146l-0.02,0.039l0.138,0.154l0.228,0.371l-0.079,0.158l-0.125,-0.008l-0.048,-0.126l-0.299,-0.308l-0.252,-0.055l-0.259,-0.284l-0.016,-0.166l-0.102,-0.055l-0.205,0.031l-0.031,-0.063l0.133,-0.15l0.347,-0.19l-0.008,-0.126l-0.244,-0.395l-0.189,-0.063l-0.071,0.071l0.055,0.158l-0.071,0.126l-0.228,0.071l-0.149,-0.173l-0.15,0.016l-0.252,0.197l-0.11,0.221l-0.094,-0.024l-0.283,-0.584l-0.024,-0.347l-0.142,-0.229l-0.299,-0.269l-0.055,-0.229l0.063,-0.26l-0.086,-0.024l-0.236,0.221l-0.032,0.284l0.212,0.506l-0.031,0.063l-0.307,-0.261l-0.071,-0.189l-0.118,-0.04l-0.236,0.158l-0.086,-0.055l0.015,-0.205l0.071,-0.119l-0.008,-0.142l-0.346,-0.608l-0.142,-0.134l0.04,-0.158l0.315,-0.15l0.07,-0.198l-0.094,-0.371l-0.024,-0.726l0.095,-0.134l0.118,-0.071l0.078,-0.174l0.166,-0.063l0.134,0.055l0.062,-0.032l-0.031,-0.308l0.079,-0.079l0.189,-0.023l0.094,-0.127l0.016,-0.394l0.102,-0.016l0.275,0.3l0.032,0.181l0.149,0.143l0.032,-0.056l-0.079,-0.134l-0.008,-0.118l-0.299,-0.379l-0.047,-0.332l0.039,-0.134l-0.078,-0.079l-0.173,0.031l-0.15,0.379l0.039,0.119l-0.102,0.063l-0.354,0.024l-0.488,0.592l-0.023,0.292l0.078,0.197l-0.015,0.135l-0.087,0.15l0.039,0.829l-0.086,0.245l-0.37,0.142l-0.205,0.031l-0.157,-0.102l-0.134,-0.253h-0.071l-0.015,0.142l0.11,0.19l-0.032,0.087l-0.228,0.015l-0.22,-0.158l0.055,0.127l0.173,0.134l0.291,0.016l0.118,-0.056l0.118,0.079l0.236,0.474l-0.086,0.261l-0.551,0.284l-0.433,0.482l-0.118,-0.032l0.008,-0.134l0.079,-0.103l-0.008,-0.134l-0.055,-0.071l0.055,-0.111l-0.063,-0.008l-0.059,0.062l-0.006,0.112l0.029,0.089l-0.006,0.089l-0.1,0.118l0.018,0.137l0.059,0.112l-0.006,0.113l-0.059,0.077l0.006,0.148l0.112,0.26l0.165,0.071l0.118,0.166l-0.035,0.172l-0.325,0.166l-0.177,-0.012l-0.13,0.083l-0.106,-0.036l-0.13,-0.183l-0.029,-0.137l-0.03,0.101l0.053,0.178l0.136,0.148l0.159,0.018l0.113,-0.083h0.118l0.011,0.083l-0.348,0.349l-0.183,0.326l-0.1,0.094l-0.23,0.054l-0.071,0.1l-0.012,0.131l-0.1,0.059l-0.49,-0.047l-0.118,0.035l-0.289,-0.035l-0.142,-0.083l-0.336,0.083l-0.101,0.183l0.024,0.124l-0.059,0.018l-0.142,-0.095l-0.259,-0.017l-0.231,-0.101l-0.035,-0.071l0.03,-0.148l-0.113,-0.154l-0.419,-0.267l0.006,-0.177l-0.059,-0.048l-0.112,0.006l-0.071,-0.1l0.042,-0.101l0.076,0.012l0.071,0.118l0.065,-0.018l-0.018,-0.165l-0.295,-0.433l-0.071,-0.231v-0.177l-0.059,-0.166l-0.094,-0.107l-0.183,-0.42l-0.018,-0.296l0.059,-0.077h0.124l0.071,0.065h0.425l0.342,0.053l0.101,-0.065l-0.042,-0.249l0.112,-0.189l0.172,-0.107l-0.03,-0.053l-0.124,-0.024l-0.165,-0.284l-0.006,-0.207l-0.071,-0.018l-0.071,0.065l-0.141,-0.041l-0.16,-0.19l0.012,-0.166l-0.053,-0.201l-0.077,-0.083l0.03,-0.166l0.159,-0.172l-0.012,-0.118l-0.165,-0.154l0.03,-0.095l-0.059,-0.017l-0.118,0.047l-0.189,0.006l-0.118,0.112v0.279l-0.083,0.041l-0.342,-0.118l-0.136,-0.154l-0.077,-0.208l-0.265,-0.225l0.012,-0.065l0.271,-0.023l0.059,-0.101l-0.112,-0.136l-0.472,-0.19l-0.036,-0.095l0.065,-0.071l-0.053,-0.136l-0.36,-0.278l-0.147,-0.196l-0.455,-0.29l-0.413,-0.177l-0.065,-0.119l-0.319,-0.124l-0.637,-0.03l-0.384,0.124l-0.183,-0.094v0.047l0.059,0.071l-0.047,0.048l-0.159,0.011l-0.071,-0.136l0.018,-0.13l-0.106,-0.065l-0.136,0.077l-0.136,-0.077l-0.024,-0.077l-0.206,-0.036l-0.012,-0.053l0.124,-0.047h0.165l0.012,-0.196l-0.153,-0.095l0.017,-0.071l0.236,-0.083l0.059,-0.106l-0.064,-0.107l-0.107,-0.018l-0.13,0.06l-0.283,0.006l-0.035,-0.054l0.126,-0.108l0.192,-0.036l0.075,-0.059l0.158,-0.047l0.074,0.004l0.04,0.063l0.047,0.004l0.016,-0.095l0.067,-0.008l0.09,0.091l0.071,-0.02l0.016,-0.075l-0.071,-0.059l0.027,-0.048l0.142,0.036l0.165,-0.02l0.146,-0.063l0.161,0.008l0.028,-0.028l-0.134,-0.051l-0.134,-0.008l-0.067,-0.035l-0.094,-0.004l-0.083,0.063l-0.027,-0.028l0.047,-0.103l0.177,-0.106l0.185,-0.004l0.149,-0.043h0.229l0.074,0.031l0.559,0.02l0.177,0.043l0.067,0.067l0.208,0.052l0.209,-0.048l0.051,0.024l-0.008,0.055l-0.071,0.024l0.016,0.047l0.126,0.032v0.059l-0.086,0.071l0.031,0.04l0.102,-0.024l0.048,-0.075l0.051,-0.032l0.137,0.012l0.004,-0.055l-0.098,-0.087l0.039,-0.067l0.248,-0.02l0.15,0.06l0.2,0.011l0.303,0.142l0.229,0.202l0.09,0.166l0.299,0.197l0.134,0.032l0.141,-0.04l0.118,-0.102l0.099,-0.024l0.138,-0.087l0.554,-0.525l0.272,-0.292l0.043,-0.079l0.39,-0.438l0.259,-0.383l0.091,-0.095l0.126,-0.079l0.047,-0.083l0.063,-0.047l0.106,-0.004l0.138,-0.111l0.126,-0.035l0.346,-0.048l0.122,-0.091l0.142,0.004l0.11,0.06l0.153,0.023l0.201,0.127l0.031,0.142l-0.011,0.252l-0.036,0.032l-0.047,-0.016v0.04l0.059,0.023l0.055,-0.023l0.028,-0.075l0.031,-0.206h0.031l0.166,0.123l0.051,0.091l0.09,0.043l0.036,0.091l-0.012,0.296l-0.035,0.174l0.011,0.256l0.032,0.111l-0.016,0.098l-0.086,0.064l-0.181,-0.02l0.004,0.035l0.102,0.06l0.141,-0.032l0.111,-0.087l0.019,-0.095l-0.015,-0.24l-0.032,-0.143l0.024,-0.209l0.082,-0.201l0.142,-0.19l0.083,-0.031l0.063,0.012l0.047,0.165l0.004,0.439l0.031,0.169l-0.039,0.119l-0.114,0.071l0.063,0.004l0.11,-0.063l0.039,-0.075l-0.008,-0.296l0.032,-0.103l-0.012,-0.162l-0.051,-0.107l0.012,-0.114l0.059,-0.024l0.067,0.063l0.181,0.419l0.031,0.118l0.087,0.06l-0.004,0.118l0.043,-0.02l0.02,-0.052l0.082,-0.033v-0.029l-0.13,-0.032l-0.063,-0.134l0.032,-0.126l0.106,-0.087l0.161,0.047l0.015,0.053l-0.059,0.08l0.036,0.009l0.065,-0.059l0.123,-0.044l0.172,-0.151l0.141,-0.027l0.065,0.039l0.03,0.062l0.106,0.053l0.018,0.095l-0.062,0.438l0.003,0.29l0.056,0.092l-0.003,0.098l-0.074,0.165l-0.094,0.069l-0.033,0.124l0.012,0.071l0.023,-0.015l0.009,-0.074l0.042,-0.08l0.1,-0.077l0.1,-0.207l-0.006,-0.077l-0.047,-0.098l0.006,-0.189l0.142,-0.403l0.003,-0.207l-0.033,-0.104l0.006,-0.133l-0.023,-0.074l0.023,-0.062l0.133,-0.018l0.115,0.033l0.074,0.121l0.059,0.255l0.124,0.133l0.068,0.148l0.084,0.267l0.106,0.087l-0.043,-0.087l-0.086,-0.288l-0.087,-0.17l-0.09,-0.114l-0.036,-0.182l0.028,-0.106l0.074,-0.02l0.142,0.134l0.047,0.146l0.008,0.15l0.043,-0.102l-0.019,-0.178l-0.138,-0.241l0.008,-0.079l0.13,-0.079l-0.028,-0.02l-0.197,0.075l-0.118,-0.019l-0.177,-0.186l0.008,-0.126l0.075,-0.055l0.283,-0.012l0.236,-0.079l0.107,0.019l0.118,0.182l0.287,0.269h0.094l-0.031,-0.032l-0.071,-0.02l-0.228,-0.26l-0.134,-0.221l0.024,-0.068l0.232,-0.015l0.33,0.039l0.075,0.04l0.091,-0.008l0.051,-0.036l-0.02,-0.039l-0.212,-0.004l-0.284,-0.052l-0.216,-0.098l0.016,-0.056l0.413,-0.15l0.012,-0.039l-0.166,0.004l-0.153,0.083l-0.134,-0.016l-0.138,-0.051l0.024,-0.056l0.22,-0.082l0.358,0.011l0.079,-0.094l0.102,-0.364l-0.063,-0.118l0.012,-0.351l-0.047,-0.04h-0.181l-0.102,0.063l-0.083,-0.023l-0.028,-0.115l0.059,-0.059l0.15,-0.004l0.031,-0.044l-0.086,-0.023l-0.161,0.008l-0.052,0.039l-0.09,-0.004l-0.126,-0.059h-0.079l-0.059,0.059l-0.157,0.071l-0.071,-0.035l-0.047,0.016l-0.004,0.094l-0.067,0.04l-0.11,0.004l-0.063,-0.036l-0.094,0.008l-0.095,0.095l-0.031,0.099l-0.071,0.027l-0.138,-0.004l-0.094,0.056l-0.079,0.122l-0.157,0.087l-0.158,-0.016l-0.114,-0.103l-0.004,-0.134l0.079,-0.126l-0.047,-0.016l-0.083,0.091l-0.016,0.138l-0.074,0.087l-0.201,0.067l-0.083,-0.008l-0.023,-0.154l-0.099,-0.114l-0.09,-0.032l0.008,0.035l0.074,0.064l0.048,0.134l-0.02,0.047l-0.295,-0.023l-0.142,0.027l-0.063,-0.035l-0.031,-0.079l-0.087,-0.032l-0.208,-0.012l-0.122,0.063l-0.382,-0.019l-0.134,-0.087l-0.181,-0.004l-0.094,0.095l-0.067,-0.008l-0.043,-0.063l-0.142,-0.06h-0.208l-0.17,0.075l-0.11,0.139l-0.161,0.051l-0.091,-0.028l-0.326,0.024l-0.181,0.174l-0.063,0.102l-0.207,0.113l-0.1,-0.03l-0.018,-0.077l-0.076,-0.006l-0.065,0.048l-0.254,-0.065l-0.136,-0.125l-0.218,-0.083l-0.378,0.06l-0.289,0.153l-0.071,0.131l-0.124,0.029l-0.295,-0.094l-0.106,0.006l-0.136,-0.113l-0.053,-0.326l-0.159,-0.166l-0.278,-0.029l-0.413,0.13l-0.779,0.421l-0.218,0.011l-0.065,0.054l-0.107,-0.006l-0.442,-0.581l-0.354,-0.23l-0.478,-0.172l-0.478,-0.379l0.006,-0.119l0.147,-0.077l0.118,-0.106l-0.006,-0.077l-0.077,-0.024l-0.118,0.059l-0.129,-0.012l-0.301,-0.225l-0.113,-0.142l0.006,-0.083l0.113,-0.13l-0.024,-0.083l-0.124,-0.006l-0.118,-0.077l-0.136,-0.201v-0.142l0.083,-0.071l0.012,-0.071l-0.13,-0.142l0.023,-0.101l0.166,-0.089l0.088,-0.124l0.224,-0.178l0.101,-0.041l0.076,-0.107l0.101,0.006l0.006,-0.053l-0.177,-0.149l0.011,-0.053l0.254,-0.065l0.095,-0.184l-0.042,-0.017l-0.088,0.124l-0.106,0.036l-0.177,0.011l-0.113,0.107l-0.112,0.16l-0.159,0.012l-0.165,0.065l-0.083,-0.03l-0.088,-0.16l-0.012,-0.124l-0.101,-0.154l0.03,-0.172l0.195,-0.272l0.448,-0.166l0.018,-0.089l-0.053,-0.308l-0.089,-0.1l-0.029,0.041l0.082,0.207l-0.011,0.178l-0.077,0.047l-0.26,0.012l-0.106,0.059l-0.047,0.107l-0.112,0.03l-0.089,-0.06l-0.071,0.006l-0.218,0.225l-0.136,0.018l-0.112,-0.065v-0.124l0.171,-0.237l-0.012,-0.16l-0.076,-0.178l0.053,-0.047l0.1,-0.012l0.018,-0.047l-0.136,-0.018l-0.1,0.077l0.006,0.106l0.059,0.125l-0.018,0.166l-0.165,0.16l-0.231,0.059l-0.153,-0.03l-0.083,-0.124l0.018,-0.107l0.224,-0.16l0.077,-0.13l0.009,-0.299l-0.13,-0.151l-0.006,0.05l0.077,0.125l-0.009,0.222l-0.083,0.154l-0.18,0.035l-0.162,0.083l-0.118,0.095l-0.13,-0.018l-0.162,-0.228l-0.091,-0.053l-0.057,-0.139l0.062,-0.107l0.293,-0.071l0.085,-0.08l-0.047,-0.018l-0.095,0.059l-0.336,0.054l-0.097,0.115l-0.039,0.101l-0.062,0.015l-0.153,-0.074v-0.071l0.056,-0.104l0.015,-0.222l-0.047,-0.11l0.023,-0.056l0.13,-0.08v-0.074l-0.094,-0.089l-0.012,0.021l0.044,0.092l-0.006,0.035l-0.044,0.03l-0.086,0.009l-0.029,0.103l0.047,0.113l-0.027,0.216l-0.035,0.136l-0.053,0.015l-0.044,-0.032h-0.053l-0.139,0.127l-0.012,0.074l-0.053,0.038l-0.062,0.003l-0.024,0.033l-0.032,-0.003l-0.041,-0.071l-0.358,-0.243l-0.029,-0.109l0.124,-0.086v-0.059l-0.186,-0.217l-0.08,-0.168l-0.053,-0.036l-0.015,0.021l0.039,0.056l0.047,0.124l-0.038,0.06l-0.216,0.047l-0.106,-0.027l-0.171,-0.121l-0.006,-0.042l0.059,0.003l-0.003,-0.038l-0.103,-0.024l-0.05,0.045l0.017,0.088l0.21,0.166l0.186,0.068l0.047,0.069l-0.015,0.177l-0.327,0.264l-0.242,0.038l-0.18,0.098l-0.107,-0.03l-0.1,-0.16l-0.083,-0.059l-0.008,-0.121l-0.145,-0.048l-0.133,0.03l-0.118,-0.033l-0.171,-0.062h-0.534l-0.062,0.03l-0.047,-0.003l-0.068,-0.056l-0.227,-0.027l-0.083,-0.062l0.018,-0.074l0.256,-0.172l0.021,-0.065l0.113,-0.104l0.073,-0.164l0.026,-0.156l0.094,-0.1l0.014,-0.081l-0.036,-0.055l0.022,-0.048l0.092,-0.049l0.097,-0.134l0.151,-0.083l0.083,0.002l0.09,0.033l0.429,-0.124l0.085,-0.083l0.106,-0.239l0.193,-0.326l0.067,-0.189l0.075,-0.101l0.002,-0.11l-0.034,-0.046l0.008,-0.144l-0.031,-0.039l0.013,-0.067l0.154,-0.164l0.092,-0.063l0.008,-0.081l-0.063,-0.087l0.014,-0.111l-0.024,-0.065l0.007,-0.072l0.119,-0.064v-0.051l-0.039,-0.058l-0.146,-0.075l-0.09,-0.1l-0.006,-0.141l-0.047,-0.077l-0.081,-0.057l0.006,-0.029l0.106,-0.02l0.061,-0.04l0.466,-0.126l0.075,-0.055l0.106,-0.022l0.044,-0.024l0.086,-0.008l0.073,0.012l0.149,-0.035l0.105,-0.111l0.098,-0.039l0.157,-0.012l0.223,-0.107l0.189,-0.047l0.126,0.01l0.023,0.029l-0.006,0.06l-0.071,0.051l-0.098,0.014l-0.088,0.104l0.017,0.028l0.16,-0.043l0.133,0.004l0.166,-0.103l0.098,-0.012l0.069,0.018l0.155,-0.014l0.095,-0.045l0.256,-0.023l0.257,-0.074l0.21,-0.009l0.168,-0.065l0.354,-0.036l0.177,-0.065l0.277,-0.201l0.056,-0.13l0.228,-0.264l0.13,-0.065l0.123,-0.169l0.231,-0.124l0.289,-0.065l0.153,-0.143l0.021,-0.106l-0.041,-0.074l0.008,-0.059l0.121,-0.107l0.284,-0.095l0.236,-0.257l0.195,-0.086l0.242,-0.015l0.118,-0.083l0.003,-0.074l0.044,-0.03l0.466,-0.003l0.127,-0.038l0.035,-0.047l0.068,-0.024l0.157,-0.003l0.186,-0.086h0.129l0.225,0.062l0.274,0.006l0.065,-0.021l0.171,0.009l0.177,0.045l0.095,-0.03l0.141,0.003l0.109,0.05l0.396,0.03l0.056,-0.047l0.074,0.009l0.044,0.085l0.127,0.077l0.109,0.015l0.162,0.083l0.098,0.089l0.475,0.207l0.085,-0.009l0.054,0.021l0.035,0.053l0.115,0.042l0.18,-0.018l0.094,-0.038l0.057,0.029l0.02,0.169l0.086,0.065l0.156,-0.012l0.068,0.042l0.05,0.083l0.13,0.05l0.215,-0.039l0.048,0.03l0.029,0.092l0.189,0.121l0.112,-0.006l0.089,-0.056l0.091,0.042l0.021,0.151l0.186,0.118l0.174,0.033l0.206,0.154l0.095,0.156l0.203,0.151l0.192,0.223l0.431,0.239l0.148,0.03h0.56l0.163,0.044l0.206,0.003l0.115,-0.065l0.009,-0.053l-0.041,-0.03l0.02,-0.032l0.083,0.009l0.142,0.071l0.218,0.044l0.183,-0.015l0.171,0.018l0.189,0.071l0.095,-0.006l0.07,-0.1l-0.009,-0.042l-0.064,-0.024l0.017,-0.023l0.14,0.006l0.059,0.043l0.169,0.012l0.075,0.043l0.035,0.071l0.079,0.012l0.098,-0.083l0.154,-0.035l0.067,-0.055l0.082,-0.008l0.114,0.039l0.067,-0.024l0.079,0.004l0.047,0.044h0.051l0.083,-0.083l0.122,0.016l0.102,0.079l0.012,0.094l0.055,0.127l0.342,0.256l0.225,0.06l0.082,0.051l0.02,0.075l0.272,0.205l0.007,0.071l-0.094,0.052l-0.189,-0.016l-0.098,-0.055l-0.15,0.011l-0.071,0.194l0.028,0.13l-0.039,0.067l-0.107,-0.004l-0.078,0.083l-0.02,0.115l0.087,0.134l0.224,0.221l0.082,0.142l0.008,0.241l0.189,0.265l0.028,0.114l0.389,0.371l0.134,0.079l0.134,0.138l0.063,0.237l0.169,0.213l0.087,0.186l0.153,0.15l0.039,0.095l-0.031,0.016l-0.055,-0.036l-0.091,0.008l-0.141,0.138l-0.115,0.249l0.016,0.102l-0.031,0.083l-0.087,0.099l0.012,0.182l0.083,0.169l-0.012,0.06l-0.059,0.035l-0.036,0.206l-0.122,0.102l-0.078,0.123l-0.138,0.082l-0.13,0.222l-0.098,0.075l-0.193,0.031l-0.067,0.075l-0.008,0.075l0.063,0.083l0.047,0.32l0.079,0.075l0.016,0.154l-0.02,0.11l0.028,0.241l-0.02,0.099l0.039,0.182l0.079,0.023l0.039,0.056v0.209l0.111,0.233l0.011,0.406l-0.086,0.123l0.004,0.087l-0.032,0.043l-0.074,0.004l-0.044,0.067v0.138l0.047,0.115l0.012,0.379l0.04,0.067l0.082,-0.008l0.063,0.036l0.018,0.312l-0.053,0.077l0.012,0.122l0.097,0.077l0.021,0.089l-0.018,0.071l0.032,0.198l0.077,0.133l0.042,0.188l0.083,0.079l0.138,0.335l0.236,0.135l0.059,-0.016l0.047,0.028l0.008,0.153l0.224,0.222l0.118,0.193l-0.008,0.079l0.048,0.067l0.082,0.04l0.032,0.079l-0.028,0.142l0.099,0.166l0.007,0.094l0.059,0.103l0.063,0.043l0.02,0.04l-0.024,0.079l0.008,0.063l0.055,0.032l0.197,0.327l0.004,0.221l0.134,0.123l0.161,0.288l-0.016,0.162l0.032,0.079l0.201,0.004l0.22,-0.249l0.016,-0.19l-0.083,-0.225l0.02,-0.122l-0.012,-0.091l-0.051,-0.051l-0.044,-0.205l0.02,-0.075l-0.016,-0.111l-0.114,-0.071l-0.047,-0.162l0.028,-0.087l-0.008,-0.071l-0.055,-0.035l-0.02,-0.237l0.067,-0.198l0.216,-0.256l0.091,-0.032l0.149,0.032l0.063,-0.028l0.099,0.004l0.023,-0.028l-0.09,-0.039l-0.158,0.016l-0.102,-0.052l0.024,-0.027l0.153,0.012l0.016,-0.028l-0.083,-0.055l0.036,-0.036l0.196,0.055l0.028,0.079l0.075,0.068l0.177,0.043l0.102,-0.051l0.047,0.015l-0.016,0.095l0.134,0.284l-0.004,0.186l0.055,0.13l0.008,0.364l-0.035,0.43l0.008,0.41l0.067,0.143l0.007,0.09l-0.035,0.087l0.014,0.281l0.159,0.195l0.018,0.107l-0.065,0.017l-0.012,0.089l0.077,0.077l-0.006,0.172l0.077,0.112l0.336,0.103l0.142,-0.047l0.031,-0.052l-0.025,-0.158l0.035,-0.053l0.13,0.012l0.065,-0.077l-0.042,-0.065l0.018,-0.077l0.11,-0.008l0.048,-0.146l0.078,-0.012l0.071,0.089l-0.059,0.172l0.012,0.118l-0.006,0.071l-0.077,0.03l-0.012,0.083l0.113,0.136l-0.018,0.071l-0.201,0.077l-0.041,0.136l0.041,0.249l-0.071,0.296l0.024,0.065l0.165,0.03l0.165,0.154l0.006,0.177l-0.059,0.154l0.142,0.291l0.331,0.1l0.059,-0.035l-0.071,-0.083l0.029,-0.059l0.118,0.011l0.065,0.066l-0.029,0.213l0.259,0.29l0.236,0.059l0.213,-0.059l0.212,0.095l0.13,0.219l0.154,0.012l0.106,-0.06h0.142l0.159,0.071h0.142l0.088,-0.035l0.218,0.012l0.177,0.059l0.597,-0.024l0.188,-0.083l0.166,-0.011l0.194,0.041l0.207,-0.059l0.419,-0.409l0.047,-0.177l-0.023,-0.101l0.041,-0.119l0.088,-0.065l0.059,-0.219l0.266,-0.219l0.165,-0.024l0.331,-0.112l0.094,-0.113l0.313,-0.16l0.006,-0.106l-0.165,-0.077l-0.03,-0.089l0.13,-0.095l0.224,-0.012l0.177,-0.059l0.272,-0.296l0.283,-0.118l0.148,-0.143l0.047,-0.213l-0.012,-0.183l-0.124,-0.101v-0.089l0.124,-0.059l0.13,-0.296l-0.006,-0.184l0.425,-0.42l-0.012,-0.089l0.036,-0.083l0.112,-0.018l0.147,-0.112l0.088,-0.021l0.16,0.033l0.189,-0.077l0.053,-0.083l0.071,-0.036l0.071,0.024l0.425,-0.207l0.289,-0.379l0.124,-0.314v-0.214l0.136,-0.438l0.253,-0.29l0.036,-0.332l-0.065,-0.136l-0.006,-0.118l0.106,-0.19l0.154,-0.065l0.242,-0.219l0.171,-0.059l0.283,0.023l0.195,-0.088l0.124,0.017l0.112,0.137l0.088,0.011l0.219,-0.165l0.118,-0.036l0.006,0.042l-0.089,0.077l-0.029,0.148l0.135,0.106l0.278,0.042l0.088,0.047l0.136,0.018l0.159,-0.166l0.101,-0.006l0.2,0.142l0.059,-0.018l0.024,-0.118l0.177,-0.136h0.13l0.071,-0.095l-0.053,-0.13l0.053,-0.042l0.088,-0.006l0.042,0.131l0.1,-0.012l0.083,-0.071l0.295,-0.036l0.194,-0.195v-0.101l0.065,-0.041l0.154,0.053l0.2,-0.012l0.301,-0.166l0.254,-0.006l0.095,0.042l0.112,-0.006l0.094,-0.071l0.213,-0.03l0.316,-0.27l0.13,-0.03l0.012,-0.065l-0.124,-0.059l-0.041,-0.148l-0.112,-0.083l-0.018,-0.101l0.047,-0.106l-0.029,-0.143l-0.16,-0.071l-0.1,-0.088l-0.041,-0.16l-0.177,-0.125l-0.101,0.018l-0.053,0.077l-0.047,-0.016l-0.02,-0.241l0.067,-0.315l0.102,-0.154l0.152,-0.085l0.136,-0.012l0.312,-0.196l0.26,-0.023l1.015,-0.533l0.457,-0.429l0.206,-0.094l0.354,-0.107l0.561,-0.261l0.177,-0.142l0.386,-0.13l0.074,0.006l0.054,-0.024l0.041,-0.065l0.11,-0.02l0.094,0.04l0.063,-0.008l0.036,-0.059l0.145,-0.044l0.461,-0.019l0.071,0.045l0.076,0.006l0.106,-0.095l0.06,0.012l0.033,0.138l0.165,0.225l0.02,0.087l0.047,0.024l0.071,-0.012l0.114,0.063l0.094,0.158l0.237,0.19l0.369,0.177l0.319,0.063l0.122,-0.004l0.13,0.052l0.358,0.229l0.704,0.292l1.047,0.288l0.806,0.142l0.358,0.178l0.421,0.418l0.012,0.099l0.04,0.047l0.106,0.044l0.075,0.075l0.066,0.158l0.402,0.217l0.13,0.016l0.102,-0.067l0.145,-0.016l0.437,0.099l0.221,0.098l0.149,0.103l0.425,0.177l0.118,0.003l0.083,0.035l0.047,0.068l0.339,0.172l0.416,0.275l0.502,0.193l0.209,0.038l0.594,0.296l0.271,0.211l0.522,0.316l0.293,0.107l0.141,0.015l0.171,0.086l0.251,0.201l0.334,0.19l0.383,0.106l0.691,-0.018l0.439,-0.109l0.505,0.006l0.124,-0.054l0.015,-0.124l0.056,-0.068l0.15,-0.041l0.036,0.026l-0.006,0.071l0.141,0.101l0.054,-0.015l0.017,-0.056l-0.038,-0.059l0.029,-0.033l0.062,0.015l0.018,0.074l-0.044,0.157l0.08,0.077l0.106,0.018l0.165,0.121l0.03,0.089l0.109,0.024l0.15,-0.054l0.062,0.015l0.109,0.116l0.11,0.008l0.047,0.033v0.074l0.047,0.027l0.088,-0.009l0.127,0.053l0.018,0.059l0.056,0.003l0.027,-0.074l0.047,-0.003l0.044,0.048l0.03,-0.006l0.026,-0.137l-0.05,-0.1l-0.068,-0.068l-0.074,-0.003l-0.023,-0.033l0.012,-0.038l0.129,0.02l0.089,-0.014l0.25,0.102l0.098,-0.004l0.217,0.095l0.126,0.02l0.055,0.055l0.067,0.004l0.09,-0.071l0.083,0.012l0.118,0.071l0.322,0.079l0.083,-0.059l0.094,0.011l0.162,0.15l0.216,0.064h0.122l0.236,0.154l0.095,0.181l-0.02,0.024l-0.071,-0.043l-0.05,0.052l0.029,0.118l-0.046,0.086l-0.059,0.036l-0.004,0.079l0.11,0.197l0.173,0.095l0.146,0.004l0.071,-0.063l-0.019,-0.084l0.035,-0.031l0.141,0.059l0.513,0.036l0.144,0.044l0.052,-0.017l0.024,-0.044l0.041,-0.015l0.081,0.028l0.099,-0.044l0.158,-0.086l0.095,-0.004z"/>
</svg>
