<svg xmlns="http://www.w3.org/2000/svg" viewBox="1812.756 719.355 25.077 16.136">
  <path d="M1829.402916,725.257243l0.023109,-0.061125l0.075843,-0.008824l0.060201,0.062592l0.0041,0.071879l-0.041629,0.049611l-0.054418,-0.021507l-0.067207,-0.092626Z M1817.97723,732.838091l0.068353,0.069184l0.07548,0.02255l0.018586,-0.03754l-0.050565,-0.077478l-0.079827,-0.024132l-0.032027,0.047417Z M1831.385516,723.029327l0.046703,-0.027667l0.048394,-0.077906l0.019326,-0.05713l-0.024325,-0.015509l-0.067602,0.068282l-0.044751,0.083424l0.022255,0.026507Z M1819.288488,730.155l0.029469,-0.002701l0.01396,-0.062352l-0.011236,-0.077873l-0.027189,-0.012674l-0.020367,0.068473l0.015363,0.087127Z M1837.620812,734.26785l0.024203,0.023417l0.044688,-0.015117l0.026184,-0.047167l-0.016191,-0.028043l-0.0527,0.019743l-0.026184,0.047167Z M1817.139727,734.446134l0.030753,0.013727l0.036822,-0.02949l0.008473,-0.053278l-0.024806,-0.020814l-0.042769,0.036577l-0.008473,0.053278Z M1834.892688,731.84067l0.006168,0.064763l0.030839,0.003084l0.021588,-0.067847l-0.012336,-0.049343l-0.027756,-0.003084l-0.018504,0.052427Z M1819.904478,728.750092l0.019198,-0.04429l-0.028051,-0.004643l-0.055477,0.058628l0.018221,0.016917l0.046108,-0.026612Z M1814.737611,730.472991l0.023738,0.043665l0.051654,0.012582l0.032322,-0.040532l-0.019536,-0.032118l-0.072438,-0.005018l-0.015741,0.021421Z M1818.618482,733.099019l0.019533,-0.042478l-0.016269,-0.024154l-0.045566,0.01404l-0.015709,0.052813l0.026147,0.023414l0.031864,-0.023634Z M1820.150278,729.953962l0.033923,0.003084l0.021588,-0.040091l-0.009252,-0.040091l-0.027756,-0.012336l-0.021588,0.030839l0.003084,0.058595Z M1819.588148,729.245969l0.0189,-0.015859l0.002249,-0.029016l-0.019031,-0.029367l-0.018257,0.015607l-0.000846,0.029669l0.016985,0.028965Z M1830.369741,727.247043h0.024672l0.020373,-0.020782l0.004298,-0.034729l-0.024017,0.000221l-0.019719,0.022184l-0.005607,0.033106Z M1835.908763,733.155041l-0.006127,0.025688l0.030776,0.031004l0.029579,-0.00986l0.002297,-0.033162l-0.024672,-0.024672l-0.031853,0.011001Z M1818.829621,729.682738l-0.009252,0.055511l0.037007,0.02313l0.060137,-0.02313v-0.041633l-0.041633,-0.02313l-0.046259,0.009252Z M1818.089802,731.495547l-0.042769,0.036577l0.013482,0.041506l0.060935,0.020937l0.026761,-0.031893l-0.017026,-0.04448l-0.041384,-0.022648Z M1819.468224,729.272599l0.032493,0.025551l0.036888,-0.014894l0.009112,-0.059618l-0.035392,-0.028884l-0.030795,0.020527l-0.012307,0.057318Z M1817.984442,731.501944l0.022648,-0.041384l-0.03006,-0.043339l-0.059917,0.028227l-0.005499,0.049734l0.03898,0.032708l0.033849,-0.025946Z M1817.788879,731.34558l0.035106,0.007281l0.023789,-0.056699l-0.015076,-0.091571l-0.030613,-0.000174l-0.029818,0.043161l0.016612,0.098002Z M1819.858556,730.371545l-0.019731,0.017642l0.009874,0.019943l0.033179,0.019307l0.015741,-0.021421l-0.015545,-0.02834l-0.023518,-0.007132Z M1817.853859,728.604412l0.024385,0.028513l0.019361,-0.003883l0.000544,-0.043828l-0.024005,-0.024168l-0.016239,0.014555l-0.004046,0.028811Z M1828.28758,721.211982l0.042125,0.011642l0.012336,-0.01542l-0.013618,-0.029211l-0.03613,-0.007854l-0.012567,0.015709l0.007854,0.025134Z M1816.980221,732.645139l0.038372,-0.000124l0.007854,-0.020422l-0.01728,-0.023563l-0.03456,-0.003142l-0.009807,0.022579l0.01542,0.024672Z M1817.20364,729.032325l0.025134,-0.003142l0.006284,-0.028276l-0.021992,-0.018851l-0.028276,0.007854l-0.001571,0.023563l0.020422,0.018851Z M1814.74405,731.764193l0.009252,0.037007l0.060137,0.013878l0.037007,-0.037007l-0.018504,-0.032381l-0.050885,-0.013878l-0.037007,0.032381Z M1816.563361,731.044307l0.028602,-0.065565l-0.010551,-0.042318l-0.041796,0.021658l-0.038665,0.088301l0.010029,0.031211l0.052381,-0.033287Z M1818.536864,731.226857l0.010159,-0.037915l-0.032573,-0.013243l-0.050745,0.029298l-0.019714,0.03987l0.019632,0.027837l0.07324,-0.045846Z M1837.781098,733.895679l0.000195,0.049761l0.023721,0.013864l0.027516,-0.039674l-0.009857,-0.037586l-0.029181,-0.013236l-0.012396,0.026871Z M1816.11737,735.470409l0.016836,-0.046826l-0.017549,-0.021141l-0.039426,0.027871l-0.003593,0.03869l0.022894,0.022418l0.020839,-0.021011Z M1830.661453,727.413692l0.048714,0.010155l0.018493,-0.02032l-0.033086,-0.035164l-0.038814,0.001827l-0.019014,0.025791l0.023707,0.017712Z M1818.362941,730.958861l0.00986,-0.039438l-0.017254,-0.014789l-0.017254,0.022184l0.002465,0.029579l0.022184,0.002465Z M1820.006772,729.698601v0.032479l0.032479,0.00464l0.013919,-0.032479l-0.018559,-0.018559l-0.027839,0.013919Z M1830.623055,726.683591l0.049298,-0.007395l0.014789,-0.022184l-0.032044,-0.017254l-0.029579,-0.002465l-0.034509,0.012324l-0.002465,0.022184l0.034509,0.014789Z M1819.558479,730.237103l0.024649,-0.019719l-0.002465,-0.027114l-0.032044,-0.00986l-0.022184,0.022184l0.002465,0.024649l0.029579,0.00986Z M1837.569498,734.764478l-0.015844,0.018882l0.009072,0.023701l0.026197,-0.000542l0.017732,-0.017298l-0.001519,-0.017363l-0.035638,-0.00738Z M1819.539625,730.488484l0.019719,-0.034509l-0.00493,-0.024649l-0.019719,0.007395l-0.014789,0.027114l-0.002465,0.032044l0.022184,-0.007395Z M1818.82361,729.967318l0.064291,-0.037118l0.015906,-0.046686l-0.018559,-0.032145l-0.042502,0.019181l-0.043412,0.073282l0.024276,0.023487Z M1818.855088,730.112666l0.026991,0.01773l0.048534,-0.052839l0.001062,-0.037232l-0.041208,-0.005801l-0.029197,0.032575l-0.006182,0.045566Z M1814.141944,730.648144l0.113116,0.101025l0.055233,0.003315l-0.034188,-0.076886l-0.097043,-0.091745l-0.058327,0.002042l0.021208,0.062249Z M1830.860242,726.143594l0.008298,0.065091l0.02378,0.016073l0.022009,-0.059641l-0.014338,-0.060023l-0.027286,-0.007984l-0.012462,0.046484Z M1830.175052,719.417202l0.03138,-0.00694l0.018751,-0.029898l-0.011786,-0.025274l-0.029907,0.0101l-0.013906,0.023793l0.005467,0.028221Z M1829.852759,720.158549l0.059345,-0.048872l0.24436,-0.534101l-0.006982,-0.083781l-0.048872,-0.006982l-0.038399,0.08029l-0.073308,0.076799l-0.087271,0.20247l-0.108217,0.111707l-0.118689,0.020945l-0.048872,0.059345l0.027927,0.062835l0.198979,0.059345Z M1829.140624,723.833259l0.060508,-0.074472l0.04189,-0.172216l-0.027927,-0.027927l-0.060508,0.032581l-0.069817,0.139634l-0.004654,0.111707l0.060508,-0.009309Z M1830.145991,725.867266l0.069817,0.079126v0.074472l0.027927,0.065163l0.097744,0.051199l0.04189,-0.009309l-0.060508,-0.13498v-0.083781l-0.065163,-0.088435l-0.153598,-0.013963l-0.018618,0.027927l0.060508,0.032581Z M1830.392678,727.463752l0.055854,0.032581l0.032581,-0.032581l-0.037236,-0.116362l-0.04189,0.004654l-0.037236,0.060508l0.027927,0.051199Z M1830.606784,727.007613l0.102399,-0.018618l0.018618,-0.069817l-0.102399,-0.130325l-0.121016,-0.009309l-0.055854,0.055854l0.04189,0.139634l0.116362,0.032581Z M1830.634711,727.319463l0.055854,-0.032581l0.037236,-0.009309l0.074472,0.027927l0.046545,-0.018618l0.009309,-0.060508l0.102399,-0.060508l0.004654,-0.097744l-0.111707,-0.060508l-0.09309,0.027927l-0.148943,0.167561l-0.027927,0.074472l0.051199,0.04189Z M1830.895362,726.746963l0.181525,0.116362l0.060508,0.139634l0.069817,0.04189l0.074472,-0.065163l0.083781,-0.004654l0.065163,-0.088435l0.260651,-0.074472l0.255996,-0.004654l0.167561,0.023272l0.055854,-0.04189v-0.307196l0.04189,-0.13498l0.181525,-0.181525l0.223415,-0.125671l0.158252,-0.200143l0.013963,-0.228069l0.037236,-0.121016l-0.037236,-0.060508l-0.125671,0.018618l-0.065163,-0.102399l-0.046545,-0.013963l-0.04189,0.065163l-0.046545,-0.018618l0.023272,-0.125671l0.102399,-0.013963l0.088435,0.04189l0.060508,-0.009309l0.023272,-0.107053l-0.051199,-0.074472l0.004654,-0.09309l0.065163,-0.088435l-0.004654,-0.107053l-0.144289,-0.13498l-0.111707,-0.023272l-0.074472,-0.065163l0.018618,-0.069817l-0.037236,-0.051199l-0.181525,-0.097744l-0.116362,-0.13498l0.004654,-0.153598l-0.027927,-0.037236l-0.153598,-0.013963l-0.186179,-0.195488l-0.097744,-0.456139l0.018618,-0.21876l-0.069817,-0.023272l-0.079126,0.013963l-0.097744,0.195488l-0.228069,0.293232l-0.330468,0.228069l-0.107053,0.023272l-0.060508,0.060508l-0.055854,0.167561l-0.144289,0.102399l-0.111707,-0.009309l-0.060508,0.023272l-0.074472,0.13498l-0.111707,0.088435l-0.139634,0.04189l-0.097744,0.055854l0.013963,0.051199l0.121016,0.046545l0.046545,0.09309l-0.032581,0.09309l0.018618,0.153598l0.139634,0.17687l0.09309,0.051199l0.023272,0.060508l-0.046545,0.065163l0.004654,0.051199l0.460793,0.344431l0.144289,0.023272l0.162907,0.097744l0.223415,0.018618l0.246687,0.051199l0.09309,0.097744l0.13498,0.060508l0.158252,0.242033l0.055854,0.139634l-0.027927,0.013963l-0.083781,-0.102399l-0.074472,-0.023272l-0.274614,-0.288578l-0.116362,-0.023272l-0.116362,0.079126l-0.153598,0.018618l-0.056063,0.042675l0.023481,0.050415l-0.032581,0.027927l-0.065163,-0.009309l-0.083781,0.079126l0.004654,0.083781l-0.079126,0.158252l-0.074472,0.079126v0.065163l0.125671,0.032581Z M1814.562798,730.617161l0.083781,-0.062835l-0.013963,-0.069817l-0.076799,-0.027927l-0.062835,0.048872l-0.013963,0.083781l0.083781,0.027927Z M1814.925847,730.714905l0.076799,0.006982l0.104726,-0.076799l-0.048872,-0.069817h-0.146616l-0.034909,0.048872l0.048872,0.090762Z M1817.704571,731.748199l0.104726,0.006982l0.048872,-0.027927l-0.020945,-0.055854l-0.104726,-0.055854l-0.111707,0.020945l-0.006982,0.055854l0.090762,0.055854Z M1817.460211,730.393746l0.04189,-0.048872l0.006982,-0.069817l-0.055854,-0.090762h-0.055854l-0.020945,0.04189l0.006982,0.132653l0.076799,0.034909Z M1817.711553,730.456582l0.020945,-0.083781l-0.083781,-0.104726l-0.055854,0.006982l-0.013963,0.048872l0.076799,0.125671l0.055854,0.006982Z M1816.580514,730.721887l0.006982,-0.111707l-0.020945,-0.076799l-0.04189,0.006982l-0.020945,0.076799l0.020945,0.111707l0.055854,-0.006982Z M1814.911884,732.264847l0.181525,0.160579l0.132653,-0.027927l0.062835,-0.055854l0.034909,-0.097744l-0.062835,-0.069817l-0.104726,-0.013963l-0.076799,-0.076799l0.055854,-0.04189l0.111707,0.04189l0.118689,-0.034909v-0.111707l0.076799,-0.048872l0.195488,0.111707l0.083781,-0.020945l-0.020945,-0.097744l0.034909,-0.097744l-0.076799,-0.188506l0.020945,-0.160579l0.04189,-0.013963l0.062835,0.076799l0.069817,0.006982l0.013963,-0.174543l-0.055854,-0.076799l-0.265305,0.013963l-0.097744,0.076799l-0.20247,0.048872l-0.118689,-0.020945l-0.04189,-0.125671l0.048872,-0.055854l0.020945,-0.111707l-0.04189,-0.188506l-0.048872,0.020945l-0.006982,0.083781l-0.048872,0.013963l-0.048872,-0.132653l-0.083781,-0.048872l-0.027927,0.04189l0.048872,0.125671l-0.04189,0.097744l-0.097744,0.04189l-0.020945,0.055854l0.230397,0.160579l0.020945,0.125671l-0.062835,0.132653l-0.069817,0.453812l0.055854,0.20247Z M1816.72713,731.0989l0.069817,-0.083781l0.006982,-0.258324l-0.048872,-0.097744l-0.055854,0.020945l-0.034909,0.293232l0.062835,0.125671Z M1818.709938,733.807806l0.055854,-0.034909l0.013963,-0.048872l-0.048872,-0.013963l-0.055854,0.027927l-0.013963,0.04189l0.048872,0.027927Z M1818.423688,732.956037l0.097744,-0.048872l0.006982,-0.139634l-0.24436,-0.300214l-0.090762,0.006982l-0.020945,0.048872l0.132653,0.167561l-0.013963,0.069817l-0.062835,0.020945l0.027927,0.076799l0.167561,0.097744Z M1828.591395,731.387477l0.17687,-0.027927l0.09309,-0.083781l-0.083781,-0.148943l-0.139634,-0.046545l-0.167561,0.09309l0.027927,0.167561l0.09309,0.046545Z M1833.888191,733.479665l0.083781,-0.146616l-0.006982,-0.125671l-0.04189,-0.006982l-0.055854,0.083781l-0.034909,0.188506l0.055854,0.006982Z M1836.010634,733.032835l0.132653,-0.055854l0.118689,-0.125671l-0.013963,-0.069817l-0.055854,-0.006982l-0.181525,0.153598l-0.04189,0.076799l0.04189,0.027927Z M1836.436518,734.652594l0.027927,-0.097744l-0.020945,-0.055854l-0.097744,-0.006982l-0.027927,0.048872l0.04189,0.111707h0.076799Z M1836.68786,734.624667l0.027927,-0.04189l-0.027927,-0.069817l-0.055854,-0.04189l-0.027927,0.027927l0.013963,0.069817l0.069817,0.055854Z M1836.694842,734.366343l0.104726,-0.027927l0.055854,0.055854l-0.048872,0.090762l-0.006982,0.111707l0.118689,0.027927l0.188506,-0.090762l0.188506,0.027927l0.188506,-0.076799l0.020945,-0.111707l-0.055854,-0.027927l-0.272287,0.013963l-0.223415,-0.083781l-0.104726,-0.125671l-0.209452,-0.04189l-0.097744,0.083781l0.034909,0.139634l0.118689,0.034909Z M1835.675511,732.215975l0.125671,-0.160579l0.097744,-0.076799l0.055854,-0.146616l-0.020945,-0.090762l0.048872,-0.125671l0.013963,-0.390976l-0.076799,-0.055854h-0.139634l-0.104726,0.062835l-0.04189,0.272287l-0.062835,0.167561l-0.293232,0.230397v0.146616l0.216433,0.181525l0.181525,-0.013963Z M1835.766273,731.0989l0.069817,-0.013963l0.027927,-0.097744l-0.04189,-0.076799l-0.076799,-0.048872l-0.076799,0.020945l-0.013963,0.062835l0.083781,0.076799l0.027927,0.076799Z M1819.575671,729.35347l0.013963,0.074472l0.046545,-0.009309l0.023272,-0.060508l-0.027927,-0.074472l-0.027927,0.009309l-0.027927,0.060508Z M1819.878212,729.693247l0.009309,-0.102399l-0.046545,-0.069817h-0.032581l-0.027927,0.060508l0.009309,0.074472l0.046545,0.046545l0.04189,-0.009309Z M1819.794432,730.107496l0.037236,-0.083781l-0.009309,-0.097744l-0.046545,0.004654l-0.027927,0.074472v0.102399h0.046545Z M1819.752541,728.72977l0.055854,-0.032581l0.032581,-0.083781l-0.037236,-0.023272l-0.055854,0.023272l-0.018618,0.079126l0.023272,0.037236Z M1820.087664,729.949244l0.013963,-0.046545l-0.018618,-0.065163l-0.04189,-0.004654l-0.018618,0.065163l0.013963,0.055854l0.051199,-0.004654Z M1819.561708,731.103554l0.04189,-0.009309l0.027927,-0.088435l-0.018618,-0.032581l-0.065163,0.004654l-0.051199,0.04189l-0.004654,0.060508l0.069817,0.023272Z M1819.147459,730.889448l0.051199,-0.023272l0.023272,-0.116362v-0.107053l-0.027927,-0.004654l-0.055854,0.069817l-0.018618,0.125671l0.027927,0.055854Z M1818.844918,730.489163l0.04189,-0.04189l0.04189,0.018618l-0.009309,0.162907l0.032581,0.004654l0.083781,-0.204797l0.083781,-0.027927l0.023272,-0.088435l-0.083781,-0.097744h-0.032581l-0.055854,0.069817l-0.030254,-0.009309l0.024436,-0.111707l-0.031418,-0.013963l-0.083781,0.09309l-0.069817,0.167561l0.023272,0.074472l0.04189,0.004654Z M1819.429055,730.320438l0.045381,-0.006982l0.020945,-0.045381l-0.027927,-0.069817l-0.038399,-0.010473l-0.038399,0.048872v0.062835l0.038399,0.020945Z M1819.621052,730.355347h0.066326l0.066326,-0.020945l0.006982,-0.038399l-0.059345,-0.062835l-0.090762,0.003491l-0.055854,0.048872l0.006982,0.048872l0.059345,0.020945Z M1818.8391,729.601321l0.059345,-0.031418l0.027927,-0.083781l-0.020945,-0.101235l-0.031418,0.006982l-0.059345,0.195488l0.024436,0.013963Z M1818.887972,729.206854l0.024436,-0.031418l0.003491,-0.048872l-0.020945,-0.003491l-0.031418,0.038399l-0.003491,0.048872l0.027927,-0.003491Z M1818.273581,729.220818l0.059345,0.003491l0.090762,-0.188506v-0.097744l-0.094253,-0.090762l0.010473,-0.097744l0.066326,-0.118689l-0.027927,-0.027927l-0.104726,0.034909l-0.055854,0.066326l-0.003491,0.059345l0.020945,0.066326l-0.031418,0.087271l-0.153598,0.066326l-0.031418,0.08029l0.083781,0.153598l0.062835,0.010473l0.024436,-0.062835l0.003491,-0.083781h0.027927l0.024436,0.101235l0.027927,0.038399Z M1818.685502,728.634354l0.055854,0.017454l0.027927,-0.013963l-0.017454,-0.059345l-0.055854,-0.020945l-0.045381,0.010473l-0.003491,0.04189l0.038399,0.024436Z M1819.031097,728.979949l0.059345,-0.059345l0.045381,-0.216433l0.010473,-0.216433l-0.024436,-0.006982l-0.04189,0.059345l-0.038399,0.272287l-0.038399,0.069817l-0.017454,0.083781l0.045381,0.013963Z M1818.706447,729.706047l0.031418,-0.027927l-0.003491,-0.076799l-0.101235,-0.094253l-0.017454,-0.209452l0.027927,-0.020945l0.059345,0.048872l0.031418,0.191997l0.038399,0.017454l0.034909,-0.04189l0.010473,-0.143125l-0.031418,-0.146616l0.027927,-0.073308l-0.006982,-0.073308l-0.020945,-0.08029l0.031418,-0.104726l0.08029,-0.048872v-0.059345l-0.066326,-0.069817l-0.136143,-0.006982l-0.045381,0.048872l0.013963,0.167561l-0.04189,0.027927l-0.08029,-0.010473l-0.066326,0.069817l-0.027927,0.198979l0.038399,0.097744l-0.003491,0.066326l-0.08029,0.115198l0.013963,0.066326l0.157089,0.132653l0.132653,0.038399Z M1818.224709,730.264585l0.052363,0.178034l0.153598,0.108217l0.073308,-0.027927l0.010473,-0.055854l0.031418,-0.020945l0.048872,0.04189l-0.013963,0.094253l0.017454,0.027927l0.052363,-0.013963l0.034909,0.020945l-0.006982,0.062835l0.04189,0.006982l0.052363,-0.101235l-0.010473,-0.076799l-0.066326,-0.031418l-0.017454,-0.066326l0.083781,-0.16407l0.020945,-0.146616l-0.062835,-0.174543l-0.083781,-0.045381l-0.055854,-0.108217l-0.185016,-0.104726l-0.034909,0.003491l-0.017454,0.038399l-0.052363,0.020945l-0.097744,-0.013963l-0.020945,0.038399l0.073308,0.198979l0.013963,0.20247l-0.034909,0.108217Z M1812.779466,732.888326l-0.023199,0.041758l0.032479,0.037118l0.041758,-0.00928l0.018559,-0.032479l-0.037118,-0.037118h-0.032479Z "/>
</svg>
