<svg xmlns="http://www.w3.org/2000/svg" viewBox="1047.108 341.837 34.207 36.122">
  <path d="M1069.349339,341.908135l0.006237,-0.043068l0.046778,-0.027686l0.155928,0.018458l0.006237,0.030763l-0.112268,0.033839l-0.102912,-0.012305Z M1061.370523,346.365636l0.056134,0.036915l0.074845,-0.004614l0.028067,-0.069216l-0.0421,-0.04153l-0.070167,0.023072l-0.046778,0.055373Z M1061.93654,345.161281h0.084201l0.037423,-0.032301l-0.037423,-0.078445l-0.070167,-0.013843l-0.084201,0.032301l-0.009356,0.059987l0.079523,0.032301Z M1067.995887,345.43353l-0.099794,-0.166118l-0.180876,-0.110745l-0.143453,0.012305l-0.081082,0.09844l0.04366,0.110745l0.155928,0.09844l0.261958,-0.018458l0.04366,-0.02461Z M1062.756719,343.477028l0.130979,0.018458l0.074845,0.061525l0.149691,0.018458l0.006237,-0.04922l-0.130979,-0.110745l-0.205824,-0.055373l-0.068608,0.018458l-0.012474,0.061525l0.056134,0.036915Z M1060.888707,346.213362l0.257281,-0.027686l0.037423,-0.064601l-0.056134,-0.07383l-0.004678,-0.083059l-0.0421,-0.078445l-0.196469,-0.11536l-0.093557,-0.009229l-0.074845,0.050758l0.023389,0.078445l-0.079523,0.170732l0.018711,0.11536l0.210502,0.036915Z M1061.669904,345.779609l0.018711,-0.07383l-0.051456,-0.184576l-0.060812,-0.069216l-0.032745,0.009229l0.032745,0.152275l-0.023389,0.069216l0.056134,0.101517l0.060812,-0.004614Z M1061.46408,346.204133l-0.0421,-0.064601l-0.074845,-0.018458l-0.028067,0.032301l0.014033,0.046144l0.060812,0.032301l0.070167,-0.027686Z M1061.361167,345.484288l0.060812,0.013843l0.070167,-0.032301l0.014033,-0.059987l-0.051456,-0.046144h-0.079523l-0.032745,0.059987l0.018711,0.064601Z M1063.204232,344.289161l0.032745,0.064601l0.070167,0.004614l0.0421,-0.023072l-0.009356,-0.069216l-0.084201,-0.018458l-0.028067,-0.050758l-0.060812,0.013843l-0.023389,0.04153l0.060812,0.036915Z M1061.38336,346.096108l0.035949,-0.018483l-0.044109,-0.053453l-0.103571,-0.037737l-0.023208,0.015115l0.040278,0.04773l0.09466,0.046828Z M1062.235355,344.856222l0.007603,-0.028459l-0.054258,-0.034255l-0.07765,-0.015988l-0.021383,0.021098l0.057847,0.042325l0.087841,0.015279Z M1062.124868,344.947809l0.009328,0.032204l0.046638,0.009201l0.046638,-0.027604v-0.032204l-0.055966,-0.009201l-0.046638,0.027604Z M1060.851456,347.140631l0.012437,0.021249l0.028415,0.007213l0.03249,-0.013568l-0.0123,-0.020576l-0.02931,-0.005952l-0.031732,0.011634Z M1061.118956,346.306691l-0.010241,0.042887l0.033501,0.008654l0.029569,-0.020882l-0.020807,-0.034084l-0.032022,0.003424Z M1063.310508,344.002072l0.012923,0.042268l0.02672,-0.005607l0.012388,-0.039105l-0.027254,-0.019553l-0.024777,0.021997Z M1060.680842,347.660377v0.024441l0.024777,0.014664l0.022299,-0.014664l-0.012388,-0.024441h-0.034687Z M1061.616236,346.432063l0.038137,-0.018019l0.002478,-0.021997l-0.053051,-0.009057l-0.036145,0.026166l0.002478,0.024441l0.046104,-0.001534Z M1058.892447,349.019364l-0.009328,0.055207l0.037311,0.023003l0.06063,-0.023003v-0.041405l-0.041975,-0.023003l-0.046638,0.009201Z M1061.862667,345.349091l0.037311,0.006134l0.012437,-0.015335l-0.027983,-0.033738l-0.034201,-0.003067l-0.003109,0.021469l0.015546,0.024536Z M1061.384166,347.312936l-0.038226,0.010104l0.004857,0.03464l0.051161,0.029137l0.044749,-0.002847l0.014408,-0.030751l-0.076949,-0.040283Z M1062.151517,345.219091l-0.007433,0.031773l0.027254,0.01222l0.04212,-0.009776v-0.026885l-0.029732,-0.017108l-0.03221,0.009776Z M1063.302348,344.148683l0.018582,0.031749l0.033182,-0.001965l0.010883,-0.040064l-0.028161,-0.043227l-0.03285,0.00742l-0.001636,0.046086Z M1061.980571,344.989874l0.022366,-0.009806l0.007455,-0.022063l-0.014911,-0.01716l-0.027336,0.012257l-0.00497,0.019611l0.017396,0.01716Z M1060.794303,349.682372l0.017396,0.002451l0.012425,-0.019611l-0.024851,-0.012257l-0.017396,0.009806l0.012425,0.019611Z M1065.739615,344.1415l0.004678,0.036915h0.060812l0.037423,-0.036915l-0.004678,-0.036915l-0.0421,0.004614l-0.056134,0.032301Z M1060.420924,352.516619l0.051456,0.009229l0.070167,-0.050758l0.004678,-0.110745l-0.070167,-0.023072l-0.023389,0.04153v0.07383l-0.032745,0.059987Z M1059.990564,351.22459l0.06549,-0.004614l0.051456,-0.036915l-0.032745,-0.023072l-0.088879,0.009229l-0.032745,0.036915l0.037423,0.018458Z M1051.228991,357.054809l0.28067,-0.111144v-0.09262l-0.10759,-0.041679l-0.074845,-0.106513h-0.06549l-0.130979,0.111144l-0.191791,0.037048l-0.112268,0.115775l0.018711,0.083358l0.383582,0.004631Z M1050.544469,357.891476l0.068608,-0.111144l-0.04366,-0.055572l-0.224536,0.043223l-0.099794,0.104969l0.037423,0.080271l0.261958,-0.061747Z M1056.772218,353.301065l0.0421,-0.009229l-0.014033,-0.050758l-0.168402,-0.092288l-0.116946,-0.018458l0.023389,0.032301l0.140335,0.059987l0.093557,0.078445Z M1051.402071,356.253646l0.102912,-0.013893l0.084201,-0.180609l-0.028067,-0.175978l0.112268,-0.259336v-0.166716l-0.093557,-0.018524l-0.0421,0.032417l-0.079523,-0.041679l0.014033,-0.189871l0.126301,-0.055572l0.023389,-0.074096l-0.191791,-0.226919l-0.074845,-0.041679l-0.070167,0.013893l-0.070167,0.106513l-0.196469,0.013893l-0.135657,-0.087989h-0.177757l-0.196469,0.120406l-0.032745,0.069465l-0.182435,0.027786l-0.130979,-0.069465l-0.238569,-0.060203l-0.018711,0.023155l0.004678,0.120406l-0.182435,0.143561l-0.145013,0.009262l-0.079523,0.04631l0.112268,0.009262l0.219858,0.111144l0.102912,0.032417l0.037423,-0.027786l-0.028067,-0.050941l0.046778,-0.018524l0.177757,0.041679l0.13005,-0.019807l0.047708,0.015176l0.037423,0.060203l0.196469,-0.050941l0.079523,-0.064834l0.112268,0.023155l0.093557,0.078727l-0.079523,0.384373l0.074845,0.041679l0.168402,-0.013893l0.135657,0.087989l0.037423,0.125037l0.196469,0.171347Z M1051.693656,355.222477l0.088879,0.023155l0.112268,-0.018524l0.028067,-0.134299l-0.0421,-0.027786l-0.17308,0.04631l-0.037423,0.055572l0.023389,0.055572Z M1052.025781,355.287311l-0.023389,0.064834l0.032745,0.032417l0.074845,-0.018524l0.032745,-0.087989l-0.018711,-0.106513l-0.070167,-0.023155l-0.046778,0.018524l-0.018711,0.060203l0.037423,0.060203Z M1049.820965,353.973651l0.062371,-0.030873l0.060812,-0.009262l0.014033,-0.064834l-0.079523,-0.060203l-0.079523,0.027786l-0.009356,0.111144l0.031186,0.026242Z M1050.064212,354.46145l0.112268,-0.041679h0.060812l0.0421,-0.037048l-0.056134,-0.027786l-0.051456,0.023155l-0.088879,-0.009262l-0.074845,0.032417l-0.028067,0.050941l0.084201,0.009262Z M1051.406749,356.341635l0.0421,0.055572l0.056134,0.013893l0.032745,-0.060203l-0.056134,-0.050941l-0.056134,-0.004631l-0.018711,0.04631Z M1054.199412,363.720755l0.149691,0.006245l0.130979,-0.106171l-0.024948,-0.087435l-0.230773,-0.031227l-0.081082,0.062453l-0.04366,0.087435l0.099794,0.068699Z M1053.750341,363.55213l0.17607,-0.030428l0.113536,-0.124514l0.022249,-0.126099l-0.068608,-0.074944l-0.118505,-0.012491l-0.155928,0.137398l-0.062371,0.162379l0.093557,0.068699Z M1052.634259,362.958684l0.554742,0.218725l0.230773,0.143643l0.149691,-0.012491l0.056134,-0.118662l-0.037423,-0.068699l-0.155928,0.012491l-0.046487,-0.02884l-0.000059,-0.046504l0.065257,-0.112017l-0.037423,-0.049963l-0.137216,0.006245l-0.093557,-0.062453l-0.106031,-0.012491l-0.068608,0.049963l-0.154903,-0.00286l-0.074891,-0.032725l-0.075824,-0.089323l-0.224536,-0.037472l-0.135663,0.040419l-0.038976,0.047016l0.024948,0.09368l0.305978,0.062316Z M1049.203492,358.780628l0.087319,-0.043223l0.118505,-0.006175l0.018711,-0.055572l-0.112268,-0.061747l-0.074845,0.018524l-0.087319,0.117319l0.049897,0.030873Z M1049.714754,358.694678l0.199768,0.005679l0.056134,-0.080271l-0.012474,-0.129668l-0.099794,-0.037048l-0.118505,0.049397l-0.230773,0.012349l-0.051164,0.051104l0.054065,0.061552l0.202743,0.066905Z M1050.02679,359.459841l0.093557,0.006175l0.062371,-0.049397l-0.04366,-0.067921h-0.093557l-0.049897,0.043223l0.031186,0.067921Z M1053.076734,361.48202l0.074845,0.086988h0.099794l0.231706,-0.040591l0.09191,-0.064632l-0.00811,-0.037702l-0.047311,-0.037265l-0.255721,-0.037281l-0.155928,0.043494l-0.031186,0.086988Z M1052.852198,362.103367l0.130979,-0.024854l0.031186,-0.062135l-0.045219,-0.119609l-0.065858,0.014456l-0.032377,0.036805l0.006237,0.068348l-0.095116,0.029514l-0.018711,0.037281l0.088879,0.020194Z M1053.469671,361.318917l0.093557,0.032621l0.051456,-0.027961l-0.015366,-0.048301l-0.068835,-0.0216l-0.056134,0.01864l-0.004678,0.046601Z M1052.032337,361.379405l0.034241,0.035907l0.055879,0.020107l0.070273,0.07684l0.031205,-0.001564l0.002135,-0.04691l-0.033445,-0.084288l-0.06549,-0.051261l-0.040733,-0.002692l-0.045054,0.016158l-0.009011,0.037702Z M1051.869854,360.545341v-0.097862l-0.068194,-0.074358l-0.03004,0.018436l-0.004678,0.097862l0.053641,0.077597l0.049272,-0.021676Z M1051.823076,360.736405l0.06549,-0.032621v-0.037281l-0.070167,-0.041941l-0.037423,0.00932l-0.009356,0.083882l0.051456,0.01864Z M1053.086089,361.677744l0.0421,-0.041941l-0.014033,-0.037281l-0.088879,-0.01398l-0.032745,0.027961l0.0421,0.065241h0.051456Z M1057.254034,362.669975h0.102912l0.046778,-0.042156l-0.037423,-0.037472l-0.126301,0.004684l-0.028067,0.037472l0.0421,0.037472Z M1057.637616,362.182838l0.093557,-0.042156l0.009356,-0.051524l-0.121624,-0.032788l-0.145013,0.037472l-0.014033,0.042156l0.177757,0.04684Z M1057.717139,362.388934l0.06549,0.004684l0.056134,-0.028104l0.116946,0.009368l0.037423,-0.018736l-0.056134,-0.042156l-0.135657,0.009368l-0.084201,0.065576Z M1049.671275,354.115668l0.096675,-0.049397l0.037423,-0.052485l-0.037423,-0.040135l-0.04366,0.021611l-0.056134,0.089533l0.003119,0.030873Z M1049.78978,353.803848l0.056134,-0.018524l0.02183,-0.033961l-0.04366,-0.006175l-0.031186,0.015437l-0.031186,0.037048l0.028067,0.006175Z M1052.322044,355.489531l0.012474,0.043223l0.034304,-0.006175v-0.058659l-0.031186,-0.027786l-0.034304,0.003087l-0.015593,0.024699l0.034304,0.021611Z M1051.319667,353.480363l0.065294,-0.006156l0.003109,-0.030781l-0.068403,-0.021547l-0.049748,0.012312l-0.003109,0.027703l0.052857,0.018469Z M1053.363599,356.593106l0.015979,0.004705l0.046789,-0.020658l0.001929,-0.020173l-0.016034,-0.002347l-0.037,0.01895l-0.011663,0.019523Z M1053.452929,356.120921v0.024529l0.024777,0.014717l0.022299,-0.014717l-0.012388,-0.024529h-0.034687Z M1053.456602,356.714958l-0.004955,0.03434l0.019821,0.009811l0.024777,-0.022076l-0.012388,-0.022076h-0.027254Z M1053.658693,356.191096l-0.009328,0.021547l0.018655,0.01539l0.027983,-0.018469l-0.006218,-0.021547l-0.031092,0.003078Z M1053.565025,356.685013l0.047076,-0.01717l0.004955,-0.026981l-0.047076,-0.012264l-0.03221,0.022076l-0.002478,0.031887l0.029732,0.002453Z M1053.619362,356.545399l0.018582,-0.031864l-0.018316,-0.027463l-0.040615,0.010774l-0.02387,0.045835l0.022939,0.024441l0.041279,-0.021724Z M1053.740609,356.404131l0.025696,0.01954l0.035243,-0.004845l0.011882,-0.025226l-0.027181,-0.016387l-0.027387,0.004632l-0.018253,0.022286Z M1053.022397,356.153992l0.012474,-0.021611l-0.02183,-0.012349l-0.02183,0.009262v0.024699h0.031186Z M1050.98721,357.735322l0.024874,-0.012312l-0.034201,-0.033859h-0.037311l0.006218,0.030781l0.04042,0.01539Z M1052.82724,361.869265l0.033868,0.002392l0.024716,-0.040481l-0.010344,-0.053194l-0.030678,-0.011124l-0.027907,0.049213l0.010344,0.053194Z M1050.171704,359.698209l0.065294,-0.006156l0.003109,-0.030781l-0.068403,-0.021547l-0.049748,0.012312l-0.003109,0.027703l0.052857,0.018469Z M1050.21243,358.512569l0.057186,0.024183l0.061321,0.000493l-0.010522,-0.024198l-0.073037,-0.032894l-0.048011,0.000784l0.013062,0.031631Z M1051.937928,361.424006l0.006461,-0.026946l-0.048184,0.0042l-0.023983,0.028473l0.027815,0.015164l0.03789,-0.020891Z M1053.680427,361.640693l0.015989,-0.018982l-0.002847,-0.029092l-0.024037,-0.025728l-0.015394,0.018621l0.004354,0.029494l0.021935,0.025687Z M1052.764467,361.962483l0.015989,0.018982l0.029253,0.002258l0.029608,-0.019114l-0.015735,-0.018336l-0.029912,-0.00085l-0.029202,0.01706Z M1051.796992,360.950594l-0.004955,0.034556l0.019821,0.009873l0.024777,-0.022214l-0.012388,-0.022214h-0.027254Z M1051.747266,358.395465l0.024777,0.009811l0.014866,-0.009811l-0.004955,-0.024529h-0.024777l-0.009911,0.024529Z M1050.038177,358.64843l0.05856,0.011627l0.010677,-0.020924l-0.049499,-0.039245l-0.042188,0.002901l-0.017439,0.022523l0.039889,0.023119Z M1051.615062,360.780667l0.006218,0.034072l0.024874,0.006195l0.018655,-0.027877v-0.052656l-0.024874,-0.01239 l-0.024874,0.052656Z M1052.897114,361.622582l0.046638,-0.009292l-0.013992,-0.032523l-0.046638,-0.004646l-0.013992,0.027877l0.027983,0.018585Z M1049.504297,359.284469l0.055966,-0.04925l-0.024874,-0.043093l-0.062184,0.024625l-0.018655,0.055406l0.049748,0.012312Z M1050.916369,358.959887l0.037473,-0.004425l-0.009336,-0.025819l-0.041279,-0.021724l-0.020218,0.014389l0.03336,0.037579Z M1049.741519,359.473668l0.027408,-0.012657l-0.021125,-0.017739l-0.046388,-0.003855l-0.020971,0.016337l0.061076,0.017915Z M1051.681022,361.394046l0.043546,0.024819l0.024063,-0.013671l-0.02077,-0.043858l-0.037786,-0.010301l-0.026267,0.018735l0.017213,0.024276Z M1050.096654,360.235515l0.047076,-0.01717l0.004955,-0.026981l-0.047076,-0.012264l-0.03221,0.022076l-0.002478,0.031887l0.029732,0.002453Z M1049.666323,359.201754l0.01501,0.029157l0.028841,-0.007948l0.025896,-0.034319l-0.017519,-0.020669l-0.033924,0.005767l-0.018304,0.028013Z M1052.528027,361.647905l-0.022542,0.024086l0.017409,0.024263l0.041433,0.01243l0.013627,-0.023513l-0.017077,-0.029773l-0.03285,-0.007493Z M1051.336728,361.174278l-0.007433,0.032088l0.027254,0.012341l0.04212,-0.009873v-0.027151l-0.029732,-0.017278l-0.03221,0.009873Z M1050.140743,359.552835l-0.007433,0.031887l0.027254,0.012264l0.04212,-0.009811v-0.026981l-0.029732,-0.01717l-0.03221,0.009811Z M1051.182603,358.540115l0.025787,0.026608l0.021554,-0.005097l-0.01477,-0.05177l-0.034056,-0.032548l-0.021183,0.020799l0.022668,0.042008Z M1052.356764,361.473978l-0.009674,0.047986l0.028236,0.014114l0.074579,-0.063378l0.008643,-0.036712l-0.032389,-0.011908l-0.069395,0.049898Z M1053.414745,360.976237l0.022366,-0.009903l0.007455,-0.022281l-0.014911,-0.01733l-0.027336,0.012378l-0.00497,0.019805l0.017396,0.01733Z M1053.261984,361.238901v0.032621l0.032745,0.00466l0.014033,-0.032621l-0.018711,-0.01864l-0.028067,0.01398Z M1052.089137,362.77082l0.012923,0.042906l0.02672,-0.005692l0.012388,-0.039695l-0.027254,-0.019848l-0.024777,0.022328Z M1052.222176,362.833775l0.046638,-0.03736l-0.009328,-0.021793l-0.062184,0.012453l-0.024874,0.034247l0.006218,0.02802l0.043529,-0.015567Z M1077.429507,359.787672h0.084201l0.074845,-0.069563l0.014033,-0.046375l-0.088879,-0.041738l-0.130979,0.041738l-0.014033,0.078838l0.060812,0.0371Z M1077.162871,360.453866l0.046778,-0.009316l-0.009356,-0.041921l-0.051456,-0.018632l-0.028067,0.032605l0.0421,0.037263Z M1076.442485,360.854447l0.023389,0.046579l0.074845,-0.02329l0.10759,-0.116448l0.154368,-0.102474l-0.014033,-0.032605l-0.210502,0.097816l-0.135657,0.130422Z M1073.719989,371.742192l0.032745,-0.023901l-0.023389,-0.033461l-0.0421,0.00478l-0.009356,0.038241l0.0421,0.01434Z M1073.428405,371.939769l0.053015,0.003187l0.081082,-0.041428l0.024948,-0.038241l-0.06393,-0.001593l-0.067049,0.027087l-0.028067,0.050988Z M1053.530483,361.95735l-0.004678,-0.116502l-0.060812,-0.116502l0.014033,-0.074562l-0.051456,-0.060581l-0.163724,0.027961l-0.028067,0.060581l-0.182435,0.069901l-0.0421,0.055921l0.051456,0.181744l0.112268,0.107182l0.243247,0.00466l0.112268,-0.139803Z M1054.227479,365.789108l0.004678,0.047207l0.074845,0.004721l0.074845,-0.042486v-0.037766h-0.088879l-0.06549,0.028324Z M1054.41927,367.946469l0.112268,0.051928l0.037423,-0.023604l-0.046778,-0.051928l-0.074845,-0.023604l-0.0421,0.014162l0.014033,0.033045Z M1054.349103,367.658506l0.046778,-0.023604v-0.051928l-0.051456,-0.023604l-0.0421,0.028324l0.004678,0.061369l0.0421,0.009441Z M1056.959331,367.540489l0.093557,0.042486l0.037423,-0.018883l-0.023389,-0.056648l-0.074845,-0.004721l-0.032745,0.037766Z M1057.433351,366.756852l0.152809,-0.028324l0.056134,-0.056648l0.003119,-0.031471h-0.087319l-0.127861,0.072384l-0.028067,0.034618l0.031186,0.009441Z M1057.402165,367.040094l0.081082,-0.06609l0.006237,-0.034618l-0.024948,-0.012589l-0.077964,0.06609l-0.009356,0.040913l0.024948,0.006294Z M1057.433351,367.14395l0.081082,-0.075531l0.018711,-0.053501l-0.02183,-0.018883l-0.059252,0.040913l-0.053015,0.094414l0.034304,0.012589Z M1057.614227,367.068419l0.040541,-0.003147l0.02183,-0.031471l-0.012474,-0.028324l-0.053015,0.003147l-0.018711,0.040913l0.02183,0.018883Z M1057.654768,366.791471l0.037423,-0.031471l0.087319,-0.02203l0.056134,-0.047207l-0.018711,-0.031471l-0.118505,0.025177l-0.074845,0.103855l0.031186,0.003147Z M1057.975979,366.800912l0.02183,-0.037766l-0.006237,-0.028324l-0.071727,0.012589l-0.015593,0.025177l0.02183,0.034618l0.049897,-0.006294Z M1051.947818,370.482863l0.070167,0.00477l0.0421,-0.062011l-0.051456,-0.076322l-0.06549,-0.00477l-0.023389,0.076322l0.028067,0.062011Z M1047.304441,371.908193l0.046631,0.018091l0.048048,-0.023435l-0.001304,-0.051542l-0.035902,-0.011981l-0.059197,0.042484l0.001725,0.026382Z M1049.730197,375.247434l-0.025351,0.036999l0.027214,0.041535l0.037342,-0.022902l0.003066,-0.034568l-0.042271,-0.021064Z M1047.160394,372.652935l0.047016,0.007089l-0.001982,-0.034982l-0.042231,-0.020058l-0.022718,0.021218l0.019915,0.026734Z M1047.169839,372.518023l0.017344,-0.024441l-0.027254,-0.004888l-0.04212,0.019553l-0.009911,0.024441l0.061942,-0.014664Z M1049.48851,375.386126l0.055264,-0.025118l0.049919,-0.065947l-0.002081,-0.026304l-0.085143,0.014422l-0.048403,0.048071l0.000548,0.043588l0.029896,0.011288Z M1049.15141,373.507154l-0.026398,0.019626l0.012915,0.026642l0.038636,0.019218l0.017519,-0.020595l-0.011628,-0.031958l-0.031044,-0.012934Z M1054.299206,377.931144l0.087319,0.027686l0.155928,-0.04922l0.180876,-0.144584l-0.009356,-0.052296l-0.115386,-0.009229l-0.255721,0.150737l-0.04366,0.076907Z M1053.981114,377.386646l0.152809,-0.039991l0.093557,-0.083059l-0.024948,-0.009229l-0.243247,0.095364l-0.02183,0.036915h0.04366Z M1054.402118,377.269748l0.028067,0.003076l0.034304,-0.015381l0.003119,-0.039991h-0.028067l-0.034304,0.02461l-0.003119,0.027686Z M1054.648484,377.192841l0.062371,-0.018458l0.015593,-0.02461l-0.034304,-0.009229l-0.056134,0.009229l-0.028067,0.021534l0.040541,0.021534Z M1054.85119,377.380493l0.049897,0.015381l0.040541,-0.012305l0.031186,-0.055373l0.006237,-0.027686l-0.106031,-0.003076l-0.084201,0.058449l-0.003119,0.033839l0.06549,-0.009229Z M1055.057014,377.463552l-0.059252,0.015381l-0.024948,0.033839l-0.003119,0.058449l-0.053015,0.036915l-0.015593,0.064601l0.034304,0.02461l0.168402,-0.092288l0.056134,-0.07383l-0.012474,-0.12305l-0.037423,-0.003076l-0.053015,0.058449Z M1055.172401,377.358959l0.028067,0.030763l0.081082,-0.015381l0.096675,-0.07383l0.040541,-0.086135l0.015593,-0.067678l-0.02183,-0.009229l-0.034304,0.046144l-0.115386,0.092288v0.043068l-0.037423,0.02461l-0.034304,-0.009229l-0.018711,0.02461Z M1051.760705,376.309955l0.130979,-0.012305l0.040541,0.039991l0.040541,0.006153l0.196469,-0.079983l0.159046,-0.009229l0.077964,-0.067678l0.109149,-0.043068l0.081082,-0.083059l-0.009356,-0.021534l-0.121624,0.036915l-0.087319,0.067678l-0.049897,-0.003076l-0.034304,-0.055373l-0.162165,-0.012305l-0.290025,0.036915l-0.112268,0.104593l-0.015593,0.067678l0.046778,0.027686Z M1049.627615,376.562208l0.024948,0.027686l0.127861,-0.052296l0.218299,-0.04922l0.130979,-0.086135l-0.034304,-0.043068l-0.196469,0.018458l-0.143453,0.067678l-0.127861,0.116898Z M1047.382257,372.347731l0.018711,0.021534l0.152809,-0.104593l0.233891,-0.095364l0.024948,-0.043068l-0.04366,-0.027686l-0.077964,0.012305l-0.056134,0.058449l-0.180876,0.058449l-0.071727,0.119974Z M1054.523742,375.740846l0.087319,-0.110745l-0.006237,-0.067678l-0.068608,0.012305l-0.174639,0.110745v0.067678l0.162165,-0.012305Z M1048.637475,373.964306l0.233891,-0.027686l0.112268,-0.078445l0.229214,-0.07383l0.070167,-0.110745l-0.046778,-0.050758h-0.205824l-0.112268,-0.04153l-0.060812,0.013843l-0.037423,0.069216l-0.159046,0.069216l-0.128329,0.011442l-0.075691,0.046221l-0.090683,0.159214l-0.004678,0.07383h0.060812l0.088879,-0.059987h0.126301Z  M1079.952465,350.574537l0.049848,-0.051335l0.079523,-0.027686l0.037423,0.023072l-0.088879,0.092288l-0.105251,0.01269l-0.022366,-0.03432l0.049702,-0.014708Z M1079.900278,350.547572l0.034791,-0.002451l0.027336,-0.058833l0.062127,-0.039222l-0.00994,-0.036771l-0.054672,0.002451l-0.037276,0.058833l-0.022366,0.075993Z M1080.066779,351.086879l0.014911,-0.01716h0.022366l0.032306,-0.019611l-0.00994,-0.029417l-0.049702,-0.002451l-0.027336,0.014708l-0.002485,0.051479l0.019881,0.002451Z M1079.841698,351.778215l0.034687,-0.01222l-0.017344,-0.024441h-0.052031l-0.012388,0.026885l0.047076,0.009776Z M1080.225303,350.338363l0.013912,-0.009061l0.01409,-0.048588l-0.014369,-0.014378l-0.012123,0.010613l-0.00912,0.040096l0.00761,0.021318Z M1080.563848,352.450397l0.012437,0.042939l0.049748,0.006134l0.006218,-0.042939l-0.024874,-0.024536l-0.043529,0.018402Z M1079.933312,350.661533v0.024441l0.024777,0.014664l0.022299,-0.014664l-0.012388,-0.024441h-0.034687Z M1080.024668,350.858309l0.011741,0.031198l0.020469,-0.001869l0.004955,-0.031773l-0.022299,-0.014664l-0.014866,0.017108Z M1080.092081,350.993769l0.024777,0.009776l0.014866,-0.009776l-0.004955,-0.024441h-0.024777l-0.009911,0.024441Z M1080.033517,350.72163l-0.009328,0.021469l0.018655,0.015335l0.027983,-0.018402l-0.006218,-0.021469l-0.031092,0.003067Z M1080.379648,350.370826l0.021765,-0.015335l-0.024874,-0.018402l-0.043529,0.003067l0.006218,0.024536l0.04042,0.006134Z M1079.948158,350.820866l0.009911,0.024441l0.022299,-0.002444l0.029732,-0.024441l-0.014866,-0.021997l-0.03221,0.004888l-0.014866,0.019553Z M1080.100002,351.137392l0.022366,-0.009806l0.007455,-0.022063l-0.014911,-0.01716l-0.027336,0.012257l-0.00497,0.019611l0.017396,0.01716Z M1080.702418,348.789628l0.028067,0.006153l0.018711,-0.021534l-0.018711,-0.021534l-0.028067,0.009229v0.027686Z M1080.781941,348.772709l0.028067,0.006153l0.018711,-0.021534l-0.018711,-0.021534l-0.028067,0.009229v0.027686Z M1079.798867,350.560881l0.007455,-0.019611l-0.017396,-0.009806l-0.017396,0.014708l0.00497,0.019611l0.022366,-0.004903Z M1080.638351,348.971325l0.044732,0.036771l0.067098,0.004903l0.012425,-0.049028l-0.037276,-0.046577l-0.094434,-0.019611l-0.039762,0.024514l-0.002485,0.044125l0.049702,0.004903Z M1075.722831,343.166422l0.062127,0.03432l0.183897,-0.002451l0.171472,-0.031868l0.164016,0.026965l0.027336,0.049028l-0.047217,0.093153l0.007455,0.110313l0.037276,0.053931l0.037276,-0.004903l0.057157,-0.137278l0.012425,-0.110313l0.054672,-0.090702l-0.044732,-0.063736l-0.124255,-0.039222l-0.159046,0.004903l-0.12177,-0.051479l-0.104374,0.012257l-0.193838,0.095604l-0.019881,0.051479Z  M1069.313475,345.295098l0.066,-0.115l0.239,-0.231l0.135,-0.231l0.262,-0.221l0.239,-0.056l0.463,-0.272l0.252,-0.06l0.412,-0.194l0.122,-0.106l-0.01,-0.115l-0.205,-0.139l-0.262,-0.009l-0.066,-0.018l-0.051,-0.083l-0.206,-0.083l-0.127,0.014l-0.369,-0.185l-0.117,-0.005l-0.108,-0.05l-0.028,-0.125l-0.093,-0.069l-0.005,-0.065l0.038,-0.078l-0.23,-0.143l-0.098,-0.005l-0.187,-0.078l-0.112,-0.01l-0.178,-0.073l-0.262,-0.024l-0.267,-0.129l-0.131,0.019l-0.014,0.101l0.085,0.088l0.107,0.018l0.075,0.079l0.019,0.194l0.187,0.193l0.416,0.254l-0.028,0.042l-0.22,0.014l-0.346,-0.083l0.037,-0.033h0.197l0.019,-0.06l-0.202,-0.161l-0.163,-0.051l-0.08,0.046l-0.028,0.148l-0.093,0.051l-0.286,0.055l-0.135,-0.083l-0.061,0.014v0.083l-0.075,0.018l-0.145,-0.06l-0.14,0.014l-0.028,0.06l0.079,0.152l-0.028,0.106l-0.08,0.037l0.005,0.047l0.038,0.027l-0.014,0.074l-0.08,0.065l-0.042,0.11l-0.005,0.107l-0.065,0.05l0.018,0.051l0.094,0.014l0.182,0.157l0.295,0.369l0.038,0.129l-0.145,0.226l0.018,0.097l0.094,0.032l0.065,0.097l0.014,0.097l0.061,0.097l-0.056,0.069l-0.355,0.037l-0.071,0.037v0.12l-0.046,0.028l-0.117,-0.005l-0.356,0.263l-0.14,0.217l-0.056,0.032l-0.075,-0.023l-0.229,0.116h-0.108l0.103,-0.037l0.108,-0.12l0.051,-0.111l0.126,-0.129l0.225,-0.111l0.21,-0.194l0.024,-0.101l-0.103,-0.083l-0.225,0.074l-0.07,-0.019l-0.089,0.042l-0.093,0.014l0.131,-0.134l0.117,-0.014l0.074,-0.056l0.024,-0.092l0.061,-0.083l0.374,-0.129l0.047,-0.055l-0.042,-0.074l0.014,-0.065l0.051,-0.046l0.005,-0.092l-0.361,-0.337l-0.004,-0.102l-0.098,-0.078l-0.122,-0.014l-0.089,-0.065l-0.023,-0.078l0.098,-0.152l-0.042,-0.259l-0.131,-0.281h-0.155l-0.116,0.097l-0.075,0.018l-0.038,0.032l-0.009,0.065l-0.056,0.046l-0.144,-0.003l-0.053,-0.049l-0.128,0.025l-0.056,0.113l-0.224,0.203l-0.006,0.071l0.034,0.052l0.078,0.019l0.043,0.095l0.093,0.015l0.06,-0.064l0.047,0.025v0.066l0.059,0.078l0.109,0.064l0.04,-0.015l-0.012,-0.11l-0.068,-0.102l0.012,-0.098l-0.015,-0.111l0.068,-0.086l0.047,0.031l-0.006,0.126l0.056,0.117l-0.028,0.015l-0.041,-0.028l-0.031,0.019l0.028,0.074l0.103,0.117l0.069,0.036l0.09,0.16l-0.009,0.142l-0.1,0.172l-0.044,0.182l-0.043,0.009l-0.05,-0.077l0.078,-0.255l-0.019,-0.13l-0.146,-0.159l-0.347,-0.148l-0.121,0.015l-0.025,0.04l-0.05,-0.003l-0.081,-0.151l0.012,-0.11l0.141,-0.216l0.012,-0.101l0.059,-0.099l-0.02,-0.03l-0.075,0.041l-0.06,0.002l-0.047,0.067l-0.041,0.117l-0.084,0.031l-0.094,-0.031l-0.14,0.031l-0.056,0.215l0.075,0.114l0.096,0.034l0.06,-0.034l0.05,0.04l0.04,0.123l-0.053,0.133l-0.087,0.03v0.08l-0.084,0.089l0.012,0.077l-0.031,0.01l-0.078,-0.08l-0.053,-0.003l-0.078,0.033l-0.028,-0.033l0.04,-0.059l0.166,-0.068l0.059,-0.08l-0.025,-0.046l-0.121,0.005l-0.055,0.042l-0.077,0.024l-0.005,-0.024l0.085,-0.049l0.083,-0.068l-0.016,-0.025l-0.09,0.031l-0.028,-0.04l0.001,-0.082l-0.042,-0.035l-0.193,0.089l-0.122,-0.018l-0.056,-0.037l-0.094,0.018l-0.028,-0.015l0.215,-0.108l0.028,-0.08l-0.046,-0.065l-0.109,-0.003l-0.1,-0.083l-0.088,0.013l-0.071,0.061l-0.113,0.043l-0.031,0.108v0.157l-0.075,0.071l-0.124,0.012l-0.094,0.068l-0.15,0.027h-0.171l-0.032,0.049l-0.025,0.125l-0.074,0.022l-0.013,0.095l-0.062,0.052l-0.057,0.005l-0.035,-0.034l0.045,-0.069l-0.013,-0.047l0.085,-0.103l0.07,-0.036l-0.003,-0.052l-0.052,-0.017l-0.06,0.007l-0.027,0.035l0.005,0.073l-0.047,0.044l-0.065,0.005l-0.07,-0.022l-0.201,0.003l-0.253,-0.027l-0.231,-0.052l-0.065,0.037l-0.003,0.039l0.02,0.042l-0.029,0.171l-0.125,0.125v0.145l0.12,0.091l-0.008,0.017h-0.045l-0.104,-0.042l-0.027,0.022l0.074,0.182l-0.002,0.056l-0.03,0.096l0.032,0.054l0.062,0.017l0.142,0.014l-0.067,0.018l-0.122,-0.01l-0.062,-0.025l-0.017,0.025l0.027,0.152l-0.025,0.017l-0.062,-0.042l-0.027,-0.083l0.002,-0.088l0.087,-0.081l0.02,-0.088l-0.04,-0.02l-0.129,0.022l-0.022,0.039l0.032,0.088l-0.003,0.054l-0.049,0.047l-0.13,0.039h-0.084l-0.077,-0.039l-0.047,0.049l0.037,0.078l-0.005,0.04l-0.05,0.068l-0.002,0.091l-0.032,0.002l-0.075,-0.029l-0.167,0.022l-0.019,0.059l0.077,0.083l0.007,0.062l-0.017,0.034l0.228,0.206l0.164,0.073l0.107,-0.002v0.022l-0.087,0.061l-0.084,-0.01l-0.149,0.047l-0.177,0.017l-0.005,-0.015l0.025,-0.029l-0.005,-0.032l-0.047,-0.012l-0.07,0.037l-0.015,0.054l0.075,0.036l-0.003,0.04l-0.067,0.068l0.003,0.047l0.064,0.086l0.259,0.088l0.077,0.059l0.06,0.063l0.054,-0.014l0.013,-0.115l-0.023,-0.047l0.018,-0.012l0.069,0.024l0.06,-0.005l0.077,-0.032l0.035,0.01l0.007,0.103l0.057,0.035l0.125,0.009l0.007,0.02l-0.062,0.034l-0.02,0.049l-0.037,0.005l-0.11,-0.056l-0.077,0.002l-0.054,0.037l-0.08,0.005l-0.035,-0.017l-0.027,0.01l-0.002,0.198l0.027,0.039l0.047,0.01l0.052,-0.024l0.1,0.024l0.012,0.052l0.08,0.036l0.161,-0.024l0.199,-0.128l0.104,-0.041l0.068,-0.081l-0.025,0.078l-0.053,0.049l-0.072,0.02l-0.211,0.135l-0.132,0.037l-0.019,0.022l-0.09,-0.005l-0.112,-0.008l0.003,-0.041l-0.04,-0.015l-0.05,0.022l-0.109,-0.049v-0.054l-0.037,-0.01l-0.04,0.04l-0.04,0.004l-0.042,-0.027l-0.052,0.01l-0.023,0.03l-0.124,0.061l-0.072,-0.003l-0.099,-0.068l-0.13,0.01l-0.069,0.088l0.007,0.044l-0.032,0.02l-0.149,-0.049l-0.137,0.022l-0.059,0.051l0.014,0.025l0.145,0.019l0.087,-0.012l0.022,0.02l-0.03,0.066l0.045,0.034l0.069,-0.005l0.087,0.044l0.003,0.064l0.035,0.02l0.077,-0.04l0.082,0.01l0.136,0.108l0.01,0.057l0.097,0.083l0.07,-0.017l0.052,0.014l-0.012,0.035l-0.095,0.063l-0.057,-0.012l-0.112,-0.076l-0.022,-0.071l-0.092,-0.086l-0.087,-0.002l-0.05,0.032l-0.067,-0.015l-0.109,0.027l-0.065,-0.032l-0.119,-0.002l-0.022,0.024l0.039,0.054l0.115,0.044l0.032,0.037l0.065,0.012l0.069,-0.024l0.149,0.034l0.052,0.049l0.028,0.047l0.102,0.01l0.022,0.014l-0.067,0.02l-0.107,-0.012l-0.149,-0.052h-0.082l-0.017,-0.034l-0.053,-0.015l-0.037,0.025l-0.082,-0.008l-0.174,-0.09l-0.201,-0.035l-0.321,0.071l-0.139,0.008l-0.037,0.017l-0.013,0.037l-0.062,0.029h-0.054l-0.095,0.069l-0.015,0.051l-0.035,0.032l-0.101,0.012l-0.107,0.071l-0.057,0.089l0.009,0.085l0.035,0.054l0.047,-0.009l0.048,0.004l-0.053,0.02l-0.024,0.022h-0.045l-0.027,-0.032l-0.063,0.01l-0.087,0.056l-0.067,0.003l-0.022,-0.03l-0.055,0.003l-0.042,0.049l0.017,0.071l0.055,0.044l0.047,0.007l-0.002,0.116l-0.055,0.068l0.01,0.03l0.174,0.086l0.266,0.066l0.109,0.051l0.082,0.012l0.085,0.074l-0.013,0.047l0.01,0.063l0.03,0.018l0.095,-0.02l0.079,0.012l0.097,-0.024l0.015,-0.022l-0.005,-0.049l-0.037,-0.094l0.017,-0.017l0.05,0.047l0.007,0.027l-0.015,0.017l0.01,0.039l0.087,0.079l0.127,0.031l0.052,-0.007l0.047,0.027l-0.01,0.049l0.028,0.005l0.05,-0.042l0.106,-0.041l0.14,-0.008l0.256,-0.117h0.071l0.029,0.034l0.006,0.166l0.034,0.052l0.1,-0.003l0.118,-0.163l0.022,-0.095l0.091,-0.133l0.028,0.01l-0.056,0.135l-0.007,0.065l-0.028,0.061l0.025,0.018l0.084,-0.046l0.072,-0.098l0.116,-0.019l0.037,0.028l0.05,0.151l-0.125,0.126l-0.249,0.086l-0.066,0.009l-0.015,0.028l0.003,0.052l-0.094,0.093l0.022,0.024l0.072,-0.003l0.059,-0.052v-0.059l0.059,-0.043l0.225,-0.04l0.078,-0.067l0.068,-0.071l0.138,-0.095l0.046,-0.105l0.075,-0.055l0.231,-0.068l0.069,-0.049l0.056,0.009l0.043,0.071l-0.159,0.237l0.016,0.073l0.034,0.013l0.153,-0.05l0.377,-0.215l0.237,-0.092l0.106,0.04l0.119,-0.037l0.059,-0.074l0.044,0.012l0.012,0.05l-0.047,0.07l0.016,0.083l0.078,0.025l0.003,0.046l-0.09,0.049l-0.05,0.065l-0.063,-0.006l-0.059,-0.169h-0.056l-0.019,0.086l0.007,0.163l-0.253,0.197l-0.112,0.015l-0.01,0.049l0.053,0.154l-0.025,0.046l-0.305,0.16l-0.01,0.08l0.082,0.096l0.134,0.027h0.171l0.034,0.05l-0.043,0.009l-0.069,-0.019l-0.196,0.025l-0.075,-0.028l-0.044,0.034l-0.009,0.071l-0.178,0.111l-0.215,0.061l-0.271,0.059l-0.163,0.015l-0.14,0.074l-0.14,0.015l-0.078,-0.037l-0.016,-0.037l0.031,-0.04l-0.046,-0.049l-0.094,0.009l-0.069,0.136l0.029,0.11l-0.019,0.068l-0.078,0.04l-0.094,0.086l-0.012,0.077l-0.293,0.175l-0.094,-0.018l0.016,-0.031l0.109,-0.024l0.184,-0.114l0.025,-0.053l-0.031,-0.015l-0.075,0.019l-0.028,0.073l-0.116,0.065l-0.115,0.003l-0.044,0.04l-0.003,0.089l-0.137,0.08l-0.122,0.031l-0.04,0.028l-0.013,0.067l-0.04,0.019l-0.125,-0.009l-0.168,0.061l-0.022,0.065l0.028,0.089l0.097,0.04l0.037,0.071l-0.041,0.07l0.019,0.04l0.081,0.019l0.016,-0.034l-0.038,-0.049l0.041,-0.037l0.259,-0.043l0.093,-0.043l0.191,0.009l0.315,0.148l0.006,0.067l-0.094,0.037l-0.181,-0.061l-0.075,-0.111l-0.049,0.006l-0.05,0.179l0.037,0.073l0.262,0.025l0.256,0.105l-0.025,0.067l-0.187,0.043l-0.381,0.007l-0.087,-0.044l-0.1,0.019l-0.118,0.197l0.025,0.049l0.124,-0.025l0.187,0.142l0.044,0.092l0.306,0.074l0.043,0.037l-0.35,0.055l-0.111,-0.024l-0.112,-0.154l-0.237,-0.172l-0.069,-0.154l-0.193,-0.062l-0.219,0.08h-0.149l-0.125,-0.092l-0.156,0.006l-0.15,0.129l-0.193,0.043l-0.443,-0.178l-0.062,-0.092l-0.187,-0.093l-0.156,0.007l-0.181,0.03l-0.287,-0.055l-0.169,0.049l-0.042,0.219l-0.28,0.452l-0.201,0.101l0.018,0.249l-0.089,0.365l-0.028,-0.101l0.028,-0.12l-0.065,-0.194l-0.183,-0.171l-0.238,-0.037l-0.014,-0.097l0.15,-0.152l-0.043,-0.079l-0.088,-0.055l0.018,-0.263l-0.042,-0.037l-0.173,0.102l-0.051,-0.028l0.028,-0.157l-0.089,-0.134l-0.332,-0.064l-0.201,-0.116l-0.075,0.033l-0.141,0.24h-0.056l-0.093,-0.097l-0.44,-0.033l-0.108,-0.055h-0.14l-0.084,0.055l-0.112,-0.004l-0.071,-0.06l-0.149,-0.037l-0.295,-0.005l-0.047,-0.037h-0.079l-0.211,0.097l-0.356,-0.045l-0.308,-0.22l-0.318,-0.046l-0.187,0.12l-0.141,0.051l-0.028,0.097l0.047,0.093l0.103,0.019l0.108,0.069l0.14,-0.014l0.098,0.028l-0.037,0.023l-0.089,-0.005l-0.028,0.042l0.084,0.111l0.234,0.102l0.093,0.084l-0.126,-0.028l-0.252,-0.125l-0.075,-0.107l-0.127,0.005l-0.201,0.088l-0.098,0.241l0.005,0.092l-0.024,0.074l0.047,0.028l-0.019,0.065l-0.243,0.051l-0.224,-0.014l-0.136,-0.06l0.037,-0.037l0.295,-0.037l0.14,-0.139l0.071,-0.218l-0.052,-0.014l-0.117,0.033l-0.28,-0.051l-0.216,-0.283l-0.084,-0.046l-0.042,0.018l-0.005,0.07l-0.145,0.116l-0.135,0.014l-0.164,0.101l-0.033,0.176l0.056,0.112l-0.023,0.037l-0.112,-0.061l-0.089,-0.004l0.014,0.035l0.19,0.087l0.078,0.006l0.044,0.04l-0.056,0.13l-0.119,0.031l-0.065,0.08l0.043,0.133l-0.009,0.08l-0.128,0.256l-0.062,0.046l-0.06,0.121l0.022,0.117l-0.009,0.056l-0.044,0.031v0.064l0.081,0.071h0.063l0.134,0.059l0.112,-0.009l0.075,-0.074l-0.016,-0.108l-0.059,-0.04l-0.087,-0.013l-0.022,-0.062l0.031,-0.043l0.094,0.009l0.012,-0.033l-0.05,-0.078l0.028,-0.046l0.072,-0.031l-0.003,-0.037l-0.165,-0.059l0.003,-0.052l0.128,-0.068h0.152l0.041,-0.052l-0.05,-0.124l0.022,-0.025h0.087l0.072,0.028l0.069,-0.062l0.012,-0.083l-0.041,-0.096l0.05,-0.049l0.06,0.003l0.196,0.157l0.193,0.062l0.013,0.047l-0.028,0.092l-0.091,0.046l0.007,0.053l0.065,0.108l0.066,0.025l0.003,0.034l-0.05,0.012l-0.094,-0.037l-0.04,0.037l0.112,0.191l0.056,0.016l0.056,-0.053l0.056,0.025l0.078,0.093l-0.04,0.012l-0.084,-0.028l-0.069,0.025l-0.041,0.056l-0.087,0.033l-0.231,0.034l-0.012,0.034l0.097,0.065l0.068,0.189l-0.019,0.067l0.032,0.025l0.087,-0.009l0.084,0.025l0.063,-0.01l0.049,-0.043l0.128,-0.021l0.041,-0.065l-0.044,-0.145l0.031,-0.034l0.119,-0.007l0.078,-0.092v-0.053l0.044,-0.021l0.205,0.04l0.003,0.034l-0.174,0.025l-0.013,0.043l0.081,0.062l-0.018,0.043l-0.113,0.046l-0.04,0.09l0.05,0.064l-0.025,0.081l-0.038,0.003l-0.096,-0.093l-0.028,0.012v0.081l-0.088,0.123l-0.012,0.118l0.162,0.203l0.144,0.053l0.109,0.021l0.087,0.068l-0.016,0.025l-0.074,-0.012l-0.019,0.04l0.003,0.077l-0.031,0.099l0.028,0.046l0.04,0.003l0.05,-0.037l0.109,0.006l0.05,-0.027h0.038l0.059,0.213l-0.012,0.21l-0.032,0.083l-0.037,-0.016l-0.025,-0.08l0.05,-0.071v-0.12l-0.041,-0.025l-0.075,0.009l-0.084,-0.04l-0.043,-0.049l-0.216,-0.006l-0.243,0.068l-0.043,0.086l-0.01,0.074l0.044,0.043l-0.034,0.087l-0.075,0.037l-0.013,0.055l0.019,0.164l-0.087,0.164l0.046,0.04l0.187,0.043l0.262,-0.006l0.319,-0.118l0.205,-0.225l0.056,-0.003l0.172,0.096l0.041,-0.003l0.012,-0.056l0.365,-0.009l0.203,0.021l0.053,0.037l0.277,0.028l0.091,-0.031l0.115,0.05l0.012,0.068l-0.046,0.058l0.028,0.152l0.053,0.055l-0.038,0.013l-0.128,-0.025l-0.124,0.059l-0.031,0.083l-0.007,0.197l0.178,0.093l0.115,0.003l0.053,-0.025l0.113,0.053l-0.025,0.031l-0.103,0.018l-0.119,0.124l-0.193,0.025l-0.05,-0.044l-0.106,-0.003l-0.031,0.04l-0.084,-0.009l-0.047,-0.046l-0.176,0.018l-0.08,0.065l-0.393,0.033l-0.089,-0.056l-0.205,0.023l-0.206,0.097l-0.426,0.037l-0.042,0.075l0.056,0.12l-0.005,0.13l-0.117,0.166l-0.009,0.19l0.047,0.088l-0.014,0.176l0.065,0.084l0.131,0.032l0.089,0.139l0.519,0.245l0.174,0.037l0.43,-0.032l0.182,-0.093l-0.004,0.033l-0.052,0.041l-0.135,0.079l-0.431,0.033l-0.224,-0.042l-0.337,-0.162l-0.3,0.032l-0.098,0.121l-0.341,0.004l-0.22,-0.074l-0.154,0.009l-0.16,-0.023l-0.028,0.056l0.099,0.153l0.135,0.092l0.244,0.042l0.009,0.042l-0.126,0.046l0.004,0.056l0.131,-0.014l0.038,0.037l-0.047,0.032l-0.117,0.033l-0.112,-0.028l-0.061,-0.139l-0.201,-0.065l-0.491,-0.042l-0.01,0.047l0.178,0.106l-0.005,0.042l-0.201,-0.014l-0.187,-0.056l-0.22,0.061l-0.023,0.083l0.093,0.037l0.173,-0.009l0.08,0.074l0.07,0.213l0.248,0.157l0.337,0.102l0.154,0.134l-0.093,-0.009l-0.244,-0.129l-0.126,-0.005l-0.028,0.065l0.112,0.092l0.164,0.037l0.005,0.051l-0.075,0.065l-0.019,0.088l-0.121,0.009l-0.23,-0.115l-0.126,0.018l-0.075,0.121l-0.178,0.176l0.024,0.041l0.178,-0.014l0.107,0.065v0.06h0.061l0.112,-0.097l0.234,-0.065l0.159,0.065l0.056,0.07v0.12l0.131,0.074l0.262,-0.033l0.098,0.08l0.052,-0.005l0.023,-0.065l0.201,-0.056l0.029,-0.079l-0.033,-0.136l0.037,-0.107l0.131,-0.018l0.089,0.107l0.023,0.144l0.075,0.028l0.136,-0.06l0.136,-0.163l0.084,-0.024l0.023,0.014l-0.042,0.061l0.019,0.056l0.084,-0.028l0.037,0.014l-0.037,0.135l-0.15,0.088l-0.285,0.08l-0.136,0.004l-0.032,0.084l0.028,0.089l-0.108,0.209l0.019,0.07l0.149,0.07l0.122,-0.051l0.122,0.014l0.407,0.21l0.051,-0.014l0.014,-0.056l0.103,-0.042h0.126l0.071,-0.089l0.028,-0.107l0.131,-0.236l0.212,-0.137l0.062,-0.074l0.025,-0.075l0.094,-0.031l0.043,0.106l-0.025,0.217l-0.075,0.087l-0.107,0.017l0.009,0.047l0.164,0.065l0.262,-0.037l0.033,-0.047l-0.071,-0.065l0.01,-0.158l-0.042,-0.108l0.051,-0.042l0.173,-0.027l0.038,0.032l-0.071,0.056l-0.084,0.023l-0.009,0.07l0.159,0.177l0.005,0.084l-0.169,0.061l-0.121,0.018l-0.043,0.061l0.029,0.07l0.051,0.033l0.056,0.242l-0.033,0.074l-0.112,0.07l-0.051,0.173l0.121,0.116l0.136,-0.028l0.098,-0.116l-0.019,-0.177l0.071,-0.089l0.14,-0.046l0.023,0.032l-0.107,0.112l0.004,0.121l0.071,0.163l0.14,0.057l0.182,0.014l0.337,-0.079l0.393,-0.01l0.211,-0.046l0.299,0.004l0.608,-0.07l0.416,0.005l0.562,-0.122l0.107,-0.094l0.08,-0.009l0.154,0.028l0.127,-0.009l0.065,0.037l0.089,-0.009l0.075,-0.057l0.126,-0.014l0.047,0.043l-0.028,0.075l-0.215,0.042l-0.099,0.168l0.005,0.155l0.187,0.098l0.239,-0.033l0.131,-0.084l0.047,0.005l-0.061,0.094l-0.169,0.098l-0.103,0.169l-0.004,0.103l0.065,0.084l0.038,0.192l-0.052,-0.019l-0.079,-0.084l-0.192,-0.08l0.028,-0.047l0.07,-0.018l-0.009,-0.042l-0.07,-0.005l-0.141,0.051l-0.154,-0.009l-0.126,0.042l0.032,0.042l0.281,0.066v0.051l-0.117,0.038l-0.281,-0.103l-0.163,-0.005l-0.108,-0.033h-0.098l-0.103,0.085l0.056,0.032l0.206,0.005l0.089,0.089l0.004,0.08l-0.107,-0.08l-0.15,-0.023l-0.15,0.131l-0.116,0.019l-0.122,-0.043l-0.379,-0.206l-0.201,-0.056l-0.159,0.08l-0.066,0.126l0.019,0.155l-0.164,0.176l-0.271,0.128l-0.051,0.118v0.061l-0.038,0.085l-0.093,0.076l-0.108,0.156l-0.009,0.136l-0.173,0.218l-0.033,0.151l-0.122,0.122l-0.112,0.057l-0.033,0.118l0.061,0.024l0.21,-0.033l0.258,0.014l0.196,-0.071l0.084,0.033l-0.028,0.156l-0.215,0.193l-0.257,0.123l-0.089,0.142l0.042,0.052l-0.014,0.08l-0.075,0.033l-0.004,0.057l0.088,0.051l-0.028,0.085l-0.089,-0.009l-0.037,0.038v0.075l-0.065,0.085l-0.159,0.014l-0.019,0.057l0.075,0.198l-0.028,0.066l-0.075,0.033l-0.019,0.034l0.056,0.07l-0.065,0.128l-0.159,-0.005l-0.01,0.057l-0.051,0.004l-0.089,-0.094l-0.313,0.014l-0.103,0.123l-0.085,0.009l-0.023,0.066l0.014,0.104l-0.145,0.128l-0.131,0.189l-0.365,0.264l-0.519,0.252l-0.07,0.128l-0.402,0.142l-0.033,0.066l-0.075,0.033l-0.103,-0.005l-0.21,0.16l0.033,0.057l0.332,-0.014l0.168,-0.118l0.159,-0.01l0.183,0.052l0.393,-0.122l0.009,-0.052l0.061,-0.019l0.163,0.057l0.057,-0.048l-0.001,-0.125l0.07,-0.08l0.618,-0.047l0.126,-0.099l0.183,-0.071l0.014,-0.057l-0.103,-0.099l-0.131,-0.057l0.014,-0.051l0.229,0.009l0.042,0.061l0.019,0.151l0.355,0.203l0.253,0.062l0.145,0.071l0.173,0.004l0.318,-0.108l0.089,-0.081l0.29,-0.113l0.131,-0.014l0.005,0.047l-0.37,0.232l-0.047,0.099l0.066,0.075l0.238,0.01l0.202,-0.137l0.023,-0.109l0.084,-0.047l0.463,-0.01l0.127,-0.023l0.322,-0.302l0.164,-0.109l0.122,-0.264l-0.014,-0.099l0.046,-0.071l0.094,-0.043l0.042,-0.07l0.014,-0.161l0.094,-0.123l0.135,-0.042l0.173,-0.005l0.159,-0.118l0.038,0.014l-0.019,0.076l-0.122,0.085l-0.074,0.019l0.004,0.037l0.108,0.019l0.075,0.128l-0.07,0.16l-0.028,0.208l0.074,0.099l0.169,0.014l0.257,-0.104l0.398,0.057l0.21,0.085l0.393,0.019l0.169,0.038l0.042,0.046l0.005,0.088l-0.055,-0.068l-0.161,-0.047l-0.416,0.075l-0.239,-0.075l-0.313,0.037l-0.145,0.071l-0.201,0.038l-0.113,-0.028l-0.234,0.151l-0.042,0.16l-0.089,0.038l-0.238,-0.038l-0.089,-0.108l-0.051,0.004l-0.071,0.128l-0.196,0.093l-0.175,-0.026l-0.443,0.12l-0.573,0.239l-0.484,0.027l-0.037,-0.047l0.033,-0.095l-0.057,-0.019l-0.247,0.085l-0.188,-0.028l-0.149,0.033l-0.113,0.165l-0.084,-0.004l-0.089,-0.071l-0.149,-0.019l-0.099,0.042l-0.112,-0.004l-0.238,-0.15l-0.22,0.005l-0.272,0.143l-0.07,0.152l0.024,0.077l-0.014,0.081l-0.066,0.09l0.019,0.182l-0.08,0.147l-0.271,0.105l-0.184,0.148l-0.313,0.115l-0.29,0.081l-0.412,0.009l-0.159,0.077l-0.014,0.114l0.128,0.102l0.552,0.105l0.037,0.11l-0.048,0.376l-0.075,0.139l-0.075,0.086l0.009,0.047l0.155,0.015l0.005,0.043l-0.122,0.052l-0.126,0.095l0.014,0.039l0.159,-0.048l0.379,0.067l0.117,-0.015l0.182,0.086l-0.005,0.053l-0.177,0.043l-0.202,0.071h-0.182l-0.009,-0.038l0.074,-0.071l-0.014,-0.034l-0.084,0.024l-0.089,0.134l-0.131,0.085l-0.234,0.034l-0.112,-0.029l-0.243,-0.014l-0.299,-0.181l-0.136,-0.163l0.051,-0.224l0.08,-0.086l-0.042,-0.043l-0.108,0.039l-0.15,-0.019l-0.018,0.038l0.089,0.038l0.028,0.148l-0.075,0.133l-0.309,0.205l-0.285,0.034l-0.243,0.105l-0.014,-0.043l0.182,-0.162l-0.005,-0.062l-0.061,-0.024l-0.014,-0.062l0.043,-0.081l-0.038,-0.081l-0.131,-0.01l-0.168,0.067l-0.024,0.052l-0.051,0.029l-0.108,-0.019l-0.187,0.057l-0.031,0.06l-0.14,0.034l-0.103,0.129l-0.169,0.062l-0.196,0.009l-0.117,0.11l0.028,0.057l0.089,-0.005l0.009,0.043l-0.112,0.105l-0.023,0.081l0.074,0.077l-0.028,0.043l-0.201,0.009l-0.07,-0.052l0.033,-0.177l-0.033,-0.033l-0.243,0.124l-0.127,0.095l0.005,0.062l0.094,0.005l0.028,0.043l-0.117,0.086l-0.024,0.257l0.085,0.254l0.117,0.051l0.327,-0.069l0.243,-0.005l0.033,-0.037l-0.136,-0.069l-0.023,-0.055l0.056,-0.065l0.183,0.065l0.084,0.078l0.192,0.018l0.163,-0.041l0.005,-0.042l-0.211,-0.05l-0.028,-0.033l0.117,-0.041l0.103,0.018l0.15,0.139h0.131l0.061,-0.037h0.065l0.075,0.087l0.117,0.01l0.126,-0.06h0.085l0.028,0.041h0.107l0.112,-0.069l0.178,-0.014l0.187,-0.092l0.365,-0.065l0.122,0.037l0.117,0.185l0.168,0.074l0.028,-0.042l-0.056,-0.055l-0.056,-0.12l-0.094,-0.074l0.033,-0.042l0.22,-0.023l0.444,-0.078l0.234,0.023l0.211,-0.046l0.037,0.074l-0.061,0.05l-0.009,0.051l0.056,0.06l-0.019,0.046l-0.093,-0.018l-0.379,0.134l-0.15,0.004l-0.061,-0.143l-0.037,0.009l0.009,0.097l-0.102,0.18l-0.323,0.346l-0.042,-0.004l0.018,-0.106l-0.028,-0.102l-0.037,0.005v0.143l-0.042,0.101l-0.22,0.097l-0.262,0.014l-0.267,0.083l-0.22,0.005l-0.444,0.189l-0.075,0.115l-0.07,0.023l-0.136,-0.032l-0.126,0.065l-0.023,0.143l-0.07,0.046l-0.094,-0.014l-0.187,0.083l-0.014,0.06l0.21,0.014l0.145,0.046l0.258,-0.092l0.07,-0.046l0.131,-0.042l0.047,0.023l-0.164,0.092l-0.122,0.023l-0.262,0.134l-0.014,0.056l0.103,0.06l-0.014,0.06l-0.131,0.014l-0.037,0.078l-0.304,0.138h-0.136l-0.201,0.028l-0.052,0.092l0.019,0.217l0.089,0.042l0.206,-0.028l0.07,0.051l-0.009,0.171l-0.089,0.235l0.056,0.069l0.355,-0.138l0.103,-0.074l0.01,-0.148l0.168,-0.134l0.215,-0.023l0.178,0.106l0.056,0.148l-0.042,0.217l-0.229,0.069l-0.01,0.046l0.183,0.037l0.252,0.102l0.155,-0.009l0.047,0.036l-0.099,0.116l0.047,0.032l0.22,-0.12l0.192,-0.037l0.173,-0.115l0.22,-0.005l0.187,-0.147l0.29,-0.116l0.159,-0.018l0.047,-0.056l-0.047,-0.092l0.028,-0.115l0.042,-0.009v0.11l0.042,0.065l0.131,0.004l0.066,0.024l-0.066,0.11l0.047,0.023l0.047,-0.069l0.103,-0.046l0.159,-0.152l0.084,0.004l0.009,0.051l0.047,0.009l0.136,-0.143l0.21,-0.097l0.304,-0.078l0.295,-0.106l0.257,-0.009l0.201,-0.042l0.141,-0.069l0.042,0.014l-0.061,0.064l-0.29,0.093l-0.234,0.147l-0.477,0.069l-0.313,0.199l-0.122,0.148l-0.242,0.084l0.006,0.08l0.119,0.006l0.094,0.093l-0.044,0.036l-0.218,-0.043l-0.094,-0.067l-0.069,0.018v0.148l-0.156,0.123l-0.068,-0.019l0.056,-0.116l-0.044,-0.037l-0.268,0.166l-0.362,0.092l-0.137,0.098l0.013,0.05l0.137,0.024l0.131,-0.024l0.056,0.024l-0.15,0.209l-0.187,0.099l-0.305,0.031l-0.15,-0.025l-0.156,0.043l-0.006,0.08l0.212,0.111l0.012,0.141l-0.047,0.07l-0.115,-0.002l-0.274,0.092l-0.158,-0.049l-0.023,0.049l0.068,0.056v0.067l-0.087,0.093l0.013,0.043l0.162,-0.111l0.461,-0.043l0.15,0.074l0.2,-0.049l0.255,-0.136l0.15,0.006l0.106,-0.043l0.012,-0.104l0.106,-0.154l0.156,-0.049l0.393,0.012l0.244,-0.055l0.199,-0.013l0.225,-0.104l-0.007,-0.117l0.05,-0.013l0.088,0.093l0.293,0.037l0.337,-0.111l0.399,-0.252l0.006,-0.173l0.056,-0.098h0.081l0.05,0.135l0.237,0.13l0.144,-0.062l0.093,0.037l-0.006,0.234l-0.037,0.086l-0.113,0.006l-0.212,0.135l-0.58,0.216l-0.493,0.147l-0.648,0.314l-0.175,0.166l-0.318,0.166l-0.022,0.059l0.24,-0.025l0.106,-0.055l0.138,-0.022l0.09,-0.052l0.184,-0.062l0.209,-0.061l0.056,-0.043l0.15,-0.052l0.093,0.003l0.091,-0.056l0.025,-0.07l0.046,-0.01l0.053,0.022l0.097,-0.028l0.031,-0.04l0.166,-0.049l0.124,0.003l0.069,-0.034l0.075,0.025l-0.013,0.04l-0.09,0.027l-0.066,-0.006l-0.084,0.037l-0.068,0.086l-0.166,0.068l-0.065,0.071l-0.15,0.071l-0.14,0.172l-0.194,0.126l-0.227,0.018l-0.194,0.074l-0.143,0.133l-0.343,0.159l-0.009,0.044l0.115,0.018l0.031,0.037l-0.053,0.117l0.047,0.086l0.109,0.006l0.078,-0.111l0.059,-0.043l0.056,0.037l-0.018,0.093l0.037,0.021l0.225,-0.114l0.131,-0.049v-0.025l-0.128,0.019l-0.094,0.043l0.05,-0.059l0.15,-0.036l0.053,-0.05l0.003,-0.058l0.069,-0.099l0.215,-0.052l0.018,-0.055l0.044,-0.019l0.084,0.028l0.044,0.092l0.125,0.071l0.128,-0.018l0.021,-0.028l-0.037,-0.034l0.019,-0.028l0.156,0.003l0.149,-0.055l0.047,-0.132l0.062,-0.003l0.016,0.07l0.028,0.025l0.181,-0.049l0.234,-0.031l0.109,-0.049l0.041,-0.077l-0.081,-0.114l0.012,-0.024l0.069,0.027l0.031,0.046l0.037,0.01l0.044,-0.037l0.034,0.006l-0.009,0.058l0.062,0.019l0.066,-0.031l0.028,0.025l-0.072,0.141l-0.125,0.074l-0.034,0.058l0.025,0.025l0.05,-0.037l0.031,0.003l-0.009,0.074l0.04,0.031l0.187,-0.099l0.056,-0.061l0.01,-0.068l0.072,-0.04l0.106,-0.006l0.093,-0.019l0.025,0.019l-0.187,0.212l0.012,0.105l-0.04,0.046h-0.084l-0.091,0.095l0.019,0.056l0.265,0.009l0.271,-0.16l0.06,-0.071l0.118,-0.024l0.047,0.021l-0.034,0.083l0.037,0.016l0.165,-0.062l0.044,0.018l-0.016,0.053l0.05,0.027l0.106,-0.058l-0.006,-0.065l0.053,-0.089l0.1,-0.021l0.037,-0.034l-0.006,-0.068l0.087,-0.129l0.025,-0.015l0.013,0.061l-0.044,0.077l0.034,0.031l0.206,-0.071l0.147,-0.083l0.022,-0.052l-0.091,-0.142l-0.084,-0.04l0.022,-0.028l0.093,0.01l0.141,0.129l0.156,0.025l0.09,-0.034l0.169,-0.013l0.149,-0.089l0.122,-0.021l0.256,0.126l0.009,0.129l0.028,0.037l0.047,-0.028l0.022,-0.095l0.037,-0.019l0.097,0.043l0.078,0.004l0.096,-0.099l-0.003,-0.086l0.034,-0.055l0.097,-0.05l0.041,-0.104l-0.016,-0.043l-0.068,-0.006l-0.085,-0.053l0.025,-0.015l0.103,0.037h0.128l0.081,0.034l0.228,-0.001l0.196,0.067l0.134,-0.01l0.035,0.029l-0.019,0.076l0.025,0.032l0.053,-0.032h0.087l0.084,0.039h0.066l0.053,-0.09l-0.013,-0.054l0.01,-0.092l0.05,-0.038l0.028,-0.071l-0.044,-0.054l0.003,-0.051l0.066,-0.089l-0.01,-0.041l-0.184,0.006l-0.128,-0.016l-0.137,-0.048l0.01,-0.022l0.159,-0.013l0.081,0.045l0.062,0.003l0.05,-0.048l0.181,-0.003l0.093,0.08l0.213,0.016l0.271,-0.064l0.128,0.035l0.034,0.048l-0.016,0.051l0.013,0.038l0.065,0.029l0.041,0.102l0.075,0.019l0.015,-0.029l-0.046,-0.038l-0.004,-0.038l0.025,-0.042v-0.06l-0.081,-0.071l0.003,-0.063l0.097,-0.102l0.156,-0.3l-0.047,-0.035l-0.05,0.026l-0.084,0.006l-0.134,-0.064l-0.1,0.039l0.088,-0.074l0.171,0.045l0.062,-0.003l0.025,-0.055l0.066,-0.015l0.093,0.117l0.029,0.118l0.106,0.035l0.106,-0.086l0.003,-0.067l0.059,-0.086l0.044,0.004l-0.01,0.105l0.05,0.013l0.103,-0.109l0.24,-0.099l0.256,-0.025l0.056,-0.029l0.014,-0.079l0.047,-0.058l0.084,-0.005l0.094,-0.11l0.037,-0.143l-0.051,-0.072l-0.005,-0.052l0.173,-0.129l0.023,-0.12l-0.046,-0.052l-0.061,0.028l-0.052,-0.033l-0.032,-0.196l-0.075,-0.029l-0.113,0.024l-0.06,-0.043l0.042,-0.096l-0.014,-0.215l-0.117,-0.067l-0.15,0.01l-0.089,-0.038l-0.004,-0.072l-0.066,-0.076l0.037,-0.024l0.155,0.095l0.229,0.029l0.122,-0.043l0.018,0.033l-0.074,0.106l0.018,0.243l0.07,0.062l0.188,-0.043l0.177,-0.076l0.421,-0.014l0.066,0.033l-0.075,0.062l-0.215,0.058l-0.201,0.205l0.023,0.167l0.051,0.063l0.393,-0.01l0.099,0.076l0.07,-0.004l0.093,-0.091l0.225,-0.096l0.318,-0.014l0.384,-0.115l0.032,-0.057l-0.079,-0.077l0.056,-0.162l0.253,-0.12l0.257,-0.019l0.215,-0.067l0.182,-0.009l0.01,-0.067l-0.37,-0.148l0.01,-0.053l0.219,-0.029l0.206,-0.191l0.084,-0.124l-0.014,-0.148l-0.07,-0.11l0.033,-0.038l0.136,0.057l0.046,0.115l-0.032,0.057v0.081l0.065,0.048h0.136l0.061,-0.062l0.131,-0.019l0.173,0.091l0.173,-0.015l0.037,-0.057l-0.051,-0.048l0.112,-0.153l0.08,-0.057h0.21l0.426,-0.115l0.103,-0.129l0.042,-0.263l0.201,-0.129l-0.005,-0.062l-0.206,0.001l-0.23,-0.082l-0.11,0.009l-0.062,-0.038l0.033,-0.115l0.248,-0.124l0.121,0.024l0.038,0.115l0.093,0.019l0.047,-0.101l0.117,-0.114l0.239,-0.02l0.346,-0.196l0.29,-0.014l0.173,-0.067l0.552,-0.019l0.412,0.072l0.327,-0.021l0.126,-0.167l0.183,-0.01l0.149,0.101l-0.032,0.11l0.032,0.043l0.183,-0.077l0.122,-0.009l0.168,0.043l0.234,-0.082l0.201,-0.396l-0.014,-0.435l-0.156,-0.144l-0.031,-0.127l0.031,-0.07l-0.056,-0.032l-0.111,0.043l-0.095,0.001l0.179,-0.102l0.159,0.01l0.067,0.092l-0.071,0.075l0.018,0.081l0.153,0.08l0.297,0.37l0.046,0.344l-0.206,0.319l0.044,0.051l0.1,-0.051l0.218,-0.281l0.275,-0.121l0.074,-0.159l0.043,-0.174l-0.014,-0.172l0.369,-0.21l0.038,-0.067l0.026,0.107l-0.237,0.184l-0.084,0.11l0.093,0.105l0.375,-0.081h0.318l0.411,0.182l0.15,0.162l0.112,0.039l0.621,-0.192l0.474,0.039l0.187,0.089l0.212,0.006l0.087,-0.114v-0.147l0.178,-0.258l-0.106,-0.153l-0.193,0.019l-0.137,-0.191l-0.007,-0.287l-0.056,-0.013l-0.062,0.14l-0.05,-0.006l-0.025,-0.076l-0.181,-0.128l-0.044,-0.217l0.088,-0.159l0.33,0.013l0.125,0.083l0.075,-0.032l-0.037,-0.319l0.062,-0.236l0.193,-0.229l0.243,-0.112l0.568,-0.661l0.013,-0.274l-0.175,-0.484l0.025,-0.211l0.237,-0.441l0.187,-0.162l0.125,-0.267l0.006,-0.459l0.224,-0.367l0.287,-0.142l0.032,-0.063l-0.044,-0.08l0.025,-0.106l0.256,-0.397l0.137,-0.348l-0.044,-0.093h-0.106l-0.143,-0.162l-0.025,-0.279l0.075,-0.373l-0.044,-0.515l-0.218,-0.392l0.031,-0.08l-0.019,-0.131l-0.137,-0.149l-0.094,-0.248l-0.006,-0.286l0.087,-0.124l-0.187,-0.205l-0.187,-0.012l-0.318,-0.162l-0.025,-0.137l0.075,-0.062l0.006,-0.124l-0.112,-0.05l0.006,-0.043h0.175l0.212,-0.224l0.249,-0.043l0.069,0.062v0.093l0.156,0.118l0.187,-0.018l0.069,-0.125l-0.013,-0.093l-0.387,-0.112l-0.131,-0.236l-0.049,-0.212l0.081,-0.179l0.099,-0.075l0.013,-0.08l-0.05,-0.043l0.012,-0.087l0.163,-0.136l-0.013,-0.297l-0.168,-0.253l-0.256,-0.056l-0.262,-0.284v-0.074l-0.044,-0.056l-0.124,-0.037l-0.175,-0.408l-0.075,-0.594l0.075,-0.321l0.081,-0.099v-0.056l-0.212,-0.068l-0.019,-0.223l0.1,-0.222l-0.012,-0.081l-0.275,-0.123l-0.224,-0.013l-0.212,-0.086l-0.125,-0.26l-0.013,-0.259l0.163,-0.363l-0.007,-0.074l-0.243,-0.031l-0.031,-0.055l0.231,-0.031l0.268,0.031l0.299,0.178l0.431,0.136l0.399,0.006l0.28,-0.154l0.032,-0.08l-0.178,-0.171l0.005,-0.101l-0.057,-0.037l-0.074,0.046l-0.071,-0.018l-0.383,-0.328l-0.164,-0.088l-0.098,-0.083l-0.057,-0.13l0.06,0.007l0.052,0.025l0.271,-0.005l0.079,0.039l0.087,0.187l0.274,0.107l0.139,-0.024l0.149,0.024l0.104,0.089l-0.027,0.034l-0.09,0.01l-0.027,0.059l0.149,0.125l0.181,0.015l0.249,-0.139l0.06,-0.101l0.128,-0.074l0.159,-0.049l0.087,-0.12l0.299,-0.194l0.109,-0.197l-0.009,-0.117l0.1,-0.246l-0.013,-0.243l-0.068,-0.132l0.028,-0.123l0.315,-0.206l0.025,-0.05l0.047,-0.018l0.099,0.022l0.262,-0.034l0.253,-0.065l0.256,0.022l0.084,0.046l0.097,0.157l0.071,0.009l0.088,-0.163l-0.013,-0.086l0.05,-0.022l0.131,0.077l0.047,-0.012l0.05,-0.102l0.187,-0.144l0.081,-0.12l0.009,-0.068l0.081,-0.117h0.113l0.006,-0.046l-0.094,-0.089l-0.037,-0.071l-0.034,-0.345l-0.041,-0.015l-0.056,0.022l-0.053,-0.037l0.015,-0.068l-0.049,-0.037l-0.147,0.065l-0.119,0.018l-0.168,0.065l-0.059,0.043l-0.109,-0.006l-0.053,-0.019l-0.05,0.028l0.028,-0.077l0.215,-0.194l0.041,-0.144l-0.01,-0.163l0.063,-0.077l-0.013,-0.105l0.022,-0.098l-0.031,-0.065l-0.088,-0.028l-0.015,-0.064l0.028,-0.068l-0.05,-0.108l-0.094,-0.012l-0.046,-0.055l0.034,-0.096l0.122,-0.027v-0.037l-0.159,-0.034l-0.11,-0.099l-0.137,-0.043l0.01,-0.033l0.093,-0.04l0.025,-0.108l0.003,-0.12l0.047,-0.086l0.062,-0.009l0.153,0.129l0.256,0.098l0.187,0.154l0.037,0.068l0.066,0.012l0.04,-0.015l0.103,0.126l0.097,0.341l-0.022,0.188l0.031,0.064l-0.031,0.154l-0.168,0.096l-0.072,0.153l0.028,0.148l0.175,0.111l0.068,0.163l0.05,0.068l0.047,0.132l0.062,0.018l0.053,0.065l0.041,-0.019l0.012,-0.092l0.053,-0.16l-0.006,-0.077l0.059,-0.092l0.116,-0.018l0.025,-0.065l-0.031,-0.228l-0.066,-0.107l0.019,-0.065l0.187,-0.151l0.024,-0.086l0.01,-0.227l-0.04,-0.068l-0.1,-0.062l-0.069,-0.138l-0.012,-0.12l-0.053,-0.123l0.034,-0.175l-0.04,-0.105l-0.247,-0.249l-0.075,-0.194l-0.006,-0.163l-0.062,-0.129l-0.215,-0.185l-0.025,-0.077l-0.063,-0.018l-0.05,0.024l-0.115,0.007l-0.047,-0.025l-0.097,0.009l-0.056,0.077l-0.268,0.003l-0.1,0.022l-0.168,-0.019l-0.094,-0.058l-0.074,-0.006l-0.409,0.172l-0.265,0.169l-0.075,0.014l-0.092,0.057l-0.068,0.085l-0.057,0.01l-0.114,0.084l0.017,-0.045l0.159,-0.142l0.009,-0.035l-0.032,-0.019l-0.081,0.019l-0.056,-0.019l-0.019,-0.07l0.097,-0.237l0.306,-0.265l0.486,-0.228l0.109,0.019l0.318,-0.2l0.041,-0.095l0.09,-0.103l0.027,-0.311l-0.059,-0.177l-0.194,-0.284l-0.204,-0.093l-0.035,0.01l-0.015,0.029h-0.057l-0.027,-0.022l-0.062,0.027l-0.005,0.076l0.233,0.181l0.124,0.143l0.085,0.208l-0.027,0.066l-0.035,-0.015l-0.112,-0.223l0.003,-0.049l-0.085,-0.054l-0.129,-0.009l-0.154,-0.064l-0.077,-0.14l0.015,-0.022l0.059,-0.012l0.033,-0.066l-0.132,-0.196l-0.124,-0.096l-0.03,-0.152l-0.05,-0.034l-0.097,-0.003l-0.092,-0.061l-0.139,-0.314l-0.154,-0.221l-0.119,-0.066h-0.1l-0.032,-0.051l-0.065,-0.035l-0.069,0.015l-0.06,-0.032l0.008,-0.088l0.084,-0.13l0.03,-0.213l0.06,-0.132l-0.01,-0.072l-0.135,-0.076l-0.126,-0.002l-0.261,0.054l-0.03,-0.022l-0.045,-0.101l0.005,-0.122l0.114,-0.182l0.013,-0.061l-0.005,-0.201l0.047,-0.103v-0.194l-0.05,-0.08l-0.094,-0.062l-0.077,-0.171l-0.05,-0.04l-0.082,-0.017l-0.246,-0.108l-0.131,-0.13l-0.13,0.003l-0.141,0.118l-0.162,0.017l-0.164,0.044l-0.102,-0.017l-0.318,-0.191l-0.119,-0.02l-0.112,-0.059l-0.196,-0.017l-0.057,-0.056l-0.065,0.002l-0.114,0.083l-0.107,0.025l-0.102,-0.037l-0.119,-0.01l-0.097,-0.032l-0.09,-0.098l-0.127,0.005l-0.288,0.199l-0.025,0.068l-0.4,0.138l-0.368,0.012l-0.067,0.054l-0.358,0.1l-0.077,0.152l-0.34,0.054h-0.425l-0.323,-0.036l-0.194,-0.067l-0.219,-0.154l-0.053,0.039l0.019,0.152l-0.047,0.254l-0.187,0.337l-0.136,0.083l-0.051,0.12l0.047,0.097l-0.029,0.097l-0.247,0.198l-0.258,0.051l-0.248,-0.009l-0.084,-0.13l-0.187,-0.037l-0.22,0.047l-0.084,-0.028l-0.066,0.041l-0.037,0.084l-0.145,0.055l-0.159,0.166l-0.033,0.138l-0.103,0.051l-0.07,-0.014l0.014,-0.06l0.103,-0.05l0.052,-0.111l0.145,-0.171l0.093,-0.028l0.042,-0.115l-0.047,-0.06z"/>
</svg>
