<svg xmlns="http://www.w3.org/2000/svg" viewBox="1343.426 522.566 10.705 28.108">
  <path d="M1343.426378,538.143181l0.172,-0.159l0.13,-0.051l0.121,-0.074l0.042,-0.093l0.069,-0.074l0.13,-0.056l0.042,-0.116l-0.051,-0.306v-0.167l0.111,-0.172l0.227,-0.19l0.13,-0.139l0.464,-0.432l0.228,-0.097l0.083,-0.093l0.084,-0.06v-0.088l-0.515,-0.376l0.315,-0.459l0.65,-1.102l0.025,-0.191l0.055,-0.13l0.124,-0.093l0.186,-0.452l0.105,-0.179l0.272,-0.78l0.105,-0.154l0.21,-0.681l0.322,-1.101l0.272,-1.342l0.18,-0.73l0.08,-0.464l-0.025,-0.192l0.019,-0.112l0.105,-0.136l0.081,-0.519l-0.007,-0.254l0.062,-0.08h0.124l0.136,0.086l0.161,0.025l0.198,-0.111l0.105,-0.217l0.05,-0.284l-0.05,-0.18l0.006,-0.229l0.118,-0.569l0.074,-0.284l0.012,-0.155l0.305,0.017l0.046,0.032l0.082,-0.049h0.075l0.043,0.043l0.08,-0.006l0.044,-0.08l0.086,-0.007l0.124,0.05l0.111,-0.006l0.256,-0.093l0.109,0.012l0.075,0.05l-0.007,0.086l0.186,0.198l0.179,0.03l0.042,-0.051l0.302,-0.042l0.116,-0.162l0.11,-0.022l0.185,0.018l0.062,-0.049l0.025,-0.118l0.124,-0.049l0.105,-0.476l-0.025,-0.248l0.068,-0.272l0.118,-0.241l0.068,-0.019l0.055,0.167l0.204,0.149l0.075,-0.031l0.012,-0.167l0.08,-0.044l0.106,0.019l0.086,-0.031l0.056,-0.093l0.223,-0.099l0.055,-0.142l0.068,-0.013l0.068,0.056h0.05l0.068,-0.077l0.121,-0.005l0.213,0.149l-0.204,0.283l0.018,0.106l0.2,0.13l0.028,0.274l0.13,0.13l0.028,0.181l-0.149,0.278v0.107l0.195,0.116l0.134,0.821l0.154,0.101v0.275l-0.158,0.111l-0.13,0.321l-0.06,0.343l-0.242,0.306l-0.185,0.127l-0.047,0.114l-0.048,0.017l-0.096,0.106l-0.392,0.175l-0.062,0.092v0.071l-0.096,0.04l-0.111,-0.037l-0.185,0.032l-0.071,0.106l0.007,0.093l-0.133,0.084l-0.098,-0.012l-0.047,0.051l0.086,0.311l-0.019,0.328l-0.08,0.112l-0.013,0.185l0.112,0.118l0.006,0.086l-0.068,0.056l-0.012,0.087l0.049,0.086l-0.025,0.124l-0.074,0.05l-0.012,0.074l0.046,0.055l-0.003,0.056l-0.056,0.016l-0.028,0.04l0.059,0.062l-0.099,0.024l-0.111,-0.086l-0.377,-0.124l-0.143,0.043l-0.161,-0.049l-0.08,-0.204l0.006,-0.334l-0.241,-0.198l-0.18,-0.031l-0.315,0.049l-0.266,-0.068l-0.204,-0.185h-0.118l-0.451,0.371l-0.31,0.154l-0.21,0.223l-0.111,0.365l0.012,0.167l-0.062,0.155l-0.13,0.124l-0.043,0.352l0.087,0.124l-0.013,0.179l-0.241,0.285l-0.155,0.105l-0.018,0.118l0.185,0.247l0.031,0.223l-0.049,0.167l0.093,0.427l-0.05,0.173l-0.025,0.353l0.112,0.204l0.235,0.167v0.204l-0.105,0.167l-0.266,0.049l-0.05,0.118l0.068,0.099h0.192l0.204,-0.149l0.179,-0.012l0.13,0.13l0.353,0.124l0.198,0.031l0.223,0.049l0.105,0.136l-0.013,0.341l-0.08,0.03l-0.118,-0.061l-0.278,0.055l-0.346,0.211l-0.186,0.201l-0.353,0.157l-0.194,0.149l-0.27,0.325l-0.074,0.362l0.019,0.306l-0.074,0.241l-0.214,0.223l-0.093,0.297l0.01,0.213l0.176,0.176l0.148,0.038l0.362,-0.102l0.344,-0.01l0.566,0.028l0.51,-0.093l0.269,-0.102l0.232,-0.232l0.594,-0.473l0.251,-0.111l0.426,0.009l-0.027,0.557l-0.093,0.38l-0.325,0.575l-0.056,0.214l0.093,0.306l0.26,0.446l0.028,0.306l-0.149,0.362l-0.111,0.334l-0.028,0.464l-0.148,0.204l-0.158,0.023l-0.139,0.176l-0.112,0.283l0.005,0.144l0.065,0.19l-0.032,0.079l-0.126,0.107l-0.144,0.269l-0.041,0.228l-0.191,0.468l-0.232,0.269l-0.139,0.293l-0.004,0.204l-0.061,0.167l-0.009,0.246l-0.153,0.324l-0.014,0.33l0.162,0.366l-0.032,0.107l-0.19,0.237l-0.061,0.185l-0.018,0.358l0.046,0.236l-0.023,0.246l0.088,0.311l-0.083,0.227l0.014,0.079l-0.047,0.116l-0.162,0.093l-0.102,0.246l0.055,0.111l-0.014,0.056l-0.083,0.042l-0.121,0.218l0.042,0.403l-0.028,0.158l-0.13,0.232l-0.106,0.39l-0.098,0.167l-0.13,0.418v0.125l0.061,0.167l-0.024,0.204l-0.125,0.181l-0.13,0.292l-0.009,0.246l-0.107,0.008l-0.117,0.056l-0.161,0.266l-0.102,0.032l-0.158,-0.32l-0.074,-0.418l0.046,-0.13l0.028,-0.19l-0.144,-0.334l-0.065,-0.515l-1.56,-4.423l-0.446,-0.303l-0.012,-0.229l0.111,-0.365l-0.247,-0.266v-0.446l-0.167,-0.668l-0.631,-1.293l-0.867,-2.631z"/>
</svg>
