<svg xmlns="http://www.w3.org/2000/svg" viewBox="1085.365 351.257 3.446 3.461">
  <path d="M1088.499675,352.2384l0.049951,-0.007395l0.02997,0.012324l0.004995,0.024649l0.117384,0.027114l0.077424,0.034509l0.032468,0.051763l-0.01998,0.032044l-0.072429,0.012324l-0.017483,0.024649l0.014985,0.054228l-0.017483,0.041903l-0.067433,0.032044l-0.034965,0.041903l-0.004995,0.064087l-0.037463,0.044368l-0.117825,0.114932l-0.006268,0.098982l-0.07522,0.080423l-0.125366,0.074237l-0.025073,0.105169l0.062683,0.08661l-0.031342,0.117542l-0.269538,0.177859h-0.145738l-0.098726,0.069597l-0.009402,0.078877l0.042311,0.060317l-0.023506,0.060317l-0.18805,0.106715l-0.122232,0.00464l-0.07522,0.046398l-0.042311,0.088156l-0.094025,0.092796l-0.164543,0.00928l-0.178647,0.083516l-0.090891,0.123728l-0.006268,0.055678l0.021939,0.012373l0.021939,-0.018559l0.013026,0.025422l-0.092409,0.140499l-0.024975,-0.012324l0.022478,-0.086271l-0.015279,-0.061139l-0.047012,-0.034025l-0.090891,0.021652l-0.084622,0.08661l-0.068952,0.015466l-0.081488,-0.040212l-0.068952,-0.108262l-0.090891,-0.034025l-0.097159,0.003093l-0.072086,0.034025l-0.012537,0.058771l-0.03761,0.027839l-0.03761,-0.003093l-0.03761,0.018559l-0.006268,0.040212l-0.03761,0.018559l-0.043878,-0.00928l-0.034476,0.015466l-0.006611,0.02866l-0.047453,0.00493l-0.049951,-0.044368l-0.049951,-0.002465l-0.014985,-0.039438l0.064936,-0.086271l0.062438,-0.032044l0.032468,-0.064087l0.047453,-0.007395l-0.000735,-0.029724l-0.084182,-0.036828l-0.012488,-0.041903l0.079921,-0.101061l0.057443,-0.022184l0.044956,0.00493l0.022478,-0.039438l-0.004995,-0.041903l0.024975,-0.036973l0.034965,-0.017254l0.014985,-0.081341l0.039961,-0.081341l-0.004897,-0.080037l-0.068952,-0.117542l0.009402,-0.06805l0.134769,-0.15466l0.031342,-0.111355l-0.009402,-0.08661l0.028207,-0.080423l0.109304,-0.104879l0.012488,0.007395l0.002498,0.024649l0.013614,0.007878l0.200586,-0.108262l0.307148,-0.284574l0.137903,-0.204151l0.050147,-0.173219l0.081488,-0.123728l0.106561,-0.111355l0.07522,-0.235083l0.106561,-0.129914l0.504208,-0.266885l0.297207,-0.056693l0.269734,-0.098596l0.044956,0.022184l0.01998,0.118315l-0.027473,0.147894l-0.119882,0.325366l-0.004995,0.209516l0.056807,0.118557l0.113026,0.044126Z M1085.527511,354.573089l0.028207,0.030932l-0.012537,0.061864l-0.056415,0.046398l-0.068952,0.006186l-0.053281,-0.06805l0.025073,-0.058771l0.07522,-0.024746l0.062683,0.006186Z M1086.838031,354.423698l0.032468,-0.002465l-0.002498,0.024649l-0.022478,0.017254l-0.01998,-0.017254l0.012488,-0.022184Z "/>
</svg>
