<svg xmlns="http://www.w3.org/2000/svg" viewBox="1729.174 689.881 8.086 16.567">
  <path d="M1730.108295,692.769954l0.038683,-0.055138l-0.028607,-0.072075l-0.042455,0.02843l-0.011798,0.080986l0.044176,0.017798Z M1731.303211,695.265364l0.042384,0.040342l0.057193,-0.030384l0.02315,-0.068172l-0.032341,-0.080598l-0.073619,-0.020256l-0.044342,0.048001l0.027575,0.111067Z M1732.659363,696.677443l0.023272,-0.060508l-0.051199,-0.125671l-0.083781,-0.018618l-0.055854,0.060508l0.051199,0.144289h0.116362Z M1734.615208,701.468305l0.031895,-0.01196l0.002027,-0.045489l-0.02575,-0.032091l-0.030359,0.000947l-0.006046,0.037156l0.028233,0.051437Z M1735.756177,703.485453l0.030101,-0.016844l-0.000454,-0.070371l-0.054344,-0.069509l-0.050894,0.01303l0.004404,0.044084l0.071188,0.09961Z M1736.051135,702.191544l0.012336,0.043175l0.049343,0.006168l0.006168,-0.043175l-0.024672,-0.024672l-0.043175,0.018504Z M1735.296963,701.743079h0.036863l0.014745,-0.02949l-0.02949,-0.02949l-0.051608,0.002458l-0.00983,0.031948l0.03932,0.024575Z M1729.245303,690.696439l0.079126,0.04189l0.17687,-0.004654l0.148943,0.051199l0.144289,-0.027927l0.13498,-0.237378l-0.037236,-0.339777l-0.283923,-0.297887l-0.046545,0.018618l-0.018618,0.172216l-0.09309,0.079126l-0.139634,-0.013963l-0.065163,-0.04189l-0.051199,0.04189l-0.018618,0.367704l0.069817,0.190834Z M1731.754067,696.649516l0.523629,0.272287l0.097744,-0.076799l-0.020945,-0.104726l-0.40494,-0.237378l-0.055854,-0.174543l0.097744,-0.363049l-0.076799,-0.118689l-0.216433,0.027927l-0.083781,0.20247l-0.04189,0.237378l0.181525,0.335122Z M1735.143145,695.341426l0.024109,-0.035236l-0.012982,-0.098289l0.024109,-0.090871l0.066763,-0.040799l0.016509,-0.059017l-0.046545,-0.169888l0.0256,-0.065163l-0.006982,-0.062835l-0.100071,-0.10938l-0.018618,-0.17687l-0.030254,-0.018618l-0.0256,0.06749l-0.004654,0.088435l0.070072,0.140507l0.033381,0.235524l-0.040799,0.066763l-0.014836,0.261487l0.040799,0.066763Z M1733.136447,698.618361l0.065163,0.004654l0.060508,-0.153598l0.097744,-0.009309l0.079126,0.139634l-0.083781,0.251342l0.102399,0.111707l0.251342,-0.121016l0.246687,0.051199l0.069817,0.111707l0.111707,-0.032581l-0.013963,-0.302541l-0.246687,-0.223415l-0.172216,-0.027927l-0.027927,-0.097744l0.060508,-0.172216l-0.116362,-0.09309l-0.325813,0.032581l-0.167561,0.255996l-0.027927,0.167561l0.037236,0.107053Z M1734.988929,697.901571l-0.060508,-0.344431l-0.04189,-0.097744l-0.051199,-0.009309l-0.032581,0.097744l0.046545,0.107053l-0.013963,0.130325l0.107053,0.144289l0.046545,-0.027927Z M1734.453664,698.394946l0.31185,0.223415l0.083781,-0.013963l0.027927,-0.349086l-0.102399,-0.17687l-0.13498,-0.027927l-0.209452,0.148943l-0.051199,0.088435l0.074472,0.107053Z M1734.253522,698.162222l0.088435,-0.018618l0.074472,-0.17687l0.214106,-0.102399l0.018618,-0.209452l-0.162907,-0.200143l-0.130325,-0.26996l0.046545,-0.116362l0.237378,-0.195488l-0.046545,-0.172216l-0.214106,-0.032581l-0.083781,0.065163l-0.023272,0.158252l-0.21876,0.148943l-0.027927,0.172216l0.079126,0.069817l-0.018618,0.148943l0.079126,0.116362l0.13498,-0.009309l0.013963,0.04189l-0.097744,0.139634l0.027927,0.088435l0.121016,-0.018618l0.083781,-0.139634l0.055854,0.023272l-0.032581,0.167561l-0.232724,0.088435l-0.032581,0.130325l0.046545,0.102399Z M1735.26238,703.184404l0.090762,-0.010473l0.16407,-0.240869l0.317668,-0.212942l0.160579,-0.28276l0.006982,-0.125671l-0.226906,-0.171052l0.003491,-0.191997l-0.055854,-0.045381l-0.045381,0.038399l0.006982,0.191997l0.069817,0.090762l-0.048872,0.034909l-0.174543,0.006982l-0.314177,0.129162l-0.055854,0.349086l0.038399,0.314177l0.062835,0.125671Z M1735.363615,703.973338l-0.010473,0.216433l0.062835,0.380504l-0.024436,0.181525l0.034909,0.031418l0.097744,-0.066326l0.087271,0.024436l0.104726,0.146616l0.087271,0.062835l0.101235,0.12218l0.062835,0.150107l-0.017454,0.12218l0.178034,0.198979l0.097744,0.383994l0.132653,0.108217l0.017454,0.062835l-0.034909,0.171052l0.045381,0.143125l0.111707,0.034909l0.083781,-0.08029l0.045381,-0.300214l0.097744,-0.013963l0.129162,0.132653l0.111707,-0.055854l0.052363,-0.191997l-0.104726,-0.16407l0.055854,-0.307196l0.108217,-0.272287l0.139634,-0.052363l0.010473,-0.048872l-0.160579,-0.212942l0.027927,-0.097744l0.153598,0.066326l0.010473,-0.045381l-0.167561,-0.139634l-0.045381,-0.275778l-0.150107,-0.094253l-0.034909,-0.143125l0.017454,-0.397958l-0.066326,-0.300214l-0.24436,-0.198979h-0.104726l-0.125671,0.160579l-0.28276,0.04189l-0.16407,0.115198l-0.289741,0.003491l-0.118689,0.087271l-0.020945,0.153598l-0.097744,0.157089Z "/>
</svg>
