<svg xmlns="http://www.w3.org/2000/svg" viewBox="1725.935 660.248 13.679 21.193">
  <path d="M1739.445291,661.763568l0.116414,-0.019708l0.05281,0.073387l-0.033491,0.104278l-0.119679,0.056736l-0.036325,-0.050934l-0.011927,-0.107202l0.032199,-0.056558Z M1736.805873,669.499721l0.000465,0.058512l0.0616,0.019991l0.065098,-0.03075l0.035455,-0.079278l-0.036617,-0.067002l-0.065331,0.001494l-0.060671,0.097033Z M1731.195011,660.787412l0.011645,0.030878l0.020302,-0.00185l0.004915,-0.031447l-0.022118,-0.014514l-0.014745,0.016933Z M1731.497291,662.717601v0.02419l0.024575,0.014514l0.022118,-0.014514l-0.012288,-0.02419h-0.034405Z M1730.421704,660.872023l0.024981,0.015616l0.049143,-0.040197l0.038676,-0.067443l-0.013784,-0.026226l-0.057954,0.041114l-0.041062,0.077136Z M1730.025587,661.873693l0.003222,0.05081l0.090463,-0.011679l0.052011,-0.062365l-0.022063,-0.053733l-0.074718,-0.00153l-0.048915,0.078497Z M1731.30774,662.598517l-0.005143,0.058092l0.029505,0.018949l0.042354,-0.077028l-0.017947,-0.075777l-0.034645,0.022725l-0.014123,0.053039Z M1730.735455,664.746566l0.057859,0.008593l0.029417,-0.056792l-0.020145,-0.068036l-0.072726,-0.046722l-0.071921,0.025238l-0.008784,0.06374l0.0863,0.073979Z M1729.054985,667.890906l0.046259,-0.009107l0.013878,-0.050088l-0.060137,-0.027321l-0.041633,0.027321v0.050088l0.041633,0.009107Z M1729.272282,664.195847l0.013878,-0.077408l-0.046259,-0.040981l-0.046259,0.009107l-0.013878,0.054641l0.037007,0.068301l0.055511,-0.01366Z M1729.29702,665.815171l0.028996,0.005821l0.031351,-0.054803l0.011703,-0.076584l-0.022378,-0.019664l-0.039251,0.058752l-0.010421,0.086478Z M1728.307291,674.692212l0.031903,-0.028814l-0.015718,-0.066448l-0.042808,-0.061858l-0.040791,0.015829l-0.008506,0.061635l0.07592,0.079656Z M1730.842644,670.771372l0.019958,0.055778l0.034847,0.005179l0.005827,-0.08879l-0.04844,-0.062467l-0.021847,0.03544l0.009655,0.05486Z M1729.626724,671.771244l0.032447,-0.048693l-0.039772,-0.051112l-0.071139,-0.011074l-0.073831,0.045727l-0.007287,0.076007l0.054915,0.035421l0.104666,-0.046275Z M1731.732091,672.879631h0.036863l0.014745,-0.02949l-0.02949,-0.02949l-0.051608,0.002458l-0.00983,0.031948l0.03932,0.024575Z M1731.915433,670.425215l0.009252,0.037007l0.060137,0.013878l0.037007,-0.037007l-0.018504,-0.032381l-0.050885,-0.013878l-0.037007,0.032381Z M1730.747379,669.933954l-0.019443,0.068214l-0.015632,0.066094l0.016534,0.020747l0.06181,-0.059345l0.012666,-0.066939l-0.025016,-0.035991l-0.030919,0.007221Z M1731.449572,660.582509l0.047374,-0.012308l0.124598,-0.161756l-0.017981,-0.041157l-0.075722,0.058159l-0.078269,0.157062Z M1730.669404,669.072912l-0.018819,-0.028393l-0.031751,0.029419l-0.010527,0.055882l0.030823,-0.001001l0.030274,-0.055907Z M1728.579563,678.629468l0.061386,0.021542l0.015725,-0.026708l-0.052553,-0.048035l-0.049971,-0.00948l-0.014433,0.023908l0.039846,0.038773Z M1725.949914,678.353806l0.04915,-0.007373l0.02949,-0.044235l-0.027033,-0.044235l-0.036863,0.007373l-0.02949,0.066353l0.014745,0.022118Z M1728.894223,678.22763l0.012336,0.043175l0.049343,0.006168l0.006168,-0.043175l-0.024672,-0.024672l-0.043175,0.018504Z M1731.294896,660.443898l-0.069817,-0.036652l-0.090762,0.032071l-0.074472,-0.027489l0.002327,-0.082468l0.183852,-0.082468l0.097744,0.020617l0.053526,0.137446l0.004654,0.100794l-0.058181,0.018326l-0.048872,-0.080177Z M1728.990929,666.08376l0.052363,-0.010308l0.069817,-0.13401l-0.034909,-0.082468l0.031418,-0.041234l0.12218,-0.051542l0.104726,-0.219913l0.017454,-0.670049l-0.146616,-0.092776l-0.101235,0.013745l-0.097744,0.192424l-0.006982,0.092776l0.059345,0.072159l-0.006982,0.130574l-0.129162,0.32987l-0.010473,0.199297l0.076799,0.271456Z M1729.19689,666.018473l-0.010473,0.103084l0.104485,0.249047l-0.010232,0.194215l0.048872,0.04467l0.029411,-0.078039l0.005498,-0.169364l-0.055854,-0.127137l-0.006982,-0.264583l-0.013963,-0.075595l-0.04189,0.010308l-0.048872,0.113393Z M1729.815125,665.440821l0.046259,-0.022767l-0.046259,-0.077408l-0.078641,-0.022767l-0.041633,0.040981l0.027756,0.068301l0.092518,0.01366Z M1729.46186,669.69256l0.02949,0.002458l0.024575,-0.058981l0.002458,-0.078641l-0.024575,-0.017203l-0.031948,0.063896v0.088471Z M1729.319412,676.077793l0.033923,0.003084l0.021588,-0.040091l-0.009252,-0.040091l-0.027756,-0.012336l-0.021588,0.030839l0.003084,0.058595Z M1728.677673,674.571969l0.013878,-0.078641l-0.046259,-0.041633l-0.046259,0.009252l-0.013878,0.055511l0.037007,0.069389l0.055511,-0.013878Z M1729.186417,676.368926l-0.034909,0.090762l0.013963,0.034909l0.090762,-0.069817l0.010473,-0.12218l-0.027927,-0.052363l-0.059345,0.020945l0.006982,0.097744Z M1726.006245,674.333755l-0.045381,0.143125l0.034909,0.150107l0.321159,0.073308l0.104726,-0.073308l-0.04189,-0.352577l-0.167561,-0.108217l-0.198979,0.024436l-0.045381,0.059345l0.038399,0.083781Z M1728.14265,674.421027l0.12218,-0.017454l0.069817,-0.094253l-0.038399,-0.101235l-0.066326,-0.017454l-0.017454,-0.055854l-0.08029,-0.020945l-0.031418,0.04189v0.205961l0.04189,0.059345Z M1728.474282,674.567643h0.038399l0.027927,-0.146616l-0.034909,-0.101235l-0.038399,0.013963l-0.020945,0.167561l0.027927,0.066326Z M1731.431039,672.633707l0.125671,0.031418l0.104726,-0.101235v-0.097744l-0.118689,-0.024436l-0.143125,0.034909l-0.104726,-0.017454l-0.024436,0.076799l0.160579,0.097744Z M1728.530136,671.897136l0.066326,-0.069817l-0.013963,-0.139634l-0.066326,-0.073308l-0.027927,0.020945l0.034909,0.076799l0.006982,0.185016Z M1729.363287,669.561752l-0.009309,-0.097744l-0.083781,-0.032581l-0.037236,0.051199l0.032581,0.349086l0.056291,-0.015282l0.041453,-0.254678Z M1730.34324,668.86786l0.093242,-0.057526l0.031139,-0.055022l-0.103437,-0.083345l-0.110057,0.015231l-0.044664,0.079703l0.06806,0.096545l0.065717,0.004414Z M1730.647923,668.95667l0.074472,0.018618l0.111707,-0.13498l0.102399,-0.265305l-0.060508,-0.009309l-0.130325,0.079126l-0.04189,0.130325l-0.018618,0.121016l-0.037236,0.060508Z M1730.452435,669.952728l0.046545,-0.079126l0.088435,0.018618l0.019782,-0.037236l-0.019782,-0.074472l-0.079126,-0.046545l-0.121016,0.055854l-0.027927,0.065163l0.037236,0.107053l0.055854,-0.009309Z M1730.666541,669.802621l0.048872,-0.013963l0.104726,-0.209452l-0.034909,-0.143125l-0.038399,0.003491l-0.031418,0.101235l-0.069817,-0.013963l-0.038399,-0.059345l-0.066326,0.031418l0.013963,0.083781l0.104726,0.076799l0.020945,0.069817l-0.013963,0.073308Z M1731.633509,669.903856l0.129162,0.031418l0.059345,0.073308l0.045381,-0.006982l0.035713,-0.293432l-0.039204,-0.010273l-0.024436,0.090762l-0.043075,0.016946l-0.036251,-0.032748l-0.025399,-0.085433l-0.059345,0.013963l-0.066326,0.143125l0.024436,0.059345Z M1730.973737,670.640427l0.150107,0.024436l0.055854,-0.031418l-0.017454,-0.111707l-0.073308,-0.087271l-0.146616,0.003491l-0.031418,0.090762l0.062835,0.111707Z M1731.0261,670.989513l0.020945,0.073308l0.097744,0.059345l0.048872,-0.038399l0.006982,-0.251342l-0.04189,-0.108217h-0.111707l-0.090762,0.062835l-0.006982,0.16407l0.076799,0.038399Z M1731.340277,670.968568l0.073308,0.090762l0.090762,0.031418l0.038399,-0.048872l-0.038399,-0.171052l-0.097744,-0.073308l-0.003491,-0.296723l-0.020945,-0.125671l-0.04189,-0.017454l-0.097744,0.097744l-0.020945,0.247851l0.045381,0.216433l0.073308,0.048872Z M1731.713799,670.881296l0.076799,-0.087271l-0.010473,-0.132653l0.013963,-0.118689l-0.027927,-0.129162l0.027927,-0.171052l-0.108217,-0.209452l-0.076799,0.006982l-0.12218,0.331632l0.006982,0.195488l0.153598,0.300214l0.066326,0.013963Z M1730.952792,671.589941l0.020945,0.129162l0.038399,0.055854l0.108217,0.027927l0.132653,0.150107l0.150107,0.265305l0.097744,0.003491l0.055854,-0.069817l-0.097744,-0.289741l-0.083781,-0.073308l-0.111707,-0.401449l-0.045381,-0.132653l-0.146616,-0.087271l-0.118689,0.027927l-0.08029,0.157089l-0.125671,0.08029l-0.006982,0.094253l0.212942,0.062835Z M1728.558062,675.859261l0.265305,-0.020945l0.303705,-0.132653l0.017454,-0.115198l-0.132653,-0.083781l-0.097744,-0.017454l0.003491,-0.059345l0.146616,-0.104726l0.024436,-0.226906l-0.087271,-0.212942l-0.143125,-0.062835l-0.003491,-0.069817l-0.066326,-0.017454l-0.111707,0.153598l-0.027927,0.219924l0.08029,0.139634l-0.003491,0.20247l-0.094253,0.045381l-0.136143,0.003491l-0.020945,0.059345l0.024436,0.076799l-0.048872,0.062835l0.006982,0.076799l0.101235,0.083781Z M1730.944379,665.076591l0.110282,0.078771l0.050445,-0.092943l-0.069679,-0.192473l-0.0843,-0.039137l-0.046058,0.084861l0.03931,0.16092Z M1727.179226,681.324314l0.13498,-0.13498l0.167561,0.018618l0.209452,0.172216l0.158252,0.060508l0.204797,-0.055854l0.09309,-0.195488l0.144289,-0.186179l-0.018618,-0.083781l-0.148943,-0.037236l-0.013963,-0.162907l0.097744,-0.181525l0.130325,-0.04189l0.051199,-0.04189l-0.055854,-0.074472l0.046545,-0.065163h0.102399l0.027927,-0.13498l-0.102399,-0.279269l0.023272,-0.195488l-0.027927,-0.148943l-0.107053,-0.083781l-0.069817,-0.390976l-0.232724,-0.232724l-0.186179,0.018618l-0.237378,0.195488v0.139634l-0.195488,0.116362l-0.069817,0.223415l-0.144289,0.065163l-0.069817,-0.065163h-0.060508l-0.060508,0.107053l0.055854,0.097744l0.013963,0.595773l0.121016,0.065163l0.139634,0.288578l-0.060508,0.232724l-0.186179,0.279269l0.013963,0.088435l0.111707,0.027927Z M1729.20038,668.761181l0.079126,0.530611l0.107053,0.107053l0.246687,-0.013963l0.094253,0.068654l-0.024327,0.140616l-0.03709,0.066763l-0.014218,0.000909l0.018618,-0.127998l-0.051199,-0.020945l-0.076799,0.137307l-0.023272,0.165234l0.137307,0.083781l0.0256,0.253669l-0.083781,0.127998l-0.181525,-0.04189l-0.153598,0.062835l-0.020945,-0.037236l0.044218,-0.260651l-0.048872,-0.121016l-0.081453,-0.011636l-0.197815,0.167561l-0.13498,0.262978l-0.069817,0.40494l-0.069817,0.146616l-0.010473,0.157089l0.031418,0.132653l-0.066326,0.335122l-0.017454,0.422394l0.013963,0.40494l-0.024436,0.017454l-0.045381,-0.171052l-0.129162,-0.087271l-0.038399,-0.160579l-0.076799,-0.055854l-0.052363,0.017454l-0.157089,0.20247l-0.125671,0.40494l0.031418,0.129162l0.069817,-0.006982l0.118689,-0.101235l0.020945,0.034909l0.010473,0.265305l0.034909,0.216433l-0.027927,0.111707l0.013963,0.268796l0.045381,0.111707l0.034909,-0.010473l0.04189,-0.104726l0.111707,-0.006982l0.062835,0.129162l-0.031418,0.139634v0.08029l0.104726,0.188506l0.115198,0.020945l0.031418,-0.108217l0.031418,-0.006982l0.04189,0.136143l-0.034909,0.097744l-0.101235,-0.010473l-0.055854,-0.04189l-0.052363,0.017454l-0.010473,0.191997l-0.048872,0.048872l0.013963,0.087271l0.076799,0.017454l0.04189,-0.076799l0.090762,-0.003491l0.083781,0.069817l0.024436,0.143125l-0.038399,0.062835l0.013963,0.097744l0.12218,0.118689h0.090762l0.073308,-0.024436l0.16407,0.087271l0.034909,-0.024436l0.12218,-0.383994l0.038399,-0.28276l0.069817,-0.216433l0.024436,-0.237378l-0.101235,-0.076799l-0.12218,-0.048872l-0.04189,0.034909l0.010473,0.150107l-0.062835,0.076799l-0.115198,0.118689l-0.073308,-0.006982l-0.048872,-0.083781l0.069817,-0.125671l0.139634,-0.111707l0.013963,-0.136143l0.097744,-0.031418l0.108217,0.04189l0.073308,-0.059345l0.212942,-0.956495l0.048872,-0.509665l-0.083781,-0.104726l-0.129162,0.006982l-0.146616,0.195488l-0.020945,0.345595l-0.038399,-0.12218v-0.359558l-0.038399,-0.150107l0.059345,-0.279269l0.052363,-0.048872l0.101235,-0.003491v-0.052363l-0.108217,-0.097744l0.020945,-0.090762l0.101235,-0.003491l0.052363,0.069817l0.090762,-0.010473l0.006982,-0.101235l-0.143125,-0.136143l-0.052363,-0.073308l0.048872,-0.017454l0.115198,0.031418l0.118689,-0.08029l0.038399,-0.153598l0.083781,-0.038399l0.038399,-0.188506l0.129162,-0.160579l0.101235,-0.013963l0.024436,-0.101235l-0.031418,-0.12218l0.024436,-0.034909l0.129162,0.006982l0.003491,-0.097744l-0.073308,-0.195488l0.04189,-0.04189l0.108217,-0.038399l-0.013963,-0.188506l-0.118689,-0.12218l-0.171052,0.010473l-0.003491,-0.052363l0.143125,-0.048872l0.143125,-0.006982l0.052363,-0.181525l-0.055854,-0.090762l-0.150107,-0.048872l-0.143125,-0.240869l0.027927,-0.118689l0.157089,-0.059345l0.139634,0.048872l0.115198,-0.045381l0.062835,0.094253l0.045381,-0.04189l0.031418,-0.185016l0.223415,-0.129162l-0.010473,-0.048872l-0.12218,0.003491l0.003491,-0.076799l0.069817,-0.076799l0.069817,0.024436l0.076799,-0.034909l0.055854,-0.289741l-0.027927,-0.139634l-0.104726,-0.181525l0.003491,-0.431938l0.034909,-0.326434l0.066326,-0.058414l0.003491,-0.068723l-0.118689,-0.268019l-0.139634,-0.079031l0.006982,-0.054978l0.08029,-0.113393v-0.15119l-0.157089,-0.402029l-0.097744,-0.072159l0.038399,-0.092776l-0.059345,-0.034361l-0.118689,0.103084l-0.097744,-0.013745l-0.024436,-0.164935l0.083781,-0.381412l0.073308,-0.054978l0.069817,0.041234l0.006982,0.202733l0.069817,-0.003436l0.12218,-0.109957l-0.010473,-0.116829l-0.174543,-0.085904l-0.020945,-0.230222l0.097744,-0.158063l0.097744,-0.058414l0.045381,0.030925l-0.010473,0.137446l0.108217,0.144318l0.097744,0.003436l0.265305,-0.140882l0.167561,-0.2852v-0.450135l0.013963,-0.377976l0.146616,-0.216477l0.034909,-0.19586l-0.04189,-0.017181l-0.069817,0.037798l-0.052363,-0.075595l-0.146616,-0.08934l-0.094253,-0.175243l-0.24436,-0.051542l-0.091926,-0.084758l0.022109,-0.121411l0.066326,-0.010308l0.083781,0.13401l0.059345,-0.010308l0.097744,-0.106521l0.314177,0.130574l0.101235,0.168371l0.062835,-0.006872l0.055854,-0.19586l-0.178034,-0.340179l-0.017454,-0.109957l-0.115198,-0.075595l-0.045381,-0.250839l0.069817,-0.24053v-0.268019l-0.069817,-0.268019l-0.046545,-0.009163l-0.055854,0.15119l-0.060508,-0.004582l-0.079126,-0.105375l-0.032581,0.036652l0.004654,0.164935l-0.083781,0.036652l-0.148943,-0.096212l-0.158252,0.041234l-0.079126,0.109957l0.032581,0.123701l-0.153598,0.164935l-0.172216,0.041234v0.146609l0.055854,0.132864l-0.09309,0.160354h-0.130325l-0.037236,0.050397l0.102399,0.123701l-0.051199,0.054978l-0.097744,0.032071l-0.055854,0.361941l0.055854,0.054978l0.004654,0.096212l-0.079126,0.064141l0.083781,0.146609l0.079126,0.041234v0.068723l-0.130325,0.045815l0.013963,0.142027l-0.083781,0.160354l0.004654,0.247403l0.148943,0.100794l-0.032581,0.054978l-0.144289,0.041234l-0.107053,0.284055v0.458153l0.111707,0.087049l-0.032581,0.077886l-0.107053,0.027489l-0.004654,0.17868l0.060508,0.146609l-0.037236,0.132864l0.065163,0.114538l-0.09309,0.11912l-0.018618,0.123701l-0.148943,-0.022908l-0.060508,0.032071l-0.223415,0.274892l-0.004654,0.251984l0.130325,0.371104l-0.023272,0.17868l-0.051199,0.064141l0.051199,0.155772l-0.069817,0.215332l-0.230285,0.165415l-0.002439,0.072824l0.097744,0.128283l-0.060508,0.444408l0.027927,0.219913l-0.04189,0.553883Z M1729.384196,670.150507l0.063054,0.040799l0.13538,0.007418l0.044508,-0.064908l-0.035236,-0.224397l-0.070472,-0.024109l-0.0204,0.053781l-0.046363,0.003709l-0.064908,-0.064908l-0.046363,0.051927l0.040799,0.220688Z "/>
</svg>
