<svg xmlns="http://www.w3.org/2000/svg" viewBox="1591.662 668.635 12.026 27.800">
  <path d="M1603.33116,684.18567l-0.069602,0.218291l-0.052584,0.027839l0.00928,0.092796l0.061864,0.027839l0.058771,-0.024746v-0.16394l0.021652,-0.170126l-0.02938,-0.007954Z M1603.381855,684.084734l0.049298,-0.044368l0.019719,-0.069017l-0.056693,-0.101061l-0.024649,0.00986l0.019719,0.056693l0.00986,0.071482l-0.039438,0.054228l0.022184,0.022184Z M1596.591073,681.301482l0.097436,-0.092796l0.167033,-0.092796l-0.032479,-0.106715l-0.091505,-0.01379l-0.056968,0.074107l-0.055678,0.125275l-0.060317,0.069597l0.032479,0.037118Z M1596.048216,679.717763l0.027839,-0.052584l-0.039672,-0.034634l-0.050031,0.025354l0.018559,0.064957l0.043305,-0.003093Z M1599.13059,674.876905l0.013919,0.120635l0.060317,-0.00928l0.023199,-0.083516l-0.041636,-0.071706l-0.071266,-0.045835l-0.035572,0.024746l0.051038,0.064957Z M1597.26075,677.425702l0.105169,-0.06805l0.021652,-0.129914l-0.083516,-0.003093l-0.089703,0.111355l0.046398,0.089703Z M1597.50202,676.961722l0.037118,0.034025l0.120635,-0.262922l0.046398,-0.191778l0.049491,-0.126821l-0.037118,-0.021652l-0.07733,0.123728l-0.034025,0.136101l-0.06805,0.142287l-0.037118,0.167033Z M1603.688252,679.307911l-0.061487,-0.057221l-0.158661,0.042545l-0.066044,0.058706l0.073821,0.058369l0.212371,-0.007001v-0.095398Z M1599.218477,696.423304l0.117542,0.012373l0.111355,-0.034025l0.095889,-0.148474l0.024746,-0.114448l0.059418,-0.177877l-0.028486,-0.007715l-0.129528,0.255271l-0.105555,0.119007l-0.131467,0.012672l-0.063405,-0.028138l-0.027839,0.043305l0.07733,0.06805Z M1594.628437,684.085362l0.013919,-0.088156l0.046398,-0.00464l0.032479,0.097436l-0.055678,0.037118l-0.037118,-0.041758Z M1594.391807,684.563261l0.060317,0.00464l-0.032479,0.106715l-0.060317,0.027839l-0.032479,-0.055678l0.064957,-0.083516Z M1593.579842,679.366685l0.074237,0.013919l-0.00928,0.064957l-0.064957,0.018559l-0.023199,-0.027839l0.023199,-0.069597Z M1593.681062,679.285039l0.037974,-0.103946l0.005201,-0.099595l0.069036,-0.113836l0.060317,0.00464v0.106715l-0.125275,0.194872l-0.047254,0.01115Z M1594.33613,678.582559l0.018559,-0.064957l0.041758,-0.027839l0.032479,0.055678l0.018559,0.064957l-0.060317,0.023199l-0.051038,-0.051038Z M1594.551107,678.551627l0.032793,-0.060461l0.104854,-0.047801l0.010826,0.038665l-0.041666,0.060021l-0.087893,0.046259l-0.018915,-0.036684Z M1597.153745,673.414063l0.054228,-0.007395l0.036973,0.096131l-0.008941,0.068775l-0.08661,0.074237l-0.047413,-0.019767l0.059157,-0.133104l-0.007395,-0.078877Z M1593.584579,674.202829l0.00493,-0.054228l0.027525,-0.025911l0.051352,0.018516l0.00986,0.069017l-0.046833,0.022184l-0.046833,-0.029579Z M1593.007636,677.142008l0.041239,-0.056945l0.049298,0.014789l0.00493,0.064087l-0.073947,0.014789l-0.02152,-0.036721Z M1591.661817,668.66286l0.024746,-0.027839l0.037118,0.00928v0.043305l-0.037118,0.003093l-0.024746,-0.027839Z M1591.822663,668.975273l0.015466,-0.046398l0.030932,0.003093v0.061864l-0.040212,0.015466l-0.006186,-0.034025Z M1591.804104,669.151585l0.006186,-0.046398h0.030932l0.012373,0.055678l-0.027839,0.021652l-0.021652,-0.030932Z "/>
</svg>
