<svg xmlns="http://www.w3.org/2000/svg" viewBox="1587.517 785.532 8.234 14.779">
  <path d="M1595.315128,798.880203l0.030932,-0.030932l0.117542,0.071144l0.039491,0.122186l0.238897,0.187134l0.00928,0.136101l-0.058771,0.108262l-0.071144,0.06805l-0.012373,0.120635l0.043305,0.095889l0.089703,0.07733l-0.00928,0.061864l-0.173219,0.126821l-0.102076,0.108262l-0.101747,0.179406l-0.105497,-0.018559l-0.056195,-0.195444l0.040729,-0.23451l0.049629,-0.14594l-0.023778,-0.18547l-0.214004,-0.190225l-0.102608,-0.103191l-0.179406,-0.095889l0.015698,-0.071991l0.166801,-0.070296l0.058771,0.040212l-0.052584,0.089703l0.027839,0.049491l0.151567,0.095889l0.052584,0.061864l0.148474,0.058771l0.015466,0.296947l-0.018559,0.136101l-0.055678,0.095889l-0.018559,0.139194l0.027976,0.133321l0.052312,-0.019023l0.118891,-0.180714l0.156936,-0.123647v-0.061823l-0.080846,-0.142669v-0.123647l0.10938,-0.123647l0.033289,-0.15218l-0.242537,-0.180714l-0.019023,-0.133158l-0.075955,-0.030398l-0.021652,-0.046398Z M1588.06776,792.059697l0.123728,-0.129914l0.092796,-0.055678l0.012373,-0.074237l-0.074237,-0.037118l-0.105169,0.055678l-0.024746,0.08661l-0.092347,0.12826l0.01811,0.038773l0.049491,-0.012373Z M1587.591407,793.266045l0.006186,-0.080423l-0.024746,-0.043305l-0.043305,0.030932l-0.012373,0.06805l0.018559,0.061864l0.055678,-0.037118Z M1587.882168,792.22673l0.043305,0.030932l0.049491,-0.030932l-0.024746,-0.061864l-0.055678,0.006186l-0.012373,0.055678Z M1588.185301,794.93328l0.018559,-0.037118l-0.092796,-0.018559l-0.089703,0.040212l-0.018559,0.117542l0.100101,0.107052l0.104051,0.035235l0.108262,0.006186l0.204151,0.111355l0.055678,0.015466l0.043305,-0.040212l-0.030932,-0.058771l-0.049491,-0.030932l-0.034025,0.021652l-0.188685,-0.092796l-0.15466,-0.030932l-0.058771,-0.071144l0.015466,-0.07733l0.06805,0.003093Z M1594.634001,788.597595l0.07733,-0.015466l0.015466,-0.027839l-0.083516,-0.024746l-0.058771,0.003093l-0.018559,0.046398l0.06805,0.018559Z M1590.856956,786.961861l0.012324,0.044368l0.037489,0.036304l0.120559,0.020834l0.028462,-0.020841l-0.028385,-0.039022l-0.099347,-0.014192l-0.04611,-0.037299l-0.024993,0.009849Z M1590.828711,786.776424l0.037772,-0.031656l0.015466,-0.117542l-0.030932,-0.00928l-0.025854,0.037841l-0.015047,0.064489l0.018596,0.056147Z M1590.860645,786.499671l0.024398,-0.017825l0.003093,-0.123728l-0.01812,-0.049682l-0.052497,-0.095902l-0.024288,0.013932l0.026855,0.051229l0.026367,0.094244l0.014192,0.127732Z M1590.807423,786.872223l0.028385,0.039029l0.028385,-0.035481l-0.010082,-0.053674l-0.032495,0.000452l-0.014192,0.049674Z M1591.148042,787.063822l-0.027917,0.027385l0.046398,0.015466l0.061864,-0.015466l-0.006627,-0.023354l-0.022184,-0.012324l-0.051534,0.008294Z M1591.401698,786.786854l-0.054228,0.014789l-0.010821,0.023548l0.037118,0.018559l0.040212,-0.012373l0.018559,-0.030932l-0.030841,-0.013592Z M1591.352115,787.060274l0.003093,0.037118l0.071144,-0.006186l0.00928,-0.027839l-0.035673,-0.01019l-0.047843,0.007097Z M1592.276344,786.52096l0.053222,-0.011275l0.039029,-0.07388l-0.030381,-0.051559l-0.028274,0.01131l-0.048424,0.083197l0.014828,0.042207Z M1592.32338,786.271508l0.040212,-0.012373l-0.006186,-0.052584l-0.027839,-0.012373l-0.018559,0.037118l0.012373,0.040212Z M1590.770685,786.19035l0.014789,-0.022184l-0.00493,-0.044368l-0.032044,-0.00493l-0.012041,0.035453l0.009576,0.031099l0.024649,0.00493Z M1590.714916,786.039518l0.024746,0.006186l0.037118,-0.117542l0.024746,-0.040212l0.037118,-0.034025l-0.026491,-0.021302l-0.060119,0.036768l-0.031677,0.055503l-0.005442,0.114623Z M1590.816884,785.738008l0.018667,0.026216l0.037118,-0.003093l0.019908,-0.031401l-0.039029,-0.021289l-0.036664,0.029568Z M1590.900508,785.680707l0.015466,0.015466l0.040212,-0.027839l0.040212,-0.015466l-0.00928,-0.024746l-0.05323,0.011575l-0.03338,0.04101Z M1591.299531,785.609563l0.010966,-0.035437l-0.006337,-0.025351l-0.040445,0.013482l-0.016325,0.031461l0.015023,0.034405l0.037118,-0.018559Z M1591.410886,785.581725l0.021652,-0.030932l-0.034025,-0.018559l-0.064957,0.003093v0.027839l0.07733,0.018559Z M1591.584105,785.788969l0.080423,-0.003093l0.018923,-0.023654h-0.106443l-0.028386,0.011827l0.035482,0.01492Z M1591.817185,785.780782l0.042215,-0.001092v-0.030932l-0.040212,-0.012373l-0.021652,0.027839l0.019649,0.016558Z M1591.953834,785.754063l0.088065,-0.030052l0.00274,-0.029505l-0.028759,-0.013072l-0.085155,0.05677l0.023109,0.015859Z M1592.227003,785.620846l0.075361,0.027276l0.024541,-0.017851l0.002662,-0.048546l-0.0479,-0.024967l-0.054663,0.024504v0.039584Z M1593.848811,786.327621l0.017254,0.039438l0.029579,0.046833l0.059157,0.012324l0.012324,-0.029579l-0.034341,-0.029175l-0.010727,-0.050059l-0.048598,-0.016897l-0.024649,0.027114Z M1593.972056,786.229025l0.014789,0.00986l0.056784,-0.100261l0.039347,-0.059957l-0.022184,-0.022184l-0.041903,0.044368l-0.03247,0.08068l-0.014363,0.047494Z M1594.236712,786.020628l0.025029,-0.042907l-0.030872,-0.014904l-0.034509,0.012324l-0.006132,0.031184l0.046483,0.014302Z M1594.334395,786.063877l0.004818,-0.022988l-0.024537,-0.011521l-0.020754,0.019864l0.008429,0.019574l0.032044,-0.00493Z M1594.322071,786.199446l0.034509,0.027114l0.044368,-0.00986l0.007395,-0.017292l-0.032181,-0.010727l-0.029442,-0.043463l-0.024649,0.002465v0.051763Z M1594.292492,786.263534l-0.041903,0.022184l0.012324,0.019719l0.046833,-0.00986l0.032044,-0.027114l-0.002465,-0.036973l-0.022184,-0.007395l-0.024649,0.039438Z M1594.008655,786.37629l0.009609,0.022571l0.026147,-0.018995l-0.018549,-0.018995l-0.017208,0.01542Z M1594.056144,786.333718l0.00771,0.025588l0.020895,-0.004134l-0.011397,-0.030393l-0.017208,0.008939Z M1593.900604,786.281648l0.007151,-0.028605l-0.025029,-0.017878l-0.007151,0.028605l0.025029,0.017878Z M1594.218545,786.332551l0.001071,-0.028667l-0.022795,0.0019l0.009498,0.034192l0.012226,-0.007425Z M1594.170228,786.349473l0.0019,-0.034192l-0.022795,-0.005699l0.009498,0.045589l0.011397,-0.005699Z M1591.480026,785.738568l0.021289,-0.007096v-0.023654l-0.028385,-0.002365l-0.018923,0.02602l0.02602,0.007096Z M1591.738765,785.804435l0.027839,-0.003093v-0.024746l-0.030932,-0.003093l-0.018559,0.027839l0.021652,0.003093Z M1589.52775,791.799868l0.061864,0.030932l0.043305,-0.037118l-0.037118,-0.061864l-0.055678,0.006186l-0.012373,0.061864Z M1589.30504,791.583344l0.037118,-0.027839v-0.037118l-0.051038,-0.00464l-0.023199,0.037118l0.037118,0.032479Z M1589.439594,791.694699v-0.032479l-0.037118,-0.018559l-0.037118,0.00928l0.013919,0.046398l0.060317,-0.00464Z "/>
</svg>
