<svg xmlns="http://www.w3.org/2000/svg" viewBox="1373.257 492.248 64.812 61.427">
  <path d="M1373.257388,522.252227l12.163,-6.966l2.159,-0.631l0.046,-0.139l0.223,-0.195l0.752,-1.494l0.717,-0.943l-0.086,-2.697l0.086,-0.471l0.013,-0.408l0.334,-0.916l0.012,-0.791l0.792,-1.027l-0.111,-1.646l-0.755,-1.633l0.21,-1.769l-0.025,-0.421l0.78,-1.312l2.784,-0.482l3.637,-3.675l0.038,-0.071l-0.149,-0.093l-0.006,-0.077l0.08,-0.105l0.081,-0.031l0.13,0.055l0.105,-0.03l0.049,-0.081l0.31,-0.099l0.142,0.025l0.117,-0.013l0.05,-0.055l0.241,-0.025l0.161,0.037l0.043,-0.043l-0.012,-0.087l0.093,-0.161l0.136,-0.173l-0.006,-0.068l0.043,-0.056l0.08,-0.018l0.124,-0.173l0.019,-0.136l0.08,-0.075l0.081,0.013l0.055,-0.037v-0.056l0.05,-0.062l-0.044,-0.105l0.044,-0.05h0.148l0.105,-0.068l0.025,-0.123l0.056,-0.081l0.093,-0.031l0.142,-0.185l0.142,-0.05l0.161,0.081l0.006,0.136l0.093,0.055h0.074l0.31,0.124l0.29,0.068l0.149,0.019l0.068,-0.068l0.154,-0.013l0.099,-0.068l0.05,-0.086l0.068,-0.044l0.167,-0.012l0.111,-0.068h0.378l0.185,0.037l0.217,0.025l0.136,0.08l0.142,-0.012l0.204,0.136l0.044,0.099l0.179,0.093l0.118,-0.006l0.018,-0.075l0.093,-0.08l0.192,0.006l0.08,0.124l0.26,0.173l0.39,0.148l0.037,0.118l0.241,0.087l0.081,-0.05l0.235,-0.037l0.123,0.031l0.007,0.08l0.08,0.025l0.087,-0.031l0.074,0.019l0.049,0.123l0.106,0.007l0.061,-0.037l0.143,-0.013l0.123,-0.068h0.359l0.31,0.05l0.142,0.055l0.117,0.192l0.05,-0.006l0.025,-0.13l0.068,-0.074l0.154,-0.013l0.124,0.037l0.186,-0.037l0.21,-0.34l0.006,-0.124l0.081,-0.068l0.13,-0.024l0.068,-0.068l0.08,-0.13l0.13,-0.038l0.185,0.031l0.099,0.062l0.168,0.013l0.111,-0.044l0.13,0.013l0.489,0.266l0.148,0.012l0.099,0.111l0.006,0.112l0.056,0.049l0.099,0.044l0.006,0.179l-0.037,0.068l0.031,0.087l0.086,0.074l-0.074,0.179l-0.142,0.05l-0.093,-0.037l-0.099,0.043l-0.223,0.384l0.031,0.198l0.248,0.197l0.018,0.106l-0.068,0.08l0.056,0.124l0.074,0.025l0.081,0.08v0.105l0.105,0.056l0.124,0.018l0.117,0.112l0.043,-0.037l-0.024,-0.056l0.031,-0.056l0.086,-0.018l0.05,-0.05l0.006,-0.062l0.179,-0.191l0.013,-0.062l-0.05,-0.087l0.031,-0.074l0.149,-0.043l0.105,0.037l0.13,-0.007l0.16,-0.123l0.149,-0.037l0.334,-0.192l0.025,-0.105l0.074,-0.068l0.111,0.006l0.056,-0.031l-0.006,-0.13l0.155,-0.161l0.129,-0.031l0.192,-0.148l0.142,0.006l0.149,0.111l0.08,0.006l0.05,-0.03l0.155,0.012l0.191,0.056l0.099,-0.007l0.075,0.031l0.006,0.075l0.08,0.074l-0.093,0.105l-0.105,0.056l-0.012,0.092l0.192,0.106l0.031,0.068l-0.044,0.043l0.013,0.068l0.086,0.031l0.062,0.087l0.031,0.105l0.124,0.024l0.111,-0.043l0.093,0.025l0.037,0.08l0.08,0.037l0.093,-0.012l0.099,0.081l0.006,0.117l-0.068,0.062l-0.074,0.297l0.019,0.086l0.08,0.044l0.099,0.154l-0.006,0.155l-0.062,0.198l0.006,0.093l-0.055,0.074l-0.198,0.068l-0.155,0.173l-0.043,0.167l0.061,0.155l0.081,0.019l0.086,-0.044l0.291,0.031l0.155,-0.031l0.13,0.037l0.111,0.167l0.124,0.031l0.136,-0.006l0.142,0.118l0.211,0.352l0.037,0.415l-0.05,0.136l-0.204,0.099l-0.031,0.087l0.093,0.148l-0.062,0.118l-0.148,0.024l-0.037,0.112l0.049,0.154l0.241,0.099l0.05,0.062l-0.019,0.155l0.044,0.105l0.074,0.043l0.049,0.093l0.025,0.136l0.167,0.142l0.223,0.05l0.08,-0.025l0.025,-0.074l0.08,-0.037l0.371,-0.074l0.106,0.037l0.179,0.253l0.031,0.279l0.049,0.105l-0.006,0.08l-0.117,0.05l-0.037,0.142l0.049,0.062h0.074l0.161,0.161l-0.018,0.08l-0.136,0.075v0.074l0.185,0.037l0.173,0.173l0.019,0.111l-0.05,0.106l0.025,0.21l-0.025,0.099l0.013,0.087l0.074,0.043l0.08,0.142l0.112,0.056l0.068,0.142l-0.025,0.279l-0.185,0.259l-0.025,0.155l0.043,0.124l0.081,0.012l0.037,-0.043h0.055l0.062,0.062l0.149,-0.007l0.117,-0.074l0.05,-0.086l0.086,-0.019l0.068,0.037h0.056l0.08,-0.062h0.155l0.093,0.056h0.099l0.056,-0.037l0.16,0.037l0.638,0.476l0.148,0.229l0.105,0.062l0.31,0.446l0.105,0.222l0.068,-0.006l0.031,-0.056l0.123,-0.012l0.025,-0.074l0.062,-0.019l0.093,0.068l0.223,0.006l0.129,0.025l0.062,-0.031l-0.006,-0.093l0.081,-0.055l0.16,0.012l0.081,0.068l0.142,-0.006l0.081,-0.093l0.371,0.019l0.142,-0.031l0.08,-0.099l0.273,-0.013l0.092,0.062l0.149,0.019l0.056,0.068l-0.013,0.099l0.105,0.124l0.112,0.037l0.049,-0.056l0.093,0.012l0.118,0.062l0.074,-0.012l0.043,-0.074l0.087,-0.013l0.08,0.019l0.167,-0.062l0.062,-0.105l0.08,-0.006l0.118,0.093l0.124,0.006l0.062,0.043l0.012,0.173l-0.087,0.211l-0.179,0.018l-0.08,0.081l-0.075,0.117l-0.074,0.062l-0.278,0.068l-0.149,-0.025l-0.179,0.074l-0.062,0.137l-0.105,0.012l-0.093,-0.056l-0.118,-0.006l-0.092,0.056l-0.291,-0.031l-0.062,-0.074h-0.105l-0.068,0.117l-0.081,0.025l-0.049,0.087l0.025,0.092l-0.056,0.18l0.062,0.278l0.08,0.136l-0.018,0.05l-0.075,0.018l-0.21,-0.062l-0.049,0.044l0.16,0.204v0.124l-0.08,0.191l-0.012,0.136l0.309,0.601l0.328,0.365l0.284,0.191l0.198,0.328l-0.049,0.149l-0.229,0.191v0.075l0.118,0.043l0.334,0.043l0.086,0.186l-0.025,0.105l-0.111,0.025l-0.124,0.185l0.019,0.198l0.155,0.118l0.006,0.08l-0.142,0.118l-0.297,0.08l-0.236,-0.086l-0.074,0.074l0.025,0.155l-0.037,0.08l-0.192,-0.037l-0.173,-0.124l-0.13,0.025l-0.346,-0.18l-0.118,0.007v0.179l0.043,0.099l-0.031,0.056l-0.179,-0.019l-0.161,0.105l0.019,0.155l0.086,0.093l0.044,0.291l-0.031,0.092l-0.062,0.013l-0.087,0.111l-0.037,0.229l-0.087,0.037l-0.204,-0.124l-0.167,-0.012l-0.055,0.043l0.043,0.118l0.006,0.235l-0.111,0.167l-0.13,0.043l-0.211,-0.037l-0.179,0.099l-0.043,0.13l0.055,0.124l-0.018,0.105l-0.111,0.093l-0.031,0.167l-0.112,0.099l0.006,0.086l0.198,0.081l0.056,0.099l-0.025,0.111l0.044,0.062l0.08,0.006l0.099,0.34l-0.043,0.124l0.043,0.124l0.074,0.037l0.019,0.254l-0.037,0.068h-0.124l-0.254,-0.143h-0.253l-0.099,0.056h-0.18l-0.179,-0.08l-0.13,-0.229l-0.105,-0.056l-0.056,0.025l-0.043,0.247l-0.056,0.075l-0.006,0.061l0.068,0.099l-0.037,0.396l-0.087,0.05l-0.266,-0.025l-0.136,0.087l-0.006,0.13l0.093,0.136l0.08,0.365l0.173,0.303l0.068,-0.019l0.019,-0.068l0.074,-0.012l0.167,0.018l0.211,0.235l0.055,0.167l-0.012,0.347l-0.068,0.235l-0.087,0.111l-0.012,0.093l0.155,0.217l-0.044,0.117l-0.29,0.167l-0.322,0.291l-0.056,0.13l0.037,0.173l-0.093,0.18l-0.266,0.179l-0.055,0.148l0.086,0.13l0.093,0.031l0.384,-0.024l0.093,0.055l0.049,0.161l0.161,0.155l0.204,0.352l0.037,0.149l0.142,0.21l0.174,0.112l0.086,0.197l-0.043,0.081l0.019,0.136l0.086,0.049l0.13,0.174l0.124,0.068l0.198,0.235l0.284,0.161l0.031,0.111l-0.105,0.161l0.043,0.043l0.291,-0.148l0.05,-0.081l0.086,-0.031l0.13,0.031l0.149,-0.055l0.247,-0.019l0.062,0.05l-0.037,0.136l0.049,0.074l0.174,0.087l0.092,0.222l-0.062,0.099l-0.501,0.359l0.031,0.043l0.167,-0.018l0.174,0.018l0.08,0.05h0.068l0.099,-0.136l0.186,-0.056l0.086,0.025l-0.006,0.142l0.062,0.074l0.056,0.013l0.105,0.266l-0.031,0.092l0.105,0.217l0.111,0.099l0.031,0.179l0.05,0.112l0.13,0.08l0.049,0.087l0.006,0.105l0.334,0.285l0.112,0.037l0.068,0.08l-0.062,0.272l0.037,0.112l0.118,0.006l0.018,0.055l-0.284,0.285l-0.062,0.124l-0.217,0.142l-0.13,0.012l-0.21,-0.055l-0.142,0.025l-0.05,0.197l0.112,0.05h0.136l0.142,0.031l0.074,0.08l0.105,0.025l0.136,-0.012l0.025,0.068l-0.105,0.13l-0.019,0.105l-0.061,0.08l-0.149,0.006l-0.074,0.106l0.025,0.173l0.253,0.179l0.266,0.025l0.576,-0.111l0.389,0.018l0.223,0.093l0.13,0.037l0.161,-0.006l0.408,0.198l0.136,0.111l0.093,0.05h0.111l0.44,0.34l0.08,0.019l0.186,0.216l0.439,0.186l0.241,0.092l0.371,0.378l0.062,0.136l0.05,0.043l0.148,0.074l0.074,0.062l0.031,0.13l0.322,0.279l0.551,0.352l0.396,0.279l0.117,0.148l0.804,0.495l0.415,-0.037l0.21,-0.062l0.105,-0.142l0.099,-0.013l0.229,0.124l0.39,0.087l0.476,0.513l-0.012,0.136l-0.074,0.093l0.012,0.118l0.167,0.235l0.223,0.08l0.055,0.081l-0.074,0.148l0.217,0.272l0.117,0.019l0.087,0.142l-0.037,0.136l-0.198,0.161l-0.025,0.093l0.179,0.278l0.099,0.05l0.192,-0.013l0.18,0.174l0.111,0.043l0.056,0.056l-0.019,0.167l0.217,0.228l0.099,0.019l0.092,0.099l0.019,0.26l0.099,0.241l0.173,0.186l0.112,0.024l0.055,0.05l-0.006,0.08l0.056,0.037l0.074,0.019l0.037,0.08l-0.043,0.118l0.049,0.118l0.223,0.105l0.093,0.086l0.074,0.26l-1.225,2.846v2.784h2.301l-0.046,3.795l0.548,0.176l0.361,0.177l0.121,0.195l0.084,0.491l0.092,0.103h0.102l0.121,-0.112l0.121,-0.009l0.12,0.065l0.873,0.993l0.018,0.158l-0.204,0.259l0.028,0.149l0.26,0.176l0.12,0.232l0.037,0.334l0.112,0.176l0.343,0.195l0.455,0.14l0.111,0.092l-0.021,0.152l-0.217,0.08l-0.34,-0.068l-0.099,0.044l-0.013,0.185l-0.129,0.118l-0.155,-0.044l-0.217,-0.198l-0.052,-0.167l-0.993,-0.584l-0.446,-0.232l-0.807,-0.037l-0.297,0.157l-0.083,0.084l-0.205,-0.046l-0.148,-0.102l0.019,-0.297l-0.084,0.009l-0.065,0.158l0.019,0.167l-1.566,-0.65h-2.227l-0.253,0.111l-0.18,0.161l-0.161,0.081l-0.494,0.154l-0.26,0.149l-0.198,0.216l-0.186,0.421l-0.198,0.606l-0.321,0.675l-0.149,0.216l-0.08,0.452l-0.149,0.26l-0.124,0.154l-0.303,0.532l-0.049,0.186l-0.235,0.47l-0.303,0.371l-0.223,0.229l-0.161,0.285l-0.408,0.47l-0.192,0.303l-0.291,0.291l-0.216,0.142l-0.254,0.322l-0.987,0.342l-11.306,-0.986l-17.315,-13.777l-4.25,-1.911l-6.737,-4.25l-7.973,-1.564l0.631,-0.52l-0.292,-0.917l-1.411,0.371l-0.383,-1.274l0.643,-0.186l-1.918,-6.409z"/>
</svg>
