<svg xmlns="http://www.w3.org/2000/svg" viewBox="1407.920 473.714 127.256 108.404">
  <path d="M1512.341582,580.107441h0.030932l0.024746,0.012373l-0.012373,0.018559h-0.046398l-0.018559,-0.015466l0.021652,-0.015466Z M1523.322442,581.264298l0.037118,0.003093l0.052584,-0.012373l0.00928,-0.024746l-0.030932,-0.030932l-0.052584,0.00928l-0.037118,0.030932l0.021652,0.024746Z M1440.262288,544.15827l0.123728,0.074237h0.080423l0.167033,0.08661l0.123728,0.117542l0.006186,0.179406l0.080423,0.105169l0.847537,0.408302l0.111355,0.117542l0.123728,0.049491l0.08661,-0.012373l0.061864,-0.197965l0.049491,-0.092796l0.111355,-0.061864l-0.006186,-0.074237l-0.228897,-0.470166l-0.006186,-0.197965l-0.136101,-0.080423l-0.15466,0.006186l-0.228897,-0.098982l-0.290761,-0.06805l-0.148474,0.006186l-0.117542,0.111355l-0.142287,0.030932l-0.327879,-0.117542l-0.160846,0.006186l-0.043305,0.061864l0.018559,0.111355Z M1440.20661,544.461404l0.043305,-0.024746l-0.006186,-0.148474l-0.043305,-0.024746l-0.049491,0.043305v0.080423l0.055678,0.074237Z M1440.849996,545.024366l0.024746,0.08661l0.074237,0.074237l0.074237,-0.012373l0.018559,-0.055678l-0.123728,-0.111355l-0.06805,0.018559Z M1441.270671,543.898441l0.098982,0.030932l0.043305,-0.030932l-0.037118,-0.043305l-0.074237,-0.018559l-0.049491,0.018559l0.018559,0.043305Z M1441.728464,543.830391l0.055678,-0.012373v-0.049491l-0.049491,-0.030932l-0.049491,0.024746v0.049491l0.043305,0.018559Z M1441.35728,546.162664l0.092796,-0.018559l0.012373,-0.043305l-0.043305,-0.024746l-0.08661,0.012373l-0.024746,0.043305l0.049491,0.030932Z M1441.76249,545.853344l0.287668,-0.055678l0.00928,-0.027839l-0.032479,-0.023199l-0.125275,0.027839l-0.083516,-0.00928l-0.041758,0.00928l-0.032479,0.046398l0.018559,0.032479Z M1449.207822,552.250081l0.012373,0.136101l0.105169,0.15466l0.08661,0.012373l0.055678,-0.061864l0.018559,-0.235083l-0.06805,-0.08661l-0.235083,-0.061864l-0.043305,0.043305l0.06805,0.098982Z M1449.517142,551.909829l0.111355,-0.160846l0.030932,-0.111355l-0.043305,-0.012373l-0.061864,0.055678l-0.08661,0.210338l0.049491,0.018559Z M1453.006272,553.753377l-0.018559,0.092796l0.024746,0.136101l0.055678,0.024746l0.08661,-0.049491l0.024746,-0.129914l-0.080423,-0.253642l-0.06805,-0.018559l-0.055678,0.049491l0.030932,0.148474Z M1456.572732,562.083365l0.213431,0.269108l0.092796,0.00928l0.046398,-0.083516l-0.018559,-0.120635l-0.250549,-0.22271h-0.092796l0.00928,0.148474Z M1468.320705,569.701916l0.46398,0.157753l0.575335,0.027839l0.22271,-0.055678l0.018559,-0.083516l-0.334066,-0.139194l-0.22271,0.00928l-0.334066,-0.046398l-0.389743,-0.111355l-0.194872,0.00928l-0.037118,0.064957l0.23199,0.167033Z M1471.021069,570.731952l0.287668,0.074237l0.129914,-0.055678l-0.00928,-0.083516l-0.129914,-0.074237l-0.250549,-0.027839l-0.083516,0.055678l0.055678,0.111355Z M1473.071861,571.789826l0.306227,0.120635l0.371184,0.046398l0.204151,-0.083516l0.00928,-0.102076l-0.167033,-0.23199l-0.148474,-0.083516l-0.371184,-0.046398l-0.250549,0.139194l-0.037118,0.111355l0.083516,0.129914Z M1476.904336,573.534391l0.027839,0.120635l0.092796,0.064957l0.120635,-0.064957l0.064957,-0.204151l-0.083516,-0.167033l-0.185592,-0.018559l-0.120635,0.074237v0.111355l0.083516,0.083516Z M1477.127046,576.253314l0.157753,-0.027839l0.027839,-0.092796l-0.083516,-0.129914h-0.111355l-0.213431,0.102076l-0.00928,0.092796l0.23199,0.055678Z M1480.486261,576.513143l0.102076,-0.064957v-0.092796l-0.046398,-0.092796h-0.148474l-0.111355,0.083516l0.018559,0.111355l0.185592,0.055678Z M1482.230826,573.757102l0.120635,-0.037118l0.018559,-0.083516l-0.074237,-0.111355l-0.074237,-0.00928l-0.083516,0.046398l-0.018559,0.111355l0.111355,0.083516Z M1476.545524,574.73146l0.043305,-0.037118v-0.049491l-0.049491,-0.037118l-0.043305,0.024746l0.006186,0.061864l0.043305,0.037118Z M1481.148206,573.809686l0.074237,0.030932l0.043305,-0.037118l-0.006186,-0.049491l-0.06805,-0.018559l-0.055678,0.024746l0.012373,0.049491Z M1489.679252,568.06252l0.173219,0.043305l0.197965,-0.049491l0.06805,-0.167033l-0.024746,-0.105169l-0.142287,-0.105169l-0.185592,-0.006186l-0.123728,0.123728l-0.024746,0.173219l0.061864,0.092796Z M1488.930697,569.38641l-0.024746,0.123728l0.049491,0.105169l0.123728,0.018559l0.22271,-0.080423l0.253642,-0.216524l-0.024746,-0.105169l-0.253642,-0.074237l-0.167033,0.049491l-0.179406,0.179406Z M1485.84987,570.902078l-0.018559,0.185592l0.074237,0.049491l0.185592,-0.049491l0.142287,-0.173219l0.018559,-0.167033l-0.098982,-0.098982l-0.136101,0.018559l-0.167033,0.235083Z M1484.379054,569.989584l0.029385,0.021652l0.235083,-0.105169l0.129914,-0.160846l0.08661,-0.012373l0.08661,0.123728h0.061864l0.037118,-0.105169l-0.024746,-0.296947l-0.092796,-0.049491l-0.018559,-0.06805l0.049491,-0.105169l-0.049491,-0.321693l-0.074237,-0.037118l-0.179406,0.08661l-0.123728,0.191778l-0.024746,0.098982l-0.061864,0.098982l-0.037118,0.284574l0.049491,0.142287l-0.012373,0.129914l-0.066504,0.083516Z M1485.101316,569.76378l0.055678,0.049491l0.061864,-0.055678l-0.006186,-0.074237l-0.061864,-0.074237h-0.055678l0.006186,0.15466Z M1485.138434,569.553443l0.074237,0.012373l0.012373,-0.043305l-0.08661,-0.092796l-0.043305,0.012373v0.06805l0.043305,0.043305Z M1485.302374,569.469926l-0.018559,-0.078877l-0.037118,-0.018559l-0.037118,0.027839l0.00928,0.051038l0.064957,0.064957l0.018559,-0.046398Z M1483.938273,570.416446l-0.250549,0.088156l-0.139194,-0.013919l-0.153113,0.055678l-0.088156,0.078877l-0.120635,0.037118h-0.088156l-0.255189,0.078877l-0.092796,0.078877l-0.129914,0.055678l-0.199511,0.027839l-0.23199,-0.032479l-0.088156,-0.060317l-0.115995,-0.00464l-0.032479,0.041758l0.023199,0.051038l0.027839,0.148474l0.055678,0.097436v0.143834l-0.037118,0.167033l0.060317,0.157753l0.115995,0.032479l0.115995,-0.069597l0.037118,-0.078877l0.069597,-0.051038l0.102076,-0.00928l0.088156,0.032479l0.283028,-0.051038l0.352625,-0.157753l0.22735,0.018559l0.194872,-0.078877l0.111355,-0.115995l0.366544,-0.125275l0.148474,-0.013919l0.180952,-0.078877l0.22735,-0.180952l0.204151,-0.060317l0.283028,0.032479l0.245909,-0.088156l0.23199,-0.180952l0.208791,-0.097436l0.23199,0.023199l0.115995,0.102076l0.120635,0.180952l0.115995,-0.00464l0.125275,-0.064957l0.157753,-0.218071l0.644932,-0.394383l0.055678,-0.125275l0.153113,-0.176312l0.134554,-0.069597l0.120635,-0.176312l0.037118,-0.204151l0.083516,-0.143834l0.250549,-0.106715l0.324786,-0.018559l0.176312,-0.106715l0.023199,-0.092796l-0.083516,-0.092796l-0.310867,-0.120635l-0.055678,-0.060317l-0.111355,-0.023199l-0.078877,0.027839l-0.139194,0.00464l-0.078877,-0.041758l-0.074237,0.00928l-0.060317,0.046398l-0.324786,0.064957l-0.417582,0.185592h-0.213431l-0.22271,0.120635l-0.064957,0.097436l-0.343345,0.148474l-0.199511,0.018559l-0.269108,-0.120635l-0.306227,-0.22735l-0.204151,-0.027839l-0.129914,0.088156l-0.00928,0.092796l0.204151,0.194872l0.064957,0.134554l-0.00464,0.115995l0.023199,0.176312l-0.041758,0.092796l-0.013919,0.153113l-0.060317,0.106715l-0.213431,0.064957l-0.078877,-0.018559l-0.088156,-0.120635l-0.046398,0.00464l-0.092796,0.153113l-0.273748,0.115995l-0.088156,0.134554l-0.115995,0.069597l-0.180952,0.055678l-0.106715,0.097436Z  M1412.943144,494.060802l0.043,-0.068l-0.03,-0.155l-0.099,-0.08l-0.069,-0.372l0.143,-0.167l0.105,-0.006l0.087,-0.117l0.018,-0.124l-0.068,-0.155l-0.21,-0.179l-0.118,-0.006l-0.173,-0.149l-0.012,-0.142l-0.075,-0.08l-0.167,-0.05l-0.148,0.031l-0.062,-0.056l-0.025,-0.105l-0.105,-0.105l-0.012,-0.099l-0.081,-0.062l-0.111,0.013l-0.13,-0.05l-0.025,-0.087l0.037,-0.16l0.112,-0.056v-0.081l-0.093,-0.068v-0.08l0.087,-0.037l0.061,-0.198l-0.061,-0.068l0.006,-0.068l0.055,-0.019v-0.074l-0.061,-0.037l-0.007,-0.081l0.05,-0.086l-0.013,-0.093l-0.117,-0.08l-0.124,-0.167l0.025,-0.161l0.328,-0.285v-0.154l-0.173,-0.198l-0.031,-0.106l-0.081,-0.049h-0.062l-0.049,-0.019l-0.05,-0.074l-0.191,-0.043l-0.087,0.062l-0.235,0.031l-0.056,0.055l-0.142,-0.031l-0.031,-0.074l0.062,-0.179l-0.056,-0.025l-0.093,0.037l-0.086,-0.025l-0.025,-0.086l-0.068,-0.037l-0.068,-0.013l-0.025,-0.055l0.081,-0.099v-0.062l-0.056,-0.093l-0.118,-0.031l-0.092,0.019l-0.347,-0.149l-0.049,0.037l0.043,0.068l-0.062,0.025l-0.056,-0.05l-0.08,-0.006l-0.068,0.025l-0.229,-0.043l-0.13,-0.112l-0.012,-0.08l0.062,-0.21l0.062,-0.037l0.024,-0.112l-0.062,-0.105l0.038,-0.074l0.068,-0.068l0.167,-0.328l0.092,-0.043l0.062,-0.099l0.013,-0.118l0.074,-0.148l0.068,-0.044l0.062,-0.13l0.124,-0.031l0.061,-0.08l-0.086,-0.155l0.055,-0.068l0.081,0.006l0.099,-0.061l0.068,-0.378l0.068,-0.08l-0.006,-0.118l-0.056,-0.136l0.05,-0.111l0.457,-0.359l0.106,-0.019l0.061,-0.08l-0.049,-0.08l0.037,-0.056l0.056,-0.019l0.012,-0.074l-0.136,-0.099l-0.099,0.006l-0.08,-0.049l-0.025,-0.118l-0.087,-0.049l-0.365,0.179h-0.099l-0.062,-0.105l-0.074,-0.025l-0.13,0.062l-0.136,-0.031l-0.062,-0.099l0.006,-0.086l0.087,-0.068l-0.006,-0.161l-0.099,-0.081l-0.006,-0.074l0.055,-0.049l0.025,-0.198l0.074,-0.05v-0.161l-0.074,-0.068l-0.018,-0.179l0.018,-0.223l0.068,-0.049l0.013,-0.087l-0.056,-0.08l0.006,-0.198l-0.093,-0.075l-0.222,-0.086v-0.068l0.055,-0.044v-0.136l-0.117,-0.247l0.006,-0.099l0.136,-0.112l0.043,-0.21l-0.006,-0.117l0.074,-0.161l0.075,-0.031l0.018,-0.068l-0.105,-0.118v-0.093l-0.13,-0.092l-0.105,0.037l-0.105,-0.062l-0.006,-0.099l-0.075,-0.087l-0.111,-0.024l-0.05,-0.099l0.062,-0.075l-0.018,-0.092l-0.112,-0.05l-0.049,-0.093l0.056,-0.062l-0.019,-0.061l-0.068,-0.025l-0.025,-0.087l0.056,-0.056l-0.012,-0.068l-0.099,-0.055l-0.019,-0.068l0.056,-0.099l0.185,-0.037v-0.087l-0.086,-0.087l0.012,-0.086l0.043,-0.037l-0.006,-0.068l-0.068,-0.062l0.012,-0.105l0.168,-0.044l0.012,-0.099l-0.074,-0.13v-0.099l-0.155,-0.253l-0.223,-0.149l-0.148,-0.012l-0.161,-0.093l-0.062,-0.148l0.068,-0.161l-0.043,-0.062l-0.074,-0.012l-0.038,-0.062l0.149,-0.211l-0.043,-0.074l-0.112,-0.018l-0.043,-0.118l0.056,-0.099l-0.062,-0.118l-0.229,-0.21l-0.037,-0.099l0.049,-0.056h0.062l0.05,-0.037l-0.044,-0.111l0.062,-0.08h0.229l0.124,0.068l0.117,0.018l0.007,0.081h0.043l0.074,-0.075l0.186,-0.006l0.142,-0.117l0.173,0.018l0.081,0.099l0.068,0.044l0.08,-0.019l0.081,0.043l0.08,0.112l0.087,0.018l0.105,-0.099l0.272,-0.062l0.13,-0.092l0.303,-0.05l0.062,-0.161l-0.025,-0.111l-0.111,-0.149l-0.006,-0.092l0.16,-0.18l-0.006,-0.148l-0.074,-0.087v-0.241l0.148,-0.099l0.223,-0.254l0.062,-0.235l-0.031,-0.223l-0.099,-0.117l0.953,-0.767l0.105,0.142l0.006,0.142l0.149,0.149l0.111,0.099l0.155,0.018l0.111,-0.012l0.235,0.161l0.09,0.192l0.167,0.106l0.107,0.065l0.007,0.107l0.044,0.037l0.021,0.077l0.065,0.05l0.115,0.009l0.077,0.047l0.062,-0.01l0.055,-0.055l0.053,0.021l-0.022,0.09l0.034,0.025l0.106,-0.04l0.024,0.024l-0.034,0.099l0.115,0.105l0.006,0.059l-0.028,0.056l0.006,0.111l0.05,0.05l0.003,0.034l-0.031,0.031l0.009,0.037l0.238,0.213l-0.009,0.068l-0.049,0.025l0.003,0.037l0.037,0.034v0.037l-0.019,0.047l0.022,0.062l0.182,0.04l-0.003,0.04l-0.071,0.037l-0.003,0.087l0.331,0.221l0.139,0.028l0.139,0.162l-0.009,0.065l0.037,0.042l0.112,0.018l0.046,0.07l-0.014,0.111l0.047,0.042l0.083,0.014l0.028,0.042l-0.009,0.069l0.037,0.056l0.093,0.005l0.027,0.06l-0.046,0.065l0.023,0.032h0.074l0.038,0.051l-0.024,0.056l0.01,0.047l0.055,0.055l0.019,0.172l-0.019,0.204l0.051,0.023l0.116,-0.093l0.07,0.033l0.009,0.069l0.042,0.038l0.125,0.004l0.047,-0.032l0.037,0.009l0.028,0.065l0.348,0.121l0.157,-0.065l0.084,0.032l0.543,0.668v0.153l0.06,0.084l0.204,0.102l0.065,-0.014l0.042,0.065l-0.033,0.167l-0.074,0.107v0.083l0.084,0.07l0.227,0.056l0.176,0.06l0.149,0.107l0.12,0.004l0.098,-0.093l0.083,0.01l0.047,0.074l0.148,0.083l0.01,0.065l0.055,0.028l0.139,-0.032l0.038,-0.056h0.083l0.042,0.051l0.097,0.005l0.047,-0.023l0.06,0.009l0.213,0.144l0.07,0.009l0.135,0.005l0.134,0.051l0.07,-0.019l0.065,0.028l0.106,0.144l0.07,0.009l0.079,-0.056l0.097,0.019l0.056,0.111l0.311,0.112l0.083,-0.01l0.116,-0.125l0.093,0.005l0.149,0.102l0.204,0.051l0.232,-0.005l0.06,-0.102h0.07l0.111,0.13l0.2,0.065l0.125,0.116l0.093,0.028l0.023,-0.037l0.091,0.045h0.207l0.115,-0.053l0.015,-0.093l0.074,-0.052l0.115,-0.019l0.136,-0.108l0.093,-0.115l0.17,-0.031l0.077,0.016l0.102,-0.037l0.05,-0.074l0.158,0.006l0.092,0.071l0.217,0.065l0.046,0.086l0.056,0.013l0.077,-0.102l0.17,0.009l0.056,0.068l0.285,0.019l0.08,0.117l0.056,0.019l0.093,-0.045l0.153,-0.153l0.208,-0.112l0.548,-0.658v-0.098l0.074,-0.065l0.172,0.005l0.139,-0.074l0.102,-0.103l0.005,-0.157l0.088,-0.126l0.237,-0.157l0.334,-0.446l0.264,-0.074l0.237,0.019l0.106,0.111l0.112,0.005l0.427,-0.297l0.148,-0.191l0.009,-0.232l0.26,-0.306l0.381,-0.241l0.408,-0.139l0.52,-0.348l0.088,-0.01l0.06,-0.037l0.107,-0.241l0.301,-0.329l0.028,-0.098l0.07,-0.055l0.148,0.018l0.121,-0.056l0.102,-0.074l0.306,-0.069l0.413,-0.2l0.084,-0.093l0.821,-0.468l0.088,-0.005l0.241,-0.125l0.093,-0.135l0.126,-0.06l0.046,-0.116l0.204,-0.111l0.39,-0.084l0.181,0.065l0.153,-0.051l0.074,-0.111l0.186,-0.079l0.046,-0.084l0.107,-0.023l0.255,0.102l2.018,2.139l0.195,0.302l-0.042,0.06l-0.143,0.023l-0.506,0.26l-0.176,0.014l-0.274,0.12l-0.297,0.237l-0.093,0.121l-0.032,0.176l0.069,0.306l0.172,0.172l0.176,0.102l0.163,0.13l0.074,0.172l0.171,0.083l0.158,0.023l0.158,0.116l0.032,0.14l0.167,0.334l0.014,0.13l-0.065,0.157l-0.232,0.237l-0.153,0.093l-0.371,0.088l-0.158,-0.014l-0.194,0.014l-0.038,0.051l-0.06,0.018l-0.069,-0.013l-0.191,0.032l-0.06,-0.023l-0.051,0.018l-0.046,0.121l-0.019,0.116l-0.283,0.097l-0.065,-0.065l-0.07,0.01l-0.014,0.093l0.065,0.412l0.14,0.214l0.246,0.144l0.143,0.028l0.033,0.065l-0.019,0.069l0.028,0.033l0.111,-0.005l0.22,0.077l0.124,0.003l0.17,0.099l0.025,0.059l0.065,0.04l0.173,0.025l0.052,0.074l0.044,0.161l-0.044,0.099l0.01,0.189l0.071,0.068l0.136,0.022l0.077,0.08l0.062,0.148l0.025,0.106l0.099,0.055l0.25,0.053l0.14,-0.05l0.154,0.004l0.109,-0.056l0.185,-0.013l0.047,0.078l-0.007,0.142l0.099,0.195l0.146,0.037l0.077,0.065l0.022,0.155l0.315,0.324l0.093,0.044l0.139,0.232l0.009,0.096l0.093,0.151l0.173,0.115l0.121,0.003l0.043,0.031l0.22,-0.031l0.043,-0.059l0.084,-0.034l0.136,0.009l0.08,-0.04l0.106,-0.173l0.052,-0.031l0.065,0.006l0.037,-0.012l0.016,-0.05l0.077,-0.015l0.087,0.012l0.164,-0.031l0.198,0.053l0.049,0.052l0.05,-0.003l-0.01,0.229l-0.043,0.081l0.006,0.569l0.142,0.699l0.013,0.241l0.086,0.291l0.019,0.495l-0.031,0.167l0.019,0.117l0.061,0.081l0.007,0.117l-0.037,0.062l0.012,0.142l0.167,0.359l0.006,0.105l-0.043,0.106v0.29l0.099,0.291l0.204,0.254l0.012,0.142l-0.031,0.111l0.019,0.13l0.105,0.13l0.019,0.099l-0.007,0.105l0.099,0.167l0.365,0.409l0.588,0.507l0.644,0.396l0.835,0.365l0.829,0.198l1.076,0.124l1.095,0.061l0.279,-0.055l0.142,-0.105l0.148,-0.025l0.13,0.031l0.087,0.111l0.148,0.173l0.248,0.099l0.464,0.124l0.519,0.081l0.242,0.129l0.142,0.223l0.043,0.266l0.136,0.353l0.149,0.334l0.031,0.148l0.13,0.279l0.198,0.235l0.433,0.303l0.105,0.111l0.396,0.279l0.167,0.167l0.458,0.222l0.154,0.13l0.186,0.099l0.198,0.075l0.148,0.117l0.044,0.105l0.191,0.118l0.291,0.117l0.18,0.093l0.16,0.118l0.761,0.439l0.545,0.278l0.853,0.285l1.046,0.204l0.779,0.068l0.192,0.043l0.149,0.093l0.136,0.037h0.099l0.123,0.044l0.087,0.086l0.588,0.254l0.297,0.105l0.853,0.087l0.248,0.049l0.167,0.062l0.619,0.006l0.563,-0.08l0.791,-0.18l0.73,-0.229l0.582,-0.154l1.008,-0.223l0.99,-0.167l0.947,-0.179l1.027,-0.26l1.163,-0.371l0.597,-0.136l0.167,-0.033l0.246,0.009l0.241,-0.051l0.246,-0.088l0.139,-0.009l0.107,0.018l0.097,-0.004l0.283,-0.065l0.97,-0.102l1.211,-0.126l0.96,-0.106l0.26,-0.065l0.149,-0.061h0.125l0.074,0.075l-0.023,0.097l-0.065,0.028h-0.149l-0.334,0.042l-0.153,0.065l-0.584,0.069l-0.218,-0.009l-0.26,0.037l-0.107,0.074l-0.408,0.024l-0.325,-0.047l-0.149,0.009l-0.088,0.038l-0.218,0.009l-0.195,0.051l0.005,0.032l0.329,0.075h0.121l0.014,0.046l-0.084,0.042l-0.088,-0.005l-0.204,-0.042l-0.362,-0.014l-0.139,-0.032l-0.246,0.014l-0.037,0.06l0.125,0.139l0.172,0.112l0.028,0.065l0.083,0.055l0.163,0.01l0.069,-0.037l0.116,-0.005l0.158,0.065l0.613,-0.056l0.074,-0.069l0.102,-0.005l0.264,0.088l0.251,0.005l0.116,-0.037l0.255,0.014l0.167,0.027l0.385,0.01l0.195,-0.056l0.306,-0.009l0.344,-0.116l0.069,-0.098l0.037,-0.222l0.037,-0.474l-0.055,-0.362l-0.084,-0.097l-0.144,-0.019l0.005,-0.055l0.07,-0.121l0.018,-0.107l-0.042,-0.13l-0.199,-0.723l-0.311,-0.882l-0.13,-0.575l0.005,-0.13l0.028,-0.065l0.004,-0.051l2.125,0.199l0.26,-0.241l0.436,0.019l0.344,-0.084l0.408,-0.288l0.195,-0.167l0.519,-0.241l0.177,-0.028l0.352,0.121l0.205,-0.009l0.334,-0.353l0.185,-0.065l0.186,-0.186l0.083,-0.241l0.102,-0.306l-0.046,-0.158l-0.139,-0.055l-0.009,-0.186l0.204,-0.529l0.278,-0.38l0.492,-0.177l0.342,-0.352l0.139,-0.065l0.493,-0.641l0.408,-0.204l0.214,0.037l0.121,-0.046l0.12,-0.149l1.18,-0.529l0.278,-0.251l0.065,-0.112l0.13,-0.018l0.149,0.083l0.641,-0.167l0.659,-0.018l0.362,-0.121l0.465,0.028l0.353,0.195l0.241,0.018l0.139,-0.037l0.167,0.028l0.195,0.093l0.437,0.009l0.455,-0.083l0.325,-0.01l0.204,0.112l0.298,0.028l0.325,-0.065l0.176,0.046l0.111,-0.028l0.056,-0.241l-0.148,-0.455l0.092,-0.214l0.456,-0.39l0.501,-0.13l0.567,0.028l0.13,0.149l0.176,0.037l0.214,-0.167l0.25,-0.065l0.251,0.009l0.139,-0.093l0.112,0.009l0.158,0.167l0.78,0.307l0.371,0.046l0.112,-0.046l0.12,0.046l0.056,0.13l0.195,0.084h0.251l0.492,-0.474l0.084,-0.195l0.297,-0.093l0.251,0.065l0.074,0.103l-0.046,0.111l0.083,0.139l0.177,0.056l0.092,0.176l-0.046,0.214l0.102,0.177l0.204,0.102l0.233,0.39l-0.075,0.548l-0.074,0.12l0.046,0.093l0.632,0.335l0.121,-0.01l0.167,0.047l0.065,0.093l0.139,0.009l0.195,-0.102h0.251l0.251,0.111l0.603,-0.018l0.112,0.13l0.12,0.065l0.14,-0.038l0.148,0.075l0.019,0.13l0.111,0.065l0.288,-0.047l0.734,0.26l0.223,0.214l0.269,0.074l0.139,-0.037l0.418,0.139l0.158,-0.027l0.27,0.12l0.195,0.446l-0.047,0.186l0.047,0.121l0.492,0.102l0.148,-0.037l0.279,0.102l0.056,0.158l0.167,0.027l0.158,-0.065l0.362,-0.009l0.186,-0.148l0.13,-0.298l0.167,-0.055l0.251,0.111l0.139,0.204l0.622,0.242l0.167,-0.019l0.047,-0.13l0.12,-0.055l0.186,0.074l0.13,-0.056l0.028,-0.251l0.093,-0.037l0.39,0.242l0.306,0.037l0.66,0.297l0.26,0.065l0.901,0.669l0.325,0.065l0.343,-0.121l0.288,0.037l0.242,0.316l-0.056,0.213l0.037,0.075l0.112,0.009v0.102l-0.14,0.093l-0.018,0.167l0.111,0.567l0.084,0.093l0.13,0.018l0.074,0.065v0.158l0.316,0.297l-0.019,0.177l0.372,0.297l0.037,0.251l0.176,0.111l0.4,0.037l0.13,-0.102l0.39,0.046l0.111,0.112l0.149,0.046l0.102,-0.111l0.473,0.176l0.214,0.27l0.307,0.148l0.39,-0.009l0.408,0.167l0.288,0.334l0.093,0.353l0.474,0.66l0.281,0.218l0.32,0.404l0.063,0.223l0.25,0.446l0.279,0.334l1.692,0.014l0.523,0.056l2.967,-0.168l0.153,0.119l0.174,0.473l-0.048,0.307l-0.119,0.111l0.007,0.181l0.098,0.105l-0.014,0.104l-0.07,0.077l-0.014,0.118l0.056,0.063l-0.007,0.07l-0.153,0.132l-0.007,0.125l0.062,0.189v0.271l0.091,0.202l0.153,0.181l0.084,0.355l0.146,0.251l-0.056,0.362l0.077,0.119l-0.007,0.062l-0.105,0.021l-0.181,0.453l-0.097,0.063l-0.035,0.09l0.042,0.119l-0.021,0.167l-0.244,0.167l0.014,0.098l0.109,0.097l0.228,0.037l0.232,0.158l0.111,0.149l0.038,0.255l0.143,0.204l0.005,0.312l-0.079,0.102l-0.042,0.413l0.038,0.079l-0.126,0.218l-0.074,0.033v0.148l0.088,0.144l0.125,0.07l0.038,0.134l0.13,0.107l-0.024,0.328l0.07,0.132l-0.202,0.529l-0.104,0.091l-0.077,0.139l0.028,0.091l-0.042,0.097l-0.118,0.021l-0.105,0.153l0.042,0.105l-0.049,0.16l-0.069,0.091l-0.007,0.139l0.076,0.111l-0.014,0.14l-0.118,0.118l-0.098,0.021l-0.118,-0.021l-0.202,0.056l-0.063,0.181l0.014,0.188l0.105,0.07v0.125l-0.133,0.153l0.021,0.091l0.209,0.23l0.028,0.264l0.084,0.105l-0.021,0.083l-0.154,0.077l-0.09,0.272l0.056,0.195l-0.112,0.348l-0.118,0.083l-0.091,0.293l0.049,0.174l-0.035,0.509l-0.174,0.417l-0.188,0.168l-0.07,0.202v0.48l-0.111,0.126l-0.188,0.034l-0.112,-0.048l-0.132,0.048l-0.139,0.356l-0.314,0.195h-0.243l-0.46,0.111v0.105l0.383,0.313l0.244,0.446l0.062,0.257l0.425,0.481l-0.048,0.056l-0.244,-0.007l-0.328,-0.049l-0.557,0.021l-0.285,-0.021l-0.119,0.077l-0.083,0.257l-0.265,0.154l-0.411,0.438l-0.014,0.126l-0.125,0.139l-0.021,0.139l-0.105,0.202l-0.014,0.328l0.439,1.873l-0.23,0.537l0.028,0.661l0.195,0.293l0.467,0.292l0.418,0.126l1.212,0.035l0.285,0.181l-0.069,0.132l-0.321,-0.035l-0.181,0.147l0.042,0.167l0.007,0.285l-0.258,0.153l-1.26,1.247l-0.349,0.725l0.321,0.808l0.529,2.347l0.697,1.56l0.292,1.588l0.167,0.474l-0.264,0.947l-0.14,0.195l-0.014,0.195l0.07,0.209l-0.014,0.376l-0.084,0.265l-0.027,1.546l0.32,1.63l5.628,0.85l0.46,0.571l-0.061,0.371l0.027,0.288l-0.033,0.065l0.014,0.046l0.111,0.075l0.103,0.222l-0.019,0.107l0.051,0.209l0.102,0.144l0.028,0.102l-0.014,0.204l0.051,0.107l-0.005,0.097l-0.06,0.135l0.005,0.171l0.051,0.061l-0.005,0.046l-0.06,0.028l-0.039,0.063l-0.093,0.075l-0.086,0.037l-0.031,0.062l0.018,0.074l-0.031,0.093v0.086l0.062,0.093l0.006,0.074l-0.018,0.062l0.068,0.186l-0.006,0.074l-0.124,0.083l-6.022,6.932l0.185,0.214l-0.018,0.071l0.027,0.022l0.062,0.006l0.031,0.031l0.01,0.046l0.337,0.359l0.117,0.179l0.501,0.576l0.149,0.111l0.278,0.418v0.032l-0.018,0.033l0.037,0.162l-0.042,0.037l0.009,0.037l0.084,0.042l0.055,0.083l0.116,0.089l0.103,0.013l0.208,0.089l0.571,0.496l0.037,0.116l0.186,0.13h0.055l0.038,-0.037l0.051,0.009l0.046,0.07l0.037,0.195l0.042,0.046l-0.009,0.149l-0.038,0.041v0.051l0.038,0.047l-0.01,0.055l-0.041,0.028l-0.051,-0.014l-0.019,0.047l0.023,0.079l0.116,0.208l0.163,0.186l0.18,0.102l0.005,0.051l-0.065,0.111l0.005,0.251l0.065,0.107l0.065,0.014l0.037,-0.028l0.051,0.004l0.032,0.038l0.07,0.023l0.056,-0.014l0.032,0.032l-0.005,0.135l-0.032,0.042l0.009,0.055l0.084,0.098l0.13,0.074l0.032,0.107l-0.023,0.032l-0.107,0.019l-0.093,0.106l0.024,0.038h0.069l0.269,0.171l0.098,0.088l0.181,0.446v0.046l0.018,0.033l0.051,0.032l0.195,0.367l0.005,0.083l0.218,0.316l0.343,0.297l0.084,0.041l0.348,0.321l0.167,0.181l0.107,0.204l0.179,0.191l0.133,0.044l0.21,0.173l0.044,0.111l0.139,0.118l0.297,0.13l0.024,0.034l0.056,0.003l0.047,-0.019l0.074,0.007l0.105,0.034l0.218,0.162l0.121,0.032l0.153,-0.004l0.111,0.023l0.144,0.074l0.107,0.014l0.125,-0.005l0.102,0.033l0.399,0.186l0.186,0.023l0.12,0.051l0.283,0.023l0.121,0.037l0.079,0.06l0.093,0.024l0.134,-0.005l0.116,0.042l0.228,0.19l0.051,0.079l0.139,0.083l0.102,0.037l0.06,-0.009l0.042,0.033l0.014,0.06l0.046,0.07l0.01,0.069l0.051,0.116l0.083,0.042l0.362,0.339l0.13,0.167l1.299,-0.214l0.005,0.39l-0.218,1.655l0.45,1.786l0.125,2.134l-0.292,0.673l-0.061,0.065l-0.014,0.102l0.042,0.065l0.056,0.023l0.037,0.056l0.005,0.051l0.055,0.023l0.005,0.074l-0.084,0.223l-0.046,0.042l-0.178,0.032l0.003,0.041l0.05,0.015l0.188,0.195l0.093,0.037l0.152,0.006l0.12,-0.065l0.075,0.016l0.058,0.062l0.059,0.015l0.065,-0.018l0.034,0.012l0.022,0.037l0.12,0.049l0.103,-0.006l0.123,-0.046l0.019,-0.04l0.059,-0.016l0.071,0.013l0.058,-0.013l0.053,-0.037l0.161,-0.056l0.046,-0.046l0.044,-0.006l0.083,0.018l0.071,-0.009l0.099,-0.052l0.034,0.003l0.028,0.043l0.173,0.006l0.393,-0.145l0.115,-0.013l0.052,0.019l0.056,0.142l0.074,0.059l0.084,0.015l0.111,-0.009l0.093,0.019l0.043,0.043l0.074,0.043l0.341,0.672l-0.028,0.012l-0.037,-0.028l-0.037,-0.056l-0.072,-0.015l-0.043,0.025l-0.012,0.052l-0.028,0.013l-0.087,-0.031l-0.043,0.028v0.04l-0.034,0.018l-0.034,-0.003l-0.028,0.028l0.009,0.05l-0.021,0.037l-0.05,0.015l0.003,1.315l-0.087,0.041v0.022l0.017,0.015v0.029l-0.022,0.02v0.034l0.059,0.072l0.008,0.059l-0.025,0.118l-0.037,0.025l-0.338,0.027l-0.01,0.03l0.045,0.148l-0.005,0.182l0.032,0.067l0.061,0.012v0.022l-0.093,0.01l0.002,0.017l0.04,0.022l-0.003,0.138l-0.024,0.03l-0.003,0.037l0.059,0.118l-0.005,0.045l-0.029,0.019l-0.054,0.02l-0.008,0.079l0.079,0.148l-0.069,0.071l0.022,0.094l0.02,0.02l-0.005,0.019l-0.084,-0.002l-0.259,-0.03h-0.096l-0.037,0.015l-0.054,-0.002l-0.052,-0.022l-0.059,0.007l-0.042,0.062l-0.047,0.024l-0.088,0.008l-0.047,-0.023l-0.045,0.003l-0.032,0.03l0.003,0.034l-0.035,0.017l-0.081,-0.002l-0.145,-0.114l-0.136,-0.012l-0.032,-0.025h-0.039l-0.067,0.018l-0.118,0.007l-0.067,0.035l-0.103,0.012l-0.052,-0.035h-0.057l-0.052,0.028h-0.066l-0.04,-0.023h-0.064l-0.054,0.025l-0.059,0.002l-0.077,-0.017l-0.093,0.008l-0.03,-0.02l-0.027,0.002l-0.022,0.035l-0.03,-0.003l-0.071,-0.064l-0.052,-0.002l-0.015,0.017l-0.027,0.003l-0.012,-0.023l-0.037,-0.002l-0.054,0.047l-0.02,0.027l-0.049,-0.003l-0.05,-0.034h-0.069l-0.054,0.066l-0.064,0.023l-0.007,0.051l0.039,0.074l-0.022,0.01l-0.027,-0.01l-0.017,-0.029h-0.023l-0.032,0.032l-0.086,0.037l-0.049,-0.013l-0.04,0.01l-0.017,0.045l-0.03,0.007l-0.113,-0.074l-0.123,0.008l-0.03,0.022l-0.005,0.047l-0.027,0.019l-0.049,0.01l-0.062,0.04l-0.024,0.041l-0.104,0.028l-0.017,0.029l-0.035,0.012l-0.103,-0.017l-0.212,0.003l-0.151,0.049h-0.039l-0.044,-0.042h-0.067l-0.022,0.025l-0.059,0.012l-0.04,0.027l-0.042,0.005l-0.039,-0.017l-0.039,0.002l-0.062,0.04l-0.037,-0.005l-0.039,-0.027l-0.06,0.002l-0.009,0.02l0.014,0.025l-0.022,0.014h-0.037l-0.061,0.074l-0.013,0.087l-0.024,0.017l-0.084,-0.025h-0.047l-0.022,0.025l-0.047,0.002l-0.091,-0.042l-0.074,0.003l-0.05,0.069l-0.15,0.064l-0.118,0.01l-0.074,0.076l-0.025,0.119l0.042,0.032l0.057,-0.013l0.005,0.025l-0.018,0.022v0.049l-0.093,0.092l-0.008,0.051l-0.078,0.079l-0.183,-0.039l-0.005,0.019l0.045,0.062l-0.032,0.178l0.017,0.024l0.052,0.02l0.093,0.148l-0.007,0.047l-0.185,0.083l-0.027,0.146l0.027,0.042l0.106,0.052v0.037l-0.057,0.019l-0.106,0.015l-0.034,-0.017l-0.045,-0.064l-0.039,-0.003l-0.012,0.022l0.002,0.03l0.057,0.035l-0.013,0.046l-0.061,0.052l-0.03,0.089l0.02,0.064l-0.007,0.034l-0.072,0.082l-0.224,0.012l-0.106,-0.034h-0.062l-0.066,0.007l-0.267,-0.106l-0.027,-0.081l0.008,-0.042l-0.01,-0.042l-0.188,-0.131l-0.229,-0.052l-0.034,0.008l-0.022,0.054l0.022,0.084l-0.04,0.066l-0.074,0.032l-0.091,0.126l-0.108,0.02l-0.074,0.049l-0.045,0.069l-0.032,0.005l-0.029,-0.024l-0.032,0.002l-0.082,0.052l-0.172,0.01l-0.052,-0.047l-0.034,0.002l-0.05,0.087l-0.005,0.138l-0.189,0.425l-0.123,0.773l-0.055,0.036v0.102l0.047,0.06l-0.005,0.037l-0.046,0.014l0.004,0.033l0.075,0.041l-0.01,0.065l-0.041,0.037l-0.028,0.13l-0.028,0.061l-0.056,0.032l-0.004,0.056l0.046,0.079l0.023,0.269l0.065,0.028l0.084,-0.01l0.093,0.042l0.088,0.112l0.069,0.018v0.033l-0.12,0.037l-0.177,0.014l-0.074,0.092l-0.023,0.065l-0.042,0.033l0.009,0.046l0.103,0.04l0.055,0.118l-0.009,0.114l-0.074,0.059v0.118l0.04,0.133l-0.022,0.077l-0.052,0.043l-0.127,0.025l-0.037,0.05l-0.006,0.061l-0.056,0.031l-0.099,-0.006l-0.059,-0.055l-0.09,-0.031l-0.083,-0.007l-0.062,-0.049l-0.04,0.018l-0.031,0.072l0.009,0.068l-0.025,0.043l-0.083,0.037l-0.034,0.037l-0.012,0.056l-0.038,0.006l-0.043,-0.018l-0.018,0.03l0.027,0.075l-0.003,0.071l-0.096,0.062l-0.034,0.108l-0.052,1.166l-0.099,1.188l-0.235,0.928l-0.211,-0.005l-0.055,-0.037l0.014,-0.051l0.073,-0.042l-0.009,-0.037l-0.064,-0.009l-0.087,0.028l-0.209,0.042l-0.096,0.088l-0.095,0.023l-0.028,0.065l0.028,0.06l-0.028,0.079l-0.1,0.084l-0.022,0.088l0.041,0.088l-0.028,0.046l-0.159,0.033l-0.255,0.088l-0.036,0.074l0.018,0.047l0.073,0.051l-0.009,0.032h-0.064l-0.483,-0.162l-0.969,-0.274l-0.073,-0.07l-0.023,-0.102l-0.118,-0.148l-0.287,-0.126l-0.542,-0.148l-0.728,-0.162l-0.432,-0.079l-0.119,-0.065l-0.387,-0.088h-0.082l-0.109,-0.024l-0.082,-0.046l-0.591,-0.032l-0.21,-0.056l-0.05,-0.06l-0.004,-0.084l0.041,-0.019l0.04,0.051l0.037,0.005l0.009,-0.102l-0.064,-0.134l-0.095,-0.056l-0.005,-0.056l0.068,-0.125l0.014,-0.116l-0.064,-0.2l-0.113,-0.102l-0.228,-0.079l-0.26,-0.018l-0.232,0.051l-0.204,0.111l-0.137,0.139l-0.091,0.163l-0.023,0.107l0.018,0.102l0.06,0.037h0.127l0.1,0.055v0.102l0.037,0.061l0.095,0.06l0.005,0.051l-0.055,0.014l-0.155,-0.056l-0.077,-0.083l-0.118,-0.047l-0.319,-0.083l-0.214,-0.009l-0.091,-0.023l-0.114,-0.112l0.018,-0.051l0.055,-0.018l0.014,-0.07l-0.073,-0.097l-0.164,-0.028l-0.269,0.028l-0.186,0.088l-0.069,0.125l0.023,0.065l0.055,0.056l-0.018,0.037l-0.087,-0.01l-0.168,-0.06h-0.132l-0.155,-0.06l-0.068,-0.135l-0.114,-0.074l-0.232,-0.019l-0.401,0.024l-0.332,0.079l-0.228,0.069l-0.072,0.047l-0.073,-0.005l-0.214,-0.111l-0.032,-0.093l0.004,-0.079l-0.082,-0.06l-0.209,-0.028l-0.373,-0.005l-0.425,0.04l-0.212,0.056l-0.371,-0.012l-0.346,-0.13l-0.151,-0.149l-0.11,-0.173l-0.188,-0.087l-0.25,-0.012l-0.841,0.124l-0.272,0.105l-0.075,-0.019l-0.012,-0.105l-0.136,-0.099l-0.18,0.006l-0.247,0.155l-0.062,-0.031l0.087,-0.124l0.031,-0.099l-0.068,-0.006l-0.192,0.173l-0.012,0.143l-0.075,0.062l0.013,0.055l0.111,-0.018l0.204,-0.081l0.173,-0.037l0.099,-0.093h0.093l0.056,0.081l-0.025,0.062l-0.21,0.018l-0.186,0.043l-0.198,0.075l-0.173,0.093l-0.254,0.006l-0.383,-0.062l-0.322,-0.186l-0.371,-0.47l-0.334,-0.198l-0.198,-0.037l-0.198,-0.111l-0.056,-0.106l-0.154,-0.049l-0.427,0.037l-0.279,-0.009l-0.324,-0.093l-0.353,-0.028l-0.585,0.056l-0.325,-0.056l-0.25,-0.167l-0.288,-0.028l-0.501,0.028l-0.557,0.158l-0.185,0.139l-0.316,0.074l-0.232,-0.018l-0.389,-0.251l-0.325,-0.529l-0.158,-0.13l-0.269,-0.046l-0.371,0.093l-0.418,0.315l-0.083,0.01l-0.047,-0.186l0.056,-0.176l-0.028,-0.167l-0.241,-0.186l-0.251,-0.009l-0.167,0.074l-0.195,0.009l-0.232,-0.055l-0.38,-0.047l-0.306,0.019l-0.613,-0.121l-0.473,-0.148l-0.204,-0.186l-0.091,-0.155l-0.085,-0.578l-0.251,-0.51l-0.232,-0.149l-0.186,-0.371l0.01,-0.297l0.195,-0.362v-0.139l-0.149,-0.195l-0.353,-0.316l-0.092,-0.25l-0.037,-0.39l-0.288,-0.436l-0.121,-0.445l0.009,-0.251l0.13,-0.288l-0.009,-0.621l-0.139,-0.761l-0.306,-0.845l-0.195,-0.238l-0.226,-0.182l-0.167,-0.406l0.022,-0.052l0.102,-0.013l0.083,-0.148l-0.028,-0.043l-0.145,-0.034l-0.127,0.028l-0.145,-0.065l-0.149,-0.22l-0.108,-0.254l-0.297,-0.278l-0.031,-0.093l-0.198,-0.086l-0.192,-0.019l-0.377,-0.105l-0.136,0.012l-0.173,-0.031l-0.118,-0.074l-0.192,-0.012l-0.099,0.024l-0.148,-0.006l-0.161,-0.043l-0.198,-0.006l-0.068,0.024l-0.204,-0.006l-0.433,-0.142h-0.278l-0.532,0.105l-0.242,0.124l-0.068,0.093l-0.099,0.006l-0.117,-0.093l-0.235,-0.019l-0.155,0.038l-0.173,0.136l-0.081,0.179l-0.222,0.124l-0.198,0.006l-0.192,0.105l-0.019,0.112l-0.049,0.049l-0.093,-0.006l-0.074,0.062v0.093l-0.124,0.068l-0.155,0.024l-0.08,-0.037h-0.111l-0.137,0.081l-0.593,0.099l-0.112,0.117l-0.111,0.019l-0.316,-0.081l-0.105,0.013l-0.111,0.117l-0.217,0.056l-0.229,0.155l-0.018,0.08l0.025,0.105l-0.192,0.575l0.006,0.118l-0.043,0.105l-0.161,0.062l-0.427,0.309l-0.229,0.025l-0.402,-0.049l-0.204,-0.167l-0.223,-0.031l-0.328,0.018l-0.173,0.093l-0.111,0.198l-0.112,0.099l-0.198,0.025l-0.136,0.049l-0.049,0.074l-0.074,0.038l-0.155,0.012l-0.155,0.105l-0.08,0.21l-0.112,0.075l-0.154,0.037l-0.198,0.111h-0.112l-0.099,0.062l-0.142,0.161l-0.253,0.117l-0.081,0.075l-0.086,0.13l-0.229,0.167h-0.118l-0.111,0.03l-0.118,0.13l-0.099,0.013l-0.136,-0.056l-0.359,-0.062h-0.185l-0.266,0.099l-0.167,-0.062l-0.223,-0.445l-0.217,-0.155l-0.191,-0.024l-0.322,0.074l-0.291,-0.031l-0.272,-0.136l-0.309,-0.607l-0.279,-0.173l-0.216,-0.018l-0.402,0.092l-0.446,-0.03l-0.445,-0.143l-0.155,-0.099l-0.223,-0.049l-0.222,0.031l-0.192,0.179l-0.124,0.031l-0.148,-0.019l-0.155,0.019l-0.148,0.08h-0.192l-0.334,-0.086h-0.143l-0.129,0.08l-0.093,0.006l-0.118,-0.086l-0.068,-0.111l-0.637,-0.279l-0.606,-0.439l-0.112,-0.186l-0.006,-0.501l-0.074,-0.235l-0.136,-0.105l-0.291,-0.08l-0.328,-0.05l-1.602,-0.637l-0.21,-0.037l-0.848,-0.322l-0.786,-0.439l-0.253,-0.254l-0.316,-0.204l-0.167,-0.043l-0.21,-0.118l-0.056,-0.111l-0.303,-0.254l-0.142,-0.068l-0.272,-0.223l0.006,-0.086l0.117,-0.074l0.229,-0.007l0.13,0.044l0.105,-0.019l0.068,-0.093l-0.006,-0.247l-0.142,-0.074l-0.112,0.006l-0.198,-0.087l-0.216,-0.179l-0.093,-0.175l-0.441,-0.557l-0.348,-0.274l-0.529,-0.106l-0.454,-0.149l-0.344,-0.06l-0.519,-0.306l-0.52,-0.501l-0.139,-0.232l-0.195,-0.093h-0.418l-0.25,0.065l-0.232,-0.009l-0.278,-0.065l-0.492,0.009l-0.158,0.065l-0.39,0.028l-0.185,-0.065l-0.362,-0.056l-0.367,-0.278l-0.209,-0.047l-0.097,0.047l-0.102,-0.042l-0.288,-0.381l-0.069,-0.027l-0.061,0.014l-0.028,0.143l-0.111,0.01l-0.111,-0.075l-0.163,-0.645l-0.297,-0.626l-0.051,-0.005l-0.041,0.084l0.074,0.487l0.083,0.088l-0.023,0.051l-0.097,-0.023l-0.088,-0.111l-0.047,-0.344l-0.144,-0.204l0.01,-0.366l0.092,-0.288l-0.004,-0.199l-0.817,-1.035l-0.459,-0.956l-0.112,-0.585l-0.018,-0.816l-0.32,-0.65l-0.042,-0.292l-0.107,-0.042l-0.311,0.116l-0.361,-0.023l-0.26,-0.186l-0.325,-0.542l0.014,-0.297l0.06,-0.158l0.084,-0.009l0.134,0.088l0.112,-0.005l0.078,0.079l-0.023,0.083l0.102,0.047l0.144,-0.102l0.051,-0.251l-0.014,-0.496l-0.222,-0.255l-0.353,-0.177l-0.39,-0.037l-0.408,0.116l-0.26,-0.051l-0.158,-0.25l-0.004,-0.395l0.074,-0.236l0.172,-0.163l0.004,-0.162l-0.139,-0.112l-0.073,-0.236l0.031,-0.458l-0.154,-0.483l-0.242,-0.321l-0.185,-0.081l-0.056,0.037l0.037,0.106l0.204,0.179l-0.04,0.028l-0.26,-0.158l-0.371,-0.492l-0.046,-0.213l-0.232,-0.251l-0.371,-0.195l-0.687,-0.751l-0.121,-0.297l-0.195,-0.288l-0.371,-0.325l-0.288,-0.315l-0.083,-0.223l0.037,-0.371l-0.018,-0.38l-0.149,-0.52l-0.195,-0.316l-0.213,-0.157l-0.371,-0.093l-0.39,0.028l-0.687,0.371l-1.355,0.928l-0.38,0.241l-0.112,-0.009l-0.306,-0.325l-0.018,-0.167l0.13,-0.158l0.009,-0.232l-0.195,-0.204l-0.408,-0.083l-0.158,0.055l-0.176,0.028l-0.14,-0.046l-0.259,0.028l-0.418,0.12l-0.093,-0.046l-0.009,-0.204l0.046,-0.102l-0.037,-0.158l-0.093,-0.056v-0.102l0.121,-0.223l-0.018,-0.167l-0.205,-0.417l0.028,-0.177l-0.037,-0.185l0.084,-0.176l0.13,-0.028l0.027,-0.075l-0.092,-0.037l-0.167,0.028l-0.186,-0.083l-0.111,-0.186l-0.177,-0.028l-0.195,0.037l-0.037,0.084l0.075,0.074l-0.056,0.074l-0.297,0.01l-0.158,0.046l-0.12,0.139l-0.13,0.009l-0.232,-0.092l-0.223,0.028l-0.269,0.157l-0.177,0.409l0.038,0.343l0.167,0.195l0.111,0.018l0.111,0.149l0.01,0.167l0.083,0.269l-0.056,0.445l0.01,0.353l-0.074,0.223l-0.149,0.083l-0.037,0.13h-0.139l-0.381,-0.102l-0.529,-0.009l-0.334,0.065l-0.093,0.157v0.307l-0.102,0.102l-0.111,0.037l-0.154,-0.057l-0.106,0.038l-0.111,-0.092l-0.455,-0.14l-0.343,-0.195l-0.112,-0.176l-0.037,-0.334l-0.12,-0.232l-0.26,-0.176l-0.028,-0.149l0.204,-0.259l-0.018,-0.158l-0.873,-0.993l-0.12,-0.065l-0.121,0.009l-0.121,0.112h-0.102l-0.092,-0.103l-0.084,-0.491l-0.121,-0.195l-0.361,-0.177l-0.548,-0.176l0.046,-3.795h-2.301v-2.784l1.225,-2.846l-0.074,-0.26l-0.093,-0.086l-0.223,-0.105l-0.049,-0.118l0.043,-0.118l-0.037,-0.08l-0.074,-0.019l-0.056,-0.037l0.006,-0.08l-0.055,-0.05l-0.112,-0.024l-0.173,-0.186l-0.099,-0.241l-0.019,-0.26l-0.092,-0.099l-0.099,-0.019l-0.217,-0.228l0.019,-0.167l-0.056,-0.056l-0.111,-0.043l-0.18,-0.174l-0.192,0.013l-0.099,-0.05l-0.179,-0.278l0.025,-0.093l0.198,-0.161l0.037,-0.136l-0.087,-0.142l-0.117,-0.019l-0.217,-0.272l0.074,-0.148l-0.055,-0.081l-0.223,-0.08l-0.167,-0.235l-0.012,-0.118l0.074,-0.093l0.012,-0.136l-0.476,-0.513l-0.39,-0.087l-0.229,-0.124l-0.099,0.013l-0.105,0.142l-0.21,0.062l-0.415,0.037l-0.804,-0.495l-0.117,-0.148l-0.396,-0.279l-0.551,-0.352l-0.322,-0.279l-0.031,-0.13l-0.074,-0.062l-0.148,-0.074l-0.05,-0.043l-0.062,-0.136l-0.371,-0.378l-0.241,-0.092l-0.439,-0.186l-0.186,-0.216l-0.08,-0.019l-0.44,-0.34h-0.111l-0.093,-0.05l-0.136,-0.111l-0.408,-0.198l-0.161,0.006l-0.13,-0.037l-0.223,-0.093l-0.389,-0.018l-0.576,0.111l-0.266,-0.025l-0.253,-0.179l-0.025,-0.173l0.074,-0.106l0.149,-0.006l0.061,-0.08l0.019,-0.105l0.105,-0.13l-0.025,-0.068l-0.136,0.012l-0.105,-0.025l-0.074,-0.08l-0.142,-0.031h-0.136l-0.112,-0.05l0.05,-0.197l0.142,-0.025l0.21,0.055l0.13,-0.012l0.217,-0.142l0.062,-0.124l0.284,-0.285l-0.018,-0.055l-0.118,-0.006l-0.037,-0.112l0.062,-0.272l-0.068,-0.08l-0.112,-0.037l-0.334,-0.285l-0.006,-0.105l-0.049,-0.087l-0.13,-0.08l-0.05,-0.112l-0.031,-0.179l-0.111,-0.099l-0.105,-0.217l0.031,-0.092l-0.105,-0.266l-0.056,-0.013l-0.062,-0.074l0.006,-0.142l-0.086,-0.025l-0.186,0.056l-0.099,0.136h-0.068l-0.08,-0.05l-0.174,-0.018l-0.167,0.018l-0.031,-0.043l0.501,-0.359l0.062,-0.099l-0.092,-0.222l-0.174,-0.087l-0.049,-0.074l0.037,-0.136l-0.062,-0.05l-0.247,0.019l-0.149,0.055l-0.13,-0.031l-0.086,0.031l-0.05,0.081l-0.291,0.148l-0.043,-0.043l0.105,-0.161l-0.031,-0.111l-0.284,-0.161l-0.198,-0.235l-0.124,-0.068l-0.13,-0.174l-0.086,-0.049l-0.019,-0.136l0.043,-0.081l-0.086,-0.197l-0.174,-0.112l-0.142,-0.21l-0.037,-0.149l-0.204,-0.352l-0.161,-0.155l-0.049,-0.161l-0.093,-0.055l-0.384,0.024l-0.093,-0.031l-0.086,-0.13l0.055,-0.148l0.266,-0.179l0.093,-0.18l-0.037,-0.173l0.056,-0.13l0.322,-0.291l0.29,-0.167l0.044,-0.117l-0.155,-0.217l0.012,-0.093l0.087,-0.111l0.068,-0.235l0.012,-0.347l-0.055,-0.167l-0.211,-0.235l-0.167,-0.018l-0.074,0.012l-0.019,0.068l-0.068,0.019l-0.173,-0.303l-0.08,-0.365l-0.093,-0.136l0.006,-0.13l0.136,-0.087l0.266,0.025l0.087,-0.05l0.037,-0.396l-0.068,-0.099l0.006,-0.061l0.056,-0.075l0.043,-0.247l0.056,-0.025l0.105,0.056l0.13,0.229l0.179,0.08h0.18l0.099,-0.056h0.253l0.254,0.143h0.124l0.037,-0.068l-0.019,-0.254l-0.074,-0.037l-0.043,-0.124l0.043,-0.124l-0.099,-0.34l-0.08,-0.006l-0.044,-0.062l0.025,-0.111l-0.056,-0.099l-0.198,-0.081l-0.006,-0.086l0.112,-0.099l0.031,-0.167l0.111,-0.093l0.018,-0.105l-0.055,-0.124l0.043,-0.13l0.179,-0.099l0.211,0.037l0.13,-0.043l0.111,-0.167l-0.006,-0.235l-0.043,-0.118l0.055,-0.043l0.167,0.012l0.204,0.124l0.087,-0.037l0.037,-0.229l0.087,-0.111l0.062,-0.013l0.031,-0.092l-0.044,-0.291l-0.086,-0.093l-0.019,-0.155l0.161,-0.105l0.179,0.019l0.031,-0.056l-0.043,-0.099v-0.179l0.118,-0.007l0.346,0.18l0.13,-0.025l0.173,0.124l0.192,0.037l0.037,-0.08l-0.025,-0.155l0.074,-0.074l0.236,0.086l0.297,-0.08l0.142,-0.118l-0.006,-0.08l-0.155,-0.118l-0.019,-0.198l0.124,-0.185l0.111,-0.025l0.025,-0.105l-0.086,-0.186l-0.334,-0.043l-0.118,-0.043v-0.075l0.229,-0.191l0.049,-0.149l-0.198,-0.328l-0.284,-0.191l-0.328,-0.365l-0.309,-0.601l0.012,-0.136l0.08,-0.191v-0.124l-0.16,-0.204l0.049,-0.044l0.21,0.062l0.075,-0.018l0.018,-0.05l-0.08,-0.136l-0.062,-0.278l0.056,-0.18l-0.025,-0.092l0.049,-0.087l0.081,-0.025l0.068,-0.117h0.105l0.062,0.074l0.291,0.031l0.092,-0.056l0.118,0.006l0.093,0.056l0.105,-0.012l0.062,-0.137l0.179,-0.074l0.149,0.025l0.278,-0.068l0.074,-0.062l0.075,-0.117l0.08,-0.081l0.179,-0.018l0.087,-0.211l-0.012,-0.173l-0.062,-0.043l-0.124,-0.006l-0.118,-0.093l-0.08,0.006l-0.062,0.105l-0.167,0.062l-0.08,-0.019l-0.087,0.013l-0.043,0.074l-0.074,0.012l-0.118,-0.062l-0.093,-0.012l-0.049,0.056l-0.112,-0.037l-0.105,-0.124l0.013,-0.099l-0.056,-0.068l-0.149,-0.019l-0.092,-0.062l-0.273,0.013l-0.08,0.099l-0.142,0.031l-0.371,-0.019l-0.081,0.093l-0.142,0.006l-0.081,-0.068l-0.16,-0.012l-0.081,0.055l0.006,0.093l-0.062,0.031l-0.129,-0.025l-0.223,-0.006l-0.093,-0.068l-0.062,0.019l-0.025,0.074l-0.123,0.012l-0.031,0.056l-0.068,0.006l-0.105,-0.222l-0.31,-0.446l-0.105,-0.062l-0.148,-0.229l-0.638,-0.476l-0.16,-0.037l-0.056,0.037h-0.099l-0.093,-0.056h-0.155l-0.08,0.062h-0.056l-0.068,-0.037l-0.086,0.019l-0.05,0.086l-0.117,0.074l-0.149,0.007l-0.062,-0.062h-0.055l-0.037,0.043l-0.081,-0.012l-0.043,-0.124l0.025,-0.155l0.185,-0.259l0.025,-0.279l-0.068,-0.142l-0.112,-0.056l-0.08,-0.142l-0.074,-0.043l-0.013,-0.087l0.025,-0.099l-0.025,-0.21l0.05,-0.106l-0.019,-0.111l-0.173,-0.173l-0.185,-0.037v-0.074l0.136,-0.075l0.018,-0.08l-0.161,-0.161h-0.074l-0.049,-0.062l0.037,-0.142l0.117,-0.05l0.006,-0.08l-0.049,-0.105l-0.031,-0.279l-0.179,-0.253l-0.106,-0.037l-0.371,0.074l-0.08,0.037l-0.025,0.074l-0.08,0.025l-0.223,-0.05l-0.167,-0.142l-0.025,-0.136l-0.049,-0.093l-0.074,-0.043l-0.044,-0.105l0.019,-0.155l-0.05,-0.062l-0.241,-0.099l-0.049,-0.154l0.037,-0.112l0.148,-0.024l0.062,-0.118l-0.093,-0.148l0.031,-0.087l0.204,-0.099l0.05,-0.136l-0.037,-0.415l-0.211,-0.352l-0.142,-0.118l-0.136,0.006l-0.124,-0.031l-0.111,-0.167l-0.13,-0.037l-0.155,0.031l-0.291,-0.031l-0.086,0.044l-0.081,-0.019l-0.061,-0.155l0.043,-0.167l0.155,-0.173l0.198,-0.068l0.055,-0.074l-0.006,-0.093l0.062,-0.198l0.006,-0.155l-0.099,-0.154l-0.08,-0.044l-0.019,-0.086l0.074,-0.297l0.068,-0.062l-0.006,-0.117l-0.099,-0.081l-0.093,0.012l-0.08,-0.037l-0.037,-0.08l-0.093,-0.025l-0.111,0.043l-0.124,-0.024l-0.031,-0.105l-0.062,-0.087l-0.086,-0.031l-0.013,-0.068l0.044,-0.043l-0.031,-0.068l-0.192,-0.106l0.012,-0.092l0.105,-0.056l0.093,-0.105z"/>
</svg>
