<svg xmlns="http://www.w3.org/2000/svg" viewBox="955.230 229.906 72.881 35.041">
  <path d="M1026.757225,248.123555l0.021712,-0.031031l0.027916,0.012412l0.009305,0.04034l-0.021712,0.04034l-0.034119,-0.003103l-0.003102,-0.058959Z M1027.185263,248.097179l0.009305,0.032583l0.046526,0.009309l0.046526,-0.027928v-0.032583l-0.055831,-0.009309l-0.046526,0.027928Z M1027.90021,247.335365l0.034119,0.003103l0.021712,-0.04034l-0.009305,-0.04034l-0.027916,-0.012412l-0.021712,0.031031l0.003102,0.058959Z M1022.685776,238.553656v0.024728l0.024717,0.014837l0.022245,-0.014837l-0.012358,-0.024728h-0.034604Z M1008.835466,230.552186l0.034604,-0.012364l-0.017302,-0.024728h-0.051905l-0.012358,0.027201l0.046962,0.009891Z M999.08985,234.418663l0.052729,0.068268h0.074441l0.130272,-0.012412l0.046526,-0.043444l0.024814,-0.062062l-0.006203,-0.04965l-0.127171,-0.012412l-0.111662,0.021722l-0.083747,0.08999Z M1002.467655,234.930687l-0.010216,0.043391l0.03342,0.008756l0.029497,-0.021127l-0.020757,-0.034484l-0.031945,0.003464Z M1004.140571,232.907545v0.024728l0.024717,0.014837l0.022245,-0.014837l-0.012358,-0.024728h-0.034604Z M998.38886,230.350484l0.062034,-0.015516l0.034119,-0.111712l-0.040322,-0.096196l-0.210917,-0.220321h-0.049628l-0.003102,0.034134l0.049628,0.062062l-0.01861,0.043444l-0.065136,0.018619v0.052753l0.037221,0.096196l0.031017,0.024825l0.046526,0.006206l0.086848,0.043444l0.040322,0.062062Z M959.029573,249.177633l0.027915,0.113642l0.060484,0.066291l0.069298,0.045624l0.098195,0.172189l0.01861,0.113642l0.037221,0.033145l0.074441,-0.00947l0.227976,0.047351l0.297765,0.113642l0.041873,0.061556l0.12562,0.01894l0.139577,-0.085231l0.16284,-0.023675h0.107009l0.107009,-0.033145l0.176798,-0.023675l0.14423,0.023675l0.195408,0.014205l0.037221,-0.052086l-0.037221,-0.075761l0.013958,-0.066291l0.139577,-0.104172v-0.042616l-0.055831,-0.047351v-0.080496l0.046526,-0.085231l0.088399,-0.023675l0.069789,-0.075761l0.139577,-0.052086l0.260545,-0.014205l0.283807,0.01894l0.279155,0.118377l0.139577,0.00947l0.223324,-0.061556l0.069789,-0.094701l-0.004653,-0.085231l0.055831,-0.099436l0.107009,-0.042616l0.544352,0.014205l0.28846,0.052086l0.43269,0.099436l0.246587,0.047351l0.097704,0.047351l0.274502,0.014205l0.12562,-0.014205l0.097704,0.01894l0.055831,0.047351l0.083746,0.004735l0.148883,-0.075761l0.120967,-0.01894l0.120967,0.014205l0.130272,0.075761l0.116315,0.00947l0.097704,0.02841l0.107009,-0.004735l0.14423,-0.066291l0.176798,-0.004735l0.153535,0.056821l0.255892,0.023675l0.130272,0.02841l0.237282,0.108907l0.12562,0.080496l0.037221,-0.014205l-0.023263,-0.061556l-0.083746,-0.02841l-0.218671,-0.099436l-0.051178,-0.061556v-0.047351l0.051178,-0.01894l0.088399,0.023675l0.130272,-0.033145l0.083746,-0.047351l0.087994,-0.012782l0.205119,0.093278l0.01861,0.052086l-0.051178,0.071026l0.009305,0.037881l0.083746,0.014205l0.069789,-0.047351l0.083746,0.004735l0.027915,0.042616l-0.037221,0.047351l-0.074441,0.033145l-0.111662,-0.004735l-0.14423,-0.033145l-0.051178,0.023675l0.037221,0.037881h0.111662l0.088399,0.056821h0.107009l0.130272,-0.071026h0.120967l0.116315,0.042616l0.102357,-0.00947l0.060484,-0.042616l-0.037221,-0.02841l-0.069789,0.033145l-0.083746,-0.004735l-0.031017,-0.023675l0.024814,-0.047351l0.310172,-0.208343l0.117865,-0.034724l0.048077,0.029989l0.013958,0.052086l0.069789,0.01894l0.134925,-0.061556l0.097704,-0.075761l0.051178,0.014205l0.032244,0.086953l0.163165,0.003013l0.065136,-0.094701l0.046526,0.004735l0.037221,0.075761l-0.055831,0.080496l-0.134925,0.085231h-0.102357l-0.041873,0.052086l0.060484,0.01894l0.134925,-0.023675l0.102357,-0.071026l0.037221,0.023675l-0.060484,0.118377l-0.116315,0.080496l-0.074441,0.01894l0.004653,0.056821l0.120967,0.037881l0.083746,-0.089966l0.083746,-0.02841l0.093052,0.033145l0.088399,0.004735l0.167493,-0.033145l0.195408,0.099436l0.037221,0.099436l-0.148883,0.075761l-0.037221,0.066291l0.051178,0.047351l-0.013958,0.066291l-0.051178,0.033145l-0.027915,0.080496l-0.079094,0.004735l-0.060484,-0.047351l-0.069789,0.014205l-0.004653,0.071026l0.023263,0.099436l-0.079094,0.118377l-0.130272,0.02841l-0.027915,0.056821l-0.041873,0.146787l0.051178,0.014205l0.102357,-0.080496l0.069789,-0.099436l0.251239,-0.118377l0.037221,0.02841l-0.023263,0.061556l0.004653,0.151522l-0.074441,0.198873l-0.116315,0.094701l-0.088399,0.004735l-0.14423,-0.085231l-0.190756,-0.052086l-0.032568,-0.061556l0.051178,-0.047351l-0.013958,-0.037881l-0.083746,0.014205l-0.032568,0.056821l0.037221,0.089966l0.209366,0.071026l0.172145,0.094701l0.023263,0.056821l-0.013958,0.052086l0.153535,0.118377h0.097704l0.032568,0.042616l-0.065136,0.123112l-0.032568,0.179933l0.046526,0.037881l0.062337,0.008696l0.012104,0.038655l-0.055831,0.075761l0.023263,0.113642l0.12562,0.042616l0.204714,-0.042616l0.074892,-0.076696l0.050862,-0.029992l0.099821,-0.010364l0.099134,-0.088784l0.047498,0.006963l-0.011809,0.061643l-0.071937,0.070939l0.01861,0.052086l0.078375,0.014113l0.005371,0.037973l-0.084703,0.07601l-0.120011,0.026583l-0.049628,-0.025254l-0.012407,0.015784l0.034119,0.044194l0.127171,-0.012627l0.136476,-0.034724l0.037221,-0.037881l0.062034,0.023675v0.052086l-0.069789,0.047351l0.004653,0.052086l0.102357,0.023675l-0.004653,0.056821l-0.088399,0.033145l-0.037221,0.127847l-0.012407,0.119955l-0.062034,0.050507l-0.012407,0.078918l0.021712,0.059978l0.068238,0.056821h0.037221l0.027915,-0.069448l-0.040322,-0.091545l0.024814,-0.088388l0.046526,0.003157l0.012407,0.059978l0.037221,0.014205l0.060484,-0.01894l0.032568,0.037881l-0.023263,0.099436l0.079094,0.108907l0.093052,0.047351l0.130272,-0.01894l0.032568,0.02841l-0.041873,0.056821l-0.060484,0.00947l0.01861,0.037881l0.079094,-0.004735l0.102357,-0.108907l0.260545,-0.004735l0.079094,-0.052086l0.055831,-0.203608l-0.023263,-0.075761l0.032568,-0.061556l0.116315,-0.014205l0.032568,-0.071026l-0.009305,-0.170463l0.013958,-0.151522l0.183001,-0.244645l0.037221,-0.006313l0.027915,0.078918l-0.048077,0.148366l-0.088399,0.071026l-0.013958,0.094701l0.046526,0.099436l0.055831,0.014205l0.153535,-0.080496h0.088399l0.069789,-0.033145l0.041873,-0.123112l0.088399,-0.061556l0.127171,-0.006313l0.080645,-0.078918l0.055831,0.006313l0.003102,0.094701l0.068238,-0.006313l0.099255,-0.173619l0.055831,-0.006313l0.037221,0.075761l0.055831,-0.012627l0.031017,-0.104172l0.210917,-0.116798l0.232629,-0.047351l0.151984,0.015784l0.012407,0.056821l-0.241934,0.274634l-0.099255,0.047351l0.009305,0.034724l0.124069,-0.006313l0.10856,0.022097l0.003102,0.066291l-0.068238,0.037881l-0.186103,0.006313l-0.245036,0.069448l-0.136476,-0.006313l-0.055831,-0.025254l-0.062034,0.041037l-0.065136,0.097858l-0.195408,0.044194l-0.049628,0.041037l-0.037221,-0.031567l0.01861,-0.050507l-0.049628,-0.00947l-0.021712,0.037881l0.024814,0.078918l-0.102357,0.075761l-0.093052,0.157836l-0.034119,0.224127l-0.037221,0.031567l-0.009305,0.170463l-0.07134,0.037881l-0.012407,-0.050507l0.031017,-0.107328l-0.034119,-0.025254l-0.046526,0.044194l-0.024814,0.195716l0.006203,0.082075l-0.068238,0.101015l-0.031017,0.104172l-0.055831,0.015784l0.003102,0.047351l0.327231,0.213078l0.056969,0.005017l0.010787,-0.021956l-0.035188,-0.058821l0.083746,-0.085231l0.344291,-0.037881l0.14423,0.056821v0.056821l0.060484,0.004735l0.076618,-0.062692l0.051238,-0.005489l0.04429,0.039771l-0.013958,0.047351l-0.060484,0.00947l-0.037221,0.033145l0.041873,0.02841l-0.032568,0.042616l-0.204714,0.01894l-0.074441,-0.033145l-0.251239,0.042616l-0.107294,-0.023334l-0.072812,0.024701l-0.033913,0.093334l-0.049685,0.024681l-0.026967,0.032934l0.002211,0.070232l-0.042662,0.042294l-0.110873,0.047672l-0.009305,-0.047351l0.059454,-0.040809l-0.012929,-0.034952l-0.083746,0.037881l-0.060484,0.113642l-0.102357,0.061556l-0.176798,0.094701l-0.079094,0.094701l0.051178,0.033145l0.130272,-0.047351l0.153535,0.047351l0.069789,0.108907l0.325681,0.037881l0.120967,-0.047351l0.372206,-0.023675l0.744413,-0.374071l0.16284,-0.213078l0.088399,-0.033145h0.079094l0.083746,-0.056821l0.046526,-0.099436l0.255892,-0.132582l0.302418,-0.104172l0.344291,-0.01894l0.148883,0.071026l0.255892,0.052086l0.474563,-0.061556l0.148883,0.033145l0.065136,0.085231l-0.023263,0.056821l-0.190756,0.042616l-0.041873,0.042616l0.074441,0.033145l0.14423,-0.023675l0.079094,-0.080496l0.046526,-0.061556l0.130272,-0.047351l0.214019,0.023675l0.01861,0.047351l-0.065136,0.023675l-0.158188,0.014205l-0.167493,0.094701l-0.004653,0.042616l0.037221,0.033145l-0.009305,0.037881l-0.172145,0.037881l-0.172145,-0.004735l-0.158188,-0.042616l-0.041873,-0.047351h-0.060484l-0.069789,0.01894l-0.134925,0.00947l-0.172145,-0.02841l-0.032568,-0.056821l0.051178,-0.037881l-0.01861,-0.042616h-0.134925l-0.111662,0.066291l-0.153535,0.037881l-0.120967,0.066291l-0.218671,0.047351l-0.013958,0.047351l0.074441,0.075761l0.218671,-0.00947l0.065136,0.037881l-0.009305,0.037881l-0.107009,0.042616h-0.186103l-0.097704,-0.033145l-0.079094,0.004735l-0.200061,-0.037881l-0.046526,0.014205l-0.032568,0.056821l-0.167493,0.094701l-0.265197,0.246224l-0.209366,0.118377l-0.294663,0.3646l-0.031017,0.126269l-0.124069,0.094701l0.006203,0.075761l0.148883,0.006313l0.155086,-0.094701l0.130272,-0.012627l0.117865,0.050507l0.024814,0.107328l-0.074441,0.132582l0.024814,0.050507l0.173696,-0.01894l0.260545,0.044194l0.254341,-0.031567l0.043424,0.037881l-0.241934,0.069448l-0.136476,-0.012627l-0.012407,0.063134l0.037221,0.056821l-0.055831,0.094701l0.068238,0.031567l0.099255,-0.044194l0.223324,-0.01894l-0.012407,0.050507l-0.229527,0.094701l-0.124069,0.082075l-0.297765,0.025254l-0.068238,0.101015l0.004362,0.077734l-0.046962,0.015093l-0.106282,-0.143335l-0.193631,-0.0473l-0.184779,0.06624l-0.167493,-0.012627l-0.055831,-0.094701l-0.074441,-0.006313l-0.086848,0.069448h-0.124069l-0.130272,-0.088388l-0.093052,-0.012627l-0.125426,0.096033l0.02966,0.037733l0.071679,-0.030186l0.048901,0.003749l0.291562,0.157836l0.068238,0.119955l0.13507,0.045476l0.185376,0.027671l-0.012358,0.02264l-0.180433,-0.002516l-0.051905,0.015093l-0.007415,0.040248l0.118641,0.045279l0.116169,0.027671l-0.002472,0.020124l-0.096396,-0.007547l-0.022245,0.02264l0.002472,0.045279l-0.024717,0.035217l-0.106282,0.005031l-0.046962,-0.047795l-0.039547,-0.007547l-0.106282,0.030186l-0.077834,-0.014107l-0.074441,-0.037881l0.037221,-0.044194l0.191677,0.005623l0.019773,-0.042764l-0.007415,-0.052826l-0.166814,-0.067869l-0.210917,0.069448l-0.093052,0.119955l0.086848,0.119955l0.334986,0.164149l-0.024814,0.069448l-0.21712,0.145209l-0.254341,0.082075l-0.316375,-0.006313l-0.235731,0.101015l-0.167493,0.164149l-0.210917,0.056821l-0.192307,-0.012627l-0.161289,-0.132582h-0.1799l-0.341189,0.208343l-0.173696,-0.012627l-0.210917,0.088388l-0.105458,0.271477l-0.117865,0.044194l-0.322579,-0.006313l-0.428037,-0.094701l-0.161289,-0.195716l-0.068238,-0.277791l-0.471461,-0.46088l-0.322579,-0.113642l-0.142679,0.056821l-0.080645,0.277791l0.055831,0.359865l-0.055831,0.126269l-0.1799,0.126269l-0.043424,0.20203l0.161289,0.195716l0.272951,0.069448l0.248138,-0.012627l0.049628,0.050507l-0.049628,0.037881l-0.223324,0.01894l-0.117865,0.082075l-0.070482,0.271482l-0.097011,0.094697l-0.105458,0.006313l-0.024814,0.088388l0.037221,0.126269l0.21712,0.107328l0.006203,0.082075l-0.049628,0.176776l-0.155086,0.113642l0.006203,0.101015l0.142679,0.082075l0.055831,0.094701l0.105458,-0.012627l0.347393,-0.189403l0.21712,0.012627l0.248138,0.088388l0.272951,-0.037881l0.086848,-0.119955l0.111662,-0.037881l0.192307,0.01894l0.161289,-0.069448l0.117865,0.006313l0.043424,0.075761h0.117865l0.024814,-0.151522l0.297765,-0.145209l0.186103,0.031567l0.099255,0.063134l0.148883,0.037881l0.111662,-0.01894l0.124069,0.037881l0.086848,0.069448l0.415631,0.037881l0.204714,-0.056821l0.241934,0.006313l0.167493,0.063134l0.19851,0.006313l0.241934,-0.069448l0.614141,-0.012627l0.632751,-0.151522l0.111662,-0.113642l0.272951,-0.031567l0.21712,0.075761l0.142679,0.208343l0.279155,0.138895h0.3598l0.241934,-0.088388l0.583123,-0.075761l0.148883,-0.063134l0.155086,-0.006313l0.347393,0.044194l0.1799,-0.056821l0.068238,-0.044194l-0.031017,-0.069448l-0.117865,-0.056821l0.037221,-0.094701l0.210917,-0.075761l0.421834,-0.012627l0.452851,0.044194l0.620344,0.315671l0.496275,0.176776l0.508682,0.088388l1.15384,0.517701l1.203467,0.669223l1.141433,0.744984l1.017364,0.744984l0.744413,0.315671l0.79404,0.012627l1.004957,-0.063134l0.942923,0.113642l1.315129,0.353552l0.880889,0.315671l0.334986,0.050507l0.930516,0.328298l0.657565,0.227283l0.322579,-0.050507l0.285358,0.025254l0.248138,-0.113642l0.657565,0.025254l0.893295,0.164149l0.75682,-0.025254l1.066992,-0.290418l1.414384,-0.227283l0.570717,-0.075761l1.327536,-0.555582l0.508682,-0.366179l0.533496,-0.858626l0.483868,-0.580835l0.744413,-0.404059l0.930516,-0.23991l1.166247,-0.265164l0.918109,-0.075761l1.935473,-0.025254l1.339943,-0.113642l0.285358,-0.164149l0.732006,-0.770238l1.253095,-0.997521l2.394528,-1.590983l0.744413,-0.277791l0.736913,-0.10614l0.223994,-0.113983l0.155713,-0.234445l0.732006,-0.20203l0.967737,-0.151522l1.51364,0.050507l0.55831,-0.101015l0.942923,0.037881l0.068238,-0.107328l0.009305,-0.132582l0.167493,-0.189403l0.195408,-0.047351v-0.142052l-0.065136,-0.151522l0.120967,-0.198873l0.372206,-0.255694l0.716628,-0.321629l0.828029,-0.238534l0.437343,-0.027928l0.065136,-0.111712v-0.130331l0.102357,-0.083784l0.093052,-0.037237l0.01861,-0.083784l-0.065136,-0.093093l0.139577,-0.363064l0.111662,-0.074475l0.01861,-0.083784l-0.069789,-0.060511l0.004653,-0.130331l0.074441,-0.116367l0.30707,-0.214115l0.083746,-0.181532l0.404775,-0.256007l-0.023263,-0.046547l-0.107009,0.037237l-0.339638,0.242043l-0.111662,0.195496l-0.214019,0.130331l-0.26985,0.046547l-0.214019,-0.027928l-0.167493,0.046547l-0.120967,-0.065165l0.055831,-0.158259l-0.01861,-0.176877l0.074441,-0.148949l0.362901,-0.055856l0.167493,0.055856l0.381512,-0.018619l0.139577,-0.111712v-0.214115l-0.204714,-0.130331l-0.30707,-0.074475l-0.037221,-0.111712l0.186103,-0.074475l0.511784,0.037237l0.381512,0.083784l0.241934,0.121021h0.251239l0.093052,-0.074475l-0.186103,-0.204805l-0.502479,-0.130331l-0.012407,-0.105506l-0.068238,-0.068268l-0.136476,-0.012412l-0.136476,-0.148949l-0.031017,-0.235836l-0.173696,-0.155156l-0.235731,-0.068268l-0.080645,-0.074475l0.012407,-0.074475l0.093052,-0.012412l0.01861,-0.068268l-0.099255,-0.086887l-0.142679,-0.055856l0.049628,-0.037237l0.210917,0.037237l0.075992,0.04965l0.004653,0.111712l0.060484,0.051201l0.079094,-0.009309l0.069789,0.037237l0.065136,0.148949l0.041873,0.018619l0.046526,-0.037237l0.065136,0.027928l0.013958,0.162913l0.060484,0.032583l0.051178,-0.009309l0.083746,0.06982l0.041873,0.181532l0.079094,0.046547h0.083746l0.41408,0.162913l0.209366,0.004655l0.060484,-0.041892l0.223324,0.004655l0.097704,-0.060511l0.358249,-0.032583l0.032568,-0.032583h0.055831l0.027915,0.032583l0.079094,-0.004655l0.30707,-0.167568l0.251239,-0.079129l0.065136,-0.088439l-0.027915,-0.083784l-0.14423,-0.065165l-0.032568,-0.093093l-0.107009,-0.121021l-0.083746,-0.041892l-0.186103,-0.074475l-0.027915,-0.083784l0.051178,-0.065165h0.107009l0.227976,0.051201l0.237282,-0.055856l0.330333,0.013964l0.344291,-0.060511l0.060484,-0.046547l0.139577,0.032583l0.102357,-0.023273l0.032568,-0.065165l-0.055831,-0.041892l-0.130272,0.004655l-0.102357,-0.027928l-0.195408,-0.111712l-0.325681,-0.097748l-0.032568,-0.041892l0.027915,-0.032583l0.297765,0.023273l0.30707,0.079129l0.093052,0.055856l0.130272,-0.009309l0.283807,-0.176877l0.167493,-0.172223l0.01861,-0.121021l-0.093052,-0.083784l-0.334986,-0.111712l-0.158188,-0.102403l-0.130272,-0.037237l-0.455953,-0.041892l-0.553657,-0.107057l-0.186103,-0.097748l0.032568,-0.037237l0.200061,0.018619l0.28846,0.093093l0.479216,0.009309l0.130272,-0.041892l0.120967,0.013964l0.14423,0.06982l0.334986,0.055856l0.516436,-0.013964l0.134925,-0.041892l0.004653,-0.218769l0.032568,-0.065165l-0.041873,-0.027928l-0.097704,0.06982l-0.404775,-0.037237l-0.265197,-0.134985l-0.065136,-0.088439l-0.400122,-0.172223l-0.069789,-0.134985l-0.227976,-0.190841l-0.241934,-0.023273l-0.116315,0.041892l-0.083746,-0.009309l-0.120967,-0.06982l-0.348944,-0.065165l-0.525742,0.046547l-0.348944,-0.004655l-0.325681,-0.065165l-0.013958,-0.065165l0.079094,-0.027928l0.223324,0.004655l0.302418,0.051201l0.265197,-0.027928l0.200061,-0.088439l0.30707,-0.055856l0.204714,0.009309l0.055831,-0.032583l-0.032568,-0.051201l-0.12562,-0.060511l-0.120967,-0.167568l0.037221,-0.027928l0.181451,0.093093l0.083746,0.083784l0.330333,0.102403l0.148883,0.013964l0.353596,0.153604l0.26985,0.190841l0.139577,0.232733l0.14423,0.051201l0.776981,0.018619l0.372206,-0.13964l0.037221,-0.083784l-0.027915,-0.125676l-0.102357,-0.060511v-0.074475l0.074441,-0.065165l0.372206,-0.06982l0.28846,-0.228079l0.074441,-0.125676l-0.01861,-0.083784l-0.116315,-0.055856l-0.102357,0.004655l-0.074441,-0.06982l0.01861,-0.06982l0.088399,-0.093093l0.01861,-0.237388l-0.032568,-0.055856l0.013958,-0.088439l0.069789,-0.074475v-0.144295l-0.041873,-0.023273l-0.088399,0.046547l-0.088399,0.144295l-0.130272,0.065165l-0.065136,0.088439l-0.102357,0.228079l-0.148883,0.176877l-0.120967,0.097748h-0.051178v-0.046547l0.120967,-0.186187l-0.041873,-0.027928l-0.241934,0.051201l-0.200061,0.013964v-0.037237l0.241934,-0.093093l0.083746,-0.079129l-0.004653,-0.060511l-0.237282,-0.027928l-0.274502,0.013964l-0.060484,-0.037237l0.004653,-0.051201l0.130272,-0.041892l0.302418,0.009309l0.158188,-0.088439l0.130272,-0.186187l0.027915,-0.162913l-0.051178,-0.06982l-0.134925,-0.041892l-0.590878,0.083784l-0.395469,0.009309l-0.260545,-0.088439l-0.293113,-0.032583l-0.251239,0.051201l-0.572267,0.06982l-0.051178,-0.013964l0.027915,-0.032583l0.549004,-0.065165l0.139577,-0.055856l0.241934,-0.027928l0.41408,0.041892l0.232629,0.004655l0.669972,-0.102403l0.214019,-0.097748l0.195408,-0.237388l0.055831,-0.130331l0.16284,-0.125676l0.009305,-0.074475l-0.483868,-0.190841l-0.28846,-0.074475l-0.107009,0.004655l-0.134925,0.102403l-0.232629,0.023273l-0.316375,-0.093093l-0.227976,-0.009309l-0.265197,0.060511l-0.079094,0.060511l-0.339638,0.032583l-0.237282,0.074475l-0.083746,0.088439h-0.060484l-0.032568,-0.055856l0.051178,-0.065165l0.241934,-0.088439l0.251239,-0.046547l0.367554,-0.186187l0.153535,-0.032583l0.30707,0.013964l0.176798,0.023273l0.116315,-0.046547l0.232629,-0.186187l0.004653,-0.060511l-0.055831,-0.041892l-0.581573,-0.116367l-0.218671,-0.093093l-0.013958,-0.055856l0.107009,-0.023273l0.321028,0.041892l0.14423,-0.013964l0.353596,0.023273l0.218671,-0.107057l0.176798,-0.158259l0.013958,-0.060511l-0.130272,-0.121021l-0.009305,-0.074475l0.190756,-0.06982l0.065136,-0.093093l-0.023263,-0.134985l-0.088399,-0.134985l-0.065136,-0.051201l0.01861,-0.079129l0.209366,-0.046547l0.051178,-0.051201v-0.232733l0.01861,-0.088439l0.074441,-0.083784l-0.027915,-0.065165l-0.116315,-0.023273l-0.111662,-0.06982l-0.037221,-0.121021l-0.060484,-0.023273l-0.093052,0.079129l-0.065136,-0.009309v-0.093093l0.055831,-0.130331l-0.051178,-0.055856l-0.334986,-0.004655l-0.172145,0.111712l-0.074441,0.144295l-0.023263,0.079129l-0.134925,0.013964l-0.134925,-0.083784l-0.01861,-0.204805l0.032568,-0.162913l-0.079094,-0.06982l-0.362901,-0.037237l-0.041873,-0.032583l0.023263,-0.046547l0.218671,-0.065165l0.01861,-0.051201l-0.083746,-0.107057l-0.023263,-0.083784l-0.186103,-0.088439l-0.279155,0.004655l-0.218671,0.144295l-0.181451,-0.004655l-0.465258,-0.079129l-0.511784,-0.172223l-0.539699,-0.265316l-0.530394,-0.307208l-0.41408,-0.274625l-0.134925,-0.186187l0.013958,-0.107057l0.130272,-0.107057l0.102357,-0.162913l0.004653,-0.074475l0.116315,-0.144295l-0.004653,-0.102403l-0.051178,-0.037237l-0.232629,0.009309l-0.190756,0.041892l-0.074441,-0.013964l-0.246587,0.060511l-0.390817,0.172223l-0.246587,0.06982l-0.4513,0.009309h-0.148883l-0.060484,0.051201l-0.16284,-0.004655l-0.074441,-0.023273l-0.139577,0.041892l-0.046526,0.06982l-0.204714,0.093093l-0.16284,0.004655l-0.12562,0.060511l-0.083746,0.083784l-0.139577,0.018619l-0.176798,-0.06982l-0.051178,-0.088439l0.107009,-0.116367l0.204714,-0.214115l0.120967,-0.051201l0.14423,-0.176877l0.009305,-0.051201l-0.065136,-0.009309l-0.14423,0.060511l-0.334986,0.265316l-0.209366,0.102403l-0.088399,-0.041892l0.027915,-0.060511l0.130272,-0.018619l0.083746,-0.083784l0.116315,-0.009309l0.051178,-0.032583l-0.01861,-0.111712l0.027915,-0.037237l0.041873,0.032583l0.041873,-0.009309l-0.041873,-0.153604l0.046526,-0.111712l0.111662,-0.111712l0.027915,-0.13964l0.055831,-0.046547l0.390817,-0.060511l0.01861,-0.032583l-0.046526,-0.055856l0.013958,-0.111712l0.088399,-0.074475l0.316375,-0.125676l0.074441,-0.093093l0.023263,-0.093093l0.051178,-0.06982l0.102357,-0.055856l0.120967,-0.293244l0.051178,-0.269971l-0.046526,-0.339791l-0.065136,-0.06982l-0.130272,-0.041892l-0.069789,-0.083784l-0.14423,-0.353755l-0.139577,-0.121021l-0.246587,-0.079129l-0.14423,0.009309l-0.134925,0.107057l-0.158188,0.041892l-0.088399,0.074475l-0.041873,0.116367l-0.116315,0.116367l-0.16284,0.032583l-0.167493,-0.018619l-0.093052,-0.144295l-0.009305,-0.088439l-0.055831,-0.023273l-0.246587,0.037237l-0.297765,0.004655l-0.051178,-0.023273l-0.037221,-0.06982l-0.153535,-0.041892l-0.139577,0.013964l-0.209366,0.065165l-0.065136,-0.023273l-0.004653,-0.055856l0.153535,-0.13964l0.041873,-0.134985l-0.027915,-0.079129l0.004653,-0.074475l0.055831,-0.06982l-0.013958,-0.037237l-0.074441,-0.018619l-0.428037,0.088439l-0.083746,-0.018619l-0.051178,-0.074475l-0.065136,-0.037237l-0.093052,-0.018619l-0.023263,-0.060511l0.055831,-0.093093l0.107009,-0.032583l0.037221,-0.051201v-0.051201l0.046526,-0.023273l0.372206,-0.023273l0.372206,-0.153604l0.12562,-0.121021l0.223324,-0.130331l0.246587,-0.125676l0.065136,-0.097748l0.013958,-0.102403l0.055831,-0.148949l-0.004653,-0.079129l-0.362901,-0.367719l-0.093052,-0.032583l-0.158188,-0.023273l-0.041873,-0.041892l0.046526,-0.046547l0.14423,-0.009309l0.093052,-0.065165l0.079094,-0.102403l0.400122,-0.134985l0.209366,-0.046547h0.12562l0.186103,-0.083784l0.227976,-0.200151l0.120967,-0.041892l0.130272,-0.013964l0.227976,-0.093093l0.12562,-0.023273l0.16284,-0.083784l0.381512,-0.060511l0.083746,-0.051201l0.283807,-0.055856l0.223324,-0.162913l-0.009305,-0.041892l-0.158188,-0.004655l-0.120967,0.041892h-0.14423l-0.083746,-0.018619l-0.134925,0.023273l-0.30707,0.148949l-0.200061,0.027928l-0.293398,-0.013285l-0.167207,-0.047226l-0.134925,-0.107057l-0.093052,-0.018619l-0.069789,-0.055856l-0.046526,-0.051201l-0.12562,-0.023273l-0.093052,0.013964l-0.153535,0.097748l-0.176798,0.065165h-0.093052l-0.153535,0.065165l-0.093052,0.121021l-0.083746,0.037237l-0.153535,0.009309l-0.051178,0.051201l-0.060484,0.256007l-0.060484,0.065165l-0.088399,0.027928l-0.032568,0.046547l-0.01861,0.097748l-0.148883,0.097748l-0.139577,0.037237l-0.079094,-0.013964l-0.023263,0.037237l0.027915,0.111712l-0.083746,0.074475l-0.237282,0.074475l-0.172145,-0.004655l-0.246587,0.051201l-0.120967,0.06982l-0.279155,0.013964l-0.246587,-0.074475h-0.148883l-0.060484,0.046547v0.074475l-0.055831,0.088439l-0.01861,0.121021l0.055831,0.125676l0.013958,0.079129l-0.009305,0.097748l0.032568,0.088439l0.051178,0.046547l-0.004653,0.06982l-0.097704,0.158259l-0.079094,0.065165l-0.223324,0.051201l-0.190756,-0.004655l-0.079094,-0.046547l-0.093052,-0.204805l-0.107009,-0.074475l-0.12562,0.013964l-0.088399,-0.013964l-0.14423,-0.107057l-0.041873,-0.144295l-0.074441,-0.041892l-0.079094,0.013964l-0.176798,-0.046547l-0.032568,-0.107057l-0.037221,-0.037237h-0.069789l-0.153535,0.111712h-0.116315l-0.051178,-0.032583l-0.088399,-0.013964l-0.065136,0.037237l-0.176798,-0.027928l-0.069789,-0.060511l0.01861,-0.130331l0.12562,-0.195496l-0.023263,-0.060511l-0.074441,-0.013964l-0.172145,0.06982l-0.065136,-0.018619l-0.12562,-0.107057l-0.223324,-0.060511l-0.013958,-0.055856l0.074441,-0.023273h0.148883l0.134925,-0.134985l0.093052,-0.032583l0.241934,-0.288589l0.046526,-0.167568l-0.013958,-0.116367l-0.079094,-0.148949l0.01861,-0.13964l-0.083746,-0.228079l-0.102357,-0.032583l-0.316375,0.009309l-0.241934,-0.074475l-0.088399,0.009309l-0.074441,0.037237l-0.088399,-0.013964l-0.037221,-0.055856l0.032568,-0.051201l0.107009,-0.046547v-0.041892l-0.093052,-0.032583l-0.088399,0.009309l-0.065136,0.055856h-0.111662l-0.046526,-0.074475l-0.079094,-0.009309l-0.074441,0.065165l-0.148883,0.013964l-0.041873,-0.032583l0.009305,-0.060511l0.102357,-0.046547l-0.004653,-0.051201l-0.102357,-0.046547l-0.017059,-0.093093l-0.052729,-0.058959l0.009305,-0.034134l0.040322,-0.006206l0.046526,0.034134l0.046526,-0.027928l-0.012407,-0.065165l-0.074441,-0.04965l0.009305,-0.077578l0.173696,-0.046547l0.006203,-0.04965l-0.083746,-0.034134l-0.034119,-0.068268l0.037221,-0.062062l-0.031017,-0.043444l-0.093052,-0.034134l-0.074441,0.021722l-0.043424,0.027928l-0.043424,-0.024825l0.027915,-0.065165l0.055831,-0.043444l-0.006203,-0.04034l-0.043424,-0.015516l-0.052729,0.027928l-0.037221,-0.015516l0.006203,-0.043444l-0.046526,-0.018619l-0.08995,0.018619l-0.062034,-0.009309l-0.034119,-0.114815l-0.099255,-0.105506l-0.062034,-0.003103l-0.015509,0.046547l0.003102,0.080681l-0.093052,0.024825l-0.077543,-0.04034l-0.052729,0.015516l0.01861,0.071372l-0.037221,0.024825l-0.080645,-0.043444l-0.055831,-0.068268l-0.120967,-0.068268l-0.207815,0.009309l-0.077543,-0.027928l-0.142679,0.027928l-0.065136,0.024825l-0.049628,-0.021722v-0.046547l-0.034119,-0.009309l-0.058933,0.052753l-0.021712,0.08999l0.003102,0.102403l-0.062034,0.105506l-0.083746,0.034134l-0.08995,-0.015516l-0.01861,-0.046547l0.034119,-0.024825l-0.012407,-0.04034l-0.062034,-0.006206l-0.037221,0.037237l0.012407,0.043444l0.040322,0.031031l-0.012407,0.04034l-0.043424,0.009309l-0.012407,0.080681l-0.136476,0.058959l-0.207815,0.031031l-0.139577,-0.027928l-0.031017,-0.105506l-0.136476,-0.114815l-0.133374,-0.027928l-0.096153,0.009309l-0.046526,0.055856l-0.058933,0.009309l-0.024814,0.024825l-0.009305,0.034134h-0.07134l-0.037221,-0.037237l0.003102,-0.046547l0.043424,-0.031031l-0.003102,-0.04034l-0.068238,-0.065165l-0.07134,-0.003103l-0.21712,0.037237l-0.01861,0.034134l0.037221,0.046547l-0.009305,0.021722l-0.049628,-0.009309l-0.055831,-0.04965l-0.062034,0.003103l-0.080645,0.04034l-0.062034,0.003103l-0.096153,-0.024825l-0.055831,0.006206l-0.01861,0.052753l-0.006203,0.062062l-0.077543,0.077578l-0.01861,0.058959l-0.034119,0.018619l-0.012407,0.046547l0.043424,0.062062l0.080645,0.04034l0.074441,0.071372l0.01861,0.052753l-0.021712,0.046547l0.024814,0.083784l0.077543,0.04965l0.046526,0.080681l0.012407,0.068268l0.114764,0.136537l-0.003102,0.037237l-0.055831,0.018619l-0.058933,-0.012412l-0.034119,0.018619l-0.012407,0.031031l0.037221,0.074475l0.062034,0.046547l0.024814,0.127228l-0.052729,0.062062l0.006203,0.037237l0.046526,0.046547l-0.003102,0.052753l-0.034119,0.105506l0.049628,0.114815l0.099255,0.055856l0.07134,0.121021l0.027915,0.133434v0.077578l0.046526,0.111712l0.099255,0.04965l0.093052,0.0993l-0.006203,0.062062l0.027915,0.043444l0.099255,0.065165l0.009305,0.093093l-0.068238,0.0993l-0.003102,0.102403l0.021712,0.077578l-0.052729,0.111712l-0.133374,0.127228l-0.19851,0.207908l-0.260545,0.173774l-0.474563,0.195496l-0.614141,0.173774l-0.455953,0.204805l-0.452851,0.121021l-0.452851,0.04034l-0.328782,-0.034134l-0.037221,-0.04034l0.024814,-0.071372l-0.01861,-0.077578l-0.189205,-0.136537l-0.009305,-0.052753l0.024814,-0.043444l-0.065136,-0.164465l0.006203,-0.058959l-0.083746,-0.117918l-0.130272,-0.04034l-0.068238,-0.04965l-0.012407,-0.034134l-0.058933,-0.012412l-0.161289,0.031031h-0.238832l-0.077543,0.027928l-0.117865,-0.003103l-0.07134,-0.021722l-0.031017,-0.043444h-0.034119l-0.006203,0.034134l0.040322,0.108609l-0.043424,0.077578l-0.07134,0.015516l-0.164391,-0.018619l-0.058933,-0.058959l-0.049628,-0.003103l-0.148883,0.031031l-0.083746,0.068268l-0.031017,0.0993l-0.040322,0.024825l-0.124069,0.04034l-0.052729,0.077578l-0.003102,0.096196l0.040322,0.046547l0.052729,0.015516l0.021712,0.04034l-0.01861,0.285486l-0.068238,0.086887l-0.204714,0.167568l-0.19851,0.037237l-0.068238,-0.027928l-0.058933,0.003103l-0.021712,0.04034l0.024814,0.046547l0.058933,0.021722l0.006203,0.043444l-0.034119,0.027928l-0.099255,0.018619l-0.003102,0.027928l0.07134,0.046547l-0.006203,0.037237l-0.08995,0.18929l-0.009305,0.074475l0.040322,0.024825l0.043424,-0.024825l0.037221,0.018619v0.055856l-0.052729,0.052753l-0.151984,0.074475l-0.043424,0.102403l0.043424,0.062062l-0.006203,0.043444l-0.08995,0.058959l-0.1799,0.08999l-0.334986,0.080681l-0.446648,0.021722l-0.493174,-0.024825l-0.220222,-0.068268l-0.117865,-0.093093l-0.062034,-0.214115l0.003102,-0.117918l-0.027915,-0.043444l-0.093052,-0.037237l-0.114764,-0.173774l-0.381512,-0.304105l-0.279155,-0.142743l-0.037221,-0.0993l-0.10856,-0.055856l-0.170595,0.015516l-0.086848,-0.018619l-0.136476,-0.117918l-0.049628,-0.086887l0.009305,-0.04034l0.037221,-0.015516l-0.009305,-0.043444l-0.130272,-0.027928l-0.086848,-0.08999l-0.374385,-0.118202l-0.199433,0.015799l-0.093052,0.077578l-0.226426,0.074475l-0.102357,-0.021722l-0.037221,-0.058959l0.046526,-0.055856l-0.003102,-0.037237l-0.10856,-0.083784l-0.145781,-0.006206l-0.065136,0.058959v0.058959l-0.027915,0.043444l-0.077543,-0.009309l-0.040322,-0.052753l-0.01861,-0.105506l-0.052729,-0.04034l-0.229527,0.006206l-0.46836,-0.062062l-0.086848,0.027928l-0.232629,0.173774l-0.034119,0.055856l-0.049628,0.381683l0.124069,0.291692l0.032568,0.313414l0.130272,0.386337l-0.004653,0.097748l0.139577,0.283935l0.139577,0.172223l0.372206,0.283935l-0.009305,0.060511l-0.134925,0.083784l-0.009305,0.125676l0.088399,0.148949l0.153535,0.097748l0.088399,-0.023273l0.102357,0.037237l0.027915,-0.032583l-0.060484,-0.088439l0.032568,-0.027928l0.093052,0.060511l0.023263,0.116367l0.139577,0.195496l0.097704,0.06982l0.139577,0.525977l-0.006937,0.264238l-0.165208,0.489818l0.065136,0.451503l0.167493,0.321172l0.055831,0.288589l-0.060484,0.051201l-0.093052,-0.06982l-0.060484,-0.130331l0.032568,-0.093093l-0.074441,-0.107057l-0.14423,-0.046547l-0.153535,-0.237388l-0.14423,-0.093093l-0.035126,-0.258494l0.044432,-0.141807l-0.01861,-0.176877l-0.167493,-0.097748l-0.046526,-0.111712v-0.409611l-0.065136,-0.162913l-0.158188,-0.13964l-0.179574,-0.004659l-0.085623,-0.079125l-0.088595,-0.281916l-0.205328,-0.267668l-0.092242,-0.195163l-0.088399,-0.046547l-0.390817,-0.055856l-0.16284,0.032583l-0.158188,-0.074475l-0.041873,-0.088439l-0.083746,-0.027928l-0.14423,0.032583l-0.167493,-0.041892l-0.116315,-0.223424l0.065136,-0.297899l0.055831,-0.06982l-0.009305,-0.083784l-0.055831,-0.032583l-0.023263,-0.121021l0.01861,-0.079129l-0.055831,-0.200151l-0.111662,-0.223424l-0.12562,-0.079129h-0.111662l-0.321028,0.162913l-0.190756,0.037237l-0.055831,-0.041892l0.041873,-0.088439l0.195408,-0.111712l0.120967,-0.125676l0.01861,-0.125676l-0.181451,-0.242043l-0.246587,-0.204805l-0.167493,-0.027928l-0.260545,0.065165l-0.16284,0.172223l-0.041873,0.107057l-0.079094,0.023273l-0.060484,-0.041892l0.041873,-0.223424l0.181451,-0.20946l-0.01861,-0.102403l-0.130272,-0.111712l-0.302418,-0.079129l-0.153535,0.018619l-0.069789,-0.018619l-0.004653,0.032583l0.074441,0.041892l0.013958,0.107057l-0.120967,0.246697l-0.181451,0.181532l-0.134925,0.065165l-0.004653,-0.055856l0.069789,-0.167568l0.01861,-0.167568l-0.107009,-0.130331l-0.232629,-0.037237l-0.158188,0.046547l-0.195408,0.153604l-0.330333,0.130331l-0.097704,0.107057l-0.097704,0.335136v0.111712l-0.065136,0.144295l-0.139577,0.074475h-0.14423l-0.032568,0.046547l0.046526,0.107057l-0.051178,0.055856l-0.116315,0.023273l-0.186103,-0.130331l-0.153535,-0.041892l-0.214019,0.060511l-0.446648,0.018619l-0.195408,0.046547l-0.069789,-0.018619l-0.004653,-0.041892l-0.037221,-0.009309l-0.12562,0.121021l-0.176798,0.102403l-0.181451,0.065165l-0.069789,0.088439l0.01861,0.13964l0.204714,0.307208l-0.077543,0.246697l-0.319477,0.096196l-0.19851,0.009309l-0.083746,0.065165l0.003102,0.083784l0.052729,0.093093l0.155086,0.058959l0.136476,0.121021l0.241934,0.422023l0.105458,0.043444l0.027915,0.080681l0.006203,0.13964l0.226426,0.366167l0.003102,0.0993l-0.158188,0.145846l-0.003102,0.04965l0.093052,0.167568l-0.015509,0.130331l-0.111662,0.080681l-0.031017,0.062062l-0.003102,0.158259l-0.099255,0.074475l-0.316375,0.127228h-0.114764l-0.173696,-0.124124l-0.074441,-0.114815l-0.111662,-0.105506l-0.068238,-0.009309l-0.068238,0.074475l-0.01861,0.13964l-0.055831,0.04965l-0.167493,0.024825l-0.207815,-0.006206l-0.10469,-0.044235l-0.013176,-0.117127l-0.038156,-0.055613l-0.101421,-0.009553l-0.021712,-0.077578l0.037221,-0.204805l-0.009305,-0.164465l-0.034119,-0.043444l-0.058933,-0.04034l-0.086848,-0.325827l-0.102357,-0.217218l-0.186103,-0.136537l-0.003102,-0.068268l-0.043424,-0.027928l-0.086848,0.015516l-0.390817,-0.152052l-0.086848,-0.065165l-0.062034,-0.003103l-0.065136,0.058959h-0.102357l-0.052729,-0.058959l0.009305,-0.176877l-0.102357,-0.161362l-0.139577,-0.102403l-0.08995,-0.006206l-0.027915,-0.04034v-0.071372l-0.049628,-0.062062l-0.043424,-0.027928l0.006203,-0.04034l0.043424,-0.012412l0.046526,0.015516l0.024814,-0.018619l-0.021712,-0.068268l-0.062034,-0.037237l-0.130272,-0.22963l-0.08995,-0.062062l-0.193852,-0.169468l-0.162845,-0.283586l0.01861,-0.086887l-0.062034,-0.080681l-0.080645,-0.043444l-0.049628,-0.136537l0.049628,-0.043444l-0.024814,-0.04965l-0.186103,-0.04965l-0.204714,-0.173774v-0.055856l0.055831,-0.037237l-0.006203,-0.062062l-0.068238,-0.031031l-0.049628,0.024825l-0.012407,0.04965l-0.130272,0.006206l-0.099255,-0.086887l-0.136476,-0.037237l-0.117865,0.024825l-0.210917,0.173774l-0.184552,0.066717l-0.251239,-0.004655l-0.107009,-0.032583l-0.079094,0.013964l-0.116315,0.148949l-0.12562,0.051201l-0.172145,-0.046547l-0.200061,0.013964l-0.079094,0.027928l-0.009305,0.074475l0.111662,0.153604l-0.013958,0.125676l-0.093052,0.204805l-0.009305,0.102403l-0.079094,0.065165l0.013958,0.065165l0.083746,0.018619l0.041873,0.041892l0.004653,0.088439l0.055831,0.079129l0.074441,0.046547l0.037221,0.134985l-0.023263,0.204805l0.055831,0.167568l0.060484,0.055856l0.01861,0.051201l-0.009305,0.074475l0.120967,0.218769l0.032568,0.167568l0.088399,0.121021l0.102357,0.06982l0.060484,0.13964l-0.009305,0.065165l-0.051178,0.037237l0.013958,0.046547l0.065136,0.074475l-0.01861,0.060511l-0.083746,0.046547l-0.009305,0.074475l0.046526,0.018619l0.060484,0.013964l0.01861,0.037237v0.079129l0.079094,0.223424l0.079094,0.055856l0.023263,0.06982l-0.032568,0.097748l0.023263,0.093093l0.046526,0.065165l0.037221,0.190841l-0.013958,0.167568l-0.083746,0.200151l-0.093052,0.097748l-0.051178,0.148949l0.055831,0.148949l-0.01861,0.074475l-0.055831,0.055856l-0.097704,0.297899l-0.074441,0.102403l-0.293113,0.121021l-0.465258,0.116367l-0.511784,0.060511h-0.428037l-0.255892,-0.060511l-0.041873,-0.074475l0.051178,-0.148949l0.004653,-0.200151l-0.055831,-0.125676l0.023263,-0.148949l0.055831,-0.074475l-0.009305,-0.051201l-0.097704,-0.009309l-0.069789,0.013964l-0.041873,-0.027928l-0.009305,-0.079129l-0.051178,-0.037237h-0.069789l-0.069789,0.083784l-0.069789,0.032583l-0.046526,-0.041892l-0.055831,0.004655l-0.330333,0.20946l-0.065136,0.102403l-0.181451,0.176877l-0.469911,0.27928l-0.120967,0.018619l-0.102357,0.097748l-0.023263,0.06982l-0.195408,0.148949l-0.037221,0.079129l0.023263,0.097748l-0.069789,0.13964l-0.009305,0.107057l-0.172145,0.311863l-0.079094,0.265316l-0.013958,0.167568l0.055831,0.102403l0.041873,0.293244l0.074441,0.158259l0.069789,0.055856l0.023263,0.093093l0.01861,0.130331l0.241934,0.390992l-0.004653,0.065165l-0.107009,0.055856l-0.111662,0.009309l-0.111662,-0.06982l-0.204714,-0.293244l-0.260545,-0.465467l-0.013958,-0.148949l-0.051178,-0.079129l-0.107009,-0.116367l-0.079094,-0.013964l-0.139577,0.06982l-0.023263,0.060511l0.079094,0.130331l0.009305,0.162913l-0.032568,0.088439l0.01861,0.293244l0.097704,0.363064l0.023263,0.251352l-0.083746,0.195496l-0.083746,0.065165l-0.004653,0.102403l0.051178,0.051201l-0.032568,0.041892l-0.074441,0.032583l-0.046526,0.111712l0.051178,0.125676l0.074441,0.060511l0.14423,0.363064l0.055831,0.307208l0.013958,0.228079l-0.027915,0.130331l-0.051178,-0.004655l-0.088399,-0.079129l-0.027915,-0.288589l-0.013958,-0.265316l-0.209366,-0.218769l-0.107009,-0.293244l-0.116315,-0.130331l-0.027915,-0.107057l-0.065136,-0.037237l0.013958,-0.037237l0.041873,-0.013964l-0.009305,-0.041892l-0.134925,-0.037237l-0.060484,-0.097748l0.041873,-0.134985l0.079094,-0.111712v-0.307208l-0.046526,-0.074475l-0.027915,-0.176877l0.037221,-0.102403l-0.01861,-0.116367l-0.139577,-0.079129l-0.009305,-0.051201l0.074441,-0.121021l-0.013958,-0.06982l-0.060484,-0.023273l-0.046526,0.041892l-0.060484,-0.018619l-0.01861,-0.06982l-0.158188,-0.130331l-0.12562,-0.060511l-0.032568,-0.046547l-0.046526,-0.204805l-0.069789,-0.027928l-0.279155,0.074475l-0.283807,0.176877l-0.227976,0.046547l-0.321028,0.144295l-0.083746,0.004655l-0.01861,-0.046547l0.14423,-0.083784l0.441995,-0.237388l0.01861,-0.079129l0.120967,-0.097748l0.195408,-0.134985l0.181451,-0.195496l0.102357,-0.242043l0.004653,-0.181532l-0.046526,-0.074475l0.013958,-0.228079l-0.051178,-0.074475l-0.372206,-0.027928l-0.153535,0.055856l-0.204714,0.172223l-0.14423,0.13964l-0.148883,0.083784h-0.120967l-0.037221,-0.055856l0.107009,-0.13964l0.237282,-0.218769l0.204714,-0.107057l0.032568,-0.116367l-0.009305,-0.111712l-0.116315,-0.083784l-0.348944,-0.074475l-0.088399,-0.060511l-0.102357,0.009309l-0.088399,0.065165l-0.274502,0.018619l-0.423385,-0.065165l-0.134925,0.013964l-0.060484,-0.027928v-0.06982l-0.134925,-0.116367l0.004653,-0.097748l-0.051178,-0.125676l-0.153535,-0.079129l-0.004653,-0.065165l0.097704,-0.06982l0.097704,-0.009309l0.01861,-0.074475l-0.139577,-0.223424l-0.009305,-0.083784l-0.130272,-0.134985l-0.190756,-0.046547l-0.074441,-0.065165l-0.167493,-0.046547l-0.069789,0.004655l-0.01861,-0.032583l0.074441,-0.027928l0.195408,-0.004655l0.107009,0.041892h0.120967l0.181451,0.060511l0.088399,0.079129l0.134925,0.293244l0.055831,0.046547l0.083746,0.027928l0.074441,0.065165l0.032568,0.065165l0.093052,0.130331l0.097704,0.032583l0.065136,-0.023273l0.051178,0.009309l0.027915,0.041892l0.265197,0.027928l0.241934,-0.004655l0.093052,0.037237l0.167493,-0.013964l0.074441,-0.051201l0.023263,-0.079129l0.041873,-0.032583l0.079094,-0.013964l0.134925,-0.13964l0.013958,-0.055856l0.046526,-0.032583l0.111662,-0.018619l0.134925,-0.079129l0.037221,-0.079129l-0.023263,-0.046547l-0.111662,-0.004655l-0.139577,-0.060511l-0.107009,-0.023273l-0.065136,-0.130331l-0.046526,-0.009309l-0.120967,0.060511l-0.139577,0.004655l-0.107009,-0.06982l0.013958,-0.051201l0.148883,-0.06982l0.325681,-0.032583h0.120967l0.279155,-0.186187l0.120967,-0.176877l0.069789,-0.13964l0.088399,-0.046547l0.009305,-0.055856l-0.01861,-0.074475l0.023263,-0.088439l0.074441,-0.074475l-0.027915,-0.055856l-0.190756,-0.06982l-0.102357,-0.018619l0.009305,-0.046547l0.218671,-0.079129l0.079094,-0.116367v-0.162913l-0.051178,-0.079129l-0.013958,-0.116367l-0.111662,-0.134985l-0.16284,-0.046547l-0.297765,0.060511l-0.102357,0.032583h-0.255892l-0.120967,0.027928l-0.041873,-0.027928l0.051178,-0.06982l0.218671,-0.046547l0.223324,-0.065165l0.055831,-0.065165l-0.023263,-0.060511l-0.190756,-0.046547l-0.227976,0.027928l-0.227976,0.097748l-0.102357,0.004655l-0.107009,-0.018619l-0.120967,0.013964l-0.181451,0.083784l-0.074441,0.004655l-0.069789,-0.013964l-0.041873,0.013964l-0.037221,0.037237l-0.083746,-0.009309l-0.009305,-0.051201l0.037221,-0.037237l-0.027915,-0.037237l-0.074441,-0.009309v-0.051201l0.074441,-0.023273l0.251239,-0.023273l0.293113,-0.097748l0.181451,0.013964l0.116315,-0.027928l0.260545,-0.097748l0.28846,-0.046547l0.348944,0.009309l0.069789,0.018619l0.069789,-0.041892l-0.032568,-0.116367l-0.107009,-0.083784l-0.116315,-0.027928l-0.172145,-0.102403l-0.083746,-0.102403l-0.111662,-0.013964l-0.153535,0.06982l-0.195408,0.027928l-0.093052,0.060511l-0.176798,0.023273l-0.111662,-0.023273l-0.055831,-0.083784l-0.14423,-0.065165l-0.013958,-0.060511l0.041873,-0.013964l-0.01861,-0.055856l-0.130272,-0.06982l-0.009305,-0.041892l0.074441,-0.023273l0.260545,0.093093l0.088399,-0.018619l0.013958,-0.060511l-0.237282,-0.283935l-0.023263,-0.111712l-0.116315,-0.027928l-0.190756,0.06982l-0.074441,0.004655l-0.074441,-0.032583l-0.083746,0.018619l-0.027915,0.102403l0.027915,0.093093l0.120967,0.107057v0.130331l-0.065136,0.172223l-0.186103,0.097748l-0.16284,0.060511l-0.032568,-0.032583l0.032568,-0.060511l0.176798,-0.116367l0.060484,-0.111712l-0.01861,-0.102403l-0.134925,-0.134985l-0.097704,-0.013964l-0.060484,0.055856l-0.051178,0.088439l-0.069789,0.032583l-0.116315,-0.023273l-0.107009,-0.125676v-0.06982l0.027915,-0.051201l-0.051178,-0.083784l-0.069789,-0.046547l0.004653,-0.06982l0.14423,-0.121021l-0.023263,-0.060511l-0.083746,-0.060511l-0.14423,-0.023273l-0.041873,-0.037237l0.013958,-0.041892l0.116315,-0.041892l0.037221,-0.037237l0.009305,-0.065165l0.116315,-0.134985l0.004653,-0.051201l-0.107009,-0.051201l-0.139577,-0.013964l-0.051178,-0.065165l0.01861,-0.079129l0.139577,-0.079129l-0.01861,-0.037237l-0.134925,0.018619l-0.316375,-0.009309l-0.116315,-0.060511l-0.330333,-0.074475l-0.167493,-0.121021l-0.027915,-0.060511l-0.12562,-0.032583l-0.148883,0.023273l-0.218671,0.121021l-0.093052,0.032583l-0.041873,-0.027928l0.074441,-0.060511l0.265197,-0.134985l0.107009,-0.051201l0.093052,-0.172223l-0.027915,-0.060511h-0.116315l-0.102357,-0.055856l-0.009305,-0.214115l-0.074441,-0.023273l-0.12562,0.023273l-0.093052,0.093093l-0.204714,0.013964l-0.148883,0.046547l-0.139577,-0.013964l-0.060484,-0.111712l0.004653,-0.097748l0.069789,-0.111712v-0.074475l-0.055831,-0.013964l-0.060484,0.041892l-0.037221,0.107057l-0.060484,0.046547l-0.074005,0.171204l-0.066735,0.014837l-0.074151,0.074184l-0.039547,-0.007418l0.002472,-0.056874l0.066735,-0.086548l0.002472,-0.121167l-0.069207,-0.054401l-0.076622,0.014837l-0.177961,0.138476l-0.066735,0.007418l-0.081566,0.059347l-0.066735,-0.004946l-0.084037,-0.059347l-0.01483,-0.056874l0.071679,-0.081602l0.01483,-0.06182l0.126056,-0.128585l-0.009887,-0.056874l-0.168074,-0.056874l-0.034604,-0.059347l0.027189,-0.064293l0.118641,-0.06182l0.123584,-0.143422l0.022245,-0.054401l-0.024717,-0.007418l-0.123584,0.049456l-0.153244,0.004946l-0.081566,-0.046983l-0.022245,-0.064293l0.037075,-0.054401l0.066735,-0.039565l-0.002472,-0.027201l-0.165603,-0.049456l-0.066735,-0.002473l-0.032132,-0.032146l-0.002472,-0.046983l0.039547,-0.027201l-0.012358,-0.037092l-0.093924,-0.049456l-0.074151,-0.007418l-0.049434,0.004946l-0.046962,-0.01731l-0.019773,-0.04451l-0.076622,-0.037092l-0.076622,0.004946l-0.042019,-0.012364l-0.101339,-0.064293l-0.022245,-0.076657l-0.155716,-0.158259l-0.012358,-0.163204l-0.039547,-0.133531l-0.056849,-0.056874l-0.012358,-0.051929l0.02966,-0.01731l-0.012358,-0.029674l-0.05932,-0.009891l-0.046962,-0.034619l-0.143358,-0.04451l-0.182905,-0.032146l-0.032132,0.019782l0.017302,0.054401l0.187848,0.153313l0.019773,0.071711l-0.019773,0.081602l-0.093924,0.049456l-0.133471,0.027201l-0.071679,-0.01731l-0.027189,-0.04451l-0.076622,-0.024728l-0.088981,0.022255l-0.02966,-0.014837l-0.004943,-0.066765l0.004943,-0.06182l-0.04449,-0.051929l-0.101339,-0.024728l-0.069207,-0.069238l-0.135943,-0.093966l-0.091452,-0.022255l-0.101339,0.007418l-0.103811,0.034619l-0.004943,0.046983l0.081566,0.116221l-0.007415,0.046983l-0.042019,0.054401l-0.093924,0.014837l-0.098867,0.093966l-0.004943,0.059347l-0.071679,0.039565l-0.037075,0.051929l-0.091452,0.032146l-0.195263,-0.009891l-0.108754,-0.049456l-0.051905,-0.074184l-0.002472,-0.101384l-0.086509,-0.054401l-0.133471,-0.004946l-0.081566,-0.004946l-0.113697,-0.054401l-0.061792,0.012364l-0.046962,-0.009891l-0.148301,-0.111276l-0.078076,-0.069965l-0.181451,-0.060511h-0.274502l-0.139577,-0.027928l-0.083746,0.004655l-0.060484,0.037237l0.009305,0.051201l0.167493,0.06982l0.004653,0.074475l-0.093052,0.097748l-0.111662,0.051201l-0.186103,0.009309l-0.241934,-0.032583l-0.093052,0.060511l-0.065136,0.121021l-0.069789,0.009309l-0.111662,-0.097748l-0.14423,-0.088439h-0.12562l-0.120967,0.046547l-0.01861,0.046547l0.14423,0.097748l0.265197,0.288589l0.14423,0.06982l0.088399,-0.013964l0.037221,-0.023273l0.060484,0.018619l0.046526,0.06982l-0.004653,0.130331l-0.055831,0.130331l-0.088399,0.055856l-0.12562,0.018619l-0.041873,0.027928l-0.013958,0.051201l-0.139577,0.041892l-0.093052,-0.018619l-0.046526,-0.051201l-0.069789,-0.023273l-0.074441,0.004655l-0.260545,-0.079129l-0.107009,-0.041892l-0.065136,0.023273l-0.013958,0.097748l0.069789,0.097748l0.223324,0.162913l0.293113,0.102403l0.186103,0.046547l0.227976,0.111712l0.097704,0.074475l0.102357,0.004655l0.134925,-0.018619l0.176798,0.013964l0.102357,-0.023273l0.111662,-0.06982l0.265197,-0.060511l0.111662,-0.088439l0.013958,-0.055856l-0.01861,-0.051201l0.083746,-0.134985l0.181451,-0.065165l0.200061,-0.041892l0.088399,-0.051201l0.032568,-0.088439l0.055831,-0.041892l0.032568,0.009309l-0.027915,0.097748l-0.083746,0.121021l-0.088399,0.046547h-0.079094l-0.032568,0.037237l-0.074441,0.190841l-0.01861,0.06982l0.032568,0.046547l0.214019,-0.004655l0.344291,-0.088439l0.195408,-0.134985l0.037221,-0.065165l0.083746,-0.055856l0.037221,-0.060511l0.004653,-0.083784l0.074441,-0.055856l0.218671,-0.013964l0.065136,-0.037237l0.218671,-0.023273l0.032568,0.051201l-0.027915,0.065165l-0.28846,0.041892l-0.055831,0.041892l-0.051178,0.013964l-0.013958,0.041892v0.134985l-0.055831,0.107057l-0.111662,0.097748l-0.069789,0.102403l0.004653,0.079129l0.172145,0.079129l0.204714,0.032583l0.209366,0.009309l0.130272,0.027928l0.107009,-0.018619l0.134925,-0.088439l0.214019,-0.107057l0.088399,-0.130331l0.069789,-0.037237l0.009305,-0.065165l-0.055831,-0.055856l0.013958,-0.037237l0.065136,0.009309l0.032568,0.041892l0.041873,0.004655l0.041873,-0.013964l0.037221,0.018619l-0.004653,0.041892l-0.051178,0.018619l-0.004653,0.074475l0.037221,0.041892l0.097704,-0.013964l0.037221,0.027928l-0.027915,0.027928l-0.153535,0.041892l-0.12562,0.13964l-0.097704,0.055856l-0.190756,0.041892l-0.074441,0.06982l-0.055831,0.079129l0.023263,0.037237l0.525742,0.023273l0.223324,-0.032583l0.214019,-0.074475l0.097704,-0.009309l0.093052,0.027928l0.120967,-0.009309l0.069789,0.018619l-0.027915,0.032583l-0.16284,0.060511l-0.153535,0.009309l-0.107009,0.055856l-0.223324,0.051201l-0.227976,0.023273l-0.107009,-0.004655l-0.041873,0.027928l0.013958,0.060511l-0.013958,0.032583l-0.111662,-0.037237l-0.116315,-0.06982l-0.046526,0.018619l-0.004653,0.116367l0.027915,0.051201l0.055831,0.023273l0.004653,0.046547l-0.046526,0.041892l-0.074441,0.004655l-0.134925,-0.079129l-0.060484,-0.130331l-0.102357,-0.055856l-0.046526,0.009309l-0.041873,0.041892h-0.223324l-0.14423,-0.027928l-0.400122,-0.195496l-0.158188,-0.018619l-0.130272,0.018619l-0.172145,-0.013964l-0.227976,0.037237l-0.200061,0.06982l-0.009305,0.046547l0.037221,0.032583l-0.01861,0.041892l-0.083746,0.013964l-0.093052,-0.023273l-0.158188,0.018619l-0.130272,0.055856l-0.111662,0.004655l-0.088399,0.051201l-0.013958,0.116367l0.134925,0.251352l0.093052,0.060511l0.190756,0.195496l0.260545,0.181532l0.12562,0.032583l0.139577,0.079129l0.14423,0.027928h0.102357l0.148883,0.055856l0.037221,0.055856l0.079094,0.023273l0.088399,-0.004655l0.204714,0.037237l0.116315,0.079129l0.321028,0.111712l0.083746,-0.004655l0.330333,0.088439l0.083746,0.06982l0.027915,0.088439l0.097704,0.046547l0.302418,0.111712l0.200061,0.027928l0.158188,-0.018619l0.195408,-0.116367l0.167493,-0.037237l0.051178,-0.041892l0.041873,0.013964l-0.009305,0.055856l-0.107009,0.088439l-0.283807,0.116367l-0.12562,0.079129l-0.013958,0.093093l0.051178,0.079129l-0.032568,0.079129l-0.041873,0.051201l-0.060484,-0.004655l-0.037221,0.046547l0.027915,0.097748l0.060484,0.027928h0.069789l0.246587,0.162913l0.195408,0.251352l0.077543,0.297899l0.003102,0.0993l0.034119,0.086887l-0.024814,0.055856l0.055831,0.0993l0.063585,0.012412l0.14423,0.111712l0.004653,0.041892l-0.032568,0.051201l-0.049628,-0.006206l-0.024814,-0.04965h-0.062034l-0.080645,0.062062l-0.031017,0.074475l0.024814,0.0993l-0.037221,0.086887l-0.167493,0.17998l-0.049628,0.093093l-0.024814,0.155156l-0.105458,0.093093l-0.136476,0.031031l-0.093052,0.086887l-0.055831,0.105506l-0.117865,0.068268l-0.111662,0.0993l-0.192307,0.105506l-0.204714,0.055856l-0.049628,-0.012412l0.043424,-0.043444l0.142679,-0.055856l0.210917,-0.167568l0.21712,-0.148949l0.155086,-0.192393l0.043424,-0.173774l0.074441,-0.086887l0.142679,-0.148949l0.006203,-0.068268l-0.01861,-0.055856l0.093052,-0.173774l-0.010856,-0.11016l-0.037221,-0.060511l0.004653,-0.097748l-0.041873,-0.023273l-0.051178,0.023273l-0.01861,0.06982l0.041873,0.111712l0.041873,0.032583l0.004653,0.060511l-0.032568,0.06982l-0.093052,0.060511l-0.041873,-0.041892l0.004653,-0.107057l-0.037221,-0.172223l0.032568,-0.088439l0.048077,-0.058959l-0.01861,-0.093093l-0.117865,-0.105506l-0.055831,-0.003103l-0.024814,0.027928l0.015509,0.052753l0.062034,0.052753l-0.021712,0.046547l-0.040322,0.006206l-0.021712,-0.058959l-0.031017,-0.009309l-0.049628,0.012412l-0.062034,-0.058959v-0.068268l0.024814,-0.04034l-0.003102,-0.055856l-0.096153,-0.114815l-0.006203,-0.083784l-0.049628,-0.027928l-0.049628,0.009309l-0.01861,0.052753l0.027915,0.071372l-0.012407,0.043444l-0.043424,0.034134l-0.01861,0.108609l0.024814,0.071372l-0.068238,0.13964l-0.139577,0.068268l-0.024814,0.046547l0.037221,0.046547l0.009305,0.04965l-0.096153,0.170671l-0.062034,0.031031l-0.027915,0.046547l0.003102,0.0993l-0.034119,0.062062l-0.114764,0.068268l-0.021712,0.062062l0.012407,0.17998l-0.034119,0.068268l-0.111662,0.164465l-0.058933,0.037237l-0.083746,-0.003103l-0.024814,-0.027928l0.040322,-0.058959l0.07134,-0.055856l0.046526,-0.114815l-0.049628,-0.058959l0.003102,-0.074475l0.055831,-0.136537l0.096153,-0.0993l0.055831,-0.027928l0.01861,-0.04034l-0.003102,-0.065165l0.120967,-0.198599v-0.043444l-0.024814,-0.031031l0.006203,-0.058959l0.065136,-0.052753l0.012407,-0.04965l-0.031017,-0.037237v-0.04965l0.040322,-0.04965l-0.003102,-0.052753l-0.034119,-0.027928l-0.006203,-0.04965l0.068238,-0.093093l0.01861,-0.083784l-0.027915,-0.031031l-0.043424,-0.003103l-0.031017,0.027928l-0.046526,-0.018619l-0.034119,-0.08999l0.046526,-0.052753l-0.003102,-0.031031l-0.031017,-0.006206l-0.031017,0.015516l-0.043424,-0.018619l-0.01861,-0.121021l-0.046526,-0.0993l-0.055831,-0.018619l-0.080645,0.012412l-0.145781,-0.062062l-0.052729,-0.065165l-0.003102,-0.074475l-0.07134,-0.114815l-0.10856,-0.065165h-0.093052l-0.043424,0.024825l-0.012407,0.037237h-0.062034l-0.07134,-0.055856l-0.040322,-0.077578l-0.074441,-0.031031l-0.062034,0.012412l-0.040322,0.114815l-0.012407,0.164465l-0.046526,0.068268l-0.006203,0.152052l-0.034119,0.043444l0.003102,0.04965l0.065136,0.074475l0.009305,0.133434l-0.058933,0.114815l-0.009305,0.0993l0.046526,0.086887l-0.01861,0.0993l-0.102357,0.207908l-0.127171,0.105506l-0.058933,0.083784l-0.046526,0.145846l-0.040322,0.043444l-0.074441,-0.006206l-0.024814,-0.077578l0.031017,-0.170671l0.136476,-0.155156l0.058933,-0.136537l0.006203,-0.325827l0.049628,-0.158259l-0.003102,-0.071372l-0.07134,-0.071372l-0.086848,-0.003103l-0.111662,0.096196l-0.077543,0.173774l-0.034119,0.142743l-0.195408,0.161362l-0.186103,0.08999l-0.077543,0.111712l-0.133374,0.086887l-0.074441,0.111712l-0.062034,0.037237l-0.046526,-0.012412l0.015509,-0.077578l0.068238,-0.111712l0.10856,-0.058959l0.046526,-0.046547l0.01861,-0.065165l0.058933,-0.058959l0.19851,-0.096196l0.083746,-0.0993l0.052729,-0.111712l0.006203,-0.071372l0.040322,-0.068268l0.055831,-0.04034l0.065136,-0.111712l0.034119,-0.183084l-0.015509,-0.065165l-0.043424,-0.055856l0.003102,-0.04034l0.027915,-0.021722l-0.01861,-0.04034l-0.037221,-0.003103l-0.055831,0.009309l-0.037221,-0.009309l-0.024814,0.021722l0.034119,0.074475l0.034119,0.046547l-0.003102,0.037237l-0.062034,0.037237l-0.074441,0.155156l-0.068238,0.08999l-0.080645,0.043444l-0.021712,0.052753l0.049628,0.096196l0.046526,0.04965l-0.006203,0.043444l-0.040322,0.021722l-0.055831,-0.027928l-0.034119,-0.071372l-0.058933,-0.065165l-0.009305,-0.133434l0.037221,-0.093093l0.096153,-0.046547l0.01861,-0.074475l-0.024814,-0.105506l-0.077543,-0.130331l-0.024814,-0.105506l-0.049628,-0.009309l-0.062034,0.114815l-0.058933,0.220321l-0.074441,0.093093l-0.21712,0.164465l-0.133374,0.111712l-0.01861,0.062062l-0.043424,0.04034l-0.07134,0.012412l-0.124069,0.080681l-0.074441,0.018619l-0.027915,-0.031031l0.01861,-0.052753l0.111662,-0.077578l0.099255,-0.13964l0.096153,-0.124124l0.226426,-0.142743l0.077543,-0.0993l0.031017,-0.211012l-0.027915,-0.133434l0.003102,-0.220321l-0.040322,-0.096196l-0.124069,-0.108609l-0.130272,-0.071372l-0.099255,-0.003103l-0.102357,0.068268l-0.19851,0.207908l-0.214019,0.152052l-0.151984,0.068268l-0.083746,-0.006206l-0.062034,-0.046547l0.003102,-0.043444l0.130272,-0.065165l0.120967,-0.018619l0.049628,0.04034l0.037221,-0.024825l0.009305,-0.046547l-0.040322,-0.037237l0.015509,-0.077578l0.096153,-0.167568l-0.021712,-0.08999l-0.040322,-0.031031l-0.027915,-0.046547l-0.003102,-0.074475l-0.124069,-0.136537l-0.139577,-0.096196l-0.254341,-0.105506l-0.080645,-0.006206l-0.077543,0.027928l-0.08995,-0.018619l-0.065136,-0.071372l-0.040322,-0.130331l-0.120967,-0.083784l-0.251239,-0.074475l-0.151984,-0.018619l-0.136476,-0.046547l-0.105458,-0.009309h-0.130272l-0.19851,-0.034134l-0.062034,-0.027928l-0.266748,-0.018619l-0.086848,0.037237l-0.009305,0.062062l0.024814,0.058959l-0.01861,0.031031l-0.077543,0.021722l-0.133374,-0.021722l-0.155086,0.009309l-0.139577,0.105506l-0.136476,0.130331l-0.161289,0.065165l-0.024814,0.046547l0.043424,0.046547l0.08995,0.024825l0.204714,-0.018619l0.204714,0.046547l0.024814,0.024825l0.127171,0.021722l0.093052,0.006206l0.183001,0.077578l0.105458,0.176877l0.151984,0.114815l0.10856,0.021722l0.229527,0.124124l0.034119,0.052753l-0.031017,0.021722l-0.068238,-0.015516l-0.164391,-0.108609l-0.173696,-0.04965l-0.105458,-0.071372l-0.148883,-0.152052l-0.164391,-0.074475l-0.167493,-0.062062l-0.161289,-0.034134l-0.086848,0.012412l-0.10856,0.08999l-0.07134,0.024825l-0.285358,0.024825l-0.148883,-0.009309l-0.086848,0.027928l-0.031017,0.031031l0.009305,0.04034l0.114764,0.133434l0.10856,0.04034l0.074441,0.068268l0.167493,0.077578l0.294663,0.207908l0.186103,0.083784l0.040322,0.083784l0.037221,0.009309l0.049628,-0.031031l0.096153,0.009309l0.173696,0.105506l0.08995,0.021722l0.055831,0.065165l0.07134,0.018619l0.124069,0.102403l0.049628,0.117918l-0.012407,0.086887l0.01861,0.031031l0.049628,0.009309l0.021712,0.034134l-0.006203,0.071372l-0.037221,0.024825l-0.083746,-0.027928l-0.037221,-0.065165l-0.021712,-0.127228l-0.07134,-0.08999l-0.015509,-0.083784l-0.021712,-0.012412l-0.031017,0.055856l-0.099255,0.015516l-0.266748,-0.0993l-0.266748,-0.058959l-0.117865,-0.003103l-0.37841,-0.152052l-0.117865,-0.034134l-0.136476,-0.080681l-0.145781,-0.052753l-0.08995,-0.003103l-0.074441,0.027928l-0.096153,-0.006206l-0.21712,-0.102403l-0.117865,-0.024825l-0.114764,0.034134l-0.130272,0.136537l-0.052729,0.136537l-0.037221,0.052753l-0.046526,0.021722l0.003102,0.055856l0.08995,0.133434v0.058959l-0.037221,0.037237l0.003102,0.04034l0.111662,0.037237l0.192307,0.17998l0.034119,0.065165l0.133374,0.102403l0.096153,0.043444l0.151984,0.086887l0.052729,0.074475l0.328782,0.217218l0.093052,0.018619l0.151984,0.065165l0.037221,0.04034l0.012407,0.065165l0.19851,0.133434l0.133374,0.021722l0.136476,0.065165l0.145781,0.009309l0.08995,-0.037237l0.068238,0.006206l0.099255,0.062062l0.086848,0.034134l0.049628,0.04034l0.044667,0.101787l-0.010548,0.040956l0.015509,0.012412l0.049628,-0.012412l0.1799,0.065165l0.167493,0.012412l0.21712,-0.012412l0.114764,0.024825l0.245036,0.121021l0.105458,0.006206l0.08995,0.034134l0.021712,0.034134l0.07134,0.018619l0.074441,-0.009309l0.257443,0.04965l0.07134,0.031031l-0.009305,0.024825l-0.114764,0.003103l-0.229527,-0.006206l-0.263646,-0.077578l-0.099255,-0.046547l-0.127171,-0.012412l-0.074441,-0.04034l-0.068238,-0.009309l-0.040322,-0.024825h-0.049628l-0.065136,0.037237l-0.204714,-0.003103l-0.10856,-0.04965l-0.074441,-0.006206l-0.07134,0.003103l-0.117865,-0.012412l-0.139577,-0.071372l-0.08995,-0.102403l-0.031017,-0.071372l-0.052729,-0.009309l-0.052729,0.006206l-0.127171,-0.009309l-0.133374,0.04034l-0.111662,0.055856l-0.117865,0.012412l-0.117865,-0.031031l-0.062034,-0.055856l-0.058933,-0.012412h-0.07134l-0.049628,-0.031031l-0.027915,-0.080681l0.012407,-0.034134l-0.040322,-0.034134l-0.086848,-0.006206l-0.176798,-0.074475l-0.347393,-0.083784l-0.155086,-0.055856l-0.080645,-0.003103l-0.164391,-0.046547l-0.133374,0.003103l-0.170595,0.062062l-0.07134,0.077578l-0.046526,0.133434l-0.034119,0.065165l-0.040322,0.027928l-0.006203,0.046547l0.043424,0.04034l0.043424,0.148949l0.058933,0.055856l0.027915,0.058959v0.058959l0.093052,0.192393l0.08995,0.086887l0.279155,0.192393l0.210917,0.192393l0.210917,0.130331l0.117865,0.024825l0.093052,0.003103l0.26985,0.068268l0.201612,0.074475l0.313274,0.055856l0.204714,0.052753l0.052729,-0.009309l0.037221,-0.046547l0.068238,-0.009309l0.127171,0.018619l0.204714,0.012412l0.102357,-0.015516l0.241934,0.024825l0.214019,-0.018619l0.105458,-0.04965l0.207815,-0.021722l0.117865,0.009309l0.07134,0.018619l0.08995,-0.009309l0.300867,-0.176877l0.111662,-0.024825l0.077543,-0.034134l0.07134,0.006206l0.117865,0.068268l0.01861,0.034134l-0.031017,0.04034l-0.145781,0.043444l-0.117865,0.018619l-0.133374,0.083784l-0.006203,0.04965l0.077543,0.046547l0.099255,0.018619l0.015509,0.062062l-0.01861,0.046547l-0.093052,0.015516l-0.235731,-0.052753l-0.232629,0.006206l-0.195408,-0.006206l-0.062034,0.009309l-0.136476,0.080681l-0.111662,0.037237l-0.19851,-0.006206l-0.07134,0.027928l-0.421834,-0.009309l-0.136476,0.043444l-0.192307,0.021722l-0.027915,0.037237l0.062034,0.052753l0.043424,0.093093l0.189205,0.124124l0.021712,0.034134l-0.006203,0.043444l0.046526,0.027928l0.068238,-0.006206l0.080645,0.024825l0.021712,0.043444l0.431139,0.077578l0.117865,-0.006206l0.083746,-0.037237l0.229527,-0.027928l0.068238,0.024825l0.055831,-0.003103l0.058933,-0.034134h0.117865l0.055831,-0.018619l0.055831,0.015516l-0.009305,0.024825l-0.065136,0.027928l-0.105458,0.021722l-0.096153,0.052753l-0.086848,0.015516l-0.127171,-0.015516l-0.068238,0.021722l-0.055831,0.055856l-0.120967,0.034134l-0.214019,0.003103l-0.052729,0.021722l-0.012407,0.034134l0.167493,0.183084l0.080645,0.027928l0.003102,0.04034l-0.08995,0.068268l-0.133374,0.009309l-0.096153,-0.04034l-0.124069,-0.121021l-0.151984,-0.093093h-0.058933l-0.006203,0.046547l0.046526,0.058959l0.006203,0.08999l-0.027915,0.024825l-0.043424,-0.015516l-0.086848,-0.086887l-0.074441,-0.009309l-0.093052,0.105506l-0.07134,0.117918l-0.015509,0.062062l-0.052729,0.04034l-0.142679,-0.021722l-0.024814,-0.04034l0.027915,-0.04965l-0.009305,-0.055856l-0.034119,-0.037237l0.006203,-0.062062l0.139577,-0.114815l0.01861,-0.080681l-0.055831,-0.124124l-0.065136,-0.058959l-0.058933,-0.164465l-0.055831,-0.037237l-0.083746,0.003103l-0.074441,0.065165l-0.046526,-0.003103l0.009305,-0.04965l0.062034,-0.037237l0.012407,-0.043444l-0.01861,-0.083784l-0.124069,-0.065165l-0.176798,-0.043444l-0.117865,-0.052753l-0.130272,-0.012412l-0.1799,-0.077578l-0.052729,-0.043444l-0.07134,-0.012412l-0.102357,0.003103l-0.263646,-0.142743l-0.207815,-0.027928l-0.30707,-0.223424l-0.124069,-0.031031l-0.102357,0.009309l-0.099255,-0.012412l-0.232629,-0.164465l-0.034119,-0.052753l-0.096153,-0.046547l-0.10856,-0.003103l-0.151984,-0.046547l-0.055831,-0.055856l-0.133374,-0.037237h-0.077543l-0.111662,-0.024825l-0.074441,-0.046547h-0.136476l-0.07134,0.037237l-0.10856,0.192393l0.003102,0.117918l0.065136,0.096196l0.021712,0.217218l0.055831,0.068268l0.062034,0.164465l0.055831,0.04034l0.102357,0.217218l0.145781,0.152052l0.245036,0.158259l0.164391,0.034134l0.161289,0.024825l0.195408,0.102403l0.08995,0.021722l0.341189,0.235836l0.055831,0.127228l0.027915,0.003103l0.027915,-0.037237l0.124069,0.006206l0.124069,0.065165l0.046526,0.083784l0.07134,0.068268l0.046526,0.024825l-0.003102,0.046547l-0.046526,0.012412l-0.074441,-0.027928l-0.117865,-0.0993l-0.003102,-0.04034l-0.068238,-0.024825l-0.186103,-0.018619l-0.058933,-0.04034l-0.043424,-0.021722l-0.080645,-0.009309l-0.130272,-0.046547l-0.161289,-0.093093l-0.015509,-0.037237l-0.055831,-0.024825l-0.57692,-0.031031l-0.130272,-0.018619l-0.124069,-0.043444h-0.07134l-0.037221,0.021722l-0.006203,0.034134l0.124069,0.158259l0.133374,0.105506l0.145781,0.173774l0.080645,0.068268l0.003102,0.055856l0.037221,0.021722l0.086848,-0.012412l0.10856,0.062062l0.052729,0.071372l0.124069,0.062062l0.347393,0.254455l0.046526,0.096196l0.105458,0.058959l0.1799,0.015516l0.093052,0.043444l0.093052,-0.009309l0.049628,-0.027928h0.111662l0.027915,0.037237l-0.034119,0.015516l-0.120967,0.012412l-0.155086,0.074475l-0.043424,0.065165l-0.120967,0.006206l-0.232629,-0.071372l-0.151984,-0.096196l-0.031017,-0.062062l-0.133374,-0.086887l-0.031017,-0.04965l0.01861,-0.031031l0.040322,-0.003103l0.006203,-0.031031l-0.040322,-0.031031l-0.114764,-0.009309l-0.328782,-0.006206l-0.158188,-0.043444l-0.164391,-0.077578l-0.102357,-0.08999l-0.130272,-0.043444l-0.145781,-0.015516l-0.040322,-0.034134l-0.012407,-0.077578l-0.155086,-0.130331l-0.204714,-0.08999l-0.139577,-0.024825l-0.195408,-0.105506l-0.161289,-0.027928l-0.19851,-0.058959l-0.142679,-0.068268l-0.07134,-0.003103l-0.055831,0.018619l-0.021712,0.034134l0.052729,0.086887l-0.01861,0.093093l-0.065136,0.065165l-0.164391,0.065165l-0.058933,0.086887l-0.012407,0.17998l0.012407,0.111712l0.049628,0.052753l-0.003102,0.080681l-0.055831,0.074475l-0.130272,0.080681l-0.124069,0.021722l-0.272951,0.031031l-0.099255,0.058959v0.04965l0.012407,0.031031l-0.01861,0.04034l-0.07134,0.021722l-0.111662,0.0993l-0.235731,0.083784l-0.027915,0.031031l0.012407,0.046547l0.226426,0.117918l0.195408,0.015516l0.223324,-0.037237l0.145781,-0.055856l0.279155,-0.018619l0.170595,0.021722l0.043424,-0.003103l0.058933,-0.021722l0.192307,-0.006206l0.189205,0.018619l0.058933,-0.015516l0.031017,-0.043444l0.07134,-0.021722l0.254341,0.021722l0.232629,0.043444l0.452851,0.148949l0.589327,0.265316l0.30707,0.195496l0.060484,0.06982l0.004653,0.060511l-0.055831,0.055856l0.009305,0.065165l0.074441,0.041892l0.204714,0.027928l0.297765,0.06982l0.237282,-0.013964l0.372206,-0.074475l0.43269,-0.013964l0.111662,-0.074475l0.097704,-0.097748l0.01861,-0.111712l0.055831,-0.074475l0.158188,-0.037237l0.041873,-0.055856l0.023263,-0.065165l0.120967,-0.051201l0.255892,0.018619l0.065136,-0.009309l0.046526,-0.051201l0.120967,-0.027928l0.102357,0.013964l0.120967,-0.027928l0.148883,-0.060511l0.200061,-0.013964l0.088399,-0.037237l0.046526,-0.060511l0.083746,-0.032583h0.28846l0.051178,-0.018619l-0.023263,-0.032583l-0.181451,-0.060511l-0.102357,-0.004655l-0.009305,-0.051201l0.107009,-0.093093l0.088399,0.004655l0.120967,0.088439l0.009305,0.06982l0.079094,0.107057l0.148883,0.046547h0.297765l0.190756,0.013964l0.158188,0.051201l0.14423,-0.023273l0.246587,-0.190841l0.055831,-0.121021l-0.130272,-0.162913l-0.01861,-0.190841l0.069789,-0.116367l0.14423,-0.190841l0.093052,-0.041892l0.079094,-0.06982l0.046526,0.009309l0.004653,0.051201l-0.055831,0.051201l-0.027915,0.121021l0.046526,0.144295l0.079094,0.027928l0.311723,0.004655l0.102357,0.032583l0.055831,0.065165l0.134925,0.013964l0.251239,-0.041892l0.139577,-0.148949l0.097704,-0.186187l0.023263,-0.232733l0.055831,-0.162913l0.051178,-0.055856l0.041873,0.018619l0.013958,0.093093l0.116315,0.158259l0.032568,0.148949l-0.013958,0.060511l0.032568,0.065165l0.093052,-0.013964l0.308121,-0.279504l0.023333,-0.093373l-0.038341,-0.213612l0.004653,-0.088439h0.051178l0.055831,0.074475l0.027915,0.102403l0.083746,0.018619l0.120967,-0.004655l0.153535,0.074475l0.009305,0.060511l-0.418732,0.344445l-0.037221,0.097748l-0.093052,0.111712l-0.069789,0.041892l-0.004653,0.06982l0.102357,0.055856l0.218671,0.009309l0.074441,-0.027928l0.14423,0.037237l0.200061,0.116367l-0.013958,0.055856l-0.130272,0.046547l0.009305,0.065165l0.079094,-0.009309l0.111662,-0.041892l0.14423,0.041892l0.060484,0.065165l0.051178,-0.032583l-0.051178,-0.158259l-0.093052,-0.200151l-0.009305,-0.144295l-0.046526,-0.093093l-0.041873,-0.297899l-0.120967,-0.265316l-0.046526,-0.195496l0.009305,-0.060511l0.069789,-0.004655l0.158188,0.060511l0.060484,0.102403l0.088399,0.009309l0.130272,-0.055856l0.12562,-0.153604l0.055831,0.009309l0.013958,0.093093l-0.102357,0.148949l-0.16284,0.144295l-0.051178,0.088439l-0.004653,0.065165l0.069789,0.265316l0.102357,0.102403l0.134925,0.274625l0.148883,0.046547l0.111662,-0.027928l0.032568,-0.097748l-0.050439,-0.171064l0.009333,-0.107379l0.115547,-0.177715l-0.01861,-0.214115l-0.060484,-0.13964l-0.01861,-0.111712l0.037221,-0.055856l0.046526,0.013964l0.01861,0.111712l0.074441,0.097748l0.065136,0.232733l0.004653,0.172223l-0.037221,0.162913l0.069789,0.13964l0.111662,0.046547l0.111662,-0.074475l0.097704,-0.144295l0.009305,-0.242043l-0.065136,-0.265316v-0.153604l-0.069789,-0.111712l0.01861,-0.158259l0.037221,-0.046547l0.060484,0.032583l0.046526,0.181532l0.107009,0.102403l0.009305,0.060511l-0.032568,0.055856l0.013958,0.06982l0.083746,0.055856l0.148883,0.335136l0.009305,0.125676l-0.055831,0.148949l0.023263,0.251352l0.069789,0.065165l0.14423,-0.004655l0.291562,-0.152052l0.031017,-0.080681l-0.068238,-0.086887l-0.006203,-0.105506l-0.062034,-0.080681l0.031017,-0.043444l0.080645,0.018619l0.124069,0.111712l0.012407,0.148949l0.086848,0.024825l0.148883,-0.186187l0.136476,-0.093093l0.136476,-0.04965l0.062034,-0.142743l0.068238,-0.012412l0.031017,0.074475l-0.01861,0.111712l-0.068238,0.105506l-0.285358,0.105506l-0.024814,0.068268l0.117865,0.062062h0.266748l0.353596,-0.080681l0.210917,-0.130331l0.316375,-0.477879l0.142679,-0.037237l0.148883,-0.117918l0.074441,-0.006206l0.01861,0.043444l-0.105458,0.105506l-0.161289,0.074475l-0.117865,0.155156l0.024814,0.0993l-0.161289,0.22963l-0.130272,0.055856l-0.093052,0.117918l-0.223324,0.074475l-0.409427,0.043444l-0.328782,0.031031l-0.186103,0.136537l-0.055831,0.105506l0.043424,0.117918l0.229527,0.055856l0.173696,0.006206l0.080645,0.055856l0.080645,0.111712l0.099255,0.018619l0.043424,0.0993l0.241934,0.111712l0.210917,0.006206l0.142679,-0.062062l0.105458,-0.0993l0.142679,-0.310311l0.117865,-0.037237l0.043333,-0.0495l-0.024722,-0.062212l0.043424,-0.062062l0.074441,-0.031031l0.012407,-0.186187l-0.080645,-0.105506l0.01861,-0.062062l0.093052,-0.006206l0.148883,0.074475l0.031017,0.080681l-0.006203,0.074475l0.037221,0.068268l0.080645,0.055856l0.043424,0.086887l-0.031017,0.068268l0.012407,0.080681l0.074441,0.018619l0.105458,-0.043444l0.031017,-0.124124l-0.043424,-0.117918l0.024814,-0.086887h0.136476l0.142679,0.074475l0.148883,0.211012l0.142679,0.130331l0.099255,0.018619l0.024814,0.068268l-0.192307,0.124124l-0.018425,0.058772l0.049442,0.021909l0.099255,-0.062062l0.167493,0.006206l0.136476,-0.062062l0.285358,0.043444l0.173696,0.074475l0.266748,0.04965l0.266748,-0.130331l0.21712,-0.062062l0.080645,0.024825l-0.006203,0.062062l-0.167493,0.074475l-0.204714,0.142743l-0.223324,0.080681l-0.341189,0.055856l-0.254341,0.024825l-0.204714,-0.080681l-0.055831,0.024825l-0.01861,0.0993l-0.080645,0.037237l-0.086848,0.024825l-0.006203,0.068268l0.043424,0.062062l-0.031017,0.012412l-0.080645,-0.055856l-0.086848,0.018619l-0.043424,0.093093l-0.055831,0.043444l-0.210917,0.006206l-0.521089,0.291692l-0.186103,0.062062l-0.297765,0.248249l-0.347393,0.0993l-0.192307,-0.006206l-0.366003,0.148949l-0.21712,0.037237l-0.105458,0.055856l-0.01861,0.074475l0.012407,0.068268l-0.074441,0.04965l-0.161289,0.006206l-0.167493,0.093093l-0.01861,0.062062l0.043424,0.037237l-0.031017,0.043444l-0.117865,0.062062l-0.173696,0.031031l-0.136476,0.068268l-0.19851,0.27928l0.012407,0.086887l0.173696,0.080681l0.19851,0.04965l-0.006203,0.043444l-0.136476,0.018619l-0.124069,0.0993l-0.155086,0.04965l-0.111662,-0.024825l-0.033188,-0.056919l-0.038297,-0.011941l-0.064991,0.013004l-0.01861,0.093093l0.074441,0.074475l0.130272,0.043444l0.192307,-0.031031l0.167493,0.018619l0.093924,0.101772h0.046962l0.107252,-0.08936l0.155086,-0.037237l0.024814,-0.080681l0.080645,-0.012412l0.086848,0.043444l0.012407,0.105506l0.21712,0.093093l0.55831,0.223424l0.285358,0.037237l0.291562,-0.012412l0.322579,0.062062l0.229527,0.105506l0.502479,-0.024825l0.490072,-0.204805l0.372206,-0.266868l0.192307,-0.04965l0.049628,-0.105506l0.080645,-0.006206l0.055831,-0.04965l-0.031017,-0.111712l0.080645,-0.111712l0.012407,-0.086887l0.130272,-0.055856l0.285358,0.012412l0.1799,0.0993l0.031017,0.086887l-0.01861,0.080681l0.024814,0.068268l0.062034,0.055856v0.111712l-0.074441,0.093093l-0.105458,0.080681l-0.037221,0.130331l-0.1799,0.17998l-0.037221,0.173774l-0.074441,0.093093l-0.204714,0.093093l-0.099255,0.093093l0.01861,0.055856l0.291562,0.04965l0.043424,0.055856l-0.049628,0.04965v0.04965l0.055831,0.031031l-0.006203,0.068268l-0.062034,0.031031l-0.006203,0.093093l-0.099255,0.024825l-0.148883,-0.043444l-0.235731,0.024825l-0.161289,-0.024825l-0.235731,0.043444l-0.192307,-0.043444l-0.229527,0.018619l-0.235731,-0.04965l-0.186103,-0.068268l-0.210917,-0.006206l-0.086848,0.024825l-0.062034,-0.012412l-0.01861,-0.04965l-0.093052,0.012412l-0.062034,0.04965l0.01861,0.043444l0.062034,0.012412l-0.006203,0.04965h-0.093052l-0.130272,-0.074475l-0.19851,-0.012412l-0.117865,0.037237l-0.142679,-0.062062l0.01861,-0.062062l-0.055831,-0.037237l-0.086848,0.018619l-0.161289,-0.031031l-0.105458,0.006206l-0.111662,-0.043444l-0.074441,-0.086887l-0.117865,-0.04965l-0.136476,0.024825l-0.080645,0.04965l-0.21712,0.018619l-0.074441,0.04965l-0.111662,0.006206l-0.093052,0.043444h-0.266748l-0.105458,-0.043444l-0.223324,-0.012412l-0.167493,0.037237l-0.093052,0.111712l-0.161289,0.055856l-0.130272,0.117918l-0.049628,0.117918l0.032568,0.093093l0.186103,0.148949l0.060484,0.125676l-0.013958,0.032583l-0.069789,-0.004655l-0.139577,-0.097748l-0.046526,-0.107057l-0.111662,-0.060511h-0.102357l-0.116315,-0.055856l-0.102357,-0.134985l0.004653,-0.074475l0.083746,-0.041892l-0.027915,-0.041892l-0.069789,-0.004655l-0.060484,0.037237v0.037237l-0.051178,0.013964l-0.060484,-0.027928l-0.158188,0.060511l-0.060484,-0.009309l0.032568,-0.055856l0.14423,-0.046547l0.130272,-0.065165l0.032568,-0.055856l0.130272,-0.032583v-0.046547l-0.079094,-0.009309l-0.074441,0.027928l-0.041873,-0.023273l0.027915,-0.037237l0.083746,-0.027928l-0.004653,-0.046547l-0.055831,-0.083784l-0.060484,-0.004655l-0.079094,0.018619l-0.023263,-0.041892l0.01861,-0.06982l-0.065136,-0.051201l-0.12562,-0.009309l-0.079094,0.041892v0.079129l0.027915,0.051201l-0.069789,0.06982l-0.102357,0.013964l-0.065136,0.083784l-0.134925,0.079129h-0.088399l-0.107009,0.046547l-0.032568,0.060511l-0.060484,0.009309l-0.055831,-0.032583l-0.060484,0.004655l-0.013958,0.037237l0.060484,0.037237l0.181451,0.023273l0.12562,-0.013964l0.116315,0.023273l0.060484,-0.009309l0.065136,-0.041892l0.041873,0.013964l0.023263,0.083784l-0.060484,0.041892l-0.116315,0.013964h-0.093052l-0.102357,0.032583l-0.069789,0.074475l-0.107009,0.009309l-0.079094,-0.004655l-0.079094,0.009309l-0.074441,0.046547l-0.111662,0.009309l-0.055831,0.037237l0.01861,0.065165l-0.041873,0.027928l-0.051178,-0.037237l-0.088399,0.004655l-0.013958,-0.046547l0.037221,-0.027928l-0.046526,-0.055856l-0.130272,-0.06982h-0.204714l-0.14423,0.023273l-0.158188,0.116367l-0.046526,0.153604l-0.074441,0.088439l-0.004653,0.055856l0.051178,0.013964l0.102357,-0.013964l0.102357,0.051201l0.069789,0.009309l0.088399,0.083784l-0.004653,0.046547l-0.069789,0.004655l-0.069789,-0.032583l-0.041873,-0.060511l-0.176798,-0.023273h-0.111662l-0.116315,-0.046547l-0.065136,0.009309l-0.060484,0.088439l0.01861,0.116367l0.060484,0.097748l0.01861,0.158259l-0.032568,0.065165l-0.069789,0.009309l-0.065136,-0.060511l-0.065136,-0.009309l-0.023263,-0.055856l0.013958,-0.134985l-0.111662,-0.060511l-0.060484,0.009309l-0.060484,-0.027928l0.004653,-0.055856l0.167493,-0.167568l0.065136,-0.172223l0.111662,-0.144295l0.111662,-0.065165l0.023263,-0.041892l-0.079094,-0.013964l-0.274502,0.018619l-0.158188,-0.032583l-0.097704,-0.041892l-0.134925,0.009309l-0.134925,0.079129l-0.065136,0.093093l0.004653,0.097748l0.055831,0.144295l0.004653,0.074475l0.084024,0.141226l0.01368,0.082198l-0.032568,0.153604l-0.065136,0.055856l-0.153535,0.009309l-0.088399,-0.037237l-0.069143,-0.005399l-0.116961,0.047291l-0.111662,-0.027928l-0.009305,-0.051201l0.065136,-0.074475l0.013958,-0.093093l-0.083746,-0.079129l-0.102357,0.013964l-0.032568,0.079129l-0.004653,0.06982l0.037221,0.041892l-0.032568,0.032583l-0.093052,-0.032583l-0.041873,-0.065165l0.037221,-0.06982l0.060484,-0.018619l0.01861,-0.065165l-0.032568,-0.097748l-0.134925,-0.079129l-0.055831,0.009309l-0.069789,0.046547l-0.097704,0.004655l-0.060484,0.032583l-0.004653,0.051201l-0.083746,0.06982l-0.158188,0.037237l-0.167493,-0.004655l-0.120967,-0.041892l-0.083746,0.013964l-0.107009,0.102403l-0.148883,0.228079l-0.134925,0.055856l-0.186103,-0.013964l-0.139577,0.009309l-0.051178,0.046547l-0.009305,0.083784l-0.097704,0.093093l-0.134925,0.027928l-0.134925,-0.023273l-0.041873,-0.051201l-0.079094,-0.004655l-0.079094,0.018619l-0.30707,-0.06982l-0.246587,-0.023273l-0.14423,-0.079129l-0.097704,-0.130331l-0.130272,-0.032583l-0.353596,0.083784l-0.055831,0.046547l-0.065136,0.004655l-0.055831,-0.032583l-0.079094,0.004655l-0.093052,0.088439l-0.023263,0.051201l-0.246587,0.13964l-0.032568,0.06982l-0.041873,0.027928l-0.083746,-0.023273l-0.148883,0.032583l-0.060484,-0.023273l-0.023263,-0.046547l-0.055831,0.004655l-0.032568,0.051201l0.074441,0.181532l-0.004653,0.102403l0.032568,0.065165l0.079094,0.060511l0.088399,0.190841l0.12562,0.097748l0.093052,0.027928l0.111662,0.16814Z M995.56319,235.954704l-0.003102,-0.043444l0.046526,-0.003103l0.167493,0.170671l0.07134,0.096196l0.10856,0.065165l0.065136,0.121021v0.062062l-0.07134,0.052753l-0.111662,0.012412l-0.049628,-0.037237l-0.024814,-0.043444l-0.065136,-0.015516l-0.046526,-0.04965l0.003102,-0.071372l0.046526,-0.062062l-0.049628,-0.124124l-0.086848,-0.130331Z M988.219859,236.12072l0.027916,-0.074475l-0.013958,-0.051201l-0.097704,-0.055856l-0.032568,-0.055856l-0.041873,0.023273l0.013958,0.079129l0.069789,0.06982l0.01861,0.116367l0.055831,0.079129l0.027916,-0.004655l-0.027916,-0.125676Z M987.148214,236.857709l0.034119,0.003103l0.021712,-0.04034l-0.009305,-0.04034l-0.027916,-0.012412l-0.021712,0.031031l0.003102,0.058959Z M975.848635,239.753542l0.02966,0.019782l0.079094,-0.04451l0.049434,-0.054401l-0.022245,-0.01731h-0.056849l-0.061792,0.059347l-0.017302,0.037092Z M976.18459,240.573491h0.024814l0.024814,-0.055856l-0.021712,-0.012412l-0.027916,0.021722v0.046547Z M974.223428,234.822795l-0.002472,0.024728l0.009887,0.022255l0.017302,-0.019782v-0.029674l-0.024717,0.002473Z M975.312064,235.987297l-0.010216,0.043391l0.03342,0.008756l0.029497,-0.021127l-0.020757,-0.034484l-0.031945,0.003464Z M968.950595,236.610672l0.049434,-0.007418l0.02966,-0.04451l-0.027189,-0.04451l-0.037075,0.007418l-0.02966,0.066765l0.01483,0.022255Z M967.622863,235.200647l0.013958,-0.079129l-0.046526,-0.041892l-0.046526,0.009309l-0.013958,0.055856l0.037221,0.06982l0.055831,-0.013964Z M967.405743,235.678527l0.012407,0.043444l0.049628,0.006206l0.006203,-0.043444l-0.024814,-0.024825l-0.043424,0.018619Z M966.448183,235.720467l0.034604,-0.002473l0.02966,-0.064293l-0.019773,-0.086548l-0.051905,-0.009891l-0.01483,0.042037l0.022245,0.121167Z M968.150253,237.04152l-0.002472,0.024728l0.009887,0.022255l0.017302,-0.019782v-0.029674l-0.024717,0.002473Z M969.583153,243.886257l0.024814,0.034134l0.065136,-0.031031l0.062034,-0.074475l-0.034119,-0.018619l-0.083747,0.043444l-0.034119,0.046547Z M968.618517,245.468844h0.096153l0.077543,-0.024825l0.015509,-0.04034l-0.062034,-0.024825h-0.093052l-0.068238,0.027928l-0.003102,0.04965l0.037221,0.012412Z M967.433658,245.506081l0.024814,0.034134h0.062034l0.127171,-0.08999l0.003102,-0.046547l-0.065136,-0.024825l-0.046526,0.024825l-0.012407,0.043444l-0.037221,0.024825l-0.040322,-0.012412l-0.024814,0.018619l0.009305,0.027928Z M967.573236,245.301275l0.021712,0.043444l0.068238,0.012412l0.096153,-0.037237l-0.021712,-0.034134h-0.046526l-0.003102,-0.034134l0.08995,-0.04965l0.01861,-0.04034l0.055831,-0.012412l0.058933,0.009309l0.08995,-0.031031l-0.006203,-0.031031l-0.062034,-0.015516l-0.127171,0.024825l-0.124069,0.077578l-0.10856,0.117918Z M968.019884,245.04682l0.01861,0.031031l0.065136,0.003103l0.062034,-0.037237l0.08995,-0.018619l0.077543,-0.04034l-0.009305,-0.04034h-0.074441l-0.167493,0.058959l-0.062034,0.043444Z M968.513058,245.121295l0.009305,0.037237l0.049628,0.037237l0.086848,-0.015516l0.074441,-0.046547l0.003102,-0.04034l-0.055831,-0.034134h-0.08995l-0.077543,0.062062Z M968.438617,245.053027l0.058933,-0.031031l0.096153,-0.021722l0.037221,-0.037237l-0.031017,-0.034134l-0.102357,0.031031l-0.086848,0.043444l-0.099255,0.018619l-0.012407,0.037237l0.139578,-0.006206Z M967.926832,245.738814l0.003102,0.065165l0.068238,0.046547l0.065136,-0.003103l0.040322,-0.04965l-0.043424,-0.077578l-0.068238,-0.018619l-0.065136,0.037237Z M968.333158,245.583659l0.046526,-0.024825l0.03106,0.001188l0.008208,0.014165l-0.011353,0.024987l0.037221,0.027928h0.117865l0.055831,-0.009309v-0.043444l-0.117865,-0.055856l-0.114764,-0.015516l-0.065136,0.031031l-0.012407,0.046547l0.024814,0.003103Z M968.134648,245.692268l0.036846,0.006782l0.012781,0.017205v0.028766l0.052729,0.006206l0.040322,-0.04034l0.080645,-0.009309l0.009305,-0.031031l-0.065136,-0.024825l-0.024814,0.018619l-0.052729,0.012412l-0.040322,-0.043444l-0.037221,0.003103l-0.031017,0.031031l0.01861,0.024825Z M969.152013,245.599174l0.052729,-0.009309l0.046526,-0.046547l0.006203,-0.034134l-0.099255,0.003103l-0.077543,0.034134v0.027928l0.07134,0.024825Z M965.863023,243.074502l0.076622,-0.014837l0.066736,0.014837l0.051905,-0.024728l0.024717,-0.042037l-0.034604,-0.027201l-0.081566,0.007418l-0.123584,0.059347l-0.004943,0.019782l0.024717,0.007418Z M968.658839,246.151528l0.114764,-0.043444l0.024814,-0.037237l-0.040322,-0.037237l-0.08995,0.003103l-0.105459,0.074475l0.009305,0.037237l0.086848,0.003103Z M968.671246,246.241518l0.065136,0.006206l0.102357,-0.021722l0.192307,0.021722l0.096153,-0.009309l0.015509,-0.055856l-0.043424,-0.027928l-0.080645,0.012412l-0.009305,-0.034134l0.031017,-0.034134l-0.015509,-0.027928l-0.077543,0.012412l-0.08995,0.068268l-0.120967,0.003103l-0.093052,0.021722l-0.083747,0.006206v0.034134l0.111662,0.024825Z M968.89457,246.315993l0.10856,0.009309l0.046526,-0.024825l-0.009305,-0.031031l-0.176798,-0.021722l-0.049628,0.006206l-0.012407,0.027928l0.093052,0.034134Z M968.590601,246.421499l0.114764,-0.027928l0.034119,-0.052753l-0.040322,-0.027928l-0.062034,0.003103l-0.114764,0.065165v0.04034h0.068238Z M964.97719,242.036123l-0.01294,0.017455l0.022245,0.012364l0.024717,-0.007418l0.007415,-0.019782l-0.041437,-0.002618Z M966.617905,241.698563l-0.009305,0.021722l0.01861,0.015516l0.027916,-0.018619l-0.006203,-0.021722l-0.031017,0.003103Z M967.924506,242.629496l0.024717,0.009891l0.01483,-0.009891l-0.004943,-0.024728h-0.024717l-0.009887,0.024728Z M968.784556,245.620314l0.024717,0.009891l0.01483,-0.009891l-0.004943,-0.024728h-0.024717l-0.009887,0.024728Z M970.472863,243.152128l0.00567,0.021091l0.028933,-0.003782v-0.022255l-0.019773,-0.012364l-0.01483,0.01731Z M966.784283,242.495481l0.012358,0.014837l0.019773,-0.004946l-0.002472,-0.024728l-0.024717,-0.004946l-0.004943,0.019782Z M968.75853,245.541185l0.012358,0.014837l0.019773,-0.004946l-0.002472,-0.024728l-0.024717,-0.004946l-0.004943,0.019782Z M965.971632,247.035333l0.012358,0.014837l0.019773,-0.004946l-0.002472,-0.024728l-0.024717,-0.004946l-0.004943,0.019782Z M968.738369,242.984609l0.011713,0.031564l0.020419,-0.001891l0.004943,-0.032146l-0.022245,-0.014837l-0.01483,0.01731Z M965.982827,246.30615l-0.004943,0.034619l0.019773,0.009891l0.024717,-0.022255l-0.012358,-0.022255h-0.027189Z M969.114356,245.453425v0.024728l0.024717,0.014837l0.022245,-0.014837l-0.012358,-0.024728h-0.034604Z M970.228408,243.061556l-0.002472,0.024728l0.009887,0.022255l0.017302,-0.019782v-0.029674l-0.024717,0.002473Z M968.460329,245.720196l0.034604,-0.024728l-0.009887,-0.019782l-0.02966,0.007418l-0.01483,0.027201l0.019773,0.009891Z M968.909301,246.481618l0.032951,-0.010033l0.00815,-0.031468l-0.024814,-0.024825l-0.032045,0.007561l-0.008596,0.032965l0.024355,0.025799Z M963.330078,247.187967l0.012407,0.043444l0.049628,0.006206l0.006203,-0.043444l-0.024814,-0.024825l-0.043424,0.018619Z M969.500182,246.316138l0.012892,0.042765l0.026655,-0.005673l0.012358,-0.039565l-0.027189,-0.019782l-0.024717,0.022255Z M965.08106,242.639411l-0.010216,0.043391l0.03342,0.008756l0.029497,-0.021127l-0.020757,-0.034484l-0.031945,0.003464Z M968.193608,245.264049l-0.010216,0.043391l0.03342,0.008756l0.029497,-0.021127l-0.020757,-0.034484l-0.031945,0.003464Z M966.141818,246.935074l-0.010216,0.043391l0.03342,0.008756l0.029497,-0.021127l-0.020757,-0.034484l-0.031945,0.003464Z M967.687515,246.508337l0.034604,-0.012364l-0.017302,-0.024728h-0.051905l-0.012358,0.027201l0.046962,0.009891Z M965.571073,243.605425l0.034604,-0.012364l-0.017302,-0.024728h-0.051905l-0.012358,0.027201l0.046962,0.009891Z M964.496326,241.441005l0.034604,-0.012364l-0.017302,-0.024728h-0.051905l-0.012358,0.027201l0.046962,0.009891Z M969.63278,246.334612l0.024814,-0.012412l-0.034119,-0.034134h-0.037221l0.006203,0.031031l0.040322,0.015516Z M966.729567,242.983251l0.034119,0.003103l0.021712,-0.04034l-0.009305,-0.04034l-0.027916,-0.012412l-0.021712,0.031031l0.003102,0.058959Z M967.089367,242.57364l0.049628,-0.037237l0.031017,-0.052753l-0.026365,-0.003103l-0.065136,0.046547l-0.023263,0.041892l0.034119,0.004655Z M965.265553,242.437104l0.037221,-0.012412l-0.031017,-0.046547l-0.049628,-0.015516l-0.012407,0.034134l0.055831,0.04034Z M966.307926,246.956446l0.049434,-0.007418l0.02966,-0.04451l-0.027189,-0.04451l-0.037075,0.007418l-0.02966,0.066765l0.01483,0.022255Z M967.672491,242.226092l0.003102,-0.034134l-0.043424,0.003103l-0.043424,0.037237l0.024814,0.018619l0.058933,-0.024825Z M966.720262,245.91414l0.003102,-0.034134l-0.043424,0.003103l-0.043424,0.037237l0.024814,0.018619l0.058933,-0.024825Z M970.417516,243.088757l0.065136,-0.006206l0.003102,-0.031031l-0.068238,-0.021722l-0.049628,0.012412l-0.003102,0.027928l0.052729,0.018619Z M967.852391,245.968444l0.065136,-0.006206l0.003102,-0.031031l-0.068238,-0.021722l-0.049628,0.012412l-0.003102,0.027928l0.052729,0.018619Z M966.949789,242.690007l0.009305,0.032583l0.046526,0.009309l0.046526,-0.027928v-0.032583l-0.055831,-0.009309l-0.046526,0.027928Z M968.913084,245.794573l0.061792,-0.009891l0.022245,-0.027201l-0.017302,-0.027201l-0.049434,-0.012364l-0.049434,0.024728l-0.002472,0.032146l0.034604,0.019782Z M968.798417,246.005682l0.038045,-0.018231l0.002472,-0.022255l-0.052923,-0.009164l-0.036058,0.026473l0.002472,0.024728l0.045993,-0.001552Z M968.774669,245.910794l0.103811,-0.054401l0.022245,-0.029674l-0.056849,0.004946l-0.103811,0.059347l0.002472,0.024728l0.032132,-0.004946Z M968.987234,245.935522l0.061792,-0.01731l-0.007415,-0.024728l-0.074151,-0.002473l-0.037075,0.019782l0.002472,0.022255l0.054377,0.002473Z M966.416293,244.143815l0.065136,-0.027928l-0.012407,-0.024825l-0.074441,0.012412l-0.111662,0.04965l0.01861,0.015516l0.114764,-0.024825Z M967.967155,246.604582l0.046526,-0.037237l-0.009305,-0.021722l-0.062034,0.012412l-0.024814,0.034134l0.006203,0.027928l0.043424,-0.015516Z M967.678694,246.374952l0.021712,-0.015516l-0.024814,-0.018619l-0.043424,0.003103l0.006203,0.024825l0.040322,0.006206Z M967.80824,245.267869l0.021712,-0.015516l-0.024814,-0.018619l-0.043424,0.003103l0.006203,0.024825l0.040322,0.006206Z M967.821374,246.461839l0.034119,-0.006206l0.006203,-0.024825l-0.027916,-0.018619h-0.052729l-0.012407,0.024825l0.052729,0.024825Z M981.888456,264.664487l0.00567,0.021456l0.028933,-0.003847v-0.02264l-0.019773,-0.012578l-0.01483,0.017609Z M982.783604,263.845252l0.034604,-0.012578l-0.017302,-0.025155h-0.051905l-0.012358,0.027671l0.046962,0.010062Z M983.072577,263.886349l-0.010216,0.044141l0.03342,0.008907l0.029497,-0.021492l-0.020757,-0.03508l-0.031945,0.003524Z M982.76005,263.889643l0.012892,0.043503l0.026655,-0.005771l0.012358,-0.040248l-0.027189,-0.020124l-0.024717,0.02264Z M982.774783,264.235155h0.024814l0.024814,-0.056821l-0.021712,-0.012627l-0.027916,0.022097v0.047351Z M982.509586,264.411931l0.012407,0.044194l0.049628,0.006313l0.006203,-0.044194l-0.024814,-0.025254l-0.043424,0.01894Z M982.566096,264.488186l-0.004943,0.035217l0.019773,0.010062l0.024717,-0.02264l-0.012358,-0.02264h-0.027189Z M981.169341,264.945926h0.069789l0.055831,-0.052086l-0.023263,-0.085231l-0.069789,-0.00947l-0.083747,0.037881l-0.013958,0.056821l0.065136,0.052086Z M983.581232,263.250261l-0.079094,-0.014205l-0.186103,0.071026l-0.139578,0.004735l-0.037221,0.056821l0.051178,0.085231l0.01861,0.137317l0.037221,0.061556l0.097704,0.02841l-0.009305,0.056821l-0.074441,0.037881l0.009305,0.047351l0.074441,-0.004735l0.097704,-0.127847l0.013958,-0.085231l0.167493,-0.052086l0.088399,-0.099436l-0.009305,-0.061556l-0.083747,-0.071026l-0.172146,0.02841l-0.004653,-0.01894l0.12562,-0.02841l0.027916,-0.023675l-0.013958,-0.02841Z M983.618889,263.178643l0.012358,0.015093l0.019773,-0.005031l-0.002472,-0.025155l-0.024717,-0.005031l-0.004943,0.020124Z M983.916218,263.269201l-0.009305,0.056821l0.037221,0.023675l0.060484,-0.023675v-0.042616l-0.041873,-0.023675l-0.046526,0.00947Z M984.037185,263.16503l0.046526,-0.00947l0.013958,-0.052086l-0.060484,-0.02841l-0.041873,0.02841v0.052086l0.041873,0.00947Z M983.00751,263.333125v0.025155l0.024717,0.015093l0.022245,-0.015093l-0.012358,-0.025155h-0.034604Z M983.012744,263.38965l-0.004943,0.035217l0.019773,0.010062l0.024717,-0.02264l-0.012358,-0.02264h-0.027189Z M982.981484,263.447358l0.011713,0.03211l0.020419,-0.001924l0.004943,-0.032702l-0.022245,-0.015093l-0.01483,0.017609Z M982.921001,263.429602l0.012358,0.015093l0.019773,-0.005031l-0.002472,-0.025155l-0.024717,-0.005031l-0.004943,0.020124Z M969.279184,242.050766l0.046526,-0.009309l-0.013958,-0.032583l-0.046526,-0.004655l-0.013958,0.027928l0.027916,0.018619Z M966.883102,242.478996l0.046526,-0.009309l-0.013958,-0.032583l-0.046526,-0.004655l-0.013958,0.027928l0.027916,0.018619Z M968.939545,245.63486l0.046526,-0.009309l-0.013958,-0.032583l-0.046526,-0.004655l-0.013958,0.027928l0.027916,0.018619Z M966.19452,246.826455l0.046526,-0.009309l-0.013958,-0.032583l-0.046526,-0.004655l-0.013958,0.027928l0.027916,0.018619Z M971.326321,242.132999l0.055831,-0.04965l-0.024814,-0.043444l-0.062034,0.024825l-0.01861,0.055856l0.049628,0.012412Z M968.168767,243.696967l0.055831,-0.04965l-0.024814,-0.043444l-0.062034,0.024825l-0.01861,0.055856l0.049628,0.012412Z M966.202274,244.224496l0.01861,-0.012412l-0.015509,-0.021722l-0.037221,0.006206l0.003102,0.024825l0.031017,0.003103Z M969.403253,246.111188l0.01861,-0.012412l-0.015509,-0.021722l-0.037221,0.006206l0.003102,0.024825l0.031017,0.003103Z M965.291918,246.049125l0.01861,-0.012412l-0.015509,-0.021722l-0.037221,0.006206l0.003102,0.024825l0.031017,0.003103Z M965.892102,246.91179l0.01861,-0.012412l-0.015509,-0.021722l-0.037221,0.006206l0.003102,0.024825l0.031017,0.003103Z M971.23327,242.176442l0.01861,-0.012412l-0.015509,-0.021722l-0.037221,0.006206l0.003102,0.024825l0.031017,0.003103Z M968.888367,243.000318l0.01483,-0.034619l-0.027189,-0.004946l-0.039547,0.024728l0.002472,0.024728l0.049434,-0.009891Z M967.525159,242.474341l0.01483,-0.034619l-0.027189,-0.004946l-0.039547,0.024728l0.002472,0.024728l0.049434,-0.009891Z M968.050901,245.541767l0.01483,-0.034619l-0.027189,-0.004946l-0.039547,0.024728l0.002472,0.024728l0.049434,-0.009891Z M965.980501,246.863692l0.01483,-0.034619l-0.027189,-0.004946l-0.039547,0.024728l0.002472,0.024728l0.049434,-0.009891Z M967.705156,242.342556l0.103811,-0.054401l0.022245,-0.029674l-0.056849,0.004946l-0.103811,0.059347l0.002472,0.024728l0.032132,-0.004946Z M966.498246,243.106648l0.037075,0.022255l0.05932,-0.034619l0.046962,-0.059347l-0.027189,-0.034619l-0.061792,0.009891l-0.054377,0.096439Z M964.874979,241.325559l0.009887,0.024728l0.022245,-0.002473l0.02966,-0.024728l-0.01483,-0.022255l-0.032132,0.004946l-0.01483,0.019782Z M972.057214,242.414848l0.009887,0.024728l0.022245,-0.002473l0.02966,-0.024728l-0.01483,-0.022255l-0.032132,0.004946l-0.01483,0.019782Z M969.078687,244.288643l0.009887,0.024728l0.022245,-0.002473l0.02966,-0.024728l-0.01483,-0.022255l-0.032132,0.004946l-0.01483,0.019782Z M969.286308,245.460746l0.009887,0.024728l0.022245,-0.002473l0.02966,-0.024728l-0.01483,-0.022255l-0.032132,0.004946l-0.01483,0.019782Z M966.517535,246.520265l0.009887,0.024728l0.022245,-0.002473l0.02966,-0.024728l-0.01483,-0.022255l-0.032132,0.004946l-0.01483,0.019782Z M966.351157,246.331509v0.027928l0.024814,0.009309l0.024814,-0.012412l0.003102,-0.031031l-0.024814,-0.006206l-0.027916,0.012412Z M967.951646,245.636412v0.027928l0.024814,0.009309l0.024814,-0.012412l0.003102,-0.031031l-0.024814,-0.006206l-0.027916,0.012412Z M970.299651,243.208227v0.027928l0.024814,0.009309l0.024814,-0.012412l0.003102,-0.031031l-0.024814,-0.006206l-0.027916,0.012412Z M967.838433,242.160927v0.027928l0.024814,0.009309l0.024814,-0.012412l0.003102,-0.031031l-0.024814,-0.006206l-0.027916,0.012412Z M967.734089,242.760457v0.01731h0.022245l0.039547,-0.019782l0.004943,-0.01731l-0.034604,0.002473l-0.032132,0.01731Z M968.161691,246.385571v0.01731h0.022245l0.039547,-0.019782l0.004943,-0.01731l-0.034604,0.002473l-0.032132,0.01731Z M966.693509,246.42019v0.01731h0.022245l0.039547,-0.019782l0.004943,-0.01731l-0.034604,0.002473l-0.032132,0.01731Z M969.657352,246.143237l-0.002762,0.022255l0.024862,0.004946l0.0221,-0.012364l-0.013812,-0.014837h-0.030387Z M968.38676,246.187747l-0.002762,0.022255l0.024862,0.004946l0.0221,-0.012364l-0.013812,-0.014837h-0.030387Z M967.93197,245.893485l-0.002762,0.022255l0.024862,0.004946l0.0221,-0.012364l-0.013812,-0.014837h-0.030387Z M969.165196,244.256206l-0.002762,0.022255l0.024862,0.004946l0.0221,-0.012364l-0.013812,-0.014837h-0.030387Z M969.415272,241.707048l-0.002762,0.022255l0.024862,0.004946l0.0221,-0.012364l-0.013812,-0.014837h-0.030387Z M970.553992,243.116685l0.037221,0.006206l0.012407,-0.015516l-0.027916,-0.034134l-0.034119,-0.003103l-0.003102,0.021722l0.015509,0.024825Z M967.349912,245.658133l0.037221,0.006206l0.012407,-0.015516l-0.027916,-0.034134l-0.034119,-0.003103l-0.003102,0.021722l0.015509,0.024825Z M969.545932,246.229106l0.037221,0.006206l0.012407,-0.015516l-0.027916,-0.034134l-0.034119,-0.003103l-0.003102,0.021722l0.015509,0.024825Z M965.231435,246.868347l0.009305,0.037237l0.060484,0.013964l0.037221,-0.037237l-0.01861,-0.032583l-0.051178,-0.013964l-0.037221,0.032583Z M967.85273,242.785185l0.017302,-0.024728l-0.027189,-0.004946l-0.042019,0.019782l-0.009887,0.024728l0.061792,-0.014837Z M970.302753,243.163232l0.017302,-0.024728l-0.027189,-0.004946l-0.042019,0.019782l-0.009887,0.024728l0.061792,-0.014837Z M969.004681,246.039816l0.034119,0.003103l0.021712,-0.04034l-0.009305,-0.04034l-0.027916,-0.012412l-0.021712,0.031031l0.003102,0.058959Z M967.266165,245.751227l0.07134,-0.009309l0.031017,-0.031031l-0.040322,-0.024825l-0.096153,0.012412l-0.021712,0.024825l0.055831,0.027928Z M967.027332,245.611587h0.07134l0.068238,-0.003103l0.015509,-0.021722l-0.074441,-0.043444l-0.068238,0.006206l-0.027916,0.034134l0.015509,0.027928Z M966.658227,245.527803l0.027916,-0.027928l-0.021712,-0.027928h-0.058933l-0.037221,0.024825l0.003102,0.034134l0.086848,-0.003103Z M967.746448,245.576968l0.046962,-0.01731l0.004943,-0.027201l-0.046962,-0.012364l-0.032132,0.022255l-0.002472,0.032146l0.02966,0.002473Z M969.046555,245.876175l0.046962,-0.01731l0.004943,-0.027201l-0.046962,-0.012364l-0.032132,0.022255l-0.002472,0.032146l0.02966,0.002473Z M968.045522,245.584386l-0.007415,0.032146l0.027189,0.012364l0.042019,-0.009891v-0.027201l-0.02966,-0.01731l-0.032132,0.009891Z M969.073743,246.019597l-0.007415,0.032146l0.027189,0.012364l0.042019,-0.009891v-0.027201l-0.02966,-0.01731l-0.032132,0.009891Z M968.055408,245.913267l0.037075,-0.002473l0.009887,-0.019782l-0.049434,-0.022255l-0.046962,0.004946l0.002472,0.029674l0.046962,0.009891Z M969.120705,245.965196l0.037075,-0.002473l0.009887,-0.019782l-0.049434,-0.022255l-0.046962,0.004946l0.002472,0.029674l0.046962,0.009891Z M966.619359,246.462227l0.037075,-0.002473l0.009887,-0.019782l-0.049434,-0.022255l-0.046962,0.004946l0.002472,0.029674l0.046962,0.009891Z M965.747871,246.868347l0.037075,-0.002473l0.009887,-0.019782l-0.049434,-0.022255l-0.046962,0.004946l0.002472,0.029674l0.046962,0.009891Z M968.500312,245.497838h0.037075l0.01483,-0.029674l-0.02966,-0.029674l-0.051905,0.002473l-0.009887,0.032146l0.039547,0.024728Z M968.811744,245.814356l0.034604,-0.012364l-0.017302,-0.024728h-0.051905l-0.012358,0.027201l0.046962,0.009891Z M968.950159,245.80941l-0.004943,0.034619l0.019773,0.009891l0.024717,-0.022255l-0.012358,-0.022255h-0.027189Z M968.604123,246.286659l0.003102,-0.034134l-0.043424,0.003103l-0.043424,0.037237l0.024814,0.018619l0.058933,-0.024825Z M968.851194,246.536459l0.024814,-0.012412l-0.034119,-0.034134h-0.037221l0.006203,0.031031l0.040322,0.015516Z M968.930385,245.500311v0.024728l0.024717,0.014837l0.022245,-0.014837l-0.012358,-0.024728h-0.034604Z M969.1644,245.864937l-0.010216,0.043391l0.03342,0.008756l0.029497,-0.021127l-0.020757,-0.034484l-0.031945,0.003464Z M968.91318,249.614838l0.276053,0.252537l0.158188,0.082075h0.102357l0.031017,-0.031567l-0.027916,-0.034724l-0.142679,-0.015784l-0.065136,-0.034724l-0.07134,-0.091545l-0.229528,-0.189403l-0.040322,0.00947l0.009305,0.053664Z M969.654492,251.808754l0.027916,0.044194l0.055831,0.031567l0.049628,-0.025254l-0.009305,-0.047351l-0.114764,-0.063134l-0.058933,-0.00947l-0.01861,0.031567l0.068238,0.037881Z M969.561441,252.061291l-0.009305,0.050507l0.021712,0.037881l-0.021712,0.069448l0.027916,0.00947l0.083747,-0.069448l0.105459,-0.006313l0.052729,-0.078918l-0.015509,-0.053664l-0.096153,-0.031567l-0.074441,0.015784l-0.074441,0.056821Z M970.557094,252.69579l0.093052,0.01894l0.055831,0.053664l0.046526,0.02841l0.093052,-0.022097l-0.006203,-0.034724l-0.08995,-0.006313l-0.074441,-0.059978l-0.009305,-0.072604l-0.040322,-0.041037l-0.040322,0.015784l-0.003102,0.050507l-0.049628,0.015784l-0.003102,0.02841l0.027916,0.025254Z M970.318261,252.124425l0.046526,-0.031567l0.052729,0.006313l0.006203,0.044194l0.034119,-0.003157l0.01861,-0.072604l-0.037221,-0.047351l-0.055831,-0.006313l-0.08995,0.063134l-0.006203,0.041037l0.031017,0.006313Z M970.156972,252.26332l0.040322,-0.00947l0.034119,-0.02841l-0.015509,-0.025254l-0.027916,0.012627l-0.021712,-0.012627l0.012407,-0.066291l-0.015509,-0.015784l-0.031017,0.063134v0.066291l0.024814,0.015784Z M970.557094,252.519014l0.034119,0.003157l0.021712,-0.041037l-0.009305,-0.041037l-0.027916,-0.012627l-0.021712,0.031567l0.003102,0.059978Z M970.196858,252.045606v0.025155l0.024717,0.015093l0.022245,-0.015093l-0.012358,-0.025155h-0.034604Z M969.466838,251.680907v0.02841l0.024814,0.00947l0.024814,-0.012627l0.003102,-0.031567l-0.024814,-0.006313l-0.027916,0.012627Z M970.078605,252.32606l0.038045,-0.018546l0.002472,-0.02264l-0.052923,-0.009322l-0.036058,0.026931l0.002472,0.025155l0.045993,-0.001578Z M970.060382,251.965258l0.046962,-0.017609l0.004943,-0.027671l-0.046962,-0.012578l-0.032132,0.02264l-0.002472,0.032702l0.02966,0.002516Z M968.45902,249.375175l0.061792,-0.017609l-0.007415,-0.025155l-0.074151,-0.002516l-0.037075,0.020124l0.002472,0.02264l0.054377,0.002516Z M968.598383,249.330745l-0.010216,0.044141l0.03342,0.008907l0.029497,-0.021492l-0.020757,-0.03508l-0.031945,0.003524Z M968.751891,249.4207l0.012407,0.044194l0.049628,0.006313l0.006203,-0.044194l-0.024814,-0.025254l-0.043424,0.01894Z M972.383525,253.620609l0.034604,-0.025155l-0.009887,-0.020124l-0.02966,0.007547l-0.01483,0.027671l0.019773,0.010062Z M974.964207,253.652373v0.025155l0.024717,0.015093l0.022245,-0.015093l-0.012358,-0.025155h-0.034604Z M972.908201,255.915638l0.116315,0.061556l0.079094,-0.004735l-0.013958,-0.056821l-0.12562,-0.075761l-0.027916,-0.066291l-0.093052,-0.014205l0.004653,0.047351l0.051178,0.033145l0.009305,0.075761Z M972.219618,255.828828l0.037221,0.006313l0.012407,-0.015784l-0.027916,-0.034724l-0.034119,-0.003157l-0.003102,0.022097l0.015509,0.025254Z M973.375204,255.733781l0.049434,-0.007547l0.02966,-0.045279l-0.027189,-0.045279l-0.037075,0.007547l-0.02966,0.067919l0.01483,0.02264Z M972.535994,255.844612l0.046526,0.037881l0.032568,-0.014205l-0.041873,-0.080496l-0.074441,-0.02841v0.042616l0.037221,0.042616Z M973.182703,255.877757l0.139578,0.047351l0.111662,-0.00947l0.013958,-0.056821l-0.148883,-0.075761l-0.120967,0.00947l-0.032568,0.042616l0.037221,0.042616Z M1023.658603,251.392683l0.055831,-0.018619v-0.065165l-0.049628,-0.052753l-0.086848,-0.009309l-0.052729,0.055856l0.021712,0.062062l0.111662,0.027928Z M1022.597813,251.122713l0.017302,-0.024728l-0.027189,-0.004946l-0.042019,0.019782l-0.009887,0.024728l0.061792,-0.014837Z M1021.037646,251.597489l0.07134,-0.009309l0.031017,-0.031031l-0.040322,-0.024825l-0.096153,0.012412l-0.021712,0.024825l0.055831,0.027928Z M1022.522064,250.971582v0.01731h0.022245l0.039547,-0.019782l0.004943,-0.01731l-0.034604,0.002473l-0.032132,0.01731Z M1022.782463,251.027292v0.024728l0.024717,0.014837l0.022245,-0.014837l-0.012358,-0.024728h-0.034604Z M1022.739427,250.976382l-0.004943,0.034619l0.019773,0.009891l0.024717,-0.022255l-0.012358,-0.022255h-0.027189Z M1021.285784,251.657999l-0.01861,-0.065165l-0.074441,-0.023273l-0.004653,0.051201l0.055831,0.060511l0.041873,-0.023273Z M965.625297,242.517899l-0.027189,-0.004946l-0.042019,0.019782l-0.009887,0.024728l0.061792,-0.014837l0.017302,-0.024728Z M968.320488,246.387022l0.04871,-0.014333l0.002865,-0.011466l-0.064469,-0.012899l-0.040114,0.011466l0.002865,0.024366l0.050142,0.002867Z M964.449678,242.88241l0.043148,-0.021583l-0.005393,-0.024281h-0.029664l-0.048541,0.018886l-0.002697,0.026979h0.043148Z "/>
</svg>
