<svg xmlns="http://www.w3.org/2000/svg" viewBox="1195.937 481.308 24.582 16.508">
  <path d="M1217.497017,481.539854l0.027659,-0.130317l0.147513,-0.102392l0.175171,0.027925l-0.00922,0.102392l-0.101415,0.139625l-0.138293,0.027925l-0.101415,-0.065158Z M1204.13175,482.256595l0.190537,-0.080672l0.018439,-0.086878l-0.079903,-0.05585l-0.116781,0.006206l-0.104488,0.105494l0.012293,0.086878l0.079903,0.024822Z M1211.946851,483.503911l0.092195,-0.027925l0.036878,-0.148933l-0.119854,-0.037233l-0.082976,0.046542v0.139625l0.073756,0.027925Z M1213.237587,483.233969l0.119854,0.065158l0.21205,0.027925l0.00922,-0.065158l-0.092195,-0.037233l-0.036878,-0.130317l-0.129074,-0.05585l-0.101415,0.018617l-0.018439,0.1117l0.036878,0.065158Z M1216.602721,482.73132l0.082976,0.037233l0.082976,-0.074467v-0.093083l-0.092195,-0.018617l-0.064537,0.05585l-0.00922,0.093083Z M1215.090716,483.354978l0.156732,0.083775h0.129074l0.027659,-0.148933l0.00922,-0.16755l-0.073756,-0.046542l-0.082976,0.027925l-0.156732,-0.027925l-0.138293,0.027925l-0.055317,0.1117l0.036878,0.102392l0.147513,0.037233Z M1215.948134,484.648835l0.20283,0.102392l0.101415,-0.05585l-0.00922,-0.121008l-0.092195,-0.121008l-0.230489,-0.083775l-0.082976,0.102392l0.110635,0.176858Z M1215.689986,484.025177l0.20283,0.130317h0.110635l-0.036878,-0.148933v-0.093083h0.110635l0.036878,-0.065158l-0.092195,-0.046542l-0.018439,-0.176858l-0.064537,-0.074467l-0.20283,0.018617l-0.138293,0.083775l-0.018439,0.260633l0.110635,0.1117Z M1216.971503,482.50792h0.055317l0.036878,-0.065158l-0.073756,-0.037233l-0.064537,0.037233l0.046098,0.065158Z M1215.994231,484.34166l0.064537,-0.018617l-0.027659,-0.05585l-0.064537,-0.009308l-0.027659,0.065158l0.055317,0.018617Z M1196.157869,496.943786l0.258147,0.235811h0.233562l0.172098,-0.173755l-0.049171,-0.285455l-0.208976,-0.173755l-0.196684,-0.024822l-0.27044,-0.124111l-0.159805,0.086878v0.186167l0.221269,0.273044Z M1196.723335,487.883682l0.159805,0.062056l0.122927,-0.037233l-0.015921,-0.107563l-0.143885,-0.177892l-0.147513,-0.012411l-0.036878,0.099289l0.061464,0.173755Z M1198.247633,488.156726l0.13522,0.049644l0.172098,-0.037233l0.196684,0.099289l0.122927,-0.049644l-0.049171,-0.124111l-0.245855,-0.062056l-0.110635,-0.099289h-0.172098l-0.098342,0.124111l0.049171,0.099289Z M1198.579537,487.647871l0.13522,0.024822l0.061464,-0.099289l-0.039781,-0.12368l-0.095439,-0.037664l-0.098342,0.074467l0.036878,0.161344Z M1199.366271,488.740048l0.073756,-0.086878l-0.036878,-0.322689l-0.110635,-0.024822l-0.049171,0.086878l0.073756,0.136522l0.049171,0.210989Z M1199.378564,489.21167l0.13522,0.285455v0.285455l0.344196,0.359922l0.319611,0.049644l0.233562,0.1117l0.086049,0.186167l0.295025,0.372333l0.208976,0.049644l0.516295,-0.148933l0.602344,-0.024822l0.516295,0.074467l0.282733,0.2234l0.184391,0.322689l0.13522,0.062056l0.196684,-0.037233l0.54088,0.024822l0.331904,0.161344l0.307318,0.322689l0.233562,0.310278l0.774442,0.434389l0.233562,0.235811l0.295025,0.1117l0.245855,-0.012411l0.307318,0.062056l0.491709,0.359922l0.208976,0.322689l0.307318,0.136522l0.196684,0.136522l0.159805,0.074467h0.307318l0.196684,0.074467l0.122927,0.186167l0.196684,0.1117l0.356489,0.049644l0.196684,-0.124111l0.54088,-0.012411l0.81132,0.136522l0.6761,0.3351l0.553173,0.508855l0.504002,0.744666l0.13522,0.484033l0.307318,0.273044l0.381075,0.024822l0.40566,0.1117l0.331904,0.235811l0.208976,0.136522l0.422477,0.062271l0.153062,-0.007024l0.194806,-0.126438l0.146104,-0.042146l0.320721,0.024822l0.141163,0.057574l0.195137,0.167464l0.208976,0.062056l0.172098,-0.074467l0.184391,0.012411l0.078537,0.059211l0.105854,0.189011l0.184391,0.086878l0.282733,-0.099289l0.073756,-0.161344l0.000299,-0.141693l-0.246153,-0.478862l-0.039098,-0.188451l0.063683,-0.283171l0.258147,-0.546088l0.430245,-0.4468l0.208976,-0.062056l0.159805,-0.124111l0.049171,-0.148933l0.159805,-0.024822l0.122927,0.062056l0.13522,-0.037233l-0.001707,-0.072341l-0.072049,-0.126237l-0.110635,-0.062056l-0.086049,0.049644l-0.122927,-0.024822l0.012293,-0.148933l0.122927,-0.074467l0.061464,-0.198578l-0.13522,-0.136522l-0.159805,0.024822l-0.282733,-0.173755v-0.105494l-0.116781,-0.229605l-0.116781,-0.1117l-0.016433,-0.124628l0.053311,-0.086361l0.315428,-0.096272l0.053354,-0.077483l-0.024585,-0.161344l-0.112257,-0.168584l-0.109013,-0.042405l-0.155366,0.014307l-0.127366,-0.026718l-0.147513,-0.124111l-0.221269,-0.037233l-0.074354,-0.099935l-0.062616,-0.259901l0.00175,-0.868863l0.110635,-0.273044l0.295025,-0.3351l0.13522,-0.210989l0.049171,-0.359922l0.122927,-0.173755l0.110635,-0.372333v-0.235811l-0.049171,-0.1117l0.023903,-0.107046l0.381757,-0.439043l0.036878,-0.136522l0.651515,-0.918422l0.39553,-0.388536l0.28057,-0.35613l0.221269,-0.4468l0.305247,-0.467593l0.074177,-0.162443l0.013943,-0.201508l0.186088,-0.201079l0.281035,-0.134021l0.05883,-0.067882l-0.013458,-0.055798l-0.35269,-0.050075l-0.27044,-0.136522l-0.170007,0.010989l-0.144798,0.062847l-0.349002,0.310909l-0.799027,0.297866l-0.321276,0.016764l-0.10897,-0.029175l-0.073756,-0.136522l0.024585,-0.186167l-0.02275,-0.111743l-0.063299,-0.03719l-0.061464,0.086878l0.012293,0.359922l-0.295025,0.397155l-0.565465,0.3351l-0.181958,0.010127l-0.076189,-0.034949l-0.086049,-0.148933l-0.098342,-0.062056l-0.208976,0.024822l-0.233562,-0.037233l-0.233562,-0.260633l-0.172098,-0.024822l-0.13522,0.099289l-0.467124,0.136522l-0.40566,-0.024822l-0.184391,0.074467l-0.387071,0.466787l-0.164266,0.114681l-0.665643,0.212842l-0.479416,0.136522l-0.221269,-0.049644h-0.159805l-0.147513,0.1117l-0.553173,0.1117l-0.995711,-0.086878l-0.184391,0.037233l-0.381075,-0.037233l-0.208976,-0.099289l-0.54088,0.024822l-0.528587,0.260633l-0.534221,0.185391l-0.141879,0.000776l-0.700685,-0.148933l-0.491709,-0.235811l-0.356489,-0.297866v-0.294534l-0.034659,-0.077282l-0.162025,-0.062573l-0.122927,0.1117l-0.454831,0.037233l-0.307318,-0.173755l-0.012293,-0.248222l-0.061464,-0.235811l-0.221269,-0.124111l-0.024585,-0.124111l-0.159805,-0.074467l-0.122372,0.037147l-0.369337,0.285542l-0.235952,0.100797l-0.120537,-0.013919l-0.13522,-0.1117l-0.245855,-0.049644l-0.258147,0.161344l-0.159805,0.285455l0.110635,0.285455l-0.061464,0.148933l-0.835905,0.397155l-0.393367,-0.024822l-0.233562,-0.186167l-0.344196,-0.409566l-0.012293,-0.210989l-0.113708,-0.266839l-0.064537,-0.074467l-0.239708,-0.037233l-0.092195,0.083775l0.027317,0.079422l0.092537,0.088127l0.018439,0.148933l-0.218196,0.214092l-0.147513,-0.086878l-0.122927,0.037233l-0.012293,0.136522l-0.295025,0.186167l-0.172098,-0.024822l-0.159805,0.037233l-0.393367,0.5585l-0.049171,0.260633l-0.172098,0.285455l-0.024585,0.173755l0.079903,0.214092l-0.030945,0.334841l-0.048957,0.059211l-0.138891,0.035617l-0.057793,0.038849l-0.029174,0.115686l0.020872,0.070243l0.082058,0.03747Z M1217.836094,494.070616l0.030732,-0.006206l0.002305,-0.039905l-0.045329,-0.071795h-0.061464l-0.024585,0.062056l0.098342,0.05585Z "/>
</svg>
