<svg xmlns="http://www.w3.org/2000/svg" viewBox="1170.902 461.882 11.242 18.974">
  <path d="M1171.475011,464.208586l-0.030839,-0.111665l0.049343,-0.099257l0.092518,-0.037222l0.160365,-0.192311l0.123358,-0.024814l0.025591,-0.029416l0.002193,-0.044883l-0.052456,-0.074587l0.030839,-0.093054l0.185037,-0.08685l0.129811,0.025102l0.107053,0.09831l0.027927,0.121717l-0.048915,0.151902l-0.135694,0.074443l-0.185422,-0.036748l-0.083781,0.014044l-0.16255,0.128164l-0.053883,0.103565v0.074903l0.107053,0.102991l-0.004654,0.06554l-0.079355,0.099659l-0.116134,0.017376l-0.093575,-0.029783l-0.049343,-0.117868l0.055511,-0.099257Z M1171.407164,464.49395l0.030839,0.08685l0.067847,-0.006204l0.012336,-0.062036l-0.055511,-0.043425l-0.055511,0.024814Z M1172.045542,472.301162l0.083267,-0.046527l-0.027756,-0.093054l-0.10177,0.009305l-0.046259,0.102359l0.092518,0.027916Z M1171.675468,479.028949l0.14803,0.111665l0.153169,-0.000711l0.073308,-0.06671l0.032574,-0.127992l0.012807,-0.384622l-0.031311,-0.080647l-0.111022,-0.037222l-0.126463,0.002003l-0.299122,0.128272l-0.046473,0.071858l-0.006982,0.070221l0.037509,0.040662l0.117716,0.059199l0.02979,0.047604l0.016469,0.16642Z M1172.38786,479.373248v0.176802l0.268304,0.50249l0.138778,0.102359l0.121506,-0.028755l0.03766,-0.059323l0.053626,-0.367885l0.074015,-0.204718l-0.029897,-0.210362l-0.038973,-0.081203l-0.142552,-0.108394l-0.094245,-0.028088h-0.184681l-0.092518,-0.065138l-0.075385,-0.012106l-0.052363,0.0316l-0.069817,0.172042v0.070221l0.086543,0.110458Z M1180.187167,479.270889l0.055511,-0.018611v-0.055832l-0.055511,-0.027916l-0.046259,0.046527l0.046259,0.055832Z M1180.714522,478.833536l0.009252,-0.074443l-0.055511,-0.037222l-0.037007,0.055832l0.018504,0.065138l0.064763,-0.009305Z M1181.20487,465.154632l0.024672,0.055832l0.095602,-0.027916l0.135694,-0.117868l0.111022,-0.049629v-0.068239l-0.10177,0.009305l-0.26522,0.198515Z M1181.485509,465.424488h0.086351l0.030839,-0.068239l-0.049343,-0.068239l-0.154197,0.018611l-0.018504,0.068239l0.104854,0.049629Z M1178.919664,462.521211l0.092518,-0.031018l0.030839,-0.099257l-0.098686,-0.068239l-0.086351,0.049629l0.006168,0.111665l0.055511,0.037222Z M1177.679916,462.483989l0.024672,-0.080647l-0.092518,-0.037222l-0.049343,0.049629l-0.006168,0.080647l0.123358,-0.012407Z M1178.950503,462.155199l0.080183,-0.031018l-0.030839,-0.068239l-0.080183,-0.006204l-0.055511,0.049629l0.086351,0.055832Z M1178.944335,461.993906h0.067847l0.006168,-0.062036l-0.11719,-0.049629l-0.037007,0.049629l0.080183,0.062036Z M1179.141708,462.01872l0.074015,-0.062036l-0.037007,-0.062036l-0.092518,0.043425l-0.018504,0.074443l0.074015,0.006204Z M1180.480142,463.854981l0.067847,-0.049629l0.006168,-0.049629h-0.080183l-0.055511,0.068239l0.061679,0.031018Z M1180.665179,463.780538l0.074015,-0.031018l-0.006168,-0.080647h-0.067847l-0.037007,0.062036l0.037007,0.049629Z M1180.110068,463.054719l0.074015,-0.006204l0.006168,-0.049629l-0.080183,-0.024814l-0.049343,0.043425l0.049343,0.037222Z M1179.209555,462.657689l0.185037,0.006204l0.154197,-0.055832l0.049343,-0.099257l-0.049343,-0.068239l-0.043175,-0.229533l-0.098686,-0.012407l-0.049343,0.136479l-0.209709,0.136479l-0.018504,0.148886l0.080183,0.037222Z M1179.709154,462.825186l0.141862,-0.167497l0.024672,-0.1737l-0.092518,-0.068239l-0.111022,0.08685l-0.055511,0.124072l0.030839,0.068239l-0.030839,0.049629l-0.067847,0.037222l-0.012336,0.08685l0.055511,0.024814l0.055511,-0.043425l0.086351,0.055832l-0.006168,0.062036l0.030839,0.018611l0.086351,-0.093054l-0.030839,-0.043425l-0.067847,0.006204l-0.037007,-0.031018Z M1179.437767,462.843797l0.037007,-0.055832l-0.024672,-0.093054l-0.098686,0.049629l-0.006168,0.08685l0.092518,0.012407Z M1177.877289,462.353714l-0.11719,0.105461l0.012336,0.093054l-0.073847,0.157834l-0.001567,0.07885l0.063078,0.123124l-0.049343,0.148886l-0.191205,0.049629l-0.061679,0.024814l-0.092518,0.136479l-0.271387,0.037222l-0.14803,-0.062036l-0.209709,0.062036l-0.160365,0.285365l-0.370074,0.397029l-0.209709,0.049629l-0.185037,0.1737l-0.012336,0.198515l-0.394745,0.421844l-0.308395,0.136479l-0.38241,0.012407l-0.431753,0.223329l-0.160365,0.235736l-0.542775,0.248143l-0.456596,0.050469l-0.123187,-0.025654l-0.166555,-0.128832l-0.117169,-0.020054l-0.259052,0.037222l-0.456424,-0.111665l-0.155268,-0.091589l-0.239477,-0.293033l-0.067718,-0.142338l-0.000128,-0.090297l0.055511,-0.093054l-0.013708,-0.068939l-0.025383,-0.019233l-0.07193,0.004423l-0.077013,-0.02783l-0.061765,-0.09314l-0.074015,0.027916l-0.055511,0.24194l0.046259,0.111665l0.17994,0.161035l0.024092,0.076588l-0.03133,0.184221l-0.200457,0.434251l-0.129526,0.065138l-0.046259,0.093054l0.055511,0.093054l-0.037007,0.130275l-0.14803,0.148886l-0.024586,0.101713l0.034909,0.105332l0.20247,0.137254l0.138778,0.055832l0.074015,0.102359l0.003641,0.118859l-0.096159,0.132386l-0.212792,0.12097l-0.092518,0.130275l-0.003469,0.157071l0.099072,0.212042l0.055511,-0.012407l0.033923,-0.142682l0.076799,-0.134196l0.118689,-0.056177l0.082067,0.004265l0.037007,0.102359l-0.10177,0.148886l0.055511,0.083748h0.194289l0.175785,-0.167497l0.212792,-0.009305l0.129526,0.130275l-0.009252,0.158191l0.157281,0.38152l0.203541,0.093054l0.14803,0.390826l0.037007,0.334994l-0.13261,0.350503l0.092518,0.142682l0.160365,0.006204l0.092518,0.037222l0.055511,0.074443l0.123358,0.037222l0.135694,0.223329l0.030839,0.111665l-0.067847,0.223329l-0.055511,0.217125v0.179904l-0.055511,0.136479l0.037007,0.297772l0.172701,0.198515l0.018504,0.235736l-0.215876,0.235736l-0.240548,0.074443l-0.098686,-0.049629l-0.098686,0.006204l-0.111022,0.093054l0.030839,0.055832l0.123358,-0.018611l0.080183,0.062036l0.006168,0.186108l-0.098686,0.124072l-0.012336,0.093054l0.049343,0.099257l-0.037007,0.378419l0.043175,0.093054h0.086351l0.11719,0.142682l0.009252,0.139581l0.033923,0.015509l0.037007,-0.15509l0.154197,-0.1737l0.215876,-0.018611l0.197373,0.08685l0.123358,0.24194l0.018504,0.316383l-0.123358,0.390826l-0.141862,0.279161l-0.018504,0.117868l0.141862,0.105461l0.104854,-0.012407l0.086351,0.037222l-0.049343,0.068239h-0.185037l-0.172701,-0.130275l-0.246716,-0.440455l-0.080183,-0.006204l-0.037007,0.117868l0.061679,0.32879l-0.024672,0.1737l-0.006168,0.08685l0.061679,0.105461l-0.043175,0.074443l0.006168,0.210922l0.098686,0.105461l0.018504,0.136479l-0.11719,0.378419l-0.296059,0.434251l-0.154197,0.111665l0.012336,0.167497l0.129869,0.072289l0.04189,0.077243l-0.023729,0.154443l-0.178869,0.186108l-0.012336,0.15509l0.111022,0.248143l0.14803,0.068239l0.116462,0.157028l0.020945,0.168531l-0.112735,0.145913l-0.35157,0.272958l-0.018504,0.142682l0.067847,0.105461l0.104854,-0.006204l0.055511,0.062036v0.136479l0.055511,0.167497l0.030839,0.021713l-0.012336,-0.127173l0.037007,-0.043425l0.135694,0.130275l-0.024672,0.192311l0.039535,0.089205l0.044218,0.014044l0.070445,-0.03501l0.080183,0.037222l0.093732,0.166319l0.004654,0.072562l-0.055211,0.133334l0.010994,0.049241l0.03653,0.0191l0.051163,-0.018712l0.256739,0.02419l0.146616,0.035111l0.127084,0.1144l0.030839,0.148886l-0.055511,0.167497l0.002313,0.081831l0.096373,0.184923l0.053734,0.036274l0.038073,0.003126l0.05269,-0.027703l0.059045,0.019322l0.066626,0.103565l0.007389,0.063931l-0.092518,0.186108l-0.018504,0.124072l0.074015,0.043425l0.109909,-0.041853l0.040193,0.015876l0.01566,0.03679l-0.030069,0.045019l0.061679,0.117868l0.069389,-0.01706l-0.006561,-0.093246l-0.030447,-0.046335l0.02313,-0.05118h0.087893l0.009252,-0.041874l-0.047801,-0.060485l0.030839,-0.049629l0.074015,0.043425l0.225128,-0.100808l0.046259,-0.06979l-0.009252,-0.06979l0.020174,-0.013398l0.023272,0.004681l0.032581,0.063199l0.053526,0.044473l0.218932,0.098008l0.030083,0.035412l0.009309,0.039792l0.114035,0.060858l0.053526,-0.011704l0.055854,0.007022l0.094931,0.042319l0.037007,0.080647l0.035622,0.022158l0.118575,0.00886l0.044332,-0.015882l0.091362,-0.083375l0.180925,-0.096859l0.058181,-0.051495l0.050785,-0.087382l0.635293,-0.508694l0.074015,-0.105461l0.006168,-0.179904l0.131068,-0.148886l-0.004626,-0.093054l-0.078641,-0.079096l-0.127984,-0.187658l-0.018504,-0.229533l0.037007,-0.179904l0.197373,-0.266754l0.184866,-0.158515l0.074186,-0.033797l0.187628,-0.02238l0.062835,0.024577l0.070267,0.090857l0.154197,0.08685l0.065277,-0.002154l0.013963,-0.045644l-0.054569,-0.05146l0.006168,-0.062036l0.172701,-0.142682l0.210822,-0.049284l0.082621,0.007119l0.095134,0.066979l0.073586,0.024211l0.240976,0.006807l0.160365,0.062036l0.450257,0.322586l0.043175,0.124072l0.306082,0.130534l0.12575,0.000296l0.17879,-0.050183l0.086436,0.021799l0.061593,0.046441l-0.012336,0.080647l0.055511,0.117868l0.031375,0.018374l0.019445,-0.021163l0.004692,-0.077858l0.067847,-0.130275l0.154197,-0.037222l0.067847,-0.080647l0.043175,-0.186108l0.049343,-0.037222l-0.012336,-0.099257l-0.080183,-0.068239l-0.024286,-0.076575l0.079797,-0.370083l0.161072,-0.279463l0.076799,-0.042133l0.129162,-0.010533l0.013963,-0.035111l-0.031241,-0.035545l-0.115375,-0.062484l-0.061679,-0.111665l0.018504,-0.310179l0.166533,-0.440455l0.089584,-0.068412l0.020945,-0.073732l-0.011843,-0.323125l-0.080183,-0.111665l-0.002227,-0.06027l0.063906,-0.231299l0.067847,-0.068239l0.074015,-0.334994l-0.061679,-0.24194l-0.012336,-0.248143l0.074015,-0.105461l0.018504,-0.217125l0.074015,-0.117868l0.018504,-0.248143l-0.061679,-0.223329l0.104854,-0.496287l0.067847,-0.093054l0.006168,-0.080647l-0.061679,-0.080647l-0.024672,-0.198515l0.055511,-0.15509l0.14264,-0.085016l0.022066,-0.034805l-0.007424,-0.035269l-0.083267,-0.018611l-0.086351,-0.074443l0.006168,-0.297772l0.104854,-0.347401l0.185037,-0.347401l0.006653,-0.063501l-0.031895,-0.051095l-0.270817,-0.164565l-0.178869,-0.217125l-0.111022,-0.254347l-0.092518,-0.136479l-0.037007,-0.378419l0.049343,-0.279161l0.283723,-0.428047l0.326899,-0.341197l0.209709,-0.093054l0.111022,-0.148886v-0.148886l0.055511,-0.099257l0.080183,-0.080647l0.185037,-0.403233l0.037007,-0.210922l-0.055511,-0.093054h-0.080183l-0.067847,-0.093054v-0.080647l-0.074015,-0.167497l-0.080183,-0.031018l-0.123358,-0.105461l-0.080183,-0.32879l0.067847,-0.24194l-0.074015,-0.186108l-0.123358,-0.062036l-0.061679,-0.111665v-0.136479l0.030839,-0.099257l-0.024672,-0.068239l-0.092518,-0.031018l-0.178869,-0.1737l-0.009252,-0.165946l0.097144,-0.055832l0.032381,-0.041874l-0.050885,-0.088401l0.060137,-0.06979h0.166533l0.009252,-0.065138l-0.155254,-0.106753l-0.094546,-0.028175l-0.097144,0.023263l-0.055511,-0.023263l0.009252,-0.097706l-0.060137,-0.055832h-0.083267l-0.10177,-0.06979l0.004626,-0.088401l0.1249,-0.107012l-0.009252,-0.065138l-0.125871,-0.007582l-0.083781,0.042133l-0.086408,0.10503l-0.120274,-0.013958l-0.064763,-0.102359l-0.1249,-0.023263l-0.078641,0.041874h-0.111022l-0.032381,-0.055832l0.092518,-0.055832l0.232638,0.015394l0.074472,-0.046814l0.086094,-0.233783l-0.041633,-0.088401l0.106396,-0.172149l0.091176,-0.029984l0.049311,0.025199l0.04455,0.042007l0.176099,0.026423l0.059823,-0.031075l-0.038095,-0.068969l-0.049654,-0.021673l-0.13892,-0.002413l-0.134152,-0.107012l-0.111022,-0.004653l-0.185037,0.116317l-0.064763,-0.018611l0.04743,-0.114709l-0.001171,-0.052788l-0.083267,-0.037222l-0.097144,0.027916l-0.050885,0.134928l-0.097144,0.037222l-0.032381,-0.05118l0.082724,-0.096328l0.024502,-0.070324l0.003796,-0.145079l0.064791,-0.177836l0.051202,-0.036188h0.087548l0.069389,-0.05118l0.033895,-0.207562l-0.023272,-0.051495l-0.066134,-0.010799l-0.064763,0.055832l-0.03201,-0.012264l-0.018875,-0.038916l0.028184,-0.073438l-0.008485,-0.05449l-0.089088,-0.160539l-0.055511,0.009305l-0.027756,0.06979l-0.050885,0.027916l-0.194289,-0.032569l-0.058052,0.014188l-0.023272,0.046814l0.008852,0.097189l-0.018161,0.080704l-0.092861,0.105403l-0.061799,0.00777l-0.045483,-0.038271l0.020931,-0.217642l-0.123329,-0.231773l-0.111707,-0.102991l-0.258395,-0.17393l-0.14803,-0.037222l-0.185037,0.124072l-0.104854,-0.018611l-0.024672,-0.043425l0.030839,-0.055832l-0.018504,-0.068239l-0.061679,-0.018611l-0.030839,0.111665l0.024672,0.074443l-0.030839,0.018611l-0.049343,-0.024814l-0.030839,-0.055832l0.049343,-0.062036l0.030839,-0.136479l-0.030839,-0.093054l-0.16719,-0.050979l-0.079526,-0.048279l-0.055511,-0.080647h-0.086351l-0.061679,0.080647l-0.160365,-0.012407Z "/>
</svg>
