<svg xmlns="http://www.w3.org/2000/svg" viewBox="1160.888 415.122 78.607 72.984">
  <path fill-rule="evenodd" d="M1182.485822,445.037992v-0.04745l0.045877,-0.053777l0.079521,0.003163l0.024468,0.034797l-0.021409,0.04745l-0.064228,0.031633l-0.064228,-0.015817Z M1181.947527,448.391135l0.171276,-0.126534l0.058111,-0.11388l-0.003058,-0.126534l-0.091755,-0.139187l-0.051994,-0.006327l-0.088696,0.072757l-0.073404,0.224597l0.030585,0.199291l0.048936,0.015817Z M1183.539475,451.739534l-0.004588,0.04745l0.119281,0.05694l0.151396,0.01898l0.073404,-0.02847l-0.004588,-0.090155l-0.091755,-0.180311h-0.032114l-0.004588,0.061685l-0.068816,0.08541l-0.137632,0.02847Z M1183.901907,450.135719l-0.009175,0.180311l0.197273,0.232506l0.155983,0.03796l0.247738,-0.02847l0.211036,0.052195l0.077992,-0.01898l0.022939,-0.099645l0.10093,-0.023725l0.110106,0.052195l0.082579,-0.014235l0.064228,-0.109135l0.10093,-0.00949l0.073404,0.0949h0.036702v-0.07592l0.077992,-0.071175l0.096343,0.01898l0.064228,0.180311l0.133045,0.166076l0.091755,0.052195l0.192685,0.004745l0.068816,-0.071175l-0.022939,-0.15184l-0.215624,-0.147095l0.004588,-0.06643l0.160571,-0.071175l0.068816,-0.10439l0.032114,-0.465011l-0.055053,-0.14235l-0.105518,-0.05694l-0.068816,0.01898l-0.155983,0.227761l-0.055053,0.180311l-0.10093,0.109135l-0.238563,-0.004745l-0.174334,-0.137605l-0.165159,-0.08541l-0.027526,0.023725l0.04129,0.071175l-0.032114,0.12337l-0.14222,0.109135l-0.133045,-0.00949l-0.123869,-0.128115l-0.188098,-0.033215l-0.362432,0.061685l-0.137632,0.128115Z M1185.207885,453.708715l-0.018351,0.11388l0.042819,0.126534l0.085638,0.012653l0.097872,-0.069594l0.006117,-0.126534l-0.091755,-0.088574l-0.12234,0.031633Z M1189.037124,453.512587l-0.067287,0.03796l0.012234,0.063267l0.067287,0.031633l0.067287,0.15184l0.165159,0.126534l0.073404,-0.025307v-0.170821l-0.159042,-0.335314l-0.091755,-0.063267l-0.048936,0.031633l-0.018351,0.15184Z M1190.453208,454.434702l0.009175,0.099645l0.045877,0.052195h0.04129l0.009175,-0.05694l-0.018351,-0.099645l-0.036702,-0.014235l-0.050465,0.01898Z M1209.586892,466.382847l0.037118,0.037118l0.046398,-0.023199l0.055678,-0.129914l-0.032479,-0.037118l-0.083516,0.023199l-0.023199,0.129914Z M1210.876756,467.988218l0.064957,0.051038l0.120635,0.00464l0.199511,-0.060317l0.055678,-0.060317l-0.046398,-0.027839l-0.111355,0.023199l-0.078877,-0.032479l-0.139194,-0.00928l-0.060317,0.037118l-0.00464,0.074237Z M1208.575416,466.707633l0.129914,0.074237l0.385103,-0.00464l0.069597,-0.041758l0.092796,-0.018559l0.051038,-0.120635l-0.013919,-0.129914l-0.129914,-0.074237l-0.273748,-0.041758l-0.097436,-0.046398h-0.129914l-0.088156,0.041758l-0.051038,0.167033l0.055678,0.194872Z M1205.649248,466.098273l0.111355,-0.023199l0.078877,-0.069597l-0.023199,-0.069597l-0.055678,0.00464l-0.037118,0.078877l-0.088156,0.032479l0.013919,0.046398Z M1205.899798,466.088993l0.060317,0.013919l0.037118,-0.032479l-0.013919,-0.041758l-0.051038,-0.00928l-0.041758,0.032479l0.00928,0.037118Z M1201.88637,464.994001l0.032479,0.013919l0.060317,-0.037118l0.041758,-0.083516l-0.013919,-0.097436l-0.032479,-0.013919l-0.064957,0.051038v0.078877l-0.023199,0.088156Z M1203.250472,464.687774l0.064957,-0.00464l0.046398,-0.027839v-0.041758l-0.064957,-0.027839l-0.046398,0.018559l-0.032479,0.051038l0.032479,0.032479Z M1202.535943,465.202792l0.060317,0.125275l0.064957,0.00928l0.041758,-0.078877l-0.013919,-0.153113l0.074237,-0.111355l0.162393,-0.064957l-0.00928,-0.037118h-0.139194l-0.180952,0.115995l-0.060317,0.102076v0.092796Z M1204.14286,426.475702l0.07733,-0.040798l0.179406,-0.031383l0.213431,-0.009415l0.034025,-0.031383l-0.021652,-0.021968l-0.281481,0.009415l-0.207244,0.05649l-0.034025,0.047075l0.040212,0.021968Z M1205.442004,426.598096l0.055678,-0.003138l0.00928,-0.028245l-0.030932,-0.021968h-0.037118l-0.021652,0.025106l0.024746,0.028245Z M1205.516241,426.46001l0.043305,0.003138l0.024746,-0.015692l0.00928,-0.031383l-0.027839,-0.01883l-0.043305,0.006277l-0.024746,0.031383l0.018559,0.025106Z M1204.900694,426.325063l0.105169,-0.009415l0.00928,-0.03766l-0.055678,-0.040798l-0.06805,0.012553l-0.015466,0.034521l0.024746,0.040798Z M1204.897601,426.40352l0.136101,0.031383l0.018559,-0.021968l-0.098982,-0.050213l-0.083516,-0.012553l-0.00928,0.025106l0.037118,0.028245Z M1204.789339,426.44118l0.089703,0.025106l0.027839,-0.015692l-0.071144,-0.043936l-0.046398,-0.009415l-0.027839,0.012553l0.027839,0.031383Z M1198.613765,431.6445l0.037118,-0.03766l0.078877,0.023537l0.074237,0.103564l-0.013919,0.075319l-0.046398,0.009415l-0.078877,-0.05649l-0.051038,-0.117687Z M1198.697281,431.97873l0.00464,0.108272l0.032479,-0.004707l0.032479,-0.108272l0.046398,-0.009415l0.102076,0.089442l0.023199,-0.023537l-0.111355,-0.127102l-0.064957,-0.023537l-0.037118,0.01883l-0.027839,0.080027Z M1199.569564,432.614238h0.055678l0.046398,-0.028245l-0.00464,-0.042367l-0.060317,-0.023537l-0.046398,0.009415l-0.018559,0.047075l0.027839,0.03766Z M1197.834573,430.006569l0.009252,0.032854l0.046259,0.009387l0.046259,-0.02816v-0.032854l-0.055511,-0.009387l-0.046259,0.02816Z M1199.763397,432.423749l0.051652,0.034202l0.059813,0.01121l-0.006068,-0.026062l-0.06562,-0.045692l-0.047033,-0.007605l0.007256,0.033948Z M1199.385682,428.344276l-0.037007,-0.046934l-0.021588,0.009387l0.012336,0.062578l0.033923,0.025031l0.027756,-0.006258l-0.01542,-0.043805Z M1199.953861,428.162558l0.025508,0.025383l0.0379,-0.017931l0.018705,-0.034597l-0.021463,-0.036659l-0.041971,0.006577l-0.018679,0.057227Z M1199.02394,428.158595l0.024786,0.03652l0.019361,-0.00394l0.008345,-0.031584l-0.022629,-0.029667l-0.019724,0.004013l-0.010139,0.024657Z M1199.082131,428.264716l0.003468,0.044202l0.018709,0.00641l0.022792,-0.023119l-0.004977,-0.037172l-0.01906,-0.00653l-0.020932,0.01621Z M1199.082131,428.264716l0.003468,0.044202l0.018709,0.00641l0.022792,-0.023119l-0.004977,-0.037172l-0.01906,-0.00653l-0.020932,0.01621Z M1199.228227,428.278458l0.049039,0.008572l0.017773,-0.021259l-0.034293,-0.034484l-0.038726,0.003227l-0.018102,0.026824l0.024311,0.017119Z M1199.459755,428.362851h0.036863l0.014745,-0.02992l-0.02949,-0.02992l-0.051608,0.002493l-0.00983,0.032414l0.03932,0.024934Z M1199.195286,428.207504l0.024746,-0.01883l-0.00928,-0.021968l-0.034025,0.009415l-0.006186,0.025106l0.024746,0.006277Z M1199.009773,428.480225l-0.012324,0.021658l0.01305,0.022083l0.025704,-0.005157l0.014459,-0.020408l-0.004511,-0.017081l-0.036378,-0.001095Z M1198.76129,428.526783l0.027781,-0.002466l0.011764,-0.025896l-0.016994,-0.014468l-0.027477,0.005989l-0.015236,0.026204l0.020163,0.010636Z M1200.015761,432.531054l-0.023502,-0.022471l-0.056972,0.044244l-0.007511,0.037014l0.039575,0.013056l0.03441,-0.027404l0.014001,-0.044439Z M1199.660589,428.257444l0.039427,0.005533l0.04407,-0.021725l-0.007449,-0.020174l-0.048964,-0.008126l-0.04407,0.021725l0.016987,0.022767Z M1198.843606,428.591628l0.022254,-0.007526l0.009273,-0.018816l-0.007418,-0.018816l-0.024109,-0.005645l-0.018545,0.011289l-0.005564,0.028223l0.024109,0.011289Z M1199.772831,432.717258h0.034909l0.018618,-0.018889l-0.004654,-0.030695l-0.020945,-0.014167l-0.037236,0.009445l-0.011636,0.025973l0.020945,0.028334Z M1197.803346,429.883362l0.064957,-0.028245l0.051038,-0.183591l-0.027839,-0.108272l-0.055678,0.004707l-0.046398,0.084734l-0.027839,0.202421l0.041758,0.028245Z M1198.587473,428.767693l0.102076,-0.009415l0.134554,0.01883l0.018559,-0.047075l-0.088156,-0.080027l-0.176312,-0.023537l-0.083516,0.047075l0.00464,0.075319l0.088156,0.01883Z M1199.028254,428.621761l0.097436,-0.01883l0.097436,-0.084734l0.032479,-0.084734h-0.041758l-0.023199,0.047075l-0.083516,0.065905l-0.083516,0.009415l-0.037118,0.028245l0.041758,0.03766Z M1198.847301,428.875965l-0.269108,0.503699l-0.083516,0.080027l-0.00928,0.047075l0.078877,0.009415l0.046398,-0.028245l0.013919,-0.103564l0.106715,-0.193006l0.185592,-0.291863l0.125275,-0.122394l-0.037118,-0.03766l-0.060317,0.014122l-0.097436,0.122394Z M1198.434359,429.86924l-0.027839,0.145931l-0.023199,0.263618l-0.046398,0.01883v0.065905l0.046398,0.009415l0.037118,-0.023537l0.037118,-0.343645l0.032479,-0.141224l0.092796,-0.244788l-0.00928,-0.042367l-0.037118,0.004707l-0.102076,0.287155Z M1199.997972,432.684305l-0.051038,0.023537l-0.078877,0.075319v0.047075l0.041758,-0.004707l0.129914,-0.098857l0.037118,-0.042367l0.00464,-0.051782l-0.046398,-0.023537l-0.032479,0.023537l-0.00464,0.051782Z M1198.958657,431.895565l0.018559,0.047075l0.071144,0.062766l0.00928,-0.025106l-0.064957,-0.078458l-0.034025,-0.006277Z M1199.206113,432.134077l0.173219,0.106703l0.012373,-0.015692l-0.16394,-0.147501l-0.108262,-0.053351l-0.021652,0.012553l0.108262,0.097288Z M1199.512339,432.33179l0.129914,0.050213l0.021652,-0.015692l-0.114448,-0.075319l-0.123728,-0.047075l-0.00928,0.01883l0.095889,0.069043Z M1219.432548,455.367962l-0.012373,0.102076l-0.037118,0.043305l-0.046398,0.006186l-0.015466,-0.058771l0.064957,-0.097436l0.046398,0.00464Z M1219.516064,455.391161l0.078877,-0.060317l-0.013919,-0.032479h-0.037118l-0.055678,0.041758l-0.00928,0.032479l0.037118,0.018559Z M1219.585661,455.265886l0.055678,-0.013919l0.027839,-0.041758l-0.032479,-0.018559l-0.064957,0.013919l-0.027839,0.051038l0.041758,0.00928Z M1221.065758,454.560637l-0.046398,0.018559l-0.013919,0.037118l0.032479,0.027839l0.037118,-0.023199l0.018559,-0.037118l-0.027839,-0.023199Z M1230.373632,468.745193l0.092361,0.00993l0.037118,-0.023364v-0.037382l-0.055678,-0.018691l-0.069597,0.009345l-0.032479,0.032709l0.028274,0.027452Z M1235.755365,471.792402l-0.023199,-0.032709h-0.046398l-0.018559,0.037382l0.023199,0.032709l0.041758,-0.004673l0.023199,-0.032709Z M1230.918373,468.52426l0.029579,0.012412l0.024649,-0.002482l0.00493,-0.024824l-0.029579,-0.017377l-0.032044,0.004965l0.002465,0.027306Z  M1176.313633,424.252464l-0.055,0.157l0.059,0.022l0.055,-0.018l0.032,-0.069l-0.023,-0.092h-0.068z M1163.615753,424.717442l0.173,0.211l0.028,0.124l0.15,0.146l0.055,0.166l0.1,0.073l0.105,-0.009l0.132,-0.142l0.063,-0.005l0.073,0.096l0.141,0.056l0.073,-0.028l0.005,-0.101l0.132,-0.115l0.168,-0.018l0.073,0.032l0.069,-0.018l0.072,-0.106l0.023,-0.119l0.1,-0.032l0.11,0.073l0.077,0.005l0.087,-0.028l0.109,0.032l0.05,0.06l0.077,0.027l0.078,-0.013l0.289,-0.175l0.146,-0.028l0.054,-0.055l0.018,-0.124l0.132,-0.096l0.187,-0.06l0.078,0.051l0.054,-0.019l-0.027,-0.179l0.073,-0.101l0.164,-0.032l0.054,0.06l0.164,0.05l0.219,-0.013l0.155,-0.051l0.091,0.019l0.118,0.123l0.114,0.042l0.055,0.064l0.009,0.119l0.068,0.051h0.096l0.113,-0.11l0.096,0.004l0.137,0.115l0.109,0.014l0.123,-0.041l0.237,0.068l0.095,-0.041l0.014,-0.073l-0.037,-0.092l0.041,-0.211l0.151,-0.179l0.136,-0.051h0.374l0.127,-0.05l0.134,-0.254l0.073,-0.049l0.018,-0.062l-0.049,-0.287l0.037,-0.11l0.127,-0.062l0.328,-0.049l0.091,-0.073l0.006,-0.098l0.091,-0.061h0.085l0.061,-0.074l-0.024,-0.104l0.036,-0.091l0.043,-0.043l0.006,-0.086l-0.122,-0.3l-0.188,-0.196l-0.158,-0.049l-0.024,-0.085l0.212,-0.251l0.146,-0.074l0.103,0.031l0.225,-0.012l0.146,-0.086l0.085,-0.19l0.091,-0.067l0.085,-0.012l0.06,-0.08l0.025,-0.104l0.073,-0.049l0.188,-0.018l0.073,-0.092l-0.031,-0.141l-0.103,-0.049l0.006,-0.086l0.091,-0.067l0.109,-0.012l0.292,-0.214l0.176,-0.019l0.219,-0.085l0.109,0.024l0.097,0.092l-0.024,0.196l0.054,0.147l0.006,0.128l-0.03,0.074l-0.006,0.165l0.006,0.214l-0.061,0.147l-0.097,0.037l-0.048,0.159l0.036,0.128l0.091,0.074v0.098l-0.036,0.055l0.012,0.049l0.176,0.128l0.267,0.08l0.134,0.092l0.047,0.14l0.159,0.141l0.061,0.129l0.121,0.085l0.043,0.141l0.091,0.092l0.249,0.055l0.358,0.159l0.212,-0.092l0.104,0.031l0.091,0.08l0.133,0.024l0.097,-0.024l0.249,0.128l0.049,0.153l-0.176,0.257l-0.146,0.068l-0.103,0.232l0.048,0.037l0.189,0.012l0.358,0.257l0.06,-0.006l0.073,0.043l-0.006,0.196l0.176,0.22l0.055,0.3l-0.109,0.165l0.006,0.11l0.048,0.013l0.128,-0.086l0.152,0.031h0.127l0.067,0.049l0.006,0.073l0.152,0.043l0.109,-0.116l0.073,-0.288l0.061,-0.074l0.121,-0.055l0.067,-0.153l-0.225,-0.196l-0.139,-0.036l-0.092,-0.129l-0.015,-0.138l-0.109,-0.055l0.018,-0.105l0.16,-0.087l0.022,-0.17l-0.114,-0.143l0.055,-0.174l0.223,-0.11l0.105,0.009l0.059,-0.05l0.059,-0.161l-0.082,-0.202l0.041,-0.083l0.201,-0.069l0.118,-0.133l0.205,-0.16l0.123,-0.033l0.091,-0.078l0.014,-0.156l0.145,-0.202l0.151,-0.068l0.041,-0.06l0.063,-0.253l0.164,-0.234l0.114,-0.294l-0.032,-0.183l-0.086,-0.046l-0.028,-0.087l0.051,-0.101l-0.051,-0.266l-0.168,-0.111l-0.036,-0.096l0.045,-0.069l0.1,-0.027l0.05,-0.101v-0.17l0.087,-0.115l0.218,-0.06l0.201,0.005l0.054,-0.018l0.055,0.032l0.009,0.119l0.109,0.11l0.137,0.064l0.087,-0.027l0.041,-0.156l0.186,-0.129l0.046,0.023l-0.023,0.147l-0.059,0.005l0.004,0.036l0.073,0.023l0.005,0.065l-0.037,0.238v0.207l0.055,0.216l-0.027,0.069l0.018,0.068l0.2,0.092l0.114,0.138l0.023,0.128l0.182,0.198l0.41,0.115l0.086,0.05l0.132,0.005l0.164,-0.12l0.096,0.01l0.073,0.055l0.118,0.004l0.087,-0.115l0.009,-0.284l0.077,-0.087l0.078,0.004l0.118,0.106l0.086,0.009l0.073,-0.064l0.233,-0.069l0.045,-0.064l0.137,-0.037l0.091,0.009l0.104,-0.032l0.073,-0.097h0.091l0.078,0.101l0.054,-0.004l0.051,-0.06l0.1,-0.009l0.2,0.161l0.091,0.018l0.027,0.051l-0.091,0.114l-0.009,0.078l0.087,0.106l0.013,0.092l-0.041,0.05l0.032,0.083l0.228,0.073l0.173,0.115l-0.005,0.142l-0.072,0.088l0.027,0.068l0.127,0.046l0.119,-0.05l0.155,0.004l0.082,0.023l0.113,-0.041l0.055,-0.11l0.146,-0.092l-0.005,-0.105l-0.227,-0.331l-0.146,-0.083l-0.082,-0.165l0.045,-0.156l0.087,-0.023l0.041,-0.055l-0.005,-0.124l0.078,-0.073l0.1,0.004l0.041,-0.041l-0.05,-0.216l-0.15,-0.11l-0.096,0.009l-0.137,0.069l-0.082,-0.009l-0.059,-0.037h-0.059l-0.046,-0.027l-0.018,-0.078l-0.068,-0.023l-0.036,-0.056l0.086,-0.119l-0.014,-0.082l-0.041,-0.083l-0.004,-0.23l0.041,-0.055l0.009,-0.092l-0.05,-0.059l0.027,-0.055l0.105,-0.032l0.136,-0.216l0.073,-0.023l0.032,-0.064l-0.027,-0.097l0.018,-0.105l0.046,-0.028l0.145,0.023l0.356,-0.115l0.141,0.014l0.086,-0.009l0.1,-0.106l0.055,0.014l0.018,0.083l0.069,0.064l0.004,0.073l-0.082,0.097l0.009,0.147l0.064,0.036l0.086,-0.036l0.128,0.069l0.068,0.133l0.1,0.032l0.051,-0.032l0.059,0.018l0.018,0.046l0.055,0.005l0.091,-0.074l0.164,0.009l0.072,0.055l0.073,0.01l0.069,-0.046l0.082,0.009l0.132,0.128l0.068,-0.009l0.109,-0.105l0.082,-0.28l0.023,-0.248l-0.055,-0.083l-0.16,-0.187l-0.087,-0.014l-0.15,0.037l-0.073,-0.037l-0.082,-0.165l0.005,-0.105l-0.059,-0.083l0.009,-0.051l0.086,-0.032l0.128,-0.197l-0.064,-0.124l0.014,-0.074l0.186,-0.11l0.037,-0.133l-0.091,-0.133l0.018,-0.096l0.118,-0.069l0.095,-0.288l0.071,-0.009l0.105,0.062l0.21,0.031l0.13,-0.031l0.043,0.025l-0.024,0.049l0.049,0.025l0.198,-0.068l0.13,-0.105l0.353,-0.112l0.161,0.013l0.092,0.074l-0.006,0.087l0.136,0.086l0.229,0.05l0.074,0.08l-0.074,0.155l-0.111,0.049l-0.019,0.087l0.118,0.049l0.154,-0.03l0.062,-0.056l0.075,0.006l0.117,0.148l0.118,0.019l0.055,-0.043l0.136,0.031l0.093,0.086l0.087,0.019l0.136,-0.056l0.155,0.019l0.136,-0.044l0.309,0.038l0.099,-0.031l0.074,0.018l0.068,-0.031l0.105,-0.241l0.205,-0.142l0.024,-0.075l-0.061,-0.117l0.024,-0.142l0.136,-0.248l0.025,-0.223l0.111,-0.123l0.161,-0.006l0.149,-0.093l0.012,-0.18l0.111,-0.062l0.143,0.019l0.315,-0.049l0.217,-0.093l0.291,-0.062l0.241,0.025l0.148,0.13l0.155,0.049l0.21,-0.043l0.124,-0.192l0.099,-0.05l0.056,-0.068l0.117,-0.006l0.223,0.142l0.142,0.025l0.161,-0.031l0.186,-0.154h0.13l0.123,0.086l0.192,0.062h0.173l0.161,0.062l0.068,0.118l0.13,0.018l0.093,-0.025l0.087,-0.111l0.129,-0.037l0.242,-0.013l0.315,-0.191l0.112,-0.025l0.259,-0.155l0.106,0.007l0.105,-0.038l0.086,-0.068l0.161,-0.018l0.124,0.031l0.074,-0.031l0.031,-0.074l0.093,-0.031l0.117,0.031l0.068,-0.031l0.069,-0.106l0.086,-0.024l0.142,0.037l0.192,-0.05l0.204,-0.099h0.124l0.217,0.106l0.006,0.086l-0.087,0.062l-0.043,0.068l-0.012,0.105l-0.069,0.118l-0.123,0.012l-0.081,0.05h-0.068l-0.074,-0.038l-0.068,0.007l-0.118,0.105l-0.012,0.093l0.074,0.074l0.037,0.117l-0.018,0.112l0.025,0.068l0.099,0.049l0.086,0.093l-0.025,0.074l-0.086,0.112l0.006,0.062l0.08,0.024h0.161l0.093,0.081v0.093l0.074,0.086h0.075l0.08,-0.099l0.105,-0.012l0.112,0.043l0.136,0.155v0.093l0.031,0.08l0.086,0.037l-0.018,0.068l-0.112,0.105l-0.012,0.087l0.049,0.062l-0.062,0.105l0.038,0.068l0.148,-0.012l0.204,0.049l0.112,0.074l0.173,0.452l0.352,0.223l0.192,0.006l0.05,0.018l0.043,0.056l0.08,0.025l0.075,-0.025l0.13,0.031l0.173,0.142l0.142,0.037l0.334,-0.043l0.105,0.019l0.05,0.049l0.086,0.013l0.124,-0.062l0.21,0.049l0.137,0.112l0.086,0.006l0.099,-0.081l0.204,0.025l0.118,0.099l0.111,0.043l0.074,-0.031l0.05,0.05l-0.012,0.086l0.055,0.075l0.149,-0.019h0.427l0.198,0.05l0.396,0.024l0.111,0.05h0.179l0.155,-0.05l0.439,0.068l0.248,0.143l0.154,0.037l0.13,0.117l0.118,0.013l0.247,-0.05l0.142,0.019l0.044,0.062l0.068,-0.006l0.111,-0.137l0.167,-0.012l0.037,-0.062h0.124l0.124,0.056l0.043,0.093h0.377l0.167,-0.05l0.069,0.025l0.037,0.105l0.099,0.031l0.092,-0.056l0.106,0.025l0.055,0.081l0.075,0.018l0.105,-0.043l0.222,0.031l0.291,0.148l0.105,0.019l0.167,-0.019l0.025,0.132l-0.062,0.06l-0.006,0.15l-0.056,0.072l-0.018,0.078l0.012,0.09l-0.037,0.078l-0.198,0.012l-0.117,-0.042l-0.297,0.042l-0.13,0.114l-0.037,0.185l-0.347,0.162l-0.086,0.072l-0.248,0.096l-0.186,-0.006l-0.037,0.054l0.068,0.198l-0.055,0.066l-0.087,-0.006l-0.08,0.054v0.084l-0.087,0.066l-0.142,0.018l0.012,0.066l0.074,0.054l0.013,0.162l0.068,0.143l0.099,0.06l-0.019,0.096l-0.037,0.078l0.062,0.066l0.136,-0.03l0.081,-0.096l0.185,-0.018l0.241,0.078l0.093,-0.012l0.198,0.096l0.037,0.132l0.105,0.018l0.118,-0.042l0.204,0.006l0.217,0.078l0.018,0.096l-0.074,0.078l-0.056,0.144l-0.352,0.294l-0.143,0.143l-0.191,0.06l-0.087,0.114l-0.179,0.036l-0.025,0.066l0.043,0.072l-0.049,0.192l-0.13,0.072l0.006,0.072l0.13,0.15l0.223,0.132l0.216,-0.036l0.068,-0.108l0.124,-0.024l0.086,0.054l0.075,-0.006l0.093,-0.048l0.055,0.054l-0.055,0.288l0.012,0.09l-0.18,0.287l-0.08,0.042l-0.056,0.096l-0.012,0.108l-0.074,0.138l0.025,0.096l0.099,0.066l0.055,0.174l0.149,0.078l0.229,0.018l0.216,0.078l0.384,0.239l0.272,0.084l0.26,0.27l0.043,0.192l0.179,0.228l0.341,0.198v0.054l-0.285,0.179l-0.124,0.168l-0.266,0.03l-0.222,-0.024l-0.217,-0.102l-0.148,0.03l-0.013,-0.091l0.028,-0.054l0.127,-0.019l0.216,0.06l0.106,-0.016l-0.004,-0.044l-0.157,-0.182l-0.112,-0.04l-0.009,-0.069l0.059,-0.041l0.003,-0.113l-0.124,-0.192l-0.417,-0.401l-0.307,-0.233l-0.126,-0.05l-0.22,-0.034l-0.152,-0.072l-0.061,-0.076l-0.056,0.01l-0.087,0.163l-0.034,0.15l0.022,0.079l0.192,0.11l-0.003,0.037l-0.13,0.016l-0.254,0.135l-0.136,0.022l-0.08,0.044l-0.127,0.125l-0.133,0.06l-0.276,0.01l-0.046,-0.029l0.015,-0.031l0.174,-0.003l0.12,-0.098l0.087,-0.006l0.018,-0.05l-0.046,-0.097l-0.136,-0.072l-0.6,-0.189l-0.353,-0.019l-0.226,-0.072l-0.083,-0.097l-0.155,-0.019l-0.105,0.06l-0.179,0.062l-0.127,-0.021l-0.087,0.034l-0.006,0.119l-0.087,0.079l-0.105,0.022l-0.089,0.141v0.104l0.046,0.141l0.09,0.009l0.269,-0.113l0.04,-0.053l0.04,0.006l0.003,0.063l-0.204,0.188l-0.059,0.088l-0.043,0.138l-0.077,0.057l-0.235,0.047l-0.238,0.003l-0.226,0.05l-0.01,-0.038l0.053,-0.04l-0.019,-0.054l-0.086,-0.063l-0.034,0.016l-0.016,0.11l-0.049,0.078l-0.316,0.082l-0.13,0.066l-0.148,0.119l-0.582,0.283l-0.21,0.157l-0.247,0.119l-0.31,0.1l-0.457,0.201l-0.415,0.195l-0.452,0.169l-0.136,0.075l-0.08,0.076l-0.074,-0.007l-0.037,-0.069l0.037,-0.15l0.154,-0.132l0.143,-0.05l0.123,0.019l0.427,-0.113l0.087,-0.082l0.037,-0.1l0.161,-0.069h0.154l0.062,-0.082l-0.037,-0.063l-0.13,-0.012l-0.167,0.056l-0.123,0.094h-0.081l-0.136,-0.219l-0.179,-0.17h-0.118l-0.043,0.044l0.025,0.057l-0.031,0.044l-0.106,0.012l-0.13,0.132l-0.012,0.107l-0.086,0.006l-0.118,-0.094l-0.08,0.012l-0.019,0.076l-0.093,0.062l-0.111,0.007l-0.074,0.062l-0.007,0.069l-0.08,0.057l-0.173,0.031l-0.18,0.069l-0.111,0.245l-0.068,0.257l-0.019,0.333l-0.061,0.107l-0.161,0.094l-0.081,-0.019l-0.037,-0.182l-0.086,-0.094l-0.044,0.044l0.013,0.113l0.086,0.182l-0.018,0.125l-0.211,0.139l-0.068,0.106l-0.086,0.007l-0.019,0.05l0.056,0.056l0.068,0.163l0.093,0.082l0.099,-0.006l0.13,-0.126l0.061,0.025l0.038,0.151l-0.013,0.075l-0.056,0.044l0.007,0.063l0.08,0.05l0.099,0.295l0.111,0.063l0.081,-0.031v-0.113l-0.068,-0.082l0.055,-0.075l0.149,-0.063l0.074,0.019l0.05,0.188l0.13,0.201v0.113l0.006,0.333l0.074,0.194l-0.043,0.019l-0.105,-0.163l-0.038,-0.145l-0.055,-0.006l-0.062,0.094l-0.13,0.063l-0.056,0.144l0.099,0.132l0.285,0.063l0.031,0.075l-0.056,0.013l-0.111,-0.038l-0.136,0.019l0.024,0.075l0.26,0.069l0.025,0.076l-0.136,0.201l-0.013,0.15l0.05,0.22l0.074,-0.013l0.118,-0.182l0.117,-0.037l0.105,0.018l0.062,-0.043l0.006,-0.088l0.106,-0.032l0.13,0.069l0.117,0.195l-0.056,0.125l0.068,0.069l0.267,0.007l0.055,0.075l-0.025,0.427l-0.099,0.094l-0.018,0.107l0.049,0.113l-0.092,0.157l-0.112,-0.007l-0.105,-0.062l-0.006,-0.095l0.031,-0.062v-0.164l-0.093,-0.056l-0.111,0.056l-0.037,0.195l0.037,0.352l0.068,0.106l-0.031,0.113l-0.105,0.094l-0.248,0.032l-0.049,-0.038l0.049,-0.031l0.155,-0.007l0.031,-0.069l-0.223,-0.175l-0.272,-0.151l-0.173,0.013l-0.099,0.075l-0.013,0.069l0.05,0.038v0.094l-0.118,0.226l-0.08,0.32l-0.013,0.351l0.05,0.302l0.08,0.194l0.025,0.471l-0.037,0.32l0.025,0.389l0.179,0.546l0.136,0.615l0.155,0.54l0.247,0.502l0.297,0.314l0.248,0.207l0.235,0.258l0.278,0.295l0.093,0.018h0.074l0.074,0.044l0.192,0.276l0.452,0.383l0.247,0.145l0.433,0.056l0.205,0.082l0.507,0.289l0.154,0.025l0.557,0.47l0.211,0.107l0.439,0.389l0.656,0.509l0.457,0.326l0.638,0.37l0.563,0.258l0.185,0.018l0.105,-0.069l0.112,-0.025l0.198,0.094l0.16,0.164l0.038,0.15l0.08,0.057l0.291,0.182l-0.031,0.119l0.049,0.301l0.337,0.65l0.274,0.687l0.19,0.292l0.437,1.091l0.139,0.218l0.079,0.227l0.009,0.172l0.121,0.491l0.157,0.515l0.177,0.344l0.051,0.227l0.069,0.32l0.177,0.492l0.236,0.492l0.316,0.487l0.482,0.636l0.436,0.496l0.571,0.483l0.497,0.348l0.273,0.144l0.167,0.153l0.019,0.083l0.074,0.098l0.019,0.074l0.473,0.404l0.037,0.102l0.125,0.13l0.446,0.283l0.459,0.19l0.26,0.102l0.06,-0.005l0.047,0.037l0.046,0.316l-0.019,0.134l0.033,0.13l0.232,0.167l0.195,0.079l0.529,0.283l0.343,0.126l0.325,0.06l0.172,0.083l0.361,0.279l0.149,0.148l0.186,0.079l0.399,0.102l0.394,0.033l0.58,0.004l0.181,0.023l0.153,0.093l0.162,0.033l0.641,-0.042l0.691,-0.116l0.186,-0.065l0.199,0.009l0.204,0.079l0.269,0.028l0.9,-0.079l0.826,-0.139l0.107,-0.046l0.306,-0.019l0.246,0.056l0.214,0.116l0.079,0.097l0.078,0.033l0.056,-0.014l0.074,0.028l0.084,0.134l0.107,0.07l0.023,0.083l-0.023,0.07l0.018,0.139l0.065,0.065l0.019,0.176l0.027,0.079l-0.078,0.279l-0.07,0.041l-0.046,0.042l-0.01,0.074l-0.134,0.107l-0.121,0.023l-0.19,0.107l-0.139,0.134l-0.061,0.103l-0.194,0.162l-0.344,0.134l-0.06,0.047l-0.33,0.158l-0.111,0.088l-0.074,0.111l-0.042,0.237l0.06,0.343l0.14,0.33l0.25,0.218l0.343,0.21l0.557,0.262l0.149,0.042l0.171,0.088l0.107,0.075l0.186,0.089l0.093,0.019l0.129,0.06l0.116,0.113l0.112,0.07l0.083,0.009l0.023,-0.042h0.033l0.005,0.042l0.194,0.079l0.177,0.047l0.431,0.215l0.075,0.009l0.102,0.052l0.055,0.07l0.177,0.089l0.092,0.023l0.214,0.089l0.097,0.009l0.079,0.033l0.033,0.061l0.31,0.173l0.297,0.102l0.14,0.028l0.125,0.042l0.088,0.056l0.283,0.108l0.26,0.061l0.088,0.032l0.116,0.08l0.176,0.065l0.075,-0.023l0.041,0.005l0.033,0.046l0.06,0.01l0.023,-0.038l0.056,0.01l0.051,0.079l0.283,0.098l0.241,0.117l0.344,0.103l0.195,0.033l0.399,0.172l0.143,0.113l0.135,0.07l0.125,0.037l0.167,0.103l0.195,0.173l0.617,0.369l0.186,0.173l0.042,0.121l0.069,0.08l0.19,0.093l0.126,0.089l0.055,0.084l0.135,0.103l0.213,0.107l0.061,0.052l0.014,0.051l0.204,0.126l0.371,0.154l0.659,0.201l0.427,0.192l0.134,0.117l0.19,0.117l0.103,0.009l0.051,0.033l0.041,0.051l0.158,0.098l0.446,0.098l0.222,0.019l0.065,-0.005l0.047,0.019l0.092,0.136v0.065l-0.032,0.051l0.023,0.033l0.125,-0.028l0.237,0.023l0.037,0.047l-0.005,0.08l0.065,0.121l0.112,0.117v0.103l-0.037,0.093l0.004,0.084l0.112,0.122l0.079,0.042l0.064,0.065l0.019,0.066l0.292,0.247l0.14,0.084l0.106,0.005l0.065,0.033l0.047,0.061l0.051,0.028l0.074,0.004l0.144,0.08l0.032,0.07l0.102,0.098l0.079,0.033l0.255,0.252l0.065,0.019l0.061,0.06l0.018,0.066l0.172,0.196l0.093,0.037l0.297,0.318l0.176,0.112l0.172,0.22l0.037,0.14l0.079,0.178l0.004,0.088l-0.028,0.061l0.005,0.066l0.227,0.369l0.107,0.046l0.033,0.08l-0.028,0.07v0.07l0.06,0.061l-0.005,0.061l-0.199,0.158l-0.033,0.066l-0.018,0.168l-0.07,0.098l-0.148,0.066l-0.079,0.079l-0.014,0.094l-0.028,0.051l-0.06,0.047l-0.07,0.159l-0.106,0.392l-0.005,0.103l0.037,0.201l-0.014,0.168l-0.051,0.15v0.088l0.022,0.131l-0.093,0.15l-0.149,0.043l-0.129,-0.031l-0.106,-0.093l-0.309,-0.187l-0.148,-0.031l-0.205,-0.007l-0.309,-0.106l-0.711,-0.535l-0.167,-0.106l-0.328,-0.468l0.012,-0.043h0.074l0.075,-0.062v-0.187l-0.081,-0.162l-0.093,-0.044l-0.08,0.012l-0.025,-0.049l0.13,-0.088l0.081,-0.155l-0.007,-0.181l-0.179,-0.249l-0.297,-0.212l-0.105,-0.176l-0.009,-0.196l-0.135,-0.22l-0.223,-0.187l-0.153,-0.051l-0.909,-0.131l-0.404,-0.009l-0.83,0.084l-0.084,-0.028l-0.056,-0.07l-0.069,-0.042l-0.135,-0.01l-0.093,-0.037l-0.051,-0.08l-0.097,-0.037l-0.162,0.009l-0.126,-0.046l-0.069,-0.08l-0.255,-0.117h-0.116l-0.107,-0.056l-0.028,-0.056l-0.065,-0.028l-0.079,-0.014l-0.32,-0.201l-0.13,-0.014l-0.032,-0.047l0.023,-0.056l0.148,-0.046l0.098,-0.084l0.014,-0.164l-0.061,-0.07l0.033,-0.047l0.148,-0.019l0.144,0.033l0.158,-0.033l0.065,-0.084l-0.047,-0.088l-0.13,-0.014l-0.125,0.102l-0.042,-0.004l-0.041,-0.094l-0.098,-0.004l-0.097,0.093l-0.149,0.051l-0.181,-0.018l-0.106,-0.145l-0.079,0.023l-0.051,-0.023l-0.01,-0.086l-0.197,-0.068l-0.31,0.018l-0.427,0.169l-0.389,0.243l-0.384,0.38l-0.625,0.878l-0.266,0.455l-0.08,0.28l-0.303,0.48l-0.365,0.305l-0.211,0.274l-0.043,0.318l0.093,0.43l0.062,0.125l0.006,0.118l-0.18,0.255l-0.346,0.304l-0.297,0.39l-0.099,0.328l0.062,0.253l0.204,0.174l0.025,0.111l-0.043,0.161l0.037,0.161l0.272,0.198l0.399,0.122l0.663,0.018l0.093,-0.046l0.125,0.018l0.302,0.214l0.148,0.227l0.284,0.214l0.64,0.352l0.209,0.037l0.162,0.098l0.107,0.218l0.227,0.186l0.302,0.143l0.167,0.042l0.032,0.042l-0.111,0.148l-0.153,0.432l-0.061,0.431l0.084,0.205l0.153,0.199l0.014,0.088l-0.181,0.399l-0.042,0.246l0.047,0.102l0.069,0.047l0.047,0.065l-0.01,0.074l0.084,0.12l0.167,0.13l0.162,0.042l0.07,0.028l-0.009,0.032l-0.107,0.019l-0.121,0.162l-0.055,0.2l0.041,0.139l-0.037,0.074l-0.088,0.028l-0.264,0.218h-0.103l-0.06,-0.051l-0.25,-0.042l-0.144,0.065l-0.093,-0.032l-0.051,-0.107l-0.107,-0.056l-0.171,-0.009l-0.464,0.074l-0.539,0.181l-0.584,0.279l-0.399,0.283l-0.172,0.055l-0.125,0.098l-0.241,0.357l-0.028,0.102l-0.2,0.246l-0.009,0.112l0.065,0.083l0.088,0.019l0.028,0.041l-0.056,0.2l0.028,0.278l0.065,0.186l0.032,0.575l0.061,0.279v0.366l-0.093,0.176l-0.376,0.399l-0.236,0.191l-0.242,0.125l-0.325,0.093l-0.399,0.148l-0.255,0.26l-0.106,0.176l-0.525,0.604l-0.171,0.153l-0.061,0.102l-0.06,0.478l-0.051,0.092l-0.005,0.061l0.028,0.046l-0.186,0.432l-0.338,0.413l-0.125,0.046l-0.223,0.009l-0.107,0.033l-0.269,-0.01l-0.292,-0.064l-0.191,0.004l-0.38,0.074l-0.473,-0.009l-0.084,-0.042l-0.413,-0.181l-0.134,-0.097l-0.195,-0.362l0.004,-0.121l0.089,-0.111l-0.014,-0.218l-0.107,-0.093v-0.199l0.116,-0.223l0.009,-0.172l-0.13,-0.25l0.005,-0.195l0.06,-0.098l0.288,-0.143l0.306,-0.047l0.325,-0.134l0.204,-0.204l0.079,-0.13l0.046,-0.218l0.084,-0.177l0.107,-0.13l0.102,-0.32l0.055,-0.093l0.13,-0.055l0.024,-0.07l-0.019,-0.07l0.097,-0.366l0.07,-0.125l0.023,-0.172l-0.042,-0.042l-0.06,-0.014l-0.093,-0.074l-0.037,-0.093l-0.107,-0.106l-0.134,-0.079l-0.186,-0.181l-0.004,-0.107l0.116,-0.162l0.181,-0.116l0.171,-0.047l0.32,-0.106l0.214,-0.186l0.246,-0.056l0.218,0.005l0.204,0.079l0.176,0.014l0.144,-0.042l0.371,-0.269l0.149,-0.325l0.069,-0.306l0.019,-0.469l-0.037,-0.167l-0.074,-0.06l-0.056,-0.009l-0.2,-0.116l-0.074,-0.019l-0.042,-0.032l-0.018,-0.098l-0.125,-0.223l-0.163,-0.199l-0.079,-0.19l-0.055,-0.293l-0.093,-0.255l-0.051,-0.218l-0.023,-0.617l-0.047,-0.501l-0.088,-0.385l-0.181,-0.497l-0.102,-0.204l-0.13,-0.185l-0.079,-0.056l-0.097,-0.149l-0.07,-0.148l-0.204,-0.195l-0.139,-0.046l-0.074,-0.075l-0.14,-0.44l-0.078,-0.116l-0.089,-0.339l-0.092,-0.116l-0.232,-0.947l-0.07,-0.097l-0.009,-0.116l0.093,-0.116l0.004,-0.088l-0.06,-0.19l-0.153,-0.242l-0.07,-0.046l-0.069,-0.097l-0.038,-0.163l-0.181,-0.218l-0.074,-0.032l-0.111,-0.126l-0.028,-0.125l-0.083,-0.065l-0.07,-0.018l-0.135,-0.098l-0.023,-0.093l-0.037,-0.032l-0.26,-0.051l-0.352,0.042l-0.112,0.046l-0.06,0.065l-0.051,0.107l-0.056,0.037h-0.055l-0.075,0.041l-0.208,0.237l-0.121,0.06l-0.306,0.005l-0.195,-0.097l-0.144,-0.172l-0.088,-0.009l-0.061,0.046l-0.097,0.019l-0.046,-0.028l0.018,-0.047l0.056,-0.009l0.028,-0.046l-0.023,-0.093l-0.103,-0.223l-0.088,-0.074l-0.083,-0.019l-0.088,-0.074l-0.084,-0.12l-0.097,-0.056l-0.098,-0.009l-0.083,-0.051l-0.107,-0.172l-0.162,-0.139l-0.149,-0.047l-0.241,0.056l-0.176,-0.009l-0.126,-0.061l-0.083,-0.153l-0.149,-0.13l-0.246,-0.092l-0.167,-0.047l-0.148,-0.12v-0.079l0.218,-0.153l0.042,-0.112l-0.056,-0.134l0.014,-0.153l0.06,-0.084l0.107,-0.042l0.065,-0.055l0.134,-0.079l0.028,-0.177l-0.111,-0.32l-0.292,-0.496l-0.163,-0.381l-0.26,-0.422l-0.245,-0.306l-0.302,-0.283l-0.162,-0.084l-0.121,-0.018l-0.144,0.037l-0.074,0.06l-0.167,0.209l-0.098,0.014l-0.227,-0.074l-0.125,0.009l-0.144,0.074l-0.149,0.116l-0.106,0.037l-0.139,0.014l-0.056,0.019l-0.093,-0.019l-0.13,-0.069h-0.148l-0.404,0.12l-0.125,0.107l-0.325,0.097l-0.121,0.075l-0.051,-0.005l-0.018,-0.074l0.093,-0.223l0.153,-0.148l0.236,-0.056l0.074,-0.093v-0.074l0.028,-0.056l0.075,-0.028l0.125,-0.162l0.162,-0.06l0.07,-0.047l0.018,-0.102l-0.162,-0.283l-0.139,-0.051l-0.088,0.019l-0.13,-0.042l-0.149,-0.116l-0.468,-0.45l-0.209,-0.102h-0.102l-0.051,0.069l-0.088,0.033l-0.07,-0.005l-0.079,0.037l-0.134,0.237l-0.089,0.014l-0.102,-0.06l-0.037,-0.079l-0.083,-0.047l-0.186,-0.009l-0.051,-0.023l-0.014,-0.056l-0.074,-0.028l-0.162,0.051l-0.014,0.065l0.055,0.088l-0.004,0.112l-0.093,0.032l-0.135,-0.018l-0.051,-0.065l0.014,-0.135l0.023,-0.213l-0.023,-0.242l-0.139,-0.371l-0.172,-0.301l-0.167,-0.167l-0.181,-0.242l-0.116,-0.088l-0.051,-0.088l-0.046,-0.237l-0.153,-0.315l-0.334,-0.469l-0.232,-0.278l-0.325,-0.283l-0.269,-0.158l-0.13,-0.009l-0.046,0.028l-0.107,-0.019l-0.149,-0.065h-0.176l-0.227,0.084l-0.098,0.102l-0.014,0.139l-0.065,0.051l-0.143,-0.019l-0.079,-0.06l-0.07,-0.028l-0.06,0.01l-0.056,-0.028l-0.065,-0.065l-0.083,-0.028l-0.084,-0.005l-0.065,-0.037l-0.13,-0.125l-0.339,-0.162l-0.357,-0.112l-0.283,-0.042l-0.107,0.024l-0.046,0.051l-0.083,0.041l-0.297,0.005l-0.232,0.06l-0.242,0.144l-0.232,0.186l-0.055,0.074l-0.112,0.023l-0.157,-0.042l-0.084,-0.097l-0.088,-0.278l-0.158,-0.293l-0.172,-0.227l-0.213,-0.213l-0.246,-0.181l-0.288,-0.153l-0.185,-0.056l-0.357,-0.009l-0.079,0.046l-0.07,-0.005l-0.204,-0.181l-0.204,-0.12l-0.214,-0.056l-0.167,0.028l-0.092,0.051l-0.07,-0.028l-0.107,-0.241l-0.204,-0.302l-0.227,-0.301l-0.483,-0.52l-0.427,-0.399l-0.278,-0.227l-0.585,-0.297l-0.176,-0.047l-0.046,-0.037l-0.061,-0.232l0.005,-0.083l-0.13,-0.413l-0.199,-0.404l-0.154,-0.181l-0.204,-0.162l-0.106,-0.037l-0.154,-0.103l-0.088,-0.023l-0.102,-0.069l-0.125,-0.177l-0.195,-0.106l-0.102,-0.024l-0.093,-0.064l-0.046,-0.075l-0.19,-0.13l-0.172,-0.065l-0.158,-0.009l-0.209,0.056l-0.13,-0.005l-0.097,-0.097l-0.014,-0.088l-0.121,-0.228l-0.125,-0.111l-0.12,-0.2l-0.079,-0.06l-0.093,-0.227l0.014,-0.088l-0.028,-0.065l-0.065,-0.051l-0.028,-0.061l-0.004,-0.093l-0.163,-0.269l-0.29,-0.322l-0.413,-0.313l-0.312,-0.199l-0.367,-0.171l-0.394,-0.147l-0.441,-0.109l-0.417,-0.071l-0.097,-0.062l-0.165,-0.005l-0.151,0.072l-0.051,0.09l0.01,0.085l-0.028,0.043l-0.064,0.014l-0.074,0.1l-0.137,0.042l-0.101,-0.019l-0.014,-0.047l-0.16,-0.119l-0.138,-0.047l-0.069,-0.152v-0.142l0.078,-0.143l0.069,-0.004l0.064,0.057l0.207,0.019l0.096,-0.057l0.096,-0.2l0.042,-0.194l0.004,-0.233l-0.052,-0.145l-0.11,-0.136l-0.11,-0.038l-0.08,0.019l-0.024,0.038l-0.052,-0.003l-0.113,-0.222l0.003,-0.095l-0.034,-0.076l-0.095,-0.054l-0.003,-0.037l0.016,-0.032l-0.01,-0.041l-0.064,-0.057l-0.364,-0.177l-0.101,-0.108l-0.036,-0.13l-0.144,-0.278l-0.126,-0.111l-0.269,-0.148l-0.25,-0.079l-0.184,-0.067l-0.327,-0.05l-0.083,0.012l-0.058,-0.016l-0.067,-0.063l-0.211,-0.111l-0.034,-0.05l0.025,-0.026h0.055l0.058,-0.028l0.085,-0.152l0.028,-0.111l-0.031,-0.151l0.025,-0.108l0.073,-0.098l-0.003,-0.06l-0.095,-0.123l-0.186,-0.137l-0.26,-0.126l-0.187,-0.048l-0.498,-0.028l-0.254,0.044l-0.092,0.079l-0.021,0.105l-0.058,0.009l-0.159,-0.044l-0.077,0.006l-0.034,-0.028l0.007,-0.092l-0.056,-0.114l-0.003,-0.047l0.016,-0.035l-0.003,-0.104l-0.022,-0.064l0.037,-0.034l0.104,0.009l0.052,-0.051l0.006,-0.047l-0.021,-0.047l0.012,-0.045l0.043,-0.035l0.07,-0.246l0.055,-0.389l0.006,-0.494l-0.058,-0.5l-0.046,-0.212l-0.073,-0.215l-0.107,-0.145l-0.123,-0.089l-0.14,-0.177l-0.022,-0.133l-0.088,-0.149l-0.025,-0.129l-0.107,-0.158l-0.058,-0.023l-0.08,-0.113l-0.021,-0.102l-0.144,-0.177l-0.104,-0.076l-0.159,-0.063l-0.046,-0.066l0.007,-0.045l-0.01,-0.041l-0.055,-0.069l-0.03,-0.155l-0.04,-0.095l-0.049,-0.06l-0.021,-0.07l0.012,-0.209l-0.025,-0.155l-0.036,-0.069l-0.025,-0.149l0.006,-0.136l-0.009,-0.085l-0.11,-0.26l0.021,-0.073l0.037,-0.025l0.022,-0.063l-0.01,-0.228l-0.046,-0.319l-0.134,-0.557l-0.083,-0.165l-0.027,-0.085l0.012,-0.057l-0.058,-0.161l-0.162,-0.26l-0.321,-0.373l-0.245,-0.237l-0.312,-0.25l-0.352,-0.168l-0.131,-0.038l-0.083,0.019l-0.021,0.057l-0.055,0.019l-0.098,-0.025l-0.116,-0.098l-0.077,-0.022l-0.113,-0.092l-0.043,-0.073l-0.085,-0.047l-0.077,-0.007l-0.095,-0.047l-0.067,-0.105l-0.119,-0.047l-0.08,0.041l-0.03,0.111l0.052,0.104l0.07,0.044l0.024,0.07l-0.015,0.054l-0.101,0.016l-0.336,-0.168l-0.288,-0.212l-0.091,-0.136l-0.279,-0.177l-0.156,-0.035l-0.116,0.041l-0.101,-0.035l-0.095,-0.139l-0.006,-0.073l-0.027,-0.034l-0.071,-0.013l-0.128,-0.085l-0.022,-0.054l-0.153,-0.124l-0.137,-0.028l-0.178,-0.123l-0.021,-0.064l-0.083,-0.05l-0.11,0.016l-0.162,-0.051l-0.104,-0.108l-0.07,-0.022l-0.061,0.026l-0.046,-0.035l-0.077,-0.158l-0.275,-0.209l-0.367,-0.196l-0.312,-0.108l-0.101,0.006l-0.11,0.155l-0.03,0.146l-0.068,0.006l-0.29,-0.126l-0.022,-0.067l0.025,-0.088l-0.025,-0.105l-0.095,-0.079l-0.209,-0.071l-0.317,-0.081l-0.431,-0.075h-0.119l-0.211,-0.034l-0.234,-0.08l-0.482,-0.076l-0.023,-0.033l0.069,-0.034l-0.018,-0.028l-0.211,-0.014l-0.052,0.036l-0.08,0.006l-0.18,-0.044l-0.147,0.025l-0.188,0.076l-0.097,0.1l-0.146,0.081l-0.11,0.004l-0.106,0.053l-0.078,0.08l-0.151,0.105l-0.152,0.014l-0.064,0.033l-0.032,0.081l-0.193,0.114l-0.179,0.033l-0.082,0.071l-0.019,0.071l-0.082,0.081l-0.138,0.043l-0.101,0.118v0.09l0.064,0.062l-0.004,0.071l-0.06,0.124l-0.073,0.023l-0.083,0.086l-0.023,0.133l0.032,0.071l-0.004,0.061l-0.133,0.086l-0.124,0.005l-0.23,0.099l-0.114,0.067l-0.197,0.047l-0.156,0.095l-0.239,0.28l-0.092,0.213l0.009,0.247l-0.068,0.109l-0.225,0.181l-0.133,0.18l-0.032,0.147l0.078,0.152l-0.019,0.047l-0.147,0.034l-0.064,0.052l-0.027,0.09l-0.087,0.062l-0.12,0.038l-0.119,0.09l-0.037,0.099l-0.087,0.057h-0.16l-0.097,0.038l-0.041,0.062l-0.073,0.057l-0.166,0.024l-0.28,0.109l-0.114,0.085l-0.17,0.052h-0.119l-0.23,0.067l-0.073,0.066l-0.078,0.019l-0.133,-0.028l-0.202,0.038l-0.147,0.114l-0.124,0.028l-0.091,-0.014l-0.129,0.028l-0.134,0.156l-0.11,0.019l-0.292,-0.11l-0.205,-0.034l-0.129,0.03l-0.039,0.058l-0.098,0.015l-0.164,-0.038l-0.003,-0.094l-0.057,-0.116l-0.072,-0.299l-0.068,-0.066l-0.018,-0.112l0.025,-0.069l0.167,-0.115l0.225,-0.065l0.041,-0.056l-0.025,-0.122l0.053,-0.062l0.04,-0.109l-0.034,-0.056l0.034,-0.041l0.065,-0.015l0.049,-0.044l0.081,-0.016l0.061,0.025l0.192,-0.143l0.09,-0.037l0.093,-0.156l-0.05,-0.174v-0.088l0.037,-0.025l0.068,0.003l0.047,-0.052l0.09,-0.013l0.03,-0.034l0.016,-0.094l0.056,-0.046l0.027,-0.175l-0.142,-0.118l-0.09,-0.137l-0.065,-0.035l-0.037,-0.102l0.062,-0.116l-0.031,-0.062v-0.05l0.056,-0.037l0.025,-0.066l-0.044,-0.04h-0.21l-0.077,0.037l-0.065,0.165l-0.074,0.038l-0.096,-0.041l-0.078,0.013l-0.136,-0.006l-0.071,0.052l-0.117,-0.009l-0.065,0.066l-0.072,0.006l-0.083,-0.034l-0.053,0.012l-0.074,0.069l-0.148,0.052l-0.174,-0.034l-0.031,0.028l-0.006,0.112l-0.049,0.013l-0.068,-0.056l-0.133,-0.041l-0.143,0.059l-0.083,-0.006l-0.08,-0.162l0.006,-0.062l-0.044,-0.016l-0.139,0.035l-0.059,-0.022l-0.129,0.003l-0.031,0.037l-0.05,-0.006l-0.043,-0.059l-0.142,-0.072l-0.041,-0.121l-0.058,-0.019l-0.05,0.044l-0.062,-0.003l-0.13,-0.131l-0.052,-0.119l-0.031,-0.012l-0.056,0.015l-0.074,-0.052l-0.047,-0.013l-0.077,0.05l-0.062,-0.006l-0.179,-0.134l-0.09,-0.013l-0.046,-0.028l-0.028,-0.05l-0.065,-0.025l-0.062,0.004l-0.056,0.034l-0.154,0.003l-0.136,-0.059l-0.096,-0.103l-0.016,-0.252l-0.096,-0.066l-0.086,-0.012l-0.087,-0.087l-0.009,-0.106l-0.155,-0.162l-0.065,-0.032l-0.037,-0.118l-0.096,-0.075l-0.093,-0.018l-0.006,-0.056l0.044,-0.038l0.006,-0.305l-0.019,-0.078l0.142,-0.059l0.072,0.025l0.052,-0.035l0.062,0.013l0.025,-0.025l-0.065,-0.081l-0.158,-0.084l-0.043,-0.137l-0.183,-0.109l-0.028,-0.081l-0.095,-0.094l-0.05,-0.23l0.108,-0.084l0.062,-0.112l0.074,-0.004l0.155,-0.043l0.012,-0.072l0.115,-0.071l0.034,-0.206l0.074,-0.081l0.019,-0.059l0.096,-0.007l0.003,-0.049l-0.056,-0.038l-0.053,-0.099v-0.109l0.047,-0.06l0.003,-0.081l0.043,-0.04l0.068,-0.016l0.127,-0.078l0.096,0.013l0.149,-0.022l0.185,0.084l0.099,-0.003l0.012,-0.04l-0.064,-0.175v-0.053l-0.047,-0.031l-0.108,-0.016l-0.077,-0.099l-0.062,-0.168l0.021,-0.103l-0.068,-0.147l-0.105,-0.037l0.009,-0.05l0.068,-0.053l0.087,-0.146l-0.009,-0.044l-0.09,-0.031l-0.019,-0.106l-0.157,-0.053l-0.062,0.009l-0.186,-0.109l-0.099,-0.018l-0.114,0.121l-0.309,-0.043l-0.236,-0.138l-0.179,-0.105v-0.066l-0.028,-0.022h-0.071l-0.105,-0.093l-0.09,-0.006l-0.046,-0.053v-0.116l0.062,-0.071l-0.016,-0.038l-0.071,-0.015l0.084,-0.1l0.03,-0.1l-0.018,-0.071l-0.149,-0.137v-0.047l0.062,-0.044l-0.028,-0.099l-0.126,-0.05l-0.313,0.009l-0.077,-0.103l0.012,-0.106l-0.058,-0.074l0.027,-0.078l-0.021,-0.044l-0.071,0.01l-0.041,-0.05v-0.081l-0.092,-0.153l0.027,-0.062l0.118,-0.013l0.136,-0.068l0.062,-0.119l0.179,-0.04l0.17,0.05l0.062,-0.013l0.127,-0.152l0.056,-0.007l0.272,0.081l0.207,0.147l0.062,0.019l0.118,-0.047l0.148,-0.01l0.031,-0.049l-0.087,-0.119l0.047,-0.09l0.127,0.009l0.21,-0.05l0.062,-0.068l0.015,-0.084l0.071,-0.035l-0.027,-0.074l0.027,-0.031l0.158,-0.035l0.084,-0.05l0.114,0.016l0.074,-0.022l0.072,-0.053l0.065,0.003l0.099,0.113l0.058,-0.007l0.192,-0.199l0.003,-0.062l0.047,-0.032l0.092,0.016l0.065,-0.081l-0.015,-0.224l-0.071,-0.081l-0.022,-0.125l-0.062,-0.103l0.022,-0.046l0.096,0.006l0.046,-0.041l-0.003,-0.137l0.043,-0.028h0.087l0.053,-0.065l-0.016,-0.097l0.028,-0.087l0.096,-0.044l0.046,-0.124l-0.018,-0.05l-0.161,-0.062l-0.05,-0.056l-0.127,-0.007l-0.114,-0.065v-0.065l-0.09,-0.085l-0.018,-0.065l0.034,-0.037l0.006,-0.032l-0.21,-0.049l-0.065,0.037l-0.087,-0.012l-0.012,-0.085l0.062,-0.034l0.006,-0.047l-0.037,-0.037l-0.205,0.003l-0.148,-0.059l-0.006,-0.041l0.04,-0.046l-0.003,-0.047l-0.074,-0.069l-0.01,-0.056l0.034,-0.053l-0.046,-0.149l0.04,-0.062l-0.012,-0.081l-0.087,-0.041l-0.009,-0.065l0.049,-0.153l-0.012,-0.053l0.009,-0.059l0.109,-0.097l-0.01,-0.05l-0.142,-0.031l-0.099,-0.078l-0.204,0.063l-0.096,-0.044l-0.08,-0.093l0.015,-0.106l-0.046,-0.035l-0.167,0.016l-0.164,-0.075l-0.062,-0.099l-0.077,-0.007l-0.127,-0.162l-0.022,-0.059l0.053,-0.053v-0.062l-0.062,-0.041l-0.019,-0.342l0.056,-0.047l0.018,-0.109l-0.055,-0.069l0.083,-0.149l0.127,-0.056l0.077,0.006l0.109,0.128l0.031,-0.006l-0.013,-0.085l0.044,-0.096l0.058,-0.003l0.059,0.047l0.142,0.003l0.177,-0.041l0.055,-0.09l0.152,-0.069l0.127,-0.015l0.08,-0.128l-0.012,-0.065l0.003,-0.075l0.167,-0.153l0.093,-0.019z M1199.246953,457.173859l0.032,-0.045l0.037,-0.007l0.017,0.02l0.005,0.032l-0.029,0.017l-0.047,-0.002l-0.015,-0.015z M1199.54767,440.561031l0.064,-0.022l0.024,-0.033l0.047,-0.007l0.025,0.022l-0.008,0.043l-0.027,0.02l0.005,0.072l-0.019,0.025l-0.005,0.088l0.039,0.067l0.003,0.063l-0.062,0.095l-0.005,0.04l-0.022,0.027l-0.027,0.008l-0.02,0.027l0.002,0.07l-0.034,0.06l-0.003,0.043l-0.017,0.01l-0.091,-0.005l-0.076,0.017l-0.06,-0.007l-0.027,-0.03l-0.01,-0.038l-0.044,-0.007l-0.025,0.02l-0.027,0.005l-0.022,-0.013h-0.024l-0.025,0.023h-0.064l-0.022,-0.02l0.019,-0.04l0.003,-0.033l-0.025,-0.067l0.008,-0.048l0.034,-0.02v-0.042l-0.032,-0.05l-0.042,-0.013l-0.01,-0.035l0.008,-0.072l0.017,-0.008l0.027,0.023l0.039,-0.008l0.02,-0.025l0.032,-0.007l0.059,0.007l0.042,-0.015l0.052,-0.06l0.17,-0.112l0.086,-0.01l0.05,-0.028z"/>
</svg>
