<svg xmlns="http://www.w3.org/2000/svg" viewBox="1102.379 396.690 1.568 0.864">
  <path d="M1102.394818,397.411232v-0.017254l0.017254,-0.007395l0.017254,0.012324l-0.012324,0.017254l-0.022184,-0.00493Z M1102.56736,397.253479l-0.029579,0.069017l-0.086271,0.054228l-0.002465,0.019719l0.051763,0.017254l0.027114,0.029579l0.069017,0.012324l0.078877,-0.027114l0.032044,-0.041903l0.039438,-0.019719l0.041903,0.014789l0.029579,0.036973l0.002465,0.066552l0.024649,0.017254l0.024649,-0.019719l0.032044,0.00493l0.022184,0.036973l0.029579,0.002465l0.022184,-0.039438v-0.036973l-0.029579,-0.034509l-0.00493,-0.091201l0.039438,-0.046833l0.073947,-0.017254l0.103526,0.00493l0.076412,0.032044l0.046833,0.039438l-0.007395,0.061622l0.017254,0.014789l0.029579,-0.022184l0.017254,0.00986l-0.029579,0.061622v0.039438l0.024649,0.017254l0.014789,-0.014789l0.007395,-0.054228l0.019719,-0.017254h0.039438l0.044368,0.019719l0.088736,0.098596l0.036973,0.002465l0.019719,-0.029579l0.066552,-0.019719h0.071482l0.071482,0.034509h0.034509l0.032044,-0.024649l-0.022184,-0.046833l-0.019719,-0.11092l0.007395,-0.061622l0.036973,-0.049298l0.054228,-0.012324l0.00986,-0.019719l-0.027114,-0.032044l-0.00493,-0.032044l-0.044368,-0.046833l-0.002465,-0.039438l0.019719,-0.029579l0.029579,-0.00986l0.00493,-0.019719l-0.017254,-0.041903l-0.017254,-0.024649l-0.11092,-0.039438l-0.019719,-0.029579l-0.049298,-0.017254l-0.041903,0.024649l-0.093666,0.022184l-0.049298,-0.019719l-0.014789,-0.059157l-0.066552,-0.071482l-0.056693,-0.00493l-0.036973,0.032044l-0.066552,0.002465l-0.039438,-0.027114l-0.101061,-0.007395l-0.086271,-0.051763l-0.044368,0.002465l-0.076412,0.034509l-0.034509,0.046833l-0.10599,0.022184h-0.064087l-0.051763,-0.041903l-0.11092,-0.056693h-0.024649l-0.014789,0.027114l-0.029579,0.002465l-0.061622,-0.022184l-0.041903,0.024649l-0.014789,0.051763l0.017254,0.066552l0.059157,0.041903l0.064087,0.086271l0.036973,0.086271l0.022184,0.101061l-0.012324,0.088736Z M1102.998717,397.374258l0.014789,-0.012324l-0.007395,-0.014789l-0.017254,0.002465l-0.00493,0.017254l0.014789,0.007395Z M1103.237811,397.458065l0.00986,-0.029579l-0.00986,-0.014789l-0.019719,0.014789l-0.002465,0.022184l0.017254,0.036973l0.012324,-0.002465l-0.007395,-0.027114Z "/>
</svg>
