<svg xmlns="http://www.w3.org/2000/svg" viewBox="1347.974 522.252 28.644 30.607">
  <path d="M1353.30934,526.839443h0.126l0.069,-0.051l0.047,0.019l0.004,0.088l0.223,0.074l0.093,-0.032l0.139,0.028l0.088,0.083l0.084,0.014l0.088,-0.046l0.162,0.051l0.019,0.102l0.074,0.06l0.125,0.033l0.01,0.083l-0.084,0.019l0.102,0.111l0.311,0.023l0.06,0.079l-0.037,0.232l0.009,0.088l0.075,0.019l0.264,0.404l0.019,0.264l0.292,-0.097l0.218,0.013l0.084,0.079l0.167,-0.13l0.065,0.005l0.204,0.204l0.51,0.334l0.557,0.585l0.575,0.065l0.112,0.074l1.327,0.195l0.074,0.093l0.093,-0.056l0.742,0.139l0.195,-0.238l12.663,-7.597l1.918,6.409l-0.643,0.186l0.383,1.274l1.411,-0.371l0.292,0.917l-0.631,0.52l-1.306,1.134l-13.187,3.722l6.532,7.345l-2.219,1.184l-1.074,2.475l-4.925,0.928l-1.633,2.648l-2.843,2.236l-7.358,-1.215l0.041,-0.176l0.084,-0.237l-0.028,-0.195l0.037,-0.241l0.111,-0.167l0.042,-0.177l-0.069,-0.116l-0.093,-0.023l0.009,-0.246l0.13,-0.292l0.125,-0.181l0.024,-0.204l-0.061,-0.167v-0.125l0.13,-0.418l0.098,-0.167l0.106,-0.39l0.13,-0.232l0.028,-0.158l-0.042,-0.403l0.121,-0.218l0.083,-0.042l0.014,-0.056l-0.055,-0.111l0.102,-0.246l0.162,-0.093l0.047,-0.116l-0.014,-0.079l0.083,-0.227l-0.088,-0.311l0.023,-0.246l-0.046,-0.236l0.018,-0.358l0.061,-0.185l0.19,-0.237l0.032,-0.107l-0.162,-0.366l0.014,-0.33l0.153,-0.324l0.009,-0.246l0.061,-0.167l0.004,-0.204l0.139,-0.293l0.232,-0.269l0.191,-0.468l0.041,-0.228l0.144,-0.269l0.126,-0.107l0.032,-0.079l-0.065,-0.19l-0.005,-0.144l0.112,-0.283l0.139,-0.176l0.158,-0.023l0.148,-0.204l0.028,-0.464l0.111,-0.334l0.149,-0.362l-0.028,-0.306l-0.26,-0.446l-0.093,-0.306l0.056,-0.214l0.325,-0.575l0.093,-0.38l0.027,-0.557l0.038,-0.446l0.061,-0.488l0.273,-0.842l0.167,-0.204l0.018,-0.08l-0.068,-0.136l-0.031,-0.229l0.031,-0.186l-0.049,-0.303l-0.099,-0.148l0.018,-0.106l0.099,-0.117l0.013,-0.093l-0.007,-0.161l-0.142,-0.482l0.019,-0.18l0.099,-0.142l0.018,-0.099l-0.068,-0.068l0.019,-0.074l0.08,-0.037l0.025,-0.062l-0.05,-0.062l0.019,-0.081l0.068,-0.049l0.019,-0.074l-0.022,-0.085l0.083,-0.26l0.01,-0.288l-0.074,-0.357l-0.014,-0.422l0.046,-0.139l-0.005,-0.098l-0.037,-0.046l-0.059,-0.062l0.028,-0.04l0.056,-0.016l0.003,-0.056l-0.046,-0.055l0.012,-0.074l0.074,-0.05l0.025,-0.124l-0.049,-0.086l0.012,-0.087l0.068,-0.056l-0.006,-0.086l-0.112,-0.118l0.013,-0.185l0.08,-0.112l0.019,-0.328l-0.086,-0.311l0.047,-0.051l0.098,0.012l0.133,-0.084l-0.007,-0.093l0.071,-0.106l0.185,-0.032l0.111,0.037l0.096,-0.04v-0.071l0.062,-0.092l0.392,-0.175l0.096,-0.106l0.048,-0.017z"/>
</svg>
