<svg xmlns="http://www.w3.org/2000/svg" viewBox="2076.866 427.798 23.083 17.611">
  <path d="M2084.707542,442.236691l0.013963,-0.07783l0.130325,-0.094339l0.186179,-0.028302l0.225742,-0.073113l0.304868,-0.021226l0.030254,-0.028302l0.048872,-0.113207l0.300214,-0.205187l0.181525,-0.016509l0.114035,0.056603l0.0256,-0.021226l-0.0256,-0.070754l0.065163,-0.063679l0.111707,0.025943l0.297887,0.287734l0.118689,0.047169l0.069817,0.049528l-0.016291,0.040094l-0.072144,0.025943l-0.018618,0.056603l0.011636,0.089622l-0.04189,0.009434l-0.146616,-0.021226l-0.230397,0.042453l-0.076799,0.044811l-0.002327,0.051886l0.06749,0.054245l-0.011636,0.028302l-0.09309,0.002358l-0.062835,-0.028302l-0.10938,0.021226l-0.053526,0.068396l0.013963,0.068396l-0.011636,0.051886l-0.053526,0.014151l-0.062835,-0.021226l-0.04189,0.014151l-0.197815,0.103773l-0.034909,0.082547l-0.058181,0.009434l-0.079126,-0.047169l-0.102399,-0.014151l-0.06749,0.066037l-0.016291,0.080188l0.023272,0.054245l-0.04189,0.082547l-0.148943,0.042453l-0.072144,-0.007075l-0.018618,-0.03066l0.034909,-0.049528l-0.04189,-0.042453l-0.072144,-0.025943l-0.072144,-0.127358l0.027927,-0.115565l0.058181,-0.040094l-0.016291,-0.018868l-0.081453,0.002358l-0.058181,0.051886v0.058962l0.020945,0.037736l-0.023272,0.033019l-0.100071,-0.042453l-0.046545,-0.054245l0.044218,-0.096697l0.086108,-0.063679l-0.002327,-0.044811l-0.079126,-0.058962l-0.051199,-0.09198Z M2086.075958,442.526783l-0.002327,0.033019l0.027927,0.035377l0.037236,-0.009434l0.004654,-0.025943l-0.032581,-0.035377l-0.034909,0.002358Z M2085.408041,442.807441l0.046545,-0.004717l0.006982,-0.037736l-0.039563,-0.035377l-0.037236,0.009434l-0.009309,0.033019l0.032581,0.035377Z M2080.846652,445.408896l0.055854,-0.004717l0.023272,-0.042453l-0.013963,-0.018868l-0.100071,0.002358l-0.051199,0.009434l-0.006982,0.021226l0.09309,0.033019Z M2081.859001,445.038616l0.030254,0.009434l0.027927,-0.025943l-0.006982,-0.028302l-0.030254,-0.002358l-0.027927,0.021226l0.006982,0.025943Z M2079.962301,444.633732l0.062835,-0.004717l0.081453,0.021226l0.04189,0.07783l-0.002327,0.068396l0.034909,0.042453l0.058181,0.009434l0.058181,-0.021226h0.060508l0.076799,0.023585l0.048872,-0.016509l-0.006982,-0.042453l-0.069817,-0.087263l0.009309,-0.049528l0.039563,-0.016509l0.006982,-0.028302l-0.020945,-0.018868l-0.055854,-0.007075l-0.051199,0.051886l-0.060508,0.016509l-0.111707,-0.021226l-0.051199,-0.051886l-0.06749,-0.014151l-0.104726,0.018868l-0.013963,0.021226l0.037236,0.028302Z M2081.065413,445.116445h0.062835l0.06749,-0.07783l0.081453,-0.03066l0.062835,0.007075l0.060508,-0.009434l0.062835,-0.103773l0.051199,-0.023585l0.016291,-0.035377l-0.027927,-0.051886l-0.044218,-0.014151l-0.065163,0.066037v0.044811l-0.016291,0.033019l-0.06749,0.009434l-0.09309,-0.018868l-0.111707,0.009434l-0.027927,0.047169l-0.086108,0.042453l-0.004654,0.06132l0.079126,0.044811Z M2081.637913,444.651826l0.172383,-0.08566l0.155079,-0.031432l0.144741,-0.090105l0.007209,-0.040442l-0.081453,-0.054245v-0.068396l0.116362,-0.148584l-0.004654,-0.033019l-0.06749,-0.021226l-0.132653,0.002358l-0.086108,-0.021226l-0.100071,-0.075471l-0.069817,-0.007075l-0.100071,0.054245l-0.325813,0.09198l-0.030254,0.033019l0.018618,0.035377l0.087004,0.049444l0.062032,0.079628l0.141869,0.113851l0.009309,0.040094l-0.018618,0.025943l0.011636,0.056603l0.048872,0.035377l0.007501,0.048739l0.03439,0.010223Z M2082.670468,443.503516l-0.002068,0.018859l0.196434,0.048196l0.165418,0.014668l0.126131,-0.008382l0.016542,-0.018859l-0.024813,-0.037718l-0.004135,-0.069151l-0.041354,-0.029337l-0.070303,-0.006286l-0.09098,-0.060769l-0.055828,-0.002095l-0.024813,0.027241l-0.014474,0.054482l-0.066167,0.035623l-0.109589,0.033528Z M2082.834114,437.972838l0.090762,-0.063679l0.052363,-0.010613l0.034909,-0.021226l0.017454,-0.053066l0.12218,-0.113207l0.083781,-0.017689l0.027927,-0.035377l-0.017454,-0.07783l0.013963,-0.056603l0.16407,-0.152121l0.261814,-0.127358l0.101235,-0.003538l0.108217,0.056603l0.12218,0.116744l0.069817,0.010613l0.024436,-0.04599l0.059345,-0.04599l0.076799,-0.021226l0.118689,-0.12382l0.006982,-0.07783l0.132653,-0.304243l0.094253,-0.152121l-0.024436,-0.007075l-0.076799,0.035377l-0.111707,0.088443l-0.16407,0.070754l-0.247851,0.04599l-0.509665,0.003538l-0.303705,0.031839l-0.101235,-0.010613l-0.157089,-0.074292l-0.171052,-0.049528l-0.237378,-0.12382l-0.097744,-0.070754l-0.048872,-0.152121l-0.069817,-0.060141l-0.087271,-0.028302l-0.076799,-0.04599l-0.027927,-0.07783l-0.136143,-0.084905l-0.04189,-0.003538l-0.191997,0.042453l-0.073308,0.038915l-0.031418,0.056603l-0.108217,0.088443l-0.094253,0.053066l-0.062835,0.056603l-0.034909,0.134433l-0.143125,0.286554l-0.157089,0.187499l-0.125671,0.095518l-0.013963,0.035377l0.010473,0.049528l-0.013963,0.141508l-0.076799,0.240564l-0.230397,0.244102l-0.101235,0.113207l-0.335122,0.219338l-0.087271,0.095518l-0.174543,0.314856l-0.16407,0.212263l-0.258324,0.198112l-0.310686,0.367922l-0.013963,0.081367l0.020945,0.053066l0.006982,0.191036l-0.04189,0.099056l-0.101235,0.070754l-0.28625,0.120282l-0.027927,0.038915l0.006982,0.049528l-0.020945,0.038915l-0.048872,0.010613l-0.097744,0.070754l-0.031418,0.049528l-0.052363,0.042453l-0.188506,0.067216l-0.115198,0.084905l-0.04189,0.134433l-0.04189,0.038915l-0.12218,0.014151l-0.171052,0.12382l-0.045381,0.084905l-0.073308,0.04599l-0.24436,0.081367l-0.143125,0.137971l-0.101235,0.219338l-0.08029,0.074292l-0.125671,0.035377l-0.083781,0.049528v0.066037l0.069817,0.099056l0.083781,0.259432l-0.009309,0.099056l-0.032581,0.160376l0.018618,0.127358l0.051199,0.099056l0.065163,0.004717l0.372358,-0.084905l0.223415,-0.004717l0.13498,0.018868l0.032581,0.06132l-0.009309,0.06132l-0.060508,0.06132l-0.046545,0.259432l0.013963,0.155659h0.046545l0.055854,-0.103773l0.074472,-0.410374l0.046545,-0.443393v-0.240564l0.04189,-0.306601l0.09309,-0.165093l0.283923,-0.254715l0.167561,-0.06132l0.297887,-0.023585l0.451484,-0.179244l0.111707,-0.103773l0.009309,-0.080188l-0.018618,-0.089622l0.055854,-0.202829l0.195488,-0.287734l0.116362,-0.018868l0.051199,0.033019l0.037236,0.051886l0.088435,0.009434l0.009309,-0.037736l-0.055854,-0.089622l0.013963,-0.202829l0.139634,-0.240564l0.074472,-0.042453l0.023272,-0.051886l0.004654,-0.094339l0.121016,-0.165093l0.172216,-0.136791l0.107053,-0.004717l0.074472,-0.051886l0.037236,-0.066037l0.069817,-0.028302l0.190834,-0.018868l0.148943,-0.117924l0.074472,-0.141508l0.083781,-0.188678l0.158252,-0.179244l0.21876,-0.084905l0.396794,-0.057783l0.701663,-0.024764l0.079126,-0.040094l0.011636,-0.048349Z M2095.324406,431.02124l0.279269,-0.233489l0.160579,-0.028302l0.104726,-0.042453l0.167561,-0.176885l0.20247,-0.09198l0.335122,-0.014151l0.174543,-0.070754l0.104726,-0.09198l0.258324,-0.063679l0.195488,-0.028302l0.062835,-0.028302l0.013963,-0.106131l0.411921,-0.283017l0.432866,-0.162735l0.719117,-0.042453l0.181525,0.07783h0.132653l0.160579,-0.106131h0.153598l0.076799,-0.063679l0.020945,-0.127358l0.139634,-0.191036l0.006982,-0.127358l-0.230397,-0.226413l-0.04189,-0.127358l0.04189,-0.141508l0.104726,-0.028302l0.20247,-0.120282l0.048872,-0.226413l-0.125671,-0.212263l-0.453812,-0.141508l-0.544574,0.07783l-0.411921,0.099056l-0.258324,0.24764l-0.216433,0.09198l-0.125671,0.09198l-0.118689,0.16981l-0.181525,0.084905l-0.237378,0.212263l-0.090762,0.16981l-0.006982,0.120282l-0.146616,0.205187l-0.314177,0.275941l-0.230397,0.07783l-0.125671,0.084905l-0.062835,0.113207l-0.160579,0.070754l-0.705153,0.162735l-0.719117,0.028302l-0.370031,-0.084905l-0.174543,-0.148584l-0.104726,-0.346695l-0.069817,-0.141508l-0.188506,-0.558958l-0.160579,-0.113207l-0.111707,0.014151l-0.28625,0.275941l-0.174543,0.346695l0.034909,0.297168l0.090762,0.16981l0.034909,0.374997l-0.062835,0.191036l-0.188506,0.084905l-0.188506,-0.028302l-0.397958,0.148584l-0.230397,0.198112l-0.139634,0.318394l0.034909,0.155659l-0.027927,0.148584l-0.279269,0.134433l-0.209452,-0.007075l-0.223415,-0.063679l-0.083781,-0.099056l-0.370031,-0.106131l-0.083781,0.007075l-0.006982,0.056603l0.160579,0.106131l-0.006982,0.191036l-0.069817,0.26179v0.205187l-0.020945,0.09198l-0.090762,0.09198l-0.118689,0.014151l-0.139634,0.084905l-0.40494,0.4316l-0.383994,0.24764l-0.377013,0.106131l-0.167561,0.162735l-0.055854,0.290092l-0.097744,0.134433l-0.125671,0.042453l-0.181525,-0.021226l-0.097744,-0.113207l-0.24436,-0.099056h-0.167561l-0.090762,0.084905v0.191036l0.181525,0.16981l0.370031,0.084905l0.104726,0.07783l-0.013963,0.240564l-0.146616,0.297168l-0.432866,0.353771l-0.216433,-0.014151l-0.090762,-0.084905l-0.153598,-0.049528h-0.216433l-0.013963,0.049528l0.139634,0.113207l0.062835,0.106131l-0.055854,0.226413l-0.195488,0.155659l-0.146616,-0.035377l-0.111707,-0.162735l-0.034909,-0.183961l-0.055854,-0.007075l-0.069817,0.162735l-0.006982,0.183961l0.125671,0.233489l-0.013963,0.09198l-0.174543,0.148584l-0.174543,0.049528l-0.139634,0.155659l-0.097744,0.275941l0.020945,0.141508l0.209452,0.120282l0.279269,0.049528l0.174543,-0.049528l0.181525,-0.191036l0.20247,-0.452827l0.328141,-0.346695l0.181525,-0.099056l0.125671,0.007075l0.097744,0.056603h0.188506l0.349086,-0.113207l0.279269,-0.290092l0.055854,-0.191036l0.474757,-0.622637l0.111707,-0.070754h0.069817l0.048872,-0.049528l0.069817,-0.113207l0.467775,-0.290092l0.174543,-0.007075l0.083781,-0.063679l0.055854,-0.127358l0.153598,-0.120282l0.181525,-0.021226l0.314177,-0.290092l0.069817,-0.191036l0.139634,-0.183961l0.139634,-0.106131v-0.049528l-0.209452,-0.09198l-0.027927,-0.113207l0.104726,-0.212263l0.24436,-0.205187l0.258324,-0.042453l0.104726,0.042453l0.055854,0.084905l0.006982,0.113207l0.230397,0.205187l0.216433,0.028302l0.279269,-0.134433l0.216433,-0.028302l0.146616,0.035377l0.097744,-0.007075l0.111707,-0.148584l0.230397,-0.134433l0.111707,-0.007075l0.076799,-0.063679l0.111707,-0.198112l0.125671,-0.183961l0.160579,-0.084905l0.083781,-0.084905l0.195488,-0.26179l0.6493,-0.367922Z "/>
</svg>
