<svg xmlns="http://www.w3.org/2000/svg" viewBox="1928.723 540.916 55.435 48.372">
  <path d="M1982.732804,585.992177l0.080423,0.012373l0.015466,0.040212l-0.049491,0.034025l-0.030932,-0.00928l-0.030932,-0.052584l0.015466,-0.024746Z M1983.886014,576.012044l0.105169,0.043305l0.123728,-0.012373l0.043305,-0.117542l-0.049491,-0.06805l-0.210338,-0.024746l-0.080423,0.043305l0.06805,0.136101Z M1983.477712,576.853395h0.167033l0.092796,-0.080423l0.043305,-0.204151l-0.111355,-0.123728l-0.173219,-0.006186l-0.098982,0.074237l-0.043305,0.22271l0.123728,0.117542Z M1976.409749,543.671091l0.160846,0.092796l0.040212,0.117542l0.185592,0.055678l0.204151,-0.083516l0.046398,-0.092796l-0.204151,-0.194872l-0.24127,-0.037118l-0.23199,-0.083516l-0.092796,0.018559l0.133008,0.207244Z M1980.826839,541.691443l0.047945,0.069597l0.125275,-0.037118l0.037118,-0.055678l-0.032479,-0.199511l-0.060317,-0.027839l-0.083516,0.115995l-0.034025,0.134554Z M1968.707681,555.641775l0.055678,-0.030932l-0.049491,-0.092796l-0.080423,0.012373l-0.024746,0.061864l0.098982,0.049491Z M1970.841989,552.59188l0.080423,-0.012373l-0.012373,-0.055678l-0.074237,-0.006186l-0.049491,0.030932l0.055678,0.043305Z M1969.98208,553.14247l0.123728,0.08661h0.080423l-0.012373,-0.167033l-0.043305,-0.055678l-0.117542,0.006186l-0.061864,0.061864l0.030932,0.06805Z M1972.295793,549.282156l0.006186,-0.074237l-0.049491,-0.055678l-0.061864,0.006186l-0.024746,0.092796l0.061864,0.06805l0.06805,-0.037118Z M1972.784519,550.964857l0.024746,-0.111355l-0.092796,-0.117542h-0.117542l-0.030932,0.08661l0.08661,0.142287h0.129914Z M1973.322736,549.832746l0.074237,0.006186l0.037118,-0.08661l0.08661,-0.052584l0.078877,-0.092796l-0.00464,-0.134554l0.023199,-0.111355l-0.055678,-0.046398l-0.190232,0.023199l-0.111355,0.117542l-0.024746,0.098982l0.037118,0.179406l0.049491,0.098982Z M1972.314353,547.760302l0.061864,-0.043305l-0.061864,-0.129914l-0.080423,-0.018559l-0.043305,0.055678l0.030932,0.111355l0.092796,0.024746Z M1974.640439,547.129289l0.055678,0.129914l0.173219,0.080423l0.092796,-0.030932l0.021033,-0.0631l-0.021033,-0.073001l-0.117542,-0.08661l-0.08661,-0.179406l-0.049491,0.018559v0.08661l-0.06805,0.117542Z M1972.83401,547.86547l0.037118,-0.043305l-0.043305,-0.037118l-0.043305,0.012373l-0.001547,0.051038l0.051038,0.017013Z M1974.244509,548.089727l0.083516,0.046398l0.060317,0.115995l0.078877,0.037118l0.097436,-0.027839l0.088156,0.018559l0.106715,0.00464l0.023199,-0.060317l-0.129914,-0.125275l-0.018559,-0.115995l-0.069597,-0.125275l-0.185592,-0.060317l-0.106715,0.046398l-0.046398,0.125275l0.018559,0.120635Z M1981.055736,544.489243l0.064957,0.018559l0.055678,-0.027839l0.055678,-0.088156l0.273748,-0.120635l0.148474,0.041758l0.037118,-0.032479v-0.125275l0.069597,-0.046398l0.00464,-0.041758l-0.055678,-0.097436l0.013919,-0.055678l0.064957,-0.046398v-0.092796l-0.088156,-0.097436l-0.00928,-0.167033l0.088156,-0.157753l0.00464,-0.088156l0.092796,-0.111355l0.037118,-0.102076l0.051038,-0.041758l0.097436,-0.00928l0.083516,-0.134554l0.032479,-0.125275l0.088156,-0.069597l0.046398,-0.097436l0.00928,-0.23663l-0.060317,-0.078877l0.032479,-0.120635l0.074237,-0.060317l0.078877,-0.129914l-0.041758,-0.366544l0.023199,-0.157753l0.055678,-0.078877l-0.023199,-0.102076l-0.097436,-0.171673l-0.00928,-0.134554l-0.055678,-0.018559l-0.125275,0.074237l-0.060317,0.148474l-0.139194,0.153113l-0.027839,0.060317l0.027839,0.092796l-0.064957,0.143834l-0.051038,0.046398l-0.037118,0.106715l-0.088156,0.074237l-0.083516,0.171673l-0.078877,0.055678l-0.055678,0.204151l0.055678,0.167033l0.018559,0.301587l-0.023199,0.125275l-0.185592,0.347985l-0.167033,0.213431l-0.097436,0.074237l-0.051038,0.092796l-0.097436,0.018559l-0.041758,0.074237v0.162393l0.102076,0.194872l0.00464,0.129914l-0.046398,0.074237v0.102076l0.069597,0.162393Z M1977.78313,544.283545l0.08661,0.371184l0.105169,0.111355l0.136101,0.371184l0.148474,0.142287l0.346438,0.061864l0.414489,-0.030932l0.278388,-0.117542l0.043305,-0.111355l0.235083,-0.191778l0.098982,-0.173219l0.055678,-0.334066l-0.024746,-0.136101l-0.117542,-0.117542l-0.321693,-0.111355l-0.08661,-0.092796l-0.30932,-0.173219l-0.340252,-0.080423l-0.142287,0.030932l-0.030932,0.123728l-0.197965,0.210338l-0.098982,0.061864l-0.167033,0.018559l-0.092796,0.06805l-0.018559,0.098982Z M1934.147357,589.255581l0.167033,0.032479l0.153113,-0.00928l0.023199,-0.069597l-0.027839,-0.069597l-0.171673,-0.027839l-0.134554,0.027839l-0.037118,0.060317l0.027839,0.055678Z M1933.998883,587.152205v-0.055678l-0.041758,-0.046398l-0.051038,0.00928l-0.00928,0.037118l0.051038,0.069597l0.051038,-0.013919Z M1935.23771,588.103364l0.055678,-0.018559l-0.023199,-0.046398h-0.046398l-0.023199,0.041758l0.037118,0.023199Z M1933.817931,586.975892l0.00464,0.055678l0.055678,-0.018559l0.018559,-0.037118l-0.041758,-0.018559l-0.037118,0.018559Z M1935.279468,587.982729l0.037118,0.013919l0.078877,-0.055678l0.018559,-0.037118l-0.013919,-0.032479l-0.060317,0.023199l-0.060317,0.088156Z M1936.253826,587.407394l0.055678,0.00928l0.060317,-0.055678v-0.051038l-0.064957,-0.078877h-0.046398l-0.041758,0.064957l-0.00464,0.064957l0.041758,0.046398Z M1935.553216,587.286759l0.078877,0.041758l0.069597,-0.023199l-0.00464,-0.055678l-0.088156,-0.102076l-0.069597,-0.013919l-0.060317,0.037118l-0.046398,0.064957l0.00464,0.055678l0.115995,-0.00464Z M1935.68777,587.987369l0.088156,0.051038l0.078877,-0.018559l0.046398,-0.060317l0.00464,-0.106715l-0.041758,-0.018559l-0.064957,0.013919l-0.046398,-0.037118l-0.069597,0.00464l-0.041758,0.041758l0.046398,0.129914Z M1928.820866,586.55367l0.173219,-0.012373l0.117542,0.012373l0.142287,-0.012373l0.136101,-0.111355l-0.006186,-0.049491l-0.24127,-0.080423l-0.266015,0.043305l-0.142287,0.098982l-0.012373,0.080423l0.098982,0.030932Z M1932.507961,577.323561l0.080423,-0.037118l0.074237,0.006186l0.049491,-0.043305l-0.049491,-0.055678l-0.105169,-0.006186l-0.08661,0.055678l-0.018559,0.055678l0.055678,0.024746Z M1933.590581,576.11412l0.049491,-0.037118l-0.043305,-0.043305l-0.043305,0.006186l-0.024746,0.043305l0.061864,0.030932Z M1932.9905,577.34212l0.049491,0.055678h0.049491l-0.006186,-0.061864l-0.06805,-0.030932l-0.024746,0.037118Z M1940.309011,585.212768l0.134554,-0.046398l0.055678,-0.078877l-0.032479,-0.106715l-0.167033,-0.051038l-0.129914,0.037118l-0.051038,0.097436l0.027839,0.106715l0.162393,0.041758Z M1940.313651,584.46576l0.046398,-0.00928v-0.046398l-0.051038,-0.046398l-0.055678,0.00464l-0.013919,0.037118l0.074237,0.060317Z M1943.821974,583.055075l-0.013919,0.037118l0.069597,0.060317h0.060317l0.032479,-0.051038l-0.055678,-0.051038l-0.092796,0.00464Z M1943.942609,584.56301l0.046398,-0.023199l-0.023199,-0.060317l-0.064957,-0.027839l-0.041758,0.013919l0.00464,0.060317l0.078877,0.037118Z M1943.22344,583.811362l0.023199,0.120635l0.139194,0.023199l0.051038,-0.046398l0.069597,-0.00464l0.060317,0.041758l0.143834,-0.00464l0.037118,-0.083516l-0.032479,-0.143834l-0.078877,-0.083516l-0.22735,-0.092796l-0.069597,0.032479l-0.023199,0.153113l-0.037118,0.027839l-0.097436,-0.023199l-0.013919,0.037118l0.055678,0.046398Z M1944.350911,584.56765l0.185592,-0.023199l0.180952,-0.055678l0.23199,-0.023199l0.310867,0.013919l0.102076,0.037118l0.032479,-0.023199l-0.120635,-0.092796l-0.074237,-0.120635l-0.078877,-0.055678l-0.097436,-0.00464l-0.106715,-0.046398l-0.051038,-0.083516l-0.134554,-0.074237l-0.125275,0.00464l-0.097436,-0.064957v-0.097436l-0.023199,-0.051038l-0.064957,-0.032479l-0.078877,-0.083516l-0.092796,-0.23199l-0.060317,-0.041758l-0.074237,-0.106715l-0.064957,-0.023199l-0.013919,0.041758l0.176312,0.273748l-0.00464,0.069597l-0.055678,0.046398l-0.037118,0.051038l0.00464,0.120635l-0.046398,0.051038l-0.064957,0.00464l-0.046398,0.027839l0.00928,0.078877l0.097436,0.069597l0.060317,0.092796l-0.018559,0.078877l-0.055678,0.00928l-0.055678,-0.051038l-0.037118,0.013919v0.088156l0.083516,0.102076l0.218071,0.102076l0.088156,0.00928Z M1936.733272,587.283666l0.098982,0.037118l0.160846,-0.055678l0.037118,-0.08661l0.074237,-0.037118l0.080423,0.055678l0.129914,-0.018559l0.06805,-0.136101l0.043305,-0.37737l-0.061864,-0.08661l0.006186,-0.167033l0.074237,-0.111355l0.092796,-0.043305l0.043305,-0.055678v-0.074237l0.043305,-0.074237l0.092796,-0.055678l0.030932,-0.080423l-0.018559,-0.074237l0.055678,-0.080423l0.123728,-0.098982l0.055678,-0.105169l-0.030932,-0.160846l-0.160846,-0.018559l-0.049491,0.030932v0.092796l-0.074237,0.160846l-0.06805,0.018559l-0.018559,0.055678l0.030932,0.08661l-0.049491,0.216524l-0.055678,0.018559l-0.061864,-0.043305l-0.080423,0.012373l-0.129914,0.15466l-0.037118,0.216524l-0.06805,0.037118l-0.08661,-0.030932l-0.117542,0.018559l-0.055678,0.043305l-0.179406,-0.030932l-0.092796,-0.142287l-0.092796,-0.049491l-0.043305,0.012373l0.055678,0.105169l-0.018559,0.074237l-0.080423,0.024746l-0.123728,-0.012373l-0.092796,0.061864l-0.006186,0.105169l0.043305,0.061864l0.061864,0.006186l0.080423,-0.074237l0.142287,0.024746l0.142287,0.129914l-0.037118,0.136101l-0.148474,0.08661v0.105169l0.191778,0.080423l0.080423,0.111355Z M1934.036002,586.955786l0.037118,0.167033l-0.037118,0.179406l-0.061864,0.006186l-0.136101,-0.074237l-0.210338,0.043305l-0.142287,0.117542l-0.018559,0.06805l0.15466,0.148474l0.160846,0.030932l0.08661,-0.024746l0.018559,-0.08661l0.049491,-0.006186l0.123728,0.105169l0.210338,0.061864l0.334066,0.012373l0.15466,0.074237l0.105169,0.024746l0.06805,-0.037118l-0.018559,-0.111355l0.043305,-0.037118l0.074237,0.024746l0.061864,-0.043305l-0.018559,-0.123728l0.049491,-0.142287l0.173219,-0.22271l-0.030932,-0.092796l-0.253642,-0.105169l-0.055678,-0.092796l-0.296947,-0.055678l-0.136101,0.043305l-0.06805,-0.018559l-0.080423,-0.185592l-0.15466,-0.043305l-0.055678,0.055678l0.037118,0.080423l-0.123728,0.092796l-0.043305,0.167033Z M1964.751809,568.161862l0.176907,0.130748l0.176907,0.028017l0.065176,-0.074713l-0.027933,-0.186783l-0.121042,-0.084052l-0.130353,0.009339l-0.121042,0.084052l-0.018622,0.093391Z M1961.623343,568.451375l0.037244,0.065374l0.279327,-0.242818l0.195529,-0.186783l0.046555,-0.140087l0.130353,-0.140087l-0.037244,-0.065374l-0.214151,0.065374l-0.344504,0.438939l-0.037244,0.130748l-0.055865,0.074713Z M1961.707141,569.067758l0.111731,-0.018678l0.055865,-0.177444l-0.055865,-0.11207l-0.139664,-0.018678l-0.111731,0.093391l0.037244,0.177444l0.10242,0.056035Z M1953.60284,573.054901l0.232773,0.065374l0.093109,0.168104l0.167596,0.140087l0.074487,-0.009339l-0.009311,-0.196122l0.074487,-0.093391l-0.009311,-0.121409l-0.186218,-0.224139l-0.176907,-0.037357l-0.344504,0.121409l-0.027933,0.102731l0.111731,0.084052Z M1957.116861,571.411881l0.074487,-0.084052l-0.065176,-0.093391l-0.111731,0.009339l-0.083798,0.11207l0.018622,0.074713l0.167596,-0.018678Z M1956.614072,572.934161l-0.009311,-0.093391l-0.074487,-0.056035l-0.074487,0.037357l0.009311,0.093391l0.083798,0.065374l0.065176,-0.046696Z M1960.589831,570.515324l0.30726,0.009339l0.167596,-0.074713l-0.009311,-0.093391l-0.176907,-0.084052h-0.297949l-0.10242,0.074713l0.018622,0.093391l0.093109,0.074713Z M1961.911981,573.064909l0.186218,-0.149426v-0.121409l-0.116386,-0.018678l-0.079143,0.121409l-0.139664,0.074713l0.009311,0.102731l0.139664,-0.009339Z M1962.084233,572.747378l0.041899,-0.00467l0.037244,-0.042026v-0.051365l-0.046555,-0.009339l-0.032588,0.032687v0.074713Z M1961.753695,573.732657l0.023277,-0.032687l0.013966,-0.065374l-0.037244,-0.028017l-0.041899,0.023348l0.004655,0.056035l0.037244,0.046696Z M1961.856115,573.233013l0.046555,-0.028017l-0.004655,-0.042026h-0.055865l-0.027933,0.042026l0.041899,0.028017Z M1961.423158,574.34904l0.046555,-0.018678l0.041899,-0.060704l-0.037244,-0.00467l-0.037244,0.014009l-0.065176,0.070044h0.05121Z M1962.247174,570.571359l0.074487,-0.056035l-0.037244,-0.074713l-0.065176,0.018678l-0.037244,0.074713l0.065176,0.037357Z M1962.231656,570.895116l0.124145,0.012452l0.022351,-0.051039l-0.028558,-0.085935l-0.083798,-0.068487l-0.111731,0.028017l-0.021725,0.108957l0.099316,0.056035Z M1960.177048,574.823779l0.124145,-0.018678l0.105524,-0.068487l0.049658,-0.105844l0.173804,-0.118296h0.117938l0.235876,-0.193009l0.043451,-0.105844l-0.055865,-0.11207l-0.117938,-0.024904l-0.124145,0.124522l-0.055865,-0.012452l-0.037244,-0.1432l0.012415,-0.118296l0.155182,-0.323757l0.074487,-0.056035l0.062073,-0.105844l-0.012415,-0.068487l0.043451,-0.080939l0.124145,-0.049809l0.074487,-0.068487l-0.031036,-0.074713l0.031036,-0.049809l0.074487,0.012452l0.173804,0.224139l0.173804,0.080939l0.049658,-0.018678l-0.012415,-0.093391l-0.086902,-0.1432l-0.124145,-0.062261l-0.093109,-0.124522l0.018622,-0.149426l-0.062073,-0.093391l-0.161389,-0.062261l-0.031036,-0.124522l0.093109,-0.186783l0.093109,-0.037357l0.223462,0.018678l0.192426,0.087165l0.080695,-0.03113l0.031036,-0.136974l0.105524,-0.062261l0.111731,0.012452l0.13656,-0.093391l0.012415,-0.1432l0.043451,-0.043583l0.242084,-0.056035l0.055865,-0.068487l-0.074487,-0.080939l0.006207,-0.056035h0.167596l0.080695,0.056035l0.105524,0.012452l0.229669,-0.11207l0.080695,-0.105844l-0.086902,-0.205461l0.043451,-0.018678l0.074487,0.018678l0.062073,-0.062261l-0.049658,-0.080939l0.037244,-0.043583l0.211047,0.024904l0.328986,-0.062261l0.279327,-0.305078l0.037244,-0.180557l0.099316,-0.193009l0.142767,-0.124522l0.043451,-0.093391l-0.049658,-0.099617l0.031036,-0.230365l-0.093109,-0.149426l-0.024829,-0.080939l-0.086902,-0.074713h-0.074487l-0.161389,-0.180557l-0.086902,-0.006226l-0.062073,0.087165l0.037244,0.093391l-0.006207,0.074713l-0.117938,0.168104l-0.031036,0.124522l-0.13656,0.11207l-0.043451,0.093391l-0.335193,0.361113l-0.186218,0.043583l-0.124145,0.168104l-0.018622,0.161878l-0.27312,0.161878l-0.229669,0.049809l-0.173804,-0.099617l-0.037244,-0.080939l0.024829,-0.11207l0.06828,-0.056035l0.018622,-0.062261l-0.322778,-0.124522l-0.142767,-0.006226l-0.192426,0.062261l-0.173804,-0.006226l-0.024829,0.099617l0.06828,0.099617v0.074713l-0.043451,0.080939l0.004811,0.13746l0.075884,0.192523l0.13656,0.037357l0.111731,-0.043583l0.316571,0.136974l0.006207,0.093391l-0.155182,0.168104l-0.440717,0.224139h-0.142767l-0.180011,0.099617l-0.074487,0.161878l-0.155182,0.11207l-0.043451,0.105844l-0.06828,0.037357l-0.06828,-0.043583l-0.074487,0.006226l-0.06828,0.099617l-0.117938,0.037357l-0.117938,-0.093391l-0.049658,0.037357v0.1432l0.148975,0.361113l0.018622,0.180557l0.13656,0.205461l-0.031036,0.11207l-0.260706,0.11207l-0.161389,0.105844l-0.080695,0.193009l-0.161389,0.080939l-0.06828,0.193009l0.006207,0.323757l0.124145,0.193009l-0.012415,0.236591l0.105524,0.062261l0.192426,-0.074713Z M1961.257113,570.969829l0.006207,-0.080939l-0.062073,-0.018678l-0.031036,0.062261l0.031036,0.062261l0.055865,-0.024904Z M1957.135483,574.319466l0.043451,-0.043583v-0.074713l-0.043451,-0.043583l-0.049658,0.03113v0.099617l0.049658,0.03113Z M1957.14169,573.973918h0.046555l0.024829,-0.068487l-0.024829,-0.034244l-0.043451,0.012452l-0.03414,0.049809l0.031036,0.04047Z M1957.453072,574.26849l0.056884,0.027288l0.017312,-0.10419l-0.051937,-0.188534l-0.081616,-0.059537l-0.06183,0.032249l-0.024732,0.084344l0.111294,0.079383l0.034625,0.128997Z M1958.454723,574.02538l0.032152,0.014884l0.084089,-0.10419l0.004946,-0.057056l-0.037098,-0.019846l-0.037098,0.049614l-0.046991,0.116593Z M1958.192562,573.665678l0.029679,0.039691h0.032152l0.009893,-0.054576l-0.042045,-0.024807l-0.029679,0.039691Z M1957.62867,574.045226l0.012366,-0.039691l-0.017312,-0.066979l-0.024732,-0.017365l-0.017312,0.03473l0.019786,0.081863l0.027205,0.007442Z M1957.448126,573.871577l0.150866,0.012404l0.121187,-0.071941l0.012366,-0.059537l-0.054411,-0.052095l-0.07667,-0.007442l-0.06183,0.059537l-0.103875,0.03473l-0.027205,0.062018l0.039571,0.022326Z M1957.997179,573.802117l0.014839,-0.054576l-0.004946,-0.049614l-0.037098,0.014884l-0.019786,0.059537l0.022259,0.054576l0.024732,-0.024807Z M1957.84384,574.432217l0.029679,-0.049614l0.066777,-0.037211l0.022259,-0.059537l-0.032152,-0.071941l0.004946,-0.052095l0.034625,-0.037211l0.037098,-0.171169l-0.032152,-0.071941h-0.056884l-0.046991,0.066979l-0.029679,0.156285l-0.034625,0.042172l0.002473,0.06946l0.032152,0.066979l-0.029679,0.10667l0.009893,0.049614l0.022259,-0.007442Z M1963.749153,562.371347l-0.027646,-0.073733l-0.050685,-0.036867l-0.032254,0.02765l0.018431,0.08295l0.073723,0.046083l0.018431,-0.046083Z M1974.925428,559.360463l0.165877,-0.018395l0.135159,-0.104236l0.313323,-0.429208l-0.018431,-0.104236l-0.098297,-0.024526l-0.337897,0.27592l-0.221169,0.049052l-0.098297,0.116499l0.036862,0.147157l0.122872,0.091973Z M1966.2669,565.755003l0.087546,-0.087558l0.115192,-0.184333l0.327146,-0.207375v-0.059908l-0.096762,-0.009217l-0.267246,0.13825l-0.350185,0.129033l-0.368615,0.02765l-0.064508,-0.046083h-0.0599l-0.069115,0.19355l0.036862,0.13825l0.1797,0.1659l0.170485,0.009217l0.3594,-0.207375Z M1969.820105,561.206059l0.073723,-0.128762l0.024574,-0.134894l-0.079867,-0.030658l-0.067579,0.061315l-0.043005,0.190078l0.036862,0.07971l0.055292,-0.036789Z M1970.176433,561.181533h0.122872l0.190451,0.091973l0.036862,-0.067447l-0.036862,-0.07971l-0.184308,-0.030658l-0.079867,-0.061315l-0.079867,-0.006132l-0.036862,0.073579l0.067579,0.07971Z M1969.985982,559.342068l0.116728,0.042921l0.08601,-0.030658l-0.055292,-0.091973l-0.327661,-0.058763l-0.022953,0.036458l0.17245,0.046831l0.030718,0.055184Z M1970.879874,560.844297l0.052221,0.012263l0.116728,-0.122631v-0.134894l-0.067579,-0.044454l-0.133623,0.022993l-0.216562,-0.032191l-0.233456,-0.105769l-0.018431,-0.122631l-0.061436,-0.061315l-0.135159,-0.030658l-0.036862,-0.098105l0.024574,-0.098105l-0.073723,-0.067447l-0.159733,0.061315l0.006144,0.110368l0.129015,0.177815l0.092154,0.042921l0.036862,0.098105l0.006144,0.263657l0.043005,0.024526l0.147446,-0.128762l0.061436,0.018395l0.067579,0.220736l0.067579,0.030658l0.049149,-0.024526l0.024574,-0.118032l0.08601,-0.041388l0.075259,-0.009197l0.055292,0.041388l-0.004608,0.114967Z M1968.431654,563.696479l0.184308,-0.061444l0.129015,-0.104456l0.172021,-0.319511l0.049149,-0.239633l-0.172021,-0.282644l-0.196595,-0.1106l-0.061436,-0.301078l0.067579,-0.122889l-0.049149,-0.079878l-0.337897,-0.018433l-0.178164,0.1106v0.577578l0.098297,0.172044v0.129033l-0.110585,0.153611l0.006144,0.122889l0.172021,0.122889l0.067579,0.227344l0.159733,0.024578Z M1969.832392,559.673172l0.073723,0.073579l0.411621,0.073579l0.122872,-0.055184h0.08601l0.098297,0.07971l-0.067579,0.067447l-0.006144,0.091973l0.073723,0.07971l0.061436,0.190078l0.172021,0.110368l0.245744,0.049052l0.092154,0.134894l0.067579,-0.012263v-0.104236l-0.147446,-0.202341l0.024574,-0.055184l0.264174,0.049052l0.049149,-0.030658l-0.024574,-0.122631l0.055292,-0.061315l0.196595,-0.036789l0.190451,-0.15942l-0.067579,-0.141026l-0.270318,-0.042921l-0.018431,-0.036789l0.165877,-0.024526l0.079867,-0.091973v-0.165552l0.061436,-0.024526l0.159733,0.024526l0.319467,-0.128762l-0.006144,-0.073579l0.030718,-0.067447l0.184308,-0.085842l0.282605,-0.453735l0.098297,-0.042921l0.147446,0.049052l0.233456,-0.049052l0.215026,-0.171683l0.018431,-0.288183l-0.147446,-0.147157l-0.073723,-0.251393l-0.098297,0.006132l-0.122872,0.153289l-0.036862,0.429208l-0.061436,0.098105h-0.092154l-0.006144,-0.300446l-0.061436,-0.055184l-0.399333,0.07971l-0.2396,0.141026l-0.067579,0.324972l-0.073723,0.006132l-0.061436,-0.073579l-0.196595,0.006132l-0.079867,0.128762l-0.092154,0.030658l-0.079867,-0.012263l-0.281069,0.156354h-0.184308l-0.221169,0.134894l-0.02611,0.088907l-0.102905,0.075111h-0.175092l-0.2396,0.105769l-0.047613,0.101171l0.03379,0.091973l0.170485,0.045987l0.216562,-0.032191l0.009215,0.035256l-0.087546,0.075111l-0.165877,0.041388l-0.4792,-0.004599l-0.234992,0.045987l-0.003072,0.087375l0.135159,0.042921Z "/>
</svg>
