<svg xmlns="http://www.w3.org/2000/svg" viewBox="1792.690 653.784 35.034 28.586">
  <path d="M1796.926663,675.888428l-0.038945,-0.085308l0.001855,-0.076035l0.044508,-0.092726h0.016691l0.022254,0.040799l0.051927,0.001855l0.083453,-0.046363l0.072326,-0.001855l0.046363,0.050072l0.081599,0.202143l-0.007418,0.053781l-0.018545,0.042654l-0.011127,0.120544l0.024109,0.03709l0.03709,0.011127l0.014836,0.042654l-0.003709,0.083453l0.027818,0.089017v0.040799l-0.016691,0.022254l-0.009273,0.063054l-0.024109,0.031527l-0.025963,0.011127l-0.005564,0.0204l0.009273,0.03709v0.048217l-0.03709,0.068617l-0.014836,0.059345l-0.029672,0.018545h-0.050072l-0.033381,-0.027818l-0.074181,-0.005564l-0.044508,-0.044508l-0.011127,-0.064908l-0.063054,-0.053781l0.001855,-0.0204l0.031527,-0.035236v-0.085308l-0.011127,-0.03709l0.001855,-0.063054l0.029672,-0.05749v-0.070472l-0.031527,-0.113126l-0.042654,-0.040799v-0.068617l0.011127,-0.042654l-0.005564,-0.063054Z M1798.323761,680.076144l0.052363,0.013963l0.034909,0.045381l0.010473,0.12218l0.038399,0.052363l0.059345,0.010473l0.031418,-0.017454l0.062835,0.003491l0.087271,0.038399l0.062835,0.104726l0.04189,0.185016l0.027927,0.006982l0.087271,-0.125671l0.055854,-0.034909l0.090762,-0.006982l0.076799,-0.104726l-0.010473,-0.083781l-0.031418,-0.003491l-0.031418,0.020945l-0.052363,-0.013963l-0.038399,-0.087271l-0.066326,-0.017454l-0.076799,0.013963l-0.052363,-0.017454l-0.024436,-0.034909l0.003491,-0.178034l-0.020945,-0.097744l-0.090762,-0.048872l-0.048872,0.010473l-0.059345,0.062835l-0.059345,0.003491l-0.04189,-0.024436l-0.066326,0.003491l-0.052363,0.04189l-0.017454,0.083781l0.017454,0.073308Z M1800.903505,681.706375l0.059345,0.076799l0.073308,0.045381l0.045381,-0.017454l0.006982,-0.04189l-0.04189,-0.104726l-0.066326,-0.048872h-0.066326l-0.010473,0.04189v0.048872Z M1798.914879,680.969986l0.011127,0.053781l0.085308,0.13538l0.100144,0.105708l0.025963,0.085308l0.029672,0.012982l0.042654,-0.040799l0.018545,-0.085308l0.044508,-0.031527l0.053781,-0.011127l0.005564,-0.03709l-0.035236,-0.055636l-0.029672,0.001855l-0.059345,0.048217l-0.061199,0.001855l-0.044508,-0.038945l-0.001855,-0.083453l0.033381,-0.05749l0.059345,-0.005564l0.009273,-0.025963l-0.033381,-0.079744l-0.044508,-0.012982l-0.055636,0.024109l-0.081599,0.003709l-0.050072,0.022254l-0.022254,0.070472Z M1801.997308,681.651685v0.115198l-0.069817,0.038399l-0.006982,0.045381l0.205961,0.157089h0.094253l0.108217,-0.087271l0.006982,-0.146616l-0.031418,-0.136143l-0.157089,-0.094253l-0.146616,-0.003491l-0.027927,0.048872l0.024436,0.062835Z M1802.255631,682.164841l0.020945,0.048872l0.094253,0.055854l0.034909,-0.003491v-0.04189l0.048872,-0.059345l-0.006982,-0.04189l-0.139634,-0.034909l-0.04189,0.013963l-0.010473,0.062835Z M1797.61628,679.096377l0.052363,-0.010473l0.003491,-0.020945l-0.083781,-0.069817h-0.034909l-0.031418,0.045381l0.027927,0.038399l0.066326,0.017454Z M1798.237653,679.550188l0.04189,0.020945l0.069817,-0.020945l-0.003491,-0.055854l-0.059345,-0.04189l-0.045381,0.006982l-0.027927,0.038399l0.024436,0.052363Z M1805.827558,682.114053l0.011701,-0.035244l-0.022303,-0.026295l-0.062254,0.021698l-0.029681,0.034942l0.026929,0.034307l0.075608,-0.029408Z M1800.658505,681.518571h0.024672l0.020373,-0.020782l0.004298,-0.034729l-0.024017,0.000221l-0.019719,0.022184l-0.005607,0.033106Z M1805.814093,682.329386l-0.010715,0.022253l-0.000732,0.019451l0.025294,-0.007896l0.011987,-0.015258l-0.001047,-0.018743l-0.024787,0.000193Z M1797.442237,678.964937l0.024575,0.00983l0.014745,-0.00983l-0.004915,-0.024575h-0.024575l-0.00983,0.024575Z M1799.845265,680.968505l0.061438,-0.017203l-0.007373,-0.024575l-0.073726,-0.002458l-0.036863,0.01966l0.002458,0.022118l0.054065,0.002458Z M1800.251175,680.833003l0.027756,-0.027756l-0.021588,-0.027756h-0.058595l-0.037007,0.024672l0.003084,0.033923l0.086351,-0.003084Z M1798.391944,679.642452l0.012373,-0.021652l-0.021652,-0.012373l-0.021652,0.00928v0.024746h0.030932Z M1800.730191,681.720036l0.042518,0.026023l0.025589,-0.007488l-0.013456,-0.033815l-0.021074,-0.020901l-0.034357,-0.012741l-0.016148,0.01541l0.016929,0.033511Z M1799.03843,680.826603l0.029579,-0.002465l0.012324,-0.024649l-0.00986,-0.019719h-0.027114l-0.014789,0.022184l0.00986,0.024649Z M1797.379709,678.69992l0.019719,-0.019719l-0.007395,-0.027114h-0.022184l-0.017254,0.022184l0.00493,0.029579l0.022184,-0.00493Z M1797.509007,678.527252l0.034332,-0.020026l0.008055,-0.023812l-0.020775,-0.003456l-0.026365,0.016087l-0.018156,0.026518l0.022909,0.004688Z M1797.547591,678.825646l0.024436,-0.031418l0.003491,-0.048872l-0.020945,-0.003491l-0.031418,0.038399l-0.003491,0.048872l0.027927,-0.003491Z M1796.868191,673.830567l0.027927,-0.031418v-0.020945h-0.024436l-0.031418,0.031418v0.031418l0.027927,-0.010473Z M1797.288549,675.54567l0.050072,-0.059345l0.085308,-0.046363l0.100144,-0.025963l0.046363,-0.070472v-0.048217l-0.050072,-0.035236l-0.120544,-0.025963l-0.051927,-0.031527l-0.014836,-0.055636l-0.025963,-0.022254l-0.031527,0.001855l-0.029672,-0.009273l0.005564,-0.014836l0.042654,-0.022254v-0.022254l-0.040799,-0.018545l-0.050072,-0.064908l-0.003709,-0.05749l-0.018545,-0.018545l-0.120544,0.031527l-0.089017,0.089017l-0.001855,0.046363l0.011127,0.038945l0.109417,0.139089l0.05749,0.127962l0.009273,0.176179l0.0204,0.024109l0.059345,0.001855l0.051927,-0.027818Z M1797.531491,675.228548l0.035236,-0.014836l0.012982,-0.029672l-0.011127,-0.029672l-0.17247,-0.076035l-0.027818,-0.001855l-0.012982,0.018545l0.031527,0.079744l0.035236,0.027818l0.064908,0.018545l0.044508,0.007418Z M1797.612289,675.324656l0.030254,0.0256h0.044218l0.006982,-0.018618l-0.030254,-0.039563l-0.039563,-0.002327l-0.013963,0.009309l0.002327,0.0256Z M1797.698397,675.306038l0.0256,0.0256l0.04189,-0.002327l0.018618,-0.023272l-0.023272,-0.0256l-0.058181,-0.011636l-0.011636,0.009309l0.006982,0.027927Z M1797.264703,674.935843h0.024672l0.020373,-0.020782l0.004298,-0.034729l-0.024017,0.000221l-0.019719,0.022184l-0.005607,0.033106Z M1797.602887,675.413443l0.034854,0.003978l0.025623,-0.027287l-0.023721,-0.013864l-0.031059,-0.000099l-0.020012,0.018947l0.014315,0.018326Z M1797.517089,675.537632l0.046693,-0.017203l0.004915,-0.027033l-0.046693,-0.012288l-0.031948,0.022118l-0.002458,0.031948l0.02949,0.002458Z M1797.334505,675.00515l-0.008976,-0.029601l-0.02352,0.001314l-0.002917,0.035147l0.021137,0.014277l0.014277,-0.021137Z M1804.713136,681.292955l0.033512,0.001971l0.019713,-0.013799l-0.001971,-0.031541h-0.01577l-0.035484,0.023656v0.019713Z M1804.792266,681.281281l0.014138,0.064406l0.02304,0.04189l0.03037,0.000524l0.032711,-0.041921l0.114336,-0.072938l0.053225,-0.007885l0.009857,-0.025627l-0.070967,-0.088709l-0.128135,-0.108422l-0.023656,-0.027598l-0.013799,0.001971l-0.009857,0.116307l-0.028122,0.077312l-0.003142,0.07069Z  M1796.44347,674.105181l0.035,-0.014l0.032,-0.035l-0.018,-0.607l-0.044,-0.144l-0.1,-0.131l-0.044,-0.007l-0.016,-0.023l0.023,-0.033l-0.014,-0.027l-0.079,-0.024l-0.035,-0.046l-0.012,-0.054l-0.037,-0.032l-0.037,-0.007l-0.021,-0.033l-0.014,-0.063l-0.04,-0.056l-0.044,-0.037l-0.091,-0.221l-0.004,-0.067l0.016,-0.047l-0.005,-0.042l-0.039,-0.074l-0.012,-0.089l-0.042,-0.077l-0.046,-0.018l-0.021,-0.047l-0.019,-0.081l-0.072,-0.084l-0.047,-0.154l-0.002,-0.081l0.021,-0.042l-0.002,-0.035l-0.038,-0.07l-0.014,-0.204l-0.03,-0.049l-0.046,-0.024l-0.033,-0.039l-0.021,-0.063l-0.114,-0.114l-0.009,-0.061l-0.017,-0.044l-0.077,-0.063l-0.042,-0.102l-0.005,-0.063l-0.026,-0.037v-0.037l0.04,-0.107l-0.002,-0.054l-0.014,-0.032l-0.003,-0.038l0.059,-0.107l0.002,-0.07l-0.026,-0.149l0.005,-0.069l0.067,-0.217l0.011,-0.412l0.105,-0.146l0.088,-0.047l0.158,-0.002l0.061,-0.033l0.032,-0.056l-0.009,-0.132l-0.056,-0.054l-0.007,-0.074l-0.063,-0.061l-0.13,-0.03l-0.044,-0.005l-0.056,-0.028l-0.007,-0.051l0.016,-0.051l-0.011,-0.037l-0.038,-0.028h-0.037l-0.027,0.018l-0.015,-0.003l0.009,-0.064l0.043,-0.092l-0.015,-0.008l-0.056,0.024l-0.037,-0.003l-0.089,-0.08l-0.011,-0.061l-0.059,-0.043l-0.063,-0.018v-0.019l0.041,-0.035l-0.004,-0.028l-0.102,-0.098l-0.024,-0.087l-0.037,-0.028l-0.056,-0.006l-0.035,-0.024l-0.002,-0.054l0.022,-0.041l-0.003,-0.04l-0.034,-0.019l-0.08,-0.004l-0.05,-0.027l-0.052,-0.008l-0.211,-0.195l-0.02,-0.046l-0.071,-0.026l-0.039,0.002l-0.037,0.028h-0.028l-0.024,-0.022l-0.046,-0.002l-0.032,0.015l-0.04,-0.002l-0.145,-0.115l-0.03,-0.06l0.002,-0.029l0.028,-0.03l-0.002,-0.024l-0.072,-0.076l0.002,-0.026l0.029,-0.054l-0.002,-0.124l-0.016,-0.028l-0.006,-0.03l0.039,-0.046l0.033,-0.022l0.047,-0.008l0.046,-0.05l0.045,-0.022l0.037,-0.089l-0.006,-0.048l-0.055,-0.069l-0.002,-0.037l0.028,-0.048l-0.002,-0.037l-0.037,-0.041l-0.052,-0.015l-0.023,-0.026l-0.001,-0.089l-0.025,-0.041l-0.066,-0.04l-0.008,-0.052l0.013,-0.03l0.039,-0.033l0.004,-0.134l0.017,-0.031l-0.002,-0.026l-0.043,-0.038l-0.018,-0.04l-0.002,-0.065l-0.052,-0.056l-0.024,-0.074l-0.002,-0.03l0.068,-0.076v-0.048l-0.081,-0.102v-0.022l0.118,-0.1h0.025l0.027,0.022l0.023,-0.002l0.048,-0.05l0.037,-0.004l0.002,-0.018l-0.173,-0.05l-0.07,-0.039l-0.18,-0.351l-0.005,-0.057l-0.053,-0.035l-0.08,-0.005l-0.06,-0.06l-0.023,-0.079l-0.075,-0.082l-0.021,-0.065v-0.056l-0.018,-0.032l-0.068,-0.059l-0.014,-0.123l-0.06,-0.116l-0.007,-0.175l-0.031,-0.06l-0.116,-0.161l-0.019,-0.119l-0.109,-0.128l-0.002,-0.081l0.065,-0.103l-0.005,-0.072l-0.079,-0.17l-0.002,-0.065l0.079,-0.237l0.014,-0.14l-0.009,-0.223l-0.024,-0.084l0.007,-0.14l0.042,-0.104l-0.005,-0.079l-0.076,-0.117l-0.035,-0.065l-0.075,-0.044l-0.004,-0.047l0.051,-0.093l0.056,-0.014l0.053,0.005l0.042,-0.042l-0.005,-0.035l0.028,-0.028l0.056,0.005l0.091,0.07h0.063l0.088,-0.021h0.077l0.123,0.072l0.089,0.002l0.119,-0.021l0.048,-0.039h0.066l0.242,0.044l0.076,-0.007l0.089,-0.072l0.077,-0.005l0.058,-0.063l0.021,-0.091l0.058,-0.039l0.268,-0.002v-0.019l-0.201,-0.126l-0.093,-0.011l-0.03,-0.028l-0.009,-0.044l-0.044,-0.038l-0.049,-0.014l-0.068,-0.058v-0.03l0.086,-0.154l0.052,-0.051l0.046,-0.002l0.023,-0.017l0.024,-0.048l0.507,-0.268l0.149,-0.049l0.049,-0.037l0.067,-0.084l0.044,-0.014h0.103l0.063,-0.035v-0.077l-0.058,-0.046l-0.002,-0.024l0.209,-0.337l0.076,-0.081l0.098,-0.477l0.033,-0.045l0.1,-0.041l0.032,-0.035l0.063,-0.131l0.325,-0.265l0.263,-0.07l0.037,-0.064l-0.037,-0.177l0.011,-0.215l0.059,-0.118l0.096,-0.101l0.027,-0.129l0.075,-0.123v-0.092l-0.048,-0.102l0.048,-0.107l0.182,-0.096l0.172,-0.043l0.123,-0.081l0.107,-0.026l0.059,-0.065l0.033,-0.118l0.096,-0.102l0.038,-0.08l0.171,-0.086l0.199,-0.011l0.048,-0.032l0.032,-0.08l0.054,-0.043l0.08,0.027l0.054,-0.016l0.037,-0.075l0.092,-0.017l0.166,0.059l0.161,-0.021l0.198,-0.123l0.397,-0.038l0.552,-0.016l0.07,-0.059l0.043,-0.107l0.075,-0.032l0.059,0.01l0.08,0.097h0.081l0.354,-0.258l0.209,-0.091l0.209,-0.01l0.188,0.08l0.037,0.08h0.07l0.118,-0.096l0.032,-0.107l0.118,-0.07l0.193,0.016l0.07,0.097l-0.043,0.23l0.048,0.07l0.102,0.005l0.097,-0.032l0.343,0.129l0.187,0.005l0.135,-0.054l0.101,0.011l0.145,0.14l0.268,0.091l0.167,0.005l0.107,-0.091l0.188,0.005l0.085,-0.037l0.075,0.011l0.081,0.069h0.161l0.252,-0.053l0.096,-0.075l0.049,-0.097l0.144,-0.027l0.043,0.038l-0.01,0.069l0.026,0.043l0.167,-0.005l0.059,-0.059l0.005,-0.086l0.075,-0.043l0.091,0.016l0.097,0.086l0.112,-0.005l0.129,-0.086l0.054,-0.123l0.112,-0.027l0.247,0.171l0.198,0.081l0.392,-0.011l0.338,0.075l0.037,0.065l0.075,-0.006l0.048,-0.086l0.124,-0.069l0.112,0.01l0.086,0.097l0.193,0.027l0.14,-0.059l0.048,-0.124l0.349,-0.284l0.075,0.006l0.085,0.139l0.108,0.016l0.08,-0.064l0.038,-0.107l0.118,-0.07l0.048,0.027l-0.011,0.144l0.032,0.017l0.075,-0.049l0.059,0.006l0.022,0.043l0.043,-0.006l0.112,-0.123l0.177,-0.081l0.086,0.027l0.048,0.081l0.124,0.059l0.016,0.064l0.037,0.016l0.134,-0.075h0.102l0.274,0.08l0.129,0.108l0.064,-0.006l0.059,-0.048l0.091,0.016l0.129,0.086l0.048,0.102l-0.054,0.214l-0.037,0.049l0.005,0.059l0.091,0.101l0.129,0.242l0.016,0.145l0.161,0.139l0.161,0.059l0.214,-0.016l0.172,-0.102l0.113,-0.156l-0.011,-0.101l0.112,-0.226l0.059,-0.032l0.022,-0.053l-0.054,-0.113l0.049,-0.08l0.134,-0.022l0.066,0.022v0.402l0.046,0.078l0.222,0.206l0.191,0.402l0.079,0.061l0.193,0.054l0.057,0.053l0.047,0.104l0.164,0.154l0.043,0.071l0.197,0.029l0.078,-0.025l0.018,-0.047h0.061l0.057,0.032l0.182,0.007l0.186,-0.078l0.125,-0.09l0.108,-0.028l0.261,-0.15l0.068,0.003l0.071,0.097l0.061,0.032l0.039,-0.018l-0.003,-0.039l0.053,-0.018l0.057,0.039l0.018,0.097l0.043,0.003l0.05,-0.021l0.05,0.028l0.025,0.093l-0.01,0.05l0.075,0.076l0.028,-0.025l0.043,-0.111l0.039,-0.022l0.129,0.065l0.1,0.118l0.061,0.007l0.082,-0.104l0.05,-0.004l0.05,0.068l0.083,0.025h0.128l0.133,0.058l0.007,0.068l-0.029,0.089l0.043,0.207l0.062,0.073l0.136,0.072l0.293,0.241l0.185,0.199l0.11,0.072l0.126,0.019l0.233,-0.003l0.07,0.035l0.107,-0.003l0.048,-0.042l0.051,-0.003l0.231,0.062l0.407,0.077l0.032,-0.027l0.008,-0.235l-0.016,-0.081l0.003,-0.07l-0.027,-0.059l0.016,-0.056l0.03,-0.032l0.091,-0.003l0.051,-0.048l0.019,-0.062l0.072,-0.072l0.072,-0.013l0.041,0.032l0.056,-0.008l0.07,-0.124l0.01,-0.064l0.038,-0.059l-0.016,-0.054l-0.172,-0.118l-0.053,-0.005l-0.049,-0.035l-0.024,-0.064l-0.118,-0.116l-0.013,-0.077l-0.043,-0.121l0.003,-0.209l-0.016,-0.056l-0.049,-0.033l-0.142,-0.013l-0.171,-0.067l-0.038,-0.038l-0.021,-0.064l-0.067,-0.08l-0.011,-0.062l-0.046,-0.051l0.006,-0.113l0.032,-0.042l-0.006,-0.057l-0.053,-0.153v-0.056l-0.032,-0.035l-0.075,0.003l-0.043,-0.024l-0.035,-0.054l-0.003,-0.059l0.024,-0.043l-0.005,-0.043l-0.022,-0.029v-0.059l0.027,-0.075l0.032,-0.003l0.145,0.164l0.062,0.016l0.115,-0.008l0.038,-0.035h0.059l0.064,0.075h0.032l0.022,-0.072l-0.016,-0.073l0.018,-0.051l0.067,-0.027l0.089,0.03l0.059,0.062l0.045,0.002l0.07,-0.072l0.059,-0.014l0.046,0.03l0.048,0.078l0.083,0.035l0.102,-0.011l0.083,-0.118l0.051,-0.005l0.035,0.026l0.046,-0.005l0.067,-0.097l0.016,-0.083l0.037,-0.061v-0.134l0.027,-0.07l0.054,-0.046l0.002,-0.048l-0.053,-0.083l0.005,-0.048l0.048,-0.062l0.027,-0.072l0.032,0.002l0.043,0.057l0.065,0.005l0.104,0.037l0.035,0.068v0.042l0.029,0.03l0.049,0.005l0.075,0.057l0.096,0.01l0.22,-0.091l0.089,0.003l0.072,0.024l0.115,-0.005l0.083,-0.078l0.022,-0.075l0.083,-0.086v-0.051l-0.04,-0.083l0.002,-0.083l0.035,-0.038h0.057l0.161,0.081l0.061,-0.008l0.011,-0.035l-0.142,-0.185l0.002,-0.049l0.089,-0.069l0.097,-0.035l0.072,-0.054l0.043,-0.064l0.091,-0.051h0.139l0.043,0.038l0.024,0.093l0.054,0.084l0.008,0.088l0.067,0.137l-0.003,0.051l-0.042,0.064l0.002,0.056l0.038,0.014l0.123,-0.049l0.083,-0.005l0.022,0.027l-0.011,0.043l0.021,0.019l0.041,0.002l0.029,0.032l0.011,0.164l0.035,0.048l0.045,0.019l0.011,0.07l0.029,0.008l0.065,-0.035h0.112l0.006,0.032l-0.014,0.022l0.019,0.029l0.174,0.048l0.084,0.011l0.072,0.024l0.043,-0.011l0.021,-0.05l0.049,-0.006l0.072,0.043l0.099,0.201l0.003,0.062l0.027,0.037l0.056,0.027l0.091,0.153l0.003,0.064l0.027,0.035l0.037,0.008l0.03,0.03l0.013,0.069l0.089,0.073l0.096,0.013l0.048,0.043l0.022,0.081l0.045,0.021l0.041,-0.027l0.018,-0.072l0.073,-0.07l0.083,-0.005l0.088,0.035l0.033,-0.016l-0.003,-0.118l0.043,-0.014l0.11,0.016l0.136,0.062l0.049,0.051l0.115,-0.003l0.086,-0.083l0.011,-0.048l-0.043,-0.03l-0.008,-0.04l0.029,-0.088l0.081,-0.006l0.032,0.024h0.032l0.043,-0.131l0.096,-0.153l0.175,-0.131l0.005,-0.062l-0.051,-0.083l0.005,-0.062l0.035,-0.008l0.07,0.057l0.07,0.021l0.077,0.083v0.099l0.057,0.1l0.088,0.013l0.124,-0.013l0.123,-0.113l0.102,-0.056l0.048,0.008l0.005,0.032l0.038,0.005l0.07,-0.059l0.005,-0.056l0.048,-0.035l0.046,-0.005l0.035,-0.043l0.016,-0.145l0.067,-0.145l0.056,-0.002l0.064,0.056l0.094,0.011l0.083,-0.057l0.017,-0.069l-0.014,-0.185l0.035,-0.105l0.056,-0.021l0.051,0.005l0.054,-0.059l0.019,-0.153l0.053,-0.078l0.172,-0.013l0.053,-0.024l0.057,0.013l0.155,0.124l0.019,0.117l0.115,0.081l0.094,0.003l0.263,0.107l0.072,-0.005l0.057,-0.033v-0.029l-0.041,-0.04v-0.038l0.059,-0.096l0.003,-0.094l-0.032,-0.049l0.003,-0.032l0.032,-0.035l0.059,-0.005l0.005,-0.035l-0.021,-0.07l0.04,-0.096l0.064,-0.019l0.062,0.022l0.043,-0.022l0.158,-0.174l0.038,-0.097l0.008,-0.104l0.059,-0.059h0.067l0.072,0.021v0.03l-0.04,0.027l-0.006,0.034l0.027,0.041v0.04l-0.027,0.019l-0.002,0.045l0.061,0.15l-0.002,0.054l-0.049,0.005l-0.042,0.046l-0.019,0.062l-0.056,0.056l-0.076,0.029l-0.021,0.059l0.029,0.057l0.011,0.083l0.043,0.059l-0.005,0.08l-0.057,0.158l-0.077,0.057l-0.011,0.035l0.013,0.048l-0.059,0.201l0.014,0.094l-0.03,0.12l-0.061,0.065l-0.011,0.145l-0.046,0.013l-0.104,-0.019l-0.091,-0.059l-0.027,0.003l-0.032,0.088l-0.017,0.11l-0.026,0.038l-0.091,0.027l-0.094,0.099l-0.003,0.08l-0.097,0.145l-0.008,0.083l0.11,0.156l0.008,0.187l-0.059,0.076v0.05l0.041,0.043l-0.008,0.059l-0.094,0.129l-0.075,0.174l-0.073,0.03l-0.059,0.064l-0.027,0.115l-0.123,0.151l-0.024,0.136l0.024,0.025l0.062,0.005l0.15,0.155l0.013,0.07l-0.026,0.048l-0.014,0.188l-0.04,0.062l-0.005,0.069l0.193,0.164l0.131,0.005l0.121,-0.037l0.115,0.016l0.072,0.094l-0.002,0.263l0.024,0.093l0.086,0.092v0.131l-0.084,0.104l-0.002,0.065l0.091,0.086v0.043l-0.099,0.112v0.043l0.032,0.046l0.003,0.056l-0.049,0.078v0.045l0.102,0.078l0.158,0.043l0.277,0.217l0.088,0.255l0.145,0.255l0.005,0.23l0.306,0.684l0.075,1.078l-0.901,2.276l-0.008,0.129l0.046,0.088l-0.011,0.118l-0.054,0.057v0.152l0.081,0.126l0.005,0.051l-0.037,0.049l-0.003,0.069l0.035,0.145l0.126,0.142l0.064,0.126l0.07,0.032l0.091,0.092l0.046,0.155l-0.003,0.292l0.043,0.1l-0.003,0.051l-0.046,0.059l0.006,0.067l0.118,0.144l0.008,0.067l-0.056,0.084l0.002,0.203l0.091,0.134l0.003,0.102l-0.029,0.083v0.086l0.045,0.056l-0.003,0.043l-0.053,0.065l-0.024,0.086l-0.086,0.069v0.059l0.091,0.107l0.005,0.113l-0.059,0.072l-0.008,0.105l-0.147,0.265l-0.005,0.089l0.056,0.105l-0.003,0.059l-0.037,0.05v0.065l-0.033,0.064l-0.085,0.043l-0.142,0.118l-0.185,0.078l-0.175,0.129l-0.086,0.131l-0.016,0.15l-0.056,0.046h-0.083l-0.158,-0.145l-0.03,-0.121l-0.064,-0.126l-0.131,-0.102l-0.046,-0.08l-0.04,-0.006l-0.11,0.059l-0.078,-0.002l-0.016,-0.04l-0.038,-0.008l-0.045,0.018l-0.199,0.016l-0.045,0.054l-0.193,0.129l-0.059,0.01l-0.083,-0.021l-0.116,0.021l-0.123,0.084l-0.104,0.026l-0.073,0.051l-0.067,0.167l-0.008,0.083l-0.038,0.053l-0.142,0.067l-0.069,0.086l-0.003,0.064l-0.032,0.038l-0.054,0.016l-0.056,-0.027l-0.043,0.011l-0.007,0.055l0.039,0.067l-0.003,0.033l-0.09,0.014l-0.093,0.136l-0.121,0.093l-0.068,0.007l-0.097,0.057l-0.05,0.114l-0.2,0.097l-0.05,0.057l-0.193,0.075l-0.129,0.004l-0.136,-0.047l-0.11,-0.007l-0.118,0.015l-0.136,-0.029l-0.097,-0.054l-0.129,-0.007l-0.078,0.039l-0.129,0.136l-0.021,0.09l-0.054,0.078l-0.064,0.05l-0.043,0.058l0.003,0.075l-0.186,0.196l-0.189,0.075l-0.079,-0.003l-0.035,-0.072l-0.118,-0.078l-0.047,-0.004l-0.007,0.072l0.054,0.053l-0.008,0.032l-0.078,-0.01l-0.029,-0.047l-0.025,-0.003l-0.028,0.075h-0.022l-0.007,-0.05l-0.025,-0.025l-0.619,0.007l-0.089,-0.05l-0.096,-0.004l-0.075,0.064l-0.09,0.008l-0.068,-0.022l-0.053,-0.068l-0.068,-0.032l-0.086,0.007l-0.032,0.05l-0.047,0.032l-0.111,0.004l-0.017,0.021l0.336,0.669l-0.043,0.039l-0.068,-0.003l-0.054,0.053l-0.011,0.108l0.04,0.089v0.072l-0.183,0.271l-0.003,0.093l0.036,0.143l0.075,0.115l0.021,0.089l0.107,0.143l0.004,0.079l-0.032,0.039l-0.075,-0.004l-0.061,-0.035l-0.075,-0.015l-0.161,-0.1l-0.168,-0.011l-0.14,0.079l-0.053,0.004l-0.036,-0.018l-0.043,0.003l-0.046,0.058l-0.086,0.025l-0.039,-0.015l-0.015,-0.057l-0.157,-0.136l-0.004,-0.075l-0.071,-0.068l-0.197,-0.046l-0.071,0.018l-0.068,-0.004l-0.104,-0.071l-0.036,-0.072l-0.057,-0.007l-0.153,0.086l-0.054,0.003l-0.1,-0.032h-0.107l-0.108,-0.046l-0.089,-0.1l-0.154,-0.076l-0.232,0.018l-0.097,0.068l-0.028,0.09l0.028,0.082l-0.018,0.093l-0.064,0.129l-0.061,0.032l-0.089,0.093l-0.007,0.143l-0.161,0.15l-0.061,0.003l-0.161,-0.071l-0.182,-0.147l-0.089,-0.014l-0.161,0.075l-0.108,0.111l-0.032,0.114l-0.05,0.079l-0.078,0.011l-0.029,0.039v0.143l0.036,0.122l0.068,0.042l0.128,0.018l0.054,-0.018h0.061l0.125,0.143l0.014,0.154l-0.039,0.082l0.003,0.061l0.025,0.029l0.008,0.071l-0.036,0.122l0.018,0.068l0.1,0.036l0.036,0.06l-0.004,0.086l-0.097,0.082l-0.078,0.147v0.121l0.053,0.054l0.011,0.05l-0.028,0.107l-0.065,0.179l-0.003,0.111l-0.029,0.075l0.014,0.036h0.036l0.061,-0.04l0.129,0.004l0.05,0.054l0.01,0.082l-0.018,0.082l0.008,0.082l0.107,0.186l0.179,0.115l0.082,0.018l0.036,-0.011l0.064,0.003l0.082,0.033l0.09,0.007l0.042,0.025l0.058,0.293l0.039,0.046l0.096,0.036l0.118,0.086l0.076,0.104l0.039,0.017h0.057l0.047,0.022l0.1,0.132h0.035l0.058,-0.078l0.164,-0.072l0.061,0.004l0.2,0.321l0.043,0.326l0.068,0.136l-0.007,0.046l-0.09,0.011l-0.171,-0.057h-0.083l-0.035,0.039l0.003,0.157l0.036,0.057v0.043l-0.071,0.111v0.047l0.175,0.207l0.146,0.289v0.312l-0.157,-0.118l-0.479,0.007l-0.161,-0.036l-0.365,-0.261l-0.375,-0.35l-0.036,0.007l-0.007,0.089l0.025,0.043v0.039l-0.154,0.111l0.004,0.075l0.032,0.047l-0.011,0.025l-0.239,-0.025l-0.3,-0.118l-0.015,-0.043l0.09,-0.211l-0.365,-0.483l-0.186,-0.382l-0.053,-0.015l-0.111,0.033l-0.154,0.01l-0.082,0.036l-0.122,0.093l-0.218,0.118l-0.697,0.172l-0.172,0.068l-0.253,0.021l-0.083,-0.021l-0.057,-0.068l-0.079,-0.004l-0.046,0.036h-0.061l-0.103,-0.09h-0.065l-0.046,0.147l-0.054,0.1l-0.1,0.064l-0.057,0.065l-0.036,0.071l-0.064,0.09l-0.061,0.032l-0.14,0.154l-0.05,0.007l-0.257,-0.154l-0.129,-0.036l-0.05,-0.046h-0.057l-0.061,0.028l-0.068,-0.003l-0.239,-0.118l-0.147,-0.018l-0.103,-0.046l-0.09,-0.015l-0.254,0.022l-0.035,-0.025v-0.043l0.078,-0.1v-0.079l-0.046,-0.025l-0.132,0.007l-0.047,0.032l-0.021,0.1l-0.029,0.018l-0.054,-0.01l-0.082,0.057l-0.018,0.064l-0.053,0.054l-0.011,0.057l-0.068,0.089l0.005,0.108l0.145,0.316l0.038,0.161l0.209,0.289l0.032,0.252l-0.906,0.531l-0.129,0.134l-0.279,0.475l-0.212,0.19l-0.764,0.022l-0.399,-0.129l-0.295,-0.003l-0.008,0.054l-0.129,0.016l-0.096,-0.027h-0.105l-0.056,0.046l-0.011,0.091l-0.032,0.048l-0.091,0.043l-0.051,0.062l-0.046,0.185l-0.056,0.07l-0.086,0.016l-0.08,0.051l-0.135,0.203l-0.024,-0.002l-0.083,-0.132l-0.067,-0.005l-0.206,0.035l-0.052,-0.079l-0.016,-0.071l-0.067,-0.031l-0.142,-0.02l-0.071,-0.04l-0.146,-0.189l-0.067,-0.037l-0.076,-0.01l-0.093,0.031l-0.105,0.075l-0.065,0.004l-0.051,-0.017l-0.026,-0.044l-0.011,-0.154l-0.048,-0.134l-0.11,-0.161l-0.128,-0.117l-0.026,-0.002l-0.02,0.028h-0.059l-0.079,-0.022l-0.08,-0.08l-0.127,-0.101l-0.088,-0.136l-0.008,-0.047l-0.014,-0.04l-0.018,0.008v0.065l0.04,0.089l-0.012,0.142l-0.039,0.114l-0.095,0.063l-0.057,0.012l-0.04,-0.026l-0.047,-0.002l-0.075,0.038l-0.033,0.041l-0.056,0.034l-0.077,0.008l-0.051,0.029l-0.023,-0.006l-0.018,-0.037l-0.034,-0.018l-0.114,-0.004l-0.079,-0.021l-0.213,-0.095l-0.087,-0.026l-0.108,-0.045l-0.25,-0.069l-0.109,-0.071l-0.053,-0.063l-0.087,-0.181l-0.013,-0.069l-0.054,-0.05l-0.077,-0.039h-0.033l-0.03,0.037l-0.033,0.004l-0.03,-0.025v-0.034l0.028,-0.045v-0.13l-0.02,-0.026l-0.014,0.01l-0.015,0.091l-0.042,0.069v0.145l0.024,0.073l0.053,0.069l0.002,0.032l-0.14,0.169l-0.181,0.273l-0.071,0.147l-0.038,0.044h-0.061l-0.039,-0.02l-0.046,-0.057l-0.031,-0.004l-0.038,0.024l-0.053,0.002l-0.051,-0.01l-0.136,-0.077l-0.006,-0.036l-0.016,-0.029h-0.029l-0.02,0.012h-0.034l-0.025,-0.03l-0.03,-0.02l-0.01,0.014l0.077,0.107l0.05,0.023l0.059,0.059l0.004,0.089l-0.014,0.063l-0.044,0.038h-0.039l-0.102,-0.052l-0.158,-0.004l-0.042,0.01l-0.007,0.032l-0.026,0.006l-0.067,-0.01l-0.101,0.029l-0.077,0.06l-0.021,-0.002l-0.028,-0.034l-0.041,-0.029l-0.089,-0.04l-0.002,-0.028l0.014,-0.069l0.02,-0.061l0.006,-0.055l-0.073,-0.092l-0.069,-0.038l-0.03,0.002l-0.102,0.099h-0.022l-0.024,-0.026l-0.104,-0.221l-0.095,-0.11l-0.106,-0.077l-0.107,-0.026l-0.067,-0.075v-0.057l0.014,-0.039l0.085,-0.057l0.065,-0.048l0.023,-0.098l0.058,-0.083l0.063,-0.03l0.023,-0.063l0.004,-0.096l0.018,-0.036l0.13,-0.063l0.083,-0.083l0.057,-0.029l0.036,0.004l0.011,0.037l0.03,0.006l0.041,-0.028l0.056,0.002l0.045,0.038l0.027,0.002l0.034,-0.032l0.146,-0.029l0.219,-0.008l0.002,-0.018l-0.117,-0.035l-0.037,-0.058l0.004,-0.047l0.037,-0.033l0.032,-0.048l0.008,-0.163l0.021,-0.048l0.067,-0.033l0.109,-0.075l0.043,-0.071l0.006,-0.087l0.016,-0.055v-0.075l-0.038,-0.183l-0.049,-0.174l-0.114,-0.25l-0.15,-0.205v-0.03l0.036,-0.041l0.009,-0.057l-0.009,-0.057l-0.085,-0.172v-0.035l0.027,-0.022l0.044,-0.004l0.053,-0.016l0.069,-0.004l0.085,-0.017l0.049,-0.03l0.004,-0.02l-0.047,-0.013l-0.012,-0.02l0.012,-0.049l0.055,-0.05l0.029,-0.045l0.058,-0.059l0.181,-0.118l0.079,-0.006l0.045,-0.018l0.018,-0.034l-0.006,-0.029l-0.028,-0.004l-0.031,0.016l-0.091,0.027l-0.199,0.134l-0.138,0.146l-0.028,0.079l-0.052,0.059l-0.058,0.014l-0.037,-0.014l-0.014,-0.039l-0.021,-0.031l-0.044,-0.009l-0.102,-0.044l-0.077,-0.012l-0.049,0.016l-0.072,-0.007l-0.091,-0.055l-0.061,-0.121l-0.083,-0.173l-0.124,-0.167l-0.065,-0.026l-0.151,-0.002l-0.084,-0.023l-0.037,-0.068l-0.056,-0.039l-0.021,-0.003l0.002,0.026l0.056,0.077l0.017,0.053l-0.019,0.047l-0.061,0.035l-0.118,0.146l-0.124,0.124l-0.037,0.06l0.005,0.019l0.03,-0.005l0.049,-0.028l0.049,0.014l0.018,0.044l-0.004,0.061l-0.112,0.095l-0.019,0.051l0.005,0.08l-0.014,0.065l-0.049,0.056l-0.079,0.172l-0.042,0.165l-0.07,0.144l-0.007,0.068l0.028,0.086l0.054,0.079v0.168l0.021,0.044l-0.014,0.023l-0.035,-0.002l-0.03,-0.019l-0.035,0.005l-0.026,0.056l-0.072,0.058l-0.046,0.002l-0.033,-0.021l-0.065,-0.009l-0.072,0.03l-0.047,0.049h-0.021l-0.009,-0.028l-0.005,-0.07l-0.074,-0.09l-0.119,-0.07l-0.24,-0.096l-0.081,-0.014l-0.133,0.01l-0.039,0.03l-0.005,0.037l-0.019,0.019l-0.039,0.011l-0.026,0.026v0.033l-0.016,0.018h-0.051l-0.035,0.035l-0.012,0.056l-0.03,0.033l-0.058,0.002l-0.096,0.039l-0.072,0.07l-0.039,-0.002l-0.031,-0.047l-0.058,-0.037l-0.037,0.005l-0.044,0.06l-0.044,-0.002l-0.07,-0.042l-0.003,-0.035l0.042,-0.044l0.007,-0.04l-0.028,-0.058l-0.053,-0.053l-0.128,-0.084l-0.026,-0.086l0.005,-0.077l0.018,-0.086l0.063,-0.091l0.005,-0.102l-0.014,-0.075l0.002,-0.153l-0.028,-0.061l0.003,-0.018l0.016,-0.014v-0.019l-0.033,-0.028l-0.046,-0.144l-0.005,-0.124l0.023,-0.009l0.026,0.014l0.026,0.002l0.025,-0.014l0.049,-0.111l-0.002,-0.117l-0.023,-0.076l0.007,-0.047l0.037,-0.033l0.002,-0.021l-0.049,-0.027l-0.051,-0.073l-0.058,-0.2l-0.079,-0.165l-0.067,-0.038l-0.077,0.005l-0.026,0.026l-0.044,0.002l-0.018,-0.023l0.004,-0.031l0.058,-0.053l0.082,-0.021l0.005,-0.023l-0.033,-0.07l0.014,-0.056l0.049,-0.021l0.009,-0.021l-0.028,-0.037l-0.011,-0.068l0.016,-0.021l0.121,0.005l0.019,-0.016l0.002,-0.031l-0.021,-0.027v-0.021l0.016,-0.01l0.026,0.017h0.032l0.077,-0.066l0.021,-0.062l0.026,-0.007l0.035,0.023h0.062l0.035,0.012l0.007,0.044l0.014,0.004l0.024,-0.032v-0.047l-0.08,-0.148l-0.021,-0.075l-0.037,-0.009l-0.103,0.035l-0.063,-0.005l-0.098,-0.122l-0.014,-0.238l-0.042,-0.077l-0.024,-0.074l0.007,-0.033l0.063,-0.041l0.047,-0.01l0.07,-0.056l0.018,-0.053l0.04,-0.03l0.07,-0.003l0.051,0.017l0.081,0.086l0.033,0.079l0.053,0.044l0.103,0.047l0.137,0.086l0.028,0.004l-0.019,-0.03l-0.142,-0.109l-0.069,-0.026l-0.056,-0.044l-0.021,-0.068l-0.096,-0.086l-0.007,-0.039l0.024,-0.031l0.023,-0.067l-0.016,-0.049l-0.072,-0.065v-0.026l0.025,-0.021l0.047,-0.076l0.056,-0.194l-0.007,-0.055l-0.063,-0.035l-0.024,-0.005l-0.004,0.016l0.051,0.04l0.009,0.042l-0.095,0.205l-0.033,0.1l0.005,0.055l0.054,0.063l0.011,0.033l-0.025,0.023l-0.052,-0.002l-0.06,0.016l-0.079,-0.014l-0.105,-0.063l-0.051,-0.065l-0.082,-0.032l-0.088,-0.052l-0.068,-0.111l-0.004,-0.114l0.014,-0.152l0.007,-0.088l-0.028,-0.084l-0.065,-0.072l-0.019,-0.007v0.033l0.042,0.116l0.021,0.088l-0.009,0.096l-0.035,0.03l-0.077,0.023l-0.117,-0.007l-0.032,-0.014l-0.023,0.003l-0.047,0.111l-0.049,0.007l-0.123,-0.062l-0.037,-0.089v-0.039l0.062,-0.063l0.061,-0.086l0.028,-0.091l-0.005,-0.107l0.019,-0.124l0.035,-0.053l0.035,-0.014l0.044,0.026l0.039,0.039l0.021,0.002l0.007,-0.065l-0.107,-0.067l-0.049,0.004l-0.074,0.056l-0.028,-0.007l-0.019,-0.074l-0.007,-0.142l0.021,-0.065l0.052,-0.028l0.041,-0.075l0.066,-0.058l0.069,-0.032l0.077,-0.073l0.058,-0.009l0.047,0.007l0.019,0.035l0.044,0.04l0.042,0.007l0.011,-0.01l-0.046,-0.035l-0.033,-0.051l-0.046,-0.032l-0.061,-0.005l-0.025,0.016l-0.101,0.007l-0.032,0.019l-0.019,0.044l-0.06,0.063l-0.061,0.005l-0.018,-0.012v-0.023l0.011,-0.024v-0.044l-0.044,-0.081l-0.067,-0.075l-0.021,-0.007l0.002,0.04l0.081,0.125l-0.002,0.059l-0.049,0.069v0.038l0.017,0.039v0.054l-0.028,0.058l-0.003,0.081l0.026,0.04l0.007,0.056l-0.021,0.046l-0.005,0.063l0.047,0.058l0.007,0.175l-0.019,0.137l-0.032,0.037l-0.033,-0.006l-0.026,-0.063l-0.074,-0.047l-0.019,-0.046l0.031,-0.07l-0.005,-0.061l-0.102,-0.114l-0.087,-0.065l-0.028,-0.049z"/>
</svg>
