<svg xmlns="http://www.w3.org/2000/svg" viewBox="58.169 719.855 67.747 107.095">
  <path d="M64.957047,725.730068l0.395569,0.321853h0.493452l0.242172,-0.290833l-0.111557,-0.322893l-0.498967,-0.419924l-0.408793,-0.014061l-0.298337,0.3164l0.18646,0.409459Z M58.318298,720.225381l0.379935,-0.018499l0.098349,-0.151746l-0.037292,-0.186118l-0.394659,-0.013623l-0.194601,0.166494l0.148267,0.203493Z M76.896622,738.760966l0.161706,0.136915l0.205106,-0.037224l0.158491,0.093059l0.065261,0.186118l0.438182,0.241953l0.50026,0.003532l0.330861,0.222286l0.138472,0.18364l0.25347,0.079682l0.203358,-0.098293l0.09323,-0.3164l-0.111876,-0.186118l-0.717873,-0.502517l-0.074584,-0.186118l0.009323,-0.232647l0.149168,-0.083753l0.09323,-0.176812l-0.027969,-0.139588l-0.214429,-0.055835l-0.40089,-0.204729l-0.121199,-0.1582l-0.242399,-0.037224l-0.270368,0.083753l-0.090332,0.157806l0.118301,0.12137l0.121199,0.027918l0.121199,0.120976v0.232647l-0.205106,0.223341l-0.279691,-0.037224l-0.261045,0.083753l-0.14306,0.253932Z M94.119208,778.144936l0.389202,-0.027749l0.05487,-0.300465l-0.227032,-0.18928l-0.300441,-0.037486l-0.152901,0.249741l0.236301,0.305239Z M88.019669,788.45237l0.347502,0.041624l0.264101,-0.249741l-0.0973,-0.249741h-0.514302l-0.222401,0.249741l0.222401,0.208118Z M111.81971,817.493851l0.017018,0.168737l0.181873,0.042196l0.064274,-0.115905l-0.101566,-0.132252l-0.161599,0.037224Z M125.670191,817.318616l0.246147,-0.466819l-0.123074,-0.41768l-0.221532,0.073708l-0.144764,0.361245l0.004449,0.298398l0.238774,0.151149Z M114.938181,826.67957l0.221532,0.270264l0.246147,-0.073708l-0.024615,-0.294833l-0.295376,-0.098278l-0.147688,0.196555Z "/>
</svg>
