<svg xmlns="http://www.w3.org/2000/svg" viewBox="1393.169 719.855 973.495 107.095">
  <path d="M2359.903489,769.551974l0.012288,-0.017203l-0.002458,-0.022118l-0.01966,-0.012288l-0.017203,-0.056523l0.014745,-0.02949v-0.122876l0.031948,-0.012288l0.076183,0.022118l0.066353,0.00983l0.122876,0.066353l0.04915,0.04915l0.095843,0.076183l0.108131,0.03932l0.034405,0.041778l0.012288,0.046693l0.046693,0.086013l0.002458,0.051608l0.014745,0.056523l0.058981,0.105673l0.002458,0.056523l-0.017203,0.01966l-0.02949,-0.002458l-0.036863,-0.02949l-0.03932,-0.01966l-0.036863,-0.034405l-0.044235,-0.058981l-0.100758,-0.063896l-0.125334,-0.041778h-0.105673l-0.058981,0.012288l-0.034405,-0.022118l-0.02949,-0.044235l-0.00983,-0.044235l0.004915,-0.034405l0.024575,0.004915v0.031948l0.044235,0.073726l0.024575,0.00983l0.022118,-0.00983h0.108131l0.137621,0.041778l0.110588,0.063896l0.061438,0.071268l0.022118,0.00983l0.056523,0.051608h0.017203l-0.00983,-0.01966l0.004915,-0.031948l-0.041778,-0.063896l-0.02949,-0.066353l-0.007373,-0.071268l-0.051608,-0.120419l-0.051608,-0.03932l-0.083556,-0.031948l-0.108131,-0.095843l-0.105673,-0.073726l-0.051608,-0.007373l-0.090928,-0.027033l-0.022118,0.01966l-0.002458,0.046693l0.031948,0.024575l-0.007373,0.022118h-0.027033l-0.007373,0.022118l0.017203,0.024575l-0.002458,0.056523l0.017203,0.044235l-0.01966,0.014745l-0.027033,-0.046693Z M2361.215371,774.76857l0.037007,0.060137l0.032381,-0.013878l0.004626,-0.041633l-0.027756,-0.032381l-0.037007,-0.004626l-0.009252,0.032381Z M2364.08807,771.803353l0.02313,0.055511l0.083267,-0.009252l0.02313,-0.037007l-0.037007,-0.087893l-0.009252,-0.111022l0.013878,-0.046259l-0.060137,-0.02313l-0.046259,0.046259l0.009252,0.087893v0.1249Z M2366.586068,775.696838l0.027756,0.037007l0.030839,-0.003084l0.018504,-0.021588l-0.012336,-0.033923l-0.049343,-0.018504l-0.018504,0.01542l0.003084,0.024672Z M2356.933309,780.776102l0.012336,0.024672l0.043175,-0.018504h0.070931l0.089435,0.046259h0.030839l0.01036,0.015757l-0.022696,0.030502l-0.003084,0.052427l-0.021588,0.027756l-0.040091,-0.006168l0.003084,0.030839l0.037007,0.003084l0.052427,-0.024672l0.009252,-0.074015l0.021588,-0.052427l-0.024672,-0.030839l-0.049343,-0.006168l-0.074015,-0.043175l-0.080183,-0.003084l-0.064763,0.027756Z M2357.030646,780.96962l-0.063414,0.034694l0.01542,0.021588l0.043175,-0.018504l0.053969,-0.020576v-0.027033l-0.04915,0.00983Z M2356.856162,780.819711l-0.24821,0.100758l-0.01966,0.041778l0.01966,0.058981l0.090928,0.076183l0.081098,0.03932l0.076183,0.002458l0.03932,-0.02949l0.066353,-0.076183l-0.017203,-0.017203l-0.088471,0.086013l-0.03932,-0.002458l-0.093386,-0.027033l-0.066353,-0.056523l-0.014745,-0.044235l0.014745,-0.031948l0.231007,-0.090928l0.034405,-0.041778l-0.00983,-0.024575l-0.056523,0.036863Z M2363.273912,780.606481l-0.027818,0.037054l-0.124746,0.004564l-0.074108,-0.027709l-0.050854,-0.0602l0.013692,-0.050854l0.120399,-0.078672l0.0602,0.018581l0.083236,0.157236Z M2363.195239,780.555626l-0.027818,-0.041618l-0.041509,-0.018581l-0.064763,0.032382l-0.004564,0.046291l0.041509,0.037054l0.083236,-0.013909l0.013909,-0.041618Z M2344.073242,774.861088l0.003084,0.033923l0.024672,0.024672l0.024672,-0.01542l0.003084,-0.033923l-0.024672,-0.021588l-0.030839,0.012336Z M2341.32954,781.896105l-0.004915,0.022118l0.022118,0.036863l0.054065,0.03932h0.073726l0.082207,0.039947l0.074015,0.052427l0.024672,-0.012336l-0.003084,-0.052427l-0.049343,-0.058595l-0.067847,-0.055511l-0.089435,-0.043175l-0.095602,-0.064763l-0.025491,0.002747l-0.014745,0.02949l0.015564,0.03561l0.031129,0.006168l0.01966,-0.014745l0.02631,0.005493l0.025298,0.026454l0.051801,0.019805l0.067847,0.033923l0.058595,0.055511l0.023274,0.045585l-0.007373,0.00983l-0.031321,-0.027659l-0.077099,-0.052427l-0.049343,-0.012336l-0.046259,0.006168l-0.033923,-0.012336l-0.018504,-0.037007l0.005782,-0.024142l-0.014745,-0.007373l-0.027033,0.007373Z  M1399.957,725.730068l0.395569,0.321853h0.493452l0.242172,-0.290833l-0.111557,-0.322893l-0.498967,-0.419924l-0.408793,-0.014061l-0.298337,0.3164l0.18646,0.409459Z M1393.318,720.225381l0.379935,-0.018499l0.098349,-0.151746l-0.037292,-0.186118l-0.394659,-0.013623l-0.194601,0.166494l0.148267,0.203493Z M1411.897,738.760966l0.161706,0.136915l0.205106,-0.037224l0.158491,0.093059l0.065261,0.186118l0.438182,0.241953l0.50026,0.003532l0.330861,0.222286l0.138472,0.18364l0.25347,0.079682l0.203358,-0.098293l0.09323,-0.3164l-0.111876,-0.186118l-0.717873,-0.502517l-0.074584,-0.186118l0.009323,-0.232647l0.149168,-0.083753l0.09323,-0.176812l-0.027969,-0.139588l-0.214429,-0.055835l-0.40089,-0.204729l-0.121199,-0.1582l-0.242399,-0.037224l-0.270368,0.083753l-0.090332,0.157806l0.118301,0.12137l0.121199,0.027918l0.121199,0.120976v0.232647l-0.205106,0.223341l-0.279691,-0.037224l-0.261045,0.083753l-0.14306,0.253932Z M1429.119,778.144936l0.389202,-0.027749l0.05487,-0.300465l-0.227032,-0.18928l-0.300441,-0.037486l-0.152901,0.249741l0.236301,0.305239Z M1423.020,788.45237l0.347502,0.041624l0.264101,-0.249741l-0.0973,-0.249741h-0.514302l-0.222401,0.249741l0.222401,0.208118Z M1446.820,817.493851l0.017018,0.168737l0.181873,0.042196l0.064274,-0.115905l-0.101566,-0.132252l-0.161599,0.037224Z M1460.670,817.318616l0.246147,-0.466819l-0.123074,-0.41768l-0.221532,0.073708l-0.144764,0.361245l0.004449,0.298398l0.238774,0.151149Z M1449.938,826.67957l0.221532,0.270264l0.246147,-0.073708l-0.024615,-0.294833l-0.295376,-0.098278l-0.147688,0.196555Z Z M2270.074434,758.406973l0.027033,-0.132304l0.046693,-0.0098l0.130249,0.171505l0.004915,0.044101l0.041778,0.029401l0.051608,-0.00735l0.127791,0.071052l0.063896,0.068602l0.01966,0.078403l0.196602,0.232757l0.081098,0.051452l0.108131,0.161705l0.00983,0.110254l0.041778,0.095553l0.012288,0.154355l-0.014745,0.051452l-0.03932,0.00245l-0.017203,-0.039201l0.024575,-0.075952l-0.014745,-0.112704l-0.03932,-0.049002l-0.014745,-0.053902l0.00983,-0.061252l-0.113046,-0.151905l-0.078641,-0.026951l-0.137621,-0.151905l-0.058981,-0.044101l-0.022118,-0.046551l-0.00983,-0.075952l-0.117961,-0.095553l-0.058981,-0.0098l-0.137621,-0.107803l-0.081098,-0.0098l-0.041778,-0.061252Z M2281.567132,759.819622l0.144946,0.129134l0.01542,0.030746l0.104854,0.098387l0.077099,0.046119l0.061679,0.058418l0.01542,0.110686l0.080183,0.076865l0.040091,0.018448l0.024672,-0.015373v-0.030746l-0.049343,-0.11991l-0.080183,-0.049194l-0.070931,-0.067641l-0.043175,-0.083014l-0.040091,-0.156805l-0.064763,-0.070716l-0.083361,-0.029408l-0.135599,-0.010562l-0.040091,0.018448l0.009252,0.03997l0.033923,0.006149Z M2272.829316,761.097159l0.027033,0.0098l0.007373,-0.022051l-0.007373,-0.041651l-0.027033,0.00735v0.046551Z M2272.662204,760.695346l0.044235,0.058802l0.086013,0.0049l0.00983,0.026951l-0.014745,0.053902l0.03932,0.154355l-0.004915,0.022051l0.027033,0.0098l-0.01248,-0.144603l0.032141,-0.088155l-0.007373,-0.068602l-0.073726,-0.071052l-0.090928,0.00245l-0.034405,0.039201Z M2278.668243,759.551736l0.050885,-0.018448l0.074015,0.018448l0.074015,0.101462l0.046259,0.115298l-0.032381,0.018448l-0.050885,0.004612l-0.009252,0.046119l0.064763,0.083014l0.075557,0.044582l0.111022,0.092238l0.074015,-0.006149v-0.061492l-0.160365,-0.190626l-0.018504,-0.086089l-0.123358,-0.209073l-0.160365,-0.15373l-0.074015,0.006149l-0.043175,0.086089v0.073791l0.10177,0.035358Z M2275.96362,762.94764l-0.006168,0.07994l-0.049343,0.024597l0.006168,0.092238l0.061679,0.012298l0.061679,0.067641l0.024672,0.098387l0.049343,0.043045l0.154197,0.012298l0.104854,0.07994l-0.006168,0.135283l-0.067847,0.129134l-0.067847,0.012298l-0.055511,-0.049194l-0.055511,0.012298v0.061492l-0.049343,0.043045l0.018504,0.061492l0.086351,0.018448l0.141862,-0.086089l0.135694,-0.245969l-0.018504,-0.15373l-0.092518,-0.07994l-0.228212,-0.07994l-0.086351,-0.104537l-0.012336,-0.098387l0.037007,-0.086089l-0.030839,-0.086089l-0.14803,-0.030746l-0.080183,-0.049194l-0.074015,0.049194l0.006168,0.055343l0.092518,0.07994l0.049343,-0.030746l0.098686,0.012298Z M2275.6984,763.298145l0.061679,-0.012298l0.018504,-0.049194l-0.074015,-0.012298l-0.049343,0.043045l0.043175,0.030746Z M2272.74576,761.082458l0.01966,0.044101l0.036863,0.0147l0.02949,-0.01225l-0.03932,-0.026951l-0.014745,-0.088203l-0.022118,-0.017151l-0.022118,0.024501l0.012288,0.061252Z M2275.951284,763.593308l0.049343,0.024597l0.043175,-0.024597l-0.018504,-0.098387l-0.055511,-0.006149l-0.030839,0.043045l0.012336,0.061492Z M2275.760079,763.390384l0.055511,0.024597l0.067847,-0.018448l-0.006168,-0.061492l-0.080183,-0.030746l-0.061679,0.036895l0.024672,0.049194Z M2272.614451,760.657057l0.027756,0.009224l0.046259,-0.033821l-0.018504,-0.03997h-0.037007l-0.033923,0.03997l0.01542,0.024597Z M2272.55894,760.604789l0.049343,-0.018448l0.009252,-0.030746l-0.064763,-0.064567l-0.040091,0.021522l-0.018504,0.033821l0.064763,0.058418Z M2272.478758,760.509476l0.027756,-0.036895l-0.074015,-0.03997l-0.043175,0.012298l0.006168,0.052268l0.083267,0.012298Z M2271.094065,759.737749l0.033923,0.003075l0.040091,-0.052268l-0.043175,-0.015373l-0.033923,0.03997l0.003084,0.024597Z M2271.353116,759.85151l0.033923,-0.036895v-0.030746l-0.052427,0.015373l-0.01542,0.036895l0.033923,0.015373Z M2271.439467,759.854585l0.024672,-0.018448l-0.024672,-0.027671l-0.027756,0.003075l-0.01542,0.03997l0.043175,0.003075Z M2272.302972,760.472581l0.040091,0.015373l0.024672,-0.024597l0.012336,-0.058418l-0.030839,0.012298l-0.01542,0.033821l-0.030839,0.021522Z M2272.244377,760.417238l0.055511,0.003075l0.021588,-0.015373l-0.040091,-0.033821h-0.049343l-0.009252,0.027671l0.021588,0.018448Z M2271.248262,759.808465l0.033923,-0.024597v-0.030746l-0.033923,0.006149l-0.027756,0.03997l0.027756,0.009224Z M2271.482642,759.897629l0.033923,-0.012298l-0.003084,-0.027671h-0.033923l-0.024672,0.024597l0.027756,0.015373Z M2271.528901,759.946823l0.024672,-0.021522l-0.012336,-0.024597l-0.037007,0.012298l-0.009252,0.027671l0.033923,0.006149Z M2271.59058,760.002166l0.024672,-0.012298l0.003084,-0.030746l-0.037007,-0.003075l-0.01542,0.033821l0.024672,0.012298Z M2271.627588,760.054434l0.037007,-0.003075v-0.024597l-0.027756,-0.018448l-0.021588,0.024597l0.012336,0.021522Z M2271.627588,760.134374l0.030839,-0.003075l0.030839,-0.03997l-0.030839,-0.003075l-0.037007,0.021522l0.006168,0.024597Z M2271.710854,760.168195l0.027756,-0.015373v-0.03997l-0.027756,-0.003075l-0.024672,0.036895l0.024672,0.021522Z M2272.062424,760.368044l0.030839,-0.009224v-0.027671l-0.037007,-0.006149l-0.018504,0.030746l0.024672,0.012298Z M2272.003829,760.321925l0.021588,-0.021522l-0.012336,-0.024597h-0.033923l-0.012336,0.027671l0.037007,0.018448Z M2271.769449,760.211239l0.027756,-0.012298l0.003084,-0.027671h-0.033923l-0.018504,0.021522l0.021588,0.018448Z M2271.834212,760.226612l0.012336,-0.027671v-0.027671l-0.021588,0.006149l-0.01542,0.046119l0.024672,0.003075Z M2271.926731,760.281955l0.037007,-0.012298l0.009252,-0.030746l-0.024672,-0.003075l-0.024672,0.027671l0.003084,0.018448Z M2271.861968,760.251209l0.021588,-0.018448l0.006168,-0.030746h-0.024672l-0.01542,0.030746l0.012336,0.018448Z M2272.164195,760.386492l0.009252,-0.033821l-0.021588,-0.021522l-0.021588,0.015373l0.012336,0.052268l0.021588,-0.012298Z M2272.182698,760.429536l0.024672,-0.021522l-0.003084,-0.024597l-0.030839,0.003075l-0.009252,0.030746l0.018504,0.012298Z M2271.066309,759.685481l0.024672,-0.024597l0.009252,-0.030746l-0.027756,0.006149l-0.030839,0.03997l0.024672,0.009224Z M2271.171163,759.796167l0.021588,-0.018448l0.003084,-0.024597h-0.027756l-0.018504,0.030746l0.021588,0.012298Z M2267.996238,754.916764l0.111022,0.009224l0.111022,0.050731l0.106396,0.09685l0.069389,0.018448l0.083267,0.129134l0.254426,0.198312l0.041633,0.207536l-0.018504,0.225984l0.032381,0.115298l0.087893,0.110686l0.046259,0.21676l-0.032381,0.055343l-0.037007,-0.009224l0.004626,-0.064567h-0.041633l-0.037007,0.059955l0.004626,0.069179l0.092518,0.041507l0.074015,-0.02306l0.027756,-0.124522l-0.069389,-0.304386l-0.074015,-0.124522l-0.027756,-0.101462l0.027756,-0.133745l-0.02313,-0.21676l-0.074015,-0.106074l-0.203541,-0.124522l-0.050885,-0.083014l-0.235922,-0.1937l-0.120274,-0.046119l-0.083267,0.013836l-0.092518,-0.032283l-0.004626,0.036895l0.050885,0.032283Z M2267.709431,754.764571l0.046259,-0.009224l0.10177,0.073791l0.009252,-0.041507l-0.129526,-0.092238l-0.060137,0.009224l-0.004626,0.041507l0.037007,0.018448Z M2267.871338,754.861421l0.037007,0.004612l0.013878,-0.02306l-0.02313,-0.018448l-0.032381,0.009224l0.004626,0.027671Z M2267.316227,754.64005l0.069389,-0.004612l0.013878,-0.032283l-0.050885,-0.069179l-0.046259,0.004612l-0.02313,0.069179l0.037007,0.032283Z M2267.431875,754.709228l0.041633,-0.004612v-0.036895l-0.050885,-0.018448l-0.037007,0.027671l0.046259,0.032283Z M2267.635416,754.750736l0.013878,-0.036895l-0.009252,-0.027671l-0.037007,0.009224v0.041507l0.032381,0.013836Z M2267.52902,754.741512l0.037007,-0.013836l-0.018504,-0.036895l-0.041633,0.004612l-0.013878,0.032283l0.037007,0.013836Z M2267.246839,754.7369l0.027756,-0.018448l0.004626,-0.036895l-0.037007,-0.004612l-0.018504,0.036895l0.02313,0.02306Z M2267.232961,755.022838l0.027756,-0.018448v-0.032283h-0.041633l-0.013878,0.036895l0.027756,0.013836Z M2284.302617,768.328204l0.086351,0.129134l0.141862,0.141432l0.043175,-0.012298l-0.024672,-0.086089l-0.197373,-0.258267l-0.14803,-0.043045l-0.030839,0.043045l0.129526,0.086089Z M2278.782349,767.448866l0.061679,0.092238l0.043175,0.036895l0.061679,-0.006149l0.006168,-0.055343l-0.141862,-0.141432l-0.104854,-0.018448l-0.012336,0.049194l0.086351,0.043045Z M2264.244614,748.576923l0.129526,0.018448l0.092518,-0.006149l-0.115648,-0.101462l-0.064763,-0.02306l-0.066305,0.013836l-0.018504,0.055343l0.043175,0.043045Z M2264.768886,748.853638l0.067847,-0.006149l-0.006168,-0.049194l-0.055511,-0.024597l-0.043175,0.036895l0.037007,0.043045Z M2265.243814,749.075009l0.14803,0.012298l0.061679,-0.110686v-0.23367l-0.074015,-0.196775l-0.061679,-0.215223l-0.074015,-0.135283l-0.46876,-0.387401l-0.135694,0.006149l-0.092518,0.092238l-0.067847,0.196775l0.043175,0.018448l0.11719,-0.202924l0.061679,-0.043045l0.080183,0.018448l0.080183,0.086089l0.345402,0.319759l0.018504,0.086089l0.135694,0.31361l0.006168,0.258267l-0.049343,0.036895l-0.129526,0.006149l-0.043175,0.043045l0.098686,0.030746Z M2261.826799,749.468559l0.061679,0.092238l0.012336,0.116835l0.043175,0.098387l0.074015,0.024597l0.14803,-0.110686l0.012336,-0.049194l-0.092518,-0.067641l-0.154197,-0.049194l-0.067847,-0.172178l-0.111022,-0.061492l-0.067847,0.036895l0.012336,0.067641l0.129526,0.073791Z M2262.801326,749.942049l0.141862,0.043045l0.126442,-0.021522l-0.004626,-0.032283l-0.152655,-0.099925l-0.14803,-0.006149l-0.043175,0.055343l0.080183,0.061492Z M2263.208408,750.286405l0.049343,0.030746l0.135694,-0.092238l0.080183,-0.258267l-0.030839,-0.178327l-0.104854,-0.07994l-0.055511,0.049194l0.104854,0.15988l0.006168,0.116835l-0.074015,0.141432l-0.111022,0.110686Z M2259.159183,744.349337l0.021588,-0.018448l-0.01542,-0.03997l0.021588,-0.018448l0.077099,0.027671l0.061679,0.064567l-0.01542,0.033821l0.024672,0.043045l0.120274,0.052268l0.104854,0.110686l0.021588,0.07994l-0.040091,0.070716l-0.175785,0.107611l-0.058595,0.107611l-0.043175,0.166029l-0.074015,0.141432l-0.040091,0.030746l-0.009252,0.033821l0.027756,0.030746l-0.033923,0.058418l-0.040091,0.030746l-0.049343,-0.003075l-0.037007,-0.055343l-0.024672,0.018448l0.033923,0.076865l0.067847,0.018448l0.083267,-0.049194l0.070931,-0.150656l0.14803,-0.387401l0.089435,-0.092238l0.144946,-0.076865l0.043175,-0.110686l-0.027756,-0.095313l-0.302227,-0.258267l-0.160365,-0.061492l-0.046259,0.043045l0.006168,0.061492l0.024672,0.009224Z M2259.205442,744.410829l0.024672,-0.033821l-0.024672,-0.021522l-0.027756,0.018448l-0.006168,0.043045l0.033923,-0.006149Z M2259.063581,745.379331h0.030839l0.030839,-0.015373l-0.030839,-0.033821l-0.027756,0.018448l-0.003084,0.030746Z M2259.266254,744.436627l0.031948,-0.019601l-0.012288,-0.024501l-0.036863,0.0049l-0.007373,0.026951l0.024575,0.01225Z M2258.656788,742.131104l0.086013,-0.01225l0.095843,0.051452l0.110588,0.105353l0.110588,0.024501l0.203974,-0.034301l0.167111,-0.093103l0.034405,-0.056352l0.031948,-0.01225l0.061438,0.0147l0.203974,-0.053902h0.181857l0.041778,-0.019601l0.034405,0.00245l0.041778,0.026951l0.162196,0.022051l0.046693,-0.049002l-0.004915,-0.080853l-0.147451,-0.120054l-0.108131,-0.031851l-0.03137,0.026951l0.050885,0.036895l0.01489,0.046407l0.073003,0.055055l-0.009107,0.040498l-0.041778,0.00245l-0.031948,-0.024501l-0.056523,-0.00245l-0.03932,0.022051h-0.098301l-0.140079,0.0098l-0.137621,0.046551l-0.076183,-0.0147l-0.046693,0.019601l-0.036863,0.058802l-0.147451,0.083303l-0.194144,0.039201l-0.098301,-0.024501l-0.076183,-0.080853l-0.122876,-0.088203l-0.113046,0.00245l-0.04915,0.024501l0.007373,0.026951l0.046693,0.0098Z M2259.094227,741.910597l0.120419,0.0049l0.01966,-0.049002l-0.02949,-0.019601l-0.041778,0.029401l-0.034405,-0.024501l-0.004915,-0.056352l-0.044235,0.0049l-0.027033,0.075952l0.041778,0.034301Z M2259.951902,741.812593l0.034405,-0.022051l0.002458,-0.022051l-0.03932,-0.019601l-0.078641,-0.107803l-0.093386,-0.088203l-0.027033,-0.00245l-0.02949,0.039201l0.014745,0.031851l0.061438,0.022051l0.068811,0.053902l0.086013,0.115154Z M2259.558699,741.459782l0.056523,0.029401l0.024575,-0.0098l-0.041778,-0.061252l-0.056523,-0.0147l-0.036863,0.034301l0.012288,0.026951l0.041778,-0.0049Z M2259.691405,741.577386l0.034405,-0.039201l-0.00983,-0.022051l-0.02949,0.0049l-0.014745,0.046551l0.01966,0.0098Z M2259.41862,741.440182l0.002458,-0.056352l-0.024575,-0.022051l-0.017203,0.0147l0.00983,0.053902l0.02949,0.0098Z M2259.445653,741.484283l0.031948,0.00735l0.002458,-0.019601l-0.041778,-0.022051l-0.007373,0.017151l0.014745,0.017151Z M2259.406333,741.337278l0.034405,-0.019601l-0.01966,-0.041651l-0.031948,-0.034301l-0.036863,-0.078403l-0.061438,-0.034301l-0.022118,-0.046551l0.004915,-0.046551l-0.014745,-0.026951l-0.036863,-0.029401l-0.056523,-0.122504l-0.012288,-0.063702l-0.041778,-0.029401l-0.061438,-0.022051l-0.03932,-0.075952l0.012288,-0.078403l-0.063896,-0.198456l0.002458,-0.093103l-0.04915,-0.058802l-0.034405,0.00245v0.034301l0.023708,0.02306v0.046119l-0.038453,0.055775l0.00983,0.036751l0.044235,0.022051l0.054065,0.134754l-0.012288,0.075952l0.071268,0.122504l0.076183,0.041651l0.081098,0.200906l0.036863,0.036751l0.017203,0.075952l0.02949,0.046551l0.061438,0.041651l0.01966,0.034301l0.007373,0.046551l0.022799,0.010767l0.023894,0.011284Z M2259.475143,741.38628l0.031948,0.00245l-0.002458,-0.026951l-0.044235,-0.044101l-0.027033,0.024501l0.041778,0.044101Z M2259.625052,741.557785l0.01966,-0.00735l0.017203,-0.049002l-0.014745,-0.00245l-0.031948,0.029401l0.00983,0.029401Z M2260.821865,737.94882l0.01966,0.063702l0.054065,0.026951l0.26787,0.019601l0.04915,-0.034301l0.002458,-0.053902l-0.066353,-0.090653h-0.054065l-0.00983,0.017151l0.054065,0.056352l0.007373,0.034301l-0.00983,0.031851l-0.071268,0.00735l-0.152366,-0.029401l-0.02949,-0.031851l-0.002458,-0.088203l-0.03932,-0.0098l-0.014745,0.017151l-0.004915,0.063702Z M2260.841525,737.850817l0.034405,0.00735l0.012288,-0.017151l0.022118,-0.044101l0.004915,-0.071052l-0.014745,-0.056352l0.00983,-0.071052l0.04915,-0.017151l0.058981,0.0098l0.041778,0.107803l-0.002458,0.039201l0.00983,0.046551l0.024575,0.080853h0.031948l0.007373,-0.031851l-0.027033,-0.073502l-0.014745,-0.090653l-0.041778,-0.154355l-0.04915,-0.063702l-0.063896,0.00245l-0.054065,0.071052l-0.017203,0.156805l0.014745,0.063702l-0.004915,0.041651l-0.031948,0.063702Z M2258.249418,738.143241l0.037007,-0.032283l0.027756,-0.055343l-0.037007,-0.027671l-0.041633,0.041507l-0.013878,0.064567l0.027756,0.009224Z M2258.517722,738.184748l0.018504,-0.032283l-0.041633,-0.02306l-0.032381,0.009224v0.041507l0.055511,0.004612Z M2258.637996,739.222428h0.050885l0.032381,-0.02306l-0.083267,-0.02306l-0.032381,0.018448l0.032381,0.027671Z M2258.318807,738.765849l0.041633,0.009224l0.009252,-0.032283l-0.041633,-0.018448l-0.046259,0.018448l0.037007,0.02306Z M2257.805329,738.618268l0.245174,0.018448l0.060137,-0.009224l-0.064763,-0.036895l-0.2498,-0.02306l-0.032381,0.02306l0.041633,0.027671Z M2259.100588,739.743575l0.083267,0.02306l0.1249,-0.02306l0.171159,-0.244431l0.027756,-0.161417l-0.032381,-0.175253l-0.208167,-0.221372l-0.152655,-0.230596l-0.009252,-0.073791l-0.074015,-0.106074l-0.138778,-0.101462l-0.171159,-0.198312l-0.106396,-0.078403h-0.046259l0.004626,0.055343l0.055511,0.004612l0.157281,0.166029v0.059955l0.041633,0.036895l0.083267,0.02306l0.134152,0.147581l0.018504,0.092238l0.138778,0.212148l0.22667,0.244431l0.027756,0.170641l-0.041633,0.156805l-0.111022,0.156805l-0.069389,0.036895l-0.078641,-0.018448l-0.02313,-0.032283l-0.037007,-0.018448l-0.037007,0.027671l0.004626,0.036895l0.037007,0.032283Z M2257.717437,738.572149l0.02313,-0.02306l0.018504,-0.032283h-0.041633l-0.018504,0.032283l0.018504,0.02306Z M2258.351188,738.129405l0.032381,-0.009224l-0.004626,-0.032283l-0.037007,-0.018448l-0.02313,0.041507l0.032381,0.018448Z M2259.051245,729.090058l0.049343,-0.064567l0.049343,-0.006149l0.027756,-0.018448l0.009252,-0.073791l-0.027756,-0.030746l-0.040091,0.012298h-0.058595l-0.114106,0.098387l-0.003084,0.043045l0.033923,0.046119l0.009252,0.055343h0.027756l0.037007,-0.061492Z M2258.998818,729.259162l0.030839,-0.024597l-0.01542,-0.024597l-0.030839,0.006149l-0.009252,0.033821l0.024672,0.009224Z M2258.912467,729.459011l0.024672,-0.003075l0.033923,-0.052268l0.012336,-0.064567l-0.027756,-0.006149l-0.037007,0.058418l-0.006168,0.067641Z M2258.893963,729.597369l0.040091,-0.036895l-0.003084,-0.058418l-0.027756,0.003075l-0.037007,0.076865l0.027756,0.015373Z M2257.512354,731.146971l-0.003084,0.067641l0.01542,0.036895l0.030839,-0.012298l0.006168,-0.064567l0.064763,-0.070716l0.080183,-0.015373l0.052427,-0.030746l0.061679,-0.07994l0.077099,-0.030746l0.049343,-0.036895l0.135694,-0.030746l0.172701,-0.012298l0.194289,0.046119l0.012336,-0.024597l-0.058595,-0.073791l-0.024672,0.009224l0.012336,0.027671l-0.030839,0.009224l-0.043175,-0.027671l-0.212792,-0.006149l-0.175785,0.030746l-0.040091,0.052268l-0.080183,0.033821l-0.092518,0.086089l-0.13261,0.033821l-0.067847,-0.012298l-0.086351,-0.076865l-0.012336,0.024597l0.095602,0.147581Z M2257.237883,730.636586l0.027756,-0.015373l-0.033923,-0.018448l-0.01542,-0.027671l0.01542,-0.021522l-0.018504,-0.021522l-0.027756,0.033821l0.006168,0.052268l0.046259,0.018448Z M2257.028174,729.806442l0.037007,-0.006149l-0.003084,-0.030746l-0.046259,-0.058418l-0.012336,0.024597l0.024672,0.070716Z M2257.102189,729.763397l0.040091,-0.003075l0.104854,0.055343l0.067847,0.098387l0.175785,0.122984l0.123358,0.033821l0.021588,-0.021522l-0.027756,-0.012298l-0.089435,-0.024597l-0.144946,-0.092238l-0.064763,-0.064567l-0.024672,-0.052268l-0.055511,-0.03997l-0.067847,-0.027671l-0.040091,-0.036895l-0.009252,-0.030746h-0.027756l0.003084,0.070716l0.01542,0.024597Z M2258.86004,730.316827l-0.018504,0.015373l-0.037007,0.067641l-0.074015,0.067641l-0.138778,0.086089l-0.074015,0.024597l-0.061679,0.067641l-0.018504,0.061492l-0.033923,0.049194l0.024672,0.027671l0.024672,-0.012298l0.043175,-0.104537l0.046259,-0.052268l0.21896,-0.11991l0.111022,-0.101462l0.064763,-0.046119l0.009252,-0.03997l-0.024672,-0.058418l-0.01542,0.006149l0.009252,0.049194l-0.01542,0.018448l-0.040091,-0.006149Z M2258.826117,730.095455l0.030839,-0.012298l0.003084,-0.024597l-0.037007,-0.006149l-0.018504,0.021522l0.021588,0.021522Z M2258.795277,730.015515l0.030839,-0.003075l0.018504,-0.030746l-0.030839,-0.018448l-0.055511,0.003075l0.006168,0.024597l0.030839,0.024597Z M2258.551645,730.043187l0.043175,-0.03997l0.058595,-0.024597l-0.006168,-0.024597l-0.080183,0.030746l-0.040091,0.061492l0.024672,-0.003075Z M2258.36044,730.805689l0.040091,-0.012298l-0.018504,-0.024597l-0.030839,0.003075l-0.012336,0.024597l0.021588,0.009224Z M2257.395164,730.771869l0.021588,-0.003075l-0.006168,-0.027671l-0.021588,-0.009224l-0.01542,0.024597l0.021588,0.015373Z M2257.096021,730.086231l0.027756,0.033821l0.040091,0.009224l-0.006168,-0.027671l-0.046259,-0.027671l-0.01542,0.012298Z M2257.213211,730.304528l0.021588,-0.012298l0.003084,-0.024597h-0.033923l-0.009252,0.021522l0.018504,0.015373Z M2257.028174,729.880232l0.030839,0.006149l0.027756,-0.018448l-0.021588,-0.018448l-0.027756,0.006149l-0.009252,0.024597Z M2257.062098,729.941725h0.021588l0.009252,-0.015373l-0.018504,-0.015373l-0.018504,0.009224l0.006168,0.021522Z "/>
</svg>
