<svg xmlns="http://www.w3.org/2000/svg" viewBox="703.784 636.406 0.611 0.773">
  <path d="M703.926241,636.4341l0.022118,-0.014745l0.02949,0.012288l0.073726,-0.024575l0.03932,0.00983l0.036863,-0.004915l0.036863,0.017203l0.034405,0.04915l0.027033,0.012288h0.036863l0.02949,0.017203l0.00983,0.027033l0.054065,0.061438l0.00983,0.041778l-0.002458,0.058981l0.017203,0.03932l-0.004915,0.066353l0.01966,0.031948l-0.022118,0.120419l-0.017203,0.014745l-0.017203,0.076183l-0.041778,0.051608h-0.066353l-0.04915,0.022118l-0.044235,0.004915l-0.056523,0.024575l-0.031948,0.024575l-0.071268,0.007373l-0.046693,-0.024575l-0.076183,-0.071268l-0.004915,-0.02949l-0.03932,-0.088471l-0.027033,-0.022118v-0.027033l0.017203,-0.012288l0.002458,-0.066353l0.014745,-0.02949l-0.012288,-0.073726l0.017203,-0.098301l0.04915,-0.073726l0.00983,-0.02949l-0.00983,-0.01966l0.017203,-0.01966l0.01966,-0.004915l0.01966,-0.034405l-0.002458,-0.022118Z "/>
</svg>
