<svg xmlns="http://www.w3.org/2000/svg" viewBox="702.273 634.975 2.122 2.204">
  <path d="M703.926241,636.4341l0.022118,-0.014745l0.02949,0.012288l0.073726,-0.024575l0.03932,0.00983l0.036863,-0.004915l0.036863,0.017203l0.034405,0.04915l0.027033,0.012288h0.036863l0.02949,0.017203l0.00983,0.027033l0.054065,0.061438l0.00983,0.041778l-0.002458,0.058981l0.017203,0.03932l-0.004915,0.066353l0.01966,0.031948l-0.022118,0.120419l-0.017203,0.014745l-0.017203,0.076183l-0.041778,0.051608h-0.066353l-0.04915,0.022118l-0.044235,0.004915l-0.056523,0.024575l-0.031948,0.024575l-0.071268,0.007373l-0.046693,-0.024575l-0.076183,-0.071268l-0.004915,-0.02949l-0.03932,-0.088471l-0.027033,-0.022118v-0.027033l0.017203,-0.012288l0.002458,-0.066353l0.014745,-0.02949l-0.012288,-0.073726l0.017203,-0.098301l0.04915,-0.073726l0.00983,-0.02949l-0.00983,-0.01966l0.017203,-0.01966l0.01966,-0.004915l0.01966,-0.034405l-0.002458,-0.022118Z  M702.273967,635.295834l0.003084,-0.111022l0.027225,-0.060571l0.041778,-0.02949l0.024575,-0.044235l0.066787,-0.038405l0.058595,-0.006168l0.061679,-0.027756l0.073437,-0.003855l0.01966,0.007373l0.024093,0.055077l0.024672,0.003084l0.044621,-0.004096l0.100325,0.041103l0.040091,0.058595l0.166533,0.111022h0.030839l0.018504,0.021588l0.003084,0.024672l0.086351,0.083267l0.13261,0.172701l0.037007,0.092518l0.043175,0.058595v0.033923l0.01542,0.021588l0.027756,0.009252l0.01542,0.046259l-0.001976,0.053102l0.088326,0.082592l0.040091,0.012336l0.04554,0.043263l0.002984,0.019091l0.014745,0.014745l0.025078,0.006831l0.035011,0.03326l0.009252,0.037007h0.024672l0.009252,-0.027756l0.02207,-0.000193l0.064281,0.040284l0.018504,0.055511l-0.012336,0.030839l-0.027756,0.012336l-0.006168,0.021588l0.021588,0.021588l-0.012336,0.021588l-0.030839,-0.006168l-0.009252,-0.021588l-0.037007,0.018504l-0.006168,0.033923l-0.016576,0.000145l-0.029683,-0.030984l-0.027756,0.009252l-0.003084,0.074015l-0.027756,0.012336l-0.027225,-0.017925l0.004915,-0.036863l-0.008529,-0.034646l-0.027756,-0.01542l0.001879,-0.028575l0.032044,-0.023852l0.009252,-0.043175l-0.011806,-0.018986l0.002458,-0.017203l0.015516,-0.028575l-0.018504,-0.064763l-0.03879,-0.046741l-0.051608,-0.034405l-0.060715,-0.014456l-0.043175,-0.043175l-0.077099,-0.006168l-0.055511,-0.046259l-0.006168,-0.033923h-0.043175l-0.027756,0.018504l-0.018166,0.002602l-0.00983,-0.01966l-0.031948,0.007373l-0.007373,0.022118l-0.062209,-0.000096l-0.030839,-0.021588l-0.135694,-0.009252l-0.154631,-0.08211l-0.036863,-0.071268l-0.046693,-0.034405l-0.167111,-0.078641l-0.063896,-0.066353l-0.055077,-0.04038v-0.037007l-0.049343,-0.074015l-0.058595,-0.043175Z M703.923783,636.284191h0.01966v-0.00983l-0.007373,-0.007373l-0.014745,0.004915l0.002458,0.012288Z "/>
</svg>
