<svg xmlns="http://www.w3.org/2000/svg" viewBox="1949.869 520.953 5.435 3.309">
  <path d="M1954.846994,521.307761l-0.041778,0.031948l-0.022118,0.041778l0.004915,0.036863l0.03932,-0.04915l0.044235,-0.014745l0.049584,0.03296l-0.020046,0.10177l-0.049343,0.049343l0.021588,0.052427l0.10177,0.061679l0.049343,-0.027756l0.052427,0.012336l0.069919,0.098156l-0.020576,0.025202l-0.049343,-0.024672l-0.052427,0.012336l-0.03002,0.058402l0.012288,0.086013l0.056523,0.051608l-0.017203,0.04915l-0.041778,-0.022118l-0.004915,-0.036863l-0.027033,-0.024575l-0.041778,0.03932l-0.064907,0.192265l0.02313,0.060137l-0.041633,0.041633l-0.134152,0.046259l-0.083267,0.143404l0.004626,0.069389l-0.161907,0.14803l-0.055511,0.029298v0.030839l0.060137,-0.004626l0.004626,0.046259l-0.120274,0.100228l-0.064763,-0.006168l-0.070931,0.021588l-0.141862,-0.018504l-0.092518,0.027756l-0.129815,0.143693l-0.071268,0.036863h-0.100758l-0.253269,0.064618l-0.181712,-0.008095l-0.098927,0.028141l-0.027756,0.067847l-0.089435,0.043175l-0.064763,0.072473l-0.134152,0.02313l-0.055511,-0.037007l-0.082399,-0.003614l-0.036863,0.017203v0.041778l-0.041778,0.007373l-0.086013,-0.036863l-0.198577,0.001879l-0.089435,0.058595l-0.169617,0.033923l-0.083267,-0.012336l-0.046259,-0.074015l-0.067847,-0.018504l-0.086351,0.052427l-0.083267,-0.018504l-0.040091,-0.052427l-0.083267,-0.003084l-0.154197,0.086351l-0.296059,-0.024672l-0.027756,-0.027756l-0.083267,0.003084l-0.151113,0.11719l-0.035321,0.130971l0.01966,0.051608l-0.024575,0.017203l-0.051608,-0.034405l-0.041778,0.004915l-0.03932,0.02949l-0.054065,-0.03932l-0.00983,-0.063896l-0.122876,-0.078641l-0.027033,-0.088471l-0.090928,-0.068811l-0.10365,0.000578l-0.194289,-0.14803l-0.106396,-0.231296l0.027756,-0.171159l-0.027756,-0.097144l0.051811,-0.103621l0.053044,-0.02282l0.027756,-0.083267l0.209709,-0.127984l0.049343,-0.090976l0.175785,-0.095602l0.046259,-0.055511l0.037007,-0.172701l0.055511,-0.040091l0.215876,-0.089435l0.044717,-0.112564l0.064763,-0.027756l0.1249,0.009252l0.333066,-0.143404l0.078641,0.018504l0.518103,-0.180411l0.050885,-0.060137l0.078641,-0.018504l0.087893,0.02313l0.457966,-0.069389l0.111022,-0.069389l0.203541,-0.02313l0.074015,-0.083267l0.074015,-0.009252l0.097144,0.060137l0.400576,-0.112034l0.083556,0.014745l0.093386,-0.012288l0.054065,-0.03932l0.113191,0.010119l0.1249,0.041633l0.092518,-0.018504l0.069389,0.02313l0.027756,0.092518l0.211202,0.131261l0.058981,-0.031948l0.115504,0.017203l0.068811,0.036863l0.017203,0.04915Z M1949.914748,522.82651l0.01966,-0.014745l-0.012288,-0.017203l-0.054065,0.00983v0.01966l0.046693,0.002458Z M1950.416082,522.133489l0.034405,-0.014745l0.002458,-0.02949l-0.024575,-0.017203l-0.027033,0.00983l-0.00983,0.036863l0.024575,0.014745Z M1955.234174,521.504604l0.046259,-0.012336l0.02366,-0.073918l-0.02366,-0.083363l-0.055511,-0.043175l-0.021588,-0.052427l-0.046693,0.01301l-0.044235,0.143837l0.02949,0.076183l0.092278,0.032189Z M1950.660678,523.879245l0.049343,0.012336l0.040091,-0.027756l-0.009252,-0.049343l-0.040091,-0.009252l-0.040091,0.027756v0.046259Z M1950.676098,524.193807l-0.012336,0.030839l0.012336,0.037007l0.024672,-0.003084l0.006168,-0.052427l-0.030839,-0.012336Z M1952.308374,523.475296l-0.012288,0.022118l0.027033,0.014745l0.017203,-0.012288l-0.012288,-0.027033l-0.01966,0.002458Z M1952.645055,523.448263l0.024575,-0.004915l-0.004915,-0.024575l-0.031948,-0.004915l-0.014745,0.017203l0.027033,0.017203Z M1952.858859,523.423688l0.01966,-0.014745l-0.004915,-0.01966l-0.02949,-0.002458l-0.012288,0.024575l0.027033,0.012288Z M1953.222572,523.463008l0.024575,-0.00983v-0.024575h-0.031948l-0.014745,0.022118l0.022118,0.012288Z "/>
</svg>
