<svg xmlns="http://www.w3.org/2000/svg" viewBox="1424.035 341.865 269.522 125.754">
  <path fill-rule="evenodd" d="M1466.436947,427.414713l0.037118,-0.08661l0.098982,-0.012373l0.179406,0.148474l0.043305,0.210338l0.08661,0.111355l0.197965,0.129914l0.092796,0.24127l0.043305,0.247456l-0.061864,0.055678l-0.278388,-0.191778l-0.334066,-0.525844l-0.105169,-0.327879Z M1465.892543,426.462007l0.055678,0.061864l0.043305,0.123728l0.136101,0.074237l0.167033,-0.030932l0.006186,-0.092796l-0.204151,-0.191778l0.012373,-0.148474l0.117542,-0.173219l-0.037118,-0.08661l-0.117542,-0.030932l-0.278388,0.08661l-0.092796,0.204151l0.037118,0.185592l0.15466,0.018559Z M1465.224412,427.365222l0.142287,0.327879l-0.018559,0.129914l0.105169,0.179406l0.272202,0.129914h0.148474l0.129914,-0.123728l-0.012373,-0.266015l-0.160846,-0.235083l0.024746,-0.204151l0.142287,-0.136101l0.012373,-0.117542l-0.24127,-0.22271l-0.167033,-0.006186l-0.278388,0.204151l-0.098982,0.197965v0.142287Z M1464.370689,428.491147l0.160846,0.136101l0.24127,-0.043305l0.08661,-0.179406l-0.043305,-0.278388l-0.111355,-0.117542h-0.129914l-0.111355,0.117542l-0.123728,0.030932l-0.049491,0.08661l0.080423,0.247456Z M1464.673823,428.918008l0.148474,0.030932l0.049491,-0.043305l-0.098982,-0.105169l-0.123728,-0.024746l-0.061864,0.043305l0.08661,0.098982Z M1466.684403,420.807638l0.160846,-0.148474l0.272202,-0.321693l-0.058771,-0.102076l-0.064957,0.00928l-0.055678,0.111355l-0.24127,0.259829l-0.092796,0.185592l0.080423,0.006186Z M1464.976956,424.160666l0.024746,-0.160846l-0.049491,-0.111355h-0.123728l-0.061864,0.173219l0.08661,0.123728l0.123728,-0.024746Z M1465.546105,423.764737l0.074237,-0.235083l-0.024746,-0.123728h-0.098982l-0.08661,0.136101l0.012373,0.235083l0.123728,-0.012373Z M1466.307032,419.103284l0.074237,-0.120635v-0.139194l-0.064957,-0.018559l-0.064957,0.083516l-0.018559,0.167033l0.074237,0.027839Z M1463.996412,417.414397l0.120635,0.00928l0.148474,-0.111355l0.00928,-0.194872l-0.111355,-0.120635l-0.176312,0.018559l-0.092796,0.120635v0.204151l0.102076,0.074237Z M1462.687988,417.924775l0.074237,-0.00928l0.064957,-0.046398l-0.037118,-0.074237l-0.129914,0.018559l-0.037118,0.074237l0.064957,0.037118Z M1467.466982,420.170438l-0.037118,-0.120635l-0.111355,-0.092796l-0.064957,0.055678l0.037118,0.111355l0.129914,0.111355l0.046398,-0.064957Z M1466.319405,417.88147l0.061864,-0.080423v-0.080423l-0.061864,-0.012373l-0.049491,0.055678l-0.006186,0.105169l0.055678,0.012373Z M1468.014479,418.295959l0.111355,0.06805l0.037118,-0.043305l-0.06805,-0.098982l-0.080423,-0.06805l-0.049491,0.030932l0.049491,0.111355Z M1467.525753,418.660957l0.018559,-0.06805l-0.074237,-0.105169l-0.055678,0.006186v0.06805l0.055678,0.105169l0.055678,-0.006186Z M1467.154569,418.80943l0.043305,-0.117542l-0.012373,-0.080423h-0.049491l-0.049491,0.08661v0.123728l0.06805,-0.012373Z M1467.148383,419.489934l0.030932,-0.074237v-0.061864l-0.043305,-0.006186l-0.043305,0.055678l0.012373,0.08661h0.043305Z M1466.220423,422.372797l0.111355,-0.006186l0.055678,-0.030932l-0.030932,-0.055678l-0.136101,0.006186l-0.043305,0.049491l0.043305,0.037118Z M1467.183954,421.613416l0.037118,-0.055678l-0.017013,-0.075783l-0.043305,-0.006186l-0.030932,0.043305l0.018559,0.08661l0.035572,0.007733Z M1467.898484,422.815124l0.046398,-0.018559v-0.037118l-0.032479,-0.027839l-0.041758,0.013919l-0.00464,0.041758l0.032479,0.027839Z M1466.993723,421.76189l0.037118,-0.027839l0.013919,-0.055678l-0.041758,-0.027839l-0.046398,0.027839l0.00464,0.074237l0.032479,0.00928Z M1467.05868,421.362867l0.046398,-0.037118l0.00928,-0.064957l-0.037118,-0.018559l-0.037118,0.032479l-0.013919,0.074237l0.032479,0.013919Z M1468.162952,420.532343l0.074237,0.046398l0.032479,-0.023199l-0.00928,-0.088156l-0.069597,-0.032479l-0.037118,0.023199l0.00928,0.074237Z M1466.896287,421.970681l0.037118,-0.00464l0.00928,-0.041758l-0.032479,-0.046398l-0.032479,0.00464l-0.00928,0.046398l0.027839,0.041758Z M1467.072599,419.776055l0.018559,-0.051038l-0.00928,-0.078877l-0.046398,-0.013919l-0.018559,0.051038l0.018559,0.088156l0.037118,0.00464Z M1465.459495,428.800467l0.117542,0.08661l0.06805,-0.018559l0.012373,-0.160846l-0.111355,-0.259829l-0.061864,-0.012373l-0.061864,0.055678l0.006186,0.197965l0.030932,0.111355Z M1466.678216,428.732416l0.105169,0.061864l0.043305,-0.030932l-0.043305,-0.136101l-0.098982,-0.049491l-0.043305,0.043305l0.037118,0.111355Z M1453.552222,433.319632l0.069597,-0.013919l0.083516,0.051038v0.060317l-0.074237,0.051038l-0.078877,-0.00928l-0.032479,-0.074237l0.032479,-0.064957Z M1453.014005,433.542342l0.157753,0.064957l0.129914,-0.041758l0.00464,-0.064957l-0.139194,-0.088156l-0.125275,-0.013919l-0.055678,0.046398l0.027839,0.097436Z M1451.844775,432.818533l0.069597,0.120635l0.074237,0.00464l0.041758,-0.083516l-0.027839,-0.102076l-0.139194,-0.074237h-0.092796l-0.023199,0.046398l0.097436,0.088156Z M1451.000332,433.505224l0.051038,0.162393l-0.018559,0.097436l-0.041758,0.051038l-0.046398,0.102076l0.032479,0.069597l0.046398,-0.00928l0.018559,-0.088156l0.148474,-0.115995l0.23199,-0.092796l0.018559,-0.051038l-0.064957,-0.018559l-0.102076,0.027839l-0.083516,-0.027839l-0.055678,-0.115995l-0.083516,-0.102076l-0.051038,0.00928v0.102076Z M1450.234765,432.851012h0.041758l0.032479,-0.064957l-0.027839,-0.083516l-0.074237,-0.00928l-0.027839,0.064957l0.055678,0.092796Z M1449.566633,433.806811l0.055678,0.157753l0.055678,0.051038l0.023199,-0.041758l-0.037118,-0.078877l-0.023199,-0.22735l0.037118,-0.078877l-0.00464,-0.060317l-0.037118,-0.00464l-0.051038,0.041758l-0.023199,0.125275l0.00464,0.115995Z M1448.828905,432.001929l0.018559,0.125275l-0.060317,0.115995l0.018559,0.041758l0.069597,-0.013919l0.064957,0.046398l0.051038,0.106715v0.125275l-0.060317,0.046398l-0.00464,0.064957l0.032479,0.051038v0.092796l-0.064957,0.194872l0.032479,0.129914l0.106715,0.064957l0.027839,-0.032479l-0.074237,-0.078877l0.00928,-0.092796l0.097436,-0.120635l0.23199,-0.157753l0.060317,-0.148474l-0.018559,-0.088156l0.037118,-0.143834l0.078877,-0.106715l0.074237,-0.245909l-0.013919,-0.22271l-0.120635,-0.106715l-0.111355,-0.023199l-0.111355,0.064957l-0.078877,0.115995l-0.069597,0.00464l-0.051038,-0.041758l-0.074237,0.00464l-0.148474,0.115995l-0.013919,0.069597l0.064957,0.041758Z M1447.232814,432.456629l0.115995,0.371184l0.23663,0.380464l0.22735,0.185592l0.301587,0.097436l0.278388,0.046398l0.102076,0.074237l0.027839,-0.032479l-0.00928,-0.083516l0.00928,-0.055678l0.078877,-0.051038v-0.055678l-0.097436,-0.00464l-0.190232,0.088156l-0.180952,-0.013919l-0.245909,-0.106715l-0.204151,-0.167033l-0.018559,-0.115995l0.046398,-0.106715l-0.023199,-0.032479l-0.111355,0.00464l-0.046398,-0.074237l-0.00464,-0.102076l-0.078877,-0.287668l-0.051038,-0.148474l0.037118,-0.199511l0.078877,-0.120635l0.139194,-0.083516l0.190232,-0.013919l0.00928,-0.037118l-0.111355,-0.074237h-0.129914l-0.185592,0.111355l-0.092796,0.153113l-0.064957,0.199511l-0.032479,0.255189Z  M1486.798373,461.76803l-0.086,-29.425l16.982,-4.771l2.701,1.85l10.398,5.736l3.182,2.183l0.296,0.092l0.204,1.073l1.961,1.85l3.737,3.867l1.591,-0.092l7.364,-1.073l3.404,0.425l4.459,0.241l2.664,-1.332l0.462,0.148l1.222,1.776l2.275,1.387l0.241,0.259l1.165,2.257l0.685,1.11l1.665,-0.592v3.072l-0.148,1.794l-0.426,-0.166v3.367l3.46,0.481l0.759,4.218l0.444,1.61l1.9,0.03l0.111,0.047h1.987l0.335,0.055l1.337,-0.316l0.734,-0.009l0.362,-0.121l0.864,0.391l0.167,-0.13l0.473,-0.01l0.14,0.483l-0.019,0.464l0.056,0.065l0.186,0.01l0.046,-0.121l0.177,-0.084l0.092,-0.213l0.121,-0.009l0.214,0.13l0.093,0.13l-0.075,0.083l-0.176,-0.028l-0.251,0.149l0.028,0.074l0.121,0.084l-0.019,0.399l0.112,0.074l-0.038,0.084l-0.102,0.037l-0.12,0.232l-0.372,0.307l-0.158,-0.019l-0.037,0.075l0.074,0.139l0.27,0.223l0.353,0.074l0.51,0.492l0.437,0.325l0.576,0.27l0.399,0.26l0.232,0.018l0.121,0.037l0.148,0.14l0.233,0.037l0.055,0.111l0.065,0.009l0.121,-0.046l0.306,0.009l0.103,0.065h0.176l0.214,-0.195l0.12,-0.018l0.028,-0.084l-0.204,-0.13l-0.009,-0.083l0.12,-0.093l0.065,-0.27l-0.13,-0.139l-0.287,-0.102l-0.047,-0.567l-0.139,-0.204l0.009,-0.269l0.139,-0.102l0.019,-0.205l-0.065,-0.176l-0.028,-0.167l-0.149,-0.149l-0.13,0.019l-0.083,-0.037l-0.074,-0.112h-0.195l-0.038,-0.083l0.149,-0.075l0.111,-0.232l0.112,-0.037l0.167,0.046l0.13,-0.009l0.139,-0.158l0.093,0.028l0.019,0.223l0.111,0.056l0.195,-0.019l0.075,0.056l-0.028,0.065l-0.177,0.046l-0.037,0.084l0.056,0.139l0.102,0.009l0.102,-0.12l0.186,-0.056l0.121,0.019l0.185,-0.075l0.103,-0.26l-0.065,-0.046l-0.112,-0.01l-0.121,-0.13l0.01,-0.148l0.585,-0.557l0.613,-0.353l0.102,-0.149l0.13,-0.083l0.204,-0.065l0.186,-0.14l-0.028,-0.111l0.074,-0.047l0.121,0.093l0.093,-0.065l0.056,-0.176l-0.13,-0.158l0.009,-0.149l0.121,-0.111l0.027,-0.251l-0.102,-0.121l0.047,-0.102l0.223,-0.055l0.074,0.12l0.093,0.01l0.083,-0.168l0.149,-0.102l0.144,0.042l0.097,-0.088l-0.034,-0.149l0.041,-0.139l0.39,-0.188l0.223,0.035l0.272,0.139l0.111,-0.014l0.223,-0.174l0.209,-0.021l0.411,0.028l0.077,-0.042l0.007,-0.104l-0.195,-0.133h-0.133l-0.041,-0.083l0.264,-0.362l0.154,-0.042l0.181,0.125l0.202,-0.035l0.146,-0.118l0.042,-0.174l0.236,-0.362l0.286,-0.188l0.488,-0.119l0.125,-0.139l0.216,-0.035l0.111,0.042l0.126,-0.021l0.104,-0.105l0.244,-0.069l0.209,0.062l0.223,0.007l0.327,-0.202l0.112,-0.292l0.181,-0.139l0.104,-0.007l0.042,0.083l0.097,0.014l0.363,-0.32l0.055,-0.126l0.209,-0.062l0.14,0.028l0.16,-0.14l0.056,-0.223l0.243,-0.243l0.028,-0.147l0.321,-0.195l0.299,-0.048l0.077,-0.119l-0.007,-0.265l-0.063,-0.104l0.049,-0.118l0.271,-0.175h0.209l0.244,-0.16l0.084,0.007l0.076,-0.035l0.014,-0.097l0.098,-0.028l0.265,0.139l0.174,0.174l0.041,0.175l-0.014,0.104l0.175,0.167l0.181,0.021l0.188,-0.084l0.076,-0.278l0.175,-0.251l0.02,-0.125l0.091,-0.153l0.181,-0.133l0.153,-0.23l0.007,-0.139l0.174,-0.146l0.314,-0.014l0.09,0.056l0.154,-0.021l0.397,-0.23l0.188,-0.244l-0.049,-0.063l-0.091,-0.021l-0.111,0.056l-0.098,-0.021l-0.007,-0.104l-0.139,-0.133l0.028,-0.222l0.153,-0.293l0.105,-0.042l0.118,-0.139l0.125,-0.077l0.014,-0.062l-0.09,-0.063v-0.084l0.111,-0.104l0.07,-0.237l0.097,-0.209l0.077,-0.021l0.467,0.14l0.139,-0.042l-0.007,-0.077l-0.223,-0.327l-0.306,-0.216l0.014,-0.216l0.285,-0.111l0.683,-0.014l0.035,0.097l0.069,-0.007l0.077,-0.118l0.035,-0.265l-0.042,-0.209l0.084,-0.104l0.174,-0.049l0.264,-0.244l0.098,-0.258l-0.028,-0.139l0.056,-0.056l0.397,0.091l0.195,-0.049l0.083,-0.181l0.098,-0.049l0.216,0.014l0.216,0.042l0.299,-0.007l0.153,-0.091l0.126,0.007l0.139,0.126l0.223,0.069l0.299,-0.104l0.154,-0.209l0.146,-0.021l0.118,0.063l0.39,-0.077l0.119,-0.097l0.278,-0.063l0.3,0.063l0.111,0.076l0.453,0.154l0.23,0.16l0.355,0.049l0.153,0.062l0.091,0.14l0.265,0.09h0.139l0.104,-0.132h0.091l0.111,0.055l0.105,-0.007l0.097,-0.09l0.404,0.028l0.244,0.111l0.223,0.028l0.543,0.293l0.209,0.055l0.167,0.188h0.119l0.118,-0.062l0.411,-0.014l0.342,0.09l0.104,0.119l0.306,0.104l0.161,0.014l0.181,0.112l0.139,0.25l0.258,0.293l0.195,0.035l0.09,-0.028l0.098,0.035l0.049,0.09l0.111,0.049l0.502,0.035l0.153,-0.07l0.146,0.014l0.167,0.035l0.139,0.007l0.098,-0.056l0.3,0.021l0.16,0.084l0.849,0.125l0.126,0.091l-0.042,0.327l0.139,0.16l0.119,0.084l0.209,0.028l0.167,-0.028l0.292,0.048l0.147,0.084l0.132,0.007l0.181,-0.077l0.028,-0.132l-0.111,-0.146l-0.112,-0.035l-0.104,-0.098l-0.063,-0.167l-0.153,-0.188l-0.119,-0.355l0.014,-0.105l0.063,-0.055v-0.119l-0.063,-0.09l0.014,-0.251l0.098,-0.09l0.062,-0.133l0.007,-0.174l0.167,-0.383l0.168,-0.125l0.076,-0.181l0.014,-0.593l-0.111,-0.39l0.062,-0.243l0.188,-0.119l0.084,-0.16l-0.049,-0.306l0.049,-0.188l0.947,-0.349l0.495,-0.292l0.167,-0.028l0.181,-0.105l0.105,0.007l0.055,0.056l0.335,0.035l0.125,-0.021l0.091,-0.23l0.132,-0.16l0.076,-0.362l0.091,-0.098l0.279,0.195l0.153,0.181l0.104,0.007l0.126,-0.097l0.557,-0.098l0.327,0.007l0.077,-0.111l-0.132,-0.355l0.069,-0.063l0.564,0.202l0.091,0.153l0.536,0.223l0.147,0.181l0.362,0.139h0.271l0.495,0.23l0.244,0.349l0.487,0.355l0.251,0.299l0.181,0.049l0.139,-0.07h0.376l0.258,0.07l0.112,0.111l0.912,0.467l0.313,0.035l0.565,0.272l0.25,0.164l0.27,0.075l0.297,-0.065l0.95,0.165l0.175,0.051h0.105l0.06,-0.051l0.101,0.004l0.193,0.056l0.298,0.014l0.166,0.079l0.225,0.037l0.289,0.116l0.197,0.018l0.12,-0.009l0.248,-0.223l0.115,-0.051l0.068,-0.181v-0.181l0.042,-0.088l0.041,-0.162l0.165,-0.218l0.134,-0.005l0.055,-0.032l0.294,-0.014l0.179,-0.084l0.101,0.01l0.064,0.046l0.014,0.088l0.142,0.065h0.188l0.106,0.046l0.051,0.07l0.068,0.023l0.06,-0.042l0.326,-0.023l0.042,-0.041l0.495,-0.065l0.152,0.013l0.041,0.089l0.06,0.014l0.055,-0.038l0.147,0.01l0.4,0.088l0.036,0.093l-0.018,0.069l0.037,0.121l0.183,0.088h0.198l0.078,-0.06l0.271,-0.028l0.119,-0.07l0.225,-0.009l0.101,-0.046l0.129,-0.214l0.119,-0.023l0.179,0.079l0.184,0.028l0.101,-0.051h0.092l0.092,0.06l0.069,0.005l0.078,-0.047l0.142,0.005l0.179,0.042h0.138l0.225,-0.144l0.014,-0.112l0.055,-0.111l0.151,-0.023l0.111,0.037l0.082,-0.009l0.129,-0.112l0.027,-0.134l0.079,-0.019l0.096,0.061l0.106,0.004l0.147,0.047l0.22,-0.024l0.041,-0.065l0.248,-0.041l0.161,0.028l0.06,0.12l0.124,0.116l0.078,0.009l0.11,-0.083l0.028,-0.093l0.119,-0.046l0.308,0.065l0.137,-0.019l0.051,0.056l-0.009,0.13l0.05,0.041l0.12,-0.009l0.275,0.167l0.028,0.079l0.105,0.047l0.202,-0.019l0.12,0.009l0.069,-0.042l0.119,0.014l0.175,0.098l0.101,0.004l0.39,-0.194l0.211,-0.014l0.083,-0.075h0.087l0.074,0.079l0.229,-0.028l0.06,-0.064h0.184l0.032,0.097l0.142,0.079l0.381,0.023l0.101,-0.028h0.143l0.128,0.084l0.372,0.004l0.087,-0.051l0.106,-0.004l0.147,0.079l0.096,0.129l0.134,0.019l0.055,-0.042l0.137,0.005l0.23,0.125l0.074,0.009l0.073,-0.055h0.064l0.037,0.125l0.096,0.079l0.101,0.014l0.124,-0.056l0.042,-0.065l0.069,-0.014l0.183,0.051l0.106,0.098l0.22,0.009l0.115,-0.083l0.097,-0.019l0.133,0.028l0.184,-0.019l0.137,-0.139l0.078,-0.005l0.088,0.061l0.05,0.004l0.037,-0.041l0.133,0.004l0.372,0.144l0.193,0.009l0.138,-0.014l0.069,-0.051l0.032,-0.176l0.055,-0.018l0.092,0.055l0.124,0.028l0.174,-0.019l0.083,-0.064l0.193,-0.042l0.064,-0.042l0.096,0.005l0.033,0.046l0.169,0.084l0.129,0.116l0.119,0.041l0.097,0.088l0.069,0.014l0.087,-0.032l0.096,0.014l0.111,0.079l0.032,0.106l0.156,0.103l0.165,-0.005l0.092,-0.047l0.115,-0.004l0.041,0.051l0.051,0.009l0.032,-0.023l0.211,0.037l0.064,0.084l0.037,0.004l0.087,-0.042l0.161,0.028l0.12,0.061h0.068l0.074,-0.01l0.225,0.075l0.165,0.102l0.055,0.004l0.143,-0.041l0.11,0.009l0.064,0.023l0.262,0.005l0.078,0.125h0.046l0.73,-0.274l0.317,-0.065l-0.06,0.088l-0.124,0.302l0.014,0.255l0.096,0.274l0.193,0.25l0.253,0.214l0.106,0.051l0.11,0.005l0.082,0.041l0.079,0.088l0.087,0.052l0.138,0.009l0.202,0.162l0.05,0.107l0.198,0.158l0.064,0.088l0.009,0.083l0.06,0.047l0.069,0.009l0.041,0.037v0.056l0.055,0.055l0.175,0.075l0.096,0.111l0.014,0.074l0.096,0.051l0.368,-0.004l0.147,0.032l0.243,-0.009l0.069,-0.028l0.032,-0.107l0.129,-0.051h0.151l0.097,0.056l0.238,0.06l0.046,0.07l0.069,0.023l0.097,-0.005l0.33,0.084l0.11,-0.014l0.147,0.019l0.106,0.037h0.174l0.106,-0.023l0.225,0.037l0.087,0.046l0.014,0.241l0.078,0.149l0.097,0.023l0.05,0.042l0.005,0.06l0.105,0.121l0.092,0.051l0.29,0.028l0.041,0.065l-0.005,0.055l0.032,0.051l0.124,0.028l0.198,0.186l0.004,0.065l-0.128,0.055l0.376,0.501l0.075,-0.106l0.19,-0.023l0.102,0.083l0.116,0.009l0.144,-0.06l0.111,-0.116l0.019,-0.209l-0.075,-0.125l-0.111,-0.088l0.005,-0.088l0.13,-0.093l0.004,-0.051l-0.162,-0.07l-0.181,-0.171v-0.112l0.037,-0.093l-0.014,-0.176l-0.116,-0.083l-0.055,-0.154l0.023,-0.083v-0.214l0.13,-0.157l0.041,-0.088l0.056,-0.038l0.07,0.014l0.088,-0.023l0.046,-0.088l-0.028,-0.039l-0.092,0.031l-0.211,-0.117l-0.192,-0.204l-0.228,-0.495l-0.007,-0.112l0.075,-0.142l0.012,-0.136l0.08,-0.099l0.254,-0.099l0.025,-0.062l-0.025,-0.056l0.006,-0.086l0.186,-0.495l0.056,-0.334l0.105,-0.081l0.29,-0.012l0.106,0.05l0.519,-0.056l0.112,-0.149l0.253,-0.043l0.118,-0.105l0.544,-0.149h0.167l0.056,-0.043l-0.081,-0.13l-0.117,-0.055l-0.062,-0.075l-0.155,-0.068h-0.185l-0.204,-0.055l-0.056,-0.081l-0.26,-0.124l-0.266,-0.21l-0.105,-0.155l0.019,-0.068l0.061,-0.031l0.112,-0.21l0.334,-0.155l0.179,0.013l0.087,-0.031l0.062,-0.081l0.161,-0.08h0.092l0.081,-0.049l0.099,-0.174l0.136,-0.105l0.352,-0.08l0.328,0.012l0.136,0.074l0.087,-0.006l0.099,-0.068l0.124,0.006l0.111,0.037l0.081,-0.043l0.037,-0.161l0.055,-0.074l-0.006,-0.074l-0.13,-0.167l-0.024,-0.155l0.043,-0.068l0.006,-0.068l-0.118,-0.173v-0.124l0.044,-0.216l-0.031,-0.087l-0.136,-0.031l-0.081,0.025l-0.284,-0.019l-0.074,-0.068l0.006,-0.086l0.092,-0.099l0.025,-0.087l0.044,-0.068l0.092,-0.043l0.087,-0.174v-0.241l0.025,-0.087l0.068,-0.037l0.024,-0.086l-0.03,-0.167l-0.446,-0.891l-1.07,-1.936l-0.006,-0.211l-0.093,-0.21l0.031,-0.13l-0.05,-0.161l-0.111,-0.068l-0.08,-0.173l0.037,-0.087l-0.019,-0.086l-0.117,-0.106l-0.075,-0.21l0.031,-0.21l-0.08,-0.371l-0.337,-0.338l0.055,-0.25l-0.037,-0.446l0.037,-0.185l-0.009,-0.511l-0.083,-0.185l-0.115,-0.795l-0.056,-0.217l-0.123,-0.154l0.006,-0.173l0.099,-0.13l0.049,-0.136v-0.155l0.18,-0.514l0.062,-0.055l0.006,-0.124l-0.365,-0.39l-0.087,-0.192l-0.148,-0.117l-0.211,-0.043l-0.179,-0.093l-0.21,-0.056l-0.242,-0.204l0.013,-0.08l-0.143,-0.217l-0.061,-0.204l0.006,-0.21l-0.068,-0.025l-0.074,0.08l-0.112,0.044l-0.093,0.117l-0.086,0.019l-0.112,-0.037l-0.352,0.074l-0.074,0.068l-0.149,0.031l-0.062,-0.062v-0.161l-0.297,-0.266l-0.012,-0.099l0.074,-0.08l-0.006,-0.075l-0.291,-0.117l-0.148,0.031l-0.05,-0.025l0.031,-0.13l0.068,-0.111l0.112,-0.019l0.173,-0.074l0.037,-0.155l0.074,-0.068l0.099,0.006l0.068,-0.018l0.006,-0.081l0.068,-0.043l0.093,0.006l0.087,-0.043l0.037,-0.099l0.26,-0.111l0.154,0.024l0.062,-0.049l-0.049,-0.229l0.074,-0.056l0.136,0.056l0.087,-0.012l0.031,-0.081h0.074l0.093,0.087l0.117,0.018l0.112,0.099l0.204,0.019l0.154,-0.074l0.137,-0.174l0.29,-0.092l0.118,0.049l0.105,0.155l0.13,0.012l0.291,-0.074l0.235,-0.186l0.024,-0.105l-0.043,-0.049l0.006,-0.068l0.081,-0.081l0.154,-0.049l0.068,-0.062l0.062,-0.006l0.093,0.142l0.118,0.025l0.204,-0.062l0.117,0.012l0.106,0.037l0.117,0.007l0.118,-0.081l0.451,-0.13l0.279,-0.21l0.111,-0.019l0.155,0.112l0.062,0.006l0.055,-0.037l0.112,-0.006l0.222,0.086l0.18,0.087l0.222,0.018l0.266,-0.266l0.235,-0.049l0.149,0.037l0.532,-0.13l0.099,-0.13l0.124,-0.086l0.012,-0.124l0.074,-0.037l0.223,0.123l0.105,-0.024l0.062,-0.143l0.13,-0.068l0.093,0.019l0.08,-0.025l0.043,-0.086l0.069,-0.007l0.167,0.081l0.204,-0.019l0.154,-0.124l0.279,-0.043l0.111,0.043h0.081l0.061,-0.129l0.149,-0.075l0.155,0.013l0.074,0.111l0.105,0.006l0.111,-0.086l0.328,-0.099l0.013,-0.106l0.049,-0.043l0.093,0.006l0.136,-0.055l0.018,-0.118l0.149,-0.124h0.087l0.068,-0.024l0.024,-0.068l0.093,-0.031l0.118,0.031l0.167,-0.031l0.043,-0.075l0.087,-0.031l0.136,0.062l0.099,-0.037l0.031,-0.062l0.148,-0.031l0.13,0.025l0.21,0.142l0.149,0.198l0.025,0.124l0.142,0.155l0.198,0.136l0.247,0.39l0.075,0.031l0.086,-0.038h0.155l0.056,-0.024l0.092,0.006l0.105,0.037l0.211,-0.093l0.031,-0.068l0.068,-0.018l0.08,0.043l0.173,0.012l0.038,0.062l-0.056,0.068l0.006,0.099l0.142,0.143l0.093,-0.007l0.056,-0.074l0.179,-0.074l0.248,-0.019l0.142,-0.086l0.13,-0.007l0.099,0.019l0.086,-0.006l0.075,-0.05l0.086,0.007l0.229,0.173l0.303,0.124l0.421,0.111h0.155l0.094,0.027l0.105,0.066l0.571,-0.2l0.139,-0.125l-0.005,-1.039l-0.278,-0.613l-0.659,-0.301l-1.072,-0.636l-0.083,-0.251l-0.042,-0.422l0.102,-0.121l0.042,-0.125v-0.204l0.023,-0.19l0.051,-0.172l0.098,-0.176l0.055,-0.195l0.088,-0.116l0.084,-0.162l0.005,-0.39l-0.079,-0.279l0.009,-0.143l0.033,-0.079l0.013,-0.098l-0.023,-0.125l0.037,-0.121l0.228,-0.171l0.241,-0.037h0.116l0.148,-0.065l0.372,-1.476l0.719,-1.364l0.756,-1.647l0.195,-0.682l0.028,-0.283v-0.163l0.014,-0.12l0.055,-0.102l0.024,-0.126l0.487,-0.895l0.028,-0.144l0.148,-0.487l0.209,-0.478l-0.019,-0.107l0.019,-0.106l0.046,-0.07l0.023,-0.097l-0.004,-0.098l0.037,-0.13l0.005,-0.083l0.037,-0.051l0.055,-0.014l0.084,-0.121l0.018,-0.088l0.028,-0.056l0.088,-0.06l0.07,-0.093l0.051,-0.274l0.047,-0.088l-0.052,-0.055l0.01,-0.047l0.079,-0.042l0.009,-0.064l-0.042,-0.052l-0.004,-0.046l0.088,-0.093l0.014,-0.482l0.051,-0.037l0.046,0.023l0.042,-0.009l0.037,-0.056l0.125,-0.019l0.107,0.024h0.069l0.079,-0.052l0.186,-0.013l0.116,0.023l0.088,0.074l0.121,0.023l0.102,0.051l0.009,0.116l0.07,0.079l0.088,0.009l0.051,0.028l0.018,0.061l0.232,0.018l0.084,-0.028l0.107,0.01l0.088,0.064l0.12,0.005l0.103,-0.042l0.06,0.014v0.084l0.125,0.102l0.033,0.083l0.134,0.112l0.065,0.116h0.079l0.005,-0.056l0.106,-0.079l0.098,0.014l0.018,0.051l0.126,0.107l0.102,0.023l0.092,0.046l0.056,0.121l0.047,0.037l0.088,-0.004l0.097,0.037l0.042,0.041l-0.023,0.116l0.051,0.028l0.069,-0.023l0.149,0.06l0.023,0.051l0.042,0.019l0.065,-0.014l0.32,0.084h0.097l0.084,0.037l0.014,0.106l0.046,0.019l0.172,-0.13l0.083,0.009l0.024,0.037l0.06,0.024l0.056,-0.014l0.051,0.009l0.046,0.051l0.083,0.033l0.093,-0.005l0.149,0.074v0.074l0.051,0.019l0.083,-0.014l0.088,0.028l0.024,0.046l0.092,0.033h0.075l0.065,0.074l0.069,0.009l0.19,-0.111h0.052l0.023,0.032l0.06,-0.004l0.074,-0.056h0.102l0.283,0.153l0.2,0.042l0.306,0.009l0.13,-0.028l0.135,-0.092l0.092,-0.102l0.177,-0.056l0.111,0.014l0.376,-0.023l0.088,0.037l0.116,0.014l0.056,-0.033l0.218,-0.009l0.181,0.028h0.093l0.083,-0.056l0.278,-0.032l0.079,0.032l0.019,0.06l0.056,0.047l0.097,0.004l0.135,0.116l0.064,0.005l0.042,-0.037l0.093,-0.009l0.07,-0.033l0.097,-0.083l0.158,-0.024l0.158,0.019l0.269,-0.005l0.181,-0.032l0.143,-0.056l0.084,-0.004l0.079,0.023l0.176,0.009l0.158,0.107l0.079,0.167l0.158,0.102h0.083l0.116,0.032l0.093,0.088l0.014,0.116l0.088,0.13l0.167,0.107l0.083,0.098l0.014,0.064l0.042,0.056l0.07,0.019l0.074,0.083l0.074,0.014l0.135,-0.065l0.028,-0.065l0.009,-0.209l0.046,-0.129l0.135,-0.047l0.116,0.019h0.069l0.042,-0.047l0.074,-0.004l0.075,0.018l0.079,-0.032l0.037,-0.102l-0.01,-0.079l0.038,-0.074l0.222,-0.089l0.061,-0.088l0.116,-0.055l0.116,0.004l0.046,-0.042l0.005,-0.06l0.027,-0.046l0.075,-0.023l0.157,-0.311l0.089,-0.061l0.278,-0.014l0.074,-0.078l0.107,0.013l0.06,0.079l0.088,0.065l0.065,-0.009l0.047,-0.084l0.148,-0.004l0.098,0.042l0.069,0.004l0.098,-0.032l0.069,-0.065l0.065,-0.005l0.07,0.019l0.107,-0.033h0.074l0.12,0.065l0.07,0.005l0.065,-0.019l0.093,0.005l0.144,0.037l0.139,-0.019l0.13,-0.296l0.014,-0.135l0.041,-0.06v-0.047l-0.06,-0.055l0.009,-0.098l0.084,-0.111l0.13,-0.084l0.195,-0.204l0.051,-0.158l0.079,-0.083l0.116,-0.042l0.041,-0.046l0.042,-0.107l-0.032,-0.079l0.004,-0.069l0.084,-0.121l0.014,-0.149l-0.14,-0.185l-0.009,-0.079l0.056,-0.097l0.018,-0.232l0.089,-0.116l-0.005,-0.056l-0.079,-0.112l-0.051,-0.306l-0.083,-0.12l-0.121,-0.047l-0.158,-0.26l-0.074,-0.069l-0.037,-0.135l0.004,-0.181l0.098,-0.204l0.018,-0.162l0.051,-0.098l-0.552,-3.257l-0.069,-0.074v-0.097l0.032,-0.065l-0.009,-0.098l-0.074,-0.046v-0.139l0.046,-0.065l0.028,-0.107l-0.033,-0.051l0.014,-0.074l0.047,-0.061l0.037,-0.32l0.056,-0.06l0.013,-0.042l-0.037,-0.046l0.042,-0.098l0.065,-0.051l0.102,-0.278l0.121,-0.098l0.079,-0.004l0.051,-0.056l0.069,-0.209l0.167,-0.116l0.079,-0.158l0.005,-0.078l0.014,-0.079l0.083,-0.084l0.023,-0.069l-0.013,-0.126l0.013,-0.102l0.098,-0.111l0.032,-0.056l-0.004,-0.074l0.028,-0.051l0.06,-0.028l0.195,-0.218l0.028,-0.093l0.199,-0.106l0.2,-0.01l0.083,-0.032l0.028,-0.047l0.213,-0.046l0.093,0.019l0.107,-0.005l0.107,-0.051l0.914,-0.019l1.201,0.061l0.14,-0.172l0.143,-0.046l0.061,-0.107l0.069,-0.047l0.037,-0.088l0.051,-0.041l0.144,0.004l0.223,-0.018l0.042,-0.056l0.055,-0.009l0.028,0.051l0.051,0.028l0.065,0.088l0.065,0.023l1.137,-0.524l0.079,-0.056l0.032,-0.111l0.005,-0.149l0.074,-0.134l0.088,-0.061l0.079,-0.088l0.014,-0.111l0.033,-0.056l0.13,-0.005l0.167,-0.074l0.069,-0.116l0.028,-0.116l0.033,-0.051l0.153,-0.107l0.083,-0.111l0.209,-0.186l0.032,-0.153l-0.023,-0.125l-0.12,-0.227v-0.056l0.037,-0.065l0.009,-0.074l0.042,-0.056l0.292,-0.181l0.033,-0.051l0.004,-0.13l-0.023,-0.06l-0.102,-0.116l-0.074,-0.023l-0.042,-0.033l-0.009,-0.065l-0.042,-0.041l-0.084,-0.033l-0.134,-0.172l-0.074,-0.278l-0.019,-0.302l0.051,-0.171l0.149,-0.149l0.12,-0.055l0.065,-0.033l0.037,-0.065l0.293,-0.148l0.083,-0.126l-0.028,-0.125l0.014,-0.153l0.098,-0.125l0.069,-0.019l0.037,-0.032l-0.004,-0.047l0.102,-0.06l0.134,-0.009l0.218,0.032l0.149,-0.023l0.199,-0.065l0.149,-0.005l0.148,0.075l0.135,0.023h0.093l0.148,-0.088l0.033,-0.065l0.051,-0.037l0.25,0.009l0.065,0.056l0.098,0.041l0.134,-0.018l0.093,0.028l0.051,0.069l0.005,0.061l0.125,0.078l0.12,0.014l0.121,-0.015l0.056,-0.028l0.021,-0.034l0.087,-0.093l0.006,-0.065l0.019,-0.055l-0.009,-0.044l-0.041,-0.031l0.007,-0.058l0.064,-0.062l0.01,-0.105l-0.065,-0.087v-0.105l0.13,-0.211l-0.013,-0.043l-0.08,-0.018l-0.161,0.018l-0.062,-0.015l-0.04,-0.031l-0.056,-0.013l-0.034,0.013l-0.034,-0.003l-0.055,-0.047l-0.186,-0.071l-0.077,0.003l-0.044,0.037l-0.077,0.01l-0.049,-0.022l-0.069,-0.006l-0.064,0.024l-0.059,-0.006l-0.047,-0.046l-0.043,-0.003l-0.04,0.025h-0.05l-0.034,-0.019h-0.052l-0.074,0.025l-0.146,-0.025l-0.056,0.003l-0.046,0.031l-0.09,-0.003l-0.068,-0.065l-0.114,-0.325l-0.059,-0.046l-0.09,-0.013l-0.114,-0.058l-0.053,-0.065l-0.009,-0.041l0.022,-0.027l-0.003,-0.047l-0.056,-0.065l-0.099,-0.043l-0.087,-0.087l-0.006,-0.136l0.031,-0.025l0.053,-0.009l0.055,-0.086l-0.009,-0.106l-0.04,-0.034l-0.003,-0.052l0.046,-0.022l0.009,-0.037l-0.037,-0.062l-0.055,-0.025l-0.059,0.004l-0.034,0.024l-0.043,-0.012l-0.025,-0.059l-0.053,-0.046l-0.114,-0.034l-0.093,-0.01l-0.145,-0.133l-0.075,-0.009l-0.018,-0.031l0.018,-0.055l-0.018,-0.127l0.065,-0.118l0.071,-0.074l-0.009,-0.08l-0.096,-0.069l-0.118,-0.105v-0.043l0.047,-0.037l-0.003,-0.074l-0.059,-0.025l-0.195,-0.05l-0.285,-0.136l-0.089,-0.012l-0.124,0.012l-0.099,-0.009l-0.093,0.019l-0.049,0.061h-0.127l-0.173,-0.04l-0.106,-0.055l-0.077,-0.248l-0.053,-0.046l0.004,-0.044l0.071,-0.058l0.031,-0.081l0.055,-0.031l0.099,-0.006l0.115,-0.096l0.012,-0.08l0.047,-0.05l0.015,-0.055l0.142,-0.084l0.09,-0.083l0.062,-0.022l0.096,0.056l0.046,-0.01l0.074,-0.077l0.084,-0.006l0.052,0.009l0.112,-0.068v-0.059l-0.146,-0.312l0.019,-0.062l0.087,-0.139l0.065,-0.232l-0.028,-0.037l-0.139,0.009l-0.047,0.015l-0.022,0.028h-0.068l-0.037,-0.037l-0.049,-0.025l-0.065,-0.012l-0.152,-0.13l-0.052,-0.003l-0.047,0.015l-0.046,-0.003l-0.04,-0.024l-0.053,-0.003l-0.179,0.046l-0.214,-0.006l-0.021,0.034l0.034,0.071l0.009,0.099l0.068,0.13l-0.043,0.226l-0.121,0.077l-0.015,0.034l0.012,0.053l-0.028,0.037l-0.353,0.188l-0.095,0.109l-0.062,0.151l-0.143,0.149l-0.16,0.117l-0.053,0.003l-0.139,0.093l-0.062,0.136l-0.056,0.04l-0.154,0.053l-0.096,0.068l-0.115,0.022l-0.148,-0.01l-0.078,-0.049h-0.092l-0.217,0.142l-0.049,0.09l0.012,0.136l-0.022,0.077l-0.092,0.127l-0.087,0.047l-0.009,0.037l0.006,0.058l-0.081,0.223l-0.16,0.211l-0.152,-0.09l-0.046,-0.087l-0.003,-0.08l-0.053,-0.09l-0.328,-0.167l-0.08,-0.008l-0.07,0.028h-0.083l-0.135,-0.018l-0.102,0.004l-0.07,0.042l-0.014,0.085l-0.058,0.068l-0.208,0.111l-0.117,0.019l-0.056,-0.019l-0.077,-0.108l0.009,-0.04l-0.022,-0.031l-0.049,-0.028l-0.053,-0.127l-0.037,-0.031v-0.049l0.087,-0.09l0.012,-0.096l-0.136,-0.049l-0.114,-0.003l-0.105,0.015l-0.072,-0.006l-0.293,0.164h-0.056l-0.127,-0.056l-0.019,-0.077l0.022,-0.04l-0.025,-0.019l-0.065,0.006l-0.08,-0.068l-0.049,-0.003l-0.038,0.022h-0.031l-0.037,-0.034l-0.068,-0.006l-0.328,0.089l-0.126,0.072l-0.013,0.052l-0.025,0.006l-0.296,-0.21l-0.038,-0.065l-0.009,-0.114l-0.046,-0.062l-0.124,-0.102l-0.105,0.009l-0.053,0.068l-0.108,0.083l-0.049,0.004l-0.09,-0.022l-0.059,-0.003l-0.059,0.018l-0.182,-0.012l-0.69,-0.328l-0.452,0.39l-0.417,0.015l0.003,-0.034l0.018,-0.031v-0.037l-0.027,-0.021v-0.044l0.034,-0.074v-0.043l-0.078,-0.04l-0.154,0.015l-0.09,-0.009l-0.009,-0.044l0.021,-0.037l-0.012,-0.052l-0.056,-0.084l-0.003,-0.049l0.031,-0.056l-0.003,-0.08l0.031,-0.056l0.003,-0.105l-0.049,-0.071l-0.004,-0.112l0.047,-0.043l-0.006,-0.05l-0.081,-0.098l-0.006,-0.047l0.022,-0.025l-0.003,-0.034l-0.121,-0.077l-0.059,-0.015l-0.052,-0.096h-0.115l-0.018,-0.025l0.003,-0.05l-0.044,-0.077l0.025,-0.093l-0.018,-0.037l-0.059,-0.046l-0.031,-0.065l-0.173,-0.099l-0.007,-0.05l0.028,-0.08l-0.04,-0.118l-0.114,-0.08l-0.062,-0.111l-0.068,-0.078l-0.081,-0.028l-0.161,-0.04l-0.191,-0.123l-0.078,-0.016l-0.018,-0.056l0.021,-0.065l-0.006,-0.074l-0.04,-0.083l0.012,-0.167l0.072,-0.09l-0.007,-0.053l-0.061,-0.021l0.003,-0.059l0.167,-0.111l0.164,-0.05l0.037,-0.046l0.052,-0.013l0.013,-0.034l-0.075,-0.074l-0.012,-0.133l0.034,-0.111l-0.068,-0.09l-0.059,-0.022l-0.071,0.016l-0.077,-0.013l-0.17,-0.061l-0.121,-0.094l-0.065,-0.136l-0.101,-0.018l-0.071,0.047l-0.1,-0.012l-0.101,-0.059l-0.106,0.012l-0.048,0.059l-0.159,-0.012l-0.189,-0.212l0.005,-0.184l-0.047,-0.053l-0.361,0.101l-0.118,-0.06l-0.065,-0.171l-0.207,-0.166l-0.432,-0.236l-0.254,-0.012l-0.207,0.083l-0.29,-0.089l-0.112,-0.171l-0.278,-0.136l-0.136,0.029l-0.16,0.278l-0.088,0.018l-0.077,-0.065h-0.119l-0.041,0.065l-0.071,-0.012l-0.195,-0.154v-0.118l-0.101,-0.089l-0.106,-0.006l-0.225,-0.248l-0.029,-0.148l0.076,-0.337l-0.047,-0.26l-0.13,-0.071l-0.024,-0.113l0.048,-0.1l-0.101,-0.266l-0.089,-0.042l-0.071,-0.207l0.03,-0.124l0.154,-0.094l0.089,-0.314l-0.083,-0.189l-0.148,-0.036l-0.154,0.006l-0.106,-0.106l0.023,-0.083l-0.047,-0.053h-0.089l-0.047,-0.053l0.047,-0.131l-0.106,-0.136l-0.16,-0.029l-0.272,-0.243l-0.018,-0.171l-0.366,-0.373l-0.19,-0.082l-0.23,-0.296l-0.006,-0.148l0.148,-0.213l-0.089,-0.16l-0.331,-0.094l-0.201,-0.207l-0.018,-0.077l-0.089,-0.059h-0.082l-0.054,-0.048l-0.047,-0.177l-0.142,-0.095l-0.615,-0.035l-0.16,-0.047l-0.136,-0.178l0.012,-0.094l-0.142,-0.113l-0.065,-0.136l-0.077,0.012l-0.017,0.059l-0.065,0.012l-0.148,-0.118l-0.065,0.017l-0.006,0.083l-0.089,0.006l-0.047,-0.059l-0.237,-0.041l-0.142,0.077l-0.089,-0.036l0.012,-0.154l-0.1,-0.053l-0.231,0.012l-0.1,-0.03l-0.036,-0.094l0.03,-0.113l-0.059,-0.065l-0.178,-0.017l-0.189,0.118l-0.113,-0.006l-0.088,-0.089l-0.456,-0.023l-0.082,0.1h-0.284l-0.083,0.059l-0.106,-0.012l-0.154,-0.136l-0.231,0.012l-0.089,0.101l-0.047,0.284l-0.378,0.307l-0.272,0.047l-0.101,0.071l-0.136,0.308l-0.065,-0.006l-0.077,-0.071l-0.325,-0.112l-0.113,0.006l-0.029,0.071l-0.101,-0.012l-0.272,-0.166l-0.289,-0.012l-0.154,-0.088l-0.16,0.011l-0.053,0.054l-0.006,0.13l-0.089,0.065v0.083l0.113,0.278l-0.018,0.082l-0.148,0.142l-0.012,0.083l-0.094,0.101l-0.083,-0.006l-0.053,0.059l0.011,0.053l-0.065,0.059l-0.094,-0.012l-0.077,0.054l-0.024,0.071l-0.071,0.035l-0.118,0.006l-0.095,0.065l-0.1,0.112h-0.184l-0.195,0.054l-0.171,-0.03l-0.113,-0.106l-0.408,-0.054l-0.189,-0.124l-0.148,-0.023l-0.201,0.124l-0.041,0.083h-0.095l-0.095,-0.101h-0.177l-0.083,0.16l-0.142,0.088l-0.272,0.012l-0.053,0.053l-0.047,-0.023l0.023,-0.077l-0.088,-0.042l-0.538,-0.035l-0.095,-0.053l-0.012,-0.065l-0.053,-0.036l-0.095,0.018l-0.059,-0.024l-0.071,-0.1l-0.124,-0.03l-0.065,0.042l-0.089,-0.012l-0.089,-0.059l-0.36,-0.036l-0.148,-0.071l-0.58,0.243l-0.041,-0.136l-0.006,-0.225l-0.071,-0.024l-0.154,0.343l-0.183,0.16l-0.946,0.166l-0.355,-0.089l-0.018,-0.065l-0.083,-0.018l-0.082,0.071l-0.326,-0.024l0.065,-0.378l0.16,-0.201l-0.089,-0.148l-0.006,-0.16l-0.23,-0.017l-0.012,-0.077h-0.083l0.012,-0.077l0.124,-0.089v-0.171l-0.053,-0.006l-0.006,-0.142l-0.142,-0.012l-0.006,-0.355l-0.798,-0.006l-0.166,0.101l-0.195,-0.006l-0.219,0.106l-0.077,-0.006l-0.065,-0.059l-0.059,-0.006l-0.112,0.071l-0.592,0.012l0.03,-0.136l0.183,-0.526l0.054,-0.29l0.088,-0.024l0.16,-0.112l0.083,-0.13l0.13,-0.414l-0.053,-0.065l0.005,-0.048l0.077,-0.041l-0.017,-0.189l-0.06,-0.012l-0.124,-0.225l-0.189,0.006l-0.106,0.254l-0.361,-0.011v-0.071l-0.816,-0.237l0.112,-0.337h-0.183l-0.314,-0.136l-1.2,-0.355l-0.284,0.455l-0.024,0.468l-0.538,0.012l-0.361,0.023l-0.319,-0.041l-0.095,0.473l0.018,0.278l0.13,0.018v0.065l0.178,0.006l0.011,1.165l-0.082,0.065l-0.201,0.029l-0.125,-0.023l-0.283,0.278l-0.349,0.005v0.089l-0.515,0.006l-0.012,0.142h-0.331l0.006,0.378l-0.053,0.042l-0.012,0.189l-0.651,-0.012l-0.005,-0.195l-0.083,-0.006l-0.059,0.071l-0.012,0.231l0.071,0.39l0.088,0.266l-0.042,0.007l-5.823,-9.991l-8.783,-12.536l-3.247,-2.348l-5.701,-3.953l-0.056,-0.154l-0.166,-0.133l-0.041,-0.361l-0.408,-0.455l0.029,-0.402l0.92,0.156l0.21,-0.115l0.029,0.018l-0.003,0.068l0.175,0.245l0.168,-0.065l0.148,-0.124l0.414,-0.145l-0.05,-0.186l0.242,-0.127l0.151,-0.178l0.127,-0.071l0.045,-0.352l-0.033,-0.1l0.222,-0.107l0.041,-0.106l0.06,-0.033l-0.131,-0.535l-0.257,-0.065l-0.201,0.065l-0.044,-0.154l0.588,-0.186l0.024,-0.047l0.387,-0.11l0.101,-0.002l0.012,-0.024l-0.092,-0.056l-0.012,-0.042l0.024,-0.077l-0.074,-0.183l-0.535,0.157l-0.128,0.103l-0.195,0.086l-0.434,0.021l-0.006,0.136l-0.246,0.245l-0.112,0.272l-0.195,0.08l-0.24,0.006l-0.053,-0.059l-0.047,-0.009l-0.119,0.032l-0.189,0.107l-0.458,0.083l-0.828,-0.142l-0.597,-0.219l-0.184,0.319l-0.29,0.195l0.272,0.237l-0.165,0.148l-3.947,1.443l-0.457,-0.134l-0.994,0.406l0.379,0.548l0.043,0.008l-0.012,0.315l-0.181,0.012l-0.008,0.103l-0.232,0.007l-0.335,0.174l-0.359,0.256l-0.339,0.324l-1.002,0.666l-0.063,0.106l-0.118,-0.047l-0.016,-0.043l-0.248,-0.083l-0.048,-0.095l-0.626,-0.02l-0.142,0.056l-0.489,-0.091l-0.209,0.745l-0.58,-0.094l-0.225,0.772l-1.155,-0.197l-0.236,0.856l0.181,0.043l-0.004,0.071l0.237,0.039l0.019,0.056l-0.185,0.236l-0.422,0.753l-0.075,0.016l-0.591,-0.311l0.075,-0.209l-0.229,-0.064l0.118,-0.319l-0.335,-0.083l0.044,-0.165l-0.517,-0.122l-0.114,0.406l-0.619,-0.091l0.13,-0.564l-1.116,-0.193l-0.516,0.635l-0.485,-0.249l-0.532,-0.043l-0.142,0.532l-0.32,-0.047l-0.098,0.343l-0.919,0.745l-0.497,-0.296l0.158,-0.165l0.071,-0.3l-0.343,-0.106v-0.083l-0.698,-0.217l0.055,-0.201l0.19,-0.438l-0.146,-0.027l-0.008,-0.288l0.441,-0.02l0.233,-0.796l-0.083,-0.17l0.012,-0.043l0.331,-0.036l0.327,-0.126l-0.11,-0.134l-0.004,-0.244l0.154,-0.237l0.84,0.071l0.721,0.111l0.497,-1.775l-0.434,0.036l0.02,-0.146l-0.485,-0.035l0.17,0.201l-0.3,0.339l-0.138,-0.004l-0.032,-0.044l-0.421,0.095l0.007,0.355l0.111,0.122l-0.118,0.106l-0.119,-0.007l-0.295,-0.229l-0.34,-0.114l-0.011,0.295l-0.82,0.016l0.004,-0.095l-0.19,-0.023l-0.359,-0.115l-0.824,-0.138l0.028,-0.402l-0.091,-0.023l0.004,-0.075l-0.512,-0.083l0.087,-0.43l-1.053,-0.012l-0.047,-0.201l-0.73,-0.027l-0.678,-0.111l0.012,0.126l-0.335,0.06l-0.182,0.646l0.217,0.036l0.036,-0.083l0.701,0.051l0.257,0.394l-0.024,0.229l0.008,0.205l-0.264,-0.027l-0.54,-0.162l-0.312,-0.051l-0.386,0.697l-0.375,-0.11l-0.386,-0.288l0.311,-0.469l0.107,-0.434l-0.241,-0.063l0.067,-0.224l-0.244,-0.056l0.063,-0.216l0.343,0.039l0.051,-0.142l0.328,0.059l0.003,0.047l0.138,0.028l0.036,-0.051l-0.055,-0.264l-0.607,-0.103l-0.497,-0.268l-0.256,-0.051l0.256,-0.54l-0.304,-0.04l0.059,-0.382l-0.165,-0.233l-0.205,-0.098l-0.343,-0.253l-0.052,0.016l-0.989,-0.102l0.106,0.244l-0.047,0.095l0.024,0.023l0.094,-0.055l0.107,-0.004l0.094,0.059l0.02,0.123l0.268,0.07l-0.02,0.265l-0.102,-0.02l-0.209,0.528l0.331,0.091l0.544,0.248l-0.232,0.544l-0.537,-0.24l0.099,-0.233l-0.327,-0.09l0.047,-0.138l-0.812,-0.391l-0.079,0.115l-0.327,-0.02l-0.875,-0.201l-0.174,0.611l0.091,0.177l0.154,0.178l-0.3,0.362l-0.296,-0.031l-0.016,0.106l-0.366,-0.011l-0.032,-0.138l-0.784,0.134l0.011,-0.517l-0.697,-0.083l0.011,-0.122l-0.591,-0.024l-0.138,0.328l-0.631,0.461l-0.362,-0.3l0.09,-0.284l-0.209,-0.055l0.052,-0.181l-0.379,-0.04l0.016,-0.122h0.083l0.007,-0.631l-0.484,-0.015l-0.002,-0.538l0.751,0.015l-0.006,0.11l0.567,0.085l0.054,-0.186l-0.054,-0.009l0.012,-0.177l0.192,-0.012l0.015,-0.461l-0.201,-0.018l0.012,-0.476l-0.207,-0.009l0.015,-0.68l-0.03,-0.228l0.163,-0.358l0.145,-0.082l0.502,0.032l0.006,-0.559l-0.349,-0.017l-0.008,-0.157l-0.182,-0.024v-0.091l-0.729,-0.016l-0.036,-0.048l0.024,-0.067l-0.173,-0.181l-0.032,-0.142l-0.237,-0.272l-0.031,-0.177l-0.083,-0.087l0.016,-0.095l0.059,-0.098l-0.024,-0.201l-0.106,-0.028l-0.162,-0.118l-0.012,-0.118l-0.114,-0.064l-0.004,-0.055l0.213,-0.295l0.103,-0.343v-0.091l-0.174,-0.059v-0.055l0.099,-0.048l0.004,-0.055l-0.044,-0.028l0.008,-0.059l0.091,-0.075l0.004,-0.374l-0.111,-0.012l0.032,-0.177l0.162,-0.107l-0.639,-0.418l0.035,-0.335l-0.284,-0.138l-0.524,-0.836l0.114,-0.075l-0.071,-0.118l-0.11,0.032l-0.635,-0.008l-0.465,0.327l-0.95,-0.177l-0.012,-0.079l-0.114,-0.036l-0.308,0.284l-0.055,0.375l-0.725,0.189l-0.399,0.434l-0.181,0.004l-0.146,-0.111l-0.303,-0.122l-0.099,0.004l-0.201,-0.114l-0.209,-0.253l-0.718,-0.008l-0.232,-0.272l-0.339,-0.556l-0.509,-0.224l-0.063,-0.111l-0.209,-0.019l-0.02,-0.071l-0.209,-0.052l-1.044,0.012l-0.087,0.122l-0.592,-0.047l-0.019,-0.063l-0.237,-0.008l-0.063,-0.055l0.103,-0.118l-0.004,-0.138l-0.103,-0.036l-0.079,0.036l-0.157,-0.02l-0.087,0.027l-0.087,0.166l-0.122,0.118l-0.595,0.13l-0.138,0.052l-0.103,-0.004l-0.229,-0.521l-0.745,-0.351l-0.311,0.02l-0.134,-0.004l-0.02,-0.134l-0.307,0.008l-0.048,0.256l-0.047,0.075l-0.028,0.343l0.45,0.012l0.012,0.264l0.114,0.079l-0.008,0.367l-0.126,0.016l-0.154,-0.363l-0.185,0.059l-0.402,-0.201l-0.146,-0.028l-0.229,-0.165l-0.438,-0.138l-0.228,0.252l0.063,0.091l-0.008,0.114l-0.11,0.024l-0.028,0.082l0.059,0.071l-0.067,0.17l-0.15,0.11l-0.268,0.119v0.205l0.146,0.063l-0.138,0.292l-0.095,0.047l-0.138,-0.02l-0.043,-0.162l-0.244,0.024v0.067l-0.745,0.111l-0.525,-0.091l-0.063,0.035l-0.028,0.194l-0.141,0.011l-0.095,-0.063l-0.099,-0.157l-0.122,-0.012l-0.331,0.161l-0.375,-0.102l-0.008,0.197l0.206,0.012l0.055,0.197l-0.17,0.043l0.288,0.3l0.122,-0.008l0.04,0.032l-0.016,0.122l0.098,0.146l0.103,0.051l0.063,-0.016l0.126,0.063l-0.016,0.067l-0.421,0.079l-0.071,0.083v0.307l-0.253,0.178l-0.012,0.071l0.229,0.118l0.004,0.067l-1.329,0.158l-0.828,-0.3l-0.583,0.119l-0.134,0.295l-0.004,0.126l-0.174,0.355l-0.481,0.118l-0.071,0.079l-0.315,-0.011l-0.485,0.193l-0.11,-0.008l-0.189,-0.146l-0.202,-0.02l-0.074,0.044l-0.083,-0.004l-0.04,-0.048l-0.102,0.004l-0.268,0.067h-0.123l-0.201,-0.063l-0.153,-0.083l-0.075,-0.004l-0.237,0.087l-0.075,0.343l-0.362,0.103l-0.663,0.059l-0.122,-0.051h-0.083l-0.134,0.082l-0.012,0.115l-0.157,0.118l-0.091,0.008l-0.276,-0.11l-1.4,0.197l-0.315,0.252l-0.245,0.02l-0.11,-0.055h-0.221l-1.798,0.366l-2.491,0.71l-0.245,-0.118l0.107,-0.702l-0.899,0.177l-0.087,0.379l-0.221,0.26h-0.098l-0.04,0.055l0.004,0.075l-0.217,0.028l-0.725,-0.296l-0.158,-0.004l-0.083,0.039l-0.358,-0.015l-0.146,-0.123l-0.237,-0.027l-0.189,0.173l-0.02,0.134l0.237,0.213l0.008,0.166l0.051,0.047l-0.012,0.04l-0.134,0.039l-0.098,-0.008l-0.206,-0.122l-0.106,-0.004l-0.181,0.059h-0.095l-0.031,-0.039l-0.111,-0.004l-0.146,0.071l-0.201,0.035l-0.217,0.17l-0.079,0.008l-0.141,-0.028l-0.127,0.067l-0.039,0.114l0.071,0.328l-0.059,0.193l-0.083,0.051l-0.004,0.134l0.154,0.142l0.087,0.536l0.169,0.13l-0.28,0.233l-0.169,-0.063h-0.146l-0.331,0.106l-0.154,-0.059l-0.205,-0.284l-0.548,-0.394l-0.055,-0.079l-0.075,-0.012l-0.249,0.095l-0.138,0.106l-0.41,0.131l-0.24,0.141l-0.398,0.127h-0.135l-0.189,-0.079h-0.086l-0.107,0.031l-0.114,-0.015l-0.142,-0.107l-0.079,-0.177l-0.103,0.011l-0.09,0.166l-0.182,0.103l-0.303,0.067l-0.26,-0.087l-0.115,0.071l-0.063,0.193l-0.154,0.067l-0.201,0.004l-0.153,-0.079l-0.178,-0.008l-0.098,0.063l-0.442,0.028l-0.185,0.087l-0.075,-0.004l-0.028,-0.044l-0.102,0.008l-0.158,0.122l-0.544,-0.007l-0.154,-0.075l-0.071,0.027l-0.012,0.134l-0.181,0.138l-0.142,-0.008l-0.043,-0.059l0.067,-0.079l-0.036,-0.051l-0.228,0.071l-0.048,0.182l0.292,0.382l-0.02,0.134l-0.205,0.17l-0.15,0.011l-0.047,-0.031l-0.158,0.004l-0.106,0.043l-0.051,-0.004l-0.091,-0.154l-0.583,-0.453l-0.111,-0.016l-0.374,0.075l-0.584,0.178l-0.276,0.149l-0.469,0.123l-0.047,-0.036l-0.056,0.016l-0.015,0.047l-0.107,0.028l-0.071,-0.075l-0.067,0.008l-0.043,0.09l-0.201,0.067l-0.055,-0.023l-0.213,0.023l-0.056,0.075l-0.074,0.008l-0.075,-0.051l-0.059,0.004l-0.016,0.039l-0.091,-0.004l-0.077,-0.056l-0.081,-0.058l-0.082,0.004l-0.064,0.028l-0.197,0.004l-0.09,0.051h-0.119l-0.055,-0.04h-0.102l-0.063,0.067l-0.17,0.012l-0.083,-0.055l-0.126,0.012l-0.063,0.083l-0.008,0.165l0.107,0.115l-0.004,0.055l-0.067,0.035l-0.016,0.063l0.027,0.067l-0.07,0.048l-0.107,-0.004l-0.146,0.039l-0.248,0.142l-0.182,0.016l-0.161,-0.067l-0.087,-0.004l-0.055,0.039l-0.075,-0.007l-0.055,-0.04h-0.052l-0.031,0.028l-0.067,-0.004l-0.079,-0.059l-0.331,-0.004l-0.103,-0.032l-0.311,0.032l-0.193,0.055l-0.15,0.122l-0.386,0.036l-0.075,-0.036l-0.127,-0.004l-0.197,0.043l-0.303,0.162l-0.119,-0.008l-0.051,0.036l-0.008,0.067l-0.051,0.031l-0.087,0.004l-0.031,0.111l0.067,0.082l0.035,0.229l0.107,0.154l-0.008,0.098l-0.047,0.036l-0.075,0.209l-0.056,0.016l-0.067,0.075l0.012,0.082l-0.079,0.075h-0.075l-0.098,0.075l-0.028,0.083h-0.079l-0.201,-0.15l-0.051,0.004l-0.031,0.036l-0.134,-0.004l-0.036,-0.123l-0.292,-0.575l0.399,-0.087l0.236,-0.181l-0.469,-0.142l-0.213,-0.004l-0.059,0.047l-0.201,0.04l-0.055,0.051h-0.28l-0.075,-0.028l-0.379,0.012l-0.059,-0.039l-0.075,0.007l-0.059,0.071l-0.221,0.012l-0.004,-0.055l-0.047,-0.02l-0.059,0.02l-0.296,-0.095l-0.047,0.024l-0.075,-0.004l-0.035,-0.063l-0.087,0.004l-0.028,0.11l-0.209,0.028l-0.157,-0.051l-0.064,0.035l0.265,0.797l-0.714,-0.004l-0.075,-0.048l-0.426,-0.051l-0.031,-0.039l0.086,-0.103l0.142,-0.28l-0.063,-0.063l-0.118,-0.008l-0.075,0.059l-0.047,-0.023l0.043,-0.15l-0.055,-0.035l-0.126,0.055l-0.26,0.339l-0.06,0.008l-0.22,-0.123l-0.028,-0.134l-0.067,-0.098l-0.051,-0.016l-0.103,0.075l-0.256,0.008l-0.02,-0.075l-0.059,-0.012l-0.28,0.347l0.012,0.095l-0.039,0.11l-0.253,-0.004l-0.047,-0.351l-0.091,-0.016l-0.027,-0.051l-0.387,-0.118l-0.047,-0.051v-0.166l-0.063,-0.154l0.055,-0.067l-0.027,-0.071l-0.363,0.004l-0.095,-0.043l-0.244,0.02l-0.059,0.086l-0.095,0.012l-0.075,-0.051l-0.102,0.004l-0.194,0.071l-0.161,0.26l-0.142,0.039l-0.024,0.103l0.178,0.327l-0.052,0.245l0.107,0.331l-0.505,0.067l-0.221,-0.217l0.052,-0.201l-0.012,-0.043l-0.442,-0.032l-0.075,0.051l-0.102,-0.012l-0.036,0.02l0.063,0.103l-0.055,0.106l-0.102,0.004l-0.063,-0.11h-0.134l-0.253,0.224l-0.012,0.225l0.268,-0.004l0.154,0.126l0.517,-0.082l0.284,0.453l0.185,0.051l0.031,0.067l0.162,-0.008l-0.055,0.418l-0.17,0.126l-0.224,0.091l-0.347,0.461l-0.383,0.004l-0.114,0.608l-0.292,0.007l-0.02,-0.181l-0.654,0.047l0.024,0.355l1.474,0.122l0.036,0.225l0.248,0.134l0.323,0.099l0.383,-0.02l0.461,0.059l0.13,-0.027l0.221,-0.355l0.753,0.063l0.075,0.039l0.236,-0.004l0.099,0.462h0.091l0.106,0.126l-0.189,0.114l-0.02,0.059l0.047,0.048l-0.055,0.039l-0.086,-0.083l-0.127,0.016l-0.102,0.114l0.027,0.15l-0.039,0.028l-0.142,-0.024l-0.091,0.016l-0.09,0.083l-0.079,-0.048l-0.15,0.044l-0.031,0.067l-0.383,-0.103l0.004,-0.102l-0.075,-0.142l-0.264,-0.111l0.008,-0.067l-0.036,-0.035l-0.374,0.087l-0.205,0.224l-0.051,0.257l0.027,0.102l-0.118,0.15l-0.335,0.197l0.161,0.856l0.3,0.24l0.785,-0.004l0.386,0.095l0.363,0.307l0.489,0.213l0.674,-0.067l0.063,-0.244l0.158,-0.13h0.082l0.217,0.149l0.083,0.02l0.099,0.083l0.098,0.272l0.221,0.197l0.895,0.375l0.753,0.015l0.587,0.253l0.19,0.39l-0.095,0.698l-0.666,0.343l-0.481,0.004l-0.718,-0.446l-0.055,0.004l-0.036,0.071l-0.102,0.004l-0.075,-0.047l-0.374,0.008l-0.099,0.039l-0.193,-0.004l-0.044,-0.039l-0.051,0.008l-0.169,0.26l-0.123,0.012l-0.114,0.09h-0.051l-0.458,-0.484l-0.287,-0.071l-0.127,-0.103l-0.197,-0.059l-0.5,0.394l-0.588,-0.043l-0.382,-0.335l-0.13,0.079l-0.107,-0.008l-0.102,0.051l-0.036,0.075l-0.169,0.102l-0.107,0.008l-0.197,0.126l-0.075,0.154l-0.122,0.008l-0.075,-0.063l-0.154,-0.059l-0.11,-0.004l-0.071,0.035l-0.107,-0.008l-0.039,0.04l0.15,0.229l0.28,0.185l-0.024,0.055l-0.11,0.02l-0.063,0.051l-0.048,0.079l-0.236,0.142l-0.115,0.016l-0.059,0.082l-0.027,0.103l-0.182,0.162l-0.11,0.007l-0.248,0.131l-0.099,-0.012l-0.024,0.031l0.087,0.083l-0.327,0.402l-0.17,0.012l-0.469,0.114l-0.091,-0.004l-0.094,-0.027l0.016,0.891l0.193,0.126l0.012,0.142l0.134,0.063l0.059,-0.032l0.244,-0.015l0.115,-0.055l0.098,-0.004l-0.012,1.021l0.943,0.13l0.063,0.745l0.504,0.654l-0.216,0.158l-0.115,0.004l-0.055,0.051l-0.016,0.071l-0.043,0.04l-0.063,0.019l-0.059,0.052l-0.024,0.153l-0.181,0.178l-0.359,0.169l-0.201,0.063l-0.28,0.15l-0.276,-0.008l-0.059,0.036l-0.119,0.276l-0.209,0.205l-0.074,0.154l-1.353,-0.012l-1.108,0.907l-0.942,0.579l-1.279,-0.014l-0.006,0.178l-0.053,0.065l0.088,0.219l0.13,0.041l0.012,0.189l0.284,0.249l-0.089,0.142l0.533,0.023l0.041,0.071l0.077,-0.006l-0.018,-0.278l-0.083,-0.029l-0.017,-0.077l0.041,-0.024l1.106,0.663l0.733,0.301h0.58v0.219l-0.254,0.059l-0.107,0.113l-0.071,0.177l-0.154,0.154l-0.473,0.266l0.042,0.095l0.136,0.029l0.224,0.237l0.716,0.088l0.083,0.166l2.602,0.041l0.012,0.113l-0.154,0.295l-0.006,0.148l0.118,0.189l0.095,0.071l0.089,0.261l0.094,0.041l0.048,-0.024l0.1,0.042l0.047,0.136l0.136,0.059l0.414,-0.024l0.101,0.042l0.041,0.112l0.054,0.006l0.082,-0.053l0.16,0.023l0.071,-0.035l0.278,-0.024l0.118,0.083l0.107,-0.006l0.112,0.065l0.278,0.053l0.136,-0.059l0.237,0.03l0.076,0.112l0.077,0.024l0.036,-0.053l0.071,0.029l0.006,0.065l0.094,0.036l0.077,-0.048l0.095,0.012l0.077,0.095l0.112,0.018l0.077,-0.036l0.195,0.024l0.32,0.763l0.91,0.585l-0.792,0.154l-0.538,2.437l-0.249,1.348l-4.234,1.307l-0.402,-0.101h-0.402l-0.361,0.059l-0.497,0.006l-0.467,-0.053l-0.136,0.018l-0.899,-0.047l-0.946,-0.947l0.224,-0.295l-0.177,-0.225l-0.278,-0.024l-0.083,0.095l-0.437,0.077l-0.355,-0.018l-0.278,0.473l0.148,0.816l-0.568,0.331l-0.296,0.29l-0.337,0.586l-0.23,-0.036l-1.106,0.089l-0.651,0.302l0.024,-0.278l-0.337,-0.113l-0.036,-0.071l0.059,-0.159l-0.029,-0.077l0.017,-0.071l0.657,0.077l0.012,-0.077l-0.207,-0.201l-0.225,-0.059l-0.154,-0.231l-0.183,-0.042l-0.095,0.06l-0.159,0.017l-0.746,-0.136l-0.13,0.154l-0.284,-0.248l-0.183,-0.024l-0.106,-0.059l-0.207,0.035l-0.314,-0.118l-0.165,0.042l-0.284,-0.101l-0.107,0.012l-0.301,-0.042l-0.603,-0.047l-0.16,-0.095l-0.118,-0.189l0.023,-0.106l-0.023,-0.101l-0.142,-0.136l-0.083,-0.012l-0.266,-0.384l-0.769,0.047l0.053,-0.272l0.195,-0.053l-0.053,-0.331l-0.325,0.024l-0.201,0.1l-0.095,-0.006l-0.094,-0.585l0.165,-0.071l-0.065,-0.225l0.308,-0.142l-0.184,-0.349l0.036,-0.035l-0.024,-0.136l-0.248,-0.065l-0.379,-0.267l-0.225,-0.047l-0.047,0.071l-0.603,0.053l-0.071,-0.059l-0.047,-0.242l-0.071,-0.113l-0.071,-0.023l-0.042,-0.065v-0.119l-0.088,-0.118h-0.06l-0.035,0.071l-0.106,0.006l-0.036,-0.041l-0.071,0.017l-0.029,0.065l-0.113,0.042l-0.077,-0.03l-0.053,0.036l-0.006,0.059l-0.047,0.035l-0.148,0.006l-0.036,0.071l0.101,0.13l-0.077,0.166l-0.195,0.029l-0.03,0.06l0.036,0.088l-0.059,0.048l-0.491,-0.089l-0.083,-0.107l0.041,-0.088l0.03,-0.124l-0.077,-0.101h-0.094l-0.012,0.071l-0.071,0.035l-0.089,-0.011l-0.065,0.029l-0.059,0.113l-0.101,0.023l-0.088,-0.029l-0.296,0.059l-0.089,-0.048l-0.071,-0.165l-0.094,-0.036l-0.125,0.036l-0.041,0.094l-0.101,0.018l-0.076,-0.041l-0.006,-0.053l-0.059,-0.03l-0.077,0.024l-0.071,-0.054l-0.018,-0.1l-0.124,-0.095l-0.148,-0.006l-0.071,0.042l-0.106,0.668l0.011,0.798l-0.029,0.255l0.065,0.148l-0.047,0.029l-0.101,-0.023l-0.041,-0.048l-0.201,0.03l-0.048,0.047h-0.059l-0.012,-0.089l-0.834,-0.059l-0.236,0.189l-0.006,0.125l-0.053,0.159l-0.059,0.042l-0.184,-0.018l-0.39,-0.136l-0.042,-0.077l-0.555,-0.361v-0.088l-0.077,-0.201l0.012,-0.06l-0.036,-0.082l-0.083,-0.024l-0.071,-0.219l0.024,-0.083l-0.041,-0.059l-0.213,0.083l-0.101,-0.012l-0.095,-0.071l-0.005,-0.047l0.071,-0.03v-0.047l-0.172,-0.189l-0.112,-0.231l-0.012,-0.118l-0.065,-0.024l-0.225,0.142l0.006,0.101l-0.574,0.159l-0.485,0.048l-0.278,-0.195l-0.372,0.218l-0.172,-0.118l-0.467,-0.16l-0.089,0.006l-0.278,0.13l-0.165,-0.011l-0.065,0.035l0.343,0.822l-0.16,0.03l-0.065,0.071l-0.083,-0.024l0.006,-0.077l-0.183,-0.047l-0.373,-0.018l-0.017,-0.071l-0.284,-0.331l-0.231,-0.112l-0.112,-0.225l-0.083,-0.077l-0.396,0.213l0.053,0.816l-0.124,0.018l-0.107,-0.042l-0.29,0.018l-0.029,0.142l0.106,0.041l-0.189,0.379l-0.414,-0.018l-0.231,-0.053l-0.555,-0.249l-0.024,0.296l-0.124,0.201l-0.148,0.414l-0.065,0.414l0.083,0.284l-0.533,0.509l-0.307,0.195l-0.16,0.035l-0.455,0.231l-0.077,0.16l-0.059,0.017l-0.178,-0.041l-0.272,0.035l-0.071,0.089l-0.147,0.042l-0.101,0.165l-0.213,0.065l-0.071,0.113l0.006,0.136h-0.177v-0.042l-0.296,-0.035l-0.284,-0.172l-0.077,-0.165l-0.189,-0.054l-0.13,0.018l-0.178,-0.1l-0.006,-0.29l-0.212,-0.195l-0.639,-0.089l-0.036,0.118l-0.106,0.107l-1.555,-1.248l-0.58,-0.183l0.467,-0.527l-0.029,-0.059l0.053,-0.065l-0.012,-0.059l-0.148,-0.024l-0.225,-0.177l-0.189,0.018l-0.201,0.147l-0.384,-0.011l-0.402,-0.125l0.041,-0.148l-0.101,-0.053l0.048,-0.13l-0.385,-0.171l-0.319,-0.083l-0.278,-0.231l-0.071,-0.154l-0.201,-0.065l-0.059,0.042l0.047,0.106l-0.1,0.053l-0.125,-0.053l-0.348,0.018l-0.131,-0.053l-0.088,0.041l0.017,0.095l-0.082,0.047l-0.119,-0.012l-0.017,0.071l0.13,0.172l0.023,0.219l0.095,0.094l-0.035,0.059l-0.148,0.03l-0.166,-0.024l-0.029,0.065l0.224,0.107l0.308,-0.053l0.219,0.041l0.1,-0.018l0.089,0.042l0.012,0.088l0.147,0.128l-0.124,0.514l-0.136,0.099l0.173,0.365l-0.037,0.532l0.099,0.117l0.13,0.106l0.025,0.08l-0.025,0.093l0.074,0.247l-0.012,0.099l0.05,0.167l-0.106,0.136l-0.204,0.081l-0.445,0.414l-0.062,-0.006l-0.068,-0.13l-0.074,-0.012l-0.093,0.055l-0.149,0.205h-0.061l-0.502,-0.341l-0.315,-0.439l0.142,-0.353l0.037,-0.253l0.118,-0.34l0.031,-0.235l0.062,-0.242l0.235,-0.204l0.111,-0.186l-0.037,-0.185l-0.068,-0.056l-0.328,0.006l-0.074,-0.024l-0.043,-0.186l-0.081,-0.025l-0.093,0.031l-0.377,-0.074l-0.149,-0.155l-0.204,-0.031l-0.024,0.081h-0.068l-0.069,-0.167l0.031,-0.105v-0.18l-0.08,-0.055l-0.266,0.006l-0.26,-0.112l-0.012,-0.08l0.055,-0.062l-0.006,-0.068l-0.13,-0.043l-0.086,-0.143l0.043,-0.117l0.093,-0.019l0.031,-0.049l-0.223,-0.229l-0.111,0.006l-0.044,-0.049l0.087,-0.161l-0.08,-0.192l-0.205,-0.13l-0.111,0.006l-0.309,-0.154l-0.013,-0.068l0.087,-0.056l-0.012,-0.056l-0.359,-0.117l-0.105,0.012l-0.093,-0.031l-0.037,-0.099l-0.272,-0.086l-0.118,0.08l-0.074,-0.012l-0.037,-0.093l-0.118,-0.031l-0.142,0.062l-0.161,-0.056l-0.006,-0.074l-0.143,-0.074l-0.173,0.006l-0.123,0.086l-0.075,-0.024l-0.062,-0.081l-0.222,-0.124l-0.161,0.007l-0.093,-0.062l0.012,-0.192l-0.105,-0.148l-0.13,-0.013l-0.13,-0.136l-0.024,-0.161l0.136,-0.229l-0.037,-0.111l-0.118,-0.043l-0.006,-0.075l0.074,-0.074l0.105,0.013l0.05,-0.056l-0.081,-0.198l-0.105,-0.006l-0.136,-0.118l-0.068,-0.006l-0.043,-0.043l0.031,-0.093l-0.056,-0.043l-0.105,0.043l-0.272,-0.043l-0.118,-0.05l-0.006,-0.105l-0.062,-0.031l-0.124,0.118l-0.117,-0.031l-0.043,-0.266l-0.186,-0.13l-0.359,-0.044l-0.148,-0.049l-0.223,-0.006l-0.093,0.105l-0.111,-0.037l-0.05,-0.149l-0.173,-0.043l-0.204,0.049l-0.08,-0.055l0.024,-0.142l-0.055,-0.056l-0.229,0.13l-0.044,0.074l0.112,0.173l-0.068,0.068l-0.353,-0.043l-0.087,-0.093l-0.123,0.006l-0.204,0.174l-0.291,0.055l-0.112,-0.043l-0.111,0.074l-0.018,0.118l-0.099,-0.019l-0.025,-0.192l-0.062,-0.111l-0.087,0.006l-0.024,0.13l-0.093,-0.006l-0.062,-0.05l0.087,-0.129l-0.069,-0.056l-0.167,0.117l-0.074,-0.006l-0.043,-0.062l-0.093,-0.006l-0.093,0.037l-0.191,-0.074l-0.069,-0.093h-0.08l-0.018,0.161l-0.069,0.019l-0.068,-0.031l-0.074,0.018l-0.056,0.093l-0.117,0.068l-0.105,-0.018l-0.081,0.037l0.013,0.055l0.068,0.007l0.031,0.068l-0.056,0.037l-0.136,-0.124l0.012,-0.142l-0.068,-0.025l-0.062,0.118v0.098l-0.074,0.007l-0.049,-0.087h-0.068l-0.013,0.087l0.068,0.037l-0.031,0.055h-0.191l-0.031,-0.055l0.068,-0.056v-0.086l-0.087,-0.007l-0.099,0.13v0.074l-0.056,0.007l-0.111,-0.093l-0.006,-0.081l0.08,-0.049v-0.105l-0.29,-0.13l-0.025,-0.111l0.037,-0.056l-0.006,-0.155l-0.087,-0.062l-0.297,-0.662l-0.111,-0.061l-0.142,-0.112l-0.18,-0.359l-0.056,-0.303l0.025,-0.055l-0.111,-0.44l-0.062,-0.037l-0.217,0.081l-0.012,0.061l0.081,0.062v0.099l-0.607,0.143l-0.062,-0.081l-0.303,0.025l-0.049,0.099l0.006,0.303l-0.056,0.025l-0.074,-0.025l-0.439,0.241l-0.136,-0.111l-0.161,0.049l-0.285,-0.012l-0.024,-0.13h-0.681l-0.012,0.068l-0.211,0.025l0.013,0.136l-0.037,0.074l-0.124,0.019l-0.353,0.346l-0.006,0.087l0.074,0.012l-0.012,0.068l-0.149,0.056l0.254,0.77l-0.52,0.149l0.038,0.12l-0.52,0.14l-0.093,-0.214l-0.093,-0.018l0.084,-0.223l0.093,-0.028l-0.13,-0.297l-0.14,0.046l-0.083,-0.139l-0.176,0.037l0.037,0.149l-0.177,0.046l0.038,0.167l-0.464,0.139l-0.14,-0.009l-0.269,0.121l-0.297,-0.019l-0.046,-0.074l-0.566,-0.028l-0.056,-0.334h-0.213l-0.037,-0.315l0.881,-0.01l0.028,-0.686l-0.51,-0.019l-0.195,-0.334l-0.13,-0.056l-0.269,0.037l-0.084,0.13h-0.111l-0.149,-0.083h-0.259l-0.14,0.065l-0.157,-0.009l-0.13,-0.093l-0.167,-0.037l-0.102,0.092h-0.149l-0.167,-0.055l-0.492,-0.019l-0.148,-0.622l-0.668,-0.176l-0.028,0.51l0.13,0.288l0.158,0.112l0.12,0.167l-0.102,0.009l-0.009,0.566l-0.297,0.018l-0.009,0.084l-0.539,-0.009v-0.084l0.344,-0.204l-0.065,-0.176l-0.576,-0.019l-0.018,-0.111l-0.093,-0.065l-0.241,0.037v0.492l-0.093,0.009l-0.074,-0.093h-0.074l-0.084,0.102l0.028,0.715l0.083,0.158l0.01,0.13l-0.084,0.092h-0.278l-0.028,0.344l-0.752,-0.019l-0.04,0.071l0.186,0.149l-0.421,0.185l0.235,0.446l-0.878,0.47l-1.51,0.322l-0.223,0.136l-0.47,0.247l-0.841,0.814l-1.513,-0.019l-0.408,0.093l-0.232,-0.214l-0.102,0.084l-0.046,0.232h-0.242l0.019,0.362l-0.381,0.538l0.26,0.056l0.186,0.185l0.046,0.186l0.065,0.093l0.028,0.167l0.093,0.13l0.018,0.204l-0.083,0.028l-0.065,0.167l-1.049,0.222l-0.287,0.232l-0.631,0.093l-0.743,0.891l-0.083,-0.028l-0.269,0.306l-0.965,0.492l-0.316,-0.139h-0.176l-0.102,0.074l-0.251,-0.092l-0.009,-0.103l-0.288,-0.25l-0.195,-0.037l-0.213,0.158l0.018,0.111l0.149,0.111l0.241,0.065l0.084,0.084l-0.056,0.074l0.037,0.065l0.074,-0.009l0.065,0.102l-0.065,0.157l0.01,0.297l0.464,2.237l0.464,0.454l0.074,0.288l-0.288,0.659l0.149,-0.019l0.389,0.084l0.13,0.148v0.13l0.121,0.232l0.093,0.065l0.018,0.084l-1.002,0.807l-1.986,0.789l-0.055,0.223h-0.065l-0.27,-0.251l-0.102,-0.009l-0.092,0.093l-0.084,-0.065l0.019,-0.102l-0.065,-0.047l-0.065,0.009l-0.065,-0.037l-0.028,-0.157l-0.074,-0.01l-0.065,0.084l-0.204,0.018l-0.14,-0.074l-0.074,0.009l-0.046,-0.065l0.055,-0.111l-0.018,-0.139l-0.288,-0.353l-0.102,-0.009l-0.093,-0.093l0.019,-0.093l-0.047,-0.102l-0.111,-0.111l-0.074,-0.186l0.037,-0.102l-0.028,-0.176l-0.093,-0.139l-0.027,-0.223l-0.14,-0.148l-0.185,-0.028l-0.065,-0.074l-0.009,-0.084l-0.093,-0.093l-0.102,-0.018l-0.121,-0.121l-0.019,-0.167l-0.074,-0.13l-0.102,-0.037l-0.12,-0.195l-0.019,-0.139l-0.093,-0.158l-0.13,-0.074l-0.408,-0.418l-0.149,-0.037l-0.083,-0.055l0.037,-0.112l-0.074,-0.074l-0.306,-0.046l-0.149,-0.149v-0.139l-0.111,-0.139l-0.269,-0.093l-0.195,-0.176l-0.18,-0.285l-0.235,-0.099l-0.408,0.049l-0.161,0.211l-0.223,0.099l-0.408,0.532l-0.049,0.21l-0.136,0.074l-0.112,-0.037l-0.198,0.025l-0.235,0.223l-0.086,0.21l0.086,0.186l0.198,0.185l-0.507,0.409l0.383,0.309l0.235,0.544l-1.138,1.374l-1.485,0.544l-0.16,-0.025l-0.186,0.099l-0.235,1.114l-0.05,0.767l-0.074,0.309l-0.086,0.05l-0.062,0.359l-0.272,1.917l0.334,0.136l0.396,0.26l0.655,0.52l0.334,0.582l-0.136,0.643l-0.359,0.544l-0.544,0.359l-0.718,0.272l-1.893,4.356l1.027,0.408l0.211,-0.037l0.495,0.309l0.89,0.198l0.149,0.087l0.161,-0.013l1.225,0.409l-0.124,0.532l0.148,0.395l-0.222,0.458l0.767,0.174l-0.074,0.222l-0.273,-0.012l-0.049,0.185l-0.641,0.29l0.296,0.542l0.518,0.69l-0.345,0.173l0.493,0.591l1.257,0.616l0.222,-0.69v-0.567l1.528,0.592l1.996,0.024l0.469,-0.073l0.616,0.123l0.665,0.468l0.74,1.085l0.847,0.999l0.495,-0.025l1.262,2.722l1.287,1.77l0.462,0.484l0.274,0.561l-0.668,0.58l-1.044,0.051l-0.089,-0.028l-0.227,-0.278l-0.032,-0.172l-0.218,-0.213l-0.126,-0.033l-0.385,0.023l-0.213,0.079l-0.251,0.163l-0.167,0.185l-0.014,0.2l0.047,0.065v0.065l-0.093,0.018l-0.028,0.075l0.051,0.078l0.144,0.061l0.195,0.018l0.097,0.051l0.009,0.065l-0.051,0.093l0.01,0.074l0.125,0.065l0.125,-0.009l0.074,0.032l-0.009,0.047l-0.139,0.018l-0.209,0.186l-0.028,0.121l0.061,0.032l0.561,-0.023l0.121,0.037h0.088l0.051,-0.037l0.121,-0.005l0.241,0.051l0.19,0.107h0.093l0.06,0.037l0.014,0.149l0.218,0.301l0.135,0.047l0.209,-0.01l0.092,0.056l0.158,0.19l0.255,0.102l0.153,0.01l0.256,0.111l0.116,0.148l0.167,0.116l0.162,0.019l0.074,0.037h0.093l0.056,-0.028l0.083,0.01l0.079,0.032l0.204,0.023l0.186,0.135l0.362,0.524l0.162,0.167l1.361,0.696l0.003,-0.037l-1.073,-0.557l-0.093,-0.148l-0.025,-0.155l0.081,-0.037l0.111,0.08l0.068,0.155l0.297,0.173l0.037,0.093l0.093,0.037l0.136,-0.031l0.241,0.074l0.248,0.223l0.006,0.105l0.087,0.044l0.161,-0.087l0.204,-0.012l0.099,-0.099l-0.031,-0.186l-0.075,-0.031l-0.21,0.062l-0.025,0.087l-0.074,0.006l-0.117,-0.136l-0.081,-0.223l-0.136,-0.087l-0.136,0.007l-0.099,-0.087l-0.062,-0.254l0.062,-0.13l0.241,0.019l0.786,0.476l0.346,0.384l0.124,0.031l0.093,-0.062l0.13,0.031l0.093,0.086l0.074,0.007l0.031,-0.068l-0.619,-0.699l-0.049,-0.254l0.074,-0.186l0.148,-0.012l0.155,0.124l0.031,0.185l0.099,0.099l0.136,0.037l0.142,0.167l0.019,0.198l-0.025,0.124l0.087,0.316l0.173,0.179l0.173,-0.006l0.13,-0.105l0.031,-0.229l0.217,-0.378l-0.065,-0.287l-0.232,-0.214l-0.501,-0.157l-0.112,-0.14l0.065,-0.092l0.232,0.055l0.223,0.158l0.139,-0.019l0.037,-0.139l-0.037,-0.325l-0.13,-0.12l0.074,-0.074l0.13,0.027l0.112,0.14l0.139,-0.038l0.028,-0.167l-0.158,-0.241l0.018,-0.139l0.223,-0.121l0.093,-0.157l0.028,-0.409l0.306,-0.362l0.13,-0.055l0.093,0.046l0.037,0.149l0.083,0.046l0.065,-0.065v-0.121l0.399,-0.538l0.715,-0.659l0.185,-0.018l0.093,0.102l-0.074,0.278l0.065,0.037l0.176,-0.157l0.232,-0.455l0.167,-0.241l0.149,-0.028l0.093,-0.167l0.037,-0.158l0.093,-0.046l0.083,0.074l-0.009,0.158l0.093,0.009l0.092,-0.176v-0.372l0.102,-0.092l0.205,-0.01l0.129,-0.13l0.075,0.037l-0.047,0.279l0.084,0.13l0.139,-0.009l0.251,-0.112l0.167,-0.185l0.074,-0.307l0.111,-0.083h0.149l0.25,-0.195h0.093l0.093,0.158l0.13,0.009l0.083,-0.158l0.01,-0.232l0.092,-0.037l0.093,0.111v0.168l0.111,0.037l0.075,-0.177v-0.25l0.213,-0.167l0.418,-0.102l0.167,0.046l0.111,-0.009l0.084,-0.121l0.167,-0.056l0.139,0.028h0.167l0.093,-0.092l0.185,-0.047l0.167,0.037l0.279,-0.074l0.222,-0.148l0.381,-0.103l0.306,0.038l0.232,0.148l0.204,0.009l0.037,-0.102l0.14,-0.055l0.352,0.12l0.167,0.149l0.232,0.046l0.464,-0.009l0.149,0.037l0.111,0.288l0.009,0.399l-0.083,0.12h-0.186l-0.176,-0.093l-0.464,-0.12l-0.659,-0.028l-0.046,0.065l0.092,0.093l0.566,0.028l0.511,0.204l0.056,0.102l0.287,0.083l0.325,-0.111l0.195,-0.019l0.037,0.084l-0.102,0.148l-0.111,0.037l-0.038,0.093l-0.148,0.232l-0.334,0.344l-0.009,0.074l0.12,-0.047l0.26,-0.269l0.186,-0.083l0.195,0.009l0.157,0.251l0.056,0.232l0.111,0.111l0.204,0.102l0.084,0.111l-0.046,0.205l0.074,0.046l0.074,-0.074l0.028,-0.214l-0.13,-0.185l-0.121,-0.056l-0.13,-0.176l-0.065,-0.269l0.065,-0.075l0.112,0.028l0.093,0.139l0.232,0.084l0.315,-0.019l0.316,0.093l0.111,0.102l0.204,0.074l0.139,-0.018l0.492,0.093l0.176,0.13l0.464,0.111l0.102,-0.028l0.149,0.047l0.074,-0.028l-0.12,-0.093l-0.158,-0.046h-0.158l-0.121,-0.019l-0.129,-0.13l-0.26,-0.093h-0.242l-0.204,-0.065l-0.26,-0.26l-0.334,-0.129l-0.417,-0.01l-0.269,-0.148l-0.102,-0.149l0.037,-0.102l0.111,0.019l0.056,0.148l0.083,0.065l0.195,-0.074l0.269,0.037l0.149,0.065l0.204,-0.009l0.13,0.065l0.139,0.269l0.148,0.083l0.223,-0.046l0.074,-0.111h0.195l0.548,0.297l0.213,0.009l0.297,0.12l0.158,0.279l0.139,0.083l0.093,-0.037l-0.081,-0.195l0.044,-0.068l0.167,0.031l0.142,-0.136l0.05,-0.185l0.383,-0.514l0.062,-0.21l0.087,-0.105l0.185,0.018l0.158,0.167h0.083l-0.074,-0.176l-0.306,-0.278l-0.325,-0.372l-0.176,-0.046l-0.139,-0.158l0.028,-0.102l0.148,0.019l0.158,0.167l0.167,0.028l0.148,-0.047l0.288,0.056l0.213,0.232l0.307,0.111l0.269,-0.009l0.482,0.111l0.223,0.093l0.687,0.065l0.167,-0.065l0.046,-0.241l0.139,-0.093l0.307,0.102l0.463,0.334l0.093,0.241l0.539,0.344l0.194,0.065l0.195,0.241l0.047,0.269l-0.028,0.186v0.445l0.13,0.149l0.148,0.083l0.214,0.269l0.037,0.269l-0.019,0.121l0.028,0.121l0.195,0.055l0.009,0.084l-0.102,0.055l-0.009,0.102l0.093,0.103l0.009,0.083l-0.074,0.046l-0.01,0.093l0.102,0.084v0.083l-0.074,0.056v0.074l0.112,0.074l0.083,0.205l0.084,0.065v0.083l-0.093,0.102v0.223l0.195,0.213v0.102l-0.084,0.093l0.028,0.112l0.093,0.074l0.065,0.13l-0.01,0.13l0.093,0.102h0.149l0.148,-0.223l0.139,-0.084l0.075,0.028v0.177l-0.13,0.352l-0.242,0.186l-0.25,0.13l-0.037,0.176l0.037,0.223l-0.028,0.185l-0.241,0.539l-0.028,0.334l0.065,0.13l-0.037,0.12l-0.195,0.074l-0.176,0.251l-0.047,0.315l0.019,0.325l0.223,0.158l0.259,0.009l0.028,0.065l-0.176,0.056l-0.65,0.009l-0.445,-0.046l-0.176,0.26v0.315l-0.056,0.279l-0.241,0.408l-0.019,0.742l0.21,0.885l0.223,0.618l0.402,0.539l0.297,0.092l0.241,-0.148l0.186,0.093l0.019,0.185l0.668,0.242l0.946,-0.112l0.371,-0.148l0.427,0.074l0.39,0.334l0.037,0.149l-0.26,0.092l-0.575,-0.092l-1.318,0.037l-0.538,-0.242l-0.371,0.019l-0.316,0.26l-0.501,0.018l-0.408,-0.148l-0.612,-0.056l-0.316,0.13l-0.909,-0.185l-1.114,-0.446l-0.909,-0.074l-0.891,0.093l-0.891,-0.019l-0.854,-0.204l-1.484,-0.056l-0.743,0.186l-0.575,0.334l-0.576,0.186l-0.649,0.111l-0.464,0.241l-0.501,0.613l-0.149,0.464l0.093,0.519l-0.037,0.409l-0.111,0.018l-0.099,-0.099h-0.26l-0.755,0.52l-0.371,0.235l-0.161,0.26l-0.062,0.284l0.062,0.198l0.235,0.186l0.309,0.099l0.211,0.235l0.102,0.207l0.121,0.074l0.064,-0.018l-0.046,-0.102l0.065,-0.028l0.288,0.195l0.26,0.529l0.222,0.557l-0.009,0.222l0.093,0.093l0.315,-0.009l0.297,-0.084l0.409,0.047l0.658,0.315l0.084,0.149l-0.047,0.139l-0.25,0.018l-0.158,-0.102l-0.139,-0.009l-0.111,0.13l-0.102,0.065l-0.093,-0.009l-0.121,-0.167l-0.12,-0.01l-0.038,-0.074l0.056,-0.083l-0.074,-0.056l-0.464,0.046l-0.26,0.232l-0.204,0.279l-0.223,0.083l-0.529,0.009l-0.287,-0.12l-0.427,-0.26l-0.037,-0.213l-0.103,-0.065l-0.111,-0.038l-0.241,-0.194l-0.214,-0.214l-0.464,-0.195l-0.148,0.028l-0.13,0.149l-0.25,0.037l-0.659,-0.028l-0.232,-0.139l-0.149,-0.019l-0.12,0.084l-0.529,-0.028l-0.437,-0.084l-0.631,-0.074l-0.111,0.046l-0.223,0.483l-0.037,0.241l-0.083,0.028l-0.093,-0.195l-0.074,0.019l0.009,0.269l0.084,0.557v0.529l0.148,0.334l0.297,0.25l0.492,0.232l0.603,0.112l0.77,0.055l0.817,0.195l0.557,0.269l0.259,0.288l0.167,0.473l0.056,0.399l-0.018,0.214l-0.038,0.139l0.047,0.167l0.148,0.111l0.177,0.037l0.213,0.195l0.232,0.353l0.13,0.538l0.046,0.362l0.14,0.315l0.408,0.585l0.139,0.297l0.056,0.167l0.185,0.223l0.214,0.055l0.139,0.084l0.093,0.148l0.185,0.14l0.242,0.538l0.129,0.51l0.028,0.715l-0.092,0.557l-0.168,0.631l-0.083,0.389l0.046,0.121l0.186,0.037l0.557,-0.111l0.519,-0.037l0.121,0.027l0.074,-0.009l0.102,-0.083l0.529,-0.093l0.316,0.009l0.195,0.167l0.028,0.288l-0.056,0.102v0.102l0.498,0.365l0.309,0.383l0.26,0.582l0.433,0.643l0.05,0.149l0.185,0.062l0.569,-0.211l0.78,-0.198l0.482,0.075l0.297,0.247l0.223,0.396l0.099,0.037l0.21,-0.272l0.396,-0.136l0.619,0.012l0.717,0.186l0.211,0.198l0.074,0.26l0.099,0.061l0.322,0.038l0.247,0.123l0.149,0.446l-0.112,0.519l-0.185,0.248l-0.099,-0.012l-0.149,-0.372l-0.247,-0.383l-0.347,-0.26l-0.086,-0.173v-0.124h-0.099l-0.025,0.173l0.173,0.223l0.334,0.284l0.235,0.347l0.087,0.396l-0.099,0.68l-0.148,0.396l-0.161,0.174l-0.149,0.321l-0.074,0.322l-0.346,0.606l-0.347,0.359l-0.235,0.322l-0.124,0.594l0.087,0.123l0.025,0.161l-0.025,0.186l0.037,0.111l0.26,0.272l0.062,0.47l-0.025,0.347l-0.198,0.557l-0.118,0.253l0.038,0.075l3.192,-2.586l0.352,-0.26l3.842,-1.318l4.269,-0.705l3.619,2.505l1.243,1.207l0.036,0.152l-0.028,0.38l0.084,0.223l0.26,0.26l0.473,0.725l0.326,0.687l0.334,0.409l0.659,0.947l0.307,0.353l0.132,0.069l0.16,0.195l0.181,0.112l0.147,0.223l0.014,0.153l0.111,0.077l0.084,-0.049l0.062,0.049l-0.014,0.09l0.063,0.042l0.097,-0.021l0.223,0.098l0.209,-0.007l0.098,-0.216l0.09,-0.014l0.063,0.097l0.118,0.014l0.028,0.146l0.07,0.014l0.042,-0.16l0.209,-0.09l0.432,0.014l0.111,-0.105l0.153,0.007l0.272,0.118l0.111,-0.02l0.049,-0.133l0.195,-0.153l0.174,-0.049l0.808,0.046z M1606.532659,432.604679l0.110724,-0.17973l-0.020895,-0.306466l-0.132338,-0.118407l-0.125372,-0.034826l0.01393,-0.139303l0.160198,-0.104477l0.064243,-0.145506l0.148652,-0.027926l0.101255,0.044375l0.060365,-0.041791l-0.092868,-0.120729l-0.133732,-0.048979l-0.055744,-0.111489l0.046399,-0.250687l-0.027818,-0.882238l0.074217,-0.278613l-0.018581,-0.213632l-0.092799,-0.037163l-0.092907,0.102144l-0.157888,0.018581l-0.092799,-0.139307l-0.13007,-0.064981l-0.018581,-0.157888l0.13007,-0.176469l0.009236,-0.167124l-0.074326,-0.111489l-0.009236,-0.157779l0.074326,-0.167233v-0.157888l-0.074326,-0.176469l0.018581,-0.194942l0.111489,-0.24145l0.148543,-0.083671l0.232214,-0.120725l0.11138,-0.24145h0.120725l0.102144,0.111489h0.120725l0.185814,-0.111489l0.148543,-0.232105v-0.222869l-0.129961,-0.111489l-0.185814,-0.297194l-0.027818,-0.306431l0.037163,-0.287958l0.120725,-0.157779l0.222869,-0.102252l0.092907,-0.148543l-0.009345,-0.213632l-0.046399,-0.260032l-0.13007,-0.250687l-0.176469,-0.157888l-0.046399,-0.222869l0.120725,-0.278613l0.213632,-0.232214l0.260032,-0.074326l0.167124,0.027926l0.306431,-0.046399l0.213632,-0.148652l0.222869,0.018581l0.083562,0.139307l0.278613,0.167124l0.157888,-0.009236l0.157888,-0.232214l0.24145,-0.092799l0.408683,-0.445846l0.306431,-0.139307l0.120725,0.037163l-0.027818,0.120725l0.102144,0.055744l0.167124,-0.037163l0.24145,-0.157888l0.092907,-0.204287l-0.111489,-0.250687l-0.009236,-0.232214l0.129961,-0.204287l0.269377,-0.250795l0.083562,-0.204287l-0.009236,-0.222869l0.083562,-0.529408l0.129961,-0.334249l0.176469,-0.055744l0.176469,0.129961l0.371412,0.111489l0.167233,-0.009345l0.157888,-0.213524l0.083562,-0.315776l0.195051,-0.260032l0.287849,-0.083562l0.092907,0.046399l-0.083671,0.13007l-0.009236,0.222869l0.148543,0.148543l0.092907,-0.037163l-0.083562,-0.120725l0.018581,-0.185706l0.129961,-0.027818l0.111489,0.046399l0.157888,-0.027818l0.139307,-0.232214l0.297194,-0.222869l0.306431,-0.102144l0.176469,0.055744l0.102144,0.120725h0.260032l0.148543,-0.055744l-0.046399,-0.167233l-0.185706,-0.092799l-0.083671,-0.325012l0.083671,-0.287958l0.362175,-0.362175l0.287849,-0.102144l0.334357,0.027818l0.185706,0.13007l0.427265,0.129961l0.009236,0.120725l-0.204287,0.074326l-0.157888,-0.064981l-0.167124,0.009236l-0.055744,0.157888l-0.148652,0.13007l-0.194942,-0.037163l-0.092907,-0.139307h-0.111489l-0.009236,0.176469l0.185706,0.287849l0.37152,0.306431l0.157888,0.195051l0.194942,0.046399l0.120725,0.120725l0.167233,-0.009236l0.092799,-0.315776l0.139307,-0.157888l0.37152,-0.092799l0.315776,0.037163l0.083562,0.139307l0.148543,0.037054l0.157888,-0.046399l0.176469,-0.185706l0.343594,0.018581l0.213632,0.139307l0.129961,0.009236l0.195051,-0.139307l0.269377,-0.009236l0.194942,0.027818l0.529408,-0.027818l0.24145,-0.092907l0.167124,-0.027818l0.13007,-0.139307l0.176469,0.009236l0.376193,0.181903l0.41792,0.13007l0.176469,-0.009345l0.185706,0.027818l0.185814,0.046508l0.65937,0.055744l0.260032,-0.018581l0.232105,-0.102144l0.362175,0.037054l0.139307,0.074326l0.445846,0.120725l0.083562,0.157888l0.176469,0.102144l0.287849,0.046399l0.102144,-0.055636h0.13007l0.129961,0.064981l0.306431,0.074326l0.408683,0.037163l0.315776,0.120725l0.185706,-0.027926l0.055744,-0.129961l0.185706,-0.176469l0.139307,0.009236l0.129961,0.102144l0.157888,-0.027818l0.139307,-0.148543l0.148652,0.009236l0.083562,0.185706l0.120725,0.009345l0.204287,-0.139307l0.167124,-0.027926l0.287958,-0.194942l0.129961,-0.009345l0.092907,0.157888l0.195051,0.195051l0.389993,0.222869l0.315776,0.157888l0.390102,0.092907l0.473555,0.027818l0.334357,0.009236l0.185706,-0.092799l0.334357,-0.064981l0.269268,0.074217l0.269377,0.13007l0.371412,0.325012l0.380865,0.278613l0.343594,0.148543l0.35283,0.046508l0.260032,-0.055744l-0.046399,-0.064981l-0.185706,0.009236l-0.24145,-0.037163l0.027818,-0.074217l0.352939,0.009236l0.334249,0.092907l0.297194,-0.009345l0.148652,-0.083562l0.083562,-0.157888l0.24145,-0.083562l0.185706,0.027818l0.083562,0.120725l0.24145,0.222869l0.055744,0.148652l0.167233,0.11138h0.157888l0.092799,-0.148543l-0.064981,-0.148543l-0.13007,-0.046508l-0.11138,-0.157888l0.027818,-0.269268l0.083562,-0.139307l0.232214,-0.064981l0.185706,0.027818l0.185814,-0.018581l0.194942,0.027926l0.120725,0.157779l0.287958,0.111489l0.232105,-0.009236l0.120725,-0.139307h0.139307l0.195051,0.083562l0.213632,0.027818l0.575807,0.120725l0.287849,-0.009236l0.315776,-0.102144l0.325012,-0.213632l0.325012,-0.334357l0.167233,-0.399338l0.046399,-0.380757l-0.064981,-0.287849l0.074217,-0.139307l0.427265,-0.027818l0.148543,-0.083671l0.157888,-0.009236l0.167124,0.018581l0.148652,-0.027926l0.120725,-0.213524l-0.027818,-0.334357l-0.167233,-0.352939l-0.018581,-0.148543l-0.232105,-0.315776v-0.139307l-0.167233,-0.213632l-0.157888,-0.046399l-0.102144,0.046399l-0.315667,-0.018473l-0.111489,-0.111489h-0.157888l-0.120725,0.176469l-0.009236,0.139307l0.148543,0.129961l-0.037163,0.111489l-0.352939,0.11138l-0.120725,-0.027818l-0.009236,-0.083562l-0.222869,-0.287958l-0.213632,-0.055636l-0.195051,0.046399l-0.176361,-0.027818l-0.260032,0.083562l-0.139307,0.204287l-0.009345,0.176469l0.260032,0.315776l0.24145,0.213524l0.24145,0.157888l0.195051,0.009345l0.204287,0.120725l0.009345,0.102144l-0.213632,0.092799l-0.148543,-0.074217l-0.232214,-0.009345l-0.129961,0.065089l-0.232214,0.018473l-0.027818,-0.064981l0.194942,-0.102144l0.009345,-0.129961l-0.176469,-0.343702l-0.315776,-0.334249l-0.139307,-0.037163l-0.120725,0.046399l-0.185706,-0.018581l-0.176469,-0.11138l-0.260032,-0.046508l-0.185706,0.065089l-0.074326,0.213524l-0.213632,0.213632l-0.194942,0.074326l-0.111489,0.129961l0.027818,0.24145l-0.194942,0.232214l-0.157888,0.018581l-0.111489,-0.13007l-0.102144,0.018581l-0.009236,0.185706l-0.102252,0.009345l-0.083562,-0.213632l0.027926,-0.204287l-0.083562,-0.139307l-0.092907,0.027818l-0.009345,0.343702l-0.139307,0.24145l0.120725,0.4829l-0.037054,0.24145l-0.139307,0.055744l-0.046508,0.120725l0.065089,0.222869l-0.139307,0.074326l-0.369347,-0.193638l-0.157888,-0.278613l0.009345,-0.232214l-0.139307,-0.120725h-0.176469l-0.157888,-0.120725l-0.046399,-0.24145l-0.204396,-0.111489l-0.232105,0.046508l-0.167233,0.139307l-0.232105,-0.074326l-0.167233,-0.157888l-0.222869,-0.064981l-0.092799,0.009236l-0.176469,-0.055744l-0.111489,-0.139307l-0.260032,-0.083562l-0.213524,0.092907l-0.464427,0.018581l-0.362175,-0.102144l-0.204287,-0.009345l-0.306431,-0.083562l-0.269377,-0.027818l-0.009236,0.092799l0.204287,0.092907l-0.018581,0.102144l-0.232105,0.027818l-0.436501,-0.027818l-0.13007,-0.055744l-0.278613,-0.009236l-0.315776,0.185706h-0.325012l-0.278613,-0.046399l-0.278613,0.064981l-0.204287,0.232214l-0.009236,0.213524l-0.102144,0.083671l-0.315776,-0.018581l-0.157888,0.129961l-0.13007,-0.046399l-0.009236,-0.148652l-0.232214,-0.306431l-0.083562,-0.185706l-0.352939,-0.222869l-0.260032,-0.009345l-0.157779,0.13007l-0.037163,0.167124h-0.074326l-0.111489,-0.148543l-0.269268,-0.074326l-0.232214,-0.213632l-0.11138,-0.185706l-0.120725,-0.018581l-0.092907,0.148543l0.102144,0.185814l0.222869,0.176361l0.473664,0.557226l-0.037163,0.065089l-0.362175,-0.176469l-0.148543,-0.157888l-0.640788,-0.222869l-0.222977,-0.027926l-0.129961,-0.083562l-0.009236,-0.176469l-0.092907,-0.027818l-0.148652,-0.009345l-0.297086,-0.102144l-0.287958,0.055744l-0.260032,0.167233l-0.064981,0.157779l-0.092907,0.065089l-0.204287,-0.176469l-0.297194,-0.083562l-0.148543,0.074217l-0.120725,-0.037054l-0.074326,-0.278613l-0.269268,-0.41792l-0.250795,-0.260032l-0.297194,-0.185814l-0.445737,-0.157779l-0.343594,-0.009345l-0.269377,0.102144l-0.102144,0.092907l-0.11138,-0.018581l-0.065089,-0.120725l-0.148543,-0.009345l-0.111489,0.204396l-0.157888,0.074217l-0.213524,-0.009236l-0.120725,-0.083562l-0.055744,-0.204396l0.055744,-0.092799h0.167124l0.009345,-0.092907l-0.241559,-0.064981l-0.287849,0.037163l-0.269268,0.269268l-0.213632,0.064981l-0.222869,-0.167124l-0.148652,0.009345l-0.213524,0.139307l-0.362175,0.185706l-0.585153,0.222869l-0.575807,0.176469l-0.622207,0.11138l-0.445737,0.055744l-0.325012,-0.027818l-0.315776,-0.232214l-0.362175,-0.120725l-0.287849,-0.037163l-0.195051,-0.157888l-0.102144,-0.278613l-0.157888,-0.176361l-0.13007,0.018581l-0.129961,0.204287v0.129961l-0.157888,0.102144l-0.148652,-0.037054v-0.148652l0.111489,-0.102144v-0.195051l-0.167124,-0.037163l-0.148652,0.185814l-0.185706,0.046399l-0.260032,-0.092907l-0.13007,0.055744l-0.046399,0.185706l-0.157888,0.13007l-0.278613,0.037163l-0.297194,-0.083562l-0.213524,0.018581l-0.195051,0.102144l-0.120725,-0.018581l-0.064981,-0.111489l-0.102144,0.027926l-0.027926,0.176361l-0.092799,0.102144l-0.176469,-0.037054l-0.213632,0.092799l-0.11138,0.269377v0.269268l-0.111489,0.167233l-0.009345,0.269268l-0.148543,0.102144l-0.389993,0.139307l-0.232214,0.037163l-0.167124,0.129961l-0.027926,0.269377l-0.195051,0.204287l-0.185706,0.13007l-0.306431,0.055636l-0.334357,0.232214l-0.064981,0.148543l-0.213632,0.037163l-0.232105,-0.148543l-0.269377,0.018581l-0.278613,0.176469l-0.278613,0.334249l-0.046399,0.232214l-0.083562,0.074326l-0.139307,-0.009345l-0.083562,0.13007l0.055636,0.129961l-0.064981,0.148652l-0.11138,0.064981l-0.009345,0.222869l0.083562,0.083562l0.102144,-0.009236l0.092907,0.046399l0.006411,0.115618l0.055744,0.102144l0.129961,0.065089v0.148543l-0.139307,0.195051h-0.139307l-0.167124,-0.13007l-0.250795,-0.102144l-0.278613,0.027926l-0.194942,0.120725l-0.055744,0.222869l-0.102144,-0.009345l-0.083671,-0.148543l-0.204287,-0.176469l-0.139307,-0.250687l-0.185706,-0.055744l-0.055744,0.148543l0.120725,0.064981v0.204396l-0.129961,0.120725l-0.167233,-0.018581l-0.176361,0.11138l0.018581,0.111489l-0.074326,0.064981l-0.222869,0.027926l-0.018581,0.139307l0.120725,0.102144l0.027818,0.389993l0.074326,0.13007l0.213632,0.018581l0.204287,0.148543l-0.018581,0.148543l-0.204287,0.027926l-0.195051,0.148543l-0.148652,0.287958l0.046508,0.278613l-0.074326,0.222869l-0.213632,0.11138l-0.064981,0.250795l0.046399,0.176469l-0.018473,0.139307l-0.120834,0.092799l-0.176361,-0.027818l-0.111489,-0.157888l-0.250687,-0.176469l-0.167233,0.027926l-0.046399,0.120725l-0.083562,0.083562l-0.260032,0.027818l-0.065089,0.102144l0.102252,0.139307l0.213524,0.102144l0.157888,-0.018581l0.37152,0.037163l0.204287,0.120725l-0.018581,0.111489l-0.278613,0.037163l-0.074326,0.129961l0.083671,0.111489l-0.009345,0.260032l-0.129961,0.027818l-0.222977,-0.092799l-0.167124,0.037054l-0.092907,0.250795v0.352939l0.139307,0.24145l0.204396,0.055636l0.185706,-0.037054l0.260032,0.083562l0.129961,0.204287l0.204396,0.148543l0.24145,0.111489l0.139307,0.204287l0.074217,0.408683l0.102144,0.24145l0.157888,0.092799l0.092907,0.13007l0.018581,0.148543l0.213632,0.120725l0.250687,0.065089l0.139307,0.129961l-0.027818,0.213632l0.092799,0.092799l0.139307,0.018581l0.176469,0.120725l0.139307,0.260032l0.222869,0.065089l0.260032,-0.027926l0.213632,0.027926l0.027818,0.083562l-0.11138,0.083562v0.120725l0.11138,0.13007l0.037163,0.213524l-0.083562,0.13007l-0.005659,0.257535l0.104477,0.153233l0.188059,0.055721l0.006965,0.139303l-0.132338,0.048756l-0.083582,0.083582l0.027861,0.160198l0.111442,0.104477l0.167163,0.034826l0.167163,0.090547l-0.020895,0.146268l-0.188059,0.090547l-0.01393,0.090547l0.104477,0.048756l0.160198,-0.027861l0.132338,0.048756l0.027861,0.097512l0.083582,0.062686l0.118407,0.020895l0.048756,0.132338l-0.076617,0.125372l0.048756,0.111442l0.160198,0.048756l0.069651,0.069651l0.264675,0.097512l0.208954,-0.01393l0.153233,-0.118407l0.153233,0.027861l0.090547,0.188059l0.369152,0.215919l0.285571,0.069651l0.076617,-0.069651l0.041791,-0.27164l-0.076617,-0.132338l0.01393,-0.362187l-0.041791,-0.139303l-0.090547,-0.01393l-0.160198,0.132338l-0.104477,0.01393l-0.125372,-0.083582l-0.403978,-0.020895l-0.174128,-0.069651l-0.25771,0.01393l-0.104477,0.111442l-0.034826,0.132338h-0.076617l-0.020895,-0.167163l-0.069651,-0.090547l-0.125372,-0.034826l-0.090547,-0.076617l-0.006247,-0.10584Z M1604.234069,428.491552l-0.092799,0.102144l0.046399,0.176469l-0.083562,0.055744l-0.167233,-0.204396l-0.222869,-0.11138l-0.037163,-0.260032l0.120725,-0.102144h0.287958l0.176469,0.139307l-0.027926,0.204287Z M1605.04209,429.17874l-0.13007,0.018581l-0.185706,-0.055744l-0.074326,-0.092799l0.046399,-0.092907l0.232214,-0.009236l0.13007,0.083562l-0.018581,0.148543Z M1605.367103,429.336628l-0.120725,-0.037163l-0.064981,-0.083562l0.083562,-0.046399l0.167124,0.037163l0.018581,0.092799l-0.083562,0.037163Z M1606.286504,421.944255l-0.222869,-0.148543l-0.092907,-0.232214l0.037163,-0.129961l0.176469,-0.009345l0.139307,0.148652l0.083562,0.334357l-0.120725,0.037054Z M1617.789831,419.159538l-0.202005,-0.069653l-0.229932,-0.285567l-0.048681,-0.222869l0.062699,-0.006954l0.090517,0.222869l0.202005,0.243732l0.139307,0.062699l-0.013909,0.055744Z M1624.608678,419.612338l-0.195051,-0.034881l-0.202005,-0.188096l0.069653,-0.06259l0.188096,0.034772l0.181033,0.167124l-0.041727,0.083671Z "/>
</svg>
