<svg xmlns="http://www.w3.org/2000/svg" viewBox="1348.963 512.465 10.004 12.143">
  <path d="M1353.383577,522.566187l0.106,-0.018l0.149,-0.126l0.042,-0.083l-0.028,-0.088l0.055,-0.144l0.191,-0.176l0.255,-0.093l0.079,-0.126l0.283,-0.171l0.023,-0.13l-0.065,-0.181l0.042,-0.093l0.26,-0.107l0.139,0.056l0.093,-0.028l0.167,-0.199l-0.01,-0.214l-0.246,-0.181l-0.417,-0.106l-0.028,-0.191l0.079,-0.162l0.107,-0.037l0.046,-0.093l-0.033,-0.167l0.232,-0.348l0.2,-0.065l0.125,-0.136l0.087,-0.186l0.414,-0.136l0.155,0.025l0.328,-0.037l0.099,0.087l0.105,-0.019l0.087,-0.161l0.16,-0.025l0.229,0.056l0.099,0.099l0.365,0.074l0.099,-0.055l0.037,-0.087l-0.043,-0.111l-0.136,-0.124l-0.216,-0.056l-0.365,-0.198l0.006,-0.092l0.222,-0.174l0.223,-0.309l0.173,-0.13h0.112l0.031,-0.049l-0.007,-0.155l0.18,-0.149l0.39,0.038l0.179,-0.167v-0.186l0.204,-0.26l0.192,-0.105l0.179,-0.334l0.124,-0.062l0.025,-0.08l-0.186,-0.149l-0.025,-0.383l0.062,-0.149l-0.055,-0.087l-0.143,-0.055l-0.204,-0.371l0.105,-0.205l-0.024,-0.198l-0.285,-0.222l-0.241,-0.099l-0.124,-0.142l-0.012,-0.137l-0.112,-0.031l-0.488,0.038l-0.13,-0.044l0.006,-0.093l0.445,-0.278l0.013,-0.093l-0.05,-0.136l0.019,-0.117l0.08,-0.037l0.149,0.105l0.117,-0.013l0.068,-0.259l-0.086,-0.038l-0.161,0.075l-0.272,-0.075l-0.229,-0.173v-0.192l-0.149,-0.068l-0.105,0.044l-0.074,0.142l0.006,0.13l-0.074,0.117l-0.378,0.044l-0.198,-0.056l-0.136,-0.006l-0.136,0.037l-0.315,-0.043l-0.198,0.055l-0.31,0.007l-0.272,-0.137l-0.093,-0.006l-0.08,0.068l0.084,0.416v0.279l-0.103,0.213l-0.111,0.014l-0.107,0.07l-0.222,0.269l-0.348,0.106l-0.186,-0.041l-0.111,0.051l-0.023,0.093l0.092,0.185l-0.046,0.098l-0.241,0.157l-0.228,0.047l-0.06,0.093l0.005,0.148l-0.065,0.223l-0.112,0.041l-0.074,-0.023l-0.111,0.033l-0.116,0.26l-0.01,0.227l-0.037,0.204l-0.116,0.116l-0.037,0.334l0.121,0.214l0.028,0.208l-0.056,0.256l-0.135,0.227l0.01,0.102l0.088,0.037l0.032,0.07l-0.051,0.12l-0.167,0.037l-0.157,0.219l-0.065,0.292l-0.121,0.083l-0.422,-0.037l-0.144,0.037l-0.028,0.079l0.102,0.177l-0.042,0.505l-0.162,0.331l-0.006,0.173l-0.068,0.186l-0.124,0.13l-0.118,0.309l-0.024,0.217l-0.099,0.278l-0.081,0.074l-0.068,0.167l-0.012,0.143l-0.074,0.142l-0.229,0.266l-0.198,0.118l-0.229,0.544l-0.031,0.365l-0.074,0.179l-0.118,0.18l-0.08,0.093l-0.013,0.086l0.081,0.118l-0.025,0.235l-0.148,0.303l-0.124,0.099l-0.14,0.21l-0.17,0.077l-0.096,0.133l-0.009,0.075l0.305,0.017l0.046,0.032l0.082,-0.049h0.075l0.043,0.043l0.08,-0.006l0.044,-0.08l0.086,-0.007l0.124,0.05l0.111,-0.006l0.256,-0.093l0.109,0.012l0.075,0.05l-0.007,0.086l0.186,0.198l0.179,0.03l0.042,-0.051l0.302,-0.042l0.116,-0.162l0.11,-0.022l0.185,0.018l0.062,-0.049l0.025,-0.118l0.124,-0.049l0.105,-0.476l-0.025,-0.248l0.068,-0.272l0.118,-0.241l0.068,-0.019l0.055,0.167l0.204,0.149l0.075,-0.031l0.012,-0.167l0.08,-0.044l0.106,0.019l0.086,-0.031l0.056,-0.093l0.223,-0.099l0.055,-0.142l0.068,-0.013l0.068,0.056h0.05l0.068,-0.077l0.121,-0.005z"/>
</svg>
