<svg xmlns="http://www.w3.org/2000/svg" viewBox="1179.759 413.665 1.033 1.829">
  <path d="M1180.12005,413.665439l-0.053,0.201l-0.121,0.183l-0.077,0.204l-0.021,0.17l0.024,0.158l0.106,0.152l0.059,0.315l-0.003,0.087l-0.044,0.077l-0.228,0.149l-0.003,0.102l0.027,0.003l0.015,-0.028h0.023l0.006,0.04h0.024l0.029,-0.037l0.113,-0.009l0.056,-0.037l0.101,-0.028l0.065,0.006l0.053,0.056l0.012,0.055l0.035,0.01l0.296,-0.093l0.009,-0.029l0.035,-0.036l-0.017,-0.047l0.026,-0.037l0.036,0.005l0.04,-0.033l0.049,-0.023v-0.125l-0.058,-0.065l-0.005,-0.051l0.054,-0.079l-0.009,-0.042l-0.036,-0.051l0.005,-0.088l-0.04,-0.032l-0.045,0.023l-0.057,-0.028l-0.031,-0.088l-0.111,-0.065h-0.089l-0.004,-0.033l0.053,-0.06l0.004,-0.079l0.04,-0.083l0.005,-0.061l-0.098,-0.102l-0.071,-0.018l-0.013,-0.051l0.049,-0.075l0.004,-0.078l-0.133,-0.102l-0.027,-0.084l-0.059,-0.019z"/>
</svg>
