<svg xmlns="http://www.w3.org/2000/svg" viewBox="1642.122 685.883 15.625 26.080">
  <path d="M1642.163885,688.836797l0.024672,0.024907l-0.006168,0.043587l-0.049343,-0.006227l-0.012336,-0.043587l0.043175,-0.01868Z M1644.534429,688.535724l0.005638,0.021161l0.028767,-0.003794v-0.022329l-0.01966,-0.012405l-0.014745,0.017367Z M1645.39702,688.367017l0.031948,-0.062024l-0.007373,-0.062024l-0.068907,-0.016394l-0.026936,0.041204l0.031948,0.049619l0.004915,0.044658l0.034405,0.004962Z M1645.097202,689.510746l0.014938,0.073262l0.067847,0.012454l0.043175,-0.024907l0.055511,0.031134l0.022503,0.059397l0.034405,-0.017367l0.004915,-0.064505l-0.017203,-0.034734l-0.081628,-0.048647l-0.018504,-0.068494l-0.042404,-0.004427l-0.083556,0.086834Z M1643.05823,688.164307l0.277555,0.130762l0.141862,-0.006227l0.055511,-0.080948l-0.030839,-0.21171l-0.074015,-0.056041h-0.111022l-0.092518,-0.031134l-0.111022,-0.130762h-0.092518l-0.037007,0.062268l0.018504,0.224163l0.055511,0.099628Z M1644.35503,687.347046h0.041633l0.004626,-0.056041l-0.050885,-0.060711l-0.032381,0.02335l0.037007,0.093401Z M1643.739783,687.533849l0.041633,0.037361l0.032381,-0.03269l-0.009252,-0.093401l0.009252,-0.102741l-0.050885,-0.01868l-0.046259,0.042031v0.074721l0.02313,0.093401Z M1644.031216,686.875369l0.032381,0.01868l-0.004626,-0.088731l0.02313,-0.088731l-0.02313,-0.01868l-0.037007,0.074721l0.009252,0.102741Z M1643.781416,687.169583l0.041633,-0.01401l0.013878,-0.065381l0.046259,-0.074721l-0.004626,-0.116752l-0.041633,-0.00934l-0.083267,0.102741l-0.027756,0.107412l0.055511,0.070051Z M1643.934071,687.585219l0.115648,0.060711l0.272929,0.046701l0.055511,-0.037361l0.013878,-0.196143l-0.004626,-0.046701l-0.092518,-0.060711l-0.037007,-0.00467l-0.032381,0.051371l-0.087893,-0.03269l-0.050885,-0.065381h-0.041633l-0.02313,0.051371l-0.013878,0.098071l0.013878,0.070051l-0.037007,0.00467l-0.046259,-0.046701l-0.018504,0.037361l0.013878,0.070051Z M1644.456801,686.763288l0.069389,0.00467l0.064763,-0.03269l0.013878,-0.042031l-0.032381,-0.046701v-0.060711l0.055511,-0.182133l-0.041633,-0.037361l-0.050885,0.02802l-0.092518,-0.00467l-0.069389,0.01401l-0.041633,0.079391l0.041633,0.088731v0.065381l-0.050885,0.042031l0.018504,0.042031l0.115648,0.042031Z M1644.489182,687.239634l0.161907,0.112082l0.060137,-0.00934l0.032381,-0.065381l0.064763,-0.01868l0.157281,0.037361l0.087893,0.074721l0.074015,0.00467l0.052427,-0.082504l0.030839,-0.01868l0.009252,0.01868l-0.041633,0.110525l-0.074015,0.01401l-0.027756,0.03269l0.138778,0.037361l0.10177,-0.056041l0.046259,-0.154112l-0.046259,-0.112082l-0.069389,-0.01401l-0.111022,0.093401l-0.092518,-0.00934l-0.235922,-0.154112l-0.004626,-0.03269l0.055511,-0.01401l0.004626,-0.079391l-0.041633,-0.02802l-0.064763,0.03269l-0.106396,0.042031l-0.02313,-0.037361l0.009252,-0.051371l-0.046259,-0.070051l-0.050885,-0.02335l-0.087893,0.01868l-0.027756,-0.03269l-0.055511,-0.01868l-0.055511,0.00467l-0.060137,-0.01868l-0.013878,0.03269l0.046259,0.051371l-0.013878,0.065381l0.1249,0.177463l0.041633,0.126092l0.050885,0.01401Z M1646.678786,687.557199h-0.049343l-0.061679,-0.046701l0.018504,-0.031134l-0.009252,-0.021794l-0.114106,-0.012454l-0.018504,-0.024907l0.027756,-0.021794v-0.034247l-0.033923,-0.040474l0.003084,-0.062268l-0.01542,-0.02802l-0.049343,-0.02802l-0.027756,-0.046701l0.033923,-0.031134l0.123358,0.003113l0.345402,0.155669l0.505768,0.295771l0.21896,0.143215l0.11719,0.112082l0.129526,0.177463l0.11719,0.084061l0.077099,0.006227l0.003084,-0.077834l-0.033923,-0.084061l0.018504,-0.031134l0.107938,0.037361l0.095602,0.084061l0.111022,-0.01868l0.030839,-0.01868l-0.083267,-0.074721l0.006168,-0.062268l0.040091,-0.003113l0.141862,0.108968l0.385494,0.149442l0.166533,0.087175l0.104854,0.090288l0.089435,0.040474l0.033923,-0.015567l0.003084,-0.056041l-0.285265,-0.199256l-0.457966,-0.406296l-0.356196,-0.266194l-0.434837,-0.354925l-0.263678,-0.298884l-0.087893,-0.149442l-0.259052,-0.378275l-0.111022,-0.233503l-0.041633,-0.03269l-0.115648,-0.00934l-0.097144,-0.046701l-0.060137,0.00467l-0.078641,0.042031l-0.14803,0.02802l-0.120274,-0.01401l-0.129526,0.03269l-0.14803,0.084061l-0.2498,-0.00467l-0.138778,-0.037361h-0.245174l-0.111022,0.042031l-0.143404,0.00934l-0.203541,0.084061l-0.041633,0.070051l-0.097144,0.065381l-0.087893,0.00934l-0.041633,0.037361l0.009252,0.093401l0.055511,0.037361l0.097144,0.163452l-0.018504,0.070051l0.087893,0.149442l0.069389,0.01401l0.069389,-0.084061h0.041633l-0.009252,0.051371l0.106396,0.065381l0.050885,-0.02335l0.041633,0.02802l0.032381,0.126092l0.083267,0.093401l0.161907,0.03269l0.060137,-0.00934l0.134152,0.056041l0.161907,0.140102l0.235922,0.088731l0.037007,-0.01868l-0.106396,-0.051371l-0.138778,-0.126092l-0.092518,-0.037361l-0.032381,-0.070051l0.018504,-0.037361l0.069389,0.060711l0.365448,0.177463l0.064763,0.088731l0.237464,0.165009l0.055153,0.008109l0.049701,-0.014336l-0.003084,-0.01868Z M1646.40123,687.168027l-0.009252,0.021794l0.018504,0.015567l0.027756,-0.01868l-0.006168,-0.021794l-0.030839,0.003113Z M1644.663859,686.4825l0.012288,0.014886l0.01966,-0.004962l-0.002458,-0.02481l-0.024575,-0.004962l-0.004915,0.019848Z M1645.374275,687.196047l0.021588,-0.006227l-0.037007,-0.049814h-0.030839l0.01542,0.034247l0.030839,0.021794Z M1644.100605,703.276641l-0.037007,0.088731l0.02313,0.168122l0.152655,0.434316l0.166533,0.74254l-0.004626,0.163452l-0.069389,0.056041l-0.027756,0.084061l-0.041633,0.042031h-0.120274l-0.060137,0.042031l0.009252,0.056041l0.134152,0.03269l0.069389,0.177463l0.069389,0.322235l-0.004626,0.112082l0.037007,0.182133l0.208167,0.621119l0.143404,0.270864l0.157281,0.387615l0.078641,0.322235l0.157281,0.345585l-0.027756,0.088731l0.050885,0.149442l-0.069389,0.074721l0.013878,0.130762l0.087893,0.098071l0.106396,0.280204l0.050885,0.252184l0.083267,0.102741l0.050885,0.112082l-0.02313,0.051371l0.009252,0.088731l0.064763,0.084061l-0.041633,0.158782v0.084061l0.10177,0.126092l0.092518,0.233503l-0.018504,0.046701l0.013878,0.060711l0.171159,0.158782l0.046259,0.093401l0.009252,0.079391l0.050885,0.093401l0.120274,0.107412l0.02313,0.079391l0.111022,0.056041l0.032381,0.070051l0.171159,0.107412l0.037007,0.079391l0.231296,0.182133l0.055511,0.00467l-0.004626,-0.056041l0.041633,-0.01868l0.046115,0.04889l0.002458,0.081872l0.043946,0.056041l0.056812,0.005984l0.095843,0.054581l0.323815,0.056187l0.379326,0.163452l0.300685,0.056041l0.046259,-0.01868l0.078641,-0.070051l0.078641,0.00467l0.046259,0.046701l-0.018504,0.060711l0.027756,0.079391l0.14803,0.042031l0.115648,-0.02335l0.166533,0.03269l0.087893,-0.02802l0.134152,-0.00934l0.171159,0.060711l0.046259,0.070051l0.050885,0.00467l0.041633,-0.042031l0.106396,-0.037361l0.055511,-0.070051l0.092518,-0.02335l0.055511,-0.046701l0.092518,-0.03269l0.272929,-0.00934l0.092518,-0.02802l0.064763,-0.088731l0.078641,0.02802l0.032381,-0.02335l-0.013878,-0.060711l0.078641,-0.098071l0.111022,-0.01868l0.194289,-0.093401l0.009252,-0.079391l0.041633,-0.060711l0.263678,-0.056041l0.092518,0.01401l0.050885,-0.01868l0.009252,-0.056041l0.055511,-0.042031l0.157281,-0.01401l0.180411,-0.074721l0.064763,-0.051371l0.074015,-0.02802l0.111022,0.00467l0.097144,-0.00934l0.087893,-0.065381l0.120274,-0.051371l0.467218,-0.046701l0.282181,-0.070051l0.157281,-0.126092l0.143404,-0.03269l0.069389,-0.070051l0.245174,-0.074721l0.083267,-0.02335l0.111022,-0.079391l0.171159,-0.01868l0.10177,-0.056041l0.217418,-0.03269l0.041633,-0.01868l0.092518,-0.158782l0.171159,-0.070051l0.074015,-0.056041l0.208167,-0.102741l0.087893,-0.126092l0.138778,-0.140102l0.2498,-0.098071l0.046259,-0.079391l0.041633,-0.042031l0.041633,-0.051371l0.004626,-0.060711l0.166533,-0.093401l0.245174,-0.074721l0.046259,-0.084061l0.180411,-0.098071l0.074015,-0.070051l0.097144,-0.042031l-0.004626,-0.03269l-0.041633,-0.00467l0.004626,-0.051371l0.060137,-0.051371l0.143404,-0.051371l0.078641,-0.065381l0.046259,-0.084061l0.240548,-0.186803l0.046259,-0.140102l0.222044,-0.415636l0.10177,-0.074721l0.037007,-0.093401l-0.009252,-0.074721l0.092518,-0.256854l-0.018504,-0.121422l0.041633,-0.093401l0.138778,-0.158782l0.02313,-0.065381l-0.004626,-0.079391l0.018504,-0.065381l0.106396,-0.135432l0.02313,-0.074721l-0.032381,-0.144772l0.032381,-0.163452l0.02313,-0.070051l0.078641,-0.070051l0.004626,-0.03269l-0.037007,-0.037361l0.009252,-0.088731l0.060137,-0.088731l0.013878,-0.163452l-0.004626,-0.121422l0.129526,-0.345585l0.009252,-0.070051v-0.121422l0.074015,-0.163452l-0.004626,-0.079391l-0.055511,-0.084061l-0.064763,-0.392286l-0.018504,-0.233503l0.032381,-0.107412l0.004626,-0.387615l0.013878,-0.387615l0.027756,-0.098071l-0.013878,-0.256854l-0.02313,-0.163452l-0.097144,-0.252184l-0.027756,-0.135432l-0.037007,-0.112082l-0.087893,-0.121422l-0.050885,-0.186803l-0.060137,-0.378275l-0.064763,-0.359595l-0.138778,-0.396956l-0.296059,-0.509037l-0.175785,-0.280204l-0.097144,-0.093401l-0.120274,-0.01868l-0.185037,-0.116752l-0.087893,-0.172792l-0.060137,-0.065381l-0.1249,-0.02802l-0.166533,-0.121422l-0.083267,-0.214823l-0.004626,-0.233503l0.066305,-0.015567l0.040091,-0.037361l-0.021588,-0.024907l-0.070931,-0.001557l-0.052427,-0.029577v-0.046701l-0.024672,-0.043587l-0.052427,-0.012454l-0.055511,-0.110525l-0.01542,-0.082504l0.018504,-0.031134l0.052427,-0.006227l0.041633,-0.034247l-0.013878,-0.046701l-0.055511,0.00467l-0.018504,0.03269l-0.087893,0.01401l-0.087893,-0.074721l-0.092518,-0.03269l-0.180411,-0.252184l-0.097144,-0.308224l0.018504,-0.107412l-0.013878,-0.042031l-0.064763,-0.051371l-0.083267,-0.191473l-0.02313,-0.168122l-0.069389,-0.210153l-0.060137,-0.079391l-0.078641,-0.368935l-0.092518,-0.350255l0.004626,-0.140102l-0.009252,-0.084061l-0.097144,-0.289544l-0.111022,-0.490357l-0.004626,-0.056041l-0.032381,-0.056041l-0.171159,-0.149442l-0.050885,-0.00467l-0.018504,0.060711l-0.064763,0.051371l-0.120274,0.01401l-0.02313,0.046701l0.046259,0.079391l-0.027756,0.098071l-0.092518,0.056041l-0.333066,0.00467l-0.152655,-0.098071l-0.027756,-0.107412l-0.027756,-0.065381l-0.111022,-0.046701l-0.134152,0.01868l-0.060137,0.088731l-0.055511,0.037361l-0.064763,-0.060711l0.018504,-0.065381l0.129526,-0.116752l0.027756,-0.074721l0.060137,-0.03269l0.14803,0.070051l0.027756,0.098071l0.106396,0.060711l0.064763,-0.056041l-0.083267,-0.140102l-0.037007,-0.144772l0.041633,-0.056041l0.175785,-0.00934l0.037007,0.051371l-0.055511,0.126092l0.050885,0.037361l0.092518,-0.042031l0.009252,-0.093401l-0.152655,-0.242843l-0.02313,-0.149442l0.027756,-0.070051v-0.205483l-0.166533,-0.158782l-0.143404,-0.322235l-0.180411,-0.214823l-0.087893,-0.051371l-0.277555,-0.382945l-0.037007,-0.140102l-0.092518,-0.084061l-0.083267,0.00467l-0.171159,-0.135432l-0.180411,-0.331575l-0.078641,-0.042031l-0.300685,-0.452996l-0.337692,-0.611779l-0.282181,-0.495027l-0.089435,-0.367379l-0.289891,-0.49814l-0.376242,-0.298884l-0.481096,-0.473233l-0.400913,-0.330018l-0.092518,-0.049814l-0.011565,0.042177l0.063896,0.089315l-0.027659,0.036631l-0.123358,-0.01868l-0.067847,0.037361l-0.197373,-0.049814l-0.012336,-0.087175l-0.055511,-0.024907l-0.067847,0.031134l-0.302227,-0.143215l-0.049343,-0.093401l-0.067847,-0.012454l-0.104854,0.068494l-0.086351,-0.012454l-0.037007,-0.068494h-0.055511l-0.030839,0.056041l-0.135694,0.031134l-0.049343,0.087175l-0.23438,0.074721l-0.055511,-0.043587l-0.043175,0.024907l-0.006168,0.080948l-0.172701,0.012454l-0.252884,-0.01868l-0.161907,-0.015567l-0.060137,-0.046701l0.018504,-0.037361h0.166533l0.027756,-0.051371l-0.089362,-0.044808l-0.055583,-0.04081l0.018504,-0.043587l0.144946,0.045144l0.027756,-0.020237l-0.291433,-0.171236l-0.090976,-0.015567l-0.049343,-0.024907l-0.043175,-0.074721l-0.104854,-0.01868l-0.080183,0.031134l-0.246716,-0.124535l-0.074015,-0.105855l-0.203541,-0.124535l-0.235922,-0.074721l-0.046259,0.01868l0.004626,0.051371l0.222044,0.104298l0.431753,0.336245l0.209709,0.261524l-0.018504,0.112082l-0.092518,0.037361l-0.123358,0.168122l-0.296059,0.168122l-0.26522,0.093401l-0.080183,0.068494v0.136989l0.067847,0.087175l-0.074015,0.080948v0.099628l0.086351,0.031134l0.11719,-0.006227l0.080183,0.024907l0.14803,0.130762l0.006168,0.080948l-0.061679,0.056041v0.074721l0.061679,0.080948v0.24907l-0.092518,0.168122l-0.055511,0.261524l-0.086351,0.087175l-0.055511,0.155669l-0.049343,0.354925l-0.074015,0.093401l-0.104854,0.21171l-0.080183,0.043587l-0.098686,0.012454l-0.154197,0.130762l-0.030839,0.112082l-0.111022,0.049814l-0.086351,0.062268l-0.043175,0.087175l-0.111022,0.012454l-0.067847,-0.043587l-0.024672,-0.130762l0.049343,-0.031134v-0.056041l-0.222044,-0.118308l-0.129526,-0.161896l0.030839,-0.043587l0.154197,0.068494l0.111022,0.087175l0.061679,0.012454l-0.018504,-0.043587l-0.080183,-0.062268l-0.160365,-0.21171l-0.283723,-0.186803l-0.403997,-0.127648l-0.496516,-0.02802l-0.089435,0.02802l-0.01542,0.034247l0.021588,0.096515l-0.067847,0.043587h-0.166533l-0.027756,0.024907l0.052427,0.012454l0.135694,-0.006227l0.080183,-0.02802l0.098686,-0.006227l0.305311,0.084061l0.413249,0.23039l0.262136,0.227277l0.185037,0.242843l0.231296,0.358038l0.040091,0.118308l-0.009252,0.124535l-0.067847,0.236617l-0.021588,0.105855l0.01542,0.108968l0.089435,0.080948l0.178869,0.376719l0.003084,0.068494l-0.037007,0.034247l-0.024672,0.052927l0.012336,0.183689l-0.01542,0.093401l-0.037007,0.034247l-0.003084,0.090288l0.018504,0.084061l-0.024672,0.108968l-0.074015,0.037361l-0.070931,0.115195l-0.012336,0.080948l0.006168,0.149442l-0.018504,0.071608l-0.080183,0.01868l-0.092518,0.049814l-0.074015,0.00934l-0.024672,-0.024907l-0.037007,0.006227l-0.009252,0.068494l-0.024672,0.485687l-0.024672,0.056041l-0.077099,0.059154l-0.052427,0.102741l0.012336,0.45144l-0.040091,0.040474l-0.037007,0.127648l0.021588,0.080948l-0.01542,0.121422l-0.058595,0.059154l-0.058595,0.121422l-0.040091,0.174349l-0.11719,0.040474v0.056041l0.13261,0.090288l0.046259,0.084061l0.01542,0.105855l-0.024672,0.031134l0.018504,0.099628l0.064763,0.068494l0.018504,0.124535l-0.089435,0.071608l-0.024672,0.112082l-0.10177,0.127648l-0.052427,-0.021794l-0.01542,0.01868l0.040091,0.049814l-0.003084,0.02802l-0.033923,0.006227l0.006168,0.046701l0.157281,0.140102l0.120274,0.183689l-0.01542,0.093401l-0.064763,0.021794l-0.021588,0.034247l0.018504,0.065381l-0.037007,0.02802l-0.209709,-0.012454l-0.222044,-0.068494l-0.086351,-0.158782l0.043175,-0.115195v-0.056041l-0.01542,-0.049814l0.009252,-0.049814l0.058595,-0.034247l-0.006168,-0.024907l-0.095602,-0.043587l-0.033923,-0.096515l0.021588,-0.105855v-0.084061l-0.033923,-0.046701l-0.003084,-0.093401l0.052427,-0.043587l0.046259,-0.118308l0.021588,-0.149442l-0.040091,-0.056041l-0.009252,-0.074721l0.104854,-0.115195l0.040091,0.015567l0.01542,0.031134l0.040091,-0.00934l-0.003084,-0.065381l-0.024672,-0.080948l0.074015,-0.108968l-0.033923,-0.031134l-0.052427,0.015567l-0.104854,0.133875l-0.083459,0.067327l-0.017203,-0.004962l0.034405,-0.047138l0.007373,-0.066986l0.031948,-0.027291l0.068811,-0.019848l0.03932,-0.049619l0.017203,-0.0521h-0.022118l-0.034405,0.042177l-0.022118,-0.009924l0.031948,-0.066986l-0.012288,-0.069467l0.044235,-0.074429l0.03932,-0.014886v-0.02481l-0.034405,-0.007443l0.017203,-0.066986l0.044235,-0.079391l0.054065,-0.168706l0.041778,-0.07691l0.002458,-0.037215l-0.03932,-0.034734l0.017203,-0.027291l-0.017203,-0.007443l-0.044235,0.022329l-0.00983,0.071948v0.119087l-0.076183,0.17863l-0.00983,0.069467l-0.04915,0.116606l-0.058981,0.089315l-0.03932,0.200959l-0.00983,0.064505l-0.04915,0.064505l-0.108131,0.062024l-0.051608,-0.009924l-0.066353,0.049619l-0.007373,0.042177l0.027033,0.146377l0.034405,0.079391l0.022118,0.171187l-0.007373,0.168706l-0.01966,0.022329v0.037215l0.03932,0.084353l0.002458,0.17863l-0.012288,0.039696l0.002458,0.054581l0.110588,0.322526l0.054065,0.215845l0.071268,0.193516l0.127791,0.498675l0.095843,0.344855l0.063896,0.260502l0.071268,0.391994l0.024575,0.262983l-0.002458,0.300198l-0.014745,0.081872l-0.068811,0.037215l-0.012288,0.029772l0.014745,0.133973l0.004915,0.200959l0.002458,0.151339l0.031948,0.148858l0.024575,0.191035l0.088471,0.372146l0.061438,0.225768l0.036863,0.28035l0.063896,0.302679l0.02949,0.240654l-0.00983,0.334931l-0.035417,0.053414l-0.074015,0.037361Z M1645.858455,689.390978l0.037007,-0.012454l-0.030839,-0.046701l-0.049343,-0.015567l-0.012336,0.034247l0.055511,0.040474Z M1643.810713,696.473911l-0.009252,0.021794l0.018504,0.015567l0.027756,-0.01868l-0.006168,-0.021794l-0.030839,0.003113Z M1643.890992,696.154012v0.02481l0.024575,0.014886l0.022118,-0.014886l-0.012288,-0.02481h-0.034405Z M1643.831819,696.605987l0.005638,0.021161l0.028767,-0.003794v-0.022329l-0.01966,-0.012405l-0.014745,0.017367Z M1643.791101,696.777271l0.011645,0.031669l0.020302,-0.001897l0.004915,-0.032253l-0.022118,-0.014886l-0.014745,0.017367Z M1643.708702,696.211853l0.007373,0.02481l0.036863,-0.002481l0.012288,-0.022329l-0.027033,-0.012405l-0.02949,0.012405Z M1644.025722,696.966068l0.014745,-0.017367l-0.017203,-0.057062l-0.024575,-0.009924v0.034734l0.027033,0.049619Z M1643.627604,696.866829l-0.002458,0.02481l0.00983,0.022329l0.017203,-0.019848v-0.029772l-0.024575,0.002481Z M1643.870899,696.286282l-0.027033,-0.044658l-0.036863,-0.014886l-0.014745,0.029772l0.014745,0.042177l0.034405,0.017367l0.02949,-0.029772Z M1643.942167,696.110133l0.031948,-0.012405l-0.002458,-0.044658l-0.031948,-0.019848l-0.024575,0.007443l0.002458,0.039696l0.024575,0.029772Z M1644.015892,695.953831l0.017203,-0.019848l-0.022118,-0.054581l-0.004915,-0.054581l-0.02949,-0.022329l-0.017203,0.029772l0.024575,0.074429l0.031948,0.047138Z M1643.74065,696.66339l0.034405,-0.02481l-0.00983,-0.019848l-0.02949,0.007443l-0.014745,0.027291l0.01966,0.009924Z M1642.947208,691.009934l0.034405,-0.02481l-0.00983,-0.019848l-0.02949,0.007443l-0.014745,0.027291l0.01966,0.009924Z M1642.688252,690.970239v0.02481l0.024575,0.014886l0.022118,-0.014886l-0.012288,-0.02481h-0.034405Z M1642.830018,691.025501l0.024672,-0.012454l-0.033923,-0.034247h-0.037007l0.006168,0.031134l0.040091,0.015567Z M1642.61195,690.949622l-0.012866,0.017513l0.022118,0.012405l0.024575,-0.007443l0.007373,-0.019848l-0.0412,-0.002627Z M1644.023506,695.390456l-0.006168,-0.034247l-0.006168,-0.080948l-0.018504,-0.003113l-0.009252,0.080948l0.024672,0.056041l0.01542,-0.01868Z M1643.99575,695.22856h0.024672l0.024672,-0.056041l-0.021588,-0.012454l-0.027756,0.021794v0.046701Z M1643.981487,695.120225h0.027033l-0.014745,-0.022329l-0.058981,-0.047138l-0.061438,-0.133973l-0.017203,-0.119087l0.058981,-0.171187l-0.024575,-0.104201l-0.022118,-0.009924l-0.007373,0.02481l0.01966,0.079391l-0.007373,0.044658l-0.04915,0.086834l-0.002458,0.059543l0.034405,0.131492l0.061438,0.129011l0.063896,0.0521Z "/>
</svg>
