<svg xmlns="http://www.w3.org/2000/svg" viewBox="1041.348 694.424 27.167 27.779">
  <path d="M1049.356035,694.851245l0.042,-0.037l0.111,-0.005l0.135,0.019l0.046,0.056l0.107,-0.005l0.102,-0.107l0.185,-0.111l0.042,-0.065l0.204,0.005l0.047,-0.051h0.046l0.065,0.125l0.056,0.005l0.051,-0.047l0.093,0.005l0.19,0.13l0.014,0.093l-0.112,0.227l0.024,0.148l0.069,0.014l0.126,-0.065l0.25,-0.065l0.288,-0.255l0.227,-0.093l0.371,-0.009l0.07,0.06l0.088,-0.009l0.046,-0.056l0.13,-0.009l0.098,-0.023l0.009,-0.065l-0.051,-0.06l0.014,-0.065l0.083,-0.023l0.07,-0.084l0.107,-0.005l0.185,0.158l0.014,0.084l-0.088,0.018l-0.014,0.084l0.07,0.195l0.069,0.055l0.024,0.126l0.046,0.004l0.074,-0.088l-0.018,-0.079l0.032,-0.125l0.135,-0.088l0.074,-0.005l0.083,0.037v0.102l0.051,0.037h0.089l0.065,0.144l-0.079,0.116l-0.126,0.079l-0.018,0.098l0.083,0.046l0.102,-0.042l0.168,-0.009l0.055,-0.028l-0.004,-0.06l0.051,-0.023l0.148,0.12l0.074,0.139l0.311,0.056l0.181,0.167l-0.014,0.074l-0.069,-0.009l-0.154,0.116l-0.018,0.056l0.042,0.06l0.055,0.005l0.037,0.051l-0.023,0.093l0.051,0.055l0.01,0.074l-0.107,0.158l0.028,0.209l-0.061,0.093l0.01,0.06l0.134,0.046h0.139l0.07,0.065l-0.023,0.158l0.051,0.116l-0.009,0.112l0.06,0.125v0.093l-0.116,0.204l0.037,0.032l0.059,-0.059l0.21,-0.074l0.081,0.031l-0.013,0.266l-0.198,0.173l-0.037,0.149l0.019,0.086l-0.007,0.155l0.044,0.186l-0.025,0.117l0.037,0.18l0.081,0.117l0.018,0.081l0.142,0.173l0.106,-0.006l0.08,0.123l0.099,0.248l-0.186,0.377l-0.012,0.291l0.08,0.13l0.062,0.025l-0.018,0.142l-0.105,0.111l-0.099,0.272l-0.062,0.081l-0.037,0.148l-0.062,0.019l-0.019,0.049l0.037,0.068l-0.049,0.118l-0.229,0.179l-0.062,0.112v0.086l-0.093,0.242l0.006,0.086l0.05,0.006l0.049,-0.167l0.242,-0.129l0.055,-0.075l0.075,-0.006l0.043,0.105v0.118l0.062,0.006l0.074,-0.099l0.124,-0.043v-0.068l0.068,-0.05l0.136,0.019l0.068,-0.05l0.136,0.05l0.081,0.105l-0.013,0.136l0.043,0.087h0.137l0.148,-0.075l0.167,0.013l0.087,0.055l0.006,0.384l0.117,0.13l0.118,0.155l0.117,0.049l0.118,-0.012l0.062,0.037l-0.025,0.086l0.099,0.05l0.062,0.142l-0.043,0.074l-0.019,0.093l0.05,0.013l0.074,-0.05l0.099,0.031l0.142,-0.049l0.111,-0.161l0.124,-0.087l0.347,-0.056l0.012,-0.092l0.056,-0.025l0.062,0.043l0.049,-0.018l0.019,-0.118l0.092,-0.018l0.124,0.173h0.099l0.105,0.031l0.118,-0.031l0.111,-0.087l0.019,-0.185l-0.068,-0.106l-0.031,-0.198l0.08,-0.061l0.149,-0.279l0.123,-0.062l0.081,0.006l0.055,-0.043l0.031,-0.155l-0.024,-0.074l0.049,-0.055h0.062l0.34,-0.396l-0.031,-0.205l-0.043,-0.043v-0.173l0.074,-0.223l-0.006,-0.173l0.124,-0.179l0.068,-0.019l0.025,-0.049l-0.038,-0.05l0.044,-0.074l0.826,-0.027l-0.056,0.093l0.028,0.194l-0.093,0.195l0.65,0.473l0.037,0.117l0.093,0.05l0.068,-0.025l0.092,0.031l0.025,0.142l0.043,0.093l0.062,0.291l-0.049,0.117l0.012,0.093l0.081,0.081l-0.007,0.284l0.056,0.285l0.179,0.223l0.075,0.148l-0.081,0.087l0.013,0.111l0.092,0.031l0.192,0.216l0.248,0.149l0.006,0.136l-0.099,0.118l0.006,0.123l-0.049,0.235l0.068,0.341l0.105,0.204l-0.056,0.093l-0.179,0.092l-0.068,0.099l0.006,0.174l0.105,0.148l-0.025,0.074l-0.093,-0.012l-0.061,0.093l0.055,0.148h0.081l0.055,0.031l-0.136,0.179l0.019,0.124l-0.056,0.074l-0.074,0.013l-0.031,0.099l0.031,0.099l-0.05,0.074l-0.086,0.025l-0.149,0.222l-0.16,0.13l0.018,0.13l-0.192,0.143l-0.099,-0.019l-0.062,0.043l-0.012,0.13l-0.192,0.081l-0.161,0.154l-0.111,-0.062l-0.056,0.038l0.075,0.204l-0.075,0.055l-0.099,-0.012l-0.068,0.037l0.013,0.13l-0.093,0.118h-0.111l-0.05,0.08l0.081,0.08l0.228,0.007l0.167,0.142l0.13,0.192l0.143,0.092l0.086,-0.018l0.025,-0.105l0.056,-0.074l0.018,-0.223l0.099,0.006l0.062,0.173l0.229,0.167l0.012,0.068l-0.055,0.044l0.111,0.334l-0.093,0.062l-0.012,0.08l0.124,0.049l0.21,-0.105h0.142l0.112,0.068l0.297,0.099l0.018,0.062l-0.08,0.019l-0.013,0.074l0.266,-0.006l0.118,0.062l0.21,0.062l0.074,0.092l0.167,0.062l0.353,-0.086l0.099,-0.068l0.217,-0.007l0.037,-0.062l0.216,-0.055l0.112,0.006l0.055,0.111l0.118,0.025l0.056,0.068l0.068,0.006l0.043,-0.055l0.062,0.006l0.012,0.08l0.074,0.013l0.05,-0.037l0.099,0.018l0.099,0.186l0.408,0.34l0.012,0.093l-0.092,0.024l0.018,0.149l-0.099,0.087l-0.006,0.315l0.031,0.136l0.062,0.013l0.068,-0.093h0.167l0.087,0.13l-0.05,0.08l0.012,0.068l0.149,0.081v0.08l-0.118,0.099l-0.012,0.192l0.111,0.037l0.05,0.062l-0.006,0.068l0.123,0.13l0.118,0.043l0.272,0.21l0.068,-0.031l-0.031,-0.123l0.044,-0.136l0.086,-0.007l0.056,0.192l0.247,0.081l0.031,0.068l0.081,0.031l0.074,-0.044l0.179,0.099l-0.006,0.124l0.068,0.167h0.081l0.049,-0.105h0.111l0.019,0.099l0.186,0.148l0.08,-0.006l0.062,-0.284h0.117l0.118,0.111l-0.006,0.179l-0.074,0.062l0.006,0.099l0.074,0.05l0.012,0.092l-0.086,0.056l-0.019,0.074l0.068,0.254l0.124,0.192l0.043,0.21l0.198,0.204l0.006,0.198l-0.105,0.074l-0.025,0.186l0.081,0.111l-0.006,0.075h-0.093l-0.031,0.049l0.043,0.062l-0.068,0.111l-0.08,0.037l-0.031,0.087l0.049,0.186l-0.055,0.055l-0.112,-0.031l-0.043,0.05l0.093,0.13l0.074,0.167l0.13,0.105l0.068,-0.006l0.031,-0.093l0.068,0.006l-0.037,0.248l0.08,0.08l-0.006,0.062l-0.086,0.031l-0.05,0.074l-0.012,0.142l-0.106,0.18l-0.086,-0.006l-0.006,-0.112l0.068,-0.117l-0.044,-0.044l-0.216,0.143l-0.13,0.012l-0.025,0.074l0.099,0.087v0.111l-0.117,0.05l-0.025,0.105l0.056,0.043l0.049,0.248l-0.093,0.266l-0.086,0.068l-0.013,0.099l-0.062,0.037l-0.074,-0.074l-0.216,0.13l-0.037,0.099l0.055,0.191l-0.024,0.118l0.006,0.093l0.068,0.068l-0.006,0.117l-0.099,0.044l-0.007,0.055l0.106,0.031l0.037,0.155l0.055,0.13l-0.049,0.049l-0.093,-0.055l-0.093,0.006l-0.018,0.074l-0.192,0.031l-0.025,0.08l0.062,0.13l0.05,0.322l-0.062,0.043l0.012,0.161l0.192,0.074l0.025,0.062l-0.05,0.05l0.065,0.473h-0.074l-0.037,0.083l0.071,0.05l0.003,0.071l-0.074,0.037l-0.01,0.084l0.084,0.028l0.074,0.213l-0.028,0.102l-0.111,0.037l-0.019,0.093l0.093,0.121l0.037,0.436l-0.092,0.213l0.083,0.093l0.009,0.093l-0.092,0.158l0.009,0.12l0.185,0.084l0.065,0.102l-0.362,0.004l-0.06,0.033l-0.218,-0.028l-0.158,-0.097l-0.167,-0.01l-0.144,0.042l-0.171,-0.032l-0.065,-0.065l-0.116,-0.033h-0.135l-0.069,-0.032l-0.028,-0.051l-0.07,-0.065l-0.144,-0.019l-0.023,-0.051l0.019,-0.06l-0.047,-0.139l-0.227,-0.126l-0.52,-0.157l-0.116,-0.112l-1.234,-0.274l-0.422,-0.041l-0.292,-0.075l-0.042,-0.078l-0.098,-0.065l-0.078,-0.014l-0.056,-0.028l-0.033,-0.084l-0.148,-0.111l-0.325,-0.116l-0.325,-0.065l-0.297,-0.199l-0.055,-0.107l-0.297,-0.209l-0.603,-0.292l-0.45,-0.158h-0.112l-0.134,-0.051l-0.061,-0.102l-0.19,-0.107l-0.121,-0.009l-0.222,-0.149l-0.056,-0.102l-0.227,-0.13l-0.014,-0.078l-0.167,-0.126l-0.46,-0.162l-0.603,-0.163l-0.018,-0.046l0.032,-0.06l-0.046,-0.075l-0.501,-0.25l-0.061,-0.121l-0.44,-0.213l-0.093,-0.098l-0.557,-0.227l-0.014,-0.037l0.042,-0.023l0.005,-0.084l-0.126,-0.125l-0.417,-0.237l-0.093,-0.134l-0.362,-0.251l-0.065,-0.106l-0.172,-0.209l-0.079,-0.051l-0.037,-0.061l0.005,-0.116l-0.056,-0.13l-0.25,-0.157l-0.195,-0.107l-0.144,-0.037l-0.009,-0.047l0.102,-0.092l-0.051,-0.098l-0.135,-0.116l-0.38,-0.218l-0.232,-0.204l-0.297,-0.209l-0.125,-0.065l-0.209,-0.181l-0.088,-0.125l-0.223,-0.199l-0.07,-0.13l-0.185,-0.186l-0.167,-0.065l-0.316,-0.278l-0.046,-0.075l-0.316,-0.213l-0.079,-0.135l-0.236,-0.208l-0.019,-0.07l0.019,-0.051l-0.037,-0.144l-0.056,-0.069l0.005,-0.075l0.13,-0.111l0.046,-0.056v-0.116l-0.042,-0.004l-0.028,0.102l-0.037,0.046l-0.107,0.112l-0.055,0.009l-0.325,-0.167l-0.074,-0.084l-0.112,-0.069l-0.167,-0.047l-0.088,-0.065l-0.106,-0.218l-0.205,-0.204l-0.57,-0.274l-0.195,-0.041l-0.079,-0.093l0.019,-0.13l-0.121,-0.06l-0.121,-0.005l-0.482,-0.19l-0.956,-0.283l-0.381,-0.084l-0.116,-0.065l-0.037,-0.074l-0.097,-0.07l-0.297,-0.097l-0.227,-0.139l-0.056,-0.121l0.018,-0.102l0.084,-0.116l-0.023,-0.19l-0.181,-0.26l-0.274,-0.297l-0.696,-0.473l-0.905,-0.441l-0.835,-0.357l-0.835,-0.33l-0.158,-0.227l0.005,-0.065l0.113,-0.08l0.031,-0.099l-0.118,-0.322l-0.216,-0.248l-0.266,-0.148l-0.062,-0.099l-0.122,-0.071l-0.079,-0.098l0.106,-0.023l0.075,0.019l0.051,-0.014l0.018,-0.065l0.116,-0.037l0.098,0.009l0.009,-0.042l-0.065,-0.13l0.019,-0.032l0.046,0.005l0.032,-0.028l-0.009,-0.051l0.042,-0.033l0.07,0.005l0.037,-0.028l0.011,-0.104l0.16,-0.111l-0.006,-0.105l0.037,-0.056l-0.006,-0.062l-0.068,-0.08l0.068,-0.068l0.186,0.025l0.043,-0.038l-0.043,-0.235l-0.112,-0.154l0.038,-0.05l0.061,0.013l0.044,-0.025l-0.013,-0.081l0.075,-0.068l0.074,-0.272l0.062,-0.006l0.024,0.074l0.056,-0.018l0.081,-0.198l0.055,-0.019l0.056,0.037l0.074,-0.006l0.081,-0.105l0.154,0.006l0.198,-0.136l0.006,-0.118l0.068,-0.123l0.075,-0.025l0.099,-0.111l0.012,-0.093l0.068,-0.074l0.043,-0.106l0.211,-0.173l0.117,-0.018l0.112,-0.062l0.129,-0.155l0.186,-0.105l0.031,-0.08l0.198,-0.124l0.037,-0.087l0.204,-0.148h0.068l0.025,0.074l0.056,0.006l0.012,-0.049l0.167,-0.124l0.068,-0.019l0.217,-0.142l0.148,-0.136l0.013,-0.074l0.08,-0.105l0.074,-0.013l0.05,-0.062l0.006,-0.105l0.087,-0.08l0.03,-0.081l0.137,-0.105l0.024,-0.062l0.13,-0.117l0.019,-0.075l0.117,-0.092l0.006,-0.112l0.168,-0.105l0.08,-0.006l0.062,-0.031l0.012,-0.062l0.081,-0.043l0.142,-0.006l0.133,-0.053v-1.748l0.198,-0.065l0.114,-0.188l0.078,-0.071l0.136,-0.211l0.012,-0.058l0.145,-0.124h0.087l0.108,-0.031l0.059,-0.047h0.111l0.124,0.05l0.167,-0.006l0.04,0.025l0.047,-0.019l0.012,-0.077l0.071,-0.019l0.17,0.077l0.041,-0.006l0.083,-0.099l0.071,-0.164l0.034,-0.021h0.078l0.034,-0.025l0.034,-0.142l-0.034,-0.062l0.012,-0.04l-0.015,-0.031l-0.044,-0.003l-0.015,-0.031l0.006,-0.065l-0.065,-0.149l0.003,-0.068l0.102,-0.065l0.025,-0.062l0.018,-0.151l0.031,-0.05l-0.006,-0.154l0.031,-0.028l0.009,-0.056l-0.027,-0.046l0.018,-0.065l0.059,-0.016l0.031,-0.192l-0.04,-0.034l0.003,-0.043l0.037,-0.059v-0.055l-0.043,-0.065v-0.034l0.037,-0.028v-0.034l-0.022,-0.07z"/>
</svg>
