<svg xmlns="http://www.w3.org/2000/svg" viewBox="1295.458 944.777 16.127 15.201">
  <path d="M1302.724302,959.97767l-0.199,-0.153l-0.524,0.027l-0.078,-0.05l-0.098,0.018l-0.227,-0.073l-0.13,-0.155l0.01,-0.1l-0.056,-0.055l-0.097,0.005l-0.13,0.082l-0.375,0.014l-0.149,0.027l-0.139,-0.014l-0.143,-0.077l-0.098,-0.014l-0.055,-0.041l-0.009,-0.068l-0.13,-0.151l-0.121,-0.068l-0.028,-0.123l-0.083,-0.055l-0.069,-0.023l-0.107,-0.1l-0.097,-0.018l-0.113,-0.085l0.004,-0.061l-0.042,-0.011l-0.052,0.007l-0.007,-0.037l0.056,-0.048l-0.011,-0.086l-0.094,-0.109l0.035,-0.055l-0.028,-0.024l-0.163,0.017l-0.056,-0.075l0.021,-0.086l-0.087,-0.174l-0.118,-0.086l-0.035,-0.054l-0.107,-0.004l-0.049,0.041l-0.056,-0.03l0.007,-0.076l-0.035,-0.017l-0.048,0.011l-0.025,-0.018v-0.061l-0.076,-0.079v-0.205l-0.052,-0.062l-0.09,-0.003l-0.08,0.065l-0.132,0.007l-0.157,0.102l-0.083,0.007l-0.045,-0.075l0.059,-0.058l0.045,-0.079l-0.004,-0.041l-0.073,-0.024v-0.034l0.035,-0.044l-0.007,-0.065l-0.049,-0.041l-0.048,0.02l-0.035,-0.027l-0.003,-0.12l0.02,-0.085l-0.013,-0.24l0.034,-0.072l-0.024,-0.072l0.021,-0.02l0.062,0.024l0.039,-0.031l-0.007,-0.082l0.128,-0.15l0.004,-0.055l-0.045,-0.069l-0.07,0.018l-0.212,0.003l-0.118,0.038l-0.077,-0.014l-0.205,-0.66l-0.09,-0.065l-0.083,-0.031l-0.028,-0.065l0.024,-0.041l-0.01,-0.031h-0.105l-0.114,-0.109l-0.115,0.01l-0.007,-0.024l0.049,-0.038l-0.021,-0.092l-0.82,-1.898l-0.268,-0.209l-0.104,-0.15l-0.181,-0.127l0.007,-0.068l0.08,-0.072v-0.051l-0.049,-0.089l0.011,-0.041l0.08,-0.014l0.048,0.041l0.038,0.092l0.063,0.031l0.038,-0.013l0.032,-0.11l0.003,-0.164l0.038,0.003l0.07,0.113l0.052,-0.01l0.097,-0.082l0.025,-0.082l0.114,-0.106l0.122,-0.021l0.059,-0.075l0.087,-0.01l0.163,0.065h0.087l0.042,-0.093l0.076,-0.078h0.049l0.035,0.061h0.083l0.049,-0.044l0.028,-0.096l0.1,-0.051l0.112,0.055l0.08,-0.004l0.017,-0.058l-0.028,-0.096l0.038,-0.123l0.132,-0.092l0.053,-0.004l0.093,0.048h0.07l0.028,-0.041l-0.004,-0.055l-0.045,-0.065l0.01,-0.106l0.101,-0.037l0.063,-0.069l0.08,-0.184l0.028,-0.004l0.066,0.024l0.097,-0.055l-0.011,-0.133l-0.093,-0.089l-0.007,-0.075l0.031,-0.007l0.101,0.065l0.048,-0.02l0.018,-0.271l0.205,-0.099l-0.004,-0.044l-0.083,-0.082l0.021,-0.048l0.128,-0.014l0.056,0.072l0.031,-0.004l-0.007,-0.075l0.059,-0.061l0.105,-0.017l0.076,-0.124l0.111,-0.044l0.028,-0.075l-0.087,-0.072l-0.069,0.027l-0.025,-0.013l0.021,-0.059l-0.045,-0.065l0.052,-0.054l0.073,-0.007l0.118,-0.123l0.094,-0.034l0.066,-0.072l0.032,-0.113h0.059l0.055,0.027l0.094,-0.054l0.017,-0.079l-0.093,-0.106l0.059,-0.045l0.083,0.028l0.087,-0.052l-0.017,-0.068l0.027,-0.031l0.073,0.007l0.035,-0.089l-0.073,-0.13l0.042,-0.031l0.097,0.024l0.087,-0.048l-0.007,-0.092l-0.09,-0.044h-0.097l-0.049,-0.069l0.055,-0.044l0.094,0.034l0.056,-0.038l-0.007,-0.071l0.017,-0.031h0.073l0.007,-0.041l-0.021,-0.086l0.049,-0.041l0.111,0.052l0.042,-0.028l0.017,-0.109l-0.066,-0.052l0.011,-0.024l0.08,-0.01l0.034,-0.092l-0.006,-0.069l0.093,-0.136h0.046l0.041,0.027l0.059,-0.007v-0.085l0.046,-0.065l-0.018,-0.048l-0.055,-0.062v-0.061l0.055,0.007l0.091,0.068l0.076,0.003l0.031,0.028l0.028,0.048l0.156,0.01l0.053,-0.089h0.034l0.035,0.048l0.035,-0.007l0.031,-0.051h0.038l0.084,0.095l0.128,-0.003l0.07,-0.096l-0.004,-0.096l-0.059,-0.041l0.042,-0.041h0.132l0.035,-0.047l-0.004,-0.079l0.122,-0.103l0.056,0.01l0.121,0.096l0.039,0.082l0.118,0.028l0.066,-0.034h0.076l0.045,0.037l0.07,-0.003l0.028,-0.038l-0.042,-0.092l0.035,-0.048l0.177,-0.075l0.003,-0.059l-0.048,-0.071l0.017,-0.076l0.059,-0.02l0.087,0.01l0.08,-0.079l0.094,-0.246l0.083,-0.068l0.007,-0.099l0.035,-0.021l0.059,0.007l0.125,-0.116l0.066,-0.021l0.059,-0.085l0.08,-0.038l0.025,-0.079h0.027l0.035,0.106h0.094l0.16,-0.092h0.059l0.177,0.051l0.077,0.072l0.08,-0.007l0.09,-0.123l0.049,0.004l0.066,0.048h0.052l0.055,-0.065l0.046,-0.004l0.038,0.055l0.035,-0.01l0.087,-0.117l-0.046,-0.116l0.035,-0.024l0.063,-0.007l0.09,-0.126l0.073,-0.024l0.01,-0.045l-0.041,-0.048l0.01,-0.041l0.066,-0.013l0.084,0.041l0.08,-0.041l0.135,-0.017l0.094,-0.086h0.184l0.063,0.065l0.038,-0.003l0.073,-0.089l0.049,0.003l0.034,0.027l0.171,-0.013l0.055,0.034l0.164,-0.021l0.198,-0.188l0.069,0.004l0.077,-0.069h0.066l0.198,0.141l0.021,0.075l0.101,0.082l0.003,0.051l-0.038,0.041v0.076l-0.032,0.023v0.048l0.073,0.048l0.004,0.137l0.111,0.058l0.021,0.041l0.09,0.004l0.056,-0.024l0.056,0.007l0.149,0.112l0.087,0.007l0.09,0.072l0.011,0.079l-0.042,0.089l0.024,0.246l0.066,0.038l0.164,-0.113l0.132,-0.007l0.073,0.037l0.028,0.059l0.051,0.02l0.041,-0.004l0.042,-0.073l0.072,-0.03l0.048,0.016l0.026,0.068l0.111,0.025l0.06,0.055l-0.002,0.034l-0.058,0.012l-0.002,0.034l0.088,0.048l-0.005,0.036l-0.081,0.009l-0.065,0.046l0.03,0.055l0.058,0.007l0.054,0.057v0.12l0.034,0.032l-0.007,0.028l-0.055,0.02l-0.005,0.048l0.042,0.037l0.086,-0.003l0.007,0.035l-0.021,0.036l0.055,0.075l0.044,0.016l0.005,0.128l0.042,0.039l0.062,-0.007l0.028,-0.064l0.056,-0.014l0.055,-0.068l-0.009,-0.057l0.039,-0.032h0.044l0.04,0.059l0.014,0.08l0.06,0.068l0.007,0.041l0.171,0.007l0.056,0.037l0.002,0.105l0.024,0.018l0.092,0.002l0.067,0.071l0.051,0.016l0.121,0.112v0.025l-0.042,0.018l0.007,0.057l0.056,0.03l0.083,-0.005l0.081,0.084v0.035l0.028,0.02l0.1,0.009l0.067,0.069l0.102,0.016l0.095,0.082l-0.005,0.041l-0.03,0.032v0.052l0.083,0.027l0.028,0.041l0.005,0.069l0.144,0.123l0.009,0.055h0.055l0.123,-0.101l0.216,0.037l0.083,0.139l0.118,0.084l0.095,0.128l-0.007,0.062l-0.03,0.027l-0.009,0.052l-0.042,0.037l0.003,0.027l0.027,0.034l-0.002,0.06l-0.018,0.038l0.009,0.096l0.088,0.103l0.065,0.002l0.095,-0.016l0.178,0.089l0.007,0.052l-0.03,0.044l0.007,0.027l0.06,0.028l0.044,0.084l-0.004,0.03l-0.038,0.031l0.005,0.035l0.132,0.052l0.005,0.08l-0.019,0.03l0.003,0.047l0.03,0.053v0.057l-0.026,0.023l0.003,0.032l0.092,0.073l0.019,0.093l-0.003,0.046l-0.071,0.043v0.114l0.046,0.043l-0.002,0.044l-0.072,0.079l-0.007,0.062l-0.109,0.009l-0.023,0.043l0.014,0.076l-0.021,0.034l-0.07,0.027l-0.039,0.073l-0.005,0.057l0.023,0.03l-0.002,0.027l-0.111,0.057l-0.06,0.002l-0.028,0.03l-0.049,0.08l-0.053,-0.002l-0.053,-0.032h-0.042l-0.028,0.041h-0.076l-0.044,0.045l0.016,0.044l-0.012,0.025l-0.072,-0.003l-0.037,-0.02l-0.074,0.03v0.043l0.084,0.109l-0.005,0.044l-0.069,0.013v0.032l0.115,0.103l-0.004,0.075l-0.04,0.043l0.003,0.03l0.113,0.078l-0.007,0.059l-0.06,0.059l-0.178,0.005l-0.012,0.036l0.056,0.135l-0.007,0.057l-0.058,0.034l-0.003,0.034l0.019,0.041l-0.019,0.085l-0.083,0.006l-0.051,-0.025l-0.146,0.019l-0.03,-0.025l-0.03,0.006l-0.026,0.046l-0.067,0.014l-0.067,0.084l-0.046,0.007l-0.054,0.066l-0.034,0.002l-0.028,-0.013l-0.03,-0.003l-0.044,0.066l-0.049,-0.002l-0.021,0.023l-0.002,0.182l-0.084,0.06v0.093l0.017,0.039l0.002,0.036l-0.035,0.028l-0.042,-0.009l-0.016,0.022l0.014,0.11l-0.037,0.052l-0.044,0.009l-0.002,0.025l0.027,0.037l-0.044,0.182v0.053l0.051,0.061l-0.002,0.092l-0.035,0.034l-0.055,0.007l-0.042,0.052l-0.053,0.023l0.002,0.032l0.227,0.084l0.044,0.043l0.002,0.035l-0.018,0.027v0.034l0.044,0.028l0.076,-0.003l0.014,0.035l-0.018,0.127l0.053,0.057l-0.002,0.041l-0.091,0.06l-0.169,0.011l-0.069,0.061l-0.049,0.003l-0.021,0.039l-0.021,0.173l-0.134,-0.089l-0.137,0.162l-0.074,0.043l-0.074,0.005l-0.053,0.038v0.053l-0.035,0.02l-0.063,0.005l-0.148,0.096l-0.03,0.105l-0.046,0.041l-0.119,0.002l-0.051,0.046l-0.037,0.002l-0.053,-0.025l-0.032,0.009l-0.026,0.08l-0.081,0.029l-0.037,0.046l-0.056,0.004l-0.06,0.053l-0.132,0.023l-0.06,0.054l-0.084,0.003l-0.009,0.025l0.021,0.023l-0.021,0.047l-0.276,0.062l-0.115,0.007l-0.044,0.071l-0.093,-0.003l-0.079,-0.029l-0.086,0.006l-0.03,0.053l-0.218,0.05l-0.046,0.05l-0.118,0.012l-0.086,0.079l-0.074,0.003l-0.137,-0.064l-0.09,-0.002l-0.049,0.027l-0.076,-0.002l-0.294,-0.085h-0.16l-0.067,0.028l-0.026,0.054l-0.155,0.082l-0.021,0.039l-0.051,0.003l-0.056,-0.016h-0.051l-0.062,0.041l-0.139,0.013l-0.241,-0.084l-0.091,0.004l-0.037,0.094l-0.065,0.073l-0.104,0.004l-0.032,0.03l-0.102,0.262l-0.009,0.114l0.018,0.037l-0.028,0.034l-0.053,-0.002l-0.025,-0.028h-0.028l-0.03,0.053l-0.054,0.025l-0.03,0.071l-0.069,0.045l-0.107,-0.004l-0.083,-0.037l-0.049,-0.002l-0.06,0.045l-0.107,-0.004l-0.018,0.023l-0.012,0.054l-0.069,0.041l-0.095,0.11l-0.005,0.055l0.067,0.082l0.072,0.016l0.065,0.054l0.116,0.051v0.036l-0.024,0.037l0.003,0.061l0.106,0.096l-0.007,0.194l-0.062,0.141l-0.028,0.027l0.005,0.053l0.021,0.032l-0.017,0.023l-0.055,-0.003l-0.04,-0.05l-0.021,0.002l-0.062,0.119l-0.086,0.007l-0.053,0.043h-0.033l-0.034,-0.02h-0.077l-0.134,0.139l-0.012,0.057l-0.053,0.045l0.005,0.039l0.162,0.155l-0.007,0.064l-0.042,0.043l-0.004,0.05l0.025,0.06l-0.002,0.025l-0.054,0.018l-0.074,0.091v0.041l0.035,0.053l-0.019,0.134l-0.143,0.144l-0.065,0.011l-0.044,0.037l-0.049,0.007l-0.025,0.038v0.041l0.046,0.08l0.007,0.144l0.032,0.061l-0.006,0.103l-0.061,0.087z"/>
</svg>
