<svg xmlns="http://www.w3.org/2000/svg" viewBox="1255.495 332.469 38.824 23.549">
  <path d="M1257.574187,343.682611l0.182,-0.081l0.028,-0.066l0.038,-0.024l0.056,-0.004l0.052,-0.031l0.021,-0.06l0.199,-0.115l0.094,-0.01l0.032,-0.049h0.063l0.15,0.15l0.042,0.115l0.122,0.119l0.024,0.143l0.081,0.136l0.275,0.196l0.084,0.122l0.119,0.007l0.143,-0.102h0.185l0.129,0.074l0.084,0.028l0.077,-0.011l0.244,0.07l0.126,0.091l0.084,0.042l0.185,0.157l0.024,0.108l0.059,0.045l0.335,0.116l0.22,-0.004l0.105,0.056l0.112,0.129l0.084,0.028l0.09,0.004l0.105,0.041l0.042,0.053l0.188,0.059l0.238,0.042l0.105,-0.01l0.115,-0.084l0.209,-0.011l0.129,0.053v0.073l-0.052,0.108l0.014,0.129l0.087,0.129l0.185,0.084l0.21,-0.003l0.136,-0.067l0.024,-0.104l0.042,-0.056l0.14,-0.056l0.157,0.014l0.084,-0.007l0.146,-0.063l0.419,-0.028l0.374,0.014l0.352,0.08l0.227,0.004l0.234,0.077h0.154l0.366,-0.171l0.136,-0.007l0.077,-0.042l0.129,0.003v0.147l0.042,0.066v0.217l0.049,0.087l0.066,0.003l0.067,0.074l0.007,0.101l0.115,0.094l0.017,0.136l0.105,0.032l0.035,-0.032l-0.024,-0.104l0.041,-0.053l0.074,-0.003l0.07,0.108l0.129,0.018l0.115,0.101l0.021,0.084l0.112,0.115l0.108,0.017l0.014,0.053l-0.08,0.052l0.013,0.077l0.056,0.007l0.042,-0.056l0.07,-0.004l0.052,0.032l-0.003,0.111l0.049,0.046l0.052,-0.007l0.039,-0.049l0.09,0.003l0.178,0.151l0.028,0.083l-0.084,0.105v0.091l0.154,0.077l0.014,0.062l-0.042,0.056v0.046l0.112,0.035l0.017,0.059l-0.052,0.031l0.01,0.039l0.081,0.038l-0.018,0.039l-0.049,0.01l-0.028,0.091l0.032,0.063l-0.028,0.045l-0.105,-0.003l-0.045,0.045l0.024,0.063l-0.122,0.098l-0.108,-0.007l-0.059,0.034l-0.018,0.13h-0.052l-0.032,-0.042l-0.073,0.007l-0.192,0.188l-0.077,0.021l-0.024,0.108l0.063,0.049l-0.004,0.07l-0.119,0.063l-0.031,0.101l0.021,0.063l0.073,0.017l0.007,0.053l-0.056,0.031l0.011,0.049l0.15,0.084l0.007,0.059l-0.066,0.185l-0.112,0.032l-0.073,0.076l0.003,0.088l-0.22,0.15v0.073l0.091,0.045l0.003,0.063l0.07,0.053v0.045l-0.125,0.098l-0.011,0.066l-0.045,0.073l0.003,0.14l0.094,0.091l0.007,0.073l-0.034,0.073l0.01,0.081l0.038,0.084l0.004,0.157l0.042,0.059l0.171,0.059l0.049,0.074l0.035,0.146l0.115,0.318l0.171,0.199l0.143,-0.07l0.14,-0.3l0.122,-0.049l0.216,0.007l0.018,0.066l0.621,0.105l0.042,0.045l0.115,0.018l0.011,0.059l-0.06,0.105l0.007,0.056l0.074,0.042l0.223,0.028l0.119,0.076l-0.004,0.046l-0.063,0.031l-0.045,0.115v0.067l0.258,0.118l0.077,0.014l0.087,-0.021l0.168,-0.115h0.094l0.067,0.028l0.006,0.053l-0.027,0.059l0.031,0.042l0.23,0.045l0.098,0.056l0.185,0.23l0.101,0.011l0.15,-0.032l0.095,0.018l0.052,0.035l0.087,0.017l0.144,0.004l0.111,0.059l0.077,0.126l0.056,0.021l0.052,-0.007l0.063,0.042l0.007,0.055l0.063,0.049l0.038,0.123l0.119,0.108l0.017,0.087l0.046,0.031l0.195,0.025l0.171,0.178l0.07,0.185l-0.028,0.147l0.028,0.045l0.039,0.003l0.087,0.189l0.021,0.094l0.063,0.112l0.007,0.07l-0.025,0.268l-0.059,0.032l-0.035,0.052l0.007,0.056l-0.066,0.08l-0.053,0.004l-0.08,0.08l-0.004,0.08l0.112,0.178l0.108,0.067l0.014,0.056l0.075,0.019l0.07,0.076l0.089,0.015l0.026,0.022l0.039,0.004l0.058,-0.028l0.185,0.078l0.035,0.076l0.062,0.007l0.035,-0.028l0.109,-0.001l0.086,-0.054h0.076l0.049,0.024l0.2,-0.018l0.061,-0.033h0.083l0.196,0.089l0.079,0.004l0.126,0.135l0.009,0.051l-0.033,0.033l0.01,0.042l0.13,-0.005l0.135,-0.088l-0.005,-0.07l-0.088,-0.075l-0.005,-0.093l0.228,-0.172l0.149,0.005l0.103,0.098l0.088,0.004l0.121,-0.116l0.023,-0.126h0.075l0.037,0.056l0.079,0.037h0.084l0.093,0.056l0.056,0.103v0.065l-0.033,0.028l0.01,0.051l0.116,0.018l0.754,-0.13l0.009,-0.154l0.07,-0.032l0.051,0.032h0.149l0.07,-0.06l0.14,-0.014l0.098,-0.06l0.083,0.004l0.075,0.098l-0.005,0.056l0.117,0.056l0.121,-0.066l0.065,0.033l0.009,0.056l0.168,0.158l0.135,-0.014l0.023,0.037l-0.028,0.056l0.028,0.051l0.065,0.038l0.079,0.004l0.107,0.075l0.075,0.009l0.172,-0.06l0.288,-0.01l0.047,0.033l0.084,-0.009l0.065,-0.159l0.056,-0.018l0.042,-0.075l0.102,-0.037l0.112,-0.116l0.009,-0.103l0.075,-0.079l0.116,-0.009l0.214,-0.168l0.098,-0.004l0.251,-0.201l0.047,-0.004l0.056,0.028l0.167,0.004l0.075,-0.088l0.162,-0.005l0.056,0.079l-0.023,0.112l-0.051,0.047l-0.005,0.149l-0.037,0.055l0.023,0.042l0.298,-0.014l0.023,-0.037l-0.023,-0.074l0.117,-0.117l-0.014,-0.056l0.069,-0.009l0.075,0.037l0.158,-0.046l0.084,0.028l0.051,-0.028v-0.084l0.121,-0.121v-0.065l0.2,-0.037l0.014,-0.052l-0.074,-0.013l-0.051,0.037h-0.084l-0.089,-0.093l-0.014,-0.191l-0.158,-0.238l-0.14,-0.055l-0.041,-0.135l0.055,-0.038l0.08,0.01l0.218,-0.112l0.033,-0.042l-0.07,-0.074l0.023,-0.038l0.247,-0.042l0.061,0.024l0.549,-0.2l0.125,0.009l0.103,0.121v0.07l0.065,0.046l0.205,0.056l0.191,-0.004l0.069,0.037l0.066,-0.005l0.037,-0.079l0.084,-0.023l0.288,-0.335l0.144,-0.056l0.047,-0.107l0.165,-0.075l0.091,-0.129l0.011,-0.147l0.055,-0.062l0.018,-0.105l0.084,-0.042l0.069,0.007l0.028,0.056l0.056,-0.004l0.091,-0.157l0.056,-0.003l0.157,0.097l0.339,-0.01l0.108,-0.094l0.104,-0.039l0.07,0.028l0.07,-0.035l0.045,-0.08l0.161,-0.084h0.119l0.024,0.035l0.077,0.007l0.077,-0.031l0.003,-0.049l0.042,-0.021l0.046,0.024l0.038,-0.014l0.01,-0.052h0.063l0.063,0.098l-0.014,0.07l0.021,0.059l0.293,0.087v0.046l-0.038,0.028l-0.007,0.055l0.202,0.231v0.056l-0.062,0.017l-0.081,-0.045l-0.115,0.017l-0.014,0.056l0.105,0.084l0.007,0.077l-0.07,0.087l-0.241,0.07l-0.028,0.063l0.053,0.118l0.059,0.025l0.042,0.083l0.111,0.07l0.049,0.007l0.046,-0.031l0.216,0.045l0.014,0.032l0.15,0.024l0.046,0.15l0.038,0.007l0.031,-0.07l0.053,0.004l0.07,-0.077l0.132,-0.003l0.053,-0.07l0.003,-0.06l0.073,-0.052l0.011,-0.07l0.059,-0.017l0.147,0.118h0.045l0.039,-0.024h0.185l0.042,0.059l0.041,-0.007l0.004,-0.062l-0.063,-0.081v-0.08l-0.038,-0.028l-0.007,-0.042l0.045,-0.031l-0.007,-0.084l-0.185,-0.136l0.007,-0.06l0.224,-0.101l-0.004,-0.045l-0.066,-0.018l-0.129,-0.115l-0.032,-0.146l-0.08,-0.063l-0.098,-0.007l-0.045,0.031h-0.046l-0.045,-0.077v-0.094l0.035,-0.031l-0.004,-0.06l-0.178,-0.192l-0.101,-0.014l-0.073,0.07l-0.06,0.007l-0.052,-0.038h-0.049l-0.042,0.042l-0.063,0.003l-0.139,-0.052l-0.007,-0.032l-0.053,-0.01l-0.16,0.045h-0.045l-0.028,-0.049l0.028,-0.031l-0.014,-0.049l-0.102,-0.038l0.014,-0.046l0.112,-0.035l0.038,-0.139l0.067,-0.081l0.132,-0.038l0.039,-0.056l-0.06,-0.115l0.007,-0.084l0.039,-0.007l0.031,0.035l0.07,-0.003l0.157,-0.185v-0.088l-0.07,-0.195l0.028,-0.059l-0.042,-0.028l-0.052,0.024l-0.056,-0.014l0.007,-0.049l0.084,-0.073l0.126,-0.021l0.083,-0.129l0.049,-0.175l0.122,-0.209l0.102,-0.087l0.37,-0.189l0.087,-0.115l-0.004,-0.07l-0.048,-0.077l-0.032,-0.248l0.011,-0.041l-0.004,-0.063l-0.059,-0.046l-0.004,-0.056l0.018,-0.055l-0.004,-0.063l-0.115,-0.262l0.007,-0.056l0.042,-0.073l-0.007,-0.157l0.063,-0.105l-0.011,-0.307l0.035,-0.039v-0.069l-0.073,-0.137l-0.025,-0.153l0.007,-0.101l0.091,-0.13l0.157,-0.024l0.06,-0.112l-0.028,-0.129l0.038,-0.063l0.07,-0.014l0.122,-0.101l0.004,-0.056l0.073,-0.07l0.073,-0.017l0.119,-0.101l0.014,-0.231l0.052,-0.052l0.056,-0.004l0.07,-0.048l0.129,0.021l0.115,-0.025l0.136,-0.087l0.046,-0.053l0.234,-0.062l0.045,0.01l0.031,0.056l0.165,0.049l0.251,0.024l0.021,-0.024l-0.035,-0.032l0.021,-0.035l0.115,-0.02l0.018,-0.035l-0.028,-0.056l0.031,-0.053l0.189,-0.027l0.048,-0.042l0.014,-0.091l0.042,-0.021l0.081,0.031l0.073,-0.01l0.08,-0.046h0.203l0.09,-0.034l0.032,-0.049l-0.004,-0.077l0.018,-0.042l0.049,-0.014l0.143,-0.199v-0.119l0.038,-0.014l0.004,-0.038l-0.06,-0.038l0.004,-0.053l0.038,-0.028l0.053,-0.003l0.059,0.031l0.031,-0.017v-0.056l0.035,-0.014l0.004,-0.038l-0.112,-0.112l-0.059,-0.007l-0.053,-0.07l0.007,-0.091l0.126,-0.101l0.311,-0.042l0.038,-0.028l-0.035,-0.031l0.018,-0.032h0.122l0.024,-0.028l-0.035,-0.055l0.039,-0.018l0.052,0.014l0.073,-0.007l0.032,-0.042h0.105l0.153,0.077l0.004,0.059l0.038,0.004l0.073,-0.045l0.095,0.003l0.16,0.056l0.042,-0.011l0.035,0.014l-0.004,0.035l0.028,0.007l0.084,-0.07l0.028,-0.101l0.063,-0.059l0.059,-0.004l0.06,-0.045l0.083,-0.004l0.102,0.123l0.111,0.007l0.074,-0.056l0.087,0.007l0.059,-0.032l0.077,0.004l0.084,0.056l0.08,-0.007l0.161,-0.105h0.059l0.035,0.031l0.087,-0.017l0.007,-0.063l0.039,-0.031l0.083,0.017l0.053,-0.045l-0.018,-0.056l-0.111,-0.045l-0.039,-0.06l-0.007,-0.084l0.06,-0.055l0.055,-0.004l0.018,0.035l0.056,-0.004l0.15,-0.104l0.014,-0.067l-0.035,-0.104l0.007,-0.095l0.101,-0.108l0.087,-0.003l0.056,-0.042l0.119,-0.011l0.014,-0.052l0.038,-0.021l0.042,0.011l0.028,-0.007l0.021,-0.053l0.066,-0.031l0.119,0.007l0.035,-0.084l-0.004,-0.171l-0.118,-0.063l-0.021,-0.052l-0.14,-0.046l-0.07,0.021l-0.052,-0.003l-0.059,-0.042l-0.175,-0.007l-0.042,0.024l-0.077,-0.007l-0.132,-0.073l-0.129,-0.01l-0.084,-0.063h-0.035l-0.024,0.031h-0.07l-0.074,0.122h-0.048l-0.007,-0.09l-0.049,-0.004l-0.056,0.066l-0.098,0.028l-0.143,-0.017l-0.073,0.017l-0.07,-0.021l-0.056,-0.052l-0.297,-0.049l-0.049,-0.035l-0.132,-0.024l-0.053,0.014l-0.129,-0.025l-0.017,-0.042l0.024,-0.034l0.07,-0.004l0.073,-0.052l0.046,-0.105l0.08,-0.031l0.059,0.028l0.053,-0.018l0.038,-0.087l0.251,-0.074l0.025,-0.041l-0.032,-0.091l0.007,-0.046l0.053,-0.017l0.014,-0.045l-0.126,-0.217l0.014,-0.031l0.073,0.017l0.018,-0.024l-0.087,-0.074l0.003,-0.052l0.038,-0.052l0.046,-0.011l0.01,-0.052l-0.045,-0.108l-0.059,-0.011l-0.039,-0.045l0.007,-0.119l-0.07,-0.08l-0.003,-0.08l0.077,-0.095l0.09,-0.01l0.077,-0.056l0.091,-0.014l0.056,-0.038l0.01,-0.081l0.157,-0.153l0.067,0.003l0.028,-0.035l-0.004,-0.045l0.084,-0.171l0.003,-0.08l-0.028,-0.053l-0.007,-0.08l0.035,-0.37l-0.035,-0.073v-0.154l-0.009,-0.034l-0.095,-0.001l-0.108,0.049l-0.151,0.003l-0.048,-0.038h-0.116l-0.09,0.028l-0.091,-0.007l-0.06,-0.063l-0.062,-0.028l-0.046,0.014l-0.042,-0.017l-0.014,-0.06l-0.132,-0.087l-0.088,-0.003l-0.066,-0.035l-0.223,-0.032l-0.084,0.004l-0.063,0.038l-0.052,0.004l-0.074,-0.053l-0.048,-0.178l-0.123,-0.118h-0.083l-0.032,0.021l-0.066,-0.004l-0.094,-0.042l-0.238,-0.192l-0.08,-0.167l-0.164,-0.22l-0.011,-0.06l0.032,-0.052l-0.007,-0.154l-0.175,-0.209l-0.108,-0.073l-0.059,-0.007l-0.035,0.017h-0.042l-0.094,-0.091l-0.095,-0.031l-0.101,0.003l-0.066,-0.031l-0.073,-0.101l-0.088,-0.049l-0.087,-0.105l-0.052,-0.129l-0.171,-0.216l-0.014,-0.074l-0.168,-0.115l-0.066,-0.003l-0.028,0.031l-0.053,-0.007l-0.024,-0.063l-0.101,-0.098l-0.101,-0.034l-0.053,0.01l-0.042,-0.003l-0.031,-0.039l-0.244,-0.063l-0.063,-0.049h-0.227l-0.063,-0.041l-0.004,-0.046l0.063,-0.042l-0.007,-0.098l-0.042,-0.048h-0.069l-0.063,-0.046l-0.06,-0.132l-0.08,-0.077l-0.272,-0.042l-0.084,-0.032l-0.077,-0.087l-0.132,-0.059l-0.234,-0.046l-0.018,-0.048l0.056,-0.049l0.007,-0.056l-0.038,-0.039l-0.004,-0.055l0.049,-0.046v-0.042l-0.129,-0.083l-0.007,-0.049l0.042,-0.06v-0.045l-0.056,-0.038h-0.052l-0.109,0.115l-0.275,0.031l-0.091,-0.003l-0.157,-0.035l-0.07,-0.049l-0.059,-0.136l-0.067,-0.053l-0.101,-0.003l-0.126,0.066l-0.073,0.119l-0.147,0.007l-0.125,-0.045l-0.025,-0.042l-0.115,-0.004l-0.119,0.063l-0.069,-0.01l-0.018,-0.056l-0.059,-0.021l-0.213,0.024l-0.088,-0.018l-0.101,0.011l-0.063,0.073l-0.066,-0.004l-0.199,-0.111l-0.007,-0.07l-0.052,-0.042l-0.067,-0.007l-0.049,-0.028l-0.01,-0.066l-0.08,-0.084l-0.07,-0.004l-0.101,0.042l-0.126,0.105l-0.225,0.014l-0.076,-0.052l-0.077,-0.007l-0.081,-0.046l-0.145,0.009l-0.139,-0.102l-0.06,-0.148l-0.014,-0.232l-0.074,-0.237l-0.098,-0.102h-0.06l-0.079,-0.051l-0.042,-0.107l-0.162,-0.148l-0.112,-0.056l-0.069,-0.213l0.046,-0.19l-0.028,-0.112l-0.162,-0.125l-0.093,-0.2l-0.083,-0.037l-0.079,-0.13l0.079,-0.157l-0.023,-0.093l-0.144,-0.065l-0.098,0.005l-0.134,0.12l-0.01,0.093l0.051,0.051l-0.009,0.051l-0.125,0.023l-0.051,0.051l-0.051,-0.018l-0.037,-0.088l-0.088,-0.019l-0.042,0.042l0.028,0.065l-0.13,0.097h-0.07l-0.088,-0.028l-0.292,0.014l-0.065,-0.014l-0.056,0.042l0.028,0.135l-0.093,0.06l-0.218,0.014l-0.083,-0.037l-0.089,0.032l-0.046,0.139l0.056,0.084l-0.037,0.065h-0.052l-0.051,0.042l-0.004,0.06l-0.042,0.028l-0.102,-0.009l-0.088,0.129l0.06,0.144l0.005,0.107l-0.033,0.033l-0.083,-0.014l-0.362,0.106l-0.186,0.121l-0.06,0.028l-0.042,-0.014l-0.051,0.018l-0.014,0.051l-0.06,0.019l-0.195,-0.042l-0.195,-0.157l-0.088,-0.005l-0.065,0.056l-0.074,-0.01l-0.079,-0.111l-0.009,-0.084l-0.158,-0.06l-0.13,0.019l-0.074,-0.01l-0.033,0.028l0.033,0.074l-0.023,0.042l-0.103,0.014l-0.037,0.037l-0.065,0.014h-0.102l-0.269,0.098l-0.158,0.162l-0.139,-0.019l-0.209,0.01l-0.041,-0.028l0.028,-0.06l-0.01,-0.056l-0.125,-0.051l-0.014,-0.07l-0.343,-0.014l0.014,-0.167l-0.149,-0.106l-0.042,-0.195h-0.696v-0.084h-0.58l-0.092,-0.037l-0.088,0.019l-0.126,0.185l-0.083,-0.028l0.004,-0.079l-0.041,-0.009v-0.069l0.106,-0.177l0.005,-0.074l-0.074,-0.056l-0.07,0.028l-0.241,0.005l-0.121,0.042l-0.227,0.009l-0.251,0.042l-0.176,0.106l-0.097,0.019l-0.061,0.028l-0.046,0.06l-0.135,0.042l-0.269,-0.023l-0.204,-0.121l-0.278,-0.037l-0.121,-0.172l-0.093,-0.004l-0.12,-0.07l-0.153,-0.019l-0.26,-0.013l-0.107,-0.01l-0.019,0.037l-0.241,0.07l-0.622,0.032l-0.023,0.038l0.037,0.037v0.041l-0.023,0.033l0.009,0.074l0.051,0.028l-0.004,0.056l-0.464,0.204l-0.014,0.065l-0.084,0.018l-0.088,-0.102l-0.102,-0.055l-0.125,0.004l-0.135,-0.079l-0.032,-0.102l-0.074,-0.074l-0.038,-0.176l0.056,-0.042l-0.097,-0.329l-0.163,-0.005l-0.051,-0.065l-0.181,-0.009l-0.051,0.055l0.01,0.056l-0.056,0.032l-0.019,0.056l0.014,0.047l-0.051,0.106l-0.227,0.061l-0.153,0.018l-0.042,0.028l-0.093,0.005l-0.06,-0.019l-0.483,-0.005l-0.051,-0.037l-0.167,-0.009l-0.106,0.074l-0.075,0.102l-0.134,0.014l-0.116,-0.097l-0.135,-0.005l-0.153,-0.176l-0.185,-0.014l-0.047,-0.051l-0.065,-0.009l-0.051,0.023h-0.144l-0.051,-0.042l-0.074,-0.018l-0.093,0.009l-0.162,-0.056l-0.042,-0.037l-0.065,-0.014l-0.093,0.019h-0.055l-0.13,-0.065l-0.214,0.014l-0.055,0.074l-0.149,0.004l-0.042,0.038l-0.074,0.009l-0.074,-0.056h-0.056l-0.042,-0.014l-0.009,-0.051l-0.065,-0.018l-0.102,0.014l-0.051,-0.014l-0.042,0.004l-0.032,0.037l-0.19,0.056l-0.061,-0.014l-0.032,-0.06l-0.121,-0.079l-0.023,-0.07l-0.065,-0.009l-0.195,0.033l-0.083,-0.01l-0.195,-0.092l-0.065,-0.005l-0.07,0.037l-0.278,0.037l-0.051,0.033l-0.102,0.009l-0.098,-0.051l-0.097,0.009l-0.028,0.033l0.028,0.037l-0.033,0.032l-0.065,-0.009l-0.051,0.046l-0.013,0.075l-0.065,0.078l-0.005,0.098l-0.046,0.032l-0.126,-0.014l-0.204,0.065l-0.042,0.051l-0.301,0.056l-0.056,-0.051l-0.144,-0.032l-0.065,0.009l-0.051,0.056l-0.102,0.041l-0.107,0.139l-0.125,0.065l-0.116,0.019l-0.111,0.074l-0.056,0.093l-0.074,0.051l-0.297,0.005l-0.093,-0.051h-0.093l-0.088,-0.051h-0.283l-0.056,0.069l-0.046,0.01l-0.056,-0.019l-0.046,0.014l-0.014,0.111l-0.107,0.093l-0.278,0.019l-0.186,0.176l-0.041,0.13l-0.093,0.111l-0.107,0.056h-0.111l-0.279,0.12h-0.143l-0.2,0.093l-0.148,0.218l-0.102,0.061l-0.061,0.13l-0.158,0.116l-0.129,0.004l-0.047,0.065l0.028,0.172l0.079,0.088l-0.051,0.135l-0.074,0.032l-0.158,0.316l-0.135,0.013l-0.111,-0.097l-0.636,0.158l0.051,0.158l0.01,0.408v0.223l-0.047,0.31l-0.116,0.246v0.144l0.037,0.144l0.002,0.289l0.074,0.659l0.099,0.297l0.019,0.247l0.037,0.075l0.111,0.043l0.17,0.223l0.108,0.266l0.038,0.321l0.148,0.412l0.13,0.139l0.083,0.176l-0.009,0.127l0.034,0.158l0.112,0.09l0.105,0.228l0.04,0.27l-0.006,0.148l-0.028,0.102l0.003,0.201l-0.028,0.09l-0.071,0.071l-0.13,0.306l-0.086,0.084l-0.019,0.102l0.043,0.022l0.078,-0.047l0.096,0.013l0.055,-0.047l0.003,-0.059l0.037,-0.062l0.072,-0.003l0.03,0.019l-0.034,0.046l0.01,0.056l-0.04,0.105l0.015,0.065l0.083,0.013l0.109,0.077l0.055,0.198l-0.034,0.108l-0.123,0.093l-0.007,0.114l0.035,0.053l0.008,0.097z M1255.494669,343.380877l0.094,0.024l0.098,0.025l0.074,-0.093l0.044,-0.126l0.087,-0.138l0.231,-0.109l0.069,-0.16l-0.049,-0.111l0.022,-0.089l0.121,-0.138l0.026,-0.127l0.086,-0.152l0.094,-0.062l0.022,-0.091l-0.112,-0.1l0.093,-0.325l0.059,-0.108l0.022,-0.229l-0.016,-0.068l0.006,-0.086l0.09,-0.322l0.034,-0.678l-0.022,-0.312l-0.083,-0.241l-0.148,-0.204l-0.031,0.012l0.04,0.121l0.04,0.454l-0.012,0.777l-0.081,0.575l-0.223,0.752l-0.298,0.678l-0.311,0.567l-0.066,0.084z"/>
</svg>
