<svg xmlns="http://www.w3.org/2000/svg" viewBox="1154.989 388.870 5.187 6.358">
  <path d="M1157.608758,389.330003v0.039l-0.047,0.067l0.028,0.036l-0.021,0.055l0.024,0.021l-0.012,0.024l-0.042,0.003l-0.016,0.027l0.029,0.03l-0.006,0.025l-0.047,-0.008l-0.009,0.028l0.026,0.031l-0.003,0.033l-0.04,0.04l0.006,0.027l0.039,-0.004l0.006,0.033l-0.079,0.065l-0.003,0.054l0.062,0.018l0.065,0.115l-0.028,0.067l0.003,0.048l0.093,0.048l-0.016,0.052h-0.052l-0.004,0.03l0.106,0.057l-0.003,0.052l-0.053,0.015l0.006,0.048l0.158,0.058l0.046,0.045l-0.043,0.067l0.019,0.103l0.08,0.09l0.032,-0.02l-0.007,-0.08l0.005,-0.038l0.041,-0.003l0.028,0.008l0.019,0.124l0.108,0.036l0.052,0.058v0.16l0.05,0.04v0.096l0.043,0.091l0.139,0.124l0.096,0.054l0.05,-0.009l0.071,0.031l0.015,0.06l0.047,0.015l0.055,-0.027l0.044,0.015l-0.003,0.067l0.055,0.078l0.028,0.124l0.05,-0.012l0.065,-0.085l0.131,-0.018l0.255,0.268l0.311,0.068l0.116,-0.073h0.065l0.195,0.109l0.083,-0.036l0.056,0.018v0.05l-0.088,0.077l-0.023,0.064l0.042,0.04v0.164l-0.112,0.095l0.009,0.145l0.069,0.066l-0.016,0.028l-0.057,-0.012l-0.028,0.036l0.046,0.073l-0.065,0.031l-0.078,0.105l-0.163,0.086l-0.19,0.168l-0.009,0.059h0.051l0.041,0.027l-0.129,0.318l-0.154,0.172l-0.143,0.05l-0.024,0.063l0.042,0.068l-0.023,0.037h-0.07l-0.037,0.05l0.135,0.113l-0.014,0.086l-0.13,0.1l-0.028,0.068l0.088,0.222l0.008,0.308l-0.017,0.064l-0.051,-0.009l-0.046,-0.05l-0.149,-0.041l-0.195,-0.104l-0.139,-0.177l-0.26,-0.072l-0.162,0.04l-0.19,0.005l-0.056,-0.032l-0.121,0.064l0.009,0.072l-0.074,0.032l-0.074,-0.009l-0.056,0.023l-0.037,0.122l-0.12,0.05l-0.028,0.127l-0.051,0.009l-0.088,-0.091l-0.121,-0.009l-0.111,0.145l-0.075,-0.004l-0.046,-0.045l-0.149,-0.01l-0.085,0.022l-0.021,-0.006l0.023,-0.038l-0.005,-0.037l-0.074,-0.013l-0.032,-0.073l0.018,-0.072l-0.023,-0.091l-0.162,-0.077l-0.228,-0.014l-0.102,0.041l-0.167,-0.023l-0.204,-0.158l-0.019,-0.059l0.042,-0.068l-0.037,-0.064l-0.125,0.009l-0.019,-0.035l0.016,-0.033l0.156,-0.05l0.028,-0.063l0.162,-0.109l0.014,-0.086l-0.028,-0.055l-0.079,0.028l-0.04,-0.016l0.003,-0.066l0.125,-0.082l0.038,-0.05l0.037,-0.163l0.046,-0.063l0.065,0.009l0.046,-0.041l-0.013,-0.15l0.037,-0.054l-0.028,-0.046l-0.07,0.009l-0.171,-0.059l-0.028,-0.059l0.018,-0.113l0.107,-0.086l0.005,-0.073l-0.079,-0.104l-0.084,-0.014l-0.116,0.037l-0.083,-0.023v-0.104l0.032,-0.05l-0.009,-0.059l-0.07,-0.018l-0.176,-0.286l0.005,-0.064l-0.061,-0.036l-0.162,0.041l-0.056,-0.027l-0.032,-0.241l-0.051,-0.077l0.004,-0.063l0.112,-0.046l0.009,-0.045l-0.074,-0.018l-0.003,-0.032l0.068,-0.014v-0.063l-0.023,-0.041l0.023,-0.036l0.116,0.027l0.046,-0.027l-0.018,-0.096l-0.265,-0.099l-0.009,-0.046l0.046,-0.072l0.121,-0.064l0.014,-0.109l0.051,-0.068l-0.009,-0.113l0.032,-0.095l0.121,-0.041l0.051,0.023l0.055,-0.019l0.024,-0.063l0.167,-0.077l-0.01,-0.082l-0.106,-0.063l-0.014,-0.091l0.018,-0.059l0.153,-0.05l0.065,-0.068l0.01,-0.064l0.055,-0.058l0.01,-0.064l-0.069,-0.068v-0.076l0.053,-0.051l0.115,-0.03l0.027,-0.04l-0.006,-0.075l0.062,-0.097l0.003,-0.085l0.124,-0.112l0.173,-0.051l0.118,-0.006l0.018,-0.024l-0.025,-0.033l0.01,-0.109l0.049,-0.037l0.006,-0.027l-0.043,-0.051l0.006,-0.046l0.047,-0.066l0.21,-0.015l0.102,-0.052l0.056,0.009l0.031,0.152l0.222,0.084l0.081,-0.018l0.018,-0.094l0.028,-0.039l0.115,0.009l0.096,0.058l0.006,0.051l0.037,0.048l-0.006,0.04l-0.037,0.036l-0.016,0.06l0.056,0.01l0.043,0.048l0.056,0.006z"/>
</svg>
