<svg xmlns="http://www.w3.org/2000/svg" viewBox="1179.057 523.836 104.164 96.780">
  <path d="M1270.822974,530.602321l0.037118,-0.00928l0.032479,0.032479l0.00464,0.051038l-0.037118,0.00928l-0.037118,-0.046398v-0.037118Z  M1180.260262,545.234704l0.347,-0.105l0.396,-0.223l1.064,-0.452l0.26,-0.006l0.47,-0.309l0.26,-0.328l0.148,-0.26l0.099,-0.111l0.309,-0.211l0.916,-1.361l0.148,-0.111l0.341,-0.687l0.105,-0.513l0.049,-0.124l0.006,-0.093l-0.055,-0.08l-0.13,-0.885l0.117,-0.34l-0.018,-0.105l-0.149,-0.167l-0.024,-0.31l0.018,-0.105l-0.018,-0.086l-0.112,-0.068l-0.253,-0.576l-0.044,-0.222l-0.278,-0.706l-0.037,-0.235l-0.105,-0.229l0.018,-0.13l0.229,-0.315l0.21,-0.186l0.403,-0.6l0.068,-0.235l0.222,-0.216l0.483,-0.248l0.13,-0.006l0.093,0.031l0.371,0.006l0.235,-0.105l0.117,0.012l0.087,-0.024l0.13,-0.192l0.025,-0.167l0.142,-0.204l0.173,-0.143l0.149,-0.204l0.012,-0.167l-0.093,-0.087l-0.006,-0.105l0.118,-0.136l0.026,-0.144l0.116,-0.125l0.13,-0.018l0.218,0.083l0.107,-0.009l0.143,-0.125h0.102l0.219,-0.079l0.431,-0.659l0.005,-0.167l0.821,-0.548l0.185,-0.079l0.362,-0.236l0.154,-0.037l0.515,-0.256l1.031,-0.409l0.427,-0.223l0.433,-0.142l0.334,-0.186l0.353,-0.161l0.235,-0.272l0.031,-0.476l-0.303,-0.458l-0.316,-0.223l-0.099,-0.26l0.05,-0.352v-0.211l-0.025,-0.26l0.074,-0.624l-0.025,-0.529l0.121,-0.381l0.068,-0.083l0.015,-0.081l-0.052,-0.13l0.049,-0.451l0.177,-0.405l0.018,-0.18l0.025,-0.074l0.21,0.142l0.118,0.186l0.266,0.161l0.439,0.123l0.544,0.052l0.013,-0.039l-0.359,-0.161l-0.161,-0.012l-0.099,-0.05l0.006,-0.056l0.266,0.05l0.533,0.254l0.303,0.092l0.495,0.297l0.556,0.371l0.619,0.44l0.977,0.513l0.743,0.192l0.433,0.018l0.717,0.143l1.51,-0.006l0.909,-0.167l1.126,-0.359l0.334,-0.143l0.198,-0.129l0.415,-0.075l0.346,0.037l0.26,0.093l0.26,0.013l0.185,0.074l0.081,0.099l0.99,0.458l0.34,0.123l0.551,-0.006l0.34,-0.068l0.359,0.012l0.272,0.087l0.482,0.062l0.433,0.21l0.137,0.124l0.321,0.093l0.687,0.049l0.458,0.136l0.396,0.347l0.198,0.093l0.142,0.117l0.056,0.13l0.272,0.21l0.167,0.056l0.167,0.124l0.08,0.148l0.229,0.124l0.699,0.093l0.47,0.154l0.149,0.13l0.365,0.13l0.557,0.025l0.253,-0.037l0.427,0.049l0.167,0.087l0.464,0.074l0.538,0.037l0.551,0.174l0.124,0.105l0.043,0.105l0.297,0.297l0.303,0.742l0.254,0.31l0.028,0.331l-0.059,0.405l0.025,0.569l0.259,0.94l0.619,1.408l0.343,0.584l0.733,0.984l0.604,0.436l0.603,0.325l1.058,0.473l0.974,0.288l1.16,0.158l1.457,0.111l0.909,-0.037l0.594,0.065l0.362,0.102l1.188,0.223l1.308,0.371l0.715,0.167l0.343,0.037l0.381,0.158l0.213,0.194l0.427,0.177l0.39,0.102l0.445,0.158l0.306,0.148l0.39,0.121l0.594,0.074l0.241,0.13l0.084,0.25l0.25,0.158l1.067,0.362l0.557,0.102l0.427,0.279l0.343,0.334l0.075,0.185l0.788,0.631l0.724,0.464l0.195,0.065l0.074,0.084l0.028,0.111l0.473,0.38l0.056,0.112l0.223,0.139l0.538,0.111l0.111,0.065l0.047,0.112l0.241,0.139l0.149,0.028l0.296,0.157l0.177,0.158l0.38,0.13l0.52,0.074l0.39,-0.027l0.723,-0.019l0.845,-0.269l0.9,-0.483l0.353,-0.232l0.148,-0.055l0.214,0.018l0.167,-0.083l0.111,-0.112l0.863,-0.64l0.204,-0.315l0.427,-0.437l0.232,-0.194l0.445,-0.734l0.223,-0.222l0.371,-0.548l0.074,-0.241l0.437,-0.854l0.176,-0.677v-0.381l-0.207,-0.536l-0.35,-0.67l-0.232,-0.223l-0.213,-0.38l-0.028,-0.269l-0.037,-0.13l-0.149,-0.251l-0.185,-0.668l-0.047,-0.557l-0.176,-0.454l0.009,-0.696l0.13,-0.733l-0.028,-0.205l0.075,-0.241l0.426,-0.399l0.177,-0.26l0.018,-0.195l0.288,-0.473l0.993,-1.039l0.854,-0.752l1.605,-1.15l1.837,-0.808l0.529,-0.362l0.771,-0.278l1.614,-0.065l0.696,-0.195l0.715,-0.445l0.547,-0.474l0.427,-0.12l0.39,0.028l0.25,0.13l0.817,0.167l1.002,-0.093l0.353,-0.167l0.26,-0.019l0.129,0.112l0.019,0.176l0.13,0.121l0.538,0.046l0.557,-0.019l0.612,0.251l0.186,0.176l0.269,0.093l0.13,0.009l0.139,0.047l0.195,0.13l0.947,0.343l0.426,0.102l0.39,0.139l0.39,0.204l0.473,0.14l0.362,0.037l0.371,0.083l0.158,0.158l0.009,0.167l-0.148,0.167v0.39l0.167,0.232l0.185,0.148v0.177l-0.12,0.176l0.009,0.167l-0.074,0.028l-0.13,-0.232l-0.074,0.009l-0.037,0.102l0.027,0.149l-0.083,0.269l0.046,0.213l0.093,0.139l0.084,0.01l0.12,-0.047l0.251,0.084l0.288,0.241l0.157,0.39l0.13,0.12l0.167,0.019l0.093,0.111v0.13l0.102,0.093l0.074,-0.028l-0.074,-0.102l-0.009,-0.158l-0.047,-0.083l0.065,-0.065l0.26,0.037l0.316,0.186l0.324,0.065l1.383,-0.065l0.705,0.083l0.78,0.353l0.557,0.13l0.232,0.12l-0.01,0.074l-0.204,-0.009l-0.037,0.065l0.139,0.074l0.214,0.075l0.427,0.25l0.714,0.13l0.371,-0.065l1.559,0.102l0.269,0.065l0.195,0.009l0.696,-0.25l0.585,0.018l0.371,0.13l0.77,0.186l0.409,0.019l0.315,0.185l0.065,0.204l-0.074,0.325l0.055,0.241l0.427,0.566l0.223,0.455l0.084,0.306l-0.123,0.031l-0.215,0.158l-0.098,0.143l-0.062,0.219l0.005,0.168l-0.067,0.093l-0.641,0.401l-0.68,0.588l-0.043,0.129l0.018,0.341l0.142,0.321l0.025,0.39l-0.068,0.173l-0.012,0.433l-0.031,0.118l0.105,0.334l0.216,0.322l0.192,0.519l0.013,0.174l0.216,0.513l0.043,0.34l0.161,0.421l-0.012,0.223l-0.111,0.216l-0.143,0.687l-0.148,0.26l-0.031,0.235l0.018,0.179l-0.049,0.248l-0.21,0.346l-0.217,0.21l-0.167,0.341l-0.21,0.216l-0.167,0.099l-0.112,0.173l-0.111,0.316l-0.247,0.383l-0.155,0.403l0.006,0.111l0.316,0.396l0.08,0.216l0.043,0.205l0.242,0.662l0.185,0.389l0.019,0.31l-0.124,0.334l-0.019,0.204l0.471,0.748l0.037,0.372l-0.105,0.643l0.049,0.247l0.736,1.662v51.204v13.738h-6.557v3.445l-31.935,-17.211l-9.039,-4.556l-11.856,-5.604l-6.644,3.074l-5.347,2.474l-3.592,-3.08l-0.464,-0.344l-0.448,-0.241l-0.619,-0.235l-9.381,-2.001l-2.636,-5.327l-0.121,0.084l-0.232,0.018l-0.296,0.158l-0.557,0.176l-2.07,-1.41l-0.222,-0.037l-0.204,-0.102l-0.038,-0.158l-0.538,-0.548l-0.696,-0.306l-0.278,0.037l-0.093,0.214l-0.13,0.139l-0.13,-0.028l-0.185,-0.278l-0.167,-0.084l-0.557,0.019l-0.241,0.204l-0.27,0.046l-0.213,-0.074l-0.241,0.009l-0.139,0.093l-0.594,-0.018l-0.093,-0.065l-0.065,-0.149l-0.408,-0.418l-0.316,-0.157l-0.204,-0.232l-0.019,-0.167l-0.556,-0.984l-0.038,-0.213l-0.064,-0.167l-0.372,-0.455l-0.083,-2.756l-4.176,-5.893l0.232,-0.315l0.436,-0.937l2.404,-0.984l0.334,-0.919l-0.075,-0.696l0.195,-0.779l-0.167,-0.121l-0.315,-0.436l-0.186,-1.132l-0.167,-0.436l-0.046,-0.39l-0.102,-0.232l-0.01,-0.195l0.084,-0.325l0.018,-0.362l0.112,-0.222l0.009,-0.251l0.102,-0.315l0.269,-0.204l0.084,-0.251l-0.037,-0.093l-0.297,0.01l-0.047,-0.075l0.037,-0.074l0.279,-0.037l0.167,-0.186l0.325,-0.816l-0.003,-0.678l0.049,-0.185l0.111,-0.112l0.013,-0.16l-0.891,-2.871l0.458,-3.39l-0.186,-1.93l-0.606,-2.896l-1.67,-3.687l-0.718,-0.915l-0.093,-0.687l0.068,-0.161l0.124,-0.074h0.111l0.204,-0.043l0.328,-0.198l0.266,-0.068z"/>
</svg>
