<svg xmlns="http://www.w3.org/2000/svg" viewBox="1004.282 503.328 106.270 108.619">
  <path d="M1052.583306,535.974049l0.022184,0.027114l-0.059157,0.066552l-0.044513,-0.00435v-0.043305l0.044513,-0.043546l0.036973,-0.002465Z  M1059.962618,563.626882v-7.501l0.092,-0.093l0.297,-0.074l0.179,-0.124l0.35,-0.145l0.325,-0.112l0.288,-0.157l0.158,-0.195l0.584,-0.585l0.26,-0.223l0.232,-0.074l0.102,-0.167l0.232,-0.12l0.121,0.027l0.259,-0.213l0.307,-0.26l0.724,-0.455l0.139,-0.027l0.065,-0.047l-0.01,-0.093l0.372,-0.352l0.259,-0.112h0.195l0.065,-0.037l-0.009,-0.065l0.297,-0.246l0.311,-0.148l0.088,-0.009l0.283,-0.144l0.125,-0.014l0.074,0.046l0.047,-0.014l0.004,-0.074l0.056,-0.051l0.028,-0.083l0.051,-0.024l0.014,-0.116l-0.046,-0.051l0.046,-0.088l0.135,-0.069l0.227,0.004l0.204,0.065l0.297,0.014l0.561,-0.125l0.037,0.037l0.065,-0.005l0.089,-0.06l0.171,-0.023l0.088,-0.037l0.488,-0.515l0.134,-0.107l0.418,-0.167l0.153,-0.06l0.046,-0.056l0.042,-0.019l0.125,0.01l0.204,-0.079l0.028,0.028l-0.032,0.051v0.041l0.083,0.01l0.098,0.092l0.069,-0.004l0.153,0.018l0.047,0.038h0.065l0.125,-0.065l0.139,0.004l0.065,0.028l0.116,0.014l0.061,0.032h0.06l0.144,-0.06l0.046,0.009l0.005,0.061l0.079,0.051l0.162,-0.023l0.074,0.023l0.019,0.055l0.074,0.056l0.278,0.009l0.172,0.065l0.079,-0.023l0.032,-0.065l0.056,-0.051l0.112,-0.009l0.055,-0.098l0.139,-0.134l0.153,-0.019l0.065,0.024l0.084,-0.019l0.028,-0.051l0.162,-0.014l0.088,-0.046l0.237,0.046l0.13,-0.028l0.056,0.019l-0.014,0.046l0.069,0.023l0.079,-0.051l0.07,-0.097l0.343,-0.2l0.07,0.014l0.371,0.01l0.13,-0.065h0.371l0.079,0.023l0.06,-0.005l0.028,-0.032h0.083l0.209,0.032l0.251,-0.079l0.065,-0.055h0.055l0.065,0.041l0.121,-0.018l0.135,0.018l0.199,0.065l0.283,0.047l0.172,-0.014l0.134,-0.061h0.228l0.069,-0.037l0.242,-0.028l0.097,-0.078l0.241,-0.01l0.075,0.037l0.083,-0.004l0.07,-0.093l0.171,-0.014l0.088,-0.042l0.14,-0.009l0.069,0.033l0.121,0.009l0.116,0.069l0.162,0.019l0.056,0.056l-0.009,0.083l-0.047,0.098l-0.092,0.06l-0.061,0.107l-0.028,0.143l0.061,0.052l0.213,-0.028l0.051,-0.079l0.079,-0.079l0.046,-0.009l0.135,0.13l0.019,0.06l0.162,0.093l0.209,0.079l0.134,-0.005l0.107,0.032l1.596,-2.041l0.065,-0.167l-0.046,-0.139l0.018,-0.14l0.093,-0.102l0.204,-0.362l2.292,-1.707l2.141,-1.027l1.794,-1.695l1.138,-0.396l1.101,-0.074l0.934,-0.229l1.324,-0.522l0.099,-0.19l0.056,-0.012l0.013,-0.032l-0.032,-0.015l-0.025,-0.039l0.022,-0.04l-0.017,-0.113l-0.101,-0.076l-0.044,0.005l-0.028,0.036l-0.032,-0.002l-0.044,-0.042l-0.002,-0.116l0.037,-0.034l0.029,-0.101v-0.195l-0.025,-0.074l0.015,-0.03l0.045,-0.009l0.061,-0.094l0.037,-0.01l0.069,0.02l0.037,-0.013l0.035,-0.12l0.052,-0.045l0.068,0.016l0.046,-0.034l0.004,-0.12l-0.025,-0.059l0.015,-0.034l0.05,0.006l0.028,-0.025l-0.025,-0.049l0.043,-0.037l0.084,0.037l0.031,-0.022l-0.004,-0.124l0.056,-0.139l0.05,-0.037l0.012,-0.096l-0.04,-0.031l-0.003,-0.058l0.04,-0.044l0.003,-0.083l-0.028,-0.102l-0.055,-0.059v-0.13l0.027,-0.034l-0.003,-0.056l-0.031,-0.003l-0.04,0.056l0.003,0.086l-0.028,0.01l-0.031,-0.025h-0.034l-0.015,0.056l-0.034,-0.003l-0.08,-0.109l-0.004,-0.117l-0.031,-0.006l-0.03,0.034l-0.05,-0.016l-0.003,-0.158l-0.05,-0.058l0.013,-0.137l-0.031,-0.006l-0.025,0.068l-0.062,0.05l-0.046,-0.028l-0.003,-0.114l0.034,-0.081l-0.028,-0.037l-0.006,-0.065h-0.025l-0.025,0.099v0.207l0.099,0.139l-0.021,0.019l-0.118,-0.074l-0.077,-0.009l-0.034,0.061l0.021,0.031l0.065,-0.003l0.075,0.022l-0.019,0.031l-0.165,-0.013l-0.033,-0.037l0.051,-0.241l-0.018,-0.097l0.023,-0.102l-0.093,-0.116l-0.13,-0.042l-0.056,0.046l0.056,0.088l-0.014,0.121h-0.032l-0.01,-0.116h-0.041l-0.042,0.046l-0.074,-0.014l-0.022,0.041l0.04,0.027l0.06,0.016l-0.041,0.139l-0.042,0.005l-0.042,-0.07h-0.102l-0.083,0.056l-0.024,0.13l-0.032,-0.005l0.005,-0.148l0.027,-0.084l-0.009,-0.12l0.121,-0.149l0.009,-0.07l-0.051,-0.046v-0.102l-0.06,-0.176l-0.075,0.004l-0.032,-0.055l0.06,-0.056l0.01,-0.07l0.148,-0.102l0.017,-0.114l-0.025,-0.009l-0.038,0.03l-0.042,-0.009l-0.023,-0.069h-0.056l-0.014,-0.036l0.116,-0.104l0.028,-0.074l-0.019,-0.102h0.056l0.014,-0.046l-0.046,-0.056l0.06,-0.07l0.056,-0.009l0.013,0.112l0.079,0.023l0.093,-0.028l0.014,-0.116l0.051,-0.028l0.06,0.005l0.089,-0.051l0.065,-0.093l0.041,0.023l-0.009,-1.823l5.572,-1.184v-0.125l-0.046,-0.074l-0.056,-0.014l-0.037,-0.051l-0.004,-0.074l0.041,-0.065v-0.079l-0.032,-0.037l-0.005,-0.112l-0.125,-0.171l-0.009,-0.07l-0.13,-0.125l0.018,-0.13l-0.032,-0.116l-0.107,-0.074v-0.084l-0.093,-0.106l-0.009,-0.093l-0.088,-0.084l0.046,-0.357l0.037,-0.046l-0.004,-0.121l0.069,-0.06l0.005,-0.084l0.065,-0.005l0.037,0.033l0.111,0.018l0.404,-0.009l0.608,0.042l0.083,-0.009l0.005,-0.037l0.39,-0.028l0.348,0.041l0.083,-0.078l0.153,-0.047l0.14,-0.13l0.464,-0.037l0.13,-0.06l0.969,0.051l0.218,-0.042l0.079,0.033l0.065,-0.024l0.098,0.01l0.19,0.083l0.232,0.033l0.232,0.014l0.213,-0.075l0.158,-0.083l0.186,-0.023l0.083,-0.019l0.023,-0.051l0.237,-0.023l0.088,0.042l0.065,0.078l0.186,0.01l0.116,0.051l0.046,-0.088l0.13,-0.01l0.167,0.126l0.07,0.018l0.046,-0.032l0.158,0.014l0.069,0.041l0.135,0.042l0.121,0.005l0.227,0.102h0.134l0.13,0.051l0.102,-0.023l0.089,0.009l0.041,0.042l0.181,0.004l0.362,0.13h0.464l0.088,-0.083l0.075,-0.005l0.078,0.065h0.242l0.25,0.06l0.204,0.024l0.038,-0.047l0.088,-0.009l0.041,0.051l0.112,0.019l0.436,-0.042l0.097,0.069h0.116l0.14,-0.046l0.078,0.009l0.056,-0.018l0.014,-0.061l0.079,-0.069l0.181,-0.051l0.009,-0.116l-0.107,-0.093l-0.014,-0.088l-0.088,-0.112l-0.241,-0.065l-0.227,0.107l-0.102,-0.014l-0.089,0.028l-0.074,-0.074l0.214,-0.149l0.06,-0.092l0.084,-0.028l-0.033,-0.339l0.033,-0.051l-0.005,-0.097l0.042,-0.112l0.004,-0.167l-0.079,-0.069l0.014,-0.084l0.093,-0.042l0.084,-0.065v-0.116l0.046,-0.037l0.06,-0.144l-0.023,-0.06l0.172,-0.13l0.069,0.009l0.047,-0.041l0.065,-0.005l0.176,0.023v-0.06l0.046,-0.07l0.302,-0.12l0.088,-0.107l0.079,-0.037l0.012,-0.071l0.347,-0.279l-1.825,-1.336l-0.736,-0.334l-1.077,-1.608l0.149,-0.025l0.068,-0.056l0.136,0.013l0.148,-0.254l-0.037,-0.05l-0.006,-0.092l0.087,-0.161l-0.075,-0.248l-0.105,-0.105l-0.167,-0.049l-0.123,-0.087l-0.031,-0.087l-0.235,-0.191l-0.038,-0.211l-0.179,-0.297l-0.13,-0.068l-0.09,-0.148l-0.111,-0.102l-0.074,-0.195l0.065,-0.139l-0.028,-0.585l0.093,-0.278l0.12,-0.102l0.065,-0.167l0.019,-0.242l0.167,-0.306l-0.047,-0.241l0.028,-0.316l-0.046,-0.123l-0.149,-0.044l-0.111,-0.359l-0.056,-0.061h-0.105l-0.105,0.043l-0.136,-0.012l-0.031,-0.081l-0.192,-0.099l0.056,-0.254l0.39,-0.284l-0.186,-0.724l0.34,-1.788l-0.402,-0.878l-0.006,-0.514l0.019,-0.117l-0.174,-0.291l-0.259,-0.21l-0.068,-0.149l0.631,-0.755l-0.396,-0.167l-0.248,-0.29l-0.043,-0.136l-0.149,-0.242l-0.148,-0.093l-0.111,-0.012l0.111,-0.093l0.142,-0.247l0.248,-0.254l0.031,-0.198l0.198,-0.167l-0.489,-0.26l-0.266,-0.167l-0.198,-0.043l-0.031,-0.247l-0.198,-0.13l-0.142,-0.037l-0.192,-0.149l-0.006,-0.39l-0.105,0.031l-0.118,-0.024l-0.217,0.061l-0.371,-0.247l-0.142,-0.229l-0.111,-0.08l-0.223,-0.081l-0.099,-0.136l-0.21,-0.167l0.024,-0.099l-0.006,-0.161l-0.668,-0.232l-0.677,-0.195h-0.093l-0.381,0.325l-0.445,0.121l-0.501,-0.037l-0.167,-0.065l-0.133,-0.022l-0.211,-0.105l-0.225,-0.09l-0.393,-0.306l-0.229,-0.213l-0.09,-0.053l-0.015,0.025l0.281,0.272l0.399,0.322l0.019,0.083l-0.059,0.043l-0.34,0.007l-0.405,-0.183l-0.171,-0.139l-0.037,-0.121l-0.124,-0.139l-0.009,-0.109l0.152,-0.091l0.005,-0.054l-0.084,-0.02l-0.108,-0.195l0.022,-0.096l0.037,-0.01l0.049,0.042l0.055,0.089l0.16,0.145l0.044,0.069l0.04,0.013l0.022,-0.013l-0.219,-0.229l-0.074,-0.103l-0.077,-0.074l0.052,-0.096l-0.022,-0.02l-0.03,0.02v0.041l-0.029,0.01l-0.03,-0.017v-0.025l-0.034,-0.027l-0.013,-0.064l0.032,-0.032l0.047,0.01l0.012,-0.017l-0.032,-0.018l-0.032,-0.004l-0.022,-0.02l0.005,-0.025l-0.025,-0.022l-0.022,-0.005l-0.027,-0.042l0.025,-0.027l-0.015,-0.022l-0.03,-0.003l-0.022,-0.024l-0.049,-0.059v-0.057l0.015,-0.049l-0.005,-0.064l-0.067,-0.07l0.01,-0.128l0.047,-0.054l-0.001,-0.233l0.056,-0.08l-0.013,-0.074l-0.123,-0.031l-0.13,0.08l-0.074,0.18l-0.031,0.161l-0.248,0.464l-0.229,0.315l-0.123,0.056h-0.093l-0.087,-0.075l-0.068,0.007l-0.093,0.185l-0.222,0.211l-0.124,0.037l-0.18,-0.006l-0.439,0.123l-0.204,0.149h-0.173l-0.408,-0.025l-0.161,-0.056l-0.124,-0.018l-0.179,0.018l-0.192,-0.049l-0.136,-0.081l-0.161,-0.037l-0.124,-0.006l-0.198,-0.099l-0.39,-0.247l-0.074,-0.124l-0.142,-0.043l-0.235,0.037l-0.142,0.154l-0.044,0.248l-0.062,0.105l-0.241,0.13l-0.223,0.025l-0.297,-0.056l-0.142,-0.111l-0.056,-0.13l0.044,-0.099l-0.081,-0.05l-0.136,0.019l-0.173,0.167l-0.186,0.018l-0.123,-0.018l-0.47,0.13l-0.155,0.105l-0.142,0.043l-0.155,-0.018l-0.241,0.037l-0.093,0.068l-0.111,0.012l-0.155,-0.025l-0.241,0.062l-0.353,0.211l-0.198,0.012l-0.124,-0.043l-0.154,-0.025l-0.093,0.019l-0.173,-0.019l-0.149,-0.08l-0.161,-0.044l-0.148,0.006l-0.402,-0.111l-0.118,0.006l-0.167,-0.037l-0.111,-0.111l-0.149,-0.019l-0.099,0.031l-0.488,-0.167l-0.508,-0.309l-0.136,-0.186l-0.148,-0.086l-0.124,-0.013l-0.254,-0.123l-0.099,-0.155l-0.259,-0.241l-0.112,-0.155l-0.105,-0.062h-0.099l-0.155,-0.056l-0.111,-0.111l-0.13,-0.309l-0.458,-0.446l-0.21,-0.068l-0.285,-0.167l-0.16,-0.365l-0.093,-0.433l0.055,-0.117l-0.031,-0.05l-0.092,-0.018l-0.105,0.043l-0.078,-0.019l-0.071,-0.12l-0.108,-0.508l-0.037,-0.532l0.062,-0.198l-0.006,-0.062l0.013,-0.04l0.019,-0.022l0.028,-0.003l0.022,0.013l0.027,-0.003l0.037,-0.061h0.047l0.034,0.017l0.047,-0.005l0.02,-0.02l0.024,-0.014h0.037l0.057,-0.04l0.01,-0.032l-0.037,-0.039l-0.03,-0.008l-0.054,0.027l-0.025,0.057l-0.059,0.027l-0.039,-0.002l-0.044,-0.04l0.004,-0.024l-0.022,-0.01l-0.052,0.042l-0.034,-0.003l-0.067,-0.089l-0.115,-0.074l-0.082,0.008l-0.029,0.029h-0.072l-0.031,-0.04h-0.043l-0.087,0.077l-0.123,0.016l-0.124,-0.053l-0.077,0.003l-0.109,0.053l-0.027,0.065l-0.072,0.065l-0.055,0.021l-0.269,0.251l-0.109,0.034l-0.142,0.102l-0.127,0.028l-0.062,-0.015h-0.13l-0.071,0.037l-0.102,-0.01l-0.13,-0.055h-0.092l-0.069,0.034l-0.083,0.018l-0.065,0.056l-0.108,0.025l-0.037,0.052l-0.025,0.109l-0.087,0.099l-0.114,0.055l-0.074,-0.003l-0.016,-0.04l0.022,-0.05l-0.084,-0.046l-0.077,0.015l-0.124,-0.021l-0.055,-0.028h-0.072l-0.065,0.022l-0.086,-0.003l-0.081,-0.031l-0.108,0.006l-0.136,0.077l-0.043,0.096l-0.056,0.325l-0.167,0.495l-0.053,0.29l-0.102,0.254l-0.096,0.507l-0.194,0.475l-0.107,0.121l-0.051,0.125l-0.019,0.107l-0.157,0.32l-0.042,0.181l-0.413,1.169l-0.116,0.084l-0.07,0.153l-0.106,0.352l-0.149,0.353l-0.097,0.413l-0.358,0.895l-0.292,0.678l-0.478,1.025l-0.487,0.947l-0.464,0.802l-0.617,0.919l-0.246,0.413l-0.162,0.404l-0.242,0.431l-0.427,0.566l-0.269,0.283l-0.668,0.655l-0.557,0.422l-0.218,0.069l-0.157,0.093l-0.205,0.153l-0.264,0.065l-0.111,0.065l-0.126,0.042l-0.139,0.023l-0.357,0.186l-0.135,0.162l-0.385,0.292l-0.158,0.028l-0.097,-0.014l-0.028,-0.051l-0.037,0.005l-0.264,0.246l-0.172,0.19l-0.469,0.274l-0.278,0.093l-0.084,-0.037l-0.069,-0.005l-0.042,0.051l-0.176,0.005l-0.056,-0.033l-0.07,0.005l-0.296,0.185l-0.107,0.121l-0.306,0.19l-0.265,0.135h-0.065l-0.06,-0.042h-0.042l-0.557,0.292l-0.176,0.088l-0.148,0.005l-0.121,0.042l-0.283,0.176l-0.766,0.316l-0.227,0.018l-0.102,0.033l-0.107,0.088l-0.162,0.056l-0.139,0.013l-0.205,0.075l-0.116,0.014l-0.116,0.074l-0.102,0.19l-0.102,0.111l-0.408,0.33l-0.302,0.139l-0.213,0.023l-0.102,-0.028l-0.019,-0.069l-0.051,-0.028l-0.055,0.005l-0.153,0.12l-0.116,0.172l-0.13,0.056l-0.283,0.31l-0.038,0.098l0.07,0.107l-0.051,0.194l-0.251,0.246l-0.25,0.321l-0.042,0.102l-0.093,0.116l-0.218,0.208l-0.055,0.098l-0.279,0.301l-0.315,0.279l-0.195,0.19l-0.269,0.292l-0.724,0.557l-0.265,0.246l-0.343,0.408l-0.566,0.469l-0.496,0.367l-0.005,0.06l0.074,0.079l0.019,0.102l0.083,0.12l0.051,0.01l0.075,0.083l0.018,0.093l-0.042,0.246l-0.106,0.237l-0.186,0.236l-0.005,0.13l0.051,0.079v0.088l0.061,0.065l0.144,0.074l0.027,0.112l-0.013,0.12l-0.084,0.228l0.005,0.079l0.06,0.088v0.171l-0.074,0.279l-0.144,0.171l-0.144,0.107l-0.07,0.167l-0.051,0.269l-0.069,0.126l-0.019,0.106l-0.06,0.121l-0.436,0.441l-0.293,0.32l-0.153,0.218l-0.259,0.246l-0.065,0.102l-0.325,0.334l-0.037,0.079l-0.32,0.417l-0.205,0.205l-0.041,0.083l-0.042,0.362l0.005,0.111l-0.089,0.209l-0.246,0.353l-0.187,0.196l-0.111,0.056l-0.025,0.052l0.022,0.031l0.037,0.01v0.123l-0.21,0.307l-0.211,0.191l-0.077,0.192l0.04,0.05l0.124,0.009l0.114,0.133l0.044,0.275l-0.003,0.285l-0.137,0.328l-0.009,0.089l0.013,0.037l-0.01,0.053l-0.031,0.046l0.003,0.072l0.044,0.052l-0.003,0.071l-0.087,0.223l-0.046,0.037l-0.003,0.081l0.021,0.043l-0.006,0.049l-0.034,0.081l0.003,0.08l0.037,0.044l0.068,0.015l0.047,0.062l-0.007,0.09l-0.03,0.058l-0.004,0.05l0.031,0.046l0.016,0.195l0.04,0.087l-0.006,0.117l-0.071,0.152l-0.006,0.142l0.034,0.093v0.269l0.058,0.093v0.099l-0.114,0.216v0.056l0.025,0.046l0.061,0.016l0.065,0.08l-0.018,0.084l-0.13,0.244l-0.028,0.118l-0.139,0.216v0.099l-0.04,0.056l-0.084,0.037l-0.086,0.118l-0.056,0.216l0.015,0.217l0.056,0.043l0.26,-0.012l0.139,0.021l0.195,0.105l0.155,0.133l0.102,0.164l0.028,0.105l0.064,0.05l0.115,0.019l0.124,0.074l0.133,0.26l0.108,0.352l0.117,0.124l0.013,0.053l0.043,0.024l0.121,0.003l0.099,0.056l0.025,0.133l-0.078,0.368l-0.102,0.616l-0.077,0.374l-0.009,0.198l-0.065,0.3l-0.022,0.139l-0.142,0.328l-0.143,0.186l-0.232,0.504l-0.031,0.099l-0.176,0.328l-0.034,0.123l-0.145,0.211l-0.034,0.133l-0.217,0.272l-0.059,0.121l-0.488,0.464l-0.341,0.266l-0.139,0.188l-0.015,0.084l-0.037,0.065l-0.14,0.145l-0.222,0.328l-0.084,0.167l-0.003,0.093l-0.022,0.049l-0.037,0.041l-0.024,0.077l-0.016,0.102l-0.176,0.275l-0.096,0.211l-0.164,0.173l-0.161,0.136l-0.13,0.198l-0.04,0.139l-0.037,0.065l-0.05,0.037l-0.043,0.059l-0.022,0.105l-0.049,0.08l-0.241,0.217l-0.266,0.118l-0.279,0.253l-0.111,0.149l-0.244,0.269l-0.093,0.151l-0.109,0.106l-0.095,0.133l-0.022,0.08l-0.3,0.309l-0.077,0.109l-0.214,0.194l-0.69,0.446l-0.795,0.456l-1.039,0.524l-0.478,0.223l-0.144,0.102l-0.116,0.056l-0.148,0.046l-0.098,0.088l-0.037,0.14l-0.218,0.255l-0.158,0.096l-0.139,0.173l-0.125,0.102l-0.182,0.083l-0.112,0.107l-0.13,0.177l-0.199,0.231l-0.33,0.228l-0.232,0.253l-0.074,0.18l-0.192,0.198l-0.049,0.111l-0.204,0.18l-0.118,0.136l-0.056,0.154l-0.123,0.143l-0.433,0.297l-0.551,0.222l-0.322,0.056l-1.299,0.532l-0.216,0.05l-0.873,0.402l-0.148,0.142l-1.033,0.284l-1.961,0.365l-0.272,0.069l-1.337,0.198h-0.266l-0.204,0.03l-0.117,0.056l-0.404,0.043l-0.172,0.051l-0.199,0.181l-0.061,0.121l-0.092,0.093l-0.186,0.571l-0.135,0.157l-0.12,0.246l-0.107,0.107l-0.329,0.148l-0.079,0.07l-0.195,0.084l-0.056,0.069l-0.049,0.175l-0.076,0.187l-0.074,0.097l-0.07,0.209l-0.004,0.126l-0.149,0.519l-0.181,0.399l-0.195,0.613l-0.283,0.543l-0.274,0.422l-0.129,0.283l-0.135,0.236l-0.07,0.344l-0.041,0.102v0.069l0.037,0.065l-0.019,0.107l-0.148,0.39l-0.139,0.25l-0.14,0.372l-0.023,0.199l-0.125,0.348l-0.306,0.654l-0.14,0.218l-0.301,0.325l-0.395,0.302l-0.143,0.06l-0.158,0.084l-0.144,0.12l-0.418,0.241l-0.116,0.033l-0.139,0.07l-0.074,0.078l-0.13,0.079l-0.12,0.028l-0.144,0.093l-0.242,0.227l-0.194,0.112l-0.386,0.176l-0.352,0.088l-0.483,0.033l-0.074,0.046l-0.097,0.213l-0.339,0.413l-0.422,0.334l-0.172,0.079l-0.348,0.051l-0.116,0.065l-0.376,0.487l-0.19,0.381l-0.005,0.088l0.056,0.07v0.552l-0.079,0.348l-0.209,0.529l-0.176,0.283l-0.023,0.116l-0.223,0.338l-0.195,0.195l-0.06,0.112l-0.111,0.324l-0.075,0.33l-0.106,0.298l-0.053,0.075l-0.003,0.058l0.025,0.05l-0.093,0.337l-0.232,0.495l-0.248,0.288l-0.151,0.287l-0.006,0.075l0.015,0.052l-0.003,0.068l-0.117,0.226l-0.022,0.071v0.074l-0.013,0.05l-0.077,0.13l-0.003,0.114l0.022,0.062v0.13l-0.124,0.285l0.006,0.17l0.028,0.099l-0.006,0.25l-0.028,0.078v0.061l0.04,0.065v0.065l-0.018,0.059l0.003,0.04l0.083,0.102l0.044,0.127l0.006,0.161l-0.031,0.164l-0.006,0.244l-0.05,0.121v0.139l0.025,0.077l-0.009,0.158l-0.124,0.282l-0.043,0.164l-0.115,0.219l-0.074,0.322l-0.006,0.195l0.021,0.062l-0.009,0.139l-0.079,0.107l-0.102,0.051l-0.102,0.079l-0.06,0.088l-0.088,0.051l-0.209,0.088l-0.056,0.093l-0.014,0.139l-0.079,0.237l-0.111,0.134l-0.251,0.13l-0.501,0.172l-0.26,0.162l-0.139,0.158l-0.26,0.236l-0.287,0.372l-0.084,0.153l-0.25,0.301l-0.59,0.432l-0.296,0.269l-0.27,0.339l-0.083,0.06l-0.056,0.07l-0.023,0.06l-0.125,0.139l-0.144,0.079l-0.07,0.093l-0.018,0.144l-0.065,0.129l-0.478,0.33l-0.571,0.288l-0.575,0.473l-0.241,0.301l-0.195,0.186l-0.144,0.278l-0.019,0.154l-0.074,0.139l-0.111,0.079l-0.047,0.088l0.005,0.088l-0.028,0.074l-0.213,0.223l-0.051,0.102l0.021,0.099l0.076,0.045l0.02,-0.02l-0.052,-0.056l0.015,-0.05h0.065l0.04,-0.034l0.034,-0.077l0.133,-0.114l0.053,-0.013l0.034,-0.024l0.009,-0.05l0.118,-0.173l0.08,-0.226l0.003,-0.127l0.047,-0.136l0.13,-0.238l0.139,-0.149l0.151,-0.21l0.105,-0.046l0.072,0.028l0.058,-0.025l0.041,-0.112l0.157,-0.173l0.031,0.01l-0.003,0.061l-0.043,0.072l0.012,0.052l0.031,-0.003l0.068,-0.136l0.031,-0.003l0.053,0.117l0.04,0.245l-0.053,0.213l-0.003,0.077l0.034,0.004l0.105,-0.068h0.065v0.027l-0.049,0.062l-0.071,0.028l-0.037,0.046l-0.053,0.168l-0.105,0.111l-0.065,0.015l-0.077,0.075l-0.121,0.238l-0.251,0.337l-0.03,0.083l-0.081,0.124l-0.102,0.043l-0.059,0.069l-0.031,0.092l-0.114,0.201l-0.009,0.075l-0.022,0.034l-0.065,0.012l-0.049,0.046l-0.044,0.109l-0.074,0.089l-0.158,0.059l-0.046,0.043l0.003,0.038l0.056,0.037l0.065,0.151l-0.004,0.074l-0.3,0.567l-0.321,0.318l-0.081,0.043l-0.021,0.053l0.018,0.121l-0.275,0.454l-0.105,0.124l-0.003,0.05l0.031,0.034l-0.01,0.071l-0.34,0.458l-0.111,0.071l-0.105,0.167l-0.031,0.117l0.021,0.022l0.084,-0.04l0.105,0.009l0.124,0.127l0.077,0.176l-0.003,0.229l-0.059,0.207l-0.226,0.294l-0.151,0.127l-0.384,0.158l-0.068,-0.003l-0.028,-0.038h-0.024l-0.028,0.093l-0.078,0.155l0.007,0.083l0.077,0.078l-0.003,0.08l-0.09,0.167l-0.102,0.124l-0.071,0.121l-0.065,0.191l-0.025,0.149l-0.003,0.127l0.019,0.071l-0.016,0.303l-0.076,0.158l-0.037,0.157l0.005,0.098l-0.07,0.181l-0.139,0.158l-0.246,0.139l-0.069,0.125l-0.019,0.097l-0.065,0.265l-0.056,0.38l-0.111,0.223l-0.097,0.093l-0.028,0.07v0.171l-0.051,0.102l-0.265,0.163l-0.389,0.148l-0.172,0.023l-0.084,-0.032l-0.074,-0.121l-0.148,-0.032l-0.116,0.046l-0.181,0.265l-0.242,0.148l-0.097,0.125l0.005,0.158l-0.047,0.098l-0.158,0.046l-0.078,0.107l-0.223,0.682l-0.102,0.167l-0.07,0.167l-0.004,0.111l-0.075,0.186l-0.079,0.111l-0.009,0.093l0.019,0.074l-0.014,0.139l-0.153,0.242l-0.163,0.125l-0.097,0.167l-0.047,0.185l0.01,0.135l0.088,0.088l-0.005,0.074l-0.153,0.177l-0.037,0.102v0.181l0.042,0.116v0.222l-0.06,0.121l-0.005,0.181l0.032,0.07l-0.004,0.162l-0.065,0.2l-0.019,0.259l-0.116,0.367l-0.032,0.371l-0.075,0.232l-0.013,0.418l-0.116,0.473l-0.019,0.292l0.028,0.07l-0.005,0.093l-0.116,0.459l-0.004,0.608l-0.13,0.297l-0.028,0.12l-0.042,0.07l0.005,0.06l0.086,0.149v0.139l-0.136,0.173l-0.009,0.074l0.037,0.072l0.09,0.027l0.105,0.164l0.058,0.159l0.038,0.022l-0.098,-0.371l0.014,-0.102l0.005,-0.125l-0.033,-0.229l0.087,-0.167l0.118,-0.464l-0.013,-0.334l0.285,-0.644l0.025,-0.278l0.366,-1.092h25.906l-0.173,-4.19l-0.345,-3.993l-0.468,-1.652l0.271,-0.715l0.025,-0.493l0.641,-0.566l2.803,-1.794l1.448,-0.297l1.475,-0.723l0.232,-0.019l0.538,-0.195l0.233,-0.037v-17.912h22.011v-9.37v-1.247v-1.311z"/>
</svg>
