<svg xmlns="http://www.w3.org/2000/svg" viewBox="1292.959 403.374 23.393 25.102">
  <path d="M1305.426603,406.469109l0.259,0.042l0.205,0.139l0.306,0.102l0.037,0.13l-0.084,0.046l-0.111,-0.083l-0.083,0.037v0.186l-0.103,0.074l-0.194,0.028l-0.13,0.176l0.055,0.139l0.158,0.047l0.093,-0.056l0.111,-0.213l0.13,-0.038l0.251,0.065l0.204,-0.018l0.13,0.065l0.028,0.13l0.185,0.185l0.158,0.019l0.13,-0.047l0.111,0.038l0.112,0.222l0.13,0.065l0.027,0.112l-0.092,0.102v0.111l0.092,0.074h0.177l0.445,0.074l0.492,0.13l0.148,0.195l-0.018,0.139l-0.158,0.242l-0.093,0.232l-0.028,0.297l-0.074,0.139l-0.009,0.148l0.213,0.353l0.01,0.213l-0.056,0.149l0.028,0.13l0.213,0.213l0.028,0.195l-0.056,0.204l0.084,0.177l0.371,0.167l0.195,0.167v0.167l-0.269,0.222l0.009,0.14l0.288,0.12l0.222,0.223l0.028,0.25l-0.232,0.056l-0.232,-0.213l-0.139,0.065l0.074,0.343l0.427,0.455l0.158,0.185l0.056,0.204l0.195,0.214l0.278,0.111l0.278,0.269l0.028,0.167l0.139,0.084l0.149,-0.009l0.139,0.092l0.167,0.325l-0.018,0.167l-0.084,0.009l-0.056,0.084l0.047,0.204l-0.121,0.037l-0.306,-0.037l-0.074,0.13l0.343,0.362l0.223,0.019l0.213,-0.186l0.186,-0.037l0.204,0.111l0.018,0.186l-0.12,0.185l0.009,0.112l0.13,0.065l0.037,0.13l-0.083,0.129l-0.158,-0.064l-0.251,0.083l-0.065,0.176l0.028,0.205l-0.056,0.278l0.112,0.102l0.306,-0.065l0.26,-0.195l0.111,0.019l0.028,0.111l0.186,0.084l0.046,0.194l0.121,0.047l0.389,-0.112l0.205,0.075v0.13l-0.214,0.12l-0.102,0.223l0.093,0.111l0.158,-0.055l0.315,-0.019l0.405,0.136l0.056,0.229l-0.241,0.217l-0.006,0.111l0.321,0.093l0.143,-0.093l0.179,-0.012l0.229,0.13l-0.019,0.092l0.087,0.068l0.039,0.096l-0.005,0.047h0.093l0.037,0.074l-0.042,0.023l-0.005,0.042l0.112,0.037l-0.023,0.046l0.027,0.033h0.089l0.037,0.028l0.055,0.111l0.061,0.019l0.06,-0.051l0.005,-0.061l0.037,-0.018l0.037,0.037l-0.056,0.111l0.047,0.005l0.046,-0.065l0.056,-0.005l0.028,-0.069l0.041,-0.005l0.047,0.102l-0.031,0.076l0.012,0.108l0.068,0.028l0.105,-0.006l0.022,0.031l-0.019,0.024h-0.148l-0.015,0.028l0.126,0.099l0.124,0.053h0.192l0.006,0.025l-0.053,0.043l0.01,0.052l0.083,0.022l0.053,-0.009l0.034,-0.053l0.034,0.006l0.028,0.053l0.031,0.003l0.006,-0.031l-0.047,-0.055l0.013,-0.028l0.037,0.009l0.062,0.08l0.037,-0.021l0.133,0.102l-0.012,0.046l0.021,0.019l0.084,-0.034l0.028,-0.105l0.046,0.003l0.028,0.062l-0.003,0.068l-0.381,0.17v0.055l-0.052,0.078l-0.177,-0.186l-0.074,-0.012l-0.232,0.13l-0.176,-0.05l-0.065,0.043l-0.316,-0.139l-0.346,0.248l0.025,0.154l-0.554,-0.275l0.111,-0.08l-0.151,-0.155l-0.047,0.003l-0.031,-0.046v-0.037l-0.074,-0.239l-0.065,-0.006l-0.114,-0.142l-0.068,-0.016l-0.081,0.047l0.09,0.195l-0.062,0.028l0.016,0.046l-0.31,0.062l-0.058,-0.115l-0.115,0.041l0.121,0.618l-0.48,0.056l-0.034,-0.059l-0.127,0.013l-0.099,-0.461l-0.352,-0.053l-0.105,-0.043l-0.065,-0.102l0.009,-0.087l0.093,-0.087l-0.362,-0.312l-0.396,0.421l0.08,0.179l-0.031,0.012l-0.297,-0.661l-0.117,0.074l0.043,0.086l-0.031,0.093l-0.161,0.081l0.05,0.13l-0.068,0.03l0.117,0.242l-0.136,0.043l-0.062,-0.056l-0.185,0.087v0.118l-0.18,0.123l-0.191,-0.068l0.229,-0.26l-0.099,-0.117v-0.211l-0.056,-0.068l0.216,-0.173l-0.012,-0.117l-0.08,-0.019l-0.025,-0.458l-0.476,0.105l0.006,0.242l-0.662,0.018l-0.013,0.068h-0.129l-0.075,0.118l-0.334,0.012l-0.012,0.056l0.043,0.043l0.241,-0.012l0.013,0.142l-0.631,0.043l0.062,0.062l0.024,0.167l0.266,0.65l0.075,0.056l0.031,0.191l-0.087,0.031l-0.179,0.421l0.006,0.068l0.717,0.507l-0.767,0.829l0.353,0.359l-0.149,0.371l-1.345,0.279l0.018,0.092l-0.151,0.038l0.043,0.191l-0.077,0.068l0.195,0.78l-0.576,0.121l0.075,0.297l-0.539,0.12l-0.241,-0.074l-0.083,0.046l0.102,0.186l-0.047,0.13l-0.157,0.037l-0.103,-0.093l-0.185,0.037l-0.121,0.251l-0.148,0.185l0.046,0.13l0.186,-0.028l0.176,0.706l-0.325,0.074l0.149,0.575l-0.622,0.112l-0.009,-0.195l-0.77,-0.288l-0.316,0.251l-0.26,0.399l-0.204,-0.065l-0.139,-0.223l-0.028,-0.158l0.028,-0.185l-0.019,-0.214l-0.083,-0.046l-0.167,-0.009l-0.195,-0.158v-0.112l0.13,-0.12h0.204l0.151,-0.146l0.053,-0.136l-0.034,-0.303l0.04,-0.164l-0.021,-0.164l-0.112,-0.167l-0.012,-0.136l-0.043,-0.077l-0.139,-0.079l-0.038,-0.124l0.016,-0.137l-0.084,-0.14l0.034,-0.151l0.078,-0.071l-0.01,-0.112l-0.074,-0.083v-0.139l0.093,-0.13l-0.037,-0.269l-0.149,-0.399l0.028,-0.362l-0.046,-0.112l0.037,-0.139l0.12,-0.12l0.158,-0.613v-0.158l-0.167,-0.176l-0.009,-0.213l0.059,-0.078l0.13,-0.018l0.03,-0.056l-0.068,-0.087l0.038,-0.136l0.167,-0.012l0.105,-0.068l0.142,-0.21l-0.087,-0.106v-0.173l0.174,-0.284l0.105,-0.062l0.037,-0.062l-0.031,-0.093l0.031,-0.056l0.093,-0.024l0.049,-0.149l-0.093,-0.08l-0.018,-0.068l0.068,-0.056l-0.031,-0.111l-0.118,-0.044l-0.043,-0.13l-0.074,-0.055l0.018,-0.112l0.081,-0.055l0.006,-0.081l-0.074,-0.055l0.006,-0.087l0.08,-0.043l0.013,-0.075l-0.05,-0.08l0.025,-0.068l0.087,-0.074l0.062,-0.254l-0.081,-0.068l-0.025,-0.179l0.013,-0.13l-0.044,-0.105l-0.099,-0.05l-0.068,-0.087l-0.012,-0.129l-0.173,-0.322l-0.006,-0.18l-0.087,-0.136l-0.204,-0.136l-0.13,-0.198v-0.117l0.062,-0.037l-0.006,-0.099l-0.13,-0.075v-0.055l0.093,-0.031l-0.007,-0.093l-0.154,-0.062l0.006,-0.068l0.124,-0.087l-0.031,-0.099l-0.118,-0.03l-0.006,-0.062l0.056,-0.037l-0.013,-0.093l-0.074,-0.05v-0.08l0.062,-0.062l-0.087,-0.111l-0.241,-0.106l0.006,-0.08l0.062,-0.031l-0.019,-0.068l-0.136,-0.006l-0.13,0.031l-0.228,-0.136l-0.087,-0.006l-0.074,-0.05l-0.013,-0.08l-0.303,-0.143l-0.117,-0.198l-0.198,-0.117l-0.124,-0.013l-0.012,-0.068l0.099,-0.024l0.012,-0.062l-0.118,-0.031l-0.123,0.018l-0.186,-0.049l0.019,-0.068l0.099,-0.025l0.024,-0.099l-0.061,-0.093l-0.05,-0.185l-0.136,-0.279l-0.136,-0.055l-0.013,-0.105l0.038,-0.093l-0.093,-0.211l-0.13,-0.061h-0.087l-0.08,0.055h-0.068l-0.062,-0.124l-0.142,-0.024l-0.05,0.037l-0.086,-0.013l-0.025,-0.092l-0.087,-0.081l-0.111,0.006l-0.025,-0.061l0.08,-0.068l-0.037,-0.192l-0.092,-0.087l-0.099,-0.012l-0.019,-0.13l0.093,-0.105l-0.05,-0.143l-0.136,-0.049v-0.124l0.093,-0.093l-0.006,-0.08l-0.155,-0.173l-0.105,-0.025l-0.056,0.062l-0.229,-0.037l-0.148,-0.13l-0.062,-0.124l0.006,-0.111l-0.08,-0.136l-0.118,-0.093l-0.049,-0.118l0.043,-0.068l-0.037,-0.062l-0.142,-0.006l-0.173,-0.13l-0.05,-0.117l-0.08,-0.081l-0.112,-0.031l-0.111,-0.105l-0.025,-0.117l-0.056,-0.056l-0.068,-0.025l-0.018,-0.13l-0.111,-0.086l-0.007,-0.105l-0.136,-0.137l0.05,-0.074l0.148,0.031l0.043,-0.043l-0.055,-0.074l0.031,-0.081l-0.05,-0.117l-0.086,-0.031l-0.087,-0.192l-0.136,-0.068l-0.012,-0.074l0.055,-0.037l-0.031,-0.056l-0.117,-0.025l0.018,-0.074l0.143,-0.006l0.012,-0.056l-0.062,-0.056l-0.093,-0.012l-0.074,0.025l-0.062,-0.05l0.006,-0.074l0.05,-0.05l-0.043,-0.117l0.043,-0.124l-0.037,-0.13l-0.211,-0.111l-0.167,0.049l-0.012,-0.043l0.155,-0.086l0.055,-0.093l0.013,-0.093l-0.161,-0.043l-0.081,-0.05l0.013,-0.068l0.136,-0.148l-0.025,-0.062l-0.204,0.018l-0.049,-0.055l0.031,-0.075l-0.05,-0.061l-0.111,0.055l-0.05,-0.037l0.062,-0.117l-0.037,-0.062l-0.087,-0.025l-0.074,-0.149l-0.179,-0.111l-0.05,-0.111l-0.074,-0.05l0.062,-0.154v-0.167l-0.081,-0.075l-0.092,0.007l-0.062,0.08l-0.149,-0.056l-0.105,0.006l-0.087,-0.049v-0.105l0.087,-0.025l0.124,0.062l0.049,-0.031l-0.062,-0.099l-0.241,-0.012l-0.068,-0.05l0.099,-0.148l-0.056,-0.099l-0.117,-0.019l-0.037,0.056l0.037,0.086l-0.074,0.031l-0.124,-0.08l0.018,-0.062l0.062,-0.006v-0.062l-0.191,-0.05l-0.106,-0.092l-0.006,-0.087l-0.086,-0.025l-0.075,0.044l-0.062,-0.019l-0.012,-0.093l-0.087,-0.068l-0.136,-0.006l-0.08,0.056l-0.217,-0.019l-0.024,-0.074l-0.062,-0.019l-0.05,0.068l-0.086,-0.012l-0.05,-0.093h-0.068l-0.055,0.093l-0.087,0.025l-0.056,-0.037l0.037,-0.087l-0.049,-0.031l-0.056,0.031l-0.025,0.056l-0.112,-0.037l-0.093,-0.065l-0.01,-0.07l0.172,-0.153l0.037,-0.084l0.2,-0.171l0.102,-0.033l-0.079,-0.232l0.083,-0.041l0.284,0.394l0.129,-0.07l0.056,0.158l0.167,0.088h0.13l0.093,-0.069l0.028,-0.098l-0.028,-0.069l0.004,-0.2l-0.111,-0.065l-0.097,0.065l-0.195,-0.083l-0.362,-0.437l0.093,-0.055l0.199,0.102l0.084,-0.07l0.055,-0.083l0.502,0.041l0.148,-0.046l0.102,0.07l0.084,0.12l-0.028,0.107l0.227,0.162l0.009,-0.06l0.385,0.098l0.07,-0.024l0.023,-0.139l0.153,-0.023l0.116,0.06l0.024,-0.083l-0.024,-0.13l-0.065,-0.107l-0.139,-0.056l-0.004,-0.051l0.088,-0.009l0.065,0.023l0.176,-0.009l0.06,-0.07l0.084,0.014l0.028,0.149l0.195,0.255l0.083,0.06h0.111l0.135,-0.051l0.148,-0.111l0.075,0.056h0.092l0.14,0.134l0.181,-0.055l0.143,0.074l0.079,-0.32l0.098,-0.093l0.014,-0.047l-0.014,-0.046l0.023,-0.074l0.051,-0.023l0.056,0.023l0.037,-0.019l-0.005,-0.046l0.042,-0.005l0.07,0.056h0.083l0.084,0.06v0.176l0.065,0.028l0.116,-0.018l0.129,0.004l0.098,0.024l0.06,-0.019l0.084,-0.181l0.028,-0.116l0.157,-0.093h0.126l0.403,-0.273l0.121,-0.024l0.088,0.019l0.009,0.065l-0.088,0.116l0.019,0.069l0.176,0.098l0.209,0.07h0.223l0.069,-0.061l0.214,-0.074l0.222,-0.005l0.251,0.149l0.171,0.19l0.13,0.019l0.163,0.069l0.074,0.121l-0.005,0.102l0.089,0.158l0.301,0.213l0.2,0.088l0.515,0.005l0.171,0.056l0.126,0.167l0.018,0.111l-0.083,0.283l0.032,0.144l0.144,0.037l0.19,-0.116l0.033,-0.121l0.069,-0.028l0.218,0.061l0.019,0.074l-0.028,0.102l0.037,0.172l0.102,0.069h0.088l0.334,-0.143l0.186,-0.144l0.079,-0.005l0.056,0.046l0.06,-0.004l0.102,-0.074l0.116,0.004l0.084,0.112l-0.01,0.208l-0.102,0.2l-0.288,0.162l-0.046,0.098l0.033,0.116l0.12,0.037l0.158,-0.028l0.083,-0.088l0.056,-0.158l0.102,-0.093l0.2,-0.009l0.12,0.097l0.024,0.2l-0.112,0.088v0.088l0.088,0.112l0.014,0.102l0.126,0.148l0.218,0.111h0.065l0.014,-0.037l-0.056,-0.041l-0.005,-0.042l0.028,-0.051l-0.005,-0.195l0.024,-0.144z"/>
</svg>
