<svg xmlns="http://www.w3.org/2000/svg" viewBox="1305.427 406.005 9.688 13.562">
  <path d="M1305.426603,406.469109l0.259,0.042l0.205,0.139l0.306,0.102l0.037,0.13l-0.084,0.046l-0.111,-0.083l-0.083,0.037v0.186l-0.103,0.074l-0.194,0.028l-0.13,0.176l0.055,0.139l0.158,0.047l0.093,-0.056l0.111,-0.213l0.13,-0.038l0.251,0.065l0.204,-0.018l0.13,0.065l0.028,0.13l0.185,0.185l0.158,0.019l0.13,-0.047l0.111,0.038l0.112,0.222l0.13,0.065l0.027,0.112l-0.092,0.102v0.111l0.092,0.074h0.177l0.445,0.074l0.492,0.13l0.148,0.195l-0.018,0.139l-0.158,0.242l-0.093,0.232l-0.028,0.297l-0.074,0.139l-0.009,0.148l0.213,0.353l0.01,0.213l-0.056,0.149l0.028,0.13l0.213,0.213l0.028,0.195l-0.056,0.204l0.084,0.177l0.371,0.167l0.195,0.167v0.167l-0.269,0.222l0.009,0.14l0.288,0.12l0.222,0.223l0.028,0.25l-0.232,0.056l-0.232,-0.213l-0.139,0.065l0.074,0.343l0.427,0.455l0.158,0.185l0.056,0.204l0.195,0.214l0.278,0.111l0.278,0.269l0.028,0.167l0.139,0.084l0.149,-0.009l0.139,0.092l0.167,0.325l-0.018,0.167l-0.084,0.009l-0.056,0.084l0.047,0.204l-0.121,0.037l-0.306,-0.037l-0.074,0.13l0.343,0.362l0.223,0.019l0.213,-0.186l0.186,-0.037l0.204,0.111l0.018,0.186l-0.12,0.185l0.009,0.112l0.13,0.065l0.037,0.13l-0.083,0.129l-0.158,-0.064l-0.251,0.083l-0.065,0.176l0.028,0.205l-0.056,0.278l0.112,0.102l0.306,-0.065l0.26,-0.195l0.111,0.019l0.028,0.111l0.186,0.084l0.046,0.194l0.121,0.047l0.389,-0.112l0.205,0.075v0.13l-0.214,0.12l-0.102,0.223l0.093,0.111l0.158,-0.055l0.315,-0.019l0.405,0.136l0.056,0.229l-0.241,0.217l-0.006,0.111l0.321,0.093l0.143,-0.093l0.179,-0.012l0.229,0.13l-0.019,0.092l0.087,0.068l0.039,0.096l0.389,-0.051l0.019,-0.102l-0.051,-0.083l0.028,-0.065h0.139l0.056,-0.107l-0.121,-0.176l0.028,-0.093l-0.047,-0.135l0.056,-0.227l0.084,-0.074l0.009,-0.116l-0.033,-0.121l0.005,-0.162l0.046,-0.14l-0.037,-0.176l-0.213,-0.283l0.153,-0.116l0.088,0.023l0.047,-0.037l-0.061,-0.102l-0.13,-0.069l-0.157,0.055l0.009,0.056l-0.125,0.051l-0.163,-0.241l0.051,-0.037l-0.032,-0.251l-0.228,0.014v0.056l-0.631,0.12l-0.13,-0.468h-0.069l-0.023,-0.126l-0.075,0.028l-0.009,0.056l-0.385,0.018l-0.056,-0.292l-0.436,0.13l-0.111,-0.148l0.255,-0.065l0.046,-0.627l0.172,-0.046l-0.107,-0.455l-0.417,0.051l-0.005,0.149l-0.116,-0.005l-0.107,-0.297l-0.097,0.014l-0.028,-0.186l0.088,0.042l0.501,-0.06l-0.167,-0.91l0.325,-0.069l-0.153,-0.923l-0.26,0.018l-0.301,0.093l0.014,0.158l-0.038,0.06v0.19l-0.255,0.056l-0.009,0.051l-0.111,0.014l-0.024,-0.102l-0.171,0.028l-0.102,-0.367l0.097,-0.07l-0.051,-0.213l-0.343,0.065l-0.135,-0.645l-0.195,0.111l-0.106,0.019l-0.13,0.097l-0.014,0.056h-0.042l-0.028,-0.39l-0.325,0.311l-0.055,-0.088l0.041,-0.028l-0.041,-0.083l0.065,-0.084l-0.024,-0.046l-0.171,0.093l-0.037,-0.061l0.195,-0.12l0.018,-0.102l-0.046,-0.056l0.014,-0.125l0.027,-0.042l-0.037,-0.037l-0.204,0.092l-0.236,-0.385l0.32,-0.143l0.051,0.032l0.069,-0.032l0.033,-0.13l0.107,-0.079l-0.024,-0.047l0.102,-0.088l-0.027,-0.102l0.134,-0.144l-0.148,-0.009v-0.125h0.06v-0.209l0.074,-0.014l-0.167,-0.283l0.06,-0.167l0.232,-0.107l0.186,-0.417l-0.199,-0.079l-0.084,0.107h-0.102l-0.135,-0.191l0.149,-0.269l0.116,-0.056l0.009,-0.06l0.223,-0.111l0.046,-0.056l-0.032,-0.028l-0.371,0.028l0.023,-0.051l-0.042,-0.018l-0.046,0.083l-0.07,0.005l-0.093,-0.673h-0.046l-0.033,-0.246h-0.329v0.046l0.046,0.047l-0.246,-0.005l-0.037,0.037l0.056,0.07l0.009,0.079l-0.088,-0.084l-0.042,0.023l0.042,0.13l-0.009,0.056l-0.2,0.033l-0.074,-0.024l-0.07,0.01l-0.102,-0.093l-0.125,-0.037l-0.176,-0.149h-0.093l-0.213,0.135l-0.302,-0.32l0.032,-0.062l0.072,-0.013l0.037,-0.031l-0.003,-0.024l-0.096,0.024l-0.153,-0.066l-0.135,-0.13l0.056,-0.218l-0.088,-0.093l0.018,-0.051l0.065,-0.018l0.051,-0.163l-0.097,-0.199l-0.07,-0.024l-0.069,0.028l-0.056,-0.004l-0.037,-0.075h-0.051l-0.051,0.051h-0.158l-0.107,-0.069l-0.12,0.005l-0.056,0.06l-0.107,-0.005l-0.083,0.019l-0.075,-0.005l-0.046,-0.158l-0.196,-0.01l-0.075,-0.069l-0.198,-0.051l-0.092,-0.097l-0.089,0.023l-0.038,-0.029l0.025,-0.054l-0.033,-0.019l-0.097,0.073l-0.084,0.025l-0.111,0.123l-0.163,0.02l-0.004,0.033l0.093,0.083l-0.13,0.107z"/>
</svg>
