<svg xmlns="http://www.w3.org/2000/svg" viewBox="1238.879 444.010 12.695 13.470">
  <path d="M1249.614638,451.942507l0.164,-0.145l-0.005,-0.103l-0.085,-0.136l0.019,-0.126l0.204,-0.206l0.014,-0.075l-0.119,-0.089l-0.057,-0.074l-0.156,-0.052l-0.148,-0.098l-0.042,-0.089l-0.072,-0.014l-0.004,-0.037l0.061,-0.019v-0.042l-0.099,-0.042v-0.103l0.042,-0.08l0.019,-0.098l0.1,-0.075l0.119,-0.042l0.1,0.024h0.166l0.104,0.07l0.186,0.075h0.057l0.038,-0.061l0.043,-0.005l0.209,0.131l0.061,-0.005l0.1,0.014l0.233,-0.098l0.095,-0.145v-0.187l-0.052,-0.047l0.004,-0.06l0.11,-0.028l0.047,-0.056l0.057,0.014l0.057,-0.014l0.014,-0.071l0.095,-0.004l0.053,0.046h0.038l0.052,-0.046l0.111,0.009l0.026,-0.079l-0.022,-0.089l-0.046,-0.084l-0.005,-0.094l0.047,-0.168v-0.075l-0.047,-0.024l-0.056,0.01l-0.295,-0.108l-0.028,-0.051l-0.061,-0.033l-0.075,0.014l-0.182,-0.065l-0.173,-0.122l-0.112,-0.028l-0.159,-0.093l-0.075,-0.005l-0.037,-0.033l-0.005,-0.065l-0.033,-0.019l-0.065,0.065l-0.075,0.113h-0.061l-0.079,-0.052l-0.033,-0.084l-0.089,-0.093l-0.178,-0.108l-0.042,-0.098l-0.07,-0.07l-0.285,-0.136l-0.112,-0.108l-0.103,-0.238l0.019,-0.126l-0.052,-0.038l-0.234,0.103l-0.056,0.056h-0.065l-0.169,-0.089l-0.074,-0.079l-0.066,-0.005l-0.033,0.07l-0.116,0.066l-0.043,-0.023l0.038,-0.103l-0.061,-0.042l-0.079,0.014l-0.169,-0.061l-0.079,-0.117l0.014,-0.126l-0.07,-0.066l-0.085,-0.014l-0.084,0.047l-0.065,-0.033v-0.047l-0.042,-0.023l-0.295,0.009l-0.065,-0.032l-0.019,-0.061l-0.08,-0.038l-0.107,-0.018l-0.066,-0.052l0.005,-0.107l-0.117,-0.164l-0.187,-0.098l-0.163,-0.005l-0.141,-0.075l-0.098,-0.187l-0.009,-0.089l0.042,-0.112l-0.005,-0.084l-0.098,-0.093l-0.234,-0.052l-0.15,-0.15v-0.088l-0.07,-0.094l-0.018,-0.126l-0.066,-0.056l-0.201,-0.01l-0.112,-0.056l-0.005,-0.051l-0.061,-0.038l-0.116,0.01l-0.113,-0.052l-0.084,-0.126l-0.107,-0.065l-0.108,-0.005l-0.295,-0.14l-0.074,-0.075l-0.145,-0.089l-0.019,-0.108l0.023,-0.145l-0.018,-0.132l-0.062,-0.034l-0.239,-0.019l-0.057,0.01l-0.077,-0.014l-0.051,0.002l-0.124,0.104l-0.064,0.013l-0.064,-0.01l-0.057,0.01l-0.044,0.035l-0.178,0.042l-0.049,0.044l-0.091,0.013l-0.037,-0.037l-0.01,-0.127l-0.096,-0.129l-0.097,-0.052l-0.027,-0.072l-0.096,-0.013l-0.044,0.04l-0.033,0.144l-0.076,0.057l-0.21,0.095l-0.088,0.014l-0.057,0.087l0.012,0.062l0.052,0.023l0.064,-0.018l0.022,-0.059l0.055,-0.005l0.064,0.102l0.034,0.174l-0.017,0.104l0.022,0.027l0.104,-0.025l0.118,0.072l0.077,0.023l0.061,0.062l0.023,0.087l0.007,0.127l0.081,0.074l0.052,0.013l-0.007,0.119l-0.035,0.02l-0.002,0.022l0.032,0.03l0.017,0.064l0.123,0.112l0.082,0.114v0.053l0.015,0.037l0.034,0.022l0.012,0.05l-0.029,0.067l0.007,0.042l-0.024,0.033l-0.195,0.062l-0.045,-0.005l-0.034,0.017l-0.089,0.226l-0.054,0.067l-0.055,-0.002l-0.108,-0.085l-0.022,-0.107l-0.092,-0.072l-0.074,-0.015l-0.042,-0.042l-0.012,-0.119l0.057,-0.072l-0.008,-0.097l-0.088,-0.03l-0.188,-0.211h-0.069l-0.037,0.032h-0.064l-0.044,-0.017l-0.072,0.005l-0.153,0.06l-0.066,0.005v0.027l0.071,0.074l0.017,0.065l-0.017,0.032l-0.089,0.028l-0.019,0.034l-0.028,0.015l-0.049,-0.005l-0.049,0.013l-0.059,0.047l-0.119,0.03l-0.362,0.179l-0.294,0.206l0.118,0.156l0.065,0.023l-0.19,0.084l-0.03,0.087l-0.116,0.085l-0.106,0.417l0.076,0.869l-0.059,0.008l-0.148,0.059h-0.098l-0.136,-0.029l-0.373,0.007l-0.128,0.107l-0.054,0.134l-0.079,0.055l-0.079,0.261l-0.017,0.265l0.079,0.117l0.091,0.206l-0.131,0.07l0.035,0.064l-0.008,0.068l-0.042,0.022l-0.049,-0.017l-0.042,0.012l-0.037,0.062l-0.012,0.104l0.061,0.08l-0.172,0.104l0.054,0.03l0.01,0.032l-0.015,0.025v0.032l0.04,0.035v0.037l-0.013,0.023l0.008,0.042l0.049,0.042l0.007,0.139l0.04,0.058l0.103,0.042l0.045,0.04l-0.005,0.034l0.03,0.02l0.074,0.005l0.061,0.065l0.089,0.035l0.131,0.002l0.089,0.025l-0.052,0.077l-0.01,0.062l-0.057,0.077l-0.027,0.002l-0.015,0.02l0.035,0.062l-0.01,0.06l0.022,0.04l0.069,0.045l0.077,0.156l-0.082,-0.005l-0.155,0.035l-0.074,0.069l-0.037,0.1l0.066,0.059l0.015,0.058l0.037,0.034l0.057,0.035l0.037,0.055v0.054l-0.069,0.048l-0.052,-0.008l-0.032,-0.055l-0.062,-0.027l-0.106,-0.02l-0.049,0.005l-0.04,0.067l-0.101,0.05l-0.017,0.027l0.005,0.035l-0.02,0.015l-0.071,-0.017l-0.092,0.019l-0.024,0.053l-0.037,0.002l-0.004,0.276l0.055,0.056v0.061l-0.065,0.135l0.019,0.061l0.181,0.084l0.102,0.108l0.051,0.103l0.236,0.177l0.021,-0.018l-0.018,-0.053l-0.093,-0.094l-0.009,-0.053l0.031,-0.065l0.046,-0.003l0.065,0.059l0.124,0.015l0.052,-0.018l0.068,0.012l0.103,0.084l0.158,0.028l0.222,-0.065l0.109,-0.078l0.096,-0.031l0.083,-0.156l-0.015,-0.047l-0.112,-0.056h-0.052l-0.006,-0.031l0.145,-0.091l0.037,-0.056h0.034v0.038l-0.018,0.047l0.012,0.071l0.142,0.084h0.229l0.069,-0.034l0.034,0.009l-0.013,0.122l0.019,0.234l0.031,0.096l-0.025,0.013l-0.046,-0.081l-0.016,-0.109l-0.136,-0.137l-0.161,-0.069l-0.118,0.006l-0.074,0.144l0.046,0.152l0.118,0.122l0.062,0.034l0.019,0.056l-0.019,0.038l-0.05,-0.003l-0.015,0.028l0.034,0.037l-0.012,0.025l-0.062,-0.015l-0.05,-0.038l-0.099,-0.034l-0.099,-0.006l-0.152,-0.047l-0.13,-0.069l-0.263,-0.065l-0.151,0.025l-0.041,0.046l0.013,0.05l0.086,0.075l0.087,0.028l0.009,0.035l-0.027,0.031l0.006,0.028l0.12,0.065l0.028,0.05l0.072,0.062l0.123,0.019l0.05,-0.031h0.065l0.043,0.025l0.031,-0.006l0.019,-0.056l-0.019,-0.053l0.028,-0.032l0.105,-0.006l0.09,0.031l0.102,0.197l-0.025,0.009l-0.043,-0.019l-0.037,0.01l-0.006,0.031l0.086,0.04l0.069,0.072l0.021,0.084l-0.025,0.047l0.031,0.087l0.372,0.331l0.068,-0.006l0.062,-0.063l0.105,-0.031l0.087,0.037h0.068l0.074,-0.049l0.18,0.018l0.124,0.088l0.061,0.299l0.106,0.137l0.266,0.131l0.074,0.093l0.031,0.088l0.173,0.143l0.038,0.094l0.08,0.043h0.167l0.106,0.05l0.018,0.075l0.167,0.131l0.006,0.093l-0.068,0.025l-0.006,0.063l0.186,0.149l0.223,0.131l0.08,0.15v0.318l-0.049,0.062l0.012,0.081l0.142,0.088l-0.015,0.04l-0.056,-0.005l-0.009,0.038l0.172,0.131l0.427,0.182l0.209,0.052l0.246,0.121l0.232,0.178l0.084,0.079l0.085,0.006l-0.004,-0.207l0.037,-0.034l-0.003,-0.043l-0.07,-0.022l-0.024,-0.07l-0.112,-0.042l-0.022,-0.027l0.01,-0.045l0.09,-0.025l0.065,-0.049l-0.007,-0.053l-0.112,-0.104l0.005,-0.112l0.216,-0.047l0.012,-0.037l-0.065,-0.04l-0.005,-0.042l0.029,-0.095l0.002,-0.072l-0.046,-0.049l0.003,-0.095l-0.029,-0.074l0.009,-0.092l0.044,-0.087l0.007,-0.159l0.022,-0.064l0.049,-0.258l-0.652,-0.58l0.396,-0.437l0.219,-0.299v-0.1l0.055,-0.087l0.195,-0.181l-0.041,-0.178l0.082,-0.182l0.1,-0.089l0.092,-0.018l0.087,-0.052l0.205,-0.337l0.096,-0.028l0.037,-0.046v-0.061l0.132,-0.215l0.064,-0.056l0.06,-0.094l-0.01,-0.075l0.028,-0.065l0.274,-0.136l0.059,-0.098l-0.041,-0.173l0.014,-0.08l0.311,-0.388l0.064,-0.018l0.064,0.004l0.105,-0.103l0.032,-0.074l0.091,-0.061l0.087,0.005l0.045,0.051v0.065l0.051,0.028l0.064,0.015l0.023,0.051l-0.042,0.042v0.098l0.073,0.042l0.106,0.183l-0.032,0.042l-0.064,-0.005l-0.078,0.061v0.117l-0.032,0.084l0.005,0.079l0.118,0.253l0.183,0.192l0.228,0.103l0.042,-0.014l0.027,-0.066l0.078,-0.033l0.064,0.01l0.073,-0.024l0.013,-0.06l0.051,-0.005l0.082,0.042l0.059,-0.037l0.028,-0.117l0.192,-0.075l0.1,0.037l0.151,-0.009l0.137,0.023l0.064,-0.028l0.041,-0.117l-0.005,-0.07l0.028,-0.061l0.173,-0.032l0.087,-0.066l0.124,0.01z"/>
</svg>
