<svg xmlns="http://www.w3.org/2000/svg" viewBox="700.342 630.080 1.208 0.555">
  <path d="M701.278388,630.323107l0.00983,-0.012288l0.00983,0.012288l-0.00983,0.022118h-0.014745l0.004915,-0.022118Z M701.464113,630.167501l0.049298,-0.019719l0.036973,-0.044368l-0.009041,-0.023602l-0.058981,0.002458l-0.04915,0.03932l-0.004915,0.041778l0.035816,0.004133Z M701.258728,630.229721l0.01966,-0.014745l0.002458,-0.014745l-0.024575,-0.004915l-0.012288,0.024575l0.014745,0.00983Z M700.602666,630.434129l0.018504,-0.006168l0.003084,-0.018504l-0.018504,-0.003084l-0.009252,0.01436l0.006168,0.013396Z M700.667429,630.600662l0.012336,-0.006168l0.003084,-0.01542l-0.018504,-0.003084l-0.009252,0.012336l0.012336,0.012336Z  M700.763031,630.634586l0.088,-0.029l0.002,-0.035l0.025,-0.019h0.032l0.027,-0.045l0.039,0.005l0.03,-0.007l0.081,0.056l0.027,-0.014l0.049,0.024l0.037,-0.024l0.029,0.01l0.022,-0.003l0.027,0.022l0.018,-0.005l-0.03,-0.054l0.017,-0.019l-0.017,-0.018l-0.024,-0.007l-0.018,-0.032l0.015,-0.029h0.03l0.014,-0.023l-0.061,-0.051l-0.022,-0.062l0.012,-0.039l-0.02,-0.02l0.01,-0.019l0.027,0.005l0.01,-0.022l-0.02,-0.025l0.003,-0.054l-0.037,-0.02l-0.037,0.01l-0.044,-0.005l-0.015,0.025l0.01,0.037l-0.025,0.007l-0.017,-0.02l-0.034,-0.012l-0.017,0.012v0.074l-0.04,0.037l-0.044,0.005l-0.027,-0.015l-0.032,0.02v0.034l-0.037,0.02l-0.01,0.024l-0.019,0.01l-0.003,0.022l0.025,0.025l-0.003,0.029l-0.029,0.035l0.002,0.024l-0.029,0.025l-0.037,0.005l-0.02,0.02l-0.051,-0.003l-0.054,-0.032l-0.013,-0.029l0.027,-0.013l-0.009,-0.012l-0.042,0.007l-0.032,0.023l-0.049,-0.008l-0.054,-0.029l-0.04,0.012l-0.012,0.034l-0.032,0.027l0.015,0.02l0.042,0.01l0.032,0.017l0.002,0.022l0.025,-0.005h0.014l0.01,-0.022l0.03,-0.017l0.027,-0.027l0.034,-0.007l0.071,0.051h0.091l0.045,-0.037l0.002,0.018l-0.027,0.063l-0.027,0.008l0.002,0.015l0.033,0.019z"/>
</svg>
