<svg xmlns="http://www.w3.org/2000/svg" viewBox="2178.751 653.510 75.054 67.191">
  <path d="M2232.452125,654.139617l0.157753,-0.162393l0.208791,-0.097436l0.088156,-0.111355l-0.00928,-0.23199l0.046398,-0.027839l0.023199,0.041758l-0.00464,0.22735l-0.111355,0.143834l-0.22271,0.106715l-0.115995,0.097436l-0.060317,0.013919Z M2188.819445,675.881721l0.069597,-0.037118l0.064957,-0.106715l-0.00928,-0.055678l-0.060317,0.088156l-0.115995,0.060317l-0.00928,0.046398l0.060317,0.00464Z M2189.102472,675.519816l0.041758,-0.111355l-0.027839,-0.037118l-0.037118,0.013919l-0.013919,0.148474l0.037118,-0.013919Z M2189.16743,675.315665l0.041758,-0.00928l-0.00464,-0.037118l-0.032479,-0.018559l-0.027839,0.032479l0.023199,0.032479Z M2188.244109,673.756692l0.051038,-0.018559l-0.023199,-0.069597l-0.051038,-0.00464l-0.032479,0.051038l0.055678,0.041758Z M2188.768407,674.058279l0.078877,0.018559l-0.00464,-0.046398l-0.102076,-0.055678l-0.032479,0.018559l0.060317,0.064957Z M2178.751078,685.812439l0.015466,0.024746l0.024746,-0.003093l0.00928,-0.027839l-0.037118,-0.015466l-0.012373,0.021652Z M2179.125355,685.960913l0.052584,0.027839l0.034025,-0.003093l-0.024746,-0.034025l-0.040212,-0.00928l-0.021652,0.018559Z M2179.617174,686.220742h0.030932l0.003093,-0.024746l-0.021652,-0.012373l-0.021652,0.015466l0.00928,0.021652Z M2179.771834,686.298072l0.148474,0.040212l0.071144,-0.00928l0.018559,-0.030932l-0.027839,-0.015466l-0.027839,0.018559l-0.046398,0.003093l-0.14538,-0.040212l-0.018559,0.015466l0.027839,0.018559Z M2240.086771,670.250163l0.034509,0.022184l0.022184,-0.014789l-0.027114,-0.036973l-0.032044,-0.007395l-0.012324,0.017254l0.014789,0.019719Z M2179.842978,686.100107l0.027839,-0.00928l0.003093,-0.027839h-0.034025l-0.021652,0.018559l0.024746,0.018559Z M2240.288892,669.895218l0.041903,-0.034509l0.022184,-0.044368l-0.024649,-0.00493l-0.046833,0.036973l-0.012324,0.044368l0.019719,0.002465Z M2227.003115,713.703776l0.046833,-0.036973l-0.00986,-0.032044l-0.093666,-0.017254l-0.027114,0.022184l0.051763,0.066552l0.032044,-0.002465Z M2227.008044,713.918222l0.044368,0.046833l0.093666,0.00493l0.039438,-0.032044l0.083806,-0.258814l-0.022184,-0.024649l-0.101061,0.019719l-0.00493,0.027114l0.051763,0.00493l0.012324,0.024649l-0.054228,0.189797l-0.066552,0.007395l-0.034509,-0.041903l-0.002465,-0.064087l-0.017254,-0.014789l-0.027114,0.019719l0.00493,0.091201Z M2230.890252,720.649847l0.083806,0.049298l0.108455,0.002465l0.155288,-0.059157l0.184867,-0.147894l0.027114,-0.103526l-0.002465,-0.113385l-0.007395,-0.046833l-0.024649,0.022184l-0.002465,0.11585l-0.017254,0.091201l-0.157753,0.133104l-0.145429,0.069017l-0.086271,-0.00493l-0.086271,-0.066552l-0.032044,0.014789l0.002465,0.044368Z M2230.885322,720.526602l0.002465,-0.036973l-0.022184,-0.00986l-0.012324,0.017254l0.012324,0.036973l0.019719,-0.007395Z M2230.767007,720.474839l0.019719,-0.00986l-0.022184,-0.036973l-0.027114,-0.002465l-0.014789,0.024649l0.044368,0.024649Z M2230.690596,720.35406l-0.019719,-0.10599l-0.022184,-0.00986l-0.022184,0.027114l0.012324,0.041903l0.027114,0.036973l0.024649,0.00986Z M2230.762078,720.087851l0.034509,-0.036973l-0.014789,-0.022184l-0.029579,0.00986l-0.00493,0.032044l0.014789,0.017254Z M2233.695591,713.666706l0.055678,-0.024746l0.012373,-0.030932l-0.030932,-0.00928l-0.058771,0.037118l-0.00928,0.027839h0.030932Z M2236.720741,712.571713l0.043305,0.055678l0.120635,0.071144l0.058771,-0.012373l0.003093,-0.046398l0.024746,-0.034025l0.049491,-0.250549l0.061864,-0.247456l0.00928,-0.120635l0.027839,-0.06805l0.049491,-0.064957l0.015466,-0.055678l-0.037118,-0.043305l-0.021652,0.021652l0.015466,0.040212l-0.052584,0.064957l-0.034025,0.080423l-0.006186,0.117542l-0.06805,0.250549l-0.043305,0.259829l-0.052584,0.043305l-0.058771,-0.015466l-0.071144,-0.058771l-0.058771,-0.030932l-0.00928,0.021652l0.034025,0.021652Z M2237.209466,711.721083l0.14538,-0.095889l0.043305,-0.071144l0.06805,-0.049491l0.15466,-0.037118l0.058771,-0.114448l0.003093,-0.089703l0.024746,-0.06805l-0.006186,-0.037118l-0.080423,-0.046398l-0.170126,-0.114448l-0.046398,-0.07733l-0.061864,-0.052584l-0.064957,-0.024746l-0.012373,0.024746l0.083516,0.058771l0.058771,0.089703l0.176312,0.117542l0.06805,0.07733l-0.012373,0.136101l-0.040212,0.083516l-0.167033,0.046398l-0.074237,0.055678l-0.034025,0.064957l-0.108262,0.089703h-0.037118l-0.015466,0.021652l0.046398,0.012373Z M2235.82062,711.643753l0.024746,-0.018559l-0.06805,-0.055678l-0.071144,-0.003093l0.012373,0.046398l0.102076,0.030932Z M2236.27851,712.069552v0.029579l0.043208,0.039535l0.027839,-0.006186l-0.012373,-0.030932l-0.029095,-0.024601l-0.029579,-0.007395Z M2236.379571,712.185402l0.017254,-0.027114l-0.00493,-0.024649l-0.022184,0.00986l-0.00493,0.027114l0.014789,0.014789Z M2236.382035,712.259348l0.002465,0.036973l0.029579,0.022184l0.00986,-0.019719l-0.017254,-0.041903l-0.024649,0.002465Z M2236.542254,712.419566l-0.014789,-0.046833l-0.019719,-0.027114l-0.017254,0.014789l0.00986,0.041903l0.032044,0.039438l0.00986,-0.022184Z M2237.017978,710.883938l0.019719,-0.017254l-0.007395,-0.032044l-0.022184,0.00493l-0.018269,0.040163l0.028129,0.004205Z M2236.948961,710.827245l0.022184,-0.012324l-0.046833,-0.054228l-0.027114,0.002465l0.00986,0.036973l0.041903,0.027114Z M2236.838041,710.70893l0.022184,-0.00493l-0.064087,-0.175007l-0.017254,-0.029579l-0.041903,-0.024649l-0.007395,0.022184l0.027114,0.029579l0.059157,0.157753l0.022184,0.024649Z M2236.576762,710.408213l0.019719,-0.00986l-0.00493,-0.10599l-0.081341,-0.157753l-0.024649,-0.00493l0.002465,0.032044l0.073947,0.130639l0.002465,0.083806l0.012324,0.032044Z M2235.649962,709.616982h0.034509l0.002465,-0.019719l-0.044368,-0.012324l-0.019719,0.012324l0.027114,0.019719Z M2235.598199,709.535641l0.024649,0.00493l-0.002465,-0.039438l-0.019719,-0.014789l-0.00986,0.022184l0.007395,0.027114Z M2235.605594,709.405001h0.022184l0.012324,-0.024649l-0.012324,-0.046833l-0.017254,0.002465l-0.014789,0.034509l0.00986,0.034509Z M2236.50528,710.01876l0.00986,-0.017254l-0.012324,-0.022184l-0.017254,0.012324l-0.002465,0.022184l0.022184,0.00493Z M2236.177449,709.488808l0.00986,0.044368l0.024649,0.101061l0.041903,0.061622l0.00986,-0.017254l-0.019719,-0.044368l-0.012324,-0.056693l-0.027114,-0.101061l-0.032044,-0.022184l-0.007395,0.017254l0.012324,0.017254Z M2236.303159,709.764876l0.017254,0.039438l0.019719,-0.00493l-0.002465,-0.032044l-0.022184,-0.034509l-0.029579,-0.012324l-0.00493,0.019719l0.022184,0.024649Z M2236.441193,709.947278l0.024649,-0.012324l-0.00493,-0.019719h-0.019719l-0.019719,0.017254l0.019719,0.014789Z M2236.495421,710.077917l0.012324,-0.017254l-0.007395,-0.017254l-0.022184,0.007395l-0.00493,0.027114h0.022184Z M2236.401755,709.90784l0.019719,-0.014789l-0.014789,-0.022184l-0.019719,0.00986l-0.00493,0.019719l0.019719,0.007395Z M2250.946368,710.539481l0.027839,0.136101l0.064957,0.064957l0.197965,0.071144l0.204151,0.170126l0.083516,0.003093l0.074237,-0.049491l0.034025,-0.003093l-0.058771,0.07733l-0.102076,0.024746l-0.07733,-0.027839l-0.204151,-0.167033l-0.173219,-0.064957h-0.136101l-0.027839,-0.027839l0.049491,-0.108262l0.021652,-0.114448l0.021652,0.015466Z M2251.793905,710.842614l0.120635,-0.030932l0.15901,0.018028l0.071482,0.044368l0.00986,-0.014789l-0.054759,-0.056886l-0.182499,-0.024746l-0.142287,0.040212l-0.004978,0.021701l0.023537,0.003045Z M2252.278136,710.987463l0.071482,0.061622l0.086271,0.017254l0.11585,-0.044368l0.138034,0.00493l0.187332,0.054228l0.172543,0.093666v-0.017254l-0.145429,-0.101061l-0.202121,-0.066552l-0.160218,-0.002465l-0.11092,0.046833l-0.066552,-0.017254l-0.103526,-0.091201l-0.00986,0.012324l0.027114,0.049298Z M2253.170379,711.247824l0.021652,-0.006186l-0.061864,-0.058771l-0.034025,-0.00928l0.012373,0.037118l0.061864,0.037118Z M2253.411648,711.427229v0.030932l0.055678,0.024746l0.00928,-0.024746l-0.037118,-0.034025l-0.027839,0.003093Z M2253.600334,711.844811l0.052584,0.058771l0.015466,-0.021652l-0.06805,-0.14538l-0.021652,-0.021652l-0.021652,0.021652l0.043305,0.108262Z M2253.748807,712.002564l0.018559,0.046398l0.030932,0.030932l0.006186,-0.037118l-0.037118,-0.049491l-0.018559,0.00928Z M2250.918529,710.406473l0.030932,-0.012373l-0.035572,-0.317053l-0.051038,-0.153113l0.023199,-0.092796l-0.035572,-0.012373l-0.043305,0.074237v0.08661l0.049491,0.117542l0.061864,0.30932Z M2251.0498,709.835522l0.034405,-0.012288l-0.017203,-0.024575h-0.051608l-0.012288,0.027033l0.046693,0.00983Z M2253.388597,710.735732h0.024672l0.024672,-0.055511l-0.021588,-0.012336l-0.027756,0.021588v0.046259Z M2253.404892,711.11418l0.012818,0.042501l0.026503,-0.005638l0.012288,-0.03932l-0.027033,-0.01966l-0.024575,0.022118Z M2251.46001,709.740819l0.034405,-0.024575l-0.00983,-0.01966l-0.02949,0.007373l-0.014745,0.027033l0.01966,0.00983Z M2253.372983,710.824055l-0.002458,0.024575l0.00983,0.022118l0.017203,-0.01966v-0.02949l-0.024575,0.002458Z M2252.731315,709.870694v0.024575l0.024575,0.014745l0.022118,-0.014745l-0.012288,-0.024575h-0.034405Z M2253.396438,711.007465l0.011645,0.03137l0.020302,-0.001879l0.004915,-0.031948l-0.022118,-0.014745l-0.014745,0.017203Z M2252.245512,709.650186l0.011645,0.03137l0.020302,-0.001879l0.004915,-0.031948l-0.022118,-0.014745l-0.014745,0.017203Z M2252.09403,709.584403l0.012288,0.014745l0.01966,-0.004915l-0.002458,-0.024575l-0.024575,-0.004915l-0.004915,0.01966Z M2253.324659,710.225796l0.005638,0.020961l0.028767,-0.003759v-0.022118l-0.01966,-0.012288l-0.014745,0.017203Z M2251.664189,709.651122l-0.012866,0.017347l0.022118,0.012288l0.024575,-0.007373l0.007373,-0.01966l-0.0412,-0.002602Z M2251.247129,709.790481l0.00983,0.024575l0.022118,-0.002458l0.02949,-0.024575l-0.014745,-0.022118l-0.031948,0.004915l-0.014745,0.01966Z M2252.563928,709.837747l-0.016109,0.006035l0.007759,0.020712l0.032205,0.029924l0.017834,-0.001432l-0.014371,-0.031357l-0.027317,-0.023883Z M2251.976954,709.693595l0.017203,-0.024575l-0.027033,-0.004915l-0.041778,0.01966l-0.00983,0.024575l0.061438,-0.014745Z M2252.391521,709.750086l0.00986,-0.024649l-0.017254,-0.014789l-0.019719,0.00986l0.00493,0.024649l0.022184,0.00493Z M2253.340505,710.299758l0.022184,-0.012324v-0.022184l-0.019719,-0.002465l-0.012324,0.019719l0.00986,0.017254Z M2252.906684,709.865936l0.017254,-0.022184l-0.019719,-0.022184l-0.022184,0.012324l0.002465,0.027114l0.022184,0.00493Z M2251.388309,709.79199l0.029579,-0.029579l-0.027114,-0.017254l-0.039438,0.019719l-0.00493,0.029579l0.041903,-0.002465Z M2246.306568,703.657111l0.021652,0.098982l0.083516,0.105169l0.204151,0.095889l0.389743,0.126821l0.269108,0.114448l0.262922,0.089703h0.105169l0.120635,-0.061864l0.16394,-0.034025l0.111355,-0.00928l0.216524,-0.064957l0.24127,-0.024746l0.024746,-0.034025l-0.00928,-0.058771l-0.108262,-0.126821l-0.06805,-0.021652l0.018559,-0.024746l0.083516,0.012373l0.117542,0.142287l0.018559,0.108262l-0.046398,0.049491l-0.275295,0.027839l-0.191778,0.06805l-0.120635,-0.003093l-0.15466,0.040212l-0.14538,0.07733l-0.126821,-0.003093l-0.504192,-0.207244l-0.423768,-0.14538l-0.22271,-0.102076l-0.07733,-0.111355l-0.064957,-0.052584l-0.003093,-0.061864l0.058771,-0.095889l0.027839,-0.003093l0.003093,0.089703Z M2248.177954,703.851982l-0.064957,-0.043305l-0.194872,-0.151567l-0.024746,0.012373l0.027839,0.043305l0.173219,0.133008l0.06805,0.021652l0.015466,-0.015466Z M2246.569471,703.261144l0.024672,-0.012336l-0.033923,-0.033923h-0.037007l0.006168,0.030839l0.040091,0.01542Z M2248.276973,703.841008l-0.012866,0.017347l0.022118,0.012288l0.024575,-0.007373l0.007373,-0.01966l-0.0412,-0.002602Z M2247.454145,703.644738l0.021588,-0.01542l-0.024672,-0.018504l-0.043175,0.003084l0.006168,0.024672l0.040091,0.006168Z M2246.461237,703.221071l0.017203,-0.024575l-0.027033,-0.004915l-0.041778,0.01966l-0.00983,0.024575l0.061438,-0.014745Z M2249.675063,704.110264l-0.055678,0.111355l0.027839,0.088156l0.092796,0.051038l0.088156,0.102076l0.088156,0.180952l0.162393,0.097436l0.167033,-0.023199l0.106715,-0.060317l0.083516,0.00928l0.111355,0.102076l0.371184,0.204151h0.111355l0.041758,-0.064957l-0.032479,-0.23199l0.037118,-0.115995l0.134554,-0.097436l0.046398,-0.060317l0.023199,-0.078877l0.069597,-0.055678l0.366544,-0.060317l0.074237,-0.060317l0.22271,-0.018559l0.129914,-0.102076l0.088156,-0.148474l-0.106715,-0.092796l-0.064957,0.027839l0.00928,0.032479l0.060317,0.00928l0.027839,0.041758l-0.060317,0.097436l-0.083516,0.078877l-0.167033,0.00928l-0.106715,0.018559l-0.078877,0.055678l-0.324786,0.055678l-0.088156,0.060317l-0.051038,0.125275l-0.167033,0.106715l-0.041758,0.176312l0.023199,0.194872l-0.018559,0.041758l-0.092796,-0.00464l-0.334066,-0.194872l-0.102076,-0.097436l-0.129914,-0.00928l-0.111355,0.069597l-0.134554,0.00464l-0.129914,-0.088156l-0.083516,-0.167033l-0.148474,-0.157753l-0.023199,-0.078877l0.013919,-0.083516h-0.041758Z M2249.809617,703.901473l0.00464,-0.088156h-0.041758l-0.023199,0.064957l0.018559,0.041758l0.041758,-0.018559Z M2250.259678,703.186944l0.013919,-0.097436l0.060317,-0.069597v-0.041758l-0.097436,0.037118l-0.023199,0.078877l0.00928,0.134554l0.037118,-0.041758Z M2250.562783,703.845657l0.024672,-0.012336l-0.033923,-0.033923h-0.037007l0.006168,0.030839l0.040091,0.01542Z M2250.256584,702.831087h0.024672l0.024672,-0.055511l-0.021588,-0.012336l-0.027756,0.021588v0.046259Z M2249.896502,703.743465l0.034405,-0.024575l-0.00983,-0.01966l-0.02949,0.007373l-0.014745,0.027033l0.01966,0.00983Z M2251.617678,704.106345l0.012288,0.014745l0.01966,-0.004915l-0.002458,-0.024575l-0.024575,-0.004915l-0.004915,0.01966Z M2251.530983,704.096345l0.005638,0.020961l0.028767,-0.003759v-0.022118l-0.01966,-0.012288l-0.014745,0.017203Z M2251.481492,704.090159l-0.009252,0.021588l0.018504,0.01542l0.027756,-0.018504l-0.006168,-0.021588l-0.030839,0.003084Z M2250.68653,704.148828l0.021588,-0.01542l-0.024672,-0.018504l-0.043175,0.003084l0.006168,0.024672l0.040091,0.006168Z M2251.407255,704.108718l0.018504,-0.012336l-0.01542,-0.021588l-0.037007,0.006168l0.003084,0.024672l0.030839,0.003084Z M2250.584575,703.991195l0.037007,0.006168l0.012336,-0.01542l-0.027756,-0.033923l-0.033923,-0.003084l-0.003084,0.021588l0.01542,0.024672Z M2250.634051,704.083296l0.019719,-0.007395v-0.039438l-0.022184,-0.007395l-0.012324,0.022184l0.014789,0.032044Z M2247.062855,695.981335l0.00464,0.051038l0.037118,0.018559l0.046398,-0.069597l-0.013919,-0.051038l-0.088156,-0.013919l-0.013919,0.037118l0.027839,0.027839Z M2247.17885,697.108806l0.037118,0.023199l0.018559,-0.051038l-0.055678,-0.097436l-0.041758,0.013919l0.00464,0.064957l0.037118,0.046398Z M2246.283369,695.573032l0.00464,0.069597l0.037118,0.023199l0.027839,-0.032479l-0.018559,-0.051038l-0.051038,-0.00928Z M2247.162547,696.871933l0.024575,0.034405l0.01966,-0.00983l-0.007373,-0.02949l-0.027033,-0.014745l-0.00983,0.01966Z M2247.030632,696.586966l0.011645,0.03137l0.020302,-0.001879l0.004915,-0.031948l-0.022118,-0.014745l-0.014745,0.017203Z M2246.115786,696.539487l0.024575,0.00983l0.014745,-0.00983l-0.004915,-0.024575h-0.024575l-0.00983,0.024575Z M2246.452098,696.707832l-0.021598,-0.000049l0.00325,0.025092l0.020527,0.015393l0.020196,-0.005745l-0.022375,-0.034692Z M2247.104614,696.78402l0.037007,0.006168l0.012336,-0.01542l-0.027756,-0.033923l-0.033923,-0.003084l-0.003084,0.021588l0.01542,0.024672Z M2246.988618,696.426755l-0.009252,0.021588l0.018504,0.01542l0.027756,-0.018504l-0.006168,-0.021588l-0.030839,0.003084Z M2246.922115,695.874619l0.021652,0.018559l0.024746,-0.018559l-0.015466,-0.024746h-0.027839l-0.003093,0.024746Z M2247.324231,694.903354l0.012373,0.018559l0.040212,-0.021652l0.003093,-0.058771l-0.024746,-0.015466l-0.018559,0.021652l-0.003093,0.034025l-0.00928,0.021652Z M2247.599526,693.548533l0.046398,-0.027839l0.00928,-0.037118l-0.00928,-0.043305l-0.052584,0.003093l-0.027839,0.043305v0.061864h0.034025Z M2246.470507,692.450447l0.049491,0.021652l0.024746,0.037118h0.027839l-0.030932,-0.074237l-0.040212,-0.027839l-0.034025,0.00928l0.003093,0.034025Z M2245.02289,692.29888l0.046398,-0.021652l0.021652,-0.055678l0.040212,-0.024746l-0.012373,-0.030932l-0.052584,-0.00928l-0.049491,0.030932l-0.021573,0.056874l0.003014,0.045202l0.024746,0.00928Z M2245.372033,692.184205l0.034405,-0.012288l-0.017203,-0.024575h-0.051608l-0.012288,0.027033l0.046693,0.00983Z M2245.340469,693.213822l0.0189,-0.015859l-0.016782,-0.058383l-0.024466,0.004427l-0.007386,0.034378l0.029735,0.035437Z M2246.208298,694.163598l0.014745,-0.017203l-0.017203,-0.056523l-0.024575,-0.00983v0.034405l0.027033,0.04915Z M2246.050164,692.316918l0.012288,0.014745l0.01966,-0.004915l-0.002458,-0.024575l-0.024575,-0.004915l-0.004915,0.01966Z M2247.25897,694.945967l0.012288,0.014745l0.01966,-0.004915l-0.002458,-0.024575l-0.024575,-0.004915l-0.004915,0.01966Z M2247.226689,694.389903l-0.009252,0.021588l0.018504,0.01542l0.027756,-0.018504l-0.006168,-0.021588l-0.030839,0.003084Z M2246.674588,692.631447l0.041384,0.022648l0.010183,-0.033726l-0.032463,-0.033279l-0.028472,0.012342l0.009368,0.032016Z M2245.976943,692.295816l0.018504,-0.012336l-0.01542,-0.021588l-0.037007,0.006168l0.003084,0.024672l0.030839,0.003084Z M2247.234063,693.091755l0.024575,-0.00983l-0.002458,-0.022118l-0.024575,-0.02949l-0.022118,0.014745l0.004915,0.031948l0.01966,0.014745Z M2245.669804,692.192083l0.029883,-0.002619l-0.013611,-0.023868l-0.041915,-0.019366l-0.025144,0.008266l0.050787,0.037586Z M2246.064138,693.927933l0.019719,0.032044l0.024649,0.00493l-0.002465,-0.029579l-0.022184,-0.017254l-0.019719,0.00986Z M2245.262613,683.09197l0.055678,-0.027839l0.023199,-0.106715l-0.00928,-0.074237l-0.037118,-0.018559l-0.051038,0.046398l-0.018559,0.157753l0.037118,0.023199Z M2239.718052,691.350814l0.027839,0.046398l0.115995,0.046398l-0.018559,-0.046398l-0.078877,-0.041758l-0.046398,-0.00464Z M2239.98716,691.462169l0.060317,-0.013919l-0.037118,-0.027839h-0.060317l-0.032479,0.032479l0.069597,0.00928Z M2241.030825,688.465728l0.014789,0.076412l-0.029579,0.056693l0.017254,0.017254l0.083806,-0.088736l-0.024649,-0.108455l-0.049878,-0.028129l-0.024069,0.033059l0.012324,0.041903Z M2240.532917,687.854435l0.017254,-0.029579l-0.049298,-0.032044l-0.039438,0.007395l-0.039438,0.054228l0.007395,0.017254l0.032044,-0.002465l0.027114,-0.019719l0.044368,0.00493Z M2238.706575,688.020984l0.018559,-0.012373l-0.012373,-0.024746l-0.040212,-0.018559l-0.043305,0.015466l0.003093,0.027839l0.074237,0.012373Z M2239.21386,688.061196l0.021652,-0.021652l-0.040212,-0.024746l-0.030932,0.012373l0.003093,0.030932l0.046398,0.003093Z M2240.76974,689.004622l0.027839,-0.003093l0.040212,-0.037118l0.00928,-0.046398l-0.027839,0.006186l-0.027839,0.040212l-0.043305,0.021652l0.021652,0.018559Z M2240.927493,688.899453l0.021652,-0.024746l-0.027839,-0.015466l-0.046398,0.030932l0.006186,0.021652l0.046398,-0.012373Z M2240.986264,688.379795l0.00928,-0.021652l-0.027839,-0.034025l-0.021652,0.003093l0.003093,0.030932l0.037118,0.021652Z M2240.791392,688.092128l-0.027839,-0.024746l-0.021652,0.003093l-0.003093,0.024746l0.049491,0.021652l0.003093,-0.024746Z M2241.008744,688.715446l-0.006127,-0.036016l-0.027189,0.012674l-0.008962,0.050824l0.024488,0.016795l0.017789,-0.044277Z M2238.859689,690.234595v0.024575l0.024575,0.014745l0.022118,-0.014745l-0.012288,-0.024575h-0.034405Z M2240.897642,688.258866v0.024575l0.024575,0.014745l0.022118,-0.014745l-0.012288,-0.024575h-0.034405Z M2239.953856,688.901616l-0.004915,0.034405l0.01966,0.00983l0.024575,-0.022118l-0.012288,-0.022118h-0.027033Z M2239.270999,688.064545l0.012288,0.014745l0.01966,-0.004915l-0.002458,-0.024575l-0.024575,-0.004915l-0.004915,0.01966Z M2240.116524,687.978571l0.005638,0.020961l0.028767,-0.003759v-0.022118l-0.01966,-0.012288l-0.014745,0.017203Z M2239.824767,688.932462l0.024575,0.00983l0.014745,-0.00983l-0.004915,-0.024575h-0.024575l-0.00983,0.024575Z M2240.123091,688.817018l-0.009252,0.021588l0.018504,0.01542l0.027756,-0.018504l-0.006168,-0.021588l-0.030839,0.003084Z M2238.420395,687.954071l-0.009252,0.021588l0.018504,0.01542l0.027756,-0.018504l-0.006168,-0.021588l-0.030839,0.003084Z M2239.592314,688.048365l0.01868,0.010841l0.009732,-0.023355l-0.01008,-0.023594l-0.020363,-0.005123l0.002031,0.041232Z M2239.849342,689.076847l0.014745,-0.034405l-0.027033,-0.004915l-0.03932,0.024575l0.002458,0.024575l0.04915,-0.00983Z M2240.495943,688.929128l0.027114,-0.00493l0.00986,-0.019719l-0.036973,-0.00493l-0.017254,0.017254l0.017254,0.012324Z M2240.722713,688.031907l-0.012324,-0.022184l-0.029579,-0.00493l0.002465,0.019719l0.022184,0.022184l0.017254,-0.014789Z M2240.567425,687.893873l0.00493,0.022184l0.019719,-0.002465l0.002465,-0.032044l-0.024649,-0.00986l-0.002465,0.022184Z M2240.880467,688.243888l0.017254,-0.012324l-0.00493,-0.024649h-0.032044v0.022184l0.019719,0.014789Z M2240.838563,688.179801l0.014789,-0.019719l-0.029579,-0.014789l-0.017254,0.00986l0.00986,0.019719l0.022184,0.00493Z M2237.848212,676.735444l0.051038,0.00928l0.027839,-0.032479l-0.064957,-0.041758h-0.037118l-0.00928,0.037118l0.032479,0.027839Z M2238.321472,676.665847l0.088156,-0.013919l0.102076,-0.032479l0.00464,-0.051038l-0.060317,-0.032479l-0.055678,0.018559l-0.013919,0.046398l-0.106715,0.051038l0.041758,0.013919Z M2237.2628,677.346607l-0.011326,-0.040736l-0.021837,0.002513l-0.003158,0.030233l0.020359,0.023102l0.015961,-0.015112Z M2237.011264,677.550552l0.012288,0.014745l0.01966,-0.004915l-0.002458,-0.024575l-0.024575,-0.004915l-0.004915,0.01966Z M2238.365555,676.470029l-0.012866,0.017347l0.022118,0.012288l0.024575,-0.007373l0.007373,-0.01966l-0.0412,-0.002602Z M2238.610299,682.934507l0.039438,0.039438l0.022184,-0.00493l-0.00493,-0.036973l-0.027114,-0.022184l-0.034509,0.002465l0.00493,0.022184Z M2239.408925,683.452134l0.019719,0.002465l0.032044,-0.034509l0.002465,-0.066552l-0.027114,-0.002465l-0.029579,0.034509l-0.007395,0.039438l0.00986,0.027114Z M2239.196944,681.798191l0.029579,-0.029579v-0.034509l-0.041903,-0.00986l-0.024649,0.024649v0.039438l0.036973,0.00986Z M2239.318086,682.026569l-0.0175,0.040796l0.023926,0.012717l0.034687,-0.022223l-0.008071,-0.032437l-0.033043,0.001147Z M2239.352427,682.271069v0.024575l0.024575,0.014745l0.022118,-0.014745l-0.012288,-0.024575h-0.034405Z M2239.342597,682.783649v0.024575l0.024575,0.014745l0.022118,-0.014745l-0.012288,-0.024575h-0.034405Z M2239.430314,683.174501l0.011645,0.03137l0.020302,-0.001879l0.004915,-0.031948l-0.022118,-0.014745l-0.014745,0.017203Z M2239.430753,683.280383l0.005638,0.020961l0.028767,-0.003759v-0.022118l-0.01966,-0.012288l-0.014745,0.017203Z M2239.37944,682.922843l0.024575,0.00983l0.014745,-0.00983l-0.004915,-0.024575h-0.024575l-0.00983,0.024575Z M2239.316796,682.134133l-0.009252,0.021588l0.018504,0.01542l0.027756,-0.018504l-0.006168,-0.021588l-0.030839,0.003084Z M2239.359266,682.507125l0.007341,0.020312l0.022467,-0.011636l0.007444,-0.024554l-0.012306,-0.017013l-0.024947,0.032891Z M2239.289007,681.880197l-0.025688,-0.006625l0.001684,0.030793l0.030115,0.031092l0.014935,-0.020583l-0.021045,-0.034676Z M2239.367722,682.226873l0.018504,-0.012336l-0.01542,-0.021588l-0.037007,0.006168l0.003084,0.024672l0.030839,0.003084Z M2239.237919,681.844881l0.037007,0.006168l0.012336,-0.01542l-0.027756,-0.033923l-0.033923,-0.003084l-0.003084,0.021588l0.01542,0.024672Z M2239.384276,682.443993l0.019719,-0.019719l-0.012324,-0.029579l-0.024649,0.00493l-0.002465,0.024649l0.019719,0.019719Z M2239.376881,682.372511l0.022184,-0.00493l0.012324,-0.022184l-0.022184,-0.014789l-0.024649,0.019719l0.012324,0.022184Z M2239.428644,683.126768l0.022184,0.00986l0.012324,-0.019719l-0.019719,-0.024649l-0.022184,0.00493l0.007395,0.029579Z M2239.429854,683.070151l0.027114,-0.017254v-0.017254l-0.034509,0 l-0.00986,0.024649l0.017254,0.00986Z M2239.423714,683.005989l0.014789,-0.017254l-0.00986,-0.024649l-0.027114,0.002465l0.00493,0.024649l0.017254,0.014789Z M2232.860427,684.553507l0.074237,0.097436l0.102076,0.046398l0.046398,-0.027839l-0.027839,-0.060317l-0.134554,-0.074237l-0.060317,0.018559Z M2233.0321,685.518585l0.032479,-0.032479l0.00928,-0.055678l-0.037118,-0.023199l-0.032479,0.027839l-0.00464,0.051038l0.032479,0.032479Z M2233.881183,686.233115l0.162393,-0.00928l0.055678,-0.051038l0.00464,-0.032479l-0.074237,0.046398l-0.176312,0.00464l-0.041758,0.018559l0.069597,0.023199Z M2234.860181,686.09856l0.051038,0.013919l0.120635,-0.032479l0.032479,-0.027839l-0.064957,-0.023199l-0.083516,0.023199l-0.055678,-0.00928l-0.032479,0.027839l0.032479,0.027839Z M2234.971536,685.950087l0.064957,0.023199l0.00928,-0.032479l-0.060317,-0.060317h-0.037118l-0.00464,0.032479l0.027839,0.037118Z M2234.744186,685.657779l0.055678,0.00928l-0.00928,-0.051038l-0.032479,-0.037118h-0.032479l-0.018559,0.032479l0.037118,0.046398Z M2234.479717,686.038243l0.034405,-0.012288l-0.017203,-0.024575h-0.051608l-0.012288,0.027033l0.046693,0.00983Z M2234.423745,685.424413v0.024575l0.024575,0.014745l0.022118,-0.014745l-0.012288,-0.024575h-0.034405Z M2234.592704,685.531679l0.012288,0.014745l0.01966,-0.004915l-0.002458,-0.024575l-0.024575,-0.004915l-0.004915,0.01966Z M2234.857979,685.848011l0.024575,0.00983l0.014745,-0.00983l-0.004915,-0.024575h-0.024575l-0.00983,0.024575Z M2234.660697,685.541895l-0.009252,0.021588l0.018504,0.01542l0.027756,-0.018504l-0.006168,-0.021588l-0.030839,0.003084Z M2233.343678,685.724813l0.021261,0.003798l0.001157,-0.025275l-0.017542,-0.018724l-0.020887,0.00215l0.016011,0.03805Z M2233.179018,684.684866l0.021588,-0.01542l-0.024672,-0.018504l-0.043175,0.003084l0.006168,0.024672l0.040091,0.006168Z M2234.382282,686.038243l0.017203,-0.024575l-0.027033,-0.004915l-0.041778,0.01966l-0.00983,0.024575l0.061438,-0.014745Z M2232.79547,699.767412l0.023199,-0.037118v-0.046398h-0.037118l-0.023199,0.037118l0.00464,0.046398h0.032479Z M2231.264336,702.787921l-0.003093,0.046398l0.030932,0.040212l0.160846,0.021652l0.083516,-0.00928l0.136101,0.00928l0.074237,0.027839l0.046398,-0.006186l0.021652,-0.080423l-0.024746,-0.00928l-0.040212,0.037118l-0.197965,-0.018559l-0.105169,0.015466l-0.129914,-0.021652l-0.021652,-0.046398l-0.030932,-0.006186Z M2231.221031,702.800294l0.015466,-0.006186l-0.07733,-0.061864l-0.117542,-0.003093l-0.06805,0.015466l-0.037118,-0.003093l-0.030932,-0.046398l-0.160846,-0.098982l-0.024746,0.00928l0.037118,0.043305l0.126821,0.06805l0.037118,0.049491l0.049491,0.012373l0.071144,-0.018559l0.117542,0.003093l0.061864,0.037118Z M2229.977565,701.804284l0.021652,-0.071144l0.040212,-0.030932l-0.006186,-0.024746l-0.071144,0.024746l-0.024746,0.08661l0.080423,0.368091l0.074237,0.06805l-0.00928,-0.037118l-0.037118,-0.052584l-0.06805,-0.330972Z M2230.339469,702.422924l0.015466,0.027839l0.15466,0.034025l0.055678,0.024746l0.027839,-0.006186l-0.040212,-0.040212l-0.15466,-0.030932l-0.049491,-0.027839l-0.00928,0.018559Z M2232.287847,701.825453l0.061622,-0.051763l0.111935,-0.056016l0.043353,-0.077088l-0.012421,-0.012614l-0.037118,0.055678l-0.148474,0.080423l-0.037118,0.055678l0.018221,0.005703Z M2232.748782,700.913442l0.019719,-0.098596l-0.032044,-0.046833l-0.12078,-0.036973l-0.066552,-0.017254l-0.039438,0.007395l-0.017254,0.041903l0.024649,0.017254l0.036973,-0.022184l0.098596,0.017254l0.069017,0.056693l-0.00493,0.066552l-0.066552,0.10599l0.002465,0.014789l0.096131,-0.10599Z M2230.92969,701.633191l0.032044,-0.034509l0.00493,-0.034509l-0.032044,-0.002465l-0.019719,0.017254l-0.002465,0.046833l0.017254,0.007395Z M2231.2871,701.403956l0.012324,0.012324l0.027114,-0.032044l0.059157,-0.012324l0.00493,-0.027114l-0.056693,-0.014789l-0.044368,0.014789l-0.002465,0.059157Z M2232.529406,701.206765l0.002465,0.069017l0.014789,0.022184l0.022184,-0.029579l0.007395,-0.086271l-0.017254,-0.012324l-0.029579,0.036973Z M2231.235446,701.49581l-0.003154,-0.027403l-0.04348,0.020275l-0.012657,0.034776l0.031089,0.004752l0.028202,-0.0324Z M2232.537537,701.521121l0.0189,-0.015859l-0.016782,-0.058383l-0.024466,0.004427l-0.007386,0.034378l0.029735,0.035437Z M2231.92437,701.339878l0.012288,0.014745l0.01966,-0.004915l-0.002458,-0.024575l-0.024575,-0.004915l-0.004915,0.01966Z M2230.816919,701.595893l0.005638,0.020961l0.028767,-0.003759v-0.022118l-0.01966,-0.012288l-0.014745,0.017203Z M2232.285639,700.939964l0.024575,0.00983l0.014745,-0.00983l-0.004915,-0.024575h-0.024575l-0.00983,0.024575Z M2232.118125,701.119699l-0.012866,0.017347l0.022118,0.012288l0.024575,-0.007373l0.007373,-0.01966l-0.0412,-0.002602Z M2231.10768,701.577334l0.017203,-0.024575l-0.027033,-0.004915l-0.041778,0.01966l-0.00983,0.024575l0.061438,-0.014745Z M2232.623251,701.108279l0.00986,-0.039438l-0.017254,-0.014789l-0.017254,0.022184l0.002465,0.029579l0.022184,0.002465Z M2227.744274,699.536968l0.043305,0.095889l0.123728,0.08661h0.123728l0.083516,-0.071144 l-0.003093,-0.021652l-0.102076,0.064957l-0.08661,-0.00928l-0.108262,-0.06805l-0.061864,-0.098982l-0.012373,0.021652Z M2228.362914,699.289512l0.015466,-0.037118l-0.003093,-0.061864l-0.052584,-0.074237l-0.012373,0.021652l0.030932,0.089703l-0.003093,0.06805l0.024746,-0.006186Z M2226.148183,696.722156l0.024746,0.07733l0.049491,0.055678l0.030932,-0.00928l-0.003093,-0.030932l-0.049491,-0.043305l-0.024746,-0.046398l-0.027839,-0.003093Z M2227.518471,697.003637l0.043305,0.037118l0.00928,0.052584l0.024746,-0.015466l-0.012373,-0.061864l-0.034025,-0.037118l-0.052584,-0.015466l-0.027839,0.018559l0.049491,0.021652Z M2226.439199,696.803661v0.024575l0.024575,0.014745l0.022118,-0.014745l-0.012288,-0.024575h-0.034405Z M2227.729064,699.370846l0.011645,0.03137l0.020302,-0.001879l0.004915,-0.031948l-0.022118,-0.014745l-0.014745,0.017203Z M2222.213633,695.936483l-0.006186,0.074237l0.06805,0.024746l0.049491,-0.037118l-0.043305,-0.061864h-0.06805Z M2227.436756,697.575244l0.012288,0.014745l0.01966,-0.004915l-0.002458,-0.024575l-0.024575,-0.004915l-0.004915,0.01966Z M2227.904,698.493374l0.024575,0.00983l0.014745,-0.00983l-0.004915,-0.024575h-0.024575l-0.00983,0.024575Z M2228.033026,698.629359l0.020278,0.007432l0.005528,-0.02469l-0.014024,-0.021485l-0.020943,-0.001509l0.00916,0.040253Z M2228.278465,699.054755l0.027189,0.012674l0.000146,-0.027476l-0.026616,-0.037729l-0.025909,-0.005413l0.02519,0.057944Z M2228.127831,698.859557l0.018559,0.027839l0.027839,0.006186l-0.003093,-0.024746l-0.018559,-0.015466l-0.024746,0.006186Z M2218.520352,689.329408l-0.018559,-0.061864l-0.092796,-0.024746l-0.043305,0.030932l0.074237,0.049491l0.080423,0.006186Z M2218.580572,689.338301l0.135569,0.064087l0.083806,0.022184l0.017254,-0.019719l-0.029579,-0.046833l-0.088736,-0.002465l-0.107392,-0.035427l-0.010923,0.018173Z M2222.739477,688.859241l0.080423,0.006186l0.006186,-0.043305l-0.061864,-0.049491l-0.08661,0.006186l-0.024746,0.049491l0.08661,0.030932Z M2224.689739,692.274134l0.027839,-0.041758l0.013919,-0.094343l-0.046398,-0.054131l-0.021652,0.023199l0.018559,0.061864l-0.024746,0.074237l0.032479,0.030932Z M2224.485588,692.891228l-0.023199,-0.139194l0.055678,-0.208791l0.074237,-0.162393l-0.027839,0.001547l-0.088156,0.142287l-0.051038,0.23663l0.023199,0.092796l0.037118,0.037118Z M2224.313915,693.29953l0.041758,0.078877l0.074237,0.018559l0.083516,-0.051038l0.013919,-0.074237l-0.051038,-0.106715l-0.032479,0.032479l0.023199,0.083516l-0.037118,0.046398l-0.060317,-0.018559l-0.046398,-0.046398l-0.00928,0.037118Z M2224.060273,693.127858l0.052584,0.043305l0.052584,0.00928l0.006186,-0.024746l-0.052584,-0.018559l-0.037118,-0.018559l-0.021652,0.00928Z M2223.750953,692.864936l0.024746,-0.00928l-0.021652,-0.024746l-0.058771,-0.021652l-0.043305,-0.040212l-0.034025,-0.003093l0.034025,0.058771l0.098982,0.040212Z M2221.856416,690.790123l0.064087,-0.019719l0.078877,-0.061622l0.049298,-0.00986l0.00986,-0.022184l-0.071482,0.007395l-0.088736,0.066552l-0.044368,0.012324l-0.051763,-0.019719h-0.024649l0.017254,0.027114l0.061622,0.019719Z M2221.267307,690.792588l0.059157,0.00493l0.017254,-0.017254l-0.051763,-0.007395l-0.044368,-0.039438l-0.027114,0.007395l0.00493,0.029579l0.041903,0.022184Z M2221.731093,690.764653v-0.037118h-0.030932l-0.015466,0.021652l-0.046398,0.018559l0.012373,0.018559l0.080423,-0.021652Z M2222.878671,690.996643l0.024746,-0.00928l-0.052584,-0.061864l-0.027839,0.006186l0.00928,0.037118l0.046398,0.027839Z M2223.302439,691.309056l0.015466,0.046398l0.046398,0.027839l0.003093,-0.021652l-0.024746,-0.061864l-0.024746,-0.015466l-0.015466,0.024746Z M2224.385059,691.420411l-0.003093,0.043305l0.00928,0.034025l0.021652,0.003093l0.012373,-0.052584l-0.015466,-0.052584l-0.024746,0.024746Z M2219.234881,689.682033l0.024746,-0.015466l0.00928,-0.027839l-0.034025,-0.003093l-0.018559,0.021652l0.018559,0.024746Z M2219.933944,689.252078l0.024746,0.012373l0.061864,-0.012373l0.043305,-0.037118l-0.034025,-0.015466l-0.080423,0.021652l-0.015466,0.030932Z M2220.682498,690.495544l0.058771,0.030932h0.040212l-0.018559,-0.034025l-0.049491,-0.012373l-0.030932,0.015466Z M2220.86809,690.560501l0.043305,0.00928l0.027839,-0.00928l-0.021652,-0.021652l-0.058771,-0.003093l0.00928,0.024746Z M2221.149572,689.471695h0.037118l-0.003093,-0.027839l-0.021652,-0.00928l-0.021652,0.015466l0.00928,0.021652Z M2220.982539,689.394365l0.018559,-0.021652l-0.006186,-0.024746l-0.030932,0.00928l-0.00928,0.024746l0.027839,0.012373Z M2219.048902,689.370344l0.014789,0.017254l0.019719,-0.007395l0.012324,-0.039438h-0.022184l-0.024649,0.029579Z M2222.955759,691.058797l0.024649,-0.002465l-0.034509,-0.046833l-0.022184,-0.00493l0.002465,0.034509l0.029579,0.019719Z M2223.438878,691.613398l0.007395,-0.036973l-0.019719,-0.017254l-0.014789,0.019719l0.00986,0.032044l0.017254,0.002465Z M2221.02333,690.632925l0.007972,-0.021208l-0.035497,-0.047231l-0.026455,-0.000832l0.011767,0.03233l0.042213,0.036941Z M2222.253762,690.711295l0.023775,0.006688l0.023489,-0.00584l-0.016374,-0.020355l-0.029042,-0.005121l-0.001847,0.024629Z M2222.39931,689.151359v0.024575l0.024575,0.014745l0.022118,-0.014745l-0.012288,-0.024575h-0.034405Z M2221.864907,689.490254l-0.004915,0.034405l0.01966,0.00983l0.024575,-0.022118l-0.012288,-0.022118h-0.027033Z M2222.948713,689.216867l0.011645,0.03137l0.020302,-0.001879l0.004915,-0.031948l-0.022118,-0.014745l-0.014745,0.017203Z M2222.813628,688.899918l0.012288,0.014745l0.01966,-0.004915l-0.002458,-0.024575l-0.024575,-0.004915l-0.004915,0.01966Z M2222.862104,689.026189l0.022173,0.023719l0.014789,-0.024649l-0.012324,-0.024649l-0.022184,0.00493l-0.002454,0.020649Z M2219.2245,689.360255l0.012288,0.014745l0.01966,-0.004915l-0.002458,-0.024575l-0.024575,-0.004915l-0.004915,0.01966Z M2222.832187,688.955596l0.005638,0.020961l0.028767,-0.003759v-0.022118l-0.01966,-0.012288l-0.014745,0.017203Z M2222.903996,689.106601l0.007451,0.02777l0.019663,0.006739l0.007269,-0.029731l-0.018406,-0.010918l-0.015977,0.006141Z M2220.37,689.178306l0.005638,0.020961l0.028767,-0.003759v-0.022118l-0.01966,-0.012288l-0.014745,0.017203Z M2223.566167,692.704554l0.024575,0.00983l0.014745,-0.00983l-0.004915,-0.024575h-0.024575l-0.00983,0.024575Z M2224.403625,691.321885l-0.009252,0.021588l0.018504,0.01542l0.027756,-0.018504l-0.006168,-0.021588l-0.030839,0.003084Z M2223.44941,692.483629l-0.021261,-0.003798l-0.001157,0.025275l0.017542,0.018724l0.020887,-0.00215l-0.016011,-0.03805Z M2221.179996,690.715865l0.02556,-0.007106l-0.016855,-0.025826l-0.041626,-0.011869l-0.002642,0.025293l0.035564,0.019508Z M2223.066722,691.135069l0.022104,0.002444l0.002064,-0.026449l-0.032314,-0.019063l-0.013496,0.020882l0.021642,0.022186Z M2223.360492,692.046901l0.006861,0.036885l0.018709,0.006318l0.022385,-0.037684l-0.008705,-0.032932l-0.021341,0.004485l-0.01791,0.022928Z M2222.350491,690.743557l0.036549,0.017798l0.02242,-0.003711l-0.012848,-0.02687l-0.040022,-0.017494l-0.01834,0.010353l0.012241,0.019924Z M2223.560411,692.633954l-0.023874,-0.032903l-0.02242,0.003711l0.005903,0.027477l0.024243,0.017125l0.016148,-0.01541Z M2222.706521,690.90856l0.039084,0.011181l0.001321,-0.022007l-0.05033,-0.026212l-0.020533,0.010915l0.030457,0.026123Z M2214.612093,691.991107l-0.018559,0.032479l0.078877,0.013919l0.139194,-0.027839l0.023199,-0.041758l-0.055678,-0.060317l-0.032479,0.013919l-0.013919,0.051038l-0.055678,0.018559h-0.064957Z M2209.939815,690.084149l-0.00928,-0.060317l-0.041758,-0.037118l-0.032479,0.018559l0.00928,0.055678l0.055678,0.064957l0.018559,-0.041758Z M2211.424551,691.977187h0.051038l0.037118,-0.041758l-0.032479,-0.027839l-0.064957,0.00928l-0.032479,0.027839l0.041758,0.032479Z M2210.649704,690.534209l0.041758,0.037118l0.037118,0.00464v-0.060317l-0.051038,-0.023199l-0.027839,0.013919v0.027839Z M2210.923452,690.965711l-0.018227,-0.03815l-0.021068,0.006267l0.00214,0.030322l0.024062,0.019215l0.013095,-0.017655Z M2210.365903,691.19811v0.024575l0.024575,0.014745l0.022118,-0.014745l-0.012288,-0.024575h-0.034405Z M2214.438567,691.98141v0.024575l0.024575,0.014745l0.022118,-0.014745l-0.012288,-0.024575h-0.034405Z M2210.721536,690.671905l0.005638,0.020961l0.028767,-0.003759v-0.022118l-0.01966,-0.012288l-0.014745,0.017203Z M2214.629177,691.795618l0.005638,0.020961l0.028767,-0.003759v-0.022118l-0.01966,-0.012288l-0.014745,0.017203Z M2214.486369,691.733174l-0.009252,0.021588l0.018504,0.01542l0.027756,-0.018504l-0.006168,-0.021588l-0.030839,0.003084Z M2214.746343,691.861501l-0.028258,-0.029225l-0.022337,-0.004181l0.002884,0.029644l0.031625,0.030127l0.020775,-0.003456l-0.004688,-0.022909Z M2213.141277,684.683421h0.064957l0.013919,-0.060317l-0.041758,-0.023199l-0.055678,0.018559l-0.027839,0.032479l0.046398,0.032479Z M2213.07168,683.681225l0.013919,0.055678l0.051038,0.027839l0.018559,-0.037118l-0.018559,-0.097436l-0.055678,-0.041758l-0.055678,0.00464v0.060317l0.046398,0.027839Z M2212.510264,683.667305l0.037118,-0.00928l0.00928,-0.046398l-0.037118,-0.051038l-0.037118,-0.00464l0.00928,0.074237l0.018559,0.037118Z M2212.947952,684.548867l0.012288,0.014745l0.01966,-0.004915l-0.002458,-0.024575l-0.024575,-0.004915l-0.004915,0.01966Z M2213.217536,684.539968l-0.017798,-0.036549l-0.022724,-0.000238l0.001042,0.028085l0.020901,0.021074l0.018578,-0.012371Z M2213.008269,684.126645v-0.120635l0.018559,-0.064957l-0.032479,0.00928l-0.027839,0.046398l0.00464,0.157753l0.023199,0.023199l0.013919,-0.051038Z M2210.049623,673.942284l0.069597,0.083516l0.041758,-0.013919l-0.00464,-0.055678l-0.055678,-0.074237l-0.125275,-0.032479l-0.00464,0.041758l0.078877,0.051038Z M2210.179538,674.536179l0.00464,0.074237l-0.023199,0.055678l0.00928,0.032479l0.055678,-0.018559l0.023199,-0.097436l-0.037118,-0.064957l-0.032479,0.018559Z M2209.079905,673.496863l0.115995,-0.013919l0.083516,0.027839l0.046398,0.00464l-0.00928,-0.051038l-0.111355,-0.037118l-0.143834,0.032479l-0.027839,0.027839l0.046398,0.00928Z M2208.699441,674.809927l0.083516,0.023199l0.046398,-0.013919l0.013919,-0.032479h-0.074237l-0.041758,-0.023199l-0.041758,0.018559l0.013919,0.027839Z M2208.996389,674.791368l0.051038,-0.018559l0.00464,-0.037118l-0.088156,0.013919l-0.032479,0.037118l0.064957,0.00464Z M2209.214459,674.74497l0.032479,-0.046398l-0.037118,-0.00464l-0.078877,0.027839l0.00464,0.027839l0.078877,-0.00464Z M2208.390597,673.394311l-0.01015,0.043215l0.025771,0.008369l0.030302,-0.027909l-0.013581,-0.030543l-0.032342,0.006867Z M2208.403952,674.631129l0.012288,0.014745l0.01966,-0.004915l-0.002458,-0.024575l-0.024575,-0.004915l-0.004915,0.01966Z M2208.330816,674.610027l0.024575,0.00983l0.014745,-0.00983l-0.004915,-0.024575h-0.024575l-0.00983,0.024575Z M2210.179917,674.278601l-0.016558,-0.037127l-0.017707,0.013134l0.012272,0.055403l0.02156,0.008713l0.000434,-0.040123Z M2222.740192,676.173671l0.061236,-0.007378l0.052921,-0.029983l-0.02116,-0.015778l-0.079216,0.00768l-0.040847,0.024491l0.027066,0.020968Z M2219.453437,675.64861l-0.024629,0.001847l-0.020075,0.013521l0.022349,0.013527l0.029042,-0.005121l-0.006688,-0.023775Z M2218.639885,674.834548v0.024575l0.024575,0.014745l0.022118,-0.014745l-0.012288,-0.024575h-0.034405Z M2219.697845,675.680558l0.011645,0.03137l0.020302,-0.001879l0.004915,-0.031948l-0.022118,-0.014745l-0.014745,0.017203Z M2219.212863,675.754687l0.012288,0.014745l0.01966,-0.004915l-0.002458,-0.024575l-0.024575,-0.004915l-0.004915,0.01966Z M2218.732596,674.896241l0.012288,0.014745l0.01966,-0.004915l-0.002458,-0.024575l-0.024575,-0.004915l-0.004915,0.01966Z M2218.308363,675.029885l0.005638,0.020961l0.028767,-0.003759v-0.022118l-0.01966,-0.012288l-0.014745,0.017203Z M2218.246328,675.053103l0.024575,0.00983l0.014745,-0.00983l-0.004915,-0.024575h-0.024575l-0.00983,0.024575Z M2222.995111,675.538356l0.024575,0.00983l0.014745,-0.00983l-0.004915,-0.024575h-0.024575l-0.00983,0.024575Z M2218.968849,676.708282l0.016088,0.017111l0.021532,-0.010796l-0.005864,-0.032839l-0.022253,-0.002977l-0.009503,0.0295Z M2219.34207,675.680584l-0.012866,0.017347l0.022118,0.012288l0.024575,-0.007373l0.007373,-0.01966l-0.0412,-0.002602Z M2217.19282,676.513835l-0.021598,-0.000049l0.00325,0.025092l0.020527,0.015393l0.020196,-0.005745l-0.022375,-0.034692Z M2220.056087,675.159394l0.026314,-0.058122l-0.023565,-0.010149l-0.049273,0.054897l-0.008634,0.040876l0.018523,0.012334l0.036635,-0.039837Z M2219.728874,675.575028l0.01542,0.021588l0.018504,-0.024672l-0.003084,-0.043175l-0.024672,0.006168l-0.006168,0.040091Z M2219.097416,675.142967l0.018504,-0.012336l-0.01542,-0.021588l-0.037007,0.006168l0.003084,0.024672l0.030839,0.003084Z M2223.043416,675.606491l0.00983,0.024575l0.022118,-0.002458l0.02949,-0.024575l-0.014745,-0.022118l-0.031948,0.004915l-0.014745,0.01966Z M2217.761858,676.770924l0.029884,0.00261l-0.00926,-0.025869l-0.037915,-0.026351l-0.026198,0.003775l0.043489,0.045834Z M2222.834046,675.455245l0.022184,-0.00986l0.007395,-0.022184l-0.014789,-0.017254l-0.027114,0.012324l-0.00493,0.019719l0.017254,0.017254Z M2217.548976,675.045321l0.032108,-0.001386l0.023658,-0.026188l-0.007218,-0.026937l-0.031206,0.004753l-0.017826,0.021016l0.000484,0.028741Z M2222.069116,675.584155l-0.00986,-0.039438l-0.019719,0.00986l0.002465,0.056693l0.019719,0.012324l0.007395,-0.039438Z M2219.584412,675.682209h0.092796l0.003093,-0.021652l-0.083516,-0.006186l-0.049491,-0.012373l0.006186,0.024746l0.030932,0.015466Z M2218.959586,676.223519l0.040212,-0.111355l-0.015466,-0.021652l-0.030932,0.024746l-0.018559,0.055678l0.003093,0.071144l0.021652,-0.018559Z M2217.617137,676.733897l0.018066,-0.033487l0.003586,-0.037657l-0.021652,0.006186l-0.015466,0.037118l-0.037118,0.00928l0.012373,0.021652l0.040212,-0.003093Z M2218.078024,677.030844l0.043305,0.021652l0.055678,-0.006186l0.046398,-0.040212l-0.024746,-0.006186l-0.040212,0.021652l-0.049491,-0.003093l-0.030932,0.012373Z M2218.631707,677.151479h0.058771l0.058771,-0.040212l0.14538,-0.012373l0.061864,0.015466l0.037118,-0.030932l0.021652,-0.08661l-0.00928,-0.043305l-0.024746,0.003093l-0.018559,0.07733l-0.052584,0.037118l-0.148474,0.00928l-0.064957,0.027839l-0.046398,0.003093l-0.049491,-0.00928l-0.003093,0.027839l0.034025,0.021652Z M2215.730285,677.37419l0.102076,-0.030932l0.08661,-0.015466l0.012373,-0.027839h-0.080423l-0.105169,0.040212h-0.055678l-0.015466,0.021652l0.055678,0.012373Z M2215.287958,677.321605l0.058771,0.006186l0.058771,-0.027839l-0.021652,-0.012373l-0.043305,0.006186l-0.055678,-0.015466l-0.021652,0.018559l0.024746,0.024746Z M2216.287061,677.383469l0.046398,-0.012373l-0.040212,-0.018559h-0.058771l-0.021652,0.018559l0.074237,0.012373Z M2216.54225,677.341881v0.024575l0.024575,0.014745l0.022118,-0.014745l-0.012288,-0.024575h-0.034405Z M2215.956004,677.315419l0.012288,0.014745l0.01966,-0.004915l-0.002458,-0.024575l-0.024575,-0.004915l-0.004915,0.01966Z M2216.552906,677.297685l0.005638,0.020961l0.028767,-0.003759v-0.022118l-0.01966,-0.012288l-0.014745,0.017203Z M2214.977812,677.19561l0.024575,0.00983l0.014745,-0.00983l-0.004915,-0.024575h-0.024575l-0.00983,0.024575Z M2216.547139,677.219041l0.012873,0.019645l0.023079,-0.006893l-0.000072,-0.033358l-0.021398,-0.006796l-0.014481,0.027402Z M2215.451925,677.289342l-0.012866,0.017347l0.022118,0.012288l0.024575,-0.007373l0.007373,-0.01966l-0.0412,-0.002602Z M2216.415307,677.384682l0.024649,-0.00986l0.002465,-0.022184l-0.027114,-0.002465l-0.00986,0.017254l0.00986,0.017254Z M2216.486789,677.384682l0.034509,-0.00493l-0.007395,-0.022184l-0.022184,-0.00493l-0.027114,0.014789l0.022184,0.017254Z "/>
</svg>
