<svg xmlns="http://www.w3.org/2000/svg" viewBox="1252.227 453.345 17.056 12.035">
  <path d="M1253.142242,457.295026l0.149,0.136l0.11,-0.003l0.083,-0.079l0.135,-0.009l0.097,0.079l0.088,0.014l0.195,-0.033l0.065,-0.06l0.065,-0.158l0.19,-0.176v-0.121l-0.097,-0.097l0.009,-0.07l0.042,-0.028v-0.106l-0.098,-0.154l0.01,-0.301l0.088,-0.158l-0.014,-0.097l0.153,-0.181l0.302,-0.061l0.06,-0.097l0.079,-0.028l0.236,0.019l0.13,-0.07l0.098,-0.172l0.167,-0.083l0.232,0.009l0.287,-0.13l0.214,-0.232l0.26,-0.13l0.306,-0.009l0.167,0.111l0.315,0.427l-0.027,0.177l0.102,0.139h0.315l0.232,-0.112l0.047,-0.083l-0.056,-0.213l0.111,-0.399l0.056,-0.084l0.111,-0.046l0.195,-0.26l0.167,-0.028l0.158,0.102l0.074,-0.046l-0.009,-0.177l0.083,-0.12l0.297,0.018l0.13,0.121l0.019,0.111l0.093,0.037l0.092,-0.083l0.084,-0.028l0.102,0.019l0.074,-0.056l0.121,0.037l0.121,-0.009l0.482,0.139l0.111,-0.019l0.047,-0.111l0.093,-0.056l0.102,0.019l0.13,-0.047l0.213,-0.241l0.102,0.009l0.102,-0.064l0.01,-0.121l0.074,-0.037h0.102l0.269,0.176l0.121,-0.018l0.083,-0.093l0.046,-0.223h0.093l0.075,0.084l0.194,0.074l0.177,0.195l0.102,0.009l0.055,-0.074h0.075l0.111,0.046l0.408,-0.083l0.047,-0.075h0.074l0.093,0.056l0.083,-0.037l0.019,-0.121l0.074,-0.046l0.186,0.028l0.12,-0.037l0.121,-0.186l0.186,-0.065l0.102,0.019v0.194l0.259,0.195l0.13,0.075l0.158,0.055l0.121,0.186l0.222,0.195l0.251,0.417l0.111,0.019l0.112,0.111l0.065,0.26l0.195,0.158l0.148,0.158l0.362,0.167l0.213,0.157l0.223,0.112l0.149,-0.037l0.111,0.037l0.074,0.111l0.26,0.093l0.13,-0.037l0.074,0.009l0.084,0.121l0.111,0.027l0.13,-0.009l0.074,0.047l0.047,0.167l-0.01,0.464l0.093,0.111l0.074,0.13l-0.018,0.102l0.037,0.111l0.102,0.037l0.158,0.316l0.018,0.148l0.084,0.167l0.037,0.149l0.074,0.037l0.232,0.065l0.149,0.325l-0.019,0.157l-0.204,0.195l-0.121,0.242l-0.139,0.027l-0.065,0.084l0.028,0.158l0.009,0.185l0.121,0.204v0.112l-0.084,0.056l-0.009,0.092l0.065,0.056l-0.009,0.121l-0.047,0.111l0.01,0.176l0.074,0.177l-0.009,0.139l-0.084,0.074l-0.028,0.121l0.074,0.13l-0.003,0.198l-0.046,0.108l-0.077,0.028l-0.059,0.083h-0.26l-0.445,0.047l-0.102,-0.056h-0.103l-0.065,0.102l-0.176,0.046l-0.056,0.205l0.028,0.194l-0.083,0.854l-0.112,0.13h-0.157l-0.26,-0.278h-0.102l-0.093,0.222l-0.278,0.269l-0.121,0.01l-0.158,-0.093h-0.185l-0.362,0.093l-0.307,-0.028l-0.204,-0.093l-0.195,-0.018l-0.176,0.074l-0.093,-0.019l-0.055,-0.158l-0.344,-0.139h-0.352l-0.242,0.102l-0.185,0.223h-0.139l-0.251,-0.111l-0.065,-0.121l-0.102,-0.018l-0.167,0.157l-0.204,0.056l-0.149,-0.009l-0.092,0.028l-0.047,0.083l-0.241,0.13l-0.121,0.158l0.01,0.241l-0.038,0.074h-0.083l-0.093,0.065v0.084l-0.464,0.324l-0.065,0.121l0.019,0.149l-0.13,0.102l-0.176,0.037l-0.279,-0.093h-0.158l-0.111,0.121l0.009,0.139l-0.083,0.083l-0.204,0.01l-0.214,0.232l-0.139,-0.019l-0.325,-0.325l-0.139,-0.028l-0.158,0.028l-0.148,-0.009l-0.149,-0.046l-0.194,0.018l-0.279,0.288l-0.52,0.12l-0.194,-0.018l-0.232,-0.139l-0.242,0.027l-0.205,0.204l-1.094,-0.009l-0.009,-0.25l-0.158,-0.204l-0.204,-0.065l-0.204,0.009l-0.26,-0.111h-0.139l-0.074,0.102l-0.019,0.13l-0.13,0.055l-0.176,-0.046h-0.195l-0.139,-0.084l-0.195,-0.696l-0.158,-0.529l-0.102,-0.12l-0.232,-0.009l-0.186,-0.028l-0.102,-0.186l0.065,-0.167l-0.204,-0.362l-0.139,-0.12l-0.158,-0.279l-0.046,-0.547l-0.13,-0.279l0.046,-0.074l0.075,0.046l0.092,-0.009l0.158,-0.269l0.074,-0.315l-0.139,-0.13l-0.139,-0.028l-0.065,-0.074l0.019,-0.103l-0.103,-0.25l-0.129,-0.074l-0.121,-0.112l-0.009,-0.102l0.083,-0.028l0.047,-0.065l-0.093,-0.092l0.037,-0.075h0.124l0.371,-0.123l0.074,-0.173l-0.037,-0.198l-0.136,-0.124l-0.05,-0.211l0.075,-0.16l0.012,-0.149l-0.087,-0.086v-0.285l0.136,-0.272l0.124,-0.013l0.099,-0.086l-0.074,-0.483l0.03,-0.13l0.18,-0.043z"/>
</svg>
