<svg xmlns="http://www.w3.org/2000/svg" viewBox="1036.365 582.649 108.886 101.113">
  <path d="M1036.365412,652.821644l0.033,0.182l0.097,0.02l0.065,0.052l-0.004,0.13l0.065,0.068l0.259,0.057v0.053l-0.092,0.063l0.004,0.048l0.2,0.091v0.125l-0.07,0.111l-0.102,0.033l-0.014,0.173l-0.074,0.116l-0.009,0.091l-0.037,0.019l-0.103,-0.019l-0.06,0.067l0.009,0.159l-0.046,0.091l0.005,0.116l0.13,0.077l0.014,0.057l-0.024,0.101l0.079,0.116l0.002,0.241l0.081,0.062h0.105l0.223,0.092l0.043,0.081l0.074,0.031l0.081,-0.019l0.055,0.056l-0.031,0.13l-0.006,0.179l0.087,0.075l0.278,0.061l0.155,0.106l0.223,0.569l0.099,0.068l-0.007,0.222l-0.074,0.149v0.235l-0.062,0.062l-0.012,0.142l-0.08,0.241v0.248l0.142,0.173l0.08,0.031l0.26,0.248l-0.074,0.47l-0.013,0.235l-0.098,0.13l-0.26,0.198l-0.025,0.099l-0.266,0.142l-0.105,0.012l-0.056,0.093l0.21,0.359l0.025,0.254l0.204,0.136l0.068,0.117l-0.018,0.093l0.018,0.062l0.099,0.025l0.05,0.074l0.012,0.093l0.118,0.092l0.148,0.038l0.446,0.414l-0.007,0.111l-0.074,0.093l-0.055,0.21l0.092,0.143l0.266,0.284l-0.006,0.081l0.05,0.043h0.136l0.068,-0.056v-0.086l0.068,-0.056h0.068l0.068,-0.049l0.025,-0.118l0.099,-0.21v-0.087l0.068,-0.056l0.173,0.013l0.08,0.068v0.08l0.106,0.05l0.228,-0.074l0.124,0.024l0.013,0.062l-0.05,0.074l0.037,0.068h0.186l0.068,0.316l0.13,0.142l0.179,0.056l0.062,0.148l0.074,0.019l0.013,0.049l-0.13,0.167l-0.013,0.155l0.093,0.043h0.124l0.037,0.112l-0.099,0.136l0.031,0.093l0.08,0.043l0.149,0.235l0.216,0.056l0.118,0.099l-0.043,0.111l0.031,0.111l0.111,0.099l0.025,0.093l0.074,0.031v0.068l-0.105,0.019v0.099l0.123,0.13l0.087,-0.019v-0.111l0.099,-0.025l0.074,0.111l0.044,0.217l-0.075,0.062l-0.222,0.006l-0.038,0.074l0.081,0.05l-0.006,0.062l-0.081,0.068l-0.018,0.099l0.055,0.068v0.074l-0.08,0.062l0.037,0.123l0.099,0.019l0.019,0.254l-0.062,0.092l0.105,0.174l0.08,0.062l-0.012,0.055l-0.328,0.006l-0.056,0.044l0.031,0.161l-0.043,0.024l-0.031,-0.043l-0.056,0.012l-0.006,0.136l-0.043,0.038l0.025,0.074l0.161,0.031l0.074,0.167l-0.006,0.074l-0.075,0.031l-0.006,0.08l0.118,0.118l-0.031,0.105l-0.099,0.056l-0.136,0.012l-0.031,0.105l0.055,0.031l0.056,-0.031l0.05,0.031l0.006,0.112l0.08,0.012l0.044,-0.111l0.086,0.024l0.068,0.13v0.173l0.081,0.019v-0.142h0.074l0.037,0.154l-0.012,0.13l-0.093,0.062l-0.025,0.081l0.068,0.105l-0.025,0.068l-0.049,-0.006l-0.031,0.049l0.093,0.077l-0.01,0.081l-0.068,0.034l-0.16,-0.009l-0.053,-0.05l-0.065,-0.003l-0.127,0.118l-0.006,0.123l-0.031,0.025l-0.006,0.068l0.071,0.056l0.037,0.13l0.003,0.167l-0.028,0.096l-0.083,0.04l-0.022,0.059l0.019,0.096l-0.074,0.08l-0.084,-0.003l-0.121,0.102l-0.009,0.181l-0.037,0.069l0.032,0.126l0.107,0.069l0.098,0.163l0.25,0.102l0.186,0.088l0.176,0.028l0.06,0.13l0.005,0.162l0.065,0.07l0.102,0.037l0.176,0.153l0.102,0.037l0.116,0.07l0.158,0.018l0.116,0.056l0.061,-0.019l0.046,-0.097l0.097,-0.033l0.079,0.028l0.107,-0.065l0.097,-0.106l0.061,-0.024l0.069,-0.12l-0.06,-0.2l0.079,-0.065l0.13,0.028l0.074,-0.051l-0.019,-0.093l0.056,-0.083l0.139,-0.023l0.056,-0.075l0.028,-0.134l0.153,-0.367l0.102,-0.009l0.07,0.056l0.157,0.004l0.116,-0.093l0.07,-0.004l0.13,0.032l0.093,-0.032l0.12,0.028l0.237,0.338l0.032,0.126l0.297,0.208l0.191,0.038l0.06,0.06l0.005,0.274l-0.065,0.167l0.037,0.106l0.111,0.098l0.023,0.158l0.065,0.129v0.079l-0.046,0.056l0.032,0.056l0.102,0.018l0.358,0.223l0.26,0.032l0.092,-0.032l0.061,-0.07v-0.116l0.083,-0.092l0.028,-0.13l0.074,-0.075l0.223,-0.074l0.042,-0.074l-0.079,-0.13l0.06,-0.079l0.227,-0.018l0.079,-0.093l0.019,-0.2l0.056,-0.037l0.004,-0.093l-0.042,-0.055l0.005,-0.088l0.07,-0.042l0.176,0.028l0.232,-0.037l0.204,-0.126l0.014,-0.195l0.084,-0.032l0.171,0.06l0.084,-0.051l-0.028,-0.102l0.07,-0.032l0.078,0.027l0.047,-0.046l0.014,-0.116l0.097,-0.032l0.13,0.157l0.065,-0.009l0.051,-0.079l0.227,-0.018l0.075,0.065l0.315,0.041l0.079,0.093l0.251,0.051l0.264,-0.037l0.074,0.056l0.01,0.13l0.111,0.046l0.134,-0.014l0.418,0.176l0.07,0.116l0.079,0.033l0.12,-0.046l0.223,0.064l0.074,0.121l0.218,0.121l0.279,0.028l0.051,-0.042l0.102,0.009l0.125,0.153l0.418,0.102l0.181,-0.028l0.041,-0.069l-0.041,-0.107l0.046,-0.079l0.051,-0.028l0.042,-0.106l-0.051,-0.144l0.037,-0.153l0.195,-0.255l0.213,-0.061l0.153,-0.093l0.241,0.024l0.158,-0.056l0.028,-0.102l0.093,-0.06h0.065l0.079,-0.065l0.004,-0.098l0.102,-0.088h0.283l0.103,-0.037l0.19,0.023l0.13,0.074l0.153,-0.014l0.009,-0.069l0.046,-0.047h0.084l0.051,-0.069l-0.042,-0.214l0.042,-0.069l0.07,-0.005l0.032,-0.107l-0.032,-0.041l0.004,-0.051l0.065,-0.042l-0.042,-0.065l-0.097,-0.014l-0.116,-0.088l-0.046,-0.139l-0.107,-0.112l-0.079,-0.004l-0.056,-0.047l-0.014,-0.144l-0.074,-0.018l-0.046,0.018l-0.065,-0.046l0.018,-0.074l0.163,-0.079h0.097l0.023,-0.102l0.093,-0.023l0.079,0.023l0.009,0.074h0.093l0.023,-0.102l0.084,-0.023l0.121,0.097l0.092,-0.009l0.042,-0.079l0.135,-0.023l0.338,0.088l0.283,0.019l0.246,0.143l0.065,0.084l0.195,0.121l0.149,0.014l0.283,0.106l0.083,0.093l-0.028,0.07l0.265,0.246l0.074,0.009l0.135,0.223l-0.121,0.125l-0.186,0.322l-0.055,0.235l0.092,0.055l0.05,0.136l0.124,0.025l0.117,-0.018l0.043,-0.05h0.093l0.112,0.155l-0.007,0.099l0.062,0.074l-0.043,0.136l0.019,0.099l-0.031,0.074l-0.087,0.056l-0.012,0.229l0.055,0.117l0.161,0.038l0.019,0.043l0.062,0.012l0.099,-0.08l0.105,0.006l0.13,0.192l0.161,0.185l-0.013,0.223l-0.111,0.322l0.006,0.117l0.037,0.112l-0.272,0.433l0.049,0.173l-0.179,0.829l0.21,0.012l0.198,0.124l0.186,0.025l0.068,0.105h0.062l0.222,-0.186l0.118,0.062l0.025,0.186l0.235,0.278l0.012,0.099l-0.031,0.186l0.242,0.26l0.297,0.092l0.21,-0.074l0.018,-0.068h0.075l0.111,0.322l0.019,0.105l0.111,0.056h0.117l0.118,0.031l0.093,0.061l0.173,0.031l0.297,0.087v0.068l-0.173,0.056l-0.093,0.123l0.043,0.13l0.18,0.025l0.105,0.099l-0.05,0.186l-0.198,0.024l-0.383,-0.092l-0.13,0.043l-0.068,0.148l0.031,0.143l-0.056,0.086l-0.198,0.087l-0.161,-0.006l-0.068,0.068l-0.037,0.148l0.037,0.155l-0.068,0.161l-0.093,0.012l-0.111,-0.037l-0.08,0.062l0.006,0.124l0.043,0.08l-0.062,0.08l-0.136,0.099l-0.043,0.26l-0.167,0.081l-0.093,0.148v0.241l0.08,0.106l0.099,-0.013l0.112,-0.074l0.08,-0.006l0.087,0.037l0.179,-0.025l0.204,-0.173l0.229,-0.074l0.062,-0.068l0.031,-0.149l0.105,-0.161l-0.025,-0.055l0.044,-0.056l0.26,0.006l0.123,0.056l0.186,0.012l0.111,-0.068l0.167,0.031l0.235,0.26l0.137,0.056l0.092,0.204l0.019,0.321l0.099,0.242l-0.019,0.099l-0.284,0.247l-0.006,0.081l0.037,0.074l-0.031,0.105l-0.155,0.155l0.012,0.111l0.161,0.025l0.099,0.099l-0.012,0.105l-0.074,0.086v0.087l0.068,0.08l-0.068,0.18l-0.124,0.031l-0.006,0.148l-0.031,0.105l0.012,0.254l0.173,0.043l0.044,-0.043l0.08,0.012l0.062,0.13l-0.012,0.118l0.179,0.297v0.136l0.062,0.173l0.049,0.272l0.304,0.05l0.123,-0.081h0.13l0.223,-0.136l0.062,0.044v0.142l-0.037,0.056l0.006,0.13l0.192,0.321l0.136,0.081l0.099,-0.013l0.08,-0.074l0.155,-0.018l0.105,0.049l0.124,0.365l0.148,0.21v0.105l-0.124,0.291l-0.055,0.044l-0.037,0.123l0.149,0.099l0.154,0.013l0.167,-0.106l0.031,-0.148l0.124,-0.087l0.173,0.025l0.149,-0.093l0.055,-0.105l0.198,-0.13l0.019,-0.123l0.087,-0.081l0.105,-0.031l0.099,-0.136l-0.044,-0.037l-0.061,0.019l-0.009,-0.072l0.107,-0.041l0.023,-0.102l0.088,-0.056l0.07,0.009l0.051,-0.083l-0.042,-0.075l-0.06,-0.009l-0.023,-0.046l0.13,-0.102l0.194,-0.051l0.075,-0.116l0.278,-0.256l0.093,0.005l0.167,0.176l0.236,0.07l0.047,0.046l0.06,-0.009l0.042,-0.186l0.107,-0.097l0.185,0.005l0.279,0.065l0.037,0.143l-0.056,0.205l0.139,0.25l-0.004,0.102l0.069,0.023l0.102,-0.064l0.218,0.009l0.079,0.12l-0.004,0.279l-0.033,0.093l-0.056,0.037l-0.065,0.014l-0.004,0.055l0.079,0.075l0.209,0.046h0.092l0.093,-0.097l0.163,-0.014l0.041,-0.051l0.07,0.037l0.826,0.041l0.097,0.075l0.084,0.139l0.232,0.102l0.037,0.097l-0.042,0.121l0.014,0.046l0.079,0.028l0.032,0.07l0.237,0.009l0.13,-0.065l0.074,-0.079l0.121,-0.25l-0.014,-0.07l-0.19,-0.153l-0.01,-0.144l0.191,-0.181l0.032,-0.116l0.139,-0.097l0.051,-0.093l0.019,-0.097l0.083,-0.047l0.186,0.019l0.028,0.06l0.055,0.014l0.042,-0.046l0.047,0.004l0.069,0.051l0.107,-0.023l0.199,-0.13l0.047,-0.102l0.097,-0.018l0.112,0.092l0.38,0.102l0.051,0.047l0.227,0.046l0.144,-0.116l0.098,-0.042l0.014,-0.129l-0.042,-0.075l0.018,-0.055l0.103,-0.065l0.037,-0.149l-0.084,-0.111l-0.116,-0.023l-0.097,-0.126l-0.047,-0.343l0.033,-0.056l0.074,-0.074l-0.028,-0.209l0.033,-0.037v-0.069l-0.075,-0.075l0.019,-0.106l0.181,-0.098l0.005,-0.042l-0.061,-0.051l0.07,-0.143l0.12,-0.005l0.098,0.097l0.009,0.098l0.107,0.106l0.153,0.005l0.13,0.116l0.06,0.116l0.26,0.084l0.144,-0.019l0.213,0.033l0.098,0.069l0.069,-0.102l0.13,-0.111l-0.068,-0.384l-0.012,-0.309l0.117,-0.05l0.471,0.155l0.086,-0.025l0.396,-0.346l0.235,0.08l-0.012,0.074l-0.068,0.081l-0.006,0.136l-0.044,0.111l0.037,0.056l0.081,0.019l0.111,0.099l0.081,0.006v0.074l-0.18,0.05l-0.068,0.098l0.037,0.044l0.062,-0.006l0.031,0.061l-0.111,0.254l-0.136,0.05l-0.044,0.123l0.075,0.068l0.111,-0.043l0.161,0.136l0.192,0.062l-0.013,0.062l-0.105,0.093l0.019,0.191l0.154,0.143l-0.018,0.055l-0.118,0.007l-0.049,0.179l0.099,0.124l-0.112,0.124l0.006,0.098l0.038,0.069l-0.031,0.129h-0.056l-0.056,-0.086l-0.161,0.037l-0.006,0.08l0.056,0.075v0.123l0.068,0.056l0.056,-0.019l0.061,0.044l-0.012,0.093l0.173,0.148l0.167,0.043l0.044,0.05l0.148,0.025l0.105,-0.038l0.316,0.025l0.086,0.062l0.328,0.006l0.18,-0.321l0.031,-0.198l0.142,-0.031l0.21,0.105l0.068,-0.006l0.025,-0.093l-0.056,-0.105l0.025,-0.087l0.093,-0.068l0.037,-0.08l-0.012,-0.186l0.043,-0.111l0.167,-0.037l0.161,-0.149l0.031,-0.093l0.247,-0.173l0.087,0.006l0.056,0.068h0.278l0.21,-0.105l0.037,-0.142l0.13,-0.013l0.186,0.093l0.278,-0.006l0.081,-0.043l0.086,0.012l0.05,0.074l0.235,0.106l0.06,-0.092l-0.004,-0.116l0.102,-0.236l0.06,-0.061l0.07,-0.232l0.078,-0.088l-0.055,-0.171l0.032,-0.052l-0.014,-0.102l-0.065,-0.014l-0.014,-0.102l0.079,-0.102l-0.014,-0.394l0.019,-0.204l0.042,-0.144l-0.023,-0.056h-0.056l0.004,-0.046l0.154,-0.005l0.074,-0.041l0.042,-0.172l0.148,-0.357l-0.079,-0.163l-0.209,-0.158l0.024,-0.092l-0.065,-0.218l0.023,-0.191l-0.037,-0.051l-0.177,0.07l-0.051,-0.033l0.102,-0.264l-0.092,-0.204l0.014,-0.232l0.515,-0.121l0.301,-0.12l0.228,-0.168l0.004,-0.357l0.051,-0.116l0.172,-0.097l0.19,-0.079l0.084,-0.07l-0.01,-0.723l0.079,-0.251l0.079,-0.023l0.186,-0.19v-0.135l-0.033,-0.102l0.028,-0.121l-0.032,-0.167l0.037,-0.167l-0.084,-0.181l-0.014,-0.125l-0.097,-0.144l-0.102,-0.046l-0.232,-0.005l-0.075,-0.079l0.038,-0.181l0.116,-0.185l0.032,-0.093l-0.028,-0.102l0.019,-0.144l0.055,-0.088l0.014,-0.172l-0.037,-0.014l-0.079,0.019l-0.097,-0.042l-0.009,-0.102l-0.242,-0.125l-0.245,-0.042l-0.232,-0.13l-0.005,-0.06l0.125,-0.033l0.121,0.047l0.055,0.055h0.061l0.055,-0.046l0.038,-0.088l0.078,-0.01l0.061,0.065l0.055,-0.018l0.061,-0.079l0.083,-0.005l0.023,0.061l0.116,0.041l0.07,-0.046l0.023,-0.116l0.037,-0.056l0.07,-0.014l0.181,-0.157l0.074,-0.014l0.061,-0.047l0.032,-0.134l0.167,-0.093l0.014,-0.051l0.297,-0.135l0.158,-0.088l0.088,-0.014l0.06,0.019l0.056,-0.005l0.037,-0.042l0.329,-0.027l0.088,-0.061l0.358,-0.032l0.371,-0.005l0.116,-0.06l0.311,-0.005l0.413,0.065l0.106,-0.069l0.028,-0.121l0.116,-0.204l0.186,-0.023l0.237,0.032l0.06,-0.037l0.009,-0.311l0.232,-0.185l0.297,-0.024l0.014,-0.074l-0.139,-0.116l-0.051,-0.204l0.181,-0.195l0.468,-0.362l-0.009,-0.162l0.028,-0.121l0.199,-0.028l0.075,0.112l0.088,0.069l0.125,-0.028l-0.046,-0.185l-0.228,-0.422l-0.009,-0.154l0.11,-0.241l0.037,-0.182l0.342,-0.345l-0.025,-0.099l-0.111,-0.025l-0.105,-0.068l-0.068,-0.328l-0.112,-0.08l-0.167,-0.037l-0.129,-0.174l-0.013,-0.129l0.062,-0.124l-0.049,-0.167l0.03,-0.05l0.242,0.074l0.216,-0.018l0.303,-0.161l0.099,0.006l0.192,0.217h0.309l0.18,-0.087l0.031,-0.111l0.093,-0.217l0.024,-0.191l0.044,-0.137l-0.099,-0.266l-0.013,-0.148l0.068,-0.186v-0.278l-0.068,-0.161l-0.266,-0.099l-0.055,-0.21l0.006,-0.118l-0.272,-0.359l-0.093,-0.043l-0.124,-0.161l0.062,-0.148l0.105,-0.074l0.155,-0.174l0.111,-0.037l0.217,0.056l0.154,-0.037v-0.062l-0.192,-0.235l0.025,-0.074l0.124,-0.038l0.21,-0.173l0.223,-0.031l0.192,-0.123l0.235,-0.353l0.012,-0.235l0.173,-0.155l0.143,-0.006l0.222,-0.186l0.099,-0.012l0.081,0.025l0.062,-0.031l0.012,-0.099l0.149,-0.179l-0.05,-0.031l-0.062,0.049l-0.055,-0.031l0.08,-0.13l0.087,-0.012l0.105,0.192v0.142l0.185,0.018l0.087,0.044l-0.019,0.062l-0.154,0.024l-0.075,0.093l-0.105,0.025l-0.055,0.08l0.031,0.155l0.086,0.012l0.087,-0.049l0.495,0.074l0.123,0.081l0.137,-0.007l0.136,-0.068l0.334,0.297l-0.006,0.093l0.179,0.155l0.297,0.099l0.377,0.346l0.248,0.167l0.154,0.019l0.044,0.105l-0.025,0.074l0.074,0.019l0.099,-0.037l0.229,0.031l0.099,0.055l0.247,-0.006l0.112,-0.124l-0.099,-0.414l-0.062,-0.105l0.068,-0.136l0.328,-0.007l0.303,-0.068h0.693l-0.012,-0.445l-0.112,-0.043l-0.068,-0.792l-0.086,-0.433l0.018,-0.112l0.167,-0.154l0.025,-0.644l-0.068,-0.111l-0.074,-0.019l-0.013,-0.055l0.068,-0.044l0.303,0.056l0.112,0.155l0.117,0.031l0.229,-0.007l0.149,-0.055l0.117,0.006l0.099,0.111l0.167,0.105l0.044,0.149l0.129,0.117l0.081,-0.012l0.043,-0.148l0.087,-0.106l0.093,-0.024l0.179,0.074l0.08,0.142l0.495,-0.185l-0.105,-0.248v-0.111l-0.105,-0.118l0.006,-0.662l0.142,-0.303l0.106,-0.117l0.216,-0.724l-0.037,-0.081h-0.087l0.106,-0.315l0.173,-0.136l0.897,-0.415l0.581,-0.538l0.766,-0.555l1.132,0.315l0.807,0.39l0.501,0.306l0.677,-0.306l0.13,-1.902l0.492,-0.093l0.845,0.046l0.649,-0.12l2.382,-1.544l1.46,-0.374h0.176l2.252,-2.017l1.881,0.013l0.272,0.519h0.099l0.916,-0.482l2.023,0.683l0.42,-0.012l0.347,-0.056l0.328,-0.077l1.117,0.219l0.798,-0.217l0.359,0.056l0.198,0.136l0.538,0.154l0.149,-0.006l0.186,-0.099l1.095,-0.074l0.439,-0.068l0.204,-0.124l2.043,-1.868l8.723,-0.483l2.533,0.065l0.047,-0.594l3.053,0.474l0.176,-0.112l0.139,-0.213v-0.232l-0.009,-0.195l0.009,-0.111l0.371,-0.242l0.297,-0.389l0.427,-0.474l0.195,-0.093l0.427,-0.018l0.343,-0.121l0.195,-0.167l0.139,-0.25l0.186,-0.798l0.297,-0.464l0.046,-0.177l-0.018,-0.232l0.093,-0.306l-0.056,-0.297l0.26,-0.557l0.287,-0.445l0.177,-0.631l0.148,-0.176l0.529,-0.307v-2.83l0.056,-0.167v-0.334l0.055,-0.186v-0.617h0.362v-14.615l-5.957,1.206l-0.111,-0.056v-0.092l-0.112,-0.065l-0.139,0.018l-0.083,-0.055l-0.112,-0.195l-0.733,-0.529l-0.223,-0.075l-0.065,-0.204l0.019,-0.195l0.186,-0.185l0.111,-0.232l0.176,-0.186l0.037,-0.195l-0.111,-0.232v-0.194l0.083,-0.167l0.019,-0.158l0.074,-0.13l0.204,-0.028l0.13,-0.056l0.028,-0.092l-0.093,-0.177l0.01,-0.13l0.074,-0.083l0.018,-0.112l-0.204,-0.296l0.01,-0.232l0.074,-0.168v-0.176l-0.093,-0.176v-0.176l0.102,-0.186l0.019,-0.139l-0.047,-0.102l0.019,-0.149l0.077,-0.13l-0.037,-0.154l-0.173,-0.068h-0.204l-0.297,-0.106l-0.136,-0.117l-0.378,-0.223l-0.229,-0.031l-0.179,-0.099l-0.167,-0.123l-0.452,-0.093l-0.309,-0.019l-0.074,-0.062h-0.087l-0.062,0.056h-0.099l-0.062,-0.068l-0.092,-0.025l-0.093,0.031l-0.081,-0.037l-0.024,-0.074l-0.105,-0.05l-0.112,-0.012l-0.124,-0.136l-0.08,-0.409l-0.093,-0.105l-0.093,0.013l-0.111,0.266l-0.142,0.043l-0.074,-0.043l-0.143,0.055l-0.074,0.081l-0.155,0.025l-0.086,-0.062l-0.025,-0.13l-0.217,-0.211l-0.346,-0.043l-0.192,0.099l-0.13,0.019l-0.111,0.092l-0.025,0.174l-0.111,0.074l-0.025,-0.05l0.05,-0.167l-0.037,-0.117l0.018,-0.155l0.142,-0.117l0.013,-0.13l-0.075,-0.062l-0.111,-0.012l-0.105,-0.087l-0.062,-0.217l-0.161,-0.179l-0.123,-0.316l-0.217,-0.253l-0.322,-0.087l-0.185,0.037l-0.099,0.211l-0.322,0.198l-0.309,0.012l-0.173,-0.124h-0.198l-0.087,0.099l-0.173,0.013l-0.075,-0.087l-0.197,0.012l-0.124,0.161l-0.149,0.013l-0.161,-0.384l-0.148,-0.099l-0.186,0.05l-0.235,-0.062l-0.297,-0.31l-0.482,-0.321l-0.136,-0.26l0.062,-0.235l-0.05,-0.458l-0.52,-0.483l-0.569,-0.185l-0.643,-0.161l-0.309,-0.148l-0.223,-0.372l-0.309,-0.062l-0.236,0.099h-0.272l-0.21,-0.123l0.012,-0.384l0.186,-0.767v-0.544l-0.174,-0.819l-39.537,-27.015h-11.51l6.409,58.728l1.828,1.095l-1.104,5.503h-25.352v-0.427l0.158,-0.854l-0.149,-0.056l-0.761,0.65l0.306,1.095l-1.893,0.074l-0.055,0.074l-0.167,0.047l-0.135,-0.01l-0.107,-0.046l-0.185,0.033l-0.111,0.134l-0.325,-0.005l-0.46,-0.046l-0.078,0.065l-0.284,0.037l-0.074,0.065l-0.185,0.019l-0.158,0.055h-0.204l-0.163,-0.046l-0.232,-0.023l-0.134,-0.061l-0.028,-0.06l-0.13,-0.056l-0.06,0.019l-0.074,-0.019l-0.103,-0.083l-0.19,-0.046l-0.232,-0.033l-0.069,-0.056l-0.163,-0.06l-0.102,0.005l-0.032,0.041l-0.061,0.005l-0.106,-0.018l-0.149,0.009l-0.116,-0.028l-0.083,0.005l-0.079,0.046l-0.079,-0.019l-0.028,-0.06l-0.056,-0.014l-0.143,0.047h-0.103l-0.213,-0.065l-0.125,0.014l-0.214,0.078l-0.065,0.07l-0.041,0.005l-0.051,-0.033l-0.311,0.056l-0.093,-0.019l-0.232,-0.088l-0.107,-0.009l-0.065,-0.037l-0.069,0.009l-0.047,0.07l0.061,0.375l-0.024,0.07l-0.111,0.186l-0.042,0.004l-0.055,-0.014l-0.13,0.065l-0.028,0.102l-0.047,0.038l-0.088,-0.014l-0.06,0.041l-0.051,0.089l-0.079,0.041l-0.042,0.093l0.056,0.139l-0.079,0.209l-0.134,0.037l-0.084,0.065l-0.046,0.093l-0.028,0.353l-0.084,0.069l-0.051,0.098l-0.162,-0.177l-0.009,-0.079l-0.195,-0.102l-0.107,-0.148l-0.135,-0.302l-0.306,-0.185l-0.158,-0.186l-0.542,-0.441l-0.293,-0.167l-0.116,-0.13l-0.306,-0.148l-0.097,-0.135l-0.232,-0.199l-0.135,-0.218l-0.07,-0.028l-0.102,-0.13l-0.078,-0.046l-0.005,-0.158l-0.269,-0.343l-0.065,-0.154l-0.149,-0.06h-0.125l-0.07,0.037l-0.334,-0.009v0.032l0.084,0.033l0.028,0.111l-0.107,0.102l-0.158,0.005l-0.176,0.107l-0.051,0.116l-0.084,0.083l-0.236,0.139l-0.158,0.019l-0.065,-0.037l-0.06,0.018l-0.037,-0.014l0.004,-0.032l-0.065,-0.019l-0.218,0.01l-0.032,0.051l0.042,0.25l-0.042,0.056l-0.102,0.046l-0.112,0.14l-0.023,0.125l0.028,0.055l-0.037,0.246l-0.07,0.163l-0.009,0.111l-0.032,0.051l-0.126,0.116l-0.023,0.084l0.009,0.074l-0.069,0.116l-0.028,0.083l0.018,0.135l-0.037,0.204l-0.065,0.102l-0.106,0.093l-0.024,0.107l0.052,0.116l0.088,0.032l0.037,0.065l-0.019,0.07l-0.213,0.213l0.014,0.07l0.065,0.023l0.014,0.102l-0.065,0.074l0.004,0.088l0.056,0.033l0.093,-0.07l0.083,0.014l0.088,0.084v0.083l-0.041,0.112l-0.042,0.246l-0.074,0.148v0.102l0.111,0.135l-0.005,0.065l-0.055,0.037h-0.093l-0.107,0.125l-0.018,0.084l-0.172,0.055l-0.158,0.167l-0.13,0.019l-0.074,-0.019l-0.07,0.042l-0.032,0.111l0.028,0.061l-0.047,0.097l-0.241,0.088l-0.249,0.013l-0.148,-0.028l-0.047,0.037l0.01,0.181l-0.07,0.088h-0.056l-0.338,-0.181l-0.056,-0.125l-0.074,-0.056h-0.107l-0.135,0.111l-0.204,-0.013l-0.12,0.023l-0.14,-0.037z"/>
</svg>
