<svg xmlns="http://www.w3.org/2000/svg" viewBox="1696.385 371.749 212.192 87.761">
  <path d="M1696.888085,397.522027l0.034,0.053l-0.034,0.083l0.016,0.071l0.043,0.006l0.031,-0.018l0.037,0.022l0.015,0.083l0.099,0.127l0.106,0.049v0.044l-0.069,0.062l-0.003,0.043l-0.031,0.022l-0.065,0.009l-0.027,0.055l0.021,0.078l0.081,0.059l-0.01,0.068l-0.099,0.043l-0.046,0.062v0.065l0.062,0.071l0.117,0.009l0.041,0.028l-0.014,0.051l0.046,0.028l0.047,-0.005l0.046,0.033l-0.005,0.065l-0.051,0.055v0.093l0.172,0.084l0.014,0.055l-0.06,0.037h-0.075l-0.079,0.079l-0.004,0.056l0.028,0.051l-0.037,0.051l-0.195,0.009l-0.135,-0.032l-0.06,0.032l-0.037,0.065l-0.163,0.088l-0.116,-0.018l-0.023,0.037l0.033,0.074l-0.051,0.098l-0.065,0.06l-0.038,0.135l0.024,0.111l0.083,0.032l0.125,-0.023l0.079,0.023l0.037,0.098v0.069l0.033,0.033l0.102,0.023l0.07,0.065v0.056l-0.047,0.018l-0.116,-0.018l-0.004,0.037l0.097,0.046l0.088,0.13l0.098,0.042l0.083,-0.028l0.172,0.084l0.352,0.278l0.051,-0.005l0.126,-0.097l0.12,0.009l0.232,0.13l0.084,0.019l0.032,0.032l0.019,0.06l0.107,0.103l0.041,0.106l0.051,0.014l0.065,-0.023l0.098,0.023l0.028,0.051l-0.163,0.232l-0.213,0.149l-0.107,0.106v0.042l0.074,0.102l-0.037,0.042l-0.088,0.042l-0.032,0.051l-0.084,0.042l-0.102,0.018l-0.111,0.121l0.004,0.055l0.074,0.121l0.103,0.07l0.102,0.009l0.074,0.051l0.009,0.07l0.051,0.027l0.07,0.005l0.093,0.056l0.069,-0.005l0.093,-0.037l0.06,0.005l0.024,0.041l0.037,0.01l0.037,-0.024l0.055,0.01l0.042,0.06v0.065l0.047,0.028l0.092,-0.042l0.084,0.019l0.111,0.157l0.116,0.089l0.088,0.013l0.116,-0.041l0.177,0.009l0.116,0.023l0.06,0.065l0.413,0.13l0.195,0.107l0.004,0.065l-0.041,0.065l0.037,0.106l0.088,0.047l0.176,0.148l0.167,0.07l0.079,0.056l0.033,0.06l0.051,0.023l0.195,-0.07l0.041,-0.078l0.107,-0.014l0.144,0.051l0.028,0.083l-0.047,0.047l0.01,0.065l0.134,0.097l0.121,-0.037l0.102,0.06l0.023,0.126l0.074,0.055l0.079,-0.004l0.07,0.051l-0.005,0.088l-0.065,0.125l-0.102,0.102l-0.056,0.149l0.005,0.069l0.13,0.121l0.032,0.144l-0.051,0.143l0.028,0.047l0.149,0.051l0.083,0.102l0.014,0.107l0.074,0.097l0.13,0.07l0.102,-0.014l0.098,-0.061l0.13,0.014l0.018,0.061l-0.032,0.065l0.018,0.055l0.126,-0.004l0.134,0.074l0.037,0.097l0.056,0.028l0.093,0.005l0.148,0.111l0.061,0.093l0.088,0.037l0.083,-0.018l0.042,-0.047h0.065l0.056,0.028l0.334,-0.019l0.06,0.028l0.07,-0.014l0.051,0.038l0.014,0.06l0.032,0.032l0.07,0.028l0.111,0.13l0.097,0.046l0.163,0.149l0.011,0.067l0.054,0.054l0.097,0.06l0.037,0.056v0.069l0.038,0.037l0.051,0.019l0.046,0.056l0.005,0.055l0.041,0.037l0.102,-0.004l0.214,0.037l0.13,-0.005l0.153,-0.074l0.139,0.023l0.088,0.074l0.26,0.047l0.088,-0.028l0.051,-0.07l0.07,-0.009l0.083,0.023l0.065,-0.028l0.065,-0.171l0.232,-0.079l0.098,-0.009l0.065,0.027l0.065,-0.004l0.092,-0.088l0.014,-0.089l0.037,-0.023l0.089,0.065l0.097,0.023l0.162,-0.009l0.144,0.014l0.19,0.046l0.084,-0.009l0.116,-0.06l0.241,-0.014l0.181,0.018l0.047,0.042l0.027,0.061l0.061,0.032l0.014,0.065l-0.07,0.093l-0.009,0.074l0.065,0.19l0.111,0.074l0.042,0.065l0.107,0.028l0.032,0.047v0.102l0.065,0.167l0.074,0.037h0.186l0.227,0.037l0.177,0.19l-0.005,0.047l-0.051,0.023v0.046l0.079,0.065l0.023,0.195l0.046,0.037h0.112l0.065,-0.051l0.143,-0.004l0.079,0.027l0.167,0.005l0.205,-0.07h0.106l0.158,0.051l0.153,0.005l0.056,-0.051l0.018,-0.218l-0.014,-0.144l0.038,-0.037l0.102,0.037l0.236,0.005l0.088,0.046l0.177,0.005l0.023,-0.06h0.056l0.069,0.078l0.098,0.051v0.061l-0.084,0.093l-0.046,0.167l0.014,0.185l0.032,0.047v0.037l-0.023,0.051l0.07,0.181l0.111,0.069l0.162,0.144l0.042,0.098l0.088,0.055l0.228,-0.009l0.208,0.097l0.056,0.065l0.088,0.014l0.065,-0.032l0.056,0.018l0.065,0.07l0.083,0.023l0.107,-0.014l0.288,0.098l0.255,0.181l0.046,0.116l-0.028,0.037h-0.051l-0.041,-0.024l-0.042,0.01l-0.033,0.069l0.014,0.084l0.079,0.074l0.056,0.093l0.083,0.051l0.028,0.056l-0.004,0.074l0.116,0.288l-0.024,0.055l0.019,0.033l0.107,0.028l0.204,0.167l0.018,0.083l0.047,0.046l0.06,0.01l0.042,0.055l-0.019,0.325l-0.074,0.102l-0.005,0.088l0.028,0.075l0.005,0.097l0.069,0.084l0.075,0.014l0.083,-0.047l0.056,0.014l0.102,0.167l-0.009,0.065l-0.112,0.13v0.056l0.028,0.06l-0.009,0.056l-0.093,0.092l-0.065,0.01l-0.009,0.042l0.042,0.051l0.083,0.032l0.111,0.111l0.116,0.232l0.014,0.112l0.042,0.116l0.06,0.028l0.056,0.088l0.014,0.12l0.051,0.061l0.111,0.069l0.07,0.13v0.065l0.037,0.051l0.139,0.088l0.084,0.144l0.079,0.014l0.051,0.051l0.004,0.153l0.093,0.139l0.139,0.112l0.126,0.209l0.097,0.078l0.042,0.121l0.046,0.028l0.075,0.014l0.106,0.13l-0.018,0.083l0.037,0.042l0.116,0.014l0.213,-0.051l0.074,0.023l0.033,0.051l0.065,0.023l0.056,-0.018l0.037,0.023l0.028,0.06l0.259,0.149l0.051,0.06v0.056l0.033,0.032l0.051,0.01l0.023,0.055l-0.046,0.102l0.014,0.088l0.106,0.112v0.06l0.033,0.028h0.056l0.069,0.074l-0.028,0.218l-0.079,0.126l-0.004,0.092l0.042,0.056l0.078,0.037l0.056,0.07v0.051l0.042,0.023l0.06,-0.014l0.037,0.033l0.033,0.162l0.046,0.037l0.093,0.028l0.028,0.037l-0.005,0.065l0.028,0.037l0.083,0.033l0.098,0.162l-0.005,0.102l-0.208,0.831l-0.005,0.201l0.056,0.009l0.083,-0.009l0.17,0.003l0.065,0.049l0.003,0.096l-0.065,0.077l-0.024,0.087l-0.031,0.028l-0.003,0.043l0.027,0.05l-0.027,0.105l-0.084,0.052l-0.099,0.195l-0.006,0.071l-0.068,0.075l-0.034,0.074v0.121l-0.034,0.08l-0.078,0.114l-0.145,0.396l-0.377,0.294l-0.041,0.077l-0.099,0.025l0.387,0.662l-0.043,0.04l0.136,0.331l0.229,0.328l-0.006,0.26l0.034,0.046l-0.003,0.047l-0.025,0.04l0.062,0.22l0.006,0.281l-1.135,1.157l-0.501,0.733l-0.381,0.668l-0.288,1.29l-0.037,0.33l0.028,0.468l0.13,0.13l0.26,0.116l0.232,0.218l0.042,0.121l0.014,0.148l0.25,0.668l-0.046,0.288l0.199,-0.07l0.269,0.163l0.149,0.255l-0.214,0.408l0.112,0.093l-0.028,0.033l0.376,-0.024l0.176,-0.065l0.227,-0.143l0.353,0.065l0.186,-0.065h0.097l0.111,0.027l0.107,-0.023l0.162,0.098l0.079,0.014l0.047,0.041l0.018,0.191l0.051,0.046l0.051,0.009l0.042,0.084l0.149,0.032l0.092,0.056l0.075,0.13l0.041,0.005l0.042,-0.028l0.26,0.051h0.232l0.097,0.069l0.223,0.093l0.047,-0.005l0.023,-0.037l0.009,-0.097l0.237,-0.241l0.083,-0.014l0.107,0.028l0.083,0.111l0.116,0.107l0.051,0.088v0.088l0.061,0.06l0.213,0.102l0.181,0.158l0.065,-0.111l0.107,0.028l0.153,0.065l0.06,0.041l0.39,0.023l0.186,-0.018l0.635,-0.135l0.631,0.033l1.035,-0.042l0.278,0.056l0.682,0.366l0.242,0.177l0.097,-0.07l0.111,0.028l0.316,-0.074l0.199,0.12l0.478,-0.046l0.255,0.079l0.028,0.046l0.037,0.019l0.07,-0.01l0.149,0.005l0.162,-0.046l0.139,-0.102l0.176,-0.005l0.07,0.028l0.125,-0.042l0.102,-0.005l0.126,0.01l0.352,-0.037l0.232,-0.075l0.13,-0.065l0.223,-0.027l0.014,-0.056l0.246,0.079l0.199,0.055l0.07,-0.009l0.134,-0.074l0.102,0.009l0.056,0.051l0.07,0.033l0.06,-0.01l0.056,0.038l0.014,0.139l0.181,-0.014l0.074,0.023l0.088,0.111l0.116,-0.069l0.204,-0.028l0.051,-0.033l0.098,-0.004l0.148,0.055l0.111,0.019l0.205,-0.009l0.074,-0.047l0.158,0.033l0.083,-0.023l0.78,0.259l0.078,-0.009l0.07,0.028l0.074,-0.097l0.061,-0.005l0.083,0.046l0.098,0.019l0.097,-0.014l0.19,0.079l0.172,0.176h0.079l0.236,-0.06l0.084,0.005l0.046,0.046l0.047,-0.005l0.032,-0.06l0.074,0.014l0.038,0.056l0.232,0.111l0.129,0.028l0.079,0.041l0.088,0.056l0.474,0.181l0.037,0.065l0.083,0.042h0.084l0.056,0.051v0.121l0.111,0.125l2.204,1.113l0.575,0.404l0.404,0.139l0.046,0.102l0.019,0.075l0.329,0.329l0.158,0.102l0.167,0.079l0.084,0.116l0.074,0.176l0.014,0.125l-0.019,0.112l0.023,0.051l0.065,0.032l0.079,-0.014l0.093,-0.046l0.13,0.005l0.394,0.083l0.181,0.098l0.098,0.12l0.283,0.186l0.134,0.06l0.163,0.047l0.116,0.074l0.417,0.422l0.26,0.39l0.093,0.055l0.264,-0.004l0.13,0.046l0.074,0.061l0.177,0.083l0.32,0.056l0.083,0.032l0.051,0.051l0.061,0.023l0.06,-0.004l0.153,0.051l0.084,0.065l0.181,0.224l0.083,0.019l0.047,0.037l0.08,0.012l0.767,-0.133l0.529,-0.037l1.076,-0.136l0.211,-0.065l0.093,0.006l0.092,0.096l0.013,0.093l-0.025,0.071l-0.102,0.176l-0.077,0.062l-0.124,0.059l-0.046,0.086l-0.134,0.378l-0.024,0.606l-0.161,0.507l0.322,0.025l0.457,0.161h0.52l0.656,1.237l0.148,0.545l0.619,1.559l0.755,1.324l0.136,1.101l0.21,0.334l2.957,2.648l0.149,1.348l2.351,-0.223l1.497,-0.006l1.28,-0.315l6.644,1.113l2.599,0.149l5.957,0.526l2.982,-0.65l1.986,0.099l0.006,-0.049l0.322,-0.347l3.439,0.111l4.578,1.065l1.572,0.16l1.661,1.934l-0.075,0.102l-0.083,0.018v0.112l0.482,0.195l0.372,0.018l0.139,-0.056l1.763,0.437l0.111,0.046l0.427,-0.037l0.158,-0.093h0.204l0.241,0.102l0.14,0.028l0.111,-0.037l0.455,0.037l0.241,0.102l0.148,-0.009l1.572,0.751l2.821,1.163l2.153,0.433h0.136l0.321,0.087l0.372,0.037l0.222,0.05l0.198,0.012l0.136,-0.049h0.545l0.136,0.074l0.161,0.012l0.123,-0.086l2.982,-0.52l-0.037,0.396l-0.124,0.198l-0.024,0.198l0.074,0.161v0.259l-0.074,0.137l0.037,0.136l0.136,0.16l1.052,0.137l1.608,-0.062l0.594,0.532l1.509,-1.275h0.409l0.495,-0.222l0.148,-0.149l1.312,-0.656l0.89,-0.42l7.226,-2.784l1.788,-0.176l1.448,-0.344l0.167,-0.306l1.123,-0.399l0.213,0.019l0.483,0.361l1.057,-0.018l1.318,0.093l0.195,-0.093l0.148,-0.009l0.26,-0.149l0.418,-0.028l1.039,-0.213l0.353,0.195l1.092,-0.028l1.05,0.223l0.573,-0.01l0.281,0.093l0.066,0.065h0.084l0.103,-0.093l0.807,-0.352l0.103,0.027l0.103,-0.027l0.094,-0.047l1.698,0.167l1.276,-0.157l0.056,-0.084l0.141,-0.046h0.178l0.975,-0.715l1.426,-0.594l1.323,-0.065l0.215,-0.25l1.351,-0.52l0.647,-0.353l0.216,-0.454l1.051,-0.808l0.394,-0.677l-0.01,-0.176l0.329,-0.381l0.234,-0.12l1.51,-1.745l0.207,-0.167l0.15,-0.065l0.122,-0.121l0.488,-0.157l0.234,-0.149l0.6,-0.195l0.46,-0.12l0.188,-0.112l0.187,-0.204l0.469,-0.176l0.347,0.028l0.347,-0.028l0.263,-0.177l1.219,-1.299l0.629,-0.027l0.253,-0.112l0.122,-0.009l0.066,-0.056l0.065,-0.232l0.028,-0.232l-0.009,-0.399l-0.056,-0.204l-0.504,-0.863l-0.15,-0.155l-0.481,-0.445l-0.219,-0.099l-0.288,-0.142l-0.231,-0.174l-0.425,-0.507l-0.082,-0.154l-0.106,-0.161l-0.137,-0.155l-0.182,-0.365l-0.006,-0.118l-0.056,-0.129l0.012,-0.112l-0.031,-0.117l-0.144,-0.143l-0.213,-0.123l-0.243,-0.075l-0.075,-0.111l-0.044,-0.167l0.031,-0.198l0.081,-0.229l0.282,-0.612l0.144,-0.155l0.075,-0.025l0.056,-0.086l0.044,-0.186l0.068,-0.105l0.132,-0.093l0.05,-0.08l0.019,-0.186l-0.038,-0.291l0.038,-0.204l0.137,-0.42l0.106,-0.192l0.044,-0.143l0.088,-0.185l0.456,-0.705l0.313,-0.613l0.2,-0.297l0.338,-0.278l0.456,-0.291l0.407,-0.192l0.181,-0.123l0.175,-0.038l0.425,-0.024l0.119,0.092l0.144,0.075l1.019,0.037l0.751,0.049l0.144,-0.018l0.181,-0.087l0.713,0.606l0.412,0.563l0.732,0.415l0.613,0.204l0.194,0.031l0.137,0.087l0.538,-0.013l0.457,0.118h0.144l0.656,0.235l2.508,0.167l0.275,0.155l0.556,0.105l0.457,-0.285l0.638,-0.581l0.094,-0.007l0.156,-0.061l0.112,-0.013l0.057,-0.037l0.012,-0.049l0.05,-0.038l0.069,-0.006l0.044,-0.043l0.006,-0.056l0.081,-0.093l0.013,-0.074l0.069,-0.024l0.131,-0.007l0.144,-0.024l0.131,-0.05l0.163,-0.025h0.325l0.138,-0.037l0.287,-0.192l0.3,-0.321l0.138,-0.328l0.069,-0.019l0.756,-0.538l0.282,-0.136l0.45,-0.483l0.35,-0.321l0.375,-0.6l0.113,-0.402l0.012,-0.335l0.451,-0.16l0.487,-0.13l0.363,-0.143l0.776,0.279l0.394,0.179l0.456,0.044l0.1,-0.05l0.069,0.012l1.007,-0.123l1.282,0.049l1.3,-0.365l0.901,-0.198l1.157,-0.965l0.406,-0.408l0.507,-0.21l0.075,-0.069l0.062,-0.129l0.082,-0.038h0.231l0.131,0.044l0.157,-0.006l0.106,-0.05l0.163,-0.012l0.2,-0.093l0.15,-0.198l0.025,-0.179l0.269,-0.211l0.156,-0.025l-0.056,-0.457l0.05,-0.056v-0.05l-0.082,-0.037l-0.062,-0.142l-0.113,-0.074l-0.025,-0.093l0.082,-0.161l0.112,-0.501l0.932,-1.373l0.119,-0.05h0.056l0.55,-0.674l0.325,-0.291l0.057,-0.21l0.137,-0.112l0.382,-0.148l0.681,-0.074l0.013,-0.056l0.05,-0.068l0.156,-0.062l0.113,-0.025l0.019,-0.123l0.05,-0.068l0.106,-0.037l0.194,0.037l0.075,0.043h0.087l0.1,-0.025l1.201,0.18l1.032,-0.087l0.813,0.031l0.069,-0.297l-0.069,-0.093l0.162,-0.575l0.294,-0.378l-0.156,-0.451l0.188,-0.025l0.156,-0.049l0.106,-0.062l0.107,-0.013l0.062,0.056h0.063l0.05,-0.043l0.15,-0.025l0.137,0.037l0.082,-0.012l0.031,-0.05l0.056,-0.006l0.163,0.08l0.081,0.112l0.019,0.105l-0.006,0.087l0.043,0.068l0.319,0.26l0.082,0.024h0.112l0.225,-0.08l0.057,-0.062l0.087,-0.019l0.119,0.038l0.2,-0.007l0.138,-0.049l0.1,-0.081l0.006,-0.061l-0.038,-0.099l0.038,-0.087l0.087,-0.043l0.057,0.012l0.05,-0.031v-0.08l0.162,-0.143l0.15,-0.049l0.169,0.037l0.107,-0.019l0.006,-0.105l0.056,-0.024l0.206,0.012l0.138,-0.031l0.425,-0.278l0.063,-0.099l0.231,-0.062l0.144,0.031l0.125,-0.025l0.144,-0.087l0.025,-0.099l0.094,-0.055l0.206,-0.025l0.131,-0.056l0.082,-0.093l0.144,-0.037l0.556,0.106l0.256,0.173l0.901,0.105l0.344,-0.204l0.081,-0.013l0.063,0.031l0.062,0.112l0.107,0.043l0.275,0.012l0.119,0.062l0.256,0.019l0.087,-0.019l0.013,-0.111l-0.063,-0.112l0.226,-0.228l0.081,-0.155l0.112,-0.062h0.107l0.206,-0.037l0.094,0.031l0.044,0.142l-0.013,0.099l-0.044,0.056l0.007,0.062l0.075,0.037h0.15l0.112,-0.112l0.194,-0.086l0.106,-0.013l0.076,0.062l-0.024,0.07l0.028,0.042l0.061,0.023l0.094,0.19l0.272,0.32l0.131,0.088l0.019,0.038l0.07,0.009l0.066,-0.042l0.084,-0.032h0.127l0.183,0.078l0.117,0.005l0.08,-0.028l0.099,-0.009l0.154,0.056l0.057,0.083l0.206,0.158l0.098,0.023l0.16,-0.005l0.056,-0.037l0.066,-0.009l0.084,0.074l0.085,0.005l0.375,-0.274l0.314,0.098l0.314,-0.065l0.164,0.014l0.024,0.06l0.08,0.028l0.056,0.055l0.084,0.01l0.122,-0.056l0.249,-0.014l0.112,0.047l0.066,0.088l0.033,0.13l-0.014,0.055l0.216,-0.12l0.042,-0.07l0.089,-0.051l0.103,0.005l0.192,-0.098l0.085,-0.139l0.112,-0.199l-0.032,-0.121l0.103,0.046l0.126,0.033l0.089,-0.005l0.122,0.014l0.043,0.042h0.164l0.037,-0.037l0.005,-0.116l0.028,-0.075l0.075,-0.078l0.052,-0.103l-0.01,-0.055l-0.075,-0.07l-0.047,-0.139l-0.037,-0.046l-0.005,-0.084l0.132,-0.116l0.046,-0.097v-0.121l-0.056,-0.139v-0.135l0.066,-0.06l-0.019,-0.033l-0.112,-0.023l-0.071,-0.102l0.01,-0.153l0.061,-0.125l0.06,-0.042l-0.431,-0.144l-0.047,-0.162l0.136,-0.139l-0.009,-0.047l-0.057,-0.023h-0.089l-0.061,-0.042l-0.07,-0.088l-0.084,-0.079l-0.16,-0.255l-0.005,-0.06l0.038,-0.037l0.009,-0.047l-0.023,-0.046l0.009,-0.051l0.057,-0.051l-0.301,-0.608l-0.253,-0.302l-0.051,-0.232l-0.212,-0.116l-0.215,-0.181l-0.038,-0.068l-0.1,-0.061l-0.187,-0.031l-0.125,0.037l-0.11,-0.025l-0.037,-0.071l0.031,-0.099l-0.022,-0.229l-0.038,-0.053l-0.09,-0.021l-0.075,0.009l-0.041,-0.028l0.009,-0.062l-0.097,-0.074l-0.109,-0.003l-0.059,-0.025l-0.007,-0.059l-0.04,-0.049l-0.094,-0.037l-0.134,-0.13l-0.013,-0.093l-0.125,-0.099l-0.178,-0.071l-0.16,-0.111l-0.022,-0.102l-0.125,-0.096h-0.062l-0.022,0.046l-0.055,-0.014l0.056,-0.204l0.207,-0.246l-1.046,-0.348l-0.38,-0.185l-0.141,-1.026l-2.392,-0.919l-1.311,-1.837l-0.723,-0.031l-0.062,0.037l-0.034,-0.015l0.006,-0.059l-0.107,-0.084l-0.093,-0.024l-0.063,0.028h-0.062l-0.091,-0.038l-0.081,0.025l-0.013,0.04l-0.047,0.022l-0.069,-0.015l-0.062,0.018l-0.063,-0.003l-0.062,-0.049h-0.044l-0.034,0.052l-0.057,0.003l-0.072,-0.037l-0.137,-0.105l-0.059,-0.009l-0.104,-0.071l-0.009,-0.059l-0.041,-0.037l-0.068,0.012l-0.119,-0.019l-0.053,0.019l-0.06,-0.015l-0.012,-0.047l-0.066,-0.009l-0.138,0.093l-0.087,0.024l-0.119,-0.077l-0.063,0.025l-0.05,0.074l-0.171,0.046l-0.176,0.069l-0.05,0.049l-0.09,0.025l-0.053,-0.022l-0.197,0.025l-0.035,-0.031l-0.065,-0.016l-0.079,0.022h-0.118l-0.201,-0.065l-0.065,0.009l-0.057,-0.012l-0.059,-0.037l-0.056,0.019l-0.465,0.06l-1.852,1.902l-0.028,0.074v0.061l-0.033,0.032l-0.052,0.014l-0.042,0.033l-0.122,0.037l-0.703,0.997l-1.904,-1.536l-1.403,-0.584l-0.488,-0.042l-0.811,0.051l-1.515,0.45l-1.191,-0.315l-0.033,-0.033l-0.947,0.506l-1.023,1.109l-0.145,0.06l-2.378,-2.004l-0.281,-1.545l-0.052,-0.08l0.005,-0.034l0.089,-0.086v-0.074l-0.075,-0.037l-0.025,-0.108l1.913,-0.879l-0.153,-2.307l1.885,-2.45l-0.225,-0.418l4.497,-8.286l-0.589,-0.768l-0.78,-0.185l-0.736,-0.266l-0.377,-0.093l-0.693,-0.328l-0.693,0.105l-0.414,0.13l-0.656,0.365l-0.928,0.402l-0.118,0.093l-0.458,0.204h-0.463l-0.341,-0.136l-0.222,-0.043l-0.266,-0.006l-0.062,0.018l-1.497,-0.439l-0.209,-0.088l-0.395,-0.227l-0.32,-0.251l-0.399,-0.399l-0.213,-0.13l-0.084,-0.097l0.014,-0.079l-0.227,-0.311l-0.311,-0.288l-1.021,-0.441l-0.366,-0.041l-0.8,-0.172l-0.878,0.161l-0.378,-0.062l-0.458,-0.167l-0.42,-0.241l-1.04,0.334l-1.924,1.188l-0.383,0.049l-0.613,0.272l-0.631,0.705l-1.057,0.149l-0.075,0.315l-0.887,0.387l-0.817,0.455l-0.557,0.881l-0.343,0.659l0.009,0.065l-0.023,0.037l-0.051,0.005l-0.019,0.06l-0.023,0.098l-0.069,0.13l-0.14,0.111l-0.185,0.032l-0.074,-0.014l-0.079,0.028l-0.037,0.056l-0.093,0.005l-0.07,-0.014l-0.056,0.032l-0.018,0.088l-0.051,0.014l-0.079,-0.018l-0.162,0.083l-0.089,0.102l-0.153,0.084l-0.074,0.088l-0.195,0.097l-0.083,-0.013l-0.065,0.004l-0.074,0.065l-0.237,0.023l-0.116,-0.097l-0.056,0.005l-0.079,0.115l-0.097,0.014l-0.218,-0.102h-0.116l-0.125,0.042l-0.163,0.005l-0.158,-0.047l-0.645,-0.041l-0.385,0.12l-0.872,0.181l-0.636,0.339l-1.586,0.594l-0.214,-0.014l-0.64,0.032l-0.167,-0.074l-0.311,-0.018l-0.38,0.018l-0.984,0.492l-0.302,-0.06l-0.691,-0.237l-0.566,0.367l-1.276,0.436l-1.861,0.733l-0.784,0.083l-0.663,-0.162l-0.371,-0.023l-0.126,0.004l-0.023,-0.06l-0.074,-0.014l-0.065,0.023l-0.45,-0.246l-0.176,-0.278l-0.413,0.478l-0.492,0.278l-0.297,0.088l-0.111,-0.009l-0.116,-0.051l-0.098,-0.014l-0.093,0.009l-0.106,-0.018l-0.14,-0.093l-0.143,-0.028l-0.144,0.01l-0.112,-0.033l-0.102,-0.065l-0.083,-0.028l-0.093,0.01l-0.084,-0.024l-0.064,-0.032l-0.089,-0.005l-0.092,0.028l-0.107,-0.018l-0.084,-0.019l-0.097,0.009l-0.079,0.037l-0.121,-0.004l-0.445,-0.149l-0.979,-0.106l-0.701,0.037l-0.246,-0.107l-0.167,-0.033l-0.148,-0.255l-0.13,-0.028l-0.097,-0.083l-0.01,-0.06l-0.065,-0.061l-0.134,-0.009l-0.116,-0.042l-0.306,-0.222l-1.077,-0.223l-0.677,0.264l-0.631,-0.134h-0.153l-0.112,-0.047l-0.176,0.01l-0.102,0.074l-0.241,-0.005l-0.112,-0.088l-0.06,0.005l-0.088,0.055l-0.181,0.014l-0.139,-0.051l-0.163,0.01l-0.097,0.046l-0.204,0.014l-0.144,-0.084l-0.102,0.005l-0.102,0.088l-0.242,0.023l-0.153,-0.041h-0.241l-0.135,0.116l-0.074,-0.01l-0.116,-0.074l-0.004,-0.088l-0.163,-0.116l-0.102,-0.033l-0.069,-0.125l0.018,-0.195l-0.097,-0.167l-0.288,-0.051l-0.125,-0.088l-0.112,-0.223l0.005,-0.139l-0.046,-0.232l-0.051,-0.032h-0.056l-0.033,-0.042l-0.027,-0.139l-0.126,-0.153l-0.093,-0.019l-0.208,0.023l-0.07,0.037l-0.083,-0.014l-0.158,-0.088l-0.079,-0.032l-0.144,-0.023l-0.371,-0.181l-0.135,-0.033l-0.426,-0.301v-0.065l0.06,-0.01l0.023,-0.046l-0.065,-0.065l-0.018,-0.093l0.046,-0.102l-0.037,-0.056l-0.079,0.01l-0.2,0.139l-0.157,0.028l-0.107,-0.074l-0.009,-0.158l-0.037,-0.139l0.046,-0.098l0.13,-0.079l0.088,-0.139l-0.042,-0.107l-0.083,-0.055l-0.075,-0.158l0.028,-0.056l0.112,-0.014l0.092,-0.088l-0.023,-0.13l-0.065,-0.037h-0.106l-0.079,-0.046l-0.014,-0.084l0.069,-0.144l-0.027,-0.069l-0.121,-0.042l-0.033,-0.065l0.033,-0.102l0.074,-0.009l0.065,-0.056l0.056,-0.13l0.125,-0.107l-0.051,-0.213l-0.125,-0.06l-0.074,0.004l-0.075,0.056h-0.069l-0.047,-0.014l-0.083,0.005l-0.098,0.037l-0.162,-0.019l-0.037,-0.13l-0.07,-0.074h-0.06l-0.088,0.074l-0.074,0.144l-0.056,-0.004l-0.251,-0.191l-0.046,-0.116l-0.098,-0.069l-0.083,-0.005l-0.116,0.07l-0.274,0.046l-0.069,0.033l-0.061,-0.019v-0.074l-0.074,-0.047l-0.102,0.01l-0.074,0.037l-0.13,0.004l-0.186,-0.088h-0.144l-0.078,0.042l-0.177,-0.009l-0.074,-0.042h-0.139l-0.088,0.019l-0.084,-0.024l-0.06,0.019v0.046l-0.056,0.005l-0.079,-0.037l-0.144,-0.009l-0.259,-0.186l-0.362,-0.005l-0.116,0.079l-0.102,0.005l-0.214,-0.088l-0.153,-0.024l-0.213,-0.083l-0.126,-0.139l-0.004,-0.084l-0.121,-0.074h-0.148l-0.116,-0.074l0.004,-0.056l-0.051,-0.037l-0.079,-0.014l-0.023,-0.06l0.042,-0.102l-0.023,-0.033l-0.102,-0.004l-0.061,-0.089l0.005,-0.116l-0.056,-0.12l-0.116,-0.079l-0.097,-0.195l0.028,-0.051l-0.024,-0.056l-0.064,-0.041l0.004,-0.07l0.084,-0.07l-0.019,-0.069l-0.195,-0.075l-0.677,-0.459l-0.413,-0.329l-0.548,-0.158l-0.009,0.032l-0.928,-0.222l-0.134,0.06l-0.112,-0.042l-0.069,-0.051l-0.177,-0.009l-0.06,0.046l-0.07,0.112l-0.348,0.093l-0.329,-0.047l-0.125,0.009l-0.325,0.093l-0.019,0.056l-0.046,0.009l-0.056,-0.023l-0.079,0.019l-0.19,0.023l-0.083,-0.023l-0.135,-0.116l-0.176,-0.038l-0.098,-0.139l-0.125,-0.037l-0.417,0.042l-0.223,0.004l-0.014,-0.032l0.018,-0.032l-0.004,-0.052l-0.074,-0.018l-0.014,-0.051l0.069,-0.172l-0.023,-0.158l-0.079,-0.102h-0.111l-0.186,-0.074l-0.199,-0.032l-0.422,-0.01l-0.098,0.033l-0.088,-0.009l-0.227,-0.112l-0.098,-0.106l-0.158,-0.01l-0.069,0.042h-0.065l-0.065,-0.028h-0.116l-0.102,0.051l-0.288,0.047h-0.121l-0.296,-0.061l-0.079,0.005l-0.07,0.046l-0.125,-0.004l-0.181,-0.088l-0.079,-0.084l-0.26,-0.079l-0.093,0.009l-0.255,0.102l-0.213,0.024l-0.144,-0.014l-0.102,-0.061l-0.047,-0.069l-0.143,-0.047l-0.135,-0.078l-0.023,-0.047l-0.065,-0.004l-0.116,0.037l-0.227,0.014l-0.191,0.065l-0.009,0.064l0.014,0.075l-0.056,0.083l-0.065,0.01l-0.171,0.12l-0.07,0.023l-0.074,0.07l-0.074,0.032l-0.093,0.01l-0.07,-0.019l-0.042,0.014l-0.023,0.056l-0.195,0.111h-0.065l-0.074,-0.051l-0.069,0.009l-0.038,0.047l-0.078,0.023l-0.307,0.014l-0.069,-0.033h-0.061l-0.046,0.019l-0.162,-0.037l-0.084,-0.084l-0.088,-0.018l-0.121,0.004l-0.037,-0.018l-0.074,-0.009l-0.042,0.018l-0.051,-0.005l-0.051,-0.032l-0.056,0.009l-0.083,0.139v0.144l-0.028,0.042h-0.088l-0.056,0.033v0.064l-0.042,0.024l-0.064,-0.019l-0.052,0.033l-0.088,0.106l-0.06,0.028l-0.19,-0.028l-0.065,0.028l-0.102,-0.032l-0.056,-0.056l-0.121,-0.06l-0.055,0.018l-0.07,-0.014l-0.042,-0.065l-0.074,-0.014l-0.097,0.056l-0.042,0.07l-0.005,0.125l-0.088,0.093l-0.185,0.074l-0.084,-0.005l-0.264,0.093l-0.042,0.051h-0.042l-0.056,-0.051l-0.194,-0.06h-0.065l-0.112,0.06h-0.074l-0.116,-0.051l-0.065,0.009l-0.06,0.051h-0.2l-0.093,-0.037l-0.074,0.019l-0.079,0.13l-0.116,0.274l-0.148,0.12l-0.014,0.042l-0.06,0.023l-0.158,-0.014l-0.06,-0.004l-0.047,0.041l-0.032,0.075l-0.047,0.06l-0.014,0.083l0.019,0.075l-0.033,0.051l-0.19,0.12l-0.12,0.005l-0.219,0.116l-0.348,0.283l-0.06,0.005l-0.051,-0.033l-0.074,0.005l-0.051,0.028l-0.111,-0.014l-0.089,-0.047l-0.134,-0.023l-0.107,0.023l-0.213,-0.023l-0.228,-0.121l-0.157,-0.06l-0.024,-0.083l-0.051,-0.014l-0.065,0.037l-0.065,-0.005l-0.027,-0.042l-0.075,-0.004l-0.083,0.042l-0.061,-0.028l-0.046,-0.079l-0.172,-0.042l-0.065,0.033l-0.041,0.102l-0.158,0.199l-0.079,0.009l-0.107,-0.055l-0.181,0.004l-0.106,0.075l-0.014,0.134l-0.079,0.098l-0.065,0.004l-0.149,-0.106l-0.134,-0.033l-0.125,0.005l-0.056,-0.019l-0.009,-0.037l-0.056,-0.014l-0.121,0.042l-0.041,-0.033l-0.01,-0.097l-0.079,-0.07h-0.129l-0.056,0.037l-0.098,-0.013l-0.153,-0.144l-0.041,-0.13l-0.084,-0.037l-0.107,0.028l-0.06,-0.01l-0.06,-0.051l-0.107,-0.023l-0.07,0.019l-0.079,-0.005l-0.064,-0.046h-0.14l-0.083,0.018h-0.102l-0.056,0.028l-0.009,0.046l-0.047,0.019l-0.051,-0.037l-0.055,0.009l-0.167,0.098l-0.195,0.023l-0.2,-0.042l-0.041,-0.065l0.027,-0.121l0.084,-0.102l-0.005,-0.083l-0.144,-0.135l0.005,-0.065l0.084,-0.018l0.078,-0.153l-0.004,-0.098l-0.074,-0.125l-0.089,-0.009l-0.051,-0.061l-0.004,-0.097l-0.047,-0.014l-0.046,0.023l-0.065,-0.014l-0.042,-0.069l-0.107,-0.028h-0.092l-0.037,0.032l-0.005,0.084l-0.046,0.028h-0.056l-0.047,0.032l-0.004,0.046l-0.037,0.005l-0.269,-0.093l-0.2,-0.004l-0.083,0.032l-0.163,0.019l-0.074,0.046l-0.209,0.019l-0.343,-0.01l-0.172,-0.06l-0.107,-0.083l-0.009,-0.042l-0.065,-0.023l-0.107,0.009l-0.055,-0.005l-0.028,-0.042l-0.06,-0.013l-0.047,0.018l-0.097,-0.088l-0.019,-0.079l-0.083,-0.065l-0.297,-0.116l-0.088,-0.074l-0.051,-0.153l-0.107,-0.07l-0.116,0.014l-0.13,0.084h-0.144l-0.139,-0.051l-0.07,-0.061l-0.037,-0.097l-0.102,-0.153l-0.042,-0.158l0.024,-0.139l-0.024,-0.135l-0.037,-0.065l-0.014,-0.12l-0.12,-0.112l-0.07,0.005l-0.083,-0.056l-0.126,-0.018l-0.023,-0.056l0.047,-0.176l-0.112,-0.316l-0.111,-0.055l-0.241,-0.019l-0.126,-0.065l-0.097,-0.135l-0.013,-0.198l-0.074,-0.018l-0.173,0.049l-0.074,-0.055l-0.025,-0.099l-0.099,-0.062h-0.186l-0.228,-0.105l-0.056,-0.087l0.037,-0.148l0.13,-0.112l0.056,-0.117l-0.062,-0.118l-0.204,-0.216l-0.062,-0.106l-0.18,-0.117l-0.148,-0.031l-0.142,-0.161l-0.044,-0.179l0.031,-0.322l0.124,-0.124l0.043,-0.105l-0.018,-0.117l-0.118,-0.136l-0.012,-0.174l0.142,-0.167l-0.012,-0.043l-0.062,-0.031l-0.031,-0.087l-0.013,-0.123l-0.111,-0.18v-0.08l-0.124,-0.118l-0.204,-0.074l-0.043,-0.056v-0.105l0.111,-0.105l-0.006,-0.056l-0.155,-0.049l-0.049,-0.124l0.012,-0.086l-0.006,-0.068l-0.068,-0.062l-0.006,-0.124l0.093,-0.173l0.136,-0.037l0.018,-0.056l-0.123,-0.093l-0.062,-0.117l0.043,-0.075l-0.006,-0.068l-0.229,-0.148l0.006,-0.062l0.056,-0.037l0.025,-0.223l-0.025,-0.049l0.043,-0.031l0.186,0.049l0.148,-0.031l0.062,-0.093l-0.223,-0.377l-0.111,-0.043l-0.043,-0.062v-0.062l-0.18,-0.117l-0.451,-0.18h-0.099l-0.068,0.043l-0.198,-0.074l-0.112,-0.13l-0.235,-0.037l-0.198,0.093l-0.451,-0.149l-0.143,-0.123l-0.198,-0.062l-0.123,-0.093l-0.149,-0.018l-0.42,0.099l-0.248,0.018l-0.068,-0.056l0.019,-0.099l-0.038,-0.086l-0.154,-0.099l-0.136,0.037l-0.05,-0.025l-0.025,-0.086l-0.136,-0.087l-0.229,-0.012l-0.167,0.068l-0.099,0.012l-0.03,0.043l-0.007,0.118l-0.13,0.148l-0.253,0.019l-0.186,-0.031l-0.08,-0.062v-0.068l-0.136,-0.161l-0.204,-0.062l-0.087,-0.068h-0.068l-0.05,-0.037l0.007,-0.068l-0.106,-0.142l-0.006,-0.068l-0.117,-0.037l-0.149,0.037l-0.185,0.154l-0.322,0.031l-0.05,-0.068l-0.024,-0.154l-0.081,-0.161l-0.111,-0.118l0.006,-0.099l-0.049,-0.006l-0.056,0.105l-0.012,0.124l-0.05,0.006l-0.111,-0.068l-0.143,-0.012l-0.111,0.018l-0.056,-0.037l0.007,-0.173l-0.18,-0.142l-0.111,-0.05l-0.229,0.062l-0.124,-0.018l-0.383,-0.186v-0.068l-0.118,-0.062l-0.124,-0.006l-0.074,-0.05l-0.018,-0.074l-0.056,-0.031l-0.136,-0.018l-0.322,-0.112l-0.155,-0.111l-0.086,-0.111l-0.093,-0.031l-0.087,0.012l-0.08,-0.062l-0.006,-0.056l-0.074,-0.049l-0.217,0.012l-0.037,0.05l-0.056,-0.013l-0.049,-0.111l-0.13,-0.037l-0.204,0.006l-0.087,-0.086l-0.148,-0.007l-0.075,0.044l-0.241,0.043l-0.111,0.08l-0.192,-0.018l-0.019,-0.05l0.05,-0.062l-0.062,-0.03l-0.173,0.061l-0.34,0.007l-0.328,-0.013l-0.093,-0.074h-0.167l-0.136,0.056l-0.155,-0.019l-0.241,-0.093l-0.235,-0.024l-0.143,0.043l-0.278,0.161l-0.278,-0.037l-0.211,-0.112l-0.074,0.006l-0.037,0.05l-0.08,0.018l-0.149,-0.03l-0.074,0.018l-0.019,0.05l-0.062,0.006l-0.061,-0.161l-0.099,-0.043l-0.124,-0.205l0.006,-0.074l-0.037,-0.086l-0.179,-0.007l-0.013,-0.061l0.062,-0.081l0.025,-0.117l-0.037,-0.031l-0.062,-0.019l-0.056,-0.074l0.031,-0.155l-0.043,-0.198l-0.105,-0.216l-0.118,-0.019l-0.223,0.037l-0.031,0.056l-0.092,0.025l-0.087,-0.019l-0.167,0.05l-0.05,0.08h-0.055l-0.068,-0.099h-0.075l-0.247,0.136l-0.043,-0.006l-0.087,-0.136l-0.006,-0.217l-0.087,-0.049h-0.117l-0.186,-0.173l0.006,-0.081l-0.08,-0.055h-0.099l-0.099,0.086l-0.167,0.05l-0.13,-0.007l-0.124,-0.049l-0.173,-0.012l-0.074,-0.056l-0.099,0.012l-0.093,0.081l0.006,0.086l-0.068,0.025l-0.198,-0.124l-0.241,-0.055l-0.179,-0.093l-0.007,-0.093l0.068,-0.012l0.013,-0.068l-0.031,-0.093l0.031,-0.111l-0.062,-0.044l-0.111,0.056l-0.106,-0.006l-0.105,-0.099l-0.334,-0.075l-0.167,0.025l-0.049,0.056l-0.112,-0.006l-0.068,-0.18l-0.08,-0.037l-0.068,0.025l-0.056,-0.037l0.006,-0.093l-0.08,-0.056l-0.186,0.025l-0.198,-0.068l-0.068,-0.272l-0.117,-0.105l-0.068,-0.167l0.006,-0.068l-0.068,-0.038h-0.334l-0.136,0.081l-0.124,0.018l-0.099,0.093l0.006,0.13l-0.012,0.087l-0.068,0.037l-0.025,0.062l0.043,0.099v0.216l-0.13,0.161l-0.105,0.074l-0.006,0.081l0.037,0.062v0.049l-0.074,0.062l-0.006,0.068l0.018,0.124l-0.037,0.124l-0.142,0.167l-0.093,0.377l0.012,0.179l-0.173,0.18l-0.148,0.055l-0.18,0.112l-0.117,0.142l-0.371,0.186l-0.174,0.024l-0.29,0.031l-0.155,-0.006l-0.043,0.056v0.111l-0.334,0.285l-0.174,0.055l-0.389,-0.012l-0.143,0.062l-0.031,0.074l0.019,0.142l-0.037,0.05l-0.142,0.025l-0.149,0.266l-0.136,0.315l-0.266,0.272l-0.155,0.031l-0.018,0.068l0.08,0.075l-0.012,0.278l0.142,0.155l-0.025,0.266l-0.092,0.148l-0.05,0.204l-0.136,0.056l-0.278,-0.05l-0.174,-0.092l-0.142,-0.019l-0.186,0.037l-0.061,0.081l-0.093,0.024h-0.087l-0.105,0.075l-0.118,0.303l-0.29,0.612l-0.149,0.087l-0.031,0.111l0.031,0.142l-0.055,0.52l0.074,0.068l-0.006,0.087l-0.075,0.086l-0.123,0.291l-0.099,0.056l-0.037,0.062l0.012,0.123l-0.105,0.471l-0.099,0.074l-0.025,0.13l0.049,0.043l-0.012,0.068l-0.068,0.012l-0.012,0.087l0.012,0.074l-0.21,0.204l-0.056,0.124l0.037,0.087l0.112,0.062l0.061,0.148l-0.024,0.093l0.136,0.21l0.192,0.155l0.241,0.111l0.161,0.143l0.179,0.08l0.266,0.148l0.012,0.062l-0.167,0.149l-0.148,0.185l-0.179,0.087l0.006,0.062l0.086,0.13l0.013,0.315l0.105,0.155v0.111l-0.025,0.081l0.081,0.123l0.123,0.038v0.049l-0.068,0.068l0.074,0.161l0.161,0.111l0.149,0.167l0.049,0.136l0.136,0.118l0.13,0.031l0.124,0.068l0.087,0.118l0.315,0.142l0.353,0.086l0.185,0.087l0.081,0.118l0.009,0.074l0.072,0.091l0.081,0.037l0.069,-0.003l0.027,0.015l0.017,0.15l-0.017,0.05l-0.143,0.133l-0.02,0.044l0.003,0.062l-0.104,0.175l-0.054,0.054l-0.01,0.047l0.042,0.039v0.03l-0.059,0.015l-0.002,0.049l0.106,0.133l0.014,0.047l-0.002,0.044l0.02,0.04l0.044,0.027v0.084l-0.027,0.037l-0.003,0.042l0.062,0.034l0.015,0.116l-0.045,0.064l-0.13,0.034l-0.062,0.035l-0.101,0.128l-0.034,0.067l-0.003,0.079l-0.032,0.054l-0.057,0.064l-0.022,0.054l-0.022,0.143l-0.027,0.042l-0.37,0.279l-0.002,0.071l0.121,0.18l0.007,0.047l-0.032,0.071l-0.005,0.094l-0.039,0.029l-0.037,-0.002l-0.045,0.017l-0.037,0.059l-0.064,0.01l-0.069,0.03l-0.099,-0.015l-0.032,-0.032l-0.022,0.005l0.003,0.079l0.054,0.047l0.002,0.037l-0.027,0.054l0.003,0.037l0.029,0.017l0.003,0.04l-0.109,0.108l-0.019,0.039v0.052l-0.027,0.027l-0.141,0.008l-0.071,0.051l-0.008,0.028l0.03,0.029l-0.02,0.197l-0.03,0.03l-0.113,-0.015l-0.086,0.005l-0.279,0.091l-0.054,0.05l-0.037,0.125l-0.034,0.037l-0.077,0.02l-0.118,0.128l-0.059,0.022l-0.153,-0.022l-0.025,-0.039l-0.052,0.002l-0.187,0.084l-0.037,0.039l-0.015,0.087l0.013,0.032l0.034,0.01l0.057,0.081l-0.01,0.032l0.017,0.032l0.082,0.025l0.024,0.047l-0.032,0.046l-0.049,0.005l-0.032,-0.015l-0.027,0.01l-0.02,0.042l-0.094,0.02l-0.049,-0.015l-0.015,-0.024l-0.039,-0.02l-0.077,-0.005l-0.034,-0.025l0.002,-0.052l-0.024,-0.017l-0.042,0.008l-0.02,-0.02l0.017,-0.089l-0.044,-0.047l-0.101,-0.022l-0.017,-0.025l0.01,-0.029l-0.005,-0.032l-0.082,-0.052l-0.005,-0.079l0.04,-0.034l0.002,-0.03l-0.049,-0.049l-0.086,-0.032l-0.027,0.01l-0.005,0.046l-0.06,0.057l-0.046,0.013l-0.06,0.061l-0.093,0.01l-0.074,-0.007l-0.052,0.046l-0.005,0.047l-0.024,0.013l-0.067,-0.005l-0.059,0.027l-0.052,-0.003l-0.032,0.01l-0.015,0.037l-0.234,0.091l-0.012,0.032l-0.03,0.013l-0.251,-0.027l-0.055,0.022l-0.044,0.071l-0.094,0.059l-0.002,0.04l0.14,0.064l0.008,0.03l-0.047,0.034l-0.01,0.035l0.057,0.088l0.042,0.05l0.02,0.037l-0.033,0.15l-0.037,0.049l-0.069,0.013l-0.027,0.029v0.047l-0.042,0.044l-0.101,-0.012l-0.123,0.067l-0.071,0.157l-0.084,0.089l-0.096,0.032h-0.099l-0.032,0.02l-0.002,0.037l-0.025,0.022l-0.081,0.002l-0.153,0.097l-0.067,0.012l-0.052,-0.042l-0.054,-0.003l-0.076,0.067l-0.045,0.003l-0.051,-0.03h-0.082l-0.143,0.121l-0.019,0.074l-0.116,0.064l-0.101,-0.008l-0.237,0.027l-0.081,-0.009l-0.121,0.046l-0.074,0.013l-0.02,-0.017l0.005,-0.042l-0.027,-0.023h-0.042l-0.14,-0.096l-0.04,-0.076l-0.061,-0.037h-0.069l-0.19,-0.101l-0.089,-0.017l-0.02,-0.045l0.067,-0.089l0.007,-0.064l-0.13,-0.061h-0.136l-0.158,-0.025l-0.113,-0.064l-0.111,-0.015l-0.138,0.022l-0.025,-0.022v-0.054l-0.049,-0.079l-0.01,-0.084l-0.027,-0.037v-0.039l0.037,-0.069l-0.015,-0.096l-0.049,-0.047l-0.118,-0.015l-0.106,0.022l-0.114,-0.002l-0.111,-0.032l-0.246,-0.01l-0.079,0.027l-0.115,-0.005l-0.246,-0.116l-0.296,-0.019l-0.2,0.033l-0.088,-0.028l-0.028,-0.074l-0.079,-0.07h-0.051l-0.107,0.06l-0.139,0.139l-0.144,0.052l-0.046,0.064l-0.172,0.07l-0.041,0.06l-0.047,0.005l-0.083,-0.093l-0.051,-0.195l-0.126,-0.162l-0.023,-0.084l-0.107,-0.055l-0.181,0.023l-0.083,0.111l-0.181,0.098l-0.07,0.083l-0.009,0.102l-0.172,0.135l-0.12,0.018l-0.135,-0.055l-0.051,-0.084l-0.083,-0.051l-0.172,-0.055l-0.051,-0.07l0.005,-0.102l-0.028,-0.125l-0.116,-0.056l-0.074,0.037l-0.065,-0.028v-0.051l-0.047,-0.032l-0.074,-0.005l-0.056,-0.023l-0.093,-0.153l-0.115,-0.037l-0.093,0.027h-0.084l-0.162,-0.083l-0.255,-0.019l-0.177,0.038l-0.134,-0.033l-0.158,-0.158l-0.135,-0.028l-0.264,0.07l-0.181,0.218l-0.13,0.047l-0.065,-0.014l-0.042,-0.07l-0.148,-0.102l-0.144,-0.028l-0.042,-0.083l0.037,-0.065v-0.084l-0.283,-0.153l-0.171,-0.014l-0.107,0.06l-0.181,0.033l-0.056,-0.014l-0.06,0.028l-0.139,0.176l0.009,0.116l0.163,0.107l0.046,0.13l-0.033,0.046l-0.111,0.014l-0.121,-0.005l-0.055,-0.032h-0.047l-0.069,0.051l-0.172,0.019l-0.246,-0.052l-0.06,0.065l-0.214,0.01l-0.348,0.097l-0.12,0.274l-0.06,0.023l-0.084,0.102l-0.06,-0.051l-0.135,-0.042l-0.496,-0.417l-0.877,-0.009l-0.599,-0.061l-0.802,0.023l-0.427,-0.148l-0.14,-0.297l0.01,-0.218l-0.019,-0.046l-0.046,-0.014l-0.088,0.032h-0.084l-0.274,-0.037l-0.408,-0.037l-0.649,-0.019l-0.557,0.149l-0.432,0.004l-0.038,-0.048l0.024,-0.068l-0.062,-0.185l-0.315,-0.39l-0.111,-0.074l-0.087,-0.142l0.012,-0.124l-0.037,-0.155l-0.291,-0.179l-0.167,-0.006l-0.08,0.024l-0.13,-0.037l-0.223,-0.192l-0.303,-2.511l-0.235,-0.204l-0.062,-0.248l-0.08,-0.161l-0.291,-0.136l-0.309,-0.037l-1.002,-0.031l-0.304,-0.08l-0.358,0.13l-0.557,-0.099l-0.681,0.049l-0.315,0.081l-0.235,-0.031l-0.217,-0.155l-0.377,0.012l-0.034,-0.021l-0.031,0.006l-0.012,0.034h-0.025l-0.013,-0.043h-0.037l-0.027,0.046h-0.084l-0.04,-0.028l-0.034,-0.003l-0.034,0.028l-0.037,-0.019l-0.003,-0.049l-0.041,-0.047l-0.062,0.004l-0.293,-0.118l-0.226,0.012l-0.17,-0.049l-0.353,0.155l-0.087,0.061l-0.631,0.109h-0.102l-0.253,-0.022l-0.266,0.009l-0.121,0.084l-0.068,0.006l-0.077,-0.022l-0.025,-0.055l-0.043,-0.019h-0.062l-0.053,-0.037v-0.05l-0.04,-0.03l-0.071,-0.004l-0.087,-0.046l-0.207,0.071l-0.269,-0.498l0.346,-0.439l0.04,-0.445l-0.04,-0.019l-0.024,-0.034l0.006,-0.071l-0.04,-0.056l-0.09,-0.046l-0.325,-0.013l-0.053,0.037l-0.037,0.019l-0.086,-0.034l-0.075,-0.068l-0.12,-0.031l-0.074,0.012l-0.068,-0.003l-0.09,-0.071l-0.077,-0.006l-0.26,0.022l-0.13,0.052l-0.164,0.229l-0.031,0.155l0.049,0.176l-0.006,0.068l-0.161,0.13l-0.238,0.074l-0.51,0.037l-0.173,-0.154l0.024,-0.09l0.013,-0.087l-0.01,-0.068l0.028,-0.089l0.05,-0.044l-0.003,-0.034l-0.112,-0.136l-0.099,-0.077l-0.167,-0.065l-0.365,0.124l-0.198,-0.016l-0.278,-0.136l-0.08,-0.08l0.021,-0.016l-0.003,-0.031l-0.096,-0.083l-0.025,-0.062l0.019,-0.176l-0.04,-0.056l-0.034,0.003l-0.037,-0.015l-0.127,-0.171l-0.078,-0.034l-0.086,0.007l-0.034,0.034l-0.121,-0.007l-0.074,0.013l0.102,0.325l-0.006,0.055l0.015,0.04l-0.003,0.041l-0.145,0.133l-0.019,0.04l0.007,0.049l0.077,0.112l0.009,0.062l-0.018,0.034v0.052l0.027,0.044l0.003,0.061l-0.04,0.053l-0.123,0.043l-0.059,0.044l-0.087,0.111l-0.059,0.037l-0.655,0.192l-0.387,0.068l-0.241,0.012l-0.291,-0.071l-0.059,-0.003l-0.052,-0.015l-0.072,-0.056l-0.176,-0.047l-0.779,-0.136l-0.372,0.121l-0.34,0.179l-0.154,0.007l-0.446,0.485l-0.04,0.511l-0.056,0.006l-0.021,0.021l-0.038,-0.003l-0.043,-0.021h-0.074l-0.065,0.037l-0.05,-0.006l-0.052,-0.022l-0.139,-0.009l-0.192,0.024l-0.025,0.025l0.003,0.04l-0.018,0.025l-0.05,0.009l-0.018,0.028l0.021,0.044l-0.024,0.024l-0.43,0.121l0.015,0.35l-0.142,0.157l-0.22,0.096l-0.025,0.037l0.007,0.071l0.031,0.05l0.009,0.031l-0.028,0.009l-0.049,-0.022l-0.038,-0.034l-0.077,-0.015l-0.498,-0.062l-0.08,0.006l-0.062,0.047l-0.112,0.037l-0.08,0.065l-0.238,0.102l-0.043,0.003l-0.035,0.025l-0.043,0.04l-0.195,0.083l-0.055,0.01l-0.056,-0.016l-0.071,-0.003l-0.028,0.009l-0.053,-0.003l-0.052,-0.04l-0.142,-0.012l-0.13,0.015l-0.338,-0.021l-0.052,0.018l-0.291,0.006l-0.195,0.099l-0.275,0.065v0.028l0.071,0.124l-0.015,0.052l0.009,0.031l0.025,0.016l0.009,0.034l-0.059,0.09v0.034l0.022,0.034v0.077l-0.087,0.043l-0.062,-0.003l-0.034,-0.034h-0.046l-0.059,0.04l-0.083,0.013l-0.068,-0.007l-0.062,-0.071l-0.068,0.01l-0.056,0.089l-0.127,0.078l-0.015,0.031l-0.047,0.003l-0.062,-0.044l-0.126,0.003l-0.115,0.087l-0.059,0.022l-0.089,-0.003l-0.081,0.049l-0.006,0.04l0.043,0.071l0.022,0.161l0.084,0.347v0.086l-0.365,0.232l-0.053,-0.015l-0.031,-0.059l-0.046,-0.018l-0.059,0.021l-0.065,-0.003l-0.102,-0.049l-0.062,0.003l-0.031,-0.025l-0.022,-0.05l-0.133,-0.095l-0.065,-0.004l-0.027,0.019h-0.047l-0.059,-0.022l-0.058,0.003l-0.037,0.035l-0.056,0.021h-0.087l-0.055,0.013l-0.019,0.024l-0.04,0.01l-0.047,0.003l-0.052,0.031l-0.019,0.04l0.006,0.043l-0.015,0.025l0.003,0.025l0.034,0.052l-0.257,0.074l-0.195,-0.037l-0.061,0.003l-0.031,0.019l-0.065,0.006l-0.059,-0.003l-0.04,0.009l-0.214,0.331l-0.164,0.041l-0.04,0.04l-0.185,0.244l-0.273,0.108l-0.139,-0.018l-0.056,0.006l-0.046,0.04h-0.08l-0.14,-0.049l-0.111,0.006l-0.498,0.158l-0.566,0.365v0.037l0.037,0.037l0.043,0.167l0.047,0.062l0.071,0.068l0.015,0.077l-0.024,0.013l-0.031,-0.025l-0.028,0.012l-0.012,0.047l-0.034,0.034l-0.106,0.046l-0.068,0.037l-0.058,0.065l-0.041,0.016l-0.074,-0.007l-0.158,0.037l-0.043,0.034l-0.043,0.013h-0.065l-0.062,0.018l-0.087,0.056h-0.089l-0.081,-0.04h-0.068l-0.204,0.059l-0.071,-0.003l-0.074,-0.01l-0.075,0.003l-0.176,0.041l-0.216,0.009l-0.09,0.037l-0.245,0.037l-0.358,0.167l-0.217,0.05l0.009,0.027l0.078,0.038l0.089,-0.007l0.056,0.034l0.016,0.118l-0.028,0.053l-0.068,0.046l-0.013,0.105l0.115,0.183l0.052,0.006l0.019,0.021l-0.006,0.059l0.049,0.074l-0.034,0.059l-0.111,0.031l-0.034,0.087l0.037,0.043l0.074,0.016l0.167,0.114l0.099,0.015l0.105,-0.021l0.034,-0.044l0.056,0.013l0.053,0.117l0.006,0.05l-0.031,0.043l-0.006,0.071l0.04,0.041l-0.003,0.052l-0.034,0.028l0.003,0.056l0.053,0.071l-0.006,0.031l-0.039,0.007l-0.074,0.007l-0.158,0.099l-0.042,0.086l-0.493,0.178l-0.138,0.017l-0.15,-0.025l-0.103,0.003l-0.156,0.061l-0.052,0.05l-0.11,0.059l-0.151,0.012l-0.052,-0.017l-0.041,0.017l-0.126,0.2l0.002,0.074l-0.064,0.089l-0.071,0.009l-0.072,-0.007l-0.153,0.059l-0.012,0.035l0.044,0.079l-0.014,0.037l-0.168,0.088l-0.123,0.008l-0.015,-0.03l0.042,-0.025l-0.015,-0.029l-0.153,-0.094l-0.098,-0.029l-0.183,-0.188l-0.123,-0.069l-0.037,-0.047l-0.091,-0.022l-0.333,0.128l-0.027,0.055l0.02,0.071l0.064,0.091v0.05l-0.027,0.061l0.019,0.059l0.037,0.035l0.015,0.062l0.037,0.029l0.042,0.008l0.089,0.093l0.015,0.082l-0.035,0.064l-0.096,0.039l-0.049,0.054l-0.02,0.069l-0.079,0.05h-0.17l-0.067,0.034l-0.056,0.084l-0.054,0.034l-0.119,0.013l-0.049,0.019l-0.047,0.055l-0.163,0.047h-0.17l-0.049,-0.021l-0.124,0.052l-0.052,0.139l-0.034,0.016l-0.034,-0.019l-0.053,0.007l-0.093,0.055l-0.08,-0.009l-0.071,-0.118l0.012,-0.065l0.037,-0.055l-0.015,-0.062l-0.186,-0.105l-0.034,-0.112l0.034,-0.071l-0.019,-0.08l-0.052,-0.034l-0.087,-0.003l-0.028,-0.025l-0.006,-0.053l-0.046,-0.031l-0.084,0.004l-0.086,0.068l-0.01,0.049l0.047,0.059v0.167l-0.016,0.133l-0.071,0.043l-0.086,0.028l-0.003,0.028l0.136,0.049l0.071,0.062l-0.006,0.037l-0.09,0.059l-0.087,-0.018l-0.009,0.021l0.071,0.074l-0.025,0.044l-0.077,0.062l-0.065,0.021l-0.077,-0.012l-0.065,-0.084l-0.065,-0.04h-0.127l-0.04,0.034l-0.062,0.003l-0.114,-0.04l-0.05,0.009l-0.04,0.059l-0.152,-0.012l-0.111,-0.056l-0.152,-0.034l-0.071,-0.049l-0.065,-0.099l-0.188,-0.099l-0.028,-0.034l-0.05,-0.013l-0.043,0.022l-0.043,-0.013l-0.031,-0.034l-0.081,-0.009l-0.151,0.059l-0.075,0.074l-0.068,0.016l-0.12,-0.025l-0.102,0.025l-0.09,0.089l-0.056,0.022l-0.331,0.003l-0.105,-0.121l-0.111,-0.055l-0.022,-0.037h-0.031l-0.065,0.074l-0.133,0.04l-0.058,-0.015l-0.035,-0.047l-0.08,-0.034l-0.068,0.003l-0.065,0.065l-0.043,0.09l-0.112,0.031l-0.229,-0.08l-0.142,0.021l-0.028,0.028l-0.043,0.003l-0.056,-0.018l-0.058,0.006l-0.192,0.179l-0.09,0.022l-0.04,0.046l-0.006,0.05l0.024,0.034l0.038,-0.003l0.027,0.031l-0.003,0.077l0.037,0.052l-0.024,0.034l-0.081,0.028l-0.065,0.05l-0.151,0.046l-0.127,0.099l-0.009,0.068l0.08,0.087l0.09,0.021l0.093,0.053l0.04,0.068l0.018,0.108l-0.058,0.041l-0.004,0.037l0.078,0.046l0.006,0.043l-0.046,0.062v0.047l0.04,0.074l-0.009,0.09l-0.124,0.092l-0.118,0.013l-0.049,0.031l-0.102,0.17l-0.09,0.012l-0.087,-0.04l-0.142,0.019l-0.028,0.052l0.006,0.065l-0.04,0.047l-0.192,0.089l-0.021,0.031l-0.006,0.05l-0.062,0.074l-0.053,0.009l-0.012,0.025l0.015,0.071l-0.062,0.114l-0.043,0.007l-0.049,-0.019l-0.149,0.009l-0.043,0.041l-0.118,0.018l-0.04,0.034h-0.053l-0.043,-0.015l-0.096,0.003l-0.092,0.031h-0.059l-0.084,-0.047h-0.238l-0.065,0.056z"/>
</svg>
