<svg xmlns="http://www.w3.org/2000/svg" viewBox="2073.627 613.690 7.579 43.623">
  <path d="M2075.098298,657.214733l0.018559,-0.037118l0.049491,-0.024746l0.06805,-0.064957l0.015466,-0.043305l0.08661,-0.095889l0.015466,-0.030932l0.034025,-0.012373l0.080423,0.00928l0.089703,-0.037118l0.095889,-0.024746l0.021652,-0.034025l0.160846,-0.105169l0.095889,-0.024746l0.117542,0.015466l0.170126,0.049491l0.006186,0.034025l-0.030932,0.043305l-0.00928,0.037118l0.006186,0.055678l-0.015466,0.046398l-0.040212,0.018559l-0.040212,0.034025l-0.037118,0.006186l-0.027839,-0.021652l-0.129914,0.021652l-0.071144,0.06805v0.061864l-0.00928,0.024746l-0.040212,0.021652l-0.049491,0.058771l-0.105169,0.027839l-0.030932,-0.018559l-0.074237,-0.003093l-0.030932,0.027839l-0.064957,0.015466l-0.024746,-0.018559l0.021652,-0.030932v-0.052584l-0.049491,-0.058771l-0.095889,-0.034025l-0.055678,0.021652l-0.030932,0.06805l-0.058771,0.046398l-0.027839,-0.006186l-0.003093,-0.034025Z M2077.818912,652.379094l0.049298,0.012324l0.076412,-0.027114h0.046833l0.081341,-0.056693l0.019719,-0.061622l-0.022184,-0.034509l-0.036973,-0.002465l-0.049298,0.029579l-0.145429,0.051763l-0.029579,0.051763l0.00986,0.036973Z M2078.102375,651.200875l0.039438,0.029579l-0.022184,0.061622l0.00493,0.054228l0.054228,0.029579l0.044368,-0.017254l0.049298,0.007395l0.022184,0.044368l0.00493,0.051763l0.027114,0.056693l0.069017,0.022184l0.036973,0.069017l-0.019719,0.054228l0.00986,0.135569l0.041903,0.034509l0.054228,-0.014789l0.046833,-0.091201l0.002465,-0.034509l0.034509,-0.029579l0.044368,-0.00493l0.012324,-0.019719l-0.032044,-0.054228l0.00986,-0.046833l0.022184,-0.024649l0.00493,-0.022184l-0.014789,-0.022184l0.00493,-0.022184l0.019719,-0.027114l0.029579,-0.12078l0.002465,-0.049298l-0.022184,-0.059157l-0.036973,-0.024649l-0.024649,0.007395l-0.027114,-0.00986l-0.056693,-0.133104l0.007395,-0.041903l0.064087,-0.066552l0.002465,-0.029579l-0.017254,-0.017254l-0.007395,-0.046833l0.014789,-0.069017v-0.051763l-0.069017,-0.093666l-0.022184,-0.00493l-0.022184,0.014789l-0.054228,0.076412l-0.098596,0.078877l-0.012324,0.036973l-0.12078,0.11585l0.007395,0.032044l-0.022184,0.064087l-0.036973,0.017254l-0.051763,0.11092l0.002465,0.044368Z M2078.378443,651.634697l0.024649,-0.00493l0.00493,-0.022184l-0.017254,-0.012324l-0.017254,0.017254l0.00493,0.022184Z M2078.943145,649.645672l0.012373,0.030932l0.024746,-0.00928v-0.030932l-0.024746,-0.012373l-0.012373,0.021652Z M2078.819659,650.493451l0.036877,0.005945l0.052584,0.037118l0.015466,0.040212l0.024746,0.012373l0.07733,-0.015466l0.098982,0.012373l0.043305,0.027839l0.021652,0.061864h0.024746l0.021652,-0.102076l0.030932,-0.08661l-0.021652,-0.030932l-0.040212,-0.003093l-0.034025,-0.040212l-0.012373,-0.06805l0.066697,-0.124888l0.047751,-0.020492l0.049491,0.00928l0.024746,0.052584l0.112177,0.017786l0.014789,-0.032044l0.015321,-0.044513l0.030932,-0.024746l-0.003093,-0.024746l-0.071144,-0.049491l-0.049491,-0.120635l0.030642,-0.058771l-0.019719,-0.041903l0.027114,-0.051763l0.060946,-0.07646l0.040212,-0.012373l0.024552,-0.049201l0.046591,-0.031222l-0.012373,-0.030932l0.021652,-0.08661l0.024746,-0.012373l0.061864,0.012373l0.030932,-0.024746l0.00928,-0.06805l-0.046398,-0.07733l-0.058771,-0.037118l-0.046398,0.003093l-0.133008,0.123728l-0.064957,0.111355l-0.067325,0.04142l-0.088736,0.022184l-0.04809,0.035378l-0.012373,0.040212l-0.111355,0.08661l-0.06805,0.003093l-0.021652,0.024746l0.015466,0.136101l-0.055678,0.204151l-0.052584,0.07733l-0.003093,0.058771l-0.044368,0.102656l-0.002465,0.049298l-0.022184,0.022184l0.007395,0.014789Z M2081.145504,644.532612l0.060317,-0.092796l-0.018559,-0.041758l-0.032479,0.018559l-0.046398,0.125275l0.037118,-0.00928Z M2078.398742,642.26375l0.111355,0.088156l0.394383,-0.00928l0.074237,-0.092796l0.00464,-0.092796l-0.134554,-0.074237h-0.408302l-0.064957,0.051038l0.023199,0.129914Z M2079.414858,639.985608l0.088156,0.00928l0.023199,-0.083516l-0.051038,-0.078877h-0.074237l-0.046398,0.078877l0.060317,0.074237Z M2079.851,635.884025l0.051038,-0.00928l0.027839,-0.069597l-0.018559,-0.083516l-0.074237,-0.013919l-0.051038,0.046398l0.00928,0.097436l0.055678,0.032479Z M2079.648395,633.851793l0.055678,0.083516l0.095889,0.021652l0.07733,-0.058771l0.027839,-0.071144l-0.030932,-0.098982l-0.083516,-0.061864l-0.083516,0.006186l-0.058771,0.102076v0.07733Z M2078.961705,630.749313l0.034025,0.021652l0.126821,-0.040212l0.098982,-0.120635l0.012373,-0.071144l0.098982,-0.151567l0.074237,-0.043305l0.105169,0.003093l0.061864,-0.046398l0.055678,-0.151567l-0.024746,-0.160846l-0.098982,-0.06805l-0.151567,-0.003093l-0.095889,0.07733l0.006186,0.095889l0.040212,0.049491l-0.030932,0.129914v0.098982l-0.114448,0.117542l-0.092796,0.012373l-0.080423,0.095889l-0.012373,0.108262l-0.012373,0.046398Z M2078.581241,626.032183l0.080423,0.071144h0.061864l0.027839,-0.064957l0.07733,-0.018559l0.037118,-0.061864l-0.006186,-0.058771l0.043305,-0.052584l-0.00928,-0.188685l-0.216524,-0.160846l-0.083516,0.006186l-0.098982,0.191778l0.018559,0.191778l0.06805,0.14538Z M2076.941845,619.765359l0.106715,-0.00928l0.051038,-0.060317l-0.013919,-0.111355l-0.102076,-0.041758l-0.074237,0.055678l-0.013919,0.106715l0.046398,0.060317Z M2075.883971,617.439273l0.043305,-0.058771l-0.027839,-0.049491l-0.034025,0.018559l-0.012373,0.08661l0.030932,0.003093Z M2075.794268,617.442366l-0.00928,-0.034025l-0.030932,-0.027839l-0.00928,-0.043305l-0.021652,-0.00928l-0.003093,0.092796l0.037118,0.030932l0.037118,-0.00928Z M2075.806641,617.321731l0.046398,-0.012373l-0.012373,-0.024746l-0.046398,-0.00928l-0.027839,0.024746l0.040212,0.021652Z M2073.647587,613.814043l0.061864,0.003093l0.040212,-0.052584l-0.00928,-0.046398l-0.071144,-0.027839l-0.040212,0.030932l-0.003093,0.074237l0.021652,0.018559Z "/>
</svg>
