<svg xmlns="http://www.w3.org/2000/svg" viewBox="713.062 652.118 2.746 3.280">
  <path d="M715.229507,653.365447l0.033923,-0.018504l0.083267,0.018504l0.006168,0.027756l-0.070931,0.009252l-0.052427,-0.037007Z M715.503978,653.948314h0.040091l0.003084,-0.030839l-0.030839,-0.012336l-0.061679,0.046259l-0.006168,0.024672l0.055511,-0.027756Z M714.282735,655.089375l0.033923,0.003084l0.018504,-0.021588l-0.021588,-0.018504l-0.027756,0.012336l-0.003084,0.024672Z M714.4431,654.373898l0.027756,-0.012336l-0.018504,-0.021588l-0.037007,0.006168v0.021588l0.027756,0.006168Z M714.79467,652.862764l0.024672,-0.006168v-0.027756l-0.024672,-0.012336l-0.012336,0.021588l0.012336,0.024672Z M713.92808,654.580523l-0.030839,0.037007l0.021588,0.030839l0.037007,-0.012336l0.037007,0.003084l0.018504,0.043175l-0.030839,0.01542l-0.006168,0.043175l0.058595,0.006168l0.012336,0.055511l-0.027756,0.055511l0.024672,0.040091l0.043175,-0.003084l0.033923,0.021588l0.012336,0.061679l0.061679,0.018504l0.055511,-0.024672l0.009252,-0.058595l0.030839,-0.046259l0.095602,-0.040091h0.061679l0.040091,0.046259h0.024672l0.018504,-0.027756h0.024672l0.018143,0.045739l0.055872,0.003605l0.037007,-0.092518l0.021588,-0.012336l0.027756,0.049343v0.052427h0.033923l0.01542,-0.049343l0.030839,0.003084l0.049343,0.064763l0.154197,0.027756l0.083267,-0.040091l0.052427,0.003084l-0.003084,0.033923l0.070931,0.074015h0.061679l0.083267,-0.111022l0.064763,-0.018504l0.046259,0.033923l-0.01542,0.049343l-0.064763,0.074015l-0.040091,-0.021588l-0.021588,0.018504l0.027756,0.074015l-0.064763,0.120274l0.024672,0.030839l0.003084,0.049343l0.114106,0.089435l0.080183,-0.01542l0.01542,-0.052427l0.046259,-0.046259l0.061679,0.009252v-0.033923l-0.037007,-0.01542l-0.037007,-0.052427l0.024672,-0.012336l0.043175,0.030839l0.033923,-0.012336v-0.043175l0.043175,-0.037007l0.033923,-0.11719l0.040091,-0.033923l0.012336,-0.037007l-0.058595,-0.046259l0.006168,-0.027756l0.055511,0.009252l0.021588,-0.043175l-0.018504,-0.058595l-0.040091,-0.018504l-0.021588,-0.030839l0.009252,-0.083267l-0.024672,-0.040091l-0.046259,0.033923l-0.027756,-0.009252l0.009252,-0.067847l0.049343,-0.052427l-0.006168,-0.098686l-0.058595,-0.040091l0.037007,-0.064763l0.037007,-0.067847l-0.033923,-0.009252l-0.055511,0.058595l-0.040091,-0.003084l-0.027756,-0.064763l0.024672,-0.055511l-0.009252,-0.058595l-0.046259,-0.027756l-0.077099,0.006168l-0.027756,-0.037007l0.01542,-0.027756l-0.012336,-0.033923l-0.052427,-0.033923l0.043175,-0.049343l-0.033923,-0.024672l-0.104854,0.012336l-0.030839,-0.027756l0.043175,-0.064763l-0.033923,-0.061679l-0.061679,-0.021588l0.01542,-0.030839l0.064763,0.006168l0.074015,-0.049343v-0.067847l-0.043175,-0.003084l-0.01542,0.033923l-0.027756,0.006168l-0.040091,-0.027756l-0.083267,0.009252l-0.055511,0.052427l-0.052427,-0.003084l-0.086351,-0.098686l0.01542,-0.046259l0.046259,-0.01542l0.033923,0.024672l0.033923,-0.012336l-0.030839,-0.030839l0.012336,-0.030839l0.098686,-0.021588l0.058595,-0.037007l-0.009252,-0.027756h-0.043175l-0.024672,-0.027756l0.009252,-0.080183l-0.030839,-0.003084l-0.033923,0.046259l-0.064763,0.021588l-0.009252,-0.024672l0.043175,-0.027756l0.006168,-0.040091l-0.027756,-0.006168l-0.012336,0.030839h-0.037007l-0.040091,-0.043175v-0.046259l0.055511,-0.009252v-0.021588l-0.043175,-0.018504l0.003084,-0.037007l0.043175,-0.046259l0.058595,-0.006168l0.080183,0.033923l0.018504,0.049343l0.058595,0.033923l0.064763,-0.012336l0.003084,-0.033923l-0.046259,-0.021588l0.01542,-0.030839l0.040091,0.003084l0.01542,-0.037007l-0.043175,-0.030839l-0.009252,-0.027756l0.030839,-0.033923l0.046259,0.006168l0.024672,0.046259l0.043175,0.009252l0.024672,-0.01542l-0.027756,-0.037007l0.009252,-0.043175l-0.070931,-0.058595l-0.030839,-0.006168l-0.027756,0.049343l-0.083267,0.052427l-0.098686,0.040091l-0.049343,-0.021588l-0.092518,0.027756l-0.058595,0.061679l-0.009252,0.080183l-0.030839,0.012336l-0.027756,-0.030839l-0.024672,-0.098686l-0.021588,-0.037007l-0.178869,-0.175785l-0.052427,-0.083267l0.012336,-0.055511l-0.037007,-0.018504l-0.030839,0.027756l-0.046259,-0.033923v-0.052427l-0.070931,-0.074015l-0.083267,-0.040091l-0.058595,0.012336l-0.049343,-0.012336l-0.030839,-0.040091l-0.107938,-0.070931l-0.052427,-0.012336l-0.055511,-0.058595l-0.138778,-0.064763l-0.181953,-0.043175l-0.175785,0.01542l-0.144946,0.067847l-0.064763,0.01542l-0.040091,0.030839l-0.030839,0.077099l-0.083267,0.163449l0.004915,0.131983l0.032092,0.04997l0.053921,0.092567l0.054065,0.017203l0.027707,0.025924l0.021588,0.064763l0.129526,0.11719l0.018504,0.074015l-0.052427,0.178869l0.018504,0.104854l0.194289,0.323815l0.070931,0.046259l0.040091,0.070931l0.111022,0.027756l0.095602,0.074015l0.067847,0.114106l0.058595,0.018504l0.080183,-0.018504l0.092518,0.052427h0.095602l0.055511,-0.080183l0.089435,-0.067847l0.074015,0.01542l0.021588,0.067847l-0.049343,0.061679l-0.012336,0.052427l0.086351,0.11719l0.074015,0.021588l0.074015,0.063221l-0.004626,0.060137l-0.050885,0.074015l-0.157281,0.009252l-0.152655,-0.037007l-0.032381,-0.050885l0.004626,-0.055511l-0.074015,-0.013878l-0.103312,0.104854l-0.083267,0.003084l-0.098686,0.123358l-0.012336,0.052427Z "/>
</svg>
