<svg xmlns="http://www.w3.org/2000/svg" viewBox="1004.498 566.185 80.813 86.915">
  <path d="M1008.350787,612.863947l0.036973,0.027114l0.001933,0.047606l-0.030932,0.092796l-0.021652,-0.003093l-0.028225,-0.092941l0.00493,-0.061622l0.036973,-0.00986Z M1008.417532,613.015997l-0.003093,0.08661l0.018559,0.024746l0.024746,-0.012373l0.006186,-0.055678l-0.015466,-0.046398l-0.030932,0.003093Z M1008.507235,613.210869l0.074237,0.114448l0.06805,0.024746l0.030932,-0.015466v-0.253642l-0.037118,-0.064957l-0.064957,-0.012373l-0.062444,0.055049l-0.0087,0.152195Z M1009.039265,618.265157l0.058771,-0.006186l0.018559,-0.037118l-0.012373,-0.027839h-0.055678l-0.034025,0.046398l0.024746,0.024746Z M1008.222661,619.697309l0.055678,0.003093l0.030932,-0.024746l-0.003093,-0.037118l-0.034025,-0.012373l-0.052584,0.018559l-0.012373,0.027839l0.015466,0.024746Z M1008.324736,619.490065l0.034025,0.00928l0.061864,-0.034025l0.055678,-0.281481l-0.021652,-0.074237l-0.034025,-0.00928l-0.07733,0.064957l-0.040212,0.259829l0.021652,0.064957Z M1009.265069,619.375616h0.037118l0.027839,-0.034025l0.064957,-0.176312l-0.006186,-0.133008l-0.030932,-0.006186l-0.034025,0.052584v0.105169l-0.024746,0.071144l-0.055678,0.083516l0.021652,0.037118Z M1009.011427,620.080866l0.015466,0.006186l0.046398,-0.064957l0.027839,-0.117542l0.037118,-0.06805l0.07733,-0.080423l0.102076,-0.207244l0.207244,-0.23199l0.052584,-0.08661l0.049491,-0.043305l0.061864,-0.043305v-0.037118l-0.043305,-0.015466l-0.049491,0.015466l-0.117542,0.089703l-0.055678,0.117542l-0.102076,0.102076l-0.098982,0.197965l-0.021652,0.080423l-0.046398,0.06805l-0.052584,0.021652l-0.071144,0.102076l-0.021652,0.06805l0.021652,0.071144l-0.018559,0.055678Z M1008.763971,620.009722l0.030932,0.003093l0.055678,-0.061864l0.058771,-0.148474l0.058771,-0.074237l0.092796,-0.259829l0.111355,-0.179406l0.07733,-0.408302l-0.037118,-0.07733l0.003093,-0.040212l0.046398,-0.034025l0.043305,-0.092796l0.040212,-0.361904l-0.030932,-0.018559l-0.08661,0.027839l-0.046398,0.080423l-0.012373,0.061864l-0.071144,0.074237l-0.058771,0.003093l-0.046398,-0.021652l-0.052584,0.00928l-0.046398,0.06805l-0.037118,0.262922l-0.098982,0.358811l-0.098982,0.191778v0.06805l0.021652,0.049491l-0.003093,0.07733l-0.021652,0.040212l-0.003093,0.064957l0.043305,0.083516v0.095889l0.06805,0.157753Z  M1008.117492,644.226386l0.027,-0.004l0.029,-0.051l0.032,-0.003l0.04,0.042l0.002,0.047l0.033,0.002l0.093,-0.135l0.079,-0.028l0.074,-0.106v-0.074l-0.057,-0.02l-0.009,-0.069l0.033,-0.061l-0.01,-0.329l0.121,-0.209l0.107,-0.028l0.102,0.023l0.106,-0.013l0.093,-0.112l0.056,-0.153l0.074,-0.088l0.005,-0.093l-0.074,-0.102l0.004,-0.139l0.074,-0.107l0.084,-0.018l0.06,-0.084l-0.009,-0.292l0.032,-0.075l0.079,-0.013l0.051,-0.051l0.014,-0.283l0.042,-0.107l0.107,-0.061l0.018,-0.213l0.079,-0.083l0.125,-0.028l0.112,0.004l0.107,0.061l0.199,-0.01l0.246,-0.222l0.181,-0.037l0.107,0.018l0.055,0.088l-0.004,0.13l0.181,0.107l0.092,0.172l0.079,0.018l0.079,-0.009l0.172,-0.153h0.13l0.125,0.102l0.125,-0.005l0.214,-0.176l0.204,-0.033l0.172,0.051l0.009,0.112l0.051,0.009l0.144,-0.107l0.153,0.005l0.172,0.079l0.329,0.032l0.186,0.126h0.055l0.051,-0.042l0.228,-0.023l0.139,-0.075l0.037,-0.074l-0.014,-0.097l0.056,-0.051l0.157,-0.014l0.177,0.093l0.157,0.009l0.228,-0.088l0.018,-0.061l-0.069,-0.092l0.028,-0.102l0.283,-0.186l0.134,0.005l0.116,0.102l0.037,0.185l0.167,0.07l0.121,-0.023l0.153,-0.112l0.19,-0.018l0.163,-0.098h0.116l0.093,0.033l0.139,0.004l0.093,0.093h0.106l0.279,-0.139l0.069,-0.079l0.065,-0.014l0.204,0.056l0.153,-0.005l0.144,-0.13l0.028,-0.111l-0.079,-0.084l-0.12,-0.018l-0.038,-0.088l0.042,-0.107l0.098,-0.102l0.106,-0.009l0.084,0.079l0.023,0.134l0.098,0.098l0.129,0.013l0.191,-0.097l0.032,-0.204l0.056,-0.107l0.079,-0.004l0.171,0.078l0.047,0.079l-0.047,0.102l0.047,0.093l0.083,0.023l0.093,-0.069l0.065,0.009l0.056,0.074l0.051,-0.018l0.055,-0.144l0.093,0.004l0.065,0.098l0.177,0.032l0.069,-0.014l0.023,-0.092l0.065,-0.005l0.121,0.135h0.051l0.074,-0.149h0.065l0.056,0.047l0.023,0.125l0.065,0.055l0.046,-0.013l0.047,-0.13l0.046,-0.019l0.088,0.037l0.348,-0.079l0.107,0.024v0.06l-0.07,0.028l-0.004,0.041l0.042,0.056l0.06,0.005l0.046,-0.051l0.084,-0.01l0.06,0.07h0.046l0.033,-0.032h0.139l0.07,0.041l0.055,-0.009l0.033,-0.144l0.046,-0.023l0.098,0.116l0.176,0.07l0.125,-0.051h0.172l0.093,-0.042l0.037,-0.098l0.102,-0.055l0.07,0.018v0.098l0.065,0.023l0.051,-0.033l0.222,-0.009l0.153,-0.018l0.065,0.046l0.014,0.255l-0.065,0.06v0.084l0.07,0.065l0.134,-0.009l0.093,-0.121h0.098l0.041,0.084l-0.051,0.167l0.112,0.213l0.032,-0.014l-0.018,-0.083l0.055,-0.089h0.177l0.144,0.065l0.009,0.056l-0.037,0.046l0.041,0.079l0.186,0.079l0.116,0.139l0.097,-0.009l0.038,0.023l-0.047,0.051l0.014,0.079l0.121,0.037l0.06,0.056l0.019,0.074l0.199,0.121l0.227,0.25l0.061,0.14l0.069,0.046l0.172,0.005l0.186,0.097l0.065,0.093l0.014,0.074l-0.056,0.023l-0.084,-0.032l-0.065,0.042l0.024,0.167l0.194,0.041l0.019,0.061l-0.13,0.125l-0.018,0.107l0.041,0.037l0.177,-0.056l0.12,0.033l0.028,0.13l0.07,0.106h0.069l0.051,-0.037l0.084,0.005l0.06,0.065v0.079l-0.056,0.069v0.116l0.121,0.153l0.051,0.121h0.051l0.139,-0.144l0.163,-0.088h0.167l0.148,-0.042l0.223,-0.218l0.07,0.005l0.037,0.088l-0.023,0.074l-0.084,0.065l-0.019,0.079l0.079,0.125l0.144,0.135l0.07,0.004l0.116,-0.074h0.148l0.413,-0.176l0.102,0.005l0.121,0.032l0.162,-0.009l0.144,-0.116l0.084,0.009l0.055,0.084l-0.046,0.051h-0.088l-0.121,0.074l-0.018,0.12l0.078,0.103l0.089,-0.005l0.129,-0.162l0.07,0.009l0.102,0.148l0.385,0.17l0.037,0.093l-0.018,0.142l0.074,0.155l0.012,0.186l0.124,0.21l0.211,0.099v0.074l-0.081,0.068v0.087l0.155,0.161l0.037,0.297l0.223,0.21l-0.044,0.043l-0.068,-0.024l-0.086,0.018v0.112l0.532,0.445l0.018,0.08l-0.055,0.106l-0.062,0.006l-0.087,-0.037l-0.074,0.024l-0.013,0.112l0.174,0.272l0.074,0.019l0.105,-0.087h0.136l0.6,0.315l0.019,0.167l-0.087,0.18l-0.031,0.111l0.05,0.074l0.241,0.093l0.26,-0.007l0.133,-0.104l0.202,-0.024l0.074,0.012l0.004,0.021l-0.037,0.019l0.032,0.111l-0.006,0.199l0.064,0.022l0.136,-0.02l0.039,0.03l-0.012,0.052l-0.143,0.113l0.007,0.358l0.072,0.091l0.143,0.074l0.192,0.002l0.202,0.119l0.074,0.078l0.069,0.136l-0.01,0.081l-0.086,0.133l-0.045,0.01l-0.093,-0.032l-0.067,-0.069l-0.081,-0.002l-0.049,0.042l-0.008,0.066l0.052,0.064l0.17,0.094l0.095,0.178h0.074l0.083,-0.088l0.093,-0.014l0.13,0.046l0.042,0.112l-0.046,0.162l0.009,0.079l0.055,0.046l0.177,0.061l0.222,0.199l0.149,0.07l0.06,0.074l0.033,-0.014l0.004,-0.07l0.038,-0.051l0.111,-0.018l0.38,0.171l0.14,0.158l0.213,0.177l0.38,0.102l0.154,0.12l0.078,0.107l0.099,0.453l-0.037,0.107l0.01,0.042l0.12,0.078l0.135,0.149l0.273,0.158l0.293,0.046l0.287,0.302l0.297,0.116l0.14,0.037l0.12,-0.023l0.204,0.013l0.135,-0.111h0.107l0.074,0.056l0.056,0.125l0.338,0.181h0.056l0.07,-0.088l-0.01,-0.181l0.047,-0.037l0.148,0.028l0.249,-0.013l0.241,-0.088l0.047,-0.097l-0.028,-0.061l0.032,-0.111l0.07,-0.042l0.074,0.019l0.13,-0.019l0.158,-0.167l0.172,-0.055l0.018,-0.084l0.107,-0.125h0.093l0.055,-0.037l0.005,-0.065l-0.111,-0.135v-0.102l0.074,-0.148l0.042,-0.246l0.041,-0.112v-0.083l-0.088,-0.084l-0.083,-0.014l-0.093,0.07l-0.056,-0.033l-0.004,-0.088l0.065,-0.074l-0.014,-0.102l-0.065,-0.023l-0.014,-0.07l0.213,-0.213l0.019,-0.07l-0.037,-0.065l-0.088,-0.032l-0.052,-0.116l0.024,-0.107l0.106,-0.093l0.065,-0.102l0.037,-0.204l-0.018,-0.135l0.028,-0.083l0.069,-0.116l-0.009,-0.074l0.023,-0.084l0.126,-0.116l0.032,-0.051l0.009,-0.111l0.07,-0.163l0.037,-0.246l-0.028,-0.055l0.023,-0.125l0.112,-0.14l0.102,-0.046l0.042,-0.056l-0.042,-0.25l0.032,-0.051l0.218,-0.01l0.065,0.019l-0.004,0.032l0.037,0.014l0.06,-0.018l0.065,0.037l0.158,-0.019l0.236,-0.139l0.084,-0.083l0.051,-0.116l0.176,-0.107l0.158,-0.005l0.107,-0.102l-0.028,-0.111l-0.084,-0.033v-0.032l0.334,0.009l0.07,-0.037h0.125l0.149,0.06l0.065,0.154l0.269,0.343l0.005,0.158l0.078,0.046l0.102,0.13l0.07,0.028l0.135,0.218l0.232,0.199l0.097,0.135l0.306,0.148l0.116,0.13l0.293,0.167l0.542,0.441l0.158,0.186l0.306,0.185l0.135,0.302l0.107,0.148l0.195,0.102l0.009,0.079l0.162,0.177l0.051,-0.098l0.084,-0.069l0.028,-0.353l0.046,-0.093l0.084,-0.065l0.134,-0.037l0.079,-0.209l-0.056,-0.139l0.042,-0.093l0.079,-0.041l0.051,-0.089l0.06,-0.041l0.088,0.014l0.047,-0.038l0.028,-0.102l0.13,-0.065l0.055,0.014l0.042,-0.004l0.111,-0.186l0.024,-0.07l-0.061,-0.375l0.047,-0.07l0.069,-0.009l0.065,0.037l0.107,0.009l0.232,0.088l0.093,0.019l0.311,-0.056l0.051,0.033l0.041,-0.005l0.065,-0.07l0.214,-0.078l0.125,-0.014l0.213,0.065h0.103l0.143,-0.047l0.056,0.014l0.028,0.06l0.079,0.019l0.079,-0.046l0.083,-0.005l0.116,0.028l0.149,-0.009l0.106,0.018l0.061,-0.005l0.032,-0.041l0.102,-0.005l0.163,0.06l0.069,0.056l0.232,0.033l0.19,0.046l0.103,0.083l0.074,0.019l0.06,-0.019l0.13,0.056l0.028,0.06l0.134,0.061l0.232,0.023l0.163,0.046h0.204l0.158,-0.055l0.185,-0.019l0.074,-0.065l0.284,-0.037l0.078,-0.065l0.46,0.046l0.325,0.005l0.111,-0.134l0.185,-0.033l0.107,0.046l0.135,0.01l0.167,-0.047l0.055,-0.074l1.893,-0.074l-0.306,-1.095l0.761,-0.65l0.149,0.056l-0.158,0.854v0.427h25.352l1.104,-5.503l-1.828,-1.095l-6.409,-58.728h11.51l-6.018,-3.913l-19.33,-12.551v9.37h-22.011v17.912l-0.233,0.037l-0.538,0.195l-0.232,0.019l-1.475,0.723l-1.448,0.297l-2.803,1.794l-0.641,0.566l-0.025,0.493l-0.271,0.715l0.468,1.652l0.345,3.993l0.173,4.19h-25.906l-0.366,1.092l-0.025,0.278l-0.285,0.644l0.013,0.334l-0.118,0.464l-0.087,0.167l0.033,0.229l-0.005,0.125l-0.014,0.102l0.098,0.371l0.046,0.035l0.02,-0.013l-0.003,-0.261l0.052,-0.116l0.01,-0.197l-0.042,-0.057l-0.084,-0.052l-0.03,-0.064l0.023,-0.098l0.116,-0.148l0.14,-0.047l0.02,-0.057l0.002,-0.157l0.025,-0.069l0.01,-0.212l0.029,-0.121l-0.027,-0.03h-0.052l-0.074,-0.074l0.008,-0.076l0.037,-0.015l0.089,0.039l0.014,0.05l0.042,0.012l0.064,-0.047l0.111,-0.175l0.015,-0.194l0.044,-0.079l0.06,-0.025l0.101,-0.195l0.022,-0.14l0.059,-0.072l-0.015,-0.029l-0.093,-0.005l-0.015,-0.027l0.039,-0.074l0.003,-0.195l0.069,-0.205l0.032,-0.135l0.059,-0.094l0.029,-0.002l0.03,0.029v0.057l-0.02,0.032l-0.002,0.039l0.029,0.065l0.003,0.071l-0.012,0.039l-0.005,0.252l-0.03,0.158l0.005,0.12l0.089,0.102l0.079,0.184v0.166l0.029,0.029l0.106,0.01l0.035,0.03l0.005,0.086l-0.02,0.052l0.01,0.12l0.226,0.3l0.072,0.149l0.058,0.235l0.084,0.086l0.028,-0.006l0.012,-0.059h0.043l0.053,0.096l0.087,0.266l0.006,0.211l0.062,0.108l0.083,0.049l0.102,0.18l0.022,0.105l0.151,0.176l0.237,0.13v0.047l-0.102,0.315l0.032,0.047l0.075,0.018l0.162,0.125l0.158,0.218l0.519,0.446l0.042,-0.009l0.042,-0.103l-0.046,-0.232l0.032,-0.18l-0.005,-0.195l-0.037,-0.177l0.037,-0.301l0.047,-0.005l0.111,0.056l0.098,0.004l0.032,0.042l-0.009,0.237l0.12,0.209l0.121,0.051l0.046,0.079l0.038,0.004l0.023,-0.046l0.042,0.018l0.018,0.223l0.107,0.227l0.125,0.154l0.093,0.218l0.138,0.518l0.024,0.173l0.359,0.581l0.111,0.099l0.112,0.217l0.086,0.043l0.093,-0.006l0.099,0.068l0.18,0.433l-0.025,0.161l-0.204,0.303l-0.161,0.124v0.086l0.062,0.143l-0.006,0.185l0.055,0.096l-0.028,0.042l-0.088,-0.009l-0.023,0.046l0.07,0.074l0.069,0.028l0.056,0.204l-0.056,0.186l-0.176,0.186l-0.209,0.143l-0.121,0.214l-0.004,0.116l0.065,0.032l0.051,-0.023l0.051,-0.148l0.116,-0.051l0.116,0.055l0.018,0.102l-0.069,0.177l0.023,0.032l0.079,-0.051l0.037,0.019l-0.005,0.083l-0.037,0.084l-0.004,0.116l0.037,0.051l-0.01,0.125l-0.185,0.227l-0.019,0.084l0.019,0.079l-0.019,0.12l-0.088,0.144l-0.065,0.033l-0.069,-0.019l-0.084,0.033l-0.125,0.157l-0.019,0.153l-0.032,0.07l-0.112,0.097l-0.241,0.478l-0.102,0.065l-0.051,0.088l-0.019,0.103l-0.236,0.394l-0.047,0.13l0.047,0.111l0.088,0.042l0.084,-0.005l0.129,-0.134l0.047,-0.098l-0.005,-0.167l0.07,-0.19l0.19,-0.264l0.088,-0.028l0.014,0.032l-0.083,0.088l-0.093,0.209l-0.074,0.088l-0.01,0.061h0.037l0.042,-0.075l0.107,-0.106l0.056,-0.116l0.264,-0.2l0.107,-0.014l0.079,-0.055l0.041,0.004l0.014,0.061l-0.028,0.088l-0.097,0.079l-0.074,0.13l-0.023,0.097l-0.228,0.302l-0.301,0.232l-0.302,0.162l-0.148,0.014l-0.181,-0.088l-0.228,-0.024l-0.079,0.047l-0.004,0.046l0.088,0.065l0.162,0.223l0.172,0.39l0.005,0.111l0.236,0.241l0.172,0.051l0.385,0.246l0.153,0.144l0.51,0.701l0.454,0.985l0.108,0.504l0.028,0.399l0.018,0.158l0.102,0.148l0.028,0.214l-0.009,0.25l0.083,0.26l0.26,0.464l0.195,0.594l0.065,0.455l0.047,0.826l0.055,0.204l0.019,0.529l0.046,0.195v0.361l0.037,0.285l-0.006,0.365l-0.056,0.204l0.019,0.068l0.062,0.031l-0.006,0.198l-0.068,0.229l-0.158,0.681l-0.112,0.77l-0.361,1.689l-0.26,0.807l-0.696,1.68l-0.464,1.076l-0.427,1.225l-0.343,0.789l-0.13,0.556l-0.019,0.502l-0.139,0.519l-0.204,0.548l-0.074,0.399l0.055,0.362l-0.001,0.758l0.01,0.262z"/>
</svg>
