<svg xmlns="http://www.w3.org/2000/svg" viewBox="706.426 638.973 0.635 1.021">
  <path d="M706.469776,639.619048l0.017203,-0.068811l-0.017203,-0.04915l0.012288,-0.031948l0.058981,-0.071268l0.046693,-0.147451l0.071268,-0.122876l-0.004915,-0.022118l0.00983,-0.031948v-0.086013l0.044235,-0.014745l0.120419,0.054065l0.022118,0.036863l-0.002458,0.022118l-0.022118,0.012288v0.031948l0.041778,0.115504l0.027033,0.022118l0.02949,0.088471l0.076183,0.034405l0.031948,0.034405l0.00983,0.036863l-0.004915,0.088471l0.00983,0.154824l-0.01966,0.041778l0.012288,0.03932l0.022118,0.027033v0.044235l-0.095843,0.117961l-0.041778,0.012288l-0.076183,-0.002458l-0.02949,0.00983l-0.044235,-0.002458l-0.051608,-0.02949l-0.00983,-0.022118l-0.041778,-0.031948l-0.031948,-0.004915l-0.01966,-0.024575l-0.024575,-0.041778l-0.076183,-0.117961l-0.046693,-0.034405l-0.041778,-0.012288l-0.002458,-0.012288l0.034405,-0.01966l0.007373,-0.022118Z "/>
</svg>
