<svg xmlns="http://www.w3.org/2000/svg" viewBox="1534.939 882.495 1.356 0.780">
  <path d="M1535.681677,883.179178l0.022118,-0.002458l0.081098,0.051608l-0.024575,0.007373l-0.04915,-0.022118l-0.02949,-0.034405Z M1535.829129,883.252904l0.03932,0.022118l0.017203,-0.01966l-0.044235,-0.03932l-0.01966,0.012288l0.007373,0.024575Z M1535.349912,883.243074l0.041778,-0.014745v-0.031948l-0.031948,-0.007373l-0.01966,0.007373l-0.007373,0.034405l0.017203,0.012288Z M1534.964081,882.911308l0.007373,-0.076183l-0.017203,-0.007373l-0.014745,0.044235l0.007373,0.046693l0.017203,-0.007373Z M1534.998486,882.754027l0.012288,-0.034405l-0.002458,-0.031948l-0.017203,0.00983l-0.004915,0.051608l0.012288,0.004915Z M1535.222121,883.120197l0.012288,-0.024575l0.01966,-0.002458v0.022118l-0.014745,0.017203l-0.017203,-0.012288Z M1535.234408,883.063674l0.00983,-0.02949l0.027033,-0.014745l0.034405,-0.002458l0.03932,-0.041778l0.024575,0.00983l-0.014745,0.046693l-0.036863,0.024575l-0.007373,0.04915l0.036863,0.051608l0.132706,0.061438l0.024575,-0.007373l-0.02949,-0.027033l0.017203,-0.024575l0.056523,-0.004915l0.03932,0.007373l0.027033,-0.017203l-0.024575,-0.068811l0.007373,-0.024575l0.142536,-0.024575l0.046693,0.004915l0.120419,-0.022118l0.022118,0.01966l0.027033,-0.002458l0.034405,-0.041778l0.02949,-0.004915l0.036863,0.024575l0.031948,-0.004915l0.083556,-0.086013l0.03932,-0.012288l0.076183,-0.061438l0.007373,-0.066353l-0.02949,-0.041778l-0.004915,-0.031948l0.024575,-0.058981l-0.012288,-0.034405l-0.098301,-0.046693l-0.068811,-0.00983l-0.095843,-0.056523l-0.031948,0.004915l-0.022118,0.024575l-0.022118,0.002458l-0.004915,-0.027033l-0.044235,0.004915l-0.063896,0.02949l-0.031948,0.031948l-0.090928,0.034405l-0.007373,0.041778l-0.027033,0.00983l-0.007373,-0.031948l-0.03932,-0.012288l-0.066353,0.03932l-0.007373,0.046693l-0.044235,0.014745l-0.014636,0.034421l-0.005025,0.036847l-0.022118,0.014745l-0.03932,-0.017203l-0.130249,0.04915l-0.034405,-0.007373l-0.056523,0.027033l-0.017203,0.041778l0.01966,0.034405v0.04915l-0.031948,0.012288l-0.007373,0.03932l0.024575,0.034405l0.04915,0.007373Z "/>
</svg>
