<svg xmlns="http://www.w3.org/2000/svg" viewBox="1495.469 883.449 3.315 4.935">
  <path d="M1497.488842,884.331109l0.006251,-0.037007l0.059387,-0.003084l0.018754,0.037007l-0.028131,0.018504l-0.056261,-0.01542Z M1498.038951,885.01112l0.051573,0.004626l0.032819,0.021588l0.015628,-0.030839l-0.053136,-0.046259l-0.043759,-0.006168l-0.040633,0.029298l0.004688,0.050885l0.032819,-0.02313Z M1497.742017,883.93328l0.071889,-0.012336l0.015628,-0.040091l-0.037507,-0.067847l-0.040633,-0.006168l-0.034382,0.037007l-0.006251,0.058595l0.031256,0.030839Z M1497.867042,883.957952l0.031256,-0.003084l-0.009377,-0.040091l-0.021879,-0.009252l-0.021879,0.024672l0.021879,0.027756Z M1498.73909,883.489191h0.031256l0.009377,-0.033923l-0.028131,-0.006168l-0.025005,0.018504l0.012502,0.021588Z M1498.607814,883.748243h0.040633l0.040633,-0.040091v-0.067847l-0.05001,-0.009252l-0.040633,0.018504l-0.015628,0.074015l0.025005,0.024672Z M1498.738309,886.670188l0.042342,-0.022118l-0.019926,-0.036863l0.002491,-0.046693l0.022417,-0.03932l-0.027398,-0.01966l-0.032379,0.024575l-0.009963,0.120419l0.022417,0.01966Z M1498.26507,887.670399l0.027398,-0.004915l0.002491,-0.022118l-0.024907,-0.014745l-0.022417,0.017203l0.017435,0.024575Z M1495.663479,888.02568l0.012502,-0.021588l-0.018754,-0.024672l-0.021879,0.012336l0.003126,0.024672l0.025005,0.009252Z M1495.685358,887.717285l0.040633,-0.055511l0.031256,-0.055511l-0.040633,-0.012336l-0.040633,0.046259v0.061679l0.009377,0.01542Z M1495.815071,888.125908l0.051573,-0.009252l0.046884,0.02313l0.028131,0.046259l0.248487,0.111022l0.117211,-0.018504l0.079703,-0.046259l0.098457,0.032381l0.051573,0.050885l0.08908,0.032381l0.079703,-0.018504h0.051573l0.046884,0.037007l0.15003,0.018504l0.131276,-0.050885l0.196914,-0.037007l0.131276,-0.083267l0.257864,-0.060137l0.234422,-0.10177l0.023442,-0.055511l0.164095,-0.138778l0.121899,-0.064763l0.028131,-0.083267l-0.112522,-0.10177l-0.070326,-0.14803l0.018754,-0.143404l0.042196,-0.013878l0.042196,0.050885l0.117211,-0.027756l0.075015,-0.138778h0.070326l0.051573,-0.02313l0.032819,-0.074015l0.046884,0.004626l0.014398,-0.023897l-0.042528,-0.031614l-0.018754,-0.037007l0.014065,-0.041633l0.046884,-0.032381l0.018754,-0.087893l-0.046884,-0.041633l0.023442,-0.037007l0.065638,0.009252l0.037507,-0.027756l-0.014065,-0.069389l0.042196,-0.189663l-0.056261,-0.046259l0.014065,-0.046259l0.075015,-0.013878l0.028131,-0.060137l-0.187537,-0.231296l-0.037507,-0.166533l-0.06095,-0.060137l-0.098457,0.009252l-0.032819,-0.074015l0.08908,-0.180411l-0.075015,-0.134152l-0.201603,-0.060137l-0.06095,-0.10177l-0.084392,-0.069389l-0.065638,-0.138778l0.004688,-0.2498l-0.023442,-0.069389l-0.154718,-0.064763l-0.065638,0.009252l-0.065638,-0.041633l-0.032819,-0.060137l-0.168784,-0.027756l-0.154718,0.106396l-0.037507,0.106396l-0.046884,-0.009252l-0.004688,-0.060137l-0.093769,-0.02313l-0.02271,0.015179l0.027398,0.071268v0.04915l-0.046884,0.040188l-0.06095,0.106396l-0.093769,0.050885l-0.08908,0.185037l-0.023442,0.115648l0.06095,0.087893l-0.018754,0.032381l-0.079703,0.013878l-0.042196,0.097144l0.023442,0.074015l-0.023442,0.037007l-0.056261,0.009252l-0.070326,0.078641v0.10177l-0.032819,0.018504l-0.051573,-0.041633l-0.192226,0.064763l-0.131276,0.097144l-0.075015,0.078641v0.046259l-0.023442,0.069389l-0.042196,0.009252l-0.070326,0.152655l-0.014065,0.087893l-0.098457,0.166533l-0.023442,0.134152l0.018754,0.115648l0.065638,0.060137v0.046259l-0.065638,0.050885l-0.028131,0.138778l0.056261,0.050885v0.041633l-0.06095,0.037007l-0.004688,0.060137l0.098457,0.027756l0.009377,0.055511l-0.051573,0.027756l0.004688,0.10177l-0.135965,0.194289l-0.06095,0.037007l-0.094355,-0.010119l-0.019926,-0.022118l0.015823,-0.046404l-0.015823,-0.005204l-0.073257,0.130104l-0.014065,0.106396l0.042196,0.013878l0.032819,-0.050885l0.08908,-0.009252l0.042196,0.032381l0.051573,0.111022l0.084392,0.055511Z "/>
</svg>
