<svg xmlns="http://www.w3.org/2000/svg" viewBox="1596.983 704.034 7.065 51.685">
  <path d="M1600.548822,754.930078l0.031129,-0.041506l0.1176,0.006918l0.013835,0.041506l-0.083012,0.107224l0.010376,0.193695l-0.038047,0.103765l-0.031129,-0.020753l0.027671,-0.1176l-0.020753,-0.183318l0.020753,-0.062259l-0.048424,-0.027671Z M1600.368962,755.639138l0.048424,-0.048424l0.010376,-0.062259l-0.048424,-0.017294l-0.006918,0.065718l-0.027671,0.048424l0.024212,0.013835Z M1600.092256,755.711774l0.107224,0.006918l0.051882,-0.048424l-0.051882,-0.041506l-0.141812,-0.041506l-0.155323,-0.150027l-0.093713,-0.170888v-0.08031l-0.062259,-0.127977l-0.069177,-0.072635l0.020753,-0.038047l-0.017294,-0.055341l-0.065718,0.034588l0.006918,0.072635l0.093388,0.200612l0.058476,0.062799l0.10063,0.20699l0.076094,0.08993l0.027671,0.065718l0.114141,0.086471Z M1601.918855,753.036511l0.044965,0.083012l0.076094,0.010376l0.027671,-0.031129l-0.145271,-0.193695l-0.038047,-0.024212l-0.044965,0.034588l0.003459,0.065718l0.076094,0.055341Z M1598.661002,747.857142l0.006918,-0.065718l-0.024212,-0.041506l-0.044965,-0.006918l-0.024351,0.052277l0.030932,0.061864h0.055678Z M1598.730527,748.152536l0.003459,-0.076094l-0.020753,-0.024212l-0.034588,0.024212l-0.006918,0.041506l0.024212,0.0588l0.034588,-0.024212Z M1598.650973,748.028018l0.024212,0.017294l0.027671,-0.017294l-0.017294,-0.031129l-0.026482,-0.001297l-0.008107,0.032427Z M1598.654815,747.566381l0.027839,-0.043305l0.003093,-0.06805l-0.034025,-0.015466l-0.040212,0.043305l-0.00928,0.080423l0.052584,0.003093Z M1599.310258,747.473178l0.003675,-0.033075l-0.009188,-0.012863l-0.020213,0.023888l0.005513,0.033075l0.020213,-0.011025Z M1598.655405,747.64279l-0.005513,-0.027563l-0.018375,-0.001838l-0.003675,0.027563l0.027563,0.001838Z M1598.642542,747.718128l-0.0147,-0.027563h-0.018375v0.033075l0.033075,-0.005513Z M1598.72523,748.230792l-0.003675,-0.025725h-0.016538l-0.011025,0.020213l0.031238,0.005513Z M1598.705018,748.412705l0.033075,-0.005513l0.00735,-0.0147l-0.0147,-0.011025l-0.033075,0.020213l0.00735,0.011025Z M1598.72523,748.456805l0.031238,-0.0147l-0.00735,-0.020213l-0.025725,0.001838l-0.011025,0.016538l0.012863,0.016538Z M1598.771168,748.48988l0.022841,-0.020285l-0.015466,-0.018559l-0.0331,0.011281l-0.001838,0.023888l0.027563,0.003675Z M1598.866718,748.892294l0.001838,-0.025725l-0.012863,-0.00735l-0.012863,0.02205l0.023888,0.011025Z M1598.861206,749.041132l0.027563,-0.02205l-0.025725,-0.012863l-0.027563,0.02205l0.025725,0.012863Z M1600.660123,749.379232l0.00735,-0.016538l-0.0294,-0.025725l-0.030192,0.00312l0.012324,0.022184l0.039917,0.016959Z M1600.845711,749.40312l0.060638,-0.0294l0.003675,-0.027563l-0.077175,0.016538l-0.009188,0.025725l0.02205,0.0147Z M1600.963311,749.392095l0.034913,-0.011025l-0.003675,-0.033075l-0.047775,0.003675l-0.016538,0.018375l0.033075,0.02205Z M1601.049674,749.235907l0.012863,-0.016538l-0.0147,-0.033075l-0.018375,0.005513v0.03675l0.020213,0.00735Z M1601.512725,749.305732l0.038588,-0.038588l0.08085,-0.101063l-0.012863,-0.02205l-0.084525,0.00735l-0.047775,0.082688v0.056963l0.025725,0.0147Z M1600.49291,749.59422l0.08085,-0.069825l-0.0147,-0.0294l-0.0441,-0.001838l-0.071663,0.042263l-0.003675,0.05145l0.053288,0.00735Z M1601.54947,748.824927l0.007395,0.019719l0.027114,-0.002465l0.007395,-0.027114l-0.019719,-0.00986l-0.022184,0.019719Z M1599.743208,746.654213l0.016538,0.012863l0.027563,-0.009188l-0.003675,-0.0294l-0.033075,0.003675l-0.00735,0.02205Z M1599.947872,747.269215l0.012863,-0.011025l-0.018375,-0.020213l-0.016538,0.001838l-0.003675,0.0294h0.025725Z M1600.280461,747.364766l0.00735,-0.020213l-0.016538,-0.020213l-0.023888,0.011025v0.0294h0.033075Z M1599.94236,747.513603l0.005513,-0.011025l-0.034913,-0.027563l-0.009188,0.016538l0.011025,0.023888l0.027563,-0.001838Z M1599.861418,745.474103l0.00453,0.015823l0.03222,0.006227l0.00735,-0.016538l-0.009188,-0.023888l-0.025725,-0.001838l-0.009188,0.020213Z M1599.980856,745.58619l0.023888,0.0294l0.023888,-0.00735l-0.025725,-0.03675l-0.018375,-0.001838l-0.003675,0.016538Z M1600.271182,745.420815l0.020213,0.005513l-0.001838,-0.025725l-0.020213,-0.020213l-0.006548,0.018335l0.008386,0.02209Z M1601.360822,745.452053l0.016538,0.001838l0.012863,-0.018375l-0.005899,-0.026931l-0.019826,-0.015332l-0.012218,0.015332l0.008543,0.019581v0.023888Z M1601.584388,746.108474l0.0147,-0.064313l-0.005513,-0.040425l-0.055125,-0.02205l-0.023888,0.003675l0.033075,0.045938l0.003675,0.071663l0.033075,0.005513Z M1601.55315,746.259149l0.0294,-0.023888l-0.020213,-0.020213v-0.056963l-0.03675,0.001838l-0.009188,0.025725l0.03675,0.0735Z M1599.956358,749.768783l0.033075,0.033075l0.049613,-0.012863l-0.020213,-0.025725l-0.042263,-0.011025l-0.020213,0.016538Z M1599.892046,749.730196l0.03675,0.0294l0.025725,-0.025725l-0.027563,-0.025725l-0.033075,-0.003675l-0.001838,0.025725Z M1599.691758,749.658533l0.042263,0.034913l0.045938,-0.0441l-0.011025,-0.012863l-0.031238,0.020213l-0.020213,-0.012863l0.005513,-0.056963l-0.023888,-0.009188l-0.009188,0.056963l0.001838,0.023888Z M1599.820383,749.673233l0.003675,-0.023888l-0.020213,0.00735l-0.003675,0.025725l0.020213,-0.009188Z M1599.870878,749.662991l-0.011907,-0.00997l-0.018375,0.001838l-0.001838,0.033075l0.024725,-0.002758l0.007395,-0.022184Z M1598.918168,749.109119l0.005513,-0.0294l-0.0147,-0.025725l-0.023888,0.018375l0.003675,0.025725l0.0294,0.011025Z M1599.592532,749.625458l0.027563,-0.012863l-0.00735,-0.060638l-0.077175,-0.042263l-0.05145,-0.077175l-0.055125,-0.02205l-0.018375,0.0147l0.077175,0.060638l0.049613,0.079013l0.040425,0.023888l0.0147,0.03675Z M1599.362844,749.393932l0.033075,-0.016538l-0.027563,-0.05145l-0.03675,-0.005513l-0.00735,0.025725l0.02205,0.016538l0.016538,0.031238Z M1599.287507,749.316757l0.023888,-0.012863l-0.031238,-0.03675l-0.012863,0.012863l0.005513,0.023888l0.0147,0.012863Z M1599.226869,749.287357l0.018375,-0.020213l-0.042263,-0.025725l-0.0588,-0.012863l-0.0441,-0.056963l-0.023888,-0.00735l-0.003675,0.0294l0.0588,0.077175l0.047775,0.001838l0.047775,0.0147Z M1598.984318,749.123819l0.045938,0.027563l0.018375,-0.009188l-0.042263,-0.040425l-0.056963,-0.0147l0.002357,0.019726l0.032556,0.017025Z M1601.886135,748.935385l0.055341,-0.020753l0.036894,-0.05073l-0.032282,-0.018447l-0.048424,0.018447l-0.034588,0.046118l0.023059,0.025365Z M1602.052159,748.838538l0.069177,-0.043812l-0.013835,-0.016141l-0.080706,0.036894l-0.027671,0.029977l0.013835,0.041506l0.0392,-0.048424Z M1602.301195,748.594114l0.025365,0.025365l0.027671,-0.062259v-0.057647l0.030984,-0.064002l-0.014843,-0.009787l-0.046118,0.073788l-0.023059,0.094541Z M1602.447078,748.333495l0.013222,-0.002253l0.013835,-0.066871l-0.002306,-0.036894l-0.025365,-0.004612l-0.004612,0.055341l0.005225,0.055288Z M1602.448771,748.146771l0.004612,-0.0392l-0.013835,-0.020753l-0.016141,0.027671l-0.002306,0.043812l0.027671,-0.011529Z M1601.985757,747.7034l0.023059,-0.013835l-0.010734,-0.023138l-0.036973,0.002465l-0.005328,0.027591l0.029977,0.006918Z M1602.395736,748.010724l0.036894,-0.002306l-0.016141,-0.034588l-0.025365,-0.002306l0.004612,0.0392Z M1602.356536,747.918488l0.025365,-0.009224l-0.002306,-0.034588l-0.027671,-0.023059l-0.013835,0.020753l0.018447,0.046118Z M1602.317336,747.800888l0.036894,0.004612l0.002306,-0.027671l-0.048424,-0.073788l-0.0392,-0.011529v0.027671l0.048424,0.080706Z M1602.215877,747.505734l0.013835,-0.016141l-0.002306,-0.041506l-0.023059,0.002306l0.011529,0.055341Z M1601.600204,746.362014l0.004612,-0.036894l-0.016141,-0.023059l-0.018447,0.018447l0.009224,0.05073l0.020753,-0.009224Z M1601.611734,746.518814l0.004612,-0.043812l-0.013835,-0.029977l-0.016141,0.018447l0.002306,0.069177l0.023059,-0.013835Z M1601.584063,746.714815l0.013835,-0.018447l-0.011529,-0.029977l-0.016141,-0.002306l-0.002306,0.0392l0.016141,0.011529Z M1601.620957,746.84625l0.009224,0.034588l0.034588,-0.004612v-0.0392l-0.053035,-0.034588l-0.013835,0.018447l0.023059,0.025365Z M1601.724722,746.970768l0.034588,-0.002306v-0.025365l-0.043812,-0.020753l-0.018447,0.018447l0.027671,0.029977Z M1601.883829,747.069921l0.034588,0.011529l0.011529,-0.023059l-0.053035,-0.027671l-0.013835,0.018447l0.020753,0.020753Z M1602.065994,747.205969l0.020753,0.006918l-0.002306,-0.029977l-0.020753,-0.027671l-0.013835,0.009224l0.016141,0.041506Z M1602.132865,747.293593l0.016141,-0.025365l-0.027671,-0.006918l-0.020753,0.023059l0.032282,0.009224Z M1602.153618,747.353546l0.018447,-0.004612l0.002306,-0.025365l-0.023059,-0.020753l-0.009224,0.036894l0.011529,0.013835Z M1597.805585,729.588438l0.027671,-0.026758l-0.013835,-0.024431l-0.024212,0.017451l-0.006918,0.027921l0.017294,0.005817Z M1598.990811,729.455812l0.020753,0.027921l0.013835,-0.016287l-0.004612,-0.027921l-0.029977,0.016287Z M1599.239847,729.851364l0.027671,-0.004654l-0.004612,-0.020941l-0.034588,-0.002327l-0.016141,0.018614l0.027671,0.009307Z M1598.915229,730.455405l0.027671,0.013961l0.020753,-0.023268l-0.025365,-0.009307l-0.023059,0.018614Z M1598.507087,730.811402l0.046118,0.016287l0.034588,-0.00698l-0.011529,-0.030248l-0.041506,0.002327l-0.027671,0.018614Z M1598.288028,730.85561l0.027671,0.023268l0.027671,-0.00698v-0.037228l-0.027671,-0.00698l-0.027671,0.027921Z M1599.140766,731.391436l-0.002306,-0.020941l-0.018447,-0.002327l-0.006918,0.025595l0.027671,-0.002327Z M1598.97013,731.451932l0.016141,-0.011634l-0.013835,-0.018614l-0.029977,0.023268l0.027671,0.00698Z M1598.949377,731.686937l0.032282,-0.009307l0.013835,-0.016287l-0.036894,-0.009307l-0.020753,0.020941l0.011529,0.013961Z M1598.342929,731.766047l0.025365,-0.016287l-0.013835,-0.020941l-0.025365,-0.002327l-0.009224,0.025595l0.023059,0.013961Z M1598.146928,731.852138l0.020753,-0.00698l-0.002306,-0.030248l-0.020753,-0.00698l-0.006918,0.032575l0.009224,0.011634Z M1597.967069,732.035953l0.013835,-0.027921l-0.004612,-0.023268l-0.027671,-0.002327l-0.004612,0.048862l0.023059,0.004654Z M1598.038551,732.198827l0.013835,-0.013961l-0.013835,-0.018614l-0.029977,0.00698l-0.006918,0.020941l0.036894,0.004654Z M1602.43194,728.971566l0.007822,0.019902l0.040212,0.003121l0.007307,-0.027676l-0.032282,-0.018614l-0.023059,0.023268Z M1603.275023,730.659126l-0.002465,0.052232l0.017866,0.018781l0.024037,-0.056089l-0.002465,-0.047257l-0.032044,-0.019898l-0.022184,0.024872l0.017254,0.027359Z M1601.556397,731.919121l0.027671,0.034902l0.020753,-0.013961l-0.010376,-0.038392l-0.020753,-0.00349l-0.017294,0.020941Z M1602.99873,731.570105l0.020753,0.020941l0.031129,-0.080274l-0.017294,-0.01047l-0.034588,0.069803Z M1602.905341,731.618967l0.027671,0.013961l0.017294,-0.031411l-0.041506,-0.041882l-0.010376,0.027921l0.006918,0.031411Z M1602.880805,731.802528l0.016538,0.020396l0.040425,-0.042645l-0.001838,-0.035229l-0.037507,-0.017887l-0.017294,0.020941l-0.000324,0.054425Z M1602.867943,732.039859l0.003675,-0.05377l-0.02205,-0.011125v0.05377l0.018375,0.011125Z M1602.873455,731.961985l0.020213,0.005562l-0.003675,-0.037083l-0.0147,-0.014833l-0.001838,0.046354Z M1602.645605,732.219712v-0.016687l-0.0294,0.003708l-0.005513,0.020396l0.034913,-0.007417Z M1601.512585,732.689284l0.018447,0.044209l0.020753,-0.004654v-0.023268l-0.023059,-0.020941l-0.016141,0.004654Z M1601.867692,732.817257l-0.006918,-0.027921l-0.013835,-0.002327l0.004612,0.039555l0.016141,-0.009307Z M1601.853856,732.763741l0.020753,0.011634l0.013835,-0.016287l-0.011529,-0.044209h-0.023059v0.048862Z M1601.876915,732.682304l0.025365,0.020941l0.013835,-0.030248l-0.009224,-0.037228h-0.020753l-0.009224,0.046536Z M1601.909198,732.584579l0.025365,0.009307l0.027671,-0.053516l-0.016141,-0.018614l-0.020753,0.020941l-0.016141,0.041882Z M1601.982986,732.475221l0.025365,0.002327l0.023059,-0.037228l-0.013835,-0.018614l-0.025365,0.023268l-0.009224,0.030248Z M1598.119258,733.348255l0.020753,-0.002327l-0.046118,-0.027921l-0.009224,0.011634l0.034588,0.018614Z M1598.287587,733.497169h0.064565l0.023059,-0.030248l-0.020753,-0.044209l-0.034588,-0.00698l-0.034588,0.023268l0.002306,0.058169Z M1598.578021,733.420858l0.05145,-0.046354l-0.00735,-0.024104l-0.062475,0.038937l-0.003675,0.038937l0.02205,-0.007417Z M1598.945522,733.203922l0.031238,-0.037083l-0.018375,-0.011125l-0.023888,0.027812l-0.005513,0.020396h0.016538Z M1599.066797,733.094527l-0.003675,-0.02225l-0.016538,-0.007417l-0.009188,0.040791l0.0294,-0.011125Z M1599.092523,733.042611l0.02205,0.011125l0.042263,-0.040791l0.020213,-0.077874l-0.02205,-0.007417l-0.02205,0.063041l-0.040425,0.051916Z M1599.166023,732.897987l0.023888,0.012979l0.00735,-0.012979l-0.018375,-0.020396l-0.012863,0.020396Z M1599.19726,732.823821l-0.003675,-0.018542l-0.018375,-0.005562v0.029666l0.02205,-0.005562Z M1599.18991,732.719989l-0.001838,-0.05377l0.0147,0.009271l0.005513,0.048208l-0.011025,0.024104h-0.016538l0.009188,-0.027812Z M1599.703827,734.11183l0.02473,0.022009l0.029977,-0.002327l0.011529,-0.027921l-0.041506,-0.004654l-0.02473,0.012893Z M1600.016793,734.192008l0.016141,0.027921l0.018447,-0.00698l0.002306,-0.030248l-0.018447,-0.002327l-0.018447,0.011634Z M1600.678583,734.466568l0.023059,0.013961l0.016141,-0.004654l0.009224,-0.018614l-0.027671,-0.004654l-0.020753,0.013961Z M1601.06136,734.506123l-0.002306,-0.030248l-0.013835,-0.016287l-0.025365,0.011634l0.018447,0.027921l0.023059,0.00698Z M1601.287337,734.878407l0.046118,0.053516l0.048424,0.181489l0.002306,0.183815l0.016141,0.00698l0.013835,-0.111685l-0.004612,-0.088418l-0.062259,-0.188469l-0.041506,-0.039555l-0.018447,0.002327Z M1598.421118,735.743968l0.036894,0.013961l0.018447,-0.060496l-0.032282,-0.041882l-0.025365,0.002327l0.009224,0.044209l-0.006918,0.041882Z M1598.580225,735.902189l0.027671,0.023268l0.016141,-0.018614v-0.034902l-0.027671,-0.004654l-0.016141,0.034902Z M1598.550248,736.053429l0.011529,-0.027921l-0.023059,-0.018614l-0.023059,0.009307l0.002306,0.027921l0.032282,0.009307Z M1599.046663,736.709035l0.012863,0.02225l0.023888,-0.014833l-0.027563,-0.02225l-0.009188,0.014833Z M1599.171613,736.709035l-0.016538,-0.020396l-0.040425,0.014833l0.005513,0.035229l0.05145,-0.029666Z M1599.485826,736.699764l0.016538,0.016687l0.020213,-0.020396l0.009188,-0.040791l-0.025725,0.001854l-0.020213,0.042645Z M1599.401301,736.72016l0.012863,0.031521l0.033075,-0.040791l-0.005513,-0.029666l-0.025725,0.009271l-0.0147,0.029666Z M1599.675089,736.521766l0.0441,0.040791l0.040425,-0.007417l-0.0147,-0.025958l-0.062475,-0.038937l-0.00735,0.031521Z M1599.811064,736.514349l0.009188,0.025958l0.02205,-0.003708l0.001838,-0.037083l-0.018375,-0.003708l-0.0147,0.018542Z M1599.936015,736.471704l0.016538,-0.038937l-0.00735,-0.014833l-0.033075,0.033375l0.001838,0.029666l0.02205,-0.009271Z M1599.989302,736.46985l0.001838,-0.02225l0.031238,-0.027812l0.001838,-0.020396l-0.0294,0.001854l-0.0294,0.046354l0.00735,0.024104l0.016538,-0.001854Z M1600.417153,736.15828l0.020213,-0.012979l-0.009188,-0.018542l-0.025725,0.005562l-0.011025,0.020396l0.025725,0.005562Z M1600.698291,735.958032l0.009188,-0.014833l-0.005513,-0.012979l-0.02205,0.007417l-0.005513,0.018542l0.023888,0.001854Z M1600.986779,735.767054l0.00735,-0.018542l-0.009188,-0.012979l-0.025725,0.011125l-0.005513,0.016687l0.033075,0.003708Z M1601.11173,735.676201l0.031238,-0.024104l-0.001838,-0.016687l-0.0294,0.005562l-0.02205,0.025958l0.02205,0.009271Z M1601.20728,735.577931l0.020213,0.016687l0.033075,-0.029666v-0.024104l-0.0147,-0.009271l-0.038588,0.046354Z M1601.260567,735.51489l0.016538,0.012979l0.02205,-0.035229l-0.005513,-0.018542l-0.02205,0.009271l-0.011025,0.031521Z M1601.326718,735.461119l0.016538,0.016687l0.016538,-0.020396l-0.00735,-0.029666l-0.025725,0.033375Z M1601.380005,735.422182l0.016538,0.009271l0.023888,-0.018542l-0.012863,-0.025958l-0.02205,0.011125l-0.005513,0.024104Z M1601.383739,737.785277l0.013835,-0.031411l-0.020753,-0.01047l-0.017294,0.024431l0.024212,0.017451Z M1600.688514,738.507742l0.017294,0.013961l0.003459,-0.062823l-0.017294,-0.00698l-0.003459,0.055843Z M1600.674678,738.889333l0.023059,0.013961l0.018447,-0.009307l-0.011529,-0.027921l-0.018447,0.002327l-0.011529,0.020941Z M1600.787667,738.973097v0.018614l0.032282,0.00698l0.009224,-0.016287l-0.029977,-0.018614l-0.011529,0.009307Z M1600.914491,739.189487l0.055341,0.039555l0.013835,-0.00698l-0.016141,-0.037228l-0.034588,-0.011634l-0.018447,0.016287Z M1601.175056,739.282558l0.029977,0.016287l0.013835,-0.018614l-0.009224,-0.018614l-0.034588,0.020941Z M1601.271904,739.284885l-0.004612,-0.016287h-0.025365l-0.004612,0.018614l0.034588,-0.002327Z M1601.336468,739.287212l0.009224,-0.016287h-0.034588l-0.002306,0.018614l0.027671,-0.002327Z M1601.456375,739.345381l0.023059,-0.032575l0.002306,-0.030248l-0.046118,-0.002327l-0.05073,0.027921l0.004612,0.037228h0.066871Z M1601.553222,739.310479l-0.013835,-0.053516l-0.025365,-0.023268l-0.018447,0.025595l0.020753,0.055843l0.036894,-0.004654Z M1601.54861,739.236023l0.025365,0.020941l0.05073,-0.032575l-0.018447,-0.034902h-0.0392l-0.018447,0.046536Z M1601.564751,739.10107l0.034588,0.011634l-0.016141,-0.037228l-0.018447,-0.011634v0.037228Z M1601.597034,739.049881l0.009224,0.016287l0.034588,-0.018614l-0.016141,-0.011634l-0.027671,0.013961Z M1601.686963,739.117357l0.018447,-0.013961l-0.016141,-0.027921l-0.032282,0.002327l-0.004612,0.011634l0.034588,0.027921Z M1601.995888,739.093297l0.057647,-0.053516l-0.020753,-0.016287l-0.087624,0.037228l0.004612,0.025595l0.046118,0.00698Z M1602.218927,739.021438l0.036894,0.018614l0.087624,-0.07213l0.05073,-0.088418l-0.016141,-0.034902l-0.032282,0.034902l-0.046118,0.076784l-0.080706,0.06515Z M1602.419539,738.814355l0.041506,0.011634l0.011529,-0.046536l-0.002306,-0.046536l-0.029977,-0.016287l-0.020753,0.097725Z M1602.45874,738.679402l0.027671,0.030248l0.029977,-0.002327l0.011529,-0.07213l0.064565,-0.174508l0.062259,-0.093071v-0.086091l-0.048424,-0.058169l-0.043812,0.016287l0.004612,0.130299l-0.011529,0.093071l-0.059953,0.160548l-0.034588,0.013961l-0.002306,0.041882Z M1602.555587,738.130283l0.041506,-0.023268l0.002306,-0.051189l-0.032282,-0.046536l-0.023059,0.004654l0.011529,0.060496v0.055843Z M1602.57634,737.934833l-0.023059,-0.023268l-0.018447,0.002327l0.009224,0.032575l0.032282,-0.011634Z M1602.53714,737.876664l0.016141,-0.009307l-0.004612,-0.027921l-0.025365,0.011634l0.013835,0.025595Z M1602.530222,737.806861l0.016141,-0.004654l0.004612,-0.069803l-0.027671,-0.004654l-0.009224,0.027921l0.016141,0.051189Z M1602.509469,737.688195l0.036894,0.002327l-0.016141,-0.053516l0.018447,-0.025595l-0.025365,-0.009307l-0.023059,0.025595l0.009224,0.060496Z M1602.520999,737.502053l0.023059,-0.002327l0.006918,-0.025595l-0.018447,-0.027921l-0.013835,0.009307l0.002306,0.046536Z M1602.553281,737.364773l0.032282,0.016287l0.025365,-0.06515l-0.029977,-0.020941l-0.020753,0.013961l-0.006918,0.055843Z M1602.587869,737.267048l0.023059,-0.013961l0.013835,-0.06515l-0.020753,-0.011634l-0.018447,0.041882l0.002306,0.048862Z M1602.663964,737.141402l0.0392,0.002327l0.048424,-0.048862l0.122212,-0.051189l0.009224,-0.046536l-0.023059,-0.025595l-0.0392,0.041882l-0.126824,0.030248l-0.034588,0.046536l0.004612,0.051189Z M1602.606316,737.090213l-0.016141,-0.018614l-0.020753,0.004654l-0.004612,0.023268l0.041506,-0.009307Z M1604.009168,728.220017l0.026686,0.025479l0.012373,-0.02497l-0.020612,-0.047045l-0.020753,-0.016287l0.002306,0.062823Z M1602.671753,728.136253l-0.018447,-0.011634l-0.025365,0.013961l-0.002306,0.025595l0.027559,0.00017l0.018559,-0.028091Z M1602.577211,727.985013l0.016141,-0.020941l-0.023059,-0.011634l-0.029977,0.011634v0.020941h0.036894Z M1602.627941,728.092045l0.020753,-0.011634l-0.025365,-0.018614l-0.016141,0.004654v0.018614l0.020753,0.00698Z M1601.793209,726.693652l-0.018447,-0.013961l-0.0392,0.002327l-0.001049,0.030959h0.037118l0.021578,-0.019325Z M1602.277446,727.275346l0.025365,0.011634l0.016141,-0.016287l-0.018447,-0.018614l-0.023059,0.023268Z M1601.394332,725.531335l0.027671,0.013961l0.016141,-0.023268l-0.011529,-0.013961l-0.032282,0.023268Z M1601.497162,724.605577l0.008269,0.017894l0.054316,-0.001711l0.013071,-0.035443l-0.039401,0.000386l-0.036254,0.018874Z M1601.982333,725.724457l0.018447,0.009307l0.023059,-0.060496l-0.009224,-0.041882l-0.016141,0.004654l-0.016141,0.088418Z M1602.042286,725.745398l0.013835,-0.044209l0.002306,-0.023268l-0.023059,0.013961l-0.009224,0.048862l0.016141,0.004654Z M1602.005392,725.587178l0.013835,-0.002327l0.018447,-0.023268l-0.009224,-0.027921l-0.016141,0.009307l-0.006918,0.044209Z M1602.076875,725.384748h0.018447l0.036894,-0.030248l-0.011529,-0.023268l-0.032282,0.011634l-0.011529,0.041882Z M1601.980027,725.238161l0.027671,0.011634l0.016141,-0.016287l-0.011529,-0.025595l-0.018447,0.009307l-0.013835,0.020941Z M1602.187557,725.121822l0.029977,0.013961l0.032282,-0.030248l0.011529,-0.032575l-0.029977,-0.002327l-0.043812,0.051189Z M1602.341765,724.761543l0.025365,0.00698l0.018447,-0.025595l-0.020753,-0.023268l-0.016141,0.016287l-0.006918,0.025595Z M1597.168331,725.928871l0.011529,0.009307l0.043812,-0.002327l0.020753,-0.023268l-0.043812,-0.002327l-0.032282,0.018614Z M1598.457322,726.05917l0.002306,0.016287l0.0392,0.013961l0.013835,-0.011634l-0.020753,-0.025595l-0.034588,0.00698Z M1598.701746,725.963772l0.016141,0.016287h0.032282l0.013835,-0.013961l-0.025365,-0.020941l-0.036894,0.018614Z M1598.745558,726.180163v0.018614l0.025365,0.013961l0.034588,-0.002327l0.002306,-0.025595l-0.036894,-0.011634l-0.025365,0.00698Z M1598.651017,726.892156l0.027671,0.011634l0.027671,-0.018614l-0.016141,-0.013961l-0.025365,0.004654l-0.013835,0.016287Z M1597.034589,726.564081l0.018447,0.020941v0.032575l0.018447,0.009307l0.020753,-0.032575l-0.011529,-0.044209l-0.025365,-0.004654l-0.020753,0.018614Z M1597.138354,727.10622l0.013835,0.027921l0.020753,0.002327l0.009224,-0.016287l-0.018447,-0.023268l-0.025365,0.009307Z M1597.108378,727.431968l0.018447,0.025595l0.016141,-0.002327l0.002306,-0.020941l-0.011529,-0.011634l-0.025365,0.009307Z M1597.125924,727.61891l0.027563,0.011125v-0.029666l-0.023888,-0.018542l-0.011998,0.008362l0.008323,0.028721Z M1597.5265,727.950803l-0.003675,0.018542l0.031238,0.024104l0.0294,-0.001854l0.003675,-0.02225l-0.060638,-0.018542Z M1597.631238,728.000865l0.003675,0.018542l0.042263,0.014833l0.027563,-0.005562l0.005513,-0.018542l-0.040425,-0.011125l-0.038588,0.001854Z M1598.678616,727.222122l0.018375,0.007417l0.011025,-0.033375l-0.003675,-0.027812l-0.020213,-0.003708l-0.0147,0.014833l0.009188,0.042645Z M1598.423202,727.796909l0.02205,0.003708l0.077175,-0.087145l0.020213,-0.055625l-0.034913,0.007417l-0.020213,0.046354l-0.064313,0.085291Z M1598.263339,727.937824l0.009188,0.016687l0.067988,-0.051916v-0.02225l-0.03675,0.011125l-0.040425,0.046354Z M1598.149414,728.024969l0.023888,0.012979l0.056963,-0.040791l-0.011025,-0.020396l-0.033075,0.024104l-0.027563,-0.001854l-0.009188,0.025958Z M1597.901351,728.115823l0.064313,-0.012979l-0.003675,-0.061187l-0.034913,-0.016687l-0.086363,0.040791l-0.001838,0.031521l0.062475,0.018542Z M1598.039164,728.100989l0.00735,-0.048208l-0.025725,-0.007417l-0.00735,0.020396l0.005513,0.037083l0.020213,-0.001854Z M1597.260858,725.249217l0.034913,0.009271l0.00735,-0.02225l-0.02205,-0.025958l-0.016538,0.007417l-0.003675,0.031521Z M1598.612746,724.637236l0.027563,0.009271l0.016538,-0.016687l-0.012863,-0.025958l-0.020213,-0.001854l-0.011025,0.035229Z M1597.117017,724.329447l0.00735,0.025958l0.053288,0.001854l0.02205,-0.020396l-0.02205,-0.029666l-0.0294,0.001854l-0.031238,0.020396Z M1597.271367,723.398663l0.020213,0.016687l0.020213,-0.009271l-0.005513,-0.025958l-0.018375,-0.005562l-0.016538,0.024104Z M1597.449605,723.446871l0.018375,0.009271l0.025725,-0.011125l-0.003675,-0.020396l-0.02205,-0.001854l-0.018375,0.024104Z M1597.743606,723.381976l0.02205,0.012979l0.027563,-0.011125l-0.001838,-0.018542l-0.0294,-0.001854l-0.018375,0.018542Z M1598.052307,723.237352l0.02205,0.027812l0.02205,-0.007417l-0.018375,-0.033375h-0.018375l-0.00735,0.012979Z M1598.789146,722.933272l-0.003675,0.024104l0.045938,0.007417l0.049613,-0.007417l-0.02205,-0.025958l-0.069825,0.001854Z M1598.893884,722.91473l0.016538,0.027812l0.038588,-0.014833l-0.00735,-0.046354h-0.025725l-0.02205,0.033375Z M1598.650901,721.736363l0.002306,0.039555l0.053035,0.044209l0.0392,-0.002327l0.009224,-0.076784l-0.036894,-0.032575l-0.066871,0.027921Z M1598.639363,718.873263l0.046118,-0.002327l-0.0392,-0.030248l-0.073788,-0.002327l-0.009224,0.018614l0.076094,0.016287Z M1598.863035,718.891877l0.05073,0.004654l0.011529,-0.013961l-0.101459,-0.030248l-0.006918,0.020941l0.046118,0.018614Z M1599.03367,718.952373l0.002306,0.055843l0.022919,-0.001532l0.021652,-0.059303l0.040212,-0.021849l-0.021652,-0.043697l-0.070048,0.005389l-0.020753,0.025595l0.025365,0.039555Z M1602.807853,720.564173l0.031129,-0.024431l-0.006918,-0.027921l-0.022968,0.014262l-0.024588,0.029946l0.023344,0.008144Z M1601.617716,724.035588l0.032282,0.023268l0.023059,-0.011634l-0.027671,-0.032575l-0.018447,0.002327l-0.009224,0.018614Z M1601.86214,723.877367l0.018447,0.020941l0.023059,-0.023268l-0.006918,-0.020941l-0.020753,-0.002327l-0.013835,0.025595Z M1602.071615,723.884857l0.020213,-0.007417l-0.010629,-0.037301l-0.029977,-0.004654l-0.009224,0.027921l0.029616,0.02145Z M1602.132253,723.873732l0.012863,-0.024104l-0.023888,-0.009271l-0.012863,0.024104l0.001838,0.020396l0.02205,-0.011125Z M1602.374804,724.140729h0.023888l0.003675,-0.018542l-0.031238,-0.016687l-0.00735,0.014833l0.011025,0.020396Z M1602.361941,723.569651l0.075338,-0.018542l-0.003675,-0.046354l-0.062475,-0.029666l-0.040425,0.009271l-0.033075,0.035229l0.003675,0.038937l0.060638,0.011125Z M1602.200241,723.558526l0.031238,-0.007417l-0.00735,-0.040791l-0.02205,-0.005562l-0.020213,0.024104l0.018375,0.029666Z M1601.921797,723.5009l0.049298,-0.017411l-0.002379,-0.03992l-0.0588,-0.011125l-0.075338,0.018542l-0.020213,0.025958l0.107432,0.023956Z M1602.03119,723.517735l0.006456,-0.014348l-0.014789,-0.022385l0.019719,-0.024872l-0.014789,-0.012436l-0.024159,0.016563l-0.002955,0.050592l0.030517,0.006887Z M1602.472192,723.48436l0.018375,0.035229l0.053288,-0.048208l0.047775,-0.131645l0.042263,-0.192832l0.033075,-0.055625l-0.032333,-0.030132l-0.06873,0.028277l-0.062475,0.139061l-0.031238,0.116811v0.139061Z M1602.202078,723.285966l0.018375,-0.02225l-0.011025,-0.016687l-0.027563,0.016687v0.018542l0.020213,0.003708Z M1602.446466,723.193259l0.003675,-0.024104l-0.009188,-0.016687l-0.016538,0.018542l-0.005513,0.02225h0.027563Z M1602.238828,722.870637l-0.011025,0.020396l0.016538,0.018542l0.023888,-0.011125l-0.001838,-0.024104l-0.027563,-0.003708Z M1602.641242,722.813158h0.023888l0.00735,-0.027812l-0.00735,-0.025958l-0.012863,0.007417l-0.011025,0.046354Z M1602.670642,722.729721l0.009188,0.009271l0.02205,-0.016687v-0.02225l-0.016538,0.001854l-0.0147,0.027812Z M1602.76068,722.659264l0.038588,-0.016687l0.001838,-0.027812l-0.031238,-0.016687l-0.031238,0.016687l-0.003675,0.031521l0.025725,0.012979Z M1602.924218,722.510932l0.027563,0.005562l0.0294,-0.046354l-0.005513,-0.029666l-0.02205,0.003708l-0.00735,0.031521l-0.02205,0.035229Z M1602.990368,722.410807l0.018375,0.011125l0.02205,-0.02225l0.001838,-0.024104l-0.0147,-0.001854l-0.027563,0.037083Z M1603.065706,722.366308l0.025725,0.009271l0.005513,-0.02225l-0.009188,-0.025958l-0.020213,0.005562l-0.001838,0.033375Z M1603.295394,722.225392l0.031238,-0.029666l-0.0147,-0.02225l-0.0441,0.003708l-0.03675,0.018542l0.001838,0.025958l0.062475,0.003708Z M1603.385431,722.193872l0.02205,-0.027812l-0.0147,-0.016687l-0.020213,0.012979l-0.005513,0.024104l0.018375,0.007417Z M1603.68862,721.761855l0.018375,0.011125l0.020213,-0.016687l0.003675,-0.038937l-0.020213,-0.003708l-0.02205,0.048208Z M1603.714345,721.680272l0.023888,0.003708l0.011025,-0.018542v-0.033375l-0.02205,-0.003708l-0.012863,0.02225v0.029666Z M1602.358205,719.86963l0.020753,0.017451l0.031129,-0.00698l0.017294,-0.038392l-0.041506,-0.00349l-0.027671,0.031411Z M1602.40317,720.264018l0.003459,-0.027921h-0.020753l-0.003459,0.031411l0.020753,-0.00349Z M1602.04691,720.159313l0.010376,0.027921l0.020753,-0.00349l-0.006979,-0.021126l-0.01616,-0.019469l-0.007991,0.016164Z M1601.718321,720.525781l0.006918,0.020941l0.017294,-0.00349l0.003459,-0.027921l-0.027671,0.01047Z M1601.664717,721.044346l0.011025,0.012979l0.00735,-0.009271l-0.001838,-0.011125l-0.016538,0.007417Z M1601.806515,720.84703l0.023888,0.007417l0.003675,-0.009271l-0.0147,-0.012979l-0.012863,0.014833Z M1601.429362,722.225326l0.012863,0.011125l0.020213,-0.009271l-0.00735,-0.014833l-0.025725,0.012979Z M1601.546962,721.817413l0.020213,-0.007417l-0.0294,-0.020396l-0.016538,-0.003708l0.001838,0.025958l0.023888,0.005562Z M1601.598412,721.481811l0.018375,-0.014833l-0.012863,-0.012979l-0.025725,0.001854l-0.005513,0.02225l0.025725,0.003708Z M1601.433037,721.352021l0.011025,-0.020396l-0.012863,-0.012979l-0.0147,0.007417l0.001838,0.025958h0.0147Z M1601.418337,721.287126l0.012863,0.007417l0.0294,-0.009271l-0.001838,-0.072312l-0.0294,-0.031521l-0.023888,0.011125l0.012863,0.051916v0.042645Z M1601.440387,721.135085l0.012863,0.005562l0.018375,-0.02225l-0.00735,-0.016687l-0.016538,0.001854l-0.00735,0.031521Z M1602.041412,718.380396l-0.003459,0.034902l0.041506,0.020941l0.072635,-0.00698l0.062259,-0.069803l-0.027671,-0.052352l-0.051882,0.017451l-0.034588,0.038392l-0.0588,0.017451Z M1602.136821,714.547043l0.020753,0.00698l0.066871,-0.018614v-0.027921l-0.034588,0.002327l-0.053035,0.037228Z M1602.455034,714.665709l0.023059,0.011634l0.002306,-0.027921l-0.036894,-0.034902l-0.018447,0.00698l0.029977,0.044209Z M1602.805529,715.079875l0.041506,0.013961l0.018447,-0.011634l-0.094541,-0.055843l-0.016141,0.009307l0.05073,0.044209Z M1603.121436,715.27067l0.032282,-0.002327l0.002306,-0.016287l-0.048424,-0.023268l-0.009224,0.018614l0.023059,0.023268Z M1603.273624,715.333493l0.023059,-0.004654l-0.002306,-0.020941l-0.0392,-0.00698l-0.002306,0.016287l0.020753,0.016287Z M1601.793244,714.928634l0.023059,0.00698l0.027671,-0.027921v-0.025595h-0.025365l-0.025365,0.046536Z M1601.604161,715.026359l0.013835,0.018614l0.048424,-0.027921l0.020753,-0.032575l-0.027671,-0.002327l-0.055341,0.044209Z M1601.529364,715.169674l0.016538,0.012979l0.0147,-0.020396l0.005513,-0.077874l-0.018375,0.003708l-0.016538,0.040791l-0.001838,0.040791Z M1601.487101,715.247548l0.034913,0.016687l0.025725,-0.020396l-0.018375,-0.048208l-0.023888,-0.005562l-0.016538,0.016687l-0.001838,0.040791Z M1601.488939,715.369922l0.018375,-0.005562l-0.018375,-0.033375l-0.020213,-0.009271l-0.00735,0.014833l0.027563,0.033375Z M1601.420951,715.419984l0.016538,0.003708l0.023888,-0.016687l-0.00735,-0.018542l-0.018375,0.007417l-0.0147,0.024104Z M1601.279463,715.757439l0.0147,0.025958l0.064313,-0.018542l0.079013,-0.0445l-0.023888,-0.007417l-0.08085,0.035229l-0.033075,-0.005562l-0.020213,0.014833Z M1601.595514,715.681419l0.009188,0.012979l0.05145,-0.003708l0.012863,-0.012979l-0.025725,-0.011125l-0.047775,0.014833Z M1603.35134,715.410277l0.038588,0.14277l0.001838,0.096416h0.018375l0.009188,-0.040791l-0.003675,-0.070458l-0.045938,-0.144624l-0.0147,-0.033375l-0.027563,-0.001854l-0.011025,0.020396l0.034913,0.031521Z M1603.413815,715.953543l-0.0147,0.024104l0.020213,0.014833l0.025725,-0.035229l-0.003675,-0.040791l-0.018375,-0.009271l-0.012863,0.014833l0.003675,0.031521Z M1603.42484,715.792232l-0.005513,0.0445l0.023888,0.005562l0.016538,-0.031521v-0.051916l-0.034913,-0.035229l-0.0147,0.003708l-0.005513,0.040791l0.020213,0.024104Z M1603.222715,716.339206l0.0294,-0.012979l-0.011025,-0.018542l-0.018375,0.003708l-0.0147,0.018542l0.0147,0.009271Z M1603.092252,716.355894l0.011025,0.012979l0.038588,-0.018542l0.016538,-0.024104l-0.023888,-0.005562l-0.027563,0.012979l-0.0147,0.02225Z M1602.417888,716.281728l-0.00735,0.020396l0.009188,0.020396l0.0294,-0.001854l0.012863,-0.024104l-0.02205,-0.016687l-0.02205,0.001854Z M1602.311312,716.164916l0.031238,0.003708l0.001838,-0.018542l-0.02205,-0.020396l-0.045938,0.003708v0.018542l0.034913,0.012979Z M1602.234137,716.070354l0.027563,-0.003708v-0.018542l-0.025725,-0.009271l-0.016538,0.014833l0.0147,0.016687Z M1601.852765,715.813064l0.03675,0.014833l0.0294,-0.009271l-0.009188,-0.029666l-0.031238,-0.007417l-0.056963,-0.057479h-0.020213v0.025958l0.05145,0.063041Z M1601.95934,715.824189l0.009188,-0.027812l-0.0147,-0.020396l-0.025725,0.007417l0.011025,0.037083l0.020213,0.003708Z M1602.153287,715.962814l0.02205,0.031521l0.031238,-0.003708l-0.003675,-0.018542l-0.0294,-0.018542l-0.020213,0.009271Z M1598.018173,717.965672l0.023059,-0.013961l-0.034588,-0.039555l-0.025365,0.002327l-0.006918,0.023268l0.043812,0.027921Z M1598.248701,717.693501l0.006918,0.013961l0.029977,-0.002327l0.020753,-0.016287l-0.025365,-0.009307l-0.032282,0.013961Z M1598.475236,717.334504l0.029977,0.002327l0.006918,-0.023268l-0.043812,-0.002327l-0.011529,0.011634l0.018447,0.011634Z M1598.274178,716.666563l0.029977,0.002327l-0.013835,-0.025595l-0.029977,-0.009307l-0.016141,0.018614l0.029977,0.013961Z M1599.04665,717.050481l0.025365,-0.004654l-0.018447,-0.034902l-0.025365,-0.004654l-0.006918,0.020941l0.025365,0.023268Z M1598.264903,717.847006l0.020753,-0.002327l0.002306,-0.041882l-0.020753,-0.004654l-0.013835,0.013961l0.011529,0.034902Z M1598.409634,718.075757l0.011025,0.020396l0.031238,-0.005562l0.005513,-0.031521h-0.0294l-0.018375,0.016687Z M1598.530909,718.047945l0.020213,0.012979l0.023888,-0.014833l-0.011025,-0.035229l-0.025725,-0.001854l-0.00735,0.038937Z M1598.637484,718.038674l0.027563,0.012979l0.031238,-0.007417l0.001838,-0.02225l-0.02205,-0.016687l-0.038588,0.033375Z M1598.723847,717.999737l0.005513,0.020396l0.0882,-0.007417l-0.018375,-0.014833l-0.045938,0.001854l-0.018375,-0.011125l-0.011025,0.011125Z M1599.496568,717.582018l-0.025725,0.009271l0.0147,0.02225l0.040425,0.016687l0.016538,-0.018542l-0.045938,-0.029666Z M1599.44247,717.132136l0.020213,-0.011125l-0.018375,-0.018542l-0.040425,-0.001854l-0.003675,0.014833l0.042263,0.016687Z M1599.628058,716.835472l0.027563,0.001854l0.0147,-0.012979l-0.020213,-0.018542l-0.038588,-0.003708l0.001838,0.02225l0.0147,0.011125Z M1599.837534,716.657474l0.020213,-0.009271l-0.0147,-0.020396l-0.033075,-0.012979l-0.009188,0.018542l0.03675,0.024104Z M1600.131535,716.503579l0.0294,0.016687l0.016538,-0.024104l-0.005513,-0.025958l-0.016538,0.001854l-0.023888,0.031521Z M1599.806296,716.29406l0.02205,0.012979l0.02205,-0.003708l0.001838,-0.02225l-0.023888,-0.012979l-0.042263,0.009271l-0.005513,0.016687h0.025725Z M1599.890821,716.963409l0.025725,-0.007417l-0.020213,-0.027812l-0.025725,-0.003708l-0.012863,0.014833l0.033075,0.024104Z M1599.969834,716.939305l0.005513,-0.016687l-0.0294,-0.014833l-0.012863,0.007417l0.005513,0.016687l0.031238,0.007417Z M1599.374401,714.799279l0.005513,-0.016687l-0.0294,-0.014833l-0.012863,0.007417l0.005513,0.016687l0.031238,0.007417Z M1599.355842,714.921006l0.002465,-0.028384l-0.026352,-0.003137l-0.012863,0.007417l0.004706,0.020593l0.032044,0.003511Z M1599.084704,714.900084l-0.00493,-0.019898l-0.023114,-0.003186l-0.012863,0.007417l0.005513,0.016687l0.035394,-0.00102Z M1598.738706,715.958459l0.00735,0.018542l0.027563,0.007417l0.023888,-0.016687l-0.011025,-0.020396h-0.02205l-0.025725,0.011125Z M1598.854469,715.908397l-0.005513,0.016687l0.012863,0.012979l0.031238,-0.005562l0.003675,-0.020396l-0.018375,-0.009271l-0.023888,0.005562Z M1599.536183,716.214332l0.027563,-0.001854l-0.005513,-0.029666l-0.025725,-0.009271l-0.00735,0.014833l0.011025,0.025958Z M1599.459008,716.245852l0.020213,-0.011125l-0.027563,-0.033375h-0.016538l0.003675,0.024104l0.020213,0.020396Z M1599.108044,716.351539l0.001838,0.020396l0.025725,0.011125l0.0294,-0.009271l0.001838,-0.020396l-0.0294,-0.012979l-0.0294,0.011125Z M1599.264232,716.357101l0.001838,0.018542l0.025725,0.007417l0.012863,-0.005562l-0.001838,-0.02225l-0.038588,0.001854Z M1599.33957,716.358956l0.005513,0.014833l0.020213,0.009271l0.016538,-0.014833l-0.020213,-0.024104l-0.02205,0.014833Z M1598.550483,715.801945l0.023059,-0.016287l-0.006918,-0.032575l-0.029977,-0.00698l-0.011529,0.018614l0.025365,0.037228Z M1599.037025,715.518079l0.004612,-0.018614l-0.020753,-0.011634l-0.018447,0.013961l0.004612,0.023268l0.029977,-0.00698Z M1597.914057,714.768857l0.023059,0.00698l0.036894,-0.025595l-0.011529,-0.025595l-0.020753,0.004654l-0.027671,0.039555Z M1598.02474,714.682766l0.016141,0.018614l0.0392,-0.023268l-0.004612,-0.027921l-0.027671,0.011634l-0.023059,0.020941Z M1598.306058,714.899156l0.025365,-0.013961l-0.004612,-0.018614l-0.046118,0.002327v0.023268l0.025365,0.00698Z M1598.532035,715.101586l0.013835,-0.023268l-0.023059,-0.011634l-0.032282,0.00698l0.002306,0.025595l0.0392,0.002327Z M1598.490529,715.25748l0.018447,-0.023268l-0.023059,-0.013961l-0.020753,0.011634l-0.009224,0.025595h0.034588Z M1598.670389,715.19931l0.023059,0.016287l0.020753,-0.018614l-0.002306,-0.023268l-0.020753,0.004654l-0.020753,0.020941Z M1599.237637,715.201637l0.0784,0.00698l0.016141,-0.018614l-0.025365,-0.016287h-0.076094l-0.013835,0.016287l0.020753,0.011634Z M1599.288367,715.108566l0.05073,0.00698l0.020753,-0.018614l-0.013835,-0.027921l-0.073788,0.004654l-0.009224,0.018614l0.025365,0.016287Z M1599.352932,715.017822l0.025365,-0.018614l-0.025365,-0.020941l-0.059953,-0.00698l-0.006918,0.025595l0.066871,0.020941Z M1598.759454,715.112892l0.001838,0.024104l0.025725,0.018542l0.0294,-0.02225l0.003675,-0.025958l-0.0294,-0.012979l-0.031238,0.018542Z M1598.922992,715.13885l0.027563,0.018542l0.023888,-0.011125l0.003675,-0.016687l-0.034913,-0.009271l-0.020213,0.018542Z M1598.722704,715.010914l0.012863,0.014833h0.060638l0.020213,-0.018542l-0.033075,-0.016687l-0.060638,0.020396Z M1598.904617,714.93304l-0.003675,0.016687l0.031238,0.014833l0.016538,-0.016687l-0.016538,-0.018542l-0.027563,0.003708Z M1598.388278,714.957144l0.023888,-0.001854l0.005513,-0.024104l-0.020213,-0.018542l-0.018375,0.007417l-0.005513,0.020396l0.0147,0.016687Z M1598.651041,714.897811l0.018375,0.014833h0.027563l0.011025,-0.016687l-0.020213,-0.016687l-0.023888,0.003708l-0.012863,0.014833Z M1598.860516,714.777291l-0.005513,0.018542l0.02205,0.011125l0.02205,-0.012979l-0.020213,-0.018542l-0.018375,0.001854Z M1598.937692,714.75875l-0.005513,0.016687l0.0147,0.011125l0.025725,-0.009271v-0.016687l-0.034913,-0.001854Z M1599.37318,714.651209l0.025725,-0.005562l-0.001838,-0.02225l-0.06615,-0.011125l-0.011025,0.018542l0.053288,0.020396Z M1599.35848,714.534398l0.031238,0.003708l0.02205,-0.025958l-0.018375,-0.018542l-0.045938,0.001854l-0.011025,0.020396l0.02205,0.018542Z M1599.384205,714.439836l0.020213,-0.007417l-0.011025,-0.027812l-0.03675,-0.003708l-0.011025,0.024104l0.038588,0.014833Z M1599.376855,714.317462l0.020213,-0.018542v-0.033375l-0.011025,-0.020396l-0.033075,0.014833v0.035229l0.023888,0.02225Z M1599.375018,714.170984l0.018375,-0.007417l0.005513,-0.040791l-0.016538,-0.016687l-0.025725,0.016687l-0.003675,0.024104l0.02205,0.024104Z M1599.356643,714.024506l0.02205,-0.009271v-0.048208l-0.0147,-0.027812l-0.023888,0.016687l-0.009188,0.031521l0.025725,0.037083Z M1598.12184,714.07086l0.018375,0.007417l0.009188,-0.018542l-0.009188,-0.024104h-0.0147l-0.003675,0.035229Z M1598.322128,713.855779l0.025725,-0.003708l0.001838,-0.014833l-0.040425,-0.014833l-0.00735,0.007417l0.020213,0.025958Z M1598.770479,714.145026l0.020213,-0.011125l-0.009188,-0.025958h-0.020213l-0.0147,0.027812l0.023888,0.009271Z M1598.996492,713.891007l0.023888,-0.001854v-0.020396l-0.027563,-0.016687l-0.011025,0.020396l0.0147,0.018542Z M1599.264767,713.7538l0.027563,0.001854l0.0147,-0.024104l-0.016538,-0.035229l-0.023888,0.005562l-0.001838,0.051916Z M1599.272117,713.581364l0.011025,-0.020396l-0.016538,-0.012979l-0.020213,0.007417l-0.005513,0.025958h0.031238Z M1599.235367,713.496074l0.0294,-0.009271l0.001838,-0.066749l-0.023888,-0.007417l-0.020213,0.025958l0.012863,0.057479Z M1598.115469,713.360396l0.023888,-0.014833l-0.009188,-0.016687l-0.034913,0.001854l-0.005513,0.020396l0.025725,0.009271Z M1598.586627,713.290521l0.012863,-0.014833l-0.0147,-0.020396l-0.023888,0.007417l0.001838,0.02225l0.023888,0.005562Z M1598.763027,713.162585l0.020213,-0.018542l-0.009188,-0.02225h-0.033075l-0.00735,0.024104l0.0294,0.016687Z M1599.117666,713.170001l0.012863,-0.016687l-0.005513,-0.016687l-0.025725,0.005562l-0.005513,0.018542l0.023888,0.009271Z M1599.090103,713.101398l0.025725,-0.009271l-0.016538,-0.0445l0.009188,-0.050062l-0.018375,-0.007417l-0.025725,0.038937l0.00735,0.0445l0.018375,0.027812Z M1598.786915,713.043919l0.012863,-0.005562l-0.0147,-0.033375l-0.0147,0.001854l-0.003675,0.018542l0.020213,0.018542Z M1599.053353,712.895587l0.020213,-0.011125l-0.005513,-0.042645l-0.025725,-0.005562l-0.009188,0.029666l0.020213,0.029666Z M1599.023953,712.771359l0.02205,-0.005562v-0.025958l-0.020213,-0.020396l-0.020213,0.009271l0.018375,0.042645Z M1598.961478,712.482112l0.0147,-0.003708l0.003675,-0.048208l-0.02205,-0.029666l-0.02205,0.005562l0.005513,0.040791l0.020213,0.035229Z M1598.594322,711.621833l0.020213,-0.011125l-0.0147,-0.018542h-0.023888l-0.005513,0.018542l0.023888,0.011125Z M1598.680685,711.71454l0.03675,-0.005562l0.018375,-0.024104l-0.016538,-0.027812l-0.0441,0.001854l-0.012863,0.029666l0.018375,0.025958Z M1596.982795,708.779239l0.034588,0.002327l0.034588,-0.055843l-0.002306,-0.034902l-0.029977,0.002327l-0.036894,0.086091Z M1598.329666,708.298113h0.029977l0.002306,-0.020941l-0.032282,-0.013961l-0.013835,0.018614l0.013835,0.016287Z M1598.368866,708.554059l0.043812,0.016287l0.05073,-0.009307l0.018447,-0.041882l-0.041506,-0.016287l-0.05073,0.013961l-0.020753,0.037228Z M1598.463407,708.616882l0.023059,0.020941l0.05073,-0.004654l0.034588,-0.034902l-0.025365,-0.027921l-0.053035,0.016287l-0.029977,0.030248Z M1599.346563,708.481928l0.025365,0.016287l0.023059,-0.020941l-0.018447,-0.020941l-0.023059,0.004654l-0.006918,0.020941Z M1599.406516,708.586633l0.013835,0.018614l0.034588,-0.009307l0.006918,-0.030248l-0.029977,-0.002327l-0.025365,0.023268Z M1601.258763,713.842048l-0.001838,0.024104l0.012863,0.018542l0.02205,-0.005562l0.005513,-0.033375l-0.038588,-0.003708Z M1601.049288,713.836486l-0.005513,0.018542l0.020213,0.02225l0.027563,-0.012979l-0.003675,-0.025958l-0.038588,-0.001854Z M1601.611564,713.736362l0.0294,0.007417l0.040425,-0.033375l-0.00735,-0.029666l-0.033075,-0.011125l-0.011025,0.037083l-0.018375,0.029666Z M1601.76959,713.571342h0.02205l0.020213,-0.027812l-0.018375,-0.035229l-0.018375,0.003708l-0.005513,0.059333Z M1601.811852,713.456385l0.016538,0.016687l0.027563,-0.027812l0.005513,-0.070458l-0.027563,-0.012979l-0.02205,0.094562Z M1600.902287,713.779007l0.033075,-0.001854l0.001838,-0.031521l-0.034913,-0.035229l-0.027563,0.005562l0.027563,0.063041Z M1600.795712,713.628821h0.0294l-0.0147,-0.05377l-0.025725,-0.003708l-0.009188,0.018542l0.020213,0.038937Z M1600.43971,713.184314l0.003675,0.020396l0.02205,0.001854l0.018375,-0.033375l-0.016538,-0.02225l-0.027563,0.033375Z M1600.676639,713.163759l0.012863,-0.020396l-0.02205,-0.024104l-0.023888,0.001854l-0.001838,0.018542l0.034913,0.024104Z M1600.783324,713.11571l0.003675,-0.025958l-0.018375,-0.005562l-0.027563,0.031521l0.0147,0.020396l0.027563,-0.020396Z M1601.165525,713.201001l0.023888,-0.005562l-0.001838,-0.024104l-0.0294,-0.024104l-0.0147,0.014833l0.02205,0.038937Z M1601.422775,713.302979l0.0147,-0.020396l-0.027563,-0.063041h-0.034913v0.031521l0.047775,0.051916Z M1601.689213,713.013732l0.025725,0.042645l0.0441,0.018542l0.027563,-0.020396v-0.031521l-0.064313,-0.037083l-0.033075,0.027812Z M1601.275775,713.000753l0.009188,0.042645l0.025725,0.001854l0.02205,-0.02225l-0.03675,-0.037083l-0.020213,0.014833Z M1601.442988,712.984065l0.001838,-0.029666l-0.02205,-0.014833l-0.023888,0.009271l0.001838,0.029666l0.042263,0.005562Z M1601.435638,712.891358l0.020213,-0.012979l-0.016538,-0.02225l-0.031238,-0.001854l-0.009188,0.02225l0.03675,0.014833Z M1601.321712,712.833879l0.00735,-0.014833l-0.02205,-0.012979l-0.0147,0.009271l-0.005513,0.020396l0.034913,-0.001854Z M1601.130612,712.717068l0.016538,-0.014833l-0.011025,-0.012979l-0.020213,0.001854l-0.001838,0.018542l0.016538,0.007417Z M1601.1986,712.715214l0.001838,-0.018542l-0.0147,-0.007417l-0.016538,0.007417l0.001838,0.018542h0.027563Z M1601.540375,712.720776l0.003675,-0.02225l-0.02205,-0.024104l-0.020213,0.003708l-0.00735,0.016687l0.045938,0.025958Z M1601.582638,712.670714l0.023888,-0.009271l-0.00735,-0.024104h-0.020213l-0.005513,0.020396l0.009188,0.012979Z M1602.042014,712.739318v0.018542l0.023888,-0.001854l0.134138,-0.105687l0.02205,-0.05377l-0.005513,-0.063041l-0.018375,0.005562l-0.016538,0.051916l-0.047775,0.064895l-0.091875,0.083437Z M1601.968514,712.514965l0.016538,-0.007417l-0.012863,-0.020396l-0.018375,-0.001854l-0.005513,0.016687l0.020213,0.012979Z M1600.994637,712.807921l0.020213,-0.016687l-0.016538,-0.016687l-0.023888,0.005562v0.016687l0.020213,0.011125Z M1600.840286,712.915462h0.0294l0.003675,-0.024104l-0.027563,-0.011125l-0.009188,0.014833l0.003675,0.020396Z M1600.490917,712.840635l0.011025,0.012979l0.033075,-0.009271v-0.02225l-0.02205,-0.001854l-0.02205,0.020396Z M1600.132604,712.794281l0.03675,0.007417l0.0147,-0.020396l-0.02205,-0.029666l-0.040425,-0.003708l-0.009188,0.012979l0.020213,0.033375Z M1600.421092,712.605158l-0.016538,-0.02225l-0.018375,0.005562l-0.003675,0.02225l0.012863,0.014833l0.025725,-0.020396Z M1599.967898,712.329033l0.02205,-0.011125l-0.001838,-0.018542l-0.033075,-0.001854l-0.005513,0.012979l0.018375,0.018542Z M1601.029549,712.566882l0.012863,0.014833l0.0294,-0.005562v-0.02225h-0.027563l-0.0147,0.012979Z M1601.261075,712.477882l0.011025,-0.020396l-0.00735,-0.020396l-0.033075,0.003708v0.024104l0.0294,0.012979Z M1601.450338,712.41855l0.023888,-0.007417l-0.005513,-0.02225l-0.03675,-0.011125l-0.005513,0.025958l0.023888,0.014833Z M1601.307012,712.32028l0.0147,-0.014833l-0.016538,-0.014833l-0.027563,0.003708l0.001838,0.014833l0.027563,0.011125Z M1601.531188,712.259093l0.012863,-0.012979l-0.012863,-0.025958l-0.020213,0.001854l-0.003675,0.014833l0.023888,0.02225Z M1601.691051,712.266509v-0.027812l-0.027563,-0.005562l-0.0147,0.011125l0.012863,0.031521l0.0294,-0.009271Z M1601.093862,712.073678l0.018375,0.007417l0.025725,-0.0445l-0.011025,-0.014833l-0.020213,0.001854l-0.012863,0.050062Z M1599.831643,711.693597l0.012863,-0.005562l0.001838,-0.029666l-0.016538,-0.005562l-0.009188,0.018542l0.011025,0.02225Z M1599.776517,711.437724l0.011025,-0.025958l-0.03675,-0.018542l-0.02205,0.016687l0.009188,0.02225l0.038588,0.005562Z M1599.585417,711.339454l0.023888,-0.001854l-0.086363,-0.046354l-0.018375,0.001854l0.001838,0.014833l0.079013,0.031521Z M1599.383291,711.10954l0.016538,-0.012979l-0.02205,-0.014833l-0.025725,0.005562l0.005513,0.020396l0.025725,0.001854Z M1599.320816,711.098415l0.0147,-0.012979l-0.009188,-0.020396l-0.02205,-0.001854l-0.009188,0.016687l0.025725,0.018542Z M1599.012836,710.094413l0.005513,-0.016687l-0.020213,-0.007417l-0.009188,0.009271l0.00735,0.020396l0.016538,-0.005562Z M1599.240687,710.146329l0.016538,-0.016687l-0.020213,-0.024104l-0.034913,0.007417l-0.027563,0.024104l0.0147,0.016687l0.05145,-0.007417Z M1599.446487,710.05733l-0.003675,-0.031521l-0.0294,-0.007417l-0.02205,0.029666l0.011025,0.02225l0.0441,-0.012979Z M1599.075311,709.545585l0.016538,0.016687l0.016538,-0.02225l-0.003675,-0.027812l-0.02205,-0.014833l-0.00735,0.048208Z M1598.806929,709.208324l0.018447,0.011634l0.048424,-0.023268l0.016141,-0.030248l-0.029977,-0.020941l-0.025365,0.00698l-0.027671,0.055843Z M1599.284248,709.022182l0.009224,0.032575l0.043812,0.013961l0.032282,-0.030248l-0.002306,-0.037228l-0.055341,-0.00698l-0.027671,0.027921Z M1599.706092,709.438665l0.020753,0.025595l0.027671,-0.004654l0.025365,-0.048862l-0.009224,-0.032575h-0.043812l-0.020753,0.060496Z M1599.994328,709.522429l0.002306,0.034902l0.029977,0.011634l0.023059,-0.030248l-0.025365,-0.027921l-0.029977,0.011634Z M1600.291787,709.55035l-0.006918,0.023268l0.020753,0.013961l0.027671,-0.00698l-0.006918,-0.030248h-0.034588Z M1599.971269,709.247869l0.002306,0.027921l0.032282,0.013961l0.023059,-0.009307l0.009224,-0.032575l-0.009224,-0.025595l-0.029977,0.004654l-0.027671,0.020941Z M1600.363825,709.100375l0.018447,0.034902l0.029977,0.004654l0.029977,-0.025595l-0.013835,-0.034902l-0.05073,-0.009307l-0.013835,0.030248Z M1600.499873,709.272556l0.027671,0.044209l0.036894,-0.002327v-0.058169l-0.029977,-0.034902h-0.025365l-0.009224,0.051189Z M1600.59672,709.50058l0.025365,0.039555l-0.004612,0.034902l0.029977,0.013961l0.032282,-0.030248l-0.006918,-0.046536l-0.048424,-0.048862l-0.029977,0.002327l0.002306,0.034902Z M1600.762744,709.849597v0.044209l0.023059,0.013961l0.034588,-0.025595l-0.002306,-0.025595l-0.018447,-0.018614l-0.036894,0.011634Z M1600.649096,710.205289l0.018447,-0.011634l-0.0392,-0.023268l-0.013835,0.025595l0.034588,0.009307Z M1600.69752,710.379797l0.006918,-0.027921l-0.018447,-0.020941l-0.029977,0.013961l0.004612,0.030248l0.036894,0.004654Z M1600.526884,710.7102l0.020753,-0.018614l-0.013835,-0.030248h-0.023059l-0.006918,0.034902l0.023059,0.013961Z M1600.686567,710.640178l0.025725,0.003708l0.00735,-0.035229l-0.027563,-0.02225l-0.018375,0.018542l0.012863,0.035229Z M1600.388406,711.521161l0.020213,0.007417l0.047775,-0.038937l-0.0147,-0.024104l-0.042263,0.020396l-0.011025,0.035229Z M1600.936467,710.78851l0.005513,-0.048208l-0.023888,-0.016687l-0.023888,0.014833l0.016538,0.063041l0.025725,-0.012979Z M1600.89053,711.025842h0.031238l0.003675,-0.074166l-0.020213,-0.029666l-0.0294,0.001854l-0.0147,0.031521l0.0294,0.070458Z M1600.870317,711.187153v0.025958l0.027563,0.016687l0.025725,-0.009271v-0.025958l-0.020213,-0.014833l-0.033075,0.007417Z M1600.954231,711.347922l-0.005513,0.020396l0.03675,0.016687l0.016538,-0.018542l-0.025725,-0.02225l-0.02205,0.003708Z M1600.985469,711.453609l0.012863,0.027812l0.045938,-0.014833l0.003675,-0.027812l-0.031238,-0.003708l-0.031238,0.018542Z M1601.068137,711.825222l0.018375,-0.014833l-0.009188,-0.02225l-0.027563,-0.001854l-0.011025,0.031521l0.0294,0.007417Z M1601.182062,711.608286l0.009188,-0.025958l-0.018375,-0.024104l-0.02205,0.005562l-0.003675,0.031521l0.034913,0.012979Z M1601.325387,711.671327l0.018375,-0.024104l-0.031238,-0.016687l-0.02205,0.02225l0.003675,0.024104l0.031238,-0.005562Z M1601.474225,711.721389l0.018375,-0.02225l-0.023888,-0.020396l-0.033075,0.003708l-0.001838,0.024104l0.040425,0.014833Z M1602.075089,712.242405v0.027812l0.020213,0.029666l0.033075,-0.003708l0.016538,-0.037083l-0.0147,-0.038937h-0.025725l-0.0294,0.02225Z M1602.021802,712.10149l0.009188,0.051916l0.016538,0.014833l0.018375,-0.014833l-0.020213,-0.05377l-0.023888,0.001854Z M1601.904201,711.977262l-0.009188,0.009271l0.0147,0.037083l0.020213,-0.007417l-0.003675,-0.025958l-0.02205,-0.012979Z M1601.586313,711.739931l0.011025,-0.016687l-0.016538,-0.014833h-0.018375l0.001838,0.027812l0.02205,0.003708Z M1601.617551,711.704702h0.023888l-0.003675,-0.025958l-0.020213,-0.009271l-0.011025,0.016687l0.011025,0.018542Z M1601.722288,711.728806l0.069825,0.129791l0.064313,0.046354l0.016538,-0.033375l-0.05145,-0.051916l-0.082688,-0.129791l-0.0441,-0.018542l-0.00735,0.020396l0.034913,0.037083Z M1599.315631,708.050181l0.034913,0.005562l0.0147,-0.018542l-0.011025,-0.025958l-0.038588,-0.001854l-0.009188,0.02225l0.009188,0.018542Z M1598.29569,707.869287l0.045938,0.005562l0.009188,-0.035229l-0.042263,-0.011125l-0.018375,0.020396l-0.062475,0.007417l0.020213,0.029666l0.047775,-0.016687Z M1598.650328,707.824788l0.053288,-0.009271l0.016538,-0.033375l-0.0588,-0.014833l-0.045938,0.018542l-0.00735,0.02225l0.042263,0.016687Z M1598.846941,707.885975l0.045938,-0.024104l0.005513,-0.0445l-0.053288,-0.020396l-0.0441,0.024104v0.051916l0.045938,0.012979Z M1599.317343,707.70983l0.033075,0.001854l0.025725,-0.064895l-0.033075,-0.040791l-0.033075,-0.018542l-0.031238,0.018542l-0.003675,0.050062l0.042263,0.05377Z M1598.470253,707.190668l0.016538,-0.016687l-0.031238,-0.020396l-0.040425,0.012979l0.00735,0.020396l0.047775,0.003708Z M1598.35449,707.018232l0.077175,-0.038937l-0.016538,-0.020396l-0.075338,0.029666l-0.0588,-0.007417l-0.016538,0.025958l0.020213,0.016687l0.069825,-0.005562Z M1598.578666,707.099815l0.00735,-0.033375l-0.025725,-0.018542l-0.027563,0.011125l0.00735,0.035229l0.038588,0.005562Z M1598.948004,707.047899l0.023888,-0.001854l0.009188,-0.024104l-0.020213,-0.024104l-0.027563,0.009271l-0.005513,0.025958l0.020213,0.014833Z M1598.606228,706.678923v0.018542l0.018375,0.025958l0.020213,-0.005562l0.00735,-0.033375l-0.020213,-0.016687l-0.025725,0.011125Z M1598.514353,706.4898l0.023888,0.016687l0.023888,-0.016687l0.005513,-0.029666l-0.018375,-0.014833l-0.023888,0.012979l-0.011025,0.031521Z M1599.001292,707.420583l0.003675,0.025958l0.033075,0.035229l0.027563,-0.007417l0.005513,-0.033375l-0.027563,-0.035229l-0.042263,0.014833Z M1599.153805,707.097961l0.025725,-0.001854l0.001838,-0.029666l-0.020213,-0.027812l-0.025725,0.007417l0.001838,0.031521l0.016538,0.020396Z M1599.453322,707.357246h0.027563l0.011025,-0.042645l-0.003675,-0.057479l-0.053288,-0.048208l-0.031238,0.009271l-0.003675,0.050062l0.016538,0.07602l0.03675,0.012979Z M1599.548872,707.092102l0.02205,-0.025958l0.00735,-0.05377l-0.033075,-0.050062l-0.0294,-0.007417l-0.02205,0.025958l0.001838,0.07602l0.018375,0.035229h0.034913Z M1599.728948,706.919666l0.023888,0.003708l0.064313,-0.109395v-0.087145l-0.020213,-0.018542l-0.047775,0.027812l-0.003675,0.035229l0.018375,0.037083l-0.005513,0.055625l-0.0294,0.055625Z M1599.14278,706.66409l0.025725,-0.014833l-0.018375,-0.040791l-0.023888,-0.016687l-0.0147,0.018542l0.0147,0.042645l0.016538,0.011125Z M1599.218117,706.560257l-0.001838,-0.037083l-0.02205,-0.042645l-0.02205,0.001854v0.0445l0.023888,0.033375h0.02205Z M1599.357768,706.528737l0.003675,-0.031521l-0.016538,-0.046354l-0.027563,-0.014833l-0.020213,0.025958l-0.005513,0.035229l0.03675,0.038937l0.0294,-0.007417Z M1600.024786,706.584065l0.0294,-0.02225l0.091875,-0.118666l0.0588,-0.129791l0.001838,-0.050062l-0.034913,0.001854l-0.05145,0.057479l-0.020213,0.109395l-0.0735,0.116811l-0.001838,0.035229Z M1599.368797,706.215089l-0.00735,-0.027812l-0.025725,-0.003708l-0.012863,0.016687l0.016538,0.025958l0.0294,-0.011125Z M1599.589297,706.317067l-0.016538,-0.027812h-0.020213l-0.005513,0.016687l0.023888,0.02225l0.018375,-0.011125Z M1599.765698,706.24661l0.011025,0.025958l0.027563,0.016687l0.016538,-0.003708l-0.034913,-0.085291l-0.018375,-0.007417l-0.001838,0.05377Z M1598.8431,705.772424l0.023059,0.016287l0.032282,-0.030248l-0.016141,-0.034902l-0.027671,-0.002327l-0.011529,0.051189Z M1598.916888,705.800345l0.013835,0.039555l0.032282,0.013961l0.004612,-0.030248l-0.034588,-0.041882l-0.016141,0.018614Z M1599.016041,705.82594l0.002306,0.053516l0.025365,0.030248l0.025365,-0.009307l0.004612,-0.037228l-0.0392,-0.046536l-0.018447,0.009307Z M1599.349656,705.856982l-0.012349,-0.043407v-0.041882l-0.025365,0.009307l-0.006918,0.032575l0.020753,0.034902l0.023878,0.008506Z M1599.697026,705.862437l0.018447,0.034902h0.029977l0.013835,-0.032575l-0.032282,-0.025595l-0.029977,0.023268Z M1599.978344,705.874071v0.051189l0.041506,0.023268h0.041506l-0.002306,-0.027921l-0.05073,-0.046536h-0.029977Z M1600.063662,705.832189v0.027921l0.023059,0.020941l0.018447,-0.00698l-0.004612,-0.034902l-0.023059,-0.020941l-0.013835,0.013961Z M1599.98065,705.755405v0.037228l0.023059,0.004654l0.006918,-0.016287l-0.011529,-0.025595h-0.018447Z M1599.710861,705.522728l0.025365,0.046536l0.027671,-0.009307l-0.018447,-0.07213l-0.043812,-0.025595l-0.029977,0.013961l0.004612,0.034902l0.034588,0.011634Z M1599.839991,705.476192l-0.006918,-0.027921l-0.029977,0.00698l0.009224,0.030248l0.027671,-0.009307Z M1599.978344,705.450598l0.011529,0.018614h0.055341l0.032282,-0.011634l0.011529,-0.030248l-0.027671,0.004654l-0.032282,0.016287l-0.05073,0.002327Z M1600.395157,705.104768l-0.00928,0.078031h0.024746l0.040212,-0.112364l-0.003093,-0.065546l-0.049491,-0.015606l-0.040212,0.018727l0.003082,0.058669l0.034036,0.038089Z M1600.504086,705.304011l0.014988,0.028503l-0.001153,0.180907l-0.020753,0.032575l-0.047919,-0.000254l-0.01434,0.042136l0.034484,0.056862l0.061864,-0.012485l0.018946,-0.086259l0.008893,-0.110378l-0.018559,-0.171667l-0.046398,-0.006242l-0.038477,0.027689l0.009224,0.025595l0.0392,-0.00698Z M1597.699227,704.268113l0.017294,0.020941l0.027671,-0.013961l0.003459,-0.038392h-0.027671l-0.020753,0.031411Z M1598.145416,704.104075v0.034902l0.013835,0.017451l0.020753,-0.017451l-0.010376,-0.031411l-0.024212,-0.00349Z M1598.034734,704.714854l-0.006918,0.017451l0.027671,0.020941l0.031129,-0.00349l-0.020753,-0.038392l-0.031129,0.00349Z M1598.276852,704.906813l0.034588,-0.017451l-0.017294,-0.048862l-0.0588,-0.013961l0.003459,0.034902l0.038047,0.045372Z M1598.463629,705.032459l-0.010376,0.034902l0.027671,0.041882l0.041506,-0.013961l-0.006918,-0.041882l-0.024212,-0.027921l-0.027671,0.00698Z M1598.857936,705.084812l-0.013835,0.024431l0.008903,0.023519l0.015308,-0.002578l0.010376,-0.020941l-0.020753,-0.024431Z M1598.588147,704.781167l-0.010376,-0.024431l-0.024212,0.00698l0.003459,0.031411l0.031129,-0.013961Z M1598.5501,704.693913v-0.020941l-0.024212,-0.00698l-0.006918,0.027921h0.031129Z M1600.311545,705.983429l-0.038047,0.020941l0.031129,0.048862l0.059598,0.006629l0.071837,-0.065961l-0.010376,-0.048862l-0.051882,-0.020941l-0.034588,0.017451l0.020753,0.034902l-0.024212,0.024431l-0.024212,-0.017451Z M1598.944407,704.718344l0.038047,0.013961l0.024212,-0.031411l-0.035347,-0.070551l-0.047665,-0.051605l-0.009027,0.021758l0.022863,0.051535l0.006918,0.066313Z M1598.889977,704.528366l0.019841,-0.012452l-0.026091,-0.034428l-0.033188,-0.020275l-0.00493,0.017411l0.017254,0.012436l0.027114,0.037308Z M1598.781841,704.460072l0.020753,-0.024431l-0.027671,-0.027921l-0.020516,0.016183l0.012324,0.022385l0.015109,0.013784Z M1598.675532,704.411467l0.009463,-0.017708l-0.027671,-0.034902l-0.013836,0.015301l0.007395,0.024872l0.024649,0.012436Z M1598.486653,704.262038l0.028858,-0.004396l0.024212,-0.055843l-0.040697,-0.055247l-0.035397,-0.021537l-0.027671,0.013961l0.048424,0.055843l0.002271,0.067219Z M1598.261429,704.055794l0.036973,0.017411l0.027114,-0.007462l0.019719,-0.022385l-0.036973,-0.009949l-0.046833,0.022385Z M1598.308262,704.96363l0.019719,0.104463l0.027114,0.022385l0.019719,-0.009949v-0.039796l-0.046833,-0.084566l-0.019719,0.007462Z M1600.426089,709.664871l0.012373,0.031212l0.030932,0.012485l0.018559,-0.02497l-0.012373,-0.037455l-0.030932,-0.003121l-0.018559,0.021849Z M1600.961213,710.513843l0.012373,-0.040576l-0.027839,-0.084273l-0.006186,-0.074909h-0.021652l-0.00928,0.090515l0.015466,0.099879l0.037118,0.009364Z M1600.967399,710.257903l0.052584,-0.081152l-0.006186,-0.068667l-0.030932,-0.034333l-0.018559,0.021849l0.015466,0.059303l-0.040212,0.090515l0.027839,0.012485Z M1599.890966,711.793543l0.030932,-0.012485l0.006186,-0.021849h-0.034025l-0.027839,0.021849l0.024746,0.012485Z M1600.342573,710.83845v0.034333l0.021652,0.015606l0.018559,-0.021849l-0.027839,-0.046818l-0.012373,0.018727Z M1600.608588,709.933296l0.037118,-0.021849l-0.021652,-0.018727l-0.024746,0.006242l-0.012373,0.021849l0.021652,0.012485Z M1601.18083,713.547669l0.006186,-0.037455l-0.024746,-0.018727l-0.024746,0.015606l0.006186,0.043697l0.037118,-0.003121Z M1601.332397,713.572639h0.037118l0.030932,-0.028091l-0.018559,-0.02497l-0.034025,0.015606l-0.015466,0.037455Z M1600.636427,713.413457l0.027839,-0.006242l0.003093,-0.02497l-0.037118,-0.003121l-0.021652,0.018727l0.027839,0.015606Z M1598.295938,712.601891l0.046833,-0.052232l0.032044,-0.012436l0.00493,-0.017411l-0.041903,0.002487l-0.046833,0.052232l0.00493,0.027359Z M1598.463551,712.373066l0.073947,0.042283l0.002465,-0.014923l-0.054228,-0.047257l0.002465,-0.067155l0.039438,-0.109438l0.071482,-0.087053l-0.002465,-0.022385l-0.017254,0.002487l-0.086271,0.109438l-0.032044,0.114412l0.002465,0.079591Z M1600.008507,716.341161l0.018559,-0.021849l-0.015466,-0.02497l-0.030932,0.015606l-0.006186,0.028091l0.034025,0.003121Z M1599.887873,716.768769l0.018559,0.021849l0.037118,0.003121l0.006186,-0.02497l-0.034025,-0.015606l-0.027839,0.015606Z M1599.56618,717.452316l0.030932,0.031212l0.040212,0.018727l0.021652,-0.018727l-0.037118,-0.034333l-0.030932,-0.009364l-0.024746,0.012485Z M1599.519782,717.542831l0.058771,0.018727l0.027839,-0.009364l-0.00928,-0.028091l-0.052584,-0.018727l-0.034025,0.012485l0.00928,0.02497Z M1599.937364,717.183891l0.052584,0.018727l0.027839,-0.018727l-0.024746,-0.037455l-0.061864,-0.009364l-0.012373,0.02497l0.018559,0.021849Z M1599.770331,717.330588l0.043305,0.012485l0.024746,-0.015606l-0.021652,-0.031212l-0.037118,0.003121l-0.00928,0.031212Z M1599.813636,717.246315l0.027839,0.040576l0.030932,0.006242l0.015466,-0.028091l-0.034025,-0.021849l-0.040212,0.003121Z M1598.084537,718.020378l0.027839,0.02497l0.024746,0.003121v-0.02497l-0.027839,-0.018727l-0.024746,0.015606Z M1602.639081,720.309793l0.029579,0.012436l0.024649,0.049744l0.019719,0.009949l0.00493,-0.027359l-0.036973,-0.062181l-0.027114,-0.002487l-0.014789,0.019898Z M1602.838737,720.603285l0.029579,0.027359h0.027114l-0.014789,-0.042283l-0.029579,-0.009949l-0.012324,0.024872Z M1602.927473,720.824648h0.029579l0.022184,-0.024872l-0.022184,-0.009949l-0.019719,0.014923l-0.00986,0.019898Z M1602.860921,720.710236l0.014789,-0.024872l-0.017254,-0.032334l-0.022184,0.017411l0.007395,0.032334l0.017254,0.007462Z M1601.720176,749.14082l0.024746,-0.024746l0.015466,-0.030932l-0.027839,-0.003093l-0.052584,0.037118l-0.003093,0.030932l0.043305,-0.00928Z M1602.233648,748.751077l0.027839,-0.015466l0.018559,-0.043305l-0.012373,-0.021652l-0.021652,0.012373l-0.021652,0.043305l0.00928,0.024746Z M1599.168383,747.58262l0.00493,-0.019719l-0.012324,-0.017254l-0.017254,0.012324l0.002465,0.022184l0.022184,0.002465Z M1599.7008,747.981933l0.012324,-0.007395l-0.012324,-0.017254h-0.022184l0.002465,0.017254l0.019719,0.007395Z M1598.789787,730.726866l0.034405,-0.024798l-0.00983,-0.019838l-0.02949,0.007439l-0.014745,0.027278l0.01966,0.009919Z M1602.910868,720.723848l-0.002458,0.024798l0.00983,0.022318l0.017203,-0.019838v-0.029757l-0.024575,0.00248 Z M1602.578577,723.001846v0.024798l0.024575,0.014879l0.022118,-0.014879l-0.012288,-0.024798h-0.034405Z M1598.593644,735.711072l-0.004915,0.034717l0.01966,0.009919l0.024575,-0.022318l-0.012288,-0.022318h-0.027033Z M1602.780546,730.477063l0.011645,0.031654l0.020302,-0.001896l0.004915,-0.032237l-0.022118,-0.014879l-0.014745,0.017358Z M1599.789004,747.757609l0.012288,0.014745l0.01966,-0.004915l-0.002458,-0.024575l-0.024575,-0.004915l-0.004915,0.01966Z M1600.94031,747.447568l0.005638,0.020961l0.028767,-0.003759v-0.022118l-0.01966,-0.012288l-0.014745,0.017203Z M1600.077858,747.602949l0.024575,0.00983l0.014745,-0.00983l-0.004915,-0.024575h-0.024575l-0.00983,0.024575Z M1600.708728,747.012809l-0.009252,0.021588l0.018504,0.01542l0.027756,-0.018504l-0.006168,-0.021588l-0.030839,0.003084Z M1599.623015,747.641915l-0.012866,0.017347l0.022118,0.012288l0.024575,-0.007373l0.007373,-0.01966l-0.0412,-0.002602Z M1600.613228,738.643842l0.021588,-0.015559l-0.024672,-0.018671l-0.043175,0.003112l0.006168,0.024895l0.040091,0.006224Z M1601.69544,747.70238l0.018504,-0.012336l-0.01542,-0.021588l-0.037007,0.006168l0.003084,0.024672l0.030839,0.003084Z M1597.128738,724.80279l0.014745,-0.034717l-0.027033,-0.00496l-0.03932,0.024798l0.002458,0.024798l0.04915,-0.009919Z M1598.763029,733.284515v0.017358h0.022118l0.03932,-0.019838l0.004915,-0.017358l-0.034405,0.00248l-0.031948,0.017358Z M1602.105697,723.466908l0.03301,0.046428l-0.002465,0.029847l0.022039,0.001756l0.003093,-0.043697l-0.034025,-0.059303l-0.025616,-0.013168l-0.012324,0.017411l0.016288,0.020727Z "/>
</svg>
