<svg xmlns="http://www.w3.org/2000/svg" viewBox="1774.944 706.646 32.366 36.152">
  <path d="M1776.691047,708.692737l-0.121235,-0.056121l-0.02957,-0.073843l0.011828,-0.082705l0.038441,-0.008861l0.065053,0.056121l0.050268,0.144733l-0.014785,0.020676Z M1775.295361,709.525691l0.053225,-0.02363l0.026613,-0.044306l-0.014785,-0.020676l-0.065053,0.008861l-0.038441,0.062028l0.038441,0.017722Z M1775.444194,710.032749l0.026613,-0.026584l0.002957,-0.038399l-0.056182,-0.029537l-0.017742,0.017722l0.017742,0.062028l0.026613,0.014769Z M1776.605295,709.416402l0.133063,0.011815l0.053225,0.059075l0.023656,-0.005907l0.005914,-0.062028l0.038441,-0.050214l-0.002957,-0.041352l-0.02957,-0.014769l-0.059139,0.032491l-0.141934,0.002954l-0.050268,0.017722l-0.008871,0.026584l0.038441,0.02363Z M1776.253416,709.980566l0.133063,0.002954l0.035484,-0.079751l-0.035484,-0.026584l-0.008871,-0.035445l0.023656,-0.032491l-0.002957,-0.050214l-0.09758,-0.059075l-0.091666,0.041352l-0.041397,0.138826l0.023656,0.079751l0.062096,0.020676Z M1775.635411,710.222773l0.017742,-0.067936l-0.035484,-0.038399l0.005914,-0.029537l0.035484,-0.011815l0.023656,-0.053167l-0.047311,-0.067936l-0.056182,-0.002954l-0.082795,0.124057l0.026613,0.112242l0.059139,0.038399l0.053225,-0.002954Z M1776.170621,710.187328l0.044354,-0.127011l-0.014785,-0.044306l-0.038441,-0.020676l-0.035484,-0.100427l0.014785,-0.112242l0.026613,-0.079751l0.062096,-0.038399l0.02957,-0.041352l0.002957,-0.079751l-0.023656,-0.008861l-0.050268,0.017722l-0.059139,0.067936l-0.124192,0.041352l-0.070967,0.150641v0.050214l-0.047311,0.067936l-0.079838,0.029537l-0.002957,0.059075l0.073924,0.073843l0.059139,0.162456l0.023656,0.017722l0.050268,-0.029537l0.026613,0.011815l0.005914,0.053167l0.032527,0.005907l0.094623,-0.127011Z M1775.465879,709.658609l-0.020699,-0.002954l-0.023656,0.011815l-0.005914,0.020676l0.020699,0.011815l0.026613,-0.017722l0.002957,-0.02363Z M1776.414078,709.605442l0.023656,-0.013784l-0.007885,-0.036429l-0.026613,-0.008861l-0.012814,0.033476l0.023656,0.025599Z M1775.491506,709.908692l0.017742,-0.011815l-0.014785,-0.032491h-0.023656l-0.005914,0.020676l0.026613,0.02363Z M1775.638368,709.676331l0.053225,-0.064982l0.059139,-0.029537l0.091666,0.011815l0.09758,-0.050214l0.070967,-0.165409l0.09758,-0.038399l0.147848,-0.002954l0.062096,0.026584l0.011828,0.056121l0.034498,0.073843l0.043369,0.005907l0.019713,-0.009846l-0.008871,-0.037414l0.017742,-0.029537l0.094623,-0.032491l0.020699,-0.056121l0.115322,-0.035445l0.073924,-0.044306l-0.002957,-0.103381l-0.062096,-0.106335l0.002957,-0.029537l0.041397,-0.011815l0.020699,-0.100427l-0.017742,-0.059075l-0.059139,-0.026584l-0.050268,-0.109288l-0.183332,-0.112242l-0.059139,-0.062028l-0.005914,-0.109288l-0.056182,-0.079751l-0.13602,-0.035445l-0.038441,0.032491l0.002957,0.032491l0.106451,0.026584l0.032527,0.056121l-0.020699,0.02363l-0.118279,-0.02363l-0.082795,0.014769l-0.079838,0.127011l-0.053225,0.035445l-0.153762,0.014769l-0.085752,-0.017722l-0.073924,0.017722l-0.088709,0.115196l-0.011828,-0.002954l0.020699,-0.085658l-0.008871,-0.062028l-0.047311,-0.035445l-0.239514,-0.005907l-0.091666,0.044306l-0.053225,0.002954l-0.079838,-0.059075l-0.050268,0.005907l-0.014785,0.085658l0.023656,0.091566l0.005914,0.209715l0.059139,0.106335l0.050268,0.014769l0.050268,-0.017722l0.248385,0.026584l0.073924,0.059075l0.023656,0.132918l-0.041397,0.076797v0.073843l0.076881,0.121103l0.014785,0.150641l0.032527,0.017722l0.076881,-0.038399Z M1801.627132,719.460144l0.06118,-0.051266l-0.008675,-0.061561l-0.041384,-0.022623l-0.046313,0.033567l-0.016253,0.076859l0.051444,0.025024Z M1803.000139,733.416984l0.01819,-0.046201l-0.023564,-0.047605l-0.051825,0.001292l-0.012047,0.035572l0.042718,0.058652l0.026527,-0.001709Z M1798.892898,716.611059l-0.003827,0.046546l0.02355,0.017115l0.038016,-0.028746l-0.003301,-0.054941l-0.032578,-0.013044l-0.021859,0.033071Z M1780.926315,724.637163l0.00189,-0.016409l-0.028442,-0.042064l-0.020236,0.001623l0.000446,0.016053l0.02507,0.032809l0.021272,0.007987Z M1802.66972,734.778729l0.043215,0.010139l0.008369,-0.025743l-0.027909,-0.030268l-0.030543,0.013566l0.006867,0.032306Z M1794.990058,711.709153v0.024548l0.024575,0.014729l0.022118,-0.014729l-0.012288,-0.024548h-0.034405Z M1797.539346,714.153857l0.018826,0.015779l0.027092,-0.009338l0.002922,-0.026392l-0.026724,-0.006377l-0.022115,0.026327Z M1798.177322,713.969419l0.005638,0.020938l0.028767,-0.003754v-0.022094l-0.01966,-0.012274l-0.014745,0.017184Z M1780.799973,724.680295l0.005638,0.020938l0.028767,-0.003754v-0.022094l-0.01966,-0.012274l-0.014745,0.017184Z M1797.561078,713.756054l0.024575,0.009819l0.014745,-0.009819l-0.004915,-0.024548h-0.024575l-0.00983,0.024548Z M1797.514114,713.963149l-0.009252,0.055451l0.037007,0.023104l0.060137,-0.023104v-0.041588l-0.041633,-0.023104l-0.046259,0.009242Z M1792.679555,737.169898l-0.040459,0.008458l-0.012302,0.037791l0.039813,0.045253l0.044876,-0.008536l0.00407,-0.036745l-0.035998,-0.046221Z M1789.560788,735.184453l-0.038374,0.015348l-0.005545,0.039351l0.047075,0.037659l0.04271,-0.016191l-0.00238,-0.036893l-0.043485,-0.039274Z M1798.763176,741.481196l0.020776,0.029036l0.040393,-0.010811l0.024342,-0.0303l-0.014863,-0.039268l-0.042459,-0.000903l-0.02819,0.052247Z M1804.431265,731.937342l0.02949,-0.036782l-0.022077,-0.047849l-0.063909,0.017374l-0.014052,0.047971l0.032708,0.038938l0.03784,-0.019653Z M1797.521913,712.993325l0.021344,0.006239l0.006625,-0.02566l-0.028513,-0.024358l-0.016917,0.018201l0.017461,0.025579Z M1801.560994,719.139452l-0.013982,-0.032138l-0.036443,-0.008537l-0.000146,0.027446l0.015444,0.026918l0.026415,0.007848l0.008713,-0.021536Z M1800.554724,742.796857l0.025909,-0.005407l0.001421,-0.022184l-0.019081,-0.033273l-0.024342,0.010669l-0.000707,0.032281l0.016801,0.017916Z M1794.899992,711.857851l0.012567,0.023538l0.029847,-0.001569l0.011984,-0.023088l-0.014745,-0.022094l-0.023943,0.002814l-0.015709,0.020399Z M1803.44906,734.792382l0.042125,0.011629l0.012336,-0.015403l-0.013618,-0.029179l-0.03613,-0.007846l-0.012567,0.015692l0.007854,0.025107Z M1802.159717,733.455311l0.02476,0.029283l0.020693,-0.007102l0.006943,-0.028352l-0.019808,-0.028463l-0.0236,0.006993l-0.008988,0.027641Z M1794.905167,711.754563l0.025134,-0.003138l0.006284,-0.028245l-0.021992,-0.01883l-0.028276,0.007846l-0.001571,0.023538l0.020422,0.01883Z M1803.409021,734.709718l0.025134,-0.003138l0.006284,-0.028245l-0.021992,-0.01883l-0.028276,0.007846l-0.001571,0.023538l0.020422,0.01883Z M1796.478754,712.825039l-0.043192,-0.024684l-0.023868,0.013596l0.020601,0.04362l0.037479,0.010245l0.026053,-0.018633l-0.017073,-0.024144Z M1807.02822,734.835868l0.046693,-0.017184l0.004915,-0.027003l-0.046693,-0.012274l-0.031948,0.022094l-0.002458,0.031913l0.02949,0.002455Z M1802.246082,733.57671l0.029818,0.021789l0.020168,-0.008732l-0.023434,-0.048483l-0.038928,-0.02622l-0.017073,0.024144l0.02945,0.037503Z M1780.920277,723.365906l-0.012608,-0.034602l-0.032755,-0.003766l-0.017626,0.037757l0.01996,0.047603l0.033383,-0.001688l0.009645,-0.045305Z M1804.402438,736.72626l0.022184,-0.009849l0.007395,-0.02216l-0.014789,-0.017235l-0.027114,0.012311l-0.00493,0.019698l0.017254,0.017235Z M1800.745657,742.503782l0.00986,-0.039395l-0.017254,-0.014773l-0.017254,0.02216l0.002465,0.029546l0.022184,0.002462Z M1778.490432,716.58813l0.00986,-0.039395l-0.017254,-0.014773l-0.017254,0.02216l0.002465,0.029546l0.022184,0.002462Z M1804.388641,731.777774l0.007395,-0.019698l-0.017254,-0.009849l-0.017254,0.014773l0.00493,0.019698l0.022184,-0.004924Z M1780.880334,724.28078l0.007395,-0.019698l-0.017254,-0.009849l-0.017254,0.014773l0.00493,0.019698l0.022184,-0.004924Z M1801.695831,719.531569l0.002465,-0.02216l-0.022184,-0.004924l-0.019719,0.014773l0.014789,0.017235l0.024649,-0.004924Z M1798.151918,713.829376l-0.022184,0.007387v0.027084l0.022184,0.004924l0.007395,-0.019698l-0.007395,-0.019698Z M1780.917701,724.492381l0.024649,-0.019698l-0.002465,-0.027084l-0.032044,-0.009849l-0.022184,0.02216l0.002465,0.024622l0.029579,0.009849Z M1777.575831,711.081377l0.019719,-0.034471l-0.00493,-0.024622l-0.019719,0.007387l-0.014789,0.027084l-0.002465,0.032009l0.022184,-0.007387Z M1805.825289,734.049135l0.045811,0.090086l0.059681,0.050336l0.042892,-0.023013l-0.010875,-0.083581l-0.066897,-0.077235l-0.049386,-0.001197l-0.021227,0.044603Z M1779.432151,715.140746l0.027598,-0.011815l0.007885,-0.02363l-0.01577,-0.02363l-0.031541,0.007877l-0.007885,0.027568l0.019713,0.02363Z M1779.392725,716.007175l0.07491,-0.04726l0.011828,-0.031507l-0.031541,-0.055136l-0.035484,0.011815l-0.035484,0.098458l0.01577,0.02363Z M1779.136455,716.345871l0.026613,0.002954l0.106451,-0.162456l0.121235,-0.389893l0.041397,-0.236299l0.025752,-0.071686l0.139838,-0.149844l-0.008871,-0.056121l-0.124192,-0.041352l-0.091666,-0.112242l0.017742,-0.079751l-0.044354,-0.050214l-0.147848,-0.035445l-0.050268,-0.064982l-0.153762,-0.020676l-0.112365,0.088612l-0.09758,0.011815l-0.056182,0.044306l-0.044354,-0.008861l-0.035484,-0.059075l-0.150805,-0.044306l-0.026613,0.02363l0.038441,0.079751l-0.017742,0.085658l0.005914,0.076797l0.065053,0.07089l0.008871,0.062028l-0.02957,0.224484l0.002957,0.085658l0.041397,0.067936l0.035484,0.236299l-0.017742,0.112242l-0.065053,0.044306l-0.047311,0.106335l0.017742,0.085658l0.023656,-0.002954l0.041397,-0.044306l0.209944,-0.011815l0.038441,-0.032491h0.041397l0.053225,0.062028h0.047311l0.032527,-0.017722l0.059139,0.017722l0.079838,0.103381Z M1781.064395,723.403334l0.055197,-0.015753l-0.007885,-0.212669l-0.059139,-0.177224l-0.078852,-0.04726l-0.055197,-0.063013l-0.047311,0.007877l-0.01577,0.126026l0.023656,0.133903l0.043369,0.074828l0.078852,0.059075l0.063082,0.114211Z M1797.114788,713.114482l0.118279,0.029537l0.19516,-0.224484l-0.017742,-0.053167l-0.065053,-0.029537l-0.076881,0.059075l-0.041397,-0.041352l0.011828,-0.082705l-0.059139,-0.082705l-0.088709,0.017722l-0.035484,0.224484l0.059139,0.183132Z M1795.251901,712.175193h0.059139l0.047311,-0.088612l-0.035484,-0.09452l0.005914,-0.112242l-0.065053,0.005907l-0.041397,0.194947l0.02957,0.09452Z M1795.565339,712.25199l0.070967,-0.064982l-0.041397,-0.159502l-0.076881,-0.02363l-0.094623,0.141779l0.011828,0.100427l0.130106,0.005907Z M1804.298235,736.620325l0.003943,-0.035445l-0.114336,-0.153594l-0.086738,-0.019692l-0.007885,0.039383l0.09068,0.07089l0.055197,0.09452l0.059139,0.003938Z M1804.519022,736.068961l0.122221,-0.02363l0.035484,-0.043321l-0.031541,-0.11815l-0.197131,-0.043321l-0.09068,0.051198l0.007885,0.078766l0.153762,0.098458Z M1803.7029,735.123765l0.023656,-0.02363l-0.059139,-0.106335l-0.094623,-0.086643l-0.023656,0.015753l0.01577,0.126026l0.039426,0.063013l0.098565,0.011815Z M1807.050182,734.9938l0.106451,0.082705l0.102508,0.019692l0.051254,-0.055136v-0.082705l-0.130106,-0.098458l-0.082795,-0.007877l-0.051254,0.055136l0.003943,0.086643Z M1803.146991,733.422412l0.043369,0.051198l0.051254,-0.011815l0.007885,-0.086643l-0.031541,-0.043321l-0.094623,-0.015753l-0.039426,0.007877l0.003943,0.066951l0.059139,0.031507Z M1804.727981,733.19399l0.141934,0.027568l0.098565,-0.043321l0.134049,0.003938l0.063082,-0.07089l0.047311,-0.236299l-0.043369,-0.074828l-0.086738,-0.043321l-0.003943,-0.059075l0.039426,-0.051198l0.007885,-0.063013l-0.09068,-0.157533l-0.047311,-0.248114l-0.078852,-0.157533l-0.110393,-0.015753l-0.063082,0.043321l-0.007885,0.192978l0.082795,0.161471l0.003943,0.086643l-0.205016,0.126026l-0.082795,0.173286l0.027598,0.220546l0.173475,0.185101Z M1785.259339,731.652139l0.065053,-0.019692l0.281897,-0.28159l0.033512,-0.090581l-0.043369,-0.021661l-0.155733,0.045291l-0.080824,0.072859l-0.023656,0.106335l-0.086738,0.112242l-0.01577,0.059075l0.025627,0.017722Z M1785.340163,731.303598l0.122221,-0.07089l0.206987,-0.072859l0.076881,-0.080735l-0.007885,-0.061044l-0.110393,-0.066951l-0.100537,0.015753l-0.193188,0.204792l-0.049283,0.082705l0.013799,0.039383l0.041397,0.009846Z M1785.537293,731.957358l0.057168,-0.043321l0.021684,-0.155564l-0.019713,-0.175255l-0.033512,-0.027568l-0.094623,0.057106l-0.035484,0.108304l0.017742,0.175255l0.02957,0.057106l0.057168,0.003938Z M1785.72851,731.845116l0.108422,-0.175255l0.063082,-0.179193l0.031541,-0.041352l0.122221,-0.055136l0.057168,-0.07089l0.02957,-0.311127l-0.021684,-0.110273l-0.098565,-0.033476l-0.12025,0.057106l-0.043369,0.159502l-0.159676,0.30325l-0.043369,0.135872l-0.007885,0.228422l0.027598,0.09452l0.055197,-0.001969Z M1800.004726,742.425404l-0.035484,-0.07089l-0.043369,0.003938l-0.035484,0.102396l0.023656,0.031507l0.078852,-0.017722l0.011828,-0.049229Z M1792.085733,710.064286l0.004713,-0.026676l-0.007854,-0.029814l-0.01728,-0.007846l-0.009425,0.014123l0.012567,0.047075l0.01728,0.003138Z M1800.189936,727.904215l0.064406,0.001569l0.037701,-0.015692l0.003142,-0.028245l-0.03613,-0.007846l-0.097395,0.029814l-0.08797,0.047075l0.001571,0.014123l0.059694,-0.012553l0.054981,-0.028245Z M1797.985983,715.88278l0.014138,-0.004708l0.010996,-0.014123l-0.001571,-0.010984l-0.018851,0.003138l-0.012567,0.01883l0.007854,0.007846Z  M1778.111375,708.638585l0.046,-0.026l0.014,-0.142l0.056,-0.067l0.028,-0.11l0.051,-0.056l0.016,-0.075l-0.044,-0.216l0.004,-0.221l0.036,-0.063l-0.028,-0.071l0.02,-0.012l0.107,0.071l0.044,-0.028v-0.15l-0.016,-0.051l-0.056,-0.043l-0.024,-0.138l0.024,-0.095l0.056,-0.023l0.023,-0.056l-0.015,-0.138l-0.06,-0.043v-0.051l0.06,-0.036l0.043,-0.102l0.111,-0.051l0.087,0.027l0.028,0.114l0.067,0.04h0.075l0.076,-0.122l0.035,0.004l0.024,0.067l0.052,0.004l0.051,-0.056l0.091,-0.011l0.024,0.039l-0.024,0.071l0.028,0.087l0.059,0.015l0.048,0.079l0.079,0.02l0.016,0.051l-0.032,0.031l-0.018,0.094l0.046,0.084l-0.019,0.055l-0.102,0.033l-0.004,0.043l0.07,0.025l0.033,0.118l0.03,0.021l0.071,0.009l0.104,0.08l0.039,0.156l0.05,0.03l0.069,-0.006l0.145,0.03l0.125,0.091l0.062,0.003l0.086,-0.047l0.119,-0.006l0.066,0.038l0.071,0.006l0.08,-0.038l0.036,0.021l-0.009,0.097l0.048,0.064l0.104,0.083l0.161,0.015l0.077,-0.041l0.048,0.009l0.065,0.074l0.16,0.053l0.092,0.077l0.084,0.026l0.11,-0.008l0.02,0.023l-0.012,0.045l0.042,0.038l0.092,-0.041l0.116,-0.024l0.036,-0.071l0.065,-0.041h0.068l0.039,-0.027l0.024,-0.062l0.095,-0.133l0.05,-0.021l0.039,0.024l-0.027,0.1l0.015,0.124l0.059,0.077l0.101,0.024l0.048,-0.047l0.044,0.009l0.081,0.085l0.089,0.015l0.047,0.039l0.01,0.124l0.04,0.098l0.004,0.209l-0.02,0.063l0.008,0.067l0.075,0.075l0.047,0.132l0.08,0.062l-0.009,0.048l-0.045,0.017l-0.047,0.068v0.074l0.071,0.128l0.009,0.059l-0.009,0.059l0.051,0.083l0.041,0.003l0.051,-0.045l0.014,-0.139l0.03,-0.003l0.101,0.074l0.033,0.08l0.047,0.024l0.089,-0.059l0.069,-0.009l0.101,0.02l0.038,-0.02l0.003,-0.095l0.107,-0.074l0.027,-0.065l0.045,-0.012l0.074,0.03l0.056,0.092l0.134,0.059l0.024,0.044l0.101,0.018l0.121,-0.059l0.167,-0.009l0.107,-0.036l0.122,0.036l0.008,0.041l-0.029,0.071l0.071,0.169l-0.009,0.035l0.009,0.042l0.048,0.026l0.003,0.047l-0.096,0.077l-0.103,0.024l-0.06,-0.009l-0.071,0.047v0.06l-0.086,0.068l-0.009,0.05l0.172,0.065l0.11,0.068l0.006,0.05l0.033,0.012l0.074,0.012l0.053,0.053l-0.009,0.05l-0.056,0.027l-0.021,0.089l-0.074,0.097l-0.009,0.077l0.074,0.074l0.006,0.036l-0.044,0.053l-0.003,0.086l0.038,0.032l-0.003,0.033l-0.041,0.035l0.006,0.065l0.092,0.05l0.012,0.06l-0.078,0.115l-0.077,0.009l-0.018,0.035l0.003,0.065l-0.059,0.107l-0.006,0.077l-0.033,0.008l-0.041,-0.047l-0.078,-0.006l-0.053,0.048h-0.048l-0.077,-0.042l-0.068,0.036v0.082l-0.085,0.112l-0.042,0.102l-0.008,0.126l0.032,0.058l-0.01,0.035l-0.059,0.051l-0.01,0.052l-0.097,0.049l-0.004,0.051l0.049,0.122l0.163,0.125l0.025,0.08l0.074,0.091l0.043,0.016l0.127,-0.038l0.03,0.02l-0.002,0.079l0.019,0.012h0.042l0.079,0.051l0.006,0.055l0.077,0.061l0.014,0.073l0.151,0.154l0.087,0.337l0.061,0.008l0.02,-0.045l0.06,-0.016l0.073,-0.057l0.008,-0.063l0.031,-0.032l0.171,-0.008l0.107,-0.083l0.051,-0.1l-0.02,-0.057l0.022,-0.026h0.099l0.089,-0.057l0.062,-0.085l0.013,-0.045l-0.017,-0.044l0.008,-0.071l-0.048,-0.149l-0.002,-0.063l0.046,-0.062l0.008,-0.102l0.045,-0.089l0.079,-0.059l0.083,-0.01l0.08,0.012l0.039,0.059l0.034,0.002l0.059,-0.057l0.042,0.004l0.042,0.032l0.065,-0.016l0.032,-0.101l0.063,-0.049l0.079,-0.002l0.028,-0.024l0.03,-0.096l0.065,-0.052l0.006,-0.096l0.026,-0.012l0.083,0.02l0.123,-0.02l0.059,0.026l0.125,0.017l0.063,-0.049l0.032,0.002l0.041,0.038l0.058,-0.002l0.02,-0.065l0.019,-0.018l0.052,-0.006l0.109,-0.118l0.027,-0.004l0.038,0.023l0.022,-0.015l0.006,-0.05l0.087,-0.073l0.172,-0.019l0.093,-0.063l0.054,0.007l0.01,0.079l0.051,0.038l0.085,-0.01l0.04,0.027l-0.008,0.075l0.047,0.044l0.014,0.104l0.097,0.046l0.054,-0.012l0.037,-0.036l0.038,0.008l0.028,0.057l-0.03,0.057l-0.002,0.032l0.028,0.026l-0.002,0.031l-0.028,0.042l0.004,0.173l0.046,0.006l0.017,0.037l-0.007,0.046l0.035,0.081l0.054,0.035l0.043,0.002l0.016,0.02l0.016,0.154l0.061,0.015l0.099,-0.067l0.006,-0.161l0.02,0.002l0.008,0.039h0.018l0.024,-0.022l0.029,-0.002l0.028,0.022l0.028,-0.01l0.045,-0.081l0.074,-0.004l0.13,0.095v0.093l0.054,0.057l0.172,0.116l0.036,0.053l0.055,0.01l0.028,-0.037l-0.01,-0.061l-0.054,-0.057v-0.038l0.133,-0.191l0.101,-0.022l0.057,0.018l0.016,-0.01l-0.025,-0.041l0.019,-0.032l0.074,-0.002l0.037,-0.043l-0.029,-0.077l0.063,-0.107l0.071,-0.041l0.066,0.018l0.073,-0.01l0.073,-0.051l0.006,-0.056l0.018,-0.013l0.041,-0.006l0.036,-0.067l-0.026,-0.057l-0.002,-0.062l-0.037,-0.061l0.004,-0.039l-0.026,-0.022l-0.059,-0.018l0.002,-0.057l0.047,-0.075l-0.002,-0.104l0.016,-0.018l0.042,0.002l0.041,-0.051l-0.014,-0.093l0.026,-0.043l-0.016,-0.042l0.042,-0.051l0.045,-0.01l0.097,-0.088l0.006,-0.095l0.042,-0.063l0.043,-0.006l0.058,-0.061l0.045,-0.002l0.026,-0.022l0.004,-0.037l0.02,-0.014l0.067,0.002l0.02,-0.018l0.008,-0.051l0.067,-0.055l0.044,-0.008l0.107,-0.063l0.035,-0.122l0.042,-0.056l0.034,-0.009l0.079,-0.178l0.028,-0.014l0.041,-0.08l-0.03,-0.056l-0.031,-0.019l-0.01,-0.06l-0.03,-0.017l-0.002,-0.031l0.02,-0.038l-0.022,-0.134l0.056,-0.156l0.039,0.003l0.026,-0.013l0.018,-0.044l0.051,-0.001l0.18,0.1l0.094,0.071l0.177,0.029l0.117,-0.067l0.164,-0.042l0.065,0.017l0.041,0.125l0.008,0.079l0.067,0.074l0.027,-0.01l-0.01,-0.044l-0.039,-0.055l0.01,-0.089l0.025,-0.054l0.033,0.005l0.061,0.057l0.28,0.13l0.242,0.078l0.114,0.084l0.175,0.272l0.266,0.601l0.018,0.084l0.3,0.623l0.177,0.252l0.315,0.319l0.18,0.069l0.171,0.092l0.182,0.164l0.002,0.047l0.019,0.014l0.052,-0.002l0.037,0.025l0.126,0.219l0.357,0.388l0.238,0.191l0.2,0.084l0.203,0.172l0.293,0.283l0.475,0.27l0.099,0.002l0.063,-0.028l0.087,0.014l0.185,0.148l0.457,0.473l0.077,0.045l0.233,0.234l0.057,0.014l0.022,0.024l0.008,0.063l0.094,0.183l-0.011,0.067l-0.089,0.092l-0.087,0.01l-0.065,0.079l0.01,0.02l0.075,-0.034l0.112,-0.02l0.063,-0.063l0.065,-0.027l0.048,0.014l0.08,0.096l0.067,0.199l0.089,0.146l0.002,0.049l0.136,0.317l0.122,0.134l0.288,0.658l0.3,0.504l0.323,0.626l0.379,0.606l0.051,0.146l0.079,0.138l-0.024,0.035l-0.063,0.012l-0.024,0.055l0.012,0.146l0.13,0.264l0.016,0.201l0.032,0.067l-0.004,0.071l-0.075,0.059v0.098l0.24,0.595l-0.004,0.13l-0.154,0.134l-0.031,0.208l0.075,0.264l0.004,0.15l-0.024,0.075v0.063l0.142,0.287l0.103,0.087l0.011,0.146l-0.09,0.212l-0.04,0.134l-0.114,0.173l-0.055,0.032l-0.04,0.071l0.02,0.22l-0.031,0.048l-0.15,0.039l-0.044,0.059l-0.004,0.158l-0.043,0.094l-0.095,0.051l-0.023,0.071l0.067,0.315l0.004,0.126l0.157,0.315l0.119,0.142l0.008,0.055l-0.04,0.048h-0.055l-0.091,-0.056l-0.094,0.028l-0.158,0.228l-0.024,0.142l-0.008,0.248l0.032,0.146l0.012,0.228l-0.04,0.04l-0.086,-0.02l-0.075,0.02l-0.052,0.063l-0.071,0.299l0.032,0.213l0.15,0.342l0.363,0.501l0.264,0.291l0.106,0.079v0.035l-0.11,0.04l-0.253,0.141l-0.098,-0.015l-0.032,0.027l0.099,0.051l0.173,-0.035l0.166,-0.075l0.095,0.008l0.023,0.063l-0.031,0.099l-0.107,0.114l-0.067,0.145l-0.106,0.379l-0.024,0.378l0.134,0.693l0.02,0.587l-0.028,0.303l-0.055,0.185l-0.043,0.666l0.055,0.378l0.13,0.362l0.217,0.303l0.225,0.292l0.441,0.401l0.225,0.162l0.047,0.098l0.099,0.032l0.063,-0.028l0.091,0.036l0.295,0.173l0.101,-0.006l0.061,-0.039l0.037,-0.063l0.034,-0.004l0.037,0.033l-0.002,0.126l0.016,0.059l0.181,0.142l0.168,0.063l0.028,0.039l-0.008,0.075l0.035,0.12l-0.012,0.087l0.109,0.177l-0.002,0.03l-0.059,0.019l-0.044,0.067l-0.004,0.087l0.052,0.067l0.027,0.173l0.042,0.069l0.075,0.04l0.065,0.092l0.021,0.091l0.28,0.321l0.079,0.041l0.114,0.028l0.103,0.161l-0.016,0.103l0.032,0.118l0.122,0.13v0.051l-0.103,0.071l-0.011,0.22l0.149,0.225l0.194,0.197l0.071,0.134l0.086,0.291l0.304,0.398l0.138,0.252l0.11,0.126l0.016,0.104l0.061,0.144l-0.01,0.028l-0.083,-0.008l-0.045,0.043l-0.018,0.14l0.081,0.207l0.103,0.106l0.096,0.012l0.067,-0.018l0.02,0.016l-0.02,0.041v0.057l0.162,0.235l0.114,0.24l0.004,0.143l0.111,0.154l0.01,0.055l-0.014,0.047l0.029,0.099l0.186,0.222v0.036l-0.026,0.045l0.035,0.103l0.069,0.067l0.006,0.033l-0.027,0.035l0.004,0.073l0.027,0.034l0.004,0.035l-0.029,0.071l0.004,0.108l0.153,0.205l0.004,0.087l-0.075,0.087l0.004,0.088l0.149,0.216l0.018,0.085l-0.021,0.021l-0.059,-0.018l-0.047,0.048l-0.006,0.177l0.029,0.097l0.003,0.107l-0.068,0.082l-0.065,0.003l-0.088,-0.062l-0.048,0.003l-0.103,0.136l-0.115,0.068l-0.104,0.012l-0.195,-0.062l-0.062,-0.006l-0.036,0.024l-0.083,-0.015l-0.014,-0.047l-0.089,-0.057l-0.104,-0.014l-0.073,-0.045l-0.003,-0.053l0.13,-0.083l0.038,-0.106l0.039,-0.012l0.038,0.024l0.041,-0.009l0.006,-0.027l-0.088,-0.029l-0.08,0.032l-0.042,-0.008l-0.115,-0.148l-0.121,-0.059l-0.045,-0.039l0.009,-0.035l-0.017,-0.021l-0.06,-0.003l-0.056,-0.032l0.006,-0.05l0.107,-0.104l0.003,-0.047l-0.024,-0.03l0.003,-0.05l0.071,-0.056l0.204,-0.012l0.089,-0.076l0.079,-0.027l0.119,-0.1l0.094,-0.012l0.012,-0.024l-0.103,-0.021l-0.054,0.018l-0.082,0.092l-0.074,0.014l-0.127,0.092h-0.06l-0.032,-0.03l-0.077,-0.002l-0.086,0.064l-0.071,0.13h-0.023l-0.051,-0.174l-0.003,-0.198l-0.047,-0.127l-0.266,-0.257l-0.05,-0.097l-0.009,-0.098l-0.039,-0.029l-0.014,0.023l0.02,0.083l-0.047,0.098l0.044,0.171l0.24,0.224l0.047,0.119l-0.003,0.097l-0.047,0.207l0.032,0.094l-0.005,0.121l-0.1,0.146l-0.089,0.026l-0.039,0.029l-0.128,0.002l-0.081,-0.029l-0.067,-0.01l-0.091,0.012l-0.157,-0.025l-0.138,-0.115l-0.009,-0.068l-0.024,-0.035l-0.186,-0.068l-0.21,-0.048l-0.092,0.009l-0.192,0.18l-0.124,0.009l-0.163,-0.062l-0.053,-0.003l-0.252,0.149l-0.159,0.206l-0.027,0.115l-0.053,0.114l-0.134,0.136l-0.124,0.067l-0.026,0.061l-0.045,0.029l-0.069,-0.011l-0.019,-0.068l-0.062,-0.021l-0.05,0.027l0.001,0.068l-0.03,0.004l-0.085,-0.245l0.008,-0.118l-0.023,-0.126l-0.028,-0.008l-0.03,0.148l0.01,0.13l0.061,0.175l-0.002,0.059l-0.134,0.079l-0.067,0.102v0.119l-0.031,0.098h-0.04l-0.193,-0.209l-0.142,-0.106l-0.071,-0.095l-0.031,-0.133l-0.099,-0.193l-0.051,-0.268l-0.181,-0.374l-0.095,-0.272l-0.225,-0.229l-0.414,-0.224l-0.398,-0.146l-0.457,-0.24l-0.268,-0.244l-0.521,-0.299l-0.296,-0.099l-0.252,-0.008l-0.272,-0.181l-0.087,-0.106v-0.051l0.052,-0.036l0.007,-0.098l-0.035,-0.028l-0.063,0.02l-0.26,-0.181l-0.355,-0.134l-0.351,-0.004l-0.122,0.071l-0.087,-0.004l-0.122,-0.075l-0.225,-0.355l-0.193,-0.248l-0.501,-0.445l-0.023,-0.185l-0.198,-0.193l-0.236,-0.134l-0.249,-0.043l-0.149,-0.102l-0.154,-0.056l-0.182,-0.011l-0.193,-0.111l-0.153,-0.043l-0.158,-0.106l-0.304,-0.063l-0.083,0.027l-0.102,-0.023l-0.079,-0.115l-0.169,-0.118l-0.099,-0.004l-0.099,-0.047l-0.228,-0.291l-0.107,-0.028l-0.142,-0.154l-0.039,-0.145l-0.079,-0.122l-0.296,-0.182l-0.149,-0.003l-0.127,-0.099l-0.023,-0.106l-0.221,-0.138l-0.146,-0.032l-0.331,0.036l-0.047,-0.032v-0.063l-0.067,-0.181l0.004,-0.126l-0.217,-0.252l-0.091,-0.035l-0.059,-0.087l0.016,-0.268l-0.19,-0.161l-0.134,-0.016l-0.106,0.079l-0.193,-0.036l-0.197,-0.134l-0.438,-0.13l-0.154,-0.09l-0.485,-0.162l-0.297,-0.186l-0.181,-0.407l-0.236,-0.281l-0.178,-0.009l-0.254,-0.15l-0.166,-0.018l-0.118,-0.068l-0.018,-0.183l-0.077,-0.112l0.003,-0.074l0.136,-0.302l0.187,-0.242l0.168,-0.062l0.065,-0.103l-0.003,-0.281l-0.109,-0.298l-0.157,-0.104l-0.062,-0.112l-0.016,-0.58l-0.073,-0.291l-0.216,-0.309l-0.05,-0.032l-0.118,-0.14l-0.022,-0.063l-0.027,-0.011l-0.053,0.015l-0.117,-0.031l-0.134,-0.177l-0.035,-0.144l-0.132,-0.105l-0.056,-0.096l-0.23,-0.276l-0.195,-0.368l-0.036,-0.154l-0.169,-0.358l-0.17,-0.22l-0.307,-0.253l-0.19,-0.011l-0.094,-0.075l-0.107,-0.276l-0.181,-0.205l-0.174,-0.114l-0.142,-0.031l-0.134,-0.008l-0.102,-0.099l-0.004,-0.11l0.051,-0.228l0.047,-0.035l0.146,0.002l0.065,-0.019h0.229l0.327,-0.115l0.019,0.011l0.007,0.021l0.011,-0.005l0.004,-0.031l-0.037,-0.027l-0.056,0.003l-0.208,0.072l-0.102,0.006l-0.188,-0.001l-0.112,0.034h-0.097l-0.11,-0.035l-0.11,0.016l-0.091,0.075l-0.162,-0.031l-0.24,-0.142l-0.091,-0.252l-0.008,-0.5l0.087,-0.119l0.102,-0.004l0.198,0.091l0.232,-0.004l0.185,-0.161l0.06,-0.111l0.082,-0.027l0.04,0.031l0.014,0.138l-0.014,0.181l0.049,0.118l0.057,0.05l0.085,0.008l0.038,-0.018l0.033,0.006l0.026,0.033l0.057,0.012l0.1,-0.014l0.058,-0.055l0.003,-0.02l-0.09,0.05l-0.069,0.006l-0.03,-0.034l-0.087,-0.033l-0.09,0.006l-0.042,-0.008l-0.037,-0.081l0.01,-0.095l0.035,-0.108l-0.008,-0.134l-0.071,-0.086l-0.086,-0.032l-0.178,0.043l-0.122,0.172l-0.11,0.082l-0.054,0.008l-0.065,-0.031v-0.158l0.036,-0.084l-0.008,-0.166l-0.087,-0.197l-0.154,-0.098l-0.047,-0.055l-0.039,-0.119l-0.158,-0.133l-0.185,-0.067l-0.063,0.023l-0.012,0.067l-0.083,0.012l-0.138,-0.059l-0.106,-0.165l0.015,-0.142l-0.015,-0.067l-0.075,-0.071l-0.004,-0.047l0.047,-0.016l0.126,0.055l0.178,-0.047l0.082,-0.118l0.036,-0.012l0.063,0.016l0.012,-0.028l-0.047,-0.098l0.003,-0.083l0.06,-0.122l-0.06,-0.087l-0.019,0.024l0.016,0.071l-0.016,0.055l-0.059,0.059l-0.008,0.075l0.016,0.043l-0.032,0.055l-0.134,0.106l-0.17,-0.015l-0.11,-0.063l-0.047,-0.225l-0.063,-0.098l-0.083,-0.048l-0.012,-0.066l0.181,-0.347l0.004,-0.13l-0.043,-0.158l0.031,-0.035l0.083,0.024l0.055,-0.048l0.067,-0.177l0.016,-0.358l0.079,-0.166l0.095,-0.055l0.09,-0.13l0.012,-0.067l-0.019,-0.141l-0.032,-0.008l-0.02,0.074l0.012,0.067l-0.051,0.063l-0.13,0.052l-0.138,-0.016l-0.091,-0.067l-0.024,-0.114l0.024,-0.217l0.122,-0.177l0.142,-0.047l0.048,-0.079l0.11,-0.067l-0.012,-0.036l-0.043,-0.007l-0.055,0.043l-0.079,-0.012l-0.15,0.055l-0.067,-0.016l-0.067,-0.165l-0.055,-0.276l0.015,-0.098l0.032,-0.055l0.051,-0.012l0.059,0.024l0.059,-0.044l0.024,-0.098l0.075,-0.032l-0.008,-0.031l-0.079,-0.024l-0.063,0.02l-0.012,0.059l-0.067,0.004l-0.071,-0.028l-0.071,0.016l-0.055,-0.039l-0.083,-0.284l0.032,-0.102l0.104,-0.055l0.002,-0.024l-0.078,-0.008l-0.052,-0.035l0.008,-0.071l-0.059,-0.024l-0.083,0.032l-0.027,0.074l-0.052,0.032l-0.161,-0.008l-0.04,-0.035l-0.051,-0.197l0.071,-0.091l0.071,-0.004l0.008,-0.027l-0.166,-0.083l-0.075,0.008l-0.082,0.071l-0.048,-0.004l-0.122,-0.126l-0.035,-0.174l0.007,-0.161l-0.027,-0.063l-0.075,-0.008l-0.047,-0.055l-0.044,-0.205l-0.13,-0.311l-0.067,-0.055v-0.071l0.146,-0.114l0.043,-0.107l0.162,-0.187l0.041,-0.097l0.006,-0.192l0.027,-0.065l-0.003,-0.115l-0.095,-0.222l0.003,-0.062l0.083,-0.062l-0.003,-0.026l-0.044,-0.03l-0.092,-0.189l-0.003,-0.047l0.027,-0.033l-0.006,-0.053l-0.198,-0.171l-0.012,-0.062l0.015,-0.083l-0.018,-0.012l-0.035,0.027l-0.033,-0.015l-0.003,-0.077l0.012,-0.1l0.065,-0.133l0.029,-0.245l-0.011,-0.198l-0.095,-0.287l-0.086,-0.136l-0.05,-0.017l-0.027,-0.048l-0.003,-0.109l0.024,-0.153l-0.024,-0.237l-0.032,-0.056l0.006,-0.041l0.05,-0.039l0.065,-0.003l0.186,0.074l0.039,0.051l0.13,0.112h0.065l0.003,-0.018l-0.056,-0.029l-0.192,-0.231l-0.107,-0.044l-0.059,-0.083l-0.003,-0.097l0.059,-0.136l0.018,-0.204l0.041,-0.189l-0.015,-0.266l-0.075,-0.354v-0.292l-0.067,-0.342l-0.127,-0.43l-0.26,-0.303l-0.059,-0.154l-0.004,-0.114l-0.106,-0.315l-0.158,-0.252l-0.158,-0.146l-0.11,-0.055l-0.178,-0.24l-0.118,-0.272l-0.11,-0.39l-0.107,-0.267z"/>
</svg>
