<svg xmlns="http://www.w3.org/2000/svg" viewBox="2196.901 881.658 30.224 21.802">
  <path d="M2219.856889,890.185058l-0.080669,-0.139291l0.10549,-0.242246l0.322675,-0.139291l0.31647,0.102955l0.136516,-0.066618l0.012411,-0.175628l0.192364,-0.07873l0.341291,0.090842l0.229596,0.254358l0.173748,0.042393l-0.018616,0.151404l-0.148927,0.07873l-0.012411,0.442099l0.111695,0.260414l-0.006205,0.096898l-0.186159,0.151404l-0.018616,0.072674l0.080669,0.060561l0.148927,-0.024225l0.527449,0.230134l0.080669,0.211965l-0.037232,0.230134l0.173748,0.118095l0.158235,0.027253l0.186159,0.145348v0.109011l-0.148927,0.036337l-0.195467,0.181684l0.055848,0.436043l-0.307162,0.1726l-0.260622,-0.081758l-0.176851,-0.290695l-0.195467,-0.036337l-0.065156,-0.099926l0.037232,-0.099926l-0.083771,-0.090842l-0.642247,-0.018168l-0.31647,-0.181684l-0.390933,-0.517801l0.04654,-0.109011l-0.074463,-0.163516l-0.186159,-0.06359l-0.102387,-0.136263l0.083771,-0.06359l0.167543,0.027253l0.121003,0.072674l0.242006,-0.009084l0.474705,-0.517801l0.04654,-0.254358l-0.130311,-0.163516l-0.335086,-0.118095l-0.335086,0.009084l-0.1179,0.069646Z M2225.028997,892.559069l0.111695,0.036337l0.037232,-0.072674l-0.148927,-0.218021l-0.111695,-0.009084l-0.04654,0.072674l0.158235,0.190769Z M2223.297721,892.731669l0.093079,0.009084l-0.009308,-0.06359l-0.130311,-0.090842l-0.065156,0.045421l0.111695,0.099926Z M2215.693141,889.870138l0.474705,-0.190769l0.400241,-0.081758l0.186159,-0.081758l0.279238,-0.535969l-0.037232,-0.081758l-0.130311,0.045421l-0.093079,-0.054505l-0.009308,-0.227106l0.055848,-0.327032l0.167543,-0.263442l0.139619,-0.06359l0.186159,0.054505l0.055848,-0.118095l-0.260622,-0.208937l-0.083771,-0.199853l-0.148927,-0.06359l-0.232698,0.072674l-0.027924,0.127179l0.121003,0.018168l0.139619,0.163516l0.009308,0.218021l-0.111695,0.136263l-0.102387,0.290695v0.308864l-0.093079,0.354285l-0.353701,0.372453l-0.465397,0.218021l-0.176851,-0.027253l-0.037232,0.054505l0.148927,0.090842Z M2216.549471,887.644503l0.018616,-0.090842l-0.093079,-0.036337l-0.065156,0.045421l0.027924,0.090842l0.111695,-0.009084Z M2224.535676,894.285071l-0.027924,-0.109011l0.065156,-0.06359l-0.009308,-0.072674l-0.065156,0.009084l-0.055848,0.081758l0.055848,0.199853l0.037232,-0.045421Z M2225.075537,894.593935l0.083771,0.227106l-0.055848,0.1726l0.121003,0.299779l0.186159,0.127179l0.027924,0.145348l-0.093079,0.154432l-0.130311,0.045421l-0.009308,0.099926l0.22339,-0.036337l0.390933,0.018168l0.093079,0.090842l-0.027924,0.136263l0.204775,0.154432l0.381625,0.009084l0.130311,-0.109011l0.409549,-0.099926l0.018616,-0.109011l-0.065156,-0.154432l0.009308,-0.354285l0.074463,-0.290695l-0.009308,-0.145348l0.083771,-0.208937l-0.102387,-0.06359l-0.214082,0.099926h-0.176851l-0.139619,0.099926l-0.279238,-0.090842l-0.260622,-0.390622l0.176851,-0.290695l-0.074463,-0.045421l-0.121003,0.127179l-0.31647,0.090842l-0.074463,0.154432l-0.148927,-0.018168l-0.139619,-0.154432l-0.186159,-0.045421l-0.121003,0.090842v0.154432l0.130311,0.109011Z M2223.533522,893.503828l0.043437,0.024225l0.024821,-0.024225l-0.034129,-0.060561l-0.04654,-0.006056l-0.018616,0.033309l0.031026,0.033309Z M2223.409417,893.89445l0.040334,-0.018168l0.003103,-0.039365l-0.031026,-0.012112l-0.031026,0.021197l-0.003103,0.033309l0.021719,0.01514Z M2213.924634,887.659644l0.074463,-0.030281l-0.018616,-0.042393l-0.111695,0.006056l-0.012411,0.054505l0.068258,0.012112Z M2200.967992,885.727732l0.288546,0.136263l0.111695,0.018168l-0.158235,-0.327032l-0.214082,-0.154432l-0.093079,-0.163516l-0.074463,-0.027253l0.018616,0.308864l0.121003,0.208937Z M2197.15174,882.075874l0.037232,-0.090842l-0.195467,-0.327032l-0.093079,0.018168l0.065156,0.254358l0.102387,0.163516l0.083771,-0.018168Z M2197.803295,883.220486l-0.018616,-0.163516l-0.158235,-0.109011l-0.037232,-0.299779l-0.204775,-0.345201l-0.111695,-0.109011l-0.027924,0.081758l0.139619,0.254358l-0.074463,0.163516l0.121003,0.40879l0.158235,0.163516l0.214082,-0.045421Z M2197.561289,883.602024l0.074463,0.036337l0.074463,-0.06359l-0.009308,-0.081758l-0.065156,0.018168l-0.074463,0.090842Z M2198.454851,885.219016l0.083771,0.127179l0.074463,0.009084l-0.018616,-0.136263l0.04654,-0.099926l-0.065156,-0.099926l-0.139619,-0.009084l-0.102387,0.054505l0.009308,0.136263l0.111695,0.018168Z M2199.227409,885.836743l0.018616,0.099926l0.102387,0.06359l0.037232,-0.06359l-0.195467,-0.23619l-0.009308,0.06359l0.04654,0.072674Z M2201.6816,886.630098l0.037232,-0.048449l-0.043437,-0.224078l-0.062053,-0.030281l-0.031026,0.07873l0.099285,0.224078Z M2200.37849,887.078253l0.043437,-0.084786l-0.012411,-0.066618l-0.062053,0.006056l-0.037232,0.127179l0.068258,0.018168Z M2199.50975,885.340139l0.155132,0.024225l0.080669,-0.07873l-0.006205,-0.139291l-0.111695,-0.109011l-0.043437,-0.193797l-0.124106,-0.012112l-0.043437,0.15746l0.012411,0.272527l0.080669,0.07873Z M2214.017713,899.040662l0.068258,0.07116l-0.074463,0.036337l-0.192364,-0.066618l-0.066707,0.136263l0.072912,0.06359l0.124106,-0.066618l0.155132,0.036337l0.32888,0.248302l0.024821,0.109011l0.273033,0.15746l0.173748,-0.006056l0.155132,-0.090842l0.055848,0.048449l0.012411,0.151404l0.111695,0.084786l0.024821,0.07873l-0.074463,0.102955l0.043437,0.036337l0.155132,-0.121123l0.055848,-0.145348l-0.006205,-0.084786l0.086874,-0.030281l0.291649,0.109011l0.198569,0.242246l-0.049642,0.024225l-0.136516,-0.012112l-0.186159,0.084786l0.055848,0.072674l0.148927,0.018168l-0.018616,0.115067l-0.093079,0.006056l-0.124106,-0.090842l-0.074463,0.066618l0.10549,0.109011h0.192364l0.055848,0.054505l-0.031026,0.102955l0.099285,0.090842l0.080669,-0.036337l-0.006205,-0.127179l0.043437,-0.060561l0.10549,-0.030281l0.068258,-0.169572l-0.018616,-0.07873l0.049642,-0.048449l0.291649,0.024225l0.130311,0.024225l0.024821,0.066618l-0.068258,0.060561l0.012411,0.084786l0.186159,0.127179l0.179953,-0.006056l0.055848,-0.066618l0.074463,-0.024225l0.179953,0.139291l0.093079,0.139291l0.273033,0.187741l0.111695,-0.006056l0.093079,0.042393l-0.111695,0.115067l0.055848,0.121123l0.279238,0.048449l0.086874,-0.090842l0.10549,-0.012112l0.10549,0.066618l0.099285,-0.024225l-0.130311,-0.163516l0.037232,-0.242246l0.080669,-0.012112l0.068258,0.181684l0.068258,0.006056l0.012411,-0.127179l0.099285,-0.024225l0.108593,0.175628l0.009308,0.263442l0.217185,0.057533l0.204775,-0.23619l0.304059,-0.15746l0.136516,-0.42393l-0.068258,-0.296751l-0.446781,-0.569278l0.031026,-0.248302l-0.074463,-0.175628l-0.53986,-0.448155l-0.552271,-0.133235l-0.093079,-0.121123l-0.161337,-0.07873l-0.322675,0.030281l-0.031026,-0.066618l0.198569,-0.07873l0.049642,-0.054505l-0.260622,-0.224078l-0.086874,0.006056l-0.012411,0.07873l-0.142722,-0.018168l-0.494872,-0.411818l-0.134965,-0.227106l-0.404895,-0.354285l-0.074463,-0.231648l-0.428165,-0.367911l-0.134965,-0.018168l-0.251314,-0.136263l0.065156,-0.145348l-0.055848,-0.099926l-0.251314,-0.027253l-0.688787,-0.317948l-0.567784,-0.535969l-0.139619,-0.045421l-0.130311,0.081758l-0.130311,-0.027253l0.009308,-0.208937l-0.111695,-0.163516l-0.186159,-0.072674l-0.344393,-0.345201l-0.111695,0.027253l0.065156,0.254358l0.195467,0.336116l-0.074463,0.045421l-0.232698,-0.23619v-0.190769l-0.400241,-0.599559l-0.083771,-0.009084l0.065156,0.145348l-0.055848,0.054505l-0.083771,-0.072674l-0.102387,0.009084l-0.018616,0.081758l-0.121003,-0.009084l-0.018616,-0.154432l-0.307162,-0.358827l-0.209428,-0.099926l-0.158235,0.018168l-0.577092,-0.218021l-0.22339,-0.304322l-0.209428,-0.163516l-0.041886,-0.0863l0.321124,0.158974l0.055848,-0.06359l-0.484012,-0.426959l-0.26993,-0.036337l-0.592605,-0.411818l-0.099285,-0.351257l0.021719,-0.227106l0.102387,-0.208937l-0.130311,-0.136263l-0.456089,-0.036337l-0.446781,-0.499632l0.065156,-0.354285l-0.083771,-0.154432l-0.344393,-0.1726l-0.632939,-0.06359l-0.968025,-0.454211l-0.753943,-0.490548l-0.207877,-0.375481l-0.546065,-0.587446l-0.260622,-0.054505l-0.707403,-0.463295l-0.065156,-0.218021l-0.781866,-0.58139l-0.912177,-0.363369l-0.130311,0.054505l0.04654,0.327032l-0.078658,0.06324l-0.24712,-0.035987l-0.363009,-0.245274l-0.176851,-0.081758l-0.325778,-0.417874l-0.195467,-0.118095l-0.260622,-0.399706l-0.257519,-0.202881l-0.062053,0.084786l0.32888,0.538997l-0.068258,0.205909l0.124106,0.272527l-0.055848,0.072674l-0.1179,-0.109011l-0.1179,-0.036337l-0.173748,0.072674l-0.018616,0.127179l0.155132,0.090842l0.055848,0.084786l-0.031026,0.090842l0.055848,0.048449l0.130311,-0.024225l0.099285,-0.145348l-0.024821,-0.127179l0.086874,-0.012112l0.093079,0.145348l-0.049642,0.127179l0.068258,0.030281l0.198569,-0.030281l0.260622,0.151404l0.136516,0.308864l-0.062053,0.205909l-0.124106,0.018168l-0.142722,-0.084786l-0.086874,0.042393l0.068258,0.169572l0.179953,0.102955l0.148927,0.442099l0.37542,0.417874l0.288546,0.154432l0.251314,0.299779l0.027924,0.199853l0.195467,0.181684l-0.009308,0.163516l0.121003,0.109011l0.260622,0.081758v0.1726l-0.251314,0.06359v0.081758l0.214082,0.072674l0.400241,0.490548l0.744635,0.47238l0.437473,0.090842l0.102387,0.109011l-0.065156,0.218021l0.102387,0.036337l0.214082,-0.045421l0.04654,0.109011l-0.093079,0.245274l0.158235,0.181684l0.176851,-0.06359l0.074463,0.081758l-0.009308,0.127179l0.130311,0.018168l0.148927,-0.190769l0.195467,0.009084l0.093079,0.154432l-0.139619,0.317948l0.167543,0.508717l0.456089,0.563222l0.214082,0.136263l-0.032578,0.308864l0.116349,0.049963l0.162889,-0.118095l0.456089,0.104469l0.035164,0.077998l-0.039818,0.058265l-0.093079,-0.018168l-0.037232,0.054505l0.031026,0.07873l0.086874,0.006056l0.031026,-0.07873l0.068258,-0.018168l0.043437,0.102955l0.093079,-0.004542l0.172197,-0.218021l0.156684,-0.001514l0.068258,0.066618l-0.010859,0.102955l-0.088425,0.042393l-0.080669,0.102955l0.099285,0.23619l0.310264,0.345201l0.502628,0.181684l0.068258,0.096898l-0.018616,0.145348l0.431268,0.302807l0.707403,0.208937l0.167543,-0.054505l0.176851,0.127179l-0.037232,0.1726l0.5864,0.363369l0.423511,0.122637l0.200121,-0.122637l0.088425,0.018168l-0.010859,0.196825l0.139619,0.057533l0.111695,-0.072674l0.029475,-0.177142l0.111695,-0.059047l0.214082,0.109011l0.172197,0.018168l0.02327,0.0863l-0.088425,0.049963l-0.214082,-0.027253l-0.088425,0.081758l0.158235,0.0863l0.041886,0.068132l-0.069809,0.154432l0.093079,0.090842l0.065156,-0.040879l0.004654,-0.068132l0.102387,-0.013626l0.176851,0.227106l0.083771,0.158974l-0.041886,0.045421l-0.134965,-0.045421l-0.018616,0.072674l0.088425,0.113553l0.153581,-0.022711l0.121003,-0.072674l0.363009,0.145348l0.22339,0.290695l0.353701,0.145348l0.200121,-0.072674l-0.009308,-0.145348l0.125657,-0.068132l0.386279,0.208937l0.325778,0.254358l-0.004654,0.0863l-0.074463,0.127179l0.032578,0.095384l0.209428,0.122637l-0.032578,0.059047l-0.242006,-0.068132h-0.167543v0.049963l0.111695,0.031795h0.121003l0.074463,0.031795v0.036337l-0.055848,0.031795l0.004654,0.049963Z M2215.721065,896.492538l0.088425,0.040879l0.107041,-0.009084l-0.018616,-0.090842l-0.111695,-0.013626l-0.065156,0.072674Z M2218.169051,901.504001l-0.006205,0.102955l-0.068258,0.060561l0.055848,0.139291l0.192364,0.048449l0.142722,-0.054505l-0.018616,-0.07873l-0.161337,-0.024225l-0.006205,-0.048449l0.173748,-0.036337l0.111695,-0.090842l-0.037232,-0.121123l-0.1179,-0.042393l-0.242006,0.024225l-0.074463,0.066618l0.055848,0.054505Z M2206.292129,894.221482l0.093079,0.022711l0.04654,-0.045421l-0.02327,-0.077216l-0.107041,-0.018168l-0.041886,0.049963l0.032578,0.068132Z M2222.366928,902.674352l-0.037232,0.122637l0.027924,0.277069l0.186159,0.190769l0.325778,0.036337l0.121003,-0.099926l0.04654,-0.109011l-0.041886,-0.077216l0.060502,-0.190769h0.065156l-0.013962,0.104469l0.100836,0.140805l0.049642,0.012112l0.031026,-0.207423l-0.204775,-0.277069l-0.456089,-0.245274l-0.167543,0.004542l-0.144273,0.14989l0.051194,0.168058Z M2223.052613,903.320846l0.111695,-0.048449l0.062053,0.021197l-0.102387,0.087814l-0.133414,0.012112l-0.021719,0.039365l0.195467,0.027253l0.067792,-0.03352l0.056313,-0.120912l-0.018616,-0.084786l-0.111695,-0.092356l-0.071361,-0.00757l-0.054296,0.098412l-0.066707,0.0863l0.086874,0.01514Z M2213.465443,898.481983l0.055848,0.030281l0.091528,-0.057533l0.026372,-0.160488l-0.068258,-0.006056l-0.018616,0.084786l-0.086874,0.109011Z M2212.5936,898.354804l0.037232,0.072674l0.121003,0.036337l0.009308,-0.059047l-0.069809,-0.054505l-0.097733,0.004542Z M2212.928685,898.504693l0.083771,0.004542l0.037232,-0.068132l-0.121003,-0.090842l-0.102387,-0.009084l-0.013962,0.054505l0.116349,0.109011Z M2213.142768,898.727257l0.088425,0.040879l0.214082,-0.140805l-0.060502,-0.072674l-0.209428,-0.040879l-0.060502,0.045421l0.027924,0.168058Z M2213.189307,898.858978l-0.018616,0.077216l0.125657,0.190769l0.055984,0.008196l-0.046676,-0.117206l0.041886,-0.081758l-0.013962,-0.118095l-0.088425,-0.004542l-0.055848,0.045421Z M2211.368055,897.38582l0.05895,-0.006056l0.027924,-0.051477l-0.034129,-0.042393h-0.065156l-0.024821,0.075702l0.037232,0.024225Z M2213.60351,899.195094l-0.013962,0.049963l0.079117,0.009084l0.04654,-0.0863l-0.04654,-0.013626l-0.065156,0.040879Z "/>
</svg>
