<svg xmlns="http://www.w3.org/2000/svg" viewBox="2225.628 947.924 0.528 1.021">
  <path d="M2225.910863,948.51925l0.002458,-0.02949l0.024575,-0.017203l0.01966,0.007373l-0.002458,0.024575l-0.022118,0.022118l-0.022118,-0.007373Z M2225.827307,948.929656l0.024575,0.014745l0.014745,-0.014745l-0.00983,-0.034405l0.01966,-0.024575l0.031948,0.007373l0.031948,-0.01966v-0.031948l-0.024575,-0.00983l-0.036863,0.012288l-0.012288,-0.007373l0.004915,-0.027033l-0.034405,-0.002458l-0.04915,0.034405l0.002458,0.04915l0.031948,0.017203l0.004915,0.036863Z M2225.633163,948.040033l0.031948,-0.00983l0.004915,0.01966l-0.022118,0.061438l-0.002458,0.041778l0.00983,0.027033l-0.014745,0.034405l0.004915,0.036863l0.022118,0.058981l-0.017203,0.027033l0.00983,0.017203l0.034405,-0.007373l0.046693,0.024575l0.00983,0.041778l0.022118,0.007373l0.054065,-0.034405l0.083556,0.017203l0.01966,0.022118l0.024575,-0.00983l0.00983,-0.01966l0.024575,-0.014745l0.02949,0.00983l0.054065,-0.007373l0.014745,-0.024575l-0.027033,-0.034405l0.017203,-0.014745l0.041778,0.004915l0.017203,-0.022118l0.002458,-0.090928l0.014745,-0.022118l-0.014745,-0.022118l-0.022118,0.002458l-0.036863,-0.02949l-0.083556,-0.00983l-0.041778,-0.01966l-0.02949,-0.066353l-0.044235,-0.031948l-0.041778,-0.007373l-0.031948,-0.017203h-0.036863l-0.061438,-0.014745l-0.002458,-0.024575l-0.024575,-0.014745l-0.02949,0.01966l-0.00983,0.061438l-0.017203,0.022118l0.007373,0.012288Z "/>
</svg>
