<svg xmlns="http://www.w3.org/2000/svg" viewBox="1134.844 658.731 79.120 64.094">
  <path d="M1139.275361,708.614438l0.006186,-0.043305l0.139194,-0.040212l0.024746,0.018559l-0.018559,0.043305l-0.071144,0.040212h-0.049491l-0.030932,-0.018559Z M1139.513538,708.595879l0.027839,-0.037118l-0.015466,-0.027839h-0.027839l-0.021652,0.030932v0.034025h0.037118Z M1144.219068,708.470605l0.092796,0.012373l0.105169,-0.018559l0.111355,0.006186v-0.098982l-0.228897,-0.055678l-0.142287,0.024746l-0.030932,0.049491l0.092796,0.080423Z M1144.720167,708.538655l0.179406,-0.037118l0.030932,-0.055678l-0.030932,-0.055678l-0.185592,0.049491l-0.037118,0.061864l0.043305,0.037118Z M1166.653275,721.420287l-0.364998,-0.052584l-0.153113,0.027839l-0.092796,-0.054083l-0.027114,-0.101061l-0.066552,-0.012324l-0.082646,0.083951l-0.22271,0.051038l-0.041758,0.046398l0.00928,0.083516l-0.055678,0.143834l0.037118,0.041758l0.148474,-0.00464l0.23199,0.055678l0.264469,-0.00928l0.176312,-0.064957l0.283028,-0.037118l0.482539,-0.00928l0.027839,-0.037118l-0.023199,-0.060317l0.037118,-0.120635l-0.032479,-0.064957l-0.115995,0.00928l-0.032479,0.074237l-0.061864,0.017013l-0.040212,-0.043305l-0.058771,0.006186l-0.06805,0.034025l-0.157753,-0.003093Z M1159.000698,721.850242l-0.037118,-0.046398l-0.136101,0.00928l-0.064957,0.134554l-0.218071,0.199511l-0.153113,0.255189l-0.055678,0.171673l0.055678,0.097436l0.129914,0.027839l0.259829,-0.046398l0.69133,-0.074237l0.013919,-0.055678l-0.102076,-0.092796l-0.157753,-0.218071l-0.139194,-0.060317l-0.064957,-0.111355l-0.021652,-0.190232Z M1166.616157,721.339864l0.015466,0.024746l0.148474,0.021652l0.092796,-0.037118l0.092796,0.003093l0.018559,0.024746l0.043305,-0.003093l0.030932,-0.061864l-0.015466,-0.049491l-0.102076,-0.037118l-0.037118,0.058771l-0.105169,0.030932l-0.064957,-0.018559l-0.083516,0.012373l-0.034025,0.030932Z M1166.776906,721.289696l0.044368,0.002465l0.024649,-0.012324v-0.022184l-0.072014,-0.010585l-0.018559,0.021652l0.021556,0.020976Z M1171.794174,719.162251l0.021652,0.102076l0.083516,0.064957l0.058771,-0.00928v-0.06805l-0.061864,-0.105169l-0.06805,-0.015466l-0.034025,0.030932Z M1171.843665,718.930261l0.06805,0.037118l0.037118,-0.00928l0.006186,-0.040212l-0.092796,-0.052584l-0.024746,0.012373l0.006186,0.052584Z M1171.565277,719.081827l0.043305,0.037118l0.06805,0.003093l0.021652,-0.024746l-0.030932,-0.058771l-0.108262,-0.064957l-0.021652,0.012373l0.027839,0.095889Z M1171.107483,718.590009l0.034025,0.08661l0.061864,0.092796l0.089703,0.040212l0.117542,0.136101l0.027839,0.098982l0.052584,0.037118l0.027839,-0.018559l-0.021652,-0.108262l-0.117542,-0.170126l-0.021652,-0.139194l-0.055678,-0.061864l-0.250549,-0.139194l-0.027839,0.015466l0.083516,0.129914Z M1163.90806,719.748412l0.032479,-0.037118l0.00464,-0.041758l-0.037118,-0.018559l-0.037118,0.037118l-0.00464,0.055678l0.041758,0.00464Z M1162.840906,720.797007l0.018559,0.041758l0.106715,0.00928l0.176312,0.129914l0.083516,0.176312l0.032479,-0.013919l-0.055678,-0.408302l-0.051038,-0.069597l-0.153113,-0.027839l-0.088156,0.046398l-0.069597,0.115995Z M1163.318805,720.843405l0.088156,0.213431l-0.00464,0.180952l0.064957,0.366544l0.074237,0.092796l0.153113,0.013919l0.115995,-0.032479l0.018559,-0.051038l-0.106715,-0.153113v-0.106715l0.069597,-0.078877l-0.00464,-0.055678l-0.088156,-0.106715l-0.060317,-0.306227l-0.083516,-0.088156l-0.199511,-0.051038l-0.055678,0.051038l0.018559,0.111355Z M1163.156412,719.822649l-0.00464,0.218071l0.027839,0.092796l0.069597,0.051038l0.134554,0.408302l0.051038,0.055678l0.167033,0.032479l0.102076,0.106715l0.037118,0.310867l0.102076,0.102076l0.00928,0.083516l-0.069597,0.078877v0.092796l0.083516,0.120635l0.134554,0.013919l0.074237,-0.041758l0.115995,-0.013919l0.157753,0.013919l0.069597,-0.060317l0.083516,-0.292307l-0.023199,-0.176312l-0.00928,-0.143834l0.041758,-0.157753l-0.22735,-0.408302l-0.310867,-0.167033l-0.083516,-0.134554l-0.018559,-0.148474l-0.064957,-0.037118l-0.125275,0.018559l-0.111355,0.051038l-0.088156,-0.023199l-0.143834,-0.24127l0.013919,-0.106715l-0.032479,-0.013919l-0.125275,0.083516l-0.129914,-0.00464l-0.023199,0.046398l0.115995,0.190232Z M1164.747864,721.284186l-0.194872,0.213431l-0.283028,0.417582l-0.018559,0.106715l0.051038,0.060317l0.403663,0.032479l0.23663,-0.102076l0.515018,-0.143834l0.032479,-0.060317l-0.046398,-0.078877v-0.296947l0.027839,-0.106715l-0.064957,-0.032479l-0.064957,0.046398l-0.162393,0.00928l-0.129914,-0.078877l-0.134554,-0.190232h-0.060317l-0.106715,0.204151Z M1161.233989,721.803844l0.012373,-0.058771l-0.021652,-0.037118l-0.024746,0.003093l-0.00928,0.034025l0.015466,0.061864l0.027839,-0.003093Z M1163.750307,719.692734l0.051038,0.060317l0.032479,-0.018559l-0.018559,-0.111355l-0.055678,-0.060317l-0.041758,0.013919l0.032479,0.115995Z M1158.369685,722.218332l0.034025,-0.018559l0.034025,-0.046398v-0.043305l-0.024746,-0.00928l-0.049491,0.052584l-0.018559,0.049491l0.024746,0.015466Z M1157.32109,722.202866l0.040212,0.006186l0.089703,-0.055678l0.14538,0.006186l0.064957,-0.040212l0.00928,-0.111355l-0.040212,-0.157753l-0.06805,-0.00928l-0.111355,0.030932l-0.080423,0.092796l-0.083516,0.058771l-0.021652,0.071144l0.015466,0.06805l0.040212,0.040212Z M1173.616068,719.273606l0.089703,-0.012373l0.030932,-0.015466l-0.003093,-0.027839l-0.098982,0.003093l-0.043305,0.030932l0.024746,0.021652Z  M1207.064484,659.910553l1.521,2.158l1.445,2.051l0.806,3.621l-0.021,0.25l-0.118,0.18l0.007,0.105l0.055,0.062l-0.012,0.111l-0.062,0.068v0.081l0.254,0.303l0.148,0.012l0.136,-0.049h0.167l0.062,0.062l0.093,0.006l0.074,-0.062l0.136,-0.006l0.105,0.062l0.167,0.012l0.266,-0.05l0.229,0.056l0.279,0.204l0.13,0.025l0.012,0.087l-0.037,0.043l0.025,0.087l0.179,0.111l0.08,0.142l-0.061,0.068l0.061,0.099l0.229,0.031l0.106,0.155l-0.025,0.062l0.086,0.043l0.149,-0.068l0.124,0.006l0.105,0.192l-0.006,0.093l-0.137,0.13l-0.012,0.148l-0.086,0.105l0.024,0.124l0.074,0.019l-0.006,0.061l-0.167,0.05l-0.049,0.124l0.08,0.142v0.167l0.118,0.173l0.006,0.074l-0.124,0.161l-0.055,0.266l-0.112,0.093l-0.012,0.074l0.055,0.044l-0.006,0.08l-0.055,0.074l0.006,0.211l0.055,0.086l-0.018,0.124l-0.291,0.272l-0.117,0.037l0.006,0.081l0.315,0.099l0.186,0.247l0.105,0.056l0.043,0.303l-0.055,0.254l-0.118,0.185l-0.031,0.167l-0.13,0.105l-0.309,0.143l-0.167,0.024l-0.13,0.075l-0.223,0.259l-0.117,0.044l-0.112,-0.006l-0.092,0.043l-0.037,0.105l-0.539,0.415l-0.408,0.222l-0.161,0.031l-0.124,0.081l-0.092,0.21l-0.106,0.037l-0.055,0.068l-0.105,0.019l-0.099,-0.044l-0.205,-0.037l-0.148,-0.136l-0.074,-0.012l-0.05,0.037l-0.08,-0.012l-0.068,-0.062l-0.371,-0.124l-0.075,-0.05l-0.148,-0.037l-0.087,0.075l-0.012,0.198l-0.118,0.216v0.099l-0.111,0.173l-0.068,0.013l-0.037,0.062v0.068l-0.062,0.086l-0.087,0.025l-0.086,0.105v0.081l-0.099,0.136l-0.031,0.111l-0.167,0.167l-0.087,0.025l-0.13,0.216l0.006,0.099l-0.043,0.087l-0.204,0.025l-0.148,-0.013l-0.05,0.081v0.099l-0.062,0.074l-0.08,0.049l0.012,0.13l0.093,0.105l-0.068,0.378l-0.099,0.111l-0.13,0.019l-0.062,0.21l-0.136,0.025l-0.049,0.117l0.055,0.118l-0.043,0.179l-0.093,0.05l-0.049,0.142l0.012,0.068l-0.099,0.093l-0.186,0.025l-0.006,0.099l0.05,0.037v0.055l-0.056,0.062l-0.019,0.211l-0.086,0.012l-0.006,0.142l0.08,0.075l-0.006,0.117l-0.031,0.081l0.093,0.08l0.062,0.111l-0.037,0.075l-0.13,0.049l-0.174,-0.012l-0.031,0.068l0.075,0.08l-0.013,0.062l-0.105,0.031l-0.018,0.111l-0.05,0.068l0.031,0.341l0.124,0.179l-0.025,0.272l-0.142,0.279l-0.006,0.123l-0.118,0.198l-0.006,0.081l0.031,0.049l-0.019,0.081l-0.105,0.092l-0.093,0.031l-0.043,0.124l-0.099,0.087h-0.118l-0.031,0.062l0.075,0.136l-0.062,0.055l-0.155,-0.105l-0.055,0.025l-0.019,0.086l-0.26,0.05l-0.105,-0.037l-0.204,0.086l-0.099,0.229l0.037,0.136l-0.322,0.155l-0.024,0.248l0.228,0.13l-0.018,0.266l-0.279,0.222l0.031,0.316l0.143,0.099l0.222,0.086v0.099l-0.241,0.316l-0.049,0.192l0.024,0.092l-0.086,0.273l-0.081,0.061l-0.012,0.069l0.049,0.061l-0.086,0.545l-0.105,0.154l-0.186,0.056l-0.173,0.105l-0.279,0.087l-0.098,-0.006l-0.087,0.018l-0.043,0.062l-0.328,0.05l-0.26,0.216l-0.074,0.006l-0.05,0.037l-0.025,0.087l-0.241,0.254l-0.352,0.148l-0.075,0.118l-0.08,0.031l-0.006,0.062l0.092,0.074l0.106,0.018l0.092,-0.049l0.099,0.012l0.081,0.068l-0.006,0.068l-0.075,0.099l-0.018,0.161l0.056,0.099l-0.013,0.204l-0.093,0.192v0.105l-0.086,0.142l-0.025,0.217l0.068,0.111v0.149l-0.204,0.612l-0.285,0.31l-0.049,0.29l-0.05,0.056l0.007,0.093l0.074,0.025l-0.019,0.074l-0.074,0.012l-0.006,0.062l0.049,0.037l-0.012,0.062l-0.043,0.068l0.031,0.093l0.074,0.025v0.068l-0.05,0.074l-0.037,0.142l-0.086,0.044l-0.038,0.098l0.013,0.106l-0.044,0.049l-0.086,-0.006l-0.093,-0.062l-0.136,-0.006l-0.068,-0.019l-0.074,0.019l-0.062,0.247l0.025,0.136l-0.068,0.217l-0.161,0.13l-0.211,0.012l-0.049,0.062l-0.056,0.019l-0.062,-0.013l-0.062,0.019l-0.03,0.13l0.055,0.099l-0.055,0.055h-0.081l-0.284,-0.148l-0.05,-0.093l-0.254,-0.099l-0.123,0.013l-0.099,0.105l-0.186,0.031l-0.037,0.062l0.062,0.061v0.192l0.105,0.192l-0.093,0.21l-0.093,0.044l-0.123,-0.013l-0.044,0.056l-0.006,0.062l-0.216,0.074l-0.235,0.192l-0.007,0.111l-0.117,0.056l-0.081,-0.037l-0.055,-0.081l-0.186,-0.024l-0.086,0.049l-0.007,0.105l-0.061,0.142l-0.031,0.161l0.037,1.368l-0.099,0.099l-0.112,0.185l-0.111,0.074l-0.062,0.136l0.074,0.246l-0.004,0.358l0.079,0.167l-0.135,0.167l0.019,0.111l-0.093,0.084h-0.065l-0.065,0.106l-0.009,0.075l-0.599,0.7l-0.08,0.263l-0.273,0.445l-0.086,0.124l0.049,0.792l0.099,0.111l-0.062,0.112l-0.292,0.066l-0.111,0.105l-0.167,0.038l-0.093,0.123l0.012,0.13l0.074,0.118l-0.018,0.222l-0.099,0.075l-0.13,0.043l-0.105,0.192l0.018,0.161l-0.235,0.346l0.044,0.099l0.136,0.019l0.012,0.117l-0.105,0.136l0.012,0.458l0.143,0.285l-0.087,0.111l-0.161,-0.019l-0.087,0.025l-0.006,0.081l-0.074,0.018l-0.105,-0.074l-0.124,0.068l-0.025,0.148l-0.105,0.05l-0.167,-0.074l-0.142,0.049l-0.074,0.093l-0.334,0.254l-0.149,0.024l-0.074,0.087l-0.012,0.148l-0.118,0.285l-0.149,0.019l-0.148,0.29l0.05,0.124l0.148,0.093l0.019,0.179l-0.099,0.099l-0.025,0.118l0.086,0.167l-0.043,0.105l-0.161,0.08l-0.055,0.174l0.043,0.068l-0.019,0.092l-0.117,0.099l-0.173,0.322l-0.124,0.025l-0.198,-0.05l-0.223,0.05v0.105l0.074,0.173l-0.061,0.149l-0.421,0.062l-0.068,0.123l-0.198,-0.012l-0.229,-0.186l-0.142,0.007l-0.044,0.061l-0.111,0.007l-0.111,-0.081l-0.143,0.025l-0.055,0.142l-0.229,0.05l-0.112,-0.068l0.007,-0.087l-0.075,-0.025l-0.08,0.081l-0.136,-0.031l-0.037,-0.576l0.043,-0.395l-0.216,-0.279h-0.211l-0.272,0.155l-0.278,-0.013l-0.198,-0.136l-0.031,-0.346l-0.081,-0.037l-0.062,0.025l-0.099,-0.056l-0.055,-0.161l-0.242,-0.124l-0.117,-0.204l0.031,-0.185l0.155,-0.279l-0.013,-0.13l-0.39,-0.173l-0.086,0.037l-0.118,-0.056l-0.105,-0.154l-0.353,-0.223l-0.043,-0.148l-0.111,-0.031l-0.099,0.037l-0.173,-0.05l-0.124,-0.161l0.043,-0.204l-0.049,-0.26l-0.105,-0.08l-0.062,0.019l-0.081,0.42l0.006,0.452l-0.129,0.55l-0.112,0.124l-0.155,0.05l-0.061,0.086l-0.081,0.006l-0.093,-0.105l-1.633,0.186l-0.266,-0.328l0.013,-0.278l-0.068,-0.136l0.024,-0.093l-0.055,-0.099l-0.118,-0.025l-0.749,0.73l-0.086,0.025l-0.043,0.093l-0.106,0.068l-0.309,0.259l-0.359,0.365l-0.216,0.149l-0.279,-0.006l-0.13,-0.075l-0.136,0.013l-0.08,0.198l0.006,0.093l-0.056,0.321l0.056,0.056l-0.025,0.074l-0.055,0.044l-0.143,0.383l-0.16,0.637l-0.099,0.05l-0.186,-0.013l-0.043,-0.055l-0.093,-0.019l-0.068,0.037l-0.217,-0.086l-0.08,0.068l-0.043,0.309l-0.322,0.167l-0.142,0.012l-0.279,-0.055l-0.068,0.154l-0.031,0.304l-0.068,0.049l-0.056,0.39h-0.129l-0.266,-0.155l-0.161,-0.068l-0.056,0.037l-0.08,0.384l-0.136,0.173l-0.31,0.52l-0.328,0.099l-0.29,0.253l-0.081,0.204l-0.662,0.607l-0.031,0.086l-0.68,0.545l-0.192,0.068l-0.124,0.266l-0.253,0.124l-0.019,0.074l-0.105,0.093l0.031,0.111l0.136,-0.019l0.099,0.031l0.012,0.124l-0.085,0.094l-0.031,0.075l0.007,0.099l-0.13,0.222l-0.087,0.037l0.025,0.124l0.365,0.328l0.148,0.309l-0.012,0.192l-0.266,0.377l-0.068,0.174l-0.155,0.13l-0.043,0.29l0.093,0.149l-0.105,0.396l-0.124,0.26l-0.019,0.42l0.062,0.248l-0.254,0.476l-0.21,0.093l-0.062,0.105l-0.092,0.056l-0.031,0.111l0.012,0.111l-0.105,0.167l-0.099,0.019l-0.037,0.068l0.049,0.068l-0.012,0.062l-0.074,0.037l-0.112,0.18l-0.08,0.024l-0.025,0.056l0.037,0.099l-0.025,0.074l-0.21,0.031l-0.093,0.136l0.006,0.118l0.149,0.148l0.006,0.155l-0.17,0.12l-0.059,-0.006l-0.046,-0.052l-0.146,0.003l-0.111,0.068l-0.133,0.284l0.012,0.189l0.047,0.099v0.065l-0.139,0.124l-0.214,0.009l-0.093,-0.059l-0.003,-0.117l0.075,-0.068l0.009,-0.059l-0.056,-0.09h-0.04l-0.056,0.074l-0.13,0.069l-0.225,-0.05l-0.025,-0.105l0.052,-0.093l-0.024,-0.062l-0.075,-0.034l-0.089,0.013l-0.208,-0.109l-0.049,-0.111l0.019,-0.074l-0.028,-0.019l-0.062,-0.003l-0.077,-0.099l0.018,-0.068l-0.04,-0.071l-0.136,-0.062l-0.118,-0.142l0.019,-0.121l0.188,-0.195l0.059,-0.142l0.071,-0.071l-0.003,-0.074h-0.031l-0.009,0.061l-0.071,0.065l-0.099,0.149l-0.167,0.176l-0.071,0.003l-0.133,-0.173l-0.242,-0.195l-0.12,-0.08l-0.022,0.015l0.047,0.096l0.194,0.186l0.103,0.052l0.065,0.09l0.046,0.182l0.167,0.279l-0.025,0.018l-0.127,-0.065l-0.145,-0.182l-0.025,-0.13l-0.068,-0.077l-0.334,-0.192l-0.173,-0.22l-0.099,-0.263l-0.08,-0.102l-0.022,0.006l0.056,0.118l0.04,0.22l0.219,0.284l0.143,0.285l0.096,0.111l0.092,0.059l0.099,0.117l0.031,0.099l0.053,0.044l0.074,0.025l0.158,0.123l0.031,0.087l0.074,0.074l0.124,0.05l0.139,0.129l0.006,0.044l-0.025,0.031l-0.006,0.12l0.053,0.102l-0.006,0.263l-0.016,0.059l0.012,0.071l0.062,0.047l0.087,0.229l-0.016,0.083l-0.058,0.037l-0.062,0.006l-0.084,-0.009l-0.102,0.081v0.077l-0.105,0.185l-0.065,0.031l-0.167,-0.003l-0.266,-0.052l-0.377,-0.01l-0.984,0.013l-0.911,0.102l-1.062,0.181l-0.367,0.107l-0.172,0.074l-0.078,-0.019l-0.061,-0.139l-0.158,-0.111l-0.111,-0.01l-0.051,-0.055v-0.051l-0.028,-0.051l-0.079,-0.042l-0.004,-0.051l0.097,-0.098l0.014,-0.125l-0.093,-0.13l-0.032,0.019l0.055,0.106l-0.004,0.093l-0.098,0.107l0.005,0.107l0.088,0.162l-0.014,0.042l-0.134,-0.028l-0.228,0.153l-0.232,-0.028l-0.083,0.014l-0.093,-0.018l-0.042,-0.13l-0.139,-0.005l-0.074,0.074l-0.116,0.01l-0.116,-0.037l-0.241,0.004l-0.186,0.056l-0.079,-0.042l-0.199,-0.357l-0.232,-0.172l-0.334,-0.515l-0.297,-0.102l-0.028,-0.093l-0.019,-0.158l-0.004,-0.19l-0.075,-0.102l-0.199,-0.065l-0.065,0.061l0.046,0.148l0.037,0.042l-0.009,0.042l-0.079,0.009l-0.069,0.037l-0.079,-0.005l-0.121,-0.19l0.005,-0.148l-0.074,-0.024l-0.112,0.084l-0.167,0.009l-0.023,0.098l0.097,0.181l-0.018,0.218l0.042,0.125l0.074,0.093l0.042,0.25l-0.042,0.047l-0.149,-0.014l-0.139,-0.144l-0.102,-0.241l-0.218,-0.242l-0.097,-0.014l-0.019,0.038l0.093,0.041l0.171,0.214l0.103,0.246l0.083,0.12l-0.042,0.075l-0.111,0.143l0.037,0.084l0.135,0.023l0.139,0.125l0.144,0.413l0.046,0.047l0.037,0.222v0.084l0.028,0.065l0.111,0.056l0.005,0.083l-0.116,0.121l-0.088,0.014l-0.051,-0.061h-0.042l-0.042,0.056l-0.153,-0.005l-0.339,-0.116l-0.125,-0.004l-0.074,-0.047l-0.269,-0.816l-0.037,-0.2l0.023,-0.144l0.134,-0.167v-0.12l-0.19,-0.223l-0.111,-0.056l-0.06,-0.074l-0.019,-0.13l-0.111,-0.45l0.004,-0.102l-0.037,-0.07l0.019,-0.051l0.134,-0.051l0.005,-0.046l-0.056,-0.023l-0.065,0.014l-0.111,-0.024l-0.06,-0.074l-0.098,-0.018l-0.018,-0.102l-0.042,0.004l0.005,0.112l0.092,0.069l0.024,0.116l0.139,0.144l-0.005,0.107l0.111,0.454l0.019,0.144l0.084,0.098l0.134,0.069l0.13,0.186l0.005,0.107l-0.121,0.092l-0.079,0.135l0.028,0.264l0.223,0.678l0.009,0.12l0.088,0.154l0.149,0.111v0.046l-0.14,0.024l-0.143,-0.01l-0.177,0.023l-0.106,0.047h-0.26l-0.167,-0.056l-0.047,-0.093l0.014,-0.464l-0.088,-0.213l-0.014,-0.195l0.042,-0.167l0.153,-0.223l0.019,-0.12l-0.028,-0.255l-0.065,-0.038l-0.033,0.038l0.023,0.088v0.222l-0.148,0.237l-0.042,0.204l0.028,0.223l0.046,0.13l-0.004,0.102l-0.042,0.014l-0.079,-0.172l-0.042,-0.25l-0.065,-0.056l-0.004,-0.056l0.088,-0.093l0.014,-0.092l-0.144,-0.121l-0.065,-0.19l-0.037,0.004l0.06,0.205l0.112,0.125l-0.005,0.056l-0.102,0.097h-0.056l-0.176,-0.209l-0.088,-0.042l-0.033,0.038l0.093,0.06l0.135,0.181l0.13,0.06l0.06,0.079l0.046,0.218l-0.023,0.125l0.037,0.135l0.107,0.097l0.121,0.32l-0.033,0.07l-0.107,0.033l-0.106,-0.005l-0.088,0.037l-0.042,0.074l-0.093,0.019l-0.246,-0.2v-0.139l0.042,-0.111l-0.009,-0.571l-0.14,-0.172l-0.222,-0.102l-0.01,-0.092h-0.037l-0.004,0.116l0.213,0.125l0.139,0.176l0.005,0.487l-0.037,0.144l-0.075,0.028l-0.009,0.046l0.051,0.033l0.042,0.12l-0.023,0.056l-0.562,0.042l-0.218,0.051l-0.153,-0.005l-0.069,-0.079v-0.065l0.046,-0.055l-0.009,-0.074l-0.051,-0.089l-0.01,-0.106h-0.037l-0.014,0.083l0.051,0.116l0.01,0.061l-0.07,0.046h-0.111l-0.149,-0.209l-0.148,-0.056l-0.042,-0.069l-0.028,-0.279l0.033,-0.078l-0.024,-0.181l-0.051,-0.07l-0.041,0.005l0.018,0.102l0.033,0.097l0.004,0.051l-0.055,0.09h-0.14l-0.074,-0.09l-0.004,-0.12l-0.033,0.004l-0.018,0.112l0.046,0.102l-0.014,0.055l-0.172,0.177l-0.046,-0.005l-0.014,-0.394l-0.144,-0.246v-0.139l0.065,-0.158l-0.037,-0.005l-0.097,0.167l0.004,0.158l0.102,0.223l0.024,0.232l-0.038,0.069h-0.041l-0.061,-0.116l-0.102,-0.06h-0.06l-0.06,-0.056l-0.042,0.019l0.065,0.102l0.074,0.004l0.093,0.052l0.056,0.134l-0.01,0.084l-0.051,0.046l-0.079,0.315l0.01,0.149l0.046,0.107l-0.028,0.065l-0.538,0.037l-0.167,0.028l-0.153,-0.014l-0.037,-0.084v-0.246l0.079,-0.222l0.078,-0.056h0.158l0.112,-0.074l0.023,-0.116l-0.07,-0.223l0.023,-0.079l-0.037,-0.139l-0.021,0.009l0.017,0.121l-0.084,0.088l-0.102,0.037l-0.048,-0.017l-0.04,-0.068l0.006,-0.043l0.087,-0.05l0.006,-0.059l-0.028,-0.003l-0.022,0.044l-0.083,0.049l-0.016,0.071l0.047,0.087l-0.006,0.046l-0.09,0.04l-0.034,0.069l-0.053,-0.01l-0.071,-0.093l-0.018,-0.126l0.04,-0.146l-0.031,-0.006l-0.056,0.136v0.136l0.139,0.192l0.013,0.17l-0.034,0.022l-0.09,-0.078l-0.031,0.013l0.006,0.08l0.096,0.13l0.037,0.115l-0.006,0.151l-0.04,0.022l-0.455,-0.118l-0.071,-0.052l-0.015,-0.074l0.018,-0.161l0.04,-0.037l-0.003,-0.053l-0.059,-0.087l-0.009,-0.148l0.142,-0.288l0.035,-0.192l-0.038,-0.006l-0.074,0.195l-0.12,0.26l0.009,0.161l-0.037,0.006l-0.044,-0.065v-0.3h-0.031l-0.043,0.201l0.019,0.118l0.074,0.083l0.046,0.009l0.016,0.05l-0.034,0.195l-0.04,0.006l-0.588,-0.356l-0.198,-0.198l-0.192,-0.148l-0.161,-0.087l-0.383,-0.322l-0.582,-0.6l-0.606,-0.909l-0.105,-0.204l-0.477,-0.823l-0.006,-0.148l-0.142,-0.557l-0.186,-0.452l-0.247,-0.396l0.018,-0.068l0.211,-0.068l0.222,0.019l0.081,-0.019l0.105,-0.062l-0.006,-0.043l-0.204,-0.019l-0.204,0.025l-0.155,0.062l-0.068,-0.012l-0.118,-0.155l-0.012,-0.087l0.025,-0.179l-0.062,-0.421l-0.173,-0.507l0.074,-0.099l0.192,0.031h0.173l0.192,-0.056l0.148,0.006l0.155,0.099l0.272,-0.006l0.272,-0.117l0.062,-0.087l0.118,0.019l0.024,-0.05l-0.216,-0.099l-0.173,-0.204l-0.013,-0.34l0.068,-0.136l0.254,-0.013l0.117,0.031l0.149,-0.068l0.049,-0.142l0.081,-0.019l0.117,0.062l0.025,-0.043l-0.105,-0.118l-0.149,0.025l-0.086,0.142l-0.099,0.038l-0.124,-0.025l-0.284,0.055l-0.118,0.186l-0.093,0.483l-0.099,0.037l-0.253,-0.075l-0.05,0.038l0.062,0.086l-0.031,0.056l-0.526,-0.019l-0.674,-0.284l-0.396,-0.396l-0.136,-0.291l0.198,-0.315l0.13,-0.068h0.377l0.34,0.086l0.378,0.025l0.167,-0.149l-0.006,-0.167l0.086,-0.043l0.266,0.025l0.142,0.099l0.242,0.031l0.161,-0.025l-0.025,-0.05l-0.161,0.013l-0.204,-0.056l-0.21,-0.124l-0.273,-0.006l-0.111,0.099l-0.049,0.171l-0.118,0.058l-0.248,-0.037l-0.049,-0.08l-0.173,-0.038l-0.062,0.031l-0.353,-0.018l-0.167,0.056l-0.142,0.117l-0.124,-0.006l-0.315,-0.365l-0.254,-0.495l0.037,-0.384l0.161,-0.136l0.155,0.019l0.21,-0.192l0.322,-0.173l0.284,-0.105l0.075,-0.118l0.21,-0.117l0.433,-0.328l0.025,-0.081l0.117,-0.055l0.136,0.031l0.124,-0.007l0.179,-0.061l0.112,0.03l0.192,0.285l0.148,0.05l0.025,-0.044l-0.105,-0.062l-0.254,-0.309l-0.179,-0.031l-0.149,0.062l-0.099,0.006l-0.155,-0.018l-0.16,0.08l-0.044,0.093l-0.414,0.309l-0.204,0.099l-0.068,0.068l-1.046,0.538l-0.111,0.118l-0.05,0.142l-0.055,0.037l-0.136,-0.086l-0.403,-0.718l-0.575,-0.656l-0.847,-0.819l-1.123,-0.9l-0.724,-0.492l-0.696,-0.251l-2.858,-0.464l-0.845,-0.037l-1.266,0.107l-1.202,0.014l-0.046,0.083l-0.135,0.037l-0.051,-0.023l0.009,-0.158l-0.041,-0.102l-0.084,-0.074l0.028,-0.051l0.38,-0.014l0.112,0.042l0.246,0.014l0.041,-0.047h0.079l0.093,0.014l0.116,-0.037l0.158,-0.13l0.009,-0.088l0.051,-0.056l0.111,-0.018l0.158,0.042l0.302,-0.089l0.055,-0.064l0.084,-0.024l0.121,0.028l0.143,-0.042l0.121,-0.13l-0.009,-0.116l0.069,-0.106l0.191,-0.051l0.162,0.014l0.223,-0.037l0.116,-0.042l0.139,0.009l0.167,0.056l0.097,0.111l0.2,0.07l0.167,-0.005l0.107,0.019l0.06,0.097l0.176,0.107h0.149l0.051,-0.065l0.065,-0.005l0.083,0.06l0.037,0.158l-0.041,0.13h-0.121l-0.139,-0.06h-0.112l-0.046,0.023l-0.065,-0.005l-0.25,-0.102l-0.381,-0.004l-0.107,0.055l0.037,0.047l0.26,-0.014l0.339,0.093l0.121,0.139l0.246,0.074l0.32,0.209l0.092,0.004l0.116,-0.027l0.079,0.004l0.093,0.042l0.116,0.019l0.255,-0.056l0.042,-0.107l-0.06,-0.111l-0.334,-0.139l-0.042,-0.102l0.38,-0.246l0.038,-0.186l-0.084,-0.121l-0.288,-0.041l-0.255,0.111l-0.148,0.125h-0.112l-0.069,-0.06l-0.311,-0.037l-0.098,-0.084l-0.176,-0.018l-0.204,0.028l-0.144,-0.07l-0.097,-0.144l-0.539,-0.069l-0.566,0.014l-0.208,-0.024l-0.102,0.019l-0.279,0.311l-0.223,0.079l-0.097,-0.042l-0.181,0.028l-0.186,0.167l-0.236,0.028l-0.26,-0.07l-0.07,-0.121l0.075,-0.143l-0.005,-0.112l-0.074,-0.032l-0.218,0.13l-0.037,0.134l-0.075,0.023l-0.055,-0.032l-0.056,0.037l0.005,0.144l-0.121,0.404l-0.107,0.12l0.023,0.084l0.07,0.027l-0.018,0.042l-0.26,0.033l-0.075,0.079l0.014,0.055l0.214,0.047l0.13,-0.037l0.055,0.046l-0.032,0.046l-0.617,-0.046l-1.169,0.009l-1.402,0.037l-0.696,0.047l-0.232,0.065l-0.366,0.032l0.009,-0.445l-0.037,-0.112l0.019,-0.083l0.092,-0.046v-0.103l-0.111,-0.092l0.014,-0.112l0.136,-0.099l0.124,-0.235l-0.075,-0.21l-0.012,-0.248l0.087,-0.173l0.198,-0.173l0.024,-0.235l0.05,-0.112l-0.062,-0.123l-0.124,0.012l-0.185,-0.149l0.037,-0.272v-0.631l-0.173,-0.173l0.099,-0.408l0.185,-0.174l0.037,-0.185l-0.136,-0.248l0.186,-0.173l-0.099,-0.755l-0.062,-0.123l-0.025,-0.978l0.087,-0.099h0.198l0.062,-0.111l-0.037,-0.384l-0.372,-0.358v-0.273l-0.099,-0.111l0.087,-0.953l-0.025,-0.284l-0.272,-0.433l-0.025,-0.235l0.124,-0.297l0.074,-0.582l0.124,-0.21l0.012,-0.47l0.112,-0.186l0.012,-0.346l-0.161,-0.174l-0.198,-0.482l0.013,-0.248l0.111,-0.111l0.025,-0.161l-0.087,-0.148l0.012,-0.112l0.161,-0.049l0.161,-0.248l0.037,-0.358l-0.062,-0.396l-0.012,-0.322l-0.087,-0.148l0.013,-0.186l0.086,-0.099l0.013,-0.223l-0.161,-0.185l0.062,-0.223l0.148,-0.037l0.037,-0.099l-0.037,-0.112l0.05,-0.383l-0.087,-0.074l0.013,-0.099l0.099,-0.037l0.086,-0.372l-0.037,-0.495l0.074,-0.099l0.124,0.05l0.26,0.025l0.359,-0.013l0.544,-0.16h0.26l0.383,-0.137l0.05,-0.21l0.173,-0.396v-0.26l0.087,-0.161l0.148,-0.16v-0.52l-0.124,-0.371l-0.012,-0.223l0.149,-0.297l0.222,-0.148l0.371,-0.582l0.099,-0.322l0.161,-0.086h0.198l0.211,-0.112l0.086,-0.185l-0.161,-0.099l-0.086,-0.347l0.037,-0.185l0.198,-0.198l0.557,-0.235l0.21,-0.037l0.223,0.037l0.173,-0.013l0.148,-0.185l0.013,-0.149l0.062,-0.099l0.173,-0.111l0.074,-0.198v-0.408l0.111,-0.334l0.26,-0.198l0.099,-0.285l-0.025,-0.136l-0.173,-0.025l-0.334,-0.26l-0.13,-0.334l0.334,-0.798v-0.204l0.352,-0.25l0.677,0.343l0.083,-0.046l0.047,-0.167l0.018,-0.325l0.093,-0.362l0.149,-0.315l-0.065,-0.743l-0.149,-0.13h-0.111l-0.074,-0.092v-0.13l-0.102,-0.251l-0.13,-0.176l-0.01,-0.149l0.149,-0.556l-0.084,-0.566l-0.25,-0.195l0.018,-0.112l-0.037,-0.213l0.056,-0.279l-0.084,-0.102l-0.089,0.002l-1.052,-0.73l-0.272,-0.297l0.235,-1.064l0.125,-1.005l0.292,-0.673l0.112,0.074l0.464,-0.408l-0.065,-0.371l-0.288,-0.149l-0.046,-0.612l0.38,-0.353l-0.037,-0.362l-0.269,-0.584l0.084,-0.631l0.148,-0.316l-0.111,-0.891l0.018,-0.872l0.798,-0.696l1.095,-0.798l0.204,-0.297l0.102,-0.204l0.14,-0.158l0.083,-0.176l0.204,-0.214l0.112,-0.287l0.157,-0.251l0.093,-0.083l0.235,-1.126l0.037,-0.89l-0.037,-0.347v-0.915l0.594,0.012l1.547,-1.386l2.449,-0.581l0.223,-0.075l0.272,0.248l0.235,0.049l0.409,-0.012l0.334,-0.074l0.383,0.012l0.582,0.074l0.247,-0.037l0.26,-0.086l0.297,-0.334l0.136,-0.223l0.681,-0.248l0.519,-0.074l0.619,0.297l1.386,0.545l1.695,0.556l0.433,0.211l0.433,-0.174l0.371,-0.037l0.965,0.483l1.745,1.806l0.792,1.299l0.841,0.978l0.73,0.025l0.458,-0.149l0.655,-0.73l0.26,0.037l0.322,0.124l0.52,0.049l0.321,-0.099l1.374,-0.828l1.113,-0.706h0.211l0.309,0.062l0.47,0.037l0.458,0.087l0.257,-0.004l0.501,0.26l0.362,0.334l0.315,0.083l0.418,0.399l0.093,0.112l0.436,0.362l0.148,0.167l0.279,-0.093l0.25,-0.019l0.195,0.102l0.149,0.01l0.297,0.232l0.222,0.25l0.112,0.288l0.389,0.176l1.003,0.269l0.779,0.269l0.26,-0.009l0.232,0.037l0.863,-0.009l0.121,0.065l0.454,0.009l0.427,0.084l0.362,-0.093l0.984,0.093l0.816,0.018l0.919,-0.993l0.359,-0.513l0.297,-0.149l0.198,-0.296l0.606,-0.582l1.287,-0.594l0.878,-0.025l0.829,-0.099l1.25,-0.482l5.295,-0.161l0.879,0.247l0.581,0.322l1.299,0.285l0.409,0.21l0.42,0.371l0.209,0.204l0.826,0.251l0.088,-0.033l0.037,-0.106l0.075,-0.028l0.106,0.065l0.135,0.042l0.074,-0.038l0.19,0.028l0.005,0.2l0.065,0.004l0.065,-0.092l0.153,0.009l0.111,0.116h0.051l0.056,-0.065h0.125l0.079,0.074l0.088,0.005l0.079,-0.037l0.358,0.06l0.074,0.088l0.055,-0.004l0.079,-0.395l0.07,-0.162l0.19,-0.051l0.13,-0.07l0.005,-0.232l-0.047,-0.065l0.014,-0.06l0.135,-0.121l0.083,-0.241l0.079,-0.083l0.228,0.009l0.088,-0.13h0.055l0.107,0.134l0.079,0.005l0.079,-0.111l-0.014,-0.153l0.046,-0.028l0.13,0.055l0.042,-0.023l-0.005,-0.046l0.126,-0.051l-0.005,-0.107l0.162,-0.209l0.112,-0.004l0.065,-0.047l-0.01,-0.074l0.051,-0.06l0.168,-0.028l0.051,-0.042l-0.061,-0.083l0.014,-0.051l0.241,-0.061v-0.209l0.093,-0.139l0.125,-0.014l0.075,0.07l0.134,-0.005l0.088,-0.116l0.149,-0.055l0.325,-0.01l0.25,-0.19l0.079,-0.028l0.079,0.112l0.111,0.06l0.084,-0.107h0.06l0.051,0.065l0.056,-0.004l0.037,-0.093h0.07l0.055,0.144h0.065l0.047,-0.075l0.097,-0.014l0.065,0.121h0.06l0.056,-0.204l0.084,-0.042l0.092,-0.088l-0.037,-0.097l0.037,-0.061l0.126,0.019l0.037,-0.061l-0.037,-0.074l0.074,-0.227l0.158,-0.098l0.143,-0.255l0.107,0.005l0.047,-0.051l-0.019,-0.098l0.07,-0.041l0.116,0.065l1.801,0.011z"/>
</svg>
