<svg xmlns="http://www.w3.org/2000/svg" viewBox="538.302 651.130 33.797 29.015">
  <path d="M567.234406,652.689381l-0.041758,-0.102076l0.037118,-0.055678l0.125275,0.00928l0.069597,0.083516l-0.023199,0.143834l-0.069597,0.041758l-0.106715,-0.023199l0.00928,-0.097436Z M569.521827,669.689609l0.074237,0.00928l0.00464,-0.051038l-0.060317,-0.097436h-0.064957l-0.041758,0.055678l0.088156,0.083516Z M564.959357,668.992092l0.034025,-0.007733l0.018559,0.078877l-0.00464,0.102076l-0.041758,0.037118l-0.051038,-0.027839l0.041758,-0.115995l0.003093,-0.066504Z M568.912467,670.452082l0.012373,-0.06805l0.136101,-0.049491l0.117542,0.037118l-0.018559,0.06805l-0.142287,0.129914l-0.074237,-0.024746l-0.030932,-0.092796Z M564.441246,672.2183v-0.102076l0.018559,-0.129914l-0.00464,-0.143834l0.069597,-0.102076l0.018559,-0.115995l0.064957,-0.051038l0.060317,0.013919l-0.00928,0.060317l-0.074237,0.199511l0.00928,0.334066l0.060317,0.204151l-0.032479,0.032479l-0.083516,-0.032479l-0.051038,-0.102076l-0.046398,-0.064957Z M570.217797,655.313961l0.080423,0.018559l-0.030932,0.061864l-0.055678,0.006186l-0.024746,-0.061864l0.030932,-0.024746Z M571.62211,654.454052l0.037118,0.037118l0.055678,0.012373l0.024746,-0.055678l-0.043305,-0.055678l-0.055678,-0.006186l-0.018559,0.06805Z M572.042785,656.099634l0.037118,-0.043305l0.018559,-0.049491h-0.074237l-0.018559,0.049491l0.037118,0.043305Z M570.793132,655.740823l0.105169,0.037118l0.15466,-0.018559l0.111355,-0.136101l-0.037118,-0.117542l0.024746,-0.08661l-0.06805,-0.08661l-0.179406,-0.012373l-0.111355,0.08661l-0.092796,0.228897l-0.08661,0.055678l0.018559,0.049491h0.160846Z  M551.534869,677.711823l0.569,-0.947l0.322,0.05l0.247,0.309l0.659,0.241l0.455,0.016l0.804,0.399l2.131,0.809l1.524,-0.917l0.093,0.087l0.4,0.219l0.145,-0.096l0.059,0.012l0.072,0.123l0.512,0.203l0.242,0.271l0.195,0.032l0.148,-0.148l0.15,-0.008l0.108,-0.113l0.109,0.153l-0.069,0.118l0.015,0.035l0.066,-0.01l0.042,0.034l0.003,0.077l0.088,0.101l0.074,-0.015l0.109,0.052l0.032,0.098l0.061,0.042l0.148,-0.002l0.202,0.103l0.087,0.225l-0.05,0.108l-0.101,0.027l-0.007,0.057l0.066,0.057l0.084,0.005l0.052,0.037l-0.02,0.049l0.064,0.039l0.082,-0.037l0.074,0.025l0.219,-0.015l0.062,0.035l0.019,0.106l0.084,0.022l0.062,-0.054h0.066l0.131,0.086l0.094,-0.02l0.022,-0.081l0.081,-0.022l0.045,0.044l0.061,-0.01l0.022,-0.113l0.052,-0.005l0.123,0.177l0.19,0.114l0.062,0.106l0.167,0.066l0.052,0.069l0.109,0.008l0.157,-0.079l0.121,0.024l0.099,-0.014l0.108,-0.158l0.099,-0.032l0.096,0.012l0.081,-0.054l0.025,-0.072l0.084,-0.04l0.117,0.006l0.269,-0.081l0.071,-0.052l0.112,0.018l0.151,-0.024l0.093,-0.158l-0.086,-0.235l0.04,-0.164l-0.074,-0.13l0.012,-0.105l-0.142,-0.192l-0.161,-0.083l-0.198,-0.168l-0.34,-0.562l-0.266,-0.737l-0.155,-0.655l-0.019,-0.6l0.087,-0.291l0.254,-0.254l0.123,0.019l0.099,-0.062l0.013,-0.161l0.26,-0.557l0.216,-0.025l0.074,-0.055l0.062,-0.136l0.167,-0.044l0.136,0.019l0.062,-0.105l-0.099,-0.118l-0.117,-0.872l-0.174,-0.384l-0.012,-0.167l-0.068,-0.099l-0.155,-0.062l-0.092,0.031l-0.038,0.174l0.075,0.191l-0.062,0.056l-0.198,-0.037l-0.223,-0.26l-0.025,-0.105l-0.099,-0.068l-0.006,-0.099l0.223,-0.155l0.068,-0.154l0.124,-0.149l0.099,-0.421l0.099,-0.235l0.099,-0.006l0.21,0.211l0.062,0.006l0.012,-0.334l-0.037,-0.526l0.087,-0.31l0.068,-0.389l0.136,-0.353l0.179,-0.229l-0.018,-0.099l-0.087,-0.025l-0.124,0.087l-0.062,0.278l-0.018,0.174l-0.062,0.031l-0.031,-0.087l0.05,-0.216l0.043,-0.075v-0.08l-0.093,-0.025l-0.155,0.124l-0.117,-0.037l-0.105,-0.211l0.031,-0.136l0.049,-0.105l-0.037,-0.421l-0.111,-0.08l-0.143,0.012l-0.068,-0.08l0.056,-0.278l0.186,-0.174l0.457,-0.111l0.155,-0.167l0.186,-0.068l0.148,-0.241l-0.043,-0.328l-0.087,-0.149l0.013,-0.105l-0.075,-0.068l-0.136,-0.012l-0.049,-0.068l0.086,-0.136l-0.055,-0.056l-0.087,-0.019l-0.043,-0.068l0.006,-0.099l-0.111,-0.123l-0.124,-0.031l-0.05,-0.068l0.025,-0.155l0.093,-0.056l0.105,0.019l0.13,0.124l0.043,0.321l0.068,0.019l0.167,-0.081l0.186,0.013l0.21,0.093l0.093,0.148l-0.018,0.198l-0.087,0.093l-0.062,0.383l0.062,0.248l-0.019,0.266l-0.105,0.21l-0.272,0.019l-0.068,-0.025l-0.049,0.037l-0.007,0.495l0.217,0.371l-0.006,0.112l-0.161,0.148l-0.006,0.093l0.092,0.068l0.229,-0.093l0.433,-0.037l0.118,0.037l0.093,-0.074l0.018,-0.421l-0.068,-0.198l-0.222,-0.297l-0.093,-0.455l0.018,-0.686l0.088,-0.747l0.14,-0.446l-0.005,-0.153l-0.088,-0.125l-0.33,-1.856l-0.027,-0.733l0.088,-0.715l0.004,-0.232l0.13,-0.412l0.098,-0.246l0.018,-0.404l0.084,-0.64l0.116,-0.562l0.139,-0.436l0.097,-0.158l-0.032,-0.125l0.093,-0.329l0.204,-0.432l0.311,-0.218l0.171,-0.213l0.13,-0.223l0.32,-0.413l0.154,-0.339l0.306,-0.594l0.046,-0.287l-0.037,-0.339l-0.083,-0.13l-0.009,-0.252l-0.316,-0.875l-0.139,-0.548l-0.084,-0.427l-0.018,-0.311l-0.098,-0.088l-0.199,-0.028l-0.056,0.079l0.079,0.093l0.069,0.037v0.107l-0.102,0.051l-0.195,-0.111l-0.143,-0.307l-0.038,-0.134l-0.069,-0.051l0.014,-0.116l0.158,-0.158l0.06,-0.172l0.176,-0.167l0.167,-0.018l0.102,0.051l0.023,0.107l-0.032,0.092l0.051,0.149l0.074,0.12l0.037,0.005l0.116,-0.162l0.079,-0.339l0.163,-0.209l0.25,-0.167l0.246,-0.204l0.186,-0.042l-0.019,-0.065l-0.283,0.075l-0.148,-0.065l-0.218,0.12l-0.149,-0.046l-0.144,0.018l-0.041,-0.055l0.051,-0.051l-0.047,-0.047l-0.139,0.056l-0.269,-0.07l-0.037,0.084l-0.079,-0.014l-0.023,-0.088l-0.218,-0.112l-0.065,0.038l-0.028,0.176l-0.251,0.102l-0.134,-0.005l-0.065,-0.134l-0.088,-0.056l-0.149,0.028l-0.153,0.204l0.014,0.139l-0.162,0.149l-0.014,0.12l-0.112,0.033l-0.088,-0.047l-0.028,0.033l0.014,0.083l-0.111,0.065l0.004,0.13l-0.06,0.019l-0.083,-0.079l-0.223,0.023l-0.07,0.098l-0.06,-0.01l-0.019,-0.083l-0.065,0.004l-0.102,0.158l0.093,0.056l0.023,0.162h-0.069l-0.037,-0.088h-0.107v0.107l-0.07,0.014l-0.041,-0.079l-0.056,0.009l-0.005,0.139l-0.181,-0.027l-0.311,0.12l-0.097,0.144l-0.264,0.06l-0.13,-0.065l-0.214,-0.014v0.056l0.098,0.084l-0.028,0.046l-0.149,-0.056l-0.139,0.061l-0.134,-0.01l-0.042,-0.065l-0.079,0.005l-0.102,0.102l-0.135,-0.051l0.051,-0.148l-0.097,-0.014l-0.116,0.125h-0.079l-0.051,-0.102l0.042,-0.056l-0.033,-0.083l-0.171,0.009l-0.051,0.088l0.157,0.311l-0.051,0.046l-0.102,-0.055l-0.116,0.023l-0.088,0.088l-0.269,0.023l-0.158,-0.125l-0.088,0.028l-0.028,-0.074l0.065,-0.079l-0.079,-0.065l-0.255,0.12l-0.023,0.13l0.102,0.325l-0.107,0.111l-0.144,-0.023l-0.037,-0.12l-0.083,-0.019l-0.098,0.056l-0.125,-0.028l-0.018,-0.088l0.046,-0.074l-0.097,-0.107l-0.079,0.046l-0.07,0.251l-0.297,0.283l-0.199,0.028l-0.093,0.092l-0.181,-0.023l-0.074,-0.102l-0.13,-0.018l-0.01,-0.112l-0.64,-0.069l-0.051,-0.089l-0.297,-0.055l-0.107,0.162l-0.083,-0.055l0.005,-0.154l-0.26,-0.204l-0.047,-0.315l-0.218,-0.191l-0.014,-0.111l-0.176,-0.12l-0.167,0.018l-0.116,0.088h-0.251l-0.199,0.274l-0.023,0.111l-0.107,0.037l-0.088,-0.027l-0.436,0.375l0.023,0.098l-0.033,0.088l-0.116,0.028l-0.051,0.12l0.153,0.061l0.019,0.116l-0.088,0.357l-0.334,0.153l-0.116,-0.069l-0.093,-0.149l-0.158,0.037l-0.028,0.116l0.061,0.302l-0.074,0.255l-0.205,0.084l-0.06,0.422l-0.195,0.19l0.023,0.074l0.144,0.074l0.112,0.293l0.157,0.06l-0.004,0.102l-0.167,0.251l-0.362,0.014l-0.311,-0.065l-0.385,0.083l-0.214,0.214l-0.032,0.259l-0.111,0.112l-0.079,0.274l-0.181,0.116l-0.144,0.004l-0.32,0.2l-0.107,0.171l-0.213,-0.009l-0.056,-0.074l-0.098,-0.005l-0.069,0.144l-0.255,0.209l-0.246,0.046l-0.033,0.126l-0.079,0.032l-0.111,-0.079l-0.144,0.023l-0.111,0.139l-0.13,0.033l-0.06,0.492l0.051,0.097l0.139,0.079l-0.019,0.162l-0.088,0.038l-0.051,-0.061l-0.116,-0.018l-0.107,0.051l-0.194,-0.088l-0.13,-0.209l0.027,-0.144l-0.092,-0.107l-0.177,-0.028l-0.13,0.144l-0.12,-0.051l-0.028,-0.13l-0.497,-0.236l-0.255,-0.158l-0.023,-0.111l0.186,-0.316l0.028,-0.134l-0.089,-0.052l-0.482,0.089l-0.422,0.222l-0.014,0.102l0.097,0.065l-0.028,0.089l-0.144,0.116l-0.106,-0.042l-0.051,0.051v0.185l-0.32,0.367l-0.344,0.292l-0.06,0.293l-0.172,0.25l-0.255,0.074l-0.478,-0.018l-0.079,-0.153h-0.046l-0.116,0.13l-0.255,-0.047l-0.107,-0.148l-0.213,-0.028l-0.154,0.111l-0.533,0.033l-0.39,-0.037l-0.264,0.125l-0.037,0.121l0.037,0.19l-0.135,0.399l0.084,0.088h0.102l0.051,0.083l-0.144,0.399l0.153,0.158l0.037,0.46l0.102,0.176l0.005,0.172l-0.121,0.19l0.051,0.195l0.125,0.023l0.07,0.097l0.009,0.423l-0.334,0.231l-0.273,-0.231l-0.228,-0.047l-0.223,0.047l-0.078,0.148l-0.214,0.088l-0.032,0.32l-0.112,0.214l-0.004,0.102l0.083,0.12l-0.065,0.195l0.005,0.121l0.074,0.005l0.014,0.051l-0.26,0.218l-0.037,0.157l-0.431,0.223l-0.014,0.116l-0.153,0.005l-0.143,-0.133l-1.608,0.086l-0.136,0.143l-0.303,0.117l-0.019,0.087l0.099,0.086l0.179,-0.018l0.056,0.025l-0.086,0.049l-0.359,0.043l-0.477,-0.185l-0.018,-0.279l-0.204,-0.278l-0.31,-0.179l-0.222,-0.044l-0.112,0.075l-0.136,0.241l-0.278,0.154l-0.18,0.248l-0.006,0.186l0.093,0.179l0.489,0.346l0.556,0.328l0.749,0.65l0.291,0.458l0.148,0.142l0.328,0.161l0.545,0.42l0.197,0.254v0.136l0.124,0.118l0.248,0.099l0.563,0.383l0.191,0.186l1.448,0.878l0.118,0.149l0.043,0.241l0.185,0.384l0.341,0.569l0.136,0.117l0.284,0.396l0.044,0.173l0.154,0.186l0.446,0.445l0.025,0.205l0.21,0.191l0.569,0.39l0.198,0.192l0.13,0.198l0.278,0.198l0.18,0.043l0.47,0.297l0.291,0.241v0.149l0.198,0.185l0.142,0.044l0.532,0.427l0.049,0.111l0.229,0.216l0.155,0.056l0.414,0.291l0.223,0.346l0.303,0.291l0.235,0.396v0.105l0.266,0.192l0.415,0.127z"/>
</svg>
