<svg xmlns="http://www.w3.org/2000/svg" viewBox="1645.767 543.993 53.505 28.920">
  <path d="M1652.093908,545.686311l0.037,0.098l0.084,0.06l0.078,0.107l0.093,0.046l0.014,0.06l-0.023,0.107l0.014,0.135l0.028,0.06l0.083,0.014l0.051,0.07l-0.004,0.078l-0.065,0.126l0.009,0.055l0.134,0.116l0.047,0.075l0.19,0.079l0.204,-0.01l0.065,-0.06l0.07,0.005l0.102,0.078l0.148,-0.009l0.07,-0.037v-0.051l-0.074,-0.037l-0.005,-0.037l0.204,-0.079l0.028,-0.098l0.065,-0.078l0.023,-0.163l-0.023,-0.153l-0.19,-0.199l0.018,-0.047l0.228,-0.032l0.111,0.004l0.079,0.037l0.074,-0.009l0.023,-0.079l0.084,-0.092l0.102,-0.038l0.074,-0.097l0.107,-0.074l0.023,-0.075l-0.028,-0.064l0.023,-0.168l0.084,-0.055l0.051,-0.112l-0.023,-0.041l-0.047,-0.014l-0.004,-0.056l0.097,-0.069v-0.061l-0.125,-0.051l-0.014,-0.046l0.023,-0.065l-0.023,-0.195l0.023,-0.046l0.088,0.004l0.056,-0.042v-0.055l-0.116,-0.061l-0.032,-0.055l0.014,-0.079l0.041,-0.051l0.102,-0.005l0.047,0.028l0.074,0.005l0.172,0.097l0.041,0.074l0.102,0.065l0.177,0.033l0.083,0.037l0.121,0.018l0.032,-0.032l-0.037,-0.051l0.01,-0.139l0.041,-0.051l0.014,-0.116l0.051,-0.005l0.218,0.088h0.065l0.065,-0.051l0.014,-0.06l-0.023,-0.07l0.023,-0.032h0.093l0.232,0.116l0.13,0.023l0.111,0.07l0.112,0.018l0.032,0.023l0.023,0.07l0.112,0.056l0.139,0.032l0.102,-0.009l0.148,0.014l0.102,0.069l0.13,0.01l0.065,-0.028h0.065l0.088,0.055l0.056,0.07l0.176,0.06l0.181,0.014l0.079,-0.041l0.061,0.037l0.009,0.06l0.144,0.107l0.097,0.014l0.065,-0.038l0.028,-0.097l0.051,-0.009l0.051,0.028l0.139,0.023l0.051,-0.019l0.033,-0.088l0.065,-0.046l0.083,0.014l0.019,0.032l0.037,0.023l0.065,-0.004l0.046,0.037v0.065l0.098,0.19v0.06l-0.061,0.033l-0.027,0.102l0.032,0.06l-0.005,0.07l-0.06,0.018l-0.046,0.098l0.009,0.074l0.065,0.042l0.093,0.009l0.051,0.037v0.079l0.069,0.088l0.084,0.042l0.088,-0.028l0.07,0.005l0.046,0.046l-0.032,0.102l-0.042,0.051l0.004,0.037h0.084l0.069,0.047v0.046l-0.125,0.084l-0.065,0.055l0.005,0.037l0.065,0.038l-0.005,0.097l-0.028,0.074l-0.055,0.005l-0.028,0.037l0.037,0.093l0.06,0.014l0.047,-0.023l0.092,0.004l0.13,0.028h0.084l0.06,-0.065l0.061,0.009l0.027,0.047l0.075,0.028l0.065,0.004l0.041,0.023l0.024,0.084l0.092,0.042l0.07,-0.005l0.056,-0.046l0.074,0.004l0.065,0.047l0.023,0.055l0.088,0.065l0.033,0.065l0.046,0.014l0.046,-0.023l0.01,-0.065l0.041,-0.019l0.084,0.019l0.13,0.111l0.028,0.07l0.06,0.056l0.056,0.004l0.093,0.065l0.083,-0.004l0.051,0.037l0.014,0.069l0.102,0.088l0.074,0.028l0.079,-0.032l0.061,-0.107l0.069,-0.009l0.121,0.051l0.065,0.06l0.023,0.116l0.037,0.061l0.111,0.064l0.089,0.135l0.046,0.037l0.237,0.113l0.006,0.05l-0.047,0.058l-0.088,0.033l-0.004,0.046l0.083,0.028h0.093l0.074,-0.032l0.116,-0.014l0.074,-0.07l0.093,-0.005l0.07,0.089l0.069,0.018l0.051,0.037l0.037,0.121l-0.037,0.088l-0.116,0.074l-0.074,-0.004l-0.037,0.032l-0.005,0.056l-0.041,0.079l0.009,0.06l0.06,0.009l0.084,-0.042l0.102,-0.023l0.134,0.01l0.075,0.055l0.009,0.07l0.037,0.06l0.014,0.098l0.204,0.052h0.13l0.028,0.033l-0.028,0.074l0.014,0.056l0.065,0.046l0.079,-0.005l0.097,0.042h0.074l0.107,-0.046l0.019,-0.056l0.037,-0.023l0.102,0.014l0.069,-0.033l0.103,0.01l0.088,0.074v0.046l-0.028,0.042l0.005,0.056l0.085,0.06l0.088,-0.017l0.051,-0.023l0.06,-0.005l0.037,0.023h0.047l0.051,-0.046l0.041,0.009l0.024,0.06l0.102,0.07l0.065,0.111l0.041,0.042l0.089,0.023l0.041,0.033l0.01,0.069l0.078,0.056l0.056,0.009l0.019,-0.051l0.12,-0.041l0.051,-0.056l0.042,-0.009l0.037,0.051h0.037l0.042,-0.033l0.074,0.009l0.047,0.065l0.004,0.121l0.075,0.028l0.074,-0.014l0.014,-0.065l0.042,-0.042l0.111,0.023l0.056,0.033l0.001,0.11l0.079,0.045l0.176,-0.013l0.056,0.019l0.031,0.034l0.053,0.012l0.046,0.028l-0.003,0.04l-0.025,0.028l-0.077,0.006l-0.062,-0.018l-0.019,0.021l0.016,0.034l-0.006,0.059l0.074,0.096l0.003,0.056l-0.012,0.046l0.021,0.053l0.05,0.04l0.046,0.009l0.028,-0.031h0.04l0.034,0.022l0.047,-0.003l0.043,-0.037h0.052l0.149,0.086l0.022,0.031l-0.007,0.081l-0.027,0.024l-0.007,0.075l0.09,0.083l0.068,0.013l0.019,0.017l-0.037,0.046l0.055,0.107l0.07,0.037h0.172l0.051,0.028v0.046l0.032,0.06l0.005,0.126l-0.047,0.046l-0.009,0.093l0.042,0.069l0.102,0.061l0.056,0.041l0.013,0.116l-0.027,0.103l0.009,0.078l0.144,0.186l0.051,0.009l0.041,-0.032h0.052l0.032,0.051l0.014,0.06l0.06,0.051l0.079,0.023l0.037,0.093l-0.014,0.093l0.01,0.07l0.12,0.102l0.074,0.023l0.098,-0.019l0.046,0.028l-0.004,0.047l0.051,0.088l0.088,0.037l0.102,-0.028l0.042,0.014l0.028,0.06l0.097,0.07h0.065l0.009,-0.056l0.088,-0.069l0.028,-0.061l-0.032,-0.097l0.018,-0.047l0.084,-0.018l0.116,-0.065l0.13,-0.172l0.032,-0.014l0.07,0.005l0.13,-0.014l0.074,0.014h0.065l0.023,-0.033l0.051,-0.004l0.051,0.014l0.098,-0.042l0.009,-0.065l-0.033,-0.088l0.01,-0.06l0.065,-0.051l0.051,-0.103l0.055,-0.004l0.135,0.037l0.06,-0.014l0.005,-0.056l0.037,-0.028l0.074,-0.004l0.093,-0.047l0.097,-0.009l0.033,-0.032l0.25,0.051l0.052,-0.014l0.055,-0.065l0.125,0.004l0.098,0.065l0.005,0.047l-0.019,0.037l0.009,0.06l0.186,0.075l0.051,-0.005l0.009,-0.042l0.079,-0.037l0.079,0.014l0.018,0.046l0.056,0.033l0.084,-0.005l0.023,-0.042l0.056,-0.009l0.078,0.033l0.126,0.125l-0.01,0.042l-0.041,0.023l-0.01,0.102l0.038,0.051h0.069l0.07,0.042l0.051,0.004l0.028,-0.037h0.065l0.055,0.019h0.056l0.056,-0.019l0.074,-0.004l0.028,0.037l-0.028,0.046l0.014,0.093l-0.07,0.074h-0.056l-0.065,0.051l-0.046,0.121l0.028,0.046l0.005,0.056l-0.014,0.056l0.046,0.157l0.046,0.07l0.089,0.028l0.051,0.055l-0.014,0.13l-0.079,0.158l0.018,0.204l0.061,0.023l0.055,-0.037l0.112,-0.004l0.106,0.06l0.052,0.102l-0.005,0.098l-0.065,0.162l0.018,0.083l-0.018,0.084l-0.065,0.111l-0.046,0.274l0.027,0.139l0.051,0.037l0.112,0.01l0.065,-0.033h0.055l0.121,0.13l0.167,0.046l0.056,0.047l0.069,0.005l0.042,-0.047h0.056l0.055,0.06l0.061,0.014l0.046,-0.027l0.181,0.037l0.042,0.046l0.005,0.06l-0.042,0.061l0.042,0.027h0.102l0.083,0.052l0.005,0.037l-0.033,0.037l0.019,0.069l0.074,0.07l0.005,0.065l-0.051,0.088l0.014,0.033l0.065,0.009l0.037,0.032l0.028,0.061l0.051,0.032l0.046,-0.005l0.065,0.033l0.023,0.051l0.051,0.005l0.088,-0.07h0.065l0.051,0.028l0.093,-0.005l0.065,-0.051h0.051l0.009,0.047l0.089,0.055l0.129,0.005l0.093,0.018l0.126,0.01l0.078,0.051l0.051,0.083l0.028,0.087l0.078,0.056l0.049,0.08l0.161,0.059l0.025,0.04l-0.031,0.068l0.012,0.074l-0.022,0.065l0.041,0.034h0.049l0.05,0.025l0.028,0.053l0.061,0.031l0.22,0.04l0.148,0.046l0.421,0.235l0.065,-0.003l0.053,-0.052l0.089,-0.01l0.062,-0.046l0.121,-0.006l0.046,-0.037l0.105,-0.004l0.072,0.022l0.021,0.062l0.034,0.019l0.198,-0.075l0.065,-0.043v-0.028l-0.037,-0.018l-0.006,-0.028l0.022,-0.062l0.065,-0.034l0.058,-0.09l0.056,-0.037l0.133,-0.139l0.009,-0.043l0.019,-0.022l0.055,0.003l0.027,-0.02l-0.005,-0.037l0.023,-0.033l0.093,0.014l0.056,0.047l0.065,-0.005l0.028,-0.037l0.088,-0.047h0.083l0.084,0.061l0.032,0.069l0.107,0.13l0.065,0.023l0.13,-0.004l0.037,0.032l-0.023,0.033l0.009,0.032l0.051,0.019l0.009,0.056l-0.046,0.097l-0.079,0.046l-0.018,0.065l0.032,0.075l0.065,0.055l0.005,0.051l-0.024,0.042l0.014,0.158l-0.023,0.032l-0.074,-0.009l-0.047,0.032l0.005,0.056l-0.069,0.084l-0.019,0.12l-0.074,0.061h-0.107l-0.07,0.032l-0.088,0.158l0.01,0.083l0.074,0.075l0.004,0.181l0.051,0.139l-0.018,0.153l-0.074,0.111l0.004,0.084l0.07,0.051l0.134,0.037l0.13,0.005l0.107,0.032l0.06,0.005l0.079,-0.084l0.065,-0.005l0.204,0.14l0.07,0.143l0.046,0.019l0.047,-0.009l0.051,0.009l0.028,0.046l0.125,0.01l0.292,-0.102l0.051,0.018v0.07l0.042,0.028l0.074,0.004l0.056,0.033h0.046l0.181,-0.163l0.047,-0.069v-0.07l0.041,-0.06l0.121,-0.037l0.153,0.004l0.093,0.042l0.084,0.005l0.06,-0.023l0.097,0.009l0.088,0.032l0.144,0.102l0.084,0.028l0.102,-0.009l0.116,0.023l0.023,0.042l-0.019,0.079l0.047,0.199l0.042,0.028l0.181,-0.116l0.041,-0.088l0.098,-0.084l0.014,-0.051l-0.037,-0.041l0.009,-0.065l0.051,-0.061v-0.097l0.037,-0.051l0.056,-0.005l0.028,-0.069l-0.005,-0.121l0.046,-0.046l0.056,-0.019l0.079,0.009l0.051,0.089l0.028,0.129l0.051,0.056l0.014,0.056l-0.028,0.046l0.004,0.042l0.052,0.019l-0.005,0.143l-0.023,0.037l0.004,0.061l0.075,0.12l0.027,0.191l0.033,0.079l0.125,0.111l0.033,0.074l0.139,0.074l0.083,-0.027l0.051,0.018l0.005,0.047l0.065,0.06l0.079,0.009l0.051,0.037l0.014,0.084l0.065,0.065l0.069,0.111l-0.004,0.121l0.051,0.055l0.088,0.024l0.056,0.083l0.009,0.116l-0.037,0.13l0.037,0.097l0.065,0.024l0.051,0.046l0.042,0.093l0.065,0.06l0.102,0.06l0.055,0.079l0.037,0.024h0.052l0.032,0.027v0.075l-0.079,0.083l-0.102,0.167l-0.009,0.084l0.301,0.181l0.065,0.009l0.037,-0.009l0.047,0.009l0.055,0.042l0.149,0.023l0.074,0.028l0.056,-0.014l-0.019,-0.037l0.019,-0.033l0.065,-0.004l0.125,-0.079l0.111,-0.019l0.065,-0.028v-0.069l-0.051,-0.033l-0.055,-0.088v-0.07l-0.047,-0.153l-0.116,-0.204l-0.004,-0.056l0.051,-0.046v-0.037l-0.019,-0.06l0.005,-0.042l0.028,-0.056l0.004,-0.069l-0.06,-0.153l0.023,-0.052h0.06l0.112,0.024l0.06,-0.01l0.06,-0.069l0.01,-0.061l0.046,-0.078l0.111,-0.093l0.107,-0.037l0.028,-0.047l-0.023,-0.069l0.014,-0.07l0.037,-0.032l0.051,0.009l0.042,0.116l0.009,0.097l0.065,0.07l0.083,0.13l0.014,0.097l-0.037,0.042l-0.055,0.009l-0.033,0.088l0.079,0.242l0.056,0.083l0.004,0.065l-0.028,0.079l0.005,0.121l0.056,0.144l0.074,0.018l0.139,-0.028l0.149,0.005l0.083,0.056l0.042,0.078l0.06,0.065l0.065,-0.013l0.042,-0.07h0.051l0.005,0.093l0.041,0.065l0.047,0.009l0.046,-0.019l0.144,0.028l0.13,0.112l0.046,0.078l0.056,0.014l0.084,-0.004l0.051,0.028l0.041,-0.005l0.024,-0.037l0.055,-0.019l0.079,-0.102l0.005,-0.107l0.041,-0.051l0.126,-0.046h0.116l0.046,-0.023l-0.023,-0.037l0.005,-0.037l0.037,-0.024v-0.041l-0.037,-0.042l0.037,-0.223l0.051,-0.069l0.042,-0.126l0.037,-0.041l0.055,-0.019l0.107,-0.102v-0.033l-0.032,-0.027l-0.005,-0.042l0.042,-0.047l0.004,-0.046l-0.028,-0.056v-0.055l0.107,-0.024l0.149,0.079l0.041,0.061l-0.027,0.046l0.032,0.06l0.121,0.033l0.097,-0.005l0.074,-0.037l0.056,-0.102l0.121,-0.079l0.097,-0.018l0.241,0.027l0.093,0.065l0.056,0.089l0.06,0.037l0.005,0.046l-0.074,0.056l-0.042,0.111l0.088,0.079h0.056l0.065,0.019l0.009,0.055l0.069,0.051l0.098,-0.023l0.213,0.028l0.102,-0.06l0.121,0.027l0.042,0.107l0.093,0.074l0.171,0.051l0.107,0.089l0.014,0.088l0.042,0.041l0.273,0.038l0.061,-0.024l0.115,-0.01l0.032,-0.025l0.027,0.001l0.036,0.043l0.087,0.006l0.033,0.016l0.062,0.141l0.045,0.025l0.059,0.011l0.068,0.055l0.007,0.093l0.057,0.077l0.027,0.068l0.08,0.032l0.033,0.038v0.134l0.044,0.087l0.075,0.05l0.036,0.004l0.034,-0.016l0.041,-0.002l0.084,0.082l0.17,0.032l0.077,-0.001l0.045,-0.011l0.119,-0.005l0.036,0.021l0.025,-0.002l0.045,-0.098l0.053,-0.059l0.102,-0.064h0.074l0.178,0.039l0.056,0.034l0.014,0.048l0.079,0.056l0.062,0.001l0.093,-0.03l0.107,-0.004l0.065,-0.046l0.073,-0.064l0.131,-0.015l0.06,-0.041l0.063,-0.003l0.077,0.023l0.034,0.037l-0.015,0.052l-0.098,0.007l-0.057,0.031l-0.005,0.021l0.166,0.02l0.073,0.032l0.045,0.011l0.057,-0.009l0.193,-0.149h0.082l0.032,-0.017h0.07l0.093,0.025l0.05,-0.002l0.068,-0.066l0.02,-0.052l0.034,-0.045l0.061,0.002l0.03,0.023l0.061,0.009l0.052,0.047l0.032,0.13l-0.006,0.088l0.018,0.03l0.068,0.002l0.047,0.055l0.028,-0.002l0.032,-0.055l0.092,-0.048l0.003,-0.032l0.034,-0.025l0.123,-0.015h0.058l0.016,0.032l-0.04,0.063v0.072l0.022,0.041l0.048,0.005l0.129,-0.034h0.08l0.104,0.045h0.046l0.052,-0.045l0.006,-0.021l-0.018,-0.022l0.001,-0.023l0.065,-0.088l0.048,-0.012l0.025,-0.023l0.057,-0.129l0.033,-0.038l0.062,-0.026l0.009,-0.033l-0.02,-0.034l0.002,-0.046l0.036,-0.095l0.041,-0.057l0.093,-0.045l0.07,-0.08l0.06,-0.011l0.02,-0.025l-0.002,-0.088l0.049,-0.105l0.026,-0.004l0.05,0.034l0.038,0.002l0.039,-0.007l0.027,0.011l0.004,0.077l-0.034,0.037l0.003,0.029l0.034,0.021l0.032,0.079l0.034,0.009l0.034,-0.025h0.038l0.05,0.025h0.045l0.073,-0.038h0.179l0.044,0.049l0.081,-0.002l0.039,0.019l0.052,0.097l0.088,0.043l0.064,-0.002l0.079,-0.064h0.094l0.054,-0.016l0.027,-0.043h0.041l0.139,0.066l0.041,0.062l0.033,0.006l0.062,-0.056h0.061l0.032,0.041l0.009,0.102l0.038,0.043h0.101l0.092,-0.089l0.072,-0.009l0.015,0.021l0.034,0.004l0.079,0.057l0.054,0.02l0.075,0.07l0.07,0.021l0.046,-0.003l0.037,0.024l0.024,0.059l-0.01,0.049l-0.081,0.083l-0.078,0.021l-0.002,0.03l0.067,0.072l0.013,0.07l0.046,0.035l-0.006,0.045l-0.069,0.089l-0.011,0.078l-0.021,0.05l-0.006,0.076l-0.051,0.034l-0.067,0.006l-0.037,0.061v0.118l-0.035,0.062v0.054l0.029,0.045l-0.002,0.046l-0.035,0.075l-0.016,0.086l-0.142,0.11l-0.033,0.069l-0.034,0.215l-0.059,0.056l-0.105,0.054l-0.08,0.129l-0.003,0.05l0.021,0.03l-0.002,0.035l-0.062,0.051l-0.021,0.064l-0.035,0.038l0.002,0.035l0.03,0.034l-0.008,0.027l-0.046,0.022l-0.002,0.035l0.021,0.026l-0.008,0.035l-0.105,0.094l0.016,0.145l0.121,0.11l0.056,0.142l0.003,0.078l-0.126,0.099l-0.046,0.099l-0.034,0.15l0.002,0.083l0.057,0.067l0.048,0.027l0.051,0.086l-0.008,0.064l-0.091,0.081l-0.051,0.104v0.078l-0.073,0.099l-0.016,0.252l-0.037,0.078l-0.043,0.035l-0.022,0.118l-0.018,0.061l-0.003,0.041l0.016,0.046l-0.002,0.063l-0.014,0.032l-0.006,0.034l0.034,0.027l-0.003,0.028l-0.048,0.054l-0.02,0.122l-0.089,0.08l-0.029,0.097v0.067l0.039,0.036l0.061,0.018l0.093,0.118l-0.004,0.097l0.101,0.214l0.06,0.047l0.118,0.025l0.083,-0.008l0.064,0.025l0.082,0.165l0.082,0.057l0.058,0.068l0.096,0.025l0.014,0.039l-0.057,0.111l0.022,0.143l0.118,0.125l0.003,0.072l-0.043,0.096l0.011,0.061l0.097,0.064l0.128,0.154v0.075l-0.028,0.047l-0.004,0.068l0.039,0.05l0.036,0.132l0.004,0.182l0.053,0.154l-0.003,0.114l-0.09,0.39l-0.068,0.122l-0.007,0.093l-0.003,0.168l-0.065,0.11l-0.103,0.072l-0.086,0.125l-0.014,0.115l-0.043,0.085l-0.061,0.032l-0.039,0.312l-0.05,0.046l-0.025,0.082l0.042,0.125l0.054,0.068l-0.007,0.075l-0.064,0.111l-0.018,0.129l-0.047,0.061l-0.089,0.021l-0.243,0.2l-0.036,0.136l-0.032,0.039l-0.122,0.011l-0.075,-0.046l-0.014,-0.133l-0.068,-0.046l-0.111,-0.014l-0.239,-0.165l-0.065,-0.082l0.032,-0.064l-0.017,-0.047h-0.115l-0.014,-0.028l0.039,-0.036l0.007,-0.05l-0.05,-0.111l-0.075,-0.072l-0.028,0.008l-0.015,0.068l-0.139,0.078l-0.022,0.047l0.015,0.053l-0.015,0.043l-0.064,0.057l-0.122,0.008l-0.021,-0.04l-0.004,-0.061l-0.078,-0.071l-0.157,-0.05l-0.033,0.028l-0.003,0.051l-0.047,0.039l-0.01,0.15l-0.079,0.139l-0.064,0.018l-0.04,-0.039h-0.064l-0.039,0.032l-0.054,-0.011l-0.05,-0.071l-0.168,-0.093h-0.068l-0.029,0.046v0.058l-0.039,0.046l-0.118,0.05l-0.046,0.097l-0.226,0.028l-0.064,0.054h-0.072l-0.06,-0.072l-0.183,-0.096l-0.075,-0.097l-0.25,-0.1l-0.211,-0.043l-0.1,0.004l-0.15,0.054l-0.082,0.06l-0.222,0.025l-0.089,0.075l-0.065,0.015l-0.089,0.175l-0.007,0.086l0.032,0.043l-0.014,0.039l-0.079,0.057l-0.061,-0.007l-0.096,-0.075l-0.018,-0.057l-0.04,-0.011l-0.046,0.029l-0.05,-0.004l-0.047,-0.043l-0.125,-0.011l-0.035,-0.043l-0.004,-0.153l-0.082,-0.075l-0.154,-0.004l-0.05,0.057l-0.046,-0.003l-0.033,-0.047l-0.118,-0.003l-0.06,0.05h-0.147l-0.186,-0.086l-0.236,-0.193l-0.057,-0.132l-0.043,-0.408l-0.05,-0.125l-0.018,-0.3l-0.036,-0.033l-0.118,-0.003l-0.042,0.046l-0.033,0.111l-0.151,0.186l-0.111,0.051l-0.07,-0.004l-0.036,0.006l-0.029,0.036h-0.046l-0.065,-0.01l-0.112,0.014l-0.055,0.047l-0.027,0.108l-0.037,0.052l-0.124,0.022l-0.055,0.05l-0.087,0.108l-0.006,0.068l-0.049,0.025l-0.069,-0.01l-0.064,0.022l-0.106,0.102h-0.055l-0.062,-0.043l-0.337,-0.121l-0.037,0.019l-0.118,0.123v0.053l-0.034,0.037l-0.071,0.013l-0.043,-0.025l-0.028,-0.044l-0.047,-0.018h-0.065l-0.04,-0.025l-0.025,-0.062l-0.083,-0.043l-0.266,-0.059l-0.077,-0.055l-0.022,-0.056l-0.099,-0.062l-0.294,-0.093l-0.071,-0.105l-0.006,-0.062l-0.078,-0.099l-0.123,-0.037l-0.072,0.031l-0.108,-0.028l-0.26,-0.173l-0.383,-0.118l-0.022,-0.058l-0.34,-0.096l-0.016,-0.056l-0.083,-0.037l-0.127,0.003l-0.065,0.043h-0.059l-0.077,-0.024l-0.148,0.003l-0.149,0.17l-0.065,0.021l-0.043,-0.006l-0.059,-0.034l-0.049,-0.006l-0.034,-0.087l-0.075,-0.052l-0.086,-0.003l-0.167,0.08l-0.041,-0.006v-0.028l0.025,-0.046l-0.012,-0.065l-0.05,-0.031l-0.086,-0.006l-0.155,-0.065l-0.127,-0.071l-0.055,-0.053l-0.217,-0.062l-0.068,0.003l-0.071,0.034l-0.034,0.034l-0.217,-0.003l-0.111,0.047l-0.019,0.049l-0.006,0.099l-0.046,0.043l0.006,0.047l-0.037,0.018l-0.053,-0.012l-0.148,0.059l-0.142,0.099l-0.007,0.049l-0.031,0.016l-0.052,0.006l-0.084,0.071l-0.062,0.019l-0.034,-0.013l0.004,-0.049l0.04,-0.053l0.006,-0.052l-0.028,-0.081l-0.052,-0.034h-0.087l-0.006,0.059l-0.068,-0.003l-0.093,-0.084l-0.037,-0.071l-0.186,-0.049l-0.164,-0.059l-0.089,-0.081l-0.007,-0.046l0.025,-0.031l-0.009,-0.025l-0.04,-0.006l-0.028,-0.052l0.003,-0.236l0.031,-0.188l0.025,-0.016l-0.022,-0.068l0.003,-0.08l0.037,-0.146l-0.006,-0.126l-0.084,-0.17l-0.185,-0.124l-0.331,-0.105l-0.056,-0.136l-0.059,-0.013l-0.123,0.118l-0.242,0.105l-0.068,-0.009l-0.024,0.015v0.034l-0.031,0.012l-0.044,-0.015l-0.052,0.019l-0.096,0.117l-0.05,0.019l-0.061,-0.003l-0.056,0.03l-0.003,0.069l-0.028,0.018l-0.053,-0.015l-0.034,0.012l-0.034,0.056l-0.108,0.058l-0.059,-0.006l-0.093,-0.037l-0.092,-0.003l-0.115,0.034l-0.055,0.056l-0.072,0.031l-0.037,0.058l-0.018,0.031l-0.037,0.003l-0.028,-0.015l-0.044,0.003l-0.133,0.118l-0.058,0.009l-0.152,-0.062l-0.3,-0.022l-0.133,-0.04l-0.074,-0.003l-0.062,0.016l-0.062,-0.007l-0.099,-0.08l-0.018,-0.074l0.018,-0.031l-0.009,-0.034l-0.071,-0.04l-0.031,-0.075l0.003,-0.052l0.071,-0.124l0.015,-0.105l0.004,-0.124l-0.044,-0.028l-0.269,-0.015l-0.04,0.012h-0.046l-0.065,-0.015l-0.186,0.006l-0.043,0.034l0.006,0.056l-0.028,0.021h-0.053l-0.034,0.028l-0.043,-0.003l-0.003,-0.031h-0.04l-0.013,0.028l-0.08,0.003l-0.096,-0.022l-0.006,-0.043l0.018,-0.087l0.075,-0.046l0.083,-0.009l0.028,-0.019v-0.031l-0.071,-0.021l-0.269,-0.022l-0.081,-0.053l0.01,-0.031l0.031,-0.003l0.015,-0.031l-0.04,-0.021l-0.149,-0.016l-0.024,-0.034l0.006,-0.068l0.043,-0.021l0.006,-0.059l-0.083,-0.108l-0.115,-0.047l-0.352,-0.056l-0.05,-0.046l-0.188,-0.077l-0.041,-0.062l0.003,-0.059l-0.012,-0.028l-0.133,-0.071l-0.077,-0.006l-0.059,0.025l-0.031,0.08l-0.065,0.037l-0.049,-0.012l-0.019,-0.056l-0.056,-0.04l-0.052,0.003l-0.053,0.062l-0.062,0.006l-0.105,-0.052l-0.059,0.003l-0.052,-0.019l-0.078,-0.062l-0.133,-0.062l-0.25,-0.083l-0.031,-0.05l0.019,-0.136l0.061,-0.059l0.115,-0.123l0.003,-0.068l-0.022,-0.028l0.006,-0.04l0.041,-0.028l0.04,-0.152l0.003,-0.108l-0.037,-0.034l-0.006,-0.08l0.055,-0.044l-0.003,-0.037l-0.024,-0.037v-0.087l0.04,-0.043l-0.003,-0.155l-0.266,-0.513l-0.171,-0.251l-0.046,-0.003l-0.015,0.022l-0.053,-0.003l-0.232,-0.081l-0.513,-0.08l-0.053,-0.022h-0.034l-0.019,0.022h-0.058l-0.127,-0.04l-0.025,-0.034l-0.053,-0.019l-0.136,0.003l-0.089,0.025l-0.056,-0.006l-0.062,-0.037l-0.068,-0.01l-0.087,0.013l-0.154,-0.025l-0.183,-0.087l-0.046,-0.003l-0.028,0.022h-0.034l-0.031,-0.049l-0.049,-0.013l-0.016,-0.034l0.028,-0.09l-0.037,-0.108l-0.084,-0.056l-0.012,-0.043l0.009,-0.04l-0.028,-0.034l-0.114,-0.006l-0.025,-0.022h-0.034l-0.043,0.047l-0.012,0.052l-0.038,0.009l-0.046,-0.027l-0.006,-0.056l-0.022,-0.028l0.003,-0.034l0.022,-0.015l0.003,-0.038l-0.04,-0.024h-0.047l-0.04,0.018l-0.023,-0.01l-0.01,-0.024l-0.027,-0.013l-0.032,0.005l-0.04,-0.017l-0.024,-0.037l-0.042,-0.02h-0.045l-0.037,-0.029l-0.007,-0.037l0.022,-0.02l0.008,-0.03l-0.018,-0.029l0.02,-0.052l-0.022,-0.022l-0.121,0.042l-0.052,-0.008l-0.022,-0.044l-0.047,-0.015l-0.059,0.01l-0.015,0.037l0.023,0.049l-0.028,0.106l-0.066,0.05l-0.094,0.024l-0.027,0.04l-0.01,0.054l-0.044,0.032l-0.012,0.032l0.004,0.03l-0.039,0.061l-0.067,0.022l-0.081,0.003l-0.029,0.025l-0.003,0.027l-0.049,0.007l-0.079,-0.052l-0.076,-0.022l-0.074,0.022l-0.074,-0.014l0.007,-0.05l-0.034,-0.012l-0.03,0.015l-0.01,0.032l-0.064,-0.003l-0.037,-0.029l-0.096,-0.008l-0.081,0.059l-0.131,0.015l-0.141,0.01l-0.064,0.049l-0.039,0.057l0.01,0.074l0.037,0.096l-0.01,0.18l-0.053,0.147l-0.05,-0.002l-0.136,-0.114l-1.42,-0.691l-1.484,-0.074l-0.011,0.035l0.031,0.034l0.049,0.013l0.019,0.052l-0.016,0.068l-0.068,0.053l-0.009,0.074l0.043,0.05l0.056,0.006l0.025,0.059l-0.01,0.061l-0.055,0.078l-0.065,0.031l-0.016,0.052l0.034,0.059l-0.021,0.025l-0.059,-0.003l-0.031,0.031l0.012,0.034l-0.021,0.037l-0.05,0.006l-0.043,0.043l-0.006,0.053l-0.074,0.065l-0.065,0.006l-0.078,-0.022l-0.04,0.007l-0.025,0.034l-0.102,-0.004l-0.089,-0.052l-0.084,-0.09l-0.031,-0.08l0.019,-0.09l-0.013,-0.071l-0.157,-0.127l-0.133,-0.059l-0.09,-0.092l-0.149,-0.198l-0.099,-0.025l-0.903,0.059l-0.526,-0.136l-0.17,-0.226l-0.485,0.015l-0.146,-0.028l-0.247,0.05l-0.136,-0.04h-0.229l-0.025,-0.028l0.015,-0.087l0.062,-0.037l-0.006,-0.056l-0.037,-0.031l-0.019,-0.117l0.044,-0.034v-0.047l0.024,-0.046l0.004,-0.049l0.052,-0.075l-0.018,-0.055l-0.056,-0.003l-0.016,-0.025l0.028,-0.022l-0.015,-0.021l-0.047,-0.016l-0.021,-0.096l0.025,-0.13l-0.053,-0.099l-0.09,-0.08l-0.015,-0.087l0.021,-0.031v-0.062l-0.065,-0.049l-0.024,-0.068l0.015,-0.081l-0.028,-0.034h-0.049l-0.074,0.044l-0.093,-0.006l-0.022,-0.038l-0.037,0.004l-0.037,0.049l-0.093,0.022l-0.062,-0.01l-0.031,0.007l-0.028,0.043l-0.037,0.009l-0.061,-0.009l-0.041,0.003l-0.015,0.049l-0.047,0.007l-0.071,-0.007l-0.195,0.078l-0.102,0.003l-0.077,-0.022l-0.074,0.003l-0.161,0.047l-0.043,0.003l-0.037,0.028h-0.069l-0.182,-0.053l-0.229,-0.117l-0.145,-0.143l-0.084,-0.145l-0.399,-0.214l-0.292,-0.236l-0.195,-0.116l-0.139,-0.153l-0.353,-0.158l-0.037,0.046l-0.181,-0.051l-0.056,-0.088l-0.157,-0.125l-0.135,-0.195l-0.668,-0.042l-0.283,0.385l0.005,0.107l-0.135,0.028l-0.093,-0.005l-0.046,-0.018l-0.042,-0.056l-0.26,-0.204l-0.097,-0.047l-0.125,-0.013l-0.696,-0.599l-0.344,-0.037l-0.125,-0.056l-0.065,-0.069l-0.371,-0.223l-0.538,-0.297l0.037,-0.251l-0.181,-0.097l-0.042,-0.051l0.014,-0.084l-0.033,-0.055l-0.194,-0.102l-0.251,-0.028l-0.046,0.037l-0.024,0.056l0.033,0.055l0.005,0.056l-0.052,0.056l-0.171,0.009l-0.116,0.037l-0.037,-0.018l0.018,-0.052l0.047,-0.023l-0.028,-0.065l-0.074,-0.009l-0.056,-0.032v-0.038l0.111,-0.013l0.019,-0.052l-0.028,-0.064l0.009,-0.065l-0.041,-0.084l-0.112,-0.125l-0.107,-0.07l-0.315,-0.39l0.014,-0.264l-0.167,-0.241l-0.849,-0.172l-0.211,-0.189l-0.068,-0.012l-0.021,0.025l0.015,0.062l-0.04,0.003l-0.071,-0.078l0.006,-0.052l0.074,-0.065l0.003,-0.065l-0.046,-0.003l-0.016,0.031l-0.049,-0.013l-0.006,-0.055l0.037,-0.044l-0.034,-0.031l-0.108,0.007l-0.121,0.095l-0.068,0.004l-0.012,-0.044l0.068,-0.055l-0.01,-0.038l-0.062,0.01l-0.055,0.052l-0.05,-0.003l-0.04,-0.059l-0.201,-0.021l-0.065,-0.056l-0.015,-0.111l0.037,-0.068l-0.013,-0.047l-0.074,-0.052l-0.136,-0.022l-0.065,0.031l-0.015,0.031l0.015,0.053l-0.015,0.018l-0.115,-0.049l-0.096,-0.099l-0.102,-0.056l-0.151,-0.022l-0.038,-0.043l0.019,-0.074l-0.025,-0.044l-0.065,-0.018l-0.037,-0.037l-0.003,-0.065l-0.049,-0.043l-0.115,-0.041l-0.034,0.016l0.009,0.037l-0.03,0.003l-0.044,-0.05h-0.059l-0.006,0.031h-0.037l-0.13,-0.102l-0.006,-0.058l0.022,-0.041l-0.019,-0.043h-0.071l-0.025,-0.037l0.003,-0.065l-0.046,-0.099l-0.006,-0.056l-0.04,-0.012l-0.053,0.04l-0.043,-0.006l-0.041,-0.04l-0.04,0.003l-0.046,0.025l-0.081,-0.007l-0.052,-0.034l-0.019,-0.049l-0.031,-0.009l-0.058,0.027l-0.031,-0.009l0.027,-0.037l-0.006,-0.031l-0.062,-0.012l-0.003,-0.034l0.044,-0.078l-0.016,-0.037l-0.219,-0.065l-0.096,0.003l-0.195,0.124l-0.025,0.068l0.102,0.594l0.019,0.031l0.034,0.009l0.003,0.028l-0.04,0.13h-0.028l-0.071,-0.111l-0.062,-0.019l-0.022,-0.037l-0.077,-0.074h-0.047l-0.043,0.031l-0.009,-0.022l0.025,-0.034l-0.004,-0.04l-0.074,-0.121l0.009,-0.046l-0.055,-0.062h-0.056l-0.025,-0.016l-0.037,-0.046l-0.102,-0.022l-0.074,0.013l-0.192,0.062h-0.037l-0.04,-0.044l-0.047,-0.006l-0.027,-0.04l0.012,-0.028l-0.016,-0.031l-0.207,-0.145l-0.018,-0.09l-0.01,-0.093l-0.034,-0.046l-0.114,-0.062l-0.056,-0.006l-0.034,0.015l-0.046,-0.006l-0.118,-0.114v-0.047l0.034,-0.018l0.003,-0.056l-0.031,-0.065l-0.099,-0.043l-0.089,-0.006l-0.059,0.021l-0.062,-0.012l-0.275,-0.186l-0.34,-0.324l-0.288,0.024l-0.062,-0.08l-0.043,-0.579l0.269,-0.495l0.111,0.022l0.031,-0.148l0.062,-0.007v-0.034l-0.062,-0.015l0.025,-0.111l-0.034,-0.031l0.077,-0.183l-0.046,-0.04l0.083,-0.269l0.14,-0.105l0.034,-0.065l0.04,-0.028l0.034,0.003l0.037,-0.019l0.012,-0.04h0.037l0.099,0.05l0.059,0.049l0.115,0.031l0.043,-0.009l0.04,-0.053l0.053,-0.015l0.021,-0.062l0.05,-0.022l0.052,0.007l0.016,-0.025l-0.074,-0.127l-0.022,-0.183l-0.056,-0.089l-0.046,-0.019l-0.012,-0.049l0.052,-0.096l0.037,0.006l0.031,0.074l0.047,0.019l0.052,-0.003l0.04,0.024l0.019,0.041l0.04,0.006l0.056,-0.043l-0.025,-0.14l-0.031,-0.049l0.006,-0.05l0.037,-0.037l0.016,-0.074l-0.037,-0.139l0.028,-0.13l0.049,-0.047l0.04,-0.086l-0.009,-0.074l-0.065,-0.062h-0.056l-0.034,-0.034l-0.018,-0.059l-0.074,-0.09l0.012,-0.052l-0.022,-0.031l-0.04,-0.022v-0.049l0.04,-0.031l0.007,-0.041l-0.035,-0.04l-0.009,-0.059l-0.176,-0.111l-0.009,-0.046l0.021,-0.105l0.003,-0.047l-0.021,-0.028l0.012,-0.034l0.081,-0.037l0.089,0.016l0.006,-0.022l-0.025,-0.018l0.005,-0.025l0.037,-0.007l0.03,0.012l0.007,0.037l0.037,0.005l0.071,-0.005l0.005,-0.038l-0.097,-0.112l0.007,-0.025l0.035,-0.005l0.024,-0.056l0.037,-0.013l0.045,0.022l0.024,-0.014l-0.002,-0.067l0.032,-0.037l0.049,-0.01l0.022,-0.022v-0.027l0.025,-0.012l0.04,0.014l0.034,-0.007l0.032,-0.057l0.007,-0.047l0.03,-0.019l0.003,-0.047l-0.04,-0.047l-0.034,0.01l-0.023,-0.015l0.02,-0.042l-0.01,-0.027l0.027,-0.022l0.094,-0.003l0.02,-0.022l0.002,-0.034l0.025,-0.013l0.047,0.018l0.022,-0.015l0.002,-0.039l0.02,-0.02l0.04,0.005l0.019,-0.02l0.008,-0.054l0.074,-0.036l0.02,-0.052l0.002,-0.056l-0.022,-0.045l0.005,-0.054l0.032,-0.047l0.052,-0.022l0.015,-0.032l-0.005,-0.047l-0.04,-0.032v-0.024l0.015,-0.018l-0.044,-0.059l-0.035,-0.02l-0.037,0.003l-0.054,-0.032l-0.039,-0.081l-0.033,-0.151l-0.039,-0.091l0.01,-0.027l-0.013,-0.025l-0.034,-0.009l-0.01,-0.033l0.017,-0.027l-0.002,-0.032l-0.032,-0.022l0.02,-0.052h0.102l0.083,-0.056l0.07,-0.148l-0.005,-0.061l0.07,-0.046l0.079,0.005l0.037,-0.047h0.051l0.032,0.024l0.172,0.009l0.102,0.028l0.051,-0.019l0.037,-0.102l0.07,-0.07l0.102,-0.032l0.162,-0.162l0.056,-0.14l0.056,-0.051l0.018,-0.106l-0.004,-0.121l0.041,-0.116l0.112,-0.158l0.125,-0.065l0.125,-0.014l0.112,0.051l0.171,-0.004l0.088,-0.112l0.144,-0.102l0.028,-0.051l0.047,-0.032l0.102,0.009l0.088,-0.065l0.051,-0.116l0.004,-0.134l0.061,-0.051l0.079,-0.033l0.157,-0.204l0.112,-0.07l0.083,0.005l0.056,-0.014l0.023,-0.051l-0.023,-0.037l0.051,-0.047l0.153,-0.046l0.023,-0.051l-0.046,-0.199l-0.051,-0.052l0.032,-0.046l0.098,-0.032l0.032,-0.047v-0.088l0.098,-0.135l0.088,-0.027l0.093,0.023v0.06l-0.033,0.074l0.023,0.089l0.051,0.06l0.07,0.009l0.088,-0.051l0.13,-0.037l0.093,0.023l0.083,-0.009l0.079,-0.056l0.121,-0.014z"/>
</svg>
