<svg xmlns="http://www.w3.org/2000/svg" viewBox="2371.561 877.638 1.148 1.400">
  <path d="M2371.560921,878.499374l0.009635,-0.043534l0.168607,-0.101579l0.03613,-0.087068l-0.004817,-0.060464l-0.043356,-0.142695l0.024087,-0.060464l0.101164,-0.099161l0.062625,-0.123346l0.118025,-0.106416l0.110799,-0.012093l0.074365,-0.025018l0.062442,0.004025l0.082382,0.023411l0.057808,0.002419l0.074669,0.038697l0.038539,0.077394l-0.007226,0.087068l0.019269,0.079812l0.045765,0.077394v0.041115l-0.019269,0.026604l0.009635,0.048371l0.069852,0.133021l0.055399,0.077394l-0.002409,0.070138l-0.149338,0.227344l-0.050582,0.031441l-0.065034,0.079812l-0.089121,0.074975l-0.043356,0.060464l-0.026495,0.065301l-0.038539,0.019348h-0.060217l-0.081895,0.031441l-0.052991,0.026604l-0.055399,-0.014511l-0.069852,-0.079812l-0.07226,-0.031441l-0.075632,0.00833l-0.028184,-0.021138l0.000244,-0.025889l0.057808,-0.045953l0.007226,-0.058045l-0.031313,-0.070138l-0.086712,-0.074975l-0.098756,-0.079812l-0.033721,-0.048371Z "/>
</svg>
