<svg xmlns="http://www.w3.org/2000/svg" viewBox="2296.798 1108.457 0.707 0.712">
  <path d="M2296.800078,1108.807976l-0.002465,-0.024649l0.017254,-0.007395l0.019719,0.017254v0.027114l-0.019719,0.00493l-0.014789,-0.017254Z M2296.920858,1108.81537l0.014789,-0.017254l-0.00986,-0.019719h-0.019719v0.027114l0.014789,0.00986Z M2297.426161,1108.933685l0.007395,-0.019719l-0.017254,-0.012324l-0.017254,0.007395l0.002465,0.024649h0.024649Z M2297.428626,1108.529443l-0.012324,0.024649l0.039438,0.014789l0.044368,-0.017254l0.00493,-0.049298l-0.024649,-0.039438l-0.054228,-0.007395l-0.00493,0.017254l0.034509,0.012324l-0.002465,0.024649l-0.024649,0.019719Z M2296.898674,1108.913966l0.029579,0.00493l0.027114,0.051763l-0.019719,0.041903v0.056693l0.024649,0.027114l0.054228,0.012324l0.046833,0.032044l0.049298,0.019719l0.059157,-0.012324l0.051763,0.019719l0.046833,-0.019719v-0.032044l-0.027114,-0.049298l0.00986,-0.036973l0.039438,-0.014789l0.046833,-0.036973l0.051763,-0.093666l0.002465,-0.061622l0.024649,-0.044368l-0.00986,-0.044368l-0.061622,-0.027114l0.002465,-0.034509l-0.014789,-0.036973l-0.017254,0.002465l-0.012324,0.022184l-0.036973,0.034509h-0.036973l-0.039438,0.017254l-0.014789,0.051763l-0.051763,0.024649l-0.049298,-0.00986l-0.064087,0.027114l-0.00986,0.032044l-0.027114,0.014789l-0.019719,-0.012324l-0.041903,0.019719l-0.027114,0.029579l0.014789,0.024649Z "/>
</svg>
