<svg xmlns="http://www.w3.org/2000/svg" viewBox="2299.094 1092.112 0.336 0.222">
  <path d="M2299.385348,1092.32606l0.002465,-0.022184l0.017254,-0.007395l0.00493,0.019719l-0.007395,0.017254l-0.017254,-0.007395Z M2299.254709,1092.301411l0.019719,-0.00986l0.012324,-0.017254l-0.00986,-0.017254l-0.019719,0.007395l-0.00493,0.017254l0.002465,0.019719Z M2299.397672,1092.261972h0.022184l0.00986,-0.017254l-0.017254,-0.007395l-0.022184,0.007395l0.007395,0.017254Z M2299.239919,1092.19542l0.036973,-0.00493l0.014789,-0.012324l-0.019719,-0.012324l-0.029579,0.002465l-0.019719,0.017254l0.017254,0.00986Z M2299.170902,1092.220069l0.007395,-0.022184l-0.017254,-0.002465l-0.017254,0.012324l-0.00493,0.019719l0.032044,-0.007395Z M2299.09449,1092.21021l0.024649,-0.007395l0.022184,-0.019719l0.041903,-0.002465l0.014789,-0.017254l-0.022184,-0.014789l-0.036973,0.00493l-0.036973,0.036973l-0.007395,0.019719Z M2299.119139,1092.141193l0.032044,-0.00493l0.012324,-0.017254l-0.022184,-0.007395l-0.019719,0.00986l-0.002465,0.019719Z "/>
</svg>
