<svg xmlns="http://www.w3.org/2000/svg" viewBox="2325.809 1059.183 6.069 5.428">
  <path d="M2326.171199,1060.384379l-0.098584,-0.087676v-0.071936l0.086351,-0.060869l0.012233,-0.178535l0.087208,-0.046943l0.295305,-0.001397l0.061679,-0.099603l-0.084809,-0.193673l0.055511,-0.058102l0.074015,0.0083l0.013878,0.066402l0.152655,0.083003l0.34386,0.016601l0.419417,-0.132805l0.197373,-0.166006l-0.061679,-0.210274l0.111022,-0.066402l0.135694,0.088536l0.23438,0.022134l0.209709,0.099603l0.246716,0.033201l0.074015,0.11067l0.259052,0.060869l0.228212,0.016601l0.339234,-0.044268l0.074015,-0.066402l0.123358,0.011067l0.111022,0.088536l0.23438,-0.033201l0.086351,-0.099603l0.141862,-0.027668l0.123358,0.038735h0.178869l0.024672,0.060869l-0.209709,0.044268l-0.098686,0.116204l0.043175,0.11067l-0.037007,0.033201l-0.092518,-0.088536l-0.104854,-0.027668l-0.178869,0.060869l-0.259052,0.18814l-0.154197,0.168772l-0.175785,0.29881l-0.111022,0.224108l-0.083267,0.332011l-0.050885,-0.016601l0.041633,-0.244858l-0.037007,-0.27806l0.138778,-0.249009l0.222044,-0.096837l0.030839,-0.083003l-0.169617,-0.243475l-0.268304,-0.116204l-0.252884,-0.038735l-0.092518,0.022134l-0.11719,0.09407l-0.046259,-0.044268l0.01542,-0.077469l-0.166533,-0.088536l-0.135694,0.016601l-0.064763,0.240708l0.120274,0.182606l0.185037,0.049802l0.407081,0.033201l0.037007,0.058102l-0.203541,0.132805l-0.175785,0.058102l-0.120274,0.182606l0.092518,0.28221l0.222044,0.157705l0.046259,0.149405l-0.083267,0.099603l0.009252,0.107904l0.231296,0.116204l0.092518,-0.049802l0.027756,-0.311261l0.060137,0.00415l0.032381,0.307111l0.074015,0.332011l0.166533,0.190907l0.305311,0.074703l0.004626,0.099603l-0.189663,0.083003h-0.240548l-0.407081,0.116204l-0.212792,0.099603l-0.268304,0.174306l-0.046259,0.099603l-0.2498,0.124504l-0.268304,-0.041501l-0.194289,-0.174306l-0.018504,-0.182606l-0.064763,-0.107904l-0.018504,-0.215807l-0.138778,-0.174306l0.009252,-0.149405l0.212792,-0.091303l0.416333,-0.240708l0.10177,-0.166006l0.055511,0.0083l-0.009252,0.074703h0.092518l0.092518,-0.116204l-0.009252,-0.257309l-0.166533,-0.365213l-0.314563,-0.398414l-0.259052,-0.058102l-0.2498,0.041501l-0.166533,0.149405l-0.268304,0.016601l-0.240548,-0.083003l-0.064763,0.041501l0.052427,0.08577l-0.012336,0.044268l-0.206625,0.027668l-0.354757,-0.039596Z M2331.80876,1063.49093l-0.004626,0.037351l0.037007,0.01245l0.037007,-0.024901l-0.032381,-0.033201l-0.037007,0.0083Z M2330.744798,1064.574117l0.092518,0.037351l0.046259,-0.045652l-0.055511,-0.045652l-0.018504,-0.070552l-0.055511,0.0083l-0.032381,0.083003l0.02313,0.033201Z M2330.037031,1063.922545l0.013878,-0.049802l-0.032381,-0.033201l-0.050885,0.016601l-0.004626,0.058102l-0.050885,0.033201l-0.004626,0.033201l0.129526,-0.058102Z M2330.240572,1063.735788l0.120274,0.120354l-0.018504,0.078853l-0.115648,0.041501l-0.013878,0.058102l0.037007,0.029051l-0.032381,0.083003l0.050885,0.087153l-0.032381,0.083003l-0.050885,0.016601l0.018504,0.037351l0.083267,0.016601l0.013878,0.066402l-0.046259,0.049802l0.041633,0.062252l0.078641,0.01245l0.027756,-0.049802l0.198915,-0.141105l0.046259,-0.136955l-0.018504,-0.062252l0.074015,-0.128654l0.217418,-0.145255l-0.013878,-0.070552l-0.069389,-0.00415l-0.087893,-0.078853l-0.10177,-0.178456l-0.078641,-0.041501l-0.097144,-0.00415l-0.041633,0.074703l-0.078641,0.058102l-0.138778,0.0083l-0.074015,-0.024901l-0.02313,0.024901l0.1249,0.058102Z M2329.727095,1064.0678l0.041633,-0.01245l-0.02313,-0.029051l-0.050885,0.00415l-0.018504,0.029051l0.050885,0.0083Z M2325.841319,1060.672983l0.037007,-0.0083v-0.029051l-0.037007,-0.01245l-0.032381,0.029051l0.032381,0.020751Z "/>
</svg>
