<svg xmlns="http://www.w3.org/2000/svg" viewBox="2232.846 1133.269 1.675 1.378">
  <path d="M2232.846489,1133.971579l0.046259,-0.087893l0.143404,-0.013878l0.208167,0.046259l0.083267,0.083267l0.115648,-0.018504l0.166533,-0.217418l0.032381,-0.120274l0.14803,-0.212792l-0.032381,-0.046259l-0.10177,-0.027756l0.027756,-0.02313l0.175785,0.018504l0.198915,-0.083267l0.180411,0.009252l0.018504,0.064763l-0.060137,0.138778l0.02313,0.087893l0.10177,0.046259l0.032381,0.14803l-0.050885,0.111022l0.046259,0.092518l0.152655,0.013878l0.018504,0.064763l-0.050885,0.078641l-0.118732,0.006168l-0.043175,-0.021588l-0.115648,-0.104854l-0.087893,-0.041633h-0.300685l-0.146488,0.115648l0.030839,0.018504l0.111022,-0.049343l0.092518,-0.010794l0.231296,0.055511l0.083267,0.060137l0.129526,0.055511v0.046259l-0.166533,0.166533l-0.111022,0.032381l-0.120274,-0.060137l-0.037007,0.013878l0.013878,0.078641l-0.134152,0.013878l-0.092518,-0.041633l-0.041633,0.013878l0.013878,0.055511l-0.037007,0.004626l-0.046259,-0.060137l0.018504,-0.074015l-0.050885,-0.046259l-0.235922,-0.120274l-0.027756,-0.083267l-0.143404,-0.032381l-0.092518,0.027756l-0.10177,-0.055511l-0.097144,-0.115648Z M2233.558881,1134.646964l0.037007,-0.009252l0.018504,-0.037007l-0.032381,-0.013878l-0.050885,0.027756l0.027756,0.032381Z M2233.133296,1133.795794h0.050885l0.027756,-0.032381l-0.013878,-0.032381l-0.055511,0.018504l-0.009252,0.046259Z "/>
</svg>
