<svg xmlns="http://www.w3.org/2000/svg" viewBox="1460.410 572.752 51.744 67.289">
  <path d="M1484.272338,634.399289l0.046398,0.046398l-0.023199,0.069597l-0.055678,0.064957l-0.041758,-0.027839l0.018559,-0.125275l0.055678,-0.027839Z M1485.757074,634.343611l0.00464,0.069597l0.190232,0.083516l0.129914,-0.037118l0.00464,-0.088156l-0.069597,-0.083516l-0.153113,-0.013919l-0.106715,0.069597Z M1486.633996,634.250815l0.018559,0.083516l0.250549,0.097436l0.487179,-0.055678l0.069597,-0.102076l-0.185592,-0.24127l-0.125275,-0.00928l-0.343223,0.110206l-0.171794,0.117144Z M1489.141035,634.374543l0.080423,-0.024746l-0.018559,-0.055678l-0.08661,-0.024746l-0.074237,0.024746v0.055678l0.098982,0.024746Z M1501.198329,613.254173l-0.049491,0.049491l0.006186,0.049491l0.055678,0.012373l0.037118,-0.043305l-0.006186,-0.061864l-0.043305,-0.006186Z M1504.668899,612.449941l0.061864,-0.012373l0.030932,-0.043305l-0.024746,-0.043305l-0.049491,0.006186l-0.043305,0.049491l0.024746,0.043305Z M1504.941101,614.132642l0.043305,0.012373l0.061864,-0.043305l0.006186,-0.142287h-0.049491l-0.055678,0.061864l-0.006186,0.111355Z M1504.631781,614.429589l-0.210338,0.197965l-0.148474,0.216524l-0.092796,0.593894l0.061864,0.581522l0.08661,0.043305l0.111355,-0.018559l0.080423,-0.123728l0.247456,-0.105169l0.080423,-0.074237l0.055678,-0.173219l0.092796,-0.092796l0.179406,-0.092796l0.123728,-0.30932l0.055678,-0.284574l0.173219,-0.426862l0.167033,-0.228897l0.253642,-0.105169l0.346438,-0.179406l0.123728,-0.129914l-0.018559,-0.061864l-0.080423,-0.037118l-0.049491,-0.123728v-0.148474l-0.037118,-0.08661l-0.15466,-0.105169l-0.037118,-0.235083l0.03338,-0.396974l-0.089058,-0.067006l-0.111355,0.012373l-0.06805,0.160846l-0.037118,0.346438l-0.043305,0.06805l-0.179406,0.117542l-0.290761,0.525844l-0.006186,0.334066l-0.092796,0.204151l-0.179406,0.105169l-0.136101,-0.037118l-0.129914,0.006186l-0.080423,0.129914Z M1505.324658,613.136632l0.080423,-0.037118l0.061864,-0.098982l-0.043305,-0.018559l-0.06805,0.030932l-0.049491,0.092796l0.018559,0.030932Z M1490.26696,572.78893l0.055678,-0.037118l0.080423,0.06805l-0.030932,0.098982l-0.080423,0.024746l-0.049491,-0.049491l0.024746,-0.105169Z M1489.778234,572.900285l0.092796,0.018559l0.049491,-0.043305l-0.024746,-0.049491l-0.092796,-0.006186l-0.049491,0.037118l0.024746,0.043305Z M1489.171967,573.092064v-0.160846l0.049491,-0.074237l-0.043305,-0.024746l-0.080423,0.061864l-0.012373,0.173219l0.037118,0.049491l0.049491,-0.024746Z  M1488.601272,580.633285l0.042,-0.083l0.056,-0.005l0.074,0.065v0.033l-0.051,0.009l-0.037,0.06l-0.051,0.005l-0.033,-0.084z M1460.409846,624.039775l5.176,11.264l-0.263,0.345l0.458,0.087l1.967,4.305l0.186,-0.062l0.248,-0.185l1.361,-0.359l0.853,-0.136l0.594,0.037l0.47,-0.198l0.223,-0.297l0.371,-0.284l0.433,-0.149l0.668,-0.062l0.557,-0.148l0.05,-0.112l-0.087,-0.086v-0.087l0.149,-0.136l0.408,-0.111l1.633,-0.198l1.794,-0.013l0.458,0.099l0.136,0.285l0.272,0.136l0.458,0.037l0.124,-0.099l0.247,-0.012l0.235,0.012l0.545,-0.21l0.111,-0.136l0.124,-0.037l0.198,0.012l0.309,-0.186l0.049,-0.185l0.372,-0.421l0.198,-0.025l0.099,-0.086v-0.149l0.099,-0.136l0.259,-0.124l0.075,-0.235l-0.099,-0.16l0.012,-0.149l0.248,-0.322l0.061,-0.346l-0.099,-0.285l-0.297,-0.247l-0.049,-0.359l0.148,-0.433l0.359,-0.408l0.47,-0.248l0.062,-0.136l-0.012,-0.124l0.049,-0.185l0.112,-0.111l0.099,-0.322l0.309,-0.211l0.854,-0.284l0.903,-0.124l0.953,0.05l0.321,-0.05l0.359,-0.198h0.396l0.21,0.062l0.347,-0.049l0.21,-0.087h0.532l0.371,0.136l0.359,0.025l0.062,-0.087l-0.037,-0.111l0.111,-0.173l0.322,-0.235l0.111,-0.285l0.532,-0.408l0.211,-0.112l0.062,-0.161l-0.025,-0.272l0.074,-0.321l0.198,-0.285l0.074,-0.322l-0.012,-0.173l0.062,-0.359l0.111,-0.161l0.025,-0.247l-0.037,-0.223l0.012,-0.495l0.112,-0.259l0.148,-0.087l0.804,-0.94l0.607,-0.347l1.113,-0.433l1.658,-0.433l1.039,-0.099l1.423,0.012l0.359,-0.061l0.186,-0.161l0.556,-0.099l0.038,-0.099l-0.149,-0.136l-0.148,-0.347l-0.05,-0.309l0.037,-0.223l-0.037,-0.124l-0.111,-0.037l-0.099,-0.123l-0.112,-0.384v-0.569l0.062,-0.408l-0.049,-0.396l-0.297,-0.384l-0.025,-0.297l0.136,-0.606l-0.025,-0.173l-0.123,-0.062l-0.087,-0.198l0.025,-0.285l0.284,-0.383l0.52,-1.238l0.136,-0.915l-0.099,-0.495l0.297,-0.52l0.644,-0.371l0.086,-0.136l-0.148,-0.161v-0.185l0.16,-0.26l0.57,-0.235l0.123,-0.211l-0.061,-0.148l0.136,-0.272l0.556,-0.372l0.26,-0.049l0.359,0.161l0.099,0.247l-0.136,0.124l-0.371,0.742l0.024,0.198l0.52,0.174l0.285,-0.05l0.26,0.012l0.284,0.161l0.198,-0.012l0.173,-0.149l0.285,-0.198l0.148,-0.259l0.075,-0.557l0.321,-0.743l0.223,-0.321l0.297,-0.173l0.173,-0.186l0.248,-0.099l0.086,-0.148l-0.049,-0.211v-0.309l0.148,-0.396l0.334,-0.272l0.013,-0.124l-0.087,-0.062l0.025,-0.173l0.594,-0.78l0.804,-0.903l1.138,-0.891l0.804,-0.272l0.137,-0.173v-0.148l0.655,-1.015l0.235,-0.544l0.037,-0.273l0.186,-0.321l0.26,-0.186l0.136,-0.247v-0.149l0.21,-0.272l0.223,-0.124l0.05,-0.173l-0.013,-0.173l0.173,-0.47l0.359,-0.693l0.507,-0.545l0.149,-0.42l0.049,-1.225l-0.222,-0.446l-0.136,-0.111l-0.322,-0.012l-0.916,-0.174l-0.47,-0.111l-0.47,-0.346l-0.705,-0.817l-0.248,-0.087l-0.457,-0.693l-0.099,-0.47l-0.236,-0.321l-0.507,-0.31l-0.322,-0.371l-0.42,-0.631l-0.013,-0.235l-0.136,-0.223l-0.198,-0.086l-0.123,-0.198l0.012,-0.174l-0.148,-0.284l-0.631,-0.408l-0.161,-0.211l-0.025,-0.284l-0.111,-0.26l-0.297,-0.223l-0.409,-0.099l-0.346,-0.198l-0.074,-0.272l-0.186,-0.111l-0.334,-0.037l-0.111,-0.075l-0.099,0.013l-0.273,0.247l-0.532,0.05l-0.507,-0.075l-0.124,-0.148l-0.631,-0.421l-0.705,-0.161l-0.693,0.062l-0.631,-0.086l-0.359,-0.211l-0.099,-0.148l-0.111,-0.037l-0.371,0.049l-0.47,-0.062l-0.743,-0.284l-0.569,-0.235l-0.68,-0.186l-0.99,-0.371l-0.483,-0.26l-0.693,-0.606l-0.655,-0.557l-0.569,-0.767l-0.347,-0.643l-0.458,-0.557l-0.445,-0.396l-0.356,-0.487l-0.325,-0.45l-0.459,-0.924l-0.06,-0.283l-0.088,-0.273l-0.242,-0.362l-0.184,-0.508l-0.071,-0.29l-0.19,0.051l-0.158,-0.005l0.172,0.274l-0.13,0.241l-0.153,0.102l-0.107,-0.031l-0.06,0.031l-0.005,0.079l-0.153,0.111l-0.343,0.051l-0.01,0.186l-0.014,0.283l-0.176,0.07l-0.167,0.167l-0.232,0.097l-0.218,-0.037l-0.094,-0.005l-0.068,-0.105l-0.025,-0.105l-0.115,-0.115l-0.01,-0.185l-0.361,-0.427l0.005,-0.116l0.465,0.178l0.082,-0.025l-0.074,-0.046l-0.069,-0.065v-0.153l0.12,-0.283l-0.121,-0.017l0.028,-0.118l-0.092,-0.037l-0.149,-0.149l-0.32,-0.083l-0.325,0.288h-0.385l-0.26,0.385v0.765l0.047,0.024v0.055l0.069,0.074l0.01,0.098l-0.024,0.329l0.006,0.167l0.055,0.172l-0.288,0.246l0.144,0.153l-0.311,0.297l-0.009,0.329l0.12,0.283l0.228,0.311l0.046,0.228h0.047v0.57l-0.205,0.144l-0.069,0.176l-0.126,0.116l-0.078,0.005l-0.042,0.102l0.009,0.093l0.153,0.009l0.2,0.163l0.162,0.069l0.237,-0.106l0.561,-0.052l-0.018,0.07l0.079,-0.014l0.055,0.209l-0.074,0.111l0.083,0.186l0.158,0.176l0.102,0.186l0.01,0.185l-0.334,0.038l-0.43,0.092l-0.415,0.223l-0.216,-0.074l-0.198,-0.192l-0.304,-0.025l-0.835,0.341l-0.161,0.148l-0.538,0.241l-0.055,0.105l0.191,0.322l0.105,0.297l0.031,0.643l0.223,0.26l0.019,0.65l-0.174,0.235l-0.111,0.247l-0.198,0.161l-0.34,0.557l-0.056,0.297l-0.148,0.216l-0.093,-0.068l-0.773,1.467l-0.328,0.451l-0.056,0.433l-0.068,0.192l-0.012,0.78l0.074,0.197l0.025,0.718l-0.075,0.173l-0.043,0.381l3.007,4.878l-4.381,13.654l-19.859,6.869z M1487.413483,575.125843l0.084,-0.014h0.065l0.042,0.028l0.065,-0.01l0.051,-0.046l0.037,-0.06l0.088,-0.01l0.065,0.098l-0.023,0.042l0.06,0.157l0.084,0.079v0.14l0.055,0.167l-0.065,0.125l-0.097,0.055l0.032,0.186l0.051,0.023l-0.004,0.181l-0.116,0.121l0.014,0.13l-0.079,0.051l-0.065,0.162l0.004,0.102l0.07,0.093l0.023,0.265l0.075,0.204l-0.056,0.32l-0.013,0.159l0.106,0.037l0.13,0.093l0.037,0.204l0.062,0.062h0.154l0.093,0.037h0.148l0.013,-0.031l-0.056,-0.037l0.009,-0.056l0.056,-0.03l0.009,-0.13l0.056,-0.217l0.012,-0.142l-0.024,-0.093l0.062,-0.155l0.253,-0.13l0.161,-0.191l0.155,-0.31l-0.056,-0.086l0.031,-0.044l0.068,0.007l0.025,-0.044l-0.087,-0.055l0.025,-0.05l0.124,-0.012l0.117,-0.198l-0.031,-0.074l-0.062,-0.081l-0.006,-0.124l0.099,-0.024l0.18,0.062l0.055,-0.044l-0.13,-0.123l0.007,-0.099l-0.056,-0.038h-0.074l-0.031,-0.061l0.074,-0.106l0.074,-0.024l0.025,-0.192l-0.081,-0.05l-0.148,0.013l-0.062,-0.037l0.031,-0.081l0.254,-0.031l0.068,-0.062l0.006,-0.074l0.062,-0.074l0.148,-0.043l-0.006,-0.056l-0.21,-0.037l-0.105,0.062l-0.068,-0.025l-0.062,-0.118l-0.068,-0.006l-0.075,0.087l-0.061,-0.019l-0.007,-0.123l0.056,-0.099l-0.056,-0.031l-0.105,0.061l-0.062,0.124l-0.055,0.006l-0.025,-0.117l0.018,-0.149l-0.055,-0.08l0.037,-0.068l0.093,-0.012l0.074,-0.081l-0.006,-0.074l0.068,-0.074l0.123,-0.019l0.05,0.05l-0.025,0.049l-0.062,0.025l-0.024,0.068l0.024,0.043l-0.006,0.099l0.043,0.019l0.031,-0.143l0.118,-0.099l0.049,0.007v0.092l-0.024,0.106l0.055,0.117l0.112,0.043l0.266,-0.006l0.025,-0.068l-0.093,-0.136l-0.062,-0.006l-0.043,0.049l-0.062,-0.031l-0.031,-0.136l0.068,-0.216l0.068,-0.019l0.074,0.056l0.006,0.099l0.05,0.025l0.037,-0.124l-0.037,-0.111l0.031,-0.093l-0.118,-0.074l-0.056,0.018l-0.006,0.062l-0.086,0.019l-0.242,-0.161l-0.043,-0.149l0.037,-0.093l0.211,-0.154l0.327,-0.062l0.13,0.037l0.099,-0.031l-0.006,-0.08l-0.093,-0.044l0.019,-0.148l-0.081,-0.031l-0.061,0.049l0.006,0.112l-0.081,0.055l-0.358,-0.123l-0.087,-0.136l-0.204,-0.05l-0.087,0.068v0.241l-0.062,0.069h-0.173l-0.006,0.074l0.142,0.216l0.155,0.093l-0.012,0.062h-0.137l-0.148,-0.167l-0.087,0.031l-0.086,0.322l0.024,0.16l0.118,0.019l0.291,-0.198l0.161,-0.019l0.13,0.093l0.012,0.099l-0.062,0.044l-0.093,-0.062l-0.198,0.018l-0.13,0.155l-0.136,0.018l-0.179,-0.086l-0.081,-0.136l-0.21,-0.044l-0.074,0.031l-0.081,-0.024l-0.043,-0.223h-0.093l-0.096,0.05l-0.095,0.142l-0.038,0.352l-0.147,0.187l-0.125,0.104l-0.284,0.495l0.01,0.079z M1488.346083,580.656484l0.13,-0.055l0.056,-0.098l-0.065,-0.167l0.06,-0.106l0.125,-0.014l0.186,0.074l0.079,0.097l0.148,0.024l0.051,0.078l-0.037,0.177l-0.176,0.065l-0.139,0.13l-0.279,0.074l-0.213,-0.047l-0.061,-0.123l0.135,-0.109z"/>
</svg>
