<svg xmlns="http://www.w3.org/2000/svg" viewBox="569.023 687.194 38.845 16.162">
  <path d="M574.028497,689.81229l-0.087271,-0.191997l0.04189,-0.087271l0.195488,0.010473l0.125671,0.146616l-0.013963,0.115198l-0.132653,0.027927l-0.024436,0.108217l-0.069817,0.024436l-0.034909,-0.153598Z M574.817386,690.514578l0.038593,-0.00247l0.034761,-0.081936l0.090762,-0.003491l0.111707,0.090762l0.157089,-0.038399l0.049627,-0.128405l-0.014718,-0.081046l-0.087357,-0.039589l-0.02435,-0.040701l0.052363,-0.038399l-0.013963,-0.143125l-0.157089,-0.12218l-0.097744,0.045381l0.017454,0.143125l-0.08029,0.076799l-0.017454,0.174543l-0.066326,0.132653l0.006936,0.056479Z M573.930753,688.936085l0.258324,0.115198l0.132653,-0.087271l-0.069817,-0.335122l-0.132653,-0.111707l-0.317668,0.04189l-0.038399,0.181525l0.167561,0.195488Z M575.63662,690.512789l0.13498,0.018618v-0.107053l-0.153598,-0.139634l-0.09309,0.004654v0.097744l0.111707,0.125671Z M574.676642,689.409095l0.052346,-0.030253l-0.080273,-0.086109l-0.108233,-0.029089l-0.05351,0.006981l0.045381,0.082617l0.144289,0.055854Z M574.859322,689.557457l0.013963,-0.171052l-0.129162,-0.181525l-0.139634,-0.024436l-0.090762,-0.066326l0.04189,-0.048872l0.32465,0.048872l0.36398,0.218857l0.043305,0.06805l-0.002346,0.079632l-0.16407,0.048872l-0.139634,0.157089h-0.076799l-0.045381,-0.129162Z M604.121219,691.907501v-0.041633l0.074015,0.027756l0.041633,0.078641l-0.032381,0.013878l-0.046259,-0.037007l-0.037007,-0.041633Z M596.83205,695.641028l-0.037007,-0.069389l0.013878,-0.055511l0.046259,-0.009252l0.046259,0.041633l-0.013878,0.078641l-0.055511,0.013878Z M591.938108,692.847874l-0.027756,-0.069389l0.041633,-0.041633l0.078641,0.02313l0.046259,0.078641l-0.046259,0.02313l-0.092518,-0.013878Z M581.084101,700.962028l0.061679,-0.018504l0.043175,0.030839l-0.018504,0.074015l-0.067847,0.037007l-0.061679,-0.037007l0.043175,-0.086351Z M581.62926,699.898544l-0.051199,-0.144289l0.055854,-0.060508l0.083781,0.018618l0.051199,0.125671l-0.023272,0.060508h-0.116362Z M581.860924,699.234499l0.02949,-0.066353l0.036863,-0.007373l0.027033,0.044235l-0.02949,0.044235l-0.04915,0.007373l-0.014745,-0.022118Z M573.20861,696.218954l0.059409,0.01849l0.008932,0.042834l-0.068036,0.032094l-0.068126,0.004619l-0.023198,-0.036193l0.091019,-0.061844Z M573.588649,697.271091l0.032581,-0.088435l0.074472,0.009309l0.018618,0.097744l-0.074472,0.172216h-0.153598l0.004654,-0.09309l0.097744,-0.097744Z M573.702356,696.126589l-0.021588,-0.061679l0.052427,-0.055511l0.086351,0.009252l0.049343,0.052427v0.064763l-0.055511,0.018504l-0.111022,-0.027756Z M577.558919,697.205929l0.018618,-0.074472l0.079126,0.009309l0.125671,0.228069l-0.018618,0.079126l-0.060508,-0.04189l-0.069817,-0.116362l-0.074472,-0.083781Z M577.062054,702.913483l0.055854,-0.104726h0.216433l-0.006982,0.153598l-0.118689,0.181525l-0.076799,-0.048872l-0.069817,-0.181525Z M594.861942,695.386028v-0.097744l0.09309,-0.004654l0.153598,0.139634v0.107053l-0.13498,-0.018618 l-0.111707,-0.125671Z M594.827033,696.321578l0.027927,-0.223415l0.107053,-0.074472l0.139634,0.083781l0.046545,0.181525l-0.107053,0.121016l-0.074472,0.21876l-0.158252,0.004654l-0.069817,-0.144289l0.088435,-0.167561Z M580.793781,701.408922l0.251342,-0.174543l0.251342,-0.027927l0.328141,-0.28625l0.349086,-0.027927l0.174543,0.076799l-0.013963,0.132653l-0.174543,0.090762l-0.167561,-0.069817h-0.167561l-0.195488,0.195488l-0.383994,0.195488l-0.237378,-0.006982l-0.013963,-0.097744Z M576.758349,701.709136l-0.069817,-0.349086l0.237378,-0.432866l0.397958,-0.272287l0.139634,-0.146616h0.146616l0.160579,0.383994l0.013963,0.223415l0.195488,0.104726l-0.006982,0.132653l-0.24436,0.153598l0.006982,0.328141l0.258324,0.300214l0.28625,0.006982l0.167561,0.076799l0.097744,0.237378l-0.111707,0.139634l-0.265305,-0.013963l-0.28625,-0.118689l-0.363049,-0.034909l-0.258324,-0.125671l-0.20247,-0.321159l-0.300214,-0.272287Z M591.730406,694.226363l0.027756,-0.021588l0.021588,0.012336l-0.024672,0.055511h-0.024672v-0.046259Z M595.422806,694.594766l0.069817,-0.018618l0.006982,0.023272l-0.055854,0.034909l-0.011636,0.06749l0.055854,0.04189l-0.006982,0.037236l-0.051199,0.002327l-0.046545,-0.055854l-0.002327,-0.048872l0.04189,-0.083781Z M595.40404,694.166759l0.02949,-0.066353l0.036863,-0.007373l0.027033,0.044235l-0.02949,0.044235l-0.04915,0.007373l-0.014745,-0.022118Z M595.353246,693.935929l-0.006168,-0.027756l0.024672,-0.033923l0.061679,-0.012336l0.009252,0.021588l-0.046259,0.037007l-0.043175,0.01542Z M595.301733,693.590384l0.024672,0.024672l-0.006168,0.043175l-0.049343,-0.006168l-0.012336,-0.043175l0.043175,-0.018504Z M596.644707,696.189182l0.050885,0.013878l0.018504,0.032381l-0.037007,0.037007l-0.060137,-0.013878l-0.009252,-0.037007l0.037007,-0.032381Z M592.177407,692.745953l0.018504,-0.055511l0.061679,-0.024672l0.024672,0.043175l-0.055511,0.049343l-0.049343,-0.012336Z M595.174162,693.883321l0.043792,-0.047212l0.052849,0.004702l0.021562,0.073182l-0.039731,0.066289l-0.071927,-0.000641l-0.006546,-0.096321Z M595.168639,694.828009l0.019032,-0.07227l0.05824,-0.008647l0.049395,0.065418l-0.009679,0.090723l-0.050935,-0.008972l-0.066053,-0.066252Z M595.455388,694.285244l0.006982,-0.055854l0.039563,-0.004654l0.032581,0.037236l-0.0256,0.034909l-0.053526,-0.011636Z M595.294808,694.636657l0.009309,-0.046545l0.048872,-0.013963l0.032581,0.0256l-0.053526,0.046545l-0.037236,-0.011636Z M591.634404,694.115055l-0.027756,-0.069389l0.041633,-0.041633l0.078641,0.02313l0.046259,0.078641l-0.046259,0.02313l-0.092518,-0.013878Z M574.273172,701.622814v-0.050885l0.041633,-0.027756l0.060137,0.027756l-0.013878,0.050885l-0.046259,0.009252l-0.041633,-0.009252Z M577.821312,700.381382l0.061679,-0.018504l0.043175,0.030839l-0.018504,0.074015l-0.067847,0.037007l-0.061679,-0.037007l0.043175,-0.086351Z M575.669053,698.216155l0.02949,-0.066353l0.036863,-0.007373l0.027033,0.044235l-0.02949,0.044235l-0.04915,0.007373l-0.014745,-0.022118Z M577.129478,697.45987l0.027033,0.01966l-0.012288,0.03932l-0.026503,0.005638l-0.012818,-0.042501l0.024575,-0.022118Z M575.030167,696.904258l0.021588,-0.030839l0.027756,0.012336l0.009252,0.040091l-0.021588,0.040091l-0.033923,-0.003084l-0.003084,-0.058595Z M574.119488,697.440951l0.013878,-0.027756l0.046259,0.004626l0.013878,0.032381l-0.046259,0.009252l-0.027756,-0.018504Z M575.511348,698.367135l-0.009252,-0.037007l0.030839,-0.018504l0.107938,0.012336l0.009252,0.046259l-0.024672,0.024672l-0.114106,-0.027756Z M575.812091,698.382812l0.027756,-0.021588l0.021588,0.012336l-0.024672,0.055511h-0.024672v-0.046259Z M577.436686,699.285127l0.054935,-0.029213l0.036725,0.023786l-0.025055,0.070931l-0.044644,0.051665l-0.042042,-0.008975l0.020081,-0.108193Z M577.238636,698.928344l0.070718,-0.02417l0.039449,0.043708l-0.027122,0.077355l-0.080904,0.042176l-0.020733,-0.047382l0.018592,-0.091687Z M578.297096,700.052428l0.083267,-0.004626l0.074015,0.055511l-0.004626,0.041633l-0.078641,0.004626l-0.087893,-0.041633l0.013878,-0.055511Z M595.747464,695.079413l0.052346,-0.030253l-0.080273,-0.086109l-0.108233,-0.029089l-0.05351,0.006981l0.045381,0.082617l0.144289,0.055854Z M595.902218,695.31621l0.032581,0.167561l-0.046545,0.107053v0.097744l0.079126,0.116362l-0.004654,0.079126l-0.060508,0.111707l0.009309,0.144289l0.172216,0.125671l0.158252,0.251342l0.037236,-0.046545l-0.09309,-0.260651l0.097744,-0.079126l0.232724,-0.013963l0.144289,-0.097744l0.046545,-0.214106l-0.055854,-0.17687l0.060508,-0.13498l-0.004654,-0.125671l-0.246687,-0.386322l-0.144289,-0.027927l-0.172216,0.055854l-0.17687,0.009309l-0.079126,0.09309l0.013963,0.204797Z M600.520624,695.052069l0.101235,0.04189l0.062835,-0.006982l0.006982,-0.132653l-0.076799,-0.08029l-0.090762,0.010473l-0.038399,0.111707l0.034909,0.055854Z M599.935578,695.800716l0.041053,0.008588l0.015388,-0.016076l-0.036265,-0.0392l-0.04446,-0.000881l-0.012977,0.021014l0.037261,0.026555Z M601.154852,695.264656l0.034405,-0.002458l0.02949,-0.063896l-0.01966,-0.086013l-0.051608,-0.00983l-0.014745,0.041778l0.022118,0.120419Z M596.936883,692.57219l-0.041331,0.101465l0.007328,0.062796l0.132689,0.00625l0.079865,-0.077241l-0.010973,-0.090703l-0.111918,-0.037782l-0.05566,0.035216Z M574.024679,696.742954l0.131671,0.131671l0.109417,0.033381l0.016495,-0.038448l-0.098094,-0.078387l0.007418,-0.070472l0.129816,-0.063054l-0.011127,-0.074181l-0.252215,-0.070472l-0.220688,0.051927l-0.035236,0.085308l0.222542,0.092726Z M578.810985,690.838452l0.061071,0.038863l0.144349,0.016656v-0.038863l-0.08883,-0.061071l-0.127694,0.005552l0.011104,0.038863Z  M603.025332,703.253923l0.482,-1.609l0.167,-0.045l0.083,0.091l0.176,-0.009l0.288,-0.211l0.065,-0.147l-0.158,-0.285l-0.139,-0.34l-0.018,-0.432l0.139,-0.12l0.24,0.019l0.288,0.266l0.305,0.781l0.186,0.157l0.139,-0.065l0.139,-0.321l0.083,-0.046l0.121,0.064l0.083,-0.037l0.083,-0.487l0.047,-0.092l0.12,0.019l0.065,-0.065l0.136,-0.312l0.13,-0.068l0.037,-0.196l0.123,-0.104l0.204,0.043l0.037,-0.141l-0.167,-0.27l-0.006,-0.061l0.148,-0.104l0.019,-0.129l0.117,-0.19l0.272,-0.055l0.136,-0.086l0.555,0.031l0.118,-0.073v-0.068l-0.072,0.006l-0.073,-0.122l0.08,-0.074l0.013,-0.067l-0.297,-0.172l-0.119,-0.147l0.027,-0.392l-0.086,-0.343l-0.118,-0.117l-0.007,-0.122l-0.073,-0.196l-0.112,-0.049l-0.085,-0.209l0.026,-0.092l-0.072,-0.104l-0.086,-0.024l-0.059,0.061l-0.086,-0.012l-0.04,-0.098l-0.105,-0.08l-0.04,-0.184l0.047,-0.098l-0.014,-0.073l-0.105,-0.037l-0.007,-0.049l0.079,-0.214l-0.046,-0.099l-0.109,-0.046l-0.128,-0.266l-0.138,-0.141l-0.139,0.024l-0.099,-0.021l0.007,-0.132l-0.059,-0.049l0.006,-0.073l0.112,-0.08l-0.013,-0.22l0.053,-0.037l0.079,0.018l0.066,-0.049l-0.073,-0.095l0.04,-0.037l0.109,0.037l0.069,-0.055l-0.139,-0.303l0.099,-0.074l0.148,0.083l0.07,-0.046l-0.05,-0.074l0.073,-0.141l-0.185,-0.061l-0.169,0.063l-0.238,-0.02l-0.556,-0.31l-0.016,-0.084l0.046,-0.151l-0.018,-0.137l-0.075,-0.019l-0.056,0.051l-0.06,-0.051l-0.063,-0.174l-0.263,-0.273l-0.061,0.007l-0.011,0.093h-0.086l-0.037,-0.095l-0.243,-0.212l-0.088,-0.035l-0.112,-0.119l-0.032,-0.093l-0.233,-0.274l0.007,-0.063l0.047,-0.049v-0.063l-0.317,-0.321l-0.079,-0.179l-0.338,-0.303l-0.025,-0.081l-0.082,-0.072l-0.011,0.049l0.077,0.153l0.011,0.131l-0.058,-0.007l-0.24,-0.296l-0.272,-0.214l-0.035,-0.107l-0.514,-0.496l-0.205,-0.093l-0.316,-0.028l-0.182,-0.135l-0.279,-0.121l-0.349,-0.079l-0.48,-0.219l-0.102,-0.088l-0.228,-0.056l-0.461,-0.237l-0.647,-0.187l-0.251,-0.111l-0.112,-0.005l-0.154,0.102l-0.312,-0.055l-0.13,0.032l-0.326,-0.163l-0.437,0.028l-0.121,0.112l-0.247,0.005l-0.288,0.107l-0.126,-0.033l-0.275,-0.242h-0.246l-0.182,0.116l-0.284,-0.046l-0.102,-0.121l0.014,-0.326l0.205,-0.177l0.344,-0.005l0.13,-0.162l-0.06,-0.047l-0.196,0.042l-0.973,0.037l-0.228,0.089l-0.325,-0.014l-0.685,-0.21l-0.311,-0.004l-0.35,-0.14l-0.13,0.005l-0.126,0.069l-0.363,-0.014l0.014,-0.079l0.089,-0.065l-0.107,-0.149l-0.238,0.084l-0.088,0.098l-0.149,-0.033l-0.14,0.005l-0.232,0.219l-0.005,0.079l0.074,0.051l-0.037,0.13l-0.507,0.549l-0.331,0.163l-0.172,0.214l0.005,0.154l-0.056,0.005l-0.154,-0.14l-0.218,0.019l-0.247,0.437l-0.009,0.312l-0.056,-0.023l-0.037,-0.14l-0.112,-0.084l-0.028,-0.139l0.051,-0.089l-0.06,-0.111l-0.135,0.032l-0.284,0.396l-0.205,0.121l-0.335,0.428l-0.498,0.214l-0.694,0.144l-0.144,0.107l-0.791,0.098l-0.27,0.163l-0.28,0.047l-0.972,0.442l-0.321,0.27l-0.191,0.037l-0.205,0.149l-0.079,0.177l-0.456,0.409l-0.331,0.033l-0.377,0.14l-0.279,0.19l-0.298,0.014l-0.284,0.163l-0.712,0.093l-1.029,0.038l-0.232,-0.103l-0.27,0.037l-0.284,-0.046l-0.377,-0.023l-0.722,-0.666l-0.591,-0.801l-0.377,-0.251l-0.302,-0.051l-0.089,-0.251l0.061,-0.103l-0.219,-0.177l-0.103,-0.172l-0.232,-0.042l-0.037,0.075l0.125,0.097l0.13,0.033v0.074l-0.195,0.014l-0.195,-0.041l-0.014,0.093l0.446,0.312l0.056,0.195l0.303,0.27l0.181,0.019l0.117,0.158l-0.019,0.223l-0.112,0.107l-0.13,-0.014l-0.163,-0.125l-0.335,-0.028l-0.112,-0.093l-0.135,-0.07l-0.032,0.06l0.074,0.117l-0.144,0.135l-0.214,0.018l-0.135,-0.093h-0.219l-0.321,0.172l-0.233,-0.069l-0.139,-0.27l-0.322,-0.117l-0.232,0.028l-0.247,-0.125l0.047,-0.154l-0.014,-0.335l-0.168,-0.168l0.07,-0.284l0.167,-0.13l0.252,0.051l0.093,0.084l0.046,-0.107l-0.125,-0.298l-0.182,-0.042l-0.028,0.061l0.014,0.107l-0.223,0.06l-0.093,-0.102l-0.177,-0.01l-0.117,0.07l-0.228,-0.144l-0.093,-0.237l-0.191,-0.145l-0.023,-0.153l0.098,-0.009l0.135,0.097l0.112,-0.116l-0.247,-0.275l0.088,-0.218l0.14,-0.052l0.061,-0.307l-0.075,-0.032l-0.13,0.079l-0.256,-0.145l-0.568,-0.498l-0.303,-0.33l-0.125,-0.061l0.004,0.093l0.065,0.103l-0.088,0.023l-0.088,-0.126l-0.14,0.014l-0.005,0.308l-0.128,0.082l-0.15,0.007l-0.105,-0.063l-0.132,0.011l-0.066,-0.093l0.004,-0.107l-0.046,-0.056l-0.089,0.014l-0.103,-0.083l0.017,-0.139l-0.101,-0.063l-0.136,0.028l-0.105,-0.011l-0.07,-0.156l-0.088,-0.009l-0.075,0.065l-0.139,-0.135l-0.154,0.019l-0.168,0.27l0.08,0.158l-0.024,0.177l0.173,0.056l0.013,0.107l-0.6,0.167v2.639l0.116,0.01l0.154,-0.086l0.07,0.014l0.056,0.169l0.335,0.177l0.139,0.163l0.163,0.019l0.233,0.139l0.033,0.131l0.165,0.095l0.017,0.196l-0.209,0.066l-0.032,0.094l-0.15,0.122l-0.195,0.014l-0.087,0.091l-0.301,0.046l-0.135,0.183l0.093,0.075l-0.032,0.112l-0.282,0.192l-0.024,0.157l0.194,0.307l0.103,0.009l0.069,0.061l-0.023,0.107l0.219,0.28l0.052,0.436l-0.101,0.116l0.045,0.324l-0.24,0.402l-0.409,0.049l-0.345,0.401l-0.412,0.199l0.003,0.154l0.234,0.118l0.122,0.189l0.084,-0.091l0.188,0.067l0.13,0.202l-0.025,0.199l0.147,0.119l0.003,0.268l0.178,0.332l-0.066,0.223l0.017,0.126l-0.083,0.098l0.178,0.045l0.132,-0.181l0.046,-0.094l-0.15,-0.381l0.024,-0.391l-0.028,-0.339l0.203,-0.296l0.366,-0.129l0.391,-0.123l0.384,-0.024l1.089,0.384l0.081,0.021l0.069,-0.021l0.061,-0.107l-0.277,-0.062v-0.034l0.33,0.004l0.08,-0.085l0.087,-0.164l0.008,-0.118l0.046,-0.008l0.039,0.136l-0.085,0.096l-0.006,0.102l0.126,0.035l-0.044,0.11l0.106,0.015l0.116,-0.056l0.167,0.015v0.104l-0.22,0.152l-0.065,0.011l-0.054,-0.035l-0.072,-0.017l-0.015,0.041l0.183,0.193l0.086,0.029l0.102,-0.096l0.291,-0.03l0.059,-0.161l-0.013,-0.124l-0.167,-0.034l-0.02,-0.117l0.056,-0.142l0.181,0.005l0.221,-0.146l0.063,0.002l0.022,0.051l-0.194,0.089l-0.049,0.052l0.176,0.126l0.121,0.025l0.109,-0.073l0.13,-0.317l0.052,-0.011l0.074,0.059l0.149,0.013l-0.006,0.043h-0.091l-0.044,0.078l0.055,0.013l0.05,0.044l-0.072,0.058l-0.05,-0.026l-0.06,0.007l-0.06,0.154l0.025,0.046l0.093,-0.059l0.074,-0.003l-0.013,0.122l-0.081,0.037l-0.03,0.072l0.119,0.028l0.017,0.035l-0.172,0.096l0.031,0.098l0.109,0.049l0.133,-0.016l0.081,-0.045l0.079,0.047l-0.039,0.077l0.076,0.032l-0.002,0.068l-0.079,0.058l0.007,0.058l0.116,-0.037l0.007,-0.212l0.105,-0.085l-0.011,-0.075l0.026,-0.011l0.158,0.073l0.142,0.005l0.106,0.037l0.208,0.008l0.065,-0.035l0.074,0.007l0.07,0.069l0.123,-0.004l0.128,-0.126l0.154,-0.074l0.044,0.014l-0.122,0.075l-0.019,0.167l0.067,0.044l0.126,0.004l0.228,0.141l0.254,0.039l0.351,0.179l0.165,0.047l0.013,-0.084l-0.143,-0.118l0.035,-0.03l0.124,0.05l0.041,-0.043l-0.096,-0.196l0.009,-0.115l0.052,-0.021l0.284,0.486l0.183,0.321l0.011,0.082l-0.159,0.087l-0.004,0.043l0.071,0.02l0.081,0.187l0.08,0.015l0.078,0.089l-0.039,0.024l-0.004,0.052l0.126,0.106l0.106,0.25l0.028,0.011l0.026,-0.098l0.013,-0.193l0.031,-0.007l0.106,0.258l-0.005,0.061l-0.049,0.037l-0.007,0.137l-0.041,0.056l0.011,0.067l0.201,0.014v0.045l-0.054,0.072l0.011,0.074l0.237,0.058l-0.011,0.031l-0.081,0.01l-0.041,0.063l-0.011,0.287l0.059,0.069l0.004,0.055l-0.037,0.045l-0.004,0.05l0.165,0.15l0.08,-0.022l0.024,-0.1l0.07,-0.034l0.269,0.104l-0.072,0.136l-0.178,0.07l-0.002,0.048l0.152,0.063l0.363,0.036l0.114,0.137l0.313,0.017l0.31,0.126l0.156,0.024l0.018,-0.058l0.085,0.008l0.097,0.15l0.167,0.026l0.165,0.117l0.092,0.022l0.119,-0.106l0.028,-0.15l-0.058,-0.117l0.056,-0.115l0.017,-0.139l-0.106,-0.091l0.004,-0.107l0.157,-0.06l0.11,-0.154l-0.002,-0.241l-0.078,-0.1l0.004,-0.159l-0.082,-0.024l-0.159,-0.132l-0.019,-0.098l0.104,-0.061l-0.035,-0.054l0.05,-0.015l0.052,0.089l-0.119,0.08l0.121,0.105l0.12,-0.02l0.221,0.096l0.206,0.025l0.165,-0.084l0.078,-0.243l0.089,-0.094l0.05,0.003l-0.078,0.297l0.05,0.3l-0.171,0.212l0.006,0.133l0.373,0.16l0.002,0.057l-0.065,0.074l-0.015,0.095l0.126,0.119l-0.009,0.055l-0.136,0.008l-0.013,0.07l0.056,0.137l0.376,0.256l-0.016,0.056l-0.004,0.141l0.187,0.217l0.008,0.078l-0.119,0.189l0.006,0.135l0.183,0.097l0.158,0.222v0.078l-0.086,0.138l0.004,0.114l0.176,0.151l0.049,0.154l0.003,0.124l-0.085,0.028l-0.096,0.122l0.003,0.215l-0.076,0.047l-0.018,0.07l0.265,0.134l0.033,0.118l0.119,0.058l0.124,-0.032l0.245,0.052l0.147,-0.004l0.083,-0.068l0.056,-0.002l0.042,0.03l0.221,0.011l0.067,0.033l0.109,-0.002l0.477,-0.168l0.304,-0.006l0.078,-0.035l0.358,0.003l0.083,-0.072l0.082,-0.002l0.094,0.03l0.304,-0.006l0.089,-0.165l0.104,-0.031l0.08,-0.069l0.017,-0.115l0.046,-0.029l0.239,-0.054l0.039,-0.069l-0.165,-0.213l0.021,-0.052l0.076,-0.007l0.285,-0.329l0.158,-0.079l0.202,-0.008l0.404,0.076l0.256,0.004l0.121,-0.074l0.317,-0.017l0.148,-0.113l0.265,-0.032l0.154,-0.066l0.058,-0.134v-0.258l-0.174,-0.241l-0.06,-0.226l-0.13,-0.304l-0.155,-0.058l-0.05,-0.172l-0.226,-0.218l-0.1,-0.233l-0.168,-0.088l-0.072,0.074l-0.046,-0.007l0.014,-0.162l-0.352,-0.41l-0.412,-0.235l-0.214,-0.263l-0.1,-0.41l-0.16,-0.211l-0.168,-0.019l-0.177,-0.061l-0.272,-0.162l-0.182,-0.287l-0.053,-0.64l0.074,-0.309l0.061,-0.028l0.072,0.032l0.065,-0.023l0.163,-0.314l0.158,-0.13l0.005,-0.135l0.04,-0.026l0.09,0.107l0.284,-0.004l0.144,-0.042l0.436,0.03l0.291,-0.093l0.772,-0.475l0.333,-0.184l0.493,-0.305l0.198,-0.265l0.307,-0.191l0.098,-0.179l0.424,-0.121l0.242,-0.128l0.428,-0.356l0.028,-0.075l-0.056,-0.007l-0.268,0.245l-0.228,0.058l-0.307,-0.126l-0.179,-0.1l0.028,-0.037l0.2,0.035l0.13,-0.075l-0.014,-0.104l0.028,-0.049l0.079,0.07l0.14,-0.056l0.082,-0.193l0.013,-0.128l-0.111,-0.352l0.081,-0.277l0.314,-0.358l0.145,-0.007l0.118,-0.056l0.214,-0.007l0.117,-0.051l0.216,-0.009l0.126,-0.08l0.021,-0.135l-0.112,-0.162l-0.046,-0.187l-0.226,-0.235l-0.077,-0.1l0.107,0.028l0.27,0.24l0.037,0.146l0.07,0.154l0.137,0.007l0.191,-0.249l0.214,-0.191l0.459,-0.086l0.763,-0.037l0.784,0.065l0.217,0.056l0.13,0.016l0.147,-0.249l0.019,-0.181l0.041,0.007l0.021,0.209l-0.149,0.268l0.033,0.051l0.135,-0.021l0.25,0.115l0.712,0.276l0.269,0.171l0.108,0.346l0.192,0.244l0.112,0.01l0.178,-0.206l0.122,0.004l0.22,0.202l0.021,0.297l0.136,0.112l0.36,0.077l0.132,0.125l0.161,0.025l-0.035,0.157l0.059,0.098h0.168l0.129,0.132l0.402,0.206l0.038,0.217l0.112,0.188l-0.067,0.056l-0.069,-0.098l-0.105,-0.063l-0.042,0.067l0.265,0.387l-0.028,0.433l0.273,0.157l0.08,0.293l0.311,0.29l0.09,-0.007l0.004,-0.171l0.077,-0.115l0.017,-0.129l-0.136,-0.252l-0.007,-0.293l-0.077,-0.143l-0.021,-0.161l0.077,-0.041l0.101,0.157l0.014,0.422l0.081,0.168l0.251,-0.238l0.133,0.032l0.024,0.111l0.133,0.021l0.115,-0.356l0.084,-0.063l0.108,0.067l0.084,0.003l0.024,-0.094l-0.101,-0.073l-0.021,-0.14l0.091,-0.014l0.129,0.283l-0.077,0.115l0.077,0.147l-0.025,0.157l-0.181,0.01l-0.147,0.101l0.014,0.165l0.241,0.048l0.227,-0.188l-0.018,-0.21l0.171,-0.16l0.144,0.028l0.192,0.286l0.094,0.031l-0.018,-0.195l-0.146,-0.223l0.056,-0.137l-0.007,-0.08l-0.091,-0.031l-0.011,-0.105l0.07,-0.021l0.168,0.154l-0.112,0.178l0.164,0.209l0.133,0.325l0.084,0.377l0.213,0.272l0.027,0.241l0.185,0.14l0.276,0.014l0.43,0.167l0.317,0.304l0.053,0.195l-0.06,0.081l-0.035,-0.158l-0.268,-0.296l-0.409,-0.168l-0.101,0.004l0.07,0.09l0.213,0.098l0.097,0.08l-0.174,0.011l-0.213,-0.164l-0.255,-0.063l-0.206,-0.188l-0.063,-0.29l-0.171,-0.238l-0.174,-0.038l-0.171,-0.175l-0.028,-0.195l-0.115,-0.119l-0.074,0.021l-0.028,0.185l-0.15,0.269v0.241l-0.094,0.14l-0.206,0.055l-0.168,-0.076l-0.052,0.017l-0.021,0.112l-0.094,0.077l-0.126,-0.014l-0.042,0.045l0.091,0.199l0.279,0.22l0.025,0.15l-0.077,0.332l-0.335,0.296l-0.325,0.063l-0.303,-0.056l-0.021,-0.206l-0.067,-0.017l-0.15,0.174l-0.024,0.217l0.143,0.227l0.014,0.23l0.101,0.304l0.084,0.199l0.283,0.164l0.076,0.122l0.039,0.224l0.314,0.485l0.028,0.199l-0.098,0.132l0.011,0.112l0.296,0.175l0.056,0.108l0.182,0.08l0.073,0.091l-0.031,0.136l0.059,0.094l0.15,0.039l0.024,0.09l-0.076,0.21l0.056,0.049l0.122,0.028l0.143,0.167l0.066,0.196l0.286,0.195l0.035,0.108l0.077,0.042l0.087,-0.062l0.053,0.048l-0.049,0.126l0.056,0.052l0.094,0.007l0.063,0.049l-0.049,0.07v0.133l0.272,0.359l0.116,0.06l0.363,0.343l0.172,0.074z"/>
</svg>
