<svg xmlns="http://www.w3.org/2000/svg" viewBox="580.207 751.351 83.790 122.202">
  <path d="M661.969844,859.092436l0.046398,0.046398l-0.015466,0.030932l-0.034025,0.003093l-0.024746,-0.024746v-0.049491l0.027839,-0.006186Z M662.272978,859.370824l0.037118,0.012373l0.024746,-0.00928l-0.006186,-0.034025l-0.034025,-0.00928l-0.034025,0.018559l0.012373,0.021652Z M662.375054,859.553322l0.055678,0.00928l0.071144,-0.037118l0.00928,-0.040212l-0.055678,-0.027839l-0.08661,0.027839l-0.018559,0.034025l0.024746,0.034025Z M662.514248,859.683237l0.043305,0.00928l0.043305,-0.012373l0.003093,-0.052584l-0.034025,-0.034025l-0.034025,0.003093l-0.030932,0.043305l0.00928,0.043305Z M662.563739,859.847176l0.049491,-0.030932l0.018559,-0.049491l-0.021652,-0.00928l-0.07733,0.043305l-0.006186,0.037118l0.037118,0.00928Z M656.853691,855.198097l-0.006186,0.080423l0.043305,0.06805l0.092796,-0.030932l0.043305,-0.080423l-0.061864,-0.061864l-0.111355,0.024746Z M658.292029,854.480474l0.105169,0.108262l0.021652,-0.018559l-0.06805,-0.129914l-0.08661,-0.043305l-0.012373,0.021652l0.040212,0.061864Z M657.03619,855.946651l0.074237,0.105169l0.027839,-0.00928l-0.015466,-0.114448l-0.049491,-0.080423l-0.043305,0.006186l-0.012373,0.037118l0.018559,0.055678Z M657.009898,856.822027l-0.041758,0.115995l0.032479,0.018559l0.088156,-0.027839l0.023199,-0.041758l-0.055678,-0.074237l-0.046398,0.00928Z M656.96814,852.627647l0.00928,0.046398l0.046398,0.032479l0.032479,-0.018559l-0.018559,-0.051038l-0.041758,-0.023199l-0.027839,0.013919Z M657.464598,853.291139l0.060317,0.013919v-0.041758l-0.060317,-0.027839l-0.037118,0.013919l0.037118,0.041758Z M657.209409,852.79468l-0.00928,0.041758l0.046398,0.064957l0.069597,0.032479l0.013919,-0.041758l-0.078877,-0.088156l-0.041758,-0.00928Z M656.148442,856.73851l-0.021652,0.030932l0.003093,0.034025l0.030932,0.00928l0.027839,-0.034025l-0.00928,-0.037118l-0.030932,-0.003093Z M583.473706,793.238206l-0.074237,0.250549l0.032479,0.245909l0.060317,0.051038l0.074237,-0.023199l0.023199,-0.180952l-0.078877,-0.180952l0.00464,-0.153113l-0.041758,-0.00928Z M597.748824,810.668388l0.003093,0.07733l0.037118,0.027839l0.024746,-0.012373l-0.012373,-0.06805l-0.027839,-0.037118l-0.024746,0.012373Z M598.110729,811.141648l0.00928,0.055678l0.037118,0.040212h0.027839l0.006186,-0.049491l-0.046398,-0.055678l-0.034025,0.00928Z M607.251135,830.91029l-0.055678,0.024746l0.012373,0.111355l0.22271,0.173219l0.098982,0.012373l0.037118,-0.049491l-0.117542,-0.173219l-0.197965,-0.098982Z M612.441525,843.017075l0.105169,0.012373l0.061864,-0.055678l0.006186,-0.123728l-0.061864,-0.043305l-0.08661,0.018559l-0.055678,0.142287l0.030932,0.049491Z M614.124226,845.937056l0.148474,0.055678l0.043305,-0.043305l-0.08661,-0.136101l-0.160846,-0.061864l-0.049491,0.043305l0.105169,0.142287Z  M652.620647,873.553146l0.167,-0.172l0.264,-0.102l0.26,-0.004l0.473,0.093l0.316,-0.028l0.64,-0.344h0.455l0.139,-0.074l0.353,-0.352l0.287,-0.223l0.214,-0.251l0.436,-0.993l0.037,-0.278l-0.204,-0.241l-0.13,-0.297l-0.009,-0.724l-0.13,-0.111l-0.01,-0.307l0.167,-0.362l0.863,0.084l0.777,-0.591l0.526,-0.513v-0.854l-0.328,-0.328l-0.378,-0.235l-0.433,-0.043l-0.006,-0.068l0.142,-0.099l0.087,-0.273l0.068,-0.068l0.093,-0.018l0.062,-0.081l0.012,-0.099l0.081,-0.111l0.154,-0.037l0.526,-0.421h0.105l0.074,0.056l0.081,-0.006l0.291,-0.241v-0.161l-0.106,-0.13l-0.006,-0.081l0.124,-0.167l0.198,-0.043l0.254,-0.489l0.42,-0.408l0.229,-0.346l0.13,-0.106l0.019,-0.272l0.13,-0.185l0.185,-0.068l0.13,0.024l0.353,-0.136l0.247,-0.173l0.074,-0.025l-0.074,-0.09l-0.014,-0.204l-0.093,-0.139v-0.311l-0.306,-0.427v-0.162l0.274,-0.264l0.121,-0.237l0.014,-0.459l-0.318,-0.398l0.038,-0.08l0.426,0.08l0.161,-0.074l0.093,-0.21l-0.012,-0.124l0.043,-0.105l-0.056,-0.031l-0.105,-0.003l-0.145,0.102l-0.013,0.092l-0.037,0.007l-0.096,-0.09l-0.163,-0.059l-0.056,0.074l-0.146,0.078l-0.069,-0.002l0.001,0.079l0.044,0.081l-0.044,0.037l-0.185,-0.031l-0.532,0.136l-0.136,-0.006l-0.081,0.031l-0.099,0.123l-0.111,0.006l-0.105,-0.061l-0.031,-0.13l-0.167,-0.056l-0.18,0.012l-0.198,-0.086l-0.154,-0.229l0.068,-0.111l-0.087,-0.05l-0.241,0.006l-0.198,0.112l-0.223,0.012l-0.093,-0.08l0.025,-0.093l0.229,-0.161l0.031,-0.161l0.099,-0.099l0.136,-0.074l0.093,-0.297l-0.124,-0.241l-0.025,-0.149l-0.129,-0.08l-0.112,0.006l-0.136,-0.025l-0.297,-0.173l-0.359,-0.05l-0.482,0.007l-0.099,-0.056l-0.105,-0.167l-0.205,-0.105l-0.086,0.018l-0.155,-0.154l-0.055,-0.211l0.043,-0.142l-0.062,-0.142l-0.099,-0.062l-0.05,-0.118l-0.129,-0.006l-0.143,0.124l-0.031,0.309l0.087,0.099l0.21,0.05l0.118,0.13l0.049,0.111l-0.055,0.08l-0.112,0.007l-0.086,-0.069l-0.13,-0.006l-0.074,0.105l-0.081,-0.006l-0.223,-0.272l-0.445,-0.216l-0.229,0.018l-0.093,-0.049v-0.112l0.112,-0.062l0.012,-0.092l-0.093,-0.124l-0.099,-0.043l-0.068,-0.143l0.056,-0.241l-0.013,-0.124l0.081,-0.111h0.136l0.161,0.068l0.062,-0.037l0.018,-0.13l0.167,-0.297l0.105,-0.062l0.025,-0.198l-0.031,-0.173l0.05,-0.019l0.124,0.155l0.037,0.118l0.185,0.13l0.062,0.185l-0.043,0.111l0.185,0.229l0.322,0.174h0.13l0.056,-0.062l-0.204,-0.136l-0.149,-0.192l0.056,-0.031l0.111,0.068l0.056,-0.031v-0.111l-0.074,-0.025l-0.087,0.025l-0.099,-0.081l-0.099,-0.315l-0.452,-0.6l-0.147,-0.266l-0.018,-0.186l-0.037,-0.083l-0.061,-0.052l0.024,-0.176l0.167,-0.241h0.12l0.056,0.069l0.074,-0.013l0.139,-0.061l0.019,-0.074l-0.125,-0.139l0.051,-0.098l0.208,-0.088l0.14,0.033l0.144,0.12l0.051,-0.014l0.013,-0.134l0.107,-0.102l0.139,0.032l0.065,0.107l0.061,-0.009l0.018,-0.079l-0.088,-0.125l-0.097,-0.005l-0.079,-0.07l0.083,-0.162l0.181,-0.07l0.144,0.051l0.139,0.135l-0.004,0.065l0.032,0.065l0.102,0.051l0.037,0.079l-0.037,0.065l0.093,0.167v0.102l0.074,0.065l0.237,0.069l0.079,-0.069l0.06,0.009l0.097,0.111l0.13,0.005l0.033,0.037l-0.019,0.065l0.093,0.102l0.121,0.061l0.343,0.343v0.176l0.074,0.079l0.07,0.009l0.028,-0.037l-0.074,-0.069l0.018,-0.075l0.269,-0.046l0.144,0.084l0.019,0.083l-0.042,0.042l-0.079,-0.028l-0.051,0.06l0.051,0.093l0.162,0.084l0.126,0.013l0.143,-0.176l-0.018,-0.278l0.121,-0.167l0.078,-0.005l0.186,0.158l0.093,-0.037l0.032,-0.126l-0.093,-0.176l-0.013,-0.329l0.232,-0.371l0.129,-0.024l0.079,-0.065l0.051,-0.241l0.061,-0.079l0.287,-0.014l0.056,-0.046l-0.107,-0.246l-0.649,-0.645l-0.177,-0.042l-0.181,-0.19l-0.236,-0.533l-0.214,-0.26l-0.032,-0.204l0.07,-0.061l0.051,-0.292l-0.075,-0.172l0.014,-0.334l0.325,-0.26h0.278l0.195,-0.13l0.005,-0.153l-0.098,-0.092l-0.018,-0.228l0.121,-0.144l0.032,-0.38l0.084,-0.098l0.389,-0.023l0.112,-0.102l-0.037,-0.311l0.018,-0.069l0.274,-0.167l0.111,-0.223l0.237,-0.139l0.139,-0.056l0.237,-0.269l0.004,-0.079l-0.139,-0.334l0.042,-0.195l0.12,-0.06l0.047,-0.111l-0.033,-0.065l0.014,-0.112l0.116,-0.088l0.914,-0.028v-0.074l-0.134,-0.065l-0.061,-0.186l0.052,-0.088l0.004,-0.083l-0.181,-0.269l-0.037,-0.279l-0.232,-0.209l-0.107,-0.004l-0.264,-0.279l-0.023,-0.097l0.046,-0.107l-0.009,-0.065l-0.056,-0.028l-0.032,-0.18l0.046,-0.181l0.093,-0.038l0.102,-0.102l-0.005,-0.12l0.056,-0.088l0.088,-0.056l0.019,-0.079l-0.209,-0.13l-0.162,0.005l-0.038,-0.061l0.038,-0.041l0.004,-0.14l-0.158,-0.116l-0.162,-0.027l-0.26,-0.367l0.056,-0.223l0.13,-0.041l0.079,0.074l0.153,0.005l0.065,-0.047l-0.051,-0.116l0.014,-0.079l0.139,-0.069l0.083,-0.005l0.07,-0.046l0.046,-0.283l0.075,-0.223l0.088,-0.042l0.055,-0.06l0.024,-0.163l0.069,-0.116l0.093,-0.575l0.084,-0.116l0.013,-0.116l-0.013,-0.116l0.12,-0.431l0.019,-0.181l-0.098,-0.576l0.014,-0.436l0.065,-0.236l-0.005,-0.168l-0.078,-0.097l-0.033,-0.325l0.042,-0.538l0.121,-0.074l0.055,-0.07v-0.139l0.065,-0.144l0.093,-0.042l0.051,-0.069l0.014,-0.167l0.162,-0.181l0.13,-0.023l0.195,-0.191l0.102,-0.227l-0.097,-0.107l-0.056,-0.176l0.065,-0.153l0.102,-0.028l0.209,-0.297l0.023,-0.158l0.042,-0.055l0.093,-0.005l0.092,-0.148l-2.324,-4.342l-3.792,-6.168l-0.174,-0.006l-0.123,0.068l-0.347,0.022l-0.204,0.093l-0.25,-0.019l-0.075,-0.158l-0.204,-0.102l-0.482,-0.009l-0.242,-0.056l-0.352,0.019l-0.139,0.148l-0.585,0.297l-0.158,-0.018l-0.176,0.074l-0.074,0.102l-0.437,0.26l-0.491,-0.009l-0.195,0.102h-0.409l-0.603,-0.204l-0.074,-0.251l-0.427,-0.418h-0.093l-0.607,0.437v-7.902l0.088,-0.158l0.083,-0.004l0.056,-0.042l0.014,-0.088l0.065,-0.023l0.088,0.046l0.056,-0.009l0.125,-0.167l0.042,-0.307l-0.149,-0.301l-0.106,-0.028l-0.186,-0.32l0.005,-0.098l0.055,-0.046l0.014,-0.116l-0.088,-0.079l-0.009,-0.102l0.06,-0.018l0.162,0.134l0.051,-0.032l-0.078,-0.195l0.032,-0.037l0.107,0.041l0.042,-0.037l-0.014,-0.111l0.125,-0.111l0.088,0.013l0.051,-0.046l-0.111,-0.204l0.162,-0.139l0.014,-0.102l-0.046,-0.019l-0.153,0.065h-0.075l-0.065,-0.032l-0.311,0.116l-0.324,0.306l-0.093,0.153l-0.455,0.297l-0.12,0.004l-0.089,0.061l-0.023,0.185l-0.19,0.153l-0.037,0.112l-0.088,0.042l-0.112,-0.01l-0.306,0.158l-0.278,0.445l-0.116,0.075l-0.144,0.014l-0.111,0.083l-0.154,0.246l-0.004,0.116l-0.051,0.046h-0.358l-0.357,0.232l-0.158,0.014l-0.176,0.144l-0.209,0.371l-0.088,0.084l-0.055,0.074l0.009,0.074l-0.107,0.024l-0.051,-0.042l-0.121,0.014l-0.041,0.079l-0.269,0.092l-0.13,-0.023l-0.116,-0.102l-0.079,-0.005l-0.19,0.191h-5.308l0.009,-0.084l0.158,-0.107l-0.014,-0.157l-0.079,-0.047l-0.009,-0.079l0.199,-0.283l0.009,-0.074l-0.079,-0.051l-0.027,-0.176l-0.051,-0.051v-0.079l0.046,-0.06v-0.102l-0.167,-0.116l-0.181,-0.038l-0.209,-0.134l-0.139,-0.033l-0.009,-0.06l0.037,-0.097l0.042,-0.436l-0.07,-0.098l0.033,-0.167l-0.061,-0.046l-0.097,-0.01l-0.112,-0.125l0.01,-0.121l-0.01,-0.232l-0.092,-0.046l-0.098,0.056l-0.088,-0.019l-0.084,-0.209l-0.134,-0.102l-0.172,-0.014l-0.106,-0.074l-0.279,-0.014l-0.111,0.037l-0.232,-0.027l-0.112,0.051l-0.111,-0.024l-0.093,-0.12l-0.598,-0.158l-0.079,0.042l-0.093,-0.005l-0.046,-0.06l-0.181,-0.019l-0.121,-0.093l-0.023,-0.074h-3.164v-0.051l0.088,-0.046l0.018,-0.209l0.07,-0.065l0.074,0.014l0.102,-0.037l0.014,-0.074l0.084,-0.089v-0.065l0.079,-0.027l0.092,0.009l0.047,-0.093l-0.075,-0.139l0.038,-0.056l0.078,-0.014l0.126,-0.25l0.102,-0.047l0.083,0.047l0.098,0.004l0.171,-0.116l0.019,-0.111l-0.135,-0.13l0.005,-0.06l0.093,-0.061l0.13,-0.018l0.176,-0.107l0.116,-0.19l0.037,-0.306l-0.042,-0.293l-0.069,-0.055l0.005,-0.07l0.074,-0.093l-0.01,-0.069l-0.153,-0.056l-0.19,-0.366l-0.111,-0.047l-0.135,0.023l-0.153,-0.097l-0.051,-0.255l-0.093,-0.139l-0.102,-0.028l-0.093,-0.149l0.014,-0.093l-0.041,-0.111l-0.103,-0.088l-0.046,-0.121l0.009,-0.088l-0.195,-0.297l-0.116,-0.055l-0.329,0.004l-0.125,-0.037l-0.283,-0.223l-0.121,-0.218l-0.069,-0.037l-0.084,0.033l-0.042,-0.047l0.042,-0.199l0.019,-0.283l0.041,-0.088v-0.325l-0.055,-0.033l-0.098,0.023l-0.246,-0.069l-0.074,-0.181l-0.079,-0.037l-0.074,0.018l-0.19,-0.102l-0.061,-0.144l-0.13,-0.092l-0.208,-0.084l-0.144,-0.144l-0.005,-0.055l0.074,-0.107l0.01,-0.065l-0.056,-0.074l-0.005,-0.088l0.047,-0.121l-0.074,-0.107l-0.297,-0.097l-0.005,-0.061l0.084,-0.074l-0.005,-0.102l-0.107,-0.065l-0.028,-0.209l0.051,-0.185l-0.009,-0.158l-0.13,-0.116l-0.12,-0.292l0.041,-0.07v-0.074l-0.125,-0.13l-0.125,0.009l-0.135,-0.083l-0.004,-0.107l-0.181,-0.148l-0.121,-0.005l-0.088,-0.056l-0.037,-0.125l-0.158,-0.116l-0.023,-0.084l0.074,-0.051l0.028,-0.065l-0.051,-0.129l0.046,-0.033l0.139,0.084l0.279,-0.019l0.102,-0.116l0.009,-0.441l-0.051,-0.13l-0.102,-0.014l-0.093,-0.065l-0.046,-0.106l-0.478,-0.158l-0.149,-0.005l-0.106,-0.143l-0.028,-0.149l-0.051,-0.032l-0.093,0.051l-0.237,-0.209l-0.032,-0.074l0.06,-0.172l-0.037,-0.065l-0.547,-0.278v-0.14l0.134,-0.027l0.093,0.009l0.06,-0.014l0.13,-0.218l-0.042,-0.093l0.014,-0.046l0.061,-0.019l0.014,-0.051l-0.093,-0.297l-0.204,-0.32l-0.005,-0.102l0.065,-0.005l0.046,0.102l0.051,0.005l0.033,-0.065h0.056l0.078,0.097l0.219,0.065l0.064,-0.009l0.056,-0.209l0.2,-0.097l0.139,0.028l0.246,-0.047l0.069,0.023l0.014,0.07l0.056,0.014l0.283,-0.255l0.005,-0.153l-0.112,-0.093l-0.023,-0.07l0.056,-0.134l-0.037,-0.121l-0.163,-0.069l-0.097,-0.121l-0.037,-0.186l-0.2,-0.301l0.033,-0.246l0.167,-0.186l0.014,-0.097l-0.042,-0.065l0.051,-0.376l0.074,-0.088l0.005,-0.056l-0.074,-0.074l0.027,-0.209l0.2,-0.209l0.074,-0.213l0.084,-0.093l0.12,-0.051l0.381,-0.515l0.297,-0.204l0.157,-0.019l0.116,-0.083l0.079,-0.163l0.232,-0.116l0.274,-0.023l0.515,-0.199l0.046,-0.153l0.214,-0.121h0.288l0.519,-0.158l0.088,0.028l0.056,-0.037v-0.079l0.084,-0.074l0.018,-0.116l0.065,-0.047l0.116,0.033l0.107,-0.107v-0.111l0.065,-0.144l0.088,-0.028l0.037,-0.093l-0.042,-0.106l0.019,-0.084l0.051,-0.083l-0.056,-0.121l-0.102,-0.042l-0.19,-0.598l-0.07,-0.204l-0.278,-0.27l-0.028,-0.245l-0.195,-0.228l-0.004,-0.269l0.055,-0.079l0.033,-0.366l0.139,-0.209l0.153,-0.051l0.07,-0.209l-0.038,-0.223l0.2,-0.445l0.19,-0.014l0.065,-0.07l0.028,-0.157l0.209,-0.2l0.116,-0.018l0.083,-0.121l0.019,-0.121l0.134,-0.176l0.144,-0.084l0.121,-0.273l-0.023,-0.079l0.014,-0.06l0.13,-0.061l0.018,-0.158l-0.056,-0.078l0.01,-0.093l0.079,-0.112l0.065,-0.255l-0.065,-0.195l0.023,-0.352l0.134,-0.339l0.158,-0.292l0.084,-0.121l-0.01,-0.097l0.014,-0.075l0.098,-0.06l0.13,-0.274l-0.038,-0.069l0.024,-0.232l-0.056,-0.311l-0.074,-0.037l-0.023,-0.074l0.222,-0.154l0.177,0.014l0.069,-0.041l-0.023,-0.149l0.051,-0.051l0.153,0.009l0.218,-0.157l0.102,0.004l0.042,-0.051v-0.088l0.13,-0.074l0.153,0.028l0.357,-0.024l0.149,-0.106l0.051,-0.283l0.056,-0.056l0.129,0.033l0.084,-0.065l0.046,-0.121l0.07,-0.042l0.102,0.033l0.046,-0.024l0.005,-0.097l0.07,-0.037l0.199,0.046l0.176,-0.148l-0.064,-0.153l0.055,-0.047l0.135,0.116l0.06,-0.018l0.046,-0.112l0.219,-0.139l0.111,-0.352l0.158,-0.102l0.116,0.013l0.06,-0.018l0.014,-0.116l0.204,-0.019l0.07,0.093l0.074,-0.005l0.028,-0.111l0.051,-0.037l0.074,0.074l0.13,-0.055l0.009,-0.084l0.065,-0.032l0.098,0.032l0.055,-0.028l0.023,-0.079l0.273,-0.178h0.074l-0.025,0.124l0.043,0.031l0.086,-0.19l0.139,-0.153l0.157,-0.088l0.056,-0.089l0.119,-0.086l0.006,-0.118l0.05,-0.031l0.161,0.056l0.13,-0.037l0.006,-0.093l0.031,-0.043l0.185,0.018l0.087,-0.074l-0.006,-0.086l0.124,-0.143l-0.019,-0.093l0.074,-0.099l0.173,0.031l0.019,-0.049l-0.105,-0.062l0.043,-0.049l0.285,0.043l0.198,-0.155l0.303,-0.055l0.099,0.092l0.055,-0.024l-0.012,-0.161l0.056,-0.013l0.21,0.205h0.322l0.031,-0.155l0.055,-0.019l0.025,0.161l0.074,-0.012l0.093,-0.149h0.056l-0.062,0.26l0.136,0.068l0.161,-0.031l0.173,-0.253l0.186,-0.099l0.161,0.099l0.055,-0.038l-0.105,-0.185l0.056,-0.043l0.123,0.012l0.174,-0.068l0.173,0.056l-0.056,0.191l0.074,0.019l0.259,-0.309l0.227,-0.024l0.047,0.13l0.208,0.075l0.028,-0.042l-0.065,-0.144l0.061,-0.037l0.18,0.125l0.112,-0.065l-0.019,-0.172l-0.106,-0.064l0.023,-0.056l0.25,0.018l0.061,0.075l0.069,0.004l0.051,-0.111l0.084,0.014l0.004,0.209h0.084l0.037,-0.135l0.26,-0.06l0.139,0.06l0.065,-0.005l0.009,-0.083l0.084,-0.065l0.088,0.023l-0.009,0.084l0.06,0.028l0.116,-0.121l0.051,-0.009l0.07,0.116l0.259,-0.051l0.065,-0.116l-0.041,-0.116l0.046,-0.033l0.181,0.204l0.162,0.005l0.038,-0.093l0.116,-0.046l0.116,-0.209l0.078,-0.009l0.056,-0.056l0.014,-0.13l0.162,-0.088l0.028,-0.06l-0.079,-0.089l0.01,-0.06l0.227,-0.102l-0.028,-0.079h-0.107l-0.009,-0.046l0.464,-0.32l0.107,-0.014l0.185,0.12l0.205,0.042l0.074,0.074l0.074,-0.009l0.056,-0.315l0.097,-0.019l0.023,-0.13l0.153,-0.014l0.052,0.051l-0.107,0.19l0.004,0.144l0.116,0.042l0.251,-0.102l0.056,0.028l-0.033,0.185l0.056,0.014l0.102,-0.241l-0.019,-0.2l0.056,-0.046l0.162,0.028l0.059,0.101l-0.026,0.145l0.018,0.116h0.084l0.042,-0.181l0.079,-0.023l0.143,0.046l0.135,-0.083l-0.023,-0.126l0.065,-0.046l0.366,0.06l0.209,0.232l0.07,-0.037l0.009,-0.158l0.07,-0.018l0.176,0.13l0.074,0.348l-0.023,0.12l-0.139,0.051l-0.033,0.098l0.116,0.079v0.083l0.056,0.033l0.172,-0.112l0.069,0.033l-0.018,0.097l-0.107,0.019l-0.037,0.06l0.093,0.07l0.19,0.018l0.056,-0.093l0.055,-0.004l0.093,0.371l0.088,-0.009l0.07,-0.112l0.111,-0.027l0.033,-0.075l-0.116,-0.093l0.032,-0.162l0.084,-0.046l0.143,0.051l0.079,-0.019l0.019,-0.116l0.065,-0.014l0.093,0.181l0.329,0.014l-0.009,0.084l-0.204,0.018l-0.038,0.074l0.195,0.103l0.024,0.236l0.078,0.023l0.103,-0.19h0.083l0.033,0.06h0.074l0.222,-0.255l0.042,-0.181l-0.046,-0.42l-0.536,-0.537l-0.185,-0.351l-0.518,-0.37l-0.278,-0.666l-0.426,-0.148l-0.222,-0.537l-0.444,-0.148l-0.444,0.166l-0.296,0.278l-0.499,0.074l-0.149,-0.352l-0.184,-0.092l-0.186,0.129h-0.24l-0.185,-0.203l-0.222,-0.037l4.182,-6.643l0.092,-0.241l-0.037,-0.647l-0.222,-0.019l-0.129,0.315l-0.204,-0.074l-0.018,-0.278l-0.13,-0.092l-0.111,0.166l-0.222,-0.111l-0.056,-0.462l-0.185,-0.111l-0.277,0.166l-0.259,-0.018l-0.056,-0.204l0.296,-0.074l0.056,-0.166l-0.296,-0.111l-0.37,0.166l-0.278,0.019l-0.055,-0.296l-0.148,-0.111l-0.148,0.074l-0.185,-0.037l-0.056,-0.241l-0.277,-0.111l-0.112,0.13l0.241,0.185l-0.148,0.148l-0.364,-0.068l-0.079,-0.138l0.128,-0.208l0.013,-0.16l-0.282,0.122l-0.064,-0.11l0.074,-0.185l-0.037,-0.148l-0.407,-0.061l-0.111,-0.087l-0.061,-0.172l-0.124,-0.05l-0.21,0.013l-0.197,-0.025l-0.099,-0.42l-0.234,-0.074l-0.16,0.198l-0.247,-0.037l-0.086,-0.173l-0.235,-0.024l-0.123,0.123l0.173,0.345l-0.037,0.148l-0.383,-0.234l-0.456,0.136l-0.272,0.493l-0.148,0.099l-0.16,-0.185l-0.136,-0.074l-0.246,0.296l-0.074,-0.025l0.024,-0.234l-0.111,-0.05l-0.148,0.259l-0.197,0.05l-0.272,0.197l-0.123,-0.111l0.099,-0.345l-0.346,-0.444l-0.222,-0.05l-0.074,0.173l0.099,0.321l-0.136,0.024l-0.148,-0.246l0.037,-0.296l-0.086,-0.112l-0.407,-0.098l-0.272,-0.185l-0.209,-0.025l-0.284,0.173l-0.173,-0.099l0.111,-0.419l-0.135,-0.025l-0.198,0.185l-0.493,0.21l-0.173,0.592l-0.123,0.111l-0.235,-0.049l-0.098,0.111l0.148,0.283l-0.087,0.087l-0.145,-0.145l-0.148,0.092l-0.203,-0.027l-0.194,-0.179l-0.222,0.049l-0.395,0.444l-0.148,0.395l-0.136,0.049l0.062,-0.247l-0.111,-0.098l-0.142,0.095l-0.148,0.01l-0.111,-0.102l-0.139,0.009l-0.028,0.148l-0.166,0.093l-0.426,0.129l-0.123,-0.049l-0.154,-0.302l-0.278,-0.019l-0.796,-0.203l-0.259,-0.222l-0.24,-0.019l-0.062,0.148l-0.148,0.308l-0.16,0.037l-0.025,-0.209l-0.123,-0.148l-0.111,0.024l-0.037,0.21l-0.124,0.025l-0.049,-0.222l-0.197,0.037l-0.334,0.283l-0.32,-0.037l-0.161,0.148l-0.123,-0.037l0.025,-0.185l-0.136,-0.111l-0.012,-0.444l-0.124,-0.049l-0.135,0.136l-0.148,-0.013l-0.025,-0.209h-0.136l-0.012,0.197l-0.136,0.049l-0.345,-0.209l-0.05,-0.272l-0.172,-0.111l-0.161,-0.382l0.087,-0.136l0.185,-0.025l0.098,-0.32l0.272,-0.198l0.012,-0.123h-0.197l-0.062,-0.086l0.099,-0.161l-0.025,-0.148l-0.136,-0.074l-0.074,-0.185l0.149,-0.259l-0.05,-0.21l0.074,-0.148l-0.024,-0.123l-0.186,0.012l-0.123,-0.172l0.086,-0.173l-0.012,-0.136l-0.234,-0.024l-0.21,-0.309l-0.111,0.013l-0.012,0.246l-0.099,0.074l-0.123,-0.185l-0.259,0.037v0.284l-0.099,0.012l-0.123,-0.172l-0.321,-0.173l-0.136,0.111l-0.136,-0.012l-0.172,-0.321l-0.346,-0.099l-0.209,-0.173l0.135,-0.37l0.222,-0.234l0.198,-0.185l-0.025,-0.062l-0.123,0.074l-0.099,-0.061l0.062,-0.173l-0.062,-0.309l-0.271,-0.394l-0.235,-0.025l-0.074,-0.086l0.198,-0.111l-0.185,-0.383l0.098,-0.098l-0.037,-0.087l-0.222,0.05l-0.111,-0.099l0.012,-0.222l-0.333,-0.21l-0.246,0.062l-0.173,-0.074l-0.099,-0.259l-0.061,0.012l-0.013,0.284l-0.111,0.074l-0.481,-0.148l-0.185,-0.185l-0.16,-0.506l-0.124,-0.062l-0.172,0.062l-0.111,-0.062l0.049,-0.111l-0.037,-0.086l-0.247,0.062l-0.179,-0.244l0.074,-0.259v-0.148l-0.129,0.028l-0.037,0.194l-0.204,0.102l-0.623,-0.265l-0.333,-0.025l-0.274,-0.117l-0.12,-0.121l0.074,-0.138l-0.13,-0.333l-0.213,-0.093l0.047,-0.12l0.259,0.018l0.046,-0.259l-0.324,-0.444l-0.194,-0.037l-0.213,-0.157l0.009,-0.111l0.176,-0.083l0.028,-0.176l-0.145,-0.062l-0.062,-0.111l0.062,-0.234l-0.173,-0.284l0.037,-0.123l-0.062,-0.074l-0.148,0.049l-0.061,-0.074l-0.013,-0.234l-0.74,-0.334l-0.037,-0.268l-0.481,-0.361l-0.213,0.056l-0.166,-0.009l-0.009,-0.158l-0.074,-0.055l-0.167,0.083l-0.12,-0.055l-0.139,-0.639l-0.213,-0.324h-0.24l-0.158,0.278l-0.231,0.028l-0.287,-0.139l-0.333,-0.407l-0.675,-0.472l-0.611,-0.287l-0.259,0.037l-0.296,0.463l-0.009,0.086l-0.329,0.203l-0.262,0.004l-0.037,-0.078h-0.061l-0.051,0.106l-0.22,0.033l-0.131,-0.093l-0.201,-0.019l-0.322,-0.218l-0.205,-0.023l-0.103,0.098h-0.094l-0.196,-0.112l-0.093,-0.004v0.51h0.116l0.089,-0.07l0.066,0.042l0.205,-0.06l0.346,0.403l0.107,0.437l0.276,0.464l0.224,0.245l0.047,0.158l0.252,0.149l0.122,-0.023l0.098,0.055l0.009,0.163l0.122,0.097l0.079,-0.028l0.093,0.056l-0.028,0.102l0.056,0.042l0.103,-0.061l0.066,0.047l-0.01,0.102l0.075,0.125l-0.042,0.251l0.051,0.185l-0.046,0.112l-0.229,0.102l-0.01,0.102l0.117,0.116l-0.009,0.065l-0.112,0.074l0.004,0.227l0.099,0.075v0.088l-0.075,0.032l0.004,0.088l0.169,0.065l0.009,0.088l-0.065,0.14l0.032,0.116l0.145,0.083l0.009,0.265l-0.07,0.171l0.061,0.112l0.22,0.125l-0.052,0.093h-0.28l-0.117,-0.056h-0.112l-0.107,0.107l-0.117,-0.01l-0.145,-0.083l-0.079,-0.149l-0.197,-0.171l-0.102,0.004l0.001,0.18l-1.124,3.981l0.022,0.052l-0.019,0.047l-0.059,-0.003l-0.069,-0.105h-0.043l-3.021,3.773l-3.925,3.09l-8.026,2.688l-0.056,0.099l-0.668,0.401l-0.335,0.472l-0.118,0.241l-0.299,0.254l-0.15,-0.05l-0.043,0.031l0.025,0.136l-0.063,0.149l-0.261,0.402l-0.299,0.216l-0.062,0.13l0.087,0.179l0.162,0.081l0.081,0.291l-0.056,0.148l-0.393,0.18l-0.118,-0.106l-0.05,-0.513l-0.093,-0.081l-0.362,-0.03l-0.224,-0.087l-0.1,0.08l0.1,0.18l-0.012,0.142l-0.088,0.105l-0.056,0.427l-0.149,0.186l-0.081,0.34l0.043,0.198l-0.037,0.315l-0.143,0.013l-0.044,0.074l0.1,0.198l0.006,0.285l-0.124,0.266l-0.206,0.111l-0.125,0.297l0.019,0.204l-0.093,0.179l-0.231,0.05l-0.255,0.328l-0.044,0.303l0.181,0.192l-0.019,0.13l-0.249,0.328l0.05,0.179l-0.031,0.247l-0.175,0.099l-0.031,0.13l0.044,0.112l-0.075,0.253l-0.162,0.149l-0.062,0.445l0.112,0.229l0.212,0.012l0.018,0.068l-0.162,0.106l-0.118,0.383l-0.156,0.223l0.038,0.192l-0.031,0.179l-0.293,0.241l-0.411,0.106l-0.262,0.012l-0.268,0.117l-0.106,0.211l-0.168,0.161l0.025,0.16l-0.037,0.18l-0.15,0.062l-0.006,0.086l0.118,0.099v0.087l-0.106,0.173l-0.018,0.105l0.155,0.112v0.154l-0.074,0.031l-0.1,-0.074l-0.311,0.025l-0.081,0.068l-0.245,0.696l-0.149,-0.014l-0.127,-0.139l-0.098,-0.01l-0.032,-0.111l-0.084,-0.005l-0.075,0.047l-0.136,-0.009l-0.252,-0.098l-0.733,0.028l-0.145,-0.149l-0.145,-0.273l-0.276,-0.153l-0.051,-0.223l-0.07,-0.079l-0.122,-0.009l-0.084,-0.079l-0.196,-0.524l-0.145,-0.209l-0.075,-0.395l-0.163,-0.157l-0.033,-0.288l0.103,-0.097l-0.065,-0.26l-0.075,-0.07h-0.089l-0.075,0.047l-0.121,-0.005l-0.182,-0.084l-0.215,-0.375l-0.224,-0.126l-0.159,0.01l-0.313,0.213l-0.131,0.005l-0.374,0.157l-0.201,-0.018l-0.271,-0.237l-0.004,-0.12l-0.103,-0.135l-0.271,-0.195h-0.08l-0.06,0.047l-0.164,-0.005l-0.112,-0.079l-0.121,-0.005l-0.365,-0.273l-0.103,-0.172l-0.2,-0.098l-0.262,-0.018l-0.028,-0.074h-0.047l-0.084,0.116h-0.061l-0.028,-0.075l-0.056,0.005l-0.084,0.255l-0.444,0.492l-0.14,0.009l-0.093,0.061l-0.108,0.227l-0.359,0.19l-0.243,0.005l-0.332,-0.241l-0.023,-0.409l0.163,-0.292l0.15,-0.167l0.243,-0.167l0.028,-0.097l0.355,-0.437l-0.038,-0.027l-0.201,0.106h-0.084l-0.046,-0.106l-0.113,-0.005l-0.135,0.111l-0.079,-0.004l-0.01,-0.093l-0.107,-0.037l-0.126,0.06v-0.51l-0.084,-0.028l-0.136,-0.214l0.042,-0.246l0.313,-0.426l0.458,-0.024l0.234,0.14l0.191,0.046l0.224,-0.07l0.15,-0.232l-0.01,-0.088l0.061,-0.046l0.145,0.037l0.556,-0.353l-0.005,-0.065l-0.168,-0.134l-0.051,-0.436l-0.112,-0.088l-0.103,-0.205l0.061,-0.171l-0.085,-0.306l0.075,-0.135l-0.061,-0.302l0.047,-0.111l-0.023,-0.065l-0.131,-0.023l-0.037,-0.102l0.06,-0.135l-0.07,-0.343l-0.135,-0.093l-0.019,-0.172l0.122,-0.134l-0.041,-0.075l-0.12,-0.093l-0.2,-0.033l-0.111,-0.088l-0.07,0.01l-0.144,0.255l-0.283,0.311l-0.25,0.116l-0.047,-0.019l0.042,-0.065l-0.06,-0.023l-0.116,0.056l-0.167,0.004l-0.135,-0.014l-0.125,0.061l-0.2,0.408l-0.255,0.357l-0.065,0.042h-0.083l-0.102,0.056l-0.075,0.106l-0.097,0.042l-0.158,0.005l-0.213,0.102l-0.2,0.185l-0.199,0.042l-0.246,0.251l-0.241,0.575l-0.01,0.139l-0.181,0.2l-0.144,0.06l-0.431,0.316l-0.125,0.055l-0.209,0.274l-0.065,0.195l-0.311,0.431l-0.246,0.167l-0.125,0.13l-0.084,0.149l-0.301,0.301l-0.348,0.232l-0.135,0.047l-0.093,0.116l-0.046,0.283l0.06,0.227l-0.018,0.343l-0.153,0.316l-0.102,0.083l-0.065,0.172l0.079,0.279l0.065,0.069l0.027,0.209l-0.102,0.167l-0.097,0.376l-0.125,0.13l-0.01,0.079l0.77,0.89l0.553,0.706l0.218,0.19l0.153,0.269l0.065,0.237l-0.037,0.162l-0.107,0.153l-0.093,0.047l-0.102,-0.005l-0.102,-0.084l-0.2,0.005l-0.069,0.06l-0.005,0.084l0.051,0.088l-0.009,0.084l-0.088,0.083v0.079l0.06,0.074l-0.023,0.139l-0.121,0.121l-0.004,0.116l0.162,0.19l0.204,0.167l0.088,0.158l0.14,0.116l0.162,0.042l0.306,0.222l0.566,0.594l0.297,0.469l0.241,0.594l0.061,0.329l-0.047,0.543l-0.032,0.172l0.018,0.255l0.181,0.399l-0.023,0.014l-0.097,-0.111l-0.116,-0.26l-0.023,-0.153h-0.042l-0.102,0.222l-0.214,0.163l-0.259,0.051l-0.279,-0.065l-0.181,-0.116l-0.139,-0.2l-0.111,-0.028l-0.065,0.047l-0.042,0.213l-0.084,0.084l-0.125,0.083l-0.153,0.279l-0.019,0.241l0.042,0.492l0.195,0.399l0.306,0.246l0.436,0.236l0.543,0.33l0.501,0.343l0.288,0.297l0.292,0.214l0.497,0.176l1.15,0.543l0.936,0.509l0.891,0.445l0.792,0.483l0.557,0.402l0.507,0.476l0.179,0.309l0.013,0.235l0.099,0.211l0.29,0.204l0.075,0.08l-0.006,0.075l0.043,0.074l0.198,0.154l0.618,0.563l0.341,0.452l0.018,0.142l-0.043,0.105l0.006,0.087l0.322,0.322l0.266,0.383l0.074,0.248l-0.018,0.105l0.006,0.111l0.08,0.075l0.012,0.148l-0.08,0.105l-0.006,0.136l0.08,0.242l0.291,0.464l0.248,0.278l0.284,0.414l0.111,0.279l-0.006,0.08l-0.148,0.093l-0.006,0.074l0.253,0.303l0.211,0.186l0.055,0.118l0.006,0.173l0.154,0.219l0.269,0.246l0.106,0.158l0.353,0.283l0.728,0.51l0.093,0.116l0.01,0.112l0.083,0.13l0.473,0.38l0.297,0.311l0.023,0.07l-0.013,0.055l0.023,0.079l0.102,0.088l0.134,0.325l0.311,0.455l0.019,0.12l-0.061,0.205l-0.064,0.06l-0.07,-0.014l-0.019,0.032l0.07,0.149l0.283,0.209l0.213,0.134l0.39,0.367l0.204,0.348l0.07,0.306l-0.005,0.255l0.033,0.112l-0.028,0.148l-0.135,0.149l-0.004,0.092l0.352,0.525l0.339,0.468l0.084,0.288v0.06l-0.089,0.079l0.005,0.07l0.181,0.106l-0.005,0.07l-0.074,0.097l0.009,0.167l0.07,0.089l0.06,0.009l0.037,-0.037l0.116,0.028l0.191,0.19l0.051,0.255l-0.051,0.135l-0.065,0.018l-0.13,-0.037l-0.061,0.028l0.024,0.158l0.12,0.083l0.139,0.204l0.042,-0.014l-0.014,-0.208l-0.055,-0.056l0.027,-0.065l0.135,-0.046l0.213,0.046l0.154,0.148l-0.024,0.237l-0.078,0.098l-0.093,0.041l-0.033,0.084l0.139,0.125l0.038,0.125l0.078,0.075l0.135,0.009l0.264,0.158l0.042,0.092l-0.014,0.047l-0.065,0.032l-0.018,0.26l0.134,0.121l0.116,0.032l0.019,0.102l-0.056,0.13l0.084,0.446l0.102,0.139l0.018,0.139l-0.027,0.102l0.055,0.204l0.177,0.139l0.269,0.406l-0.007,0.105l0.137,0.21l0.142,0.062l0.148,0.173l0.025,0.143l-0.099,0.34l0.012,0.086l0.075,0.087l0.024,0.21l-0.049,0.174l0.043,0.092l0.093,0.037l0.105,0.223l-0.012,0.099l0.037,0.087l0.117,0.142l0.019,0.278l-0.08,0.093v0.062l0.074,0.037l0.08,0.198l0.266,0.211l0.204,0.327l0.025,0.143l-0.037,0.105l0.031,0.099l0.161,0.099l0.043,0.111l0.006,0.161l0.081,0.149l0.13,0.043l0.08,0.099l-0.018,0.167l0.049,0.105l0.149,0.124l0.105,0.191l0.006,0.093l0.062,0.105l0.086,0.056l0.242,0.309l0.024,0.161l0.316,0.514l0.192,0.179l0.123,0.192l0.019,0.099l0.093,0.124l0.123,0.086l0.149,0.204l-0.006,0.137l0.043,0.099l0.161,0.123l0.086,0.13l0.031,0.136l0.248,0.446l0.006,0.117l0.068,0.18l-0.031,0.092l0.025,0.124l0.08,0.093l0.044,0.148v0.093l0.049,0.149l0.068,0.086l0.025,0.143l0.117,0.167l0.031,0.352l-0.037,0.056l-0.179,-0.025l-0.124,0.043l-0.049,0.198l0.055,0.124l-0.031,0.192l0.068,0.093l0.508,0.235l0.971,0.55l0.433,0.31l0.031,0.08l0.099,0.099l0.111,0.043l0.235,0.347v0.155l0.031,0.123l0.291,0.198l0.217,0.322l-0.025,0.08l0.025,0.087l0.111,0.124l0.043,0.185l-0.068,0.149h-0.074l-0.019,0.049l0.106,0.13v0.124l-0.056,0.056l0.031,0.086l0.136,0.167l0.111,0.266l0.081,0.409l-0.025,0.235l-0.08,0.222v0.13l-0.087,0.099l0.012,0.037l0.149,0.007l0.414,0.185l0.254,0.229l0.056,0.124l-0.075,0.192l0.025,0.142l0.074,0.068l0.242,0.086l0.525,0.291l0.118,0.112l0.266,0.16l0.464,0.557l0.025,0.112l-0.019,0.167l-0.105,0.204l-0.043,0.253l0.062,0.099l0.266,0.143l0.259,0.253l0.069,0.143l0.228,0.29l0.019,0.211l0.223,0.377l0.006,0.136l0.204,0.291l0.198,0.124l0.297,0.297l0.155,0.556l-0.038,0.223l0.161,0.353v0.123l0.235,0.322l0.372,0.377l0.575,0.768l0.315,0.352l0.372,0.607l0.086,0.321v0.829l-0.099,0.551l-0.074,0.198l-0.037,0.154l0.012,0.093l-0.025,0.112l-0.068,0.154l-0.105,0.402v0.285l-0.055,0.068h-0.068l-0.192,-0.136l-0.037,-0.105l0.068,-0.149l-0.025,-0.074l-0.247,-0.006l-0.223,0.093l-0.099,0.21l-0.105,0.396l0.08,0.086l0.353,0.081l0.099,-0.037l0.024,-0.124l0.099,-0.031l0.106,0.074l-0.019,0.149l0.025,0.117l0.068,0.093v0.167l-0.068,0.074l0.006,0.075l0.117,0.123l-0.024,0.223l-0.118,0.21l0.013,0.57l0.068,0.154l0.049,0.006l0.056,-0.142l-0.031,-0.13l0.062,-0.062l0.167,0.019l0.204,0.192l0.006,0.099l0.081,0.099l0.284,0.173l0.21,0.464l-0.018,0.161l-0.062,0.024l-0.105,-0.024l-0.037,0.049l0.037,0.142l0.315,0.143l0.192,0.142l0.149,0.192l0.191,0.179l0.13,0.074l0.124,0.155l0.025,0.173l-0.044,0.093l0.056,0.087l0.124,0.105l0.099,0.198l-0.013,0.204l0.033,0.213l0.102,0.13l0.255,0.135l0.125,0.139l0.038,0.098l0.162,0.116l0.348,0.153l0.645,0.44l0.598,0.297l0.302,0.186l0.255,0.223l0.005,0.088l-0.051,0.116l0.028,0.079l0.338,0.199l0.251,0.316l0.005,0.148l0.264,0.478l0.116,0.065l0.181,0.009l0.357,0.149l0.265,0.232l0.093,0.227l-0.033,0.13l-0.074,0.023l-0.121,-0.041l-0.028,0.032l0.135,0.148l0.19,0.079l0.121,0.024l0.185,0.143l0.047,0.135l0.009,0.097l-0.07,0.042l-0.181,-0.009l-0.027,0.046l0.162,0.093l0.144,0.162l0.088,0.061l0.144,0.018l0.227,0.126l0.07,0.111l0.167,0.093l0.195,0.009l0.157,0.065l0.047,0.074l0.181,0.102l0.111,0.033l0.459,0.236l0.121,0.158l0.2,0.102l0.139,0.028l0.468,0.246l0.307,0.19l0.301,0.158l0.181,0.037l0.682,0.246l0.223,0.107l0.051,0.074l-0.009,0.116l0.13,0.241l0.185,0.186l0.464,0.185l0.269,0.01l0.13,-0.047l0.172,0.07l0.032,0.121l0.07,0.074l0.251,0.102l0.157,0.009l0.798,0.399l0.14,0.153l0.06,0.158l-0.019,0.097l0.084,0.116l0.107,0.024l0.148,0.116l0.06,0.116l0.487,0.273l0.144,0.158l0.353,0.218l0.339,0.093l0.236,0.121l0.172,0.139l0.023,0.088l0.047,0.023l0.116,-0.042l0.255,0.047l0.088,-0.028l0.097,0.019l0.088,0.055l0.219,0.07l0.111,0.004l0.334,0.144l0.056,0.051l0.069,0.024l0.112,-0.014l0.371,0.143l0.06,0.051l0.088,0.038h0.093l0.218,0.097l0.19,0.148l0.061,0.302l0.069,0.046l0.098,-0.013l0.297,0.074l0.074,-0.042l0.315,0.097l0.135,0.14l0.181,0.092l0.088,0.014l0.339,0.223l0.028,0.056l0.385,0.139l0.241,-0.005l0.251,0.037l0.348,0.209l0.45,0.399l0.348,0.214l0.403,0.102l0.529,0.065l0.682,0.157l0.344,0.116l0.167,0.126l0.032,0.093l0.116,0.088l0.246,0.106l0.38,0.362l0.047,0.144v0.121l0.069,0.097l0.27,0.116l0.32,0.2l0.338,0.301l0.093,0.042l0.135,0.162l-0.014,0.079l0.042,0.047l0.092,0.004l0.144,0.051l0.186,-0.018l0.12,0.046l0.515,0.316l0.283,0.315l0.358,0.334l0.292,0.158l0.784,0.176l0.436,0.149l0.186,0.093l0.167,0.041l0.121,-0.009l0.148,0.037l0.302,0.204l0.023,0.07l-0.042,0.153l0.065,0.06l0.144,0.028l0.088,0.065l0.037,0.126l0.112,0.12l0.116,0.06l0.046,0.107l0.005,0.218l0.125,0.316l0.014,0.134l-0.037,0.098l0.065,0.441l0.088,0.204l-0.005,0.199l-0.167,0.283l-0.028,0.116l0.037,0.028l0.075,-0.07l0.134,0.024l1.026,0.594l0.092,0.199l0.093,0.065l0.107,0.028l0.223,0.148l0.064,0.163l0.103,0.065l0.38,0.069l0.186,0.084l0.575,0.334l0.148,0.218l0.005,0.172l0.116,0.097l0.325,0.135l0.468,0.371l0.293,0.329l0.352,0.269l0.687,0.316l0.993,0.603l0.237,0.204z"/>
</svg>
