<svg xmlns="http://www.w3.org/2000/svg" viewBox="95.926 896.926 74.743 43.470">
  <path d="M169.639768,939.95524l0.245001,0.392001l0.637002,0.049l0.147,-0.269501l-0.294001,-0.318501l-0.563501,-0.0245l-0.1715,0.1715Z M164.225254,938.044235l0.220501,0.318501l0.514501,-0.049v-0.514501l-0.539001,-0.0735l-0.196001,0.318501Z M142.197403,911.823858l0.225925,0.14235h0.259829l0.206013,-0.183856l-0.20753,-0.193695l-0.290542,0.069177l-0.193695,0.166024Z M130.008477,908.226672l0.017564,0.162093l0.286813,0.142284l0.373554,-0.041506l0.235201,-0.290542l-0.152189,-0.20753l-0.48355,-0.011009l-0.277393,0.246209Z M117.953113,901.839049l-0.027671,0.276707l0.179859,0.110683l0.152189,-0.193695v-0.268337l-0.127216,-0.222709l-0.278388,0.012373l-0.078633,0.146624l0.179859,0.138353Z M108.226877,903.125734l0.138353,0.138353l0.235201,-0.083012l0.013835,-0.249036l-0.276707,-0.027671l-0.110683,0.221365Z M95.925537,897.122697l0.124518,0.138353l0.20753,-0.041506l0.101689,-0.175152l-0.111355,-0.117542l-0.211699,0.029823l-0.110683,0.166024Z "/>
</svg>
