<svg xmlns="http://www.w3.org/2000/svg" viewBox="96.195 844.694 130.935 63.005">
  <path d="M122.636745,868.820117l0.179859,0.1054l0.133742,-0.045826l0.046118,-0.151226l-0.115479,-0.140248l-0.106952,-0.022037l-0.105006,0.079798l-0.032282,0.174139Z M96.979322,856.188839l0.031448,0.076636l0.06805,-0.012295l0.048078,-0.082672l-0.096847,-0.027496l-0.05073,0.045826Z M96.225098,860.814461l0.043305,0.098356l0.08661,0.055326l0.018559,-0.086062l-0.049491,-0.104504l-0.08661,-0.061473l-0.043305,0.043031l0.030932,0.055326Z M101.124726,863.101249l-0.018559,0.110651l0.046813,-0.00479l0.055341,-0.116857l-0.034104,-0.142686l-0.129914,-0.079915l-0.043305,0.030736l0.111355,0.116798l0.012373,0.086062Z M120.335554,862.909485l0.117038,0.064835l0.14873,-0.106546l0.055341,-0.19247l-0.145271,-0.151226l-0.231742,0.120294l-0.051321,0.131072l0.107224,0.134041Z M120.234686,862.606565l0.079553,-0.075613l0.162565,-0.058428l0.031129,-0.082487l-0.038047,-0.068739l0.031129,-0.216528l-0.121059,-0.082487l-0.235201,0.030933l-0.103765,0.164974l0.038047,0.103109l-0.0588,0.154663l0.010376,0.209655l0.083012,-0.006874l0.041506,-0.061865l0.079553,-0.010311Z M114.89079,859.414775l0.115294,0.022913l0.064565,-0.224548l0.087624,-0.119148l-0.083012,-0.096235l-0.20753,-0.073322l-0.0784,0.114565l0.036894,0.142061l0.046118,-0.004583l-0.009224,-0.091652l0.05073,-0.064157l0.110683,0.050409l-0.05073,0.252044l-0.036894,0.027496l-0.055341,-0.045826l-0.046118,0.022913l0.055341,0.08707Z M112.009582,860.527204l0.110683,-0.024059l-0.006918,-0.099672l-0.114141,-0.051554l-0.076094,0.07905l0.020753,0.058428l0.065718,0.037807Z M111.86777,860.36223l0.095529,-0.085656l-0.009058,-0.038075l-0.162565,0.04468l-0.044965,0.130604l0.041506,0.120294l0.069177,0.003437l-0.019369,-0.108796l0.029745,-0.066489Z M112.168689,860.341609l0.010376,0.082487l0.048424,0.017185l0.024212,-0.089361l-0.047132,-0.084566l-0.078877,-0.059936l-0.078877,0.018442l-0.019939,0.036699l0.084896,0.009405l0.056916,0.069645Z M115.323144,860.781539l0.129285,0.075953l0.012527,0.068399l-0.074391,0.103724l0.061864,0.036884l0.143962,-0.106238l0.009151,-0.20881l-0.088156,-0.156756l-0.104313,-0.043433l-0.114141,0.037807l-0.020753,0.099672l0.044965,0.092798Z M115.174414,860.699052l0.055341,-0.075613l0.009243,-0.084069l-0.046398,-0.036884l-0.056233,0.038465l-0.024212,0.106546l0.062259,0.051554Z M115.24705,861.01869l0.038347,0.01861l0.041758,-0.064546l-0.018559,-0.092209l-0.040793,-0.047451l-0.038047,0.020622l0.031129,0.082487l-0.013835,0.082487Z M115.596392,860.558137l0.096847,0.116857l-0.022739,0.131783l0.046951,0.163795l-0.038047,0.054991l-0.010376,0.068739l0.06179,0.039817l0.052351,-0.022632l-0.029152,-0.30471l0.032611,-0.148968l-0.1176,-0.154663l-0.260405,-0.101935l-0.072188,-0.004764l-0.00928,0.046105l0.269237,0.115586Z M129.705895,864.398325l0.08661,-0.190566l0.061864,-0.043415l0.118315,0.019594l0.056693,0.03429l0.032044,-0.024493l-0.076412,-0.073479l-0.130639,-0.023148l-0.088736,0.020699l-0.046833,0.046537l0.002465,0.090624l-0.066552,0.100422l0.012324,0.041638l0.038858,0.001297Z M129.911061,864.477855l0.083806,-0.058783l-0.041903,-0.068581l-0.061622,0.009797l-0.013354,0.081401l0.033073,0.036165Z M138.615317,856.630149l0.185305,-0.136158l-0.074237,-0.245891l-0.313194,-0.147457l-0.165375,0.091294v0.255624l0.367501,0.182588Z M135.656935,850.221294l0.349126,-0.054777l0.11025,-0.255624l-0.109567,-0.109282l-0.349809,-0.036789l-0.257251,0.091294v0.219106l0.257251,0.146071Z M200.917547,849.700182l0.184172,0.038864l0.152189,-0.096235l-0.152189,-0.233713l-0.179859,0.013748l-0.069269,0.102139l0.064957,0.175197Z M184.980706,845.236437l0.169527,0.075805l0.131189,0.127876l0.104012,-0.004145l-0.076173,-0.171052l-0.139194,-0.129093l-0.227363,-0.071046l-0.041745,0.071046l0.079748,0.10061Z M183.559169,844.81732l0.061203,0.106426l0.104821,0.003556l0.069177,-0.082487l-0.083012,-0.151226l-0.110683,0.013748l-0.041506,0.109983Z M192.192199,857.529559l0.276707,-0.068739l0.138353,-0.247461l-0.193695,-0.123731l-0.387389,0.109983l0.027671,0.219965l0.138353,0.109983Z M187.585034,856.37474l0.152189,-0.206218l-0.096847,-0.109983l-0.442731,0.109983l-0.027671,0.109983l0.41506,0.096235Z M139.172466,870.541581l0.124518,-0.041244v-0.19247l-0.152189,-0.082487l-0.069177,0.219965l0.096847,0.096235Z M169.361155,887.767622v0.219965l0.221365,-0.027496l0.08752,-0.195961l-0.037118,-0.221302l-0.147248,-0.022668l-0.124518,0.247461Z M216.4546,874.933156h0.294001l-0.1715,-0.316487l-0.524525,-0.250533l-0.278388,0.027663v0.147535l0.337412,0.124026l0.343001,0.267796Z M203.719986,866.721996l0.083516,-0.129093l-0.194872,-0.10143l-0.531066,0.018268l-0.062828,0.110824l0.102076,0.165977l0.603174,-0.064546Z M212.897511,873.287289l0.12708,0.258194l0.169867,-0.018451l0.04708,-0.127124l-0.216948,-0.341328l-0.424027,-0.26l-0.204151,-0.036884l-0.157753,0.064546l0.018559,0.138314l0.277371,0.118369l0.362921,0.204363Z M180.880736,875.901181l0.11351,-0.041255l0.027839,-0.165977l-0.072172,-0.122716l-0.152189,0.027496v0.178722l0.083012,0.123731Z M181.102101,876.244877l0.166024,0.068739v-0.19247l-0.13793,-0.166427l-0.080272,-0.011805l-0.044669,0.095745l0.096847,0.206218Z M185.003664,879.173166l0.110683,-0.054991l-0.069177,-0.151226l-0.152189,-0.041244l-0.013835,0.151226l0.124518,0.096235Z M188.711533,878.499522l0.193695,-0.041244l-0.138353,-0.109983h-0.276707l0.027671,0.096235l0.193695,0.054991Z M197.90344,880.330042l0.174549,-0.004118l0.032981,-0.13336l-0.138353,-0.041244l-0.129711,0.076247l0.060534,0.102475Z M200.988719,879.876363l0.20753,-0.054991v-0.109983l-0.185906,-0.061666l-0.187648,0.047918l-0.013835,0.123731l0.179859,0.054991Z M200.739683,876.384412l0.179859,-0.068739l0.027671,-0.109983l-0.097716,-0.047622l-0.192826,0.047622l-0.055341,0.082487l0.138353,0.096235Z M198.221653,874.968385l0.055341,-0.082487l-0.124518,-0.041244l-0.111605,0.03478l-0.012373,0.122946l0.193155,-0.033995Z M180.510425,863.093781l0.165375,-0.054777l-0.091875,-0.146071l-0.165375,-0.018259l-0.055125,0.127812l0.147,0.091294Z M183.321807,866.690774l0.147,-0.018259l-0.018375,-0.16433l-0.165375,-0.091294l-0.055125,0.146071l0.091875,0.127812Z M176.187413,867.948378l0.078376,0.203104l0.097936,-0.037127l-0.079561,-0.255014l-0.106031,-0.104601l-0.243095,-0.059728l-0.026013,0.059728l0.092796,0.10143l0.185592,0.092209Z M187.161976,871.58436l0.525743,0.618653l0.127034,0.00543l-0.0335,-0.15794l-0.439417,-0.534881l-0.383843,-0.265835l-0.0712,-0.000319l-0.043029,0.087432l0.318213,0.247461Z M188.504003,873.440318l0.22015,0.261913l0.157753,0.055326l0.023321,-0.069777l-0.262871,-0.329948l-0.444654,-0.231967l-0.113841,0.00467l-0.018559,0.073767l0.438702,0.236017Z M172.897751,864.105536l0.116039,-0.076048l-0.060697,-0.088926l-0.232822,-0.094643l-0.105504,0.008372l-0.021393,0.086271l0.304377,0.164974Z M170.480458,867.155379l0.120635,0.073767l0.124511,-0.016599l-0.221365,-0.178722h-0.227927l-0.083521,0.057007l0.027839,0.082988l0.157753,-0.046105l0.102076,0.027663Z M172.849327,869.597797l0.124518,-0.041244l0.096847,0.048117v0.082487l0.083012,0.061865l0.036397,-0.186985l-0.083516,-0.119872l-0.153493,-0.00247l-0.108563,0.063238l-0.034891,0.059104l0.039689,0.035759Z M178.404212,870.835103l0.1176,-0.171848l-0.114141,-0.013748l-0.08131,0.065147l-0.00464,0.110651l0.082491,0.009798Z M178.535648,870.604826l0.08993,-0.024059l0.083012,0.457116l-0.245577,0.42962l0.034588,0.388376l0.086471,-0.006874l0.031129,-0.419309l0.228283,-0.333385l-0.093388,-0.305889l0.010376,-0.257772l-0.124518,-0.04468l-0.105442,0.009992l-0.041758,0.073767l0.046894,0.033097Z M179.00259,872.87322l0.03366,-0.079249l-0.032479,-0.059936l-0.080734,0.015455l-0.123417,0.168964l-0.008019,0.081934l0.077616,0.024106l0.133373,-0.151274Z M178.947249,872.106778l0.042603,0.15238l0.273748,0.345784l0.060317,-0.00461l0.003803,-0.060497l-0.26633,-0.467426l-0.122576,-0.10371l-0.088156,0.013831l-0.010633,0.045198l0.107224,0.07905Z M177.601763,871.436571l0.096847,-0.041244l-0.010376,-0.075613l-0.110683,-0.017185l-0.041506,0.089361l0.065718,0.04468Z M177.390774,871.178799l0.103765,-0.006874l-0.034588,-0.106546l-0.100306,-0.017185l-0.027671,0.082487l0.0588,0.048117Z M177.473786,870.972581l0.076094,-0.054991l0.020753,-0.072176h-0.096847l-0.065718,0.096235l0.065718,0.030933Z M177.743575,870.841977l0.132725,-0.030503l0.051038,-0.036884l-0.051038,-0.032273l-0.134554,0.018442l-0.053512,0.036538l0.055341,0.04468Z M163.01966,850.603832l0.139194,0.009221l0.132566,-0.108711l-0.110683,-0.109983l-0.123959,0.015833l-0.060512,0.09415l0.023393,0.09949Z M162.452077,855.737686l0.110683,-0.100817l-0.009224,-0.109983l-0.12913,0.009165l-0.046118,0.155809l0.073788,0.045826Z M156.502885,853.872562l0.193695,0.109983l0.498072,0.119148l0.059283,-0.030796l-0.033715,-0.06982l-0.532864,-0.211002l-0.313601,-0.004583l-0.013835,0.08707h0.142965Z M156.881051,854.958641l0.087624,-0.229131l-0.0784,-0.109983l-0.073788,0.009165l-0.023059,0.288705l0.087624,0.041244Z M150.213812,856.044173l0.026281,0.147191l-0.027671,0.100817l0.112745,0.059355l0.085561,-0.086851l-0.097934,-0.275838l-0.129914,-0.036884l-0.043305,0.049178l0.074237,0.043031Z M147.652886,855.375659l0.110683,-0.045826l0.032282,-0.187887l-0.0784,-0.077904l-0.106071,0.109983l0.004612,0.132896l0.036894,0.068739Z M156.301229,866.721996l-0.056604,-0.151014l0.009224,-0.155809l0.112337,-0.052793l0.127475,0.034462l0.027671,-0.109983l-0.155146,-0.062793l-0.186126,0.035298l-0.110683,0.238296l0.147577,0.274957l0.084274,-0.050621Z M156.844157,867.102565l0.202918,0.302452l0.092236,-0.027496l-0.184471,-0.320783l-0.341271,-0.247461l-0.009224,0.119148l0.239812,0.174139Z M156.770368,866.616808l0.359719,0.320783l0.064565,-0.064157l-0.202918,-0.155809l-0.191805,-0.279535l-0.090397,-0.048047l-0.040623,0.061791l0.101459,0.164974Z M157.443688,867.230878l0.036894,0.183305l0.12913,0.045826l0.009224,-0.146644l-0.207515,-0.266068l-0.080155,-0.030232l-0.035154,0.085499l0.147577,0.128313Z M164.472035,859.926193l0.498072,0.494922l0.101459,0.2108l0.110683,0.036661v-0.201635l-0.525743,-0.59574l-0.4636,-0.195198l-0.078254,0.007358l-0.002336,0.059527l0.359719,0.183305Z M165.532744,861.81423l0.073788,-0.036661l-0.055341,-0.128313l-0.1568,-0.054991l-0.018447,0.119148l0.1568,0.100817Z M166.005564,862.276353l0.09904,-0.040523l0.1568,0.009165l0.027671,-0.073322l-0.239812,-0.036661l-0.120448,0.068734l-0.018559,0.078378l0.095308,-0.005771Z M164.831754,862.950718l0.175248,-0.054991l0.009224,-0.073322l-0.175248,-0.036661l-0.092236,0.119148l0.083012,0.045826Z M160.339883,862.785744l0.230589,-0.027496l0.027671,-0.109983l-0.295154,-0.01833l-0.036894,0.082487l0.073788,0.073322Z M158.485949,862.107517l0.193695,0.119148l0.062121,-0.055192l-0.135909,-0.173939l-0.235275,-0.024311l-0.097436,0.036884l-0.008561,0.07908l0.221365,0.01833Z M159.122374,862.309152l0.166024,0.009165l-0.101459,-0.119148l-0.249036,-0.054991l-0.009224,0.073322l0.193695,0.091652Z M161.73264,862.689509l0.159106,0.178722l0.096847,-0.03437l-0.179859,-0.240587l-0.20753,-0.041244l-0.027671,0.075613l0.159106,0.061865Z M162.908305,863.522337l0.021091,0.328864l0.053146,0.049194l0.049716,-0.074592l0.028573,-0.414533l-0.143247,-0.174781l-0.250549,-0.129093l-0.277217,0.001422l0.013835,0.082487l0.3005,0.072847l0.204151,0.258186Z M150.788894,847.821222l0.08993,0.123731l0.095915,0.012475l0.03552,-0.081215l-0.048424,-0.103109l0.1176,-0.219965l0.015938,-0.075199l-0.092032,-0.014162l-0.09356,0.051046l-0.120888,0.306398Z M151.425319,847.071965l0.456566,-0.061865l0.186777,0.151226l0.093866,-0.015339l-0.017771,-0.101518l-0.130702,-0.138226l-0.152922,-0.026748l-0.442731,0.068739l-0.258071,0.179311l-0.027839,0.110651l0.12368,-0.086861l0.169147,-0.07937Z M153.507536,846.803882l0.062259,-0.082487l-0.08993,-0.054991l-0.454335,0.267502l-0.083516,0.129093l0.055678,0.027663l0.116195,-0.029578l0.39365,-0.257201Z M153.811913,846.645782l0.152189,-0.054991l-0.027671,-0.082487l-0.221365,0.03437l-0.041506,0.089361l0.138353,0.013748Z M154.233891,846.412069l0.221365,-0.006874l0.1176,0.109983h0.08993l-0.110683,-0.213091l-0.186777,-0.041244l-0.279894,0.115448l-0.066985,0.078128l0.042502,0.02639l0.172942,-0.068739Z M158.647361,848.673588l-0.124518,0.089361l-0.020753,-0.068739l0.110683,-0.1581l0.041506,-0.323074l0.145271,-0.116857l0.048424,-0.144352l-0.08993,-0.013748l-0.221365,0.219965l-0.048424,0.281831l-0.138353,0.268083l0.083012,0.164974l0.124518,0.048117l0.184333,-0.133739l0.018559,-0.175197l-0.064539,-0.027886l-0.048424,0.089361Z M159.097009,847.848718l0.069177,0.137478l-0.124518,0.116857l-0.034588,0.109983l0.08993,0.020622l0.145271,-0.171848l0.006918,-0.219965l-0.159106,-0.096235l-0.20753,0.103109l0.055341,0.068739l0.159106,-0.068739Z M159.678093,847.587509l0.214448,-0.013748l0.034588,-0.082487l-0.069177,-0.041244l0.041506,-0.137478l-0.076094,-0.048117l-0.181479,0.148959l-0.019133,0.098502l0.055341,0.075613Z M160.224589,847.456905l0.221365,-0.130604l-0.08993,-0.068739l-0.290542,0.144352l-0.006918,0.068739l0.166024,-0.013748Z M160.494378,847.209444l0.083012,0.041244l0.103765,-0.247461l-0.08993,-0.041244l-0.096847,0.247461Z M160.030894,847.195696l0.359719,-0.288705l0.290542,-0.03437l0.145271,-0.082487l0.131436,0.006874l-0.062259,0.103109l0.055341,0.027496l0.138559,-0.039811l0.030255,-0.09397l-0.085802,-0.11368l-0.269789,0.006874l-0.166024,0.109983l-0.255954,0.020622l-0.29979,0.266537l-0.047889,0.077189l0.036384,0.03434Z M172.24415,859.390608l0.247764,0.191889l0.456566,0.178722l0.04675,-0.019458l-0.087947,-0.082026l-0.309298,-0.132229l-0.295154,-0.252044l-0.304377,-0.036661l-0.147577,0.073322l0.036894,0.045826l0.182592,-0.018835l0.173787,0.051494Z M173.199381,859.916959l0.067312,0.087139l0.0784,-0.009165l-0.018447,-0.100817l-0.141184,-0.097028l-0.092796,-0.009221l-0.046398,0.023052l0.153113,0.106041Z M167.432796,860.416533l0.382777,0.155809l0.083012,-0.036661l-0.064565,-0.082487l-0.442731,-0.155809l-0.378166,0.027496l-0.009422,0.053124l0.105024,0.030861l0.32407,0.007667Z M167.976985,860.934368l0.115294,0.064157l0.018447,-0.082487l-0.088089,-0.087532l-0.078603,-0.032486l-0.027002,0.051279l0.059953,0.08707Z M168.645693,861.186412l0.133506,0.070653l0.136101,0.024589l0.030932,-0.049178l-0.203691,-0.114804l-0.328761,-0.048397l-0.049069,0.034108l0.018112,0.041785l0.262871,0.041244Z M169.263671,861.594264l0.281318,0.050409l0.007509,-0.055655l-0.073675,-0.040052l-0.159811,-0.028024l-0.267483,-0.183305l-0.043434,0.054667l0.037118,0.073767l0.218457,0.128192Z M170.075343,861.608012l0.216753,-0.068739l0.216753,0.01833l0.324233,0.24657l0.003203,0.065048l-0.041506,0.041244l0.02593,0.07198l0.066306,-0.012406l0.063609,-0.085951l0.006186,-0.122946l-0.406455,-0.313521l-0.332048,-0.01833l-0.138353,0.08707l-0.327945,0.005038l-0.060317,0.023052l-0.00835,0.054396l0.392001,0.009165Z M174.295119,861.83256l0.064565,-0.096235l-0.124518,-0.013748l-0.083012,0.045826l-0.015533,0.075727l0.092054,0.016726l0.066444,-0.028296Z M174.691732,862.038778l0.046118,-0.091652l-0.044453,-0.204425l-0.074237,-0.082988l-0.06117,0.058283l0.041506,0.169557l0.092236,0.151226Z M174.230554,862.244995l0.036894,-0.183305l-0.032282,-0.08707l-0.083012,0.045826l0.004612,0.215383l0.073788,0.009165Z M174.258225,862.538283l0.023059,-0.137478l-0.046118,-0.045826l-0.073788,0.054991l0.009224,0.091652l0.087624,0.036661Z M179.123649,855.756016l0.106071,-0.064157l-0.009224,-0.100817l-0.091451,-0.032504l-0.116079,0.037086l-0.009224,0.119148l0.119906,0.041244Z M178.460915,856.517514l0.123728,-0.049178l0.405265,-0.487771l-0.041506,-0.119148l-0.133742,0.036661l-0.384677,0.557964l0.030932,0.061473Z M178.196682,856.470904l0.1568,-0.137478l0.027671,-0.109983l-0.101459,0.004583l-0.147577,0.215383l0.064565,0.027496Z M176.707078,858.977593l-0.059953,-0.549914l0.142965,-0.485757l0.193695,-0.329948l-0.038538,-0.030981l-0.238168,0.241781l-0.089711,0.213117l-0.080925,0.400953l0.043807,0.305984l0.08661,0.264333l0.04022,-0.029569Z M177.186516,857.427311l0.06805,-0.024589l0.374867,-0.377322l0.193695,-0.009165l0.083012,0.123731l-0.069177,0.132896l0.041506,0.054991l0.124518,-0.151226l-0.013835,-0.169557l-0.175248,-0.114565l-0.272095,0.050409l-0.380039,0.410631l0.024746,0.073767Z M177.537198,858.184801l0.055341,-0.050409l-0.032282,-0.169557l-0.083012,0.022913l-0.018447,0.160391l0.0784,0.036661Z M176.951502,858.982175l0.049422,0.049575l0.074237,-0.06762l0.268342,-0.403556l0.1568,-0.174139l-0.106071,-0.022913l-0.198306,0.2108l-0.244424,0.407853Z M158.550514,856.805434l0.145271,0.103109l0.08993,-0.020622l-0.08993,-0.123731l-0.110683,-0.027496l-0.034588,0.068739Z M159.641885,857.224451l0.072624,-0.013488l0.143443,-0.137446v-0.295579l-0.304223,-0.447917l0.00928,-0.106041l-0.064775,-0.215921l-0.255954,-0.1581l-0.1176,0.041244l0.069177,0.089361l0.179859,0.096235l0.050099,0.087246l-0.01551,0.208332l0.276707,0.384939l0.055341,0.254335l-0.135585,0.157473l0.037118,0.055326Z M160.093153,858.441427l0.026632,-0.128908l0.063298,-0.063562l0.242118,-0.178722l0.200612,-0.03437l0.013629,-0.0553l-0.046443,-0.031508l-0.147046,-0.009427l-0.366636,0.206218l-0.066248,0.148229l-0.002928,0.119854l0.083012,0.027496Z M160.90252,858.104605l0.166024,0.03437v-0.096235l-0.173912,-0.062174l-0.073378,0.005448l-0.043252,0.042978l0.124518,0.075613Z M161.421345,858.361231l0.073788,-0.016039l-0.115294,-0.144352l-0.160421,-0.072739l-0.040191,0.045244l0.030911,0.070018l0.211207,0.117869Z M161.279735,859.160843l0.05168,0.043589l0.203509,-0.15885l0.078877,-0.119872l0.077333,-0.202452l-0.030935,-0.069565l-0.086665,0.000826l-0.103765,0.254335l-0.152915,0.15056l-0.037118,0.10143Z M152.10325,856.544225l0.119906,-0.073322l0.013608,-0.082483l-0.087396,-0.036665l-0.085823,0.104285l0.039705,0.088185Z M152.444522,856.085964l0.083012,0.045826l0.068042,-0.019997l0.042641,-0.089986l-0.030268,-0.079064l-0.111355,0.027663l-0.052072,0.115558Z M154.123616,856.695785h0.06805l-0.1238,-0.234046l-0.253571,-0.239294l-0.296947,-0.153682l-0.156168,-0.013799l-0.010865,0.069125l0.167033,0.043031l0.284574,0.196713l0.231233,0.27369l0.09046,0.058263Z M154.457682,857.193714l0.032163,-0.065206l-0.112586,-0.248305l-0.111355,-0.012295l-0.018177,0.06813l0.092414,0.190055l0.117542,0.06762Z M150.878824,858.365814l0.013835,0.171848l0.20753,0.19247l0.304377,-0.020622l0.124518,-0.19247l-0.040874,-0.186079l-0.180491,-0.136995h-0.276707l-0.152189,0.171848Z M154.681078,858.389908l0.064721,0.01715l0.169677,-0.199042l0.314559,-0.151528l0.000947,-0.094363l-0.074237,-0.018442l-0.362523,0.188418l-0.101457,0.161977l-0.011688,0.095831Z M155.506741,857.994622l0.287203,-0.180033l0.117542,-0.006147l0.160846,0.098356l0.105422,0.500259l0.1176,0.103109l0.104857,0.453964l0.130344,0.302167l0.276707,0.1581l0.075489,-0.029957l-0.030932,-0.073767l-0.231334,-0.164358l-0.108918,-0.161448l-0.1332,-0.58781l-0.159106,-0.178722l-0.017014,-0.339979l-0.247456,-0.190566l-0.160846,0.006147l-0.28946,0.195311l-0.038419,0.069022l0.040676,0.026351Z M156.848768,859.754345l0.132965,0.12573l0.080423,0.036884l0.049491,-0.049178l-0.124526,-0.134057l-0.069177,-0.206218l-0.066126,-0.003973l-0.06531,0.065839l0.062259,0.164974Z M187.77073,870.319559l0.401225,-0.268083l0.110683,-0.233713l-0.103765,-0.041244l-0.069177,0.151226l-0.29746,0.240587l-0.235201,0.03437l-0.020753,0.089361l0.214448,0.027496Z M187.452518,870.030854l0.096847,0.020622l0.110683,-0.261209l-0.076094,-0.068739l-0.083012,0.144352l-0.048424,0.164974Z M187.660047,869.652789l0.076094,0.041244l0.193695,-0.274957l0.20753,-0.109983l0.172942,-0.020622l0.29321,-0.279687l0.055678,-0.147535l-0.051428,-0.040205l-0.41506,0.343696l-0.338966,0.137478l-0.193695,0.35057Z M188.877556,868.958523l0.013835,0.116857l-0.041506,0.082487l0.048424,0.075613l0.096847,-0.116857l0.006918,-0.178722l-0.138353,-0.123731l-0.048424,0.082487l0.062259,0.061865Z M151.844991,854.509545l0.082454,0.034692l0.078166,-0.078312l0.106863,-0.258832l-0.092236,-0.054991l-0.080421,0.06633l-0.094826,0.291114Z M150.526023,853.189753l0.058973,0.045114l0.060933,-0.035949l0.046118,-0.146644l0.166024,-0.137478l-0.044178,-0.061061l-0.095185,0.009113l-0.155791,0.116104l-0.036894,0.2108Z M151.236236,852.832309l-0.106837,-0.107666l-0.105304,-0.002316l-0.012237,0.076084l0.08661,0.104504l0.111355,0.030736l0.026414,-0.101341Z M151.623626,852.914796l0.083012,-0.054991l-0.113259,-0.110573l-0.126554,0.009756l0.002826,0.119337l0.153975,0.036471Z M152.187273,853.29634l0.05433,0.085883l0.069398,-0.073588l0.032061,-0.210534l-0.036894,-0.128313l-0.106522,-0.042285l-0.136101,0.030736l-0.034083,0.048209l0.133066,0.031705l0.042182,0.069112l-0.017436,0.189074Z M147.731519,852.724643l-0.101692,-0.057308l-0.083012,0.009165l0.04087,0.140352l0.097436,0.036884l0.069597,-0.050715l-0.023199,-0.078378Z M149.271619,852.429039l0.193695,0.164974l0.037061,0.444141l0.055174,-0.00421l0.087113,-0.407658l-0.080423,-0.172124l-0.283397,-0.171767l-0.899752,-0.253932l-0.24127,0.032273l-0.00464,0.073767l0.213431,0.032273l0.923008,0.262262Z M138.747545,851.613334l0.092236,-0.073322l-0.076996,-0.087856l-0.153593,-0.012961l-0.036894,0.100817l0.023454,0.050457l0.151793,0.022864Z M138.586473,850.465518l0.031943,0.08465l0.13509,-0.029325l0.344535,-0.328119l-0.010469,-0.077601l-0.229343,0.068436l-0.271756,0.281959Z M139.891266,850.504342l0.018447,0.265792l0.105818,0.027337l0.037118,-0.175197l-0.032254,-0.200419l-0.227575,-0.214523l-0.233602,-0.069599l-0.276776,0.005053l-0.036825,0.049939l0.38017,0.079154l0.265478,0.232463Z M140.979645,850.715142l0.065921,0.036224l0.238456,-0.228694l0.047544,-0.188974l-0.026171,-0.117146l-0.076714,-0.005498l-0.034641,0.208359l-0.214395,0.295729Z M140.712162,851.384204l0.055341,-0.128313l-0.064565,-0.082487l-0.101459,0.01833l0.036894,0.164974l0.073788,0.027496Z M142.00346,852.438204l0.018447,-0.109983l-0.113337,-0.138392l-0.098804,-0.008251l-0.046118,0.100817l0.117083,0.137957l0.122729,0.017852Z M143.728264,852.896466l0.461178,0.009165l0.085426,-0.070337l-0.020861,-0.067141l-0.41506,0.036661l-0.230589,-0.091652l-0.073788,0.064157l0.193695,0.119148Z M144.761302,852.960622l0.12913,-0.054991l-0.055341,-0.091652l-0.1568,0.01833l-0.046118,0.054991l0.12913,0.073322Z M145.296268,852.410709l0.119906,0.238296h0.110683l-0.092236,-0.229131l-0.10188,-0.202382l-0.129914,0.018442l-0.026466,0.083122l0.119906,0.091652Z M141.717529,850.385194l0.525743,0.036661l0.231353,0.052884l0.438508,0.257588l0.044032,-0.045507l-0.436141,-0.313511l-0.213186,-0.061436l-0.488848,-0.027496l-0.207751,-0.066593l-0.083132,0.026432l0.004953,0.076822l0.184471,0.064157Z M143.506899,851.43003l0.442731,0.265792l0.295154,0.329948l0.405836,0.229131l0.088228,-0.028187l-0.148474,-0.165977l-0.170343,-0.071628l-0.387389,-0.4216l-0.378166,-0.219965l-0.316848,-0.337991l-0.194872,-0.064546l-0.060141,0.063424l0.190055,0.130216l0.234228,0.291385Z M187.969674,896.250038l0.138353,0.123731l0.166024,-0.219965l-0.055341,-0.123731l-0.249036,0.219965Z M198.429183,890.200989l0.152189,0.109983l0.140004,-0.038752l0.02602,-0.181214l-0.138353,-0.082487l-0.166024,0.068739l-0.013835,0.123731Z M202.565946,890.709659l-0.083012,-0.219965l0.058543,-0.217474l0.11877,0.002485l0.140899,0.105006l-0.027671,0.412435l0.064948,0.079434l0.091204,-0.075567l0.079049,-0.471293l-0.068177,-0.15393l-0.277706,-0.121027l-0.20753,-0.027496l-0.127217,0.203848l-0.038807,0.291074l0.093539,0.152096l0.1123,0.073202l0.070867,-0.032828Z M226.678491,906.188293l0.160846,0.018442l0.123728,-0.215155l0.15466,-0.092209l0.012373,-0.116798l-0.16394,-0.082988l-0.225804,0.187492h-0.15466l-0.098982,0.147535l0.191778,0.153682Z M200.21394,897.013043l0.221365,-0.041244l-0.006918,-0.075613l-0.197531,-0.034083l-0.136101,0.061473l0.022337,0.061972l0.096847,0.027496Z M200.760436,897.171143l0.059181,0.058807l0.032973,0.087051l-0.085236,0.053485l-0.020753,0.096235l0.255954,-0.048117l0.072746,-0.101603l-0.010487,-0.083993l-0.128707,-0.14653l-0.099576,-0.01157l-0.262871,0.020622l0.020753,0.068739l0.166024,0.006874Z M201.452202,900.085685l0.110683,0.041244l0.034588,-0.103109l-0.311295,-0.295579l-0.034588,0.089361l0.200612,0.268083Z M201.189331,900.408759l0.172942,-0.123731l-0.08993,-0.068739l-0.124518,0.075613l-0.034588,0.075613l0.076094,0.041244Z M199.280056,897.624822l0.131436,-0.048117l0.096847,-0.096235l-0.044595,-0.052817l-0.08661,0.018442l-0.103996,0.116862l0.006918,0.061865Z M199.418409,897.734804l0.1176,-0.048117l0.026716,-0.037732l-0.055678,-0.043031l-0.157816,0.053268l-0.034588,0.048117l0.103765,0.027496Z M200.034081,897.617948l0.096847,-0.096235v-0.068739l-0.073291,-0.019174l-0.127322,0.122283l0.013835,0.068739l0.08993,-0.006874Z M200.317705,897.597326l0.096847,-0.020622l-0.055341,-0.089361l-0.1176,-0.020622l-0.027671,0.082487l0.103765,0.048117Z M226.23307,906.348122l0.204151,-0.006147l0.049491,-0.092209l-0.024746,-0.110651l-0.098982,-0.006147l-0.142287,0.104504l0.012373,0.110651Z M212.435679,906.388421l0.146068,-0.085379l0.103107,-0.16222l-0.042961,-0.128068l-0.163252,0.034152l-0.103107,0.264674l0.060146,0.076841Z M226.102382,907.662871l0.00928,-0.064546l-0.074237,-0.027663l-0.064957,0.055326l0.037118,0.073767l0.092796,-0.036884Z M216.553674,895.226927l0.098982,0.003074l0.064957,-0.107577l-0.07733,-0.193639l-0.071144,-0.055326l-0.139194,0.021515l-0.06805,0.061473v0.079915l0.191778,0.190566Z M226.294161,906.900609l0.08661,0.006147l0.129914,-0.079915l-0.006186,-0.055326h-0.06805l-0.111355,0.06762l-0.030932,0.061473Z M226.436448,906.494888l0.173219,0.178271l0.22271,0.086062l0.006186,-0.030736l-0.210338,-0.122946l-0.204151,-0.215155l-0.024746,0.024589l0.037118,0.079915Z M226.38077,907.300182l0.030932,-0.079915l-0.043305,-0.049178l-0.08661,0.012295l-0.012373,0.061473l0.043305,0.073767l0.06805,-0.018442Z M214.335849,894.015913l0.049491,-0.043031l0.006186,-0.079915l-0.092796,-0.06762l-0.08661,0.006147l-0.049491,0.079915l0.06805,0.073767l0.105169,0.030736Z M214.954489,894.212626l0.06805,-0.079915l-0.006186,-0.110651l-0.08661,-0.049178l-0.142287,0.030736l-0.049491,0.086062l0.074237,0.129093l0.142287,-0.006147Z M215.628807,894.317129l0.123728,-0.141387l0.006186,-0.092209l-0.074237,-0.043031l-0.216524,0.061473l-0.012373,0.110651l0.074237,0.110651l0.098982,-0.006147Z M217.829619,898.972156l0.115995,-0.032273l0.055678,-0.239744l-0.037118,-0.082988h-0.092796l-0.120635,0.124482l-0.013919,0.142924l0.092796,0.087599Z M221.397625,895.168527l0.055678,-0.009221l0.041758,-0.050715l-0.027839,-0.046105l-0.074237,0.00461l-0.041758,0.082988l0.046398,0.018442Z M222.325585,895.19619l0.176312,0.124482l0.023199,-0.027663l-0.074237,-0.087599l-0.120635,-0.078378l-0.148474,-0.023052l0.00464,0.027663l0.139194,0.064546Z M116.708268,861.7427l-0.006186,-0.178271l0.123728,-0.184418l0.148474,-0.073767l0.334066,0.079915l0.15466,0.153682l0.006186,0.13524l-0.105169,0.159829l0.018559,0.104504l-0.06805,0.086062l-0.228897,0.018442l-0.278388,-0.172124l-0.098982,-0.129093Z M117.079452,862.51111l0.080423,-0.178271l0.179406,-0.030736l0.136101,0.116798l0.105169,0.288922l0.210338,0.295069l0.148474,0.049178l0.06805,0.165977l-0.024746,0.104504l-0.303134,0.159829l-0.129914,-0.024589l-0.055678,0.030736l-0.049491,0.141387l-0.123728,0.018442l-0.092796,-0.13524l-0.092796,-0.374984v-0.20286l-0.055678,-0.424162Z M127.604066,867.925326l-0.069597,-0.179808l0.046398,-0.119872l0.176312,-0.036884l0.120635,0.046105l0.064957,0.152145l0.037118,-0.013831l-0.027839,-0.124482l0.060317,-0.082988l0.111355,-0.00461l0.037118,0.147535l0.032479,-0.013831v-0.106041l0.032479,-0.050715l0.106715,-0.009221l0.125275,-0.055326l0.074237,0.013831l0.041758,0.073767l-0.064957,0.248965l-0.00928,0.138314l-0.176312,0.341174l-0.167033,0.064546l-0.259829,-0.129093l-0.097436,-0.147535l-0.194872,-0.152145Z M129.511023,868.07286l0.245909,-0.165977l0.301587,-0.064546l0.153113,-0.013831l0.153113,-0.124482l0.412942,0.009221l0.273748,0.110651l0.078877,0.09682l0.078877,0.023052l0.092796,-0.00461l0.148474,0.092209l0.143834,0.184418l0.046398,0.221302l-0.069597,0.272017l0.00464,0.09682l0.041758,0.092209l0.013919,0.189029l-0.027839,0.092209l0.027839,0.050715l0.22271,0.087599l0.088156,-0.00461l0.115995,-0.027663l0.092796,0.018442l0.064957,0.055326l0.278388,0.064546l0.037118,-0.023052l-0.00464,-0.041494l0.015466,-0.018442l0.035717,0.04063l0.00493,0.046537l0.160218,0.149408l0.057418,0.196809l-0.037118,0.290459l-0.115995,0.212081l-0.153113,0.041494l-0.417582,-0.124482l-0.111355,-0.009221l-0.250549,-0.207471l-0.097436,-0.295069l-0.199511,-0.285848l0.032479,-0.073767l0.043305,-0.024589l-0.010826,-0.021515l-0.060317,0.009221l-0.046398,0.069157l-0.00928,0.087599l-0.106715,0.041494l-0.208791,0.00461l-0.106715,0.069157l-0.250549,0.023052l-0.097436,0.050715l-0.143834,-0.027663l-0.092796,-0.073767l-0.22271,-0.078378l-0.194872,-0.013831l-0.143834,-0.078378l-0.051038,-0.110651l-0.018559,-0.258186l-0.125275,-0.285848l-0.069597,-0.087599v-0.290459l-0.051038,-0.165977l0.027839,-0.087599Z M116.779412,861.184835l0.046398,-0.041494l0.324786,0.00461l0.013919,0.032273l-0.092796,0.032273l-0.255189,0.013831l-0.037118,-0.041494Z M116.561341,861.516788l0.018559,-0.055326l0.051038,-0.018442l0.018559,0.036884l-0.018559,0.046105l-0.055678,0.023052l-0.013919,-0.032273Z "/>
</svg>
