<svg xmlns="http://www.w3.org/2000/svg" viewBox="2096.290 759.813 50.450 36.727">
  <path d="M2143.425541,782.687301l0.055678,-0.018559l0.018559,-0.037118l-0.032479,-0.023199l-0.046398,0.013919l-0.032479,0.037118l0.037118,0.027839Z M2134.855395,780.584746l0.103526,-0.002465l0.152823,0.096131l0.152823,0.372199l-0.012324,0.167613l-0.071482,0.017254l-0.071482,-0.046833l-0.086271,-0.179937l-0.130639,-0.103526l-0.051763,0.007395l-0.002465,0.051763l0.093666,0.069017l0.086271,0.197192l0.118315,0.093666l0.194727,-0.039438l0.019719,-0.251419l-0.108455,-0.362339l-0.088736,-0.128174l-0.157753,-0.056693l-0.182402,0.027114l-0.024649,0.098596l0.024649,0.029579l0.041903,-0.056693Z M2134.569467,780.123811l0.093666,0.24156l-0.032044,0.069017l0.027114,0.027114l0.056693,-0.036973v-0.091201l-0.076412,-0.202121l0.002465,-0.108455l0.002465,-0.10599l-0.032044,-0.049298l-0.061622,0.00493l-0.073947,0.064087l0.012324,0.029579l0.059157,0.002465l0.019719,0.022184l-0.00493,0.051763l0.007395,0.081341Z M2133.590904,781.163996l0.032044,-0.019719l-0.019719,-0.014789l-0.032044,0.00986l-0.007395,0.022184l0.027114,0.002465Z M2128.981843,773.454098l0.176312,0.00928l0.064957,0.129914l0.120635,0.018559l0.064957,-0.129914l-0.074237,-0.120635l-0.296947,-0.074237l-0.176312,0.148474l0.018559,0.064957l0.102076,-0.046398Z M2136.656072,771.677055l0.171673,0.055678l0.139194,-0.023199l-0.027839,-0.032479h-0.106715l-0.111355,-0.097436h-0.106715l-0.027839,0.041758l0.069597,0.055678Z M2137.198929,772.038959l0.032479,-0.027839l-0.027839,-0.106715l-0.051038,-0.023199l-0.027839,0.037118l0.037118,0.097436l0.037118,0.023199Z M2138.56767,773.978396l0.120635,-0.134554l0.00928,-0.139194l-0.134554,-0.255189l-0.051038,-0.171673l0.00928,-0.097436l-0.00464,-0.134554l-0.069597,-0.162393l-0.023199,0.037118l0.037118,0.176312l-0.00928,0.120635l0.037118,0.22271l0.143834,0.278388l-0.00928,0.120635l-0.078877,0.055678l-0.023199,0.074237l0.046398,0.00928Z M2138.428476,772.809166l0.037118,-0.00928l0.013919,-0.055678l-0.037118,-0.032479l-0.027839,0.037118l0.013919,0.060317Z M2138.11297,773.078275l0.027839,-0.037118l0.00464,-0.041758l-0.051038,0.00464l-0.013919,0.051038l0.032479,0.023199Z M2138.317121,773.300985l0.041758,-0.023199l-0.018559,-0.051038l-0.055678,-0.013919l-0.013919,0.051038l0.046398,0.037118Z M2131.156363,778.397032l0.197965,0.012373l0.123728,-0.136101l0.037118,-0.216524l-0.092796,-0.24127l0.030932,-0.179406l-0.08661,-0.049491l-0.191778,0.098982l-0.253642,0.334066l0.043305,0.191778l0.191778,0.185592Z M2131.577038,777.67941l0.055678,-0.024746h0.08661l0.055678,0.06805l0.167033,0.049491l0.074237,-0.058771l-0.025919,-0.125823l-0.113275,-0.078328l-0.157753,0.00928l-0.129914,0.061864l-0.06805,0.061864l0.055678,0.037118Z M2110.667362,786.597161l-0.006203,-0.087053l0.024035,-0.031333l0.034599,0.004955l0.007414,0.071848l-0.019771,0.044595l-0.040074,-0.003012Z M2124.843141,769.565946l-0.037118,-0.120635l0.064957,-0.083516l0.111355,0.018559l0.037118,0.111355l-0.074237,0.083516l-0.102076,-0.00928Z M2101.555791,783.534746l0.037215,-0.158562l0.2419,-0.074617l0.167469,0.06529l0.018608,0.158562l-0.213989,0.186543l-0.158165,-0.055963l-0.093039,-0.121253Z M2120.16313,768.597774l0.117542,-0.296947l0.142287,-0.08661l0.266015,0.080423l0.06805,0.210338l-0.061864,0.15466l-0.228897,0.030932l-0.272202,-0.024746l-0.030932,-0.06805Z M2103.723588,782.098365l0.065127,-0.149234l0.195381,-0.121253l0.237248,-0.013991l0.186077,0.163225l0.088387,0.223852l-0.111646,0.111926l-0.139558,-0.046636l-0.060475,-0.116589l-0.125602,0.018654l-0.041867,0.093272l-0.209337,-0.027981l-0.083735,-0.135244Z M2106.806692,762.163918l-0.012373,-0.142287l0.08661,-0.030932l0.111355,0.06805l0.080423,-0.006186l0.061864,-0.15466l0.092796,0.006186l0.061864,0.179406l0.142287,0.080423l0.098982,-0.030932l0.049491,0.037118l-0.06805,0.092796l-0.296947,-0.006186l-0.142287,-0.08661l-0.049491,0.024746l-0.012373,0.074237l-0.129914,-0.018559l-0.074237,-0.08661Z M2105.416889,768.412326l0.037215,-0.090162l0.083735,-0.046636l0.037215,0.049745l-0.07133,0.077726l-0.086836,0.009327Z M2105.037381,761.316381l0.037118,-0.092796l0.061864,-0.006186l-0.006186,0.061864l-0.043305,0.049491l-0.049491,-0.012373Z M2124.796743,770.595981l0.046398,-0.092796l0.102076,-0.00928l0.027839,0.102076l-0.055678,0.083516l-0.092796,0.027839l-0.027839,-0.111355Z M2104.511537,761.495787l0.037118,-0.049491l0.136101,0.024746l0.080423,0.074237l-0.055678,0.037118l-0.129914,-0.024746l-0.06805,-0.061864Z M2124.954497,771.0878l0.074237,-0.018559l0.111355,0.027839l0.00928,0.064957l-0.111355,-0.00928l-0.083516,-0.064957Z M2128.36011,774.419177l0.055678,-0.027839l0.106715,0.041758v0.037118l-0.069597,0.013919l-0.092796,-0.064957Z M2128.318352,774.242864l0.023199,-0.041758l0.060317,0.018559l0.00464,0.055678l-0.055678,0.00464l-0.032479,-0.037118Z M2128.508583,773.769605l0.092796,0.00928l0.171673,0.278388v0.106715l-0.111355,0.032479l-0.22735,-0.083516l-0.088156,-0.139194l0.018559,-0.078877l0.102076,-0.060317l0.041758,-0.064957Z M2104.82395,761.41227l-0.00928,-0.040212l0.092796,-0.018559l0.123728,0.064957l0.142287,0.188685l-0.043305,0.030932l-0.142287,-0.074237l-0.040212,-0.123728l-0.052584,-0.024746l-0.071144,-0.003093Z M2104.171285,760.598759v-0.15466l0.191778,-0.358811l0.037118,-0.210338l0.08661,-0.061864l0.303134,0.080423l0.519658,0.389743l0.117542,0.167033l0.129914,0.470166l0.148474,0.197965l-0.06805,0.123728l-0.284574,-0.024746l-0.160846,-0.191778l-0.055678,0.030932l-0.055678,0.08661l-0.173219,-0.024746l-0.327879,-0.210338l-0.173219,-0.210338l-0.235083,-0.098982Z M2101.555791,781.184304l0.051171,-0.046636l0.055823,0.032645v0.060626l-0.079083,0.018654l-0.027912,-0.06529Z M2102.97928,781.729943l0.083735,-0.069954l0.288419,-0.004664l0.032563,0.037309l-0.190729,0.088608l-0.158165,-0.018654l-0.055823,-0.032645Z M2102.732728,781.790569l0.055823,-0.018654l0.046519,0.027981v0.037309l-0.065127,-0.009327l-0.037215,-0.037309Z M2105.174989,768.504043l0.065127,-0.051299l0.060475,-0.004664l-0.013956,0.055963l-0.065127,0.013991l-0.046519,-0.013991Z M2109.487324,766.652603l-0.055823,-0.037309l0.009304,-0.046636l0.041867,-0.004664l0.032563,0.051299l-0.027912,0.037309Z M2114.339282,783.55651l0.021709,-0.0342l0.037215,0.003109l0.015506,0.0342l-0.040317,0.021763l-0.034114,-0.024872Z M2114.792069,783.733725l0.003101,-0.055963l0.288419,-0.26116l0.155064,-0.015545l0.328736,0.198979l0.031013,0.102599l-0.099241,0.139907l-0.285318,0.080835l-0.176773,-0.068399l-0.068228,-0.087053l-0.176773,-0.0342Z M2124.02035,771.619831l0.00928,-0.160846l0.272202,-0.278388l0.368091,-0.080423l0.120635,0.049491l0.021652,0.38665l-0.030932,0.098982l0.058771,0.071144l0.151567,0.058771l-0.012373,0.117542l-0.111355,0.173219l-0.018559,0.22271l0.018559,0.049491l-0.071144,0.08661l-0.151567,-0.018559l-0.210338,-0.216524l-0.037118,-0.080423l-0.111355,-0.021652l-0.06805,-0.111355l0.046398,-0.102076l-0.244363,-0.244363Z M2119.971351,769.00917l0.049491,-0.071144l0.290761,0.061864l0.22271,0.16394l0.06805,0.219617l0.00928,0.287668l-0.111355,0.105169l-0.136101,-0.030932l-0.08661,0.055678l-0.074237,0.092796l-0.151567,-0.046398l-0.114448,-0.24127l0.046398,-0.185592l0.095889,-0.095889l-0.003093,-0.139194l-0.105169,-0.176312Z M2137.363923,786.154778l0.043094,-0.043305l-0.036938,-0.043305l-0.04925,-0.006186l-0.006156,0.061864l0.04925,0.030932Z M2138.182705,787.905529l0.061563,-0.216524l-0.030781,-0.228897l-0.110813,-0.092796l-0.092344,0.043305l0.006156,0.204151l0.092344,0.290761h0.073875Z M2112.2087,770.957083l0.079083,-0.051299l0.027912,-0.083944l-0.037215,-0.023318l-0.041867,0.023318l-0.074431,0.116589l0.046519,0.018654Z M2123.638481,779.132331l0.069779,-0.032645l-0.032563,-0.027981h-0.051171l-0.032563,0.046636l0.046519,0.013991Z M2120.200708,778.793445h0.043418l0.021709,-0.021763l-0.012405,-0.031091h-0.049621l-0.02481,0.0342l0.021709,0.018654Z M2121.084574,778.417249l0.12095,-0.021763l0.02481,-0.115035l-0.046519,-0.108817l-0.105444,-0.024872l-0.07133,0.049745l-0.018608,0.146125l0.09614,0.074617Z M2120.24046,769.906198l-0.024746,0.213431l0.058771,0.120635l0.157753,0.040212l0.114448,0.120635l0.027839,0.269108l0.210338,0.201058l0.139194,0.006186l0.15466,-0.15466l0.003093,-0.24127l-0.160846,-0.191778l-0.204151,-0.037118l-0.173219,-0.120635l-0.049491,-0.216524l-0.120635,-0.08661l-0.071144,0.015466l-0.061864,0.061864Z M2123.46636,778.698618l0.065127,0.093272l-0.051171,0.102599l0.046519,0.079281l0.200033,-0.013991l0.162817,-0.19587l-0.018608,-0.181879l-0.148862,-0.149234l-0.106994,-0.009327l-0.209337,0.144571l-0.02326,0.107262l0.083735,0.023318Z M2123.447752,778.442122l0.041867,-0.037309l-0.027912,-0.060626l-0.074431,-0.055963l-0.032563,0.032645l0.032563,0.088608l0.060475,0.032645Z M2123.340758,779.020405l0.074431,0.060626l0.065127,0.013991l-0.004652,-0.069954l-0.106994,-0.107262l-0.102342,0.037309l-0.004652,0.055963l0.079083,0.009327Z M2122.898825,779.384164l0.046519,-0.018654l0.013956,-0.032645l-0.069779,-0.009327l-0.037215,0.037309l0.046519,0.023318Z M2123.229112,779.160312l0.065127,-0.004664l0.013956,-0.041972l-0.083735,-0.009327l-0.051171,0.027981l0.055823,0.027981Z M2112.538987,770.779867l0.12095,0.009327l0.106994,-0.037309l0.009304,-0.074617l0.055823,-0.032645l0.200033,0.041972l0.125602,0.055963l0.400066,0.023318l0.106994,-0.051299l0.102342,0.004664l0.051171,0.046636l0.162817,0.009327l0.093039,-0.083944l-0.037215,-0.055963l-0.176773,0.023318l-0.102342,-0.027981l-0.060475,-0.121253l-0.390762,-0.186543l-0.186077,-0.009327l-0.334939,0.251833l-0.237248,0.06529l-0.181425,0.177216l0.032563,0.037309l0.139558,-0.06529Z M2137.973392,787.243584l0.055406,-0.049491l-0.030781,-0.06805l-0.043094,0.006186l-0.036938,0.080423l0.055406,0.030932Z M2137.370079,785.950627l-0.006156,-0.296947l-0.030781,-0.129914l-0.0985,-0.111355l-0.018469,-0.105169l-0.067719,-0.117542l-0.043094,0.030932l0.04925,0.22271l0.116969,0.15466l0.055406,0.334066l0.043094,0.018559Z M2137.45011,786.284692l0.012313,0.092796l0.04925,0.024746l0.018469,-0.049491l-0.055406,-0.105169l-0.024625,0.037118Z M2107.057468,767.358358l0.055823,-0.049745l0.093039,0.006218l0.037215,0.105708l0.161267,-0.043527l0.074431,-0.13058l0.328736,-0.211415l0.403167,-0.062181l0.285318,-0.149234l0.068228,-0.143016l0.198482,0.006218l0.465193,0.329559l0.372154,0.062181l0.136456,0.143016l0.570636,0.211415l0.093039,0.111926l0.037215,0.385522l-0.062026,0.485012l0.043418,0.080835l-0.043418,0.093272l-0.514813,0.180325l-0.111646,-0.006218l-0.055823,-0.087053h-0.117849l-0.105444,0.049745l-0.403167,-0.049745l-0.142659,0.080835l-0.347344,-0.037309l-0.372154,-0.248724l-0.210887,-0.267378l-0.086836,-0.317123l-0.204685,-0.167889l-0.521016,-0.093272l-0.117849,-0.167889l-0.006203,-0.09949Z M2112.101706,769.268869v-0.060626l-0.195381,-0.177216l-0.2419,-0.060626l-0.065127,0.037309l0.074431,0.135244l0.316331,0.13058l0.111646,-0.004664Z M2111.255056,769.063672l0.060475,-0.027981l0.12095,-0.163225l-0.069779,-0.088608l-0.38611,-0.102599l-0.065127,0.032645l0.018608,0.069954l0.162817,0.051299l0.111646,0.088608l0.046519,0.139907Z M2110.636349,768.121629l0.041867,-0.046636l-0.02326,-0.046636l-0.060475,0.013991l-0.009304,0.06529l0.051171,0.013991Z M2110.34793,767.230886l0.046519,-0.004664l-0.013956,-0.051299l-0.060475,-0.032645l-0.041867,0.032645l0.069779,0.055963Z M2110.529355,767.36613l0.102342,0.060626l0.051171,-0.027981l-0.018608,-0.069954l-0.106994,-0.079281l-0.051171,0.037309l0.02326,0.079281Z M2110.7573,767.562l0.074431,0.279815l0.106994,0.149234l0.074431,0.013991v-0.097935l-0.158165,-0.387077l-0.139558,-0.074617l-0.032563,0.037309l0.074431,0.079281Z M2110.985244,768.298845l0.074431,-0.009327l-0.004652,-0.102599l-0.060475,-0.046636l-0.060475,0.032645l-0.02326,0.088608l0.074431,0.037309Z M2110.375842,768.760539l0.046519,-0.046636l-0.027912,-0.041972l-0.088387,0.013991v0.055963l0.069779,0.018654Z M2110.580526,768.77453l0.004652,-0.046636l-0.065127,-0.037309l-0.041867,0.023318l0.027912,0.069954l0.074431,-0.009327Z M2110.668913,768.690586l0.046519,-0.032645l-0.055823,-0.111926l-0.046519,-0.009327l-0.027912,0.055963l0.032563,0.079281l0.051171,0.018654Z M2110.971288,768.471398l0.009304,-0.046636l-0.02326,-0.046636l-0.032563,0.032645l0.013956,0.069954l0.032563,-0.009327Z M2111.631861,768.690586l0.055823,-0.027981l0.02326,-0.041972l-0.060475,-0.037309l-0.060475,0.013991l-0.013956,0.06529l0.055823,0.027981Z M2111.952844,768.690586l0.037215,-0.037309l-0.027912,-0.041972l-0.041867,0.004664l-0.013956,0.051299l0.046519,0.023318Z M2112.059839,769.059008l0.055823,-0.097935l0.088387,-0.013991l0.046519,-0.055963l-0.083735,-0.116589l-0.055823,0.004664l-0.106994,0.125917l0.009304,0.149234l0.046519,0.004664Z M2111.427177,768.606641l0.041867,-0.055963l-0.065127,-0.223852l-0.102342,-0.041972l-0.12095,0.069954l0.02326,0.102599l0.12095,0.107262l0.102342,0.041972Z M2137.457806,785.568616l0.03232,0.371184l0.110813,0.487179l0.120047,0.204151l0.106195,0.417582l0.064641,0.055678l0.069258,-0.060317l0.036938,-0.153113l0.069258,-0.083516l0.036938,0.018559l-0.041555,0.074237l0.018469,0.088156l0.073875,0.00928l0.096961,-0.102076l0.083109,-0.269108l0.018469,-0.111355l-0.023086,-0.111355l0.055406,-0.46398l0.120047,-0.482539l-0.101578,-0.24127l-0.166219,-0.060317l-0.046172,-0.125275l0.018469,-0.194872v-0.208791l-0.120047,-0.194872l-0.018469,-0.185592l-0.124664,-0.092796l-0.189305,-0.00464l-0.046172,0.106715l-0.438633,0.4547l-0.064641,0.218071l0.041555,0.018559l0.120047,-0.125275l0.133899,-0.018559l0.060024,0.115995l-0.087727,0.055678l-0.018469,0.069597l0.055406,0.083516l0.004617,0.357265l-0.060024,0.083516Z M2146.498272,794.166166l-0.092344,-0.139194l-0.170836,-0.060317l-0.156985,-0.148474l-0.050789,-0.208791l-0.235477,-0.306227v-0.139194l-0.064641,-0.097436l-0.369376,-0.134554l-0.304735,-0.436141l-0.281649,-0.153113l-0.055406,-0.120635l-0.138516,-0.088156l0.009234,-0.129914l-0.073875,-0.139194l-0.073875,-0.013919l-0.036938,0.088156l0.069258,0.143834l-0.018469,0.069597l-0.337055,0.018559l-0.138516,-0.088156l0.013852,-0.069597l-0.027703,-0.143834l-0.083109,-0.046398l-0.073875,0.055678l-0.152367,-0.00928l-0.253946,-0.180952l-0.258563,-0.357265l-0.120047,-0.649572l-0.341672,-0.324786l-0.180071,-0.00464l-0.087727,-0.037118l-0.064641,-0.185592l-0.434016,-0.347985l-0.166219,0.00928l-0.110813,-0.055678l-0.092344,-0.371184l-0.013852,-0.324786l-0.041555,-0.129914l-0.217008,-0.139194l-0.217008,-0.417582l-0.092344,-0.078877l-0.009234,-0.162393l-0.073875,-0.157753l-0.124664,-0.078877l0.013852,-0.167033l-0.087727,-0.097436l-0.078492,0.018559l-0.078492,0.074237l-0.073875,-0.013919l-0.055406,-0.069597l-0.655642,-0.041758l-0.096961,0.037118l-0.193922,-0.055678l-0.096961,-0.148474l-0.078492,-0.027839l-0.087727,0.013919l-0.258563,-0.171673l-0.050789,-0.115995l-0.318586,-0.278388l-0.110813,-0.027839l-0.120047,0.069597l-0.106195,0.120635l0.067719,0.114448l0.153906,0.049491l0.283188,0.253642l0.086188,0.303134l-0.018469,0.191778l-0.067719,0.012373l-0.0985,-0.117542l-0.04925,0.043305l0.055406,0.210338l-0.043094,0.204151l-0.080031,0.105169l-0.012313,0.160846l0.061563,0.117542l-0.012313,0.15466l-0.135438,0.148474l0.006156,0.235083l0.178532,0.191778l0.129281,0.321693l-0.012313,0.142287l-0.067719,0.129914v0.266015l0.184688,0.24127l0.24625,0.111355l0.080031,0.098982l0.055406,0.160846l0.320125,0.228897l0.34475,0.160846l0.221625,0.253642l0.012313,0.402116l0.0985,0.160846l0.332438,0.160846l0.0985,0.123728l0.110813,0.055678l0.584845,0.123728l0.307813,0.142287l0.153906,0.204151l0.024625,0.235083l-0.129281,0.210338l0.018469,0.092796l0.184688,0.179406l-0.006156,0.136101l-0.141594,0.439234l-0.086188,0.043305l-0.172375,-0.06805l-0.055406,0.024746l0.043094,0.148474l0.338594,0.358811l0.116969,0.204151l0.215469,0.204151l0.221625,0.129914l0.116969,0.129914l0.110813,0.210338l0.289344,0.15466l0.621782,0.445421l0.363219,0.173219l0.640251,0.142287l0.14775,-0.049491l0.110813,0.006186l0.209313,0.129914l0.080031,-0.012373l0.406313,-0.482539l0.289344,-0.247456l0.197,-0.049491l0.104656,0.049491l0.006156,0.111355l0.061563,0.006186l0.221625,-0.259829l0.018469,-0.129914l0.043094,-0.012373l0.04925,0.080423l-0.061563,0.235083l-0.055406,0.055678l0.006156,0.080423l0.080031,0.018559l0.227782,-0.24127l0.086188,-0.327879l-0.043094,-0.22271l-0.197,-0.296947l-0.04925,-0.303134l0.047711,-0.426862Z M2144.799144,792.133934l0.023086,-0.051038l-0.050789,-0.120635l-0.073875,-0.018559l-0.03232,0.051038l0.055406,0.111355l0.078492,0.027839Z M2144.868402,791.948342l-0.009234,-0.055678l-0.050789,-0.00928l-0.013852,0.041758l0.03232,0.046398l0.041555,-0.023199Z M2118.646965,772.729242l0.083735,0.177216l0.093039,0.083944l0.441933,0.200534l0.251204,0.214524l0.12095,0.055963l0.409369,0.345105l0.427977,0.158562l0.158165,-0.027981l0.288419,0.13058l0.423325,0.121253l0.237248,-0.009327l0.195381,0.093272l0.325635,0.233179l0.027912,0.097935l0.060475,0.046636l0.213989,0.088608l0.09769,0.107262l0.069779,0.172552l0.330287,0.233179l-0.032563,0.200534l0.027912,0.116589l0.493104,0.461694l0.055823,0.233179l0.213989,0.228515l0.26516,0.111926l0.055823,0.079281l0.009304,0.083944l0.237248,0.415058l0.148862,0.102599l0.269812,0.494339l0.074431,0.256497l-0.027912,0.083944l0.027912,0.069954l0.111646,0.074617l0.046519,0.144571l0.260508,0.345105v0.116589l-0.060475,0.074617l-0.004652,0.074617l0.083735,0.135244l0.013956,0.32645l-0.051171,0.13058l0.004652,0.144571l0.051171,0.251833l-0.09769,0.363759l-0.130254,0.088608l-0.027912,0.158562l0.116298,0.205197l0.074431,0.387077l0.190729,0.181879l0.074431,0.340441l-0.013956,0.200534l0.153514,0.125917l0.158165,-0.018654l0.125602,0.083944l0.116298,0.200534l-0.055823,0.069954l0.037215,0.051299l0.09769,0.018654l0.167469,0.242506l0.134906,0.051299l0.134906,0.209861l-0.009304,0.167889l0.051171,0.041972l0.09769,-0.135244l-0.004652,-0.223852l0.051171,-0.037309l0.111646,0.060626l0.041867,-0.004664l-0.004652,-0.102599l0.269812,-0.233179l0.041867,-0.219188l0.093039,-0.125917l0.116298,-0.046636l0.055823,-0.041972l-0.013956,-0.228515l0.037215,-0.083944l0.200033,-0.181879l0.069779,-0.111926l-0.02326,-0.284478l0.027912,-0.088608l-0.032563,-0.051299l-0.083735,-0.032645l-0.088387,-0.135244l-0.013956,-0.139907l0.172121,-0.298469l0.2419,-0.219188l0.172121,-0.060626l0.02326,-0.163225l-0.074431,-0.13058l-0.004652,-0.06529l0.037215,-0.083944v-0.363759l-0.176773,-0.340441l-0.176773,-0.060626l-0.158165,-0.135244v-0.079281l0.032563,-0.074617l-0.009304,-0.083944l-0.125602,-0.060626l-0.093039,-0.293805l-0.38611,-0.405731l0.013956,-0.191207l-0.093039,-0.219188l-0.093039,-0.009327l-0.093039,0.102599l-0.172121,0.009327l-0.181425,-0.121253l-0.167469,-0.270487l-0.088387,-0.340441l0.037215,-0.116589l-0.153514,-0.055963l-0.102342,0.051299l-0.09769,0.135244l-0.148862,0.023318l-0.36285,-0.111926l-0.060475,-0.102599l-0.311679,-0.220743l-0.254305,0.018654l-0.269812,-0.115035l-0.093039,-0.167889l0.049621,-0.083944l-0.006203,-0.214524l-0.182976,-0.223852l-0.09614,-0.357541l-0.080633,-0.071508l-0.14576,-0.006218l-0.136456,0.143016l-0.170571,0.040418l-0.037215,-0.012436l-0.052722,-0.317123l-0.223292,-0.192761l-0.117849,-0.012436l-0.018608,-0.046636l0.052722,-0.161671l-0.046519,-0.115035l-0.245001,-0.183434l-0.226394,-0.052854l-0.276014,-0.192761l-0.272913,-0.13058l-0.037215,-0.115035l-0.080633,-0.093272l-0.117849,-0.052854l-0.170571,-0.236288l-0.049621,-0.16478l-0.151963,-0.19587l-0.210887,-0.105708l-0.14576,-0.152343l-0.046519,-0.13058l0.040317,-0.059072l-0.009304,-0.068399l-0.077532,-0.027981l-0.043418,0.043527l-0.052722,0.003109l-0.037215,-0.068399l-0.195381,-0.062181l-0.167469,0.052854l-0.077532,-0.027981l-0.065127,-0.161671l-0.223292,-0.074617l-0.158165,0.031091l-0.517914,-0.077726l-0.170571,-0.102599l-0.058924,-0.158562l0.021709,-0.108817l-0.027912,-0.009327l-0.080633,0.037309l-0.12095,0.009327l-0.161267,-0.127471l-0.07133,-0.251833l-0.334939,-0.301578l-0.158165,-0.003109l-0.300825,-0.13058l-0.124051,-0.152343l-0.381458,-0.189652l-0.173672,-0.006218l-0.139558,-0.127471l-0.055823,-0.149234l-0.257407,-0.202088l-0.173672,-0.024872l-0.124051,0.055963l-0.186077,-0.043527l-0.068228,-0.111926l-0.291521,-0.093272l-0.254305,0.080835l-0.198482,-0.018654l-0.223292,-0.186543l0.006203,-0.267378l-0.223292,-0.205197l-0.223292,-0.012436l-0.415572,-0.223852l-0.093039,-0.236288l-0.173672,-0.111926l-0.161267,0.012436l-0.272913,-0.087053l-0.093039,-0.149234l-0.396964,-0.254942l-0.186077,-0.062181l-0.235698,-0.292251l-0.136456,0.012436l-0.080633,0.242506l0.02481,0.136798l0.248103,0.192761l0.21709,-0.024872l0.068228,0.049745l-0.148862,0.13058l0.062026,0.074617l0.155064,-0.012436l0.049621,0.055963l-0.148862,0.118144l-0.223292,-0.037309l-0.111646,0.037309l-0.099241,0.143016l-0.099241,0.024872l-0.26671,-0.093272l-0.124051,0.006218l-0.062026,0.09949l0.080633,0.118144l0.446585,0.217634l0.272913,0.043527l0.372154,-0.124362l0.601649,0.087053l0.19228,0.211415l0.19228,0.09949l0.198482,0.024872l0.235698,0.118144l0.186077,0.273596l0.099241,0.062181l0.198482,0.043527l0.341141,0.298469l0.093039,0.021763l0.452787,0.307796l0.182976,0.018654l0.533421,0.348214l0.12095,0.254942l0.235698,0.208306l0.235698,0.040418l0.353546,0.203643l0.209337,0.037309l0.227944,0.149234l0.465193,0.540975Z M2100.918477,791.243636l0.083735,-0.037309l0.083735,-0.097935l-0.018608,-0.111926l-0.046519,0.018654l-0.018608,0.083944l-0.055823,0.023318l-0.054272,-0.073063l-0.238799,-0.010882l-0.414021,-0.149234l-0.234147,-0.144571h-0.068228l-0.086836,0.068399l-0.055823,-0.031091l0.02481,-0.074617l0.105444,-0.093272l-0.006203,-0.074617l-0.26671,-0.217634l-0.198482,-0.031091l-0.111646,0.105708l-0.161267,0.093272l-0.02481,-0.049745l0.136456,-0.155453l-0.012405,-0.198979l-0.080633,-0.074617l-0.093039,0.031091l-0.136456,-0.037309l-0.055823,-0.093272l-0.117849,-0.031091l-0.198482,0.012436l-0.148862,-0.068399l-0.037215,-0.149234l-0.130254,-0.068399l-0.167469,0.024872l-0.099241,0.124362l-0.099241,0.012436l-0.173672,-0.074617l-0.055823,-0.124362l-0.155064,-0.068399l-0.607852,-0.161671l-0.421775,-0.323341l-0.198482,-0.39174l-0.012405,-0.217634l0.117849,-0.279815l0.043418,-0.404177l0.161267,-0.397958l0.322533,-0.161671l0.316331,0.024872l0.415572,0.317123l0.068228,0.167889l0.142659,0.080835l0.235698,-0.049745l0.384559,-0.310905l0.570636,0.018654l0.384559,0.223852l0.334939,0.006218l0.260508,-0.217634l0.415572,-0.149234l0.471395,0.024872l0.21709,0.149234l0.713295,0.267378l0.347344,0.105708l0.018608,0.074617l-0.055823,0.074617l0.117849,0.080835h0.19228l0.384559,-0.124362h0.446585l0.130254,-0.124362l0.099241,-0.006218l0.093039,0.049745h0.142659l0.049621,-0.049745h0.068228l0.080633,0.068399l0.111646,-0.012436l0.167469,-0.161671l0.347344,-0.167889l0.303926,-0.018654l0.155064,-0.062181l0.19228,-0.018654l0.02481,-0.105708l-0.099241,-0.062181l0.049621,-0.043527l0.130254,0.031091l0.055823,0.118144l-0.062026,0.223852l-0.074431,0.080835l0.062026,0.087053l0.229495,0.031091l0.347344,-0.143016l0.068228,-0.217634l0.099241,-0.024872l0.080633,0.09949l0.204685,0.012436l0.124051,0.105708l0.21709,-0.012436l0.353546,-0.304687l0.173672,-0.397958l-0.062026,-0.09949l-0.173672,-0.037309l-0.179874,-0.279815l0.055823,-0.242506l0.310128,-0.286033l0.179874,-0.024872l0.086836,-0.087053l0.037215,-0.155453l0.117849,-0.136798l-0.006203,-0.13058l-0.167469,-0.223852l0.031013,-0.174107l0.155064,-0.167889l0.012405,-0.143016l-0.055823,-0.167889l0.080633,-0.248724l0.254305,-0.118144l0.365951,0.018654l0.384559,0.273596l0.02481,0.143016l-0.148862,0.211415l-0.533421,0.186543l-0.136456,0.149234l-0.02481,0.198979l0.105444,0.111926l0.031013,0.23007l-0.093039,0.23007l-0.272913,0.118144l-0.012405,0.09949l0.142659,0.093272l0.049621,0.149234v0.223852l0.204685,0.248724l0.117849,0.547193l-0.037215,0.136798l0.006203,0.093272l0.347344,0.186543l0.142659,0.012436l0.117849,-0.049745l0.272913,0.006218l0.080633,0.068399l0.210887,0.031091l0.130254,-0.031091l0.334939,-0.410395l0.279116,-0.13058l0.148862,-0.205197l0.204685,-0.093272l0.396964,0.037309l0.4838,0.292251l0.136456,0.366868l0.130254,0.087053l0.396964,-0.031091l0.279116,-0.136798l0.173672,-0.323341l-0.043418,-0.074617l0.148862,-0.074617l0.322533,0.018654l0.173672,0.211415l0.26671,0.037309l0.260508,-0.13058l0.490003,-0.410395l0.111646,-0.254942l-0.043418,-0.174107l0.099241,-0.404177l0.136456,-0.155453l0.19228,-0.553411l0.198482,-0.26116l0.328736,-0.198979l0.353546,-0.36065l0.204685,-0.286033l0.260508,-0.198979l0.490003,-0.174107l0.031013,-0.223852l0.099241,-0.055963l0.707093,0.242506l0.124051,-0.012436l0.148862,-0.09949l0.204685,0.012436l0.19228,0.180325l0.136456,0.012436l0.334939,-0.174107l0.272913,-0.429049l0.006203,-0.460139l-0.173672,-0.223852l-0.02481,-0.410395l0.055823,-0.236288l-0.062026,-0.379304l-0.111646,-0.074617l-0.155064,-0.310905l0.068228,-0.304687l-0.055823,-0.267378l-0.521016,-0.553411v-0.23007l-0.148862,-0.186543l-0.012405,-0.118144l0.055823,-0.037309l-0.006203,-0.111926l-0.179874,-0.354432l0.055823,-0.186543l0.272913,-0.062181l0.2419,0.062181l0.806334,0.024872l0.173672,0.055963l0.70089,0.043527l0.117849,0.124362l0.006203,0.124362l-0.086836,0.037309l-0.012405,0.09949l0.347344,0.292251l0.167469,0.031091l0.074431,0.049745l0.186077,0.018654l0.384559,-0.254942l0.117849,-0.279815l-0.086836,-0.09949l-0.19228,-0.087053l-0.068228,-0.143016l0.068228,-0.105708l0.285318,0.012436l0.198482,0.074617l0.347344,0.012436l0.130254,-0.093272l0.111646,-0.317123l0.080633,-0.024872l0.235698,0.205197l0.204685,0.416613l-0.031013,0.09949l-0.155064,-0.006218l-0.148862,-0.155453l-0.031013,-0.118144l-0.093039,0.006218l-0.093039,0.136798l0.037215,0.13058l0.105444,0.087053l-0.012405,0.111926l-0.055823,0.037309v0.080835l0.161267,0.105708l0.148862,-0.074617l0.099241,0.024872l0.303926,0.242506h0.490003l0.322533,-0.105708l0.068228,0.093272l-0.142659,0.404177l-0.124051,0.074617l-0.049621,0.111926l0.006203,0.149234l-0.136456,0.298469l0.02481,0.223852l0.198482,0.298469l0.012405,0.167889l0.062026,0.13058l0.006203,0.422831l-0.055823,0.13058l-0.037215,0.472576l-0.148862,0.136798l-0.161267,0.416613l-0.186077,0.167889l-0.372154,0.509884l-0.148862,0.074617l-0.272913,0.043527l-0.124051,0.080835h-0.19228l-0.415572,-0.136798l-0.229495,0.012436l-0.055823,0.093272l-0.055823,0.006218l-0.105444,-0.055963l-0.186077,0.006218l-0.093039,0.13058v0.174107l0.093039,0.111926l-0.012405,0.124362l-0.093039,0.211415l0.037215,0.329559l0.347344,0.366868l0.322533,0.167889l0.111646,0.111926l0.074431,0.205197l0.303926,0.273596l0.043418,0.298469l-0.117849,0.310905l-0.173672,0.155453l-0.006203,0.13058l-0.068228,0.037309l-0.179874,0.012436l-0.353546,0.167889l-0.213989,0.264269l-0.344242,0.088608l-0.055823,0.088608l-0.134906,0.051299l-0.134906,-0.041972l-0.088387,0.032645l-0.051171,0.111926l-0.167469,0.121253l-0.181425,-0.013991l-0.232596,-0.149234l-0.069779,-0.177216l-0.172121,-0.111926l-0.320983,-0.037309l-0.139558,0.079281l-0.148862,0.270487l-0.093039,0.009327l-0.167469,-0.205197l-0.093039,-0.032645h-0.316331l-0.195381,-0.069954l-0.195381,0.051299l-0.083735,0.177216l-0.037215,0.251833l0.116298,0.228515l0.260508,0.06529l0.060475,0.13058l-0.02326,0.177216l-0.167469,0.069954l-0.204685,-0.013991l-0.232596,0.074617l-0.130254,0.26116l-0.060475,0.345105l-0.307027,0.228515l-0.181425,0.041972l-0.223292,0.228515l-0.26516,0.181879l-0.134906,0.013991l-0.027912,0.037309l-0.027912,0.158562l-0.176773,0.200534l-0.139558,0.009327l-0.09769,-0.079281l-0.083735,0.023318l-0.106994,0.093272l-0.334939,0.088608l-0.102342,0.093272l-0.065127,0.158562l-0.213989,0.088608l-0.055823,-0.032645l-0.055823,-0.097935l-0.116298,0.004664l-0.083735,0.041972l-0.186077,0.009327l-0.204685,-0.032645l-0.381458,0.107262l-0.083735,0.083944l-0.079083,-0.013991l-0.055823,-0.069954l-0.162817,-0.037309l-0.09769,0.051299l-0.013956,0.111926l0.055823,0.093272l-0.013956,0.107262l-0.232596,0.233179l-0.237248,0.041972l-0.502408,0.223852l-0.046519,-0.027981l0.013956,-0.093272l-0.065127,-0.037309l-0.079083,0.027981l-0.060475,0.149234l-0.334939,0.186543l-0.083735,0.125917l-0.255856,0.121253l-0.167469,0.219188l-0.093039,0.027981l-0.12095,-0.009327l-0.116298,0.041972l-0.106994,0.097935l-0.200033,0.018654l-0.102342,-0.088608l-0.063576,-0.013991l-0.049621,0.09949l-0.080633,0.012436l-0.124051,-0.055963l-0.082184,-0.004664l-0.204685,0.079281l-0.21864,-0.046636l-0.079083,-0.121253l-0.200033,-0.13058l-0.148862,-0.009327l-0.167469,0.153898l-0.176773,0.046636l-0.14421,0.121253l-0.09769,-0.046636l-0.074431,-0.209861l-0.139558,-0.009327l-0.125602,0.149234l0.009304,0.060626l0.074431,0.023318l-0.004652,0.060626l-0.186077,0.125917l-0.041867,-0.037309l0.041867,-0.093272l-0.041867,-0.046636l-0.111646,-0.009327l-0.106994,-0.06529l-0.013956,-0.074617l-0.111646,-0.027981l-0.116298,0.093272l-0.158165,0.088608h-0.116298l-0.093039,-0.074617l-0.09769,-0.004664l-0.065127,0.06529l-0.083735,0.009327l-0.148862,-0.037309l-0.511712,-0.041972l-0.432629,0.079281l-0.246552,-0.009327l-0.09769,0.051299l-0.093039,-0.009327l-0.320983,-0.265824l-0.093039,-0.331114l-0.032563,0.013991l-0.013956,0.069954l-0.037215,-0.004664l-0.079083,-0.186543l-0.288419,-0.345105l-0.032563,-0.214524l-0.055823,-0.027981l-0.14421,0.009327l-0.381458,-0.125917l-0.260508,-0.111926l-0.330287,-0.004664l-0.232596,0.069954l-0.130254,0.143016l-0.124051,0.038863l-0.26671,-0.024872l-0.179874,0.049745l-0.186077,0.254942l-0.148862,0.09949l-0.210887,-0.006218l-0.136456,0.080835l-0.074431,-0.037309l-0.02481,-0.111926l0.049621,-0.136798l-0.018608,-0.118144l-0.161267,-0.055963l-0.052722,-0.096381l0.02326,-0.125917Z M2103.689474,787.641802l0.037215,-0.049745l0.062026,0.006218l0.006203,0.062181l-0.055823,0.018654l-0.049621,-0.037309Z M2107.814181,786.217857l0.018608,-0.087053l0.111646,-0.031091l0.086836,0.055963l-0.006203,0.09949l-0.130254,0.031091l-0.080633,-0.068399Z M2107.919625,792.796607l0.055823,0.006218l0.031013,0.09949l-0.031013,0.043527l-0.068228,-0.062181l0.012405,-0.087053Z M2107.138102,792.85257l0.068228,-0.087053l0.062026,0.006218l-0.006203,0.049745l-0.086836,0.049745l-0.037215,-0.018654Z M2106.021639,792.95206l0.018608,-0.043527l0.055823,-0.012436l0.037215,0.049745l-0.068228,0.024872l-0.043418,-0.018654Z M2109.33381,792.815261l0.031013,-0.031091l0.074431,0.006218l0.037215,0.043527l-0.086836,0.006218l-0.055823,-0.024872Z M2109.538495,792.790389l0.043418,-0.037309l0.049621,0.006218l0.006203,0.049745l-0.055823,0.024872l-0.043418,-0.043527Z M2106.561263,792.989368l0.043418,-0.031091l0.049621,0.012436l0.012405,0.049745l-0.062026,0.012436l-0.043418,-0.043527Z M2100.402114,792.069089l0.099241,-0.055963l0.068228,0.012436v0.062181l-0.099241,0.031091l-0.068228,-0.049745Z M2100.600596,791.919855l-0.012405,-0.111926l-0.068228,-0.074617l0.037215,-0.043527l0.086836,0.018654l0.043418,0.080835l-0.037215,0.09949l-0.049621,0.031091Z M2101.115409,792.081525l-0.012405,-0.068399l0.055823,-0.018654l0.031013,0.043527l-0.018608,0.055963l-0.055823,-0.012436Z M2100.935534,791.571641l0.049621,-0.037309l0.055823,0.024872l-0.006203,0.055963h-0.074431l-0.02481,-0.043527Z M2099.955529,790.806815l0.055823,-0.018654l0.055823,0.043527l-0.012405,0.049745l-0.068228,-0.024872l-0.031013,-0.049745Z M2100.80528,791.696003l0.043418,-0.043527l0.062026,0.037309l0.006203,0.049745l-0.074431,0.006218l-0.037215,-0.049745Z M2100.80528,791.882546l0.049621,-0.043527l0.080633,0.012436l-0.006203,0.049745l-0.062026,0.012436l-0.062026,-0.031091Z M2100.718444,791.385098l0.043418,-0.049745l0.068228,0.024872l0.018608,0.049745l-0.068228,0.012436l-0.062026,-0.037309Z M2104.160869,792.913196l0.018608,-0.041972l0.032563,-0.009327l0.02326,0.037309l-0.037215,0.032645l-0.037215,-0.018654Z M2104.416725,792.316259l0.02326,0.046636l-0.009304,0.04819l-0.037215,0.003109l-0.009304,-0.074617l0.032563,-0.023318Z M2104.528371,792.577419l0.037215,0.046636l-0.018608,0.037309l-0.051171,-0.032645l-0.003101,-0.052854l0.035665,0.001555Z M2104.439985,792.512129l-0.009304,-0.041972l0.046519,-0.004664l0.02326,0.037309l-0.027912,0.032645l-0.032563,-0.023318Z "/>
</svg>
