<svg xmlns="http://www.w3.org/2000/svg" viewBox="2046.816 756.840 88.980 71.668">
  <path d="M2130.081291,826.214935l0.150252,0.043262l0.194076,0.154509l-0.031303,0.043262l-0.181555,-0.024721l-0.294244,-0.129787l0.006261,-0.061803l0.156513,-0.024721Z M2134.030543,826.193738l0.049888,-0.007387l0.014967,-0.022162l-0.032427,-0.017237l-0.029933,-0.002462l-0.034922,0.012312l-0.002494,0.022162l0.034922,0.014775Z M2133.862634,826.709362l0.131471,0.142148l0.194076,0.092705l0.313025,0.018541l0.150252,-0.067984l0.006261,-0.086525l0.043824,-0.00618l0.093908,0.086525l0.237899,-0.049443l0.106429,-0.043262l0.237899,0.024721l0.150252,0.092705l0.081387,0.00618l0.162773,-0.092705l0.025042,-0.166869l-0.062605,-0.228673l-0.112689,-0.142148l-0.24416,-0.117426l-0.050084,-0.074164l-0.062605,-0.018541l-0.062605,0.037082l-0.319286,0.012361l-0.281723,-0.043262l-0.281723,0.030902l-0.018782,0.086525l0.319286,0.191591l0.018782,0.067984l-0.137731,0.061803h-0.381891l-0.137731,-0.098885l-0.050084,0.018541v0.074164l-0.206597,0.055623v0.080344l0.137731,0.055623Z M2127.747689,824.926334l0.262941,0.115881l0.032868,-0.023176l-0.131471,-0.106611l-0.220683,-0.064894l-0.032868,0.018541l0.089212,0.060258Z M2126.963561,823.062961l0.220683,0.074164l0.042258,-0.013906l-0.178424,-0.106611l-0.103298,-0.023176l-0.032868,0.032447l0.051649,0.037082Z M2128.808844,826.224205l0.023477,0.027812l0.093908,-0.041717l0.042258,-0.046353l-0.009391,-0.078799l-0.06104,-0.013906l-0.042258,0.032447l-0.018782,0.078799l-0.028172,0.041717Z M2132.335072,828.305435l0.075126,-0.050988l-0.004695,-0.083435l-0.18312,-0.190045l0.014086,-0.09734l-0.046954,-0.023176h-0.117384l-0.098603,-0.092705l-0.126775,-0.199316l-0.079821,-0.037082h-0.070431l-0.089609,-0.050128l-0.102902,-0.024036h-0.084517l-0.215987,-0.046353l-0.225378,-0.08807l-0.164338,-0.018541l-0.37563,-0.139058l-0.056345,-0.060258l-0.103298,-0.046353h-0.098603l-0.234769,-0.08807l-0.042258,-0.055623l-0.037563,-0.013906h-0.075126l-0.248855,-0.092705l-0.075126,-0.08807l-0.12208,-0.083435l-0.103298,0.013906l-0.046954,-0.018541l-0.018782,-0.064894l-0.042258,-0.018541l-0.103298,0.027812l-0.103298,-0.046353l-0.103298,-0.09734l-0.19251,-0.106611l-0.023477,-0.037082h-0.084517l-0.06104,0.120517l-0.06104,0.032447l-0.018782,0.143693l0.107994,0.162234l0.12208,0.032447l0.014086,0.041717l-0.023477,0.106611l0.098603,0.101976l0.131471,-0.023176l0.075126,0.046353l0.014086,0.08807l0.093908,0.08807l0.19251,0.050988l0.018782,0.037082l-0.046954,0.046353l-0.169034,0.078799l0.004695,0.041717l0.117384,0.004635l0.112689,-0.069529l0.084517,-0.004635l0.112689,0.055623l0.065735,-0.013906l0.023477,-0.041717l0.065735,0.013906l0.018782,0.060258l-0.075126,0.139058l0.004695,0.08807l0.042258,0.055623l-0.009391,0.074164l0.06104,0.032447l0.107994,-0.018541l0.272332,0.069529l0.037563,-0.041717l-0.065735,-0.064894l0.028172,-0.032447l0.079821,0.023176l0.028172,0.083435l0.037563,0.009271l0.070431,-0.037082l0.084517,0.046353l0.042258,0.060258l-0.018782,0.037082l-0.098603,0.018541v0.037082l0.154947,0.037082l0.098603,-0.032447l0.112689,0.018541l0.103298,0.148328l0.075126,0.023176l0.112689,-0.027812l0.037563,0.013906l-0.004695,0.101976l-0.051649,0.032447l-0.136166,0.004635l-0.009391,0.037082l0.126775,0.083435l0.093908,-0.023176l0.145557,-0.171504l0.126775,-0.027812l0.225378,0.013906l0.178424,0.111246l0.079821,-0.009271l0.037563,-0.08807l0.089212,-0.004635l0.032868,0.032447h0.046954l0.093908,-0.055623l0.225378,-0.009271l0.093908,0.027812Z M2128.760912,827.17506h0.024967l0.020617,-0.020761l0.00435,-0.034695l-0.024305,0.000221l-0.019955,0.022162l-0.005674,0.033074Z M2126.525326,822.080286l-0.056345,-0.166869l-0.062605,-0.074164l-0.519622,-0.327558h-0.093908l-0.12521,0.111246l-0.150252,0.012361l-0.363109,0.17305l-0.143992,-0.012361l-0.262941,-0.123607l-0.156513,-0.018541l-0.306765,-0.086525l-0.112689,-0.061803l-0.11895,0.024721l-0.025042,0.055623l0.194076,0.203951l0.36937,0.092705l0.100168,0.105066h0.075126l0.100168,-0.037082l0.112689,0.030902l0.306765,0.191591l0.287983,0.061803l0.112689,-0.030902l0.006261,-0.067984l0.075126,-0.043262l0.231639,0.037082l0.225378,-0.012361l0.137731,-0.129787h0.056345l0.018782,0.074164l0.050084,0.043262l0.037563,-0.024721Z M2122.900495,822.197713l0.106429,-0.055623l0.106429,-0.00618l0.081387,0.067984l0.075126,0.012361l0.037563,-0.092705l-0.006261,-0.074164l-0.075126,-0.067984l-0.087647,-0.129787l-0.169034,-0.012361l-0.156513,0.18541l0.006261,0.142148l0.081387,0.030902Z M2123.075789,822.636517l0.068866,-0.012361l0.075126,0.037082l0.106429,-0.012361v-0.061803l-0.075126,-0.111246l-0.062605,-0.00618l-0.11895,0.123607l0.006261,0.043262Z M2123.852031,824.826507l-0.0062,0.025663l0.031144,0.030974l0.029933,-0.00985l0.002324,-0.03313l-0.024967,-0.024647l-0.032234,0.01099Z M2125.611812,824.914666l-0.010843,0.022231l-0.000741,0.019432l0.025597,-0.007888l0.012131,-0.015243l-0.00106,-0.018724l-0.025084,0.000193Z M2125.864713,825.050124l-0.009363,0.021566l0.018725,0.015405l0.028088,-0.018486l-0.006242,-0.021566l-0.031209,0.003081Z M2126.092438,825.149691l0.011759,-0.032431l-0.018501,-0.01766l-0.030261,0.014771l-0.026528,0.045359l0.01538,0.022996l0.04815,-0.033035Z M2124.099484,824.579443l0.033057,0.018435l0.017068,-0.010261l-0.014653,-0.04133l-0.031192,-0.014486l-0.010405,0.019212l0.006124,0.02843Z M2124.137791,824.690997l0.032701,-0.019044l-0.000467,-0.019722l-0.043583,-0.008138l-0.028304,0.019424l0.011652,0.018501l0.028002,0.008979Z M2123.845677,822.936717l0.047387,0.016819l0.021395,-0.017532l-0.028204,-0.039388l-0.039154,-0.003589l-0.022687,0.022871l0.021263,0.020818Z M2122.895106,826.034074l0.027829,0.017837l0.021041,-0.021179l0.005112,-0.042579l-0.025707,-0.009237l-0.026566,0.021807l-0.00171,0.03335Z M2127.845843,823.334087l-0.026497,0.019715l0.012963,0.026763l0.038781,0.019305l0.017584,-0.020688l-0.011671,-0.032102l-0.031161,-0.012993Z M2123.780593,824.428062l0.030175,0.021791l0.020409,-0.008733l-0.023715,-0.048489l-0.039394,-0.026223l-0.017278,0.024147l0.029803,0.037507Z M2123.990419,824.412885l-0.009978,-0.0394l-0.017461,-0.014775l-0.012472,0.027087l0.012472,0.041862l0.019955,0.007387l0.007483,-0.022162Z M2125.945533,825.053682l0.02245,-0.00985l0.007483,-0.022162l-0.014967,-0.017237l-0.027439,0.012312l-0.004989,0.0197l0.017461,0.017237Z M2127.42661,823.192289l-0.007023,-0.031349l-0.030256,-0.018733l-0.025577,0.011774l0.01022,0.029877l0.024078,0.013892l0.028559,-0.005462Z M2124.966721,825.019519l-0.007483,-0.04925l-0.02245,-0.014775l-0.017461,0.032012l-0.002494,0.02955l0.012472,0.034475l0.02245,0.002462l0.014967,-0.034475Z M2125.474773,823.834948l0.029933,-0.002462l0.012472,-0.024625l-0.009978,-0.0197h-0.027439l-0.014967,0.022162l0.009978,0.024625Z M2123.043155,826.015305l0.019955,-0.0197l-0.007483,-0.027087h-0.02245l-0.017461,0.022162l0.004989,0.02955l0.02245,-0.004925Z M2127.860378,825.797762l0.004695,0.058713l-0.006261,0.061803h0.034433l0.032868,-0.064894l-0.032868,-0.074164l-0.032868,0.018541Z M2125.7052,825.204449h0.075126l0.037563,-0.032447v-0.037082l-0.046954,-0.004635l-0.075126,0.041717l0.009391,0.032447Z M2125.442259,825.032944l0.06104,-0.041717l-0.004695,-0.050988l-0.06104,-0.037082l-0.042258,0.013906v0.09734l0.046954,0.018541Z M2127.82751,825.454753l0.070431,0.078799l-0.032868,0.125152l0.037563,0.032447l0.070431,-0.060258l0.098603,0.041717l0.056345,0.078799l0.070431,0.046353l0.103298,0.027812l0.093908,0.083435l0.014086,0.101976l0.140861,0.083435l0.051649,-0.023176l-0.014086,-0.069529l0.018782,-0.037082l0.117384,-0.004635l0.12208,-0.083435l-0.014086,-0.064894h-0.084517l-0.056345,-0.041717l-0.046954,-0.074164l-0.089212,-0.050988l-0.093908,-0.013906l-0.070431,-0.037082l-0.079821,-0.092705l-0.31459,-0.152963l-0.169034,-0.004635l-0.075126,0.041717l0.018782,0.050988l0.056345,0.018541Z M2127.630305,825.260072l0.12208,-0.018541l0.089212,-0.037082l-0.032868,-0.078799l-0.070431,-0.023176l-0.126775,0.041717l-0.032868,0.050988l0.051649,0.064894Z M2126.367248,825.199814l-0.004695,-0.064894l-0.037563,-0.032447l-0.028172,0.032447v0.050988l0.042258,0.046353l0.028172,-0.032447Z M2126.769486,825.275523l0.009391,0.030902l0.071996,-0.009271l0.025042,-0.027812l-0.028172,-0.030902l-0.043824,0.00618l-0.034433,0.030902Z M2127.264065,825.436212l0.093908,0.092705l0.056345,-0.018541l-0.028172,-0.08807l0.075126,-0.115881l0.023477,-0.106611l-0.023477,-0.041717l-0.117384,0.013906l-0.093908,-0.041717l-0.06104,0.009271v0.09734l-0.046954,0.078799l-0.107994,0.009271v0.055623l0.230073,0.055623Z M2126.677143,825.338871l0.042258,-0.018541l0.014086,-0.092705l-0.056345,-0.041717l-0.093908,-0.004635l-0.004695,0.041717l0.051649,0.083435l0.046954,0.032447Z M2125.057238,825.093203l0.103298,-0.009271l0.112689,-0.027812l0.009391,-0.050988l-0.065735,-0.027812l-0.037563,-0.064894l-0.06104,-0.004635l-0.084517,0.078799l-0.009391,0.078799l0.032868,0.027812Z M2124.26372,824.727018l0.079821,0.027812l0.107994,-0.023176l0.014086,-0.074164l-0.12208,-0.055623l-0.12208,0.013906l-0.009391,0.069529l0.051649,0.041717Z M2123.512459,824.495255l0.051649,-0.009271l0.042258,-0.064894l-0.046954,-0.013906l-0.084517,0.032447l-0.014086,0.037082l0.051649,0.018541Z M2112.30756,821.229974l0.058709,0.045169l0.056129,-0.009277l0.01008,-0.059926l-0.052379,-0.047909l-0.052923,-0.004124l-0.039203,0.02748l0.019587,0.048587Z M2115.286627,821.439651l0.020242,-0.027908l-0.030005,-0.0636l-0.078565,-0.040188l-0.040723,0.033183l0.022536,0.038112l0.106514,0.060401Z M2114.253433,823.892648l0.100827,-0.007137l0.108726,-0.039515l-0.02571,-0.03l-0.068801,0.000415l-0.130471,0.047418l0.015429,0.028818Z M2115.573507,822.219483l0.011707,-0.035209l-0.022314,-0.026269l-0.062284,0.021677l-0.029695,0.034907l0.026942,0.034273l0.075644,-0.029379Z M2122.045364,822.842724l0.063755,-0.016207l-0.0018,-0.030912l-0.071232,-0.010698l-0.047367,0.019883l0.001311,0.027869l0.055331,0.010065Z M2119.67887,819.709835l0.050279,0.001273l0.037164,-0.038405l-0.019168,-0.04821l-0.038033,0.000859l-0.04105,0.060165l0.010808,0.024318Z M2113.329279,821.300831l-0.005725,-0.038549l-0.050936,0.022316l-0.023765,0.045871l0.031281,0.018021l0.049145,-0.047659Z M2119.441735,822.378428l-0.045553,-0.042126l-0.057668,-0.021246l0.001533,0.026325l0.057483,0.055692l0.045556,0.015533l-0.001351,-0.034178Z M2118.565765,822.555289l-0.060786,-0.013998l-0.060703,0.010065l0.014661,0.022041l0.077989,0.019857l0.047321,-0.009034l-0.018481,-0.028932Z M2119.573857,819.155277l0.024292,0.024144l0.042814,-0.016819l0.018907,-0.036623l-0.013492,-0.027264l-0.036796,0.009739l-0.035725,0.046823Z M2121.47417,825.863906l0.019126,-0.015843l0.002276,-0.028987l-0.019259,-0.029338l-0.018475,0.015592l-0.000856,0.02964l0.017189,0.028936Z M2120.725948,825.379964v0.024551l0.02487,0.014731l0.022383,-0.014731l-0.012435,-0.024551h-0.034817Z M2116.802564,820.133737l0.034621,0.023676l0.020393,-0.008922l-0.018432,-0.050075l-0.04073,-0.017875l-0.020064,0.014402l0.024212,0.038794Z M2121.801681,822.852338l-0.059267,0.008911l-0.002815,0.023299l0.060297,0.020137l0.038787,-0.017026l0.008638,-0.027094l-0.045641,-0.008226Z M2114.249716,819.334851l0.025701,0.006619l-0.001685,-0.030763l-0.030129,-0.031061l-0.014942,0.020563l0.021055,0.034642Z M2116.722796,820.051177l-0.049367,-0.055457l-0.043196,0.024647l0.024683,0.061619l0.055538,0.018486l0.012342,-0.049295Z M2119.642709,822.59483l0.037451,0.006162l0.012484,-0.015405l-0.028088,-0.03389l-0.03433,-0.003081l-0.003121,0.021566l0.015604,0.024647Z M2112.051454,821.14356l-0.010496,0.036639l0.045163,0.042046l0.050577,-0.013532l0.000166,-0.037258l-0.037147,-0.037424l-0.048263,0.00953Z M2122.789263,825.057351l0.064249,-0.032921l0.018653,-0.039489l-0.046664,-0.009462l-0.086643,0.044246l-0.011989,0.030537l0.062395,0.007089Z M2121.189411,820.095768l0.103156,-0.008336l0.034609,-0.018773l-0.000148,-0.037431l-0.069629,-0.01612l-0.066533,0.017838l-0.0217,0.03819l0.020245,0.024632Z M2118.674845,822.391709l0.019971,0.026158l0.02711,-0.012797l0.019555,-0.038285l-0.020956,-0.017359l-0.032519,0.011522l-0.013161,0.030762Z M2120.036691,822.805814l-0.035905,-0.010288l-0.016153,0.015098l0.039084,0.037557l0.046104,0.01134l0.00787,-0.028524l-0.041,-0.025183Z M2114.321408,821.966825l0.034656,0.012595l0.023954,-0.022646l-0.017634,-0.037761l-0.04936,-0.015327l-0.020174,0.026633l0.028557,0.036506Z M2113.21113,821.932435l0.046196,-0.015563l-0.001834,-0.03125l-0.091678,-0.03248l-0.035959,0.010842l0.005798,0.033716l0.077477,0.034735Z M2116.376539,821.389086l0.004213,-0.03183l-0.021692,-0.027819l-0.027794,0.002428l-0.000739,0.031527l0.01761,0.021184l0.028402,0.00451Z M2114.224232,819.442856v0.032447l0.032494,0.004635l0.013926,-0.032447l-0.018568,-0.018541l-0.027852,0.013906Z M2114.637372,821.775935l0.027852,0.00618l0.018568,-0.021631l-0.018568,-0.021631l-0.027852,0.009271v0.027812Z M2116.423002,821.51327l0.024661,-0.0197l-0.002466,-0.027087l-0.032059,-0.00985l-0.022195,0.022162l0.002466,0.024625l0.029593,0.00985Z M2114.644141,821.945797l0.029593,-0.002462l0.01233,-0.024625l-0.009864,-0.0197h-0.027127l-0.014796,0.022162l0.009864,0.024625Z M2122.542691,824.958183l0.029933,-0.002462l0.012472,-0.024625l-0.009978,-0.0197h-0.027439l-0.014967,0.022162l0.009978,0.024625Z M2112.239091,823.476108l0.024661,-0.00985v-0.024625l-0.022195,-0.0197l-0.022195,0.014775l0.002466,0.024625l0.017263,0.014775Z M2115.59503,825.121431v0.024625l0.022195,0.012312l0.019729,-0.017237l0.002466,-0.024625l-0.01233,-0.012312l-0.032059,0.017237Z M2120.54564,822.686376v0.024625l0.02245,0.012312l0.019955,-0.017237l0.002494,-0.024625l-0.012472,-0.012312l-0.032427,0.017237Z M2115.940087,822.425265l0.047741,0.056813l0.048763,0.00755l0.028448,-0.023836l-0.026282,-0.038488l-0.079745,-0.029998l-0.018924,0.027958Z M2103.083022,819.960307l-0.032928,0.037205l0.005846,0.05279l0.049166,0.016494l0.023511,-0.029314l-0.02007,-0.069717l-0.025525,-0.007458Z M2103.718545,820.071675l0.029593,-0.002462l0.01233,-0.024625l-0.009864,-0.0197h-0.027127l-0.014796,0.022162l0.009864,0.024625Z M2119.996562,810.176949l-0.015897,-0.072284l-0.048969,-0.028919l-0.046298,0.039436l0.009284,0.07032l0.037886,0.037128l0.047721,0.004112l0.016272,-0.049792Z M2131.710345,812.611729l-0.047476,-0.020549l-0.030522,0.085902l0.032847,0.075036l0.058682,0.005127l0.035331,-0.0658l-0.048862,-0.079716Z M2128.610863,812.442137l0.049367,-0.036971l0.030854,-0.052376l-0.026226,-0.003081l-0.064794,0.046214l-0.023141,0.041593l0.03394,0.004621Z M2113.622576,813.762754l0.037025,0.049295l0.052452,0.030809l0.003085,-0.026188l-0.046281,-0.064699l-0.041653,-0.023107l-0.004628,0.03389Z M2113.211755,815.674456l0.03394,0.003081l0.021598,-0.040052l-0.009256,-0.040052l-0.027769,-0.012324l-0.021598,0.030809l0.003085,0.058538Z M2112.723721,812.176418l0.027983,-0.019424l-0.009238,-0.044544l-0.032873,-0.024741l-0.029205,0.008383l0.003288,0.037464l0.040046,0.042862Z M2113.079519,812.834927l0.017447,0.040687l0.031917,-0.012721l0.011131,-0.034277l-0.036975,-0.015301l-0.02352,0.021612Z M2127.824607,812.206453l-0.00613,0.025663l0.03079,0.030974l0.029593,-0.00985l0.002298,-0.03313l-0.024683,-0.024647l-0.031868,0.01099Z M2112.799148,807.814966l-0.00613,0.025663l0.03079,0.030974l0.029593,-0.00985l0.002298,-0.03313l-0.024683,-0.024647l-0.031868,0.01099Z M2123.333691,811.429625l0.00485,-0.063554l-0.025627,-0.001476l-0.027538,0.068372l0.005869,0.041323l0.021635,0.00525l0.020811,-0.049915Z M2109.713316,814.021492l-0.009256,0.055457l0.037025,0.023107l0.060166,-0.023107v-0.041593l-0.041653,-0.023107l-0.046281,0.009243Z M2113.307104,815.579816l0.015666,-0.031361l-0.016886,-0.033378l-0.021152,0.017532l-0.010721,0.029123l0.010965,0.02526l0.022127,-0.007177Z M2119.935223,809.434261l0.030089,0.023443l0.055959,-0.026063l0.006381,-0.051895l-0.034534,-0.014111l-0.048665,0.020372l-0.009231,0.048254Z M2113.19296,807.20008l-0.010753,-0.044291l-0.021225,-0.021188l-0.009539,0.025743l0.012113,0.044513l0.022506,0.013935l0.006899,-0.018712Z M2118.393308,808.819l0.043762,-0.09236l0.000826,-0.038975l-0.032537,-0.018589l-0.0484,0.051468l-0.017417,0.0658l0.022395,0.037647l0.031371,-0.004992Z M2131.57919,812.558081l0.045406,0.017728l0.018712,-0.025116l-0.049321,-0.083724l-0.034525,-0.014775l-0.017263,0.02955l0.036991,0.076337Z M2109.267418,807.550508v0.032447l0.032494,0.004635l0.013926,-0.032447l-0.018568,-0.018541l-0.027852,0.013906Z M2111.586397,806.703705h0.022195l0.01233,-0.024625l-0.014796,-0.014775l-0.024661,-0.004925l-0.007398,0.022162l0.01233,0.022162Z M2109.187198,807.834128l0.024661,-0.00985v-0.024625l-0.022195,-0.0197l-0.022195,0.014775l0.002466,0.024625l0.017263,0.014775Z M2116.103454,808.403191l0.129977,-0.043262l0.061894,-0.166869l-0.030947,-0.148328l-0.068083,-0.018541l-0.216628,0.160689l-0.012379,0.123607l0.136166,0.092705Z M2113.417272,807.871682l0.061894,0.024721l0.210438,-0.086525l0.086651,-0.259574l-0.043326,-0.259574l-0.123787,-0.018541l-0.148545,0.074164l-0.043326,0.154509l0.049515,0.17305l-0.049515,0.197771Z M2120.392681,810.652835l0.117598,-0.049443l-0.012379,-0.111246l-0.123787,-0.086525l-0.09284,0.024721l-0.030947,0.092705l0.142355,0.129787Z M2123.310964,814.506278l0.078914,-0.041717l0.194965,0.032447l0.04642,-0.023176l-0.032494,-0.041717l-0.213533,-0.046353l-0.09284,0.032447l-0.018568,0.083435l0.037136,0.004635Z M2119.835638,812.584192l0.09284,0.00618l0.126882,0.067984l0.164018,0.009271l0.024757,-0.024721l-0.015473,-0.027812l-0.133071,0.00618l-0.071178,-0.021631l-0.117598,-0.095795l-0.077367,-0.018541l-0.102124,0.033992l-0.030947,0.086525l0.04642,0.015451l0.09284,-0.037082Z M2112.922123,806.295695l0.068083,0.154509l0.131524,0.17614l0.018568,-0.027812l-0.119145,-0.271935l-0.074272,-0.067984l-0.024757,0.037082Z M2112.703948,806.21844l0.04642,0.009271l0.04642,-0.009271l-0.013926,-0.037082l-0.055704,-0.013906l-0.051062,0.013906l0.027852,0.037082Z M2111.12102,806.246252l0.02321,0.060258l0.037136,0.004635l0.013926,-0.027812l-0.051062,-0.064894l-0.02321,0.027812Z M2126.049756,812.457495l0.408498,-0.067984l0.142355,-0.123607l0.129977,-0.018541l0.074272,0.055623l0.061894,0.123607l0.068083,-0.00618l0.018568,-0.105066l-0.09903,-0.117426l-0.179491,-0.17305l0.030947,-0.074164l0.142355,0.030902l0.117598,0.092705l0.111408,-0.086525l0.055704,-0.203951h0.086651l0.018568,-0.037082l-0.068083,-0.055623l-0.309468,-0.129787l-0.068083,-0.074164l-0.018568,-0.17305l-0.129977,-0.092705l-0.09284,-0.00618l-0.160923,0.061803l-0.2909,-0.086525l-0.105219,-0.265755l-0.160923,-0.123607l-0.19806,-0.024721l-0.259953,0.074164l-0.717966,-0.222492h-0.315657l-0.19806,0.067984l-0.229006,-0.043262l-0.266142,-0.259574l-0.167113,-0.037082l-0.167113,0.160689l-0.097857,0.032342l-0.087824,0.122166l0.037136,0.135968l0.105219,0.166869l0.055704,0.302837l0.018568,-0.142148l-0.024757,-0.259574l0.018568,-0.080344l-0.018568,-0.166869l0.129977,-0.123607l0.160923,0.030902l0.216628,0.17305l-0.006189,0.080344l-0.160923,0.197771l0.030947,0.049443l0.19806,-0.037082l0.309468,0.105066l0.129977,0.117426l0.2909,0.135968l0.123787,0.129787l0.136166,-0.018541l0.185681,-0.148328l0.074272,0.024721l-0.030947,0.061803l-0.123787,0.055623l-0.030947,0.160689l0.148545,0.111246l0.061894,0.142148l-0.167113,0.135968l-0.086651,-0.030902l-0.055704,-0.080344l0.049515,-0.055623l-0.049515,-0.024721l-0.068083,0.037082l-0.024757,0.142148l0.142355,0.135968l0.309468,0.098885l0.074272,0.049443l0.030947,0.117426l0.086651,0.067984l0.061894,-0.037082v-0.17923l-0.123787,-0.117426l0.030947,-0.098885l0.068083,0.012361l0.123787,0.154509l0.309468,0.210132l0.173302,0.043262Z M2114.50041,808.01692l0.04642,0.083435l0.064988,-0.055623l-0.018568,-0.157599l-0.04642,-0.037082l-0.04642,0.064894v0.101976Z M2113.94801,809.078393l0.06963,-0.050988l0.074272,-0.148328l-0.018568,-0.023176l-0.102124,0.069529l-0.055704,0.111246l0.032494,0.041717Z M2113.915516,807.66464l0.120693,0.027812l0.106766,0.074164l0.315657,0.018541l0.143903,0.041717l0.064988,0.106611l0.125335,0.060258l0.004642,0.074164l-0.120693,0.101976l-0.041778,0.227128l-0.222817,0.222492l-0.185681,0.278115l0.027852,0.092705l0.297089,0.190045l0.190323,0.190045l0.037136,-0.009271l-0.037136,-0.111246l-0.120693,-0.115881l0.018568,-0.236398l0.074272,-0.227128l0.018568,-0.287386l0.02321,-0.134422l0.157829,-0.203951l0.013926,-0.27348l-0.051062,-0.125152l-0.222817,-0.157599l0.004642,-0.083435l0.09284,-0.069529l0.027852,-0.069529l-0.02321,-0.190045l0.018568,-0.268845l-0.06963,-0.069529l-0.255311,0.018541l-0.320299,0.236398l-0.208891,0.412538l-0.04642,0.162234l0.041778,0.09734Z M2114.825351,809.416767l0.102124,0.18541l0.125335,0.101976l-0.018568,0.064894l-0.102124,0.037082l-0.157829,-0.004635l-0.078914,0.074164h0.055704l0.064988,-0.032447l0.083556,0.009271l0.111408,0.046353l0.181039,-0.013906l0.037136,-0.078799l-0.134619,-0.203951l-0.097482,-0.060258l-0.134619,-0.129787l-0.037136,0.004635Z M2112.996396,812.123757l0.055704,0.111246l0.074272,-0.009271l0.055704,-0.083435l-0.102124,-0.055623l-0.083556,0.037082Z M2113.237781,812.299896v0.166869l0.064988,0.009271l0.102124,-0.055623l-0.018568,-0.101976l-0.055704,-0.064894l-0.09284,0.046353Z M2112.560046,812.754151l0.055704,-0.037082l0.018568,-0.074164l-0.09284,-0.064894l-0.064988,0.037082l0.009284,0.111246l0.074272,0.027812Z M2112.392933,812.698528l-0.009284,-0.120517l-0.09284,-0.139058l-0.09284,0.046353l-0.018568,0.111246l0.129977,0.139058l0.083556,-0.037082Z M2111.882311,812.73561l0.129977,0.101976l0.064988,-0.027812l-0.055704,-0.139058l-0.083556,-0.027812l-0.055704,0.092705Z M2113.804107,814.886369l0.139261,0.074164l0.129977,0.203951l0.111408,-0.046353l-0.04642,-0.203951l0.018568,-0.157599l-0.037136,-0.101976l-0.250669,-0.083435l-0.222817,0.092705l-0.037136,0.120517l0.194965,0.101976Z M2115.435003,821.511695l0.105219,0.055623h0.074272v-0.055623l-0.074272,-0.061803l-0.117598,-0.00618l0.012379,0.067984Z M2115.75685,821.61058l0.136166,0.00618l0.074272,-0.012361l-0.030947,-0.049443l-0.167113,-0.012361l-0.055704,0.030902l0.043326,0.037082Z M2113.373947,821.907237l0.049515,0.080344l0.061894,0.00618v-0.067984l-0.061894,-0.092705l-0.055704,0.00618l0.006189,0.067984Z M2114.506599,821.907237l0.080462,-0.012361l-0.006189,-0.049443l-0.061894,-0.030902l-0.074272,0.00618l-0.018568,0.049443l0.080462,0.037082Z M2114.042397,819.385658l0.09903,-0.049443l0.030947,-0.080344l-0.061894,-0.055623l-0.154734,0.00618l-0.043326,0.074164l0.012379,0.086525l0.117598,0.018541Z M2108.91606,822.270332l0.018568,-0.060258l0.06963,-0.046353l0.083556,0.013906l0.041778,-0.027812l-0.055704,-0.046353h-0.083556l-0.106766,0.092705v0.074164h0.032494Z M2109.268854,822.33059l0.064988,-0.027812v-0.060258l-0.041778,-0.013906l-0.097482,0.032447l-0.02321,0.041717l0.097482,0.027812Z M2109.756266,822.553083l0.060346,-0.009271l0.129977,-0.078799l-0.013926,-0.032447l-0.083556,0.009271l-0.125335,0.08807l0.032494,0.023176Z M2110.076565,822.580894l0.037136,-0.027812v-0.037082l-0.051062,-0.046353l-0.032494,0.023176l0.013926,0.074164l0.032494,0.013906Z M2111.464529,821.644572l0.051062,0.08807l0.097482,0.023176l0.06963,0.092705l0.055704,0.023176l0.02321,-0.018541l-0.037136,-0.050988l-0.037136,-0.060258l-0.009284,-0.074164l-0.125335,-0.129787l-0.088198,-0.037082l-0.02321,0.037082l0.02321,0.106611Z M2111.998361,822.149815l0.051062,0.009271l0.088198,-0.032447l0.018568,-0.060258l-0.097482,-0.041717l-0.078914,0.032447l-0.032494,0.050988l0.051062,0.041717Z M2112.304735,821.639937l0.009284,-0.037082l-0.134619,-0.064894l0.018568,-0.037082l0.06963,-0.023176l-0.013926,-0.041717l-0.064988,-0.004635l-0.088198,0.046353l-0.04642,-0.009271l0.027852,-0.115881l-0.04642,-0.050988l-0.129977,0.046353l-0.06963,0.120517l0.078914,0.09734l0.232101,0.074164l0.088198,-0.013906l0.06963,0.013906Z M2112.170116,821.394269l0.013926,-0.027812v-0.037082l-0.027852,-0.032447l-0.032494,0.023176l0.009284,0.060258l0.037136,0.013906Z M2113.325979,821.792901l0.06963,-0.009271l0.018568,-0.078799l0.102124,-0.032447l0.218175,0.055623l0.111408,-0.023176l0.120693,0.055623l0.04642,0.125152l0.125335,0.046353l0.190323,-0.083435l0.018568,-0.069529l-0.11605,-0.074164l0.04642,-0.092705l0.129977,-0.060258l-0.027852,-0.129787l-0.074272,-0.032447l-0.09284,0.055623l-0.074272,-0.027812l-0.018568,-0.09734l-0.051062,-0.018541l-0.143903,0.060258l-0.120693,-0.013906l-0.232101,0.037082l-0.171755,0.092705l-0.032494,0.083435l-0.064988,0.027812l-0.013926,0.069529l0.037136,0.134422Z M2112.457921,821.579679l0.041778,0.037082l0.009284,0.074164l0.055704,0.032447l0.09284,-0.027812l0.143903,0.037082l0.064988,0.041717l0.297089,0.037082l0.074272,-0.023176v-0.078799l-0.064988,-0.083435l-0.004642,-0.050988l0.041778,-0.027812l0.009284,-0.069529l-0.041778,-0.050988l0.009284,-0.143693l0.060346,-0.050988l0.013926,-0.069529l-0.018568,-0.083435l-0.139261,-0.055623l-0.051062,-0.050988l-0.04642,0.009271l-0.009284,0.139058l-0.04642,0.032447l-0.064988,-0.046353l-0.157829,-0.046353l-0.032494,-0.074164l-0.074272,-0.004635l-0.06963,0.08807l0.013926,0.09734l0.143903,0.120517l0.032494,0.092705l0.125335,0.115881l0.120693,0.032447l0.083556,0.129787l-0.027852,0.074164h-0.06963l-0.060346,-0.041717l-0.334225,-0.092705l-0.051062,-0.069529l-0.111408,-0.069529l-0.051062,0.023176l-0.004642,0.060258l0.032494,0.041717l0.064988,-0.004635Z M2108.637539,811.901264v0.037082l0.037136,0.018541l0.037136,-0.037082l-0.032494,-0.037082l-0.041778,0.018541Z M2112.337229,816.072995l0.129977,0.083435l0.055704,-0.064894l0.111408,0.009271l0.269237,0.241033l0.167113,0.259574l0.027852,0.389362l0.120693,0.352279l0.148545,0.101976l0.185681,-0.018541l0.04642,-0.111246l0.102124,-0.027812l0.120693,0.083435l-0.027852,0.148328l-0.111408,0.009271l-0.074272,0.083435l0.04642,0.139058l0.018568,0.333738l0.120693,0.083435h0.492054l0.213533,0.037082l0.120693,0.120517l0.102124,0.018541l0.129977,-0.018541l0.352794,0.139058l0.111408,0.101976h0.083556l0.037136,-0.278115l0.232101,-0.407903l0.157829,-0.463526l0.027852,-0.37082l-0.120693,-0.166869l-0.157829,-0.055623l-0.176397,0.120517l-0.241385,0.037082l-0.222817,0.305927l-0.04642,0.268845l-0.102124,0.111246l-0.185681,-0.018541l-0.371362,-0.250304l-0.09284,-0.203951l0.083556,-0.139058l-0.018568,-0.101976l-0.38993,-0.148328l-0.241385,-0.36155l-0.324941,-0.278115l-0.269237,-0.055623l-0.148545,-0.17614l0.018568,-0.148328l-0.083556,-0.148328l-0.352794,-0.148328l-0.129977,0.027812l-0.037136,0.148328l0.102124,0.213222l-0.009284,0.194681Z M2112.968543,815.767068l0.074272,0.092705l0.09284,-0.027812v-0.111246l-0.102124,-0.064894l-0.074272,0.018541l0.009284,0.092705Z M2109.357052,812.299896l-0.213533,-0.139058l-0.38993,-0.120517l-0.324941,0.092705l-0.297089,0.259574l-0.167113,0.389362l0.04642,0.380091l0.297089,0.398632l0.315657,0.18541l0.241385,0.009271l0.102124,0.064894l0.018568,0.101976l0.222817,0.120517l0.120693,0.120517l0.167113,0.037082l0.102124,-0.046353l0.111408,-0.231763l-0.04642,-0.064894l-0.083556,0.018541l-0.037136,-0.064894l0.074272,-0.194681l0.213533,-0.259574v-0.101976l-0.09284,-0.101976l-0.185681,-0.621124l-0.194965,-0.231763Z M2110.146195,813.551415l0.213533,0.333738l0.324941,0.203951l0.083556,0.18541l-0.064988,0.166869l-0.464202,0.231763l-0.04642,0.203951l0.111408,0.129787h0.167113l0.157829,-0.074164l0.315657,-0.027812l0.427066,0.101976l0.157829,0.139058l0.38993,0.064894l0.306373,-0.037082l0.269237,0.120517l0.139261,-0.018541l0.064988,-0.120517l0.157829,-0.018541l0.083556,0.046353l-0.04642,0.157599l0.009284,0.18541h0.083556l0.157829,-0.222492l0.287805,-0.037082l0.074272,-0.101976v-0.120517l-0.167113,-0.120517l-0.018568,-0.18541l-0.102124,-0.074164l-0.102124,0.009271l-0.055704,-0.064894l0.102124,-0.092705l0.064988,-0.231763l-0.064988,-0.18541l-0.102124,-0.018541l-0.176397,-0.129787l-0.055704,-0.222492l-0.306373,-0.296656l-0.176397,-0.018541l-0.157829,0.139058l-0.427066,0.064894l-0.232101,-0.101976l-0.064988,-0.166869l-0.167113,-0.111246l-0.167113,-0.027812l-0.48277,-0.278115l-0.213533,0.018541l-0.306373,0.268845l0.018568,0.333738Z M2113.788634,813.897514l0.061894,-0.00618l0.030947,-0.037082l-0.049515,-0.018541l-0.074272,0.024721l0.030947,0.037082Z M2094.341714,790.48682l0.031023,0.014486l0.034219,-0.03026l0.005051,-0.040798l-0.022005,-0.021064l-0.031034,0.021575l-0.017254,0.056061Z M2093.762134,790.073587l0.019308,0.018132l0.042513,-0.011139l0.006291,-0.030516l-0.02775,-0.018552l-0.033921,0.009022l-0.006441,0.033053Z M2087.238835,785.02605l0.130759,-0.027812l0.03736,-0.101976l-0.01868,-0.111246l-0.121419,-0.027812l-0.102739,0.083435l-0.00934,0.129787l0.084059,0.055623Z M2091.423119,786.407356l0.158779,-0.027812l0.121419,-0.18541l-0.112079,-0.18541l-0.186798,-0.037082l-0.158779,0.120517l-0.01868,0.18541l0.196138,0.129787Z M2094.710771,787.065563l0.158779,-0.018541l0.074719,-0.17614l-0.05604,-0.203951l-0.149439,-0.083435l-0.112079,0.009271l-0.102739,0.129787l-0.01868,0.18541l0.205478,0.157599Z M2092.57193,787.315866l-0.05604,0.250304l0.065379,0.556231l0.261518,0.37082l0.308217,0.194681l0.130759,0.120517l-0.02802,0.129787l0.01868,0.101976l0.298877,0.194681l0.224158,0.027812l0.233498,0.157599l0.074719,0.157599l0.177458,0.064894l0.112079,-0.074164l0.074719,-0.250304l0.112079,-0.120517l0.186798,-0.676747v-0.203951l-0.289538,-0.380091l-0.495016,-0.268845l-0.326897,-0.027812l-0.252178,-0.101976l-0.214818,-0.296656l-0.196138,-0.092705h-0.252178l-0.168119,0.166869Z M2087.724511,786.546414l0.401617,0.259574l0.158779,0.213222l0.196138,0.018541l0.074719,-0.120517l0.149439,-0.055623h0.224158l0.05604,-0.074164l-0.074719,-0.148328v-0.213222l-0.158779,-0.36155l-0.00934,-0.139058l-0.074719,-0.129787l-0.233498,-0.083435l-0.196138,-0.222492h-0.149439l-0.242838,0.194681l-0.270858,0.083435l-0.084059,0.194681l0.05604,0.250304l-0.03736,0.213222l0.0467,0.111246l0.168119,0.009271Z M2080.261914,782.445757l0.42341,0.074164l0.298877,-0.111246l0.286424,-0.247214l0.074719,-0.580952l-0.149439,-0.407903l-0.311331,-0.210132l-0.211705,0.012361l-0.361144,0.333738l-0.199252,0.407903l-0.024906,0.54387l0.174345,0.18541Z M2082.279337,782.964906l0.199252,0.012361l0.149439,-0.148328l-0.012453,-0.222492l-0.136986,-0.061803l-0.211705,0.098885l-0.074719,0.222492l0.087173,0.098885Z M2084.948991,763.934638l-0.021073,0.026745l0.021876,0.039901l0.038681,0.014062l0.025475,-0.016543l-0.014113,-0.034867l-0.050846,-0.029298Z M2083.684823,764.932119l0.03394,0.003081l0.021598,-0.040052l-0.009256,-0.040052l-0.027769,-0.012324l-0.021598,0.030809l0.003085,0.058538Z M2092.45954,765.66364l0.004286,-0.024273l-0.016936,-0.023649l-0.033471,-0.010254l-0.003955,0.023668l0.018432,0.023249l0.031645,0.011259Z M2090.581054,766.776627l-0.00613,0.025663l0.03079,0.030974l0.029593,-0.00985l0.002298,-0.03313l-0.024683,-0.024647l-0.031868,0.01099Z M2084.820005,763.856503l0.015804,0.018807l0.028317,-0.004497l0.007469,-0.025487l-0.025222,-0.010917l-0.026369,0.022094Z M2086.673961,763.674246l0.086148,0.078423l0.035293,0.010687l-0.023962,-0.051383l-0.090769,-0.076743l-0.022263,0.010704l0.015553,0.028312Z M2083.472521,765.043579l0.055827,0.007302l0.021834,-0.037755l-0.025226,-0.059235l-0.041628,0.001452l-0.021673,0.042374l0.010866,0.045863Z M2084.529668,764.874983l0.03684,0.029461l0.015893,-0.031415l-0.026204,-0.038372l-0.030197,0.007203l0.003668,0.033123Z M2088.936883,765.771914l0.020882,-0.028168l-0.010825,-0.035799l-0.023879,0.013598l-0.015622,0.026822l0.006406,0.026778l0.023039,-0.003231Z M2095.381372,765.642932l-0.016709,0.034263l0.037165,0.049238l0.052162,-0.004557l0.006643,-0.036664l-0.030074,-0.043297l-0.049187,0.001017Z M2089.028874,765.75904l0.046715,-0.017186l0.004917,-0.027006l-0.046715,-0.012276l-0.031963,0.022096l-0.002459,0.031916l0.029504,0.002455Z M2086.351983,766.797007l-0.026196,0.019715l0.012816,0.026763l0.038341,0.019305l0.017385,-0.020688l-0.011539,-0.032102l-0.030807,-0.012993Z M2091.093496,766.071409l0.009594,0.031323l0.029569,-0.002872l0.031281,-0.029373l-0.013523,-0.023388l-0.034157,-0.000153l-0.022763,0.024463Z M2086.362889,766.718911l0.010303,-0.035445l-0.01512,-0.015946l-0.037612,0.038584l-0.011357,0.045513l0.028566,0.007769l0.025219,-0.040475Z M2088.147185,763.873846v0.032447l0.032494,0.004635l0.013926,-0.032447l-0.018568,-0.018541l-0.027852,0.013906Z M2089.357205,764.0299l0.027852,0.00618l0.018568,-0.021631l-0.018568,-0.021631l-0.027852,0.009271v0.027812Z M2084.716007,763.980554v0.024625l0.022195,0.014775l0.029593,-0.014775l-0.007398,-0.032012l-0.034525,-0.00985l-0.009864,0.017237Z M2087.367326,765.766576v0.024625l0.022195,0.014775l0.029593,-0.014775l-0.007398,-0.032012l-0.034525,-0.00985l-0.009864,0.017237Z M2089.687175,767.628017l0.019729,-0.0197l-0.007398,-0.027087h-0.022195l-0.017263,0.022162l0.004932,0.02955l0.022195,-0.004925Z M2092.465423,765.549453l0.005021,0.028383l0.02367,0.026162l0.013386,-0.016248l-0.009953,-0.036914l-0.022106,-0.018533l-0.010018,0.017149Z M2068.992264,773.343928l0.065672,0.034303l0.053663,-0.018869l-0.000494,-0.060763l-0.059915,-0.038099l-0.052836,0.005115l-0.033829,0.033861l0.027739,0.044452Z M2064.287554,773.616209l-0.010162,0.043081l0.033244,0.008694l0.029342,-0.020976l-0.020647,-0.034238l-0.031777,0.003439Z M2074.008047,777.557258l0.024246,0.010484l0.035895,-0.0249l-0.004576,-0.030811l-0.032275,-0.008012l-0.028595,0.019993l0.005305,0.033246Z M2057.564043,771.820292l0.025463,-0.024119l-0.004435,-0.037132l-0.025881,0.009251l-0.02005,0.023706l0.001652,0.027482l0.023251,0.000813Z M2071.522778,774.99312l0.034313,0.016684l0.04931,-0.037111l-0.004564,-0.052086l-0.036717,-0.006633l-0.04336,0.03003l0.001018,0.049116Z M2057.672337,771.958244l0.031963,0.007365l0.012293,-0.027006l-0.009835,-0.041737h-0.027046l-0.017211,0.029461 l0.009835,0.031916Z M2057.11147,771.782205l0.001279,-0.049784l-0.019288,-0.018399l-0.022567,0.028533l-0.007567,0.028673l0.006148,0.036089l0.021429,0.006274l0.020567,-0.031385Z M2064.024321,773.572844l0.049321,-0.007387l0.014796,-0.022162l-0.032059,-0.017237l-0.029593,-0.002462l-0.034525,0.012312l-0.002466,0.022162l0.034525,0.014775Z M2064.90741,759.747558l0.024587,0.00982l0.014752,-0.00982l-0.004917,-0.024551h-0.024587l-0.009835,0.024551Z M2078.044568,756.865425l-0.024009,-0.024752l-0.067935,0.018462l-0.053278,0.07028l0.025655,0.045808l0.041502,-0.015544l0.078066,-0.094254Z M2070.376381,758.294267l0.009887,-0.04866l-0.031496,-0.042799l-0.050838,0.010263l-0.005683,0.037125l0.05229,0.050357l0.025839,-0.006285Z M2074.322766,761.271008l0.037025,0.006162l0.012342,-0.015405l-0.027769,-0.03389l-0.03394,-0.003081l-0.003085,0.021566l0.015427,0.024647Z M2069.187411,759.161985l0.028526,-0.024361l-0.003885,-0.019342l-0.043849,-0.000543l-0.02418,0.023981l0.014562,0.016223l0.028825,0.004042Z M2067.856773,761.956409l0.023821,0.043753l0.025917,0.006304l0.005257,-0.035977l-0.007804,-0.02861l-0.023395,-0.028185l-0.0217,0.005266l-0.002096,0.037449Z M2068.222043,760.289359l0.015852,0.018864l0.026513,-0.002927l0.013158,-0.030312l-0.026274,-0.019774l-0.032788,0.014614l0.00354,0.019536Z M2069.46657,759.126556v0.024625l0.022195,0.012312l0.019729,-0.017237l0.002466,-0.024625l-0.01233,-0.012312l-0.032059,0.017237Z M2069.594145,759.160249l0.02695,0.007211l0.019793,-0.019941l-0.011097,-0.019193l-0.027852,-0.003847l-0.023162,0.01904l0.015369,0.016731Z M2060.049314,762.599956l0.06963,-0.018541l0.111408,0.041717l0.037136,-0.023176l0.02321,-0.101976l-0.037136,-0.037082h-0.181039l-0.074272,-0.032447l-0.037136,0.027812l-0.018568,0.199316l0.060346,0.004635l0.04642,-0.060258Z M2061.58118,760.750489l0.02321,-0.037082l-0.157829,-0.023176l-0.041778,0.018541l-0.009284,0.074164l0.037136,0.037082l0.148545,-0.069529Z M2068.011925,760.804567l0.006189,0.080344l0.049515,0.012361l0.018568,-0.055623l-0.012379,-0.067984l-0.09284,-0.098885l-0.024757,0.037082l0.055704,0.092705Z M2068.74227,759.858975l0.068083,-0.018541l-0.061894,-0.061803l-0.055704,-0.00618l-0.024757,0.043262l0.074272,0.043262Z M2070.370071,758.740333l0.037136,0.00618l0.061894,-0.055623l0.018568,-0.049443l-0.024757,-0.092705l-0.049515,0.012361l-0.018568,0.092705l-0.024757,0.086525Z M2070.920924,758.400414l-0.012379,0.043262l0.055704,0.012361l0.030947,0.049443l-0.018568,0.037082l-0.086651,0.00618l0.006189,0.043262l0.117598,0.018541l0.049515,-0.055623v-0.067984l-0.037136,-0.061803l-0.105219,-0.024721Z M2068.828921,760.242156l-0.024757,0.030902l0.024757,0.086525l0.123787,0.049443l0.086651,-0.024721l-0.024757,-0.037082l-0.09284,-0.00618l-0.055704,-0.043262l-0.037136,-0.055623Z M2069.973952,759.716827l0.043326,-0.067984l-0.006189,-0.049443l-0.043326,0.018541l-0.049515,0.105066l0.055704,-0.00618Z M2071.050901,760.3225l-0.012379,0.049443l0.043326,0.049443l0.049515,-0.049443l-0.024757,-0.061803l-0.055704,0.012361Z M2074.127013,761.533847l0.068083,0.049443l0.049515,-0.00618l-0.030947,-0.055623l-0.074272,-0.037082l-0.037136,0.012361l0.024757,0.037082Z M2074.399345,761.317535l0.055704,-0.00618l0.055704,-0.080344l-0.024757,-0.043262l-0.055704,0.043262l-0.030947,0.086525Z M2074.603593,761.22483l0.086651,0.061803l0.043326,-0.018541l0.006189,-0.080344l0.129977,-0.092705l-0.006189,-0.055623l-0.055704,-0.00618l-0.055704,0.055623l-0.142355,0.086525l-0.006189,0.049443Z M2091.559345,764.861961h0.204249l0.064988,-0.055623l0.009284,-0.083435l-0.102124,-0.009271l-0.111408,0.074164l-0.204249,0.037082l-0.04642,0.055623l0.185681,-0.018541Z M2092.506317,764.759985l0.232101,-0.027812l0.037136,-0.120517l-0.074272,-0.120517l-0.148545,0.009271l-0.157829,0.074164l-0.009284,0.129787l0.120693,0.055623Z M2092.274216,765.612873l0.074272,-0.055623l-0.027852,-0.074164l-0.09284,0.009271l-0.018568,0.074164l0.064988,0.046353Z M2092.566663,765.673131l0.041778,0.046353l0.051062,-0.041717l-0.004642,-0.069529l-0.074272,-0.037082l-0.032494,0.041717l0.018568,0.060258Z M2092.21387,766.655805l0.125335,-0.134422l0.041778,0.004635l0.02321,0.069529l0.134619,0.009271l0.09284,-0.037082l0.078914,-0.004635l0.097482,0.018541l0.157829,-0.018541l0.139261,-0.08807l0.041778,-0.069529l-0.060346,-0.055623l0.009284,-0.032447l0.074272,0.018541l0.106766,-0.037082v-0.083435l-0.143903,-0.078799l-0.111408,-0.08807l-0.06963,-0.143693l-0.060346,-0.037082l-0.055704,0.004635l-0.037136,0.139058l-0.083556,0.023176l-0.037136,0.064894l-0.013926,0.199316l-0.064988,0.060258l-0.204249,0.018541l-0.143903,0.055623l-0.09284,0.092705l-0.009284,0.139058l0.064988,-0.009271Z M2089.618981,767.096154l0.129977,-0.129787l0.259953,-0.046353l0.055704,-0.111246l-0.04642,-0.074164l-0.232101,-0.037082l-0.111408,0.055623l-0.185681,0.296656l0.009284,0.129787l0.064988,0.018541l0.055704,-0.101976Z M2089.312607,768.088099l0.148545,-0.074164l0.009284,-0.139058l-0.064988,-0.046353l-0.139261,0.055623l-0.037136,0.148328l0.083556,0.055623Z M2074.455251,778.391454l0.210438,-0.037082l0.160923,-0.197771l-0.012379,-0.284296l-0.235196,-0.123607l-0.284711,0.061803l-0.086651,0.197771l0.074272,0.284296l0.173302,0.098885Z M2068.402057,772.631375l0.111408,-0.086525l0.049515,-0.197771l-0.160923,-0.135968l-0.222817,0.049443l-0.074272,0.17305l0.086651,0.17305l0.210438,0.024721Z M2070.382653,773.62023l0.148545,-0.049443l-0.074272,-0.098885l-0.111408,-0.012361l-0.09903,0.098885l0.136166,0.061803Z M2071.731933,774.386592l0.09903,-0.049443l-0.074272,-0.098885l-0.136166,-0.012361l-0.024757,0.098885l0.136166,0.061803Z M2073.068835,775.091151l0.111408,-0.024721v-0.098885l-0.09903,-0.049443l-0.074272,0.061803l0.061894,0.111246Z M2062.757361,772.390342l0.061894,-0.024721l-0.006189,-0.117426l-0.061894,-0.012361l-0.030947,0.067984l0.037136,0.086525Z M2063.042072,772.53249l0.179491,0.024721l0.068083,-0.024721l-0.09284,-0.030902l-0.117598,-0.135968l-0.111408,-0.00618l-0.043326,0.067984l0.117598,0.105066Z M2065.134075,773.385377l0.018568,-0.061803l-0.142355,-0.086525l-0.148545,-0.17305l-0.334225,-0.086525l-0.049515,0.055623l0.030947,0.074164l-0.018568,0.055623l-0.068083,0.00618l0.006189,0.080344l0.123787,0.092705l0.154734,0.024721l0.123787,0.074164h0.160923l0.142355,-0.055623Z M2064.657495,773.570787l0.154734,0.061803l0.018568,0.055623l-0.111408,0.067984l0.012379,0.111246l0.136166,0.024721l0.259953,-0.061803l0.142355,-0.123607l-0.024757,-0.061803l-0.09903,-0.012361l-0.216628,-0.117426l-0.241385,-0.030902l-0.049515,0.037082l0.018568,0.049443Z M2084.754144,765.872447l-0.061894,-0.123607l0.123787,-0.210132l0.222817,0.012361l0.148545,0.086525l0.358983,-0.098885l0.061894,-0.098885l-0.148545,-0.135968l0.012379,-0.098885h0.222817l0.309468,0.234853l1.101706,0.210132l0.272332,0.012361l0.222817,-0.086525l0.38374,0.037082l0.148545,-0.135968h0.19806l0.284711,0.148328l0.148545,-0.012361l0.408498,-0.296656l0.247574,-0.469706l0.19806,-0.061803l0.420876,0.049443l0.284711,-0.086525l0.061894,-0.284296l-0.111408,-0.18541l-0.346604,-0.197771l-0.210438,-0.049443l0.049515,0.086525l0.284711,0.135968l0.09903,0.210132l-0.148545,0.074164l-0.532285,-0.049443l-0.767481,-0.296656l-0.668451,-0.123607h-1.1636l-0.259953,-0.086525h-0.321847l-0.458013,0.197771l-0.334225,0.024721l-0.284711,-0.111246l-0.160923,0.024721l-0.123787,0.17305l-0.136166,0.061803l-0.09903,-0.160689l-0.086651,0.049443l0.024757,0.284296l0.210438,0.457345l-0.061894,0.111246l-0.371362,0.037082l-0.148545,0.197771l-0.024757,0.296656l0.272332,0.284296l0.173302,0.024721l0.074272,-0.061803Z M2088.894825,764.036885l0.148545,0.030902l0.049515,-0.024721l-0.068083,-0.049443l-0.129977,-0.030902l-0.049515,0.030902l0.049515,0.043262Z M2054.249879,811.922717l0.034041,-0.071074l0.182586,-0.046353h0.157829l0.021663,0.030902l-0.074272,0.040172l-0.126882,0.021631l-0.089746,0.061803l-0.071178,0.009271l-0.034041,-0.046353Z M2054.77288,811.959799h0.080462l0.058799,-0.027812l0.012379,-0.067984l-0.030947,-0.052533l-0.09903,-0.00309l-0.095935,0.055623v0.058713l0.074272,0.037082Z M2056.286067,811.909532l0.034041,0.046353l0.164018,0.095795l0.068083,-0.012361l0.003095,-0.043262l-0.04642,-0.027812l-0.095935,-0.018541l-0.095935,-0.052533l-0.030947,0.012361Z M2062.306083,811.206678l0.009284,-0.078799l0.078914,-0.060258h0.143903l0.097482,0.060258l-0.004642,0.046353l-0.139261,0.101976h-0.102124l-0.083556,-0.069529Z M2062.473195,811.521875l0.199607,0.050988l0.120693,-0.013906l0.111408,-0.162234v-0.115881l-0.060346,-0.046353h-0.148545l-0.273879,0.162234l-0.013926,0.074164l0.064988,0.050988Z M2063.753931,810.858543l0.060346,-0.023176l0.055704,-0.055623l0.106766,0.004635l0.051062,-0.041717l0.041778,-0.139058l0.013926,-0.162234l-0.064988,-0.027812l-0.125335,0.023176l-0.218175,0.166869l-0.055704,0.115881l0.134619,0.139058Z M2065.008445,804.667607l-0.053251,0.076806l0.011834,0.147703l0.266254,0.259958l0.142002,0.029541l0.207086,-0.088622l0.076918,-0.124071l-0.01775,-0.153611l-0.20117,-0.165428l-0.20117,-0.041357l-0.230753,0.059081Z M2064.718524,804.248129l0.118335,0.236325l0.159752,0.053173l0.295838,-0.029541l0.248504,0.053173l0.147919,0.09453l0.047334,-0.047265l-0.100585,-0.218601l-0.396423,-0.277682l-0.331338,-0.029541l-0.189336,0.082714v0.082714Z M2064.03218,809.145972l0.059168,-0.017724l0.023667,-0.25405l-0.065084,-0.118163l-0.088751,-0.023633l-0.041417,0.053173l0.065084,0.319039l0.047334,0.041357Z M2063.683092,808.750127l0.059168,-0.041357l-0.082835,-0.076806l-0.207086,-0.088622l-0.005917,0.041357l0.147919,0.129979l0.088751,0.035449Z M2063.825094,808.54925l-0.065084,-0.112255l-0.130169,-0.047265l-0.118335,0.011816l0.005917,0.053173l0.266254,0.129979l0.041417,-0.035449Z M2066.363382,807.586225h0.065084l0.053251,-0.141795l-0.065084,-0.15952l-0.053251,-0.011816l-0.065084,0.100438l-0.005917,0.129979l0.071001,0.082714Z M2066.22138,807.343991l0.082835,-0.070898l-0.088751,-0.230417l-0.23667,-0.106346l-0.088751,0.041357l-0.029584,0.129979l0.153836,0.18906l0.207086,0.047265Z M2065.138614,807.527143l0.142002,0.064989l0.118335,-0.041357l0.112418,-0.200877l-0.053251,-0.177244l-0.227437,-0.094485l-0.131906,0.062994l-0.051615,0.223341l0.091454,0.162638Z M2063.35767,806.250987l0.112418,0.118163l0.165669,0.041357l0.331338,-0.041357l-0.005917,-0.053173l-0.479257,-0.118163l-0.100585,0.011816l-0.023667,0.041357Z M2063.227502,806.191905l0.224837,-0.053173l0.597592,0.100438l0.260337,0.005908l0.047334,-0.112255l-0.071001,-0.047265l-0.171586,0.011816l-0.615342,-0.047265l-0.349089,0.076806l-0.005917,0.047265l0.082835,0.017724Z M2064.789082,806.35088l0.189779,0.100983l0.319505,0.354488l0.20117,0.059081l0.088751,-0.064989l-0.106502,-0.366304l-0.195253,-0.147703l-0.390506,-0.064989l-0.261791,0.043534l-0.005735,0.057267l0.160581,0.028633Z M2062.317276,806.402421l0.447334,0.022907l0.223667,-0.06872l0.04588,-0.114534l-0.063086,-0.062994l-0.269547,0.03436l-0.424394,-0.01718l-0.246607,0.057267v0.06872l0.286752,0.080174Z M2061.233351,806.476868l0.04588,0.022907l0.223667,-0.120261l0.378513,-0.0859l0.051615,-0.074447l-0.03441,-0.05154l-0.441599,0.074447l-0.200727,0.160347l-0.02294,0.074447Z M2061.021154,806.723116l0.212197,-0.022907l0.430129,0.05154l0.281017,-0.01718l0.01147,-0.057267l-0.212197,-0.022907l-0.086026,-0.045814l-0.189257,-0.022907l-0.510419,0.045814l-0.017205,0.06872l0.080291,0.022907Z M2063.309439,808.051708l0.04588,-0.040087l-0.074556,-0.211888l-0.172051,-0.154621l-0.235137,-0.097354l-0.005735,0.045814l0.223667,0.280608l0.217932,0.177527Z M2062.477857,807.381685l-0.166316,-0.200434l-0.189257,-0.125987h-0.074556v0.074447l0.194992,0.188981l0.217932,0.091627l0.017205,-0.028633Z M2062.741669,806.831923l0.114701,0.108807l0.160581,0.011453l0.01147,-0.05154l-0.160581,-0.217614l-0.114701,-0.011453l-0.04588,0.045814l0.03441,0.114534Z M2063.074302,806.860556l0.286752,0.114534l0.091761,-0.01718l-0.017205,-0.097354l-0.235137,-0.166074h-0.172051l-0.028675,0.062994l0.074556,0.10308Z M2062.409036,806.110359l0.120436,0.011453l0.103231,-0.03436l-0.03441,-0.040087l-0.229402,-0.01718l-0.040145,0.040087l0.080291,0.040087Z M2062.495062,807.04381l0.453069,0.269155l0.258077,0.080174l0.258077,0.154621l0.172051,0.251975l0.154846,0.10308l0.309693,0.114534l0.286752,0.194708l0.367043,0.120261l0.281017,0.177527l0.103231,0.154621l0.108966,0.03436l0.068821,-0.091627l-0.051615,-0.274881l-0.108966,-0.080174l-0.194992,-0.074447l-0.481744,-0.372235l-0.246607,-0.263428l-0.372778,-0.200434l-0.418659,-0.131714l-0.493214,-0.097354l-0.177787,-0.0859l-0.131906,-0.223341l-0.149111,-0.057267l-0.108966,0.03436l-0.028675,0.080174l0.143376,0.183254Z M2063.085772,807.530579l0.166316,0.057267l0.03441,-0.040087l-0.120436,-0.080174l-0.126171,-0.028633l-0.03441,0.03436l0.080291,0.057267Z M2063.257824,806.557041l0.384248,0.263428l0.252342,0.080174l0.275282,0.160347l0.447334,0.177527l0.126171,0.154621l0.126171,0.03436l0.086026,-0.097354l0.074556,-0.229068l0.149111,-0.154621l0.017205,-0.091627l-0.275282,-0.343602l-0.183522,-0.0859h-0.711146l-0.338368,0.080174l-0.177787,-0.03436l-0.160581,-0.120261l-0.108966,0.03436l-0.04588,0.091627l0.063086,0.080174Z M2061.864207,806.557041l0.172051,-0.005727l0.063086,-0.0859l0.017205,-0.062994l-0.086026,-0.011453l-0.189257,0.125987l0.02294,0.040087Z M2062.168164,806.574221l0.091761,-0.011453l0.05735,-0.040087l-0.051615,-0.040087l-0.126171,0.01718l-0.02294,0.045814l0.051615,0.028633Z M2065.890041,800.848983l0.106502,0.007878l0.027612,-0.019694l-0.027612,-0.03151l-0.094668,-0.007878l-0.04339,0.027571l0.031556,0.023633Z M2066.016265,801.089247l0.027612,0.129979l0.153836,0.216632l0.055223,0.129979l0.035501,0.007878l0.019723,-0.102408l-0.114391,-0.216632l-0.071001,-0.204815l-0.07889,-0.003939l-0.027612,0.043326Z M2066.990558,802.546587l0.153836,0.161489l0.366839,0.212693l0.114391,0.003939l0.019723,-0.051204l-0.094668,-0.244203l-0.197225,-0.192999l-0.118335,-0.06302l-0.43784,-0.165428l-0.019723,0.035449l0.213003,0.303284Z M2066.69472,802.621423l-0.003945,0.098469l0.149891,0.291468l0.039445,0.03151l0.051279,-0.019694l-0.019723,-0.141795l-0.126224,-0.275713l-0.039445,-0.023633l-0.051279,0.039388Z M2068.931253,802.517046l0.065084,0.177244l0.118335,0.029541l0.23667,-0.053173l0.106502,-0.09453l-0.011834,-0.106346l-0.142002,-0.082714l-0.272171,-0.029541l-0.082835,0.029541l-0.01775,0.129979Z M2070.079104,802.25118l-0.005917,0.100438l0.059168,0.09453l0.108474,0.057112l0.12228,-0.007878l0.003945,-0.039388l-0.130169,-0.035449l-0.07889,-0.074836l-0.04339,-0.106346l-0.035501,0.011816Z M2072.0908,801.01835l0.059168,0.078775l0.12228,0.007878l0.035501,-0.074836l-0.027612,-0.070898l-0.142002,-0.066959l-0.047334,0.027571v0.098469Z M2070.584,802.660811l0.04339,-0.003939v-0.039388l-0.039445,-0.011816l-0.027612,0.023633l0.023667,0.03151Z M2075.534351,802.765188l-0.01775,0.118163l0.029584,0.212693l0.076918,0.035449l0.059168,-0.047265l0.005917,-0.088622l-0.065084,-0.082714l-0.041417,-0.141795l-0.047334,-0.005908Z M2084.267481,809.329124l0.032542,0.141795l0.103543,0.168382l0.065084,0.002954l0.032542,-0.050219l-0.014792,-0.064989l-0.097626,-0.118163l-0.026625,-0.106346l-0.059168,-0.053173l-0.035501,0.011816v0.067944Z M2088.267207,813.919743l-0.029584,0.035449l0.011834,0.041357l0.041417,0.005908l0.011834,-0.047265l-0.035501,-0.035449Z M2087.693282,813.67751l0.005917,0.053173l0.053251,0.023633l0.035501,-0.041357l-0.041417,-0.059081l-0.053251,0.023633Z M2087.811617,814.209242l0.124252,0.011816l0.082835,-0.041357l-0.011834,-0.029541l-0.088751,0.017724l-0.082835,-0.029541l-0.065084,-0.005908l-0.011834,0.035449l0.053251,0.041357Z M2106.179196,820.846045l0.110446,0.055143l0.07889,-0.035449l0.063112,-0.133918l-0.035501,-0.074836l-0.142002,-0.066959l-0.059168,0.027571l-0.011834,0.082714l-0.027612,0.078775l0.023667,0.066959Z M2107.895055,820.554577l0.051279,0.023633l0.067057,-0.043326l0.007889,-0.082714l-0.023667,-0.035449l-0.039445,0.015755l-0.067057,0.082714l0.003945,0.039388Z M2111.267605,819.030279l0.063112,-0.015755l0.039445,-0.047265l-0.023667,-0.043326l-0.071001,0.011816l-0.047334,0.066959l0.039445,0.027571Z M2091.639839,802.210651l0.049367,-0.036971l0.030854,-0.052376l-0.026226,-0.003081l-0.064794,0.046214l-0.023141,0.041593l0.03394,0.004621Z M2091.012959,801.6497l-0.008442,0.023161l0.012566,0.026227l0.03118,0.015902l0.008011,-0.022622l-0.014109,-0.026092l-0.029206,-0.016575Z M2089.759532,800.329016l0.024246,0.010484l0.035895,-0.0249l-0.004576,-0.030811l-0.032275,-0.008012l-0.028595,0.019993l0.005305,0.033246Z M2088.919767,799.757794l0.041814,-0.018265l0.017211,-0.024551l-0.027046,-0.00491l-0.041798,0.019641l-0.009835,0.024551l0.019653,0.003535Z M2091.526012,802.338133l0.024661,-0.0197l-0.002466,-0.027087l-0.032059,-0.00985l-0.022195,0.022162l0.002466,0.024625l0.029593,0.00985Z M2089.891436,800.522939l0.007567,0.028673l0.026427,0.007849l0.017716,-0.013121l-0.004711,-0.026676l-0.024427,-0.010702l-0.022573,0.013976Z M2089.891436,800.522939l0.007567,0.028673l0.026427,0.007849l0.017716,-0.013121l-0.004711,-0.026676l-0.024427,-0.010702l-0.022573,0.013976Z M2089.150776,800.28968h0.051279l0.011834,-0.055143l0.039445,-0.027571l0.071001,0.007878l0.027612,-0.043326l-0.039445,-0.078775l-0.074946,-0.043326l-0.094668,-0.007878l-0.086779,0.06302l0.003945,0.110285l0.090724,0.074836Z M2093.462627,795.718952l0.105169,0.006186l0.030932,-0.055678l-0.043305,-0.043305l-0.117542,0.006186l-0.030932,0.055678l0.055678,0.030932Z  M2047.816615,768.089091v24.631l-0.198,0.038l-0.049,0.074l0.037,0.118l0.095,0.031v0.065l-0.206,0.034l-0.007,0.055l0.062,0.025l0.148,-0.018l0.013,0.062l-0.253,0.13l0.024,0.055l0.08,0.007l0.007,0.068l-0.062,0.037l-0.136,-0.112l-0.055,0.025l-0.007,0.093l0.13,0.05l0.006,0.055l-0.092,0.075l0.055,0.049l0.08,-0.049l0.05,0.049l-0.019,0.056l0.081,0.056l-0.062,0.037l-0.192,0.025l-0.024,0.08l0.074,0.149l-0.025,0.068l0.062,0.093l-0.031,0.043l-0.161,-0.049l-0.092,0.049l0.018,0.05l0.074,-0.012l0.019,0.062l-0.031,0.117l-0.086,0.081l-0.025,-0.099l-0.049,-0.013l-0.093,0.081l-0.161,0.056l0.019,0.049l0.179,-0.006l0.025,0.056l-0.093,0.08l-0.012,0.05l0.074,0.025v0.049l-0.068,0.031l-0.012,0.05l0.061,0.043l-0.018,0.05h-0.111l-0.019,0.049l0.05,0.062l-0.019,0.081l-0.049,0.043l0.043,0.056l0.216,0.043l0.099,0.136l-0.025,0.081l-0.093,0.049l-0.03,0.149l0.092,0.099l0.117,-0.024l0.068,0.037l0.013,0.086l-0.087,0.106l-0.08,0.006l-0.006,0.049l0.148,0.149h0.154l0.056,-0.099l0.049,0.006v0.118l-0.074,0.068l-0.006,0.074l0.068,0.1l0.043,-0.025l0.025,-0.106l0.068,-0.012l0.055,0.068l0.081,0.006l0.049,-0.068l0.117,0.019v14.967z M2047.816273,768.13814l0.043,0.004l0.055,0.039h0.045l0.092,-0.043l0.199,0.006l0.241,0.13l0.291,0.062h0.148l0.186,-0.025l0.149,0.068l0.031,0.056l0.136,0.062l0.111,-0.007l0.087,0.05l0.031,0.074l0.086,0.031l0.062,-0.056l0.056,0.019l0.006,0.117l0.204,0.149l0.421,0.105l0.174,0.012l0.16,0.074l0.093,0.062l0.749,0.346l0.087,0.08l1.089,0.538l0.39,0.118l0.112,0.129l0.284,0.229l0.174,0.031l0.328,-0.08l0.315,0.043l0.557,0.346l0.551,0.451l0.242,0.087l0.204,0.024l0.384,0.142l0.315,0.019l0.099,0.056l0.019,0.105l0.749,0.327l0.414,0.229l0.588,0.068l0.632,0.229l0.136,0.074l0.489,0.099l0.21,0.092l0.65,0.136l0.378,0.031l0.154,0.074l0.304,0.037l0.123,-0.049l0.397,-0.019l0.445,0.124l0.081,0.087l0.433,0.055l0.322,0.099l0.458,-0.006l0.229,0.093l0.105,0.105l0.248,0.031l0.161,0.074l0.185,0.173l0.112,0.235l0.272,0.259l0.26,0.149l0.179,0.006l0.056,-0.062l0.025,-0.074l0.062,-0.006l0.018,0.055l-0.055,0.074l0.006,0.099l0.173,0.13l0.39,0.118l0.229,0.148l0.019,0.117l0.154,0.118l0.341,0.111l0.21,0.154l0.13,0.254l0.204,0.185l0.137,0.068l0.043,0.118l0.062,0.012l0.068,-0.056l0.031,-0.074l0.291,-0.037l0.315,-0.018l0.285,-0.075l0.006,0.056l-0.08,0.08l-0.167,0.025l-0.013,0.08l0.106,0.112l0.235,0.018l0.117,-0.111l0.068,0.019l0.044,0.197l0.148,0.068l0.062,-0.043l-0.006,-0.173l-0.13,-0.105l-0.192,-0.025l-0.093,-0.136l0.007,-0.062l0.544,-0.012l0.013,0.043l-0.081,0.025l0.037,0.05l0.266,0.08l0.112,0.123l0.173,0.007l0.112,-0.118l-0.069,-0.012l-0.179,0.031l-0.149,-0.118l-0.117,-0.043l0.006,-0.056l0.526,0.013l0.588,0.123l0.39,0.05l0.142,0.086l0.007,0.081l-0.056,0.179l0.031,0.043l0.08,-0.062l0.044,0.007l0.055,0.123v0.087l-0.086,0.117l-0.031,0.254l0.099,0.216l0.309,0.222l0.13,0.013l0.186,-0.019l0.439,0.167l0.916,0.507l0.087,0.136l-0.025,0.049l-0.105,0.037l-0.025,0.105l0.056,0.18l0.148,0.068l0.186,-0.025l0.074,0.031l0.081,0.117l0.34,0.247v0.093l-0.043,0.074l0.012,0.087l0.106,0.043l0.105,0.111l0.031,0.118l0.148,0.099l0.13,0.006l0.237,0.067l0.089,0.112l0.071,0.006l0.13,-0.053l0.197,0.072l0.149,0.08l0.223,-0.025l0.105,-0.074l0.365,-0.037l0.248,0.056l0.111,0.105l0.118,0.21l0.161,0.111l0.192,0.062l0.055,0.08l0.006,0.093l0.062,0.025h0.13l0.099,0.092l0.019,0.099l0.233,0.191l0.03,0.113l0.118,0.1l0.112,0.036l0.154,0.153l0.018,0.16l0.314,0.425l0.177,0.118l0.13,0.124l0.077,0.148l0.379,0.266l0.26,0.112l0.237,0.201l-0.006,0.154l-0.107,0.153l-0.065,0.278l0.024,0.272l0.183,0.567l-0.011,0.094l-0.066,0.16l0.006,0.473l-0.029,0.165l0.047,0.03l0.071,-0.03l0.053,0.041l-0.023,0.095l-0.16,0.118l-0.172,0.248l-0.082,0.266l0.023,0.201l-0.029,0.142l-0.071,0.077l-0.071,0.259l0.053,0.237l0.124,0.177l0.195,0.1l0.154,-0.035l0.107,-0.1h0.136l0.094,0.094l0.29,0.041l0.184,-0.118h0.266l0.172,0.13l0.414,0.071l0.189,0.083l0.148,0.13l0.13,0.024l0.107,-0.036l0.142,0.047l0.065,0.101l0.284,0.1l0.195,0.006l0.089,0.041l0.035,0.083l0.113,0.018l0.231,-0.13l0.1,0.018l0.136,0.112l0.053,0.112l0.154,0.036l0.355,-0.083l0.13,0.047l0.054,0.172l0.39,0.206l0.278,0.254l0.036,0.113l0.278,0.23l0.136,0.047h0.231l0.213,0.095l0.112,0.118l0.178,0.077l0.077,0.083l0.017,0.124l0.142,0.065l0.249,-0.089l0.26,0.012l0.249,0.13l0.083,0.218l0.349,0.231l0.23,0.053l0.101,-0.047l0.077,-0.118l0.136,0.011l0.112,0.107l0.036,0.165l0.201,0.03l0.148,-0.059l0.148,0.029l0.065,0.083l0.296,-0.006l0.302,-0.284h0.118l0.166,0.089l0.13,-0.012l0.106,-0.059l0.107,0.018l0.201,0.177l0.142,0.047l0.266,0.03l0.349,0.248l0.083,0.142l0.438,0.26l0.337,0.348l0.077,0.195l0.213,0.225l0.154,0.484l0.225,0.183l0.319,0.071l0.213,0.231l0.006,0.189l0.065,0.1l0.13,0.101l0.107,0.33l-0.047,0.404l-0.071,0.134v0.189l0.071,0.095l0.007,0.078l-0.181,0.134l0.02,0.048l0.142,-0.024l0.118,0.041l0.03,0.124l-0.101,0.255l-0.142,0.088l-0.118,0.142l-0.414,0.118l-0.509,-0.035l-0.178,0.047h-0.39l-0.089,0.059l0.006,0.148l-0.047,0.041l-0.367,-0.018l-0.403,-0.124l-0.301,-0.023l-0.231,0.071l-0.107,0.106l-0.207,0.018l-0.201,-0.077l-0.248,-0.036l-0.273,0.03l-0.177,-0.036l-0.178,-0.147l-0.124,-0.036h-0.331l-0.136,0.059l-0.136,0.142l-0.385,0.053l-0.136,-0.017l-0.059,0.088l-0.089,0.467l0.018,0.461l-0.036,0.532l0.071,0.047l0.077,-0.024l0.083,0.053l0.047,0.189l0.314,0.231l0.083,-0.006l0.059,-0.148l0.065,-0.094l0.047,0.011l-0.011,0.125l-0.071,0.07l-0.077,0.166l0.053,0.094l0.106,0.036l-0.005,0.183l-0.083,0.13l0.006,0.106l0.23,0.13l0.267,0.343l0.017,0.207l-0.071,0.25l0.016,0.059l0.103,0.063l0.004,0.055l-0.079,0.099l0.027,0.074l0.079,0.012l0.008,0.055l-0.047,0.091l0.027,0.13l0.107,0.063l0.063,0.169l0.075,0.048l0.047,-0.024l0.056,0.016l0.023,0.11l-0.035,0.055l-0.115,0.047l-0.008,0.048l0.087,0.015l0.146,-0.023l0.063,0.043l-0.031,0.126l0.051,0.016l0.132,-0.067l0.053,-0.08l0.054,-0.003l0.026,0.062l0.074,0.018l0.006,0.035l-0.071,0.065l0.027,0.033l0.154,-0.041l0.041,0.011l0.003,0.083l0.098,0.033l0.15,-0.024l0.074,0.032l-0.028,0.103l0.055,0.031l0.11,-0.015l0.072,0.051l0.023,0.205l0.063,0.019l0.071,-0.063l0.123,0.048l0.085,0.082l0.163,0.054l-0.008,0.029l-0.091,0.035l-0.016,0.051l-0.059,0.035l0.008,0.03l0.111,-0.001l0.083,-0.036l0.11,0.048l0.158,0.185l0.008,0.114l-0.016,0.043l-0.079,0.02l-0.012,0.051l0.091,0.126l0.221,0.047l0.148,-0.015l0.103,0.044l0.048,0.106l0.006,0.098l-0.064,0.102l0.001,0.093l0.042,0.009l0.062,-0.062h0.044l0.054,0.065l0.159,0.032l0.181,0.092l0.166,0.201l0.059,0.224l-0.015,0.272l0.142,0.283l0.272,0.071l0.13,-0.13l0.213,0.024l0.059,0.118l0.154,0.012l0.119,-0.095l0.13,0.024l0.189,0.201l0.272,0.118l0.142,0.166l0.059,0.283l0.131,0.036l0.189,-0.083l0.615,0.035l0.107,0.118l-0.012,0.189l0.177,0.497l0.024,0.248l0.272,0.567l0.024,0.638l0.106,0.225l0.048,0.496l-0.071,0.177l0.047,0.237l0.355,0.319l0.426,0.059l0.604,0.413l0.26,0.449l0.012,0.52l0.118,0.414l0.162,0.161l0.075,0.335l-0.044,0.169l0.095,0.193l0.387,0.371l0.875,0.248l0.403,-0.012l0.296,-0.154l0.248,-0.011l0.13,-0.107l0.016,-0.122l0.103,-0.067l0.461,0.036l0.201,0.082l0.391,-0.047l0.118,-0.165l0.15,-0.095l0.079,-0.11l0.095,0.008l0.055,0.118l0.236,0.016l0.142,-0.087l0.324,-0.032l0.323,0.119l0.115,0.161l0.004,0.091l-0.06,0.082l0.004,0.089l0.064,0.069l-0.008,0.059l-0.178,0.063l0.012,0.028l0.205,0.019l0.032,0.048l-0.087,0.216l-0.308,0.138l-0.158,0.236l-0.071,0.388l-0.112,0.278l-0.231,0.16l-0.041,0.259l0.16,0.556l0.224,0.248l0.196,0.018l0.574,0.136l0.201,0.141l0.171,0.071l0.19,0.172l0.012,0.13l0.059,0.088l0.083,0.018l0.236,-0.095l0.509,0.048l0.225,0.124l0.13,-0.012l0.124,-0.112l0.107,0.006l0.094,0.053h0.107l0.101,-0.077l0.26,-0.059l0.136,0.035l0.035,0.071l0.284,0.101l0.107,-0.042l0.148,0.03l0.148,0.112l0.307,0.024l0.32,-0.024l0.077,-0.089l0.148,0.018l0.047,0.047l0.006,0.13l0.077,0.083l0.154,0.024l0.053,0.1l-0.047,0.183l-0.077,0.089l-0.237,0.041l-0.083,0.095l-0.254,0.053l-0.124,0.095l-0.136,0.011l-0.125,-0.053l-0.083,0.018l-0.071,0.065l-0.455,0.035l-0.379,0.095l-0.201,0.154l-0.012,0.141l0.154,0.142l0.172,0.248l0.142,0.077l0.1,-0.012l0.089,0.053l0.101,0.26l0.248,0.26l-0.012,0.142l0.048,0.042l0.142,-0.018l0.082,0.041l0.101,0.183l0.337,0.183l0.266,0.048l0.184,-0.048l0.331,0.077l0.184,0.16l0.124,0.023l0.154,-0.082l0.041,-0.089l0.083,0.006l0.154,0.124l0.006,0.112l0.077,0.042l0.171,0.006l0.267,0.195l0.1,0.159l0.105,0.028l0.118,-0.02l0.087,0.024l0.067,0.067l0.067,0.011l0.079,-0.015l0.213,0.059l0.189,0.004l0.134,-0.059l0.071,0.003l0.059,0.067l0.276,0.103l0.068,-0.032l0.063,-0.114l0.086,-0.004l0.067,0.047l0.115,0.016l0.043,-0.039h0.052l0.047,0.051l-0.02,0.039l-0.087,0.012l-0.071,0.087l0.044,0.079l0.114,0.031l0.103,0.162l0.209,0.039l0.126,-0.024l0.276,-0.161l0.166,0.024l0.063,0.039l0.213,0.024l0.063,-0.028l0.039,-0.083l0.06,-0.008l0.067,0.016l0.154,-0.067l0.039,-0.075l0.075,-0.039l0.185,-0.004l-0.004,0.032l-0.09,0.051l-0.079,0.094l-0.15,0.036l-0.264,0.138l-0.056,0.078l-0.067,0.04l-0.205,0.035l-0.106,0.083l-0.363,0.094l-0.154,0.119l-0.13,0.035l-0.343,-0.031l-0.229,-0.079l-0.134,-0.004l-0.324,-0.087l-0.106,-0.067l-0.166,-0.004l-0.087,-0.067l-0.071,0.016l-0.055,0.075l-0.13,0.027l-0.122,0.111l-0.024,0.126l-0.051,0.063l0.015,0.209l0.079,0.051l0.332,0.051l0.13,-0.008l0.43,0.122l0.193,0.11l0.56,0.201h0.158l0.166,0.044l0.039,0.082l0.067,0.071l0.055,0.193l0.111,0.13l-0.028,0.067l-0.067,0.02l-0.071,0.122l-0.063,0.035l-0.087,-0.031l-0.173,-0.012l-0.095,0.047l-0.051,0.079l-0.162,0.079l-0.103,0.134l-0.082,-0.004l-0.04,-0.047l-0.24,-0.028l-0.166,0.024l-0.091,0.114l0.016,0.071l-0.047,0.043l-0.194,0.008l-0.063,0.063l0.04,0.067l0.008,0.095l-0.032,0.004l-0.043,-0.064l-0.052,-0.007l-0.063,0.035l-0.201,0.004l-0.071,-0.032l-0.035,-0.137l-0.083,-0.044l-0.103,0.004l-0.126,0.146l-0.154,0.008l-0.162,0.083l-0.035,-0.02v-0.103l-0.071,-0.039l-0.024,0.032l0.032,0.055l-0.055,0.102l-0.182,0.059l-0.035,-0.023l0.015,-0.067l-0.027,-0.032l-0.126,0.008l-0.052,-0.055l0.04,-0.087l0.114,-0.019l0.008,-0.044l-0.079,-0.047l-0.284,0.024l-0.11,0.094l-0.087,0.004l-0.075,-0.043l-0.02,-0.095l-0.071,-0.039l-0.087,0.031l-0.047,-0.019l-0.028,-0.111l-0.059,-0.015l-0.079,0.055l-0.051,-0.008l-0.047,-0.087l0.039,-0.094l-0.019,-0.075l-0.048,-0.024l-0.047,-0.075l-0.047,0.016l-0.06,0.114l-0.102,0.055l-0.044,-0.043l0.032,-0.079l-0.028,-0.031l-0.082,0.023l-0.028,-0.031l0.039,-0.083l0.008,-0.102l-0.043,0.016l-0.075,0.157l-0.036,-0.004l-0.019,-0.098h-0.067l-0.048,0.086l-0.035,-0.027l0.004,-0.126l-0.083,-0.063l-0.067,0.004l-0.016,0.082l-0.063,0.028l-0.059,-0.035l-0.075,0.015l-0.028,-0.031l0.154,-0.15l0.099,-0.027l0.004,-0.048l-0.063,-0.019l-0.154,0.047l-0.02,-0.032l0.103,-0.114l0.122,0.004l0.094,0.095l0.079,0.004l0.044,-0.04h0.161l0.079,0.055l0.115,0.012l0.193,-0.055l0.13,-0.079l0.032,-0.094l0.087,-0.083h0.145l0.071,0.035l0.123,-0.008l0.067,-0.074l-0.004,-0.099l-0.044,-0.09l0.036,-0.103l-0.032,-0.094l-0.031,0.027l0.012,0.063l-0.063,0.13l-0.103,0.134h-0.095l-0.079,-0.043l-0.106,-0.008l-0.055,0.047h-0.087l-0.189,-0.138l-0.229,-0.074l-0.063,0.047l-0.004,0.146l-0.103,0.224l-0.067,-0.004l-0.02,-0.11l-0.086,-0.11l-0.194,-0.335l-0.485,-0.304l-0.288,-0.104l-0.491,-0.035l-0.444,0.041l-0.177,-0.041l-0.16,0.017l-0.13,0.119l-0.237,0.041l-0.118,-0.053l0.03,-0.136l-0.101,-0.077l-0.108,0.035l0.003,0.083l-0.027,0.036l-0.162,0.004l-0.016,-0.044l0.109,-0.067v-0.047l-0.259,-0.114l-0.157,-0.166l-0.186,-0.019l-0.169,0.114l-0.296,0.004l-0.631,-0.252l-0.134,-0.111l-0.324,-0.07l-0.377,-0.018l-0.402,0.159l-0.195,0.178l-0.065,-0.006l-0.107,-0.142l-0.213,-0.142l-0.201,-0.059l-0.438,0.018l-0.106,0.071l-0.053,-0.006l-0.03,-0.077l-0.101,-0.041l-0.148,0.029l-0.053,-0.018l-0.006,-0.118l-0.094,-0.065l-0.024,-0.082l0.059,-0.036l0.036,-0.106l-0.06,-0.101l-0.118,-0.047l-0.219,0.106l-0.124,0.172l-0.107,0.006l-0.118,-0.042l-0.225,0.012l-0.13,-0.053h-0.077l-0.065,0.077l-0.367,0.076l-0.444,-0.017l-0.159,0.071l-0.059,-0.024l-0.03,-0.1l-0.118,-0.048l-0.113,0.006l-0.112,-0.077l-0.059,-0.236l-0.166,-0.065l-0.13,0.059l-0.13,-0.023l-0.142,-0.16l-0.16,-0.094l-0.397,0.017l-0.272,0.219l-0.396,0.059l-0.154,-0.047l-0.112,0.023l-0.089,0.148l-0.142,0.047l-0.142,-0.065l-0.012,-0.106l-0.177,-0.248l-0.16,-0.047l-0.178,0.065l-0.165,-0.054l0.017,-0.047l0.142,0.03l0.101,-0.083l0.006,-0.124l-0.118,-0.142l-0.083,0.006l-0.119,0.248h-0.053l-0.124,-0.136l-0.231,-0.041l-0.272,0.083l-0.095,0.171l-0.059,0.012l-0.077,-0.095l0.006,-0.295l-0.083,-0.142l-0.272,-0.124l-0.207,-0.03l-0.308,-0.283l-0.017,-0.112l-0.296,-0.32l-0.13,-0.053l-0.054,-0.094l0.042,-0.278l-0.107,-0.348l-0.171,-0.243l-0.166,-0.088l-0.26,-0.272l-0.036,-0.177l-0.248,-0.29l-0.042,-0.146l-0.205,-0.181l-0.039,-0.118l-0.379,-0.354l-0.095,-0.008l-0.039,0.078l0.071,0.174l-0.063,0.055l-0.19,-0.071l-0.047,-0.126l-0.221,-0.126h-0.126l-0.063,-0.039l0.024,-0.126l-0.095,-0.205l-0.087,-0.055h-0.197l-0.016,0.102l0.15,0.087v0.134l-0.095,0.047l-0.244,-0.142l-0.008,-0.11l-0.158,-0.26l-0.134,-0.04l-0.071,-0.078l0.047,-0.237l-0.165,-0.401l-0.316,-0.119l-0.173,0.055l-0.048,-0.063l0.055,-0.133l-0.086,-0.15l0.047,-0.394l-0.095,-0.181l0.008,-0.11l-0.063,-0.063l-0.323,-0.127l-0.213,-0.196l-0.198,-0.079h-0.213l-0.236,-0.095l-0.387,-0.079l-0.339,-0.204l-0.166,-0.323v-0.182l-0.118,-0.173l-0.008,-0.173l0.079,-0.11l0.142,0.015l0.087,-0.086l0.039,-0.15l-0.055,-0.047l-0.111,0.039l-0.086,-0.047l0.008,-0.166l-0.166,-0.173l-0.103,-0.22l-0.126,-0.119l-0.095,-0.023l-0.055,-0.063v-0.134l-0.402,-0.489l-0.26,-0.133l-0.482,-0.623l-0.228,-0.528l-0.048,-0.386l-0.126,-0.26l-0.039,-0.22l-0.182,-0.205l-0.402,-0.173l-0.474,-0.512l-0.11,-0.331l-0.316,-0.229l-0.441,-0.11l-0.781,-0.087l-0.308,-0.228l-0.103,-0.197l0.095,-0.126l-0.047,-0.079l-0.111,0.008l-0.197,0.103l-0.503,-0.024l-0.118,-0.095l-0.178,-0.041l-1.254,0.1l-0.178,-0.112l-0.254,-0.384l-0.219,-0.136l-0.296,-0.035l-0.313,0.059l-0.054,-0.024l0.024,-0.094l-0.183,-0.284l-0.065,-0.012l-0.065,0.042l-0.018,0.236l-0.053,0.053l-0.29,-0.112l-0.095,-0.089l-0.012,-0.159l-0.101,-0.112l-0.112,-0.054l-0.041,0.012l0.171,0.177l-0.012,0.172l-0.236,0.177l-0.29,-0.018l-0.065,-0.047l-0.018,-0.112l-0.095,-0.177l-0.225,-0.13l-0.047,0.017l0.13,0.154l-0.047,0.041l-0.107,-0.017l-0.035,-0.083l-0.201,-0.142l-0.071,-0.018l-0.095,0.053l-0.112,-0.017l-0.172,-0.183l0.006,-0.059l0.118,-0.077l0.065,-0.152l0.008,-0.122l-0.106,-0.252l-0.008,-0.319l0.028,-0.063l0.102,-0.11h-0.047l-0.048,0.035l-0.039,-0.008l-0.181,-0.209l-0.004,-0.212l0.071,-0.087l0.185,-0.087l0.032,-0.055l-0.016,-0.138l-0.028,0.028l-0.012,0.118l-0.205,0.087l-0.087,0.11v0.264l0.19,0.272l-0.008,0.224l-0.032,0.063l-0.031,0.162l-0.111,0.094h-0.146l-0.205,-0.13l-0.019,-0.067l0.078,-0.173l0.032,-0.209l-0.043,-0.138l-0.067,-0.051l-0.036,0.012l0.095,0.173l-0.036,0.17l-0.102,0.047l-0.119,-0.043l-0.189,-0.225l0.004,-0.087l0.055,-0.114l0.012,-0.421l-0.059,-0.107l0.008,-0.066l0.071,-0.075l0.189,-0.012l0.059,-0.067v-0.169l0.048,-0.063v-0.067l-0.095,-0.115v-0.051l-0.02,-0.031l-0.027,0.102l0.09,0.11l-0.035,0.052l-0.036,0.173l-0.027,0.051l-0.162,0.008l-0.13,0.114l-0.024,0.11l0.051,0.119v0.185l-0.051,0.011l-0.106,-0.074l-0.079,-0.189l-0.103,-0.126l0.004,-0.067l0.071,-0.095l0.028,-0.142l-0.044,-0.071l-0.055,-0.011l0.055,0.074l-0.019,0.099l-0.071,0.051l-0.044,0.169l0.103,0.142l0.091,0.189v0.059l-0.06,0.02l-0.015,0.158l0.063,0.137l0.008,0.13l0.094,0.197l-0.008,0.111l-0.051,0.098l-0.099,0.012l-0.074,-0.035l-0.202,0.007l-0.169,-0.086l-0.016,-0.075l-0.118,-0.162l-0.024,-0.161l-0.087,-0.118l-0.051,-0.158l0.031,-0.165l0.131,-0.183l0.011,-0.142l-0.171,-0.219l-0.189,-0.047l-0.03,-0.053l0.004,-0.124l-0.022,-0.03l-0.041,0.14l0.029,0.108l0.184,0.065l0.148,0.178l-0.006,0.094l-0.113,0.13h-0.041l-0.024,-0.094l-0.094,-0.024l-0.095,0.059l-0.059,0.012l0.006,-0.065l-0.036,-0.042l-0.025,0.099l0.007,0.079l0.048,0.006l0.142,-0.073l0.055,0.012l-0.032,0.161l0.056,0.343l-0.014,0.313l0.047,0.201l0.172,0.183l-0.012,0.094l-0.142,0.048l-0.089,-0.048l-0.035,-0.153l-0.207,-0.372l-0.148,-0.095l-0.054,-0.077l-0.017,-0.165l-0.054,-0.136l-0.088,-0.089l-0.107,-0.23l-0.018,-0.089l-0.047,-0.029l-0.018,0.13l0.19,0.336l-0.006,0.065l-0.107,0.018l-0.083,-0.041l-0.041,-0.107l-0.065,-0.065l-0.024,0.065l0.048,0.148l0.266,0.101l0.053,0.159l0.207,0.372l0.048,0.166l-0.054,0.254l0.083,0.26l0.107,0.165l0.171,0.13l-0.006,0.065l-0.154,0.024l-0.112,-0.053l-0.024,-0.124l-0.195,-0.249l-0.065,-0.005l-0.154,0.094l-0.164,-0.075l-0.09,-0.155l-0.018,-0.13l0.118,-0.219l-0.006,-0.118l-0.112,-0.112l-0.053,0.011l0.006,0.06l0.088,0.112l-0.053,0.094l-0.1,0.024l-0.16,-0.177l-0.059,-0.278l-0.048,-0.018l-0.011,0.148l0.023,0.201l0.13,0.201l0.042,0.142l-0.107,0.059l-0.112,-0.024l-0.107,-0.236l0.006,-0.201l-0.053,-0.012l-0.118,0.112l-0.231,0.053l-0.042,0.054l0.243,0.088l-0.012,0.16l-0.183,0.088l-0.178,0.006l-0.071,-0.082l-0.053,-0.101l-0.195,-0.183l-0.083,-0.118l-0.036,-0.479l-0.112,-0.13l-0.018,-0.071l-0.077,-0.059l-0.136,-0.017l-0.083,0.065l-0.005,0.094l0.082,-0.094l0.071,-0.006l0.036,0.094l0.118,0.089l0.042,0.159l-0.006,0.284l0.094,0.219l0.284,0.313v0.136l-0.124,0.248l-0.106,0.017l-0.172,-0.082l-0.106,-0.118l-0.071,-0.237l-0.119,-0.071l-0.171,-0.029l-0.119,-0.148l-0.012,-0.142l-0.047,-0.065l0.006,0.242l0.16,0.184l0.148,0.023l0.083,0.048l0.017,0.153l-0.053,0.071l-0.154,-0.035l-0.355,-0.213l-0.325,-0.101l-0.19,0.012l-0.106,-0.029l-0.154,-0.148l-0.284,-0.177l-0.154,-0.207l-0.254,-0.62l-0.118,-0.148l-0.154,-0.053l-0.13,0.023l-0.166,-0.041l-0.284,-0.301l-0.024,-0.113l0.059,-0.064l0.166,0.041l0.112,-0.03l0.077,-0.124l-0.029,-0.342l-0.142,-0.089l-0.119,0.029l-0.094,-0.041l-0.006,-0.071l0.041,-0.118l-0.059,-0.1l-0.1,-0.042l0.082,0.13l-0.029,0.101l0.006,0.141l0.165,0.083l0.089,-0.035l0.077,0.047l0.018,0.295l-0.065,0.071l-0.225,-0.029l-0.107,0.13l0.018,0.153l0.32,0.337l0.159,0.101l0.207,0.017l0.06,0.059l-0.054,0.113l0.03,0.153l0.503,0.857l0.13,0.354v0.254l0.071,0.266l0.408,0.644l0.083,0.284l-0.029,0.106h-0.125l-0.195,-0.088l-0.089,-0.16l-0.1,-0.024l-0.136,0.048l-0.101,-0.053l-0.142,-0.142l0.024,-0.118l-0.054,0.041l-0.023,0.112l0.148,0.16l0.148,0.071l0.142,-0.042l0.071,0.042l0.041,0.118l0.077,0.1l0.006,0.142l-0.089,0.118l-0.603,-0.006l-0.243,-0.035l-0.385,-0.225l-0.36,-0.124l-0.237,-0.006l-0.16,0.095l-0.177,0.041l-0.338,-0.059l-0.071,-0.1l0.012,-0.089l-0.006,-0.142l-0.165,-0.218l-0.131,-0.065l-0.183,0.035l-0.124,-0.006l-0.077,-0.082l-0.024,-0.308l-0.077,-0.118l-0.118,-0.023l-0.077,0.041l-0.03,0.171l-0.077,0.089l-0.218,0.012l-0.066,-0.077l-0.005,-0.242l0.011,-0.101l-0.017,-0.106l-0.048,0.159v0.337l0.091,0.103l0.3,-0.016l0.106,-0.128l0.012,-0.124l0.042,-0.024l0.061,0.051l0.015,0.327l0.048,0.124l0.148,0.071h0.278l0.095,0.053l0.029,0.195l0.059,0.207l0.207,0.16l0.29,0.059l0.125,0.094l0.071,0.284l0.106,0.106l0.018,0.225l0.384,0.348l0.154,0.024l0.19,-0.112l0.118,-0.006l0.071,0.071l-0.024,0.205l-0.335,0.139l-0.78,-0.018l-1.262,0.046l-0.316,0.149l-0.77,0.092l-0.817,0.195l-0.372,0.185l-0.585,-0.009l-0.352,-0.111l-0.715,-0.334h-0.595l-0.668,0.232l-0.204,0.139l-0.214,0.028l-0.39,-0.13l-0.13,-0.185l-0.055,-0.585l-0.167,-0.185l-0.26,-0.102l-0.539,0.028l-0.297,0.111l-0.223,0.204l-0.306,0.074l-0.158,-0.074l-0.473,-0.12l-0.214,-0.139l0.139,0.194l0.325,0.111l0.177,0.149l0.325,0.037l0.218,-0.079l0.283,-0.209l0.218,-0.023l0.13,-0.051l0.399,-0.009l0.088,0.023l0.149,0.348l0.032,0.352l0.038,0.199l0.19,0.223l0.204,0.116l0.274,0.032l0.246,-0.06l0.288,-0.218l0.418,-0.157l0.301,-0.014l0.205,0.06l0.278,-0.005l0.149,0.037l0.236,0.209l0.479,0.236l0.32,0.246l0.418,0.074l0.515,0.06l0.255,0.089l0.288,0.278l0.39,0.264l0.269,0.246l0.515,0.718l0.172,0.218l0.172,0.116l0.097,0.171l-0.004,0.427l0.037,0.162l0.039,0.632l0.041,0.116l-0.018,0.083l-0.155,0.186l-0.185,0.142l-0.134,0.048l-0.116,0.027l-0.185,-0.051l-0.205,0.024l-0.232,0.078l-0.315,0.019l-0.084,0.042l-0.144,0.139l-0.088,0.055l-0.274,0.028l-0.603,0.223l-0.316,0.217l-0.167,0.218l-0.294,0.078l-0.116,0.097l-0.59,0.348l-0.158,0.055l-0.315,0.251l-0.158,0.037l-0.241,0.143l-0.098,0.023l-0.125,-0.032l-0.218,-0.005l-0.13,-0.037l-0.112,-0.116l-0.422,-0.361l-0.358,-0.181l-0.292,-0.06l-0.07,-0.06l-0.274,-0.061l-0.167,-0.004l-0.107,-0.042l-0.251,-0.178l-0.125,-0.042l-0.072,-0.127l0.018,-0.237l-0.012,-0.159l-0.048,-0.043l-0.015,0.151l-0.047,0.227l-0.213,0.199l-0.446,0.051l-0.149,0.047h-0.13l-0.102,-0.033l-0.408,0.051l-0.098,-0.028l-0.12,0.014l-0.163,0.149l-0.376,0.032l-0.427,-0.116l-0.292,-0.009l-0.776,0.19l-0.153,-0.005l-0.172,-0.078l-0.357,0.004l-0.135,-0.028l-0.046,-0.064l-0.204,-0.191l-0.297,-0.106l-0.293,-0.028l-0.083,0.033l-0.209,0.004l-0.065,-0.032h-0.07l-0.381,0.403l-0.533,0.264l-0.367,0.009l-0.088,-0.023l-0.302,-0.343l-0.162,-0.19l-0.202,-0.133z"/>
</svg>
