<svg xmlns="http://www.w3.org/2000/svg" viewBox="1518.881 494.546 107.365 97.071">
  <path d="M1538.506962,581.75921l0.074237,-0.043305h0.098982l0.043305,0.030932l-0.043305,0.037118l-0.142287,0.006186l-0.030932,-0.030932Z M1556.780741,583.261207l-0.006127,0.025688l0.030776,0.031004l0.029579,-0.00986l0.002297,-0.033162l-0.024672,-0.024672l-0.031853,0.011001Z M1567.663466,590.59339l0.102076,-0.170126l-0.034025,-0.037118l-0.091249,0.027839l-0.08197,0.06805l-0.018559,0.06805l0.037118,0.055678l0.08661,-0.012373Z M1567.167007,590.715571l-0.245909,0.027839l-0.162393,0.069597l-0.106715,0.157753l-0.027839,0.176312l0.027839,0.092796l-0.023199,0.046398l-0.111355,0.018559l-0.046398,0.102076l0.032479,0.115995l0.106715,0.069597l0.269108,0.023199l0.115995,-0.037118l0.148474,0.00464l0.055678,-0.046398l-0.037118,-0.106715l0.018559,-0.088156l0.125275,-0.185592l0.064957,-0.162393l-0.037118,-0.259829l-0.069597,-0.046398l-0.097436,0.027839Z M1565.260049,589.472105l0.00464,0.055678l0.102076,0.023199l0.088156,0.055678l0.218071,-0.018559l0.023199,-0.055678l-0.083516,-0.287668l-0.069597,-0.097436l-0.171673,-0.083516l-0.074237,-0.00928l-0.013919,0.060317l0.032479,0.245909l-0.055678,0.111355Z M1566.577752,590.079918l0.074237,-0.055678l0.051038,-0.083516l-0.023199,-0.245909l-0.041758,-0.00464l-0.115995,0.204151l-0.023199,0.106715l0.037118,0.074237l0.041758,0.00464Z M1566.471037,590.098478v-0.060317l-0.027839,-0.064957l0.027839,-0.111355l0.162393,-0.23663l-0.013919,-0.074237l-0.162393,-0.129914l-0.055678,-0.00464l-0.064957,0.078877l-0.120635,0.450061l0.023199,0.083516l0.129914,0.102076h0.069597l0.032479,-0.032479Z M1565.362125,590.070639l0.074237,0.00928l0.041758,0.055678l0.046398,0.023199l0.064957,-0.023199l0.097436,-0.111355l0.218071,-0.069597l0.199511,-0.00464l0.060317,-0.041758l0.078877,-0.320146l-0.037118,-0.083516l-0.115995,-0.055678l-0.102076,-0.00928l-0.102076,0.051038l-0.060317,0.120635l-0.074237,0.046398l-0.157753,0.051038l-0.078877,0.060317l-0.064957,0.106715l-0.111355,0.097436l-0.013919,0.060317l0.037118,0.037118Z M1565.366764,590.455742l0.22271,0.259829l0.041758,0.00928l-0.00464,-0.046398l-0.046398,-0.055678l0.00928,-0.078877l0.148474,-0.074237l0.111355,0.013919l0.078877,-0.018559l0.037118,-0.064957l0.041758,-0.023199l-0.051038,0.134554l-0.102076,0.027839l-0.115995,-0.00464l-0.060317,0.037118v0.051038l0.194872,0.153113l0.013919,0.074237l-0.023199,0.060317l-0.167033,0.120635l0.00464,0.074237l0.083516,0.078877l0.143834,0.032479l0.115995,-0.037118l0.157753,-0.00464l0.083516,-0.055678l0.092796,-0.190232l0.00928,-0.23663l-0.078877,-0.180952l-0.00928,-0.102076l0.037118,-0.120635l-0.023199,-0.106715l-0.139194,-0.134554l-0.106715,-0.046398l-0.148474,0.00928l-0.208791,0.069597l-0.083516,0.097436l-0.115995,0.027839l-0.064957,-0.027839l-0.046398,-0.060317h-0.064957l-0.083516,0.064957l-0.032479,0.046398l0.00464,0.088156l0.143834,0.139194Z M1563.520124,590.27015l0.035572,0.069597l-0.012373,0.129914l0.030932,0.061864l0.049491,-0.006186l0.006186,-0.247456l0.049491,-0.15466v-0.080423h-0.049491l-0.095889,0.111355l-0.013919,0.115995Z M1563.733555,590.492861l0.037118,0.23199l0.055678,0.064957l0.102076,0.027839l0.060317,-0.00464l0.046398,0.00464l0.032479,0.027839l0.069597,0.00464l0.120635,-0.037118l0.00928,-0.069597l-0.078877,-0.097436l-0.064957,-0.190232l0.023199,-0.051038l0.097436,0.013919l0.013919,-0.037118l-0.078877,-0.078877l-0.023199,-0.153113l-0.097436,-0.111355l-0.134554,-0.032479l-0.106715,0.032479l-0.083516,0.180952v0.273748Z M1564.188255,590.492861l0.041758,0.097436l0.097436,0.041758l0.046398,-0.032479l-0.018559,-0.069597l-0.074237,-0.069597l-0.083516,-0.00464l-0.00928,0.037118Z M1563.088623,589.987122l-0.060317,0.097436l-0.013919,0.083516l0.051038,0.106715l0.102076,0.074237l0.092796,0.027839l0.032479,-0.037118l-0.013919,-0.213431l0.032479,-0.092796l-0.018559,-0.032479l-0.120635,-0.037118l-0.037118,-0.055678l-0.037118,0.00464l-0.00928,0.074237Z M1561.764733,588.282769h-0.037118l-0.043305,0.027839l0.003093,0.043305l0.049491,0.06805h0.030932l0.049491,-0.08661l0.003093,-0.030932l-0.055678,-0.021652Z M1562.346255,588.703444l0.030932,-0.024746l-0.006186,-0.043305l-0.037118,-0.003093l-0.030932,0.024746l0.003093,0.027839l0.040212,0.018559Z M1562.200874,588.666326l-0.034025,0.015466h-0.111355l-0.06805,-0.027839l-0.061864,-0.006186l-0.046398,0.058771l0.00928,0.117542l0.046398,0.114448l0.080423,0.040212l0.061864,0.06805l0.040212,-0.012373l0.018559,-0.080423l0.055678,-0.058771l0.07733,-0.00928l0.024746,-0.030932l-0.00928,-0.114448l-0.027839,-0.074237h-0.055678Z M1562.420491,589.012764l-0.015466,0.034025l0.024746,0.015466l0.095889,-0.018559l0.00928,-0.027839l-0.043305,-0.015466l-0.071144,0.012373Z M1562.355534,589.145772l-0.083516,0.018559l-0.074237,0.052584l-0.021652,0.071144l0.027839,0.114448l0.06805,0.071144l0.092796,0.015466l0.102076,-0.012373l0.098982,-0.07733l0.030932,-0.080423l-0.003093,-0.046398l-0.052584,-0.089703l-0.003093,-0.06805l-0.018559,-0.027839l-0.089703,0.006186l-0.074237,0.052584Z M1553.962275,578.768759l0.085706,-0.078938l0.013731,-0.03421l-0.053325,0.019377l-0.084433,0.083685l0.008734,0.023102l0.029587,-0.013016Z M1560.917196,583.936823l-0.00928,0.037118l0.083516,0.055678l0.111355,0.013919l0.055678,-0.027839h0.115995l0.102076,0.041758l0.153113,0.027839l0.055678,-0.00928v-0.046398l-0.074237,-0.069597l-0.078877,-0.032479l-0.477899,-0.013919l-0.037118,0.023199Z M1560.610969,584.284808l0.078877,-0.00928l0.069597,-0.078877l0.074237,-0.032479l0.129914,-0.032479l0.00928,-0.055678l-0.064957,-0.027839h-0.060317l-0.046398,0.046398l-0.088156,0.041758l-0.106715,0.00464l-0.069597,0.037118l0.00928,0.064957l0.064957,0.041758Z M1561.804945,584.391523l0.061864,0.018559l0.046398,0.043305h0.037118l0.006186,-0.092796l0.061864,-0.040212l0.027839,-0.083516l-0.021652,-0.058771l-0.083516,-0.027839l-0.108262,0.037118l-0.043305,0.049491l-0.012373,0.105169l0.027839,0.049491Z M1562.123544,584.379151l0.117542,-0.06805l0.021652,-0.06805l-0.012373,-0.030932l-0.06805,-0.027839l-0.061864,0.012373l-0.034025,0.040212l-0.024746,0.092796l-0.049491,0.037118l0.003093,0.021652l0.108262,-0.00928Z M1561.06567,584.15644l0.049491,0.030932l0.024746,0.064957l0.046398,0.037118l0.049491,-0.006186l0.108262,-0.151567l0.003093,-0.034025l-0.07733,-0.034025h-0.092796l-0.074237,0.018559l-0.040212,0.037118l0.003093,0.037118Z M1560.174828,584.338939l0.006186,0.14538l-0.021652,0.046398l0.015466,0.058771l0.111355,0.120635l0.071144,0.024746l0.034025,-0.027839l-0.003093,-0.136101l0.064957,-0.126821l-0.012373,-0.040212l-0.157753,-0.061864l-0.034025,-0.034025l-0.049491,-0.006186l-0.024746,0.037118Z M1560.734697,584.592581l0.027839,-0.092796l0.046398,-0.034025h0.08661l0.194872,-0.102076l0.012373,-0.049491l-0.049491,-0.06805l-0.061864,-0.003093l-0.201058,0.111355l-0.08661,0.012373l-0.071144,0.071144l-0.006186,0.074237l0.064957,0.083516l0.043305,-0.003093Z M1561.019272,584.55237l0.043305,0.040212h0.049491l0.061864,-0.040212l0.089703,-0.114448l0.114448,-0.061864l0.117542,-0.030932l0.07733,0.015466l0.027839,0.055678l0.040212,0.012373l0.046398,-0.043305l0.037118,-0.080423l-0.018559,-0.030932l-0.139194,-0.046398l-0.102076,-0.055678l-0.046398,0.006186l-0.07733,0.061864l-0.06805,0.117542l-0.111355,0.07733l-0.080423,0.006186l-0.049491,0.049491l-0.012373,0.061864Z M1562.012189,584.6297v0.030939l-0.012373,0.030925l-0.027839,0.012373l0.003093,0.015466h0.058771l0.021652,-0.037118l-0.021652,-0.052584h-0.021652Z M1562.309136,584.750335l-0.049491,-0.052584l-0.074237,-0.012373l-0.049491,0.018559l-0.030932,0.037118l-0.064957,0.015466l-0.182499,0.006186l-0.07733,0.06805l0.024746,0.027839l0.120635,0.015466l0.030932,0.027839l0.00928,0.037118l0.06805,0.046398l0.102076,0.003093l0.043305,-0.018559l0.052584,0.006186l0.064957,0.049491l0.018559,-0.00928l-0.046398,-0.07733l-0.058771,-0.055678l0.00928,-0.040212l0.037118,-0.043305l0.049491,-0.018559l0.003093,-0.030932Z M1561.795665,585.013257l0.055678,0.00928l0.037118,-0.024746l-0.006186,-0.064957l-0.030932,-0.015466l-0.049491,0.018559l-0.024746,0.049491l0.018559,0.027839Z M1561.507997,584.960672l0.037118,0.092796l0.046398,0.018559l0.074237,-0.024746l0.07733,-0.098982l-0.012373,-0.046398l-0.049491,-0.015466l-0.046398,0.012373l-0.049491,0.06805l-0.030932,0.003093l-0.030932,-0.021652l-0.015466,0.012373Z M1561.650285,585.17101l0.012373,0.015466l0.055678,-0.024746h0.092796l0.095889,0.052584l0.024746,-0.003093l0.006186,-0.040212l-0.071144,-0.07733l-0.07733,-0.021652l-0.064957,0.018559l-0.074237,0.080423Z M1561.554395,585.492703l0.006186,-0.043305l0.052584,-0.030932l0.049491,0.012373l0.030932,-0.015466l0.003093,-0.058771l-0.046398,-0.083516l-0.129914,-0.108262l-0.058771,0.003093l-0.037118,0.046398l-0.00928,0.117542l0.034025,0.092796l0.074237,0.074237l0.030932,-0.006186Z M1561.511091,585.669015l0.102076,0.055678l0.136101,0.00928l0.095889,-0.06805l0.040212,-0.083516l0.030932,-0.046398l0.06805,-0.015466l0.015466,-0.034025l-0.027839,-0.021652l-0.021652,-0.074237l-0.043305,-0.040212l-0.055678,-0.015466l-0.049491,-0.052584l-0.037118,-0.003093l-0.021652,0.034025l-0.006186,0.123728l-0.043305,0.037118l-0.052584,-0.00928l-0.037118,0.024746l-0.021652,0.043305l-0.055678,0.018559l-0.052584,-0.043305l-0.021652,0.015466l0.006186,0.043305l0.034025,0.037118l0.018559,0.064957Z M1560.929569,585.709227l0.034025,0.037118l0.046398,0.00928l0.034025,0.021652v0.043305l0.06805,0.055678l0.046398,0.012373l0.049491,-0.055678l0.040212,-0.006186l0.034025,0.040212l0.043305,0.003093l0.032044,-0.043546l0.042193,-0.024504l0.061864,-0.00928l0.015466,-0.021652l-0.024746,-0.07733l0.021652,-0.037118l-0.006186,-0.030932l-0.034025,-0.040212l-0.027839,-0.046398l-0.071144,-0.015466l-0.204151,0.037118l-0.114448,-0.003093l-0.052584,0.027839l-0.037118,0.064957l0.003093,0.058771Z M1562.268925,587.961076l-0.003093,-0.102076l0.021652,-0.06805l0.040212,-0.055678l0.006186,-0.07733l-0.034025,-0.052584l-0.006186,-0.064957l0.030932,-0.071144l-0.00928,-0.040212l-0.052584,-0.015466l-0.030932,0.018559l-0.024746,0.071144l-0.058771,0.074237l-0.092796,0.015466l-0.061864,0.061864h-0.046398l-0.040212,-0.027839h-0.037118l-0.055678,0.049491l-0.018559,0.061864l0.052584,0.06805l0.105169,0.052584l0.210338,0.024746l0.071144,0.027839l0.018559,0.049491h0.015466Z M1562.395746,587.685782l0.003093,0.043305l-0.024746,0.018559l-0.012373,0.027839l0.024746,0.00928l0.055678,-0.012373l0.108262,0.040212h0.040212l0.040212,0.00928l0.030932,0.027839l0.021652,-0.012373l-0.003093,-0.083516l-0.043305,-0.049491l-0.170126,-0.074237h-0.071144l-0.018559,0.024746l0.018559,0.030932Z M1561.721428,587.750739l0.049491,-0.080423l0.061864,-0.07733l0.071144,-0.015466l0.055678,0.030932h0.034025l0.046398,-0.052584l0.08661,-0.015466l0.046398,-0.055678l0.018559,-0.055678l-0.083516,-0.102076l-0.15466,-0.102076l-0.157753,-0.052584l-0.213431,-0.030932l-0.037118,-0.034025l-0.034025,0.006186l-0.021652,0.052584v0.058771l0.064957,0.089703l-0.006186,0.024746l-0.043305,0.003093l-0.058771,0.074237l0.006186,0.111355l0.064957,0.157753l0.071144,0.071144l0.074237,0.018559l0.058771,-0.024746Z M1561.730708,587.030023l0.052584,0.00928l0.040212,-0.00928l0.00928,-0.034025l-0.012373,-0.098982l-0.024746,-0.012373l-0.08661,0.07733l-0.00928,0.046398l0.030932,0.021652Z M1561.545116,586.977439l0.052584,0.00928l0.061864,-0.030932l0.00928,-0.037118l-0.024746,-0.030932l-0.043305,-0.012373l-0.064957,0.021652l-0.012373,0.037118l0.021652,0.043305Z M1561.687403,586.819686l0.037118,-0.055678l-0.003093,-0.064957l-0.06805,-0.052584l-0.058771,-0.006186l-0.061864,0.040212l-0.015466,0.095889l0.049491,0.043305h0.120635Z M1561.616259,586.600068l0.06805,0.015466l0.120635,0.06805l0.07733,0.003093l0.108262,-0.043305l0.024746,-0.043305l-0.015466,-0.027839l-0.102076,-0.00928l-0.092796,-0.043305h-0.14538l-0.126821,0.074237l0.006186,0.018559l0.07733,-0.012373Z M1561.879181,586.828965l0.052584,-0.040212l0.080423,-0.027839l0.071144,0.003093l0.108262,-0.024746l0.142287,-0.102076l0.00928,-0.037118l-0.049491,-0.06805l-0.06805,-0.006186l-0.07733,0.037118l-0.114448,0.126821l-0.136101,0.061864l-0.055678,-0.006186l-0.043305,0.015466l-0.006186,0.040212l0.021652,0.027839h0.064957Z M1562.207061,586.798033l-0.052584,0.018559l-0.102076,-0.012373l-0.105169,0.027839l-0.071144,0.111355l0.015466,0.102076l0.064957,0.092796l0.111355,0.058771l0.074237,0.061864l0.052584,0.003093l0.040212,-0.018559l0.021652,-0.108262l0.074237,-0.133008l0.095889,-0.08661l0.080423,0.006186l0.027839,-0.015466l0.015466,-0.160846l-0.003093,-0.105169l-0.034025,-0.018559l-0.06805,-0.003093l-0.080423,0.034025l-0.126821,0.092796l-0.030932,0.052584Z M1561.542023,586.352612l-0.006186,0.021652l0.037118,0.012373l0.058771,-0.018559l-0.003093,-0.021652l-0.061864,-0.00928l-0.024746,0.015466Z M1561.492531,586.497993l0.030932,0.012373l0.089703,-0.003093l0.074237,-0.034025l0.105169,-0.003093l0.095889,0.030932l0.219617,0.003093l0.061864,-0.021652l0.006186,-0.030932l-0.043305,-0.040212l-0.139194,-0.071144l-0.055678,-0.006186l-0.021652,0.027839l-0.092796,0.018559l-0.046398,0.037118l-0.052584,0.003093l-0.052584,-0.012373l-0.139194,0.018559l-0.037118,0.030932l-0.003093,0.040212Z M1561.182535,586.257883l0.002465,0.051763l-0.017254,0.032044v0.066552l0.064087,0.147894l0.034509,0.017254l0.029579,-0.019719l0.066552,-0.12078l0.118315,-0.170078l0.056693,-0.007395l0.046833,0.019719l0.022184,-0.00986l-0.00493,-0.073947l0.029579,-0.029579l0.081341,-0.00986l0.056693,-0.041903l0.073947,-0.133104l0.007395,-0.049298l-0.032044,-0.024649l-0.002465,-0.024649l0.027114,-0.019719l0.007395,-0.027114l-0.113385,-0.054228l-0.128174,-0.017254l-0.086271,-0.034509l-0.024649,0.00986l0.019719,0.064087l-0.032044,0.036973l-0.059157,0.00986l-0.051763,0.041903l-0.007395,0.051763l-0.019719,0.024649l-0.039438,0.00986l-0.036973,0.039438l-0.017254,0.044368l-0.093666,0.083806l-0.017254,0.041903l0.039438,0.073947Z M1561.511091,584.886435l0.037118,0.024746h0.030932l0.040212,-0.089703l0.074237,-0.06805l0.064957,-0.030932l0.108262,-0.003093l0.074237,-0.034025l0.027839,-0.055678l-0.006186,-0.055678l-0.058771,-0.040212l-0.071144,-0.018559l-0.049491,-0.040212l-0.021652,-0.049491l-0.040212,-0.006186l-0.052584,0.052584l-0.030932,0.00928l-0.07733,-0.030932l-0.024746,-0.046398l-0.034025,-0.006186l-0.114448,0.027839l-0.08661,0.049491l-0.061864,0.08661l-0.102076,0.080423l-0.061864,0.006186l-0.027839,0.021652l0.037118,0.151567l0.052584,0.040212l0.157753,0.034025h0.098982l0.061864,-0.015466l0.055678,0.006186Z M1560.917196,585.211221l0.040212,0.003093l0.030932,0.027839l0.003093,0.046398l0.098982,0.098982l0.061864,0.015466l0.080423,-0.027839l0.06805,-0.058771l0.052584,-0.148474l-0.018559,-0.018559l-0.037118,-0.006186l-0.027839,-0.030932l-0.003093,-0.064957h-0.040212l-0.043305,0.055678l-0.080423,0.018559l-0.08661,-0.021652l-0.061864,0.018559l-0.052584,0.055678l0.015466,0.037118Z M1561.235796,585.013257l0.037118,0.003093l0.018559,-0.037118l-0.00928,-0.046398l-0.021652,-0.003093l-0.024746,0.046398v0.037118Z M1561.303846,585.087493l0.024746,0.024746l0.08661,0.006186l0.048331,-0.016578l0.0157,-0.036893l-0.002167,-0.045512l-0.018559,-0.080423l-0.052584,-0.015466l-0.068099,0.003287l-0.012324,0.019719v0.056693l-0.015466,0.03475l-0.006186,0.049491Z M1561.202254,585.027901l0.012324,-0.083806l-0.019719,-0.036973l-0.049298,-0.00986l-0.051763,0.046833l-0.044368,-0.007395l-0.034509,-0.046833l-0.032044,-0.007395l-0.054228,0.017254l-0.081341,-0.027114l-0.019719,-0.039438l-0.081341,-0.041903l-0.101061,-0.002465l-0.041903,0.027114l-0.00493,0.054228l0.034509,0.049298l0.022184,0.086271l0.091201,0.147894l0.059157,0.032044l0.046833,-0.007395l0.071482,-0.096131l0.081341,-0.019719l0.086271,0.022184l0.076412,-0.00986l0.034509,-0.046833Z M1560.825125,584.744438l0.034509,0.032044l0.049298,0.064087l0.032044,0.014789l0.041903,-0.00493l0.041903,0.012324l0.036973,0.039438l0.027114,0.00493l0.014789,-0.019719l-0.044368,-0.046833l-0.034509,-0.152823l-0.054228,-0.123245l-0.051763,-0.049298l-0.069017,0.00493l-0.061622,0.044368l-0.036973,0.12571l0.017254,0.044368l0.056693,0.00986Z  M1568.461511,589.708734l2.604,-0.006l0.077,-2.194l0.112,-0.092l0.25,-0.041l0.074,0.019l0.05,0.087l0.025,0.259l0.068,0.285l0.062,0.043l0.061,-0.012l0.069,-0.08l0.055,-0.217l0.05,-0.093l-0.006,-0.062l0.037,-0.055l0.08,-0.007l0.167,-0.092l0.081,0.018l0.136,0.223l0.111,0.247l0.087,0.038l0.111,-0.019l0.117,-0.099l0.415,-0.235l0.637,0.26l0.792,-0.316l0.408,0.081l0.192,-0.007l0.223,-0.055h0.086l0.174,0.068l0.198,0.006l0.549,-0.165l0.895,0.812l1.94,0.004l0.088,-0.032l0.079,-0.098l0.102,-0.065l0.32,-0.71l0.445,-0.051l0.186,-0.092l0.255,-0.024l0.274,-0.153l0.538,-0.014l0.13,-0.065l0.093,-0.097l0.937,-0.265l0.083,-0.064l0.084,-0.005l0.153,0.079v0.106l-0.111,0.214l-0.116,0.065l0.148,0.455v0.083l-0.069,0.074l-0.005,0.093l0.065,0.056l0.079,0.004l0.315,0.135l0.474,0.06l0.19,-0.028l0.408,-0.009l0.204,-0.069l0.093,-0.089l0.172,-0.014l0.195,-0.083v-0.037l-0.186,-0.111l-0.014,-0.107l0.116,-0.102l0.172,-0.088l0.19,-0.172l0.07,-0.019l0.171,-0.102l0.126,0.098l0.083,0.028l0.162,-0.019l0.093,-0.079l0.172,-0.218l0.241,-0.06l0.051,-0.13l-0.144,-0.102l-0.236,-0.014l-0.195,0.032l-0.158,-0.069l-0.102,-0.024l0.046,-0.566l-0.088,-0.116l0.005,-0.143l-0.046,-0.218l0.055,-0.112l0.195,-0.199l0.186,-0.061l0.153,-0.079l0.144,-0.176l-0.218,-0.213l-0.237,-0.627l-0.274,-0.44l-0.297,-0.39l-0.153,-0.492l-0.204,-1.035l-0.905,-0.891l-0.097,-0.394l-0.469,-0.45l0.047,-0.172l-0.005,-0.292l0.042,-0.418l-0.07,-0.055l0.037,-0.914l-0.093,-0.186l-0.139,-0.083l-0.223,-0.01l-0.538,0.214h-0.519l-0.427,0.065l-0.77,-0.269l-0.084,-0.093l-0.093,-0.26l-0.213,-0.26l-0.269,-0.185l-0.501,-0.771l-0.102,-1.011l0.399,-0.501l0.167,-0.408l0.037,-0.242l-0.065,-0.306l0.148,-0.529l-0.065,-0.39l0.056,-0.362l-0.074,-0.491l-0.39,-0.242l-0.418,-0.092l-0.807,0.139l-0.269,0.009l-0.446,-0.065l-0.259,-0.083l-0.409,-0.353l-1.457,-0.64l-0.176,-0.427l0.112,-0.622l0.074,-0.789l0.501,-1.225l0.362,-0.269l0.427,-0.445l0.389,-0.269l0.678,-0.557l0.204,-0.223l0.26,-0.436l0.241,-0.223l0.371,-0.278l0.715,-1.735l0.417,-0.436l0.204,-0.251l0.455,-0.251l0.511,-0.547l0.426,-0.046l0.446,-0.121l0.315,0.074l0.232,0.121l0.065,0.13l0.52,0.501l-0.009,0.39l0.046,0.278l0.325,0.492l0.046,0.13l0.139,0.148l0.724,0.112l0.269,-0.038l0.242,-0.13h0.092l0.13,-0.111l1.467,-0.659l1.169,-0.26l1.893,-0.037l1.522,-0.603l0.185,-1.151l0.511,-0.695l0.863,-0.687l0.473,-0.575l0.594,-1.986l0.696,-0.817l0.51,-0.213l1.633,-0.965l1.429,-0.585l0.399,-0.909l0.52,-0.604l1.308,-2.44l0.761,-2.728l1.309,-0.539l1.382,-0.352l0.158,-0.195l0.993,-0.761l-0.046,-0.427l-0.223,-0.455l-0.204,-0.213l-0.13,-0.074l0.009,-0.037l0.167,-0.096l0.05,-0.047l0.021,-0.071l0.041,-0.043l0.086,-0.025l0.081,-0.086l0.096,-0.062l0.049,-0.102l-0.028,-0.016l-0.105,0.025l-0.158,0.003l0.006,-0.028l0.041,-0.018l0.012,-0.062l-0.056,-0.109l0.025,-0.129l0.04,-0.016l0.059,0.046l0.009,0.118l0.072,0.053l0.043,-0.016l0.022,-0.108l-0.016,-0.071l0.173,-0.198h0.149l0.009,-0.034l-0.037,-0.031l0.003,-0.071l0.037,-0.003l0.043,0.04l0.056,-0.006l0.04,-0.038l0.003,-0.058l0.034,-0.006l0.056,0.046l0.034,0.099l0.096,-0.003l0.114,-0.161l-0.012,-0.037l-0.062,0.003l-0.025,-0.022l0.004,-0.037l0.151,-0.151v-0.167l0.022,-0.087l0.046,-0.012l0.034,0.034l0.047,-0.013l0.031,-0.123l0.03,-0.016l0.053,0.025l0.074,-0.025l0.093,-0.114l0.059,-0.016l0.204,-0.176l0.114,-0.149l0.059,-0.17l0.05,-0.037l0.161,-0.003l0.052,-0.056l0.047,-0.015l0.049,0.012l0.016,-0.018l-0.069,-0.062l-0.015,-0.062l-0.09,-0.139l0.025,-0.031l0.124,0.012l0.136,-0.043l0.006,-0.059l-0.037,-0.037v-0.037l0.142,-0.198l0.01,-0.133l0.034,-0.034l0.071,0.003l0.034,-0.025l0.046,-0.003l0.056,0.04l0.049,-0.003l0.025,-0.031l-0.003,-0.034l0.065,-0.012v-0.031l-0.099,-0.062l-0.006,-0.046l0.04,-0.099l0.09,-0.022l0.077,-0.077l0.068,-0.016l0.102,0.006l0.032,-0.039l-0.025,-0.025l-0.066,-0.017l0.007,-0.022l0.062,0.002l0.059,-0.056l-0.035,-0.018l-0.039,0.02l-0.022,-0.015l0.007,-0.051l0.035,-0.025l0.096,0.002l0.138,-0.103l0.025,-0.064l0.098,-0.057l0.111,-0.002l0.042,0.051l0.047,-0.004l0.076,-0.102l0.163,-0.069l0.017,-0.054l-0.022,-0.093l0.047,-0.158l0.071,-0.054l0.04,-0.087l0.044,-0.029h0.049l0.067,0.042l0.042,0.069l0.049,0.005l0.069,-0.037l0.355,-0.05l0.18,-0.148l0.002,-0.022l-0.019,-0.027v-0.022l0.056,-0.052l0.003,-0.039l-0.017,-0.047l-0.003,-0.069l-0.044,-0.049l-0.005,-0.045l-0.047,-0.022l-0.069,0.017l-0.039,-0.007l-0.032,-0.042h-0.045l-0.093,0.079h-0.037l-0.042,-0.074l-0.084,-0.003l-0.047,-0.012l-0.057,0.017l-0.01,0.047l0.062,0.077l0.003,0.061l-0.032,0.094l-0.114,0.037l-0.086,0.015l-0.032,0.022l-0.062,-0.005l-0.057,-0.047l-0.024,-0.195l-0.03,-0.042l-0.187,-0.059l-0.017,-0.051l0.019,-0.067l-0.002,-0.047l-0.03,-0.054l0.008,-0.141l0.054,-0.037l0.01,-0.101l0.027,-0.046v-0.106l-0.037,-0.042l-0.005,-0.032l0.076,-0.097v-0.076l-0.051,-0.081l0.002,-0.05l0.111,-0.184v-0.042l-0.069,-0.04l0.007,-0.029l0.037,-0.015l0.003,-0.03l-0.02,-0.024l0.02,-0.047l0.069,-0.022l0.005,-0.027l-0.012,-0.035l0.044,-0.106v-0.044l0.029,-0.037l0.087,-0.023l0.084,-0.049l0.019,-0.044l0.015,-0.096l0.059,-0.128l0.074,-0.055l0.049,0.015l0.033,-0.012l0.007,-0.047l0.042,0.002l0.032,0.055l0.054,0.022l0.047,-0.017l0.022,-0.042l-0.007,-0.045l-0.074,-0.081l0.01,-0.037l0.061,-0.02l0.015,-0.039l-0.104,-0.141l-0.056,-0.022l-0.057,-0.049l-0.052,-0.091l-0.066,-0.013l-0.054,0.03l-0.079,-0.008l-0.003,-0.019l0.037,-0.017v-0.035l-0.037,-0.022l0.008,-0.064l0.078,-0.052l0.092,-0.005l0.039,-0.032l0.02,-0.145l-0.057,-0.119l-0.101,-0.049l-0.101,-0.126l-0.007,-0.071l-0.047,-0.042l-0.052,0.002l-0.039,-0.022l-0.057,-0.163l-0.01,-0.096l-0.044,-0.039l-0.005,-0.074l-0.04,-0.03v-0.044l0.02,-0.022l-0.002,-0.03l-0.19,-0.093l-0.032,-0.042l-0.005,-0.057l-0.025,-0.037l-0.052,-0.022l-0.007,-0.032l0.027,-0.05l0.057,-0.022l0.024,-0.027v-0.052l0.025,-0.019l0.059,0.005l0.054,-0.037l0.074,-0.02l0.077,-0.007l0.081,-0.05l0.022,-0.029l-0.005,-0.027l-0.037,-0.025l-0.027,-0.059l0.005,-0.067l0.035,-0.064l0.047,-0.015v-0.019l-0.04,-0.032l0.003,-0.025l0.061,-0.052l0.02,-0.047l-0.012,-0.101l0.029,-0.064l0.052,-0.054h0.044l0.025,-0.025l0.01,-0.074l0.027,-0.029l0.044,-0.003l0.025,-0.044l-0.007,-0.094l0.024,-0.019l0.045,0.007l0.059,0.042l0.052,-0.013l0.093,-0.103l0.054,-0.012l0.02,-0.025v-0.052l0.069,-0.081l0.074,-0.03l0.109,0.003l0.051,0.024h0.055l0.017,-0.024l-0.015,-0.045l0.039,-0.071l0.084,-0.017l0.057,0.029l0.067,-0.015l0.022,-0.069l0.037,-0.007l0.042,0.039l0.034,-0.004l0.049,-0.045l0.089,-0.029l0.04,0.014l0.024,-0.005l0.008,-0.034l0.029,-0.002l0.032,0.024l0.03,-0.007l0.069,-0.126l0.007,-0.145l0.04,-0.074l0.096,-0.032l0.01,-0.025l-0.023,-0.022l0.008,-0.02l0.062,-0.01l0.024,-0.049l0.032,0.002l0.008,0.03h0.029l0.025,-0.022l-0.003,-0.035l-0.032,-0.071l0.047,-0.086l0.079,-0.01l0.059,0.027h0.045l0.108,-0.096l0.084,-0.003l0.254,0.084l0.024,0.037l-0.005,0.022l-0.024,0.017l0.012,0.018l0.16,-0.02l0.052,0.052h0.062l0.039,-0.087l0.059,-0.007l0.04,0.027l0.047,-0.007l0.056,-0.094l0.106,-0.012l0.037,0.015l0.054,-0.005l0.05,-0.04l0.005,-0.047l0.019,-0.005l0.055,0.084l0.027,-0.002l0.022,-0.077l0.081,-0.034l0.022,-0.03l0.207,-0.005l0.055,0.064l0.037,0.02l0.034,-0.002l0.022,-0.05l0.057,-0.039l0.047,-0.003l0.025,-0.029l0.007,-0.069l0.027,-0.049l-0.007,-0.099l0.019,-0.03h0.057l0.025,0.124l0.022,0.024l0.025,-0.005v-0.032l0.024,-0.007l0.037,0.02l-0.002,0.032l-0.022,0.022l0.002,0.022l0.049,0.015l0.032,-0.04l0.04,-0.019l0.056,-0.003l0.045,-0.034l0.015,-0.042l0.032,-0.037l0.054,-0.025l0.015,-0.084l-0.025,-0.054l0.052,-0.106l0.056,-0.002l0.042,-0.03l0.02,-0.062l0.094,-0.096v-0.069l-0.042,-0.034v-0.035l0.034,-0.042l0.01,-0.044l0.087,-0.071h0.17l0.108,-0.069l-0.027,-0.207l0.025,-0.074l0.039,-0.005v-0.027l-0.059,-0.055l-0.143,0.005l-0.02,-0.022l0.025,-0.049l-0.015,-0.027l-0.143,-0.03l-0.007,-0.034l0.076,-0.114l0.007,-0.049l-0.046,-0.062l-0.041,-0.011l0.004,-0.069l-0.046,-0.047l-0.139,-0.037l-0.06,-0.06l-0.01,-0.084l-0.097,-0.046l-0.084,0.018l-0.023,-0.12l-0.046,-0.009l-0.042,0.037l-0.162,-0.102h-0.042l-0.056,0.023l-0.07,-0.033l0.005,-0.055l0.042,-0.038l-0.005,-0.06l-0.069,-0.042l-0.102,0.051l-0.112,-0.009l-0.065,0.023l-0.055,0.065l-0.051,-0.009l-0.01,-0.079l0.019,-0.06l-0.084,-0.112l-0.06,-0.139v-0.06l-0.07,-0.037l-0.06,0.056l-0.079,-0.014l-0.297,-0.163l-0.06,0.014l-0.06,0.088l0.032,0.065l-0.028,0.051l-0.125,0.079h-0.107l-0.06,-0.042l-0.06,0.014l-0.047,0.056l-0.065,-0.005l-0.041,-0.143l-0.056,-0.01l-0.051,0.033h-0.051l-0.037,-0.037h-0.056l-0.037,0.018l-0.098,-0.046l-0.004,-0.051l0.032,-0.051l-0.041,-0.028l-0.093,0.028l-0.112,-0.014l-0.079,-0.042l-0.097,-0.005l-0.051,0.093l-0.093,0.042l-0.093,0.009l-0.176,-0.032l-0.176,0.014l-0.061,0.032l-0.046,-0.018l-0.005,-0.089l-0.051,-0.027l-0.065,0.018l-0.041,0.042l-0.056,-0.037l-0.005,-0.116l0.056,-0.107l-0.005,-0.074l-0.134,-0.07l-0.042,-0.051l0.019,-0.037l0.046,-0.009l0.023,-0.074l-0.046,-0.019l-0.079,0.023l-0.037,-0.037l-0.005,-0.13l0.042,-0.046l-0.009,-0.037l-0.088,-0.028l-0.01,-0.065l0.065,-0.042l0.028,-0.06l-0.023,-0.051l0.028,-0.047l0.055,0.014l0.042,-0.032l0.005,-0.051l0.06,-0.037h0.046l0.056,-0.07l-0.028,-0.051l-0.144,-0.046l-0.083,-0.098l-0.014,-0.102l0.046,-0.153l-0.027,-0.065l0.102,-0.181l0.028,-0.121l0.125,-0.287l0.051,-0.061l0.004,-0.129l-0.06,-0.019l-0.102,0.023l-0.051,0.065l-0.051,0.009l-0.06,-0.009l-0.075,0.033l-0.046,0.074l-0.009,0.065l0.055,0.069l0.089,0.047v0.037l-0.07,0.018l-0.06,-0.004l-0.037,0.056v0.06l0.06,0.074l-0.037,0.028l-0.112,-0.046l-0.157,0.018l-0.042,0.042l-0.079,-0.009l-0.023,-0.047h-0.102l-0.061,0.06l-0.176,0.033l-0.06,-0.028l0.028,-0.065l-0.051,-0.06l-0.089,0.023l-0.065,-0.023l-0.041,-0.065l-0.088,-0.005l-0.033,-0.042l0.023,-0.032l-0.051,-0.056l-0.065,-0.032l-0.041,-0.107l0.013,-0.056l-0.037,-0.06l-0.088,-0.102l-0.023,-0.111l-0.037,-0.056l0.005,-0.07l0.041,-0.074l-0.014,-0.088l-0.125,-0.097l-0.116,-0.024l-0.074,-0.046l-0.144,-0.019l-0.097,0.024l-0.079,-0.042l-0.047,-0.056l0.024,-0.065l0.115,-0.06l0.014,-0.088l-0.069,-0.279l-0.047,-0.055l-0.004,-0.126l0.042,-0.046l-0.038,-0.028l-0.074,0.005l-0.209,-0.047l-0.041,-0.027l-0.051,-0.024h-0.07l-0.246,-0.12l-0.042,-0.042l-0.106,-0.042l-0.07,0.014l-0.065,-0.014l-0.005,-0.042l0.065,-0.074l-0.023,-0.065l-0.12,-0.083l-0.005,-0.042l0.032,-0.032l-0.014,-0.042l-0.041,-0.037l-0.014,-0.051l-0.116,-0.102l-0.014,-0.056l-0.116,-0.07l-0.098,-0.004l-0.106,-0.037l-0.098,-0.126l-0.009,-0.051l-0.042,-0.014l-0.037,0.037l-0.032,-0.009l-0.005,-0.046l-0.051,-0.014l-0.065,0.028l-0.097,-0.051l-0.084,-0.107l0.019,-0.042l-0.014,-0.046l-0.042,-0.047l0.032,-0.083l0.051,-0.06l-0.004,-0.056l0.042,-0.033h0.055l0.088,-0.055l0.014,-0.047l0.051,-0.009l0.042,0.023l0.079,0.005l0.065,-0.037l0.116,-0.023l0.135,-0.107l0.078,-0.019l0.158,-0.153l0.023,-0.056l0.056,-0.013l0.023,-0.047l-0.014,-0.088l0.047,-0.116l0.046,-0.023l0.042,-0.093v-0.167l-0.056,-0.088l-0.004,-0.125l0.027,-0.065l0.01,-0.167l0.051,-0.024l0.004,-0.051l-0.088,-0.12l-0.079,-0.037l-0.065,-0.112l0.014,-0.148l-0.097,-0.158l-0.176,-0.084l-0.033,-0.046l-0.056,-0.009l-0.032,0.028l-0.042,-0.014l-0.046,-0.075l-0.144,-0.009l-0.07,0.051h-0.111l-0.046,-0.046l-0.024,-0.088l-0.106,-0.135l-0.079,-0.042l-0.07,-0.097l-0.042,-0.023l-0.014,-0.065l0.042,-0.074l0.061,0.004l0.009,-0.042l-0.056,-0.055l-0.009,-0.061l0.028,-0.041l-0.01,-0.056l-0.051,-0.023l-0.009,-0.051l0.028,-0.042l-0.042,-0.037l-0.06,0.009l-0.037,-0.032l-0.005,-0.102l0.13,-0.107l0.079,-0.023l0.065,0.004l0.037,-0.06l0.023,-0.107l-0.042,-0.051l0.024,-0.06l0.106,-0.051l0.047,-0.065l-0.005,-0.046l0.037,-0.038l0.042,0.01l0.046,-0.056l-0.004,-0.042l0.065,-0.046l0.167,-0.042l0.093,0.009l0.074,0.028l0.116,-0.004l0.088,-0.056h0.111l0.065,-0.037l0.135,-0.005l0.06,-0.028l0.014,-0.065l0.056,-0.046l0.079,-0.019l0.185,-0.181l0.13,-0.06h0.051l0.033,-0.06l-0.051,-0.093l0.004,-0.074l0.047,-0.074l-0.005,-0.089l-0.074,-0.046l0.004,-0.056l0.056,-0.041l-0.009,-0.052l-0.093,-0.037l-0.009,-0.046l0.028,-0.065l-0.07,-0.121l-0.102,-0.055l-0.033,-0.065l-0.088,-0.037l-0.042,0.018l0.028,0.042l-0.037,0.028l-0.083,-0.014l-0.102,-0.047l-0.028,-0.051l-0.037,-0.009l-0.037,0.033l-0.061,-0.024l-0.046,-0.065l-0.088,-0.055h-0.093l-0.149,0.06l-0.111,0.005l-0.065,0.018h-0.083l-0.033,0.033h-0.056l-0.074,-0.047l-0.13,-0.014l-0.055,0.047l-0.038,0.083l-0.12,0.065h-0.13l-0.181,-0.06l-0.056,0.005l-0.055,-0.028l-0.005,-0.084l-0.046,-0.051l-0.07,-0.023l-0.056,-0.079l0.014,-0.097l0.047,-0.051l0.004,-0.051l-0.032,-0.061l0.014,-0.097l0.06,-0.023l0.056,0.028l0.046,-0.028l0.005,-0.088l-0.033,-0.061l0.033,-0.051l0.088,-0.009l0.037,-0.037v-0.047l0.042,-0.055h0.065l0.018,-0.037l-0.055,-0.047l0.037,-0.055l0.199,-0.051l0.121,-0.098l-0.014,-0.042l-0.074,-0.032v-0.07l0.037,-0.037l0.028,-0.074l-0.075,-0.204l-0.055,-0.033l-0.01,-0.041l0.024,-0.033l-0.065,-0.037l-0.223,-0.023l-0.07,-0.056v-0.088l0.042,-0.047l0.005,-0.078l-0.051,-0.01l-0.051,0.037l-0.033,-0.032l0.074,-0.139l-0.009,-0.061l-0.125,-0.088l-0.074,0.005l-0.033,0.06l-0.079,0.056l-0.097,-0.019l-0.06,0.033l-0.024,0.074l-0.051,-0.005l-0.028,-0.046l-0.092,-0.023l-0.098,0.009l-0.046,-0.037l0.037,-0.056l-0.033,-0.028l-0.083,0.005l-0.056,0.079l-0.065,0.019l-0.074,-0.01l-0.07,-0.069l-0.064,-0.005l-0.01,-0.046l0.033,-0.051l-0.019,-0.093l0.06,-0.116l0.047,-0.005l0.037,-0.028l0.028,-0.069l0.153,-0.135l0.014,-0.06l0.046,-0.023h0.209l0.074,-0.033l0.163,-0.148l0.065,-0.014l0.009,-0.084l-0.051,-0.074l0.014,-0.065l0.051,-0.023l0.018,-0.042l-0.013,-0.074l0.051,-0.084l0.064,-0.004l0.019,-0.037l-0.019,-0.075l0.181,-0.176l0.07,-0.009l0.06,-0.074l-0.014,-0.07l0.038,-0.079l-0.042,-0.111l-0.153,-0.037l-0.01,-0.047l0.028,-0.065v-0.185l0.051,-0.042h0.075l0.013,-0.037l-0.032,-0.061l0.037,-0.097l0.088,-0.088l0.065,-0.005l0.088,0.033h0.079l0.051,-0.023l0.153,0.023l0.093,0.055l0.144,0.033l0.153,-0.005l0.07,-0.065l0.046,0.014l0.019,0.07l0.088,0.055l0.134,0.024l0.019,-0.037l-0.033,-0.056l0.107,-0.139l0.306,-0.214l0.265,-0.106l0.408,-0.372l0.121,-0.032l0.297,-0.019l0.171,0.019l0.144,0.037l0.07,0.051h0.051l0.07,-0.06l0.074,0.004l0.051,0.07l0.046,0.005l0.028,-0.047h0.065l0.116,0.056l0.399,0.028l0.125,0.041l0.135,0.181l0.283,0.205l0.533,0.199l0.14,0.028l0.566,0.037l0.092,-0.042l0.154,-0.014l0.129,0.047l0.293,0.023l0.136,0.045l0.155,0.111l0.123,0.031l0.124,0.118h0.074l0.05,-0.044h0.111l0.18,-0.13h0.086l0.087,0.038h0.111l0.111,-0.05l0.149,-0.006l0.13,0.068l0.272,0.056l0.241,0.006l0.056,0.055v0.075l-0.099,0.043l-0.037,0.087l0.043,0.037l0.074,-0.006l0.143,0.061l0.161,0.106l0.024,0.08l0.05,0.019l0.062,-0.019l0.099,0.056l0.092,0.136l0.093,0.012l0.167,-0.105h0.093l0.105,0.087l0.248,0.055l0.123,-0.018l0.093,-0.118l0.13,0.013l0.074,0.08l0.106,0.019l0.631,0.006l0.136,-0.031l0.074,0.025l0.025,0.061l0.16,0.05l0.532,0.08l0.365,-0.34l0.365,-0.179l0.347,-0.328l0.018,-0.068l0.143,-0.056l0.111,0.031l0.056,-0.037l0.018,-0.081l0.217,-0.241l0.148,-0.018l0.099,0.037l0.198,0.154l0.031,0.106l0.112,0.074l0.259,0.055l0.05,-0.037l0.012,-0.068l0.143,-0.117l0.136,-0.013l0.179,-0.086l0.068,0.018l0.031,-0.043l-0.018,-0.068l0.055,-0.068h0.056l0.012,-0.05l-0.055,-0.08l0.03,-0.062l0.322,-0.006l0.068,0.019l0.099,-0.007l0.155,-0.092l0.179,-0.013l0.062,-0.049h0.173l0.106,-0.075l0.012,-0.086l0.074,-0.031l0.068,-0.13l0.105,-0.068l0.13,-0.012l0.118,0.068l0.037,0.099l0.062,0.055l0.154,0.006l0.161,0.05l0.025,0.056l0.124,0.024l0.093,-0.049l0.049,-0.081l0.08,-0.006l0.007,0.056l-0.019,0.049l0.043,0.062l-0.018,0.056l0.043,0.037l0.142,-0.099h0.124l0.079,-0.037l0.005,-0.051l-0.047,-0.037l0.005,-0.047l0.056,-0.018l0.014,-0.065l-0.019,-0.056l0.028,-0.083l0.116,-0.056l0.074,0.009l0.023,-0.041l-0.042,-0.056l0.019,-0.06l0.065,-0.042l0.019,-0.153l-0.033,-0.047l0.009,-0.06l0.047,-0.032l0.004,-0.07l-0.032,-0.06l0.018,-0.051l0.089,-0.038l0.004,-0.051l-0.028,-0.051l0.038,-0.139l0.069,-0.018l0.033,-0.038l0.004,-0.051l0.075,-0.083h0.051l0.023,0.037h0.06l0.093,-0.046l0.051,0.009l0.018,0.042l0.061,0.009l0.051,-0.014l0.116,0.037l0.125,0.093l0.023,0.051l0.047,0.005l0.051,-0.075l-0.01,-0.055l0.024,-0.042h0.055l0.079,-0.162l-0.023,-0.051l0.028,-0.038l0.06,-0.009l0.019,-0.088l-0.056,-0.051l0.005,-0.046l0.06,-0.033l0.051,0.014l0.046,-0.032l0.019,-0.047l0.07,-0.014l0.092,0.019l0.158,-0.056l0.033,-0.06l0.06,-0.033h0.07l0.046,-0.032l0.009,-0.056l0.065,-0.023l0.158,-0.005l0.07,0.056l0.153,-0.014l0.055,-0.056l0.01,-0.102l-0.033,-0.13l-0.056,-0.046l-0.148,-0.046l-0.033,-0.051l0.019,-0.047l-0.014,-0.051l-0.06,-0.046l0.009,-0.093l0.079,-0.065v-0.13l0.028,-0.037l-0.009,-0.037l-0.135,-0.042l-0.056,0.014l-0.046,-0.019l-0.065,-0.041l-0.088,-0.014l-0.07,0.009l-0.06,-0.042v-0.055l-0.033,-0.051l-0.069,-0.038l-0.01,-0.078l0.084,-0.065l-0.009,-0.07l-0.167,-0.107l-0.005,-0.065l0.046,-0.065l0.056,-0.023l0.051,-0.134l0.107,-0.042l0.009,-0.051l-0.111,-0.079l-0.074,-0.009l-0.047,-0.047l0.056,-0.074l-0.019,-0.065l-0.065,-0.037v-0.042l0.051,-0.028l-0.018,-0.06h-0.084l-0.083,-0.046l-0.047,-0.089l0.014,-0.078l-0.051,-0.075l-0.106,-0.051l-0.093,0.005l-0.065,0.083l-0.093,0.033l-0.139,-0.023l-0.135,-0.084l-0.041,-0.083l-0.075,-0.061l0.005,-0.06l0.056,-0.018l-0.019,-0.089l-0.074,-0.102l-0.074,-0.028l-0.098,-0.218l-0.06,-0.041l-0.023,-0.07l0.037,-0.074l-0.01,-0.047l-0.065,-0.009l-0.074,0.028l-0.088,-0.037l-0.074,-0.144l-0.005,-0.102l0.056,-0.051h0.051l0.051,-0.047v-0.064l0.051,-0.033l0.065,0.014l0.037,-0.033l-0.009,-0.074l-0.107,-0.144l-0.134,-0.139l-0.005,-0.051l0.051,-0.037l0.074,0.005l0.047,-0.042l-0.033,-0.116l-0.043,-0.016l-0.053,0.004l-0.04,-0.05l-0.006,-0.065l0.015,-0.049l-0.031,-0.034l-0.037,0.006l-0.031,-0.028l0.006,-0.043l-0.037,-0.031l-0.034,0.006l-0.04,-0.025l-0.006,-0.068l-0.121,-0.086l-0.068,-0.013l-0.021,-0.068l0.021,-0.056l-0.052,-0.077l-0.081,-0.034h-0.117l-0.071,-0.043l-0.007,-0.037l-0.055,-0.034l-0.081,0.006l-0.052,0.052l-0.056,-0.009l-0.015,-0.031l-0.05,-0.031h-0.056l-0.046,-0.031l0.006,-0.043h0.031l0.003,-0.034l-0.074,-0.084v-0.04l-0.031,-0.031l-0.053,-0.018l-0.037,-0.078l0.037,-0.074l0.121,-0.12l-0.012,-0.121l-0.062,-0.05v-0.043l0.04,-0.031l0.099,-0.151l-0.003,-0.056l-0.068,-0.056l-0.013,-0.065l-0.095,-0.034l-0.034,0.019l-0.038,-0.013l-0.018,-0.034h-0.05l-0.031,0.038l0.007,0.12l0.031,0.025l-0.019,0.025h-0.053l-0.102,0.08l-0.027,0.053h-0.041l-0.04,-0.034l-0.09,-0.016l-0.034,0.019l-0.049,-0.006l-0.031,-0.019h-0.059l-0.12,0.108l-0.013,0.078l-0.028,0.027l-0.043,0.007l-0.065,0.058l-0.151,-0.006l-0.078,-0.046l-0.043,0.003l-0.028,0.015l-0.037,-0.003l-0.019,-0.028l-0.055,-0.003l-0.078,0.047l-0.003,0.046l0.031,0.043l0.009,0.084l-0.037,0.031l-0.092,-0.006l-0.078,-0.047h-0.071l-0.025,0.028l-0.04,-0.003l-0.028,-0.077h-0.065l-0.062,0.018l-0.133,0.013l-0.216,-0.019l-0.043,0.025l-0.01,0.059l-0.049,0.031l-0.093,0.027l-0.148,-0.006l-0.038,0.028l-0.052,-0.015l-0.127,-0.096l-0.003,-0.062l-0.022,-0.031l0.007,-0.059l0.068,-0.043l0.006,-0.05l-0.037,-0.028l0.006,-0.043l0.028,-0.021l0.003,-0.038l-0.04,-0.04l0.006,-0.043l0.071,-0.099l0.006,-0.084l-0.049,-0.068l-0.038,-0.024l-0.024,-0.031l-0.003,-0.068l-0.065,-0.096l-0.136,-0.112l-0.059,-0.105l-0.022,-0.148l0.022,-0.034l-0.006,-0.044l-0.121,-0.065l-0.346,0.01l-0.078,0.04l-0.127,-0.006l-0.167,-0.13l-0.133,-0.087l-0.003,-0.04l-0.043,-0.028v-0.034l0.025,-0.021l-0.003,-0.028l-0.062,-0.031l-0.003,-0.037l0.077,-0.01l0.003,-0.037l-0.062,-0.059l-0.006,-0.071l-0.037,-0.024v-0.044l0.062,-0.028v-0.049l-0.102,-0.08l0.009,-0.053l0.213,-0.093v-0.031l-0.018,-0.04l0.034,-0.05l0.139,-0.003l0.043,-0.024l0.056,-0.003l0.053,-0.034v-0.047l-0.059,-0.046l0.003,-0.031l0.04,-0.022l0.009,-0.04l-0.021,-0.056l-0.006,-0.213l0.049,-0.047h0.093l0.043,0.031l0.019,0.047l0.096,0.028l0.052,-0.041l-0.009,-0.099l-0.127,-0.164l-0.071,-0.037l-0.037,-0.055l-0.022,-0.149l-0.04,-0.052l-0.08,-0.025l-0.038,-0.047l-0.012,-0.145l-0.068,-0.093l0.003,-0.071l0.065,-0.046l0.046,-0.146l0.047,-0.055l0.114,-0.059l0.028,-0.071l0.034,-0.022v-0.059l-0.059,-0.096l-0.049,-0.182l-0.05,-0.17l-0.046,-0.077l-0.071,-0.056l-0.025,-0.056l-0.003,-0.052l-0.053,-0.065l-0.052,-0.025l-0.059,-0.071l-0.003,-0.059l-0.034,-0.05l-0.046,-0.012l-0.041,-0.046l-0.012,-0.056l-0.049,-0.056l-0.065,-0.034l-0.01,-0.058l0.075,-0.084l0.037,-0.083l-0.016,-0.062l-0.062,-0.037l-0.028,-0.065l-0.111,-0.133l-0.102,-0.034l-0.059,-0.053l-0.099,-0.167l-0.083,-0.068l-0.087,-0.028l-0.102,-0.074l-0.025,-0.05l-0.046,-0.034l-0.04,0.003l-0.034,-0.021l-0.016,-0.078l-0.04,-0.024l-0.053,-0.013l-0.126,-0.077l-0.065,-0.025l-0.112,-0.102l-0.111,-0.071l-0.062,-0.006l-0.037,0.031l-0.071,-0.003l-0.059,-0.062l-0.13,-0.074l-0.158,-0.016l-0.046,-0.025l-0.068,-0.003l-0.053,0.019h-0.263l-0.049,0.018l-0.053,-0.006l-0.021,-0.028l0.015,-0.037l-0.021,-0.012l-0.053,0.043l-0.065,0.006l-0.068,-0.018l-0.028,0.028v0.055l-0.034,0.037v0.038l0.056,0.071l-0.003,0.096l-0.031,0.068l-0.078,-0.007l-0.071,-0.043l-0.031,-0.068l-0.055,-0.009l-0.072,0.08l-0.061,0.016l-0.025,0.034l0.003,0.037l-0.031,0.003l-0.099,-0.081l-0.056,-0.145l-0.049,-0.018l-0.019,-0.031v-0.068l-0.08,-0.087l-0.009,-0.059l0.037,-0.056v-0.058l-0.044,-0.031v-0.044l0.031,-0.049l0.007,-0.084l0.04,-0.058l-0.003,-0.047l-0.031,-0.068l-0.019,-0.235l-0.034,-0.028l0.003,-0.04l0.025,-0.015l-0.006,-0.034l-0.09,-0.028l-0.136,-0.078l-0.015,-0.04l0.03,-0.034l-0.006,-0.074l-0.028,-0.031l0.013,-0.04l0.117,-0.04l0.025,-0.031l0.006,-0.047l-0.046,-0.065l-0.056,0.003l-0.025,0.044l-0.04,0.021l-0.062,-0.003l-0.068,-0.062l-0.086,-0.018l-0.164,-0.006l-0.037,-0.028l-0.007,-0.056l-0.034,-0.003l-0.024,0.025l-0.037,-0.006l-0.059,-0.056l-0.099,-0.003l-0.146,0.08h-0.052l-0.074,0.034l-0.075,-0.012l-0.08,-0.04l-0.015,-0.05l-0.093,-0.031l-0.078,0.016l-0.08,-0.037l-0.003,-0.037l-0.034,-0.019l-0.047,-0.003l-0.037,-0.034v-0.062l0.056,-0.053v-0.046l-0.04,-0.037l-0.047,0.009l-0.027,-0.018v-0.041l-0.041,-0.027l-0.046,0.003l-0.043,0.052l-0.025,0.047l-0.056,0.024l-0.012,0.034h-0.04l-0.037,-0.024l-0.158,0.012l-0.059,0.04h-0.096l-0.077,-0.028l-0.044,-0.068h-0.095l-0.05,0.047l-0.003,0.049l-0.034,0.016l-0.05,-0.006l-0.08,0.086l-0.053,-0.003l-0.034,-0.046h-0.049l-0.022,0.04l-0.046,0.018l-0.108,0.01l-0.084,0.055h-0.077l-0.019,0.038l0.04,0.055l0.007,0.065l0.052,0.053l0.003,0.055l-0.031,0.01l-0.061,-0.016l-0.019,0.025l0.04,0.046l-0.031,0.037l-0.077,0.019l-0.034,-0.031h-0.034l-0.043,0.009l-0.038,-0.012l-0.003,-0.043l0.028,-0.019l-0.003,-0.043l-0.034,-0.031l-0.009,-0.065l0.015,-0.043l-0.015,-0.053l-0.071,-0.08l-0.047,-0.102l-0.055,-0.072l-0.09,-0.055v-0.053l0.028,-0.034v-0.062l-0.031,-0.068l0.012,-0.108l-0.043,-0.022l-0.056,0.028h-0.074l-0.065,-0.006l-0.071,0.04l-0.028,0.077l0.031,0.05l-0.009,0.037l-0.093,0.022l-0.022,0.037h-0.046l-0.044,-0.025l-0.058,0.003l-0.065,0.016l-0.09,-0.016l-0.083,-0.099l-0.013,-0.059l0.028,-0.043v-0.059l-0.077,-0.04l-0.019,-0.046l0.003,-0.059l-0.065,-0.053l-0.207,0.01l-0.068,0.037l-0.009,0.049l-0.034,0.016h-0.047l-0.123,0.089l-0.004,0.087l-0.157,0.081l-0.143,0.046l-0.08,-0.016l-0.054,0.018l-0.033,0.037l-0.039,0.01h-0.084l-0.076,0.034l-0.02,0.056l0.017,0.044l0.111,0.128l0.003,0.064l0.032,0.056l-0.008,0.079l-0.032,0.034l-0.064,-0.003l-0.108,-0.036l-0.045,-0.049l-0.014,-0.069l-0.067,-0.061l-0.074,-0.005l-0.069,-0.039l-0.061,-0.064l-0.106,-0.008l-0.084,-0.044l-0.062,0.003l-0.039,0.039l-0.013,0.071l0.035,0.066l-0.025,0.071l-0.108,0.02l-0.089,0.074l-0.254,0.014l-0.103,0.089l-0.023,0.046l-0.059,0.039l-0.037,0.042l-0.019,0.091l-0.037,0.041l-0.089,0.03l-0.106,-0.003l-0.047,0.027l-0.037,0.047l-0.101,0.032l-0.037,0.029l-0.123,-0.009l-0.025,-0.052l-0.039,-0.017l-0.05,0.01l-0.032,-0.008l-0.005,-0.032l-0.029,-0.009l-0.027,0.012l-0.045,-0.015l-0.042,-0.034l-0.029,0.007l-0.015,0.061l-0.025,0.032l-0.083,0.022l-0.015,0.047l0.027,0.044l-0.015,0.03l-0.054,0.014l-0.069,0.069l-0.042,0.069l-0.002,0.044l0.017,0.041l-0.008,0.027l-0.039,0.008l-0.022,0.024l-0.005,0.037l-0.025,0.027h-0.061l-0.05,-0.034l-0.044,0.002l-0.03,0.022l-0.049,0.003l-0.079,-0.025l-0.049,0.012l-0.086,0.086l-0.055,0.017l-0.118,-0.017l-0.094,-0.056l-0.046,0.002l-0.03,0.025l-0.062,0.005l-0.182,-0.076l-0.049,-0.059l0.007,-0.066l-0.044,-0.032l-0.04,-0.054l-0.047,-0.037l-0.061,-0.002l-0.064,0.029l-0.052,-0.01l-0.084,-0.044l0.012,-0.032l0.047,-0.046l0.013,-0.076l-0.067,-0.094l-0.135,-0.041l-0.143,-0.02l-0.069,-0.051l-0.06,0.002l-0.042,0.047l-0.022,0.071l0.015,0.059l-0.044,0.068l-0.101,0.015l-0.065,-0.027l-0.037,-0.037l-0.204,-0.074h-0.087l-0.059,0.034l-0.136,-0.012l-0.133,-0.059h-0.207l-0.235,0.111l-0.05,-0.006l-0.058,-0.049h-0.102l-0.109,0.052l-0.021,0.049l-0.071,0.016l-0.099,-0.003l-0.041,0.03l-0.021,0.099l-0.05,0.003l-0.188,-0.129l-0.115,-0.013l-0.043,-0.03l-0.05,-0.003l-0.04,0.027l-0.108,0.003l-0.031,0.025l-0.05,0.003l-0.043,-0.031l-0.124,-0.003l-0.062,-0.037l-0.049,0.006l-0.043,0.056l-0.09,0.015l-0.046,0.059l-0.106,0.006l-0.099,-0.074l-0.077,-0.003l-0.145,0.16l-0.053,-0.003l-0.052,-0.096l-0.078,-0.027l-0.046,-0.046h-0.059l-0.062,0.046l-0.176,0.015l-0.043,-0.031l-0.059,0.003l-0.127,0.062l-0.102,-0.006l-0.09,-0.074l-0.077,-0.025h-0.071l-0.124,0.068l-0.096,0.006l-0.164,-0.031l-0.099,0.019l-0.031,0.034v0.052l-0.043,0.031l-0.074,0.012l-0.056,0.052l-0.232,0.003l-0.124,-0.043l-0.083,-0.067l-0.096,-0.01l-0.084,0.05l-0.012,0.058l-0.056,0.108l-0.058,0.024l-0.093,-0.024l-0.062,0.006l-0.09,0.058l-0.151,-0.015l-0.05,-0.025h-0.059l-0.049,0.022h-0.111l-0.093,-0.046h-0.096l-0.077,0.024l-0.065,-0.003l-0.047,-0.052l-0.117,-0.003l-0.177,0.102h-0.049l-0.05,-0.025h-0.145l-0.164,-0.031l-0.037,-0.028h-0.037l-0.081,0.044l-0.148,0.024l-0.081,0.037l-0.08,-0.003l-0.142,0.074h-0.053l-0.043,0.031l-0.034,0.067l-0.149,0.08l-0.151,0.142l-0.009,0.046l-0.041,0.003l-0.021,-0.015h-0.05l-0.037,0.037l-0.207,0.015l-0.105,-0.046l-0.13,0.003l-0.09,0.021l-0.031,0.037l-0.006,0.056l-0.047,0.034l-0.173,0.009l-0.142,-0.049l-0.037,0.009l-0.037,0.08l-0.074,0.046l-0.025,0.04l-0.065,0.022l-0.071,-0.01l-0.084,-0.04l-0.182,-0.043l-0.044,0.025l-0.024,0.04l-0.065,0.024l-0.022,0.077l-0.108,0.056l-0.09,-0.003l-0.065,0.067l-0.003,0.047l0.031,0.024l-0.003,0.037l-0.028,0.028l0.012,0.034l0.056,0.058l0.068,0.135l-0.015,0.062l-0.068,0.034h-0.14l-0.055,-0.031h-0.059l-0.192,0.095l-0.185,-0.003l-0.044,0.028l-0.012,0.068l-0.043,0.086l0.003,0.2l-0.025,0.058h-0.059l-0.034,-0.021l-0.068,0.003l-0.043,0.021l-0.071,-0.003l-0.044,-0.021l-0.034,0.015l-0.009,0.123l-0.201,0.111l-0.102,0.022l-0.115,0.006l-0.092,0.049l-0.09,0.022l-0.08,0.098l-0.013,0.095l-0.028,0.08l-0.108,0.05l-0.198,0.024l-0.182,-0.006l-0.109,-0.043l-0.127,0.006l-0.058,0.068l-0.013,0.181l0.087,0.139l0.043,0.135l0.071,0.034l-0.006,0.025l-0.059,0.009l-0.009,0.031l0.028,0.046l-0.006,0.037l-0.059,0.031l-0.022,0.033l0.003,0.043l-0.034,0.01l-0.102,-0.031l-0.123,-0.099l-0.034,-0.073l-0.041,-0.019l-0.068,-0.018l-0.12,-0.12l-0.139,-0.053l-0.007,-0.046l-0.055,-0.006l-0.022,0.015l-0.053,-0.006l-0.099,-0.098l-0.074,-0.031l-0.015,-0.04l-0.05,-0.012l-0.074,0.031l-0.022,0.043l0.003,0.089l-0.021,0.052v0.04l0.028,0.04l-0.007,0.031l-0.061,0.015l-0.034,0.068l0.012,0.049l-0.012,0.053l-0.062,0.049l-0.025,0.049l-0.099,0.058l-0.034,0.053l-0.062,0.034l-0.04,0.046l-0.081,0.034l-0.006,0.037l0.099,0.123l0.062,0.03l0.003,0.031l-0.037,0.025l-0.015,0.074l-0.047,0.033h-0.21l-0.102,-0.046l-0.028,0.025l0.019,0.049l-0.019,0.04l-0.006,0.046l-0.047,0.04l-0.018,0.037l-0.077,0.046l-0.041,0.003l-0.021,-0.024l-0.041,0.018l-0.009,0.083l-0.034,0.05l-0.09,0.012l-0.102,0.052l-0.018,0.117l-0.04,0.046l-0.022,0.133l-0.065,0.037l-0.062,0.07l-0.238,0.105l-0.087,0.003l-0.043,0.043l-0.023,0.131l-0.057,0.108l-0.051,0.019l-0.069,-0.002l-0.069,-0.017l-0.072,0.036l-0.002,0.03l-0.042,0.027h-0.037l-0.03,0.029l-0.024,0.052l-0.092,0.068l-0.093,0.008l-0.057,0.041l-0.007,0.042l0.019,0.037l-0.014,0.032l-0.045,0.014l-0.012,0.054l0.044,0.044l-0.005,0.037l-0.056,0.02h-0.084l-0.072,0.071l-0.128,0.221v0.092l0.06,0.097l0.051,0.023l0.051,-0.005l0.056,0.023l0.102,0.134l0.116,0.065l0.125,0.014l0.121,0.097l0.051,0.009l0.028,0.037l0.014,0.111l0.042,0.032h0.143l0.126,-0.051l0.069,0.023l0.102,0.092l-0.014,0.065l-0.041,0.032l0.004,0.051l0.047,0.083v0.065l-0.037,0.032l0.009,0.056l0.074,0.055l0.186,0.018l0.051,0.047l0.028,0.087l0.116,0.111l0.079,0.208l0.069,0.05l0.042,0.107l0.111,0.05v0.047l-0.083,0.06l-0.003,0.041l0.024,0.022v0.037l-0.027,0.033v0.034l0.037,0.043v0.056l0.024,0.043l0.065,0.027l0.041,0.053l0.071,0.027l0.043,-0.006l0.034,0.013l0.025,0.033l0.049,0.016l0.04,-0.003l0.019,0.024l-0.028,0.148l0.016,0.055l-0.013,0.04l-0.093,0.047l-0.009,0.055l0.037,0.028l-0.012,0.037l-0.087,0.049h-0.068l-0.024,0.037l0.006,0.08l-0.01,0.052l-0.046,0.059l0.003,0.061l0.099,0.126l0.081,0.04l0.058,0.006l0.075,0.037l0.04,0.059l0.158,0.074l0.16,0.003l0.065,0.015l0.031,0.052l-0.012,0.13l-0.05,0.052l-0.006,0.04l-0.028,0.021l-0.027,0.004l-0.013,0.024l0.016,0.068l-0.003,0.064l-0.034,0.136l0.049,0.098l0.046,0.034l0.065,0.006l0.149,0.148l0.083,0.12l-0.006,0.046l-0.077,0.102l-0.013,0.083l-0.03,0.037l-0.056,0.003l-0.037,0.034v0.04l-0.028,0.027l-0.043,0.006l-0.031,0.04l-0.13,0.265l-0.115,0.108l-0.043,0.08l-0.105,0.092v0.046l0.052,0.04l0.013,0.111l0.055,0.083l0.065,0.019l0.031,0.033l0.013,0.05l0.068,0.046l0.08,0.024l0.136,0.139l0.037,0.086l0.053,0.031l0.059,0.006l0.037,-0.019l0.062,0.01l0.114,0.064l-0.006,0.071l-0.114,0.132l-0.007,0.071l-0.034,0.028l-0.062,0.015l-0.083,0.083l-0.046,0.139l-0.044,0.037l-0.086,0.003l-0.05,-0.016l-0.059,0.019l-0.071,0.12l-0.04,0.04l-0.083,0.028l-0.186,0.169l0.006,0.061l0.059,0.068l0.012,0.154l0.084,0.123l0.003,0.052l-0.09,0.077l-0.257,0.092l-0.003,0.05l0.028,0.052l0.006,0.071l0.016,0.031l-0.013,0.04l-0.182,0.092l-0.028,0.061l-0.037,0.022l-0.043,0.003l-0.102,0.043h-0.081l-0.046,0.022l-0.044,0.073l-0.222,0.068l-0.056,0.04l-0.216,0.025l-0.059,0.074l-0.037,0.003l-0.022,0.024l-0.019,0.037l-0.154,0.111l-0.047,0.015l-0.021,0.034l-0.006,0.166l-0.025,0.028l-0.003,0.028l0.021,0.071l-0.089,0.252l-0.034,0.009l-0.025,-0.012l-0.037,0.009l-0.034,0.04l-0.115,0.04l-0.021,0.031l-0.003,0.04l-0.087,0.107l-0.009,0.071l-0.037,0.031l-0.186,0.006l-0.034,0.031l-0.031,0.08l-0.049,0.034l-0.109,0.021l-0.04,0.034v0.052l-0.046,0.031l-0.198,0.049l-0.041,0.037l-0.018,0.043l-0.059,0.047l-0.049,0.083l0.003,0.03l0.028,0.022v0.034l-0.016,0.031l0.028,0.095l0.077,0.037l0.019,0.034v0.043l0.031,0.021l0.003,0.037l-0.152,0.188l-0.021,0.089l-0.037,0.025l-0.059,-0.003l-0.084,0.015l-0.086,0.065l-0.062,0.021l-0.09,0.099l-0.028,0.074l-0.062,0.104l0.003,0.028l0.025,0.046l-0.006,0.132l-0.056,0.047v0.04l0.059,0.107l0.013,0.062l0.037,0.086v0.068l0.015,0.027l0.065,0.016l0.022,0.024l0.003,0.034l0.037,0.028h0.031l0.025,0.021l-0.004,0.044l0.035,0.018l0.04,-0.022l0.062,-0.07l0.04,-0.003l0.049,0.024h0.041l0.018,-0.021h0.028l0.108,0.07l-0.006,0.056l0.022,0.015l0.034,0.003l0.021,0.025l-0.009,0.058l-0.034,0.065l0.012,0.046l-0.009,0.031l-0.028,0.025l-0.009,0.055l0.043,0.034h0.093l0.065,0.04l0.084,0.015l0.108,0.006l0.006,0.034l-0.062,0.12v0.031l0.025,0.025l-0.003,0.024l-0.084,0.046l-0.006,0.037l0.012,0.034l-0.006,0.034l-0.031,0.046l-0.003,0.059l-0.034,0.046l-0.105,0.08l-0.012,0.077l-0.031,0.083l0.003,0.15l0.062,0.074l-0.003,0.062l-0.062,0.095l-0.013,0.148l0.053,0.132l-0.009,0.059l-0.26,0.212v0.031l0.018,0.021l-0.006,0.04l-0.123,0.071l-0.019,0.043l0.009,0.062l0.05,0.046v0.037l-0.022,0.043l0.006,0.024l0.037,0.013l-0.003,0.061l-0.04,0.08l-0.059,0.04l-0.062,-0.003l-0.123,-0.009l-0.034,-0.022l-0.037,0.004l-0.019,0.04l0.003,0.04l-0.022,0.03l-0.04,0.013l-0.083,0.089h-0.044l-0.031,-0.016l-0.049,-0.003l-0.034,0.013h-0.046l-0.022,-0.022l-0.031,0.003l-0.056,0.056v0.033l-0.021,0.01l-0.028,-0.01l-0.078,0.034l-0.003,0.034l-0.031,0.006l-0.092,-0.024l-0.025,0.015l0.031,0.08l-0.006,0.034l-0.158,0.074l-0.081,0.071h-0.092l-0.053,-0.059l-0.124,-0.003l-0.04,0.022l-0.096,0.009l-0.065,0.067l-0.136,0.007l-0.046,0.043h-0.056l-0.108,-0.034l-0.047,0.003l-0.034,0.025l-0.065,0.003l-0.086,-0.016h-0.077l-0.047,0.025h-0.046l-0.04,-0.009h-0.056l-0.071,0.033l-0.161,0.034l-0.05,-0.003l-0.055,-0.034l-0.288,-0.03l-0.077,0.012l-0.161,0.074l-0.025,0.046l-0.034,0.009l-0.167,-0.046l-0.046,0.006l-0.044,0.052l-0.065,0.007l-0.037,-0.022l-0.046,-0.003l-0.031,0.012l-0.065,-0.006l-0.077,-0.04l-0.136,-0.028l-0.087,-0.098l-0.077,-0.006l-0.065,0.021l-0.065,-0.003l-0.065,-0.037h-0.053l-0.052,0.047l-0.044,0.003l-0.083,-0.04l-0.065,-0.003l-0.056,0.015l-0.074,-0.003l-0.081,-0.04l-0.03,-0.043l-0.124,-0.043l-0.164,0.009l-0.037,0.037l-0.047,-0.003l-0.105,-0.062h-0.049l-0.105,0.04l-0.044,-0.009l-0.154,-0.117l-0.09,-0.021l-0.062,-0.084l-0.049,-0.012h-0.087l-0.019,0.031l-0.034,0.003l-0.037,-0.012l-0.055,0.003l-0.047,0.021l-0.074,-0.003l-0.05,-0.058l-0.096,-0.04l-0.046,-0.049l-0.133,-0.077l-0.087,-0.025h-0.111l-0.059,-0.034h-0.08l-0.059,0.068l-0.037,0.003l-0.049,-0.022h-0.068l-0.109,0.028l-0.083,-0.003l-0.084,-0.025l-0.08,0.01l-0.062,0.11l-0.04,0.019l-0.006,0.028l0.024,0.049l0.031,0.104l0.044,0.05l-0.007,0.04l-0.046,0.021l-0.111,0.016l-0.056,0.076l-0.062,0.019l-0.025,0.068v0.098l0.025,0.055l-0.003,0.071l0.043,0.04l0.065,0.006l0.05,0.028l0.018,0.055l0.05,0.034l0.077,0.028l0.046,0.052l0.022,0.086l0.006,0.108l-0.024,0.046l0.012,0.071l0.195,0.095l0.049,0.056l0.044,0.191l0.043,0.046v0.058l-0.025,0.077l0.037,0.129l0.056,0.071l0.071,0.022l0.031,0.03l0.009,0.047l0.112,0.08h0.043l0.028,-0.056l0.074,-0.006l0.186,0.077l0.134,0.011l0.047,0.032l0.097,0.005l0.107,-0.065l0.116,0.009l0.037,0.042l0.028,0.152l0.037,0.042l0.004,0.097l-0.046,0.129l0.042,0.06l0.167,0.083l0.079,-0.019l0.06,0.042l0.005,0.189l-0.167,0.559l0.004,0.143l0.093,0.106l0.111,0.014l0.024,0.041l-0.028,0.06l0.028,0.065l0.079,0.046l0.129,0.023l0.047,0.046v0.13l0.065,0.096l0.06,0.037l0.111,-0.023l0.079,0.037l0.033,0.116l0.144,0.129l-0.005,0.064l-0.06,0.079l0.009,0.101l0.088,0.065l0.014,0.129l-0.032,0.023l-0.061,-0.027l-0.074,0.018l-0.111,0.097l-0.024,0.102l-0.055,0.055l-0.07,0.014l-0.13,0.166l-0.153,0.148l-0.125,0.074l-0.079,0.018l-0.042,0.046h-0.079l-0.046,0.037l-0.014,0.083l-0.093,0.037l-0.074,-0.009l-0.097,0.032l-0.042,0.051l-0.088,0.005l-0.075,-0.028l-0.074,-0.074l-0.069,0.005l-0.038,0.041l-0.009,0.065l-0.26,0.457l-0.046,0.009l-0.056,-0.028l-0.06,0.005l-0.051,0.032l-0.079,0.009l-0.079,0.037l-0.171,0.014l-0.079,0.097l0.006,0.059l-0.025,0.052h-0.034l-0.056,-0.016l-0.185,0.025l-0.04,0.049h-0.053l-0.183,-0.04l-0.061,0.003l-0.084,-0.043l-0.151,-0.184h-0.041l-0.161,0.083l-0.123,0.003l-0.096,0.049l-0.022,0.108l-0.055,0.037l-0.208,-0.003l-0.049,-0.031l-0.121,-0.012l-0.062,0.052l-0.043,-0.003l-0.084,-0.049l-0.17,-0.01l-0.043,0.022l-0.065,-0.003l-0.052,-0.034h-0.056l-0.034,0.037l-0.022,0.08l-0.083,0.114l-0.143,0.132l-0.083,0.037l-0.127,0.154l-0.012,0.037l-0.037,0.027l-0.004,0.643l0.062,0.154l-0.009,0.12l-0.037,0.04l0.003,0.037l0.053,0.013l0.077,-0.013l0.176,0.046l-0.006,0.025l-0.501,0.135l-0.037,0.034l-0.006,0.046l0.037,0.037l-0.006,0.028l-0.044,0.015l-0.025,0.053l-0.04,0.021l-0.031,0.053l-0.018,0.064l-0.044,0.037l-0.151,-0.009l-0.037,0.024l-0.006,0.062l-0.028,0.034l-0.081,0.058l-0.015,0.059l0.025,0.092l0.096,0.055l0.015,0.062l0.093,0.086l0.096,0.012l0.037,0.028l0.018,0.099l-0.018,0.027l-0.053,0.016l-0.012,0.04l0.025,0.101l0.105,0.12l-0.003,0.093l-0.05,0.073l-0.105,0.013l-0.009,0.024l0.018,0.037l-0.052,0.086l-0.022,0.056l-0.068,0.049l-0.003,0.04l0.022,0.037l-0.118,0.181l-0.062,0.05v0.043l-0.031,0.018h-0.077l-0.142,0.031l-0.192,0.117l-0.04,-0.003l-0.041,-0.025l-0.092,0.043l-0.016,0.059l-0.105,0.021l-0.037,0.09l-0.019,0.104l-0.074,0.203l-0.09,0.08l-0.003,0.049l0.034,0.068l0.037,0.249l0.195,0.416l0.019,0.104l-0.006,0.145l0.018,0.046v0.031l-0.037,0.018l-0.009,0.043l0.025,0.093l-0.013,0.037l-0.052,0.046l-0.004,0.169l0.028,0.114l-0.003,0.055l-0.025,0.046v0.071l0.047,0.136v0.104l-0.037,0.154l0.003,0.095l0.015,0.154l0.053,0.053l0.09,0.2l-0.019,0.03l-0.034,0.019l0.034,0.514l0.037,0.049l0.019,0.138l0.031,0.019h0.031l0.021,0.037l0.025,0.197l0.034,0.058l0.025,0.114l-0.025,0.025l-0.114,0.021l-0.016,0.037l-0.062,0.015l-0.049,0.004l-0.068,0.052l-0.025,0.095l-0.139,0.126l-0.078,0.025l-0.061,0.074h-0.034l-0.031,0.018v0.031l-0.028,0.015l-0.053,-0.015l-0.093,0.089l-0.003,0.083l-0.021,0.037l-0.05,0.022l-0.021,0.049l0.018,0.046l-0.028,0.071l-0.142,0.123l-0.016,0.068l0.038,0.067l-0.019,0.037l-0.068,0.028l-0.068,0.086l0.015,0.046l-0.027,0.053l-0.05,0.021l-0.012,0.031l0.024,0.025l-0.021,0.04l-0.078,0.009l-0.003,0.021l0.041,0.022v0.025l-0.056,0.049l-0.121,0.027l-0.04,0.031l-0.006,0.043l-0.043,0.037l-0.059,0.025l-0.028,0.043l-0.179,0.089l-0.013,0.049l-0.025,0.031l-0.046,0.012l-0.028,0.034v0.08l-0.04,0.025l-0.056,-0.003l-0.021,-0.031h-0.034l-0.022,0.031l-0.028,-0.012l0.009,-0.044l-0.021,-0.006l-0.037,0.025l-0.034,-0.012l-0.047,-0.071l-0.049,-0.028l-0.04,0.006l-0.041,0.108l-0.04,0.04l-0.065,0.132l-0.077,0.053l-0.087,0.027l-0.049,-0.003l-0.05,-0.055h-0.049l-0.034,0.024l-0.044,-0.003l-0.031,-0.03l-0.027,0.012l-0.034,0.058l-0.062,0.007l-0.075,-0.074l-0.043,-0.003l-0.034,0.018l-0.037,-0.003l-0.025,-0.062l-0.034,-0.003l-0.04,0.016l-0.065,-0.025l-0.062,-0.068l-0.024,-0.089v-0.123l-0.09,-0.089l-0.115,-0.025l-0.195,-0.184l-0.126,-0.542l-0.443,-0.055l-0.445,-0.413l-0.674,0.447l-0.257,0.07l0.006,0.025l0.096,-0.009l0.074,0.086l0.081,0.006l0.281,-0.061l0.498,0.03l-0.167,0.28l-0.127,0.003l-0.018,-0.049l-0.099,-0.061l-0.028,-0.037l-0.146,-0.043h-0.148l-0.028,0.027l-0.099,-0.003l-0.105,-0.089l-0.043,-0.009l-0.071,-0.04l-0.969,-0.013l-0.173,-0.2l0.074,-0.135l-0.572,-0.098l-0.052,-0.13l-0.174,0.234l-0.216,0.394l-0.118,0.068l-0.049,0.046l-0.009,0.049l-0.053,0.046l-0.034,0.016l-0.016,0.03l0.007,0.099l-0.025,0.04l-0.065,0.015l-0.05,0.028l-0.034,0.052l-0.058,0.037l-0.09,0.028l-0.059,0.046l-0.046,0.055l-0.108,0.059l-0.062,0.052l-0.146,0.046l-0.145,0.022l-0.062,-0.028l-0.049,0.016l-0.035,0.052l-0.086,0.012l-0.096,-0.021l-0.195,0.052l-0.093,0.077l-0.114,0.055l-0.047,0.043l0.004,0.047l-0.034,0.03l-0.053,0.01l-0.031,0.036v0.044l-0.034,0.033l-0.155,0.077l-0.077,0.077l-0.049,0.031l-0.041,0.08l-0.031,0.028l-0.136,0.058l-0.065,0.062l-0.167,-0.028l-0.021,-0.025h-0.05l-0.083,0.034l-0.037,-0.003l-0.044,-0.074l-0.059,-0.009l-0.018,-0.04l-0.025,0.003l-0.065,0.062h-0.025l-0.037,-0.019l-0.222,0.028l-0.065,-0.025l-0.031,0.01l0.009,0.055l0.077,0.046l0.016,0.052l-0.006,0.062l0.012,0.031l0.043,0.021l0.01,0.037l-0.016,0.04l0.006,0.04l0.112,0.166l-0.059,0.163l0.083,0.093l0.084,-0.025l0.046,0.012l0.022,0.047l-0.003,0.067l0.015,0.016l0.078,-0.025l0.015,0.025l-0.028,0.024l0.028,0.019l0.071,-0.022l0.579,-0.16l0.241,0.12l0.059,0.114l-0.01,0.258l-0.049,0.127l-0.068,0.055l-0.059,0.006l-0.266,-0.037l-0.043,0.013l-0.031,0.03l-0.074,0.025l-0.127,0.111l-0.04,0.061l-0.053,0.028l-0.096,0.04l-0.031,0.04l-0.037,0.006l-0.04,-0.009h-0.037l-0.139,0.083l-0.056,0.006l-0.043,-0.021l-0.053,0.003l-0.04,0.027l-0.034,0.003l-0.028,-0.012l-0.037,0.003l-0.062,0.031l-0.105,0.025l-0.059,0.04l-0.118,0.027l-0.04,0.049l-0.102,0.022l-0.025,0.031l-0.065,0.012l-0.061,-0.021l-0.062,0.003l-0.099,0.07l-0.078,0.01l-0.03,-0.016h-0.038l-0.024,0.056l-0.041,0.003l-0.027,-0.019h-0.038l-0.043,0.065l-0.068,0.009l-0.04,-0.015l-0.037,0.006l-0.009,0.037h-0.059l-0.04,-0.028h-0.099l-0.034,0.031h-0.155l-0.013,0.021l-0.027,0.003l-0.019,-0.036l-0.037,-0.022h-0.031l-0.056,0.055l-0.062,0.003l-0.03,0.031h-0.059l-0.037,-0.037l-0.013,-0.049l-0.055,-0.025l-0.362,-0.015l-0.112,-0.058l-0.071,-0.136l-0.071,-0.027l-0.046,0.009l-0.053,0.061l-0.059,0.01l-0.055,-0.013l-0.072,0.003l-0.058,0.04l-0.01,0.04l-0.037,0.025h-0.062l-0.095,0.052l-0.065,0.003l-0.072,-0.037l-0.024,-0.046l0.018,-0.052l-0.018,-0.037l-0.062,-0.009h-0.065l-0.025,0.021l-0.037,-0.003l-0.009,-0.095l0.049,-0.059l0.136,-0.086l0.05,-0.08l-0.022,-0.067l-0.037,-0.044l-0.056,-0.003l-0.009,-0.024l0.025,-0.025l-0.009,-0.04l-0.05,-0.009l-0.077,0.018l-0.037,0.037h-0.05l-0.052,-0.03h-0.137l-0.043,0.03h-0.037l-0.034,-0.027l-0.065,0.003l-0.216,0.12l-0.05,0.003l-0.046,-0.016h-0.053l-0.226,0.111l-0.065,0.065l-0.092,0.015l-0.041,0.031l-0.071,0.145l-0.059,0.055l-0.003,0.058l-0.105,0.105l-0.139,0.04l-0.028,0.046l-0.034,-0.003l-0.09,-0.046h-0.086l-0.047,-0.025l-0.034,0.013v0.049l-0.052,0.037l-0.019,0.061l0.009,0.106l-0.037,0.107l-0.06,0.087l-0.014,0.097l-0.056,0.06l-0.009,0.079l0.037,0.05l-0.014,0.056l-0.037,0.041v0.097l-0.046,0.046l-0.079,0.028l-0.612,0.642l-0.989,0.161l-0.241,0.102l-0.687,2.7l-0.06,0.051l0.088,0.162l-0.028,0.107l0.01,0.069l0.102,0.061l0.032,0.046l-0.014,0.046l0.033,0.033h0.083l0.125,0.088h0.047l0.037,0.028l-0.097,0.209l0.004,0.06l0.135,0.139l-0.005,0.051l-0.116,0.214l-0.028,0.246l-0.014,0.301l-0.079,0.172l-0.018,0.292l-0.074,0.218l-0.075,0.07l-0.092,0.287l-0.005,0.093l-0.065,0.149l-0.065,0.042l-0.042,0.088v0.092l-0.051,0.075l-0.079,0.046l-0.069,0.088v0.065l0.937,0.673l-0.009,0.042l-0.051,0.055l-0.07,0.028l-0.037,0.042l-0.023,0.102l-0.093,0.084l-0.042,0.074l-0.195,0.116l-0.037,0.074l-0.088,0.079l-0.028,0.083l-0.139,0.093l-7.823,2.283l-3.21,-0.399l-0.096,-0.037l-0.099,0.018l-0.013,0.081l-0.061,0.025l-0.093,-0.007l-0.303,0.056l-0.056,0.056l-0.118,0.043l-0.068,-0.031l-0.08,0.025l-0.037,0.062h-0.056l-0.087,-0.019l-0.117,0.019l-0.223,0.124l-0.278,0.006l-0.118,0.031l-0.161,-0.007l-0.074,0.05l-0.025,0.099l-0.117,0.111l-0.241,0.05l-0.118,-0.013l-0.08,0.081l0.012,0.068l-0.025,0.049l-0.074,0.019l-0.037,0.074l0.019,0.068l0.111,0.062l0.018,0.068l-0.061,0.056l-0.031,0.086l-0.198,0.093h-0.192l-0.285,-0.204l-3.142,-0.563l-1.497,0.142v0.068l-0.062,0.025l-0.099,-0.018l-0.526,0.018l-0.13,-0.018l-5.023,0.482l-10.52,-3.347l0.185,0.214l-0.018,0.071l0.027,0.022l0.062,0.006l0.031,0.031l0.01,0.046l0.337,0.359l0.117,0.179l0.501,0.576l0.149,0.111l0.278,0.418v0.032l-0.018,0.033l0.037,0.162l-0.042,0.037l0.009,0.037l0.084,0.042l0.055,0.083l0.116,0.089l0.103,0.013l0.208,0.089l0.571,0.496l0.037,0.116l0.186,0.13h0.055l0.038,-0.037l0.051,0.009l0.046,0.07l0.037,0.195l0.042,0.046l-0.009,0.149l-0.038,0.041v0.051l0.038,0.047l-0.01,0.055l-0.041,0.028l-0.051,-0.014l-0.019,0.047l0.023,0.079l0.116,0.208l0.163,0.186l0.18,0.102l0.005,0.051l-0.065,0.111l0.005,0.251l0.065,0.107l0.065,0.014l0.037,-0.028l0.051,0.004l0.032,0.038l0.07,0.023l0.056,-0.014l0.032,0.032l-0.005,0.135l-0.032,0.042l0.009,0.055l0.084,0.098l0.13,0.074l0.032,0.107l-0.023,0.032l-0.107,0.019l-0.093,0.106l0.024,0.038h0.069l0.269,0.171l0.098,0.088l0.181,0.446v0.046l0.018,0.033l0.051,0.032l0.195,0.367l0.005,0.083l0.218,0.316l0.343,0.297l0.084,0.041l0.348,0.321l0.167,0.181l0.107,0.204l0.179,0.191l0.133,0.044l0.21,0.173l0.044,0.111l0.139,0.118l0.297,0.13l0.024,0.034l0.056,0.003l0.047,-0.019l0.074,0.007l0.105,0.034l0.218,0.162l0.121,0.032l0.153,-0.004l0.111,0.023l0.144,0.074l0.107,0.014l0.125,-0.005l0.102,0.033l0.399,0.186l0.186,0.023l0.12,0.051l0.283,0.023l0.121,0.037l0.079,0.06l0.093,0.024l0.134,-0.005l0.116,0.042l0.228,0.19l0.051,0.079l0.139,0.083l0.102,0.037l0.06,-0.009l0.042,0.033l0.014,0.06l0.046,0.07l0.01,0.069l0.051,0.116l0.083,0.042l0.362,0.339l0.13,0.167l1.299,-0.214l0.005,0.39l-0.218,1.655l0.45,1.786l0.125,2.134l-0.292,0.673l-0.061,0.065l-0.014,0.102l0.042,0.065l0.056,0.023l0.037,0.056l0.005,0.051l0.055,0.023l0.005,0.074l-0.084,0.223l-0.046,0.042l-0.178,0.032l0.003,0.041l0.05,0.015l0.188,0.195l0.093,0.037l0.152,0.006l0.12,-0.065l0.075,0.016l0.058,0.062l0.059,0.015l0.065,-0.018l0.034,0.012l0.022,0.037l0.12,0.049l0.103,-0.006l0.123,-0.046l0.019,-0.04l0.059,-0.016l0.071,0.013l0.058,-0.013l0.053,-0.037l0.161,-0.056l0.046,-0.046l0.044,-0.006l0.083,0.018l0.071,-0.009l0.099,-0.052l0.034,0.003l0.028,0.043l0.173,0.006l0.393,-0.145l0.115,-0.013l0.052,0.019l0.056,0.142l0.074,0.059l0.084,0.015l0.111,-0.009l0.093,0.019l0.043,0.043l0.074,0.043l0.341,0.672l-0.028,0.012l-0.037,-0.028l-0.037,-0.056l-0.072,-0.015l-0.043,0.025l-0.012,0.052l-0.028,0.013l-0.087,-0.031l-0.043,0.028v0.04l-0.034,0.018l-0.034,-0.003l-0.028,0.028l0.009,0.05l-0.021,0.037l-0.05,0.015l0.003,1.315l-0.087,0.041v0.022l0.017,0.015v0.029l-0.022,0.02v0.034l0.059,0.072l0.008,0.059l-0.025,0.118l-0.037,0.025l-0.338,0.027l-0.01,0.03l0.045,0.148l-0.005,0.182l0.032,0.067l0.061,0.012v0.022l-0.093,0.01l0.002,0.017l0.04,0.022l-0.003,0.138l-0.024,0.03l-0.003,0.037l0.059,0.118l-0.005,0.045l-0.029,0.019l-0.054,0.02l-0.008,0.079l0.079,0.148l-0.069,0.071l0.022,0.094l0.02,0.02l-0.005,0.019l-0.084,-0.002l-0.259,-0.03h-0.096l-0.037,0.015l-0.054,-0.002l-0.052,-0.022l-0.059,0.007l-0.042,0.062l-0.047,0.024l-0.088,0.008l-0.047,-0.023l-0.045,0.003l-0.032,0.03l0.003,0.034l-0.035,0.017l-0.081,-0.002l-0.145,-0.114l-0.136,-0.012l-0.032,-0.025h-0.039l-0.067,0.018l-0.118,0.007l-0.067,0.035l-0.103,0.012l-0.052,-0.035h-0.057l-0.052,0.028h-0.066l-0.04,-0.023h-0.064l-0.054,0.025l-0.059,0.002l-0.077,-0.017l-0.093,0.008l-0.03,-0.02l-0.027,0.002l-0.022,0.035l-0.03,-0.003l-0.071,-0.064l-0.052,-0.002l-0.015,0.017l-0.027,0.003l-0.012,-0.023l-0.037,-0.002l-0.054,0.047l-0.02,0.027l-0.049,-0.003l-0.05,-0.034h-0.069l-0.054,0.066l-0.064,0.023l-0.007,0.051l0.039,0.074l-0.022,0.01l-0.027,-0.01l-0.017,-0.029h-0.023l-0.032,0.032l-0.086,0.037l-0.049,-0.013l-0.04,0.01l-0.017,0.045l-0.03,0.007l-0.113,-0.074l-0.123,0.008l-0.03,0.022l-0.005,0.047l-0.027,0.019l-0.049,0.01l-0.062,0.04l-0.024,0.041l-0.104,0.028l-0.017,0.029l-0.035,0.012l-0.103,-0.017l-0.212,0.003l-0.151,0.049h-0.039l-0.044,-0.042h-0.067l-0.022,0.025l-0.059,0.012l-0.04,0.027l-0.042,0.005l-0.039,-0.017l-0.039,0.002l-0.062,0.04l-0.037,-0.005l-0.039,-0.027l-0.06,0.002l-0.009,0.02l0.014,0.025l-0.022,0.014h-0.037l-0.061,0.074l-0.013,0.087l-0.024,0.017l-0.084,-0.025h-0.047l-0.022,0.025l-0.047,0.002l-0.091,-0.042l-0.074,0.003l-0.05,0.069l-0.15,0.064l-0.118,0.01l-0.074,0.076l-0.025,0.119l0.042,0.032l0.057,-0.013l0.005,0.025l-0.018,0.022v0.049l-0.093,0.092l-0.008,0.051l-0.078,0.079l-0.183,-0.039l-0.005,0.019l0.045,0.062l-0.032,0.178l0.017,0.024l0.052,0.02l0.093,0.148l-0.007,0.047l-0.185,0.083l-0.027,0.146l0.027,0.042l0.106,0.052v0.037l-0.057,0.019l-0.106,0.015l-0.034,-0.017l-0.045,-0.064l-0.039,-0.003l-0.012,0.022l0.002,0.03l0.057,0.035l-0.013,0.046l-0.061,0.052l-0.03,0.089l0.02,0.064l-0.007,0.034l-0.072,0.082l-0.224,0.012l-0.106,-0.034h-0.062l-0.066,0.007l-0.267,-0.106l-0.027,-0.081l0.008,-0.042l-0.01,-0.042l-0.188,-0.131l-0.229,-0.052l-0.034,0.008l-0.022,0.054l0.022,0.084l-0.04,0.066l-0.074,0.032l-0.091,0.126l-0.108,0.02l-0.074,0.049l-0.045,0.069l-0.032,0.005l-0.029,-0.024l-0.032,0.002l-0.082,0.052l-0.172,0.01l-0.052,-0.047l-0.034,0.002l-0.05,0.087l-0.005,0.138l-0.189,0.425l-0.123,0.773l-0.055,0.036v0.102l0.047,0.06l-0.005,0.037l-0.046,0.014l0.004,0.033l0.075,0.041l-0.01,0.065l-0.041,0.037l-0.028,0.13l-0.028,0.061l-0.056,0.032l-0.004,0.056l0.046,0.079l0.023,0.269l0.065,0.028l0.084,-0.01l0.093,0.042l0.088,0.112l0.069,0.018v0.033l-0.12,0.037l-0.177,0.014l-0.074,0.092l-0.023,0.065l-0.042,0.033l0.009,0.046l0.103,0.04l0.055,0.118l-0.009,0.114l-0.074,0.059v0.118l0.04,0.133l-0.022,0.077l-0.052,0.043l-0.127,0.025l-0.037,0.05l-0.006,0.061l-0.056,0.031l-0.099,-0.006l-0.059,-0.055l-0.09,-0.031l-0.083,-0.007l-0.062,-0.049l-0.04,0.018l-0.031,0.072l0.009,0.068l-0.025,0.043l-0.083,0.037l-0.034,0.037l-0.012,0.056l-0.038,0.006l-0.043,-0.018l-0.018,0.03l0.027,0.075l-0.003,0.071l-0.096,0.062l-0.034,0.108l-0.052,1.166l-0.099,1.188l-0.235,0.928l0.182,0.018l0.118,-0.012l-0.003,-0.068l0.034,-0.059l0.086,-0.009l0.071,0.065l-0.009,0.068l-0.056,0.025v0.043l0.087,0.049l0.331,0.13l0.068,0.062l0.084,0.208l-0.013,0.08l-0.046,0.059l-0.087,0.009l-0.034,0.062l0.022,0.074l-0.009,0.065l-0.059,0.053l-0.031,0.086l0.025,0.059l0.123,0.046h0.214l0.116,-0.055l0.269,-0.047l0.083,-0.06l0.028,-0.121l0.061,-0.102l0.013,-0.074l-0.009,-0.051l0.047,-0.06l0.283,-0.084l0.357,0.005l0.719,0.056l0.028,-0.042l-0.037,-0.177l-0.135,-0.153l0.014,-0.079l0.098,-0.157l0.19,-0.121l0.227,-0.06l0.283,-0.019l0.32,0.019l0.274,0.093l0.204,0.139l0.088,0.153l0.024,0.125l-0.007,0.118l-0.046,0.055l-0.17,0.041l-0.118,0.015l-0.009,0.04l0.115,0.05l0.485,0.031l0.189,-0.041v-0.037l-0.146,-0.049l-0.167,-0.031l-0.031,-0.056l0.004,-0.158l0.065,-0.148l0.139,-0.164l0.226,-0.117l0.191,-0.059l0.266,-0.028l0.037,-0.016l-0.006,-0.024l-0.046,-0.025l-0.016,-0.046l0.044,-0.096l0.123,-0.087l0.325,-0.04l0.381,-0.019l0.877,0.102l0.213,0.042l0.246,0.005l0.306,0.032l0.362,0.061l0.39,0.097l0.278,0.084l0.102,-0.01l0.07,-0.06l0.079,-0.028h0.116l0.176,-0.083l0.046,-0.079l0.112,-0.065l0.176,-0.023l0.429,0.068l0.247,0.08l0.476,0.043l0.854,0.112l0.34,0.074l0.112,-0.006l0.068,-0.087l-0.019,-0.062l-0.074,-0.037l-0.074,-0.093l-0.013,-0.161l-0.024,-0.148l0.049,-0.124l0.204,-0.198l0.483,-0.179l0.451,-0.118l0.501,-0.006l0.372,0.081l0.371,0.105l0.439,0.08l0.334,0.037l0.328,-0.012l0.155,0.012l0.142,0.05l0.068,-0.013l0.062,-0.074l-0.013,-0.08l-0.136,-0.198l-0.012,-0.13l-0.062,-0.068h-0.124l-0.129,0.093l-0.344,0.012l-0.164,-0.087l-0.161,-0.012l-0.031,-0.056l0.044,-0.074l0.216,-0.105l0.161,-0.167l0.111,-0.031l0.297,0.043l0.236,-0.055l0.197,-0.013l0.198,-0.154l0.081,0.006l0.155,0.117l0.148,0.019l0.142,-0.025l0.118,0.037l0.074,0.081l0.043,0.123l-0.037,0.161l-0.222,0.081l-0.161,0.13l-0.161,0.037l-0.408,-0.068l-0.044,0.037l0.143,0.136l0.123,0.043l0.037,0.074l-0.037,0.075l-0.123,0.024l-0.025,0.056l0.105,0.05l0.303,-0.031l0.433,0.08l0.464,0.149l0.594,0.253l0.136,0.13l0.161,0.037l0.266,-0.025l0.105,-0.055l0.031,-0.074l0.229,-0.099l0.291,0.049l0.235,0.136l0.105,0.111l0.056,0.124l-0.044,0.068l-0.123,0.075l-0.093,0.142v0.062l0.062,0.037l0.47,-0.118l0.185,-0.012l0.05,-0.056l-0.05,-0.086l-0.129,-0.056l-0.081,0.006l-0.093,-0.056l-0.031,-0.111l0.031,-0.192l0.136,-0.179l0.22,-0.156l0.339,-0.098l0.756,0.005l0.241,-0.047h0.571l0.863,0.144l0.255,0.005l0.418,-0.074l0.111,-0.088l0.107,-0.26l0.134,-0.079l0.52,-0.019l0.097,-0.028l0.191,0.028l0.079,0.042l0.12,-0.005l0.158,-0.078l0.107,-0.005l0.468,0.107l0.2,0.032l0.343,0.088l0.209,-0.004l0.227,-0.075l0.126,-0.009l0.278,-0.097l0.186,-0.028l0.255,-0.177l0.195,-0.046l0.751,0.019l0.506,-0.07l0.617,-0.186l0.738,-0.092l0.603,-0.005l0.302,0.056l0.334,0.144l0.445,0.232l0.098,0.013l0.106,-0.055l0.037,-0.107l-0.065,-0.056l0.019,-0.046l0.06,-0.06l-0.004,-0.191l-0.033,-0.111l-0.139,-0.046l-0.311,0.018l-0.097,0.061l-0.075,0.004l-0.078,-0.046l-0.186,-0.214l-0.093,-0.037l-0.056,0.019l-0.064,-0.014l-0.089,-0.084l-0.065,-0.004l-0.431,0.111l-0.316,0.195l-0.612,0.158l-0.084,-0.005l-0.046,-0.079l0.121,-0.158l0.111,-0.245l0.232,-0.209l0.111,-0.01l0.098,-0.046l0.102,-0.107l0.404,-0.157h0.06l0.083,0.065l0.112,0.004l0.079,-0.046l0.083,-0.005l0.13,-0.069l0.042,0.023l-0.065,0.12l0.018,0.061l0.158,0.065l0.065,0.088l0.009,0.093l-0.065,0.116l0.014,0.065l0.051,0.009l0.089,-0.084h0.069l0.065,0.07l-0.042,0.097l0.042,0.051l0.186,-0.037l0.255,0.033l0.227,0.083l0.149,0.158v0.172l0.041,0.088l0.144,0.12v0.047l-0.055,0.042l-0.01,0.079l0.033,0.083l-0.019,0.079l-0.065,0.014l-0.12,0.004l-0.037,-0.092l-0.038,0.014l-0.023,0.065l0.014,0.092l0.158,0.153l0.394,0.274l0.455,0.413l0.269,0.334l0.079,0.139l-0.005,0.135l-0.065,0.209l-0.12,0.116l-0.102,0.213l0.046,0.13v0.353l-0.046,0.12l-0.01,0.26l-0.023,0.07l-0.111,0.083l-0.005,0.112l0.056,0.125l-0.023,0.153l-0.135,0.144l-0.051,0.148l0.07,0.089l0.139,0.004l0.269,-0.06l0.107,-0.084l0.083,-0.014l0.139,0.056l0.144,-0.009l0.093,0.032l0.046,-0.014l0.065,-0.102l0.13,-0.032l0.126,0.037l0.236,0.102l0.215,0.155l0.211,0.185h0.055l-0.018,-0.074l-0.229,-0.254l-0.093,0.013l-0.062,-0.05l0.025,-0.055l0.185,-0.075l0.118,0.037l0.285,0.167l0.024,0.069l-0.062,0.006l-0.123,-0.081l-0.056,0.037v0.087l0.161,0.087l0.148,0.037l0.167,0.123l0.149,0.205l0.105,0.012l0.093,-0.08l-0.013,-0.106l-0.105,-0.123l0.006,-0.18l0.056,-0.043l0.062,0.099l-0.006,0.105l0.093,0.13h0.117l0.116,-0.08h0.116l0.037,-0.033l-0.009,-0.042l0.046,-0.041l0.195,-0.056l0.589,0.009l0.098,0.033l0.102,0.125l-0.014,0.111l0.019,0.056l0.032,0.005l0.093,-0.084l0.167,-0.028l0.204,0.019l0.065,0.046l0.079,0.005l0.13,-0.06l0.056,0.023l0.032,0.088l0.139,0.107l0.056,0.004l0.046,-0.051l0.005,-0.13h0.037l0.019,0.061l-0.014,0.083l0.051,0.023h0.176l0.056,0.033l-0.056,0.023l-0.186,-0.005l-0.051,0.024l-0.157,-0.019l-0.158,-0.116l-0.033,-0.074l-0.041,-0.014l-0.075,0.056l-0.018,0.12l-0.167,0.098h-0.07l-0.037,0.037l0.019,0.106l0.055,0.056l0.102,0.005l0.093,0.023l0.098,0.116l-0.005,0.074l-0.07,0.028l0.005,0.051l0.042,0.046l0.055,-0.004l0.047,-0.051l0.093,0.009l0.065,0.084v0.338l-0.033,0.093l-0.032,-0.018l0.014,-0.107l-0.01,-0.283l-0.032,-0.051h-0.042l-0.056,0.088l-0.074,0.037l-0.171,0.009l-0.056,0.028l-0.116,0.005l-0.023,0.046l0.046,0.07v0.079l-0.028,0.06l0.014,0.056l0.06,-0.005l0.042,-0.079l0.061,-0.046l0.078,0.018l0.153,0.149l0.019,0.079l0.06,0.092l0.042,-0.004l0.093,-0.102l0.005,0.051l-0.079,0.107h-0.084l-0.079,-0.116l-0.079,0.009l-0.055,-0.033l-0.005,-0.092l-0.037,-0.024l-0.084,0.037l-0.134,0.079l-0.051,0.07l0.005,0.111l-0.038,0.246l-0.106,0.214l-0.112,0.06l-0.014,0.051l0.056,0.005l0.195,-0.084l0.097,-0.116l0.107,-0.018l0.102,0.06l0.019,0.12h-0.037l-0.047,-0.069l-0.093,-0.014l-0.065,0.042l0.005,0.055l0.141,0.068l0.091,0.072l0.125,0.041l0.098,0.056l0.065,-0.014l0.069,0.028l0.019,0.093l0.051,0.074l0.056,0.005l0.074,-0.037v-0.052l0.037,0.014l0.005,0.061l-0.107,0.092h-0.065l-0.06,-0.051l-0.033,0.024l-0.014,0.148l-0.042,0.033l-0.088,0.004l-0.065,0.061l-0.083,0.12l-0.014,0.102l0.056,0.014l0.041,-0.074l0.07,-0.028l0.056,0.009l0.083,0.084l0.074,-0.005l0.167,-0.148l0.047,0.004l0.037,0.033l0.056,0.005l0.074,-0.038l0.158,0.014l0.051,0.037l0.055,-0.009l0.056,-0.046h0.056l-0.098,0.097h-0.088l-0.065,-0.037l-0.12,-0.005l-0.056,0.061l-0.093,0.014l-0.037,-0.028l-0.056,0.005l-0.125,0.111l-0.121,-0.005l-0.092,-0.083l-0.052,0.023l-0.009,0.056l-0.088,0.037l0.005,0.032l0.13,0.056l0.125,-0.005l0.065,0.028l0.032,0.046l-0.055,0.005l-0.075,-0.028l-0.111,-0.004l-0.06,-0.014l-0.037,0.074l0.051,0.042l0.074,-0.005l0.199,0.084l0.051,0.065l0.019,0.153l-0.051,0.032l-0.06,-0.009l-0.047,0.028l-0.037,-0.01l-0.037,-0.083l-0.06,-0.014l-0.116,0.028l-0.019,0.055l0.009,0.075l-0.032,0.069l-0.06,-0.009l-0.028,-0.056l-0.074,-0.037l-0.246,-0.028h-0.102l-0.098,-0.032l-0.028,0.056l0.07,0.069v0.047l-0.023,0.046l0.032,0.102l0.139,0.07l0.005,0.06l-0.037,0.065l0.042,0.107l0.13,0.092l0.185,0.019l0.135,-0.042l0.139,-0.139l0.056,-0.009l0.069,0.032l-0.037,0.019l-0.056,-0.005l-0.083,0.102v0.116l-0.07,0.07v0.116l-0.032,0.056l-0.098,0.004l-0.037,0.039l-0.003,0.08l0.105,0.034l0.065,-0.046l0.042,-0.07l0.102,-0.028l0.074,0.024l0.042,0.13l-0.005,0.074l0.028,0.06h0.061l0.102,-0.111l0.195,-0.13l0.241,-0.019l0.311,0.005l0.102,0.042l0.046,0.06l0.037,-0.009l0.042,-0.204l-0.014,-0.135l-0.134,-0.172l0.009,-0.106l0.06,-0.024l0.102,0.033l0.051,-0.014l0.07,-0.158l0.13,-0.06l0.083,0.009l0.144,0.121h-0.051l-0.153,-0.07l-0.107,0.037l-0.055,0.158l-0.093,0.037l-0.093,-0.014l-0.019,0.033l0.116,0.171l0.014,0.172l-0.06,0.223l-0.079,0.037l-0.088,-0.065l-0.13,-0.028h-0.223l-0.222,0.042l-0.186,0.111l-0.097,0.093l-0.065,0.033l-0.051,0.078v0.061l-0.033,0.042l-0.065,0.032l-0.051,0.093l0.042,0.088l0.134,0.028l0.149,-0.056l0.107,-0.005l0.014,0.038l-0.019,0.032l-0.079,0.023l-0.097,0.209v0.065l0.12,0.051l0.079,-0.032l0.107,-0.121l0.014,-0.079l0.051,-0.056l0.093,0.024l0.023,0.069l0.139,0.037l0.028,0.056l-0.042,0.125l0.014,0.163l0.074,0.023l0.042,-0.047l0.014,-0.139l0.121,-0.139l0.213,-0.093l0.107,0.005l0.164,0.056l0.123,0.142l0.038,0.155l0.167,0.247l0.117,0.26l0.124,0.055l0.179,-0.012l0.118,-0.148l0.025,-0.217l-0.019,-0.266l0.049,-0.117l0.365,-0.322l0.013,-0.062l-0.062,-0.056l-0.105,-0.031l-0.025,-0.136l0.05,-0.117l-0.031,-0.297l-0.093,-0.087h-0.062l-0.08,-0.111l0.037,-0.112l0.049,0.013l-0.006,0.086l0.34,0.143l0.272,0.192l0.099,0.21l0.075,0.012l0.117,-0.049l0.142,0.012l0.124,0.081l0.074,-0.019l0.069,-0.204l0.061,-0.013l0.056,0.081l0.006,0.099l0.167,0.124l0.093,0.179l0.025,0.266l-0.05,0.142l-0.142,0.099l-0.105,0.037l-0.019,0.087l0.037,0.142l0.143,0.136l0.198,0.013l0.272,-0.081l0.216,0.013l0.05,-0.081l-0.056,-0.185l0.031,-0.242l0.149,-0.303l-0.013,-0.086l-0.13,-0.149l-0.043,-0.117l0.025,-0.068l0.142,-0.087l0.05,-0.111l-0.031,-0.087l-0.093,-0.093l-0.037,-0.136l0.062,0.043l0.037,0.087l0.105,0.08l0.025,0.13l-0.05,0.161l-0.136,0.05l-0.012,0.062l0.043,0.074l0.124,0.124l0.012,0.142l-0.148,0.309l-0.031,0.217l0.068,0.031l0.21,-0.093l0.179,-0.235l0.161,-0.05l0.112,0.062l0.123,-0.062l0.05,-0.204l0.148,-0.142l0.198,-0.062l0.006,-0.074l-0.204,-0.062v-0.068l0.093,-0.099l0.031,-0.13l0.099,-0.105l0.012,-0.143l0.081,-0.08l0.117,-0.037l-0.055,0.074l-0.081,0.074l-0.012,0.143l-0.087,0.111l-0.043,0.118l-0.062,0.074l0.025,0.043l0.179,0.025l0.13,-0.068l0.087,0.006l-0.025,0.056l-0.068,0.012l-0.118,0.093l-0.037,0.105l-0.229,0.08l-0.03,0.044z"/>
</svg>
