<svg xmlns="http://www.w3.org/2000/svg" viewBox="744.922 414.417 1.845 3.258">
  <path d="M745.297561,414.417086l0.034025,0.006186l0.00928,0.064957l-0.030932,0.040212l-0.07733,0.034025l-0.043305,0.049491l-0.089703,0.034025l-0.012373,0.046398l0.037118,0.083516l0.049733,0.046156l-0.017254,0.017254l-0.059157,-0.00986l-0.029579,0.014789l-0.002465,0.049298l0.024649,0.064087v0.073947h0.019719v-0.049298l0.022184,-0.036973l0.036973,-0.039438l0.012324,-0.051763l0.022184,-0.027114l0.071482,-0.032044l0.054228,0.00986l0.103526,0.066552l0.061622,0.061622l0.10599,0.061622l0.130639,0.049298l0.091201,0.017254l0.10599,0.059157l0.012324,0.061622l-0.00493,0.059157l0.00986,0.041903l-0.019719,0.066552l-0.064087,0.140499l-0.027114,0.103526l-0.024649,0.049298l-0.046833,0.051763l-0.051763,0.017254l-0.059157,0.044368l-0.044368,0.029579l-0.029579,-0.017254l0.022184,-0.029579l0.041903,-0.029579l0.007395,-0.036973l-0.024649,-0.061622l-0.029579,-0.00986l-0.046833,0.00493l-0.019719,0.022184l-0.064087,0.00493l-0.11092,-0.034509l-0.096131,-0.019719l-0.00493,0.017254l0.044368,0.081341l0.046833,0.113385l0.036973,0.041903l0.041903,0.012324l0.046833,-0.024649l0.034509,-0.044368l0.027114,-0.002465l0.039438,0.012324l0.022184,0.017254l-0.051763,0.076412l-0.071482,0.207051l-0.012324,0.162683l0.014789,0.088736l0.046833,0.088736l0.069017,0.024649l0.049298,0.029579l0.024649,0.027114l0.039438,0.012324l0.044368,-0.019719l0.076412,0.002465l0.064087,0.054228l0.034509,0.012324l0.029579,-0.007395l0.022184,0.019719l-0.00493,0.027114l0.014789,0.032044l0.041903,0.044368l0.002465,0.056693l-0.007395,0.069017l0.012324,0.024649l-0.027114,0.069017l-0.113385,0.103526l-0.133104,0.091201l-0.081341,0.039438l-0.098596,0.076412l-0.061622,0.027114l-0.051763,0.051763l-0.022184,0.046833l-0.029579,0.012324l-0.019719,-0.002465l-0.032044,0.014789l-0.029579,0.039438l-0.027114,0.00986l-0.017254,-0.017254v-0.049298l-0.024649,-0.029579l-0.061622,-0.027114l-0.027114,0.00986l-0.014789,0.027114l-0.019719,-0.002465l-0.017254,-0.078877l0.022184,-0.11585l0.017254,-0.024649l-0.00986,-0.036973l-0.064087,-0.027114l-0.076412,0.00493l-0.046833,0.034509l-0.019719,-0.00986l-0.019719,-0.069017l0.022184,-0.056693l0.101061,-0.088736l0.017254,-0.039438l0.056693,-0.041903l0.118315,-0.032044l0.066552,-0.041903l0.034509,-0.059157l0.002465,-0.073947l-0.014789,-0.027114l0.019719,-0.044368l0.051763,-0.019719l0.029579,-0.086271l0.002465,-0.059157l-0.00493,-0.086271l-0.014789,-0.133104l-0.022184,-0.133104l-0.059157,-0.165148l-0.054228,-0.128174l-0.054228,-0.11092l-0.036973,-0.034509l-0.032044,-0.007395l-0.081341,-0.076412l-0.019719,-0.088736l0.00493,-0.061622l-0.002465,-0.056693l-0.019719,-0.056693v-0.076412l0.032044,-0.076412l-0.007395,-0.081341l-0.017254,-0.071482l-0.014789,-0.096131l-0.024649,-0.032044l-0.044368,-0.012324l-0.007395,-0.044368l0.022184,-0.049298l0.027114,-0.019719l0.012324,-0.034509l0.00986,-0.044368l0.051763,-0.039438l0.049298,-0.007395l0.041903,0.00493l0.034509,-0.017254l0.00493,-0.017254l0.024649,-0.019719l0.034509,-0.007395l0.032285,-0.035233Z M746.517442,417.109475l0.032044,-0.017254l-0.002465,-0.019719l-0.051763,-0.00493l-0.044368,0.022184v0.019719h0.066552Z M746.756537,417.380614l0.00986,-0.024649l-0.00493,-0.019719l-0.017254,-0.002465l-0.00986,0.019719v0.022184l0.022184,0.00493Z M746.598783,417.437306l0.029579,-0.019719l0.00986,-0.036973l0.034509,-0.022184l-0.017254,-0.014789l-0.036973,0.019719l-0.012324,0.029579l-0.036973,0.012324l-0.002465,0.027114l0.032044,0.00493Z M746.034323,417.597524l0.041903,-0.002465l0.019719,0.024649l-0.002465,0.022184l0.017254,0.029579l0.027114,0.002465l0.024649,-0.017254l0.012324,-0.044368l0.027114,-0.012324l0.034509,0.00493l0.034509,-0.007395l0.039438,-0.032044l0.024649,0.00493v0.046833l0.027114,0.024649l0.041903,-0.012324l0.036973,-0.027114l0.027114,-0.002465l0.027114,0.012324h0.039438l0.054228,-0.027114l0.00493,-0.034509l-0.051763,-0.034509v-0.024649l-0.019719,-0.012324l-0.027114,0.012324h-0.049298l-0.007395,-0.017254l0.034509,-0.022184l0.012324,-0.027114l-0.007395,-0.027114l0.027114,-0.041903l0.054228,-0.034509l0.019719,-0.029579l-0.002465,-0.049298l-0.022184,-0.059157l-0.051763,-0.029579l-0.081341,0.00493l-0.098596,0.036973l-0.027114,0.041903l-0.024649,0.024649l-0.029579,0.00986l-0.086271,0.096131l-0.036973,0.086271l-0.071482,0.101061l-0.039438,0.012324l-0.007395,0.019719l0.034509,0.00986Z "/>
</svg>
