<svg xmlns="http://www.w3.org/2000/svg" viewBox="254.051 911.820 39.636 8.355">
  <path d="M293.558296,917.155585l0.037007,-0.046259l0.060137,0.009252l0.032381,0.041633l-0.050885,0.037007l-0.050885,-0.009252l-0.027756,-0.032381Z M258.435204,920.150099l0.086351,0.024672l0.086351,-0.037007l-0.104854,-0.092518l-0.067847,-0.018504l-0.055511,0.043175l0.055511,0.080183Z M254.051384,912.066315l0.086351,0.074015l0.129781,-0.06447l0.067592,-0.095895l-0.024672,-0.160365l-0.111022,0.024672l-0.061813,0.138793l-0.086217,0.083252Z M270.391674,915.406986l0.074015,-0.027756v-0.296059l-0.10177,-0.194289l0.046259,-0.138778l-0.074015,-0.018504l-0.083267,0.055511l-0.138778,-0.018504l-0.074015,0.064763l-0.027756,0.231296l0.14803,0.259052l0.231296,0.083267Z "/>
</svg>
