<svg xmlns="http://www.w3.org/2000/svg" viewBox="1347.500 528.340 4.529 8.893">
  <path d="M1351.388463,536.146882l-0.426,-0.009l-0.251,0.111l-0.594,0.473l-0.232,0.232l-0.269,0.102l-0.51,0.093l-0.566,-0.028l-0.344,0.01l-0.362,0.102l-0.148,-0.038l-0.176,-0.176l-0.01,-0.213l0.093,-0.297l0.214,-0.223l0.074,-0.241l-0.019,-0.306l0.074,-0.362l0.27,-0.325l0.194,-0.149l0.353,-0.157l0.186,-0.201l0.346,-0.211l0.278,-0.055l0.118,0.061l0.08,-0.03l0.013,-0.341l-0.105,-0.136l-0.223,-0.049l-0.198,-0.031l-0.353,-0.124l-0.13,-0.13l-0.179,0.012l-0.204,0.149h-0.192l-0.068,-0.099l0.05,-0.118l0.266,-0.049l0.105,-0.167v-0.204l-0.235,-0.167l-0.112,-0.204l0.025,-0.353l0.05,-0.173l-0.093,-0.427l0.049,-0.167l-0.031,-0.223l-0.185,-0.247l0.018,-0.118l0.155,-0.105l0.241,-0.285l0.013,-0.179l-0.087,-0.124l0.043,-0.352l0.13,-0.124l0.062,-0.155l-0.012,-0.167l0.111,-0.365l0.21,-0.223l0.31,-0.154l0.451,-0.371h0.118l0.204,0.185l0.266,0.068l0.315,-0.049l0.18,0.031l0.241,0.198l-0.006,0.334l0.08,0.204l0.161,0.049l0.143,-0.043l0.377,0.124l0.111,0.086l0.099,-0.024l0.037,0.046l0.005,0.098l-0.046,0.139l0.014,0.422l0.074,0.357l-0.01,0.288l-0.083,0.26l0.022,0.085l-0.019,0.074l-0.068,0.049l-0.019,0.081l0.05,0.062l-0.025,0.062l-0.08,0.037l-0.019,0.074l0.068,0.068l-0.018,0.099l-0.099,0.142l-0.019,0.18l0.142,0.482l0.007,0.161l-0.013,0.093l-0.099,0.117l-0.018,0.106l0.099,0.148l0.049,0.303l-0.031,0.186l0.031,0.229l0.068,0.136l-0.018,0.08l-0.167,0.204l-0.273,0.842l-0.061,0.488l-0.038,0.446z"/>
</svg>
