<svg xmlns="http://www.w3.org/2000/svg" viewBox="910.792 474.251 41.328 21.416">
  <path d="M911.68937,474.531755l0.006168,-0.141862l0.049343,-0.070931l0.003084,-0.043175l0.058595,-0.024672l0.154197,0.077099l0.040091,0.13261l-0.046259,0.13261l-0.144946,0.104854l-0.027756,0.033923l-0.061679,-0.018504l0.009252,-0.049343l0.027756,-0.021588l-0.012336,-0.055511l-0.055511,-0.055511Z M910.927634,477.106852l0.049343,-0.003084l0.037007,0.030839l0.055511,-0.003084l0.037007,-0.027756l0.11719,0.018504l0.144946,-0.012336l0.086351,-0.043175l0.040091,-0.049343l-0.006168,-0.043175l0.009252,-0.030839l0.040091,-0.024672l0.027756,-0.077099l-0.021588,-0.061679l0.018504,-0.058595l0.067847,-0.021588l0.003084,-0.033923l-0.037007,-0.043175l0.024672,-0.052427l0.089435,-0.061679l0.009252,-0.077099l-0.018504,-0.043175l-0.067847,-0.006168l-0.061679,-0.074015l-0.006168,-0.086351l-0.037007,-0.049343l-0.003084,-0.058595l-0.037007,-0.030839l-0.046259,0.024672l-0.092518,-0.003084l-0.14803,-0.089435l-0.006168,-0.111022l-0.030839,-0.012336l-0.040091,0.033923l-0.123358,-0.009252l-0.021588,0.024672l0.030839,0.049343l-0.040091,0.086351l-0.083267,0.064763l-0.033923,0.049343l0.003084,0.209709l-0.049343,0.027756l-0.01542,0.067847l0.040091,0.070931l0.006168,0.058595l-0.030839,0.043175l0.018504,0.104854l0.049343,0.049343l0.006168,0.052427l-0.037007,0.049343l0.027756,0.129526l0.055511,0.052427Z M926.919189,483.09937l0.240548,0.135694l0.111022,-0.006168l0.067847,0.030839l0.024672,0.228212l0.043175,0.074015l0.123358,0.043175l0.129526,0.012336l0.135694,-0.030839l0.357738,-0.024672l0.080183,-0.018504l0.037007,-0.086351l0.086351,-0.024672l0.024672,-0.043175l-0.061679,-0.129526l0.067847,-0.222044l-0.012336,-0.074015l-0.123358,-0.086351l-0.160365,-0.043175l-0.141862,-0.129526l-0.271387,-0.092518l-0.104854,0.024672l-0.123358,0.172701l-0.098686,0.061679l-0.277555,-0.012336l-0.209709,0.074015l-0.024672,0.055511l0.080183,0.111022Z M932.010562,479.45716l0.055511,0.14803l0.083267,0.092518l0.064763,0.013878l0.092518,-0.018504l0.055511,0.02313l0.046259,0.069389l0.185037,0.02313l0.111022,-0.02313l0.041633,-0.060137l-0.046259,-0.157281l-0.092518,-0.083267l-0.092518,-0.198915l-0.138778,-0.111022l-0.217418,-0.060137l-0.111022,0.046259l-0.032381,0.083267l-0.074015,0.078641v0.078641l0.069389,0.055511Z M936.492424,481.992412l0.135694,0.277555l0.222044,0.14803l0.345402,0.166533l0.252884,-0.012336l0.055511,0.012336l-0.004626,0.037007l-0.032381,0.046259l0.037007,0.041633h0.060137l0.027756,-0.037007l-0.041633,-0.055511l0.018504,-0.037007l0.14803,0.018504l0.13261,-0.013878l0.135694,0.055511l0.141862,0.018504l0.111022,-0.012336l0.185037,0.030839l0.074015,-0.012336l0.061679,-0.215876l0.080183,-0.037007l0.098686,-0.129526l0.006168,-0.092518l-0.141862,-0.098686l0.024672,-0.104854l0.061679,0.006168l0.049343,-0.043175l-0.111022,-0.086351v-0.111022l-0.262136,-0.198915l-0.050885,-0.004626l-0.118732,0.018504l-0.129526,-0.012336l-0.228212,-0.092518l-0.209709,-0.030839l-0.055511,0.055511l-0.067847,0.006168l-0.037007,-0.043175l-0.166533,-0.037007l-0.394745,0.030839l-0.296059,0.135694l-0.11719,0.259052v0.154197Z M933.794679,483.275526l-0.064763,-0.009252l-0.069389,-0.050885l-0.134152,-0.037007l-0.496516,-0.269846l-0.104854,-0.012336l-0.060137,-0.032381l-0.032381,-0.060137l-0.032381,-0.02313l-0.046259,0.009252l-0.138778,-0.074015l-0.050885,-0.046259l-0.087893,-0.013878l-0.092518,-0.10177l-0.212792,-0.111022l-0.069389,0.009252l-0.083267,-0.027756l-0.004626,-0.041633l-0.046259,-0.009252l-0.046259,0.032381l-0.277555,-0.1249l-0.115648,-0.018504l-0.393203,-0.175785l-0.14803,-0.032381l-0.555111,-0.2498l-0.192747,-0.027756l-0.020046,0.02313l0.074015,0.032381l0.092518,0.134152l0.212792,0.161907l0.129526,0.050885l0.10177,0.055511l-0.02313,0.053969l0.018504,0.01542l0.046259,-0.018504l0.009252,0.032381l-0.030839,0.035465l0.033923,0.049343l0.086351,-0.009252l0.040091,0.00771l0.032381,0.069389l0.479554,0.23438l0.283723,0.095602l0.080183,-0.003084l0.157281,0.089435l0.080183,0.089435l0.080183,0.030839l0.074015,-0.009252l0.152655,0.060137l0.115648,-0.013878l0.083267,0.041633l0.078641,0.004626l0.106396,0.069389l0.055511,0.055511l0.300685,0.138778l0.064763,0.069389l0.189663,0.092518l0.083267,0.027756l0.309937,-0.027756l0.106396,-0.046259l0.032381,-0.074015l-0.161907,-0.120274Z M928.769558,483.821014l0.111022,0.203541l0.055511,0.111022l0.333066,0.154197l0.135694,0.074015l0.123358,0.018504l0.055511,-0.067847l0.067847,0.006168l0.23438,0.104854l0.092518,0.018504l0.111022,-0.018504l0.228212,0.043175l0.240548,-0.018504l0.098686,0.067847l0.037007,0.123358l0.123358,0.037007l0.228212,-0.098686l0.074015,-0.080183l0.104854,-0.030839l0.376242,0.018504l0.222044,0.055511l0.296059,-0.067847l0.074015,-0.055511l-0.030839,-0.098686l-0.135694,-0.067847l-0.016962,-0.041633l-0.038549,-0.020046l-0.456424,-0.043175l-0.104854,-0.055511l-0.197373,-0.012336l-0.098686,-0.043175l-0.049343,-0.080183l-0.074015,-0.061679l-0.154197,-0.049343l-0.018504,-0.061679l-0.061679,-0.037007l-0.074015,0.024672l-0.271387,-0.092518l-0.166533,-0.172701l-0.357738,-0.185037l-0.259052,-0.049343l-0.259052,0.018504l-0.191205,-0.024672l-0.222044,0.086351l-0.160365,0.141862l-0.024672,0.326899Z M951.062728,495.408937l-0.012336,0.11719l0.055511,0.043175l0.172701,0.006168l0.172701,-0.092518l0.129526,0.018504l0.098686,0.11719l0.111022,0.049343l0.277555,-0.024672l0.049343,-0.055511l-0.043175,-0.080183v-0.092518l-0.123358,-0.154197l-0.086351,-0.018504l-0.030839,-0.074015l0.030839,-0.11719l-0.098686,-0.067847l-0.240548,0.006168l-0.074015,0.067847l-0.141862,0.018504l-0.098686,-0.043175l-0.197373,0.080183l-0.043175,0.111022l0.092518,0.185037Z M946.556503,488.647828l0.074015,0.191205l0.113098,0.070686l0.078107,0.083511l0.160365,0.074015l0.086351,0.123358l0.400913,0.283723l0.049343,0.086351l0.26522,0.018504l0.228212,-0.135694l0.086351,0.012336l0.104854,0.061679h0.197373l0.086351,0.024672l0.172701,0.172701l0.074015,0.006168l0.061679,0.067847l0.086351,-0.012336l0.061679,-0.055511l0.197373,-0.012336l0.111022,0.030839l0.357738,-0.018504l0.086351,0.024672l0.061679,-0.012336l0.086351,-0.074015l0.289891,-0.037007l0.215876,-0.14803l0.11719,-0.012336l0.203541,0.049343l0.098686,0.061679l0.283723,-0.061679l0.154197,-0.178869l0.037007,-0.14803l-0.030839,-0.055511v-0.092518l0.049343,-0.049343l-0.049343,-0.283723l-0.172701,-0.098686l-0.26522,-0.012336l-0.141862,0.049343l-0.141862,-0.024672l-0.067847,-0.055511l-0.141862,0.018504l-0.049343,0.043175l-0.11719,-0.024672l-0.037007,-0.061679l-0.049343,0.018504l-0.055511,0.086351l-0.320731,0.14803l-0.283723,0.074015h-0.296059l-0.098686,-0.135694l-0.111022,-0.006168l-0.160365,0.154197l-0.191205,0.061679l-0.222044,-0.012336l-0.222044,-0.104854l-0.074015,-0.024672l-0.067847,0.024672l-0.222044,-0.049343l-0.111022,-0.104854l-0.123358,-0.26522l-0.370074,-0.191205l-0.098686,-0.012336l-0.11719,0.098686l-0.098686,-0.030839l-0.055511,0.030839l-0.006168,0.098686l-0.14803,0.141862l-0.018504,0.111022Z M928.184112,483.583421l-0.030089,0.025207l0.019063,0.029547l0.058368,0.005154l0.039034,-0.021321l-0.000088,-0.034063l-0.086287,-0.004523Z M938.091224,482.807862l0.027756,-0.024672l-0.006168,-0.033923l-0.064763,-0.012336l-0.043175,0.01542l0.006168,0.043175l0.080183,0.012336Z M932.765549,479.811985l0.012336,0.043175l0.049343,0.006168l0.006168,-0.043175l-0.024672,-0.024672l-0.043175,0.018504Z M934.045944,483.380271l-0.043323,0.009683l0.003689,0.026843l0.038319,0.015124l0.02158,-0.025526l-0.020266,-0.026123Z "/>
</svg>
