<svg xmlns="http://www.w3.org/2000/svg" viewBox="1054.446 455.210 21.717 40.297">
  <path d="M1054.446186,476.686356l0.0087,-0.033055l0.044368,-0.019892l0.038133,0.008191l-0.017254,0.032324l-0.039438,0.022378l-0.034509,-0.009946Z M1057.783459,480.998785l0.055678,-0.031202l-0.006186,-0.059285l-0.046398,-0.074886l-0.071144,0.018721l-0.058771,0.096727l0.018559,0.059285l0.108262,-0.009361Z M1057.362783,481.242163l0.055678,-0.034323l0.061864,-0.059285l0.043305,-0.115449l-0.027839,-0.009361l-0.123728,0.102968l-0.052584,0.096727l0.043305,0.018721Z M1057.71942,480.752189l0.022184,0.009946l0.041903,-0.126808l0.007395,-0.072107l-0.019719,-0.012432l-0.032044,0.057188l-0.019719,0.144213Z  M1059.275971,457.127993l0.188,-0.152l0.037,-0.198l0.087,-0.12l0.351,-0.158l0.13,-0.111l0.037,-0.226l0.12,-0.136l0.243,-0.066l0.157,0.052l0.267,-0.067l0.114,-0.139l0.393,-0.055l0.205,0.077l0.265,-0.025l0.081,-0.093l0.08,-0.018l0.12,0.049l0.111,-0.031l0.148,-0.154l0.337,-0.201l0.16,-0.01l0.111,-0.12l0.056,-0.016l0.04,0.099l-0.025,0.232l0.037,0.34l0.08,0.034l0.182,-0.12l0.099,0.025l0.12,-0.047l0.148,0.081l0.071,0.136l-0.003,0.287l-0.092,0.084l-0.201,0.025l-0.061,0.043l-0.022,0.105l-0.059,0.043h-0.105l-0.043,0.041l-0.009,0.123l-0.284,0.393l-0.003,0.105l0.071,0.037l0.049,0.059l0.007,0.096l0.055,0.028l0.139,-0.034l0.046,0.068l-0.015,0.396l0.228,0.09l0.296,-0.022l0.216,-0.074l0.087,-0.078l0.163,-0.037l0.037,-0.117l0.167,-0.198l0.142,-0.019l0.092,0.028l0.124,-0.034l0.138,-0.393l0.111,0.019l0.019,0.371l-0.025,0.133l0.08,0.099l0.053,-0.003l0.142,-0.108l0.062,-0.149l0.33,-0.018l0.104,-0.118h0.09l0.065,0.065l0.08,-0.006l0.13,-0.127l0.104,0.006l0.278,0.207l0.191,0.022l0.229,-0.046l0.055,0.052l-0.123,0.124l-0.102,0.238l0.04,0.043l0.105,-0.031l0.167,0.019l0.373,-0.139l0.021,-0.053l-0.037,-0.089l0.09,-0.053l0.108,0.062l0.166,-0.022l0.074,0.056l-0.018,0.13l0.126,0.086l-0.012,0.167l0.065,0.034l0.151,-0.129l0.059,-0.167l0.139,-0.053l0.107,0.059l0.246,0.004l0.388,-0.204l0.181,-0.009l0.204,-0.107l0.12,-0.287l-0.042,-0.219l-0.004,-0.258l0.08,-0.04l0.055,0.022l0.074,-0.007l0.031,-0.086l0.108,-0.009l0.265,0.123l0.127,0.18l0.398,0.01l0.125,-0.148l0.19,-0.009l0.152,0.19l0.334,0.051l0.081,-0.045l0.087,-0.006l0.132,0.031l0.121,-0.022l0.098,-0.198l-0.021,-0.154l0.274,0.052l0.114,0.303l0.179,0.068l0.247,0.019l0.491,-0.065l0.157,-0.182l0.25,0.157l0.025,0.112l-0.148,0.38l0.327,0.071l0.018,0.053l-0.065,0.111l-0.043,0.306l-0.16,0.492l-0.068,0.04l-0.009,0.065l0.092,0.062l0.08,0.276l-0.024,0.027l-0.059,-0.015l-0.012,0.052l0.086,0.109l0.259,0.179l0.124,0.003l0.169,-0.077l0.031,-0.108l0.065,-0.022l0.089,0.033l0.347,0.035l0.179,-0.01l0.344,0.118l0.266,0.195l0.142,0.239l0.214,0.076l0.069,0.163l-0.14,0.153l-0.063,0.177l-0.307,0.408l0.039,0.156l-0.103,0.112l-0.103,0.016l-0.019,0.059l0.09,0.078l-0.004,0.103l-0.205,0.047l-0.17,-0.081l-0.119,0.05l0.006,0.102l0.078,0.066l-0.013,0.084l-0.228,0.028l-0.071,0.1l0.035,0.106l-0.218,0.197l-0.119,-0.003l-0.119,0.059l0.023,0.153l-0.161,0.075l-0.054,-0.085h-0.068l-0.186,0.222l-0.481,-0.006l-0.225,0.087l-0.214,0.223l-0.149,0.285l-0.395,0.305l-0.019,0.098l0.096,0.187l-0.182,0.35l-0.307,0.196l-0.423,0.025l-0.189,-0.07l-0.139,0.07l0.009,0.145l0.481,0.519l0.047,0.356l0.25,0.183l0.05,0.243l-0.139,0.056l-0.019,0.074l0.066,0.179l-0.006,0.142l-0.068,0.09l0.003,0.321l0.111,0.241l0.086,0.433l-0.138,0.372l-0.142,0.137l0.006,0.187l0.228,0.106l0.031,0.349l-0.333,0.4l0.086,0.399l0.338,0.314l0.005,0.077l-0.055,0.062v0.179l-0.073,0.057l-0.145,0.035l-0.224,0.164l0.006,0.204l-0.092,0.115l-0.207,0.041l-0.13,-0.044l-0.145,0.019l-0.08,0.15l-0.08,0.012l-0.093,-0.025l-0.16,0.106l-0.034,0.212l-0.074,0.088l0.005,0.054l0.069,0.058l0.037,0.318l0.154,0.119l0.247,0.028l0.154,0.115l0.09,0.234l0.142,0.122l0.135,0.299l0.007,0.153l-0.09,0.209v0.216l-0.028,0.077l-0.083,0.029l-0.028,0.09l0.053,0.131l-0.019,0.212l-0.062,0.103l-0.114,0.059l-0.111,0.188l-0.169,0.053l-0.111,0.152l0.067,0.263l-0.061,0.065l-0.043,0.218l0.024,0.057l-0.055,0.118l-0.096,0.309l-0.312,0.106l-0.163,-0.041l-0.241,-0.003l-0.16,0.078l-0.355,-0.065l-0.133,0.009l-0.188,-0.043l-0.139,0.009l-0.382,0.187h-0.077l-0.201,-0.069l-0.061,-0.003l-0.118,0.035l-0.114,-0.013l-0.203,-0.097l-0.528,-0.062l-0.078,0.009v0.033l0.091,0.057v0.189l0.111,0.116l0.111,0.227l0.137,0.054l0.131,0.122l0.041,0.139l0.111,0.072l0.175,0.005l0.091,0.068l0.014,0.261l0.14,0.084l0.113,-0.012l0.325,0.176v0.06l-0.061,0.057l-0.008,0.109l0.042,0.08l-0.01,0.099l-0.135,0.179l0.002,0.06l0.081,0.067l0.037,0.167l-0.029,0.057v0.045l0.251,0.194l0.019,0.084l0.241,0.172l-0.098,0.191l0.032,0.112l-0.003,0.234l0.133,0.141l0.561,0.157l0.024,0.099l-0.098,0.284l0.027,0.114l0.228,0.068l0.114,-0.07l0.253,-0.077l0.162,0.009l0.331,0.231l0.13,0.25l-0.052,0.131l0.086,0.112l-0.086,0.113l-0.127,0.243l-0.24,0.299l-0.053,0.15l-0.139,0.097l0.108,0.221l-0.031,0.106l-0.188,0.088l-0.129,0.246l-0.071,0.047l-0.182,-0.003l-0.192,0.162l-0.071,0.122l-0.185,0.103l-0.024,0.075l-0.204,0.149l-0.108,0.013l-0.093,0.1l-0.049,0.184l-0.031,0.452l0.04,0.084l0.115,0.013l0.024,0.059l-0.099,0.094l-0.043,0.149l-0.236,0.347l-0.14,0.471l0.052,0.034l0.088,-0.033l0.042,0.052l-0.236,0.234l0.014,0.056l0.106,0.014l0.232,0.136l0.051,0.206l0.444,0.477l0.222,0.351l0.116,0.051l0.046,0.122v0.131l0.264,0.459l0.138,0.07l0.371,-0.089l0.125,-0.141l0.398,-0.112l0.087,0.084l-0.06,0.113l-0.106,0.07l-0.065,0.15l0.056,0.126l-0.084,0.313l-0.111,0.085l-0.004,0.318l-0.07,0.061l-0.041,0.182l-0.139,-0.009l-0.134,0.061l-0.093,-0.024l-0.074,-0.117l-0.171,-0.065l-0.195,0.098l0.017,0.151l-0.046,0.063l-0.222,0.065l-0.151,-0.065l-0.114,0.009l-0.105,0.084l-0.127,-0.006l-0.132,0.075l-0.003,0.069l0.076,0.076l-0.054,0.286l-0.131,0.216l-0.015,0.171l-0.253,0.408l-0.311,0.206l-0.198,0.2l-0.086,0.006l-0.074,0.078l-0.209,0.786l-0.092,0.084l-0.13,0.262l-0.106,0.005l-0.019,0.051l0.061,0.056l-0.065,0.216l-0.088,0.042l0.037,0.229l0.129,0.052l0.176,0.22l0.074,0.29v0.196l0.084,0.052v0.056l-0.107,0.028v0.056l0.134,0.084l0.037,0.295l-0.05,0.056l0.004,0.253l0.136,0.271v0.088l-0.066,0.057l0.001,0.092l0.124,0.128l0.03,0.206l0.068,0.128l-0.071,0.059l-0.299,0.009l-0.298,0.037l-0.573,0.269l-0.227,0.205l-0.792,0.459l-0.342,0.292l-0.514,0.32l-0.111,0.019l-0.3,-0.088l-0.153,-0.135l-0.292,-0.199l-0.685,-0.395l-0.462,-0.153l-0.394,0.009l-0.287,0.112l-0.159,-0.015l-0.143,-0.111l-0.179,-0.057h-0.145l-0.153,0.079l-0.312,0.005l-0.214,-0.094l-0.484,-0.143l-0.403,-0.027l-0.168,0.029l-0.16,0.142l-0.006,0.133l-0.04,0.012l-0.065,-0.037l-0.238,-0.012l-0.302,0.099l-0.083,0.052l-0.105,0.022l-0.176,-0.003l-0.188,0.059l-0.074,0.083l-0.048,0.011l-0.079,-0.011l-0.086,0.022l-0.074,0.136l-0.213,0.158l-0.074,-0.006l-0.066,-0.109l-0.082,-0.052h-0.108l-0.006,-0.05l0.16,-0.284l0.022,-0.115l0.037,-0.071l0.125,-0.11l0.189,-0.357l0.01,-0.088l-0.042,-0.056l-0.005,-0.116l0.079,-0.069l0.204,-0.307l0.055,-0.222l-0.083,-0.223l-0.005,-0.116l0.171,-0.218l0.227,-0.427l0.102,-0.353l0.069,-0.598l-0.027,-0.19l-0.148,-0.223l-0.01,-0.195l0.176,-0.738l-0.018,-0.143l-0.102,-0.093l-0.014,-0.065l0.023,-0.209l0.097,-0.418l-0.032,-0.538l-0.107,-0.204l-0.31,-0.139l-0.129,-0.023l-0.056,-0.051l0.005,-0.065l0.106,-0.047l0.264,-0.473l0.241,-0.643l0.102,-0.756v-0.655l-0.148,-0.636l-0.278,-0.497l-0.352,-0.262l-0.034,-0.118l0.043,-0.031l0.426,0.327l0.167,0.297l0.043,-0.013l0.031,-0.056l-0.065,-0.115l0.034,-0.029l0.16,0.188l0.105,0.018l0.105,-0.068l0.447,0.068l0.075,-0.037l-0.343,-0.234l-0.046,-0.103l0.018,-0.271l-0.101,-0.356l-0.093,-0.056l-0.213,0.093l-0.046,0.103l0.157,0.187l-0.102,0.141l-0.12,0.019l-0.515,-0.309l-0.13,-0.007l-0.135,0.088l-0.087,0.137l-0.105,0.062l-0.173,0.007l-0.493,0.318l-0.136,0.037l-0.216,-0.031l-0.432,0.075l-0.172,0.131h-0.142l-0.019,-0.062l0.198,-0.393l0.03,-0.387l-0.061,-0.319l-0.161,-0.396l-0.217,-0.327l0.004,-0.066l0.084,-0.084l0.356,-0.028l0.213,-0.061l0.051,0.014l-0.014,0.093l0.074,0.103l0.287,0.117l0.139,0.094l0.078,0.173l0.061,0.038l-0.056,-0.225l-0.134,-0.145v-0.08l0.078,-0.084l0.088,-0.014l0.121,0.061l0.139,-0.019l0.05,-0.103l0.167,-0.056l0.005,-0.061l-0.144,-0.023l-0.301,0.061l-0.023,-0.033l0.06,-0.126l0.158,-0.099l0.199,-0.159l0.268,-0.117l0.088,-0.159l-0.028,-0.169l-0.287,-0.257l-0.023,-0.094l0.033,-0.056v-0.079l-0.074,-0.085l-0.014,-0.084l0.027,-0.107v-0.169l0.051,-0.145l0.209,-0.154l0.078,-0.122l0.042,-0.215l0.097,-0.099l0.199,-0.042l0.204,0.028l0.236,-0.004l0.069,-0.117l0.005,-0.085l-0.102,0.136l-0.204,0.005l-0.194,-0.047l-0.25,0.065l-0.139,0.136l-0.032,0.211l-0.046,0.075l-0.218,0.178l-0.153,0.238l-0.05,0.197l-0.079,0.178l-0.241,0.178l-0.111,0.234l-0.032,0.201l-0.047,0.393l-0.152,0.229l-0.241,0.103l-0.389,0.061l-0.217,-0.056l-0.153,0.005l-0.162,0.06l-0.139,0.103l-0.115,0.005l-0.389,-0.182l-0.134,0.014l-0.037,0.056l-0.051,0.009l-0.227,-0.023l-0.148,-0.099l-0.009,-0.084l0.083,-0.14v-0.136l-0.148,-0.14l-0.009,-0.117l0.291,-0.557l0.232,-0.59l0.004,-0.215l-0.041,-0.248v-0.244l0.041,-0.103l0.01,-0.159l-0.024,-0.093l0.019,-0.127l0.352,-0.59l0.148,-0.477l0.032,-0.431l-0.069,-0.21l-0.079,-0.131l-0.023,-0.136l-0.093,-0.066l-0.106,-0.004l-0.107,-0.042l-0.013,-0.061l0.037,-0.052l0.12,-0.018l0.12,0.051l0.125,0.005l0.375,-0.183l0.366,-0.299l0.069,0.042l0.06,0.103v0.079l0.051,0.028l0.065,-0.046l-0.037,-0.131l-0.111,-0.071l-0.037,-0.056l0.327,-0.462l0.159,-0.104l0.078,0.014l0.033,-0.037l-0.028,-0.066l0.393,-0.501l0.019,-0.103l-0.033,-0.173l0.193,-0.59l0.037,-0.256l0.58,-1.372l0.605,-1.635l0.012,-0.206l-0.043,-0.144l-0.222,-0.2l-0.006,-0.124l0.413,-1.071l0.606,-2.022l0.065,-0.435l-0.01,-0.195l0.51,-1.434l0.166,-0.812l0.019,-0.399l-0.069,-0.19l-0.01,-0.32l-0.231,-0.665l-0.105,-0.078l-0.114,-0.405l0.003,-0.213l-0.114,-0.548l-0.265,-0.581l-0.016,-0.118l0.068,-0.284l0.003,-0.183l-0.074,-0.13l-0.025,-0.414l-0.092,-0.432l-0.102,-0.222l-0.015,-0.228l-0.019,-0.108l-0.145,-0.133l-0.163,-0.303l-0.028,-0.288l0.058,-0.306l0.007,-0.09l-0.037,-0.071l-0.007,-0.096l0.071,-0.244l0.297,-0.303l0.234,-0.121z"/>
</svg>
