<svg xmlns="http://www.w3.org/2000/svg" viewBox="2002.585 699.826 3.478 5.760">
  <path d="M2005.878569,699.958727l0.012288,-0.024434l0.01966,0.004887l0.007373,0.019547l-0.017203,0.012217l-0.022118,-0.012217Z M2005.883484,699.895199l0.012288,-0.00733l-0.002458,-0.041537l-0.024575,-0.019547l-0.01966,0.00733v0.029321l0.034405,0.031764Z M2004.738279,702.65622l0.00983,0.039094l0.027033,-0.004887l0.02949,-0.036651l-0.007373,-0.026877l-0.024575,-0.004887l-0.024575,0.012217l-0.00983,0.02199Z M2004.723534,702.553598l0.04915,0.00733l0.02949,-0.034207l0.03932,0.002443l0.007373,-0.02199l-0.093386,-0.036651l-0.071268,-0.01466l-0.007373,0.02199l0.03932,0.026877l0.007373,0.048868Z M2006.062594,700.657103l-0.033923,-0.141045l-0.018504,-0.202369l0.027756,-0.06439l-0.006168,-0.049059l-0.092518,-0.137979l-0.058595,-0.042927l-0.061679,0.009199l-0.027756,0.091986l0.074015,0.137979l0.055511,0.049059l0.018504,0.042927l-0.009252,0.073589l0.037007,0.082788l-0.040091,0.110383l-0.104854,0.141045l-0.087893,0.036794l-0.092518,-0.041394l-0.106396,0.032195l-0.067847,0.104251l-0.052427,0.006132l-0.058595,-0.015331l-0.055511,0.049059l0.037007,0.134913l-0.012336,0.079721l-0.055511,0.027596l-0.024672,-0.027596l-0.030839,0.018397l-0.006168,0.070523l-0.049343,0.061324h-0.074015l-0.021588,0.030662l0.012336,0.052125l-0.012336,0.070523l0.021588,0.055192l0.138778,0.036794l0.009252,0.042927l-0.083267,0.095052l-0.033923,-0.003066v-0.045993l0.043175,-0.052125l-0.021588,-0.027596l-0.061679,-0.015331l-0.018504,0.036794l-0.037007,0.006132l-0.043175,-0.015331l-0.037007,0.039861l0.037007,0.070523l-0.061679,0.070523l0.003084,0.06439l-0.067847,0.076655l0.003084,0.042927l0.040091,0.012265l0.040091,-0.012265l0.018504,0.02453l-0.030839,0.033728l0.009252,0.036794l0.049343,0.015331l0.123358,0.061324l0.01542,0.039861l-0.027756,0.036794l0.003084,0.055192l0.033923,0.033728l0.01542,0.082788l-0.027756,0.036794l0.01542,0.08892l0.058595,0.042927l0.037007,0.003066l0.046259,0.033728l0.033923,0.076655l-0.003518,0.037321l0.01966,0.017104l0.070208,0.000767l0.018504,-0.027596l-0.067847,-0.030662l-0.040091,-0.08892l0.033923,-0.006132l0.037007,0.018397l0.098686,-0.030662l0.027756,-0.045993l-0.006168,-0.039861l0.049343,-0.021463l0.030839,0.021463l-0.003084,0.073589l0.030839,0.036794l0.058595,-0.012265l0.046259,-0.06439v-0.067456l-0.058595,-0.128781v-0.036794l0.037007,-0.027596l0.012336,-0.079721l-0.012336,-0.110383l0.037007,-0.070523l0.061679,-0.021463l0.024672,-0.055192l-0.018504,-0.079721l0.046259,-0.070523l0.046259,-0.018397l0.024672,-0.055192l0.074015,-0.042927l0.01542,-0.049059l-0.114106,-0.11345l-0.049343,-0.085854l0.037007,-0.06439h0.043175l0.058595,-0.033728l0.021588,-0.045993l-0.018504,-0.104251l0.009252,-0.055192l-0.021588,-0.02453l0.009252,-0.027596l0.037007,-0.018397l0.021588,-0.15331l-0.003084,-0.107317l0.033923,-0.061324Z M2005.500111,702.551155l0.024575,0.02199h0.024575v-0.02199l-0.03932,-0.036651l-0.017203,0.002443l0.007373,0.034207Z M2005.394438,702.604909l0.02949,0.009774l0.004915,-0.019547l-0.031948,-0.02199l-0.017203,0.012217l0.014745,0.019547Z M2004.620318,702.436316h0.01966l0.007373,-0.017104l-0.017203,-0.012217l-0.017203,0.00733l0.007373,0.02199Z M2005.089705,702.790606l0.034405,-0.012217l0.041778,-0.058641v-0.056198l-0.041778,-0.080632l0.012288,-0.034207l-0.002458,-0.034207l-0.061438,-0.017104l-0.02949,0.02199l-0.063896,0.004887l-0.046693,0.041537l-0.081098,-0.002443l-0.007373,0.024434l0.073726,0.080632l0.031948,-0.00733v-0.034207l0.034405,-0.017104l0.063896,0.019547l0.066353,0.009774l0.00983,0.029321l-0.056523,0.061085l-0.007373,0.036651l0.02949,0.024434Z M2005.038097,702.731965l0.014745,-0.02199l-0.036863,-0.036651l-0.04915,0.004887l0.002458,0.024434l0.068811,0.029321Z M2004.138644,704.114919l0.034405,0.012217l0.051608,-0.017104l-0.004915,-0.024434l-0.04915,-0.01466l-0.022118,0.009774l-0.00983,0.034207Z M2003.634852,702.98852l0.041778,0.048868l0.068811,0.01466l0.004915,-0.009774l-0.046693,-0.017104l-0.022118,-0.02199l0.004915,-0.031764l-0.044235,-0.041537l-0.01966,0.009774l0.012288,0.048868Z M2003.730695,702.998294l-0.007373,0.01466l0.073726,0.02199l0.034405,-0.00733l-0.004915,-0.019547l-0.034405,0.004887l-0.034405,-0.00733l-0.027033,-0.00733Z M2004.863613,702.665994l0.03932,0.097735l-0.014745,0.046424l0.022118,0.053754l0.04915,0.017104l0.088471,-0.019547l0.01966,-0.036651l-0.02949,-0.046424l-0.061438,-0.002443l-0.034405,-0.017104l-0.058981,-0.102622l-0.058981,-0.046424l-0.007373,0.009774l0.046693,0.046424Z M2004.610488,702.590249l0.00983,0.012217l0.024575,-0.019547l0.03932,0.004887l0.024575,0.02199l0.024575,0.002443l0.066353,-0.012217l-0.002458,-0.017104l-0.054065,0.009774l-0.022118,-0.00733l-0.041778,-0.019547h-0.04915l-0.01966,0.024434Z M2004.566253,702.702644l0.036863,0.061085l0.036863,0.004887l0.041778,0.046424l0.002458,0.029321l-0.027033,0.031764l-0.022118,0.053754l0.004915,0.063528l-0.031948,0.031764h-0.03932l-0.086013,0.024434l-0.031948,0.039094l-0.01966,0.068415l-0.02949,0.046424l-0.036863,0.012217l-0.044235,0.046424l-0.041778,0.078188l-0.04915,-0.00733l-0.022118,-0.048868l-0.03932,-0.061085l-0.04915,-0.01466l-0.027033,-0.039094l-0.051608,-0.012217l-0.041778,-0.092848l-0.022118,-0.048868h-0.017203l0.004915,0.048868l0.068811,0.117282l0.034405,0.004887l0.01966,0.01466l0.002458,0.029321l0.024575,0.01466h0.034405l0.031948,0.031764l0.02949,0.095292l0.024575,0.01466l0.046693,-0.019547l0.01966,0.00733l-0.007373,0.056198l0.012288,-0.002443l0.022118,-0.065971l0.04915,-0.061085l0.004915,-0.034207l0.01966,-0.012217l0.014745,0.026877l0.031948,-0.002443l0.061438,-0.078188l-0.007373,-0.036651l0.01966,-0.070858l0.068811,-0.019547l0.063896,0.019547l0.061438,0.097735l0.03932,0.002443l0.01966,-0.083075l-0.024575,-0.026877l-0.027033,-0.004887l-0.044235,-0.058641l-0.012288,-0.083075l0.031948,-0.048868l0.03932,0.009774l0.02949,-0.017104l-0.014745,-0.068415l-0.024575,-0.029321l-0.031948,-0.002443l-0.081098,-0.048868l-0.031948,-0.053754l-0.002458,-0.041537l-0.014745,-0.002443v0.068415Z M2003.494773,703.733751l0.098301,-0.02199l0.00983,-0.041537l-0.076183,-0.031764l-0.03932,0.017104l-0.017203,0.051311l0.024575,0.026877Z M2003.870774,703.931665l0.027033,-0.019547l0.007373,-0.048868l-0.014745,0.002443l-0.00983,0.031764l-0.017203,0.017104l0.007373,0.017104Z M2003.396472,704.102702l-0.036863,-0.053754l-0.007373,0.01466l0.01966,0.043981l-0.007373,0.053754l0.014745,0.004887l0.017203,-0.043981v-0.019547Z M2003.416133,704.183333l0.044235,-0.024434l0.014745,-0.048868l-0.00983,-0.009774l-0.031948,0.041537l-0.024575,0.009774l-0.00983,0.019547l0.017203,0.012217Z M2003.801964,703.968316l0.027033,0.002443l-0.002458,-0.02199l-0.027033,-0.024434l-0.012288,0.019547l0.014745,0.024434Z M2002.58549,705.563844l0.014745,0.02199h0.058981l0.117961,-0.097735l0.031948,-0.056198l-0.068811,-0.092848l-0.034405,-0.00733l-0.022118,0.017104l-0.066353,-0.002443l-0.014745,0.024434l0.034405,0.087962l-0.017203,0.065971l-0.034405,0.039094Z M2003.475113,704.464322l0.031948,0.029321l0.044235,-0.004887l0.046693,-0.048868l0.031948,-0.01466l-0.004915,-0.02199h-0.031948l-0.04915,0.041537l-0.034405,-0.002443l-0.034405,-0.034207l-0.01966,0.012217l0.01966,0.043981Z M2003.629937,704.261522l0.03932,-0.01466l-0.022118,-0.046424h-0.034405l-0.034405,0.034207l0.00983,0.026877h0.041778Z M2003.295714,704.999423l0.01966,-0.053754l0.022118,-0.026877l0.046693,-0.002443l0.167111,-0.114839l0.014745,-0.053754l0.068811,-0.063528l-0.01966,-0.009774l-0.083556,0.039094l-0.017203,-0.019547l0.051608,-0.053754l-0.014745,-0.034207l0.00983,-0.078188l-0.027033,-0.009774l-0.076183,0.041537l-0.022118,0.061085l-0.071268,0.095292l-0.100758,0.034207l-0.027033,0.051311l0.024575,0.102622l-0.004915,0.114839l0.03932,-0.019547Z M2003.529179,704.254191l0.02949,-0.019547l0.017203,-0.029321h-0.024575l-0.03932,0.041537l0.017203,0.00733Z M2003.526721,704.283512l0.02949,-0.00733v-0.017104l-0.046693,0.004887l-0.012288,0.017104l0.02949,0.002443Z M2004.160762,703.601809l0.017203,0.002443l0.056523,-0.048868l0.004915,-0.017104h-0.027033l-0.051608,0.063528Z M2004.148474,703.662893l-0.090928,0.029321l-0.01966,0.058641l0.012288,0.129499l0.078641,0.029321l0.093386,-0.01466l0.054065,0.01466l0.041778,0.046424l0.022118,-0.01466l-0.014745,-0.041537l-0.034405,-0.026877l-0.012288,-0.056198l0.02949,-0.051311l0.002458,-0.083075l-0.01966,-0.034207l0.002458,-0.075745l-0.012288,0.00733l-0.024575,0.168593l-0.04915,0.043981l-0.088471,0.019547l-0.027033,-0.029321l0.014745,-0.065971l0.046693,-0.039094l-0.004915,-0.01466Z M2004.246775,703.484526l0.022118,-0.004887l-0.00983,-0.026877l-0.027033,-0.017104l-0.00983,0.017104l0.024575,0.031764Z M2004.227115,703.701987l0.012288,-0.009774l0.00983,-0.051311l-0.017203,-0.019547l-0.012288,0.019547l0.007373,0.061085Z M2004.320501,703.093585l0.02949,-0.004887l0.00983,-0.041537l-0.007373,-0.036651l-0.027033,0.00733l-0.01966,0.048868l0.014745,0.026877Z M2004.286095,703.15467l-0.007373,0.041537l0.024575,0.009774l0.01966,-0.029321l0.004915,-0.031764l-0.031948,-0.026877l-0.01966,0.00733l0.00983,0.029321Z M2004.517102,702.956756l0.022118,-0.017104l-0.004915,-0.024434l-0.022118,0.004887l-0.014745,0.031764l0.01966,0.004887Z M2003.327662,704.02207l0.017203,-0.012217l-0.01966,-0.051311l-0.024575,-0.002443l-0.007373,0.02199l0.034405,0.043981Z M2003.846199,703.86325h0.012288l0.01966,-0.024434l-0.007373,-0.017104l-0.017203,0.01466l-0.007373,0.026877Z M2004.219742,703.110689l0.014745,-0.02199l-0.017203,-0.019547l-0.022118,0.00733l-0.002458,0.024434l0.027033,0.009774Z M2004.239402,703.225528l-0.004915,-0.029321l-0.017203,-0.019547l-0.014745,0.024434l0.012288,0.029321l0.024575,-0.004887Z M2004.453207,703.01051l-0.002458,-0.024434l-0.01966,-0.01466l-0.012288,0.017104l0.017203,0.02199h0.017203Z "/>
</svg>
