<svg xmlns="http://www.w3.org/2000/svg" viewBox="703.765 880.049 55.372 57.824">
  <path d="M733.292852,886.012556l0.012,0.074l0.229,0.031l0.074,0.068l-0.012,0.074l-0.217,0.099l-0.074,0.13l0.074,0.21l0.087,0.006l0.161,-0.123l0.124,0.018l0.074,0.112l-0.093,0.358l0.13,0.378l0.142,0.111l0.242,0.056l0.179,0.21l-0.006,0.136l-0.099,0.192l-0.031,0.192l0.136,0.377v0.099l-0.087,0.13l-0.006,0.099l0.229,0.192l0.025,0.086l-0.087,0.211l0.037,0.136l0.093,0.025l0.142,-0.099l0.075,-0.161l0.08,-0.031l0.248,0.266l0.123,0.241l-0.037,0.062l-0.309,-0.037l-0.118,0.037l-0.173,0.291l0.08,0.062l0.248,-0.062l0.142,0.012l0.248,0.26l-0.031,0.13l-0.452,0.297l-0.006,0.056l0.179,0.018l0.136,0.111l0.044,0.118l0.111,0.074l0.173,-0.08l0.068,0.031l0.013,0.148l-0.031,0.155l-0.285,0.371v0.155l0.099,0.179l0.006,0.105l-0.074,0.149l-0.006,0.111l0.093,0.303l-0.037,0.266l-0.415,0.334l0.013,0.099l0.142,0.13l0.204,0.068l0.037,0.087l-0.037,0.142l-0.291,0.316l-0.037,0.173l-0.074,0.458l-0.26,0.284l0.012,0.223l0.285,0.186l0.025,0.136l-0.149,0.161v0.16l0.285,0.26l0.012,0.124l-0.297,0.26v0.148l0.161,0.099l0.012,0.161l-0.173,0.285l-0.173,0.061l0.025,0.087l0.284,0.124l-0.024,0.099l-0.161,0.037l-0.025,0.099l0.074,0.099l-0.21,0.619l-0.235,0.123l0.012,0.136l0.112,0.223l0.123,0.037l0.112,-0.025l0.123,0.075l0.013,0.148l0.371,0.136l0.223,-0.074l0.16,0.025l0.025,0.123l0.136,0.013l0.037,-0.124l0.112,-0.012l0.111,0.062l0.136,-0.05l0.025,-0.185l0.235,-0.075l0.223,0.099l0.173,0.013l0.074,-0.087l0.087,0.025l0.037,0.148l0.148,0.334l0.236,0.087l0.21,-0.037l0.705,0.148l0.235,0.211l0.31,0.062l0.136,-0.087l0.16,0.012l0.112,0.124l0.235,0.012l0.087,-0.198h0.16l0.112,0.087l0.334,0.025l0.21,0.099l0.631,-0.062l0.309,0.049l0.211,0.112l0.185,-0.062l0.087,0.062l-0.012,0.099l0.148,0.123h0.21l0.124,-0.111l0.037,-0.173l0.297,-0.05l0.149,0.099l0.111,-0.012l0.074,-0.198l0.112,-0.012l0.123,0.173h0.186l0.532,-0.433l0.21,-0.458l0.186,-0.223l0.297,-0.049l0.371,0.074l0.223,0.544l0.42,0.359l0.421,0.186l0.198,0.21l0.384,0.074l0.222,-0.061h0.359l0.322,0.111h0.334l0.247,-0.074l0.396,-0.013l0.186,0.136l0.124,0.322l0.235,0.26l0.185,0.025l0.121,0.123l0.009,0.307l-0.083,0.157l0.009,0.27l0.195,0.324l0.538,0.446l0.149,0.343l-0.019,0.408l-0.223,0.39l-0.083,0.52l0.055,0.519l0.158,0.297l0.009,0.149l-0.074,0.13l0.019,0.093l0.13,0.102l0.111,0.454l-0.009,0.214l0.065,0.065l0.148,-0.019l0.158,0.084l0.019,0.13l0.083,0.111l-0.018,0.121l-0.065,0.102l0.009,0.148l0.102,0.047l-0.019,0.083l-0.139,0.093l-0.028,0.223l0.167,0.241l0.13,0.093v0.176l-0.297,0.603v0.204l0.149,0.446l-0.037,0.371l0.074,0.083l0.176,0.028l0.158,0.139l0.074,0.372l0.121,0.055l0.028,0.084l-0.037,0.167l0.018,0.111l0.074,0.074l-0.009,0.158l-0.074,0.176l0.056,0.483l-0.047,0.139l0.176,0.334l0.437,0.223l0.102,-0.019l0.102,-0.148h0.13l0.399,0.269l0.139,0.009l0.195,-0.139l0.399,-0.037l0.102,-0.102h0.093l0.148,0.121l0.167,0.009l0.316,-0.176l0.176,-0.019l0.195,0.084l0.12,-0.065l0.038,-0.26l0.232,-0.139l0.204,0.009l0.315,-0.158l0.167,-0.139l0.186,-0.028l0.185,0.056l0.186,-0.065l0.019,-0.121l0.12,-0.139l0.112,-0.019l0.129,0.13l0.168,0.047h0.185l0.111,0.074l0.019,0.102l0.093,0.046l0.148,-0.009l0.371,0.176h0.158l0.149,0.112l0.111,0.297l0.343,0.278l0.158,0.028l0.121,0.102l0.065,0.186l0.13,0.13l-0.019,0.148l-0.269,0.223l-0.074,0.213l0.018,0.204l0.102,0.186v0.232l0.075,0.176l0.25,0.279l0.112,0.361l-0.047,0.232l-0.39,0.557l-0.055,0.279l-0.01,0.222l0.121,0.325l-0.028,0.483l-0.232,0.649l-0.185,0.223l-0.214,0.696l-0.028,0.232l-0.111,0.269l-0.009,0.255l-0.144,0.381l-0.014,0.134l0.028,0.088l-0.019,0.135l0.047,0.158l0.102,0.125l0.018,0.167l-0.065,0.102l-0.12,0.111l-0.149,0.348l-0.065,0.283l-0.083,0.163l-0.297,0.348l-0.144,0.125l-0.144,0.232l-0.088,0.246l-0.07,0.07v0.125l0.093,0.134l0.014,0.251l0.042,0.181l0.005,0.288l-0.019,0.232l0.093,0.19v0.074l-0.065,0.046l-0.13,-0.023l-0.125,-0.042l-0.135,0.024l-0.056,0.097l0.028,0.135l0.135,0.273l0.037,0.223l0.148,0.241l0.112,0.112v0.134l-0.195,0.474l0.004,0.208l0.075,0.158l-0.051,0.163l-0.102,0.018l-0.177,-0.032l-0.102,0.041l-0.046,0.121l0.023,0.121l0.19,0.338l0.023,0.172l-0.018,0.148l-0.144,0.172l-0.014,0.111l0.079,0.158l0.246,0.181l0.005,0.084l-0.084,0.093l-0.26,0.18l-0.037,0.075l0.009,0.074l0.177,0.144l0.004,0.106l-0.278,0.404l-0.046,0.135l-0.014,0.324l-0.116,0.2l-0.223,0.223l-0.204,0.102l-0.098,0.139l-0.069,0.162v0.079l0.134,0.2l-0.004,0.236l-0.149,0.283l-0.079,0.038h-0.069l-0.135,-0.103h-0.204l-0.311,0.112l-0.093,0.195l0.01,0.376l-0.07,0.176l-0.093,0.065l-0.343,0.014l-0.232,0.06l-0.13,0.111l-0.074,0.121l-0.088,0.074l-0.186,0.093l-0.107,0.139l-0.018,0.149l0.051,0.157l0.06,0.103v0.074l-0.079,0.074l-0.325,0.102l-0.13,-0.018l-0.204,-0.186l-0.116,-0.014l-0.134,0.065l-0.107,0.074l-0.102,0.042l-0.394,0.028l-0.283,0.171l-0.158,0.149l-0.098,0.26l-0.009,0.12l0.047,0.186l-0.038,0.093l-0.148,0.042l-0.45,-0.098l-0.088,0.019l-0.042,0.06l-0.014,0.121l0.056,0.125l-0.028,0.107l-0.079,0.046l-0.074,-0.005l-0.065,-0.041l-0.084,0.014l-0.069,0.106l0.028,0.214l0.213,0.208l0.051,0.14v0.074l-0.051,0.051l-0.079,0.009l-0.046,0.056v0.065l0.097,0.148v0.107l-0.139,0.125l-0.394,0.191l-0.098,0.023l-0.19,0.213l-0.079,0.186l-0.102,0.083l-0.26,-0.018l-0.288,-0.186l-0.199,-0.139l-0.135,-0.237l-0.116,-0.106l-0.12,-0.024l-0.362,0.075l-0.118,-0.007l-0.185,-0.105l-0.211,-0.191l-0.198,-0.025l-0.327,0.049l-0.347,0.18l-0.285,0.297l-0.148,0.117l-0.247,0.043l-0.099,0.087l-0.019,0.124l0.068,0.21l-0.068,0.198l-0.167,0.161l-0.124,0.08l-0.099,0.235l-0.018,0.174l-0.112,0.099l-0.136,0.049l-0.192,-0.031l-0.402,-0.272l-0.315,-0.464l-0.18,-0.303l-0.253,-0.136l-0.13,0.012l-0.241,0.161l-0.149,0.019l-0.111,-0.038l-0.142,0.056l-0.038,0.136l-0.046,0.124l-0.186,0.009l-0.501,-0.25l-0.315,-0.269l-0.334,-0.028l-0.455,0.278l-0.158,0.121l-0.501,0.009l-0.093,0.065h-0.12l-0.186,-0.093l-0.408,-0.065l-0.631,-0.38l-0.214,-0.019l-0.324,0.037l-0.641,-0.102l-0.436,-0.13l-0.38,-0.046l-0.279,-0.149l-0.12,-0.129l-0.223,-0.121l-0.464,-0.084l-0.371,-0.12l-0.186,-0.13l-0.371,-0.065l-0.204,0.056l-0.214,-0.01l-0.185,-0.074l-0.381,-0.009l-0.25,0.055l-0.167,-0.009l-0.223,-0.074l-0.677,-0.028l-0.409,0.074l-0.204,0.112l-0.352,-0.01l-0.325,-0.065l-0.214,0.019l-0.148,0.121l-0.26,0.083l-0.213,0.13l-0.102,-0.009l-0.028,-0.121l0.148,-0.352v-0.167l-0.334,-0.223l-0.13,-0.158l0.065,-0.315l0.26,-0.149l0.288,0.028l0.102,-0.084l0.009,-0.259l-0.074,-0.121l0.056,-0.084h0.12l0.13,0.084v0.093l0.074,0.018l0.056,-0.102l-0.037,-0.139l-0.093,-0.121l0.028,-0.092l0.121,-0.019l0.102,0.074l0.083,-0.028l0.009,-0.12l-0.129,-0.26l0.055,-0.102l0.548,-0.251l0.102,-0.148l0.13,-0.056l0.167,0.028l0.102,-0.074l-0.019,-0.158l-0.093,-0.111l0.019,-0.084l0.167,-0.028l0.121,-0.102l-0.047,-0.195l0.084,-0.055l0.13,0.028l0.074,-0.093l-0.009,-0.483l-0.065,-0.158l0.055,-0.083l0.177,0.046l0.185,0.01l0.037,-0.084l-0.102,-0.102v-0.111l0.112,-0.075l-0.028,-0.241l-0.13,-0.102l-0.028,-0.139l0.084,-0.167l-0.01,-0.102l-0.12,-0.102l0.028,-0.084l0.157,-0.028l0.084,-0.046v-0.102l-0.149,-0.111l-0.083,-0.13l0.028,-0.158l0.343,-0.167l0.074,-0.204l-0.093,-0.251l0.028,-0.158l0.13,-0.12l0.223,-0.093l0.046,-0.102l-0.074,-0.111l-0.241,-0.14l0.018,-0.065h0.14l0.083,-0.083l0.037,-0.204l0.13,-0.186l0.204,-0.065h0.223l0.52,-0.278l0.139,-0.204l0.185,-0.13l0.214,-0.028l0.074,-0.121l-0.065,-0.13l-0.158,-0.065l-0.018,-0.13l0.12,-0.129l0.195,-0.065l0.028,-0.103l-0.148,-0.176l0.018,-0.13l0.306,-0.13l0.075,-0.167l-0.149,-0.315v-0.139l0.084,-0.028l0.102,0.065l0.139,-0.01l0.241,-0.194l0.065,-0.102l-0.065,-0.065h-0.111l-0.074,-0.075l0.027,-0.204l0.14,-0.148h0.157l0.158,0.074h0.102l0.056,-0.121l-0.056,-0.269l0.065,-0.065l0.121,0.037l0.12,0.121l0.093,-0.009l0.084,-0.102l-0.009,-0.177l0.074,-0.055h0.102l0.056,-0.121l-0.075,-0.213l0.112,-0.232l0.046,-0.14l-0.074,-0.269l-0.232,-0.213l-0.269,-0.13l-0.334,-0.39l-0.075,-0.269l-0.259,-0.297l-0.085,-0.147l0.02,-0.233l-0.177,-0.177l-0.352,-0.185l-0.084,-0.149l-0.167,-0.102l-0.445,-0.046l-0.204,0.055l-0.13,-0.055l-0.056,-0.195l-0.13,-0.084l-0.186,0.075l-0.148,-0.047l-0.037,-0.111l-0.121,-0.074l-0.148,0.028l-0.102,-0.056l-0.028,-0.158l-0.149,-0.111l-0.157,-0.01l-0.158,-0.111l-0.065,-0.121l-0.084,-0.046l-0.204,0.084l-0.399,0.371l-0.111,-0.01l-0.074,-0.157l-0.344,-0.269l-0.13,-0.047l-0.065,-0.083l0.01,-0.177l-0.167,-0.139l-0.353,-0.12l-0.241,-0.158l-0.214,-0.047l-0.222,0.056l-0.353,-0.018l-0.251,-0.149l-0.083,-0.176l-0.139,-0.065l-0.409,-0.009l-0.176,-0.084l-0.176,-0.204l-0.78,-0.464h-0.204l-0.213,-0.084l-0.093,-0.12l-0.278,-0.13h-0.214l-0.288,-0.204l-0.176,-0.177l-0.473,-0.324l-0.418,-0.177l-0.176,-0.148l-0.065,-0.288l-0.13,-0.111l-0.176,-0.047l-0.232,-0.185l-0.186,-0.381l-3.637,-2.19l-0.288,-0.018l-0.603,0.204h-0.808l-0.612,-0.167l-0.093,-0.158l-0.417,-0.25l-0.242,-0.019l-0.259,0.074l-0.344,-0.111l-0.065,-0.204l-0.139,-0.102l-0.418,-0.056l-0.213,-0.121l-0.399,-0.092l-0.408,-0.01l-0.232,-0.083l-0.269,-0.288l-0.205,-0.083l-0.157,0.055l-0.232,-0.055l-0.167,-0.335l-0.307,-0.38l-0.185,-0.334l0.009,-0.297l-0.176,-0.13l-0.269,-0.26l-0.204,-0.093l-0.093,0.028l-0.204,-0.065l-0.381,-0.371l-0.352,-0.204l-0.242,-0.028l-0.408,-0.204l-0.149,0.009l-0.167,-0.092l-0.176,-0.214l0.037,-0.176l-0.074,-0.074l-0.13,0.009l-0.13,-0.093l-0.083,-0.186l-0.316,-0.204l-0.297,-0.018l-0.352,-0.251l-0.102,-0.362l-0.177,-0.157l-0.148,-0.028l-0.186,-0.112l-0.046,-0.167l-0.306,-0.241l-0.557,-0.315l-0.279,-0.325l-0.055,-0.381l-0.084,-0.083l-0.176,-0.464l-0.365,-0.412l-0.124,-0.043l-0.303,-0.365l0.006,-0.13l-0.142,-0.155l-0.093,0.007l-0.049,-0.056l0.024,-0.266l0.056,-0.111l0.019,-0.167l-0.056,-0.007l-0.074,0.075l-0.211,-0.106l-0.105,-0.204l0.112,-0.173l0.006,-0.179l-0.186,-0.186l-0.093,0.012l-0.062,-0.03l0.025,-0.205l-0.068,-0.043l-0.105,0.068l-0.142,-0.049l-0.013,-0.099l-0.068,-0.05l-0.173,0.062l-0.08,-0.006l-0.508,-0.483l-0.018,-0.105l-0.05,-0.062l-0.26,0.037l-0.129,-0.068l-0.013,-0.123l-0.105,-0.112h-0.118l-0.043,-0.043l0.013,-0.087l-0.05,-0.043l-0.13,0.025l-0.26,-0.068l-0.037,-0.081l0.05,-0.049l0.026,-0.287l-0.063,-0.072l2.499,-8.166l-0.037,-3.39l2.289,-3.254l1.212,-3.056l7.436,-1.2l4.182,-1.089l5.939,-0.062l5.545,3.294l0.482,0.357l-0.255,0.246l-0.018,0.209l0.041,0.056l0.01,0.171l-0.056,0.112l0.037,0.116l0.107,0.079l0.069,0.348l0.098,0.083l0.014,0.074l-0.037,0.065l0.014,0.14l0.157,0.287l-0.065,0.125l-0.083,0.028l-0.07,0.093l0.005,0.081z"/>
</svg>
