<svg xmlns="http://www.w3.org/2000/svg" viewBox="1452.239 574.385 5.917 11.909">
  <path d="M1457.482132,579.983713l0.018559,-0.060317l0.069597,0.00464l0.041758,0.078877l-0.032479,0.032479l-0.060317,-0.00928l-0.037118,-0.046398Z M1457.588848,579.682126l0.001547,0.051038l0.024746,0.012373l0.021652,-0.015466v-0.043305l-0.024746,-0.021652l-0.023199,0.017013Z M1457.649165,580.178585h0.046398l0.024746,-0.015466l-0.00928,-0.049491l-0.027839,-0.003093l-0.055678,0.024746v0.027839l0.021652,0.015466Z  M1452.610342,584.382244l0.32,0.501l0.455,0.896l0.455,0.311l0.649,0.204l0.379,-0.043l0.13,-0.075l0.514,-0.068l0.111,-0.055l0.214,-0.041l-0.01,-0.092l0.037,-0.044l0.003,-0.13l-0.04,-0.096l0.04,-0.154l0.099,-0.099l-0.04,-0.028l-0.077,0.028l-0.077,-0.009l-0.044,-0.069l-0.105,-0.027l-0.049,0.015l-0.198,-0.006l-0.075,-0.087l0.016,-0.086l0.105,-0.062l0.152,-0.009l0.154,-0.099l0.062,0.003l0.031,0.108l0.124,0.046l0.136,-0.009l0.046,0.053l-0.018,0.17l-0.059,0.046l-0.015,0.124l0.052,0.086l-0.003,0.069l0.043,0.006l0.093,-0.102l0.071,-0.037l0.062,-0.09l-0.003,-0.121l0.068,-0.142l0.136,-0.037l0.149,-0.118l0.062,-0.12l0.03,-0.171l0.05,-0.145l0.133,-0.161l0.053,-0.133l0.003,-0.161l0.071,-0.228l0.161,-0.307l0.176,-0.148l0.325,-0.483l0.037,-0.157l-0.043,-0.065l0.024,-0.047l0.09,-0.021l0.148,-0.168l0.031,-0.074l0.102,-0.046l-0.006,-0.05l-0.074,-0.04l-0.099,-0.012l-0.083,-0.124v-0.08l0.046,-0.084l0.015,-0.43l-0.052,-0.093l-0.003,-0.114l0.055,-0.084l-0.003,-0.176l-0.108,-0.121l-0.012,-0.086l0.077,-0.081h0.071l0.031,-0.043l-0.111,-0.272l-0.047,-0.006l-0.043,0.04h-0.043l-0.068,-0.043l-0.065,0.003l-0.059,0.046h-0.031l0.003,-0.056h-0.056l-0.074,0.031l-0.049,-0.024l0.003,-0.078l0.068,-0.04l-0.003,-0.105l-0.081,-0.034l-0.015,-0.05l0.025,-0.099l-0.081,-0.086l-0.065,0.018l-0.025,-0.031l0.056,-0.034h0.05l0.071,0.05l0.08,-0.037l0.009,-0.053l-0.102,-0.09l-0.083,-0.139v-0.068l0.077,-0.046l-0.003,-0.071l-0.13,-0.232l-0.089,-0.071l-0.096,-0.164l-0.007,-0.109l0.056,-0.142l0.031,-0.269l0.077,-0.17l0.14,-0.09l0.12,-0.04l0.05,-0.09l0.012,-0.173l-0.099,-0.049l-0.012,-0.118l-0.18,-0.068v-0.037l0.161,-0.059l0.17,0.034v0.04l-0.024,0.04l0.009,0.031l0.08,0.025l0.081,-0.049l0.083,-0.242l-0.052,-0.108l-0.047,0.003l-0.034,0.062h-0.068l-0.195,-0.148l0.006,-0.044l0.081,-0.003l0.043,0.05l0.047,0.003l0.012,-0.084l-0.04,-0.074l0.031,-0.046l0.114,-0.031l0.077,-0.158l-0.037,-0.155l-0.006,-0.281l-0.065,-0.146l0.022,-0.08l0.145,-0.097l0.023,-0.093l-0.041,-0.047l-0.17,0.039l-0.174,-0.025l-0.191,-0.17l-0.257,-0.025l-0.161,0.031l-0.189,-0.009l-0.17,-0.124l-0.022,-0.247l-0.095,-0.142l-0.115,-0.093l-0.059,-0.133l0.016,-0.248l-0.078,-0.13l-0.448,-0.321l-0.176,-0.025l-0.093,0.012l-0.05,0.078l-0.074,0.021l-0.086,-0.024l-0.127,0.04l-0.047,0.086l-0.102,0.053l-0.065,0.087l-0.021,0.117l-0.149,0.13l-0.049,0.003l-0.059,-0.028l-0.164,0.041l-0.071,0.074l-0.226,0.077l-0.031,0.077l0.031,0.099l-0.077,0.257l-0.136,0.146h-0.047l-0.052,-0.068l-0.031,0.006l-0.013,0.071l0.028,0.102l-0.006,0.291l-0.189,0.275l-0.052,0.133l0.018,0.136l0.167,0.068l0.037,0.077v0.109l-0.068,0.089l-0.021,0.081l-0.065,0.052l-0.05,-0.003l-0.025,-0.074l0.016,-0.077l-0.093,-0.139l-0.077,0.003l-0.139,0.157l-0.007,0.14l0.068,0.105l-0.006,0.086l-0.108,0.099l-0.034,0.149l0.019,0.3l0.133,0.195l0.102,0.068h0.058l0.099,-0.062l0.109,-0.006l0.028,0.037l-0.05,0.068l-0.015,0.062l0.015,0.04l-0.043,0.068l-0.05,0.003l-0.086,-0.09h-0.075l-0.052,0.081l-0.087,0.362l0.028,0.074v0.046l-0.043,0.025v0.04l0.055,0.056l-0.003,0.037l-0.037,0.025l-0.046,-0.006l-0.093,-0.214l-0.108,-0.043l-0.019,-0.056l0.019,-0.034l-0.006,-0.071l-0.038,-0.04v-0.071l0.103,-0.18l0.018,-0.133l-0.046,-0.071l-0.124,-0.055l-0.071,0.012l-0.056,0.08l-0.071,0.037l-0.155,0.05l-0.049,0.062l0.003,0.056l0.028,0.034h0.055l0.034,-0.034l0.059,0.003l0.047,0.089l0.012,0.238l-0.068,0.099l0.006,0.081l0.081,0.121l0.03,0.114l-0.009,0.056l0.025,0.062l0.031,0.018l0.003,0.034l-0.071,0.034l-0.059,-0.012l-0.053,-0.102l-0.055,-0.226l-0.081,-0.108l-0.102,-0.007l-0.161,0.124l0.004,0.062l0.043,0.043l-0.003,0.149l-0.087,0.201v0.164l0.04,0.077l-0.003,0.405l0.053,0.121l-0.028,0.455l0.009,0.55l0.059,0.251l0.003,0.185l-0.021,0.068l0.003,0.106l0.089,0.074l0.143,0.213l0.024,0.164l-0.003,0.081l-0.071,0.148l0.006,0.207l0.121,0.152l0.04,0.121l0.053,0.077l0.13,0.096l0.058,0.158l0.01,0.25l-0.044,0.13l-0.006,0.127l0.081,0.136l-0.019,0.158l-0.083,0.161l-0.273,0.123z"/>
</svg>
