<svg xmlns="http://www.w3.org/2000/svg" viewBox="1481.751 890.703 4.123 3.622">
  <path d="M1482.25565,893.209918l-0.062856,-0.209709l0.031428,-0.252884l-0.032999,-0.070931l-0.065998,-0.02313l-0.023571,-0.050885l0.009428,-0.078641l-0.155568,-0.194289l-0.146139,-0.111022l-0.037713,-0.1249l0.009428,-0.115648l-0.028285,-0.087893l0.023571,-0.064763l0.075427,-0.083267l0.05657,-0.009252l0.075427,-0.004626l0.141425,-0.092518l0.051856,-0.078641l0.014143,-0.111022l-0.037713,-0.120274l-0.004714,-0.064763l0.032999,-0.083267l0.004714,-0.10177l0.047142,-0.018504l0.108426,0.046259l0.197995,-0.027756l0.089569,-0.055511l0.311136,-0.254426l0.207424,-0.046259l0.103712,0.013878l0.032999,-0.027756h0.042428l0.089569,0.069389l0.131997,0.02313l0.108426,-0.02313l0.292279,0.087893l0.080141,-0.027756l0.150854,0.041633l0.070713,-0.009252l0.174425,0.097144l0.160282,0.027756l0.164996,0.097144l0.20271,0.263678l0.028285,0.14803v0.208167l0.037713,0.074015l0.061284,0.027756l0.094284,0.143404l0.004714,0.069389l0.094284,0.134152l0.089569,0.087893l0.094284,0.1249l0.037713,0.074015l0.047142,0.032381l0.084855,0.009252l0.179139,0.129526l0.05657,0.129526l0.014143,0.138778l-0.037713,0.027756l-0.039285,-0.001542l-0.012571,0.043175l0.015714,0.040091l-0.028285,0.064763l-0.040856,0.018504l-0.053427,0.163449l-0.034571,0.185037l0.006286,0.11719l0.037713,0.070931l-0.003143,0.033923l-0.025142,0.027756l0.006286,0.191205l0.021999,0.049343l-0.015714,0.058595l-0.05657,0.077099l-0.047142,0.018504l-0.084855,0.086351l-0.072284,0.003084l-0.037713,-0.018504l-0.047142,0.006168l-0.040856,0.030839l-0.100569,0.003084l-0.047142,0.012336l-0.072284,0.037007l-0.109997,0.006168l-0.094284,-0.01542l-0.050285,0.01542l-0.015714,0.037007l-0.05657,0.012336l-0.059713,-0.006168l-0.050285,0.049343l-0.040856,-0.006168l-0.028285,-0.040091l-0.062856,-0.009252l-0.109997,0.046259l-0.07857,-0.027756l-0.081712,-0.083267l-0.043999,-0.006168l-0.065998,0.030839l-0.157139,-0.030839l-0.087998,-0.055511l-0.22628,-0.095602l-0.081712,0.009252l-0.050285,-0.018504l-0.025142,-0.027756l-0.037713,-0.009252h-0.062856l-0.050285,-0.033923l-0.025142,-0.052427l-0.037713,-0.024672l-0.141425,-0.018504l-0.097426,-0.086351l-0.028285,-0.061679l-0.091141,-0.074015l-0.119426,-0.049343l-0.223138,-0.037007l-0.053427,-0.055511v-0.074015l-0.091141,-0.107938l-0.175996,-0.120274Z "/>
</svg>
