<svg xmlns="http://www.w3.org/2000/svg" viewBox="1250.890 405.292 62.443 37.966">
  <path d="M1303.487167,428.475681l0.306,0.092l0.121,0.084l0.009,0.139l0.022,0.294l0.124,0.124l0.173,0.334l0.148,0.136l1.3,0.52l0.222,0.074l0.26,-0.013l0.223,0.038l0.284,0.136l0.161,0.012l0.087,-0.074l0.346,-0.05v-0.123l-0.198,-0.174l0.013,-0.099l0.235,-0.049l0.049,-0.136l-0.124,-0.074l0.013,-0.112l0.247,0.013l0.136,0.086l0.223,0.037l0.26,0.273l0.173,0.012l0.074,-0.099l0.013,-0.173l0.124,-0.136l0.284,-0.118l0.161,-0.105l0.297,-0.118l0.179,-0.037l0.353,-0.161l0.099,-0.086l0.216,-0.099l0.13,-0.087l0.155,-0.018l0.186,0.031l0.099,-0.025l0.086,-0.105l0.173,0.012l0.106,0.062l0.284,0.006l0.124,-0.049l0.105,0.018l0.068,0.05l0.272,0.099l0.501,0.136l0.266,0.173l0.304,0.34l0.167,0.279l0.043,0.253l-0.025,0.105l-0.074,0.044v0.111l0.056,0.198l0.091,0.147l-0.051,0.009l-0.13,-0.06l-0.13,-0.037l-0.046,0.083l0.092,0.279l0.121,0.046l0.084,-0.046l0.167,0.037l0.009,0.065l-0.13,0.102l-0.139,0.269l-0.112,0.371l-0.027,0.603l-0.084,0.78l-0.102,0.334l-0.158,0.167l-0.26,0.065l-0.482,0.018l-0.789,0.084l-0.872,0.13l-0.678,0.213l-0.491,0.334l-0.427,0.446l-0.316,0.417l-0.204,0.353l-0.26,0.455l-0.38,0.464l-0.563,0.553l-0.149,0.198l-0.049,0.161l-0.081,0.056l-0.13,0.006l-0.173,0.105l-0.086,0.279l-0.007,0.278l0.087,0.241l0.124,0.155l0.031,0.167l-0.044,0.303l-0.061,0.099v0.161l0.049,0.086l0.124,0.019v0.062l-0.118,0.049l-0.049,0.05l0.006,0.21l0.13,0.353l-0.013,0.21l-0.117,0.161l-0.043,0.111l0.012,0.149l-0.068,0.117l-0.118,0.118l-0.049,0.161l0.025,0.161l-0.031,0.099l-0.087,0.08l-0.056,0.204v0.155l-0.044,0.199l0.007,0.191l-0.872,0.046l-0.64,-0.149l-0.743,-0.046l-1.457,-0.622l-0.139,-0.037l-0.13,-0.436l-0.157,-0.371l-0.056,-0.316l-0.186,-0.194l-0.491,0.315l-0.539,0.065l-0.176,0.046l-0.167,-0.065l-0.232,-0.547l-0.186,-0.139l-0.213,0.278l-0.965,-0.083l-0.462,0.065l-0.206,-0.26l-0.223,-0.13l-0.232,-0.093l-0.083,-0.121v-0.12l-0.075,-0.093l-0.102,-0.037l-0.158,0.046h-0.297l-0.343,-0.167l-0.278,-0.009l-0.139,-0.056l-0.325,0.019l-0.214,0.074l-0.538,0.028l-0.473,0.158l-0.51,0.259l-0.177,0.028l-0.102,-0.009h-0.176l-0.26,0.121l-0.418,0.083l-0.287,-0.046l-0.223,0.028l-0.297,0.12l-0.288,0.01l-0.287,-0.038l-0.492,0.112l-0.214,0.13l-0.538,0.195l-0.352,0.018l-0.242,0.111l-0.148,0.158l-0.139,0.26l-0.177,0.158l-0.362,0.185l-0.38,0.279l-0.334,0.501l-0.167,0.139l-0.186,0.046l-0.148,0.121l-0.102,0.214l-0.371,0.157l-0.27,-0.018l-0.306,0.074l-0.454,0.297l-0.167,0.028l-0.177,-0.047l-0.241,0.01l-0.213,0.139l-0.232,0.074l-0.316,-0.074l-0.39,-0.232l-0.232,-0.195l-0.38,-0.111h-0.279l-0.278,0.074l-0.26,-0.047l-0.278,-0.139l-0.167,-0.139l-0.241,-0.028l-0.279,0.037l-0.223,0.14l-0.241,0.009l-0.167,-0.056l-0.241,0.009l-0.269,0.177l-0.204,0.018l-0.167,-0.046l-0.557,-0.408l-0.501,-0.14l-0.334,-0.009l-0.195,0.093l-0.381,0.102l-0.157,0.084l-0.112,0.157l-0.195,0.065l-0.241,-0.009l-0.659,0.139l-0.306,-0.028l-0.455,-0.12l-0.26,-0.167l-0.491,-0.158l-0.464,-0.019l-0.307,-0.083l-0.315,-0.149l-0.278,-0.074l-0.149,-0.13l-0.399,-0.028l-0.408,0.093l-0.167,-0.009l-0.427,-0.223l-0.232,-0.102l-0.269,-0.037l-0.112,-0.065l-0.167,-0.028l-0.324,0.028l-0.177,-0.028l-0.529,0.028l-0.334,0.093l-0.557,0.25l-0.501,0.056l-0.491,-0.083l-0.232,-0.112l-0.446,-0.083l-0.232,-0.251l0.009,-0.213l0.102,-0.177l0.121,-0.473l0.102,-0.139l0.214,-0.074l0.38,-0.028l0.223,-0.084l0.204,-0.306l0.009,-0.139l-0.093,-0.13l-0.287,-0.093l-0.186,0.009l-0.232,-0.046l-0.501,-0.325l-0.241,-0.065l-0.418,-0.324l-0.148,-0.075l-0.121,0.01l-0.121,-0.047l-0.114,-0.074l-0.012,-0.124l0.062,-0.099l0.018,-0.142l-0.043,-0.149l-0.161,-0.08h-0.149l-0.266,-0.049l-0.191,-0.069l-0.279,-0.303l-0.099,-0.259l-0.031,-0.248l-0.031,-0.117l-0.167,-0.143l-0.092,-0.179v-0.118l0.099,-0.037l0.191,0.037l0.149,-0.006l0.198,-0.155l0.08,-0.284l0.099,-0.111l0.136,-0.038l0.186,0.025l0.377,0.217l0.167,0.012l0.273,-0.124l0.074,-0.08l-0.056,-0.13l-0.322,-0.334l-0.297,-0.111l-0.167,0.012l-0.185,-0.025l-0.192,-0.124l-0.619,-0.587l-0.204,-0.062l-0.192,0.049l-0.148,0.161l-0.21,0.112l-0.273,0.012l-0.16,0.13l-0.056,0.142l-0.08,0.081l-0.056,0.006l-0.05,0.074l0.019,0.08l-0.136,0.26l-0.217,0.266l-0.247,0.501l-0.105,0.044l-0.136,0.006l-0.192,-0.05l-0.235,-0.179v-0.08l-0.105,-0.112l-0.149,-0.074l-0.087,-0.223l-0.024,-0.235l-0.099,-0.074l-0.087,-0.198l-0.124,-0.043l-0.117,-0.007l-0.279,-0.105l-0.111,0.013l-0.142,-0.025l-0.093,-0.037l-0.204,-0.019l-0.161,0.019l-0.353,-0.037l-0.16,0.031h-0.124l-0.118,-0.062l-0.173,-0.006l-0.161,0.037l-0.142,-0.044l-0.087,-0.216l0.013,-0.235l-0.105,-0.223l-0.124,-0.111l-0.316,-0.093l-0.823,-0.012l-0.123,-0.093l-0.025,-0.173l-0.173,-0.161l0.031,-0.229l0.08,-0.081l0.223,-0.012l0.099,-0.043h0.179l0.093,0.024l0.198,-0.012l0.105,-0.08l0.297,-0.068l0.031,-0.075l-0.043,-0.229l-0.13,-0.08l-0.118,-0.006l-0.321,-0.18l-0.223,-0.018l-0.161,-0.124l-0.025,-0.105l-0.136,-0.062l-0.154,-0.148l0.012,-0.068h0.142l0.068,-0.019l0.056,-0.056l0.093,-0.018l0.049,0.018l0.18,-0.037l0.018,-0.043l-0.037,-0.05l0.012,-0.08l0.174,-0.247l-0.025,-0.161l0.062,-0.105l0.213,-0.078l0.056,-0.093l-0.009,-0.12l-0.093,-0.074l-0.065,-0.01l-0.084,-0.055l-0.028,-0.075l-0.352,-0.167l-0.121,-0.12l-0.083,-0.019l-0.075,0.037l-0.194,-0.028l-0.149,-0.111l-0.26,-0.037l-0.074,0.056l-0.102,0.009l-0.269,-0.121l-0.139,-0.111v-0.121l-0.102,-0.111l-0.065,-0.223l-0.102,-0.037l-0.158,0.149l-0.232,0.065l-0.074,-0.028l-0.028,-0.075l-0.074,-0.037l-0.075,0.019l-0.065,-0.056l0.037,-0.065l-0.074,-0.046l-0.176,0.056l-0.121,-0.065l-0.464,-0.437l-0.12,-0.213l-0.288,-0.084l-0.056,-0.102l0.084,-0.065l-0.074,-0.148l-0.279,-0.111h-0.278l-0.074,-0.075l0.027,-0.12l0.316,-0.204l0.018,-0.14l-0.167,-0.287l-0.129,-0.019l-0.084,-0.065v-0.158l0.176,-0.352l0.056,-0.668l0.102,-0.242l-0.028,-0.092l-0.12,-0.056l-0.121,0.037l-0.028,0.121l-0.093,0.074l-0.25,0.028l-0.167,-0.056l-0.26,-0.371l-0.009,-0.158l-0.065,-0.139l-0.446,-0.306l-0.018,-0.195l-0.084,-0.065l-0.269,0.139l-0.13,-0.065l-0.176,-0.417l-0.269,-0.149l-0.232,-0.009l-0.297,-0.223l-0.028,-0.241l-0.121,-0.223l-0.362,-0.315l-0.055,-0.093l0.065,-0.056l-0.019,-0.065h-0.093l-0.065,-0.05l0.185,-0.221l0.099,-0.055l0.025,0.061l0.291,-0.158l0.068,0.103l0.223,0.013l0.26,0.097l0.142,-0.006l0.192,-0.195l0.013,-0.122l0.068,-0.043l0.278,0.079l0.248,0.202l0.167,0.061l0.149,0.14l0.08,-0.012l0.05,-0.122l0.111,-0.037h0.136l0.23,-0.323l0.031,-0.128h0.204l-0.068,-0.36l0.167,-0.208l0.117,0.019l0.527,-0.104l0.117,0.116l0.155,0.049l0.056,-0.025l0.043,-0.067h0.105l0.056,0.104l0.248,0.03l0.155,-0.036l0.08,0.024l0.043,0.086l0.143,0.061l0.08,-0.025l0.18,-0.122l0.142,-0.323l0.149,-0.025l0.049,0.049h0.143l0.055,-0.067l-0.037,-0.104l0.037,-0.134l0.075,-0.043l0.049,-0.079v-0.183l0.056,-0.226l0.142,-0.085l0.347,0.067l0.087,-0.031v-0.085l0.142,-0.262l-0.111,-0.202l-0.18,-0.049l-0.062,-0.17l0.087,-0.306l0.099,-0.061l0.179,-0.244l-0.006,-0.073l-0.074,-0.012l-0.025,-0.061l0.062,-0.147l0.118,-0.158l0.26,-0.031l0.223,0.092l0.062,-0.025l0.018,-0.103l0.081,-0.073l0.167,-0.08v-0.073l-0.087,-0.018l-0.08,-0.153l0.055,-0.067l0.118,0.043l0.105,-0.037l0.105,0.061l0.112,-0.037l0.142,-0.219l-0.006,-0.171l-0.241,-0.183l0.031,-0.116l0.111,-0.055l0.081,-0.244l-0.013,-0.183l0.105,-0.104l0.378,-0.11l0.068,-0.048l-0.006,-0.086l0.056,-0.067l-0.006,-0.146l-0.056,-0.019l-0.037,-0.128l0.08,-0.085l0.198,-0.031l0.13,-0.158h0.099l0.05,-0.098l-0.074,-0.043l0.03,-0.177l0.062,-0.061l-0.012,-0.128l-0.124,-0.061l-0.074,-0.085l0.012,-0.074l0.242,-0.079l0.148,-0.159l0.007,-0.109l0.061,-0.122l0.372,-0.074l0.08,-0.085l0.143,-0.415l0.278,-0.165l0.007,-0.219l-0.062,-0.055l-0.013,-0.08l0.136,-0.219l0.124,-0.074l0.025,-0.067l-0.049,-0.073l0.099,-0.287l0.266,-0.427l0.155,-0.104l0.154,-0.006l0.081,0.049h0.111l0.136,-0.305l-0.037,-0.274l-0.074,-0.068l-0.08,-0.189l0.074,-0.293l0.173,-0.219l0.105,0.079l0.062,-0.073l-0.068,-0.086l0.124,-0.103l0.118,-0.006l0.173,-0.184l0.012,-0.085l0.062,-0.049l0.167,0.061l0.106,-0.006l0.086,-0.134l0.075,-0.342l0.074,-0.036l0.068,-0.068l0.019,-0.164l0.055,-0.08l0.099,-0.006l0.081,-0.049l0.018,-0.213l0.069,-0.061l0.111,-0.006l0.167,-0.134v-0.116l0.062,-0.043l0.204,0.152l0.378,0.043l0.093,-0.043l0.155,-0.445l0.204,-0.055l0.378,0.195l0.105,0.098h0.384l0.34,-0.085l0.174,-0.116l0.086,-0.208l0.136,-0.116l0.137,0.012l0.154,-0.054l0.044,-0.08l-0.087,-0.274l0.019,-0.061l0.241,-0.006l0.13,-0.08l0.204,-0.061l0.168,-0.25l0.111,-0.147l0.121,-0.097h0.167l0.13,-0.047l-0.005,-0.037l-0.041,-0.037l0.004,-0.139l-0.051,-0.079l-0.065,-0.014l-0.055,-0.046v-0.061l0.065,-0.032l0.106,0.009l0.033,0.046l0.083,0.014l0.107,-0.023l0.088,0.037l0.037,0.084l0.088,0.046h0.098l0.069,-0.088l0.144,-0.009l0.051,-0.042l0.061,-0.009l0.083,0.023l0.065,-0.06l-0.009,-0.075l0.097,-0.083v-0.037l-0.051,-0.047l0.01,-0.046l0.041,-0.037v-0.098l0.037,-0.083l0.065,-0.033l0.005,-0.041l-0.06,-0.019v-0.037l0.079,-0.046l0.074,-0.01l0.051,-0.041l0.018,-0.084l0.116,-0.074l0.07,0.004l0.065,0.079l-0.009,0.056l0.051,0.051l0.329,0.028l0.116,-0.06l0.06,0.018l0.019,0.098l0.102,0.069l0.009,0.07l-0.074,0.088l0.046,0.102l0.098,0.046l0.06,-0.023l0.065,0.009l0.037,0.042l0.084,0.009l0.014,0.038l-0.056,0.032l-0.005,0.06l0.061,0.033h0.069l0.149,0.065l0.018,0.051l0.047,0.014l0.06,-0.009l0.084,0.037l0.055,0.088l0.061,0.009l0.065,-0.023l0.046,0.014l0.019,0.051l0.083,0.069l0.186,0.014l0.088,0.047l0.083,-0.028l0.005,-0.084l0.13,-0.167l0.005,-0.148l0.041,-0.005l0.116,0.098l0.093,0.037l0.311,-0.028l0.181,0.032l0.079,0.098l0.088,0.06h0.083l0.195,-0.065h0.181l0.112,-0.037h0.176l0.111,0.07l0.167,0.041l0.033,0.061l0.074,0.079l0.005,0.102l0.153,0.167h0.088l0.06,-0.065l0.19,-0.037h0.186l0.084,-0.037l0.014,-0.079l0.041,-0.037h0.126l0.037,0.046l0.069,-0.005l0.084,-0.051l0.051,-0.004l0.069,0.065l0.061,0.074h0.06l0.056,-0.028l0.106,0.009l0.065,0.056l0.14,0.065l0.041,0.116l0.093,0.079h0.209l0.07,-0.028l0.083,-0.009l0.084,0.041l0.116,-0.004l0.143,0.139h0.098l0.158,-0.07h0.157l0.237,-0.139l0.083,0.009l0.103,0.056h0.069l0.167,-0.097l0.009,-0.075l0.042,-0.111l0.093,-0.074l0.107,-0.033l0.074,-0.06h0.051l0.07,0.042l0.157,-0.005l0.167,0.098l0.107,-0.01l0.06,-0.065l0.07,-0.004l0.046,0.018h0.075l0.088,-0.06l0.093,0.005l0.097,0.074l0.019,0.088l0.051,0.009l0.088,-0.037l0.069,0.023l0.056,0.172l0.074,0.06l0.056,0.089l0.059,0.015l0.052,0.074l0.007,0.065l-0.038,0.124l0.047,0.108l0.182,0.099l0.022,0.099l0.074,0.022l0.068,-0.028l0.074,0.003l0.072,0.077h0.055l0.034,-0.049l0.099,0.012l0.031,0.081l0.044,0.034l0.089,-0.013l0.17,0.016l0.013,0.046l-0.044,0.068l0.004,0.047l0.083,0.058l0.012,0.137l0.078,0.021l0.046,0.04l0.009,0.059l0.155,0.127l0.028,0.096l-0.006,0.077l0.028,0.034l0.597,-0.04l0.108,0.037l0.043,-0.009l0.037,-0.04l0.062,-0.007l0.136,0.056l0.044,-0.003l0.08,-0.164l0.065,0.04l0.328,-0.114l0.025,-0.127l0.204,-0.186l0.051,0.019l0.074,-0.005l0.028,-0.06l-0.019,-0.06l0.019,-0.047l0.051,-0.046l0.028,-0.097l0.102,-0.089l0.051,-0.116l0.083,-0.041l0.051,-0.056l-0.004,-0.172l0.06,-0.083l0.102,-0.014l0.056,0.023l0.079,-0.005l0.278,-0.176l0.261,-0.011l1.219,-0.179l0.381,-0.009l0.263,-0.096h0.21l0.102,0.015l0.124,0.003l0.086,0.037l0.071,-0.003l0.059,-0.024l0.056,0.003l0.043,0.031l0.142,0.003l0.133,-0.019l0.22,-0.102l0.08,-0.09l0.152,-0.031l0.102,0.003l0.105,0.053l0.099,-0.003l0.071,-0.034l0.034,-0.074l0.05,-0.016l0.121,0.019l0.071,0.031l0.086,-0.003l0.579,-0.124l0.139,0.003l0.179,0.059l0.09,-0.013l0.062,-0.04l0.059,-0.003l0.071,0.012l0.176,-0.046l0.136,-0.062l0.081,-0.102l0.068,-0.315l0.052,-0.078l0.341,-0.188l0.037,-0.078l0.083,-0.266l0.087,-0.145l0.219,-0.17l0.004,-0.059l-0.028,-0.037l0.003,-0.068l0.071,-0.071l0.117,-0.01l0.069,-0.074l0.068,0.003l0.037,0.053l0.058,0.006l0.164,-0.087l0.099,0.022l0.031,-0.022l-0.003,-0.055l0.17,-0.087l0.214,-0.028l0.185,0.05l0.124,-0.016l0.028,-0.062l0.053,-0.021l0.086,0.028l0.034,-0.031l-0.006,-0.096l0.062,-0.059l0.13,0.015l0.151,-0.052l0.022,-0.071l0.036,-0.037l0.112,0.037l0.025,-0.056l0.056,-0.031l0.049,0.031l-0.037,0.087l0.056,0.037l0.087,-0.025l0.055,-0.093h0.068l0.05,0.093l0.086,0.012l0.05,-0.068l0.062,0.019l0.024,0.074l0.217,0.019l0.08,-0.056l0.136,0.006l0.087,0.068l0.012,0.093l0.062,0.019l0.075,-0.044l0.086,0.025l0.006,0.087l0.106,0.092l0.191,0.05v0.062l-0.062,0.006l-0.018,0.062l0.124,0.08l0.074,-0.031l-0.037,-0.086l0.037,-0.056l0.117,0.019l0.056,0.099l-0.099,0.148l0.068,0.05l0.241,0.012l0.062,0.099l-0.049,0.031l-0.124,-0.062l-0.087,0.025v0.105l0.087,0.049l0.105,-0.006l0.149,0.056l0.062,-0.08l0.092,-0.007l0.081,0.075v0.167l-0.062,0.154l0.074,0.05l0.05,0.111l0.179,0.111l0.074,0.149l0.087,0.025l0.037,0.062l-0.062,0.117l0.05,0.037l0.111,-0.055l0.05,0.061l-0.031,0.075l0.049,0.055l0.204,-0.018l0.025,0.062l-0.136,0.148l-0.013,0.068l0.081,0.05l0.161,0.043l-0.013,0.093l-0.055,0.093l-0.155,0.086l0.012,0.043l0.167,-0.049l0.211,0.111l0.037,0.13l-0.043,0.124l0.043,0.117l-0.05,0.05l-0.006,0.074l0.062,0.05l0.074,-0.025l0.093,0.012l0.062,0.056l-0.012,0.056l-0.143,0.006l-0.018,0.074l0.117,0.025l0.031,0.056l-0.055,0.037l0.012,0.074l0.136,0.068l0.087,0.192l0.086,0.031l0.05,0.117l-0.031,0.081l0.055,0.074l-0.043,0.043l-0.148,-0.031l-0.05,0.074l0.136,0.137l0.007,0.105l0.111,0.086l0.018,0.13l0.068,0.025l0.056,0.056l0.025,0.117l0.111,0.105l0.112,0.031l0.08,0.081l0.05,0.117l0.173,0.13l0.142,0.006l0.037,0.062l-0.043,0.068l0.049,0.118l0.118,0.093l0.08,0.136l-0.006,0.111l0.062,0.124l0.148,0.13l0.229,0.037l0.056,-0.062l0.105,0.025l0.155,0.173l0.006,0.08l-0.093,0.093v0.124l0.136,0.049l0.05,0.143l-0.093,0.105l0.019,0.13l0.099,0.012l0.092,0.087l0.037,0.192l-0.08,0.068l0.025,0.061l0.111,-0.006l0.087,0.081l0.025,0.092l0.086,0.013l0.05,-0.037l0.142,0.024l0.062,0.124h0.068l0.08,-0.055h0.087l0.13,0.061l0.093,0.211l-0.038,0.093l0.013,0.105l0.136,0.055l0.136,0.279l0.05,0.185l0.061,0.093l-0.024,0.099l-0.099,0.025l-0.019,0.068l0.186,0.049l0.123,-0.018l0.118,0.031l-0.012,0.062l-0.099,0.024l0.012,0.068l0.124,0.013l0.198,0.117l0.117,0.198l0.303,0.143l0.013,0.08l0.074,0.05l0.087,0.006l0.228,0.136l0.13,-0.031l0.136,0.006l0.019,0.068l-0.062,0.031l-0.006,0.08l0.241,0.106l0.087,0.111l-0.062,0.062v0.08l0.074,0.05l0.013,0.093l-0.056,0.037l0.006,0.062l0.118,0.03l0.031,0.099l-0.124,0.087l-0.006,0.068l0.154,0.062l0.007,0.093l-0.093,0.031v0.055l0.13,0.075l0.006,0.099l-0.062,0.037v0.117l0.13,0.198l0.204,0.136l0.087,0.136l0.006,0.18l0.173,0.322l0.012,0.129l0.068,0.087l0.099,0.05l0.044,0.105l-0.013,0.13l0.025,0.179l0.081,0.068l-0.062,0.254l-0.087,0.074l-0.025,0.068l0.05,0.08l-0.013,0.075l-0.08,0.043l-0.006,0.087l0.074,0.055l-0.006,0.081l-0.081,0.055l-0.018,0.112l0.074,0.055l0.043,0.13l0.118,0.044l0.031,0.111l-0.068,0.056l0.018,0.068l0.093,0.08l-0.049,0.149l-0.093,0.024l-0.031,0.056l0.031,0.093l-0.037,0.062l-0.105,0.062l-0.174,0.284v0.173l0.087,0.106l-0.142,0.21l-0.105,0.068l-0.167,0.012l-0.038,0.136l0.068,0.087l-0.03,0.056l-0.13,0.018l-0.059,0.078l0.009,0.213l0.167,0.176v0.158l-0.158,0.613l-0.12,0.12l-0.037,0.139l0.046,0.112l-0.028,0.362l0.149,0.399l0.037,0.269l-0.093,0.13v0.139l0.074,0.083l0.01,0.112l-0.078,0.071l-0.034,0.151l0.084,0.14l-0.016,0.137l0.038,0.124l0.139,0.079l0.043,0.077l0.012,0.136l0.112,0.167l0.021,0.164l-0.04,0.164l0.034,0.303l-0.053,0.136l-0.151,0.146h-0.204l-0.13,0.12v0.112l0.195,0.158l0.167,0.009l0.083,0.046l0.019,0.214l-0.028,0.185l0.028,0.158l0.139,0.223l0.204,0.065z"/>
</svg>
