<svg xmlns="http://www.w3.org/2000/svg" viewBox="1241.371 422.614 27.726 31.789">
  <path fill-rule="evenodd" d="M1251.547587,449.754069l0.085,0.018l0.123,-0.074l0.161,-0.031l0.149,0.074l0.105,-0.006l0.198,-0.204l0.216,-0.142l0.198,-0.062l0.019,-0.087l-0.173,-0.049l-0.112,-0.155v-0.086l0.068,-0.106l0.025,-0.099l0.087,-0.111l0.074,-0.012l0.093,0.062l0.086,-0.019l0.044,-0.155l0.136,-0.241l0.13,-0.018l0.105,0.055l0.093,-0.012l0.037,-0.118l0.124,-0.185l0.031,-0.204l-0.075,-0.093l0.019,-0.062l0.167,-0.037l0.025,-0.124l-0.013,-0.142l-0.142,-0.155l-0.068,-0.167l-0.291,-0.148l-0.012,-0.124l-0.105,-0.099l0.049,-0.05l0.105,0.019l0.05,-0.031l0.216,0.006l0.192,-0.043l0.229,-0.21l0.087,-0.025l0.099,0.012l0.179,-0.006l0.111,-0.08l0.087,-0.112h0.117l0.177,0.112l0.195,0.278l-0.037,0.111l-0.14,0.01l-0.092,0.139l0.009,0.093l0.64,0.324l0.176,0.037l0.167,-0.064l0.186,0.055l0.167,0.167l0.093,0.01l0.083,-0.056l0.084,-0.121l0.074,-0.028l0.149,0.177l0.102,0.009l0.083,0.074l-0.018,0.241l0.148,0.539l0.102,0.046l0.112,-0.148l0.102,-0.028l0.12,0.074l0.065,0.251l-0.028,0.324l0.214,0.325l0.102,0.037l0.185,-0.055l0.223,0.083l0.093,0.149l0.241,0.046l0.195,-0.028l0.102,0.102l-0.102,0.158l-0.102,0.529l-0.093,0.176l0.037,0.065l0.288,-0.009l0.065,0.065l0.084,0.009l0.074,-0.056l0.39,0.158l0.176,-0.065l0.185,0.102l0.038,0.112l0.111,0.074l0.102,-0.028l0.083,0.037l-0.009,0.093l0.13,0.121l0.074,-0.01l0.037,-0.111l0.121,-0.056l0.278,-0.046l0.149,0.056l0.158,0.297l-0.047,0.12l-0.148,0.084l-0.102,0.222l0.037,0.297l-0.084,0.112l-0.139,0.018l-0.083,0.112l0.009,0.12l-0.093,0.158l-0.278,0.241l-0.112,0.167l0.075,0.158l-0.01,0.204l-0.148,0.195h-0.158l-0.167,0.084l-0.167,-0.028l-0.093,0.074l-0.018,0.269l0.12,0.111h0.102l0.065,0.047l0.01,0.12l0.12,0.121v0.158l0.121,0.037l0.121,-0.009l0.482,0.139l0.111,-0.019l0.047,-0.111l0.093,-0.056l0.102,0.019l0.13,-0.047l0.213,-0.241l0.102,0.009l0.102,-0.064l0.01,-0.121l0.074,-0.037h0.102l0.269,0.176l0.121,-0.018l0.083,-0.093l0.046,-0.223h0.093l0.075,0.084l0.194,0.074l0.177,0.195l0.102,0.009l0.055,-0.074h0.075l0.111,0.046l0.408,-0.083l0.047,-0.075h0.074l0.093,0.056l0.083,-0.037l0.019,-0.121l0.074,-0.046l0.186,0.028l0.12,-0.037l0.121,-0.186l0.186,-0.065l0.102,0.019v0.194l0.259,0.195l0.13,0.075l0.075,-0.112l0.25,-0.046l0.158,0.037l0.121,-0.019l0.083,-0.148v-0.176l0.139,-0.205l0.186,-0.027l0.083,-0.084l0.14,-0.399l0.064,-0.121l0.019,-0.139l-0.167,-0.241l-0.418,-0.334l-0.139,-0.037l-0.055,-0.102l0.148,-0.529l0.084,-0.158v-0.093l-0.075,-0.037v-0.083l0.093,-0.186l0.111,-0.093l0.019,-0.139l-0.195,-0.223l-0.195,-0.362l0.065,-0.12l0.167,-0.028l0.251,-0.176l0.083,-0.158l0.121,-0.028l0.158,0.111l0.074,-0.027l-0.009,-0.075l0.111,-0.13l0.158,-0.018l0.13,0.093l0.13,0.027l0.148,0.103h0.074l0.065,-0.112l0.177,-0.037l0.194,-0.093l0.14,-0.222l-0.028,-0.232l0.148,-0.288l0.371,-0.158l0.307,-0.223l0.12,-0.352l0.112,-0.093l0.13,-0.019l0.167,-0.148l0.111,-0.204v-0.279l0.065,-0.092l-0.009,-0.093l-0.158,-0.074l-0.186,0.009l-0.12,-0.028l-0.242,-0.186l-0.148,-0.259l-0.186,-0.195l-0.102,-0.371l-0.102,-0.121l-0.139,-0.065l-0.158,-0.149l-0.074,-0.129l-0.278,-0.13h-0.269l-0.112,-0.065l0.009,-0.13l-0.129,-0.093l-0.158,0.009l-0.214,-0.093l-0.037,-0.111l-0.102,-0.056h-0.093l-0.12,-0.092l-0.177,-0.307l-0.139,-0.473v-0.492l-0.065,-0.157l-0.334,-0.177l-0.158,-0.176l-0.046,-0.445l-0.13,-0.13l-0.136,-0.279l0.012,-0.105l0.068,-0.068l0.062,-0.136l0.081,-0.514l-0.044,-0.08l0.031,-0.062l0.112,-0.056l0.055,-0.266l-0.043,-0.117l0.043,-0.155l0.18,-0.08l0.464,-0.006l0.148,-0.031l0.044,-0.093l-0.062,-0.087l0.012,-0.068l0.099,-0.043l0.105,0.031l0.068,-0.006l0.068,-0.062l0.149,-0.013l0.062,-0.092l0.012,-0.143l-0.043,-0.117l0.031,-0.285l0.062,-0.049l0.012,-0.056l-0.081,-0.068l0.019,-0.056l0.087,-0.037l0.055,-0.142l0.124,-0.111l0.099,-0.056l-0.012,-0.124l0.062,-0.099l0.018,-0.142l-0.043,-0.149l-0.161,-0.08h-0.149l-0.266,-0.049l-0.191,-0.069l-0.279,-0.303l-0.099,-0.259l-0.031,-0.248l-0.031,-0.117l-0.167,-0.143l-0.092,-0.179v-0.118l0.099,-0.037l0.191,0.037l0.149,-0.006l0.198,-0.155l0.08,-0.284l0.099,-0.111l0.136,-0.038l0.186,0.025l0.377,0.217l0.167,0.012l0.273,-0.124l0.074,-0.08l-0.056,-0.13l-0.322,-0.334l-0.297,-0.111l-0.167,0.012l-0.185,-0.025l-0.192,-0.124l-0.619,-0.587l-0.204,-0.062l-0.192,0.049l-0.148,0.161l-0.21,0.112l-0.273,0.012l-0.16,0.13l-0.056,0.142l-0.08,0.081l-0.056,0.006l-0.05,0.074l0.019,0.08l-0.136,0.26l-0.217,0.266l-0.247,0.501l-0.105,0.044l-0.136,0.006l-0.192,-0.05l-0.235,-0.179v-0.08l-0.105,-0.112l-0.149,-0.074l-0.087,-0.223l-0.024,-0.235l-0.099,-0.074l-0.087,-0.198l-0.124,-0.043l-0.117,-0.007l-0.279,-0.105l-0.111,0.013l-0.142,-0.025l-0.093,-0.037l-0.204,-0.019l-0.161,0.019l-0.353,-0.037l-0.16,0.031h-0.124l-0.118,-0.062l-0.173,-0.006l-0.161,0.037l-0.142,-0.044l-0.087,-0.216l0.013,-0.235l-0.105,-0.223l-0.124,-0.111l-0.316,-0.093l-0.823,-0.012l-0.123,-0.093l-0.025,-0.173l-0.173,-0.161l0.031,-0.229l0.08,-0.081l0.223,-0.012l0.099,-0.043h0.179l0.093,0.024l0.198,-0.012l0.105,-0.08l0.297,-0.068l0.031,-0.075l-0.043,-0.229l-0.13,-0.08l-0.118,-0.006l-0.321,-0.18l-0.223,-0.018l-0.161,-0.124l-0.025,-0.105l-0.136,-0.062l-0.154,-0.148l0.012,-0.068h0.142l0.068,-0.019l0.056,-0.056l0.093,-0.018l0.049,0.018l0.18,-0.037l0.018,-0.043l-0.037,-0.05l0.012,-0.08l0.174,-0.247l-0.025,-0.161l0.062,-0.105l0.213,-0.078l0.056,-0.093l-0.009,-0.12l-0.093,-0.074l-0.065,-0.01l-0.084,-0.055l-0.028,-0.075l-0.352,-0.167l-0.121,-0.12l-0.083,-0.019l-0.075,0.037l-0.194,-0.028l-0.149,-0.111l-0.26,-0.037l-0.074,0.056l-0.102,0.009l-0.269,-0.121l-0.139,-0.111v-0.121l-0.102,-0.111l-0.065,-0.223l-0.102,-0.037l-0.158,0.149l-0.232,0.065l-0.074,-0.028l-0.028,-0.075l-0.074,-0.037l-0.075,0.019l-0.065,-0.056l0.037,-0.065l-0.074,-0.046l-0.176,0.056l-0.121,-0.065l-0.464,-0.437l-0.12,-0.213l-0.288,-0.084l-0.056,-0.102l0.084,-0.065l-0.074,-0.148l-0.279,-0.111h-0.278l-0.074,-0.075l0.027,-0.12l0.316,-0.204l0.018,-0.14l-0.167,-0.287l-0.129,-0.019l-0.084,-0.065v-0.158l0.176,-0.352l0.056,-0.668l0.102,-0.242l-0.028,-0.092l-0.12,-0.056l-0.121,0.037l-0.028,0.121l-0.093,0.074l-0.25,0.028l-0.167,-0.056l-0.26,-0.371l-0.009,-0.158l-0.065,-0.139l-0.446,-0.306l-0.018,-0.195l-0.084,-0.065l-0.269,0.139l-0.13,-0.065l-0.176,-0.417l-0.269,-0.149l-0.232,-0.009l-0.297,-0.223l-0.028,-0.241l-0.121,-0.223l-0.362,-0.315l-0.055,-0.093l0.065,-0.056l-0.019,-0.065h-0.093l-0.065,-0.05l-0.062,0.064l-0.056,-0.029l0.025,-0.059l-0.043,-0.005l-0.068,0.029l-0.137,-0.076l-0.037,-0.071l-0.161,-0.123l-0.229,0.118l-0.105,-0.03l-0.155,-0.123v-0.07l-0.074,-0.029l-0.223,0.228l-0.136,0.029l-0.074,-0.046l-0.031,-0.176l-0.099,-0.035l-0.502,0.011l-0.111,0.1l-0.26,0.082l-0.149,0.029l-0.241,0.141l-0.143,-0.07l-0.235,-0.065l-0.124,-0.146l-0.124,-0.035l-0.105,-0.112l-0.091,0.006l-0.056,0.048l-0.046,0.005l-0.084,-0.075l-0.07,0.01l-0.136,0.135l-0.105,0.012l-0.313,-0.097l-0.037,0.029l-0.012,0.068l-0.217,0.149l-0.077,-0.026l-0.078,0.064l0.025,0.071l0.124,0.099l-0.115,0.085l-0.185,0.041l-0.102,0.076l0.003,0.109l-0.242,0.173l-0.083,0.108l-0.239,0.079l-0.105,-0.126l-0.542,0.293l0.136,0.176l-0.04,0.023l-0.071,-0.055l-0.31,0.005l-0.04,-0.035h-0.22l0.031,0.05l-0.34,-0.017l-0.028,-0.033v-0.07l-0.071,-0.179l-0.053,-0.047l-0.12,-0.017l-0.069,0.023l-0.21,0.267l-0.016,0.058l0.09,0.223l-0.034,0.026l-0.111,-0.023l-0.22,0.018l-0.115,0.041l-0.052,0.111l0.052,0.143l-0.043,0.024l-0.102,-0.044l-0.192,0.012l-0.26,-0.047l-0.093,0.009l-0.068,0.082l-0.102,0.041l-0.04,-0.021l-0.038,0.012l-0.012,0.056l-0.217,0.029l-0.055,-0.05l-0.044,0.029l0.084,0.13l0.006,0.143l0.062,0.088l0.118,0.068l0.018,0.112l-0.055,0.25v0.137l0.068,0.087l0.136,0.056l0.093,0.156l0.086,0.449l0.149,0.169l0.204,0.099v0.137l-0.179,0.237l-0.161,0.094l-0.025,0.093l0.019,0.138l-0.093,0.155l0.055,0.125l0.236,0.168l0.154,0.025l0.211,-0.056l0.087,-0.118h0.105l0.068,0.156l0.087,0.043l0.148,0.007l0.186,0.099l0.018,0.131l-0.111,0.113l-0.241,0.018l-0.217,-0.075l-0.105,0.013l-0.056,0.112l-0.006,0.274l0.086,0.106l0.143,0.088l0.037,0.099l-0.05,0.094l-0.247,0.019l-0.087,0.075v0.099l0.297,0.256l0.217,0.044h0.18l0.123,0.062l0.044,0.1l-0.007,0.124l0.069,0.106l0.297,0.15l0.309,0.106l0.415,0.187l0.452,0.069l0.489,-0.013l0.099,0.038l0.025,0.118l0.111,0.125l-0.012,0.05l-0.087,0.031l-0.006,0.043l0.037,0.063l-0.006,0.05l-0.136,0.031l-0.198,-0.044l-0.217,0.006l-0.124,-0.093l-0.068,-0.175l-0.117,-0.031l-0.106,0.038l-0.006,0.099l0.056,0.125l-0.043,0.037l-0.329,-0.049l-0.297,-0.2l-0.105,-0.006l-0.05,0.062l0.025,0.069l0.118,0.043l0.012,0.056l-0.049,0.094l-0.242,0.237l-0.093,0.019l-0.235,-0.081l-0.074,0.024l-0.056,0.094l-0.006,0.112l0.111,0.112l0.056,0.169l-0.031,0.106l-0.006,0.255l0.025,0.163l-0.037,0.13l-0.124,0.106l-0.143,0.044l0.007,0.044l0.123,0.037h0.242l0.167,-0.075l0.074,0.05l0.006,0.194l-0.092,0.087l-0.31,0.118l-0.05,0.144l-0.055,0.05l-0.075,-0.007l-0.173,-0.124l-0.13,-0.013l-0.118,0.044l-0.049,0.093l0.019,0.106l0.086,0.098l0.074,0.194l0.29,-0.033l0.096,-0.065l0.051,-0.075l0.084,-0.061l0.134,-0.028l0.116,-0.117l0.13,-0.061l0.098,-0.089l0.074,-0.018l0.112,0.028l0.092,0.149l0.065,0.005l0.135,-0.103l0.116,-0.005l0.074,0.043l0.075,0.004l0.06,-0.028l0.112,0.014l0.25,0.126l0.102,0.019l0.047,0.164l-0.047,0.243l-0.097,0.051l-0.009,0.043l0.046,0.046l-0.023,0.262l-0.061,0.145l-0.078,0.014l-0.01,0.042l0.079,0.089l-0.009,0.052l0.032,0.042l-0.009,0.037l-0.074,0.028l-0.107,0.229l-0.065,0.042l-0.051,0.094l-0.149,0.023l-0.018,0.047l0.055,0.103l-0.032,0.051l-0.074,0.005l-0.116,0.252l-0.005,0.08l-0.037,0.047l-0.07,0.014l-0.032,0.037l0.018,0.094l-0.032,0.042l-0.107,0.018l-0.144,0.131l0.005,0.066l0.06,0.037l0.009,0.094l-0.125,0.121l-0.019,0.075l-0.12,0.028l-0.07,-0.032l-0.074,0.009l-0.065,0.164l0.037,0.149l0.144,0.276l-0.014,0.29l-0.037,0.061l-0.2,0.107l-0.051,0.159l0.014,0.075l0.056,0.009l0.009,0.038l-0.033,0.051l0.028,0.108l0.102,0.019l0.024,0.051l-0.014,0.117l0.232,0.309l0.097,0.018l0.116,-0.079l0.093,0.014l0.056,0.154l0.088,0.061l0.098,-0.005l0.162,-0.103l0.084,0.005l0.042,0.037l0.074,0.013l0.068,-0.019l0.074,0.038l0.13,0.283l-0.003,0.078l0.019,0.059l0.065,0.047l0.015,0.053l-0.018,0.066l0.043,0.096l0.207,0.075l0.1,0.075l0.055,0.162l0.155,0.106h0.074l0.068,-0.112l0.09,-0.013l0.037,0.028l-0.006,0.063l-0.052,0.053l-0.01,0.081l0.044,0.043l0.071,-0.009l0.031,0.031l0.006,0.088l0.09,0.14l0.071,0.04l0.201,0.047l0.056,0.041l0.099,0.165l0.046,-0.013l0.019,-0.143l0.049,-0.041l0.062,0.019l0.028,0.147l0.043,0.012l0.038,-0.025l0.034,0.019l-0.047,0.093l0.003,0.06l0.044,0.068l-0.007,0.053l-0.16,0.056l-0.05,0.053l-0.142,0.019l-0.022,0.047l0.025,0.056l-0.028,0.037l-0.149,0.069l-0.052,0.059l-0.022,0.063l-0.062,0.031l-0.415,-0.025l-0.167,0.003l-0.145,-0.059l-0.072,0.003l-0.043,0.034h-0.053l-0.145,-0.084l-0.037,-0.062l-0.056,-0.029l-0.102,-0.012l-0.152,-0.087l-0.096,-0.028l-0.136,0.003l-0.062,-0.025l-0.121,-0.097h-0.052l-0.028,0.044l0.015,0.181l0.109,0.156l0.006,0.046l-0.012,0.038l0.012,0.04l0.096,0.056l0.161,0.187l0.022,0.097l0.114,0.178l0.087,0.059l0.077,0.084l0.074,0.168l0.075,0.078l0.062,0.016l0.021,0.034l-0.006,0.056l0.105,0.119l0.019,0.075l0.108,0.056l0.068,-0.016l0.044,0.028l0.034,0.097l0.049,0.04l0.068,0.01l0.109,0.087l0.003,0.062l0.087,0.091l0.021,0.081l0.248,0.153l-0.003,0.068l-0.022,0.038l0.003,0.096l0.099,0.165l-0.028,0.135l-0.077,0.074l-0.019,0.091l-0.04,0.009l-0.062,-0.047l-0.034,0.032l0.006,0.099l0.038,0.053l-0.004,0.134l0.044,0.063l-0.019,0.059l-0.093,0.059h-0.062l-0.167,-0.047l-0.185,0.004l-0.056,0.046h-0.081l-0.043,-0.04l0.019,-0.069l-0.171,-0.149l-0.099,-0.013l-0.139,0.128l-0.186,0.019l-0.136,-0.063l-0.071,-0.003l-0.081,-0.056l-0.049,0.012l0.009,0.032l0.059,0.012v0.038l-0.046,0.021l-0.069,-0.009l-0.024,0.031l0.024,0.087l-0.04,0.225l0.04,0.112l-0.04,0.041l-0.148,0.009l0.018,0.132l-0.023,0.145l0.019,0.108l0.145,0.089l0.074,0.075l0.295,0.14l0.108,0.005l0.107,0.065l0.084,0.126l0.113,0.052l0.116,-0.01l0.061,0.038l0.005,0.051l0.112,0.056l0.201,0.01l0.066,0.056l0.018,0.126l0.07,0.094v0.088l0.15,0.15l0.234,0.052l0.098,0.093l0.005,0.084l-0.042,0.112l0.009,0.089l0.098,0.187l0.141,0.075l0.163,0.005l0.187,0.098l0.117,0.164l-0.005,0.107l0.066,0.052l0.107,0.018l0.08,0.038l0.019,0.061l0.065,0.032l0.295,-0.009l0.042,0.023v0.047l0.065,0.033l0.084,-0.047l0.085,0.014l0.07,0.066l-0.014,0.126l0.079,0.117l0.169,0.061l0.079,-0.014l0.061,0.042l-0.038,0.103l0.043,0.023l0.116,-0.066l0.033,-0.07l0.066,0.005l0.074,0.079l0.169,0.089h0.065l0.056,-0.056l0.234,-0.103l0.052,0.038l-0.019,0.126l0.103,0.238l0.112,0.108l0.285,0.136l0.07,0.07l0.042,0.098l0.178,0.108l0.089,0.093l0.033,0.084l0.079,0.052h0.061l0.075,-0.113l0.065,-0.065l0.033,0.019l0.005,0.065l0.037,0.033l0.075,0.005l0.159,0.093l0.112,0.028l0.173,0.122l0.182,0.065l0.075,-0.014l0.061,0.033l0.028,0.051l0.295,0.108l0.056,-0.01l0.047,0.024v0.075l-0.047,0.168l0.005,0.094l0.046,0.084l0.022,0.089l-0.026,0.079z M1245.212556,444.025056l-0.003,0.022l0.089,0.038l0.037,0.052h0.042l0.049,-0.09l-0.025,-0.106l-0.054,-0.008l-0.047,0.037l-0.027,0.053l-0.061,0.002z"/>
</svg>
