<svg xmlns="http://www.w3.org/2000/svg" viewBox="1413.150 29.071 135.930 31.823">
  <path d="M1499.61301,30.064325l-0.028105,-0.125647l0.309152,-0.153568l0.772881,-0.097725l0.744776,-0.153568h0.660462l0.421571,0.069804l0.758828,-0.041882l1.981385,-0.432783l1.925176,-0.055843l1.334976,0.139607l0.730724,0.37694l0.014052,0.321097l-0.154576,0.265254l-0.252943,0.097725l-0.014052,0.167529l0.182681,0.321097l-0.05621,0.125647l-0.548043,0.307136l-0.955562,0.153568l-1.573866,0.027921l-0.252943,0.139607h-0.351309l-0.449676,-0.167529l-1.377133,0.097725l-0.2951,0.167529l-0.351309,0.069804h-0.309152l-0.716671,0.265254l-0.477781,0.027921l-1.208504,-0.321097l-0.196733,-0.321097l0.014052,-0.362979l0.407519,-0.223372l0.084314,-0.209411l-0.351309,-0.265254l-0.421571,-0.209411Z M1526.186054,32.930338h0.351309l0.140524,-0.111686l-0.014052,-0.125647l-0.323205,-0.139607l-0.2951,0.083764l-0.05621,0.167529l0.196733,0.125647Z M1525.75043,33.795904l0.266995,0.390901l1.011771,0.293176l0.983666,-0.027921l0.5902,-0.349019v-0.125647l-0.815038,-0.390901l-1.039876,-0.237333l-0.927457,-0.013961l-0.421571,0.111686l0.014052,0.139607l0.337257,0.209411Z M1528.518748,32.218341l0.941509,0.19545l0.758828,-0.041882l0.463728,0.111686l0.070262,0.349019l0.435624,0.349019l1.686285,0.307136l1.728442,0.013961l1.812757,0.139607l1.897071,-0.57239l0.379414,-0.432783v-0.335058l-0.477781,-0.502587l-1.292819,-0.418822l-2.093804,-0.153568l-1.573866,0.251293l-0.463728,0.013961l-0.688566,-0.18149l-0.5902,-0.013961l-0.758828,0.139607l-1.025823,-0.069804l-1.250662,0.209411l-0.449676,0.335058l0.042157,0.153568l0.449676,0.153568Z M1437.206625,48.653405l0.485246,0.11125h0.522573l0.410593,-0.129791l0.27995,-0.278124l0.037327,-0.241041l-0.485246,-0.222499l-0.242623,-0.037083l-0.22396,-0.148333l-0.018663,-0.241041l-0.354603,-0.222499l-0.541236,-0.166874v-0.166874l0.522573,-0.11125l0.149306,-0.259583l-0.205296,-0.352291l-0.578563,-0.278124l-1.083474,-0.179401l-0.614888,-0.006015l-1.381085,0.222499l-0.597226,-0.037083l-1.530392,-0.407915l-0.951829,-0.315207h-0.858512l-0.354603,0.148333l-0.877176,0.055625l-0.373266,0.166874l-0.018663,0.241041l0.205296,0.166874l-0.037327,0.166874l-1.138462,0.296666l-0.895839,0.426457l-2.090291,0.259583l-0.821186,0.203958l-0.522573,0.333749l-1.717025,0.389374l-4.647165,0.333749l-1.101135,0.296666l-1.511728,0.055625l-0.895839,0.333749l0.093317,0.11125l0.39193,0.018542l0.877176,0.315207l1.418412,0.074166l0.989156,0.222499l0.093317,0.092708l0.037327,0.259583l0.22396,0.148333l0.485246,-0.037083l1.306432,-0.57479l0.989156,-0.092708l0.951829,0.129791l0.186633,0.259583l-0.093317,0.46354l-0.410593,0.482082v0.185416l0.503909,0.185416l1.138462,0.055625l0.727869,-0.166874l0.037327,-0.129791l-0.11198,-0.278124l0.149306,-0.259583l0.503909,-0.092708l0.671879,0.203958l0.074653,-0.11125l-0.242623,-0.278124l0.037327,-0.222499l0.261286,-0.185416h0.503909l0.39193,0.148333l0.877176,0.018542l0.354603,-0.037083l0.037327,-0.148333l-0.11198,-0.148333l0.16797,-0.203958l0.727869,-0.444999l0.821186,-0.092708l1.455738,0.315207l0.242623,-0.074166l0.018663,-0.185416l-0.671879,-0.482082l-0.130643,-0.444999v-0.278124l0.242623,-0.148333l1.343758,0.222499l0.16797,-0.11125l-0.05599,-0.203958l-0.503909,-0.389374l0.074653,-0.185416l0.354603,-0.074166l0.33594,0.129791l0.11198,-0.055625l-0.16797,-0.333749l0.186633,-0.185416l0.727869,-0.129791l0.783859,0.055625l0.503909,0.203958l0.018663,0.148333l-0.205296,0.352291l0.074653,0.11125l0.317276,0.037083l0.503909,-0.074166l0.186633,0.148333l-0.018663,0.630415l0.27995,0.222499l0.933166,0.259583l0.671879,-0.018542l0.27995,-0.11125h0.503909l0.429256,0.370832Z M1512.681061,38.511145l0.615889,0.11125l0.522573,-0.018542l1.101135,0.166874l0.933166,0.296666l0.466583,0.037083l0.914502,-0.315207l0.093317,-0.148333l-0.373266,-0.352291l-1.007819,-0.259583l-2.780834,-0.11125l-0.839849,0.259583l-0.018663,0.148333l0.373266,0.185416Z M1507.138057,39.883224l0.559899,0.092708l0.839849,-0.037083l1.287769,0.129791l0.914502,0.241041l0.821186,0.074166l0.466583,-0.148333l0.05599,-0.129791l-0.22396,-0.241041l-1.381085,-0.296666h-1.045145l-0.839849,-0.11125h-1.418412l-0.410593,0.148333v0.129791l0.373266,0.148333Z M1503.629355,37.47434l0.03074,0.119757l0.491833,0.335058l0.39193,0.138517l0.802522,0.11125l0.839849,0.185416h1.250442l1.455738,-0.370832l0.16797,-0.148333l-0.018663,-0.241041l-0.466583,-0.333749l-0.074653,-0.259583l-0.27995,-0.222499l-0.373266,-0.11125l-0.037327,-0.148333l0.149306,-0.129791l0.373266,-0.055625l0.018663,-0.11125l-0.39193,-0.055625l-0.485246,0.092708h-0.522573l-0.429256,-0.074166l-0.634553,0.018542l-1.007819,0.482082l-0.634553,0.203958l-0.354603,0.185416l-0.160285,0.257837l-0.101001,0.131536Z M1501.650604,34.592537l-0.014052,0.097725l0.126471,0.097725l0.252943,0.055843l0.519938,0.013961l0.126471,-0.097725l-0.014052,-0.083764l-0.351309,-0.139607l-0.407519,-0.041882l-0.23889,0.097725Z M1504.798337,35.849004l0.014052,0.069804l0.252943,0.027921l0.309152,-0.041882l0.014052,-0.097725l-0.168629,-0.069804h-0.210786l-0.210786,0.111686Z M1502.044071,33.512628l-0.014052,0.18149l0.379414,0.125647l1.011771,0.055843l0.716671,-0.111686l0.688566,-0.279215l0.014052,-0.265254l-0.182681,-0.293176l-0.281048,-0.083764l-0.309152,0.097725l-1.349028,0.041882l-0.23889,0.083764l-0.028105,0.083764l0.168629,0.055843v0.074457l-0.379414,0.06515 l-0.196733,0.167529Z M1504.896703,32.991427l-0.009368,0.055843l0.112419,0.083764l0.131156,0.018614l0.046841,-0.027921l-0.093683,-0.102379l-0.187365,-0.027921Z M1505.786687,33.056577l0.346625,-0.037229l0.046841,-0.074457l-0.131156,-0.06515l-0.421571,-0.018614l-0.206102,0.055843l0.037473,0.074457l0.327889,0.06515Z M1505.82416,32.637755l0.21547,-0.06515v-0.06515l-0.187365,-0.027921l-0.327889,0.06515l0.009368,0.06515l0.290416,0.027921Z M1457.259147,52.977963v0.097725l0.168629,0.097725h0.168629l0.084314,-0.111686l-0.070262,-0.139607l-0.23889,-0.041882l-0.112419,0.097725Z M1448.462359,56.593795l0.028105,0.097725l0.365362,0.069804l0.098367,-0.055843v-0.097725l-0.309152,-0.083764l-0.182681,0.069804Z M1444.134227,55.435053l0.028105,0.223372l0.702619,0.251293l0.266995,0.265254l0.252943,0.111686l0.365362,0.041882l0.337257,0.19545l0.323205,0.432783l0.505886,0.125647l0.927457,-0.055843l0.140524,-0.139607l-0.154576,-0.474665l0.028105,-0.321097l0.182681,-0.18149l1.096085,0.055843l0.05621,-0.097725l-0.028105,-0.167529l0.098367,-0.111686l0.351309,-0.125647l0.112419,-0.251293l-0.168629,-0.265254l-0.632357,-0.307136l-1.208504,-0.153568l-1.025823,0.097725l-0.646409,0.125647l-0.604252,0.293176l-0.449676,0.139607l-0.491833,0.041882l-0.365362,0.251293Z M1449.523314,40.601766l0.05621,0.153568l0.351309,0.104706l0.098367,0.111686l0.017785,0.135245l-0.074653,0.129791l0.018663,0.166874l0.263043,0.217264v0.18149l-0.524329,0.305827l-0.018663,0.166874l0.22396,0.166874l0.22396,-0.037083l0.447919,-0.296666l0.765196,-0.222499l0.895839,0.092708l0.11198,-0.055625l-0.05599,-0.148333l-0.205296,-0.203958l0.149306,-0.185416l1.157125,-0.148333l0.33594,-0.259583l0.037327,-0.333749l-0.541236,-0.370832l-0.989156,-0.185416l-0.261286,-0.148333l-0.33594,-0.037083l-0.27995,0.129791l-0.970492,-0.018542l-0.074653,0.092708l0.074653,0.129791l-0.149306,0.148333l-0.684395,0.106233l-0.063236,0.111686Z M1447.52085,58.297005l-0.05621,0.167529l0.562095,0.167529l1.011771,-0.041882l0.365362,-0.19545l0.126471,0.027921l0.140524,0.209411l0.505886,0.125647l2.192171,0.083764l2.135961,0.279215l1.71439,-0.041882l0.252943,-0.097725l0.014052,-0.125647l-0.2951,-0.390901l-0.857195,-0.390901l-0.168629,-0.223372l0.014052,-0.209411l0.323205,-0.279215l0.028105,-0.265254l-0.224838,-0.125647l-0.618305,-0.237333l-0.252943,-0.19545l-0.758828,-0.293176l-0.224838,0.055843l-0.098367,0.097725l-0.028105,0.19545l-0.449676,0.18149l-1.12419,0.279215l-0.548043,0.37694l-0.281048,0.404861l-0.646409,0.335058l-0.2951,0.013961l-0.252943,-0.055843l-0.252943,-0.223372l-0.53399,-0.083764l-0.82909,0.19545l-0.5902,0.279215Z M1475.13377,41.041172l0.046841,0.170396l0.21547,0.116587l0.346625,0.053809l0.103051,-0.09865l-0.103051,-0.233173l-0.318521,-0.09865h-0.206102l-0.084314,0.089682Z M1477.410255,39.124254l0.15926,0.009307l0.046841,-0.083764l-0.009368,-0.111686l-0.15926,-0.027921l-0.103051,0.093072l0.065578,0.120993Z M1479.246432,36.778849v0.046536l0.327889,0.037229l0.290416,-0.074457l0.05621,-0.111686l-0.093683,-0.139607h-0.206102l-0.093683,0.074457l-0.084314,0.111686l-0.196733,0.055843Z M1476.670163,38.370374l-0.140524,-0.167529l0.009368,-0.167529l-0.168629,-0.204758l-1.030508,-0.49328l-0.262311,-0.009307l-0.037473,0.06515l0.402835,0.204758l0.074946,0.19545l0.187365,0.167529l0.412203,0.148915l0.140524,0.1303l0.327889,0.325751l0.206102,0.074457h0.355994l-0.009368,-0.074457l-0.468413,-0.19545Z M1484.895487,37.262822l-0.009368,0.055843l0.131156,0.083764h0.140524l0.065578,-0.055843l-0.074946,-0.093072l-0.121787,-0.027921l-0.131156,0.037229Z M1491.959149,34.355205l-0.009368,0.051189l0.13584,0.027921l0.187365,-0.027921l0.051525,-0.069804l-0.084314,-0.051189l-0.201417,0.004654l-0.07963,0.06515Z M1496.334122,38.863654l0.009368,0.074457l0.177997,0.046536l0.421571,-0.027921l0.028105,-0.055843l-0.065578,-0.074457l-0.337257,-0.027921l-0.234206,0.06515Z M1500.868355,39.46277l-0.065578,0.044841l0.103051,0.107618l0.103051,0.035873l0.112419,0.004484l0.028105,-0.062777l-0.126471,-0.094166l-0.154576,-0.035873Z M1501.533501,39.521063l0.014894,0.034787l0.186633,-0.01072l0.179168,-0.083972l0.104515,-0.014293l0.054124,-0.033946l-0.000659,-0.066736l-0.13584,-0.058293l-0.173313,0.044841l-0.229522,0.188332Z M1499.830822,42.951398l-0.014052,0.114344l0.285732,0.242141l0.175655,0.060535l0.290416,0.002242l0.428597,-0.08744l0.077288,-0.118829l-0.025763,-0.100892l-0.248259,-0.103134l-0.733066,-0.053809l-0.236548,0.044841Z M1503.744408,41.007541l-0.161602,0.127797l-0.035131,0.343033l0.154576,0.17488l0.344283,0.147975l0.477781,0.006726l0.765855,-0.168154l0.351309,-0.343033l-0.014052,-0.127797l-0.632357,-0.188332l-0.583174,-0.033631l-0.667488,0.060535Z M1442.426864,56.991676l-0.021079,0.090745l0.407519,0.230352l0.140524,0.18847l0.231864,0.090745l0.245917,0.00698l0.365362,-0.090745l0.660462,-0.00698l0.400493,-0.153568l0.112419,-0.160549l-0.014052,-0.209411l-0.576147,-0.18847l-0.28439,-0.166742l-0.369046,-0.098512l-0.491833,-0.041882l-0.217812,0.069804l-0.070262,0.090745l-0.021079,0.139607l-0.084314,0.097725l-0.414545,0.111686Z M1441.569669,57.427949l0.031618,0.059333h0.214299l0.23889,-0.045372l0.175655,0.034902l0.049183,0.059333l-0.042157,0.045372l-0.505886,0.132627l-0.007026,0.059333l0.052696,0.076784l0.400493,0.027921l0.379414,-0.080274l0.063236,-0.101215l-0.05621,-0.216391l-0.411032,-0.223372l-0.319692,0.031412l-0.263482,0.139607Z M1465.535997,56.107746l0.028105,0.084195l0.309152,0.084195l0.252943,-0.028065l0.154576,-0.098227l-0.140524,-0.070162l-0.309152,-0.042097l-0.2951,0.070162Z M1462.079112,52.515436v0.182422l0.562095,0.294682l0.843143,0.084195l1.166347,-0.05613v-0.126292l-0.23889,-0.098227l-0.618305,-0.042097l-0.449676,-0.140325l-0.252943,-0.16839l-0.421571,-0.042097l-0.5902,0.11226Z M1473.517747,53.455611l0.323205,-0.042097l0.042157,-0.11226l-0.126471,-0.140325l0.028105,-0.154357l0.281048,-0.098227l0.014052,-0.11226l-0.716671,-0.098227l-0.505886,0.196454l0.014052,0.196454l0.2951,0.308714l0.351309,0.05613Z M1475.822336,49.133613l-0.05621,0.084195l0.084314,0.140325l0.252943,0.070162l0.112419,-0.098227l0.042157,-0.098227l-0.224838,-0.098227h-0.210786Z M1477.621041,52.375112l-0.042157,0.084195l0.2951,0.11226l0.758828,-0.028065l0.576147,-0.266617l0.384098,-0.308714l-0.074946,-0.084195l-0.421571,0.042097l-0.379414,0.16839l-0.53399,0.084195l-0.309152,0.140325l-0.252943,0.05613Z M1477.831826,49.975561l-0.042157,0.084195l0.098367,0.266617l0.252943,0.16839l0.393467,0.098227l0.421571,0.224519l0.393467,0.238552l0.53399,0.140325l0.407519,-0.014032l0.646409,-0.364844l0.070262,-0.238552l-0.449676,-0.435006l-0.815038,-0.280649l-0.632357,-0.05613l-0.421571,0.140325l-0.674514,-0.042097l-0.182681,0.070162Z M1480.080206,51.724941l-0.028105,0.065485l0.515254,0.14968l0.355994,0.065485l0.121787,0.09355l0.009368,0.121615l0.168629,0.07484l0.683882,-0.05613l0.206102,-0.224519l0.093683,-0.542588l-0.103051,-0.13097l-0.15926,-0.01871l-0.309152,0.224519l-0.309152,0.07484l-0.309152,-0.046775l-0.496517,0.009355l-0.440308,0.140325Z M1476.492166,51.921395l0.05621,0.14968l0.412203,0.11226h0.693251l0.384098,-0.140325l0.5902,-0.065485l0.346625,-0.187099l0.234206,-0.233874l-0.028105,-0.261939l-0.562095,-0.355489l-0.187365,-0.177744l-0.412203,-0.140325l-0.262311,0.01871l-0.131156,0.09355l-0.112419,0.215164l-0.599568,0.318069l-0.121787,0.121615l-0.074946,0.271294l-0.224838,0.261939Z M1467.910848,48.712639l0.290416,0.121615l0.711987,0.159035l0.121787,0.07484v0.102905l-0.276689,0.084092l-0.116778,0.159138l-0.177997,0.533233l0.046841,0.196454l0.290416,0.290004l0.796301,0.308714l0.337257,0.05613l0.21547,-0.09355l0.477781,-0.430329l0.009368,-0.13097l-0.131156,-0.196454l-0.552727,-0.243229l-0.131156,-0.196454l0.046841,-0.233874l-0.05621,-0.523879l-0.224838,-0.224519l-1.058612,-0.383554h-0.412203l-0.065578,0.084195l0.112419,0.205809l-0.065578,0.065485l-0.449676,-0.009355l-0.234206,0.05613l-0.028105,0.084195l0.524622,0.084195Z M1505.23396,53.592236l-0.028105,0.111686l0.323205,0.153568l0.309152,0.013961l0.323205,-0.097725l-0.05621,-0.153568l-0.281048,-0.125647l-0.337257,-0.013961l-0.252943,0.111686Z M1507.074822,56.13309l0.014052,0.069804h0.337257l0.435624,-0.18149h0.449676l0.084314,-0.083764l-0.266995,-0.167529l-0.53399,-0.041882l-0.182681,0.083764l-0.098367,0.153568l-0.23889,0.167529Z M1504.489184,60.684292l-0.210786,0.027921l-0.070262,0.083764l0.084314,0.083764l0.140524,0.013961l0.196733,-0.055843l0.014052,-0.083764l-0.154576,-0.069804Z M1499.584905,48.39884l-0.028105,0.083764l0.182681,0.111686h0.23889l0.014052,-0.069804l-0.070262,-0.097725l-0.182681,-0.069804l-0.154576,0.041882Z M1506.203574,48.301115l-0.140524,0.013961l-0.112419,0.097725l0.014052,0.069804l0.168629,0.027921l0.154576,-0.069804l0.028105,-0.083764l-0.112419,-0.055843Z M1520.621312,52.291708v0.068201l0.182681,0.05456h0.210786l0.112419,-0.05456l0.014052,-0.05456l-0.323205,-0.05456l-0.196733,0.04092Z M1513.932381,44.516843l-0.042157,0.095481l0.154576,0.04092l0.196733,-0.05456l0.028105,-0.068201l-0.168629,-0.04092l-0.168629,0.02728Z M1514.016696,52.278067l-0.014052,0.068201l0.323205,-0.01364l0.281048,-0.095481h0.281048l0.449676,0.081841l0.154576,-0.02728v-0.068201l-0.337257,-0.231882l-0.421571,-0.01364l-0.407519,0.190962l-0.309152,0.109121Z M1513.089239,55.155839l-0.014052,0.097725l0.323205,0.335058l0.632357,0.209411l0.5902,0.027921l0.252943,-0.083764v-0.167529l-0.477781,-0.37694l-0.5902,-0.111686l-0.365362,0.069804h-0.351309Z M1512.442829,59.106728v0.097725l0.323205,0.139607h0.449676l0.604252,-0.237333l-0.028105,-0.167529l-0.393467,-0.19545h-0.519938l-0.196733,0.125647l-0.098367,0.167529l-0.140524,0.069804Z M1505.711741,48.650133l-0.421571,0.139607l-0.435624,0.027921l-0.660462,0.139607l-0.309152,0.223372l-0.477781,0.139607l0.028105,0.083764l0.435624,0.013961l0.983666,0.223372h0.281048l0.224838,-0.097725l-0.014052,-0.125647l-0.126471,-0.153568l-0.014052,-0.153568l0.576147,-0.335058l0.028105,-0.097725l-0.098367,-0.027921Z M1501.158771,40.574826l-0.028105,0.089682l0.224838,0.143491l0.459044,0.080714l0.449676,0.026905l0.21547,0.116587h0.384098l0.721355,-0.125555l0.468413,-0.242141l0.009368,-0.089682l-0.505886,-0.224205h-1.264714l-0.627673,0.152459l-0.505886,0.071746Z M1502.086228,58.506417l-0.014052,0.083764l0.505886,0.041882l0.983666,-0.069804l0.505886,0.041882l0.449676,0.251293l0.210786,0.223372l0.730724,0.223372l0.309152,-0.013961l0.815038,-0.19545l0.028105,-0.125647l-0.505886,-0.223372l-0.716671,-0.139607l-0.674514,-0.404861l-0.05621,-0.153568l-0.435624,-0.069804l-0.463728,0.139607l-0.871247,0.111686l-0.800985,0.279215Z M1489.902818,50.758205l-0.028105,0.097725l0.337257,0.167529l0.53399,0.027921l0.674514,-0.153568l0.028105,-0.139607l-0.252943,-0.209411l-0.351309,-0.027921l-0.337257,0.139607l-0.604252,0.097725Z M1489.242356,57.710654l0.070262,0.083764h0.337257l0.23889,-0.125647l-0.042157,-0.111686l-0.365362,-0.027921l-0.23889,0.18149Z M1495.411349,49.222524v0.18149l0.393467,0.335058l0.772881,0.18149l0.351309,0.223372l0.505886,0.013961l0.53399,-0.237333h0.323205l0.281048,0.19545l0.632357,0.027921l0.2951,-0.153568l0.309152,-0.432783l0.702619,-0.55843l0.154576,-0.223372l-0.098367,-0.097725h-0.365362l-0.266995,0.111686l-0.449676,-0.055843l-0.182681,-0.111686l-0.421571,-0.027921l-0.463728,0.125647l-1.12419,0.041882l-1.12419,0.139607l-0.758828,0.321097Z M1485.490371,52.028633l0.014052,0.18149l0.379414,0.209411l1.011771,0.069804l0.871247,0.237333l0.730724,0.027921l0.224838,-0.19545l-0.070262,-0.223372l-0.983666,-0.418822l-1.391185,-0.18149l-0.562095,0.139607l-0.224838,0.153568Z M1474.332784,53.469643l-0.028105,0.350812l0.407519,0.350812l0.014052,0.266617l-0.042157,0.435006l0.140524,0.322747h0.154576l0.351309,-0.336779l0.33687,-0.101574l0.49222,-0.010685l0.23889,-0.210487l0.140524,-0.659526l-0.266995,-0.336779l-0.8853,-0.364844h-0.5902l-0.463728,0.294682Z M1480.009945,54.059007l0.05621,0.126292l0.463728,0.126292l0.365362,0.238552l0.716671,-0.014032l0.674514,-0.336779l0.463728,-0.140325l0.5902,-0.014032l0.449676,-0.280649l0.182681,-0.392909l-0.112419,-0.238552l-0.82909,-0.238552l-0.618305,-0.028065l-1.12419,0.392909l-0.014052,0.11226l0.351309,0.140325l-0.049183,0.11226l-0.421571,0.070162l-0.133498,0.105243l-0.035131,0.140325l-0.14755,0.084195l-0.730724,-0.063146l-0.098367,0.098227Z M1472.53408,49.273938l-0.014052,0.224519l0.632357,0.350812l0.070262,0.154357l-0.112419,0.224519l-0.337257,0.238552l0.014052,0.505169l0.309152,0.196454l1.011771,0.05613l0.646409,0.140325l0.576147,0.280649l0.463728,0.014032l0.266995,-0.070162l0.112419,-0.350812l0.266995,-0.252584l0.604252,-0.126292l0.05621,-0.16839l-0.224838,-0.210487l-0.407519,-0.070162l-0.449676,0.05613l-0.140524,-0.11226l0.070262,-0.11226l0.407519,-0.042097l-0.014052,-0.11226l-0.281048,-0.196454l-0.618305,-0.084195h-0.632357l-0.365362,-0.126292l0.028105,-0.126292l0.618305,-0.084195l0.2951,-0.196454l0.014052,-0.126292l-0.337257,-0.16839l-0.899352,-0.070162l-0.407519,-0.098227l-0.758828,0.028065l-0.463728,0.435006Z M1500.582624,39.722847l0.070262,-0.040357l-0.182681,-0.282498l-0.210786,-0.134523l-0.618305,-0.134523l-0.646409,-0.026905l-0.997719,0.094166l-0.379414,0.134523l-0.548043,-0.013452l-0.786933,0.053809l-0.730724,0.161428l-0.2951,0.17488l-0.365362,0.053809l-1.236609,0.215237l-0.562095,0.215237l-0.028105,0.094166l0.210786,0.147975l0.576147,0.067261l0.53399,0.134523l0.913404,0.34976l1.138242,0.080714l1.334976,-0.013452l0.927457,-0.147975l0.337257,-0.269046l0.126471,-0.376664l0.182681,-0.228689l0.519938,-0.322855l0.407519,-0.067261l0.154576,0.013452l0.154576,0.067261Z M1513.459285,42.90731l-0.009368,0.109121l0.496517,0.309176l0.505886,0.072747l0.309152,-0.02728l0.487149,0.218242l0.15926,0.200055l0.562095,0.227335l0.487149,-0.009093l0.580832,0.072747l0.796301,0.181868l1.171031,-0.009093l1.92986,-0.254615l1.395869,-0.74566l0.562095,-0.481951l0.880616,-0.42739l0.074946,-0.181868l-0.065578,-0.290989l-0.327889,-0.236429l0.009368,-0.136401l0.299784,-0.145495l0.440308,-0.090934l-0.009368,-0.109121l-0.552727,-0.181868l-1.142927,-0.118214l-0.299784,0.072747l-0.421571,-0.02728l-0.711987,-0.081841l-0.730724,0.063654l-0.468413,0.236429l-0.449676,0.05456l-0.983666,0.127308l-0.899352,0.327363l-0.084314,0.100027l-0.271679,0.081841l-0.758828,0.045467l-1.189768,0.391017l-0.37473,0.290989l-0.290416,0.136401l-0.37473,0.072747l-0.299784,0.109121l-0.43094,0.05456Z M1505.571217,57.608275l-0.009368,0.074457l0.365362,0.055843l0.281048,0.083764l0.833774,0.335058l0.281048,0.06515h0.21547l0.299784,0.093072l0.065578,0.148915l0.271679,0.083764l0.421571,0.037229l0.196733,0.111686l0.103051,0.167529l0.337257,0.1303l0.459044,-0.018614l0.290416,-0.251293l0.43094,-0.111686h1.12419l0.515254,-0.214065l0.37473,-0.325751l0.43094,-0.120993l0.393467,-0.06515l0.018737,-0.083764l-0.262311,-0.074457l-0.168629,-0.167529l-0.065578,-0.251293l-0.318521,-0.325751l-0.459044,-0.214065l-1.217873,-0.214065l-1.367765,-0.018614l-1.620707,0.316443l-1.011771,0.279215l-1.208504,0.474665Z M1499.226569,41.84831l0.007026,0.094166l0.23889,0.215237l0.407519,0.127797l0.414545,0.08744l0.302126,0.181606l0.084314,0.134523l1.461447,0.753328l0.653436,0.17488l0.955562,0.006726l0.53399,-0.154701l0.070262,-0.100892l-0.021079,-0.168154l0.14755,-0.181606l0.541016,-0.329581l0.042157,-0.201784l-0.323205,-0.26232l-0.548043,-0.168154l-0.850169,-0.215237l-0.309152,-0.168154l-0.217812,-0.161428l-0.414545,-0.107618l-0.625331,-0.040357l-0.498859,-0.100892h-0.351309l-0.168629,0.067261l-0.028105,0.134523l0.084314,0.195058l-0.098367,0.100892l-0.344283,0.067261l-0.274021,-0.100892h-0.463728l-0.407519,0.121071Z M1492.436929,35.40226l-0.018737,0.158222l0.177997,0.269908l0.543359,0.111686l1.133558,0.055843l0.327889,0.093072l0.346625,0.018614l0.299784,-0.102379l0.299784,0.009307l0.243575,0.1303l0.271679,-0.027921l0.177997,-0.083764l0.412203,0.037229l0.599568,0.288522l0.103051,0.176836l0.243575,0.120993l0.43094,0.009307l0.477781,0.120993l0.515254,0.241986l0.674514,0.083764l1.789336,-0.018614l0.796301,-0.120993l0.477781,-0.158222l0.880616,-0.148915l0.299784,-0.232679l-0.018737,-0.260601l-0.37473,-0.288522l-0.824406,-0.437437l-0.608936,-0.19545l-0.796301,-0.102379l-0.449676,0.009307l-0.15926,0.055843l-0.37473,-0.009307l-0.674514,-0.158222l-0.121787,-0.139607l-0.018737,-0.158222l-0.196733,-0.120993l-0.234206,-0.009307l-0.112419,-0.074457l-0.037473,-0.204758l0.103051,-0.1303l-0.028105,-0.083764l-0.683882,-0.148915l-0.683882,-0.037229l-0.543359,0.093072h-0.290416l-0.187365,0.074457l-0.15926,0.186143l-0.177997,0.055843l-0.21547,-0.037229l-0.299784,0.06515l-0.15926,0.093072l-0.297442,0.030248l-0.622989,-0.081438l-0.387611,-0.086091l-0.621818,0.00698l-0.502372,0.153568l-0.126471,0.122156l-0.031618,0.118666l0.133498,0.082601l-0.002342,0.034902l-0.105393,0.102379l-0.007026,0.111686l0.103051,0.074457l-0.039815,0.051189l-0.580832,0.079111l-0.086656,0.1303Z M1499.135229,45.675487l-0.028105,0.100892l0.154576,0.215237l0.372388,0.161428l0.674514,0.100892l0.793959,0.040357l0.625331,0.100892l0.576147,0.221963l0.983666,0.094166l0.702619,-0.060535l0.5902,-0.336307l0.541016,-0.080714l1.145269,-0.026905l0.266995,-0.100892l0.119445,-0.168154l0.049183,-0.38339l0.14755,-0.215237v-0.147975l-0.449676,-0.443926l-0.400493,-0.235415l-0.744776,-0.114344l-1.166347,0.073988l-0.772881,0.114344l-0.723697,-0.006726l-0.576147,0.114344l-0.44265,0.053809l-0.428597,0.100892l-0.548043,0.369938l-0.203759,0.228689l-0.182681,0.114344l-0.23889,0.033631l-0.281048,-0.026905l-0.393467,0.033631l-0.161602,0.073988Z M1461.898188,54.009308l-0.049769,0.198793l0.441698,0.447285l0.628332,0.29819l2.189829,0.546681l1.393527,-0.049698l2.239597,0.074547l0.920723,0.223642l0.696764,-0.074547l0.273729,-0.173944v-0.472134l0.323497,-0.29819l0.447919,-0.124246l0.447919,0.049698l0.174191,0.248491l0.273729,0.024849l0.796301,-0.385162l0.037327,-0.242279l-0.466583,-0.3541l-2.805718,-1.056089l-0.323497,-0.099397l-0.024884,-0.173944l0.323497,-0.173944l-0.074653,-0.223642l-0.547457,-0.223642l-0.472804,-0.024849l-0.447919,0.223642l-0.423035,-0.024849l-0.597226,-0.099397l-0.547457,0.049698l-1.318874,0.496983l0.049769,0.149095l0.497688,0.074547l0.199075,0.124246v0.248491l-0.273729,0.149095l-0.646995,0.024849l-0.311055,0.074547l-0.22396,0.242279l-0.39193,0.130458l-1.325095,-0.093184l-0.559899,0.074547l-0.522573,0.192581Z M1474.010678,45.274861l-0.05599,0.214396l0.802522,0.428792l0.615889,0.053599l0.615889,-0.107198l1.138462,-0.089332l0.634553,0.053599l0.186633,0.178663l0.186633,0.375193l1.101135,0.482391l0.802522,0.053599l0.522573,-0.250129l0.877176,-0.107198l1.810341,-0.017866l1.884995,-0.303728l1.194452,-0.107198l0.074653,-0.107198l-0.298613,-0.214396l-0.578563,-0.214396l-0.727869,-0.035733l-1.026482,-0.303728l-1.045145,-0.178663l-0.466583,-0.19653l-0.33594,-0.267995l-0.634553,-0.160797l-0.914502,-0.053599l-0.410593,0.107198l-0.298613,0.303728l-0.33594,0.107198l-0.317276,-0.017866l-0.186633,-0.250129l-0.33594,-0.125064l-0.821186,-0.035733l-0.39193,0.178663l-0.559899,0.142931l-1.698361,0.017866l-0.503909,0.107198l-0.503909,0.33946Z M1483.200365,47.087543v0.163122l0.253235,0.061171l0.729222,-0.043046l0.633087,-0.095154l0.283717,0.038515l0.011724,0.058905l-0.602605,0.25148l-0.365783,0.394211l0.056274,0.244683l0.661224,0.122341l0.914459,0.027187l0.914459,0.176715l0.675293,0.013593l0.619018,-0.122341l0.407989,-0.217496l0.309509,-0.013593l0.281372,0.04078l0.112549,0.122341l0.042206,0.190309l0.239166,0.067967l1.266173,-0.190309l1.814849,-0.095154l0.942596,-0.394211l0.09848,-0.367024l-0.112549,-0.244683l-1.89926,-0.965138l-0.70343,-0.122341l-2.884062,0.108748l-1.420928,-0.027187l-0.506469,0.108748l-0.407989,0.231089l-0.661224,0.203902l-1.322448,0.122341l-0.379852,0.149528Z M1486.654205,53.45693l-0.028137,0.134019l0.619018,0.472594l0.04924,0.282146l-0.056274,0.112858l-0.007034,0.119912l0.471298,0.380897l0.119583,0.253931l-0.014069,0.134019l-0.99887,0.500809l-1.012939,0.613667l0.007034,0.063483l0.928527,0.162234l0.858184,0.218663l0.956664,0.063483l1.231002,-0.028215l0.337646,-0.049375l0.218063,0.014107l0.29544,0.056429l0.492401,0.014107l0.29544,0.049375l0.464264,0.007054l0.379852,-0.07759l0.935561,-0.007054l0.400955,0.042322l0.239166,-0.063483l0.640121,-0.592506l-0.014069,-0.190448l-0.302475,-0.289199l-0.035171,-0.338575l0.09848,-0.218663l0.527572,-0.282146l0.04924,-0.119912l-0.042206,-0.134019l-0.337646,-0.239824l-0.070343,-0.148126l0.014069,-0.162234l0.309509,-0.331521l0.063309,-0.197502l0.182892,-0.141073l-0.007034,-0.105805l-0.182892,-0.162234l-0.29544,-0.141073l-0.288406,-0.049375l-0.281372,-0.070536l-0.274338,-0.197502l-0.2462,-0.063483l-1.631957,-0.007054l-0.154755,0.084644l-0.056274,0.126966l-0.007034,0.211609l-0.154755,0.162234h-0.337646l-0.2462,-0.042322l-0.119583,-0.148126l-0.309509,-0.063483l-0.717498,-0.007054l-0.225671,-0.0969l-0.323004,-0.030066l-0.668258,0.042322l-0.450758,0.130733l-0.576249,0.066769l-0.386886,0.105805l-0.323578,0.169287Z M1493.808085,51.272652l-0.028137,0.197502l0.975423,0.536077l0.281372,0.507862l0.159444,0.498457l0.018758,0.714769l-0.112549,0.244526l0.075033,0.695959l0.262614,0.197502l0.028137,0.235121l-0.10317,0.282146l0.046895,0.216312l0.79722,0.291551h0.49709l1.575683,0.34798l0.815978,0.291551l0.515848,0.056429l0.881632,-0.103453l0.140686,-0.150478l0.009379,-0.169287l-0.506469,-0.442028l-0.028137,-0.150478l0.150065,-0.112858l0.609639,0.037619l2.035257,0.300955l0.19696,-0.056429v-0.084644l-0.131307,-0.197502l0.018758,-0.244526l0.356404,-0.197502l0.009379,-0.075239l-0.290751,-0.150478l-0.928527,-0.178692l-1.031697,-0.01881l-0.19696,-0.047024l-0.028137,-0.131668l0.393921,-0.338575l0.628397,-0.225717l0.581502,-0.056429l0.769083,-0.34798l0.347025,-0.065834l0.468953,0.056429l0.187581,0.028215l0.112549,-0.075239l0.018758,-0.216312l0.10317,-0.075239l0.543986,-0.009405l0.675293,0.188097l0.468953,0.065834l1.331827,-0.075239l0.468953,0.01881l0.440816,0.075239l0.384542,-0.065834l0.037516,-0.178692l-0.19696,-0.282146l-0.590881,-0.366789l-0.891011,-0.357385l-0.534607,-0.263336l-0.806599,-0.225717l-2.607379,-0.423219l-0.468953,-0.047024l-0.337646,-0.103453l-0.356404,-0.028215l-0.553365,0.065834l-0.356404,-0.009405l-0.356404,-0.122263l-0.365783,-0.075239l-2.438556,0.047024l-0.243856,0.047024l-0.140686,0.112858l-0.262614,0.065834h-0.234477l-0.253235,-0.103453l-0.356404,-0.047024l-0.525228,0.01881l-0.309509,0.150478h-0.178202l-0.225098,-0.037619l-0.712809,0.037619l-0.356404,0.084644l-0.375163,0.01881Z M1530.264648,45.648792l0.018685,0.256283l1.045692,0.416514l0.710464,0.323907l0.274338,0.248099l1.111419,0.537548l0.239166,0.206749l-0.014069,0.165399l-0.105514,0.137833l0.126617,0.0827l0.685184,0.004738l1.420049,-0.347813l1.943225,-0.384425l1.214515,0.054918l1.662952,-0.237977l2.148758,-0.09153l3.624861,-1.098356l2.4664,-1.66584l0.242903,-0.366119l-0.018685,-0.164753l-0.523176,-0.347813l-0.018685,-0.183059l-0.224218,-0.183059h-0.429752l-0.018685,-0.109836l1.121091,-0.402731l0.056055,-0.366119l-0.467121,-1.006826l-0.934243,-0.640708l-0.766079,-0.439342l-1.793746,-0.366119l-1.588212,-0.018306l-1.513473,0.366119l-0.635285,0.402731l-0.504491,0.896991l-0.03737,0.384425l0.336327,0.402731l-0.018685,0.402731l-0.560546,0.49426l-1.008982,0.256283l-3.232479,-0.054918l-1.214515,0.146447l-0.878188,0.292895l-0.298958,0.329507l-0.336327,0.237977l-1.382679,0.366119l-1.92454,1.061744Z M1487.631972,41.011249l0.028137,0.149528l1.364654,0.434992l1.828917,0.475772l1.125488,0.135935l0.60495,0.244683l0.450195,0.31265l0.014069,0.231089l0.225098,0.27187l0.99887,0.367024l0.914459,0.163122l0.506469,0.258276v0.203902l-0.112549,0.217496l0.140686,0.190309l1.660094,0.475772l1.322448,0.163122l0.872253,-0.081561l0.422058,-0.244683l0.562744,-0.502959l1.631957,-0.31265l0.154755,-0.149528l-0.19696,-0.163122l-0.872253,-0.285463l-0.337646,-0.04078l-0.478332,0.067967l-0.379852,-0.067967l-0.309509,-0.203902l-1.772643,-0.747642l-0.407989,-0.108748l-0.014069,-0.122341l0.140686,-0.081561l-0.19696,-0.135935l-0.872253,-0.095154l-0.534607,-0.013593l-0.506469,-0.176715l-0.619018,-0.054374l-0.661224,0.095154l-0.60495,-0.027187l-0.562744,-0.163122l-0.745635,-0.407805l-0.99887,-0.149528l-0.858184,0.095154l-1.336516,-0.04078l-0.731567,-0.135935l-0.309509,-0.163122l-0.379852,-0.013593l-0.168823,0.135935Z M1476.700675,42.139509l0.028137,0.122341l0.830047,0.217496l1.674163,0.244683l0.281372,0.163122l0.070343,0.367024l0.436126,0.231089l1.252105,0.054374l0.731567,-0.149528l1.139556,0.217496l2.658964,0.883577l-0.014069,0.135935l-0.09848,0.203902l0.337646,0.380618l2.70117,0.407805l2.279112,0.176715l1.238036,0.339837l1.167693,0.679675l0.337646,0.475772l0.661224,0.163122l1.252105,-0.067967l0.337646,-0.135935l1.449065,-0.135935l0.520538,-0.258276l0.239166,-0.31265l0.745635,-0.407805l0.014069,-0.122341l-0.80191,-0.31265l-0.478332,-0.326244l-1.167693,-0.31265l-2.321318,-0.299057l-0.99887,-0.231089l-0.393921,-0.217496l-0.239166,-0.244683l-0.365783,-0.190309l-0.365783,-0.067967l-0.29544,-0.203902l-0.154755,-0.31265l-0.478332,-0.231089l-1.477202,-0.285463l-0.407989,-0.108748l-0.29544,-0.203902l-1.167693,-0.27187h-1.041076l-1.646025,0.258276h-1.308379l-0.520538,-0.190309l-0.225098,-0.217496l-0.956664,-0.380618l-0.436126,0.013593l-0.323578,-0.081561l-0.225098,-0.258276l-0.393921,-0.081561l-0.337646,0.095154l-0.393921,-0.054374l-0.436126,-0.244683l-0.619018,-0.108748l-0.675293,0.108748l-0.140686,0.285463l0.112549,0.231089l-0.126617,0.135935l-1.167693,0.434992Z M1483.298845,38.62312l0.084412,0.183395h0.60495l0.309509,0.112858l0.084412,0.296253l-0.309509,0.31036l0.140686,0.169287l1.449065,0.282146l1.392791,-0.056429l1.477202,-0.352682l0.60495,0.028215l0.478332,0.169287v0.141073l-0.323578,0.282146l0.070343,0.211609l1.153625,0.056429l2.869993,-1.086261l2.194701,-0.606613l1.674163,-0.239824l0.90039,-0.042322l0.815978,-0.141073l0.773773,-0.056429l0.070343,-0.084644l-0.619018,-0.169287l-0.759704,-0.112858l-0.281372,-0.268038l-0.323578,-0.070536l-0.126617,0.098751v0.126966l-0.225098,0.169287l-0.464264,-0.028215l-0.731567,-0.578399l-0.379852,-0.084644l-0.407989,0.014107l-0.450195,-0.112858l-0.309509,-0.239824l-1.19583,-0.282146l-0.633087,0.098751l-0.478332,-0.070536l-0.323578,-0.169287l-0.928527,-0.211609l-0.590881,0.098751l-1.167693,0.042322l-0.056274,0.169287l0.675293,0.719472l0.028137,0.239824l-0.351715,0.338575l0.014069,0.169287l1.280242,0.564291l-0.014069,0.15518l-0.576812,0.042322l-1.308379,-0.183395l-0.351715,-0.324468l-0.534607,-0.070536l-0.309509,0.098751l-0.365783,-0.014107l-1.041076,-0.366789l-0.661224,-0.014107l-0.309509,0.070536l-0.647155,-0.126966l-0.028137,-0.112858l0.154755,-0.070536l-0.070343,-0.098751l-0.225098,-0.042322l-0.351715,0.141073l-0.407989,0.056429h-0.281372l-0.140686,0.098751l0.140686,0.197502l0.281372,0.070536l-0.070343,0.126966l-0.464264,0.183395l-0.126617,0.15518Z M1509.804736,48.010257v0.347813l-0.373697,0.073224l-0.205533,0.164753l-0.056055,0.640708l0.355012,0.439342l0.018685,0.219671l-0.373697,0.274589l-0.056055,0.183059l0.224218,0.183059h0.467121l0.242903,0.128142l0.093424,0.347813l0.65397,0.366119l0.355012,0.311201l0.411067,0.09153l0.280273,-0.164753l1.737691,-0.347813l0.672655,-0.054918l0.896873,-0.402731l0.878188,0.054918l1.083721,0.58579l2.242182,0.457648l1.700321,0.036612l1.065037,-0.366119l0.65397,-0.58579l0.373697,-0.237977l1.008982,-0.164753l0.149479,-0.183059l-0.242903,-0.512566l0.261588,-0.530872l0.149479,-0.128142l1.401364,-0.109836l1.27057,-0.384425l0.03737,-0.146447l-0.373697,-0.183059l0.018685,-0.219671l0.186849,-0.311201l0.597915,-0.183059l0.093424,-0.183059l-0.056055,-0.219671l0.074739,-0.219671l0.149479,-0.183059l0.03737,-0.549178l-0.336327,-0.402731l-0.411067,-1.061744l-0.429752,-0.237977l-2.074018,-0.073224l-0.896873,0.146447l-0.448436,0.347813l-0.915558,0.311201l-0.429752,-0.09153l-0.504491,-0.09153l-1.27057,0.256283l-2.410346,0.164753l-1.345309,0.292895l-0.728709,-0.128142l-0.65397,-0.475954l-1.457418,-0.164753l-2.447716,0.49426l-0.355012,0.347813l0.130794,0.384425l-0.130794,0.274589l-1.046352,0.549178l-0.224218,0.475954l0.280273,0.347813Z M1441.231332,46.390503l0.056055,0.131154l-0.728709,0.243571l-0.074739,0.224835l0.317642,0.281044l0.467121,-0.037472l0.056055,-0.168626l0.205533,-0.14989l0.6166,0.037472l0.074739,0.14989l-0.336327,0.355989l0.018685,0.14989l0.523176,0.037472l1.102406,-0.262307l0.915558,0.056209l0.261588,0.281044l-0.03737,0.412197l-0.411067,0.243571h-0.878188l-0.784764,0.206099l-0.018685,0.224835l0.355012,0.112417l-0.018685,0.14989l-0.467121,0.056209l-0.65397,0.355989l-0.03737,0.318516l0.130794,0.318516l-0.093424,0.131154l-0.691339,0.037472l-0.635285,-0.168626l-0.803449,0.018736l-0.224218,0.206099v0.262307l-0.205533,0.14989l-0.467121,-0.018736l-0.130794,-0.14989l-0.298958,-0.168626l-0.57923,-0.093681l-0.784764,-0.543351l-0.915558,-0.018736l-0.784764,0.374725h-0.336327l-0.224218,-0.206099l-0.467121,-0.018736l-2.989576,0.805658l-0.971612,0.374725l-0.018685,0.168626l0.672655,0.074945l1.326624,-0.281044l2.017964,0.037472l0.859503,0.168626l0.130794,0.14989l-0.074739,0.112417l-0.018685,0.206099l0.355012,0.14989v0.168626l-1.083721,0.056209l-0.336327,-0.112417l-1.606897,-0.074945l-1.139776,0.131154l-0.03737,0.14989l0.392382,0.337252l0.65397,0.131154l1.420049,0.074945l0.541861,0.14989l-0.056055,0.131154l-0.784764,0.037472l-0.074739,0.131154l0.691339,0.206099l-0.018685,0.112417h-0.990297l-0.448436,-0.14989l-0.747394,-0.037472l-0.467121,0.224835l-0.336327,-0.074945v-0.224835l-0.485806,-0.112417h-0.485806l-0.242903,0.187362l-0.523176,0.168626l-0.560546,-0.093681v-0.131154l0.186849,-0.262307l0.541861,-0.281044l0.03737,-0.206099l-0.411067,-0.187362h-0.915558l-0.822133,0.206099l-0.448436,0.430933l-0.411067,0.168626l-0.560546,-0.018736l-0.448436,0.14989l-0.093424,0.281044l0.186849,0.29978l1.588212,0.693241l0.018685,0.206099l-0.317642,0.131154l-0.056055,0.168626l0.186849,0.243571l0.728709,0.056209l0.840818,-0.187362l0.65397,-0.037472l0.448436,0.093681l0.429752,0.018736l0.242903,-0.093681v-0.131154l-0.65397,-0.14989l-0.261588,-0.14989l0.056055,-0.187362l0.485806,-0.037472l0.560546,0.074945l1.401364,-0.056209l0.672655,-0.112417l0.056055,-0.206099l0.168164,-0.074945l0.186849,0.112417l0.691339,0.037472l0.093424,0.224835l-0.261588,0.243571l-0.57923,0.093681l-0.074739,0.14989l0.355012,0.056209l1.438734,-0.074945l0.112109,0.093681l-0.112109,0.168626l-1.289255,0.243571l-0.392382,0.018736l-0.242903,0.168626l-0.056055,0.224835l-0.934243,0.618296l0.018685,0.393461l0.280273,0.187362l0.952927,-0.206099l0.766079,-0.056209l0.57923,-0.224835l0.018685,-0.14989l-0.130794,-0.093681v-0.131154l0.112109,-0.187362h0.766079l0.57923,0.112417l0.392382,0.543351l0.205533,0.037472l0.784764,-0.543351l0.074739,-0.243571l-0.317642,-0.580823l0.093424,-0.168626l0.280273,-0.074945l0.504491,0.131154l0.336327,0.281044l1.158461,0.243571l1.065037,-0.074945l0.859503,-0.243571l0.03737,-0.224835l-0.373697,-0.224835l-0.65397,-0.056209l-0.485806,-0.187362v-0.131154l0.523176,-0.281044l-0.03737,-0.29978l-0.392382,-0.262307l-0.747394,-0.093681l-0.6166,0.131154l-0.541861,-0.056209l-0.373697,0.112417l-0.186849,-0.037472l0.018685,-0.337252l0.093424,-0.206099l0.429752,-0.168626h1.214515l0.112109,-0.187362l-0.130794,-0.393461l0.224218,-0.206099l0.448436,-0.018736l0.298958,0.131154l0.411067,0.074945l0.597915,-0.074945l0.57923,0.037472l0.691339,0.187362l0.934243,0.112417l1.2332,-0.018736l0.429752,-0.187362l0.392382,-0.056209l0.411067,-0.224835l0.074739,-0.618296l-0.186849,-0.281044l-0.65397,-0.262307l-0.018685,-0.187362l0.242903,-0.14989l1.083721,-0.037472l2.186128,-0.524615l1.19583,-0.093681l2.653249,-0.037472l1.550843,-0.281044l0.710024,-0.487142l0.186849,-0.430933l0.186849,-0.187362l0.840818,-0.056209l0.710024,-0.093681l2.391661,-1.086702l0.018685,-0.206099l-1.102406,-0.337252l-0.373697,0.018736l-0.261588,-0.056209l-0.149479,-0.243571l-0.971612,-0.524615l-0.766079,-0.056209l-0.65397,0.187362l-0.242903,0.29978l-0.57923,-0.037472l-0.205533,-0.187362l-0.355012,-0.093681l-0.710024,0.093681l-0.130794,0.224835l-0.373697,0.187362l-0.224218,-0.037472l-0.093424,-0.224835h-0.317642l-0.728709,0.487142l-0.6166,0.206099l-0.766079,-0.093681l-0.504491,-0.281044l0.093424,-0.168626l1.065037,-0.112417l1.588212,-0.711977l0.149479,-0.224835l0.168164,-0.131154h0.691339l0.934243,-0.206099l0.317642,-0.187362l-0.018685,-0.243571l-0.448436,-0.29978l-0.205533,-0.337252l-0.03737,-0.281044l-0.186849,-0.14989h-0.317642l-0.952927,0.580823l-1.345309,0.355989l-1.102406,0.074945l-0.672655,0.168626l-0.186849,0.187362l-0.485806,0.074945l-0.242903,-0.074945l-0.056055,-0.14989l-0.224218,-0.112417l-0.504491,-0.056209l-0.018685,-0.093681l1.494788,-0.355989l1.177146,-0.056209l0.429752,-0.187362l-0.03737,-0.112417l-0.560546,-0.018736l-0.336327,-0.206099l-0.541861,-0.056209l-1.775061,0.374725l-0.859503,0.29978l-0.392382,0.318516l-0.822133,0.580823l-1.121091,0.468406l-0.822133,0.037472l-1.943225,0.44967l0.03737,0.14989h0.504491Z "/>
</svg>
