<svg xmlns="http://www.w3.org/2000/svg" viewBox="1246.747 343.243 21.506 8.954">
  <path d="M1257.574187,343.682611l0.182,-0.081l0.028,-0.066l0.038,-0.024l0.056,-0.004l0.052,-0.031l0.021,-0.06l0.199,-0.115l0.094,-0.01l0.032,-0.049h0.063l0.15,0.15l0.042,0.115l0.122,0.119l0.024,0.143l0.081,0.136l0.275,0.196l0.084,0.122l0.119,0.007l0.143,-0.102h0.185l0.129,0.074l0.084,0.028l0.077,-0.011l0.244,0.07l0.126,0.091l0.084,0.042l0.185,0.157l0.024,0.108l0.059,0.045l0.335,0.116l0.22,-0.004l0.105,0.056l0.112,0.129l0.084,0.028l0.09,0.004l0.105,0.041l0.042,0.053l0.188,0.059l0.238,0.042l0.105,-0.01l0.115,-0.084l0.209,-0.011l0.129,0.053v0.073l-0.052,0.108l0.014,0.129l0.087,0.129l0.185,0.084l0.21,-0.003l0.136,-0.067l0.024,-0.104l0.042,-0.056l0.14,-0.056l0.157,0.014l0.084,-0.007l0.146,-0.063l0.419,-0.028l0.374,0.014l0.352,0.08l0.227,0.004l0.234,0.077h0.154l0.366,-0.171l0.136,-0.007l0.077,-0.042l0.129,0.003v0.147l0.042,0.066v0.217l0.049,0.087l0.066,0.003l0.067,0.074l0.007,0.101l0.115,0.094l0.017,0.136l0.105,0.032l0.035,-0.032l-0.024,-0.104l0.041,-0.053l0.074,-0.003l0.07,0.108l0.129,0.018l0.115,0.101l0.021,0.084l0.112,0.115l0.108,0.017l0.014,0.053l-0.08,0.052l0.013,0.077l0.056,0.007l0.042,-0.056l0.07,-0.004l0.052,0.032l-0.003,0.111l0.049,0.046l0.052,-0.007l0.039,-0.049l0.09,0.003l0.178,0.151l0.028,0.083l-0.084,0.105v0.091l0.154,0.077l0.014,0.062l-0.042,0.056v0.046l0.112,0.035l0.017,0.059l-0.052,0.031l0.01,0.039l0.081,0.038l-0.018,0.039l-0.049,0.01l-0.028,0.091l0.032,0.063l-0.028,0.045l-0.105,-0.003l-0.045,0.045l0.024,0.063l-0.122,0.098l-0.108,-0.007l-0.059,0.034l-0.018,0.13h-0.052l-0.032,-0.042l-0.073,0.007l-0.192,0.188l-0.077,0.021l-0.024,0.108l0.063,0.049l-0.004,0.07l-0.119,0.063l-0.031,0.101l0.021,0.063l0.073,0.017l0.007,0.053l-0.056,0.031l0.011,0.049l0.15,0.084l0.007,0.059l-0.066,0.185l-0.112,0.032l-0.073,0.076l0.003,0.088l-0.22,0.15v0.073l0.091,0.045l0.003,0.063l0.07,0.053v0.045l-0.125,0.098l-0.011,0.066l-0.045,0.073l0.003,0.14l0.094,0.091l0.007,0.073l-0.034,0.073l0.01,0.081l0.038,0.084l0.004,0.157l0.042,0.059l0.171,0.059l0.049,0.074l0.035,0.146l0.115,0.318l0.171,0.199l-0.744,0.031l-0.16,0.049h-0.154l-0.318,0.004l-0.551,0.049l-1.138,0.038l-0.063,0.035l-0.562,0.007l-0.052,-0.032l-0.297,0.056l-1.082,0.007l-0.328,0.042l-1.236,0.014l-1.351,0.045l-0.035,0.035l-0.101,-0.003l-0.049,-0.035l-0.23,-0.004l-0.381,0.067l-0.077,-0.004l-0.087,-0.066l-0.168,-0.003l-0.136,-0.035l-0.167,-0.007l-0.14,0.024l-0.105,-0.003l-0.083,-0.028l-0.088,-0.007l-0.108,0.038h-0.115l-0.405,-0.073l-0.269,-0.004l-0.147,-0.056l-0.3,-0.038l-0.391,-0.014l-0.171,-0.042h-0.331l-0.077,-0.028l-0.894,-0.031l-0.478,-0.084l-0.614,-0.021l-0.07,0.042l-0.067,-0.004l-0.118,-0.073l-0.21,-0.035l-0.422,-0.014l-1.04,-0.139l-0.231,-0.056l-3.438,-0.363l0.051,-0.133l0.093,-0.116l0.121,-0.028l0.074,-0.047l0.024,-0.051l0.056,-0.033l0.297,-0.027l0.168,-0.084l0.13,-0.196l0.061,-0.307l0.139,-0.2l0.108,-0.028l0.181,0.051l0.102,0.089l0.028,0.088l0.107,0.028l0.242,-0.116l0.224,-0.163l0.037,-0.089l0.112,-0.088l0.4,-0.103l0.293,-0.097l0.205,-0.163l0.158,-0.219h0.061l0.037,0.051l0.14,0.019l0.26,-0.116l0.061,-0.089l-0.023,-0.056l-0.2,-0.06l-0.126,-0.005l-0.089,0.042h-0.153l-0.14,-0.037l-0.395,-0.014l-0.07,0.032l-0.103,0.01l-0.093,-0.033h-0.125l-0.168,0.084l-0.27,0.288l-0.093,0.01l-0.209,-0.163l-0.047,-0.121l0.014,-0.172l-0.107,-0.238l-0.163,-0.037l-0.233,0.009l-0.195,0.177l-0.042,0.2l-0.014,0.242l0.112,0.103l-0.028,0.079l-0.21,0.07l-0.2,-0.047l-0.098,-0.056l0.038,-0.144l0.242,-0.316l0.149,-0.308l0.121,-0.465l-0.014,-0.256l-0.191,-0.498v-0.461l0.186,-0.275l0.079,-0.19l0.093,-0.01l0.2,0.103l0.247,0.028l0.261,-0.01l0.2,0.019l0.251,-0.014l0.233,-0.093h0.288l0.089,-0.051l0.107,0.009l0.121,0.121l0.219,0.074l0.33,0.038h0.207l0.631,-0.228l0.557,-0.306l0.185,-0.125l0.051,-0.093l0.074,-0.07l0.14,-0.055l0.454,-0.385l0.228,-0.27l0.092,-0.171l0.372,-0.404l0.134,-0.097l0.404,-0.46l0.373,-0.469l0.094,0.024l0.098,0.025l-0.014,0.041l0.087,0.066l-0.013,0.023l-0.263,0.096l-0.035,0.049l-0.007,0.059l-0.082,0.086l-0.079,0.037l-0.295,0.328l-0.018,0.069l-0.049,0.064l-0.106,0.087l-0.01,0.069l0.04,0.076l-0.045,0.071l-0.246,0.106l-0.279,0.24l-0.069,0.098l-0.234,0.242l-0.463,0.35l-0.153,0.059l-0.067,0.061l-0.005,0.089l-0.037,0.035l-0.066,0.015l-0.077,0.069l-0.041,0.064l-0.121,0.074l-0.141,0.014l-0.066,0.045l-0.059,0.125l0.027,0.099l0.236,0.118l0.133,0.01l0.069,-0.042h0.269l0.104,0.032l0.155,0.013l0.111,0.037l0.246,-0.015l0.116,-0.042l0.123,-0.091l0.129,0.007l0.224,0.109l0.2,0.239l0.101,0.051h0.076l0.062,-0.032l0.096,0.005l0.145,0.047l0.459,0.077l0.086,-0.01l0.032,-0.047l0.052,-0.003l0.064,0.052l0.096,-0.007l0.047,-0.057l0.049,0.003l0.069,0.049l0.106,0.007l0.074,-0.098l0.091,-0.037l0.079,0.012l0.271,-0.084l0.217,-0.01l0.168,-0.091l0.153,-0.182l0.014,-0.151l-0.061,-0.147l-0.069,-0.057l-0.037,-0.123l-0.057,-0.037l-0.02,-0.092l0.042,-0.078l-0.045,-0.28l-0.003,-0.195l-0.174,-0.822l-0.027,-0.3l0.096,-0.075l0.145,-0.027l0.022,0.024l-0.022,0.078l0.025,0.052l0.037,-0.003l0.021,-0.046l0.081,-0.013l0.096,0.025l0.133,-0.065l0.093,-0.207l-0.031,-0.146l-0.078,-0.024l-0.016,-0.064z M1246.746938,350.91193l0.029,0.02l0.032,0.023l0.189,-0.151l0.136,-0.063l0.157,-0.15l0.066,-0.01l0.039,-0.042l0.042,-0.105l0.171,-0.168l0.038,-0.104l0.115,-0.091l0.074,-0.042l0.076,-0.063l0.067,-0.143l0.22,-0.216l0.111,-0.067l0.053,-0.073l0.01,-0.147l-0.056,-0.035l-0.069,0.091l-0.266,0.335l-0.37,0.398l-0.474,0.426l-0.119,0.15l-0.271,0.227z"/>
</svg>
