<svg xmlns="http://www.w3.org/2000/svg" viewBox="2010.341 99.281 150.773 52.683">
  <path d="M2158.980629,104.713829l0.407994,-0.296723l1.149802,-0.111271l0.556356,0.148361l0.018545,0.241087l-0.556356,0.278178l-0.96435,0.074181l-0.407994,-0.111271l-0.203997,-0.222542Z M2149.819306,99.947716l0.426539,0.166907l1.780338,-0.111271l0.482175,-0.296723l-0.074181,-0.278178l-0.445084,-0.148361l-1.743248,0.185452l-0.723262,0.315268l0.018545,0.166907h0.278178Z M2124.110026,112.619252l-0.098908,0.331349l0.32145,0.508068l0.791261,0.397619l0.939623,-0.08836l0.543992,-0.596428l0.222542,-0.839417l-0.494538,-0.287169l-0.914896,0.04418l-1.310527,0.530158Z M2122.453323,117.854565l-0.296723,0.331349l0.148361,0.309259l0.593446,0.04418l1.236346,-0.220899l0.024727,-0.287169l-0.445084,-0.331349l-0.568719,-0.04418l-0.692354,0.198809Z M2097.009327,106.107141l-0.173088,0.331349l0.148361,0.331349l0.815988,0.220899l3.140318,-0.02209l1.533069,-0.353439l0.469811,-0.706878l0.469811,-0.419709l0.815988,-0.574338l-0.024727,-0.220899l-0.271996,-0.15463h-0.989077l-0.840715,0.265079l-1.805065,0.176719l-1.434161,0.353439l-0.6429,0.375529l-1.211619,0.397619Z M2011.281111,122.793512l-0.074181,0.611801l0.519265,0.395871l1.743248,-0.071977l0.853079,-0.719766l0.222542,-0.935696l0.519265,-1.043661l0.704717,-0.467848l0.074181,-0.287906l-1.854519,-1.187614l-1.186892,-1.979357l-0.296723,0.035988l0.03709,0.935696l-0.482175,1.223602l-0.185452,0.791743l0.148361,0.539825l-0.407994,1.871392l-0.333813,0.287906Z M2010.539304,138.177217l-0.197815,0.296723l0.024727,0.469811l0.420358,0.96435l0.395631,0.247269l0.618173,0.074181l0.939623,0.840715l0.271996,0.741807l0.6429,0.445084l2.126515,0.717081l0.989077,-0.173088l0.173088,-0.370904l-0.469811,-1.310527l-1.2858,-1.063257l-2.200695,-1.063257l-0.519265,-0.543992l-0.618173,-0.247269l-1.310527,-0.024727Z M2042.103211,140.696893l1.075621,1.436174l1.131256,0.570535l0.834533,-0.039347l0.370904,-0.393472l0.853079,-0.511514l0.890169,-0.059021l0.611991,-0.393472l0.166907,-0.688576l-0.222542,-0.550861l0.03709,-0.373799l0.352359,-0.550861l-0.092726,-0.668903l-0.982895,-0.531187l-1.279618,-0.177062l-1.817428,0.137715l-1.483615,0.452493l-0.407994,0.609882l-0.166907,0.944333l0.129816,0.786944Z M2045.867884,142.487191l0.166907,-0.039347l0.370904,-0.354125l-0.055636,-0.137715l-0.148361,0.019674l-0.352359,0.373799l0.018545,0.137715Z M2039.618156,148.841767l-0.148361,0.288546l0.098908,0.419704l0.667627,0.314778l1.335253,-0.157389l1.755611,-0.629556l1.805065,-0.262315l1.978153,0.262315l4.154122,1.442731l4.871202,0.603324l1.063257,0.288546l0.494538,0.052463l0.717081,-0.18362l2.175969,0.341009l1.730884,0.341009l0.741807,-0.078694l0.791261,-0.341009l0.791261,0.078694l0.049454,-0.157389l-0.445084,-0.419704l-0.420358,-0.839407v-1.60012l0.32145,-0.314778l-0.024727,-0.367241l-1.631976,-1.4165l-1.607249,-0.839407l-1.805065,-1.101722l-0.815988,-0.682018l-1.508342,-0.52463l-0.445084,0.052463l-0.519265,-0.104926l-0.766534,-0.472167l-0.989077,-0.236083l-2.893049,0.445935l-0.815988,0.393472l-0.865442,0.157389l-0.420358,-0.052463l-0.271996,-0.209852l-0.519265,0.026231l-1.03853,0.682018l-1.186892,1.862435l-0.420358,1.101722l-0.890169,0.839407l-1.186892,0.629556l-1.706157,0.209852h-1.730884l-0.469811,0.157389Z M2081.629186,125.372889l-0.074181,0.193112l1.335253,0.796586l2.621053,0.70003l1.928699,0.844864l0.593446,0.434501l1.384707,0.45864l1.236346,0.072417l0.692354,0.144834l2.274876,1.15867l0.494538,0.579335l1.162165,0.555196l2.373784,0.313806l1.063257,0.289668l3.165045,0.096556l1.03853,-0.193112l0.96435,0.193112l0.445084,-0.048278l0.370904,-0.337945l2.991957,-0.772447l3.066138,-0.482779l0.568719,-0.048278l0.222542,-0.289668l0.222542,-0.989697l-0.024727,-0.482779l0.222542,-0.313806l0.593446,-0.410362l0.519265,-0.675891l0.469811,-0.168973v-0.24139l-0.494538,-0.193112l-0.741807,0.024139l-1.112711,0.531057l-0.494538,0.072417l-0.815988,-0.24139l-0.939623,-0.772447l-0.96435,-0.362084l-2.027607,-0.265529l-2.596326,-0.482779l-1.03853,0.024139l-1.162165,0.45864l-1.879246,0.289668l-1.03853,-0.120695l-0.692354,-0.482779l-0.173088,-0.724169l0.370904,-0.555196l-0.148361,-0.362084l-0.519265,-0.313806l-1.236346,-0.144834l-1.236346,0.168973l-1.03853,-0.048278l-0.989077,-0.45864l-0.96435,-0.120695l-0.543992,0.072417l-0.247269,0.168973h-0.914896l-0.445084,0.193112l-0.741807,0.506918l0.024727,0.362084l-0.296723,0.168973l-1.310527,0.096556l-1.186892,-0.410362l-0.840715,-0.965558l0.049454,-0.482779l0.543992,-0.434501l-0.098908,-0.45864l-1.2858,-0.796586l-0.741807,0.024139l-0.271996,0.337945l-0.074181,0.555196l0.148361,0.410362l-0.271996,0.603474l-0.6429,0.410362l-0.173088,0.410362l0.148361,0.603474l0.271996,0.337945l-0.148361,0.410362l-0.568719,0.482779l-0.370904,0.096556Z M2048.050034,114.027578l0.123635,-0.072417l-0.024727,-0.144834l-0.6429,-0.120695l-0.123635,0.096556l0.271996,0.168973l0.395631,0.072417Z M2076.597258,121.969295l0.148361,-0.144834l-0.593446,-0.796586l-0.741807,-0.398293l-2.188332,-0.579335l-0.778898,-0.579335l-0.96435,-0.325876h-1.075621l-1.075621,-0.434501l-1.706157,-0.977628l-2.522145,-0.579335l-1.557796,0.072417l-1.186892,0.543127l-1.149802,-0.072417l-2.744688,-0.68796l-1.112711,-0.47071l-0.778898,-0.869003l-3.597766,-2.208715l-1.409434,-0.325876l-1.149802,-0.506918l-0.259633,0.072417l0.148361,0.325876l1.112711,0.905211l0.815988,0.977628l-0.259633,0.072417l-2.077061,-0.651752l-1.335253,-0.036208l-0.778898,0.289668l-0.482175,1.086253l-0.185452,2.353549l0.222542,1.231087l0.667627,0.651752l-0.222542,0.181042l-0.704717,-0.036208l-0.593446,-0.651752l-1.372344,-0.253459l-0.111271,0.217251l0.03709,0.289668l-0.407994,-0.036208l-0.148361,-0.362084l0.333813,-0.434501l-0.296723,-0.651752l-1.075621,-0.434501h-1.186892l-2.151242,-0.869003l-0.03709,-0.362084l0.482175,-0.362084l0.667627,-0.144834l-0.074181,-0.253459l-1.298163,-0.362084h-0.853079l-0.630536,-0.217251l-0.445084,-0.543127l-1.03853,-0.47071l-0.778898,-0.144834l-1.075621,-0.832794l-0.185452,-0.434501l0.148361,-0.325876l-0.259633,-0.144834l-1.112711,-0.036208l-1.96579,0.506918l-0.407994,0.398293l-0.111271,0.651752l-0.296723,0.036208l-0.556356,-0.434501h-0.667627l-0.482175,0.398293l-0.222542,0.68796l-0.630536,0.543127l-1.817428,0.181042h-1.00144l-1.409434,0.941419l0.03709,0.543127l0.96435,0.832794l-0.074181,0.47071l-0.185452,0.398293l-0.778898,0.036208l-0.815988,-0.181042l-0.741807,0.144834l-0.333813,0.651752l0.370904,0.434501v0.506918l-0.482175,0.398293l-0.778898,0.253459v0.289668l1.594886,0.796586l0.259633,0.434501l-0.074181,0.398293l-0.556356,0.253459l-0.03709,0.325876l0.370904,0.217251l0.519265,-0.144834l0.96435,0.217251l0.074181,0.434501l-0.704717,0.434501l-1.186892,-0.036208l-0.370904,-0.506918l-0.630536,-0.072417l-0.667627,0.217251l-0.03709,0.543127l0.445084,1.086253l1.186892,0.941419l0.630536,0.905211l0.96435,0.68796l1.298163,0.398293l1.557796,1.013836l0.630536,0.832794l1.557796,1.267295l2.373784,0.47071l2.00288,0.579335l1.446525,0.615543l1.335253,-0.072417l1.631976,-1.122462l0.667627,-1.122462l-0.074181,-0.289668l-0.482175,-0.398293l0.111271,-0.905211l0.704717,-0.362084l1.631976,0.398293l0.815988,0.68796l0.185452,0.760377l-0.407994,0.217251l-0.667627,-0.072417l-0.148361,0.181042l0.593446,0.217251l1.706157,-0.217251l2.559236,-0.796586l6.268273,-0.905211l2.188332,-0.905211l2.151242,-0.108625l0.519265,0.325876l0.667627,0.832794h-0.333813l-0.704717,-0.543127l-0.853079,-0.072417l-0.556356,0.289668l-0.074181,0.47071l1.186892,0.760377l1.446525,0.47071l1.520705,0.072417l0.630536,-0.289668l0.111271,-0.434501l0.333813,-0.217251l0.741807,0.217251l2.114151,-0.398293l2.00288,0.036208l1.149802,-0.434501l0.185452,-0.47071l-0.704717,-0.579335l-0.890169,-0.108625l-0.778898,0.108625l-2.633416,-0.796586h-0.96435l-1.149802,-0.543127l-1.854519,-2.353549l-0.778898,-0.651752l-0.556356,-0.941419l0.185452,-0.506918l-0.111271,-0.47071l-0.370904,-0.434501l0.148361,-0.651752l1.261073,-1.339712l1.483615,-0.832794l2.188332,-0.072417l1.149802,0.506918l0.222542,0.651752l-0.333813,0.615543l-1.743248,0.724169l-1.186892,1.194879l-0.482175,1.122462l0.185452,0.434501l1.00144,0.434501l1.186892,1.194879l0.222542,0.796586l0.704717,0.398293l2.596326,0.832794l2.633416,-0.144834l0.593446,0.289668l0.03709,0.362084l0.704717,0.253459l2.596326,-0.68796l1.854519,-1.194879l0.704717,-1.231087l0.593446,-0.253459l0.111271,-0.325876l-0.556356,-0.543127l-0.148361,-0.905211l1.223982,-0.977628l1.706157,-0.579335l0.853079,0.144834Z "/>
</svg>
