<svg xmlns="http://www.w3.org/2000/svg" viewBox="1456.465 101.016 116.377 83.828">
  <path d="M1551.431787,106.067039l0.056018,-0.522407l1.157711,-0.882687l0.989656,-0.09007l1.336297,-0.439269l0.473043,-0.576449l1.743535,-0.644723l1.369336,-0.168131l0.199176,-0.144112l0.124485,-0.36028l0.49794,-0.288224h0.448146l0.448146,0.240187l0.522837,-0.048037l1.070572,-0.624486l2.091349,-0.504393l2.315422,0.096075l0.522837,0.336262l0.846498,0.144112l0.846498,-0.024019l0.647322,0.216168l0.099588,0.384299l0.224073,0.120093l0.49794,0.024019l1.294645,0.744579v0.168131l-0.24897,0.144112l-0.024897,0.384299l0.79596,0.452574h0.473043l0.149382,0.216168l-0.124485,0.216168v0.432336l0.568324,0.151045l-0.099588,0.288224l-0.796704,0.288224l-0.51975,0.528556l-0.024897,0.600467l0.298764,0.264206l0.473043,0.048037l0.049794,0.168131l-0.647322,0.312243l-0.771807,0.600467l-0.129913,0.309646l-0.622425,0.480374l-0.49794,0.024019l-0.547734,0.264206v0.384299l-0.622425,0.55243l-0.722013,0.19215l-0.224073,0.19215l0.024897,0.240187l0.597528,0.288224l-0.099588,0.144112h-0.970983l-1.269748,0.336262l-2.514598,1.032804l-0.846498,0.120093l-0.547734,0.19215l-0.473043,0.456355l-1.842379,0.624486l-2.589289,0.576449l-0.49794,0.024019l-0.273867,0.120093l-0.149382,0.19215l-0.49794,0.168131l-0.572631,-0.120093l-0.647322,0.120093l-0.174279,0.216168l-0.846498,0.144112l-0.473043,-0.144112l-0.149382,0.072056l-0.124485,0.336262l-0.871395,0.36028l-0.622425,-0.024019l-0.921189,0.288224l-0.647322,0.384299l-1.911487,0.10678l-0.149382,0.19215l-0.24897,0.072056l-0.459476,-0.00937l-1.447618,0.296947l-0.904632,0.392254l-0.448146,0.36028l-0.49794,0.096075l-1.244851,0.048037l-1.045675,0.19215l-0.796704,0.312243l-0.398352,0.384299l-0.522837,0.144112l-0.448146,0.024019l-0.298764,0.144112l-0.224073,0.336262l-0.423249,0.048037v-0.19215l0.273867,-0.120093l-0.049794,-0.19215l-0.49794,-0.240187l-0.024897,-0.432336l-0.199176,0.024019l-0.647322,0.672523l-0.174279,0.456355l-0.796704,0.456355l-1.543615,0.336262l-0.821601,-0.024019l-1.369336,0.408318l-0.298764,0.312243l-0.722013,0.240187h-0.572631l-1.070572,0.384299l-0.896292,0.600467l-0.373455,0.024019l-0.273867,-0.144112l-1.568512,-0.096075l-0.373455,0.048037l-0.099588,0.144112l0.074691,0.432336l-0.572631,0.480374l-0.348558,0.024019l-0.174279,-0.168131h-0.323661l-0.398352,0.720561l-0.273867,0.864673l-0.473043,0.19215l-0.348558,0.36028h-0.49794l-0.149382,-0.384299l0.049794,-0.792617l-0.224073,-0.168131l-0.298764,0.048037l-0.149382,0.432336l-1.120366,1.032804l-0.697116,0.072056l-0.522837,-0.19215l-0.24897,0.120093l-0.024897,0.504393l-0.199176,0.19215l-0.273867,0.048037l-0.199176,0.264206l0.074691,0.768598l-0.348558,0.600467l-0.373455,0.096075l-0.697116,-0.19215l-0.012449,-0.45035l0.166751,-0.380234l-0.018687,-0.1782h-0.260101l-0.586716,0.364982l-0.130709,0.684533l-0.429473,0.306238l-1.643203,0.162126l-0.87762,-0.126098l-0.130709,0.126098l0.485492,0.36028l1.437802,0.144112l1.456475,-0.126098l0.597528,0.162126l0.242746,0.306238l-0.093364,0.45035l-0.672219,0.468364l-1.101693,0.09007l-1.045675,-0.162126l-0.074691,0.162126l0.2054,0.432336l0.578856,0.342266l-0.056018,0.414322l-0.616201,0.342266l-1.437802,0.234182l-1.923294,-0.324252l-0.130709,0.162126l0.672219,0.576449l0.560183,0.234182l0.018673,0.666519l-0.268219,0.41281l-0.590728,0.091582l-1.493821,-0.36028l-1.41913,-1.170911l-1.027002,-0.45035l-0.093364,0.162126l0.354782,0.666519l-0.074691,1.044813l-0.485492,1.170911l0.037346,0.378294l0.280091,0.216168l-0.112037,0.18014l-1.456475,-0.144112l-1.531166,-0.846659l-2.595514,-0.756589l-0.186728,0.108084l0.373455,0.432336l1.045675,0.198154l0.914965,0.630491l0.354782,0.756589l-0.056018,0.288224l0.354782,1.441121l-0.354782,0.702547l-1.08302,0.522407l-0.87762,-0.126098l-0.168055,0.144112l0.149382,0.342266l-0.168055,0.198154l-0.87762,-0.18014l-0.186728,0.144112l0.2054,0.594463l-0.037346,0.216168l0.298764,0.594463l-0.280091,0.306238l-0.634874,0.434531l-2.203386,-0.702547l-0.578856,-0.576449l-0.690892,-1.224953l-0.728238,-0.234182l-0.224073,0.072056l0.2054,0.378294l0.597528,0.558435l0.018673,0.594463l0.317437,0.486378l1.661876,1.242967l0.130709,0.378294l-0.168055,0.432336l0.037346,0.594463l0.186728,0.324252l-0.224073,0.342266l-1.064347,0.414322l-0.373455,-0.252196l-0.933638,-1.026799l-0.821601,-0.216168l-2.576841,-0.144112l-0.112037,0.162126l0.560183,0.162126l1.493821,0.162126l1.344439,0.738575l0.784256,1.152897l0.056018,0.504393l-0.392128,0.378294l-1.62453,0.396308l-2.222058,-0.468364l-1.195057,-1.044813l-0.485492,-0.216168l-0.074691,0.09007l0.392128,0.504393l0.616201,0.432336l-0.074691,0.144112l-0.578856,0.054042l-0.056018,0.144112l0.298764,0.108084l0.560183,-0.054042l1.064347,0.396308l1.157711,0.774603l0.037346,0.432336l-1.486955,1.638384l-0.672219,0.18014l-0.410801,-0.144112l-0.224073,-0.324252h-0.186728l-0.112037,0.414322l0.112037,0.324252l-0.168055,0.45035l-0.616201,0.216168l-1.28842,-0.27021l-1.101693,-0.072056l-0.933638,0.054042l-0.634874,-0.252196l-0.130709,-0.486378v-0.684533l-0.429473,-0.558435l-0.392128,-0.198154l-0.373455,-0.504393h-0.149382l0.130709,0.576449l0.690892,0.45035l0.130709,1.008785l-0.168055,0.162126l-0.392128,-0.072056l-0.466819,-0.324252l-0.970983,-0.108084l-0.634874,0.126098l-0.914965,0.018014l-0.821601,-0.252196l-0.392128,-0.414322l-1.531166,-0.540421l-1.08302,-0.09007l-1.251075,0.342266l-0.33611,0.216168l-0.280091,0.072056l-0.373455,-0.036028l-0.354782,0.126098l-0.87762,0.558435l-0.634874,0.108084l-0.54151,-0.18014l-0.578856,-0.036028l-0.056018,-0.252196l0.410801,-0.324252l0.970983,-0.09007l0.448146,-0.45035l0.672219,-0.27021l-0.074691,-0.108084l-0.280091,-0.054042l-0.485492,0.126098l-0.690892,-0.216168l0.074691,-0.18014l0.653547,-0.378294l0.354782,-0.504393l1.512494,-0.720561l1.213729,-0.324252h0.989656l1.139038,-0.504393l-0.112037,-0.126098h-0.634874l-0.709565,0.27021l-0.578856,-0.036028l-0.54151,-0.126098l-1.605857,0.126098l-0.933638,0.648505l-0.74691,0.306238l-1.363111,-0.18014l-0.989656,-0.792617l-1.381784,-0.486378l-0.037346,-0.414322l0.186728,-0.36028l0.2054,0.036028l0.093364,0.162126l1.008329,0.126098l1.139038,-0.576449l0.429473,-0.612477l1.580319,-1.025908l2.147367,-0.324252h1.157711l0.074691,-0.108084l-0.242746,-0.126098l-0.989656,-0.108084l-0.373455,-0.09007l-0.056018,-0.18014l0.578856,-0.612477l2.240731,-1.188925l1.064347,-0.506588l0.672219,0.234182l0.970983,0.216168l0.709565,0.018014l1.008329,0.27021l1.008329,0.522407l0.298764,0.288224l0.87762,0.126098l1.307093,-0.108084l0.672219,0.126098l0.074691,-0.108084l-0.224073,-0.198154l-0.672219,-0.09007l-0.392128,0.108084l-0.821601,-0.054042l-0.802929,-0.378294l-0.597528,-0.45035l-0.373455,-0.18014l-0.448146,-0.018014l-0.33611,-0.144112l-0.074691,-0.288224l-1.344439,-0.522407l-1.157711,-0.234182l-0.373455,0.036028l-0.33611,-0.198154l0.074691,-0.234182l0.728238,-0.342266l0.2054,0.036028l0.112037,0.198154l0.634874,0.054042l1.269748,-0.198154l0.298764,0.054042l0.112037,0.126098l0.485492,0.09007l0.653547,-0.144112l-0.018673,-0.144112l-0.821601,-0.414322l-0.392128,-0.018014l-0.280091,-0.108084l-0.093364,-0.198154l-0.224073,-0.054042h-0.597528l-0.74691,-0.108084v-0.252196l0.392128,-0.486378l0.429473,-0.036028l0.130709,0.09007h0.317437l0.728238,-0.288224l2.968969,-0.144112l0.914965,-0.162126v-0.126098l-0.317437,-0.072056l-0.392128,0.072056l-0.485492,-0.126098l-0.018673,-0.234182l0.074691,-0.234182l-0.149382,-0.108084l-1.176384,-0.036028l-0.54151,0.216168l-0.466819,-0.144112l-0.018673,-0.162126l-0.578856,-0.27021l-0.112037,-0.342266l0.261419,-0.594463l1.101693,-0.648505l0.522837,-0.054042l0.560183,0.252196l0.373455,-0.054042l0.392128,-0.252196l1.96064,-0.378294l0.560183,0.054042l0.765583,0.45035l0.728238,0.036028l0.896292,-0.054042l0.317437,-0.18014l0.392128,0.018014l0.130709,-0.144112l-0.242746,-0.144112l-0.616201,0.018014l-0.373455,0.144112l-0.672219,-0.036028l-0.373455,-0.198154l-0.448146,-0.378294l-0.504165,-0.036028l-0.018673,-0.144112l0.672219,-0.27021l0.093364,-0.288224l-0.168055,-0.054042l-0.522837,0.198154l-1.344439,-0.054042l-1.307093,0.198154l-1.027002,-0.18014l-0.33611,0.072056l-0.149382,-0.108084l0.149382,-0.27021l1.717894,-0.702547l1.493821,-0.36028l0.33611,0.072056l0.168055,-0.126098l-0.130709,-0.288224l-0.485492,-0.072056l-0.130709,-0.324252l0.392128,-0.378294l-0.074691,-0.252196l-0.709565,-0.216168l-1.176384,0.27021l-0.466819,0.342266l-0.840274,0.072056l-0.093364,-0.234182l0.410801,-0.846659l-0.112037,-0.288224l-0.672219,-0.108084l-0.224073,0.144112l-0.168055,-0.09007l0.504165,-1.008785l0.634874,-0.540421l0.914965,-0.072056l1.157711,0.288224l0.485492,-0.036028l0.448146,0.198154l0.522837,0.738575v0.45035l0.242746,0.054042l0.634874,-0.306238l0.485492,-0.702547l1.101693,-0.900701l0.54151,-0.162126l0.429473,-0.486378l-0.149382,-0.18014l-1.139038,-0.09007l-0.33611,-0.306238l0.130709,-0.468364l1.493821,-0.756589l1.008329,-0.054042l0.709565,0.198154l0.634874,-0.054042l0.429473,0.162126l0.168055,0.252196l0.802929,0.306238l1.904621,0.09007l0.410801,-0.162126l0.112037,-0.306238l-0.2054,-0.072056l-0.522837,0.108084l-0.466819,-0.108084l-0.130709,-0.36028l0.149382,-0.558435l-0.149382,-0.216168l-0.653547,-0.252196l-0.2054,-0.288224l0.280091,-0.486378l1.251075,-0.432336l2.595514,-0.36028l0.840274,-0.306238l0.056018,-0.306238l-0.429473,-0.18014l-1.045675,0.108084l-0.709565,-0.162126l0.056018,-0.234182l0.616201,-0.216168l1.120366,-0.144112l1.108558,0.199458l1.251075,-0.27021l0.224073,-0.378294l-0.186728,-0.162126l-0.392128,0.072056l0.018673,-0.144112l0.410801,-0.288224l0.466819,-0.036028l0.130709,-0.144112l0.2054,-0.414322l0.821601,-0.486378l1.120366,0.09007l0.578856,0.054042l1.101693,-0.324252l0.317437,-0.540421l0.634874,-0.234182l1.213729,0.216168l2.37144,-0.666519l1.456475,-0.126098l0.690892,-0.234182l0.018673,-0.252196l-0.74691,-0.396308l-0.74691,0.036028l-0.130709,-0.198154l0.858947,-0.630491l2.035331,-0.45035l0.970983,0.054042l0.485492,0.09007v0.144112l-1.363111,0.864673l-0.298764,0.378294l0.056018,0.162126l0.840274,0.09007l0.933638,-0.144112l0.149382,-0.36028l0.2054,-0.126098l0.858947,0.036028l0.784256,-0.216168l0.093364,-0.342266l0.261419,-0.36028l0.373455,-0.144112l0.018673,-0.144112l-0.392128,-0.252196l-0.896292,0.036028l-0.466819,-0.162126v-0.288224l0.616201,-1.206939l0.634874,-0.306238l0.429473,-0.036028l0.410801,0.108084l2.072676,-0.18014l0.466819,-0.144112l0.168055,-0.234182l0.280091,-0.018014l0.597528,0.36028h0.33611l0.354782,-0.198154l0.224073,0.054042l0.130709,0.288224l0.896292,0.162126l1.176384,0.072056l0.504165,-0.126098l0.504165,0.108084l0.130709,0.18014l-0.224073,0.684533l0.224073,0.18014l0.560183,0.018014l0.392128,-0.198154v-0.36028l0.186728,-0.054042l0.224073,0.216168l0.242746,-0.054042l0.448146,-0.666519l0.33611,-0.072056l0.429473,0.252196l0.149382,0.342266l0.672219,0.288224l0.522837,-0.144112l1.587185,-0.738575l2.586534,-0.756727l0.728238,-0.018014l0.54151,-0.126098l0.392128,0.09007l0.485492,0.306238l0.522837,0.036028l0.653547,-0.252196l0.149382,-0.198154l0.709565,-0.234182l0.410801,0.054042l0.298764,-0.108084l0.186728,-0.36028l0.2054,-0.072056l0.765583,0.342266l0.672219,0.108084l0.056018,-0.09007l-0.410801,-0.342266l-0.018673,-0.36028l0.429473,-0.414322l0.33611,0.018014l0.149382,-0.09007l-0.018673,-0.342266l0.392128,-0.324252l1.176384,-0.072056l0.410801,0.216168l0.168055,0.27021l0.54151,-0.09007l1.08302,-0.594463l0.224073,-0.630491l0.373455,-0.18014h0.970983l0.354782,0.216168l1.512494,0.306238l0.802929,0.306238l0.429473,-0.072056l0.037346,-0.198154l-0.407281,-0.209617l-0.029213,-0.244142l0.168055,-0.18014l-0.018673,-0.306238l-1.052231,-0.420334l-0.504165,-0.18014Z M1508.19712,133.934643l-0.253071,0.298397v0.171804l0.121849,0.207974l0.140595,-0.045212l0.178087,-0.397863l-0.074984,-0.235101h-0.112476Z M1507.765962,134.802707l-0.09373,0.081381l0.149968,0.207974l0.459277,0.072339v-0.126593l-0.253071,-0.171804l-0.262444,-0.063296Z M1508.243985,136.068634l0.299936,0.099466l0.403039,-0.11755l0.084357,-0.262228l-0.065611,-0.126593l-0.806077,0.081381l-0.103103,0.11755l0.18746,0.207974Z M1505.244627,137.117544l0.234325,-0.054254l0.009373,-0.171804l-0.215579,-0.126593l-0.243698,0.063296l0.028119,0.171804l0.18746,0.11755Z M1504.597891,135.869702l0.149968,-0.054254l0.084357,-0.135635l-0.065611,-0.072339l-0.253071,0.081381l-0.037492,0.108508l0.121849,0.072339Z M1506.828663,137.027121l0.440531,-0.036169l0.046865,-0.207974l-0.253071,-0.497328l-0.234325,-0.072339l-0.337428,0.262228l-0.065611,0.316482l0.403039,0.235101Z M1473.884918,148.933944l0.478023,-0.070794l0.182773,-0.05752l-0.032805,-0.061944l-0.72172,-0.017698l-0.145281,0.075218l0.018746,0.092917l0.220265,0.039821Z M1506.042192,116.488699l2.072676,-0.576449l0.168055,-0.216168l-0.149382,-0.144112l-1.08302,0.18014l-1.008329,0.468364l-0.522837,0.036028l-0.037346,0.18014l0.560183,0.072056Z M1507.760086,116.75891l0.597528,-0.198154l-0.112037,-0.162126l-0.522837,-0.108084l-0.578856,0.18014l-0.074691,0.198154l0.690892,0.09007Z M1509.048507,114.687298l0.672219,-0.252196l0.074691,-0.252196l-0.168055,-0.072056l-0.821601,0.324252l-0.093364,0.198154l0.33611,0.054042Z M1510.617018,114.633256l0.616201,-0.234182l0.037346,-0.144112l-0.429473,-0.108084l-0.672219,0.216168l-0.093364,0.216168l0.54151,0.054042Z M1513.287223,113.642485l0.728238,0.072056l0.821601,-0.234182l0.33611,-0.36028l1.120366,-0.288224v-0.252196l-0.54151,-0.072056l-2.016658,0.432336l-1.101693,0.468364l-0.018673,0.306238l0.672219,-0.072056Z M1460.835442,173.656725l0.802929,-0.158994l0.280091,-0.238491l-0.298764,-0.496856l0.149382,-0.457108h0.280091l0.056018,0.298114l0.504165,0.496856l0.261419,-0.039749l0.112037,-0.496856l0.616201,-0.238491l0.037346,-0.417359l-0.130709,-1.112958l0.093364,-0.417359l0.186728,-0.258365l0.084137,0.07599l-0.10281,0.520238l0.168055,1.07321l0.653547,0.914216l0.54151,1.053336l0.2054,0.119246l0.242746,-0.119246l0.037346,-0.178868l0.33611,-0.019874l0.224073,0.218617l0.037346,0.576353l0.280091,0.059623l0.280091,-0.258365l0.093364,-0.377611h0.485492l0.186728,0.158994l0.317437,0.039749l0.149382,-0.099371l-0.093364,-0.218617l0.298764,-0.516731l0.952311,-0.596228l0.616201,0.059623l0.093364,0.178868l-0.858947,0.596228l-0.186728,0.377611l0.298764,1.311701l1.475148,1.609815l1.437802,0.556479l0.298764,-0.019874l0.074691,-0.317988l0.149382,-0.099371l0.466819,0.238491l0.429473,-0.258365l0.33611,-0.019874l0.186728,0.178868l-0.448146,0.536605l-0.933638,0.079497l-0.2054,0.218617l0.354782,0.27824l0.280091,0.496856l-0.112037,0.079497l-0.840274,-0.496856l-0.522837,-0.099371l-0.840274,0.218617l-0.074691,0.258365l1.195057,0.874467l0.093364,0.377611l-0.373455,0.377611l-0.914965,0.298114l-0.672219,-0.079497l-0.709565,0.13912l-0.018673,0.198743l0.858947,0.437234l0.298764,-0.079497l0.690892,0.039749l0.802929,0.357737l1.08302,0.059623l0.317437,0.119246l0.074691,0.218617l0.728238,0.238491l1.176384,0.039749l0.448146,-0.158994l0.634874,0.27824l0.634874,0.099371l0.149382,-0.099371l-0.373455,-0.317988l0.130709,-0.178868h0.709565l0.448146,0.198743l0.037346,0.357737l0.672219,0.536605l0.616201,0.13912l1.251075,0.814845l0.709565,0.238491l0.634874,-0.238491l0.186728,-0.337862l-0.410801,-0.437234v-0.27824l0.392128,-0.059623l0.858947,0.496856l0.261419,-0.059623v-0.27824l-0.373455,-0.198743l-0.33611,-0.337862l0.130709,-0.158994l0.280091,0.019874l1.717894,1.172581l1.28842,0.437234l0.802929,0.079497l0.112037,-0.178868l-0.970983,-0.556479l-0.130709,-0.298114l0.149382,-0.099371l0.33611,0.238491l0.410801,0.119246l0.298764,-0.13912l0.933638,0.119246l0.709565,0.536605l0.578856,0.158994l1.587185,0.119246l0.056018,-0.158994l-0.933638,-0.715473l-0.784256,-0.298114l-0.33611,0.079497l-0.522837,-0.238491l-0.018673,-0.298114l0.261419,-0.178868l0.724723,0.192663l0.463963,-0.029928l0.193098,-0.262106l0.367963,-0.106853l0.21221,0.129533l0.014059,0.17957l-0.202105,0.254858v0.377611l0.242746,0.298114l0.354782,0.178868l0.037346,-0.13912l-0.149382,-0.238491l0.224073,-0.039749l1.549839,0.675725l1.736567,0.476982l1.157711,0.039749l0.056018,-0.099371l-0.653547,-0.417359l-0.690892,-0.198743l-0.410801,0.099371l-1.08302,-0.238491l-0.504165,-0.317988l0.074691,-0.119246l0.578856,0.218617l0.429473,-0.079497l0.914965,0.079497l1.384201,0.385794l0.337428,0.089785l0.407066,-0.097968l0.295908,-0.470669l0.196833,-0.059857l0.104787,-0.224696v-0.238491l0.056018,-0.158994l0.261419,-0.039749l0.093364,-0.13912l-0.261419,-0.317988l-0.896292,-0.496856l-0.466819,-0.019874l-0.970983,-0.377611l-0.597528,-0.099371l-0.653547,-0.357737l-0.765583,-0.65585l-2.800914,-1.987426l-1.064347,-0.65585l-1.587185,-1.828432l-0.074691,-0.536605l-1.531166,-2.126546l-0.653547,-0.516731l-0.87762,-1.232204l-0.417168,-1.494476l0.018673,-0.616102l-0.821601,-1.232204l-0.112037,-0.576353l0.130709,-1.490569l0.2054,-0.357737l0.560183,-0.317988l0.112037,-0.238491l-0.186728,-0.695599l-0.392128,-0.417359l-0.597528,-0.27824l0.018673,-0.178868l0.616201,-0.496856l0.149382,-0.635976l-0.186728,-0.496856h-0.410801l-0.242746,-0.119246l0.112037,-0.178868l0.709565,-0.059623l0.280091,-0.178868l0.037346,-0.397485l-0.560183,-0.516731l-0.485492,-0.099371l-0.168055,-0.13912h0.653547l0.672219,0.457108l0.429473,-0.119246l0.429473,-0.93409l-0.093364,-0.337862l0.112037,-0.198743l1.325766,0.019874l0.2054,-0.198743l-0.224073,-0.556479l-0.448146,-0.298114l-0.74691,-0.059623l-0.672219,-0.198743l-0.317437,-0.317988l0.130709,-0.059623l0.672219,0.238491l0.504165,0.039749l0.597528,-0.198743l0.933638,0.039749l0.989656,-0.119246l0.448146,-0.516731l0.373455,-0.854593l-0.056018,-0.675725l-0.354782,-0.258365l-0.504165,-0.019874l-1.437802,0.377611l-1.680548,0.039749l-0.186728,-0.079497l0.224073,-0.13912l1.549839,-0.079497l1.605857,-0.397485l1.269748,-0.099371l0.504165,-0.238491l0.056018,-0.178868l-0.914965,-0.258365l-1.811258,-0.039749l-0.298764,-0.079497l0.2054,-0.119246l1.363111,0.019874l0.54151,-0.258365l1.792585,-0.357737l0.130709,-0.536605l-0.392128,-0.317988l-1.307093,-0.437234l-1.917318,-0.242976l-0.970592,-0.349345l-0.373455,-0.357737l-0.560183,-0.178868l-0.466819,0.119246l-1.400457,0.019874l-1.176384,-0.417359l-0.298764,-0.357737l-1.232402,-0.516731l-0.896292,-0.119246l-0.634874,0.119246l-0.616201,0.357737l-0.504165,0.019874l-0.653547,0.218617l-1.064347,0.576353l-0.522837,0.635976l-0.952311,0.178868l-1.756434,-0.591268l-0.914965,0.198743l-0.74691,0.516731l-0.560183,0.119246l-0.373455,-0.079497l-0.504165,0.079497l-1.062139,0.634408l-0.373455,0.536605l0.037346,0.695599l1.307093,0.874467l-0.093364,0.13912l-0.709565,0.019874l-0.485492,-0.119246l-0.522837,0.13912l-0.168055,0.437234l0.242746,0.417359l1.605857,0.536605l0.74691,0.079497l0.298764,-0.158994l0.224073,0.039749l-0.149382,0.258365l-0.616201,0.158994l-1.157711,-0.099371l-1.605857,-0.457108h-1.027002l-1.941967,0.735348l-0.784256,1.053336l-0.485492,0.397485l0.093364,0.198743l0.597528,0.218617l0.186728,0.417359l0.410801,0.059623l0.970983,-0.079497l1.008329,0.039749l0.037346,0.198743l-0.317437,0.13912l-0.54151,-0.059623l-0.056018,0.178868l0.149382,0.317988l-0.149382,0.397485l-0.242746,0.099371l-0.018673,0.198743l0.410801,0.119246l0.74691,-0.476982h0.448146l0.130709,0.238491l-0.989656,0.834719l-0.634874,0.099371l-0.168055,0.258365l-0.074691,1.033461l-0.2054,0.198743l-0.298764,-0.079497l-0.093364,0.158994l0.373455,0.457108l-0.33611,0.496856l-0.522837,0.158994l-0.429473,-0.13912l-0.074691,0.218617l0.168055,0.417359l-0.037346,0.377611l0.392128,0.695599l-0.149382,0.079497l-0.317437,-0.298114l-0.280091,0.13912l-0.112037,0.556479l0.149382,0.317988l-0.298764,0.258365l-0.616201,-0.158994l-0.466819,-0.596228l-0.410801,-0.039749l-0.485492,0.298114l-1.027002,-0.099371l-0.373455,-0.616102l-0.392128,-0.019874l-0.280091,0.298114l-1.343244,0.869508l-0.354782,0.536605l-0.618409,2.485851l0.056018,0.79497l0.896292,2.047049l0.149382,0.675725l0.33611,0.238491l0.709565,0.119246l0.522837,0.317988l0.224073,0.298114l1.475148,0.198743Z M1462.273244,176.101259l0.709565,0.158994l0.970983,-0.019874l0.802929,0.397485l0.672219,0.894342l0.112037,0.496856l0.280091,0.27824l0.74691,0.27824l0.485492,0.93409l0.392128,0.039749l0.074691,-0.437234l-0.354782,-0.596228l0.074691,-0.298114l0.578856,-0.099371l0.466819,-0.775096v-1.152707l-0.186728,-0.218617l-0.522837,-0.099371l-1.325766,-1.21233l-0.709565,-0.258365l-1.08302,-0.019874l-1.997985,0.397485l-0.709565,0.516731l-0.037346,0.417359l0.560183,0.377611Z M1495.883332,184.470893l0.365547,0.074821l0.112476,-0.074821l-0.26713,-0.17957l-0.359396,-0.061493l-0.076448,0.106386l0.224952,0.134677Z M1491.229641,183.55808l0.140595,-0.029928l-0.028119,-0.119713l-0.224952,-0.044892l-0.028119,0.104749l0.140595,0.089785Z M1487.194568,183.453331l0.463963,0.134677l0.210892,-0.059857l0.014059,-0.149641l-0.492082,-0.224462l-0.323368,0.014964l-0.056238,0.119713l0.182773,0.164606Z M1489.570622,184.246431l0.646737,0.119713l0.449904,-0.164606l-0.028119,-0.139665l-0.946672,-0.129689l-0.393666,0.069833v0.119713l0.271817,0.124701Z M1490.920333,184.680391l0.210892,-0.029928l0.126535,-0.119713l-0.309309,-0.104749l-0.196833,0.044892l-0.056238,0.134677l0.224952,0.074821Z M1491.468653,184.366144l0.26713,-0.089785l-0.014059,-0.119713l-0.309309,-0.044892l-0.210892,0.164606l0.056238,0.089785h0.210892Z M1492.270044,183.902255h0.182773l0.182773,0.089785l-0.028119,0.269355l0.520201,0.344175l0.82951,0.239426l0.82951,-0.134677l0.056238,-0.134677l-0.478023,-0.344175l-0.885748,-0.209498l-0.82951,-0.329211l-0.379606,-0.014964l-0.084357,0.104749l0.084357,0.119713Z M1494.885109,184.336216l0.196833,0.044892l0.112476,-0.104749l-0.084357,-0.104749l-0.323368,-0.029928l-0.084357,0.074821l0.182773,0.119713Z M1489.458146,184.575642l0.042178,0.134677l0.224952,0.104749l0.112476,-0.059857l-0.098416,-0.17957l-0.182773,-0.059857l-0.098416,0.059857Z M1488.825469,184.635499l0.140595,0.029928l0.182773,-0.089785l-0.028119,-0.089785l-0.196833,-0.014964l-0.140595,0.059857l0.042178,0.104749Z M1477.491543,182.938003l0.33611,0.099371l0.634874,0.019874l0.056018,-0.13912l-0.709565,-0.27824l-0.560183,-0.079497l-0.168055,0.099371l0.410801,0.27824Z M1470.520014,177.886668l0.478023,-0.089785l0.126535,-0.284319l-0.224952,-0.344175l-0.323368,-0.074821l-0.070297,0.074821l0.196833,0.299283l-0.098416,0.089785l-0.632677,-0.134677l-0.014059,0.149641l0.56238,0.314247Z M1469.212481,176.076007l0.084357,0.299283l0.196833,0.149641l0.140595,-0.059857l-0.070297,-0.299283l-0.224952,-0.134677l-0.126535,0.044892Z M1463.46215,173.99599l0.182773,0.17957l0.168714,0.044892l0.042178,-0.089785l-0.112476,-0.164606l-0.168714,-0.044892l-0.112476,0.074821Z M1464.305719,173.20289l-0.028119,0.134677l0.126535,0.194534l0.154654,0.014964l0.028119,-0.25439l-0.098416,-0.119713l-0.182773,0.029928Z M1467.328509,174.42995l0.196833,0.074821l0.084357,-0.074821l-0.26713,-0.284319h-0.126535l-0.028119,0.164606l0.140595,0.119713Z M1468.172079,174.534699l0.478023,0.269355l0.210892,0.014964l-0.098416,-0.25439l-0.534261,-0.374104l-0.239011,0.014964l-0.042178,0.119713l0.224952,0.209498Z M1468.14396,173.666779l0.042178,0.134677l0.140595,0.074821l0.056238,-0.074821l-0.042178,-0.119713l-0.196833,-0.014964Z M1468.551685,175.387656l0.54832,0.224462l0.196833,-0.029928l-0.154654,-0.224462l-0.871688,-0.61353l-0.309309,-0.059857l-0.028119,0.134677l0.618618,0.568638Z M1468.087722,175.312835l-0.196833,0.059857l0.084357,0.164606l0.182773,0.089785l0.196833,-0.029928v-0.119713l-0.26713,-0.164606Z "/>
</svg>
