<svg xmlns="http://www.w3.org/2000/svg" viewBox="1710.834 38.185 102.662 49.461">
  <path d="M1710.834255,41.024229v-0.500199l0.642845,-0.821755l3.138597,-0.46447l4.499916,0.071457l2.155422,0.607384l0.415959,0.821755l-0.415959,0.500199l-2.117608,0.750298l-3.25204,0.035728l-4.121772,-0.500199l-0.945361,-0.500199Z M1735.397729,84.461124l-0.176467,0.197815l0.075629,0.271996l0.579821,0.222542l0.252096,-0.098908v-0.420358l-0.403354,-0.173088h-0.327725Z M1728.165864,72.030093l1.386529,0.147177l0.252096,-0.147177v-0.171706l-3.504136,-0.809471l-0.403354,0.024529l-0.151258,0.147177l0.075629,0.245294l2.344494,0.564177Z M1714.224948,65.112793l1.134433,-0.024529l0.78743,-0.20749l0.075925,-0.129285l-0.161342,-0.083111l-0.9289,-0.144291l-1.058804,0.049059l-0.277306,0.269824l0.050419,0.220765l0.378144,0.049059Z M1728.896943,67.197795l1.033594,0.073588l0.63024,-0.171706l0.100838,-0.294353l-0.201677,-0.196235l-1.084013,-0.122647l-0.806708,0.220765l-0.075629,0.196235l0.403354,0.294353Z M1736.837971,58.614552l1.638625,-0.381104l0.907546,-0.500199l-0.050419,-0.190552l-0.352935,-0.095276l-1.260481,0.23819l-1.436948,0.619294l0.075629,0.285828l0.478983,0.023819Z M1739.552722,58.354144l0.428563,-0.047909l0.126048,-0.143728l-0.201677,-0.119773l-0.403354,0.047909l-0.176467,0.191637l0.226887,0.071864Z M1750.123438,56.056137l0.352935,0.048235l0.252096,-0.072353l0.050419,-0.120588l-0.100838,-0.120588l-0.226887,-0.024118l-0.327725,0.120588v0.168824Z M1727.006222,47.58636l0.252096,-0.023819l0.100838,-0.095276l-0.075629,-0.095276h-0.277306l-0.176467,0.095276l0.176467,0.119095Z M1727.78772,57.614154h0.554612l0.529402,-0.095276l-0.02521,-0.119095l-0.554612,-0.071457l-0.302515,0.047638l-0.151258,0.095276l-0.050419,0.142914Z M1759.929978,54.470048l0.201677,0.023819l0.226887,-0.071457l0.050419,-0.142914l-0.201677,-0.119095l-0.226887,0.023819l-0.151258,0.166733l0.100838,0.119095Z M1763.534952,56.65014l0.201677,0.147177h0.327725l0.100838,-0.122647l-0.126048,-0.147177l-0.403354,-0.049059l-0.100838,0.171706Z M1777.173353,64.205204l0.252096,-0.220765l0.252096,-0.539647l0.504192,-0.220765l0.504192,0.098118l0.65545,-0.122647l0.050419,-0.171706l-0.529402,-0.220765l-0.478983,0.024529l-0.252096,-0.098118l-0.100838,-0.196235l-0.403354,0.049059l-0.403354,0.662295l-0.302515,0.834001l0.252096,0.122647Z M1777.274192,67.099677l0.579821,-0.171706l0.151258,-0.392471l-0.126048,-0.196235h-0.403354l-0.403354,0.196235l-0.02521,0.44153l0.226887,0.122647Z M1775.43389,69.356385l0.529402,0.318883l0.151258,-0.073588l-0.075629,-0.196235l-0.327725,-0.196235h-0.226887l-0.050419,0.147177Z M1768.980229,80.617904l0.226887,-0.123635l0.126048,-0.543992l0.02521,-1.335253l-0.327725,-0.543992l-0.176467,-0.024727l-0.327725,0.717081l-0.126048,1.162165l0.327725,0.6429l0.252096,0.049454Z M1767.795377,76.077449l0.453773,-0.049059l0.176467,-0.147177l-0.201677,-0.122647l-0.378144,0.024529l-0.252096,0.196235l0.201677,0.098118Z M1799.509071,70.469145h0.567216l0.378144,-0.11473v-0.267703l-0.529402,-0.305946h-0.378144l-0.302515,0.305946l0.264701,0.382432Z M1799.962844,71.042793l0.264701,0.038243l0.094536,-0.076486l-0.018907,-0.172094l-0.264701,-0.095608l-0.226887,0.11473l0.151258,0.191216Z M1805.131408,72.614814l-0.042708,0.129577l0.170832,0.071987l0.925341,-0.143974l0.242012,-0.158372l-0.099652,-0.100782l-0.327428,0.014397l-0.654857,0.187167h-0.21354Z M1716.450512,65.490258l0.180323,0.009235l0.208795,-0.073877l1.509018,0.138519l0.503006,0.138519l0.246758,0.249334l0.085416,0.304742l0.28472,0.147754l0.711801,0.009235l0.41759,0.083111l0.446062,0.184692l1.366658,0.304742l0.711801,0.083111l0.873142,0.184692l0.41759,0.138519l0.484025,0.055408l0.911105,-0.046173l0.69282,-0.184692l0.493515,-0.4802l0.332174,-0.092346l0.037963,-0.166223l-0.085416,-0.064642l-1.527999,-0.073877l-1.670359,0.267804h-0.597913l-0.41759,-0.083111l-0.920596,-0.36015l-0.569441,-0.083111l-1.338186,-0.517138l-0.075925,-0.156988l-0.170832,-0.092346l-1.480546,-0.295507l-1.347676,-0.009235l-0.521987,0.166223l-0.218286,0.230865l0.028472,0.083111Z M1775.194399,87.372646l2.231051,0.038243l2.079793,-0.497162l2.231051,-0.95608l1.739463,-0.497162l2.268865,-0.994324l1.210061,-0.152973l3.365483,-0.191216l0.605031,0.305946h0.718474l0.529402,-0.267703l2.155422,-0.11473l1.172247,0.229459l0.189072,0.458919l0.378144,0.11473l0.529402,-0.191216l0.264701,-0.344189l0.378144,-0.305946l1.058804,-0.11473l0.529402,0.11473l0.491587,-0.038243l1.210061,-0.267703l2.571381,-0.191216l2.231051,-0.688378l1.588206,-0.267703l1.96635,-0.038243l0.605031,0.11473l0.567216,-0.038243l3.100783,-2.562295l0.34033,-0.95608l-0.567216,-2.600539l-0.794103,-0.841351l-2.495752,-0.573648l-0.68066,0.229459v0.382432l-0.34033,0.497162h-0.378144l0.037814,-0.458919l-0.605031,-0.382432v-0.267703l0.378144,-0.076486l0.037814,-0.191216l-0.642845,-0.267703v-0.420675l-1.096618,-0.841351l-1.28569,-0.305946l-0.68066,-0.650135l-0.113443,-0.420675l0.151258,-0.764864l-0.34033,-0.267703l-0.453773,0.11473l-0.264701,-0.11473l-0.075629,-0.344189l-0.34033,-0.076486l-0.756288,0.458919l-0.34033,-0.038243l-0.113443,-0.458919l-0.415959,-0.076486l-0.302515,0.267703v0.497162l-0.264701,0.267703l-0.945361,0.038243l-0.378144,0.420675l-1.020989,0.420675l-1.28569,0.038243l-0.226887,0.191216v0.458919l-0.529402,0.879594l-1.739463,1.606215l-0.831917,0.229459l-0.189072,-0.229459l0.945361,-0.95608l0.642845,-0.535405l0.415959,-0.611891l0.037814,-1.18554l0.491587,-0.994324l0.226887,-0.803108l1.096618,-1.567972l0.567216,-0.076486l0.264701,-0.305946l-0.113443,-0.191216l-0.756288,-0.191216l-0.567216,-0.611891l-2.344494,-0.611891l-1.474762,-0.229459l-1.020989,0.573648l-0.151258,0.95608l0.605031,1.07081l-0.113443,0.573648l-0.718474,-0.038243l-1.28569,-0.726621l-0.605031,-1.223783l-0.718474,-0.305946l-1.29551,0.315888l-0.179253,0.487219l0.491587,1.032567l-0.113443,0.305946l-1.474762,0.11473l-0.623953,0.243571l-0.408302,0.46398l0.086895,0.363259l0.414203,0.007925l0.455528,0.374507l-0.121463,0.126591l-1.504557,0.102868l-0.605031,0.573648l0.151258,0.344189l0.831917,0.076486l1.28569,0.497162l1.361319,0.382432l0.491587,0.267703h-0.983175l-1.739463,-0.650135l-1.323505,-0.11473l-0.567216,0.382432l-0.756288,1.529729l0.151258,1.032567l0.607918,0.345363l1.093837,0.177773l0.680553,0.012269l0.453773,0.152973l-0.093855,0.139524l-2.212824,-0.177768l-1.62602,-0.573648l-0.68066,0.11473l-0.860538,0.722522l-0.538217,1.113552l-0.055678,0.742368l-0.16254,0.385969l-0.426862,0.24127l-0.576483,0.890269l0.16254,0.670163l-0.615559,0.853719l-0.934993,0.384353l-1.172247,1.338513l-1.890721,1.720945l-0.529402,1.300269v0.917837l0.642845,0.497162l0.869732,-0.267703Z M1731.488491,41.233136l-0.028472,0.060528l0.099652,0.060528l0.661975,0.073979l0.064062,-0.060528l-0.099652,-0.080704l-0.156596,-0.033627l-0.540969,-0.020176Z M1726.178457,56.338297l2.078459,0.013451l1.024993,0.161409l1.551726,0.591832l2.03575,0.497677l1.081937,0.336268l0.868397,0.121057l0.498261,-0.026901l0.839925,-0.282465l1.067701,-0.174859l1.836446,-0.36317l1.338186,-0.712888l0.412845,-0.215212l0.811453,-0.067254l0.540969,-0.228662l0.512497,-0.013451l0.28472,0.080704l1.950334,-0.053803l0.711801,-0.215212l0.896869,-0.107606l0.925341,-0.403522l1.224297,-0.215212l3.231576,-0.026901l0.370136,0.053803h0.669093l0.441317,-0.121057l0.526733,-0.026901l0.398608,0.053803l0.540969,0.026901l0.469789,-0.121057l1.60867,0.026901l0.726037,-0.147958l1.081937,-0.026901l0.256248,-0.080704l0.028472,-0.174859l0.099652,-0.147958l0.882633,-0.524578l0.085416,-0.37662l-0.21354,-0.201761l-0.512497,-0.013451l-0.469789,-0.094155l-0.170832,-0.228662l0.028472,-1.049156l-0.327428,-0.75324l-0.455553,-0.457325l-0.042708,-0.336268l0.199304,-0.349719l0.227776,-0.887748l0.341664,-0.403522l0.543193,-0.144175l0.226887,0.053593v0.178642l0.170165,0.089321l0.81301,-0.017864l0.47268,-0.285828l0.510495,-0.142914l0.605031,0.035728l0.397051,-0.017864l0.510495,-0.250099l0.68066,-0.107185l0.113443,-0.178642l-0.13235,-0.357285l-0.775196,-0.232235v-0.12505l0.567216,-0.214371l0.037814,-0.12505l-0.283608,-0.250099l-0.529402,-0.053593l-0.207979,-0.12505l0.113443,-0.142914l0.34033,-0.017864l0.13235,-0.142914l-0.075629,-0.089321l-1.002082,0.017864l-0.68066,-0.12505l-0.964268,-0.035728l-0.189072,-0.089321l-0.018907,-0.142914l-0.207979,-0.107185l-0.302515,-0.017864l-1.210061,-0.482335l-0.094536,-0.178642l-0.397051,-0.214371l-0.397051,-0.017864l-0.869732,-0.339421l-0.661752,-0.160778l-0.510495,-0.446606l-0.13235,-0.285828l0.302515,-0.375149l-0.113443,-0.178642l-0.945361,-0.232235l-0.47268,-0.285828v-0.410878l-0.397051,-0.339421l-0.47268,-0.107185l-0.850824,-0.535927l-0.359237,-0.500199l-0.775196,-0.410878l-0.510495,-0.107185l-0.548309,0.071457l-0.434866,-0.107185v-0.160778l0.378144,-0.232235l0.226887,-0.500199l-0.018907,-0.214371l-0.926453,-0.482335l-1.96635,-0.089321l-2.249958,0.267964l-0.510495,0.214371l-0.037814,0.178642l0.302515,0.303692l0.831917,0.107185l0.605031,-0.053593l1.531484,0.053593l0.094536,0.12505l-0.207979,0.071457l-1.323505,0.017864l-0.850824,0.214371l-2.004164,0.803891l-0.359237,0.339421l-0.623938,0.214371l-1.96635,0.375149l-0.567216,-0.035728l-1.323505,0.303692l-0.415959,0.285828l-0.47268,0.071457l-0.907546,0.071457l-1.418041,0.339421l-0.094536,0.178642l0.245794,0.214371l-0.037814,0.178642l-0.170165,0.053593l-0.945361,-0.196507l-0.567216,0.071457l-1.191154,0.518063l-0.283608,0.053593l-0.756288,0.017864l-0.397051,0.12505v0.142914l0.245794,0.160778l0.018907,0.285828l0.094536,0.250099l0.415959,0.250099v0.142914l-0.283608,0.053593l-0.378144,-0.089321l-0.68066,0.053593l-1.644927,0.643113l-0.094536,0.160778l0.189072,0.053593l0.037814,0.196507l-0.605031,0.46447l-1.020989,0.482335l-0.113443,0.142914l0.170165,0.107185l2.533566,0.12505l1.228969,-0.321556l0.529402,-0.518063l0.47268,-0.107185l0.170165,0.089321l-0.189072,0.518063l-0.34033,0.393013l-1.531484,0.786027l-1.020989,0.786027l-0.283608,0.607384l0.094536,0.428742l-0.075629,0.339421l-0.756288,0.250099l-0.369469,0.412139l-0.405726,0.177381l-0.907546,0.071457l-0.623938,0.321556l-0.888639,0.803891l-0.699567,0.339421l-2.703731,0.339421l-1.228969,0.803891l0.207979,0.446606l1.020989,0.196507l1.947443,-0.214371l1.623087,0.199362l0.295439,0.173475l0.255803,0.484646l-0.151258,0.214371l-0.983175,0.196507l-0.378144,0.267964l0.075629,0.232235l0.882188,0.272167l0.697565,0.053803Z M1729.75407,57.876163l-2.218446,-0.119095l-0.579821,-0.166733l-3.125992,-0.190552l-0.529402,-0.333466l-0.731079,-0.119095l-0.68066,0.190552l-4.764617,0.023819l-0.050419,0.142914l1.411738,0.262009l0.352935,0.262009l-0.126048,0.357285l-1.361319,0.571656l0.02521,0.381104l0.352935,0.214371l-0.02521,0.23819l-0.504192,0.357285l0.176467,0.786027l0.478983,0.262009l1.94114,-0.047638l4.53773,0.452561l0.453773,0.23819l-0.151258,0.166733l-1.789883,0.262009l-3.302459,-0.262009l-1.764673,0.190552l-0.151258,0.23819l0.277306,0.381104l3.050363,0.809846l1.411738,0.047638l1.260481,-0.333466l0.983175,-0.142914l1.613415,0.142914l1.991559,-0.023819l1.28569,-0.381104l1.865511,-0.142914l0.605031,-0.214371l0.176467,-0.404923l0.857127,-0.428742l0.65545,-0.095276l2.873896,-1.524415l0.075629,-0.381104l-0.327725,-0.23819l-1.915931,-0.500199l-0.252096,-0.333466l-0.731079,-0.285828l-1.436948,-0.071457l-1.260481,-0.333466l-0.932756,0.095276Z M1764.274039,57.308394l-0.925341,-0.318594l-0.696082,-0.535896l-1.210061,-0.44153l-3.201621,-0.049059l-2.647009,0.539647l-0.68066,-0.122647l-0.378144,0.049059l-0.302515,0.294353l-1.033594,0.147177l-1.058804,-0.122647h-0.352935l-0.302515,0.196235l-0.504192,0.024529l-0.705869,-0.122647l-3.327669,-0.098118l-0.378144,0.220765l-0.327725,0.662295l-0.378144,0.294353l-0.428563,-0.049059l-1.3109,-0.956648l-0.378144,-0.049059l-0.327725,0.44153l-1.084013,0.392471l-0.453773,0.367941l-1.562996,0.44153l-1.3109,0.343412l-0.478983,0.367941l-0.100838,0.809471l0.403354,0.318883l0.63024,0.245294l0.453773,0.490589l-0.151258,0.220765l-2.218446,0.515118l-1.739463,0.834001l-1.134433,1.128354l-1.436948,0.613236l-1.28569,0.343412l-2.394913,0.049059l-0.075629,0.171706l0.378144,0.220765l0.705869,0.073588l1.184852,0.44153l0.050419,0.196235l-0.176467,0.196235l0.176467,0.245294l0.781498,0.147177l1.008385,-0.269824l0.327725,-0.269824l-0.075629,-0.245294l-0.378144,-0.122647l0.126048,-0.294353l1.033594,-0.466059h0.529402l1.33611,0.564177l0.151258,0.318883l-0.151258,0.171706l-0.554612,0.049059l-0.075629,0.147177l0.302515,0.245294l-0.151258,0.269824l0.151258,0.122647l0.529402,-0.122647l0.529402,0.073588l0.201677,-0.122647l-0.02521,-0.367941l0.302515,-0.147177l1.462158,-0.049059l0.529402,0.220765l0.050419,0.367941l-0.126048,0.269824l-0.050419,0.44153l0.252096,0.539647v0.245294l-0.226887,0.171706l0.050419,0.318883l0.302515,0.294353l-0.02521,0.196235l-0.352935,0.245294l0.075629,0.245294l1.764673,0.686824l0.226887,0.392471v0.515118l0.327725,0.367941l1.159642,0.784942l1.33611,0.294353l0.504192,-0.024529l0.478983,-0.367941l0.65545,-0.073588l0.65545,-0.44153l0.831917,-0.073588l0.327725,0.147177l0.075629,0.294353l0.378144,0.245294l0.050419,0.515118l0.302515,0.220765l0.781498,-0.098118l0.756288,0.073588l0.277306,0.220765l1.134433,-0.024529l0.554612,-0.318883l0.529402,-0.024529l0.68066,0.269824l0.579821,0.073588l1.084013,-0.220765h1.134433l0.428563,0.220765l0.201677,0.564177l1.210061,0.711354l1.058804,0.073588l0.529402,0.220765l0.327725,0.417l1.361319,0.392471l1.663835,-0.318883l0.504192,0.024529l0.378144,0.196235l1.840302,0.171706l0.428563,0.294353l0.63024,0.073588l0.529402,-0.171706l0.453773,-0.294353l1.411738,0.073588l2.848686,-0.024529l0.504192,-0.196235l0.327725,-0.024529l0.352935,0.147177l0.705869,-0.049059l3.050363,-0.981177l0.504192,-0.539647v-0.466059l-0.277306,-1.27553l-0.453773,-0.490589l-1.991559,-0.417v-0.245294l0.579821,-0.098118l0.02521,-0.171706l-1.739463,-0.662295l-1.638625,-1.030236l0.050419,-0.245294l0.378144,-0.171706l1.890721,0.686824l0.65545,-0.073588l0.605031,-0.269824l0.378144,-0.024529l0.151258,-0.343412l-0.195375,-1.851972l0.220584,-0.551912l0.352935,-0.318883l0.02521,-0.392471l-0.352935,-0.33728l-0.352935,-0.079721l0.02521,-0.220765l0.428563,-0.245294l0.252096,-0.956648l0.403354,-0.466059l0.018907,-0.533515l-0.189072,-0.220765l-0.378144,-0.220765l0.044117,-0.177838l0.857127,0.024529l0.68066,-0.318883v-0.367941l-0.403354,-0.637765l-0.831917,-0.44153l-0.126048,-0.318883l-0.882336,-0.637765l-0.857127,-0.220765l-0.201677,0.098118l-0.201677,-0.049059l0.126048,-0.392471l-0.529402,-0.269824l-1.260481,-0.073588l-0.02521,-0.171706l0.554612,-0.122647l-0.02521,-0.196235l-0.548309,-0.085853l-0.869732,0.091985l-0.170165,-0.073588l0.207979,-0.165574l0.586124,-0.12878v-0.147177l-0.623938,-0.110382l-1.039897,0.055191l-0.586124,0.165574l-0.699567,0.018397l-0.397051,0.220765h-0.453773l-0.189072,-0.202368l0.113443,-0.165574l-0.151258,-0.147177l-0.926453,0.147177l-0.510495,0.349544l0.037814,0.367941l0.453773,0.44153l0.018907,0.478324l-0.68066,1.048633l-0.207979,-0.018397l-0.075629,-0.220765l0.368135,-0.46642l-0.085416,-0.29089l-0.270484,-0.027704l-0.258028,0.214705l-0.112109,0.297816l-0.270484,0.180075l-0.811453,0.027704l-0.298956,-0.096963l-0.199304,0.013852l-0.056944,0.263186l0.683329,0.65104l-0.028472,0.277038l-0.939577,0.304742l-1.295478,0.124667l-0.327428,0.263186l-0.242012,0.374002l-0.882633,0.277038l-1.409366,0.318594l-0.498261,0.304742l-0.882633,0.138519l-0.056944,-0.124667l0.768745,-0.484817l1.793738,-0.332446l0.711801,-0.443261l0.056944,-0.332446l-0.441317,-0.06926l-1.950334,0.29089l-0.854161,0.041556l-0.982285,0.221631l-0.597913,0.374002l-1.039229,0.124667l-0.683329,0.221631l-1.494782,0.083111l-0.056944,-0.110815l0.782981,-0.318594l0.740273,-0.110815l0.484025,-0.193927l0.939577,-0.06926l0.654857,-0.29089l1.765266,-0.443261l1.380894,-0.124667l1.409366,-0.498669l0.612149,-0.387854l0.882633,-0.207779l0.242012,-0.346298l0.028472,-0.263186l-0.455553,-0.567928l-0.014236,-0.443261l0.370136,-0.29089l0.654857,-0.207779l0.099652,-0.207779l-0.21354,-0.221631Z "/>
</svg>
