<svg xmlns="http://www.w3.org/2000/svg" viewBox="2049.356 351.249 23.356 73.754">
  <path d="M2061.654284,359.233624l0.510378,1.113552l0.547496,1.447618l0.243154,1.016802l0.189141,1.123936l0.151313,1.068203l0.085113,0.817408l-0.018914,0.777676l-0.075656,1.079757l-0.217512,1.070368l-0.283711,0.685411l-0.359368,0.441292l-0.075656,0.206562l-0.141856,0.563352l-0.028371,0.741746l0.037828,0.948309l0.25534,0.920141l0.444481,1.136092l0.595794,1.117314l0.425567,1.183038l0.312083,1.333265l0.217512,1.173649l0.359368,1.060979l0.520138,1.806596l0.208055,1.121874l0.113485,0.216833l0.056742,0.791911l0.122942,0.414811l0.085113,0.735346l0.387739,1.583823l0.368825,1.084164l0.633622,1.300997l0.539052,0.857904l0.028371,0.18855l-0.037828,0.197978l0.104028,0.452521l0.643079,1.385845l0.151313,0.18855l0.018914,0.160268l-0.056742,0.26397l0.028371,0.593934l0.340454,0.659926l0.387739,0.433666l-0.009457,0.131985l-0.075656,0.160268v0.461948l0.170227,0.395956l0.16077,0.650499l0.037828,0.461948l0.425567,0.773056l0.141856,0.461948l0.179684,0.282825v0.103703l-0.104028,0.065993l0.018914,0.084848l2.023809,1.432983l0.056742,0.169695l-0.085113,0.179123l0.028371,0.216833l0.141856,0.207405v0.094275l-0.141856,0.07542l-0.056742,0.197978l0.028371,0.245115l0.302626,0.443093l-0.066199,0.103703l-0.179684,0.009428l-0.104028,-0.103703l0.018914,-0.131985l-0.018914,-0.11313l-0.09457,-0.094275l-0.018914,-0.131985l0.018914,-0.339391l-0.056742,-0.282825l-0.330997,-0.490231l-0.378282,-0.527941l-0.643079,-0.669354l-0.444481,-0.329963l-0.151313,-0.028283l-0.132399,-0.084848l-0.066199,-0.141413l-0.312083,-0.282825l-0.151313,-0.179123l-0.028371,-0.122558l-0.151313,-0.207405l-0.226969,-0.11313l-0.151313,-0.179123l-0.075656,-0.179123l-0.170227,-0.179123l-0.614708,-0.301681l-0.974076,-0.282825l-0.983533,-0.15084l-1.068647,-0.070706l-1.063918,0.056565l-0.99299,0.22626l-0.936248,0.43838l-0.581609,0.424238l-0.496495,0.636357l-0.170227,0.678781l0.014186,0.22626l0.170227,0.268684l0.042557,0.424238l-0.099299,0.353532l-0.907877,1.484834l-0.567423,1.399986l-0.156041,0.749488l-0.411382,1.202008l-0.113485,0.169695l-0.496495,1.498975l-0.364096,1.814797l-0.018914,0.179123l0.09457,0.131985v0.141413l-0.028371,0.15084l0.085113,0.650499l0.48231,1.235005l0.83222,1.197295l0.680908,0.452521l0.605251,0.311108l0.170227,0.207405l0.113485,0.424238l0.056742,0.103703l0.264797,0.22626l0.179684,0.773056l-0.018914,0.386528l-0.113485,0.254543l0.028371,0.216833l0.170227,0.18855l0.236426,0.556223l0.075656,0.471376l0.09457,0.141413l0.435024,0.367673l0.83222,0.405383l0.567423,0.03771l0.236426,-0.11313l0.018914,-0.15084l-0.037828,-0.11313l0.066199,-0.07542l0.179684,0.056565l0.170227,0.207405l0.179684,0.773056l-0.018914,0.197978l-0.047285,0.07542l-0.009457,0.169695l0.085113,0.669354l0.189141,0.876759l0.179684,0.358246v0.141413l-0.179684,0.207405l0.085113,0.065993l0.132399,-0.047138l0.217512,0.047138l0.037828,0.094275l-0.056742,0.103703l-0.16077,0.056565l-0.085113,0.15084l-0.028371,0.254543l-0.085113,0.094275l-0.151313,0.094275l-0.09457,0.254543l-0.037828,0.254543l-0.104028,0.141413l-0.151313,0.065993l-0.066199,0.235688l0.056742,0.386528l-0.037828,0.254543l-0.198598,0.245115l-0.066199,0.245115l-0.085113,-0.009428l-0.047285,-0.405383l0.075656,-0.650499l0.075656,-0.15084v-0.254543l-0.340454,-1.037027l-0.245883,-0.405383l-0.047285,-0.414811l0.056742,-0.15084l-0.018914,-0.122558l-0.378282,-0.480803l-0.605251,-0.461948l-0.293169,-0.15084h-0.16077l-0.132399,0.065993l-0.349911,-0.009428l-0.208055,-0.07542l-0.813306,-0.141413l-0.179684,0.028283l-0.264797,0.122558h-0.274254l-0.122942,-0.11313l-0.132399,-0.490231l-0.141856,-0.26397l0.009457,-0.141413l-0.09457,-0.122558l-0.104028,-0.009428l-0.122942,0.122558l-0.226969,0.028283h-0.274254l-0.501224,0.207405l-0.510681,0.471376l-0.378282,0.659926l-0.264797,0.820194l-0.340454,0.678781l-0.32154,0.782484l-0.056742,0.329963l0.018914,0.311108l-0.179684,0.688209l-0.151313,0.169695l-0.056742,0.179123l-0.018914,0.358246l-0.189141,0.18855l-0.25534,0.07542l-0.170227,0.18855l-0.066199,0.273398l-0.009457,0.348818l-0.056742,0.028283l-0.264797,-0.22626l-0.245883,-0.320536l-0.09457,-0.235688l-0.141856,-0.169695l-0.245883,-0.172052l-0.04965,-0.120201l0.099299,-0.22626l0.007093,-0.155554l-0.226969,-0.954536l-0.092206,-0.806053l-0.496495,-1.619176l0.028371,-0.494945l-0.078021,-0.148483l0.035464,-0.169695l0.170227,-0.120201l0.04965,-0.148483l0.035464,-0.289896l0.269526,-0.735346l0.489402,-0.989889l0.12767,-0.141413l0.219876,-0.629287l0.035464,-0.304037l0.163134,-0.339391l0.078021,-0.388885l-0.063835,-0.629287l-0.163134,-0.509086l-0.312083,-0.381814l0.014186,-0.311108l0.113485,-0.304037l0.014186,-0.11313l-0.226969,-0.530298l-0.028371,-1.081808l0.028371,-0.311108l-0.021278,-0.077777l0.028371,-0.141413l0.085113,-0.070706l0.156041,-0.381814l0.007093,-0.127271l0.021278,-0.084848l0.085113,-0.070706l0.241155,-0.431309l0.170227,-0.487874l0.042557,-0.268684l0.092206,-0.176766l0.25534,-0.197978l0.070928,-0.134342l0.290804,-0.346461l0.021278,-0.183837l-0.085113,-0.176766l-0.021278,-0.403026l-0.063835,-0.197978l-0.056742,-1.138373l-0.092206,-0.367673l0.007093,-0.296967l-0.035464,-0.261614l-0.30499,-0.657569l-0.695093,-0.975748l-0.645444,-1.11009l-0.269526,-0.848476l0.021278,-0.395956l0.184412,-0.275755l0.574516,-0.424238l0.014186,-0.190907l-0.106392,-0.190907l0.042557,-0.084848l0.156041,-0.049494l0.099299,-0.127271l0.007093,-0.459591l0.021278,-0.176766l0.170227,-0.403026l0.021278,-0.197978l-0.028371,-0.367673l0.070928,-0.205048l0.290804,-0.473733l0.014186,-0.176766l-0.106392,-0.254543l0.007093,-0.820194l0.163134,-0.55858l0.163134,-0.282825l0.120577,-0.502015l0.021278,-0.749488l0.063835,-0.403026l0.014186,-1.053525l0.056742,-0.233331l-0.007093,-0.296967l-0.148949,-0.360603l-0.007093,-0.141413l0.035464,-0.311108l-0.04965,-0.212119v-0.127271l0.099299,-0.148483l0.014186,-0.233331l-0.063835,-0.127271l0.014186,-0.120201l0.141856,-0.190907l0.021278,-0.926253l-0.099299,-0.855547l-0.148949,-0.318179l0.014186,-0.098989l0.099299,-0.141413l0.007093,-0.417168l-0.184412,-0.395956l-0.156041,-0.162625l-0.333361,-0.820194l-0.035464,-0.261614l0.078021,-0.742417l0.141856,-0.494945l0.070928,-0.523227l-0.035464,-0.360603l-0.021278,-0.155554l0.042557,-0.098989l0.070928,-0.070706l0.04965,-0.162625v-0.289896l0.035464,-0.084848l0.120577,-0.035353l0.326268,-0.367673l0.30499,-0.523227l0.141856,-0.480803l0.007093,-0.688065l-0.163134,-0.359137l-0.234062,-0.197173l-0.148949,-0.338011l-0.007093,-0.183089l0.04965,-0.14788l0.007093,-0.133796l-0.042557,-0.161964l-0.219876,-0.190131l-0.347547,-0.485891l-0.035464,-0.246466l0.063835,-0.176047l-0.014186,-0.154922l-0.234062,-0.309843l-0.319175,-0.190131l-0.624165,-0.577435l-0.581609,-0.746441l-0.319175,-0.274634l-0.442117,-0.237077l-0.070928,-0.075114l-0.018914,-0.075114l0.04965,-0.014084l0.283711,0.14788l0.198598,0.021126l0.186777,-0.075114l0.089842,-0.126754l0.056742,-0.248814l-0.007093,-0.154922l-0.262433,-0.338011l-0.312083,-0.253508l-0.283711,-0.042251l-0.411382,-0.225341v-0.084503l0.141856,-0.091545l0.120577,-0.323927l0.014186,-0.415472l-0.156041,-0.389721l-0.007093,-0.241896l-0.12767,-0.208299l0.028371,-0.208299l0.25534,-0.181422l0.120577,-0.29565l-0.028371,-0.208299l-0.262433,-0.29565l-0.021278,-0.161264l0.120577,-0.161264l0.035464,-0.19486l-0.219876,-0.315808v-0.215018l0.113485,-0.241896l0.028371,-0.228457l0.070928,-0.127667l0.205691,-0.047035l0.30499,-0.282212l0.290804,-0.389721l0.30499,-0.772723l-0.021278,-0.10079l-0.113485,-0.073913v-0.107509l0.12767,-0.262054l0.014186,-0.107509l-0.063835,-0.080632v-0.147825l0.085113,-0.208299v-0.087351l-0.085113,-0.080632v-0.094071l0.156041,-0.342686l0.014186,-0.846635l0.056742,-0.19486l0.078021,-0.094071l0.12767,-0.329247l-0.021278,-0.114229l0.007093,-0.188141l0.148949,-0.275492l0.070928,-0.409879l-0.042557,-0.221738l-0.307277,-0.396949l-0.24127,-0.417582l-0.064957,-0.371184l-0.250549,-0.538217l-0.027839,-0.436141l0.074237,-0.343345l-0.064957,-0.102076l-0.129914,-0.064957l-0.037118,-0.167033l0.129914,-0.185592l0.352625,-0.204151l0.120635,-0.157753l0.844444,-0.399023l0.91868,-0.371184l0.603174,-0.176312l0.280418,-0.012469l0.071482,0.027114l-0.017254,0.039438l-0.108455,-0.012324l-0.155288,0.027114l-0.019719,0.076412l0.142964,0.202121l-0.014789,0.103526l-0.063942,0.07878l-0.006186,0.129914l0.037118,0.080423v0.136101l-0.043305,0.074237l0.006186,0.167033l0.080423,0.197965l0.160846,0.123728l0.272202,0.043305l0.15466,-0.055678l0.092796,-0.092796l0.15466,-0.006186l0.142287,0.06805l0.179406,-0.012373l0.247456,-0.142287l0.30932,-0.321693l0.204151,-0.340252l0.204151,-0.30932l0.167033,-0.179406l0.123728,-0.012373l0.191778,0.080423l0.074237,0.061864l0.08661,-0.006186l0.012373,-0.173219l-0.024746,-0.111355h-0.080423l-0.049491,0.037118l-0.08661,-0.006186l-0.30932,-0.247456l-0.142287,-0.247456l-0.080423,-0.006186l-0.117542,0.117542l-0.018559,0.08661l0.037118,0.074237l-0.030932,0.098982l-0.043305,0.061864h-0.061864l-0.098982,-0.142287l-0.006186,-0.278388l-0.026292,-0.296947l-0.102076,-0.208791l0.032479,-0.097436l0.264469,-0.102076l0.157753,-0.00464l0.115995,0.046398l0.157753,-0.00464l0.22735,-0.143834l0.097436,0.018559l0.088156,0.129914l0.055678,0.199511l0.074237,0.129914l0.129914,0.018559l0.218071,-0.074237l0.24127,-0.306227l0.134554,-0.320146l-0.018559,-0.338705l-0.153113,-0.501098l-0.134554,-0.213431l-0.139194,-0.046398l-0.055678,-0.064957l-0.051038,0.00928l-0.092796,0.542857l-0.032479,0.102076l-0.018559,0.180952l0.013919,0.111355l-0.106715,0.162393l-0.213431,0.097436l-0.148474,0.153113l-0.074237,-0.00464l-0.078877,-0.111355l0.018559,-0.180952l0.408302,-0.542857l0.199511,-0.45934l0.111355,-0.440781l0.018559,-0.352625l-0.051038,-0.208791l-0.338705,-0.310867l-0.167033,-0.199511l-0.306227,-0.334066l-0.129914,-0.060317l-0.153113,-0.157753l-0.064957,-0.134554l-0.162393,-0.167033l-0.306227,-0.204151l-0.185592,-0.283028l-0.074237,-0.185592l-0.018559,-0.185592l-0.046398,-0.139194l-0.125275,-0.176312l-0.115995,-0.088156l-0.106715,-0.111355l-0.018559,-0.069597l-0.078877,-0.088156l-0.199511,-0.092796l-0.125275,-0.106715l-0.083516,-0.032479l-0.037118,-0.064957l0.032479,-0.055678l0.097436,-0.00464l0.162393,0.088156l0.204151,0.143834l0.255189,0.055678l0.292307,0.018559l0.24127,-0.037118l0.361904,-0.120635l0.385103,-0.143834l0.352238,-0.173799l0.259829,-0.171673l0.106715,-0.153113v-0.115995l-0.088156,-0.111355l-0.00464,-0.120635l0.125275,-0.129914l0.120635,-0.037118l0.139194,0.074237l0.106715,0.23663l0.167033,0.204151l0.157753,0.347985l0.00928,0.167033l0.157753,0.264469l0.361904,0.366544l0.306227,0.412942l0.380464,0.394383l0.111355,0.250549l0.064957,0.338705l-0.018559,0.153113l-0.064957,0.125275l-0.018559,0.153113l-0.102076,0.106715l-0.199511,0.102076l-0.190232,0.204151l-0.083516,0.264469l-0.027839,0.269108l0.013919,0.440781l0.060317,0.338705l0.176312,0.566056l0.579975,1.275945l0.455667,0.932406Z M2049.393904,422.03936l-0.037828,0.15084l0.037828,0.15084l0.122942,0.009428l0.113485,-0.103703l0.028371,-0.207405l-0.132399,-0.207405h-0.122942l-0.047285,0.084848l0.037828,0.122558Z M2056.378251,359.116855l0.018559,0.148474l0.074237,0.018559l0.055678,-0.074237v-0.142287l0.080423,-0.08661l0.513471,-0.088156l0.210338,-0.091249l0.109809,-0.010826l0.088156,0.023199l0.023199,-0.032479l-0.174379,-0.15756l-0.22271,-0.012373l-0.519658,0.185592l-0.182885,0.115802l-0.074237,0.204151Z M2053.343822,360.233501l0.018559,-0.032479l-0.037118,-0.041758l-0.501098,0.027839l-0.292307,0.157753l-0.027839,0.111355l0.064957,0.027839l0.106715,-0.083516l0.255189,-0.106715l0.412942,-0.060317Z "/>
</svg>
