<svg xmlns="http://www.w3.org/2000/svg" viewBox="1307.733 757.911 13.429 11.831">
  <path d="M1309.612573,763.747492l0.022184,0.034509l-0.002465,0.027114l-0.022184,0.002465l-0.019719,-0.027114l0.002465,-0.034509l0.019719,-0.002465Z M1310.38162,763.643966l0.024649,0.049298l0.019719,-0.00493l0.00493,-0.061622l-0.022184,-0.041903l-0.022184,0.007395l-0.00493,0.051763Z M1307.910443,766.942912l0.030932,0.00928l0.133008,-0.136101l0.040212,-0.012373l-0.003093,-0.037118l-0.040212,-0.015466l-0.064957,0.021652l-0.080423,0.108262l-0.015466,0.061864Z M1308.191924,766.782066l0.037118,-0.012373l0.021652,-0.024746l-0.018559,-0.024746l-0.040212,0.015466l-0.021652,0.027839l0.021652,0.018559Z  M1312.511578,760.137872l0.273,0.016l0.059,-0.03l0.227,-0.017l0.111,-0.163l0.182,-0.096l0.222,0.011l0.115,0.072l0.052,0.089l0.081,0.016l0.031,-0.059l0.012,-0.145l0.112,-0.192l0.102,-0.006l0.157,0.256l0.171,0.068l0.064,0.556l0.14,0.241l0.097,0.009l0.111,-0.083l0.344,-0.144l0.111,-0.162l0.079,-0.038l0.13,0.075l0.07,-0.037l0.032,-0.181l0.162,-0.149l0.223,0.028l0.302,-0.223l0.051,-0.408l0.097,-0.07l0.153,0.005l0.511,-0.557l0.06,-0.204l0.116,-0.116l0.148,-0.037l0.047,-0.102l-0.019,-0.176l0.07,-0.158l0.121,-0.042l0.153,0.028l0.241,-0.028l0.144,-0.074l0.088,0.009l0.07,0.056l-0.149,0.139l-0.009,0.107l0.042,0.125l0.074,0.028l0.014,0.055l-0.019,0.089l0.033,0.111l0.181,0.051l0.088,0.121l0.065,0.19l0.171,0.25l0.019,0.144l0.051,0.121l-0.009,0.107l0.079,0.185l0.18,0.084l0.089,0.079l0.102,0.194l0.338,0.033l0.353,0.343l0.046,0.023l0.033,0.483l0.653,0.875l-0.112,0.26l0.062,0.798l-0.161,0.811l0.334,0.581l0.279,0.316l-0.031,0.13l-0.093,0.068l-0.173,0.414l-0.081,0.52l0.068,0.507l-0.142,0.248l-0.155,0.037l-0.142,0.154l-0.13,0.019l-0.331,-0.207l-0.127,0.018l-0.052,0.142l-0.17,0.186l-0.102,0.012l-0.075,-0.055l-0.25,0.003l-0.136,0.108l-0.084,-0.006l-0.055,-0.031l-0.09,-0.015l-0.18,-0.087l-0.346,-0.347l0.006,-0.154l-0.086,-0.031l-0.099,0.056l-0.093,-0.025l-0.087,-0.062l-0.142,0.019l-0.186,0.266l-0.563,0.105l-0.266,-0.118l-0.105,0.013l-0.21,0.426l-0.297,0.081l-0.297,-0.081l-0.235,-0.21l-0.13,-0.223l-0.452,-0.173l-0.092,0.037l-0.062,0.248l0.151,0.594l-0.046,0.167l-0.158,0.12l-0.102,0.279l-0.009,0.148l0.074,0.306l-0.074,0.474l-0.232,0.399l-0.316,0.148l-0.148,0.009l-0.149,-0.083l-0.148,0.046l-0.176,0.269l-0.232,0.028l-0.297,-0.148l-0.167,-0.01l-0.13,0.112l-0.427,0.046l-0.112,0.074h-0.157l-0.223,-0.12l-0.316,-0.019l-0.306,0.13l-0.055,0.102l-0.084,-0.009l-0.111,-0.436l-0.084,-0.047l0.009,-0.129l0.065,-0.121v-0.158l-0.092,-0.111l-0.047,-0.204l-0.287,-0.158l-0.195,-0.056l-0.167,0.037l-0.325,-0.083l-0.121,-0.093l-0.12,-0.028l-0.056,0.074l-0.084,-0.009l-0.13,-0.065l-0.139,-0.004l-0.111,0.069l-0.056,0.093l-0.042,0.264l0.042,0.13l-0.004,0.195l-0.07,0.102l-0.031,0.088l-0.066,-0.046l-0.181,-0.181l-0.126,-0.051l-0.208,-0.028l-0.321,-0.199l-0.065,-0.668l-0.194,-0.205l0.016,-0.097l0.123,-0.055l0.052,-0.064l-0.002,-0.054l0.038,-0.138l0.037,-0.288l0.13,-0.139l0.19,-0.06l0.088,0.028l0.089,-0.01l0.157,-0.199l0.153,-0.422l0.061,-0.019l0.092,0.074l0.005,0.135l-0.023,0.19l0.042,0.098l-0.042,0.176l0.037,0.042l0.116,-0.153l0.07,-0.218l0.13,-0.126l0.037,-0.12l0.06,-0.051l0.162,-0.033l0.293,-0.334l0.134,-0.399l0.166,-0.172l0.205,-0.032l0.033,-0.051l-0.059,-0.183l0.05,-0.179l0.142,-0.093l0.186,0.043l0.061,-0.037l0.007,-0.111l0.136,-0.142h0.099l0.043,-0.056l-0.062,-0.167l-0.161,-0.21l-0.043,-0.205l-0.068,-0.049l-0.13,-0.043l-0.111,-0.254l0.092,-0.278l-0.043,-0.273l-0.08,-0.049l-0.044,-0.167l0.068,-0.136l-0.074,-0.31l-0.08,-0.098l-0.074,-0.007l0.015,-0.142l0.074,-0.116l0.074,-0.162l0.293,-0.232l0.097,-0.13l0.079,-0.209l0.098,-0.111l0.046,-0.149l0.566,-0.032l0.348,-0.46l0.362,-0.32h0.139l0.023,0.037h0.047l0.014,-0.046z"/>
</svg>
