<svg xmlns="http://www.w3.org/2000/svg" viewBox="1344.944 531.187 139.706 110.719">
  <path d="M1449.306805,578.67529l-0.060317,-0.074237l-0.00464,-0.064957l0.051038,-0.023199l0.180952,0.055678l0.041758,0.074237v0.102076l0.064957,0.180952l-0.013919,0.032479l-0.055678,-0.023199l-0.106715,-0.218071l-0.097436,-0.041758Z M1446.164113,563.255687l-0.055678,0.055678l-0.006186,0.055678l0.043305,0.012373l0.055678,-0.043305l0.012373,-0.074237l-0.049491,-0.006186Z M1442.054797,565.502897l0.018559,0.078877l0.041758,0.00928l0.027839,-0.069597v-0.074237l-0.041758,-0.027839l-0.037118,0.023199l-0.00928,0.060317Z M1442.551256,565.809124l0.00928,0.046398l0.051038,0.013919l0.102076,-0.041758l0.041758,-0.111355l-0.055678,-0.018559l-0.092796,0.041758l-0.055678,0.069597Z M1442.90388,566.760283l0.051038,-0.041758l0.023199,-0.074237l-0.018559,-0.037118l-0.060317,0.00928l-0.032479,0.055678v0.078877l0.037118,0.00928Z M1443.019875,566.950515l0.055678,-0.037118l0.041758,-0.064957l-0.00928,-0.032479l-0.046398,0.00928l-0.023199,0.046398l-0.046398,0.027839l-0.00928,0.037118l0.037118,0.013919Z M1443.83648,566.528293l-0.069597,0.157753l0.041758,0.074237l0.157753,0.064957l0.194872,0.185592l0.083516,0.00464l0.032479,-0.055678l-0.027839,-0.167033l-0.051038,-0.069597l-0.111355,-0.023199l-0.078877,-0.064957l-0.083516,-0.259829l-0.055678,-0.00928l-0.046398,0.060317l0.013919,0.102076Z M1443.919997,566.152469l0.097436,-0.092796l0.143834,-0.023199l0.139194,0.064957l0.032479,0.111355l-0.046398,0.064957l0.018559,0.051038l0.115995,0.023199l0.171673,-0.097436l0.162393,-0.060317l0.129914,0.00928l0.060317,0.051038l0.139194,0.037118l0.162393,-0.018559v-0.032479l-0.347985,-0.120635l-0.273748,-0.023199l-0.190232,-0.055678l-0.046398,-0.097436l-0.180952,-0.074237l-0.213431,0.023199l-0.153113,0.102076l-0.157753,0.301587l-0.00928,0.143834l0.046398,0.00464l0.125275,-0.129914l0.074237,-0.162393Z M1345.031937,561.164684h0.180952l0.069597,0.060317l-0.027839,0.064957l-0.194872,0.055678l-0.00928,0.088156l0.190232,0.069597l0.180952,-0.023199l0.153113,0.055678l0.204151,0.22271l-0.046398,0.078877l-0.324786,0.023199l-0.306227,-0.129914l-0.157753,-0.218071l0.00464,-0.259829l0.083516,-0.088156Z M1346.020214,561.814256l0.102076,-0.037118l0.051038,-0.078877l0.064957,0.013919l0.064957,0.157753l0.120635,0.027839l0.102076,-0.064957l0.00928,-0.097436l-0.115995,-0.157753l-0.157753,-0.041758l-0.194872,0.078877l-0.078877,0.148474l0.032479,0.051038Z M1346.532139,560.830619l0.030932,0.018559l0.080423,-0.006186l0.102076,-0.030932l-0.049491,-0.071144l-0.003093,-0.074237l-0.074237,-0.052584l-0.074237,0.021652l-0.06805,0.040212l0.015466,0.034025l0.08661,-0.015466l0.003093,0.037118l-0.049491,0.061864v0.037118Z M1346.96828,560.747102l0.07733,-0.024746l0.06805,-0.055678l0.027839,-0.092796l-0.027839,-0.030932l-0.037118,0.012373l-0.015466,0.046398l-0.108262,0.049491l-0.021652,0.074237l0.037118,0.021652Z M1348.449923,560.756382l-0.021652,0.074237l0.024746,0.061864l0.061864,0.021652l0.034025,-0.030932l-0.012373,-0.080423l-0.040212,-0.040212l-0.046398,-0.006186Z M1349.464493,561.529682l0.102076,0.114448l0.14538,0.061864l0.018559,-0.024746l-0.089703,-0.071144l-0.049491,-0.114448l-0.071144,-0.052584l-0.052584,0.012373l-0.003093,0.074237Z M1347.630225,561.774045l0.089703,-0.037118l-0.003093,-0.034025l-0.052584,-0.027839l-0.037118,0.015466l-0.027839,0.061864l0.030932,0.021652Z M1348.740684,561.975103l0.043305,-0.030932l0.003093,-0.046398l-0.027839,-0.037118l-0.043305,0.006186l-0.018559,0.037118l0.00928,0.052584l0.034025,0.018559Z M1349.127334,562.807173l0.089703,0.064957h0.034025v-0.040212l-0.052584,-0.080423l-0.092796,-0.030932l-0.012373,0.027839l0.034025,0.058771Z M1349.387163,562.794801l0.07733,0.003093l0.012373,-0.024746l-0.027839,-0.030932l-0.089703,-0.012373l-0.024746,0.027839l0.052584,0.037118Z M1353.193345,567.637205l0.167033,0.208791h0.051038l0.00928,-0.051038l-0.083516,-0.208791l-0.106715,-0.078877l-0.051038,0.00928l0.013919,0.120635Z M1357.25781,574.239641l0.111355,0.013919l0.013919,-0.032479l-0.064957,-0.055678l-0.083516,-0.00928l-0.037118,0.027839l0.060317,0.055678Z M1358.357443,577.218392l0.023199,0.129914l0.185592,0.180952l0.120635,0.060317l0.013919,-0.037118l-0.060317,-0.115995l0.027839,-0.143834l-0.027839,-0.051038l-0.046398,0.00464l-0.074237,0.088156l-0.046398,-0.00928l0.00464,-0.171673l-0.037118,-0.115995l-0.055678,0.00464l-0.027839,0.176312Z M1358.032657,577.900443l-0.00928,0.088156l0.111355,0.171673l0.129914,0.037118l0.148474,-0.055678l-0.018559,-0.055678l-0.106715,-0.051038l-0.088156,-0.162393l-0.092796,-0.023199l-0.074237,0.051038Z M1360.320078,578.726328l0.097436,-0.00464l0.092796,-0.041758l0.032479,-0.060317l-0.046398,-0.092796l-0.088156,-0.027839l-0.088156,0.046398l-0.046398,0.134554l0.046398,0.046398Z M1360.844376,578.369063l0.083516,0.046398l0.032479,-0.046398l-0.027839,-0.064957l-0.064957,-0.032479l-0.041758,0.023199l0.018559,0.074237Z M1360.784058,578.642811l0.027839,0.060317l0.069597,0.023199l0.064957,0.111355l0.051038,-0.023199l-0.055678,-0.180952l-0.097436,-0.106715l-0.037118,0.00464l-0.023199,0.111355Z M1361.094925,578.758806l0.078877,0.055678l0.032479,-0.027839l-0.027839,-0.055678l-0.078877,-0.051038l-0.032479,0.018559l0.027839,0.060317Z M1361.224839,579.055753l0.111355,-0.00928l0.00928,-0.046398l-0.180952,-0.106715h-0.074237l-0.041758,0.051038l0.032479,0.069597l0.143834,0.041758Z M1361.289796,579.227426l0.027839,0.046398l-0.055678,0.046398v0.092796l0.074237,0.051038l0.074237,-0.023199l0.102076,0.069597l0.074237,-0.00928l0.027839,-0.074237l-0.027839,-0.051038l-0.094161,-0.008038l-0.058952,-0.03836l-0.013919,-0.106715l-0.069597,-0.055678l-0.111355,-0.018559l-0.013919,0.032479l0.064957,0.046398Z M1361.862038,582.724289l0.080423,0.080423l0.179406,0.074237l0.074237,-0.024746l-0.012373,-0.098982l-0.191778,-0.15466l-0.088966,0.015829l-0.040949,0.107899Z M1360.414421,579.692953l0.235083,0.105169l0.074237,0.160846l0.098982,0.074237l0.06805,-0.043305l-0.092796,-0.266015l-0.197965,-0.191778l-0.15466,-0.030932l-0.08661,0.055678l0.055678,0.136101Z M1359.50502,578.641265l0.24127,0.08661l0.049491,-0.030932l-0.111355,-0.08661l-0.179406,-0.055678l-0.061864,0.018559l0.061864,0.06805Z M1360.179338,579.12999h0.123728v-0.043305l-0.105169,-0.049491h-0.061864l-0.024746,0.049491l0.06805,0.043305Z M1360.080355,579.290837l0.08661,0.043305l0.043305,-0.043305l-0.049491,-0.08661l-0.06805,-0.024746l-0.024746,0.043305l0.012373,0.06805Z M1373.127473,595.307427v0.098982l0.061864,0.080423l0.049491,-0.012373l-0.006186,-0.105169l-0.043305,-0.080423l-0.061864,0.018559Z M1374.142043,597.313367l0.078877,0.046398l0.032479,-0.018559l-0.041758,-0.078877l-0.074237,-0.051038l-0.037118,0.023199l0.041758,0.078877Z M1373.552788,596.826188l0.069597,0.046398l0.032479,-0.018559l-0.018559,-0.060317l-0.051038,-0.032479l-0.041758,0.00928l0.00928,0.055678Z M1374.299796,603.071359l0.046398,-0.046398l-0.00928,-0.051038h-0.032479l-0.037118,0.032479l-0.00464,0.055678l0.037118,0.00928Z M1382.589572,616.167968l0.07733,-0.003093l-0.003093,-0.034025l-0.046398,-0.030932l-0.095889,-0.003093l-0.006186,0.034025l0.074237,0.037118Z M1382.015784,617.468658l0.129914,0.097436l0.041758,0.013919l0.00928,-0.041758l-0.069597,-0.097436l-0.083516,-0.041758l-0.041758,0.018559l0.013919,0.051038Z M1385.198686,619.844236l0.255189,0.069597l0.032479,-0.023199l-0.032479,-0.051038l-0.250549,-0.097436l-0.092796,0.00464l-0.00464,0.041758l0.092796,0.055678Z M1385.546671,619.29674l0.060317,0.00464l0.013919,-0.032479l-0.037118,-0.037118l-0.037118,-0.00464l-0.027839,0.032479l0.027839,0.037118Z M1386.135926,619.561208l0.013919,0.055678l0.037118,0.00464l0.032479,-0.060317v-0.060317l-0.032479,-0.00928l-0.032479,0.023199l-0.018559,0.046398Z M1387.059246,622.201255l0.046398,0.051038l0.037118,-0.013919l0.00928,-0.069597l-0.041758,-0.046398l-0.041758,0.00928l-0.00928,0.069597Z M1391.31549,629.914149l0.049491,0.074237l0.043305,-0.024746v-0.074237l-0.037118,-0.049491l-0.043305,0.012373l-0.012373,0.061864Z M1388.13568,626.969422l0.105169,0.08661l0.061864,-0.006186l0.012373,-0.074237l-0.043305,-0.148474l-0.08661,-0.043305l-0.08661,0.055678l0.037118,0.129914Z M1388.247035,627.699418l0.123728,-0.24127l-0.006186,-0.08661l-0.043305,-0.006186l-0.06805,0.080423l-0.043305,0.228897l0.037118,0.024746Z M1389.277071,628.070602l0.051038,0.00928l0.041758,-0.032479v-0.032479l-0.088156,-0.018559l-0.032479,0.013919l0.027839,0.060317Z M1392.855903,638.581296l0.105169,0.06805l0.074237,0.173219l-0.08661,0.136101l0.035572,0.057224l0.111355,-0.037118l0.134554,0.055678l0.095889,0.115995l0.043305,0.173219l0.30932,0.272202l0.129914,0.024746l0.098982,0.06805l0.024746,0.074237l0.22271,0.160846l0.160846,0.006186l0.049491,-0.080423l0.185592,-0.018559l0.185592,-0.049491l0.197965,-0.006186l0.228897,0.092796l0.043305,0.129914l-0.061864,0.111355l-0.216524,0.061864l0.012373,0.049491l0.272202,0.024746l0.15466,0.080423l0.105169,0.160846l0.123728,0.049491l0.098982,-0.030932l0.024746,-0.129914l-0.111355,-0.204151l0.006186,-0.247456l0.092796,-0.080423l0.012373,-0.167033l-0.117542,-0.08661l-0.136101,-0.012373l-0.278388,-0.284574l-0.080423,-0.266015l-0.105169,-0.074237l-0.129914,0.018559l-0.123728,0.148474l-0.061864,0.284574l0.043305,0.080423l0.105169,0.024746l0.043305,-0.049491l-0.018559,-0.074237l0.049491,-0.018559l0.092796,0.148474l-0.061864,0.098982l-0.105169,-0.024746l-0.105169,0.061864l-0.105169,-0.037118l-0.043305,-0.142287l-0.160846,-0.055678l-0.123728,0.055678l-0.111355,-0.006186l-0.117542,-0.061864l-0.197965,-0.018559l-0.129914,-0.06805l-0.129914,-0.160846l-0.049491,-0.191778l-0.111355,-0.204151l-0.168579,-0.143834l-0.171673,-0.051038l-0.120635,-0.115995l-0.108262,-0.035572l-0.061864,0.037118l0.037118,0.129914Z M1393.876659,639.063835l0.290761,0.092796l0.105169,-0.006186l0.092796,0.049491l0.043305,0.142287l0.061864,0.006186l0.018559,-0.074237l-0.074237,-0.15466l-0.123728,-0.129914l-0.247456,-0.098982l-0.105169,-0.117542l0.024746,-0.06805l0.185592,-0.043305l0.160846,0.037118l0.043305,-0.049491l-0.043305,-0.080423l-0.185592,-0.08661l-0.105169,-0.15466l0.006186,-0.08661l0.049491,-0.024746l0.012373,-0.080423l-0.105169,-0.123728l-0.092796,-0.012373l-0.061864,0.105169l-0.136101,0.15466h-0.185592l-0.136101,0.043305l0.006186,0.129914l0.197965,0.259829l0.08661,0.204151l0.216524,0.167033Z M1393.991108,637.958016l0.037118,0.037118l0.041758,-0.013919v-0.092796l-0.064957,-0.064957l-0.120635,-0.051038l-0.162393,-0.148474l-0.23663,-0.060317l-0.027839,0.032479l0.055678,0.046398l0.171673,0.041758l0.176312,0.157753l0.037118,0.078877l0.092796,0.037118Z M1392.817238,637.354842l0.097436,-0.037118l-0.00928,-0.041758l-0.129914,-0.023199l-0.064957,0.037118l0.00464,0.060317l0.102076,0.00464Z M1393.072427,637.971935l0.083516,0.037118l0.055678,-0.018559l0.023199,-0.088156l-0.055678,-0.083516l-0.074237,-0.018559l-0.055678,0.032479l0.023199,0.139194Z M1392.640926,639.043729l0.00928,0.069597l0.083516,0.027839l0.106715,-0.027839l0.00928,-0.060317l-0.078877,-0.046398l-0.129914,0.037118Z M1392.172306,638.111129l-0.013919,0.134554l0.129914,0.139194l0.111355,0.00928l0.139194,-0.060317l0.088156,-0.111355l-0.013919,-0.074237l-0.194872,-0.176312l-0.111355,0.00464l-0.134554,0.134554Z M1392.617727,639.503069l-0.013919,0.055678l0.134554,0.143834l0.162393,0.060317l0.24127,0.023199l0.148474,0.060317l0.037118,-0.018559l-0.032479,-0.060317l-0.129914,-0.092796l-0.041758,-0.097436l-0.306227,-0.102076l-0.199511,0.027839Z M1393.438971,640.027367l0.125275,0.083516l0.088156,0.013919l0.023199,-0.032479l-0.092796,-0.092796l-0.139194,-0.051038l-0.037118,0.023199l0.032479,0.055678Z M1394.473647,640.319674l0.129914,0.064957l0.064957,-0.032479l0.069597,-0.255189l-0.088156,-0.060317l-0.125275,0.018559l-0.102076,0.097436l0.00928,0.115995l0.041758,0.051038Z M1394.765954,640.899649l0.078877,-0.00464l0.055678,-0.097436l0.013919,-0.111355l-0.078877,-0.041758l-0.120635,0.018559l-0.037118,0.106715l0.088156,0.129914Z M1393.856553,640.301115l0.088156,0.027839l0.027839,-0.032479l-0.060317,-0.078877l-0.055678,-0.00928l-0.037118,0.037118l0.037118,0.055678Z M1394.306614,640.500626l0.051038,-0.013919l0.041758,-0.046398l-0.023199,-0.032479l-0.088156,0.00928l-0.032479,0.055678l0.051038,0.027839Z M1393.810155,641.549221l-0.027839,0.037118v0.069597l0.032479,0.018559l0.051038,-0.037118l-0.00464,-0.064957l-0.051038,-0.023199Z M1391.671208,638.839578l0.22735,0.125275l0.120635,-0.00928l-0.00464,-0.088156l-0.259829,-0.399023l-0.106715,-0.074237l-0.055678,0.023199l0.013919,0.283028l0.064957,0.139194Z M1392.125908,637.62395l0.060317,-0.00464l0.013919,-0.041758l-0.032479,-0.037118h-0.041758l-0.027839,0.046398l0.027839,0.037118Z M1393.884392,637.136771l0.097436,0.055678l0.055678,-0.018559l-0.023199,-0.069597l-0.129914,-0.074237l-0.046398,0.027839l0.046398,0.078877Z M1397.132252,638.514792l0.060317,0.00928l0.032479,-0.027839l-0.018559,-0.046398l-0.064957,-0.00928l-0.046398,0.032479l0.037118,0.041758Z M1397.359603,639.071568l0.018559,0.064957l0.041758,0.037118l0.037118,-0.013919l-0.00464,-0.051038l-0.051038,-0.051038l-0.041758,0.013919Z M1394.413329,638.867417l0.120635,-0.027839h0.148474l0.013919,-0.046398l-0.083516,-0.037118l-0.190232,0.032479l-0.041758,0.055678l0.032479,0.023199Z M1394.455088,639.127245l0.051038,0.106715l0.046398,0.013919l0.027839,-0.078877l-0.064957,-0.102076l-0.046398,0.00464l-0.013919,0.055678Z M1395.856307,639.419553l0.051038,-0.051038v-0.051038l-0.037118,-0.00928l-0.041758,0.023199l-0.018559,0.074237l0.046398,0.013919Z M1396.092937,641.595619l0.139194,0.032479l0.013919,-0.032479l-0.083516,-0.060317l-0.125275,-0.027839l-0.046398,0.027839l0.102076,0.060317Z M1398.074132,639.897452l0.055678,-0.041758l0.023199,-0.046398l-0.018559,-0.032479l-0.051038,0.013919l-0.051038,0.088156l0.041758,0.018559Z M1381.17598,615.512209l0.060317,0.07269l0.1593,0.069597h0.146927l0.22735,0.069597l0.194872,0.139194l0.47326,0.249003l0.023199,-0.017013l-0.023199,-0.046398l-0.408302,-0.224257l-0.24127,-0.165486l-0.235083,-0.066504l-0.173219,-0.015466l-0.180952,-0.085063l-0.023199,0.020106Z  M1399.51247,641.758012l0.186,0.014l0.209,0.13l0.19,0.004l0.626,-0.12l-0.009,-0.06l-0.055,-0.005l-0.028,-0.065l0.028,-0.107l-0.033,-0.111l0.051,-0.265l0.311,-0.213l0.496,-0.051l0.283,0.009l0.075,-0.074l0.074,-0.38l0.074,-0.219l-0.051,-0.218l0.065,-0.083l0.515,0.181l0.074,-0.056l-0.037,-0.278l-0.088,-0.07v-0.111l0.125,-0.153l0.126,-0.01l0.032,-0.074l-0.028,-0.13l0.042,-0.13l-0.074,-0.088h-0.084l-0.065,-0.051l-0.055,-0.153l-0.14,-0.079l-0.167,-0.06l-0.185,-0.186l-0.047,-0.19l0.061,-0.111l0.283,-0.112l0.009,-0.102l-0.074,-0.088l-0.005,-0.343l0.065,-0.014l0.093,0.055l0.148,0.005l0.093,-0.116l-0.074,-0.264l-0.158,-0.075l-0.097,-0.102h-0.056l-0.065,0.047l-0.083,-0.014l-0.038,-0.483l0.061,-0.111l0.162,-0.051l0.125,-0.163l-0.074,-0.213l0.056,-0.167l0.566,-0.26h0.186l0.018,-0.13l-0.659,-0.417v-0.102l0.074,-0.047l0.01,-0.083l-0.102,-0.065l0.009,-0.121l0.148,-0.056v-0.092l-0.065,-0.121l0.362,-0.334l0.353,-0.167l0.074,0.056l0.121,-0.01l0.056,-0.092l0.269,-0.019l0.371,0.121l0.213,0.241l0.093,0.009l0.278,0.241l0.251,0.325l0.455,0.399l0.686,-0.046l0.13,0.13l0.167,0.12l0.483,-0.018l0.399,0.074l0.297,-0.492l0.083,0.084l0.158,-0.102h0.13l0.204,0.259h0.084l0.13,-0.111l0.046,-0.185l1.494,-0.149l0.687,-0.009l0.64,0.195l0.538,-0.195h3.749l1.197,0.686l4.566,0.576l1.819,0.12l2.496,-0.343l1.652,2.283h1.206l1.865,-1.16l0.882,-2.283l3.823,-4.937l6.21,-3.004l11.117,-1.184l8.011,-1.429l19.859,-6.869l4.381,-13.654l-3.007,-4.878l-0.025,-0.04l-0.47,0.544l-16.839,-2.147l-6.567,-8.289v-0.882l-0.093,-0.009l-0.093,0.055l-0.13,-0.018l-0.232,-0.279l-0.269,-0.176l-0.343,-0.074l-0.223,0.074l-0.13,0.167h-0.315l-0.149,-0.111l-0.018,-0.251l0.111,-0.148l0.093,-0.362l0.107,-0.13l0.181,-0.102l0.171,-0.023l0.172,-0.256l0.028,-0.18l0.06,-0.116l0.102,-0.028l0.042,-0.047l0.014,-0.069l0.116,-0.047l0.13,-0.004l0.079,-0.093l-0.033,-0.074l-0.181,-0.047l-0.069,0.033l-0.056,-0.019l0.019,-0.162l-0.098,-0.051l-0.065,0.023l-0.056,-0.009l-0.051,-0.065h-0.037l-0.028,0.018l0.013,0.115l-0.034,0.108l-0.102,0.093l-0.108,0.04l-0.084,0.102l-0.009,0.127l-0.223,0.192l-0.068,0.012l-0.046,-0.022l-0.214,0.041l-0.111,0.055l-0.514,0.068l-0.13,0.075l-0.379,0.043l-0.649,-0.204l-0.455,-0.311l-0.455,-0.896l-0.32,-0.501l-0.123,0.013l-0.118,0.105l-0.056,-0.025v-0.136l-0.092,-0.142l-0.044,-0.303l-0.086,-0.168l-0.037,-0.222l-0.13,-0.149l-0.143,-0.037l-0.074,-0.111l-0.012,-0.217l-0.081,-0.241l-0.173,-0.13l-0.117,-0.272l-0.186,-0.217l-0.056,0.019l-0.006,0.099l0.05,0.093l-0.05,0.024l-0.099,-0.061l-0.018,-0.099l0.037,-0.068l0.006,-0.081l-0.062,-0.093l-0.037,-0.303l0.006,-0.093l0.05,-0.08l-0.007,-0.21l-0.117,-0.112l-0.105,-0.216l-0.007,-0.161l0.038,-0.13l-0.019,-0.315l-0.142,-0.223l-0.006,-0.173l-0.093,-0.217l-0.279,-0.272l-0.185,-0.074l-0.192,-0.211l0.012,-0.105l-0.074,-0.074l-0.086,0.006l-0.038,0.068l0.118,0.136l0.019,0.099l0.117,0.13l0.025,0.111l0.031,0.093l-0.044,0.031l-0.055,-0.043l-0.019,-0.136l-0.043,-0.05l-0.111,-0.049l-0.279,-0.378l-0.093,-0.055l-0.049,-0.087l-0.012,-0.105l-0.056,-0.074l-0.124,-0.044l-0.08,-0.092l-0.044,-0.161l-0.055,-0.081l-0.149,-0.086l-0.086,-0.198l0.037,-0.093l-0.019,-0.124l-0.056,-0.086l-0.055,0.006l-0.031,0.068l-0.074,-0.012l-0.186,-0.161l-0.148,-0.273l0.031,-0.049l0.142,0.056l0.099,0.136l0.253,0.167l0.106,0.031l0.074,0.08l0.049,0.149l0.087,0.167l0.012,0.099h0.05l0.018,-0.099l-0.037,-0.081l0.013,-0.154l-0.044,-0.106l-0.117,-0.049l-0.099,-0.142l0.006,-0.13l-0.087,-0.173l-0.13,-0.038l-0.142,-0.13l-0.427,-0.76l-0.049,-0.192l0.043,-0.13l0.093,-0.037l0.018,-0.05l-0.068,-0.111v-0.13l-0.037,-0.111l-0.099,-0.031l-0.086,0.012l-0.124,-0.037l-0.056,-0.08l-0.148,0.006l-0.105,0.13l-0.075,0.006l-0.049,-0.099l0.012,-0.47l0.068,-0.106l-0.006,-0.08l-0.13,-0.105l-0.006,-0.142l0.235,-0.495l0.087,-0.006l0.142,0.117l0.093,0.309l0.167,0.13l0.105,0.211l0.012,0.185l0.093,0.211l0.074,0.03l0.099,-0.061l0.025,-0.112l-0.037,-0.055l0.006,-0.106l0.044,-0.08l0.049,-0.39l-0.031,-0.068l0.025,-0.136l0.068,-0.012l0.068,0.08l0.074,-0.006l0.124,-0.179l0.018,-0.471l0.038,-0.117l0.012,-0.223l-0.037,-0.198v-0.142l0.086,-0.105l-0.006,-0.161l-0.105,-0.186l-0.087,-0.018l-0.105,0.012l-0.018,-0.062l0.148,-0.321l0.05,-0.217l-0.124,-0.155l-0.087,0.019l-0.068,0.297l-0.161,0.198l-0.061,0.012l-0.062,-0.08l0.012,-0.204l-0.037,-0.075l-0.056,0.025l-0.031,0.173l-0.086,0.068l-0.05,-0.031v-0.123h-0.062l-0.049,0.074h-0.068l-0.149,-0.204l-0.111,-0.309l0.056,-0.044l0.192,0.056l0.092,-0.031l0.037,-0.155l-0.006,-0.099l-0.068,-0.105l-0.13,-0.025l-0.173,0.075l-0.08,-0.013l-0.044,-0.29l0.037,-0.099l-0.012,-0.069h-0.117l-0.056,-0.068l-0.013,-0.334l0.056,-0.198l0.056,-0.012l0.111,0.124l0.093,0.334l0.093,0.037l0.086,-0.087l0.155,-0.006l0.192,0.062l0.161,0.13l0.086,0.142l0.05,0.087l0.049,-0.019l-0.024,-0.099l-0.26,-0.29l-0.303,-0.236l-0.532,-0.662l-0.279,-0.228l-0.192,-0.075l-0.204,0.013l-0.284,-0.075l-0.44,-0.21l-0.34,-0.297l-0.154,-0.068l-0.273,-0.26l-0.012,-0.074l0.074,-0.105l0.05,-0.118l-0.05,-0.037l-0.13,0.037l-0.105,-0.024l-0.099,-0.143l0.002,-0.07l0.234,-0.101l0.14,-0.003l0.119,-0.089l-0.042,-0.093l-0.051,-0.002l-0.08,0.092l-0.34,0.154l-0.124,-0.061l-0.223,-0.315v-0.205l0.062,-0.105l0.006,-0.111l-0.056,-0.006l-0.08,0.074l-0.074,0.006l-0.074,-0.099l-0.124,-0.018l-0.136,0.117l0.018,0.13l0.099,0.149l-0.031,0.049l-0.148,-0.087l-0.111,-0.024l-0.112,0.08l-0.037,0.13l-0.062,0.019l-0.037,-0.124l0.056,-0.13l-0.025,-0.068l-0.062,-0.006l-0.08,0.117l0.006,0.18l-0.043,0.031l-0.112,-0.087l-0.099,0.006l-0.105,-0.086l-0.012,-0.099l0.043,-0.124l0.08,-0.019l0.099,0.075l0.05,-0.031l-0.019,-0.087l0.062,-0.161l-0.049,-0.068l-0.204,-0.018l-0.087,0.061l0.019,0.149l-0.069,0.155l-0.068,-0.007l-0.129,-0.278l0.018,-0.501l-0.037,-0.124l-0.006,-0.26l-0.074,-0.13l-0.13,-0.024l-0.174,0.024l-0.111,0.112l-0.111,0.037l-0.006,-0.062l0.061,-0.056l0.025,-0.148l-0.012,-0.087l0.031,-0.055h0.068l0.074,-0.068l0.006,-0.087l-0.124,-0.099l-0.061,0.006l-0.031,0.118l-0.093,0.049h-0.105l-0.186,-0.155l-0.167,-0.049h-0.111l-0.019,-0.062l0.105,-0.08l0.087,0.012l0.056,-0.006l0.061,-0.068l0.087,0.006l0.043,0.074h0.044l0.068,-0.086l0.099,-0.007l0.13,0.056l0.185,-0.018l0.093,-0.13h0.056l0.037,0.08l-0.037,0.074l0.055,0.019l0.068,-0.081l-0.061,-0.191l-0.229,-0.167l-0.075,-0.149l0.007,-0.154l-0.075,-0.05l-0.13,0.031l-0.099,-0.056l-0.111,-0.192h-0.124l-0.024,0.137l-0.081,0.08l-0.371,-0.006l-0.167,-0.037l-0.056,-0.093l-0.123,-0.062h-0.118l-0.117,-0.043l-0.124,-0.192l-0.112,-0.111l-0.191,-0.025l-0.167,0.142l-0.05,0.186l-0.117,0.043l-0.044,-0.031l0.019,-0.284l0.049,-0.062l-0.024,-0.056l-0.075,0.043l-0.068,0.161l-0.105,0.019l-0.148,-0.093l-0.007,-0.093l0.062,-0.018l0.075,0.055h0.055l0.006,-0.062l-0.136,-0.092l0.013,-0.068l0.092,-0.007l0.019,0.05l0.05,0.012l0.037,-0.049l-0.025,-0.105l-0.056,-0.031l-0.099,0.018l-0.037,-0.043l0.013,-0.087l-0.013,-0.074l-0.056,-0.019l-0.08,0.056l-0.068,-0.025l-0.019,-0.086l0.038,-0.105l-0.007,-0.112l-0.055,-0.024l-0.05,0.049l-0.006,0.111l-0.099,0.062l-0.025,-0.055l0.044,-0.075l0.024,-0.21l0.081,-0.291l0.006,-0.167l0.068,-0.025l0.037,0.05l-0.031,0.315l-0.056,0.062l0.025,0.056l0.062,-0.031l0.056,-0.13l0.018,-0.213l0.102,-0.037l0.075,0.111l-0.065,0.371l-0.084,0.074l0.028,0.065l0.139,-0.074l0.065,-0.148v-0.177l0.074,-0.26l-0.018,-0.129l-0.306,-0.195l-0.112,-0.121l-0.009,-0.102l-0.037,-0.065l-0.149,-0.037l-0.287,-0.334l-0.019,-0.139l0.112,-0.056l0.092,0.009l0.084,-0.074l-0.028,-0.065l-0.473,-0.102l-0.39,-0.269l-0.223,-0.269l-0.083,-0.325l0.046,-0.26l0.065,-0.167v-0.111l-0.223,-0.269l-0.343,-0.288l-0.148,-0.418l0.083,-0.269l0.065,-0.148l-0.018,-0.112l-0.13,-0.111l-0.112,-0.232l0.01,-0.167l-0.038,-0.074l-0.222,-0.102l-0.195,-0.173l-4.788,0.08l0.027,-0.139l-0.343,-0.371l-0.111,-0.251l-0.214,-0.195l-0.093,-0.278v-0.269l0.028,-0.204l-0.055,-0.548l-0.501,-0.659l-0.103,-0.26l-0.232,-0.259l-5.988,-0.724l-0.987,0.342l-11.306,-0.986l-17.315,-13.777l-4.25,-1.911l-6.737,-4.25l-7.973,-1.564l-1.306,1.134l-13.187,3.722l6.532,7.345l-2.219,1.184l-1.074,2.475l-4.925,0.928l-1.633,2.648l-2.843,2.236l-7.358,-1.215l-0.075,0.213l-0.079,0.13l-0.046,0.204l0.056,0.13l-0.033,0.149l-0.134,0.185l-0.126,0.441l-0.083,0.13l-0.093,0.469l-0.069,0.106l-0.033,0.181l0.056,0.167l-0.019,0.13l-0.097,0.204l-0.084,0.497l0.042,0.167l-0.06,0.45l-0.084,0.218l-0.121,0.496l-0.097,0.149l-0.005,0.148l0.098,0.242l-0.005,0.144l-0.023,0.092v0.13l0.093,0.158l-0.009,0.144l-0.075,0.209l-0.116,0.125l-0.12,0.213l-0.037,0.228l-0.163,0.357l-0.032,0.181l-0.246,0.45l-0.07,0.209l-0.023,0.218l-0.065,0.12l-0.065,0.047l-0.014,0.055l0.056,0.116l-0.023,0.042l-0.075,-0.014l-0.037,-0.046l-0.051,0.009l-0.097,0.163l-0.125,0.069l-0.14,0.228l-0.014,0.097l0.065,0.037l0.093,-0.051l0.074,0.009l0.038,0.084l-0.028,0.12l0.004,0.075l0.088,0.093l-0.009,0.083l0.056,0.037l0.116,-0.046l0.056,-0.204l0.078,-0.042l0.024,-0.065l-0.098,-0.093l0.023,-0.083l0.126,-0.07l0.074,-0.111l0.134,-0.047l0.065,0.033l0.038,0.102l0.078,0.046l0.154,0.047l0.134,0.078l0.07,-0.013l0.051,-0.079l0.157,-0.065l0.186,-0.01l0.079,0.019l-0.005,0.051l-0.079,0.06l-0.023,0.107l0.074,0.046l0.14,-0.051l0.278,0.033l0.13,-0.028l0.083,-0.093l0.266,-0.097l0.106,0.009l0.099,0.065l0.027,-0.012l-0.046,-0.118l0.028,-0.021l0.073,0.049l0.065,0.023l0.055,-0.014l0.121,0.042l0.246,0.195l0.102,0.032h0.088l0.097,0.037l0.033,0.056l0.093,0.033l0.185,-0.014l0.139,0.06l0.038,0.06l-0.028,0.051l-0.255,0.07l-0.13,0.093l0.023,0.055l0.227,0.075l0.209,0.148l0.162,0.061l0.079,0.083l0.061,0.172l0.343,0.422l0.121,0.07l0.051,0.111l-0.014,0.181l0.083,0.107l0.265,0.083l0.144,0.088l0.266,0.49v0.174l0.092,0.191l0.211,0.186l0.074,0.173v0.316l0.142,0.371l0.156,0.113l0.075,0.13l0.027,0.171l0.46,0.543l0.362,0.191l0.213,0.19l0.116,0.241l0.297,0.357l0.06,0.172l-0.027,0.079l-0.093,0.074l-0.037,0.241l0.088,0.325l0.686,0.715l0.265,0.19l0.359,0.376l0.006,0.204l0.074,0.074l0.105,-0.006l0.075,0.08l0.055,0.297l0.245,0.464v0.158l0.139,0.176l0.185,0.056l0.112,0.121l0.009,0.12l0.158,0.177l0.204,0.092l0.334,0.52l0.538,1.03l0.028,0.26l0.411,0.773l0.217,0.248l0.192,0.383l0.074,0.371l0.278,0.359l0.311,0.218l0.228,0.061l0.229,-0.025l0.315,0.13l0.111,0.167l0.013,0.253l-0.099,0.464l-0.155,0.254l-0.111,0.087l-0.05,0.086l0.019,0.062l0.142,0.056l0.155,0.254v0.086l0.055,0.05l0.069,-0.007l0.049,0.044l0.043,0.167l0.118,0.105h0.117l0.087,0.062l0.124,0.161l0.068,-0.007l0.031,-0.105l-0.062,-0.179l0.037,-0.043l0.105,0.055l0.322,0.47l0.179,0.137l0.155,0.055l0.124,0.093l0.16,0.272l-0.006,0.105l0.075,0.106l-0.019,0.086l0.049,0.043l0.068,-0.012l0.069,0.074l-0.019,0.242l0.068,0.099l0.118,0.037l0.266,0.241l0.049,0.136v0.173l0.093,0.186l-0.012,0.124l0.043,0.123l0.099,0.087l0.037,0.074l0.006,0.136l0.229,0.279l0.433,0.439l0.136,0.087l0.173,0.34l0.037,0.284l-0.024,0.155l-0.105,0.099v0.173l0.228,0.353v0.247l-0.167,0.26l-0.024,0.161l0.068,0.198l-0.019,0.105l-0.26,0.309l-0.136,0.025l-0.024,-0.043l0.086,-0.056l-0.031,-0.049l-0.13,-0.037l-0.111,0.018l-0.031,0.111l0.111,0.223l0.149,0.043l0.086,-0.043l0.068,0.025l0.019,0.124l-0.049,0.08l0.037,0.285l0.099,0.105l0.315,0.179l0.13,0.161l0.074,0.186l0.05,0.024l0.055,-0.037l0.05,0.025l0.025,0.155l0.198,0.402l0.408,0.445l0.111,0.334l-0.024,0.112l-0.149,0.086l-0.025,0.161l0.211,0.248l0.26,0.433l0.482,0.198l0.248,0.024l0.086,-0.123l-0.012,-0.174l0.161,-0.061l0.334,0.111l0.42,0.272l0.174,0.334l0.482,0.334l0.421,0.05l0.359,0.185l0.334,0.26l0.222,0.124l0.211,0.037l0.42,0.297l0.223,0.334l0.248,0.173h0.198l0.197,0.112l0.161,0.185l0.433,0.371l0.05,0.136l0.124,0.112l0.148,0.025l0.198,0.272l0.025,0.284l0.519,0.99v0.285l0.186,0.142l0.105,-0.037l-0.012,-0.05l-0.118,-0.043l-0.037,-0.111l0.074,-0.062l0.161,-0.006l0.056,0.055l0.012,0.149l0.185,0.256l0.199,0.789l-0.013,0.18l0.186,0.488l0.074,0.062l0.056,0.118v0.13l0.21,0.383l0.149,0.105l0.055,-0.03l0.007,-0.081h0.062l0.086,0.18l0.074,0.587l-0.031,0.204l-0.074,0.099l0.006,0.124l0.189,0.249l0.427,0.098l0.195,0.143l0.339,0.585l-0.005,0.13l-0.065,0.009l-0.195,-0.093l-0.264,-0.445l-0.167,-0.107l-0.051,0.023l0.037,0.116l0.389,0.627l0.121,0.074l0.241,0.39l0.195,0.051l0.037,0.06l-0.032,0.079l-0.065,0.005l-0.014,0.069l0.199,0.251l0.056,0.158l0.009,0.125l0.119,0.23l0.18,0.204l0.043,0.211l-0.031,0.241l0.013,0.204l0.055,0.136l-0.007,0.161l-0.084,0.297l0.023,0.102l0.135,0.121l0.125,-0.065l0.042,-0.121l0.051,-0.014l0.037,0.079l-0.056,0.153l-0.144,0.093l-0.083,0.278l-0.014,0.237l-0.116,0.26l-0.213,0.223l-0.061,0.204l-0.004,0.26l-0.089,0.227l-0.013,0.125l0.046,0.01l0.046,-0.154l0.093,-0.208h0.037l0.014,0.143l-0.074,0.2v0.144l0.032,0.06l-0.032,0.051l-0.121,-0.046l-0.07,0.051l-0.05,0.204l0.032,0.116l-0.046,0.135l-0.093,0.064l-0.11,-0.043l-0.037,-0.105l0.093,-0.192l-0.043,-0.054h-0.121l-0.144,0.121l-0.037,0.144l0.102,0.245l0.051,0.149l-0.032,0.144l0.037,0.158l0.167,0.324l0.171,0.158l0.279,0.51l0.204,0.334l0.148,0.52l-0.027,0.473l0.102,0.214l0.188,0.126l0.119,0.249l-0.02,0.284l0.084,0.269l-0.047,0.232l-0.38,0.25l-0.028,0.204l0.371,0.557l0.056,0.223l-0.019,0.158l0.177,0.408l0.315,0.251l0.204,0.371l0.01,0.306l0.297,0.325l0.185,0.046l0.112,0.149l0.027,0.185l0.149,0.177l0.186,0.083l0.102,0.13l0.004,0.204l0.116,0.195l0.26,0.232l0.557,0.863l0.065,0.269l0.195,0.214l0.148,0.065l0.111,0.139l0.121,0.306l0.507,0.51l0.477,0.273l0.606,0.426l0.167,0.068l0.05,-0.018l-0.038,-0.087l-0.148,-0.093l0.019,-0.055l0.154,0.012l0.186,0.111l0.105,0.106l0.08,0.012l0.099,-0.093l0.285,-0.055l0.278,0.08l0.105,0.093l0.118,0.21l0.217,0.254l0.092,0.025l0.099,-0.031l0.204,0.012l0.062,0.043l0.019,0.124l-0.026,0.073l0.023,0.065l0.111,0.065l0.181,0.245l0.32,0.168l0.163,0.013l0.338,0.181l0.14,0.172l0.431,0.283l0.162,0.033l0.149,0.139l0.051,0.199l-0.07,0.167l0.033,0.061l0.107,0.037l0.069,0.06l0.084,0.214l0.004,0.097l0.084,0.107l0.083,0.014l0.061,0.055l0.102,0.232l0.199,0.186l0.028,-0.014l-0.051,-0.093l-0.121,-0.111l-0.018,-0.07l0.056,-0.028l0.111,0.07l0.158,0.005l0.157,-0.07l0.13,0.014l0.214,0.199l0.181,0.311l0.06,0.344l0.042,0.422l-0.042,0.023l-0.074,-0.042l-0.037,0.028l0.051,0.116l0.478,0.348l0.287,0.033l0.218,0.143l0.13,0.228l-0.055,0.413l0.12,0.482l0.269,0.214l0.242,0.491v0.511l0.167,0.297l0.259,0.176l0.242,0.074l0.102,0.158v0.251l-0.149,0.38l0.01,0.279l0.241,0.445l0.306,0.13l0.084,0.176l-0.149,0.566l0.019,0.288l0.324,0.649l0.205,0.158l0.343,0.037l0.436,0.418l0.037,0.223l0.186,0.352v0.353l0.06,0.237l0.121,0.134l0.014,0.088l-0.024,0.084l0.052,0.065l0.129,0.069l0.028,0.116l-0.106,0.172l0.041,0.037l0.102,-0.037l0.102,0.065l0.321,0.543l0.051,0.366l0.162,0.209l0.2,0.079l0.06,0.088l-0.065,0.251l0.018,0.088l0.07,0.009l0.056,-0.097l0.051,0.014l0.065,0.292l0.209,0.227l0.477,0.432l0.005,0.055l-0.037,0.047l0.023,0.046l0.172,0.037l0.195,0.121l0.25,0.079l0.186,0.144l0.185,0.208l0.498,0.347l0.143,0.056l0.117,0.086l0.044,0.112l0.049,0.043l0.111,0.025l0.396,0.352l0.037,0.186l0.093,0.08l0.192,0.087l0.464,0.439l0.099,0.21l0.062,0.038l0.124,-0.007l0.111,0.075l0.074,0.16l-0.025,0.248l-0.055,0.117l0.006,0.18l0.08,0.062l0.019,0.093l-0.093,0.185l0.031,0.05l0.08,-0.044l0.05,0.044v0.297l0.037,0.228l0.099,0.502l0.056,0.668h0.043l0.031,-0.124l-0.031,-0.39l0.093,-0.093v-0.099l-0.062,-0.173l-0.099,-0.111l0.019,-0.05l0.142,0.025l0.161,0.13l0.031,0.118l-0.037,0.08l0.018,0.136l0.217,0.328l0.16,0.105l0.205,0.031l0.292,0.282l0.025,0.068l-0.074,0.13v0.136l0.066,0.114v0.149l-0.043,0.117l0.024,0.118l0.248,0.253l0.284,0.118l0.266,0.241l0.273,0.489l0.08,0.241l0.093,0.05l0.006,0.08l-0.124,0.458l0.025,0.161l0.08,0.16l0.056,0.211l0.192,0.198l0.062,0.173l-0.068,0.223l0.024,0.176z"/>
</svg>
