<svg xmlns="http://www.w3.org/2000/svg" viewBox="2143.743 794.631 77.058 35.224">
  <path d="M2218.295613,828.184463l-0.111325,-0.123402l0.012369,-0.104892l0.191727,-0.135742l0.154618,0.01851l0.22265,-0.037021l0.333975,0.148083l0.006185,0.086382l-0.092771,0.252975l0.055663,0.037021h0.136064l0.179357,0.061701l0.086586,0.129572l-0.030924,0.061701l-0.092771,0.037021l-0.211827,-0.007713l-0.292228,0.074041l-0.055663,-0.050903l0.046385,-0.087924l0.060301,-0.050903l-0.027831,-0.01851l-0.078855,0.023138l-0.074217,0.097179l-0.114418,-0.009255l-0.23502,-0.203614l-0.068032,-0.197444Z M2219.408864,828.233824l0.106687,-0.078669l0.018554,-0.1342l-0.115964,-0.055531l-0.111325,0.032393l-0.106687,0.138827l0.018554,0.111062l0.19018,-0.013883Z M2216.500495,825.966309l0.051024,-0.064786l0.115964,-0.023138l0.023193,-0.092552l-0.115964,-0.037021l-0.004639,-0.050903l0.134518,-0.041648l0.041747,-0.097179l-0.041747,-0.138827l-0.208735,-0.129572l-0.213373,0.027765l-0.139156,0.171221l0.004639,0.194358l0.069578,0.013883l0.153072,-0.092552l0.060301,0.01851l-0.013916,0.055531l-0.060301,0.009255l-0.092771,0.138827l0.069578,0.097179l0.09434,0.0357l0.072647,0.005949Z M2211.708875,819.931941l0.102048,-0.027765l0.018554,-0.101807l-0.06494,-0.074041h-0.111325l-0.027831,0.120317l0.083494,0.083296Z M2214.992967,819.02185l0.068032,-0.148083l0.006185,-0.178933l-0.080401,-0.104892l-0.049478,0.01851l0.055663,0.194358l-0.068032,0.28074l0.068032,-0.061701Z M2215.067183,819.182273l-0.074217,0.111062l0.024739,0.049361l0.148434,-0.061701l0.173172,-0.191273l-0.012369,-0.067871l-0.129879,-0.030851l-0.123695,0.030851l-0.037108,0.080211l0.030924,0.080211Z M2213.298351,817.831019l0.055663,-0.01234v-0.061701l-0.049478,-0.00617l-0.043293,0.037021l0.037108,0.043191Z M2220.181955,816.010836l0.080401,-0.02468l-0.024739,-0.074041l-0.061847,-0.01234l-0.055663,0.049361l0.061847,0.061701Z M2220.627256,816.374873l0.018554,0.086382l0.098956,0.111062l0.055663,-0.02468l-0.037108,-0.154253l-0.11751,-0.092552l-0.061847,0.01851l0.043293,0.055531Z M2219.95312,815.68382l0.012369,0.049361l0.049478,0.030851l0.055663,-0.01234l-0.043293,-0.074041l-0.074217,0.00617Z M2211.643935,821.907919l0.120602,-0.060159l0.055663,-0.111062l-0.018554,-0.129572l-0.092771,-0.027765l-0.037108,0.092552l-0.023193,0.092552l-0.046385,0.111062l0.041747,0.032393Z M2213.276704,822.736256l0.148434,-0.01851l0.120602,-0.106434l0.009277,-0.143455l-0.06494,-0.013883l-0.185542,0.11569l-0.115964,0.046276l0.004639,0.074041l0.083494,0.046276Z M2171.67821,825.845992l0.074217,0.083296l0.28759,0.148083h0.148434l0.083494,-0.037021l-0.241204,-0.175848l-0.28759,-0.055531l-0.06494,0.037021Z M2211.708875,822.014353l-0.06494,-0.032393l-0.185542,0.194358l-0.069578,0.259145l0.023193,0.194358l0.139156,0.166593l0.143795,0.01851l0.162349,-0.069414l0.078855,-0.143455l0.03247,-0.01851l0.074217,0.171221v0.208241l0.051024,0.01851l0.088132,-0.083296l0.027831,-0.11569l0.134518,-0.060159l0.060301,-0.097179l0.129879,-0.111062l0.037108,-0.11569l0.125241,-0.101807l0.046385,-0.004628l0.106687,0.097179l0.06494,0.013883l0.041747,-0.055531l0.009277,-0.111062l0.060301,-0.023138l0.051024,0.032393l-0.018554,0.083296l-0.051024,0.046276l0.013916,0.046276l0.19018,0.032393l0.176265,-0.037021l0.227289,-0.106434l0.176265,-0.060159l0.018554,-0.064786h-0.037108l-0.120602,0.074041l-0.055663,-0.009255l-0.023193,-0.060159l0.051024,-0.041648l0.092771,-0.023138l0.208735,-0.226752l0.013916,-0.148083l-0.092771,-0.064786l-0.102048,0.009255l-0.491686,-0.11569l-0.180903,0.041648l-0.538072,-0.027765l-0.111325,0.032393l-0.134518,-0.023138l-0.092771,0.023138l-0.083494,0.129572l-0.139156,0.083296l-0.083494,0.161965l-0.013916,0.240634l-0.037108,0.046276l-0.120602,-0.046276l-0.03247,-0.120317l0.023193,-0.106434Z M2173.134713,827.697025l0.389638,0.388717l0.194819,-0.037021l0.185542,0.083296l0.046385,0.120317l0.454578,0.28691l0.259759,0.055531l0.454578,-0.166593l0.22265,0.01851l0.083494,0.185103l-0.111325,0.175848l0.06494,0.055531l0.343253,-0.037021l0.315421,0.175848l0.231927,0.499779l0.213373,0.138827l0.28759,0.037021l0.213373,0.175848h0.102048l0.102048,-0.240634l0.148434,-0.064786l0.250482,0.064786l0.083494,-0.046276l-0.055663,-0.120317l-0.519517,-0.277655l-0.445301,-0.425738l-0.649397,-0.240634l-0.324698,-0.055531l-0.909155,-0.638606l-0.28759,-0.083296l-0.176265,-0.111062l-0.129879,-0.203614l-0.204096,-0.157338l-0.473132,-0.138827l-0.269036,-0.009255l-0.194819,0.212869l0.102048,0.379462Z M2184.724898,819.293335h0.148434l0.136064,-0.160423l-0.074217,-0.345526l-0.160803,-0.111062l-0.111325,0.02468l-0.024739,0.172763l0.111325,0.172763v0.123402l-0.024739,0.123402Z M2184.551725,818.47888l-0.012369,-0.111062l-0.098956,-0.061701l-0.049478,0.086382l0.061847,0.111062l0.098956,-0.02468Z M2186.518469,816.269981l-0.049478,-0.407227l0.061847,-0.345526l-0.061847,-0.111062l-0.148434,-0.02468l-0.123695,0.246804l0.037108,0.357866l0.185542,0.357866l0.098956,-0.074041Z M2186.073169,818.293777l0.074217,-0.086382l-0.015462,-0.089467l-0.083494,0.003085l-0.061847,0.123402l0.086586,0.049361Z M2186.122647,818.497391l0.046385,0.101807h0.06494l0.037108,-0.083296l-0.074217,-0.074041l-0.074217,0.055531Z M2186.243249,818.839832l0.102048,0.185103l0.092771,0.037021l0.018554,-0.101807l-0.074217,-0.129572l-0.083494,-0.055531l-0.055663,0.064786Z M2177.556795,803.417642l-0.018554,-0.197444l-0.098956,-0.104892l-0.092771,0.02468l-0.012369,0.111062l0.11751,0.178933l0.10514,-0.01234Z M2164.975508,810.778583l0.083494,0.013883l0.055663,-0.041648l-0.03247,-0.087924l-0.092771,-0.004628l-0.037108,0.078669l0.023193,0.041648Z M2167.535987,811.662451l0.111325,0.01851l0.009277,-0.083296l-0.111325,-0.101807l-0.115964,0.009255l-0.03247,0.064786l0.139156,0.092552Z M2168.417311,811.4357l0.041747,-0.069414l-0.018554,-0.069414l-0.102048,0.004628l-0.046385,0.087924l0.051024,0.064786l0.074217,-0.01851Z M2167.758637,811.45421l0.111325,0.055531l0.19018,-0.027765l0.185542,-0.240634l-0.060301,-0.2684l0.069578,-0.171221l-0.051024,-0.055531l-0.185542,0.180476l-0.245843,0.407227l-0.013916,0.120317Z M2167.661227,811.33852l0.125241,-0.143455l0.157711,-0.300793l0.102048,-0.092552l-0.055663,-0.046276l-0.25512,0.041648l-0.088132,-0.069414l-0.013916,-0.120317l-0.074217,-0.013883l-0.055663,0.041648l-0.069578,-0.032393v-0.138827l-0.088132,-0.01851l-0.074217,0.097179l0.06494,0.124945l-0.013916,0.069414l-0.218012,0.111062l-0.041747,0.106434l-0.120602,0.055531l-0.009277,0.101807l0.139156,0.161965l0.074217,0.023138l0.060301,-0.037021l0.092771,0.037021l-0.004639,0.074041l0.060301,0.013883l0.134518,-0.078669l0.171626,0.032393Z M2167.104602,810.635128l0.055663,-0.050903l-0.037108,-0.074041l-0.069578,0.023138l-0.018554,0.064786l0.069578,0.037021Z M2166.977815,810.837199l0.034016,-0.027765l-0.012369,-0.098722l-0.055663,-0.043191l-0.034016,0.01851l0.021647,0.098722l0.046385,0.052446Z M2168.366287,811.080918l0.05257,-0.021595l0.040201,-0.052446l0.003092,-0.061701l-0.037108,-0.01851l-0.049478,0.040106l-0.030924,0.058616l0.021647,0.055531Z M2171.971984,811.599208l0.123695,0.067871l0.154618,-0.074041l0.049478,-0.166593l-0.092771,-0.123402l-0.098956,-0.030851l-0.148434,0.061701l-0.049478,0.141913l0.061847,0.123402Z M2173.289332,810.04434l0.055663,-0.104892l0.080401,-0.037021l0.111325,0.086382l0.074217,0.01851l0.012369,-0.074041l-0.074217,-0.123402l-0.173172,-0.02468l-0.173172,0.055531l-0.024739,0.104892l0.055663,0.098722h0.055663Z M2173.648046,810.328165l0.061847,-0.049361l-0.012369,-0.049361l-0.098956,0.00617l-0.018554,0.067871l0.068032,0.02468Z M2173.821219,810.753902v-0.080211l0.080401,-0.123402h0.10514l0.074217,-0.037021v-0.098722l-0.166988,-0.154253h-0.098956l-0.037108,0.049361l0.068032,0.049361l0.018554,0.061701l-0.148434,0.215954l0.037108,0.135742l0.068032,-0.01851Z M2174.928285,811.864522l0.191727,-0.049361l0.129879,-0.135742l0.136064,-0.01851l0.191727,0.141913l0.197911,-0.01851l0.253574,-0.222124l0.006185,-0.092552l-0.136064,-0.129572l-0.136064,0.01234l-0.111325,-0.02468l-0.136064,-0.308506l-0.092771,-0.061701l-0.123695,-0.01234l-0.23502,-0.141913l-0.098956,-0.123402h-0.086586l-0.043293,0.098722l-0.086586,0.00617l-0.030924,-0.092552l-0.123695,-0.080211h-0.241204l-0.055663,-0.055531l-0.080401,0.01851l0.024739,0.178933l-0.173172,0.111062l-0.197911,0.00617l-0.037108,0.067871l0.136064,0.252975l0.179357,0.030851l0.123695,-0.037021l0.228835,0.02468l0.136064,0.104892l0.160803,0.030851l0.185542,0.129572l0.197911,-0.02468l0.024739,0.067871l-0.142249,0.148083l-0.100099,0.002884l-0.103997,-0.039904l-0.10514,0.043191v0.129572l0.173172,0.061701Z M2189.59228,822.995401l0.098956,-0.00617l0.086586,-0.141913l-0.068032,-0.111062l-0.098956,-0.02468l-0.080401,0.061701l-0.018554,0.135742l0.080401,0.086382Z M2189.47477,823.303906l0.10514,-0.00617l0.030924,-0.055531l-0.049478,-0.043191l-0.111325,0.01851l-0.043293,0.061701l0.068032,0.02468Z M2182.226267,819.61418l0.321606,-0.074041l0.482409,0.172763l0.136064,0.148083v0.456588l0.247389,0.246804v0.29308l-0.098956,0.138827l0.098956,0.123402l0.23502,-0.01234l0.259759,0.160423l0.049478,0.172763l0.111325,0.061701l0.173172,0.01234l0.309237,0.222124l0.160803,0.234464l0.828754,0.456588l0.667951,0.160423l0.309237,-0.02468l0.23502,0.098722l0.136064,0.160423l0.556626,0.098722l0.346345,-0.148083l0.210281,0.01234l0.272128,0.148083l0.272128,-0.02468l0.408192,0.049361l0.086586,-0.111062l-0.098956,-0.074041l-0.23502,0.037021l-0.383453,-0.086382l-0.061847,-0.098722l0.123695,-0.185103v-0.296165l-0.123695,-0.222124l-0.238112,-0.074041l-0.168291,-0.208627l-0.063636,-0.189345l-0.148434,-0.148083l-0.102048,-0.333186l-0.380361,-0.478184l-0.185542,-0.061701l-0.086586,0.123402l-0.136064,0.061701l-0.333975,-0.086382l-0.136064,-0.172763l-0.432931,-0.098722l-0.197911,0.049361l-0.309237,-0.086382l-0.098956,-0.148083l-0.22265,-0.098722l-0.185542,0.049361l-0.210281,-0.098722l-0.074217,-0.172763l-0.098956,-0.061701l-0.123695,0.01234l-0.148434,-0.074041l-0.445301,-0.407227l-0.705059,-0.407227l-0.630842,-0.259145l-0.22265,0.01234l-0.173172,0.086382l-0.136064,-0.01234l-0.111325,0.098722l-0.049478,0.654032l0.111325,0.185103l0.408192,0.037021Z M2183.274578,820.866713l0.037108,-0.111062l-0.074217,-0.064786l-0.06494,0.046276l0.009277,0.129572h0.092771Z M2177.290852,813.96236l0.086586,0.061701l0.108233,-0.02468v-0.074041l-0.111325,-0.01851l-0.083494,0.055531Z M2179.034946,816.155834h0.06494l0.055663,-0.101807l-0.074217,-0.166593l-0.074217,0.009255v0.083296l0.046385,0.101807l-0.018554,0.074041Z M2170.620621,812.749933v0.240634l0.055663,0.166593l-0.018554,0.370207l0.092771,0.185103l-0.027831,0.148083l-0.111325,0.111062l0.018554,0.138827l0.361807,0.296165l0.139156,0.277655l-0.074217,0.120317l0.046385,0.111062l0.176265,0.055531l0.120602,0.185103l-0.018554,0.166593l0.055663,0.083296l0.269036,0.064786l0.426746,0.434993l0.204096,0.037021l0.166988,-0.111062l0.166988,0.009255l0.204096,0.101807l0.825661,0.148083l0.361807,-0.037021l0.417469,0.01851l0.612288,-0.064786l0.408192,0.027765l0.259759,0.092552l0.259759,0.240634l0.074217,0.166593l0.139156,0.055531l0.259759,-0.046276l0.723613,0.203614l0.166988,0.148083l0.129879,0.009255l0.06494,-0.111062l0.278313,-0.138827l0.417469,-0.037021l0.491686,-0.185103l0.092771,-0.166593l-0.092771,-0.111062l0.018554,-0.28691l-0.055663,-0.129572l-0.333975,-0.2684l-0.296867,-0.129572l-0.269036,-0.027765l-0.092771,-0.083296l-0.027831,-0.314676l-0.176265,-0.314676l-0.371084,-0.333186l-0.361807,-0.111062l-0.259759,-0.129572l-0.241204,-0.277655l-0.28759,-0.157338l-0.120602,-0.185103l-0.241204,-0.064786l-0.22265,0.055531l-0.389638,-0.046276l-0.343253,0.046276l-0.148434,-0.101807l-0.250482,0.01851l-0.22265,0.138827l-0.231927,-0.01851l-0.213373,-0.129572h-0.139156l-0.176265,0.120317l-0.35253,0.037021l-0.241204,-0.101807l-0.315421,-0.342441l-0.630842,-0.564565l-0.343253,-0.175848l-0.259759,0.027765l-0.35253,0.148083l-0.194819,0.296165Z M2180.157474,808.955315l0.06494,0.092552l0.083494,-0.009255l-0.055663,-0.120317l-0.095863,-0.052446l-0.136064,0.00617l-0.030924,0.049361l0.17008,0.033936Z M2179.560648,807.705868l-0.166988,-0.104892l-0.098956,-0.172763l0.024739,-0.086382l-0.061847,-0.092552l-0.327791,-0.209784l-0.111325,-0.166593l-0.10514,-0.302335l-0.166988,-0.185103l-0.136064,-0.074041l-0.086586,-0.061701l-0.037108,-0.117232l-0.166988,-0.086382l-0.241204,0.00617l-0.037108,0.061701l0.197911,0.086382l0.068032,0.154253l-0.068032,0.098722h-0.136064l-0.253574,-0.160423l-0.414377,-0.160423l-0.166988,0.037021l-0.037108,0.092552l0.080401,0.252975l0.173172,0.203614l0.197911,0.080211l0.265943,0.283825l0.049478,0.148083l0.23502,0.240634l0.10514,0.215954l-0.055663,0.055531l-0.111325,-0.02468l-0.111325,0.049361l-0.055663,0.117232l-0.142249,0.104892l-0.006185,0.135742l0.074217,0.215954l0.136064,0.185103l-0.024739,0.185103l-0.061847,0.141913l0.055663,0.178933l0.086586,0.061701l0.358714,0.54914l0.086586,0.351696l-0.024739,0.209784l0.043293,0.271485l0.228835,0.376377l0.006185,0.141913l0.043293,0.098722l0.173172,0.166593l0.068032,0.209784l0.333975,0.308506l0.179357,0.01234l0.247389,0.123402l0.049478,0.080211v0.104892l0.074217,0.080211l0.11751,0.043191l0.068032,0.061701l0.030924,0.117232l0.148434,0.160423l0.315421,0.185103l0.210281,0.203614l0.556626,0.308506l0.247389,0.259145l0.148434,0.308506l0.315421,0.376377l0.278313,0.154253l0.377269,0.308506l0.364899,0.487439l0.074217,0.00617l0.030924,-0.252975l0.030924,-0.080211l0.061847,0.01851l0.259759,0.394887l0.204096,0.185103l0.092771,-0.00617l0.055663,-0.148083v-0.203614l-0.111325,-0.271485l-0.043293,-0.345526l-0.160803,-0.320846l-0.136064,-0.092552l-0.303052,-0.401057l-0.092771,-0.222124l-0.364899,-0.388717l-0.191727,-0.092552l-0.086586,-0.111062l-0.074217,-0.049361l-0.030924,0.055531l0.142249,0.320846l0.136064,0.197444l0.092771,0.037021l0.055663,0.117232l-0.074217,0.240634l-0.111325,0.037021l-0.204096,-0.160423l-0.173172,-0.333186l-0.364899,-0.512119l-0.23502,-0.209784l-0.018554,-0.098722l0.055663,-0.01851l0.154618,0.123402h0.061847l-0.092771,-0.308506l-0.074217,-0.117232l0.012369,-0.129572l0.10514,-0.061701l0.024739,-0.074041l-0.11751,-0.203614l-0.228835,-0.123402l-0.024739,-0.067871l0.080401,-0.129572l-0.037108,-0.104892l-0.129879,-0.02468l-0.043293,-0.049361l0.030924,-0.215954l-0.086586,-0.172763l-0.22265,-0.259145l-0.043293,-0.234464l-0.272128,-0.351696l-0.253574,-0.197444l-0.290682,-0.135742l-0.210281,0.01851l-0.216466,-0.178933l-0.092771,-0.222124l0.018554,-0.203614l0.10514,-0.148083l-0.006185,-0.154253l-0.049478,-0.061701l0.030924,-0.086382l0.228835,-0.067871l0.11751,-0.111062l0.018554,-0.141913l-0.185542,-0.191273l-0.080401,-0.203614l-0.154618,-0.148083Z M2181.23671,810.741562v0.055531l0.049478,0.080211l0.037108,-0.055531l-0.030924,-0.067871l-0.055663,-0.01234Z M2181.675826,811.648568l-0.006185,0.067871l0.043293,0.037021l0.049478,-0.049361l-0.024739,-0.055531h-0.061847Z M2182.442732,813.567473l0.068032,-0.030851l0.024739,-0.043191l-0.018554,-0.049361l-0.061847,0.01234l-0.030924,0.067871l0.018554,0.043191Z M2182.430363,813.709385l0.037108,-0.00617l0.018554,-0.055531l-0.055663,-0.00617l-0.030924,0.037021l0.030924,0.030851Z M2170.351585,804.494326l-0.046385,-0.083296l-0.074217,-0.01851l-0.018554,0.074041l0.074217,0.074041l0.06494,-0.046276Z M2170.500018,804.651664l0.120602,0.092552l0.074217,-0.009255l-0.018554,-0.120317l-0.120602,-0.027765l-0.055663,0.064786Z M2174.563386,805.700582l0.055663,-0.003085v-0.074041l-0.06494,-0.01851l-0.027831,0.046276l0.037108,0.049361Z M2172.757445,807.422043l0.068032,0.02468l0.006185,-0.067871l-0.037108,-0.080211h-0.061847l-0.024739,0.049361l0.049478,0.074041Z M2177.191896,806.064619l0.037108,-0.074041l-0.049478,-0.055531l-0.055663,0.01234l-0.012369,0.049361l0.024739,0.049361l0.055663,0.01851Z M2178.484505,806.009088l0.10514,0.135742l0.111325,0.049361l0.024739,-0.111062l-0.049478,-0.129572l-0.148434,-0.092552l-0.154618,0.02468l-0.018554,0.086382l0.129879,0.037021Z M2150.480047,802.920948l0.148434,-0.055531v-0.175848l-0.139156,-0.120317l-0.120602,0.027765l-0.092771,0.166593l0.055663,0.129572l0.148434,0.027765Z M2150.350168,806.012173l0.139156,-0.120317l0.06494,-0.166593l-0.074217,-0.148083l-0.083494,0.01851l-0.027831,0.194358l-0.092771,0.166593l0.074217,0.055531Z M2150.368722,803.781678l0.06494,0.259145l-0.037108,0.370207l0.037108,0.185103l0.176265,0.157338l0.120602,0.342441l0.129879,-0.009255l0.083494,-0.138827l-0.046385,-0.434993l-0.296867,-0.907006l-0.139156,-0.101807l-0.157711,0.037021l-0.037108,0.129572l0.102048,0.111062Z M2154.43209,804.864532l0.213373,-0.101807l0.139156,-0.30542l0.009277,-0.620096l-0.148434,-0.55531l-0.371084,-0.333186l-0.361807,-0.027765l-0.491686,0.203614l-0.250482,0.388717l-0.046385,0.472013l0.315421,0.57382l0.538072,0.203614l0.454578,0.101807Z M2151.982937,804.235181l-0.009277,0.212869l0.157711,0.148083l0.408192,0.148083l0.074217,-0.037021l-0.074217,-0.166593l-0.278313,-0.28691l-0.176265,-0.055531l-0.102048,0.037021Z M2150.572818,802.4767l-0.009277,0.074041l0.071124,0.021595l0.055663,-0.049361l-0.049478,-0.061701l-0.068032,0.015425Z M2151.55619,803.664446l0.055663,-0.061701v-0.160423l-0.055663,-0.141913l0.080401,-0.413397l0.129879,-0.203614l0.148434,-0.049361l0.210281,-0.289995l-0.006185,-0.209784l-0.179357,-0.178933l-0.35253,-0.037021l-0.204096,-0.172763l-0.061847,-0.234464l-0.228835,-0.191273l-0.092771,-0.228294l-0.197911,-0.043191l-0.402007,0.141913l-0.191727,0.308506l0.043293,0.382547l0.055663,0.098722l0.080401,-0.030851l0.049478,0.030851l0.012369,0.172763l0.111325,0.092552l0.092771,0.01851l0.061847,0.061701l0.018554,0.098722l0.129879,0.098722l0.030924,0.111062l-0.037108,0.166593l-0.018554,0.265315l0.061847,0.043191l0.160803,-0.00617l0.136064,0.092552l0.012369,0.104892l-0.037108,0.111062l0.018554,0.104892l0.074217,0.02468l0.129879,-0.055531l0.080401,0.049361l0.024739,0.092552l0.055663,0.037021Z M2143.923498,799.966292l0.278313,-0.02468l0.228835,-0.129572l0.006185,-0.123402l-0.129879,-0.160423l-0.284498,-0.01851l-0.160803,0.080211l-0.11751,0.154253l0.037108,0.166593l0.142249,0.055531Z M2143.99153,800.151395l0.092771,-0.043191l0.11751,-0.01234l0.049478,-0.067871l-0.037108,-0.02468l-0.086586,0.055531l-0.148434,0.01234l-0.037108,0.055531l0.049478,0.02468Z M2147.589496,795.297061l0.112871,0.029308l-0.010823,-0.038563l-0.074217,-0.069414l-0.075763,-0.040106l-0.012369,0.049361l0.060301,0.069414Z M2147.121003,796.072953l0.123695,-0.154253l-0.018554,-0.055531l-0.166988,-0.01234l-0.142249,0.104892l0.012369,0.123402l0.061847,0.049361l0.129879,-0.055531Z M2147.096264,796.585072l0.074217,-0.030851l0.012369,-0.086382l-0.049478,-0.030851l-0.068032,0.043191l-0.012369,0.061701l0.043293,0.043191Z M2147.87554,796.171674l0.074217,-0.02468l-0.018554,-0.086382l-0.098956,-0.00617l-0.024739,0.055531l0.068032,0.061701Z M2147.900279,796.50486l0.068032,-0.030851l0.043293,-0.111062l-0.055663,-0.043191l-0.086586,0.049361l-0.030924,0.111062l0.061847,0.02468Z M2146.224217,797.331655l0.055663,-0.061701l-0.049478,-0.043191l-0.061847,0.030851l-0.006185,0.055531l0.061847,0.01851Z M2146.935461,797.485908l0.061847,-0.037021v-0.049361l-0.092771,0.00617l-0.037108,0.061701l0.068032,0.01851Z M2144.807914,797.899305l0.136064,0.00617l0.074217,0.080211l0.086586,0.030851l0.142249,-0.01851l0.111325,0.049361l0.111325,0.01851l0.208735,-0.135742l0.115964,-0.009255l0.132972,0.052446l0.10514,-0.080211l0.043293,-0.228294l-0.030924,-0.092552l-0.166988,-0.104892l-0.272128,-0.067871l-0.191727,-0.154253l-0.125241,-0.15271l-0.143795,-0.041648l-0.034016,0.033936l0.037108,0.080211l-0.043293,0.043191l-0.086586,-0.01851l-0.040201,0.041648l0.055663,0.171221l-0.051024,0.055531l-0.119056,-0.027765l-0.037108,0.043191l0.058755,0.109519l-0.027831,0.092552l-0.106687,0.087924l-0.004639,0.098722l0.061847,0.037021Z M2145.632029,798.050473l0.051024,0.064786l0.213373,0.027765l0.069578,-0.013883l-0.027831,-0.078669l-0.139156,-0.069414l-0.074217,0.009255l-0.092771,0.060159Z M2146.146908,798.008825l0.03247,-0.041648l-0.013916,-0.069414h-0.060301l-0.102048,0.101807l0.023193,0.041648l0.120602,-0.032393Z M2146.137631,798.124514l0.041747,0.023138l0.051024,-0.037021l0.027831,-0.11569h-0.041747l-0.083494,0.069414l0.004639,0.060159Z M2144.588356,797.828349l0.092771,-0.046276l0.004639,-0.050903l-0.060301,-0.009255l-0.069578,0.037021l-0.023193,0.041648l0.055663,0.027765Z M2147.287991,797.416494l0.03247,-0.032393l-0.027831,-0.060159l-0.037108,0.009255l-0.018554,0.050903l0.051024,0.032393Z M2147.343653,797.17586l0.018554,-0.101807h0.041747l0.023193,0.120317l0.055663,0.009255l0.06494,-0.074041l0.074217,-0.203614l0.009277,-0.078669l0.037108,-0.027765l0.139156,0.050903l0.078855,-0.009255l-0.018554,-0.050903l-0.292228,-0.138827l-0.041747,-0.083296l0.037108,-0.064786l-0.023193,-0.092552l-0.06494,-0.027765h-0.115964l-0.078855,-0.064786l-0.004639,-0.111062l0.120602,-0.129572l0.143795,-0.041648l0.037108,-0.023138l-0.037108,-0.037021l-0.19018,0.032393l-0.157711,0.161965l-0.009277,0.120317l0.078855,0.138827l0.083494,0.032393l0.088132,0.064786l-0.013916,0.064786l-0.092771,0.046276l-0.03247,0.069414l0.023193,0.198986l-0.027831,0.083296l-0.129879,0.129572l0.018554,0.078669l0.092771,0.023138l0.06494,-0.064786Z M2161.941898,809.126536l0.102048,0.027765l0.051024,-0.046276l0.004639,-0.078669l-0.055663,-0.041648l-0.139156,0.01851l-0.027831,0.060159l0.06494,0.060159Z M2161.004912,809.320894l0.176265,0.1342l0.143795,0.013883l0.115964,-0.138827l0.125241,-0.004628l0.102048,-0.023138l0.013916,-0.083296l-0.120602,-0.111062l-0.009277,-0.171221l-0.078855,-0.097179l-0.018554,-0.092552l0.023193,-0.143455l-0.023193,-0.097179l-0.074217,-0.055531l-0.018554,0.037021l0.060301,0.097179l-0.06494,0.175848l-0.213373,0.097179l-0.120602,0.143455l-0.046385,0.189731l0.027831,0.129572Z M2156.491605,808.770212l0.083494,0.101807l0.343253,0.111062l0.129879,-0.004628l0.148434,0.050903l0.083494,0.092552l0.185542,0.055531l0.129879,0.092552l0.194819,0.013883l0.051024,-0.050903v-0.143455l-0.106687,-0.074041l-0.250482,-0.273027l-0.310783,-0.157338l-0.078855,-0.004628l-0.074217,0.078669l-0.306144,0.013883l-0.097409,-0.060159l-0.115964,-0.009255l-0.125241,0.046276l-0.013916,0.041648l0.129879,0.078669Z M2158.565036,809.186695l0.08504,-0.030851l0.068032,-0.052446l-0.018554,-0.037021l-0.134518,0.041648l-0.046385,0.069414l0.046385,0.009255Z M2156.018473,808.673033l-0.245843,-0.157338l-0.074217,-0.356324l0.027831,-0.120317l0.013916,-0.249889l0.069578,-0.074041l0.074217,0.004628l0.023193,0.064786l0.060301,0.01851l0.055663,-0.064786v-0.157338l0.162349,-0.319303l0.018554,-0.148083l-0.074217,-0.282283l-0.120602,-0.1342l-0.213373,-0.046276l-0.176265,0.074041l-0.25512,0.360951l-0.055663,0.138827l-0.060301,0.060159l-0.157711,0.046276l-0.273674,0.337814l-0.037108,0.101807l0.055663,0.083296l0.538072,0.356324l0.102048,0.106434l0.018554,0.1342l0.092771,0.15271l0.398915,0.185103l0.115964,0.023138l0.060301,-0.032393l-0.009277,-0.074041l-0.134518,-0.032393Z M2170.234075,807.107367l0.228835,0.148083l0.129879,-0.00617l0.092771,0.067871l0.024739,0.098722l0.160803,0.154253l0.296867,0.043191l0.129879,-0.067871l0.049478,-0.166593l-0.086586,-0.111062l-0.148434,-0.043191l-0.179357,-0.178933l0.030924,-0.401057l-0.061847,-0.111062l-0.278313,-0.055531l-0.377269,0.129572l-0.10514,0.215954l0.092771,0.283825Z M2155.56316,799.793529l0.030924,-0.055531l-0.024739,-0.055531l-0.049478,0.02468l-0.018554,0.067871l0.061847,0.01851Z M2155.56316,799.953952l0.018554,-0.061701l-0.037108,-0.043191l-0.068032,0.043191l-0.006185,0.055531l0.092771,0.00617Z M2164.432798,800.554711v-0.043191l0.049478,-0.030851l0.055663,0.037021l0.012369,0.049361l-0.074217,0.01234l-0.043293,-0.02468Z M2164.692557,800.850876h0.068032l-0.024739,-0.117232l-0.074217,-0.049361l-0.080401,0.00617l-0.018554,0.061701l0.129879,0.098722Z M2164.902838,801.07917l0.160803,0.037021l0.024739,-0.043191l-0.074217,-0.111062l-0.11751,-0.067871l-0.055663,0.043191l0.061847,0.141913Z M2165.249183,801.251933l0.049478,-0.030851l-0.043293,-0.111062l-0.049478,-0.01234l-0.024739,0.080211l0.068032,0.074041Z M2157.461872,799.485023l0.061847,-0.01851l0.037108,-0.098722l-0.049478,-0.01851l-0.074217,0.030851l-0.024739,0.067871l0.049478,0.037021Z M2158.41432,800.472241l0.210281,0.055531l0.303052,-0.02468l0.055663,-0.067871l-0.10514,-0.283825l-0.204096,-0.191273l-0.179357,-0.00617l-0.210281,0.178933l-0.030924,0.178933l0.160803,0.160423Z M2161.012643,799.98089l0.068032,-0.043191l-0.006185,-0.172763l-0.068032,-0.080211l-0.074217,0.049361l0.012369,0.123402l0.068032,0.123402Z M2159.967423,800.301736l0.080401,-0.01234l-0.074217,-0.123402l-0.080401,-0.01234l-0.043293,0.049361l0.11751,0.098722Z M2163.166475,801.8057l0.148434,0.027765l0.013916,-0.050903l-0.069578,-0.078669l-0.134518,-0.037021l-0.027831,0.037021l0.069578,0.101807Z M2163.890088,802.148142l0.051024,-0.01851l0.013916,-0.078669l-0.041747,-0.023138l-0.06494,0.037021l-0.004639,0.064786l0.046385,0.01851Z M2163.63033,801.78719l0.102048,0.074041l0.074217,-0.046276l-0.037108,-0.124945l-0.078855,-0.064786l-0.05257,0.003085l-0.018554,0.037021l-0.063393,0.020053l-0.035562,0.047818l0.043293,0.043191l0.066486,0.010798Z M2163.53292,801.930645l0.055663,0.004628l0.023193,-0.032393l-0.046385,-0.060159l-0.055663,0.004628l-0.009277,0.046276l0.03247,0.037021Z M2163.667438,802.050962l0.055663,-0.023138l-0.013916,-0.050903l-0.069578,-0.023138l-0.027831,0.037021l0.055663,0.060159Z M2161.402281,799.97472l0.071124,0.052446l0.077309,-0.00617l0.046385,-0.086382l-0.05257,-0.061701l-0.145341,-0.027765l-0.034016,0.030851l0.037108,0.098722Z M2161.779549,800.21227l-0.083494,0.009255l-0.046385,-0.040106l0.021647,-0.021595l0.071124,0.009255l0.092771,-0.067871l0.021647,-0.089467l-0.046385,-0.040106l-0.129879,-0.01234l-0.055663,0.040106l-0.018554,0.089467l-0.083494,0.01234l-0.098956,-0.052446l-0.037108,0.021595l0.061847,0.141913l0.136064,0.089467l0.037108,0.080211l0.077309,0.049361l0.040201,-0.021595v-0.126487l0.046385,-0.030851h0.102048l0.077309,-0.049361 l0.034016,-0.101807l-0.006185,-0.055531l-0.049478,-0.00617l-0.024739,0.064786l-0.06494,0.033936l-0.074217,0.074041Z M2162.064047,800.295566l-0.006185,-0.046276l0.037108,-0.037021l-0.009277,-0.055531l-0.046385,-0.009255l-0.030924,0.043191l0.027831,0.089467l0.027831,0.015425Z M2162.203203,800.354182l0.027831,-0.015425l-0.027831,-0.055531l-0.046385,-0.021595l-0.040201,0.030851l0.012369,0.055531l0.074217,0.00617Z M2162.388745,800.428223l0.018554,-0.040106l-0.024739,-0.015425l-0.049478,0.01851l0.003092,0.049361l0.05257,-0.01234Z M2154.784619,805.814729l0.037108,-0.02468l-0.074217,-0.098722l-0.034016,-0.206699l0.034016,-0.151168l-0.009277,-0.107977l-0.111325,-0.166593l-0.145341,-0.104892l-0.188634,-0.009255l-0.173172,0.074041l-0.027831,0.070956l0.021647,0.107977l0.092771,0.074041l0.139156,0.345526l0.139156,0.083296l0.151526,0.015425l0.083494,0.067871l0.06494,0.030851Z M2153.689922,805.410587l0.10514,0.027765l0.037108,0.033936l-0.034016,0.033936l0.015462,0.040106l0.160803,0.067871l0.046385,0.114147l0.136064,0.135742l0.030924,0.172763l0.083494,0.101807l0.132972,0.077126l0.037108,-0.00617l-0.030924,-0.111062l-0.089679,-0.154253l-0.151526,-0.178933l-0.012369,-0.114147l0.030924,-0.194358l-0.058755,-0.120317l-0.185542,-0.120317l-0.253574,-0.040106l-0.123695,0.027765l-0.006185,0.055531l0.129879,0.151168Z M2157.108532,806.66929l0.051024,-0.01851l-0.083494,-0.083296l-0.060301,-0.111062l-0.060301,-0.01851l-0.023193,0.037021l0.074217,0.138827l0.102048,0.055531Z M2159.305657,808.538833l0.289136,0.333186l0.279859,0.154253l0.315421,0.074041l0.111325,-0.043191l0.092771,-0.191273l0.160803,-0.067871l0.197911,-0.265315l0.027831,-0.191273l-0.05257,-0.101807l0.068032,-0.043191l0.037108,-0.074041l-0.027831,-0.015425l-0.132972,0.077126l-0.077309,-0.037021l-0.089679,-0.003085l-0.030924,-0.074041l0.204096,-0.117232l0.191727,-0.037021l0.061847,-0.154253l-0.055663,-0.228294l-0.185542,-0.104892l-0.22265,-0.00617l-0.154618,0.185103l-0.098956,-0.00617l-0.098956,-0.117232l0.080401,-0.154253l-0.068032,-0.049361l-0.247389,0.067871l-0.074217,0.092552l-0.018554,0.074041l0.086586,0.086382l0.020021,0.087885l-0.01229,0.072538l-0.038655,0.01234l-0.080401,-0.117232l-0.074217,0.01234l-0.018554,0.160423l-0.061847,0.00617l-0.080401,-0.074041l-0.10514,-0.043191l-0.068032,0.061701l-0.068032,0.252975l0.043293,0.168135l-0.055663,0.198986l0.030924,0.138827Z M2158.894372,807.918737l-0.012369,0.123402l-0.055663,0.067871l-0.012369,0.055531l0.021647,-0.003085l0.074217,-0.092552l0.018554,-0.107977l0.030924,-0.033936v-0.049361l-0.074217,-0.086382l-0.092771,-0.030851l-0.030924,-0.074041l0.080401,-0.01234l0.123695,0.043191l0.154618,-0.030851l0.123695,0.080211l0.055663,-0.030851l0.006185,-0.111062l-0.055663,-0.086382l0.043293,-0.117232l0.185542,-0.222124l-0.012369,-0.123402l-0.10514,-0.049361l-0.037108,-0.092552l-0.012369,-0.160423l-0.123695,-0.222124l-0.191727,-0.215954l-0.030924,-0.185103l-0.154618,-0.178933l-0.148434,-0.129572l-0.061847,-0.123402l0.006185,-0.160423l-0.111325,-0.098722l-0.278313,-0.141913l-0.148434,0.01234l-0.154618,0.135742l-0.142249,-0.049361l-0.080401,-0.098722l-0.024739,-0.135742l-0.129879,-0.117232l-0.006185,-0.080211l0.098956,-0.02468l0.037108,-0.104892l-0.037108,-0.117232l-0.10514,-0.061701l-0.049478,-0.135742l0.037108,-0.234464l-0.092771,-0.234464l-0.327791,-0.265315l-0.272128,-0.141913h-0.179357l-0.129879,0.148083l-0.10514,0.037021l-0.148434,-0.01851l-0.11751,0.061701l-0.191727,0.215954l-0.160803,0.296165l-0.086586,0.314676l-0.148434,0.246804l-0.173172,0.209784l-0.123695,0.02468l-0.22265,-0.02468l-0.11751,0.055531l-0.086586,0.234464l0.012369,0.222124l0.080401,0.123402l-0.006185,0.240634l0.049478,0.00617l0.049478,-0.055531l0.080401,0.02468l0.068032,0.098722l0.179357,0.043191l0.123695,-0.01851l0.10514,-0.141913l0.111325,-0.030851l0.043293,-0.086382v-0.135742l0.061847,-0.061701l0.055663,0.01234l0.037108,0.104892l0.136064,0.01851l0.142249,-0.061701l0.402007,-0.104892l0.148434,0.061701h0.129879l0.123695,-0.086382l0.142249,0.049361l0.160803,0.209784l0.11751,0.314676v0.092552l0.080401,0.061701l0.136064,0.02468l0.043293,0.067871l-0.055663,0.061701l-0.092771,-0.00617l-0.247389,-0.123402l-0.061847,0.01234l-0.012369,0.117232l0.142249,0.259145l0.129879,0.098722l0.11751,0.203614l0.371084,0.240634l0.142249,0.037021h0.197911l0.197911,0.111062l0.210281,0.283825l0.012369,0.092552l0.049478,0.037021l0.089679,-0.009255l0.061847,0.043191Z M2155.628835,806.351529l0.120602,0.01851l0.012369,-0.040106l-0.080401,-0.086382l-0.108233,-0.01234l-0.018554,0.040106l0.074217,0.080211Z M2155.789638,806.10164l0.061847,-0.049361l0.083494,-0.003085l0.077309,-0.030851l0.11751,0.003085l0.145341,-0.049361l0.136064,0.055531l0.040201,-0.021595v-0.098722l0.077309,-0.033936l0.049478,0.021595l0.015462,0.126487l0.068032,0.061701l0.163895,0.01851l0.043293,-0.015425l0.009277,-0.123402l0.080401,-0.02468l0.123695,0.033936l0.06494,0.086382l0.034016,0.219039l0.030924,0.043191l0.034016,-0.021595l-0.034016,-0.237549l-0.083494,-0.120317l-0.163895,-0.058616l-0.191727,0.030851l-0.154618,-0.080211l-0.241204,0.00617l-0.173172,0.086382l-0.256666,0.064786l-0.108233,0.003085l-0.071124,0.033936l-0.061847,0.141913l0.015462,0.02468l0.068032,-0.092552Z M2156.676411,800.206926l0.080401,-0.055531l-0.037108,-0.043191l-0.10514,0.030851l-0.037108,0.067871h0.098956Z M2154.301475,799.775019l0.092771,-0.00617l-0.012369,-0.061701l-0.142249,-0.01234l-0.049478,0.037021l0.111325,0.043191Z M2154.938502,799.83055l0.055663,-0.067871l-0.024739,-0.049361l-0.074217,0.00617l-0.018554,0.074041l0.061847,0.037021Z M2154.74059,799.799699l0.043293,-0.043191l-0.012369,-0.074041l-0.061847,0.01234l-0.012369,0.061701l0.043293,0.043191Z M2156.064123,800.132885l0.061847,-0.030851l-0.043293,-0.043191l-0.043293,-0.01234l-0.030924,0.049361l0.055663,0.037021Z M2157.369101,799.886081l0.061847,-0.02468l-0.024739,-0.061701h-0.049478l-0.037108,0.055531l0.049478,0.030851Z M2157.861523,805.145272h0.034016l-0.027831,-0.052446l-0.132972,-0.061701l0.009277,0.043191l0.11751,0.070956Z M2157.558471,804.256777l0.058755,0.067871l0.021647,-0.015425l-0.047932,-0.138827l-0.06494,-0.027765l-0.013916,0.037021l0.046385,0.077126Z M2157.703812,804.642409l-0.003092,-0.114147l-0.018554,-0.061701l-0.027831,0.015425l-0.012369,0.074041l0.030924,0.101807l0.030924,-0.015425Z M2157.722366,804.799746l-0.021647,0.169678l0.015462,0.01851l0.024739,-0.043191l0.024739,-0.151168l-0.034016,-0.064786l-0.021647,0.01234l0.012369,0.058616Z M2157.994494,805.206974l0.027831,0.043191l0.046385,0.01851l0.043293,-0.040106l0.095863,-0.009255l0.080401,0.046276l0.049478,-0.003085l-0.055663,-0.067871l-0.173172,-0.043191l-0.154618,0.01234l-0.015462,0.030851l0.055663,0.01234Z M2158.718108,805.740688l0.05257,-0.009255l0.009277,-0.030851l-0.030924,-0.040106l-0.040201,0.003085l-0.021647,0.052446l0.030924,0.02468Z M2158.739754,805.509309l0.108233,0.101807l0.006185,0.070956l-0.049478,0.083296l0.012369,0.117232l0.151526,0.185103l0.10514,0.095637l0.021647,0.061701l0.037108,0.02468l0.037108,-0.015425l0.003092,-0.064786l-0.126787,-0.086382l-0.154618,-0.209784l-0.015462,-0.070956l0.046385,-0.101807l0.003092,-0.080211l-0.095863,-0.114147l-0.080401,-0.058616l-0.132972,-0.030851l-0.024739,0.01851l0.027831,0.027765l0.120602,0.046276Z M2159.225256,806.422485l0.108233,0.120317l0.098956,0.043191l0.089679,0.058616l0.061847,0.107977l0.071124,0.046276l0.095863,-0.00617l0.098956,0.055531l0.046385,0.009255l-0.009277,-0.037021l-0.139156,-0.083296h-0.074217l-0.046385,-0.01851l-0.071124,-0.111062l-0.151526,-0.077126l-0.092771,-0.077126l-0.030924,-0.083296l-0.061847,-0.027765l-0.012369,0.030851l0.018554,0.049361Z M2160.115857,806.977795l0.120602,0.043191l0.003092,-0.02468l-0.098956,-0.049361l-0.06494,-0.070956h-0.049478v0.030851l0.089679,0.070956Z M2160.619912,807.061092l0.040201,-0.02468l0.003092,-0.02468l-0.074217,-0.003085l-0.030924,0.01851l0.015462,0.037021l0.046385,-0.003085Z M2160.505495,807.033326l0.006185,-0.030851l-0.040201,-0.01851l-0.061847,0.009255l0.021647,0.027765l0.074217,0.01234Z M2160.684852,808.924465l0.154618,-0.033936l0.071124,-0.033936l0.009277,-0.027765l-0.068032,-0.015425l-0.114418,0.052446l-0.154618,0.037021l-0.024739,0.033936l0.126787,-0.01234Z M2161.550714,808.708511l0.030924,-0.003085l0.012369,-0.052446l-0.027831,-0.123402l0.009277,-0.083296l-0.043293,-0.086382l-0.043293,-0.009255l-0.043293,0.033936l0.015462,0.027765l0.040201,-0.009255l0.037108,0.052446l-0.015462,0.117232l0.027831,0.135742Z M2161.397884,808.145055l-0.113355,-0.120462l-0.08132,-0.199131l-0.039428,-0.208964l-0.022178,-0.031959l-0.01725,0.024584l0.01725,0.199131l0.113355,0.24584l0.101033,0.100795l0.019714,0.081127l-0.007441,0.093034l0.027831,-0.00617l0.034016,-0.092552l-0.032228,-0.085273Z M2161.358456,807.879547l0.029571,0.063918h0.029571l-0.009857,-0.071294l-0.054213,-0.04671l-0.041892,0.007375l0.002464,0.024584l0.044356,0.022126Z M2161.454561,808.103262l0.022178,-0.027042l-0.01725,-0.024584l-0.034499,0.004917l0.002464,0.031959l0.027107,0.01475Z M2161.262351,807.749252l0.019714,0.007375l0.039428,-0.113087l-0.091176,-0.334343l-0.199602,-0.206506l-0.096105,-0.039334l-0.007393,0.022126l0.036963,0.04671l0.165103,0.137671l0.071463,0.113087l0.068998,0.250757l-0.007393,0.115545Z M2158.789232,808.295114l0.021647,0.095637l0.030924,0.01234v-0.095637l0.027831,-0.043191l-0.021647,-0.046276l-0.040201,0.01234l-0.018554,0.064786Z M2160.313768,800.378863l0.040201,-0.009255l-0.027831,-0.086382l-0.06494,-0.01234l-0.027831,0.01851l0.006185,0.052446l0.074217,0.037021Z M2161.535252,799.718661l0.068032,0.083296l0.061847,0.052446h0.040201l-0.040201,-0.095637l-0.136064,-0.086382l-0.071124,0.003085l-0.006185,0.027765l0.083494,0.015425Z M2161.816657,799.925359l0.043293,0.043191l0.049478,0.01851l0.009277,-0.030851l-0.098956,-0.070956l-0.049478,0.003085l-0.006185,0.02468l0.05257,0.01234Z M2162.713443,801.026724l0.108233,-0.01234l0.034016,-0.067871l-0.037108,-0.052446l0.012369,-0.052446l0.05257,-0.040106l0.003092,-0.083296l-0.145341,-0.089467l-0.142249,-0.021595l-0.06494,-0.040106l-0.139156,0.009255l-0.18245,-0.049361l-0.244297,-0.129572l-0.049478,-0.074041l-0.071124,-0.009255l-0.040201,0.021595l0.003092,0.129572l0.06494,0.086382l0.166988,0.064786l0.35253,0.194358l0.176265,0.141913l0.142249,0.074041Z M2164.692557,802.708079l0.120602,0.078669l0.074217,0.087924l0.004639,0.138827l0.06494,0.069414l0.245843,0.037021l0.06494,0.064786l-0.037108,0.124945l0.060301,0.041648h0.125241l0.134518,0.185103l0.097409,0.023138l0.074217,0.041648l0.037108,0.092552l0.157711,0.101807l0.120602,0.01851l0.171626,0.161965l0.102048,0.023138l0.078855,0.064786l-0.013916,0.064786l0.041747,0.041648l0.129879,-0.01851l0.078855,0.069414l-0.041747,0.106434l0.055663,0.055531l0.241204,0.092552l0.139156,0.041648l0.315421,0.189731l0.092771,0.01851l0.250482,0.171221l0.102048,0.023138l0.102048,0.060159l0.03247,0.097179l0.208735,0.166593l0.106687,0.013883l0.111325,0.074041l0.041747,0.069414l0.074217,0.046276l0.097409,-0.041648l0.115964,0.01851l0.153072,0.143455l0.051024,0.1342l0.060301,0.027765l0.106687,-0.032393l0.264397,0.148083l0.102048,-0.01851l0.264397,0.120317l0.389638,0.300793l0.185542,0.064786l0.166988,0.129572l0.092771,0.009255l0.102048,-0.055531l0.194819,-0.009255l0.199458,0.097179l0.106687,0.157338l0.097409,0.060159l0.097409,-0.004628l0.051024,0.046276l-0.009277,0.198986l0.06494,0.060159l0.129879,0.004628l0.051024,0.032393l0.037108,0.101807l0.134518,0.111062l0.092771,-0.004628l0.060301,0.01851l0.06494,0.175848l0.19018,0.166593l0.292228,0.101807l0.157711,-0.004628l0.023193,-0.055531l-0.139156,-0.166593l-0.102048,-0.041648l-0.078855,-0.097179l0.018554,-0.055531l0.074217,-0.013883l0.027831,-0.060159l-0.078855,-0.185103l-0.055663,-0.046276l-0.139156,0.037021l-0.102048,0.009255v-0.041648l0.088132,-0.050903l0.013916,-0.046276l-0.055663,-0.111062l-0.083494,-0.01851l-0.088132,0.092552l-0.078855,0.023138l-0.041747,-0.032393l0.004639,-0.078669l-0.037108,-0.064786l-0.134518,-0.083296l-0.004639,-0.037021l0.148434,-0.013883l0.148434,0.046276l0.139156,-0.064786v-0.097179l0.046385,-0.050903l0.088132,-0.013883l0.143795,-0.120317v-0.060159l-0.171626,-0.092552l-0.32006,-0.277655l-0.111325,-0.055531l-0.250482,-0.263772l-0.185542,-0.083296l-0.241204,-0.175848l-0.218012,-0.30542l-0.153072,-0.087924h-0.125241l-0.19018,-0.074041l-0.088132,-0.138827l-0.301506,-0.249889l-0.403554,-0.203614l-0.051024,-0.106434l-0.227289,-0.157338l-0.06494,-0.092552h-0.078855l-0.088132,0.069414l-0.06494,-0.004628l-0.037108,-0.055531l-0.106687,-0.041648l-0.176265,0.078669l-0.166988,-0.050903l-0.120602,-0.143455l-0.25512,-0.092552l-0.125241,0.009255l-0.088132,-0.041648l-0.013916,-0.11569l0.074217,-0.032393l-0.004639,-0.046276l-0.204096,-0.046276l-0.162349,0.101807l-0.143795,-0.01851l-0.171626,-0.111062h-0.097409l-0.069578,-0.050903l0.013916,-0.180476l-0.227289,-0.157338l-0.176265,0.01851l-0.069578,-0.027765v-0.083296l-0.055663,-0.046276l-0.088132,-0.013883l-0.018554,-0.060159l0.078855,-0.083296v-0.078669l-0.259759,-0.231379l-0.199458,-0.097179l-0.241204,-0.009255l-0.162349,-0.078669l-0.055663,-0.106434l-0.207188,-0.225209l-0.197911,-0.240634l-0.188634,-0.120317l-0.139156,-0.141913l0.009277,-0.092552l-0.034016,-0.027765l-0.071124,0.040106l-0.244297,0.037021l-0.145341,-0.052446l-0.284498,-0.206699l-0.092771,-0.01851l-0.095863,0.058616l-0.009277,0.120317l-0.027831,0.049361h-0.040201l-0.05257,-0.061701l-0.272128,-0.163508l-0.23502,-0.064786l-0.074217,0.021595l-0.06494,-0.027765l-0.074217,-0.114147l-0.132972,-0.070956l-0.06494,0.015425l-0.034016,0.126487l0.05257,0.169678l0.126787,0.111062l-0.009277,0.027765l-0.055663,0.00617l-0.012369,0.043191l-0.080401,0.027765l-0.22265,-0.104892l-0.151526,-0.132657l-0.089679,-0.01234l-0.046385,0.030851l0.003092,0.055531l0.089679,0.111062l-0.024739,0.01851l-0.111325,-0.027765l-0.015462,-0.049361l-0.046385,-0.02468l-0.071124,0.003085l-0.108233,-0.049361l-0.018554,0.043191l0.089679,0.095637l0.253574,0.132657l0.040201,0.089467l0.163895,0.092552l0.086586,0.015425l0.024739,-0.033936l-0.102048,-0.138827l0.015462,-0.030851l0.111325,0.021595l0.188634,0.123402l0.092771,-0.003085l0.092771,-0.070956l0.040201,0.00617l0.006185,0.052446l-0.043293,0.067871l0.055663,0.049361l0.201004,0.049361l0.06494,-0.030851l-0.024739,-0.095637l-0.269036,-0.237549l0.018554,-0.027765l0.06494,0.043191l0.071124,0.003085l0.253574,0.185103l0.157711,0.157338l0.083494,0.191273l-0.024739,0.092552l0.024739,0.037021l0.083494,0.021595l0.055663,0.107977l-0.046385,0.129572l0.05257,0.117232l0.160803,0.104892l0.231927,0.030851l0.030924,0.040106l0.003092,0.074041l0.027831,0.021595l0.083494,-0.033936l0.061847,0.021595l0.071124,0.135742Z M2172.081763,806.66929l-0.018554,0.046276l0.074217,-0.013883l0.051024,-0.074041h-0.046385l-0.060301,0.041648Z M2172.485317,807.803047l0.03247,-0.01851l-0.037108,-0.041648l-0.046385,-0.009255l-0.009277,0.037021l0.060301,0.032393Z M2159.236889,800.586388l0.046385,-0.064786l-0.027831,-0.074041l-0.083494,0.01851v0.074041l0.06494,0.046276Z M2157.752554,800.336499l0.083494,-0.083296v-0.148083l-0.157711,-0.148083l-0.166988,-0.027765l-0.10514,0.061701l-0.111325,-0.01851l-0.043293,-0.123402l0.043293,-0.185103l-0.089679,-0.345526l-0.148434,-0.074041l-0.318514,0.111062l-0.108233,0.111062l-0.139156,-0.037021l-0.129879,-0.148083l-0.074217,0.009255l-0.027831,0.138827l-0.092771,-0.027765l-0.06494,-0.175848l-0.204096,-0.101807l-0.166988,-0.01851l-0.231927,-0.212869l0.018554,-0.138827l-0.111325,-0.138827l-0.389638,-0.055531l-0.306144,-0.28691l-0.250482,-0.157338l-0.139156,-0.527544l0.009277,-0.388717l-0.176265,-0.231379l-0.426746,-0.30542l-0.185542,-0.01851l-0.129879,-0.064786l-0.037108,-0.111062l-0.231927,-0.166593l-0.296867,-0.027765l-0.426746,-0.30542l-0.528794,-0.240634l-0.333975,-0.074041l-0.129879,-0.092552l-0.166988,-0.323931l-0.185542,-0.175848l-0.417469,-0.083296l-0.343253,-0.277655l-0.269036,-0.064786l-0.250482,0.092552l-0.250482,0.240634l-0.018554,0.157338l0.157711,0.175848l-0.018554,0.212869l0.111325,0.157338l0.57518,0.388717l0.083494,0.175848l0.491686,0.30542l0.185542,0.027765l0.333975,0.2684l0.06494,0.222124l0.445301,0.453503l0.046385,0.157338l0.074217,0.092552l0.148434,0.083296l0.157711,0.212869l0.250482,0.203614l0.102048,0.185103l0.343253,0.30542l0.473132,0.166593l0.055663,0.101807l-0.046385,0.138827l0.046385,0.111062l0.120602,0.046276l0.06494,-0.074041l0.037108,-0.101807l0.120602,0.01851l0.22265,0.175848l0.018554,0.2684l0.102048,0.055531l0.278313,-0.083296l0.398915,0.037021l0.157711,0.101807l0.22265,0.046276l0.129879,-0.111062l0.185542,-0.055531l0.046385,0.064786l-0.06494,0.120317l0.037108,0.166593l0.176265,0.083296l0.204096,-0.055531l0.157711,0.046276l0.06494,0.101807l0.213373,0.037021l0.166988,-0.101807l0.361807,0.027765l0.204096,0.083296l0.166988,0.148083l0.35253,0.01851Z "/>
</svg>
