<svg xmlns="http://www.w3.org/2000/svg" viewBox="1422.201 783.269 66.560 35.240">
  <path d="M1488.698707,798.388384l0.061864,-0.266015l-0.046398,-0.058771l-0.089703,0.074237l-0.16394,0.46398l0.034025,0.034025l0.204151,-0.247456Z M1471.486951,788.545725l0.027839,-0.071144l-0.06805,-0.00928l-0.098982,0.071144l-0.080423,0.012373l-0.06805,0.049491l0.003093,0.074237l0.092796,0.00928l0.049491,-0.07733l0.142287,-0.058771Z M1482.767883,789.820413v-0.064957l0.034025,-0.015466l0.037118,0.049491l0.003093,0.049491l-0.027839,0.021652l-0.046398,-0.040212Z M1468.95362,789.037544l0.06805,-0.012373l0.046398,0.07733l-0.027839,0.071144h-0.034025l-0.061864,-0.049491l0.00928,-0.08661Z M1468.935061,788.941655l0.034025,-0.034025h0.080423l0.024746,0.027839l-0.043305,0.037118l-0.083516,0.021652l-0.012373,-0.052584Z M1469.38662,786.889365l0.007395,0.056693l-0.059157,0.051763l-0.029579,-0.007395l0.027114,-0.061622l-0.034509,-0.029579l-0.044368,-0.012324l0.027114,-0.024649l0.10599,0.027114Z M1468.905676,786.841372l-0.023199,-0.055678l0.083516,-0.041758l0.051038,0.023199l-0.032479,0.064957l-0.078877,0.00928Z M1469.017031,784.79522l0.055678,-0.00928l0.021812,0.046565l-0.040372,0.055511l-0.055678,-0.051038l0.018559,-0.041758Z M1467.195329,789.800985l0.039438,0.014789l-0.019719,0.041903l-0.029579,-0.00493l-0.012324,-0.032044l0.022184,-0.019719Z M1468.502013,788.248778l0.049491,-0.027839l0.030932,0.049491l-0.040212,0.043305l-0.049491,-0.018559l0.00928,-0.046398Z M1467.929771,791.697696l0.037118,-0.012373l0.024746,0.052584l-0.030932,0.055678l-0.049491,-0.024746l0.018559,-0.071144Z M1467.301852,792.065787l0.043305,0.034025l-0.034025,0.046398l-0.046398,-0.006186l-0.021652,-0.043305l0.058771,-0.030932Z M1465.368198,797.394742l-0.034509,-0.029579l0.00493,-0.059157l0.049298,-0.012324l0.046833,0.036973v0.036973l-0.066552,0.027114Z M1465.428805,797.737072l0.060317,0.00928l0.013919,0.060317l-0.041758,0.027839l-0.055678,-0.046398l0.023199,-0.051038Z M1465.464328,798.289498l0.041903,0.014789l0.044368,-0.034509l0.007395,0.022184l-0.029579,0.044368l-0.067567,0.033349l-0.040888,-0.025954l-0.022184,-0.064087l0.022184,-0.064087l0.036973,0.012324l0.007395,0.061622Z M1465.894445,791.165666l0.021652,-0.024746l0.027839,0.003093l0.003093,0.037118l-0.024746,0.006186l-0.027839,-0.021652Z M1469.518129,783.333683l-0.027839,-0.037118l0.037118,-0.027839l0.041758,0.023199l-0.00464,0.032479l-0.046398,0.00928Z M1424.061652,815.578844l0.088156,-0.083516l-0.032479,-0.115995l0.046398,-0.051038l0.060317,0.051038l0.013919,0.213431l-0.106715,0.148474l-0.129914,-0.013919l-0.037118,-0.069597l0.027839,-0.046398l0.069597,-0.032479Z M1423.801823,812.975916l0.013919,-0.051038l0.24127,0.032479l0.213431,0.111355l0.013919,0.185592l-0.125275,0.129914l-0.357265,0.083516l-0.245909,-0.060317l-0.528937,0.153113l-0.208791,0.148474l-0.320146,0.00464l-0.157753,-0.092796l-0.120635,-0.385103l0.046398,-0.032479l0.24127,0.273748l0.259829,0.023199l0.635653,-0.176312l0.194872,-0.013919l0.064957,-0.074237l0.078877,-0.027839l0.255189,0.051038l0.018559,-0.032479l-0.120635,-0.185592l-0.092796,-0.064957Z M1422.201092,813.082631v-0.102076l0.092796,-0.088156l0.115995,-0.00464l0.051038,0.060317l-0.046398,0.069597l-0.129914,0.078877l-0.083516,-0.013919Z M1422.549077,812.952717l-0.027839,-0.032479l0.060317,-0.051038l0.236722,-0.003718l0.259737,0.022277l0.445421,-0.018559l0.176312,0.055678l0.00464,0.041758l-0.139194,0.046398l-0.491819,-0.041758l-0.111355,0.018559l-0.199511,-0.013919l-0.051038,-0.037118l-0.092796,-0.00464l-0.069597,0.018559Z M1432.162743,817.833786l0.013919,-0.088156l0.125275,-0.157753l0.064957,-0.00464l0.078877,0.102076l-0.00464,0.129914l-0.078877,0.106715l-0.148474,-0.013919l-0.051038,-0.074237Z M1430.766163,815.388612l0.018559,-0.115995l0.074237,-0.041758l0.046398,0.013919l-0.018559,0.064957l-0.078877,0.097436l-0.041758,-0.018559Z M1431.202305,815.685559l0.032479,-0.013919l0.129914,-0.00928l-0.013919,0.032479l-0.106715,0.013919l-0.041758,-0.023199Z M1431.605967,815.625242l0.012373,-0.027839l0.058771,-0.015466l0.024746,-0.046398l0.015466,-0.071144l0.018559,-0.006186l0.021652,0.061864l-0.052584,0.08661l-0.061864,0.041758l-0.037118,-0.023199Z M1431.754441,815.371599l-0.015466,-0.052584l0.018559,-0.021652l0.021652,0.030932l0.006186,0.021652l-0.006186,0.037118l-0.024746,-0.015466Z M1452.121617,812.621744l0.018559,-0.041758l0.051038,-0.018559l0.051038,0.037118l-0.00928,0.041758l-0.060317,0.018559l-0.051038,-0.037118Z M1454.149209,812.046409l-0.046398,-0.139194l0.018559,-0.088156l0.046398,-0.037118l0.027839,0.069597l-0.00464,0.157753l-0.041758,0.037118Z M1453.815144,814.078641l0.023199,-0.120635l-0.018559,-0.106715l0.037118,-0.088156l0.041758,-0.013919l-0.023199,0.139194l0.037118,0.097436l-0.041758,0.078877l-0.055678,0.013919Z M1454.172408,818.14156l0.027839,-0.034025h0.037118l0.00928,0.034025l-0.037118,0.021652l-0.037118,-0.021652Z M1454.75393,818.491091l0.018559,-0.046398l0.046398,0.003093l0.003093,0.046398l-0.040212,0.015466l-0.027839,-0.018559Z M1454.951895,818.354991l-0.040212,-0.030932l0.012373,-0.058771l0.105169,-0.148474l0.046398,-0.136101l0.046398,-0.080423l0.003093,-0.08661l-0.034025,-0.043305l-0.037118,-0.006186l-0.055678,0.043305l-0.030932,-0.006186l0.040212,-0.06805l0.064957,-0.030932l0.061864,0.024746l0.043305,0.089703l-0.012373,0.14538l-0.046398,0.040212l-0.00928,0.074237l-0.08661,0.188685l-0.071144,0.089703Z "/>
</svg>
