<svg xmlns="http://www.w3.org/2000/svg" viewBox="1481.498 775.539 5.039 7.287">
  <path d="M1481.819431,780.829834l0.125275,0.00464l0.069597,-0.133008l0.003916,-0.079504l-0.092072,-0.126193l-0.083516,-0.018559l-0.148474,0.037118l-0.027839,0.115995l0.115995,0.129914l0.037118,0.069597Z M1485.005427,779.751854l0.102076,0.064957l0.167033,0.060317l0.069899,-0.05922l-0.06062,-0.107813l0.032479,-0.041758l0.083516,0.060317h0.069597l0.016071,-0.045378l-0.099587,-0.107735l-0.069597,-0.00464l-0.074237,0.00928l-0.064957,-0.032479l-0.106715,-0.00464l-0.069597,-0.041758l-0.064957,-0.078877h-0.143834l-0.051038,0.051038l0.037118,0.125275l0.083516,0.055678h0.078877l0.060317,0.027839l0.00464,0.069597Z M1485.754741,779.702509l-0.053345,0.091103l-0.018559,0.120635l0.078877,0.102076l0.097436,-0.018559l0.032479,-0.097436l-0.047133,-0.14653l-0.089755,-0.051288Z M1482.697899,781.750061l0.055678,0.049491l0.235083,0.06805l0.061369,0.065928l0.11185,0.051613l0.071144,-0.006186l0.055678,0.092796l0.074725,0.098637l0.055189,0.006532l0.030932,0.043305l-0.006186,0.055678l0.07733,0.07733l-0.043305,0.030932l-0.098982,-0.003093l-0.052584,0.046398l-0.006186,0.07733l0.058771,0.061864l0.046398,-0.052584l0.055678,0.00928l0.108262,0.228897l0.120635,0.074237l0.123728,-0.012373l-0.012373,-0.092796l-0.071144,-0.055678l0.006583,-0.076237l-0.065354,-0.112448l0.024746,-0.080423l0.040212,-0.034025l0.018559,-0.046398l-0.027839,-0.188685l0.061864,-0.095889l-0.006186,-0.06805l-0.182499,-0.080423l-0.250549,-0.256736l-0.003093,-0.296947l-0.037118,-0.080423l-0.14538,-0.058771l-0.058771,0.043305l0.003093,0.253642l-0.034137,0.062685l-0.192331,0.038466l-0.166368,0.084441l-0.037118,0.07733Z M1486.392485,781.365303l0.033127,-0.054125l0.080183,0.012336l0.032312,0.077015l-0.068689,0.041706l-0.076933,-0.076933Z M1486.043238,779.580699l0.076933,0.115399l-0.015112,0.051116l-0.088156,-0.037118l-0.050597,-0.065286l0.006411,-0.076933l0.070522,0.012822Z M1485.088943,779.292513l0.097436,0.027839l-0.00464,0.055678l-0.106715,0.041758l-0.111355,-0.046398l0.018559,-0.055678l0.106715,-0.023199Z M1481.940065,779.952912l0.060568,0.089003l-0.01417,0.054831h-0.064957l-0.036272,-0.061242v-0.070522l0.054831,-0.01207Z M1483.550076,781.567562l-0.00928,-0.088156l0.078627,-0.044981l0.055927,0.049621l-0.022269,0.065778l-0.103005,0.017738Z M1483.512958,781.688197l0.027839,-0.060317l0.074237,0.027839l0.037118,0.060317l-0.042345,0.035736l-0.096849,-0.063575Z M1484.582335,776.150547l0.029579,-0.039438l0.046833,0.00986l0.017254,0.056693l-0.039438,0.059157l-0.029579,-0.00493l-0.00493,-0.046833l-0.019719,-0.034509Z M1481.535726,775.539254l0.034509,0.059157l-0.007395,0.034509l-0.039438,0.027114l-0.027114,-0.00493l0.017254,-0.036973l-0.00493,-0.069017l0.027114,-0.00986Z M1484.607678,777.562404l0.134077,0.000855l0.02313,0.069389l-0.1249,0.013878l-0.060137,-0.037007l0.027831,-0.047114Z M1486.299931,779.756493l0.023199,-0.060317l0.047072,0.006333l0.013245,0.091103l-0.046398,0.018559l-0.037118,-0.055678Z M1485.998361,779.465301l-0.031304,-0.050086l-0.005832,-0.067023l0.043547,-0.0047l0.02605,0.083577l-0.032461,0.038233Z M1482.917517,781.914001l0.054045,0.026042v0.048083l-0.041672,0.003206l-0.032055,-0.044877l0.019682,-0.032453Z M1482.663935,781.885488l0.018499,-0.027165l0.052023,0.017548l0.016028,0.02885l-0.044877,0.006411l-0.041672,-0.025644Z M1484.671278,779.631483l0.009252,0.041633l-0.037007,0.046259l-0.037118,-0.027839l0.023241,-0.046176l0.041633,-0.013878Z M1484.574133,779.816519l-0.028047,0.04205l-0.041758,-0.00928l-0.027339,-0.03277l0.037007,-0.041633l0.060137,0.041633Z M1484.629603,778.91205l0.00464,-0.041758h0.064957l0.046398,0.027839l-0.037118,0.027839l-0.078877,-0.013919Z "/>
</svg>
