<svg xmlns="http://www.w3.org/2000/svg" viewBox="1801.147 741.424 3.172 2.029">
  <path d="M1804.249107,742.266856l-0.032989,-0.062767l-0.003142,-0.03766l0.012567,-0.064336l0.010996,0.001569l-0.003142,0.043937l0.006284,0.054921l0.050268,0.09572l-0.010996,0.004708l-0.029847,-0.036091Z M1804.027612,742.103662l0.020422,0.001569l0.042414,-0.039229l0.161801,-0.065905l0.058123,-0.058059l0.009425,-0.058059l-0.032989,-0.09572l-0.089541,-0.072182l-0.059694,-0.023538h-0.032989l-0.03456,0.017261l-0.045556,-0.003138l-0.015709,0.001569l-0.026705,0.020399l-0.042414,0.003138l-0.012567,0.021968l0.004713,0.03766l-0.006284,0.003138l-0.061265,-0.05649l-0.03456,-0.004708l-0.028276,0.023538l0.009425,0.064336l0.037701,0.026676l0.043985,-0.003138l0.018851,-0.017261l0.014138,0.003138l0.006284,0.040798l-0.01728,0.01883l-0.056552,-0.003138l-0.014138,0.012553l0.021992,0.067474l0.023563,0.017261l0.015709,-0.010984l-0.001571,-0.023538l-0.012567,-0.015692l0.025134,-0.017261l0.042414,0.004708l0.025134,0.036091l-0.006284,0.025107l-0.032989,0.040798v0.012553l0.083257,0.067474Z M1804.033895,741.667432l0.006284,-0.009415l-0.018851,-0.021968l-0.040843,-0.006277l-0.075403,0.021968l0.004713,0.006277l0.05341,-0.004708l0.031418,0.012553l0.039272,0.001569Z M1803.400828,741.880839l0.009425,0.010984l0.010996,0.003138l0.007854,-0.006277l-0.015709,-0.014123l-0.012567,-0.003138v0.009415Z M1803.45738,741.890254l0.03456,0.010984l0.07069,-0.021968l0.009425,-0.020399l0.028276,-0.010984l0.064406,0.003138l0.014138,-0.020399l0.009425,-0.031383l-0.020422,-0.020399l-0.03613,-0.003138l-0.025134,0.012553l-0.043985,-0.001569l-0.020422,-0.010984h-0.040843l-0.023563,0.009415l-0.069119,-0.012553l-0.028276,-0.025107l-0.064393,-0.018865l-0.03456,0.001569l-0.018864,0.015726l0.003142,0.023538l0.037701,0.026676l0.043985,0.007846l0.069119,0.043937l0.040843,0.042368Z M1803.27987,741.87927l-0.047127,-0.05649l-0.043985,-0.031383l-0.006284,0.006277l0.009425,0.032953l0.03613,0.031383l0.042414,0.023538l0.009425,-0.006277Z M1802.855731,741.640756l-0.014138,-0.040798l-0.025134,-0.021968l-0.009425,0.001569l0.010996,0.036091l0.029847,0.036091l0.007854,-0.010984Z M1801.430937,742.095816h0.014138l0.012567,-0.010984v-0.015692l-0.015709,-0.004708l-0.014138,0.012553l0.003142,0.01883Z M1801.848792,743.219344l0.094253,-0.001569l0.029847,-0.015692l-0.001571,-0.017261l-0.058123,-0.034522l-0.050268,0.003138l-0.047127,0.034522l-0.001571,0.01883l0.03456,0.012553Z M1801.935191,743.34017l0.018851,-0.025107l-0.006284,-0.01883h-0.023563l-0.032989,0.026676l-0.003142,0.021968l0.015709,0.006277l0.031418,-0.010984Z M1801.979176,743.442167l0.025134,0.010984l0.01728,-0.007846l-0.003142,-0.031383l-0.015709,-0.015692h-0.039272l-0.007854,0.012553l0.023563,0.031383Z M1802.744198,743.129901l0.01728,0.001569l-0.001571,-0.031383l0.014138,-0.009415l0.029847,0.006277l0.004713,-0.009415l-0.012567,-0.031383l0.010996,-0.028245l-0.006284,-0.009415l-0.050268,0.007846l-0.006284,0.012553l0.01728,0.023538l0.001571,0.01883l-0.015709,0.006277l-0.032989,-0.006277l-0.003142,0.014123l0.032989,0.034522Z M1802.62481,742.858434l0.043985,0.003138l0.023563,-0.009415l0.001571,-0.012553l-0.031418,-0.025107l-0.045556,-0.003138l-0.026705,0.015692l-0.004713,0.012553l0.039272,0.01883Z M1802.547837,742.897664l0.076973,0.073751h0.03613l0.042414,-0.028245l0.026705,-0.051783l-0.014138,-0.010984h-0.064406l-0.062835,-0.012553l-0.042414,-0.028245l-0.067548,-0.001569l-0.003142,0.010984l0.072261,0.048644Z M1802.409599,743.222482l0.010996,-0.006277l-0.015709,-0.031383l-0.031418,-0.01883l-0.009425,0.004708l0.009425,0.032953l0.03613,0.01883Z M1802.261935,743.070273l0.010996,-0.009415l-0.006284,-0.025107l-0.051839,-0.050214l-0.047127,-0.015692l-0.009425,0.006277l-0.001571,0.028245l0.026705,0.017261l0.026705,0.003138l0.021992,0.015692l0.012567,0.021968l0.01728,0.007846Z M1802.214809,743.065565l0.003142,-0.017261l-0.012567,-0.010984l-0.032989,-0.003138l-0.031418,-0.01883l-0.014138,-0.017261l-0.067548,-0.014123l-0.028276,0.010984l-0.001571,0.015692l0.031418,0.017261l0.062835,0.012553l0.039272,0.025107h0.051839Z M1802.067146,743.070273l0.014138,0.006277l0.007854,-0.006277l-0.003142,-0.010984l-0.014138,-0.006277l-0.006284,0.007846l0.001571,0.009415Z M1802.101705,743.059288l-0.001571,0.010984l0.009425,0.004708l0.006284,-0.007846l-0.004713,-0.010984l-0.009425,0.003138Z M1802.172395,743.247589l0.010996,-0.029814l0.028276,-0.006277l0.031418,0.014123l0.045556,0.006277l0.014138,-0.014123l-0.010996,-0.045506l-0.028276,-0.009415l-0.045556,0.010984l-0.047127,-0.009415l-0.01728,-0.025107h-0.007854l-0.006284,0.067474l0.020422,0.040798h0.012567Z M1802.093851,742.696809l0.133525,0.080028l0.040843,-0.065905l0.061265,0.036091l-0.047127,0.091012l0.050268,0.025107l0.054981,-0.100427l0.054981,0.039229l0.018851,0.003138l0.039272,-0.014123l0.025134,0.004708l0.020422,0.014123h0.029847l0.069119,-0.026676l0.037701,0.001569l0.03613,0.034522l0.03456,-0.001569l0.009425,-0.059629h0.018851l0.03456,0.015692l0.075403,-0.054921l0.001571,-0.023538l-0.043985,-0.032953l-0.031418,0.001569l-0.025134,0.020399l-0.020422,-0.012553l0.004713,-0.026676l0.048697,-0.010984l0.012567,-0.01883l0.007854,-0.040798l0.026705,-0.012553l0.043985,0.006277l-0.004713,0.007846l-0.03456,0.004708l-0.015709,0.031383l0.025134,0.047075l0.032989,0.028245h0.020422l0.097395,-0.076889l0.348737,-0.11455l0.07069,-0.004708l0.097395,-0.031383l0.07069,-0.001569l0.018851,0.021968l0.03613,0.001569l0.059694,0.01883h0.075403l0.029847,-0.014123l0.001571,-0.023538l0.043985,-0.003138v-0.026676h0.03456v0.025107h0.021992v-0.05649h-0.050268l-0.020422,-0.017261l0.015709,-0.051783l0.064406,-0.145933h0.018851l0.021992,0.015692l0.003142,-0.007846l-0.029847,-0.028245l-0.136667,-0.062767l-0.020422,0.001569l-0.020422,-0.009415l-0.012567,-0.025107l-0.050268,-0.100427l-0.062835,-0.020399l-0.086399,0.006277l-0.056552,0.05649l-0.065977,0.010984l-0.067548,-0.015692l-0.069119,-0.051783l-0.040843,-0.050214l-0.039272,-0.012553l-0.058123,-0.050214l-0.018851,-0.065905l-0.020422,-0.017261l-0.03456,-0.001569l-0.028276,0.017261l-0.031418,0.054921l-0.012567,-0.009415l0.001571,-0.01883l0.018851,-0.01883l-0.003142,-0.021968l-0.103679,-0.064336l-0.03613,-0.006277l-0.03613,0.017261l-0.054981,0.059629l-0.059694,0.072182l-0.061265,0.040798l-0.023563,0.028245l-0.025134,-0.003138l-0.007854,-0.03766l-0.015709,-0.004708l-0.021992,0.014123l-0.006284,-0.010984l0.009425,-0.021968l0.032989,-0.012553l0.056552,0.017261l0.039272,-0.017261l0.084828,-0.131811l0.001571,-0.036091l-0.018851,-0.01883l-0.025134,0.009415l-0.026705,0.026676l-0.021992,-0.007846l0.001571,-0.01883l0.032989,-0.017261l0.015709,-0.032953l-0.009425,-0.021968l-0.047127,0.001569l-0.004713,-0.009415l0.021992,-0.012553l0.01728,-0.004708l-0.001571,-0.01883l-0.061265,-0.050214l-0.097395,-0.036091l-0.023563,0.01883l-0.012567,-0.006277l-0.001571,-0.023538l-0.029847,-0.014123l-0.081686,0.006277l-0.142951,0.089443l-0.023563,0.023538l-0.072261,0.034522l-0.05341,0.061198l-0.067548,0.006277l-0.025134,-0.010984h-0.014138l-0.007854,0.015692l0.018851,0.029814l-0.006284,0.03766l-0.03456,0.059629l-0.054981,0.031383l-0.009425,0.034522l0.03456,0.076889v0.034522l-0.018851,0.064336l-0.004713,-0.023538l0.009425,-0.045506l-0.003142,-0.029814l-0.021992,-0.034522l-0.014138,0.001569l-0.009425,0.01883l-0.001571,0.031383l-0.032989,0.014123l0.004713,-0.014123l0.01728,-0.012553l-0.003142,-0.031383l0.021992,-0.032953l-0.014138,-0.023538l-0.047127,-0.009415l-0.01728,-0.012553l-0.061265,0.007846l0.006284,-0.010984l0.048697,-0.010984l0.020422,0.001569l0.015709,0.007846h0.026705l0.073832,-0.047075l0.021992,-0.065905l-0.004713,-0.076889l-0.050268,-0.050214l-0.051839,-0.015692l-0.059694,0.009415l-0.083257,0.081597l-0.058123,0.029814l-0.092682,0.031383l-0.028276,0.034522l-0.015709,0.065905l-0.014138,0.025107l-0.026705,0.012553l-0.01728,0.029814l0.004713,0.073751l-0.012567,0.028245l-0.01728,0.01883l0.001571,0.017261l0.031418,0.010984l0.054981,-0.010984l0.020422,0.014123l-0.001571,0.01883l-0.015709,0.010984v0.014123l0.018851,0.010984l0.004713,0.021968l-0.010996,0.015692l-0.014138,-0.001569l-0.018851,-0.028245l-0.026705,-0.010984l-0.050268,0.003138l-0.026705,0.025107l0.003142,0.023538l0.015709,0.028245l-0.006284,0.007846l-0.021992,-0.015692l-0.031418,0.003138l-0.028276,0.01883l-0.003142,0.025107l0.026705,0.039229l0.031418,0.015692l0.015709,0.017261l0.001571,0.025107l0.010996,0.007846l0.01728,0.001569l0.001571,0.009415l-0.023563,0.007846l-0.023563,-0.015692l-0.004713,-0.025107l-0.010996,-0.009415l-0.01728,0.006277l-0.015709,-0.012553l-0.015709,-0.028245l-0.028276,-0.014123l-0.014138,0.006277l-0.006284,0.015692l0.006284,0.028245l-0.032989,0.097289l-0.029847,0.020399l-0.025134,0.03766l-0.001571,0.026676l0.009425,0.003138l0.007854,-0.01883h0.009425l-0.003142,0.03766l-0.045556,0.106704v0.023538l0.012567,0.015692l-0.006284,0.048644l-0.01728,0.029814l-0.037701,0.023538l-0.025134,0.067474l0.018851,0.003138v0.064336h0.018851v0.015692h-0.020422v0.043937h0.01728v0.014123h-0.03613v0.020399h0.03613v0.01883h-0.03613v0.119257l0.039272,0.021968l0.193219,0.045506l0.015709,-0.009415v-0.020399l-0.015709,-0.029814l-0.039272,-0.006277l-0.047127,0.004708l-0.014138,0.021968l-0.072261,-0.010984v-0.084735h0.032989v-0.020399h-0.015709l-0.009425,-0.028245v-0.047075h0.092682l0.05341,-0.021968v-0.032953h-0.149234v-0.059629h0.03613v0.010984h0.136667v-0.05649h-0.01728v-0.036091l0.01728,-0.032953l0.03613,-0.004708l0.014138,-0.017261l-0.003142,-0.025107l-0.092682,-0.158486l0.015709,-0.032953l0.031418,0.021968l0.039272,-0.039229l0.018851,0.01883l-0.039272,0.039229l0.026705,0.026676l0.039272,-0.039229l0.011782,0.011769l-0.050268,0.050214l0.018065,0.018045l0.013353,-0.013338l0.033774,0.044721l0.039272,0.023538h0.026705l0.028276,-0.025107l-0.029847,-0.040798l0.001571,-0.034522h0.015709l0.012567,0.032953l0.032989,0.025107l0.018851,-0.007846l-0.006284,-0.029814l0.004713,-0.036091h0.012567l0.004713,0.047075l0.01728,0.012553l0.039272,-0.006277l0.006284,-0.043937l0.023563,-0.004708l0.031418,0.029814l0.031418,0.001569l0.021992,-0.032953l0.039272,-0.001569l0.058123,0.047075l0.014138,-0.009415l-0.018851,-0.029814l0.004713,-0.029814l0.047127,-0.080028v0.015692l-0.021992,0.051783l-0.003142,0.03766l0.020422,0.036091l0.109962,0.03766l0.043985,-0.006277l0.003142,-0.017261l-0.01728,-0.039229h-0.028276l-0.015709,0.010984l-0.020422,-0.007846l-0.042414,-0.03766l0.001571,-0.03766l0.015709,-0.023538h0.029847l0.029847,0.020399l0.006284,0.043937l0.028276,0.012553l0.050268,0.078459v0.039229l0.076973,0.045506l-0.020422,0.032953l-0.073832,-0.040798l-0.03456,-0.001569l-0.015709,0.034522Z M1801.752968,742.564999l0.001571,-0.01883l-0.015709,-0.017261l-0.010996,0.003138l-0.001571,0.015692l0.007854,0.015692l0.018851,0.001569Z M1801.855076,742.568137h0.03613l0.004713,-0.010984l-0.037701,-0.031383h-0.021992l-0.009425,0.023538l0.028276,0.01883Z M1801.54826,742.994491l0.035484,0.017722l0.007885,0.031507l-0.013799,0.025599l0.011828,0.015753l0.100537,-0.102396l0.005914,-0.045291l-0.021684,-0.080735l-0.027598,-0.04726l0.011828,-0.017722l0.051254,0.031507l0.021684,0.053167l0.01577,0.017722l0.088709,-0.043321l0.001971,-0.02363l-0.035484,-0.033476l0.009857,-0.011815l0.092651,0.04726h0.02957l0.080824,-0.072859l0.003943,-0.019692l-0.026397,-0.028521l-0.026397,-0.003355l-0.026705,-0.029814l0.001045,-0.023076l-0.01814,-0.0196l-0.078852,-0.015753l-0.061111,0.013784l-0.057168,0.09452l-0.047311,0.009846l-0.007885,-0.021661l0.057168,-0.068921l-0.005914,-0.017722l-0.067024,0.005907l-0.191217,0.129964l-0.003943,0.027568l0.088709,0.204792Z "/>
</svg>
