<svg xmlns="http://www.w3.org/2000/svg" viewBox="1022.069 803.182 0.824 0.689">
  <path d="M1022.074367,803.460086l0.036863,-0.03932l0.031948,-0.012288l0.036863,-0.073726l-0.004915,-0.046693l0.083556,-0.081098l0.054065,0.00983l0.024575,-0.00983l-0.002458,-0.024575h0.031948l0.063896,0.041778l0.03932,0.002458l0.115504,0.108131l0.054065,0.00983l0.061438,0.036863l0.034405,0.046693l0.014745,0.061438l0.041778,0.031948l0.071268,0.027033l0.02949,0.027033l-0.007373,0.041778l-0.024575,0.012288l-0.027033,-0.004915l-0.004915,-0.017203l-0.031948,0.007373l-0.014745,0.073726l-0.03932,0.031948h-0.03932l-0.095843,0.04915l-0.01966,0.03932h-0.027033l-0.041778,-0.024575l-0.095843,0.044235l-0.054065,-0.004915l-0.01966,0.017203l-0.073726,0.012288l-0.02949,0.01966l-0.051608,-0.024575l-0.088471,-0.083556l0.002458,-0.02949l0.024575,-0.027033l-0.002458,-0.02949l-0.046693,-0.086013l-0.014745,-0.073726l0.004915,-0.058981Z M1022.796879,803.496949l0.01966,0.00983l0.00983,-0.022118l-0.012288,-0.012288l-0.014745,0.007373l-0.002458,0.017203Z "/>
</svg>
