<svg xmlns="http://www.w3.org/2000/svg" viewBox="1078.951 856.881 1.042 0.865">
  <path d="M1079.20998,857.735582l-0.060137,-0.097144l-0.046259,-0.041633l-0.152655,-0.046259v-0.050885l0.152655,-0.180411l0.018504,-0.087893l0.060137,-0.069389l0.10177,-0.032381l0.212792,-0.189663l0.013878,-0.050885l0.041633,-0.009252l0.037007,0.046259l0.120274,0.027756l0.097144,-0.032381l0.060137,0.046259l0.004626,0.115648l0.10177,0.10177l0.004626,0.046259l-0.018504,0.055511l0.032381,0.074015l-0.018504,0.029298l-0.069389,0.00771l-0.087893,0.074015l-0.064763,0.032381l-0.004626,0.046259l-0.046259,0.02313l-0.111022,0.02313l-0.069389,-0.013878l-0.078641,0.018504l-0.194289,0.143404l-0.037007,-0.009252Z "/>
</svg>
