<svg xmlns="http://www.w3.org/2000/svg" viewBox="1205.569 416.919 21.173 11.928">
  <path d="M1207.77737,419.929169h0.087l0.077,0.034l0.155,0.016l0.08,-0.007l0.059,0.019l0.025,0.043l0.111,0.028l0.105,-0.021l0.068,-0.062l0.075,-0.01l0.062,0.034l0.173,-0.021l0.068,-0.047l0.207,0.007l0.105,0.068l0.081,0.018l0.145,0.093l0.09,0.031l0.145,0.105l0.121,0.012l0.102,-0.065l0.182,-0.009l0.232,0.053l0.167,0.083l0.09,0.121l0.025,0.074l0.08,0.074l0.022,0.05l0.062,0.025l0.093,-0.013l0.105,-0.062l0.164,0.003l0.074,0.059l0.077,0.016l0.099,-0.053l0.139,-0.034l0.102,0.009l0.106,0.081l0.096,0.012l0.114,-0.043l0.306,-0.019l0.161,-0.058l0.145,-0.01l0.038,0.034l-0.022,0.044v0.037l0.043,0.058l0.235,0.059l0.044,0.04l0.071,-0.003l0.055,-0.058l0.109,-0.044l0.052,0.031l0.01,0.047l0.077,0.052l0.102,0.158l0.003,0.111l0.046,0.053l0.065,-0.009l0.102,-0.158l0.004,-0.17l-0.038,-0.059l0.053,-0.111l0.071,-0.041l0.198,-0.006l0.232,-0.068l0.077,-0.074v-0.05l0.047,-0.037l0.077,0.016l0.031,-0.031l-0.012,-0.047l0.031,-0.055l0.046,-0.016l0.031,-0.117l0.04,-0.009l0.04,0.034l0.041,-0.01l0.031,-0.074h0.043l0.028,0.034h0.055l0.025,-0.04l0.115,0.006l0.065,0.031l0.164,-0.059l0.04,-0.059l0.04,-0.235l0.046,-0.043l0.037,-0.093l-0.003,-0.074l0.115,-0.176l0.055,-0.037l0.053,-0.103l0.099,-0.055l0.093,0.003l0.099,0.065l0.043,-0.013l0.003,-0.111l0.031,-0.012l0.031,0.021l0.043,-0.003l0.102,-0.111l0.062,-0.006l0.081,0.062l0.015,0.157l0.037,0.016l0.081,-0.071l0.012,-0.09l0.139,-0.155l0.155,-0.105l0.167,-0.004l0.093,0.027l0.088,-0.009l0.111,-0.07l0.214,-0.013l0.292,0.046l0.121,0.056l0.246,0.027l0.255,-0.018l0.167,-0.065l0.292,-0.009l0.153,0.028l0.251,-0.01l0.199,0.051l0.107,0.084v0.06l0.046,0.102l0.079,0.014l0.047,-0.046l0.069,-0.005l0.061,0.037l0.083,-0.028l0.111,-0.111l0.065,-0.014l0.051,-0.116l-0.055,-0.139l0.046,-0.074l0.204,-0.079l0.065,-0.051l0.07,0.009l0.046,0.051l0.13,0.005l0.107,-0.098l0.014,-0.088l0.065,-0.037l0.111,0.009l0.186,0.07l0.144,0.018l0.306,-0.041l0.209,-0.13l0.208,-0.047l0.256,0.014l0.287,0.107l0.153,0.144l0.112,0.042l0.171,0.018l0.098,0.06l0.065,0.103l0.125,0.055l0.042,-0.018l0.032,-0.186l-0.12,-0.227l-0.181,-0.167l-0.079,-0.172l0.032,-0.13l0.028,-0.404l-0.046,-0.111l0.074,-0.079l0.181,-0.046l0.07,0.032l0.129,-0.023l0.093,-0.116l0.07,-0.023l0.06,-0.065l0.07,-0.005l0.069,-0.046l0.065,0.057l0.122,0.05l0.129,-0.014l0.181,-0.081l0.184,-0.028l0.071,-0.039l0.085,-0.009l0.166,0.034h0.126l0.049,0.02l0.067,0.072l0.252,0.124l0.026,0.102l-0.046,0.147l-0.046,0.058l-0.102,0.042l-0.041,0.059l0.018,0.076l0.065,0.016l0.009,0.055l-0.028,0.084l0.019,0.059l0.161,0.151l0.032,0.113l0.041,0.013l0.056,-0.03l0.059,0.034l-0.036,0.071l0.032,0.059l0.096,0.029l0.194,-0.004l0.023,0.042l-0.033,0.21l-0.041,0.029l-0.12,-0.025l-0.055,0.034l-0.004,0.126l0.211,0.185l0.138,0.041l0.258,0.257l0.032,0.088l0.055,0.025l0.06,-0.009l0.06,0.038l0.036,0.156l0.056,0.029l0.023,0.063l-0.014,0.143l0.041,0.063l0.23,0.092l0.045,0.064l0.127,0.049l-0.003,0.025l-0.118,0.012l-0.08,-0.009l-0.05,-0.041l-0.173,-0.025l-0.053,0.016l-0.049,-0.016l-0.022,-0.084l-0.068,-0.05h-0.053l-0.046,-0.034l-0.025,-0.068l-0.121,-0.072l-0.114,0.009l-0.059,-0.019l-0.006,-0.059l-0.084,-0.047l-0.096,0.019l-0.049,-0.012l-0.04,-0.05l-0.143,-0.063l-0.003,-0.031l0.04,-0.022l-0.009,-0.034l-0.068,-0.019l-0.037,0.025l-0.009,0.041l-0.121,0.065l-0.022,0.053l-0.04,0.028l-0.071,0.013l-0.059,0.037l-0.019,0.047l-0.037,0.041l-0.065,0.015l-0.108,-0.034l-0.068,0.019l-0.025,0.074l-0.124,0.047l-0.031,0.084l0.013,0.06l0.049,0.025l0.051,0.079l0.103,0.385l-0.005,0.049l0.025,0.038l0.059,0.014l0.124,0.117l-0.005,0.139l-0.052,0.047l-0.202,0.008l-0.102,-0.025l-0.042,0.01l-0.037,-0.012l-0.014,-0.04l-0.057,-0.008l-0.042,0.035l-0.168,0.01l-0.128,-0.057l-0.163,-0.144h-0.094l-0.071,0.047l-0.18,0.072l-0.087,0.003l-0.14,-0.028l-0.049,0.023l-0.013,0.072l0.121,0.151l0.037,0.142l-0.03,0.04l-0.15,0.049l-0.089,-0.002l-0.057,0.042l-0.066,0.171l-0.077,0.028l-0.081,-0.028l-0.111,0.013l-0.054,0.089l-0.099,0.05l-0.212,0.055l-0.057,-0.018l-0.071,0.01l-0.057,0.045l-0.126,0.032l-0.059,0.085l-0.155,0.027l-0.067,0.027l-0.229,0.018l-0.008,0.032l0.049,0.094l-0.004,0.058l-0.042,0.019l-0.01,0.035l0.01,0.052l-0.035,0.057l-0.136,0.085l-0.059,0.012l-0.025,-0.017l-0.004,-0.067l-0.035,-0.025h-0.057l-0.039,0.027l-0.035,-0.005l-0.012,-0.037l-0.042,-0.012l-0.109,0.002l-0.152,-0.017l-0.082,0.007l-0.126,0.075l-0.034,0.037l0.002,0.042l0.042,0.033l-0.005,0.084l-0.069,0.06l-0.032,0.067l-0.128,0.077l-0.03,0.044l-0.015,0.092l-0.049,0.038l0.005,0.039l0.059,0.045l0.008,0.102l-0.027,0.109l0.041,0.08l0.057,0.02l0.022,0.027l-0.019,0.04l0.017,0.049l0.057,0.023l0.074,-0.02l0.081,0.035l0.005,0.069l0.037,0.02l0.062,-0.012l0.108,0.052l0.017,0.032l0.089,0.035l0.055,-0.003l0.108,0.08l0.022,0.062l-0.022,0.022l-0.044,-0.002l-0.04,0.04l0.005,0.057l-0.027,0.069l-0.03,0.02l-0.002,0.03l0.025,0.042l-0.018,0.055l-0.037,0.04l-0.01,0.094l0.028,0.104l0.009,0.333l-0.022,0.1l-0.052,0.069l-0.106,0.067l-0.014,0.045l0.022,0.107l0.052,0.03l-0.008,0.027l-0.042,0.007l-0.024,0.082l0.029,0.053l0.121,0.082l0.032,0.054l-0.02,0.023l-0.042,-0.018l-0.034,0.01l-0.032,0.037l-0.116,0.008l-0.057,0.03l-0.096,0.124l-0.042,0.002l-0.054,-0.059l-0.249,-0.142l-0.074,-0.012l-0.047,-0.033l-0.037,0.003l-0.042,0.064l-0.005,0.058l-0.03,0.002l-0.037,-0.032l-0.014,-0.037l-0.052,-0.025l-0.03,0.01l-0.015,0.136l-0.044,0.052l-0.111,0.028h-0.059l-0.01,-0.028l0.02,-0.024l-0.005,-0.023l-0.042,-0.012l-0.05,-0.003l-0.051,0.033l-0.008,0.037l-0.029,0.037l-0.05,0.003l-0.01,0.029l0.06,0.13l-0.01,0.029l-0.055,0.018l-0.192,0.002l-0.074,-0.017l-0.111,0.017l-0.101,0.052l-0.054,0.058l-0.092,0.039h-0.051l-0.208,0.115l-0.195,0.077l-0.037,0.042l-0.099,0.053l-0.047,0.065l-0.052,0.05l-0.031,0.065l0.021,0.035l0.044,0.015l0.037,0.041l0.055,0.009l0.041,0.059l0.006,0.085l0.049,0.012l0.013,-0.044l0.043,-0.021l0.028,0.021l-0.009,0.063l0.065,0.096h0.034l-0.022,-0.131l0.087,-0.149l0.09,-0.041l0.049,0.022l0.05,0.147l-0.019,0.059l-0.053,0.019l-0.027,0.04l0.003,0.069l0.037,0.006l0.052,-0.05l0.016,-0.053l0.037,-0.009l0.142,0.14l0.01,0.09l0.021,0.028l0.053,0.016l0.012,0.037l-0.08,0.075l-0.096,-0.009l-0.034,-0.047l-0.047,-0.019l-0.089,0.005l-0.029,0.023l0.029,0.042l-0.034,0.035l-0.193,0.007l-0.081,0.03l-0.015,0.065l0.022,0.052l-0.017,0.025l-0.081,0.007l-0.062,0.045l-0.007,0.042l0.106,0.124l0.024,0.062l0.01,0.341l0.025,0.03l0.044,0.012l0.025,0.027l0.007,0.047l0.124,0.132l0.165,0.109l0.032,0.005l0.027,-0.019l0.027,0.005l0.062,0.057v0.039l-0.138,0.06l-0.109,0.171l-0.118,0.033l-0.242,-0.085l-0.113,-0.007l-0.148,0.057l-0.148,0.161l-0.04,0.085l-0.138,0.002l-0.062,-0.062l-0.029,0.008l-0.003,0.052l-0.042,0.05l-0.116,-0.008l-0.108,-0.06l-0.045,-0.086l-0.046,-0.048l-0.072,-0.02l-0.128,-0.121l-0.064,-0.01l-0.064,-0.05l-0.023,-0.099l-0.153,-0.08l-0.076,-0.002l-0.04,0.042l-0.113,-0.007l-0.074,-0.06l-0.195,-0.025l-0.343,-0.256h-0.084l-0.042,0.1l0.018,0.094l-0.04,0.194l-0.059,0.052l-0.069,-0.008l-0.111,0.035l-0.064,0.052l-0.289,0.048l-0.047,-0.03l-0.002,-0.067l-0.049,-0.047l-0.023,-0.125l-0.061,-0.074l-0.208,-0.067l-0.182,-0.159l-0.131,-0.047l-0.094,0.022v0.04l-0.029,0.012l-0.042,-0.017l-0.027,-0.045l0.012,-0.157l0.047,-0.037l0.027,-0.052l-0.057,-0.129l-0.111,-0.087l-0.113,-0.02l-0.111,-0.092l-0.035,-0.002l-0.039,-0.03v-0.045l-0.03,-0.025l-0.079,-0.02l-0.088,-0.062l-0.015,-0.047l0.024,-0.04l0.013,-0.094l0.042,-0.107l-0.02,-0.057l-0.069,-0.02l-0.064,0.04l-0.04,-0.01l-0.01,-0.047l-0.049,-0.025l-0.025,0.017l-0.009,0.164l-0.225,0.328l-0.111,0.047l-0.044,-0.02l-0.055,0.01l-0.007,0.05l0.04,0.05l-0.005,0.079l-0.047,0.065l-0.018,0.099l0.033,0.1l-0.02,0.084l-0.064,0.07l-0.111,0.032l-0.106,0.102l-0.176,0.092l-0.103,-0.008l-0.082,0.052l-0.042,0.085l-0.219,0.077l-0.104,0.012l-0.116,0.087l-0.037,-0.007l-0.024,-0.067l-0.035,-0.018l-0.042,0.018l-0.076,-0.023l-0.047,-0.044l-0.064,-0.015l-0.069,0.049l-0.052,-0.012l-0.106,-0.144l-0.067,-0.008l-0.081,0.04l-0.109,0.129l0.015,0.043l-0.01,0.064l-0.039,0.005l-0.17,-0.074l-0.151,-0.013l-0.074,0.04l-0.062,0.002l-0.14,-0.052l-0.153,-0.007l-0.126,-0.032l-0.111,-0.085l-0.089,-0.032l-0.185,-0.154l-0.054,-0.003l-0.039,0.033l0.012,0.047l-0.04,0.015l-0.103,-0.043l-0.045,0.003l-0.054,0.072l0.027,0.07l0.082,0.029l0.096,0.09l-0.003,0.067l-0.049,0.057l-0.022,0.092l-0.054,0.055l-0.05,0.005l-0.066,-0.05l-0.101,-0.005l-0.188,0.03l-0.076,0.044l-0.116,0.164l-0.077,0.018l-0.133,-0.052l-0.229,-0.045l-0.082,-0.082l0.008,-0.05l-0.023,-0.057l-0.093,-0.057l-0.151,-0.013l-0.086,0.048l-0.146,0.005l-0.061,0.049l-0.064,0.013l-0.055,-0.018l-0.066,0.003l-0.106,0.094l-0.069,-0.002l-0.067,-0.07l-0.143,-0.067l-0.096,-0.007l-0.109,-0.038l-0.118,-0.096l0.023,-0.054l-0.037,-0.053l0.003,-0.049l0.028,-0.035l0.003,-0.078l-0.031,-0.037l-0.077,0.006l-0.068,-0.034l-0.003,-0.063l0.043,-0.021l0.077,0.034l0.081,-0.006l0.056,-0.025l0.01,-0.055l0.082,-0.035l0.084,0.04h0.143l0.083,-0.067l0.19,-0.037l0.21,0.007l0.084,-0.067l0.034,-0.142l-0.064,-0.062l-0.091,-0.017l-0.039,-0.04l0.002,-0.03l0.054,-0.007l0.055,-0.048l0.148,-0.03l0.217,0.102l0.222,0.024l0.266,-0.03l0.124,-0.168l0.285,-0.179v-0.054l-0.341,-0.198l-0.179,-0.228l-0.043,-0.192l-0.26,-0.27l-0.272,-0.084l-0.384,-0.239l-0.216,-0.078l-0.229,-0.018l-0.149,-0.078l-0.055,-0.174l-0.099,-0.066l-0.025,-0.096l0.074,-0.138l0.012,-0.108l0.056,-0.096l0.08,-0.042l0.18,-0.287l-0.012,-0.09l0.055,-0.288l-0.055,-0.054l-0.093,0.048l-0.075,0.006l-0.086,-0.054l-0.124,0.024l-0.068,0.108l-0.216,0.036l-0.223,-0.132l-0.13,-0.15l-0.006,-0.072l0.13,-0.072l0.049,-0.192l-0.043,-0.072l0.025,-0.066l0.179,-0.036l0.087,-0.114l0.191,-0.06l0.143,-0.143l0.352,-0.294l0.056,-0.144l0.074,-0.078l-0.018,-0.096l-0.217,-0.078l-0.204,-0.006l-0.118,0.042l-0.105,-0.018l-0.037,-0.132l-0.198,-0.096l-0.093,0.012l-0.241,-0.078l-0.185,0.018l-0.081,0.096l-0.136,0.03l-0.062,-0.066l0.037,-0.078l0.019,-0.096l-0.099,-0.06l-0.068,-0.143l-0.013,-0.162l-0.074,-0.054l-0.012,-0.066l0.142,-0.018l0.087,-0.066v-0.084l0.08,-0.054l0.087,0.006l0.055,-0.066l-0.068,-0.198l0.037,-0.054l0.186,0.006l0.248,-0.096l0.086,-0.072l0.347,-0.162l0.037,-0.185l0.13,-0.114l0.297,-0.042l0.117,0.042l0.198,-0.012l0.037,-0.078l-0.012,-0.09l0.018,-0.078l0.056,-0.072l0.006,-0.15l0.062,-0.06l-0.025,-0.132z"/>
</svg>
