<svg xmlns="http://www.w3.org/2000/svg" viewBox="1241.273 134.637 3.269 2.401">
  <path d="M1241.278774,135.312772l-0.006168,-0.180169l0.195831,-0.185799l0.143404,-0.061933l0.471844,-0.033782l0.222044,-0.061933l0.829582,-0.031905l0.14803,-0.120112l0.357738,0.030028l0.172701,0.120112l0.10177,0.187676l0.152655,0.084454l0.231296,0.061933l0.212792,0.174538l0.027756,0.106975l-0.060137,0.420393l-0.456424,0.405379l-0.111022,0.360337l-0.197373,0.225211l-0.209709,0.030028l-0.197373,0.195183l-0.174243,-0.026275l-0.425585,-0.456052l-0.152655,-0.095715l-0.22667,-0.078824l-0.397829,-0.365967l-0.291433,-0.146387l-0.060137,-0.090084l-0.010794,-0.152017l-0.100228,-0.174538l-0.106396,-0.056303l-0.083267,-0.084454Z "/>
</svg>
