<svg xmlns="http://www.w3.org/2000/svg" viewBox="1186.078 45.782 152.294 63.347">
  <path d="M1325.429326,56.030183l1.015776,-0.711419l2.555823,-0.835144l0.557038,-0.371175l4.390772,-0.866075l2.359221,0.309312l0.786407,0.587694l1.114076,0.309312l0.163835,0.463969l-0.786407,0.927937l-4.980577,0.680487l-1.834949,-0.061862l-2.981793,0.958869l-1.966017,0.061862l-0.720873,-0.649556l0.32767,-0.804212Z M1281.750975,108.864606l0.196602,0.264494l0.32767,-0.264494l0.294903,-0.694296l0.720873,-0.363679l0.819174,-0.793482l1.638348,-1.289408l-0.032767,-0.19837l-0.655339,0.165309l-1.802183,1.553901l-0.589805,0.363679l-0.688106,0.661235l-0.229369,0.595111Z M1301.214546,56.339495l-0.043462,0.374182l0.633267,0.491893l1.245144,0.24745l0.851941,-0.4949l-0.065534,-0.556762l-1.50728,-0.433037l-1.114076,0.371175Z M1291.908731,77.125295l2.031551,0.9898l1.638348,-0.123725l0.196602,-0.4949l-1.114076,-0.371175l-2.097085,-1.4847l-0.786407,0.123725l-0.262136,0.618625l0.393203,0.74235Z M1301.083479,75.145695l0.013425,0.299646l0.556356,0.385137l1.199635,-0.004296l2.68689,-0.9898l2.359221,-0.123725l2.228153,0.804212l0.786407,-0.061862l0.655339,-0.433037l1.638348,-0.185587l0.245625,-0.196788l-0.114558,-0.298112h-0.983009l-1.572814,0.309312l-1.572814,-0.123725l-1.114076,-0.618625l-2.752424,-0.123725l-1.048543,0.4949l-1.048543,0.061862l-0.917475,0.680487l-1.245144,0.123725Z M1316.237337,73.298982l-0.081059,0.362013l0.786407,0.061862l1.464629,-0.217114l0.108185,-0.277786l-0.720873,-0.24745l-1.227547,0.096565l-0.329742,0.22191Z M1188.82389,78.789427l0.786407,1.838451l1.08131,0.612817l1.671115,0.102136l2.383796,1.915053l0.073726,0.536215l0.810982,0.714953l1.400787,0.178738l0.147451,-0.485147l-1.64654,-2.27253v-0.561749l-0.196602,-0.204272l-1.228761,-0.102136l-1.840357,-1.26225l-1.378996,-1.316689l-0.143018,-0.322741l-0.053584,-1.311437l-0.983009,-1.532043l-2.162619,-0.919226l-1.277911,0.204272l-0.18841,0.93743l0.445084,0.847825l2.299148,2.402328Z M1250.458533,72.201644l1.08131,0.357477l2.064318,-0.306409l0.737256,-0.434079l-0.04915,-0.383011l-1.08131,-0.485147l-2.383796,-0.076602l-0.712681,0.510681l-0.035384,0.281702l0.379437,0.535387Z M1213.230295,57.738639l0.427248,-0.262922l-0.061835,-0.460114h-0.884708l-0.491504,0.493201l0.320629,0.262699l0.69017,-0.032865Z M1236.87888,53.734358l0.482725,0.249427l0.895328,0.003917l0.804353,0.502705l1.071898,-0.273935l0.357202,-0.547834l-0.132268,-0.460931l-0.999949,-0.554965l-1.249714,-0.081008l-1.091935,0.672582l-0.13764,0.490041Z M1248.811993,67.978348l1.105885,0.233888l0.164927,-0.125168l-0.189496,-0.237355l-1.646546,-0.783528h-0.786407l-0.589805,0.257277l-0.024575,0.631498l0.346214,0.183556l1.619803,-0.160167Z M1248.713692,69.52201l0.442354,0.210499l0.696362,0.00908l0.237496,-0.21958l-0.147451,-0.678276l-0.417779,-0.140333l-0.589805,0.210499l-0.221177,0.608109Z M1252.744028,81.317298l0.737256,0.663885l0.488224,1.466666l-0.393203,1.174566l0.344053,0.153204l0.933858,-0.408545l1.376212,0.153204l4.226937,-0.714953l2.015168,0.153204l0.933858,-0.408545l0.589805,-1.634179l-0.201228,-1.006742l-1.540333,-1.711092l-0.5368,-0.399332l-0.937713,0.092924l-0.688106,0.714953h-1.08131l-0.757522,-0.787078l-0.626199,-0.293509l-0.877199,-0.042911l-0.663531,0.94476l-0.809055,0.448097l-4.272811,0.326435l-0.422983,0.170227l0.024575,0.357477l2.138044,0.587283Z M1266.678334,95.657924l-0.198213,0.227605l0.001612,0.214985l0.557038,0.340454l0.035245,0.149811l-0.330147,0.36087l-0.557038,0.408545l-0.065534,0.44259l0.491504,0.374499l1.376212,-0.544726l0.90185,-0.096147l0.343295,-0.244307l0.491504,-0.714953l1.998784,-0.817089l2.097085,-1.463952l2.036304,-2.064549l1.016019,-0.263762l0.196359,-0.519282l-0.491504,-0.748999l0.196602,-0.919226l0.741352,-0.368195l0.045055,-0.346759l-0.393203,-0.612817l-0.789289,-0.170857l-2.373784,0.590908l-0.834495,-0.011506l-1.376212,-0.714953l-1.802183,-1.70227l-0.065534,-0.578772l0.294903,-0.680908l-0.024424,-0.370874l-0.499848,-0.344079l-2.064318,-0.714953l-1.31796,0.185516l-1.519495,0.584046l-4.239617,-0.123245l-3.672692,0.714819l-2.029348,0.783723l-0.131068,0.476635l2.883492,1.70227l1.572814,0.476635l0.138198,0.54914l-0.236499,0.778631l-1.359525,0.754328l-0.320436,0.419032l-0.361518,1.651479l-0.317742,0.341383l-1.277911,0.408545l-0.737256,1.32777l0.262399,0.617253l1.46733,0.191753l2.114982,-0.651866l3.921057,-0.514616l2.92789,-1.322968l0.491504,-0.034045l0.655339,0.374499l0.082034,0.454585l0.147768,0.111492l0.228936,-0.02135l0.272163,-0.368393l0.334066,-0.148474l1.327022,0.074276l0.287628,0.185552l0.007274,0.222992l-0.557038,0.272363l-1.50728,0.102136l-0.098301,0.204272l0.458737,0.340454l-0.229369,0.646862l-0.622572,0.136182Z M1276.712427,52.048698l0.866096,0.098982l0.600854,-0.169491l0.032767,-0.306305l-0.485147,-0.439791l-0.717622,-0.22271l-0.550262,0.365648l0.005859,0.475703l0.247456,0.197965Z M1188.197414,63.394556l0.306411,0.057721l0.768779,-0.077509l0.904457,-0.400888l0.002224,-0.270712l-0.979675,-0.385046l-0.804232,-0.037118l-0.29597,0.217637l-0.160227,0.565396l0.258232,0.330519Z M1188.381536,61.924299l1.187128,0.088614l0.092518,-0.093278l-0.444089,-0.589982l-0.869674,-0.305485l-0.684637,0.205211l-0.067654,0.397596l0.786407,0.297323Z M1252.664343,47.918889l1.197602,0.458908l0.905774,-0.163121l0.077234,-0.393642l-0.884708,-0.371175l-1.158255,0.033275l-0.137647,0.435755Z M1257.209679,47.821035l1.17961,-0.371175l0.036139,-0.263672l-0.445421,-0.315506l-1.261833,0.022416l-0.688106,0.556762l0.051233,0.36092l1.128377,0.010255Z M1254.648351,47.171478l0.827366,0.003002l0.235633,-0.177946l-0.267051,-0.311405l-1.484054,-0.441589l-0.732369,-0.460893l-0.265577,0.05724l-0.181664,0.310859l0.589805,0.74235l1.277911,0.278381Z M1267.752659,69.29482l1.383039,0.499769l5.180648,0.560765l1.110607,-0.18959l0.786407,-0.835144l4.718442,-1.113525l2.654123,0.092794l3.538831,-1.391906l0.483616,-0.564209l-0.191213,-0.520482l-0.587305,-0.492802l0.196602,-0.649556l2.359221,-0.556762l2.949026,-1.020731l1.08131,-0.927937l2.77739,-0.838644l0.171636,-0.274881l0.196602,-1.299112l-0.138122,-1.098489l0.203519,-0.602568l0.524408,-0.618787l-0.016164,-0.338821l-0.37704,-0.310735l-1.474513,-0.185587l-1.08131,-0.649556l-4.259704,-0.525831l-2.326454,0.216519l-0.131068,-0.185587l0.393203,-0.24745l0.032767,-0.24745l-1.408979,-0.092794l-1.015776,-0.278381h-1.015776l-0.229369,-0.216519l0.262136,-0.309312l-0.32767,-0.123725l-1.802183,0.371175l-1.194539,0.076752l-0.116139,-0.169546l0.42597,-0.433037l0.065534,-0.958869l-0.524271,-0.216519l-0.221632,0.147031l-0.335406,0.749975l-1.261528,0.518098l-0.51608,-0.046397l0.196602,-0.417572l0.589805,-0.347977l-0.098301,-0.487167l-0.225614,-0.16153l-1.91243,-0.163248l-0.461354,0.128236l-0.018545,0.262593l0.258722,0.235529l0.712681,0.255183l-0.007054,0.227044l-0.238698,0.144131l-1.007584,0.231984l-0.738053,-0.44614l-0.630536,-0.035012l-0.871624,0.227581l-0.249549,0.41298l-0.139786,0.791728l-0.540655,1.299112l-0.491504,-0.092794l-0.344053,-0.927937h-0.835557l-0.638956,0.324778l-0.638956,0.046397l-0.294903,0.324778v0.371175h-0.294903l-0.393203,-0.556762l0.245752,-0.974334l1.277911,-0.74235l0.589805,-1.206319l-0.351763,-1.40537l-0.69119,-0.385549l-1.61117,-0.250543l-0.788651,-0.670021l-0.4973,-0.041111l-0.385163,0.247164l0.410392,0.968501l-0.112791,0.457794l-0.357522,0.403948l-0.469811,-0.046683l-0.551577,-0.670034l-1.277911,0.185587l-0.196602,0.927937l0.881011,0.982863l-0.017085,0.557685l-0.569022,1.614439l-0.098301,2.134256l-0.518879,0.061226l-0.569408,-0.261993l-0.87773,-1.191139l-1.376212,-0.278381l-1.17961,0.185587l-0.250758,-0.128236l0.054156,-0.335733l1.376212,-0.649556l0.098301,-0.74235l-0.613774,-0.408121l-1.137438,0.046683l-2.770628,0.825406l-1.358767,0.201626l-0.50895,-0.201626l-0.294903,-1.206319l-0.333586,-0.36602l-0.469811,-0.023342l-0.572815,0.574949l-0.614077,-0.084775l-0.222542,-0.2801l-0.015322,-0.779582l-0.720873,-0.835144l-1.048543,-0.309312l-0.917475,0.185587l-0.524271,-0.402106l-0.065534,-0.4949l-0.393203,-0.185587l-0.655339,0.092794l-0.458737,-0.185587l-0.720873,-0.618625l-0.491504,0.123725l-0.098301,0.371175l0.229369,0.525831h-0.229369l-0.458737,-0.278381l-0.491504,0.185587l-0.032767,1.020731l0.655339,0.216519l1.114076,-0.092794l0.688106,0.216519l0.032767,0.24745l-0.524271,0.216519l-0.084931,0.44095l0.281533,0.456056l-0.163835,0.402106l-0.75364,0.463969l-0.75364,-0.030931l-1.17961,-1.144456l-1.605581,-0.773281l-0.720873,0.309312l0.21125,1.289651l0.575156,0.566224l1.50728,0.927937l0.430982,0.522556l0.027756,0.405381l-0.557038,0.278381l-0.853097,-0.209241l-1.473357,-0.935215l-0.32767,-0.363442l-0.860133,-0.208786l-0.319478,0.185587l-0.196602,0.371175h-0.368628l-0.712681,-0.347977l-1.253336,-0.046397l-0.737256,0.208786l-1.712073,0.015466l-1.310678,0.402106l-0.031169,0.302013l0.915877,0.223818l1.802183,0.278381l0.294903,0.278381l-0.176426,0.199048l-0.577214,0.079333l0.008495,0.200767l0.271996,0.233416l0.833585,0.060717l1.703882,-0.154656l1.900483,0.061862l0.491504,-0.123725l0.065382,0.13246l-0.098149,0.084059l-0.622572,0.278381l-0.458737,0.278381l-0.069712,0.280323l-0.517628,0.197192l-0.961309,-0.073947l-0.369734,0.147894l-1.325546,0.032871l-0.884708,0.514605l0.098301,0.302709l0.524271,0.151355l0.557038,0.787044l1.277911,0.726502l2.621356,0.33298l3.178395,-0.121084l0.534828,0.160714l0.194872,0.426862l0.22271,0.167033l0.292735,-0.028107l0.42597,-0.393522l2.228153,-0.030271l2.064318,-0.454064l5.472082,-0.33298l1.769416,-0.272438l1.343445,-0.030271l0.262136,0.272438l-0.065534,0.363251l0.622572,0.363251h0.786407l0.491504,0.33298l0.035719,0.181893l-0.396155,0.241899l-0.441819,0.11223l-5.235511,-0.028285l-2.603001,0.154157l-0.32145,0.228433l-0.048695,0.297804l1.105885,0.544876l0.958433,0.113516l2.752424,0.703799l0.016951,0.211298l-0.877083,0.197359l-1.69569,-0.476767l-2.949026,-0.181625l-1.07409,-0.637888l-0.834888,-0.201289l-2.317959,0.021862l-0.698725,0.594907l0.173088,0.525396l1.616867,1.003051l0.905278,0.344705l3.115136,0.52876l1.376212,0.295141l0.172027,0.204329l-0.196602,0.317845l0.270327,0.272438l1.13046,0.181625l1.550514,-0.383852h0.6429l2.32433,0.296963l1.091908,-0.008845l2.254418,-0.539956l3.145628,0.090813l0.678852,0.275241l0.205855,0.269635l-0.067396,0.62262l0.257171,0.809244Z M1248.477697,49.89583l0.082872,0.320216l0.554519,0.18465l0.819174,-0.185587l0.065534,-0.371175l-0.42597,-0.371175l-0.836299,0.126125l-0.259829,0.296947Z M1241.316552,62.835058l0.589805,-0.061862v-0.294239l-0.212048,-0.102063l-0.705426,-0.036735l-0.393203,0.123725l0.050035,0.188305l0.670838,0.18287Z M1226.286157,108.653415l0.505768,0.05055l0.14803,-0.189562l-0.357738,-0.35385l-0.592118,-0.1011l-0.135694,0.25275l0.431753,0.341212Z M1241.659392,67.415184l-0.134423,0.769496l-1.396863,0.429895v0.476635h1.245144l0.655339,0.476635l-0.187765,0.540007l0.262136,0.544726l1.114418,0.146584l0.392862,-0.214675l0.589805,-0.953271h0.851941l0.720873,0.476635l1.310678,0.136182l0.607221,0.315456l0.125826,0.27821l-0.257926,0.546854l0.245752,0.459613l0.663531,-0.12767l0.245752,0.153204l-0.196602,0.459613l0.147451,0.331943l0.778215,0.238318l0.851941,-0.204272l1.638348,0.612817l0.458737,0.88518l0.655339,0.272363l1.310678,-0.408545l1.50728,0.272363l0.524271,0.544726l2.080702,0.161716l0.688106,0.204272v0.357477l-0.933858,1.07243l-0.073726,0.587283l0.221177,0.280874l-0.196602,0.280874l-0.442354,-0.153204l-0.712681,0.025534l-0.393203,0.25534l-0.368628,0.059579l-0.638956,-0.340454l-0.122876,-0.408545l-1.08131,-0.12767l-0.589805,0.25534l-0.368628,0.025534l-0.221177,-0.280874l-0.810982,-0.204272l-1.572814,0.229806l-0.220888,0.342457l0.122587,0.346963l-0.098301,0.12767l-0.56523,0.051068l-0.61438,0.331943l0.024575,0.357477l-0.294903,0.153204l-0.491504,-0.229806l-1.449938,0.051068l-0.638956,0.383011l-1.720265,0.178738l-0.589805,-0.153204l-0.688106,-0.076602l-0.270327,0.178738l0.04915,0.459613l-0.147451,0.204272l-0.589805,-0.102136l-1.376212,0.306409l-0.073726,0.204272l0.56523,0.12767l0.638956,0.357477l0.761832,1.838451l-0.024575,0.229806l-0.540655,0.178738h-0.393203l-0.368628,-0.331943l-0.884708,-0.102136l0.024575,0.204272l1.302486,0.791555l0.909283,0.919226l-0.172027,0.357477l-0.712681,0.178738l-0.368628,-0.153204l-0.688106,-0.102136l-0.098301,0.178738l1.032159,0.408545l0.737256,0.740487l0.024575,0.434079l-0.61438,0.587283l-0.884708,0.204272h-0.56523l-0.540655,-0.280874l-0.712681,-0.051068l-0.958433,0.25534l-0.098301,0.331943l0.51608,0.587283l-0.098301,0.357477l-0.712681,0.536215h-0.737256l-0.638956,0.102136l-0.04915,0.25534l0.417779,0.204272l0.466929,-0.178738l0.491504,-0.025534l0.393203,0.229806l-0.122876,0.204272l-0.294903,-0.076602l-0.270327,0.102136l0.122876,0.229806l0.737256,0.153204l0.221177,0.459613l-0.221177,0.970294l-0.491504,0.306409l-0.51608,-0.25534l-0.344053,0.051068l-0.024575,0.280874l0.540655,0.280874l-0.024575,0.229806l-0.393203,0.076602l0.122876,0.204272h0.56523l0.172027,0.178738l-0.393203,0.459613l-0.122876,1.07243l-0.540655,0.331943l-1.425363,-0.102136l-0.638956,-0.331943v-0.280874l-0.368628,-0.153204l-0.344053,0.051068l-0.835557,-0.408545l-0.599588,-0.221501l-0.186819,0.068297l0.04915,0.510681l0.466929,0.383011l0.450225,0.70834l-0.037118,0.24127l-0.781735,0.659036l-1.17961,0.306409l0.04915,0.280874l0.909283,-0.025534l0.270327,0.229806l-0.028342,0.201178l-0.556776,0.593894l-1.094993,0.408302l-0.11388,0.14993l0.098301,0.25534l0.510491,-0.003154l0.247456,0.098982l-0.02069,0.159512l-0.393203,0.12767l-0.122876,0.229806l0.393203,0.102136l-0.073726,0.25534l-0.491504,0.204272l-0.098301,0.204272l0.368628,0.25534l-0.270327,0.766021l-0.491504,0.280874l-0.319478,-0.178738l-1.277911,-0.051068l-0.245752,0.178738l0.122876,0.204272l1.253336,0.102136l0.737256,0.663885l-0.073726,0.485147l-0.466929,0.178738l-0.589805,0.638351l-0.61438,0.357477l-1.425363,0.280874l-0.098301,0.459613l0.368628,0.408545l0.810982,-0.025534l0.638956,0.076602l0.589805,0.485147l-0.024575,0.485147l-1.228761,1.149032l-1.523663,0.485147l-0.542861,0.038641l-0.538448,-0.115243l-0.309089,-0.410601l-0.389743,-0.018559l-0.70525,0.519658l-0.389909,0.062706l-0.196602,-0.280874l0.294903,-0.995828l0.221177,-0.280874h0.663531l0.359606,-0.125967l0.033597,-0.10384l-0.245752,-0.153204l-2.088893,-0.204272l-1.751095,-0.813266l-1.548239,-1.046896l-0.783983,-0.177827l-0.1253,-0.154116l0.122876,-0.408545l0.856147,-0.352927l2.115749,-0.53203l0.49321,-0.008734l0.933858,0.280874l0.589805,0.536215l0.260208,0.019426l0.083845,-0.121562l-0.344053,-0.459613l0.024575,-0.25534l0.321756,-0.164485l1.054456,0.138951l0.368628,0.306409l0.270327,-0.051068l0.100645,-0.270563l0.109839,-0.098291l0.305595,-0.03969l0.042359,-0.072356l-0.197965,-0.111355l-0.458774,-0.046095l-0.024575,-0.25534l0.491504,-0.204272l0.147451,-0.178738l-0.056624,-0.119786l-0.434881,-0.033418l-0.491504,0.12767l-0.344053,-0.051068l-0.344053,-0.434079l-0.491504,0.051068l-0.294903,0.612817l-0.761832,0.357477l-0.747075,-0.086064l-0.186783,-0.143743l0.001191,-0.48727l-0.185592,-0.315506l-0.303134,-0.197965l-0.151421,0.004914l-0.172027,0.153204l0.098301,0.434079l-0.139851,0.134705l-0.155052,-0.032569l-0.344053,-0.383011l-0.311314,-0.156662l-0.106465,0.028992l-0.024575,0.25534l0.638956,0.536215l-0.050122,0.286818l-0.160846,0.123728l-2.221978,0.100135l-2.064318,-0.306409l-0.852879,-1.314924l-0.04189,-0.304673l0.199814,-0.376635l-0.023546,-0.129766l-0.433048,-0.235083l-0.235083,-0.012373l-0.816605,0.30932l-0.261133,-0.034234l-0.827673,-0.485424h-0.321693l-1.111554,0.230083l-0.983009,-0.357477l-1.376212,-1.787383l-1.327062,-1.07243l0.147451,-0.459613l0.638956,-0.051068l0.048893,-0.260347l-0.245495,-0.148198l-0.733839,-0.121108l-0.200019,-0.287437l0.344053,-0.612817l2.183589,-0.51264l1.032848,0.114717l0.715597,0.448992l0.638956,0.868158l0.474286,0.206809l0.361272,-0.155741l-0.04915,-0.612817l0.344053,-0.306409l1.228761,-0.153204l0.688106,0.204272l3.784583,0.102136l1.17961,0.357477l0.638956,0.051068l0.393203,-0.306409l-0.029246,-0.21957l-0.413108,-0.240043l-4.620141,-0.612817l-2.26092,-0.204272l-0.905711,-0.183531l-0.028147,-0.276082l0.786407,-0.408545l4.971043,-0.86358l3.243929,-0.204272l1.523663,-0.408545l3.047327,-0.102136l2.097085,0.638785l0.335122,-0.043525l0.14533,-0.187633l-0.352625,-0.315506l-1.893038,-0.556776l-0.233573,-0.148162v-0.459613l0.382047,-0.338745l-0.018559,-0.259829l-0.207877,-0.105832l-0.439848,0.152336l-0.335122,0.674633l-0.460793,0.195861l-1.967174,0.09012l-2.31007,0.306409h-1.720265l-2.064318,-0.561749l-0.786407,0.204272l-1.032159,0.766021l-4.095181,0.815319l-0.764117,-0.049298l-1.281745,-0.369734l-0.641717,0.063326l-1.17961,0.612817l-1.425363,-0.051068l-0.04915,-0.510681l0.491504,-0.306409l-0.098301,-0.459613l-0.737256,-0.561749l-0.491504,-2.4002l0.245752,-0.612817l1.621964,-0.510681l1.032159,0.306409l1.415806,1.486806l0.40276,0.096304l0.091778,-0.353221l-0.239229,-0.4128l-0.688106,-0.766021l0.245752,-0.408545l1.671115,0.153204l1.966017,-0.306409l0.835557,0.153204l0.540655,-0.102136l0.245752,-0.561749l2.015168,-1.276702l1.13046,-0.204272l1.084586,0.508678l0.40843,-0.065287l0.178098,-0.239119l-0.884708,-0.408545l-0.147451,-0.510681l1.08131,-0.663885l2.457522,-0.306409l2.752424,0.510681l2.408371,-0.102136l1.867716,-0.919226l1.717535,-0.263537l0.150182,-0.196076l-0.491504,-0.306409h-1.13046l-2.604973,0.919226l-2.457522,-0.561749l-0.589805,-0.459613l0.175819,-0.525812l1.010046,-0.933451l1.13046,-0.919226l1.425363,-0.25534l-0.098301,-0.408545l-1.572814,-0.153204l-0.491504,-0.357477l-0.638956,0.051068l-0.933858,1.634179l-2.604973,1.685247l-3.194778,0.357477l-1.245144,-0.612817l-0.294903,-0.987316l0.163835,-0.714953l0.884708,-0.374499l0.393203,-1.497997l-0.294903,-1.293725l-0.786407,-0.136182l-0.720873,1.021362l-0.032767,1.123498l-0.393203,0.476635l-1.212377,0.88518l-0.465976,-0.112461l-0.418732,-0.432265l0.131068,-0.578772l-0.098301,-0.680908l-0.571388,-0.14842l-0.368956,0.011648l-0.611991,0.443181l-0.519265,-0.038537l-0.890169,-0.597331l-0.222542,0.096344l0.005916,0.267162l1.069215,0.8344l0.265364,0.584692l0.14803,0.865153l-0.074015,0.192256l-1.736263,0.008812l-0.151113,0.221896l0.581783,0.18275l0.167152,0.165046l-0.101305,0.132844l-0.662812,0.015049l-0.158623,0.216041l0.081287,0.191874l1.947514,0.032043l0.983009,0.680908l-0.065534,0.612817l-1.834949,0.068091l-1.114076,-0.476635l-0.545088,0.005607l-0.14803,0.269159l0.980696,1.076635l-0.074015,0.326836l-0.888177,0.326836l-0.203541,0.384513l-0.370074,-0.076903l-0.721644,-0.845928l-1.017703,-0.653672h-0.647629l-0.074015,0.288384l0.573614,0.480641l0.972986,0.222296l0.229369,0.272363l-0.110637,0.524299l-0.333066,-0.019226l-0.777155,-0.44219l-0.19617,-0.013262l-0.081386,0.10939l0.67528,0.546368l-0.046154,0.280334l-1.924384,0.134579l-2.183436,-0.384513l-0.555111,-0.019226l-0.425585,0.326836l-0.4996,0.038451l-0.390891,-0.43498v-0.817089l-0.319478,-0.995828l-0.270327,-0.178738l-0.884708,-0.051068l-0.75364,-0.340454l-1.359829,-1.319259l0.196602,-0.25534l0.688106,-0.153204l1.916867,0.161716l2.621356,-0.408545l0.796116,-0.412012l0.055825,-0.336986l-0.655339,-0.204272l-1.834949,0.680908h-2.817958l-0.78101,-0.068091l-0.037007,-0.249933l0.518103,-0.326836v-0.230708l-1.036207,0.134579l-1.678439,-0.212283l-1.356166,-0.748999l-0.074015,-0.422964l0.4996,-0.30761l-0.314563,-0.290788l-0.573614,0.136983l-0.85117,-0.173031l-0.213563,-0.64486l0.851941,-0.817089l1.165167,-0.035215l0.058587,-0.173313l-0.568416,-0.268107l-1.310678,-0.204272l-1.769416,-0.953271l-0.32767,-0.544726l0.106769,-0.207142l0.679638,-0.133312l2.555823,0.476635l1.288731,0.461682l2.119032,0.389453l1.155503,0.39019l0.228127,-0.034956l0.22271,-0.380464l-0.120635,-0.306227l-0.204151,-0.083516l-0.510378,-0.064957l-0.176312,-0.269108v-0.23199l0.23199,-0.185592l0.614892,-0.024969l0.196602,-0.170227l-0.013448,-0.13887l-0.723809,-0.148474l-0.573422,0.083071l-0.345259,-0.018114l-0.965419,-0.424477l-0.296606,-0.039503l-1.14514,0.107594l-0.395274,-0.024078l-1.308608,-0.690875v-0.340454l0.881746,-0.61116l0.23233,-0.627138l1.135664,-0.911084l0.10948,-0.666627l-0.331524,-0.129534l-1.221244,0.208518l-0.116485,0.220453l0.185592,0.39593l-0.0321,0.198735l-0.333066,0.208518l-0.510394,-0.162708l-0.163755,-0.256919l-0.09838,-0.951541l0.1249,-0.221156l0.418901,-0.175939l0.043691,-0.18423l-0.21691,-0.100345l-1.226378,-0.240867l-0.542933,0.104766l-0.185592,0.210338l0.025384,0.158802l0.379326,0.180084l0.547995,0.477719l0.321693,0.61864l0.111355,1.051688l-0.194637,0.604555l-1.101066,0.790534l-1.193874,0.032186l-0.912944,-0.598297l-0.185592,-0.346438l-0.014288,-1.086444l-0.395227,-0.704638l-1.24312,-0.906641l-0.131068,-0.697433l0.589805,-0.798456l0.06963,-0.423564l-0.370904,-0.301269l-1.074938,-0.339775l-0.458737,-0.465766l0.098301,-0.399228l0.319886,-0.112676l1.941034,0.378828l1.540047,0.033269l0.032767,-0.166345l-1.376212,-0.232883l-1.310678,-0.465766l0.032767,-0.266152l0.819174,-0.113984h1.212377l1.93325,0.39643l0.655339,-0.033036l0.065534,-0.231251l-1.900483,-0.594646l-0.61358,-0.616063l-0.04176,-0.507157l0.32767,-0.726789l0.307984,-0.102316l0.740558,0.168388l0.589805,0.462502l0.524271,-0.132143l-0.160801,-0.643129l0.243745,-0.455831l0.703463,-0.354618l1.114076,0.198215l0.933858,1.420542l0.393203,1.486614l0.294903,0.148661l0.196602,-0.644199l0.393203,-0.148661l0.294903,0.39643l0.04915,0.545092l0.32767,-0.033036l0.276722,-0.620095l-0.08012,-0.437053l-0.917475,-1.090184l-0.147451,-0.792861l0.540655,-0.363395l1.048543,0.066072l1.245144,1.12322l1.900483,-0.132143l1.376212,-0.726789l4.425255,-0.925175l0.948526,0.330529l0.32767,1.057148l-0.32767,0.925004l-1.310678,0.594646h-2.555823l-1.572814,0.198215l-2.183564,1.25471l-0.723809,0.129914l-0.723809,-0.037118l-0.668131,0.46398l-0.048908,0.504209l0.296723,0.225952l0.840336,-0.137697l1.029611,-0.646463l2.771356,-0.551221l1.769416,0.199614l0.209913,0.457911l-0.166907,0.470734l-0.960481,0.26904l-0.263501,0.371157l0.166907,0.414245l0.554308,0.167083l0.315506,-0.074237l0.275322,-0.345945l0.720873,-0.066538l1.834949,1.264223l0.32767,0.931533l-0.022309,0.759338l0.546581,0.238732l0.786407,-0.565573l0.131068,-0.765187l-1.50728,-2.395369l0.06121,-0.673236l0.407994,-0.508392l0.972541,-0.348747l1.121944,-0.75504l0.342678,-0.793664l0.641338,-0.912673l0.733203,-0.247664l1.289474,0.050596l0.912885,0.370079l0.266726,0.290638l0.611743,0.946642l0.408689,0.356878l0.880051,0.494594l0.208369,0.200216l0.184835,0.997468l0.223468,0.351167l0.593894,0.519658l0.491122,1.14363l0.067728,0.913219l0.407002,0.474162l0.62444,0.131461l0.837337,0.890606l0.097239,0.615264l-0.574064,0.641567l-0.067168,0.389726l0.248028,0.714259h0.262136l0.065534,-0.60423l0.561741,-0.312683l0.474309,0.114462l0.733365,0.601041l0.851941,1.745552l1.245144,1.275596l1.114076,0.335683l0.065534,-0.671366l-1.966017,-2.954012l-0.524271,-1.477006l-0.851941,-0.872776l-0.32767,-0.671366l-0.139772,-1.002333l-0.063288,-0.903028l-0.714415,-2.652475l-0.663639,-0.864814l-0.31937,-0.878068l-0.151678,-0.859511l0.137343,-0.375508l0.362055,-0.460999l0.538217,-0.055678l1.538818,0.309949l0.416868,-0.201266l0.018545,-0.315268l-0.894151,-0.466474l0.065534,-0.851941l1.376212,-1.310678l1.114076,-0.131068l1.50728,0.458737l0.379919,0.332523l0.406488,1.436893l0.755119,0.884366l0.50072,0.092726l0.251441,-0.190685l-0.131068,-0.917475l0.655339,-0.458737l2.359221,0.524271l2.430375,1.045401l1.596684,1.116254l0.460114,0.69017l-0.175124,0.582065l-1.221276,1.050749l-0.469416,1.078287l0.393203,1.663451l-0.470302,0.608432l-0.471266,0.35089l0.071272,0.198779l0.280491,0.039584l1.17961,-0.465766l0.786407,-0.864994l0.541451,-2.104381l0.445084,-0.527222l0.979482,-0.096457l2.359221,1.131147l1.17961,1.729989l0.080704,0.963779Z M1258.683038,52.875196l0.393203,-0.340244l-0.229369,-0.216519l-0.851941,0.216519l-0.324245,0.317978l-0.003424,0.11506l0.342991,0.081051l0.672784,-0.173845Z M1251.376007,50.338833l0.065534,-0.309312l-0.393203,-0.216519l-0.32767,0.185587l0.163835,0.371175l0.491504,-0.030931Z M1196.446978,73.642327l1.027388,0.112284l0.355273,-0.167962l0.037931,-0.134153l-0.442354,-0.251762l-0.933858,0.050352l-0.165014,0.214928l0.120635,0.176312Z M1191.871217,60.338577l0.32767,-0.099108l0.019688,-0.148452l-0.183522,-0.281015l-0.360437,-0.099108l-0.192223,0.28114l0.074237,0.22271l0.314588,0.123831Z M1193.01806,60.206434l0.098301,-0.330359l-0.196602,-0.231251l-0.294903,0.165179l0.065534,0.363395l0.32767,0.033036Z M1192.23404,61.133426l0.226982,-0.06806l0.029754,-0.145371l-0.128054,-0.118916l-0.42597,-0.099108l-0.274953,0.15616l0.034025,0.126821l0.538217,0.148474Z M1247.263754,63.322225l0.51608,0.046397l0.466929,-0.046397l-0.028895,-0.175125l-0.806662,-0.126454l-0.270327,0.139191l0.122876,0.162389Z M1246.460964,66.886869l0.557038,-0.093555l-0.065534,-0.218296l-0.688106,-0.06237l-0.201746,0.157096l0.002384,0.163843l0.395964,0.053283Z M1260.165743,73.197471l0.61438,-0.051068l0.589805,-0.076602l-0.196602,-0.25534l-1.155035,-0.025534l-0.294903,0.178738l0.442354,0.229806Z M1255.717629,72.405916l0.933858,-0.076602l0.393203,-0.178738l-0.04915,-0.204272l-1.523663,0.178738l-0.04915,0.229806l0.294903,0.051068Z M1245.887542,69.188627l0.417779,-0.12767l-0.147451,-0.204272l-1.032159,0.076602l-0.147451,0.280874l0.909283,-0.025534Z M1256.749788,69.214628h0.344053l-0.004675,-0.110025l-0.290227,-0.121959l-0.51608,-0.139191l-0.084535,0.149795l0.551464,0.22138Z M1270.069714,98.007056l0.737256,-0.25534v-0.25534l-0.358313,-0.088423l-0.821298,0.19056l-0.238791,0.285539l0.123728,0.154266l0.557417,-0.031261Z M1276.090483,50.63268l0.688106,0.069595l0.057565,-0.237296l-0.696521,-0.249871l-0.540655,0.069595l-0.021613,0.184687l0.513118,0.16329Z M1306.465451,76.429342l0.417779,-0.069595l-0.024575,-0.255183l-0.466929,-0.023198l-0.122876,0.162389l0.196602,0.185587Z M1289.418442,55.318764l0.32767,-0.123725l-0.196602,-0.185587l-0.360437,0.030931l-0.098301,0.216519l0.32767,0.061862Z M1288.894171,51.112114l0.294903,-0.030931v-0.24745l-0.42597,-0.154656l-0.229369,0.216519l0.360437,0.216519Z M1290.041015,51.204908l0.262136,-0.185587l-0.098301,-0.216519l-0.294903,0.030931l-0.163835,0.24745l0.294903,0.123725Z M1265.564258,96.406922l0.39086,0.03088l0.037118,-0.17355l-0.259829,-0.17355l-0.523182,-0.105465l-0.158162,0.085884l-0.011076,0.165574l0.524271,0.170227Z M1257.452639,78.319601l0.321935,-0.12001l-0.093386,-0.268107l-0.415321,-0.010214l-0.144994,0.074049l-0.027033,0.196612l0.358798,0.12767Z M1236.729178,58.751412l0.019104,0.15491l0.144731,0.026715l0.688106,-0.302709l0.56523,-0.030271l0.196602,-0.113516l-0.007857,-0.109157l-0.229703,-0.080037l-0.851941,0.121084l-0.524271,0.33298Z "/>
</svg>
