<svg xmlns="http://www.w3.org/2000/svg" viewBox="1228.412 393.863 37.576 15.893">
  <path d="M1241.54946,394.676767l0.068,-0.019l0.118,-0.006l0.061,0.04l0.133,0.009l0.195,-0.043l0.115,0.031l0.157,0.089l0.022,0.065l-0.052,0.152l0.018,0.216l0.081,0.075l0.043,0.16l-0.093,0.143l0.031,0.111l0.278,0.05l0.161,-0.056l0.081,-0.124l0.191,-0.025l0.149,0.099l0.136,0.013l0.087,-0.043l0.284,-0.025l0.074,-0.062l-0.049,-0.149l0.111,-0.136l0.099,-0.006l0.062,-0.08l-0.037,-0.118l0.087,-0.303l0.198,-0.167l0.247,-0.031l0.105,0.025l0.192,-0.025l0.105,-0.105l0.031,-0.124l0.074,-0.068l0.075,-0.012l0.099,-0.081l0.061,-0.111l0.13,-0.062l0.075,-0.111l0.117,0.006l0.056,0.068l-0.019,0.087l0.149,0.111h0.099l0.123,0.093l0.025,0.334l0.118,0.216l0.024,0.13l0.149,0.254l0.204,0.093l0.186,-0.056l0.038,0.033l-0.009,0.083l0.028,0.088l-0.084,0.172l0.042,0.042h0.107l0.292,0.088l0.079,0.074l0.07,0.014l0.162,-0.158l0.158,-0.056l0.102,0.052l0.028,0.218l0.069,0.13v0.111l-0.042,0.069l-0.009,0.079l0.065,0.079l-0.009,0.084l-0.065,0.125l0.014,0.06l0.116,0.028l0.051,0.088l-0.014,0.047l-0.093,0.014l-0.079,0.088l-0.018,0.093l-0.061,0.088l-0.078,0.06l-0.033,0.135v0.102l0.153,0.079l0.121,-0.038l0.144,0.014l0.088,0.061h0.167l0.241,-0.172l-0.005,-0.107l0.042,-0.046l0.139,-0.023l0.265,0.041l0.069,-0.009l0.168,0.093l0.009,0.065l0.107,0.102l0.148,0.056l0.093,0.065l0.106,0.014l0.061,-0.042l0.018,-0.139l0.065,-0.093l0.019,-0.088l-0.014,-0.116l0.028,-0.107l0.125,-0.139l0.093,-0.32l0.065,-0.089l0.051,0.01l0.037,0.093h0.042l0.051,-0.065l-0.028,-0.084l0.042,-0.042l0.06,-0.009l0.093,-0.116l0.148,-0.065l0.2,-0.005l0.06,0.047h0.065l0.023,-0.047l0.116,-0.004l0.079,0.06l0.088,0.009l0.037,-0.097l-0.014,-0.2l0.065,-0.078l-0.009,-0.042h-0.065l-0.028,-0.047l0.07,-0.046h0.148l0.075,0.046l0.046,-0.018l0.009,-0.06l0.056,0.004l0.028,0.098l0.065,0.027l0.102,-0.037l0.056,-0.065l0.069,0.01l0.014,0.055l0.037,-0.004l0.023,-0.07l-0.06,-0.056v-0.06l0.06,0.009l0.033,0.042l0.037,0.005l0.046,-0.037l0.121,0.023l0.2,0.088l0.078,0.093l0.246,0.093l0.13,0.018l0.167,-0.093l0.093,-0.222h0.056l0.12,0.097l0.075,0.028l0.106,-0.028l0.121,-0.125l0.107,-0.009l0.26,0.051l0.064,0.102l-0.004,0.079l0.069,0.148l0.112,0.009l0.042,0.037l-0.019,0.061l0.042,0.037l0.079,-0.023l0.041,0.041l-0.051,0.084l0.047,0.028l0.042,-0.01l0.069,0.065l0.093,0.019l0.125,-0.102l0.102,0.023l0.074,0.093l-0.023,0.102l0.042,0.019l0.079,-0.033l0.042,0.042l0.004,0.056l0.098,0.097l0.065,0.014l0.25,-0.079l0.088,0.005l0.079,-0.047l-0.041,-0.069l0.013,-0.079l0.075,-0.019l0.055,-0.051l0.014,-0.074l0.167,-0.135l0.126,-0.027h0.241l0.051,-0.07l-0.019,-0.065l-0.176,-0.111l-0.144,-0.14l0.023,-0.078l0.232,-0.07l0.112,0.032l0.074,-0.004l0.065,-0.061l0.144,0.033l0.055,0.079l0.163,0.12l0.172,0.014l0.106,-0.102l0.01,-0.092l0.051,-0.084l0.097,-0.009l0.107,-0.079l0.037,-0.084l0.065,-0.032l0.171,0.079l0.228,0.009l0.167,0.084l0.023,0.051l0.051,0.023l0.102,-0.01l0.065,0.019l0.19,0.144l0.26,-0.009l0.06,-0.028l0.042,-0.093l0.07,-0.005l0.097,0.088l0.047,-0.013l0.028,-0.07l0.06,-0.051l0.116,0.005l0.069,-0.047h0.047l0.065,0.047l0.125,-0.014l0.153,-0.093l0.084,0.028l0.157,0.199l0.135,0.065l0.13,-0.037l0.144,0.046l0.065,0.098l0.199,0.134l0.037,0.047v0.093l0.079,0.092l0.061,-0.004l0.009,-0.102l0.093,-0.102l0.148,-0.089l0.098,0.014l0.064,0.065l-0.004,0.07l0.074,0.037l0.111,-0.019l0.075,0.047l0.032,0.083l0.074,0.047l0.051,-0.014l0.075,0.014l0.037,0.042l0.06,0.018l0.074,-0.042l0.065,0.024l0.121,0.167l0.005,0.106l0.078,0.093l0.246,0.19l0.033,0.056l-0.023,0.056l0.009,0.06l0.06,0.042v0.093l-0.051,0.037l-0.018,0.106l0.037,0.061l0.482,0.162l0.172,0.005l0.07,0.032l0.041,0.074l0.139,0.056l0.07,0.051l0.074,0.019l0.093,-0.061l0.098,-0.004l0.065,0.06l-0.01,0.079l-0.06,0.065l0.032,0.046l0.126,0.01l0.292,0.088l0.074,0.046h0.112l0.083,-0.065l0.195,0.014l0.158,0.139l0.148,0.204l0.121,0.038l0.093,-0.038l0.12,0.01l0.153,0.111l0.116,0.019l0.075,-0.051l0.185,-0.01l0.079,0.056l0.074,0.005l-0.004,0.046l-0.079,0.023l-0.005,0.399l-0.079,0.088l0.023,0.126l-0.125,0.079l-0.153,-0.01l-0.153,0.079l-0.028,0.102l-0.309,0.398l0.025,0.13l-0.062,0.241l-0.13,0.049l-0.099,0.13l-0.044,0.248l0.038,0.291l-0.075,0.16l-0.185,0.143l-0.025,0.123l0.118,0.093v0.136l-0.143,0.334l-0.241,0.075l-0.309,0.222l-0.025,0.093l-0.384,0.241l-0.198,0.341l-0.018,0.389l-0.142,0.873l0.037,0.099l0.074,0.031l-0.025,0.061l-0.13,0.044l-0.024,0.099l-0.186,0.037l-0.124,-0.05l-0.173,0.007l-0.124,-0.081l-0.111,0.006l-0.142,0.081h-0.279l-0.154,0.099l-0.403,0.068l-0.08,-0.031l-0.111,0.025l-0.044,0.204l-0.061,0.018l-0.056,-0.043l-0.136,-0.019l-0.186,0.007l-0.254,-0.068l-0.098,-0.075l-0.013,-0.099l-0.161,-0.167l-0.086,-0.006l-0.062,-0.056l0.037,-0.123l-0.13,-0.248l-0.118,-0.068l-0.061,-0.173l0.024,-0.08l-0.086,-0.26l-0.105,-0.025l-0.112,0.049l-0.229,-0.037l-0.123,-0.105l-0.044,-0.192l-0.328,-0.228l-0.167,-0.087h-0.099l-0.037,0.155l-0.074,0.055l-0.501,-0.012l-0.105,0.068l-0.044,0.173l-0.098,0.068l-0.186,-0.025l-0.136,-0.08l-0.099,-0.012l-0.248,0.111l-0.185,0.019l-0.136,0.08l-0.031,0.111l-0.081,0.044h-0.123l-0.099,-0.068l-0.019,-0.099l-0.216,-0.099l-0.279,-0.05l-0.254,0.093l-0.129,-0.019l-0.031,-0.074l-0.106,-0.068l-0.043,-0.111l-0.105,-0.056l-0.198,0.068l-0.136,-0.031l-0.105,-0.105l-0.006,-0.08l-0.093,-0.044l-0.285,0.075l-0.408,0.03l-0.303,0.081l-0.074,-0.025l-0.124,0.031l-0.124,0.087l-0.303,0.086l-0.21,-0.037l-0.068,0.025l-0.019,0.08l-0.087,0.013l-0.055,-0.068h-0.056l-0.049,0.062l0.043,0.228l-0.13,0.223l-0.124,0.111l0.019,0.056l-0.037,0.056l-0.118,0.025l-0.185,0.198l-0.056,0.099l0.049,0.08l-0.037,0.093l-0.062,0.037l-0.024,0.062l0.055,0.074l-0.037,0.093l-0.142,0.068l-0.081,0.136l0.007,0.105l-0.235,0.235l-0.05,0.13l-0.13,0.111l-0.136,0.019l-0.136,-0.087l-0.13,-0.043l-0.105,0.037l-0.043,0.105l-0.26,0.118l-0.272,-0.056l-0.069,0.037l0.025,0.093l-0.049,0.142l-0.39,0.26l0.012,0.081l-0.142,0.086l-0.155,-0.037l-0.414,0.142l-0.167,0.211l-0.204,0.08l-0.044,-0.049l0.068,-0.093v-0.08l-0.216,-0.174l-0.149,-0.006l-0.049,0.087h-0.074l-0.044,-0.05l-0.117,0.025l-0.025,0.087l-0.08,-0.013l-0.044,-0.099l0.075,-0.105l-0.007,-0.087l-0.241,-0.173l-0.148,-0.025l-0.136,0.099l-0.161,-0.018l-0.112,-0.105l-0.03,-0.155l-0.05,-0.043l-0.074,0.037l-0.056,-0.012l-0.068,-0.075h-0.099l-0.13,0.149l-0.284,0.173h-0.118l-0.056,0.043v0.099l-0.037,0.056l-0.062,0.018l-0.043,0.081l0.025,0.08l-0.031,0.112l-0.056,0.08l-0.08,0.291l-0.112,0.13h-0.08l-0.037,-0.068l-0.093,-0.019l-0.102,0.102l-0.167,0.028l-0.111,-0.037l-0.52,0.019l-0.241,0.12l-0.093,0.13l-0.111,0.009l-0.112,-0.055l-0.352,-0.01l-0.177,-0.065h-0.287l-0.14,0.084l-0.13,0.009l-0.167,-0.111l-0.12,0.009l-0.121,0.121l-0.417,0.028l-0.288,0.065l-0.223,-0.028l-0.13,0.093l-0.092,0.389l-0.112,0.065l-0.195,0.01l-0.055,0.092l0.111,0.13l0.009,0.195l-0.083,0.102l-0.01,0.269l0.075,0.149l0.278,0.176l0.074,0.121l0.112,0.028l0.083,0.046l-0.065,0.093l-0.38,-0.065l-0.242,0.046l-0.12,0.074l-0.019,0.13l-0.148,0.14l-0.353,0.139l-0.325,0.018l-0.12,-0.046l-0.232,-0.009l-0.121,0.074l-0.176,-0.009l-0.065,-0.065l-0.142,-0.007l-0.155,0.081l-0.223,0.025l-0.544,0.16l-0.223,0.007l-0.216,-0.081l-0.508,0.006l-0.507,-0.111l-0.408,-0.006l-0.173,0.049l-0.099,-0.006l-0.093,-0.043l-0.105,0.006l-0.198,0.087l-0.477,-0.007l-0.161,0.044l-0.297,-0.013l-0.253,-0.074l-0.254,-0.049l-0.093,-0.037l-0.092,-0.124l-0.347,-0.217l-0.148,-0.148l-0.155,-0.019l-0.068,0.05l-0.087,-0.006l-0.105,-0.137l-0.043,-0.16l-0.149,-0.124l-0.173,-0.025l-0.309,-0.185l-0.099,-0.248l-0.39,-0.328l-0.204,-0.229l-0.161,-0.068l-0.315,-0.012l-0.149,-0.081l-0.012,-0.086l-0.062,-0.037l-0.111,0.031h-0.205l-0.426,-0.022l-0.071,-0.095l-0.102,-0.061l-0.138,-0.033l-0.083,0.058l-0.053,0.003l-0.077,-0.052l-0.011,-0.042l0.085,-0.088l-0.002,-0.048l-0.067,-0.03l-0.008,-0.046l0.063,-0.027l0.006,-0.036l-0.05,-0.055l0.003,-0.1l0.1,-0.063l0.002,-0.051l-0.08,-0.049l-0.066,-0.112l-0.009,-0.063l-0.044,-0.106l-0.058,-0.018l-0.063,0.015l-0.07,-0.021l-0.077,-0.085l-0.218,-0.16l-0.011,-0.154l-0.083,-0.239l-0.092,-0.139l0.017,-0.127l0.039,-0.07l-0.006,-0.045l-0.063,-0.039h-0.078l-0.061,-0.025l-0.135,-0.26l-0.003,-0.06l0.055,-0.079l-0.011,-0.039l-0.185,-0.073l-0.014,-0.048l0.022,-0.018v-0.03l-0.124,0.003l-0.066,-0.034l-0.003,-0.157l-0.05,-0.072l0.011,-0.037l0.072,-0.006l0.047,-0.106l-0.025,-0.072l0.006,-0.055l0.044,-0.048l0.005,-0.051l-0.052,-0.082l0.008,-0.145l0.15,-0.188l0.063,-0.027l0.031,-0.057l-0.012,-0.07l0.039,-0.033l0.075,0.018l0.027,-0.015l-0.008,-0.103l0.042,-0.072l0.099,-0.037l0.064,-0.108l0.016,-0.079l-0.049,-0.051v-0.076l-0.036,-0.088l0.008,-0.148l-0.03,-0.06l0.002,-0.058l0.036,-0.033l-0.008,-0.077l0.137,-0.076l0.023,-0.041l-0.003,-0.039l0.047,-0.099l-0.003,-0.146l0.02,-0.089l0.073,-0.153l0.074,-0.03l0.04,-0.053l-0.01,-0.085l0.027,-0.066l0.057,-0.048l0.02,-0.073l0.067,-0.073l0.037,-0.075l0.064,-0.049l0.027,-0.034l0.003,-0.051l0.044,-0.051l0.079,-0.036l0.057,-0.066l0.119,-0.07l0.022,-0.061l0.067,-0.073l0.022,-0.155l0.042,-0.08l0.285,-0.107l0.079,-0.071l0.108,-0.148l0.089,-0.048l0.077,0.007l0.057,0.034l0.138,0.027l0.127,0.063l0.099,0.007l0.059,0.022l0.022,0.046l0.144,0.068l0.071,-0.007l0.037,0.019l0.008,0.051l0.185,0.127l0.04,0.053l0.039,0.005l0.055,-0.032h0.062l0.052,0.029l0.056,-0.004l0.122,-0.1l0.049,0.002l0.032,-0.021l0.067,-0.095l0.094,-0.039l0.142,0.038l0.203,0.172l0.031,-0.004l0.037,-0.051l0.017,0.013l-0.028,0.062l0.019,0.034l0.036,0.01l0.098,-0.047l0.052,0.018l0.053,-0.045l-0.031,-0.046l0.037,-0.027l0.072,0.045l0.127,-0.003l0.062,-0.024l0.022,-0.07l0.049,-0.028l0.059,0.003l0.037,-0.021l0.019,-0.043l0.075,-0.054l0.158,-0.007l0.186,-0.051l0.14,-0.025l0.192,-0.158l0.071,-0.125l0.066,-0.058l0.145,-0.092l0.041,-0.07l0.434,-0.015l0.078,0.028l0.077,-0.007l0.072,-0.054l0.009,-0.11l0.075,-0.134l-0.01,-0.089l0.019,-0.112l0.062,-0.083l0.012,-0.115l0.066,-0.125l0.232,-0.028l0.062,0.022h0.078l0.046,-0.04l0.066,-0.003l0.09,0.046l0.093,0.003l0.04,-0.034l0.18,-0.055l0.149,-0.1l0.081,-0.122l0.012,-0.092l0.124,-0.176l-0.006,-0.144l0.012,-0.109l-0.031,-0.107l0.056,-0.155l0.109,-0.068l0.006,-0.057l-0.04,-0.052l0.018,-0.159l0.131,-0.161l0.028,-0.125l-0.062,-0.052l0.003,-0.091l0.09,-0.156l0.158,-0.1l0.031,-0.125l0.223,-0.064h0.174l0.32,-0.089l0.043,-0.033l0.401,-0.125l0.09,-0.058l0.13,-0.146l0.009,-0.067l0.084,-0.092l-0.044,-0.228l0.041,-0.04l0.139,0.046l0.087,-0.01l0.047,-0.051l0.084,-0.043l0.133,-0.155l0.019,-0.08l0.347,-0.259l0.025,-0.058l-0.09,-0.088l0.006,-0.067l0.087,-0.098l0.286,-0.064l0.074,0.016l0.025,0.082l0.081,0.027l0.183,-0.036l0.177,-0.064l0.068,0.009l0.025,0.027l0.056,0.01l0.074,-0.019l0.087,0.022l0.118,0.082h0.143l0.118,-0.131l0.211,-0.076l0.114,-0.006l0.075,-0.015z"/>
</svg>
