<svg xmlns="http://www.w3.org/2000/svg" viewBox="1198.946 440.499 0.762 0.792">
  <path d="M1199.54767,440.561031l0.064,-0.022l0.024,-0.033l0.047,-0.007l0.025,0.022l-0.008,0.043l-0.027,0.02l0.005,0.072l-0.019,0.025l-0.005,0.088l0.039,0.067l0.003,0.063l-0.062,0.095l-0.005,0.04l-0.022,0.027l-0.027,0.008l-0.02,0.027l0.002,0.07l-0.034,0.06l-0.003,0.043l-0.017,0.01l-0.091,-0.005l-0.076,0.017l-0.06,-0.007l-0.027,-0.03l-0.01,-0.038l-0.044,-0.007l-0.025,0.02l-0.027,0.005l-0.022,-0.013h-0.024l-0.025,0.023h-0.064l-0.022,-0.02l0.019,-0.04l0.003,-0.033l-0.025,-0.067l0.008,-0.048l0.034,-0.02v-0.042l-0.032,-0.05l-0.042,-0.013l-0.01,-0.035l0.008,-0.072l0.017,-0.008l0.027,0.023l0.039,-0.008l0.02,-0.025l0.032,-0.007l0.059,0.007l0.042,-0.015l0.052,-0.06l0.17,-0.112l0.086,-0.01l0.05,-0.028z"/>
</svg>
