<svg xmlns="http://www.w3.org/2000/svg" viewBox="1001.365 639.990 40.939 29.282">
  <path d="M1007.817258,658.873848l0.092796,-0.204151l0.092796,-0.060317l0.074237,0.041758l-0.013919,0.106715l-0.083516,0.111355l-0.088156,0.032479l-0.074237,-0.027839Z M1008.05007,645.353712l-0.022184,0.066552l-0.017254,0.160218l0.002465,0.128174l-0.054228,0.256349l-0.036973,0.128174l-0.039438,0.086271l0.012324,0.00493l0.046833,-0.078877l0.054228,-0.142964l0.066552,-0.315506l0.014789,-0.33769l-0.007395,-0.046833h-0.019719v0.091201Z M1007.22665,659.268618l-0.046398,0.083516l0.055678,0.051038l0.134554,-0.060317l0.120635,-0.143834l-0.041758,-0.041758l-0.22271,0.111355Z M1006.386846,658.98095v0.259829l0.046398,0.074237l0.037118,-0.00928l0.023199,-0.125275l-0.046398,-0.357265l-0.037118,0.00464l-0.023199,0.153113Z M1007.189532,660.224416l0.018559,0.032479h0.037118l0.013919,-0.051038l-0.027839,-0.037118l-0.037118,0.013919l-0.00464,0.041758Z M1007.21737,660.498165l0.046398,0.00928l0.032479,-0.018559l-0.041758,-0.041758l-0.041758,-0.00928l-0.027839,0.032479l0.032479,0.027839Z  M1036.365412,652.821644l0.033,0.182l0.097,0.02l0.065,0.052l-0.004,0.13l0.065,0.068l0.259,0.057v0.053l-0.092,0.063l0.004,0.048l0.2,0.091v0.125l-0.07,0.111l-0.102,0.033l-0.014,0.173l-0.074,0.116l-0.009,0.091l-0.037,0.019l-0.103,-0.019l-0.06,0.067l0.009,0.159l-0.046,0.091l0.005,0.116l0.13,0.077l0.014,0.057l-0.024,0.101l0.079,0.116l0.002,0.241l0.081,0.062h0.105l0.223,0.092l0.043,0.081l0.074,0.031l0.081,-0.019l0.055,0.056l-0.031,0.13l-0.006,0.179l0.087,0.075l0.278,0.061l0.155,0.106l0.223,0.569l0.099,0.068l-0.007,0.222l-0.074,0.149v0.235l-0.062,0.062l-0.012,0.142l-0.08,0.241v0.248l0.142,0.173l0.08,0.031l0.26,0.248l-0.074,0.47l-0.013,0.235l-0.098,0.13l-0.26,0.198l-0.025,0.099l-0.266,0.142l-0.105,0.012l-0.056,0.093l0.21,0.359l0.025,0.254l0.204,0.136l0.068,0.117l-0.018,0.093l0.018,0.062l0.099,0.025l0.05,0.074l0.012,0.093l0.118,0.092l0.148,0.038l0.446,0.414l-0.007,0.111l-0.074,0.093l-0.055,0.21l0.092,0.143l0.266,0.284l-0.006,0.081l0.05,0.043h0.136l0.068,-0.056v-0.086l0.068,-0.056h0.068l0.068,-0.049l0.025,-0.118l0.099,-0.21v-0.087l0.068,-0.056l0.173,0.013l0.08,0.068v0.08l0.106,0.05l0.228,-0.074l0.124,0.024l0.013,0.062l-0.05,0.074l0.037,0.068h0.186l0.068,0.316l0.13,0.142l0.179,0.056l0.062,0.148l0.074,0.019l0.013,0.049l-0.13,0.167l-0.013,0.155l0.093,0.043h0.124l0.037,0.112l-0.099,0.136l0.031,0.093l0.08,0.043l0.149,0.235l0.216,0.056l0.118,0.099l-0.043,0.111l0.031,0.111l0.111,0.099l0.025,0.093l0.074,0.031v0.068l-0.105,0.019v0.099l0.123,0.13l0.087,-0.019v-0.111l0.099,-0.025l0.074,0.111l0.044,0.217l-0.075,0.062l-0.222,0.006l-0.038,0.074l0.081,0.05l-0.006,0.062l-0.081,0.068l-0.018,0.099l0.055,0.068v0.074l-0.08,0.062l0.037,0.123l0.099,0.019l0.019,0.254l-0.062,0.092l0.105,0.174l0.08,0.062l-0.012,0.055l-0.328,0.006l-0.056,0.044l0.031,0.161l-0.043,0.024l-0.031,-0.043l-0.056,0.012l-0.006,0.136l-0.043,0.038l0.025,0.074l0.161,0.031l0.074,0.167l-0.006,0.074l-0.075,0.031l-0.006,0.08l0.118,0.118l-0.031,0.105l-0.099,0.056l-0.136,0.012l-0.031,0.105l0.055,0.031l0.056,-0.031l0.05,0.031l0.006,0.112l0.08,0.012l0.044,-0.111l0.086,0.024l0.068,0.13v0.173l0.081,0.019v-0.142h0.074l0.037,0.154l-0.012,0.13l-0.093,0.062l-0.025,0.081l0.068,0.105l-0.025,0.068l-0.049,-0.006l-0.031,0.049l-0.043,0.053l-0.059,-0.003l-0.081,-0.068l-0.015,-0.075l-0.096,-0.071l-0.093,-0.012l-0.028,0.018l-0.17,-0.049l-0.052,-0.04l-0.056,-0.003l-0.087,0.052l-0.167,0.003l-0.519,0.056l-0.037,0.04l-0.106,-0.003l-0.061,-0.04l-0.143,0.012l-0.191,0.084l-0.075,0.111l-0.161,0.025l-0.142,0.071l-0.127,0.04l-0.096,-0.003l-0.071,-0.065l-0.099,-0.006l-0.052,-0.043l-0.186,-0.007l-0.043,0.038l-0.099,-0.01l-0.087,-0.071l-0.006,-0.059l-0.043,-0.04l-0.071,-0.003l-0.106,-0.167l-0.467,0.291l-0.12,-0.009l-0.065,0.027l-0.099,-0.009l-0.152,-0.117l-0.222,-0.05l-0.279,0.046l-0.148,0.22l-0.127,0.053l-0.146,0.111l-0.213,0.056l-0.077,-0.01l-0.062,0.007l-0.025,0.034l-0.043,0.012l-0.124,-0.012l-0.176,0.08l-0.034,0.031l-0.412,0.167l-0.049,-0.009l-0.043,-0.149l-0.072,-0.062l-0.071,-0.17l-0.145,-0.12l-0.115,0.009l-0.095,-0.031l-0.075,-0.068l-0.204,-0.025l-0.052,-0.04h-0.059l-0.229,0.152l-0.065,0.083l-0.096,0.043l-0.077,-0.015l-0.093,-0.136l0.015,-0.096l-0.052,-0.025l-0.053,0.016l-0.089,-0.05l-0.025,-0.083l-0.087,-0.068l-0.195,-0.038l-0.714,0.044l-0.006,-0.04l0.074,-0.081l0.012,-0.09l-0.145,-0.071l-0.158,-0.031l-0.099,0.025l-0.09,-0.093l-0.086,-0.003l-0.025,-0.034l0.059,-0.074l-0.031,-0.068l-0.084,-0.006l-0.207,-0.124l-0.006,-0.084l-0.081,-0.021l-0.334,0.124l-0.003,0.061l0.037,0.127l-0.024,0.189l-0.136,0.059l-0.14,0.003l-0.089,-0.074l-0.18,-0.025l-0.058,0.025l-0.078,0.003l-0.12,-0.047l-0.031,-0.083l0.009,-0.266l0.074,-0.059l0.019,-0.127l0.055,-0.062l-0.015,-0.192l-0.016,-0.133l-0.089,-0.061l-0.013,-0.056h-0.046l-0.13,0.083l-0.087,0.004l-0.129,-0.062l-0.208,-0.013l-0.139,0.065l-0.043,0.003l-0.127,-0.08v-0.05l-0.077,-0.015l-0.087,0.053l-0.385,-0.058l-0.107,0.075l-0.195,-0.019l-0.116,-0.088l-0.909,-0.107h-1.476l-9.892,-0.074l-0.519,0.349l-0.353,0.149l-0.26,0.25l-0.176,0.13l-1.874,0.854l-1.411,-0.167l-0.427,0.074l-0.557,-0.232l-0.213,0.009l-0.585,0.168l-0.278,-0.093l-1.16,0.575l-0.056,0.084l-0.445,-0.01l-0.39,0.084l-0.204,-0.074l-0.397,0.088l-0.205,-0.068l-0.352,0.006l-0.192,0.136l-0.08,-0.099l-0.007,-0.093l-0.049,-0.093l-0.192,-0.142l-0.173,-0.266l0.012,-0.322l0.136,-0.253l0.217,-0.112l0.371,-0.055l0.278,-0.081l0.118,-0.099l0.08,-0.216l0.205,-0.093l0.154,0.019l0.136,0.21l0.068,0.019l0.167,-0.031l0.427,0.136l0.371,0.185l0.223,-0.049l0.056,-0.105l0.105,-0.143l0.136,-0.037l0.21,0.081h0.149l0.192,-0.112l0.105,0.006l0.068,0.13l0.099,0.038l0.155,-0.025l0.284,-0.105l0.056,-0.068l0.105,-0.025l0.074,0.012l0.192,-0.037l0.161,-0.117l0.204,0.012l0.148,0.192l0.223,0.123l0.248,0.062l0.136,-0.024l0.192,0.024l0.08,0.075l0.173,0.061l0.124,-0.049l0.142,-0.161l0.112,-0.031l0.383,0.056l0.149,0.086l0.111,0.217l0.179,0.049l0.124,-0.055l0.056,-0.136l0.111,-0.05h0.124l0.08,-0.056l0.124,-0.29l0.192,-0.167v-0.068l-0.068,-0.056v-0.13l-0.13,-0.235l0.012,-0.248l0.062,-0.191l0.087,-0.075l0.247,0.031l0.192,-0.092l0.074,-0.143l0.062,-0.012l0.13,0.111l0.142,0.006l0.124,-0.068l0.111,-0.185l0.316,-0.093l0.241,0.043l0.179,0.279l0.099,0.012l0.081,-0.049l0.099,0.006v-0.043l-0.105,-0.019l-0.068,0.037h-0.062l-0.161,-0.272l-0.291,-0.068l-0.414,0.086l-0.161,0.229l-0.081,0.007l-0.117,-0.106h-0.18l-0.105,0.155l-0.105,0.019l-0.136,-0.075l-0.142,0.019l-0.143,0.173l-0.123,0.217l-0.006,0.259l0.08,0.316l-0.068,0.254l-0.217,0.297l-0.259,0.154l-0.099,-0.012l-0.05,-0.136l-0.148,-0.136l-0.539,-0.075l-0.167,0.05l-0.161,0.155l-0.086,-0.007l-0.155,-0.136l-0.21,0.006l-0.142,0.118l-0.087,-0.012l-0.192,-0.223l-0.161,-0.056l-0.092,-0.062l-0.044,-0.154l-0.253,-0.167h-0.112l-0.037,0.086l0.037,0.075l-0.117,0.253l-0.087,0.031l-0.185,-0.056l-0.186,0.044l-0.093,0.142l-0.105,0.006l-0.179,-0.068h-0.279l-0.21,0.136l-0.124,0.013l-0.185,-0.087h-0.155l-0.155,0.087l-0.018,0.167l-0.186,0.049l-0.334,-0.161l-0.025,-0.093l-0.148,-0.117h-0.204l-0.186,-0.068l-0.346,-0.291l-0.106,0.006l-0.049,0.068l-0.111,0.031l-0.161,-0.031l-0.056,0.044l0.025,0.092l-0.087,0.143l-0.575,0.309l-0.155,0.006l-0.074,-0.068l0.012,-0.272l-0.08,-0.111l-0.037,-0.161l0.025,-0.081l-0.007,-0.086l-0.049,-0.05l0.006,-0.062l0.062,-0.092l-0.006,-0.136l-0.075,-0.093l-0.006,-0.155l0.075,-0.167l0.086,-0.377l0.142,-0.514l0.056,-0.513l-0.031,-0.223l-0.056,-0.111l0.038,-0.056l0.068,0.003l0.037,-0.065l-0.056,-0.065l0.028,-0.12l0.111,-0.038l0.056,-0.129l0.019,-0.149l0.157,-0.083h5.819v-1.207h0.501l0.259,-0.12l0.724,0.111l0.149,-0.074l0.093,-0.093l0.148,-0.112l0.186,-0.018l0.167,0.074l0.324,0.13l0.353,0.046l0.446,-0.074l0.194,-0.102l0.223,-0.176l0.13,-0.223l0.121,-0.557l0.185,-0.111l0.139,-0.121l0.075,-0.139l0.315,-0.093l0.056,0.177l0.139,0.185l0.26,0.242l0.241,0.167l0.538,0.241h0.325l0.214,0.148l0.185,0.037l0.204,-0.009l0.065,0.149l0.121,0.13l0.343,0.204l0.204,0.028l0.27,-0.019l0.204,-0.084l0.222,0.242l0.269,0.13l0.297,0.009l0.13,0.213l0.399,0.205l0.269,0.046l0.316,-0.046l0.204,0.009l0.149,0.111h0.157l0.195,-0.065l0.204,0.056l0.149,-0.028l0.13,-0.158l0.009,-0.195l0.334,-0.092l0.316,0.018l0.139,-0.055l0.213,-0.121l0.158,-0.028l0.316,0.019l0.139,-0.028l0.195,-0.074l0.232,-0.27l0.083,-0.361l-0.037,-0.158l-0.111,-0.065l-0.13,-0.26l-0.158,-0.065l-0.13,-0.139l-0.037,-0.139l-0.149,-0.093l-0.129,-0.009l-0.26,-0.093l-0.195,0.028l-0.176,0.13l-0.474,0.018l-0.26,0.111h-0.13l-0.352,0.149l-0.13,0.139l-0.102,0.121l-0.269,0.037l-0.241,0.093l-0.158,-0.065l-0.204,-0.037l-0.102,-0.103l-0.26,-0.102l-0.112,-0.139l-0.176,-0.13l-0.056,-0.278l-0.102,-0.214l-0.204,-0.176l-0.325,-0.102l-0.315,-0.009l-0.232,0.083l-0.269,0.204h-0.121l-0.464,-0.269l-0.028,-0.232l-0.046,-0.232l-0.149,-0.222l-0.241,-0.177l-0.325,-0.111l-0.287,-0.028l-0.167,0.074l-0.65,-0.204l-0.371,0.13l-0.037,0.074l-0.566,0.288h-0.139l-0.186,-0.148l-0.176,-0.065h-0.26l-0.251,0.074l-0.343,0.241l-0.167,0.269l-0.121,0.371l-0.046,0.319h-7.137l-0.117,-0.08l-0.037,-0.111l-0.112,-0.124l-0.154,-0.068l-0.149,-0.235l-0.024,-0.204l0.086,-0.322l0.248,-0.235l0.061,-0.118l0.236,-0.154l0.198,-0.037l0.16,-0.087l0.037,-0.105l0.155,-0.143l-0.006,-0.123l-0.05,-0.006l-0.03,0.105l-0.124,0.105l-0.056,-0.031l0.025,-0.093l-0.006,-0.105l0.092,-0.204l-0.018,-0.223l0.018,-0.086l-0.055,-0.013l-0.043,0.13l0.006,0.167l-0.099,0.21l-0.124,0.013l-0.099,0.093l-0.136,0.315l-0.21,0.111l-0.322,0.106l-0.13,0.117l-0.074,0.217l-0.105,0.012l-0.223,-0.377l-0.099,-0.681v-0.154l0.223,-0.248l0.167,-0.037l0.235,0.13l0.198,-0.006l0.198,-0.266l0.148,-0.167l0.254,-0.143l0.167,-0.148l0.099,-0.248l0.093,-0.061l-0.038,-0.05l-0.16,0.118l-0.198,0.29l-0.242,0.124l-0.198,0.18l-0.16,0.222l-0.174,0.019l-0.185,-0.099l-0.248,0.031l-0.179,0.173l-0.124,0.161h-0.062l-0.012,-0.514l-0.118,-0.482l-0.191,-0.285l-0.112,-0.037l-0.192,-0.216l-0.111,-0.334l-0.229,-0.285l-0.086,-0.031l-0.056,-0.074l0.012,-0.31l-0.117,-0.284l-0.328,-0.309l-0.279,-0.106l-0.272,-0.235l-0.049,-0.222l-0.149,-0.248l-0.123,-0.08l-0.118,-0.155l-0.012,-0.148l-0.273,-0.347l-0.6,-0.396l-0.569,-0.142l-0.291,0.037l-0.08,0.111l0.031,0.099l-0.056,0.372l-0.068,0.012l-0.062,-0.155l-0.117,-0.068l-0.112,-0.229l-0.259,-0.13v-0.099l0.247,-0.099l0.235,-0.024l0.888,-0.322l1.225,-0.613l0.112,-0.12l0.157,-0.288l0.678,-0.752l0.853,-1.104l0.873,-1.336l0.742,-1.086l0.557,-1.034l0.047,-0.096l0.088,-0.266l0.052,-0.289l0.007,-0.335l0.02,-0.086l0.008,-0.227l0.046,-0.086l0.003,-0.128l-0.027,-0.128l0.022,-0.084l0.069,-0.05l0.012,-0.024l-0.007,-0.032l0.017,-0.05l0.082,-0.073l0.019,-0.065l0.022,-0.027l0.072,-0.022l0.059,-0.089l0.025,-0.081l-0.018,-0.044l-0.024,-0.001l-0.057,-0.02l-0.009,-0.069l0.033,-0.061l-0.01,-0.329l0.121,-0.209l0.107,-0.028l0.102,0.023l0.106,-0.013l0.093,-0.112l0.056,-0.153l0.074,-0.088l0.005,-0.093l-0.074,-0.102l0.004,-0.139l0.074,-0.107l0.084,-0.018l0.06,-0.084l-0.009,-0.292l0.032,-0.075l0.079,-0.013l0.051,-0.051l0.014,-0.283l0.042,-0.107l0.107,-0.061l0.018,-0.213l0.079,-0.083l0.125,-0.028l0.112,0.004l0.107,0.061l0.199,-0.01l0.246,-0.222l0.181,-0.037l0.107,0.018l0.055,0.088l-0.004,0.13l0.181,0.107l0.092,0.172l0.079,0.018l0.079,-0.009l0.172,-0.153h0.13l0.125,0.102l0.125,-0.005l0.214,-0.176l0.204,-0.033l0.172,0.051l0.009,0.112l0.051,0.009l0.144,-0.107l0.153,0.005l0.172,0.079l0.329,0.032l0.186,0.126h0.055l0.051,-0.042l0.228,-0.023l0.139,-0.075l0.037,-0.074l-0.014,-0.097l0.056,-0.051l0.157,-0.014l0.177,0.093l0.157,0.009l0.228,-0.088l0.018,-0.061l-0.069,-0.092l0.028,-0.102l0.283,-0.186l0.134,0.005l0.116,0.102l0.037,0.185l0.167,0.07l0.121,-0.023l0.153,-0.112l0.19,-0.018l0.163,-0.098h0.116l0.093,0.033l0.139,0.004l0.093,0.093h0.106l0.279,-0.139l0.069,-0.079l0.065,-0.014l0.204,0.056l0.153,-0.005l0.144,-0.13l0.028,-0.111l-0.079,-0.084l-0.12,-0.018l-0.038,-0.088l0.042,-0.107l0.098,-0.102l0.106,-0.009l0.084,0.079l0.023,0.134l0.098,0.098l0.129,0.013l0.191,-0.097l0.032,-0.204l0.056,-0.107l0.079,-0.004l0.171,0.078l0.047,0.079l-0.047,0.102l0.047,0.093l0.083,0.023l0.093,-0.069l0.065,0.009l0.056,0.074l0.051,-0.018l0.055,-0.144l0.093,0.004l0.065,0.098l0.177,0.032l0.069,-0.014l0.023,-0.092l0.065,-0.005l0.121,0.135h0.051l0.074,-0.149h0.065l0.056,0.047l0.023,0.125l0.065,0.055l0.046,-0.013l0.047,-0.13l0.046,-0.019l0.088,0.037l0.348,-0.079l0.107,0.024v0.06l-0.07,0.028l-0.004,0.041l0.042,0.056l0.06,0.005l0.046,-0.051l0.084,-0.01l0.06,0.07h0.046l0.033,-0.032h0.139l0.07,0.041l0.055,-0.009l0.033,-0.144l0.046,-0.023l0.098,0.116l0.176,0.07l0.125,-0.051h0.172l0.093,-0.042l0.037,-0.098l0.102,-0.055l0.07,0.018v0.098l0.065,0.023l0.051,-0.033l0.222,-0.009l0.153,-0.018l0.065,0.046l0.014,0.255l-0.065,0.06v0.084l0.07,0.065l0.134,-0.009l0.093,-0.121h0.098l0.041,0.084l-0.051,0.167l0.112,0.213l0.032,-0.014l-0.018,-0.083l0.055,-0.089h0.177l0.144,0.065l0.009,0.056l-0.037,0.046l0.041,0.079l0.186,0.079l0.116,0.139l0.097,-0.009l0.038,0.023l-0.047,0.051l0.014,0.079l0.121,0.037l0.06,0.056l0.019,0.074l0.199,0.121l0.227,0.25l0.061,0.14l0.069,0.046l0.172,0.005l0.186,0.097l0.065,0.093l0.014,0.074l-0.056,0.023l-0.084,-0.032l-0.065,0.042l0.024,0.167l0.194,0.041l0.019,0.061l-0.13,0.125l-0.018,0.107l0.041,0.037l0.177,-0.056l0.12,0.033l0.028,0.13l0.07,0.106h0.069l0.051,-0.037l0.084,0.005l0.06,0.065v0.079l-0.056,0.069v0.116l0.121,0.153l0.051,0.121h0.051l0.139,-0.144l0.163,-0.088h0.167l0.148,-0.042l0.223,-0.218l0.07,0.005l0.037,0.088l-0.023,0.074l-0.084,0.065l-0.019,0.079l0.079,0.125l0.144,0.135l0.07,0.004l0.116,-0.074h0.148l0.413,-0.176l0.102,0.005l0.121,0.032l0.162,-0.009l0.144,-0.116l0.084,0.009l0.055,0.084l-0.046,0.051h-0.088l-0.121,0.074l-0.018,0.12l0.078,0.103l0.089,-0.005l0.129,-0.162l0.07,0.009l0.102,0.148l0.385,0.17l0.037,0.093l-0.018,0.142l0.074,0.155l0.012,0.186l0.124,0.21l0.211,0.099v0.074l-0.081,0.068v0.087l0.155,0.161l0.037,0.297l0.223,0.21l-0.044,0.043l-0.068,-0.024l-0.086,0.018v0.112l0.532,0.445l0.018,0.08l-0.055,0.106l-0.062,0.006l-0.087,-0.037l-0.074,0.024l-0.013,0.112l0.174,0.272l0.074,0.019l0.105,-0.087h0.136l0.6,0.315l0.019,0.167l-0.087,0.18l-0.031,0.111l0.05,0.074l0.241,0.093l0.26,-0.007l0.133,-0.104l0.202,-0.024l0.074,0.012l0.004,0.021l-0.037,0.019l0.032,0.111l-0.006,0.199l0.064,0.022l0.136,-0.02l0.039,0.03l-0.012,0.052l-0.143,0.113l0.007,0.358l0.072,0.091l0.143,0.074l0.192,0.002l0.202,0.119l0.074,0.078l0.069,0.136l-0.01,0.081l-0.086,0.133l-0.045,0.01l-0.093,-0.032l-0.067,-0.069l-0.081,-0.002l-0.049,0.042l-0.008,0.066l0.052,0.064l0.17,0.094l0.095,0.178h0.074l0.083,-0.088l0.093,-0.014l0.13,0.046l0.042,0.112l-0.046,0.162l0.009,0.079l0.055,0.046l0.177,0.061l0.222,0.199l0.149,0.07l0.06,0.074l0.033,-0.014l0.004,-0.07l0.038,-0.051l0.111,-0.018l0.38,0.171l0.14,0.158l0.213,0.177l0.38,0.102l0.154,0.12l0.078,0.107l0.099,0.453l-0.037,0.107l0.01,0.042l0.12,0.078l0.135,0.149l0.273,0.158l0.293,0.046l0.287,0.302l0.297,0.116z M1008.117492,644.226386l0.027,-0.004l0.029,-0.051l0.032,-0.003l0.04,0.042l0.002,0.047l0.033,0.002l-0.035,0.047h-0.059l-0.037,0.059l0.019,0.059l-0.024,0.171l-0.03,0.133l-0.002,0.189h-0.02l-0.017,-0.032l0.002,-0.155l0.037,-0.227l0.003,-0.277z"/>
</svg>
