<svg xmlns="http://www.w3.org/2000/svg" viewBox="1271.887 669.894 82.527 58.100">
  <path d="M1320.81218,727.9191l0.036,0.001l0.012,0.074l0.044,-0.002l0.148,-0.299l0.027,-0.128l0.143,-0.231l0.19,-0.185l0.067,-0.106l0.017,-0.163l0.154,-0.217l0.174,-0.049l0.13,0.049l0.216,-0.117l0.043,-0.124l0.137,-0.068l0.105,0.018l0.346,-0.228l0.074,-0.087l0.174,-0.049l0.668,0.012l1.682,0.934l0.223,-0.167l0.742,-0.204l0.168,-0.087l0.098,-0.21l0.056,0.043l0.062,-0.086l0.34,-0.248v-0.111l-0.055,-0.074l0.037,-0.056l0.068,0.012l0.427,0.334l0.006,0.087l0.043,0.043l0.093,0.05l0.173,0.266l0.149,0.297v0.167l0.049,0.13v0.148l0.019,0.099l0.519,0.006l0.087,-0.031l0.099,0.019l0.049,0.099l0.112,0.08l0.006,0.124l0.08,0.068l0.656,0.167l0.056,-0.062l0.012,-0.229l0.043,-0.092l-0.018,-0.161l-0.099,-0.037v-0.056l1.441,-0.94l2.017,-0.137l1.182,-0.309l0.841,-0.513l1.089,0.742l2.091,0.179l3.158,-3.074l0.622,-0.668l1.899,-1.906l1.874,-0.946l3.836,-1.46l0.145,0.25l0.966,-0.594l0.111,0.214l-0.26,0.557l0.594,-0.075l0.557,0.102l0.018,0.103l-0.287,0.677v0.269l0.491,0.863l0.678,0.241l0.046,-0.408l0.204,-0.195l0.26,0.009l0.028,0.362l1.114,-0.055l-0.922,-1.052l0.049,-2.215l0.075,-0.111l0.08,-0.031l0.124,-0.235l-0.031,-0.303l-0.18,-0.26l0.013,-0.13l0.21,-0.229l-0.012,-0.117l-0.477,-0.229l-0.111,0.018l-0.124,-0.055l-0.074,-0.106l-0.223,-0.099l-0.358,0.013l-0.118,0.043l-0.087,-0.025l-0.08,-0.105l-0.204,-0.099l-0.093,0.031l-0.124,-0.012l-0.111,-0.056l-0.347,0.043l-0.296,0.266l-0.706,0.242l-0.13,-0.05l-0.105,-0.241l0.037,-0.334l0.075,-0.192l0.006,-0.155l0.049,-0.074l-1.212,-0.804l-0.006,-0.452l-0.786,-1.311l-0.013,-0.093l0.038,-0.093l-0.099,-0.198l-0.013,-0.154l0.087,-0.155l0.012,-0.155l-0.074,-0.093l-0.012,-0.105l0.043,-0.142l-0.037,-0.111l-0.124,-0.056l-0.08,-0.204l0.037,-0.285l0.031,-0.105v-0.179l-0.105,-0.13l-0.019,-0.143l0.043,-0.08l-0.012,-0.142l0.062,-0.155l0.099,-0.099l0.074,-0.216l-0.031,-0.198l0.019,-0.112l0.08,-0.031l0.05,-0.08l0.049,-0.223l-0.068,-0.173l-0.124,-0.068l-0.117,-0.13l-0.068,-0.019l-0.044,-0.043l-0.099,-0.247l-0.204,-0.167l-0.099,-0.031l-0.068,-0.05l-0.006,-0.111l-0.124,-0.043l-0.167,0.049l-0.222,-0.006l-0.118,0.049l-0.142,-0.037l-0.149,-0.229l-0.091,-0.049l-0.138,-0.161v-0.105l-0.043,-0.087l-0.161,-0.025l-0.105,-0.092l-0.118,-0.18l-0.111,-0.018l-0.062,0.08l-0.148,0.019l-0.334,-0.105l-0.075,-0.118l0.031,-0.365l-0.092,-0.173l-0.007,-0.118l-0.247,-0.278l-0.21,-0.118l-0.403,-0.018l-0.154,0.025l-0.272,-0.081l-0.161,-0.136l-0.062,-0.198l-0.254,-0.192l-0.136,0.019l-0.08,-0.068l0.012,-0.062l-0.037,-0.087l-0.105,-0.006l-0.074,-0.117l0.006,-0.403l-0.062,-0.123l-0.26,-0.124l-0.464,-0.415l-0.185,-0.068l-0.192,-0.198l0.024,-0.086l0.081,-0.025l0.031,-0.074l-0.043,-0.316l0.037,-0.136l-0.019,-0.099l-0.111,-0.08l-0.087,-0.217l-0.247,-0.253l-0.025,-0.087l-0.068,-0.074l-0.105,-0.019l-0.204,-0.222l-0.031,-0.167l-0.266,-0.161l-0.211,-0.019l-0.167,-0.08l-0.402,-0.341l-0.031,-0.111l-0.13,-0.117l-0.13,-0.025l-0.204,-0.149l-0.241,-0.062l-0.149,0.038l-0.377,-0.038l-0.142,-0.111l-0.074,-0.124l-0.291,-0.111l-0.081,0.05l-0.068,-0.007l-0.049,-0.074h-0.081l-0.08,0.099l-0.148,-0.006l-0.26,0.08l-0.124,0.087l-0.13,-0.012l-0.037,-0.081l-0.34,-0.223l-0.037,-0.08l-0.093,-0.019l-0.081,0.05l-0.08,-0.006l-0.142,-0.124l-0.205,-0.043l-0.117,0.055l-0.235,0.013l-0.043,-0.074l-0.112,-0.025l-0.111,0.049l-0.13,-0.006l-0.056,-0.155l-0.235,-0.266v-0.16l0.062,-0.056l0.025,-0.056l-0.118,-0.148l0.019,-0.173l0.136,-0.075l0.087,-0.099v-0.136l0.068,-0.13l0.129,-0.043l0.093,-0.08l0.019,-0.229l0.099,-0.044l0.105,0.068l0.043,-0.037l-0.006,-0.185l0.087,-0.087l0.29,-0.074l0.087,-0.142l-0.093,-0.279l0.019,-0.148l0.13,-0.093l0.031,-0.124l-0.13,-0.08l-0.062,-0.118l0.018,-0.136l0.155,-0.068l0.025,-0.068l-0.068,-0.08l0.031,-0.068l0.117,-0.038l0.031,-0.105l-0.062,-0.031l-0.055,0.037l-0.081,-0.018l-0.012,-0.124l0.043,-0.161l0.087,-0.024l0.055,-0.056l-0.052,-0.062l0.065,-0.065l0.093,0.046l0.065,-0.055v-0.074l0.148,-0.065l0.102,0.065h0.093l0.083,-0.093h0.112l0.334,0.167l0.139,0.018l0.102,-0.092l0.186,-0.019l0.213,-0.074l0.074,-0.112l0.103,-0.027l0.148,0.046l0.223,0.019l0.12,0.139l0.149,0.009l0.093,-0.111l0.12,-0.01l0.26,0.13l0.093,0.112l0.046,0.25l0.195,0.121l0.325,-0.009l0.204,-0.149l0.464,-0.083l0.084,-0.112l-0.019,-0.139l0.079,-0.172l0.292,-0.157l0.32,-0.01l0.186,0.051l0.102,-0.037l0.051,-0.153l0.316,-0.237l0.129,-0.027l0.112,-0.107l0.051,-0.121l0.107,-0.082v-2.864l-0.275,-3.09h-1.498l0.102,-1.206l0.139,-0.548l0.177,-0.065l0.157,-0.26l0.047,-0.445l0.121,-0.297v-0.297l0.055,-0.278l-0.046,-0.353l-0.149,-0.176l-0.037,-0.195l0.037,-0.084l-0.055,-0.093l-0.372,-0.157l-0.686,-1.105l-0.882,-0.686l-1.002,-1.346l-1.8,-0.9l0.176,-0.325l-0.9,-5.335l0.315,-0.836l0.502,-2.709l-0.038,-0.112l0.093,-0.157l0.158,-0.056l0.019,-0.093l-3.694,-0.111v0.093l0.075,0.139l-0.028,0.352l0.102,0.566l-0.01,0.186l0.047,0.195l-0.028,0.213l-0.102,0.167h-4.25l1.93,1.643v3.517l0.52,0.909l-0.381,0.288l-1.744,1.744l-1.067,0.594l-0.984,1.828l-0.381,0.566l-0.306,0.232l-2.422,2.905l-0.185,0.167l-0.177,0.13l-0.222,0.083l-0.669,0.065h-2.227l0.038,0.158l-0.065,0.084l-2.014,-1.643l-3.489,-2.181h-0.381l-2.672,1.383v2.199h-2.728l-0.474,0.093l-0.185,0.167l-0.189,0.322l-1.398,1.188l-0.309,0.609v0.356h-4.64l-0.879,-1.732l-0.643,0.049l-2.004,-0.124l-2.401,-0.012l-0.779,0.148l-1.77,0.718l-0.42,0.025l-1.238,-0.285l-0.878,-0.26l-0.272,-0.222l-0.173,-0.272l-0.594,-1.782l-0.681,-0.582l-0.408,-0.693l-0.384,-0.334l-0.396,-0.123v-1.312l-0.108,-0.025l-0.056,-0.13l-0.092,-0.037l-0.177,0.037l-0.148,-0.046l-0.121,-0.093l-0.306,-0.046l-0.223,0.018l-0.102,0.084l-0.325,0.056l-0.092,-0.121l-0.112,0.009l-0.037,0.121l-0.529,0.018l-0.371,0.075l-0.102,0.083h-0.195l-0.148,-0.046l-0.604,0.046l-0.213,0.139l-0.278,0.084l-0.167,-0.009l-0.195,-0.056l-0.204,0.074l-0.093,0.112l-0.139,0.009l-0.112,-0.019l-0.093,0.047l0.01,0.083l-0.065,0.037l-0.112,-0.037l-0.111,0.056l-0.121,0.26l-0.083,0.464l-0.084,0.148l0.065,0.112l0.121,0.046l0.102,0.269l-0.028,0.13l-0.176,0.093l-0.065,0.148l0.046,0.121l-0.046,0.12l-0.121,0.065l-0.046,0.084l0.028,0.093l-0.056,0.074l-0.111,0.019l-0.093,0.213l0.009,0.167l-0.065,0.056l-0.111,0.018l-0.306,0.269l-0.325,0.205l-0.223,0.037l-0.074,0.046l0.009,0.084l-0.093,0.046l-0.269,-0.065l-0.185,-0.158l-0.121,-0.009l-0.111,0.083l-0.232,0.093l-0.279,-0.018l-0.157,-0.065l-0.158,-0.01l-0.084,0.065l-0.111,0.01l-0.139,-0.177l-0.186,-0.018l-0.167,0.074l-0.158,0.019l-0.102,0.065l-0.065,0.102l-0.157,0.046l-0.149,-0.019l-0.121,-0.055l-0.148,-0.009l-0.251,0.102l-0.315,0.018l-0.111,0.065l-0.112,0.167l-0.13,0.074l-0.185,0.028l-0.195,-0.046l-0.112,0.083l-0.018,0.13l0.009,0.121l-0.083,0.148l-0.167,0.037l-0.214,-0.074h-2.31l-0.446,0.684v0.124l0.068,0.099v0.167l-0.049,0.16l0.043,0.217l0.062,0.019l0.08,-0.062l0.093,0.024l0.025,0.087l-0.074,0.204l-0.106,0.056l-0.055,0.192l-0.006,0.321l0.099,0.279l-0.05,0.068h-0.124l-0.099,0.13l-0.043,0.167l-0.377,0.29l-0.136,0.025l-0.143,-0.043l-0.148,0.093l-0.093,0.21l-0.006,0.173l-0.093,0.371l-0.068,0.124l0.006,0.124l0.062,0.093l0.006,0.086l0.05,0.05l0.08,0.006l0.112,0.099l0.204,0.019l0.092,-0.025l0.069,-0.192l0.086,-0.111l0.093,0.006l0.068,0.111l-0.006,0.136l-0.074,0.149v0.099l0.061,0.08v0.136l-0.099,0.248l-0.167,0.179l-0.136,0.056l-0.092,0.173l-0.025,0.173l0.074,0.124l0.025,0.111l-0.019,0.124l0.062,0.031l0.068,-0.019l0.074,0.019l0.05,0.056l0.074,-0.007l0.062,-0.16l0.105,-0.068h0.248l0.179,0.099l0.315,0.037l0.13,0.074l0.136,0.018l0.062,-0.049l0.093,0.006l0.068,0.081h0.093l0.148,-0.081l0.335,-0.006l0.111,0.043l0.167,-0.018l0.074,-0.044l0.297,0.007l0.223,0.136l0.093,0.006l0.068,-0.043h0.117l0.248,0.13l0.402,0.03l0.154,-0.117l0.099,-0.006l0.149,0.099l0.074,-0.006l0.13,-0.099l0.149,-0.007l0.061,0.05l-0.08,0.13l-0.031,0.136l-0.08,0.155l0.006,0.111l0.167,0.148v0.087l-0.074,0.099l-0.205,0.142l-0.284,0.39l-0.111,0.353l-0.019,0.414l0.198,0.316l0.254,0.222l0.29,0.081l0.285,0.031l0.297,0.086l0.136,-0.018l0.124,-0.099l0.148,-0.044l0.217,0.044l0.204,0.142l0.148,0.192l0.266,0.124l0.248,-0.007l0.284,-0.111l0.167,0.006l0.26,0.099l0.26,0.037l0.179,0.13l0.186,0.006l0.105,-0.043h0.124l0.26,0.124l0.216,0.39l0.068,0.321l0.099,0.124l0.254,0.204l0.117,0.198l0.557,0.415l0.143,0.142l0.123,0.08l0.235,-0.006l0.235,-0.068l0.099,0.019l0.093,0.099l0.173,0.086l0.242,0.347l0.037,0.117l0.056,0.019l0.049,-0.025l0.068,0.025l0.019,0.29l-0.062,0.198l0.012,0.174l0.118,0.099l-0.013,0.074h-0.068l-0.037,0.062l0.006,0.105l-0.136,0.08h-0.136l-0.148,0.087l-0.087,0.099l-0.216,0.142l-0.007,0.093l0.118,0.093l0.018,0.117l-0.037,0.211l0.075,0.08l0.074,-0.006l0.093,0.037l0.105,0.08l0.179,0.019l0.099,0.062l0.105,0.155l0.105,0.068l0.124,0.031l0.081,0.142l0.006,0.216l0.111,0.174l0.155,0.086l0.08,-0.006l0.198,0.13l0.087,0.012l0.062,0.037l0.012,0.118l0.223,0.093l0.198,-0.056l0.08,0.031l0.037,0.105l0.068,0.025l0.056,-0.037l0.056,0.025l0.012,0.179l0.05,0.018l0.061,-0.08l0.062,0.012l0.006,0.118l0.062,0.037l0.143,0.006l0.241,0.099l0.173,0.025l0.186,0.111l0.092,-0.006l0.075,0.037l0.006,0.062l0.08,0.031h0.235l0.149,0.068l0.018,0.093l-0.037,0.062l0.025,0.074l0.316,0.031l0.216,0.105l0.006,0.068l-0.049,0.068l0.031,0.062l0.105,0.006l0.198,0.149l0.21,0.012l0.068,0.05l-0.006,0.08l0.074,0.05h0.266l0.099,0.049l0.044,0.118l-0.019,0.099l0.012,0.123l-0.068,0.112l0.031,0.068l0.062,0.024l0.05,0.075l0.055,0.024l0.081,-0.006l0.055,0.056l-0.024,0.297l0.074,0.136l0.142,0.074l0.279,0.037l0.074,0.05l0.018,0.105l0.13,0.118l0.044,0.105l0.092,0.068l0.155,0.031l0.093,0.074l0.037,0.105l0.056,0.037l0.476,0.087l0.142,0.068l0.093,0.111l0.254,0.161v0.105l-0.068,0.099l-0.087,0.013l-0.074,0.08l0.012,0.093l-0.055,0.031l-0.081,-0.019l-0.062,0.056l-0.062,0.167l-0.123,0.117l-0.025,0.093l0.037,0.081l-0.037,0.049l-0.081,-0.012l-0.148,0.055l-0.056,0.124l0.037,0.056l0.099,-0.019l0.05,0.044l-0.012,0.08l0.055,0.074v0.093l-0.099,0.093l0.013,0.099l0.34,0.266l0.235,0.266l0.124,0.068h0.161l0.247,0.13l0.043,0.105l-0.012,0.204l0.087,0.099l0.099,-0.006l0.08,-0.062l0.093,0.012l0.068,0.087v0.136l-0.068,0.13l-0.136,0.136l-0.254,0.136l-0.118,0.105l-0.018,0.124l0.056,0.112l0.068,0.006l0.105,-0.124l0.154,-0.068l0.112,0.018l0.086,0.093l0.031,0.155l0.124,0.186l0.161,0.099l0.155,0.012l0.247,0.111l0.161,0.006l0.111,-0.049l0.105,0.006l0.081,0.043l0.111,0.007l0.087,-0.031l0.105,0.024l0.105,0.112l0.155,0.062l0.099,-0.031l0.086,0.043l0.031,0.148l0.031,0.322l0.105,0.105l0.137,0.025l0.142,-0.056l0.124,0.038l0.08,0.129l0.142,0.112l0.149,0.037l0.161,-0.031l0.154,0.062l0.05,0.161l0.173,0.154l0.148,0.05l0.124,-0.068h0.105l0.087,0.093l0.093,0.074l0.173,0.018l0.025,0.068l-0.099,0.075l-0.006,0.068l0.284,0.099l0.118,0.173l0.049,0.179l0.118,0.198l-0.031,0.198l0.031,0.118l0.055,0.006l0.05,-0.037l0.13,0.012l0.062,0.087l-0.019,0.124v0.191l-0.124,0.192l-0.167,0.495l0.006,0.272l0.106,0.118l0.018,0.099l-0.037,0.068v0.13l0.167,0.284l0.124,0.192l0.031,0.161l0.099,0.161l0.272,0.13l0.297,0.272l0.074,0.241l0.099,0.105l0.105,0.056l0.112,0.155v0.222l-0.075,0.13l0.019,0.087l0.167,0.13l0.161,0.08l0.08,0.13l-0.031,0.112l0.05,0.086l0.154,0.062l0.13,0.142l0.106,0.019l0.08,-0.037l0.396,0.006l0.278,0.179l0.099,0.211l-0.031,0.154l0.037,0.124l0.112,0.019l0.08,-0.05l0.112,-0.012l0.173,0.099l0.043,0.346l-0.08,0.211l0.012,0.117l0.136,0.297l-0.025,0.167l0.038,0.056l0.123,0.006l0.18,0.099l0.074,0.117l0.291,0.192l0.191,0.019l0.087,-0.05l0.031,-0.185l0.08,-0.019l0.081,0.087l0.297,0.074l0.204,0.012l0.062,0.062l-0.056,0.093l-0.031,0.266l0.068,0.161l0.167,0.179l0.081,0.13l0.055,-0.025l-0.006,-0.099l0.149,-0.061l0.191,0.043l0.025,0.124l-0.055,0.074l0.006,0.111l0.253,0.093l0.254,0.192l0.229,0.018l0.093,-0.068l0.476,0.006l0.186,0.143l0.13,0.297l0.185,0.049l0.235,-0.031l0.167,-0.105l0.136,-0.266l0.161,-0.223l0.235,-0.061l0.149,0.018l0.086,-0.018l0.056,-0.155l0.105,-0.074l0.316,-0.056l0.161,-0.198l0.086,-0.217l-0.031,-0.068l0.044,-0.08l0.086,-0.031l0.124,-0.155l0.21,-0.037l0.099,-0.074h0.105l0.093,0.118l0.056,0.297l0.08,0.092l0.143,0.013l0.105,-0.05l0.123,0.006l0.161,0.068l0.52,-0.049l0.105,-0.043l0.21,0.018l0.056,0.105l0.099,0.062l0.093,0.006l0.056,0.044l-0.019,0.093l0.043,0.043l0.242,-0.006l0.08,0.055v0.087l0.118,0.117l0.105,0.019l0.21,0.179l0.074,0.13l0.155,0.019l0.13,-0.118l-0.006,-0.105l0.055,-0.093l0.143,-0.018l0.185,0.056l0.192,-0.05l0.062,-0.111l0.031,-0.217l0.117,-0.185l0.186,-0.025l0.099,-0.044l0.21,-0.296l-0.006,-0.174l0.043,-0.111l0.149,-0.173l0.012,-0.167l-0.062,-0.173l0.013,-0.149l0.08,-0.062l0.081,-0.099l0.111,0.013l0.13,0.198l0.086,0.006l0.05,-0.056l0.118,0.006l0.105,0.087l0.148,0.012l0.118,-0.018l0.161,0.043l0.074,0.087l0.278,0.154l0.229,0.26l0.111,0.019l0.062,-0.068h0.075l0.154,0.105l0.149,0.049l0.012,0.087l-0.148,0.13l-0.007,0.105l0.075,0.087l-0.019,0.241l-0.043,0.136l0.012,0.414l0.229,0.248l0.105,0.031l0.204,-0.062l0.198,0.031l0.303,0.229l0.044,0.154l-0.099,0.081l-0.013,0.173l0.087,0.149l0.142,0.055l0.204,0.013l0.093,0.055l0.031,0.173l0.121,0.223l0.167,0.13l0.195,0.009l0.25,0.084l0.112,-0.019l0.074,0.047l-0.047,0.244l0.056,0.127l0.149,0.139l0.046,0.186l-0.009,0.167l0.13,0.232l0.148,0.028l0.195,-0.093l0.139,0.046l0.047,0.13l0.083,0.028l0.111,-0.028l0.39,0.186l0.149,0.148l0.12,0.065l0.093,-0.083l0.065,0.009l0.084,0.241l0.167,0.065l0.13,-0.111l0.176,-0.028l0.12,0.074v0.139l0.167,0.526l-0.049,0.622l-0.084,0.086l0.038,0.078l0.16,0.046l0.239,0.025l0.216,-0.093l0.084,-0.096l0.108,-0.034l0.247,0.109l0.078,-0.019l0.015,-0.068l0.115,-0.043l0.055,-0.195l0.075,-0.031l0.154,0.145l-0.015,0.334l0.145,0.127l0.167,0.037l0.127,0.091l-0.005,0.191l-0.074,0.079l-0.014,0.134z"/>
</svg>
