<svg xmlns="http://www.w3.org/2000/svg" viewBox="1159.884 739.795 6.588 11.390">
  <path d="M1166.212619,741.056121l0.037007,-0.027756l0.032381,0.018504l0.004626,0.046259l-0.041633,0.004626l-0.032381,-0.041633Z M1165.250427,741.967428l0.032381,-0.009252l0.009252,-0.02313l-0.027756,-0.018504l-0.02313,0.018504l0.009252,0.032381Z M1165.301312,742.235732l0.041633,0.004626l0.018504,-0.027756l-0.02313,-0.027756l-0.037007,0.013878v0.037007Z M1165.759278,740.477881l-0.083267,0.009252l-0.032381,-0.046259l-0.050885,-0.004626l-0.027756,0.041633l0.046259,0.037007l-0.004626,0.060137l0.037007,0.115648l-0.018504,0.055511l0.027756,0.055511l0.041633,0.009252l0.004626,-0.041633l0.050885,-0.009252l0.046259,0.064763l0.041633,0.018504l0.041633,-0.013878l0.032381,0.027756v0.041633l0.032381,0.027756l0.037007,-0.027756h0.046259l0.018504,0.078641h0.027756l0.013878,-0.055511 l-0.018504,-0.074015l0.069389,-0.078641l0.055511,0.037007l0.032381,-0.02313l-0.013878,-0.046259l0.041633,-0.129526l-0.037007,-0.078641l0.004626,-0.055511l0.074015,-0.074015l0.050885,-0.02313l0.060137,0.009252l0.064763,-0.069389l-0.041633,-0.083267l-0.032381,-0.018504l-0.041633,0.013878l-0.041633,-0.046259l-0.064763,0.009252l-0.037007,0.032381l-0.009252,-0.018504l0.041633,-0.083267l0.037007,-0.041633l0.046259,0.004626l0.037007,-0.013878l-0.009252,-0.046259l0.032381,-0.027756l0.041633,0.027756h0.041633l-0.004626,-0.074015l-0.069389,-0.02313l-0.055511,-0.046259l-0.050885,0.027756l-0.064763,0.009252l-0.152655,-0.046259l-0.047801,0.006168l-0.012336,0.037007l-0.032381,0.026214l-0.064763,0.009252l-0.046259,-0.027756l-0.041633,0.032381l0.004626,0.129526l0.032381,0.046259l-0.004626,0.041633l-0.041633,0.013878l-0.013878,0.060137l0.037007,0.078641l-0.037007,0.106396l-0.046259,0.046259Z M1166.053796,739.841045l0.024672,0.003084l0.006168,-0.033923l-0.018504,-0.01542l-0.012336,0.018504v0.027756Z M1161.54898,748.382119l0.027756,0.004626l0.064763,-0.060137l-0.037007,-0.004626l-0.037007,0.018504l-0.018504,0.041633Z M1160.22134,751.148421l0.041633,0.037007l0.055511,-0.009252l0.032381,-0.055511l-0.032381,-0.046259l-0.064763,0.004626l-0.032381,0.069389Z M1161.206807,750.176254l0.024575,-0.027033l0.03932,-0.007373l0.013059,-0.020383l-0.005686,-0.048428l0.03932,-0.051608l0.044235,0.002458l0.007373,-0.024575l-0.017203,-0.024575l0.009059,-0.016721l0.033923,0.006168l0.024672,-0.02313l-0.01542,-0.035465l0.063269,-0.038983l0.027033,-0.027033l0.024575,-0.081098l0.031948,-0.014745h0.031948l0.035562,-0.02472l0.106396,-0.149572l0.058595,-0.043175l0.030454,-0.062691l-0.024286,-0.045247l0.027756,-0.097144l-0.013878,-0.050885l0.018504,-0.083267l0.064763,-0.018504l0.009252,-0.046259l-0.050885,-0.041633l-0.02313,-0.074015l-0.046259,-0.046259v-0.074015l-0.009252,-0.106396l-0.032381,-0.02313l-0.018504,0.046259h-0.037007l-0.027756,-0.050885l0.032381,-0.050885l-0.02313,-0.032381l-0.037007,0.013878l-0.037007,-0.018504l-0.004626,-0.050885l0.046259,-0.041633l-0.013878,-0.037007l-0.074015,-0.004626l-0.074015,-0.055511l-0.027756,-0.087893l-0.171159,-0.060137l-0.10177,-0.009252l-0.097144,0.041633l-0.078641,-0.013878l-0.120274,0.027756l-0.032381,0.064763l-0.10177,0.078641l-0.078641,0.106396l-0.106396,0.060137l-0.083267,-0.009252l-0.037007,0.02313l-0.041633,0.055511l-0.046259,0.02313l-0.018504,0.069389l-0.032381,0.027756l-0.037007,-0.018504l-0.037007,0.018504l-0.032381,0.055511l-0.078641,0.02313l-0.037007,0.055511l0.004626,0.10177l-0.064763,0.157281l-0.069389,0.027756l-0.055511,0.185037l0.032381,0.342318l0.055511,0.064763l0.02313,0.078641l0.009252,0.14803l0.032381,0.074015l0.050885,0.037007l0.032381,0.032381l-0.009252,0.074015l0.041633,0.050885l0.064763,0.004626l0.041633,0.087893l-0.02313,0.254426l-0.041633,0.004626l-0.013878,0.037007l0.041633,0.046259v0.097144l0.029298,0.041633l0.10177,-0.037007l0.030839,-0.041633l-0.004626,-0.083267l0.046259,-0.009252l0.036872,0.049163l0.004761,0.032562l0.049343,-0.003084l0.027756,-0.030839l-0.006168,-0.061679l0.040091,-0.061679l0.012336,-0.111022l0.029298,-0.072473l0.064763,-0.004626l0.032381,0.041633l0.078641,0.009252l0.027756,-0.032381h0.060137l0.083267,-0.083267l0.104854,-0.074015l0.092518,-0.009252l0.012336,-0.074015l-0.049343,-0.046259l0.01542,-0.032381l0.043175,0.004626l0.018504,-0.01542l0.003229,-0.031562Z M1161.885131,749.492341h0.024672l0.003084,-0.021588l-0.024672,-0.012336l-0.01542,0.018504l0.012336,0.01542Z M1160.941442,750.855446h0.024672l0.018504,-0.024672l-0.018504,-0.01542l-0.021588,0.018504l-0.003084,0.021588Z "/>
</svg>
