<svg xmlns="http://www.w3.org/2000/svg" viewBox="700.433 630.505 0.818 0.408">
  <path d="M700.763031,630.634586l0.088,-0.029l0.002,-0.035l0.025,-0.019h0.032l0.027,-0.045l0.039,0.005l0.03,-0.007l0.081,0.056l0.027,-0.014l0.049,0.024l0.037,-0.024l0.029,0.01l0.022,0.076l-0.014,0.039l-0.025,0.012l-0.007,0.03l0.017,0.017l-0.01,0.025l-0.022,0.014l-0.012,0.045l-0.086,0.098l-0.03,-0.003l0.005,-0.041l-0.015,-0.022l0.01,-0.04l-0.037,-0.022l-0.044,0.007l-0.017,0.025l0.01,0.03l-0.01,0.024l-0.015,-0.017l-0.002,-0.027l-0.027,-0.007l-0.025,0.019l-0.027,-0.012v-0.02l-0.017,-0.002l-0.015,0.024l-0.015,-0.007v-0.032l-0.034,-0.007l-0.03,0.005l-0.034,-0.025l-0.002,-0.025l0.017,-0.012l-0.027,-0.039l-0.049,-0.012l-0.055,0.012l-0.012,0.044h-0.01v-0.029l-0.029,-0.005l-0.037,-0.042l0.002,-0.025l-0.041,-0.022l-0.022,0.003l-0.025,-0.035l0.025,-0.005h0.014l0.064,0.02l0.052,0.002l0.022,0.03l0.044,0.032l0.057,-0.005l0.03,0.046l0.041,0.037h0.015l-0.022,-0.049l-0.012,-0.049z"/>
</svg>
