<svg xmlns="http://www.w3.org/2000/svg" viewBox="1320.450 924.604 8.785 11.288">
  <path d="M1328.310832,926.252592l-0.699,0.326l-3.008,-1.975l-0.661,0.18l-0.308,0.422l-0.94,0.822l-0.089,0.44l-0.968,1.887l-0.503,0.491l-0.228,0.441l-0.173,0.184l-0.177,0.404l-0.107,0.685v1.043l0.084,0.771l0.07,0.124l0.052,0.004l0.144,-0.134l0.118,-0.004l0.171,-0.127l0.018,-0.162l0.028,-0.001l0.07,0.532l0.475,0.368l0.004,0.353l-0.111,0.234l0.163,0.312l0.484,0.391l0.638,0.789l2.286,0.822l3.057,0.017l-0.018,-1.419l0.055,-0.39l0.019,-0.372l0.098,-0.478l0.004,-0.064l-0.023,-0.05l0.005,-0.097l0.107,-0.652l-0.028,-0.041l0.005,-0.069l0.125,-0.014l0.131,0.083l0.084,-0.005l0.107,-0.087l0.112,0.005l0.074,0.032l0.037,0.133l0.061,0.078l0.079,0.009v-2.224l-0.367,-0.843v-0.766l0.19,-0.895l-0.126,-0.932v-0.175l-0.286,-0.08l-0.093,-0.074l-0.051,0.046l-0.191,-0.298z"/>
</svg>
