<svg xmlns="http://www.w3.org/2000/svg" viewBox="1206.017 593.245 69.607 108.524">
  <path d="M1219.413989,701.243343l0.309,0.112l1.163,-0.025v0.068l0.18,0.223l0.253,0.043l0.068,0.105h0.18l0.544,-0.154l0.161,-0.087l0.303,-0.05l0.409,-0.321l-0.025,-0.136l0.093,-0.124l0.34,-0.099l0.185,0.012l0.236,-0.055l0.092,-0.099l0.099,-0.013l0.211,0.068l0.29,-0.117l0.18,-0.18l0.6,-0.154l0.204,-0.242v-0.08l-0.062,-0.031l-0.012,-0.303l0.111,-0.217l0.105,-0.006l0.118,0.124l0.142,-0.031l0.161,-0.291l0.285,-0.21l0.241,-0.093l0.062,0.025l-0.099,0.179l0.049,0.483l0.13,0.093l0.124,0.012l0.21,0.148l0.013,0.427l0.247,0.235l0.247,0.019l0.304,0.229l0.086,0.278l0.161,0.161h0.161l0.099,-0.117l0.142,-0.019l0.105,0.031l0.037,-0.062l-0.049,-0.099v-0.198l0.049,-0.068l0.149,-0.049l0.043,-0.093l0.105,-0.006l0.112,0.037l0.476,-0.05l0.291,-0.161l0.025,-0.148l0.092,-0.031l0.211,0.173l0.161,-0.055l-0.013,-0.174l0.334,-0.161l0.006,-0.117l0.124,-0.074l0.13,0.024l0.093,-0.031v-0.191l0.235,-0.235l0.167,-0.031l0.074,-0.062l-0.006,-0.068l0.099,-0.056l0.229,0.006l0.204,-0.142l0.124,0.006l0.093,-0.031l0.018,-0.105l0.118,-0.037l0.222,0.161h0.087l0.093,-0.105l0.037,-0.235l0.118,-0.019l0.086,0.087l0.074,-0.019l0.025,-0.08l0.13,-0.007l0.254,-0.092l0.08,-0.05l0.043,-0.179l0.13,-0.019l0.075,0.062l0.049,-0.006l0.037,-0.043h0.087l0.049,0.03l1.361,0.161l0.687,-0.408l3.662,-0.204l0.217,-0.093l0.012,-0.068l0.081,-0.049l0.031,-0.05l-0.013,-0.39l0.204,-0.383l0.143,-0.118l0.309,-0.136l0.377,-0.099l0.291,-0.229l0.118,-0.229l-0.007,-0.086l0.081,-0.105l0.142,-0.044l0.142,-0.148l0.062,-0.019l0.037,-0.049l-0.006,-0.155l0.192,-0.291l0.118,-0.024l0.049,-0.05l-0.019,-0.062l0.05,-0.049l0.093,-0.013l0.018,-0.062l-0.043,-0.049l0.031,-0.068l0.192,-0.006l0.086,-0.087l0.081,-0.346l0.105,-0.167l0.012,-0.136l0.037,-0.05l0.093,-0.006l0.124,-0.155l0.111,-0.018v-0.056l-0.105,-0.148l-0.124,-0.069l-0.13,-0.012l-0.272,-0.204l-0.006,-0.074l-0.062,-0.056l-0.161,-0.037l-0.16,-0.105l-0.081,-0.143l-0.124,-0.055l-0.117,0.025l-0.087,-0.081l-0.018,-0.192l-0.062,-0.049l-0.142,0.062l-0.081,-0.037l0.019,-0.137l0.154,-0.173l0.087,0.006l0.049,-0.03l-0.006,-0.112l0.149,-0.068h0.173l0.148,-0.062l0.068,-0.216l0.205,-0.124l0.21,-0.043l0.117,-0.099l0.143,-0.031l0.099,0.062l0.408,-0.007l0.124,-0.105h0.507l0.124,0.075l0.21,0.012l0.149,-0.05l0.315,0.013l0.18,-0.044l0.266,0.019l0.024,0.08l0.081,0.007l0.142,-0.037l0.074,-0.112h0.062l0.05,0.056l0.167,-0.006l0.08,-0.05l0.235,-0.037l0.285,0.012l0.08,0.062h0.087l0.049,-0.043l0.328,-0.025l0.186,-0.111l0.445,-0.037l0.068,-0.056h0.087l0.086,0.074l0.093,-0.006l0.112,-0.08l0.278,-0.056l0.093,0.068l0.055,-0.018l-0.037,-0.087l0.062,-0.074l0.39,-0.081l0.093,0.019l0.055,-0.043l-0.024,-0.093l0.111,-0.044l0.043,-0.092l0.075,-0.013l0.136,0.074l0.086,-0.024l0.031,-0.112l0.074,-0.018l0.18,0.105l0.396,0.025l0.099,-0.081l0.204,0.019l0.142,0.136l0.365,0.049l0.316,-0.03l0.074,-0.099l0.284,-0.093l0.106,0.031l0.111,-0.019l0.124,-0.377l0.161,-0.099l0.142,-0.013l0.056,-0.061l-0.167,-0.365l0.037,-0.069l0.123,-0.012l0.068,-0.043l0.05,-0.186l0.105,-0.006l0.043,0.05h0.081l0.049,-0.075h0.056l0.142,0.192l0.359,-0.012l0.031,-0.062l-0.087,-0.081l-0.006,-0.278l0.099,-0.087l0.173,-0.074l0.31,0.019l0.148,-0.025l0.056,-0.155l0.185,-0.092l0.137,0.08l0.068,-0.031l-0.025,-0.217l0.099,-0.105l0.155,0.037l0.055,-0.043l-0.031,-0.08l0.05,-0.143l0.161,-0.055l0.099,0.043l0.055,-0.019l-0.006,-0.278l0.08,-0.037l0.106,0.019l0.049,-0.025l-0.025,-0.254l0.056,-0.056l0.142,0.013l0.031,-0.062l-0.123,-0.08l0.018,-0.05l0.118,0.006l0.006,-0.062l-0.081,-0.055l0.025,-0.05l0.099,-0.025l0.013,-0.117l-0.161,-0.062l-0.028,-0.074l0.037,-0.037l0.179,0.071l0.022,-0.025l-0.068,-0.195l0.049,-0.028l0.087,0.084l0.127,-0.025l0.003,-0.111l-0.084,-0.05l0.004,-0.089l0.145,-0.062l0.028,0.018l0.015,0.068l0.071,0.019l0.062,-0.009l0.034,-0.071l0.263,-0.133l0.013,-0.069l-0.034,-0.049l0.027,-0.155l0.288,-0.312l0.285,-0.108l0.024,-0.075l-0.049,-0.089l0.083,-0.164l0.146,-0.05l0.108,-0.219l0.127,-0.013l0.13,0.13l0.055,0.003l0.056,-0.065h0.077l0.115,0.124l0.08,-0.012l0.047,-0.087l0.269,-0.108l0.04,-0.248l0.059,-0.102l0.145,-0.021l0.053,-0.059l-0.047,-0.099l0.028,-0.062l0.059,-0.016l0.025,-0.061l-0.05,-0.13l0.019,-0.075l0.08,-0.018l0.05,-0.056l-0.031,-0.093l0.055,-0.043l0.075,0.013l0.055,-0.05l0.007,-0.099l0.142,-0.093l0.025,-0.105l0.111,-0.087h0.111l0.093,0.081h0.204l0.124,-0.099l0.093,-0.025l0.093,0.019l0.204,-0.037l0.031,-0.056l-0.081,-0.074l0.019,-0.068l0.086,-0.099l0.217,-0.075l0.124,-0.179l0.006,-0.105l-0.062,-0.081l0.025,-0.055h0.093l0.018,-0.056l-0.043,-0.08l0.012,-0.093l0.198,-0.18l-0.006,-0.068l-0.093,-0.012l-0.018,-0.049l0.018,-0.075l-0.031,-0.117l-0.111,-0.056l-0.124,-0.142v-0.186l0.062,-0.074l0.019,-0.087l-0.025,-0.377l0.08,-0.353l0.081,-0.006l0.049,0.062h0.068l0.124,-0.167l0.098,-0.098l0.186,-0.047l0.167,0.084h0.129l0.168,-0.111l0.092,-0.177l0.371,-0.139l0.195,0.019l0.13,-0.056l-0.028,-0.251l0.065,-0.204l0.205,-0.185l0.371,-0.019l0.417,0.13l0.121,-0.056l0.093,-0.287l0.157,-0.158l0.084,-0.167l0.134,-0.041l0.099,0.031l0.167,-0.031l0.105,-0.111l0.173,-0.038l0.143,0.013l0.352,-0.087l0.117,-0.186l0.205,-0.093l0.322,0.019l0.136,0.05h0.111l0.247,-0.023l0.195,0.056l0.167,0.093l0.139,0.028l0.204,-0.028l0.438,0.107l0.091,0.116l0.326,0.078l0.13,-0.019l0.133,0.031l0.051,-0.005l0.361,-1.146l0.358,-0.736l-0.062,-0.6l-0.316,-0.08l0.081,-0.736l-0.767,0.055l-0.273,0.087l-0.012,-0.26l-0.167,-0.217l-0.68,-0.266l-0.31,-0.315l-0.321,-0.452l-0.044,-0.488l0.217,-1.132l0.297,-1.182l0.055,-0.142l-0.049,-0.031l-0.056,0.018l-0.037,0.081l-0.21,0.037l-0.18,0.006l-0.117,-0.037l-0.124,0.037l-0.08,0.118l-0.143,0.024l-0.086,-0.037l-0.013,-0.093l0.044,-0.08l0.012,-0.229l0.056,-0.13l0.006,-0.34l-0.142,-0.495l-0.167,-0.316l-0.13,-0.494l0.031,-0.081v-0.093l-0.217,-0.259l-0.087,-0.007l-0.068,-0.055l0.007,-0.099l0.074,-0.062l0.037,-0.074l-0.006,-0.068l0.167,-0.18l0.13,-0.043l0.031,-0.062l-0.037,-0.08l0.006,-0.069l0.062,-0.055l0.198,-0.52l-0.978,-0.334l-0.841,-0.507l0.007,0.3l-0.315,0.283l-1.369,0.264l-0.055,-0.032l-0.005,-0.065l-0.111,-0.144l-0.167,-0.083l-0.056,-0.079l0.004,-0.084l-0.069,-0.102l-0.098,-0.065l-0.046,-0.116l0.046,-0.134l-0.046,-0.079l-0.102,-0.024l-0.162,-0.176l0.014,-0.093l0.162,-0.069l0.07,-0.098v-0.204l0.037,-0.111l0.116,-0.176l0.027,-0.2l0.121,-0.274l0.172,-0.167l0.037,-0.093l-0.033,-0.116l0.028,-0.092l0.126,-0.084l0.111,-0.009l0.107,-0.074l0.027,-0.089l0.126,-0.134l0.023,-0.13l0.065,-0.056l0.181,0.019l0.148,-0.023l0.121,-0.126l0.125,-0.023l0.079,0.019l0.149,-0.051l0.088,-0.158l0.19,-0.209l0.005,-0.125l0.037,-0.06l0.125,-0.051l0.195,-0.246l0.093,-0.024l0.037,-0.037l0.004,-0.069l0.186,-0.163l0.051,-0.134l-0.019,-0.144l-0.153,-0.162l-0.106,-0.024l-0.056,-0.079l0.019,-0.078l-0.042,-0.093l-0.065,-0.033l-0.051,-0.106l0.009,-0.205l-0.032,-0.092l0.018,-0.144l-0.009,-0.163l-0.149,-0.181l-0.106,-0.046l-0.051,-0.046l-0.051,-0.107l-0.079,-0.037l-0.051,-0.07l0.009,-0.083l-0.037,-0.07l-0.125,-0.125v-0.121l0.074,-0.083l0.009,-0.088l-0.051,-0.149l-0.255,-0.223l-0.051,-0.004l-0.037,-0.033l0.895,-0.974v-0.06l0.033,-0.028l0.046,-0.005l0.023,-0.032l-0.037,-0.079l0.009,-0.056l0.256,-0.009l0.032,-0.047l0.084,-0.037l0.143,-0.009l0.186,-0.251l0.246,-0.074l0.223,-0.218l0.31,-0.005l0.302,-0.343l0.339,-0.069l0.241,-0.497l-0.158,-0.144l-0.004,-0.069l0.041,-0.047v-0.051l-0.352,-0.093h-0.125l-0.052,0.051l-0.069,-0.013l-0.255,-0.348v-0.112l0.051,-0.065l0.074,-0.014l0.088,-0.088v-0.102l-0.083,-0.13l-0.065,-0.255l0.046,-0.52l-0.121,-0.111l-0.204,-0.113l-0.031,0.062l-0.055,-0.006l0.185,-0.625l0.217,-0.043l0.142,-0.136l0.223,-0.075l0.557,-0.062l0.89,-0.321l-0.012,-0.198l-0.269,-0.854l0.065,-0.186l0.241,-0.12l0.158,0.018l0.074,-0.055l0.019,-0.112l-0.065,-0.167l0.037,-0.157l0.213,-0.186l0.102,-0.186l0.121,-0.092l0.232,-0.121l0.046,-0.139l0.158,-0.102l0.241,-0.01l0.112,-0.074l0.028,-0.139l-0.075,-0.176l0.028,-0.112l0.158,-0.083l0.13,-0.112l0.046,-0.12l0.112,-0.084l0.009,-0.102l-0.111,-0.13l-0.01,-0.148l0.121,-0.195l0.009,-0.121l-0.065,-0.102l-0.046,-0.38l-0.121,-0.251l-0.26,-0.213l-0.065,-0.177l0.038,-0.343l0.092,-0.158l0.334,-0.12l0.251,-0.232l0.102,-0.186l0.353,-0.362l0.213,-0.139l0.427,0.019l0.204,0.055l0.325,0.037l0.223,0.075l0.204,0.018l0.538,-0.074l0.102,-0.111l0.325,-0.167l0.807,-0.167l0.529,0.027l0.26,0.084l0.148,0.018l0.149,-0.037l0.584,0.084l0.344,0.111l0.352,0.047l0.273,0.094v-25.969l-31.935,-17.211l-9.039,-4.556l-11.856,-5.604l-6.644,3.074l1.334,7.096l0.037,3.517l0.557,0.352l2.068,3.164l0.159,0.109l-0.01,0.123l-0.064,0.101l-0.087,0.269l-0.399,0.249l-0.062,0.186l0.087,0.34l0.68,0.489l0.037,0.173l0.439,0.588l0.025,0.179l-0.012,0.161l0.192,0.161l0.29,0.025l0.322,0.204l0.056,0.204l0.148,0.124l0.173,0.012l0.734,0.643l-1.572,2.636l-0.086,0.235l-1.114,7.758l-0.599,12.896l-7.49,7.868l-1.28,1.8l-1.448,2.116l-0.649,0.686l-0.501,1.188v0.575l0.13,0.427l-0.307,0.223l-0.12,-0.028l-0.483,0.418l0.13,0.139v0.436l-0.427,0.288l-0.204,0.018l-0.167,-0.009l-0.51,0.213l-0.13,0.13l-0.01,0.353l1.047,4.757l1.521,2.158l1.445,2.051l2.538,-0.022l0.53,1.029l-0.105,0.068l-0.038,0.112l0.05,0.154l0.161,0.068l0.055,0.161l-0.006,0.124l-0.068,0.099l-0.018,0.148l0.099,0.056l0.061,-0.012l0.05,0.061v0.106l0.111,0.031l0.105,-0.081l0.05,0.013l0.006,0.123l0.241,0.112l0.205,-0.019l0.185,0.056l0.019,0.136l-0.099,0.148l0.043,0.124l0.087,-0.019l0.099,-0.136h0.061l0.087,0.068l0.019,0.211l0.185,0.093l0.13,-0.038l0.124,0.056l0.025,0.136l0.123,0.322l-0.024,0.179l0.055,0.118l-0.012,0.148l-0.068,0.105l-0.019,0.124h0.081l0.099,-0.049l0.055,0.037v0.167l0.192,0.284l0.006,0.13l-0.068,0.081v0.093l0.037,0.068l-0.006,0.08l-0.086,0.056l-0.007,0.08l0.081,0.105l0.006,0.087l-0.093,0.105v0.056l0.062,0.08l0.013,0.105l-0.075,0.081l0.013,0.08l0.111,0.081l-0.012,0.068l-0.118,0.024l-0.012,0.093l0.123,0.074l0.118,0.155l0.217,0.186l0.148,-0.006l0.093,-0.112h0.13l0.154,0.056l-0.006,0.111l0.081,0.142l0.068,0.087l-0.019,0.118l-0.074,0.049l-0.013,0.136l0.291,0.087l-0.043,0.111l-0.111,0.006l-0.093,0.075l0.08,0.204l-0.037,0.099l-0.099,0.031l-0.012,0.117l0.117,0.359h0.093l0.043,-0.074l0.087,0.012l0.049,0.211l0.143,0.216l-0.056,0.08l-0.142,0.013l-0.044,0.08l0.13,0.173l-0.037,0.069l-0.142,0.006l-0.068,0.142l0.235,0.749l0.192,0.142l0.093,0.111l-0.044,0.248l-0.247,0.173l-0.235,0.544l0.031,0.217l-0.007,0.093l-0.098,0.074l-0.007,0.068l0.13,0.099v0.074l-0.099,0.087l-0.031,0.161l0.068,0.105v0.154l-0.031,0.068l0.127,0.307l0.121,0.102l0.046,0.111l-0.028,0.241l0.047,0.232l-0.074,0.325l-0.269,0.139v0.121l0.232,0.334l0.027,0.548l-0.111,0.111l-0.037,0.158l0.185,0.519l0.232,0.288l0.158,0.594l-0.079,0.181l0.005,0.352l0.232,0.26l0.209,0.051l0.236,0.209l0.047,0.181l0.213,0.278l-0.004,0.135l0.083,0.186l0.014,0.074l0.088,0.134l-0.009,0.065l0.032,0.037l0.158,0.028l0.13,0.102l0.028,0.102l0.297,0.214l0.037,0.13l0.237,0.199l0.088,0.2l0.153,0.223l0.06,0.023l0.135,0.157l0.092,0.005l0.042,0.028l0.01,0.042l0.199,0.12l0.111,0.028l0.079,0.037l0.042,0.075l0.19,0.111l0.088,0.009l0.325,0.251l-1.819,0.403l-0.31,-0.162l-0.766,-0.186l-0.195,-0.004l-0.074,-0.033l-0.116,-0.004l-0.065,0.037l-0.093,-0.005l-0.079,-0.042l-0.134,0.005l-0.13,0.046l-0.088,0.158l-0.269,0.093l-0.246,-0.13l-0.181,-0.005l-0.297,-0.092l-1.03,0.338l-2.042,-0.436l-0.12,-0.051l-0.065,0.033l-1.652,-0.038l-0.241,0.65l-0.339,0.585l-0.705,0.589l-0.158,0.241l-0.093,0.357l0.111,0.14l0.205,0.055l0.292,0.353l0.083,0.032l0.061,0.051l0.041,0.181l0.135,0.102l0.181,0.052l0.181,0.167l0.037,0.148l0.074,0.033l0.071,-0.004l0.161,0.174l0.223,0.382l0.107,0.027l0.116,-0.041l0.079,0.023l0.199,0.329l0.232,0.144l0.005,0.195l-0.153,0.353l0.032,0.153l0.144,0.069l0.292,0.283l0.269,0.135l0.172,0.283l0.009,0.102l0.6,0.359l1.702,1.262l0.099,0.006l0.136,-0.049l0.179,0.061l0.111,0.205l-0.031,0.111l0.087,0.074l0.173,0.006l0.223,0.149l-0.006,0.241l0.056,0.056h0.142l0.13,0.056l0.179,-0.013l0.309,0.13l0.013,0.105l0.068,0.093l0.198,0.161l0.043,0.198l0.074,0.111l0.075,0.229l0.148,0.074l1.287,2.747v0.371l0.371,1.033l0.39,0.604l0.492,0.106l0.046,0.079l0.019,0.464l-0.014,0.121l-0.084,0.088l-0.009,0.07l0.023,0.055l-0.019,0.125l-0.064,0.061l-0.024,0.167l-0.171,0.223l-0.288,0.185v0.04z"/>
</svg>
