<svg xmlns="http://www.w3.org/2000/svg" viewBox="1448.362 1077.358 14.208 4.553">
  <path d="M1449.951372,1077.544601l0.01966,-0.027033l0.036863,0.002458l0.007373,0.034405l-0.014745,0.036863l-0.024575,-0.00983l-0.002458,-0.022118l-0.022118,-0.014745Z M1448.363813,1078.655401l0.017203,0.03932l0.004915,0.041778l0.046693,0.058981l0.081098,0.066353l-0.007373,0.024575l0.012288,0.012288l0.024575,-0.007373l0.022118,0.012288l-0.004915,0.017203l0.036863,0.012288l0.034405,-0.007373l0.098301,0.041778h0.031948l0.078641,0.012288l0.063896,0.054065l0.022118,0.071268l0.017203,0.014745l0.014745,-0.027033l0.066353,-0.024575l0.031948,-0.066353l0.024575,-0.012288l0.03932,0.004915l0.03932,-0.022118l0.036863,-0.113046l0.027033,-0.036863l-0.00983,-0.098301l-0.014745,-0.041778l0.017203,-0.056523l-0.024575,-0.056523l-0.095843,-0.046693l-0.022118,-0.031948l-0.004915,-0.066353l-0.044235,-0.04915l-0.068811,-0.00983l-0.041778,0.022118l-0.046693,0.002458l-0.056523,0.02949l-0.108131,-0.024575l-0.162196,0.014745l-0.115504,0.090928l-0.061438,0.115504v0.03932Z M1450.069333,1077.559347l0.036863,0.007373l0.004915,-0.022118l0.027033,-0.024575l0.117961,-0.04915l-0.022118,-0.01966l-0.046693,0.00983l-0.036863,-0.022118l-0.103216,0.051608l-0.007373,0.034405l0.02949,0.034405Z M1450.113568,1077.39715l0.027033,-0.002458l-0.002458,-0.027033l-0.017203,-0.00983l-0.01966,0.022118l0.012288,0.017203Z M1449.862901,1077.527399l0.024575,-0.004915l0.012288,-0.012288l-0.01966,-0.004915l-0.02949,0.014745l0.012288,0.007373Z M1449.828496,1077.687138l0.01966,-0.002458l0.004915,-0.017203l-0.017203,-0.00983l-0.014745,0.012288l0.007373,0.017203Z M1449.749855,1077.689595l0.01966,-0.007373l0.002458,-0.017203l-0.014745,-0.004915l-0.014745,0.00983l0.007373,0.01966Z M1449.877646,1077.6257l0.027033,-0.002458l0.004915,-0.017203l-0.01966,-0.00983l-0.022118,0.012288l0.00983,0.017203Z M1449.963659,1081.420113l0.076183,0.03932l0.035273,0.000193l0.016335,-0.027225l-0.012288,-0.036863l-0.044235,-0.027033l0.012288,-0.024575l-0.014745,-0.017203l-0.041778,0.012288l-0.034405,-0.004915l-0.014745,-0.022118l-0.031948,-0.017203l-0.036863,-0.044235l-0.034405,-0.007373l-0.00983,0.01966l0.041778,0.031948l-0.012288,0.063896l0.024575,0.03932l0.081098,0.022118Z M1458.087214,1081.030957l0.032381,0.018504l0.027756,-0.041633l-0.027756,-0.027756l-0.032381,0.018504v0.032381Z M1458.102971,1081.203851h0.02949l0.054065,0.034405l0.004915,0.03932l-0.01966,0.022118l-0.004915,0.02949l0.088471,0.061438l0.036863,0.051608l0.004915,0.063896l0.081098,0.095843l0.044235,0.004915l0.036863,-0.014745l0.02949,0.012288l0.00983,0.034405l-0.014745,0.03932l0.031948,0.022118l0.058981,-0.004915l0.061438,0.034405l0.014745,0.071268l-0.014745,0.044235l0.01966,0.004915l0.034405,-0.027033l0.036863,-0.004915l0.076183,-0.04915h0.041778l0.061438,0.022118l0.090928,0.012288l0.063896,-0.002458l0.061438,0.02949l0.051608,0.04915h0.017203l0.00983,-0.02949l0.036863,-0.02949l0.071268,-0.002458l0.054065,-0.02949l0.066353,-0.083556l0.031948,-0.00983l0.027033,-0.017203l-0.014745,-0.024575l0.00983,-0.01966l0.02949,-0.007373l0.036863,-0.044235l0.04915,-0.017203l0.002458,-0.03932l-0.02949,-0.027033l0.002458,-0.036863l0.046693,-0.051608v-0.036863l-0.034405,-0.007373l-0.088471,-0.066353l-0.002458,-0.031948l-0.058981,-0.061438h-0.04915l-0.071268,0.03932l-0.03932,-0.027033l-0.012288,-0.036863l-0.041778,-0.017203l-0.02949,0.012288l-0.041778,-0.017203l-0.005782,-0.03614l0.032381,-0.069389l-0.018504,-0.02313l-0.046259,0.013878l-0.060137,-0.02313l-0.018504,-0.046259l0.025876,-0.07387l0.007373,-0.056523l-0.036863,-0.017203l-0.070401,0.055077l-0.041633,-0.018504l0.008818,-0.039031l-0.014745,-0.031948l-0.169569,-0.024575l-0.024575,-0.01966l-0.034405,0.002458l-0.002458,0.063896l-0.01966,0.022118l-0.031948,0.00983l-0.01966,0.044235l-0.034405,0.00983l-0.027033,-0.01966l-0.034405,-0.004915l-0.154824,0.113046l-0.086013,0.031948l-0.016624,0.04597l-0.115648,0.055511l-0.050885,0.055511l0.011131,0.024864Z M1461.061827,1081.486466l0.058981,0.066353l0.058981,0.03932l0.027033,0.04915l-0.004915,0.041778l0.01966,0.002458l0.012288,-0.02949h0.022118l-0.002458,0.022118l0.012288,0.002458l0.027033,-0.022118l0.024575,0.004915l0.002458,0.01966l0.041778,0.02949l0.058981,0.004915l0.176942,0.103216v0.01966l-0.014745,0.022118l0.012288,0.00983l0.02949,-0.017203l0.115504,0.056523l0.058981,-0.004915l0.034405,-0.01966l0.022118,-0.046693l0.027033,-0.022118l0.063896,-0.002458l0.066353,0.027033l0.105673,0.054065h0.044235l0.117961,-0.046693l0.059221,-0.042067l0.077099,-0.006168l0.040091,-0.027756l0.006168,-0.037007l0.104854,-0.095602l0.003084,-0.024672l-0.040091,-0.033923l-0.012336,-0.083267l0.018504,-0.033923l-0.012336,-0.040091l-0.074015,-0.064763l-0.052427,-0.009252l-0.135694,-0.111022l-0.043175,-0.052427l-0.098686,-0.024672l-0.095602,0.006168l-0.080183,0.027756l-0.061679,-0.021588l-0.009252,-0.049343l-0.024672,-0.021588l-0.129526,-0.003084l-0.067847,0.012336l-0.089435,0.052427l-0.037007,0.043175l-0.046259,0.009252l-0.024672,-0.021588l-0.033923,-0.003084l-0.037007,0.027756l-0.135694,0.030839l-0.061679,0.049343l-0.037007,0.006168l-0.052427,-0.006168l-0.046259,0.037007l-0.011179,0.073388l0.022118,0.073726Z "/>
</svg>
