<svg xmlns="http://www.w3.org/2000/svg" viewBox="1570.112 1099.549 13.021 9.807">
  <path d="M1577.504356,1107.642465l0.10177,0.058876l0.061679,0.19429l-0.024672,0.058876l-0.049343,-0.029438l-0.111022,-0.253165l0.021588,-0.029438Z M1579.479625,1107.328952l0.037007,0.017663l0.041633,-0.017663l-0.02313,-0.039741l-0.041633,0.004416l-0.013878,0.035325Z M1570.334175,1100.241791l0.129526,-0.017663l0.138778,-0.150133l-0.055511,-0.079482l-0.333066,0.026494l-0.10177,0.052988l0.009252,0.105976l0.212792,0.061819Z M1575.991679,1104.714872l0.046259,-0.03091l-0.032381,-0.035325h-0.106396l-0.027756,-0.052988l-0.064763,-0.026494l-0.046259,0.017663v0.070651l0.231296,0.057404Z M1577.467348,1104.630974l0.041633,-0.008831l-0.02313,-0.035325l-0.050885,-0.008831l-0.018504,0.039741l0.050885,0.013247Z M1571.254734,1099.853211l0.074015,0.044157l0.166533,-0.119223l0.018504,-0.066235l-0.064763,-0.075067l-0.009252,-0.061819l-0.083267,-0.026494l-0.083267,0.026494l-0.027756,0.105976l0.032381,0.061819l-0.013878,0.048572l-0.074015,0.017663l-0.009252,0.035325l0.074015,0.008831Z M1570.895791,1100.137195l0.03932,-0.023458v-0.039879l-0.044235,-0.014075l-0.024575,0.014075l0.002458,0.060992l0.027033,0.002346Z M1571.01621,1100.165345l0.017203,-0.02815l-0.01966,-0.063337l-0.034405,-0.009383l-0.01966,0.030496l0.027033,0.075067l0.02949,-0.004692Z M1570.901622,1101.101376l0.01542,-0.044157l-0.030839,-0.02355l-0.055511,0.041213l-0.012336,0.032382l0.083267,-0.005888Z M1573.695679,1102.958904l0.046259,0.038269l0.144946,-0.026494l0.166533,-0.17074l0.021588,-0.047101l0.089435,-0.058876l-0.009252,-0.044157l-0.027756,-0.050044l0.018504,-0.032382l0.080183,0.002944l0.024672,-0.079482l-0.01542,-0.041213l-0.040091,-0.020606l-0.055511,0.017663l-0.006168,-0.032382l0.037007,-0.061819l0.080183,-0.002944l0.040091,-0.088314l0.086351,-0.082426l-0.012336,-0.029438l-0.052427,0.005888l-0.064763,0.082426h-0.046259l-0.043175,-0.070651l0.012336,-0.079482l-0.012336,-0.035325l-0.037007,-0.032382l0.009252,-0.070651l0.077099,-0.041213l0.006168,-0.029438l-0.030839,0.002944l-0.083267,0.044157l-0.058595,0.100089l-0.064763,0.061819l-0.10177,0.188402l-0.070931,0.211952l-0.061679,0.014719l-0.009252,0.038269l0.037007,0.070651l-0.009252,0.100089l0.021588,0.058876l-0.040091,0.123639l-0.046259,0.064763Z M1573.680259,1102.614481l0.033923,-0.011775l-0.009252,-0.026494h-0.040091l-0.009252,0.029438l0.024672,0.008831Z M1575.903786,1100.568551l0.060137,0.044157l0.10177,0.026494l0.083267,-0.022078l-0.013878,-0.048572l-0.10177,-0.026494l-0.032381,-0.03091l0.018504,-0.044157l0.143404,-0.079482l-0.037007,-0.017663h-0.212792l-0.027756,0.035325l0.055511,0.052988l0.009252,0.061819l-0.046259,0.048572Z M1575.848275,1100.851154l0.046259,-0.017663l0.097144,-0.017663l0.009252,-0.039741l-0.037007,-0.017663l-0.087893,0.008831l-0.060137,0.052988l0.032381,0.03091Z M1575.464324,1101.981568l0.22667,0.189874h0.037007l0.041633,0.013247l-0.013878,0.048572l0.060137,0.017663l0.277555,-0.203121l0.004626,-0.097145l-0.050885,-0.035325l-0.069389,0.039741l-0.041633,-0.008831l0.009252,-0.057404l-0.032381,-0.022078l-0.111022,0.004416l-0.074015,0.013247l-0.009252,-0.044157l0.050885,-0.044157l0.013878,-0.092729l-0.097144,-0.044157l-0.240548,0.066235l-0.046259,0.079482l0.064763,0.176627Z M1577.134282,1104.079014l0.02313,0.066235l0.087893,0.022078l0.083267,-0.013247l0.009252,-0.057404l-0.060137,-0.083898l-0.069389,0.004416l-0.074015,0.061819Z M1576.236853,1104.829679l0.360822,0.092729l0.360822,0.013247l0.161907,-0.083898l0.046259,-0.057404l-0.10177,-0.114808l0.060137,-0.198705l0.064763,-0.035325l0.004626,-0.061819l-0.208167,-0.022078l-0.175785,0.070651l-0.152655,0.101561l-0.074015,0.061819l-0.309937,0.092729l-0.069389,0.088314l0.032381,0.052988Z M1575.931542,1103.244451l0.074015,-0.189874l-0.046259,-0.017663l-0.087893,0.044157l-0.046259,0.119223l0.027756,0.061819l0.078641,-0.017663Z M1575.589224,1102.36426l0.033923,-0.005888l0.049343,-0.067707l-0.021588,-0.044157l-0.107938,-0.08537l-0.061679,0.002944l-0.027756,0.179571l0.030839,0.091257l0.033923,-0.002944l0.01542,-0.08537l0.024672,-0.002944l0.030839,0.020606Z M1575.678658,1102.429023l0.074015,-0.061819l-0.006168,-0.061819l-0.049343,-0.005888l-0.052427,0.073595v0.052988l0.033923,0.002944Z M1576.357127,1101.863816l0.037007,0.011775l0.049343,-0.047101l-0.030839,-0.014719l-0.046259,0.017663l-0.009252,0.032382Z M1577.035596,1103.229732l0.009252,0.029438l0.077099,-0.002944l0.067847,-0.035325l-0.021588,-0.029438h-0.074015l-0.058595,0.038269 Z M1576.77346,1103.447572l0.009252,0.038269h0.114106l0.191205,-0.047101l0.052427,-0.044157l-0.033923,-0.029438l-0.215876,0.029438l-0.11719,0.052988Z M1574.281629,1108.413737l0.055511,0.035325l0.080183,-0.082426l-0.037007,-0.100089l-0.043175,-0.02355l-0.067847,0.035325l-0.024672,0.070651l0.037007,0.064763Z M1578.259923,1107.477613l0.080183,0.100089l0.413249,0.200177l0.160365,0.011775l0.191205,0.111864l0.080183,0.129527l0.160365,0.058876l0.074015,-0.029438l-0.006168,-0.064763l-0.222044,-0.235503l-0.209709,-0.064763l-0.061679,-0.094201l-0.141862,-0.111864l-0.376242,-0.035325l-0.049343,-0.088314l-0.098686,-0.029438l-0.030839,0.052988l0.037007,0.088314Z M1577.556783,1108.307761l0.080183,0.005888l0.061679,0.070651l-0.049343,0.111864l-0.012336,0.094201l0.055511,0.02355l0.098686,-0.147189l-0.104854,-0.200177l-0.086351,-0.052988l-0.061679,0.041213l0.018504,0.052988Z M1577.951528,1108.849417h0.086351l0.006168,-0.117751l-0.160365,-0.17074h-0.061679l-0.074015,0.105976l0.037007,0.100089l0.166533,0.082426Z M1571.222352,1106.291268l0.129526,-0.026494l0.069389,-0.101561l-0.013878,-0.150133l-0.106396,-0.044157l-0.208167,0.048572l-0.245174,-0.017663l-0.300685,-0.128055l-0.10177,0.03091l-0.064763,0.185458l0.074015,0.083898l0.263678,0.039741l0.111022,-0.03091l0.235922,0.039741l0.157281,0.070651Z M1576.785796,1102.532055l0.024672,0.058876l0.055511,0.017663l0.030839,-0.047101l-0.012336,-0.100089h-0.049343l-0.049343,0.070651Z M1576.446561,1105.28155l0.203541,0.005888l0.067847,-0.035325l-0.154197,-0.082426l-0.135694,-0.005888l-0.043175,0.082426l0.061679,0.035325Z M1576.785796,1105.205012l0.135694,0.011775l-0.012336,-0.052988l-0.141862,-0.017663l-0.061679,0.011775l0.080183,0.047101Z M1577.266892,1105.004834l0.080183,0.005888l0.074015,-0.041213l-0.018504,-0.076538h-0.104854l-0.080183,0.070651l0.049343,0.041213Z M1574.096592,1104.003948l0.037007,0.088314h0.067847l0.11719,-0.117751l0.326899,-0.035325l0.333066,-0.100089l0.012336,-0.070651l-0.067847,-0.070651l0.006168,-0.088314l0.098686,-0.076538l0.018504,-0.19429l-0.160365,-0.070651l0.018504,-0.041213l0.209709,-0.070651l0.394745,-0.476893l-0.006168,-0.094201l-0.067847,-0.041213l-0.166533,0.041213l-0.172701,0.082426l-0.11719,0.005888l-0.166533,0.129527l-0.061679,0.005888l0.129526,-0.153077l0.228212,-0.129527l0.129526,-0.035325l0.049343,-0.100089l-0.061679,-0.164852l-0.129526,-0.052988l-0.172701,0.082426l-0.178869,0.211952l-0.111022,0.041213l-0.074015,0.041213l-0.067847,0.129527l-0.185037,0.111864l-0.197373,0.223728l-0.030839,0.105976l0.037007,0.359142l0.086351,0.147189v0.105976l-0.104854,0.270828Z M1575.040281,1103.909747l0.030839,0.117751l0.092518,0.076538l0.135694,-0.005888l0.166533,-0.041213l0.166533,0.041213l0.185037,0.094201l0.481096,0.082426l0.296059,-0.017663l0.123358,-0.047101l0.302227,-0.02355l0.080183,-0.035325l-0.092518,-0.02355l-0.357738,0.035325l-0.098686,0.041213l-0.043175,-0.035325l0.012336,-0.070651l0.129526,-0.064763l0.222044,0.02355l0.228212,-0.052988l0.012336,-0.058876l-0.111022,-0.035325l-0.277555,0.035325l-0.172701,-0.02355l0.049343,-0.041213l0.185037,-0.017663l0.11719,-0.088314l0.246716,-0.017663l0.037007,-0.076538l-0.061679,-0.129527l-0.172701,-0.02355l-0.172701,0.005888l-0.160365,-0.058876l-0.086351,0.017663l-0.049343,-0.02355l0.098686,-0.076538l0.197373,-0.02355l0.037007,-0.058876l-0.024672,-0.100089l-0.086351,-0.029438l-0.246716,0.041213l-0.024672,-0.02355l0.185037,-0.047101l0.074015,-0.047101l0.123358,-0.017663l0.098686,-0.100089v-0.064763l-0.104854,-0.017663l-0.104854,0.094201l-0.215876,0.02355l-0.055511,-0.02355l0.215876,-0.117751l0.037007,-0.100089l-0.092518,-0.100089l-0.11719,0.005888l-0.123358,0.094201l-0.086351,0.123639l-0.037007,0.253165l-0.172701,0.24139l-0.030839,0.141302l0.043175,0.088314l-0.049343,0.117751l-0.259052,0.158964l-0.092518,-0.017663l0.043175,-0.058876l0.104854,-0.070651l0.055511,-0.188402l-0.067847,-0.270828l-0.123358,-0.029438l-0.296059,0.229615l-0.043175,0.117751l-0.222044,0.235503l-0.080183,0.058876Z M1577.684767,1107.655712l0.041633,0.101561l0.041633,0.004416l0.02313,-0.039741l-0.069389,-0.066235h-0.037007Z M1581.121828,1107.540905l0.009252,0.075067l0.050885,0.013247l0.037007,-0.052988l-0.060137,-0.066235l-0.037007,0.03091Z M1580.918287,1107.386356l0.064763,0.057404l0.074015,-0.004416l-0.032381,-0.044157l-0.074015,-0.035325l-0.032381,0.026494Z M1579.909836,1107.169988l0.046259,0.03091l0.171159,-0.057404l-0.004626,-0.057404l-0.078641,-0.013247l-0.134152,0.097145Z M1579.697043,1107.214145l0.060137,0.013247l0.060137,-0.057404l-0.004626,-0.035325l-0.078641,0.013247l-0.069389,-0.022078l-0.041633,0.026494l0.074015,0.061819Z M1579.942217,1107.364278l0.152655,-0.013247l-0.013878,-0.039741h-0.060137l-0.106396,-0.057404l-0.060137,-0.017663l-0.069389,0.048572l0.157281,0.079482Z M1579.67854,1107.461423l0.078641,0.008831l0.046259,-0.026494l-0.041633,-0.035325l-0.111022,-0.013247l-0.032381,0.03091l0.060137,0.035325Z M1579.285336,1107.457007l0.087893,0.017663l0.041633,-0.035325l-0.009252,-0.057404l-0.050885,-0.035325l-0.092518,0.044157l-0.02313,0.03091l0.046259,0.035325Z M1579.197444,1107.320121h0.064763l0.055511,-0.052988l-0.037007,-0.052988l-0.10177,0.008831l-0.027756,0.039741l0.046259,0.057404Z M1578.619203,1106.317762l0.078641,0.008831l0.203598,0.104095l0.054377,0.009239l0.102847,-0.033853l0.013878,-0.057404l-0.198915,-0.101561l-0.263678,-0.013247l-0.041633,0.035325l0.050885,0.048572Z M1578.906011,1106.706342l0.115648,0.004416l0.097144,-0.075067l-0.013878,-0.079482l-0.055511,-0.035325l-0.10177,0.039741l-0.069389,0.092729l0.027756,0.052988Z M1579.003155,1106.838812l0.078641,0.026494l0.050885,-0.026494l-0.037007,-0.075067l-0.092518,-0.008831l-0.037007,0.044157l0.037007,0.039741Z M1579.340847,1107.117l0.143404,-0.004416l0.032381,-0.083898l-0.046259,-0.035325l-0.060137,0.026494l-0.083267,-0.039741l-0.050885,0.004416l-0.018504,0.079482l0.083267,0.052988Z M1579.248329,1106.684264l0.055511,0.057404l0.037007,-0.03091l-0.055511,-0.083898h-0.064763l-0.037007,0.039741l0.064763,0.017663Z M1578.919888,1107.174404l0.120274,-0.008831l0.032381,-0.061819l-0.078641,-0.035325l-0.185037,0.022078l0.004626,0.057404l0.106396,0.026494Z M1578.924514,1107.377525l0.087893,0.039741l-0.027756,-0.075067l-0.097144,-0.097145l-0.069389,-0.013247l-0.013878,0.044157l0.120274,0.101561Z M1580.377054,1107.346615l0.027756,0.044157l0.064763,-0.022078l0.013878,-0.052988l-0.032381,-0.004416l-0.074015,0.035325Z M1579.331595,1106.498805l0.046259,-0.017663l-0.009252,-0.044157l-0.055511,0.004416l-0.018504,0.035325l0.037007,0.022078Z M1579.488877,1106.609197l0.027756,-0.079482l-0.032381,-0.022078l-0.041633,0.022078l-0.004626,0.057404l0.050885,0.022078Z M1579.627655,1106.512052l0.004626,-0.061819l-0.046259,-0.03091l-0.037007,0.035325l0.02313,0.057404h0.055511Z M1578.155069,1107.253886l0.055511,-0.005888l0.006168,-0.047101l-0.074015,-0.070651l-0.043175,0.02355l0.055511,0.100089Z M1580.511206,1104.421965l-0.037007,0.088314l-0.111022,0.123639l-0.024672,-0.047101l0.055511,-0.094201l0.018504,-0.176627l-0.326899,-0.188402l-0.203541,-0.011775l-0.141862,0.064763l-0.037007,0.094201l-0.043175,0.041213l-0.252884,-0.02355l-0.092518,0.047101l0.012336,0.076538l-0.043175,0.02355l-0.086351,-0.011775l-0.228212,0.17074l-0.003084,0.058876l0.01542,0.076538l-0.049343,0.029438l-0.086351,-0.066235l-0.060137,-0.004416l-0.161907,0.082426l-0.02313,0.063291l0.02313,0.035325l0.055511,-0.008831l0.037007,-0.048572l0.037007,0.008831l-0.032381,0.075067l-0.064763,0.022078l-0.078641,-0.004416l-0.069389,0.026494l-0.037007,-0.039741l-0.037007,0.017663l0.009252,0.044157l-0.02313,0.16338l-0.046259,0.03091l-0.004626,0.052988l0.046259,0.017663l0.035465,0.114808l-0.043175,0.035325l-0.098686,-0.058876l-0.135694,0.082426l-0.018504,0.117751l-0.098686,0.105976l-0.024672,-0.047101l0.055511,-0.111864l-0.061679,-0.111864l-0.104854,0.02355l-0.11719,0.200177l-0.111022,0.035325l-0.172701,0.129527l-0.246716,0.017663l-0.092518,-0.058876l-0.185037,-0.029438l-0.092518,0.029438h-0.178869l-0.092518,-0.064763l0.049343,-0.02355l0.135694,0.017663l0.197373,-0.02355l0.26522,0.082426l0.166533,-0.005888l0.003084,-0.103032l0.157281,-0.176627l0.009252,-0.114808l-0.138778,-0.044157l-0.231296,0.105976l-0.425585,0.088314h-0.157281l-0.14803,-0.052988l-0.10177,0.008831l-0.120274,0.044157l-0.277555,0.044157l-0.175785,-0.035325l-0.36699,0.011775l0.012336,-0.041213l0.185037,-0.011775l0.037472,-0.037456l0.243168,-0.027308l0.342318,-0.105976v-0.13247l-0.222044,-0.114808l-0.222044,0.035325l-0.14803,-0.044157l-0.055511,-0.19429l-0.178869,-0.103032l-0.123358,-0.011775l-0.061679,0.052988l-0.061679,0.011775l-0.030839,-0.058876l0.111022,-0.070651l0.086351,0.017663l0.222044,-0.011775l0.067847,-0.02355l-0.003084,-0.076538l0.175785,-0.052988l0.009252,-0.088314l-0.231296,-0.13247l-0.268304,0.008831l-0.166533,0.079482v0.123639l-0.111022,0.158964l-0.138778,-0.008831l-0.083267,0.070651l-0.074015,0.035325l0.009252,-0.105976l0.111022,-0.123639l0.138778,-0.19429l0.046259,-0.13247l-0.10177,-0.141302l-0.14803,-0.052988l-0.175785,0.035325l-0.296059,0.105976l-0.092518,0.141302l-0.10177,-0.008831l-0.138778,-0.105976l-0.111022,-0.029438l-0.10177,0.011775l-0.037007,-0.079482l0.129526,-0.061819l0.092518,-0.291435l-0.10177,-0.123639l-0.009252,-0.123639l-0.074015,-0.088314l-0.175785,-0.052988l-0.083267,-0.105976l0.018504,-0.097145l-0.037007,-0.061819l-0.129526,0.052988l-0.064763,0.123639l-0.296059,0.229615v0.211952l-0.037007,0.167796l0.138778,0.158964l0.037007,0.097145l-0.111022,0.008831l-0.083267,-0.123639l-0.138778,-0.070651l0.009252,-0.211952l-0.074015,-0.123639l0.027756,-0.247278l0.416333,-0.32676l0.185037,-0.052988l0.129526,-0.114808l-0.074015,-0.300266l-0.064763,-0.044157l-0.138778,0.158964l-0.157281,0.061819l-0.083267,-0.052988l0.111022,-0.070651l0.083267,-0.158964l0.296059,-0.229615l0.212792,-0.264941l0.02313,-0.141302l-0.027756,-0.123639l-0.064763,-0.013247l-0.018504,0.123639l-0.069389,0.083898l-0.074015,-0.008831l-0.074015,-0.238447l0.027756,-0.114808l0.2498,-0.088314l0.130859,-0.072865l0.114315,0.015461l0.018504,-0.03091l-0.064763,-0.075067l-0.009252,-0.083898l-0.046259,-0.03091l-0.189663,0.004416l-0.259052,0.097145l-0.444089,0.273772l-0.078498,0.074167l0.004654,0.079973l0.064592,0.04015l-0.027356,0.088695l-0.065163,0.093302l-0.037007,-0.014201v-0.119082l-0.023501,-0.05332l-0.078269,-0.013056l-0.210308,0.061929l-0.113506,0.097036l-0.009252,0.123639l0.119267,0.114767l-0.045253,0.008872l-0.166533,-0.105976l-0.083267,0.017663l-0.064763,0.229615l-0.031161,-0.006889l-0.024436,-0.089969l0.083352,-0.247564l0.360822,-0.32676l0.545859,-0.273772l0.120274,-0.176627l0.397829,-0.211952l-0.041976,-0.049554l-0.074472,-0.004443l-0.225871,0.089322l-0.268304,0.176627l-0.231296,0.070651l-0.129526,0.017663l0.194289,-0.105976l0.45334,-0.282603l-0.030011,-0.041213l-0.053255,-0.002944l-0.10177,0.052988l-0.268304,0.052988l-0.203541,0.061819l0.166533,-0.13247l0.14803,-0.026494l0.194289,-0.123639l0.037007,-0.247278l-0.111022,-0.070651l-0.175785,0.008831l-0.10177,0.158964l-0.157281,-0.017663l-0.061993,-0.096545l-0.076785,-0.027094l-0.120274,0.026494l0.006225,0.111673l0.060508,0.084416l0.075002,0.025196l0.013433,0.032562l-0.077963,0.01555l-0.169724,-0.013288l-0.029255,0.036613l0.010751,0.042869l0.157281,0.052988l-0.046669,0.050912l-0.051546,0.013177l-0.160836,-0.037595l-0.027756,0.061819l0.031503,0.052416l0.255304,0.141874l0.018504,0.070651l-0.025957,0.030726l-0.08029,0.016661l-0.027927,0.039986l-0.004605,0.053928l-0.030304,0.026044l-0.090762,0.026658l-0.076799,0.063312l-0.209216,0.316723l-0.084016,0.049819l-0.406332,0.082651l-0.064763,0.13247l0.064763,0.176627l0.416333,0.450399l0.037007,0.123639l0.157281,0.370917l-0.064763,-0.008831l-0.111022,-0.185458l-0.10177,-0.044157l-0.083267,0.061819l-0.175785,-0.017663l-0.10177,0.079482l-0.021588,0.306154l0.098686,0.147189l0.135694,0.117751l-0.018504,0.041213l-0.203541,-0.111864l-0.138778,-0.050044l-0.14803,0.061819l-0.064763,0.379748l0.203541,0.238447l0.212792,-0.017663l0.203541,0.061819l0.120274,-0.035325l-0.018504,0.079482l-0.286807,0.017663l-0.052427,0.088314l0.185037,0.147189l0.129526,0.052988l0.126442,-0.005888l0.120274,-0.105976l0.268304,-0.044157l0.064763,0.052988l-0.166533,0.035325l-0.240548,0.141302v0.079482l0.14803,0.070651l-0.092518,0.035325l-0.379326,-0.150133l-0.200457,-0.002944l-0.055511,0.082426l0.086351,0.153077l0.067847,0.035325l-0.024672,0.052988l-0.086351,-0.029438l-0.030839,-0.064763l-0.092518,-0.011775l-0.067847,0.041213l0.006168,0.164852l0.129526,0.253165l0.320731,0.19429l0.129526,-0.011775l0.024672,0.058876l-0.049343,0.035325l-0.203541,-0.011775l-0.043175,0.058876l0.043175,0.135414l0.185037,0.135414l0.215876,0.02355l0.098686,-0.041213l0.080183,-0.182515l0.104854,-0.011775l0.024672,0.088314l-0.092518,0.088314l-0.018504,0.088314l-0.14803,0.058876l-0.345402,0.011775l-0.111022,0.082426l-0.043175,0.21784l0.080183,0.082426l0.154197,-0.017663l0.055511,0.064763l-0.030839,0.135414l0.271387,0.100089l0.055511,0.111864l-0.030839,0.100089l0.098686,0.17074l-0.055511,0.029438l-0.067847,-0.02355l-0.111022,0.02355l-0.160365,0.123639l-0.092518,0.02355l-0.111022,0.129527l0.024672,0.082426l0.154197,-0.017663v0.088314l-0.080183,0.029438l-0.030839,0.064763l0.061679,0.047101l-0.043175,0.105976l-0.135694,0.111864l-0.092518,0.200177l-0.14803,0.153077l-0.043175,0.135414l0.123358,0.206065l-0.006168,0.094201l-0.092518,0.094201l-0.135694,0.029438l-0.037007,0.117751l0.086351,0.105976h0.092518l0.018504,0.058876l-0.049343,0.058876l0.129526,0.206065l0.191205,0.064763l0.228212,-0.094201h0.209709l0.215876,0.064763l0.086351,-0.035325l0.024672,-0.082426l0.092518,-0.005888l0.080183,0.047101l0.376242,-0.017663l0.074015,-0.076538l0.407081,-0.17074l0.049343,-0.064763l-0.006168,-0.135414l0.043175,-0.094201l-0.030839,-0.206065l-0.086351,-0.070651l-0.111022,-0.300266l-0.006168,-0.300266l0.061679,-0.129527l0.074015,0.005888l0.061679,0.070651l-0.049343,0.235503l0.043175,0.247278l0.166533,0.141302l0.061679,0.176627h0.092518l0.061679,-0.058876l-0.030839,-0.082426l0.006168,-0.052988l0.104854,-0.082426l0.135694,-0.147189l-0.006168,-0.064763l-0.086351,-0.011775l-0.086351,0.041213h-0.11719l-0.074015,-0.070651l0.006168,-0.117751l0.049343,0.029438l0.018504,0.064763l0.098686,0.029438l0.123358,-0.052988l0.012336,-0.135414l-0.074015,-0.141302l-0.141862,-0.058876l-0.123358,-0.117751l0.061679,-0.011775l0.215876,0.105976l0.178869,0.153077l0.030839,0.188402l0.104854,0.094201l0.061679,-0.005888l0.006168,-0.129527l-0.172701,-0.341479l0.018504,-0.117751l-0.037007,-0.17074l0.049343,-0.058876h0.191205l0.074015,0.041213v0.276716l0.172701,0.423905l0.098686,0.047101l0.049343,-0.052988h0.055511l0.043175,0.064763h0.067847l-0.018504,-0.117751l-0.092518,-0.100089l-0.006168,-0.19429l0.055511,-0.158964l0.030839,-0.135414l-0.030839,-0.082426l-0.067847,-0.041213l-0.037007,-0.082426l0.049343,-0.041213l0.080183,0.017663l0.077099,0.094201l0.052427,0.153077l-0.086351,0.094201l-0.049343,0.235503l0.080183,0.176627l0.074015,0.076538l0.166533,0.029438l0.098686,0.029438l0.370074,0.518106l0.160365,0.100089l0.185037,-0.011775l0.074015,0.029438l0.123358,0.011775l0.092518,-0.035325l0.283723,0.011775l0.185037,-0.029438l0.178869,0.070651l0.104854,0.158964l0.203541,0.017663l0.166533,-0.082426l0.092518,-0.211952l-0.018504,-0.282603l0.030839,-0.105976l-0.160365,-0.317929l-0.104854,-0.088314l-0.141862,-0.047101l-0.074015,-0.094201l-0.006168,-0.182515l0.080183,-0.005888l0.080183,0.147189l0.160365,0.076538l0.061679,0.094201h0.111022l0.030839,-0.117751l-0.043175,-0.117751l-0.14803,-0.064763l-0.018504,-0.070651l0.055511,-0.011775l0.191205,0.117751l0.092518,-0.017663l0.092518,0.011775l0.024672,0.070651l0.129526,0.088314l0.080183,0.141302l-0.049343,0.041213l-0.037007,0.135414l0.043175,0.094201l-0.018504,0.111864l0.252884,0.423905l0.111022,0.029438l0.030839,0.076538l-0.018504,0.058876l0.092518,0.188402l0.061679,0.070651h0.086351l0.067847,0.041213l0.055511,0.105976l0.129526,0.011775l0.043175,-0.076538l0.209709,-0.076538l0.271387,0.058876l0.111022,0.117751l0.098686,0.029438l0.197373,-0.017663l0.160365,0.076538l0.067847,0.076538l0.111022,0.017663l0.197373,-0.100089l0.086351,-0.129527l-0.049343,-0.105976l0.049343,-0.035325l0.160365,0.076538l0.086351,0.011775l0.259052,-0.135414l0.080183,0.011775l0.037007,0.070651l0.092518,0.005888l0.098686,-0.147189v-0.105976l-0.164991,-0.191346l-0.137236,-0.08537l-0.160365,-0.029438l-0.055511,0.041213l-0.185037,0.035325l-0.024672,-0.047101l0.104854,-0.082426l0.252884,-0.052988l0.296059,0.02355l0.178869,0.088314l0.166533,-0.029438l0.024672,-0.158964l0.038549,-0.069179l0.060137,-0.008831l0.027756,-0.039741l-0.009252,-0.057404l0.041633,-0.092729l0.00771,-0.08537l-0.160365,-0.147189l-0.185037,-0.05446l-0.074015,-0.052988l-0.055511,-0.013247l-0.055469,0.026302l-0.129568,-0.039549l-0.032381,-0.026494l-0.041633,-0.017663l-0.035134,0.02281l-0.106727,-0.027226l-0.160365,-0.100089l-0.160365,-0.041213l-0.185037,0.02355l-0.080183,0.058876l-0.345402,0.111864l-0.252884,0.064763l-0.030839,0.094201l0.111022,0.229615l0.141862,0.088314l0.135694,0.029438l0.320731,0.264941l0.111022,0.029438l0.024672,0.047101l-0.061679,0.041213l-0.123358,-0.017663l-0.333066,-0.259053l-0.314563,-0.111864l-0.074015,0.02355l-0.277555,0.005888l-0.104854,-0.011775l-0.074015,-0.105976l-0.333066,-0.164852l-0.222044,-0.029438l-0.228212,-0.082426l-0.074015,-0.052988l0.012336,-0.270828l-0.024672,-0.105976l-0.086351,-0.041213l-0.055511,-0.058876l0.092518,-0.041213l-0.024672,-0.041213h-0.074015l-0.11719,-0.070651l-0.154197,-0.039741l-0.069389,0.057404l-0.064763,-0.013247l-0.083267,-0.101561l-0.10177,-0.044157l0.009252,-0.03091l0.087893,0.008831l0.078641,0.083898l0.060137,0.039741l0.060137,-0.035325l0.134152,0.004416l0.050885,-0.022078l-0.038549,-0.072123l-0.086351,-0.088314h-0.092518l-0.11719,-0.052988l-0.123358,-0.129527l-0.098686,-0.058876l-0.067847,0.017663l-0.14803,-0.047101l-0.129526,-0.123639l-0.037007,-0.058876l0.123358,0.052988l0.135694,0.111864l0.086351,-0.017663l0.141862,0.041213l0.061679,0.076538l0.160365,0.105976l0.092518,-0.011775l0.080183,0.058876l0.098686,0.141302l0.129526,-0.017663l0.120274,0.138358l0.040091,-0.020606l-0.043175,-0.111864l-0.111022,-0.129527l0.024672,-0.076538l-0.012336,-0.052988l-0.14803,-0.076538l-0.092518,-0.117751l-0.018504,-0.052988l0.061679,0.017663l0.172701,0.17074l0.11719,0.076538l0.067847,-0.041213l-0.043175,-0.123639l0.061679,-0.005888l0.172701,0.105976l0.067847,0.094201l0.209709,0.188402l0.141862,0.041213l0.074015,-0.064763l-0.024672,-0.123639l-0.129526,-0.058876l-0.067847,-0.088314l0.049343,-0.070651l0.172701,-0.011775l0.030839,-0.058876l-0.277555,-0.123639l-0.357738,-0.247278l-0.098686,-0.123639h0.074015l0.166533,0.129527l0.111022,0.041213l0.067847,-0.047101l-0.111022,-0.082426l0.049343,-0.02355l0.203541,0.105976h0.14803l0.446544,0.178372l0.065391,-0.001744l0.046316,-0.056014l0.046202,-0.002862l0.070931,0.050044l0.046259,0.004416l0.041451,-0.04856l0.316287,0.011763l0.049343,-0.017663l-0.012336,-0.123639l0.154197,-0.058876l0.388578,0.017663l0.35157,0.070651l0.203541,0.123639l0.012336,0.111864l0.197373,0.223728l0.012336,0.105976l-0.07213,0.033908l-0.01422,0.036743l0.049343,0.035325h0.086351l0.197373,0.058876l0.407081,0.082426l0.067847,-0.029438l0.296059,-0.047101l0.043175,-0.064763l-0.049343,-0.076538l-0.511935,-0.153077l-0.14803,0.029438l-0.086351,-0.011775l-0.098686,-0.17074l0.012336,-0.052988l0.098686,-0.017663l0.055511,-0.029438l-0.074015,-0.135414l0.067847,-0.100089l0.141862,-0.017663l0.215876,0.047101l0.222044,0.135414l0.049343,0.094201l0.098686,0.005888l0.049343,-0.082426l0.222044,-0.141302l0.14803,-0.24139l0.111022,-0.047101l0.104854,-0.158964l0.018504,-0.164852l0.111022,-0.276716l0.030839,-0.24139l-0.055511,-0.247278l-0.154197,-0.164852l-0.086351,-0.02355l-0.092518,0.02355l-0.172701,-0.035325l-0.14803,0.017663l-0.098686,-0.02355l-0.055511,-0.100089l0.006168,-0.076538l0.14803,-0.123639l0.313021,-0.08537l0.050885,0.026494l-0.018504,0.105976l0.024672,0.017663l0.086351,-0.147189l0.024672,-0.123639l-0.049343,-0.105976l-0.425585,-0.206065l-0.111022,0.005888l-0.259052,-0.123639l-0.573614,-0.035325l-0.339234,0.188402l-0.154197,0.200177l-0.012336,0.270828l-0.043175,0.147189l-0.123358,0.064763l-0.047801,0.005888l-0.060137,0.044157l-0.041633,-0.026494v-0.119223l-0.055511,-0.008831l-0.097144,0.069179Z M1573.979402,1100.745178v0.061819l0.041633,0.022078l0.027756,-0.039741l-0.027756,-0.039741l-0.041633,-0.004416Z M1575.913038,1104.812017l0.032381,-0.039741l-0.134152,-0.035325l-0.050885,0.03091l0.004626,0.048572l0.14803,-0.004416Z M1576.42189,1104.966565l0.138778,0.017663l0.064763,-0.017663l-0.217418,-0.057404l-0.046259,0.022078l0.060137,0.035325Z M1576.250731,1104.913577l0.069389,0.004416l-0.004626,-0.039741l-0.087893,-0.017663l-0.041633,0.017663l0.064763,0.035325Z M1575.857527,1104.993059l0.152655,-0.022078l-0.02313,-0.039741l-0.143404,0.013247l-0.037007,0.026494l0.050885,0.022078Z M1573.262384,1107.819092l0.027756,-0.035325l-0.013878,-0.039741h-0.037007l-0.013878,0.066235l0.037007,0.008831Z M1574.622406,1108.203256l0.041633,-0.035325l-0.037007,-0.048572l-0.041633,0.013247v0.052988l0.037007,0.017663Z M1574.756557,1108.190009h0.037007v-0.048572l-0.055511,-0.013247l-0.013878,0.035325l0.032381,0.026494Z M1574.69642,1108.344558l0.013878,-0.039741l-0.037007,-0.035325l-0.037007,0.026494l0.004626,0.066235l0.055511,-0.017663Z M1578.142733,1106.834397l0.064763,0.061819l0.013878,0.088314l0.106396,0.110392l0.106396,0.004416l0.111022,0.079482l0.037007,0.061819l0.120274,0.057404l0.046259,-0.017663l-0.013878,-0.061819l0.018504,-0.039741l-0.027756,-0.075067l-0.175785,-0.088314l-0.097144,0.022078l-0.060137,-0.022078l0.013878,-0.039741l0.078641,0.004416l0.032381,-0.026494l-0.055511,-0.03091l-0.013878,-0.075067l-0.180411,-0.176627l-0.055511,0.004416l0.004626,0.044157l-0.027756,0.035325l-0.064763,0.004416l-0.02313,0.044157l0.041633,0.03091Z M1578.688592,1107.041933l0.046259,-0.004416l-0.027756,-0.048572l-0.055511,-0.017663l-0.032381,0.022078l0.069389,0.048572Z M1579.137307,1107.408435l0.037007,-0.017663l-0.032381,-0.057404l-0.032381,-0.035325l-0.032381,0.026494l0.018504,0.061819l0.041633,0.022078Z M1577.596874,1107.60714l0.018504,-0.03091l-0.013878,-0.052988l-0.055511,0.004416l-0.004626,0.039741l0.055511,0.039741Z M1577.916063,1107.117l0.032381,-0.022078l-0.018504,-0.039741h-0.060137l-0.018504,0.035325l0.064763,0.026494Z M1579.243703,1106.918294l0.050885,-0.017663l-0.009252,-0.035325l-0.041633,-0.004416l-0.032381,0.03091l0.032381,0.026494Z M1579.359351,1106.958035l0.032381,-0.013247v-0.035325l-0.041633,-0.008831l-0.02313,0.03091l0.032381,0.026494Z M1579.470373,1106.913879l0.046259,-0.008831l-0.004626,-0.048572l-0.046259,-0.004416l-0.027756,0.039741l0.032381,0.022078Z M1577.356326,1104.781107l0.046259,0.03091l0.060137,-0.022078l-0.037007,-0.03091h-0.041633l-0.027756,0.022078Z M1579.257581,1104.251226l0.046259,-0.004416l0.032381,-0.03091l-0.060137,-0.017663l-0.032381,0.022078l0.013878,0.03091Z M1579.687792,1104.101093l0.032381,-0.008831l0.018504,-0.039741l-0.032381,-0.008831l-0.037007,0.035325l0.018504,0.022078Z M1576.939993,1102.720458l0.061679,-0.017663l0.012336,-0.052988l-0.092518,-0.005888l-0.018504,0.047101l0.037007,0.029438Z M1576.057984,1102.249452l0.033923,-0.008831l0.009252,-0.032382l-0.058595,-0.014719l-0.030839,0.02355l0.046259,0.032382Z M1577.331655,1103.995116l0.046259,-0.002944l-0.01542,-0.032382l-0.043175,-0.011775l-0.018504,0.020606l0.030839,0.026494Z M1580.292245,1103.409303l0.024672,-0.011775l0.003084,-0.026494h-0.033923l-0.01542,0.026494l0.021588,0.011775Z "/>
</svg>
