<svg xmlns="http://www.w3.org/2000/svg" viewBox="1628.851 1019.945 0.280 0.309">
  <path d="M1628.892837,1020.229469l-0.014745,-0.022118l0.004915,-0.044235l-0.00983,-0.054065l-0.022118,-0.034405v-0.095843l0.00983,-0.027033l0.027033,-0.007373l0.063896,0.022118l0.061438,0.051608l0.012288,0.02949l-0.017203,0.012288h-0.036863l-0.017203,0.031948l0.014745,0.02949l0.041778,0.01966l0.02949,-0.01966l0.004915,-0.024575l-0.012288,-0.01966l0.00983,-0.007373l0.034405,0.041778l0.00983,0.027033l0.02949,0.024575l0.014745,0.041778l-0.007373,0.017203l-0.02949,-0.004915l-0.027033,0.014745l-0.00983,0.022118h-0.017203l-0.017203,-0.017203h-0.041778l-0.027033,-0.014745l-0.036863,-0.002458l-0.024575,0.00983Z "/>
</svg>
