<svg xmlns="http://www.w3.org/2000/svg" viewBox="1116.206 677.166 12.874 33.465">
  <path d="M1116.289018,677.165873l0.909,0.153l3.258,0.719l0.065,0.237l-0.056,0.26l1.043,-0.447l1.695,0.009l-0.185,0.572l0.067,0.165l-0.037,0.139l-0.093,0.121l-0.092,0.334l-0.418,0.52l-0.028,0.343l0.037,0.26l0.01,0.445l-0.13,0.26l-0.075,0.993l2.19,1.606l1.624,1.011l0.019,0.872l0.028,0.418l-0.009,0.761l0.046,0.185l-0.019,0.427l-0.13,0.288l0.121,0.38l0.139,0.01l0.074,0.148l0.056,0.715l0.074,0.241l0.214,0.26l0.083,0.222l0.409,0.409l0.278,0.167l0.39,0.807l0.028,0.371l-0.047,0.297l0.074,0.418v1.512l-0.027,0.789l0.148,0.325l-0.018,0.148l-0.103,0.103l-0.064,0.556l0.074,0.214v4.621l0.074,0.074l0.037,0.297l-0.037,0.093l0.009,0.139l-0.093,0.733l0.019,2.905h-0.492v0.167l0.13,0.232l-0.009,0.102l0.028,0.083l0.157,0.037l0.01,0.158l-0.056,0.084l0.019,0.399l0.092,0.139l0.038,0.241l-0.056,0.112l-0.149,0.083l-0.027,0.232l0.129,0.093l0.047,0.158l-0.037,0.111l0.083,0.167l0.164,0.085l0.341,0.304l0.012,0.198l0.049,0.099l0.211,0.111l0.117,0.161l0.183,0.536l0.077,0.41l-0.037,0.062l0.025,0.068l0.111,0.044l-0.031,0.055l-0.21,0.019l-0.173,0.043l-0.062,0.05l-0.52,0.092l-0.192,0.062v0.068l-0.433,0.065l-1.213,0.297l-0.897,0.316l-0.29,0.117v-0.385h-0.77v-0.125l-0.093,-0.144l-0.005,-0.07l-0.079,-0.088l-0.12,-0.023l-0.093,-0.135l-0.042,-0.18l-0.065,-0.065l0.005,-0.144l-0.032,-0.121l-0.72,0.005l-0.041,-0.102l-0.154,-0.195l-0.218,-0.13l-0.273,-0.065l-0.047,-0.172l-0.218,-0.074l-0.032,-0.246l-0.13,-0.046l-0.042,-0.061l-0.028,-0.185l0.07,-0.139l0.116,-0.07l0.014,-0.07l-0.019,-0.097l-0.148,-0.056l-0.135,0.019l-0.093,-0.037l-0.004,-0.07l-0.079,-0.032l-0.061,0.037l-0.055,-0.023l-0.102,-0.154l-0.014,-0.088l0.083,-0.153l-0.004,-0.06l-0.033,-0.065l-0.009,-0.297l-0.056,-0.097l-0.097,-0.028l-0.051,0.018l-0.07,-0.014l-0.134,-0.079l-0.084,-0.106l-0.005,-0.093l0.061,-0.051l0.004,-0.046l-0.065,-0.014l-0.023,-0.093l-0.093,-0.042l-0.032,0.042l-0.074,-0.019l-0.005,-0.181l0.051,-0.032l0.009,-0.037l-0.037,-0.051l0.024,-0.051l0.106,-0.01l0.051,-0.213l-0.032,-0.088l-0.223,-0.126l-0.009,-0.143l0.171,-0.153l0.209,-0.028l0.079,-0.047l0.074,-0.208l-0.046,-0.14l0.014,-0.106l0.088,-0.116l-0.014,-0.102l-0.093,-0.042l-0.032,-0.051l0.023,-0.079l0.056,-0.051l0.014,-0.107l0.055,-0.046l0.01,-0.116l0.051,-0.033l0.074,-0.144l0.051,-0.246l0.018,-0.301l0.079,-0.19l-0.106,-0.334l0.027,-0.079l-0.051,-0.144l-0.111,-0.056l-0.134,0.061l-0.172,0.051l-0.079,-0.014l-0.167,-0.2l-0.037,-0.185l-0.074,-0.028l0.009,-0.088l0.042,-0.042v-0.051l-0.075,-0.209l0.033,-0.441l0.023,-0.093l0.362,-0.143l0.046,-0.047l-0.014,-0.292l0.056,-0.218l0.116,-0.023l0.06,0.046l0.047,-0.014l-0.107,-0.315l0.037,-0.075l0.074,-0.028l0.019,-0.037l-0.028,-0.106l-0.069,-0.093l0.018,-0.237l0.037,-0.069l0.014,-0.112l-0.046,-0.055v-0.051l0.018,-0.051l-0.06,-0.335l-0.121,-0.283l0.047,-0.06l0.004,-0.051l-0.041,-0.023v-0.065l0.018,-0.065l-0.023,-0.213l-0.065,-0.181l-0.005,-0.126l0.038,-0.055l0.004,-0.144l0.088,-0.033l0.028,-0.06l-0.014,-0.162l0.051,-0.019l-0.004,-0.06l-0.172,-0.07l-0.019,-0.06l0.093,-0.084l0.121,0.005l0.051,-0.056l-0.009,-0.06l0.032,-0.065l0.056,-0.023l0.004,-0.056l0.051,-0.042h0.177l0.051,-0.032l0.032,-0.088l0.13,-0.056l0.13,-0.019l0.037,-0.06l-0.004,-0.292l-0.065,-0.019l-0.056,-0.083l-0.032,-0.204l-0.14,-0.154l-0.176,-0.074l-0.046,-0.079l0.018,-0.176l-0.042,-0.083l-0.004,-0.126l-0.047,-0.041h-0.051l-0.037,-0.033v-0.06l-0.153,-0.051l-0.079,0.023l-0.153,-0.098l-0.028,-0.078l-0.181,-0.102l-0.009,-0.047l-0.051,-0.018l-0.046,0.027l-0.07,-0.009l-0.023,-0.093l-0.107,-0.116l-0.121,-0.018l-0.593,-0.961l-0.01,-0.092l0.093,-0.019l-0.005,-0.046l-0.097,-0.065l0.032,-0.116l0.172,-0.024l0.098,0.084l0.065,-0.014l0.065,-0.153l0.074,-0.005l0.046,0.074l0.06,0.019l0.144,-0.042l0.033,-0.06l-0.033,-0.065l0.042,-0.167l0.116,-0.07l0.042,-0.157l-0.084,-0.158l-0.028,-0.102l0.033,-0.116l-0.06,-0.116l-0.079,-0.028l-0.149,-0.32l0.014,-0.098l-0.018,-0.078l-0.084,-0.047v-0.074l0.051,-0.06l-0.004,-0.121l0.055,-0.111l0.06,-0.033l0.033,-0.083l-0.005,-0.126l-0.037,-0.074l0.019,-0.07l0.12,-0.037l0.102,-0.065l0.042,-0.176l0.061,-0.065l0.004,-0.074l-0.158,-0.255l0.01,-0.088l0.106,-0.112l0.089,-0.158l0.097,-0.009l0.028,-0.051l-0.065,-0.134l-0.009,-0.079l0.125,-0.395l-0.079,-0.13l-0.223,-0.097l-0.106,-0.014l-0.028,-0.074l0.037,-0.065l-0.005,-0.079l-0.088,-0.088l-0.167,-0.023l-0.06,-0.07l-0.228,-0.009l-0.055,0.06h-0.167l-0.13,-0.042h-0.074l-0.07,0.051l-0.005,0.126l-0.111,0.148l-0.329,0.135l-0.168,-0.028l-0.162,-0.19v-0.144l0.051,-0.019l0.111,0.051l0.098,-0.004l0.074,-0.047l0.06,-0.004l0.135,-0.098l0.005,-0.065l-0.102,-0.074l-0.14,-0.023l-0.116,0.032l-0.083,-0.018l-0.051,-0.126l0.023,-0.167l0.033,-0.046h0.074l0.074,0.046l0.079,-0.004l0.074,-0.075l0.288,0.005l0.083,0.037h0.075l0.078,-0.018l0.089,-0.079l0.009,-0.074l-0.065,-0.047v-0.093l0.046,-0.157l-0.111,-0.195l-0.056,-0.014l-0.042,-0.042l0.01,-0.148l-0.079,-0.116l-0.088,-0.01l-0.037,-0.093l0.055,-0.167l-0.023,-0.051l0.014,-0.046h0.06l0.005,-0.046l-0.051,-0.047l0.005,-0.046l0.046,-0.033l0.019,-0.102l0.111,-0.162l-0.005,-0.209l-0.032,-0.088l0.009,-0.218l0.07,-0.102l0.153,-0.056l0.014,-0.069l-0.126,-0.107l-0.063,-0.124l-0.003,-0.114l0.031,-0.05l0.003,-0.062l-0.016,-0.062l0.044,-0.034l0.176,0.072l0.09,-0.01l0.055,-0.099l-0.018,-0.173l-0.145,-0.118l-0.18,-0.027l-0.074,-0.047l-0.016,-0.086l0.072,-0.189l0.006,-0.093l-0.081,-0.145l0.022,-0.282l0.031,-0.049l0.003,-0.232l0.046,-0.084l0.09,-0.04v-0.056l-0.046,-0.012v-0.049l0.071,-0.081l0.096,-0.031l0.003,-0.049l-0.065,-0.019l-0.269,0.056h-0.143l-0.034,-0.047l0.072,-0.089l-0.016,-0.062l-0.08,-0.016l-0.031,-0.04l0.012,-0.083l-0.052,-0.078l-0.084,-0.031l-0.015,-0.074l0.046,-0.099l-0.09,-0.142h-0.068l-0.046,0.08l-0.096,-0.003l-0.17,-0.086l-0.112,0.003l-0.037,0.105l-0.071,0.006l-0.034,-0.071l-0.13,-0.071l-0.012,-0.074l0.022,-0.053l-0.01,-0.059l-0.08,-0.068l-0.003,-0.086l-0.087,-0.313l-0.216,-0.13l-0.276,-0.083l-0.058,-0.053l0.008,-0.094l-0.135,-0.153l-0.361,-0.098l-0.047,-0.06l-0.199,-0.033l-0.084,-0.051l-0.107,-0.38l-0.055,-0.107l0.009,-0.06l0.093,-0.023l0.004,-0.307l0.302,-0.315l0.023,-0.13l-0.051,-0.148l0.033,-0.191l0.074,-0.06l0.046,-0.162l-0.027,-0.158l0.055,-0.176l0.093,-0.01l0.144,-0.116l-0.033,-0.125l-0.014,-0.39l-0.148,-0.185l-0.014,-0.121l-0.13,-0.023l-0.144,0.028l-0.088,0.12h-0.292l-0.279,-0.125l-0.013,-0.074l0.083,-0.13z"/>
</svg>
