<svg xmlns="http://www.w3.org/2000/svg" viewBox="1759.763 614.342 54.780 99.651">
  <path d="M1776.274519,706.62657l0.04189,-0.027927l0.055854,0.023272l0.037236,0.079126l-0.037236,0.065163l-0.097744,-0.004654l-0.023272,-0.04189l0.023272,-0.09309Z M1771.762915,707.844169l0.018618,0.032581l0.148943,0.013963l0.335122,-0.088435l0.074472,-0.046545l-0.009309,-0.09309l-0.065163,-0.032581h-0.190834l-0.130325,0.037236l-0.102399,0.074472l-0.023272,0.065163l-0.055854,0.037236Z M1772.586758,708.263072l0.074472,-0.009309l0.013963,-0.032581l-0.013963,-0.027927l-0.046545,-0.004654l-0.060508,0.023272l-0.013963,0.027927l0.046545,0.023272Z M1772.693811,708.090857l0.079126,-0.083781l0.009309,-0.111707l-0.027927,-0.097744l-0.074472,-0.065163l-0.158252,-0.060508l-0.046545,0.009309l-0.013963,0.083781l0.04189,0.13498l0.013963,0.162907l0.055854,0.04189l0.121016,-0.013963Z M1774.918652,708.081548l0.065163,0.018618l0.069817,-0.018618l0.037236,-0.13498l0.032581,-0.032581l0.046545,0.009309l0.051199,0.004654l0.032581,-0.04189l-0.013963,-0.381667l-0.055854,-0.051199l-0.046545,-0.107053l0.004654,-0.088435l0.046545,-0.074472l-0.009309,-0.139634l-0.102399,-0.186179l-0.037236,-0.121016l-0.074472,-0.130325h-0.037236l-0.027927,0.055854v0.13498l0.013963,0.074472l-0.032581,0.111707l-0.121016,0.121016l-0.037236,0.088435l0.013963,0.083781l-0.027927,0.088435l-0.069817,0.055854l-0.027927,0.051199l-0.004654,0.083781l0.09309,0.139634l0.074472,0.037236l0.097744,0.13498l0.009309,0.09309l0.037236,0.121016Z M1770.883219,700.448203l-0.009309,0.074472l-0.065163,0.046545l-0.009309,0.037236l0.032581,0.069817l-0.004654,0.246687l0.060508,0.26996l0.237378,0.456139l0.148943,0.111707l0.046545,-0.009309l0.032581,-0.107053l-0.013963,-0.09309l-0.060508,-0.162907l-0.130325,-0.186179l-0.009309,-0.107053l0.032581,-0.144289l0.079126,-0.060508l0.107053,0.009309l0.065163,0.060508l0.027927,-0.009309l0.004654,-0.125671l-0.009309,-0.125671l0.018618,-0.162907l-0.051199,-0.130325l-0.083781,-0.037236h-0.079126l-0.148943,-0.04189l-0.116362,-0.004654l-0.074472,0.046545l-0.027927,0.079126Z M1769.091245,700.019991l0.032581,-0.009309l0.069817,0.023272l0.04189,-0.018618l0.004654,-0.046545l-0.074472,-0.172216l-0.097744,-0.083781l-0.023272,0.009309v0.060508l0.051199,0.130325l-0.009309,0.032581l-0.051199,0.004654l-0.027927,0.065163l0.023272,0.069817l0.037236,0.004654l0.023272,-0.069817Z M1770.506206,699.647633l0.046545,-0.004654l0.004654,-0.055854l-0.051199,-0.167561l-0.055854,-0.097744v-0.069817l-0.060508,-0.037236h-0.116362l-0.055854,0.051199l0.013963,0.055854l0.116362,0.088435l0.107053,0.181525l0.051199,0.055854Z M1770.580678,699.037897l0.013963,-0.088435v-0.09309l-0.051199,-0.09309l-0.079126,-0.009309l-0.027927,0.065163l0.009309,0.162907l0.097744,0.186179h0.032581l0.004654,-0.130325Z M1770.701694,699.261312l0.060508,0.065163l0.046545,-0.004654l0.046545,-0.111707l0.004654,-0.074472l-0.097744,-0.111707l-0.088435,0.009309l-0.027927,0.051199l0.055854,0.17687Z M1767.806609,697.525191l0.027927,0.069817l0.051199,0.009309l0.074472,-0.013963l0.065163,0.023272v0.046545l0.04189,0.060508l0.032581,-0.004654l0.004654,-0.111707l0.055854,-0.116362l0.069817,-0.260651l-0.013963,-0.17687l-0.046545,-0.018618l-0.04189,0.023272l-0.162907,0.21876l-0.018618,0.097744l-0.055854,0.074472l-0.116362,0.009309l-0.013963,0.032581l0.046545,0.037236Z M1767.518031,697.608972l-0.018618,0.065163l0.013963,0.079126l0.074472,0.060508l0.032581,0.13498l0.083781,0.111707l0.079126,0.004654l0.097744,0.083781l0.018618,0.065163l-0.037236,0.069817l-0.079126,0.023272l-0.023272,0.069817l0.018618,0.186179l0.032581,0.167561l-0.009309,0.088435l0.023272,0.074472l0.037236,0.004654l0.027927,-0.04189l0.037236,0.04189l0.018618,0.069817l0.027927,-0.013963l0.004654,-0.083781l0.074472,-0.232724l0.009309,-0.195488l-0.055854,-0.144289v-0.214106l0.018618,-0.069817l-0.009309,-0.079126l-0.051199,-0.069817l-0.023272,-0.107053l-0.032581,-0.023272l-0.097744,0.013963l-0.102399,-0.046545l-0.065163,-0.088435l-0.088435,-0.060508l-0.037236,0.004654v0.051199Z M1765.935509,697.096979l0.065163,0.35374l-0.009309,0.148943l-0.144289,0.121016l-0.04189,0.079126l0.004654,0.116362l0.018618,0.074472l0.060508,0.069817l0.051199,0.09309l-0.013963,0.111707l-0.107053,0.065163l-0.004654,0.065163l0.032581,0.055854v0.069817l-0.046545,0.065163l-0.069817,0.051199v0.074472l0.055854,0.055854l0.121016,0.051199l0.032581,0.097744l-0.065163,0.055854l-0.088435,0.009309l-0.018618,0.037236l0.065163,0.097744l0.125671,0.116362l0.009309,0.144289l-0.023272,0.279269l0.060508,0.130325l0.069817,0.023272l0.111707,-0.023272l0.051199,-0.148943l0.051199,-0.181525l0.107053,-0.130325l0.079126,-0.009309l0.046545,0.046545l0.009309,0.088435l0.037236,0.046545l0.051199,0.004654l0.069817,0.04189l0.023272,-0.009309l-0.037236,-0.17687l-0.055854,-0.107053l0.013963,-0.069817l0.065163,-0.083781l0.167561,-0.032581l0.060508,-0.069817v-0.111707l-0.023272,-0.037236l-0.037236,0.004654l-0.051199,0.055854l-0.037236,-0.023272l-0.004654,-0.065163l-0.027927,-0.069817l-0.111707,-0.153598v-0.148943l0.04189,-0.09309l0.083781,-0.027927l0.013963,-0.032581l-0.018618,-0.04189l-0.004654,-0.097744l0.032581,-0.121016l0.055854,-0.046545l0.060508,-0.13498l0.023272,-0.181525l-0.037236,-0.032581l-0.069817,0.009309l-0.097744,0.055854l-0.09309,-0.004654l-0.102399,-0.083781l-0.04189,-0.107053l-0.046545,-0.037236h-0.074472l-0.027927,-0.04189l-0.009309,-0.139634l-0.083781,-0.167561l-0.274614,-0.162907l-0.051199,0.009309l-0.009309,0.060508l0.032581,0.069817Z M1772.543704,702.403084l0.006982,0.076799l0.066326,0.034909l0.038399,-0.013963l0.024436,-0.066326l-0.027927,-0.083781l-0.097744,-0.052363l-0.034909,0.031418l0.024436,0.073308Z M1773.084787,703.178055l-0.027927,0.104726l0.006982,0.111707l0.052363,0.073308l0.076799,0.013963l0.034909,-0.010473l0.024436,-0.083781l0.045381,-0.090762l0.104726,-0.062835l0.150107,-0.013963l0.013963,-0.024436l-0.048872,-0.066326l-0.055854,-0.031418l-0.083781,0.010473l-0.104726,-0.006982l-0.055854,-0.055854l-0.066326,0.003491l-0.062835,0.052363l-0.003491,0.076799Z M1774.334515,704.120587l0.010473,0.076799l0.069817,0.052363l0.160579,0.034909l0.104726,0.045381l0.020945,-0.024436l-0.04189,-0.083781l-0.104726,-0.073308l-0.118689,-0.034909l-0.115198,-0.066326l-0.017454,0.017454l0.031418,0.055854Z M1766.337399,700.917169l0.061679,0.037007l0.067847,-0.037007l0.018504,-0.074015l-0.043175,-0.030839l-0.061679,0.018504l-0.043175,0.086351Z M1767.624192,697.223458l-0.028567,0.019331l0.006408,0.07008l0.060033,0.06466l0.049609,-0.017291l-0.008119,-0.043553l-0.079364,-0.093227Z M1771.708906,707.890033l-0.020233,0.027936l0.029991,0.063662l0.078527,0.040228l0.040703,-0.033215l-0.022526,-0.03815l-0.106463,-0.06046Z M1766.425385,699.941737l-0.008683,0.039261l0.069295,0.001033l0.0951,-0.054305l0.003154,-0.027403l-0.062445,-0.000245l-0.096421,0.041658Z M1767.306735,697.109191l0.029025,-0.005766l0.007366,-0.06347l-0.019314,-0.076272l-0.028365,-0.009762l-0.013098,0.070226l0.024386,0.085044Z M1767.861463,696.325624l0.009252,0.032381l0.046259,0.009252l0.046259,-0.027756v-0.032381l-0.055511,-0.009252l-0.046259,0.027756Z M1775.745064,706.247859l0.04239,0.025946l0.051025,-0.01493l0.007726,-0.051263l-0.032978,-0.018047l-0.065242,0.031873l-0.002922,0.026421Z M1767.365427,696.855713l0.018575,0.034303l0.040201,-0.038404l0.006617,-0.051271l-0.03555,-0.006258l-0.029843,0.06163Z M1774.181233,705.984975l0.045096,-0.012341l0.008046,-0.027989l-0.040044,-0.025881l-0.050555,0.021914l-0.001129,0.03508l0.038586,0.009217Z M1767.193958,699.847935l0.033923,0.003084l0.021588,-0.040091l-0.009252,-0.040091l-0.027756,-0.012336l-0.021588,0.030839l0.003084,0.058595Z M1768.142106,696.485802l0.023314,0.028128l0.017209,-0.02457l-0.017651,-0.048496l-0.029605,-0.002301l0.006733,0.047239Z M1767.953969,696.820541l0.016083,-0.003842l0.029842,-0.041129l-0.008448,-0.01846l-0.014949,0.005916l-0.022289,0.034792l-0.000238,0.022724Z M1775.256896,704.233781l0.011645,0.03137l0.020302,-0.001879l0.004915,-0.031948l-0.022118,-0.014745l-0.014745,0.017203Z M1772.336776,702.783647l-0.02957,-0.059139l-0.020699,-0.005914l-0.012735,0.017968l0.039347,0.085526h0.026613l-0.002957,-0.038441Z M1770.645775,698.812833l0.018954,0.056127l0.02345,-0.00131l0.009504,-0.062178l-0.023439,-0.034786l-0.028191,-0.003697l-0.000277,0.045845Z M1767.574222,697.082875l0.006168,0.033923l0.024672,0.006168l0.018504,-0.027756v-0.052427l-0.024672,-0.012336 l-0.024672,0.052427Z M1770.97673,703.53138l0.043448,0.035768l0.038535,-0.020485l0.010038,-0.063645l-0.036056,-0.020817l-0.040847,0.024491l-0.015117,0.044688Z M1767.242872,696.31524l0.014977,0.072746l0.049727,0.000221l0.009473,-0.065751l-0.038822,-0.04378l-0.035355,0.036565Z M1770.966516,699.032962l0.020872,-0.028196l-0.01082,-0.035834l-0.023868,0.013611l-0.015615,0.026848l0.006403,0.026804l0.023028,-0.003234Z M1768.281592,696.652283l0.034113,-0.008183l0.014745,-0.034405l-0.027033,-0.004915l-0.02922,0.01053l-0.012324,0.024649l0.019719,0.012324Z M1771.635326,700.975262l-0.002135,-0.035015l-0.031322,-0.020496l-0.009535,0.025769l0.005296,0.030604l0.022134,0.016417l0.015561,-0.017279Z M1769.104339,700.37693l-0.008183,-0.034113l-0.034405,-0.014745l-0.004915,0.027033l0.01053,0.02922l0.024649,0.012324l0.012324,-0.019719Z M1767.087687,697.863739l0.049659,0.111347l0.031688,0.009425l0.017648,-0.03614l-0.029451,-0.081882l-0.049842,-0.027242l-0.019702,0.024492Z M1777.773971,708.370871l0.026198,0.003775l0.008931,-0.020383l-0.006538,-0.037827l-0.026527,0.001711l-0.011717,0.030125l0.009654,0.0226Z M1767.223312,696.031429l0.037007,0.006168l0.012336,-0.01542l-0.027756,-0.033923l-0.033923,-0.003084l-0.003084,0.021588l0.01542,0.024672Z M1771.436773,701.314677l0.043478,0.056802l0.042128,0.011288l0.001321,-0.047056l-0.058484,-0.076626l-0.03216,-0.00636l0.003719,0.061952Z M1776.311366,707.10243l0.092933,-0.042705l0.02571,-0.029355l-0.012952,-0.035158l-0.070174,0.008369l-0.055673,0.039265l-0.007075,0.043256l0.027232,0.016327Z M1770.552345,699.443656l0.032154,0.022514l0.023585,-0.026079l-0.010175,-0.057705l-0.030723,-0.032161l-0.032873,0.008928l0.018032,0.084503Z M1771.143816,703.380586l0.010159,-0.037915l-0.032573,-0.013243l-0.050745,0.029298l-0.019714,0.03987l0.019632,0.027837l0.07324,-0.045846Z M1776.09418,706.709766l0.030695,-0.02056l-0.001317,-0.021941l-0.053624,0.005421l-0.03798,0.027603l0.016873,0.024311l0.045352,-0.014833Z M1771.574693,700.741591l0.030431,0.038061l0.028767,-0.012421l-0.00079,-0.097227l-0.022491,-0.030062l-0.029732,0.016989l-0.006186,0.084661Z M1776.442749,706.923213l0.001278,-0.049833l-0.019279,-0.018417l-0.022556,0.028561l-0.007564,0.028701l0.006145,0.036124l0.021419,0.00628l0.020557,-0.031416Z M1767.048652,698.527297l-0.0101,-0.029907l-0.026322,-0.006957l-0.020225,0.026739l0.013259,0.028434l0.024005,0.006114l0.019381,-0.024423Z M1775.241951,708.030417l0.024649,-0.019719l-0.002465,-0.027114l-0.032044,-0.00986l-0.022184,0.022184l0.002465,0.024649l0.029579,0.00986Z M1775.321443,708.027079l0.017125,-0.024243l-0.01096,-0.025285l-0.021443,-0.005122l-0.017428,0.02077l0.007488,0.025589l0.02522,0.008291Z M1773.667242,707.618508l0.021074,-0.020901l-0.006403,-0.026804l-0.020228,-0.008768l-0.02077,0.017428l0.00293,0.0265l0.023397,0.012545Z M1773.809508,704.642247l-0.01376,-0.037287l-0.022051,-0.012068l-0.007011,0.019859l0.011264,0.028758l0.022962,0.022485l0.008595,-0.021747Z M1767.089204,696.202378l-0.057566,-0.020004l-0.047695,0.00745l0.003478,0.029786l0.074472,0.037236l0.04152,-0.014119l-0.014208,-0.040348Z M1772.925877,707.695727l-0.01044,0.047361l0.018278,0.030983l0.027989,-0.008046l0.004374,-0.04999l-0.012211,-0.028354l-0.027989,0.008046Z M1766.874378,698.659899l-0.065225,-0.009161l-0.042111,0.028463l0.028463,0.042111l0.060737,0.014509l0.037623,-0.023114l-0.019487,-0.052808Z M1766.114965,701.515915l-0.025143,0.071476l0.044963,0.015211l0.050409,-0.040765l0.01305,-0.078458l-0.02884,-0.005902l-0.054439,0.038438Z M1766.411108,699.65881l0.093039,0.04377l0.081526,-0.019859l0.011143,-0.030616l-0.047308,-0.046938l-0.073164,-0.016723l-0.059657,0.027819l-0.00558,0.042548Z M1775.235793,706.021243l0.037236,-0.083781l-0.009309,-0.097744l-0.046545,0.004654l-0.027927,0.074472v0.102399h0.046545Z M1772.01518,702.173557l0.010943,-0.063729l-0.043237,-0.078812l-0.041762,0.013565l-0.018074,0.057746l0.048647,0.065124l0.043483,0.006107Z M1773.638311,707.740276l0.019826,-0.034513l-0.003345,-0.048882l-0.021227,-0.000542l-0.025768,0.042398l0.003345,0.048882l0.027169,-0.007344Z M1779.293429,701.837722l0.065163,-0.041981l0.004654,-0.05131l-0.032581,-0.013994l-0.032581,0.018658l-0.023272,0.074632l0.018618,0.013994Z M1775.29101,705.105009l0.027927,0.055854l0.086108,0.06749l0.062835,0.020945l0.039563,-0.011636l-0.003491,-0.066326l-0.048872,-0.076799l-0.101235,-0.034909l-0.048872,0.013963l-0.013963,0.031418Z M1773.91703,702.501919l0.012982,-0.042654l0.003709,-0.051927l-0.012982,-0.022254l-0.018545,0.001855l-0.033381,0.03709l0.001855,0.050072l0.022254,0.107562l0.016691,-0.003709l0.007418,-0.076035Z M1773.959684,702.277522v0.024109l0.014836,0.003709l0.014836,-0.0204l-0.001855,-0.035236l-0.011127,-0.003709l-0.016691,0.031527Z M1774.658001,703.694702l-0.006982,0.046545l-0.016291,0.039563l0.023272,0.011636l0.048872,-0.013963l0.023272,-0.032581l-0.002327,-0.048872l-0.072144,-0.062835l-0.018618,0.009309l0.020945,0.051199Z M1771.097325,698.639939l0.018618,0.016291l0.027927,-0.020945l0.006982,-0.032581l-0.011636,-0.013963l-0.032581,0.009309l-0.011636,0.018618l0.002327,0.023272Z M1771.071725,698.868008l-0.009309,0.060508l-0.027927,0.065163l-0.006982,0.044218l0.020945,0.011636l0.030254,-0.018618l0.058181,-0.081453l0.018618,-0.069817l-0.006982,-0.051199l-0.032581,-0.027927h-0.044218l-0.011636,0.023272l0.011636,0.044218Z M1767.34122,686.960945l0.046597,0.003827l0.017133,-0.02355l-0.028777,-0.038016l-0.055001,0.003301l-0.013059,0.032578l0.033107,0.021859Z M1767.227102,685.603152l0.022648,-0.041384l-0.03006,-0.043339l-0.059917,0.028227l-0.005499,0.049734l0.03898,0.032708l0.033849,-0.025946Z M1768.491391,683.922107l0.006542,-0.03781l-0.018747,-0.011281l-0.026206,0.012926l-0.009095,0.033489l0.020533,0.013579l0.026974,-0.010901Z M1768.349782,684.039944l0.038052,-0.002685l0.02411,-0.056814l-0.030019,-0.042871l-0.035103,0.0126l-0.022503,0.047702l0.025463,0.042068Z M1767.012936,686.323833l0.007395,-0.019719l-0.017254,-0.00986l-0.017254,0.014789l0.00493,0.019719l0.022184,-0.00493Z M1767.08756,687.708686l-0.010607,0.037199l0.011582,0.022416l0.028667,-0.01049l0.007669,-0.046646l-0.017903,-0.022208l-0.019409,0.019728Z M1767.218512,687.78761l0.012342,-0.028182l-0.017248,-0.027071l-0.026795,-0.000841l-0.015955,0.020926l0.011726,0.025061l0.035931,0.010107Z M1766.554985,687.835731l0.013963,-0.017454l-0.006982,-0.027927l-0.034909,-0.003491l-0.010473,0.020945l0.010473,0.024436l0.027927,0.003491Z M1766.307134,688.704955l0.031418,0.003491l0.020945,-0.020945l-0.006982,-0.027927h-0.034909l-0.020945,0.017454l0.010473,0.027927Z M1766.240808,688.48154l0.048872,-0.034909l0.027927,-0.097744v-0.066326l-0.020945,-0.003491l-0.038399,0.038399l-0.048872,0.094253l-0.006982,0.066326l0.038399,0.003491Z M1766.537531,688.411723l0.006982,-0.017454l-0.013963,-0.031418l-0.04189,-0.024436l-0.020945,0.006982v0.031418l0.034909,0.034909h0.034909Z M1775.277143,687.127036l-0.014416,0.020097l-0.004098,0.01907l0.026281,-0.003391l0.014455,-0.012972l0.002223,-0.01868l-0.024444,-0.004123Z M1775.277143,687.127036l-0.014416,0.020097l-0.004098,0.01907l0.026281,-0.003391l0.014455,-0.012972l0.002223,-0.01868l-0.024444,-0.004123Z M1775.154784,687.191662l0.021672,0.02555l0.018435,-0.008729l-0.006308,-0.031771l-0.025827,-0.006305l-0.007972,0.021254Z M1775.204159,688.462497l0.037007,0.006181l0.012336,-0.015453l-0.027756,-0.033997l-0.033923,-0.003091l-0.003084,0.021634l0.01542,0.024725Z M1777.087008,689.512841l0.043566,-0.003475l0.006318,-0.018749l-0.022787,-0.022841l-0.036638,0.004987l-0.006436,0.019101l0.015977,0.020977Z M1775.222692,689.004722l0.009483,-0.102055l-0.012567,-0.037022l-0.036924,-0.006376l-0.027839,0.065097l0.006168,0.067993l0.033923,0.027815l0.027756,-0.015453Z M1775.138713,687.387254l0.084766,0.055316l0.076881,0.013829l0.025627,-0.041487l-0.051254,-0.067169l-0.096594,-0.033585l-0.043369,0.023707l0.003943,0.049389Z M1775.150943,688.082048l0.037236,0.046645l0.125671,0.032652l0.097744,-0.05131l0.04189,-0.153929l-0.046545,-0.055974h-0.111707l-0.069817,0.069968l-0.055854,0.023323l-0.018618,0.088626Z M1776.901027,689.1269l0.051199,0.037316l0.09309,-0.013994l0.046545,-0.065303l-0.04189,-0.111949l-0.060508,-0.004665l-0.060508,0.069968l-0.027927,0.088626Z M1777.794687,687.069846l0.069817,-0.013994l0.051199,-0.149265l0.004654,-0.293865l-0.065163,-0.1446l-0.074472,-0.041981l-0.013963,-0.046645l0.027927,-0.055974l-0.051199,-0.046645l-0.148943,-0.055974l-0.111707,0.013994l-0.04189,0.046645h-0.065163l-0.065163,-0.041981l-0.069817,0.009329l-0.111707,0.130607l-0.004654,0.139936l0.079126,0.069968l0.060508,0.163258l0.102399,0.102619l0.153598,0.041981l0.223415,0.102619l0.051199,0.069968Z M1776.952226,688.021409l-0.004654,0.181916l-0.060508,0.088626l-0.009309,0.060639l0.046545,0.09329l0.018618,0.237891l0.04189,0.055974l0.097744,0.013994l0.046545,0.046645l0.069817,0.013994l0.097744,-0.060639l0.116362,0.009329l0.065163,-0.027987l0.018618,-0.069968l0.172216,-0.186581l0.153598,-0.041981l0.018618,-0.060639l-0.079126,-0.219233l0.009309,-0.083961l0.13498,-0.172587l0.04189,-0.111949l-0.032581,-0.116613l-0.051199,-0.041981l-0.037236,0.004665l-0.013963,0.097955l-0.088435,0.074632l-0.116362,0.004665l-0.116362,-0.037316l-0.172216,-0.088626l-0.097744,-0.027987l-0.214106,0.013994l-0.172216,0.055974v0.037316l0.116362,0.256549Z M1776.165619,684.359759v0.05131l0.051199,0.055974l0.107053,-0.009329l0.083781,-0.116613l0.004654,-0.139936l-0.111707,-0.121278l-0.060508,-0.004665l-0.027927,0.05131l-0.004654,0.153929l-0.04189,0.079297Z M1773.075431,682.254832l0.020801,0.016403l0.017926,-0.013216l0.013252,-0.036106l-0.023829,-0.011807l-0.02521,0.020274l-0.00294,0.024451Z M1774.32615,677.898292l0.026023,-0.042518l-0.007488,-0.025589l-0.033815,0.013456l-0.020901,0.021074l-0.012741,0.034357l0.01541,0.016148l0.033511,-0.016929Z M1773.849141,679.390396l0.035484,-0.055197l-0.007885,-0.027598l-0.055197,0.031541l-0.027598,0.055197l0.01577,0.023656l0.039426,-0.027598Z M1772.738773,682.011832l0.030916,-0.058284l-0.012343,-0.049413l-0.049306,0.01237l-0.034407,0.052225l0.008852,0.043353l0.056288,-0.000251Z M1772.499598,683.288161h0.022184l0.012324,-0.024702l-0.014789,-0.014821l-0.024649,-0.00494l-0.007395,0.022232l0.012324,0.022232Z M1775.261226,686.9053l0.012288,0.014777l0.01966,-0.004926l-0.002458,-0.024628l-0.024575,-0.004926l-0.004915,0.019703Z M1775.310427,687.024645l0.005638,0.021006l0.028767,-0.003767v-0.022165l-0.01966,-0.012314l-0.014745,0.01724Z M1775.223204,688.706814l0.030704,0.001963l0.019539,-0.025522l-0.008374,-0.025522l-0.025121,-0.007853l-0.019539,0.019632l0.002791,0.037301Z M1776.830315,689.470392v0.024628l0.024575,0.014777l0.022118,-0.014777l-0.012288,-0.024628h-0.034405Z M1777.287863,689.097187l-0.00256,-0.026462l-0.02836,0.012141l-0.018917,0.039017l0.02445,0.007009l0.025387,-0.031704Z M1776.735655,689.498971l0.002465,-0.022232l-0.022184,-0.00494l-0.019719,0.014821l0.014789,0.017291l0.024649,-0.00494Z M1775.539864,687.50146l-0.003986,0.038559l0.015298,0.020108l0.02641,-0.015342l-0.000547,-0.047371l-0.021487,-0.018802l-0.015688,0.022848Z M1783.553125,668.070909l0.025152,0.048376l0.038638,0.006179l0.017722,-0.058617l-0.051485,-0.147228l-0.037128,-0.007446l-0.019093,0.026315l0.026194,0.132422Z M1792.738542,672.387143l0.012111,0.038343l0.060528,-0.033753l0.055207,-0.094579l-0.01097,-0.025308l-0.054201,0.03101l-0.062674,0.084288Z M1781.565868,665.361392l-0.009252,0.021588l0.018504,0.01542l0.027756,-0.018504l-0.006168,-0.021588l-0.030839,0.003084Z M1793.126112,672.456768l0.061438,-0.017203l-0.007373,-0.024575l-0.073726,-0.002458l-0.036863,0.01966l0.002458,0.022118l0.054065,0.002458Z M1793.519483,672.463911l-0.001431,-0.022193l-0.026405,0.00256l-0.013162,0.035133l0.022908,0.009665l0.018091,-0.025166Z M1783.63407,668.39307l-0.02957,-0.118279l-0.02957,-0.014785l-0.023656,0.032527l0.014785,0.085752l0.044354,0.035484l0.023656,-0.020699Z M1793.015883,673.231059l0.035836,0.001074l0.013582,-0.059968l-0.030748,-0.087562l-0.030178,0.005145l-0.02187,0.047683l0.033378,0.093628Z M1781.681194,665.506673l0.058194,0.084106l0.033373,0.020222l0.032375,-0.018861l-0.020428,-0.067655l-0.048336,-0.048009l-0.043828,0.000544l-0.01135,0.029653Z M1781.681194,665.506673l0.058194,0.084106l0.033373,0.020222l0.032375,-0.018861l-0.020428,-0.067655l-0.048336,-0.048009l-0.043828,0.000544l-0.01135,0.029653Z M1793.929408,673.669037l-0.025049,-0.042996l-0.027476,-0.000146l-0.003993,0.048117l0.027329,0.027622l0.031889,-0.003127l-0.002701,-0.029469Z M1783.150931,667.510884v0.032479l0.032479,0.00464l0.013919,-0.032479l-0.018559,-0.018559l-0.027839,0.013919Z M1782.415965,665.570525l-0.039639,0.093063l-0.000239,0.078109l0.045219,0.018049l0.057106,-0.062114l0.01623,-0.100946l-0.030827,-0.038602l-0.047849,0.012441Z M1794.003264,672.851662l-0.0137,-0.064425l-0.041149,-0.029837l-0.029837,0.041149l0.00714,0.062037l0.034588,0.027449l0.042958,-0.036373Z M1793.650237,672.161162l-0.002701,-0.058455l-0.022673,-0.021467l-0.049796,0.036699l-0.000579,0.059649l0.025362,0.039063l0.040558,-0.011047l0.009829,-0.044441Z M1782.576527,664.004023l0.000478,0.12043l0.051931,0.122265l0.048916,0.011915l0.021443,-0.104392l-0.010758,-0.070382l-0.07101,-0.093031l-0.041,0.013196Z M1782.680452,664.400962l0.024109,-0.007418l0.009273,-0.014836l-0.005564,-0.027818l-0.025963,-0.007418l-0.018545,0.0204v0.024109l0.016691,0.012982Z M1783.019776,667.580075l0.024109,0.001855l0.027818,-0.012982l0.003709,-0.031527l-0.033381,-0.012982l-0.029672,0.018545l-0.003709,0.022254l0.011127,0.014836Z M1793.443659,672.988106l0.004654,0.032581l0.107053,0.023272l0.088435,0.065163h0.04189l0.074472,-0.074472l0.069817,-0.018618l0.023272,-0.037236l-0.060508,-0.051199l-0.13498,-0.009309l-0.111707,0.051199l-0.102399,0.018618Z M1794.053395,673.732823l-0.023272,0.051199l-0.037236,0.013963l-0.018618,0.051199l0.037236,0.097744l-0.004654,0.144289l0.074472,0.116362l-0.009309,0.088435l-0.079126,0.074472l0.004654,0.046545l0.111707,0.060508l0.074472,0.004654l0.069817,0.027927l0.027927,0.102399l0.09309,0.060508l0.04189,-0.004654l0.027927,-0.13498l0.004654,-0.102399l-0.051199,-0.051199v-0.037236l0.088435,-0.09309l0.032581,-0.214106l-0.018618,-0.158252l-0.046545,-0.060508l-0.09309,-0.069817l-0.060508,-0.018618l-0.055854,0.032581l-0.023272,-0.018618l0.032581,-0.172216l-0.027927,-0.130325l-0.079126,-0.04189l-0.032581,0.018618l-0.023272,0.083781l-0.051199,0.074472l-0.009309,0.097744l0.023272,0.060508Z M1792.224185,670.949445l0.04189,0.079126l-0.004654,0.069817l0.055854,0.195488l0.079126,0.088435l0.051199,0.116362l-0.023272,0.097744l0.018618,0.246687l0.107053,0.17687l0.037236,0.009309l0.04189,-0.079126l0.09309,0.004654l0.097744,0.055854l0.13498,0.013963l0.04189,-0.046545l-0.032581,-0.083781l-0.013963,-0.079126l0.032581,-0.023272l0.074472,0.027927l0.237378,0.228069l0.083781,0.023272l0.051199,-0.083781v-0.074472l-0.079126,-0.060508l-0.181525,-0.265305l-0.027927,-0.097744l-0.274614,-0.367704l-0.181525,-0.190834l-0.200143,-0.097744h-0.144289l-0.153598,0.046545l-0.009309,0.051199l0.046545,0.018618Z M1782.398582,667.207244l0.055854,0.065163l0.051199,-0.004654l0.102399,-0.111707l0.009309,-0.097744l-0.04189,-0.069817l-0.074472,-0.004654l-0.097744,0.032581l-0.023272,0.088435l0.018618,0.102399Z M1786.843609,668.040396l-0.027927,0.13498l-0.004654,0.102399l0.037236,0.027927v-0.069817l0.051199,-0.172216l0.065163,-0.037236l0.013963,-0.046545l-0.060508,-0.055854l-0.051199,-0.004654l-0.023272,0.046545v0.074472Z M1763.008273,688.910916l0.083781,0.020945l0.045381,0.038399l0.017454,0.062835l0.031418,0.034909l0.04189,0.003491l0.010473,-0.027927l-0.017454,-0.069817l-0.04189,-0.052363l-0.04189,-0.013963l-0.010473,-0.024436l0.013963,-0.052363l-0.031418,-0.045381l-0.048872,-0.003491l-0.076799,0.04189l-0.013963,0.055854l0.038399,0.031418Z M1763.196779,688.799208l0.010473,-0.017454l-0.024436,-0.062835l0.006982,-0.048872l0.031418,-0.003491l0.094253,0.083781l0.038399,0.003491l0.006982,-0.031418l-0.038399,-0.066326l0.010473,-0.031418l0.034909,-0.024436l-0.010473,-0.034909l-0.04189,-0.024436l-0.118689,-0.003491l-0.094253,0.031418l-0.024436,0.048872l0.034909,0.087271l0.083781,0.094253Z M1761.659857,693.704025l0.011819,0.023616l0.043505,0.003969l0.016321,-0.026566l-0.019557,-0.02688l-0.034758,-0.003041l-0.01733,0.028902Z M1761.645649,694.436245l-0.028412,-0.051983l-0.022866,0.005363l0.001438,0.062884l0.029124,0.030188l0.028405,-0.001254l-0.007688,-0.045197Z M1761.642511,694.296993l-0.002135,-0.035015l-0.031322,-0.020496l-0.009535,0.025769l0.005296,0.030604l0.022134,0.016417l0.015561,-0.017279Z M1761.687261,694.859142l-0.043192,-0.024711l-0.023868,0.013611l0.020601,0.043667l0.037479,0.010256l0.026053,-0.018653l-0.017073,-0.024171Z M1761.66843,695.020833l0.028258,0.029225l0.012067,-0.013608l-0.000419,-0.025374l-0.029982,-0.027281l-0.02324,-0.000814l0.013315,0.037852Z M1762.683656,692.731039v0.032479l0.032479,0.00464l0.013919,-0.032479l-0.018559,-0.018559l-0.027839,0.013919Z M1762.751264,691.114529l0.015843,0.047265l0.024415,0.010712l0.011428,-0.034553l-0.002709,-0.029557l-0.01813,-0.031844l-0.022275,0.001425l-0.008572,0.036552Z M1761.628931,693.87248l0.034774,0.087795l0.05985,0.016835l0.011817,-0.067017l-0.04481,-0.102129l-0.055906,-0.003576l-0.005724,0.068091Z M1761.628931,693.87248l0.034774,0.087795l0.05985,0.016835l0.011817,-0.067017l-0.04481,-0.102129l-0.055906,-0.003576l-0.005724,0.068091Z M1765.747476,692.3321l-0.06749,-0.167561v-0.062835l0.058181,-0.116362l0.006982,-0.214106l-0.023272,-0.144289l-0.053526,-0.06749l0.004654,-0.030254l0.034909,-0.030254h0.10938l0.204797,0.074472l0.118689,0.090762l0.002327,0.053526l-0.076799,0.141962l-0.139634,0.188506l-0.039563,0.097744l-0.002327,0.102399l-0.0256,0.10938l-0.039563,0.055854l-0.0256,0.002327l-0.046545,-0.083781Z M1765.75213,690.384201l0.023272,0.046545l0.081453,0.002327l0.065163,-0.069817l0.018618,-0.086108l-0.011636,-0.074472l0.006982,-0.051199l0.048872,-0.055854l0.051199,-0.023272l0.072144,-0.116362l-0.002327,-0.060508l-0.051199,-0.051199l-0.027927,0.006982l-0.009309,0.053526l-0.044218,0.083781l-0.062835,0.062835l-0.04189,0.072144l-0.018618,0.060508l-0.023272,0.032581l-0.046545,0.009309l-0.0256,0.053526l-0.002327,0.104726Z M1766.061653,690.500563l0.055854,0.151271l0.079126,0.06749l0.0256,-0.002327l0.013963,-0.048872l-0.006982,-0.06749l-0.10938,-0.137307l-0.0256,-0.037236l-0.023272,0.006982l-0.009309,0.06749Z M1765.728858,690.575034l0.011636,0.074472l-0.023272,0.058181l-0.046545,0.039563l-0.016291,0.111707l0.032581,0.06749l0.004654,0.167561l-0.023272,0.06749l-0.004654,0.079126l-0.016291,0.060508l0.006982,0.053526l0.055854,0.032581l0.165234,0.002327l0.044218,-0.011636v-0.030254l-0.04189,-0.055854l-0.009309,-0.027927h0.020945l0.051199,0.060508l0.030254,0.011636l0.039563,-0.004654l0.016291,-0.037236l0.002327,-0.065163l0.018618,-0.044218l0.0256,-0.002327l0.013963,0.027927l0.023272,0.004654l0.062835,-0.055854l0.04189,-0.097744l-0.004654,-0.114035l-0.069817,-0.179197l-0.095417,-0.072144l-0.023272,0.002327l-0.006982,0.027927l-0.083781,0.083781l-0.020945,0.055854l-0.016291,0.018618l-0.013963,-0.013963l0.009309,-0.051199l0.09309,-0.116362l0.009309,-0.083781l-0.039563,-0.100071l-0.053526,-0.030254l-0.104726,-0.004654l-0.051199,0.023272l-0.013963,0.06749Z M1766.643463,686.897996l0.031418,0.003491l0.150107,-0.132653l0.006982,-0.059345l-0.059345,-0.129162l-0.013963,-0.108217h-0.031418l-0.031418,0.031418l-0.006982,0.031418l0.020945,0.027927l-0.006982,0.045381l-0.038399,0.034909l-0.062835,0.013963l-0.038399,0.04189v0.045381l0.045381,0.059345l0.034909,0.094253Z M1766.95764,686.269642l0.024436,-0.038399l0.045381,-0.062835l0.062835,-0.034909l0.006982,-0.034909l-0.017454,-0.048872v-0.034909l0.027927,-0.031418l0.013963,-0.069817l-0.020945,-0.038399l-0.052363,-0.010473l-0.045381,-0.034909l-0.045381,-0.003491l-0.04189,0.052363l-0.013963,0.052363l0.024436,0.073308v0.055854l-0.045381,0.055854l-0.003491,0.115198l0.027927,0.038399h0.052363Z M1767.20894,688.234853h0.027927l0.032581,-0.046545v-0.088435l-0.032581,-0.055854l-0.032581,0.004654l-0.013963,0.051199l0.018618,0.13498Z  M1796.44347,674.105181l0.035,-0.014l0.032,-0.035l-0.018,-0.607l-0.044,-0.144l-0.1,-0.131l-0.044,-0.007l-0.016,-0.023l0.023,-0.033l-0.014,-0.027l-0.079,-0.024l-0.035,-0.046l-0.012,-0.054l-0.037,-0.032l-0.037,-0.007l-0.021,-0.033l-0.014,-0.063l-0.04,-0.056l-0.044,-0.037l-0.091,-0.221l-0.004,-0.067l0.016,-0.047l-0.005,-0.042l-0.039,-0.074l-0.012,-0.089l-0.042,-0.077l-0.046,-0.018l-0.021,-0.047l-0.019,-0.081l-0.072,-0.084l-0.047,-0.154l-0.002,-0.081l0.021,-0.042l-0.002,-0.035l-0.038,-0.07l-0.014,-0.204l-0.03,-0.049l-0.046,-0.024l-0.033,-0.039l-0.021,-0.063l-0.114,-0.114l-0.009,-0.061l-0.017,-0.044l-0.077,-0.063l-0.042,-0.102l-0.005,-0.063l-0.026,-0.037v-0.037l0.04,-0.107l-0.002,-0.054l-0.014,-0.032l-0.003,-0.038l0.059,-0.107l0.002,-0.07l-0.026,-0.149l0.005,-0.069l0.067,-0.217l0.011,-0.412l0.105,-0.146l0.088,-0.047l0.158,-0.002l0.061,-0.033l0.032,-0.056l-0.009,-0.132l-0.056,-0.054l-0.007,-0.074l-0.063,-0.061l-0.13,-0.03l-0.044,-0.005l-0.056,-0.028l-0.007,-0.051l0.016,-0.051l-0.011,-0.037l-0.038,-0.028h-0.037l-0.027,0.018l-0.015,-0.003l0.009,-0.064l0.043,-0.092l-0.015,-0.008l-0.056,0.024l-0.037,-0.003l-0.089,-0.08l-0.011,-0.061l-0.059,-0.043l-0.063,-0.018v-0.019l0.041,-0.035l-0.004,-0.028l-0.102,-0.098l-0.024,-0.087l-0.037,-0.028l-0.056,-0.006l-0.035,-0.024l-0.002,-0.054l0.022,-0.041l-0.003,-0.04l-0.034,-0.019l-0.08,-0.004l-0.05,-0.027l-0.052,-0.008l-0.211,-0.195l-0.02,-0.046l-0.071,-0.026l-0.039,0.002l-0.037,0.028h-0.028l-0.024,-0.022l-0.046,-0.002l-0.032,0.015l-0.04,-0.002l-0.145,-0.115l-0.03,-0.06l0.002,-0.029l0.028,-0.03l-0.002,-0.024l-0.072,-0.076l0.002,-0.026l0.029,-0.054l-0.002,-0.124l-0.016,-0.028l-0.006,-0.03l0.039,-0.046l0.033,-0.022l0.047,-0.008l0.046,-0.05l0.045,-0.022l0.037,-0.089l-0.006,-0.048l-0.055,-0.069l-0.002,-0.037l0.028,-0.048l-0.002,-0.037l-0.037,-0.041l-0.052,-0.015l-0.023,-0.026l-0.001,-0.089l-0.025,-0.041l-0.066,-0.04l-0.008,-0.052l0.013,-0.03l0.039,-0.033l0.004,-0.134l0.017,-0.031l-0.002,-0.026l-0.043,-0.038l-0.018,-0.04l-0.002,-0.065l-0.052,-0.056l-0.024,-0.074l-0.002,-0.03l0.068,-0.076v-0.048l-0.081,-0.102v-0.022l0.118,-0.1h0.025l0.027,0.022l0.023,-0.002l0.048,-0.05l0.037,-0.004l0.002,-0.018l-0.173,-0.05l-0.07,-0.039l-0.18,-0.351l-0.005,-0.057l-0.053,-0.035l-0.08,-0.005l-0.06,-0.06l-0.023,-0.079l-0.075,-0.082l-0.021,-0.065v-0.056l-0.018,-0.032l-0.068,-0.059l-0.014,-0.123l-0.06,-0.116l-0.007,-0.175l-0.031,-0.06l-0.116,-0.161l-0.019,-0.119l-0.109,-0.128l-0.002,-0.081l0.065,-0.103l-0.005,-0.072l-0.079,-0.17l-0.002,-0.065l0.079,-0.237l0.014,-0.14l-0.009,-0.223l-0.024,-0.084l0.007,-0.14l0.042,-0.104l-0.005,-0.079l-0.076,-0.117l-0.035,-0.065l-0.075,-0.044l-0.004,-0.047l0.051,-0.093l0.056,-0.014l0.053,0.005l0.042,-0.042l-0.005,-0.035l0.028,-0.028l0.056,0.005l0.091,0.07h0.063l0.088,-0.021h0.077l0.123,0.072l0.089,0.002l0.119,-0.021l0.048,-0.039h0.066l0.242,0.044l0.076,-0.007l0.089,-0.072l0.077,-0.005l0.058,-0.063l0.021,-0.091l0.058,-0.039l0.268,-0.002v-0.019l-0.201,-0.126l-0.093,-0.011l-0.03,-0.028l-0.009,-0.044l-0.044,-0.038l-0.049,-0.014l-0.068,-0.058v-0.03l0.086,-0.154l0.052,-0.051l0.046,-0.002l0.023,-0.017l0.024,-0.048l0.507,-0.268l0.149,-0.049l0.049,-0.037l0.067,-0.084l0.044,-0.014h0.103l0.063,-0.035v-0.077l-0.058,-0.046l-0.002,-0.024l0.209,-0.337l0.076,-0.081l0.098,-0.477l0.033,-0.045l0.1,-0.041l0.032,-0.035l0.063,-0.131l0.325,-0.265l0.263,-0.07l0.037,-0.064l-0.037,-0.177l0.011,-0.215l0.059,-0.118l0.096,-0.101l0.027,-0.129l0.075,-0.123v-0.092l-0.048,-0.102l0.048,-0.107l0.182,-0.096l0.172,-0.043l0.123,-0.081l0.107,-0.026l0.059,-0.065l0.033,-0.118l0.096,-0.102l0.038,-0.08l0.171,-0.086l0.199,-0.011l0.048,-0.032l0.032,-0.08l0.054,-0.043l0.08,0.027l0.054,-0.016l0.037,-0.075l0.092,-0.017l0.166,0.059l0.161,-0.021l0.198,-0.123l0.397,-0.038l0.552,-0.016l0.07,-0.059l0.043,-0.107l0.075,-0.032l0.059,0.01l0.08,0.097h0.081l0.354,-0.258l0.209,-0.091l0.209,-0.01l0.188,0.08l0.037,0.08h0.07l0.118,-0.096l0.032,-0.107l0.118,-0.07l0.193,0.016l0.07,0.097l-0.043,0.23l0.048,0.07l0.102,0.005l0.097,-0.032l0.343,0.129l0.187,0.005l0.135,-0.054l0.101,0.011l0.145,0.14l0.268,0.091l0.167,0.005l0.107,-0.091l0.188,0.005l0.085,-0.037l0.075,0.011l0.081,0.069h0.161l0.252,-0.053l0.096,-0.075l0.049,-0.097l0.144,-0.027l0.043,0.038l-0.01,0.069l0.026,0.043l0.167,-0.005l0.059,-0.059l0.005,-0.086l0.075,-0.043l0.091,0.016l0.097,0.086l0.112,-0.005l0.129,-0.086l0.054,-0.123l0.112,-0.027l0.247,0.171l0.198,0.081l0.392,-0.011l0.338,0.075l0.037,0.065l0.075,-0.006l0.048,-0.086l0.124,-0.069l0.112,0.01l0.086,0.097l0.193,0.027l0.14,-0.059l0.048,-0.124l0.349,-0.284l0.075,0.006l0.085,0.139l0.108,0.016l0.08,-0.064l0.038,-0.107l0.118,-0.07l0.048,0.027l-0.011,0.144l0.032,0.017l0.075,-0.049l0.059,0.006l0.022,0.043l0.043,-0.006l0.112,-0.123l0.177,-0.081l0.086,0.027l0.048,0.081l0.124,0.059l0.016,0.064l0.037,0.016l0.134,-0.075h0.102l0.274,0.08l0.129,0.108l0.064,-0.006l0.059,-0.048l0.091,0.016l0.129,0.086l0.048,0.102l-0.054,0.214l-0.037,0.049l0.005,0.059l0.091,0.101l0.129,0.242l0.016,0.145l0.161,0.139l0.161,0.059l0.214,-0.016l0.172,-0.102l0.113,-0.156l-0.011,-0.101l0.112,-0.226l0.059,-0.032l0.022,-0.053l-0.054,-0.113l0.049,-0.08l0.134,-0.022l0.066,0.022h0.036l0.058,0.048h0.051l0.059,-0.089l0.097,-0.077h0.075l0.086,0.034l0.048,-0.018l0.024,-0.062l0.046,-0.016l0.048,0.019l0.038,-0.024l0.029,-0.092l0.056,-0.059l0.073,0.003l0.07,0.046l0.12,-0.014l0.075,-0.069l0.086,-0.014l0.099,-0.059l0.059,-0.121h0.049l0.053,0.043l0.043,-0.002l0.083,-0.075l0.027,-0.097l0.091,-0.131l0.073,-0.041l0.096,-0.171l-0.013,-0.038l0.018,-0.032l0.075,-0.021l0.07,-0.078l0.057,-0.097l0.056,-0.034l0.059,-0.108l-0.003,-0.112l0.027,-0.065l-0.011,-0.045l-0.037,-0.032l0.002,-0.065l0.062,-0.064l-0.005,-0.038l-0.059,-0.024l-0.024,-0.056l0.018,-0.059l-0.008,-0.046l-0.059,-0.034l-0.002,-0.076l0.04,-0.085l-0.003,-0.049l-0.045,-0.064l0.002,-0.035l0.038,-0.032l0.005,-0.046l-0.032,-0.072l0.021,-0.038l0.132,-0.026l0.021,-0.041l-0.029,-0.018l-0.067,-0.006l-0.113,-0.088v-0.115l0.048,-0.097l-0.005,-0.056l-0.048,-0.049v-0.056l0.04,-0.094l0.043,-0.013l0.053,0.024l0.054,-0.021l0.089,-0.076l0.002,-0.04l-0.059,-0.064l-0.021,-0.081l0.051,-0.075l0.107,-0.043l0.056,0.017l0.027,-0.019l-0.021,-0.11l-0.113,-0.164l-0.078,-0.016l-0.008,-0.035l0.03,-0.075l0.013,-0.072l0.032,-0.03l0.075,0.003l0.07,0.081h0.03l0.053,-0.108l0.097,-0.072l0.099,-0.027v-0.024l-0.097,-0.094l-0.061,-0.021h-0.121l-0.037,-0.03l-0.011,-0.129l-0.064,-0.061l-0.068,-0.019l-0.037,-0.04l0.003,-0.059l0.037,-0.051v-0.062l-0.051,-0.04l-0.045,0.003l-0.038,0.029h-0.088l-0.033,-0.029v-0.092l-0.056,-0.048l-0.158,-0.083l-0.016,-0.078l-0.07,-0.08l0.003,-0.056l0.088,-0.089l0.003,-0.037l-0.075,-0.043l0.032,-0.137l0.091,-0.131l0.057,-0.07l0.099,-0.059l0.04,-0.054l0.027,-0.075l0.072,-0.086l0.091,-0.026l0.057,-0.041l0.083,-0.013l0.059,0.008l0.04,-0.013l0.04,-0.067l-0.002,-0.062l-0.057,-0.126l-0.002,-0.062l0.016,-0.045l-0.033,-0.073l-0.053,-0.011l-0.073,0.038l-0.281,0.008l-0.067,0.019l-0.054,-0.006l-0.177,-0.109l-0.032,-0.07l0.011,-0.081l0.07,-0.112l0.112,-0.086l0.386,-0.072l0.126,-0.062l0.099,-0.099l0.076,-0.319l-0.006,-0.094l-0.048,-0.124l0.003,-0.096l0.096,-0.22l0.094,-0.08l0.021,-0.078l0.025,-0.255l0.048,-0.153l-0.006,-0.174l-0.05,-0.08l-0.118,-0.167l-0.054,-0.155l-0.094,-0.081l-0.161,-0.061l-0.053,-0.051l-0.07,-0.032h-0.086l-0.059,-0.016l-0.11,-0.089h-0.086l-0.134,0.113l-0.08,0.005l-0.164,-0.043l-0.094,-0.094l-0.021,-0.12l-0.059,-0.038l-0.075,-0.016l-0.062,-0.078l-0.016,-0.163l-0.075,-0.167l-0.163,-0.321l-0.041,-0.145l0.016,-0.11l0.126,-0.161l0.059,-0.123l0.081,-0.057h0.072l0.097,0.033l0.061,-0.006l0.033,-0.051l-0.014,-0.075l-0.096,-0.067l-0.266,-0.032l-0.12,-0.051l-0.282,-0.027l-0.088,-0.043l-0.454,-0.053l-0.152,-0.035l-0.432,-0.188l-0.062,-0.002l-0.029,0.016l-0.054,-0.003l-0.099,-0.081h-0.056l-0.054,0.019l-0.078,-0.01l-0.179,-0.092l-0.065,-0.099l-0.032,-0.193l-0.129,-0.295l-0.01,-0.147l0.029,-0.194l-0.032,-0.072l-0.164,-0.179l-0.215,-0.117l-0.132,-0.179l-0.029,-0.075l-0.079,-0.05l-0.117,-0.008l-0.072,-0.082l-0.054,-0.15l-0.121,-0.189l-0.047,-0.229l-0.103,-0.168l-0.165,-0.107l-0.25,-0.122l-0.182,-0.186l-0.093,-0.15l-0.029,-0.154l0.029,-0.239l0.089,-0.444l0.068,-0.236l-0.007,-0.243l-0.1,-0.236l-0.04,-0.214l0.022,-0.143l0.104,-0.115l0.003,-0.092l-0.082,-0.197l-0.075,-0.322l-0.032,-0.49l0.025,-0.153l0.182,-0.311l0.261,-0.63l0.036,-0.407l-0.011,-0.397v-0.572l-0.043,-0.211l-0.104,-0.157l-0.175,-0.172l-0.1,-0.132l-0.096,-0.257l-0.143,-0.154l-0.565,-0.351l-0.14,-0.039l-0.593,-0.314l-0.258,-0.172l-0.461,-0.629l-0.279,-0.512l-0.114,-0.092l-0.136,-0.043l-0.132,-0.029l-0.154,-0.122l-0.111,-0.239l-0.2,-0.497l-0.15,-0.243l-0.39,-0.436l-0.239,-0.258l-0.093,-0.16l-0.097,-0.283l-0.121,-0.211l-0.029,-0.111l-0.472,-0.693l-0.093,-0.082l-0.121,-0.015l-0.14,0.011l-0.268,0.239l-0.171,0.093h-0.068l-0.072,-0.067l-0.05,-0.158l-0.125,-0.114l-0.182,-0.043l-0.236,0.007l-0.097,-0.018l-0.286,-0.007l-0.096,-0.054l-0.279,-0.228l-0.222,-0.115l-0.214,-0.014l-0.1,-0.032l-0.136,-0.072l-0.175,-0.036l-0.201,0.008l-0.178,-0.011l-0.265,-0.125l-0.129,-0.004l-0.15,0.04l-0.193,0.025h-0.179l-0.132,0.053l-0.079,0.147l-0.16,0.143l-0.09,0.078l-0.018,0.122l0.022,0.096l0.111,0.065l0.16,0.053l0.033,0.079l-0.011,0.068l-0.204,0.104l-0.422,0.107l-0.196,0.096l-0.104,0.169l-0.011,0.117l0.022,0.122l-0.018,0.136l-0.122,0.125l-0.282,0.161l-0.075,0.107l-0.04,0.24v0.111l0.043,0.125l-0.021,0.15l-0.207,0.318l-0.068,0.057l-0.104,0.004l-0.104,-0.043l-0.118,-0.107l-0.136,-0.047l-0.153,0.009l-0.267,0.136l-0.236,0.052l-0.184,0.112l-0.06,0.074l-0.104,0.046l-0.122,0.018l-0.078,0.064l-0.1,0.193l-0.136,0.09l-0.158,0.036l-0.128,0.028l-0.125,0.075l-0.04,0.111l0.011,0.097l0.104,0.085l0.003,0.072l-0.071,0.068l-0.093,-0.004l-0.097,-0.061l-0.082,-0.096l-0.086,-0.029h-0.161l-0.089,-0.039l-0.029,-0.082l0.143,-0.322l0.022,-0.207l-0.036,-0.151l-0.157,-0.1l-0.143,-0.032h-0.097l-0.06,0.04l-0.09,-0.004l-0.093,-0.05l-0.086,-0.004l-0.082,0.033l-0.118,-0.018l-0.236,-0.097l-0.193,-0.114l-0.322,-0.272l-0.171,-0.061l-0.147,-0.021l-0.136,-0.061l-0.268,-0.275l-0.332,-0.265l-0.111,-0.154l-0.093,-0.264l-0.089,-0.064l-0.161,-0.04l-0.068,0.022l-0.068,-0.004l-0.093,-0.039l-0.107,0.003l-0.154,0.086l-0.079,0.09l-0.053,0.193l-0.108,0.114l-0.189,0.164l-0.089,0.033l-0.133,0.107l-0.228,0.314l-0.072,0.14l-0.086,0.043l-0.153,-0.004l-0.115,-0.093l-0.154,-0.061l-0.096,-0.053l-0.15,-0.029l-0.054,-0.035l-0.054,-0.004l-0.107,0.093l-0.064,0.164l-0.036,0.204l-0.132,0.336l-0.014,0.1l0.021,0.086l-0.021,0.082l-0.083,0.072h-0.064l-0.061,-0.04h-0.107l-0.122,0.065l-0.15,0.046h-0.128l-0.054,0.057l-0.075,0.204l-0.05,0.047h-0.05l-0.05,-0.125l-0.043,-0.008l-0.036,0.058l-0.029,0.143l-0.075,0.125l0.004,0.061l0.096,0.064l0.047,0.114l-0.043,0.011l-0.068,-0.021l-0.071,0.014l-0.058,0.064l-0.085,-0.003l-0.065,0.032l-0.093,0.136l-0.046,0.139l-0.04,0.054l-0.032,-0.018l0.018,-0.1l-0.053,-0.032l0.025,-0.061l-0.022,-0.025l-0.079,0.007l-0.089,0.1l-0.018,0.068l-0.057,0.018l-0.161,-0.032l-0.107,0.018l-0.022,0.035l0.054,0.029h0.093l0.068,0.043l-0.007,0.046l-0.09,0.015l-0.046,0.093l-0.007,0.06l-0.061,0.011l-0.079,-0.071l-0.05,0.014l-0.01,0.082l-0.122,0.061l-0.118,0.086l-0.214,0.043l-0.029,0.042l0.036,0.058l-0.022,0.039l-0.075,0.014l-0.068,0.065l-0.003,0.046l-0.054,0.043l-0.064,0.007l-0.054,0.072l-0.036,0.093l-0.075,0.178l-0.071,0.022l-0.025,0.05l-0.007,0.075l-0.09,0.032l-0.168,0.004l-0.064,0.028l-0.014,0.057l0.032,0.101l-0.011,0.05l-0.093,0.028l-0.018,0.047l0.018,0.057l-0.007,0.046l-0.064,0.022l-0.043,-0.054l-0.05,-0.011l-0.04,0.022l-0.035,-0.011l0.01,-0.039l-0.043,-0.014l-0.082,0.01l-0.082,-0.082l-0.004,-0.086l-0.035,-0.018l-0.115,0.015l-0.089,-0.043l-0.015,-0.079l-0.035,-0.028h-0.061l-0.029,-0.029l-0.01,-0.068l-0.129,-0.093l-0.15,-0.036l-0.129,-0.064l-0.075,-0.004l-0.032,-0.046l0.014,-0.097l0.075,-0.039l0.086,-0.114l0.025,-0.104l-0.007,-0.272l0.021,-0.075l0.061,-0.107v-0.154l0.025,-0.068l-0.021,-0.035l-0.09,-0.029l-0.039,-0.082l-0.057,-0.036v-0.061l0.075,-0.043h0.075l0.032,-0.057l-0.003,-0.068l-0.065,-0.111l0.025,-0.096l0.104,-0.072h0.1l0.014,-0.043l-0.01,-0.071l0.017,-0.079l-0.01,-0.053l-0.083,-0.115l0.018,-0.078l0.186,-0.151h0.122l0.053,-0.05l0.083,-0.014l0.057,-0.114l0.053,-0.054l0.058,-0.014l0.028,-0.057v-0.186l0.061,-0.161l0.147,-0.179l0.043,-0.004l0.017,0.036h0.033l0.132,-0.186l-0.007,-0.068l-0.057,-0.089l-0.004,-0.089l-0.064,-0.122l-0.004,-0.146l0.189,-0.522l-0.014,-0.061l-0.039,-0.043l-0.043,0.003l-0.032,0.04l-0.047,-0.004l-0.01,-0.107l-0.09,-0.139l-0.003,-0.068l0.071,-0.065v-0.053l-0.061,-0.065v-0.061l0.108,-0.121l0.053,-0.022l0.036,-0.053l0.004,-0.068l-0.058,-0.054l-0.168,-0.043l-0.128,-0.096l-0.272,-0.129l-0.029,-0.103l-0.05,-0.061l-0.064,-0.018l-0.082,-0.1l0.007,-0.122l0.171,-0.225l0.083,-0.029l0.018,-0.039l-0.008,-0.093l0.068,-0.132l0.079,-0.054l0.129,-0.021l0.078,-0.082l0.007,-0.061l0.051,-0.05l0.171,-0.032l0.032,-0.111l-0.043,-0.086l0.004,-0.122l0.064,-0.06l0.251,-0.058l0.093,-0.1l0.014,-0.093l0.111,-0.168l0.068,-0.053l-0.018,-0.083l-0.122,-0.089l-0.064,-0.004l-0.05,-0.042l-0.047,-0.083l0.007,-0.046l0.068,-0.079l0.033,-0.136l0.046,-0.05l0.007,-0.146l0.047,-0.054v-0.05l-0.072,-0.079l0.004,-0.082l0.053,-0.107v-0.132l-0.05,-0.1l0.029,-0.14l0.114,-0.089l0.047,-0.097l0.121,-0.078l0.015,-0.108l-0.033,-0.071l0.011,-0.097l0.082,-0.06l0.015,-0.065l0.046,-0.043l0.129,-0.003l0.032,-0.043l0.039,-0.125l0.068,-0.093l-0.003,-0.054l-0.108,-0.125l-0.092,-0.068l-0.079,-0.014l-0.1,-0.09l-0.032,-0.075l-0.201,-0.114l-0.035,-0.072l-0.004,-0.168l-0.039,-0.157l0.021,-0.293l0.04,-0.036v-0.05l-0.065,-0.089l-0.068,-0.243l-0.071,-0.118v-0.09l0.061,-0.082v-0.05l-0.043,-0.1l-0.054,-0.018l-0.057,0.011l-0.065,-0.029l-0.035,-0.114l-0.068,-0.104l-0.022,-0.114l0.043,-0.054l0.057,-0.014l0.093,-0.14v-0.043l-0.043,-0.067l0.008,-0.194l0.05,-0.035l0.118,0.003l0.053,0.036l0.129,0.011l0.039,-0.068l0.011,-0.172l0.086,-0.114l0.011,-0.097l-0.061,-0.089l0.01,-0.061l0.061,-0.064l0.004,-0.05l-0.072,-0.1l-0.075,-0.043l-0.064,0.011l-0.054,-0.022l-0.039,-0.05l-0.186,-0.021l-0.064,0.039l-0.007,0.082l-0.033,0.061h-0.321l-0.115,0.043l-0.068,-0.007l-0.018,-0.061l-0.053,-0.025l-0.086,0.003l-0.039,-0.025l-0.022,-0.06l-0.064,-0.05l-0.064,0.003l-0.047,-0.036l-0.018,-0.057l-0.164,-0.082l-0.072,-0.007l-0.053,0.05h-0.072l-0.107,-0.047h-0.057l-0.05,0.043l-0.329,-0.018l-0.161,-0.064l-0.047,0.025l-0.189,0.29l-0.011,0.068l-0.032,0.046l-0.075,0.047l-0.19,0.257l-0.175,0.125l-0.096,0.129l-0.036,-0.007l-0.082,-0.122l-0.261,-0.154l-0.136,-0.032l-0.136,-0.093l-0.061,0.007l-0.05,-0.01l-0.061,-0.054l-0.118,-0.007l-0.146,0.082l-0.039,0.107l-0.015,0.118l-0.039,0.058l-0.089,0.035l-0.072,-0.007l-0.146,-0.129l-0.093,-0.021l-0.083,0.011l-0.085,-0.04l-0.068,-0.082l-0.09,-0.043l-0.025,-0.068l0.05,-0.15l-0.028,-0.204l-0.168,-0.103l-0.093,-0.122l-0.015,-0.139l-0.068,-0.097l0.008,-0.129l0.053,-0.078l0.004,-0.061l-0.065,-0.082l-0.15,-0.079l-0.035,-0.086l0.042,-0.182l0.054,-0.068l0.1,-0.061l0.047,-0.078l0.018,-0.215l0.05,-0.096l0.125,-0.075l0.157,-0.04l0.039,-0.057v-0.068l0.029,-0.046l0.071,-0.061l0.025,-0.172l-0.021,-0.071l0.007,-0.082l0.157,-0.426l-0.003,-0.071l0.014,-0.054l0.057,-0.075l0.061,-0.325l0.057,-0.136l0.018,-0.265l0.029,-0.136l-0.011,-0.064l-0.054,-0.039l-0.092,0.003l-0.051,0.036l-0.096,0.161l-0.097,-0.004l-0.128,-0.118l-0.125,-0.182l-0.086,-0.057l-0.05,-0.007l-0.032,-0.04l0.017,-0.096l-0.017,-0.09l-0.201,-0.107l-0.046,-0.098l-0.016,-0.086l-0.172,-0.22l-0.037,-0.246l-0.102,-0.113l-0.048,-0.129l-0.145,-0.107l-0.145,-0.038l-0.252,0.006l-0.129,0.086l-0.048,0.118l-0.118,0.096l-0.027,0.086l0.032,0.086l-0.048,0.096l-0.241,0.054l-0.107,0.08v0.081l0.048,0.048l0.032,0.091l-0.032,0.123l-0.102,0.043l-0.306,-0.043l-0.139,-0.117l-0.022,-0.118l0.027,-0.118v-0.167l-0.075,-0.225l0.022,-0.07l-0.049,-0.069l-0.107,-0.097l-0.086,-0.011l-0.225,-0.144l-0.097,-0.016l-0.069,-0.049l-0.081,-0.193l-0.112,-0.102h-0.07l-0.075,0.075l-0.145,0.049l-0.182,0.01l-0.161,0.07l-0.15,0.247l-0.027,0.161l-0.129,0.225l-0.096,0.064l-0.193,0.006l-0.059,-0.043l-0.199,-0.049l-0.107,0.033l-0.048,0.112l-0.166,0.054l-0.092,-0.005l-0.166,-0.135l-0.08,-0.016l-0.049,0.049h-0.128l-0.108,-0.065l-0.23,-0.086l-0.118,-0.005l-0.145,-0.048l-0.129,-0.134l-0.209,-0.081l-0.053,0.033l-0.011,0.123l0.037,0.096l0.172,0.075l0.134,0.156l0.011,0.091l-0.027,0.075v0.091l0.068,0.129l0.011,0.157l0.039,0.058l0.054,0.007l0.06,0.086l0.093,0.028l0.047,0.118l-0.072,0.161l-0.053,0.011l-0.05,0.05v0.121l-0.033,0.025l-0.06,-0.025l-0.068,0.004l-0.104,0.111l-0.003,0.1l-0.058,0.061l-0.093,0.014l-0.132,0.093l-0.132,0.036l-0.05,-0.022l-0.054,0.007l-0.036,0.029l-0.178,-0.004l-0.108,-0.05l-0.153,-0.028l-0.197,-0.079l-0.254,-0.025l-0.179,0.014l-0.153,-0.057l-0.065,-0.057l-0.078,-0.011l-0.079,0.029h-0.089l-0.047,-0.036l-0.093,-0.004l-0.121,0.09l-0.065,0.007l-0.035,0.111l-0.108,0.025l-0.082,-0.029l-0.104,0.018l-0.078,0.097l0.007,0.107l-0.025,0.043l-0.054,0.025l-0.093,0.161l-0.003,0.128l0.053,0.086l-0.003,0.072l-0.093,0.043l-0.018,0.132l0.068,0.125v0.118l-0.054,0.061h-0.06l-0.022,0.039l0.011,0.343l0.057,0.118l-0.011,0.14l-0.1,0.182l0.004,0.075l-0.054,0.086l-0.111,0.039l-0.032,0.111l0.036,0.114l-0.014,0.05h-0.065l-0.143,-0.085l-0.046,-0.086l-0.086,-0.054l-0.072,0.007l-0.053,0.058h-0.068l-0.075,-0.029l-0.115,-0.129l-0.135,-0.082l-0.083,-0.1l-0.06,-0.007l-0.04,0.032l-0.028,0.104l-0.1,0.093l-0.09,0.021l-0.111,0.143l-0.06,0.004l-0.093,-0.043h-0.058l-0.053,0.032l-0.061,0.003l-0.111,-0.067l-0.061,0.007l-0.053,0.057l-0.197,0.061l-0.028,0.053l-0.04,0.025l-0.061,-0.007l-0.125,0.075l-0.057,0.082l-0.068,0.043l-0.111,-0.046l-0.071,0.007l-0.075,0.104l-0.029,0.153l-0.05,0.004l-0.118,-0.075l-0.146,-0.161l-0.065,-0.007l-0.032,0.021l-0.082,0.004l-0.172,0.093l-0.321,0.014l-0.129,-0.053h-0.086l-0.082,0.075h-0.043l-0.047,-0.029l-0.236,-0.011l-0.175,0.09l-0.128,0.003l-0.136,0.025l-0.072,-0.018l-0.064,-0.082l0.011,-0.121l-0.05,-0.093l-0.122,-0.032l-0.157,-0.115l-0.018,-0.086l-0.086,-0.082l-0.107,-0.029l-0.079,-0.064l-0.075,-0.007l-0.143,0.068l-0.086,-0.004l-0.071,-0.118l-0.004,-0.075l-0.032,-0.046l-0.068,-0.011l-0.064,0.047l-0.043,0.003l-0.042,-0.031l-0.039,-0.004l-0.051,0.049l-0.008,0.09l0.025,0.121l-0.003,0.093l-0.061,0.14l0.004,0.193l0.025,0.239l0.082,0.086v0.082l-0.086,0.075l-0.186,0.033l-0.125,-0.022l-0.05,0.025l-0.004,0.193l-0.042,0.068l-0.068,0.025l-0.065,-0.018h-0.075l-0.229,0.129l-0.071,0.004l-0.054,-0.025l-0.089,0.003l-0.057,0.057v0.072l-0.043,0.121l0.025,0.118l0.168,0.154l-0.004,0.039l-0.057,0.025l-0.014,0.058l-0.079,0.093l-0.071,0.035l-0.129,0.161l-0.029,0.111l-0.136,0.147l-0.103,0.021l-0.007,0.027l0.1,0.087l0.007,0.065l-0.022,0.05l0.004,0.146l0.129,0.172l0.053,0.143l0.065,0.047l-0.011,0.05l-0.079,0.053l-0.1,0.007l-0.046,-0.035l-0.093,0.025l-0.043,0.096l0.018,0.05l0.096,0.032l0.058,0.043l0.035,0.072l0.082,0.071l0.111,0.068l0.004,0.111l-0.032,0.068l0.018,0.307l-0.04,0.05l-0.007,0.068l0.032,0.068l-0.01,0.136l-0.047,0.054l-0.143,0.032l-0.071,0.093l-0.061,0.025l-0.125,0.004l-0.029,0.05l0.029,0.064l-0.015,0.061l-0.068,0.05l-0.1,0.003l-0.046,0.025l-0.011,0.408l-0.05,0.036l-0.089,0.007l-0.04,0.036l-0.017,0.05l-0.058,0.053l-0.093,-0.011l-0.075,0.033l-0.025,0.068l0.022,0.05l0.086,0.018l0.035,0.028l0.007,0.05l0.068,0.093l0.125,0.097l0.09,0.014l0.05,0.039v0.072l0.039,0.082l0.004,0.1l-0.04,0.1l0.004,0.068l0.054,0.086l0.025,0.225l0.05,0.064l0.01,0.047l-0.064,0.161l0.014,0.121l0.076,0.054l0.05,0.1l-0.004,0.097l-0.032,0.06l-0.004,0.104l0.029,0.322l-0.025,0.1l0.007,0.071l-0.018,0.04l-0.146,0.003l-0.072,-0.035l-0.046,0.003l-0.04,0.068l-0.114,0.022l-0.193,-0.043l-0.14,0.01l-0.089,0.079l-0.039,0.007l-0.047,-0.025l-0.057,0.018l-0.011,0.054l0.043,0.075l-0.021,0.021l-0.058,-0.014l-0.035,0.007l-0.047,0.039l-0.164,0.033l-0.05,0.042l-0.043,0.008l-0.054,-0.033l-0.053,0.018l-0.036,0.24l-0.032,-0.004l-0.036,-0.032l-0.054,-0.004l-0.043,0.026l-0.057,-0.008l-0.082,-0.096l-0.064,-0.011l-0.072,0.064l-0.132,0.047l-0.047,-0.011l-0.046,-0.164l-0.043,-0.04l-0.004,-0.103l-0.032,-0.043l-0.078,-0.043l-0.036,-0.061l-0.043,-0.025l-0.072,0.036l-0.118,0.011l-0.046,-0.025v-0.179l-0.014,-0.057l-0.029,-0.004l-0.068,0.086l-0.021,0.107l0.025,0.179l0.089,0.1l0.1,0.064l0.075,0.115l0.083,0.329l0.089,0.096l0.043,0.079l0.018,0.096l0.039,0.05l0.079,0.033l0.057,0.067l0.003,0.097l-0.053,0.107l0.003,0.165l0.129,0.218l0.165,0.139l0.096,0.129l0.05,0.003l0.129,-0.089l0.057,-0.071l0.064,-0.251l0.058,-0.064h0.121l0.225,0.1l0.097,0.072l0.082,0.168l-0.018,0.078l-0.157,0.197l-0.004,0.071l0.032,0.09l0.165,0.189l0.054,0.097l0.114,0.096l0.05,0.065l0.014,0.323l0.057,0.126l-0.006,0.081l-0.048,0.035l-0.011,0.059l0.019,0.037l0.043,0.008l0.035,-0.027l0.043,0.003l0.051,0.054l0.008,0.064l0.083,0.147l0.002,0.092l0.1,0.209l-0.011,0.155l-0.067,0.065l-0.129,0.024l-0.118,0.136l-0.013,0.1l-0.083,0.174l0.002,0.099l0.108,0.191l0.01,0.077l0.038,0.07l0.051,0.024h0.059l0.029,0.022l0.008,0.061l0.14,0.14l0.024,0.083l0.029,0.024l0.084,0.005l0.083,0.124l-0.014,0.029l-0.048,0.005l-0.019,0.035l0.003,0.113l0.048,0.083l0.134,0.142l0.019,0.075l0.15,0.121l0.027,0.062l0.029,0.021l0.035,0.013l0.172,0.191l0.276,0.204l0.054,0.067l0.024,0.104l0.059,0.062l0.024,0.086l0.048,0.048l0.091,0.048l0.092,0.008l0.051,0.04l0.032,0.086l0.04,0.016l0.078,-0.013l0.067,0.032l0.26,0.362l0.134,0.075l-0.003,0.035l-0.059,0.019l-0.005,0.032l0.08,0.048l0.126,0.183l0.043,0.018l0.056,-0.013l0.097,0.056l0.021,0.046l0.051,0.045l0.003,0.03l-0.099,0.091v0.145l0.037,0.091l0.03,0.008l0.027,-0.032l0.045,0.016l0.019,0.062l0.043,0.056l0.003,0.07l0.018,0.018h0.078l0.107,0.108l0.014,0.072l0.029,0.03l0.161,0.045l0.065,0.051l0.051,0.11l0.08,0.046l0.054,-0.003l0.032,-0.038l0.04,0.003l0.008,0.035l-0.086,0.051l-0.029,0.056l0.027,0.016l0.061,-0.021l0.032,0.019l-0.01,0.072l0.045,0.059l0.043,0.003l0.024,0.013l0.008,0.038l0.078,0.034l0.008,0.049l-0.045,0.064l0.024,0.027l0.107,-0.008l0.051,0.027l0.016,0.051l-0.035,0.013l-0.037,-0.011l-0.022,0.014v0.069l-0.045,0.049l0.005,0.051l0.048,0.024l0.04,-0.016l0.003,-0.067l0.021,-0.041l0.03,0.016l-0.003,0.124l0.027,0.013l0.032,-0.029h0.083l0.025,0.024l-0.062,0.064l-0.067,0.006l-0.011,0.042l0.04,0.033l0.008,0.056l0.062,0.088l0.166,0.121l0.097,0.005l0.053,-0.051l0.089,-0.029l0.056,0.019l0.027,0.056h0.04l0.016,-0.04l0.038,-0.003l0.037,0.046l0.084,0.059l0.069,0.027l0.003,0.029l-0.043,0.043l0.019,0.019l0.112,0.002l0.027,0.038l-0.032,0.118l0.038,0.032l0.072,-0.013l0.043,0.016l0.032,0.08l-0.011,0.022l-0.059,0.005l-0.008,0.038l0.054,0.021l0.064,-0.005l0.027,0.013l-0.005,0.048l0.029,0.022l0.062,0.005l0.045,0.048l-0.016,0.019l-0.061,-0.021l-0.067,0.04l-0.011,0.064l0.048,0.059l0.057,-0.005l0.029,0.011l-0.013,0.056l0.026,0.021l0.062,-0.026l0.035,0.026l-0.038,0.049l-0.002,0.032l0.112,0.027l0.006,0.032l-0.035,0.043v0.051l0.08,0.107l-0.002,0.027h-0.025l-0.104,-0.129l-0.062,-0.008l-0.01,0.019l0.042,0.083l-0.01,0.062h-0.022l-0.019,-0.062l-0.037,-0.016l-0.048,0.037l-0.022,0.102l0.016,0.065l0.059,0.021l0.073,-0.024l0.048,0.021l0.005,0.035l0.046,0.024l0.048,-0.013l0.075,0.07l-0.005,0.04l-0.166,0.029l-0.046,0.027l0.016,0.022l0.046,0.002l0.021,0.024l-0.032,0.038l-0.032,0.003l-0.04,-0.035l-0.027,0.002l-0.016,0.049l-0.027,0.005l-0.027,-0.027l-0.054,0.008l-0.029,0.032l0.011,0.094l-0.051,0.07l-0.006,0.08l-0.016,0.017l-0.053,-0.03l-0.03,0.021l0.03,0.135l0.069,0.096l0.1,-0.005h0.048l0.013,0.027l-0.029,0.048l-0.003,0.072l0.027,0.003l0.051,-0.035l0.037,0.008v0.097l-0.026,0.23l0.021,0.014l0.054,-0.006l0.08,0.07l0.166,0.021l0.075,0.03l0.016,0.045l-0.021,0.043l0.008,0.059l0.089,0.065l0.016,0.053l-0.038,0.1l-0.016,0.099l0.038,0.077l0.083,0.038l0.008,0.064l0.056,0.07l0.043,0.11l0.088,0.091l0.033,0.083l0.026,0.032l0.046,0.003l0.054,0.043l0.008,0.059l0.035,0.038v0.034l-0.121,0.137l-0.006,0.105l0.033,0.086l0.077,0.013l-0.002,0.024l-0.024,0.032l0.04,0.083l-0.019,0.043v0.03l0.059,0.024l0.003,0.032l-0.049,0.046l0.009,0.037l0.058,0.032l0.017,0.113l-0.027,0.046l-0.006,0.032l0.035,0.029l0.008,0.204l0.035,0.07l0.027,0.002l0.029,-0.04h0.051l0.022,0.048l0.043,-0.002l0.043,-0.134l0.048,-0.03l0.024,-0.029l0.005,-0.067l0.041,-0.054l0.01,-0.067l0.041,-0.067l0.048,-0.005l0.019,-0.019l0.002,-0.032l0.027,-0.016l0.083,0.029h0.057l0.083,-0.064l0.01,-0.067l0.033,-0.049l0.19,-0.088l0.003,-0.032l-0.019,-0.032l0.008,-0.038l0.054,-0.054l0.032,-0.091l0.035,-0.021l0.107,0.016h0.096l0.067,-0.013h0.062l0.043,0.053l0.003,0.038l0.021,0.018h0.035l0.126,0.137l0.003,0.105l-0.073,0.163l0.03,0.022l0.024,-0.011l0.064,0.003l0.024,0.067l0.008,0.067l-0.04,0.096l-0.059,0.024l-0.04,0.068l-0.019,0.126l0.016,0.048l-0.002,0.035l-0.041,0.067l-0.099,0.064l-0.053,0.099h-0.025l-0.018,-0.037l-0.035,-0.003l-0.091,0.113l-0.006,0.04l0.048,0.088v0.027l-0.034,0.03l-0.003,0.021l0.032,0.022l0.003,0.107l-0.043,0.072l-0.024,0.191l-0.024,0.032l-0.065,0.005l-0.035,0.022l-0.018,0.048l-0.134,0.07l-0.059,0.005l-0.059,-0.035l-0.062,-0.094l-0.032,-0.005l-0.054,0.032l-0.201,0.005l-0.113,-0.018l-0.077,-0.084l-0.089,-0.005l-0.096,0.046l-0.019,0.026l0.032,0.062l-0.021,0.03l-0.065,0.002l-0.016,0.022l0.032,0.061v0.054l-0.077,0.054l-0.011,0.056l-0.129,0.083l-0.067,0.003l-0.013,0.019l0.021,0.059l-0.021,0.048l-0.097,0.003l-0.029,-0.03l-0.008,-0.094l-0.062,-0.096l-0.062,-0.006l-0.04,0.032l-0.011,0.043l-0.026,0.041l-0.059,0.016l-0.041,0.115l0.011,0.056l0.217,0.15l0.062,0.126l0.027,0.108l-0.027,0.056l-0.054,0.038l-0.069,0.246l-0.011,0.067l0.021,0.057l-0.008,0.064l0.032,0.07l0.011,0.085l0.032,0.006l0.027,-0.019h0.051l-0.23,0.493l-0.188,0.783l0.091,0.306l-0.059,0.257l0.207,0.861l-0.014,0.59l-0.021,0.121l-0.126,0.23h-0.035l-0.027,-0.029l-0.027,-0.132l-0.053,-0.061l-0.092,-0.022l-0.064,-0.04h-0.056l-0.062,-0.091l-0.064,-0.008l-0.035,0.021l-0.016,0.091l-0.051,0.025l-0.035,-0.009l-0.046,-0.069h-0.037l-0.019,0.021l0.013,0.067l-0.045,0.038l-0.062,0.008l-0.061,-0.022l-0.067,0.022l-0.017,0.051l-0.139,0.12l-0.003,0.073l0.046,0.056v0.07l0.013,0.048l0.067,0.054l0.027,0.15l-0.005,0.067l-0.07,0.054l-0.035,-0.003l-0.067,-0.094l-0.056,-0.021l-0.024,-0.041l-0.075,-0.053l-0.132,-0.051l-0.059,-0.006l-0.107,-0.045l-0.086,-0.081l-0.059,-0.002l-0.029,0.029l0.005,0.086l0.032,0.064l0.003,0.054l-0.03,0.027l-0.067,0.013l-0.037,0.027l-0.005,0.046l-0.132,0.177l-0.013,0.077l-0.04,0.03l-0.126,0.005l-0.076,-0.032l-0.021,-0.04l-0.046,-0.04h-0.061l-0.027,0.04l0.005,0.112l0.057,0.089l0.002,0.064l0.035,0.043l-0.003,0.038l-0.069,0.08l-0.016,0.048l-0.067,0.067l-0.006,0.051l0.024,0.032l-0.002,0.03l-0.065,0.094l0.003,0.134l0.059,0.078l0.008,0.053l0.027,0.024l0.078,0.008l0.064,0.073l0.019,0.062l0.053,0.056v0.045l-0.024,0.073l-0.061,0.051l-0.035,0.053l-0.011,0.153l0.019,0.07l0.123,0.086l0.008,0.043l-0.021,0.083l0.018,0.043l0.049,0.018l0.024,0.027l0.008,0.078l0.035,0.051l0.002,0.043l-0.096,0.118l0.007,0.066l0.148,0.178l0.003,0.075l-0.08,0.094l-0.003,0.037l0.043,0.075l0.048,0.024l0.078,0.065l0.046,0.064l0.01,0.086l0.032,0.04l0.041,0.022l0.021,0.034l0.019,0.108l0.048,0.059l0.008,0.024l-0.013,0.019l0.002,0.018l0.078,0.043l0.019,0.054l0.046,0.07l0.029,0.005l0.035,-0.024l0.024,0.005l0.008,0.038l0.113,0.075l0.035,0.051l0.002,0.061l0.032,0.067l0.429,0.333l0.033,0.048l0.032,0.099l0.107,0.113v0.038l-0.016,0.053l0.005,0.145l0.024,0.075l0.025,0.003l0.032,-0.03l0.086,0.003l0.048,-0.032l0.021,0.002l0.019,0.172l0.013,0.027l0.041,0.027l0.008,0.064l0.029,0.04l0.003,0.078l0.043,0.032l0.037,0.051l0.011,0.059l0.064,0.075l0.062,0.022l0.038,0.051l-0.003,0.056l0.013,0.043l0.038,0.019l0.016,0.029l-0.005,0.067l0.037,0.051l0.011,0.056l0.053,0.059l0.011,0.054l0.035,0.021l0.059,-0.018l0.016,-0.035h0.027l0.016,0.061l-0.027,0.11v0.065l0.056,0.123l0.084,0.072l0.059,0.006l0.032,-0.03l0.027,0.003l0.083,0.105l0.15,0.08l0.08,0.08l0.097,0.022l0.035,0.024l0.026,0.091l0.105,0.086l0.07,0.019l0.069,0.04l0.057,0.086l0.053,0.04l0.057,0.021l0.069,0.046l0.014,0.038l0.037,0.026l0.089,0.027l0.072,0.078l0.059,0.035l0.054,0.002l0.07,0.025l0.118,0.12l0.048,0.019l0.059,0.04l0.027,0.104l0.094,0.089l0.079,0.038l0.122,0.007l0.084,0.048l0.034,0.007l0.053,0.056l0.025,0.002l0.047,-0.027h0.026l0.063,0.096v0.183l0.025,0.064l-0.002,0.032l-0.025,0.016l0.002,0.022l0.116,0.08l0.074,0.02l0.001,0.016l-0.014,0.02l-0.002,0.021l0.063,0.057l0.005,0.038l0.032,0.048l0.061,0.279l0.027,0.027l0.096,0.012l0.049,0.014l0.043,0.059l0.042,0.022l0.038,0.068l0.02,0.079l0.075,0.087l0.066,0.027l0.037,0.002l0.04,-0.029l0.037,-0.002l0.02,0.015l0.009,0.062l-0.013,0.111l-0.057,0.1l0.002,0.086l0.043,0.043l0.036,0.007l0.019,0.012l0.004,0.056l0.043,0.055l0.002,0.07l-0.025,0.048l0.003,0.084l0.029,0.079l0.103,0.077l0.052,0.011l0.041,0.023l0.009,0.096l0.022,0.059l0.048,0.041l0.014,0.04l0.004,0.141l0.02,0.052v0.034l-0.031,0.027l-0.003,0.029l0.027,0.04l0.006,0.03l-0.014,0.083l0.014,0.169l-0.033,0.091l0.003,0.046l0.07,0.128v0.035l-0.081,0.054v0.032l0.035,0.04l0.046,0.014l0.037,0.024l0.016,0.045l0.076,0.081l0.007,0.192l-0.025,0.056l-0.003,0.063l0.084,0.094l0.038,0.094l-0.007,0.073l-0.052,0.032v0.038l0.038,0.042v0.042l-0.028,0.028v0.031l0.063,0.035l0.011,0.056l-0.025,0.059v0.137l-0.021,0.066l0.011,0.171l-0.011,0.087l-0.052,0.077l-0.018,0.147l-0.035,0.045l-0.006,0.042l0.136,0.147l0.003,0.031l-0.063,0.031l-0.003,0.042l0.073,0.119l0.007,0.056l-0.031,0.028v0.031l0.028,0.032v0.038l-0.06,0.063l-0.063,0.024l-0.059,-0.003l-0.038,-0.07l-0.091,-0.028l-0.168,0.014l-0.083,0.066l-0.014,0.088l-0.025,0.035v0.027l0.122,0.088v0.049l-0.042,0.048l0.004,0.028l0.031,0.035l0.007,0.046l-0.028,0.076l-0.01,0.098l-0.017,0.039l-0.074,0.024l-0.101,0.091v0.056l0.028,0.056l0.052,0.038l0.046,0.094l0.094,0.07l0.08,0.014l0.136,0.101l0.021,0.067l0.063,0.087l0.084,0.017l0.003,0.028l-0.038,0.049v0.042l0.035,0.063l0.003,0.059l-0.045,0.049l-0.063,0.007l-0.031,0.021l-0.018,0.049l-0.038,0.042v0.021l0.066,0.028l0.042,0.073l0.007,0.15l0.028,0.063l0.004,0.146l0.017,0.074l0.098,0.063l0.021,0.066l0.024,0.007l0.021,-0.014h0.031l0.035,0.049l0.018,0.146l0.045,0.126l0.004,0.175l-0.032,0.038v0.038l0.042,0.074l0.066,0.066l0.053,0.004l0.094,-0.049l0.042,0.007l0.024,0.052l0.07,0.038l0.004,0.049l0.014,0.049l0.056,0.039l0.003,0.034l-0.024,0.032l0.003,0.042l0.066,0.052l0.074,0.004l0.097,0.031l0.049,0.042l0.004,0.073l0.052,0.049l0.07,0.007l0.042,0.028l0.007,0.052l0.087,0.06l0.098,0.017l0.119,0.011l0.066,0.045l0.014,0.059l0.08,0.084l-0.007,0.021h-0.042l-0.007,0.039l0.035,0.041l0.004,0.049l-0.025,0.042l-0.038,0.011l-0.018,0.031l0.007,0.098l-0.034,0.059l-0.004,0.053l0.052,0.129l-0.014,0.056l-0.087,0.041l-0.042,0.053l-0.007,0.108l0.046,0.052l0.069,0.014l0.035,0.028l0.004,0.098l0.017,0.063l0.119,0.091v0.031l-0.031,0.017l0.003,0.116l-0.049,0.09l-0.003,0.053l0.045,0.045v0.035l-0.038,0.021l-0.004,0.042l0.06,0.056l0.01,0.101l0.038,0.035l0.053,0.087l0.045,0.087l0.112,0.049l0.007,0.035l-0.025,0.039v0.094l-0.059,0.094l0.004,0.046l0.083,0.073l0.018,0.066l0.052,0.066l0.004,0.049l-0.039,0.067l-0.024,0.118l-0.053,0.035l-0.031,0.049v0.122l0.031,0.032l0.109,0.003l0.024,-0.052l0.042,-0.052l0.077,-0.011l0.105,0.021l0.062,0.003l0.039,-0.034l0.052,-0.004l0.077,0.028l0.01,0.038l-0.083,0.161l-0.007,0.129l-0.039,0.056l-0.007,0.049l-0.094,0.108l-0.007,0.094l0.049,0.084l0.003,0.045l-0.024,0.07l0.014,0.039l0.22,0.049l0.101,0.062l0.028,0.067l0.01,0.174l-0.02,0.056l-0.063,0.042l-0.004,0.045l0.032,0.053v0.122l-0.042,0.059v0.039l0.045,0.08l0.007,0.07l0.032,0.028l0.048,-0.028l0.032,0.007l0.118,0.174v0.077l0.025,0.035l0.08,0.024h0.098l0.066,0.021l-0.003,0.049l-0.018,0.042h-0.038l-0.021,0.021l-0.007,0.077l-0.042,0.063l-0.007,0.122l-0.024,0.063l-0.004,0.052l0.025,0.063l-0.014,0.077l-0.039,0.038h-0.052l-0.035,0.028l-0.017,0.042l-0.039,0.031l-0.038,0.007l-0.028,0.032l-0.014,0.049l-0.07,0.052l-0.031,0.07l0.007,0.084l-0.018,0.073l-0.052,0.063l-0.014,0.066l-0.046,0.07l-0.055,0.007l-0.046,-0.014h-0.063l-0.042,0.031l-0.048,-0.003l-0.039,-0.056l-0.045,-0.028l-0.077,0.004l-0.084,0.055l-0.101,0.014l-0.042,0.049l-0.007,0.063l-0.045,0.098v0.077l0.042,0.059v0.052l-0.028,0.06l0.014,0.035l0.042,0.01l0.021,0.052l-0.011,0.07l-0.154,0.171l-0.034,0.102l0.007,0.052l-0.025,0.01l-0.056,-0.028l-0.073,0.011l-0.018,0.042l-0.073,0.059l-0.07,0.018l-0.021,0.038l0.035,0.049v0.038l-0.024,0.032v0.045l0.049,0.084l-0.007,0.181l-0.025,0.046l-0.136,0.049l-0.101,0.066l-0.08,0.098l-0.039,0.066l-0.003,0.052l-0.035,0.021l-0.045,-0.01l-0.056,0.017l-0.068,0.086l-0.004,0.047l0.088,0.112v0.083l-0.07,0.07l-0.032,0.075l-0.061,0.06l-0.102,0.038l-0.075,0.065l-0.074,0.149l-0.014,0.088l-0.039,0.052v0.06l-0.1,0.176l-0.031,0.008l-0.045,0.069l-0.035,0.005l-0.028,0.03l0.002,0.029l0.041,0.047l-0.026,0.097l-0.048,0.026l-0.052,0.054l-0.065,0.024l-0.086,0.063l-0.071,0.015l-0.028,0.032l-0.001,0.111l-0.034,0.037l-0.005,0.052l-0.017,0.043l-0.1,0.063l-0.132,0.014l-0.074,0.023l-0.086,0.074l-0.053,0.007l-0.013,0.019v0.044l-0.019,0.078l-0.044,0.082l-0.011,0.072l-0.064,0.089l-0.055,0.041l-0.102,0.022l-0.026,-0.013l-0.019,-0.059l-0.027,-0.022l-0.073,-0.002l-0.067,-0.039l-0.035,0.002l-0.039,0.061l-0.026,0.102l-0.059,0.05l-0.004,0.031l0.015,0.024l-0.002,0.041l-0.031,0.036l-0.004,0.031l0.044,0.069l0.002,0.053l-0.022,0.052l-0.004,0.037l0.067,0.047l0.004,0.081l-0.03,0.058l-0.087,0.039l-0.043,0.031l-0.007,0.041l-0.022,0.019l-0.049,0.005l-0.038,0.023l-0.046,0.056l-0.065,0.016l-0.105,-0.013l-0.015,-0.036l-0.05,-0.035l-0.041,-0.002l-0.047,0.073l-0.007,0.059l-0.039,0.048l-0.017,0.034l-0.003,0.051l-0.021,0.036l-0.053,0.02l-0.034,-0.004l-0.035,-0.074l-0.035,-0.004l-0.043,0.021l-0.072,0.061l-0.017,0.048l-0.077,0.055l-0.039,0.013l-0.028,0.028l-0.006,0.035l-0.089,0.093l-0.018,0.063l-0.099,0.097l-0.048,0.026l-0.023,0.034l-0.013,0.066l-0.027,0.01l-0.026,-0.017l-0.03,0.009l-0.008,0.035l0.036,0.088l-0.004,0.068l-0.053,0.04v0.042l0.03,0.043v0.065l-0.028,0.057l0.004,0.08l0.017,0.004l0.026,-0.019l0.055,-0.004l0.037,0.01v0.028l-0.022,0.016l0.002,0.022l0.08,0.069l0.003,0.054l-0.015,0.103l0.007,0.03l0.048,0.002l0.045,0.031l0.002,0.05l-0.034,0.03l-0.005,0.026l0.035,0.056l0.002,0.168l-0.026,0.069l-0.047,0.024l-0.014,0.043l0.024,0.061l-0.002,0.026l-0.054,0.056l-0.007,0.037l0.011,0.039l-0.017,0.02l-0.085,0.022l-0.039,0.043l-0.03,0.115l-0.043,0.105l0.007,0.014l-0.058,0.1l-0.021,0.077l-0.022,0.137v0.119l-0.014,0.09l-0.063,0.077l-0.035,0.081l-0.01,0.111l-0.052,0.22l-0.192,0.416l-0.011,0.094l-0.105,0.223l-0.021,0.108l-0.073,0.13l-0.052,0.017l-0.021,0.021v0.087l-0.115,0.231l-0.171,0.275l-0.014,0.074l-0.032,0.059l-0.049,0.052l-0.028,0.116l0.028,0.056l-0.021,0.115l-0.048,0.07l-0.13,0.055l-0.038,0.06l-0.007,0.111l-0.063,0.06l-0.08,0.017l-0.042,0.067l-0.007,0.062l-0.024,0.046l-0.063,0.024v0.053l0.056,0.076l0.08,0.192l0.035,0.011l0.049,-0.011l0.062,-0.101l0.077,-0.066l0.028,0.007l-0.056,0.122l-0.087,0.126l-0.003,0.049h-0.018l-0.031,-0.042l-0.056,-0.021l-0.129,0.017l-0.049,0.032l-0.014,0.101l0.031,0.063l-0.003,0.045l-0.028,0.038l0.003,0.046l0.025,0.01l0.049,-0.056l0.038,-0.003l0.045,0.021l0.063,0.01l0.056,-0.014l0.042,0.018l-0.007,0.091l-0.056,0.097l-0.035,0.112l-0.07,0.101l-0.122,0.046l-0.073,-0.004l-0.073,-0.042l-0.021,0.011l0.031,0.091l0.049,0.073l0.07,0.028v0.024l-0.035,0.053l-0.004,0.055l0.021,0.039l-0.028,0.017l-0.118,-0.017l-0.028,-0.035l-0.039,-0.007l-0.055,0.028l-0.018,0.073l0.018,0.108l0.066,0.039l0.115,0.01l0.105,0.018l0.105,0.073l0.188,0.063l0.084,0.045l-0.007,0.018l-0.077,-0.004l-0.07,-0.031l-0.122,0.003l-0.136,0.07l-0.035,0.059l0.003,0.154l0.032,0.059l-0.004,0.032l-0.052,0.021l-0.063,0.09l0.004,0.07l-0.018,0.018l-0.017,-0.028v-0.077l-0.014,-0.007l-0.035,0.038l-0.011,0.067l-0.02,0.003l-0.021,-0.052l0.007,-0.07l0.045,-0.164l-0.014,-0.105l-0.059,-0.09l0.003,-0.042l-0.014,-0.028l-0.028,0.003l-0.031,0.06l-0.053,0.199l-0.055,0.101l-0.018,0.118l0.014,0.063l-0.003,0.112l-0.035,0.171l-0.07,0.171l-0.066,0.066l-0.056,0.014l-0.028,0.028l-0.007,0.269l-0.025,0.161l-0.052,0.101l-0.01,0.143l-0.025,0.028l-0.049,0.003l-0.031,0.032l-0.004,0.049l0.032,0.045l-0.049,0.084l-0.066,0.045l-0.039,0.07l0.007,0.045l0.101,0.039l0.06,0.084l0.045,0.129l-0.021,0.014l-0.101,-0.049l-0.035,-0.08l-0.045,-0.018l-0.035,0.028l-0.014,0.108l0.028,0.046l0.01,0.038l-0.028,0.007l-0.049,-0.049l0.004,-0.15l-0.028,-0.052l-0.049,0.003l-0.038,0.053l-0.011,0.122l0.039,0.132l0.111,0.147l0.028,0.098v0.125l0.039,0.102l0.031,0.035l0.059,0.007l0.025,0.028l0.003,0.062l0.025,0.011l0.063,-0.073h0.083l0.039,0.045l-0.011,0.024l-0.077,0.014l-0.055,0.025l-0.004,0.024l0.032,0.039l-0.007,0.027h-0.035l-0.067,-0.059l-0.063,-0.007l-0.076,0.025l-0.112,0.107l-0.037,0.116l0.042,0.112l0.088,0.079h0.07l0.06,-0.075l0.135,-0.097l0.079,-0.019l0.033,0.019l-0.065,0.032l-0.172,0.14l-0.038,0.074l0.01,0.07l0.06,0.042l0.065,0.107l0.047,0.149l-0.005,0.098l-0.018,0.065l-0.024,-0.014l-0.023,-0.14l-0.079,-0.121l-0.088,-0.083l-0.112,-0.047l-0.042,0.009l-0.051,0.112l-0.047,0.074l-0.093,0.121l-0.046,0.112l0.004,0.093l-0.018,0.121l-0.061,0.07l-0.079,0.023l-0.051,0.042l-0.005,0.079l0.019,0.07l-0.01,0.075l-0.074,0.097l0.009,0.056l0.019,0.047l0.005,0.135l-0.035,0.137l-0.065,0.119l-0.101,0.053l-0.037,-0.002l-0.028,0.007v0.019l0.061,0.076l0.021,0.215l0.044,0.128l0.002,0.111l-0.023,0.093l-0.058,0.065l0.002,0.059l0.033,0.06l0.007,0.091l-0.017,0.063l-0.081,0.053l-0.002,0.045l0.088,0.107l0.128,0.079l0.016,0.065l-0.021,0.091l-0.025,0.053l-0.014,-0.009l0.002,-0.072l-0.018,-0.063l-0.061,-0.065l-0.033,-0.003l-0.046,0.047l-0.002,0.077l0.065,0.132l0.002,0.073l-0.014,-0.003l-0.039,-0.063l-0.049,-0.144v-0.065l0.032,-0.063v-0.028l-0.063,-0.065l-0.009,-0.075l0.009,-0.067l-0.011,-0.005l-0.033,0.059l-0.004,0.123l0.021,0.123l0.06,0.198l0.044,0.242l0.274,0.752l0.07,0.349l0.054,0.137l0.032,0.235l0.012,0.238l0.03,0.025h0.065l0.089,0.03h0.051l0.04,-0.037l0.021,-0.002l0.007,0.021l-0.019,0.042l0.009,0.051l0.061,0.049l0.037,-0.003l0.042,-0.039h0.044l0.058,0.032l0.044,0.103l0.026,0.177l0.047,0.079l0.032,0.009l0.035,-0.018l0.121,-0.161l0.035,-0.009l0.033,0.014l0.021,0.06l0.039,0.054l0.023,-0.003l0.045,-0.069l0.007,-0.049l-0.014,-0.042v-0.065l0.048,-0.124l0.054,-0.051l0.058,-0.002l0.03,-0.024l0.003,-0.034l-0.047,-0.04l0.003,-0.04l0.032,-0.032l-0.002,-0.056l-0.037,-0.051l-0.003,-0.037l0.014,-0.033v-0.147l-0.018,-0.107l-0.061,-0.088l-0.058,-0.035h-0.044l-0.045,0.014l-0.018,-0.007l0.005,-0.016l0.034,-0.04l0.073,-0.035l0.11,-0.001l0.058,0.011l0.044,-0.007l0.049,-0.047l0.007,-0.033l-0.02,-0.06l-0.004,-0.063l-0.015,-0.048l-0.024,-0.015l-0.041,-0.057l-0.004,-0.019l0.023,-0.003l0.066,0.059l0.01,0.052l0.013,0.052l0.039,0.015l0.031,0.02l0.015,-0.013l-0.004,-0.03l0.011,-0.018l0.026,0.002l0.013,-0.01l0.006,-0.081l0.056,-0.099l0.022,-0.061l0.011,-0.011v0.035l-0.028,0.082l-0.031,0.113l0.005,0.126l0.019,0.05l0.053,0.023l0.064,-0.013l0.113,-0.063l0.018,-0.049l-0.018,-0.066l-0.034,-0.032l-0.037,-0.052l0.009,-0.011l0.054,0.035l0.082,0.073l0.05,-0.002l0.074,-0.041l0.085,-0.008l0.052,-0.022l0.041,-0.046l0.015,-0.054l0.002,-0.054l0.015,-0.05v-0.15l0.016,-0.059h0.024l0.006,0.026l-0.004,0.055l0.043,0.178l0.046,0.052l0.05,0.004l0.034,-0.02l0.057,-0.004l0.052,-0.021l0.004,-0.029l-0.033,-0.024l-0.06,-0.069v-0.039l0.03,-0.069l0.033,-0.024h0.047l-0.002,0.017l-0.039,0.022l-0.032,0.054l0.004,0.032l0.052,0.024l0.052,0.059l0.004,0.041l-0.019,0.057l-0.058,0.043l-0.055,0.004l-0.059,0.02l-0.006,0.026l0.024,0.045l-0.002,0.094l-0.018,0.072l-0.049,0.084l-0.022,0.163l0.013,0.084l0.043,0.039l0.02,-0.002l0.011,-0.045l0.019,-0.046l0.018,-0.002l0.006,0.041l0.02,0.035h0.03l0.106,-0.089l0.1,-0.067l0.119,-0.048l0.014,-0.039l-0.009,-0.037l-0.024,-0.026l0.004,-0.015l0.037,0.008l0.02,0.042l-0.005,0.191l0.029,0.099l0.043,0.089l-0.004,0.094l-0.048,0.08l-0.011,0.07l0.022,0.026l0.039,-0.011l0.035,-0.128l0.025,-0.052h0.022l0.061,0.186l0.063,0.165l0.004,0.105l-0.077,0.144l-0.002,0.074l0.021,0.058l0.03,0.005l0.021,-0.026l0.021,0.003l0.021,0.051v0.042l-0.037,0.06l-0.028,0.105l-0.003,0.198l0.031,0.133l0.062,0.06l0.038,0.063l0.004,0.056l0.014,0.039l0.024,-0.002l0.011,-0.023l-0.011,-0.058l0.02,-0.045l0.038,-0.021l0.144,-0.009l0.095,0.042l0.087,0.112l0.06,0.06l0.044,-0.002l0.035,-0.044l0.084,-0.047l0.051,0.002l0.068,0.024l0.035,-0.005l0.09,-0.086l0.007,-0.049l-0.044,-0.074l0.009,-0.01l0.035,0.012l0.031,0.042l0.044,0.016l0.018,-0.005l0.035,-0.093l0.024,0.007l-0.012,0.128l0.014,0.068l0.17,0.153l0.032,-0.004l0.012,-0.056l0.007,-0.096l0.019,-0.03l0.023,0.005v0.079l-0.03,0.144l-0.035,0.028l-0.04,0.007l-0.028,0.04v0.046l0.165,0.284l0.049,0.014l0.103,-0.021l0.06,0.01l0.068,0.062l0.063,0.084l0.011,0.124l0.035,0.025l0.061,-0.005l0.128,-0.102l0.051,-0.119l0.018,-0.065l-0.021,-0.088l0.021,-0.026l0.093,0.003l0.077,-0.01l0.035,-0.03l0.026,-0.049h0.018v0.07l-0.03,0.056l-0.098,0.046l-0.048,0.075l-0.01,0.056l0.04,0.004l0.051,-0.06l0.028,-0.01l0.016,0.007l-0.06,0.075l-0.01,0.067l-0.028,0.121l-0.076,0.105l-0.031,0.107l0.021,0.033l0.052,0.007l0.021,0.042l-0.005,0.035l-0.021,0.002l-0.098,-0.063l-0.072,0.002l-0.019,0.021l-0.014,0.054l-0.041,0.046l-0.121,0.056v0.035l0.058,0.103v0.046l-0.031,0.061l-0.009,0.111l0.014,0.17l0.096,0.252l0.069,0.053l0.103,0.005l0.063,0.03l0.102,0.016l0.072,-0.021l0.061,-0.104l0.023,-0.191l-0.007,-0.1l0.012,-0.054l0.039,-0.03l0.037,-0.058l0.003,-0.079l0.009,-0.075l0.019,-0.002l0.011,0.023l0.035,0.284l0.065,0.07l0.093,0.032l0.066,0.061l0.03,0.105l0.049,0.058l0.121,0.07l0.018,0.042l-0.037,0.048l-0.002,0.04l0.025,0.014l0.052,-0.033l0.048,-0.004l0.04,0.023h0.037l0.047,-0.051l0.037,-0.01l0.03,0.021l0.003,0.047l0.016,0.046l0.065,0.035l0.016,0.033l-0.046,0.116l-0.033,0.028l-0.051,0.003l-0.009,0.018l0.114,0.065h0.042l0.037,-0.039l0.042,-0.007l0.037,0.03l0.009,0.044l-0.021,0.091l0.042,0.158l0.126,0.177l0.028,0.086l-0.005,0.077l-0.049,0.07l-0.046,0.009l-0.021,-0.014l-0.016,0.005l-0.005,0.023l0.042,0.061l0.025,0.002l0.033,-0.033l0.06,0.005l0.077,0.07l0.044,0.063l0.007,0.079l0.068,0.13l0.033,0.191v0.133l-0.045,0.086l0.003,0.077l0.086,0.095l0.058,0.091l0.156,0.165l0.039,0.105l0.028,0.014l0.028,-0.017l0.033,-0.069h0.018l0.017,0.076l0.051,0.063l0.109,0.021l0.047,0.033l0.165,0.051h0.056l0.051,-0.03l0.037,-0.072l0.014,-0.124l-0.044,-0.139l-0.004,-0.194l0.02,-0.058l0.068,-0.063l0.046,-0.081l0.012,-0.114l0.021,-0.072l0.061,-0.04l0.039,0.003l0.005,0.025l-0.044,0.033l-0.035,0.1l-0.005,0.151l-0.026,0.105l-0.014,0.137l0.007,0.21l0.04,0.097l0.086,0.04l0.056,-0.007l0.144,-0.107l0.054,-0.063l0.046,-0.2l0.031,-0.1l0.083,-0.11l0.098,-0.107l0.023,-0.056l0.019,-0.007l-0.009,0.068l-0.089,0.109l-0.018,0.059l0.014,0.013l0.114,-0.037l0.09,0.003l0.031,0.011l-0.021,0.021l-0.096,-0.004l-0.084,0.023l-0.076,0.051l0.002,0.028l0.077,0.051l0.025,0.002l0.031,-0.023l0.063,-0.009l0.102,0.009l0.014,0.028l-0.033,0.065l-0.032,0.003l-0.054,-0.038l-0.049,-0.011l-0.053,0.016l-0.042,-0.009l-0.056,-0.038l-0.026,0.005l-0.082,0.193l-0.046,0.184l-0.032,0.042l-0.128,0.03l-0.049,0.035l-0.056,0.177l0.007,0.054l0.077,0.051l0.156,0.195l0.051,0.168l0.098,0.198l0.037,0.009l0.044,-0.028l0.04,-0.086l0.009,-0.054l-0.016,-0.03l-0.007,-0.046l0.016,-0.114l0.028,-0.133l0.016,-0.026v0.065l-0.016,0.117l0.019,0.065l0.104,0.079l0.014,0.063l-0.044,0.074l-0.093,0.028l-0.023,0.026l0.016,0.058l0.04,0.021l0.062,-0.017l0.109,-0.102l0.014,-0.059l-0.039,-0.094l-0.115,-0.112l-0.021,-0.066l0.011,-0.063l0.122,-0.119l0.049,-0.091l0.01,-0.087l0.018,-0.021l0.017,0.115l-0.049,0.098l-0.133,0.133l0.004,0.042l0.042,0.038l0.098,0.112l0.035,0.077l0.038,0.007l0.042,-0.063l0.059,-0.042l0.021,-0.045v-0.07l0.025,-0.004l0.027,0.08l-0.01,0.042l-0.098,0.07l-0.014,0.094l0.063,0.144v0.115l0.028,0.024l0.108,-0.042l0.074,-0.076l0.01,-0.074l0.031,0.007l0.028,0.091l0.095,0.017l0.055,-0.031l0.053,-0.108l-0.037,-0.018l0.003,0.256l-0.044,0.04l-0.096,0.018l-0.016,0.04l0.023,0.051l-0.009,0.068l-0.088,0.097l-0.11,0.031l-0.076,0.101l0.003,0.119l0.042,0.076l-0.011,0.035l-0.041,0.025l-0.007,0.073l0.031,0.126l0.059,0.098l0.032,0.007l0.066,-0.081l0.105,-0.007l0.132,0.053l0.06,0.094l-0.011,0.119l-0.063,0.069l-0.038,-0.003l-0.017,-0.049l-0.136,-0.077l-0.041,-0.05l-0.047,-0.002l-0.07,0.059l-0.007,0.053l0.021,0.041l0.007,0.102l-0.014,0.052l0.007,0.073l0.088,0.136l0.052,0.004l0.066,-0.035l0.053,-0.059l0.01,-0.105l-0.031,-0.038l-0.018,-0.039l0.046,0.007l0.049,0.063l-0.011,0.15l-0.091,0.073l-0.08,0.039l-0.017,0.031l0.024,0.014l0.066,-0.01l0.067,0.014l0.228,0.106l0.084,0.007l0.028,-0.035h0.038l0.056,0.042l0.105,0.192l0.031,0.175l0.059,0.049h0.088l0.056,-0.053l0.027,-0.031l0.025,0.007l0.024,0.073l0.126,0.157l0.059,0.129l0.056,0.067h0.077l0.056,-0.025l0.042,-0.059l0.045,-0.01l0.025,0.013l-0.035,0.123l0.007,0.069l0.045,0.077l-0.007,0.067l0.018,0.069l0.09,0.074l0.035,-0.004l0.025,-0.052l0.038,-0.039l0.028,0.007l0.003,0.109l0.032,0.083l0.063,0.077v0.039l-0.035,0.031l-0.046,-0.003l-0.035,0.028l-0.02,0.101l0.02,0.063l0.039,0.017l0.07,-0.049l0.097,-0.063l0.07,-0.007l0.115,0.077l0.011,0.046l-0.028,0.007l-0.084,-0.053l-0.049,0.007l-0.003,0.042l0.133,0.241l0.195,0.185l0.115,0.056l0.042,-0.007l0.032,-0.14l0.066,-0.112h0.045l0.046,0.049l-0.004,0.196l-0.056,0.077l-0.01,0.076l0.031,0.028l0.074,0.025l0.095,0.18l0.084,0.245l0.046,-0.026l0.014,-0.142l0.056,-0.067l0.028,-0.11l0.051,-0.056l0.016,-0.075l-0.044,-0.216l0.004,-0.221l0.036,-0.063l-0.028,-0.071l0.02,-0.012l0.107,0.071l0.044,-0.028v-0.15l-0.016,-0.051l-0.056,-0.043l-0.024,-0.138l0.024,-0.095l0.056,-0.023l0.023,-0.056l-0.015,-0.138l-0.06,-0.043v-0.051l0.06,-0.036l0.043,-0.102l0.111,-0.051l0.087,0.027l0.028,0.114l0.067,0.04h0.075l0.076,-0.122l0.035,0.004l0.024,0.067l0.052,0.004l0.051,-0.056l0.091,-0.011l0.024,0.039l-0.024,0.071l0.028,0.087l0.059,0.015l0.048,0.079l0.079,0.02l0.016,0.051l-0.032,0.031l-0.018,0.094l0.046,0.084l-0.019,0.055l-0.102,0.033l-0.004,0.043l0.07,0.025l0.033,0.118l0.03,0.021l0.071,0.009l0.104,0.08l0.039,0.156l0.05,0.03l0.069,-0.006l0.145,0.03l0.125,0.091l0.062,0.003l0.086,-0.047l0.119,-0.006l0.066,0.038l0.071,0.006l0.08,-0.038l0.036,0.021l-0.009,0.097l0.048,0.064l0.104,0.083l0.161,0.015l0.077,-0.041l0.048,0.009l0.065,0.074l0.16,0.053l0.092,0.077l0.084,0.026l0.11,-0.008l0.02,0.023l-0.012,0.045l0.042,0.038l0.092,-0.041l0.116,-0.024l0.036,-0.071l0.065,-0.041h0.068l0.039,-0.027l0.024,-0.062l0.095,-0.133l0.05,-0.021l0.039,0.024l-0.027,0.1l0.015,0.124l0.059,0.077l0.101,0.024l0.048,-0.047l0.044,0.009l0.081,0.085l0.089,0.015l0.047,0.039l0.01,0.124l0.04,0.098l0.004,0.209l-0.02,0.063l0.008,0.067l0.075,0.075l0.047,0.132l0.08,0.062l-0.009,0.048l-0.045,0.017l-0.047,0.068v0.074l0.071,0.128l0.009,0.059l-0.009,0.059l0.051,0.083l0.041,0.003l0.051,-0.045l0.014,-0.139l0.03,-0.003l0.101,0.074l0.033,0.08l0.047,0.024l0.089,-0.059l0.069,-0.009l0.101,0.02l0.038,-0.02l0.003,-0.095l0.107,-0.074l0.027,-0.065l0.045,-0.012l0.074,0.03l0.056,0.092l0.134,0.059l0.024,0.044l0.101,0.018l0.121,-0.059l0.167,-0.009l0.107,-0.036l0.122,0.036l0.008,0.041l-0.029,0.071l0.071,0.169l-0.009,0.035l0.009,0.042l0.048,0.026l0.003,0.047l-0.096,0.077l-0.103,0.024l-0.06,-0.009l-0.071,0.047v0.06l-0.086,0.068l-0.009,0.05l0.172,0.065l0.11,0.068l0.006,0.05l0.033,0.012l0.074,0.012l0.053,0.053l-0.009,0.05l-0.056,0.027l-0.021,0.089l-0.074,0.097l-0.009,0.077l0.074,0.074l0.006,0.036l-0.044,0.053l-0.003,0.086l0.038,0.032l-0.003,0.033l-0.041,0.035l0.006,0.065l0.092,0.05l0.012,0.06l-0.078,0.115l-0.077,0.009l-0.018,0.035l0.003,0.065l-0.059,0.107l-0.006,0.077l-0.033,0.008l-0.041,-0.047l-0.078,-0.006l-0.053,0.048h-0.048l-0.077,-0.042l-0.068,0.036v0.082l-0.085,0.112l-0.042,0.102l-0.008,0.126l0.032,0.058l-0.01,0.035l-0.059,0.051l-0.01,0.052l-0.097,0.049l-0.004,0.051l0.049,0.122l0.163,0.125l0.025,0.08l0.074,0.091l0.043,0.016l0.127,-0.038l0.03,0.02l-0.002,0.079l0.019,0.012h0.042l0.079,0.051l0.006,0.055l0.077,0.061l0.014,0.073l0.151,0.154l0.087,0.337l0.061,0.008l0.02,-0.045l0.06,-0.016l0.073,-0.057l0.008,-0.063l0.031,-0.032l0.171,-0.008l0.107,-0.083l0.051,-0.1l-0.02,-0.057l0.022,-0.026h0.099l0.089,-0.057l0.062,-0.085l0.013,-0.045l-0.017,-0.044l0.008,-0.071l-0.048,-0.149l-0.002,-0.063l0.046,-0.062l0.008,-0.102l0.045,-0.089l0.079,-0.059l0.083,-0.01l0.08,0.012l0.039,0.059l0.034,0.002l0.059,-0.057l0.042,0.004l0.042,0.032l0.065,-0.016l0.032,-0.101l0.063,-0.049l0.079,-0.002l0.028,-0.024l0.03,-0.096l0.065,-0.052l0.006,-0.096l0.026,-0.012l0.083,0.02l0.123,-0.02l0.059,0.026l0.125,0.017l0.063,-0.049l0.032,0.002l0.041,0.038l0.058,-0.002l0.02,-0.065l0.019,-0.018l0.052,-0.006l0.109,-0.118l0.027,-0.004l0.038,0.023l0.022,-0.015l0.006,-0.05l0.087,-0.073l0.172,-0.019l0.093,-0.063l0.054,0.007l0.01,0.079l0.051,0.038l0.085,-0.01l0.04,0.027l-0.008,0.075l0.047,0.044l0.014,0.104l0.097,0.046l0.054,-0.012l0.037,-0.036l0.038,0.008l0.028,0.057l-0.03,0.057l-0.002,0.032l0.028,0.026l-0.002,0.031l-0.028,0.042l0.004,0.173l0.046,0.006l0.017,0.037l-0.007,0.046l0.035,0.081l0.054,0.035l0.043,0.002l0.016,0.02l0.016,0.154l0.061,0.015l0.099,-0.067l0.006,-0.161l0.02,0.002l0.008,0.039h0.018l0.024,-0.022l0.029,-0.002l0.028,0.022l0.028,-0.01l0.045,-0.081l0.074,-0.004l0.13,0.095v0.093l0.054,0.057l0.172,0.116l0.036,0.053l0.055,0.01l0.028,-0.037l-0.01,-0.061l-0.054,-0.057v-0.038l0.133,-0.191l0.101,-0.022l0.057,0.018l0.016,-0.01l-0.025,-0.041l0.019,-0.032l0.074,-0.002l0.037,-0.043l-0.029,-0.077l0.063,-0.107l0.071,-0.041l0.066,0.018l0.073,-0.01l0.073,-0.051l0.006,-0.056l0.018,-0.013l0.041,-0.006l0.036,-0.067l-0.026,-0.057l-0.002,-0.062l-0.037,-0.061l0.004,-0.039l-0.026,-0.022l-0.059,-0.018l0.002,-0.057l0.047,-0.075l-0.002,-0.104l0.016,-0.018l0.042,0.002l0.041,-0.051l-0.014,-0.093l0.026,-0.043l-0.016,-0.042l0.042,-0.051l0.045,-0.01l0.097,-0.088l0.006,-0.095l0.042,-0.063l0.043,-0.006l0.058,-0.061l0.045,-0.002l0.026,-0.022l0.004,-0.037l0.02,-0.014l0.067,0.002l0.02,-0.018l0.008,-0.051l0.067,-0.055l0.044,-0.008l0.107,-0.063l0.035,-0.122l0.042,-0.056l0.034,-0.009l0.079,-0.178l0.028,-0.014l0.041,-0.08l-0.03,-0.056l-0.031,-0.019l-0.01,-0.06l-0.03,-0.017l-0.002,-0.031l0.02,-0.038l-0.022,-0.134l0.056,-0.156l-0.054,-0.018l0.007,-0.03l0.049,-0.003l0.028,-0.037l-0.009,-0.037l-0.469,-0.306l-0.429,-0.367l-0.336,-0.367l-0.083,-0.119l-0.157,-0.077l-0.144,-0.014l-0.083,-0.053l-0.105,-0.154l-0.503,-0.684l-0.489,-0.779l-0.055,-0.154l-0.028,-0.028l-0.051,-0.024l-0.14,-0.167l-0.186,-0.322l-0.159,-0.303l-0.069,-0.042l-0.061,-0.01l-0.06,-0.037l-0.042,-0.07l-0.047,-0.019l-0.074,0.014l-0.079,-0.023l-0.07,-0.047l-0.303,-0.093l-0.377,-0.065l-0.195,-0.061l-0.14,-0.103l-0.186,-0.135l-0.144,-0.06l-0.135,0.009l-0.149,0.074l0.004,0.028l0.052,0.005l0.107,-0.028l0.116,0.005l0.186,0.098l0.098,0.037l0.107,0.103l0.023,0.098l-0.07,0.065l-0.06,-0.005l-0.065,-0.037l-0.061,-0.009l-0.056,0.018l-0.074,-0.014l-0.093,-0.07l-0.117,-0.042l-0.111,0.005l-0.033,0.028l0.009,0.051l-0.065,0.066l-0.321,0.107l-0.405,0.028l-0.316,0.005l-0.168,0.032l-0.195,-0.014l-0.312,-0.121l-0.335,-0.205l-0.308,-0.289l-0.107,-0.038l-0.195,-0.004l-0.149,-0.052l-0.195,-0.126l-0.266,-0.27l-0.274,-0.387l-0.391,-0.583l-0.177,-0.206l-0.061,-0.074l-0.051,-0.01l-0.023,0.024l0.009,0.079l0.051,0.117l-0.042,0.102l-0.065,0.019l-0.088,0.056l-0.061,0.065l-0.139,0.051l-0.191,0.005l-0.144,-0.033l-0.061,-0.074l-0.112,-0.024l-0.074,0.01l-0.135,-0.042l-0.075,-0.121l-0.014,-0.066l-0.037,-0.042l-0.06,-0.032l-0.052,-0.066l0.01,-0.079l0.098,-0.089l0.135,-0.084l-0.033,-0.056l-0.093,-0.051v-0.074l0.098,-0.098l-0.005,-0.131l-0.107,-0.103l-0.037,-0.098l0.009,-0.186l-0.033,-0.168l-0.051,-0.047l-0.065,-0.009l-0.061,0.051l-0.074,0.182l-0.037,0.019l-0.033,-0.038l0.023,-0.195l0.094,-0.131l0.004,-0.182l-0.074,-0.121v-0.094l0.042,-0.028l0.074,-0.023l0.07,-0.07l-0.019,-0.032l-0.046,0.009l-0.056,0.056l-0.093,0.028l-0.065,0.004l-0.024,0.038l0.014,0.116l-0.014,0.131l0.024,0.051l0.046,0.047l-0.018,0.056l-0.08,0.037l-0.032,0.094l-0.019,0.228l0.037,0.065l0.117,0.024l0.018,0.028l-0.023,0.042l-0.116,-0.038l-0.061,0.005l-0.056,0.051l-0.055,-0.014l-0.042,-0.07l-0.186,-0.214l-0.061,-0.028l-0.046,-0.07l-0.005,-0.065l-0.158,-0.313l-0.014,-0.135l0.018,-0.093l-0.042,-0.024h-0.083l-0.107,-0.065l-0.066,-0.023l-0.037,-0.07l-0.135,-0.695l-0.06,-0.22l-0.01,-0.396l0.075,-0.149l0.256,-0.168l0.06,-0.094l0.093,-0.018l0.075,0.009l0.112,-0.023l0.093,-0.08l0.079,-0.014l0.07,0.028l0.13,0.248l0.098,0.41l0.018,0.411l-0.037,0.228l-0.042,0.061l-0.042,0.004l-0.065,-0.037l-0.046,0.005l-0.024,0.098l-0.042,0.074l-0.06,0.047l-0.023,0.075l0.032,0.158l0.065,0.038l0.075,0.004l0.046,-0.084l0.061,-0.196l0.107,-0.098l0.126,-0.018l0.19,0.023l0.135,0.075l0.056,0.154l0.075,0.452l0.009,0.448l-0.028,0.084l0.014,0.093l0.084,0.079l0.032,0.117l-0.013,0.14l0.032,0.093l0.009,0.14l-0.018,0.08l-0.028,0.037l-0.009,0.051l0.051,0.047l0.107,0.037l0.139,-0.005l0.131,0.033l0.326,0.238l0.046,0.089l-0.032,0.214l-0.052,0.065l-0.023,0.047l0.028,0.019l0.098,-0.028l0.056,-0.066l-0.014,-0.06l-0.038,-0.047l0.01,-0.07l0.051,-0.042h0.065l0.042,0.033l0.023,-0.018l-0.01,-0.122l-0.07,-0.185l-0.066,-0.084l-0.114,-0.114l-0.21,-0.349l-0.207,-0.475l-0.216,-0.619l-0.178,-0.742l-0.35,-1.403l-0.178,-0.857l-0.132,-0.78l-0.164,-0.983l-0.164,-0.619l-0.259,-0.749l-0.185,-0.399l-0.262,-0.255l-0.199,-0.067l-0.101,0.004l-0.017,0.017l0.031,0.018l0.101,0.014l0.144,0.056l0.048,0.063v0.143l-0.062,0.116l-0.018,0.122l0.039,0.137l0.111,0.168l0.021,0.126l-0.028,-0.004l-0.045,-0.066l-0.091,-0.039h-0.063l-0.056,-0.031l-0.059,-0.07l-0.066,-0.032l-0.098,-0.024l-0.087,-0.046l-0.063,-0.101l-0.098,-0.322l-0.091,-0.221l-0.143,-0.22l-0.066,-0.073l-0.028,-0.081l-0.077,-0.091l-0.129,-0.073l-0.119,-0.105l-0.062,-0.193l-0.032,-0.287l-0.073,-0.5l-0.032,-0.304l-0.097,-0.574l-0.014,-0.637l0.07,-0.14v-0.063l-0.035,-0.076l-0.007,-0.273l-0.035,-0.238l-0.077,-0.108l-0.07,-0.046l-0.06,-0.107v-0.285l0.018,-0.117l-0.004,-0.121l-0.173,-0.252l-0.037,-0.116l-0.005,-0.122l-0.06,-0.084l-0.047,-0.004l-0.041,0.037h-0.08l-0.218,-0.107l-0.066,-0.01l-0.027,0.019l-0.056,-0.005l-0.061,-0.032h-0.07l-0.055,0.037l-0.103,-0.009l-0.121,-0.066l-0.032,0.014l-0.038,0.08l-0.084,0.056l-0.125,0.009l-0.089,0.033l-0.13,0.163l-0.093,0.042l-0.158,-0.009l-0.159,-0.075l-0.13,-0.009l-0.112,0.056l-0.093,0.149l-0.023,0.144l-0.042,0.08l-0.149,0.088l-0.139,0.014l-0.28,-0.014l-0.102,0.033l-0.126,0.112l-0.032,-0.009l-0.028,-0.14l-0.056,-0.052l-0.116,-0.028l-0.112,-0.056l-0.037,-0.055l-0.066,-0.038l-0.102,0.005l-0.116,0.093l-0.075,-0.005l-0.125,-0.079l-0.108,-0.13l-0.046,-0.21l-0.014,-0.262l0.051,-0.107l0.14,-0.093l0.084,-0.009l0.051,-0.038l0.037,-0.102l0.121,-0.145l0.042,-0.009l0.051,0.032h0.028l-0.009,-0.037l-0.238,-0.233l-0.195,-0.303l-0.191,-0.462l-0.033,-0.163l0.014,-0.117l-0.028,-0.098l-0.19,-0.233l-0.093,-0.229l-0.042,-0.266l-0.075,-0.191l-0.037,-0.289l0.014,-0.215l0.06,-0.121l0.075,-0.042l0.023,-0.079l-0.037,-0.145l-0.005,-0.158l0.028,-0.094l-0.018,-0.224l-0.052,-0.13v-0.126l0.056,-0.117l0.033,-0.009l0.037,0.028l0.037,-0.014v-0.117l0.024,-0.074l-0.014,-0.028l-0.075,-0.028l-0.088,-0.14l-0.042,-0.299l0.009,-0.13l0.107,-0.103l0.112,-0.201l0.028,-0.149l0.07,-0.107h0.055l0.07,0.023l0.145,-0.06l0.069,-0.08l-0.037,-0.009l-0.084,0.037l-0.065,-0.004l-0.088,-0.084l-0.019,-0.08l0.028,-0.074l-0.037,-0.038l-0.149,-0.051l-0.079,-0.005l-0.089,-0.093l-0.032,-0.154v-0.149l0.056,-0.131l0.139,-0.07l0.163,-0.018l0.154,0.088l0.046,0.084l0.033,0.005l0.084,-0.089l0.065,-0.004l0.065,0.028l0.056,-0.01l0.032,-0.098l-0.004,-0.219l-0.079,-0.117l-0.247,-0.233l-0.047,-0.14l0.014,-0.093l0.052,-0.023l0.102,-0.014l0.074,-0.08l-0.032,-0.018l-0.047,0.009l-0.051,-0.014l-0.051,-0.084l0.019,-0.084l0.041,-0.023l0.112,0.018l0.056,-0.032l0.065,-0.201l0.014,-0.168l0.017,-0.273l0.044,-0.162l0.093,-0.065h0.056l0.051,0.046l0.014,0.065l0.033,0.01l0.037,-0.061l-0.004,-0.037l-0.038,-0.047l0.024,-0.079l0.093,-0.056l0.079,-0.068l0.177,-0.276l0.159,-0.342l0.023,-0.219l0.038,-0.098l0.083,-0.046h0.093l0.061,-0.047l0.07,0.005l0.065,0.042v0.051l0.023,0.014l0.07,-0.056l0.037,-0.116l-0.023,-0.112l-0.154,-0.27l0.024,-0.177l0.069,-0.181l-0.009,-0.349l-0.084,-0.388l0.025,-0.255l0.138,-0.274l0.173,-0.103l0.093,0.005l0.051,0.037l-0.005,0.051v0.047l0.046,0.021l0.059,-0.045l0.017,-0.084l-0.038,-0.095l-0.087,-0.153l-0.018,-0.213l0.028,-0.237l0.077,-0.206l0.133,-0.168l0.136,-0.311l0.035,-0.15l0.049,-0.122l0.052,-0.042l0.028,-0.066l0.01,-0.133l0.081,-0.206l0.265,-0.495l0.234,-0.384l0.056,-0.147l0.111,-0.15l0.147,-0.147l0.164,-0.105l0.059,-0.003l0.032,0.021l0.021,-0.004l-0.014,-0.034l-0.042,-0.049l-0.032,-0.091l0.007,-0.056l0.067,-0.038l0.007,-0.042l-0.049,-0.081l-0.018,-0.08l0.011,-0.07l0.084,-0.087l0.062,-0.007l0.056,0.039l0.025,-0.011v-0.063l-0.053,-0.073l-0.007,-0.045l-0.031,-0.032l-0.049,-0.028l-0.021,-0.063l0.014,-0.108l0.175,-0.419l0.192,-0.297l0.307,-0.296l0.157,-0.189l0.066,-0.045l0.077,-0.028l0.045,-0.052v-0.063l-0.02,-0.049l0.007,-0.073l0.069,-0.13l0.088,-0.104l0.157,-0.105l0.049,-0.084l-0.007,-0.066l-0.095,-0.087l-0.024,-0.067v-0.052l-0.042,-0.052l-0.063,-0.035l-0.049,-0.077l-0.014,-0.122l0.07,-0.311l0.046,-0.084l0.041,-0.028l0.018,-0.059l-0.021,-0.087v-0.238l-0.035,-0.146l-0.07,-0.095l-0.031,-0.174l-0.021,-0.168l-0.004,-0.122l0.021,-0.08l-0.01,-0.091l-0.066,-0.161l-0.053,-0.265l-0.003,-0.398l0.042,-0.276v-0.226l0.034,-0.245l0.133,-0.29l0.094,-0.24l0.063,-0.098l0.063,-0.189l0.031,-0.146l-0.003,-0.147l0.07,-0.248l0.132,-0.22l0.29,-0.38l-0.003,-0.032l-0.077,-0.028l-0.105,-0.097l-0.066,-0.196l-0.007,-0.178l0.038,-0.112l-0.01,-0.073l-0.171,-0.129l-0.112,-0.031l-0.122,-0.112l-0.039,-0.14l-0.129,-0.143l-0.084,-0.035l-0.087,-0.087l-0.07,-0.018l-0.003,-0.027l0.049,-0.088l0.031,-0.129l0.067,-0.077l0.181,-0.087l0.042,-0.084l0.01,-0.174l0.025,-0.028h0.077l0.045,0.017l0.042,-0.014l0.059,-0.063l0.014,-0.111l0.049,-0.112l0.217,-0.119l0.506,-0.167l0.262,-0.056l0.122,-0.038l0.09,-0.053l0.175,-0.035l0.084,-0.066l0.031,-0.133l-0.056,-0.118l0.011,-0.053l0.045,-0.031l0.025,0.003l-0.007,0.032l-0.028,0.031l0.003,0.039l0.094,0.122l0.206,0.094l0.238,0.021l0.433,-0.042l0.192,-0.059l0.125,-0.011l0.056,0.018l0.094,-0.004l0.123,-0.045l0.345,-0.021l0.14,-0.073l0.031,-0.084l-0.024,-0.067l-0.063,-0.069v-0.116l0.063,-0.118l0.031,-0.039l-0.003,-0.052l-0.056,-0.024l-0.094,-0.014l-0.133,-0.084l-0.021,-0.046l0.018,-0.021l0.031,0.032l0.017,0.024l0.095,0.053l0.118,0.021l0.063,0.042l0.018,0.045l-0.007,0.08l-0.077,0.112l-0.004,0.052l0.032,0.063l0.143,0.08l0.133,0.126l0.366,0.112l0.998,0.159l0.55,0.126l0.208,0.001l0.122,-0.063l0.046,-0.056l-0.004,-0.045l-0.021,-0.035l0.014,-0.049l0.101,-0.003l0.077,0.056l0.007,0.031h-0.042l-0.049,-0.038l-0.031,0.007l-0.007,0.045l0.021,0.038l-0.014,0.049l-0.059,0.056l-0.035,0.08l0.003,0.178l0.077,0.231l0.003,0.108l-0.048,0.084l-0.213,0.118l-0.105,0.021l-0.052,0.056l-0.011,0.105l-0.028,0.017l-0.042,-0.007l-0.045,0.028l0.003,0.063l0.126,0.157l0.049,0.147l0.049,0.276l-0.004,0.09l-0.042,0.112l-0.017,0.077l-0.115,0.161l-0.042,0.073l-0.018,0.07l-0.097,0.101l-0.039,0.105l-0.014,0.125l0.039,0.074l0.045,0.031l0.021,0.087l-0.017,0.06l0.017,0.028l0.091,-0.035l0.087,0.003l0.042,0.077l-0.011,0.192l-0.087,0.154l-0.056,0.031l-0.09,0.014l-0.028,0.059l-0.004,0.122l-0.073,0.102l-0.077,0.035l-0.024,0.076l0.017,0.063l0.192,0.196l0.115,0.237l0.028,0.203l-0.017,0.136l-0.115,0.16l-0.06,0.007l-0.056,-0.031l-0.073,0.003l-0.073,0.077l-0.056,0.032l-0.035,0.083l-0.014,0.14l0.028,0.122l0.077,0.025l0.003,0.027l-0.045,0.056l0.007,0.035l0.091,0.032l0.014,0.045l-0.028,0.049l-0.056,0.028l0.003,0.028l0.06,0.014l0.174,-0.028l0.066,-0.046h0.119l0.105,0.07l0.01,0.049l-0.031,0.059l-0.056,0.018l-0.017,0.035l0.024,0.08l0.045,0.032l0.077,0.003l0.112,0.063l0.045,-0.007l0.028,-0.063l0.007,-0.147l0.049,-0.104l0.147,-0.077l0.265,-0.028l0.143,-0.042l0.056,-0.042l0.196,-0.021h0.181l0.066,0.049l0.042,0.004l0.053,-0.014l0.035,0.017l0.027,0.077l0.007,0.101l0.021,0.021l0.035,-0.01l0.011,-0.105l-0.035,-0.059l0.01,-0.028l0.15,-0.007l0.109,0.021l0.241,-0.004l0.069,0.032l0.14,0.038l0.08,0.01l0.259,0.102l0.373,0.178l0.224,0.15l0.034,0.014l0.028,-0.018l0.014,-0.094l0.049,-0.094l0.115,-0.056l0.213,-0.018l0.29,0.014l0.143,0.025l0.098,-0.011l0.024,-0.042l0.004,-0.073l0.059,-0.035l0.206,-0.01l0.178,0.056l0.07,-0.004l0.087,-0.091l0.088,-0.157l0.094,-0.07l0.15,-0.052l0.14,-0.007l0.083,-0.031l0.116,0.003l0.094,0.028l0.157,0.098l0.136,0.049l0.248,0.178l0.056,0.094l0.01,0.129l0.053,0.081l0.087,0.038l0.045,-0.004l0.081,0.035l0.027,0.07l-0.024,0.053l-0.052,0.01l-0.053,-0.028l-0.024,0.018l0.007,0.031l0.105,0.052l0.125,0.115l0.032,0.06l0.038,0.024l0.042,0.011l0.042,0.045l0.021,0.004l0.007,-0.046l-0.032,-0.087l-0.017,-0.15l-0.039,-0.07v-0.066l0.063,-0.06l0.039,0.011l0.056,0.07l-0.004,0.045l-0.035,0.056l0.004,0.108l-0.018,0.042l0.007,0.042l0.056,0.01l0.056,-0.017l0.094,0.01l0.262,0.144l0.098,0.108l0.007,0.07l-0.007,0.062l0.017,0.06l0.087,0.042l0.028,-0.021l-0.007,-0.06l-0.031,-0.045v-0.073l0.035,-0.067v-0.094l-0.039,-0.031l0.014,-0.039l0.084,-0.017l0.094,0.059l0.098,0.011l0.067,-0.053h0.027l-0.007,0.046l-0.062,0.052l-0.098,0.007l-0.077,0.038l-0.042,0.084v0.08l-0.021,0.025v0.028l0.095,0.049l0.164,0.139l0.132,0.192l0.007,0.067l0.018,0.014l0.076,0.01l0.13,0.052l0.178,0.168l0.192,0.227l0.118,0.14l0.126,0.083h0.077l0.066,-0.031l0.018,-0.056l-0.018,-0.063l-0.087,-0.115l-0.035,-0.122l-0.007,-0.105l-0.028,-0.056l-0.038,-0.031l-0.011,-0.046l0.021,-0.041l-0.017,-0.053l-0.056,-0.017l-0.094,0.042l-0.018,-0.028l0.004,-0.07l0.041,-0.007l0.042,0.017l0.081,-0.01l0.08,-0.039l0.07,-0.003l0.007,0.035l-0.035,0.056l0.003,0.063l0.06,0.08l0.01,0.056l0.032,0.049l0.041,0.014l0.014,0.031l-0.014,0.042l-0.083,0.01l-0.011,0.032l0.011,0.098l0.07,0.09l0.034,0.105l0.06,0.045l0.052,0.004l0.059,-0.066l0.116,-0.067l0.031,-0.077l-0.007,-0.101l0.045,-0.077l0.088,-0.045l0.024,0.007l-0.007,0.035l-0.028,0.035l0.007,0.063l0.077,0.059l-0.014,0.028l-0.063,0.035l-0.15,0.164l-0.042,0.084l-0.063,0.031l-0.226,0.073l-0.053,0.004l-0.056,-0.028l-0.014,0.01l0.007,0.088l0.032,0.066l0.063,0.059l0.052,0.109l0.003,0.073l-0.034,0.07l0.003,0.087l0.101,0.126l0.115,0.024l0.063,-0.01l0.042,-0.06l0.105,-0.042l0.133,0.014l0.146,0.095l0.046,0.069l0.052,0.021h0.248l0.195,0.032l0.032,0.024l-0.004,0.021l-0.021,0.028v0.038l0.053,0.063l0.289,0.126l0.105,0.094l0.066,0.154l0.011,0.122l0.049,0.059l0.111,0.025l0.046,0.031l0.031,0.004l0.021,-0.053l-0.014,-0.094l-0.091,-0.14l-0.087,-0.066l-0.003,-0.049l0.035,-0.059v-0.059l-0.035,-0.091l-0.011,-0.136l0.014,-0.049l0.049,-0.028l0.004,-0.052l-0.011,-0.046l0.045,-0.105l0.095,-0.062h0.052l0.077,0.062l0.181,0.091l0.081,0.101l-0.004,0.081l-0.035,0.017l-0.073,0.004l-0.031,0.028l-0.004,0.024l0.07,0.028l0.147,0.119l0.265,0.247l0.248,0.199l0.136,0.151l0.071,0.132l-0.01,0.177l0.038,0.13l0.06,0.089l0.005,0.07l-0.056,0.144l0.009,0.088l0.74,1.029l0.08,0.2v0.093l-0.028,0.112l0.009,0.14l0.039,0.153z"/>
</svg>
