<svg xmlns="http://www.w3.org/2000/svg" viewBox="1463.338 449.956 94.080 59.248">
  <path d="M1467.482448,479.046409l-0.08661,0.117542l-0.061864,0.278388v0.723809l0.018559,0.476353l0.061864,0.185592l0.037118,0.402116l-0.018559,0.160846l-0.049491,-0.012373l-0.049491,-0.179406l0.018559,-0.167033l-0.024746,-0.160846l-0.129914,-0.204151l-0.018559,-0.24127l0.030932,-0.266015l-0.006186,-0.711436l0.111355,-0.30932l0.123728,-0.111355l0.043305,0.018559Z M1470.037431,472.315605l0.136101,0.006186l0.030932,-0.055678l-0.105169,-0.074237l-0.142287,-0.006186l-0.043305,0.037118l0.123728,0.092796Z M1466.839063,473.398225l0.105169,0.334066l0.160846,0.15466l0.272202,0.129914l0.111355,0.136101l0.055678,0.173219l0.08661,0.123728l0.098982,0.037118l0.049491,-0.024746l-0.111355,-0.061864l-0.123728,-0.266015l-0.117542,-0.167033l-0.296947,-0.142287l-0.049491,-0.098982l0.049491,-0.024746l0.142287,0.098982l0.15466,0.018559l-0.012373,-0.043305l-0.160846,-0.06805l-0.247456,-0.204151l-0.117542,-0.191778l-0.160846,-0.111355l-0.043305,0.030932l0.15466,0.167033Z M1474.677232,466.647316l0.037118,0.001547l0.037118,-0.074237l0.08661,-0.037118l0.055678,-0.092796l0.142287,-0.055678v-0.049491l-0.129914,-0.018559l-0.22271,0.055678l-0.177859,0.010826l-0.007733,0.032479l0.117542,0.043305l0.055678,0.08661l0.006186,0.097436Z M1475.645403,464.431038l0.095889,0.136101l0.034025,0.003093l-0.055678,-0.176312l-0.06805,-0.074237l-0.037118,0.021652l0.030932,0.089703Z  M1473.053302,492.518841l2.125,0.199l0.26,-0.241l0.436,0.019l0.344,-0.084l0.408,-0.288l0.195,-0.167l0.519,-0.241l0.177,-0.028l0.352,0.121l0.205,-0.009l0.334,-0.353l0.185,-0.065l0.186,-0.186l0.083,-0.241l0.102,-0.306l-0.046,-0.158l-0.139,-0.055l-0.009,-0.186l0.204,-0.529l0.278,-0.38l0.492,-0.177l0.342,-0.352l0.139,-0.065l0.493,-0.641l0.408,-0.204l0.214,0.037l0.121,-0.046l0.12,-0.149l1.18,-0.529l0.278,-0.251l0.065,-0.112l0.13,-0.018l0.149,0.083l0.641,-0.167l0.659,-0.018l0.362,-0.121l0.465,0.028l0.353,0.195l0.241,0.018l0.139,-0.037l0.167,0.028l0.195,0.093l0.437,0.009l0.455,-0.083l0.325,-0.01l0.204,0.112l0.298,0.028l0.325,-0.065l0.176,0.046l0.111,-0.028l0.056,-0.241l-0.148,-0.455l0.092,-0.214l0.456,-0.39l0.501,-0.13l0.567,0.028l0.13,0.149l0.176,0.037l0.214,-0.167l0.25,-0.065l0.251,0.009l0.139,-0.093l0.112,0.009l0.158,0.167l0.78,0.307l0.371,0.046l0.112,-0.046l0.12,0.046l0.056,0.13l0.195,0.084h0.251l0.492,-0.474l0.084,-0.195l0.297,-0.093l0.251,0.065l0.074,0.103l-0.046,0.111l0.083,0.139l0.177,0.056l0.092,0.176l-0.046,0.214l0.102,0.177l0.204,0.102l0.233,0.39l-0.075,0.548l-0.074,0.12l0.046,0.093l0.632,0.335l0.121,-0.01l0.167,0.047l0.065,0.093l0.139,0.009l0.195,-0.102h0.251l0.251,0.111l0.603,-0.018l0.112,0.13l0.12,0.065l0.14,-0.038l0.148,0.075l0.019,0.13l0.111,0.065l0.288,-0.047l0.734,0.26l0.223,0.214l0.269,0.074l0.139,-0.037l0.418,0.139l0.158,-0.027l0.27,0.12l0.195,0.446l-0.047,0.186l0.047,0.121l0.492,0.102l0.148,-0.037l0.279,0.102l0.056,0.158l0.167,0.027l0.158,-0.065l0.362,-0.009l0.186,-0.148l0.13,-0.298l0.167,-0.055l0.251,0.111l0.139,0.204l0.622,0.242l0.167,-0.019l0.047,-0.13l0.12,-0.055l0.186,0.074l0.13,-0.056l0.028,-0.251l0.093,-0.037l0.39,0.242l0.306,0.037l0.66,0.297l0.26,0.065l0.901,0.669l0.325,0.065l0.343,-0.121l0.288,0.037l0.242,0.316l-0.056,0.213l0.037,0.075l0.112,0.009v0.102l-0.14,0.093l-0.018,0.167l0.111,0.567l0.084,0.093l0.13,0.018l0.074,0.065v0.158l0.316,0.297l-0.019,0.177l0.372,0.297l0.037,0.251l0.176,0.111l0.4,0.037l0.13,-0.102l0.39,0.046l0.111,0.112l0.149,0.046l0.102,-0.111l0.473,0.176l0.214,0.27l0.307,0.148l0.39,-0.009l0.408,0.167l0.288,0.334l0.093,0.353l0.474,0.66l0.281,0.218l0.32,0.404l0.063,0.223l0.25,0.446l0.279,0.334l1.692,0.014l0.523,0.056l2.967,-0.168l0.153,0.119l0.174,0.473l-0.048,0.307l-0.119,0.111l0.007,0.181l0.098,0.105l-0.014,0.104l-0.07,0.077l-0.014,0.118l0.056,0.063l-0.007,0.07l-0.153,0.132l-0.007,0.125l0.062,0.189v0.271l0.091,0.202l0.153,0.181l0.084,0.355l0.146,0.251l-0.056,0.362l0.077,0.119l-0.007,0.062l-0.105,0.021l-0.181,0.453l-0.097,0.063l-0.035,0.09l0.042,0.119l-0.021,0.167l-0.244,0.167l0.014,0.098l0.109,0.097l0.228,0.037l0.232,0.158l0.111,0.149l0.038,0.255l0.143,0.204l0.005,0.312l-0.079,0.102l-0.042,0.413l0.038,0.079l-0.126,0.218l-0.074,0.033v0.148l0.088,0.144l0.125,0.07l0.038,0.134l0.13,0.107l0.102,-0.042l0.494,-0.09l0.063,0.077l-0.049,0.111l0.077,0.104l0.104,0.014l0.021,0.07l-0.049,0.077l0.091,0.132l0.272,0.153l0.926,0.669l1.275,0.209l1.253,-0.321l0.62,0.14l0.3,0.397l0.285,0.292l0.753,0.342l0.076,0.202l0.084,0.097l0.014,0.571l0.055,0.07l-0.007,0.251l0.063,0.021l1.101,-1.073l0.216,0.063l0.104,-0.021l0.111,0.097l0.042,0.14l0.202,0.09l0.133,-0.028l0.104,0.014l0.042,0.132h0.104l0.07,-0.125l0.522,-0.118l0.161,-0.105l0.069,-0.188l0.216,-0.125h0.167l0.265,-0.14l0.181,-0.236l0.815,-0.446l0.467,-0.028l0.125,-0.084l0.202,-0.821l-0.139,-0.119l-0.077,-0.432l0.112,-0.181l0.849,-0.341l-0.007,-0.16l-0.299,-0.126l-0.376,-0.397l0.007,-0.097l-0.077,-0.139l-0.111,-0.105l0.041,-0.265l0.105,-0.083l1.135,0.035l1.512,-0.342l0.236,-0.369l0.899,-0.125l1.922,-0.578l0.467,0.257l0.056,-0.027l-0.007,-0.189l-0.077,-0.097l0.007,-0.46l0.167,-0.174l0.091,-0.035l0.132,0.021l0.258,-0.16l0.069,-0.104l0.265,-0.042l0.146,0.097l0.084,0.007l0.049,-0.076h0.111l0.056,0.076h0.104l0.147,-0.397l0.306,-0.181l0.418,-0.111l0.146,0.007l0.871,-0.794l0.063,-0.237l0.306,-0.46l-0.097,-0.877l-0.007,-0.606l0.445,-0.934l0.739,-1.226l-0.286,-1.462l1.546,-0.801l0.948,-0.216l0.306,0.062h0.126l0.139,-0.083h0.104l0.244,0.118l1.693,-0.014l0.759,-0.801l0.021,-0.787l0.376,-0.724l0.258,-0.028l0.083,0.021l0.035,-0.07l0.056,0.014l0.021,0.091l0.181,0.069l0.146,0.237l0.132,0.063l0.126,-0.021l0.188,0.084l0.376,0.007l0.216,0.076l0.041,0.098l0.154,0.055l0.181,-0.055l0.23,0.055l0.181,0.147l0.014,0.097l0.104,0.077l0.16,0.007l0.133,0.069l0.021,0.154l0.076,0.041h0.3l0.195,0.063l0.09,0.132l0.251,0.126l0.153,0.021l0.112,-0.056h0.32l0.105,-0.091h0.111l0.3,0.112l0.257,-0.007l0.237,-0.111l0.077,-0.084l-0.126,-0.112l-0.195,-0.111l-0.007,-0.077l0.3,-0.362l0.146,-0.049l0.07,-0.153l-0.084,-0.174l-0.174,-0.118l-0.125,-0.335l0.028,-0.229l-0.042,-0.084v-0.125l0.111,-0.237l0.014,-0.293l0.049,-0.111l0.007,-0.16l-0.049,-0.244v-0.223l0.272,-0.536l0.32,-0.37l0.286,-0.181l0.16,-0.007l0.028,-0.069l-0.167,-0.335l-0.293,-0.229l-0.369,-0.168l-0.181,-0.027l-0.119,-0.091l-0.195,-0.063l-0.174,0.084l-0.334,0.049l-0.571,-0.293l-0.349,-0.292l-0.202,-0.328l-0.16,-0.083l-0.23,0.007l-0.188,-0.049l-0.139,-0.098l-0.125,0.007l-0.14,-0.076l-0.076,-0.112l-0.55,-0.244l-0.202,0.007l-0.23,-0.16l-0.077,-0.125l-0.223,-0.091l-0.313,0.049l-0.063,0.167l-0.077,0.007l-0.048,-0.042l-1.066,-0.118l-0.669,-0.132l-2.556,-1.619l-0.148,-0.195l-0.771,-0.613l-0.27,-0.046l-0.306,-0.167l-0.269,-0.242l-0.307,-0.12h-0.26l-0.102,-0.056l-0.214,-0.241l-0.343,-0.242l-0.344,-0.13l-0.956,-0.604l-1.235,-1.086h-0.261l-0.603,0.195h-0.139l-0.103,-0.084l-0.854,-0.483l-2.192,-1.43l-0.065,-0.362l-8.098,-5.293l-0.251,-0.372v-0.316l-0.037,-0.213l-0.158,-0.158l-0.009,-0.158l0.084,-0.232l-0.065,-0.641l-0.102,-0.149l-0.019,-0.223l0.056,-0.25l-0.028,-0.167l-0.249,-0.177l-0.09,-0.251l0.042,-0.118l-0.021,-0.216l-0.397,-0.39l-0.216,-0.077l-0.216,0.035l-0.16,-0.097l-0.126,-0.195l-0.292,-0.188l-0.119,-0.258l-0.076,-0.634l-0.077,-0.104l-0.188,-0.063l-0.146,-0.188l0.007,-0.495l-0.119,-0.243l-0.146,-0.14l-0.056,-0.202l0.07,-0.501l-0.028,-0.383l-0.083,-0.216l-0.14,-0.098l-0.062,-0.111l-0.028,-0.133l-0.077,-0.104l-0.132,-0.084l-0.105,-0.146l-0.028,-0.216l-0.167,-0.153l-0.32,-0.104l-0.091,-0.07l-0.014,-0.084l-0.118,-0.111l-0.313,-0.146l-0.084,-0.084l-0.028,-0.104l-0.111,-0.084l-0.286,-0.091l-0.195,-0.195l-0.383,-0.111l-0.153,-0.098l-0.383,-0.027l-0.154,-0.084l-0.111,-0.014l-0.216,0.091l-0.104,0.236l-0.028,0.432l-0.46,0.411h-0.627l-0.689,-0.334l-0.251,-0.223l-0.125,-0.049l-0.049,-0.195l-0.14,-0.104l-0.09,-0.007l-0.014,0.257l-0.07,0.035l-0.167,-0.146l-1.135,-0.111l-0.92,0.014l-0.654,0.278l-0.578,0.056l-0.174,-0.063l-0.223,-0.153l-0.251,-0.272l-0.244,-0.181l-0.843,-0.285l-0.445,-0.307l-0.23,-0.216l-0.272,-0.111l-0.097,-0.153l0.013,-0.216l0.147,-0.467l0.104,-0.23l0.202,-0.188l0.146,-0.035l0.056,-0.083l-0.007,-0.202l-0.174,-0.342l-0.432,-0.348l-0.25,-0.404l0.055,-0.125h0.119l0.069,-0.07l-0.041,-0.139l0.069,-0.139h0.105l0.055,0.076l0.168,0.042l0.09,-0.021l0.334,0.105l0.216,0.215l0.105,0.028l0.062,-0.042l0.119,0.049l0.07,0.126l0.097,-0.021l0.021,-0.105l0.125,-0.021l0.028,-0.09l-0.104,-0.056l-0.272,-0.299l-0.174,-0.098l-0.237,-0.007l-0.244,-0.125l-0.216,-0.272l-0.02,-0.132l-0.237,-0.126h-0.265l-0.188,-0.146l-0.007,-0.132l-0.049,-0.133l-0.111,-0.034l-0.216,0.118l-0.119,-0.063l-0.188,-0.306l0.049,-0.112l0.202,-0.007l0.307,0.168l0.111,-0.021l0.077,-0.147l0.055,-0.494l0.056,-0.125l-0.028,-0.14l-0.209,-0.146l-0.181,-0.021l-0.174,-0.104l0.021,-0.126l0.139,-0.083l0.265,0.041l0.118,-0.104l-0.007,-0.077l-0.097,-0.014l-0.056,-0.048l0.014,-0.105l-0.097,-0.153l-0.077,-0.007l-0.042,-0.063l0.016,-0.083l-0.13,-0.056l-0.078,0.051l-0.061,-0.032l-0.014,-0.116l-0.088,-0.107l-0.181,-0.07l-0.023,-0.102l0.032,-0.112l-0.079,-0.06l-0.269,-0.028l-0.139,0.107l-0.084,0.139l-0.135,0.102l-0.167,-0.009l-0.329,-0.195l-0.172,-0.009l-0.311,0.088h-0.135l-0.111,-0.037l-0.121,0.014l-0.061,0.051l-0.157,0.009l-0.112,-0.055l-0.116,-0.005l-0.121,0.042l-0.501,-0.01l-0.135,-0.139l-0.028,-0.13l-0.733,-0.32l-0.214,-0.228l-0.088,-0.19l0.056,-0.033l0.009,-0.083l-0.177,-0.2l-0.028,-0.088l-0.083,-0.037l-0.367,-0.488l-0.613,0.079l-0.111,-0.037l-0.251,-0.005l-0.311,-0.185l-0.26,-0.209l-0.005,-0.056l-0.223,-0.153l-0.195,-0.075l-0.664,-0.645l-0.158,-0.181l-0.459,-0.348l-0.307,-0.316l-0.06,0.023l0.032,0.316l0.14,0.13l-0.042,0.148l-0.139,0.014l-0.163,-0.051l-0.032,0.074l0.083,0.075l0.019,0.088l-0.065,0.348l-0.079,0.047l-0.116,-0.033l-0.251,-0.004l-0.232,0.046l-0.098,-0.028l-0.12,-0.005l-0.126,-0.06l-0.186,-0.023l-0.153,-0.107l-0.427,-0.107h-0.395l-0.083,0.061l-0.098,0.014l-0.395,0.32l-0.102,-0.014l-0.106,0.084l0.046,0.167l0.176,0.116l0.558,0.246l0.185,0.023l0.116,0.107l0.126,0.358l0.529,0.812l-0.018,0.13l0.069,0.116l0.107,0.005l0.515,0.339l0.061,0.135l-0.065,0.199l-0.07,0.037l-0.148,-0.083l-0.237,-0.042l-0.274,0.06l-0.042,-0.032l0.037,-0.372l-0.134,-0.473l-0.284,-0.344l-0.241,-0.135l-0.567,-0.116l-0.12,0.005l-0.089,0.056l-0.255,0.116l-0.065,-0.023l0.032,-0.344l-0.097,-0.037l-0.088,0.042l-0.302,-0.112l-0.033,-0.167h-0.065l-0.065,0.167l-0.12,0.051l-0.065,-0.023l-0.061,0.033l-0.023,0.102l-0.116,0.065l-0.06,0.325l-0.07,0.051l-0.125,-0.065l-0.209,0.056l-0.042,0.088l0.111,0.051l0.232,0.302l-0.032,0.367l-0.362,0.947l-0.098,0.023l-0.088,-0.098l-0.135,-0.032l-0.06,0.074l0.107,0.167l0.028,0.188l-0.054,0.019l-0.03,-0.079l-0.044,0.005l-0.026,0.088h-0.564l-0.299,0.091l-0.338,0.167l-0.703,-0.092l-0.925,-0.019l-0.629,0.093l-0.204,0.111l-1.054,1.628l-0.466,0.006l-0.229,0.07l-0.209,0.132l-0.14,0.251l-0.021,0.306l0.133,0.913l-0.014,0.264l-0.042,0.098l0.042,0.132l0.097,0.049l0.307,0.669l-0.028,0.39l0.097,0.257l-0.055,0.07v0.3l0.327,0.417l0.042,0.105l0.09,0.056l0.147,-0.007l0.111,-0.119h0.077l0.014,0.112l-0.077,0.146l-0.16,0.056l-0.251,0.014l-0.195,0.104l-0.021,0.084l0.091,0.139l-0.007,0.139l-0.07,0.147l-0.104,0.132l-0.133,0.014l-0.195,-0.07l-1.372,-0.265l-5.21,-0.295l-0.808,-0.046l-0.174,0.049l-0.195,0.153l-0.049,0.133l-0.111,0.02l-0.272,-0.118l-0.153,-0.007l-0.111,0.105l-0.432,-0.014l-0.209,0.09l-0.042,0.16l-0.07,-0.014l-0.028,-0.146l-0.118,-0.014l-0.063,-0.097l-0.09,0.014l-0.098,0.216l-0.209,0.007l-0.223,-0.098l-0.097,0.021l-0.063,-0.042l0.014,-0.09l-0.062,-0.049l-0.084,0.049l-0.111,-0.077l-0.014,-0.153l-0.147,-0.223l-0.181,-0.112l-0.16,-0.195l-0.132,-0.069l-0.307,-0.353l-0.659,-0.947l-0.334,-0.409l-0.326,-0.687l-0.473,-0.725l-0.26,-0.26l-0.084,-0.223l0.028,-0.38l-0.036,-0.152l-1.243,-1.207l-3.619,-2.505l-4.269,0.705l-3.842,1.318l-0.352,0.26l-3.192,2.586l0.154,0.148l0.26,0.08l0.179,0.13l0.013,0.087l0.099,0.062l0.148,0.018l0.13,0.155l0.062,0.346l-0.13,0.328l-0.136,0.378l0.012,0.111l0.167,0.161l0.273,0.074l0.427,0.347l0.241,0.253l0.247,0.341l0.242,0.494l0.08,0.273v0.222l0.056,0.235l0.13,0.211l0.049,0.328l-0.08,0.216l0.024,0.248l0.149,0.191l0.229,0.217l0.055,-0.012v-0.069l-0.074,-0.049l-0.012,-0.087l0.068,-0.198l-0.043,-0.099l-0.112,-0.068l-0.111,-0.327l-0.124,-0.817l-0.186,-0.489l-0.123,-0.291l0.025,-0.303l0.21,-0.847l0.173,-0.464l0.012,-0.371l-0.049,-0.124l0.006,-0.142l0.111,-0.099l-0.006,-0.056l-0.092,-0.037l-0.143,0.025l-0.105,0.123l-0.031,0.229l-0.093,0.105l-0.204,0.068l-0.198,-0.024l-0.13,-0.136l0.019,-0.112l0.111,-0.055l0.124,-0.211l-0.012,-0.111l-0.143,-0.167l-0.012,-0.204l0.062,-0.155l0.229,-0.155l0.179,-0.222l0.198,-0.347l0.421,-0.618l0.198,-0.359l0.266,-0.31l0.439,-0.259l0.241,-0.211l0.142,-0.192l0.328,-0.173h0.334l0.359,0.118l0.316,-0.025l0.507,-0.217l0.483,-0.055l0.464,-0.006l0.235,-0.068l0.68,-0.019l0.18,-0.037l0.173,0.006l0.08,0.068l0.173,0.031l0.229,-0.006l0.415,0.093l0.284,0.198l0.161,0.383l0.019,0.31l-0.044,0.16l-0.024,0.198l-0.087,0.242v0.173l0.105,0.105l0.124,0.068l0.08,0.099l-0.006,0.087l0.05,0.061l0.086,0.038l0.062,0.08v0.087l0.056,0.092l0.124,0.106l0.099,0.34l0.049,0.501l0.006,0.285l-0.043,0.204l0.012,0.235l0.087,0.266l0.254,0.315l0.142,0.13l0.049,0.192l0.075,0.093l0.167,0.031l0.173,0.13l0.928,0.81l0.223,0.118h0.092l0.056,-0.044l0.179,0.013l0.502,0.235l0.433,0.284l0.117,0.143v0.092l0.347,0.341l0.012,0.062l0.087,0.074l0.216,0.08l0.068,0.068l0.031,0.112l0.161,0.105l0.21,0.062l0.186,0.167l0.006,0.092l0.031,0.068l0.062,0.031l0.012,0.062l-0.062,0.087l0.019,0.068l0.155,0.136l0.092,0.031l0.019,0.068l-0.019,0.093h-0.062l-0.111,-0.093l-0.223,-0.105l-0.092,-0.074l-0.05,0.024l0.012,0.075l0.273,0.222l0.111,0.235l0.068,0.223l-0.018,0.124l-0.229,0.377l-0.143,0.149l-0.167,0.099l-0.309,0.29l-0.167,0.118l-0.149,0.062l-0.309,0.031l-0.235,0.068h-0.334l-0.179,-0.062l-0.211,-0.217l-0.321,-0.457l-0.106,-0.025l-0.049,0.043l-0.025,0.136l-0.068,0.105l-0.087,0.031l-0.012,0.068l0.118,0.18l0.235,0.155l0.049,0.098l-0.012,0.118l-0.13,0.068l-0.062,0.118l-0.148,0.043l-0.025,0.049l0.111,0.025l0.118,-0.062l0.093,-0.105l0.297,-0.117l0.439,-0.068h0.526l0.13,0.061l0.092,0.124l-0.024,0.074l-0.05,0.007l-0.056,-0.025l-0.092,0.006l-0.174,0.254l-0.179,0.142l-0.699,0.105l-0.712,0.05l-0.383,-0.013l-0.204,-0.049h-0.143l-0.099,0.08l-0.191,-0.012l-0.112,-0.068l-0.062,-0.18l0.025,-0.117l-0.08,-0.037l-0.186,0.055l-0.006,0.05l0.093,0.043l-0.006,0.093l-0.118,0.142l-0.148,0.068l-0.378,0.025l-0.148,-0.006l-0.062,-0.043l-0.056,0.006l-0.043,0.086l-0.149,0.093l-0.228,0.025l-0.13,0.068l-0.075,0.093l-0.185,0.024l-0.124,-0.03l-0.26,-0.007l-0.074,0.05l-0.167,-0.006l-0.136,-0.075l-0.081,-0.148l0.007,-0.204l0.062,-0.05l0.006,-0.055l-0.087,-0.075l-0.142,-0.259l-0.118,-0.372l-0.018,-0.191l-0.05,-0.155l-0.086,-0.081l-0.025,-0.197l0.037,-0.106l-0.025,-0.068l-0.154,-0.043l-0.044,0.049l0.056,0.069v0.111l-0.118,0.272l-0.049,0.056l-0.012,0.074l0.043,0.111l-0.043,0.161l-0.192,0.167l-0.198,0.062l-0.198,0.012l-0.118,0.069l-0.142,-0.007l-0.068,-0.099l-0.136,-0.024l-0.087,0.049l-0.093,-0.012l-0.055,-0.149l-0.112,-0.024l-0.111,0.068l-0.13,0.024l-0.068,-0.024l-0.08,0.018l-0.081,0.142l-0.216,0.068l-0.173,0.112l-0.341,0.031l-0.136,-0.037h-0.223l-0.148,0.062l-0.377,-0.031l-0.322,-0.099l-0.179,-0.229l-0.062,-0.235l0.018,-0.124l0.087,-0.062l0.074,-0.08l0.019,-0.106l0.092,-0.074l0.068,0.013l0.019,0.111l-0.031,0.216l-0.13,0.13v0.056l0.062,0.006l0.161,-0.08l0.056,-0.149l0.012,-0.235l-0.266,-0.804l-0.019,-0.278l-0.216,-0.322l-0.006,-0.291l-0.242,-0.278l-0.024,-0.099l-0.044,0.012l-0.037,0.155l0.006,0.08l0.081,0.081l0.006,0.105l0.13,0.278l-0.012,0.39l-0.223,0.433l-0.099,0.322l-0.093,0.161l-0.043,0.352l-0.124,0.279l-0.037,0.148l-0.068,0.043l-0.006,0.081l0.123,0.049l0.056,0.068l-0.025,0.18l-0.21,0.476l-0.445,0.606l-0.161,0.341l-0.037,0.315l-0.019,0.396l-0.118,0.384l-0.03,0.538l0.099,0.377l0.086,0.093l0.025,0.167l0.105,0.173l0.056,0.198l-0.031,0.254l-0.13,0.322v0.117l0.111,0.21l0.037,0.137l-0.012,0.123l0.056,0.093l0.204,0.037l0.117,0.142l0.075,0.18l0.167,0.093l0.105,0.018l0.124,0.112l0.111,0.241l0.037,0.185l0.118,0.093l0.092,0.031l0.044,-0.031l-0.087,-0.086l-0.105,-0.316l-0.087,-0.439l0.019,-0.192l0.111,-0.056l0.112,0.013l0.061,0.074l0.149,0.037l0.173,-0.105l0.297,-0.031l0.08,0.019l0.007,0.08l-0.037,0.043l0.018,0.05l0.105,0.006l0.087,-0.049l0.08,-0.007l0.087,0.031l0.08,-0.018l0.025,-0.087l0.142,-0.062l0.223,0.006l0.186,0.124l0.136,0.031l0.204,0.173l0.148,0.025l0.136,-0.062l0.217,-0.235l0.34,-0.254l0.155,-0.024l0.179,0.031l0.13,0.099l0.037,0.086l0.13,0.056l0.105,-0.05l0.093,0.007l0.068,0.037l0.093,-0.006l0.124,-0.081l0.216,-0.062l0.248,0.031l0.365,0.26l0.334,0.136l0.47,0.161l0.198,0.179l0.074,0.192l-0.111,0.062l-0.359,-0.148l-0.705,-0.211l-0.594,-0.037l-0.433,0.21l-0.384,0.396l-0.148,0.31l-0.161,0.21l-0.012,0.21l0.123,0.174l0.075,0.321l0.222,0.248l0.112,0.408l-0.037,0.247l0.148,0.359l0.285,0.186l-0.013,0.148l-0.334,0.273h-0.099l0.025,-0.149l0.148,-0.124l-0.049,-0.136l-0.322,-0.321l-0.42,-0.062l-0.792,0.136l-0.235,-0.013l-0.038,-0.136l0.335,-0.705l0.123,-0.148l0.149,-0.038l0.012,-0.099l-0.173,-0.061l-0.198,0.123l-0.21,0.557l-0.347,0.606l-0.495,0.644l-0.086,0.185l0.037,0.136l0.21,0.223l0.223,0.47l0.012,0.501l0.112,0.339l0.032,-0.018l-0.07,-0.339l0.075,-0.381l0.157,-0.204l0.038,-0.167l-0.121,-0.074l0.009,-0.093l0.251,-0.12l0.195,0.018l0.259,0.176l0.205,0.019l0.232,-0.084l0.204,0.028l0.13,0.121l0.117,-0.019l0.142,-0.105l0.056,0.019l-0.056,0.173l0.081,0.111l0.173,-0.037l0.248,-0.198h0.055l-0.006,0.118l-0.161,0.21l0.025,0.05l0.167,-0.118l0.049,0.031l-0.099,0.167l0.05,0.155l0.08,-0.006l0.124,-0.118l0.056,0.006l-0.037,0.112l-0.124,0.167l0.025,0.111l0.142,0.068l0.012,0.087l0.075,0.018l0.173,-0.105l0.049,0.012l-0.012,0.081l-0.13,0.136l-0.031,0.161l0.155,0.204l0.08,0.018l0.025,0.05l-0.031,0.235l0.049,0.08l0.056,-0.012l0.031,-0.216l-0.068,-0.18l0.037,-0.173l0.204,-0.21l0.025,-0.087l0.068,-0.019l0.05,0.056l-0.013,0.192l-0.093,0.216l0.033,0.039l0.111,-0.083l0.037,0.023l-0.023,0.079l0.014,0.083l-0.037,0.079l-0.102,0.028l-0.042,0.074l0.042,0.311h0.042l0.032,-0.074l0.051,0.009l0.065,0.213l0.098,0.144l0.032,-0.004l0.028,-0.154l-0.047,-0.134l0.028,-0.037l0.061,0.042l0.065,0.111l0.074,0.032l0.018,0.065l-0.037,0.093l0.033,0.047l0.074,-0.033l0.032,-0.144l0.051,-0.018l0.024,0.055l-0.037,0.107l0.037,0.084l0.065,0.014l0.06,-0.033l0.255,0.06l0.065,-0.037l0.042,0.023v0.14l-0.028,0.088l0.023,0.139l0.102,0.148l0.088,0.005l0.079,-0.083l0.042,0.004l0.046,-0.018l0.019,-0.056h0.046l0.061,0.074v0.112l0.074,0.046l0.144,-0.009l0.051,0.032l-0.042,0.158l0.009,0.121l0.07,0.088l0.005,0.051l-0.051,0.06l-0.038,0.121l-0.111,0.102l-0.088,0.023l-0.051,0.083l-0.028,0.172l-0.111,0.19l-0.037,0.121v0.176l-0.107,0.279l-0.098,0.134l-0.12,0.246l-0.088,0.13l-0.102,0.302l-0.112,0.505l-0.004,0.348l0.088,0.45l0.042,0.316l0.116,0.288l0.018,0.176l-0.037,0.984l-0.074,0.607l-0.172,0.715l-0.079,0.482l-0.023,0.441l-0.005,0.687l0.112,0.812l0.162,0.654l0.297,0.789l0.056,0.209l0.004,0.464l0.028,0.167l-0.014,0.046l-0.051,0.019l-0.014,0.06l0.075,0.264l0.009,0.154l0.032,0.088v0.037z"/>
</svg>
