<svg xmlns="http://www.w3.org/2000/svg" viewBox="1289.129 455.433 20.241 16.329">
  <path d="M1289.128532,466.358102l0.114,0.003l0.059,0.027l0.076,-0.003l0.084,-0.074l0.212,-0.034l0.042,-0.089l-0.003,-0.118l0.023,-0.077l0.069,-0.054l0.01,-0.079l0.078,-0.093l0.009,-0.052l0.04,-0.019l0.068,0.006l0.195,-0.083l0.099,-0.112l-0.009,-0.064l-0.037,-0.062l0.018,-0.078l0.071,-0.055l0.019,-0.121l0.049,-0.009l0.068,0.024l0.041,-0.024l0.012,-0.112l0.049,-0.083l0.038,0.009l0.006,0.059l0.08,0.056l0.099,0.006l0.04,-0.04l-0.012,-0.075l-0.074,-0.12l0.024,-0.065l0.044,-0.003l0.034,0.031l0.049,-0.007l0.081,-0.096l0.096,-0.021l0.108,0.021l0.056,-0.043l-0.075,-0.151l-0.136,-0.099l-0.009,-0.065l0.037,-0.034l0.071,0.003l0.09,-0.084l0.046,-0.123l-0.015,-0.065l-0.087,-0.041l-0.222,-0.272l-0.013,-0.117l0.047,-0.087l0.08,-0.059l0.022,-0.071l-0.037,-0.04l-0.118,0.012l-0.053,-0.025l0.007,-0.046l0.102,-0.043l0.031,-0.081l0.058,-0.031l0.007,-0.068l-0.133,-0.105l-0.05,-0.093l0.012,-0.077l0.078,-0.056l-0.003,-0.117l0.04,-0.084l0.009,-0.058l-0.052,-0.099v-0.106l0.077,-0.089l0.09,-0.006l0.061,0.049l0.093,0.012l0.217,-0.006l0.198,-0.185l0.173,-0.056l0.043,-0.043l-0.006,-0.065l0.028,-0.041l0.105,-0.034l0.053,-0.071l0.018,-0.099l0.053,-0.018l0.077,0.006l0.096,-0.037l0.056,-0.04l0.105,0.003l0.074,0.071l0.105,0.037l0.109,-0.009l0.154,-0.105l0.074,-0.198l0.022,-0.177l-0.025,-0.105v-0.093l-0.024,-0.08l-0.056,-0.025l-0.037,-0.071l0.006,-0.186l-0.022,-0.099l-0.052,-0.086l-0.006,-0.053l0.006,-0.108l-0.003,-0.09l-0.056,-0.077l-0.003,-0.09l0.022,-0.102v-0.056l-0.05,-0.061l0.003,-0.099l0.047,-0.087l-0.028,-0.241l-0.047,-0.031l-0.151,-0.006l-0.232,-0.084l-0.279,-0.247l-0.012,-0.053l0.043,-0.04l-0.015,-0.047l-0.133,-0.003l-0.102,-0.04l-0.071,-0.074h-0.059l-0.059,0.043l-0.152,-0.04l-0.17,-0.077l-0.052,-0.09l-0.081,-0.006l-0.031,-0.05l-0.147,-0.154l-0.01,-0.121l0.062,-0.21l0.219,-0.334l0.124,-0.025l0.94,-0.019l0.062,-0.049l0.142,-0.26l0.081,-0.056l0.006,-0.062l-0.062,-0.043l0.006,-0.056l0.075,-0.055l0.006,-0.062l-0.105,-0.099l0.012,-0.087l0.117,-0.154l0.192,-0.112l0.025,-0.086l0.074,-0.031l0.211,0.074l0.352,0.012l0.118,0.056h0.117l0.242,-0.21h0.068l0.129,0.086l0.155,0.037l0.056,-0.012l0.062,-0.08l0.105,-0.056l0.167,0.006l0.136,-0.025l0.049,-0.055l0.075,-0.025l0.13,0.019l0.16,-0.118l0.007,-0.13l0.062,-0.043h0.092l0.13,-0.155l-0.018,-0.136l0.049,-0.049h0.074l0.149,-0.093h0.087l0.315,0.093l0.05,0.086l0.068,0.012l0.074,-0.024l0.179,0.018l0.118,0.075l0.049,-0.031l-0.037,-0.087l0.05,-0.074l0.185,-0.161l0.254,0.031l0.352,0.173l0.038,0.093l0.061,0.043l0.099,0.006l0.112,0.099l0.161,0.322l0.179,0.124l0.099,0.136l0.303,0.161l0.118,-0.025l0.08,0.037l0.111,0.149l0.081,0.123l0.099,0.075l0.068,0.018l0.025,-0.043l-0.037,-0.062l0.024,-0.099l0.099,-0.031l0.087,-0.08l0.086,0.031l0.081,-0.062l-0.031,-0.056l0.056,-0.031l0.111,0.031l0.217,-0.062l0.099,-0.093h0.284l0.322,0.143l0.062,0.068l0.216,0.018l0.056,-0.043l-0.093,-0.142l0.006,-0.174l0.056,-0.037l0.099,0.037l0.068,-0.018l0.037,-0.068l0.142,0.025l0.155,0.167l0.08,0.012l0.099,-0.056l0.186,0.037l0.099,-0.055h0.074l0.068,0.062h0.093l0.13,-0.038l0.019,0.093l0.08,0.186l0.006,0.291l0.062,0.136v0.074l-0.062,0.018l-0.185,-0.068l-0.13,0.013l-0.118,0.216l0.012,0.26l0.155,0.353l0.229,0.247l0.031,0.081l-0.019,0.074l0.106,0.179l0.253,0.229l0.025,0.074l-0.062,0.075v0.123l0.161,0.242l0.136,0.086l0.043,0.075l-0.012,0.074l0.093,0.117l0.117,0.019l0.056,0.062l0.012,0.08l0.316,0.303l0.792,0.452l1.175,0.563l0.773,0.34l0.186,-0.012l0.068,0.037l0.025,0.062l0.161,0.086h0.117l0.068,0.031l0.013,0.068l0.105,0.062l0.074,-0.018l0.068,0.012l0.037,0.043l0.644,0.229l0.235,0.019l0.34,0.123l0.315,0.069l0.211,-0.062l0.161,0.012l0.179,0.111l0.012,0.121l-0.051,0.135l-0.148,0.148l-0.084,0.121l-0.167,0.102l-0.009,0.042l0.102,0.088l0.079,0.125l-0.009,0.079l-0.079,0.111l-0.014,0.13l-0.06,0.098l-0.047,0.134l-0.074,0.079l-0.195,0.107l-0.046,0.051l-0.074,0.032l-0.061,-0.018l-0.13,-0.119l-0.028,0.003l0.019,0.049l0.121,0.111l0.089,0.019l0.056,0.037l-0.003,0.047l-0.062,0.049h-0.111l-0.158,0.046l-0.334,0.183l-0.158,0.012l-0.09,0.028l-0.055,0.081l-0.087,0.027l-0.148,-0.037l-0.198,-0.13l-0.152,0.007l-0.074,0.043l-0.121,0.012l-0.105,-0.024l-0.121,0.006l-0.092,0.058l-0.201,0.019l-0.171,-0.006l-0.086,-0.05l-0.04,-0.114l0.012,-0.207l-0.087,-0.059l-0.123,0.015l-0.096,0.071l-0.043,0.109l-0.05,0.015l-0.152,-0.055l-0.256,-0.171l-0.393,-0.179l-0.303,-0.087l-0.189,-0.043h-0.158l-0.374,-0.074l-0.108,-0.034l-0.495,-0.013l-0.241,0.038l-0.038,0.037l-0.061,0.021l-0.13,0.003l-0.248,0.075l-0.34,0.17l-0.136,0.117l-0.031,0.078l-0.003,0.151l-0.053,0.059l-0.055,0.009l-0.034,0.041l0.021,0.037l-0.015,0.027l-0.133,0.013l-0.09,-0.056l-0.133,-0.003l-0.087,0.028l-0.176,-0.016l-0.124,-0.133l-0.157,-0.086l-0.353,-0.115l-0.176,-0.009l-0.313,0.071l-0.167,0.016l-0.578,0.133l-0.34,0.043l-0.18,0.071l-0.077,0.108l-0.164,0.344l-0.04,0.198l-0.025,0.253l-0.031,0.09l-0.384,0.297l-0.287,0.272l-0.081,0.096l-0.062,0.18l-0.04,0.061l-0.024,0.093l-0.081,0.118l-0.349,0.222l-0.041,0.065l-0.071,0.047l-0.086,0.018l-0.223,0.127l-0.059,0.09l-0.077,0.046l-0.248,0.099l-0.343,0.062l-0.127,0.006l-0.192,0.084l-0.207,0.201l-0.018,0.062l-0.053,0.024l-0.087,0.016l-0.349,0.124h-0.093l-0.133,0.055l-0.241,0.164l-0.297,0.121l-0.121,0.034l-0.272,0.09l-0.155,0.114l-0.04,0.05l-0.049,0.027l-0.059,0.004l-0.068,0.052l0.012,0.121l0.016,0.096l-0.062,0.046l-0.186,0.043l-0.114,0.084l-0.068,0.139l0.003,0.136l-0.056,0.096l-0.189,0.155l-0.034,0.08l-0.027,0.019l-0.047,0.003l-0.04,0.037l-0.034,0.059l-0.173,0.096l-0.09,0.006l-0.213,0.164l-0.075,0.133l-0.247,0.176l-0.074,0.022l-0.031,0.021l-0.019,0.056l-0.037,0.028l-0.189,0.052l-0.12,0.068l-0.071,-0.003l-0.028,0.031l0.009,0.105l0.133,0.27l-0.034,0.092l-0.158,0.09l-0.065,0.068l-0.065,0.096l-0.065,0.056l-0.04,0.009l-0.034,0.028l-0.037,0.062l-0.201,0.096l-0.241,0.089l-0.05,0.04l-0.021,0.056l-0.05,0.025l-0.071,-0.025l-0.062,0.013l-0.056,0.037l-0.071,0.009l-0.062,-0.034l-0.006,-0.071l0.062,-0.059l0.037,-0.096l0.047,-0.074l0.071,-0.053l0.037,-0.068l0.012,-0.086l0.164,-0.3l0.09,-0.112l0.13,-0.207l-0.003,-0.053l-0.019,-0.024v-0.031l0.068,-0.056l0.025,-0.099v-0.173l-0.081,-0.152l-0.21,-0.13l-0.003,-0.037l0.062,-0.096l-0.006,-0.068l-0.047,-0.043l-0.105,-0.003l-0.003,-0.025l0.111,-0.114l0.18,-0.099l0.139,-0.019l0.062,-0.031l0.077,-0.089l0.065,-0.031l0.05,0.015l0.052,-0.009l0.18,-0.13l0.024,-0.047l0.112,-0.077l0.062,-0.009l0.043,-0.031l0.009,-0.046l0.034,-0.019l0.062,-0.003l0.065,-0.047l0.096,-0.111l0.124,-0.074l0.204,-0.031l0.241,-0.114l0.121,-0.115l0.086,-0.046l0.041,0.003l0.049,-0.01l0.127,-0.105l0.275,-0.096l0.112,0.016l0.327,-0.022l0.087,-0.046l0.056,-0.142l0.111,-0.14l0.068,-0.012l0.056,0.043h0.111l0.164,-0.08l0.254,-0.217l0.015,-0.099l-0.096,-0.358l-0.083,-0.084l-0.118,-0.04l-0.158,0.009l-0.126,0.077l-0.075,0.019l-0.071,-0.012l-0.083,0.006l-0.062,0.04l-0.569,0.019l-0.161,0.058l-0.192,0.158l-0.083,0.022l-0.09,0.099l-0.043,0.006l-0.034,-0.022l-0.09,-0.003l-0.074,-0.028l-0.109,-0.074l-0.123,-0.04l-0.124,0.006l-0.065,0.037l-0.059,0.065l-0.093,0.009l-0.194,-0.061l-0.161,0.012l-0.143,0.083l-0.219,0.028l-0.409,-0.037l-0.281,-0.006l-0.26,0.059l-0.272,-0.031l-0.285,-0.186l-0.096,-0.12l-0.006,-0.075l0.031,-0.046l0.019,-0.173l-0.112,-0.368l-0.092,-0.084l-0.003,-0.034z"/>
</svg>
