<svg xmlns="http://www.w3.org/2000/svg" viewBox="1286.682 455.433 126.459 48.685">
  <path d="M1293.084735,477.374534l-0.097436,-0.037118l-0.046398,-0.106715l0.013919,-0.125275l-0.018559,-0.171673l-0.088156,-0.032479l0.018559,-0.041758l0.078877,-0.032479l0.129914,0.00928l0.041758,0.051038l0.051038,0.013919l0.060317,-0.027839l0.041758,0.013919l-0.00464,0.051038l-0.074237,0.032479l-0.125275,-0.027839l-0.051038,0.023199l0.023199,0.092796l0.060317,0.051038l0.069597,-0.018559l0.051038,0.013919l0.032479,0.106715l0.046398,0.018559l0.055678,-0.00928l0.051038,0.037118l-0.023199,0.055678l-0.143834,0.00464l-0.060317,0.037118l-0.092796,0.018559Z M1340.15396,501.354567l0.074237,-0.055678v-0.074237l-0.043305,-0.012373l-0.061864,0.037118l-0.018559,0.080423l0.049491,0.024746Z M1314.164893,501.475202l0.003093,-0.027839l0.216524,-0.114448l0.108262,-0.00928l0.08661,-0.061864l0.024746,0.012373l-0.089703,0.114448l-0.080423,0.046398l-0.080423,-0.006186l-0.117542,0.043305l-0.071144,0.003093Z M1313.546253,501.707192l0.034025,-0.00928l0.043305,0.030932l-0.018559,0.030932l-0.046398,0.015466l-0.040212,0.034025l-0.030932,-0.003093l0.00928,-0.046398l0.049491,-0.052584Z M1312.909054,501.731938l0.027839,-0.015466l0.024746,0.003093l0.006186,0.027839l-0.024746,0.00928l-0.027839,0.003093l-0.006186,-0.027839Z M1311.54012,501.100732l0.019719,0.00986l-0.007395,0.024649l-0.034509,0.024649l-0.019719,-0.00986l0.007395,-0.034509l0.034509,-0.014789Z M1310.894318,501.169749l-0.012324,-0.019719l0.078877,-0.054228l0.051763,-0.00493l0.00493,0.017254l-0.073947,0.049298l-0.049298,0.012324Z M1307.919722,497.747896l-0.043305,-0.034025l0.00928,-0.024746l0.061864,0.00928l0.040212,0.046398v0.049491l-0.037118,0.003093l-0.030932,-0.049491Z M1308.077476,497.791201h-0.030932l-0.024746,-0.06805l0.006186,-0.07733l0.049491,-0.027839l0.083516,0.015466l0.006186,0.027839l-0.021652,0.043305l-0.037118,0.030932l-0.030932,0.055678Z M1308.179551,497.206586l0.037118,-0.006186l0.040212,0.040212l-0.006186,0.030932l-0.034025,0.040212h-0.027839l-0.021652,-0.040212l0.012373,-0.064957Z M1308.086755,497.475695l0.027839,-0.018559l0.027839,0.015466l-0.00928,0.024746l-0.021652,0.012373l-0.024746,-0.00928v-0.024746Z M1308.863148,497.803574l-0.003093,-0.043305l0.034025,-0.024746l0.037118,0.00928l0.015466,0.030932l-0.021652,0.030932l-0.030932,0.012373l-0.030932,-0.015466Z M1308.634252,497.518999l-0.006186,-0.034025l0.024746,-0.012373l0.027839,0.012373l0.006186,0.021652l-0.024746,0.021652l-0.027839,-0.00928Z M1304.857454,496.915825l0.012373,-0.037118l0.034025,-0.015466l0.024746,0.015466v0.027839l-0.037118,0.024746l-0.034025,-0.015466Z M1303.80886,496.730233l-0.030932,-0.06805l0.021652,-0.046398l0.126821,-0.058771l0.071144,0.015466l0.027839,0.040212v0.07733l0.034025,0.021652l-0.003093,0.021652h-0.095889l-0.089703,0.012373l-0.061864,-0.015466Z M1302.317937,497.231332l0.024746,-0.040212l0.052584,-0.012373l0.030932,0.021652l-0.015466,0.034025l-0.07733,0.030932l-0.015466,-0.034025Z M1302.085947,497.321035l0.040212,-0.052584l0.074237,-0.006186l0.027839,0.021652l-0.052584,0.055678l-0.080423,0.015466l-0.00928,-0.034025Z M1302.225141,497.716964l0.027839,-0.012373l0.061864,0.071144l-0.006186,0.040212l-0.043305,0.003093l-0.049491,-0.040212l0.00928,-0.061864Z M1302.420013,497.846879l0.030932,0.018559l-0.027839,0.049491l-0.037118,0.015466l-0.021652,-0.018559l0.012373,-0.040212l0.043305,-0.024746Z M1299.329906,495.3352l0.037118,0.051038l-0.013919,0.032479l-0.032479,-0.00464l-0.023199,-0.041758v-0.037118h0.032479Z M1297.910127,495.233125l0.013919,-0.046398h0.032479l0.013919,0.041758l-0.027839,0.032479l-0.032479,-0.027839Z M1298.230273,495.251684l0.018559,-0.032479l0.111355,0.018559l0.278388,0.148474l0.013919,0.064957l-0.069597,0.027839l-0.213431,-0.083516l-0.041758,-0.083516l-0.097436,-0.060317Z M1308.901813,464.944509l0.027839,-0.037118h0.051038l0.018559,0.032479l-0.013919,0.041758l-0.051038,0.00464l-0.032479,-0.041758Z M1308.999249,465.176499l0.023199,-0.046398h0.060317l0.013919,0.037118l-0.018559,0.037118h-0.041758l-0.037118,-0.027839Z M1309.157002,465.255376l0.023199,-0.051038l0.069597,-0.046398l0.037118,0.00464l0.00928,0.051038l-0.051038,0.060317l-0.046398,0.00464l-0.041758,-0.023199Z M1309.398272,465.515205l-0.018559,-0.129914l0.041758,-0.125275l0.069597,-0.041758l0.037118,0.00928l0.00464,0.060317l-0.046398,0.055678l-0.00928,0.106715l-0.032479,0.069597l-0.046398,-0.00464Z M1309.587924,465.38442l-0.002465,0.027114l-0.017254,0.00986l-0.022184,-0.007395l-0.00493,-0.027114l0.024649,-0.00986l0.022184,0.007395Z M1305.51012,467.879956l0.012373,-0.111355l-0.012373,-0.061864l0.037118,-0.049491l0.142287,0.006186l0.006186,0.043305l-0.080423,0.061864l-0.006186,0.08661l0.012373,0.148474l-0.061864,0.074237l-0.055678,-0.006186l-0.030932,-0.092796l0.037118,-0.098982Z M1302.466411,468.510969l0.018559,-0.030932l0.041758,-0.00464l0.051038,0.041758l-0.013919,0.032479l-0.060317,-0.00464l-0.037118,-0.034025Z M1298.935523,467.157694l0.037118,-0.120635l0.083516,-0.037118l0.074237,0.032479l0.092796,-0.00928l0.060317,-0.060317l0.245909,-0.027839l0.074237,-0.051038l0.060317,0.00464l0.027839,0.037118l0.037118,0.00464l0.037118,-0.027839l0.115995,0.018559l0.046398,0.064957l0.046398,0.00928l0.083516,-0.013919l0.24127,0.069597l0.055678,0.088156l-0.027839,0.055678l-0.357265,0.171673h-0.074237l-0.041758,0.023199l-0.051038,0.088156l-0.245909,0.102076l-0.092796,0.00464l-0.064957,-0.032479l-0.171673,-0.00464l-0.180952,-0.078877l-0.060317,-0.064957l-0.018559,-0.074237l0.027839,-0.055678l-0.018559,-0.060317l-0.041758,-0.055678Z M1298.712812,468.067095l0.120635,-0.148474l0.078877,-0.00928l0.120635,0.069597l0.013919,0.069597l-0.078877,0.078877l-0.013919,0.055678l0.023199,0.055678l-0.018559,0.055678l-0.213431,0.106715l-0.055678,-0.00928l-0.00464,-0.074237l-0.046398,-0.046398l0.00464,-0.055678l0.051038,-0.064957l0.018559,-0.083516Z M1299.311347,468.336203l0.046398,-0.023199l0.069597,0.027839l0.032479,-0.018559l-0.023199,-0.167033l0.064957,-0.046398l0.055678,0.018559l0.013919,0.060317l0.032479,0.023199l0.111355,0.00928l0.041758,0.032479l-0.013919,0.051038l-0.078877,0.041758l-0.013919,0.074237l0.092796,0.115995l0.037118,0.00464l0.027839,-0.069597h0.041758l0.00928,0.041758l-0.027839,0.088156l-0.041758,0.00464l-0.026389,-0.031319l-0.039438,-0.00986l-0.128174,-0.061622l-0.071482,-0.00493l-0.051763,0.022184l-0.12078,-0.017254l-0.064087,-0.022184l-0.014789,-0.049298l0.039003,-0.094826Z M1299.23537,468.17961l0.027114,-0.113385l0.032044,-0.024649l0.032044,0.00986l-0.012324,0.044368l0.017254,0.044368l-0.00493,0.046833l-0.029579,0.024649l-0.041903,-0.00493l-0.019719,-0.027114Z M1298.707883,467.760578l0.029579,0.014789l-0.00493,0.024649l-0.101061,0.027114l-0.041903,0.039438l-0.034509,-0.012324l0.002465,-0.036973l0.017254,-0.024649l0.133104,-0.032044Z M1298.648725,467.085197l0.002465,-0.027114l0.029579,-0.036973h0.022184l0.002465,0.032044l-0.007395,0.029579l-0.027114,0.012324l-0.022184,-0.00986Z M1289.273912,472.587807l0.030932,-0.015466l0.040212,0.015466l0.018559,0.024746l-0.018559,0.024746l-0.046398,-0.00928l-0.024746,-0.040212Z M1288.655272,473.410598l0.030932,-0.034025l0.256736,-0.043305l0.3186,-0.012373l0.133008,0.080423l0.021652,0.061864l-0.034025,0.055678l0.00928,0.058771l0.037118,0.052584l-0.00928,0.064957l-0.120635,0.058771l-0.061864,-0.003093l-0.049491,-0.055678l-0.275295,-0.123728l-0.021652,-0.049491l-0.040212,-0.012373l-0.046398,0.015466l-0.105169,-0.043305l-0.043305,-0.071144Z M1292.735203,477.676121l0.034025,-0.049491v-0.040212l0.021652,-0.030932h0.027839l0.006186,0.092796l-0.018559,0.040212l-0.095889,0.052584l-0.018559,-0.015466l0.043305,-0.049491Z M1292.367112,477.332776l0.027839,-0.012373l0.046398,0.024746v0.024746l-0.034025,0.00928l-0.043305,-0.018559l0.003093,-0.027839Z M1292.827999,476.825491l-0.030932,0.06805v0.083516l-0.021652,0.012373l-0.06805,-0.046398l-0.024746,-0.06805l0.027839,-0.021652l0.027839,0.012373l0.024746,-0.018559l0.012373,-0.030932l0.030932,-0.012373l0.021652,0.021652Z M1292.803254,477.168836l0.040212,0.027839l-0.012373,0.024746l-0.055678,0.003093l-0.027839,-0.024746l0.006186,-0.024746l0.049491,-0.006186Z M1292.831092,477.277098l0.015466,-0.030932l0.024746,-0.003093l0.021652,0.021652l-0.003093,0.024746l-0.034025,0.003093l-0.024746,-0.015466Z M1293.42315,477.186332h0.034509l0.016819,0.010343l-0.018559,0.021652l-0.040163,0.000048l-0.009328,-0.015514l0.016723,-0.016529Z M1293.502317,476.927567l0.021652,-0.015466h0.021652l0.006186,0.034025l-0.021652,0.037118l-0.024746,-0.003093l-0.003093,-0.052584Z M1294.277163,480.460001l0.032479,0.013919v0.060317l-0.037118,0.023199l-0.046398,-0.013919l0.00928,-0.051038l0.041758,-0.032479Z M1294.648347,481.035336l0.027839,-0.032479l0.032479,-0.00928l0.032479,0.023199l-0.013919,0.037118l-0.046398,0.013919l-0.032479,-0.032479Z M1293.567274,482.25715l-0.027839,-0.043305l0.021652,-0.012373l0.052584,0.030932l0.030932,0.049491l-0.021652,0.010826l-0.055678,-0.035572Z M1293.879687,484.196587l0.00928,-0.074237l0.046398,-0.018559l0.049491,0.00928l0.00928,0.040212l-0.030932,0.052584l-0.043305,0.00928l-0.040212,-0.018559Z M1293.449732,483.791377l0.018559,-0.170126l0.052584,-0.092796l0.012373,-0.089703l0.046398,-0.006186l0.07733,0.052584l0.021652,0.07733l-0.00928,0.095889l0.027839,0.105169l0.095889,0.080423l0.012373,0.102076l-0.024746,0.08661l-0.052584,0.018559l-0.061864,-0.043305l-0.021652,-0.061864l-0.089703,-0.046398l-0.06805,-0.015466l-0.037118,-0.092796Z M1294.12405,484.372899l0.012373,0.034025l-0.018559,0.021652l-0.021652,-0.003093l-0.006186,-0.021652l0.00928,-0.024746l0.024746,-0.006186Z M1294.034347,484.515186l0.012373,-0.021652l0.027839,-0.00928l0.021652,0.012373l-0.00928,0.024746l-0.027839,0.00928l-0.024746,-0.015466Z M1294.025068,484.706965l0.018559,-0.034025l0.030932,-0.012373l0.021652,0.015466l-0.012373,0.024746l-0.037118,0.021652l-0.021652,-0.015466Z M1291.940251,484.527559l0.003093,0.040212l-0.021652,0.012373l-0.024746,-0.034025v-0.040212l0.024746,-0.006186l0.018559,0.027839Z M1291.838175,484.73171l0.024746,0.012373l-0.00928,0.043305l-0.021652,0.00928l-0.024746,-0.015466v-0.030932l0.030932,-0.018559Z M1291.352543,484.314128l0.021652,-0.030932l0.037118,-0.015466l0.040212,0.018559v0.040212l-0.024746,0.015466h-0.049491l-0.024746,-0.027839Z M1291.290485,484.256952l0.00493,-0.022184l0.027114,-0.019719l0.029579,-0.002465l0.002465,0.022184l-0.036973,0.027114l-0.027114,-0.00493Z M1291.038438,484.225827l0.024649,-0.049298l0.138034,-0.091201h0.044368l0.024649,0.041903l-0.032044,0.140499l-0.034509,0.019719l-0.091201,0.014789l-0.054228,-0.012324l-0.019719,-0.064087Z M1286.681811,471.062859l0.034025,-0.108262l0.411396,-0.324786l0.426862,-0.182499l0.24127,0.006186l0.16394,-0.046398l0.293854,-0.142287l0.281481,-0.024746l0.027839,0.024746l0.003093,0.043305l0.040212,0.049491l0.058771,0.006186l0.055678,0.043305l-0.006186,0.228897l-0.049491,0.170126l0.018559,0.136101l0.07733,0.030932l0.102076,-0.071144l0.105169,-0.021652l0.024746,0.037118l-0.061864,0.07733l-0.102076,0.07733l-0.133008,0.030932l-0.06805,0.030932l-0.188685,-0.006186l-0.4547,0.126821l-0.080423,0.049491l-0.136101,0.012373l-0.108262,-0.018559l-0.089703,0.012373l-0.037118,0.034025l-0.058771,0.003093l-0.080423,-0.015466l-0.102076,0.003093l-0.095889,0.058771l-0.07733,-0.015466l-0.058771,-0.102076l-0.173219,-0.098982l-0.167033,-0.034025l-0.037118,-0.080423Z M1296.886278,495.115583l-0.040212,0.071144l-0.034025,0.012373l-0.015466,-0.021652l0.040212,-0.064957l0.030932,-0.018559l0.018559,0.021652Z M1296.83988,494.478384l-0.024746,0.027839l-0.040212,0.006186l-0.003093,-0.024746l0.027839,-0.034025l0.030932,-0.003093l0.00928,0.027839Z  M1354.344016,503.24142l0.046,0.051h0.065l0.075,-0.046l0.111,-0.009l0.07,-0.061l0.134,-0.018l0.079,0.014l0.051,0.088l-0.005,0.07l-0.065,0.083l-0.027,0.135l0.037,0.051l0.125,-0.024l0.176,0.033l0.093,0.07l0.07,0.013l0.055,-0.027l0.149,0.032l0.172,0.172l0.051,0.162l0.055,0.088h0.056l0.046,-0.037l0.07,-0.371l-0.014,-0.144l0.023,-0.079v-0.148l0.084,-0.19l0.097,-0.079l0.297,-0.074l0.107,0.009l0.083,0.069l0.061,-0.004l0.055,-0.056l0.019,-0.07l-0.084,-0.129l0.014,-0.13l0.037,-0.047l0.079,-0.004l0.223,0.134l0.088,-0.009l0.139,-0.111l0.056,-0.195l0.032,-0.051l0.005,-0.07l-0.037,-0.051l-0.005,-0.079l0.065,-0.06l0.005,-0.079l-0.084,-0.125l-0.004,-0.153l0.051,-0.107l0.004,-0.093l-0.111,-0.116l0.028,-0.111l0.144,-0.061l0.023,-0.065l-0.06,-0.092v-0.079l0.065,-0.033l0.19,0.112l0.172,0.023l0.06,0.046l0.065,-0.009l0.037,-0.088l0.107,-0.093l0.074,-0.111l0.185,-0.014l0.126,0.116l0.046,-0.005l0.014,-0.042l0.06,-0.009l0.302,0.116l0.065,-0.005l0.023,-0.065l-0.014,-0.051l0.023,-0.032l0.205,0.069l0.134,-0.037l0.093,-0.088l0.009,-0.074l-0.079,-0.139l0.005,-0.051l0.051,-0.075l-0.019,-0.046l-0.176,-0.014l-0.046,-0.042l0.004,-0.074l0.028,-0.097l-0.055,-0.079l-0.191,-0.009l-0.106,0.06l-0.051,-0.028l0.013,-0.102l0.075,-0.042l0.004,-0.055l-0.055,-0.014l-0.042,-0.065l0.037,-0.084l-0.028,-0.069l-0.116,-0.019l-0.032,-0.148l-0.075,-0.056l-0.069,-0.181l0.009,-0.116l-0.074,-0.218l0.009,-0.121l0.167,-0.153l0.084,-0.325l0.018,-0.148l-0.069,-0.112l-0.033,-0.338l0.019,-0.07l0.079,-0.032l0.13,-0.126l0.051,-0.102l0.074,-0.079l0.014,-0.125l-0.07,-0.046l-0.032,-0.112l0.023,-0.065l0.139,-0.162l0.033,-0.097l0.051,-0.042l0.083,-0.042l0.047,-0.088l-0.014,-0.088l-0.038,-0.06l0.038,-0.024l0.111,0.033h0.176l0.102,0.042l0.153,0.004l0.232,0.158l0.093,0.032l0.181,0.005l0.385,0.116h0.116l0.084,-0.042l0.06,0.005l0.051,0.046l0.107,0.01l0.176,0.092l0.121,0.014l0.023,0.056l-0.032,0.084l0.032,0.037l0.102,0.018l0.181,0.014l0.07,0.065l-0.042,0.139l-0.065,0.061l-0.088,0.023l-0.028,0.074l0.019,0.135l0.055,0.032h0.065l0.098,0.046l0.06,0.093l0.107,0.051l0.078,-0.004l0.061,-0.07l0.032,-0.158l0.065,-0.018l0.061,0.032h0.037l0.069,-0.046l0.056,0.004l0.088,0.103l0.06,0.004l0.251,-0.107h0.107l0.352,0.056l0.056,-0.032l0.501,0.116l0.292,0.083h0.093l0.084,0.028l0.074,0.056h0.158l0.079,-0.047l0.069,-0.097v-0.112l0.056,-0.064l0.807,-0.362l0.218,-0.172l0.079,-0.019l0.088,0.042l0.07,-0.018l0.065,-0.079l0.074,-0.01l0.13,0.042l0.32,0.019l0.065,-0.023l0.07,-0.075l0.074,-0.037l0.116,-0.014l0.315,-0.144l0.13,-0.013l0.075,-0.028l0.185,-0.163l0.088,-0.041l0.121,-0.005l0.213,-0.06l0.158,-0.005l0.06,-0.065l0.005,-0.102l0.051,-0.06l0.098,-0.042l0.083,0.004l0.06,-0.023l0.019,-0.051l0.065,-0.023l0.083,0.005l0.079,-0.028l0.107,-0.084l0.056,-0.018l0.065,0.004l0.083,-0.027l0.06,-0.075l0.061,-0.018l0.176,0.014l0.088,-0.019l0.116,-0.088l0.079,-0.009l0.116,0.055l0.367,0.098l0.162,0.018l0.19,-0.018l0.144,0.014l0.854,0.338l0.213,0.112l0.056,0.107l0.065,0.023l0.079,-0.01l0.042,0.024l0.013,0.12l0.228,0.167l0.264,0.242l0.399,0.306l0.135,0.046l1.062,0.028l0.729,-0.07l0.301,0.042l0.446,0.153l0.459,0.116l0.091,-0.001l1.027,-0.18l0.78,-0.055l0.677,-0.163l0.334,-0.018l0.404,-0.172l0.116,-0.023l0.626,-0.047l0.167,-0.06l0.14,-0.097l0.431,-0.144l0.464,-0.195l0.181,-0.023l0.111,-0.051l0.177,-0.139l0.301,-0.13l0.348,-0.037l0.158,-0.056l0.2,-0.167l0.167,-0.093l0.273,-0.121l0.348,-0.199l0.126,-0.047l0.116,-0.083l0.041,-0.111l0.107,-0.149l0.135,-0.06l0.672,-0.074l0.116,-0.042l0.307,-0.204l0.069,-0.033l0.13,0.005l0.079,-0.033l0.473,-0.287l0.237,-0.051l0.107,0.014l0.046,-0.019l0.042,-0.102l0.037,-0.014l0.069,0.036l0.099,0.006l0.038,-0.044h0.061l0.038,0.093l0.068,0.031l0.08,-0.018l0.068,-0.106l0.198,-0.049l0.303,0.006l0.384,0.112l0.167,-0.007l0.674,0.161l0.186,-0.006l0.161,0.019l0.315,0.16l0.111,0.013l0.18,-0.062h0.563l0.142,0.031l0.074,-0.037l0.891,0.012l0.118,-0.043l0.154,-0.019l0.279,-0.142l0.13,-0.031l0.123,-0.006l0.068,-0.043l0.149,-0.019l0.26,0.012l0.563,-0.092l0.266,-0.087l0.154,-0.012l0.477,-0.13l0.173,0.012l0.111,-0.031l0.143,-0.13l0.136,-0.037l0.161,0.006l0.352,-0.216l0.081,-0.124l0.544,-0.483l0.074,-0.142l0.087,-0.068l0.08,0.012l0.006,0.062l-0.061,0.099l0.006,0.093l0.074,0.037l0.13,-0.031l0.142,0.037l0.099,-0.049l0.056,0.012l0.031,0.105l0.321,0.248l0.013,0.099l0.012,0.08l-0.062,0.025l-0.099,0.155l0.007,0.167l0.16,0.253l0.019,0.112l-0.012,0.093l0.043,0.043l0.08,-0.105l0.081,-0.031l0.13,0.055l0.105,-0.03l0.049,-0.081l0.31,-0.099l0.142,0.025l0.117,-0.013l0.05,-0.055l0.241,-0.025l0.161,0.037l0.043,-0.043l-0.012,-0.087l0.093,-0.161l0.136,-0.173l-0.006,-0.068l0.043,-0.056l0.08,-0.018l0.124,-0.173l0.019,-0.136l0.08,-0.075l0.081,0.013l0.055,-0.037v-0.056l0.05,-0.062l-0.044,-0.105l0.044,-0.05h0.148l0.105,-0.068l0.025,-0.123l0.056,-0.081l0.093,-0.031l0.142,-0.185l0.142,-0.05l0.161,0.081l0.006,0.136l0.093,0.055h0.074l0.31,0.124l0.29,0.068l0.149,0.019l0.068,-0.068l0.154,-0.013l0.099,-0.068l0.05,-0.086l0.068,-0.044l0.167,-0.012l0.111,-0.068h0.378l0.185,0.037l0.217,0.025l0.136,0.08l0.142,-0.012l0.204,0.136l0.044,0.099l0.179,0.093l0.118,-0.006l0.018,-0.075l0.093,-0.08l0.192,0.006l0.08,0.124l0.26,0.173l0.39,0.148l0.037,0.118l0.241,0.087l0.081,-0.05l0.235,-0.037l0.123,0.031l0.007,0.08l0.08,0.025l0.087,-0.031l0.074,0.019l0.049,0.123l0.106,0.007l0.061,-0.037l0.143,-0.013l0.123,-0.068h0.359l0.31,0.05l0.142,0.055l0.117,0.192l0.05,-0.006l0.025,-0.13l0.068,-0.074l0.154,-0.013l0.124,0.037l0.186,-0.037l0.21,-0.34l0.006,-0.124l0.081,-0.068l0.13,-0.024l0.068,-0.068l0.08,-0.13l0.13,-0.038l0.185,0.031l0.099,0.062l0.168,0.013l0.111,-0.044l0.13,0.013l0.489,0.266l0.148,0.012l0.099,0.111l0.006,0.112l0.056,0.049l0.099,0.044l0.006,0.179l-0.037,0.068l0.031,0.087l0.086,0.074l-0.074,0.179l-0.142,0.05l-0.093,-0.037l-0.099,0.043l-0.223,0.384l0.031,0.198l0.248,0.197l0.018,0.106l-0.068,0.08l0.056,0.124l0.074,0.025l0.081,0.08v0.105l0.105,0.056l0.124,0.018l0.117,0.112l0.043,-0.037l-0.024,-0.056l0.031,-0.056l0.086,-0.018l0.05,-0.05l0.006,-0.062l0.179,-0.191l0.013,-0.062l-0.05,-0.087l0.031,-0.074l0.149,-0.043l0.105,0.037l0.13,-0.007l0.16,-0.123l0.149,-0.037l0.334,-0.192l0.025,-0.105l0.074,-0.068l0.111,0.006l0.056,-0.031l-0.006,-0.13l0.155,-0.161l0.129,-0.031l0.192,-0.148l0.142,0.006l0.149,0.111l0.08,0.006l0.05,-0.03l0.155,0.012l0.191,0.056l0.099,-0.007l0.075,0.031l0.006,0.075l0.08,0.074l0.043,-0.068l-0.03,-0.155l-0.099,-0.08l-0.069,-0.372l0.143,-0.167l0.105,-0.006l0.087,-0.117l0.018,-0.124l-0.068,-0.155l-0.21,-0.179l-0.118,-0.006l-0.173,-0.149l-0.012,-0.142l-0.075,-0.08l-0.167,-0.05l-0.148,0.031l-0.062,-0.056l-0.025,-0.105l-0.105,-0.105l-0.012,-0.099l-0.081,-0.062l-0.111,0.013l-0.13,-0.05l-0.025,-0.087l0.037,-0.16l0.112,-0.056v-0.081l-0.093,-0.068v-0.08l0.087,-0.037l0.061,-0.198l-0.061,-0.068l0.006,-0.068l0.055,-0.019v-0.074l-0.061,-0.037l-0.007,-0.081l0.05,-0.086l-0.013,-0.093l-0.117,-0.08l-0.124,-0.167l0.025,-0.161l0.328,-0.285v-0.154l-0.173,-0.198l-0.031,-0.106l-0.081,-0.049h-0.062l-0.049,-0.019l-0.05,-0.074l-0.191,-0.043l-0.087,0.062l-0.235,0.031l-0.056,0.055l-0.142,-0.031l-0.031,-0.074l0.062,-0.179l-0.056,-0.025l-0.093,0.037l-0.086,-0.025l-0.025,-0.086l-0.068,-0.037l-0.068,-0.013l-0.025,-0.055l0.081,-0.099v-0.062l-0.056,-0.093l-0.118,-0.031l-0.092,0.019l-0.347,-0.149l-0.049,0.037l0.043,0.068l-0.062,0.025l-0.056,-0.05l-0.08,-0.006l-0.068,0.025l-0.229,-0.043l-0.13,-0.112l-0.012,-0.08l0.062,-0.21l0.062,-0.037l0.024,-0.112l-0.062,-0.105l0.038,-0.074l0.068,-0.068l0.167,-0.328l0.092,-0.043l0.062,-0.099l0.013,-0.118l0.074,-0.148l0.068,-0.044l0.062,-0.13l0.124,-0.031l0.061,-0.08l-0.086,-0.155l0.055,-0.068l0.081,0.006l0.099,-0.061l0.068,-0.378l0.068,-0.08l-0.006,-0.118l-0.056,-0.136l0.05,-0.111l0.457,-0.359l0.106,-0.019l0.061,-0.08l-0.049,-0.08l0.037,-0.056l0.056,-0.019l0.012,-0.074l-0.136,-0.099l-0.099,0.006l-0.08,-0.049l-0.025,-0.118l-0.087,-0.049l-0.365,0.179h-0.099l-0.062,-0.105l-0.074,-0.025l-0.13,0.062l-0.136,-0.031l-0.062,-0.099l0.006,-0.086l0.087,-0.068l-0.006,-0.161l-0.099,-0.081l-0.006,-0.074l0.055,-0.049l0.025,-0.198l0.074,-0.05v-0.161l-0.074,-0.068l-0.018,-0.179l0.018,-0.223l0.068,-0.049l0.013,-0.087l-0.056,-0.08l0.006,-0.198l-0.093,-0.075l-0.222,-0.086v-0.068l0.055,-0.044v-0.136l-0.117,-0.247l0.006,-0.099l0.136,-0.112l0.043,-0.21l-0.006,-0.117l0.074,-0.161l0.075,-0.031l0.018,-0.068l-0.105,-0.118v-0.093l-0.13,-0.092l-0.105,0.037l-0.105,-0.062l-0.006,-0.099l-0.075,-0.087l-0.111,-0.024l-0.05,-0.099l0.062,-0.075l-0.018,-0.092l-0.112,-0.05l-0.049,-0.093l0.056,-0.062l-0.019,-0.061l-0.068,-0.025l-0.025,-0.087l0.056,-0.056l-0.012,-0.068l-0.099,-0.055l-0.019,-0.068l0.056,-0.099l0.185,-0.037v-0.087l-0.086,-0.087l0.012,-0.086l0.043,-0.037l-0.006,-0.068l-0.068,-0.062l0.012,-0.105l0.168,-0.044l0.012,-0.099l-0.074,-0.13v-0.099l-0.155,-0.253l-0.223,-0.149l-0.148,-0.012l-0.161,-0.093l-0.062,-0.148l0.068,-0.161l-0.043,-0.062l-0.074,-0.012l-0.038,-0.062l0.149,-0.211l-0.043,-0.074l-0.112,-0.018l-0.043,-0.118l0.056,-0.099l-0.062,-0.118l-0.229,-0.21l-0.037,-0.099l0.049,-0.056h0.062l0.05,-0.037l-0.044,-0.111l0.062,-0.08h0.229l0.124,0.068l0.117,0.018l0.007,0.081h0.043l0.074,-0.075l0.186,-0.006l0.142,-0.117l0.173,0.018l0.081,0.099l0.068,0.044l0.08,-0.019l0.081,0.043l0.08,0.112l0.087,0.018l0.105,-0.099l0.272,-0.062l0.13,-0.092l0.303,-0.05l0.062,-0.161l-0.025,-0.111l-0.111,-0.149l-0.006,-0.092l0.16,-0.18l-0.006,-0.148l-0.074,-0.087v-0.241l0.148,-0.099l0.223,-0.254l0.062,-0.235l-0.031,-0.223l-0.099,-0.117l0.953,-0.767l0.105,0.142l0.006,0.142l0.149,0.149l0.111,0.099l0.155,0.018l0.111,-0.012l0.235,0.161l0.09,0.192l0.167,0.106l0.107,0.065l0.007,0.107l0.044,0.037l0.065,-0.134l-0.033,-0.089h-0.065l-0.023,-0.046l0.032,-0.079l-0.032,-0.083l-0.093,-0.056l-0.125,-0.125l-0.009,-0.084l-0.084,0.009l-0.046,-0.037l0.004,-0.148l-0.046,-0.037l-0.065,0.014l-0.06,-0.047l-0.038,-0.144l-0.083,-0.041h-0.079l-0.032,-0.047l0.06,-0.093l-0.07,-0.051l-0.069,0.042l-0.093,-0.009l-0.269,-0.172v-0.083l-0.051,-0.024l-0.07,0.042l-0.055,-0.046l0.018,-0.19l-0.065,-0.089l-0.079,-0.013l-0.13,-0.13l-0.014,-0.135l-0.088,-0.148l-0.111,-0.042l-0.232,-0.311l-0.116,-0.07l-0.056,0.019l-0.046,-0.023l-0.033,-0.065l-0.153,-0.088l-0.042,-0.061l-0.069,-0.037l-0.153,0.014l-0.065,-0.014l-0.121,-0.134l-0.264,-0.126l-0.084,0.014l-0.06,-0.009l-0.042,-0.065l-0.102,-0.023l-0.329,0.023l-0.028,0.065l-0.047,0.009l-0.069,-0.037l-0.056,0.014l-0.014,0.056l-0.088,0.023l-0.079,-0.019l-0.209,0.005l-0.069,-0.032h-0.051l-0.037,0.032l-0.056,0.009l-0.06,-0.041l-0.154,0.004l-0.078,0.051l-0.256,0.019l-0.125,-0.037l-0.088,0.009l-0.074,0.074h-0.102l-0.158,-0.028l-0.19,-0.009l-0.269,-0.093l-0.075,-0.065l-0.116,-0.009l-0.06,-0.037l-0.042,-0.084l-0.25,-0.083l-0.107,-0.088l-0.167,-0.01l-0.093,0.033l-0.223,-0.121h-0.074l-0.046,-0.023l-0.014,-0.065l-0.107,-0.069l-0.037,-0.177l0.028,-0.107l0.39,-0.102l-0.019,-0.083l-0.134,-0.162l-0.223,-0.186l0.018,-0.065l0.126,-0.019l0.009,-0.213l-0.107,-0.107l-0.134,-0.009l-0.084,-0.116l-0.032,-0.158l-0.112,-0.088l-0.102,-0.213l0.065,-0.273l0.074,-0.099l0.007,-0.198l-0.328,-0.266l-0.167,-0.049l0.012,-0.136l0.427,-0.266l0.167,-0.006l0.062,-0.112l-0.043,-0.154l0.086,-0.13l0.167,-0.074l0.272,-0.427l-0.031,-0.13l0.081,-0.118l0.105,-0.037l0.062,-0.117l-0.08,-0.217v-0.217l-0.198,-0.612l-0.211,-0.198l-0.037,-0.501l0.019,-0.13l-0.013,-0.099l-0.606,-0.439l-0.353,-0.149l-0.21,-0.018l-0.161,-0.105l-0.043,-0.167l0.037,-0.056l-0.006,-0.105l-0.136,-0.149l0.012,-0.161l0.136,-0.129l-0.176,-0.415l-0.442,-0.198h-0.304l-0.16,0.08l-0.143,0.007l-0.191,0.092l-0.18,0.056l-0.049,-0.018l0.031,-0.087l-0.205,-0.377l-0.037,-0.124l-0.111,-0.037l-0.124,0.055l-0.167,0.007l-0.043,-0.037l0.08,-0.112l0.217,-0.037l0.223,-0.13l-0.019,-0.099l-0.192,-0.056l-0.136,0.007l-0.192,-0.056l-0.222,-0.303l-0.316,-0.13l-0.148,0.037l-0.087,-0.037l-0.111,-0.235l-0.211,-0.198l-0.024,-0.118l-0.254,-0.191l-0.124,-0.025l-0.074,-0.068l0.012,-0.099l-0.086,-0.044l-0.13,0.038l-0.037,0.173l-0.093,0.031l-0.248,-0.149l-0.068,-0.204l0.13,-0.309l0.087,-0.074l0.012,-0.137l-0.105,-0.037l-0.179,0.007l-0.124,0.068l-0.155,-0.038l-0.092,-0.08l-0.242,-0.043l-0.161,0.006l-0.117,0.068l-0.334,0.043l-0.173,0.13l-0.038,0.093l0.025,0.062l-0.025,0.086l-0.061,0.062l-0.013,0.068l0.056,0.044l-0.025,0.062l-0.13,0.055l-0.216,0.167l-0.019,0.081l0.074,0.161l-0.031,0.055l-0.154,-0.012l-0.112,0.037l-0.148,0.006l-0.229,-0.117l-0.08,-0.087l-0.223,-0.043h-0.21l-0.161,-0.037l-0.081,-0.087l-0.21,-0.08l-0.316,-0.038l-0.086,0.044h-0.081l-0.105,-0.13l-0.111,-0.019l-0.124,0.056h-0.185l-0.124,-0.037l-0.198,0.012l-0.186,0.099l-0.29,-0.043l-0.087,-0.13l-0.186,-0.037l-0.204,0.049l-0.216,0.254l-0.075,0.13l-0.266,0.21l-0.117,0.05l-0.093,-0.013l-0.117,-0.092l-0.05,-0.087l-0.111,-0.05l-0.322,-0.031l-0.093,-0.043l0.031,-0.08l-0.093,-0.062l-0.204,0.08l-0.21,-0.012l-0.13,-0.136l-0.198,-0.056l-0.074,-0.093l-0.062,-0.006l-0.074,0.037l-0.087,-0.055l-0.155,0.278l-0.185,0.105l-0.291,0.266l-0.291,0.402l-0.148,0.068l-0.297,0.031l-0.476,0.242l-0.161,0.167l-0.421,0.253l-0.136,0.019l-0.155,0.093l-0.055,0.123l-0.434,0.297l-0.395,0.173l-0.254,0.038l-0.167,0.105l-0.093,-0.006l-0.08,-0.038h-0.229l-0.477,0.155l-0.235,0.173l-0.235,0.334l-0.229,0.143l-0.272,0.043l-0.352,0.179h-0.099l-0.149,0.05l-0.124,0.105h-0.136l-0.099,-0.068l-0.198,-0.012l-0.359,0.105l-0.29,0.012l-0.198,0.112l-0.322,0.315l-0.476,0.291l-0.365,0.124l-0.409,-0.007l-0.241,-0.08l-0.21,-0.217l-0.439,-0.068l-0.359,0.087l-0.384,-0.019l-0.154,-0.061l-0.056,-0.118l-0.303,-0.148l-0.291,-0.038l-0.111,-0.068l-0.167,-0.006l-0.192,0.099h-0.161l-0.402,-0.136l-0.173,-0.099l-0.081,-0.124l-0.377,-0.309l-0.192,-0.093l-0.223,-0.018l-0.074,-0.037l-0.117,0.006l-0.328,0.26l-0.545,0.16l-0.26,-0.037l-0.173,-0.13l-0.192,-0.031l-0.136,0.013l-0.315,0.192l-0.582,0.105l-0.358,-0.019l-0.186,-0.025l-0.186,0.038l-0.21,0.154l-0.241,0.087l-0.161,-0.006l-0.161,0.062l-0.47,0.34l-0.136,0.012l-0.235,-0.037l-0.081,-0.093l-0.185,-0.031l-0.149,0.068l-0.105,0.13l-0.353,0.223l-0.266,0.037l-0.111,-0.018l-0.322,0.018l-0.142,-0.056h-0.13l-0.093,0.081h-0.105l-0.247,-0.087l-0.124,-0.105l-0.148,-0.056h-0.217l-0.186,0.031l-0.16,-0.006l-0.18,-0.086l-0.544,-0.13l-0.563,-0.087l-0.644,-0.006l-0.123,-0.062l-0.044,-0.13l-0.099,-0.068l-0.229,-0.037l-0.154,-0.087l-0.155,-0.253l-0.006,-0.13l0.056,-0.192l-0.019,-0.068l-0.216,-0.025l-0.223,0.031l-0.13,-0.025l-0.05,-0.068l-0.111,-0.006l-0.142,0.105l-0.211,0.303l-0.061,0.174l-0.13,0.123l-0.273,0.075l-0.228,-0.025l-0.174,-0.105l-0.018,-0.087l-0.093,-0.093l-0.353,-0.13l-0.061,-0.092l-0.223,-0.106l-0.396,-0.055l-0.099,-0.062l-0.025,-0.099l-0.08,-0.062l-0.538,0.006l-0.44,-0.037l-0.476,-0.161l-0.192,-0.124l-0.056,-0.148l-0.024,-0.377l-0.031,-0.106l-0.118,-0.099l-0.594,-0.327l-0.297,-0.13l-0.674,-0.167l-0.55,-0.062l-0.112,-0.068l-0.111,-0.006l-0.149,0.099l-0.117,0.216l-0.161,0.179l-0.124,0.211l-0.365,0.247l-0.253,0.068l-0.378,-0.006l-0.124,-0.056l-0.03,-0.068l-0.093,-0.074l-0.143,-0.037l-0.068,-0.099l0.007,-0.08l-0.025,-0.112l-0.112,-0.08l-0.117,-0.019l-0.266,-0.117l-0.13,-0.093l-0.105,-0.167l-0.384,-0.415l-0.21,-0.179l-0.124,-0.241l-0.012,-0.13l0.08,-0.186l0.019,-0.247l-0.093,-0.427l-0.105,-0.223l-0.21,-0.303l-0.229,-0.136l-0.087,-0.006l-0.062,-0.025l-0.031,-0.087l-0.136,-0.086l-0.167,-0.087h-0.087l-0.123,0.074l-0.607,0.279l-0.853,0.284l-0.718,0.161l-0.451,-0.006l-0.39,-0.111l-0.229,-0.143l-0.093,-0.111l-0.093,-0.043l-0.123,-0.013l-0.662,-0.204l-0.167,-0.086l-0.025,-0.081l-0.105,-0.136l-0.155,-0.068l-0.142,-0.21v-0.105l-0.062,-0.087l-0.111,-0.068l-0.099,-0.149l-0.112,-0.055l-0.099,-0.112l-0.006,-0.117l-0.031,-0.074l-0.093,-0.065l-0.093,-0.251l0.019,-0.288l0.084,-0.111l0.046,-0.185l0.13,-0.13l0.158,-0.019l0.269,0.046l0.065,-0.065l-0.093,-0.129l-0.158,-0.01l-0.158,0.075l-0.297,0.055l-0.324,-0.074l-0.056,-0.093l0.019,-0.111l-0.065,-0.13l-0.232,-0.139l-0.307,-0.01l-0.065,0.056l-0.009,0.13l-0.269,0.39l-0.399,0.371l-0.38,0.167l-0.752,0.074l-0.585,-0.018l-0.492,-0.13l-0.055,-0.084l-0.093,-0.009l-0.111,0.046h-0.177l-0.25,0.084l-0.436,0.083l-0.307,0.01l-0.779,-0.121l-0.492,-0.13l-0.835,-0.028l-0.798,0.056l-0.919,-0.028l-0.686,-0.074l-0.362,-0.102l-1.068,-0.121h-0.352l-0.297,0.074l-0.26,0.167l-0.659,0.232l-0.269,0.056l-0.603,0.232l-0.436,0.278l-0.501,0.14l-0.381,0.065l-0.204,-0.019l-0.51,0.102l-0.186,0.093l-0.148,0.037l-0.39,-0.028l-0.139,0.056l-0.065,0.083l-0.102,0.028h-0.177l-0.157,0.074l-0.214,0.195l-0.185,0.065l-0.251,0.177l-0.26,0.027l-0.278,0.149l-0.204,0.037l-0.381,0.26l-0.083,0.121l-0.232,0.185l-0.037,0.13l-0.242,0.186l-0.222,0.092l-0.362,0.075l-0.195,0.102l-0.112,0.148l-0.129,0.074l-0.316,0.084l-0.538,0.176l-0.501,0.316l-0.427,0.315l-0.316,0.135l-0.205,0.062l-0.126,0.116l-0.213,0.074l-0.172,-0.005l-0.329,0.107l-0.176,0.093l-0.079,0.111l-0.056,0.037l-0.093,-0.009l-0.093,0.028l-0.051,0.056l-0.13,0.027l-0.088,0.093l-0.004,0.158l0.046,0.028l0.07,-0.019l0.069,0.023l-0.028,0.116l-0.088,0.089l-0.023,0.218l0.042,0.055l-0.005,0.056l-0.19,0.26l-0.149,0.107l-0.102,0.125l-0.123,0.124l-0.237,0.12l-0.51,0.153l-0.13,-0.004l-0.594,0.041l-0.163,0.056l-0.232,0.037l-0.951,0.009l-0.779,-0.078l-0.246,-0.089l-0.515,-0.245l-0.343,-0.061l-0.506,-0.046l-0.483,-0.107l-0.505,-0.186l-0.205,-0.134l-0.176,-0.051l-0.125,-0.005l-0.079,-0.014l-0.084,-0.041l-0.074,0.018l-0.037,0.102l-0.111,0.047h-0.079l-0.037,0.051l0.014,0.111l-0.042,0.028l-0.051,-0.019l-0.098,0.019l-0.055,0.097l-0.065,0.01l-0.102,0.074l-0.065,0.014l-0.056,-0.019h-0.227l-0.042,0.033l-0.056,0.004l-0.037,-0.023l-0.069,0.005l-0.042,0.032h-0.061l-0.074,-0.046l-0.199,-0.005l-0.144,0.056l-0.144,-0.014l-0.074,-0.046l-0.538,-0.024l-0.126,0.037l-0.227,-0.018l-0.371,-0.135l-0.209,-0.009l-0.084,0.033l-0.083,-0.01l-0.065,-0.032l-0.186,-0.023l-0.222,-0.065l-0.274,-0.038l-0.176,0.028l-0.543,-0.111l-0.395,-0.139l-0.32,-0.07l-0.167,0.019l-0.478,-0.093l-0.12,-0.06l-0.251,-0.024l-0.111,0.033l-0.047,0.056l-0.162,0.013l-0.051,-0.027l-0.065,0.009l-0.274,0.158l-0.046,0.102l-0.056,0.06l-0.13,0.033l-0.065,0.088l-0.037,0.148l0.033,0.061l0.102,0.051l0.004,0.102l-0.055,0.097l-0.079,0.014l-0.056,0.06l-0.009,0.126l-0.051,0.088l-0.028,0.195l-0.088,0.083l-0.163,0.079l-0.046,0.093l0.014,0.125l0.028,0.097l0.051,0.065l0.06,0.005l0.047,0.037l-0.005,0.042l0.032,0.023h0.07l0.19,0.088l0.153,0.116l0.228,0.288l0.292,0.158h0.121l0.171,0.097l0.112,0.014l0.269,0.162l0.009,0.056l-0.107,0.037l-0.014,0.051l0.047,0.037l-0.023,0.047l-0.065,0.018l-0.047,0.042v0.06l0.042,0.005l0.079,-0.056l0.348,-0.009l0.102,0.047l0.018,0.097l-0.041,0.046v0.042l0.079,0.037l-0.005,0.126l0.07,0.069l0.125,0.009l0.12,-0.009l0.098,-0.06l0.116,-0.042h0.111l0.102,-0.014l0.126,-0.06l0.139,0.009l0.111,0.084l0.098,0.004l0.088,-0.023l0.199,-0.009l0.195,-0.07l0.195,-0.004l0.534,0.046l0.213,0.088l0.125,0.153l0.121,0.014l0.167,-0.06l0.176,-0.005l0.209,-0.06l0.283,-0.014l0.135,0.042l0.018,0.111l-0.042,0.139l-0.125,0.047l-0.241,0.004l-0.144,-0.069h-0.195l-0.06,-0.028h-0.065l-0.102,0.051l-0.26,0.018l-0.849,0.205l-0.353,0.032l-0.116,-0.028l-0.102,-0.171l-0.046,-0.01l-0.042,0.023l-0.06,-0.023l-0.005,-0.046l0.042,-0.033l0.014,-0.065l-0.023,-0.078h-0.042l-0.06,0.088l-0.158,0.102l-0.126,0.185l-0.18,0.038l-0.14,-0.01l-0.12,-0.079l-0.098,0.005l-0.088,0.107l-0.223,0.134l-0.352,0.102l-0.757,0.019l-0.055,-0.033h-0.056l-0.102,0.107l-0.371,0.019l-0.093,-0.023l-0.487,0.027l-0.121,0.079l-0.144,0.186l-0.348,0.199l-0.352,0.14l-0.144,0.013l-0.172,0.116l-0.092,0.172l0.023,0.088l0.069,0.028l0.288,0.028l0.172,0.093l0.106,0.111l0.186,0.111l0.362,0.079l0.148,-0.004l0.218,-0.075l0.098,-0.041l0.204,-0.014l0.204,0.042l0.283,0.208l0.079,0.135l-0.051,0.051l-0.139,0.037l-0.144,-0.005l-0.102,0.047l-0.084,0.171v0.135l-0.092,0.074l-0.464,0.051l-0.321,0.01l-0.143,-0.042l-0.135,-0.149l-0.139,-0.028l-0.088,0.019l-0.107,-0.009l-0.135,-0.065l-0.204,-0.033l-0.283,0.042l-0.102,0.088l-0.111,0.023l-0.19,-0.009l-0.07,0.033l0.009,0.06l-0.083,0.023l-0.223,-0.004l-0.64,-0.209l-0.269,-0.042l-0.687,0.005l-0.343,-0.047l-1.179,0.028l-1.058,0.209l-0.227,0.116l-0.149,-0.009l-0.199,-0.14l-0.046,-0.13l0.074,-0.092l0.255,-0.126l0.056,-0.032l0.106,-0.014l0.288,-0.223l0.088,-0.171l-0.014,-0.056l-0.12,-0.051l-0.167,0.005l-0.116,-0.033l-0.265,-0.116l-0.32,-0.074l-0.237,-0.014l-0.055,0.046l-0.042,-0.004l-0.042,-0.047l-0.116,-0.004l-0.083,0.046h-0.075l-0.069,-0.079l-0.26,-0.014l-0.19,0.047l-0.126,0.116l-0.004,0.116l0.056,0.134l0.245,0.125l0.135,0.019l0.042,0.065l-0.051,0.093l0.018,0.083l0.172,0.088l0.093,0.084l0.051,0.102l0.069,0.005l0.028,-0.042l0.065,-0.014l0.334,0.125l-0.004,0.07l-0.167,0.083l-0.297,0.223l-0.135,0.149l-0.158,0.055l-0.204,-0.018l-0.069,-0.051h-0.098l-0.06,0.032h-0.13l-0.116,-0.023l-0.19,-0.107l-0.158,0.005l-0.292,0.172l-0.265,0.004l-0.399,-0.102l-0.417,-0.195l-0.46,-0.255l-0.111,-0.158l0.014,-0.083l0.083,-0.056l0.014,-0.07l-0.06,-0.185l-0.116,-0.098l-0.074,-0.111l-0.079,-0.005l-0.084,0.089l-0.19,0.046l-0.19,0.153h-0.093l-0.13,-0.074l-0.227,-0.033l-0.288,0.019l-0.167,0.107l-0.037,0.111l-0.06,0.107l-0.163,0.111l-0.45,0.037l-0.144,-0.032l-0.106,-0.102l-0.14,-0.019l-0.088,0.042h-0.083l-0.056,-0.028l-0.125,-0.005l-0.195,0.028l-0.279,-0.046l-0.25,0.055l-0.265,0.228l-0.055,0.088l-0.302,0.288l-0.055,0.106l-0.209,0.209h-0.153l-0.089,0.065l-0.037,0.125l-0.079,0.061l-0.06,0.139l-0.111,0.107l-0.232,0.125l-0.26,0.06l-0.153,-0.009l-0.074,0.014l-0.061,0.088v0.167l-0.018,0.167l0.046,0.149l-0.06,0.111l-0.093,0.042l-0.065,-0.014l-0.06,0.051l-0.01,0.12l-0.041,0.061l-0.061,0.236l-0.171,0.205l-0.306,0.139l-0.256,0.018l-0.125,-0.055l-0.162,-0.005l-0.102,0.111l-0.024,0.14l-0.06,0.106l-0.023,0.195l-0.065,0.125l-0.005,0.098l0.042,0.088v0.107l-0.088,0.208l-0.005,0.144l0.093,0.112l-0.014,0.385l-0.111,0.111l0.004,0.079l0.112,0.158l0.046,0.376l-0.056,0.324l-0.12,0.265l-0.186,0.134l-0.083,0.242l-0.023,0.162l-0.181,0.371l0.041,0.135l0.232,0.093l0.218,0.032l0.075,-0.023l0.357,-0.037l0.088,-0.07h0.102l0.042,0.033l0.046,-0.005l0.051,-0.079l0.112,-0.056l0.232,-0.009l0.074,0.023h0.06l0.047,-0.023l0.083,-0.004l0.093,0.009l0.079,-0.005l0.06,-0.074l0.195,-0.046l0.19,-0.121l0.562,-0.111l0.102,0.004l0.111,-0.009l0.455,-0.153l0.821,-0.13l0.464,0.014l0.084,0.055h0.06l0.06,-0.051l0.107,-0.037l0.093,-0.083l0.264,0.009l0.163,0.158v0.083l-0.052,0.065l-0.051,0.339l-0.055,0.093l-0.209,0.083h-0.2l-0.064,0.079l0.018,0.153l-0.111,0.107l-0.116,0.014l-0.056,-0.046l-0.074,0.004l-0.019,0.079l0.047,0.172l-0.028,0.111l-0.316,0.214l-0.116,0.009l-0.204,0.167l-0.074,0.125l-0.144,0.084l-0.065,0.111l-0.111,0.037l-0.056,-0.032l0.033,-0.061l0.078,-0.009l0.01,-0.046l-0.037,-0.038l-0.14,0.061l-0.046,0.13l-0.051,0.055l-0.005,0.07l0.121,0.042l0.306,0.018l0.214,0.075l0.13,0.125l0.041,0.301l0.195,0.256l0.074,0.046l0.149,0.014l0.181,0.121l0.306,0.352l0.037,0.149l-0.06,0.143l-0.306,0.186h-0.084l-0.051,0.023l-0.028,0.098l0.023,0.134l-0.051,0.195l0.065,0.232l0.163,0.116h0.102l0.069,0.037l0.065,0.084l0.13,-0.014l0.061,-0.065l0.148,-0.042l0.348,0.037l0.227,0.121l0.093,-0.019l0.01,-0.069l0.111,-0.088l0.097,0.027l0.028,0.116l-0.079,0.107l0.01,0.125l0.092,0.07l-0.037,0.088l-0.083,0.005l-0.061,0.069l-0.069,0.005l-0.042,-0.06h-0.046l-0.033,0.074l-0.232,0.139l-0.004,0.065l0.083,0.033v0.092l-0.065,0.065l-0.116,0.005l-0.051,-0.056l0.005,-0.088l-0.033,-0.065l-0.069,-0.004l-0.089,0.088l-0.046,0.018h-0.102l-0.014,0.042l0.084,0.07l0.181,0.232l0.023,0.111l-0.042,0.023l-0.102,-0.046l-0.056,0.032l-0.069,0.158l-0.065,0.009l-0.149,-0.102l-0.06,-0.014l-0.051,0.037l-0.051,-0.009l-0.047,-0.065l-0.074,-0.014l-0.065,0.065l-0.287,0.093l-0.116,-0.005l-0.116,0.098v0.181l0.065,0.157l0.009,0.116l-0.074,0.052l0.004,0.069l0.088,0.079l0.126,0.014l0.027,0.037l-0.106,0.084l0.032,0.051l0.061,0.013l0.102,-0.009l0.116,0.047l0.051,0.092l0.227,0.116l0.028,0.07l-0.014,0.144l0.088,0.116l0.144,0.042l0.046,0.051l-0.032,0.097l0.042,0.125l0.102,0.061l0.116,0.148l0.014,0.093l0.046,0.042l0.125,0.06h0.093l0.079,0.056l0.046,-0.01l-0.004,-0.106l0.208,-0.093l0.195,-0.019l0.098,0.056l0.069,0.005l0.047,-0.037l0.051,-0.005l0.167,0.111l0.134,-0.014l0.102,-0.079l0.121,0.019l0.033,0.111l-0.038,0.033l-0.064,-0.019l-0.065,0.033l-0.098,0.176l-0.223,0.111l-0.092,0.01l-0.246,-0.084l-0.265,0.019l-0.25,0.148l-0.933,0.172l-0.074,0.079l-0.079,0.023l-0.186,-0.07l-0.041,-0.06v-0.06l-0.019,-0.047l-0.083,-0.055l-0.089,-0.251l-0.083,-0.065l-0.144,0.028l-0.107,0.139l-0.032,0.19l0.032,0.075l-0.014,0.106l-0.023,0.065l0.028,0.065l0.07,0.033l0.027,0.176l-0.06,0.07l-0.111,-0.019l-0.177,-0.223l-0.032,-0.264l-0.195,-0.311l-0.12,-0.028l-0.005,-0.065l0.056,-0.051l0.004,-0.144l-0.037,-0.074l0.009,-0.056l0.153,0.005l0.075,0.042l0.055,-0.005v-0.153l-0.079,-0.292l-0.157,-0.084l-0.218,-0.264l-0.047,-0.195l-0.032,-0.046l-0.074,-0.028l-0.084,-0.2l-0.107,-0.13l-0.208,-0.12l-0.024,-0.061l-0.051,-0.014l-0.051,0.038l-0.19,-0.01l-0.083,-0.065h-0.112l-0.116,0.093l-0.204,0.056l-0.046,0.167l0.06,0.38l-0.005,0.121l0.116,0.204l0.01,0.13l0.074,0.158l0.093,0.06l0.023,0.107l-0.098,0.185l0.024,0.112l0.037,-0.005l0.088,-0.176l0.065,-0.037l0.13,0.014l0.357,0.232l0.074,0.125l-0.079,0.19l-0.06,0.019l-0.056,-0.126l-0.069,-0.055l-0.112,-0.014l-0.018,0.046l0.093,0.065l0.074,0.139l-0.009,0.191l-0.163,0.162l-0.171,0.037l-0.084,0.093l-0.074,-0.005l-0.005,-0.042l-0.056,-0.055l-0.055,0.009l-0.028,0.181l-0.046,0.07l-0.116,-0.01l-0.232,-0.199l-0.01,-0.13l-0.032,-0.093h-0.051l-0.019,0.042l-0.037,0.004l-0.06,-0.06l-0.037,0.009l-0.005,0.126l0.07,0.12v0.093l-0.075,0.037l0.005,0.112l-0.056,0.079l-0.13,0.051l-0.06,-0.047l-0.065,0.009l-0.014,0.098l0.023,0.097l0.07,0.005l0.042,-0.037h0.116l0.176,0.079l0.037,0.092l0.153,0.112l0.135,0.046l0.148,-0.018l0.079,-0.126l0.014,-0.092l0.037,-0.033l0.074,0.06l0.01,0.07l-0.056,0.107l0.037,0.093l0.181,0.153l0.037,-0.024l-0.041,-0.125l0.027,-0.032l0.079,0.028l0.056,0.125l0.088,0.083h0.125l0.061,0.019l0.009,0.056l0.088,0.023l0.056,-0.056l0.042,0.014l-0.033,0.144l0.037,0.162l0.167,0.186l0.112,-0.005l0.046,-0.139l0.046,-0.009l0.065,0.246l0.061,0.032l0.074,-0.037l0.042,-0.195l0.083,-0.069l0.033,-0.223l-0.01,-0.107l0.028,-0.107l0.135,-0.055l0.519,-0.019l0.116,-0.074h0.079l0.126,0.111l0.004,0.07l-0.06,0.056l-0.014,0.134l0.065,0.033l0.097,-0.033l0.135,0.07l0.028,0.06l-0.019,0.037l0.028,0.065l0.088,0.056l0.088,0.25l-0.014,0.204l0.033,0.154l0.121,0.139h0.046l0.079,-0.172l0.301,-0.134l0.307,0.009l0.111,0.088l0.167,0.074l0.102,0.01l0.204,0.153l0.023,0.088l0.07,0.037l0.093,0.005l0.107,0.125l0.148,0.079l0.227,0.032l0.079,-0.051l0.2,-0.005l0.176,0.056l0.125,0.112l0.075,0.134l0.004,0.176l-0.046,0.089l-0.009,0.31l-0.038,0.089l-0.097,0.055l-0.033,0.163l0.038,0.051l0.083,0.028l0.065,0.064l0.005,0.297l-0.158,0.334l-0.181,0.168l-0.566,0.148l-0.153,0.079h-0.088l-0.065,-0.028l-0.107,-0.005l-0.074,0.033l-0.061,-0.005l-0.106,-0.037l-0.093,0.014l-0.046,0.125l0.041,0.112l0.232,0.083h0.186l0.724,0.255l0.171,0.153l-0.023,0.089l-0.097,0.037l-0.167,0.144l-0.028,0.097l0.051,0.014l0.046,-0.046l0.051,0.009l0.07,0.236l-0.014,0.163l0.046,0.065l0.065,0.014l0.056,0.069l-0.028,0.427l-0.055,0.292l-0.084,0.116l0.023,0.075l0.246,0.097l0.144,0.009l0.13,-0.12l0.167,0.009l0.051,0.051l0.07,0.009l0.037,-0.051l-0.051,-0.092l0.027,-0.089l0.056,-0.027l0.084,0.037l0.092,-0.024l0.098,-0.204l0.204,-0.074l0.121,0.06l-0.01,0.14l-0.269,0.25l-0.014,0.19l0.163,0.2l0.246,0.028l0.153,-0.135l0.028,-0.139l0.032,-0.042l0.06,0.019l0.047,0.209l-0.158,0.204l-0.042,0.125l-0.079,0.121l0.042,0.023l0.065,-0.019l0.144,-0.148l0.121,-0.023l0.065,0.037l-0.033,0.185l-0.032,0.065l-0.061,0.028l-0.004,0.033l0.102,0.032l0.041,-0.028l0.01,-0.046l0.023,-0.042l0.065,-0.018l0.042,-0.065l0.041,-0.14l0.075,-0.032l0.116,0.018l0.051,-0.018l0.032,-0.06l0.051,-0.005l0.079,0.07l-0.056,0.194l-0.213,0.325l-0.153,0.13l-0.042,0.135l0.051,0.185l0.088,0.079l0.079,0.033l-0.018,0.037l-0.205,0.004l-0.269,0.14l-0.111,0.153l-0.107,0.046l-0.055,-0.028l0.009,-0.055l-0.019,-0.042l-0.051,-0.019l-0.046,-0.102l-0.144,-0.097l-0.116,-0.01l-0.032,0.056h-0.051l-0.079,-0.079l-0.005,-0.069l-0.032,-0.07l-0.065,-0.005l-0.107,0.13l-0.047,-0.004l-0.004,-0.112l-0.047,-0.028l-0.092,0.103l-0.024,0.129l-0.111,0.028l-0.056,-0.083l-0.102,-0.07l-0.065,0.028l-0.041,0.116l0.051,0.037l0.148,-0.023l0.019,0.079l-0.116,0.056l-0.209,0.18l-0.033,0.092l-0.043,0.024l-0.006,0.031l0.049,0.019l0.007,0.043l-0.037,0.031l0.009,0.062l0.071,0.028l0.053,0.102l0.024,0.13l-0.006,0.179l0.043,0.102l0.056,0.016l0.043,-0.022h0.115l0.052,0.022l0.025,-0.006l0.013,-0.071l0.068,-0.044l0.071,-0.08l0.015,-0.124l0.062,-0.087l0.179,-0.055l0.053,0.006l0.053,0.121l0.027,0.003l0.025,-0.025l-0.003,-0.074l0.04,-0.037l0.152,-0.022l0.111,0.025l0.149,0.148l0.232,0.133l0.108,0.003l0.056,-0.037h0.052l0.078,0.043l0.111,0.016l0.065,0.052l0.034,-0.003l0.006,-0.04l-0.046,-0.021l0.009,-0.035l0.105,-0.024l0.158,0.028l0.043,0.049l0.087,0.031l0.12,0.009l0.022,-0.021l-0.022,-0.034l0.016,-0.053l0.059,-0.028l0.207,-0.04h0.059l0.055,0.037l0.072,-0.003l0.071,-0.034l0.055,0.012l0.016,0.034l0.034,0.007l0.08,-0.019l0.04,0.009v0.034l0.047,0.013l0.105,-0.037l0.034,-0.059l0.028,-0.013l0.074,0.038l0.043,-0.016l0.062,-0.059l0.118,-0.024l0.068,-0.044l0.244,-0.068l0.099,0.003l0.05,0.022h0.068l0.065,-0.037h0.046l0.04,0.062l0.065,0.015l0.115,-0.021l0.059,-0.069l0.046,-0.003l0.145,0.059l0.263,0.006l0.078,-0.015l0.201,0.003l0.061,0.046l0.072,0.031l0.043,-0.021v-0.037l-0.062,-0.028l-0.034,-0.034l0.019,-0.034l0.293,0.031l0.223,-0.013l0.087,-0.056l0.096,-0.009l0.111,0.022l0.192,-0.009l0.201,-0.075l0.204,-0.003l0.08,0.05l-0.015,0.111l-0.111,0.053l-0.242,0.024l-0.151,0.121l0.025,0.05l-0.013,0.03l-0.071,0.007l-0.139,-0.062l-0.034,0.018l0.009,0.05l-0.025,0.028l-0.043,0.012l-0.006,0.031l0.037,0.031l0.003,0.028l-0.053,0.065l0.022,0.049l-0.04,0.062l-0.115,0.031l-0.095,-0.037l-0.044,0.022l0.013,0.095l0.046,0.053l-0.003,0.031l-0.022,0.04l0.013,0.071l-0.025,0.019l-0.037,-0.037l-0.016,-0.118l-0.052,-0.012l-0.022,0.025l-0.034,-0.003l-0.087,-0.075l-0.037,-0.006l-0.021,0.016h-0.041l-0.058,-0.038h-0.031l-0.006,0.028h-0.034l-0.053,-0.04l-0.074,0.003l-0.158,0.034l-0.022,0.025l0.13,0.009l0.025,0.022l-0.133,0.043h-0.08l-0.019,0.022l0.046,0.04l-0.021,0.043l-0.105,0.01l-0.016,0.027l0.074,0.038l0.124,0.012l0.009,0.034l-0.04,0.046l0.003,0.031l0.071,0.031v0.04l-0.105,0.106l-0.059,0.009l-0.083,-0.031l-0.037,0.003l0.006,0.087l0.062,0.068l-0.003,0.028l-0.102,0.009l-0.01,0.028l0.102,0.024l0.158,-0.015l0.112,0.031l0.012,0.031l-0.056,0.055l-0.003,0.05l0.028,0.028l-0.025,0.031l-0.133,0.037l-0.031,0.043l-0.031,0.003l-0.117,-0.052l-0.511,0.003l-0.099,-0.031l-0.064,-0.053l-0.072,-0.012l-0.114,0.037h-0.164l-0.121,-0.049h-0.16l-0.273,0.173l-0.25,0.024l-0.266,-0.015l-0.059,-0.034v-0.034l-0.04,-0.034l-0.18,-0.059l-0.037,0.003l-0.021,0.059l-0.059,0.028l-0.028,0.04l0.006,0.09l-0.074,0.089l-0.08,0.019l-0.127,-0.012l-0.155,0.018l-0.21,0.078h-0.334l-0.078,-0.053l-0.052,0.012l-0.056,0.075l-0.068,0.021l-0.065,-0.009l-0.04,0.025l-0.04,0.105l0.027,0.052l-0.024,0.087l-0.115,0.077l-0.049,0.003l-0.071,-0.034l-0.09,0.004l-0.022,0.024l0.05,0.105l0.145,0.05l0.053,0.065l0.012,0.056l0.043,0.009l0.059,-0.04l0.074,0.006l0.028,0.043l0.099,0.016l0.068,-0.022l0.059,0.025l0.028,0.062h0.043l0.047,-0.062l0.071,-0.028l0.071,-0.084l0.09,-0.015l0.049,0.022l0.077,-0.013l0.047,-0.034l0.043,-0.006l0.062,0.025l0.139,-0.019l0.087,-0.015l0.074,0.021l0.043,0.041l0.084,0.024l0.056,-0.015l0.049,0.018l0.022,0.05l0.074,0.025l0.074,-0.003l0.019,-0.038l-0.019,-0.031l0.012,-0.197l0.016,-0.041l0.099,-0.034l0.028,-0.074l-0.006,-0.114l0.13,-0.177l0.098,-0.043l0.236,-0.006l0.074,0.031h0.124l0.058,-0.037l0.056,-0.007l0.105,0.038l0.081,0.08l0.139,0.012l0.096,-0.071l0.074,0.006l0.034,0.072l0.034,-0.004v-0.058l0.022,-0.022h0.061l0.087,0.074h0.084l0.117,-0.093l0.192,-0.003l0.093,-0.021l0.065,-0.006l0.049,0.015l0.05,-0.006l0.08,-0.071l0.056,-0.01l0.12,0.031l0.109,-0.071l0.012,-0.099l0.099,-0.062l0.142,-0.021l0.071,0.015l0.022,0.062l-0.031,0.102l0.028,0.053l0.012,0.092l-0.031,0.019l-0.089,-0.068h-0.105l-0.065,0.139l0.034,0.04l0.164,0.041l0.046,0.043l-0.015,0.031l-0.056,0.006l-0.028,0.043l-0.012,0.078l-0.047,0.024l-0.065,-0.052l0.003,-0.09l-0.027,-0.022l-0.183,0.038l-0.084,0.046l-0.024,0.059l-0.034,0.018l-0.152,0.01l-0.25,0.114l-0.084,0.074l0.009,0.034l0.081,-0.012l0.065,0.006l0.024,0.025h0.035l0.027,-0.016l0.034,0.003l0.031,0.031l0.105,0.003l0.075,-0.027l0.009,-0.062l-0.028,-0.022l0.003,-0.028h0.047l0.055,0.034l-0.003,0.047l0.025,0.028l0.065,0.003l0.022,0.027l-0.025,0.05l0.012,0.074h0.04l0.038,-0.043l0.049,0.006l0.056,0.09l-0.003,0.059l-0.047,0.043l-0.105,0.17l-0.062,0.031l-0.074,-0.003l-0.077,0.031l-0.242,-0.013l-0.077,-0.037l-0.071,-0.003l-0.118,0.059l-0.003,0.037l0.105,0.077l-0.003,0.031l-0.037,0.022l-0.003,0.028l0.053,0.04l0.034,0.09l0.034,0.003l0.049,-0.056l0.053,-0.006l0.037,0.012l0.028,-0.012l-0.013,-0.04l0.022,-0.019l0.142,0.074l0.044,-0.009l0.012,-0.043l0.164,-0.17h0.053l0.04,0.068l0.074,0.009l0.102,-0.083l0.077,-0.149l0.13,-0.192l0.028,-0.086l0.108,-0.099l-0.003,-0.044l-0.024,-0.015l0.015,-0.053l0.046,-0.018l0.093,0.003l0.109,-0.056l0.126,0.003l0.034,-0.021v-0.053l0.124,-0.111l0.053,-0.105l0.034,-0.028l0.083,0.003l0.037,-0.022l0.044,0.006l0.027,0.087l0.056,0.009l0.065,-0.071l0.006,-0.04l-0.068,-0.093l-0.055,-0.012l-0.047,0.024l-0.046,-0.027v-0.09l-0.037,-0.05l-0.075,-0.046l-0.018,-0.065l0.034,-0.071l-0.019,-0.05l-0.096,-0.027l-0.015,-0.053l0.053,-0.071l0.021,-0.102l0.096,-0.124l0.087,-0.012l0.074,0.012l0.117,0.145l0.062,0.013l0.031,0.034l0.003,0.049l0.09,0.056l0.099,0.009l0.145,0.081h0.053l0.028,0.009l0.022,0.049l0.105,0.022l0.058,-0.037l0.028,-0.118l0.05,-0.08l0.028,-0.133l-0.025,-0.028l-0.096,-0.003l-0.111,0.025l-0.056,-0.053l0.012,-0.034l0.056,-0.043l0.068,-0.09l0.034,-0.003l0.012,0.059l0.034,0.012l0.127,-0.021l0.09,-0.065l0.003,-0.075l0.037,-0.009l0.099,0.118l-0.015,0.077l-0.068,0.034l-0.022,0.17l0.046,0.087l0.056,0.006l0.031,-0.022l0.152,-0.009l0.034,0.053l-0.034,0.049v0.046l0.055,0.019l0.059,-0.022l0.046,0.01l0.028,0.062l0.075,0.015l0.027,-0.015l-0.003,-0.044l-0.043,-0.034l-0.012,-0.052l0.027,-0.041l0.078,-0.015l0.028,-0.053l0.015,-0.068l0.04,-0.009l0.044,0.077l0.068,0.034l0.068,0.003l0.046,0.047v0.049l0.04,0.022l0.044,-0.019l0.04,0.007l0.108,0.148l-0.009,0.071l-0.056,0.037v0.047l0.068,0.028v0.034l-0.062,0.074l-0.009,0.09l0.037,0.055l-0.003,0.047l-0.028,0.024v0.072l0.056,0.037l0.049,-0.019l0.084,-0.13l0.062,-0.006l0.055,0.028l0.044,0.164l0.037,0.012l0.167,-0.071l0.124,-0.006l0.185,0.031l0.275,0.12l0.084,0.124l-0.065,0.087l0.022,0.028l0.13,-0.031l0.055,0.034l0.022,0.083l0.031,0.009l0.037,-0.018l0.053,0.018v0.031l-0.09,0.05l-0.037,0.062l0.021,0.12l0.087,0.078l0.05,0.006l0.068,-0.043l0.04,-0.062l-0.019,-0.093l0.022,-0.025l0.077,-0.015l0.059,-0.04l0.019,-0.05l0.077,-0.046l-0.013,-0.025l-0.111,0.006l-0.037,0.012l-0.015,0.05l-0.047,0.009l-0.071,-0.049l-0.009,-0.037l0.024,-0.025v-0.025l-0.052,-0.052l0.009,-0.035l0.056,-0.021l0.006,-0.022l-0.043,-0.028l0.006,-0.024l0.043,-0.007l0.013,-0.031l-0.003,-0.04l0.052,-0.058l0.059,-0.035h0.077l0.087,-0.061l0.055,-0.152l0.05,-0.025l0.019,-0.043l-0.016,-0.049l0.043,-0.05h0.053l0.053,0.096l0.092,0.056l0.071,0.009l0.075,0.043l0.049,0.087l0.056,0.028l0.086,-0.007l0.096,0.022l0.031,0.059l0.136,0.136l0.068,0.006l0.065,-0.012l0.177,0.055l0.102,0.245l-0.031,0.12l-0.056,0.034l-0.059,-0.012l0.004,-0.037l0.03,-0.022l0.007,-0.043l-0.044,-0.043h-0.096l-0.018,0.055l0.037,0.102l-0.053,0.053l-0.133,0.003l-0.037,-0.031l-0.043,0.006l-0.053,0.093l-0.009,0.105l-0.018,0.056l0.04,0.093l0.08,0.077l-0.028,0.05l-0.102,0.046l-0.102,0.022l-0.003,0.031l0.164,0.018l0.105,-0.025l0.019,-0.046l-0.016,-0.043l0.013,-0.025l0.12,0.012l0.062,-0.027h0.059l0.034,0.108l0.059,0.012l0.059,-0.018l0.058,0.034l-0.021,0.278l-0.081,0.124l0.003,0.161l0.121,0.194l-0.006,0.168l-0.136,0.123l0.006,0.074l0.105,0.099l0.08,0.034l0.041,0.031l-0.028,0.078l0.037,0.037l0.083,0.015l0.044,0.028l0.021,0.047l0.099,0.04l0.294,0.093l0.6,0.578l0.093,0.015l0.124,0.084l0.093,-0.006l0.046,-0.09l-0.009,-0.08l0.028,-0.022l0.17,0.015h0.068l0.031,0.022l-0.05,0.124l0.016,0.083l0.049,0.013l0.071,-0.013l0.105,0.016l0.239,0.17l0.247,0.015l0.142,-0.049l0.149,0.006l0.071,0.056l0.102,0.006l0.105,-0.043l0.096,0.003l-0.006,0.028l-0.096,0.021l-0.08,0.078l0.027,0.018l0.155,-0.062l0.133,-0.018l0.077,0.043l-0.006,0.127l-0.037,0.015l-0.034,-0.034l-0.034,0.006l-0.006,0.062l0.11,0.152l0.06,0.014l0.065,-0.019l0.051,0.023l0.037,0.098l0.051,-0.005l0.037,-0.079l0.081,-0.038l0.055,-0.031l0.041,-0.074l0.071,-0.007l0.059,0.041l0.12,0.009l0.056,-0.019l0.065,0.003l0.009,0.025l-0.093,0.077l0.013,0.038l0.161,-0.013l0.139,-0.102l0.043,-0.136l0.167,-0.142l0.136,-0.037l0.112,0.018l0.068,-0.028l0.015,-0.089l0.172,-0.126l0.088,-0.009l0.107,0.056l0.153,0.028l0.134,-0.033l0.274,-0.181l0.153,-0.051l0.144,-0.004l0.121,0.055l0.157,-0.018l0.107,-0.163l0.097,-0.125l0.052,-0.116l0.162,-0.074l0.524,-0.019l0.306,0.056l0.376,0.264l0.061,0.01l0.069,-0.033l0.139,0.023l0.028,0.07l-0.051,0.153l0.009,0.2l0.047,0.013l0.213,-0.259l0.26,-0.228l0.019,-0.088l-0.033,-0.042l-0.083,-0.041l-0.028,-0.084l0.032,-0.042l0.084,0.019l0.06,-0.023l0.028,-0.047l0.079,-0.032l0.074,-0.005l0.065,-0.028l0.005,-0.041l-0.102,-0.051l-0.033,-0.038l0.005,-0.065l-0.047,-0.06l-0.12,-0.107l-0.047,-0.148l0.051,-0.135l-0.004,-0.088l0.032,-0.051l0.116,-0.009l0.033,-0.06l-0.019,-0.144l0.019,-0.051l0.06,-0.028l0.153,-0.246l0.009,-0.088l0.251,-0.408l0.042,-0.116l-0.033,-0.038h-0.093l-0.064,-0.069l-0.038,-0.158l0.033,-0.241l0.046,-0.079l0.023,-0.218l-0.064,-0.19l0.004,-0.065l0.06,-0.112l0.079,-0.422l0.214,-0.311l0.334,-0.26l0.172,-0.041l0.102,0.023l0.181,0.176l0.157,0.074l0.065,0.005l0.107,-0.042l0.06,0.005l0.065,0.028l0.177,0.009l0.528,-0.079l0.59,-0.014l0.385,0.07l0.148,0.069l0.353,0.065l0.371,0.028l0.622,0.079l0.343,0.079l0.265,0.148l0.106,0.158l0.181,0.098l0.269,0.046l0.492,0.176l0.325,0.167l0.125,0.13l0.283,0.13l0.14,0.135l0.083,0.032l0.056,-0.009l0.12,0.051l0.209,0.005l0.125,0.055l0.089,0.153l0.338,0.154l0.223,0.009l0.195,0.079l0.083,0.069l0.163,0.065l0.274,0.051l0.139,0.079l0.065,0.088h0.046l0.042,-0.055h0.102l0.167,0.097l0.459,0.483l0.033,0.097l0.069,0.088l0.102,0.056l0.14,0.13l0.153,0.255l0.079,0.213l0.162,0.205l0.237,0.171l0.092,0.135l0.061,0.227l0.171,0.19l0.251,0.14l0.186,0.176l0.032,0.083l0.116,0.107l0.116,0.028l0.571,0.38l0.236,0.079l0.149,-0.014l0.116,0.024l0.13,0.13l0.663,0.296l0.223,0.019l0.459,0.097l0.047,-0.009l0.018,-0.056l0.056,-0.055l0.074,-0.019l0.125,-0.074l0.07,-0.097l0.149,-0.102l0.264,-0.079l0.121,-0.079l0.125,-0.023l0.111,0.037l0.306,0.023l0.093,-0.028l0.126,0.014l0.154,0.136l0.081,-0.019l0.148,-0.29l0.13,-0.112l0.266,-0.006l0.21,0.037l0.563,-0.006l0.266,-0.117l0.279,0.012l0.117,0.099h0.105l0.297,-0.173h0.248l0.253,0.099l0.13,0.111l0.118,-0.049l0.124,-0.248l0.142,-0.142l0.204,-0.056l0.136,0.056l0.062,0.148l0.087,0.031l0.012,0.044l-0.043,0.049v0.062l0.074,0.031l0.087,-0.037v-0.068l-0.05,-0.037l-0.006,-0.056l0.093,-0.136l0.284,-0.204l0.31,-0.18l0.117,-0.117l0.062,-0.124l-0.037,-0.056l0.031,-0.043l0.08,-0.025l0.198,-0.235l0.099,-0.037l0.167,0.019l0.173,0.142l0.13,0.173l0.013,0.186l0.049,0.092l0.062,-0.018l0.074,-0.223l0.229,-0.229l0.118,-0.018l0.074,0.037l0.074,-0.019l0.124,-0.13l0.062,-0.117l-0.006,-0.483l0.024,-0.123l0.081,-0.087l0.08,-0.025l0.062,-0.062l0.025,-0.08l0.093,-0.093l0.154,-0.031l0.075,-0.062l0.061,-0.123l0.211,-0.242l0.105,-0.062l0.068,-0.086l0.118,-0.204l0.204,-0.192l0.154,-0.056l0.13,-0.093l0.087,-0.111l0.229,-0.148l0.321,-0.136l0.075,-0.056l0.031,-0.074l0.185,-0.192l0.186,-0.13l0.241,-0.105l0.068,-0.05l0.037,-0.08l0.056,-0.081l0.161,-0.092l0.21,-0.044l0.087,-0.049l0.068,-0.074l0.123,-0.062l0.539,-0.037l0.359,0.055l0.402,0.186l0.266,0.235l0.105,0.148l0.093,0.031l0.191,0.007l0.322,0.099l0.687,0.383l0.792,0.402l0.699,0.409l0.031,0.08l0.061,0.006l0.056,-0.056l0.118,-0.024l0.136,-0.093l0.074,-0.111l0.087,-0.056l0.334,-0.025l0.396,0.099l0.179,0.081l0.111,-0.025l0.068,-0.105l0.13,-0.087l0.161,-0.087l0.093,-0.13v-0.185l0.037,-0.13l0.111,-0.111l0.143,-0.025l0.192,-0.136l0.024,-0.093l-0.062,-0.019l-0.179,0.062l-0.111,-0.018l-0.007,-0.093l-0.043,-0.056l-0.049,-0.006l-0.056,0.08l-0.093,0.007l-0.055,-0.037l0.061,-0.137l0.285,-0.185h0.167l0.068,0.043l0.136,-0.006l0.142,-0.043l0.18,0.006l0.142,-0.013l0.309,-0.197l0.044,-0.087l0.068,-0.068l0.192,-0.149l0.222,-0.29l0.112,-0.068l0.185,-0.174l0.217,-0.167l0.105,-0.006l0.365,0.149l0.359,0.259l0.266,0.285l0.253,0.39v0.13l-0.049,0.092l-0.006,0.149l0.055,0.056v0.061l-0.043,0.062v0.093l0.111,0.279l-0.018,0.16l-0.074,0.068l-0.013,0.056l0.031,0.081l-0.062,0.105l-0.099,0.068h-0.13l-0.167,0.074l-0.352,0.254l-0.161,0.049l-0.167,0.142l-0.278,0.316l-0.18,0.117l-0.204,0.056l-0.155,0.13l-0.055,0.124l-0.205,0.185l-0.061,0.18l-0.075,0.068l-0.092,0.006l-0.093,0.074l-0.056,0.099l-0.179,0.161l-0.011,0.125l0.06,0.195l0.501,0.654l0.376,0.534l0.367,0.784l-0.005,0.074l-0.111,0.153l-0.214,0.168l-0.069,0.129l-0.005,0.116z M1289.128532,466.358102l0.114,0.003l0.059,0.027l0.076,-0.003l0.084,-0.074l0.212,-0.034l0.042,-0.089l-0.003,-0.118l0.023,-0.077l0.069,-0.054l0.01,-0.079l0.078,-0.093l0.009,-0.052l0.04,-0.019l0.068,0.006l0.195,-0.083l0.099,-0.112l-0.009,-0.064l-0.037,-0.062l0.018,-0.078l0.071,-0.055l0.019,-0.121l0.049,-0.009l0.068,0.024l0.041,-0.024l0.012,-0.112l0.049,-0.083l0.038,0.009l0.006,0.059l0.08,0.056l0.099,0.006l0.04,-0.04l-0.012,-0.075l-0.074,-0.12l0.024,-0.065l0.044,-0.003l0.034,0.031l0.049,-0.007l0.081,-0.096l0.096,-0.021l0.108,0.021l0.056,-0.043l-0.075,-0.151l-0.136,-0.099l-0.009,-0.065l0.037,-0.034l0.071,0.003l0.09,-0.084l0.046,-0.123l-0.015,-0.065l-0.087,-0.041l-0.222,-0.272l-0.013,-0.117l0.047,-0.087l0.08,-0.059l0.022,-0.071l-0.037,-0.04l-0.118,0.012l-0.053,-0.025l0.007,-0.046l0.102,-0.043l0.031,-0.081l0.058,-0.031l0.007,-0.068l-0.133,-0.105l-0.05,-0.093l0.012,-0.077l0.078,-0.056l-0.003,-0.117l0.04,-0.084l0.009,-0.058l-0.052,-0.099v-0.106l0.077,-0.089l0.09,-0.006l0.061,0.049l0.093,0.012l0.217,-0.006l0.198,-0.185l0.173,-0.056l0.043,-0.043l-0.006,-0.065l0.028,-0.041l0.105,-0.034l0.053,-0.071l0.018,-0.099l0.053,-0.018l0.077,0.006l0.096,-0.037l0.056,-0.04l0.105,0.003l0.074,0.071l0.105,0.037l0.109,-0.009l0.154,-0.105l0.074,-0.198l0.022,-0.177l-0.025,-0.105v-0.093l-0.024,-0.08l-0.056,-0.025l-0.037,-0.071l0.006,-0.186l-0.022,-0.099l-0.052,-0.086l-0.006,-0.053l0.006,-0.108l-0.003,-0.09l-0.056,-0.077l-0.003,-0.09l0.022,-0.102v-0.056l-0.05,-0.061l0.003,-0.099l0.047,-0.087l-0.028,-0.241l-0.047,-0.031l-0.151,-0.006l-0.232,-0.084l-0.279,-0.247l-0.012,-0.053l0.043,-0.04l-0.015,-0.047l-0.133,-0.003l-0.102,-0.04l-0.071,-0.074h-0.059l-0.059,0.043l-0.152,-0.04l-0.17,-0.077l-0.052,-0.09l-0.081,-0.006l-0.031,-0.05l-0.147,-0.154l-0.01,-0.121l0.062,-0.21l0.219,-0.334l0.124,-0.025l0.94,-0.019l0.062,-0.049l0.142,-0.26l0.081,-0.056l0.006,-0.062l-0.062,-0.043l0.006,-0.056l0.075,-0.055l0.006,-0.062l-0.105,-0.099l0.012,-0.087l0.117,-0.154l0.192,-0.112l0.025,-0.086l0.074,-0.031l0.211,0.074l0.352,0.012l0.118,0.056h0.117l0.242,-0.21h0.068l0.129,0.086l0.155,0.037l0.056,-0.012l0.062,-0.08l0.105,-0.056l0.167,0.006l0.136,-0.025l0.049,-0.055l0.075,-0.025l0.13,0.019l0.16,-0.118l0.007,-0.13l0.062,-0.043h0.092l0.13,-0.155l-0.018,-0.136l0.049,-0.049h0.074l0.149,-0.093h0.087l0.315,0.093l0.05,0.086l0.068,0.012l0.074,-0.024l0.179,0.018l0.118,0.075l0.049,-0.031l-0.037,-0.087l0.05,-0.074l0.185,-0.161l0.254,0.031l0.352,0.173l0.038,0.093l0.061,0.043l0.099,0.006l0.112,0.099l0.161,0.322l0.179,0.124l0.099,0.136l0.303,0.161l0.118,-0.025l0.08,0.037l0.111,0.149l0.081,0.123l0.099,0.075l0.068,0.018l0.025,-0.043l-0.037,-0.062l0.024,-0.099l0.099,-0.031l0.087,-0.08l0.086,0.031l0.081,-0.062l-0.031,-0.056l0.056,-0.031l0.111,0.031l0.217,-0.062l0.099,-0.093h0.284l0.322,0.143l0.062,0.068l0.216,0.018l0.056,-0.043l-0.093,-0.142l0.006,-0.174l0.056,-0.037l0.099,0.037l0.068,-0.018l0.037,-0.068l0.142,0.025l0.155,0.167l0.08,0.012l0.099,-0.056l0.186,0.037l0.099,-0.055h0.074l0.068,0.062h0.093l0.13,-0.038l0.019,0.093l0.08,0.186l0.006,0.291l0.062,0.136v0.074l-0.062,0.018l-0.185,-0.068l-0.13,0.013l-0.118,0.216l0.012,0.26l0.155,0.353l0.229,0.247l0.031,0.081l-0.019,0.074l0.106,0.179l0.253,0.229l0.025,0.074l-0.062,0.075v0.123l0.161,0.242l0.136,0.086l0.043,0.075l-0.012,0.074l0.093,0.117l0.117,0.019l0.056,0.062l0.012,0.08l0.316,0.303l0.792,0.452l1.175,0.563l0.773,0.34l0.186,-0.012l0.068,0.037l0.025,0.062l0.161,0.086h0.117l0.068,0.031l0.013,0.068l0.105,0.062l0.074,-0.018l0.068,0.012l0.037,0.043l0.644,0.229l0.235,0.019l0.34,0.123l0.315,0.069l0.211,-0.062l0.161,0.012l0.179,0.111l0.012,0.121l-0.051,0.135l-0.148,0.148l-0.084,0.121l-0.167,0.102l-0.009,0.042l0.102,0.088l0.079,0.125l-0.009,0.079l-0.079,0.111l-0.014,0.13l-0.06,0.098l-0.047,0.134l-0.074,0.079l-0.195,0.107l-0.046,0.051l-0.074,0.032l-0.061,-0.018l-0.13,-0.119l-0.028,0.003l0.019,0.049l0.121,0.111l0.089,0.019l0.056,0.037l-0.003,0.047l-0.062,0.049h-0.111l-0.158,0.046l-0.334,0.183l-0.158,0.012l-0.09,0.028l-0.055,0.081l-0.087,0.027l-0.148,-0.037l-0.198,-0.13l-0.152,0.007l-0.074,0.043l-0.121,0.012l-0.105,-0.024l-0.121,0.006l-0.092,0.058l-0.201,0.019l-0.171,-0.006l-0.086,-0.05l-0.04,-0.114l0.012,-0.207l-0.087,-0.059l-0.123,0.015l-0.096,0.071l-0.043,0.109l-0.05,0.015l-0.152,-0.055l-0.256,-0.171l-0.393,-0.179l-0.303,-0.087l-0.189,-0.043h-0.158l-0.374,-0.074l-0.108,-0.034l-0.495,-0.013l-0.241,0.038l-0.038,0.037l-0.061,0.021l-0.13,0.003l-0.248,0.075l-0.34,0.17l-0.136,0.117l-0.031,0.078l-0.003,0.151l-0.053,0.059l-0.055,0.009l-0.034,0.041l0.021,0.037l-0.015,0.027l-0.133,0.013l-0.09,-0.056l-0.133,-0.003l-0.087,0.028l-0.176,-0.016l-0.124,-0.133l-0.157,-0.086l-0.353,-0.115l-0.176,-0.009l-0.313,0.071l-0.167,0.016l-0.578,0.133l-0.34,0.043l-0.18,0.071l-0.077,0.108l-0.164,0.344l-0.04,0.198l-0.025,0.253l-0.031,0.09l-0.384,0.297l-0.287,0.272l-0.081,0.096l-0.062,0.18l-0.04,0.061l-0.024,0.093l-0.081,0.118l-0.349,0.222l-0.041,0.065l-0.071,0.047l-0.086,0.018l-0.223,0.127l-0.059,0.09l-0.077,0.046l-0.248,0.099l-0.343,0.062l-0.127,0.006l-0.192,0.084l-0.207,0.201l-0.018,0.062l-0.053,0.024l-0.087,0.016l-0.349,0.124h-0.093l-0.133,0.055l-0.241,0.164l-0.297,0.121l-0.121,0.034l-0.272,0.09l-0.155,0.114l-0.04,0.05l-0.049,0.027l-0.059,0.004l-0.068,0.052l0.012,0.121l0.016,0.096l-0.062,0.046l-0.186,0.043l-0.114,0.084l-0.068,0.139l0.003,0.136l-0.056,0.096l-0.189,0.155l-0.034,0.08l-0.027,0.019l-0.047,0.003l-0.04,0.037l-0.034,0.059l-0.173,0.096l-0.09,0.006l-0.213,0.164l-0.075,0.133l-0.247,0.176l-0.074,0.022l-0.031,0.021l-0.019,0.056l-0.037,0.028l-0.189,0.052l-0.12,0.068l-0.071,-0.003l-0.028,0.031l0.009,0.105l0.133,0.27l-0.034,0.092l-0.158,0.09l-0.065,0.068l-0.065,0.096l-0.065,0.056l-0.04,0.009l-0.034,0.028l-0.037,0.062l-0.201,0.096l-0.241,0.089l-0.05,0.04l-0.021,0.056l-0.05,0.025l-0.071,-0.025l-0.062,0.013l-0.056,0.037l-0.071,0.009l-0.062,-0.034l-0.006,-0.071l0.062,-0.059l0.037,-0.096l0.047,-0.074l0.071,-0.053l0.037,-0.068l0.012,-0.086l0.164,-0.3l0.09,-0.112l0.13,-0.207l-0.003,-0.053l-0.019,-0.024v-0.031l0.068,-0.056l0.025,-0.099v-0.173l-0.081,-0.152l-0.21,-0.13l-0.003,-0.037l0.062,-0.096l-0.006,-0.068l-0.047,-0.043l-0.105,-0.003l-0.003,-0.025l0.111,-0.114l0.18,-0.099l0.139,-0.019l0.062,-0.031l0.077,-0.089l0.065,-0.031l0.05,0.015l0.052,-0.009l0.18,-0.13l0.024,-0.047l0.112,-0.077l0.062,-0.009l0.043,-0.031l0.009,-0.046l0.034,-0.019l0.062,-0.003l0.065,-0.047l0.096,-0.111l0.124,-0.074l0.204,-0.031l0.241,-0.114l0.121,-0.115l0.086,-0.046l0.041,0.003l0.049,-0.01l0.127,-0.105l0.275,-0.096l0.112,0.016l0.327,-0.022l0.087,-0.046l0.056,-0.142l0.111,-0.14l0.068,-0.012l0.056,0.043h0.111l0.164,-0.08l0.254,-0.217l0.015,-0.099l-0.096,-0.358l-0.083,-0.084l-0.118,-0.04l-0.158,0.009l-0.126,0.077l-0.075,0.019l-0.071,-0.012l-0.083,0.006l-0.062,0.04l-0.569,0.019l-0.161,0.058l-0.192,0.158l-0.083,0.022l-0.09,0.099l-0.043,0.006l-0.034,-0.022l-0.09,-0.003l-0.074,-0.028l-0.109,-0.074l-0.123,-0.04l-0.124,0.006l-0.065,0.037l-0.059,0.065l-0.093,0.009l-0.194,-0.061l-0.161,0.012l-0.143,0.083l-0.219,0.028l-0.409,-0.037l-0.281,-0.006l-0.26,0.059l-0.272,-0.031l-0.285,-0.186l-0.096,-0.12l-0.006,-0.075l0.031,-0.046l0.019,-0.173l-0.112,-0.368l-0.092,-0.084l-0.003,-0.034z"/>
</svg>
