<svg xmlns="http://www.w3.org/2000/svg" viewBox="2279.286 788.409 25.450 34.027">
  <path d="M2302.014961,822.41462l0.012288,-0.01966l0.054065,0.002458l0.012288,0.017203l-0.012288,0.022118l-0.04915,-0.004915l-0.017203,-0.017203Z M2304.341483,813.112898l-0.014745,-0.02949v-0.01966l0.00983,-0.017203l-0.004915,-0.017203l-0.02949,0.014745v0.031948l0.024575,0.041778l0.014745,-0.004915Z M2304.631471,813.454493l-0.012288,0.017203l0.017203,0.012288l0.022118,-0.007373l-0.004915,-0.022118h-0.022118Z M2304.55283,813.083407l0.017203,-0.004915l-0.02949,-0.04915l-0.004915,-0.083556l-0.041778,-0.04915l-0.063896,-0.002458l-0.002458,0.01966l0.058981,0.007373l0.031948,0.02949l-0.002458,0.068811l0.00983,0.03932l0.027033,0.024575Z M2304.673248,813.198911l0.03932,0.105673l-0.002458,0.086013l-0.017203,0.03932l-0.024575,0.012288l0.002458,0.017203l0.034405,-0.002458l0.027033,-0.058981l0.004915,-0.095843l-0.03932,-0.105673l-0.056523,-0.056523l-0.007373,0.017203l0.03932,0.041778Z M2304.518425,813.400428l0.00983,0.017203l0.027033,-0.00983l-0.002458,-0.01966l-0.01966,-0.004915l-0.014745,0.017203Z M2304.33411,812.940871l0.007373,0.014745l0.022118,0.00983l0.002458,-0.017203l-0.014745,-0.012288l-0.017203,0.004915Z M2304.353771,812.906466v0.014745l0.01966,0.00983l0.00983,-0.004915l-0.012288,-0.014745l-0.017203,-0.004915Z M2304.380803,812.894178l0.004915,0.014745l0.01966,0.00983l0.002458,-0.014745l-0.017203,-0.014745l-0.00983,0.004915Z M2304.574948,813.434833l0.014745,-0.012288v-0.017203l-0.014745,0.004915l-0.007373,0.014745l0.007373,0.00983Z M2300.137296,807.24137l0.044235,0.113046l-0.004915,0.058981l0.051608,0.172027v0.034405l-0.036863,0.054065l-0.071268,0.066353l-0.046693,0.014745l-0.002458,0.017203l0.058981,-0.00983l0.090928,-0.078641l0.031948,-0.012288l0.024575,-0.046693l-0.024575,-0.041778l-0.04915,-0.164654l0.004915,-0.073726l-0.054065,-0.130249l-0.041778,-0.058981l-0.012288,0.017203l0.036863,0.068811Z M2300.070943,807.135696l0.007373,-0.01966l-0.01966,-0.036863l-0.031948,-0.017203l-0.007373,0.017203l0.031948,0.022118l0.01966,0.034405Z M2299.45902,807.283148l0.01966,-0.00983l0.007373,-0.022118l-0.024575,-0.017203l-0.017203,0.014745l0.014745,0.034405Z M2299.731805,807.042311l0.027033,-0.017203l-0.01966,-0.014745l-0.041778,0.002458l-0.004915,0.01966l0.03932,0.00983Z M2299.434445,808.44064l0.012288,-0.01966l-0.012288,-0.022118l0.012288,-0.031948l-0.017203,0.002458l-0.014745,0.02949l0.002458,0.031948l0.017203,0.00983Z M2299.193608,807.585423l0.01966,-0.012288l-0.004915,-0.01966l-0.01966,0.007373l-0.014745,0.024575h0.01966Z M2299.343517,807.455174l0.022118,-0.00983l-0.012288,-0.017203h-0.01966l-0.00983,0.017203l0.01966,0.00983Z M2299.96527,807.821345l-0.002458,0.017203l0.02949,-0.007373l0.041778,-0.02949l-0.022118,-0.004915l-0.046693,0.024575Z M2299.849766,807.895071l0.024575,0.002458l0.044235,-0.017203l0.00983,-0.022118h-0.022118l-0.056523,0.036863Z M2299.810446,807.939306l0.027033,-0.017203l-0.01966,-0.004915l-0.034405,0.00983l-0.002458,0.017203l0.02949,-0.004915Z M2299.680197,808.049894l0.01966,-0.002458l0.022118,-0.01966v-0.022118l-0.01966,0.00983l-0.022118,0.034405Z M2299.488511,808.452928l0.068811,-0.046693l0.03932,-0.014745l0.027033,-0.01966v-0.02949l-0.03932,-0.058981v-0.036863l0.024575,-0.044235l-0.00983,-0.054065l-0.014745,0.002458l0.002458,0.051608l-0.022118,0.02949l-0.004915,0.054065l0.031948,0.054065l-0.022118,0.034405l-0.083556,0.056523h-0.01966l-0.007373,0.014745l0.02949,0.007373Z M2299.441818,808.339882l0.014745,0.004915l0.00983,-0.017203l-0.004915,-0.01966l-0.014745,0.012288l-0.004915,0.01966Z M2299.402497,808.15311l0.017203,-0.00983l-0.00983,-0.017203l-0.017203,0.002458l-0.007373,0.014745l0.017203,0.00983Z M2299.38038,808.008117l0.012288,-0.014745l-0.014745,-0.012288l-0.01966,0.004915l0.002458,0.017203l0.01966,0.004915Z M2299.274706,807.902443l0.012288,-0.007373l0.002458,-0.01966l-0.01966,0.004915l-0.007373,0.012288l0.012288,0.00983Z M2294.634905,803.60178h0.034405l-0.00983,-0.024575l-0.027033,-0.014745l-0.01966,0.017203l0.022118,0.022118Z M2294.976501,803.832787l-0.00983,0.044235l-0.068811,0.103216l-0.046693,0.034405l-0.066353,0.081098l-0.041778,0.061438l-0.017203,0.061438l-0.046693,0.044235l-0.022118,0.044235l0.007373,0.03932l-0.027033,0.036863l-0.01966,0.058981l-0.02949,0.022118v0.051608l0.022118,0.02949l0.031948,-0.00983l0.00983,-0.036863l-0.00983,-0.04915l0.00983,-0.044235l0.031948,-0.044235l0.002458,-0.051608l0.04915,-0.068811l0.051608,-0.108131l0.066353,-0.078641l0.044235,-0.036863l0.071268,-0.105673l0.04915,-0.034405l0.002458,-0.031948l-0.044235,-0.061438l-0.01966,0.00983l0.01966,0.03932Z M2294.369493,803.982696l0.012288,-0.014745v-0.017203l-0.017203,0.002458l-0.00983,0.017203l0.014745,0.012288Z M2294.418643,803.997441l0.01966,-0.002458l0.002458,-0.022118l-0.01966,-0.004915l-0.012288,0.012288l0.00983,0.017203Z M2294.910148,803.756604l0.01966,-0.012288l0.002458,-0.017203h-0.01966l-0.014745,0.017203l0.012288,0.012288Z M2294.880658,803.734486l0.014745,-0.01966l-0.007373,-0.017203l-0.012288,0.00983l-0.007373,0.01966l0.012288,0.007373Z M2294.937181,803.778722l0.01966,-0.004915l0.014745,-0.01966l-0.017203,-0.007373l-0.017203,0.007373v0.024575Z M2294.421101,803.771349h0.01966v-0.024575l-0.01966,-0.002458l-0.00983,0.014745l0.00983,0.012288Z M2294.300682,804.329207l0.01966,-0.00983l-0.007373,-0.017203l-0.031948,-0.00983l-0.012288,0.01966l0.031948,0.017203Z M2296.653832,800.650249l0.037007,-0.01542l0.037007,-0.061679l-0.009252,-0.043175l-0.043175,-0.027756l-0.033923,0.006168l-0.024672,-0.018504l-0.006168,-0.049343l-0.083267,-0.077099l-0.033923,0.003084l-0.012336,0.030839l0.055511,0.095602l0.043175,0.067847l0.027756,0.070931l0.046259,0.018504Z M2294.143401,804.265311l0.02949,0.014745l0.01966,-0.012288l-0.022118,-0.014745l0.007373,-0.017203l-0.012288,-0.01966l-0.017203,0.002458l-0.014745,0.027033l0.00983,0.01966Z M2294.234329,804.294801l0.017203,-0.012288l-0.002458,-0.01966h-0.017203l-0.012288,0.022118l0.014745,0.00983Z M2294.219584,804.243193l0.012288,-0.00983l-0.012288,-0.024575l-0.017203,-0.012288l-0.017203,0.00983l0.002458,0.01966l0.031948,0.017203Z M2286.493136,799.038163l0.090928,0.022118l0.034405,-0.022118l0.004915,-0.034405l-0.014745,-0.004915l-0.00983,0.01966l-0.017203,0.012288l-0.066353,-0.022118l0.002458,-0.02949l-0.024575,-0.00983l-0.022118,0.034405l0.022118,0.034405Z M2286.588979,798.961979l0.017203,0.00983l0.017203,-0.027033l-0.00983,-0.01966l-0.01966,0.004915l-0.004915,0.031948Z M2286.488221,798.735887l0.022118,-0.012288l-0.004915,-0.02949l0.01966,-0.031948l-0.012288,-0.031948l-0.024575,0.004915l-0.017203,0.041778l0.017203,0.058981Z M2286.547202,798.711312l0.012288,0.01966l-0.004915,0.024575l0.017203,0.014745l0.00983,-0.041778l-0.01966,-0.034405l-0.01966,-0.017203l-0.017203,0.00983l0.002458,0.022118l0.01966,0.002458Z M2286.588979,798.812071l0.01966,-0.007373l-0.002458,-0.01966l-0.012288,-0.00983l-0.012288,0.017203l0.007373,0.01966Z M2286.596352,798.893169l0.014745,0.002458l0.007373,-0.014745l-0.01966,-0.004915l-0.014745,0.00983l0.012288,0.007373Z M2286.586522,798.851391h0.024575l0.007373,-0.014745l-0.017203,-0.007373l-0.017203,0.004915l0.002458,0.017203Z M2287.753556,791.52176l0.052427,0.012336l0.064763,-0.012336l0.021588,-0.027756l-0.021588,-0.040091l-0.092518,-0.012336l-0.049343,0.006168l-0.006168,0.037007l0.030839,0.037007Z M2280.944197,792.792347l0.040091,-0.01542l0.018504,-0.046259l-0.003084,-0.074015l-0.021588,-0.058595h-0.030839l-0.040091,0.070931l-0.006168,0.061679l0.043175,0.061679Z M2279.302428,788.451159l0.090928,0.036863l0.031948,-0.004915l-0.002458,-0.01966l-0.04915,-0.036863l-0.071268,-0.017203l-0.017203,0.01966l0.017203,0.022118Z M2279.668599,788.54946l0.017203,-0.012288l-0.044235,-0.024575l-0.01966,0.004915l0.007373,0.017203l0.03932,0.014745Z M2279.693174,788.605983l0.03932,0.068811l-0.022118,-0.004915l-0.044235,-0.061438l-0.031948,-0.01966l-0.00983,0.01966l0.04915,0.044235l0.068811,0.078641l0.046693,0.068811l0.022118,0.002458l-0.036863,-0.073726l0.002458,-0.034405l-0.03932,-0.100758l-0.036863,-0.03932l-0.014745,0.012288l0.007373,0.03932Z "/>
</svg>
