<svg xmlns="http://www.w3.org/2000/svg" viewBox="1375.805 783.105 4.613 10.644">
  <path d="M1380.265032,784.699427l0.061864,-0.055678l0.049491,-0.142287l-0.024746,-0.167033l-0.049491,-0.012373l-0.061864,0.08661l0.006186,0.117542l-0.055678,0.080423l-0.006186,0.080423l0.080423,0.012373Z M1378.638009,786.549161l0.111355,0.012373l0.030932,-0.043305l-0.074237,-0.074237h-0.06805l-0.055678,0.043305l0.055678,0.061864Z M1378.371994,786.802803l0.148474,0.111355l0.123728,0.15466l0.204151,0.117542l0.080423,-0.012373l0.030932,-0.148474l-0.049491,-0.061864l-0.105169,-0.012373l-0.092796,-0.055678l-0.167033,-0.179406l-0.167033,-0.055678l-0.049491,0.037118l0.043305,0.105169Z M1378.563772,785.670692l0.055678,-0.024746l0.030932,-0.049491l-0.024746,-0.043305l-0.06805,0.012373l-0.043305,0.080423l0.049491,0.024746Z M1379.021566,783.752908l-0.06805,0.148474l0.006186,0.092796l0.037118,-0.006186l0.030932,-0.08661l0.055678,-0.098982l-0.018559,-0.055678l-0.043305,0.006186Z M1378.797309,784.410213l-0.013919,0.185592l0.046398,0.00464l0.037118,-0.041758l0.115995,-0.366544v-0.125275l-0.037118,-0.00464l-0.148474,0.347985Z M1378.755551,784.734999l0.027839,0.092796l0.046398,0.00464l0.023199,-0.083516l-0.037118,-0.088156l-0.046398,-0.00464l-0.013919,0.078877Z M1378.829787,785.022667l0.051038,-0.046398l0.013919,-0.083516l-0.037118,-0.018559l-0.051038,0.041758l-0.00928,0.092796l0.032479,0.013919Z M1378.959702,785.008747l0.051038,-0.046398l0.00928,-0.060317l-0.032479,-0.023199l-0.041758,0.027839l-0.027839,0.083516l0.041758,0.018559Z M1379.595354,786.892506l0.111355,-0.074237l0.129914,-0.185592v-0.120635l0.023199,-0.060317l0.051038,-0.013919l0.027839,-0.088156l-0.041758,-0.088156l0.00928,-0.046398l0.078877,-0.060317l0.129914,-0.264469l0.023199,-0.162393l0.111355,-0.371184l0.051038,-0.496459l-0.046398,-0.097436h-0.069597l-0.018559,0.139194l-0.074237,0.046398l-0.041758,-0.027839l0.023199,-0.083516l-0.00464,-0.134554l0.041758,-0.106715l0.023199,-0.106715l-0.018559,-0.097436l0.013919,-0.213431l0.032479,-0.069597l0.069597,-0.00464l0.078877,0.051038l0.051038,-0.00464l0.060317,-0.22271l-0.032479,-0.23199l0.018559,-0.310867l-0.051038,-0.102076l-0.069597,0.00928v0.097436l-0.083516,0.111355l-0.176312,0.055678l-0.041758,0.064957l0.046398,0.185592l0.046398,0.088156l-0.037118,0.027839l-0.092796,-0.088156l-0.111355,-0.218071l-0.250549,-0.194872l-0.162393,-0.041758l-0.069597,0.032479l-0.083516,-0.018559l-0.097436,-0.092796l-0.027839,-0.190232l-0.041758,-0.00464l-0.037118,0.069597l0.027839,0.111355l-0.027839,0.259829l0.055678,0.162393l0.148474,0.143834l-0.013919,0.032479l-0.115995,-0.013919l-0.055678,0.041758l0.023199,0.106715l0.069597,0.046398l-0.018559,0.111355l-0.106715,0.088156l0.00464,0.055678l0.194872,0.037118l0.120635,0.092796l-0.013919,0.046398l-0.102076,0.00928l-0.097436,0.180952l0.041758,0.060317l-0.013919,0.051038l-0.051038,0.041758l0.018559,0.060317l0.180952,0.102076v0.069597l-0.041758,0.055678l0.032479,0.027839l0.102076,-0.069597l0.046398,-0.097436l0.041758,0.00928l0.00464,0.078877l-0.027839,0.171673l-0.115995,0.111355h-0.190232l-0.083516,0.032479l-0.088156,-0.037118l-0.064957,-0.125275h-0.046398l-0.027839,0.088156l0.055678,0.078877l0.143834,0.064957l0.143834,-0.013919l0.069597,0.027839l0.115995,0.111355l-0.051038,0.092796l-0.060317,0.027839l-0.078877,-0.018559l-0.051038,0.041758l0.013919,0.115995l-0.051038,0.051038l-0.106715,-0.00928l-0.046398,0.041758l0.051038,0.167033l0.060317,0.051038l-0.00928,0.051038l-0.088156,0.032479l-0.055678,-0.013919l-0.064957,0.069597v0.23663l0.051038,0.055678l-0.027839,0.037118h-0.046398l-0.046398,0.064957l0.023199,0.129914l0.069597,0.064957l0.111355,-0.041758l0.143834,0.037118l0.115995,0.111355l0.046398,-0.013919l-0.018559,-0.083516l0.060317,-0.027839l0.069597,0.051038l-0.00464,0.060317l-0.041758,0.060317l0.00464,0.074237h0.041758l0.018559,-0.078877l0.078877,-0.055678l-0.00928,-0.051038l0.037118,-0.041758l0.051038,0.013919Z M1376.019615,789.020628h0.049491l0.043305,0.136101l0.012373,0.117542l0.040212,0.064957l0.003093,0.052584l-0.037118,0.037118l-0.00928,0.058771l0.046398,0.108262l-0.00928,0.052584l-0.055678,0.015466l-0.074237,-0.015466l-0.034025,-0.06805l0.015466,-0.105169l-0.00928,-0.312413l0.018559,-0.142287Z M1376.245419,789.481515l0.027839,-0.012373l0.021652,-0.049491l-0.015466,-0.024746l-0.030932,0.006186l-0.030932,0.058771l0.027839,0.021652Z M1376.485577,793.127431l0.034509,0.00986l0.00493,-0.019719l-0.022184,-0.032044l-0.019719,-0.007395l-0.021169,0.016239l0.023634,0.033059Z M1376.786294,792.885871l0.032044,0.014789l0.017254,-0.014789l-0.014789,-0.027114l-0.024649,-0.00493l-0.019719,0.00986l0.00986,0.022184Z M1376.902144,792.969678l0.029579,0.014789l0.017254,-0.012324l-0.017254,-0.032044l-0.022184,-0.007395l-0.017254,0.014789l0.00986,0.022184Z M1376.793689,793.38378l0.012324,0.041903l0.017254,0.012324l0.019719,-0.014789l-0.007395,-0.034509l-0.024649,-0.014789l-0.017254,0.00986Z M1376.492875,788.958764l0.018559,0.15466l0.040212,0.092796l-0.037118,0.262922l-0.055678,0.064957l-0.040212,0.167033l-0.114448,0.08661l-0.151567,0.030932l-0.064957,0.055678l-0.037118,0.151567l-0.052584,0.08661l0.003093,0.074237l-0.027839,0.080423l-0.024746,-0.012373l0.006186,-0.07733l-0.040212,-0.123728l0.015466,-0.083516l-0.043305,-0.034025l-0.046398,0.021652l-0.018559,0.08661l0.015466,0.074237v0.083516l-0.030932,0.071144l0.00928,0.272202l0.055678,0.185592l0.06805,0.083516l0.00928,0.052584l-0.018559,0.046398l0.003093,0.06805l0.064957,0.136101l0.006186,0.293854l-0.030932,0.114448l-0.126821,0.105169l-0.003093,0.08661l0.092796,0.089703l0.012373,0.102076l-0.018559,0.058771v0.080423l0.055678,0.052584l0.015466,0.071144l-0.003093,0.052584l0.049491,0.049491l0.052584,0.006186l0.129914,0.123728l0.098982,0.185592l0.120635,0.108262l0.083516,0.012373l0.043305,-0.024746l-0.012373,-0.120635l-0.088156,-0.134554v-0.106715l0.023199,-0.032479l0.046398,0.027839l0.064957,0.074237l0.018559,-0.013919l-0.018559,-0.083516l-0.055678,-0.074237l0.013919,-0.037118l0.097436,-0.00464l0.134554,0.167033l0.023199,0.125275l0.083516,0.129914l0.074237,0.00928l0.134554,0.129914l0.046398,0.148474l-0.027839,0.111355l0.037118,0.041758l0.041758,-0.018559l0.037118,0.013919l0.00928,0.088156l0.050073,0.073624l0.024164,-0.008667l-0.018559,-0.092796l0.027839,-0.055678l0.00464,-0.115995l-0.064957,-0.139194l-0.115995,-0.092796l-0.027839,-0.064957l0.037118,-0.032479l0.037118,0.007733l0.037118,0.038665h0.032479l0.013919,-0.047945l0.043305,-0.034025l0.043305,-0.003093l0.061864,-0.06805l0.027839,0.015466l-0.034025,0.071144l-0.06805,0.034025l-0.055678,0.064957l0.00928,0.060317l0.051038,0.023199l0.060317,0.115995l0.060317,0.320146l0.088156,0.134554l0.106715,0.250549l0.185592,0.162393l0.115995,0.00464l0.115995,-0.055678l0.23663,-0.22735l0.074237,-0.245909l-0.00464,-0.120635l-0.139194,-0.23199l-0.139194,-0.375824l-0.027839,-0.278388l0.018559,-0.296947l-0.013919,-0.139194l-0.064957,-0.115995l-0.060317,-0.171673l-0.092796,-0.055678l-0.055678,0.018559l-0.00464,0.106715l0.064957,0.060317l0.041758,0.180952l-0.037118,0.064957l-0.106715,0.00928l-0.055678,-0.069597l-0.055678,-0.00464l-0.055678,0.069597h-0.060317l-0.027839,-0.060317l-0.074237,-0.00928l-0.074237,0.078877l-0.046398,-0.00928l0.00464,-0.055678l0.111355,-0.134554l0.013919,-0.088156l-0.060317,-0.083516l0.00464,-0.296947l0.027839,-0.157753l-0.037118,-0.069597l-0.078877,-0.00928l-0.046398,-0.041758l0.018559,-0.078877l-0.046398,-0.129914l-0.092796,-0.078877l-0.167033,-0.426862l-0.083516,-0.417582l0.046398,-0.208791l0.00928,-0.264469l-0.105169,-0.24127l-0.262922,-0.315506l-0.06805,0.013919l-0.043305,0.174766Z M1377.358971,793.29543l0.00928,-0.052584l-0.012373,-0.027839l-0.018559,0.006186l-0.015466,0.034025l0.018559,0.043305l0.018559,-0.003093Z "/>
</svg>
