<svg xmlns="http://www.w3.org/2000/svg" viewBox="1312.556 757.512 71.589 71.462">
  <path d="M1380.265032,784.699427l0.061864,-0.055678l0.049491,-0.142287l-0.024746,-0.167033l-0.049491,-0.012373l-0.061864,0.08661l0.006186,0.117542l-0.055678,0.080423l-0.006186,0.080423l0.080423,0.012373Z M1378.638009,786.549161l0.111355,0.012373l0.030932,-0.043305l-0.074237,-0.074237h-0.06805l-0.055678,0.043305l0.055678,0.061864Z M1378.371994,786.802803l0.148474,0.111355l0.123728,0.15466l0.204151,0.117542l0.080423,-0.012373l0.030932,-0.148474l-0.049491,-0.061864l-0.105169,-0.012373l-0.092796,-0.055678l-0.167033,-0.179406l-0.167033,-0.055678l-0.049491,0.037118l0.043305,0.105169Z M1378.563772,785.670692l0.055678,-0.024746l0.030932,-0.049491l-0.024746,-0.043305l-0.06805,0.012373l-0.043305,0.080423l0.049491,0.024746Z M1379.021566,783.752908l-0.06805,0.148474l0.006186,0.092796l0.037118,-0.006186l0.030932,-0.08661l0.055678,-0.098982l-0.018559,-0.055678l-0.043305,0.006186Z M1378.797309,784.410213l-0.013919,0.185592l0.046398,0.00464l0.037118,-0.041758l0.115995,-0.366544v-0.125275l-0.037118,-0.00464l-0.148474,0.347985Z M1378.755551,784.734999l0.027839,0.092796l0.046398,0.00464l0.023199,-0.083516l-0.037118,-0.088156l-0.046398,-0.00464l-0.013919,0.078877Z M1378.829787,785.022667l0.051038,-0.046398l0.013919,-0.083516l-0.037118,-0.018559l-0.051038,0.041758l-0.00928,0.092796l0.032479,0.013919Z M1378.959702,785.008747l0.051038,-0.046398l0.00928,-0.060317l-0.032479,-0.023199l-0.041758,0.027839l-0.027839,0.083516l0.041758,0.018559Z M1379.595354,786.892506l0.111355,-0.074237l0.129914,-0.185592v-0.120635l0.023199,-0.060317l0.051038,-0.013919l0.027839,-0.088156l-0.041758,-0.088156l0.00928,-0.046398l0.078877,-0.060317l0.129914,-0.264469l0.023199,-0.162393l0.111355,-0.371184l0.051038,-0.496459l-0.046398,-0.097436h-0.069597l-0.018559,0.139194l-0.074237,0.046398l-0.041758,-0.027839l0.023199,-0.083516l-0.00464,-0.134554l0.041758,-0.106715l0.023199,-0.106715l-0.018559,-0.097436l0.013919,-0.213431l0.032479,-0.069597l0.069597,-0.00464l0.078877,0.051038l0.051038,-0.00464l0.060317,-0.22271l-0.032479,-0.23199l0.018559,-0.310867l-0.051038,-0.102076l-0.069597,0.00928v0.097436l-0.083516,0.111355l-0.176312,0.055678l-0.041758,0.064957l0.046398,0.185592l0.046398,0.088156l-0.037118,0.027839l-0.092796,-0.088156l-0.111355,-0.218071l-0.250549,-0.194872l-0.162393,-0.041758l-0.069597,0.032479l-0.083516,-0.018559l-0.097436,-0.092796l-0.027839,-0.190232l-0.041758,-0.00464l-0.037118,0.069597l0.027839,0.111355l-0.027839,0.259829l0.055678,0.162393l0.148474,0.143834l-0.013919,0.032479l-0.115995,-0.013919l-0.055678,0.041758l0.023199,0.106715l0.069597,0.046398l-0.018559,0.111355l-0.106715,0.088156l0.00464,0.055678l0.194872,0.037118l0.120635,0.092796l-0.013919,0.046398l-0.102076,0.00928l-0.097436,0.180952l0.041758,0.060317l-0.013919,0.051038l-0.051038,0.041758l0.018559,0.060317l0.180952,0.102076v0.069597l-0.041758,0.055678l0.032479,0.027839l0.102076,-0.069597l0.046398,-0.097436l0.041758,0.00928l0.00464,0.078877l-0.027839,0.171673l-0.115995,0.111355h-0.190232l-0.083516,0.032479l-0.088156,-0.037118l-0.064957,-0.125275h-0.046398l-0.027839,0.088156l0.055678,0.078877l0.143834,0.064957l0.143834,-0.013919l0.069597,0.027839l0.115995,0.111355l-0.051038,0.092796l-0.060317,0.027839l-0.078877,-0.018559l-0.051038,0.041758l0.013919,0.115995l-0.051038,0.051038l-0.106715,-0.00928l-0.046398,0.041758l0.051038,0.167033l0.060317,0.051038l-0.00928,0.051038l-0.088156,0.032479l-0.055678,-0.013919l-0.064957,0.069597v0.23663l0.051038,0.055678l-0.027839,0.037118h-0.046398l-0.046398,0.064957l0.023199,0.129914l0.069597,0.064957l0.111355,-0.041758l0.143834,0.037118l0.115995,0.111355l0.046398,-0.013919l-0.018559,-0.083516l0.060317,-0.027839l0.069597,0.051038l-0.00464,0.060317l-0.041758,0.060317l0.00464,0.074237h0.041758l0.018559,-0.078877l0.078877,-0.055678l-0.00928,-0.051038l0.037118,-0.041758l0.051038,0.013919Z M1376.019615,789.020628h0.049491l0.043305,0.136101l0.012373,0.117542l0.040212,0.064957l0.003093,0.052584l-0.037118,0.037118l-0.00928,0.058771l0.046398,0.108262l-0.00928,0.052584l-0.055678,0.015466l-0.074237,-0.015466l-0.034025,-0.06805l0.015466,-0.105169l-0.00928,-0.312413l0.018559,-0.142287Z M1376.245419,789.481515l0.027839,-0.012373l0.021652,-0.049491l-0.015466,-0.024746l-0.030932,0.006186l-0.030932,0.058771l0.027839,0.021652Z M1376.485577,793.127431l0.034509,0.00986l0.00493,-0.019719l-0.022184,-0.032044l-0.019719,-0.007395l-0.021169,0.016239l0.023634,0.033059Z M1376.786294,792.885871l0.032044,0.014789l0.017254,-0.014789l-0.014789,-0.027114l-0.024649,-0.00493l-0.019719,0.00986l0.00986,0.022184Z M1376.902144,792.969678l0.029579,0.014789l0.017254,-0.012324l-0.017254,-0.032044l-0.022184,-0.007395l-0.017254,0.014789l0.00986,0.022184Z M1376.793689,793.38378l0.012324,0.041903l0.017254,0.012324l0.019719,-0.014789l-0.007395,-0.034509l-0.024649,-0.014789l-0.017254,0.00986Z M1376.492875,788.958764l0.018559,0.15466l0.040212,0.092796l-0.037118,0.262922l-0.055678,0.064957l-0.040212,0.167033l-0.114448,0.08661l-0.151567,0.030932l-0.064957,0.055678l-0.037118,0.151567l-0.052584,0.08661l0.003093,0.074237l-0.027839,0.080423l-0.024746,-0.012373l0.006186,-0.07733l-0.040212,-0.123728l0.015466,-0.083516l-0.043305,-0.034025l-0.046398,0.021652l-0.018559,0.08661l0.015466,0.074237v0.083516l-0.030932,0.071144l0.00928,0.272202l0.055678,0.185592l0.06805,0.083516l0.00928,0.052584l-0.018559,0.046398l0.003093,0.06805l0.064957,0.136101l0.006186,0.293854l-0.030932,0.114448l-0.126821,0.105169l-0.003093,0.08661l0.092796,0.089703l0.012373,0.102076l-0.018559,0.058771v0.080423l0.055678,0.052584l0.015466,0.071144l-0.003093,0.052584l0.049491,0.049491l0.052584,0.006186l0.129914,0.123728l0.098982,0.185592l0.120635,0.108262l0.083516,0.012373l0.043305,-0.024746l-0.012373,-0.120635l-0.088156,-0.134554v-0.106715l0.023199,-0.032479l0.046398,0.027839l0.064957,0.074237l0.018559,-0.013919l-0.018559,-0.083516l-0.055678,-0.074237l0.013919,-0.037118l0.097436,-0.00464l0.134554,0.167033l0.023199,0.125275l0.083516,0.129914l0.074237,0.00928l0.134554,0.129914l0.046398,0.148474l-0.027839,0.111355l0.037118,0.041758l0.041758,-0.018559l0.037118,0.013919l0.00928,0.088156l0.050073,0.073624l0.024164,-0.008667l-0.018559,-0.092796l0.027839,-0.055678l0.00464,-0.115995l-0.064957,-0.139194l-0.115995,-0.092796l-0.027839,-0.064957l0.037118,-0.032479l0.037118,0.007733l0.037118,0.038665h0.032479l0.013919,-0.047945l0.043305,-0.034025l0.043305,-0.003093l0.061864,-0.06805l0.027839,0.015466l-0.034025,0.071144l-0.06805,0.034025l-0.055678,0.064957l0.00928,0.060317l0.051038,0.023199l0.060317,0.115995l0.060317,0.320146l0.088156,0.134554l0.106715,0.250549l0.185592,0.162393l0.115995,0.00464l0.115995,-0.055678l0.23663,-0.22735l0.074237,-0.245909l-0.00464,-0.120635l-0.139194,-0.23199l-0.139194,-0.375824l-0.027839,-0.278388l0.018559,-0.296947l-0.013919,-0.139194l-0.064957,-0.115995l-0.060317,-0.171673l-0.092796,-0.055678l-0.055678,0.018559l-0.00464,0.106715l0.064957,0.060317l0.041758,0.180952l-0.037118,0.064957l-0.106715,0.00928l-0.055678,-0.069597l-0.055678,-0.00464l-0.055678,0.069597h-0.060317l-0.027839,-0.060317l-0.074237,-0.00928l-0.074237,0.078877l-0.046398,-0.00928l0.00464,-0.055678l0.111355,-0.134554l0.013919,-0.088156l-0.060317,-0.083516l0.00464,-0.296947l0.027839,-0.157753l-0.037118,-0.069597l-0.078877,-0.00928l-0.046398,-0.041758l0.018559,-0.078877l-0.046398,-0.129914l-0.092796,-0.078877l-0.167033,-0.426862l-0.083516,-0.417582l0.046398,-0.208791l0.00928,-0.264469l-0.105169,-0.24127l-0.262922,-0.315506l-0.06805,0.013919l-0.043305,0.174766Z M1377.358971,793.29543l0.00928,-0.052584l-0.012373,-0.027839l-0.018559,0.006186l-0.015466,0.034025l0.018559,0.043305l0.018559,-0.003093Z  M1321.478585,805.202171l0.013934,-0.024598l0.048769,0.010542l0.055736,0.084337l-0.027868,0.01757l-0.05922,-0.038654l-0.031352,-0.049196Z M1321.213839,804.26744l0.020901,-0.024598l-0.017447,-0.078486l-0.034806,-0.009364l-0.017418,0.03514l0.010451,0.049196l0.038319,0.028112Z M1319.12025,800.275508l-0.111472,-0.059738l-0.041802,0.010542l0.003484,0.049196l0.087088,0.101907l0.087088,0.021084l0.022062,-0.026941l-0.046447,-0.09605Z M1318.914723,800.198199l0.027868,-0.024598l-0.010451,-0.066766l-0.055736,-0.01757l-0.031352,0.031626l0.010451,0.05271l0.05922,0.024598Z M1319.12025,800.08575l0.048769,-0.105421l0.010451,-0.080823l-0.041802,-0.045682l-0.125406,-0.045682l-0.041802,0.021084v0.045682l0.083604,0.05271l0.017418,0.042168l-0.018579,0.104249l0.029029,0.018741l0.038319,-0.007028Z M1383.696938,819.221087l0.030932,0.018559l0.030932,-0.024746v-0.037118l-0.034025,-0.024746l-0.027839,0.015466v0.052584Z M1383.41855,818.973631l0.129914,0.06805l0.012373,-0.021652l-0.058771,-0.092796l-0.080423,-0.024746l-0.034025,0.021652l0.030932,0.049491Z M1337.376267,762.463958l0.043305,-0.049491l-0.074237,-0.160846l-0.148474,-0.043305l-0.055678,0.043305l0.018559,0.105169l0.216524,0.105169Z M1337.747451,762.055656l-0.037118,0.043305l0.024746,0.055678l0.055678,0.018559l0.035572,-0.026292l-0.032479,-0.078877l-0.046398,-0.012373Z M1334.146966,764.991103l0.139194,0.074237l0.055678,-0.00464l0.00928,-0.078877l-0.041758,-0.088156l-0.185592,-0.064957l-0.037118,0.055678l0.060317,0.106715Z M1335.340941,763.781662l0.055678,0.006186l0.024746,-0.080423l-0.06805,-0.074237l-0.055678,0.012373l-0.006186,0.08661l0.049491,0.049491Z M1336.027631,763.769289l0.142287,-0.037118v-0.049491l-0.136101,-0.043305l-0.117542,0.012373l-0.006186,0.06805l0.117542,0.049491Z M1335.093485,763.429037l0.167033,0.006186l0.278388,-0.160846l0.074237,-0.160846l-0.030932,-0.22271l-0.111355,-0.043305l-0.358811,0.006186l-0.105169,0.092796l-0.024746,0.284574l0.111355,0.197965Z M1333.924255,763.311495l0.142287,0.043305l0.037118,-0.043305l-0.080423,-0.098982l-0.105169,-0.018559l-0.043305,0.043305l0.049491,0.074237Z M1336.776186,765.513854l0.024746,0.117542l0.061864,0.030932l0.092796,-0.055678l0.061864,-0.210338l-0.061864,-0.055678l-0.055678,0.012373l-0.123728,0.160846Z M1337.14737,767.697653l0.080423,-0.006186l0.08661,-0.123728l-0.024746,-0.117542l-0.074237,-0.012373l-0.074237,0.092796l0.006186,0.167033Z M1337.970161,765.600463l0.074237,0.012373l0.012373,-0.049491l-0.055678,-0.06805h-0.043305l-0.024746,0.049491l0.037118,0.055678Z M1331.245544,766.967658l0.092796,0.018559l0.160846,-0.098982h0.111355l0.204151,-0.160846l-0.024746,-0.173219l0.080423,-0.216524l0.092796,-0.06805l0.030932,-0.117542l-0.074237,-0.136101l-0.117542,-0.012373l-0.056343,0.068346l-0.017894,0.185297l-0.061864,0.080423l-0.142287,0.030932l-0.105169,-0.018559l-0.043305,-0.117542l0.018559,-0.06805l0.105169,-0.080423l-0.030932,-0.06805l-0.123728,0.006186l-0.216524,0.173219l-0.055678,0.22271l0.030932,0.111355l0.080423,0.037118l0.08661,-0.012373l0.049491,0.037118l-0.006186,0.080423l-0.111355,0.092796l-0.018559,0.111355l0.061864,0.092796Z M1331.969353,765.91597l0.123728,0.043305l0.043305,-0.037118l-0.024746,-0.049491l-0.111355,-0.030932l-0.049491,0.024746l0.018559,0.049491Z M1333.336547,767.140877l0.092796,-0.012373l0.049491,-0.061864l-0.055678,-0.061864l-0.117542,-0.006186l-0.049491,0.049491l0.012373,0.061864l0.06805,0.030932Z M1333.893323,763.868271l0.08661,-0.037118l0.117542,0.030932l0.006186,0.111355l0.049491,0.037118l0.080423,-0.037118l0.080423,0.037118l-0.018559,0.074237l-0.204151,0.123728l-0.179406,0.210338l-0.024746,0.105169l0.061864,0.092796l0.098982,0.006186l0.018559,-0.049491l0.055678,-0.018559l0.074237,0.037118l0.012373,0.105169l0.167033,0.061864l0.129914,-0.024746l0.340252,0.08661l0.334066,0.117542l0.160846,0.117542l0.08661,-0.018559l0.06805,-0.105169l0.098982,0.018559l0.037118,0.160846l0.272202,0.22271l0.06805,0.006186l0.030932,-0.080423l-0.043305,-0.123728l0.043305,-0.117542l0.061864,0.006186l0.006186,0.080423l0.080423,0.043305l0.043305,-0.037118l-0.074237,-0.142287l-0.340252,-0.259829v-0.080423l0.06805,-0.055678l0.074237,0.018559l0.018559,-0.049491l-0.049491,-0.037118l-0.129914,0.012373l-0.098982,-0.06805l-0.012373,-0.167033l0.055678,-0.092796l0.006186,-0.173219l-0.055678,-0.123728h-0.049491l-0.055678,0.055678l-0.327879,0.024746l-0.228897,0.111355l-0.253642,-0.049491l-0.210338,-0.228897l-0.030932,-0.129914l0.08661,-0.092796l0.012373,-0.074237l-0.148474,-0.08661l-0.111355,0.037118l-0.049491,0.15466l-0.123728,0.074237l-0.30932,0.049491l-0.030932,0.080423l0.06805,0.049491Z M1329.298375,765.348368l0.069597,-0.00928l0.051038,-0.037118l-0.00464,-0.041758l-0.041758,-0.00928l-0.088156,0.027839l-0.023199,0.041758l0.037118,0.027839Z M1328.031709,766.963018l0.106715,-0.00464l0.037118,-0.032479l0.023199,-0.129914l-0.013919,-0.069597l-0.046398,-0.00464l-0.115995,0.092796l-0.046398,0.120635l0.055678,0.027839Z M1328.398253,767.102212h0.078877l0.013919,-0.037118l-0.055678,-0.055678h-0.064957l-0.032479,0.032479l0.060317,0.060317Z M1328.184823,767.218207l0.097436,0.018559l0.041758,-0.032479l-0.013919,-0.092796l-0.069597,-0.041758l-0.092796,0.018559l-0.037118,0.046398l0.074237,0.083516Z M1328.565286,767.352761l0.055678,0.018559l0.032479,-0.013919l-0.00928,-0.046398l-0.046398,-0.027839l-0.041758,0.032479l0.00928,0.037118Z M1336.82877,764.309052l0.078877,0.00928l0.032479,-0.051038l-0.074237,-0.106715l-0.069597,0.00464l-0.032479,0.027839l0.064957,0.115995Z M1340.016313,760.17499l0.055678,-0.00464l0.027839,-0.032479l-0.023199,-0.037118l-0.055678,-0.00928l-0.037118,0.037118l0.032479,0.046398Z M1339.580172,760.267786h0.051038l0.032479,-0.055678l-0.027839,-0.046398l-0.060317,0.00464l-0.041758,0.032479l0.046398,0.064957Z M1335.724498,766.101562l0.074237,0.012373l0.043305,-0.037118v-0.043305l-0.092796,-0.030932l-0.037118,0.043305l0.012373,0.055678Z M1332.952991,766.466559l0.080423,0.030932l0.043305,-0.030932l-0.024746,-0.055678l-0.06805,-0.037118l-0.043305,0.018559l0.012373,0.074237Z M1329.142168,760.81219l0.080423,-0.092796l0.012373,-0.123728l-0.043305,-0.012373l-0.06805,0.08661l-0.030932,0.129914l0.049491,0.012373Z M1327.440908,761.49888l0.08661,0.06805l0.055678,-0.012373l-0.006186,-0.061864l-0.092796,-0.08661l-0.049491,0.012373l0.006186,0.080423Z M1327.496586,761.758709l0.018559,0.290761l-0.092796,0.185592l-0.043305,0.259829l0.06805,0.049491l0.074237,-0.055678l0.08661,-0.358811l0.105169,-0.210338l-0.012373,-0.247456l-0.06805,-0.043305l-0.098982,0.024746l-0.074237,-0.030932l-0.037118,0.049491l0.074237,0.08661Z M1327.267689,762.73616l-0.080423,0.173219l-0.08661,0.08661l0.024746,0.030932l0.105169,-0.080423l0.123728,-0.167033l0.018559,-0.148474l-0.061864,-0.024746l-0.049491,0.030932l0.006186,0.098982Z M1326.964555,764.103355l0.105169,-0.012373l0.012373,-0.049491l-0.061864,-0.049491l-0.06805,-0.012373l-0.055678,0.055678l0.06805,0.06805Z M1326.93981,764.36937l0.049491,-0.006186l0.049491,-0.06805v-0.08661l-0.043305,-0.018559l-0.074237,0.049491l-0.024746,0.06805l0.043305,0.061864Z M1326.78515,765.14267l0.160846,0.080423l0.160846,-0.006186l0.08661,-0.123728l-0.037118,-0.055678l-0.123728,0.061864l-0.15466,-0.117542l-0.018559,-0.136101h-0.049491l-0.061864,0.105169v0.117542l0.037118,0.074237Z M1326.370661,766.064443l0.055678,-0.024746l0.018559,-0.049491l-0.037118,-0.043305l-0.049491,0.018559l-0.030932,0.06805l0.043305,0.030932Z M1328.071921,766.410882l0.006186,0.06805l0.105169,0.006186l0.06805,0.049491l-0.012373,0.080423l0.061864,0.030932l0.334066,-0.15466l0.15466,-0.334066l0.098982,-0.129914l-0.018559,-0.06805l-0.173219,0.018559l-0.037118,-0.061864l0.08661,-0.092796l-0.037118,-0.160846l-0.136101,-0.012373l-0.173219,0.210338l-0.303134,0.123728l-0.080423,0.08661l0.037118,0.055678h0.136101l0.080423,0.080423l-0.006186,0.117542l-0.191778,0.08661Z M1327.001674,765.897411l0.080423,-0.030932l0.043305,0.037118l-0.179406,0.284574l0.024746,0.098982l0.111355,0.037118l0.173219,-0.080423l0.049491,0.024746l-0.092796,0.160846l0.012373,0.105169l0.117542,0.074237l0.043305,0.167033l-0.055678,0.123728l-0.030932,0.247456l0.080423,0.092796l0.136101,-0.012373l0.098982,-0.098982l0.142287,-0.074237l0.098982,-0.142287v-0.15466l-0.173219,-0.167033l0.012373,-0.080423l0.111355,-0.080423l0.024746,-0.148474l-0.055678,-0.030932l-0.123728,0.080423l-0.204151,-0.123728l-0.074237,-0.259829l0.049491,-0.08661l-0.006186,-0.117542l-0.061864,-0.105169l-0.160846,-0.055678l-0.024746,-0.117542l-0.080423,-0.024746l-0.148474,0.15466l-0.055678,0.228897l0.117542,0.074237Z M1327.212011,769.497895l0.043305,-0.018559l0.024746,-0.061864l-0.043305,-0.024746l-0.043305,0.049491l0.018559,0.055678Z M1377.977611,810.47661l0.061864,0.16394l0.102076,0.043305l0.049491,-0.040212v-0.098982l-0.052584,-0.055678l-0.012373,-0.08661l0.024746,-0.058771l-0.037118,-0.040212l-0.179406,0.027839l-0.034025,0.06805l0.07733,0.07733Z M1378.135364,810.999361l0.037118,-0.027839l-0.003093,-0.037118l-0.034025,-0.015466l-0.040212,0.012373l-0.012373,0.046398l0.052584,0.021652Z M1378.330236,811.123089l0.043305,-0.006186l0.015466,-0.037118l-0.034025,-0.049491l-0.046398,-0.015466l-0.024746,0.021652l0.012373,0.06805l0.034025,0.018559Z M1378.290024,810.918938h0.111355l0.08661,0.061864l-0.024746,0.049491l0.006186,0.080423l0.089703,0.071144l0.080423,0.126821l0.030932,-0.015466l0.00928,-0.117542l0.040212,-0.117542l-0.034025,-0.046398l-0.064957,-0.012373l-0.191778,-0.139194l-0.126821,-0.00928l-0.034025,0.037118l0.021652,0.030932Z M1377.711596,810.210595l0.055678,0.018559l0.037118,-0.00928l0.012373,-0.034025l-0.037118,-0.015466l-0.055678,0.00928l-0.012373,0.030932Z M1377.513631,810.201315l0.043305,-0.034025l0.046398,-0.133008l-0.030932,-0.043305l-0.07733,-0.00928l-0.074237,0.055678l-0.006186,0.098982l0.049491,0.071144l0.049491,-0.006186Z M1377.297107,810.00335l0.123728,-0.06805l0.102076,-0.021652l0.00928,-0.030932l-0.064957,-0.024746h-0.083516l-0.098982,0.08661l-0.015466,0.046398l0.027839,0.012373Z M1378.46015,805.799692h0.148474l0.037118,-0.061864l-0.012373,-0.080423l-0.142287,-0.061864l-0.080423,0.012373l-0.023199,0.092796l0.07269,0.098982Z M1377.867802,807.417435l0.102076,0.064957l0.060317,-0.00464l0.00464,-0.051038l-0.078877,-0.092796l-0.083516,-0.013919l-0.032479,0.037118l0.027839,0.060317Z M1377.974518,803.575681l0.153113,0.018559l0.023199,-0.032479l-0.046398,-0.027839l-0.111355,-0.013919l-0.037118,0.023199l0.018559,0.032479Z M1379.371097,804.369086l0.041758,0.023199l0.069597,-0.046398l0.060317,-0.00928l0.018559,-0.060317l-0.046398,-0.041758l-0.157753,-0.00464l-0.023199,0.037118l0.037118,0.102076Z M1379.686604,804.090698l0.097436,-0.041758l0.199511,-0.301587l-0.00928,-0.074237h-0.041758l-0.097436,0.102076l-0.106715,0.027839l-0.078877,0.078877l-0.027839,0.176312l0.064957,0.032479Z M1378.60553,803.622079l0.092796,0.129914l0.255189,0.092796l0.357265,-0.032479l0.22735,-0.083516l0.013919,-0.069597l-0.064957,-0.074237l-0.00464,-0.074237l0.083516,-0.120635l0.180952,-0.120635h0.143834l0.111355,0.064957l0.078877,-0.00464l0.102076,-0.064957l0.088156,-0.208791l-0.018559,-0.111355l0.027839,-0.092796l0.069597,-0.055678l0.125275,-0.213431l-0.00464,-0.097436l0.102076,-0.276841l0.069597,-0.60936l-0.023199,-0.092796h-0.041758l-0.139194,0.190232l-0.208791,0.408302l-0.092796,0.083516l-0.194872,0.078877l-0.129914,0.129914l0.00928,0.046398l0.115995,0.013919l-0.00464,0.038665l-0.22271,0.133008h-0.208791l-0.208791,0.041758l-0.064957,0.074237l0.032479,0.051038l0.051038,-0.00928l0.037118,0.018559l-0.041758,0.083516l-0.143834,0.129914l-0.060317,0.148474l-0.115995,0.143834l-0.162393,0.037118l-0.084998,0.043027l-0.105233,0.110086l-0.102076,0.013919l-0.006186,0.038665l0.080423,0.06805Z M1379.604634,803.73962l0.027839,0.055678l0.024746,-0.00928l0.003093,-0.058771l-0.012373,-0.037118l-0.027839,0.003093l-0.015466,0.046398Z M1377.13626,799.956637v0.043305l0.117542,0.040212l0.08661,-0.012373l0.021652,-0.043305l-0.040212,-0.07733l-0.074237,-0.00928l-0.111355,0.058771Z M1377.185752,800.869131h0.030932l0.027839,-0.021652v-0.034025l-0.034025,-0.012373l-0.040212,0.012373l-0.00928,0.037118l0.024746,0.018559Z M1377.853883,799.025583l0.102076,-0.034025l0.012373,-0.040212l-0.074237,-0.040212l-0.092796,-0.003093l-0.061864,0.064957l0.012373,0.052584h0.102076Z M1377.906467,799.239014l0.06805,-0.030932l0.08661,-0.139194l-0.003093,-0.058771h-0.034025l-0.14538,0.142287l-0.012373,0.071144l0.040212,0.015466Z M1376.308829,795.00133l0.037118,-0.013919l-0.00464,-0.041758l-0.041758,-0.032479l-0.046398,0.013919v0.046398l0.055678,0.027839Z M1376.392346,795.279718l0.069597,0.027839l0.023199,-0.023199l-0.078877,-0.097436h-0.055678l-0.018559,0.032479l0.060317,0.060317Z M1375.60358,784.705614l0.013919,0.097436l0.055678,0.046398l0.041758,-0.032479l-0.032479,-0.125275l-0.046398,-0.018559l-0.032479,0.032479Z M1375.58966,785.048959l-0.037118,0.046398l-0.037118,0.120635l0.013919,0.051038l0.037118,-0.00928l0.046398,-0.115995l0.00928,-0.083516l-0.032479,-0.00928Z M1375.649978,783.85653l0.027839,0.060317l0.055678,0.00928l0.037118,-0.088156l-0.00928,-0.074237l-0.055678,-0.023199l-0.088156,0.032479l-0.00928,0.064957l0.041758,0.018559Z M1377.631172,808.108765l-0.023199,0.074237l0.027839,0.037118l0.046398,-0.027839l0.023199,-0.060317l-0.023199,-0.032479l-0.051038,0.00928Z M1377.900281,808.762977l0.092796,0.051038l0.032479,-0.013919l-0.023199,-0.097436l-0.092796,-0.088156l-0.055678,0.00464l-0.018559,0.055678l0.064957,0.088156Z M1332.383842,760.754965l0.060317,-0.00928l0.00928,-0.037118l-0.027839,-0.032479l-0.032479,0.00464l-0.032479,0.041758l0.023199,0.032479Z  M1323.112351,807.855259l0.011,-0.052l0.041,-0.011l0.049,0.021l0.065,-0.084l0.08,0.01l0.086,0.078l0.038,0.003l0.017,-0.039l0.042,0.007l0.048,0.043l0.042,0.172l0.093,0.046l0.111,-0.011l0.131,-0.155l0.073,0.014v0.046l0.024,0.007l0.028,-0.028l0.069,0.021l0.048,-0.003l0.028,-0.039h0.045l0.017,-0.025l-0.031,-0.049l0.021,-0.035l0.062,-0.025l0.027,0.011l0.014,0.067l0.08,0.084l0.038,0.105l0.11,0.064h0.263l0.062,0.024l0.09,0.106l0.073,0.133l0.09,0.035l0.048,-0.028l0.173,0.004l0.045,0.038l0.079,0.029l0.045,0.066l0.062,0.032l0.018,0.105l0.045,0.081l0.003,0.063l-0.066,0.141l0.003,0.112l0.041,0.164l-0.041,0.066l-0.005,0.061l0.055,0.037l0.01,0.057l0.037,0.065l0.087,0.028l0.097,0.103l0.152,0.094l0.147,0.038l0.06,0.103l0.056,0.047l0.027,0.075l0.106,0.023l0.046,0.033l0.042,0.004l0.046,-0.028h0.046l0.065,0.028h0.05l0.106,-0.107l0.046,-0.066l0.143,-0.019l0.046,-0.032l0.406,0.06l0.631,0.282l0.005,0.051l-0.097,0.237l-0.004,0.056l0.055,0.117l0.018,0.15l0.166,0.22l0.152,0.113l0.159,-0.021l0.007,-0.064l0.36,-0.084l0.442,0.098l0.138,-0.042l0.097,0.056l0.118,0.197l0.415,0.239l0.559,-0.014l0.623,-0.063l0.083,0.056l0.09,0.021l0.186,0.127l-0.034,0.154l0.407,0.549l0.201,-0.05l0.207,0.043l0.222,0.105l0.473,0.026l0.226,0.05l0.049,0.075l0.031,0.146l0.048,0.029l0.184,0.01l0.077,0.08l0.013,0.077l0.312,0.194l0.062,0.003l0.123,-0.059l0.035,0.007l0.026,0.118l0.05,0.005l0.036,-0.046h0.03l0.066,0.104l0.044,0.023l0.171,0.001l0.261,-0.214l0.045,0.003l0.057,0.064l0.066,0.158l0.106,0.088l0.07,0.024l0.173,0.172l0.098,0.036l0.06,0.056l0.116,0.063l0.067,0.084l0.161,0.092l0.229,0.017l0.151,0.06l0.05,-0.003l0.059,-0.067l0.092,-0.021l0.031,-0.028l0.06,-0.004l0.092,0.063l0.081,0.004l0.126,-0.091l0.06,0.01l0.028,0.028h0.035l0.028,-0.028l0.057,0.004l0.06,0.045l0.021,0.06l0.066,0.053l0.011,0.052l0.077,0.046l0.053,-0.007l0.046,0.025l0.014,0.038l0.028,0.018l0.053,-0.011l0.031,0.014l0.008,0.067l0.073,0.046l0.109,0.13l-0.003,0.031l-0.039,0.029l0.011,0.08l0.045,0.014l0.05,0.074l0.077,0.053l0.12,-0.004l0.116,0.053h0.045l0.036,-0.024l0.052,0.003l0.036,0.021l0.056,-0.003l0.144,-0.078l0.091,-0.151l0.05,-0.007l0.045,0.011l0.057,-0.007l0.067,-0.046l0.052,0.004l0.043,0.049l0.049,0.007l0.088,0.067l0.154,0.01l0.099,0.025l0.028,0.038l0.035,0.004l0.046,-0.039l0.098,0.007l0.06,0.035l0.042,-0.003l0.036,-0.056l0.08,-0.109l0.138,-0.025l0.197,0.032l0.031,0.056l0.085,0.063l0.067,0.014l0.08,0.064l0.014,0.07l0.085,0.063l0.063,0.025l0.12,0.098l0.067,0.018l0.038,0.028l0.035,0.066l0.095,0.067l0.113,0.067l0.039,0.112l0.052,0.011l0.032,-0.028l0.053,0.003l0.01,0.043l0.075,0.017l0.006,-0.07l0.021,-0.179l0.081,-0.151l0.006,-0.046l-0.02,-0.049l0.007,-0.064l0.062,-0.059l0.004,-0.042l-0.066,-0.067l-0.004,-0.081l-0.045,-0.105l-0.004,-0.067l0.063,-0.151l0.153,-0.169l0.195,-0.095l0.112,-0.074h0.066l0.07,0.035l0.073,0.095l0.014,0.039l0.031,0.032l0.052,0.007l0.049,0.038l0.021,0.053l0.059,0.053l0.063,0.024l0.077,0.067l0.062,0.095l0.15,0.13l0.178,0.112l0.376,0.366l0.324,0.327l0.223,0.182l0.097,0.116l0.032,0.144l0.097,0.152l0.147,0.154l0.418,0.517l0.066,0.151l0.108,0.147l0.167,0.134l0.129,0.151l0.007,0.056l-0.025,0.042l0.004,0.046l0.233,0.299l0.018,0.116l-0.021,0.081l-0.112,0.13l-0.01,0.063l0.038,0.091l0.091,0.053l0.198,0.425v0.2l-0.024,0.081v0.081l0.094,0.13l0.028,0.141l-0.021,0.158l-0.056,0.116l-0.045,0.295l-0.045,0.088v0.102l0.017,0.151l0.052,0.095l0.039,0.003l0.038,-0.042l0.052,0.028l0.011,0.176l-0.014,0.063l-0.121,0.096l-0.037,0.087l0.002,0.082l0.049,0.051l-0.002,0.035l-0.021,0.024l0.002,0.077l0.063,0.082l0.204,0.106l0.063,0.061v0.053l-0.04,0.061v0.043l0.17,0.142l0.002,0.031l-0.011,0.023v0.038l0.072,0.058l0.002,0.031l-0.019,0.028l0.003,0.044l0.037,0.029v0.053l-0.047,0.085l-0.002,0.065l0.149,0.134l0.055,0.129l-0.004,0.065l-0.054,0.092l-0.002,0.047l0.03,0.058l0.01,0.117l-0.014,0.183l-0.04,0.044l0.002,0.04l0.033,0.033l0.005,0.07l-0.045,0.094l-0.004,0.07l0.053,0.057v0.061l-0.053,0.072l-0.002,0.047l0.02,0.037l-0.004,0.024l-0.084,0.063l-0.06,0.08l-0.091,0.208l-0.079,0.042l-0.058,0.122l-0.035,0.101l0.01,0.084l0.034,0.026l0.061,-0.002l0.067,0.014l0.005,0.03l-0.012,0.052l0.005,0.082l0.028,0.072l-0.003,0.064l-0.025,0.044l0.018,0.085l0.098,0.117l0.295,0.18l0.03,0.059l0.012,0.075l0.095,0.084l0.218,0.091l0.04,0.04l0.007,0.061l0.069,0.087l0.028,0.061l-0.007,0.082l0.04,0.03h0.046l0.081,0.068l0.007,0.052l-0.025,0.065l-0.042,0.033l-0.014,0.07l0.023,0.096l0.045,0.026l0.062,-0.002l0.569,0.323l0.235,0.173l0.002,0.047l-0.039,0.087l0.004,0.108l0.061,0.068l0.037,0.14l0.114,0.155l0.034,0.164l0.012,0.262l-0.012,0.073v0.109h2.522l0.206,0.032l0.052,0.059l0.059,0.003l0.098,-0.052l0.035,-0.073l0.031,-0.004l0.049,0.056v0.052l0.087,0.011l0.035,-0.025h0.049l0.084,0.053l0.098,-0.01l0.023,-0.037l-0.032,-0.055l0.028,-0.042l0.097,-0.01l0.06,0.028l-0.009,0.061l0.042,0.069l0.084,0.01l0.027,-0.042l-0.037,-0.042l0.042,-0.065h0.093l0.07,0.037l0.097,-0.009l0.023,-0.079l0.061,-0.005l0.121,0.056l0.213,-0.037l0.079,0.042l0.056,-0.01l0.042,-0.069l0.251,-0.172v-0.061l0.027,-0.032h0.075l0.028,-0.07l-0.019,-0.098l0.023,-0.051l0.107,0.014l0.042,-0.046l0.218,-0.014l0.112,-0.079l0.139,-0.177l0.019,-0.065l0.097,-0.056h0.079l0.079,0.033l0.009,0.055l0.065,0.042h0.07l0.042,-0.032l0.088,0.004l0.135,0.061h0.125l0.051,-0.07l0.051,0.005l0.051,0.074l0.014,0.181l0.056,0.014l0.056,-0.046l0.083,0.004l0.028,0.084l0.093,0.075h0.098l0.153,0.074l0.028,0.093l0.107,0.2l0.074,0.009l0.07,-0.051l0.116,-0.023l0.06,-0.117l0.061,-0.009l0.051,0.042l0.018,0.088l-0.046,0.061v0.06l0.199,0.13l0.084,-0.014l0.065,-0.13l0.056,0.019v0.06l-0.042,0.028v0.033l0.139,0.079l0.005,0.056l-0.079,0.079v0.102l-0.032,0.125l0.014,0.247l0.106,0.167l0.07,0.07l0.084,0.005l0.074,-0.07l0.19,-0.037l0.07,0.028l0.023,0.111l0.102,0.047l0.14,-0.024l0.102,-0.065l0.149,0.037l0.185,-0.209l0.061,-0.004l0.051,0.055h0.042l0.037,-0.051l0.056,-0.004l0.06,0.027l0.437,-0.018l0.116,0.074l0.014,0.065l-0.079,0.247l0.041,0.107l0.061,0.018l0.065,-0.023l0.093,-0.135l0.111,-0.074l0.019,-0.061l0.074,-0.102h0.06l0.14,0.088l0.032,0.066l0.079,0.088h0.098l0.06,-0.07l0.112,-0.014l0.227,-0.158l0.089,-0.121l0.153,-0.116l0.251,-0.102l0.046,-0.135l0.116,-0.135l0.042,-0.265l0.037,-0.098h0.051l0.061,0.033l0.009,0.098l0.083,0.088l0.223,0.07l0.056,-0.005l0.047,-0.046h0.055l0.093,0.097l0.107,0.009l0.056,-0.037l0.144,-0.004l0.144,-0.112h0.065l0.097,0.037l0.112,-0.009l0.139,0.042l0.209,0.186l0.112,0.042h0.13l0.116,0.032l0.153,-0.004l0.172,0.032l0.237,0.116l0.102,0.01l0.204,-0.131l0.107,-0.009l0.135,0.037l0.093,0.075l0.06,0.107l0.098,0.069l0.102,0.005l0.107,0.019l0.107,0.065l0.106,0.004l0.116,-0.046l0.075,-0.149l0.064,-0.1l0.094,-0.084l0.184,-0.038l0.119,-0.07l0.261,-0.007l0.265,0.053h0.111l0.174,-0.081l0.164,-0.181l0.098,-0.059l0.108,-0.018l0.073,-0.048l0.146,-0.018l0.241,-0.087l0.097,-0.07l0.178,-0.219l0.014,-0.185l-0.074,-0.08v-0.067l0.035,-0.052l0.018,-0.118l0.035,-0.081l0.094,-0.041l0.052,-0.091l0.021,-0.105l0.028,-0.049l0.045,-0.027l0.017,-0.367l0.049,-0.048l0.139,-0.021l0.067,-0.06l0.021,-0.059l0.069,-0.052l0.129,-0.011l0.112,-0.101l0.184,-0.017l0.101,0.063l0.112,0.007l0.108,-0.049h0.08l0.08,0.073h0.15l0.073,0.021l0.101,-0.004l0.202,-0.09l0.118,0.007l0.032,0.042l0.038,-0.004l0.017,-0.038l0.067,-0.004l0.055,0.053l0.136,0.003l0.066,0.031h0.074l0.076,-0.034l0.178,0.024l0.146,0.08l0.091,0.011l0.059,0.062l0.021,0.129l0.042,0.081l0.069,0.007l0.046,-0.025l0.108,-0.003l0.104,0.038l0.157,0.153l0.021,0.07l0.08,0.073l0.198,0.074l0.157,0.007l0.091,0.034l0.031,0.077l0.098,0.07l0.094,0.007l0.125,-0.028l0.091,-0.133l0.087,-0.055l0.014,-0.056l0.09,-0.066l0.174,-0.067l0.227,-0.17l0.042,-0.102l0.191,-0.181l0.147,-0.094l0.059,-0.007l0.049,0.017l0.111,0.004l0.105,-0.073l0.205,0.01l0.091,0.039l0.048,-0.007l0.06,-0.067l0.021,-0.073l0.142,-0.077l0.122,-0.031l0.15,-0.139l0.126,-0.032l0.08,-0.073l0.024,-0.08l0.118,-0.084l0.192,-0.035h0.164l0.097,0.035l0.178,-0.003l0.052,-0.042l0.063,0.003l0.077,0.032l0.052,-0.007l0.056,-0.06l0.355,-0.014l0.286,-0.097l0.261,0.024l0.216,0.084l0.062,0.056l0.213,0.052l0.063,-0.007l0.038,-0.045l0.125,-0.056l0.049,-0.077l0.105,-0.073l0.09,-0.042l0.133,-0.178l0.125,-0.066l0.017,-0.045l0.558,-0.244l0.184,-0.129l0.032,-0.053l0.164,-0.062l0.209,-0.21l0.121,-0.055l0.189,-0.018l0.101,-0.038l0.09,-0.094l0.091,-0.007l0.104,-0.046l0.234,-0.007l0.111,-0.048l0.167,-0.004l0.091,-0.056l0.108,-0.038l0.139,-0.011l0.199,-0.111l0.087,-0.011l0.066,-0.027l0.021,-0.049l0.188,-0.112l0.125,-0.125l0.094,-0.025l0.081,0.011l0.055,-0.018l0.053,-0.076l0.146,-0.067l0.463,-0.108l0.258,-0.192l0.031,-0.083l0.133,-0.094l0.076,0.01l0.056,-0.031l0.035,-0.101l0.32,-0.286l0.115,-0.046l0.168,-0.109l0.034,-0.1l0.112,-0.077l0.066,-0.146l0.157,-0.143l0.223,-0.073l0.125,-0.061h0.14l0.283,-0.028l0.088,-0.074l0.102,-0.218l0.191,-0.159l0.125,-0.213v-0.172l-0.053,-0.143l0.03,-0.297l0.099,-0.154l-0.061,-0.242l-0.137,-0.123h-0.092l-0.031,0.086l0.111,0.142l-0.031,0.124l-0.161,0.037l-0.259,-0.062l-0.18,-0.191l-0.056,-0.279l-0.136,-0.111l-0.13,-0.056l-0.148,-0.124l-0.019,-0.17l-0.055,-0.011l-0.068,0.132l-0.109,0.088l0.013,0.042h0.12l0.205,0.124l-0.025,0.062l-0.204,0.006l-0.174,-0.099l-0.086,-0.056l-0.118,0.031l-0.068,0.111h-0.124l-0.098,-0.049l0.006,-0.142l0.123,-0.279l-0.018,-0.117l-0.217,-0.149l-0.723,-0.223l-0.069,0.068l0.05,0.174l-0.031,0.191h-0.043l-0.037,-0.173l-0.068,-0.179l0.018,-0.112l-0.284,-0.513l-0.31,-0.223l-0.136,-0.037l-0.142,-0.068l-0.056,-0.099l-0.334,-0.093l-0.185,0.044l-0.099,0.123l-0.019,0.118l-0.136,0.142l-0.149,0.087l-0.031,0.173l-0.049,0.012l-0.043,-0.117l0.055,-0.124l0.18,-0.111l0.08,-0.118l0.006,-0.148l-0.043,-0.155l0.087,-0.13l0.191,-0.099l0.192,-0.006l0.044,-0.068l-0.05,-0.13l0.031,-0.099l0.118,-0.124l-0.013,-0.266l-0.173,-0.247l-0.121,-0.094l-0.055,-0.135l0.037,-0.121l-0.056,-0.032l-0.135,0.032l-0.051,-0.046l0.042,-0.121l0.121,-0.088l-0.019,-0.339l-0.093,-0.088l-0.013,-0.102l0.041,-0.074l-0.018,-0.153l-0.098,-0.135l-0.13,-0.464l-0.153,-0.079l-0.079,-0.092l-0.046,-0.177l-0.125,-0.143l-0.177,-0.019l-0.097,0.037l-0.158,-0.028l-0.014,-0.116l-0.116,-0.06l-0.092,-0.005l-0.047,-0.088v-0.19l0.056,-0.005l0.06,0.056l0.023,0.083l0.242,0.177l0.125,0.032l0.083,-0.023l0.116,-0.125l0.116,-0.028l0.056,-0.111l-0.056,-0.311v-0.214l-0.023,-0.102l-0.102,-0.06l-0.009,-0.074l0.083,-0.098l-0.009,-0.366l-0.06,-0.088l-0.121,-0.014l-0.116,-0.107l-0.069,-0.214l-0.14,-0.12l-0.125,-0.005l-0.199,0.125l-0.135,-0.004l-0.107,-0.144l0.023,-0.074l0.121,-0.088v-0.065l-0.181,-0.024l-0.12,0.079l-0.065,-0.028l0.097,-0.157l0.125,-0.028l0.07,-0.065l-0.009,-0.246l-0.084,-0.223l-0.102,-0.028l-0.19,0.061l-0.149,0.139l-0.074,-0.014v-0.042l0.051,-0.041l0.019,-0.158l-0.042,-0.047l-0.102,0.024l-0.051,-0.061l0.065,-0.209l-0.065,-0.116l0.068,-0.18l0.114,-0.031l0.444,0.198l0.311,0.343l0.158,0.023l0.102,-0.056v-0.055l-0.2,-0.102l-0.083,-0.084l-0.023,-0.185l-0.112,-0.237v-0.102l-0.032,-0.009l-0.065,0.051l-0.07,-0.028l-0.134,-0.19l-0.075,-0.223l-0.078,-0.088l-0.102,-0.014l-0.205,-0.149l-0.06,-0.018l-0.037,-0.033v-0.055l-0.07,-0.2l0.042,-0.186l-0.005,-0.204l-0.12,-0.25l0.004,-0.084l-0.088,-0.157l-0.093,-0.038l-0.139,-0.222l-0.023,-0.372l0.084,-0.162l0.004,-0.074l-0.037,-0.051v-0.112l0.028,-0.069l-0.009,-0.06l-0.107,-0.042l-0.107,-0.237l0.01,-0.088l0.255,-0.153l0.199,-0.033l0.047,-0.088l-0.051,-0.139l0.027,-0.218l0.098,-0.074l0.051,-0.093l0.005,-0.107l0.074,-0.209l0.074,-0.083l0.176,-0.32l0.014,-0.102l0.186,-0.413l0.004,-0.139l-0.074,-0.07l-0.125,-0.39l0.009,-0.148l0.093,-0.116l0.084,-0.288l-0.024,-0.167l-0.111,-0.06l-0.088,0.004l-0.042,-0.023l-0.014,-0.107l-0.162,-0.083l-0.102,-0.005l-0.014,0.037l0.069,0.014l0.056,0.061l0.009,0.083l-0.06,0.061l-0.116,-0.024l-0.005,-0.032l0.098,0.009l0.023,-0.051l-0.019,-0.051l-0.12,-0.037l-0.07,0.023l-0.083,0.121l-0.042,0.009l0.065,-0.153l0.116,-0.084l0.023,-0.088l-0.079,-0.134l-0.093,-0.056l-0.046,0.023l0.009,0.093l-0.06,0.172l-0.232,0.287l-0.172,0.084l-0.065,0.093l-0.032,-0.01l0.051,-0.139l0.144,-0.069l0.227,-0.283l0.023,-0.163l-0.06,-0.107l-0.005,-0.176l0.033,-0.107l0.004,-0.083l-0.139,-0.237l0.005,-0.413l0.093,-0.241l0.088,-0.482l0.148,-0.274l0.126,-0.112l0.037,-0.106l-0.01,-0.121l0.042,-0.246l-0.023,-0.06l0.009,-0.047l0.084,-0.046l0.056,-0.144l0.208,-0.241l0.088,-0.028l0.047,-0.06l0.009,-0.149l0.07,-0.185l0.209,-0.149l0.111,0.005l0.074,0.088l0.074,0.005l0.051,-0.088l-0.018,-0.093l0.051,-0.181l0.083,-0.033l0.07,0.047l0.056,-0.01v-0.083l-0.065,-0.144l-0.014,-0.144l0.018,-0.083l0.007,-0.378l-0.053,-0.12l-0.08,-0.053l-0.168,-0.284l-0.04,-0.27l-0.116,-0.143l-0.157,-0.061l-0.107,0.005l-0.274,-0.07l-0.153,-0.014l-0.116,-0.051l-0.042,-0.092l-0.148,-0.102l-0.121,0.012l-0.049,0.065l0.021,0.086v0.084l-0.031,0.071l0.045,0.076l-0.023,0.029l-0.097,-0.038l-0.01,-0.061l0.042,-0.041l0.019,-0.093l-0.031,-0.135l0.018,-0.065l-0.052,-0.102l-0.01,-0.158l0.024,-0.19l-0.051,-0.055l-0.042,0.013l-0.028,0.107l-0.084,0.023l-0.092,-0.069l-0.038,-0.158l-0.083,-0.311l-0.204,-0.315l-0.121,-0.061l-0.056,-0.051l-0.027,-0.13l-0.144,-0.125l-0.102,-0.042l-0.102,-0.083l-0.014,-0.079l-0.19,-0.214l-0.14,-0.111l-0.051,-0.097l-0.111,-0.093l-0.274,-0.088l-0.037,0.018l0.065,0.042l0.223,0.074l0.088,0.084l-0.028,0.037l-0.144,-0.009l-0.074,-0.033l-0.042,-0.065l-0.051,-0.023l-0.093,0.009l-0.185,-0.097l-0.116,-0.028l-0.13,-0.065l-0.107,-0.144l-0.018,-0.097l-0.042,-0.047l-0.079,-0.027l-0.084,-0.075h-0.051l-0.032,-0.028l0.005,-0.134l-0.093,-0.186l-0.009,-0.148l0.106,-0.404l0.065,-0.162v-0.079l-0.023,-0.046l-0.005,-0.246l-0.046,-0.07l-0.079,-0.014l-0.07,-0.074l-0.018,-0.098l-0.065,-0.106l-0.153,-0.149l-0.107,-0.297l0.009,-0.208l0.112,-0.246l0.032,-0.126l0.102,-0.176l0.024,-0.223l-0.033,-0.13l0.037,-0.222l0.246,-0.511l0.186,-0.283l0.046,-0.157l-0.019,-0.177l0.112,-0.255l0.13,-0.088l0.106,-0.283l0.112,-0.107l0.051,-0.116l0.018,-0.144l0.181,-0.408l-0.009,-0.079l-0.065,-0.023l-0.051,-0.107l0.019,-0.065l0.195,-0.097l0.092,-0.074l0.26,-0.692l0.042,-0.171l0.06,-0.14v-0.088l-0.083,-0.088l0.014,-0.06l0.162,-0.102l0.07,-0.167v-0.186l0.055,-0.088l0.14,-0.033l0.023,-0.06l-0.061,-0.139l-0.018,-0.176l-0.056,-0.028l-0.079,0.046l-0.106,-0.004l-0.028,-0.047l0.083,-0.121l0.014,-0.083l0.047,-0.033l0.078,0.019l0.075,-0.014l0.106,-0.125l-0.014,-0.042h-0.064l-0.056,-0.06l0.004,-0.07l0.056,-0.037l0.014,-0.07l-0.028,-0.106l-0.125,-0.149l0.019,-0.046l0.12,-0.005l0.074,-0.079v-0.153l0.098,-0.167l0.06,-0.009l0.033,0.056l-0.107,0.25l-0.014,0.125l0.097,0.103l0.056,-0.028l0.056,-0.181l0.181,-0.311l0.014,-0.353l-0.098,-0.074l-0.204,-0.005l-0.056,0.065l-0.023,0.112l-0.037,-0.014v-0.149l0.13,-0.195l0.083,-0.018l0.052,0.065l0.069,0.004l0.047,-0.046l0.013,-0.227l-0.051,-0.116v-0.149l0.025,-0.052l-0.04,-0.025v-0.028l-0.037,-0.022l-0.037,0.01l-0.028,-0.019l-0.025,-0.065l-9.261,-6.44l-0.272,-0.86l-0.13,-0.093l-0.124,-0.018l-0.099,-0.043l-0.068,-0.087l-0.142,-0.043l-0.248,0.111l-0.123,-0.006l-0.044,-0.056l0.143,-0.155l0.024,-0.117l-0.068,-0.074l-0.111,0.018l-0.087,-0.037l0.007,-0.124l0.501,-0.519l0.13,-0.037l0.031,-0.056l0.012,-0.111l0.148,-0.13l-0.247,-1.646l-0.953,-0.631l-22.661,-12.8l-0.086,0.019l-0.037,0.049l0.012,0.093l-0.136,0.173l-0.217,0.149l-0.266,-0.019l-0.099,0.087l0.038,0.068l0.142,0.025l0.043,0.062l-0.093,0.185l-0.445,0.26l-0.241,0.056l-0.13,0.216l0.043,0.155l0.21,0.148l0.211,0.038l0.26,0.179l0.049,0.124l-0.074,0.018l-0.198,-0.074l-0.582,-0.074l-0.327,0.062l-0.05,0.074l0.136,0.235l0.217,0.142l-0.031,0.056h-0.143l-0.111,-0.093l-0.105,0.012l-0.056,0.093l0.074,0.155l0.174,0.068l0.148,-0.043l0.136,0.055l0.074,0.205l0.291,0.167l0.099,-0.044l0.081,0.031l-0.068,0.18l-0.155,0.068l-0.489,-0.106l-0.086,-0.117l-0.198,-0.093l-0.464,-0.006l-0.118,-0.08l-0.167,-0.007l-0.105,0.062l-0.006,0.081l0.148,0.074l0.044,0.155l-0.05,0.148l-0.365,0.093l0.006,0.08l0.161,0.013l0.266,0.167l0.025,0.105l-0.099,0.074l0.006,0.062l0.192,0.018l0.018,0.143l-0.105,0.117h-0.21l-0.118,-0.074l-0.185,-0.006l-0.105,0.056h-0.205l-0.105,-0.062l-0.074,0.049l0.08,0.099l0.588,0.415l0.006,0.142l-0.099,0.031l-0.21,-0.112l-0.179,0.019l-0.093,0.192l-0.254,0.229l-0.278,0.062l-0.173,-0.075l-0.044,-0.154l-0.055,-0.037l-0.099,0.03l-0.112,-0.037h-0.216l-0.303,0.297l-0.062,0.328l-0.155,0.18l0.037,0.142l0.186,0.025l0.408,-0.291l0.346,-0.093l0.248,0.149l-0.006,0.21l0.068,0.099l0.291,0.049l0.117,0.198l-0.043,0.149h-0.359l-0.445,-0.297l-0.192,0.025l-0.062,0.148l0.111,0.186l-0.024,0.086l-0.124,0.006l-0.186,-0.123h-0.105l-0.025,0.105h-0.086l-0.075,-0.074l-0.055,0.012l0.025,0.186l-0.062,0.018l-0.087,-0.08l-0.21,-0.006l-0.136,-0.044l-0.05,0.044l0.056,0.136l-0.13,0.185v0.167l0.056,0.118l0.061,0.006l0.038,-0.148l0.142,-0.106l0.142,-0.012l0.39,0.223l0.185,0.198l0.248,0.018l0.186,-0.08l0.785,0.086l0.415,0.106l0.148,-0.019l0.136,-0.241l0.384,-0.204l0.216,-0.248l0.223,-0.049l0.136,0.049l0.025,0.155l0.086,0.124l0.118,0.092l0.062,0.656l-0.142,0.155l-0.297,0.068l-0.155,0.13l-0.142,0.012l-0.056,-0.049l-0.099,0.024l-0.13,0.155l-0.148,0.037l-0.081,-0.037l-0.08,0.037l-0.18,0.198l-0.358,0.155l-0.211,0.185l-0.012,0.13l0.099,0.075l-0.006,0.099l-0.093,0.061l-0.328,-0.037l-0.322,0.13l-0.012,0.081l0.266,0.173v0.142l-0.099,0.062l-0.198,-0.05l-0.241,-0.006l-0.13,0.081l-0.371,0.043l-0.093,-0.037v-0.161l-0.099,-0.043l-0.303,0.055l-0.223,-0.024l-0.13,-0.112l-0.025,-0.105l-0.08,-0.074l-0.093,-0.012l-0.111,-0.124l-0.019,-0.155l0.05,-0.093v-0.086l-0.489,-0.143l-0.501,0.031l-0.365,0.198l-0.093,0.186l-0.247,0.241l-0.007,0.161l0.13,0.192l0.013,0.266l-0.192,0.247l-0.019,0.155l0.081,0.148l0.124,0.013l0.105,0.136l-0.037,0.099l-0.136,0.043l-0.019,0.087l0.099,0.086l0.142,0.297l0.136,0.037l0.056,0.093l-0.093,0.217l0.05,0.055l0.08,-0.012l0.105,0.043l0.019,0.106l0.155,0.092l-0.038,0.068l-0.389,-0.136l-0.124,-0.105l0.025,-0.086l-0.019,-0.087l-0.056,0.006l-0.105,0.149l-0.117,0.006l-0.223,0.154l-0.068,0.13l-0.006,0.18l-0.155,0.488l-0.179,0.13l-0.05,-0.031l0.056,-0.185l-0.031,-0.081l0.019,-0.117l0.136,-0.149l0.018,-0.228l-0.117,-0.112l0.012,-0.055l0.235,-0.031l0.21,-0.137l0.056,-0.098v-0.112l0.105,-0.155v-0.21l-0.092,-0.112l-0.236,-0.135l-0.012,-0.093l0.087,-0.087v-0.055l-0.136,-0.081l-0.007,-0.086l0.124,-0.236l0.025,-0.296l-0.087,-0.069v-0.074l0.099,-0.093l-0.012,-0.117l-0.136,-0.087l-0.223,0.025l-0.155,0.155l-0.074,-0.013l-0.006,-0.086l-0.111,-0.068l-0.167,0.024l-0.124,-0.043l-0.006,-0.08l0.092,-0.124v-0.136l-0.123,-0.074l-0.124,-0.167l0.025,-0.118l-0.013,-0.148l-0.068,-0.013l-0.08,0.204l-0.043,0.192l0.006,0.112l-0.044,0.117l-0.08,0.019l-0.074,0.074l-0.006,0.13l-0.087,0.086l-0.204,0.106l-0.186,0.228h-0.08l-0.074,-0.154l0.043,-0.136l0.105,-0.068l0.074,-0.081v-0.229l-0.08,-0.037l-0.142,0.062l-0.05,0.105l-0.08,0.013l-0.18,-0.099l-0.154,0.024l-0.075,-0.031l-0.037,-0.105l-0.117,-0.055l-0.167,0.037l-0.081,-0.081l0.037,-0.117l-0.049,-0.068l-0.105,0.012l-0.081,-0.08l0.019,-0.087l-0.019,-0.105l-0.074,-0.124l0.031,-0.062l0.186,0.013l0.037,-0.044l-0.217,-0.111l-0.018,-0.136l-0.112,-0.18l-0.068,-0.006l-0.068,0.081h-0.247l-0.13,-0.136l-0.087,-0.025l-0.025,0.056l0.075,0.105l0.031,0.241l-0.056,0.043l-0.087,-0.012l-0.123,0.068l-0.081,0.198l-0.155,0.21l-0.173,0.006l-0.198,-0.099l-0.253,0.031l-0.056,0.174l0.068,0.13l0.155,0.049l0.086,0.068l0.05,0.149l0.13,0.061h0.13l0.16,0.192l-0.012,0.118l-0.119,0.024l-0.06,0.089l-0.088,0.009l-0.11,-0.079l-0.05,-0.099l-0.08,-0.019l-0.081,0.05l-0.068,-0.019l-0.086,-0.099l-0.217,-0.037l-0.099,-0.068l-0.068,-0.006l-0.086,0.13l0.123,0.309l-0.037,0.279l-0.08,0.062l-0.167,-0.044l-0.186,0.019l-0.025,0.074l0.136,0.068l0.205,0.223l0.154,0.334l0.006,0.229l0.168,0.142l-0.013,0.099l-0.185,0.068l-0.093,-0.031l-0.068,-0.111l-0.05,-0.39l-0.229,-0.297l-0.161,-0.062l-0.117,0.013l-0.006,0.092l0.099,0.062l0.037,0.087l-0.037,0.099l0.037,0.093l-0.037,0.043l-0.068,-0.05h-0.062l-0.062,0.05l-0.056,-0.043l-0.006,-0.118l-0.08,-0.105l-0.106,-0.012l-0.105,0.13l0.025,0.321l0.105,0.254l-0.025,0.099l-0.129,0.074l-0.081,0.198l-0.086,0.012l-0.081,-0.117l0.05,-0.47l-0.019,-0.204l-0.068,-0.025l-0.08,0.068l-0.044,-0.031l0.031,-0.161l0.093,-0.068l0.012,-0.08l-0.061,-0.062l0.012,-0.081l0.111,-0.074l0.112,0.012l0.049,-0.037l0.019,-0.123l0.136,-0.031l0.123,0.037l0.044,-0.05l-0.081,-0.099l-0.266,0.006l-0.309,0.13l-0.087,-0.043l-0.031,-0.223l0.019,-0.142l-0.031,-0.049l-0.087,0.018l-0.074,-0.093l0.013,-0.216l0.092,-0.037l0.099,0.024l0.291,-0.061l0.062,-0.124l-0.025,-0.223l-0.105,-0.179l-0.13,-0.037l-0.062,-0.075l0.019,-0.148l0.08,-0.056l0.013,-0.068l-0.105,-0.154l-0.161,-0.075l-0.112,0.031l-0.043,0.124l-0.229,0.148h-0.117l-0.143,-0.167l0.006,-0.105l0.099,-0.136l0.056,-0.167l0.019,-0.266l0.198,-0.594l-0.007,-0.192l0.062,-0.253l-0.037,-0.198l0.037,-0.198l-0.012,-0.118h-0.068l-0.118,0.143l-0.198,0.092l-0.074,0.167l-0.105,0.112l-0.037,-0.047l0.046,-0.139l-0.028,-0.158l0.112,-0.464l0.343,-0.389l0.158,-0.353l0.009,-0.25l0.037,-0.307l0.093,-0.26l0.009,-0.204l0.065,-0.269l0.13,-0.278l0.028,-0.316l-0.046,-0.38l0.086,-0.056v-0.043l-0.099,-0.118l0.006,-0.086l0.072,-0.022l0.133,0.111l0.092,-0.024l0.093,-0.245l-0.046,-0.148l0.105,-0.507l0.186,-0.242l0.182,-0.931l-0.09,-0.232l-0.003,-0.244l-0.074,-0.136l0.031,-0.071l0.093,-0.047l0.025,-0.13l-0.096,-0.071l-0.071,0.031l-0.072,-0.034l0.025,-0.114l-0.074,-0.037l-0.05,0.027l-0.037,0.158l0.003,0.121l-0.046,0.071l-0.155,0.034l-0.117,-0.062l-0.034,-0.102l0.071,-0.118l0.065,-0.074l0.004,-0.083h-6.518l-0.149,-0.065l-0.102,0.009l-0.218,0.162l-0.144,0.01l-0.176,0.125l-0.13,0.181l-0.195,0.037l-0.283,-0.051h-0.172l-0.167,0.093l-0.157,-0.009l-0.121,-0.089l-0.111,-0.004l-0.149,0.139l-0.009,0.107l0.042,0.125l0.074,0.028l0.014,0.055l-0.019,0.089l0.033,0.111l0.181,0.051l0.088,0.121l0.065,0.19l0.171,0.25l0.019,0.144l0.051,0.121l-0.009,0.107l0.079,0.185l0.18,0.084l0.089,0.079l0.102,0.194l0.338,0.033l0.353,0.343l0.046,0.023l0.033,0.483l0.653,0.875l-0.112,0.26l0.062,0.798l-0.161,0.811l0.334,0.581l0.279,0.316l-0.031,0.13l-0.093,0.068l-0.173,0.414l-0.081,0.52l0.068,0.507l-0.142,0.248l-0.155,0.037l-0.142,0.154l-0.13,0.019l-0.331,-0.207l-0.127,0.018l-0.052,0.142l-0.17,0.186l-0.102,0.012l-0.075,-0.055l-0.25,0.003l-0.136,0.108l-0.084,-0.006l-0.055,-0.031l-0.09,-0.015l-0.13,0.303l-0.074,0.26l-0.112,0.08l-0.099,0.179l-0.031,0.167l-0.198,0.328l-0.123,0.347l0.062,0.092l0.191,0.031l0.365,-0.185l0.062,0.043l-0.049,0.155l-0.192,0.204l-0.124,0.006l-0.167,0.13l-0.068,0.142l0.013,0.124l-0.118,0.241l-0.105,0.341l0.068,0.061l0.062,-0.006l0.074,0.044l0.019,0.148l0.297,0.266l0.154,0.05l0.223,-0.137l0.13,-0.191l0.111,0.006l0.396,0.34l0.142,0.229l0.118,0.019l0.074,-0.075l0.118,-0.012l0.26,0.093l0.29,0.006l0.087,-0.074l0.204,-0.019l0.062,0.05l-0.278,0.42v0.155l0.167,0.148v0.291l0.092,0.124l-0.024,0.278l-0.099,0.087l-0.038,0.099l0.044,0.179l-0.149,0.149l-0.29,0.068l-0.087,-0.099h-0.074l-0.081,0.161l-0.269,0.111l-0.25,0.19l-0.019,0.139l0.214,0.209l0.009,0.121l-0.107,0.158l-0.877,0.529l-0.236,0.06l-0.228,0.25l0.037,0.14l-0.018,0.125l-0.102,0.074l-0.269,0.506l-0.056,0.19l0.107,0.292l0.002,0.127l-0.077,0.027l-0.181,-0.084l-0.181,-0.009l-0.111,0.097l-0.018,0.153l-0.172,0.311l-0.251,0.176l-0.255,0.659l0.019,0.214l-0.079,0.176l-0.125,0.084l-0.195,0.361l-0.492,0.302l-0.163,0.246l-0.032,0.26l-0.111,0.255l-0.154,0.009l-0.324,0.2l-0.112,0.167l-0.389,0.185l-0.126,0.154h-0.111l-0.116,-0.093l-0.19,0.018l-0.269,0.371l-0.033,0.219l-0.102,0.065l-0.306,-0.13l-0.269,-0.028l-0.028,0.171l-0.099,0.873l-0.272,0.946l-0.031,0.291l0.068,0.105l0.012,0.081l-0.031,0.061l0.019,0.161l0.117,0.099v0.105l-0.198,0.149l0.019,0.087l0.093,0.006l0.086,-0.044l0.124,-0.006l0.192,0.087l0.074,0.136l0.26,0.167l0.136,0.056l0.21,0.21l0.025,0.105l-0.049,0.087l0.012,0.068l0.111,0.093l0.155,0.309l0.056,0.285l-0.025,0.111l-0.161,0.031l-0.012,0.049l0.13,0.105l-0.075,0.236l0.025,0.167l-0.037,0.129l-0.068,0.081l-0.025,0.272l-0.099,0.297l-0.154,0.186l-0.025,0.167l0.068,0.229l0.173,0.16l0.112,0.167l0.253,0.223l0.65,1.355l0.13,0.39v0.445l-0.081,0.223l-0.13,0.08l-0.111,0.025l-0.328,0.247l-0.148,0.174l-0.137,0.018l-0.092,-0.037l-0.087,0.006l-0.173,0.099l-0.136,0.235l-0.062,0.551l0.08,0.272l-0.012,0.217l-0.056,0.08l-0.043,0.155l0.062,0.161l0.185,0.142l0.557,0.792l0.313,0.253l0.301,0.149l0.093,0.121l0.009,0.102l0.061,0.027l0.719,-0.32l0.417,-0.028l0.107,0.065l0.135,0.232l0.686,0.704l0.161,0.114l0.194,0.065l0.148,0.133l0.022,0.177l0.13,0.253l0.242,0.216l0.035,0.078l-0.005,0.138l-0.052,0.142l0.017,0.058l0.12,0.079l0.14,0.057l0.067,0.096l0.082,0.184l0.111,0.15l0.233,0.248l0.164,0.12l0.186,0.108l0.046,0.099l-0.008,0.186l-0.033,0.096l-0.102,0.1l-0.011,0.068l0.065,0.173l-0.004,0.099l-0.183,0.243l-0.089,-0.015l-0.015,-0.054l-0.068,-0.049l-0.043,-0.007l-0.016,0.056l0.05,0.045l0.003,0.052l-0.035,0.034l0.021,0.024l0.088,-0.004l0.065,0.047l0.07,0.086l-0.003,0.039l-0.096,0.099l-0.004,0.039l0.042,0.024l0.015,0.036l-0.016,0.054l0.024,0.03l0.035,0.007l0.026,0.039l0.005,0.043l0.067,0.116v0.125l0.089,0.133l0.05,0.03l0.059,0.071l0.011,0.059l0.12,0.123l0.004,0.038l-0.009,0.039l0.007,0.093l0.063,0.073l0.023,0.185l-0.021,0.096l-0.121,0.157l-0.039,0.105l0.023,0.033l0.072,0.009l0.005,0.026l-0.042,0.035v0.038l0.074,0.136l-0.023,0.037l-0.083,0.01l-0.084,0.056l-0.002,0.047l0.146,0.131l0.005,0.061l0.023,0.016l0.039,-0.005l0.019,0.019l0.004,0.045l0.047,0.07l-0.002,0.15l0.079,0.129l0.037,0.007l0.018,-0.033l0.035,-0.007l0.028,0.023l-0.002,0.089l0.062,0.085v0.077l0.07,0.084l0.084,0.026l0.046,0.038l0.009,0.044l0.042,0.035l0.058,-0.002l0.102,0.045l0.026,0.037l-0.012,0.063l0.04,0.061l0.011,0.054l0.021,0.03l0.042,0.024l0.086,0.136l0.03,0.084v0.166l0.044,0.115l-0.002,0.071l0.019,0.021l0.035,0.007l0.016,0.023l0.009,0.091l0.058,0.134l0.005,0.059l0.032,0.053l0.049,0.019l0.019,0.021l-0.017,0.071l0.079,0.112l0.119,0.028l0.028,0.021l-0.014,0.052l0.035,0.025l0.034,0.01l0.014,0.049l-0.028,0.052l-0.007,0.194l0.054,0.042l0.1,0.005l0.162,0.215v0.087l0.03,0.028l0.061,0.012l0.016,0.056l-0.021,0.047l0.012,0.033l0.056,0.021l0.007,0.138l-0.035,0.054l0.002,0.07l0.063,0.149l0.059,0.07l0.07,0.007l0.041,-0.031h0.053l0.083,0.088l0.063,0.179l-0.01,0.151l-0.039,0.003l-0.045,-0.049l-0.066,0.011l-0.018,0.063l0.042,0.105l0.077,0.06l0.021,0.063l-0.018,0.043l0.021,0.049l0.112,0.112l0.003,0.049l-0.021,0.032l0.014,0.127l0.07,0.052l0.063,-0.003l0.013,-0.053l0.028,-0.003l0.188,0.228l0.014,0.053l-0.052,0.031l0.007,0.071l0.07,0.042l0.09,0.01l0.046,0.042l0.01,0.071l0.077,0.077l0.08,0.014l0.108,0.06l0.129,0.038l0.052,0.036v0.094l0.104,0.123l0.011,0.074l-0.052,0.116l-0.08,0.042l-0.004,0.067l0.073,0.088l0.004,0.067l-0.035,0.017l-0.004,0.046l0.053,0.063l-0.004,0.095l0.035,0.077l0.171,0.156l0.007,0.039l-0.025,0.056v0.058l0.048,0.055l0.009,0.08l0.023,0.006z"/>
</svg>
