<svg xmlns="http://www.w3.org/2000/svg" viewBox="1263.177 369.592 119.517 67.770">
  <path d="M1303.487167,428.475681l0.306,0.092l0.121,0.084l0.009,0.139l0.022,0.294l0.124,0.124l0.173,0.334l0.148,0.136l1.3,0.52l0.222,0.074l0.26,-0.013l0.223,0.038l0.284,0.136l0.161,0.012l0.087,-0.074l0.346,-0.05v-0.123l-0.198,-0.174l0.013,-0.099l0.235,-0.049l0.049,-0.136l-0.124,-0.074l0.013,-0.112l0.247,0.013l0.136,0.086l0.223,0.037l0.26,0.273l0.173,0.012l0.074,-0.099l0.013,-0.173l0.124,-0.136l0.284,-0.118l0.161,-0.105l0.297,-0.118l0.179,-0.037l0.353,-0.161l0.099,-0.086l0.216,-0.099l0.13,-0.087l0.155,-0.018l0.186,0.031l0.099,-0.025l0.086,-0.105l0.173,0.012l0.106,0.062l0.284,0.006l0.124,-0.049l0.105,0.018l0.068,0.05l0.272,0.099l0.501,0.136l0.266,0.173l0.304,0.34l0.167,0.279l0.043,0.253l-0.025,0.105l-0.074,0.044v0.111l0.056,0.198l0.091,0.147l0.076,-0.085l0.309,-0.062l0.043,-0.068l-0.062,-0.155l0.031,-0.26l0.149,-0.253v-0.272l-0.074,-0.229l0.03,-0.26l0.118,-0.316l0.006,-0.136l-0.062,-0.068l-0.105,0.006l-0.056,-0.024l0.025,-0.081l-0.086,-0.043l-0.13,0.087l-0.056,0.092l-0.099,0.019l-0.099,-0.012l-0.074,-0.069l-0.062,0.007l-0.037,0.092h-0.068l-0.05,-0.111l-0.117,-0.006l-0.056,-0.056l0.031,-0.049l0.068,0.006l0.037,-0.056v-0.123l0.124,-0.149l0.306,-0.34l0.538,-0.39l0.798,-0.464l0.641,-0.445l0.343,-0.344l0.538,-0.408l0.576,-0.325l0.556,-0.557l0.269,-0.343l0.557,-0.612l0.752,-0.771l0.195,-0.259l0.111,-0.279l0.353,-0.473l0.158,-0.353l0.269,-0.371l0.232,-0.204l0.074,-0.102l0.12,-0.464l-0.027,-0.204l0.037,-0.102l-0.047,-0.075l-0.139,-0.037l-0.093,-0.13l0.102,-0.287l0.223,-0.121h0.158l0.065,0.074h0.111l0.381,-0.194l0.566,-0.14l0.241,-0.12v-0.251l-0.065,-0.158l0.037,-0.065l0.093,0.084l0.065,0.195v0.139l0.074,0.046l0.575,-0.111l0.14,-0.065h0.297l0.324,0.102l0.455,0.019l0.158,0.065l0.111,-0.01l0.047,-0.13l0.287,-0.046l0.102,-0.102v-0.102l0.13,-0.121l0.158,-0.055l0.158,-0.297l-0.084,-0.288l-0.26,-0.102l-0.08,-0.312l0.037,-0.044l0.056,0.062l0.018,0.167l0.056,0.068l0.235,0.05l0.093,0.092l0.012,0.106l0.075,0.006l0.074,-0.118l-0.006,-0.229l0.179,-0.179l0.217,-0.087l0.037,-0.099l-0.062,-0.216l-0.006,-0.142l-0.217,-0.229l-0.08,-0.254l0.062,-0.198h0.049l-0.025,0.13l0.056,0.266l0.229,0.247l0.018,0.167l0.075,0.236l-0.062,0.154l-0.198,0.118l-0.112,0.13l-0.043,0.247l-0.056,0.074l-0.006,0.149l-0.043,0.074l-0.105,0.037l-0.037,0.062l0.037,0.093l-0.062,0.142l-0.248,0.21l-0.154,0.031v0.044l0.291,0.006l0.253,0.074l0.068,0.074l0.112,0.007l0.117,-0.118l0.149,-0.179l0.235,-0.075l0.396,0.044l0.352,0.136l0.223,0.031l0.118,0.086l0.111,0.013l0.142,-0.105l0.316,-0.05l0.136,-0.111l0.031,-0.161l-0.019,-0.112l0.05,-0.123l0.012,-0.161l0.05,-0.087l-0.019,-0.062l-0.173,-0.142l-0.105,-0.173l0.037,-0.223l0.266,-0.377l0.346,-0.21l0.161,-0.242l-0.006,-0.216l-0.074,-0.056l-0.137,0.05l-0.222,-0.025l-0.13,-0.124l0.031,-0.173l0.154,-0.167l0.143,-0.044l0.012,-0.129l-0.087,-0.019l-0.185,0.093l-0.235,-0.013l-0.173,-0.129l-0.075,-0.223l0.081,-0.192l0.192,-0.105l0.037,-0.217l-0.124,-0.08l-0.155,-0.025l-0.161,-0.124l0.019,-0.136l0.105,-0.154l-0.049,-0.161l0.031,-0.05l0.099,0.093l0.006,0.149l-0.062,0.148l0.018,0.105l0.118,0.081l0.167,0.018l0.13,0.13v0.173l-0.111,0.112l-0.136,0.105l-0.056,0.142l0.031,0.136l0.136,0.087l0.167,-0.006l0.142,-0.105l0.235,0.018l0.167,0.192l-0.037,0.093l-0.179,0.049l-0.186,0.18l0.019,0.136l0.068,0.024l0.13,-0.08l0.167,0.006l0.179,0.124v0.198l-0.074,0.111l-0.056,0.198l-0.222,0.235l-0.137,0.025l-0.031,0.08l0.031,0.093l-0.006,0.118l-0.093,0.105l-0.012,0.093l0.074,0.086l0.006,0.081l-0.03,0.074l0.061,0.149l0.099,0.055l0.081,0.18l-0.025,0.154l0.062,0.223l0.229,0.266l0.278,0.118l0.161,-0.013l0.13,0.056l0.161,0.383l0.074,0.007l0.217,-0.124l0.297,-0.05l0.105,-0.08l0.142,0.012l0.26,0.174l0.012,0.148l-0.099,0.087l-0.018,0.13l0.068,0.055l0.012,0.068l-0.074,0.044l0.018,0.049l0.174,-0.012l0.012,0.055l-0.074,0.037l-0.006,0.056l0.136,0.062l0.161,-0.068l0.173,-0.087l0.247,-0.006l0.056,0.05l-0.099,0.117l-0.272,0.068l-0.285,0.013l-0.229,-0.05l-0.105,-0.062l-0.21,-0.037l-0.18,0.019l-0.185,-0.044l-0.211,-0.105l-0.396,-0.049l-0.377,0.105l-0.52,-0.068l-0.414,-0.142l-0.161,0.012l-0.408,-0.105l-0.285,-0.143l-0.297,-0.024l-0.433,0.068l-0.476,-0.037l-0.235,-0.075l-0.124,-0.099l-0.056,-0.111l-0.055,-0.012l0.037,0.13l0.173,0.173l0.346,0.198l0.384,0.328l0.198,0.284l0.136,0.087l0.05,-0.019l-0.062,-0.08v-0.161l0.154,-0.161l0.297,-0.025l0.508,0.137l0.309,0.123l0.111,0.087l0.347,0.043l0.185,-0.08l0.18,0.018l0.111,0.112l0.031,0.161l0.118,0.142l-0.031,0.099l-0.124,0.012l-0.093,0.062l-0.074,0.124l-0.365,0.148l-0.334,0.081l-0.371,-0.007l-0.378,0.075l-0.161,0.142l-0.024,0.105l0.16,0.18l0.161,0.037l0.266,-0.031l0.13,0.043l0.087,-0.012l0.068,-0.174l-0.099,-0.148l0.037,-0.062l0.093,0.025l0.012,0.086l0.056,0.044l0.111,-0.013l0.105,0.081l0.068,0.155l0.137,0.092l0.247,0.056l0.272,-0.019l0.13,0.075l0.124,0.185l0.297,0.161l0.124,0.012l0.123,0.069l0.068,0.099l0.106,0.006l0.105,-0.056l0.111,0.043v0.155l0.031,0.118l-0.056,0.074l-0.093,0.012l-1.02,-0.278l-0.65,-0.124l-1.274,-0.223l-0.668,-0.148l0.012,-0.05l0.124,-0.043v-0.043l-0.143,-0.031l-0.222,0.037l-0.211,-0.031l-0.222,-0.142l-0.161,-0.204l-0.043,-0.211l0.037,-0.161v-0.229l-0.062,-0.03l-0.087,0.074l-0.043,0.21l0.105,0.334l0.21,0.272l0.242,0.143l0.451,0.161l0.662,0.142l1.281,0.223l0.656,0.129l1.02,0.266l0.749,0.205l1.256,0.327l0.519,0.069l0.718,0.191l1.311,0.204h0.378l0.359,0.044l0.216,-0.006l0.087,-0.044h0.105l0.012,-0.049l-0.179,-0.056l-0.458,-0.056l-0.223,-0.099l-0.068,0.007l-0.086,0.037l-0.217,-0.025l-0.253,0.093l-0.365,-0.006l-0.607,-0.087l-0.723,-0.21l-0.353,-0.037l-0.006,-0.05l0.26,-0.148l0.377,-0.075l0.142,0.037h0.173l0.291,-0.061l0.087,-0.062l0.179,-0.031l0.303,0.068l0.829,0.043l0.458,-0.037l0.068,-0.074l0.019,-0.161l-0.05,-0.074l0.044,-0.068l0.204,0.012l0.198,0.179l0.235,0.068l0.154,-0.043l0.248,-0.21l0.037,-0.223l0.043,-0.049l0.075,0.024l0.061,0.18v0.093l-0.092,0.099l-0.031,0.21l0.031,0.08l0.049,-0.012l-0.006,-0.093l0.062,-0.124l0.247,-0.043l0.235,0.087l0.105,0.111l-0.018,0.118l-0.093,0.049l-0.087,-0.006l-0.018,0.068l0.093,0.08h0.093l0.061,-0.049l-0.006,-0.099l0.081,-0.118l0.086,0.019l0.192,0.155l0.006,0.136l0.229,0.229l0.198,0.043l0.124,-0.068l0.099,0.006l0.167,0.124h0.08v-0.099l-0.086,-0.124l0.018,-0.136l0.13,-0.056l0.266,0.075l0.025,-0.044l-0.074,-0.093l-0.186,-0.099l-0.043,-0.117l0.037,-0.043l0.111,0.012l0.062,-0.05v-0.068l0.031,-0.055h0.068l0.062,-0.05l0.018,-0.093l0.118,-0.018l0.155,0.13l0.037,0.099l0.025,0.142l0.092,0.136l0.013,0.112l-0.143,0.216l0.007,0.093l0.13,0.056l-0.007,0.055l-0.092,0.044l-0.013,0.08l0.062,0.433l-0.037,0.093v0.062l0.074,0.012l0.105,-0.08h0.198l0.368,0.027l0.149,0.121l-0.047,0.102l-0.213,0.019l-0.26,0.176v0.288l0.056,0.092l-0.065,0.047l-0.176,-0.102l-0.195,-0.214l-0.195,0.019l-0.251,0.269l-0.028,0.149h-0.074l-0.25,-0.075l-0.056,-0.083l-0.102,0.009l-0.056,0.13l-0.167,0.102l-0.111,-0.037l-0.121,0.009l-0.167,0.232l-0.399,0.241l-0.445,0.177l-0.26,-0.037l-0.251,-0.204l-0.102,0.009l-0.009,0.102l0.139,0.111v0.13l-0.789,0.269l-1.178,0.65l-0.399,0.297l0.018,0.083l0.093,0.047l-0.028,0.083l-0.157,0.028l-0.232,-0.019l-0.409,0.279l-0.269,0.046l-0.751,0.418l-0.26,0.288l-0.26,0.269l0.009,0.111l0.167,0.046l0.037,0.102l-0.083,0.13l0.028,0.084l0.362,0.065l0.25,0.148l0.334,0.065l0.177,-0.037l0.092,-0.148l0.372,-0.251l0.482,-0.056l0.594,0.084l0.39,0.213l0.566,0.474l0.315,0.399l0.492,0.38l0.223,0.074l0.176,0.13l0.074,0.093l0.204,0.056l0.093,-0.084l0.093,-0.204l0.121,-0.074l0.074,0.009l0.074,0.111h0.112l0.167,-0.213h0.176l0.547,0.418l0.362,0.473l0.26,0.594l0.093,0.659l-0.019,0.529l-0.083,0.194l-0.146,0.09l-0.092,0.006l-0.056,0.062l-0.019,0.173l-0.074,0.106l-0.006,0.142l0.074,0.21l0.019,0.285l-0.044,0.476l-0.123,0.18l0.018,0.08l0.211,0.049l0.222,0.031l0.007,0.05l-0.106,0.025l-0.358,-0.062h-0.161l-0.143,0.062l-0.241,0.012l-0.074,0.087l-0.006,0.117l-0.087,0.019l-0.018,0.062h-0.062l-0.025,-0.075l-0.093,-0.037l-0.037,0.05l0.111,0.154l0.365,0.229l0.118,0.099l0.062,0.13l0.074,0.043l0.124,-0.024l0.173,0.049l0.056,0.062l0.105,0.031l0.136,-0.049l0.198,0.018l0.142,0.118l0.087,0.21l0.025,0.161l0.123,0.086l0.155,-0.018l0.124,0.037l0.142,0.198l0.223,0.049l0.204,-0.006l0.167,-0.105l0.229,-0.031l0.297,0.013l0.253,0.068l0.161,-0.007l0.384,-0.099l0.222,-0.111l0.211,-0.062h0.179l0.093,-0.049l0.186,-0.421l0.111,-0.099l0.229,-0.043h0.26l0.099,-0.074l0.074,-0.186l0.148,-0.111l0.242,0.006l0.08,-0.037l0.025,-0.205l0.154,-0.167l0.038,-0.173l0.148,-0.185l0.05,-0.174l0.148,-0.198l0.303,-0.259l0.235,-0.136l0.167,-0.044l0.322,-0.148l0.08,-0.087l0.273,-0.124l0.16,-0.012l0.328,-0.161l0.198,-0.025l0.217,-0.068l0.26,-0.018l0.111,0.037l0.074,0.006l0.112,-0.043l0.142,-0.006l0.086,0.043l0.13,-0.05l0.068,-0.092l0.254,-0.037l0.402,0.061l0.13,0.093l0.019,0.112l0.123,0.074h0.118l0.254,-0.167l0.049,-0.13l0.043,-0.279l0.192,-0.247l0.266,-0.105l0.173,-0.013l0.118,-0.105l0.043,-0.21l0.13,-0.124l0.279,-0.018l0.191,0.043l0.192,0.124h0.056l-0.006,-0.037l-0.18,-0.155l-0.006,-0.111l0.118,-0.106l0.198,-0.037l0.117,-0.062v-0.061l-0.148,-0.069l-0.075,-0.092l0.037,-0.174l0.421,-0.365l0.501,-0.173l0.371,-0.031l0.427,0.081l0.625,0.272l0.396,0.346l0.043,0.087l-0.012,0.062l0.031,0.049l0.074,0.019l0.031,0.049l-0.025,0.062l0.05,0.044l0.235,-0.038l0.155,-0.099l-0.05,-0.148l0.037,-0.043l0.155,0.043l0.099,0.105l0.136,0.043l0.179,-0.049l0.124,-0.155l0.223,-0.086l0.352,0.012l0.471,0.105l0.235,0.013l0.105,0.049l0.111,-0.006l0.161,-0.155l0.186,-0.086l0.371,-0.019l0.253,0.012l0.471,-0.204l0.068,-0.086l-0.019,-0.081l-0.192,-0.161l-0.049,-0.148l-0.006,-0.173l-0.068,-0.118v-0.161l-0.044,-0.086l0.006,-0.081l0.192,-0.253v-0.087l-0.062,-0.08l-0.006,-0.118l0.087,-0.099l0.247,-0.056l0.143,-0.08v-0.074l-0.099,-0.099l0.018,-0.192l0.111,-0.037l0.384,0.117l0.272,-0.006l0.272,-0.204l0.025,-0.105l-0.198,-0.186l-0.006,-0.154l-0.087,-0.081l-0.099,-0.024l-0.08,0.043l-0.062,0.086l-0.111,-0.006l-0.39,-0.235l-0.235,-0.012l-0.099,0.049h-0.148l-0.242,-0.167l-0.074,-0.012l-0.074,-0.062l-0.093,-0.006l-0.062,0.037h-0.124l-0.086,-0.031l-0.18,-0.006l-0.309,0.056l-0.544,0.055l-0.353,0.13l-0.087,0.074l-0.018,0.081l0.031,0.08l-0.025,0.142l-0.235,0.211l-0.241,0.049l-0.285,-0.031l-0.371,-0.179l-0.309,-0.285l-0.019,-0.111l0.124,-0.105l0.006,-0.081l-0.105,-0.055l-0.143,0.025l-0.068,0.074v0.08l0.038,0.068l-0.025,0.099l-0.229,0.13l-0.068,0.087l-0.155,0.086l-0.006,0.062l0.062,0.062l-0.012,0.093l-0.192,0.117l-0.081,0.149l-0.723,0.155l-0.458,0.259h-0.211l-0.507,-0.272l-0.606,-0.495l-0.557,-0.618l-0.272,-0.446l-0.272,-0.346l-0.334,-0.285l-0.458,-0.631l-0.545,-0.897l-0.371,-0.81l-0.346,-0.953l-0.149,-0.841l-0.062,-0.458l-0.099,-0.161l0.025,-0.186l0.223,-0.334l0.557,-0.222l0.655,-0.112l0.421,-0.26l0.161,-0.222l0.012,-0.173l0.124,-0.137l0.297,-0.074l0.161,-0.247v-0.248l-0.198,-0.247l-0.124,-0.371l0.087,-0.062l0.136,0.124l0.074,0.21l0.099,0.099l0.235,0.049l0.074,0.124v0.161l-0.086,0.111l0.012,0.248l0.161,0.136l0.223,0.062l0.123,-0.112l0.059,0.044l-0.139,0.241l-0.148,0.074l-0.065,0.084l-0.019,0.13l-0.278,0.464l-0.112,0.055l-0.055,0.093v0.13l-0.075,0.111l-0.501,0.232l-0.547,0.093l-0.251,0.204l-0.176,0.306l0.056,0.084l0.38,-0.111l0.659,-0.251l0.325,-0.315l0.668,-1.068l0.223,-0.278l0.278,-0.408l0.306,-0.381l0.334,-0.26l0.501,-0.167l0.446,-0.278l0.389,-0.38l0.307,-0.362l0.26,-0.149l0.222,-0.018l0.316,-0.167l0.185,-0.158l0.353,-0.139h0.445l0.232,-0.047l0.242,0.01l0.176,0.064l0.195,0.01l0.204,-0.102h0.241l0.325,0.176l0.102,0.213l0.028,0.214l-0.269,0.39l-0.232,0.194l-0.149,0.028l-0.092,0.056l-0.047,0.111l-0.148,0.084v0.065l0.12,-0.019l0.14,-0.083l0.167,-0.01l0.148,-0.157l0.176,-0.232l0.26,-0.399l0.223,-0.418l0.288,-0.371l0.464,-0.316l0.723,-0.25h0.167l0.167,-0.047l0.149,-0.111l0.306,-0.046l0.483,0.028l0.399,0.204l0.167,0.213l0.093,0.195l-0.038,0.139l-0.139,0.149l-0.185,0.176l-0.112,0.028l-0.046,0.093l0.121,0.046l0.185,-0.093l0.26,-0.38l0.148,-0.446l0.251,-0.519l0.51,-0.446l0.26,-0.148l0.251,-0.047l0.826,-0.343l0.167,-0.148l0.232,-0.112l0.204,0.019l0.315,0.213l0.075,0.177l-0.028,0.129l-0.121,0.075l-0.006,0.049l0.117,-0.018l0.155,-0.137l0.254,-0.389l0.198,-0.217l0.222,-0.204l0.266,-0.414l0.124,-0.081l0.167,-0.204l0.192,-0.074l0.334,-0.019l0.111,-0.043l0.204,-0.006l0.273,0.093l0.26,-0.007l0.142,-0.055l0.167,-0.025l0.086,0.018l0.174,-0.006l0.253,-0.161l0.285,-0.03l0.235,0.055l0.173,0.074l0.241,-0.018l0.155,0.031l0.136,-0.013l0.118,-0.086l0.154,-0.006l0.198,0.099l0.149,0.204l0.018,0.086l0.056,0.019l0.186,-0.149l0.08,-0.179l0.291,-0.204v-0.105l0.043,-0.099l-0.018,-0.489l0.049,-0.062v-0.074l-0.043,-0.087l0.049,-0.055l0.266,-0.031l0.062,-0.149l0.198,-0.018l0.05,-0.081l-0.013,-0.123l0.006,-0.112l0.044,-0.062l-0.044,-0.024h-0.711v-0.198l0.173,-0.198l0.013,-0.112l0.068,-0.049h0.179v-0.167h0.105v-0.699h-0.093l-0.018,-0.081l0.049,-0.08v-0.093l-0.055,-0.068v-0.266h0.123l0.056,-0.062v-0.192h0.254v-0.358h0.699v-0.223h1.033l0.087,-0.087v-0.13h0.253v-0.235h0.427l0.074,0.112h0.167l0.037,-0.087l-0.006,-0.21l0.025,-0.13l0.087,-0.062l0.031,-0.272l-0.044,-0.161v-0.198h0.285l0.018,-0.081l-0.031,-0.111l0.007,-0.08l0.092,-0.025l0.007,-0.111l0.204,-0.031l0.062,-0.062h0.377l0.093,0.049h0.829v0.149h0.179v0.08h0.266v-0.074h0.087l0.049,0.043l0.056,0.006l0.074,-0.062l0.303,-0.012l0.037,-0.099h0.681l0.074,-0.062l0.204,0.013l0.167,0.346l0.099,-0.025l0.106,-0.161l0.123,-0.068l0.099,0.007l0.235,0.278l0.062,0.006l0.223,-0.068l0.489,-0.025l0.204,0.056l0.482,0.025l0.167,-0.149l0.025,-0.216h0.161l0.049,-0.068l-0.006,-0.353l0.068,-0.105v-0.124l0.093,-0.043l0.025,-0.062l-0.025,-0.105l-0.006,-0.223l-0.217,-0.167l-0.055,-0.179l0.674,-0.025v-0.062l-0.26,-0.111l0.006,-0.056l0.174,-0.086l0.031,-0.211v-0.124l0.216,-0.21l0.055,-0.151v-0.135l0.06,-0.07l0.131,-0.009l0.041,-0.084l-0.027,-0.121l0.014,-0.144l0.065,-0.051l0.381,0.055l0.033,-0.055l-0.037,-0.061l0.014,-0.06l0.056,-0.047l-0.019,-0.168l-0.051,-0.051l-0.056,-0.144l-0.009,-0.158l-0.084,-0.01l-0.079,0.084l-0.098,0.028l-0.098,0.103l-0.023,0.097l-0.098,0.089l-0.056,-0.019l-0.023,-0.181l-0.158,-0.117l-0.224,-0.018l-0.074,-0.047l-0.005,-0.107l0.061,-0.061l0.265,-0.013l0.233,-0.089l0.116,-0.014l0.028,-0.06l-0.065,-0.089l0.046,-0.153l-0.055,-0.014l-0.056,0.051l-0.065,-0.009l-0.042,-0.075l0.014,-0.112l-0.019,-0.149l-0.102,-0.083l-0.024,-0.084l0.019,-0.056l-0.014,-0.056l-0.237,-0.14l-0.047,-0.116l-0.014,-0.121l0.042,-0.042l0.061,0.01l0.041,-0.052l-0.079,-0.232l-0.014,-0.131l0.028,-0.07l-0.042,-0.093l-0.144,-0.06l-0.009,-0.042l-0.061,-0.033l-0.051,0.024h-0.051l-0.042,-0.052l-0.126,-0.004l-0.084,0.056l-0.055,0.004l-0.033,-0.037l-0.065,-0.009l-0.065,0.032l-0.261,-0.009l-0.191,-0.116l-0.032,-0.084l0.046,-0.089l0.157,-0.093l0.018,-0.094l0.098,-0.08l0.006,-0.063l-0.031,-0.024l-0.003,-0.046l0.101,-0.098v-0.122l-0.06,-0.066l0.004,-0.105l0.157,-0.181l0.007,-0.07l-0.038,-0.063l0.035,-0.07l0.104,-0.056l0.077,0.035l0.045,-0.024l-0.021,-0.066l0.046,-0.063l0.066,-0.014l0.032,-0.088l-0.014,-0.122l0.059,-0.118l0.017,-0.13l0.07,-0.017l0.095,0.07l0.129,0.017l0.314,0.091l0.387,0.202h0.21l0.632,-0.589l0.01,-0.053l-0.073,-0.112l-0.039,-0.167l-0.132,-0.073h-0.094l-0.053,0.076l-0.073,0.021l-0.039,0.063l-0.027,0.182l-0.07,0.031l-0.192,-0.035l-0.164,-0.146l-0.116,-0.025l-0.342,0.021l-0.056,-0.01l-0.052,-0.063l-0.056,-0.004l-0.028,0.084l-0.049,0.007l-0.041,-0.045l0.01,-0.074l-0.094,-0.076l-0.161,-0.018l-0.038,-0.056l0.017,-0.139l-0.021,-0.102l-0.094,-0.097l-0.059,-0.126l0.007,-0.063l-0.049,-0.024l-0.105,0.059h-0.049l-0.118,-0.147h-0.088l-0.07,0.053l-0.055,-0.004l-0.039,-0.052v-0.056l0.074,-0.073l0.034,-0.189l-0.028,-0.049l0.039,-0.055l0.112,-0.021l0.356,0.073l0.111,-0.018l0.189,-0.136l0.077,-0.007l0.056,0.025l0.101,-0.004l0.206,-0.052l0.157,0.007l0.153,0.052l0.133,-0.003l0.031,-0.074l-0.003,-0.132l0.297,-0.478l0.265,-0.318l0.101,-0.066l0.245,-0.056l0.199,-0.182l0.087,-0.171l0.108,-0.077h0.3l0.199,-0.052l0.077,-0.063l0.011,-0.077l-0.262,-0.171l-0.035,-0.097l0.003,-0.098l0.053,-0.101l0.017,-0.151l0.039,-0.062l-0.007,-0.063l-0.109,-0.07l-0.087,-0.014l-0.059,-0.07l-0.025,-0.063l-0.136,-0.073l-0.084,-0.007l-0.132,-0.094l-0.147,-0.15l-0.185,-0.276l-0.133,-0.077l-0.007,-0.063l0.077,-0.296l-0.01,-0.182l0.021,-0.073l0.81,-0.37l0.007,-0.056l-0.151,-0.14l-0.041,-0.084l-0.014,-0.129l-0.056,-0.017l-0.36,0.132h-0.042l-0.083,-0.048l-0.632,0.069l-0.053,0.032l-0.108,0.188l-0.223,0.122l-0.098,-0.003l-0.223,-0.045h-0.098l-0.133,0.038h-0.084l-0.359,-0.335l-0.185,-0.063l-0.147,-0.007l-0.101,-0.059l-0.119,-0.018l-0.171,-0.139l-0.181,-0.559l-0.123,-0.188l0.119,-0.137l-0.475,-0.052l-0.474,-0.192l-0.224,0.004l-0.328,0.188l-0.119,-0.003l-0.398,-0.119l-0.115,-0.007l-0.132,-0.126l-0.077,-0.014l-0.133,-0.181l-0.073,-0.199l-0.011,-0.245l-0.247,-0.37l-0.067,-0.003l-0.255,0.167l-0.076,0.074l-0.07,0.153l-0.262,0.189l-0.094,0.007l-0.15,-0.049l-0.123,-0.003l-0.223,0.125h-0.091l-0.118,0.084l-0.17,-0.034l-0.117,-0.167l0.01,-0.28l-0.08,-0.116l-0.325,0.009l-0.154,-0.083l-0.144,-0.052l-0.093,0.019l-0.093,-0.033l-0.038,-0.083l-0.093,-0.038h-0.084l-0.079,-0.055l-0.046,-0.14l-0.061,-0.065l-0.116,-0.038l-0.065,-0.065l-0.014,-0.139l0.051,-0.084l0.112,-0.102v-0.084l-0.168,-0.159l-0.065,0.033l-0.014,0.126l0.037,0.093l-0.032,0.06l-0.089,0.005l-0.093,0.084h-0.074l-0.145,-0.112l-0.237,-0.019l-0.354,0.135l-0.228,-0.032l-0.093,-0.144l-0.079,-0.01l-0.047,-0.032l0.024,-0.07l-0.154,-0.07l-0.079,0.014l-0.056,0.13l-0.065,0.005l-0.135,-0.07l-0.256,-0.088l-0.023,-0.056l0.028,-0.149l-0.014,-0.093l-0.107,-0.093l-0.038,-0.075l0.005,-0.195l-0.102,-0.061h-0.103l-0.102,0.093l-0.103,0.024l-0.539,-0.047l-0.038,0.033l0.052,0.437l0.195,0.345l-0.019,0.074l-0.097,0.042l-0.028,0.074l-0.182,0.08l-0.009,0.107l-0.233,0.149l-0.037,-0.024l0.014,-0.121l-0.061,-0.018l-0.405,0.153l-0.135,0.172h-0.055l-0.033,-0.06l-0.005,-0.13l0.093,-0.042v-0.065l-0.209,-0.228l-0.088,-0.005l-0.21,-0.14l-0.214,-0.419l-0.247,-0.177l-0.204,-0.023l-0.284,-0.135l-0.103,-0.102l-0.102,-0.014l-0.158,0.037l-0.07,-0.023l-0.284,-0.359l0.004,-0.055l-0.041,-0.042l-0.066,-0.01l-0.218,-0.167l-0.14,-0.196l0.023,-0.074l-0.046,-0.079l-0.117,-0.093l-0.028,-0.117l0.075,-0.167l0.009,-0.466l0.065,-0.065l-0.018,-0.07l-0.172,-0.065l-0.135,0.014l-0.056,0.065l-0.07,-0.004l-0.065,-0.149l-0.103,-0.061l-0.116,-0.005l-0.074,-0.032l-0.052,-0.093l-0.074,-0.051l-0.098,-0.01l-0.093,-0.107l-0.033,-0.484l0.033,-0.056l0.093,-0.009l0.061,-0.181l-0.061,-0.042l-0.251,0.079l-0.145,0.116l-0.218,0.033l-0.307,-0.052l-0.219,0.075l-0.135,0.223l-0.428,0.182l-0.052,0.06l-0.456,0.149l-0.111,-0.032l-0.187,0.028l-0.06,0.046l-0.373,0.056l-0.139,-0.037l-0.573,0.009l-0.526,0.168l-0.079,0.107l-0.088,0.042l-0.144,0.023l-0.252,0.093l-0.032,0.079l-0.089,0.065l-0.112,0.005l-0.214,0.13l-0.06,-0.004l-0.07,0.032l-0.028,0.252l-0.093,0.125h-0.116l-0.159,-0.06l-0.079,0.014l-0.298,-0.196l0.01,-0.084l0.065,-0.004l0.032,-0.075l-0.041,-0.056l0.027,-0.027l0.084,0.004l0.019,-0.056l-0.116,-0.042l-0.154,0.042l-0.205,-0.037l-0.028,-0.074l-0.121,-0.042l-0.042,-0.079l-0.102,-0.038l-0.228,0.024l-0.07,-0.019l-0.005,-0.121l-0.06,-0.005l-0.191,0.187l-0.121,0.037l-0.033,0.084l-0.111,0.027l-0.382,-0.046l-0.112,-0.089l-0.023,-0.153l0.019,-0.112l-0.154,-0.172l-0.098,-0.009l-0.083,-0.056l-0.024,-0.098l-0.13,-0.116l-0.028,-0.093l-0.093,-0.056l-0.098,0.004l-0.084,-0.083l0.005,-0.126l-0.107,-0.061l-0.228,-0.027l-0.177,-0.075l-0.293,-0.028l-0.452,0.079l-0.051,0.065l-0.214,0.01l-0.154,-0.047l-0.139,0.009l-0.079,0.117h-0.084l-0.214,-0.065l-0.191,0.079l-0.028,0.07l0.042,0.079l-0.042,0.116l-0.349,0.293l-0.126,0.028l-0.409,-0.009l-0.093,0.033l-0.173,-0.019l-0.121,-0.093l0.005,-0.084l-0.088,-0.154l-0.08,-0.027l0.005,-0.461l-0.084,-0.117l-0.046,0.019l0.004,0.056l-0.069,0.014l-0.387,-0.265l-0.111,-0.014l-0.103,-0.075l-0.186,-0.349l0.023,-0.079l-0.074,-0.163l-0.228,-0.126l0.004,-0.088l0.191,-0.144l-0.018,-0.084l-0.08,-0.047l-0.116,-0.209l0.023,-0.089l0.256,-0.046l0.117,-0.065h0.098l0.102,0.074l0.06,-0.009l0.005,-0.103l0.042,-0.041l-0.009,-0.056l-0.21,-0.028l-0.032,-0.149l0.06,-0.07l0.019,-0.135l-0.037,-0.102l0.041,-0.168l0.103,-0.168l-0.056,-0.069l-0.214,-0.019l-0.103,-0.084l-0.083,-0.009l-0.052,-0.042l0.061,-0.214l-0.023,-0.163l-0.079,-0.144l-0.107,-0.028l-0.019,-0.061l0.065,-0.042l-0.005,-0.051l-0.102,-0.06l0.005,-0.061l0.144,-0.065v-0.098l-0.07,-0.083l-0.116,-0.014l-0.126,-0.07l-0.13,-0.01l-0.037,-0.074l0.13,-0.228l-0.033,-0.126l-0.135,-0.191l0.024,-0.046l0.162,0.032l0.149,-0.028l0.233,-0.134l-0.018,-0.187l-0.177,-0.135l-0.126,-0.023l-0.084,0.033l-0.098,-0.024l-0.069,-0.116l-0.117,0.005l-0.205,0.153l-0.102,0.01l-0.06,-0.042l-0.089,0.004l-0.13,0.117h-0.112l-0.251,-0.275h-0.079l-0.005,-0.056l0.154,-0.042l0.004,-0.074l-0.06,-0.051l-0.01,-0.084l0.066,-0.033l0.004,-0.051l-0.209,-0.098l-0.033,-0.153l-0.088,-0.061l-0.005,-0.079l0.051,-0.079l0.005,-0.158l0.065,-0.079v-0.089l0.051,-0.037l-0.004,-0.042l-0.205,-0.06l-0.298,0.018l-0.079,0.056l0.005,0.093l-0.089,0.065l-0.06,-0.009l-0.024,-0.088l-0.153,-0.112l-0.168,0.005l-0.088,-0.028l-0.131,0.028l-0.116,0.172l-0.084,0.037l-0.093,-0.009l-0.065,0.032v0.061l-0.144,0.032l-0.089,-0.042l-0.167,0.07l-0.047,0.149l-0.088,0.014l-0.182,-0.112l-0.074,0.01l-0.037,0.056l-0.066,0.004l-0.074,-0.042l-0.168,-0.004l-0.046,0.056h-0.093l-0.228,-0.154l-0.07,-0.424l-0.075,-0.074l-0.316,-0.033l-0.121,0.131h-0.093l-0.182,-0.126l-0.139,-0.009l-0.038,0.065l-0.088,0.018l-0.275,-0.074l-0.056,-0.084l-0.074,-0.014l-0.079,0.038l-0.112,-0.033l-0.037,-0.07l-0.116,-0.028l-0.089,0.009l-0.307,0.275h-0.163l-0.465,-0.191l-0.005,-0.084l0.074,-0.032l0.01,-0.065l-0.056,-0.079l0.056,-0.075l0.121,-0.014l0.111,-0.13l-0.004,-0.135l0.056,-0.037l0.116,0.014l0.042,-0.024l0.014,-0.069l0.102,-0.089l-0.004,-0.07l-0.27,-0.116l-0.014,-0.084l-0.047,-0.032l-0.079,0.032l-0.196,-0.121h-0.069l-0.07,-0.065l0.009,-0.158l0.14,-0.056l0.042,-0.093l-0.01,-0.112l0.093,-0.149l0.107,-0.014l0.108,-0.126l-0.033,-0.125l0.037,-0.061l0.07,-0.018l0.014,-0.056l-0.075,-0.047l-0.018,-0.084l-0.075,-0.046h-0.069l-0.07,-0.084l-0.019,-0.237l-0.051,-0.056h-0.075l-0.023,0.046l-0.065,-0.009l-0.028,-0.158l-0.07,-0.023l-0.065,0.009l-0.07,-0.023l-0.032,-0.205l-0.131,-0.154l-0.186,-0.042l-0.153,-0.139l-0.107,-0.01l-0.028,-0.051l0.093,-0.093l0.186,-0.06l0.386,-0.089l0.061,0.019l0.06,-0.005l0.056,-0.065l0.07,-0.005l0.088,0.024l0.331,-0.047l0.098,-0.107l0.069,-0.014l0.121,0.033l0.242,0.023l0.34,-0.075l0.135,-0.181l-0.014,-0.177l-0.177,-0.167l-0.014,-0.117l0.047,-0.144l-0.009,-0.126l-0.173,-0.144l-0.074,0.005l-0.056,-0.033l-0.046,-0.102l-0.252,-0.145l-0.051,-0.088l-0.121,-0.051l-0.163,0.018l-0.079,0.07l-0.061,-0.019l0.005,-0.125l0.056,-0.112l-0.075,-0.051l-0.093,0.014l-0.074,-0.056l-0.005,-0.074l-0.111,-0.117l-0.089,-0.205l-0.093,-0.055l-0.214,0.009l-0.093,-0.089l0.042,-0.149l-0.065,-0.069l-0.145,0.004l-0.074,-0.046l-0.019,-0.21l0.042,-0.056l-0.014,-0.102l-0.107,-0.07l-0.014,-0.074l-0.079,-0.01l-0.005,-0.065l0.107,-0.097h0.084l0.028,-0.061l-0.07,-0.06l0.014,-0.07l0.103,-0.075l0.06,-0.163l-0.042,-0.083l-0.116,-0.08l-0.116,-0.009l-0.098,-0.116l0.028,-0.131l-0.093,-0.139l-0.205,-0.023l-0.093,-0.066l-0.01,-0.125l-0.097,-0.07l-0.07,0.005l-0.103,-0.061l-0.004,-0.079l-0.056,-0.028l-0.079,0.014l-0.061,-0.042l0.061,-0.093l0.014,-0.2l-0.117,-0.079l-0.014,-0.079l-0.069,-0.028l-0.182,0.018l-0.242,-0.084l-0.019,-0.065l0.061,-0.07l-0.005,-0.083l-0.069,-0.056l-0.038,-0.103l-0.102,-0.051l-0.149,-0.023h-0.177l-0.219,0.107h-0.083l-0.117,-0.074l-0.149,0.041l-0.042,0.084l-0.144,0.065l-0.237,0.01l-0.242,0.153v0.085l-0.025,0.021l-0.192,-0.094l-0.017,0.024l0.094,0.088l-0.021,0.052l-0.147,-0.004l-0.101,-0.034l-0.112,-0.007l-0.048,-0.035l-0.081,-0.007l-0.024,-0.049l0.059,-0.098l0.129,-0.031l0.053,-0.088l0.003,-0.094l-0.091,-0.038l-0.059,0.031l-0.112,-0.014l-0.129,-0.084l-0.059,0.014l-0.045,0.088l0.041,0.056l-0.034,0.041l-0.192,-0.034l-0.014,-0.053l0.038,-0.063l-0.08,-0.08l-0.227,-0.003l-0.126,0.136l-0.112,0.014l-0.094,-0.032h-0.066l-0.021,0.032l-0.077,0.003l-0.129,-0.08l-0.391,-0.115l-0.112,-0.007l-0.021,-0.042h-0.063l-0.094,0.098l-0.003,0.219l-0.042,0.039l-0.087,-0.004l-0.063,-0.045l-0.067,0.01l-0.111,0.126l-0.056,0.021l-0.21,0.185l-0.076,0.004l-0.014,-0.06l0.073,-0.042l-0.011,-0.108l-0.069,0.004l-0.046,0.035l-0.021,0.094l-0.209,0.174l-0.119,0.025l-0.028,0.045l0.025,0.077l-0.035,0.042l-0.189,-0.011l-0.094,0.028l-0.342,0.224l-0.094,-0.014l-0.039,-0.102l0.032,-0.101l-0.049,-0.049l-0.161,0.004l-0.077,-0.039l-0.073,0.007l-0.066,0.144l-0.06,0.017l-0.069,-0.035l-0.081,0.004l-0.111,0.059h-0.063l-0.018,-0.052l-0.059,-0.011l-0.122,0.07h-0.098l-0.066,0.056h-0.046l-0.09,-0.136l-0.322,-0.185l-0.15,-0.144l-0.076,-0.01l-0.105,0.038l-0.074,-0.021l-0.024,-0.073l-0.122,-0.129l-0.112,-0.017l-0.223,0.007l-0.039,0.083l-0.062,0.007l-0.102,-0.073l-0.122,-0.014l-0.073,0.035l-0.074,-0.004l-0.171,-0.132h-0.034l-0.021,0.031l-0.046,0.004l-0.042,-0.025h-0.08l-0.112,0.084l-0.01,0.108l0.084,0.108l0.035,0.13l-0.011,0.08l0.038,0.035l0.06,-0.035l0.028,0.031l-0.014,0.091l0.028,0.101l0.07,0.032l-0.007,0.038l-0.133,0.056l-0.126,0.004l-0.049,-0.046l-0.052,0.007l-0.129,0.143l0.003,0.168l0.115,0.105v0.108l-0.066,0.073l-0.007,0.066l-0.056,0.07l0.032,0.042l0.213,-0.007l0.059,0.052l-0.003,0.046l-0.088,0.042h-0.136l-0.007,0.045l-0.031,0.007l-0.042,-0.017l-0.035,0.01l-0.018,0.087l-0.038,0.028l-0.073,-0.003l-0.039,0.042l0.011,0.059l-0.049,0.077l-0.22,0.119l-0.161,0.003l-0.052,0.028l-0.024,0.045l-0.105,0.063v0.053l-0.049,0.003l-0.028,-0.049l-0.234,0.018l-0.063,0.073l-0.041,0.094l-0.046,0.042l-0.181,-0.007l-0.053,0.042v0.049l-0.042,0.028l-0.174,-0.011l-0.272,-0.125l-0.384,-0.025l-0.056,0.042l-0.213,0.004l-0.025,-0.056l0.074,-0.06l0.059,0.025l0.045,-0.004l0.028,-0.063l0.067,-0.066l-0.018,-0.07l-0.136,-0.035l-0.084,-0.101l-0.279,-0.136l-0.241,0.014l-0.122,0.087l-0.105,0.007l-0.101,-0.084l-0.101,-0.024l-0.088,0.007l-0.097,0.073l-0.136,0.042l-0.067,-0.003l-0.052,-0.077l-0.112,-0.018l-0.181,-0.069l-0.091,-0.004l-0.046,0.025l-0.216,-0.004l-0.031,0.025h-0.056l-0.129,-0.063l-0.22,-0.011l-0.067,-0.038l-0.146,0.003l-0.129,0.056h-0.091l-0.119,-0.042l-0.059,-0.132l-0.098,-0.035h-0.174l-0.049,-0.021l-0.056,0.003l-0.053,0.063l-0.062,0.007l-0.014,0.039l0.059,0.055l-0.017,0.042l-0.112,0.053l-0.262,0.048l-0.042,0.046l0.007,0.084l-0.038,0.028l-0.004,0.038l0.025,0.042l-0.007,0.045l-0.109,0.175l-0.069,0.056l-0.213,0.066l-0.088,-0.007l-0.192,-0.101l-0.051,-0.107l-0.088,-0.07l-0.172,-0.023l-0.131,-0.07l-0.051,-0.135l-0.088,-0.005l-0.215,0.093l-0.223,0.014l-0.372,0.079l-0.219,-0.004l-0.061,-0.084l-0.079,0.019l-0.004,0.065l-0.047,0.037h-0.06l-0.033,0.051l0.107,0.103l-0.005,0.074l-0.065,0.065l-0.014,0.07l0.052,0.056l-0.056,0.121l-0.098,0.014l-0.121,0.074l-0.023,0.061l0.079,0.037l-0.024,0.056l-0.102,0.005l-0.023,0.041l0.037,0.07l-0.033,0.051l-0.074,0.005l-0.056,-0.046l-0.07,0.009l-0.042,0.07l-0.083,0.032v0.065l-0.052,0.019l-0.074,-0.023l-0.042,0.051l0.089,0.214l-0.117,0.121l-0.018,0.07l-0.061,0.032l-0.265,-0.051l-0.098,0.047l-0.084,0.102l-0.004,0.075l-0.047,0.065l-0.074,0.023l-0.075,0.149l0.014,0.144l-0.047,0.056l-0.102,0.014l-0.079,0.084l0.046,0.181l-0.046,0.075l-0.172,0.033l-0.079,0.083l-0.084,0.028l0.004,0.07l0.075,0.014l0.084,-0.047l0.097,0.014l-0.023,0.112l-0.149,0.186l-0.023,0.121l-0.084,0.052l-0.237,-0.01l-0.07,0.033l-0.009,0.07l0.107,0.135l0.009,0.093l-0.051,0.051v0.079l0.065,0.093l-0.042,0.037h-0.149l-0.028,0.056l0.061,0.065l-0.028,0.056h-0.103l-0.032,0.047l0.023,0.088l-0.051,0.047l-0.088,-0.014l-0.028,0.046l0.051,0.084l0.107,0.056l0.079,-0.005l0.06,0.042l-0.037,0.033h-0.116l-0.042,0.051l0.112,0.144l0.004,0.07l0.075,0.023l0.098,-0.093l0.069,0.005l0.042,0.065l-0.018,0.07l-0.103,0.093v0.112l0.112,0.125l0.033,0.14l0.097,0.084l-0.009,0.065l-0.163,0.112l0.005,0.111l0.079,0.112l0.107,0.005l0.019,-0.051l0.069,0.004l0.065,0.191l0.154,0.237l-0.014,0.089l-0.102,0.028l-0.01,0.07l0.107,0.107l0.005,0.069l-0.051,0.052l-0.177,0.028l-0.181,0.158l-0.084,0.032l-0.024,0.084l0.01,0.093l-0.056,0.145l-0.149,0.055l-0.074,-0.009l-0.149,-0.102l-0.107,-0.014l-0.177,0.042l-0.103,-0.005l0.01,-0.084l0.065,-0.06v-0.112l-0.056,-0.047l-0.112,-0.004l-0.088,0.042l-0.079,-0.01l-0.117,-0.055l-0.042,-0.098l-0.27,-0.233l-0.093,-0.019l-0.018,-0.069l0.177,-0.168l-0.07,-0.354l-0.07,-0.028l-0.102,-0.079l-0.014,-0.06l-0.191,-0.191l-0.117,-0.056l-0.088,-0.093l-0.126,-0.084l-0.186,-0.042l-0.181,-0.149l-0.089,0.028l-0.023,0.135l-0.056,0.019l-0.079,-0.047l-0.079,-0.079l-0.051,0.019v0.084l-0.061,0.046l-0.233,-0.084l-0.186,-0.009l-0.214,-0.07l-0.042,0.028l0.023,0.061l-0.051,0.079l-0.084,0.032l-0.079,-0.023l-0.051,0.033l-0.032,0.079l-0.103,0.018l-0.079,-0.139l-0.112,-0.023l-0.223,0.032l-0.037,0.084l-0.01,0.102l-0.051,0.075v0.07l-0.046,0.028l-0.107,-0.028l-0.038,-0.056l-0.074,-0.01l-0.103,0.061l-0.051,-0.009l-0.032,-0.066l-0.093,0.005l-0.014,0.084l-0.066,0.019l-0.288,-0.121l-0.084,-0.27l0.098,-0.024l0.028,-0.051l-0.056,-0.098l0.032,-0.125l-0.069,-0.056l-0.14,0.023l-0.047,0.065l-0.195,0.084l-0.005,0.07l-0.037,0.004l-0.037,-0.032l-0.065,0.005l-0.024,0.055h-0.046l-0.033,-0.051h-0.06l-0.037,0.075l-0.107,0.074l-0.019,0.158l-0.084,0.066l-0.084,0.004l-0.204,-0.158l-0.061,0.005l-0.019,0.139l-0.079,0.075l-0.028,0.088l0.024,0.079l-0.107,0.303l-0.098,0.023l-0.405,-0.116l-0.121,-0.005l-0.214,0.093l-0.051,0.084l-0.103,0.06h-0.13l-0.047,0.052l-0.042,-0.005l-0.004,-0.088l0.042,-0.056v-0.065l-0.075,-0.145l-0.018,-0.116l-0.052,-0.098l0.01,-0.051l-0.042,-0.061l-0.098,-0.018l-0.074,0.028l-0.042,-0.056l0.023,-0.079l-0.037,-0.056l-0.079,-0.042l-0.014,-0.321l0.065,-0.126l-0.042,-0.265l-0.079,-0.037l-0.126,0.009l-0.112,-0.107l0.01,-0.098l-0.028,-0.07l-0.121,-0.042l-0.024,-0.065l0.042,-0.051l-0.014,-0.056l-0.144,-0.028l0.005,-0.093l0.07,-0.06l-0.005,-0.056l-0.144,-0.009l-0.14,-0.038l-0.088,0.019l-0.131,0.135l-0.004,0.079l-0.047,0.047l-0.126,0.004l-0.186,0.172l-0.028,0.112l-0.153,0.117l-0.135,-0.005l-0.028,0.046l-0.093,-0.014l-0.038,-0.116l-0.055,-0.009l-0.084,0.032h-0.103l-0.121,-0.014l-0.144,0.01l-0.074,0.097l-0.266,0.14l-0.116,-0.005l-0.075,0.08l-0.027,0.111l-0.163,0.224l-0.112,0.214v0.06l0.051,0.028l0.047,0.065v0.07l0.032,0.042l-0.018,0.07l-0.061,0.051l-0.023,0.144l-0.065,0.08l-0.051,-0.005l-0.075,-0.126l-0.019,-0.088l0.014,-0.177l-0.046,-0.014l-0.056,0.047l-0.033,0.093l-0.107,0.037h-0.111l-0.224,-0.656l0.024,-0.07l-0.042,-0.2l0.074,-0.066v-0.074l-0.079,-0.051l-0.596,-0.01l-0.023,-0.069l-0.205,-0.014l-0.065,-0.056l-0.289,-0.009l-0.474,0.344l-0.247,0.084l-0.051,-0.047l0.023,-0.107l-0.074,-0.177l-0.098,-0.07l-0.298,-0.307l-0.158,0.01l-0.028,-0.066l0.042,-0.074l0.028,-0.224l0.037,-0.074l-0.042,-0.065h-0.07l-0.121,0.065l-0.046,0.051l-0.317,0.168l-0.042,0.056l-0.023,0.144l-0.084,0.14l-0.051,0.018l-0.089,-0.018l-0.055,0.032l-0.08,0.168l-0.167,0.088l-0.084,-0.028l-0.056,0.014l-0.074,0.075l-0.535,0.065l-0.052,-0.033l-0.028,-0.125l0.07,-0.135l-0.056,-0.014l-0.125,0.135l-0.117,0.014l-0.042,-0.052l0.024,-0.172l-0.093,-0.121l-0.261,-0.079l-0.088,0.009l-0.159,0.084l-0.004,0.047l0.051,0.014l-0.005,0.046l-0.046,0.061v0.246l0.093,0.187l-0.005,0.055l-0.084,0.056l-0.177,0.014l-0.069,0.056l-0.08,0.168l-0.074,0.083l-0.047,0.098l0.005,0.075l-0.042,0.037l-0.125,-0.009l-0.084,-0.117l-0.135,-0.084l-0.103,-0.009l-0.167,-0.126l0.004,-0.051l0.075,-0.028l0.014,-0.135l0.275,-0.209l0.051,-0.228l-0.033,-0.117l-0.2,-0.023l-0.07,-0.065h-0.107l-0.07,-0.033l-0.093,0.005l-0.06,0.061l-0.103,0.004l-0.391,-0.246l-0.083,0.009l-0.014,0.093l-0.052,0.005l-0.097,-0.098l-0.066,0.018l0.01,0.201l0.074,0.028l-0.065,0.144l-0.088,0.004l-0.098,-0.041l-0.005,-0.089l0.042,-0.079l-0.051,-0.014l-0.065,0.065l-0.056,0.005l-0.07,-0.075l-0.135,0.005l-0.056,0.079h-0.214l-0.149,-0.07h-0.088l-0.084,0.052l-0.479,0.014l-0.038,0.037l-0.13,0.004l-0.005,-0.051l0.042,-0.051l0.005,-0.112l0.14,-0.172l-0.005,-0.098l-0.112,-0.083l-0.219,0.018l-0.093,-0.051l-0.032,-0.898l-1.29,0.06l-0.307,0.289h-0.07l-0.186,-0.065l-0.284,-0.019l-0.121,-0.084l-0.195,-0.009l-0.089,0.046l-0.111,-0.009l-0.191,-0.116l-0.047,-0.056l-0.018,-0.21l-0.149,-0.093l-0.065,0.014l-0.098,-0.004l-0.098,-0.075l-0.521,-0.018l-0.089,-0.056l-0.046,0.014l-0.023,0.074l-0.219,0.065l-0.051,0.126l-0.47,-0.009l-0.052,-0.028l-0.023,-0.093l-0.177,-0.042l-0.056,-0.107l-0.074,-0.024l-0.126,0.014l-0.042,-0.032l0.01,-0.368h-0.047l-0.116,0.112l-0.303,-0.005l-0.102,0.037l-0.196,-0.046l-0.032,-0.047l-0.345,-0.004l-0.037,0.056l-0.172,0.023l-0.21,-0.037l-0.023,-0.075l-0.046,-0.023l-0.066,0.018l-0.088,-0.065v-0.065l-0.037,-0.046l-0.065,-0.01l-0.07,-0.042l-0.024,-0.074l-0.06,-0.037l-0.228,0.004l-0.051,-0.018l-0.028,-0.056l-0.056,-0.042l-0.196,-0.019l-0.032,-0.042h-0.07l-0.316,0.14l-0.145,0.009l-0.098,-0.037h-0.2l-0.069,-0.037l-0.252,0.014l-0.042,-0.037l-0.004,-0.066l0.046,-0.023l-0.004,-0.056l-0.103,-0.028l-0.158,0.014l-0.051,-0.037l-0.061,0.023l0.028,0.121l-0.005,0.084l-0.065,0.024l-0.111,-0.019l-0.219,0.056h-0.224l-0.572,-0.056l-0.4,-0.14l-0.07,0.033l-0.126,0.102l-0.2,0.019l-0.41,0.005l-0.083,-0.038l-0.168,-0.014l-0.023,-0.042l-0.056,-0.018l-0.089,0.018l-0.148,-0.065l-0.033,-0.051l-0.34,-0.181l-0.158,-0.01l-0.065,0.047h-0.065l-0.084,-0.047l-0.21,-0.009l-0.107,0.042l-0.056,0.07l-0.232,0.042l-0.093,-0.019l-0.117,0.019l-0.228,0.116l-0.256,0.167l-0.186,0.047l-0.154,0.154l-0.149,0.028l-0.074,-0.014l-0.107,-0.177h-0.065l-0.065,0.051l-0.275,0.102l-0.07,-0.004l-0.051,-0.117h-0.168l-0.158,0.154l-0.158,0.079l-0.13,0.005l-0.163,-0.098l-0.098,-0.019l-0.144,0.038l-0.065,-0.005l-0.084,-0.056l-0.349,-0.014l-0.2,0.047l-0.07,0.06h-0.415l-0.172,0.051l-0.61,0.005l-0.125,0.046l-0.135,0.112l-0.07,0.014l-0.014,0.061l0.033,0.056l-0.033,0.079l-0.172,0.121l-0.079,0.135l-0.01,0.121l0.084,0.265l0.075,0.088v0.066l-0.368,0.302l-0.908,0.372l-0.079,0.07l-0.079,0.172l-0.172,0.201l-0.135,0.079l-0.214,0.084l-0.051,0.055l-0.014,0.07l-0.084,0.056l-0.061,0.005l-0.218,-0.07l-0.089,-0.061l-0.279,-0.023l-0.107,0.047l-0.056,-0.005l-0.014,-0.084l0.186,-0.2l-0.009,-0.065l-0.21,-0.065l-0.181,0.004l-0.079,-0.037h-0.084l-0.07,0.042l-0.126,0.005l-0.032,-0.051l0.009,-0.135l-0.06,-0.047l-0.498,0.158l-0.123,-0.033l-0.069,0.019l-0.041,0.067l-0.055,0.028l-0.087,-0.004l-0.054,0.026l-0.054,0.067l-0.158,0.065v0.035l0.123,0.091l0.017,0.102l0.037,0.026l0.076,0.003l0.111,0.093l-0.007,0.095l-0.08,0.039l-0.069,0.124l0.004,0.065l0.094,0.057l0.136,0.225l-0.004,0.078l-0.048,0.025l-0.228,-0.027l-0.043,-0.032l-0.057,-0.007l0.005,0.075l0.126,0.098l0.09,0.014l0.046,-0.031h0.052l0.053,0.104l-0.018,0.049l-0.115,0.081l-0.028,0.069l0.042,0.074l0.188,0.014l0.046,0.041l-0.021,0.119l0.101,0.08l0.011,0.126l-0.06,0.039l-0.059,0.132l0.035,0.07l-0.025,0.052l-0.104,0.025l-0.063,0.073l-0.021,0.112l-0.086,0.117l-0.017,0.091l0.028,0.084l0.061,0.1l-0.007,0.081l0.032,0.019l0.08,-0.033l0.107,0.01l0.123,0.058l0.149,0.191l0.039,0.223l0.075,0.044l0.023,0.07l-0.032,0.051l0.032,0.049h0.079l0.045,0.031l-0.007,0.046l0.044,0.033l0.051,-0.003l0.042,0.033l-0.005,0.049l0.051,0.028l0.089,0.009l0.072,0.075l0.021,0.079l0.081,0.056l0.08,-0.005l0.118,0.051l0.054,0.095l0.004,0.133l-0.037,0.019l-0.032,-0.021l-0.035,0.007l-0.017,0.06l0.059,0.086l0.009,0.107l0.077,0.077l0.021,0.107l0.028,0.005l0.02,-0.021l0.038,0.005l0.028,0.039l0.083,0.003l0.047,0.055l0.023,0.231l0.063,0.037v0.033l-0.056,0.042l0.005,0.037l0.079,0.049v0.044l-0.077,0.025l-0.004,0.033l0.144,0.035l0.139,0.137l0.054,0.128v0.179l0.04,0.035l0.058,0.005l0.067,0.058l0.017,0.093l0.086,0.079l0.076,0.021l0.159,0.138l0.03,0.072l0.077,0.037l0.137,0.009l0.086,0.047l0.047,0.067l0.135,0.063l0.125,0.003l0.035,0.051l-0.053,0.083l-0.261,0.131l-0.359,0.01l-0.077,-0.045l-0.185,-0.007l-0.164,0.08l-0.088,0.126l-0.007,0.07l-0.052,0.122l0.024,0.084l0.004,0.09l0.14,0.098l0.125,-0.024l0.074,0.003l0.055,0.049l-0.003,0.049l-0.056,0.003l-0.014,0.049l0.042,0.049l-0.014,0.164l0.042,0.063l0.108,0.052l0.049,0.004l0.028,-0.028l0.094,-0.003l0.039,0.048l0.003,0.14l-0.052,0.126l0.003,0.052l0.101,0.035l0.07,0.101l-0.007,0.081l-0.031,0.045v0.052l0.077,0.053l0.003,0.038l-0.046,0.07l0.009,0.07l0.046,0.046v0.121l-0.037,0.098l-0.014,0.289l-0.125,0.465l-0.224,0.428l-0.074,0.07l-0.103,0.028l-0.046,0.056l-0.033,0.144l-0.065,0.033h-0.321l-0.996,0.065l-0.456,0.135l-0.14,0.116l-0.079,0.177l-0.014,0.163l-0.061,0.07l-0.228,0.051l-0.06,0.06l-0.019,0.08l-0.06,0.037l-0.093,0.018l-0.07,0.07l-0.065,0.135l-0.158,0.141l-0.418,0.279l-0.251,0.118l-0.146,0.105l-0.112,0.167l-0.153,0.132l-0.223,0.098l-0.46,0.446l-0.16,0.062l-0.118,0.105v0.097l-0.237,0.237l-0.112,0.035l-0.076,0.076l0.014,0.14l-0.641,0.641l-0.063,0.139l-0.745,0.822l-0.146,0.055l-0.077,0.147l0.021,0.097l-0.063,0.07l-0.139,0.049l-0.181,0.181l-0.021,0.153l-0.07,0.063l-0.125,0.034l-0.118,0.168l-0.049,0.104l-0.16,0.132l-0.126,0.028l-0.132,0.147l-0.028,0.174l-0.662,0.738l-0.014,0.16l-0.083,0.098l-0.118,0.042l-0.028,0.097l0.048,0.125l0.14,0.091l0.153,0.028l0.063,0.063l0.034,0.362l0.244,0.634l0.042,0.438l-0.07,0.195l-0.027,0.425l-0.14,0.077v0.118l0.181,0.07l-0.014,0.063l-0.104,0.041l-0.125,0.181l0.034,0.119l0.084,0.014l0.007,-0.07l0.104,-0.063l0.077,0.035l-0.063,0.154l0.098,0.069l0.153,-0.049l0.091,0.056l0.02,0.119l0.251,0.202h0.091l0.216,0.139l0.028,0.104l-0.133,0.14l0.028,0.25l0.132,0.188l-0.041,0.098l-0.174,0.035l-0.091,-0.056l0.014,-0.056l-0.098,-0.097l-0.125,-0.014l-0.223,-0.195h-0.118l-0.035,0.056l-0.077,-0.014l-0.083,-0.056h-0.195l-0.091,0.084l-0.146,-0.014l-0.181,-0.126l-0.091,-0.16l-0.202,-0.111l-0.137,0.002l-0.108,0.052l-0.004,0.046l-0.079,0.023l-0.005,0.399l-0.079,0.088l0.023,0.126l-0.125,0.079l-0.153,-0.01l-0.153,0.079l-0.028,0.102l-0.309,0.398l0.025,0.13l-0.062,0.241l-0.13,0.049l-0.099,0.13l-0.044,0.248l0.038,0.291l-0.075,0.16l-0.185,0.143l-0.025,0.123l0.118,0.093v0.136l-0.143,0.334l-0.241,0.075l-0.309,0.222l-0.025,0.093l-0.384,0.241l-0.198,0.341l-0.018,0.389l-0.142,0.873l0.037,0.099l0.074,0.031l0.049,-0.111l0.155,-0.044l0.099,-0.077l0.124,0.006l0.086,0.09l0.167,0.025l0.031,0.071l-0.08,0.122l0.093,0.224l0.303,0.077l0.068,0.103l-0.031,0.121l0.062,0.141l0.074,0.032l0.031,0.077l-0.025,0.141l0.044,0.065l0.086,0.051l0.062,0.09l0.025,0.121l0.055,0.071l0.075,0.006l0.068,-0.102l0.192,-0.019l0.111,0.057l0.179,-0.013l0.068,-0.051l0.106,0.039l0.092,0.089l0.013,0.109l0.111,0.122l0.223,0.109l0.012,0.064l-0.043,0.064l0.08,0.18l0.093,0.038l0.037,0.116l-0.006,0.282l0.062,0.07l0.136,0.007l0.26,0.07l0.13,-0.025l0.278,-0.18l0.179,-0.006l0.099,0.077l0.056,-0.013l-0.043,-0.064l0.056,-0.045l0.142,0.019l0.031,0.051l-0.019,0.052l0.05,0.025l0.055,-0.07l0.075,0.006l0.043,0.09l-0.006,0.102l0.179,0.174l0.006,0.109l0.044,0.044l0.049,-0.012l0.043,0.044l-0.031,0.141l-0.235,0.327l0.019,0.116l0.26,0.141l0.055,0.096l0.121,-0.097h0.167l0.13,-0.047l-0.005,-0.037l-0.041,-0.037l0.004,-0.139l-0.051,-0.079l-0.065,-0.014l-0.055,-0.046v-0.061l0.065,-0.032l0.106,0.009l0.033,0.046l0.083,0.014l0.107,-0.023l0.088,0.037l0.037,0.084l0.088,0.046h0.098l0.069,-0.088l0.144,-0.009l0.051,-0.042l0.061,-0.009l0.083,0.023l0.065,-0.06l-0.009,-0.075l0.097,-0.083v-0.037l-0.051,-0.047l0.01,-0.046l0.041,-0.037v-0.098l0.037,-0.083l0.065,-0.033l0.005,-0.041l-0.06,-0.019v-0.037l0.079,-0.046l0.074,-0.01l0.051,-0.041l0.018,-0.084l0.116,-0.074l0.07,0.004l0.065,0.079l-0.009,0.056l0.051,0.051l0.329,0.028l0.116,-0.06l0.06,0.018l0.019,0.098l0.102,0.069l0.009,0.07l-0.074,0.088l0.046,0.102l0.098,0.046l0.06,-0.023l0.065,0.009l0.037,0.042l0.084,0.009l0.014,0.038l-0.056,0.032l-0.005,0.06l0.061,0.033h0.069l0.149,0.065l0.018,0.051l0.047,0.014l0.06,-0.009l0.084,0.037l0.055,0.088l0.061,0.009l0.065,-0.023l0.046,0.014l0.019,0.051l0.083,0.069l0.186,0.014l0.088,0.047l0.083,-0.028l0.005,-0.084l0.13,-0.167l0.005,-0.148l0.041,-0.005l0.116,0.098l0.093,0.037l0.311,-0.028l0.181,0.032l0.079,0.098l0.088,0.06h0.083l0.195,-0.065h0.181l0.112,-0.037h0.176l0.111,0.07l0.167,0.041l0.033,0.061l0.074,0.079l0.005,0.102l0.153,0.167h0.088l0.06,-0.065l0.19,-0.037h0.186l0.084,-0.037l0.014,-0.079l0.041,-0.037h0.126l0.037,0.046l0.069,-0.005l0.084,-0.051l0.051,-0.004l0.069,0.065l0.061,0.074h0.06l0.056,-0.028l0.106,0.009l0.065,0.056l0.14,0.065l0.041,0.116l0.093,0.079h0.209l0.07,-0.028l0.083,-0.009l0.084,0.041l0.116,-0.004l0.143,0.139h0.098l0.158,-0.07h0.157l0.237,-0.139l0.083,0.009l0.103,0.056h0.069l0.167,-0.097l0.009,-0.075l0.042,-0.111l0.093,-0.074l0.107,-0.033l0.074,-0.06h0.051l0.07,0.042l0.157,-0.005l0.167,0.098l0.107,-0.01l0.06,-0.065l0.07,-0.004l0.046,0.018h0.075l0.088,-0.06l0.093,0.005l0.097,0.074l0.019,0.088l0.051,0.009l0.088,-0.037l0.069,0.023l0.056,0.172l0.074,0.06l0.056,0.089l0.059,0.015l0.052,0.074l0.007,0.065l-0.038,0.124l0.047,0.108l0.182,0.099l0.022,0.099l0.074,0.022l0.068,-0.028l0.074,0.003l0.072,0.077h0.055l0.034,-0.049l0.099,0.012l0.031,0.081l0.044,0.034l0.089,-0.013l0.17,0.016l0.013,0.046l-0.044,0.068l0.004,0.047l0.083,0.058l0.012,0.137l0.078,0.021l0.046,0.04l0.009,0.059l0.155,0.127l0.028,0.096l-0.006,0.077l0.028,0.034l0.597,-0.04l0.108,0.037l0.043,-0.009l0.037,-0.04l0.062,-0.007l0.136,0.056l0.044,-0.003l0.08,-0.164l0.065,0.04l0.328,-0.114l0.025,-0.127l0.204,-0.186l0.051,0.019l0.074,-0.005l0.028,-0.06l-0.019,-0.06l0.019,-0.047l0.051,-0.046l0.028,-0.097l0.102,-0.089l0.051,-0.116l0.083,-0.041l0.051,-0.056l-0.004,-0.172l0.06,-0.083l0.102,-0.014l0.056,0.023l0.079,-0.005l0.278,-0.176l0.261,-0.011l1.219,-0.179l0.381,-0.009l0.263,-0.096h0.21l0.102,0.015l0.124,0.003l0.086,0.037l0.071,-0.003l0.059,-0.024l0.056,0.003l0.043,0.031l0.142,0.003l0.133,-0.019l0.22,-0.102l0.08,-0.09l0.152,-0.031l0.102,0.003l0.105,0.053l0.099,-0.003l0.071,-0.034l0.034,-0.074l0.05,-0.016l0.121,0.019l0.071,0.031l0.086,-0.003l0.579,-0.124l0.139,0.003l0.179,0.059l0.09,-0.013l0.062,-0.04l0.059,-0.003l0.071,0.012l0.176,-0.046l0.136,-0.062l0.081,-0.102l0.068,-0.315l0.052,-0.078l0.341,-0.188l0.037,-0.078l0.083,-0.266l0.087,-0.145l0.219,-0.17l0.004,-0.059l-0.028,-0.037l0.003,-0.068l0.071,-0.071l0.117,-0.01l0.069,-0.074l0.068,0.003l0.037,0.053l0.058,0.006l0.164,-0.087l0.099,0.022l0.031,-0.022l-0.003,-0.055l0.17,-0.087l0.214,-0.028l0.185,0.05l0.124,-0.016l0.028,-0.062l0.053,-0.021l0.086,0.028l0.034,-0.031l-0.006,-0.096l0.062,-0.059l0.13,0.015l0.151,-0.052l0.022,-0.071l0.036,-0.037l-0.093,-0.065l-0.01,-0.07l0.172,-0.153l0.037,-0.084l0.2,-0.171l0.102,-0.033l-0.079,-0.232l0.083,-0.041l0.284,0.394l0.129,-0.07l0.056,0.158l0.167,0.088h0.13l0.093,-0.069l0.028,-0.098l-0.028,-0.069l0.004,-0.2l-0.111,-0.065l-0.097,0.065l-0.195,-0.083l-0.362,-0.437l0.093,-0.055l0.199,0.102l0.084,-0.07l0.055,-0.083l0.502,0.041l0.148,-0.046l0.102,0.07l0.084,0.12l-0.028,0.107l0.227,0.162l0.009,-0.06l0.385,0.098l0.07,-0.024l0.023,-0.139l0.153,-0.023l0.116,0.06l0.024,-0.083l-0.024,-0.13l-0.065,-0.107l-0.139,-0.056l-0.004,-0.051l0.088,-0.009l0.065,0.023l0.176,-0.009l0.06,-0.07l0.084,0.014l0.028,0.149l0.195,0.255l0.083,0.06h0.111l0.135,-0.051l0.148,-0.111l0.075,0.056h0.092l0.14,0.134l0.181,-0.055l0.143,0.074l0.079,-0.32l0.098,-0.093l0.014,-0.047l-0.014,-0.046l0.023,-0.074l0.051,-0.023l0.056,0.023l0.037,-0.019l-0.005,-0.046l0.042,-0.005l0.07,0.056h0.083l0.084,0.06v0.176l0.065,0.028l0.116,-0.018l0.129,0.004l0.098,0.024l0.06,-0.019l0.084,-0.181l0.028,-0.116l0.157,-0.093h0.126l0.403,-0.273l0.121,-0.024l0.088,0.019l0.009,0.065l-0.088,0.116l0.019,0.069l0.176,0.098l0.209,0.07h0.223l0.069,-0.061l0.214,-0.074l0.222,-0.005l0.251,0.149l0.171,0.19l0.13,0.019l0.163,0.069l0.074,0.121l-0.005,0.102l0.089,0.158l0.301,0.213l0.2,0.088l0.515,0.005l0.171,0.056l0.126,0.167l0.018,0.111l-0.083,0.283l0.032,0.144l0.144,0.037l0.19,-0.116l0.033,-0.121l0.069,-0.028l0.218,0.061l0.019,0.074l-0.028,0.102l0.037,0.172l0.102,0.069h0.088l0.334,-0.143l0.186,-0.144l0.079,-0.005l0.056,0.046l0.06,-0.004l0.102,-0.074l0.116,0.004l0.084,0.112l-0.01,0.208l-0.102,0.2l-0.288,0.162l-0.046,0.098l0.033,0.116l0.12,0.037l0.158,-0.028l0.083,-0.088l0.056,-0.158l0.102,-0.093l0.2,-0.009l0.12,0.097l0.024,0.2l-0.112,0.088v0.088l0.088,0.112l0.014,0.102l0.126,0.148l0.218,0.111h0.065l0.014,-0.037l-0.056,-0.041l-0.005,-0.042l0.028,-0.051l-0.005,-0.195l0.024,-0.144l0.13,-0.107l-0.093,-0.083l0.004,-0.033l0.163,-0.02l0.111,-0.123l0.084,-0.025l0.097,-0.073l0.033,0.019l-0.025,0.054l0.038,0.029l0.089,-0.023l0.092,0.097l0.198,0.051l0.075,0.069l0.196,0.01l0.046,0.158l0.075,0.005l0.083,-0.019l0.107,0.005l0.056,-0.06l0.12,-0.005l0.107,0.069h0.158l0.051,-0.051h0.051l0.037,0.075l0.056,0.004l0.069,-0.028l0.07,0.024l0.097,0.199l-0.051,0.163l-0.065,0.018l-0.018,0.051l0.088,0.093l-0.056,0.218l0.135,0.13l0.153,0.066l0.096,-0.024l0.003,0.024l-0.037,0.031l-0.072,0.013l-0.032,0.062l0.302,0.32l0.213,-0.135h0.093l0.176,0.149l0.125,0.037l0.102,0.093l0.07,-0.01l0.074,0.024l0.2,-0.033l0.009,-0.056l-0.042,-0.13l0.042,-0.023l0.088,0.084l-0.009,-0.079l-0.056,-0.07l0.037,-0.037l0.246,0.005l-0.046,-0.047v-0.046h0.329l0.033,0.246h0.046l0.093,0.673l0.07,-0.005l0.046,-0.083l0.042,0.018l-0.023,0.051l0.371,-0.028l0.032,0.028l-0.046,0.056l-0.223,0.111l-0.009,0.06l-0.116,0.056l-0.149,0.269l0.135,0.191h0.102l0.084,-0.107l0.199,0.079l-0.186,0.417l-0.232,0.107l-0.06,0.167l0.167,0.283l-0.074,0.014v0.209h-0.06v0.125l0.148,0.009l-0.134,0.144l0.027,0.102l-0.102,0.088l0.024,0.047l-0.107,0.079l-0.033,0.13l-0.069,0.032l-0.051,-0.032l-0.32,0.143l0.236,0.385l0.204,-0.092l0.037,0.037l-0.027,0.042l-0.014,0.125l0.046,0.056l-0.018,0.102l-0.195,0.12l0.037,0.061l0.171,-0.093l0.024,0.046l-0.065,0.084l0.041,0.083l-0.041,0.028l0.055,0.088l0.325,-0.311l0.028,0.39h0.042l0.014,-0.056l0.13,-0.097l0.106,-0.019l0.195,-0.111l0.135,0.645l0.343,-0.065l0.051,0.213l-0.097,0.07l0.102,0.367l0.171,-0.028l0.024,0.102l0.111,-0.014l0.009,-0.051l0.255,-0.056v-0.19l0.038,-0.06l-0.014,-0.158l0.301,-0.093l0.26,-0.018l0.153,0.923l-0.325,0.069l0.167,0.91l-0.501,0.06l-0.088,-0.042l0.028,0.186l0.097,-0.014l0.107,0.297l0.116,0.005l0.005,-0.149l0.417,-0.051l0.107,0.455l-0.172,0.046l-0.046,0.627l-0.255,0.065l0.111,0.148l0.436,-0.13l0.056,0.292l0.385,-0.018l0.009,-0.056l0.075,-0.028l0.023,0.126h0.069l0.13,0.468l0.631,-0.12v-0.056l0.228,-0.014l0.032,0.251l-0.051,0.037l0.163,0.241l0.125,-0.051l-0.009,-0.056l0.157,-0.055l0.13,0.069l0.061,0.102l-0.047,0.037l-0.088,-0.023l-0.153,0.116l0.213,0.283l0.037,0.176l-0.046,0.14l-0.005,0.162l0.033,0.121l-0.009,0.116l-0.084,0.074l-0.056,0.227l0.047,0.135l-0.028,0.093l0.121,0.176l-0.056,0.107h-0.139l-0.028,0.065l0.051,0.083l-0.019,0.102l-0.389,0.051l-0.005,0.047h0.093l0.037,0.074l-0.042,0.023l-0.005,0.042l0.112,0.037l-0.023,0.046l0.027,0.033h0.089l0.037,0.028l0.055,0.111l0.061,0.019l0.06,-0.051l0.005,-0.061l0.037,-0.018l0.037,0.037l-0.056,0.111l0.047,0.005l0.046,-0.065l0.056,-0.005l0.028,-0.069l0.041,-0.005l0.047,0.102l-0.031,0.076l0.012,0.108l0.068,0.028l0.105,-0.006l0.022,0.031l-0.019,0.024h-0.148l-0.015,0.028l0.126,0.099l0.124,0.053h0.192l0.006,0.025l-0.053,0.043l0.01,0.052l0.083,0.022l0.053,-0.009l0.034,-0.053l0.034,0.006l0.028,0.053l0.031,0.003l0.006,-0.031l-0.047,-0.055l0.013,-0.028l0.037,0.009l0.062,0.08l0.037,-0.021l0.133,0.102l-0.012,0.046l0.021,0.019l0.084,-0.034l0.028,-0.105l0.046,0.003l0.028,0.062l-0.003,0.068l-0.381,0.17v0.055l-0.052,0.078l-0.177,-0.186l-0.074,-0.012l-0.232,0.13l-0.176,-0.05l-0.065,0.043l-0.316,-0.139l-0.346,0.248l0.025,0.154l-0.554,-0.275l0.111,-0.08l-0.151,-0.155l-0.047,0.003l-0.031,-0.046v-0.037l-0.074,-0.239l-0.065,-0.006l-0.114,-0.142l-0.068,-0.016l-0.081,0.047l0.09,0.195l-0.062,0.028l0.016,0.046l-0.31,0.062l-0.058,-0.115l-0.115,0.041l0.121,0.618l-0.48,0.056l-0.034,-0.059l-0.127,0.013l-0.099,-0.461l-0.352,-0.053l-0.105,-0.043l-0.065,-0.102l0.009,-0.087l0.093,-0.087l-0.362,-0.312l-0.396,0.421l0.08,0.179l-0.031,0.012l-0.297,-0.661l-0.117,0.074l0.043,0.086l-0.031,0.093l-0.161,0.081l0.05,0.13l-0.068,0.03l0.117,0.242l-0.136,0.043l-0.062,-0.056l-0.185,0.087v0.118l-0.18,0.123l-0.191,-0.068l0.229,-0.26l-0.099,-0.117v-0.211l-0.056,-0.068l0.216,-0.173l-0.012,-0.117l-0.08,-0.019l-0.025,-0.458l-0.476,0.105l0.006,0.242l-0.662,0.018l-0.013,0.068h-0.129l-0.075,0.118l-0.334,0.012l-0.012,0.056l0.043,0.043l0.241,-0.012l0.013,0.142l-0.631,0.043l0.062,0.062l0.024,0.167l0.266,0.65l0.075,0.056l0.031,0.191l-0.087,0.031l-0.179,0.421l0.006,0.068l0.717,0.507l-0.767,0.829l0.353,0.359l-0.149,0.371l-1.345,0.279l0.018,0.092l-0.151,0.038l0.043,0.191l-0.077,0.068l0.195,0.78l-0.576,0.121l0.075,0.297l-0.539,0.12l-0.241,-0.074l-0.083,0.046l0.102,0.186l-0.047,0.13l-0.157,0.037l-0.103,-0.093l-0.185,0.037l-0.121,0.251l-0.148,0.185l0.046,0.13l0.186,-0.028l0.176,0.706l-0.325,0.074l0.149,0.575l-0.622,0.112l-0.009,-0.195l-0.77,-0.288l-0.316,0.251l-0.26,0.399z"/>
</svg>
