<svg xmlns="http://www.w3.org/2000/svg" viewBox="1312.399 723.230 35.978 37.534">
  <path d="M1324.183768,736.162478l-0.046398,-0.012373v-0.030932l0.064957,-0.030932l0.046398,0.003093l0.003093,0.037118l-0.021652,0.024746l-0.046398,0.00928Z M1340.948913,752.049154l-0.003093,0.030932l0.024746,0.024746h0.030932l0.006186,-0.043305l-0.034025,-0.021652l-0.024746,0.00928Z M1339.396126,751.758393l0.006186,0.049491l0.095889,0.049491l0.052584,0.092796l0.117542,0.07733l0.046398,-0.024746l0.021652,-0.142287l0.049491,-0.043305l-0.003093,-0.08661l-0.092796,-0.129914l-0.049491,0.006186l-0.046398,0.071144l-0.126821,0.027839l-0.071144,0.052584Z M1338.950706,750.697425l0.043305,0.003093l0.015466,-0.027839l-0.015466,-0.024746h-0.030932l-0.024746,0.024746l0.012373,0.024746Z M1339.161043,750.910856l0.061864,-0.037118l0.024746,-0.043305l-0.034025,-0.046398l-0.037118,-0.003093l-0.046398,0.071144v0.049491l0.030932,0.00928Z M1339.15795,751.145939l0.037118,0.015466l0.098982,-0.049491l0.049491,0.015466l0.040212,-0.00928l0.037118,-0.123728l-0.024746,-0.027839l-0.095889,0.018559l-0.114448,0.089703l-0.027839,0.071144Z M1339.986928,750.36336l0.07733,0.061864l0.136101,0.034025h0.179406l0.133008,-0.046398l0.14538,0.034025l0.083516,-0.00928l0.012373,-0.037118l-0.055678,-0.046398l-0.098982,-0.00928l-0.194872,-0.102076l-0.126821,-0.126821l-0.06805,-0.018559l-0.037118,0.043305l-0.120635,0.027839l-0.061864,0.102076l-0.003093,0.092796Z M1338.576428,750.05404l-0.003093,0.034025l0.151567,0.049491l0.037118,0.06805l0.037118,0.006186l0.034025,-0.052584l0.018559,-0.114448l-0.027839,-0.064957l-0.083516,-0.037118l-0.037118,0.021652l-0.012373,0.058771l-0.034025,0.034025l-0.080423,-0.003093Z M1328.634883,753.062177l-0.023199,0.041758l0.018559,0.032479h0.037118l0.00928,-0.041758l-0.00464,-0.027839l-0.037118,-0.00464Z M1330.161378,752.268771l0.083516,-0.078877l-0.013919,-0.092796l-0.060317,-0.00928l-0.069597,0.046398l-0.013919,0.115995l0.074237,0.018559Z M1330.388728,752.305889l0.111355,0.018559l0.078877,0.064957l0.041758,-0.018559l-0.069597,-0.129914l-0.139194,-0.037118l-0.060317,0.051038l0.037118,0.051038Z M1332.161131,752.542519l0.064957,0.00464l0.041758,-0.041758l-0.027839,-0.069597l-0.051038,-0.013919l-0.055678,0.027839l-0.023199,0.051038l0.051038,0.041758Z M1331.236265,752.717285h0.071144l0.018559,-0.026292l-0.032479,-0.037118l-0.060317,-0.00464l-0.023199,0.041758l0.026292,0.026292Z M1332.148759,753.196731l0.142287,0.024746l0.108262,-0.040212l0.046398,-0.098982l-0.027839,-0.027839l-0.06805,0.034025l-0.108262,-0.021652l-0.061864,0.003093l-0.046398,0.061864l0.015466,0.064957Z M1330.484617,752.547159l0.055678,0.040212l0.061864,0.003093l0.049491,-0.018559l0.046398,0.034025l-0.00928,0.049491l0.064957,0.071144l0.092796,0.030932l0.046398,-0.027839l0.003093,-0.083516l-0.043305,-0.037118l-0.07733,-0.018559l-0.074237,-0.074237l-0.170126,-0.024746l-0.052584,0.027839l0.006186,0.027839Z M1330.394914,755.327946l0.102076,-0.126821v-0.043305h-0.027839l-0.083516,0.102076l-0.018559,0.064957l0.027839,0.003093Z M1330.540295,755.451674l0.021652,0.00928l0.046398,-0.037118l0.055678,-0.123728l-0.003093,-0.037118h-0.030932l-0.049491,0.08661l-0.015466,0.058771l-0.024746,0.043305Z M1330.713514,755.259896l0.027839,0.003093l0.024746,-0.06805l-0.003093,-0.126821l-0.024746,-0.006186l-0.024746,0.092796v0.105169Z M1329.615428,755.590868l0.018559,-0.024746v-0.040212l-0.021652,-0.00928l-0.021652,0.018559l0.003093,0.046398l0.021652,0.00928Z M1330.367075,755.804299l0.040212,-0.015466l0.018559,-0.034025l-0.012373,-0.015466l-0.034025,0.00928l-0.027839,0.043305l0.015466,0.012373Z M1329.856697,754.780449l0.034025,0.024746l0.027839,-0.003093l0.015466,-0.034025l-0.006186,-0.027839l-0.040212,-0.006186l-0.030932,0.015466v0.030932Z M1330.354703,754.304097l0.027839,0.021652l-0.003093,0.030932l-0.046398,0.00928l-0.012373,0.027839l0.040212,0.098982l0.061864,0.024746l0.037118,-0.018559l-0.00928,-0.06805l0.006186,-0.061864l0.061864,-0.114448l-0.00928,-0.083516l-0.027839,-0.018559l-0.064957,0.024746l-0.061864,0.06805v0.058771Z M1330.577413,754.177275l-0.00928,0.030932l0.024746,0.018559l0.037118,-0.00928l0.00928,-0.027839l-0.024746,-0.018559l-0.037118,0.006186Z M1329.949493,754.140157l-0.027839,0.040212v0.027839l0.037118,0.012373l0.024746,-0.037118l-0.006186,-0.043305h-0.027839Z M1330.447499,753.973124l0.018559,0.040212l0.108262,0.006186l0.024746,0.037118h0.034025l0.114448,-0.120635l-0.00928,-0.043305l-0.055678,-0.015466l-0.170126,0.024746l-0.064957,0.071144Z M1330.308305,753.558635l0.058771,0.095889l0.055678,0.015466l0.018559,0.024746l-0.00928,0.055678l0.015466,0.030932l0.037118,-0.00928l0.052584,-0.06805l0.040212,-0.092796l-0.024746,-0.021652l-0.034025,-0.003093l-0.037118,-0.046398l0.027839,-0.061864l-0.00928,-0.043305l-0.071144,-0.037118h-0.058771l-0.058771,0.058771l-0.003093,0.102076Z M1330.691861,753.68855l-0.006186,0.052584l0.052584,0.071144l0.049491,0.015466l0.021652,-0.024746l-0.003093,-0.06805l0.046398,-0.030932l0.136101,0.049491l0.083516,-0.037118l0.00928,-0.046398l-0.092796,-0.058771l-0.170126,0.006186l-0.126821,0.071144Z M1331.121816,753.580288l0.058771,0.018559l0.021652,-0.021652l-0.030932,-0.043305l-0.049491,-0.006186l-0.021652,0.027839l0.021652,0.024746Z M1331.830159,753.249315l-0.003093,0.092796l-0.046398,0.055678l0.018559,0.021652l0.095889,-0.043305l0.027839,-0.055678l-0.018559,-0.098982l-0.095889,-0.071144l-0.030932,0.00928l0.052584,0.089703Z M1330.769191,753.44728l0.074237,0.027839l0.120635,-0.040212l0.126821,0.003093l0.117542,-0.034025l0.006186,-0.030932l-0.034025,-0.00928l-0.055678,0.018559l-0.043305,-0.030932l-0.024746,-0.089703l-0.136101,-0.095889l-0.040212,0.00928l0.00928,0.074237l0.043305,0.034025l0.018559,0.08661l-0.055678,0.043305l-0.064957,-0.006186l-0.064957,-0.052584l-0.021652,0.012373l0.024746,0.080423Z M1330.985715,752.686353l-0.003093,0.024746l0.027839,0.012373l0.049491,-0.018559l0.003093,-0.024746l-0.043305,-0.00928l-0.034025,0.015466Z M1330.360889,752.540973l0.055678,-0.006186l0.015466,-0.024746l-0.021652,-0.018559l-0.049491,0.006186l-0.021652,0.027839l0.021652,0.015466Z M1329.689665,753.580288l0.024746,-0.003093l0.018559,-0.021652l-0.015466,-0.021652l-0.024746,0.003093l-0.021652,0.024746l0.018559,0.018559Z M1331.245544,753.44728l0.00928,0.049491l0.08661,0.024746l0.129914,-0.049491l0.07733,0.021652l0.012373,-0.021652l-0.030932,-0.030932l-0.058771,-0.015466l-0.024746,-0.040212l0.055678,-0.037118l0.148474,-0.015466l0.00928,-0.049491l-0.049491,-0.027839l-0.133008,-0.003093l-0.071144,0.049491l-0.040212,-0.00928l-0.00928,-0.040212l-0.046398,-0.006186l-0.027839,0.049491l0.024746,0.058771l-0.00928,0.049491l-0.052584,0.043305Z M1331.786854,753.555542l-0.00928,0.061864l-0.049491,0.034025l-0.040212,0.089703l-0.037118,0.027839l-0.133008,-0.00928l-0.06805,-0.024746l-0.030932,0.024746l0.046398,0.037118l0.139194,0.027839l0.00928,0.034025l-0.040212,0.040212l-0.015466,0.111355l-0.055678,0.083516l-0.142287,0.095889l-0.003093,0.052584l0.043305,0.024746l0.197965,-0.027839l0.052584,-0.049491l-0.018559,-0.120635l0.030932,-0.027839l0.092796,-0.006186l0.027839,-0.027839l0.006186,-0.098982l0.08661,-0.102076l0.052584,-0.111355l-0.027839,-0.018559l-0.037118,0.015466l-0.034025,-0.015466l-0.006186,-0.049491l0.058771,-0.064957l0.043305,-0.015466l0.061864,0.049491l0.024746,-0.018559l-0.015466,-0.052584l0.07733,-0.092796l0.049491,-0.015466l0.064957,-0.058771l-0.018559,-0.027839l-0.108262,0.046398l-0.095889,0.095889l-0.108262,0.024746l-0.071144,-0.027839l-0.024746,0.027839l0.024746,0.058771Z M1328.814289,752.500761l0.043305,0.046398l-0.015466,0.06805l-0.071144,0.012373l-0.00928,0.024746l0.098982,0.095889l0.052584,0.012373l0.034025,-0.024746l0.058771,0.006186l0.055678,0.040212l-0.003093,0.074237l0.030932,0.055678l0.043305,0.021652l0.00928,0.052584l-0.037118,0.024746l0.003093,0.049491l0.083516,0.040212l0.098982,0.003093l0.235083,0.058771l0.058771,0.021652l0.046398,-0.006186l0.027839,-0.043305l0.055678,-0.00928l0.160846,0.043305l0.07733,0.123728l-0.018559,0.098982l0.037118,0.030932l0.040212,-0.00928l0.040212,0.043305l-0.018559,0.15466l-0.037118,0.012373l-0.049491,-0.049491h-0.083516l-0.043305,0.049491l-0.012373,0.074237l-0.133008,0.083516l-0.129914,0.049491l-0.030932,0.092796l0.040212,0.06805l-0.030932,0.095889l-0.07733,0.024746l-0.024746,0.061864l0.040212,0.06805l-0.024746,0.089703l-0.043305,0.003093l-0.024746,-0.037118h-0.040212l-0.021652,0.037118l0.027839,0.102076l0.108262,0.114448h0.043305l0.024746,-0.055678l-0.015466,-0.052584l0.018559,-0.080423l0.055678,-0.055678l0.14538,-0.037118l0.012373,-0.049491l-0.030932,-0.037118l0.006186,-0.120635l0.06805,-0.089703l0.058771,-0.006186l0.046398,0.018559l0.040212,0.003093l0.034025,-0.037118l0.034025,0.006186l0.046398,0.07733l-0.003093,0.058771l0.061864,0.095889l0.040212,-0.003093l0.040212,-0.114448l0.055678,-0.006186l0.040212,0.034025l0.055678,0.003093l0.018559,-0.043305l-0.046398,-0.058771l-0.003093,-0.08661l-0.046398,-0.030932l-0.003093,-0.058771l0.034025,-0.06805l-0.006186,-0.102076l-0.055678,-0.071144l-0.024746,-0.129914l0.046398,-0.151567l0.136101,-0.111355l0.055678,-0.00928l0.040212,0.030932l0.052584,0.003093l0.040212,-0.027839l0.006186,-0.027839l-0.049491,-0.027839l-0.052584,0.006186l-0.034025,-0.021652l-0.012373,-0.083516l-0.049491,-0.040212l-0.012373,-0.058771l-0.030932,-0.006186l-0.037118,0.037118l-0.003093,0.071144l-0.071144,0.049491l-0.074237,-0.00928l-0.06805,-0.080423l-0.219617,-0.021652l-0.293854,0.06805l-0.098982,-0.034025l-0.024746,-0.102076l0.043305,-0.210338l0.133576,-0.06977l0.061296,-0.103449l-0.00928,-0.037118h-0.092796l-0.07733,0.058771l-0.095889,-0.003093l-0.071144,-0.061864l-0.07733,-0.015466l-0.08661,0.027839l-0.151567,-0.012373l-0.151567,-0.058771l-0.049491,0.024746l0.006186,0.055678Z M1335.928649,751.35473l0.074237,-0.00928l0.046398,-0.032479l-0.018559,-0.037118h-0.088156l-0.051038,0.051038l0.037118,0.027839Z M1334.309359,750.937148l0.027839,0.037118l0.143834,0.00464l0.125275,-0.074237l0.00464,-0.055678l-0.092796,-0.013919l-0.167033,0.046398l-0.041758,0.055678Z M1332.337444,751.637758l0.153113,0.018559l0.027839,-0.037118l-0.129914,-0.069597l-0.097436,-0.00928l-0.041758,0.041758l0.088156,0.055678Z M1332.750386,751.150579l0.046398,0.055678h0.055678v-0.051038l-0.055678,-0.060317l-0.041758,0.00928l-0.00464,0.046398Z M1333.399958,751.196977l0.055678,0.018559l0.139194,-0.069597l0.078877,-0.106715l0.018559,-0.092796l0.074237,-0.106715v-0.064957l-0.074237,-0.051038l-0.125275,0.018559l-0.106715,0.162393l0.013919,0.074237l-0.037118,0.046398l-0.078877,-0.023199l-0.027839,0.046398l0.069597,0.148474Z M1332.801424,751.651678v0.046398l0.204151,0.032479l0.106715,0.060317h0.064957l0.111355,-0.097436l0.092796,0.00464l0.00464,0.046398l-0.064957,0.046398l0.018559,0.032479l0.176312,-0.00928l0.129914,-0.069597l0.111355,-0.153113l-0.00464,-0.139194l-0.069597,-0.023199l-0.092796,0.060317l-0.134554,-0.018559l-0.051038,-0.213431l-0.083516,-0.074237l-0.027839,0.032479l0.013919,0.060317l-0.023199,0.060317l-0.129914,0.018559l-0.046398,0.037118l0.00928,0.097436l-0.139194,0.111355l-0.176312,0.051038Z M1337.973254,749.104427l0.148474,-0.003093l0.046398,0.012373l0.030932,-0.012373l-0.037118,-0.037118l-0.092796,-0.015466l-0.102076,0.027839l0.006186,0.027839Z M1337.21542,748.918835l0.034025,-0.012373l0.030932,-0.046398l-0.006186,-0.037118l-0.027839,-0.006186l-0.061864,0.046398l0.003093,0.040212l0.027839,0.015466Z M1337.633002,749.416841l0.046398,0.003093l0.018559,-0.027839l-0.015466,-0.024746h-0.052584l-0.015466,0.027839l0.018559,0.021652Z M1337.6794,749.651924l0.064957,0.003093l0.024746,-0.024746l-0.018559,-0.024746l-0.06805,-0.003093l-0.030932,0.024746l0.027839,0.024746Z M1335.226493,750.360267l0.043305,-0.012373v-0.030932l-0.034025,-0.018559l-0.043305,0.015466l-0.006186,0.030932l0.040212,0.015466Z M1336.686483,750.864458l0.052584,0.006186l0.133008,-0.151567l0.021652,-0.089703l-0.092796,-0.111355l-0.095889,-0.00928l-0.123728,0.095889l-0.006186,0.102076l0.111355,0.157753Z M1335.541999,750.335521l0.049491,0.06805l0.043305,0.003093l0.046398,-0.055678l0.07733,-0.034025l0.006186,-0.037118l-0.07733,-0.021652l-0.182499,0.015466l-0.012373,0.037118l0.049491,0.024746Z M1335.83276,750.187047l0.095889,0.064957l0.037118,-0.006186l0.003093,-0.034025l-0.061864,-0.098982l-0.061864,-0.006186l-0.037118,0.027839l0.024746,0.052584Z M1336.061657,749.682856l-0.006186,0.071144l0.030932,0.012373l0.034025,-0.027839l0.006186,-0.07733l-0.049491,-0.040212l-0.034025,0.012373l0.018559,0.049491Z M1336.021445,749.948871l-0.012373,0.052584l0.018559,0.167033l0.071144,0.052584l0.027839,-0.024746l0.006186,-0.167033l0.064957,-0.151567l-0.040212,-0.040212l-0.074237,0.021652l-0.105169,-0.012373l-0.027839,0.040212l0.071144,0.061864Z M1336.386443,749.788025l0.117542,0.111355l0.043305,-0.003093l0.024746,-0.049491l0.071144,-0.00928l0.08661,0.07733l0.098982,0.22271l0.055678,0.06805l0.040212,-0.00928l0.058771,-0.160846l0.030932,-0.021652l0.021652,0.021652l-0.034025,0.111355l0.012373,0.167033l0.040212,0.07733l0.07733,0.024746l0.052584,-0.021652v-0.040212l-0.083516,-0.049491l-0.015466,-0.102076l0.037118,-0.191778l0.061864,-0.037118l0.006186,-0.034025l-0.055678,-0.027839l-0.055678,-0.105169l0.006186,-0.191778l0.037118,-0.095889l0.040212,-0.003093l0.021652,0.052584l0.049491,0.015466l0.093011,-0.028081l0.012373,-0.055678l0.058771,-0.015466l0.07733,0.046398l0.027839,-0.015466l-0.015466,-0.06805l0.037118,-0.089703l0.027623,-0.036876l0.00928,-0.117542l-0.058771,-0.102076l-0.00928,-0.080423l-0.040212,-0.061864l-0.089703,-0.018559l-0.064957,0.024746l0.003093,0.037118l0.058771,0.006186l0.071144,0.089703l-0.018559,0.052584l-0.167033,0.064957l-0.00928,0.049491l0.055678,0.064957l-0.024746,0.027839l-0.139194,-0.040212l-0.034025,-0.034025l-0.006186,-0.108262l-0.049491,-0.018559l-0.092796,0.049491l-0.043305,-0.00928l-0.015466,-0.074237l0.07733,-0.133008l0.07733,-0.037118v-0.034025l-0.129914,-0.006186l-0.327879,0.055678l-0.191778,0.129914l-0.074237,0.126821l0.021652,0.080423l0.201058,0.07733l0.148474,0.142287l0.021652,0.167033l-0.049491,0.046398l-0.201058,-0.003093l-0.071144,-0.040212l-0.030932,0.00928l0.027839,0.083516Z  M1320.81218,727.9191l-0.004,0.125l0.094,0.048l0.099,-0.012l0.13,-0.136l0.192,-0.031l0.105,0.043l-0.025,0.576l-0.05,0.105l-0.105,0.074l-0.142,0.278l0.019,0.099l-0.031,0.093l-0.087,0.043l-0.08,0.174l-0.143,0.055l-0.062,0.112l0.031,0.08l-0.074,0.167l0.019,0.087l-0.204,0.606l-0.05,0.297l-0.099,0.025l-0.056,0.099l0.056,0.13l0.136,0.111l0.112,0.012l0.055,0.056l0.019,0.087l0.167,0.173l0.037,0.204l0.223,0.433l-0.044,0.34l-0.148,0.248l-0.13,0.062l-0.093,0.117l-0.025,0.155l-0.086,0.099l-0.068,0.321l-0.161,0.347l-0.142,0.062l-0.025,0.105l0.056,0.136l-0.019,0.192l0.031,0.117l-0.019,0.112l-0.068,0.043l-0.031,0.217l0.044,0.179l0.086,0.025l0.167,-0.031l0.297,0.093l0.087,0.179l0.155,0.136l0.074,0.167l0.192,0.062l0.179,-0.031l0.062,-0.105l-0.025,-0.111l0.05,-0.155l0.167,-0.05l0.185,0.031l0.427,0.347l-0.012,0.099l0.08,0.185l0.279,0.223h0.074l0.043,-0.074l0.05,-0.013l0.08,0.031l0.062,-0.006l0.049,-0.062l0.167,-0.031l0.013,0.471l0.278,0.136l0.223,0.167l0.043,-0.09l0.088,-0.065l0.047,-0.06l0.014,-0.088l0.162,-0.302l0.084,-0.162l0.259,-0.228l0.389,-0.125l0.108,-0.084l0.037,-0.171v-0.274l0.023,-0.074l0.135,-0.126l0.041,0.014l-0.102,0.158l0.01,0.302l-0.042,0.222l-0.093,0.112l-0.21,0.079l-0.166,0.092l-0.148,0.181l-0.033,0.167l-0.06,0.07l-0.009,0.084l0.037,0.148l-0.019,0.209l0.098,0.172l0.032,0.361l0.098,0.27l0.018,0.473l0.07,0.25l-0.028,0.172l-0.084,0.088l-0.06,0.135l-0.018,0.148l-0.121,0.218l-0.19,0.075l-0.126,-0.014l-0.037,0.037l0.01,0.315l-0.112,0.26l-0.144,0.2l-0.278,0.176l-0.07,0.107l-0.538,0.408l-0.181,0.042l-0.176,-0.014l-0.149,0.055h-0.078l-0.177,0.107l-0.069,0.121l-0.065,0.046l-0.204,0.019l-0.103,-0.042l-0.083,0.009l-0.07,0.116l-0.065,0.306l-0.102,0.172l-0.218,0.209l-0.097,0.032l-0.102,0.112l-0.088,0.264l-0.093,0.13l-0.153,0.102l-0.112,0.149l-0.083,0.065l-0.149,0.204l-0.083,0.06l-0.098,0.223v0.144l-0.348,0.464l-0.134,0.065l-0.074,0.116l-0.01,0.097l-0.106,0.135l-0.093,0.046l-0.047,0.051l0.01,0.065l-0.037,0.037l-0.093,-0.009l-0.051,-0.061h-0.102l-0.088,0.135l0.004,0.102h-0.042l-0.032,-0.102l0.079,-0.223l-0.037,-0.051l-0.065,0.033l-0.098,0.13l-0.074,-0.005l-0.056,-0.102l0.024,-0.149l0.074,-0.102l-0.014,-0.092l-0.06,-0.065l-0.126,-0.325l-0.125,-0.158l0.005,-0.06l0.106,-0.079h0.075l0.027,-0.042l-0.065,-0.051l-0.153,0.098h-0.097l-0.074,0.069h-0.075l-0.023,-0.037l-0.06,0.005l-0.056,0.046h-0.083l-0.126,-0.07l-0.083,0.014l-0.102,0.149l-0.051,0.144l-0.084,0.009l-0.148,-0.107l-0.167,0.023l-0.07,0.112l-0.125,0.042l-0.051,0.116l0.037,0.111l-0.009,0.097l-0.047,0.061l-0.055,0.338l0.041,0.181l-0.041,0.116l-0.135,0.061l-0.148,0.19l-0.056,0.199l-0.149,0.209l-0.102,0.005l-0.097,-0.06h-0.116l-0.065,0.055l-0.153,0.037l-0.074,0.07l-0.297,0.088l-0.163,0.111l-0.106,0.177l-0.075,0.204v0.121l0.065,0.097l0.01,0.107l-0.037,0.083l0.004,0.232l-0.088,0.181l-0.014,0.135l0.116,0.218l0.005,0.083l-0.028,0.056l0.014,0.088l0.065,0.06l0.004,0.079l-0.023,0.061l0.005,0.208l-0.696,0.798l-0.33,1.416l-0.069,0.037l-0.163,-0.028l-0.12,0.056l-0.005,0.078l-0.051,0.056l-0.079,0.033l-0.069,0.102l0.004,0.162l-0.046,0.088l-0.074,0.084l-0.028,0.246l0.097,0.334l0.07,0.079l-0.005,0.055l-0.079,0.042l-0.023,0.153l0.023,0.116l0.112,-0.028l0.092,0.031l0.118,0.248l0.08,0.043l0.099,-0.037l0.087,0.056l0.012,0.204l0.118,0.08h0.093l0.123,-0.142l0.174,-0.043l0.093,0.03l-0.025,0.112l-0.118,0.142l-0.037,0.186l0.019,0.236l-0.014,0.195l-0.195,0.385l-0.111,0.033l-0.07,0.088l-0.023,0.134l-0.112,0.098l-0.102,-0.005l-0.195,0.126l-0.102,0.153l-0.25,0.102l-0.181,0.028l-0.167,0.097l0.102,0.046l0.014,0.112l-0.014,0.079l-0.014,0.292l0.06,0.051l0.023,0.074l-0.079,0.139l-0.073,0.029l-0.04,0.062l0.032,0.121l-0.094,0.345l-0.115,0.217l-0.008,0.108l0.047,0.069l-0.01,0.434l0.049,0.121v0.108l-0.059,0.158l0.01,0.19l0.03,0.078l-0.037,0.025l-0.263,-0.003l-0.047,0.04l0.006,0.074l0.065,0.075v0.046l-0.028,0.04l0.025,0.186l0.056,0.059l-0.019,0.046l-0.052,0.016l-0.034,0.201l0.028,0.318l-0.062,0.396l0.037,0.142l-0.013,0.109l-0.058,0.083v0.118l0.204,0.173l0.006,0.124l-0.059,0.08l-0.018,0.198l0.058,0.186l0.013,0.133l-0.091,0.371l0.273,0.016l0.059,-0.03l0.227,-0.017l0.111,-0.163l0.182,-0.096l0.222,0.011l0.115,0.072l0.052,0.089l0.081,0.016l0.031,-0.059l0.012,-0.145l0.112,-0.192l0.102,-0.006l0.157,0.256l0.171,0.068l0.064,0.556l0.14,0.241l0.097,0.009l0.111,-0.083l0.344,-0.144l0.111,-0.162l0.079,-0.038l0.13,0.075l0.07,-0.037l0.032,-0.181l0.162,-0.149l0.223,0.028l0.302,-0.223l0.051,-0.408l0.097,-0.07l0.153,0.005l0.511,-0.557l0.06,-0.204l0.116,-0.116l0.148,-0.037l0.047,-0.102l-0.019,-0.176l0.07,-0.158l0.121,-0.042l0.153,0.028l0.241,-0.028l0.144,-0.074l0.088,0.009l0.07,0.056l0.111,0.004l0.121,0.089l0.157,0.009l0.167,-0.093h0.172l0.283,0.051l0.195,-0.037l0.13,-0.181l0.176,-0.125l0.144,-0.01l0.218,-0.162l0.102,-0.009l0.149,0.065h6.518l-0.025,-0.088l-0.032,-0.207l-0.064,-0.103l-0.02,-0.247l0.029,-0.16l-0.149,-0.173l-0.111,-0.012l-0.081,0.08l-0.111,-0.031l-0.025,-0.216l0.223,-0.569l0.322,-0.427l0.154,-0.093l0.006,-0.08l-0.123,-0.118l0.037,-0.272l0.247,-0.353l0.044,-0.173l0.099,-0.142l0.55,-0.439l0.223,-0.254l0.13,-0.241l0.006,-0.118l0.105,-0.105l0.136,-0.043l0.068,-0.081l-0.012,-0.111l-0.118,-0.112l-0.099,-0.012l-0.092,-0.074l-0.019,-0.155l0.025,-0.13l-0.068,-0.173l-0.093,-0.012l-0.161,0.148l-0.031,0.18l0.037,0.154l-0.055,0.031l-0.087,-0.124l-0.012,-0.42l0.062,-0.068l0.098,-0.006l0.106,-0.14l0.018,-0.157l0.167,-0.13l0.288,-0.019l0.232,0.065l0.074,-0.056l-0.046,-0.157l-0.204,-0.038l-0.038,-0.083l0.14,-0.093l0.306,0.019l0.39,0.204l0.241,0.009l0.167,-0.167l-0.037,-0.223l0.093,-0.074l0.167,0.056l0.074,0.167l0.102,0.009l0.148,-0.176l-0.018,-0.186l-0.176,-0.055l-0.183,-0.031l-0.012,-0.062l0.176,-0.037l0.424,0.167l0.185,0.037l0.05,0.086l0.062,-0.037l0.021,-0.272l-0.092,-0.158l0.055,-0.083l0.177,0.046l0.185,-0.046l0.102,-0.167l0.074,-0.019l0.028,0.139l-0.148,0.214l-0.149,0.056v0.074l0.084,0.083l0.176,-0.009l0.167,-0.269h0.074l0.075,0.121h0.102l0.074,-0.112h0.074l0.093,0.167l0.093,0.019l0.046,-0.093l-0.185,-0.306l-0.007,-0.09h0.069l0.061,0.087l0.075,0.024l0.043,-0.037l-0.099,-0.13l0.031,-0.068l0.111,0.007l0.019,-0.056l-0.093,-0.081l-0.087,0.019l-0.018,-0.034l0.056,-0.059l-0.004,-0.077l-0.055,-0.081l0.021,-0.061l0.084,-0.019l0.083,0.037l0.13,-0.04l0.059,-0.124l0.019,-0.111l0.08,-0.121l0.034,-0.182l0.081,-0.053l0.074,0.031l0.028,0.121l-0.053,0.114l-0.065,0.065l-0.046,0.096l0.037,0.046l0.154,-0.046l0.053,0.028l-0.028,0.127l-0.145,0.151l-0.006,0.074l0.148,0.065l0.096,-0.034l0.08,-0.148l0.087,-0.074l0.074,0.031l0.062,0.108l-0.096,0.124l-0.037,0.102l-0.071,0.037l-0.235,0.037l-0.102,0.241l0.055,0.047l0.232,-0.031l0.297,-0.17l0.226,0.003l0.065,-0.041l0.022,-0.089l0.074,-0.041h0.186l0.12,0.062l0.05,-0.043l-0.087,-0.167l0.019,-0.068h0.055l0.025,0.049h0.056l0.056,-0.117l0.061,-0.012l0.056,0.074l-0.093,0.148l0.006,0.062l0.075,0.05l-0.006,0.055l-0.099,0.044l0.006,0.049l0.086,0.043l0.025,0.205l0.074,0.03l0.254,-0.006l0.315,-0.13l0.044,-0.167l0.055,-0.018l0.062,0.043l0.075,-0.018l0.142,-0.13l0.031,-0.112l0.216,-0.192l0.05,-0.129l-0.081,-0.062l-0.247,-0.05l0.006,-0.068l0.186,-0.13h0.204l0.037,0.05l-0.012,0.13l0.043,0.049l0.136,-0.049l0.118,-0.229l-0.05,-0.248l0.099,-0.13l0.192,-0.043l0.42,-0.291l0.087,-0.012l0.025,-0.093l-0.167,-0.086l-0.248,-0.031l-0.111,-0.093l0.037,-0.044l0.13,0.019l0.173,-0.142l0.087,-0.143l0.117,-0.074l0.056,0.019l0.043,0.13l0.143,0.111l0.105,-0.006l0.216,-0.192l0.056,-0.148l0.099,-0.05l0.118,0.05l-0.019,0.074l-0.111,0.062l-0.211,0.266l-0.006,0.105l0.087,0.08l-0.019,0.056l-0.192,0.012l-0.08,0.062l0.025,0.081h0.229l0.055,0.062l-0.018,0.092l0.068,0.056h0.117l0.155,0.043l0.087,-0.031l0.043,-0.111l0.198,-0.124l0.111,0.013l-0.006,0.055l-0.093,0.031l-0.037,0.087l0.111,0.179l0.205,0.118v0.08l-0.05,0.093l-0.093,-0.006l-0.074,-0.05l-0.167,0.01l-0.218,-0.079l-0.017,0.038l0.161,0.161v0.056l-0.05,0.062l0.037,0.099l0.155,0.049l0.099,0.092l0.023,0.12l0.047,0.005l0.028,-0.13l0.06,-0.009l0.139,0.074v0.097l0.042,0.019l0.083,-0.144l0.047,0.009l0.014,0.079l0.078,0.051l0.056,-0.032l0.009,-0.121l0.061,-0.042l0.093,0.005l0.171,-0.121l0.037,-0.083l-0.037,-0.144l-0.014,-0.227l-0.13,-0.167l0.042,-0.051l0.214,0.023l0.078,0.06l0.121,0.005l0.125,-0.07l0.214,0.005l0.209,0.046l-0.01,0.056l-0.167,0.056l-0.171,0.129l-0.051,0.075l0.037,0.041l0.116,-0.041l0.13,0.046l0.009,0.084l-0.102,0.227l-0.074,0.032v0.065l0.102,0.042l0.278,0.028l0.093,-0.084l0.056,-0.245l0.055,-0.01l0.088,0.098l0.033,0.246l-0.047,0.204l0.033,0.055l0.097,-0.032l0.061,-0.135l-0.028,-0.194l0.055,-0.019l0.116,0.121l0.052,0.12l0.078,0.033l0.116,-0.065l0.028,-0.144l0.047,-0.037l0.074,0.032l0.042,-0.023l-0.005,-0.102l0.079,-0.088l0.083,0.009l0.163,-0.148l0.055,-0.107h0.051l0.042,0.135l0.074,0.046l0.084,-0.116l0.037,-0.116l0.186,-0.255l0.139,-0.107l0.172,-0.195l0.037,-0.181l-0.098,-0.297l0.037,-0.204l0.116,-0.172l0.047,-0.292l0.13,-0.325l0.371,-0.297l0.436,-0.069l0.088,-0.107l0.033,-0.209l0.106,-0.106l0.061,0.004l0.046,-0.051l-0.028,-0.19l0.042,-0.162l0.097,-0.075l0.256,-0.092l0.139,-0.126l0.111,-0.023l0.056,-0.237l0.148,-0.106l0.065,-0.098l0.019,-0.125l0.042,-0.088l0.092,-0.079l0.107,-0.255l0.056,-0.538l0.06,-0.219l0.098,-0.102l0.055,-0.129l0.325,0.023l0.032,-0.316l0.228,-0.065l0.223,-0.116l0.111,-0.093l0.046,-0.097l0.399,-0.079l0.39,-0.009l0.107,-0.084l0.083,-0.185l0.061,-0.051l-0.014,-0.269l-0.255,-0.344l0.009,-0.093l-0.102,-0.273l0.102,-0.107l0.204,-0.056l0.162,0.028l-0.028,-0.083l0.13,-0.501l0.172,-0.181l0.121,0.027l0.241,-0.157l0.315,-0.585l0.052,-0.478l0.222,-1.178l-0.306,-0.441l-0.042,-0.478l-0.222,-1.03l-0.167,-1.151l-0.052,-0.06l0.005,-0.167l0.116,-0.056l0.139,-0.171l0.014,-0.084l-0.046,-0.014l-0.093,-0.288h-0.116l-0.135,-0.493l-0.086,0.025l-0.006,0.099l-0.081,0.025l-0.099,-0.093l-0.154,-0.266l-0.205,-0.204l-0.055,-0.18l-0.105,-0.086l0.068,-0.359l-0.093,-0.409l-0.068,-0.099l-0.074,0.019l-0.081,-0.179l-0.173,-0.087l-0.056,-0.074l-0.062,0.093l-0.253,-0.019l-0.105,-0.272l-0.26,-0.112l-0.068,-0.513l-0.081,-0.099l-0.018,-0.52l-0.105,-0.086l-0.081,-0.155l-0.235,-0.093l-0.111,0.044l-0.075,-0.161l-0.129,-0.05l-0.05,-0.068l-0.049,-0.649l-0.13,-0.409l-0.174,-0.16v-0.304h0.056l0.062,-0.13l-0.025,-0.111l-0.124,-0.105l-0.08,-0.124l0.031,-0.031l0.086,0.053l0.137,-0.059l0.173,-0.161l0.049,-0.414l-0.018,-0.198l0.062,-0.396l-0.075,-0.056l-0.321,-0.105l-0.056,-0.105l-0.161,-0.149l-0.136,-0.006l-0.154,0.037l-0.069,0.075l-0.068,0.204l-0.024,-0.01l0.018,-0.058l-0.006,-0.118l-0.241,-0.21l-0.136,-0.223l-0.065,-0.006l-0.022,0.04h-0.034l-0.025,-0.046l-0.058,-0.01l-0.279,0.112l-0.049,-0.04l0.142,-0.059l0.003,-0.068l-0.142,-0.047l-0.075,0.003v-0.04l0.065,-0.037l0.099,-0.133h0.297v-0.139l-0.068,-0.192l-0.247,0.003l-0.065,0.059l-0.179,-0.006l-0.146,0.018l-0.151,0.056l-0.047,-0.009l0.016,-0.149l0.176,-0.102l0.108,-0.362l-0.009,-0.046l-0.183,-0.099l-0.17,-0.176l-0.111,-0.034v-0.118l0.179,-0.062l0.016,-0.164l-0.074,-0.154l-0.102,-0.044l-0.099,-0.182l0.108,-0.152l-0.127,-0.229l-0.362,-0.281l-3.158,3.074l-2.091,-0.179l-1.089,-0.742l-0.841,0.513l-1.182,0.309l-2.017,0.137l-1.441,0.94v0.056l0.099,0.037l0.018,0.161l-0.043,0.092l-0.012,0.229l-0.056,0.062l-0.656,-0.167l-0.08,-0.068l-0.006,-0.124l-0.112,-0.08l-0.049,-0.099l-0.099,-0.019l-0.087,0.031l-0.519,-0.006l-0.019,-0.099v-0.148l-0.049,-0.13v-0.167l-0.149,-0.297l-0.173,-0.266l-0.093,-0.05l-0.043,-0.043l-0.006,-0.087l-0.427,-0.334l-0.068,-0.012l-0.037,0.056l0.055,0.074v0.111l-0.34,0.248l-0.062,0.086l-0.056,-0.043l-0.098,0.21l-0.168,0.087l-0.742,0.204l-0.223,0.167l-1.682,-0.934l-0.668,-0.012l-0.174,0.049l-0.074,0.087l-0.346,0.228l-0.105,-0.018l-0.137,0.068l-0.043,0.124l-0.216,0.117l-0.13,-0.049l-0.174,0.049l-0.154,0.217l-0.017,0.163l-0.067,0.106l-0.19,0.185l-0.143,0.231l-0.027,0.128l-0.148,0.299l-0.044,0.002l-0.012,-0.074l-0.036,-0.001z"/>
</svg>
