<svg xmlns="http://www.w3.org/2000/svg" viewBox="2374.252 639.349 0.417 0.300">
  <path d="M2374.257602,639.596954l0.024575,-0.002458l0.073726,-0.04915l0.044235,-0.01966h0.027033l0.017203,0.017203v0.031948l-0.014745,0.012288l-0.01966,-0.007373l-0.036863,0.01966l-0.00983,0.017203l-0.073726,0.031948l-0.024575,-0.002458l-0.012288,-0.027033l0.004915,-0.022118Z M2374.441916,639.361032l0.012288,0.017203h0.01966l0.002458,-0.022118l-0.01966,-0.007373l-0.014745,0.012288Z M2374.628688,639.407724l0.01966,0.017203l0.01966,-0.012288l-0.00983,-0.01966l-0.014745,-0.002458l-0.014745,0.017203Z M2374.476321,639.488823l0.00983,-0.007373h0.014745l0.014745,0.00983l0.014745,-0.007373l-0.002458,-0.014745l-0.058981,-0.002458l-0.007373,0.017203l0.014745,0.004915Z "/>
</svg>
