<svg xmlns="http://www.w3.org/2000/svg" viewBox="2322.496 559.772 0.507 0.167">
  <path d="M2322.507902,559.939046l-0.011555,-0.017974l0.053922,-0.06291l0.010271,-0.034664l-0.001284,-0.026961l0.047503,-0.020542l0.077032,-0.001284l0.019258,0.01669l0.035591,-0.004729l0.014165,0.003863l0.000315,0.01242l-0.050071,0.002568l-0.008987,0.020542l0.028245,0.007703l0.024625,-0.000713l0.006188,0.012268l-0.087303,0.035948l-0.002568,0.021826l-0.010271,0.005135l-0.011555,-0.014123l-0.0398,0.020542l-0.093722,0.024394Z M2322.81603,559.881272l0.017901,-0.017336l-0.002575,-0.018028l-0.019178,-0.003152l-0.008987,0.007703l0.006419,0.014123l-0.003852,0.012839l0.010271,0.003852Z M2322.882792,559.871001l0.042368,0.002568l0.074464,-0.01669l0.003852,-0.02311l-0.024394,-0.059058l-0.01669,-0.002568l-0.003852,0.015406l-0.02311,0.028245l-0.025677,0.015406l-0.05649,0.017974l-0.001284,0.011555l0.030813,0.010271Z "/>
</svg>
