<svg xmlns="http://www.w3.org/2000/svg" viewBox="2216.918 621.994 0.399 0.360">
  <path d="M2217.022633,622.009487l0.003964,-0.013875l0.01674,-0.001007l0.063534,0.037676l0.040632,0.03865l0.006937,0.025767l-0.010901,0.012883l-0.021803,-0.00991l-0.035677,0.007928l-0.010901,-0.00991l0.015857,-0.015857l-0.023785,-0.031713l-0.011892,-0.021803l-0.032704,-0.01883Z M2217.167324,622.080842l-0.003964,0.026758l0.005946,0.014866l0.015857,-0.002973l0.015857,-0.01883l0.013871,0.000828l0.007952,0.011928l-0.012904,0.032832l0.034686,0.072346l-0.010901,0.034686l-0.144691,-0.031713l-0.030722,-0.031713l-0.033695,-0.00991l-0.064417,-0.046579l-0.007928,-0.024776l-0.019821,-0.003964l-0.013875,0.025767l0.008919,0.022794l0.138745,0.098113l0.046579,0.010901l0.192261,0.092166l0.011892,-0.006937l-0.020812,-0.05748l0.002973,-0.078292l-0.03865,-0.085229l0.001982,-0.049552l-0.016848,-0.017839l-0.059462,0.007928l-0.01883,0.013875Z "/>
</svg>
