<svg xmlns="http://www.w3.org/2000/svg" viewBox="1380.081 559.772 994.588 193.926">
  <path d="M1382.413,712.463276l0.086838,-0.058121l-0.037118,-0.069597l0.092796,-0.097436l0.097436,-0.041758l0.00928,-0.051038l-0.162393,-0.055678l-0.14218,-0.004538l-0.140848,0.060216h-0.139194l-0.097436,0.027839l0.027839,0.041758l0.102076,0.00928l0.055678,0.041758l0.008915,0.042794l-0.022835,0.031443l0.037118,0.037118l0.125275,0.018559l0.098754,0.067401Z Z M1380.118,708.636091l0.185592,0.055678l0.204151,-0.055678l0.046398,-0.167033l-0.130354,-0.095548l-0.231551,0.002752l-0.111355,0.111355l0.037118,0.148474Z Z M1395.779,753.641427l0.024649,0.046833l0.103526,0.00986l0.202121,-0.024649l0.028329,-0.049885l-0.011075,-0.115263l-0.039438,-0.051763l-0.145429,-0.017254l-0.066552,0.032044l-0.039438,0.101061l-0.056693,0.069017Z Z M2327.487748,745.835845l-0.007373,-0.054065l-0.01966,-0.051608l0.017203,-0.017203l0.03932,0.014745l0.02949,0.063896v0.051608l-0.017203,0.027033l-0.02949,-0.002458l-0.012288,-0.031948Z  M2328.553619,749.782056l-0.012288,-0.022118l0.031948,-0.051608l0.036863,-0.007373l0.044235,0.01966l0.014745,0.02949l-0.012288,0.027033l-0.03932,0.00983l-0.063896,-0.004915Z  M2217.022633,622.009487l0.003964,-0.013875l0.01674,-0.001007l0.063534,0.037676l0.040632,0.03865l0.006937,0.025767l-0.010901,0.012883l-0.021803,-0.00991l-0.035677,0.007928l-0.010901,-0.00991l0.015857,-0.015857l-0.023785,-0.031713l-0.011892,-0.021803l-0.032704,-0.01883Z M2217.167324,622.080842l-0.003964,0.026758l0.005946,0.014866l0.015857,-0.002973l0.015857,-0.01883l0.013871,0.000828l0.007952,0.011928l-0.012904,0.032832l0.034686,0.072346l-0.010901,0.034686l-0.144691,-0.031713l-0.030722,-0.031713l-0.033695,-0.00991l-0.064417,-0.046579l-0.007928,-0.024776l-0.019821,-0.003964l-0.013875,0.025767l0.008919,0.022794l0.138745,0.098113l0.046579,0.010901l0.192261,0.092166l0.011892,-0.006937l-0.020812,-0.05748l0.002973,-0.078292l-0.03865,-0.085229l0.001982,-0.049552l-0.016848,-0.017839l-0.059462,0.007928l-0.01883,0.013875Z  M2322.507902,559.939046l-0.011555,-0.017974l0.053922,-0.06291l0.010271,-0.034664l-0.001284,-0.026961l0.047503,-0.020542l0.077032,-0.001284l0.019258,0.01669l0.035591,-0.004729l0.014165,0.003863l0.000315,0.01242l-0.050071,0.002568l-0.008987,0.020542l0.028245,0.007703l0.024625,-0.000713l0.006188,0.012268l-0.087303,0.035948l-0.002568,0.021826l-0.010271,0.005135l-0.011555,-0.014123l-0.0398,0.020542l-0.093722,0.024394Z M2322.81603,559.881272l0.017901,-0.017336l-0.002575,-0.018028l-0.019178,-0.003152l-0.008987,0.007703l0.006419,0.014123l-0.003852,0.012839l0.010271,0.003852Z M2322.882792,559.871001l0.042368,0.002568l0.074464,-0.01669l0.003852,-0.02311l-0.024394,-0.059058l-0.01669,-0.002568l-0.003852,0.015406l-0.02311,0.028245l-0.025677,0.015406l-0.05649,0.017974l-0.001284,0.011555l0.030813,0.010271Z  M2374.257602,639.596954l0.024575,-0.002458l0.073726,-0.04915l0.044235,-0.01966h0.027033l0.017203,0.017203v0.031948l-0.014745,0.012288l-0.01966,-0.007373l-0.036863,0.01966l-0.00983,0.017203l-0.073726,0.031948l-0.024575,-0.002458l-0.012288,-0.027033l0.004915,-0.022118Z M2374.441916,639.361032l0.012288,0.017203h0.01966l0.002458,-0.022118l-0.01966,-0.007373l-0.014745,0.012288Z M2374.628688,639.407724l0.01966,0.017203l0.01966,-0.012288l-0.00983,-0.01966l-0.014745,-0.002458l-0.014745,0.017203Z M2374.476321,639.488823l0.00983,-0.007373h0.014745l0.014745,0.00983l0.014745,-0.007373l-0.002458,-0.014745l-0.058981,-0.002458l-0.007373,0.017203l0.014745,0.004915Z "/>
</svg>
