<svg xmlns="http://www.w3.org/2000/svg" viewBox="0.000 345.513 1038.556 34.068">
  <path d="M986.988,373.763158l0.139194,-0.092796h0.194872l0.083516,0.129914l-0.129914,0.129914l-0.259829,-0.037118l-0.027839,-0.129914Z M920.971,364.614529l-0.258324,0.090762l-0.013963,0.090762l0.307196,0.090762h0.174543l0.314177,-0.118689h0.342104l0.062835,0.062835l-0.118689,0.342104l0.027927,0.048872l0.858751,-0.083781l0.167561,-0.069817l0.055854,0.013963l-0.04189,0.097744l-0.104726,0.104726l-0.055854,0.125671l0.020945,0.174543l-0.027927,0.104726l-0.153598,0.160579l0.027927,0.055854l0.209452,0.020945l0.132653,0.048872l0.083781,-0.020945l0.034909,-0.111707l0.069817,-0.020945l0.069817,0.055854h0.083781l0.097744,-0.048872l0.146616,0.034909l0.132653,0.146616l0.006982,0.223415l0.062835,0.04189l0.265305,-0.090762l0.356068,-0.481738l0.279269,-0.139634l0.139634,0.034909l0.153598,0.24436l0.153598,0.076799l0.24436,-0.04189l0.272287,-0.383994l0.139634,-0.097744l0.181525,0.020945l0.272287,0.125671l0.20247,0.034909l0.307196,-0.048872l0.300214,0.034909l0.069817,-0.069817l-0.069817,-0.118689l-0.383994,-0.090762l-0.425885,-0.013963l-0.111707,-0.055854l0.006982,-0.111707l0.188506,-0.118689l0.062835,-0.209452l-0.314177,-0.174543l-0.237378,-0.013963l-0.300214,0.174543l-0.153598,-0.034909l-0.027927,-0.090762l0.118689,-0.188506l-0.083781,-0.139634l-0.24436,-0.139634l-0.726099,-0.020945l-0.258324,0.097744l-0.167561,0.034909l-0.209452,-0.020945l-0.04189,-0.062835l-0.195488,-0.090762l-0.474757,-0.04189l-0.111707,-0.048872l-0.265305,-0.013963l-0.300214,0.076799l-0.251342,-0.013963l-0.314177,0.062835l-0.342104,0.167561l-0.181525,0.146616l-0.237378,0.174543Z M926.633,369.150318l0.074472,-0.130325l0.223415,-0.055854l0.130325,-0.121016h0.158252l0.260651,0.074472l0.372358,-0.139634l0.055854,-0.139634l0.456139,-0.279269l0.735408,-0.09309l0.260651,0.046545l0.037236,0.074472l-0.279269,0.167561l-0.17687,0.204797l-0.074472,0.195488l0.148943,0.381667l0.018618,0.307196l-0.083781,0.027927l-0.158252,-0.046545l-0.17687,0.009309l-0.167561,-0.055854l-0.242033,-0.167561l-0.195488,-0.055854l-0.437521,0.083781l-0.465448,-0.037236l-0.409594,-0.158252l-0.065163,-0.09309Z M929.998,366.045781l0.20247,0.048872l0.209452,0.139634l-0.04189,0.048872l-0.160579,-0.006982l-0.139634,-0.048872l-0.097744,-0.139634l0.027927,-0.04189Z M930.564,366.248251l0.181525,0.048872l0.209452,0.097744l0.006982,0.090762l-0.062835,0.04189l-0.300214,-0.132653l-0.062835,-0.097744l0.027927,-0.048872Z M931.283,366.45072l0.069817,-0.048872l0.048872,-0.034909h0.139634l0.216433,0.090762l0.104726,0.111707l-0.020945,0.076799l-0.321159,-0.04189l-0.230397,-0.097744l-0.006982,-0.055854Z M943.242,369.629497l0.251342,-0.027927l0.265305,0.111707l0.04189,0.111707l-0.083781,0.125671l-0.265305,0.04189l-0.153598,-0.04189l-0.111707,-0.237378l0.055854,-0.083781Z M959.089,374.696563l-0.484066,-0.297887l0.009309,-0.055854l0.325813,0.055854l0.456139,0.158252l0.242033,0.260651l-0.018618,0.046545l-0.204797,0.037236l-0.158252,-0.037236l-0.167561,-0.167561Z M960.267,373.044223l0.328141,0.006982l0.460793,0.230397l0.020945,0.076799l-0.083781,0.139634l-0.342104,0.300214l-0.279269,-0.062835l-0.230397,-0.342104l0.013963,-0.20247l0.111707,-0.146616Z M957.991,372.988369l-0.174543,-0.069817l-0.020945,-0.216433l0.069817,-0.132653l0.279269,-0.069817l0.188506,0.090762l0.069817,0.160579l0.013963,0.167561l-0.174543,0.104726l-0.251342,-0.034909Z M959.059,373.218766l-0.104726,-0.062835l0.020945,-0.055854l0.076799,-0.034909l0.076799,0.027927l0.048872,0.062835l-0.006982,0.055854l-0.111707,0.006982Z M959.345,373.27462l0.125671,-0.048872l0.090762,0.020945l-0.013963,0.048872l-0.160579,0.104726h-0.055854l-0.006982,-0.069817l0.020945,-0.055854Z M954.793,373.162912l0.090762,0.027927l0.069817,0.062835l0.104726,0.013963l0.216433,0.069817v0.034909l-0.188506,0.034909l-0.258324,-0.04189l-0.111707,-0.076799l0.006982,-0.062835l0.069817,-0.062835Z M951.987,373.840139l0.069817,-0.069817l0.188506,-0.104726l0.363049,-0.069817l0.174543,-0.139634l0.034909,-0.111707l0.132653,-0.146616l0.209452,-0.104726l0.537592,-0.034909l0.139634,-0.062835l0.111707,-0.181525l0.069817,-0.314177l0.223415,-0.251342l0.020945,-0.160579l0.111707,-0.237378l0.20247,-0.055854l0.20247,0.04189l0.272287,0.24436l0.006982,0.181525l-0.216433,0.328141l-0.20247,0.118689l-0.195488,0.209452l0.006982,0.104726l-0.048872,0.076799l-0.167561,-0.020945l-0.04189,0.076799l0.118689,0.153598l0.223415,0.048872l0.069817,0.062835l-0.006982,0.104726l-0.174543,0.090762l-0.223415,0.006982l-0.20247,-0.097744l-0.146616,0.006982l-0.048872,0.139634l-0.04189,0.027927l-0.090762,-0.013963l-0.048872,-0.132653l-0.153598,-0.034909l-0.251342,0.069817l-0.230397,0.146616l-0.160579,0.293232l0.006982,0.258324l-0.083781,0.083781l-0.118689,-0.020945l-0.048872,-0.097744l-0.377013,-0.258324l-0.153598,-0.013963l-0.048872,-0.04189l-0.013963,-0.097744Z M961.335,375.962581l0.111707,-0.048872l0.034909,-0.062835l0.132653,-0.04189l0.153598,0.04189l0.104726,0.090762l0.251342,0.076799l0.174543,-0.034909l0.802897,0.160579l0.195488,0.118689l0.083781,0.160579l0.160579,0.048872l0.153598,-0.020945l0.132653,0.083781v0.111707l0.188506,0.237378l0.104726,0.069817l0.118689,0.048872l0.20247,0.20247l0.439848,0.237378h0.146616l0.090762,0.027927l0.006982,0.111707l0.167561,0.132653l0.013963,0.069817l0.097744,0.076799l0.146616,0.027927l0.090762,-0.027927l0.181525,-0.020945l0.027927,0.048872l-0.146616,0.097744l-0.013963,0.04189l0.062835,0.013963l0.216433,-0.062835l0.40494,-0.069817l0.118689,0.048872l0.013963,0.125671l0.055854,0.048872l0.139634,-0.006982l0.195488,0.062835l0.013963,0.034909l-0.048872,0.048872l-0.349086,0.090762l-0.174543,-0.020945l-0.013963,-0.04189l0.062835,-0.090762l-0.027927,-0.027927l-0.104726,0.034909l-0.181525,0.097744l-0.411921,0.013963l-0.251342,0.090762l-0.160579,-0.04189l-0.048872,-0.111707l0.076799,-0.111707l-0.013963,-0.034909l-0.258324,-0.069817l-0.823843,-0.516647l-0.104726,-0.111707l-0.474757,-0.425885l-0.027927,-0.090762l-0.139634,-0.090762l-0.174543,-0.034909l-0.383994,-0.209452l-0.209452,-0.069817l-0.181525,0.048872l-0.174543,-0.013963l-0.390976,-0.125671l-0.383994,-0.216433l-0.20247,-0.153598v-0.076799Z M967.067,373.058187l0.167561,0.027927l0.167561,-0.04189l0.195488,-0.181525l0.300214,-0.167561h0.188506l0.328141,0.188506l0.097744,0.125671l0.251342,0.111707l0.153598,0.139634l-0.027927,0.146616l-0.188506,0.027927l-0.013963,0.069817l0.076799,0.048872l0.020945,0.069817l-0.076799,0.069817l-0.390976,0.125671l-0.111707,0.160579l-0.188506,0.048872l-0.349086,-0.118689l-0.195488,-0.020945l-0.390976,-0.258324l-0.090762,-0.146616l0.069817,-0.083781l0.013963,-0.076799l-0.062835,-0.104726l0.006982,-0.104726l0.048872,-0.055854Z M978.005,376.50651l0.279269,0.149998l0.316505,0.01875l0.121016,0.131248l-0.074472,0.065624l-0.316505,0.028125l-0.195488,-0.084374l-0.167561,-0.253121l0.037236,-0.056249Z M981.589,377.406498l0.046545,-0.056249l0.083781,-0.009375l0.09309,0.028125l-0.009309,0.046874l-0.139634,0.01875l-0.074472,-0.028125Z M976.637,376.572134l-0.055854,-0.084374l0.046545,-0.056249l0.139634,0.01875l0.065163,0.140623l-0.083781,0.01875l-0.111707,-0.037499Z M979.215,376.440886l-0.102399,-0.056249v-0.112498l0.186179,-0.037499l0.214106,0.046874l0.018618,0.093749l-0.139634,0.074999l-0.17687,-0.009375Z M979.653,376.440886l-0.037236,-0.065624l0.027927,-0.065624l0.111707,-0.01875l0.09309,0.046874v0.112498l-0.09309,0.028125l-0.102399,-0.037499Z M978.182,375.053406l-0.325813,-0.224997l0.018618,-0.196872l0.121016,-0.224997l0.242033,-0.056249l0.335122,0.103124l0.195488,0.262496l-0.065163,0.224997l-0.214106,0.112498h-0.307196Z M976.087,379.281471l-0.102399,-0.112498l0.09309,-0.206247l0.186179,-0.093749l0.158252,0.046874l0.130325,0.234372l-0.046545,0.224997l-0.214106,0.206247h-0.167561l-0.074472,-0.131248l0.037236,-0.168748Z M977.074,378.747104l0.065163,-0.309371l-0.046545,-0.159373l0.055854,-0.206247l0.111707,-0.028125l0.204797,0.140623l0.121016,0.253121l-0.046545,0.112498l-0.195488,0.01875l-0.186179,0.196872l-0.083781,-0.01875Z M982.120,373.994045l0.158252,-0.243747l0.521302,-0.131248l0.735408,0.056249l0.279269,-0.028125l0.158252,0.103124l0.204797,0.309371v0.112498l0.288578,0.149998l0.260651,0.084374l0.17687,-0.093749h0.195488l0.139634,0.084374l0.242033,-0.01875l0.204797,-0.121873l0.372358,-0.009375l0.083781,0.065624l-0.195488,0.187497l-0.484066,0.01875l-0.539919,0.206247l-0.055854,0.084374l0.130325,0.084374v0.074999l-0.214106,0.131248l-0.065163,0.159373l0.055854,0.159373l-0.037236,0.112498l-0.214106,0.140623l-0.242033,-0.084374l-0.121016,0.093749l-0.055854,0.290621l0.148943,0.337495l-0.046545,0.065624l-0.148943,-0.037499l-0.130325,-0.215622l-0.260651,-0.196872l-0.418903,-0.149998l-0.148943,0.046874l-0.204797,-0.028125l-0.09309,-0.121873l0.046545,-0.159373l0.09309,-0.084374l0.493375,0.01875l0.456139,-0.112498l0.055854,-0.318746l-0.148943,-0.168748l-0.325813,-0.074999l-0.167561,0.037499l-0.121016,-0.028125l-0.009309,-0.046874l-0.148943,-0.084374l-0.083781,-0.149998l-0.763334,-0.337495l-0.055854,-0.168748Z M985.722,375.662772l-0.158252,-0.121873l0.009309,-0.121873l0.232724,-0.112498l0.083781,-0.112498l0.130325,-0.01875l0.242033,0.084374h0.474757l0.214106,-0.084374l0.148943,-0.112498l0.754025,-0.196872l0.605082,-0.112498l0.26996,-0.168748l0.111707,-0.32812l0.046545,-0.665616l0.139634,-0.178122l0.381667,0.028125l0.44683,0.290621l0.009309,0.196872l-0.111707,0.224997l-0.35374,0.215622l-0.065163,0.187497l0.111707,0.215622l-0.055854,0.468743l-0.130325,0.178122l-0.530611,0.056249l-0.232724,0.159373l-0.186179,0.009375l-0.456139,-0.299996l-0.307196,-0.056249l-0.35374,0.074999l-0.26996,0.159373h-0.707481l-0.186179,0.121873l-0.065163,0.196872l-0.139634,0.056249l-0.111707,-0.084374l0.009309,-0.149998Z M992.656,375.825554l-0.055013,-0.015848l0.002645,-0.079153l0.039774,-0.041426l0.044688,0.015224l0.019245,0.059604l-0.051339,0.061599Z M1006.886,372.801162l-0.079794,0.049185l-0.065864,-0.035564l0.005132,-0.05907l0.07511,-0.033063l0.085986,0.030723l-0.020569,0.047789Z M995.673,373.37181l0.013878,-0.055904l0.083267,-0.004659l0.074015,0.055904l-0.004626,0.041928l-0.078641,0.004659l-0.087893,-0.041928Z M993.409,375.226779l-0.042091,-0.069844l0.02911,-0.032707l0.039565,0.023327l0.032179,0.057948l-0.022022,0.026718l-0.03674,-0.005442Z M991.344,374.672842l-0.052427,-0.018635l0.003084,-0.027952l0.049343,-0.012423l0.067847,0.02174l-0.003084,0.031058l-0.064763,0.006212Z M997.474,372.618458l-0.052427,-0.009317l-0.003084,-0.024846l0.080183,-0.009317l0.018504,0.02174l-0.043175,0.02174Z M996.106,373.533721l-0.001711,-0.026715l0.058716,-0.043021l0.03561,0.012132l0.001293,0.052192l-0.047657,0.023731l-0.046252,-0.018319Z M991.601,374.57116l-0.057169,0.013306l-0.03412,-0.016017l0.007329,-0.029685l0.037876,-0.016187l0.043231,0.014399l0.002854,0.034184Z M991.502,374.402237l-0.052427,-0.024846l0.012336,-0.024846h0.052427l0.027756,0.018635l-0.006168,0.024846l-0.033923,0.006212Z M992.511,375.871943l-0.007854,-0.025312l0.012567,-0.01582l0.03613,0.00791l0.013618,0.029418l-0.012336,0.015529l-0.042125,-0.011724Z M991.549,374.697416l-0.055511,-0.027952l0.021588,-0.024846l0.095602,-0.012423l0.040091,0.024846l-0.030839,0.031058l-0.070931,0.009317Z M1002.515,371.068205l-0.080423,-0.037381l0.018559,-0.049842l0.074237,-0.00623l0.061864,0.031151l0.006186,0.049842l-0.080423,0.01246Z M1000.385,373.15642l-0.104392,-0.021595l-0.012542,-0.055262l0.097807,-0.058298l0.117513,0.016785l0.038785,0.045643l-0.036373,0.043262l-0.100798,0.029465Z M1005.608,371.482571l0.013565,-0.042058l0.072581,-0.036858l0.05373,0.028024l0.006107,0.043791l-0.085123,0.029099l-0.060861,-0.021998Z M997.053,373.06359l0.143125,-0.080858l0.708644,0.003516l0.129162,0.035156l0.003491,0.049218l-0.24436,0.056249l-0.12218,-0.021093l-0.076799,0.024609l0.003491,0.087889l-0.048872,0.038671l-0.303705,-0.045702l-0.195488,-0.094921l0.003491,-0.052734Z M995.943,373.302649l0.094253,-0.024609l0.101235,0.003516l0.062835,0.035156l-0.031418,0.049218l-0.195488,0.007031l-0.048872,-0.042187l0.017454,-0.028125Z M996.457,373.34132l0.052363,-0.024609l0.066326,0.007031l0.027927,0.108983l-0.038399,0.105467l-0.118689,-0.021093l-0.024436,-0.049218l0.034909,-0.126561Z M996.701,373.271009l0.139634,0.024609l0.024436,0.049218l-0.083781,0.06328l-0.069817,-0.014062l-0.045381,-0.094921l0.034909,-0.028125Z M997.752,373.467881l-0.108217,-0.007031l0.003491,-0.06328l0.115198,-0.073827l0.28276,-0.052734l0.076799,0.038671l0.087271,0.207419l0.08029,0.038671l0.069817,-0.014062l0.034909,0.021093l-0.003491,0.073827l-0.188506,0.028125l-0.247851,-0.091405l-0.090762,-0.077343l-0.111707,-0.028125Z M998.488,373.271009l-0.003491,-0.084374l0.08029,-0.03164l0.153598,0.017578l0.12218,0.049218l0.062835,-0.007031l0.031418,-0.045702l0.066326,0.007031l0.059345,0.052734l-0.017454,0.052734l-0.352577,0.066796l-0.031418,0.045702l0.013963,0.066796l-0.059345,0.042187l-0.083781,-0.014062l-0.076799,-0.084374l-0.003491,-0.098436l0.038399,-0.035156Z M999.937,371.32338h0.090762l0.08029,0.038671l0.017454,0.077343l-0.024436,0.059765l-0.097744,0.014062l-0.08029,-0.049218l-0.024436,-0.091405l0.038399,-0.049218Z M1018.927,370.451679l0.242033,-0.214106l0.17687,-0.297887l0.558537,-0.288578l0.372358,-0.046545l0.344431,0.148943l0.35374,0.083781l0.139634,0.158252l-0.046545,0.186179l-0.558537,0.316505l-0.912278,0.279269l-0.418903,-0.009309l-0.242033,-0.139634l-0.009309,-0.17687Z M993.315,375.246762l0.059345,0.014062l0.017454,0.052734l-0.038399,0.052734l0.006982,0.084374l-0.031418,0.03164l-0.055854,-0.017578l-0.024436,-0.06328l0.017454,-0.098436l0.048872,-0.056249Z M990.214,376.098703l0.065163,-0.046874l0.037236,-0.098436l-0.023272,-0.084374l0.088435,-0.187497l0.265305,-0.14531l0.162907,-0.023437l0.172216,-0.187497l0.023272,-0.112498l-0.097744,-0.079686l0.018618,-0.037499l0.148943,0.042187l0.107053,0.060937l0.04189,-0.028125l-0.046545,-0.084374l-0.255996,-0.126561l-0.200143,-0.126561l-0.009309,-0.16406l0.046545,-0.089061l0.09309,-0.004687l0.111707,-0.046874l0.037236,-0.065624l0.083781,0.014062l0.079126,0.140623l0.251342,0.18281l0.074472,0.01875l0.088435,-0.042187l0.316505,0.01875l0.13498,-0.032812l0.023272,-0.042187l-0.316505,-0.112498l-0.139634,-0.178122l0.009309,-0.140623l0.051199,-0.107811l0.21876,-0.014062l0.083781,-0.060937l-0.009309,-0.084374l-0.162907,-0.079686l-0.260651,-0.126561l-0.097744,-0.20156l0.046545,-0.215622l0.162907,-0.159373l0.316505,-0.028125l0.377013,0.140623l0.060508,0.103124l0.116362,0.135936l0.051199,0.009375l0.079126,-0.093749l0.023272,-0.126561l-0.046545,-0.056249l-0.023272,-0.126561l0.065163,-0.187497l0.172216,-0.065624l0.21876,0.028125l0.051199,0.135936l-0.065163,0.192185l-0.004654,0.14531l0.097744,0.089061l0.004654,0.079686l-0.074472,0.089061l-0.111707,-0.014062l-0.172216,0.046874l-0.153598,0.140623l-0.032581,0.187497l-0.130325,0.093749l0.018618,0.056249l0.158252,-0.032812l0.144289,0.01875l0.116362,0.084374l0.283923,0.060937l0.148943,0.004687l0.102399,-0.121873l0.214106,-0.028125l0.204797,0.070312l0.065163,0.089061l-0.018618,0.243747l0.04189,0.154685l-0.051199,0.070312l0.04189,0.173435l-0.046545,0.14531l-0.223415,0.117186l-0.074472,-0.01875l0.023272,-0.107811l-0.116362,-0.135936l-0.102399,-0.009375l-0.116362,0.060937l-0.088435,0.215622l-0.209452,0.299996l-0.09309,0.014062l-0.102399,-0.140623l-0.088435,0.014062l-0.051199,0.121873l-0.293232,0.074999l-0.186179,-0.032812l-0.111707,0.028125l-0.09309,0.070312l-0.046545,0.140623l0.079126,0.135936l-0.013963,0.098436l-0.065163,0.032812l-0.144289,-0.060937l-0.139634,0.014062l-0.153598,0.16406h-0.069817l-0.102399,-0.117186l-0.004654,-0.093749l0.060508,-0.065624l-0.004654,-0.117186l-0.083781,-0.098436l-0.018618,-0.107811l0.055854,-0.220309l-0.037236,-0.098436l-0.04189,0.014062l-0.125671,0.220309l-0.060508,0.18281l-0.060508,0.084374l-0.17687,0.173435l-0.21876,0.374995l-0.083781,0.042187l-0.223415,-0.074999l-0.069817,-0.140623l0.009309,-0.103124Z M995.571,372.892498l-0.186179,-0.449994l0.079126,-0.192185l0.265305,-0.262496l0.200143,-0.032812l0.539919,0.098436l0.255996,0.253121l0.023272,0.117186l-0.032581,0.089061l0.074472,0.084374l0.111707,0.01875l0.046545,-0.037499l0.037236,0.014062l-0.018618,0.089061l-0.144289,0.037499l-0.09309,-0.037499l-0.037236,0.028125v0.065624l-0.055854,0.01875l-0.09309,-0.009375l-0.060508,0.056249l-0.027927,0.093749l0.051199,0.032812l0.051199,-0.004687l0.083781,0.093749l-0.046545,0.117186l-0.251342,0.042187l-0.111707,-0.046874l-0.04189,-0.121873l-0.172216,-0.070312l-0.349086,-0.01875l-0.097744,-0.065624Z M996.069,373.886235l0.209452,-0.107811l0.44683,-0.089061l0.144289,0.056249l-0.013963,0.060937l-0.130325,0.042187l-0.004654,0.060937l0.204797,0.009375l0.088435,-0.056249l0.088435,0.009375l0.037236,0.046874l-0.074472,0.290621l-0.055854,0.042187l-0.111707,-0.065624l-0.228069,-0.065624l-0.172216,0.009375l-0.153598,-0.028125l-0.032581,-0.065624l-0.251342,-0.098436l0.009309,-0.051562Z M995.273,374.087794l0.032581,-0.084374l0.172216,-0.023437l0.251342,0.056249l0.172216,0.215622l0.069817,0.009375l0.079126,-0.060937l0.190834,-0.023437l0.335122,0.098436l0.13498,0.149998l0.004654,0.140623l0.055854,0.032812l-0.032581,0.023437l-0.116362,-0.023437l-0.079126,-0.093749l-0.330468,-0.060937l-0.167561,0.014062l-0.009309,0.037499l0.116362,0.126561l0.018618,0.079686l-0.074472,0.009375l-0.209452,-0.070312l-0.055854,-0.084374l-0.009309,-0.112498l-0.027927,0.004687l-0.055854,0.234372l-0.004654,0.121873l0.074472,0.032812v0.037499l-0.051199,0.028125l-0.088435,-0.037499l-0.09309,-0.135936l0.013963,-0.060937l-0.055854,-0.079686l-0.204797,-0.046874l-0.153598,-0.112498l0.004654,-0.079686l0.102399,-0.037499l0.088435,-0.004687l0.027927,-0.046874l-0.121016,-0.089061l-0.004654,-0.084374Z M994.035,374.458101l-0.023272,-0.112498l-0.04189,-0.135936l0.032581,-0.070312l0.186179,-0.065624l0.451484,-0.014062l0.26996,0.028125l0.060508,0.065624l-0.065163,0.168748l-0.102399,0.056249l-0.237378,-0.01875l-0.037236,0.042187l0.051199,0.028125l0.335122,0.042187l0.111707,0.070312l-0.013963,0.159373l0.023272,0.070312v0.079686l-0.148943,0.070312l-0.023272,0.089061l0.004654,0.107811l-0.074472,0.032812l-0.121016,0.014062l-0.158252,0.093749l-0.107053,-0.014062l-0.074472,-0.070312l-0.097744,-0.004687l-0.074472,0.009375l-0.088435,-0.037499l-0.009309,-0.14531l0.04189,-0.079686l-0.023272,-0.168748l-0.069817,-0.070312l-0.018618,-0.135936l0.04189,-0.084374Z M1001.159,372.726095l0.169888,-0.021093l0.153598,-0.046874l0.102399,-0.112498h0.060508l0.051199,0.056249l0.116362,0.042187l0.162907,-0.037499l0.09309,-0.121873l0.204797,-0.046874l0.251342,-0.014062l0.069817,0.046874l0.013963,0.065624l-0.079126,0.070312l0.004654,0.032812l0.144289,-0.023437l0.13498,-0.093749l0.107053,-0.009375l0.069817,0.023437h0.055854l-0.013963,-0.14531l0.079126,-0.112498l0.088435,-0.023437l0.111707,0.032812l0.04189,0.065624l0.097744,0.01875l0.069817,-0.037499v-0.060937l0.121016,-0.042187h0.167561l0.023272,-0.042187l-0.046545,-0.074999l0.023272,-0.117186l0.121016,-0.051562l0.073308,0.017578l0.024436,0.066796l0.04189,0.042187l0.232724,0.004687l0.09309,0.051562l0.172216,0.009375l0.209452,0.032812l0.153598,-0.023437l0.09309,-0.065624l-0.027927,-0.107811l0.027927,-0.042187h0.223415l0.055854,0.032812l-0.051199,0.070312l0.046545,0.023437l0.074472,-0.037499l0.466611,-0.01875l0.18967,0.046874l0.037236,-0.009375l-0.018618,-0.046874l-0.102399,-0.060937l-0.037236,-0.117186l0.051199,-0.112498l0.13498,-0.014062l0.065163,0.046874l0.121016,0.042187l0.279269,-0.028125l0.027927,-0.032812l-0.111707,-0.065624l-0.148943,-0.009375l-0.09309,-0.056249l-0.04189,-0.103124l0.027927,-0.105467l0.104726,-0.007031l0.195488,0.06328l0.111707,-0.021093l0.097744,-0.070312l0.195488,0.021093l0.090762,0.105467l0.090762,0.007031l0.076799,-0.042187l-0.020945,-0.105467l-0.265305,-0.154685l-0.020945,-0.070312l0.083781,-0.070312l0.474757,0.021093l0.181525,0.091405l0.24436,0.007031l0.230397,-0.147654l0.04189,-0.077343l0.230397,-0.140623l0.034909,-0.126561l-0.104726,-0.084374l-0.195488,0.014062l-0.335122,-0.091405l-0.20247,0.035156l-0.377013,-0.070312l-0.28625,-0.112498l-0.027927,-0.11953l0.097744,-0.077343l0.195488,0.021093l0.383994,0.014062l0.146616,-0.042187l0.090762,-0.168748l-0.034909,-0.084374l-0.006982,-0.126561l0.111707,-0.112498h0.20247l0.048872,-0.042187l-0.006982,-0.091405l0.069817,-0.042187l0.111707,0.007031l0.216433,-0.021093l0.104726,-0.105467l0.167561,-0.042187l0.258324,0.06328l0.083781,0.091405l0.132653,0.042187l0.104726,0.007031l0.216433,0.105467l0.048872,0.091405l0.111707,0.077343l0.188506,0.049218l0.013963,0.06328l-0.034909,0.035156v0.077343l0.139634,0.189841l-0.006982,0.133592l-0.062835,0.175779l-0.188506,0.126561l-0.062835,0.11953l-0.069817,0.210935l-0.076799,0.077343l-0.265305,-0.028125l-0.335122,0.007031l-0.174543,-0.056249h-0.097744l-0.055854,0.126561l0.076799,0.196872l0.314177,0.147654l0.335122,0.281246l0.048872,0.168748l-0.055854,0.147654l-0.118689,0.014062l-0.118689,-0.112498l-0.188506,-0.014062l-0.076799,0.06328l-0.062835,0.021093l-0.125671,-0.06328l-0.104726,0.021093l-0.027927,0.112498l-0.132653,0.049218l-0.314177,-0.035156l-0.160579,-0.126561l-0.24436,0.007031l-0.181525,0.105467l-0.048872,0.210935l-0.230397,0.323433h-0.118689l-0.132653,-0.168748l-0.167561,-0.112498l-0.181525,-0.007031l-0.034909,0.06328l0.083781,0.161716l-0.027927,0.028125l-0.195488,-0.126561l-0.048872,0.014062l-0.013963,0.126561l-0.076799,0.028125l-0.20247,-0.049218l-0.146616,0.021093l-0.055854,0.070312l-0.181525,0.049218l-0.223415,-0.091405l-0.062835,0.007031l-0.013963,0.161716l-0.223415,0.098436l-0.181525,-0.014062l-0.076799,-0.070312l-0.356068,-0.126561l-0.453812,-0.070312l-0.418903,0.06328l-0.167561,0.098436l-0.104726,0.021093l-0.069817,-0.035156l-0.090762,-0.007031l-0.04189,0.084374l-0.097744,0.028125l-0.230397,-0.014062l-0.160579,0.070312l-0.146616,0.007031l-0.363049,-0.077343l-0.719117,-0.014062l-0.20247,0.049218l-0.132653,-0.007031l-0.062835,-0.098436l0.04189,-0.056249Z M1009.649,371.78392l0.207124,-0.007031l0.237378,0.065624l0.31185,-0.023437l0.204797,-0.065624l0.107053,0.014062l0.009309,0.032812l-0.055854,0.023437l-0.060508,0.098436l0.009309,0.046874l0.204797,-0.004687l0.116362,-0.084374l0.079126,-0.023437l0.046545,0.032812l-0.04189,0.051562l0.004654,0.060937l0.069817,0.01875l0.09309,-0.009375l0.116362,-0.131248l0.107053,-0.060937l0.148943,-0.014062l0.181525,0.028125l0.242033,-0.01875l0.060508,-0.051562l0.35374,-0.112498l0.17687,0.014062l0.09309,0.056249l0.060508,0.014062l0.088435,-0.014062l0.074472,-0.070312l0.125671,-0.009375l0.060508,0.028125l0.023272,0.089061l-0.125671,0.089061l-0.013963,0.070312l0.181525,0.098436h0.09309l0.088435,-0.070312l0.079126,-0.009375l0.074472,0.070312l0.079126,0.004687l0.037236,-0.070312l0.088435,0.004687l0.116362,0.065624l0.09309,0.009375l0.09309,-0.051562l0.055854,0.014062l0.111707,0.112498l0.088435,0.023437l0.158252,-0.037499l0.107053,-0.074999h0.302541l0.139634,0.079686h0.102399l0.190834,-0.084374l0.162907,0.009375l0.107053,0.056249h0.069817l0.04189,-0.065624l0.097744,0.004687l0.144289,0.079686l0.633009,-0.009375l0.260651,0.056249l0.023272,0.037499l-0.083781,0.056249l-0.274614,0.009375l-0.097744,0.060937l-0.260651,0.028125l-0.209452,-0.032812l-0.153598,0.01875l-0.288578,0.135936l-0.13498,-0.004687l-0.228069,-0.074999l-0.065163,-0.004687l-0.065163,0.032812l-0.181525,0.014062l-0.167561,0.051562h-0.251342l-0.09309,0.023437l-0.17687,0.140623l-0.153598,0.014062l-0.111707,-0.042187l-0.386322,-0.051562l-0.111707,0.032812l-0.004654,0.065624l0.060508,0.023437l0.018618,0.032812l-0.060508,0.032812l-0.144289,-0.004687l-0.144289,-0.056249l-0.13498,0.004687l-0.111707,-0.046874l-0.04189,-0.051562l0.023272,-0.079686l-0.037236,-0.028125l-0.437521,0.004687l-0.200143,0.056249l-0.102399,-0.01875l-0.065163,-0.117186l-0.046545,-0.009375l-0.246687,0.126561l-0.423558,-0.004687l-0.139634,0.060937l-0.116362,0.004687l-0.214106,-0.065624l-0.153598,-0.004687l-0.195488,-0.056249l-0.209452,-0.299996l-0.167561,-0.070312l-0.148943,-0.009375l-0.169888,-0.093749l-0.090762,-0.140623l0.062835,-0.049218Z M1027.661,368.776781v-0.15883l0.144509,-0.211774l0.237741,-0.120326l0.11654,0.019252l0.158494,0.134765l0.083908,0.192522l-0.032631,0.211774l-0.17714,0.144391h-0.186463l-0.111878,-0.067383h-0.069924l-0.041954,0.043317l-0.074585,-0.038504l-0.046616,-0.149204Z M1028.616,367.96819l0.041954,-0.077009l0.083908,-0.081822l0.139847,-0.024065l0.130524,0.067383l-0.041954,0.120326l-0.079247,0.077009l-0.223756,-0.024065l-0.051277,-0.057756Z M1030.728,367.992256l0.023308,-0.327287l0.051277,-0.250278l0.102555,-0.101074l0.158494,-0.019252l0.223756,-0.077009l0.08857,-0.105887l0.027969,-0.134765l0.069924,-0.043317l0.275033,-0.033691l0.060601,-0.077009l0.107216,-0.033691l0.125863,0.038504l0.181802,0.004813l0.200448,0.067383l0.158494,0.163643l-0.013985,0.182895l-0.219094,0.351352l-0.149171,0.091448l-0.461496,-0.014439l-0.209771,0.077009l-0.424204,0.399482l-0.079247,0.019252l-0.018646,-0.057756l-0.11654,-0.06257l-0.121201,-0.004813l-0.041954,-0.052943Z M1037.706,363.525388l0.08857,-0.118096l0.08857,-0.009448l0.130524,0.108648l0.018646,0.108648l-0.051277,0.089753l-0.130524,-0.004724l-0.144509,-0.085029v-0.089753Z M1035.502,365.00867l0.144509,-0.070857l0.032631,-0.094477l0.046616,-0.047238l0.149171,-0.023619l0.358942,0.108648l0.093232,0.108648l-0.018646,0.212572l-0.214433,0.132267l-0.144509,0.023619l-0.233079,-0.080305l-0.219094,-0.207849l0.004662,-0.06141Z M1035.115,366.56281l0.018646,-0.047238l0.013985,-0.103924l-0.032631,-0.108648l0.055939,-0.231468l0.055939,-0.051962l0.209771,-0.014171l0.358942,0.080305l0.125863,0.075581l0.027969,0.132267l-0.135186,0.259811l-0.163155,0.06141l-0.405558,-0.028343l-0.097893,0.018895l-0.032631,-0.042514Z M1038.047,364.56463l-0.009323,-0.056686l-0.121201,-0.089753l-0.037293,-0.132267l0.102555,-0.292877l0.083908,-0.12282l0.223756,-0.066134l0.200448,0.047238l0.055939,0.146439l0.009323,0.108648l-0.083908,0.06141l-0.083908,0.127543l-0.009323,0.0992l-0.08857,0.113372l-0.186463,0.080305l-0.055939,-0.023619Z M1036.308,365.717245l-0.083908,-0.066134v-0.094477l0.144509,-0.146439l0.316987,-0.06141l0.289018,0.075581l0.172478,-0.004724l0.065262,-0.047238l-0.004662,-0.06141l-0.032631,-0.070857l0.032631,-0.06141l0.20511,-0.014171l0.191125,0.023619l0.107216,-0.047238l0.051277,-0.070857l0.26571,-0.014171l0.247064,0.080305l0.023308,0.075581l0.055939,0.033067l0.079247,0.004724l0.055939,0.070857l-0.018646,0.12282l-0.069924,0.075581l-0.009323,0.075581l0.051277,0.070857l-0.018646,0.051962l-0.172478,0.132267l-0.013985,0.06141l0.046616,0.094477l-0.009323,0.051962l-0.121201,0.047238l-0.125863,-0.023619l-0.046616,-0.113372l-0.163155,-0.127543l-0.121201,-0.018895l-0.11654,0.018895l-0.270372,-0.108648l-0.027969,-0.051962l-0.107216,-0.009448l-0.069924,0.051962l-0.074585,0.118096l-0.237741,0.132267l-0.181802,0.018895l-0.153832,-0.047238l-0.130524,-0.146439l-0.018646,-0.080305Z Z M13.446907,359.850866l0.042125,0.011787l0.012336,-0.015612l-0.013618,-0.029574l-0.03613,-0.007952l-0.012567,0.015904l0.007854,0.025447Z M11.312506,360.504851l0.024649,-0.019964l-0.002465,-0.027451l-0.032044,-0.009982l-0.022184,0.02246l0.002465,0.024956l0.029579,0.009982Z M15.796395,357.896117v0.024956l0.022184,0.014973l0.029579,-0.014973l-0.007395,-0.032442l-0.034509,-0.009982l-0.00986,0.017469Z M15.645275,360.228328l0.04189,-0.04948l0.006982,-0.070686l-0.055854,-0.091891h-0.055854l-0.020945,0.042411l0.006982,0.134303l0.076799,0.035343Z M28.986554,353.152442l0.272287,-0.130769l0.212942,-0.038877l0.150107,0.035343l-0.003491,0.09896l-0.08029,0.028274l-0.076799,-0.028274h-0.118689l-0.268796,0.134303l-0.157089,0.021206l-0.066326,-0.038877l-0.003491,-0.038877l0.139634,-0.042411Z M28.665395,353.714394l0.031418,0.031809v0.02474l-0.055854,0.007069l-0.031418,-0.02474l0.013963,-0.035343l0.04189,-0.003534Z M29.21346,353.325622l0.04189,0.028274l-0.04189,0.031809l-0.097744,0.010603l-0.04189,-0.031809l0.024436,-0.042411l0.115198,0.003534Z M21.052996,356.413115l0.023272,-0.061261l0.04189,-0.009425l0.032581,0.01885v0.047124l-0.04189,0.028274l-0.055854,-0.023562Z M24.766106,353.848696v0.021206l-0.031418,0.010603l-0.031418,-0.014137v-0.02474l0.027927,-0.007069l0.034909,0.014137Z M24.549673,354.453059l0.066326,-0.021206l0.027927,0.028274l-0.006982,0.056549l0.045381,0.04948l0.129162,0.038877l0.013963,0.060083l-0.04189,0.045946l-0.188506,0.04948l-0.178034,0.031809l-0.038399,-0.010603l-0.013963,-0.056549l-0.087271,-0.060083l0.038399,-0.053014l0.233888,-0.159043Z M24.999993,354.304619l0.146616,-0.014137l0.136143,0.017671l0.167561,-0.010603l0.20247,-0.109563l0.055854,-0.007069l0.094253,0.053014l0.090762,0.003534l0.062835,-0.02474l0.167561,-0.017671l0.205961,0.021206l0.034909,0.053014l0.097744,0.07422l0.027927,0.09896l-0.017454,0.063617l-0.062835,0.014137l-0.087271,-0.056549l-0.104726,0.007069l-0.038399,0.056549l-0.017454,0.120166l-0.04189,0.003534l-0.090762,-0.035343l-0.087271,-0.060083l-0.055854,-0.116631l-0.101235,-0.042411l-0.209452,-0.003534l-0.146616,-0.014137l-0.157089,-0.007069l-0.083781,0.028274l-0.20247,0.010603l-0.101235,-0.038877v-0.02474l0.115198,-0.042411Z M26.686078,354.110234l0.006982,-0.056549l0.048872,-0.070686l0.117526,-0.035343l0.074472,0.011781l0.048872,0.044768h0.062835l0.038399,-0.038877l0.013963,-0.067151l0.05469,-0.032987l0.123344,0.011781l0.076799,0.060083l0.059345,0.010603l0.031418,-0.042411l0.097744,-0.021206l0.167561,0.035343l0.04189,0.056549l0.087271,0.028274l0.052363,-0.010603l0.003491,-0.056549l0.038399,-0.014137l0.104726,0.02474l0.132653,0.010603l0.045381,-0.021206l0.003491,-0.028274l-0.055854,-0.05537l-0.101235,-0.040055l0.017454,-0.01885h0.090762l0.045381,0.01885l0.045381,0.042411l0.045381,-0.007069l0.059345,-0.038877l0.157089,0.003534l0.055854,0.067151l0.003491,0.137837l-0.102399,0.12959l-0.110544,0.195564l-0.108217,0.035343l-0.097744,-0.021206l-0.258324,0.02474l-0.076799,0.04948l-0.08029,-0.007069l-0.024436,-0.035343l-0.069817,-0.014137l-0.101235,0.038877l-0.174543,-0.045946l-0.08029,-0.081289l-0.094253,-0.007069l-0.101235,0.045946l-0.052363,-0.003534l-0.045381,-0.042411l-0.279269,-0.042411l-0.097744,-0.035343l-0.010473,-0.042411l0.069817,-0.04948Z M20.247771,355.244444l0.04189,-0.009425l0.013963,-0.065973l0.079126,-0.01885l0.339777,0.084823l0.195488,0.141371v0.075398l-0.17687,0.08011l-0.390976,0.004712l-0.214106,-0.094248l-0.009309,-0.146084l0.051199,-0.070686l0.069817,0.01885Z M19.447201,356.99745l0.051199,-0.004712l0.069817,0.09896l0.055854,-0.023562l0.046545,-0.136659l0.111707,-0.075398l0.065163,0.032987l0.013963,0.141371l-0.018618,0.084823l0.055854,0.004712l0.111707,-0.141371l0.023272,-0.235619l0.083781,-0.122522h0.065163l0.079126,0.061261l0.027927,-0.01885l0.009309,-0.089535l0.107053,-0.047124l0.083781,0.014137h0.074472l0.074472,-0.047124l0.139634,0.032987l0.032581,0.042411l-0.018618,0.037699l-0.232724,0.155509l-0.046545,0.11781l0.032581,0.056549l0.130325,0.051836l-0.004654,0.042411l-0.065163,0.023562l0.013963,0.042411l0.055854,0.047124l-0.013963,0.061261l-0.181525,0.051836l-0.144289,-0.023562l-0.102399,-0.023562l-0.055854,0.014137l0.013963,0.056549l0.148943,0.155509l-0.037236,0.094248l-0.130325,0.070686l-0.153598,-0.014137l-0.037236,0.037699l0.069817,0.127234l-0.069817,0.023562l-0.144289,-0.042411l-0.088435,-0.094248l-0.004654,-0.065973l-0.060508,-0.037699l-0.111707,-0.01885l-0.102399,-0.08011l-0.032581,-0.21677l0.009309,-0.221482Z M17.683154,356.290593l0.04189,-0.084823l0.083781,-0.070686l0.009309,-0.075398l-0.018618,-0.084823l0.088435,-0.127234l0.144289,-0.01885l0.055854,0.037699l-0.004654,0.075398l-0.158252,0.113097l-0.018618,0.141371l-0.055854,0.042411h-0.055854l-0.079126,0.070686l-0.032581,-0.01885Z M17.6273,355.998425l0.04189,-0.032987l0.027927,0.01885l-0.027927,0.084823l-0.027927,0.009425l-0.023272,-0.032987l0.009309,-0.047124Z M23.557105,352.675314l0.107053,-0.11781l0.17687,-0.042411l0.027927,-0.084823l-0.013963,-0.061261l0.023272,-0.037699l0.09309,0.014137l0.083781,0.056549l0.027927,0.164933l0.04189,0.028274l0.09309,-0.065973l0.121016,-0.136659l0.21876,-0.070686l0.260651,0.01885l0.097744,0.061261l-0.013963,0.056549l-0.130325,0.009425l-0.097744,0.051836l-0.047708,0.091891l-0.08029,0.070686l-0.225742,0.06833l-0.018618,0.051836l0.195488,0.075398l0.013963,0.056549l-0.079126,0.094248l-0.13498,0.070686l-0.013963,0.042411l0.04189,0.01885l0.228069,-0.094248l0.100071,0.007069l0.116362,0.054192l0.31185,-0.025918l0.258324,0.016493l0.111707,0.056549l0.032581,0.094248l-0.037236,0.094248l-0.09309,0.056549l-0.260651,-0.042411l-0.232724,0.065973l-0.032581,0.051836l0.032581,0.070686l-0.013963,0.037699l-0.09309,-0.014137l-0.069817,0.051836l-0.004654,0.070686l-0.046545,0.023562l-0.214106,-0.037699l-0.032581,0.051836l0.051199,0.065973l0.051199,0.08011l-0.088435,0.136659l-0.195488,0.009425l-0.21876,-0.094248l-0.13498,-0.17907l0.009309,-0.051836l0.09309,-0.023562l0.121016,-0.11781l0.009309,-0.108385l-0.018618,-0.042411h-0.055854l-0.125671,-0.08011l-0.018618,-0.075398l0.102399,-0.127234l0.209452,-0.146084l-0.013963,-0.094248l-0.107053,-0.075398l-0.097744,0.014137l-0.097744,0.09896h-0.251342l-0.097744,-0.070686l-0.004654,-0.094248l0.051199,-0.09896Z M20.727182,353.89582l0.032581,-0.150796l0.037236,-0.065973l0.083781,-0.01885l0.046545,-0.075398l-0.009309,-0.131947l0.09309,-0.108385l0.274614,-0.065973l0.107053,-0.08011l0.121016,-0.146084l0.302541,-0.042411l0.111707,0.023562l0.023272,0.056549h0.079126l0.088435,-0.028274l0.190834,0.032987l0.037236,0.084823l-0.023272,0.08011l-0.046545,0.056549l-0.004654,0.08011l0.102399,0.122522l0.121016,0.032987l0.088435,-0.023562l0.144289,-0.155509l0.046545,-0.004712l0.018618,0.028274l-0.037236,0.047124l0.018618,0.037699l0.139634,0.01885l0.186179,0.075398l0.074472,0.09896l-0.013963,0.051836l-0.21876,0.108385l-0.260651,-0.009425l-0.037236,0.037699l0.051199,0.023562l0.228069,0.028274l0.209452,0.065973l0.111707,-0.023562h0.111707l0.228069,-0.09896l0.074472,0.009425l0.037236,0.047124l-0.018618,0.047124l-0.065163,0.028274l-0.004654,0.056549l0.018618,0.061261l-0.037236,0.075398l-0.116362,0.032987l-0.167561,0.009425l-0.180361,0.096604l-0.048872,0.067151l-0.052363,0.038877l-0.101235,-0.007069l-0.087271,-0.044768l-0.190834,-0.028274l-0.046545,-0.01885l-0.004654,-0.028274l-0.083781,-0.023562l-0.055854,0.028274l-0.04189,0.188495l-0.144289,0.19792l-0.083781,0.01885l-0.069817,-0.037699l-0.023272,-0.150796l-0.125671,-0.075398l-0.139634,-0.009425l-0.069817,0.047124l-0.065163,-0.032987l-0.023272,-0.042411l-0.083781,-0.009425l-0.144289,0.122522l-0.132653,0.078932l-0.123344,0.00589l-0.074472,-0.051836l-0.04189,-0.09896l0.023272,-0.08011l-0.04189,-0.09896l-0.125671,-0.075398l-0.148943,-0.08011l-0.046545,-0.226194Z M9.360947,361.236237l0.20247,-0.169646l0.258324,-0.120166l0.216433,-0.240331l0.139634,-0.077754l0.307196,0.007069l0.111707,0.084823l0.069817,0.007069l0.160579,-0.077754l0.055854,-0.120166l0.132653,-0.063617l0.174543,0.106029l0.279269,0.077754l0.062835,-0.042411l-0.090762,-0.134303l0.020945,-0.070686l0.195488,-0.077754l-0.006982,-0.176714l0.083781,-0.028274l0.209452,0.077754l0.146616,0.134303l0.111707,0.063617l0.048872,-0.028274l-0.048872,-0.162577l0.006982,-0.084823l0.04189,-0.014137l0.174543,0.19792l0.209452,0.127234l0.048872,-0.014137l-0.132653,-0.275674l0.013963,-0.091891l0.090762,-0.014137l0.104726,0.084823l0.104726,0.014137l0.069817,-0.091891l-0.090762,-0.084823l-0.013963,-0.084823l0.069817,-0.042411l0.467775,0.127234l0.230397,-0.04948h0.160579l0.04189,-0.04948l-0.188506,-0.106029v-0.056549l0.111707,-0.042411l0.006982,-0.077754l-0.125671,-0.070686l-0.034909,-0.056549l0.069817,-0.035343l0.579483,0.120166l0.20247,-0.021206l0.090762,-0.084823l0.28625,-0.056549l0.160579,0.021206l0.020945,-0.063617l-0.118689,-0.056549l-0.090762,0.042411l-0.279269,0.021206l-0.111707,0.070686l-0.111707,-0.007069l-0.258324,-0.134303l-0.090762,-0.120166v-0.113097l-0.174543,-0.275674l0.006982,-0.113097l0.125671,-0.127234l0.307196,-0.035343l0.223415,0.141371l0.062835,0.120166l0.055854,0.014137l0.034909,-0.14844l-0.069817,-0.120166l0.04189,-0.035343l0.209452,0.084823l0.055854,-0.021206l-0.146616,-0.204989l-0.216433,-0.106029l-0.083781,-0.169646l0.097744,-0.169646l0.321159,-0.155509l0.607409,-0.021206l0.160579,0.084823l0.188506,0.254469l-0.006982,0.14844l0.04189,0.183783l0.048872,0.028274l0.111707,-0.141371l0.090762,0.007069l0.125671,0.212057l0.083781,0.021206l-0.034909,-0.226194l-0.153598,-0.176714l-0.069817,-0.212057l0.006982,-0.077754l0.139634,0.007069l0.146616,0.09896l0.174543,0.021206l0.090762,-0.063617l-0.048872,-0.028274l-0.111707,0.007069l-0.118689,-0.056549l-0.020945,-0.077754l0.076799,-0.035343l0.209452,0.042411l0.265305,0.007069l0.04189,-0.035343l-0.132653,-0.070686l-0.628355,-0.106029l-0.328141,-0.014137l-0.04189,-0.021206l0.020945,-0.070686l-0.104726,-0.042411h-0.083781l-0.216433,-0.056549l-0.20247,-0.09896l-0.125671,-0.007069l-0.069817,0.084823l-0.111707,0.077754l-0.181525,-0.028274l-0.062835,-0.106029l-0.24436,-0.120166l-0.090762,-0.084823l0.034909,-0.091891l-0.020945,-0.106029l-0.083781,-0.070686l-0.272287,-0.014137l-0.076799,-0.056549l-0.034909,-0.19792l0.111707,-0.106029l0.146616,-0.028274l0.125671,-0.155509l0.090762,-0.275674l0.111707,-0.106029l0.153598,-0.035343l0.111707,-0.077754l0.020945,-0.120166l0.160579,-0.056549l0.118689,0.014137l0.20247,-0.056549l0.300214,-0.183783h0.223415l0.139634,0.04948l0.111707,-0.028274l0.076799,-0.063617l0.460793,-0.219126h0.104726l0.083781,0.070686l0.153598,0.021206l0.195488,-0.120166l0.279269,0.042411l0.195488,0.19792l0.069817,0.204989v0.09896l-0.160579,0.021206l-0.160579,0.176714l-0.027927,0.09896l0.139634,0.155509l0.027927,0.09896l-0.076799,0.113097l0.020945,0.077754l0.104726,0.007069l0.104726,-0.084823l0.090762,0.042411l0.013963,0.070686l-0.195488,0.268606v0.084823l0.139634,-0.021206l0.293232,-0.289811l0.509665,-0.325154h0.132653l0.048872,-0.162577l-0.034909,-0.106029l0.020945,-0.176714l0.062835,-0.021206l0.076799,0.04948l0.048872,-0.007069l0.020945,-0.091891l-0.020945,-0.084823l0.048872,-0.141371l0.195488,-0.190851h0.097744l0.069817,0.127234l-0.125671,0.240331l-0.034909,0.120166l0.055854,0.04948l0.230397,-0.056549l0.118689,-0.134303l0.125671,-0.04948l0.083781,-0.091891h0.069817l0.055854,0.042411l0.097744,0.325154l-0.020945,0.176714l0.055854,0.021206l0.083781,-0.14844l0.097744,-0.014137l0.048872,0.070686l-0.034909,0.162577l-0.083781,0.056549l-0.069817,0.063617l0.006982,0.084823l-0.04189,0.091891l-0.370031,0.070686l-0.209452,-0.035343l-0.090762,-0.084823l-0.04189,0.007069l-0.055854,0.254469l-0.216433,0.233263l-0.167561,0.014137l-0.055854,0.04948l0.055854,0.091891l-0.020945,0.077754l-0.237378,0.120166l-0.321159,-0.021206l-0.090762,0.035343l-0.027927,0.042411l0.216433,0.04948l0.027927,0.04948l-0.251342,0.162577l-0.48872,0.127234l0.027927,0.04948h0.216433l0.069817,0.035343l-0.062835,0.077754l-0.188506,0.084823l0.020945,0.042411l0.188506,-0.021206l0.097744,0.014137l0.048872,0.09896l0.048872,-0.007069l0.048872,-0.155509l0.076799,-0.070686l0.090762,-0.007069l0.118689,0.084823l0.055854,-0.007069v-0.14844l0.076799,-0.14844l0.251342,-0.113097l0.104726,0.056549l0.034909,0.113097l0.097744,0.127234l0.069817,0.028274l0.034909,-0.091891l-0.04189,-0.091891l-0.013963,-0.155509l0.097744,-0.169646l0.132653,-0.028274l0.132653,0.106029l0.034909,0.212057l-0.090762,0.113097l0.006982,0.04948l0.20247,-0.028274l0.174543,0.113097l0.055854,0.162577l-0.118689,0.190851l-0.265305,0.070686l-0.111707,-0.063617h-0.062835l-0.027927,0.106029l-0.076799,0.014137l-0.076799,-0.077754l-0.139634,0.021206l-0.055854,0.056549l0.048872,0.091891l-0.020945,0.056549l-0.090762,-0.042411h-0.076799l-0.04189,0.077754l-0.167561,0.091891l-0.132653,-0.042411l-0.230397,0.014137l-0.188506,0.127234l-0.027927,0.077754l0.111707,0.063617l0.118689,0.113097v0.127234h-0.104726l-0.055854,-0.09896l-0.153598,-0.056549l-0.048872,0.028274l0.006982,0.219126l-0.090762,0.141371h-0.090762l-0.020945,0.035343l0.076799,0.120166l-0.020945,0.056549l-0.083781,-0.021206l-0.188506,-0.19792l-0.034909,-0.106029l-0.139634,-0.169646l-0.055854,-0.007069l0.006982,0.141371l0.160579,0.339291l-0.027927,0.106029l-0.118689,0.007069l-0.24436,-0.091891l-0.048872,-0.106029l-0.055854,-0.04948l-0.034909,0.070686l0.083781,0.127234l0.24436,0.106029l0.118689,0.127234l-0.048872,0.127234l-0.132653,0.021206l-0.349086,-0.204989l-0.230397,-0.190851l-0.090762,-0.190851l-0.069817,-0.035343l-0.048872,0.063617l0.104726,0.162577l-0.013963,0.162577l0.055854,0.127234l0.139634,0.113097l0.055854,0.091891l-0.055854,0.2474l-0.055854,0.042411l-0.195488,-0.113097l-0.083781,-0.084823l-0.04189,0.007069l-0.034909,0.183783l-0.034909,0.035343l-0.097744,-0.028274l-0.111707,-0.169646l-0.132653,-0.09896l-0.132653,0.09896l-0.055854,0.176714l-0.069817,0.056549l-0.111707,-0.056549v-0.063617l-0.055854,-0.070686l-0.118689,0.042411l-0.104726,0.226194l-0.125671,0.014137l-0.04189,-0.077754l0.034909,-0.127234l-0.04189,-0.028274l-0.111707,0.021206l-0.062835,-0.04948l0.04189,-0.127234l-0.04189,-0.021206l-0.209452,0.14844l0.027927,0.070686l-0.027927,0.155509l-0.111707,0.077754l-0.300214,0.021206l-0.104726,-0.028274l-0.083781,0.021206l-0.195488,0.204989l-0.349086,0.169646l-0.377013,0.063617l-0.062835,0.056549l-0.069817,0.233263l-0.097744,0.070686h-0.321159l-0.034909,-0.04948l-0.069817,-0.028274l-0.258324,0.077754l-0.181525,0.113097l-0.013963,0.09896l-0.237378,0.268606l0.006982,0.091891l-0.055854,0.063617l-0.097744,-0.021206l-0.223415,-0.141371l-0.321159,-0.04948l-0.118689,0.021206l-0.097744,0.219126l-0.20247,0.106029l-0.083781,-0.007069l-0.111707,-0.120166l-0.328141,-0.106029l-0.397958,-0.035343l-0.083781,-0.028274l-0.034909,-0.084823l-0.188506,-0.084823l-0.104726,-0.09896l0.013963,-0.070686l0.20247,-0.056549Z M32.435522,350.374968l0.090762,0.075952v0.056104l-0.048872,0.042078l-0.035501,0.223773l-0.250749,0.218044l-0.311506,0.205535l-0.242792,0.102686l-0.367289,0.035415l-0.432866,0.077143l-0.300214,0.126234l-0.195488,0.007013l-0.132653,-0.063117l-0.20247,-0.014026l-0.160579,0.021039l-0.307196,-0.028052l-0.397958,-0.154285l-0.216433,-0.252467l-0.090762,-0.245454l-0.104726,-0.021039l-0.048872,-0.07013l0.020945,-0.112208l-0.006982,-0.098182l-0.090762,-0.084156l-0.132653,-0.196363l-0.034909,-0.336623l0.013963,-0.119221l0.125671,-0.133246l0.209452,-0.049091l0.125671,-0.07013l0.076799,-0.112208l0.083781,-0.035065h0.118689l0.083781,-0.028052l0.055854,-0.056104l0.146616,-0.042078l0.125671,0.014026l0.153598,-0.028052l0.28625,-0.224415l0.328141,-0.532986l0.209452,-0.469869l0.097744,-0.091169l0.272287,-0.532986v-0.266493l0.048872,-0.133246l0.076799,-0.014026l0.111707,-0.056104l0.111707,-0.140259l0.342104,-0.147272l0.24436,-0.014026l0.314177,0.161298l0.125671,0.105195l0.167561,0.035065l0.349086,-0.07013l0.44683,-0.217402l0.272287,-0.224415l0.216433,-0.119221l0.097744,-0.007013l0.090762,0.049091l0.188506,0.007013l0.356068,-0.091169l0.467775,-0.266493l0.342104,-0.308571l0.139634,-0.035065l0.111707,0.021039l0.139634,-0.007013l0.370031,-0.133246h0.104726l0.146616,0.042078l0.516647,0.042078l0.642318,-0.042078l0.258324,-0.042078l0.453812,0.063117l0.127998,0.072467l0.013963,0.037403l-0.023272,0.03039h-0.048872l-0.013963,-0.042078l-0.139634,-0.049091l-0.335122,-0.021039l-0.069817,0.056104l0.006982,0.126234l0.174543,0.091169l0.509665,0.406752l0.265305,0.570388l-0.018618,0.158961l-0.055854,0.14961l0.009309,0.252467l0.122115,0.194337l0.082682,0.235792l0.232724,0.327272l0.214106,0.074805l0.502684,-0.009351l0.279269,-0.130909l0.307196,0.074805l0.26996,0.308571l0.055854,0.28987l0.083781,0.065454l0.17687,0.028052l0.018618,0.093506l-0.083781,0.112208l-0.502684,-0.028052l-0.046545,-0.074805l0.158252,-0.102857l-0.009309,-0.056104l-0.297887,-0.084156l-0.17687,0.028052l-0.083781,0.14961h-0.074472l-0.121016,-0.102857l-0.409594,-0.140259l-0.17687,-0.224415l0.027927,-0.102857l-0.186179,-0.056104l-0.251342,0.037403l-0.214106,0.196363v0.102857l0.102399,0.14961l-0.065163,0.327272l-0.121016,0.037403l-0.363049,0.018701l-0.111707,0.056104l-0.046545,0.102857l-0.111707,0.056104l-0.251342,0.046753l-0.055854,0.093506l-0.121016,0.018701l-0.633009,-0.130909l-1.07053,-0.046753l-1.238091,0.056104l-0.930896,0.215064l-0.651627,0.308571l-0.372401,0.321663l-0.025557,0.128357Z M42.309998,351.308841l-0.018618,-0.065454l0.069817,-0.051428l0.111707,0.046753l0.200143,0.196363l0.009309,0.088831l-0.065163,0.004675l-0.172216,-0.121558l-0.13498,-0.098182Z M42.705628,351.631437l0.046545,-0.07948h0.051199l0.051199,0.07013v0.065454l-0.083781,0.009351l-0.065163,-0.065454Z M44.497602,351.73897l0.009309,-0.032727l0.13498,-0.023377l0.200143,0.051428l-0.009309,0.037403l-0.148943,0.009351l-0.186179,-0.042078Z M44.613964,351.879229l0.032581,-0.028052h0.032581l0.027927,0.032727l-0.023272,0.018701l-0.032581,-0.004675l-0.037236,-0.018701Z M44.740799,351.362607l0.034909,-0.056104h0.12218l0.223415,0.067792l0.074472,0.056104l0.013963,0.112208l0.079126,0.042078l0.13498,-0.018701l0.074472,0.028052l-0.009309,0.051428l-0.111707,0.093506l-0.051199,-0.004675l-0.069817,-0.051428h-0.130325l-0.04189,0.028052l-0.097744,-0.023377l-0.186179,-0.191688l-0.023272,-0.065454l-0.036072,-0.067792Z M42.408905,350.962867l0.013963,-0.056104l0.076799,-0.014026l0.017454,-0.042078l-0.038399,-0.094675l0.066326,-0.091169l0.191997,0.003506l0.499193,0.175324l0.034909,0.084156l0.198979,0.073636l0.143125,-0.028052l0.251342,-0.003506l0.073308,0.045584l0.017454,0.084156l0.111707,0.080649l0.083781,0.007013l0.097744,0.063117l0.010473,0.241948l0.104726,0.087662l-0.003491,0.031558l-0.101235,0.007013l-0.296723,-0.091169l-0.083781,-0.052597l-0.059345,-0.003506l-0.006982,0.031558l0.076799,0.084156l-0.010473,0.028052l-0.08029,-0.021039l-0.055854,-0.063117l-0.125671,0.003506l0.006982,0.045584l0.178034,0.115714l-0.017454,0.024545l-0.230397,-0.087662l-0.055854,-0.077143l-0.087271,-0.038571l-0.094253,0.021039l-0.136143,-0.042078l-0.321159,-0.154285l-0.101235,-0.010519l-0.108217,-0.063117l-0.174543,-0.18935l-0.024436,-0.05961l-0.04189,-0.056104Z M5.057387,364.268635l-0.035559,0.038024l0.070366,0.058799l0.081809,-0.005226l0.024883,-0.054026l-0.049814,-0.056404l-0.091685,0.018834Z M0.498842,365.00409l0.053002,-0.038192l-0.012749,-0.028601l-0.069551,0.015417l-0.036565,0.035795l0.011207,0.025897l0.054655,-0.010316Z M2.160916,364.148714l-0.009595,0.048371l0.028006,0.014228l0.073973,-0.063887l0.008572,-0.037007l-0.032126,-0.012003l-0.06883,0.050298Z M0,366.187772l0.004654,0.032987l0.111707,-0.01885l0.26996,-0.122522l0.148943,-0.122522l-0.027927,-0.028274l-0.17687,0.037699l-0.144289,0.131947l-0.186179,0.089535Z M9.666188,359.635206l-0.045381,-0.084823l-0.055854,-0.017671l-0.090762,0.017671l-0.464284,-0.007069l-0.439848,-0.109563l-0.104726,-0.077754l0.006982,-0.07422l-0.04189,-0.063617l-0.167561,-0.060083l-0.12218,0.007069l-0.251342,0.081289l-0.157089,-0.017671l-0.045381,-0.04948l-0.034909,-0.003534l-0.069817,0.070686l-0.139634,0.010603l-0.237378,0.056549l-0.08029,0.053014l-0.345595,0.063617l-0.104726,0.056549l-0.16407,0.176714l-0.342104,0.236797l-0.178034,0.007069l-0.059345,0.042411l-0.031418,0.091891l-0.254833,0.289811l-0.076799,0.053014l-0.055854,0.102494l0.024436,0.1237l0.125671,0.113097l0.020945,0.091891l-0.034909,0.130769l-0.111707,0.155509l-0.111707,0.060083l-0.062835,0.063617v0.063617l0.139634,0.060083l0.153598,0.007069l0.094253,0.02474l0.052363,0.063617l-0.017454,0.088357l0.048872,0.042411l0.097744,0.003534l0.059345,0.053014v0.060083l-0.038399,0.014137l-0.024436,0.042411l0.003491,0.091891l-0.045381,0.070686l-0.090762,0.010603l-0.094253,-0.045946l-0.157089,-0.014137l-0.160579,0.060083l-0.087271,-0.014137l-0.04189,-0.081289l-0.087271,-0.063617l-0.118689,0.010603l-0.146616,0.127234l-0.198979,0.053014l-0.230397,-0.028274l-0.115198,-0.113097l-0.132653,-0.04948l-0.073308,0.028274l-0.003491,0.070686l-0.111707,0.155509l-0.171052,0.109563l-0.178034,0.007069l-0.045381,0.028274l-0.027927,0.088357l-0.108217,0.109563l-0.261814,0.127234l-0.108217,0.120166l-0.027927,0.09896l-0.052363,0.060083l-0.125671,0.063617l-0.024436,0.109563l0.027927,0.07422l-0.003491,0.077754l-0.055854,0.095426l0.020945,0.067151l0.143125,0.060083l0.125671,0.09896l0.006982,0.106029l-0.139634,0.250934l-0.12218,0.113097l-0.219924,0.102494l-0.076799,-0.021206l-0.076799,0.028274l-0.073308,0.113097l-0.003491,0.088357l0.08029,0.070686l0.006982,0.056549l-0.038399,0.109563l0.003491,0.045946l0.076799,0.035343v0.081289l-0.034909,0.045946l-0.097744,0.003534l-0.12218,0.031809l-0.097744,0.053014l-0.087271,0.003534l-0.094253,-0.045946h-0.143125l-0.059345,0.056549l-0.038399,0.109563l0.024436,0.045946l0.069817,0.021206l0.013963,0.081289l-0.034909,0.130769l-0.069817,0.081289l-0.237378,0.060083l-0.139634,0.010603l-0.125671,-0.021206l-0.108217,0.014137l-0.006982,0.042411l0.04189,0.021206l0.069817,0.003534l0.055854,-0.017671l0.017454,0.014137l-0.024436,0.031809l-0.087271,0.045946l-0.073308,0.134303l-0.052363,0.02474l-0.083781,-0.007069l-0.104726,0.014137l-0.062835,0.038877l-0.031418,0.070686l0.024436,0.014137l0.038399,-0.021206l0.027927,-0.04948l0.090762,-0.017671l0.188506,-0.003534l0.062835,-0.038877l0.027927,-0.09896l0.132653,-0.130769l0.083781,-0.007069l0.143125,0.02474l0.28276,-0.084823l0.492211,-0.275674l0.038399,-0.088357l0.076799,-0.038877l0.094253,0.010603l0.104726,-0.031809l0.055854,-0.060083l0.08029,0.003534l0.083781,0.1237l0.097744,0.014137l0.136143,-0.02474l0.017454,-0.060083l-0.048872,-0.084823l-0.12218,-0.063617l-0.045381,-0.07422l0.031418,-0.063617l0.090762,-0.045946l0.111707,0.010603l0.076799,0.04948h0.111707l0.031418,-0.028274l0.034909,-0.077754l0.052363,-0.028274l0.08029,0.031809l0.034909,0.07422h0.038399l0.003491,-0.056549l-0.013963,-0.067151l0.059345,-0.053014l0.139634,-0.028274l0.20247,-0.176714l0.20247,-0.254469l0.178034,-0.063617l0.230397,-0.014137l0.073308,-0.042411l0.062835,-0.067151l0.062835,-0.017671l0.027927,0.021206l-0.006982,0.053014l0.013963,0.014137l0.045381,-0.014137l0.045381,-0.077754l0.108217,-0.042411l0.073308,-0.077754l0.087271,-0.187317l0.20247,-0.261537l0.115198,-0.109563l0.136143,-0.031809l0.038399,-0.053014l0.003491,-0.137837l-0.027927,-0.1237l0.010473,-0.042411l0.038399,-0.003534l0.104726,0.081289h0.038399l0.031418,-0.127234l-0.024436,-0.063617l0.045381,-0.077754l0.104726,-0.053014l0.003491,-0.021206l-0.055854,-0.038877l0.013963,-0.04948l0.171052,-0.127234l0.059345,-0.084823l0.212942,-0.14844l0.457302,-0.120166l0.027927,-0.045946l0.006982,-0.060083l0.062835,-0.035343l0.275778,-0.042411l0.087271,0.021206l0.090762,-0.017671l0.181525,-0.081289l0.132653,-0.021206l0.321159,-0.134303l0.087271,-0.091891l0.352577,-0.190851l0.185016,-0.042411l0.094253,-0.04948l0.052363,-0.063617l0.087271,-0.031809l0.104726,-0.031809l0.153598,-0.127234l0.034909,-0.14844l-0.020945,-0.102494l-0.139634,-0.166111l0.017454,-0.09896l0.432866,-0.356963l0.055854,-0.134303l-0.013963,-0.116631Z M8.001048,355.747491l0.073308,0.042411l-0.003491,0.109563l-0.038399,0.010603l-0.101235,-0.077754l-0.013963,-0.053014l0.027927,-0.031809h0.055854Z "/>
</svg>
