<svg xmlns="http://www.w3.org/2000/svg" viewBox="59.482 601.863 36.015 22.929">
  <path d="M87.168208,619.206656l0.111022,-0.432698l0.462592,-0.468757l0.259052,-0.036058l0.4996,-0.703135l0.166533,-0.090145l0.074015,-0.342553l-0.481096,-0.59496l-0.092518,-0.631018l0.222044,-0.414669l0.277555,-0.036058l0.536607,0.234378l0.370074,0.378611l0.277555,0.108175l0.407081,0.288466l0.277555,-0.018029l0.962192,0.324524l0.999199,0.486786l0.85117,0.721164l0.314563,0.378611l-0.055511,0.757222l0.111022,0.126204l0.333066,-0.108175l0.203541,0.072116l0.074015,0.306495v0.306495l0.444089,0.39664l0.444089,0.270436l0.240548,0.054087l0.037007,0.270436l-0.240548,0.270436l-0.629126,0.450727l-0.333066,0.324524l-0.555111,0.216349l-0.462592,0.270436l-0.481096,0.090145l-0.277555,-0.072116l-0.259052,0.036058l-0.4996,0.414669l-0.388578,0.19832l-0.203541,0.19832l-0.35157,0.090145l-0.277555,0.360582v0.180291l-0.271387,0.366592l-0.024672,0.144233l-0.086351,0.072116l-0.098686,0.048078l-0.185037,0.252407l-0.14803,0.072116l-0.086351,-0.024039l-0.049343,-0.19231l-0.912849,-0.516834l-0.197373,-0.012019l-0.209709,-0.180291l-0.160365,-0.288466v-0.504815l0.209709,-1.057707l-0.037007,-0.276446l-0.231296,-0.697125l0.058595,-0.120194l-0.067847,-0.051082h-0.10177l-0.044879,-0.036547l-0.143241,-0.381127v-0.300485l-0.185037,-0.312504l-0.172701,-0.048078l-0.074015,-0.132213v-0.144233l-0.14803,-0.312504Z M83.01906,613.815564l0.11992,0.036058l0.184492,-0.027044l0.138369,-0.054087l0.202942,0.027044l0.147594,-0.045073l0.147594,-0.009015l0.036898,-0.090145l-0.110695,-0.081131l0.055348,-0.19832l-0.027674,-0.144233l-0.156819,-0.081131l-0.156819,0.045073l-0.332086,0.225364l-0.175268,0.045073l-0.147594,0.135218l-0.027674,0.126204l0.101471,0.090145Z M81.653816,612.219989l0.156819,-0.108175l0.110695,-0.009015l0.110695,-0.045073l0.184492,-0.29748v-0.126204l-0.083022,-0.090145l-0.046123,-0.108175l-0.433557,-0.39664l-0.249065,-0.09916l-0.276739,-0.009015l-0.129145,-0.045073l-0.285963,0.018029l-0.175268,0.09916l-0.046123,0.144233l0.092246,0.171276l0.285963,0.117189l0.129145,0.243393l-0.046123,0.180291l0.046123,0.216349l0.166043,0.171276l0.488905,-0.027044Z M79.255414,609.813105l0.627274,-0.027044l0.341311,-0.081131l0.332086,0.009015l0.276739,0.09916l0.230616,0.117189l0.461231,0.072116l0.129145,0.072116l0.166043,-0.009015l0.350536,-0.117189l0.405883,-0.243393l0.249065,-0.333538l-0.036898,-0.063102l-0.092246,-0.009015l-0.036898,-0.090145l-0.061497,-0.027044l-0.313637,0.00601l-0.390509,0.09315l-0.267514,-0.018029l-0.322862,-0.072116l-0.083022,-0.207335l-0.110695,-0.072116l-0.073797,0.045073l-0.009225,0.144233l-0.110695,0.054087l-0.202942,-0.045073l-0.193717,-0.009015l-0.202942,-0.063102l-0.608825,-0.045073l-0.092246,-0.081131l-0.078409,-0.027044l-0.147594,0.004507l-0.124532,-0.04958l-0.055348,0.063102l0.064572,0.108175l-0.064572,0.180291l-0.175268,0.144233l-0.1103,0.194018l-0.064968,0.175579l0.092246,0.063102l0.304413,0.045073Z M76.192839,608.578111l0.036898,0.036058l0.076872,-0.027044l0.049198,-0.096155l0.206017,-0.124701l0.032286,-0.108175l-0.287501,-0.193813l-0.104546,-0.150242l0.043048,-0.144233l-0.104546,-0.138223l-0.135294,-0.084136l-0.018449,-0.132213l0.055348,-0.096155l0.079947,-0.054087l-0.018449,-0.060097h-0.055348l-0.086096,0.048078l-0.122995,-0.042068l-0.073797,0.030048v0.072116l0.079947,0.048078l0.012299,0.060097l-0.049198,0.102165h-0.098396l-0.135294,-0.108175l-0.092246,-0.156252l-0.141444,-0.102165l-0.018449,-0.120194l-0.073797,-0.138223l0.036898,-0.042068h0.079947l0.049198,-0.078126l-0.036898,-0.144233l-0.104546,-0.138223l-0.073797,-0.00601l-0.061497,0.036058l-0.049198,-0.018029l0.012299,-0.102165l-0.141444,-0.222359l-0.073797,-0.042068l-0.073797,-0.102165l0.00615,-0.138223l-0.25214,-0.40866l-0.172193,-0.054087l-0.23984,0.120194l-0.282888,0.264427l-0.018449,0.120194l-0.24599,0.246398l-0.024599,0.084136l-0.147594,0.084136l-0.227541,0.012019l-0.221391,-0.018029l-0.258289,0.018029l-0.295188,0.018029l0.00615,0.048078l0.227541,0.138223l0.086096,0.096155l0.024599,0.114184l-0.024599,0.240388l0.049198,0.084136l0.172193,0.156252l0.116845,0.19231l0.012299,0.138223l0.036898,0.048078l0.116845,0.054087l0.116845,0.156252l0.030749,0.210339l0.116845,0.216349l0.098396,0.072116l0.282888,-0.018029l0.528878,-0.126204l0.027674,-0.103667l-0.050735,-0.103667l-0.253677,-0.094653l-0.013837,-0.04958l0.064572,-0.018029l0.055348,0.027044l0.032286,0.04958l0.129145,0.045073l0.027674,0.04958l0.018449,-0.031551l-0.023062,-0.108175l-0.078409,-0.063102l0.013837,-0.040565l0.050735,0.004507l0.032286,0.04958l0.041511,-0.004507l0.050735,-0.058595l0.078409,0.009015l0.036898,0.076624l-0.050735,0.067609l-0.087634,0.054087l-0.027674,0.045073l-0.004612,0.090145l0.032286,0.072116l0.078409,0.040565l0.101471,0.004507l0.023062,0.031551l-0.101471,0.009015l-0.013837,0.036058l0.272126,0.009015l0.009801,-0.029156l-0.009801,-0.029438l-0.073797,-0.004507l0.013837,-0.036058l0.152206,-0.09916l0.023062,0.031551l-0.018449,0.04958l0.032286,0.036058l0.064572,-0.004507l0.087634,0.067609l-0.013837,0.067609l0.267514,0.139726l0.032286,0.09916l0.087634,0.045073l0.133757,-0.013522l0.133757,-0.117189l0.124532,-0.009015l0.184492,-0.058595l0.078409,0.054087v0.045073l-0.009225,0.040565Z M76.583348,608.154428l0.049198,-0.012019v-0.048078l-0.055348,-0.018029l-0.036898,0.042068l0.043048,0.036058Z M75.039761,608.316689l0.032286,0.031551l0.046123,0.009015l0.009225,-0.067609l-0.064572,-0.040565l-0.032286,0.027044l0.009225,0.040565Z M74.504733,607.920049h0.036898l0.046123,-0.045073l0.009225,-0.036058l-0.046123,-0.013522l-0.055348,0.054087l0.009225,0.040565Z M76.112892,607.150808l0.021524,-0.027044l-0.003075,-0.024039l-0.024599,0.003005l-0.009225,0.036058l0.015374,0.012019Z M76.238962,607.664637l0.024599,-0.015024l0.00615,-0.024039l-0.030749,-0.009015l-0.021524,0.027044l0.021524,0.021034Z M76.28816,607.706705l0.027674,-0.00601l0.00615,-0.024039l-0.027674,-0.00601l-0.021524,0.012019l0.015374,0.024039Z M74.924021,608.262039v0.026339l0.024503,0.009578l0.007351,-0.019156l-0.012251,-0.028734l-0.019602,0.011972Z M83.108231,611.405675l0.202942,0.186301l0.049198,0.090145l0.061497,0.054087h0.110695l0.141444,0.102165l0.110695,0.012019l0.166043,0.114184l0.067647,0.012019l0.092246,-0.036058l0.055348,-0.102165l0.104546,-0.024039l0.141444,0.066107l0.067647,0.090145l0.012299,0.186301l0.086096,0.210339l-0.012299,0.102165l0.043048,0.330533l-0.055348,0.096155v0.084136l0.073797,0.036058l-0.00615,0.102165l0.043048,0.066107l0.073797,-0.00601l0.061497,0.024039l-0.00615,0.078126l0.067647,0.042068l0.23369,0.036058l0.141444,-0.060097l0.209091,0.012019l0.190642,-0.024039l0.571927,-0.282456l0.110695,-0.012019l0.092246,0.036058l0.264439,-0.012019l0.129145,-0.096155l0.098396,-0.012019l0.104546,-0.060097l0.141444,0.024039l0.110695,-0.078126l0.030749,-0.090145l0.073797,-0.084136l0.122995,-0.030048l0.122995,-0.156252l0.055348,-0.330533l-0.036898,-0.162262l-0.227541,-0.168272l-0.178343,-0.030048l-0.227541,-0.132213h-0.147594l-0.122995,-0.084136l-0.024599,-0.108175l-0.122995,-0.066107l-0.104546,-0.012019l-0.405883,-0.39063l-0.190642,-0.126204l-0.405883,-0.042068l-0.221391,0.036058l-0.436632,0.20433l-0.325937,0.102165l-0.166043,-0.072116l-0.24599,-0.486786l-0.141444,-0.19832l-0.313637,-0.144233l-0.270589,-0.00601l-0.23369,0.132213l-0.166043,0.378611l-0.024599,0.234378l0.073797,0.264427l0.110695,0.180291Z M60.467365,603.438449l0.073797,-0.037007l-0.027674,-0.064763l-0.083022,0.009252l-0.027674,0.064763l0.064572,0.027756Z M62.616702,603.512463l0.092246,0.178869l0.147594,0.055511l0.110695,0.067847l0.289038,0.037007l0.159893,0.104854l0.049198,0.11719l0.086096,0.104854l0.122995,0.067847l0.043048,0.061679l0.055348,-0.006168v-0.067847l0.055348,-0.012336l0.061497,0.074015l0.362835,0.086351l0.092246,-0.024672l0.153744,0.006168l0.215241,0.086351l0.104546,0.012336l0.209091,-0.123358l0.172193,-0.215876l0.227541,-0.123358v-0.067847l-0.049198,-0.024672l0.030749,-0.055511l0.104546,-0.006168l0.036898,-0.141862l-0.043048,-0.215876v-0.172701l0.049198,-0.141862l0.104546,-0.104854l0.129145,-0.326899l-0.00615,-0.240548l-0.122995,-0.178869l-0.00615,-0.098686l-0.23984,-0.222044l-0.110695,0.006168l-0.209091,-0.111022l-0.110695,0.024672l-0.153744,0.006168l-0.307487,-0.061679l-0.086096,0.061679l0.012299,0.086351l-0.030749,0.061679l-0.073797,0.006168l-0.036898,-0.074015l-0.172193,-0.080183l-0.116845,-0.018504l-0.153744,0.030839l-0.122995,0.11719l-0.116845,0.049343l-0.289038,0.209709l-0.338236,0.092518l-0.098396,0.104854l-0.092246,0.259052l-0.067647,0.092518l-0.166043,0.160365l-0.049198,0.086351l-0.018449,0.240548l0.036898,0.092518l0.073797,0.067847Z M59.701721,605.113033l0.101471,-0.018504l0.027674,-0.185037l0.184492,-0.35157l0.110695,-0.092518l0.258289,-0.037007l0.193717,-0.10177l0.036898,-0.10177l-0.055348,-0.120274l0.027674,-0.157281l0.092246,-0.203541l0.083022,-0.027756l0.018449,-0.092518l-0.092246,-0.092518l-0.166043,-0.009252l-0.11992,0.055511l-0.083022,0.231296l-0.101471,0.111022l-0.368985,0.138778l-0.258289,0.259052l-0.101471,0.323815l-0.009225,0.231296l0.055348,0.138778l0.166043,0.10177Z "/>
</svg>
