<svg xmlns="http://www.w3.org/2000/svg" viewBox="2359.204 259.776 20.821 8.957">
  <path d="M2362.102805,264.774386l-0.251342,0.076799l-0.160579,-0.027927l-0.153598,-0.104726l-0.195488,-0.013963l-0.160579,0.048872l-0.076799,-0.04189v-0.062835l-0.083781,-0.090762l-0.544574,-0.167561l-0.40494,-0.097744l-0.160579,-0.083781l-0.223415,-0.307196l-0.139634,-0.104726l-0.216433,-0.370031l0.027927,-0.139634l-0.020945,-0.111707l-0.125671,-0.153598l-0.006982,-0.083781l0.048872,-0.090762l0.055854,-0.314177l-0.048872,-0.111707v-0.300214l0.132653,-0.230397l0.139634,-0.118689l0.013963,-0.174543l-0.020945,-0.076799l0.013963,-0.083781l0.20247,-0.083781l0.090762,-0.111707l0.027927,-0.167561l-0.048872,-0.160579l0.013963,-0.237378l0.132653,-0.223415l0.020945,-0.188506l-0.097744,-0.188506l-0.034909,-0.188506l0.04189,-0.083781l0.146616,-0.020945l0.328141,0.006982l0.195488,0.174543l0.04189,0.223415l-0.062835,0.181525v0.328141l0.167561,0.20247l1.319545,0.474757l1.172929,0.251342l1.117075,0.251342l0.153598,0.076799l0.251342,0.062835l0.40494,0.04189l0.349086,-0.069817l0.642318,-0.307196l0.698172,-0.460793l0.328141,-0.125671l0.209452,-0.006982l0.265305,0.020945l0.181525,-0.048872l0.069817,-0.153598l0.195488,-0.097744l0.453812,-0.006982l0.460793,0.055854l0.167561,-0.027927l0.300214,0.04189l0.530611,0.314177l0.216433,0.293232l0.223415,0.104726l0.251342,0.013963l0.090762,0.069817l0.160579,0.279269l0.076799,0.335122l-0.006982,0.097744l0.034909,0.083781l0.083781,0.118689l-0.006982,0.118689l-0.055854,0.083781l0.006982,0.146616l0.223415,0.132653l0.453812,0.083781l0.279269,0.097744l0.307196,0.181525l0.300214,0.055854l0.89366,0.062835l0.272287,0.076799l0.377013,0.230397l0.104726,0.195488l0.258324,0.153598l0.418903,0.111707l0.921587,0.055854l0.467775,0.111707l1.005367,0.048872l0.418903,-0.04189l0.93555,0.104726l0.40494,0.181525l0.397958,0.090762l0.453812,0.055854l0.076799,0.055854l-0.020945,0.090762l-0.118689,0.160579l-0.062835,0.377013l-0.069817,0.125671l-0.153598,0.104726l-0.265305,0.418903l-0.342104,0.279269l-0.349086,0.034909l-0.642318,-0.223415l-0.795916,-0.076799l-0.844788,0.034909l-0.761007,0.195488l-0.174543,0.153598l-0.272287,0.349086l-0.174543,0.083781h-0.153598l-0.307196,0.167561l-0.230397,0.28625l-0.090762,0.251342l0.146616,0.279269l0.139634,0.174543l-0.034909,0.062835l-0.300214,0.013963l-0.216433,0.139634l-0.076799,0.111707l-0.006982,0.076799l-0.090762,0.083781l-0.111707,-0.006982l-0.160579,-0.090762l-0.174543,-0.034909l-0.216433,-0.006982l-0.139634,-0.069817l-0.020945,-0.083781l0.076799,-0.076799l-0.006982,-0.139634l-0.24436,-0.523629l-0.481738,-0.600428l-0.642318,-0.460793l-0.307196,-0.076799l-0.139634,-0.090762l-0.076799,-0.090762l-0.111707,-0.062835l-0.425885,-0.125671l-0.139634,0.006982l-0.076799,0.048872l-0.397958,-0.048872l-0.181525,-0.048872h-0.195488l-0.111707,-0.04189l-0.013963,-0.055854l0.062835,-0.090762l-0.083781,-0.251342l-0.453812,-0.572501l-0.607409,-0.453812l-0.740062,-0.335122l-1.263691,-0.390976l-0.998386,-0.258324l-0.89366,-0.062835l-0.453812,0.04189l-0.188506,0.118689l-0.055854,0.069817l-0.20247,0.055854l-0.439848,0.069817l-0.20247,0.097744l-0.04189,0.083781l0.062835,0.104726l-0.020945,0.04189l-0.237378,0.153598l-0.027927,0.076799l-0.083781,0.034909l-0.132653,0.020945l-0.349086,0.167561Z "/>
</svg>
