<svg xmlns="http://www.w3.org/2000/svg" viewBox="2350.828 291.364 5.917 4.958">
  <path d="M2350.907622,291.616455l0.104726,-0.181525l0.108217,-0.069817l0.052363,0.013963l0.027927,0.136143l-0.024436,0.045381l-0.010473,0.048872l0.034909,0.055854l0.003491,0.059345l-0.013963,0.094253l0.013963,0.111707l0.073308,0.104726l-0.003491,0.045381l-0.034909,0.010473l-0.115198,-0.034909l-0.069817,-0.052363l-0.094253,-0.129162l-0.104726,-0.066326l-0.027927,-0.045381l0.003491,-0.066326l0.076799,-0.08029Z M2353.098717,296.291878l-0.004654,0.020945l0.037236,0.009309l0.039563,-0.009309l0.016291,-0.023272l0.011636,-0.039563l0.090762,-0.09309l-0.016291,-0.009309l-0.046545,0.011636l-0.083781,0.083781l-0.018618,0.034909l-0.0256,0.013963Z M2351.139182,293.28974l-0.018618,0.032581l0.037236,0.051199l0.144289,0.032581l0.111707,-0.004654l0.125671,0.04189l0.079126,0.065163l0.09309,0.013963l0.148943,-0.009309l0.121016,0.037236l0.167561,0.172216l0.023272,0.060508l0.344431,0.223415l0.074472,0.074472l0.502684,0.330468l0.107053,0.102399l0.13498,0.167561l0.060508,0.027927l0.069817,0.004654l0.484066,0.209452l0.107053,0.074472l0.027927,0.055854l0.130325,0.060508l0.167561,-0.004654l0.409594,-0.125671l0.051199,-0.027927l0.349086,-0.023272l0.088435,0.018618l0.074472,0.004654l0.097744,-0.023272l0.223415,0.004654l0.330468,0.074472l0.102399,0.060508l0.04189,0.065163l-0.013963,0.051199l0.023272,0.051199l0.065163,0.065163l0.088435,0.023272l0.228069,-0.013963l0.204797,-0.13498l-0.004654,-0.027927l-0.051199,-0.04189l-0.083781,-0.027927l-0.046545,0.004654l-0.102399,-0.04189l-0.386322,-0.242033l-0.377013,-0.255996l-0.04189,-0.065163l0.004654,-0.023272l-0.051199,-0.037236l-0.214106,-0.046545l-0.060508,0.004654l-0.065163,0.065163l-0.214106,0.027927l-0.260651,0.018618l-0.372358,-0.074472l-0.237378,-0.074472l-0.153598,-0.088435l-0.502684,-0.232724l-0.409594,-0.172216l-0.083781,-0.051199l-0.097744,-0.111707l-0.255996,-0.186179l-0.097744,-0.027927l-0.237378,-0.167561l-0.130325,-0.162907l-0.051199,-0.144289l-0.083781,-0.144289l-0.069817,-0.079126l-0.023272,-0.069817l0.055854,-0.097744l0.051199,-0.051199l0.027927,-0.116362l-0.027927,-0.088435l0.013963,-0.037236l-0.027927,-0.018618l-0.186179,-0.013963l-0.074472,0.032581l-0.09309,0.162907l-0.046545,0.051199l-0.115198,0.053526l-0.013963,0.024436l0.027927,0.020945l0.024436,-0.003491l0.027927,0.024436v0.034909l-0.04189,0.024436l-0.153598,-0.017454l-0.160579,0.010473l-0.020945,0.04189l0.006982,0.04189l0.020945,0.031418l-0.003491,0.038399l-0.038399,0.020945h-0.059345l-0.003491,0.017454l0.038399,0.027927l0.020945,0.052363l-0.006982,0.048872l-0.031418,0.069817l-0.006982,0.055854l0.048872,0.062835l-0.003491,0.038399l-0.04189,0.038399l-0.05469,0.004654Z "/>
</svg>
