<svg xmlns="http://www.w3.org/2000/svg" viewBox="1486.712 427.572 113.702 66.186">
  <path fill-rule="evenodd" d="M1486.798373,461.76803l-0.086,-29.425l16.982,-4.771l2.701,1.85l10.398,5.736l3.182,2.183l0.296,0.092l0.204,1.073l1.961,1.85l3.737,3.867l1.591,-0.092l7.364,-1.073l3.404,0.425l4.459,0.241l2.664,-1.332l0.462,0.148l1.222,1.776l2.275,1.387l0.241,0.259l1.165,2.257l0.685,1.11l1.665,-0.592v3.072l-0.148,1.794l-0.426,-0.166v3.367l3.46,0.481l0.759,4.218l0.444,1.61l1.9,0.03l0.111,0.047h1.987l0.335,0.055l1.337,-0.316l0.734,-0.009l0.362,-0.121l0.864,0.391l0.167,-0.13l0.473,-0.01l0.14,0.483l-0.019,0.464l0.056,0.065l0.186,0.01l0.046,-0.121l0.177,-0.084l0.092,-0.213l0.121,-0.009l0.214,0.13l0.093,0.13l-0.075,0.083l-0.176,-0.028l-0.251,0.149l0.028,0.074l0.121,0.084l-0.019,0.399l0.112,0.074l-0.038,0.084l-0.102,0.037l-0.12,0.232l-0.372,0.307l-0.158,-0.019l-0.037,0.075l0.074,0.139l0.27,0.223l0.353,0.074l0.51,0.492l0.437,0.325l0.576,0.27l0.399,0.26l0.232,0.018l0.121,0.037l0.148,0.14l0.233,0.037l0.055,0.111l0.065,0.009l0.121,-0.046l0.306,0.009l0.103,0.065h0.176l0.214,-0.195l0.12,-0.018l0.028,-0.084l-0.204,-0.13l-0.009,-0.083l0.12,-0.093l0.065,-0.27l-0.13,-0.139l-0.287,-0.102l-0.047,-0.567l-0.139,-0.204l0.009,-0.269l0.139,-0.102l0.019,-0.205l-0.065,-0.176l-0.028,-0.167l-0.149,-0.149l-0.13,0.019l-0.083,-0.037l-0.074,-0.112h-0.195l-0.038,-0.083l0.149,-0.075l0.111,-0.232l0.112,-0.037l0.167,0.046l0.13,-0.009l0.139,-0.158l0.093,0.028l0.019,0.223l0.111,0.056l0.195,-0.019l0.075,0.056l-0.028,0.065l-0.177,0.046l-0.037,0.084l0.056,0.139l0.102,0.009l0.102,-0.12l0.186,-0.056l0.121,0.019l0.185,-0.075l0.103,-0.26l-0.065,-0.046l-0.112,-0.01l-0.121,-0.13l0.01,-0.148l0.585,-0.557l0.613,-0.353l0.102,-0.149l0.13,-0.083l0.204,-0.065l0.186,-0.14l-0.028,-0.111l0.074,-0.047l0.121,0.093l0.093,-0.065l0.056,-0.176l-0.13,-0.158l0.009,-0.149l0.121,-0.111l0.027,-0.251l-0.102,-0.121l0.047,-0.102l0.223,-0.055l0.074,0.12l0.093,0.01l0.083,-0.168l0.149,-0.102l0.144,0.042l0.097,-0.088l-0.034,-0.149l0.041,-0.139l0.39,-0.188l0.223,0.035l0.272,0.139l0.111,-0.014l0.223,-0.174l0.209,-0.021l0.411,0.028l0.077,-0.042l0.007,-0.104l-0.195,-0.133h-0.133l-0.041,-0.083l0.264,-0.362l0.154,-0.042l0.181,0.125l0.202,-0.035l0.146,-0.118l0.042,-0.174l0.236,-0.362l0.286,-0.188l0.488,-0.119l0.125,-0.139l0.216,-0.035l0.111,0.042l0.126,-0.021l0.104,-0.105l0.244,-0.069l0.209,0.062l0.223,0.007l0.327,-0.202l0.112,-0.292l0.181,-0.139l0.104,-0.007l0.042,0.083l0.097,0.014l0.363,-0.32l0.055,-0.126l0.209,-0.062l0.14,0.028l0.16,-0.14l0.056,-0.223l0.243,-0.243l0.028,-0.147l0.321,-0.195l0.299,-0.048l0.077,-0.119l-0.007,-0.265l-0.063,-0.104l0.049,-0.118l0.271,-0.175h0.209l0.244,-0.16l0.084,0.007l0.076,-0.035l0.014,-0.097l0.098,-0.028l0.265,0.139l0.174,0.174l0.041,0.175l-0.014,0.104l0.175,0.167l0.181,0.021l0.188,-0.084l0.076,-0.278l0.175,-0.251l0.02,-0.125l0.091,-0.153l0.181,-0.133l0.153,-0.23l0.007,-0.139l0.174,-0.146l0.314,-0.014l0.09,0.056l0.154,-0.021l0.397,-0.23l0.188,-0.244l0.16,0.063h0.195l0.083,-0.098l-0.006,-0.097l0.111,-0.119h0.237l0.069,0.07l0.175,0.056l0.174,-0.014l0.459,0.264l0.056,0.112l0.091,0.056l0.111,-0.035l0.105,0.049l0.09,0.132l0.028,0.09l-0.111,0.105v0.111l-0.168,0.202l-0.139,0.021l-0.153,-0.028l-0.181,0.035l-0.279,0.188l-0.056,0.119l-0.097,0.076l-0.132,0.014l-0.342,0.209l-0.104,0.188l-0.14,0.049l-0.285,-0.014l-0.383,-0.153l-0.105,0.021l-0.014,0.153l-0.076,0.083l-0.042,0.154l0.077,0.118l0.014,0.272l-0.112,0.181l-0.16,0.028l-0.251,-0.098l-0.097,0.014l-0.035,0.132l-0.084,0.028l-0.09,-0.048l-0.237,0.007l-0.188,0.104l-0.244,0.39l-0.118,0.028l-0.084,0.097l0.021,0.105l-0.063,0.07l-0.174,0.027l-0.258,0.133l-0.104,0.174l-0.028,0.292l-0.083,0.119l-0.189,0.028l-0.292,0.209l-0.132,0.034l-0.119,0.091l-0.104,0.195l-0.167,0.098l-0.237,0.048l-0.272,0.181l-0.153,-0.041l-0.16,0.021l-0.042,0.076l0.042,0.105l-0.042,0.09l-0.112,0.049l-0.069,0.097l0.021,0.119l-0.021,0.104l-0.063,0.056l0.014,0.084l0.188,0.041l0.091,0.084l0.174,0.028l0.188,-0.07l0.104,-0.125l0.119,0.007l0.104,0.09l0.174,0.084l0.084,0.007l0.083,0.056l0.007,0.09l0.063,0.049l0.077,-0.014l0.111,0.042l0.098,0.118l0.243,0.195l0.028,0.133l0.126,0.069l0.348,-0.069l0.16,-0.147l0.042,-0.125l0.16,-0.119h0.265l0.258,-0.097l0.25,0.014l0.056,0.056v0.097l0.23,0.341l0.146,0.147l0.028,0.473l-0.07,0.077l-0.014,0.097l0.056,0.084l-0.007,0.125l-0.049,0.105l0.014,0.237l0.091,0.048l0.167,-0.034l0.139,-0.14h0.154l0.132,0.105l0.056,0.125l0.32,0.223l0.035,0.105l0.16,0.076l0.195,-0.069l0.139,-0.112l0.181,0.007l0.223,0.091l0.258,0.243l0.118,-0.007l0.063,-0.216l0.077,-0.041l0.055,0.041l0.077,-0.02l0.021,-0.105l0.104,-0.021l0.328,0.056l0.209,0.111l0.042,0.244l0.076,0.105l0.126,-0.007l0.048,-0.209l0.077,-0.007l0.181,0.23l0.146,0.027l0.084,0.091l0.118,-0.014l0.251,-0.265l-0.014,-0.146l-0.083,-0.07l-0.014,-0.118l0.146,-0.111l0.007,-0.133l-0.098,-0.139l0.014,-0.209l-0.055,-0.084l0.034,-0.125l0.154,-0.111l0.104,0.014l0.063,0.069l0.411,0.021l0.23,-0.09l0.167,-0.328h0.055l0.021,0.07l0.07,-0.007l0.167,-0.327l-0.056,-0.084l0.014,-0.084l0.126,-0.048l0.007,-0.133l-0.084,-0.327l-0.097,-0.098l-0.188,0.056l-0.063,-0.035l0.056,-0.076l0.271,-0.028l0.126,-0.112l0.083,-0.167l0.167,-0.139l0.112,0.007l0.049,0.076l-0.077,0.063l-0.028,0.063l0.035,0.104l-0.056,0.202l0.028,0.077l-0.028,0.09l-0.118,0.049l-0.084,0.16l-0.007,0.112l0.112,0.125l0.104,-0.014l0.035,-0.083l-0.049,-0.105l0.042,-0.069l0.153,0.097l0.126,-0.014l0.09,-0.132l0.084,0.007l0.041,0.083l-0.034,0.091l0.139,0.209l0.125,0.035l0.049,0.09l-0.056,0.112l0.042,0.069l0.119,0.007l0.097,-0.062h0.084l0.055,0.097l-0.055,0.091l0.104,0.188l0.132,0.083v0.091l-0.125,0.139l-0.007,0.133l0.056,0.097l0.007,0.084l-0.139,0.125l-0.021,0.293l0.076,0.111l0.23,0.111l0.119,0.007l0.083,-0.076l0.237,0.007l0.125,0.118l0.188,0.042l0.098,0.09l0.111,0.014l0.112,-0.097l0.083,-0.146l0.328,-0.098l0.069,0.042l-0.014,0.118l-0.097,0.056l-0.021,0.077l0.209,0.125l0.23,0.411l-0.007,0.188l-0.16,0.181l-0.105,-0.021l-0.042,0.084l0.049,0.076l0.112,0.021l0.111,-0.076l0.39,-0.042l0.209,-0.181l0.244,-0.077l0.076,-0.111l0.077,-0.007l0.195,0.188l0.181,0.021l0.091,-0.063l0.223,0.084l0.229,0.243l-0.02,0.14l0.076,0.048l0.265,0.035l0.167,0.119l0.202,0.32v0.139l-0.091,0.091l0.007,0.084l0.147,0.062l0.257,0.007l0.286,0.133l0.432,0.027l0.292,-0.097l0.321,-0.007l0.264,0.125l0.168,0.195l0.229,0.098l0.112,-0.035l0.153,-0.181l0.286,-0.132l0.613,0.02l0.153,0.056l0.056,0.146l-0.063,0.133l0.042,0.056l0.111,-0.063l0.063,0.049l0.007,0.083l0.209,0.098l0.035,0.09l-0.07,0.063l-0.167,-0.028l-0.105,-0.09h-0.139l-0.07,0.097l0.098,0.16l-0.014,0.119l-0.084,-0.007l-0.104,-0.14l-0.049,-0.16l-0.16,-0.035l-0.042,0.098h-0.056l-0.048,-0.084l-0.265,-0.035l-0.216,0.035l-0.3,0.244l-0.222,0.111l-0.223,0.007l-0.098,0.07l0.014,0.16l-0.097,0.098h-0.251l-0.112,0.083l-0.014,0.133l-0.195,0.202l-0.041,0.16l0.055,0.174l-0.055,0.042l-0.091,-0.084l-0.125,-0.028l-0.049,0.077l-0.063,-0.007l-0.048,-0.097l-0.119,-0.007l-0.056,0.083l0.014,0.418l-0.097,0.125l-0.174,-0.007l-0.3,-0.167h-0.111l-0.3,-0.076l-0.111,-0.174h-0.07l-0.049,0.104l-0.104,-0.007l-0.153,-0.153l-0.098,-0.188l-0.125,-0.133h-0.139l-0.098,0.091l-0.16,-0.007l-0.014,0.056l0.146,0.139l0.265,0.146l0.021,0.147l-0.209,0.153l0.007,0.076l0.188,0.063l0.118,0.181v0.16l-0.097,0.091l-0.07,0.202l0.049,0.153l-0.049,0.063l-0.216,-0.035l-0.362,-0.334l-0.077,0.007l-0.083,0.065h-0.084l-0.06,-0.028l-0.028,-0.088l-0.121,-0.056l-0.023,-0.07l0.037,-0.088l-0.079,-0.06l-0.237,-0.01l-0.041,0.038l-0.065,-0.014l-0.024,-0.089l-0.06,0.005l-0.07,0.084l-0.134,0.074l-0.288,0.251l-0.005,0.06l0.065,0.023l0.005,0.056l-0.088,0.06l-0.005,0.065l-0.102,0.089l-0.121,0.032l-0.116,0.102l-0.051,0.093l-0.283,0.237l-0.191,0.083l-0.009,0.084l0.19,0.153l0.256,0.01l0.102,0.051l0.005,0.069l-0.117,0.084l-0.078,0.018l-0.075,-0.055l-0.088,-0.005l-0.06,0.088l-0.107,0.051l-0.121,-0.009l-0.032,0.037l0.092,0.056l-0.018,0.037l-0.121,0.019l-0.088,-0.037l-0.06,-0.089l-0.154,-0.041l-0.162,0.004l-0.214,0.051l-0.06,0.098l0.018,0.167l0.047,0.051l-0.033,0.056l-0.125,0.009l-0.074,0.042l-0.051,0.083l-0.103,0.056l-0.181,0.014l-0.111,0.107l-0.019,0.121l-0.037,0.018l-0.051,-0.079l-0.009,-0.125l-0.065,-0.051l-0.098,-0.005l-0.195,-0.144l0.037,-0.032l0.13,0.055l0.07,-0.055l-0.028,-0.116v-0.079l0.033,-0.065l-0.023,-0.084l-0.107,-0.074l-0.051,-0.098l-0.172,-0.018l-0.047,0.051h-0.051l-0.055,-0.033l-0.047,0.037l0.005,0.214l0.069,0.125l-0.041,0.089l-0.116,0.009l-0.084,-0.07l-0.107,-0.009l-0.051,0.028l-0.237,-0.07l-0.079,-0.005l-0.069,-0.051l-0.033,-0.181l0.051,-0.111l-0.088,-0.079l-0.186,0.028l-0.264,-0.07l-0.167,-0.088l-0.112,-0.121l-0.116,0.019l-0.135,-0.061l-0.195,0.005l-0.116,0.037l-0.083,-0.051l0.023,-0.116l-0.107,-0.056h-0.097l-0.042,0.07h-0.065l-0.121,-0.084l-0.232,-0.014l-0.237,0.056l-0.084,0.005l-0.06,-0.014l-0.088,0.009l-0.39,0.316l-0.218,0.037l-0.07,-0.032h-0.088l-0.102,0.065h-0.084l-0.084,-0.024l-0.06,0.024v0.125l0.102,0.074l0.056,0.098l0.006,0.183l-0.216,0.035l-0.544,-0.007l-0.163,0.091l-0.523,0.16l-0.125,0.003l-0.111,-0.017h-0.154l-0.32,0.076l-0.16,-0.007l-0.167,-0.111l-0.185,-0.226l-0.066,-0.174l0.01,-0.31l-0.083,-0.175l0.003,-0.073l0.108,-0.104v-0.056l-0.118,-0.097l-0.523,-0.007l-0.278,-0.126l-0.052,-0.073l-0.077,-0.017l-0.038,0.038l-0.056,-0.007l-0.049,-0.052l-0.059,-0.025l-0.056,0.021l-0.066,-0.021l-0.104,-0.16l-0.091,-0.083l-0.073,-0.223l-0.004,-0.08l0.07,-0.07l0.345,-0.087l0.271,-0.157l0.119,-0.038l0.146,0.003l0.084,-0.048l0.132,-0.185l0.038,-0.136l0.098,-0.059l0.219,-0.01l0.192,-0.094l0.157,-0.143l0.135,-0.254l0.074,-0.063l0.08,-0.007l0.066,-0.045l0.076,-0.112l0.171,-0.122h0.091l0.055,0.049l0.06,-0.003l0.027,-0.06l-0.048,-0.083l0.007,-0.08l0.059,-0.049l0.125,-0.017l0.08,-0.07l0.021,-0.073l0.042,-0.049l0.066,-0.007l0.042,-0.077l-0.052,-0.111l-0.206,-0.143l-0.533,-0.157l-0.041,-0.052l-0.004,-0.278l0.049,-0.011l0.038,0.066l0.122,0.108l0.084,0.007l0.062,-0.035l0.007,-0.055l-0.174,-0.181l-0.146,-0.053l-0.206,-0.198l-0.017,-0.087l-0.115,-0.153l-0.097,-0.049l-0.056,-0.052l-0.007,-0.108l-0.108,-0.202l-0.077,-0.018l-0.052,-0.055l0.004,-0.063l-0.088,-0.084l-0.118,-0.017l-0.084,-0.063l-0.038,-0.136l-0.056,-0.069l-0.069,-0.021l-0.066,-0.052l-0.032,-0.091l-0.055,-0.049l-0.049,-0.003l-0.039,0.042l-0.048,-0.004l-0.028,-0.042l-0.066,-0.003l-0.066,0.052l-0.133,0.01l-0.097,0.074l-0.035,0.083l-0.07,0.056l-0.014,0.111l0.066,0.161v0.17l-0.08,0.063l-0.017,0.063l0.045,0.142l-0.056,0.154l-0.365,0.121l-0.119,0.067l-0.097,0.017l-0.066,0.063l-0.042,0.094l-0.317,0.188l-0.136,0.024l-0.125,-0.049h-0.174l-0.185,0.108l-0.083,0.216l-0.108,0.063l-0.147,0.192l-0.076,0.038h-0.15l-0.056,0.066l-0.069,0.011l-0.077,0.048l-0.233,-0.007l-0.108,0.091l-0.084,0.007l-0.063,0.049l-0.24,-0.007l-0.052,-0.028h-0.056l-0.08,0.076l-0.129,0.004l-0.104,0.097h-0.073l-0.042,-0.041l-0.119,0.01l-0.08,0.132l-0.097,0.098l-0.032,0.076l-0.055,0.049l0.003,0.08l-0.035,0.035l-0.09,0.021l-0.126,0.105l-0.191,0.006l-0.101,-0.027l-0.084,-0.07l-0.031,-0.129l-0.098,-0.111l-0.09,-0.014l-0.073,-0.035l-0.025,-0.077l-0.073,-0.052l-0.062,-0.014l-0.119,-0.08l-0.045,-0.115v-0.118l-0.122,-0.241l-0.129,-0.069l-0.115,-0.039l-0.049,0.028l-0.076,-0.041l-0.049,-0.213l-0.094,-0.003l-0.104,0.167l-0.053,0.021l-0.069,-0.018l-0.084,0.025l-0.063,0.184l-0.059,0.063h-0.048l-0.067,-0.091l-0.034,-0.142l-0.07,-0.042l-0.063,0.007l-0.111,0.073l-0.018,0.076l0.073,0.088l-0.013,0.174l-0.088,0.097l0.004,0.247l-0.07,0.195l0.004,0.206l0.073,0.202l-0.004,0.216l-0.076,0.056l-0.171,0.007l-0.125,-0.021l-0.063,0.01l-0.007,0.038l-0.052,0.018l-0.07,-0.011l-0.073,0.021l-0.118,0.143l-0.119,0.045l-0.003,0.066l0.059,0.095l0.059,0.048l0.066,0.021l0.14,0.15l0.094,0.045v0.045l-0.046,0.049v0.202l0.067,0.066l0.014,0.185l0.101,0.08l-0.004,0.052l-0.045,0.025l0.003,0.055l0.098,0.067l0.003,0.069l-0.031,0.056l0.007,0.059l0.101,0.073l0.108,0.056l0.014,0.223l-0.052,0.076l-0.004,0.101l-0.049,0.039l-0.048,-0.004l-0.035,0.025l-0.004,0.041l-0.035,0.014l-0.33,-0.149l-0.039,0.034l0.042,0.084v0.112l0.073,0.09l0.209,0.105l0.018,0.076l-0.049,0.094v0.094l0.094,0.153l-0.021,0.035l-0.157,-0.083l-0.104,-0.004l-0.098,-0.062l-0.282,-0.042l-0.153,0.038l-0.132,-0.01l-0.122,-0.056l-0.502,-0.042l-0.136,-0.052l-1.212,0.143l-0.139,0.115l-0.014,0.097l-0.174,0.049l-0.066,0.038l-0.063,-0.007l-0.097,-0.202l-0.084,-0.007l-0.428,0.122l-0.052,0.049l-0.095,0.024h-0.128l-0.474,0.153l-0.369,0.084l-0.031,0.181l0.679,0.355l0.369,-0.16l0.143,-0.007l0.09,-0.038l0.258,-0.004l0.184,-0.097l0.356,-0.056l0.341,-0.15l0.198,-0.059l0.171,-0.014l0.185,0.025l0.132,-0.06l0.111,-0.007l0.049,0.042l0.007,0.223l-0.195,0.227l-0.174,0.01l-0.07,0.031l-0.007,0.056l0.094,0.132l0.011,0.091l-0.032,0.014l-0.066,-0.073l-0.264,-0.011l-0.053,-0.042h-0.041l-0.032,0.07l0.011,0.087l-0.035,0.007l-0.045,-0.045l-0.004,-0.056l0.035,-0.024l-0.007,-0.049l-0.289,-0.038l-0.021,0.045l0.045,0.07h0.06l0.01,0.038l-0.031,0.052l0.16,0.279l0.115,0.118l0.09,0.216l0.007,0.119l0.105,0.174l-0.007,0.055l0.073,0.028l-0.007,0.032l-0.084,0.014l-0.069,0.149l-0.126,0.091l-0.017,0.063l-0.073,0.069h-0.146l-0.053,-0.052l-0.007,-0.209l0.039,-0.084l-0.011,-0.097l-0.066,-0.091l-0.021,-0.125l-0.104,-0.16l-0.011,-0.105l-0.028,-0.003l-0.041,0.062l-0.004,0.067l0.136,0.278l0.042,0.213l-0.014,0.153l-0.094,0.139l-0.15,0.014l-0.077,0.101l0.014,0.091l-0.045,0.028l-0.091,-0.108l-0.017,-0.154l-0.091,-0.014l-0.076,0.108l-0.216,0.056l-0.125,0.122l-0.098,0.007l-0.097,-0.091l-0.126,-0.048l-0.059,0.035l-0.014,0.107l0.045,0.157l-0.024,0.202l0.024,0.063l-0.017,0.056l-0.07,0.076l-0.028,0.08l-0.09,0.094l-0.035,0.122l-0.038,0.039l-0.007,0.066l0.104,0.097l0.073,0.025l0.035,0.118l-0.059,0.118l-0.024,0.188l-0.101,0.119l-0.108,0.017l-0.067,0.059l-0.006,0.077l-0.053,0.042l-0.09,0.014l-0.091,0.111l-0.024,0.126l0.063,0.052l-0.014,0.087l-0.077,0.049l-0.049,0.09h-0.094l-0.063,-0.062l-0.083,-0.007l-0.052,0.031l-0.168,0.01l-0.104,-0.034l-0.317,-0.028l-0.125,0.09h-0.087l-0.077,-0.069l-0.205,-0.084l-0.084,0.01l-0.073,-0.007l-0.056,-0.062l-0.216,-0.014l-0.083,0.045l-0.269,0.004l-0.097,-0.084l-0.08,-0.014l-0.066,0.038h-0.059l-0.039,-0.045h-0.069l-0.063,0.059l-0.105,-0.007l-0.167,-0.115l-0.069,-0.007l-0.067,0.035l-0.177,-0.024l-0.077,-0.073l-0.087,-0.042h-0.101l-0.125,-0.063l-0.22,-0.024l-0.038,0.038l-0.066,-0.003l-0.126,-0.091l-0.114,-0.01l-0.077,-0.049v-0.042l-0.056,-0.038l-0.076,0.021l-0.188,-0.038l-0.105,-0.136l-0.132,-0.066l-0.066,0.006l-0.053,0.067l-0.059,0.048l-0.083,-0.003l-0.307,-0.132l-0.08,0.007l-0.084,0.139l-0.052,0.003l-0.08,-0.014l-0.132,0.056l-0.108,0.136l-0.011,0.08l-0.048,0.045l-0.171,0.025l-0.236,-0.01l-0.501,0.093l-0.13,0.102l-0.01,0.084l0.112,0.102l-0.047,0.074l-0.325,-0.009l-0.083,0.084l0.037,0.13l0.26,0.102l0.102,0.279l-0.028,0.176l0.047,0.139l0.111,0.084l0.037,0.251l-0.093,0.12l-0.055,0.13l0.046,0.112l-0.065,0.111l-0.752,0.01l-0.037,0.074l0.111,0.167v0.204l-0.111,0.102l0.065,0.103l0.334,0.018l0.632,0.279l0.297,0.046l0.213,-0.065l0.279,0.13l0.046,0.158l0.13,0.084l0.168,-0.019l0.074,0.112l-0.074,0.306l0.065,0.492l0.232,0.186h0.223l0.13,-0.093l0.371,-0.009l0.158,0.074h0.214l0.111,-0.13l0.548,-0.046l0.186,0.12l0.241,0.01l0.121,-0.075l0.279,0.019l0.148,0.139l0.056,0.26l0.148,0.14l0.27,0.111l-0.01,0.204l-0.148,0.093v0.112l0.139,0.111l-0.018,0.13l-0.233,0.177l-0.547,0.102l-0.047,0.102l0.186,0.13l0.148,0.269l-0.046,0.14l-0.306,0.065l-0.047,0.13l0.139,0.297l-0.027,0.585l-0.103,0.111l0.028,0.297l0.251,0.177l0.111,0.399l-0.269,0.251l-0.065,0.186l0.084,0.065l0.306,-0.112l0.177,0.075l0.102,0.195l0.446,0.39h0.241l0.111,0.102l-0.018,0.148l0.13,0.279l0.306,0.195l0.047,0.158l0.093,0.065h0.102l0.065,0.13l-0.047,0.343l-0.178,0.456l-0.216,0.111l-0.265,0.313l-0.118,0.349l0.02,0.181l-0.055,0.251l-0.105,0.013l-0.069,-0.083l-0.23,-0.084l-0.488,0.021l-0.083,0.105l-0.021,0.25l-0.251,0.425l-0.028,0.154l-0.181,0.236l-0.084,0.251l-0.195,0.223l-0.007,0.118l-0.139,0.188l-0.188,0.07l-0.46,0.745l-0.139,0.126l-0.146,0.313l-0.188,0.613l-0.007,0.195l0.181,0.613l-0.007,0.286l-0.237,0.654l-0.141,0.19l0.002,0.106h-0.052l-0.195,-0.261l-0.192,-0.136l-0.192,-0.024l-0.09,-0.045h-0.108l-0.091,0.052l-0.076,-0.007l-0.073,-0.094l-0.133,-0.004l-0.101,0.101h-0.146l-0.205,-0.233l-0.042,-0.104l-0.139,-0.07l-0.115,-0.004l-0.094,0.081l-0.07,0.128l-0.118,0.119l-0.3,0.122l-0.167,0.007l-0.362,0.122l-0.147,0.142l-0.229,0.018l-0.105,-0.063l-0.031,-0.15l-0.087,-0.163l-0.328,-0.209h-0.146l-0.139,-0.042l-0.119,-0.077l-0.094,-0.156l0.011,-0.237l-0.164,-0.192l-0.237,-0.188l-0.125,-0.024l-0.084,0.028l-0.104,-0.011l-0.331,-0.15h-0.111l-0.223,0.171l-0.22,0.021l-0.111,0.118l-0.143,0.021l-0.185,-0.069l-0.233,0.003l-0.101,0.045l-0.087,-0.003l-0.07,-0.063l-0.236,0.042l-0.147,0.219l-0.153,0.049l-0.174,-0.073l-0.098,-0.216l-0.09,-0.056l-0.164,0.014l-0.09,0.084l-0.126,-0.112l-0.195,-0.111l-0.007,-0.077l0.3,-0.362l0.146,-0.049l0.07,-0.153l-0.084,-0.174l-0.174,-0.118l-0.125,-0.335l0.028,-0.229l-0.042,-0.084v-0.125l0.111,-0.237l0.014,-0.293l0.049,-0.111l0.007,-0.16l-0.049,-0.244v-0.223l0.272,-0.536l0.32,-0.37l0.286,-0.181l0.16,-0.007l0.028,-0.069l-0.167,-0.335l-0.293,-0.229l-0.369,-0.168l-0.181,-0.027l-0.119,-0.091l-0.195,-0.063l-0.174,0.084l-0.334,0.049l-0.571,-0.293l-0.349,-0.292l-0.202,-0.328l-0.16,-0.083l-0.23,0.007l-0.188,-0.049l-0.139,-0.098l-0.125,0.007l-0.14,-0.076l-0.076,-0.112l-0.55,-0.244l-0.202,0.007l-0.23,-0.16l-0.077,-0.125l-0.223,-0.091l-0.313,0.049l-0.063,0.167l-0.077,0.007l-0.048,-0.042l-1.066,-0.118l-0.669,-0.132l-2.556,-1.619l-0.148,-0.195l-0.771,-0.613l-0.27,-0.046l-0.306,-0.167l-0.269,-0.242l-0.307,-0.12h-0.26l-0.102,-0.056l-0.214,-0.241l-0.343,-0.242l-0.344,-0.13l-0.956,-0.604l-1.235,-1.086h-0.261l-0.603,0.195h-0.139l-0.103,-0.084l-0.854,-0.483l-2.192,-1.43l-0.065,-0.362l-8.098,-5.293l-0.251,-0.372v-0.316l-0.037,-0.213l-0.158,-0.158l-0.009,-0.158l0.084,-0.232l-0.065,-0.641l-0.102,-0.149l-0.019,-0.223l0.056,-0.25l-0.028,-0.167l-0.249,-0.177l-0.09,-0.251l0.042,-0.118l-0.021,-0.216l-0.397,-0.39l-0.216,-0.077l-0.216,0.035l-0.16,-0.097l-0.126,-0.195l-0.292,-0.188l-0.119,-0.258l-0.076,-0.634l-0.077,-0.104l-0.188,-0.063l-0.146,-0.188l0.007,-0.495l-0.119,-0.243l-0.146,-0.14l-0.056,-0.202l0.07,-0.501l-0.028,-0.383l-0.083,-0.216l-0.14,-0.098l-0.062,-0.111l-0.028,-0.133l-0.077,-0.104l-0.132,-0.084l-0.105,-0.146l-0.028,-0.216l-0.167,-0.153l-0.32,-0.104l-0.091,-0.07l-0.014,-0.084l-0.118,-0.111l-0.313,-0.146l-0.084,-0.084l-0.028,-0.104l-0.111,-0.084l-0.286,-0.091l-0.195,-0.195l-0.383,-0.111l-0.153,-0.098l-0.383,-0.027l-0.154,-0.084l-0.111,-0.014l-0.216,0.091l-0.104,0.236l-0.028,0.432l-0.46,0.411h-0.627l-0.689,-0.334l-0.251,-0.223l-0.125,-0.049l-0.049,-0.195l-0.14,-0.104l-0.09,-0.007l-0.014,0.257l-0.07,0.035l-0.167,-0.146l-1.135,-0.111l-0.92,0.014l-0.654,0.278l-0.578,0.056l-0.174,-0.063l-0.223,-0.153l-0.251,-0.272l-0.244,-0.181l-0.843,-0.285l-0.445,-0.307l-0.23,-0.216l-0.272,-0.111l-0.097,-0.153l0.013,-0.216l0.147,-0.467l0.104,-0.23l0.202,-0.188l0.146,-0.035l0.056,-0.083l-0.007,-0.202l-0.174,-0.342l-0.432,-0.348l-0.25,-0.404l0.055,-0.125h0.119l0.069,-0.07l-0.041,-0.139l0.069,-0.139h0.105l0.055,0.076l0.168,0.042l0.09,-0.021l0.334,0.105l0.216,0.215l0.105,0.028l0.062,-0.042l0.119,0.049l0.07,0.126l0.097,-0.021l0.021,-0.105l0.125,-0.021l0.028,-0.09l-0.104,-0.056l-0.272,-0.299l-0.174,-0.098l-0.237,-0.007l-0.244,-0.125l-0.216,-0.272l-0.02,-0.132l-0.237,-0.126h-0.265l-0.188,-0.146l-0.007,-0.132l-0.049,-0.133l-0.111,-0.034l-0.216,0.118l-0.119,-0.063l-0.188,-0.306l0.049,-0.112l0.202,-0.007l0.307,0.168l0.111,-0.021l0.077,-0.147l0.055,-0.494l0.056,-0.125l-0.028,-0.14l-0.209,-0.146l-0.181,-0.021l-0.174,-0.104l0.021,-0.126l0.139,-0.083l0.265,0.041l0.118,-0.104l-0.007,-0.077l-0.097,-0.014l-0.056,-0.048l0.014,-0.105l-0.097,-0.153l-0.077,-0.007l-0.042,-0.063l0.016,-0.083l-0.13,-0.056l-0.078,0.051l-0.061,-0.032l-0.014,-0.116l-0.088,-0.107l-0.181,-0.07l-0.023,-0.102l0.032,-0.112l-0.079,-0.06l-0.269,-0.028l-0.139,0.107l-0.084,0.139l-0.135,0.102l-0.167,-0.009l-0.329,-0.195l-0.172,-0.009l-0.311,0.088h-0.135l-0.111,-0.037l-0.121,0.014l-0.061,0.051l-0.157,0.009l-0.112,-0.055l-0.116,-0.005l-0.121,0.042l-0.501,-0.01l-0.135,-0.139l-0.028,-0.13l-0.733,-0.32l-0.214,-0.228l-0.088,-0.19l0.056,-0.033l0.009,-0.083l-0.177,-0.2l-0.028,-0.088l-0.083,-0.037l-0.367,-0.488l-0.613,0.079l-0.111,-0.037l-0.251,-0.005l-0.311,-0.185l-0.26,-0.209l-0.005,-0.056l-0.223,-0.153l-0.195,-0.075l-0.664,-0.645l-0.158,-0.181l-0.459,-0.348l-0.307,-0.316l-0.06,0.023l0.032,0.316l0.14,0.13l-0.042,0.148l-0.139,0.014l-0.163,-0.051l-0.032,0.074l0.083,0.075l0.019,0.088l-0.065,0.348l-0.079,0.047l-0.116,-0.033l-0.251,-0.004l-0.232,0.046l-0.098,-0.028l-0.12,-0.005l-0.126,-0.06l-0.186,-0.023l-0.153,-0.107l-0.427,-0.107h-0.395l-0.083,0.061l-0.098,0.014l-0.395,0.32l-0.102,-0.014l-0.106,0.084l0.046,0.167l0.176,0.116l0.558,0.246l0.185,0.023l0.116,0.107l0.126,0.358l0.529,0.812l-0.018,0.13l0.069,0.116l0.107,0.005l0.515,0.339l0.061,0.135l-0.065,0.199l-0.07,0.037l-0.148,-0.083l-0.237,-0.042l-0.274,0.06l-0.042,-0.032l0.037,-0.372l-0.134,-0.473l-0.284,-0.344l-0.241,-0.135l-0.567,-0.116l-0.12,0.005l-0.089,0.056l-0.255,0.116l-0.065,-0.023l0.032,-0.344l-0.097,-0.037l-0.088,0.042l-0.302,-0.112l-0.033,-0.167h-0.065l-0.065,0.167l-0.12,0.051l-0.065,-0.023l-0.061,0.033l-0.023,0.102l-0.116,0.065l-0.06,0.325l-0.07,0.051l-0.125,-0.065l-0.209,0.056l-0.042,0.088l0.111,0.051l0.232,0.302l-0.032,0.367l-0.362,0.947l-0.098,0.023l-0.088,-0.098l-0.135,-0.032l-0.06,0.074l0.107,0.167l0.028,0.188l-0.054,0.019l-0.03,-0.079l-0.044,0.005l-0.026,0.088h-0.564l-0.299,0.091l-0.338,0.167l-0.703,-0.092l-0.925,-0.019l-0.629,0.093l-0.204,0.111l-1.054,1.628l-0.466,0.006l-0.229,0.07l-0.209,0.132l-0.14,0.251l-0.021,0.306l0.133,0.913l-0.014,0.264l-0.042,0.098l0.042,0.132l0.097,0.049l0.307,0.669l-0.028,0.39l0.097,0.257l-0.055,0.07v0.3l0.327,0.417l0.042,0.105l0.09,0.056l0.147,-0.007l0.111,-0.119h0.077l0.014,0.112l-0.077,0.146l-0.16,0.056l-0.251,0.014l-0.195,0.104l-0.021,0.084l0.091,0.139l-0.007,0.139l-0.07,0.147l-0.104,0.132l-0.133,0.014l-0.195,-0.07l-1.372,-0.265l-5.21,-0.295z M1585.946916,470.219665l0.009,-0.112l0.065,-0.074l0.056,0.009l0.005,0.093l-0.019,0.112l-0.065,0.023l-0.051,-0.051z M1585.784396,470.702581l0.047,-0.056h0.237l0.209,0.153l0.125,0.427v0.158l0.056,0.116l0.023,0.163l0.088,0.116l-0.005,0.102l0.065,0.06l0.131,-0.083l0.241,-0.009l0.107,-0.07l0.046,0.032l-0.056,0.149l-0.116,0.088h-0.199l-0.014,0.051l0.134,0.084l-0.004,0.102l-0.158,0.07v0.046l0.436,0.028l0.042,0.07v0.074l0.061,0.051l-0.005,0.046l-0.046,0.028l-0.014,0.047l0.032,0.055l-0.032,0.033l-0.075,-0.047l-0.051,0.01l-0.023,0.06l-0.265,0.014l-0.065,0.028l-0.065,-0.014l-0.014,-0.121l-0.041,-0.06l-0.065,-0.009l-0.079,0.074l-0.024,0.093l0.024,0.074l-0.033,0.033l-0.065,-0.07l-0.181,-0.019l-0.046,-0.055l0.083,-0.121l0.07,-0.005l0.056,-0.046l0.004,-0.116l0.079,-0.093l0.153,-0.037l0.01,-0.07l-0.181,-0.144v-0.083l0.041,-0.038l0.047,0.01l0.014,0.046l0.055,-0.009l-0.004,-0.112l-0.098,-0.092l-0.315,-0.024l-0.098,-0.088l-0.107,-0.028l-0.083,-0.074l-0.042,-0.242l0.079,-0.162l0.004,-0.232l-0.06,-0.279l-0.07,-0.083z M1590.534619,472.34171l0.032,0.051l0.116,0.018l0.042,0.051v0.089l0.056,0.028l0.134,-0.103l0.051,-0.111l0.065,-0.014l0.042,0.046l0.191,0.024l0.069,0.051h0.061l0.065,-0.205l-0.051,-0.069l-0.117,-0.023l-0.074,-0.042l-0.004,-0.061l-0.052,-0.037l-0.055,-0.004l-0.107,-0.107l-0.042,0.014l0.042,0.111l-0.046,0.13l-0.103,0.07l-0.144,0.004l-0.171,0.089z"/>
</svg>
