<svg xmlns="http://www.w3.org/2000/svg" viewBox="711.532 662.189 2.308 5.757">
  <path d="M712.00717,667.914698l0.01966,-0.01966l0.036863,0.012288l0.01966,0.036863l-0.024575,0.002458l-0.036863,-0.00983l-0.014745,-0.022118Z M711.967849,667.607508l0.02949,-0.00983l-0.007373,-0.024575l-0.051608,-0.007373l-0.00983,0.01966l0.03932,0.022118Z M711.977679,667.305233l0.012288,-0.031948l0.022118,-0.02949l0.03932,-0.004915l0.007373,-0.022118l-0.041778,-0.046693l-0.04915,0.00983l-0.012288,0.04915l0.004915,0.034405l-0.007373,0.036863l0.024575,0.004915Z M712.181654,667.285573l0.017203,0.002458l0.01966,-0.012288l-0.004915,-0.014745l-0.034405,0.00983l0.002458,0.014745Z M711.616424,667.59522l0.044235,-0.012288l0.034405,-0.036863l0.02949,-0.002458l-0.004915,0.01966l0.014745,0.007373l0.01966,-0.017203l0.034405,0.002458l0.054065,-0.014745l0.027033,-0.04915l-0.034405,-0.031948l-0.093386,0.004915l-0.03932,-0.02949v-0.036863l-0.024575,-0.007373l-0.027033,0.024575h-0.051608l-0.007373,0.027033l0.034405,0.022118l-0.007373,0.036863l-0.076183,0.02949l-0.00983,0.031948l0.083556,0.031948Z M712.712478,666.201806l0.017203,0.012288l0.01966,-0.007373v-0.01966l-0.017203,-0.00983l-0.01966,0.007373v0.017203Z M712.277497,666.897284l0.014745,-0.01966l-0.00983,-0.017203l-0.017203,0.007373l-0.004915,0.024575l0.017203,0.004915Z M712.262752,666.948892l0.01966,0.012288l0.007373,-0.017203l-0.017203,-0.022118l-0.01966,0.00983l0.00983,0.017203Z M711.926071,667.093886l0.022118,-0.004915l0.004915,-0.017203l-0.024575,-0.002458l-0.014745,0.012288l0.012288,0.012288Z M712.191484,667.224135v0.01966l0.027033,-0.004915l0.014745,-0.012288l-0.022118,-0.012288l-0.01966,0.00983Z M712.287327,666.833389l0.022118,0.031948l0.024575,0.012288l0.012288,-0.031948h0.03932l0.017203,0.017203h0.02949l0.017203,-0.034405l0.012288,-0.093386l-0.002458,-0.034405l0.027033,-0.01966l0.041778,0.01966l0.024575,-0.01966l-0.022118,-0.110588l-0.034405,-0.002458l-0.027033,0.031948l-0.02949,-0.002458l-0.017203,-0.02949l-0.036863,-0.00983l-0.016335,0.052234l0.012336,0.040091l0.032157,0.04729l0.02027,0.029808l-0.006168,0.043175l-0.029972,0.028237l-0.066353,0.017203l-0.066353,-0.027033l-0.014745,0.014745l0.036863,0.02949Z M713.292453,665.901988l0.027033,-0.002458l0.00983,-0.024575l-0.04915,-0.022118l-0.014745,0.01966l0.027033,0.02949Z M713.292453,665.675896l0.031948,0.054065l0.036863,0.017203l0.03932,-0.027033l0.002458,-0.061438l0.027033,-0.068811l0.03932,-0.004915l0.012288,-0.027033l-0.01966,-0.051608l-0.027033,-0.004915l-0.02949,0.02949l-0.02949,-0.022118l-0.034405,0.007373l-0.017203,0.058981l0.012288,0.03932l-0.00983,0.031948l-0.02949,0.00983l-0.004915,0.01966Z M713.390754,665.422771l0.024575,-0.00983l-0.017203,-0.017203h-0.022118l-0.00983,0.017203l0.024575,0.00983Z M713.439905,665.400653l0.017203,-0.00983l-0.007373,-0.01966l-0.017203,-0.002458l-0.007373,0.01966l0.014745,0.012288Z M713.680742,665.051685l0.007373,0.024575l0.041778,-0.004915l0.01966,-0.02949l-0.012288,-0.027033l-0.034405,0.002458l-0.022118,0.034405Z M713.616846,665.174561l0.03932,0.01966l0.027033,-0.007373l-0.041778,-0.061438l-0.002458,-0.051608h-0.036863l-0.014745,0.022118l0.02949,0.078641Z M713.192707,666.116949l0.018504,-0.024672l-0.012336,-0.021588l-0.024672,0.012336l-0.006168,0.030839l0.024672,0.003084Z M713.649131,665.364465l0.027756,-0.006168l0.006168,-0.024672l-0.037007,-0.009252l-0.01542,0.021588l0.018504,0.018504Z M712.764038,665.167093l0.024672,-0.003084l-0.003084,-0.021588l-0.024672,-0.018504l-0.012336,0.021588l0.01542,0.021588Z M712.979914,664.994391l0.027756,-0.01542l-0.009252,-0.027756l-0.043175,0.003084l-0.012336,0.024672l0.037007,0.01542Z M712.85964,665.133169l0.049343,0.009252l0.040091,-0.01542l-0.006168,-0.033923l0.021588,-0.061679l-0.030839,-0.01542l-0.01542,0.043175l-0.027756,0.030839l-0.070931,0.018504l-0.003084,0.027756l0.043175,-0.003084Z M712.702359,664.871033l0.061679,-0.01542l0.061679,0.01542l0.138778,0.021588l0.021588,-0.030839l0.058595,-0.012336l0.095602,-0.067847l0.01542,-0.086351l-0.030839,-0.018504v-0.030839l0.104854,-0.055511l0.009252,-0.080183l-0.024672,-0.043175l-0.027756,0.012336l0.006168,0.027756l-0.027756,0.024672h-0.052427l-0.077099,0.080183l-0.104854,0.061679l0.003084,0.037007l0.055511,0.003084l0.024672,0.024672l-0.055511,0.077099h-0.126442l-0.141862,0.033923l-0.027756,0.012336l0.040091,0.009252Z M713.336111,663.956643l0.1249,-0.013878l0.064763,-0.120274l0.074015,-0.037007l0.046259,-0.083267l0.017492,-0.17911l0.071268,-0.144994l0.031948,-0.125334l0.058981,-0.071268l0.00983,-0.051608l-0.022118,-0.201517l0.027033,-0.147451l-0.046404,-0.262955l-0.060137,-0.092518l-0.02313,-0.129526l-0.097144,-0.074015l-0.139356,-0.033249l-0.110588,0.022118l-0.054065,0.04915l-0.054065,0.012288l-0.031948,0.054065l-0.123454,0.298083l-0.048572,0.031225l-0.027033,0.044235l0.00159,0.077195l-0.041633,0.046259l-0.064763,0.027756l-0.050885,-0.013878l-0.037007,0.032381l0.027756,0.050885l-0.018504,0.087893l-0.083267,0.074015l-0.02313,0.1249l0.018504,0.22667l0.083267,0.152655l0.10177,0.083267l0.004626,0.060137l0.032381,0.032381l0.060137,-0.013878l0.060137,0.046259l-0.018504,0.055511l0.032381,0.02313l0.064763,-0.018504l0.161907,0.10177Z "/>
</svg>
