<svg xmlns="http://www.w3.org/2000/svg" viewBox="692.001 676.975 4.174 2.950">
  <path d="M692.000822,678.353591l0.011795,-0.070144l0.156279,-0.140288l0.056025,-0.14321l-0.056025,-0.04384l0.005897,-0.070144l0.156279,-0.064299l0.04423,0.017536l0.053076,-0.005845l0.070768,-0.040917l0.117946,-0.017536l0.026538,-0.032149l0.123844,-0.020459l0.144484,0.026304l0.126792,-0.023381l0.058973,-0.046763l0.114998,-0.029227l0.073717,-0.049685l0.103203,0.023381l0.026538,0.055531l-0.073717,0.122752l0.011795,0.046763l0.182817,0.181205l0.227047,0.14321l0.250636,0.084757l0.203458,0.032149l0.182817,-0.017536l0.129741,-0.073067l0.026538,-0.055531l-0.017692,-0.058453l0.020641,-0.075989l0.041281,-0.04384l0.005897,-0.052608l-0.005897,-0.09937l0.005897,-0.070144l0.035384,-0.023381l0.100254,-0.011691l0.123844,-0.058453l0.002949,-0.04384l-0.029487,-0.014613l-0.023589,-0.070144l0.011795,-0.067221l0.082563,-0.035072l0.126792,-0.005845l0.08846,-0.037995l0.023589,-0.037995l0.058973,-0.014613l0.079614,-0.078912l0.026538,-0.075989l0.029487,-0.029227l0.053076,-0.017536l0.017692,-0.029227l0.020641,-0.08768l0.056025,-0.029227l0.011795,0.020459l-0.002949,0.040917l0.061922,0.122752l0.144484,0.137365l0.032435,0.008768l0.002949,0.029227l-0.020641,0.026304l0.011795,0.070144l0.100254,0.192896l0.070768,0.17536l0.162176,0.236735l0.106152,0.149056l-0.029487,0.023381l-0.073717,-0.020459l-0.055042,0.02533l-0.019658,0.044814l0.003932,0.033123l-0.033418,0.015588l-0.027521,-0.009742l-0.03735,0.015588l-0.005897,0.107164l0.015726,0.105216l-0.03735,0.007794l-0.023589,-0.021433l-0.023589,-0.054556l-0.041281,-0.007794l-0.13957,0.064299l-0.021624,0.023381l-0.029487,0.005845l-0.041281,0.001948l-0.074699,0.050659l-0.025555,0.054556l-0.025555,0.196792l0.015726,0.050659l-0.039315,0.048711h-0.074699l-0.17692,-0.052608l-0.015726,-0.031175l0.015726,-0.035072l-0.021624,-0.017536l-0.027521,0.001948l-0.005897,-0.027278l0.043247,-0.015588l0.082563,0.038969l0.064871,-0.017536l0.045213,-0.040917l-0.027521,-0.023381l-0.066836,0.013639l-0.062905,-0.023381l-0.001966,-0.038969l-0.110083,-0.021433l-0.045213,-0.02533l-0.019658,0.023381l0.003932,0.052608l0.03735,0.009742l0.025555,0.040917l-0.003932,0.02533l-0.033418,0.017536l0.003932,0.015588l0.05111,0.013639l0.005897,0.023381l-0.058973,0.019484l-0.10222,-0.005845l-0.074699,-0.021433l-0.090426,0.046763l-0.070768,0.097422l-0.086494,0.03702l-0.060939,-0.013639l-0.084528,0.015588l-0.165125,0.070144l-0.023589,-0.007794l0.017692,-0.029227l0.05111,-0.027278l0.009829,-0.056505l-0.121878,-0.118855l-0.121878,0.003897l-0.039315,-0.023381l-0.078631,0.001948l-0.029487,-0.03702l-0.023589,-0.105216l-0.043247,-0.081834l-0.080597,-0.070144l-0.117946,-0.101319l-0.045213,-0.009742l-0.053076,-0.077938l0.003932,-0.02533l-0.025555,-0.005845l-0.055042,0.08768l-0.005897,0.054556l-0.110083,0.111061l-0.104186,0.019484l-0.145467,-0.02533l-0.058973,0.003897l-0.049144,-0.009742l-0.039315,-0.019484l-0.100254,-0.007794l-0.100254,0.003897l-0.090426,-0.017536l-0.078631,-0.054556l-0.104186,-0.011691l-0.060939,0.005845l-0.127775,-0.038969l-0.239824,-0.048711l-0.035384,-0.029227l-0.029487,-0.003897l-0.021624,0.015588l-0.015726,-0.00682Z M694.996662,679.788617l-0.033418,-0.031175l-0.009829,0.013639l0.019658,0.027278l0.045213,0.013639l0.03735,0.023381l0.039315,0.001948l0.05111,0.029227l0.011795,0.027278l0.072734,0.031175l0.057007,-0.001948l0.082563,-0.017536l0.03735,-0.013639l0.025555,-0.08768l-0.003932,-0.054556l-0.090426,-0.134442l-0.003932,-0.027278l-0.027521,-0.044814l-0.082563,-0.035072l-0.031452,0.007794l-0.143502,-0.019484l-0.115981,-0.038969l-0.023589,-0.029227l-0.047179,-0.017536l-0.039315,0.013639l-0.033418,-0.003897l-0.035384,-0.02533h-0.031452l0.031452,0.027278l0.021624,0.064299l-0.005897,0.058453l-0.062905,0.079886l-0.003932,0.029227l0.033418,-0.001948l0.044681,0.023162l0.069334,0.021652l0.047179,-0.003897l0.074699,0.013639l0.029487,0.031175l0.015726,0.003897l-0.003932,-0.021433l0.041281,0.009742l0.029487,0.064299l-0.017692,0.011691l-0.043247,-0.015588l-0.027521,-0.001948Z M693.306096,679.500248l0.096323,0.003897l0.033418,-0.011691l0.025555,-0.001948l0.033418,0.009742l0.098289,-0.027278h0.068802l0.039315,-0.013639l0.011795,-0.03702l0.053076,-0.056505l0.001966,-0.021433l-0.05111,-0.02533l-0.049144,-0.097422l-0.01376,0.011691l-0.001966,0.050659l-0.023589,0.040917l-0.025555,0.011691l-0.060939,-0.038969l-0.114015,-0.011691l-0.03735,0.023381l-0.041281,0.001948l-0.035384,-0.015588l-0.017692,0.001948v0.021433l-0.080597,0.052608l-0.001966,0.019484l0.029487,0.031175l0.029487,0.06235l0.033418,0.015588Z "/>
</svg>
