<svg xmlns="http://www.w3.org/2000/svg" viewBox="633.016 670.201 89.295 76.658">
  <path d="M692.000822,678.353591l0.011795,-0.070144l0.156279,-0.140288l0.056025,-0.14321l-0.056025,-0.04384l0.005897,-0.070144l0.156279,-0.064299l0.04423,0.017536l0.053076,-0.005845l0.070768,-0.040917l0.117946,-0.017536l0.026538,-0.032149l0.123844,-0.020459l0.144484,0.026304l0.126792,-0.023381l0.058973,-0.046763l0.114998,-0.029227l0.073717,-0.049685l0.103203,0.023381l0.026538,0.055531l-0.073717,0.122752l0.011795,0.046763l0.182817,0.181205l0.227047,0.14321l0.250636,0.084757l0.203458,0.032149l0.182817,-0.017536l0.129741,-0.073067l0.026538,-0.055531l-0.017692,-0.058453l0.020641,-0.075989l0.041281,-0.04384l0.005897,-0.052608l-0.005897,-0.09937l0.005897,-0.070144l0.035384,-0.023381l0.100254,-0.011691l0.123844,-0.058453l0.002949,-0.04384l-0.029487,-0.014613l-0.023589,-0.070144l0.011795,-0.067221l0.082563,-0.035072l0.126792,-0.005845l0.08846,-0.037995l0.023589,-0.037995l0.058973,-0.014613l0.079614,-0.078912l0.026538,-0.075989l0.029487,-0.029227l0.053076,-0.017536l0.017692,-0.029227l0.020641,-0.08768l0.056025,-0.029227l0.011795,0.020459l-0.002949,0.040917l0.061922,0.122752l0.144484,0.137365l0.032435,0.008768l0.002949,0.029227l-0.020641,0.026304l0.011795,0.070144l0.100254,0.192896l0.070768,0.17536l0.162176,0.236735l0.106152,0.149056l-0.029487,0.023381l-0.073717,-0.020459l-0.055042,0.02533l-0.019658,0.044814l0.003932,0.033123l-0.033418,0.015588l-0.027521,-0.009742l-0.03735,0.015588l-0.005897,0.107164l0.015726,0.105216l-0.03735,0.007794l-0.023589,-0.021433l-0.023589,-0.054556l-0.041281,-0.007794l-0.13957,0.064299l-0.021624,0.023381l-0.029487,0.005845l-0.041281,0.001948l-0.074699,0.050659l-0.025555,0.054556l-0.025555,0.196792l0.015726,0.050659l-0.039315,0.048711h-0.074699l-0.17692,-0.052608l-0.015726,-0.031175l0.015726,-0.035072l-0.021624,-0.017536l-0.027521,0.001948l-0.005897,-0.027278l0.043247,-0.015588l0.082563,0.038969l0.064871,-0.017536l0.045213,-0.040917l-0.027521,-0.023381l-0.066836,0.013639l-0.062905,-0.023381l-0.001966,-0.038969l-0.110083,-0.021433l-0.045213,-0.02533l-0.019658,0.023381l0.003932,0.052608l0.03735,0.009742l0.025555,0.040917l-0.003932,0.02533l-0.033418,0.017536l0.003932,0.015588l0.05111,0.013639l0.005897,0.023381l-0.058973,0.019484l-0.10222,-0.005845l-0.074699,-0.021433l-0.090426,0.046763l-0.070768,0.097422l-0.086494,0.03702l-0.060939,-0.013639l-0.084528,0.015588l-0.165125,0.070144l-0.023589,-0.007794l0.017692,-0.029227l0.05111,-0.027278l0.009829,-0.056505l-0.121878,-0.118855l-0.121878,0.003897l-0.039315,-0.023381l-0.078631,0.001948l-0.029487,-0.03702l-0.023589,-0.105216l-0.043247,-0.081834l-0.080597,-0.070144l-0.117946,-0.101319l-0.045213,-0.009742l-0.053076,-0.077938l0.003932,-0.02533l-0.025555,-0.005845l-0.055042,0.08768l-0.005897,0.054556l-0.110083,0.111061l-0.104186,0.019484l-0.145467,-0.02533l-0.058973,0.003897l-0.049144,-0.009742l-0.039315,-0.019484l-0.100254,-0.007794l-0.100254,0.003897l-0.090426,-0.017536l-0.078631,-0.054556l-0.104186,-0.011691l-0.060939,0.005845l-0.127775,-0.038969l-0.239824,-0.048711l-0.035384,-0.029227l-0.029487,-0.003897l-0.021624,0.015588l-0.015726,-0.00682Z M694.996662,679.788617l-0.033418,-0.031175l-0.009829,0.013639l0.019658,0.027278l0.045213,0.013639l0.03735,0.023381l0.039315,0.001948l0.05111,0.029227l0.011795,0.027278l0.072734,0.031175l0.057007,-0.001948l0.082563,-0.017536l0.03735,-0.013639l0.025555,-0.08768l-0.003932,-0.054556l-0.090426,-0.134442l-0.003932,-0.027278l-0.027521,-0.044814l-0.082563,-0.035072l-0.031452,0.007794l-0.143502,-0.019484l-0.115981,-0.038969l-0.023589,-0.029227l-0.047179,-0.017536l-0.039315,0.013639l-0.033418,-0.003897l-0.035384,-0.02533h-0.031452l0.031452,0.027278l0.021624,0.064299l-0.005897,0.058453l-0.062905,0.079886l-0.003932,0.029227l0.033418,-0.001948l0.044681,0.023162l0.069334,0.021652l0.047179,-0.003897l0.074699,0.013639l0.029487,0.031175l0.015726,0.003897l-0.003932,-0.021433l0.041281,0.009742l0.029487,0.064299l-0.017692,0.011691l-0.043247,-0.015588l-0.027521,-0.001948Z M693.306096,679.500248l0.096323,0.003897l0.033418,-0.011691l0.025555,-0.001948l0.033418,0.009742l0.098289,-0.027278h0.068802l0.039315,-0.013639l0.011795,-0.03702l0.053076,-0.056505l0.001966,-0.021433l-0.05111,-0.02533l-0.049144,-0.097422l-0.01376,0.011691l-0.001966,0.050659l-0.023589,0.040917l-0.025555,0.011691l-0.060939,-0.038969l-0.114015,-0.011691l-0.03735,0.023381l-0.041281,0.001948l-0.035384,-0.015588l-0.017692,0.001948v0.021433l-0.080597,0.052608l-0.001966,0.019484l0.029487,0.031175l0.029487,0.06235l0.033418,0.015588Z  M644.108668,678.595662l0.196577,-0.015726l0.023589,-0.062905l-0.259482,-0.047179l-0.047179,0.078631l0.086494,0.047179Z M644.572591,678.792239l0.023589,-0.12581l-0.055042,-0.039315l-0.047179,0.055042l0.023589,0.141536l0.055042,-0.031452Z M677.019658,673.127406l0.424607,-0.047461l0.188714,-0.130518l-0.023589,-0.355957l-0.117946,-0.237305l-0.082563,0.059326l-0.035384,0.213574l0.023589,0.142383l-0.165125,0.225439l-0.283071,0.035596l-0.082563,0.035596l0.15333,0.059326Z M644.415329,678.359769l-0.039315,0.078631l0.047179,0.110083l0.070768,-0.039315l-0.007863,-0.133673l-0.070768,-0.015726Z M644.855662,678.485578l0.094357,0.141536l0.086494,0.070768l-0.070768,-0.204441l-0.149399,-0.141536l-0.165125,-0.070768l-0.015726,0.094357l0.220167,0.110083Z M645.178049,678.713608l0.055042,-0.047179l-0.031452,-0.078631h-0.086494l-0.007863,0.086494l0.070768,0.039315Z M671.983345,671.857827l0.086494,-0.01582l0.062905,-0.031641l-0.094357,-0.039551l-0.094357,0.01582l-0.023589,0.047461l0.062905,0.02373Z M705.638072,685.191939l0.125318,-0.046994l-0.015665,-0.140983l-0.140983,-0.046994l-0.062659,0.140983l0.093989,0.093989Z M705.674746,686.045945l0.141536,-0.689987l-0.064871,-0.053076l-0.144669,0.045704l-0.109653,0.344625l0.024326,0.199403l0.094357,0.17692l0.058973,-0.023589Z M706.058072,685.061093l0.190926,-0.135454l0.109653,-0.219307l-0.172312,-0.172312l-0.203642,0.078324l-0.095647,0.230548l-0.047179,0.365634l0.064871,-0.005897l0.070768,-0.117946l0.082563,-0.023589Z M680.133444,672.79518l0.271277,0.166113l0.212304,0.047461l0.165125,-0.130518l0.023589,-0.166113l-0.082563,-0.071191l-0.436402,0.035596l-0.17692,0.047461l0.023589,0.071191Z M670.47363,671.620522l0.157262,0.02373l0.055042,-0.031641l-0.15333,-0.039551l-0.106152,-0.055371l-0.035384,0.031641l0.082563,0.071191Z M671.723862,671.679848l0.058973,-0.035596l0.011795,-0.083057l-0.106152,0.035596l-0.058973,0.071191l0.094357,0.011865Z M676.925301,671.762905l0.106152,0.106787h0.15333l0.011795,-0.083057l-0.129741,-0.047461l-0.141536,0.02373Z M677.12581,672.190053l0.094357,0.071191h0.117946l-0.023589,-0.106787l-0.129741,-0.059326l-0.058973,0.094922Z M676.748381,672.415492l0.070768,-0.071191l-0.141536,-0.047461l-0.48358,0.011865v0.071191l0.235893,0.059326l0.318455,-0.02373Z M675.639684,672.178188l0.106152,0.011865l0.117946,-0.02373l-0.082563,-0.071191l-0.129741,0.02373l-0.011795,0.059326Z M675.910961,673.222328l0.271277,-0.035596l0.306661,-0.142383l0.15333,-0.035596l0.070768,-0.083057l-0.141536,0.011865l-0.235893,0.106787l-0.283071,0.106787l-0.200509,0.02373l0.058973,0.047461Z M680.75856,672.56974l0.047179,0.035596l0.082563,-0.154248l-0.035384,-0.142383l-0.058973,0.035596v0.083057l-0.035384,0.142383Z M685.476418,678.715931l0.259482,0.118652l0.471786,0.106787l0.495375,-0.094922l0.047179,-0.118652l-0.135638,-0.172046l0.005897,-0.094922l-0.029487,-0.011865l-0.058973,0.053394h-0.094357l-0.383326,-0.172046h-0.336147l-0.365634,0.219507l-0.047179,0.154248l0.171022,0.011865Z M690.603157,672.656752l0.117946,0.063281h0.196577l0.078631,-0.174023l-0.070768,-0.237305l-0.235893,-0.174023l-0.12581,0.02373l-0.047179,0.197754l-0.110083,0.079102l0.015726,0.189844l0.180851,0.031641Z M691.70399,672.664662l0.070768,0.00791l0.023589,-0.047461l-0.047179,-0.031641l-0.055042,0.031641l0.007863,0.039551Z M691.853389,672.901967h0.047179l0.023589,-0.039551l-0.055042,-0.02373l-0.039315,0.031641l0.023589,0.031641Z M692.038172,673.210463h0.043247l0.031452,-0.031641l-0.031452,-0.039551l-0.043247,0.02373v0.047461Z M692.002788,673.337026h0.035384l0.011795,-0.051416l-0.047179,-0.019775l-0.019658,0.031641l0.019658,0.039551Z M700.346516,675.873065l0.038333,-0.005897l0.011795,-0.026538l-0.032435,-0.020641l-0.035384,0.029487l0.017692,0.023589Z M700.723944,675.755118l0.017692,-0.026538l-0.014743,-0.032435l-0.041281,-0.011795l-0.023589,0.023589l0.026538,0.038333l0.035384,0.008846Z M700.455616,675.758067l0.053076,0.073717l0.056025,0.017692l0.014743,-0.053076l-0.058973,-0.041281l-0.017692,-0.038333l0.029487,-0.061922l-0.038333,-0.032435l-0.100254,0.035384l-0.026538,0.04423l0.020641,0.035384l0.067819,0.020641Z M696.437574,676.987658l0.035384,-0.003932l-0.027521,-0.058973l-0.031452,-0.031452l-0.043247,0.007863l0.007863,0.035384l0.058973,0.05111Z M696.29997,676.905096l0.015726,-0.031452l-0.015726,-0.043247l-0.043247,-0.007863v0.027521l0.043247,0.055042Z M696.19775,676.81467l0.019658,-0.019658l-0.015726,-0.023589l-0.031452,-0.003932v0.031452l0.027521,0.015726Z M696.469026,676.83826v-0.027521l-0.019658,-0.019658h-0.031452l-0.003932,0.019658l0.019658,0.023589l0.035384,0.003932Z M685.505904,678.223524l0.041281,0.053394l0.053076,-0.005933l0.011795,-0.047461l-0.058973,-0.041528l-0.047179,0.041528Z M685.222833,678.472693l0.029487,-0.035596l-0.023589,-0.047461h-0.047179l-0.005897,0.053394l0.047179,0.029663Z M685.334882,678.413367l0.023589,-0.047461l-0.035384,-0.035596l-0.041281,0.017798l0.011795,0.035596l0.041281,0.029663Z M689.710695,683.132668h0.094357l0.070768,-0.117946v-0.15333l-0.129741,0.023589l-0.070768,0.141536l0.035384,0.106152Z M690.406579,683.014722l0.141536,0.058973l0.117946,-0.011795l-0.17692,-0.141536h-0.224098l0.047179,0.082563l0.094357,0.011795Z M691.314767,682.660882l0.094357,-0.070768l-0.011795,-0.082563l-0.094357,0.023589l-0.058973,0.117946l0.070768,0.011795Z M691.892704,682.590115l0.082563,-0.094357l-0.070768,-0.106152l-0.117946,0.058973l0.011795,0.141536h0.094357Z M688.283543,683.911115h0.094357l0.035384,-0.082563l-0.117946,-0.023589l-0.094357,0.058973l0.082563,0.047179Z M688.55482,684.017267l0.117946,0.011795l-0.011795,-0.070768l-0.106152,-0.047179l-0.082563,0.058973l0.082563,0.047179Z M716.480606,692.104461l0.12581,-0.023589l0.031452,-0.078631l-0.12581,-0.031452l-0.110083,0.031452l0.019465,0.056708l0.059166,0.045512Z M714.35757,694.864408l0.10222,-0.015726l0.023589,-0.094357l-0.039315,-0.078631l-0.078631,0.015726l-0.055042,0.094357l0.047179,0.078631Z M714.734999,694.376896l0.110083,-0.047179l-0.039315,-0.062905l-0.141536,0.007863l-0.070768,0.078631l0.141536,0.023589Z M716.36266,693.57486l0.149399,-0.10222l0.149399,-0.369566l-0.070768,-0.007863l-0.196577,0.220167l-0.416744,0.12581l-0.023589,0.078631l0.408881,0.055042Z M716.79513,693.158116l0.039315,-0.031452l0.039315,-0.141536l-0.047179,-0.078631l-0.055042,0.039315l-0.039315,0.172988l0.062905,0.039315Z M715.198922,694.180318h0.243756l0.141536,-0.062905l0.047179,-0.12581l-0.086494,-0.031452l-0.479649,0.047179l-0.039315,0.094357l0.172988,0.078631Z M715.835833,694.062372l0.479649,-0.031452l0.22803,-0.023589l0.369566,0.070768l0.259482,-0.094357l0.039315,-0.141536l-0.393155,-0.133673l-0.739131,-0.110083l-0.204441,0.023589l-0.047179,0.172988l-0.117946,0.110083l0.007863,0.117946l0.117946,0.039315Z M715.717886,694.203908l0.204441,-0.031452l0.023589,-0.055042l-0.117946,0.007863l-0.133673,-0.047179l-0.047179,0.078631l0.070768,0.047179Z M715.9066,690.877818l0.120895,-0.116964l0.020641,-0.094357l-0.04423,-0.168074l-0.067819,-0.032435l-0.123844,0.113032l-0.094357,0.229013l0.086494,0.101237l0.10222,-0.031452Z M716.016684,691.019354l0.12581,0.10222l0.204441,-0.047179l0.172988,-0.220167l-0.023589,-0.141536l-0.110083,-0.157262l-0.117946,0.015726l-0.149399,0.298798l-0.078631,0.062905l-0.023589,0.086494Z M716.307618,691.428235l0.086494,-0.023589l0.149399,-0.180851l0.039315,-0.12581l-0.047179,-0.055042l-0.10222,0.062905l-0.172988,0.283071l0.047179,0.039315Z M716.236851,691.561907l0.031452,0.039315l0.078631,-0.015726l-0.015726,-0.094357h-0.062905l-0.031452,0.070768Z M715.867285,689.926383l0.110083,-0.007863l0.031452,-0.086494l-0.070768,-0.086494h-0.094357l-0.055042,0.110083l0.078631,0.070768Z M715.725749,690.107235l0.062905,-0.031452l0.007863,-0.070768l-0.078631,-0.007863l-0.055042,0.070768l0.062905,0.039315Z M715.348321,690.280223l0.163159,-0.050127l0.057007,-0.067819l-0.094357,-0.055042l-0.204441,0.086494l-0.086494,0.070768l0.165125,0.015726Z M715.331612,690.032535l0.114998,-0.050127l0.032435,-0.064871l-0.047179,-0.017692l-0.126792,0.097306l0.026538,0.035384Z M715.128154,690.170139l0.070768,-0.015726l0.055042,-0.086494l-0.086494,-0.007863l-0.094357,0.062905l0.055042,0.047179Z M714.907987,690.406032l0.110083,-0.039315l0.007863,-0.055042l-0.094357,-0.007863l-0.086494,0.070768l0.062905,0.031452Z M716.991708,692.656844l0.047179,0.005897l-0.011795,0.053076l-0.064871,0.017692l-0.023589,-0.041281l0.053076,-0.035384Z  M716.154288,716.81031l-0.074,-0.115l-4.262,-4.829l-0.069,-0.117l0.029,-0.033l0.115,0.051l0.033,0.065l0.2,-0.128l0.118,-0.285l0.348,-0.467l0.047,-0.142l0.284,-0.113l0.088,0.071l0.083,-0.03l0.123,-0.261l-0.035,-0.089l0.071,-0.107l0.271,0.035l0.083,-0.154l-0.101,-0.089l0.095,-0.274l0.106,-0.053l-0.047,-0.065l-0.177,-0.012l-0.218,-0.339l0.188,-0.553l-0.047,-0.327l-0.153,-0.059v-0.143l0.059,-0.107l-0.071,-0.154l-0.224,-0.036l-0.059,-0.333l0.248,-0.368l0.094,-0.285l0.177,-0.226l0.153,-0.036l0.154,0.107l0.106,-0.012l0.059,-0.095l0.306,0.024l0.107,-0.095l0.117,0.012l0.059,0.083h0.248l0.094,-0.167l0.189,-0.047v-0.107l-0.13,-0.071v-0.214l0.166,-0.036l0.212,0.19l0.2,0.024l0.095,-0.095l0.129,0.024l0.413,0.237l0.201,-0.023l0.224,-0.428l0.224,-0.119l0.625,-0.107l0.047,-0.131l0.106,-0.036h0.177l0.342,-0.368l0.295,-0.059l0.106,0.106l0.107,-0.059l0.011,-0.345l0.083,-0.154l0.259,-0.083l0.142,-0.309l-0.012,-0.416l-0.436,-0.286l-0.283,0.048l-0.154,-0.048l-0.07,-0.142l-0.189,-0.024l-0.26,0.143l-0.177,0.344l-0.117,-0.012l-0.166,-0.273l-0.342,-0.273l-0.082,-0.286l0.283,-0.297l0.035,-0.178l-0.153,-0.44l-0.177,-0.178l-0.024,-0.19l-0.141,-0.072l-0.118,0.012l-0.236,-0.487l0.106,-0.226l0.295,-0.024l0.142,-0.119l0.059,-0.309l0.141,-0.095l0.083,0.095l0.082,-0.095l0.047,-0.38l-0.047,-0.19l0.295,-0.393l0.047,-0.225l0.283,-0.107l0.472,0.107l0.401,-0.024l0.696,-0.547l0.094,-0.25l0.177,-0.13l0.236,-0.036l0.248,-0.178l0.047,-0.19l0.224,-0.096l0.201,0.107l0.224,-0.107l0.2,-0.19l-0.023,-0.214l0.118,-0.225l-0.012,-0.214l0.236,-0.309l0.365,-0.06l0.425,-0.095l0.165,-0.226l-0.035,-0.249l-1.156,-1.494l0.055,-0.121l-0.217,-0.229l-1.284,-0.419l-1.112,0.016l-0.251,0.093l-0.235,0.512l-0.204,0.109l-0.908,-0.14l-0.517,-0.341l-0.235,-0.047l-0.282,0.093l-0.736,-0.031l-0.282,0.093l-0.326,0.06l-0.055,0.102l0.031,0.187l-0.024,0.14l-0.196,0.062l-0.095,-0.046h-0.094l-0.275,0.116l-0.378,0.016l-0.125,-0.062l-0.087,0.008l-0.086,0.14l-0.228,0.015l-0.158,0.063l0.071,-0.086l0.268,-0.054l0.07,-0.133l0.158,-0.023l0.133,0.054l0.386,-0.023l0.306,-0.133l0.197,-0.234l0.162,-0.355l0.254,-0.159l0.142,-0.016l0.058,-0.089l0.502,-0.047l0.172,-0.093l0.172,-0.373l0.405,-0.16l0.095,-0.14l0.112,-0.07l0.017,-0.08l-0.165,-0.213l0.006,-0.134l-0.035,-0.047l-0.118,0.029l-0.112,0.012l-0.201,0.205l-0.041,0.146l-0.183,0.164l-0.13,0.187l-0.1,0.111l-0.189,0.029l0.177,-0.076l0.171,-0.246l0.148,-0.152l0.065,-0.148l0.094,-0.21l0.244,-0.164l0.078,-0.093l-0.055,-0.039l-0.205,0.111l-0.198,0.052l-0.324,0.006l-0.083,0.041l-0.088,0.1l-0.189,0.076l-0.348,-0.036l-0.076,-0.111h-0.106l-0.113,0.076l0.054,-0.099l0.112,-0.029l0.123,0.041l0.054,0.082l0.288,0.011l0.207,-0.111l0.112,-0.093l0.153,-0.006l0.071,-0.03l0.018,-0.052l-0.105,-0.011l-0.033,-0.135l0.11,-0.086l0.102,0.039l0.185,-0.035l0.065,-0.076l-0.035,-0.082l0.02,-0.158l-0.132,-0.099l-0.195,0.064l-0.141,-0.076l-0.23,-0.228l-0.172,-0.053l-0.171,0.041l-0.141,0.1l-0.124,0.169l0.077,-0.199l0.165,-0.14l0.2,-0.031l0.252,0.097l0.204,0.199l0.134,0.039l0.111,-0.111l0.235,-0.263l-0.032,-0.11l-0.266,-0.109l-0.056,-0.257l0.102,-0.28l0.181,-0.133l0.232,0.006l0.039,-0.055l-0.109,-0.205l-0.107,-0.094l-0.079,0.003l-0.172,0.13l-0.288,0.113l-0.159,0.003l-0.226,0.101l-0.192,0.029l-0.11,-0.07l-0.26,0.07l-0.141,0.149l-0.118,0.062l0.181,-0.257l0.495,-0.226l0.826,-0.491l0.149,-0.322l-0.11,-0.289l-0.37,-0.465l-0.432,-0.297l-0.283,-0.038l-0.268,-0.219l-0.777,-0.162l-0.752,-0.393l-1.289,-1.327l-0.637,-0.269h-0.224l-0.567,-0.246l-0.129,0.07l0.283,0.386l-0.059,0.176l-0.156,0.071l-0.668,-0.207l-0.309,-0.052l-0.129,0.047l-0.059,0.152h-0.177l-0.329,-0.437l-0.886,-0.662l-0.814,-0.327l-0.248,0.023l-0.517,0.448l-0.09,0.055l-0.153,0.719l0.047,0.14l0.112,0.111v0.176l-0.118,0.216l-0.142,0.053l-0.141,0.128l0.077,-0.134l0.171,-0.111l0.082,-0.146l0.006,-0.158l-0.13,-0.117l-0.112,-0.041l-0.129,-0.252l-0.042,-0.222l-0.177,-0.181l-0.035,-0.111l0.141,-0.135l0.018,-0.274l-0.271,-0.369l-0.26,-0.111l-0.147,-0.555l-0.336,-0.482l-0.438,-0.125l-0.188,0.083l0.107,0.307l0.035,0.468l-0.294,0.24l-0.25,0.062l0.423,-0.357l-0.021,-0.285l-0.188,-0.186l-0.126,-0.766l0.126,-0.146l-0.024,-0.211l-0.522,-0.623l-0.185,-0.325l-0.256,0.013l-0.055,0.203l0.123,0.219l-0.146,0.358l-0.371,0.072l-0.125,-0.049l-0.149,-0.172l-0.205,0.024l-0.141,0.117l0.094,-0.219l0.291,-0.031l0.188,0.19l0.282,-0.031l0.094,-0.135l-0.105,-0.538l0.167,-0.337l0.797,-0.1l0.283,-0.093l0.716,0.171l1.179,0.055l0.307,-0.086l0.26,-0.312l0.251,-0.218l1.683,-0.031l0.401,-0.117l0.252,-0.195l0.07,-0.203l0.15,-0.132l-0.055,-0.086l-0.276,0.14l-1.399,0.125l-0.379,0.114l-3.279,-0.373l-0.258,-0.076l-0.157,0.008l-0.17,0.151l-1.002,0.28l-0.564,-0.14l-1.071,0.013l-0.537,0.22h-0.919l-0.71,0.269l-0.376,0.062l-1.233,-0.165l-0.291,-0.121l-0.168,-0.252l-0.146,0.062l0.019,0.271l-0.437,0.205l-0.942,-0.029l-0.107,-0.094l-0.153,-0.011l-0.141,0.093l-0.307,0.105l-0.271,-0.093l-0.35,-0.024l-0.213,-0.132l-0.204,0.179l0.153,0.293l0.036,0.269l0.157,0.233l0.157,-0.007l0.054,-0.243l0.293,-0.145l0.211,-0.049l0.189,0.047l0.857,-0.063l0.181,0.032l0.205,0.132l0.243,0.024l0.401,0.015l0.449,0.276l0.338,0.145l0.306,-0.054l-0.047,0.085l-0.244,0.086l-1.627,0.152h-0.856l-0.361,-0.239l-0.37,-0.009l-0.107,0.332l-0.165,0.144h-0.522l-0.509,0.158l-0.083,0.281l-0.365,0.14l0.035,0.082l0.448,-0.024l0.095,0.071l-0.755,0.304l-0.913,0.003l-0.522,0.414l-0.355,0.559l-0.689,0.165l-0.463,-0.092l-0.206,0.01l-0.418,0.165l-0.543,0.042l-0.616,-0.22l-0.303,-0.008l-0.438,0.228l-0.314,-0.042l-0.208,-0.31l-1.504,-0.477l-1.567,-0.662l-1.42,-0.974l-0.376,-0.455l0.063,-0.207l0.292,-0.042l0.174,-0.057l-0.007,-0.129l-1.232,-0.476h-0.397l-0.271,0.145l-1.045,-0.042l-1.462,0.104l-1.942,0.021l-1.086,0.352l-1.859,0.124l-0.877,0.207l-1.838,0.228l-1.588,-0.083l-0.438,-0.124l-0.69,-0.829l-0.271,-0.724l0.021,-0.435l0.585,-0.29l-0.021,-0.228l-0.293,-0.29l-0.856,-1.532l-0.752,-0.642l-0.543,-0.186l-0.397,-0.373l-0.522,-0.145l-0.501,-0.435l-0.418,-0.186l-0.627,0.082l-0.564,-0.041l-0.313,-0.264l-0.94,-0.279l-0.344,-0.016l-0.251,0.202l-0.235,0.109l-0.345,-0.109l-0.704,-0.031l-0.282,0.248l-0.188,0.016l-0.204,-0.078l-0.36,-0.404l-0.502,-1.118l-0.282,-1.009l-0.047,-0.621l-0.423,-1.15l-0.344,-0.357l-0.446,-0.147l-0.212,-0.008l-0.736,0.512l-0.345,0.078l-0.172,0.109l0.062,0.17l-0.407,0.668l-0.172,0.513l0.25,0.683l0.251,0.14l0.047,0.326l-0.172,0.497l0.062,0.202l0.345,0.046l1.379,-0.372l0.297,0.046l0.47,-0.217l0.329,0.047l0.439,1.087l-0.016,0.295l-0.423,0.31l-0.298,-0.062l-0.125,-0.295l-0.517,-0.264h-0.517l-0.705,-0.233l0.11,0.124l0.439,0.202l-0.032,0.357l-0.25,0.109l-0.282,-0.186l-0.11,0.015l0.016,0.311l-0.298,0.357l-0.548,0.047l-0.956,0.466l-0.344,-0.047l-0.188,0.078l-0.016,0.186l-0.318,0.108l-0.944,0.011l-1.061,0.246l-1.416,0.877l-1.155,0.55l-0.637,0.128l-0.567,-0.058l-0.365,0.105l-0.012,0.129l0.413,0.21l0.023,0.105l-0.188,0.07l-0.012,0.176l0.106,0.199l-0.059,0.187l-0.295,-0.059l-0.578,0.024l-0.07,0.093l0.365,0.328l-0.012,0.643l0.13,0.105l0.047,0.14l-0.177,0.082l-0.035,0.234l0.118,0.211l0.318,0.198l0.095,0.234l-0.13,0.293l0.024,0.21l0.236,0.14l0.377,0.62l0.071,0.316l0.153,0.164l0.401,0.245l0.248,0.48l0.059,0.339l0.188,0.386l0.319,0.116l0.507,0.725l-0.059,0.199l0.012,0.141l0.165,0.105l0.236,0.397l-0.083,0.129l-0.129,0.737l-0.142,0.222l-0.024,0.245l0.118,0.293l-0.023,0.596l0.118,0.211l-0.071,0.269l-0.33,0.163l-0.602,0.456l-0.094,0.316l-0.142,0.164l-0.236,0.082l-0.424,0.304l-1.073,0.315h-0.637l-0.177,-0.175h-0.484l-0.307,-0.304l0.071,-0.257l-0.047,-0.421l-0.2,-0.117l0.059,-0.211l0.235,-0.058l0.107,-0.421l-0.059,-0.257l-0.225,0.058l-0.165,-0.047l-0.165,-0.28l-0.66,-0.328l-0.248,-0.28l-0.083,-0.433l-0.094,-0.269l-0.672,-0.748l-0.33,-0.527l0.011,-0.163l0.248,-0.199l0.389,-0.655l0.248,-0.666l0.153,-0.211l0.401,-0.164l0.425,-0.526l0.153,-0.479l0.389,-0.585l0.732,-0.468l0.106,-0.222l0.012,-0.339l0.106,-0.292l0.153,-0.702l-0.035,-0.316l-0.484,-0.479l-0.247,-0.573l-0.095,-0.608l-0.177,-0.203l-0.141,-0.039l0.039,-0.109l0.149,-0.023l0.692,0.187l0.087,-0.078l-0.582,-0.351l-0.535,-0.398l-0.55,-0.701l-0.338,-0.663l-0.213,-0.639l-0.055,-0.647l0.055,-0.437l0.126,-0.163l0.276,-0.039l0.149,-0.109l1.612,-0.445l1.219,-0.187l0.165,-0.156l0.212,-0.054l0.092,-0.143l0.16,-0.064l0.094,-0.105l-0.029,-0.123l0.041,-0.129l-0.051,-0.017l-0.103,0.07l0.036,0.129l-0.047,0.052l-0.163,-0.053l-2.584,0.815l-1.269,0.266l-1.77,3.321l-0.22,0.094l-0.47,-0.063l-0.689,0.141l-0.313,0.251l0.047,0.219l-0.548,0.971l-0.486,0.235l-0.266,0.705l-0.157,0.126l-0.188,0.736l-0.532,0.454l-0.236,0.674l-0.234,0.188l-0.094,0.642v0.908l-0.079,0.658l-0.235,0.345l-0.015,0.266l-0.267,0.643l0.047,0.36l0.22,0.125l0.062,0.188l-0.266,0.204l-0.439,0.783l-0.25,0.799l-0.329,0.141l-0.345,0.611l-0.47,0.564l-0.407,0.955l-0.157,0.047l0.032,0.267l0.563,0.094l0.455,-0.079l0.282,-0.297l0.344,-0.063l0.376,-0.36h0.251l0.251,0.642l-0.126,0.298l0.267,0.344l0.313,-0.047l0.078,-0.219l0.408,0.031l0.344,0.22l0.335,1.069l0.425,2.158l0.251,0.107l0.04,0.118l1.187,1.281l0.236,0.181l0.078,0.315l-0.039,0.361l0.228,0.606l-0.078,0.149l0.008,0.15l-0.056,0.086l0.008,0.102l0.158,0.102v0.394l-0.04,0.078l-0.204,-0.188l-0.181,0.007l-0.087,0.276l-0.338,0.228l-0.063,0.133l0.181,0.197l0.079,0.307l-0.024,0.306l-0.11,0.142l-0.039,0.275l-0.024,0.786l0.15,0.401l-0.016,0.213l-0.102,0.141l-0.008,0.205l0.165,0.188l0.055,0.362l0.094,0.055l0.488,0.024l0.165,0.11l0.102,-0.008l0.063,-0.079l0.102,0.008l0.071,0.055l0.15,-0.008l0.102,-0.063l0.236,0.024l0.299,0.385l-0.008,0.118l-0.095,0.157v0.236l0.814,1.439l0.578,0.154l0.354,0.011l0.507,-0.082l0.071,-0.095l-0.036,-0.106l0.118,-0.082h0.449l0.141,0.118l0.047,0.118l0.319,-0.012l0.106,-0.153l0.13,0.011l0.022,0.101l0.093,-0.019l0.166,-0.074l0.049,0.051l-0.094,0.106v0.118l0.106,-0.011l0.094,-0.118h0.248l0.365,0.129l0.248,-0.129l0.307,0.011l0.106,0.107l0.33,-0.024l0.33,-0.059l0.508,0.035l0.401,-0.07l0.145,0.169l0.016,0.133l0.55,0.063l0.209,-0.047l0.106,-0.189l0.141,-0.047l0.158,0.024l0.078,-0.071l-0.062,-0.107l0.054,-0.066l0.095,0.055l0.094,-0.102l0.118,-0.024l0.086,0.063l0.079,-0.008l0.031,-0.11l0.626,-0.137l0.519,0.023l0.436,0.165l0.259,-0.106l0.213,0.106l0.082,0.248l0.307,0.177l0.271,-0.024l0.437,0.189l0.118,0.189l0.306,0.082l0.319,-0.07l0.318,-0.236l0.59,0.012l4.564,5.767h0.107l0.318,-0.2h0.224l0.153,0.318l0.437,0.059l0.436,-0.448l0.177,-0.036l0.236,-0.33l0.437,-0.141l0.165,0.07l0.106,0.142l0.873,0.165l0.165,-0.106l0.236,0.082l0.118,0.154l0.141,0.012l0.165,-0.071l0.295,0.047l0.153,0.118l0.295,0.012l0.201,-0.236l0.2,-0.012l0.154,0.118l0.177,-0.035l0.141,-0.177l0.849,-0.036l0.307,0.154l0.224,-0.024l0.236,-0.212l0.531,-0.071l0.236,-0.142l0.436,0.012l0.224,0.213h0.201l0.542,-0.248l0.543,-0.496l0.259,-0.106l0.283,0.224l0.331,-0.035l0.66,0.059l0.13,0.165l0.165,0.036l0.212,-0.024l0.496,0.425l-0.024,0.153l-0.165,0.094v0.295l0.224,0.389l0.307,0.307l-0.024,0.177l-0.33,0.153l-0.165,0.224l-0.331,0.165l-0.389,0.472l-0.224,0.696l-0.047,0.507l0.118,0.555l0.141,0.118l-0.011,0.153l-0.118,0.083l-0.059,0.271l-0.649,0.495l-0.531,0.283l-0.259,0.283v0.272l0.153,0.153l-0.024,0.365l-0.165,0.295l0.012,0.166l0.236,0.436l-0.047,0.613l-0.106,0.154l0.059,0.99l0.07,0.366l-0.035,0.307l-0.13,0.235v0.649l-0.106,0.118l0.036,0.165l0.33,0.142l0.071,0.224l0.106,0.519l0.094,0.106l-0.047,0.177l-0.165,-0.035l-0.083,0.153l0.083,0.283l-0.024,0.283l0.154,0.448l0.271,0.201l0.236,0.684l0.106,0.766l0.153,0.154l0.094,0.295l0.024,0.283l0.201,0.318l0.448,0.012l0.13,-0.141l0.153,0.047l0.177,0.507l0.153,0.106l0.059,0.283l-0.059,0.224l0.26,0.448l0.011,0.26l0.142,0.153l0.283,0.106l0.201,0.39l-0.083,0.247l-0.366,0.401l-0.011,0.26l-0.107,0.071l-0.247,-0.012l-2.819,2.512v0.495l0.153,-0.011l0.094,-0.213l0.154,-0.059l0.389,-0.035l0.083,0.059l-0.048,0.094l0.567,0.118l0.106,-0.118l0.188,0.047l0.166,0.225l0.129,0.4l-0.047,0.295l0.094,0.083l0.26,-0.094l0.248,0.106l0.118,0.212l0.471,0.342l0.083,0.224l0.625,0.684l0.248,0.083l0.354,0.436v0.201l-0.154,0.153l-0.059,0.307l0.39,0.79l0.165,0.047l0.106,-0.094l0.094,0.071l0.083,0.507l-0.177,0.424l0.082,0.154l0.354,0.365l0.153,0.814l0.472,1.038l-0.023,0.236l0.059,0.094l0.129,0.083l0.189,0.495l-0.059,0.389l0.083,0.189l0.212,0.071l0.118,0.366l-0.177,0.235v0.236l0.13,0.107l0.044,0.133l3.553,3.193l0.696,-0.236l0.177,0.035l0.189,0.177l0.224,-0.012l0.247,-0.118l0.071,-0.295l0.248,-0.047l0.2,0.047l0.236,-0.118l0.177,-0.401l0.425,-0.342l0.649,-0.141l0.251,-0.225l0.74,-0.074l0.459,0.169l0.354,0.649l-0.13,0.436l-0.389,0.413l-0.141,0.307l0.023,0.141l0.26,0.236h0.153l0.307,-0.2l0.236,-0.048l0.377,-0.448l-0.094,-0.342l0.07,-0.165l0.354,-0.366l0.13,-0.283l0.318,-0.035l0.201,0.106l0.13,-0.059l0.106,0.036l-0.036,0.153h0.107l0.188,-0.295l0.13,-0.354l-0.118,-0.153l0.094,-0.295l-0.011,-0.318l0.318,-0.248l0.26,0.047l0.059,0.177l0.283,0.059l0.271,-0.354v-0.224l0.189,-0.153l0.141,0.023l0.154,-0.188l0.129,0.011l-0.012,0.118l0.118,-0.012l0.13,-0.318l0.319,-0.189l0.106,0.095l-0.024,0.177l0.212,0.235l0.201,-0.035l0.153,-0.283l0.342,-0.153l0.236,-0.236l0.189,0.012l0.071,-0.095l-0.047,-0.141l0.188,-0.295l0.177,-0.036l0.378,-0.33l0.247,-0.035l0.248,-0.295l0.271,-0.024l0.083,0.083l-0.083,0.2l-0.33,0.437v0.153l0.26,0.071l0.094,0.141l0.094,-0.011l-0.012,-0.224l0.154,-0.401l0.46,-0.295l0.188,-0.024l0.166,-0.141l0.035,-0.189l0.177,-0.189l0.224,0.024l0.342,-0.437l0.047,-0.542l-0.082,-0.154l0.023,-0.235l0.142,-0.142v-0.153l-0.095,-0.106l0.048,-0.437l0.082,-0.118l0.189,-0.071l0.189,-0.235l0.294,-0.059l0.614,0.141l0.13,-0.012l0.117,-0.106l0.472,-0.106l0.201,-0.283h0.141l0.047,0.153h0.13l0.047,-0.295l0.236,-0.295l0.484,-0.141l0.259,0.106l0.484,-0.094l0.224,-0.177v-0.248l0.13,-0.2l0.071,-0.979l-0.059,-0.26l-0.225,-0.165l-0.153,0.012l-0.094,0.224l-0.142,-0.024l-0.047,-0.094l-0.153,-0.024l-0.177,0.048l-0.177,-0.059l-0.071,-0.095l-0.224,-0.047l-0.342,0.083l-0.566,-0.012l-0.295,-0.094l-0.153,-0.154l-0.26,-0.071l-0.295,0.154l-0.766,-0.024l-0.283,-0.189l0.082,-0.519l0.354,-0.46l-0.035,-0.566l-0.236,-0.613l-0.307,-0.366l-0.224,-0.637l-0.26,-0.058l-0.117,-0.142l0.094,-0.212l-0.13,-0.248l-0.354,-0.224l-0.012,-0.189l0.189,-0.448l-0.071,-0.436l-0.141,-0.342l0.012,-0.449l-0.106,-0.153l0.023,-0.189l0.366,-0.342l0.082,-0.188l-0.023,-0.331l-0.614,-0.648l-0.07,-0.225l-0.968,-0.542l-0.235,0.024l-0.272,-0.189l-0.483,-0.731l-0.46,-0.307l-0.389,-0.672l-0.095,-0.319l-0.212,-0.165l-0.342,-0.201l-0.106,-0.46l0.047,-0.2l0.212,-0.094l0.613,0.271l0.26,0.318l0.165,0.437l0.436,0.165l0.626,-0.071l0.306,-0.106l0.637,0.047l0.189,-0.118l0.153,0.012l0.095,0.106l0.377,0.059l0.153,-0.082l0.13,0.023l0.26,0.212l0.141,0.567l0.366,0.471l0.224,0.071l0.059,0.083l0.012,0.118l0.153,0.212l0.094,-0.012l0.177,-0.377l0.46,-0.13l0.625,0.035l0.165,0.059l0.012,0.118l0.342,0.036l0.106,-0.095l-0.2,-0.106l-0.035,-0.141l0.129,-0.413l0.165,0.023l0.13,0.283l0.189,0.13l0.153,0.224l0.024,0.213l0.46,0.271l0.106,0.012l-0.035,-0.142l0.094,-0.071l0.141,0.107l0.166,-0.036l0.141,-0.318l-0.035,-0.13l-0.189,-0.035l0.012,-0.189l0.318,-0.083l0.425,0.142l0.13,-0.047l0.035,-0.118l0.153,0.047l0.095,0.106l0.401,0.059l0.023,0.106l-0.165,0.401l0.012,0.248l0.2,0.141l0.602,0.107l0.33,0.365l-0.035,0.248l-0.095,0.082l0.024,0.095l0.295,0.13l0.259,0.318l0.236,0.024l0.295,-0.401l0.354,-0.272l0.13,-0.188l0.2,0.035l0.13,0.118l0.047,0.141l0.177,0.118l0.142,-0.129l-0.071,-0.566l0.094,-0.118l-0.059,-0.083l-0.247,-0.071l0.023,-0.118l0.106,-0.047l-0.035,-0.106l-0.201,-0.189l0.048,-0.283l0.165,-0.071l0.059,-0.188l-0.13,-0.095l0.059,-0.247l0.189,-0.083l0.247,0.047l0.401,-0.071l0.283,0.059l0.083,0.107l0.106,0.011l-0.023,-0.141l0.117,-0.059l0.036,-0.13l-0.094,-0.141l0.023,-0.177l0.354,-0.189l0.177,0.047l0.106,-0.094l-0.094,-0.106l0.082,-0.118l0.354,0.012l0.46,0.259l0.436,0.083l0.767,0.318l0.236,-0.083l0.024,-0.165l0.259,-0.236l0.389,-0.023l0.142,-0.142l0.118,0.024l0.212,0.33h0.106l0.106,-0.224l0.413,-0.047l0.083,0.071l0.141,-0.071l-0.023,-0.189l0.271,-0.307l0.684,-0.129l0.201,0.118l0.342,-0.012l0.236,-0.106l0.247,-0.366l-0.071,-0.259l0.071,-0.295l0.401,-0.236l0.708,0.094l0.366,-0.236l0.011,-0.141l-0.259,-0.224l0.059,-0.154l0.377,-0.011l0.543,0.153l0.165,0.165l0.13,-0.024l0.165,-0.141l0.389,-0.071l0.342,0.047l0.425,-0.471l-0.106,-0.319l0.058,-0.141l0.154,-0.036l0.059,-0.165l-0.047,-0.13l0.118,-0.094l0.283,0.094l0.259,-0.153l0.106,-0.13l0.331,-0.047l0.117,-0.094l0.095,-0.201l0.436,-0.389l0.236,-0.389l0.153,-0.024l0.036,-0.212l-0.366,-0.649l-0.106,-0.649l-0.2,-0.235l-0.319,0.059l-0.047,-0.063l0.035,-0.099z"/>
</svg>
