<svg xmlns="http://www.w3.org/2000/svg" viewBox="687.611 625.863 5.399 7.287">
  <path d="M690.659325,628.749744l0.014745,0.00983l-0.004915,0.017203l-0.01966,-0.004915l-0.007373,-0.017203l0.017203,-0.004915Z M692.055197,625.943254l0.031948,0.022118l0.014745,0.02949l0.024575,0.017203l0.017203,0.02949l0.022118,0.007373l0.046693,-0.024575l0.04915,0.007373l0.007373,0.022118h0.012288l0.00983,-0.014745l0.054065,-0.007373l0.012288,0.017203l0.017203,0.012288l0.034405,-0.007373l0.036863,0.01966l0.056523,0.014745l0.066353,-0.004915l0.095843,0.012288l0.066353,0.01966l0.007373,0.031948l0.007373,0.004915l0.034405,0.002458l0.083556,0.056523l0.027033,0.00983l0.017203,0.024575l0.056523,0.044235l0.031948,-0.007373l0.014745,-0.02949l-0.01966,-0.073726l-0.04915,-0.071268l-0.027033,-0.017203l-0.054065,-0.081098l-0.017203,-0.014745l-0.024575,-0.004915l-0.01966,-0.014745l-0.007373,-0.024575l-0.01966,-0.014745l-0.01966,0.004915l-0.01966,-0.00983l-0.014745,-0.022118l-0.127791,-0.044235l-0.044235,0.00983l-0.024575,0.03932l-0.031948,0.007373l-0.051608,-0.022118l-0.031948,-0.004915l-0.01966,0.017203h-0.03932l-0.027033,-0.024575l-0.058981,-0.01966l-0.046693,0.002458l-0.031948,0.022118l-0.066353,0.007373l-0.027033,-0.012288l-0.024575,0.004915l-0.022118,0.027033l0.012288,0.024575Z M691.062358,628.553142l0.027033,-0.00983v-0.01966l-0.02949,-0.007373l-0.014745,0.022118l0.017203,0.014745Z M691.799615,628.196802l0.017203,-0.00983l0.012288,-0.031948l-0.017203,-0.014745l-0.01966,0.00983l-0.004915,0.034405l0.012288,0.012288Z M690.649495,628.926686l0.014745,0.014745l0.061438,-0.022118l0.031948,0.012288l0.012288,-0.014745l-0.017203,-0.024575l0.058981,-0.041778l0.054065,0.017203l0.02949,-0.007373l-0.004915,-0.034405l-0.086013,-0.004915l-0.046693,0.01966l-0.061438,-0.014745l-0.007373,0.00983l0.034405,0.024575l0.002458,0.017203l-0.027033,0.014745l-0.024575,-0.022118l-0.00983,0.004915v0.031948l-0.014745,0.01966Z M691.271248,628.511365l0.027033,-0.012288l0.014745,0.031948l0.022118,0.014745l0.00983,-0.012288l-0.017203,-0.022118v-0.022118l0.022118,-0.012288l0.004915,-0.01966l-0.046693,0.002458l-0.03932,0.01966l-0.014745,0.027033l0.017203,0.004915Z M691.748007,628.304933l0.00983,0.017203l0.01966,-0.014745l0.002458,-0.01966l-0.01966,0.002458l-0.012288,0.014745Z M690.745338,628.624411l0.036863,0.027033l0.034405,-0.002458l0.041778,0.012288l0.073726,-0.031948l0.044235,0.004915l0.027033,0.027033l0.014745,0.056523l-0.017203,0.027033l0.00983,0.02949l0.044235,0.012288l0.01966,-0.017203l-0.01966,-0.034405l-0.007373,-0.073726l0.00983,-0.068811l-0.014745,-0.007373l-0.01966,0.012288l-0.036863,-0.017203l-0.041778,-0.034405l-0.007373,0.00983l0.017203,0.02949l-0.007373,0.017203l-0.03932,0.004915l-0.027033,-0.024575l-0.04915,0.004915l-0.022118,0.027033l-0.036863,-0.004915l-0.027033,0.014745Z M691.416241,628.464672l0.004915,0.041778l0.073726,0.01966l0.007373,-0.027033l-0.017203,-0.024575h-0.034405l-0.012288,-0.017203l0.017203,-0.034405v-0.022118l-0.02949,-0.017203l-0.017203,-0.022118l-0.00983,0.004915v0.031948l-0.017203,0.02949l0.034405,0.036863Z M691.60547,628.378658l0.01966,0.034405l0.04915,0.002458l0.002458,-0.017203l-0.024575,-0.014745v-0.017203l0.02949,-0.012288l0.007373,-0.017203l-0.04915,-0.002458l-0.086013,0.041778l-0.007373,0.01966l0.058981,-0.017203Z M692.141258,627.525995l0.006168,0.018504l0.021588,0.006168l0.030839,-0.01542l0.018504,-0.040091l-0.024672,-0.006168l-0.024672,0.021588l-0.027756,0.01542Z M692.40031,627.414973l0.018504,0.021588l0.037007,-0.030839l-0.012336,-0.024672l-0.037007,0.006168l-0.006168,0.027756Z M692.344799,627.56917l0.024672,0.01542l0.040091,-0.009252l0.003084,-0.018504l-0.040091,-0.01542l-0.018504,-0.033923l-0.030839,-0.012336l-0.003084,0.030839l0.024672,0.043175Z M692.40031,627.529079l0.024672,0.009252l0.021588,-0.018504l-0.012336,-0.01542l-0.018504,0.003084l-0.01542,0.021588Z M691.018701,627.837474l0.027756,0.003084l0.01542,-0.037007l0.040091,-0.021588l-0.003084,-0.030839l-0.037007,-0.024672l-0.037007,0.012336l-0.030839,-0.012336l-0.006168,-0.049343l-0.030839,-0.012336l-0.024672,0.021588l0.033923,0.021588l0.003084,0.030839l-0.040091,0.030839l0.01542,0.01542l0.040091,-0.003084l0.033923,0.055511Z M691.188318,627.896069l0.021588,0.01542l0.006168,-0.021588l-0.009252,-0.024672l-0.024672,0.003084l0.006168,0.027756Z M691.752681,627.661688h0.030839l0.009252,-0.021588l-0.027756,-0.012336l-0.027756,0.012336l0.01542,0.021588Z M691.66633,627.732619l0.01542,-0.009252v-0.021588l-0.018504,-0.003084l-0.012336,0.024672l0.01542,0.009252Z M691.740345,627.748039l0.024672,-0.01542l0.046259,-0.003084l0.006168,-0.01542l-0.052427,-0.012336h-0.021588l-0.01542,0.033923l0.012336,0.012336Z M691.909962,627.563002l0.027756,-0.003084l0.006168,-0.018504l-0.030839,-0.006168l-0.01542,0.012336l0.012336,0.01542Z M689.202255,628.108861l0.021588,-0.024672l-0.009252,-0.021588l-0.033923,0.012336l-0.006168,0.027756l0.027756,0.006168Z M689.831381,628.42034l0.049343,-0.012336l0.030839,0.01542l0.018504,-0.003084l0.003084,-0.024672l0.086351,-0.033923l-0.027756,-0.006168l-0.052427,0.01542h-0.058595l-0.067847,0.033923l0.018504,0.01542Z M689.313277,628.02251l0.046259,0.003084l0.021588,-0.021588l-0.037007,-0.074015l-0.027756,-0.003084l-0.01542,0.021588l0.021588,0.037007l-0.009252,0.037007Z M690.028754,627.93616l0.043175,-0.006168l0.01542,-0.021588l-0.058595,-0.024672l-0.033923,0.009252l0.003084,0.033923l0.030839,0.009252Z M690.108936,628.056434l0.018504,-0.012336l-0.012336,-0.021588l-0.024672,0.003084l-0.003084,0.027756l0.021588,0.003084Z M690.059593,628.438844l0.037007,-0.006168l-0.006168,-0.024672l-0.030839,-0.003084l-0.030839,0.021588l0.030839,0.012336Z M689.621672,627.979335l0.009252,0.024672l0.046259,0.01542l0.046259,-0.003084l0.030839,-0.018504l0.027756,0.009252l0.01542,0.021588l0.018504,0.003084l0.009252,-0.040091h0.018504l0.01542,0.037007l0.080183,0.024672l0.030839,-0.01542l-0.009252,-0.021588l0.01542,-0.009252l0.030839,0.030839l0.027756,-0.01542l-0.009252,-0.037007l-0.024672,-0.003084l-0.021588,-0.024672l-0.009252,-0.037007l-0.064763,-0.021588l-0.114106,-0.003084l-0.046259,0.055511l-0.061679,0.021588l-0.061679,0.006168Z M691.237661,627.896069l0.027756,-0.006168l0.049343,-0.049343l-0.012336,-0.033923l-0.027756,-0.009252v-0.030839l0.037007,-0.070931l-0.033923,-0.037007l0.01542,-0.021588l-0.021588,-0.021588l-0.040091,0.024672l-0.003084,0.027756l0.012336,0.067847l0.009252,0.067847l-0.018504,0.040091l0.006168,0.052427Z M691.364103,627.831306l0.030839,0.009252l0.043175,-0.003084l0.037007,-0.018504l0.009252,-0.021588l-0.061679,-0.006168l-0.049343,0.018504l-0.024672,-0.006168l-0.021588,0.009252l0.006168,0.018504h0.030839Z M691.845199,628.099609l0.021588,0.018504l0.024672,-0.027756l0.037007,-0.012336l0.043175,0.009252l0.024672,-0.01542l-0.009252,-0.030839l-0.030839,-0.021588l0.021588,-0.120274l0.027756,-0.030839l0.077099,-0.052427l0.138778,0.006168l0.021588,-0.024672l-0.030839,-0.027756l0.018504,-0.064763l0.037007,-0.006168l0.037007,0.030839l0.027756,-0.003084l0.024672,-0.024672l0.061679,-0.003084l0.027756,-0.018504l0.006168,-0.027756l0.049343,-0.018504l0.052427,0.012336l0.070931,-0.027756l0.061679,-0.046259l-0.033923,-0.009252l-0.107938,0.01542l-0.064763,0.040091l-0.012336,-0.003084l0.018504,-0.033923l-0.012336,-0.009252l-0.052427,0.024672l0.003084,0.040091l-0.021588,0.012336l-0.11719,0.018504l-0.027756,-0.01542l0.024672,-0.027756l-0.027756,-0.018504l-0.046259,0.003084l-0.018504,-0.027756l-0.046259,-0.018504l-0.095602,0.006168l-0.006168,0.01542l0.030839,0.021588l-0.027756,0.13261l0.006168,0.067847l-0.052427,0.033923l-0.040091,-0.003084l-0.077099,0.027756l-0.009252,0.027756l0.027756,0.040091l-0.012336,0.043175l-0.021588,0.018504l-0.021588,0.104854Z M691.082018,628.098501l0.00983,0.036863l0.02949,0.007373l0.002458,-0.014745l-0.014745,-0.012288l-0.014745,-0.01966l-0.012288,0.002458Z M691.128711,627.953507l0.01966,0.036863l0.044235,0.02949l0.073726,-0.002458l0.051608,0.034405l0.00983,0.04915h0.022118l0.03932,-0.036863l-0.002458,-0.051608l-0.073726,-0.063896l-0.01966,0.004915l-0.022118,0.027033l-0.014745,-0.007373l0.002458,-0.027033l-0.031948,-0.007373l-0.036863,0.034405l-0.022118,-0.00983l-0.007373,-0.031948l-0.024575,-0.002458l-0.007373,0.024575Z M690.113755,628.378658l0.076183,0.002458l0.083556,-0.01966l0.034405,0.002458l0.00983,0.024575l0.02949,0.027033l0.058981,-0.002458l0.017203,-0.027033l0.063896,-0.041778l0.041778,0.002458l0.03932,-0.017203l0.02949,-0.004915l0.017203,-0.022118v-0.02949l-0.017203,-0.027033l0.007373,-0.024575l0.014745,-0.002458l0.002458,0.01966l0.014745,0.017203h0.058981l0.031948,-0.00983l0.01966,-0.02949l0.002458,-0.022118l-0.027033,-0.004915l-0.00983,-0.02949l0.01966,-0.01966l-0.004915,-0.01966l0.01966,-0.022118l0.036863,0.022118l0.022118,0.03932l0.073726,0.044235h0.027033l0.002458,-0.022118l0.022118,-0.002458l0.012288,0.017203l0.034405,-0.007373l0.078641,-0.068811l0.002458,-0.041778l-0.01966,-0.00983l0.004915,-0.034405l0.034405,-0.017203l0.041778,0.007373l0.012288,-0.022118l-0.027033,-0.044235l-0.007373,-0.066353l-0.041778,-0.017203l-0.056523,0.014745l-0.01966,0.02949l-0.044235,0.024575l-0.024575,-0.012288l-0.014745,0.004915l-0.002458,0.027033l-0.056523,-0.002458l-0.022118,-0.027033l-0.002458,-0.024575h-0.012288l-0.017203,0.031948l-0.073726,0.00983l-0.100758,-0.014745l-0.024575,-0.014745l-0.041778,-0.002458l-0.00983,0.01966l-0.017203,0.012288l-0.02949,-0.004915l-0.007373,0.012288l0.02949,0.00983l0.004915,0.02949l-0.022118,0.014745l-0.04915,-0.02949l-0.00983,0.007373l-0.002458,0.01966l-0.02949,0.024575l0.002458,0.044235l0.036863,0.004915l0.012288,0.017203l-0.014745,0.031948l-0.041778,0.024575l-0.031948,0.002458l-0.014745,0.01966l0.00983,0.022118l-0.027033,0.058981l-0.044235,0.041778l-0.078641,0.007373l-0.02949,-0.014745l-0.024575,0.00983l-0.007373,0.02949l-0.083556,0.022118l-0.012288,0.017203l0.061438,0.004915Z M690.123585,628.408149l-0.002458,0.017203l0.041778,0.004915l0.041778,-0.004915l0.00983,-0.027033l-0.044235,-0.004915l-0.046693,0.014745Z "/>
  <path  fill="#bbb" d="M688.863021,633.149575l-0.027756,-0.046259l0.120274,-0.1249l0.02313,-0.106396l-0.069389,-0.203541l0.037007,-0.138778l0.097144,-0.046259l0.231296,0.050885l0.166533,-0.055511l0.032381,-0.050885l0.037007,-0.013878l0.050885,0.004626l0.106396,-0.032381l0.1249,0.027756l0.029298,0.046259l0.021588,-0.013878v-0.044717l0.033923,-0.009252 l0.10948,0.137236l0.143404,0.097144l0.067847,0.009252l0.043175,-0.055511l0.152655,-0.046259l0.185037,0.018504l0.185037,-0.004626l0.046259,0.027756h0.097144l0.064763,-0.027756l0.092518,0.013878l0.013878,0.032381l-0.078641,0.060137l-0.10177,-0.004626l-0.064763,0.018504l-0.050885,0.064763l-0.1249,0.041633l-0.027756,0.037007l-0.046259,0.009252l-0.055511,-0.009252l-0.083267,0.02313l-0.009252,0.041633l-0.041633,0.009252l-0.041633,-0.009252l-0.050885,0.027756l-0.032381,0.032381l-0.135694,0.00771l-0.044717,0.033923l-0.032381,-0.004626l-0.067847,-0.032381l-0.049343,0.01542l-0.00771,0.040091l-0.020046,0.009252l-0.024672,-0.030839l-0.089435,0.024672l-0.027756,-0.012336l-0.030839,-0.058595v0.033923l0.030839,0.061679l-0.01542,0.012336l-0.061679,-0.030839l-0.080183,-0.009252l-0.268304,0.078641l-0.050885,0.032381l-0.037007,-0.009252v-0.041633l-0.268304,0.02313l-0.1249,0.069389Z M689.763534,633.064767l0.012336,0.027756l0.024672,0.006168l0.012336,-0.021588l-0.033923,-0.018504l-0.01542,0.006168Z M689.149828,629.471966l0.021588,0.003084l0.009252,-0.01542l-0.012336,-0.009252h-0.021588l0.003084,0.021588Z M690.491346,628.824337l0.018504,-0.01542v-0.021588l-0.021588,-0.003084l-0.012336,0.024672l0.01542,0.01542Z M690.238462,628.886016h0.021588v-0.018504l-0.021588,-0.009252l-0.012336,0.018504l0.012336,0.009252Z M688.859937,629.145068l0.012336,0.018504l0.030839,-0.018504l-0.003084,-0.021588l-0.021588,0.003084l-0.018504,0.018504Z M688.921616,629.175907l0.021588,-0.003084l0.012336,-0.01542l-0.01542,-0.012336l-0.030839,0.012336l0.012336,0.018504Z M687.774387,628.451179l0.024672,-0.01542l-0.006168,-0.024672l-0.024672,0.006168l-0.012336,0.021588l0.018504,0.012336Z M687.795975,628.278478l0.018504,-0.012336l-0.01542,-0.018504l-0.018504,0.009252l-0.003084,0.018504l0.018504,0.003084Z M688.378841,628.355577l0.021588,-0.012336l-0.018504,-0.027756l-0.012336,-0.030839l-0.018504,0.003084v0.046259l0.027756,0.021588Z M688.360337,628.423424l0.037007,0.027756l0.018504,0.003084l-0.012336,-0.052427l-0.037007,-0.018504l-0.01542,0.006168l0.009252,0.033923Z M689.01105,628.574537h0.043175l0.049343,0.018504l0.074015,0.012336l0.018504,-0.027756l-0.027756,-0.018504l-0.052427,0.006168l-0.061679,-0.01542l-0.046259,0.012336l0.003084,0.012336Z M689.282438,628.596125l0.049343,-0.018504h0.067847l0.003084,-0.012336l-0.064763,-0.009252l-0.089435,0.018504l-0.01542,0.021588h0.049343Z M689.427384,628.55295l-0.006168,0.021588l0.030839,0.006168l0.043175,-0.01542l0.033923,-0.021588l-0.029779,-0.007758l-0.041151,0.013926l-0.030839,0.003084Z M688.187636,628.969283l0.024672,-0.018504l-0.01542,-0.027756h-0.021588l-0.009252,0.033923l0.021588,0.012336Z M688.607053,628.784246l0.006168,0.037007l0.021588,0.012336l0.01542,-0.024672l-0.018504,-0.046259l-0.021588,-0.024672l-0.018504,0.021588l0.01542,0.024672Z M688.468275,628.950779l0.030839,-0.01542l0.012336,-0.083267l0.033923,-0.012336l0.027756,0.030839l0.018504,-0.003084l-0.027756,-0.077099l-0.030839,-0.006168l-0.052427,0.052427l-0.030839,0.040091l-0.003084,0.049343l0.021588,0.024672Z M687.638693,628.747238l0.037007,-0.012336l0.027756,-0.018504l-0.003084,-0.049343l-0.018504,-0.006168l-0.049343,0.040091l-0.021588,0.049343l0.027756,-0.003084Z M688.779754,628.235303l0.027756,0.012336l0.021588,-0.009252l-0.006168,-0.033923l-0.030839,-0.009252l-0.01542,0.01542l0.003084,0.024672Z M688.755083,628.28773l0.003084,0.030839l0.030839,0.055511h0.030839l0.021588,-0.024672l0.003084,-0.037007l-0.030839,-0.043175l-0.055511,-0.018504l-0.021588,0.01542l0.018504,0.021588Z M687.826814,628.571453l0.027756,-0.006168v-0.021588l-0.037007,-0.009252l-0.009252,0.018504l0.018504,0.018504Z M687.879241,628.599209h0.021588l0.009252,-0.021588l-0.027756,-0.012336l-0.018504,0.01542l0.01542,0.018504Z M689.282438,628.966199l0.040091,-0.021588l0.030839,-0.052427l-0.027756,-0.018504l-0.027756,0.01542v0.037007l-0.030839,0.030839l0.01542,0.009252Z M689.353369,629.012458l0.01542,-0.012336l-0.018504,-0.037007l-0.033923,0.009252l-0.009252,0.030839l0.046259,0.009252Z M689.39346,629.027878h0.021588v-0.021588l-0.018504,-0.006168l-0.01542,0.01542l0.012336,0.012336Z M689.797457,628.512858l0.006168,-0.021588h-0.024672l-0.01542,0.012336l0.012336,0.012336l0.021588,-0.003084Z M689.563077,628.630048v-0.021588h-0.018504l-0.012336,0.009252l0.01542,0.01542l0.01542,-0.003084Z M689.519902,628.734903l-0.006168,0.064763l0.027756,0.037007l0.030839,-0.006168l0.018504,0.009252l-0.021588,0.033923l0.009252,0.021588h0.055511l0.046259,-0.043175l0.030839,0.003084l0.012336,0.024672v0.033923l0.012336,-0.009252l0.003084,-0.074015l0.018504,0.006168l0.006168,0.033923h0.040091l0.040091,-0.049343 l0.030839,0.009252l0.030839,0.037007l0.046259,0.01542l0.040091,-0.030839l0.033923,0.01542l0.003084,0.027756l-0.009252,0.030839l0.01542,0.009252l0.024672,-0.01542l0.021588,0.01542l0.033923,-0.006168l0.018504,0.024672l0.006168,0.049343l0.024672,-0.006168l0.003084,-0.040091l-0.009252,-0.083267l0.021588,-0.043175l-0.012336,-0.043175l-0.037007,-0.018504l-0.046259,-0.046259l-0.018504,-0.049343l0.018504,-0.009252l0.040091,0.037007l0.027756,-0.012336l-0.012336,-0.037007l0.006168,-0.033923l0.049343,-0.01542l0.024672,0.024672l-0.006168,0.058595l0.01542,0.021588l0.040091,-0.040091l0.046259,0.018504l0.021588,0.040091l-0.009252,0.030839l0.018504,0.030839l0.027756,-0.009252l0.006168,-0.040091l0.033923,-0.021588l-0.003084,-0.037007l-0.030839,-0.024672l-0.040091,-0.012336l-0.021588,0.009252l-0.024672,-0.009252l-0.037007,-0.033923l-0.003084,-0.030839l-0.055511,-0.027756l-0.043175,0.009252l-0.033923,-0.009252l-0.037007,-0.033923h-0.043175l-0.030839,0.027756l-0.104854,-0.006168l0.01542,-0.021588l0.027756,0.003084l0.003084,-0.012336l-0.030839,-0.021588l-0.074015,-0.006168l-0.021588,0.021588l0.009252,0.024672l0.030839,0.003084l0.012336,0.027756l-0.012336,0.027756l-0.040091,0.006168l-0.027756,0.027756l-0.033923,-0.003084l-0.021588,-0.018504l-0.024672,0.003084l-0.009252,0.027756l-0.027756,0.006168l-0.021588,-0.021588l-0.012336,0.012336l0.003084,0.024672l-0.021588,0.01542l-0.027756,-0.037007l-0.012336,0.009252l0.003084,0.037007l-0.021588,0.030839l-0.049343,0.030839Z M689.462512,628.518737l0.03932,-0.002458l0.01966,-0.00983l-0.03932,-0.002458l-0.034405,0.00983l0.014745,0.004915Z M687.978169,628.671103l0.024575,0.02949l0.036863,-0.002458l0.00983,-0.017203l0.034405,-0.007373l0.012288,0.01966l0.01966,0.002458l0.012288,-0.017203l0.066353,-0.024575l0.027033,-0.024575l0.044235,0.012288l0.01966,0.027033l0.04915,0.00983v0.041778l-0.044235,0.004915l-0.002458,0.017203l0.061438,-0.002458l0.012288,0.031948l0.017203,0.00983l0.017203,-0.041778l0.02949,0.00983l-0.007373,0.056523l0.017203,0.00983l0.012288,-0.022118l0.02949,-0.004915l0.022118,-0.036863l0.031948,-0.014745l0.01966,0.012288h0.022118l0.012288,-0.027033l0.03932,-0.012288l0.056523,0.00983l0.02949,0.01966v0.017203l-0.024575,0.014745v0.024575l0.014745,0.027033l-0.014745,0.022118l0.007373,0.00983l0.034405,-0.004915l0.076183,0.058981l0.04915,0.017203l0.01966,-0.022118l0.031948,-0.007373l0.02949,0.027033l0.034405,0.012288l0.027033,0.027033l0.03932,-0.002458l0.012288,-0.022118l-0.014745,-0.03932l0.01966,-0.031948l0.095843,-0.007373l0.056523,0.044235l0.017203,-0.004915l-0.007373,-0.017203l0.00983,-0.017203l0.031948,0.012288l0.00983,-0.014745l-0.036863,-0.027033l0.027033,-0.014745l0.031948,0.004915l0.017203,-0.00983l-0.044235,-0.014745l-0.044235,0.017203h-0.027033l-0.024575,0.007373l-0.034405,-0.004915l0.044235,-0.024575h0.027033l0.00983,-0.027033l-0.044235,-0.031948l0.014745,-0.022118l-0.017203,-0.00983l-0.02949,0.00983l-0.034405,-0.036863l-0.034405,-0.017203l-0.004915,-0.022118l-0.098301,-0.03932l-0.027033,0.004915l-0.017203,-0.004915l-0.002458,-0.02949l-0.024575,-0.01966l-0.024575,0.007373l-0.044235,-0.024575l-0.066353,-0.007373l-0.046693,-0.027033l-0.022118,-0.02949l-0.063896,-0.02949l-0.017203,-0.01966l-0.034405,-0.00983l0.034405,0.03932l0.076183,0.056523l0.01966,0.027033l-0.017203,0.031948l-0.027033,0.007373l-0.071268,-0.034405l-0.017203,-0.036863l-0.036863,-0.022118l-0.02949,-0.02949l-0.007373,0.004915l0.007373,0.017203l0.007373,0.022118l-0.017203,0.012288l-0.063896,-0.00983l-0.031948,0.004915l-0.078641,-0.022118l-0.031948,0.00983l-0.02949,-0.004915l-0.01966,0.012288l-0.014745,0.056523l-0.022118,0.002458l-0.012288,-0.027033l-0.034405,-0.007373l-0.022118,0.02949l-0.117961,0.007373l-0.036863,0.01966l-0.022118,0.034405l-0.034405,0.004915l-0.004915,0.017203l0.061438,0.036863Z "/>
</svg>
