<svg xmlns="http://www.w3.org/2000/svg" viewBox="689.175 625.863 3.835 3.079">
  <path d="M690.659325,628.749744l0.014745,0.00983l-0.004915,0.017203l-0.01966,-0.004915l-0.007373,-0.017203l0.017203,-0.004915Z M692.055197,625.943254l0.031948,0.022118l0.014745,0.02949l0.024575,0.017203l0.017203,0.02949l0.022118,0.007373l0.046693,-0.024575l0.04915,0.007373l0.007373,0.022118h0.012288l0.00983,-0.014745l0.054065,-0.007373l0.012288,0.017203l0.017203,0.012288l0.034405,-0.007373l0.036863,0.01966l0.056523,0.014745l0.066353,-0.004915l0.095843,0.012288l0.066353,0.01966l0.007373,0.031948l0.007373,0.004915l0.034405,0.002458l0.083556,0.056523l0.027033,0.00983l0.017203,0.024575l0.056523,0.044235l0.031948,-0.007373l0.014745,-0.02949l-0.01966,-0.073726l-0.04915,-0.071268l-0.027033,-0.017203l-0.054065,-0.081098l-0.017203,-0.014745l-0.024575,-0.004915l-0.01966,-0.014745l-0.007373,-0.024575l-0.01966,-0.014745l-0.01966,0.004915l-0.01966,-0.00983l-0.014745,-0.022118l-0.127791,-0.044235l-0.044235,0.00983l-0.024575,0.03932l-0.031948,0.007373l-0.051608,-0.022118l-0.031948,-0.004915l-0.01966,0.017203h-0.03932l-0.027033,-0.024575l-0.058981,-0.01966l-0.046693,0.002458l-0.031948,0.022118l-0.066353,0.007373l-0.027033,-0.012288l-0.024575,0.004915l-0.022118,0.027033l0.012288,0.024575Z M691.062358,628.553142l0.027033,-0.00983v-0.01966l-0.02949,-0.007373l-0.014745,0.022118l0.017203,0.014745Z M691.799615,628.196802l0.017203,-0.00983l0.012288,-0.031948l-0.017203,-0.014745l-0.01966,0.00983l-0.004915,0.034405l0.012288,0.012288Z M690.649495,628.926686l0.014745,0.014745l0.061438,-0.022118l0.031948,0.012288l0.012288,-0.014745l-0.017203,-0.024575l0.058981,-0.041778l0.054065,0.017203l0.02949,-0.007373l-0.004915,-0.034405l-0.086013,-0.004915l-0.046693,0.01966l-0.061438,-0.014745l-0.007373,0.00983l0.034405,0.024575l0.002458,0.017203l-0.027033,0.014745l-0.024575,-0.022118l-0.00983,0.004915v0.031948l-0.014745,0.01966Z M691.271248,628.511365l0.027033,-0.012288l0.014745,0.031948l0.022118,0.014745l0.00983,-0.012288l-0.017203,-0.022118v-0.022118l0.022118,-0.012288l0.004915,-0.01966l-0.046693,0.002458l-0.03932,0.01966l-0.014745,0.027033l0.017203,0.004915Z M691.748007,628.304933l0.00983,0.017203l0.01966,-0.014745l0.002458,-0.01966l-0.01966,0.002458l-0.012288,0.014745Z M690.745338,628.624411l0.036863,0.027033l0.034405,-0.002458l0.041778,0.012288l0.073726,-0.031948l0.044235,0.004915l0.027033,0.027033l0.014745,0.056523l-0.017203,0.027033l0.00983,0.02949l0.044235,0.012288l0.01966,-0.017203l-0.01966,-0.034405l-0.007373,-0.073726l0.00983,-0.068811l-0.014745,-0.007373l-0.01966,0.012288l-0.036863,-0.017203l-0.041778,-0.034405l-0.007373,0.00983l0.017203,0.02949l-0.007373,0.017203l-0.03932,0.004915l-0.027033,-0.024575l-0.04915,0.004915l-0.022118,0.027033l-0.036863,-0.004915l-0.027033,0.014745Z M691.416241,628.464672l0.004915,0.041778l0.073726,0.01966l0.007373,-0.027033l-0.017203,-0.024575h-0.034405l-0.012288,-0.017203l0.017203,-0.034405v-0.022118l-0.02949,-0.017203l-0.017203,-0.022118l-0.00983,0.004915v0.031948l-0.017203,0.02949l0.034405,0.036863Z M691.60547,628.378658l0.01966,0.034405l0.04915,0.002458l0.002458,-0.017203l-0.024575,-0.014745v-0.017203l0.02949,-0.012288l0.007373,-0.017203l-0.04915,-0.002458l-0.086013,0.041778l-0.007373,0.01966l0.058981,-0.017203Z M692.141258,627.525995l0.006168,0.018504l0.021588,0.006168l0.030839,-0.01542l0.018504,-0.040091l-0.024672,-0.006168l-0.024672,0.021588l-0.027756,0.01542Z M692.40031,627.414973l0.018504,0.021588l0.037007,-0.030839l-0.012336,-0.024672l-0.037007,0.006168l-0.006168,0.027756Z M692.344799,627.56917l0.024672,0.01542l0.040091,-0.009252l0.003084,-0.018504l-0.040091,-0.01542l-0.018504,-0.033923l-0.030839,-0.012336l-0.003084,0.030839l0.024672,0.043175Z M692.40031,627.529079l0.024672,0.009252l0.021588,-0.018504l-0.012336,-0.01542l-0.018504,0.003084l-0.01542,0.021588Z M691.018701,627.837474l0.027756,0.003084l0.01542,-0.037007l0.040091,-0.021588l-0.003084,-0.030839l-0.037007,-0.024672l-0.037007,0.012336l-0.030839,-0.012336l-0.006168,-0.049343l-0.030839,-0.012336l-0.024672,0.021588l0.033923,0.021588l0.003084,0.030839l-0.040091,0.030839l0.01542,0.01542l0.040091,-0.003084l0.033923,0.055511Z M691.188318,627.896069l0.021588,0.01542l0.006168,-0.021588l-0.009252,-0.024672l-0.024672,0.003084l0.006168,0.027756Z M691.752681,627.661688h0.030839l0.009252,-0.021588l-0.027756,-0.012336l-0.027756,0.012336l0.01542,0.021588Z M691.66633,627.732619l0.01542,-0.009252v-0.021588l-0.018504,-0.003084l-0.012336,0.024672l0.01542,0.009252Z M691.740345,627.748039l0.024672,-0.01542l0.046259,-0.003084l0.006168,-0.01542l-0.052427,-0.012336h-0.021588l-0.01542,0.033923l0.012336,0.012336Z M691.909962,627.563002l0.027756,-0.003084l0.006168,-0.018504l-0.030839,-0.006168l-0.01542,0.012336l0.012336,0.01542Z M689.202255,628.108861l0.021588,-0.024672l-0.009252,-0.021588l-0.033923,0.012336l-0.006168,0.027756l0.027756,0.006168Z M689.831381,628.42034l0.049343,-0.012336l0.030839,0.01542l0.018504,-0.003084l0.003084,-0.024672l0.086351,-0.033923l-0.027756,-0.006168l-0.052427,0.01542h-0.058595l-0.067847,0.033923l0.018504,0.01542Z M689.313277,628.02251l0.046259,0.003084l0.021588,-0.021588l-0.037007,-0.074015l-0.027756,-0.003084l-0.01542,0.021588l0.021588,0.037007l-0.009252,0.037007Z M690.028754,627.93616l0.043175,-0.006168l0.01542,-0.021588l-0.058595,-0.024672l-0.033923,0.009252l0.003084,0.033923l0.030839,0.009252Z M690.108936,628.056434l0.018504,-0.012336l-0.012336,-0.021588l-0.024672,0.003084l-0.003084,0.027756l0.021588,0.003084Z M690.059593,628.438844l0.037007,-0.006168l-0.006168,-0.024672l-0.030839,-0.003084l-0.030839,0.021588l0.030839,0.012336Z M689.621672,627.979335l0.009252,0.024672l0.046259,0.01542l0.046259,-0.003084l0.030839,-0.018504l0.027756,0.009252l0.01542,0.021588l0.018504,0.003084l0.009252,-0.040091h0.018504l0.01542,0.037007l0.080183,0.024672l0.030839,-0.01542l-0.009252,-0.021588l0.01542,-0.009252l0.030839,0.030839l0.027756,-0.01542l-0.009252,-0.037007l-0.024672,-0.003084l-0.021588,-0.024672l-0.009252,-0.037007l-0.064763,-0.021588l-0.114106,-0.003084l-0.046259,0.055511l-0.061679,0.021588l-0.061679,0.006168Z M691.237661,627.896069l0.027756,-0.006168l0.049343,-0.049343l-0.012336,-0.033923l-0.027756,-0.009252v-0.030839l0.037007,-0.070931l-0.033923,-0.037007l0.01542,-0.021588l-0.021588,-0.021588l-0.040091,0.024672l-0.003084,0.027756l0.012336,0.067847l0.009252,0.067847l-0.018504,0.040091l0.006168,0.052427Z M691.364103,627.831306l0.030839,0.009252l0.043175,-0.003084l0.037007,-0.018504l0.009252,-0.021588l-0.061679,-0.006168l-0.049343,0.018504l-0.024672,-0.006168l-0.021588,0.009252l0.006168,0.018504h0.030839Z M691.845199,628.099609l0.021588,0.018504l0.024672,-0.027756l0.037007,-0.012336l0.043175,0.009252l0.024672,-0.01542l-0.009252,-0.030839l-0.030839,-0.021588l0.021588,-0.120274l0.027756,-0.030839l0.077099,-0.052427l0.138778,0.006168l0.021588,-0.024672l-0.030839,-0.027756l0.018504,-0.064763l0.037007,-0.006168l0.037007,0.030839l0.027756,-0.003084l0.024672,-0.024672l0.061679,-0.003084l0.027756,-0.018504l0.006168,-0.027756l0.049343,-0.018504l0.052427,0.012336l0.070931,-0.027756l0.061679,-0.046259l-0.033923,-0.009252l-0.107938,0.01542l-0.064763,0.040091l-0.012336,-0.003084l0.018504,-0.033923l-0.012336,-0.009252l-0.052427,0.024672l0.003084,0.040091l-0.021588,0.012336l-0.11719,0.018504l-0.027756,-0.01542l0.024672,-0.027756l-0.027756,-0.018504l-0.046259,0.003084l-0.018504,-0.027756l-0.046259,-0.018504l-0.095602,0.006168l-0.006168,0.01542l0.030839,0.021588l-0.027756,0.13261l0.006168,0.067847l-0.052427,0.033923l-0.040091,-0.003084l-0.077099,0.027756l-0.009252,0.027756l0.027756,0.040091l-0.012336,0.043175l-0.021588,0.018504l-0.021588,0.104854Z M691.082018,628.098501l0.00983,0.036863l0.02949,0.007373l0.002458,-0.014745l-0.014745,-0.012288l-0.014745,-0.01966l-0.012288,0.002458Z M691.128711,627.953507l0.01966,0.036863l0.044235,0.02949l0.073726,-0.002458l0.051608,0.034405l0.00983,0.04915h0.022118l0.03932,-0.036863l-0.002458,-0.051608l-0.073726,-0.063896l-0.01966,0.004915l-0.022118,0.027033l-0.014745,-0.007373l0.002458,-0.027033l-0.031948,-0.007373l-0.036863,0.034405l-0.022118,-0.00983l-0.007373,-0.031948l-0.024575,-0.002458l-0.007373,0.024575Z M690.113755,628.378658l0.076183,0.002458l0.083556,-0.01966l0.034405,0.002458l0.00983,0.024575l0.02949,0.027033l0.058981,-0.002458l0.017203,-0.027033l0.063896,-0.041778l0.041778,0.002458l0.03932,-0.017203l0.02949,-0.004915l0.017203,-0.022118v-0.02949l-0.017203,-0.027033l0.007373,-0.024575l0.014745,-0.002458l0.002458,0.01966l0.014745,0.017203h0.058981l0.031948,-0.00983l0.01966,-0.02949l0.002458,-0.022118l-0.027033,-0.004915l-0.00983,-0.02949l0.01966,-0.01966l-0.004915,-0.01966l0.01966,-0.022118l0.036863,0.022118l0.022118,0.03932l0.073726,0.044235h0.027033l0.002458,-0.022118l0.022118,-0.002458l0.012288,0.017203l0.034405,-0.007373l0.078641,-0.068811l0.002458,-0.041778l-0.01966,-0.00983l0.004915,-0.034405l0.034405,-0.017203l0.041778,0.007373l0.012288,-0.022118l-0.027033,-0.044235l-0.007373,-0.066353l-0.041778,-0.017203l-0.056523,0.014745l-0.01966,0.02949l-0.044235,0.024575l-0.024575,-0.012288l-0.014745,0.004915l-0.002458,0.027033l-0.056523,-0.002458l-0.022118,-0.027033l-0.002458,-0.024575h-0.012288l-0.017203,0.031948l-0.073726,0.00983l-0.100758,-0.014745l-0.024575,-0.014745l-0.041778,-0.002458l-0.00983,0.01966l-0.017203,0.012288l-0.02949,-0.004915l-0.007373,0.012288l0.02949,0.00983l0.004915,0.02949l-0.022118,0.014745l-0.04915,-0.02949l-0.00983,0.007373l-0.002458,0.01966l-0.02949,0.024575l0.002458,0.044235l0.036863,0.004915l0.012288,0.017203l-0.014745,0.031948l-0.041778,0.024575l-0.031948,0.002458l-0.014745,0.01966l0.00983,0.022118l-0.027033,0.058981l-0.044235,0.041778l-0.078641,0.007373l-0.02949,-0.014745l-0.024575,0.00983l-0.007373,0.02949l-0.083556,0.022118l-0.012288,0.017203l0.061438,0.004915Z M690.123585,628.408149l-0.002458,0.017203l0.041778,0.004915l0.041778,-0.004915l0.00983,-0.027033l-0.044235,-0.004915l-0.046693,0.014745Z "/>
</svg>
