<svg xmlns="http://www.w3.org/2000/svg" viewBox="2216.371 837.780 24.524 48.886">
  <path d="M2240.614545,881.652627l0.114814,-0.100695l0.136535,0.042719l0.027928,0.15867l-0.074474,0.054924l-0.139639,-0.027462l-0.065165,-0.128157Z M2236.574335,879.840125l0.055855,0.09154l0.093092,-0.018308l0.083783,-0.357008l-0.074474,-0.04577l-0.074474,0.09154l-0.083783,0.238005Z M2232.738929,876.590438l0.018618,0.247159l-0.130329,0.137311l0.037237,0.238005l0.353751,0.109849l0.102402,0.128157l0.446843,0.183081l0.232731,0.009154l0.744739,0.357008l0.139639,-0.036616l0.307205,-0.302084l-0.018618,-0.283776l-0.260659,-0.329546l-0.48408,-0.219697l-0.158257,-0.210543l0.037237,-0.082386l0.232731,-0.054924l0.167566,0.018308l0.065165,-0.064078l-0.148948,-0.228851l-0.111711,-0.009154l-0.223422,0.09154l-0.195494,-0.164773l-0.037237,-0.302084l-0.158257,-0.29293l-0.297896,-0.100695l-0.409606,0.036616l-0.316514,0.366162l-0.093092,0.576705l0.158257,0.183081Z M2234.144624,881.216284l0.186185,0.402778l0.297896,0.390573l0.558554,0.4516l0.446843,0.085438l0.173772,-0.15867l0.012412,-0.29293l0.049649,-0.195286l0.124123,-0.097643l0.024825,-0.183081l-0.434431,-0.256313l-0.359957,-0.109849l-0.198597,-0.256313l-0.012412,-0.476011l0.086886,-0.134259l-0.012412,-0.146465l-0.273071,-0.036616l-0.422019,0.134259l-0.099299,0.183081l0.074474,0.134259l-0.062062,0.195286l-0.124123,0.195286l-0.037237,0.170876Z M2237.787639,886.489016l-0.037237,0.073232l0.021722,0.033565l0.102402,-0.039668l0.273071,0.073232l0.316514,0.018308l0.148948,-0.146465l0.086886,-0.238005l-0.093092,-0.207492l-0.335133,-0.195286l-0.440637,0.006103l-0.186185,0.122054l-0.031031,0.231903l0.173772,0.268519Z M2237.65731,886.604967l-0.018618,0.048822l0.068268,0.012205l0.034134,-0.042719l-0.034134,-0.024411l-0.049649,0.006103Z M2228.363587,867.5737l0.186185,0.036616l0.065165,-0.04577l-0.260659,-0.402778l-0.139639,0.009154l-0.055855,0.137311l0.204803,0.265467Z M2228.652173,867.729319l0.093092,0.036616l0.093092,-0.054924l-0.148948,-0.119003l-0.065165,0.054924l0.027928,0.082386Z M2229.266583,867.711011l0.111711,-0.073232v-0.109849l-0.158257,-0.018308l-0.065165,0.109849l0.111711,0.09154Z M2227.302333,868.415873l0.148948,0.082386l0.074474,-0.054924l-0.065165,-0.155619h-0.083783l-0.074474,0.128157Z M2227.441972,868.150406l0.083783,0.018308l0.111711,-0.109849l0.353751,-0.183081l-0.046546,-0.100695l-0.335133,0.100695l-0.093092,0.100695l-0.074474,0.173927Z M2227.423354,860.891245l0.065165,0.09154l0.12102,0.009154l0.102402,-0.128157l0.046546,-0.357008l-0.065165,-0.073232l-0.130329,0.018308l-0.139639,0.439394Z M2228.130856,861.065172l0.223422,0.064078l0.139639,-0.064078l-0.027928,-0.137311l-0.130329,-0.128157l-0.176876,0.018308l-0.111711,0.109849l0.083783,0.137311Z M2229.629643,863.875465l0.195494,-0.073232l0.167566,-0.183081l-0.046546,-0.164773l-0.176876,-0.073232l-0.186185,0.100695l-0.074474,0.137311l0.018618,0.210543l0.102402,0.04577Z M2230.057868,864.360629l0.065165,0.073232l0.186185,-0.073232v-0.073232l-0.158257,-0.009154l-0.093092,0.082386Z M2228.242567,864.818332l-0.018618,0.109849l0.130329,0.054924l0.12102,-0.036616l0.12102,-0.146465l0.083783,-0.064078l0.12102,0.009154l0.093092,-0.064078l-0.12102,-0.146465l-0.186185,0.018308l-0.344442,0.265467Z M2228.903523,865.285188l0.093092,0.009154l0.018618,-0.073232l-0.102402,-0.054924l-0.065165,0.036616l0.055855,0.082386Z M2228.819739,866.099899l0.102402,0.036616l0.018618,-0.100695l-0.083783,-0.082386l-0.065165,0.04577l0.027928,0.100695Z M2227.088221,861.669339l-0.176876,0.173927l-0.102402,0.366162l0.148948,0.228851l0.083783,0.311238l0.158257,0.201389l0.344442,0.119003l0.195494,-0.009154l0.335133,-0.201389l0.269968,-0.027462l0.381679,0.238005l0.409606,0.128157l0.074474,-0.109849l-0.027928,-0.256313l-0.195494,-0.128157l-0.254453,0.082386l-0.211009,-0.036616l-0.260659,-0.256313l-0.074474,-0.247159l-0.111711,-0.119003l-0.186185,-0.009154l-0.176876,0.054924l-0.111711,-0.109849l-0.148948,-0.521781l-0.167566,-0.192235l-0.186185,0.064078l0.027928,0.128157l-0.037237,0.128157Z M2225.667011,859.380827l0.111711,0.134259l0.546142,0.31734l0.53373,0.195286l0.223422,-0.061027l0.335133,-0.048822l0.297896,0.048822l0.32272,-0.134259l0.074474,-0.207492l-0.086886,-0.219697l-0.434431,-0.195286l-0.16136,-0.183081l-0.148948,-0.76894l-0.16136,-0.097643l-0.198597,0.048822l-0.297896,0.463805l-0.260659,0.15867l-0.409606,0.024411l-0.422019,0.109849l-0.099299,0.109849l0.062062,0.244108l0.173772,0.061027Z M2223.929286,859.539497l-0.037237,-0.103746l0.055855,-0.079335l-0.055855,-0.061027l-0.186185,0.030513l-0.285483,-0.274621l-0.688884,-0.439394l-0.065165,-0.109849l0.06051,-0.036616l-0.009309,-0.050347l-0.074474,-0.073232l-0.097747,-0.164773l-0.032582,0.022885l0.041892,0.128157l0.009309,0.096118l-0.074474,0.013731l-0.36306,-0.311238l0.018618,-0.155619l-0.065165,-0.04577l-0.093092,0.027462l-0.018618,-0.073232l0.107398,-0.129712l-0.014305,-0.126601l-0.48408,-0.540089l0.065165,-0.128157l-0.065165,-0.054924l-0.176482,-0.009656l-0.065558,-0.07273l-0.446843,-0.164773l-0.260659,0.146465l-0.102402,0.219697l0.102402,0.402778l-0.223422,0.622475l0.186185,0.366162l0.316514,0.183081l0.37237,-0.036616l0.093092,-0.219697l0.204803,0.009154l0.352529,0.39526l0.099596,0.379502l-0.107684,0.753963l0.027928,0.119003l0.111711,0.09154l0.027928,0.29293l0.223422,0.283776v0.146465l-0.148948,0.119003l0.046546,0.210543l0.37237,0.29293l0.316514,0.018308l0.297896,-0.183081l0.083783,-0.137311l-0.027928,-0.119003l0.158257,-0.164773l0.148948,0.064078l0.381679,0.027462l0.428225,0.329546l0.148948,-0.036616l0.018618,-0.238005l0.36306,-0.274621l0.018618,-0.155619l-0.102402,-0.18003l-0.086886,-0.030513l-0.086886,0.042719l-0.068268,-0.09154l0.043443,-0.128157l-0.074474,-0.164773l-0.006206,-0.15867l-0.074474,-0.073232l-0.093092,0.036616l-0.440637,-0.274621Z M2227.280612,869.395356l0.086886,-0.061027l0.037237,-0.097643l0.223422,-0.213594l0.124123,-0.006103l0.167566,0.103746l0.062062,0.103746l-0.068268,0.2258l-0.155154,0.128157l0.024825,0.061027l0.111711,0.012205l0.130329,-0.054924l0.062062,0.012205l-0.006206,0.097643l0.043443,0.024411l0.099299,-0.073232l0.136535,0.054924v0.085438l0.037237,0.024411l0.093092,-0.079335l0.074474,0.006103l-0.043443,0.140362l0.062062,0.079335l0.291689,-0.033565l0.167566,-0.073232l0.269968,0.036616l0.353751,-0.128157l0.083783,-0.137311v-0.210543l0.214112,-0.329546l-0.027928,-0.109849l-0.260659,-0.054924l-0.269968,-0.256313l-0.093092,-0.329546l-0.316514,-0.393624l-0.269968,-0.054924l-0.167566,0.09154l-0.214112,0.036616l-0.089989,-0.012205l-0.037237,-0.103746l-0.08068,-0.018308l-0.183082,0.088489l-0.058846,0.052605l-0.000113,0.066398l-0.055855,0.06713l-0.096635,0.00289l-0.095756,0.085599v0.146465l-0.037237,0.146465l-0.176876,0.054924l-0.139639,0.109849l-0.037237,0.201389l-0.117917,0.247159l0.018618,0.134259l0.124123,0.103746Z M2224.863313,860.937015l0.102402,-0.082386l-0.083783,-0.04577l-0.111711,0.054924v0.082386l0.093092,-0.009154Z M2222.508076,861.596107l0.093092,0.018308l0.027928,-0.064078l-0.093092,-0.073232l-0.074474,0.04577l0.046546,0.073232Z M2221.477853,841.094089l0.232731,0.009154l0.139639,-0.173927l-0.074474,-0.183081l-0.148948,-0.09154l-0.204803,0.04577l-0.111711,0.173927l0.167566,0.219697Z M2223.525886,842.064419l0.148948,-0.09154l0.195494,-0.018308l0.288586,-0.128157l-0.009309,-0.173927l-0.223422,-0.018308l-0.167566,0.036616l-0.027928,0.128157l-0.232731,0.219697l0.027928,0.04577Z M2223.907565,843.071364h0.139639l0.083783,-0.064078l-0.037237,-0.119003l-0.139639,-0.009154l-0.093092,0.100695l0.046546,0.09154Z M2223.404866,843.263599l0.083783,-0.054924l-0.065165,-0.054924l-0.102402,0.009154l-0.046546,0.082386l0.130329,0.018308Z M2223.146534,843.200188l-0.020946,-0.064746h-0.074474l-0.083783,-0.192235l0.074474,-0.119003l-0.018618,-0.137311l-0.260659,-0.485165l-0.297896,-0.100695l-0.24204,0.04577l-0.204803,0.192235l-0.074474,0.29293l-0.024825,0.27157l0.068268,0.15867l0.198597,0.238005l0.130329,0.082386l0.046546,0.100695l-0.027928,0.173927l0.046546,0.109849l0.130329,0.018308l0.139639,-0.119003l-0.009309,-0.109849l-0.093092,-0.109849l0.074474,-0.073232l0.158257,0.027462l0.232731,-0.064078l0.055855,-0.082386l0.076801,-0.054257Z M2216.902363,839.606557l0.093092,0.032039l0.046546,0.059501l-0.001552,0.105272l0.066716,0.004577l0.041892,-0.12358l-0.037237,-0.09154l-0.077577,-0.039668l0.018618,-0.054924l-0.055855,-0.061027h-0.093092l-0.048098,0.096118l0.046546,0.073232Z M2217.232841,840.142068l0.097747,0.141888l0.107056,-0.013731v-0.09154l0.069819,-0.100695l-0.046546,-0.119003l-0.097747,-0.032039l-0.111711,0.050347l-0.041892,0.073232l0.023273,0.09154Z M2224.686437,846.198997l0.037237,-0.030513l-0.006206,-0.042719h-0.043443l-0.018618,0.048822l0.031031,0.024411Z M2226.188328,847.19984l0.074474,0.042719l0.124123,-0.018308l0.105505,-0.115951l-0.012412,-0.115951l-0.136535,-0.030513l-0.130329,0.036616l-0.043443,0.097643l0.018618,0.103746Z M2222.166737,846.36377l0.130329,0.115951l0.248246,-0.024411l0.428225,0.061027l0.254453,-0.097643l0.062062,-0.31734l0.105505,-0.097643l0.043443,-0.201389l-0.068268,-0.250211l-0.285483,-0.176978l-0.285483,-0.012205l-0.465462,0.140362l-0.136535,0.238005l0.006206,0.231903l0.055855,0.164773l-0.093092,0.2258Z M2224.103059,853.925014l0.235834,0.018308l0.16136,-0.036616l0.285483,0.006103l0.111711,0.048822l0.192391,-0.061027l0.48408,-0.488216l0.08068,-0.256313l0.148948,-0.176978l0.198597,-0.29293l-0.055855,-0.061027l-0.198597,-0.006103l-0.384782,0.061027l-0.328926,0.164773l-0.223422,0.048822l-0.304102,0.262416l-0.148948,0.042719l-0.45305,0.372265l-0.037237,0.201389l0.235834,0.152567Z M2226.3621,850.263395l0.049649,0.15867l-0.012412,0.231903l0.124123,0.76894l0.173772,0.280724l0.111711,0.671297l-0.049649,0.31734l0.16136,0.659091l0.211009,0.024411l0.111711,-0.231903l-0.086886,-0.500421l0.074474,-0.31734l-0.074474,-0.329546l-0.136535,-0.134259l-0.136535,-0.854378l-0.273071,-0.854378l-0.111711,-0.134259l-0.148948,0.012205l-0.074474,0.134259l0.086886,0.097643Z M2226.771707,855.304224l0.173772,0.512627l0.136535,0.146465l0.062062,0.219697l-0.037237,0.280724l0.186185,0.561448l-0.049649,0.31734l0.173772,0.244108l0.211009,0.012205l0.223422,-0.280724l-0.037237,-0.781145l-0.099299,-0.15867l-0.062062,-0.476011l-0.347545,-1.037459l0.062062,-0.219697l-0.086886,-0.378367l-0.143517,-0.127489l-0.018618,-0.073232l0.050425,-0.189851l-0.037237,-0.097643h-0.124123l-0.049649,0.329546l0.012412,0.329546l-0.173772,0.622475l-0.024825,0.244108Z M2220.112498,850.385449l0.08068,0.134259l0.223422,0.122054l0.086886,-0.061027l-0.037237,-0.079335l-0.111711,-0.024411l-0.192391,-0.122054l-0.049649,0.030513Z M2220.072158,855.502562l0.223422,0.09154l0.48408,0.247159l0.176876,-0.022885l0.093092,-0.119003l-0.018618,-0.105272l-0.093092,-0.128157l0.018618,-0.109849l0.102402,-0.09154l0.018618,-0.146465l-0.102402,-0.073232l-0.186185,0.009154l-0.251349,-0.064078l-0.297896,-0.009154l-0.24204,0.100695l-0.037237,0.247159l0.111711,0.173927Z M2220.286271,854.834316l0.139639,0.054924l0.409606,-0.027462l0.102402,-0.137311l-0.046546,-0.09154h-0.111711l-0.065165,-0.146465l0.065165,-0.100695l-0.083783,-0.04577l-0.204803,0.137311l-0.232731,0.265467l0.027928,0.09154Z M2221.155133,854.736673l0.068268,0.006103l0.096195,-0.073232l0.065165,-0.109849l-0.065165,-0.146465h-0.074474l-0.018618,0.146465l-0.130329,0.109849l0.058959,0.06713Z M2220.081467,851.017078v-0.082386l-0.074474,-0.027462l-0.046546,0.064078l0.046546,0.082386l0.074474,-0.036616Z M2220.723805,852.58242l0.018618,-0.073232l-0.065165,-0.036616l-0.074474,0.04577l0.046546,0.064078h0.074474Z M2220.984464,853.406285l0.037237,-0.073232l-0.074474,-0.073232l-0.093092,0.027462l0.027928,0.100695l0.102402,0.018308Z M2221.012391,853.680906l0.074474,0.134259h0.049649l0.024825,-0.097643l-0.037237,-0.137311l-0.065165,-0.064078l-0.065165,0.04577l0.018618,0.119003Z M2220.230415,851.520551l0.065165,-0.027462l0.009309,-0.073232l-0.074474,-0.009154l-0.065165,0.04577l0.065165,0.064078Z M2219.103997,855.09063l0.065165,-0.036616l-0.046546,-0.073232h-0.074474l-0.018618,0.073232l0.074474,0.036616Z M2217.92793,854.913651l-0.068268,0.103746l0.012412,0.115951l0.260659,0.134259l0.186185,0.012205l0.068268,-0.085438l-0.006206,-0.09154l0.043443,-0.06713l0.148948,-0.048822l0.142742,0.024411l0.055855,-0.06713l-0.031031,-0.085438l0.037237,-0.061027l0.223422,-0.09154h0.552348l0.136535,0.018308l0.105505,0.085438l0.217216,0.018308l0.142742,-0.048822l0.186185,-0.231903l0.117917,-0.195286l0.136535,-0.048822l0.434431,0.018308l0.074474,-0.018308l0.043443,-0.09154l-0.024825,-0.2258l-0.043443,0.018308l-0.006206,0.079335l-0.049649,0.024411l-0.08068,-0.109849l0.018618,-0.103746l-0.043443,-0.048822l-0.062062,-0.006103l-0.08068,-0.213594l0.018618,-0.085438l-0.037237,-0.109849l-0.062062,-0.06713l-0.012412,-0.207492l-0.074474,-0.073232l-0.031031,-0.170876l-0.062062,-0.122054l-0.006206,-0.061027l0.093092,0.085438l0.037237,0.134259l0.055855,0.073232l0.074474,-0.006103l0.012412,-0.164773l-0.111711,-0.189184l-0.186185,-0.073232l-0.111711,-0.06713l0.037237,-0.061027l0.111711,-0.012205l0.024825,-0.085438l-0.031031,-0.054924l0.018618,-0.176978l-0.124123,-0.299032l0.012412,-0.140362l-0.074474,-0.079335h-0.074474l-0.055855,0.103746l-0.08068,0.024411l-0.049649,-0.030513l-0.055855,-0.231903l-0.099299,-0.09154l-0.055855,-0.360059l0.031031,-0.140362l-0.031031,-0.103746l-0.074474,-0.054924l-0.037237,-0.15867l0.046546,-0.100695l0.186185,-0.04577l-0.046546,-0.064078l-0.223422,0.009154l-0.12102,-0.073232l-0.102402,-0.009154l-0.186185,0.119003l-0.055855,0.137311l0.046546,0.146465l0.018618,0.109849l-0.093092,0.247159l0.055855,0.082386l0.018618,0.283776l-0.195494,0.3387l-0.186185,0.137311l-0.353751,0.009154l-0.260659,-0.036616l-0.148948,-0.173927l-0.037237,-0.585859l-0.102402,-0.210543l0.018618,-0.238005l-0.065165,-0.210543l0.009309,-0.238005l-0.176876,-0.485165l0.018618,-0.119003l-0.083783,-0.082386l-0.260659,-0.146465l-0.195494,-0.402778l-0.176876,-0.137311l-0.204803,-0.466856l-0.083783,-0.018308l-0.24204,0.183081l-0.130329,0.3387l-0.083783,0.823864l0.223422,0.704862l0.195494,0.3387l0.009309,0.256313l0.158257,0.457702l0.037237,0.357008l0.223422,0.466856l0.018618,0.265467l-0.083783,0.109849l-0.009309,0.173927l0.046546,0.210543l-0.139639,0.238005l0.027928,0.192235l0.232731,0.320392l0.214112,0.503473l0.223422,0.183081l0.186185,0.247159l-0.003103,0.198338Z M2220.795176,852.698372l0.043443,0.048822l0.049649,-0.030513l-0.006206,-0.061027l-0.055855,-0.018308l-0.031031,0.061027Z M2219.572562,854.925857l0.074474,-0.006103l0.006206,-0.042719l-0.074474,-0.024411l-0.049649,0.036616l0.043443,0.036616Z M2222.030201,857.440169v-0.054924l-0.043443,-0.024411l-0.043443,0.030513l0.043443,0.054924l0.043443,-0.006103Z M2222.396365,858.154185l0.068268,0.006103l0.012412,-0.042719l-0.086886,-0.036616l-0.049649,0.012205l0.055855,0.061027Z M2222.352922,858.013822h0.055855l0.024825,-0.042719l-0.049649,-0.024411l-0.055855,0.030513l0.024825,0.036616Z M2224.897447,861.132302l0.043443,-0.012205l-0.012412,-0.06713l-0.055855,-0.036616l-0.031031,0.042719l0.055855,0.073232Z M2224.611964,861.290972l0.043443,-0.036616l-0.024825,-0.054924l-0.043443,0.006103l-0.031031,0.061027l0.055855,0.024411Z M2224.965715,861.01635l0.018618,0.09154l0.049649,0.042719l-0.006206,-0.085438l-0.024825,-0.048822h-0.037237Z M2229.856168,864.0677l0.062062,0.018308l-0.006206,-0.054924l-0.068268,-0.06713l-0.043443,0.012205l0.055855,0.09154Z M2229.924436,864.513197l0.049649,-0.024411l-0.006206,-0.054924l-0.055855,-0.018308l-0.037237,0.054924l0.049649,0.042719Z M2221.040319,854.774815l0.027928,-0.036616l-0.023273,-0.032039l-0.046546,0.013731l-0.004655,0.041193l0.046546,0.013731Z M2221.119448,855.639873l0.027928,-0.032039l-0.013964,-0.059501l-0.037237,0.013731l-0.004655,0.059501l0.027928,0.018308Z M2222.855621,841.432789l0.055855,0.006103l0.012412,-0.061027l-0.049649,-0.036616l-0.049649,0.048822l0.031031,0.042719Z M2216.645583,838.989326l0.148948,0.119003l0.148948,0.009154l0.186185,-0.109849l-0.009309,-0.183081l-0.12102,-0.054924l-0.232731,0.027462l-0.12102,0.082386v0.109849Z M2216.524563,838.586548l0.102402,-0.036616l0.046546,-0.567551l-0.093092,-0.155619l-0.176876,-0.04577l-0.018618,0.082386l0.065165,0.119003l-0.009309,0.155619l-0.065165,0.073232l0.018618,0.265467l0.130329,0.109849Z M2216.67351,838.641472l0.009309,0.082386l0.12102,-0.009154l0.046546,-0.064078l-0.093092,-0.036616l-0.083783,0.027462Z "/>
</svg>
