<svg xmlns="http://www.w3.org/2000/svg" viewBox="2317.377 838.581 13.811 7.929">
  <path d="M2330.684114,838.600836l0.007373,-0.01966l0.044235,0.024575l0.01966,0.031948l-0.012288,0.012288l-0.034405,-0.034405l-0.024575,-0.014745Z M2318.123648,846.447296l0.02949,-0.014745h0.041778l0.04915,0.02949l0.00983,0.041778l0.036863,0.007373l0.026483,-0.010729l0.03987,-0.043337l0.100758,-0.066353l0.095843,-0.031948l0.002458,-0.027033l-0.041778,-0.022118l-0.078641,0.004915l-0.041778,-0.017203l-0.01966,-0.041778l-0.078641,-0.014745l-0.071268,0.017203l-0.04915,0.017203l-0.054065,0.041778l-0.03932,0.095843l0.041778,0.034405Z M2317.383934,845.810798l-0.006623,-0.048522l0.006623,-0.059609l0.044235,-0.007373l0.068811,0.046693l0.036863,-0.007373l0.02949,0.014745l0.00983,0.031948l0.081098,0.031948h0.041778l0.056523,0.036863l0.056523,0.081098l0.046693,0.022118l0.068811,0.076183l0.076183,0.04915l0.100758,0.01966l0.041778,0.036863l0.068811,0.002458v0.01966l-0.054065,0.01966l-0.140079,0.007373l-0.066353,-0.024575l-0.041778,0.002458l-0.036863,0.01966l-0.03932,0.002458l-0.054065,-0.022118l-0.051608,-0.002458l-0.034405,0.012288l-0.054065,-0.007373l-0.108131,-0.068811l-0.007373,-0.041778l-0.01966,-0.014745l-0.024575,0.002458l-0.027033,-0.031948l-0.007373,-0.068811l-0.061438,-0.130249Z M2330.829108,838.728627l0.024575,0.004915l-0.002458,-0.01966l-0.027033,-0.017203l-0.022118,0.007373l0.027033,0.024575Z M2330.880716,838.817098l0.024575,0.007373v-0.017203l-0.017203,-0.014745l-0.01966,0.007373l0.012288,0.017203Z M2330.561238,839.829596l-0.002458,0.02949l0.014745,0.01966l0.034405,0.012288l0.014745,-0.017203l-0.024575,-0.046693l-0.034405,-0.034405l-0.017203,0.00983l0.014745,0.027033Z M2330.868428,839.93527l0.017203,0.012288l0.017203,-0.031948l-0.002458,-0.054065l-0.00983,-0.046693l-0.022118,-0.00983l-0.017203,0.012288l0.017203,0.022118l0.012288,0.056523l-0.012288,0.03932Z M2331.001135,839.158693l0.00983,0.022118l0.02949,-0.002458l0.00983,-0.022118l-0.027033,-0.004915l-0.022118,0.007373Z M2331.037997,839.239791l0.017203,-0.007373l-0.007373,-0.024575h-0.01966l-0.007373,0.01966l0.017203,0.012288Z M2330.585813,839.682145l0.054065,0.014745l0.034405,-0.00983l0.017203,-0.03932l0.054065,0.004915l0.01966,0.024575l0.03932,0.00983l0.041778,-0.02949l0.007373,-0.034405l-0.034405,-0.024575l-0.02949,0.004915l-0.031948,-0.041778l0.007373,-0.100758l0.01966,-0.014745l0.007373,-0.022118l-0.022118,-0.014745l0.014745,-0.022118l0.01966,0.014745l0.022118,-0.017203l-0.002458,-0.034405l-0.024575,-0.027033l0.04915,-0.078641l0.02949,-0.007373l0.058981,-0.113046l-0.034405,-0.090928l-0.044235,-0.00983l-0.03932,-0.054065l0.002458,-0.041778l-0.02949,-0.031948l-0.004915,-0.03932l-0.086013,-0.051608l-0.090928,0.017203l-0.061438,0.086013l-0.036863,0.186772l0.017203,0.02949v0.071268l-0.034405,0.03932l-0.125334,0.036863l-0.014745,0.024575l0.012288,0.051608l-0.00983,0.044235l0.01966,0.04915l0.031948,0.012288l0.034405,-0.007373l0.01966,0.00983l-0.007373,0.02949l0.034405,0.012288l0.02949,-0.007373l0.012288,0.017203l-0.012288,0.024575l0.014745,0.017203l0.022118,0.004915l0.017203,0.041778l-0.014745,0.044235l0.027033,0.041778Z M2331.163331,839.286484l0.024575,-0.00983v-0.012288h-0.024575l-0.017203,0.014745l0.017203,0.007373Z "/>
</svg>
