<svg xmlns="http://www.w3.org/2000/svg" viewBox="2352.886 840.362 9.126 4.280">
  <path d="M2357.144186,842.903462l0.018221,0.027546l-0.018221,0.045911l-0.045551,0.003061l-0.021257,-0.030607l0.021257,-0.048971l0.045551,0.003061Z M2357.38409,843.185047l0.048588,-0.003061l0.024294,-0.064275l-0.063772,-0.076518l-0.066809,0.018364v0.08876l0.057698,0.036728Z M2361.81776,844.58685l0.045551,0.012243l0.033404,-0.024486l-0.021257,-0.055093l-0.045551,-0.009182l-0.033404,0.018364v0.033668l0.021257,0.024486Z M2361.917973,844.641942l0.033404,-0.003061l-0.00911,-0.04285h-0.027331l-0.018221,0.030607l0.021257,0.015304Z M2361.878068,844.258111l-0.00242,0.036585l0.019359,0.019512l0.01452,-0.026829l-0.00726,-0.031707l-0.024199,0.002439Z M2361.996644,844.243477l0.01452,-0.02439l-0.0121,-0.019512l-0.021779,0.012195v0.021951l0.019359,0.009756Z M2352.971677,840.999703l0.170059,0.202007l0.088066,0.021425l0.127544,0.104064l0.036441,0.079578l0.145765,0.125489l0.100213,0.027546l0.045551,0.048971l0.003037,0.045911l0.066809,0.08876l0.072882,0.036728l0.054662,0.052032l0.015184,0.058153l0.145765,0.17446l0.12147,0.055093l0.066809,0.110185l0.006074,0.12855l0.109323,0.189764l0.10325,0.036728l0.085029,0.157626l0.15032,0.068866l0.208018,-0.04285l0.101731,-0.058153l0.095658,-0.004591l0.057698,0.038259l0.601279,-0.12855l0.157912,0.030607l0.091103,-0.048971l0.012147,-0.061214l0.078956,-0.048971l0.115397,0.036728l0.12147,0.214249l0.279382,0.0857l0.115397,-0.091821l0.012147,-0.159157l-0.054662,-0.122428l0.018221,-0.104064l0.139691,-0.067336l0.012147,-0.067336l-0.048588,-0.018364l0.024294,-0.116307l0.109323,-0.0857l0.024294,-0.094882l-0.124507,-0.244856l0.00911,-0.064275l-0.061827,-0.185316l-0.058078,-0.063414l0.021779,-0.036585l-0.019359,-0.026829l-0.070178,-0.021951l-0.031459,-0.043902l0.019359,-0.031707l-0.016939,-0.029268l-0.041139,-0.014634l-0.0121,-0.058536l-0.137935,-0.151218l-0.031459,-0.087804l-0.026619,-0.02439l-0.043559,-0.014634l-0.205693,-0.312192l-0.099217,-0.063414l-0.224151,-0.061549l-0.057698,0.048971l-0.051625,0.003061l-0.066809,-0.024486l-0.218647,0.04285l-0.054662,0.101003l-0.261161,0.012243l-0.066809,-0.039789l-0.063772,-0.003061l-0.038802,0.035145l-0.161624,0.050555l-0.124507,-0.009182l-0.352264,0.12855l-0.133617,-0.006121l-0.163985,0.079578l-0.003037,0.067336l-0.066809,0.021425l-0.078956,-0.058153l-0.081993,-0.006121l-0.176132,0.070396l-0.133617,-0.012243l-0.209536,-0.119367l-0.024294,-0.048971l-0.048588,-0.003061l-0.012147,0.048971h-0.042515l-0.030368,-0.033668l-0.072882,0.018364l-0.115397,0.137732l0.078956,0.137732Z M2357.663472,843.335021l0.00911,0.064275l0.063772,0.082639l0.185242,0.067336l0.060735,-0.015304l0.081993,0.04285l-0.027331,0.052032l0.048588,0.070396l0.042515,-0.006121l0.033404,0.036728l-0.003037,0.045911l0.048588,0.033668l0.036441,-0.04285l0.003037,-0.067336l0.036441,-0.003061l0.066809,0.082639l0.060735,0.183642l0.069845,0.082639l0.048588,0.015304l0.072882,0.082639l0.11236,0.033668l0.11236,-0.021425l0.2065,-0.125489l0.091103,0.021425l0.006074,0.036728l0.081993,0.101003l0.160948,0.015304l0.072882,-0.012243l0.097176,0.048971l0.072882,0.104064l-0.021257,0.048971l0.048588,0.033668h0.209536l0.088066,-0.058153l0.054662,-0.003061l0.048588,-0.033668l0.057698,0.003061l0.069845,0.045911l0.154875,0.033668l0.060735,0.003061l0.194353,-0.055093l0.042515,0.009182l0.024294,0.033668l0.136654,0.012243l0.127544,0.021425l0.160948,-0.006121l0.048588,-0.030607l0.039478,-0.003061l0.033404,0.015304l0.145765,0.009182l0.054662,-0.021425l0.315823,0.04285l0.045599,-0.009899l0.021779,-0.080487l0.048398,-0.056097l0.016939,-0.065853l-0.014282,-0.124341l-0.072882,-0.055093l-0.024294,-0.08876l-0.063772,-0.021425l-0.027331,0.036728l-0.051625,-0.003061l-0.048588,-0.036728l0.003037,-0.030607l-0.072882,-0.073457l-0.085029,-0.039789h-0.130581l-0.003037,-0.027546l0.042515,-0.024486l-0.012147,-0.027546l-0.063772,0.006121l-0.018221,-0.030607v-0.048971l-0.036441,-0.006121l-0.018221,0.033668l-0.09414,0.067336l-0.12147,0.012243l-0.036441,-0.015304l0.042515,-0.048971l0.091103,-0.048971l0.057698,-0.082639l-0.051625,-0.039789l-0.066809,0.015304l-0.033404,-0.030607l0.003037,-0.04285l-0.051625,-0.064275l-0.060735,0.006121l-0.036441,-0.021425l0.00911,-0.064275l-0.045551,-0.036728l-0.09414,-0.009182l-0.088066,0.076518l-0.042515,-0.009182l-0.030368,-0.058153l-0.057698,-0.015304l-0.033404,0.027546l-0.039478,-0.006121l-0.036441,-0.052032l-0.078956,-0.039789l-0.11236,0.015304l-0.072882,-0.027546l-0.075919,0.015304l-0.057698,-0.058153l-0.015184,-0.052032l-0.048588,-0.027546l-0.054662,0.009182l-0.036441,-0.021425l-0.006074,-0.048971l-0.100213,-0.067336l-0.030368,0.006121l0.021257,0.039789l-0.027331,0.015304l-0.042515,-0.021425l-0.027331,-0.073457l-0.036441,-0.027546l-0.018221,0.024486l0.039478,0.061214l-0.024294,0.024486l-0.066809,-0.024486l-0.10325,-0.064275l-0.003037,-0.048971l-0.127544,-0.094882l-0.057698,-0.003061l-0.039478,0.027546l-0.069845,0.006121l-0.039478,-0.018364h-0.12147l-0.048588,0.030607l-0.054662,0.003061l-0.030368,-0.018364l-0.085029,0.006121l-0.191316,0.0857l-0.081993,0.012243l-0.10325,0.08876l-0.252051,0.006121l-0.085029,-0.033668l-0.11236,0.036728l-0.045551,0.091821l-0.115397,0.107125l-0.066809,0.045911l-0.003037,0.061214l0.042515,0.055093Z "/>
</svg>
