<svg xmlns="http://www.w3.org/2000/svg" viewBox="1460.889 666.541 16.188 4.109">
  <path d="M1461.31762,668.454781l0.030839,-0.049343h0.049343v0.037007l-0.043175,0.030839l-0.037007,-0.018504Z M1460.899745,669.873397l0.138778,0.055511l0.050885,0.050885l0.157281,0.032381l0.092518,-0.009252l0.074015,0.032381l0.055511,0.087893l0.064763,0.018504l0.041633,-0.018504l0.212792,0.041633l0.134152,-0.004626l0.032776,0.014828l0.015466,0.046398l0.048902,0.077552l0.064763,0.02313l0.157281,0.009252l0.097144,0.041633l0.286807,-0.009252l0.138778,-0.050885l0.078641,-0.004626l0.066905,0.027645h0.027114l0.012324,-0.029579l-0.06471,-0.053577l-0.004626,-0.046259l0.02313,-0.050885l0.117688,-0.06126l0.024649,-0.032044l-0.012324,-0.014789l-0.11232,0.043625l-0.045434,0.003208l-0.093666,-0.022184l-0.088302,-0.001365l-0.086351,0.037007l-0.067847,-0.006168l-0.102586,-0.071378l-0.150298,-0.027309l-0.086351,0.024672l-0.38241,-0.012336l-0.154197,-0.074015l-0.080183,-0.012336l-0.129526,-0.11719l-0.23438,-0.067847l-0.123358,0.024672l-0.098686,-0.024672l-0.092518,0.030839l-0.018504,0.052427l0.013878,0.046259Z M1466.985918,670.292814l0.104854,0.043175l0.080183,0.092518l0.23438,0.080183l0.166533,-0.018504l0.030839,-0.098686l-0.030839,-0.104854l-0.11719,-0.074015l-0.289891,-0.043175l-0.11719,0.043175l-0.135694,0.030839v0.043175l0.074015,0.006168Z M1468.638915,670.57037l0.043175,0.043175l0.086351,0.018504l0.061679,-0.024672l0.086351,0.006168l0.074015,0.037007l0.043175,-0.018504l-0.092518,-0.061679l-0.067847,-0.055511l-0.098686,-0.006168l-0.123358,0.024672l-0.012336,0.037007Z M1469.521427,668.095355l0.527355,0.259052l0.092518,0.120274l0.268304,0.185037l0.194289,0.2498l-0.018504,0.10177l0.055511,0.064763l0.111022,-0.018504l0.592118,0.212792l0.45334,0.046259l0.573614,-0.064763h0.14803l0.45334,-0.120274l0.425585,-0.046259l0.203541,0.055511l0.098686,-0.030839l0.030839,-0.074015l0.055511,-0.052427l0.425585,-0.037007l0.289891,0.033923l0.144946,-0.052427l0.194289,-0.175785l0.212792,-0.083267l0.074015,-0.175785l0.286807,-0.129526h0.2498l0.48418,-0.11719l0.326899,-0.166533l0.021588,-0.049343v-0.120274l0.129526,-0.092518l0.292908,-0.030718l0.15466,-0.092796l-0.012731,-0.070774l-0.10177,-0.027756l-0.092518,0.064763l-0.14803,0.009252l-0.166533,-0.055511l-0.175785,-0.14803l-0.175785,-0.046259l-0.203541,-0.129526l-0.185037,-0.018504l-0.286807,-0.064763l-0.231296,-0.166533l-0.231296,-0.037007l-0.14803,-0.157281l-0.083267,-0.027756l-0.095602,0.046259l-0.123358,-0.012336l-0.283723,-0.222044l-0.160365,0.012336l-0.061679,0.123358l-0.357738,0.185037l-0.542775,0.086351l-0.209709,-0.074015l-0.185037,0.074015l-0.185037,0.271387l-0.135694,0.024672l-0.271387,-0.086351l-0.493432,-0.296059l-0.370074,-0.308395l-0.098686,-0.024672l-0.222044,0.037007l-0.222044,-0.037007l-0.209709,-0.074015h-0.197373l-0.14803,0.061679l-0.135694,0.197373l-0.172701,0.024672l-0.259052,0.074015l-0.049343,0.086351l0.024672,0.493432l-0.111022,0.172701l-0.259052,0.061679l-0.172701,-0.024672l-0.086351,0.061679l0.168065,0.157773l0.316115,0.184546Z "/>
</svg>
