<svg xmlns="http://www.w3.org/2000/svg" viewBox="1365.239 1082.880 2.753 3.292">
  <path d="M1367.155178,1083.13189l-0.041633,-0.064763l0.037007,-0.097144l0.152222,-0.079797l0.056523,-0.00983l0.068811,0.020238l0.138778,0.060137l0.069389,0.004626l0.097144,0.060137l0.092808,-0.000145l0.058981,0.017203l0.034405,0.041778l0.017347,0.066064l0.055511,0.064763l-0.01142,0.016624l-0.027033,-0.002458l-0.007373,0.024575l0.01966,0.022118l-0.002458,0.04915l-0.073726,0.078641l-0.081098,0.044235l-0.04915,0.007373l-0.054065,0.024575l-0.04915,-0.007373l-0.073726,-0.002458l-0.041778,0.012288l-0.031948,-0.017203l-0.004915,-0.044235l0.027033,-0.02949l-0.002458,-0.022118l-0.031948,-0.01966l-0.051608,-0.007373l-0.120419,-0.083556l-0.012288,-0.031948l-0.03932,-0.036863l-0.078641,-0.046693l-0.039465,-0.01142Z M1365.251828,1085.837795l0.106396,0.134152l0.185037,0.092518l0.138778,0.004626l0.046259,0.027756l0.050885,-0.004626l0.018504,-0.055511l0.046259,-0.013878l0.032381,0.037007h0.064763l0.02313,-0.037007h0.060137l0.055511,0.055511l0.060137,0.018504l0.064763,-0.027756l0.046259,0.009252l0.198915,-0.083267h0.097144l0.10177,0.037007l0.055511,0.087893l0.166533,0.050885l0.083267,-0.027756l0.189663,-0.194289l0.050885,-0.106396v-0.046259l0.064763,-0.134152l0.064763,-0.074015l0.078641,-0.138778l-0.037007,-0.032381l-0.1249,-0.02313l-0.060137,-0.050885l-0.032381,-0.078641l-0.050885,-0.064763v-0.069389l-0.069389,-0.078641l-0.10177,-0.078641l-0.157281,-0.027756l-0.050885,-0.041633l-0.189663,-0.060137h-0.083267l-0.203541,-0.041633l-0.1249,-0.037007l-0.161907,-0.009252l-0.115648,0.074015l-0.027756,0.064763l-0.069389,0.064763l-0.018504,0.087893l0.013878,0.060137l-0.027756,0.037007l-0.055511,-0.004626l-0.069389,0.037007l-0.013878,0.055511l-0.138778,0.078641l-0.078641,0.083267l-0.013878,0.111022l0.004626,0.074015l-0.032381,0.078641l-0.050885,0.037007l-0.02313,0.078641l0.013878,0.064763Z "/>
</svg>
