<svg xmlns="http://www.w3.org/2000/svg" viewBox="1225.839 899.462 108.529 91.124">
  <path fill-rule="evenodd" d="M1236.63071,979.82727l0.05561,0.086644l-0.023171,0.045602l-0.074146,0.00456l-0.050975,-0.072963l0.023171,-0.063843h0.069512Z M1238.413693,982.647752l0.010427,0.123125l0.062561,0.075243l0.072988,-0.00342l0.03128,-0.082084l-0.048658,-0.133386l-0.062561,-0.017101l-0.066036,0.037622Z  M1329.234964,932.494312h0.045l0.039,0.076l0.171,0.072l0.098,0.014l0.104,-0.041l0.018,-0.079l0.073,-0.08l0.067,0.004l0.097,0.021l0.102,0.075l0.157,0.007l0.112,0.045l0.073,0.003l0.045,-0.024l0.053,0.004l0.049,0.072l2.604,0.018l0.444,-0.035l0.606,0.002l0.124,-0.028l0.052,-0.001l-0.035,0.133l-0.07,0.489l0.027,0.113l-0.004,0.113l-0.06,0.131l-0.01,0.108v0.149l-0.055,0.149l-0.112,0.411l-0.101,0.153l-0.107,0.285l-0.023,0.135l-0.074,0.276l-0.339,0.857l-0.097,0.348l-0.134,0.253l-0.181,0.388l-0.046,0.203l0.037,0.104l-0.01,0.108l-0.069,0.158l-0.051,0.185l-0.037,0.325l-0.172,0.501l-0.157,0.596l-0.07,0.411l-0.023,0.235l0.033,0.185l-0.033,0.284l-0.148,0.447l-0.065,0.425l0.005,0.297l-0.019,0.167l-0.204,0.452l-0.398,0.74l-0.107,0.118l-0.158,0.307l-0.004,0.072l0.042,0.126l-0.014,0.145l-0.079,0.23l-0.093,0.42l-0.204,0.329l-0.361,0.316l-0.098,0.149l-0.115,0.113l-0.195,0.104l-0.199,0.18l-0.149,0.172l-0.579,0.533l-0.093,0.112l-0.037,-0.004l0.005,-0.054l-0.074,-0.018l-0.06,0.031l-0.088,-0.004l-0.065,-0.032l-0.125,0.023l-0.047,0.063l0.088,0.144l0.065,-0.009l0.06,-0.108l0.075,-0.013l0.088,0.031l0.014,0.054l-0.367,0.366l-0.282,0.167l-0.255,0.077l-0.186,0.122l-0.213,0.04l-0.222,0.095l-0.232,0.036l-0.315,0.14l-0.31,0.293l-0.547,0.578l-0.061,0.1l-0.342,0.437l-0.751,0.714l-0.13,0.207l-0.649,0.614l-0.046,0.118l-0.667,0.794l-0.721,1.032l-0.024,0.105l-0.348,0.612l-0.219,0.464l0.004,0.224l0.08,0.132l-0.032,0.044l-0.1,-0.027l-0.077,-0.011l-0.06,0.057l0.014,0.05l0.148,0.036l0.116,-0.054l0.037,0.009l-0.153,0.221l-0.477,0.564l-0.32,0.28l-0.158,0.18l-0.361,0.664l-0.338,0.745l-0.121,0.122l-0.051,0.09l-0.106,0.366l-0.098,0.162l-0.134,0.136l-0.19,0.325l-0.028,0.135l-0.19,0.303l-0.107,0.288l-0.491,0.687l-0.065,0.158l-0.259,0.365l-0.213,0.253l-0.195,0.357l-0.236,0.334l-0.033,0.144l-0.065,0.108l-0.153,0.118l-0.12,0.217l-0.232,0.275l-0.092,0.208l-0.186,0.212l-0.06,0.14l-0.199,0.189l-0.028,0.118l-0.074,0.099l-0.181,0.135l-0.051,0.064l0.005,0.076l-0.195,0.253l-0.185,0.145l-0.362,0.442l-0.032,0.099l-0.167,0.217l-0.338,0.375l-0.149,0.04l-0.027,0.023v0.09l-0.353,0.284l-0.074,0.113l-0.292,0.253l-0.157,0.081l-0.232,0.009l-0.273,0.109l-0.204,0.225l-0.088,0.177l-0.269,0.302l-0.144,0.063l-0.092,0.095l-0.139,0.199l-0.218,0.13l-0.056,0.104l-0.208,0.136h-0.107l-0.051,0.036l-0.069,0.113l-0.116,0.063l-0.186,0.013l-0.157,0.077l-0.149,0.172l-0.051,0.149l-0.092,0.113l-0.116,0.036l-0.093,0.122l0.005,0.18l-0.056,0.086l-0.125,0.027l-0.227,0.194l-0.162,0.203l-0.07,0.154l-0.255,0.316l-0.018,0.081l-0.042,0.05l-0.13,0.031l-0.342,0.348l-0.051,0.122l-0.246,0.329l-0.046,0.118l-0.125,0.162l-0.153,0.063l-0.204,0.212l-0.047,0.122l-0.375,0.384l-0.042,0.113l-0.097,0.108l-0.107,0.036l-0.139,0.172l-0.041,0.117l-0.051,0.059l-0.26,0.135l-0.162,0.194l-0.139,0.064l-0.278,0.271l-0.033,0.112l-0.051,0.064l-0.148,0.076l-0.352,0.361l-0.037,0.131l-0.051,0.05l-0.162,0.041l-0.102,0.081l-0.028,0.095l-0.065,0.067l-0.079,0.018l-0.153,0.19l-0.037,0.117l-0.255,0.289l-0.157,0.041l-0.079,0.054l-0.195,0.05l-0.078,0.072l-0.07,0.135l-0.292,0.253l-0.046,0.104l-0.065,0.05l-0.31,0.099l-0.163,0.113l-0.12,0.131l-0.315,0.153l-0.306,0.082l-0.255,0.13l-0.144,0.186l-0.106,0.37l-0.186,0.239l-0.185,0.099l-0.139,0.163l-0.264,0.18l-0.121,0.036l-0.092,0.082l-0.042,0.094l-0.134,0.091l-0.037,0.131l-0.135,0.085l-0.093,0.032l-0.301,0.199l-0.125,0.108l-0.199,0.09l-0.218,0.059l-0.19,0.126l-0.13,0.172l-0.296,0.185l-0.116,0.144l-0.287,0.213l-0.167,0.054l-0.325,0.189l-0.106,0.118l-0.195,0.135l-0.032,0.095l-0.116,0.086l-0.121,0.027l-0.083,0.063l-0.06,0.099l-0.348,0.185l-0.19,0.136l-0.125,0.045l-0.589,0.415l-0.069,0.136l-0.046,0.027l-0.13,0.009l-0.223,0.095l-0.162,0.126l-0.106,0.167l-0.112,0.086l-0.319,0.068l-0.07,0.054l-0.032,0.072l-0.218,0.113l-0.204,0.018l-0.218,0.049l-0.273,0.158l-0.162,0.168l-0.112,0.049l-0.236,0.018l-0.459,0.14l-0.338,0.167l-0.209,0.158l-0.324,0.208l-0.107,0.004l-0.143,0.055l-0.06,0.081l-0.274,0.126l-0.417,0.131l-0.125,-0.004l-0.32,-0.077h-0.31l-0.195,0.045l-0.269,-0.041l-0.292,-0.135l-0.449,-0.158l-0.63,-0.122l-0.543,-0.004l-0.852,0.099l-0.492,0.176l-0.565,0.357l-0.287,0.275l-0.204,0.32l-0.102,0.366v0.194l0.125,0.163l0.227,0.126l0.135,0.154l0.069,0.171l-0.037,0.032l-0.097,-0.023l-0.149,0.014l-0.143,0.112l-0.144,0.01l-0.097,0.031l-0.102,-0.009l-0.626,-0.117l-0.181,-0.014l-0.31,0.036l-0.121,-0.027l-0.495,-0.239l-0.316,-0.131l-0.565,-0.126l-0.607,-0.018l-0.417,0.036l-0.32,0.113l-0.194,0.126l-0.102,0.032l-0.056,0.094l0.032,0.118l-0.06,0.28l-0.074,0.149l-0.338,0.275l-0.19,0.23l0.018,0.095l0.176,0.176l-0.023,0.041h-0.111l-0.065,0.067l-0.074,0.009l-0.148,-0.063h-0.125l-0.255,-0.077l-0.093,-0.004l-0.06,0.027l-0.139,-0.005l-0.311,-0.139l-0.194,0.013l-0.112,0.108l-0.06,0.009l-0.34,-0.094l-0.275,-0.031l-0.299,-0.142l-0.195,-0.179l-0.128,-0.055l-0.091,-0.081l-0.079,-0.02l-0.414,-0.027l-0.292,-0.126l-0.143,-0.023l-0.42,-0.173l-0.278,-0.044l-0.205,0.003l-0.309,-0.044l-0.192,-0.054l-0.497,-0.044l-0.264,-0.074l-0.358,-0.004l-0.49,-0.084l-0.254,-0.095l-0.441,-0.112l-0.601,-0.04l-0.376,0.044l-0.059,0.081l-0.104,0.051h-0.382l-0.257,0.081l-0.226,0.139l-0.08,0.115l0.031,0.047l-0.004,0.068l-0.045,0.078l0.007,0.149l0.038,0.037h0.07l0.097,0.034l0.039,0.047l-0.032,0.014l-0.09,-0.041l-0.073,-0.01l-0.066,0.027h-0.094l-0.09,-0.02l-0.392,-0.027l-0.199,-0.061l-0.406,-0.058h-0.303l-0.116,-0.032l-0.174,-0.016l-0.199,0.027l-0.05,-0.04l0.011,-0.156l-0.065,-0.097l-0.212,-0.043l-0.135,0.018l-0.024,0.077l0.063,0.032l0.065,-0.02l0.062,0.008l0.163,0.183l-0.002,0.04l-0.065,0.018l-0.216,-0.09l-0.153,0.014l-0.09,0.117l-0.039,0.002l-0.083,-0.072l-0.296,-0.13l-0.45,-0.117l-0.202,-0.085l-0.244,-0.07l-0.06,0.002l-0.014,0.048h-0.053l-0.352,-0.129l-0.519,-0.117l-0.35,-0.027l-0.102,0.027l-0.095,0.11l-0.146,0.052l-0.132,0.093l-0.132,0.122l-0.209,0.054l-0.366,-0.016l-0.062,0.027h-0.079l-0.146,-0.045l-0.273,-0.02l-0.429,0.033l-0.25,0.057l-0.307,0.161l-0.247,0.237l-0.087,0.176l0.017,0.17l0.125,0.094l0.129,0.031l0.028,0.034l-0.052,0.078l-0.264,0.081l-0.407,0.003l-0.403,0.071l-0.285,0.139l-0.202,0.24l-0.021,0.153l0.073,0.064l0.129,0.017l-0.004,0.037l-0.177,0.105l-0.062,0.105l0.034,0.068l-0.031,0.047l-0.08,0.004l-0.052,0.027l-0.066,0.091l-0.115,0.017l-0.128,0.095l-0.198,0.054l-0.407,0.034l-0.087,0.058h-0.257l-0.139,-0.041l-0.233,-0.044l-0.473,-0.176l-0.33,-0.02l-0.135,0.05l-0.348,0.027l-0.125,0.082l-0.031,0.084l-0.042,0.065l-0.174,0.071l-0.045,0.071l-0.066,0.03l-0.143,0.014l-0.285,0.098l-0.118,-0.003l-0.281,-0.102l-0.108,-0.007l-0.09,-0.023l-0.049,-0.072l-0.396,-0.155l-0.442,-0.102l-0.507,-0.068l-0.49,0.004l-0.306,0.101l-0.195,0.146l-0.09,0.01l-0.16,-0.003l-0.087,0.023l-0.069,0.004l-0.212,-0.075l-0.014,0.014l0.219,0.118h0.073l0.083,-0.03l0.115,0.007l0.104,0.037l0.024,0.071l0.08,0.054l0.014,0.153l-0.028,0.094l-0.142,0.085l-0.181,-0.007l-0.142,-0.054l-0.33,-0.071l-0.352,-0.037l-0.417,0.003l-0.479,0.085l-0.431,0.169l-0.306,0.193l-0.198,0.237l-0.045,0.105l-0.098,0.122l-0.104,0.03l-0.222,0.126l-0.122,0.132l-0.202,0.111l-0.225,0.061l-0.153,0.136l-0.063,0.111l0.014,0.136l-0.031,0.027l-0.073,-0.03l-0.226,0.023l-0.233,0.098l-0.379,0.21l-0.198,0.197l-0.101,0.186l0.011,0.129l0.062,0.081l-0.01,0.047l-0.15,0.02l-0.041,0.061l-0.129,0.072l-0.132,0.003l-0.226,-0.119l-0.07,-0.003l-0.059,-0.037l-0.014,-0.058l-0.18,-0.139l-0.101,-0.013l-0.024,-0.024l0.007,-0.034l-0.077,-0.054l-0.222,-0.013l-0.098,-0.038h-0.09l-0.063,0.027l-0.215,-0.003l-0.084,0.034h-0.152l-0.157,-0.047l-0.146,0.006l-0.073,0.048l-0.062,0.091l-0.115,0.024l-0.077,-0.037l0.011,-0.065l-0.049,-0.084l-0.066,-0.034l-0.087,0.007l-0.055,-0.038l-0.025,-0.111l-0.083,-0.068l-0.076,-0.007l-0.049,-0.037l-0.042,-0.095l-0.274,-0.278l-0.143,-0.03l-0.167,-0.095l-0.153,-0.034l-0.055,-0.044l-0.035,-0.111l-0.153,-0.163l-0.108,-0.02l-0.25,0.061l-0.122,0.064l-0.166,0.01l-0.073,0.048l-0.087,0.01l-0.011,-0.034l0.101,-0.098l0.129,-0.055l0.191,-0.389l0.121,-0.098l0.018,-0.108l-0.118,-0.336l-0.202,-0.301l-0.219,-0.203l-0.135,-0.058l-0.126,0.017l-0.229,0.18l-0.08,0.003l-0.163,-0.122l-0.143,-0.034l-0.156,0.034l-0.104,-0.034l-0.028,-0.054l0.021,-0.067l-0.007,-0.072l-0.139,-0.155l0.017,-0.031l0.052,-0.007l0.031,-0.054l0.056,-0.017l0.042,-0.033l0.007,-0.136l0.041,-0.074l-0.01,-0.027l-0.073,0.027l-0.118,0.088l-0.094,0.135l0.024,0.064l-0.024,0.031l-0.104,-0.085l-0.164,-0.091l-0.105,-0.01l-0.046,0.027l-0.209,0.004l-0.171,0.118l-0.121,0.018l-0.125,-0.036l-0.185,-0.005l-0.061,0.063l-0.083,0.041l-0.125,-0.009l-0.051,0.05l0.009,0.063l-0.032,0.018l-0.084,-0.054h-0.092l-0.084,-0.046l-0.018,-0.13l0.046,-0.073l0.079,0.005l0.028,-0.032l-0.139,-0.108l-0.028,-0.208l0.079,-0.198l0.162,-0.154l0.004,-0.122l-0.129,-0.122l-0.005,-0.099l-0.088,-0.14l0.028,-0.095l0.296,-0.135l0.005,-0.032l-0.088,-0.072l-0.25,-0.32l-0.278,-0.172l-0.38,-0.059l-0.742,0.027l-0.602,0.14l-0.32,0.136l-0.116,0.153l-0.055,0.009l-0.033,0.041l0.037,0.036l0.005,0.063l-0.084,0.19l0.033,0.086l0.079,0.022l0.134,0.122l0.074,0.19l-0.009,0.149l-0.051,0.063l0.009,0.045l0.07,0.036v0.05l-0.074,0.081l-0.033,0.176l0.056,0.167l0.153,0.131l-0.024,0.027l-0.097,-0.032l-0.162,-0.112l-0.181,-0.068l-0.134,-0.117v-0.109l-0.079,-0.135l-0.079,-0.032l-0.014,-0.04l0.028,-0.113l-0.042,-0.127l-0.051,-0.338l-0.097,-0.113l-0.111,-0.032l-0.102,-0.189l0.032,-0.104l0.144,-0.109l0.042,-0.13l-0.023,-0.109l0.018,-0.117l0.084,-0.05l0.004,-0.067l-0.083,-0.082l-0.047,0.005l-0.023,0.081h-0.069l-0.088,-0.104l-0.07,-0.004l-0.023,-0.041l0.06,-0.077l0.088,-0.036l0.074,-0.117l-0.004,-0.086l0.032,-0.081l0.172,-0.149l0.041,-0.149l-0.023,-0.099l0.019,-0.104l0.125,-0.14l0.102,-0.018l0.106,0.031l0.112,0.073h0.106l0.181,-0.244l0.009,-0.19l-0.051,-0.23l-0.25,-0.388l-0.032,-0.289l0.027,-0.077l0.005,-0.149l-0.171,-0.438l-0.135,-0.153l-0.106,-0.036l-0.116,-0.145l-0.01,-0.086l-0.074,-0.094l-0.092,-0.041l-0.107,0.027l-0.056,-0.036l0.005,-0.176l0.065,-0.167l0.009,-0.063l-0.06,-0.068l-0.046,-0.185l-0.278,-0.357l-0.306,-0.284l-0.283,-0.154l-0.176,-0.117v-0.086l0.069,-0.045l-0.004,-0.131l-0.223,-0.406l-0.245,-0.357l-0.325,-0.356l-0.231,-0.181l-0.209,-0.068l-0.023,-0.045l0.042,-0.045l-0.005,-0.054l-0.134,-0.113l0.018,-0.063l0.13,-0.036l0.023,-0.054l-0.046,-0.086l0.014,-0.041l0.074,0.018l0.111,0.068l0.005,0.05l-0.056,0.013l-0.018,0.027l0.106,0.036l0.037,0.163l0.06,0.036l0.038,0.045l-0.042,0.086l0.037,0.032l0.065,0.004l0.069,0.059l0.023,0.063l0.237,0.199l0.028,0.076l0.046,0.036l0.083,-0.004l0.065,-0.108l-0.028,-0.055l-0.166,-0.04l-0.024,-0.05l0.028,-0.081l-0.018,-0.104l-0.19,-0.113l-0.186,-0.176l-0.032,-0.131l0.046,-0.086l0.019,-0.103l-0.037,-0.249l-0.162,-0.149l-0.07,-0.004l-0.046,-0.027l-0.024,-0.059l-0.129,-0.009l-0.098,0.068l-0.027,0.081l0.069,0.063l-0.014,0.032h-0.12l-0.172,0.144l-0.074,-0.022l-0.051,-0.095l0.046,-0.077l-0.018,-0.104l-0.07,-0.031l-0.069,0.018l-0.028,-0.036l0.028,-0.113l0.051,-0.118l-0.014,-0.293l-0.037,-0.099l-0.116,-0.077l-0.005,-0.059l0.093,-0.09l0.06,-0.113l-0.004,-0.108l-0.204,-0.167l-0.019,-0.077l0.037,-0.059l0.107,-0.009l0.102,-0.036l0.125,-0.095l0.009,-0.23l-0.069,-0.135l0.009,-0.054l0.07,-0.018l0.088,-0.082l0.004,-0.067l0.047,-0.023l0.06,0.041l0.13,-0.018l0.083,-0.109l0.046,0.023l-0.004,0.14l0.055,0.031l0.074,-0.004l0.089,0.068l0.027,0.11l0.278,0.21l0.098,0.014l0.396,-0.055l0.222,-0.115l0.23,-0.318l0.285,-0.237l0.292,-0.44l0.208,-0.467l0.118,-0.583v-0.453l-0.129,-0.659l0.001,-0.15l0.045,-0.021l0.059,0.021l0.059,-0.041l0.03,-0.094l-0.009,-0.162l-0.132,-0.465l-0.014,-0.129l-0.08,-0.166l-0.059,-0.413l0.01,-0.189l0.06,-0.095l-0.004,-0.159l-0.17,-0.454l-0.021,-0.193l-0.108,-0.193l0.004,-0.074l0.052,-0.061l0.014,-0.105l0.027,-0.065l-0.017,-0.118l-0.101,-0.22l-0.149,-0.21l-0.066,-0.146l-0.045,-0.355l-0.053,-0.193l-0.135,-0.203l0.007,-0.041l0.049,-0.064l0.003,-0.088l-0.028,-0.166h-0.028l-0.01,0.091l0.014,0.088l-0.031,0.078h-0.046l-0.205,-0.277l-0.132,-0.312l-0.08,-0.081l-0.031,-0.068l-0.01,-0.105l-0.084,-0.142l-0.313,-0.325l-0.052,-0.075l-0.285,-0.287l-0.083,-0.149l-0.184,-0.247l-0.167,-0.177l-0.097,-0.142l-0.136,-0.132l-0.052,-0.111l-0.118,-0.163l-0.011,-0.105l0.025,-0.061l-0.014,-0.112l-0.132,-0.213l-0.205,-0.2l-0.091,-0.061l-0.156,-0.162l-0.066,-0.119l-0.23,-0.291l0.004,-0.071l-0.025,-0.03l-0.045,-0.017l-0.024,-0.034l0.003,-0.081l-0.079,-0.099l-0.018,-0.091l-0.094,-0.135l-0.024,-0.132l-0.132,-0.329l-0.167,-0.271l-0.16,-0.155l-0.222,-0.298l-0.063,-0.136l-0.104,-0.21l-0.028,-0.128l-0.097,-0.241l-0.115,-0.22l-0.024,-0.125l-0.066,-0.193l-0.171,-0.21l-0.152,-0.162l-0.028,-0.105l-0.042,-0.058l-0.035,-0.098l-0.066,-0.095l-0.076,-0.074v-0.041l0.048,-0.068l-0.003,-0.057l-0.188,-0.231l-0.014,-0.091l-0.139,-0.234l-0.125,-0.135l-0.104,-0.196l-0.004,-0.082l-0.02,-0.033l-0.046,-0.017l-0.017,-0.031l-0.003,-0.098l-0.164,-0.247l-0.066,-0.078v-0.075l-0.021,-0.04l-0.062,-0.044l-0.139,-0.207l-0.004,-0.071l0.018,-0.074l-0.035,-0.22l-0.07,-0.129l-0.003,-0.075l-0.017,-0.044l-0.094,-0.111l-0.052,-0.142l-0.014,-0.133l-0.063,-0.101l0.01,-0.105l-0.017,-0.054l-0.111,-0.095l-0.073,-0.183l-0.011,-0.108l-0.066,-0.119l-0.02,-0.281l-0.073,-0.108l-0.028,-0.156l-0.042,-0.128l-0.017,-0.129l-0.087,-0.159l-0.143,-0.146l-0.017,-0.105l-0.031,-0.057l-0.014,-0.095l-0.052,-0.091v-0.072l0.014,-0.03l-0.007,-0.037l-0.08,-0.088l-0.087,-0.22l-0.011,-0.109l-0.052,-0.223l-0.055,-0.105l-0.007,-0.312l-0.053,-0.054l-0.003,-0.037l0.028,-0.034l-0.011,-0.078l-0.128,-0.291l-0.018,-0.203l-0.201,-0.284l-0.004,-0.051l0.035,-0.044l-0.01,-0.092l-0.049,-0.101v-0.119l-0.014,-0.044l-0.069,-0.067l0.003,-0.041l0.021,-0.024l-0.004,-0.037l-0.055,-0.088l-0.014,-0.085l-0.063,-0.145l-0.01,-0.085l-0.125,-0.145l-0.024,-0.058l-0.014,-0.2l-0.087,-0.142l-0.108,-0.115l-0.066,-0.139l-0.125,-0.118l-0.021,-0.065l-0.014,-0.118l-0.101,-0.186l-0.135,-0.187l-0.011,-0.078l0.025,-0.06l-0.004,-0.102l-0.059,-0.139l-0.021,-0.108l-0.048,-0.112l-0.011,-0.091l-0.049,-0.068l-0.003,-0.041l0.031,-0.057l-0.014,-0.054l-0.219,-0.21l-0.208,-0.105l-0.045,-0.051l-0.025,-0.071l-0.103,-0.194l0.004,-0.182l-0.032,-0.041l-0.08,-0.041l-0.045,-0.084l-0.028,-0.153l-0.139,-0.166l-0.1,-0.074l-0.178,-0.078l-0.08,-0.068l-0.087,-0.027l-0.024,-0.04l-0.017,-0.17l-0.038,-0.071l-0.07,-0.088l0.004,-0.189l-0.053,-0.088l-0.014,-0.082l-0.059,-0.067l0.004,-0.058l0.049,-0.061v-0.108l-0.063,-0.085l-0.156,-0.091l-0.164,-0.186l-0.028,-0.075l-0.2,-0.148l-0.169,-0.113l0.068,-0.237l0.079,-0.099l0.097,-0.041l0.093,-0.094l0.139,-0.018l0.147,-0.03l0.195,-0.023l0.181,-0.104l0.079,-0.09l0.046,-0.167l0.278,-0.176l0.158,-0.036l0.051,0.036l0.018,0.126l0.065,0.05l0.139,-0.009l0.079,-0.072l0.061,-0.158l0.106,-0.064l0.074,-0.103l-0.009,-0.127l-0.051,-0.144l0.023,-0.086l0.251,-0.212v-0.045l-0.135,-0.113l-0.055,-0.136l-0.149,-0.135l-0.028,-0.126l0.047,-0.172l0.12,-0.022l0.139,0.112l0.107,0.014l0.065,-0.054l0.009,-0.176l-0.046,-0.059l-0.097,-0.045l-0.005,-0.059l0.028,-0.045l0.232,0.005l0.069,-0.032v-0.072l-0.144,-0.122l-0.037,-0.077l0.033,-0.054h0.102l0.097,0.059l0.028,0.049l0.051,0.005l0.093,-0.068l0.004,-0.063l-0.028,-0.104l0.019,-0.059l0.019,-0.162l-0.061,-0.113l0.014,-0.068l0.116,-0.131l0.204,-0.009l0.06,0.036l0.088,-0.004l0.126,-0.113l0.055,0.005l0.079,0.09h0.07l0.139,-0.149l0.181,-0.032l0.171,-0.099h0.042l0.269,0.257l0.065,0.149l0.185,0.073l0.116,0.009l0.065,0.054l0.014,0.221l-0.083,0.311l0.009,0.167l0.046,0.1l0.172,0.189l0.106,0.018l0.112,-0.081l0.074,-0.009l0.083,0.036h0.051l0.172,-0.122l0.116,0.005l0.041,0.045l0.084,0.032l0.083,0.112l0.033,0.158l0.028,0.032l0.046,0.014l0.065,0.072v0.067l-0.042,0.1l0.033,0.086l0.162,0.216l0.046,0.122l-0.018,0.163l-0.093,0.194l-0.083,0.067h-0.181l-0.084,0.038l-0.041,0.108l-0.014,0.152l0.041,0.132l0.164,0.078l0.08,0.153l0.007,0.26l0.052,0.044h0.042l0.101,-0.05l0.076,0.006l0.08,0.058v0.044l-0.045,0.118v0.058l0.038,0.034v0.057l-0.042,0.092v0.057l0.021,0.051l-0.01,0.064l-0.084,0.139l0.004,0.214l-0.021,0.071l0.066,0.061l0.052,0.003l0.226,-0.142l0.087,-0.004l0.08,-0.054l0.08,-0.003l0.264,0.044l0.042,-0.004l0.111,-0.101l0.171,0.024l0.09,0.084l0.025,0.139l0.034,0.044l-0.003,0.166l0.069,0.125l0.188,0.048l0.16,-0.024l0.153,-0.163h0.073l0.091,0.078l0.062,0.004l0.084,-0.119l0.034,-0.007l0.213,0.119l0.253,-0.003l0.084,0.027l0.351,0.02l0.104,0.057h0.039l0.048,-0.047l0.042,0.003l0.08,0.139l0.066,0.021l0.101,-0.024l0.063,0.02l0.09,0.115l0.08,0.031l0.122,0.125l0.021,0.088l0.076,0.068l0.052,0.095l0.08,0.091l0.066,0.003l0.136,-0.04l0.083,0.017l0.219,0.149l0.07,0.006l0.073,-0.023l0.181,0.067l0.069,0.095l0.07,-0.003l0.146,-0.139l0.08,-0.003l0.097,0.027l0.049,0.003l0.097,-0.125h0.06l0.18,0.034l0.331,-0.017l0.108,0.068l0.26,0.016l0.098,0.034h0.059l0.226,-0.098l0.136,0.007l0.073,0.02l0.128,-0.007l0.146,-0.149l0.136,-0.054l0.365,-0.054l0.129,-0.078h0.059l0.188,0.024l0.233,-0.027l0.094,-0.061h0.069l0.254,0.064l0.222,0.014l0.24,0.057l0.199,0.007l0.027,0.017h0.039l0.035,-0.027l0.038,0.003l0.101,0.051l0.191,0.01l0.156,0.068l0.105,0.003l0.073,0.068l0.007,0.051l0.104,0.135l0.01,0.095l0.042,0.058l0.139,0.01l0.098,0.04l0.16,0.146l0.253,0.091l0.049,0.004l0.132,-0.054h0.146l0.209,-0.075l0.233,-0.227l0.017,-0.054l0.101,-0.064l0.226,0.034l0.045,-0.004l0.087,-0.108l-0.024,-0.098l-0.063,-0.051l-0.118,-0.014l-0.16,-0.277l-0.017,-0.119l0.045,-0.182l0.164,-0.278l0.113,-0.092l0.083,0.003l0.261,0.044h0.087l0.157,-0.057h0.059l0.052,0.023l0.049,-0.003l0.16,-0.112l0.107,-0.02l0.139,-0.085l0.157,-0.186l0.06,-0.303l0.033,-0.092l0.009,-0.152l0.112,-0.106l0.111,-0.041l0.088,-0.285l0.093,-0.097h0.116l0.126,-0.078l0.111,-0.041l0.093,0.009l0.186,0.119h0.046l0.028,-0.064l0.144,-0.037l0.186,-0.188l0.088,-0.028l0.14,0.009l0.106,0.092l0.103,0.009l0.097,0.037l0.074,-0.004l0.093,-0.069l0.075,-0.129l0.014,-0.083l0.046,-0.064l0.098,-0.019l0.092,-0.092l0.079,-0.013l0.121,0.032h0.056l0.344,-0.124l0.176,0.009v-25.698l0.066,0.065l0.108,0.07l0.046,0.058l0.017,0.076l0.042,0.035l0.132,0.021l0.039,0.041v0.059l0.041,0.028h0.077l0.035,0.038l-0.018,0.09l0.046,0.038l0.073,0.027l0.042,0.052l0.017,0.087l0.049,0.031l0.146,-0.031l0.066,0.017l0.178,0.187l0.052,0.007l0.056,-0.09l0.042,0.003l0.101,0.132l0.042,0.01l0.073,-0.028l0.174,0.073l0.059,0.145l0.091,0.056l0.014,0.103l0.076,0.073l0.105,0.038l0.059,0.059l0.021,0.066l0.049,0.024l0.076,0.01l0.046,0.042l0.031,0.065l0.16,0.059l0.018,0.066l-0.028,0.131l0.045,0.076l0.181,0.08l0.004,0.045l-0.039,0.072l0.014,0.021l0.059,0.011l0.053,0.055v0.048l-0.035,0.028l0.003,0.035l0.046,0.031v0.038l-0.018,0.027l-0.003,0.049l0.076,0.045l0.053,-0.004l0.055,-0.058l0.049,0.006l0.038,0.052v0.076l-0.062,0.101l-0.059,0.024l-0.032,0.045l0.105,0.124l0.007,0.063l0.059,0.038l0.108,-0.025l0.063,0.035l-0.056,0.159l0.003,0.049l0.091,0.103l0.094,0.018l0.063,0.065l0.108,0.011l-0.004,0.038l-0.16,0.086l-0.024,0.073l0.027,0.045l0.06,0.003l0.094,-0.034l0.038,0.038l-0.049,0.145l0.004,0.055l0.156,0.287l0.095,0.014l0.08,-0.034l0.048,0.013l0.042,0.059l-0.035,0.107l0.007,0.063l0.049,0.017l0.115,-0.038l0.045,0.024l-0.014,0.045l-0.083,0.062l-0.007,0.059l0.063,0.076h0.094l0.122,-0.11l0.062,0.006l0.032,0.049l-0.011,0.069l-0.042,0.035l-0.142,0.01l-0.039,0.038l0.028,0.125l-0.01,0.058l-0.077,0.066l0.007,0.097l0.045,0.034l0.087,0.007l0.174,0.173l0.129,0.256l-0.038,0.049l-0.167,0.027l-0.091,0.177l0.035,0.048l0.129,-0.052l0.073,0.035l-0.007,0.128l-0.066,0.11l0.007,0.121l0.066,0.063l0.143,0.079l0.094,0.111l0.052,0.162l-0.007,0.132l0.032,0.028l0.111,0.013l0.073,0.056v0.069l-0.087,0.062l-0.066,0.107l0.014,0.059l0.045,0.017l0.07,-0.031l0.038,-0.079l0.098,-0.066l0.059,0.021l0.003,0.052l-0.017,0.031l-0.007,0.055l0.024,0.049l-0.006,0.048l-0.035,0.073l0.024,0.062l0.129,0.031l0.042,0.052v0.131l-0.077,0.056l-0.01,0.058l0.035,0.121l0.236,0.215v0.062l-0.055,0.059l-0.018,0.114l-0.066,0.093v0.049l0.098,0.114l0.007,0.1l-0.032,0.069l-0.066,0.056l0.003,0.052l0.063,0.055l0.07,0.045l-0.004,0.052l-0.097,0.086l-0.007,0.052l0.118,0.111l0.087,0.01l0.046,0.042l-0.007,0.055l-0.126,0.173l-0.115,0.069l-0.055,0.121l-0.014,0.177l-0.039,0.089l-0.021,0.115l-0.083,0.103l-0.014,0.069l-0.188,0.09l-0.042,0.056l-0.077,0.173l-0.142,0.096l-0.042,0.066l-0.035,0.094l-0.087,0.086l-0.014,0.169l-0.031,0.045l-0.115,0.021l-0.136,0.208l-0.053,0.031l-0.125,0.007l-0.063,0.072l-0.027,0.374l-0.039,0.076l-0.003,0.066l0.021,0.086l0.01,0.173l0.136,0.19l0.01,0.19l-0.021,0.177v0.107l0.049,0.035l-0.007,0.052l-0.118,0.079l-0.025,0.097l0.032,0.138l0.097,0.09l-0.003,0.055l-0.045,0.08l0.007,0.062l0.066,0.08l-0.007,0.062l-0.08,0.076v0.035l0.087,0.038l0.073,0.09l-0.004,0.048l-0.034,0.052l0.01,0.059l0.118,0.027l0.136,0.056l0.007,0.059l-0.045,0.069v0.059l0.066,0.238l0.042,-0.003l0.07,-0.087l0.024,-0.11l0.094,-0.056h0.251l0.07,-0.038l0.073,-0.11l0.062,-0.032h0.133l0.042,-0.034l0.014,-0.097l0.045,-0.031l0.139,-0.007l0.234,-0.125l0.167,-0.003l0.191,0.093h0.067l0.114,-0.031l0.063,0.011l0.23,0.245l0.066,0.021h0.178l0.066,0.028l0.07,0.003l0.069,-0.014l0.126,0.042l0.129,0.024l0.076,0.093l0.074,0.004l0.094,-0.038l0.156,-0.004l0.129,-0.104l0.129,-0.055l0.077,0.004l0.111,0.013l0.115,-0.048h0.08l0.094,0.055h0.115l0.101,-0.062l0.084,-0.083l0.101,-0.007l0.132,0.028h0.074l0.108,-0.049l0.132,0.004l0.164,0.041l0.108,0.094l0.195,0.027l0.17,0.108h0.074l0.066,-0.097l0.066,-0.024l0.094,0.024l0.056,-0.004l0.052,-0.045l0.108,-0.003l0.094,0.045l0.136,0.121l0.073,0.01l0.164,-0.003l0.073,-0.062h0.056l0.073,0.024l0.066,-0.007l0.244,-0.221l0.139,-0.087l0.073,-0.079l0.06,-0.018l0.017,-0.034l0.003,-0.083l0.056,-0.08l-0.003,-0.052l-0.049,-0.117l0.01,-0.163l-0.094,-0.128l-0.003,-0.093l0.069,-0.104l0.154,-0.059l0.097,-0.059h0.115l0.275,0.07l0.133,-0.007l0.063,-0.038l0.111,-0.004l0.091,0.045l0.073,-0.003l0.226,-0.139l0.108,-0.017l0.112,-0.069l0.219,-0.031l0.119,-0.177l0.052,-0.193l0.038,-0.038l0.077,-0.025l0.069,-0.121l0.035,-0.034l0.122,-0.021l0.028,-0.045l0.017,-0.104l0.035,-0.041l0.126,-0.062l0.024,-0.073l-0.045,-0.076l0.01,-0.045l0.14,-0.076l0.027,-0.08l-0.014,-0.103l0.014,-0.052l0.094,-0.059l0.007,-0.069l-0.062,-0.09l0.024,-0.066l0.282,-0.169l0.007,-0.097l0.053,-0.059l0.261,-0.062l0.125,0.024l0.049,-0.01l0.097,-0.132l0.108,-0.007l0.067,0.038l0.062,-0.007l0.032,-0.055l-0.035,-0.197l0.038,-0.035l0.126,-0.003l0.108,-0.08l0.021,-0.065l-0.042,-0.076l0.014,-0.042l0.076,-0.052l0.035,-0.09l0.042,-0.014l0.115,0.035l0.083,-0.007l0.053,-0.066l0.024,-0.089l0.063,-0.028l0.223,0.086l0.122,0.09l0.139,-0.01l0.063,-0.049l0.031,-0.093l0.094,-0.118l0.007,-0.304l0.042,-0.017l0.084,0.062l0.045,-0.017l0.021,-0.128l0.066,-0.035l0.111,-0.027l0.004,-0.059l-0.035,-0.049l0.007,-0.065l0.244,-0.135l0.024,-0.073l-0.007,-0.162l-0.042,-0.111l0.018,-0.073l0.066,-0.01l0.213,0.045l0.104,-0.045l0.021,-0.297l-0.038,-0.108l0.014,-0.079l0.146,-0.132l0.003,-0.038l-0.195,-0.093l-0.035,-0.076l0.014,-0.052l0.119,-0.031l0.038,-0.045l-0.014,-0.104l0.032,-0.052l0.188,-0.076l0.062,-0.093l-0.017,-0.087l-0.258,-0.135l0.007,-0.041l0.126,-0.021l0.034,-0.062l0.035,-0.294l0.042,-0.045l0.153,-0.048l0.154,-0.211l0.007,-0.121l0.048,-0.08l-0.007,-0.035l-0.111,-0.034l-0.07,-0.083l0.004,-0.059l0.146,-0.073l0.146,-0.006l0.032,-0.032l-0.007,-0.041l-0.216,-0.173l0.01,-0.045l0.066,-0.076l0.073,-0.156l0.07,-0.072l0.028,-0.111l0.031,-0.055l-0.01,-0.038l-0.077,-0.066l0.011,-0.048l0.09,-0.063l0.108,0.028l0.087,0.048l0.049,-0.017l-0.007,-0.038l-0.083,-0.052l0.003,-0.055l0.087,-0.097l0.07,-0.187l0.087,-0.103l0.303,-0.18l0.045,-0.076l-0.01,-0.163l0.045,-0.059l0.15,-0.007l0.063,-0.058l-0.025,-0.194l0.028,-0.024l0.108,0.069l0.049,-0.011l0.083,-0.114h0.06l0.021,0.052l0.003,0.049l-0.045,0.069l-0.004,0.045l0.101,0.055l0.056,0.007l0.052,-0.045l0.025,-0.086l0.059,-0.021l0.045,-0.038l0.052,0.003l0.101,0.073h0.046l0.048,-0.066l0.053,-0.021l0.073,0.014l0.045,-0.031l0.035,-0.093l0.091,-0.059l0.163,-0.031l0.115,0.034l0.063,0.004l0.038,-0.021h0.042l0.042,0.021h0.049l0.048,-0.031l0.049,0.007l0.07,0.107l0.059,0.003l0.07,-0.058l0.035,0.003l0.045,0.055l0.066,0.004l0.115,-0.045l0.063,0.014l0.062,0.107l0.067,0.017h0.122l0.087,0.062l0.062,-0.01l0.129,-0.228l0.066,-0.028l0.098,0.014l0.007,0.052l-0.052,0.069l0.01,0.038h0.101l0.139,0.121l0.021,0.104l-0.017,0.117l0.024,0.011l0.122,-0.073l0.053,0.007l0.066,0.069l0.115,0.014l0.028,0.031l-0.011,0.066l0.031,0.017l0.067,-0.003l0.08,0.045v0.093l0.052,0.031l0.052,-0.003l0.035,-0.076l0.049,-0.004l0.045,0.028l-0.007,0.048l-0.052,0.052l0.01,0.028l0.105,0.017l0.045,0.042l0.031,0.103l0.07,0.004l0.049,-0.076l0.063,-0.014l0.055,0.052l-0.007,0.052l-0.041,0.048l0.007,0.035l0.076,0.024l0.077,-0.021l0.063,0.028l0.007,0.093h0.041l0.073,-0.1h0.049l0.039,0.062l0.045,0.038l0.111,0.024l0.004,0.045l-0.035,0.042l0.003,0.038l0.056,0.031l0.018,0.033l-0.005,0.053l0.021,0.024l0.074,0.002l0.07,0.046l0.046,0.007l0.109,-0.028l0.061,0.028v0.037l-0.1,0.092l0.005,0.076l0.062,0.051l0.051,-0.012l0.042,-0.046l0.037,0.007l0.044,0.069l-0.03,0.074l0.024,0.046l0.174,0.012l0.067,0.039l0.009,0.101l0.035,0.033l0.116,0.034l0.026,0.037l-0.028,0.106l0.035,0.042l0.076,0.013l0.065,0.042l0.11,0.014l0.041,-0.049l-0.014,-0.048l0.024,-0.019l0.06,-0.004l0.035,-0.037h0.053l0.049,0.032l0.151,0.003l0.042,0.025l-0.007,0.032l-0.047,0.028l-0.011,0.099l0.03,0.023l0.114,-0.037l0.018,-0.067l0.038,-0.002l0.113,0.101l0.1,0.01l0.016,-0.023l-0.023,-0.06l0.019,-0.049l0.06,-0.002l0.033,0.071l0.042,-0.002l0.041,-0.058l0.07,-0.027l0.202,-0.002l0.019,-0.033l0.009,-0.062l0.086,-0.055l0.06,0.018l0.007,0.046l-0.037,0.056l0.016,0.041l0.079,0.002l0.07,-0.071l0.077,0.002l0.102,0.088l0.028,0.057l0.025,0.017l0.051,-0.003l0.019,0.026l-0.005,0.071l0.063,0.067l0.083,0.032l0.014,0.033l-0.027,0.034l0.011,0.023l0.077,0.035l0.014,0.034l-0.01,0.067l0.026,0.016l0.051,-0.016l0.035,-0.067l0.058,-0.002l0.023,0.035l-0.014,0.048l-0.055,0.03l-0.003,0.058l0.049,0.03l0.121,-0.076l0.123,-0.019l0.021,0.03l-0.014,0.113l0.093,0.101l0.081,0.033l0.042,0.046l0.121,0.037l0.044,0.002l0.037,-0.051h0.028l0.037,0.035l0.035,-0.007l0.009,-0.076l0.042,-0.012l0.074,0.035l0.051,-0.021l0.016,-0.094h0.024l0.021,0.027h0.02l0.033,-0.032l0.025,0.005l0.026,0.039l0.033,0.002l0.03,-0.021l0.03,0.005l0.016,0.032l0.316,0.104l0.172,0.062l0.125,0.003l0.116,0.046l0.149,0.117l0.072,0.033l0.167,0.034l0.165,0.079l0.079,0.009l0.021,0.021h0.028l0.088,-0.079l0.146,-0.046l0.079,0.007l0.1,0.055l0.056,0.007l0.039,-0.016l0.047,0.002l0.072,0.044l0.065,0.005l0.032,0.03l0.033,0.002l0.044,-0.032l0.04,-0.005l0.002,-0.044l0.035,-0.004l0.035,0.021l0.092,-0.005l0.068,-0.039l0.151,-0.014l0.058,0.016l0.067,-0.009l0.042,0.016l0.023,-0.009l0.021,-0.044l0.07,-0.039l0.002,-0.083l0.026,-0.007l0.032,0.034l0.047,-0.02l0.053,-0.067l0.084,-0.021l0.027,-0.071l0.031,-0.005l0.041,0.03l0.038,-0.005l0.044,-0.08l0.06,-0.014l0.058,-0.062l0.049,-0.017l0.012,-0.066l0.058,-0.035l0.06,0.035h0.03l0.068,-0.053l0.095,0.009l0.079,0.076l0.065,0.004l0.046,-0.025l0.03,0.007l0.012,0.048l0.03,0.012l0.088,0.009l0.07,0.099l0.047,0.005l0.067,-0.025l0.125,0.016l0.095,0.055l0.075,0.007l0.134,-0.042l0.068,0.003l0.065,0.039l0.039,0.002l0.051,-0.011l0.172,0.025l0.163,-0.018l0.118,0.004l0.142,0.037l0.121,-0.011l0.09,-0.058l0.123,-0.035l0.098,-0.08l0.283,-0.116l0.249,-0.212l0.088,-0.016l0.056,-0.044l0.032,-0.004l0.054,0.011l0.051,-0.018l0.195,-0.178l0.223,-0.115l0.072,-0.076l0.541,-1.164l0.176,-0.653l0.072,-0.576l0.23,-0.388l0.575,-1.395l0.056,-0.426l0.189,-0.441l0.115,-0.058l0.002,-0.028l-0.043,-0.032l0.002,-0.028l0.048,-0.003v-0.017l-0.027,-0.034l0.005,-0.051l0.065,-0.02l0.005,-0.03l-0.031,-0.139l-0.048,-0.055l-0.009,-0.163l-0.03,-0.039l-0.024,-0.006l-0.03,0.023l-0.02,-0.017l0.026,-0.064l-0.004,-0.056l-0.126,-0.116l0.01,-0.074l0.048,-0.035l-0.004,-0.1l-0.028,-0.032l0.013,-0.02l0.404,-0.013l0.066,-0.049l0.309,0.019l0.361,-0.186l1.074,-0.234l1.382,-0.362l0.098,0.061l0.041,-0.009l0.065,-0.097l-0.002,-0.059l0.027,-0.024l0.052,-0.002l0.052,-0.039l0.067,-0.028l0.129,-0.156l0.045,-0.124l0.016,-0.092l0.054,-0.137l0.048,-0.065l0.02,-0.124l0.054,-0.058l0.015,-0.081l0.109,-0.066l0.05,-0.043l0.002,-0.041l0.024,-0.021l0.052,-0.013l0.042,-0.064l0.056,-0.024l0.052,-0.099l0.079,-0.064l0.024,-0.047l0.002,-0.054l0.03,-0.025l0.129,-0.011l0.028,-0.023l0.013,-0.039l0.063,-0.026l0.046,0.004l0.022,-0.021l0.01,-0.034l0.052,-0.028l0.059,0.013l0.044,-0.019l0.048,-0.065v-0.043l-0.016,-0.042l0.022,-0.052l0.029,-0.015l0.013,-0.056l0.078,-0.038l0.057,0.008l0.03,-0.025l0.026,-0.094l0.028,-0.016l0.076,-0.002l0.048,-0.032l0.018,-0.055l0.034,-0.016l0.061,0.02l0.014,0.034h0.043l0.155,-0.079l0.025,0.002l0.018,0.038h0.017l0.027,-0.032l0.05,-0.012l0.019,-0.022l-0.006,-0.045l0.028,-0.023l0.063,-0.009l0.098,-0.09l0.096,-0.002l0.048,-0.039l0.043,-0.077l0.048,-0.034l0.015,-0.049l-0.048,-0.107l0.017,-0.078l0.066,-0.034l0.065,-0.148l-0.022,-0.012l-0.054,0.01l-0.024,-0.027l-0.007,-0.09l0.025,-0.035l0.054,-0.021l-0.004,-0.112l-0.088,-0.073l-0.008,-0.04l0.028,-0.06v-0.051l-0.043,-0.073l0.012,-0.052l0.125,-0.038l0.05,-0.122l0.011,-0.156l0.026,-0.058l0.085,-0.095l0.012,-0.047l0.018,-0.319l0.024,-0.075l0.102,-0.081l0.01,-0.047l-0.028,-0.165l0.014,-0.066l0.076,-0.11l0.021,-0.111l0.056,-0.073v-0.066l-0.044,-0.049l-0.075,-0.022l-0.006,-0.044l0.051,-0.057l0.079,-0.021l0.023,-0.033l-0.005,-0.035l-0.051,-0.052l-0.002,-0.059l0.023,-0.056l0.007,-0.09l0.06,-0.113l0.01,-0.233l0.032,-0.106l0.005,-0.063l0.03,-0.033l-0.002,-0.035l-0.024,-0.026l0.021,-0.04l0.168,-0.062l0.016,-0.033l-0.023,-0.051l0.002,-0.043l0.021,-0.04l-0.007,-0.037l-0.016,-0.052l0.023,-0.059l0.058,-0.04l0.056,0.007l0.051,0.04l-0.005,0.045l-0.021,0.028l0.014,0.028l0.067,-0.014l0.019,0.024l-0.033,0.096l0.026,0.045h0.06l0.151,-0.066l0.054,-0.068l-0.014,-0.033l0.014,-0.024l0.028,0.005l0.009,-0.071l-0.077,-0.117l-0.053,-0.022l-0.023,-0.065l0.025,-0.031h0.063l0.03,0.021l0.028,-0.014l0.005,-0.085l0.037,-0.002l0.055,0.023l0.035,-0.009l0.049,-0.073l-0.002,-0.148l0.042,-0.038l0.076,0.014l0.04,0.047l0.081,0.005l0.06,-0.042l-0.004,-0.05l-0.035,-0.052l-0.065,-0.028l-0.03,-0.073l0.004,-0.092l0.04,-0.016l0.056,0.009l0.065,0.076l0.044,-0.005l0.007,-0.075l0.051,-0.005l0.1,0.066h0.074l0.049,-0.035l0.004,-0.05l-0.104,-0.075v-0.066l0.074,-0.097l0.157,-0.042l0.021,0.028l-0.007,0.046l0.031,0.011l0.049,-0.046l0.021,-0.06l0.111,-0.06l0.084,0.007l0.08,-0.035l0.045,-0.057l0.046,-0.025l0.062,-0.007l0.06,-0.063l-0.011,-0.074l0.035,-0.078l0.052,-0.053l0.021,-0.092l0.098,-0.053l0.076,0.014l0.014,0.089l-0.042,0.056l0.011,0.043l0.139,0.003l0.038,-0.028l0.004,-0.046l-0.031,-0.049l0.003,-0.064l0.073,-0.078l0.143,0.007l0.014,0.053l-0.01,0.064l-0.032,0.025v0.053l0.066,0.052l0.087,-0.007l0.095,-0.247l0.087,-0.028l0.351,0.018l0.14,-0.021l0.056,-0.05l0.027,-0.088l0.136,-0.11l0.059,-0.109l-0.006,-0.064l-0.056,-0.049l0.003,-0.049l0.08,-0.117l0.018,-0.092l-0.021,-0.085l0.042,-0.06l0.09,-0.017l0.035,-0.071l-0.01,-0.138l0.038,-0.052h0.111l0.108,0.056l0.119,-0.011l0.118,-0.155l0.087,-0.039l0.122,0.036l0.07,0.162l0.08,0.046l0.108,-0.011l0.059,-0.081l0.004,-0.092l0.069,-0.13l0.063,-0.057l0.066,-0.018l0.035,-0.063l-0.028,-0.078l-0.108,-0.077l-0.01,-0.05l0.059,-0.035l0.042,0.018l0.003,0.045l0.035,0.007l0.157,-0.045l0.049,-0.043l0.01,-0.074l-0.038,-0.056l0.017,-0.05l0.046,-0.003l0.041,0.038l0.094,-0.014l0.262,-0.106l0.257,-0.169l0.119,-0.141l0.017,-0.103l-0.028,-0.141l0.025,-0.141l-0.045,-0.18l0.02,-0.053h0.042l0.035,0.028l0.087,-0.007l0.192,-0.155l0.174,-0.057l0.143,-0.141l0.073,-0.124l-0.004,-0.049l-0.041,-0.074l-0.004,-0.046l0.028,-0.046l-0.003,-0.039l-0.049,-0.081l0.007,-0.056l0.052,-0.036l0.125,-0.007l0.094,-0.081l0.102,-0.028l0.198,-0.216l0.119,-0.042l0.114,-0.124l0.011,-0.077l-0.028,-0.166l0.021,-0.064l0.192,-0.222l0.142,-0.117l0.22,-0.056l0.136,-0.12l0.062,-0.138l0.046,-0.042l0.163,-0.029l0.15,-0.102l0.08,-0.113l0.042,-0.032l0.15,0.007l0.083,-0.017l0.272,0.014l0.073,-0.011l0.262,0.014l0.073,0.018l0.136,0.085l0.069,-0.004l0.209,-0.084l0.087,-0.092l0.056,-0.014l0.272,0.024l0.188,-0.031l0.118,-0.068l0.06,-0.067l0.048,-0.031l0.094,-0.007l0.07,-0.05l0.031,-0.06l0.234,-0.095l0.178,-0.011l0.337,-0.077l0.067,-0.008l0.034,-0.045l-0.01,-0.096l0.017,-0.07l0.171,-0.078h0.143l0.181,0.078l0.063,-0.004l0.153,-0.155l0.087,-0.244l0.105,-0.155l0.003,-0.057l-0.035,-0.166l0.011,-0.243l0.073,-0.092l0.024,-0.074l0.039,-0.032l0.055,-0.007l0.046,-0.049l0.024,-0.068l0.045,-0.081l0.018,-0.137l0.031,-0.036h0.045l0.049,-0.046l0.328,0.004l0.118,-0.053h0.115l0.15,0.025l0.094,-0.018l0.244,-0.201l0.156,-0.032l0.147,0.014l0.09,0.064h0.147l0.08,-0.036l0.209,0.004l0.052,0.035l0.028,0.071h0.042l0.048,-0.05h0.046l0.045,0.036l0.038,-0.004l0.056,-0.025l0.223,-0.077l0.142,-0.096l0.262,-0.044l0.132,0.011l0.182,0.078h0.086l0.041,-0.052l0.017,-0.087l0.055,-0.042l0.093,0.002l0.116,-0.066l0.068,0.003l0.13,0.087l0.044,-0.003l0.132,-0.143l0.135,-0.047l0.058,0.007l0.065,0.063l0.063,0.015l0.1,-0.017l0.144,0.038h0.3l0.108,0.031l0.209,0.159l0.157,0.036l0.136,0.003l0.084,0.039l0.083,0.074l0.077,0.018l0.17,-0.021l0.098,0.031l0.216,0.173l0.104,0.036l0.189,0.01l0.059,0.032l0.042,0.127l0.055,0.032l0.143,0.021l0.084,0.053l0.066,0.081l0.167,0.078l0.129,0.134l0.08,0.014l0.181,-0.077l0.338,-0.025l0.147,0.025l0.045,0.074l0.101,0.06l0.104,0.183l0.098,0.064l0.063,0.003l0.094,-0.042l0.494,0.011l0.223,-0.082l0.147,-0.014l0.236,-0.13l0.101,-0.004l0.321,0.085l0.077,-0.004l0.09,-0.053l0.202,-0.01l0.185,0.092h0.056l0.16,-0.149l0.083,-0.003l0.213,0.039l0.077,-0.004l0.097,-0.046l0.411,-0.053l0.213,-0.067l0.149,0.007l0.216,0.071l0.056,-0.007l0.073,-0.036h0.119l0.101,0.032l0.062,0.067l0.049,0.022l0.105,0.003l0.052,0.025l0.028,0.049l0.056,0.011l0.055,-0.021l0.011,-0.043l0.052,-0.014l0.523,0.212l0.139,-0.004l0.324,-0.12l0.111,0.004l0.129,0.071l0.063,0.116l0.094,0.074l0.139,0.007l0.094,-0.042l0.14,0.032l0.093,0.15l0.146,0.138l-0.038,0.053l1.729,5.339l-0.063,1.568l0.063,0.487l0.668,0.699l0.182,0.304l0.048,0.671l0.467,1.108l0.759,0.502l0.168,1.595l0.522,0.876l0.14,1.036l-0.068,1.8l0.218,2.732l-0.009,0.924l-0.098,1.114l-0.241,0.54l0.01,0.458l0.106,0.009l0.065,0.827l-0.051,0.218l-0.134,0.143l-0.315,1.03l0.267,0.814l-0.699,0.326l-3.008,-1.975l-0.661,0.18l-0.308,0.422l-0.94,0.822l-0.089,0.44l-0.968,1.887l-0.503,0.491l-0.228,0.441l-0.173,0.184l-0.177,0.404l-0.107,0.685v1.043l0.084,0.771l0.07,0.124l0.052,0.004l0.144,-0.134l0.118,-0.004l0.171,-0.127l0.018,-0.162l0.028,-0.001l0.07,0.532l0.475,0.368l0.004,0.353l-0.111,0.234l0.163,0.312l0.484,0.391l0.638,0.789l2.286,0.822l3.057,0.017l-0.018,-1.419l0.055,-0.39l0.019,-0.372l0.098,-0.478l0.004,-0.064l-0.023,-0.05l0.005,-0.097l0.107,-0.652l-0.028,-0.041l0.005,-0.069l0.125,-0.014l0.131,0.083l0.084,-0.005l0.107,-0.087l0.112,0.005l0.074,0.032l0.037,0.133l0.061,0.078l0.079,0.009z M1302.724302,959.97767l-0.199,-0.153l-0.524,0.027l-0.078,-0.05l-0.098,0.018l-0.227,-0.073l-0.13,-0.155l0.01,-0.1l-0.056,-0.055l-0.097,0.005l-0.13,0.082l-0.375,0.014l-0.149,0.027l-0.139,-0.014l-0.143,-0.077l-0.098,-0.014l-0.055,-0.041l-0.009,-0.068l-0.13,-0.151l-0.121,-0.068l-0.028,-0.123l-0.083,-0.055l-0.069,-0.023l-0.107,-0.1l-0.097,-0.018l-0.113,-0.085l0.004,-0.061l-0.042,-0.011l-0.052,0.007l-0.007,-0.037l0.056,-0.048l-0.011,-0.086l-0.094,-0.109l0.035,-0.055l-0.028,-0.024l-0.163,0.017l-0.056,-0.075l0.021,-0.086l-0.087,-0.174l-0.118,-0.086l-0.035,-0.054l-0.107,-0.004l-0.049,0.041l-0.056,-0.03l0.007,-0.076l-0.035,-0.017l-0.048,0.011l-0.025,-0.018v-0.061l-0.076,-0.079v-0.205l-0.052,-0.062l-0.09,-0.003l-0.08,0.065l-0.132,0.007l-0.157,0.102l-0.083,0.007l-0.045,-0.075l0.059,-0.058l0.045,-0.079l-0.004,-0.041l-0.073,-0.024v-0.034l0.035,-0.044l-0.007,-0.065l-0.049,-0.041l-0.048,0.02l-0.035,-0.027l-0.003,-0.12l0.02,-0.085l-0.013,-0.24l0.034,-0.072l-0.024,-0.072l0.021,-0.02l0.062,0.024l0.039,-0.031l-0.007,-0.082l0.128,-0.15l0.004,-0.055l-0.045,-0.069l-0.07,0.018l-0.212,0.003l-0.118,0.038l-0.077,-0.014l-0.205,-0.66l-0.09,-0.065l-0.083,-0.031l-0.028,-0.065l0.024,-0.041l-0.01,-0.031h-0.105l-0.114,-0.109l-0.115,0.01l-0.007,-0.024l0.049,-0.038l-0.021,-0.092l-0.82,-1.898l-0.268,-0.209l-0.104,-0.15l-0.181,-0.127l0.007,-0.068l0.08,-0.072v-0.051l-0.049,-0.089l0.011,-0.041l0.08,-0.014l0.048,0.041l0.038,0.092l0.063,0.031l0.038,-0.013l0.032,-0.11l0.003,-0.164l0.038,0.003l0.07,0.113l0.052,-0.01l0.097,-0.082l0.025,-0.082l0.114,-0.106l0.122,-0.021l0.059,-0.075l0.087,-0.01l0.163,0.065h0.087l0.042,-0.093l0.076,-0.078h0.049l0.035,0.061h0.083l0.049,-0.044l0.028,-0.096l0.1,-0.051l0.112,0.055l0.08,-0.004l0.017,-0.058l-0.028,-0.096l0.038,-0.123l0.132,-0.092l0.053,-0.004l0.093,0.048h0.07l0.028,-0.041l-0.004,-0.055l-0.045,-0.065l0.01,-0.106l0.101,-0.037l0.063,-0.069l0.08,-0.184l0.028,-0.004l0.066,0.024l0.097,-0.055l-0.011,-0.133l-0.093,-0.089l-0.007,-0.075l0.031,-0.007l0.101,0.065l0.048,-0.02l0.018,-0.271l0.205,-0.099l-0.004,-0.044l-0.083,-0.082l0.021,-0.048l0.128,-0.014l0.056,0.072l0.031,-0.004l-0.007,-0.075l0.059,-0.061l0.105,-0.017l0.076,-0.124l0.111,-0.044l0.028,-0.075l-0.087,-0.072l-0.069,0.027l-0.025,-0.013l0.021,-0.059l-0.045,-0.065l0.052,-0.054l0.073,-0.007l0.118,-0.123l0.094,-0.034l0.066,-0.072l0.032,-0.113h0.059l0.055,0.027l0.094,-0.054l0.017,-0.079l-0.093,-0.106l0.059,-0.045l0.083,0.028l0.087,-0.052l-0.017,-0.068l0.027,-0.031l0.073,0.007l0.035,-0.089l-0.073,-0.13l0.042,-0.031l0.097,0.024l0.087,-0.048l-0.007,-0.092l-0.09,-0.044h-0.097l-0.049,-0.069l0.055,-0.044l0.094,0.034l0.056,-0.038l-0.007,-0.071l0.017,-0.031h0.073l0.007,-0.041l-0.021,-0.086l0.049,-0.041l0.111,0.052l0.042,-0.028l0.017,-0.109l-0.066,-0.052l0.011,-0.024l0.08,-0.01l0.034,-0.092l-0.006,-0.069l0.093,-0.136h0.046l0.041,0.027l0.059,-0.007v-0.085l0.046,-0.065l-0.018,-0.048l-0.055,-0.062v-0.061l0.055,0.007l0.091,0.068l0.076,0.003l0.031,0.028l0.028,0.048l0.156,0.01l0.053,-0.089h0.034l0.035,0.048l0.035,-0.007l0.031,-0.051h0.038l0.084,0.095l0.128,-0.003l0.07,-0.096l-0.004,-0.096l-0.059,-0.041l0.042,-0.041h0.132l0.035,-0.047l-0.004,-0.079l0.122,-0.103l0.056,0.01l0.121,0.096l0.039,0.082l0.118,0.028l0.066,-0.034h0.076l0.045,0.037l0.07,-0.003l0.028,-0.038l-0.042,-0.092l0.035,-0.048l0.177,-0.075l0.003,-0.059l-0.048,-0.071l0.017,-0.076l0.059,-0.02l0.087,0.01l0.08,-0.079l0.094,-0.246l0.083,-0.068l0.007,-0.099l0.035,-0.021l0.059,0.007l0.125,-0.116l0.066,-0.021l0.059,-0.085l0.08,-0.038l0.025,-0.079h0.027l0.035,0.106h0.094l0.16,-0.092h0.059l0.177,0.051l0.077,0.072l0.08,-0.007l0.09,-0.123l0.049,0.004l0.066,0.048h0.052l0.055,-0.065l0.046,-0.004l0.038,0.055l0.035,-0.01l0.087,-0.117l-0.046,-0.116l0.035,-0.024l0.063,-0.007l0.09,-0.126l0.073,-0.024l0.01,-0.045l-0.041,-0.048l0.01,-0.041l0.066,-0.013l0.084,0.041l0.08,-0.041l0.135,-0.017l0.094,-0.086h0.184l0.063,0.065l0.038,-0.003l0.073,-0.089l0.049,0.003l0.034,0.027l0.171,-0.013l0.055,0.034l0.164,-0.021l0.198,-0.188l0.069,0.004l0.077,-0.069h0.066l0.198,0.141l0.021,0.075l0.101,0.082l0.003,0.051l-0.038,0.041v0.076l-0.032,0.023v0.048l0.073,0.048l0.004,0.137l0.111,0.058l0.021,0.041l0.09,0.004l0.056,-0.024l0.056,0.007l0.149,0.112l0.087,0.007l0.09,0.072l0.011,0.079l-0.042,0.089l0.024,0.246l0.066,0.038l0.164,-0.113l0.132,-0.007l0.073,0.037l0.028,0.059l0.051,0.02l0.041,-0.004l0.042,-0.073l0.072,-0.03l0.048,0.016l0.026,0.068l0.111,0.025l0.06,0.055l-0.002,0.034l-0.058,0.012l-0.002,0.034l0.088,0.048l-0.005,0.036l-0.081,0.009l-0.065,0.046l0.03,0.055l0.058,0.007l0.054,0.057v0.12l0.034,0.032l-0.007,0.028l-0.055,0.02l-0.005,0.048l0.042,0.037l0.086,-0.003l0.007,0.035l-0.021,0.036l0.055,0.075l0.044,0.016l0.005,0.128l0.042,0.039l0.062,-0.007l0.028,-0.064l0.056,-0.014l0.055,-0.068l-0.009,-0.057l0.039,-0.032h0.044l0.04,0.059l0.014,0.08l0.06,0.068l0.007,0.041l0.171,0.007l0.056,0.037l0.002,0.105l0.024,0.018l0.092,0.002l0.067,0.071l0.051,0.016l0.121,0.112v0.025l-0.042,0.018l0.007,0.057l0.056,0.03l0.083,-0.005l0.081,0.084v0.035l0.028,0.02l0.1,0.009l0.067,0.069l0.102,0.016l0.095,0.082l-0.005,0.041l-0.03,0.032v0.052l0.083,0.027l0.028,0.041l0.005,0.069l0.144,0.123l0.009,0.055h0.055l0.123,-0.101l0.216,0.037l0.083,0.139l0.118,0.084l0.095,0.128l-0.007,0.062l-0.03,0.027l-0.009,0.052l-0.042,0.037l0.003,0.027l0.027,0.034l-0.002,0.06l-0.018,0.038l0.009,0.096l0.088,0.103l0.065,0.002l0.095,-0.016l0.178,0.089l0.007,0.052l-0.03,0.044l0.007,0.027l0.06,0.028l0.044,0.084l-0.004,0.03l-0.038,0.031l0.005,0.035l0.132,0.052l0.005,0.08l-0.019,0.03l0.003,0.047l0.03,0.053v0.057l-0.026,0.023l0.003,0.032l0.092,0.073l0.019,0.093l-0.003,0.046l-0.071,0.043v0.114l0.046,0.043l-0.002,0.044l-0.072,0.079l-0.007,0.062l-0.109,0.009l-0.023,0.043l0.014,0.076l-0.021,0.034l-0.07,0.027l-0.039,0.073l-0.005,0.057l0.023,0.03l-0.002,0.027l-0.111,0.057l-0.06,0.002l-0.028,0.03l-0.049,0.08l-0.053,-0.002l-0.053,-0.032h-0.042l-0.028,0.041h-0.076l-0.044,0.045l0.016,0.044l-0.012,0.025l-0.072,-0.003l-0.037,-0.02l-0.074,0.03v0.043l0.084,0.109l-0.005,0.044l-0.069,0.013v0.032l0.115,0.103l-0.004,0.075l-0.04,0.043l0.003,0.03l0.113,0.078l-0.007,0.059l-0.06,0.059l-0.178,0.005l-0.012,0.036l0.056,0.135l-0.007,0.057l-0.058,0.034l-0.003,0.034l0.019,0.041l-0.019,0.085l-0.083,0.006l-0.051,-0.025l-0.146,0.019l-0.03,-0.025l-0.03,0.006l-0.026,0.046l-0.067,0.014l-0.067,0.084l-0.046,0.007l-0.054,0.066l-0.034,0.002l-0.028,-0.013l-0.03,-0.003l-0.044,0.066l-0.049,-0.002l-0.021,0.023l-0.002,0.182l-0.084,0.06v0.093l0.017,0.039l0.002,0.036l-0.035,0.028l-0.042,-0.009l-0.016,0.022l0.014,0.11l-0.037,0.052l-0.044,0.009l-0.002,0.025l0.027,0.037l-0.044,0.182v0.053l0.051,0.061l-0.002,0.092l-0.035,0.034l-0.055,0.007l-0.042,0.052l-0.053,0.023l0.002,0.032l0.227,0.084l0.044,0.043l0.002,0.035l-0.018,0.027v0.034l0.044,0.028l0.076,-0.003l0.014,0.035l-0.018,0.127l0.053,0.057l-0.002,0.041l-0.091,0.06l-0.169,0.011l-0.069,0.061l-0.049,0.003l-0.021,0.039l-0.021,0.173l-0.134,-0.089l-0.137,0.162l-0.074,0.043l-0.074,0.005l-0.053,0.038v0.053l-0.035,0.02l-0.063,0.005l-0.148,0.096l-0.03,0.105l-0.046,0.041l-0.119,0.002l-0.051,0.046l-0.037,0.002l-0.053,-0.025l-0.032,0.009l-0.026,0.08l-0.081,0.029l-0.037,0.046l-0.056,0.004l-0.06,0.053l-0.132,0.023l-0.06,0.054l-0.084,0.003l-0.009,0.025l0.021,0.023l-0.021,0.047l-0.276,0.062l-0.115,0.007l-0.044,0.071l-0.093,-0.003l-0.079,-0.029l-0.086,0.006l-0.03,0.053l-0.218,0.05l-0.046,0.05l-0.118,0.012l-0.086,0.079l-0.074,0.003l-0.137,-0.064l-0.09,-0.002l-0.049,0.027l-0.076,-0.002l-0.294,-0.085h-0.16l-0.067,0.028l-0.026,0.054l-0.155,0.082l-0.021,0.039l-0.051,0.003l-0.056,-0.016h-0.051l-0.062,0.041l-0.139,0.013l-0.241,-0.084l-0.091,0.004l-0.037,0.094l-0.065,0.073l-0.104,0.004l-0.032,0.03l-0.102,0.262l-0.009,0.114l0.018,0.037l-0.028,0.034l-0.053,-0.002l-0.025,-0.028h-0.028l-0.03,0.053l-0.054,0.025l-0.03,0.071l-0.069,0.045l-0.107,-0.004l-0.083,-0.037l-0.049,-0.002l-0.06,0.045l-0.107,-0.004l-0.018,0.023l-0.012,0.054l-0.069,0.041l-0.095,0.11l-0.005,0.055l0.067,0.082l0.072,0.016l0.065,0.054l0.116,0.051v0.036l-0.024,0.037l0.003,0.061l0.106,0.096l-0.007,0.194l-0.062,0.141l-0.028,0.027l0.005,0.053l0.021,0.032l-0.017,0.023l-0.055,-0.003l-0.04,-0.05l-0.021,0.002l-0.062,0.119l-0.086,0.007l-0.053,0.043h-0.033l-0.034,-0.02h-0.077l-0.134,0.139l-0.012,0.057l-0.053,0.045l0.005,0.039l0.162,0.155l-0.007,0.064l-0.042,0.043l-0.004,0.05l0.025,0.06l-0.002,0.025l-0.054,0.018l-0.074,0.091v0.041l0.035,0.053l-0.019,0.134l-0.143,0.144l-0.065,0.011l-0.044,0.037l-0.049,0.007l-0.025,0.038v0.041l0.046,0.08l0.007,0.144l0.032,0.061l-0.006,0.103l-0.061,0.087z"/>
</svg>
