<svg xmlns="http://www.w3.org/2000/svg" viewBox="1283.759 854.958 51.678 46.448">
  <path d="M1295.903821,870.781187l0.006967,-0.027799l0.027868,-0.0139l0.025546,0.016216l-0.011612,0.032432l-0.034835,0.0139l-0.013934,-0.020849Z M1295.885242,870.827519l0.004645,-0.020849l-0.013934,-0.025483l-0.020901,-0.002317l-0.006967,0.025483l0.018579,0.025483l0.018579,-0.002317Z M1298.316623,868.112641l0.025909,-0.001846l0.068473,-0.073842l-0.001851,-0.025845l-0.038863,-0.00923l-0.044415,0.038767l-0.024058,0.057227l0.014805,0.014768Z M1298.357337,868.18279l0.03146,0.003692l0.033311,-0.036921l0.075875,-0.025845l0.014805,-0.042459l-0.035162,-0.027691l-0.038863,0.012922l-0.092531,0.094148l0.011104,0.022153Z M1299.635821,866.335624l-0.002322,0.050965l0.016256,0.00695l0.018579,-0.030116v-0.032432l-0.018579,-0.011583l-0.013934,0.016216Z M1301.64,864.470758h0.034835l0.011612,-0.020849l-0.013934,-0.020849l-0.053414,-0.00695l-0.023223,0.016216l0.044124,0.032432Z M1302.764012,864.396627l-0.046447,-0.011583l-0.083604,0.034749v0.030116l0.058058,0.011583l0.076637,-0.023166l-0.004645,-0.041699Z M1303.161132,863.28929l0.097538,0.002317l0.10915,-0.034749l0.011612,-0.027799l-0.067348,-0.050965l-0.155597,0.00695l-0.041802,0.030116v0.034749l0.046447,0.039382Z M1303.470003,863.20126l0.160241,-0.092664l0.137018,-0.030116l0.053414,-0.034749l-0.013934,-0.048649l-0.046447,-0.00695l-0.058058,0.027799l-0.143985,0.011583l-0.150952,0.076448l-0.03019,0.069498l0.027868,0.034749l0.065026,-0.00695Z M1303.189,863.134078l0.03948,-0.011583v-0.016216l-0.062703,-0.00695l-0.032513,0.011583v0.020849l0.055736,0.002317Z M1304.364104,862.858402h0.025546l0.027868,-0.0139l-0.006967,-0.016216l-0.03019,-0.002317l-0.023223,0.016216l0.006967,0.016216Z M1303.915893,863.002032l0.053414,-0.023166l-0.002322,-0.020849l-0.041802,0.002317l-0.067348,0.027799l0.011612,0.0139h0.046447Z M1306.410085,861.415158l0.037157,-0.00695l0.053414,-0.020849l0.004645,-0.020849l-0.016256,-0.009266l-0.060381,0.0139l-0.032513,0.034749l0.013934,0.009266Z M1306.412408,862.402031l0.011612,-0.030116l0.037157,-0.020849l0.002322,-0.023166l-0.048769,-0.018533h-0.03019l-0.013934,0.032432l0.020901,0.064865l0.020901,-0.004633Z M1306.579616,862.485429l0.025546,-0.002317l0.006967,-0.0139l-0.018579,-0.023166l-0.020901,0.002317l-0.009289,0.023166l0.016256,0.0139Z M1307.910317,862.383498l0.046447,0.009266l0.027868,-0.00695l-0.002322,-0.032432l-0.027868,-0.030116l-0.046447,0.009266l-0.016256,0.027799l0.018579,0.023166Z M1307.86387,862.311684l0.03019,-0.016216v-0.037066l-0.067348,-0.064865l-0.032513,0.004633l-0.002322,0.034749l0.032513,0.057915l0.03948,0.020849Z M1307.722207,861.542571l0.116117,-0.009266l0.076637,-0.044015l-0.004645,-0.044015l-0.027868,-0.00695l-0.058058,0.020849l-0.132373,0.004633l-0.048769,0.025483l-0.009289,0.027799l0.088249,0.025483Z M1308.010177,861.459173l0.046447,-0.025483l0.009289,-0.032432l-0.044124,-0.018533l-0.03948,0.0139l-0.013934,0.048649l0.041802,0.0139Z  M1284.051761,869.706283l0.161,0.091l0.184,0.136l0.178,0.077l0.059,0.004l0.074,-0.027l0.067,0.009l0.177,0.099l0.06,0.003l0.046,-0.023h0.045l0.058,0.027l0.053,0.003l0.095,-0.051l0.075,0.004l0.169,0.056l0.091,0.063l0.097,0.009l0.07,-0.028l0.093,-0.111l0.086,-0.042l0.118,0.007l0.058,0.044l0.049,0.005l0.098,-0.042l0.183,-0.002l0.144,-0.067l0.109,-0.116l0.081,-0.028l0.098,0.037l0.021,0.053l-0.019,0.047l0.007,0.048l0.054,0.044l0.06,0.003l0.035,-0.014l0.077,0.002l0.083,0.042l0.072,0.009l0.051,-0.009l0.072,0.032l0.109,0.104l0.026,0.088l0.137,0.109l0.16,0.012l0.068,0.058l0.03,0.092l-0.012,0.079l-0.051,0.047l0.002,0.034l0.093,0.042v0.042l-0.028,0.051l0.021,0.053l0.058,0.023l0.244,0.053l0.033,0.033l0.009,0.046l0.056,0.014l0.083,-0.023l0.065,0.002l0.04,0.026l0.074,0.011l0.047,0.019h0.06l0.06,-0.03l0.024,-0.081l0.072,-0.054l0.125,0.003l0.051,0.014l0.049,-0.005l0.025,-0.03h0.04l0.042,0.028l0.199,0.034l0.068,-0.027l0.037,-0.128l0.065,-0.069l-0.005,-0.026l-0.086,-0.011l-0.03,-0.042l0.009,-0.042l0.072,-0.042l0.072,-0.007l0.068,-0.037l0.044,-0.002l0.023,0.023h0.035l0.009,-0.032l0.042,-0.005l0.026,0.019l0.037,-0.005l0.062,-0.065l0.086,-0.011l0.121,-0.1l0.132,-0.056l0.047,0.01l0.021,0.028l0.002,0.06l0.121,0.113l0.051,0.021l0.197,-0.002l0.065,0.03l0.063,0.067l0.079,0.016l0.186,-0.041l0.086,0.002l0.137,0.044l0.197,0.012l0.049,0.02l0.074,0.065l0.065,0.019l0.056,-0.003l0.042,0.024l0.03,0.044l0.044,0.009l0.037,-0.007l0.035,0.021l0.056,0.086l0.172,0.074l0.067,-0.005l0.102,-0.021l0.202,0.007l0.061,0.058l0.014,0.132l0.041,0.044l0.14,0.079l0.004,0.042l-0.027,0.048l0.009,0.03l0.072,0.026l0.216,0.002l0.081,0.023l0.186,0.107l0.049,0.009l0.039,-0.025v-0.068l0.044,-0.044l0.109,-0.055l0.149,-0.153l0.072,-0.023l0.135,-0.003l0.093,0.033l0.074,-0.009l0.032,-0.063l0.049,-0.023l0.086,0.007l0.028,-0.019v-0.03l-0.035,-0.025l0.003,-0.035l0.046,-0.039h0.081l0.093,0.03l0.058,-0.005l0.044,-0.049l0.056,-0.007l0.049,0.019l0.053,-0.007l0.167,-0.083l0.251,-0.072l0.065,0.002l0.056,0.03l0.04,-0.002l0.083,-0.07l0.091,-0.034h0.055l0.115,0.08l0.048,-0.004l0.014,-0.018l0.028,0.002l0.007,0.081l0.032,-0.002l0.047,-0.095l0.037,-0.014l0.051,0.021l0.039,-0.014l0.012,-0.04l-0.051,-0.027l-0.026,-0.061l0.012,-0.071l0.051,-0.114l0.081,-0.083l0.075,-0.017l0.093,-0.051l0.051,-0.057l0.109,-0.095l0.051,-0.007l0.165,0.046l0.028,-0.012l0.002,-0.034h0.026l0.048,0.03h0.051l0.012,-0.026l-0.039,-0.028l-0.086,-0.027l-0.038,0.016l-0.03,-0.007l-0.011,-0.063l0.046,-0.041l-0.011,-0.033l-0.031,-0.007l-0.016,-0.039l0.037,-0.035l-0.016,-0.018l-0.051,-0.01l-0.095,-0.09l0.004,-0.023l0.088,-0.045l0.042,-0.041l0.058,-0.021l0.026,-0.051l0.039,-0.039l0.089,-0.016l0.097,0.018l0.114,-0.011l0.037,-0.035l0.005,-0.042l0.042,-0.016v-0.025l-0.054,-0.01l-0.086,0.021l-0.046,-0.007l-0.023,-0.055l0.081,-0.149l0.115,-0.148l0.46,-0.456l0.017,-0.039l-0.009,-0.068l0.029,-0.03l0.091,-0.031l0.1,-0.131l0.017,-0.076l0.029,-0.02l0.058,0.016l0.033,-0.018l-0.004,-0.054l0.05,-0.062l0.03,0.002v0.031l0.031,0.015l0.059,-0.015l0.095,0.022l0.015,0.035l-0.032,0.026l0.004,0.022l0.048,0.011l0.004,0.024l-0.056,0.046l0.009,0.019l0.056,-0.004l0.031,-0.044l0.008,-0.041l0.122,-0.051l0.026,-0.028l0.041,0.002l0.074,0.048l0.018,-0.011l-0.018,-0.063l0.018,-0.044l0.072,-0.024l0.019,-0.034l-0.034,-0.042l-0.074,-0.009l-0.016,-0.039l0.065,-0.067l-0.012,-0.014l-0.066,0.025l-0.019,-0.02l0.028,-0.096l0.069,-0.072l0.105,-0.005l0.043,0.016l0.044,-0.002l0.08,-0.038l0.22,-0.019l0.031,-0.018l0.004,-0.032l-0.03,-0.042l0.01,-0.052l0.048,-0.05l0.033,-0.09l-0.002,-0.033l-0.066,-0.037l0.001,-0.037l0.052,-0.033l0.076,0.007l0.022,0.031l-0.007,0.063l-0.026,0.043l-0.002,0.04l0.048,0.074l0.021,-0.002l0.011,-0.039l-0.024,-0.035l0.009,-0.053l0.052,-0.061l0.018,-0.083l0.076,-0.153l0.043,-0.032l0.016,-0.04v-0.078l0.013,-0.044l0.032,-0.022v-0.028l-0.078,-0.039l-0.007,-0.039l0.031,-0.014l0.004,-0.024l-0.033,-0.039l0.038,-0.052l0.08,-0.033l0.05,-0.043l0.2,-0.029l0.011,-0.039l-0.068,-0.056l-0.01,-0.044l-0.032,-0.03l-0.002,-0.047l0.097,-0.102l0.056,-0.113l0.121,-0.07l0.002,-0.032l-0.046,-0.032l-0.056,0.013l-0.021,-0.023l0.03,-0.072l0.074,-0.006l0.021,-0.021v-0.065l0.042,-0.042l0.065,0.002l0.009,-0.027l-0.088,-0.049l0.005,-0.049l0.049,-0.041l0.113,-0.021l0.028,-0.028l0.003,-0.039l0.032,-0.028l0.079,0.002l0.072,0.042l0.026,-0.014l0.011,-0.065l0.081,-0.083l0.112,-0.058l0.123,-0.003l0.111,0.075l0.012,0.044l0.042,0.002l0.049,-0.053l-0.017,-0.037l-0.099,-0.021l-0.038,-0.054l0.01,-0.013l0.1,0.03l0.025,-0.021l-0.012,-0.053l0.019,-0.017l0.044,0.019l0.026,-0.012l0.014,-0.069l0.044,-0.016l0.069,0.02l0.072,-0.02l0.096,-0.072l0.011,-0.051l0.033,-0.026l0.037,0.007l0.035,-0.016l0.035,-0.07l0.041,-0.037l0.093,-0.023l0.01,-0.021l-0.038,-0.016l0.003,-0.028l0.118,-0.108l0.04,-0.058l0.123,-0.105h0.037l0.039,0.028v0.046l0.028,0.017l0.054,-0.017l0.051,0.017l0.051,0.083l0.039,0.007l0.058,-0.032l0.038,0.016l0.002,0.081l0.072,0.1l-0.012,0.048l-0.058,0.021l-0.067,0.002l-0.056,0.065l0.021,0.04l0.058,0.018l0.044,0.049l-0.004,0.055l0.041,0.024l0.049,-0.014l0.07,-0.105l0.086,-0.004l0.072,0.046l0.035,0.134l0.023,0.019l0.009,-0.072l-0.037,-0.16l-0.06,-0.046h-0.065l-0.11,0.046l-0.093,0.005l-0.006,-0.028l0.104,-0.062l0.033,-0.086l-0.017,-0.104l0.051,-0.061l0.205,-0.081l0.055,-0.088l0.091,-0.06l0.007,-0.037l-0.028,-0.051l0.009,-0.093l0.086,-0.111l-0.028,-0.011l-0.113,0.09l-0.123,0.039l-0.189,0.003l-0.011,-0.024l0.074,-0.055l0.1,-0.021l0.014,-0.028l-0.014,-0.062l0.037,-0.118l0.056,-0.04l0.077,-0.004l0.034,-0.047v-0.055l0.028,-0.063l0.102,-0.037v-0.037l-0.034,-0.023l-0.114,-0.016l-0.16,-0.075v-0.037l0.158,-0.134l0.02,-0.042v-0.058l0.058,-0.048l0.119,-0.033l0.086,0.021l0.009,0.037l-0.016,0.04l-0.042,0.013l-0.081,0.112l0.014,0.025l0.074,0.035l0.084,-0.005l0.074,-0.025l0.1,0.011l0.076,0.04h0.035l0.047,-0.056l0.049,-0.004l0.016,0.016l-0.054,0.097l0.033,0.035l0.088,0.021l0.007,-0.021l-0.049,-0.028l-0.014,-0.037l0.021,-0.037l0.035,-0.016l0.002,-0.035l-0.046,-0.065l0.009,-0.113l0.054,-0.084l0.083,-0.011l0.04,0.034h0.035l0.032,-0.025h0.037l0.042,0.028l0.037,-0.005l0.014,-0.046l0.098,-0.026l0.111,-0.002l0.095,-0.063l0.072,-0.09l0.117,-0.035l0.044,0.021l0.053,0.067l0.002,0.079l-0.067,0.06l0.012,0.021l0.086,0.007l0.053,0.035l0.058,0.004l0.035,-0.03l0.042,0.005l0.021,0.053l-0.01,0.086l0.061,0.056l0.03,-0.005l0.009,-0.093l-0.049,-0.06v-0.035l0.033,-0.007l0.144,0.1l0.007,0.049l-0.021,0.074l0.012,0.039l0.034,0.032l0.012,0.082l0.051,0.048l0.002,0.051l-0.09,0.084l-0.026,0.097v0.106l0.024,0.005l0.027,-0.062l-0.002,-0.068l0.1,-0.143l0.035,-0.012l0.016,-0.035l-0.012,-0.062l0.024,-0.044l0.053,-0.026l0.033,-0.081l-0.024,-0.028l-0.046,-0.016l-0.028,-0.076l0.019,-0.074l-0.04,-0.019l-0.037,0.005l-0.044,-0.021l-0.007,-0.033l-0.044,-0.02h-0.079l-0.051,-0.07l0.009,-0.023l0.077,-0.007l0.018,-0.049l0.04,-0.002l0.048,0.063l0.042,-0.003l0.026,-0.123l0.032,-0.044l0.075,-0.013l0.009,-0.044l-0.033,-0.049v-0.044l0.047,-0.046l0.037,-0.003l0.033,0.042l0.069,0.002l0.056,-0.034l0.077,-0.014l0.062,-0.047l0.021,-0.069l0.049,-0.003l0.074,0.068l0.037,0.002l0.021,-0.081h0.031l0.027,0.069l0.04,-0.002l0.051,-0.03l-0.009,-0.035l-0.042,-0.03l0.011,-0.021l0.072,0.005l0.028,0.044l-0.004,0.046l0.035,0.021l0.076,-0.037l0.033,-0.088l0.072,-0.037l0.223,0.018l0.076,0.033l0.01,0.051l-0.054,0.035l-0.137,0.055l-0.028,0.044l0.014,0.028l0.068,0.012l0.16,0.09l0.044,0.056l0.114,0.055l0.021,0.063l0.085,0.051l0.198,0.002l0.063,0.018h0.034l0.021,-0.016l0.144,-0.004l0.037,-0.051l0.182,-0.051l0.167,-0.135l0.181,-0.055l0.056,-0.056l-0.01,-0.104l0.033,-0.104l0.067,-0.061l0.128,-0.016l0.165,0.088l0.042,-0.014l-0.012,-0.065l-0.097,-0.046l-0.047,-0.049l0.005,-0.062l0.044,-0.028l0.128,0.049h0.081l0.079,-0.086l0.023,-0.227l-0.014,-0.069l-0.097,-0.054l-0.226,0.019l-0.102,-0.009l-0.007,-0.033l0.142,-0.067l0.334,0.044l0.209,-0.021l0.135,-0.062l0.063,-0.13l-0.031,-0.021l-0.197,0.072l-0.248,-0.023l-0.177,-0.051l-0.16,0.018l-0.026,-0.028l0.051,-0.06l0.154,-0.03l0.023,-0.056l-0.021,-0.097l-0.067,-0.055l-0.114,-0.01l-0.054,0.021l-0.153,0.005l-0.162,-0.063l-0.024,-0.065l-0.086,-0.051l-0.069,-0.009l-0.173,0.057l-0.08,0.002l-0.138,-0.054l-0.041,0.01l-0.043,0.066l-0.057,0.037l-0.017,-0.009l0.032,-0.076l0.029,-0.048l-0.005,-0.02l0.054,-0.069l0.132,-0.071l0.129,-0.104l0.049,-0.08l0.01,-0.087l-0.035,-0.101l0.007,-0.073l0.053,-0.104l0.066,-0.052l0.035,-0.073l0.017,-0.142l0.035,-0.049v-0.042l-0.049,-0.073l-0.01,-0.062l0.021,-0.059l-0.004,-0.063l-0.101,-0.062v-0.108l0.025,-0.139l0.17,-0.236v-0.066l-0.087,-0.039l-0.052,-0.083l-0.011,-0.08l0.039,-0.076l0.007,-0.094l-0.025,-0.101l0.018,-0.083l0.136,-0.146l0.017,-0.115l-0.094,-0.455l0.01,-0.084l0.157,-0.142l0.112,-0.216l0.226,-0.236l0.16,-0.08l0.248,-0.007l0.118,0.052l0.084,-0.007l0.087,-0.1l0.031,-0.112l0.181,-0.184l0.143,-0.045l0.275,-0.264l0.502,-0.382l0.157,-0.087l0.223,-0.031l0.156,-0.056l0.244,-0.153l0.474,-0.153l0.164,-0.121l0.23,-0.032l0.247,0.018l0.164,-0.039l0.097,-0.066l0.094,-0.135l0.112,-0.056h0.136l0.09,0.087l0.112,0.028l0.125,0.007l0.338,-0.143l0.216,-0.027l0.324,-0.08l0.167,-0.108l0.314,-0.01l0.285,0.034l0.08,0.056l0.067,0.007l0.122,-0.011l0.142,0.025l0.133,0.108l0.129,0.006l0.456,-0.048l0.101,-0.049l0.32,-0.003l0.122,-0.049l0.206,-0.01l0.101,0.052l0.073,0.16l0.132,0.097h0.049l0.115,-0.077l0.14,-0.177l0.052,0.004l0.021,0.045l0.09,0.073l0.244,0.007l0.209,0.045h0.091l0.209,-0.087l0.097,-0.087l0.08,-0.021v2.539l0.042,0.035l0.058,-0.002l0.049,-0.056h3.105l0.095,0.063l0.114,0.021l0.051,0.06l0.002,0.095l0.086,0.104l0.109,0.072h0.089l0.093,-0.042l0.067,-0.102l0.014,-0.083l0.046,-0.035l0.084,0.009l0.06,-0.027l0.042,-0.107l0.026,0.002l0.014,0.033l-0.024,0.06l0.028,0.016l0.042,-0.03l0.037,0.007l0.026,0.032l0.037,-0.007l-0.012,-0.044l0.019,-0.02l0.037,-0.003l0.053,-0.069l0.11,-0.053l0.148,-0.021l0.028,0.027l0.035,0.003l0.037,-0.028l0.118,0.007l0.059,0.028l0.009,0.083l0.035,0.009l0.046,-0.023l0.07,0.003l0.083,0.034h0.045l0.03,-0.034l0.048,0.007l0.056,0.032l0.107,0.002l0.044,-0.023l0.061,0.002l0.065,0.081l0.032,0.003l0.012,-0.04l0.032,-0.011l0.065,0.021l0.068,0.076l0.002,0.065l0.035,0.044l0.104,0.032l0.019,0.042l-0.009,0.049l0.027,0.076l0.119,0.125l0.23,0.176l-0.003,0.093l0.017,0.067l0.053,0.014l0.044,-0.035h0.047l0.044,0.028l0.002,0.067l-0.056,0.051l0.019,0.016l0.081,-0.027l0.228,0.02l0.058,-0.025l0.046,0.005l0.04,0.081l0.063,0.009l0.078,-0.026l0.235,0.077l0.053,0.039l0.049,0.009l0.049,-0.023l0.225,0.026l0.084,-0.021l0.046,0.007l0.042,0.053l0.081,0.014l0.065,-0.025l0.065,0.004l0.077,0.049l0.218,0.025l0.063,0.044l0.063,0.014l0.032,0.035l-0.002,0.037l0.084,0.065l0.092,0.011l0.096,0.061l0.021,0.074l0.234,0.211l0.051,0.108l0.077,0.054l0.135,0.043l0.132,0.1l0.073,0.011l0.063,0.048l0.031,0.07l-0.003,0.087l0.021,0.034l0.048,0.039v0.093l-0.052,0.056v0.038l0.067,0.076l0.795,0.217l1.56,-0.051l0.762,0.204l1.157,0.44l0.98,0.477l-0.065,0.501l0.018,0.064l0.372,0.167l0.209,0.028l0.172,-0.023l0.088,-0.056l0.074,0.005l0.065,0.042l0.112,0.018l0.102,0.06h0.056l0.041,-0.065l0.075,-0.018l0.06,-0.056l0.06,-0.004l0.298,0.065l0.079,-0.038l0.018,0.014l-0.167,0.464l-0.369,0.861l-0.544,0.192l0.69,0.969l0.344,0.794l0.044,0.815l0.355,0.271l-0.007,0.04l-0.111,0.074l-0.033,0.085l-0.058,0.07l-0.009,0.06l-0.023,0.026l-0.049,0.004l-0.016,0.04l0.041,0.106l-0.025,0.114l-0.04,0.037l-0.016,0.039l0.016,0.032l-0.013,0.019l-0.035,-0.005l-0.119,0.165l-0.051,0.007l-0.023,0.037l-0.005,0.099l0.028,0.144l0.102,0.169l0.012,0.1l0.065,0.053l0.065,-0.002l0.1,0.016l0.148,0.123l0.003,0.046l0.074,0.056v0.027l-0.037,0.019l-0.012,0.18l-0.07,0.056l-0.016,0.042l-0.009,0.062l-0.046,0.033l-0.021,0.083l0.011,0.039l-0.007,0.035l-0.037,0.016v0.13l0.04,0.012l0.039,0.053l-0.002,0.032l-0.04,0.012l-0.037,-0.028l-0.023,0.005l-0.032,0.099l0.004,0.051l0.049,0.047l0.037,0.007l0.033,-0.044l0.03,0.009l0.004,0.062l-0.02,0.026l-0.042,0.007l-0.03,0.035v0.06l0.034,0.032l-0.002,0.037l-0.042,0.014l-0.014,0.06l0.019,0.056l-0.023,0.005l-0.033,-0.035h-0.018l-0.014,0.028h-0.056l-0.037,-0.04l-0.033,-0.002l-0.025,0.019l-0.061,0.004l-0.051,0.058l-0.014,0.079l0.026,0.109l0.004,0.06l-0.032,0.164l-0.077,0.098l-0.002,0.037l0.03,0.037v0.034l-0.009,0.058l0.009,0.035l0.088,-0.005l0.063,-0.016l0.04,0.023v0.028l-0.044,0.007l-0.017,0.026v0.109l-0.037,0.092l-0.002,0.067l-0.035,0.023l-0.046,-0.02l-0.042,0.007l-0.026,0.037l-0.009,0.06l-0.037,0.051l0.014,0.044l0.072,0.016l0.009,0.046l-0.088,0.088l-0.003,0.049l-0.028,0.056l0.021,0.013l0.061,-0.02l0.025,0.018l-0.004,0.067l0.058,0.079l-0.012,0.014l-0.035,-0.005l-0.016,0.007l0.044,0.088l0.042,0.044l0.005,0.044l-0.033,0.019v0.023l0.065,0.03l0.012,0.114l0.044,0.062l0.002,0.063l-0.03,0.053l0.007,0.049l0.037,0.013l0.014,0.033l-0.005,0.037l0.033,0.032h0.07l0.025,0.024l-0.007,0.034l0.065,0.072l0.014,0.037l-0.016,0.084l0.009,0.025l0.04,0.051l0.011,0.035l-0.004,0.055l0.03,0.061l-0.003,0.062l-0.034,0.023l-0.003,0.033l0.042,0.032v0.03l-0.035,0.035l-0.007,0.062l0.021,0.028l-0.004,0.028l-0.026,0.019l-0.002,0.03l0.028,0.023l0.004,0.023l-0.023,0.021l0.009,0.037l0.147,0.13l0.099,0.007l0.019,0.016l-0.019,0.055l0.007,0.047l0.079,0.067v0.042l-0.048,0.081l-0.007,0.104l-0.021,0.03h-0.033l-0.018,-0.046l-0.026,-0.003l-0.067,0.081l-0.021,0.114l-0.065,0.081l-0.028,0.049l0.023,0.025l0.04,-0.007l0.03,0.028l-0.014,0.035l0.002,0.162l-0.018,0.055l-0.285,0.165l-0.031,-0.073l0.021,-0.049l-0.021,-0.017l-0.157,0.094l-0.042,0.048l-0.066,0.018l-0.091,0.059l-0.052,0.003l-0.055,-0.031l-0.056,0.028l-0.039,0.062l-0.118,0.038l0.157,0.185l-0.056,0.191l0.031,0.055l0.098,0.052l-0.011,0.122l0.046,0.118l0.317,0.434l-0.042,0.16l-0.028,0.011l-0.101,0.382l-0.045,0.007l-0.147,0.159l-0.209,0.032l-0.222,-0.136l-0.182,0.018l-0.146,0.093l-0.129,0.032l-0.087,0.093l-0.056,0.007l-0.041,-0.01l-0.115,0.08h-0.06l-0.115,0.108l-0.003,0.045l0.108,0.135l0.038,0.098l-0.003,0.139l0.042,0.121l0.062,0.038l-0.003,0.032l-0.275,0.062l0.073,0.236l0.059,0.365h0.387l0.015,-0.052l0.199,-0.005l0.2,-0.055l0.061,0.028l0.037,0.338l0.065,0.074h0.088l0.032,0.023l-0.009,0.065l0.075,0.123l-0.102,0.239l-0.059,0.57l-0.059,0.049l-0.01,0.094l0.047,0.232l-0.126,0.22l-0.1,0.062l-0.067,0.107l-0.177,0.124l-0.059,0.02l0.061,0.128l0.005,0.055l0.034,0.042l-0.084,0.163l0.015,0.087l-0.009,0.11l-0.019,0.061l-0.003,0.054l0.048,0.07l0.101,0.037l0.25,0.005l0.095,0.063l-0.032,0.061l-0.042,0.137l0.064,0.177l0.056,0.044l-0.056,0.375l-0.027,0.048l0.068,0.066l-0.018,0.083l-0.045,0.039l-0.007,0.126l-0.035,0.02l-0.047,0.079l0.002,0.033l0.05,0.041l0.085,0.031l0.045,-0.022l0.103,-0.007l0.039,0.022l0.039,-0.002l0.094,-0.02l0.03,0.022l0.054,-0.047l0.128,-0.021l0.143,-0.118l0.129,-0.032l0.066,0.209l-0.017,0.069l-0.185,0.132v0.042l0.181,0.163l0.15,0.066l0.056,-0.02l0.31,0.184l-0.087,0.222l-0.007,0.278l-0.146,0.698l0.024,0.546l-0.021,0.027l-0.164,-0.052l-0.09,0.014l-0.087,0.066l-0.084,0.004l-0.038,-0.028h-0.038l-0.028,0.038h-0.122l-0.06,0.059l0.115,0.285l0.039,0.052h-0.112l-0.097,0.084l-0.098,-0.011l-0.017,-0.114l-0.073,0.02l-0.094,0.125l0.007,0.094l-0.042,0.045l0.055,0.066l-0.045,0.066l0.052,0.094l0.018,0.153l-0.098,0.004l-0.073,0.034l0.007,0.084l-0.01,0.09l0.062,0.063l0.032,-0.021l0.076,0.045l-0.01,0.097l-0.049,0.073l0.004,0.094l0.047,0.036l-0.45,0.442l0.011,0.165l-0.315,0.373l-0.586,0.914h-0.664l-0.297,0.269l-0.086,0.032l-0.023,0.042l0.016,0.03l-0.016,0.019l-0.042,-0.003l-0.009,0.014l0.041,0.042l-0.011,0.019l-0.037,-0.005l-0.012,0.018l0.046,0.028l-0.016,0.026l-0.032,0.016l-0.058,0.127l0.007,0.047l0.037,0.037l-0.003,0.028l-0.044,0.011l-0.004,0.023l0.048,0.035l0.007,0.132l0.049,0.063v0.03l-0.037,0.046l0.039,0.637l0.151,0.658l-0.225,0.563l-0.708,0.843l-0.012,0.039l0.03,0.028l-0.011,0.023l-0.04,0.002l-0.081,0.079l0.002,0.037l0.093,0.016l0.065,0.067v0.026l-0.035,0.009l-0.004,0.023l0.032,0.017l0.061,-0.007l0.104,0.057l-0.004,0.028l-0.068,0.007l-0.046,0.074l0.011,0.093l0.107,0.097l0.016,0.047l0.082,0.048l0.007,0.035l-0.028,0.039l0.005,0.044l0.215,0.25l0.244,0.366l-0.016,0.019l-0.058,-0.021l-0.098,-0.074l-0.004,-0.049l-0.019,-0.034l-0.09,-0.019l-0.077,0.007l-0.053,0.037h-0.065l-0.054,0.011l-6.774,7.217l-0.483,0.336l-0.146,-0.138l-0.093,-0.15l-0.14,-0.032l-0.094,0.042l-0.139,-0.007l-0.094,-0.074l-0.063,-0.116l-0.129,-0.071l-0.111,-0.004l-0.324,0.12l-0.139,0.004l-0.523,-0.212l-0.052,0.014l-0.011,0.043l-0.055,0.021l-0.056,-0.011l-0.028,-0.049l-0.052,-0.025l-0.105,-0.003l-0.049,-0.022l-0.062,-0.067l-0.101,-0.032h-0.119l-0.073,0.036l-0.056,0.007l-0.216,-0.071l-0.149,-0.007l-0.213,0.067l-0.411,0.053l-0.097,0.046l-0.077,0.004l-0.213,-0.039l-0.083,0.003l-0.16,0.149h-0.056l-0.185,-0.092l-0.202,0.01l-0.09,0.053l-0.077,0.004l-0.321,-0.085l-0.101,0.004l-0.236,0.13l-0.147,0.014l-0.223,0.082l-0.494,-0.011l-0.094,0.042l-0.063,-0.003l-0.098,-0.064l-0.104,-0.183l-0.101,-0.06l-0.045,-0.074l-0.147,-0.025l-0.338,0.025l-0.181,0.077l-0.08,-0.014l-0.129,-0.134l-0.167,-0.078l-0.066,-0.081l-0.084,-0.053l-0.143,-0.021l-0.055,-0.032l-0.042,-0.127l-0.059,-0.032l-0.189,-0.01l-0.104,-0.036l-0.216,-0.173l-0.098,-0.031l-0.17,0.021l-0.077,-0.018l-0.083,-0.074l-0.084,-0.039l-0.136,-0.003l-0.157,-0.036l-0.209,-0.159l-0.108,-0.031h-0.3l-0.144,-0.038l-0.1,0.017l-0.063,-0.015l-0.065,-0.063l-0.058,-0.007l-0.135,0.047l-0.132,0.143l-0.044,0.003l-0.13,-0.087l-0.068,-0.003l-0.116,0.066l-0.093,-0.002l-0.055,0.042l-0.017,0.087l-0.041,0.052h-0.086l-0.182,-0.078l-0.132,-0.011l-0.262,0.044l-0.142,0.096l-0.223,0.077l-0.079,-0.06l-0.226,-0.261l-0.22,-0.16l-0.056,-0.072l-0.081,-0.239l-0.147,-0.135l-0.042,-0.007l-0.224,0.086l-0.353,0.014l-0.263,-0.072l-0.301,-0.173l-0.2,-0.236l-0.094,-0.197l-0.042,-0.201v-0.214l0.056,-0.222l0.137,-0.242l0.164,-0.177l0.007,-0.034l-0.084,-0.08l-0.098,-0.027l-0.228,-0.035l-0.044,-0.024l-0.03,-0.079l-0.059,-0.048l-0.074,-0.003l-0.126,0.042l-0.066,0.002l-0.364,-0.099l-0.123,-0.002l-0.131,-0.044l-0.124,-0.097l-0.093,-0.044l-0.159,-0.007l-0.056,-0.014l-0.121,-0.106l-0.199,-0.101l-0.394,-0.125l-0.117,-0.044l-0.091,-0.127l-0.061,-0.034l-0.249,-0.046l-0.087,-0.028l-0.102,-0.088h-0.061l-0.042,0.058l-0.054,0.028h-0.084l-0.049,0.011l-0.098,0.113l-0.046,0.016l-0.052,0.042h-0.058l-0.268,-0.104l-0.059,-0.071l-0.063,-0.037l-0.117,-0.023l-0.081,-0.028l-0.257,-0.191l-0.054,-0.01l-0.053,0.028l-0.056,0.002l-0.077,-0.057l-0.138,-0.007l-0.107,-0.046l-0.049,-0.003l-0.038,0.023l-0.221,0.007l-0.292,0.053l-0.084,-0.002l-0.145,-0.048l-0.189,-0.01l-0.25,-0.097l-0.063,-0.007l-0.067,0.03h-0.061l-0.054,-0.03l-0.058,-0.006l-0.112,0.016l-0.14,-0.033l-0.091,-0.117l-0.021,-0.099l-0.061,-0.079l-0.005,-0.044l0.052,-0.051l-0.012,-0.023l-0.103,0.007l-0.035,0.044h-0.023l-0.037,-0.037l0.016,-0.136l0.063,-0.055l-0.009,-0.042l-0.133,-0.034l-0.024,-0.051l0.038,-0.058l0.072,-0.009l0.019,-0.03l-0.066,-0.06l-0.004,-0.046l-0.028,-0.037l-0.07,-0.037l-0.005,-0.065l0.03,-0.043l0.003,-0.047l-0.091,-0.163l-0.131,-0.123l-0.016,-0.046v-0.194l-0.014,-0.069l-0.117,-0.157l-0.058,-0.032l-0.047,-0.042l-0.023,-0.062l-0.091,-0.094l-0.033,-0.109l-0.037,-0.055l-0.141,-0.146l-0.058,-0.115l-0.119,-0.178l-0.044,-0.02l-0.061,0.002l-0.056,-0.023l-0.028,-0.074l-0.054,-0.039l-0.128,-0.019l-0.03,-0.027l-0.012,-0.06l-0.121,-0.1l-0.005,-0.046l-0.026,-0.032l-0.037,-0.012l-0.019,-0.018l0.005,-0.028l-0.023,-0.027l-0.061,-0.023l-0.056,-0.09l0.007,-0.065l-0.005,-0.044l-0.051,-0.051l-0.021,-0.087l0.016,-0.03l0.056,0.003l0.056,-0.038l0.007,-0.069l-0.063,-0.166l0.004,-0.035l0.059,-0.017l0.007,-0.028l-0.024,-0.041v-0.083l0.049,-0.07v-0.083l-0.039,-0.031l-0.087,-0.111l0.007,-0.041l0.028,-0.038l0.01,-0.09l0.032,-0.052l-0.004,-0.069l-0.049,-0.076l-0.007,-0.118l0.161,-0.18v-0.035l-0.017,-0.027l-0.004,-0.038l0.039,-0.115l-0.018,-0.045l0.011,-0.041l0.049,-0.011l0.017,-0.034l-0.007,-0.111l0.021,-0.073l0.011,-0.142l-0.035,-0.107l0.007,-0.048l0.021,-0.035l-0.004,-0.083l-0.168,-0.235l-0.014,-0.09l0.021,-0.059l0.018,-0.142l-0.032,-0.052l-0.003,-0.09l0.091,-0.131l0.024,-0.104l0.039,-0.104l0.014,-0.215l-0.018,-0.058l-0.227,-0.201l-0.07,-0.007l-0.063,0.055l-0.13,0.021l-0.077,-0.021l-0.126,-0.1l-0.119,-0.004l-0.15,0.087h-0.074l-0.175,-0.083l-0.438,-0.083h-0.087l-0.214,0.09l-0.353,-0.028l-0.098,-0.052l-0.056,0.004l-0.413,0.194l-0.039,-0.014l-0.01,-0.104l0.07,-0.357l0.007,-0.491l0.035,-0.17l-0.014,-0.242l-0.074,-0.093l-0.007,-0.038l0.018,-0.045v-0.07l-0.046,-0.197l-0.112,-0.104l-0.017,-0.038l0.01,-0.093l-0.017,-0.069l-0.095,-0.132l-0.014,-0.156l-0.049,-0.142l-0.102,-0.096l-0.038,-0.122l-0.14,-0.11l-0.116,-0.014l-0.122,0.028l-0.102,-0.018l-0.21,-0.076l-0.133,-0.097l-0.052,-0.117l-0.042,-0.049l-0.277,-0.135l-0.231,-0.01l-0.122,0.041h-0.074l-0.256,-0.104l-0.213,-0.117l-0.154,-0.049l-0.112,-0.062l-0.109,-0.028l-0.098,0.004l-0.101,-0.024l-0.13,-0.073l-0.175,-0.059l-0.161,-0.021l-0.115,0.024l-0.056,-0.024l-0.102,-0.218l-0.01,-0.072l-0.025,-0.045l-0.315,-0.087l-0.088,0.007l-0.084,0.045l-0.059,-0.01l-0.119,-0.191l-0.07,-0.245l-0.084,-0.17l-0.126,-0.062h-0.091l-0.046,-0.021l-0.007,-0.056l-0.056,-0.027l-0.066,-0.004l-0.151,-0.065l-0.357,-0.077l-0.136,-0.114l-0.091,-0.245l-0.07,-0.08l-0.011,-0.062l-0.045,-0.028l-0.151,0.041l-0.074,-0.01l-0.049,-0.031l-0.091,-0.031l-0.017,-0.021l0.003,-0.1l0.102,-0.16l0.073,-0.058l-0.01,-0.038l-0.2,-0.125l-0.056,-0.083l-0.056,-0.021l-0.364,0.059l-0.091,-0.017l-0.143,-0.121l-0.098,-0.025l-0.168,-0.083l-0.056,-0.062l-0.126,-0.329l-0.018,-0.194l-0.042,-0.169l-0.091,-0.097l-0.115,-0.419l-0.088,-0.135l-0.136,-0.329v-0.11l-0.028,-0.066l-0.144,-0.173l-0.025,-0.059l-0.014,-0.159l-0.031,-0.052l-0.413,-0.478l-0.088,-0.183l-0.01,-0.173l0.042,-0.135l0.175,-0.194l0.01,-0.048l-0.042,-0.156l-0.028,-0.204l-0.213,-0.416l-0.091,-0.079l-0.119,-0.038l-0.319,-0.232l-0.283,-0.146l-0.046,-0.051l-0.014,-0.118l-0.024,-0.059l-0.084,-0.121l-0.091,-0.429v-0.204l0.063,-0.052l0.007,-0.042l-0.063,-0.083l-0.028,-0.173l-0.06,-0.156l-0.13,-0.1l-0.297,-0.118l-0.158,-0.131l-0.213,-0.322l-0.067,-0.166l-0.07,-0.056l-0.199,-0.072l-0.067,-0.049l-0.182,-0.283l-0.315,-0.322l-0.206,-0.575l-0.165,-0.252l-0.053,-0.208l-0.066,-0.073l-0.221,-0.491l-0.15,-0.187l-0.126,-0.014l-0.056,-0.052l0.003,-0.073l-0.08,-0.065l-0.196,-0.063l-0.049,-0.045l-0.007,-0.079l-0.032,-0.059l-0.112,-0.107l-0.077,-0.191l0.004,-0.155l-0.098,-0.253l-0.084,-0.045l-0.116,-0.194l0.004,-0.052l0.035,-0.01l0.007,-0.045l-0.035,-0.052l0.003,-0.118l0.165,-0.439l0.105,-0.099l0.009,-0.104z"/>
</svg>
